<?xml version="1.0" encoding="utf-8"?>
<!-- Generator: Adobe Illustrator 22.1.0, SVG Export Plug-In . SVG Version: 6.00 Build 0)  -->
<svg version="1.1" id="Layer_1" xmlns="http://www.w3.org/2000/svg" xmlns:xlink="http://www.w3.org/1999/xlink" x="0px" y="0px"
	 viewBox="0 0 1200 1200" style="enable-background:new 0 0 1200 1200;" xml:space="preserve">
<style type="text/css">
	.st0{fill:#BABABA;}
	.st1{fill:#909090;}
	.st2{fill:#FFFFFF;}
	.st3{fill:#514361;}
	.st4{font-family:'RobotoMono-Regular';}
	.st5{font-size:40px;}
	.st6{fill:none;stroke:#CECECE;stroke-width:6;stroke-miterlimit:10;}
	.st7{fill:#CECECE;}
	.st8{fill:none;stroke:#AFAFAF;stroke-width:4;stroke-linecap:round;stroke-miterlimit:10;stroke-dasharray:0,9.9536;}
	.st9{fill:#AFAFAF;}
</style>
<g>
	<path class="st0" d="M275.9,576.3l37.8,79.7c14.9,31.5,20.1,64.6,15.1,97.4l-9.1,60.2c-4.2,27.6-0.4,55.4,11.1,82.1l67.6,143.9
		c0.7,1.6,3,2.6,5.5,2.6l0,0c2.5,0,4.8-1.1,5.5-2.6L477,895.8c11.5-26.7,15.3-54.5,11.1-82.1l-9.1-60.2c-5-32.8,0.1-65.9,15.1-97.4
		l37.8-79.7c26.8-56.5,22.1-117.2-13.2-171.8l-108.7-176c-1-1.5-3.2-150.4-5.8-150.4l0,0c-2.6,0-5.1,148.9-6.1,150.4l-108.7,176
		C253.8,459,249.1,519.8,275.9,576.3z"/>
	<rect x="380.6" y="384.9" class="st1" width="46.5" height="265.6"/>
	<rect x="399.2" y="298.5" class="st1" width="9.3" height="687.9"/>
	<circle class="st2" cx="403.9" cy="545.3" r="20.9"/>
	<g>
		<g>
			<text transform="matrix(1 0 0 1 50.3398 55.5801)" class="st3 st4 st5">scale</text>
		</g>
	</g>
	<g>
		<g>
			<text transform="matrix(1 0 0 1 709.424 981.777)" class="st3 st4 st5">lower adjecnt value</text>
		</g>
	</g>
	<g>
		<g>
			<text transform="matrix(1 0 0 1 709.424 788.7941)" class="st3 st4 st5">density plot</text>
		</g>
	</g>
	<g>
		<g>
			<text transform="matrix(1 0 0 1 709.4239 556.918)" class="st3 st4 st5">median</text>
		</g>
	</g>
	<g>
		<g>
			<text transform="matrix(1 0 0 1 709.4243 398.181)"><tspan x="0" y="0" class="st3 st4 st5">interquartile</tspan><tspan x="0" y="48" class="st3 st4 st5">range</tspan></text>
		</g>
	</g>
	<g>
		<g>
			<text transform="matrix(1 0 0 1 709.4231 238.4471)" class="st3 st4 st5">upper adjecent value</text>
		</g>
	</g>
	<g>
		<g>
			<text transform="matrix(1 0 0 1 394.1562 1196.3984)" class="st3 st4 st5">A</text>
		</g>
	</g>
	<g>
		<g>
			<text transform="matrix(1 0 0 1 44.5938 1195.2656)" class="st3 st4 st5">0</text>
		</g>
	</g>
	<g>
		<g>
			<text transform="matrix(1 0 0 1 42 824.6387)" class="st3 st4 st5">1</text>
		</g>
	</g>
	<g>
		<g>
			<text transform="matrix(1 0 0 1 42 527.0273)" class="st3 st4 st5">2</text>
		</g>
	</g>
	<g>
		<g>
			<text transform="matrix(1 0 0 1 42 228.4473)" class="st3 st4 st5">3</text>
		</g>
	</g>
	<line class="st6" x1="404" y1="1126" x2="404" y2="1100"/>
	<line class="st6" x1="110" y1="514" x2="94" y2="514"/>
	<line class="st6" x1="110" y1="811" x2="94" y2="811"/>
	<line class="st6" x1="110" y1="218" x2="94" y2="218"/>
	<g>
		<g>
			<g>
				<g>
					<polyline class="st6" points="111,143.7 111,1100 1132.3,1100 					"/>
					<g>
						<polygon class="st7" points="96,148.1 111,122.2 126,148.1 						"/>
					</g>
					<g>
						<polygon class="st7" points="1127.9,1115 1153.8,1100 1127.9,1085 						"/>
					</g>
				</g>
			</g>
		</g>
	</g>
	<line class="st8" x1="404" y1="545" x2="685.4" y2="545"/>
	<line class="st8" x1="450" y1="777" x2="685.4" y2="777"/>
	<line class="st8" x1="404" y1="970" x2="685.4" y2="970"/>
	<line class="st8" x1="404" y1="228.4" x2="685.4" y2="228.4"/>
	<line class="st8" x1="404" y1="410" x2="685.4" y2="410"/>
	<g>
		<g>
			<text transform="matrix(1 0 0 1 709.4234 136.368)" class="st3 st4 st5">outliers</text>
		</g>
	</g>
	<line class="st8" x1="404" y1="122.2" x2="685.4" y2="122.2"/>
	<circle class="st9" cx="403.9" cy="545.3" r="11.6"/>
	<circle class="st9" cx="450.4" cy="777.2" r="11.6"/>
	<circle class="st9" cx="403.9" cy="970.2" r="11.6"/>
	<circle class="st9" cx="403.9" cy="409.8" r="11.6"/>
</g>
</svg>
