<?xml version="1.0" encoding="utf-8"?>
<!-- Generator: Adobe Illustrator 19.2.0, SVG Export Plug-In . SVG Version: 6.00 Build 0)  -->
<svg version="1.1" id="Layer_1" xmlns="http://www.w3.org/2000/svg" xmlns:xlink="http://www.w3.org/1999/xlink" x="0px" y="0px"
	 width="1200px" height="1200px" viewBox="0 0 1200 1200" enable-background="new 0 0 1200 1200" xml:space="preserve">
<g>
	<path fill="#7581BA" d="M275.92,576.281l37.791,79.734c14.946,31.535,20.075,64.637,15.095,97.434l-9.147,60.24
		c-4.187,27.573-0.432,55.403,11.08,82.11l67.613,143.935c0.729,1.553,2.965,2.616,5.501,2.616l0,0c2.536,0,4.771-1.063,5.501-2.616
		l67.614-143.935c11.512-26.707,15.267-54.537,11.08-82.11l-9.147-60.24c-4.98-32.797,0.148-65.899,15.095-97.434l37.791-79.734
		c26.793-56.53,22.122-117.249-13.22-171.825L409.833,245.17c-1.038-1.52-3.386-2.503-5.981-2.503l0,0
		c-2.595,0-4.943,0.983-5.981,2.503L289.14,404.456C253.798,459.032,249.127,519.751,275.92,576.281z"/>
	
		<rect x="380.602" y="384.89" transform="matrix(-1 -1.224647e-16 1.224647e-16 -1 807.7056 1035.4115)" fill="#464A90" width="46.502" height="265.632"/>
	
		<rect x="399.203" y="298.492" transform="matrix(-1 -1.224647e-16 1.224647e-16 -1 807.7056 1284.9196)" fill="#464A90" width="9.3" height="687.935"/>
	<circle fill="#FFFFFF" cx="403.853" cy="545.293" r="20.926"/>
	<g>
		<text transform="matrix(1 0 0 1 78.3398 55.5801)" fill="#7F7F7F" font-family="'Roboto-Regular'" font-size="65.1024px">scale</text>
	</g>
	<g>
		<text transform="matrix(1 0 0 1 736.9707 877.1484)"><tspan x="0" y="0" fill="#7F7F7F" font-family="'Roboto-Regular'" font-size="65px">95% confidence</tspan><tspan x="245.496" y="65.103" fill="#7F7F7F" font-family="'Roboto-Regular'" font-size="65px">interval</tspan></text>
	</g>
	<g>
		<text transform="matrix(1 0 0 1 859.5122 684.166)"><tspan x="0" y="0" fill="#7F7F7F" font-family="'Roboto-Regular'" font-size="65px">density plot</tspan><tspan x="-178.147" y="65.103" fill="#7F7F7F" font-family="'Roboto-Regular'" font-size="65px">width = frequency</tspan></text>
	</g>
	<g>
		<text transform="matrix(1 0 0 1 980.4727 517.3945)" fill="#7F7F7F" font-family="'Roboto-Regular'" font-size="65px">median</text>
	</g>
	<g>
		<text transform="matrix(1 0 0 1 847.7373 302.8516)"><tspan x="0" y="0" fill="#7F7F7F" font-family="'Roboto-Regular'" font-size="65px">interquartile</tspan><tspan x="182.527" y="65.103" fill="#7F7F7F" font-family="'Roboto-Regular'" font-size="65px">range</tspan></text>
	</g>
	<g>
		<text transform="matrix(1 0 0 1 394.1562 1196.3984)" fill="#37246D" font-family="'Roboto-Medium'" font-size="46.5017px">A</text>
	</g>
	<g>
		<text transform="matrix(1 0 0 1 44.5938 1195.2656)" fill="#37246D" font-family="'Roboto-Medium'" font-size="46.5017px">0</text>
	</g>
	<g>
		<text transform="matrix(1 0 0 1 2 824.6387)" fill="#37246D" font-family="'Roboto-Medium'" font-size="46.5017px">0.1</text>
	</g>
	<g>
		<text transform="matrix(1 0 0 1 2 527.0273)" fill="#37246D" font-family="'Roboto-Medium'" font-size="46.5017px">0.2</text>
	</g>
	<g>
		<text transform="matrix(1 0 0 1 2 228.4473)" fill="#37246D" font-family="'Roboto-Medium'" font-size="46.5017px">0.3</text>
	</g>
	<line fill="none" stroke="#464A90" stroke-width="4" stroke-miterlimit="10" x1="404" y1="1133" x2="404" y2="1067"/>
	<line fill="none" stroke="#464A90" stroke-width="4" stroke-miterlimit="10" x1="143" y1="514" x2="78" y2="514"/>
	<line fill="none" stroke="#464A90" stroke-width="4" stroke-miterlimit="10" x1="143" y1="811" x2="78" y2="811"/>
	<line fill="none" stroke="#464A90" stroke-width="4" stroke-miterlimit="10" x1="143" y1="218" x2="78" y2="218"/>
	<g>
		<g>
			<polyline fill="none" stroke="#464A90" stroke-width="16" stroke-miterlimit="10" points="111,122.187 111,1100 1153.813,1100 
							"/>
			<g>
				<polygon fill="#464A90" points="83.077,130.357 111,82 138.923,130.357 				"/>
			</g>
			<g>
				<polygon fill="#464A90" points="1145.643,1127.924 1194,1100 1145.643,1072.076 				"/>
			</g>
		</g>
	</g>
	<line fill="none" stroke="#AFAFAF" stroke-width="8" stroke-miterlimit="10" x1="404" y1="545" x2="1194" y2="545"/>
	<line fill="none" stroke="#AFAFAF" stroke-width="8" stroke-miterlimit="10" x1="450" y1="777" x2="1194" y2="777"/>
	<line fill="none" stroke="#AFAFAF" stroke-width="8" stroke-miterlimit="10" x1="404" y1="970" x2="1194" y2="970"/>
	<line fill="none" stroke="#AFAFAF" stroke-width="8" stroke-miterlimit="10" x1="404" y1="410" x2="1194" y2="410"/>
	<circle fill="#AFAFAF" cx="403.853" cy="545.293" r="11.625"/>
	<circle fill="#AFAFAF" cx="450.354" cy="777.169" r="11.625"/>
	<circle fill="#AFAFAF" cx="403.853" cy="970.152" r="11.625"/>
	<circle fill="#AFAFAF" cx="403.853" cy="409.806" r="11.625"/>
</g>
</svg>
