<svg enable-background="new 0 0 256 256" height="256" viewBox="0 0 256 256" width="256" xmlns="http://www.w3.org/2000/svg"><path d="m57.893 88.409-.197-.325c-3.219-6.103-8.466-16.055-11.685-22.148l-10.434-22.513c-.266-.571-.827-.925-1.447-.925s-1.191.354-1.447.925l-10.434 22.512c-3.514 7.57-7.412 14.972-11.685 22.148l-.197.325c-7.757 13.053-10.247 28.586-6.94 43.411l18.742 84.085c1.447 6.457 5.631 12.403 10.277 17.207.423.433 1.004.669 1.614.669h.138c.61 0 1.191-.236 1.614-.669 4.646-4.804 8.83-10.749 10.277-17.207l18.743-84.085c3.308-14.824.818-30.358-6.939-43.41zm-18.841 61.739h-9.844v-63.984h9.844zm-4.922-38.882c2.175 0 3.937 1.763 3.937 3.937s-1.763 3.937-3.937 3.937-3.937-1.763-3.937-3.937 1.763-3.937 3.937-3.937zm119.031 40.103-7.432-24.521c-2.943-9.706-3.947-19.884-2.973-29.974l1.801-18.526c.827-8.485.089-17.049-2.175-25.259l-13.299-44.277c-.148-.482-.581-.807-1.083-.807s-.935.325-1.083.807l-13.299 44.277c-2.264 8.21-3.002 16.774-2.175 25.259l1.801 18.526c.975 10.09-.03 20.268-2.973 29.974l-7.432 24.521c-5.266 17.394-4.351 36.077 2.599 52.861l21.39 49.002c.197.463.66.768 1.171.768.512 0 .975-.305 1.181-.768l21.381-49.002c6.951-16.784 7.866-35.467 2.6-52.861zm-20.239 58.403h-9.844v-72.932h9.844zm-4.922-47.976c2.175 0 3.937 1.763 3.937 3.938s-1.763 3.938-3.937 3.938c-2.175 0-3.938-1.763-3.938-3.938s1.764-3.938 3.938-3.938zm118.529-101.354-3.416-6.231c-6.133-11.192-10.966-23.044-14.401-35.329l-4.508-16.075c-.129-.472-.572-.807-1.064-.807-.502 0-.935.335-1.073.807l-4.499 16.085c-3.445 12.275-8.279 24.127-14.401 35.319l-3.416 6.231c-4.902 8.948-7.481 18.979-7.481 29.177 0 7.166 1.27 14.273 3.75 20.997l7.905 21.449c5.887 15.976 10.405 32.425 13.496 49.169l4.676 19.52c.118.473.551.817 1.043.817s.915-.344 1.034-.817l4.676-19.52c3.101-16.744 7.609-33.193 13.506-49.169l7.895-21.449c2.481-6.723 3.75-13.83 3.75-20.997-.001-10.198-2.57-20.229-7.472-29.177zm-18.467 49.879h-9.844v-51.68h9.844zm-4.925-24.157c2.175 0 3.938 1.763 3.938 3.937 0 2.175-1.763 3.938-3.938 3.938s-3.937-1.763-3.937-3.938c-.001-2.174 1.762-3.937 3.937-3.937z"/></svg>