<?xml version="1.0" encoding="utf-8"?>
<!-- Generator: Adobe Illustrator 24.0.1, SVG Export Plug-In . SVG Version: 6.00 Build 0)  -->
<svg version="1.1" id="Layer_1" xmlns="http://www.w3.org/2000/svg" xmlns:xlink="http://www.w3.org/1999/xlink" x="0px" y="0px"
	 viewBox="0 0 1268 418" style="enable-background:new 0 0 1268 418;" xml:space="preserve">
<style type="text/css">
	.st0{fill:#A39CB9;}
	.st1{fill:#DCDDE2;}
	.st2{fill:#B5AEC7;}
	.st3{fill:none;stroke:#888888;stroke-width:1.6068;}
	.st4{fill:none;stroke:#888888;stroke-width:1.7254;}
	.st5{fill:#B4B4B5;}
	.st6{fill:none;}
	.st7{font-family:'RobotoMono-Regular';}
	.st8{font-size:19px;}
</style>
<path class="st0" d="M1014.2,373.8H251V47.7h159.7h157.9h157.1h144.2h144.2v326.1H1014.2z"/>
<path class="st1" d="M1014.2,373.8H251l0.5-244.1l157.4,27.6l159.6-72.1l157.1,19.2l144.2-19.2l144.2,38.2v250.4H1014.2z"/>
<path class="st2" d="M1014.2,373.8H251v-91.1l159.6-12.8l155.7-61.5l159.9-21.8L876.9,226l137.3,88.7L1014.2,373.8z"/>
<g>
	<path class="st3" d="M244.8,5v376.9l797-0.7"/>
	<path class="st4" d="M253.7,382.6v8.6"/>
	<path class="st4" d="M340.1,382.6v8.6"/>
	<path class="st4" d="M426.3,382.6v8.6"/>
	<path class="st4" d="M512.7,382.6v8.6"/>
	<path class="st4" d="M599.3,382.6v8.6"/>
	<path class="st4" d="M685.4,382.6v8.6"/>
	<path class="st4" d="M771.8,382.6v8.6"/>
	<path class="st4" d="M858.1,382.6v8.6"/>
	<path class="st4" d="M944.5,382.6v8.6"/>
	<path class="st4" d="M1030.9,382.6v8.6"/>
</g>
<path class="st5" d="M258.8,408.5c0,0.8-0.1,1.5-0.3,2.2c-0.1,0.6-0.4,1.2-0.8,1.7c-0.3,0.5-0.8,0.8-1.3,1.1l-1.8,0.4l-1.8-0.4
	c-0.5-0.2-1-0.6-1.3-1.1c-0.4-0.5-0.7-1.1-0.9-1.7c-0.2-0.7-0.3-1.5-0.3-2.2v-3.2c0-0.8,0.1-1.5,0.3-2.2c0.1-0.6,0.4-1.2,0.8-1.7
	c0.3-0.5,0.8-0.8,1.3-1.1c1.2-0.5,2.5-0.5,3.7,0c0.5,0.2,1,0.6,1.3,1.1c0.4,0.5,0.6,1.1,0.8,1.7c0.2,0.7,0.3,1.5,0.3,2.2V408.5z
	 M251.8,408.1l5.3-4c-0.1-0.7-0.3-1.4-0.8-2c-0.5-0.5-1.2-0.7-1.8-0.7c-0.8-0.1-1.5,0.3-2,0.9c-0.5,0.8-0.7,1.7-0.7,2.6V408.1z
	 M257.1,405.7l-5.1,4c0,0.7,0.3,1.4,0.8,2c0.5,0.5,1.2,0.7,1.8,0.7c0.8,0.1,1.5-0.3,2-0.9c0.5-0.8,0.7-1.7,0.7-2.6V406L257.1,405.7z
	"/>
<path class="st6" d="M342.3,413.6h-1.7v-11.2l-3.6,1.3v-1.6l5-2h0.1v13.3L342.3,413.6z"/>
<path class="st5" d="M431.3,413.6h-8.7v-1.2l4.3-4.9l0.9-1.2l0.7-0.9l0.4-0.8c0.1-0.3,0.1-0.5,0.1-0.8s0-0.6-0.1-0.9l-0.5-0.8
	l-0.8-0.5h-2.1l-0.8,0.5c-0.2,0.3-0.4,0.6-0.5,0.9c-0.1,0.4-0.2,0.8-0.1,1.2h-1.7c0-0.5,0.1-1.1,0.3-1.6s0.4-0.9,0.8-1.3l1.3-0.9
	l1.8-0.4l1.7,0.3l1.3,0.8c0.3,0.3,0.6,0.7,0.8,1.2s0.3,1,0.3,1.4s-0.1,0.8-0.3,1.2l-0.5,1.2l-0.8,1.2l-0.9,1.1l-3.6,4h6.7v1.4
	L431.3,413.6z"/>
<path class="st5" d="M511.4,406.1h2.4l0.8-0.5l0.5-0.7c0.1-0.3,0.1-0.6,0.1-0.9c0.2-1.2-0.7-2.2-1.8-2.4c-0.2,0-0.4,0-0.6,0h-0.9
	l-0.8,0.5l-0.5,0.7c-0.1,0.3-0.1,0.6-0.1,0.9h-1.7c0-1,0.4-2,1.2-2.6l1.3-0.8l1.7-0.3l1.6,0.3l1.3,0.7c0.3,0.3,0.6,0.7,0.8,1.2
	s0.3,1,0.3,1.6c0,0.3-0.1,0.5-0.1,0.8l-0.4,0.8l-0.7,0.8l-0.9,0.5l1.1,0.5l0.7,0.8c0.2,0.3,0.3,0.6,0.4,0.9s0.1,0.6,0.1,0.9
	c0,0.6-0.1,1.2-0.3,1.7s-0.5,0.9-0.9,1.2l-1.3,0.8l-1.7,0.3l-1.7-0.3l-1.3-0.8c-0.4-0.3-0.7-0.7-0.9-1.2c-0.3-0.5-0.4-1-0.4-1.6h1.7
	c0,0.3,0,0.6,0.1,0.9l0.5,0.8l0.8,0.5h2.1l0.8-0.5l0.5-0.8c0.1-0.3,0.2-0.7,0.1-1.1c0-0.4-0.1-0.7-0.3-1.1l-0.5-0.8l-0.9-0.4h-2.4
	v-1.3H511.4z"/>
<path class="st5" d="M602.7,409.2h1.8v1.4h-1.8v3.2H601v-3.2h-6.1v-1.1l5.9-9.2h1.8L602.7,409.2z M596.8,409.2h4.2v-6.6l-0.3,0.5
	L596.8,409.2z"/>
<path class="st5" d="M682.9,406.9l0.7-6.7h6.8v1.7H685l-0.4,3.6l0.9-0.4h1.3l1.7,0.3c0.5,0.2,0.9,0.5,1.2,0.9
	c0.4,0.4,0.6,0.9,0.8,1.4c0.2,0.6,0.3,1.2,0.3,1.8s-0.1,1.2-0.3,1.7s-0.4,1-0.8,1.4s-0.8,0.7-1.3,0.9l-1.8,0.4l-1.6-0.3l-1.3-0.7
	c-0.4-0.3-0.7-0.7-0.9-1.2s-0.4-1-0.4-1.6h1.6c0,0.6,0.3,1.3,0.8,1.7s1.1,0.6,1.7,0.5l1.1-0.3l0.8-0.7c0.2-0.3,0.4-0.6,0.5-0.9
	c0.1-0.4,0.1-0.8,0.1-1.2s0-0.8-0.1-1.2c-0.1-0.3-0.3-0.7-0.5-0.9l-0.8-0.7l-1.2-0.3H685l-0.5,0.3l-0.4,0.4L682.9,406.9z"/>
<path class="st5" d="M774.8,400.3v1.6h-1.7l-1.2,0.5l-0.9,0.7l-0.7,0.9l-0.4,1.1c-0.1,0.3-0.1,0.7-0.1,1.1l0.5-0.5l0.7-0.4l0.8-0.3
	h0.9c0.6,0,1.2,0.1,1.7,0.4s0.9,0.6,1.2,1.1c0.3,0.4,0.5,0.9,0.7,1.4s0.2,1,0.3,1.6c0,0.6-0.1,1.2-0.3,1.7s-0.4,1-0.8,1.4
	s-0.8,0.7-1.3,0.9c-0.6,0.3-1.2,0.4-1.8,0.4l-1.3-0.3l-1.1-0.5l-0.8-0.9l-0.4-1.1c-0.2-0.4-0.3-0.8-0.4-1.2s-0.1-0.8-0.1-1.2V408
	c0-0.6,0-1.2,0.1-1.8s0.2-1.2,0.4-1.7c0.2-0.6,0.5-1.1,0.8-1.6s0.7-1,1.2-1.3l1.7-0.8l2.2-0.3h0.1L774.8,400.3z M772.6,406.4h-0.8
	l-0.8,0.4l-0.7,0.7l-0.4,0.8v0.5c0,0.5,0.1,1.1,0.3,1.6c0.1,0.4,0.3,0.8,0.5,1.2l0.8,0.7l0.9,0.3l1.1-0.3l0.8-0.7
	c0.2-0.3,0.4-0.6,0.5-0.9c0.2-0.8,0.2-1.6,0-2.4c-0.1-0.3-0.2-0.6-0.4-0.9l-0.8-0.7L772.6,406.4z"/>
<path class="st5" d="M863.5,401.3l-5.5,12.4h-1.8l5.5-11.9h-7.2v-1.4h9.1L863.5,401.3z"/>
<path class="st5" d="M949.6,403.8c0,0.7-0.2,1.3-0.5,1.8c-0.4,0.5-0.9,0.9-1.4,1.2l0.9,0.5l0.7,0.8l0.4,0.9c0.1,0.3,0.1,0.7,0.1,1.1
	c0,0.5-0.1,1.1-0.4,1.6c-0.2,0.5-0.5,0.9-0.9,1.2l-1.3,0.8l-1.7,0.3l-1.7-0.3l-1.3-0.8c-0.4-0.3-0.7-0.7-0.9-1.2s-0.4-1-0.4-1.6
	c0-0.4,0-0.7,0.1-1.1l0.4-0.9l0.7-0.8l0.9-0.5l-0.8-0.5l-0.7-0.7l-0.4-0.8c-0.1-0.3-0.1-0.6-0.1-0.9c0-0.5,0.1-1.1,0.3-1.6
	c0.2-0.4,0.4-0.9,0.8-1.2l1.2-0.7l1.6-0.3l1.6,0.3l1.3,0.7c0.3,0.3,0.6,0.7,0.8,1.2C949.1,402.7,949.4,403.2,949.6,403.8
	L949.6,403.8z M948.2,410c0-0.4,0-0.7-0.1-1.1l-0.5-0.8l-0.8-0.5h-2.1l-0.8,0.5l-0.5,0.8c-0.1,0.3-0.2,0.7-0.1,1.1
	c0,0.4,0,0.7,0.1,1.1l0.5,0.8l0.8,0.5h2.1l0.8-0.5l0.5-0.8c0.1-0.3,0.1-0.6,0.1-0.9V410z M947.9,403.8c0-0.3,0-0.6-0.1-0.9l-0.5-0.8
	l-0.7-0.5h-1.8l-0.7,0.5l-0.4,0.8c-0.1,0.3-0.1,0.6-0.1,0.9s0,0.6,0.1,0.9l0.4,0.7l0.7,0.4h1.8l0.7-0.4l0.5-0.7
	c0.1-0.3,0.1-0.5,0.1-0.8V403.8z"/>
<path class="st5" d="M1029.6,412.2h1.6l1.2-0.4l0.8-0.7l0.5-0.9c0.1-0.3,0.2-0.7,0.3-1.1c0.1-0.3,0.1-0.7,0.1-1.1l-0.5,0.5l-0.7,0.4
	l-0.8,0.3h-0.9c-1.1,0-2.2-0.5-2.9-1.4c-0.3-0.4-0.5-0.9-0.7-1.4c-0.3-1.1-0.3-2.3,0-3.4c0.2-0.5,0.4-1,0.8-1.4s0.8-0.8,1.3-1.1
	c0.6-0.3,1.2-0.4,1.8-0.4l1.4,0.3l1.1,0.7l0.8,0.9l0.5,1.1c0.1,0.4,0.2,0.9,0.3,1.3s0.1,0.9,0.1,1.3v0.7c0,0.5,0,1.1-0.1,1.7
	c0,0.6-0.1,1.2-0.3,1.7c-0.2,0.6-0.4,1.1-0.7,1.6s-0.7,1-1.2,1.3l-1.7,0.9l-2.4,0.3h-0.1v-1.4h0.3L1029.6,412.2z M1031.5,407.8h0.8
	l0.8-0.4l0.7-0.7l0.4-0.8v-0.5c0-0.5-0.1-1.1-0.3-1.6c-0.1-0.4-0.3-0.8-0.5-1.2l-0.8-0.8l-0.9-0.3l-1.1,0.3l-0.8,0.7
	c-0.2,0.3-0.4,0.7-0.5,1.1s-0.1,0.8-0.1,1.2s0,0.8,0.1,1.2s0.2,0.7,0.4,1.1l0.8,0.7L1031.5,407.8z"/>
<path class="st4" d="M243,47.4h-8.6"/>
<path class="st4" d="M243,133.8h-8.6"/>
<path class="st4" d="M243,219.9h-8.6"/>
<path class="st4" d="M243,306.4h-8.6"/>
<text transform="matrix(1 0 0 1 193.741 313.3501)" class="st5 st7 st8">25%</text>
<text transform="matrix(1 0 0 1 193.741 225.955)" class="st5 st7 st8">50%</text>
<text transform="matrix(1 0 0 1 193.741 139.6761)" class="st5 st7 st8">75%</text>
<text transform="matrix(1 0 0 1 182.3391 53.2809)" class="st5 st7 st8">100%</text>
<path class="st5" d="M341.8,413.8h-1.7v-11.2l-3.6,1.3v-1.6l5-2h0.1v13.3L341.8,413.8z"/>
</svg>
