<?xml version="1.0" encoding="utf-8"?>
<!-- Generator: Adobe Illustrator 24.0.1, SVG Export Plug-In . SVG Version: 6.00 Build 0)  -->
<svg version="1.1" id="Layer_1" xmlns="http://www.w3.org/2000/svg" xmlns:xlink="http://www.w3.org/1999/xlink" x="0px" y="0px"
	 viewBox="0 0 1268 418" style="enable-background:new 0 0 1268 418;" xml:space="preserve">
<style type="text/css">
	.st0{fill:#C4C5D1;}
	.st1{font-family:'Avenir-Book';}
	.st2{font-size:16.6733px;}
	.st3{fill:#928CAA;}
	.st4{fill:#D5D3DD;}
	.st5{fill:#BEBACC;}
	.st6{fill:#A39CB9;}
	.st7{fill:#C9C9C9;}
	.st8{fill:#B5AEC7;}
	.st9{fill:#D8D8D8;}
	.st10{fill:none;stroke:#CCCCCC;stroke-miterlimit:10;}
	.st11{fill:#CCCCCC;}
	.st12{font-family:'RobotoMono-Regular';}
	.st13{font-size:18px;}
</style>
<g transform="translate(50 61)">
	<path class="st0" d="M175.3,297.1l37.2,8.9l37.2-6.6l37.2,7.5l37.2,12.6l37.2-1.9l37.2-2.3l37.2-2.3l37.2-5.2l37.2-1.9l37.2-5.2
		l37.2,2.3l37.2-1.9l37.2-5.2l37.2,5.2l37.2,1.9l37.2-2.9l37.2-1.9l37.2,1.4l37.2-11.8l37.2,8l37.2,6l37.2-3.3l37.2-2.3v28.6H994
		h-37.2h-37.2h-37.2h-37.2h-37.2h-37.2h-37.1h-37.2h-37.2H622h-37.2h-37.2h-37.2h-37.2h-37.2h-37.2h-37.2h-37.4h-37.2h-37.2h-37.2
		h-37.2L175.3,297.1z"/>
	<text transform="matrix(1 0 0 1 724.4688 296.2295)" class="st1 st2">assault</text>
	<path class="st3" d="M175.3,290.1l37.2,6l37.2-3.7l37.2,6.6l37.2,7l37.2,3.7l37.2-1l37.2-1.4l37.2-8l37.2-4.2l37.2-1.9l37.2,1.9
		l37.2-4.7l37.2-1.9l37.2,2.3l37.2-2.9l37.2,2.3l37.2-8.9l37.2,3.7l37.2-12.2l37.2,13.2l37.2,3.7l37.2-2.3h37.2v8.9l-37.2,2.3
		l-37.2,3.3l-37.2-6l-37.2-8l-37.2,11.8l-37.2-1.4l-37.2,1.9l-37.2,2.9l-37.2-1.9l-37.2-5.2l-37.2,5.2l-37.2,1.9l-37.2-2.3
		l-37.2,5.2l-37.2,1.9l-37.2,5.2l-37.2,2.3l-37.2,2.3l-37.2,2.2L286.9,307l-37.2-7.5l-37.2,6.6l-37.2-8.9L175.3,290.1z"/>
	<path class="st4" d="M175.3,231.9l37.2,29.2l37.2,8.5l37.2,13.6l37.2,10.3l37.2,5.2l37.2-11.8l37.2-1l37.2-31.5l37.2-16.4
		l37.2-15.9l37.2-12.2l37.2-7.5l37.2-9.9l37.2,1.9l37.2,1l37.2-13.2l37.2-38.9l37.2-19.7l37.2-17.8l37.2,47.4l37.2,33.8l37.2,27.3
		l37.2,1.4v72.3H994l-37.2,2.3l-37.2-3.7l-37.2-13.2l-37.2,12.2l-37.2-3.7l-37.2,8.9l-37.2-2.3l-37.2,2.9l-37.2-2.3l-37.2,1.9
		l-37.2,4.7l-37.2-1.9l-37.2,1.9l-37.2,4.2l-37.2,8l-37.2,1.4l-37.2,1l-37.2-4.2l-37.2-7l-37.2-6.6l-37.2,3.7l-37.2-6L175.3,231.9z"
		/>
	<path class="st5" d="M994.1,170.8l-37.2-10.3l-37.2-45.1l-37.2-52.6l-37.2,17.8L808,89.9l-37.2,47l-37.2,12.2l-37.2,1.4h-37.2
		l-37.4-13.6l-37.2,24.4l-37.2,16.5l-37.2,17.8L473,211.6l-37.2,52.2l-37.2,3.3l-37.2,23.8l-37.2-3.7l-37.2-15.9l-37.2-7.5
		l-37.2-21.1L175.3,205v21.1v5.7l37.2,29l37.2,8.5l37.2,13.6l37.2,10.3l37.2,5.2l37.2-11.8l37.2-1l37.2-31.5l37.2-16.4l37.2-15.9
		l37.2-12.2l37.2-7.5l37.4-9.9l37.2,1.9l37.2,1l37.2-13.2l37.2-38.9l37.2-19.8l37.2-17.8l37.2,47.4l37.2,33.9l37.2,27.2l37.2,1.4
		v-5.6v-34.3L994.1,170.8z"/>
	<path class="st6" d="M175.3,155.7l37.2,63.4l37.2,26.3l37.2,8l37.2,25.9l37.2,4.2l37.2-28.6l37.2-10.8l37.2-63.9l37.2-16.4
		l37.2-22.1l37.2-9.9l37.2-41.8l37.2,21.6l37.2-3.7l37.2-4.7l37.2-21.1l37.2-38.9l37.2,8.5l37.2-32.9l37.2,67.7l37.2,37.1l37.2,8.9
		l37.2,6.6v36.6l-37.2-4.7l-37.2-10.3l-37.2-45.1l-37.1-52.4l-37.2,17.8L808,89.9l-37.2,47l-37.2,12.2l-37.2,1.4h-37.2L622,136.9
		l-37.2,24.4l-37.2,16.4l-37.2,17.8l-37.2,15.9l-37.2,52.2l-37.2,3.3l-37.2,24l-37.4-3.7l-37.2-15.9l-37.2-7.5l-37.2-21.1L175.3,205
		L175.3,155.7z"/>
	<path class="st7" d="M175.3,144.9l37.2,65.8l37.2,27.3l37.2,11.2l37.2,26.7l37.2,5.6l37.2-30l37.2-13.6l37.2-65.2l37.2-21.1
		l37.2-22.6l37.2-13.6l37.2-42.7L659.1,99l37.2-1.9l37.2-7.5l37.2-20.3l37.2-39.5l37.2,8.9L882.3,5l37.2,69.5l37.2,42.7l37.2,7.5
		l37.2,2.9v11.2l-37.2-6.6l-37.2-8.9l-37.2-37.1l-37.1-67.7l-37.2,32.9L808,42.9l-37.2,38.9l-37.2,21.3l-37.2,4.7l-37.2,3.7
		L622,90.1l-37.4,41.7l-37.2,9.9l-37.2,22.1L473,180.1l-37.2,63.9l-37.2,10.8l-37.2,28.6l-37.2-4.2l-37.2-25.9l-37.2-8l-37.2-26.3
		l-37.2-63.4L175.3,144.9z"/>
	<path class="st8" d="M175.3,133.2l37.2,62.5l37.2,31l37.2,12.6l37.2,28.2l37.2,6.6l37.2-30l37.2-13.6l37.2-66.7l37.2-20.7
		l37.2-24.4l37.2-13.2l37.2-52.2l37.2,26.3l37.2,1.9l37.2-9.3l37.2-20.3l37.2-45.1l37.2-1L882.3-22l37.2,72.3l37.2,43.2l37.2,2.9
		l37.2,8.5v22.6l-37.2-2.9l-37.2-7.5l-37.2-42.7L882.5,5l-37.2,33.8L808,29.9l-37.2,39.5l-37.2,20.1L696.4,97l-37.2,1.9L622,72.5
		l-37.2,42.7l-37.2,13.6l-37.2,22.6l-37.2,21.1l-37.2,65.2l-37.2,13.6l-37.2,30l-37.4-5.5l-37.2-26.7L249.7,238l-37.2-27.3
		l-37.2-65.8L175.3,133.2z"/>
	<path class="st0" d="M175.3,124.7l37.2,66.2l37.2,28.6l37.2,16.4l37.2,28.7l37.2,5.6l37.2-32.9l37.2-17l37.2-65.2l37.2-23
		l37.2-26.3l37.2-8.5l37.2-59.6l37.2,32.5l37.2,1.4l37.4-13.2L770.8,33L808-15.8l37.2-3.3l37.2-18.7L919.7,28l37.2,45.1l37.2,0.4
		l37.2,13.2V105l-37.2-8.5l-37.2-2.9l-37.2-43.2l-37.2-72.3L845.3,5.9l-37.2,1L770.8,52l-37.2,20.1l-37.2,9.3l-37.2-1.9L622,53.3
		l-37.2,52.2l-37.2,13.2l-37.2,24.4l-37.2,20.7l-37.2,66.7l-37.2,13.6l-37.2,30l-37.4-6.6l-37.2-28.2l-37.2-12.6l-37.2-31
		l-37.2-62.5L175.3,124.7z"/>
	<path class="st9" d="M175.3,117.2l37.2,68.1l37.2,29.6l37.2,16.4l37.2,32.5l37.2,4.7l37.2-35.6l37.2-20.3l37.2-64.4l37.2-23
		L547.4,98l37.2-7.5l37.2-66.7l37.4,36.1l37.2,0.4L733.6,45l37.2-26.3L808-29.8l37.2,0.4l37.2-17l37.2,64.4l37.2,50.3l37.2-4.2
		l37.2,12.2v10.3l-37.2-13.2l-37.2-0.4L919.7,28l-37.2-65.8L845.3-19L808-15.7l-37.2,48.8l-37.2,25.3l-37.2,13.2l-37.2-1.4L622,37.8
		l-37.2,59.6l-37.4,8.5l-37.2,26.3l-37.2,23l-37.2,65.2l-37.2,17l-37.2,32.9l-37.2-5.6L286.9,236l-37.2-16.4l-37.2-28.6l-37.2-66.4
		L175.3,117.2z"/>
	<g transform="translate(0 338)">
		<path class="st10" d="M175.3-9.7v6.6"/>
		<text transform="matrix(1 0 0 1 171.6528 16.7881)" class="st11 st12 st13">0</text>
		<path class="st10" d="M212.6-9.7v6.6"/>
		<g transform="translate(66.956522)">
			<path class="st10" d="M182.9-9.7v6.6"/>
			<text transform="matrix(1 0 0 1 179.1231 16.7881)" class="st11 st12 st13">1</text>
		</g>
		<path class="st10" d="M287-9.7v6.6"/>
		<g transform="translate(133.913043)">
			<path class="st10" d="M190.3-9.7v6.6"/>
			<text transform="matrix(1 0 0 1 186.5914 16.7881)" class="st11 st12 st13">2</text>
		</g>
		<path class="st10" d="M361.4-9.7v6.6"/>
		<g transform="translate(200.869565)">
			<path class="st10" d="M197.8-9.7v6.6"/>
			<text transform="matrix(1 0 0 1 194.0596 16.7881)" class="st11 st12 st13">3</text>
		</g>
		<path class="st10" d="M435.9-9.7v6.6"/>
		<g transform="translate(267.826087)">
			<path id="a" class="st10" d="M205.2-9.7v6.6"/>
			
				<text transform="matrix(1 0 0 1 301.7613 164.4014)" style="stroke:#CCCCCC;stroke-miterlimit:10; font-family:'ArialMT'; font-size:17.2405px;"> </text>
			<text transform="matrix(1 0 0 1 201.5289 16.7881)" class="st11 st12 st13">4</text>
		</g>
		<path class="st10" d="M510.2-9.7v6.6"/>
		<g transform="translate(334.782609)">
			<path class="st10" d="M212.8-9.7v6.6"/>
			<text transform="matrix(1 0 0 1 205.2892 16.7881)" class="st11 st12 st13">5</text>
		</g>
		<path class="st10" d="M584.7-9.7v6.6"/>
		<g transform="translate(401.73913)">
			<path class="st10" d="M220.2-9.7v6.6"/>
			<text transform="matrix(1 0 0 1 212.7579 16.7881)" class="st11 st12 st13">6</text>
		</g>
		<path class="st10" d="M659.1-9.7v6.6"/>
		<g transform="translate(468.695652)">
			<path class="st10" d="M227.7-9.7v6.6"/>
			<text transform="matrix(1 0 0 1 220.2282 16.7881)" class="st11 st12 st13">7</text>
		</g>
		<path class="st10" d="M733.6-9.7v6.6"/>
		<g transform="translate(535.652174)">
			<path class="st10" d="M235.1-9.7v6.6"/>
			<text transform="matrix(1 0 0 1 227.6965 16.7881)" class="st11 st12 st13">8</text>
		</g>
		<path class="st10" d="M807.9-9.7v6.6"/>
		<g transform="translate(602.608696)">
			<path class="st10" d="M242.5-9.7v6.6"/>
			<text transform="matrix(1 0 0 1 235.1667 16.7881)" class="st11 st12 st13">9</text>
		</g>
		<path class="st10" d="M882.4-9.7v6.6"/>
		<g transform="translate(669.565217)">
			<path class="st10" d="M250.1-9.7v6.6"/>
			<text transform="matrix(1 0 0 1 242.6349 16.7881)" class="st11 st12 st13">10</text>
		</g>
		<path class="st10" d="M956.8-9.7v6.6"/>
		<g transform="translate(736.521739)">
			<path class="st10" d="M257.5-9.7v6.6"/>
			<text transform="matrix(1 0 0 1 250.1033 16.7881)" class="st11 st12 st13">11</text>
		</g>
		<path class="st10" d="M1031.3-9.7v6.6"/>
		<path class="st11" d="M175.3-7.7v-2.4h855.8v2.4"/>
	</g>
	<g transform="translate(0 338)">
		<path class="st10" d="M171.3-12.7h-6.6"/>
		<text transform="matrix(1 0 0 1 147.5933 -6.4736)" class="st11 st12 st13">0</text>
	</g>
	<g transform="translate(0 253.5)">
		<path class="st10" d="M171.3-22.2h-6.6"/>
		<text transform="matrix(1 0 0 1 126.9023 -15.8994)" class="st11 st12 st13">200</text>
	</g>
	<g transform="translate(0 169)">
		<path class="st10" d="M171.3-31.7h-6.6"/>
		<text transform="matrix(1 0 0 1 126.9023 -25.3252)" class="st11 st12 st13">400</text>
	</g>
	<g transform="translate(0 84.5)">
		<path class="st10" d="M171.3-41h-6.6"/>
		<text transform="matrix(1 0 0 1 126.9023 -34.752)" class="st11 st12 st13">600</text>
	</g>
	<path class="st10" d="M171.3-50.4h-6.6"/>
	<text transform="matrix(1 0 0 1 126.9023 -44.1777)" class="st11 st12 st13">800</text>
	<path class="st11" d="M170.1-50.4h2.3v375.7h-2.3"/>
</g>
</svg>
