<svg height="440" viewBox="0 0 650 440" width="650" xmlns="http://www.w3.org/2000/svg"><g fill="#bfbfbf" font-family="Roboto Mono" font-size="18"><text transform="translate(554.4 433)">Hera</text><text transform="translate(315.5 433)">Zeus</text><text transform="translate(65.9 433)">Appolo</text><text transform="translate(554.4 186)">Hera</text><text transform="translate(315.5 186)">Zeus</text><text transform="translate(65.9 186)">Appolo</text></g><path d="m98.3 328.2v69.2c-39 0-70.5-31-70.5-69.2z" fill="#e2e2e2"/><path d="m11 328.2a87.3 87.3 0 0 1 87.3-87.3v87.3z" fill="#ededed"/><path d="m98.3 328.2v-57.8c31.6 0 57.2 25.9 57.2 57.8z" fill="#898989"/><path d="m188.7 328.2c0 45.7-40.5 82.7-90.5 82.7v-82.7z" fill="#aaa9a9"/><path d="m337.3 328.2v69.2c-39 0-70.5-31-70.5-69.2z" fill="#e2e2e2"/><path d="m277 328.2a60.3 60.3 0 0 1 60.3-60.3v60.3z" fill="#ededed"/><path d="m337.3 328.2v-67.3c36.8 0 66.6 30.1 66.6 67.3z" fill="#898989"/><path d="m416.8 328.2c0 40.1-35.6 72.7-79.5 72.7v-72.7z" fill="#aaa9a9"/><path d="m575.8 328.2v69.2c-39 0-70.5-31-70.5-69.2z" fill="#e2e2e2"/><path d="m537.5 328.2a38.3 38.3 0 0 1 38.3-38.3v38.3z" fill="#ededed"/><path d="m575.8 328.2v-71.4c39.1 0 70.7 32 70.7 71.5h-70.7z" fill="#898989"/><path d="m627 328.2c0 25.9-22.9 46.8-51.2 46.8v-46.8z" fill="#aaa9a9"/><path d="m23.9 7.7h74.3v74.34h-74.3z" fill="#ededed"/><path d="m40.8 81.7h57.5v57.48h-57.5z" fill="#e2e2e2"/><path d="m98.3 23.1h58.9v58.92h-58.9z" fill="#898989"/><path d="m98.3 81.7h47.8v47.82h-47.8z" fill="#aaa9a9"/><path d="m281.6 26h56v56.01h-56z" fill="#ededed"/><path d="m258.4 81.7h79.2v79.23h-79.2z" fill="#e2e2e2"/><path d="m337.6 10.9h71.1v71.14h-71.1z" fill="#898989"/><path d="m337.6 81.7h62.7v62.69h-62.7z" fill="#aaa9a9"/><path d="m537.5 42.6h39.4v39.39h-39.4z" fill="#ededed"/><path d="m519.4 81.7h57.5v57.48h-57.5z" fill="#e2e2e2"/><path d="m576.9 21h61v60.95h-61z" fill="#898989"/><path d="m576.9 81.7h31.3v31.34h-31.3z" fill="#aaa9a9"/></svg>