<svg xmlns="http://www.w3.org/2000/svg" width="256" height="256" viewBox="0 0 256 256"><title>icon_sketch</title><path d="M129.4,12.8a4.6,4.6,0,0,1-.5,3.8,4.4,4.4,0,0,1-2.9,2.3,4.8,4.8,0,0,1-3.9-.5,4.8,4.8,0,0,1-2.3-2.9v-.2l.5,1.2c-.1,0-.1-.1-.1-.2l.7,1h-.1l8.5-3.6v.5a5.7,5.7,0,0,1-1.4,3.6,5.2,5.2,0,0,1-3.6,1.4,5,5,0,0,1-3.5-1.4,5.5,5.5,0,0,1-1.5-3.6v-.5a4.1,4.1,0,0,1,1.1-3,4.3,4.3,0,0,1,2-1.5,4.4,4.4,0,0,1,3.2-.3,4.5,4.5,0,0,1,2.2,1.3,5,5,0,0,1,1.6,2.7ZM124,38c6.4,0,6.5-10,0-10s-6.4,10,0,10Zm19.8-8.7v-.2l.2,1.3h0v1L139,35h.1l-1.3-.2h.1l-2.2-1.3h0l-1.3-2.2h0V30.2h0a5.2,5.2,0,0,0,1.4,3.5,5.3,5.3,0,0,0,3.6,1.5,5.1,5.1,0,0,0,5-5,5.8,5.8,0,0,0-1.5-3.8A5.4,5.4,0,0,0,139,25l-1.3.2a2.8,2.8,0,0,0-1.7.9,2,2,0,0,0-.9.9,4.6,4.6,0,0,0-.9,1.7,6.9,6.9,0,0,0-.1,3.2,5,5,0,0,0,6.2,3.5,5,5,0,0,0,3-2.3l.5-1.2a5.7,5.7,0,0,0,0-2.6Zm-33.9-1.6v-.2l.7,1.1a.5.5,0,0,0-.2-.4l-.8-1a3.6,3.6,0,0,0-1.6-1.1,4.9,4.9,0,0,0-5.4,1.1,4.7,4.7,0,0,0-1.5,3.5v.2a3.2,3.2,0,0,0,.5,1.9,3.4,3.4,0,0,0,1,1.6,5,5,0,0,0,7.1,0,4.6,4.6,0,0,0,1.4-3.5v-.2l-9.3,2.5a5.8,5.8,0,0,0,1.1,1.5,4.9,4.9,0,0,0,3.5,1.5,4.9,4.9,0,0,0,3.6-1.5,5,5,0,0,0,1.4-3.5V29.9a5.4,5.4,0,0,0-1.3-2.2Zm28,13.7h-.1l.8,1c-.1-.2-.2-.3-.2-.4l-.8-1a4.2,4.2,0,0,0-1.6-1.1,4.7,4.7,0,0,0-3.3-.2,7.1,7.1,0,0,0-2.2,1.3,5.1,5.1,0,0,0-1.5,3.5v.2a3.1,3.1,0,0,0,.4,1.9,3.7,3.7,0,0,0,1,1.6,4.9,4.9,0,0,0,3.6,1.5,4.7,4.7,0,0,0,3.5-1.5,5.1,5.1,0,0,0,1.5-3.5v-.2l-9.3,2.5a9.1,9.1,0,0,0,1.1,1.6,5.2,5.2,0,0,0,3.6,1.4,5,5,0,0,0,3.5-1.4,5.5,5.5,0,0,0,1.5-3.6l-.2-1.3a4.5,4.5,0,0,0-1.3-2.2ZM125.5,54.9V56h0v1l-6.1,3.5h.1l-1.2-.5h.1l-1-.8.2.2-.8-1c.1,0,.1.1.1.2l-.5-1.2h0a5,5,0,0,0,6.2,3.5,5,5,0,0,0,3-2.3,5.1,5.1,0,0,0,.5-3.8,5.7,5.7,0,0,0-4.1-4.1,5.1,5.1,0,0,0-3.8.5l-1,.8a4.5,4.5,0,0,0-1.3,2.2,6.9,6.9,0,0,0-.1,3.2A5,5,0,0,0,122,61a5,5,0,0,0,3-2.3l.5-1.2a5.7,5.7,0,0,0,0-2.6ZM140,62.3a8.3,8.3,0,0,0-.3-2.2,5.1,5.1,0,0,0-3.5-3.5,5.7,5.7,0,0,0-2.6,0,5.4,5.4,0,0,0-2.2,1.3,5.3,5.3,0,0,0-1.7,4.1,5.5,5.5,0,0,0,1.4,3.5,5.3,5.3,0,0,0,3.6,1.5,5.1,5.1,0,0,0,5-5h0l-.2,1.3h0l-.5,1.2a.3.3,0,0,0,.1-.2l-.7,1h.1l-8.4-2.2c0,.1.1.2.1.3l-.2-1.3v.5a4.9,4.9,0,0,0,1.5,3.5,4.9,4.9,0,0,0,3.5,1.5,5.1,5.1,0,0,0,5-5Zm-10.3,9.6h0l.2,1.4V73l-.2,1.3h0l-.5,1.2a.1.1,0,0,0,.1-.1l-.8,1h.1l-1,.7h.1l-1.2.5h.2l-1.4.2h.2l-1.4-.2h.2l-1.2-.5h.1l-1-.7h0l-.7-1h0l-.5-1.1h0l-.2-1.3h0a4.1,4.1,0,0,0,.5,1.9,3.9,3.9,0,0,0,1,1.6,5,5,0,0,0,7.1,0,4.7,4.7,0,0,0,1.4-3.5,6.1,6.1,0,0,0-.1-1.4,5.2,5.2,0,0,0-.6-1.3,4.4,4.4,0,0,0-1.9-1.9,5.2,5.2,0,0,0-4.2-.6,5.4,5.4,0,0,0-3.9,6.8,5,5,0,0,0,2.3,3,5.3,5.3,0,0,0,3.9.5,5.1,5.1,0,0,0,3.4-6.2Zm-4.3,12v-.5l-3.7,4.8h.2l-1.4.2h.2l-1.4-.2h.1l-1.1-.5h.2l-1-.7h.1l-.8-1c0,.1.1.2.1.3l-.5-1.2h0a6.2,6.2,0,0,0,2.3,3,5.9,5.9,0,0,0,3.9.5,5,5,0,0,0,3.5-6.2,6.3,6.3,0,0,0-2.6-3.4,5,5,0,0,0-4.4-.6l-1.2.5a2.9,2.9,0,0,0-1.4,1.3,5.2,5.2,0,0,0-1.1,3v.5a4.8,4.8,0,0,0,1.4,3.6,5.2,5.2,0,0,0,3.6,1.4,4.7,4.7,0,0,0,3.5-1.4l.8-1a5.9,5.9,0,0,0,.7-2.6Zm17.5-2.3a6,6,0,0,0,.1-2.3,6.5,6.5,0,0,0-.7-2.1,5.3,5.3,0,0,0-3-2.3,5.5,5.5,0,0,0-3.8.5,7,7,0,0,0-1.6,1.3,3.7,3.7,0,0,0-1,1.7,3,3,0,0,0-.5,1.9,5.1,5.1,0,0,0,5,5,5.1,5.1,0,0,0,3.6-1.5c.1-.1.2-.3.4-.4l-1,.8h.1l-6.8-1.8h0l-.5-1.2h.1l-.2-1.3h0V79a5.1,5.1,0,0,0,.5,3.8,5.1,5.1,0,0,0,6.9,1.8,5.8,5.8,0,0,0,2.3-3ZM111,50.7v-.8H101v.2l.2-1.3a.4.4,0,0,1-.1.3l.5-1.2a.3.3,0,0,1-.1.2l.8-1h-.1a4.8,4.8,0,0,0,0,7,4.7,4.7,0,0,0,3.5,1.5,5.5,5.5,0,0,0,3.6-1.5,5.8,5.8,0,0,0,.3-7.9,5.2,5.2,0,0,0-3.6-1.4,5.1,5.1,0,0,0-5,5v.8a5.1,5.1,0,0,0,1.5,3.5,4.9,4.9,0,0,0,3.5,1.5,5.3,5.3,0,0,0,3.6-1.5,4.8,4.8,0,0,0,1.4-3.5Zm69.3,71.6a5.6,5.6,0,0,0,5.4-1.4,8.3,8.3,0,0,0,1.2-1.6l-.8,1h.1l-1,.7h.1l-1.2.5h.1a5.7,5.7,0,0,0,3-2.3,5.3,5.3,0,0,0,.5-3.9,5.7,5.7,0,0,0-2.3-3,5.3,5.3,0,0,0-3.9-.5,5.5,5.5,0,0,0-2.3,1.4,3.1,3.1,0,0,0-.9,1.1c-.2.2-.2.4-.4.6l.8-1h-.1l1-.8h-.1l1.2-.5h-.1l1.3-.2h-.2l1.4.2H183a4.8,4.8,0,0,0-3.9.5,5.5,5.5,0,0,0-2.3,2.9,5.3,5.3,0,0,0,.5,3.9,5,5,0,0,0,3,2.3Zm20.6-10.1a6.4,6.4,0,0,0-2-2,5.7,5.7,0,0,0-2.8-.8,6.5,6.5,0,0,0-2.7.8,6.7,6.7,0,0,0-2.1,2,5.3,5.3,0,0,0-.5,3.9,5.6,5.6,0,0,0,2.3,2.9,4.9,4.9,0,0,0,3.9.6l1.2-.6a5.8,5.8,0,0,0,1.8-1.7v-.2l-.8,1.1h.1l-1,.7h.1l-1.2.5H195l-1.2-.5h.1l-1-.7h.1l-.8-1.1v.2a5.3,5.3,0,0,0,1.2,1.4,5.6,5.6,0,0,0,1.7.9,5.4,5.4,0,0,0,3.9-.6,4.8,4.8,0,0,0,2.3-2.9,4.8,4.8,0,0,0-.5-3.9Zm28.8,1.7v-.2l.2-1.3a4.1,4.1,0,0,0-.5-1.9,4.8,4.8,0,0,0-2-2.4,5.3,5.3,0,0,0-6.1.8h-.1l1-.8h-.1l1.2-.6h-.1a5,5,0,0,0-3,2.3,5,5,0,0,0-.5,3.8,5.1,5.1,0,0,0,6.2,3.5,6.2,6.2,0,0,0,2.5-1.4l-8.4-4.9v.2a4.4,4.4,0,0,0-.1,2,3.2,3.2,0,0,0,.6,1.8,5,5,0,0,0,3,2.3,5.3,5.3,0,0,0,3.9-.5,4.3,4.3,0,0,0,2.2-3Zm-26,12.5a1.8,1.8,0,0,1,.7-.5l-6.1-.8.2.2a3.9,3.9,0,0,0,1.6,1,3.4,3.4,0,0,0,2,.4,5,5,0,0,0,3.5-1.4,5.3,5.3,0,0,0,1.5-3.6,5.1,5.1,0,0,0-1.5-3.5l-.2-.2-1-.8a6,6,0,0,0-1.9-.6,5.9,5.9,0,0,0-3.2.6l-.7.5a4.4,4.4,0,0,0-1.4,1.3,5.6,5.6,0,0,0-.9,1.7,5,5,0,0,0,7.4,5.7Zm14.9-12.9V113a5,5,0,0,0-1.4-3.5,4.9,4.9,0,0,0-3.6-1.5,5.3,5.3,0,0,0-3.5,1.5,4.9,4.9,0,0,0-1.5,3.5v.5a5.1,5.1,0,0,0,1.5,3.5,4.9,4.9,0,0,0,3.5,1.5,4.9,4.9,0,0,0,3.6-1.5,4.8,4.8,0,0,0,1.4-3.5V113a5,5,0,0,0-1.4-3.5,4.9,4.9,0,0,0-3.6-1.5,5.3,5.3,0,0,0-3.5,1.5,4.9,4.9,0,0,0-1.5,3.5v.5a5.1,5.1,0,0,0,1.5,3.5,4.9,4.9,0,0,0,3.5,1.5,4.9,4.9,0,0,0,3.6-1.5,4.8,4.8,0,0,0,1.4-3.5ZM185.4,133l1.1-.3-1.4.2h1.4a4.6,4.6,0,0,0,3.5-1.4,4.9,4.9,0,0,0,1.5-3.6,5.1,5.1,0,0,0-5-5h-1.4a5.7,5.7,0,0,0-1.8.3h-.6a4.8,4.8,0,0,0-2.9,2.3,4.9,4.9,0,0,0-.5,3.9,4.8,4.8,0,0,0,2.2,3l1.2.5a6.2,6.2,0,0,0,2.7,0Zm52.8-9.1v-.3a5.3,5.3,0,0,0-1.5-3.6,5.2,5.2,0,0,0-3.5-1.4,4.8,4.8,0,0,0-5,5v.3a5,5,0,0,0,1.4,3.5,5.3,5.3,0,0,0,3.6,1.5,5.1,5.1,0,0,0,3.5-1.5,5.3,5.3,0,0,0,1.5-3.5Zm12-6.3a5.7,5.7,0,0,0-.6-4.4,4.8,4.8,0,0,0-3.6-2.4,4.4,4.4,0,0,0-2,.1,5.4,5.4,0,0,0-2.2,1.3l-.3.2A5.1,5.1,0,0,0,245,121l1.4-.2a6.1,6.1,0,0,0,2.2-1.3l.2-.2-7.8-1h0l-.5-1.2h.1l-.2-1.3h0l.2-1.3h-.1a5.8,5.8,0,0,0,.5,3.9,5,5,0,0,0,9.2-1.2ZM224,127.3h0l-.5,1.2v-.3l-.7,1.1H216l-.8-1.1.2.3-.5-1.2h0a5,5,0,0,0,2.3,3,4.9,4.9,0,0,0,3.9.5,5,5,0,0,0,3-2.3,5.5,5.5,0,0,0,.5-3.8A6.7,6.7,0,0,0,223,122a5.5,5.5,0,0,0-3.6-1.5,5.8,5.8,0,0,0-3.5,1.5,5.7,5.7,0,0,0-1.6,2.7,5.6,5.6,0,0,0,.5,3.8,4.6,4.6,0,0,0,3,2.3,4.9,4.9,0,0,0,3.9-.5,5.3,5.3,0,0,0,2.3-3Zm-24.3-.3h-.1l1.2.5h-.1l1,.8h-.1a5.3,5.3,0,0,0-2.9-1.4,4.8,4.8,0,0,0-3.1.6,5.2,5.2,0,0,0-1.8,1.8,3.3,3.3,0,0,0-.6,1.9,2.8,2.8,0,0,0,.1,2h0a4.4,4.4,0,0,0,2.3,3,5,5,0,0,0,3.8.5,5,5,0,0,0,3-2.3l.5-1.2a3.9,3.9,0,0,0,0-2.6v-.2l-8.4,4.9a6,6,0,0,0,2.6,1.4,5,5,0,0,0,3.8-.5,5,5,0,0,0,1.8-6.8,5,5,0,0,0-3-2.3Zm-21.9-3.7v-.9a5.3,5.3,0,0,0-1.5-3.5,4.8,4.8,0,0,0-7,0,5.3,5.3,0,0,0-1.5,3.5v.3a5.3,5.3,0,0,0,1.5,3.5,4.9,4.9,0,0,0,3.5,1.5,5.1,5.1,0,0,0,3.5-1.5,5.3,5.3,0,0,0,1.5-3.5v-.3a5.3,5.3,0,0,0-1.5-3.5,4.8,4.8,0,0,0-7,0,5.3,5.3,0,0,0-1.5,3.5v.9a5.1,5.1,0,0,0,1.5,3.5,4.9,4.9,0,0,0,3.5,1.5,5.1,5.1,0,0,0,3.5-1.5,5.3,5.3,0,0,0,1.5-3.5Zm-43.7,30.3h.3a5.1,5.1,0,0,0,3.5-1.5,5,5,0,0,0,0-7.1,5.2,5.2,0,0,0-3.5-1.4h-.3a4.8,4.8,0,0,0-5,5,5,5,0,0,0,1.4,3.5,5.3,5.3,0,0,0,3.6,1.5Zm-8.5-2.9-.3-.2a4.5,4.5,0,0,0-5,0,5,5,0,0,0-2.5,4.3,5.7,5.7,0,0,0,.8,2.8,5.5,5.5,0,0,0,2,2,5.1,5.1,0,0,0,3.8.5,5,5,0,0,0,3-2.3,5.1,5.1,0,0,0,.5-3.8l-.5-1.2a3.9,3.9,0,0,0-1.8-1.8h-.1l1,.8h-.1l.8,1h0l.5,1.2h-.1l.2,1.3h0l-7.5,4.3.3.2a5.1,5.1,0,0,0,3.8.5,5,5,0,0,0,3-2.3,5.3,5.3,0,0,0,.5-3.9l-.5-1.1a3.9,3.9,0,0,0-1.8-1.8ZM136,169.4l.7-.6-6-.7h0l-.7-1h0l-.5-1.2h.1l-.2-1.3h0a4.8,4.8,0,0,0,5,5,4.6,4.6,0,0,0,3.5-1.4,5.3,5.3,0,0,0,1.5-3.6,5.9,5.9,0,0,0-.5-2.2,6.3,6.3,0,0,0-1.2-1.8l-1-.8a3.2,3.2,0,0,0-1.8-.6,4.9,4.9,0,0,0-3.2.6l-.8.5a6.2,6.2,0,0,0-2.3,3,5.9,5.9,0,0,0,.5,3.9,5.7,5.7,0,0,0,3,2.3,5.8,5.8,0,0,0,3.9-.5Zm-4.7,9.8v-.3l-6.1,3.5h.1l-1.2-.5h.1l-1-.8h.1l-.8-1v.2l-.5-1.2a.7.7,0,0,1,.1.5,5.7,5.7,0,0,0,2.3,3,5.1,5.1,0,0,0,6.9-1.8l.5-1.2a6.1,6.1,0,0,0,0-2.7,5.6,5.6,0,0,0-.7-1.8,6.3,6.3,0,0,0-3.4-2.6,5.6,5.6,0,0,0-3.8.5,5.2,5.2,0,0,0-2.3,3v.3a5.9,5.9,0,0,0,.5,3.9,5.1,5.1,0,0,0,6.9,1.8,5.2,5.2,0,0,0,2.3-3Zm-2,12.1v-.2l-9.3,2.5a7.2,7.2,0,0,0,1.1,1.5,5.3,5.3,0,0,0,3.5,1.5,5.5,5.5,0,0,0,3.6-1.5,5.2,5.2,0,0,0,1.4-3.5l-.2-1.4a4.8,4.8,0,0,0-1.2-2.2h-.1l.7,1-.2-.4-.8-1a3.4,3.4,0,0,0-1.6-1,5.1,5.1,0,0,0-3.2-.3,5.4,5.4,0,0,0-2.2,1.3,4.9,4.9,0,0,0-1.5,3.6v.2a4.3,4.3,0,0,0,.4,1.9,4.2,4.2,0,0,0,1.1,1.6,5.1,5.1,0,0,0,3.5,1.5,5.3,5.3,0,0,0,3.6-1.5,4.7,4.7,0,0,0,1.4-3.5Zm-4.7,13.8a.8.8,0,0,1,.2.5l-.5-1.2c.1,0,.1.1.1.2l-.2-1.3v.3l.2-1.3h0a3.5,3.5,0,0,0-.1,2,3.3,3.3,0,0,0,.6,1.9,5.3,5.3,0,0,0,3,2.3,5.1,5.1,0,0,0,3.8-.5,4.9,4.9,0,0,0,2.3-3,7.4,7.4,0,0,0,0-3.3,7.1,7.1,0,0,0-.8-1.8,5.3,5.3,0,0,0-3-2.3,5,5,0,0,0-3.8.5,5,5,0,0,0-2.3,3,5.3,5.3,0,0,0,.5,3.9Zm12.8-28h-.2a4.7,4.7,0,0,0-3.5,1.5,5,5,0,0,0-.8,6l.8,1a5,5,0,0,0,2.2,1.3h.1l-1.2-.5h.1l-1-.8.2.2-.8-1h.1l-.5-1.2h0l-.2-1.3h0a5.8,5.8,0,0,0,1.5,3.6,5.2,5.2,0,0,0,3.5,1.4,5.2,5.2,0,0,0,3.6-1.4,5.4,5.4,0,0,0,1.4-3.6,6.1,6.1,0,0,0-1.5-3.9,6.8,6.8,0,0,0-2.6-1.5l-1.4,9.8h.2a4.9,4.9,0,0,0,3.6-1.5,4.8,4.8,0,0,0,1.4-3.5,5,5,0,0,0-1.4-3.5l-1-.8a4.8,4.8,0,0,0-2.6-.7Zm-17.6-1,.3-.2H115l1.6.7a5.5,5.5,0,0,0,3.8-.5,4.6,4.6,0,0,0,2.3-3,4.9,4.9,0,0,0-.5-3.9l-.7-1a6.5,6.5,0,0,0-2.3-1.3h-.1l1.2.5c-.1-.1-.2-.1-.2-.2a5.8,5.8,0,0,0-2.6-.6,5.4,5.4,0,0,0-2.5.6l-.2.2a3.5,3.5,0,0,0-1.4,1.3,3.2,3.2,0,0,0-.9,1.7,5,5,0,0,0,3.5,6.2c1.2.2,2.8.3,3.8-.5Zm25.1,26a5.3,5.3,0,0,0,1.1-1.5l-9.3-2.5v.2a5.1,5.1,0,0,0,1.5,3.5,4.9,4.9,0,0,0,3.5,1.5,5.1,5.1,0,0,0,3.5-1.5l.8-1a4.5,4.5,0,0,0,.7-2.5v-.2l-.2-1.4a3.2,3.2,0,0,0-.9-1.7,4.9,4.9,0,0,0-2.6-1.8,5.7,5.7,0,0,0-2.6,0,5.3,5.3,0,0,0-3,2.3c-.1.2-.1.3-.2.4l.8-1h-.1a5.5,5.5,0,0,0-1.5,3.6,4.7,4.7,0,0,0,1.5,3.5,4.8,4.8,0,0,0,7,0Zm-8.3,13.5v-.2l-9.3,2.6,1.1,1.5a5,5,0,0,0,7.1,0,5.2,5.2,0,0,0,1.4-3.5v-1.4a6.1,6.1,0,0,0-1.3-2.2h-.1l.8,1-.3-.4-.8-1a2.9,2.9,0,0,0-1.6-1,5.1,5.1,0,0,0-3.2-.3,6.1,6.1,0,0,0-2.2,1.3,5.3,5.3,0,0,0-1.5,3.5v.2a4.6,4.6,0,0,0,.5,2,3.9,3.9,0,0,0,1,1.6,5.2,5.2,0,0,0,3.5,1.4,4.8,4.8,0,0,0,5-5Zm-15.1,5.3h-.2a4.8,4.8,0,0,0-2.2,1.2,4.7,4.7,0,0,0-1.4,2.9,5.7,5.7,0,0,0,.3,2.6,4.5,4.5,0,0,0,2.1,2.4h.2l-1-.7h.2l-.8-1h0l-.5-1.2h.1a2.6,2.6,0,0,0,.9,1.7,2.9,2.9,0,0,0,1.4,1.3,4.6,4.6,0,0,0,3.8.5,5,5,0,0,0,3-2.3,4.6,4.6,0,0,0,.5-3.8,7.7,7.7,0,0,0-1.4-2.5,4.5,4.5,0,0,0-1.4-1l-1.2,9.1h.2a5,5,0,0,0,3-2.3,5,5,0,0,0,.5-3.8,5,5,0,0,0-2.3-3,4.6,4.6,0,0,0-3.8-.5Zm13.7,8.8v.3a5,5,0,0,0,1.4,3.5,5.3,5.3,0,0,0,3.6,1.5,5.1,5.1,0,0,0,3.5-1.5,5.3,5.3,0,0,0,1.5-3.5v-.3a5.3,5.3,0,0,0-1.5-3.6,5.2,5.2,0,0,0-3.5-1.4,4.8,4.8,0,0,0-5,5ZM117,192.4h1.1l2.2,1.3h0l1.2,2.2h0l.2,1.3h0l-3.7,4.8h.2l-1.4.2h.1l-1.3-.2h.1l-1.2-.5h.1l-1-.8h.1l-.8-1h.1a5.3,5.3,0,0,0,3,2.3,5,5,0,0,0,3.8-.5,5,5,0,0,0,2.3-3,4.8,4.8,0,0,0-.5-3.9l-.9-1.2a6.2,6.2,0,0,0-1.7-1.1,4.4,4.4,0,0,0-2.1-.4l-1.5.2-1.2.5a6.3,6.3,0,0,0-2.1,2.4,4.1,4.1,0,0,0-.4,1.9,7.7,7.7,0,0,0,.2,1.5,4.5,4.5,0,0,0,1.3,2.2,5.7,5.7,0,0,0,3.8,1.6,5.6,5.6,0,0,0,3.5-1.5,4.9,4.9,0,0,0,1.5-3.5,5.3,5.3,0,0,0-1.5-3.6,4.6,4.6,0,0,0-3.5-1.4Zm20.3,43.8a5.9,5.9,0,0,0-4.1-1.8,5.3,5.3,0,0,0-3.6,1.5,5.2,5.2,0,0,0-1.4,3.5,4.8,4.8,0,0,0,1.4,3.6,5.7,5.7,0,0,0,3.6,1.4h-1.1l-1.2-.5h.1l-1-.8a.2.2,0,0,1,.2.2,5.4,5.4,0,0,0,3.6,1.4,5,5,0,0,0,3.5-1.4,5.3,5.3,0,0,0,1.5-3.6,5.8,5.8,0,0,0-1.5-3.5ZM181.1,91v-.4a5.2,5.2,0,0,0-1.4-3.5,5.1,5.1,0,0,0-8.6,3.5V91a5,5,0,0,0,8.6,3.5,5.2,5.2,0,0,0,1.4-3.5ZM173,83.5a5.5,5.5,0,0,0-4.5-1.8,4.1,4.1,0,0,0-1.9.4,4.4,4.4,0,0,0-1.6,1,5.3,5.3,0,0,0-1.5,3.6,5.1,5.1,0,0,0,1.5,3.5c.9.8,2.2,1.7,3.5,1.5h.3l-1.3-.2h.3l-1.2-.5.2.2-1-.8h.1a5,5,0,0,0,7.1,0,5,5,0,0,0,1.4-3.5,4.8,4.8,0,0,0-1.4-3.5ZM163.2,77l-.3-.3.8,1a.5.5,0,0,1-.2-.4l.5,1.2h-.1l-4.8,6.3h.2l-1.3-.2h.1l-1.2-.5h.1l-1-.8h.1l-.8-1h.1a5.3,5.3,0,0,0,3,2.3,5.1,5.1,0,0,0,3.8-.5,5,5,0,0,0,2.3-3,4.6,4.6,0,0,0-.5-3.8,5.8,5.8,0,0,0-2-2.1,5.9,5.9,0,0,0-2.9-.7,4.5,4.5,0,0,0-2.5.7,2.9,2.9,0,0,0-1.4,1.3,4.5,4.5,0,0,0-.9,4.3,8.7,8.7,0,0,0,.7,1.7,13.4,13.4,0,0,1,1.1,1.4,5.1,5.1,0,0,0,8.6-3.5l-.2-1.3a5.3,5.3,0,0,0-1.3-2.3Zm16.9-.6v-.2l-3.5,3.5h.2l-1.3.2h.6a5.3,5.3,0,0,0,3.6-1.5,5,5,0,0,0-3.6-8.5L174,70a5,5,0,0,0-3.5,3.5v.3a5.1,5.1,0,0,0,.5,3.8,5,5,0,0,0,3,2.3,5,5,0,0,0,6.2-3.5Zm5.2-10.5c0-.1-.1-.2-.1-.3l.5,1.2a.4.4,0,0,1-.1-.3v1l-5,5h.9a5.3,5.3,0,0,0,3.6-1.5,5.2,5.2,0,0,0,1.4-3.5,5,5,0,0,0-5-5h-.9a4.3,4.3,0,0,0-1.9.4,4.2,4.2,0,0,0-1.6,1.1,5.6,5.6,0,0,0-1.5,3.5,5.9,5.9,0,0,0,1,3.4,3.5,3.5,0,0,0,1.3,1.4,2.8,2.8,0,0,0,1.7.9,5,5,0,0,0,3.8-.5,5,5,0,0,0,1.8-6.8Zm13.2-9.3h0l-.7,1h0l-1,.8h.1l-1.1.5h.1l-1.4.2h.2l-4.3-2.5.3.6a4.4,4.4,0,0,0,1.3,1.4,5.6,5.6,0,0,0,1.7.9,5,5,0,0,0,5.7-7.4,1,1,0,0,1-.4-.5,5,5,0,0,0-4.4-2.5,5.5,5.5,0,0,0-2.8.7,7.6,7.6,0,0,0-2,2,5.3,5.3,0,0,0-.5,3.9,5.2,5.2,0,0,0,2.3,3,5.3,5.3,0,0,0,3.9.5,5.7,5.7,0,0,0,3-2.3Zm-5.2,11.8h0v1.1l-.5,1.2v-.2l-.8,1h.2l-1,.8.3-.2-1.2.5h.4l-1.3.2h.2a5,5,0,0,0,3.5-8.6,5.2,5.2,0,0,0-3.5-1.4,6.4,6.4,0,0,0-3.5,1,6,6,0,0,0-2.8,4.9,5.6,5.6,0,0,0,1.5,3.5,5,5,0,0,0,7.1,0,4.6,4.6,0,0,0,1.4-3.5Zm12.2-7.3.6-.3a4.7,4.7,0,0,0,2.3-3,5,5,0,0,0-.5-3.8,5,5,0,0,0-3-2.3,5.6,5.6,0,0,0-3.8.5l-.6.3a4.7,4.7,0,0,0-2.3,3,4.6,4.6,0,0,0,.5,3.8,4.8,4.8,0,0,0,2.9,2.3,5.9,5.9,0,0,0,3.9-.5Zm11-23.2a5.2,5.2,0,0,0-1.8-4.1,4.9,4.9,0,0,0-3.5-1.5,5.1,5.1,0,0,0-5,5,5.1,5.1,0,0,0,1.5,3.5.2.2,0,0,0,.2.2l-.8-1h0l-.5-1.1h.1l-.2-1.3h0a5.1,5.1,0,0,0,1.5,3.5,4.7,4.7,0,0,0,3.5,1.5,5.1,5.1,0,0,0,3.5-1.5,4.7,4.7,0,0,0,1.5-3.5Zm14-15.2v1l-.5,1.2h0l-.8,1.1c.1-.1.1-.2.2-.2l-1,.8h.1l-1.2.5h-.9l-1.3-.2h.1a5.8,5.8,0,0,0,3.9-.5,5.3,5.3,0,0,0,2.3-3,5.3,5.3,0,0,0-.5-3.9,5.7,5.7,0,0,0-3-2.3,6.6,6.6,0,0,0-4.6.6,6,6,0,0,0-2.7,4.9,5.6,5.6,0,0,0,1.5,3.5,5,5,0,0,0,7.1,0,4.7,4.7,0,0,0,1.4-3.5ZM246.8,8.5a5.6,5.6,0,0,0-4.2-1.8,5,5,0,0,0-3.5,1.4,5.3,5.3,0,0,0-1.5,3.6,5.1,5.1,0,0,0,5,5h.2l-1.4-.2h.2l-1.2-.6h.1l-1-.8.2.2a5.1,5.1,0,0,0,3.5,1.5,5.5,5.5,0,0,0,3.6-1.5,5.1,5.1,0,0,0,0-7ZM77.5,110.3a5.6,5.6,0,0,0,1.4-2c.2-.4.3-.9.5-1.3l-.5,1.2h0a5.1,5.1,0,0,0,.5-3.8,4.7,4.7,0,0,0-2.3-3,5,5,0,0,0-6.8,1.8c-.3.6-.5,1.3-.8,1.9l.5-1.2c-.1.2-.1.3-.2.4l.8-1h-.1a4.8,4.8,0,0,0,0,7,4.7,4.7,0,0,0,3.5,1.5,5.1,5.1,0,0,0,3.5-1.5ZM88.4,105l.6-.3-1.2.5h.1l-1.3.2h.1l-1.3-.2h.1a3.4,3.4,0,0,0,2,.1,3,3,0,0,0,1.8-.6,5,5,0,0,0,1.8-6.8,4.4,4.4,0,0,0-3-2.3l-1.5-.2a7.1,7.1,0,0,0-2.1.4l-1.1.6a5,5,0,0,0-2.3,3,5,5,0,0,0,7.3,5.6Zm13.9-9.7v-.2l-7.4,3,.2.2-1-.8.2.2-.8-1c.1,0,.1.1.1.2l-.5-1.2h.1l-.2-1.3h0a4.1,4.1,0,0,0,.4,1.9,3.1,3.1,0,0,0,1.1,1.6,4.8,4.8,0,0,0,7,0,4.4,4.4,0,0,0,1.5-3.5c-.1-.5-.1-1.1-.2-1.6l-.6-1.4a6.3,6.3,0,0,0-2.2-2.1,5.1,5.1,0,0,0-7.4,3v.2a4.6,4.6,0,0,0,.5,3.8,5,5,0,0,0,3,2.3,5.1,5.1,0,0,0,3.8-.5,5.3,5.3,0,0,0,2.3-3Zm-3.7-6.1a6.3,6.3,0,0,0-5.2-1.7l-1.4.3-.7.2a4.6,4.6,0,0,0-3,2.3,5,5,0,0,0-.5,3.8,5,5,0,0,0,2.3,3l1.2.5a5.7,5.7,0,0,0,2.6,0l1.5-.4-1.3.2h.3l-1.3-.2h.2l-1.2-.5h.2l-1-.8.2.2a5,5,0,0,0,7.1,0,4.6,4.6,0,0,0,1.4-3.5,5.4,5.4,0,0,0-1.4-3.6ZM71.7,86.6a9.5,9.5,0,0,1-1.7-1l1,.8-.3-.3.7,1h-.1l.5,1.1h0a5,5,0,0,0-2.3-3,5,5,0,0,0-3.8-.5,5.1,5.1,0,0,0-3.5,6.2c.5,2.2,2.5,3.4,4.4,4.5a5.9,5.9,0,0,0,3.9.5,5.2,5.2,0,0,0,3-2.3,5.3,5.3,0,0,0,.5-3.9,5.7,5.7,0,0,0-2.3-3ZM59.5,75h-.1l1,.8-1.7-1.5a6,6,0,0,0-4.2-1.5,4.1,4.1,0,0,0-1.9.5,3.4,3.4,0,0,0-1.6,1,4.9,4.9,0,0,0-1.5,3.5A5.3,5.3,0,0,0,51,81.4a4.6,4.6,0,0,0,3.5,1.4h-.7l-1.2-.5a.9.9,0,0,1,.5.3l-1-.8,2.3,1.9a5.1,5.1,0,0,0,6.9-1.8,5.3,5.3,0,0,0,.5-3.9l-.5-1.2A7.7,7.7,0,0,0,59.5,75Zm-6.3-8.9a7.4,7.4,0,0,0-1.3-1.2,6.5,6.5,0,0,0-1.6-1.3,8.4,8.4,0,0,0-3.1-.8,5.4,5.4,0,0,0-3.6,1.4,5.2,5.2,0,0,0-1.4,3.6,5,5,0,0,0,1.4,3.5,6.1,6.1,0,0,0,3.6,1.5h.1l-1.4-.2h.3L45,72.2l.7.4-1-.8,1.4,1.3a4.9,4.9,0,0,0,3.5,1.5,5.1,5.1,0,0,0,3.6-1.5,5.1,5.1,0,0,0,0-7Zm-6.7-9.8a3.8,3.8,0,0,1-1.1-1.1,10.6,10.6,0,0,0-2-1.7,5.1,5.1,0,0,0-7.4,3v.2a5,5,0,0,0,3.5,6.1,4.6,4.6,0,0,0,3.8-.5,5,5,0,0,0,2.3-2.9v-.2l-7.4,2.9.2.2-1-.8c.7.6,1.2,1.3,1.9,1.9a3.4,3.4,0,0,0,1.6,1,4.1,4.1,0,0,0,1.9.5,5.5,5.5,0,0,0,3.6-1.5,5.2,5.2,0,0,0,1.4-3.5,4.7,4.7,0,0,0-1.4-3.6ZM34.8,40l-2.6-1.1,1.2.5-.7-.3,1,.7h-.2l.8,1h-.1l.5,1.1a.3.3,0,0,1-.1-.2l.2,1.3h0L34.6,44c.1,0,.1-.1.1-.2L34.2,45a6.7,6.7,0,0,0,.7-1.8A5,5,0,0,0,31.4,37a5.6,5.6,0,0,0-3.8.5,5.2,5.2,0,0,0-2.3,3c0,.2-.1.3-.1.4l.5-1.2a7.1,7.1,0,0,0-.7,1.6,6.1,6.1,0,0,0,0,3,6.7,6.7,0,0,0,2.7,3.5c.9.5,2,.8,3.1,1.3l-1.2-.5h.1a5.1,5.1,0,0,0,6.9-1.8A5,5,0,0,0,34.8,40Zm7.4-11.7v-.2l.2,1.4v-.3l-.2,1.3h0l-.5,1.2h.1l-.8,1h0l-1,.7h.1l-1.2.5H39l-1.4.2h.3l-1.3-.2,1.3.4a4.6,4.6,0,0,0,2,.1,6,6,0,0,0,1.9-.6,5.1,5.1,0,0,0,1.8-6.9,5.2,5.2,0,0,0-3-2.3l-.7-.2a7.6,7.6,0,0,0-2.1-.3,5.3,5.3,0,0,0-4.7,2.5,6.4,6.4,0,0,0-.5,4.5,5,5,0,0,0,2.3,3,5.3,5.3,0,0,0,3.9.5,4.8,4.8,0,0,0,2.9-2.3,4.8,4.8,0,0,0,.5-3.9ZM59.3,49.6h.1l-.5,1.2a.4.4,0,0,1,.1-.3l-.8,1.1h.1l-1,.8c0-.1.1-.1.2-.2l-1.2.5h.1l-1.3.2h.3L51,50.2l.6.9-.5-1.2c0,.2.1.3.1.5L51,49v.2a5,5,0,0,0,8.6,3.5A5,5,0,0,0,61,49.2a8.2,8.2,0,0,0-.9-3.4,6.1,6.1,0,0,0-2.8-2.7,5.7,5.7,0,0,0-7.6,3.8,5,5,0,0,0,3.5,6.2,5,5,0,0,0,6.1-3.5Zm6.1,17.1h0l-.5,1.1H65l-.8,1h.1l-1.1.8h.1l-1.2.5h.1l-1.3.2h0l-1.3-.2h.2l-1.2-.5h.2l-1-.8.2.2a5.1,5.1,0,0,0,7,0,4.9,4.9,0,0,0,1.5-3.6A4.9,4.9,0,0,0,65,61.8a4.5,4.5,0,0,0-1.3-1,5.4,5.4,0,0,0-2.8-.8,5.9,5.9,0,0,0-3.2,1.1A5.1,5.1,0,0,0,55.8,64a5,5,0,0,0,3.5,6.2,5.1,5.1,0,0,0,3.8-.5,4.9,4.9,0,0,0,2.3-3Zm1.2,9.7.4.6a4.8,4.8,0,0,0,2.9,2.3,5.3,5.3,0,0,0,3.9-.5,5,5,0,0,0,2.3-3,5.6,5.6,0,0,0-.5-3.8l-.3-.6a5.2,5.2,0,0,0-3-2.3,4.9,4.9,0,0,0-3.9.5,5.1,5.1,0,0,0-2.3,2.9,5.9,5.9,0,0,0,.5,3.9Zm18.7,60.8a5.4,5.4,0,0,0-3.2-2.5,6.1,6.1,0,0,0-3-.1,5.7,5.7,0,0,0-4,5.4,5.3,5.3,0,0,0,1.5,3.6,5,5,0,0,0,3.5,1.4,4.6,4.6,0,0,0,3.5-1.4,5.3,5.3,0,0,0,1.5-3.6h0l-.2,1.3V141l-.5,1.2h0l-.8,1h.1l-1,.8H83l-1.2.5H79.5l-1.2-.5h0l-1-.8h.1l-.8-1h.1a6.2,6.2,0,0,0,3,2.3,5,5,0,0,0,3.8-.6,4.4,4.4,0,0,0,2.3-2.9,4.8,4.8,0,0,0-.5-3.9Zm-9.9,5.7-1.3-1a5.7,5.7,0,0,0-2.8-.8,5.2,5.2,0,0,0-3.2,1.1,5.3,5.3,0,0,0-2,2.9,5.9,5.9,0,0,0,.5,3.9,5.7,5.7,0,0,0,3,2.3,5.3,5.3,0,0,0,3.9-.5,5.7,5.7,0,0,0,2.3-3h0l-.5,1.1h0l-.7,1h0l-1,.8h.1l-1.2.5h.1l-1.4.2h.1l-1.3-.2h.2l-1.2-.5h.2l-1-.8v.2a5.4,5.4,0,0,0,3.6,1.4,5,5,0,0,0,3.5-1.4,5.3,5.3,0,0,0,1.5-3.6,5.8,5.8,0,0,0-1.5-3.5ZM65.2,156.3c6.4,0,6.4-10,0-10s-6.5,10,0,10Zm-10.9.2a7.2,7.2,0,0,0-3.4-1.1,5.5,5.5,0,0,0-5.2,4,5.8,5.8,0,0,0,.5,3.9,5,5,0,0,0,9.2-1.2h0l-.5,1.2h0l-.8,1h.1l-1,.8h0l-1.2.5H49.9l-1.2-.5.5.3a5.3,5.3,0,0,0,3.9.5,5.2,5.2,0,0,0,3-2.3,5.3,5.3,0,0,0,.5-3.9,5.1,5.1,0,0,0-2.3-2.9Zm-11.7,8.1a5.9,5.9,0,0,0-3.2.8,6.3,6.3,0,0,0-2.3,2.3,5,5,0,0,0,1.8,6.8,4.6,4.6,0,0,0,3.8.5l1.2-.5a3.9,3.9,0,0,0,1.8-1.8l.2-.2-.8,1,.2-.2-1,.8h.1l-1.2.5h.3l-1.4.2h.5a5.1,5.1,0,0,0,3.5-1.5,4.5,4.5,0,0,0,1.5-3.5,5.1,5.1,0,0,0-5-5Zm-15,15h-.1l1.2-.5a9.5,9.5,0,0,0-3.8,2.1,6.2,6.2,0,0,0-1.7,2.8,7.3,7.3,0,0,0,0,3.6,4.6,4.6,0,0,0,2.3,3,5,5,0,0,0,3.8.5,5,5,0,0,0,3-2.3l.5-1.2a6.1,6.1,0,0,0,0-2.7h0l.2,1.3a.4.4,0,0,1,0-.5l-.2,1.3a.6.6,0,0,1,.1-.4l-.5,1.2c0-.1.1-.2.2-.3l-.8,1.1.3-.3L31,189l1-.5-1.2.5,1.8-.7a5.2,5.2,0,0,0,2.3-3,4.9,4.9,0,0,0-.5-3.9,5,5,0,0,0-3-2.3l-1.3-.2a5.5,5.5,0,0,0-2.5.7Zm-1.9,17.6-.2-.3-2.2,8.4,2-.7a5,5,0,0,0,3-2.3,4.6,4.6,0,0,0,.5-3.8,5,5,0,0,0-2.3-3,5,5,0,0,0-3.8-.5,11.7,11.7,0,0,0-2,.6,5.1,5.1,0,0,0-3.5,3.5,4.2,4.2,0,0,0,0,2.7,4.8,4.8,0,0,0,1.2,2.2l.2.2a4.9,4.9,0,0,0,3.6,1.5,4.7,4.7,0,0,0,3.5-1.5,5.1,5.1,0,0,0,1.5-3.5l-.2-1.3a4.5,4.5,0,0,0-1.3-2.2Zm40.7-30.4-.2-.4v5.1h.1l-.8,1h.1l-1,.8h0l-1.2.5h.1l-1.3.2h.1l-1.3-.2h.1l-1.2-.5h.2l-1.1-.8h.2a4.7,4.7,0,0,0,3.5,1.5,4.9,4.9,0,0,0,3.6-1.5,5,5,0,0,0,1.4-3.5v-1.3a5.4,5.4,0,0,0-1.3-2.2,5.4,5.4,0,0,0-2.6-1.6,5.3,5.3,0,0,0-3.5.3,5.1,5.1,0,0,0-2.6,2.2,5.4,5.4,0,0,0,3.2,7.7,5,5,0,0,0,6.1-3.5,5.1,5.1,0,0,0-.5-3.8Zm10.9-2.5a5.1,5.1,0,0,0-.7-1.7L71,170h.1l-1.2-.5H70l-1-.8.2.2-.8-1.1h0l-.5-1.1H68a5.2,5.2,0,0,0,2.3,3,5,5,0,0,0,3.8.5,5,5,0,0,0,3.5-6.2,6.2,6.2,0,0,0-1.4-2.5,8.4,8.4,0,0,0-2.6-1.5l-1.3-.2-1.3.2a4.9,4.9,0,0,0-2.6,1.8,5,5,0,0,0-.4,5.6v.2l-.5-1.2c0,.1.1.2.1.3a5,5,0,0,0,2.3,3,5,5,0,0,0,3.8.5,5,5,0,0,0,3.5-6.2Zm4.5,7.1a5.6,5.6,0,0,0-1.5-3.7,5,5,0,0,0-3.8-1.5H75.2a4.6,4.6,0,0,0-1.7.9l-.9.9a5.6,5.6,0,0,0-.9,1.7,7.4,7.4,0,0,0-.1,3.3,5.7,5.7,0,0,0,2.3,3,5.1,5.1,0,0,0,6.9-1.8l.5-1.2a6.2,6.2,0,0,0,0-2.7h-.1l.2,1.3v.9l-4.8,3.7H75.4l-2.2-1.3h0l-1.3-2.2h0v-1.3h0a4.8,4.8,0,0,0,5,5,5.1,5.1,0,0,0,5-5ZM67,182.3a7.2,7.2,0,0,0-2.3-2.3,5,5,0,0,0-7.3,3v.2a5,5,0,0,0,3.5,6.2,5,5,0,0,0,3.8-.5,5,5,0,0,0,2.3-3v-.2l-7.3,3h.2l-1-.7.2.2-.8-1h.1a4.4,4.4,0,0,0,1.3,1.4,5.6,5.6,0,0,0,1.7.9,5,5,0,0,0,5.6-7.4Zm-14.1,6a7.1,7.1,0,0,0-1.4-1,5.4,5.4,0,0,0-2.8-.8,5.3,5.3,0,0,0-3.2,1.2,4.9,4.9,0,0,0-1.9,2.8,5.3,5.3,0,0,0,.5,3.9,5.3,5.3,0,0,0,3,2.3,5,5,0,0,0,3.8-.5,4.6,4.6,0,0,0,2.3-3h0l-.5,1.2h.1l-.8,1h.1l-1.1.8h.1l-1.2.5H50l-1.3.2h0l-1.3-.2h.2l-1.2-.5h.3l-1.1-.7h.2a5.1,5.1,0,0,0,3.5,1.5,5.5,5.5,0,0,0,3.6-1.5,5.2,5.2,0,0,0,1.4-3.5,5.4,5.4,0,0,0-1.4-3.6Zm-8.3,8.6a5.4,5.4,0,0,0-4.1-1.8,5.6,5.6,0,0,0-4.2,1.8,5.1,5.1,0,0,0,0,7,4.9,4.9,0,0,0,3.6,1.5,5.3,5.3,0,0,0,3.5-1.5l.2-.2-1,.8h.1l-1.2.5h.2l-1.3.2h.1l-1.3-.2h.2l-1.2-.5h.2l-1.1-.8.2.2a5.1,5.1,0,0,0,3.6,1.5,4.7,4.7,0,0,0,3.5-1.5,5.1,5.1,0,0,0,1.5-3.5,5.6,5.6,0,0,0-1.5-3.5Zm-13.3,7h0l1.3.2c-1.6-.3-3.1-.8-4.7-.3a5.5,5.5,0,0,0-3.9,3.8,5.3,5.3,0,0,0,.6,4.1,6.2,6.2,0,0,0,1.8,1.8l1.5.6a5.6,5.6,0,0,0,3.8-.5,5,5,0,0,0,2.3-3,5,5,0,0,0-3.5-6.2h-.2l2.2,1.2h-.1l.8,1h0l.5,1.2h0v2.6h0l-.5,1.2h.1l-.8,1h.1l-1,.8h.1l-1.2.5h.1l-1.3.2h.4l-1.3-.2,1,.2a6.3,6.3,0,0,0,1.9.3,4.8,4.8,0,0,0,3.6-1.4,5.2,5.2,0,0,0,1.4-3.6,5,5,0,0,0-1.4-3.5l-1-.8a5.9,5.9,0,0,0-2.6-.7ZM16.7,215.2a10.8,10.8,0,0,0-3.1.2,5.8,5.8,0,0,0-4.3,5.7,5.4,5.4,0,0,0,1.4,3.6,5.2,5.2,0,0,0,3.6,1.4,4.7,4.7,0,0,0,3.5-1.4,5.3,5.3,0,0,0,1.5-3.6v-.2l-.2,1.3V222l-.6,1.2V223l-.7,1h.1l-1,.8h.2l-1.2.5h.3l-1.3.2h1.6a5,5,0,0,0,3.5-1.4,4.9,4.9,0,0,0,1.5-3.6,5.1,5.1,0,0,0-5-5Zm-7.3,8.3a4.1,4.1,0,0,0-1.9.2,6.8,6.8,0,0,0-2.6,1.5,5.2,5.2,0,0,0-1.4,3.6,5.2,5.2,0,0,0,1.4,3.5,5.3,5.3,0,0,0,3.6,1.5,5.8,5.8,0,0,0,3.5-1.5h.1l-1,.8.2-.2-1.2.5H9.4a5.6,5.6,0,0,0,3.5-1.5,5,5,0,0,0,0-7.1,5.5,5.5,0,0,0-3.5-1.4ZM71.5,122.8a5.7,5.7,0,0,0-1.6-1.1L67.4,131h.2a4.4,4.4,0,0,0,3.5-1.5,4.5,4.5,0,0,0,1.5-3.5,4.7,4.7,0,0,0-1.5-3.5l-1-.8a4.3,4.3,0,0,0-2.5-.7h-.2l-1.3.2a2.8,2.8,0,0,0-1.7.9,4.4,4.4,0,0,0-1.8,2.6,5.7,5.7,0,0,0,0,2.6,5,5,0,0,0,2.3,3l.4.2-1-.7h.1a5,5,0,0,0,8.5-3.6,4.6,4.6,0,0,0-1.4-3.5Zm-1-7.6a5.6,5.6,0,0,0-4.4-2.1l-1.3.2a3.2,3.2,0,0,0-1.7.9,4.4,4.4,0,0,0-1.8,2.6,10.6,10.6,0,0,0-.2,2.5,5,5,0,0,0,1.4,3.5,4.9,4.9,0,0,0,3.6,1.5,5.1,5.1,0,0,0,3.5-1.5,4.9,4.9,0,0,0,1.5-3.5v-1l-.2,1.3v-.2l-4.9,3.7h.2l-1.4-.2h.2l-1.2-.5h.2l-1-.8.4.4a5,5,0,0,0,8.5-3.5l-.2-1.3a3.8,3.8,0,0,0-1.3-2.2ZM61,119.1l-.9-.4,1.2.5-.8-.5,1,.8h-.1a5.7,5.7,0,0,0-3.5-1.4,5.2,5.2,0,0,0-3.6,1.4,4.8,4.8,0,0,0-1.4,3.6,4.6,4.6,0,0,0,1.4,3.5,8,8,0,0,0,1.9,1.3l2.2.9a4.6,4.6,0,0,0,3.8-.5,5.3,5.3,0,0,0,2.3-3,5,5,0,0,0-.5-3.8l-.8-1.1a4.3,4.3,0,0,0-2.2-1.2Zm-8.6,2.5H50.9l1.3.2-.6-.2,1.2.5-.6-.3,1,.8-.3-.4a4.9,4.9,0,0,0-3.6-1.5,5.1,5.1,0,0,0-5,5,5.6,5.6,0,0,0,1.5,3.5c1.6,2,4.2,2.4,6.6,2.4a5,5,0,0,0,3.5-1.4,5.3,5.3,0,0,0,1.5-3.6,5.1,5.1,0,0,0-5-5Zm-7.2-5.5-1.8-1.9a5.2,5.2,0,0,0-3.5-1.4,4.8,4.8,0,0,0-5,5,5,5,0,0,0,1.4,3.5l1.9,1.8a5,5,0,0,0,8.5-3.5,5.1,5.1,0,0,0-1.5-3.5Zm-7.4-6.3a8.2,8.2,0,0,0-2.5-1.2,5.5,5.5,0,0,0-5.2,1.4,4.6,4.6,0,0,0-1.4,2.3,3.7,3.7,0,0,0-.2,1.8,5.7,5.7,0,0,0,1.4,3.6,5.2,5.2,0,0,0,3.6,1.4,5,5,0,0,0,3.5-1.4,5.1,5.1,0,0,0,1.5-3.6v-.3l-.2,1.3v-.2l-.5,1.2h.1l-.8,1h.1l-1.1.8h.1l-1.2.5h.1l-1.3.2h.1l-1.3-.2h.3l-1.2-.5,1.1.6a4.6,4.6,0,0,0,3.8.5,5,5,0,0,0,3-2.3,5,5,0,0,0,.5-3.8,5,5,0,0,0-2.3-3Zm-6.3,9a6.1,6.1,0,0,0-6-1.5,3.8,3.8,0,0,0-2.2,1.3,3.8,3.8,0,0,0-1.3,2.2v.2a4.6,4.6,0,0,0-.1,2,6,6,0,0,0,.6,1.9,5.1,5.1,0,0,0,6.9,1.8,5.2,5.2,0,0,0,2.3-3v-.3l-3.5,3.5h.3l-1.3.2h-.8l-1.2-.5.2.2-1-.8h.1a5.5,5.5,0,0,0,3.6,1.5,5.1,5.1,0,0,0,3.5-1.5,5,5,0,0,0,0-7.1Zm-12.8,5.9-.2.2,1.2-.5-.8.2,1.4-.2h-.2l1.3.2h-.1l1.2.5h-.1l1,.8h0l.7,1h0l.5,1.2v-.2a5.7,5.7,0,0,0-2.3-3,5.9,5.9,0,0,0-3.9-.5,5.3,5.3,0,0,0-3,2.3l-.5,1.2a6.1,6.1,0,0,0,0,2.7,5.1,5.1,0,0,0,2.5,3.3,5.4,5.4,0,0,0,2.9.7,8.8,8.8,0,0,0,3.5-1,5,5,0,0,0,2.3-3,5,5,0,0,0-3.5-6.2H21.3a5.8,5.8,0,0,0-2.6.6Zm-.9-1.9-.3-.3.8,1a17.1,17.1,0,0,0-1.1-1.4,6.4,6.4,0,0,0-2.5-1.5,4.8,4.8,0,0,0-3.9.5,5.3,5.3,0,0,0-2.3,3,5,5,0,0,0,.5,3.8l.8,1a4.2,4.2,0,0,0,2.2,1.3h.1l-1.2-.5H11l-1-.7h.2l-.8-1a10.9,10.9,0,0,0,1.3,1.7,5.7,5.7,0,0,0,3.6,1.4,5.2,5.2,0,0,0,3.5-1.4,5.5,5.5,0,0,0,1.5-3.6,5.1,5.1,0,0,0-1.5-3.5Zm-3.7-6.4-.7-.7.8,1c-.1,0-.1-.1-.1-.2l.5,1.2c-.1,0-.1-.1-.1-.2l.2,1.4v-.2L11,123.6h.3a5,5,0,0,0,3-2.3,5.1,5.1,0,0,0,.5-3.8,5,5,0,0,0-2.3-3,5.1,5.1,0,0,0-3.8-.5H8.4l-1.2.5a3.5,3.5,0,0,0-1.4,1.3,4.1,4.1,0,0,0-.7,1.1,4.3,4.3,0,0,0-.4,1.9c-.2,2,1.1,3.5,2.4,4.8a5.5,5.5,0,0,0,3.5,1.4,5,5,0,0,0,3.5-1.4,5,5,0,0,0,0-7.1Zm-1.2-3.1-.2-.2.8,1-.2-.3.5,1.2v.9l-2.5,4.3.5-.2a5.2,5.2,0,0,0,2.3-3,5.3,5.3,0,0,0-.5-3.9,5.3,5.3,0,0,0-3-2.3,5,5,0,0,0-3.8.5l-.5.3a6.2,6.2,0,0,0-1.8,1.8,5.5,5.5,0,0,0-.7,2.5,7.4,7.4,0,0,0,.8,3,8.3,8.3,0,0,0,1.1,1.5,5.3,5.3,0,0,0,3.6,1.5,5.1,5.1,0,0,0,3.5-1.5,5,5,0,0,0,0-7.1Zm155.6,39.3h0l-7.3,2.9.2.2a4.9,4.9,0,0,0,3.9.5,5.2,5.2,0,0,0,3-2.3,5,5,0,0,0,.5-3.8l-.5-1.2a5.2,5.2,0,0,0-1.8-1.8l-.3-.2a5.5,5.5,0,0,0-2.5-.7,3.2,3.2,0,0,0-1.9.5,4.6,4.6,0,0,0-2.9,3.2v.2a5.5,5.5,0,0,0,.5,3.8,4.6,4.6,0,0,0,3,2.3,4.9,4.9,0,0,0,3.9-.5,5.3,5.3,0,0,0,2.3-3ZM177,159v-.2l-6.2,3.5h.5l-1.2-.5.6.3-1.1-.7h.2a5.5,5.5,0,0,0,3.5,1.4,5,5,0,0,0,3.5-1.4,4.9,4.9,0,0,0,1.5-3.6,5.3,5.3,0,0,0-1.5-3.5,8.8,8.8,0,0,0-1.5-1.2,6.7,6.7,0,0,0-1.8-.7,4.6,4.6,0,0,0-2-.1,6,6,0,0,0-1.9.6,5.7,5.7,0,0,0-2.3,3v.3a5.1,5.1,0,0,0,.5,3.8,5,5,0,0,0,6.8,1.8,4.4,4.4,0,0,0,2.3-3Zm5.5,13.2h1.6a5.1,5.1,0,0,0,3.5-1.5,5,5,0,0,0,0-7.1,5.2,5.2,0,0,0-3.5-1.4h-1.6a5.2,5.2,0,0,0-3.5,1.4,5.3,5.3,0,0,0-1.5,3.6,5.1,5.1,0,0,0,1.5,3.5,5.3,5.3,0,0,0,3.5,1.5Zm13.9-3.6h-.2l1,.7h0l.7,1.1v-.2l.5,1.2h0v1.3h0l-3.6,4.8h.5a5.1,5.1,0,0,0,5-5,5.1,5.1,0,0,0-5-5,8.7,8.7,0,0,0-3.2.2,5.1,5.1,0,0,0-2.6,1.8,5.2,5.2,0,0,0-1.1,3,5.4,5.4,0,0,0,.8,2.8,6.7,6.7,0,0,0,2,2.1,5.3,5.3,0,0,0,3.9.5,4.8,4.8,0,0,0,2.9-2.3,4.9,4.9,0,0,0,.6-3.9l-.6-1.2a5.8,5.8,0,0,0-1.7-1.8Zm.6-12.9-.3.3a5,5,0,0,0,0,7.1,4.6,4.6,0,0,0,3.5,1.4,5.2,5.2,0,0,0,3.6-1.4l.3-.3a5.2,5.2,0,0,0,1.4-3.6,5.2,5.2,0,0,0-1.4-3.5,5.3,5.3,0,0,0-3.6-1.5,5.8,5.8,0,0,0-3.5,1.5Zm-7.6-1.5-.5-.5-7,7,.3.3-.8-1c0,.1.1.2.1.3l-.5-1.2v.3l-.2-1.4v.3a5.1,5.1,0,0,0,1.5,3.6,5.1,5.1,0,0,0,7,0l.8-1a4.8,4.8,0,0,0,.7-2.6,5.5,5.5,0,0,0-2-4.6,5.1,5.1,0,0,0-3.5-1.5,5.1,5.1,0,0,0-5,5,5.1,5.1,0,0,0,1.5,3.5l.5.6a5.1,5.1,0,0,0,7,0,4.9,4.9,0,0,0,1.5-3.6,5.1,5.1,0,0,0-1.5-3.5Zm9.7,13.5-.2-.3v5h0l-1.8,1.8h.1l-1.2.5h.2l-1.4.2h.2l-1.3-.2h.3l-1.2-.5.5.3-1-.8c0,.1.1.1.1.2a5.2,5.2,0,0,0,3.6,1.4,5,5,0,0,0,3.5-1.4,5.3,5.3,0,0,0,1.5-3.6,5.8,5.8,0,0,0-1.5-3.5,6.5,6.5,0,0,0-3.1-1.8,6.1,6.1,0,0,0-3,0,5.3,5.3,0,0,0-3.2,2.5,5,5,0,0,0,0,5l.2.3a5.2,5.2,0,0,0,3,2.3,4.9,4.9,0,0,0,3.9-.5,5.3,5.3,0,0,0,2.3-3,5.6,5.6,0,0,0-.5-3.8Zm11.5,6.4-.2-.3-5.6,7.4h.2l-1.2-.5,1,.6-1-.7.6.5-.8-1,.2.3-.5-1.2v-1.1h0a4.8,4.8,0,0,0,5,5,4.6,4.6,0,0,0,3.5-1.4,5.3,5.3,0,0,0,1.5-3.6,6.4,6.4,0,0,0-2.3-4.6,10,10,0,0,0-3.5-2l-1.3-.2-1.3.2a4.9,4.9,0,0,0-2.6,1.8,4.3,4.3,0,0,0-1,2.4,5.1,5.1,0,0,0,.6,3.2l.2.2a3.5,3.5,0,0,0,1.3,1.4,2.8,2.8,0,0,0,1.7.9,4.9,4.9,0,0,0,3.9-.5,5.1,5.1,0,0,0,2.3-2.9,5.2,5.2,0,0,0-.6-3.9Zm1.4,20.1h.1l-1,.8h0l-1.2.5h.2l-1.3.2h.3l-1.3-.2h.4l-1.2-.5.9.5-1-.8.2.2a4.8,4.8,0,0,0,7,0,4.9,4.9,0,0,0,1.5-3.5,5.3,5.3,0,0,0-1.5-3.6,8.4,8.4,0,0,0-3.3-1.9,4.4,4.4,0,0,0-2-.3l-1.5.2a7.2,7.2,0,0,0-2.4,1.4,5.2,5.2,0,0,0-1.4,3.5,5.2,5.2,0,0,0,1.4,3.6,4.8,4.8,0,0,0,3.6,1.4h1.3a6.1,6.1,0,0,0,2.2-1.3Zm13.2,8.4v-.2l-7.3,3c.5.3,1,.8,1.6,1.1a6.3,6.3,0,0,0,3.9,1.3,5,5,0,0,0,3.5-1.4,4.9,4.9,0,0,0,1.5-3.6,5.1,5.1,0,0,0-1.5-3.5,5.6,5.6,0,0,0-3.5-1.5h-.1l1.3.2h-.5l1.2.5c-.9-.5-1.5-1.2-2.4-1.6a4.9,4.9,0,0,0-4.4-.3,4.8,4.8,0,0,0-2.9,3.3v.2a4.5,4.5,0,0,0-.1,2,5.5,5.5,0,0,0,.6,1.8,4.6,4.6,0,0,0,3,2.3,4.9,4.9,0,0,0,3.9-.5,4.7,4.7,0,0,0,2.3-3Zm9.7,5.2h-.2l-6.1,7.8.8.5-1.1-.8a11.4,11.4,0,0,1,1.6,1.5,4.9,4.9,0,0,0,3.6,1.5,4.7,4.7,0,0,0,3.5-1.5,5.1,5.1,0,0,0,1.5-3.5,5.8,5.8,0,0,0-1.5-3.5l-1.1-1.2a8.2,8.2,0,0,0-2.2-1.6,3.3,3.3,0,0,0-1.9-.6,3.4,3.4,0,0,0-2,.1,5.1,5.1,0,0,0-2.6,1.8,4.9,4.9,0,0,0,.4,6.5l.2.2a5.1,5.1,0,0,0,3.5,1.5,5.3,5.3,0,0,0,3.6-1.5,5,5,0,0,0,1.4-3.5,5.4,5.4,0,0,0-1.4-3.6Zm3.9,12.8-1.5-1.1-5.1,8.6.5.3-1-.7a7.4,7.4,0,0,1,1.3,1.2,5.1,5.1,0,0,0,3.5,1.5,5,5,0,0,0,3.5-8.5,8.8,8.8,0,0,0-2.7-2.4,5.3,5.3,0,0,0-3.9-.5,4.8,4.8,0,0,0-2.9,2.3,4.9,4.9,0,0,0-.6,3.9,5.1,5.1,0,0,0,2.3,2.9l.4.3-1-.8h.2a4.8,4.8,0,0,0,7,0,4.7,4.7,0,0,0,1.5-3.5,5.3,5.3,0,0,0-1.5-3.6Zm-4.6,6.6H234l1,.8-1.3-1.1-1.7-.7a4.6,4.6,0,0,0-3.8.5,5.3,5.3,0,0,0-2.3,3,5.1,5.1,0,0,0,.5,3.8l.8,1a4.5,4.5,0,0,0,2.2,1.3h.1l-1.2-.5.4.2-1-.8,1.4,1.1a4.9,4.9,0,0,0,3.9.5,5.2,5.2,0,0,0,3-2.3,5,5,0,0,0,.5-3.8L236,229a5.2,5.2,0,0,0-1.8-1.8Z"/></svg>