<svg xmlns="http://www.w3.org/2000/svg" width="650" height="523" viewBox="0 0 650 523"><defs><style>.a{fill:#e3e3e3;}.b{fill:none;stroke:#d8d8d8;}.b,.c{stroke-width:2px;}.c{fill:#b2b2b2;stroke:#fff;}</style></defs><title>spiral-proportional-area-chart</title><rect class="a" x="497.6" y="87" width="4.5" height="10.88" transform="translate(74.9 371.5) rotate(-43.8)"/><rect class="a" x="528.8" y="123.8" width="4.5" height="10.86" transform="translate(14.5 307.7) rotate(-32.7)"/><path class="b" d="M459.4,505.8c78.4-54.7,123.8-149.3,118.9-240-5-93.6-62.5-179.4-141.5-219.3S260.5,13.5,191,59.4,81.7,187.9,86.7,265.9s53.7,148.5,119.2,180.6S350.9,471.7,407,433.6s86.9-105.3,81.9-167.7-44.8-117.6-96.8-141.9-113.9-17.4-156.4,12.9-64.6,82.2-59.6,129,36,86.7,74.5,103.2,82.7,9.6,111.7-12.9,42.2-59.1,37.2-90.3-27.1-55.8-52.1-64.5-51.5-1.8-67,12.9-19.9,36-14.9,51.6"/><circle class="c" cx="312.8" cy="198.9" r="21.6"/><circle class="c" cx="349.4" cy="201.6" r="13"/><circle class="c" cx="378.4" cy="222.4" r="19.5"/><circle class="c" cx="396.5" cy="253.3" r="11.2"/><circle class="c" cx="399.9" cy="289.9" r="16.7"/><circle class="c" cx="388.4" cy="324.7" r="25.8"/><circle class="c" cx="365.5" cy="353.3" r="13.4"/><circle class="c" cx="333.1" cy="371.9" r="15.6" transform="translate(-165.4 344.5) rotate(-45)"/><circle class="c" cx="296" cy="378" r="25.1"/><circle class="c" cx="259" cy="372.7" r="17.5"/><circle class="c" cx="225.9" cy="354.4" r="13.2"/><circle class="c" cx="199.9" cy="327.4" r="23.1"/><circle class="c" cx="182.9" cy="294.5" r="18.4"/><circle class="c" cx="175.2" cy="256.7" r="16.5"/><circle class="c" cx="179.7" cy="218.9" r="6.4"/><circle class="c" cx="193.7" cy="183.7" r="23.8"/><circle class="c" cx="216" cy="153.7" r="16.4"/><circle class="c" cx="246" cy="130.4" r="19.2"/><circle class="c" cx="280.3" cy="115.7" r="10.7"/><circle class="c" cx="317.9" cy="109.3" r="18.4"/><circle class="c" cx="355.4" cy="112.7" r="8.8"/><circle class="c" cx="391.4" cy="123.8" r="8"/><circle class="c" cx="423.7" cy="143.4" r="11.6"/><circle class="c" cx="450.2" cy="171" r="19.4"/><circle class="c" cx="470.4" cy="201.6" r="18.7"/><circle class="c" cx="484.1" cy="237.5" r="12.2"/><circle class="c" cx="489.9" cy="273.7" r="16.4"/><circle class="c" cx="486.6" cy="311.1" r="23.9"/><circle class="c" cx="475.8" cy="347.6" r="32.2"/><circle class="c" cx="458" cy="381.7" r="28.9"/><circle class="c" cx="434.8" cy="410.6" r="16.6"/><circle class="c" cx="405.7" cy="434.3" r="29.7"/><circle class="c" cx="371.4" cy="452.1" r="17.9"/><circle class="c" cx="335" cy="462.9" r="14.5"/><circle class="c" cx="297.1" cy="466.9" r="20.7"/><circle class="c" cx="259.1" cy="464" r="20.6"/><circle class="c" cx="222.9" cy="454.2" r="17.2"/><circle class="c" cx="187.9" cy="436.6" r="9.5"/><circle class="c" cx="158.1" cy="413.9" r="14.5"/><circle class="c" cx="131.9" cy="385.3" r="12.2"/><circle class="c" cx="111.6" cy="353.1" r="11.9"/><circle class="c" cx="96.9" cy="319" r="23.5"/><circle class="c" cx="87.9" cy="281.1" r="23.1"/><circle class="c" cx="86.2" cy="242.7" r="16.2"/><circle class="c" cx="91.8" cy="204.9" r="29.6"/><circle class="c" cx="103" cy="168.7" r="26"/><circle class="c" cx="120.1" cy="134.1" r="35.9"/><circle class="c" cx="141.9" cy="102.9" r="32.1"/><circle class="c" cx="169.2" cy="76" r="32"/><circle class="c" cx="200.7" cy="53.2" r="26.7"/><circle class="c" cx="235.1" cy="37.1" r="26"/><circle class="c" cx="271.7" cy="25.6" r="21.1"/><circle class="c" cx="309" cy="20.6" r="12"/><circle class="c" cx="348" cy="21.5" r="13.4"/><circle class="c" cx="385.5" cy="27.7" r="21.6"/><circle class="c" cx="421.5" cy="39.5" r="10.9"/><circle class="c" cx="455.4" cy="57.2" r="15.3"/><circle class="c" cx="486.1" cy="79.7" r="21"/><circle class="c" cx="512.9" cy="106.8" r="19.8"/><circle class="c" cx="534.9" cy="136.2" r="14.4"/><circle class="c" cx="554.3" cy="170.1" r="16.8"/><circle class="c" cx="567.5" cy="206.1" r="10.1"/><circle class="c" cx="576.6" cy="244" r="14.6"/><circle class="c" cx="578.7" cy="280.5" r="23.3"/><circle class="c" cx="575.5" cy="318" r="26.4"/><circle class="c" cx="567.4" cy="356.1" r="30.7"/><circle class="c" cx="553.7" cy="391.4" r="11.6"/><circle class="c" cx="536.2" cy="425" r="23.6"/><circle class="c" cx="513.7" cy="456" r="18.3"/><circle class="c" cx="488.5" cy="482" r="25.6"/><circle class="c" cx="459.9" cy="505.7" r="13.3"/><circle class="c" cx="280.8" cy="213" r="16.4"/><circle class="c" cx="263.5" cy="247.5" r="17"/></svg>