<svg height="256" viewBox="0 0 256 256" width="256" xmlns="http://www.w3.org/2000/svg"><path d="m117.6 133.1a7.5 7.5 0 0 1 -7.6-6.1 2.5 2.5 0 0 1 -2.4-2.6 2.5 2.5 0 0 1 2.5-2.5h.2a7.3 7.3 0 0 1 7.3-5c10.4 0 10.4 16.2 0 16.2zm13.7-17.8a8.1 8.1 0 0 0 -5.7-13.8 8.4 8.4 0 0 0 -5.7 2.3 8.1 8.1 0 0 0 5.7 13.8 8.8 8.8 0 0 0 5.7-2.3zm27.6-19.9a10.1 10.1 0 0 1 -4.6 10.9c-5.9 3.4-13.3-.4-14.9-6.7a10.3 10.3 0 0 1 4.9-11.3 11.1 11.1 0 0 1 4.4-1.2 8.3 8.3 0 0 1 3.1.2l.6.3a6.4 6.4 0 0 1 1.9.8 10.1 10.1 0 0 1 3.4 3.4 7 7 0 0 1 1.2 3.4zm-5.6 1.2v-.2a5.4 5.4 0 0 0 -.5-1.1 13.9 13.9 0 0 1 .5 1.3zm21.2-2.6a8 8 0 0 0 -5.7 2.4 8.1 8.1 0 1 0 5.7-2.4zm24.2 38.9c3.1-1.6 5.6-4.4 6-7.9a10.5 10.5 0 0 0 -5.4-10.6 15.8 15.8 0 0 0 -8.3-1.8 8.4 8.4 0 0 0 -8 6.9 7.6 7.6 0 0 0 -3.1 5.5 8 8 0 0 0 2.2 6.7 12.9 12.9 0 0 0 9.8 5.1 7.4 7.4 0 0 0 6.8-3.9zm7.6 22.8a8.1 8.1 0 0 0 -5.7-13.8 8.4 8.4 0 0 0 -5.8 2.4 8.1 8.1 0 0 0 -2.3 5.7 8.2 8.2 0 0 0 8.1 8.1 8.4 8.4 0 0 0 5.7-2.4zm-23.3 15.4c-10.4 0-10.4 16.2 0 16.2s10.4-16.2 0-16.2zm-28.3 22.5a13.7 13.7 0 0 0 -.3-5.7 12.2 12.2 0 0 0 -5.7-9.4 16.6 16.6 0 0 0 -5.9-2.1 12.7 12.7 0 0 0 -7.2.7 12.6 12.6 0 0 0 -7.8 11.4 16.4 16.4 0 0 0 8.3 14.1 13.1 13.1 0 0 0 12.6.1 11.9 11.9 0 0 0 6-9.1zm-50.2-12.3a10.3 10.3 0 0 0 7.1-2.9 9.9 9.9 0 0 0 0-14.2 9.9 9.9 0 0 0 -14.2 0 10.1 10.1 0 0 0 0 14.2 10.5 10.5 0 0 0 7.1 2.9zm-29.9-49.8a8.1 8.1 0 0 0 -2.3 5.7 8.2 8.2 0 0 0 8.1 8.1 8.4 8.4 0 0 0 5.7-2.4 8.1 8.1 0 0 0 -5.7-13.8 8.4 8.4 0 0 0 -5.8 2.4zm11-23.3a12 12 0 0 1 -8.2-3.3c-2.2-2-3.1-5.4-3.2-8.3a13.6 13.6 0 0 1 4.4-9.9 15.1 15.1 0 0 1 5.3-3.1 14 14 0 0 1 4.6-1.6 9.2 9.2 0 0 1 4.5-1.2 9 9 0 0 1 7.6 4.3 10.1 10.1 0 0 1 -.2 10.7l-.5.6v.2a8.9 8.9 0 0 1 -2.5 3.2 11.4 11.4 0 0 1 -4.4 4.6 9.1 9.1 0 0 1 -7.4 3.8zm26.7-32.1c10.4 0 10.4-16.1 0-16.1s-10.4 16.1 0 16.1zm8.5-16.6a16.3 16.3 0 0 0 9.1 15l.9.3a12.6 12.6 0 0 0 3.3 1.6 14.3 14.3 0 0 0 15.9-5.7c2 3.4 4.7 6.3 8.2 7.4a12.2 12.2 0 0 0 2.6.6c5.8 2.5 12.5 2.6 18.1-.9 13-8.1 8.5-29.6-4.6-34.8-7.8-3-18.6.5-24.1 7.3l-.5-.8-.3-.4a13.6 13.6 0 0 0 -21.4-1.7l-.5.4a16 16 0 0 0 -3.3 3.1 10.3 10.3 0 0 0 -3.4 8.6zm77.3.6a17.6 17.6 0 0 1 3.9.6 7.5 7.5 0 0 1 3.9 2.1 5.8 5.8 0 0 1 2.1 2 6.8 6.8 0 0 1 1.5 2.6 5.2 5.2 0 0 1 .8 3 5.1 5.1 0 0 1 0 3 5.2 5.2 0 0 1 -.8 3 5.8 5.8 0 0 1 -1.5 2.5 5.3 5.3 0 0 1 -2.1 2.1 7.5 7.5 0 0 1 -3.9 2.1l-3.1.4-3.1-.4-2.8-1.2-2.3-1.8-1.9-2.3a23.3 23.3 0 0 0 -1.1-2.8c-.2-1-.3-2.1-.4-3.1v-.8a4.3 4.3 0 0 1 .1-1.6 8.6 8.6 0 0 1 1.3-4.1l1.7-2.2a8 8 0 0 1 3.5-2.2 7.6 7.6 0 0 1 4.2-.9zm6 25.4-2.1 4.8a21.5 21.5 0 0 0 0 10.7 14.3 14.3 0 0 0 3.6 6.9 15.8 15.8 0 0 0 5.7 5.2 20.4 20.4 0 0 0 20.4 0h.2l4.1-3.1a16 16 0 0 0 4.1-6.5 9.4 9.4 0 0 0 1.4-5.1 15.5 15.5 0 0 0 -.3-8l-2.1-4.9-3.1-4a14.6 14.6 0 0 0 -6.5-4.2 14.9 14.9 0 0 0 -7.8-1.7h-.2c-6.9-.2-14.2 3.7-17.4 9.9zm42.7 33a14.1 14.1 0 0 0 -20.1 0 10.9 10.9 0 0 0 -2.9 4.5 10.6 10.6 0 0 0 -1.2 5.5 14.1 14.1 0 0 0 4.1 10.1 15 15 0 0 0 10.1 4.1 14.8 14.8 0 0 0 10-4.1 10.8 10.8 0 0 0 3-4.6 10.3 10.3 0 0 0 1.2-5.5c-.2-3.7-1.4-7.5-4.2-10zm2.7 54.1a22 22 0 0 1 -.4 3.6 20.5 20.5 0 0 1 -.5 2.4 16.7 16.7 0 0 1 -3.9 6.7l-.3.2-2.8 2.2-.2.2a25.5 25.5 0 0 1 -3.5 1.4l-2.7.5a12.3 12.3 0 0 1 -5.4 0 7.3 7.3 0 0 1 -4.1-1.2 8.5 8.5 0 0 1 -3.7-2.1 8.6 8.6 0 0 1 -3-3 8.2 8.2 0 0 1 -2.1-3.6 8.8 8.8 0 0 1 -1.1-4.2 12.4 12.4 0 0 1 .3-6.6c.5-1.3 1.1-2.6 1.6-4l2.7-3.3a41.9 41.9 0 0 1 3.3-2.6l2.1-.9c2-.9 1.8-.9 2.9-1a9.3 9.3 0 0 1 2.4-.4 13.6 13.6 0 0 1 6.6.3c5.2 1.6 9.8 5.5 11.2 11a35.6 35.6 0 0 1 .6 4.4zm-23.7-10.9h-.1a.1.1 0 0 0 .1 0zm.5 26.2-.4-.2zm1.7 22.2a13.4 13.4 0 0 1 -1.4 5.2 20 20 0 0 1 -1 2.1 16.7 16.7 0 0 1 -5.7 5.8 16.2 16.2 0 0 1 -22.1-5.8 16.4 16.4 0 0 1 -2.2-8.1 17.1 17.1 0 0 1 2.2-8.2l1.5-1.8a7.8 7.8 0 0 1 2.8-2.9 12.9 12.9 0 0 1 5.7-2.9 22.2 22.2 0 0 1 4.5-.6h.1a6.5 6.5 0 0 1 3.4 0 9.8 9.8 0 0 1 4.9 1.6l2.7 2.1a15.7 15.7 0 0 1 3.8 6.3 5.7 5.7 0 0 1 .3 1.8 6.4 6.4 0 0 1 .3 2 7.8 7.8 0 0 1 .3 2.2c0 .3-.1.7-.1 1.2zm-23.3 11.8h.4zm-22.8 7.2a11.3 11.3 0 0 0 -1.5-2.1c-2.2-3.1-5.6-5.9-9.3-6.7s-9.1-.8-12.9 1.7h-.1c-5 3.3-8.3 8.4-8.3 14.5a16.3 16.3 0 0 0 6.6 13.2 16.6 16.6 0 0 0 14.6 3c6-1.7 9.7-6.1 11.7-11.7a16.3 16.3 0 0 0 .8-5.5 9 9 0 0 0 -1.6-6.4zm-50.4 5.5a5.4 5.4 0 0 0 0-1.8 17.2 17.2 0 0 0 -1.4-6.8c-.3-.6-.5-1.2-.9-1.9a13.3 13.3 0 0 0 -5.5-5.5l-.6-.4a16.7 16.7 0 0 0 -17 0 8 8 0 0 0 -2.1 1.5 18.4 18.4 0 0 0 -6.5 9.3c0 .1-.1.2-.1.3-1.2 4-.6 9.7 1.7 13.2a18 18 0 0 0 8.2 7 17.8 17.8 0 0 0 7.6 1.5 15.7 15.7 0 0 0 7-1.2 15 15 0 0 0 6.3-4.8c2-2.6 3.6-6.2 3.4-9.5 0-.3-.1-.6-.1-.9zm-46.9-38h.2a17.4 17.4 0 0 0 -3.2-6 16.7 16.7 0 0 0 -6.4-7.2 8.8 8.8 0 0 0 -2.2-1 16.1 16.1 0 0 0 -8.1-2.5 38.7 38.7 0 0 0 -4.6.6 12.5 12.5 0 0 0 -3.6 1.5 17.6 17.6 0 0 0 2.5-3.4 18.2 18.2 0 0 0 1.3-3.7 24.2 24.2 0 0 0 2.1-8.4c.3-9.2-7.7-18.2-16.8-20.3a20.9 20.9 0 0 0 2.8-2.4 16.6 16.6 0 0 0 4.2-6.5 15.9 15.9 0 0 0 1.7-7.8c-.2-1.8-.5-3.6-.7-5.4a22.5 22.5 0 0 0 -1.9-4.5l1.3-1.3a20.6 20.6 0 0 0 5.8-9 20 20 0 0 0 2.4-10.8c-.3-2.5-.7-4.9-1-7.4a23.2 23.2 0 0 0 -1.3-3.7 18.7 18.7 0 0 0 4.5-3.6 19.9 19.9 0 0 0 5.5-8.5 21.3 21.3 0 0 0 2.3-10.3l-.9-6.2h1.9a15.9 15.9 0 0 0 7.8-1.7 15.2 15.2 0 0 0 6.5-4.2 15.3 15.3 0 0 0 4.1-6.5 16 16 0 0 0 1-2.3 22 22 0 0 0 8.8 1.8 15.6 15.6 0 0 0 8.5-1.9 16.2 16.2 0 0 0 7.2-4.6 17.5 17.5 0 0 0 4.6-7.1 17 17 0 0 0 1.9-8.6c-.3-1.9-.5-3.9-.8-5.9a23.7 23.7 0 0 0 -5.7-9.8l-4.5-3.5a22.1 22.1 0 0 0 -11.2-3 17 17 0 0 0 -8.6 2.1 17.5 17.5 0 0 0 -7.1 4.6 16.2 16.2 0 0 0 -4.6 7.2 14 14 0 0 0 -1.6 4.3 19 19 0 0 0 -6.3-1.1 15 15 0 0 0 -7.8 1.8 15.3 15.3 0 0 0 -6.5 4.1 15.2 15.2 0 0 0 -4.2 6.5 15.9 15.9 0 0 0 -1.7 7.8c0 .3.1.6.1.8a26.6 26.6 0 0 0 -7.5-1 20.2 20.2 0 0 0 -10.3 2.2 19.9 19.9 0 0 0 -8.5 5.5 19.3 19.3 0 0 0 -5.5 8.6 19.1 19.1 0 0 0 -2.3 10.2l.9 7.1c.2.7.5 1.3.7 1.9a21.6 21.6 0 0 0 -6.2 4.7 19.8 19.8 0 0 0 -5.8 9 21.5 21.5 0 0 0 -2.5 10.8c.4 2.5.7 5 1 7.5a28.7 28.7 0 0 0 7.3 12.3l2.5 2c-.2.5-.3.9-.5 1.3a15.5 15.5 0 0 0 -1.7 7.9c.2 1.8.4 3.6.7 5.4a20.6 20.6 0 0 0 5.2 8.9l4.1 3.2a19.6 19.6 0 0 0 7.7 2.6 20.7 20.7 0 0 0 -6.8 10.9 13.1 13.1 0 0 0 -1.8 6.4 15.1 15.1 0 0 0 3.3 12.3 7.6 7.6 0 0 0 .9 1.8c4.8 7.7 15.8 10.2 23.5 5.5l1.8-1.3a23.4 23.4 0 0 0 -2.6 3.4l-.3.7a15 15 0 0 0 -2.6 4.4 17.5 17.5 0 0 0 2.2 17.6 17.9 17.9 0 0 0 18.7 6.4h.2a15.1 15.1 0 0 0 5.3-2.5 7.9 7.9 0 0 0 2.7-1c3.2-1.3 5.1-3.3 7.2-6.1 2.3-3.4 2.4-7.9 1.3-11.6zm17.6 19.3a9.6 9.6 0 0 0 -2.7-6.6 9.8 9.8 0 0 0 -6.6-2.7 9.4 9.4 0 0 0 -6.6 2.7 9.2 9.2 0 0 0 0 13.2 9.5 9.5 0 0 0 6.6 2.8 9.9 9.9 0 0 0 6.6-2.8 9.6 9.6 0 0 0 2.7-6.6zm29.4-194a7.7 7.7 0 0 0 5.1.9 7.4 7.4 0 0 0 4.7-2.2l.2-.3a8 8 0 0 0 2.3-5.4 8.5 8.5 0 0 0 -2.3-5.4l-.2-.3-1.7-1.3-1.9-.8a7.2 7.2 0 0 0 -5.2.4 7.9 7.9 0 0 0 -5 7.4 8.5 8.5 0 0 0 4 7zm20-5a7.6 7.6 0 0 0 1 3.9 7 7 0 0 0 2 2.2 6.4 6.4 0 0 0 2.6 1.3 7.2 7.2 0 0 0 4.1 0h.4l2-.8 1.6-1.3a7.4 7.4 0 0 0 1.7-2.5 9.6 9.6 0 0 0 -.3 3.4c.2 1.5.3 2.9.5 4.4a16.2 16.2 0 0 0 4.3 7.2 16.7 16.7 0 0 0 11.6 4.8 12.6 12.6 0 0 0 6.3-1.4 13.1 13.1 0 0 0 5.3-3.4 12.4 12.4 0 0 0 3.4-5.3 12.2 12.2 0 0 0 1.4-6.3l-.6-4.4a16.9 16.9 0 0 0 -4.2-7.2 17.3 17.3 0 0 0 -11.6-4.8 12.8 12.8 0 0 0 -6.4 1.4 12.1 12.1 0 0 0 -5.2 3.4 11.6 11.6 0 0 0 -3.4 5.3 5.2 5.2 0 0 0 -.6 1.3 8 8 0 0 0 -11-9 7.2 7.2 0 0 0 -3.2 2.5c-1 1.3-2 3.2-1.8 4.9 0 .1.1.3.1.4z"/></svg>