<svg enable-background="new 0 0 1268 418" viewBox="0 0 1268 418" xmlns="http://www.w3.org/2000/svg"><path d="m1014.2 373.8h-763.2v-280.6l159.7-19.2 157.9-70 157.1 51 144.2-32 144.2 32.6v318.2z" fill="#a39cb9"/><path d="m1014.2 373.8h-763.2v-212.2l159.6-25.4 157.9-51 157.1 19.2 144.2-19.2 144.2 38.2v250.4z" fill="#dcdde2"/><path d="m1014.2 373.8h-763.2v-91.1l159.6-12.8 157.9-108.3 160.3 17 144.6 66 140.7-32.1z" fill="#b5aec7"/><g fill="none" stroke="#888"><path d="m244.8 5v376.9l797-.7" stroke-width="1.6068"/><path d="m253.7 382.6v8.6" stroke-width="1.7254"/><path d="m340.1 382.6v8.6" stroke-width="1.7254"/><path d="m426.3 382.6v8.6" stroke-width="1.7254"/><path d="m512.7 382.6v8.6" stroke-width="1.7254"/><path d="m599.3 382.6v8.6" stroke-width="1.7254"/><path d="m685.4 382.6v8.6" stroke-width="1.7254"/><path d="m771.8 382.6v8.6" stroke-width="1.7254"/><path d="m858.1 382.6v8.6" stroke-width="1.7254"/><path d="m944.5 382.6v8.6" stroke-width="1.7254"/><path d="m1030.9 382.6v8.6" stroke-width="1.7254"/></g><path d="m258.8 408.5c0 .8-.1 1.5-.3 2.2-.1.6-.4 1.2-.8 1.7-.3.5-.8.8-1.3 1.1l-1.8.4-1.8-.4c-.5-.2-1-.6-1.3-1.1-.4-.5-.7-1.1-.9-1.7-.2-.7-.3-1.5-.3-2.2v-3.2c0-.8.1-1.5.3-2.2.1-.6.4-1.2.8-1.7.3-.5.8-.8 1.3-1.1 1.2-.5 2.5-.5 3.7 0 .5.2 1 .6 1.3 1.1.4.5.6 1.1.8 1.7.2.7.3 1.5.3 2.2zm-7-.4 5.3-4c-.1-.7-.3-1.4-.8-2-.5-.5-1.2-.7-1.8-.7-.8-.1-1.5.3-2 .9-.5.8-.7 1.7-.7 2.6zm5.3-2.4-5.1 4c0 .7.3 1.4.8 2 .5.5 1.2.7 1.8.7.8.1 1.5-.3 2-.9.5-.8.7-1.7.7-2.6v-2.9z" fill="#b4b4b5"/><path d="m342.3 413.6h-1.7v-11.2l-3.6 1.3v-1.6l5-2h.1v13.3z" fill="#b4b4b5"/><path d="m431.3 413.6h-8.7v-1.2l4.3-4.9.9-1.2.7-.9.4-.8c.1-.3.1-.5.1-.8s0-.6-.1-.9l-.5-.8-.8-.5h-2.1l-.8.5c-.2.3-.4.6-.5.9-.1.4-.2.8-.1 1.2h-1.7c0-.5.1-1.1.3-1.6s.4-.9.8-1.3l1.3-.9 1.8-.4 1.7.3 1.3.8c.3.3.6.7.8 1.2s.3 1 .3 1.4-.1.8-.3 1.2l-.5 1.2-.8 1.2-.9 1.1-3.6 4h6.7v1.4z" fill="#b4b4b5"/><path d="m511.4 406.1h2.4l.8-.5.5-.7c.1-.3.1-.6.1-.9.2-1.2-.7-2.2-1.8-2.4-.2 0-.4 0-.6 0h-.9l-.8.5-.5.7c-.1.3-.1.6-.1.9h-1.7c0-1 .4-2 1.2-2.6l1.3-.8 1.7-.3 1.6.3 1.3.7c.3.3.6.7.8 1.2s.3 1 .3 1.6c0 .3-.1.5-.1.8l-.4.8-.7.8-.9.5 1.1.5.7.8c.2.3.3.6.4.9s.1.6.1.9c0 .6-.1 1.2-.3 1.7s-.5.9-.9 1.2l-1.3.8-1.7.3-1.7-.3-1.3-.8c-.4-.3-.7-.7-.9-1.2-.3-.5-.4-1-.4-1.6h1.7c0 .3 0 .6.1.9l.5.8.8.5h2.1l.8-.5.5-.8c.1-.3.2-.7.1-1.1 0-.4-.1-.7-.3-1.1l-.5-.8-.9-.4h-2.4v-1.3z" fill="#b4b4b5"/><path d="m602.7 409.2h1.8v1.4h-1.8v3.2h-1.7v-3.2h-6.1v-1.1l5.9-9.2h1.8zm-5.9 0h4.2v-6.6l-.3.5z" fill="#b4b4b5"/><path d="m682.9 406.9.7-6.7h6.8v1.7h-5.4l-.4 3.6.9-.4h1.3l1.7.3c.5.2.9.5 1.2.9.4.4.6.9.8 1.4.2.6.3 1.2.3 1.8s-.1 1.2-.3 1.7-.4 1-.8 1.4-.8.7-1.3.9l-1.8.4-1.6-.3-1.3-.7c-.4-.3-.7-.7-.9-1.2s-.4-1-.4-1.6h1.6c0 .6.3 1.3.8 1.7s1.1.6 1.7.5l1.1-.3.8-.7c.2-.3.4-.6.5-.9.1-.4.1-.8.1-1.2s0-.8-.1-1.2c-.1-.3-.3-.7-.5-.9l-.8-.7-1.2-.3h-1.4l-.5.3-.4.4z" fill="#b4b4b5"/><path d="m774.8 400.3v1.6h-1.7l-1.2.5-.9.7-.7.9-.4 1.1c-.1.3-.1.7-.1 1.1l.5-.5.7-.4.8-.3h.9c.6 0 1.2.1 1.7.4s.9.6 1.2 1.1c.3.4.5.9.7 1.4s.2 1 .3 1.6c0 .6-.1 1.2-.3 1.7s-.4 1-.8 1.4-.8.7-1.3.9c-.6.3-1.2.4-1.8.4l-1.3-.3-1.1-.5-.8-.9-.4-1.1c-.2-.4-.3-.8-.4-1.2s-.1-.8-.1-1.2v-.7c0-.6 0-1.2.1-1.8s.2-1.2.4-1.7c.2-.6.5-1.1.8-1.6s.7-1 1.2-1.3l1.7-.8 2.2-.3h.1zm-2.2 6.1h-.8l-.8.4-.7.7-.4.8v.5c0 .5.1 1.1.3 1.6.1.4.3.8.5 1.2l.8.7.9.3 1.1-.3.8-.7c.2-.3.4-.6.5-.9.2-.8.2-1.6 0-2.4-.1-.3-.2-.6-.4-.9l-.8-.7z" fill="#b4b4b5"/><path d="m863.5 401.3-5.5 12.4h-1.8l5.5-11.9h-7.2v-1.4h9.1z" fill="#b4b4b5"/><path d="m949.6 403.8c0 .7-.2 1.3-.5 1.8-.4.5-.9.9-1.4 1.2l.9.5.7.8.4.9c.1.3.1.7.1 1.1 0 .5-.1 1.1-.4 1.6-.2.5-.5.9-.9 1.2l-1.3.8-1.7.3-1.7-.3-1.3-.8c-.4-.3-.7-.7-.9-1.2s-.4-1-.4-1.6c0-.4 0-.7.1-1.1l.4-.9.7-.8.9-.5-.8-.5-.7-.7-.4-.8c-.1-.3-.1-.6-.1-.9 0-.5.1-1.1.3-1.6.2-.4.4-.9.8-1.2l1.2-.7 1.6-.3 1.6.3 1.3.7c.3.3.6.7.8 1.2.2.4.5.9.7 1.5zm-1.4 6.2c0-.4 0-.7-.1-1.1l-.5-.8-.8-.5h-2.1l-.8.5-.5.8c-.1.3-.2.7-.1 1.1 0 .4 0 .7.1 1.1l.5.8.8.5h2.1l.8-.5.5-.8c.1-.3.1-.6.1-.9zm-.3-6.2c0-.3 0-.6-.1-.9l-.5-.8-.7-.5h-1.8l-.7.5-.4.8c-.1.3-.1.6-.1.9s0 .6.1.9l.4.7.7.4h1.8l.7-.4.5-.7c.1-.3.1-.5.1-.8z" fill="#b4b4b5"/><path d="m1029.6 412.2h1.6l1.2-.4.8-.7.5-.9c.1-.3.2-.7.3-1.1.1-.3.1-.7.1-1.1l-.5.5-.7.4-.8.3h-.9c-1.1 0-2.2-.5-2.9-1.4-.3-.4-.5-.9-.7-1.4-.3-1.1-.3-2.3 0-3.4.2-.5.4-1 .8-1.4s.8-.8 1.3-1.1c.6-.3 1.2-.4 1.8-.4l1.4.3 1.1.7.8.9.5 1.1c.1.4.2.9.3 1.3s.1.9.1 1.3v.7c0 .5 0 1.1-.1 1.7 0 .6-.1 1.2-.3 1.7-.2.6-.4 1.1-.7 1.6s-.7 1-1.2 1.3l-1.7.9-2.4.3h-.1v-1.4h.3zm1.9-4.4h.8l.8-.4.7-.7.4-.8v-.5c0-.5-.1-1.1-.3-1.6-.1-.4-.3-.8-.5-1.2l-.8-.8-.9-.3-1.1.3-.8.7c-.2.3-.4.7-.5 1.1s-.1.8-.1 1.2 0 .8.1 1.2.2.7.4 1.1l.8.7z" fill="#b4b4b5"/><path d="m243 47.4h-8.6" fill="none" stroke="#888" stroke-width="1.7254"/><path d="m243 133.8h-8.6" fill="none" stroke="#888" stroke-width="1.7254"/><path d="m243 219.9h-8.6" fill="none" stroke="#888" stroke-width="1.7254"/><path d="m243 306.4h-8.6" fill="none" stroke="#888" stroke-width="1.7254"/><path d="m211.5 313.7h-1.7v-11.2l-3.6 1.3v-1.6l5-2h.1v13.4h.2z" fill="#b4b4b5"/><path d="m225.8 308.5c0 .8-.1 1.5-.3 2.2-.1.6-.4 1.2-.8 1.7-.3.5-.8.8-1.3 1.1l-1.8.4-1.8-.4c-.5-.2-1-.6-1.3-1.1-.4-.5-.7-1.1-.9-1.7-.2-.7-.3-1.5-.3-2.2v-3.2c0-.8.1-1.5.3-2.2.1-.6.4-1.2.8-1.7.3-.5.8-.8 1.3-1.1 1.2-.5 2.5-.5 3.7 0 .5.2 1 .6 1.3 1.1.4.5.6 1.1.8 1.7.2.7.3 1.5.3 2.2zm-7-.4 5.3-4c-.1-.7-.3-1.4-.8-2-.5-.5-1.2-.7-1.8-.7-.8-.1-1.5.3-2 .9-.5.8-.7 1.7-.7 2.6zm5.2-2.3-5.1 4c0 .7.3 1.4.8 2 .5.5 1.2.7 1.8.7.8.1 1.5-.3 2-.9.5-.8.7-1.7.7-2.6v-3h-.2z" fill="#b4b4b5"/><path d="m214.3 225.8h-8.8v-1.2l4.3-4.9.9-1.2.7-.9.4-.8c.1-.3.1-.5.1-.8s0-.6-.1-.9l-.5-.8-.8-.5h-2.1l-.8.5c-.2.3-.4.6-.5.9-.1.4-.2.8-.1 1.2h-1.7c0-.5.1-1.1.3-1.6s.4-.9.8-1.3l1.3-.9 1.8-.4 1.7.3 1.3.8c.3.3.6.7.8 1.2s.3 1 .3 1.4-.1.8-.3 1.2l-.5 1.2-.8 1.2-.9 1.1-3.6 4h6.8v1.4z" fill="#b4b4b5"/><path d="m225.8 220.7c0 .8-.1 1.5-.3 2.2-.1.6-.4 1.2-.8 1.7-.3.5-.8.8-1.3 1.1l-1.8.4-1.8-.4c-.5-.2-1-.6-1.3-1.1-.4-.5-.7-1.1-.9-1.7-.2-.7-.3-1.5-.3-2.2v-3.2c0-.8.1-1.5.3-2.2.1-.6.4-1.2.8-1.7.3-.5.8-.8 1.3-1.1l1.8-.4c.6 0 1.3.1 1.8.4.5.2 1 .6 1.3 1.1.4.5.6 1.1.8 1.7.2.7.3 1.5.3 2.2zm-7-.4 5.3-4c-.1-.7-.3-1.4-.8-2-.5-.5-1.2-.7-1.8-.7-.8-.1-1.5.3-2 .9-.5.8-.7 1.7-.7 2.6zm5.2-2.4-5.1 4c0 .7.3 1.4.8 2 .5.5 1.2.7 1.8.7.8.1 1.5-.3 2-.9.5-.8.7-1.7.7-2.6v-3h-.2z" fill="#b4b4b5"/><path d="m208.1 131.7h2.2l.8-.5.5-.8c.1-.3.1-.6.1-.9 0-.6-.2-1.3-.7-1.7s-1.1-.6-1.7-.5h-.8l-.8.5-.5.8c-.1.3-.1.6-.1.9h-1.7c0-1 .4-2 1.2-2.6l1.3-.8 1.7-.3 1.6.3 1.3.7c.3.3.6.7.8 1.2s.3 1 .3 1.6c0 .3-.1.5-.1.8l-.4.8-.7.8-.9.5 1.1.5.7.8c.2.3.3.6.4.9s.1.6.1.9c0 .6-.1 1.2-.3 1.7s-.5.9-.9 1.2l-1.3.8-1.7.3-1.7-.3-1.3-.8c-.4-.3-.7-.7-.9-1.2-.3-.5-.4-1-.4-1.6h1.8c0 .3 0 .6.1.9l.5.8.8.5h2.1l.8-.5.5-.8c.1-.3.2-.7.1-1.1 0-.4-.1-.7-.3-1.1l-.5-.8-.9-.4h-2.2v-1.3z" fill="#b4b4b5"/><path d="m225.8 134c0 .8-.1 1.5-.3 2.2-.1.6-.4 1.2-.8 1.7-.3.5-.8.8-1.3 1.1l-1.8.4-1.8-.4c-.5-.2-1-.6-1.3-1.1-.4-.5-.7-1.1-.9-1.7-.2-.7-.3-1.5-.3-2.2v-3.2c0-.8.1-1.5.3-2.2.1-.6.4-1.2.8-1.7.3-.5.8-.8 1.3-1.1l1.8-.4c.6 0 1.3.1 1.8.4.5.2 1 .6 1.3 1.1.4.5.6 1.1.8 1.7.2.7.3 1.5.3 2.2zm-7-.4 5.3-4c-.1-.7-.3-1.4-.8-2-.5-.5-1.2-.7-1.8-.7-.8-.1-1.5.3-2 .9-.5.8-.7 1.7-.7 2.6zm5.2-2.3-5.1 4c0 .7.3 1.4.8 2 .5.5 1.2.7 1.8.7.8.1 1.5-.3 2-.9.5-.8.7-1.7.7-2.6v-3h-.2z" fill="#b4b4b5"/><path d="m213 48.2h1.8v1.4h-1.8v3.2h-1.7v-3.3h-6.1v-.9l5.9-9.2h1.8v8.8zm-6 0h4.2v-6.6l-.3.5z" fill="#b4b4b5"/><path d="m225.8 47.5c0 .8-.1 1.5-.3 2.2-.1.6-.4 1.2-.8 1.7-.3.5-.8.8-1.3 1.1l-1.8.4-2-.5c-.5-.2-1-.6-1.3-1.1-.4-.5-.7-1.1-.9-1.7-.2-.7-.3-1.5-.3-2.2v-3c0-.8.1-1.5.3-2.2.1-.6.4-1.2.8-1.7.3-.5.8-.8 1.3-1.1l1.8-.4c.6 0 1.3.1 1.8.4.5.2 1 .6 1.3 1.1.4.5.6 1.1.8 1.7.2.7.3 1.5.3 2.2v3.2h.3zm-7-.4 5.3-4c-.1-.7-.3-1.4-.8-2-.5-.5-1.2-.7-1.8-.7-.8-.1-1.5.3-2 .9-.5.8-.7 1.7-.7 2.6zm5.2-2.4-5.1 4c0 .7.3 1.4.8 2 .5.5 1.2.7 1.8.7.8.1 1.5-.3 2-.9.5-.8.7-1.7.7-2.6v-3z" fill="#b4b4b5"/></svg>