<svg height="256" viewBox="0 0 256 256" width="256" xmlns="http://www.w3.org/2000/svg"><path d="m252.7 255.1h-252v-252h11.8v240.2h240.2zm-.1-17.8v-115.3l-12.3-8.3-37 25.4-34-4.1-35.9 45.2-39 20.6-35.1-28.8-41.1 14.1v51.2z"/><path d="m252.2 117.3-12.4-8.2-37 25.4-33.9-4.1-36 45.2-39 20.6-35-28.8-41.2 14 .5-25 41-9.6 34.9-23.1 40.2 15.3 37.3-72.9 31.5 31.3 37.4-6.4 11.7-15.1" opacity=".5"/><path d="m252.8 35.7-12.3-4.1-37.1 21.3-32.3-8.5-37.3 33.2-39.7-4.1-34.9 42-40.9 15.8-.1 20.9 41-9.5 34.9-23.2 38.8 13.9 38.2-72.2 32 32 37.4-6.4 11.7-15.1" opacity=".75"/></svg>