<svg xmlns="http://www.w3.org/2000/svg" width="252" height="252" viewBox="0 0 252 252"><path d="M39.6,218.7l-3.1-8.5,128.1-46.9,42.9-64,13.1-53.1L129.1,32l29.4,70L76,166.6l-5.6-7.1,77.1-60.4-33-78.5L231.7,38.8,215.8,103l-45.3,67.7-1.4.5Z" fill-opacity="0.5"/><path d="M37.4,204.8a9.8,9.8,0,1,1-9.8,9.8,9.8,9.8,0,0,1,9.8-9.8Zm35.4-51.2a9.9,9.9,0,1,1-9.8,10v-.2a9.8,9.8,0,0,1,9.8-9.8Zm94.5,3.8a9.9,9.9,0,1,1-9.8,10v-.2a9.8,9.8,0,0,1,9.8-9.8ZM151.6,90.6a9.9,9.9,0,1,1-9.8,10v-.2a9.8,9.8,0,0,1,9.8-9.8ZM120.1,15.8a9.9,9.9,0,1,1-.1,0Zm90.6,74.8a9.9,9.9,0,1,1-10.8,10.8,9.8,9.8,0,0,1,8.8-10.8Zm15.7-59.1a9.9,9.9,0,1,1-9.8,10v-.2a9.8,9.8,0,0,1,9.8-9.8ZM252,240.2H11.8V0H0V252H252Z"/></svg>