<svg enable-background="new 0 0 320.7 222" viewBox="0 0 320.7 222" xmlns="http://www.w3.org/2000/svg"><text fill="#aaa" font-family="'Roboto-Regular'" font-size="7.4915" transform="translate(171.418984 9.833971)">100</text><text fill="#aaa" font-family="'Roboto-Regular'" font-size="7.4915" transform="translate(226.776384 105.996071)">50</text><text fill="#aaa" font-family="'Roboto-Regular'" font-size="7.4915" transform="translate(282.135784 201.597671)">0</text><text fill="#aaa" font-family="'Roboto-Regular'" font-size="7.4915" transform="matrix(.5 .8660254 -.8660254 .5 157.8070187917 2.32688748116)">0</text><text fill="#aaa" font-family="'Roboto-Regular'" font-size="7.4915" transform="matrix(.5 .8660254 -.8660254 .5 99.82262953048 93.66357841674)">50</text><text fill="#aaa" font-family="'Roboto-Regular'" font-size="7.4915" transform="matrix(.5 .8660254 -.8660254 .5 41.83722949974 184.99611864818)">100</text><text fill="#aaa" font-family="'Roboto-Regular'" font-size="7.4915" transform="matrix(.5 .8660254 -.8660254 .5 33.09988596288 201.6843955767)">%</text><text fill="#aaa" font-family="'Roboto-Regular'" font-size="7.4915" transform="matrix(.5 -.8660254 .8660254 .5 271.58906308382 221.1959042706)">100</text><text fill="#aaa" font-family="'Roboto-Regular'" font-size="7.4915" transform="matrix(.5 -.8660254 .8660254 .5 161.34338828932 221.61201474388)">50</text><text fill="#aaa" font-family="'Roboto-Regular'" font-size="7.4915" transform="matrix(.5 -.8660254 .8660254 .5 53.2537528078 220.27115558732)">0</text><path d="m167.2 12.3-110.7 191.7h221.5z" fill="none" stroke="#6d6d6d" stroke-miterlimit="10"/><g fill="#606060"><circle cx="226.1" cy="175.3" opacity=".76" r="1.8"/><circle cx="218.5" cy="147.5" opacity=".76" r="1.8"/><circle cx="219.5" cy="156.3" opacity=".76" r="1.8"/><circle cx="223" cy="143.9" opacity=".76" r="1.8"/><circle cx="170.1" cy="177" opacity=".76" r="1.8"/><circle cx="189.5" cy="173.5" opacity=".76" r="1.8"/><circle cx="137.1" cy="190.9" opacity=".76" r="1.8"/><circle cx="104.5" cy="197.1" opacity=".76" r="1.8"/><circle cx="115.9" cy="187.7" opacity=".76" r="1.8"/><circle cx="170.1" cy="145.6" opacity=".76" r="1.8"/><circle cx="197.9" cy="80.4" opacity=".76" r="1.8"/><circle cx="184.6" cy="97.8" opacity=".76" r="1.8"/><circle cx="179.4" cy="152.6" opacity=".76" r="1.8"/><circle cx="147.1" cy="170.5" opacity=".76" r="1.8"/><circle cx="212.1" cy="130.6" opacity=".76" r="1.8"/><circle cx="229.8" cy="130.2" opacity=".76" r="1.8"/><circle cx="214.8" cy="138.9" opacity=".76" r="1.8"/><circle cx="170.8" cy="169.4" opacity=".76" r="1.8"/><circle cx="189" cy="162" opacity=".76" r="1.8"/><circle cx="158.2" cy="82.2" opacity=".76" r="1.8"/><circle cx="179.4" cy="124.3" opacity=".76" r="1.8"/><circle cx="196.1" cy="146.9" opacity=".76" r="1.8"/></g><circle cx="141.6" cy="115.2" fill="#9b9b9b" opacity=".76" r="1.9"/><circle cx="122" cy="132.8" fill="#9b9b9b" opacity=".76" r="1.9"/><circle cx="140.6" cy="96.1" fill="#9b9b9b" opacity=".76" r="1.9"/><circle cx="191.3" cy="86.5" fill="#9b9b9b" opacity=".76" r="1.9"/><circle cx="161.4" cy="126.1" fill="#9b9b9b" opacity=".76" r="1.9"/><circle cx="131.6" cy="196.3" fill="#9b9b9b" opacity=".76" r="1.9"/><circle cx="145.9" cy="177.6" fill="#9b9b9b" opacity=".76" r="1.9"/><circle cx="151.4" cy="118.7" fill="#9b9b9b" opacity=".76" r="1.9"/><circle cx="157.7" cy="104.9" fill="#9b9b9b" opacity=".76" r="1.9"/><circle cx="129.8" cy="110.5" fill="#9b9b9b" opacity=".76" r="1.9"/><circle cx="127.4" cy="130.2" fill="#9b9b9b" opacity=".76" r="1.9"/><circle cx="117.5" cy="159.5" fill="#9b9b9b" opacity=".76" r="1.9"/><circle cx="104" cy="146" fill="#9b9b9b" opacity=".76" r="1.9"/><circle cx="111.9" cy="151.4" fill="#9b9b9b" opacity=".76" r="1.9"/><circle cx="111.8" cy="134.5" fill="#9b9b9b" opacity=".76" r="1.9"/><circle cx="121.9" cy="151.1" fill="#9b9b9b" opacity=".76" r="1.9"/><circle cx="167.7" cy="133.6" fill="#9b9b9b" opacity=".76" r="1.9"/><circle cx="174.2" cy="194.4" fill="#9b9b9b" opacity=".76" r="1.9"/><circle cx="151.4" cy="149.1" fill="#9b9b9b" opacity=".76" r="1.9"/><circle cx="156.4" cy="128.3" fill="#9b9b9b" opacity=".76" r="1.9"/><circle cx="171.8" cy="99.3" fill="#9b9b9b" opacity=".76" r="1.9"/></svg>