<?xml version="1.0" encoding="utf-8"?>
<!-- Generator: Adobe Illustrator 24.0.1, SVG Export Plug-In . SVG Version: 6.00 Build 0)  -->
<svg version="1.1" id="Layer_1" xmlns="http://www.w3.org/2000/svg" xmlns:xlink="http://www.w3.org/1999/xlink" x="0px" y="0px"
	 viewBox="0 0 1268 418" style="enable-background:new 0 0 1268 418;" xml:space="preserve">
<style type="text/css">
	.st0{fill:#AAAAC1;}
	.st1{font-family:'Roboto-Regular';}
	.st2{font-size:13.838px;}
	.st3{fill:#F9F9F9;stroke:#A39CB9;stroke-width:2;stroke-miterlimit:10;}
	.st4{opacity:0.76;fill:#606077;enable-background:new    ;}
	.st5{opacity:0.76;fill:#9B9BB2;enable-background:new    ;}
</style>
<text transform="matrix(1 0 0 1 355.0235 23.5732)" class="st0 st1 st2">100</text>
<text transform="matrix(1 0 0 1 457.2774 201.1997)" class="st0 st1 st2">50</text>
<text transform="matrix(1 0 0 1 559.5342 377.791)" class="st0 st1 st2">0</text>
<text transform="matrix(0.5 0.866 -0.866 0.5 329.8803 9.705)" class="st0 st1 st2">0</text>
<text transform="matrix(0.5 0.866 -0.866 0.5 222.7729 178.4175)" class="st0 st1 st2">50</text>
<text transform="matrix(0.5 0.866 -0.866 0.5 115.6662 347.1241)" class="st0 st1 st2">100</text>
<text transform="matrix(0.5 0.866 -0.866 0.5 99.5268 377.9496)" class="st0 st1 st2">%</text>
<text transform="matrix(0.5 -0.866 0.866 0.5 540.0507 413.9904)" class="st0 st1 st2">100</text>
<text transform="matrix(0.5 -0.866 0.866 0.5 336.4102 414.7589)" class="st0 st1 st2">50</text>
<text transform="matrix(0.5 -0.866 0.866 0.5 136.752 412.2821)" class="st0 st1 st2">0</text>
<path class="st3" d="M347.2,28.1L142.8,382.2h409.1L347.2,28.1z"/>
<g>
	<circle class="st4" cx="456" cy="329.2" r="3.3"/>
	<circle class="st4" cx="442" cy="277.9" r="3.3"/>
	<circle class="st4" cx="443.8" cy="294.1" r="3.3"/>
	<circle class="st4" cx="450.3" cy="271.2" r="3.3"/>
	<circle class="st4" cx="352.6" cy="332.4" r="3.3"/>
	<circle class="st4" cx="388.4" cy="325.9" r="3.3"/>
	<circle class="st4" cx="291.6" cy="358" r="3.3"/>
	<circle class="st4" cx="231.4" cy="369.5" r="3.3"/>
	<circle class="st4" cx="252.5" cy="352.1" r="3.3"/>
	<circle class="st4" cx="352.6" cy="274.4" r="3.3"/>
	<circle class="st4" cx="403.9" cy="153.9" r="3.3"/>
	<circle class="st4" cx="379.4" cy="186.1" r="3.3"/>
	<circle class="st4" cx="369.8" cy="287.3" r="3.3"/>
	<circle class="st4" cx="310.1" cy="320.3" r="3.3"/>
	<circle class="st4" cx="430.2" cy="246.6" r="3.3"/>
	<circle class="st4" cx="462.9" cy="245.9" r="3.3"/>
	<circle class="st4" cx="435.2" cy="262" r="3.3"/>
	<circle class="st4" cx="353.9" cy="318.3" r="3.3"/>
	<circle class="st4" cx="387.5" cy="304.6" r="3.3"/>
	<circle class="st4" cx="330.6" cy="157.2" r="3.3"/>
	<circle class="st4" cx="369.8" cy="235" r="3.3"/>
	<circle class="st4" cx="400.6" cy="276.8" r="3.3"/>
</g>
<circle class="st5" cx="299.9" cy="218.2" r="3.5"/>
<circle class="st5" cx="263.7" cy="250.7" r="3.5"/>
<circle class="st5" cx="298.1" cy="182.9" r="3.5"/>
<circle class="st5" cx="391.7" cy="165.2" r="3.5"/>
<circle class="st5" cx="336.5" cy="238.3" r="3.5"/>
<circle class="st5" cx="281.5" cy="368" r="3.5"/>
<circle class="st5" cx="307.9" cy="333.5" r="3.5"/>
<circle class="st5" cx="318" cy="224.7" r="3.5"/>
<circle class="st5" cx="329.7" cy="199.2" r="3.5"/>
<ellipse transform="matrix(0.1602 -0.9871 0.9871 0.1602 26.7791 450.5124)" class="st5" cx="278.1" cy="209.5" rx="3.5" ry="3.5"/>
<circle class="st5" cx="273.7" cy="245.9" r="3.5"/>
<circle class="st5" cx="255.4" cy="300" r="3.5"/>
<circle class="st5" cx="230.5" cy="275.1" r="3.5"/>
<circle class="st5" cx="245.1" cy="285.1" r="3.5"/>
<circle class="st5" cx="244.9" cy="253.9" r="3.5"/>
<circle class="st5" cx="263.6" cy="284.5" r="3.5"/>
<circle class="st5" cx="348.2" cy="252.2" r="3.5"/>
<circle class="st5" cx="360.2" cy="364.5" r="3.5"/>
<circle class="st5" cx="318" cy="280.8" r="3.5"/>
<circle class="st5" cx="327.3" cy="242.4" r="3.5"/>
<circle class="st5" cx="355.7" cy="188.8" r="3.5"/>
<text transform="matrix(1 0 0 1 985.3943 23.5732)" class="st0 st1 st2">100</text>
<text transform="matrix(1 0 0 1 1087.6482 201.1997)" class="st0 st1 st2">50</text>
<text transform="matrix(1 0 0 1 1189.905 377.791)" class="st0 st1 st2">0</text>
<text transform="matrix(0.5 0.866 -0.866 0.5 960.2512 9.705)" class="st0 st1 st2">0</text>
<text transform="matrix(0.5 0.866 -0.866 0.5 853.1437 178.4175)" class="st0 st1 st2">50</text>
<text transform="matrix(0.5 0.866 -0.866 0.5 746.0371 347.1241)" class="st0 st1 st2">100</text>
<text transform="matrix(0.5 0.866 -0.866 0.5 729.8977 377.9496)" class="st0 st1 st2">%</text>
<text transform="matrix(0.5 -0.866 0.866 0.5 1170.4216 413.9904)" class="st0 st1 st2">100</text>
<text transform="matrix(0.5 -0.866 0.866 0.5 966.781 414.7589)" class="st0 st1 st2">50</text>
<text transform="matrix(0.5 -0.866 0.866 0.5 767.1229 412.2821)" class="st0 st1 st2">0</text>
<path class="st3" d="M977.6,28.1L773.1,382.2h409.1L977.6,28.1z"/>
<g>
	<circle class="st4" cx="1086.4" cy="329.2" r="3.3"/>
	<circle class="st4" cx="1072.4" cy="277.9" r="3.3"/>
	<circle class="st4" cx="1074.2" cy="294.1" r="3.3"/>
	<circle class="st4" cx="1080.7" cy="271.2" r="3.3"/>
	<circle class="st4" cx="983" cy="332.4" r="3.3"/>
	<circle class="st4" cx="1018.8" cy="325.9" r="3.3"/>
	<circle class="st4" cx="922" cy="358" r="3.3"/>
	<circle class="st4" cx="861.8" cy="369.5" r="3.3"/>
	<circle class="st4" cx="882.8" cy="352.1" r="3.3"/>
	<circle class="st4" cx="983" cy="274.4" r="3.3"/>
	<circle class="st4" cx="1034.3" cy="153.9" r="3.3"/>
	<circle class="st4" cx="1009.7" cy="186.1" r="3.3"/>
	<circle class="st4" cx="1000.1" cy="287.3" r="3.3"/>
	<circle class="st4" cx="940.5" cy="320.3" r="3.3"/>
	<circle class="st4" cx="1060.5" cy="246.6" r="3.3"/>
	<circle class="st4" cx="1093.2" cy="245.9" r="3.3"/>
	<circle class="st4" cx="1065.5" cy="262" r="3.3"/>
	<circle class="st4" cx="984.3" cy="318.3" r="3.3"/>
	<circle class="st4" cx="1017.9" cy="304.6" r="3.3"/>
	<circle class="st4" cx="961" cy="157.2" r="3.3"/>
	<circle class="st4" cx="1000.1" cy="235" r="3.3"/>
	<circle class="st4" cx="1031" cy="276.8" r="3.3"/>
</g>
<circle class="st5" cx="930.3" cy="218.2" r="3.5"/>
<circle class="st5" cx="894.1" cy="250.7" r="3.5"/>
<circle class="st5" cx="928.5" cy="182.9" r="3.5"/>
<circle class="st5" cx="1022.1" cy="165.2" r="3.5"/>
<circle class="st5" cx="966.9" cy="238.3" r="3.5"/>
<circle class="st5" cx="911.8" cy="368" r="3.5"/>
<circle class="st5" cx="938.3" cy="333.5" r="3.5"/>
<circle class="st5" cx="948.4" cy="224.7" r="3.5"/>
<circle class="st5" cx="960.1" cy="199.2" r="3.5"/>
<ellipse transform="matrix(0.1602 -0.9871 0.9871 0.1602 556.1756 1072.7435)" class="st5" cx="908.5" cy="209.5" rx="3.5" ry="3.5"/>
<circle class="st5" cx="904.1" cy="245.9" r="3.5"/>
<circle class="st5" cx="885.8" cy="300" r="3.5"/>
<circle class="st5" cx="860.9" cy="275.1" r="3.5"/>
<circle class="st5" cx="875.5" cy="285.1" r="3.5"/>
<circle class="st5" cx="875.3" cy="253.9" r="3.5"/>
<circle class="st5" cx="893.9" cy="284.5" r="3.5"/>
<circle class="st5" cx="978.5" cy="252.2" r="3.5"/>
<circle class="st5" cx="990.5" cy="364.5" r="3.5"/>
<circle class="st5" cx="948.4" cy="280.8" r="3.5"/>
<circle class="st5" cx="957.7" cy="242.4" r="3.5"/>
<circle class="st5" cx="986.1" cy="188.8" r="3.5"/>
</svg>
