<svg height="594.4" width="650" xmlns="http://www.w3.org/2000/svg"><g fill="none" stroke="#474646" stroke-miterlimit="10" stroke-width=".95"><path d="m331.3 205.7c10.3-48.7-20.1-38.2-19.9-83.5"/><path d="m331.3 205.7c10.3-48.7-1.6-36.9 4.7-81.7"/><path d="m331.3 205.7c10.3-48.7 16.5-33 28.9-76.6"/><path d="m330.4 210 .9-4.3c10.3-48.7 34-26.7 52.2-68.2"/><path d="m392.2 246.1c40.8-28.5 4.6-47.7 33.3-82.7"/><path d="m392.2 246.1c40.8-28.5 18.1-35 51.3-65.8"/><path d="m392.2 246.1 66.8-46.5"/><path d="m392.2 246.1c40.8-28.5 39.3-4.7 79.6-25.3"/><path d="m392.2 246.1c40.8-28.5 46.6 12.3 89.3-2.6"/><path d="m410.2 303.7c49.8.2 36-9 81.2-11.9"/><path d="m410.2 303.7c49.8.2 35.9 9.6 81 12.9"/><path d="m398.8 349.4c44.1 23.2 39.6 0 82.2 15.4"/><path d="m398.8 349.4c44.1 23.2 32.1 17 72.2 38"/><path d="m398.8 349.4c44.1 23.2 22.4 32.8 59.3 59.1"/><path d="m367.6 384.9c28.6 40.8 28.2 24.3 56.6 59.5"/><path d="m367.6 384.9c28.6 40.8 13 34.9 36.4 73.7"/><path d="m323.6 402c6.6 49.4 23 32.4 35 76"/><path d="m323.6 402 10.8 81"/><path d="m320.9 381.6 2.7 20.4c6.6 49.4-13.7 37.2-13.9 82.5"/><path d="m264.3 391.5c-23.1 44.1 9 42.5-3.4 86.1"/><path d="m264.3 391.5c-23.1 44.1-8.5 36.2-26.7 77.7"/><path d="m264.3 391.5c-23.1 44.1-24.9 27.6-48.6 66.2"/><path d="m264.3 391.5c-23.1 44.1-40 16.9-68.7 51.9"/><path d="m221.8 348.6c-44.3 22.7-22.6 32.6-59.7 58.6"/><path d="m221.8 348.6c-44.3 22.7-32.2 16.7-72.5 37.4"/><path d="m232.1 343.3-10.3 5.3c-44.3 22.7-39.5-.3-82.2 14.6"/><path d="m210.9 302.7c-49.8-.2-35.9 9.3-81.1 12.2"/><path d="m217.8 302.6h-6.9c-49.8-.2-35.9-9.2-81-12.5"/><path d="m225.6 251c-42.4-26.1-42.9 6.3-85.5-9.1"/><path d="m225.6 251c-42.4-26.1-35.4-10.7-75.5-31.7"/><path d="m225.6 251c-42.4-26.1-25.7-26.5-62.6-52.8"/><path d="m234.2 256.5-8.6-5.5c-42.4-26.1-13.9-40.8-46.9-71.9"/><path d="m271.3 211.6c-19.7-45.8-30.8-24.7-54.2-63.5"/><path d="m271.3 211.6-32.2-74.7"/><path d="m276.2 223.4-4.9-11.8c-19.7-45.8 3.2-39.2-8.8-82.9"/></g><circle cx="310.6" cy="303.4" fill="#474646" r="4.8"/><text fill="#727070" font-family="ArialMT, Arial" font-size="11.44" transform="matrix(.20791169 -.9781476 .9781476 .20791169 326.9 244.1)">Apollo</text><circle cx="321.9" cy="250.9" fill="#191919" r="2.9"/><circle cx="311.4" cy="122.2" fill="#474646" r="4.8"/><text fill="#7f7f7f" font-family="ArialMT, Arial" font-size="11.44" transform="matrix(.00523596 -.99998629 .99998629 .00523596 315 114.6)">Hobo Spider</text><circle cx="336" cy="124" fill="#474646" r="4.8"/><text fill="#7f7f7f" font-family="ArialMT, Arial" font-size="11.44" transform="matrix(.14 -.99 .99 .14 340.63 116.94)">Giant House Spider</text><circle cx="360.2" cy="129.1" fill="#474646" r="4.8"/><text fill="#7f7f7f" font-family="ArialMT, Arial" font-size="11.44" transform="matrix(.27395922 -.96174131 .96174131 .27395922 365.7 122.8)">Domestic House Spider</text><circle cx="383.5" cy="137.5" fill="#474646" r="4.8"/><text fill="#7f7f7f" font-family="ArialMT, Arial" font-size="11.44" transform="matrix(.40194778 -.91566259 .91566259 .40194778 389.8 132)">Dust Spider</text><text fill="#727070" font-family="ArialMT, Arial" font-size="11.44" transform="matrix(.82 -.57 .57 .82 361.23 272.08)">Artemis</text><circle cx="355.2" cy="272.9" fill="#191919" r="2.9"/><circle cx="425.5" cy="163.4" fill="#474646" r="4.8"/><text fill="#7f7f7f" font-family="ArialMT, Arial" font-size="11.44" transform="matrix(.63473051 -.77273357 .77273357 .63473051 433.1 159.7)">Giant Orb <tspan letter-spacing="-.02em" x="52.8" y="0">W</tspan><tspan x="63.4" y="0">eaver</tspan></text><circle cx="443.5" cy="180.3" fill="#474646" r="4.8"/><text fill="#7f7f7f" font-family="ArialMT, Arial" font-size="11.44" transform="matrix(.73372986 -.6794413 .6794413 .73372986 451.5 177.7)">Cross Orb <tspan letter-spacing="-.02em" x="55.3" y="0">W</tspan><tspan letter-spacing="0em" x="65.9" y="0">eaver</tspan></text><circle cx="459" cy="199.6" fill="#474646" r="4.8"/><text fill="#7f7f7f" font-family="ArialMT, Arial" font-size="11.44" transform="matrix(.82 -.57 .57 .82 467.33 198.1)">Banded Garden Spider</text><circle cx="471.8" cy="220.8" fill="#474646" r="4.8"/><text fill="#7f7f7f" font-family="ArialMT, Arial" font-size="11.44" transform="matrix(.89 -.46 .46 .89 480.2 220.43)">Golden Orb <tspan letter-spacing="-.02em" x="62.3" y="0">W</tspan><tspan x="72.9" y="0">eaver Spider</tspan></text><circle cx="481.5" cy="243.5" fill="#474646" r="4.8"/><text fill="#7f7f7f" font-family="ArialMT, Arial" font-size="11.44" transform="matrix(.94380095 -.33051439 .33051439 .94380095 489.9 244.3)">Long-Jawed Orb <tspan letter-spacing="-.02em" x="87.8" y="0">W</tspan><tspan x="98.4" y="0">eaver Spider</tspan></text><text fill="#727070" font-family="ArialMT, Arial" font-size="11.44" transform="matrix(.99998629 .00523596 -.00523596 .99998629 368.4 306.2)">Hermes</text><circle cx="365" cy="304.3" fill="#191919" r="2.9"/><circle cx="491.4" cy="291.8" fill="#474646" r="4.8"/><text fill="#7f7f7f" font-family="ArialMT, Arial" font-size="11.44" transform="matrix(1 -.06 .06 1 499.19 294.88)">Brazilian <tspan letter-spacing="-.04em" x="47.1" y="0">W</tspan><tspan x="57.4" y="0">andering Spider</tspan></text><circle cx="491.2" cy="316.6" fill="#474646" r="4.8"/><text fill="#7f7f7f" font-family="ArialMT, Arial" font-size="11.44" transform="matrix(.99731448 .0732382 -.0732382 .99731448 498.6 320.6)">Fishing Spider</text><text fill="#727070" font-family="ArialMT, Arial" font-size="11.44" transform="matrix(.88539363 .46484205 -.46484205 .88539363 364.3 334.3)">Athena</text><circle cx="358.8" cy="329.3" fill="#191919" r="2.9"/><circle cx="481" cy="364.8" fill="#474646" r="4.8"/><text fill="#7f7f7f" font-family="ArialMT, Arial" font-size="11.44" transform="matrix(.94088077 .33873792 -.33873792 .94088077 486.9 370.7)">Black House Spider</text><circle cx="471" cy="387.4" fill="#474646" r="4.8"/><text fill="#7f7f7f" font-family="ArialMT, Arial" font-size="11.44" transform="matrix(.88539363 .46484205 -.46484205 .88539363 476.1 394.1)">Brown House Spider</text><circle cx="458.1" cy="408.5" fill="#474646" r="4.8"/><text fill="#7f7f7f" font-family="ArialMT, Arial" font-size="11.44" transform="matrix(.81411552 .58070296 -.58070296 .81411552 462.2 415.8)">Hollow<tspan letter-spacing="-.02em" x="34.3" y="0"></tspan><tspan letter-spacing="-.06em" x="37.3" y="0">T</tspan><tspan x="43.7" y="0">wig Spider</tspan></text><text fill="#727070" font-family="ArialMT, Arial" font-size="11.44" transform="matrix(.57 .82 -.82 .57 341.94 352.77)">Hypnos</text><circle cx="341.8" cy="348.6" fill="#191919" r="2.9"/><circle cx="424.2" cy="444.4" fill="#474646" r="4.8"/><text fill="#7f7f7f" font-family="ArialMT, Arial" font-size="11.44" transform="matrix(.63 .78 -.78 .63 426.26 452.58)">Southern House Spider</text><circle cx="404" cy="458.6" fill="#474646" r="4.8"/><text fill="#7f7f7f" font-family="ArialMT, Arial" font-size="11.44" transform="matrix(.51503807 .8571673 -.8571673 .51503807 404.9 466.9)">Arizona Black</text><text fill="#727070" font-family="ArialMT, Arial" font-size="11.44" transform="matrix(-.13225639 -.99121554 .99121554 -.13225639 324 377.9)">Iris</text><circle cx="317.8" cy="357.9" fill="#191919" r="2.9"/><circle cx="358.6" cy="478" fill="#474646" r="4.8"/><text fill="#7f7f7f" font-family="ArialMT, Arial" font-size="11.44" transform="matrix(.26555612 .9640954 -.9640954 .26555612 357.2 486.3)">Carolina <tspan letter-spacing="-.02em" x="45.8" y="0">W</tspan><tspan x="56.4" y="0">olf Spider</tspan></text><circle cx="334.4" cy="483" fill="#474646" r="4.8"/><text fill="#7f7f7f" font-family="ArialMT, Arial" font-size="11.44" transform="matrix(-.13225639 -.99121554 .99121554 -.13225639 351.4 583.8)">Brown <tspan letter-spacing="-.02em" x="35.6" y="0">W</tspan><tspan letter-spacing="0em" x="46.2" y="0">olf Spider</tspan></text><circle cx="309.7" cy="484.5" fill="#474646" r="4.8"/><text fill="#7f7f7f" font-family="ArialMT, Arial" font-size="11.44" transform="matrix(.00523596 -.99998629 .99998629 .00523596 312.8 584.2)"><tspan letter-spacing="-.11em">T</tspan><tspan letter-spacing="0em" x="5.7" y="0">exas</tspan><tspan letter-spacing="-.02em" x="33.1" y="0">W</tspan><tspan x="43.7" y="0">olf Spider</tspan></text><text fill="#727070" font-family="ArialMT, Arial" font-size="11.44" transform="matrix(.46484205 -.88539363 .88539363 .46484205 271.5 386.3)">Janus</text><circle cx="285.4" cy="352.2" fill="#191919" r="2.9"/><circle cx="260.9" cy="477.6" fill="#474646" r="4.8"/><text fill="#7f7f7f" font-family="ArialMT, Arial" font-size="11.44" transform="matrix(.27395922 -.96174131 .96174131 .27395922 244.1 549.5)">Cellar Spider</text><circle cx="237.6" cy="469.2" fill="#474646" r="4.8"/><text fill="#7f7f7f" font-family="ArialMT, Arial" font-size="11.44" letter-spacing="-.09em" transform="matrix(.40194778 -.91566259 .91566259 .40194778 200.8 561.6)">Y<tspan letter-spacing="0em" x="6.6" y="0">ellow Sac Spider</tspan></text><circle cx="215.7" cy="457.7" fill="#474646" r="4.8"/><text fill="#7f7f7f" font-family="ArialMT, Arial" font-size="11.44" transform="matrix(.52398591 -.85172693 .85172693 .52398591 175.8 529.5)">Ground Spider</text><circle cx="195.6" cy="443.4" fill="#474646" r="4.8"/><text fill="#7f7f7f" font-family="ArialMT, Arial" font-size="11.44" transform="matrix(.63473051 -.77273357 .77273357 .63473051 119.2 542)">Banded Garden Spider</text><text fill="#727070" font-family="ArialMT, Arial" font-size="11.44" transform="matrix(.8902128 -.45554491 .45554491 .8902128 234.9 345.7)">Nike</text><circle cx="262.3" cy="328.8" fill="#191919" r="2.9"/><circle cx="162.1" cy="407.2" fill="#474646" r="4.8"/><text fill="#7f7f7f" font-family="ArialMT, Arial" font-size="11.44" transform="matrix(.82 -.57 .57 .82 71.31 474.92)">Bold Jumping Spider</text><circle cx="149.3" cy="386" fill="#474646" r="4.8"/><text fill="#7f7f7f" font-family="ArialMT, Arial" font-size="11.44" transform="matrix(.8902128 -.45554491 .45554491 .8902128 44 443.9)">Zebra Jumping Spider</text><circle cx="139.6" cy="363.2" fill="#474646" r="4.8"/><text fill="#7f7f7f" font-family="ArialMT, Arial" font-size="11.44" transform="matrix(.94380095 -.33051439 .33051439 .94380095 8.5 412.9)">Gray <tspan letter-spacing="-.04em" x="28" y="0">W</tspan><tspan letter-spacing="0em" x="38.3" y="0">all Jumping Spider</tspan></text><text fill="#727070" font-family="ArialMT, Arial" font-size="11.44" transform="matrix(.99998629 .00523596 -.00523596 .99998629 222.4 306.3)">Zeus</text><circle cx="256.3" cy="303.8" fill="#191919" r="2.9"/><circle cx="129.8" cy="314.9" fill="#474646" r="4.8"/><text fill="#7f7f7f" font-family="ArialMT, Arial" font-size="11.44" transform="matrix(1 -.06 .06 1 53.82 323.29)">Brown Spider</text><circle cx="129.9" cy="290.2" fill="#474646" r="4.8"/><text fill="#7f7f7f" font-family="ArialMT, Arial" font-size="11.44" transform="matrix(1 .07 -.07 1 9.1 284.9)">Brown Recluse Spider</text><text fill="#727070" font-family="ArialMT, Arial" font-size="11.44" transform="matrix(.85172693 .52398591 -.52398591 .85172693 234.6 259.6)">Hera</text><circle cx="264.3" cy="275.6" fill="#191919" r="2.9"/><circle cx="140.1" cy="241.9" fill="#474646" r="4.8"/><text fill="#7f7f7f" font-family="ArialMT, Arial" font-size="11.44" transform="matrix(.94088077 .33873792 -.33873792 .94088077 36 208.1)">King Baboon Spider</text><circle cx="150.1" cy="219.3" fill="#474646" r="4.8"/><text fill="#7f7f7f" font-family="ArialMT, Arial" font-size="11.44" transform="matrix(.88539363 .46484205 -.46484205 .88539363 60 176.1)">Bird Eating Spider</text><circle cx="163" cy="198.2" fill="#474646" r="4.8"/><text fill="#7f7f7f" font-family="ArialMT, Arial" font-size="11.44" transform="matrix(.81411552 .58070296 -.58070296 .81411552 53.4 124.4)">Pinktoe<tspan letter-spacing="-.02em" x="38.2" y="0"></tspan><tspan letter-spacing="-.11em" x="41.1" y="0">T</tspan><tspan x="46.9" y="0">arantula Spider</tspan></text><circle cx="178.7" cy="179.1" fill="#474646" r="4.8"/><text fill="#7f7f7f" font-family="ArialMT, Arial" font-size="11.44" transform="matrix(.72777276 .68581835 -.68581835 .72777276 81.2 89.7)">Ornamental<tspan letter-spacing="-.02em" x="59.8" y="0"></tspan><tspan letter-spacing="-.04em" x="62.8" y="0">T</tspan><tspan x="69.3" y="0">ree Spider</tspan></text><text fill="#727070" font-family="ArialMT, Arial" font-size="11.44" transform="matrix(.39394191 .91913534 -.91913534 .39394191 274 226.9)">Ares</text><circle cx="289.2" cy="254.1" fill="#191919" r="2.9"/><circle cx="217.1" cy="148.1" fill="#474646" r="4.8"/><text fill="#7f7f7f" font-family="ArialMT, Arial" font-size="11.44" transform="matrix(.51503807 .8571673 -.8571673 .51503807 157.7 56.3)">Black Widow Spider</text><circle cx="239.1" cy="136.9" fill="#474646" r="4.8"/><text fill="#7f7f7f" font-family="ArialMT, Arial" font-size="11.44" transform="matrix(.39394191 .91913534 -.91913534 .39394191 191 33.6)">Brown Widow Spider</text><circle cx="262.5" cy="128.7" fill="#474646" r="4.8"/><text fill="#7f7f7f" font-family="ArialMT, Arial" font-size="11.44" transform="matrix(.27 .96 -.96 .27 231.89 30.91)">Red Widow Spider</text><path d="m310.6 303.4c10.8-22.3 2.3-23.8 11.7-52.6" fill="none" stroke="#474646" stroke-miterlimit="10" stroke-width=".95"/><path d="m310.6 303.4c23-8.9 17.9-15.8 44.4-30.4" fill="none" stroke="#474646" stroke-miterlimit="10" stroke-width=".95"/><path d="m310.6 303.4c23.9 6.1 23.7-2.5 53.8.9" fill="none" stroke="#474646" stroke-miterlimit="10" stroke-width=".95"/><path d="m310.6 303.4c18.5 16.4 22.2 8.7 47.4 25.4" fill="none" stroke="#474646" stroke-miterlimit="10" stroke-width=".95"/><path d="m310.6 303.4c8.9 23 15.8 17.9 30.6 44.3" fill="none" stroke="#474646" stroke-miterlimit="10" stroke-width=".95"/><path d="m310.6 303.4c-2.5 24.6 5.9 23.1 7 53.3" fill="none" stroke="#474646" stroke-miterlimit="10" stroke-width=".95"/><path d="m310.6 303.4c-16.1 18.7-8.4 22.4-24.7 47.8" fill="none" stroke="#474646" stroke-miterlimit="10" stroke-width=".95"/><path d="m310.6 303.4c-24 6.1-19.7 13.6-47.7 25.1" fill="none" stroke="#474646" stroke-miterlimit="10" stroke-width=".95"/><path d="m310.6 303.4c-24.2-5.6-23.8 3-53.9.4" fill="none" stroke="#474646" stroke-miterlimit="10" stroke-width=".95"/><path d="m310.6 303.4c-17.7-17.3-21.9-9.8-46.2-27.8" fill="none" stroke="#474646" stroke-miterlimit="10" stroke-width=".95"/><path d="m310.6 303.4c-4.4-24.4-12.1-20.7-21.4-49.5" fill="none" stroke="#474646" stroke-miterlimit="10" stroke-width=".95"/></svg>
