<svg enable-background="new 0 0 1268 418" viewBox="0 0 1268 418" xmlns="http://www.w3.org/2000/svg" xmlns:xlink="http://www.w3.org/1999/xlink"><clipPath id="a"><path d="m331.1 23.3-206.4 357.4h412.9z"/></clipPath><clipPath id="b"><path d="m1010.1 23.3-206.4 357.4h412.9z"/></clipPath><g fill="#d1d1e8"><path d="m552 380.7h-426.9c-.2 0-.4-.2-.4-.4s.2-.4.4-.4h426.9c.2 0 .4.2.4.4s-.2.4-.4.4z"/><path d="m531.3 344.9h-385.5c-.2 0-.4-.2-.4-.4s.2-.4.4-.4h385.5c.2 0 .4.2.4.4 0 .4-.2.4-.4.4z"/><path d="m510.8 309.3h-344.3c-.2 0-.4-.2-.4-.4s.2-.4.4-.4h344.3c.2 0 .4.2.4.4s-.2.4-.4.4z"/><path d="m490.1 273.5h-302.9c-.2 0-.4-.2-.4-.4s.2-.4.4-.4h302.9c.2 0 .4.2.4.4s-.2.4-.4.4z"/><path d="m469.4 237.7h-261.7c-.2 0-.4-.2-.4-.4s.2-.4.4-.4h261.7c.2 0 .4.2.4.4s-.2.4-.4.4z"/><path d="m428.2 166.3h-179.1c-.2 0-.4-.2-.4-.4s.2-.4.4-.4h179.1c.2 0 .4.2.4.4s0 .4-.4.4z"/><path d="m449.1 201.9h-220.7c-.2 0-.4-.2-.4-.4s.2-.4.4-.4h220.9c.2 0 .4.2.4.4s-.2.4-.6.4z"/><path d="m407.7 130.5h-138.1c-.2 0-.4-.2-.4-.4s.2-.4.4-.4h138.1c.2 0 .4.2.4.4s-.2.4-.4.4z"/><path d="m387 94.7h-96.7c-.2 0-.4-.2-.4-.4s.2-.4.4-.4h96.7c.2 0 .4.2.4.4s-.2.4-.4.4z"/><path d="m366.7 58.9h-55.9c-.2 0-.4-.2-.4-.4s.2-.4.4-.4h55.9c.2 0 .4.2.4.4.2.2 0 .4-.4.4z"/><path d="m345.8 23.3h-14.2c-.2 0-.4-.2-.4-.4s.2-.4.4-.4h14.2c.2 0 .4.2.4.4s-.2.4-.4.4z"/><path d="m121.4 388.5c-.4-.2-.4-.4-.4-.6l210.3-365.3c.2-.2.4-.2.6-.2.2.2.2.4.2.6l-210.1 365.3c-.2.2-.4.2-.6.2z"/><path d="m162.8 388.5c-.4-.2-.4-.4-.4-.6l189.4-329.5c.2-.2.4-.2.6-.2.2.2.2.4.2.6l-189.5 329.5c-.1 0-.1.2-.3.2z"/><path d="m204 388.5c-.4-.2-.4-.4-.4-.6l168.9-293.7c.2-.2.4-.2.6-.2.2.2.2.4.2.6l-169 293.7c0 .2-.1.2-.3.2z"/><path d="m245.4 388.5c-.4-.2-.4-.4-.4-.6l148.2-258c.2-.2.4-.2.6-.2.2.2.2.4.2.6l-148.2 258c-.3 0-.3.2-.4.2z"/><path d="m286.6 388.5h-.2c-.2-.2-.2-.4-.2-.6l127.5-222.4c.2-.2.4-.2.6-.2.2.2.2.4.2.6l-127.6 222.4c0 .2-.2.2-.3.2z"/><path d="m369.1 388.7h-.2c-.2-.2-.2-.4-.2-.6l86.3-151c.2-.2.4-.2.6-.2.2.2.2.4.2.6l-86.3 151c-.2 0-.4.2-.4.2z"/><path d="m327.7 388.9h-.2c-.2-.2-.2-.4-.2-.6l107.2-186.8c.2-.2.4-.2.6-.2.2.2.2.4.2.6l-107.2 186.8c-.2.2-.4.2-.4.2z"/><path d="m410.3 388.7h-.2c-.2-.2-.2-.4-.2-.6l65.8-115.2c.2-.2.4-.2.6-.2.2.2.2.4.2.6l-65.8 115.2c-.2.2-.2.2-.4.2z"/><path d="m451.7 388.7h-.2c-.2-.2-.2-.4-.2-.6l45.1-79.4c.2-.2.4-.2.6-.2.2.2.2.4.2.6l-45.1 79.4c-.2 0-.4.2-.4.2z"/><path d="m492.7 389.1h-.2c-.2-.2-.2-.4-.2-.6l24.6-44c.2-.2.4-.2.6-.2.2.2.2.4.2.6l-24.6 44c-.2 0-.2.2-.4.2z"/><path d="m534.1 388.7c-.4-.2-.4-.4-.4-.6l3.7-8c0-.2.4-.2.6-.2s.2.4.2.6l-3.7 8s-.2.2-.4.2z"/></g><path d="m538 380.7c-.2 0-.2 0-.4-.2l-213.4-369.7c-.2-.2 0-.4.2-.6s.4 0 .6.2l213.3 369.6c.1.3-.1.5-.3.7z" fill="#d8d8ef"/><path d="m496.6 380.7c-.2 0-.2 0-.4-.2l-192.5-333.9c-.2-.2 0-.4.2-.6s.4 0 .6.2l192.7 333.9c.2.2 0 .4-.2.6-.2 0-.2 0-.4 0z" fill="#d8d8ef"/><path d="m455.4 380.7c-.2 0-.2 0-.4-.2l-172-298.1c-.2-.2 0-.4.2-.6s.4 0 .6.2l172.1 298.3c.1.2-.1.4-.5.4z" fill="#d8d8ef"/><path d="m414.1 380.7c-.2 0-.2 0-.4-.2l-151.4-262.3c-.2-.2 0-.4.2-.6s.4 0 .6.2l151.6 262.5c.2.2 0 .4-.2.6-.3-.2-.3-.2-.4-.2z" fill="#d8d8ef"/><path d="m372.9 380.7c-.2 0-.2 0-.4-.2l-130.9-226.7c-.2-.2 0-.4.2-.6s.4 0 .6.2l130.9 226.7c.1.2-.1.4-.4.6z" fill="#d8d8ef"/><path d="m290.3 380.7c-.2 0-.2 0-.4-.2l-89.7-155.3c-.2-.2 0-.4.2-.6s.4 0 .6.2l89.7 155.3c.2.2 0 .4-.2.6z" fill="#d8d8ef"/><path d="m331.7 380.7c-.2 0-.2 0-.4-.2l-110.6-191.3c-.2-.2 0-.4.2-.6s.4 0 .6.2l110.4 191.3c.1.2-.1.4-.2.6z" fill="#d8d8ef"/><path d="m249.1 380.7c-.2 0-.2 0-.4-.2l-69-119.7c-.2-.2 0-.4.2-.6s.4 0 .6.2l69 119.7c.2.2 0 .4-.2.6-.2 0-.2 0-.2 0z" fill="#d8d8ef"/><path d="m207.7 380.7c-.2 0-.2 0-.4-.2l-48.3-83.9c-.2-.2 0-.4.2-.6s.4 0 .6.2l48.3 83.9c.2.2 0 .4-.4.6.2 0 .2 0 0 0z" fill="#d8d8ef"/><path d="m166.5 380.7c-.2 0-.2 0-.4-.2l-28-48.5c-.2-.2 0-.4.2-.6s.4 0 .6.2l28 48.5c.2.2 0 .4-.4.6z" fill="#d8d8ef"/><path d="m125.1 380.7c-.2 0-.2 0-.4-.2l-7.1-12.3c-.2-.2 0-.4.2-.6s.4 0 .6.2l7.1 12.3c.2.2 0 .4-.4.6.2 0 .2 0 0 0z" fill="#d8d8ef"/><text fill="#aaaac1" font-family="'Roboto-Regular'" font-size="13.9648" transform="translate(338.815984 18.684471)">100</text><text fill="#aaaac1" font-family="'Roboto-Regular'" font-size="13.9648" transform="translate(442.006384 197.939371)">50</text><text fill="#aaaac1" font-family="'Roboto-Regular'" font-size="13.9648" transform="translate(545.201684 376.148771)">0</text><text fill="#aaaac1" font-family="'Roboto-Regular'" font-size="13.9648" transform="matrix(.5 .8660254 -.8660254 .5 307.848978912 8.41818620464)">0</text><text fill="#aaaac1" font-family="'Roboto-Regular'" font-size="13.9648" transform="matrix(.5 .8660254 -.8660254 .5 205.35403556778 174.95033533408)">50</text><text fill="#aaaac1" font-family="'Roboto-Regular'" font-size="13.9648" transform="matrix(.5 .8660254 -.8660254 .5 97.26416871148 345.20219263058)">100</text><text fill="#aaaac1" font-family="'Roboto-Regular'" font-size="13.9648" transform="matrix(.5 .8660254 -.8660254 .5 80.9761321424 376.31088547184)">%</text><text fill="#aaaac1" font-family="'Roboto-Regular'" font-size="13.9648" transform="matrix(.5 -.8660254 .8660254 .5 525.54211616532 412.68131137998)">100</text><text fill="#aaaac1" font-family="'Roboto-Regular'" font-size="13.9648" transform="matrix(.5 -.8660254 .8660254 .5 320.03431345552 413.45726779784)">50</text><text fill="#aaaac1" font-family="'Roboto-Regular'" font-size="13.9648" transform="matrix(.5 -.8660254 .8660254 .5 118.54518837824 410.96027038318)">0</text><g clip-path="url(#a)"><g fill="#606077"><path d="m396.2 177.1c16.2 45.9 38 136.8-5.8 153.8s-33.4-30.4-49.6-76.2c-16.2-45.9-84.8-105.5-41-122.3s80.1-1.1 96.4 44.7z" opacity=".73"/><path d="m469.4 174c31.3 85.4 36.3 161.2-48.8 192.7s-123.6-31.5-155.1-116.7-92.8-142.2-7.5-173.5 180.1 12.1 211.4 97.5z" opacity=".54"/><path d="m474.1 202.1c35.6 96.6 69 166.6-27.8 202.3s-208.6 0-244.2-96.6-63.9-180.8 32.6-216.2 203.8 13.8 239.4 110.5z" opacity=".54"/></g><path d="m426.5 164.4c41.8 113.6 158.5 180.3 111 216.1-96.7 72.5-370.4 113.5-412.2 0s.6-313.5 114.1-355.3 145.4 25.7 187.1 139.2z" fill="#afafc6" opacity=".41"/></g><path d="m331.1 23.3-206.4 357.4h412.9z" fill="none" stroke="#6d6d84" stroke-miterlimit="10" stroke-width="1.8641"/><path d="m1231 380.7h-426.9c-.2 0-.4-.2-.4-.4s.2-.4.4-.4h426.9c.2 0 .4.2.4.4s-.2.4-.4.4z" fill="#d1d1e8"/><path d="m1210.3 344.9h-385.5c-.2 0-.4-.2-.4-.4s.2-.4.4-.4h385.5c.2 0 .4.2.4.4 0 .4-.2.4-.4.4z" fill="#d1d1e8"/><path d="m1189.8 309.3h-344.3c-.2 0-.4-.2-.4-.4s.2-.4.4-.4h344.3c.2 0 .4.2.4.4s-.2.4-.4.4z" fill="#d1d1e8"/><path d="m1169.1 273.5h-302.9c-.2 0-.4-.2-.4-.4s.2-.4.4-.4h302.9c.2 0 .4.2.4.4s-.2.4-.4.4z" fill="#d1d1e8"/><path d="m1148.4 237.7h-261.7c-.2 0-.4-.2-.4-.4s.2-.4.4-.4h261.7c.2 0 .4.2.4.4s-.2.4-.4.4z" fill="#d1d1e8"/><path d="m1107.2 166.3h-179.1c-.2 0-.4-.2-.4-.4s.2-.4.4-.4h179.1c.2 0 .4.2.4.4s0 .4-.4.4z" fill="#d1d1e8"/><path d="m1128.1 201.9h-220.7c-.2 0-.4-.2-.4-.4s.2-.4.4-.4h220.9c.2 0 .4.2.4.4s-.2.4-.6.4z" fill="#d1d1e8"/><path d="m1086.7 130.5h-138.1c-.2 0-.4-.2-.4-.4s.2-.4.4-.4h138.1c.2 0 .4.2.4.4s-.2.4-.4.4z" fill="#d1d1e8"/><path d="m1066 94.7h-96.7c-.2 0-.4-.2-.4-.4s.2-.4.4-.4h96.7c.2 0 .4.2.4.4s-.2.4-.4.4z" fill="#d1d1e8"/><path d="m1045.7 58.9h-55.9c-.2 0-.4-.2-.4-.4s.2-.4.4-.4h55.9c.2 0 .4.2.4.4.2.2 0 .4-.4.4z" fill="#d1d1e8"/><path d="m1024.8 23.3h-14.2c-.2 0-.4-.2-.4-.4s.2-.4.4-.4h14.2c.2 0 .4.2.4.4s-.2.4-.4.4z" fill="#d1d1e8"/><path d="m800.4 388.5c-.4-.2-.4-.4-.4-.6l210.3-365.4c.2-.2.4-.2.6-.2.2.2.2.4.2.6l-210.1 365.4c-.2.2-.4.2-.6.2z" fill="#d1d1e8"/><path d="m841.8 388.5c-.4-.2-.4-.4-.4-.6l189.4-329.6c.2-.2.4-.2.6-.2.2.2.2.4.2.6l-189.5 329.6c-.1 0-.1.2-.3.2z" fill="#d1d1e8"/><path d="m883 388.5c-.4-.2-.4-.4-.4-.6l168.9-293.8c.2-.2.4-.2.6-.2.2.2.2.4.2.6l-169 293.8c0 .2-.1.2-.3.2z" fill="#d1d1e8"/><path d="m924.4 388.5c-.4-.2-.4-.4-.4-.6l148.2-258c.2-.2.4-.2.6-.2.2.2.2.4.2.6l-148.2 258c-.3 0-.3.2-.4.2z" fill="#d1d1e8"/><path d="m965.6 388.5h-.2c-.2-.2-.2-.4-.2-.6l127.5-222.4c.2-.2.4-.2.6-.2.2.2.2.4.2.6l-127.6 222.4c0 .2-.2.2-.3.2z" fill="#d1d1e8"/><path d="m1048.1 388.7h-.2c-.2-.2-.2-.4-.2-.6l86.3-151c.2-.2.4-.2.6-.2.2.2.2.4.2.6l-86.3 151c-.2 0-.4.2-.4.2z" fill="#d1d1e8"/><path d="m1006.7 388.9h-.2c-.2-.2-.2-.4-.2-.6l107.2-186.8c.2-.2.4-.2.6-.2.2.2.2.4.2.6l-107.2 186.8c-.2.2-.4.2-.4.2z" fill="#d1d1e8"/><path d="m1089.3 388.7h-.2c-.2-.2-.2-.4-.2-.6l65.8-115.2c.2-.2.4-.2.6-.2.2.2.2.4.2.6l-65.8 115.2c-.2.2-.2.2-.4.2z" fill="#d1d1e8"/><path d="m1130.7 388.7h-.2c-.2-.2-.2-.4-.2-.6l45.1-79.4c.2-.2.4-.2.6-.2.2.2.2.4.2.6l-45.1 79.4c-.2 0-.4.2-.4.2z" fill="#d1d1e8"/><path d="m1171.7 389.1h-.2c-.2-.2-.2-.4-.2-.6l24.6-44c.2-.2.4-.2.6-.2.2.2.2.4.2.6l-24.6 44c-.2 0-.2.2-.4.2z" fill="#d1d1e8"/><path d="m1213.1 388.7c-.4-.2-.4-.4-.4-.6l3.7-8c0-.2.4-.2.6-.2s.2.4.2.6l-3.7 8s-.2.2-.4.2z" fill="#d1d1e8"/><path d="m1217 380.7c-.2 0-.2 0-.4-.2l-213.4-369.7c-.2-.2 0-.4.2-.6s.4 0 .6.2l213.3 369.6c.1.3-.1.5-.3.7z" fill="#d8d8ef"/><path d="m1175.6 380.7c-.2 0-.2 0-.4-.2l-192.5-333.9c-.2-.2 0-.4.2-.6s.4 0 .6.2l192.7 333.9c.2.2 0 .4-.2.6-.2 0-.2 0-.4 0z" fill="#d8d8ef"/><path d="m1134.4 380.7c-.2 0-.2 0-.4-.2l-172-298.1c-.2-.2 0-.4.2-.6s.4 0 .6.2l172.1 298.3c.1.2-.1.4-.5.4z" fill="#d8d8ef"/><path d="m1093.1 380.7c-.2 0-.2 0-.4-.2l-151.4-262.3c-.2-.2 0-.4.2-.6s.4 0 .6.2l151.6 262.5c.2.2 0 .4-.2.6-.3-.2-.3-.2-.4-.2z" fill="#d8d8ef"/><path d="m1051.9 380.7c-.2 0-.2 0-.4-.2l-130.9-226.7c-.2-.2 0-.4.2-.6s.4 0 .6.2l130.9 226.7c.1.2-.1.4-.4.6z" fill="#d8d8ef"/><path d="m969.3 380.7c-.2 0-.2 0-.4-.2l-89.7-155.3c-.2-.2 0-.4.2-.6s.4 0 .6.2l89.7 155.3c.2.2 0 .4-.2.6z" fill="#d8d8ef"/><path d="m1010.7 380.7c-.2 0-.2 0-.4-.2l-110.6-191.3c-.2-.2 0-.4.2-.6s.4 0 .6.2l110.4 191.3c.1.2-.1.4-.2.6z" fill="#d8d8ef"/><path d="m928.1 380.7c-.2 0-.2 0-.4-.2l-69-119.7c-.2-.2 0-.4.2-.6s.4 0 .6.2l69 119.7c.2.2 0 .4-.2.6-.2 0-.2 0-.2 0z" fill="#d8d8ef"/><path d="m886.7 380.7c-.2 0-.2 0-.4-.2l-48.3-83.9c-.2-.2 0-.4.2-.6s.4 0 .6.2l48.3 83.9c.2.2 0 .4-.4.6.2 0 .2 0 0 0z" fill="#d8d8ef"/><path d="m845.5 380.7c-.2 0-.2 0-.4-.2l-28-48.5c-.2-.2 0-.4.2-.6s.4 0 .6.2l28 48.5c.2.2 0 .4-.4.6z" fill="#d8d8ef"/><path d="m804.1 380.7c-.2 0-.2 0-.4-.2l-7.1-12.3c-.2-.2 0-.4.2-.6s.4 0 .6.2l7.1 12.3c.2.2 0 .4-.4.6.2 0 .2 0 0 0z" fill="#d8d8ef"/><text fill="#aaaac1" font-family="'Roboto-Regular'" font-size="13.9648" transform="translate(1017.815984 18.684471)">100</text><text fill="#aaaac1" font-family="'Roboto-Regular'" font-size="13.9648" transform="translate(1121.006384 197.939371)">50</text><text fill="#aaaac1" font-family="'Roboto-Regular'" font-size="13.9648" transform="translate(1224.201684 376.148771)">0</text><text fill="#aaaac1" font-family="'Roboto-Regular'" font-size="13.9648" transform="matrix(.5 .8660254 -.8660254 .5 986.84920730956 8.41828270972)">0</text><text fill="#aaaac1" font-family="'Roboto-Regular'" font-size="13.9648" transform="matrix(.5 .8660254 -.8660254 .5 884.3541773628 174.95048183916)">50</text><text fill="#aaaac1" font-family="'Roboto-Regular'" font-size="13.9648" transform="matrix(.5 .8660254 -.8660254 .5 776.26439710904 345.20228913566)">100</text><text fill="#aaaac1" font-family="'Roboto-Regular'" font-size="13.9648" transform="matrix(.5 .8660254 -.8660254 .5 759.97636053996 376.31098197692)">%</text><text fill="#aaaac1" font-family="'Roboto-Regular'" font-size="13.9648" transform="matrix(.5 -.8660254 .8660254 .5 1204.54234456288 412.6812148749)">100</text><text fill="#aaaac1" font-family="'Roboto-Regular'" font-size="13.9648" transform="matrix(.5 -.8660254 .8660254 .5 999.03459185308 413.45708469022)">50</text><text fill="#aaaac1" font-family="'Roboto-Regular'" font-size="13.9648" transform="matrix(.5 -.8660254 .8660254 .5 797.5454667758 410.96008727556)">0</text><g clip-path="url(#b)"><g fill="#606077"><path d="m1075.2 177.1c16.2 45.9 38 136.8-5.8 153.8s-33.4-30.4-49.6-76.2c-16.2-45.9-84.8-105.5-41-122.3s80.1-1.1 96.4 44.7z" opacity=".73"/><path d="m1148.4 174c31.3 85.4 36.3 161.2-48.8 192.7s-123.6-31.5-155.1-116.7-92.8-142.2-7.5-173.5 180.1 12.1 211.4 97.5z" opacity=".54"/><path d="m1153.1 202.1c35.6 96.6 69 166.6-27.8 202.3s-208.6 0-244.2-96.6-63.9-180.8 32.6-216.2 203.8 13.8 239.4 110.5z" opacity=".54"/></g><path d="m1105.5 164.4c41.8 113.5 158.4 180.3 110.9 216-96.7 72.5-370.4 113.5-412.2 0-41.6-113.4.7-313.4 114.2-355.2s145.4 25.7 187.1 139.2z" fill="#afafc6" opacity=".41"/></g><path d="m1010.1 23.3-206.4 357.4h412.9z" fill="none" stroke="#6d6d84" stroke-miterlimit="10" stroke-width="1.8641"/></svg>