<svg xmlns="http://www.w3.org/2000/svg" width="256" height="256" viewBox="0 0 256 256"><title>icon_sketch</title><path d="M128.4,4.8h0A1.7,1.7,0,0,1,130.1,3h.1A124.9,124.9,0,0,1,241.3,77.2a1.8,1.8,0,0,1-.8,2.3h-.2l-12.1,5a1.7,1.7,0,0,1-2.3-.9,108.1,108.1,0,0,0-95.8-64,1.8,1.8,0,0,1-1.7-1.7Zm115.2,78a2,2,0,0,0-2.4-.9l-12.2,5a1.7,1.7,0,0,0-.9,2.3,108.1,108.1,0,0,1-22.5,113,1.7,1.7,0,0,0,0,2.4l9.3,9.3h.1a1.8,1.8,0,0,0,2.5,0A125.1,125.1,0,0,0,243.6,82.8ZM203.8,206.4a1.7,1.7,0,0,0-2.4-.1,108.1,108.1,0,0,1-113,22.5h0a1.7,1.7,0,0,0-2.2,1L81.1,242a1.7,1.7,0,0,0,1,2.2,124.9,124.9,0,0,0,131.1-26h.1a1.7,1.7,0,0,0-.1-2.4ZM83.9,228.8l-5,12.2a1.7,1.7,0,0,1-1.6,1.1h-.8A124.9,124.9,0,0,1,2.3,130.8,1.7,1.7,0,0,1,4,129.1H17.2a1.7,1.7,0,0,1,1.8,1.7,108.3,108.3,0,0,0,64,95.8A1.6,1.6,0,0,1,83.9,228.8Zm-3.2,0a110.9,110.9,0,0,1-64.6-96.7H5.3A122,122,0,0,0,76.6,238.7ZM128.2,36.4a1.8,1.8,0,0,0,1.8,1.7,89.7,89.7,0,0,1,78.9,52.8,1.7,1.7,0,0,0,2.3.9l12.2-5.1h.1a1.7,1.7,0,0,0,.8-2.3A106.1,106.1,0,0,0,130,21.5h0a1.8,1.8,0,0,0-1.8,1.7h0ZM201.7,201l-9.2-9.3a1.8,1.8,0,0,1-.1-2.5,89.3,89.3,0,0,0,18.5-93.1,1.9,1.9,0,0,1,1-2.3l12.2-5,.6-.2a1.8,1.8,0,0,1,1.7,1.1,106.1,106.1,0,0,1-22.1,111.2,1.9,1.9,0,0,1-1.3.6,1.7,1.7,0,0,1-1.2-.5Zm-6.3-10.6,7.5,7.6A103.2,103.2,0,0,0,224.1,92l-10,4.1a92.3,92.3,0,0,1-18.7,94.3ZM94.6,211.6h.7a87.7,87.7,0,0,0,31.7,5.9,90,90,0,0,0,61.5-24.4,1.7,1.7,0,0,1,1.2-.5,1.6,1.6,0,0,1,1.2.6l9.4,9.2a1.6,1.6,0,0,1,0,2.4h-.1A106,106,0,0,1,89,227.1a1.7,1.7,0,0,1-1-2.2l5-12.2A1.8,1.8,0,0,1,94.6,211.6Zm-3.3,13.2a103.2,103.2,0,0,0,105.9-21.1l-7.6-7.5A92.5,92.5,0,0,1,95.3,215Zm-7.5.2h0a2,2,0,0,0,2.4-1l5-12.1a1.7,1.7,0,0,0-.9-2.3,89.8,89.8,0,0,1-52.8-79,1.8,1.8,0,0,0-1.7-1.7H22.5a1.7,1.7,0,0,0-1.7,1.8A106.4,106.4,0,0,0,83.8,225ZM128,41.7h-.1a1.8,1.8,0,0,1,1.8-1.8h.1a88.2,88.2,0,0,1,77.5,51.8,1.8,1.8,0,0,1-.8,2.3h-.2l-12.1,5.2h-.7a1.8,1.8,0,0,1-1.6-1,71.3,71.3,0,0,0-62.2-41.6,1.8,1.8,0,0,1-1.7-1.8Zm3,12.1a74.1,74.1,0,0,1,63.1,42.1l9.9-4.1A84.8,84.8,0,0,0,131,43Zm48.2,122.5a1.7,1.7,0,0,0,.1,2.4l9.3,9.4h.1a1.7,1.7,0,0,0,2.4-.1,87.8,87.8,0,0,0,18.2-91.4,1.9,1.9,0,0,0-2.3-1l-12.2,5a1.9,1.9,0,0,0-1,2.3A71.1,71.1,0,0,1,179.2,176.3ZM100,195.5l-5.1,12.2a2,2,0,0,0,1,2.3,88,88,0,0,0,91.4-18.2h.2a1.7,1.7,0,0,0-.1-2.4l-9.3-9.3a1.7,1.7,0,0,0-2.4,0,71.6,71.6,0,0,1-73.5,14.6h0A1.7,1.7,0,0,0,100,195.5ZM91,208h.1a1.8,1.8,0,0,0,2.3-.9l5-12.3a1.6,1.6,0,0,0-.9-2.2A71.1,71.1,0,0,1,56,130.4a1.9,1.9,0,0,0-1.8-1.8H41a1.9,1.9,0,0,0-1.7,1.9A87.9,87.9,0,0,0,91,208ZM127.8,73.2a1.8,1.8,0,0,0,1.7,1.8,52.8,52.8,0,0,1,45.4,30.4,1.9,1.9,0,0,0,2.3.9l12.2-5.1h.1a1.8,1.8,0,0,0,.8-2.3,69.3,69.3,0,0,0-60.7-40.5h-.1a1.8,1.8,0,0,0-1.7,1.8h0Zm64.4,30.3a69.5,69.5,0,0,1-14.3,71.6,1.9,1.9,0,0,1-1.3.5,1.5,1.5,0,0,1-1.1-.4h-.1l-9.4-9.3a1.8,1.8,0,0,1,0-2.4,52.9,52.9,0,0,0,10.7-53.6,1.6,1.6,0,0,1,1-2.2l12.1-5.1h.7A2,2,0,0,1,192.2,103.5Zm-2.4,2.3-9.9,4.1A55.7,55.7,0,0,1,169,164.5l7.6,7.6a67.7,67.7,0,0,0,15.7-31.4A66.8,66.8,0,0,0,189.8,105.8Zm-62.7,74.8a52.7,52.7,0,0,0,35.6-13.9,1.6,1.6,0,0,1,1.1-.5,1.8,1.8,0,0,1,1.3.6l9.4,9.3a1.6,1.6,0,0,1,0,2.4h-.1a69.7,69.7,0,0,1-47.3,18.6,68.2,68.2,0,0,1-24.3-4.4,1.7,1.7,0,0,1-1-2.2l5.1-12.2a1.6,1.6,0,0,1,1.6-1.1h.6A52.9,52.9,0,0,0,127.1,180.6Zm0,3h-2.4l1.1,1.1-8.8,8.8c2.2.3,4.4.6,6.6.7l-1.4-1.5,9.2-9.2Zm-12.8,8.2,8.4-8.4a55.2,55.2,0,0,1-8-1.2l1.9,1.8-7.7,7.6a57.3,57.3,0,0,0,6.9,1.6Zm-9.2-1.4,3.1,1-1.7-1.6,7.7-7.8a46.7,46.7,0,0,1-5-1.4Zm22,3.8a58.2,58.2,0,0,0,9.3-.7l-.7-.6,14.5-14.4a57.4,57.4,0,0,1-13.9,4.3l-11.4,11.3Zm44.3-16.9-1.9-2-11,11A71.1,71.1,0,0,0,171.4,177.3Zm-15.5-1.8.7.8L140,192.9a61.1,61.1,0,0,0,12.6-3.8l2.2-3.4,12.5-12.5-3.5-3.5A55.3,55.3,0,0,1,155.9,175.5ZM57.7,130.3a1.8,1.8,0,0,1,1.7-1.8H72.7a1.8,1.8,0,0,1,1.8,1.6,52.5,52.5,0,0,0,30.3,45.5,1.7,1.7,0,0,1,.9,2.3l-5.1,12.2a1.7,1.7,0,0,1-1.6,1.1l-.7-.2h0A69.6,69.6,0,0,1,57.7,130.3Zm14.2,34.4a65.8,65.8,0,0,0,26.5,23.1l4.1-10a55.6,55.6,0,0,1-31-46.3H60.8A66.1,66.1,0,0,0,71.9,164.7Zm55.7-72.9V78.6a1.8,1.8,0,0,1,1.8-1.8h0a51,51,0,0,1,43.9,29.4,1.8,1.8,0,0,1-.8,2.3h-.1l-12.2,5.1h-.7a1.6,1.6,0,0,1-1.6-1,34.1,34.1,0,0,0-28.7-19.1A1.8,1.8,0,0,1,127.6,91.8Zm20.2-7.3a35.7,35.7,0,0,0-4.5-1.9l-8.7,8.7a28.5,28.5,0,0,1,5,1.4Zm2.6,1.6-7.8,7.8a40.9,40.9,0,0,1,4.6,2.5l7.7-7.7a33.6,33.6,0,0,0-5.1-3.2Zm-10.3-4.5-1.9-.5.4.5c-2.3,1.7-4.6,3.4-6.8,5.2l-1.2-1.4v5.3h.3Zm17.6,24.9,7.4-7.5,1.4,1.4a53.7,53.7,0,0,0-3.5-4.5l-7.7,7.6A17.6,17.6,0,0,1,157.7,106.5Zm12.3-.2a40.8,40.8,0,0,0-2.9-5l-7.4,7.4-1.7-1.8,2.1,3.5ZM157.3,90.5l-7.6,7.6a27.4,27.4,0,0,1,3.6,3.2l7.6-7.6A27.4,27.4,0,0,0,157.3,90.5ZM130.6,79.9V84l4.5-3.5A34.7,34.7,0,0,0,130.6,79.9Zm22.3,73,9.3,9.3h.1a1.8,1.8,0,0,0,2.5-.1,51,51,0,0,0,10.3-51.7,2,2,0,0,0-2.4-1l-12.1,5.1a1.6,1.6,0,0,0-1,2.2,34.4,34.4,0,0,1-6.7,33.8A1.7,1.7,0,0,0,152.9,152.9Zm-43.2,22.8a51.2,51.2,0,0,0,51.8-10.3h.1a1.7,1.7,0,0,0-.1-2.4l-9.3-9.3a1.8,1.8,0,0,0-2.5-.1,34.2,34.2,0,0,1-33.8,6.7,1.8,1.8,0,0,0-2.2,1l-5.1,12.3A1.8,1.8,0,0,0,109.7,175.7Zm-4.2-1.7h.1a1.8,1.8,0,0,0,2.3-1l5-12.1a1.8,1.8,0,0,0-.9-2.3A33.9,33.9,0,0,1,92.9,130a1.8,1.8,0,0,0-1.8-1.7H77.8a1.8,1.8,0,0,0-1.6,1.8A50.7,50.7,0,0,0,105.5,174Z"/></svg>