<svg xmlns="http://www.w3.org/2000/svg" width="256" height="256" viewBox="0 0 256 256"><title>icon_sketch</title><path d="M197,158.7l19.9,11.5a94.7,94.7,0,0,0,10.6-47.6h-.1a91.7,91.7,0,0,0-14.3-45.4l-2.9,1.7h0l2.9-1.7a90.1,90.1,0,0,0-34.3-31.4h0a88.1,88.1,0,0,0-40.5-9.9h-3.9v23h3.9a65,65,0,0,1,29,6.8h0a66.3,66.3,0,0,1,25.9,23.1h0a68.4,68.4,0,0,1,11.2,33.9h.1A71.4,71.4,0,0,1,197,158.7ZM138.3,55.8h-1V38.7h1a86.8,86.8,0,0,1,36.4,8.2l-8.6,14.9A68.5,68.5,0,0,0,138.3,55.8Zm85.4,63.8v-5.1c.3,1.7.4,3.4.6,5.1Zm-2.9,0h-3.1V92.2a89.9,89.9,0,0,1,4.4,13.6h-1.3ZM207.3,80.5l-1,.5h0l1-.5Zm-4.9,6.2,1-.6v16.6c-.6-1.7-1.3-3.4-2-5.1h1Zm0-3.4h0l1-.6h0Zm-2.9,5.1v5.1c-.7-1.3-1.4-2.6-2.2-3.9Zm5.3,18.8h1.5V84.4l1-.6v35.8h-.2A75.2,75.2,0,0,0,204.8,107.2Zm5.4,12.4V82.2l1.9-1.1a58.6,58.6,0,0,1,3,5.5h-.3v33Zm7.5,2.9h0ZM183,206.9h0a96,96,0,0,0,33.8-36.6l-19.9-11.6A73.5,73.5,0,0,1,171.6,187h-.1A75.6,75.6,0,0,1,134.4,199h-4a77.2,77.2,0,0,1-35.3-8.5H95A79.7,79.7,0,0,1,64.5,163h0a82.2,82.2,0,0,1-13-40.5h0a83.3,83.3,0,0,1,9.3-42.4h0a85.9,85.9,0,0,1,30-33h0a87.9,87.9,0,0,1,43.6-13.8h4A89.8,89.8,0,0,1,180,43.4h0a92.4,92.4,0,0,1,35.3,32.4h0A94.8,94.8,0,0,1,230,122.5h22.9a117.7,117.7,0,0,0-17.7-58.2h0a114.7,114.7,0,0,0-43.7-40.7h0a112.9,112.9,0,0,0-53.1-13.2h-4a110.6,110.6,0,0,0-55,16.9h-.1A108.9,108.9,0,0,0,40.9,68.5L60.8,80.1,40.9,68.6a106.6,106.6,0,0,0-12.4,53.9h0a104.5,104.5,0,0,0,16.1,51.8L64.5,163,44.6,174.4a101.8,101.8,0,0,0,39,36.1h0a100.4,100.4,0,0,0,46.8,11.6h4A98.8,98.8,0,0,0,183,206.9Zm15-44.1,14.9,8.6A94.4,94.4,0,0,1,184,202.8l-8.6-14.9A76.5,76.5,0,0,0,198,162.8Zm34.7-43.2a97.1,97.1,0,0,0-13.3-42.8l14.8-8.5a114.8,114.8,0,0,1,15.7,51.3ZM137.3,13.3h1.1a111.4,111.4,0,0,1,49.1,11.5l-8.6,14.8a93.1,93.1,0,0,0-40.5-9.3h-1.1ZM113,34c-2.6.7-5,1.6-7.5,2.5l7-18.4-2.6-1c4-1.1,8-1.9,12-2.6C118.7,20.9,115.7,27.4,113,34Zm11.4-19.8,6.3-.6c-2.2,5.8-4.3,11.8-6.1,17.8h.2c-2.8.4-5.5,1-8.2,1.6,2.6-6.2,5.5-12.4,8.6-18.4ZM101.8,38c-2.8,1.2-5.5,2.6-8.1,4a164.6,164.6,0,0,1,9.6-22l-1.1-.5c2.5-.9,5-1.7,7.6-2.4Zm-12.6.5h.2a94.3,94.3,0,0,1,6.7-16.1l-.6-.4,4.3-1.7a156.1,156.1,0,0,0-9,21Zm3.4,4.2-.8.4-.5-.9ZM127.8,31c1.1-3.7,2.4-7.3,3.7-11V30.7C130.2,30.7,129,30.9,127.8,31ZM92.3,23.6a101.2,101.2,0,0,0-4.9,11.8l-4.1-7.1A95.9,95.9,0,0,1,92.3,23.6ZM44.8,67.4A106.3,106.3,0,0,1,78.3,31.3l8.6,14.9A88.3,88.3,0,0,0,59.7,76Zm.8,103a102.3,102.3,0,0,1-14-44.9h7.9l-6,5.9,2.1,2.1,6.7-6.8-1.2-1.2h7.7a83.1,83.1,0,0,0,4.8,22.1l-2-2L42,155.2l2.1,2.1,9.6-9.5c.9,2.5,1.9,4.9,3,7.3l-1.5-1.6-10,9.9,2.1,2.1,9.8-9.7c1,2,2.1,4.1,3.3,6.1Zm85.9,48.7h-1.1a98.2,98.2,0,0,1-42.7-9.8l8.5-14.9a80.9,80.9,0,0,0,34.2,7.6h1.1Zm-49.2-6.3L70.8,232.7a125.9,125.9,0,0,0,59.5,14.9h4V224.6h-4A103,103,0,0,1,82.3,212.8Zm49.1,31.9h-1.1a123.8,123.8,0,0,1-55.4-13.2l8.5-14.9a106.3,106.3,0,0,0,46.9,11h1.1ZM70.8,232.6a127.9,127.9,0,0,1-48.3-45.5l19.9-11.5a105.4,105.4,0,0,0,39.9,37.1ZM26,122.5H3.1a129.4,129.4,0,0,0,19.4,64.6l19.9-11.5A107.2,107.2,0,0,1,26,122.5Zm-19.9,3H23.3a109.2,109.2,0,0,0,15,49.1l-14.8,8.5A127.3,127.3,0,0,1,6.1,125.5Zm225.8,53.3,7,4.1a119.9,119.9,0,0,0,14-60.4H230a97.8,97.8,0,0,1-11,48.9l12,6.9h-.2L219,171.5a99.5,99.5,0,0,1-34.7,37.6h0a100.7,100.7,0,0,1-49.9,15.6v22.9a123.2,123.2,0,0,0,61.3-18.6h.1a122.1,122.1,0,0,0,43.1-46l-7-4.1Zm-2.9,1.8v11.2h1.1c-2,3-4.1,5.9-6.4,8.7V177.6Zm-17.8,8.2v24.7h.2c-2.2,2-4.5,4-6.9,5.8V197.2h-.7C206.4,194.5,208.9,191.7,211.2,188.8Zm-18.8,18.3v10.1l-4.2-7.2Zm1.5,12.8h1.4V204.8a82.7,82.7,0,0,0,6.3-5.5v21.3h1.2c-1.9,1.5-3.9,2.9-6,4.3Zm20.2-8.9V186.8h-1.4a95.5,95.5,0,0,0,7.4-11.3l.7.4v27.3h.7C219.1,205.9,216.7,208.5,214.1,211Zm20.8-26.9c-.9,1.7-2,3.3-3,5v-6.8ZM48.7,130.3,36.3,142.7l-2.1-2,12.5-12.5Zm2.2,8.9L40.6,149.5l-2.1-2.1,10.3-10.3Z"/></svg>