<svg xmlns="http://www.w3.org/2000/svg" width="650" height="460" viewBox="0 0 650 460"><defs><style>.a{fill:#898989;}.b{fill:#bababa;}.c{fill:#484848;}.d{fill:#e9e9e9;}.e{fill:#9d9d9d;}.f{fill:#eee;}.g{fill:#999;}.h{fill:#838383;}.i{fill:#e6e6e6;}.j{fill:#e3e3e3;}.k{fill:#404040;}.l{fill:#595959;}.m{fill:#c5c5c5;}.n{fill:#f0f0f0;}.at,.az,.o{fill:#c9c9c9;}.p{fill:#828282;}.q{fill:#6a6a6a;}.r{fill:#a8a8a8;}.s{fill:#b9b9b9;}.t{fill:#e4e4e4;}.u{fill:#616161;}.v{fill:#d8d8d8;}.w{fill:#d2d2d2;}.x{fill:#8d8d8d;}.y{fill:#dadada;}.z{fill:#919191;}.aa{fill:#afafaf;}.ab{fill:#ececec;}.ac{fill:#434343;}.ad{fill:#5d5d5d;}.ae,.au{fill:#dfdfdf;}.af{fill:#ddd;}.ag{fill:#5e5e5e;}.ah{fill:#aeaeae;}.ai{fill:#747474;}.aj{fill:#efefef;}.ak{fill:#a7a7a7;}.al{fill:#dbdbdb;}.am{fill:#b8b8b8;}.an{fill:#e5e5e5;}.ao{fill:#e1e1e1;}.ap,.aq{fill:#ccc;}.aq,.as,.at,.au,.aw{fill-opacity:0;}.ar,.as{fill:#6b6b6b;}.av,.aw{fill:#eaeaea;}.ax{font-size:16px;}.ax,.ay{fill:#6f6f6f;}.ax,.ay,.az{font-family:Roboto Mono;}.ay,.az{isolation:isolate;font-size:13.42px;}</style></defs><title>spiral-heatmap</title><path class="a" d="M422.5,178.1a67.4,67.4,0,0,1,26.2,23.3l20.1-11.6a90.6,90.6,0,0,0-34.7-31.7Z"/><path class="b" d="M448.7,201.4A69.6,69.6,0,0,1,460,235.7h23.2a92.8,92.8,0,0,0-14.4-45.9Z"/><path class="c" d="M460.1,235.7a71.7,71.7,0,0,1-7.6,36.5l20.1,11.6a94.9,94.9,0,0,0,10.7-48H460.1Z"/><path class="d" d="M452.4,272.2a73.9,73.9,0,0,1-25.6,28.6l11.6,20.1a97.1,97.1,0,0,0,34.1-37Z"/><path class="e" d="M426.8,300.7a76,76,0,0,1-37.5,12.2v23.2a99.2,99.2,0,0,0,49.1-15.3Z"/><path class="f" d="M389.3,312.9a78.2,78.2,0,0,1-39.7-8.5L338,324.5a101.4,101.4,0,0,0,51.3,11.6V312.9Z"/><path class="g" d="M349.6,304.5a80.3,80.3,0,0,1-30.9-28l-20.1,11.6A103.5,103.5,0,0,0,338,324.5Z"/><path class="h" d="M318.7,276.5a82.5,82.5,0,0,1-13.1-40.8H282.4A105.7,105.7,0,0,0,298.6,288Z"/><path class="i" d="M305.6,235.7a84.6,84.6,0,0,1,9.4-42.9l-20.1-11.6a107.8,107.8,0,0,0-12.5,54.5h23.2Z"/><path class="j" d="M315,192.8a86.8,86.8,0,0,1,30.3-33.3l-11.6-20.1a110,110,0,0,0-38.8,41.7Z"/><path class="k" d="M345.3,159.6a88.9,88.9,0,0,1,44-13.9V122.5a112.1,112.1,0,0,0-55.6,17Z"/><path class="l" d="M435.4,155.8A93.2,93.2,0,0,1,471,188.5l20.1-11.6A116.4,116.4,0,0,0,447,135.8Z"/><path class="f" d="M471,188.5a95.4,95.4,0,0,1,14.8,47.2H509a118.6,118.6,0,0,0-17.9-58.8Z"/><path class="m" d="M485.8,235.7A97.5,97.5,0,0,1,474.7,285l20.1,11.6A120.7,120.7,0,0,0,509,235.7H485.8Z"/><path class="n" d="M474.7,285.1a99.7,99.7,0,0,1-35,38l11.6,20.1a122.8,122.8,0,0,0,43.5-46.5Z"/><path class="o" d="M439.7,323a101.8,101.8,0,0,1-50.4,15.7v23.2a125,125,0,0,0,62-18.8Z"/><path class="d" d="M389.3,338.7a104,104,0,0,1-52.6-11.9l-11.6,20.1a127.1,127.1,0,0,0,64.1,15V338.7h0.1Z"/><path class="p" d="M336.7,326.7a106.1,106.1,0,0,1-40.3-37.4l-20.1,11.6a129.3,129.3,0,0,0,48.8,45.9Z"/><path class="q" d="M296.4,289.3a108.3,108.3,0,0,1-16.5-53.6H256.7a131.4,131.4,0,0,0,19.6,65.2Z"/><path class="r" d="M279.9,235.7a110.4,110.4,0,0,1,12.8-55.8l-20.1-11.6a133.6,133.6,0,0,0-15.9,67.4h23.2Z"/><path class="s" d="M292.7,179.9a112.5,112.5,0,0,1,39.8-42.7l-11.6-20.1a135.7,135.7,0,0,0-48.2,51.2Z"/><path class="r" d="M332.4,137.3a114.7,114.7,0,0,1,56.8-17.4V96.7a137.9,137.9,0,0,0-68.4,20.5Z"/><path class="t" d="M448.3,133.5a119,119,0,0,1,45,42.1L513.4,164a142.2,142.2,0,0,0-53.5-50.6Z"/><path class="u" d="M493.3,175.7a121.1,121.1,0,0,1,18.2,60.1h23.2a144.3,144.3,0,0,0-21.3-71.6Z"/><path class="v" d="M511.5,235.7A123.3,123.3,0,0,1,497,297.9l20.1,11.6a146.5,146.5,0,0,0,17.6-73.8H511.5Z"/><path class="w" d="M497,297.9a125.4,125.4,0,0,1-44.5,47.4l11.6,20.1A148.6,148.6,0,0,0,517,309.5Z"/><path class="x" d="M452.6,345.3a127.6,127.6,0,0,1-63.3,19.1v23.2a150.7,150.7,0,0,0,74.9-22.2Z"/><path class="y" d="M389.3,364.4A129.7,129.7,0,0,1,323.8,349l-11.6,20.1a152.9,152.9,0,0,0,77,18.5V364.4h0.1Z"/><path class="z" d="M323.8,349A131.9,131.9,0,0,1,274,302.2l-20,11.6a155,155,0,0,0,58.2,55.3Z"/><path class="p" d="M274.1,302.2a134,134,0,0,1-20-66.5H231a157.2,157.2,0,0,0,23,78.1Z"/><path class="aa" d="M254.1,235.7a136.2,136.2,0,0,1,16.2-68.6l-20.1-11.6A159.3,159.3,0,0,0,231,235.7h23.1Z"/><path class="g" d="M270.4,167.1A138.3,138.3,0,0,1,319.6,115L308,94.9a161.5,161.5,0,0,0-57.7,60.6Z"/><path class="ab" d="M319.6,115a140.4,140.4,0,0,1,69.7-20.8V71A163.6,163.6,0,0,0,308,94.9Z"/><path class="g" d="M461.1,111.3a144.7,144.7,0,0,1,54.5,51.5l20.1-11.6a167.9,167.9,0,0,0-62.9-60Z"/><path class="ac" d="M515.6,162.8a146.9,146.9,0,0,1,21.7,72.9h23.2a170.1,170.1,0,0,0-24.8-84.5Z"/><path class="w" d="M537.3,235.7a149,149,0,0,1-18,75.1l20.1,11.6a172.2,172.2,0,0,0,21.1-86.7H537.3Z"/><path class="ad" d="M519.3,310.8a151.2,151.2,0,0,1-53.9,56.8L477,387.7a174.3,174.3,0,0,0,62.4-65.3Z"/><path class="ae" d="M465.4,367.6a153.3,153.3,0,0,1-76.2,22.5v23.2A176.5,176.5,0,0,0,477,387.7Z"/><path class="y" d="M389.3,390.2A155.5,155.5,0,0,1,311,371.3l-11.6,20.1a178.6,178.6,0,0,0,89.9,21.9V390.2Z"/><path class="af" d="M311,371.3a157.6,157.6,0,0,1-59.2-56.2l-20.1,11.6a180.8,180.8,0,0,0,67.7,64.7Z"/><path class="ag" d="M251.8,315.1a159.8,159.8,0,0,1-23.4-79.4H205.2a182.9,182.9,0,0,0,26.5,91Z"/><path class="ah" d="M228.4,235.7a161.9,161.9,0,0,1,19.7-81.5L228,142.6a185.1,185.1,0,0,0-22.8,93.1h23.2Z"/><path class="ai" d="M248.1,154.2a164,164,0,0,1,58.6-61.5L295.1,72.6a187.2,187.2,0,0,0-67.1,70Z"/><path class="aj" d="M306.7,92.7a166.2,166.2,0,0,1,82.6-24.3V45.2a189.4,189.4,0,0,0-94.2,27.4Z"/><path class="ak" d="M474,89a170.5,170.5,0,0,1,63.9,61L558,138.3a193.7,193.7,0,0,0-72.4-69.4Z"/><path class="ai" d="M537.9,149.9A172.6,172.6,0,0,1,563,235.7h23.2A195.8,195.8,0,0,0,558,138.3Z"/><path class="n" d="M563,235.7a174.8,174.8,0,0,1-21.4,87.9l20.1,11.6a197.9,197.9,0,0,0,24.5-99.5H563Z"/><path class="i" d="M541.6,323.7a176.9,176.9,0,0,1-63.3,66.2L489.9,410a200.1,200.1,0,0,0,71.8-74.7Z"/><path class="v" d="M478.3,389.9a179.1,179.1,0,0,1-89,26v23.2A202.2,202.2,0,0,0,489.9,410Z"/><path class="al" d="M389.3,415.9a181.2,181.2,0,0,1-91.2-22.3l-11.6,20.1a204.4,204.4,0,0,0,102.7,25.4V415.9h0.1Z"/><path class="am" d="M298.1,393.6A183.4,183.4,0,0,1,229.5,328l-20.1,11.6a206.5,206.5,0,0,0,77.1,74.1Z"/><path class="an" d="M229.5,328a185.5,185.5,0,0,1-26.9-92.2H179.5a208.7,208.7,0,0,0,30,103.8Z"/><path class="ao" d="M202.7,235.7a187.7,187.7,0,0,1,23.1-94.4l-20.1-11.6a210.8,210.8,0,0,0-26.2,106h23.2Z"/><path class="m" d="M225.8,141.3a189.8,189.8,0,0,1,68-71l-11.6-20a213,213,0,0,0-76.5,79.4Z"/><path class="g" d="M293.8,70.4a191.9,191.9,0,0,1,95.5-27.7V19.5a215.1,215.1,0,0,0-107,30.8Z"/><path class="ap" d="M389.3,171.4a65.3,65.3,0,0,1,33.2,6.8l11.6-20.1a88.5,88.5,0,0,0-44.8-9.9v23.2h0Z"/><path class="aq" d="M389.3,171.4a65.3,65.3,0,0,1,33.2,6.8"/><path class="ar" d="M389.3,145.6a91.1,91.1,0,0,1,46.1,10.2l11.6-20a114.3,114.3,0,0,0-57.7-13.3v23.2h0Z"/><path class="as" d="M389.3,145.6a91.1,91.1,0,0,1,46.1,10.2"/><path class="o" d="M389.3,119.9a116.8,116.8,0,0,1,59,13.7l11.6-20.1a140,140,0,0,0-70.6-16.8v23.2Z"/><path class="at" d="M389.3,119.9a116.8,116.8,0,0,1,59,13.7"/><path class="ae" d="M389.3,94.1a142.6,142.6,0,0,1,71.9,17.1l11.6-20.1A165.8,165.8,0,0,0,389.3,71V94.1Z"/><path class="au" d="M389.3,94.1a142.6,142.6,0,0,1,71.9,17.1"/><path class="av" d="M389.3,68.4A168.3,168.3,0,0,1,474,89l11.6-20.1a191.5,191.5,0,0,0-96.3-23.7V68.4Z"/><path class="aw" d="M389.3,68.4A168.3,168.3,0,0,1,474,89"/><path class="au" d="M389.3,42.7a194.1,194.1,0,0,1,97.6,24"/><rect class="k" x="20" y="89.9" width="15" height="29"/><rect class="l" x="20" y="120.8" width="15" height="29"/><rect class="ar" x="20" y="151.6" width="15" height="29"/><rect class="o" x="20" y="182.6" width="15" height="29"/><rect class="d" x="20" y="213.2" width="15" height="29"/><rect class="i" x="20" y="244.1" width="15" height="29"/><rect class="r" x="20" y="275.2" width="15" height="29"/><rect class="ai" x="20" y="306.1" width="15" height="29"/><rect class="ac" x="20" y="337" width="15" height="29"/><text class="ax" transform="translate(439.7 18.6)">Jan</text><text class="ax" transform="translate(540.1 76.1)">Feb</text><text class="ay" transform="translate(393 64)">2018</text><text class="ay" transform="translate(393 90.4)">2017</text><text class="ay" transform="translate(393 114.9)">2016</text><text class="az" transform="translate(393 142.5)">2015</text><text class="ay" transform="translate(393 165.9)">2014</text><text class="ax" transform="translate(599.6 176.9)">Mar</text><text class="ax" transform="translate(599.6 292.1)">Apr</text><text class="ax" transform="translate(541 391.4)">May</text><text class="ax" transform="translate(312.2 449.8)">Jul</text><text class="ax" transform="translate(439.7 450.1)">Jun</text><text class="ax" transform="translate(210.4 392.3)">Aug</text><text class="ax" transform="translate(148.2 292.1)">Sep</text><text class="ax" transform="translate(150.5 176.9)">Oct</text><text class="ax" transform="translate(205.7 76.3)">Nov</text><text class="ax" transform="translate(276.6 30.5)">Dec</text><text class="ax" transform="translate(44.7 96.7)">150</text><text class="ax" transform="translate(44.7 187.9)">100</text><text class="ax" transform="translate(44.7 279.6)">50</text><text class="ax" transform="translate(44.7 373.4)">0</text></svg>