<svg enable-background="new 0 0 1280 418" viewBox="0 0 1280 418" xmlns="http://www.w3.org/2000/svg"><path d="m981.1 161.3c9.9 4.9 18.3 12.4 24.4 21.6l18.7-10.8c-8-12.5-19.1-22.6-32.3-29.5z" fill="#898998"/><path d="m1005.5 182.9c6.3 9.5 9.9 20.5 10.5 31.9h21.6c-.6-15.1-5.3-29.9-13.4-42.6z" fill="#babac9"/><path d="m1016.2 214.8c.7 11.7-1.8 23.4-7.1 33.9l18.7 10.8c7.2-13.7 10.6-29.1 10-44.6z" fill="#484857"/><path d="m1009 248.7c-5.5 10.8-13.7 20-23.9 26.6l10.8 18.7c13.4-8.5 24.4-20.3 31.8-34.4z" fill="#e9e9f8"/><path d="m985.1 275.2c-10.4 6.8-22.5 10.7-34.9 11.3v21.6c16.2-.6 32-5.5 45.8-14.2z" fill="#9d9dac"/><path d="m950.2 286.5c-12.8.7-25.6-2.1-37-7.9l-10.8 18.7c14.7 7.7 31.2 11.4 47.8 10.8z" fill="#eeeefd"/><path d="m913.2 278.7c-11.7-6-21.7-15-28.8-26l-18.7 10.8c9 14.3 21.7 26 36.7 33.8z" fill="#9999a8"/><path d="m884.4 252.7c-7.3-11.3-11.6-24.4-12.2-37.9h-21.6c.7 17.2 5.9 34 15.1 48.6z" fill="#838392"/><path d="m872.2 214.8c-.7-13.8 2.4-27.6 8.8-39.9l-18.7-10.8c-8.3 15.6-12.3 33-11.6 50.6z" fill="#e6e6f5"/><path d="m881 174.9c6.5-12.6 16.3-23.3 28.2-30.9l-10.8-18.7c-15.3 9.5-27.7 22.9-36.2 38.7z" fill="#e3e3f2"/><path d="m909.2 144.1c12.3-7.8 26.4-12.3 41-12.9v-21.6c-18.4.6-36.2 6.1-51.8 15.8z" fill="#40404f"/><path d="m993.2 140.5c13.5 7 25 17.5 33.2 30.4l18.7-10.8c-10.1-16.1-24.3-29.3-41.1-38.2z" fill="#595968"/><path d="m1026.3 170.9c8.4 13.2 13.1 28.3 13.8 43.9h21.6c-.6-19.4-6.4-38.2-16.7-54.6z" fill="#eeeefd"/><path d="m1040.1 214.8c.6 15.9-2.9 31.7-10.3 45.8l18.7 10.8c9.3-17.4 13.9-36.9 13.2-56.6z" fill="#c5c5d4"/><path d="m1029.8 260.7c-7.6 14.4-18.8 26.6-32.6 35.3l10.8 18.7c17.1-10.6 31.1-25.5 40.5-43.2z" fill="#f0f0ff"/><path d="m997.2 295.9c-14.1 8.9-30.3 13.9-47 14.6v21.5c20.5-.7 40.4-6.7 57.8-17.5z" fill="#c9c9d8"/><path d="m950.2 310.5c-17 .7-33.9-3.1-49-11.1l-10.8 18.7c18.3 9.8 38.9 14.6 59.7 13.9z" fill="#e9e9f8"/><path d="m901.2 299.3c-15.4-8.1-28.3-20.1-37.6-34.7l-18.7 10.8c11.1 18 26.8 32.7 45.5 42.6z" fill="#828291"/><path d="m863.6 264.6c-9.4-15-14.7-32.1-15.4-49.8h-21.6c.6 21.4 6.9 42.3 18.3 60.6z" fill="#6a6a79"/><path d="m848.3 214.8c-.7-18 3.4-35.9 11.9-51.8l-18.7-10.8c-10.4 19.2-15.5 40.8-14.8 62.6z" fill="#a8a8b7"/><path d="m860.2 162.9c8.6-16.2 21.4-29.9 37.1-39.7l-10.8-18.7c-18.9 11.6-34.4 28.1-44.9 47.6z" fill="#b9b9c8"/><path d="m897.2 123.4c15.9-9.9 34.2-15.5 52.9-16.2v-21.6c-22.6.7-44.5 7.2-63.7 19z" fill="#a8a8b7"/><path d="m1005.2 119.8c17.2 9.1 31.6 22.6 41.9 39.1l18.7-10.8c-12.2-19.8-29.4-36-49.9-47z" fill="#e4e4f3"/><path d="m1047.1 159c10.5 16.8 16.3 36.1 17 55.8h21.6c-.6-23.5-7.5-46.5-19.8-66.5z" fill="#616170"/><path d="m1064.1 214.8c.7 20.1-4 40-13.5 57.8l18.7 10.8c11.4-21 17.1-44.7 16.4-68.6z" fill="#d8d8e7"/><path d="m1050.6 272.6c-9.7 18.1-24 33.2-41.5 44l10.8 18.7c20.7-12.7 37.7-30.6 49.3-51.9z" fill="#d2d2e1"/><path d="m1009.2 316.6c-17.8 11-38.1 17.1-59 17.7v21.6c24.7-.6 48.8-7.8 69.8-20.6z" fill="#8d8d9c"/><path d="m950.2 334.3c-21.3.7-42.3-4.3-61-14.3l-10.8 18.7c22 11.9 46.7 17.8 71.8 17.2z" fill="#dadae9"/><path d="m889.2 320c-19-10.2-35-25.2-46.4-43.5l-18.6 10.8c13.2 21.6 31.9 39.3 54.2 51.4z" fill="#9191a0"/><path d="m842.8 276.6c-11.5-18.6-18-39.9-18.6-61.8h-21.5c.6 25.6 8 50.7 21.4 72.6z" fill="#828291"/><path d="m824.2 214.8c-.7-22.2 4.5-44.2 15.1-63.7l-18.7-10.8c-12.4 22.8-18.6 48.5-17.9 74.5z" fill="#afafbe"/><path d="m839.4 151c10.8-19.9 26.6-36.6 45.8-48.4l-10.8-18.6c-22.6 13.7-41.1 33.2-53.8 56.3z" fill="#9999a8"/><path d="m885.2 102.6c19.6-12 42-18.7 64.9-19.3v-21.5c-26.8.6-52.9 8.3-75.8 22.2z" fill="#ececfb"/><path d="m1017.1 99.2c20.9 11.2 38.4 27.7 50.8 47.8l18.7-10.8c-14.3-23.4-34.5-42.6-58.6-55.7z" fill="#9999a8"/><path d="m1067.9 147c12.6 20.4 19.6 43.8 20.2 67.7h21.6c-.7-27.7-8.6-54.8-23.1-78.5z" fill="#434352"/><path d="m1088.1 214.8c.7 24.3-5.1 48.4-16.8 69.8l18.7 10.8c13.5-24.7 20.3-52.4 19.7-80.6z" fill="#d2d2e1"/><path d="m1071.3 284.5c-11.8 21.7-29.1 39.9-50.2 52.8l10.8 18.7c24.4-14.8 44.4-35.7 58.1-60.7z" fill="#5d5d6c"/><path d="m1021.1 337.3c-21.4 13.1-45.9 20.3-71 20.9v21.6c28.9-.6 57.1-8.8 81.8-23.8z" fill="#dfdfee"/><path d="m950.2 358.3c-25.4.6-50.6-5.4-73-17.6l-10.8 18.7c25.6 14 54.5 21 83.8 20.3z" fill="#dadae9"/><path d="m877.2 340.8c-22.7-12.3-41.7-30.3-55.2-52.2l-18.7 10.8c15.4 25.2 37.1 45.9 63.1 60.1z" fill="#ddddec"/><path d="m822.1 288.5c-13.6-22.3-21.2-47.7-21.8-73.8h-21.6c.6 29.9 9.2 59 24.7 84.5z" fill="#5e5e6d"/><path d="m800.3 214.8c-.7-26.4 5.7-52.5 18.4-75.7l-18.7-10.8c-14.6 26.5-21.9 56.3-21.2 86.5z" fill="#aeaebd"/><path d="m818.6 139.1c12.9-23.5 31.7-43.2 54.6-57.1l-10.8-18.7c-26.2 15.8-47.8 38.3-62.5 65z" fill="#747483"/><path d="m873.2 81.9c23.2-14.1 49.8-21.9 77-22.6v-21.5c-31 .7-61.3 9.4-87.8 25.5z" fill="#efeffe"/><path d="m1029.1 78.5c24.5 13.3 45 32.9 59.5 56.7l18.7-10.9c-16.4-27-39.7-49.3-67.5-64.5z" fill="#a7a7b6"/><path d="m1088.7 135.1c14.7 24.1 22.7 51.6 23.4 79.7h21.6c-.6-31.9-9.7-63.2-26.3-90.5z" fill="#747483"/><path d="m1112.1 214.8c.7 28.5-6.2 56.7-19.9 81.7l18.7 10.8c15.6-28.3 23.5-60.2 22.8-92.4z" fill="#f0f0ff"/><path d="m1092.1 296.5c-13.9 25.3-34.2 46.5-59 61.5l10.8 18.7c28-16.9 51.1-40.8 66.9-69.4z" fill="#e6e6f5"/><path d="m1033.1 358c-25 15.2-53.6 23.5-82.9 24.2v21.6c33.1-.6 65.4-10 93.7-27z" fill="#d8d8e7"/><path d="m950.2 382.2c-29.7.7-59-6.5-85-20.7l-10.8 18.7c29.3 16.1 62.3 24.2 95.7 23.6z" fill="#dbdbea"/><path d="m865.2 361.5c-26.3-14.4-48.3-35.4-63.9-60.9l-18.7 10.8c17.5 28.8 42.2 52.6 71.8 68.8z" fill="#b8b8c7"/><path d="m801.3 300.5c-15.8-25.9-24.4-55.4-25.1-85.7h-21.5c.7 34 10.3 67.3 28 96.4z" fill="#e5e5f4"/><path d="m776.3 214.8c-.7-30.6 6.8-60.9 21.5-87.7l-18.7-10.8c-16.7 30.1-25.1 64.1-24.4 98.5z" fill="#e1e1f0"/><path d="m797.8 127.1c14.9-27.2 36.8-49.9 63.4-66l-10.8-18.6c-29.8 17.9-54.4 43.4-71.3 73.8z" fill="#c5c5d4"/><path d="m861.2 61.2c26.9-16.2 57.6-25.1 89-25.7v-21.6c-35.2.6-69.6 10.5-99.7 28.6z" fill="#9999a8"/><path d="m950.2 155c10.7-.6 21.4 1.5 30.9 6.3l10.8-18.7c-12.9-6.7-27.3-9.8-41.7-9.2z" fill="#ccccdb"/><path d="m950.2 155c10.7-.6 21.4 1.5 30.9 6.3" fill="none"/><path d="m950.2 131.1c14.9-.7 29.7 2.6 43 9.5l10.8-18.6c-16.5-8.8-35.1-13-53.8-12.4z" fill="#6b6b7a"/><path d="m950.2 131.1c14.9-.7 29.7 2.6 43 9.5" fill="none"/><path d="m950.2 107.2c19.1-.7 38.1 3.7 55 12.7l10.8-18.7c-20.2-10.9-42.9-16.3-65.8-15.6z" fill="#c9c9d8"/><path d="m950.2 107.2c19.1-.7 38.1 3.7 55 12.7" fill="none"/><path d="m950.2 83.2c23.3-.7 46.5 4.8 67 15.9l10.8-18.7c-23.8-12.9-50.7-19.4-77.8-18.7z" fill="#dfdfee"/><path d="m950.2 83.2c23.3-.7 46.5 4.8 67 15.9" fill="none"/><path d="m950.2 59.3c27.5-.6 54.8 6 78.9 19.1l10.8-18.7c-27.5-15.1-58.4-22.7-89.7-22z" fill="#eaeaf9"/><path d="m950.2 59.3c27.5-.6 54.8 6 78.9 19.1" fill="none"/><path d="m950.2 35.5c31.8-.7 63.1 7 90.9 22.3" fill="none"/><path d="m606.1 79.3h14v26.9h-14z" fill="#40404f"/><path d="m606.1 108h14v26.9h-14z" fill="#595968"/><path d="m606.1 136.6h14v26.9h-14z" fill="#6b6b7a"/><path d="m606.1 165.4h14v26.9h-14z" fill="#c9c9d8"/><path d="m606.1 193.9h14v26.9h-14z" fill="#e9e9f8"/><path d="m606.1 222.6h14v26.9h-14z" fill="#e6e6f5"/><path d="m606.1 251.5h14v26.9h-14z" fill="#a8a8b7"/><path d="m606.1 280.2h14v26.9h-14z" fill="#747483"/><path d="m606.1 308.9h14v26.9h-14z" fill="#434352"/><text fill="#ccc" font-family="'RobotoMono-Regular'" font-size="14.8651" transform="matrix(1.003 0 0 1 997.1602 13.0718)">Jan</text><text fill="#ccc" font-family="'RobotoMono-Regular'" font-size="14.8651" transform="matrix(1.003 0 0 1 1090.7158 66.4927)">Feb</text><text fill="#9b9b9b" font-family="'RobotoMono-Regular'" font-size="12.4681" transform="matrix(1.003 0 0 1 953.6455 55.251)">2018</text><text fill="#9b9b9b" font-family="'RobotoMono-Regular'" font-size="12.4681" transform="matrix(1.003 0 0 1 953.6455 79.7788)">2017</text><text fill="#9b9b9b" font-family="'RobotoMono-Regular'" font-size="12.4681" transform="matrix(1.003 0 0 1 953.6455 102.541)">2016</text><text fill="#9b9b9b" font-family="'RobotoMono-Regular'" font-size="12.4681" transform="matrix(1.003 0 0 1 953.6455 128.1826)">2015</text><text fill="#9b9b9b" font-family="'RobotoMono-Regular'" font-size="12.4681" transform="matrix(1.003 0 0 1 953.6455 149.9229)">2014</text><text fill="#ccc" font-family="'RobotoMono-Regular'" font-size="14.8651" transform="matrix(1.003 0 0 1 1146.1602 160.1426)">Mar</text><text fill="#ccc" font-family="'RobotoMono-Regular'" font-size="14.8651" transform="matrix(1.003 0 0 1 1146.1602 267.1719)">Apr</text><text fill="#ccc" font-family="'RobotoMono-Regular'" font-size="14.8651" transform="matrix(1.003 0 0 1 1091.5547 359.4277)">May</text><text fill="#ccc" font-family="'RobotoMono-Regular'" font-size="14.8651" transform="matrix(1.003 0 0 1 878.3535 413.6855)">Jul</text><text fill="#ccc" font-family="'RobotoMono-Regular'" font-size="14.8651" transform="matrix(1.003 0 0 1 997.1602 413.9639)">Jun</text><text fill="#ccc" font-family="'RobotoMono-Regular'" font-size="14.8651" transform="matrix(1.003 0 0 1 783.4932 360.2637)">Aug</text><text fill="#ccc" font-family="'RobotoMono-Regular'" font-size="14.8651" transform="matrix(1.003 0 0 1 725.5332 267.1719)">Sep</text><text fill="#ccc" font-family="'RobotoMono-Regular'" font-size="14.8651" transform="matrix(1.003 0 0 1 727.6768 160.1426)">Oct</text><text fill="#ccc" font-family="'RobotoMono-Regular'" font-size="14.8651" transform="matrix(1.003 0 0 1 779.1133 66.6787)">Nov</text><text fill="#ccc" font-family="'RobotoMono-Regular'" font-size="14.8651" transform="matrix(1.003 0 0 1 845.1797 24.1274)">Dec</text><path d="m344.4 161.3c9.9 4.9 18.3 12.4 24.4 21.6l18.7-10.8c-8-12.5-19.1-22.6-32.3-29.5z" fill="#898998"/><path d="m368.8 182.9c6.3 9.5 9.9 20.5 10.5 31.9h21.7c-.6-15.1-5.3-29.9-13.4-42.6z" fill="#babac9"/><path d="m379.4 214.8c.7 11.7-1.8 23.4-7.1 33.9l18.7 10.8c7.2-13.7 10.6-29.1 10-44.6z" fill="#484857"/><path d="m372.3 248.7c-5.5 10.8-13.7 20-23.9 26.6l10.8 18.7c13.4-8.5 24.4-20.3 31.8-34.4z" fill="#e9e9f8"/><path d="m348.4 275.2c-10.4 6.8-22.5 10.7-34.9 11.3v21.6c16.2-.6 32-5.5 45.8-14.2z" fill="#9d9dac"/><path d="m313.5 286.5c-12.8.7-25.6-2.1-37-7.9l-10.8 18.7c14.7 7.7 31.2 11.4 47.8 10.8z" fill="#eeeefd"/><path d="m276.5 278.7c-11.7-6-21.7-15-28.8-26l-18.7 10.8c9 14.3 21.7 26 36.7 33.8z" fill="#9999a8"/><path d="m247.7 252.7c-7.3-11.3-11.6-24.4-12.2-37.9h-21.6c.7 17.2 5.9 34 15.1 48.6z" fill="#838392"/><path d="m235.5 214.8c-.7-13.8 2.4-27.6 8.8-39.9l-18.7-10.8c-8.3 15.6-12.3 33-11.6 50.6z" fill="#e6e6f5"/><path d="m244.2 174.9c6.5-12.6 16.3-23.3 28.2-30.9l-10.8-18.7c-15.3 9.5-27.7 22.9-36.2 38.7z" fill="#e3e3f2"/><path d="m272.5 144.1c12.3-7.8 26.4-12.3 41-12.9v-21.6c-18.4.6-36.2 6.1-51.8 15.8z" fill="#40404f"/><path d="m356.4 140.5c13.5 7 25 17.5 33.2 30.4l18.7-10.8c-10.1-16.1-24.3-29.3-41.1-38.2z" fill="#595968"/><path d="m389.6 170.9c8.4 13.2 13.1 28.3 13.8 43.9h21.6c-.6-19.4-6.4-38.2-16.7-54.6z" fill="#eeeefd"/><path d="m403.4 214.8c.6 15.9-2.9 31.7-10.3 45.8l18.7 10.8c9.3-17.4 13.9-36.9 13.2-56.6z" fill="#c5c5d4"/><path d="m393 260.7c-7.6 14.4-18.8 26.6-32.6 35.3l10.8 18.7c17.1-10.6 31.1-25.5 40.5-43.2z" fill="#f0f0ff"/><path d="m360.4 295.9c-14.1 8.9-30.3 13.9-47 14.6v21.5c20.5-.7 40.4-6.7 57.8-17.5z" fill="#c9c9d8"/><path d="m313.5 310.5c-17 .7-33.9-3.1-49-11.1l-10.8 18.7c18.3 9.8 38.9 14.6 59.7 13.9z" fill="#e9e9f8"/><path d="m264.5 299.3c-15.4-8.1-28.3-20.1-37.6-34.7l-18.7 10.8c11.1 18 26.8 32.7 45.5 42.6z" fill="#828291"/><path d="m226.9 264.6c-9.4-15-14.7-32.1-15.4-49.8h-21.6c.6 21.4 6.9 42.3 18.3 60.6z" fill="#6a6a79"/><path d="m211.5 214.8c-.7-18 3.4-35.9 11.9-51.8l-18.7-10.8c-10.4 19.2-15.5 40.8-14.8 62.6z" fill="#a8a8b7"/><path d="m223.5 162.9c8.6-16.2 21.4-29.9 37.1-39.7l-10.8-18.7c-18.9 11.6-34.4 28.1-44.9 47.6z" fill="#b9b9c8"/><path d="m260.4 123.4c15.9-9.9 34.2-15.5 52.9-16.2v-21.6c-22.6.7-44.5 7.2-63.7 19z" fill="#a8a8b7"/><path d="m368.4 119.8c17.2 9.1 31.6 22.6 41.9 39.1l18.7-10.8c-12.2-19.8-29.4-36-49.9-47z" fill="#e4e4f3"/><path d="m410.4 159c10.5 16.8 16.3 36.1 17 55.8h21.6c-.6-23.5-7.5-46.5-19.8-66.5z" fill="#616170"/><path d="m427.3 214.8c.7 20.1-4 40-13.5 57.8l18.7 10.8c11.4-21 17.1-44.7 16.4-68.6z" fill="#d8d8e7"/><path d="m413.8 272.6c-9.7 18.1-24 33.2-41.5 44l10.8 18.7c20.7-12.7 37.7-30.6 49.3-51.9z" fill="#d2d2e1"/><path d="m372.5 316.6c-17.8 11-38.1 17.1-59 17.7v21.6c24.7-.6 48.8-7.8 69.8-20.6z" fill="#8d8d9c"/><path d="m313.5 334.3c-21.3.7-42.3-4.3-61-14.3l-10.8 18.7c22 11.9 46.7 17.8 71.8 17.2z" fill="#dadae9"/><path d="m252.4 320c-19-10.2-35-25.2-46.4-43.5l-18.6 10.8c13.2 21.6 31.9 39.3 54.2 51.4z" fill="#9191a0"/><path d="m206.1 276.6c-11.5-18.6-18-39.9-18.6-61.8h-21.5c.6 25.6 8 50.7 21.4 72.6z" fill="#828291"/><path d="m187.5 214.8c-.7-22.2 4.5-44.2 15.1-63.7l-18.7-10.8c-12.4 22.8-18.6 48.5-17.9 74.5z" fill="#afafbe"/><path d="m202.7 151c10.8-19.9 26.6-36.6 45.8-48.4l-10.8-18.6c-22.6 13.7-41.1 33.2-53.8 56.3z" fill="#9999a8"/><path d="m248.5 102.6c19.6-12 42-18.7 64.9-19.3v-21.5c-26.8.6-52.9 8.3-75.8 22.2z" fill="#ececfb"/><path d="m380.4 99.2c20.9 11.2 38.4 27.7 50.8 47.8l18.7-10.8c-14.3-23.4-34.5-42.6-58.6-55.7z" fill="#9999a8"/><path d="m431.2 147c12.6 20.4 19.6 43.8 20.2 67.7h21.6c-.7-27.7-8.6-54.8-23.1-78.5z" fill="#434352"/><path d="m451.4 214.8c.7 24.3-5.1 48.4-16.8 69.8l18.7 10.8c13.5-24.7 20.3-52.4 19.7-80.6z" fill="#d2d2e1"/><path d="m434.6 284.5c-11.8 21.7-29.1 39.9-50.2 52.8l10.8 18.7c24.4-14.8 44.4-35.7 58.1-60.7z" fill="#5d5d6c"/><path d="m384.4 337.3c-21.4 13.1-45.9 20.3-71 20.9v21.6c28.9-.6 57.1-8.8 81.8-23.8z" fill="#dfdfee"/><path d="m313.5 358.3c-25.4.6-50.6-5.4-73-17.6l-10.8 18.7c25.6 14 54.5 21 83.8 20.3z" fill="#dadae9"/><path d="m240.5 340.8c-22.7-12.3-41.7-30.3-55.2-52.2l-18.7 10.8c15.4 25.2 37.1 45.9 63.1 60.1z" fill="#ddddec"/><path d="m185.3 288.5c-13.6-22.3-21.2-47.7-21.8-73.8h-21.6c.6 29.9 9.2 59 24.7 84.5z" fill="#5e5e6d"/><path d="m163.5 214.8c-.7-26.4 5.7-52.5 18.4-75.7l-18.7-10.8c-14.6 26.5-21.9 56.3-21.2 86.5z" fill="#aeaebd"/><path d="m181.9 139.1c12.9-23.5 31.7-43.2 54.6-57.1l-10.8-18.7c-26.2 15.8-47.8 38.3-62.5 65z" fill="#747483"/><path d="m236.5 81.9c23.2-14.1 49.8-21.9 77-22.6v-21.5c-31 .7-61.3 9.4-87.8 25.5z" fill="#efeffe"/><path d="m392.4 78.5c24.5 13.3 45 32.9 59.5 56.7l18.7-10.9c-16.4-27-39.7-49.3-67.5-64.5z" fill="#a7a7b6"/><path d="m451.9 135.1c14.7 24.1 22.7 51.6 23.4 79.7h21.6c-.6-31.9-9.7-63.2-26.3-90.5z" fill="#747483"/><path d="m475.3 214.8c.7 28.5-6.2 56.7-19.9 81.7l18.7 10.8c15.6-28.3 23.5-60.2 22.8-92.4z" fill="#f0f0ff"/><path d="m455.4 296.5c-13.9 25.3-34.2 46.5-59 61.5l10.8 18.7c28-16.9 51.1-40.8 66.9-69.4z" fill="#e6e6f5"/><path d="m396.4 358c-25 15.2-53.6 23.5-82.9 24.2v21.6c33.1-.6 65.4-10 93.7-27z" fill="#d8d8e7"/><path d="m313.5 382.2c-29.7.7-59-6.5-85-20.7l-10.8 18.7c29.3 16.1 62.3 24.2 95.7 23.6z" fill="#dbdbea"/><path d="m228.5 361.5c-26.3-14.4-48.3-35.4-63.9-60.9l-18.7 10.8c17.5 28.8 42.2 52.6 71.8 68.8z" fill="#b8b8c7"/><path d="m164.6 300.5c-15.8-25.9-24.4-55.4-25.1-85.7h-21.5c.7 34 10.3 67.3 28 96.4z" fill="#e5e5f4"/><path d="m139.6 214.8c-.7-30.6 6.8-60.9 21.5-87.7l-18.7-10.8c-16.7 30.1-25.1 64.1-24.4 98.5z" fill="#e1e1f0"/><path d="m161.1 127.1c14.9-27.2 36.8-49.9 63.4-66l-10.8-18.6c-29.8 17.9-54.4 43.4-71.3 73.8z" fill="#c5c5d4"/><path d="m224.5 61.2c26.9-16.2 57.6-25.1 89-25.7v-21.6c-35.2.6-69.6 10.5-99.7 28.6z" fill="#9999a8"/><path d="m313.5 155c10.7-.6 21.4 1.5 30.9 6.3l10.8-18.7c-12.9-6.7-27.3-9.8-41.7-9.2z" fill="#ccccdb"/><path d="m313.5 155c10.7-.6 21.4 1.5 30.9 6.3" fill="none"/><path d="m313.5 131.1c14.9-.7 29.7 2.6 43 9.5l10.8-18.6c-16.5-8.8-35.1-13-53.8-12.4z" fill="#6b6b7a"/><path d="m313.5 131.1c14.9-.7 29.7 2.6 43 9.5" fill="none"/><path d="m313.5 107.2c19.1-.7 38.1 3.7 55 12.7l10.8-18.7c-20.2-10.9-42.9-16.3-65.8-15.6z" fill="#c9c9d8"/><path d="m313.5 107.2c19.1-.7 38.1 3.7 55 12.7" fill="none"/><path d="m313.5 83.2c23.3-.7 46.5 4.8 67 15.9l10.8-18.7c-23.8-12.9-50.7-19.4-77.8-18.7z" fill="#dfdfee"/><path d="m313.5 83.2c23.3-.7 46.5 4.8 67 15.9" fill="none"/><path d="m313.5 59.3c27.5-.6 54.8 6 78.9 19.1l10.8-18.7c-27.5-15.1-58.4-22.7-89.7-22z" fill="#eaeaf9"/><path d="m313.5 59.3c27.5-.6 54.8 6 78.9 19.1" fill="none"/><path d="m313.5 35.5c31.8-.7 63.1 7 90.9 22.3" fill="none"/><g font-family="'RobotoMono-Regular'"><text fill="#ccc" font-size="14.8651" transform="matrix(1.003 0 0 1 360.4297 13.0718)">Jan</text><text fill="#ccc" font-size="14.8651" transform="matrix(1.003 0 0 1 453.9849 66.4927)">Feb</text><text fill="#9b9b9b" font-size="12.4681" transform="matrix(1.003 0 0 1 316.9146 55.251)">2018</text><text fill="#9b9b9b" font-size="12.4681" transform="matrix(1.003 0 0 1 316.9146 79.7788)">2017</text><text fill="#9b9b9b" font-size="12.4681" transform="matrix(1.003 0 0 1 316.9146 102.541)">2016</text><text fill="#9b9b9b" font-size="12.4681" transform="matrix(1.003 0 0 1 316.9146 128.1826)">2015</text><text fill="#9b9b9b" font-size="12.4681" transform="matrix(1.003 0 0 1 316.9146 149.9229)">2014</text><text fill="#ccc" font-size="14.8651" transform="matrix(1.003 0 0 1 509.4292 160.1426)">Mar</text><text fill="#ccc" font-size="14.8651" transform="matrix(1.003 0 0 1 509.4292 267.1719)">Apr</text><text fill="#ccc" font-size="14.8651" transform="matrix(1.003 0 0 1 454.8237 359.4277)">May</text><text fill="#ccc" font-size="14.8651" transform="matrix(1.003 0 0 1 241.6226 413.6855)">Jul</text><text fill="#ccc" font-size="14.8651" transform="matrix(1.003 0 0 1 360.4297 413.9639)">Jun</text><text fill="#ccc" font-size="14.8651" transform="matrix(1.003 0 0 1 146.7622 360.2637)">Aug</text><text fill="#ccc" font-size="14.8651" transform="matrix(1.003 0 0 1 88.8027 267.1719)">Sep</text><text fill="#ccc" font-size="14.8651" transform="matrix(1.003 0 0 1 90.9458 160.1426)">Oct</text><text fill="#ccc" font-size="14.8651" transform="matrix(1.003 0 0 1 142.3828 66.6787)">Nov</text><text fill="#ccc" font-size="14.8651" transform="matrix(1.003 0 0 1 208.4492 24.1274)">Dec</text><text fill="#ccc" font-size="14.8651" transform="matrix(1.003 0 0 1 629.0894 85.6313)">150</text><text fill="#ccc" font-size="14.8651" transform="matrix(1.003 0 0 1 629.0894 170.3623)">100</text><text fill="#ccc" font-size="14.8651" transform="matrix(1.003 0 0 1 629.0894 255.5586)">50</text><text fill="#ccc" font-size="14.8651" transform="matrix(1.003 0 0 1 629.0894 342.7051)">0</text></g></svg>