<?xml version="1.0" encoding="utf-8"?>
<!-- Generator: Adobe Illustrator 19.2.0, SVG Export Plug-In . SVG Version: 6.00 Build 0)  -->
<svg version="1.1" id="Layer_1" xmlns="http://www.w3.org/2000/svg" xmlns:xlink="http://www.w3.org/1999/xlink" x="0px" y="0px"
	 width="1200px" height="1114px" viewBox="0 0 1200 1114" enable-background="new 0 0 1200 1114" xml:space="preserve">
<g>
	<path fill="#464A90" d="M408.505,186.01c0,8.722,7.102,15.824,15.824,15.824c8.722,0,15.824-7.101,15.824-15.824
		c0-8.722-7.101-15.824-15.824-15.824C415.606,170.186,408.505,177.288,408.505,186.01z M464.313,225.686v48.398
		c0,3.937-3.01,6.947-6.947,6.947c-3.937,0-6.947-3.165-6.947-6.947v-44.461c0-1.081-0.926-2.007-2.007-2.007
		s-2.007,0.926-2.007,2.007v119.799c0,5.944-4.4,10.807-9.88,10.807c-5.48,0-9.88-4.863-9.88-10.807v-68.313
		c0-1.081-0.926-2.007-2.007-2.007s-2.007,0.926-2.007,2.007v68.313c0,5.944-4.4,10.807-9.88,10.807c-5.48,0-9.88-4.863-9.88-10.807
		V229.623c0-1.081-0.926-2.007-2.007-2.007s-2.007,0.926-2.007,2.007v44.384c0,3.937-3.01,6.947-6.947,6.947
		c-3.937,0-6.947-3.165-6.947-6.947v-48.321c0-10.961,8.8-19.761,19.761-19.761h39.521
		C454.973,205.925,464.004,214.725,464.313,225.686z"/>
	<path fill="#464A90" d="M530.952,186.01c0,8.722,7.101,15.824,15.824,15.824s15.824-7.101,15.824-15.824
		c0-8.722-7.102-15.824-15.824-15.824S530.952,177.288,530.952,186.01z M586.761,225.686v48.398c0,3.937-3.01,6.947-6.947,6.947
		c-3.937,0-6.947-3.165-6.947-6.947v-44.461c0-1.081-0.926-2.007-2.007-2.007c-1.081,0-2.007,0.926-2.007,2.007v119.799
		c0,5.944-4.4,10.807-9.88,10.807c-5.481,0-9.88-4.863-9.88-10.807v-68.313c0-1.081-0.926-2.007-2.007-2.007
		c-1.081,0-2.007,0.926-2.007,2.007v68.313c0,5.944-4.4,10.807-9.88,10.807s-9.88-4.863-9.88-10.807V229.623
		c0-1.081-0.926-2.007-2.007-2.007c-1.081,0-2.007,0.926-2.007,2.007v44.384c0,3.937-3.01,6.947-6.947,6.947
		c-3.937,0-6.947-3.165-6.947-6.947v-48.321c0-10.961,8.8-19.761,19.761-19.761h39.521
		C577.421,205.925,586.452,214.725,586.761,225.686z"/>
	<path fill="#464A90" d="M653.4,186.01c0,8.722,7.101,15.824,15.824,15.824s15.824-7.101,15.824-15.824
		c0-8.722-7.102-15.824-15.824-15.824S653.4,177.288,653.4,186.01z M709.208,225.686v48.398c0,3.937-3.01,6.947-6.947,6.947
		c-3.937,0-6.947-3.165-6.947-6.947v-44.461c0-1.081-0.926-2.007-2.007-2.007c-1.081,0-2.007,0.926-2.007,2.007v119.799
		c0,5.944-4.4,10.807-9.88,10.807c-5.481,0-9.88-4.863-9.88-10.807v-68.313c0-1.081-0.926-2.007-2.007-2.007
		s-2.007,0.926-2.007,2.007v68.313c0,5.944-4.4,10.807-9.88,10.807c-5.48,0-9.88-4.863-9.88-10.807V229.623
		c0-1.081-0.926-2.007-2.007-2.007c-1.081,0-2.007,0.926-2.007,2.007v44.384c0,3.937-3.01,6.947-6.947,6.947
		c-3.937,0-6.947-3.165-6.947-6.947v-48.321c0-10.961,8.8-19.761,19.761-19.761h39.521
		C699.868,205.925,708.9,214.725,709.208,225.686z"/>
	<path fill="#464A90" d="M775.848,186.01c0,8.722,7.102,15.824,15.824,15.824c8.722,0,15.824-7.101,15.824-15.824
		c0-8.722-7.102-15.824-15.824-15.824S775.848,177.288,775.848,186.01z M831.656,225.686v48.398c0,3.937-3.01,6.947-6.947,6.947
		c-3.937,0-6.947-3.165-6.947-6.947v-44.461c0-1.081-0.926-2.007-2.007-2.007c-1.081,0-2.007,0.926-2.007,2.007v119.799
		c0,5.944-4.4,10.807-9.88,10.807s-9.88-4.863-9.88-10.807v-68.313c0-1.081-0.926-2.007-2.007-2.007
		c-1.081,0-2.007,0.926-2.007,2.007v68.313c0,5.944-4.4,10.807-9.88,10.807c-5.48,0-9.88-4.863-9.88-10.807V229.623
		c0-1.081-0.926-2.007-2.007-2.007c-1.081,0-2.007,0.926-2.007,2.007v44.384c0,3.937-3.01,6.947-6.947,6.947
		c-3.937,0-6.947-3.165-6.947-6.947v-48.321c0-10.961,8.8-19.761,19.761-19.761h39.521
		C822.316,205.925,831.347,214.725,831.656,225.686z"/>
	<path fill="#464A90" d="M898.295,186.01c0,8.722,7.102,15.824,15.824,15.824c8.722,0,15.824-7.101,15.824-15.824
		c0-8.722-7.102-15.824-15.824-15.824C905.397,170.186,898.295,177.288,898.295,186.01z M954.104,225.686v48.398
		c0,3.937-3.01,6.947-6.947,6.947c-3.937,0-6.947-3.165-6.947-6.947v-44.461c0-1.081-0.926-2.007-2.007-2.007
		c-1.081,0-2.007,0.926-2.007,2.007v119.799c0,5.944-4.4,10.807-9.88,10.807s-9.88-4.863-9.88-10.807v-68.313
		c0-1.081-0.926-2.007-2.007-2.007c-1.081,0-2.007,0.926-2.007,2.007v68.313c0,5.944-4.4,10.807-9.88,10.807
		c-5.48,0-9.88-4.863-9.88-10.807V229.623c0-1.081-0.926-2.007-2.007-2.007c-1.081,0-2.007,0.926-2.007,2.007v44.384
		c0,3.937-3.01,6.947-6.947,6.947c-3.937,0-6.947-3.165-6.947-6.947v-48.321c0-10.961,8.8-19.761,19.761-19.761h39.521
		C944.764,205.925,953.795,214.725,954.104,225.686z"/>
	<path fill="#AFB8E3" d="M1020.743,186.01c0,8.722,7.102,15.824,15.824,15.824c8.723,0,15.824-7.101,15.824-15.824
		c0-8.722-7.101-15.824-15.824-15.824C1027.845,170.186,1020.743,177.288,1020.743,186.01z M1076.551,225.686v48.398
		c0,3.937-3.01,6.947-6.947,6.947c-3.937,0-6.947-3.165-6.947-6.947v-44.461c0-1.081-0.926-2.007-2.007-2.007
		c-1.081,0-2.007,0.926-2.007,2.007v119.799c0,5.944-4.4,10.807-9.88,10.807s-9.88-4.863-9.88-10.807v-68.313
		c0-1.081-0.926-2.007-2.007-2.007c-1.081,0-2.007,0.926-2.007,2.007v68.313c0,5.944-4.4,10.807-9.88,10.807
		s-9.88-4.863-9.88-10.807V229.623c0-1.081-0.926-2.007-2.007-2.007c-1.081,0-2.007,0.926-2.007,2.007v44.384
		c0,3.937-3.01,6.947-6.947,6.947c-3.937,0-6.947-3.165-6.947-6.947v-48.321c0-10.961,8.8-19.761,19.761-19.761h39.521
		C1067.211,205.925,1076.243,214.725,1076.551,225.686z"/>
	<path fill="#AFB8E3" d="M1143.191,186.01c0,8.722,7.101,15.824,15.824,15.824c8.722,0,15.824-7.101,15.824-15.824
		c0-8.722-7.101-15.824-15.824-15.824C1150.292,170.186,1143.191,177.288,1143.191,186.01z M1198.999,225.686v48.398
		c0,3.937-3.01,6.947-6.947,6.947c-3.937,0-6.947-3.165-6.947-6.947v-44.461c0-1.081-0.926-2.007-2.007-2.007
		s-2.007,0.926-2.007,2.007v119.799c0,5.944-4.4,10.807-9.88,10.807c-5.48,0-9.88-4.863-9.88-10.807v-68.313
		c0-1.081-0.926-2.007-2.007-2.007s-2.007,0.926-2.007,2.007v68.313c0,5.944-4.4,10.807-9.88,10.807s-9.88-4.863-9.88-10.807
		V229.623c0-1.081-0.926-2.007-2.007-2.007c-1.081,0-2.007,0.926-2.007,2.007v44.384c0,3.937-3.01,6.947-6.947,6.947
		c-3.937,0-6.947-3.165-6.947-6.947v-48.321c0-10.961,8.8-19.761,19.761-19.761h39.521
		C1189.659,205.925,1198.69,214.725,1198.999,225.686z"/>
	<path fill="#464A90" d="M408.505,412.784c0,8.722,7.102,15.824,15.824,15.824c8.722,0,15.824-7.101,15.824-15.824
		s-7.101-15.824-15.824-15.824C415.606,396.961,408.505,404.062,408.505,412.784z M464.313,452.46v48.398
		c0,3.937-3.01,6.947-6.947,6.947c-3.937,0-6.947-3.165-6.947-6.947v-44.461c0-1.081-0.926-2.007-2.007-2.007
		s-2.007,0.926-2.007,2.007v119.799c0,5.944-4.4,10.807-9.88,10.807c-5.48,0-9.88-4.863-9.88-10.807v-68.313
		c0-1.081-0.926-2.007-2.007-2.007s-2.007,0.926-2.007,2.007v68.313c0,5.944-4.4,10.807-9.88,10.807c-5.48,0-9.88-4.863-9.88-10.807
		V456.397c0-1.081-0.926-2.007-2.007-2.007s-2.007,0.926-2.007,2.007v44.384c0,3.937-3.01,6.947-6.947,6.947
		c-3.937,0-6.947-3.165-6.947-6.947V452.46c0-10.961,8.8-19.761,19.761-19.761h39.521
		C454.973,432.699,464.004,441.499,464.313,452.46z"/>
	<path fill="#464A90" d="M530.952,412.784c0,8.722,7.101,15.824,15.824,15.824s15.824-7.101,15.824-15.824
		s-7.102-15.824-15.824-15.824S530.952,404.062,530.952,412.784z M586.761,452.46v48.398c0,3.937-3.01,6.947-6.947,6.947
		c-3.937,0-6.947-3.165-6.947-6.947v-44.461c0-1.081-0.926-2.007-2.007-2.007c-1.081,0-2.007,0.926-2.007,2.007v119.799
		c0,5.944-4.4,10.807-9.88,10.807c-5.481,0-9.88-4.863-9.88-10.807v-68.313c0-1.081-0.926-2.007-2.007-2.007
		c-1.081,0-2.007,0.926-2.007,2.007v68.313c0,5.944-4.4,10.807-9.88,10.807s-9.88-4.863-9.88-10.807V456.397
		c0-1.081-0.926-2.007-2.007-2.007c-1.081,0-2.007,0.926-2.007,2.007v44.384c0,3.937-3.01,6.947-6.947,6.947
		c-3.937,0-6.947-3.165-6.947-6.947V452.46c0-10.961,8.8-19.761,19.761-19.761h39.521
		C577.421,432.699,586.452,441.499,586.761,452.46z"/>
	<path fill="#464A90" d="M653.4,412.784c0,8.722,7.101,15.824,15.824,15.824s15.824-7.101,15.824-15.824
		s-7.102-15.824-15.824-15.824S653.4,404.062,653.4,412.784z M709.208,452.46v48.398c0,3.937-3.01,6.947-6.947,6.947
		c-3.937,0-6.947-3.165-6.947-6.947v-44.461c0-1.081-0.926-2.007-2.007-2.007c-1.081,0-2.007,0.926-2.007,2.007v119.799
		c0,5.944-4.4,10.807-9.88,10.807c-5.481,0-9.88-4.863-9.88-10.807v-68.313c0-1.081-0.926-2.007-2.007-2.007
		s-2.007,0.926-2.007,2.007v68.313c0,5.944-4.4,10.807-9.88,10.807c-5.48,0-9.88-4.863-9.88-10.807V456.397
		c0-1.081-0.926-2.007-2.007-2.007c-1.081,0-2.007,0.926-2.007,2.007v44.384c0,3.937-3.01,6.947-6.947,6.947
		c-3.937,0-6.947-3.165-6.947-6.947V452.46c0-10.961,8.8-19.761,19.761-19.761h39.521C699.868,432.699,708.9,441.499,709.208,452.46
		z"/>
	<path fill="#464A90" d="M775.848,412.784c0,8.722,7.102,15.824,15.824,15.824c8.722,0,15.824-7.101,15.824-15.824
		s-7.102-15.824-15.824-15.824S775.848,404.062,775.848,412.784z M831.656,452.46v48.398c0,3.937-3.01,6.947-6.947,6.947
		c-3.937,0-6.947-3.165-6.947-6.947v-44.461c0-1.081-0.926-2.007-2.007-2.007c-1.081,0-2.007,0.926-2.007,2.007v119.799
		c0,5.944-4.4,10.807-9.88,10.807s-9.88-4.863-9.88-10.807v-68.313c0-1.081-0.926-2.007-2.007-2.007
		c-1.081,0-2.007,0.926-2.007,2.007v68.313c0,5.944-4.4,10.807-9.88,10.807c-5.48,0-9.88-4.863-9.88-10.807V456.397
		c0-1.081-0.926-2.007-2.007-2.007c-1.081,0-2.007,0.926-2.007,2.007v44.384c0,3.937-3.01,6.947-6.947,6.947
		c-3.937,0-6.947-3.165-6.947-6.947V452.46c0-10.961,8.8-19.761,19.761-19.761h39.521
		C822.316,432.699,831.347,441.499,831.656,452.46z"/>
	<path fill="#464A90" d="M898.295,412.784c0,8.722,7.102,15.824,15.824,15.824c8.722,0,15.824-7.101,15.824-15.824
		s-7.102-15.824-15.824-15.824C905.397,396.961,898.295,404.062,898.295,412.784z M954.104,452.46v48.398
		c0,3.937-3.01,6.947-6.947,6.947c-3.937,0-6.947-3.165-6.947-6.947v-44.461c0-1.081-0.926-2.007-2.007-2.007
		c-1.081,0-2.007,0.926-2.007,2.007v119.799c0,5.944-4.4,10.807-9.88,10.807s-9.88-4.863-9.88-10.807v-68.313
		c0-1.081-0.926-2.007-2.007-2.007c-1.081,0-2.007,0.926-2.007,2.007v68.313c0,5.944-4.4,10.807-9.88,10.807
		c-5.48,0-9.88-4.863-9.88-10.807V456.397c0-1.081-0.926-2.007-2.007-2.007c-1.081,0-2.007,0.926-2.007,2.007v44.384
		c0,3.937-3.01,6.947-6.947,6.947c-3.937,0-6.947-3.165-6.947-6.947V452.46c0-10.961,8.8-19.761,19.761-19.761h39.521
		C944.764,432.699,953.795,441.499,954.104,452.46z"/>
	<path fill="#464A90" d="M1020.743,412.784c0,8.722,7.102,15.824,15.824,15.824c8.723,0,15.824-7.101,15.824-15.824
		s-7.101-15.824-15.824-15.824C1027.845,396.961,1020.743,404.062,1020.743,412.784z M1076.551,452.46v48.398
		c0,3.937-3.01,6.947-6.947,6.947c-3.937,0-6.947-3.165-6.947-6.947v-44.461c0-1.081-0.926-2.007-2.007-2.007
		c-1.081,0-2.007,0.926-2.007,2.007v119.799c0,5.944-4.4,10.807-9.88,10.807s-9.88-4.863-9.88-10.807v-68.313
		c0-1.081-0.926-2.007-2.007-2.007c-1.081,0-2.007,0.926-2.007,2.007v68.313c0,5.944-4.4,10.807-9.88,10.807
		s-9.88-4.863-9.88-10.807V456.397c0-1.081-0.926-2.007-2.007-2.007c-1.081,0-2.007,0.926-2.007,2.007v44.384
		c0,3.937-3.01,6.947-6.947,6.947c-3.937,0-6.947-3.165-6.947-6.947V452.46c0-10.961,8.8-19.761,19.761-19.761h39.521
		C1067.211,432.699,1076.243,441.499,1076.551,452.46z"/>
	<path fill="#AFB8E3" d="M1143.191,412.784c0,8.722,7.101,15.824,15.824,15.824c8.722,0,15.824-7.101,15.824-15.824
		s-7.102-15.824-15.824-15.824C1150.292,396.961,1143.191,404.062,1143.191,412.784z M1198.999,452.46v48.398
		c0,3.937-3.01,6.947-6.947,6.947c-3.937,0-6.947-3.165-6.947-6.947v-44.461c0-1.081-0.926-2.007-2.007-2.007
		s-2.007,0.926-2.007,2.007v119.799c0,5.944-4.4,10.807-9.88,10.807c-5.481,0-9.88-4.863-9.88-10.807v-68.313
		c0-1.081-0.926-2.007-2.007-2.007s-2.007,0.926-2.007,2.007v68.313c0,5.944-4.4,10.807-9.88,10.807s-9.88-4.863-9.88-10.807
		V456.397c0-1.081-0.926-2.007-2.007-2.007c-1.081,0-2.007,0.926-2.007,2.007v44.384c0,3.937-3.01,6.947-6.947,6.947
		s-6.947-3.165-6.947-6.947V452.46c0-10.961,8.8-19.761,19.761-19.761h39.521C1189.659,432.699,1198.69,441.499,1198.999,452.46z"/>
	<path fill="#464A90" d="M408.505,639.559c0,8.722,7.102,15.824,15.824,15.824c8.722,0,15.824-7.102,15.824-15.824
		s-7.101-15.824-15.824-15.824C415.606,623.735,408.505,630.836,408.505,639.559z M464.313,679.234v48.398
		c0,3.937-3.01,6.947-6.947,6.947c-3.937,0-6.947-3.165-6.947-6.947v-44.461c0-1.081-0.926-2.007-2.007-2.007
		s-2.007,0.926-2.007,2.007V802.97c0,5.944-4.4,10.807-9.88,10.807c-5.48,0-9.88-4.863-9.88-10.807v-68.313
		c0-1.081-0.926-2.007-2.007-2.007s-2.007,0.926-2.007,2.007v68.313c0,5.944-4.4,10.807-9.88,10.807c-5.48,0-9.88-4.863-9.88-10.807
		V683.171c0-1.081-0.926-2.007-2.007-2.007s-2.007,0.926-2.007,2.007v44.384c0,3.937-3.01,6.947-6.947,6.947
		c-3.937,0-6.947-3.165-6.947-6.947v-48.321c0-10.961,8.8-19.761,19.761-19.761h39.521
		C454.973,659.474,464.004,668.273,464.313,679.234z"/>
	<path fill="#464A90" d="M530.952,639.559c0,8.722,7.101,15.824,15.824,15.824s15.824-7.102,15.824-15.824
		s-7.102-15.824-15.824-15.824S530.952,630.836,530.952,639.559z M586.761,679.234v48.398c0,3.937-3.01,6.947-6.947,6.947
		c-3.937,0-6.947-3.165-6.947-6.947v-44.461c0-1.081-0.926-2.007-2.007-2.007c-1.081,0-2.007,0.926-2.007,2.007V802.97
		c0,5.944-4.4,10.807-9.88,10.807c-5.481,0-9.88-4.863-9.88-10.807v-68.313c0-1.081-0.926-2.007-2.007-2.007
		c-1.081,0-2.007,0.926-2.007,2.007v68.313c0,5.944-4.4,10.807-9.88,10.807s-9.88-4.863-9.88-10.807V683.171
		c0-1.081-0.926-2.007-2.007-2.007c-1.081,0-2.007,0.926-2.007,2.007v44.384c0,3.937-3.01,6.947-6.947,6.947
		c-3.937,0-6.947-3.165-6.947-6.947v-48.321c0-10.961,8.8-19.761,19.761-19.761h39.521
		C577.421,659.474,586.452,668.273,586.761,679.234z"/>
	<path fill="#464A90" d="M653.4,639.559c0,8.722,7.101,15.824,15.824,15.824s15.824-7.102,15.824-15.824
		s-7.102-15.824-15.824-15.824S653.4,630.836,653.4,639.559z M709.208,679.234v48.398c0,3.937-3.01,6.947-6.947,6.947
		c-3.937,0-6.947-3.165-6.947-6.947v-44.461c0-1.081-0.926-2.007-2.007-2.007c-1.081,0-2.007,0.926-2.007,2.007V802.97
		c0,5.944-4.4,10.807-9.88,10.807c-5.481,0-9.88-4.863-9.88-10.807v-68.313c0-1.081-0.926-2.007-2.007-2.007
		s-2.007,0.926-2.007,2.007v68.313c0,5.944-4.4,10.807-9.88,10.807c-5.48,0-9.88-4.863-9.88-10.807V683.171
		c0-1.081-0.926-2.007-2.007-2.007c-1.081,0-2.007,0.926-2.007,2.007v44.384c0,3.937-3.01,6.947-6.947,6.947
		c-3.937,0-6.947-3.165-6.947-6.947v-48.321c0-10.961,8.8-19.761,19.761-19.761h39.521
		C699.868,659.474,708.9,668.273,709.208,679.234z"/>
	<path fill="#AFB8E3" d="M775.848,639.559c0,8.722,7.102,15.824,15.824,15.824c8.722,0,15.824-7.102,15.824-15.824
		s-7.102-15.824-15.824-15.824S775.848,630.836,775.848,639.559z M831.656,679.234v48.398c0,3.937-3.01,6.947-6.947,6.947
		c-3.937,0-6.947-3.165-6.947-6.947v-44.461c0-1.081-0.926-2.007-2.007-2.007c-1.081,0-2.007,0.926-2.007,2.007V802.97
		c0,5.944-4.4,10.807-9.88,10.807s-9.88-4.863-9.88-10.807v-68.313c0-1.081-0.926-2.007-2.007-2.007
		c-1.081,0-2.007,0.926-2.007,2.007v68.313c0,5.944-4.4,10.807-9.88,10.807c-5.48,0-9.88-4.863-9.88-10.807V683.171
		c0-1.081-0.926-2.007-2.007-2.007c-1.081,0-2.007,0.926-2.007,2.007v44.384c0,3.937-3.01,6.947-6.947,6.947
		c-3.937,0-6.947-3.165-6.947-6.947v-48.321c0-10.961,8.8-19.761,19.761-19.761h39.521
		C822.316,659.474,831.347,668.273,831.656,679.234z"/>
	<path fill="#AFB8E3" d="M898.295,639.559c0,8.722,7.102,15.824,15.824,15.824c8.722,0,15.824-7.102,15.824-15.824
		s-7.102-15.824-15.824-15.824C905.397,623.735,898.295,630.836,898.295,639.559z M954.104,679.234v48.398
		c0,3.937-3.01,6.947-6.947,6.947c-3.937,0-6.947-3.165-6.947-6.947v-44.461c0-1.081-0.926-2.007-2.007-2.007
		c-1.081,0-2.007,0.926-2.007,2.007V802.97c0,5.944-4.4,10.807-9.88,10.807s-9.88-4.863-9.88-10.807v-68.313
		c0-1.081-0.926-2.007-2.007-2.007c-1.081,0-2.007,0.926-2.007,2.007v68.313c0,5.944-4.4,10.807-9.88,10.807
		c-5.48,0-9.88-4.863-9.88-10.807V683.171c0-1.081-0.926-2.007-2.007-2.007c-1.081,0-2.007,0.926-2.007,2.007v44.384
		c0,3.937-3.01,6.947-6.947,6.947c-3.937,0-6.947-3.165-6.947-6.947v-48.321c0-10.961,8.8-19.761,19.761-19.761h39.521
		C944.764,659.474,953.795,668.273,954.104,679.234z"/>
	<path fill="#AFB8E3" d="M1020.743,639.559c0,8.722,7.102,15.824,15.824,15.824c8.723,0,15.824-7.102,15.824-15.824
		s-7.101-15.824-15.824-15.824C1027.845,623.735,1020.743,630.836,1020.743,639.559z M1076.551,679.234v48.398
		c0,3.937-3.01,6.947-6.947,6.947c-3.937,0-6.947-3.165-6.947-6.947v-44.461c0-1.081-0.926-2.007-2.007-2.007
		c-1.081,0-2.007,0.926-2.007,2.007V802.97c0,5.944-4.4,10.807-9.88,10.807s-9.88-4.863-9.88-10.807v-68.313
		c0-1.081-0.926-2.007-2.007-2.007c-1.081,0-2.007,0.926-2.007,2.007v68.313c0,5.944-4.4,10.807-9.88,10.807
		s-9.88-4.863-9.88-10.807V683.171c0-1.081-0.926-2.007-2.007-2.007c-1.081,0-2.007,0.926-2.007,2.007v44.384
		c0,3.937-3.01,6.947-6.947,6.947c-3.937,0-6.947-3.165-6.947-6.947v-48.321c0-10.961,8.8-19.761,19.761-19.761h39.521
		C1067.211,659.474,1076.243,668.273,1076.551,679.234z"/>
	<path fill="#AFB8E3" d="M1143.191,639.559c0,8.722,7.101,15.824,15.824,15.824c8.722,0,15.824-7.102,15.824-15.824
		s-7.101-15.824-15.824-15.824C1150.292,623.735,1143.191,630.836,1143.191,639.559z M1198.999,679.234v48.398
		c0,3.937-3.01,6.947-6.947,6.947c-3.937,0-6.947-3.165-6.947-6.947v-44.461c0-1.081-0.926-2.007-2.007-2.007
		s-2.007,0.926-2.007,2.007V802.97c0,5.944-4.4,10.807-9.88,10.807c-5.48,0-9.88-4.863-9.88-10.807v-68.313
		c0-1.081-0.926-2.007-2.007-2.007s-2.007,0.926-2.007,2.007v68.313c0,5.944-4.4,10.807-9.88,10.807s-9.88-4.863-9.88-10.807
		V683.171c0-1.081-0.926-2.007-2.007-2.007c-1.081,0-2.007,0.926-2.007,2.007v44.384c0,3.937-3.01,6.947-6.947,6.947
		c-3.937,0-6.947-3.165-6.947-6.947v-48.321c0-10.961,8.8-19.761,19.761-19.761h39.521
		C1189.659,659.474,1198.69,668.273,1198.999,679.234z"/>
	<path fill="#464A90" d="M530.952,937.782c0,8.722,7.101,15.824,15.824,15.824s15.824-7.102,15.824-15.824
		s-7.102-15.824-15.824-15.824S530.952,929.06,530.952,937.782z M586.761,977.458v48.398c0,3.937-3.01,6.947-6.947,6.947
		c-3.937,0-6.947-3.165-6.947-6.947v-44.461c0-1.081-0.926-2.007-2.007-2.007c-1.081,0-2.007,0.926-2.007,2.007v119.799
		c0,5.944-4.4,10.807-9.88,10.807c-5.481,0-9.88-4.863-9.88-10.807v-68.313c0-1.081-0.926-2.007-2.007-2.007
		c-1.081,0-2.007,0.926-2.007,2.007v68.313c0,5.944-4.4,10.807-9.88,10.807s-9.88-4.863-9.88-10.807V981.395
		c0-1.081-0.926-2.007-2.007-2.007c-1.081,0-2.007,0.926-2.007,2.007v44.384c0,3.937-3.01,6.947-6.947,6.947
		c-3.937,0-6.947-3.165-6.947-6.947v-48.321c0-10.961,8.8-19.761,19.761-19.761h39.521
		C577.421,957.697,586.452,966.497,586.761,977.458z"/>
	<g>
		<text transform="matrix(1 0 0 1 3.0009 1038.3373)" fill="#7F7F7F" font-family="'Roboto-Regular'" font-size="65px">key / legend</text>
	</g>
	<g>
		<text transform="matrix(1 0 0 1 600.0321 1038.3373)" fill="#464A90" font-family="'Roboto-Regular'" font-size="65px">= 10 people</text>
	</g>
	<rect x="4" y="242" fill="#AFAFAF" width="302" height="56"/>
	<rect x="4" y="469" fill="#AFAFAF" width="302" height="56"/>
	<rect x="4" y="695" fill="#AFAFAF" width="302" height="56"/>
	<g>
		<text transform="matrix(1 0 0 1 -0.4464 49.89)" fill="#7F7F7F" font-family="'Roboto-Regular'" font-size="65px">categories</text>
	</g>
	<g>
		<text transform="matrix(1 0 0 1 380.1473 51.2865)" fill="#7F7F7F" font-family="'Roboto-Regular'" font-size="65px">icons / symbols</text>
	</g>
	<line fill="none" stroke="#AFAFAF" stroke-width="8" stroke-miterlimit="10" x1="82" y1="217" x2="82" y2="75"/>
	<line fill="none" stroke="#AFAFAF" stroke-width="8" stroke-miterlimit="10" x1="480" y1="1022" x2="388" y2="1022"/>
	<line fill="none" stroke="#AFAFAF" stroke-width="8" stroke-miterlimit="10" x1="425" y1="146" x2="425" y2="75"/>
</g>
</svg>
