<?xml version="1.0" encoding="utf-8"?>
<!-- Generator: Adobe Illustrator 19.2.0, SVG Export Plug-In . SVG Version: 6.00 Build 0)  -->
<svg version="1.1" id="Layer_1" xmlns="http://www.w3.org/2000/svg" xmlns:xlink="http://www.w3.org/1999/xlink" x="0px" y="0px"
	 width="1268px" height="558px" viewBox="0 0 1268 558" enable-background="new 0 0 1268 558" xml:space="preserve">
<g id="Layer_2">
</g>
<path fill="#7581BA" d="M101.232,244.579c0,3.791,3.086,6.878,6.878,6.878s6.878-3.086,6.878-6.878s-3.086-6.878-6.878-6.878
	S101.232,240.788,101.232,244.579z M125.488,261.823v21.035c0,1.711-1.308,3.019-3.019,3.019c-1.711,0-3.019-1.375-3.019-3.019
	v-19.324c0-0.47-0.403-0.872-0.872-0.872c-0.47,0-0.872,0.403-0.872,0.872v52.068c0,2.583-1.912,4.697-4.294,4.697
	s-4.294-2.114-4.294-4.697v-29.691c0-0.47-0.403-0.872-0.872-0.872s-0.872,0.403-0.872,0.872v29.691
	c0,2.583-1.912,4.697-4.294,4.697s-4.294-2.114-4.294-4.697v-52.068c0-0.47-0.403-0.872-0.872-0.872s-0.872,0.403-0.872,0.872
	v19.291c0,1.711-1.308,3.019-3.019,3.019S91,284.468,91,282.825v-21.002c0-4.764,3.825-8.588,8.588-8.588h17.177
	C121.429,253.235,125.354,257.059,125.488,261.823z"/>
<path fill="#7581BA" d="M149.337,244.579c0,3.791,3.086,6.878,6.878,6.878s6.878-3.086,6.878-6.878s-3.086-6.878-6.878-6.878
	S149.337,240.788,149.337,244.579z M173.593,261.823v21.035c0,1.711-1.308,3.019-3.019,3.019c-1.711,0-3.019-1.375-3.019-3.019
	v-19.324c0-0.47-0.403-0.872-0.872-0.872s-0.872,0.403-0.872,0.872v52.068c0,2.583-1.912,4.697-4.294,4.697
	c-2.382,0-4.294-2.114-4.294-4.697v-29.691c0-0.47-0.403-0.872-0.872-0.872c-0.47,0-0.872,0.403-0.872,0.872v29.691
	c0,2.583-1.912,4.697-4.294,4.697c-2.382,0-4.294-2.114-4.294-4.697v-52.068c0-0.47-0.403-0.872-0.872-0.872
	s-0.872,0.403-0.872,0.872v19.291c0,1.711-1.308,3.019-3.019,3.019s-3.019-1.376-3.019-3.019v-21.002
	c0-4.764,3.825-8.588,8.589-8.588h17.177C169.533,253.235,173.459,257.059,173.593,261.823z"/>
<path fill="#7581BA" d="M197.442,244.579c0,3.791,3.086,6.878,6.878,6.878s6.878-3.086,6.878-6.878s-3.086-6.878-6.878-6.878
	S197.442,240.788,197.442,244.579z M221.697,261.823v21.035c0,1.711-1.308,3.019-3.019,3.019c-1.711,0-3.019-1.375-3.019-3.019
	v-19.324c0-0.47-0.403-0.872-0.872-0.872s-0.872,0.403-0.872,0.872v52.068c0,2.583-1.912,4.697-4.294,4.697
	c-2.382,0-4.294-2.114-4.294-4.697v-29.691c0-0.47-0.403-0.872-0.872-0.872c-0.47,0-0.872,0.403-0.872,0.872v29.691
	c0,2.583-1.912,4.697-4.294,4.697c-2.382,0-4.294-2.114-4.294-4.697v-52.068c0-0.47-0.403-0.872-0.872-0.872
	s-0.872,0.403-0.872,0.872v19.291c0,1.711-1.308,3.019-3.019,3.019s-3.019-1.376-3.019-3.019v-21.002
	c0-4.764,3.825-8.588,8.589-8.588h17.177C217.638,253.235,221.563,257.059,221.697,261.823z"/>
<path fill="#7581BA" d="M245.546,244.579c0,3.791,3.086,6.878,6.878,6.878c3.791,0,6.878-3.086,6.878-6.878
	s-3.087-6.878-6.878-6.878C248.633,237.701,245.546,240.788,245.546,244.579z M269.802,261.823v21.035
	c0,1.711-1.308,3.019-3.019,3.019c-1.711,0-3.019-1.375-3.019-3.019v-19.324c0-0.47-0.403-0.872-0.872-0.872
	c-0.47,0-0.872,0.403-0.872,0.872v52.068c0,2.583-1.912,4.697-4.294,4.697s-4.294-2.114-4.294-4.697v-29.691
	c0-0.47-0.403-0.872-0.872-0.872c-0.47,0-0.872,0.403-0.872,0.872v29.691c0,2.583-1.912,4.697-4.294,4.697
	c-2.382,0-4.294-2.114-4.294-4.697v-52.068c0-0.47-0.403-0.872-0.872-0.872s-0.872,0.403-0.872,0.872v19.291
	c0,1.711-1.308,3.019-3.019,3.019c-1.711,0-3.019-1.376-3.019-3.019v-21.002c0-4.764,3.825-8.588,8.589-8.588h17.177
	C265.743,253.235,269.668,257.059,269.802,261.823z"/>
<path fill="#7581BA" d="M293.651,244.579c0,3.791,3.086,6.878,6.878,6.878s6.878-3.086,6.878-6.878s-3.086-6.878-6.878-6.878
	S293.651,240.788,293.651,244.579z M317.907,261.823v21.035c0,1.711-1.308,3.019-3.019,3.019s-3.019-1.375-3.019-3.019v-19.324
	c0-0.47-0.403-0.872-0.872-0.872s-0.872,0.403-0.872,0.872v52.068c0,2.583-1.912,4.697-4.294,4.697
	c-2.382,0-4.294-2.114-4.294-4.697v-29.691c0-0.47-0.403-0.872-0.872-0.872c-0.47,0-0.872,0.403-0.872,0.872v29.691
	c0,2.583-1.912,4.697-4.294,4.697s-4.294-2.114-4.294-4.697v-52.068c0-0.47-0.403-0.872-0.872-0.872
	c-0.47,0-0.872,0.403-0.872,0.872v19.291c0,1.711-1.308,3.019-3.019,3.019c-1.711,0-3.019-1.376-3.019-3.019v-21.002
	c0-4.764,3.825-8.588,8.589-8.588h17.177C313.847,253.235,317.773,257.059,317.907,261.823z"/>
<path fill="#7581BA" d="M361.756,244.579c0,3.791,3.086,6.878,6.878,6.878s6.878-3.086,6.878-6.878s-3.087-6.878-6.878-6.878
	S361.756,240.788,361.756,244.579z M386.011,261.823v21.035c0,1.711-1.308,3.019-3.019,3.019c-1.711,0-3.019-1.375-3.019-3.019
	v-19.324c0-0.47-0.403-0.872-0.872-0.872c-0.47,0-0.872,0.403-0.872,0.872v52.068c0,2.583-1.912,4.697-4.294,4.697
	s-4.294-2.114-4.294-4.697v-29.691c0-0.47-0.403-0.872-0.872-0.872c-0.47,0-0.872,0.403-0.872,0.872v29.691
	c0,2.583-1.912,4.697-4.294,4.697s-4.294-2.114-4.294-4.697v-52.068c0-0.47-0.403-0.872-0.872-0.872
	c-0.47,0-0.872,0.403-0.872,0.872v19.291c0,1.711-1.308,3.019-3.019,3.019s-3.019-1.376-3.019-3.019v-21.002
	c0-4.764,3.825-8.588,8.589-8.588h17.177C381.952,253.235,385.877,257.059,386.011,261.823z"/>
<path fill="#7581BA" d="M409.86,244.579c0,3.791,3.086,6.878,6.878,6.878s6.878-3.086,6.878-6.878s-3.086-6.878-6.878-6.878
	S409.86,240.788,409.86,244.579z M434.116,261.823v21.035c0,1.711-1.308,3.019-3.019,3.019s-3.019-1.375-3.019-3.019v-19.324
	c0-0.47-0.403-0.872-0.872-0.872s-0.872,0.403-0.872,0.872v52.068c0,2.583-1.912,4.697-4.294,4.697
	c-2.382,0-4.294-2.114-4.294-4.697v-29.691c0-0.47-0.403-0.872-0.872-0.872c-0.47,0-0.872,0.403-0.872,0.872v29.691
	c0,2.583-1.912,4.697-4.294,4.697s-4.294-2.114-4.294-4.697v-52.068c0-0.47-0.403-0.872-0.872-0.872
	c-0.47,0-0.872,0.403-0.872,0.872v19.291c0,1.711-1.308,3.019-3.019,3.019c-1.711,0-3.019-1.376-3.019-3.019v-21.002
	c0-4.764,3.825-8.588,8.589-8.588h17.177C430.057,253.235,433.982,257.059,434.116,261.823z"/>
<path fill="#7581BA" d="M457.965,244.579c0,3.791,3.086,6.878,6.878,6.878s6.878-3.086,6.878-6.878s-3.087-6.878-6.878-6.878
	S457.965,240.788,457.965,244.579z M482.221,261.823v21.035c0,1.711-1.308,3.019-3.019,3.019c-1.711,0-3.019-1.375-3.019-3.019
	v-19.324c0-0.47-0.403-0.872-0.872-0.872c-0.47,0-0.872,0.403-0.872,0.872v52.068c0,2.583-1.912,4.697-4.294,4.697
	s-4.294-2.114-4.294-4.697v-29.691c0-0.47-0.403-0.872-0.872-0.872c-0.47,0-0.872,0.403-0.872,0.872v29.691
	c0,2.583-1.912,4.697-4.294,4.697s-4.294-2.114-4.294-4.697v-52.068c0-0.47-0.403-0.872-0.872-0.872
	c-0.47,0-0.872,0.403-0.872,0.872v19.291c0,1.711-1.308,3.019-3.019,3.019s-3.019-1.376-3.019-3.019v-21.002
	c0-4.764,3.825-8.588,8.589-8.588h17.177C478.161,253.235,482.087,257.059,482.221,261.823z"/>
<path fill="#7581BA" d="M506.07,244.579c0,3.791,3.086,6.878,6.877,6.878c3.791,0,6.878-3.086,6.878-6.878s-3.086-6.878-6.878-6.878
	C509.156,237.701,506.07,240.788,506.07,244.579z M530.325,261.823v21.035c0,1.711-1.308,3.019-3.019,3.019
	c-1.711,0-3.019-1.375-3.019-3.019v-19.324c0-0.47-0.403-0.872-0.872-0.872c-0.47,0-0.872,0.403-0.872,0.872v52.068
	c0,2.583-1.912,4.697-4.294,4.697s-4.294-2.114-4.294-4.697v-29.691c0-0.47-0.403-0.872-0.872-0.872s-0.872,0.403-0.872,0.872
	v29.691c0,2.583-1.912,4.697-4.294,4.697c-2.382,0-4.294-2.114-4.294-4.697v-52.068c0-0.47-0.403-0.872-0.872-0.872
	c-0.47,0-0.872,0.403-0.872,0.872v19.291c0,1.711-1.308,3.019-3.019,3.019c-1.711,0-3.019-1.376-3.019-3.019v-21.002
	c0-4.764,3.825-8.588,8.589-8.588h17.177C526.266,253.235,530.191,257.059,530.325,261.823z"/>
<path fill="#7581BA" d="M554.174,244.579c0,3.791,3.086,6.878,6.878,6.878s6.878-3.086,6.878-6.878s-3.086-6.878-6.878-6.878
	S554.174,240.788,554.174,244.579z M578.43,261.823v21.035c0,1.711-1.308,3.019-3.019,3.019s-3.019-1.375-3.019-3.019v-19.324
	c0-0.47-0.403-0.872-0.872-0.872s-0.872,0.403-0.872,0.872v52.068c0,2.583-1.912,4.697-4.294,4.697s-4.294-2.114-4.294-4.697
	v-29.691c0-0.47-0.403-0.872-0.872-0.872c-0.47,0-0.872,0.403-0.872,0.872v29.691c0,2.583-1.912,4.697-4.294,4.697
	c-2.382,0-4.294-2.114-4.294-4.697v-52.068c0-0.47-0.403-0.872-0.872-0.872c-0.47,0-0.872,0.403-0.872,0.872v19.291
	c0,1.711-1.308,3.019-3.019,3.019c-1.711,0-3.019-1.376-3.019-3.019v-21.002c0-4.764,3.825-8.588,8.589-8.588h17.177
	C574.371,253.235,578.296,257.059,578.43,261.823z"/>
<path fill="#7581BA" d="M602.279,244.579c0,3.791,3.086,6.878,6.878,6.878s6.878-3.086,6.878-6.878s-3.086-6.878-6.878-6.878
	S602.279,240.788,602.279,244.579z M626.535,261.823v21.035c0,1.711-1.308,3.019-3.019,3.019s-3.019-1.375-3.019-3.019v-19.324
	c0-0.47-0.403-0.872-0.872-0.872s-0.872,0.403-0.872,0.872v52.068c0,2.583-1.912,4.697-4.294,4.697s-4.294-2.114-4.294-4.697
	v-29.691c0-0.47-0.403-0.872-0.872-0.872c-0.47,0-0.872,0.403-0.872,0.872v29.691c0,2.583-1.912,4.697-4.294,4.697
	s-4.294-2.114-4.294-4.697v-52.068c0-0.47-0.403-0.872-0.872-0.872s-0.872,0.403-0.872,0.872v19.291
	c0,1.711-1.308,3.019-3.019,3.019s-3.019-1.376-3.019-3.019v-21.002c0-4.764,3.825-8.588,8.589-8.588h17.177
	C622.475,253.235,626.401,257.059,626.535,261.823z"/>
<path fill="#7581BA" d="M670.384,244.579c0,3.791,3.086,6.878,6.878,6.878s6.878-3.086,6.878-6.878s-3.086-6.878-6.878-6.878
	S670.384,240.788,670.384,244.579z M694.639,261.823v21.035c0,1.711-1.308,3.019-3.019,3.019s-3.019-1.375-3.019-3.019v-19.324
	c0-0.47-0.403-0.872-0.872-0.872c-0.47,0-0.872,0.403-0.872,0.872v52.068c0,2.583-1.912,4.697-4.294,4.697
	c-2.382,0-4.294-2.114-4.294-4.697v-29.691c0-0.47-0.403-0.872-0.872-0.872c-0.47,0-0.872,0.403-0.872,0.872v29.691
	c0,2.583-1.912,4.697-4.294,4.697s-4.294-2.114-4.294-4.697v-52.068c0-0.47-0.403-0.872-0.872-0.872s-0.872,0.403-0.872,0.872
	v19.291c0,1.711-1.308,3.019-3.019,3.019s-3.019-1.376-3.019-3.019v-21.002c0-4.764,3.825-8.588,8.589-8.588h17.177
	C690.58,253.235,694.505,257.059,694.639,261.823z"/>
<path fill="#7581BA" d="M718.488,244.579c0,3.791,3.086,6.878,6.878,6.878s6.878-3.086,6.878-6.878s-3.086-6.878-6.878-6.878
	S718.488,240.788,718.488,244.579z M742.744,261.823v21.035c0,1.711-1.308,3.019-3.019,3.019c-1.711,0-3.019-1.375-3.019-3.019
	v-19.324c0-0.47-0.403-0.872-0.872-0.872c-0.47,0-0.872,0.403-0.872,0.872v52.068c0,2.583-1.912,4.697-4.294,4.697
	s-4.294-2.114-4.294-4.697v-29.691c0-0.47-0.403-0.872-0.872-0.872s-0.872,0.403-0.872,0.872v29.691
	c0,2.583-1.912,4.697-4.294,4.697s-4.294-2.114-4.294-4.697v-52.068c0-0.47-0.403-0.872-0.872-0.872
	c-0.47,0-0.872,0.403-0.872,0.872v19.291c0,1.711-1.308,3.019-3.019,3.019c-1.711,0-3.019-1.376-3.019-3.019v-21.002
	c0-4.764,3.825-8.588,8.589-8.588h17.177C738.685,253.235,742.61,257.059,742.744,261.823z"/>
<path fill="#7581BA" d="M766.593,244.579c0,3.791,3.086,6.878,6.878,6.878s6.878-3.086,6.878-6.878s-3.086-6.878-6.878-6.878
	S766.593,240.788,766.593,244.579z M790.849,261.823v21.035c0,1.711-1.308,3.019-3.019,3.019s-3.019-1.375-3.019-3.019v-19.324
	c0-0.47-0.403-0.872-0.872-0.872s-0.872,0.403-0.872,0.872v52.068c0,2.583-1.912,4.697-4.294,4.697s-4.294-2.114-4.294-4.697
	v-29.691c0-0.47-0.403-0.872-0.872-0.872c-0.47,0-0.872,0.403-0.872,0.872v29.691c0,2.583-1.912,4.697-4.294,4.697
	c-2.382,0-4.294-2.114-4.294-4.697v-52.068c0-0.47-0.403-0.872-0.872-0.872c-0.47,0-0.872,0.403-0.872,0.872v19.291
	c0,1.711-1.308,3.019-3.019,3.019s-3.019-1.376-3.019-3.019v-21.002c0-4.764,3.825-8.588,8.588-8.588h17.177
	C786.789,253.235,790.715,257.059,790.849,261.823z"/>
<path fill="#7581BA" d="M814.698,244.579c0,3.791,3.086,6.878,6.878,6.878s6.878-3.086,6.878-6.878s-3.086-6.878-6.878-6.878
	S814.698,240.788,814.698,244.579z M838.953,261.823v21.035c0,1.711-1.308,3.019-3.019,3.019s-3.019-1.375-3.019-3.019v-19.324
	c0-0.47-0.403-0.872-0.872-0.872s-0.872,0.403-0.872,0.872v52.068c0,2.583-1.912,4.697-4.294,4.697s-4.294-2.114-4.294-4.697
	v-29.691c0-0.47-0.403-0.872-0.872-0.872c-0.47,0-0.872,0.403-0.872,0.872v29.691c0,2.583-1.912,4.697-4.294,4.697
	s-4.294-2.114-4.294-4.697v-52.068c0-0.47-0.403-0.872-0.872-0.872s-0.872,0.403-0.872,0.872v19.291
	c0,1.711-1.308,3.019-3.019,3.019s-3.019-1.376-3.019-3.019v-21.002c0-4.764,3.825-8.588,8.589-8.588h17.177
	C834.894,253.235,838.819,257.059,838.953,261.823z"/>
<path fill="#7581BA" d="M862.802,244.579c0,3.791,3.086,6.878,6.878,6.878s6.878-3.086,6.878-6.878s-3.086-6.878-6.878-6.878
	S862.802,240.788,862.802,244.579z M887.058,261.823v21.035c0,1.711-1.308,3.019-3.019,3.019c-1.711,0-3.019-1.375-3.019-3.019
	v-19.324c0-0.47-0.403-0.872-0.872-0.872c-0.47,0-0.872,0.403-0.872,0.872v52.068c0,2.583-1.912,4.697-4.294,4.697
	c-2.382,0-4.294-2.114-4.294-4.697v-29.691c0-0.47-0.403-0.872-0.872-0.872c-0.47,0-0.872,0.403-0.872,0.872v29.691
	c0,2.583-1.912,4.697-4.294,4.697s-4.294-2.114-4.294-4.697v-52.068c0-0.47-0.403-0.872-0.872-0.872s-0.872,0.403-0.872,0.872
	v19.291c0,1.711-1.308,3.019-3.019,3.019s-3.019-1.376-3.019-3.019v-21.002c0-4.764,3.825-8.588,8.589-8.588h17.177
	C882.999,253.235,886.924,257.059,887.058,261.823z"/>
<path fill="#7581BA" d="M930.907,244.579c0,3.791,3.086,6.878,6.878,6.878s6.878-3.086,6.878-6.878s-3.086-6.878-6.878-6.878
	S930.907,240.788,930.907,244.579z M955.163,261.823v21.035c0,1.711-1.308,3.019-3.019,3.019c-1.711,0-3.019-1.375-3.019-3.019
	v-19.324c0-0.47-0.403-0.872-0.872-0.872c-0.47,0-0.872,0.403-0.872,0.872v52.068c0,2.583-1.912,4.697-4.294,4.697
	s-4.294-2.114-4.294-4.697v-29.691c0-0.47-0.403-0.872-0.872-0.872s-0.872,0.403-0.872,0.872v29.691
	c0,2.583-1.912,4.697-4.294,4.697s-4.294-2.114-4.294-4.697v-52.068c0-0.47-0.403-0.872-0.872-0.872
	c-0.47,0-0.872,0.403-0.872,0.872v19.291c0,1.711-1.308,3.019-3.019,3.019c-1.711,0-3.019-1.376-3.019-3.019v-21.002
	c0-4.764,3.825-8.588,8.589-8.588h17.177C951.103,253.235,955.029,257.059,955.163,261.823z"/>
<path fill="#7581BA" d="M979.012,244.579c0,3.791,3.086,6.878,6.878,6.878s6.878-3.086,6.878-6.878s-3.086-6.878-6.878-6.878
	S979.012,240.788,979.012,244.579z M1003.267,261.823v21.035c0,1.711-1.308,3.019-3.019,3.019s-3.019-1.375-3.019-3.019v-19.324
	c0-0.47-0.403-0.872-0.872-0.872s-0.872,0.403-0.872,0.872v52.068c0,2.583-1.912,4.697-4.294,4.697s-4.294-2.114-4.294-4.697
	v-29.691c0-0.47-0.403-0.872-0.872-0.872c-0.47,0-0.872,0.403-0.872,0.872v29.691c0,2.583-1.912,4.697-4.294,4.697
	c-2.382,0-4.294-2.114-4.294-4.697v-52.068c0-0.47-0.403-0.872-0.872-0.872c-0.47,0-0.872,0.403-0.872,0.872v19.291
	c0,1.711-1.308,3.019-3.019,3.019s-3.019-1.376-3.019-3.019v-21.002c0-4.764,3.825-8.588,8.588-8.588h17.177
	C999.208,253.235,1003.133,257.059,1003.267,261.823z"/>
<path fill="#7581BA" d="M1027.116,244.579c0,3.791,3.087,6.878,6.878,6.878s6.877-3.086,6.877-6.878s-3.086-6.878-6.877-6.878
	S1027.116,240.788,1027.116,244.579z M1051.372,261.823v21.035c0,1.711-1.308,3.019-3.019,3.019c-1.711,0-3.019-1.375-3.019-3.019
	v-19.324c0-0.47-0.403-0.872-0.872-0.872c-0.47,0-0.872,0.403-0.872,0.872v52.068c0,2.583-1.912,4.697-4.294,4.697
	s-4.294-2.114-4.294-4.697v-29.691c0-0.47-0.403-0.872-0.872-0.872c-0.47,0-0.872,0.403-0.872,0.872v29.691
	c0,2.583-1.912,4.697-4.294,4.697s-4.294-2.114-4.294-4.697v-52.068c0-0.47-0.403-0.872-0.872-0.872
	c-0.47,0-0.872,0.403-0.872,0.872v19.291c0,1.711-1.308,3.019-3.019,3.019s-3.019-1.376-3.019-3.019v-21.002
	c0-4.764,3.825-8.588,8.589-8.588h17.177C1047.313,253.235,1051.238,257.059,1051.372,261.823z"/>
<path fill="#7581BA" d="M101.232,362.43c0,3.791,3.086,6.878,6.878,6.878s6.878-3.086,6.878-6.878s-3.086-6.878-6.878-6.878
	S101.232,358.639,101.232,362.43z M125.488,379.674v21.035c0,1.711-1.308,3.019-3.019,3.019c-1.711,0-3.019-1.375-3.019-3.019
	v-19.324c0-0.47-0.403-0.872-0.872-0.872c-0.47,0-0.872,0.403-0.872,0.872v52.068c0,2.583-1.912,4.697-4.294,4.697
	s-4.294-2.114-4.294-4.697v-29.691c0-0.47-0.403-0.872-0.872-0.872s-0.872,0.403-0.872,0.872v29.691
	c0,2.583-1.912,4.697-4.294,4.697s-4.294-2.114-4.294-4.697v-52.068c0-0.47-0.403-0.872-0.872-0.872s-0.872,0.403-0.872,0.872
	v19.291c0,1.711-1.308,3.019-3.019,3.019S91,402.319,91,400.675v-21.002c0-4.764,3.825-8.589,8.588-8.589h17.177
	C121.429,371.085,125.354,374.91,125.488,379.674z"/>
<path fill="#7581BA" d="M149.337,362.43c0,3.791,3.086,6.878,6.878,6.878s6.878-3.086,6.878-6.878s-3.086-6.878-6.878-6.878
	S149.337,358.639,149.337,362.43z M173.593,379.674v21.035c0,1.711-1.308,3.019-3.019,3.019c-1.711,0-3.019-1.375-3.019-3.019
	v-19.324c0-0.47-0.403-0.872-0.872-0.872s-0.872,0.403-0.872,0.872v52.068c0,2.583-1.912,4.697-4.294,4.697
	c-2.382,0-4.294-2.114-4.294-4.697v-29.691c0-0.47-0.403-0.872-0.872-0.872c-0.47,0-0.872,0.403-0.872,0.872v29.691
	c0,2.583-1.912,4.697-4.294,4.697c-2.382,0-4.294-2.114-4.294-4.697v-52.068c0-0.47-0.403-0.872-0.872-0.872
	s-0.872,0.403-0.872,0.872v19.291c0,1.711-1.308,3.019-3.019,3.019s-3.019-1.376-3.019-3.019v-21.002
	c0-4.764,3.825-8.589,8.589-8.589h17.177C169.533,371.085,173.459,374.91,173.593,379.674z"/>
<path fill="#7581BA" d="M197.442,362.43c0,3.791,3.086,6.878,6.878,6.878s6.878-3.086,6.878-6.878s-3.086-6.878-6.878-6.878
	S197.442,358.639,197.442,362.43z M221.697,379.674v21.035c0,1.711-1.308,3.019-3.019,3.019c-1.711,0-3.019-1.375-3.019-3.019
	v-19.324c0-0.47-0.403-0.872-0.872-0.872s-0.872,0.403-0.872,0.872v52.068c0,2.583-1.912,4.697-4.294,4.697
	c-2.382,0-4.294-2.114-4.294-4.697v-29.691c0-0.47-0.403-0.872-0.872-0.872c-0.47,0-0.872,0.403-0.872,0.872v29.691
	c0,2.583-1.912,4.697-4.294,4.697c-2.382,0-4.294-2.114-4.294-4.697v-52.068c0-0.47-0.403-0.872-0.872-0.872
	s-0.872,0.403-0.872,0.872v19.291c0,1.711-1.308,3.019-3.019,3.019s-3.019-1.376-3.019-3.019v-21.002
	c0-4.764,3.825-8.589,8.589-8.589h17.177C217.638,371.085,221.563,374.91,221.697,379.674z"/>
<path fill="#7581BA" d="M245.546,362.43c0,3.791,3.086,6.878,6.878,6.878c3.791,0,6.878-3.086,6.878-6.878s-3.087-6.878-6.878-6.878
	C248.633,355.552,245.546,358.639,245.546,362.43z M269.802,379.674v21.035c0,1.711-1.308,3.019-3.019,3.019
	c-1.711,0-3.019-1.375-3.019-3.019v-19.324c0-0.47-0.403-0.872-0.872-0.872c-0.47,0-0.872,0.403-0.872,0.872v52.068
	c0,2.583-1.912,4.697-4.294,4.697s-4.294-2.114-4.294-4.697v-29.691c0-0.47-0.403-0.872-0.872-0.872
	c-0.47,0-0.872,0.403-0.872,0.872v29.691c0,2.583-1.912,4.697-4.294,4.697c-2.382,0-4.294-2.114-4.294-4.697v-52.068
	c0-0.47-0.403-0.872-0.872-0.872s-0.872,0.403-0.872,0.872v19.291c0,1.711-1.308,3.019-3.019,3.019
	c-1.711,0-3.019-1.376-3.019-3.019v-21.002c0-4.764,3.825-8.589,8.589-8.589h17.177C265.743,371.085,269.668,374.91,269.802,379.674
	z"/>
<path fill="#7581BA" d="M293.651,362.43c0,3.791,3.086,6.878,6.878,6.878s6.878-3.086,6.878-6.878s-3.086-6.878-6.878-6.878
	S293.651,358.639,293.651,362.43z M317.907,379.674v21.035c0,1.711-1.308,3.019-3.019,3.019s-3.019-1.375-3.019-3.019v-19.324
	c0-0.47-0.403-0.872-0.872-0.872s-0.872,0.403-0.872,0.872v52.068c0,2.583-1.912,4.697-4.294,4.697
	c-2.382,0-4.294-2.114-4.294-4.697v-29.691c0-0.47-0.403-0.872-0.872-0.872c-0.47,0-0.872,0.403-0.872,0.872v29.691
	c0,2.583-1.912,4.697-4.294,4.697s-4.294-2.114-4.294-4.697v-52.068c0-0.47-0.403-0.872-0.872-0.872
	c-0.47,0-0.872,0.403-0.872,0.872v19.291c0,1.711-1.308,3.019-3.019,3.019c-1.711,0-3.019-1.376-3.019-3.019v-21.002
	c0-4.764,3.825-8.589,8.589-8.589h17.177C313.847,371.085,317.773,374.91,317.907,379.674z"/>
<path fill="#7581BA" d="M361.756,362.43c0,3.791,3.086,6.878,6.878,6.878s6.878-3.086,6.878-6.878s-3.087-6.878-6.878-6.878
	S361.756,358.639,361.756,362.43z M386.011,379.674v21.035c0,1.711-1.308,3.019-3.019,3.019c-1.711,0-3.019-1.375-3.019-3.019
	v-19.324c0-0.47-0.403-0.872-0.872-0.872c-0.47,0-0.872,0.403-0.872,0.872v52.068c0,2.583-1.912,4.697-4.294,4.697
	s-4.294-2.114-4.294-4.697v-29.691c0-0.47-0.403-0.872-0.872-0.872c-0.47,0-0.872,0.403-0.872,0.872v29.691
	c0,2.583-1.912,4.697-4.294,4.697s-4.294-2.114-4.294-4.697v-52.068c0-0.47-0.403-0.872-0.872-0.872
	c-0.47,0-0.872,0.403-0.872,0.872v19.291c0,1.711-1.308,3.019-3.019,3.019s-3.019-1.376-3.019-3.019v-21.002
	c0-4.764,3.825-8.589,8.589-8.589h17.177C381.952,371.085,385.877,374.91,386.011,379.674z"/>
<path fill="#7581BA" d="M409.86,362.43c0,3.791,3.086,6.878,6.878,6.878s6.878-3.086,6.878-6.878s-3.086-6.878-6.878-6.878
	S409.86,358.639,409.86,362.43z M434.116,379.674v21.035c0,1.711-1.308,3.019-3.019,3.019s-3.019-1.375-3.019-3.019v-19.324
	c0-0.47-0.403-0.872-0.872-0.872s-0.872,0.403-0.872,0.872v52.068c0,2.583-1.912,4.697-4.294,4.697
	c-2.382,0-4.294-2.114-4.294-4.697v-29.691c0-0.47-0.403-0.872-0.872-0.872c-0.47,0-0.872,0.403-0.872,0.872v29.691
	c0,2.583-1.912,4.697-4.294,4.697s-4.294-2.114-4.294-4.697v-52.068c0-0.47-0.403-0.872-0.872-0.872
	c-0.47,0-0.872,0.403-0.872,0.872v19.291c0,1.711-1.308,3.019-3.019,3.019c-1.711,0-3.019-1.376-3.019-3.019v-21.002
	c0-4.764,3.825-8.589,8.589-8.589h17.177C430.057,371.085,433.982,374.91,434.116,379.674z"/>
<path fill="#7581BA" d="M457.965,362.43c0,3.791,3.086,6.878,6.878,6.878s6.878-3.086,6.878-6.878s-3.087-6.878-6.878-6.878
	S457.965,358.639,457.965,362.43z M482.221,379.674v21.035c0,1.711-1.308,3.019-3.019,3.019c-1.711,0-3.019-1.375-3.019-3.019
	v-19.324c0-0.47-0.403-0.872-0.872-0.872c-0.47,0-0.872,0.403-0.872,0.872v52.068c0,2.583-1.912,4.697-4.294,4.697
	s-4.294-2.114-4.294-4.697v-29.691c0-0.47-0.403-0.872-0.872-0.872c-0.47,0-0.872,0.403-0.872,0.872v29.691
	c0,2.583-1.912,4.697-4.294,4.697s-4.294-2.114-4.294-4.697v-52.068c0-0.47-0.403-0.872-0.872-0.872
	c-0.47,0-0.872,0.403-0.872,0.872v19.291c0,1.711-1.308,3.019-3.019,3.019s-3.019-1.376-3.019-3.019v-21.002
	c0-4.764,3.825-8.589,8.589-8.589h17.177C478.161,371.085,482.087,374.91,482.221,379.674z"/>
<path fill="#7581BA" d="M506.07,362.43c0,3.791,3.086,6.878,6.877,6.878c3.791,0,6.878-3.086,6.878-6.878s-3.086-6.878-6.878-6.878
	C509.156,355.552,506.07,358.639,506.07,362.43z M530.325,379.674v21.035c0,1.711-1.308,3.019-3.019,3.019
	c-1.711,0-3.019-1.375-3.019-3.019v-19.324c0-0.47-0.403-0.872-0.872-0.872c-0.47,0-0.872,0.403-0.872,0.872v52.068
	c0,2.583-1.912,4.697-4.294,4.697s-4.294-2.114-4.294-4.697v-29.691c0-0.47-0.403-0.872-0.872-0.872s-0.872,0.403-0.872,0.872
	v29.691c0,2.583-1.912,4.697-4.294,4.697c-2.382,0-4.294-2.114-4.294-4.697v-52.068c0-0.47-0.403-0.872-0.872-0.872
	c-0.47,0-0.872,0.403-0.872,0.872v19.291c0,1.711-1.308,3.019-3.019,3.019c-1.711,0-3.019-1.376-3.019-3.019v-21.002
	c0-4.764,3.825-8.589,8.589-8.589h17.177C526.266,371.085,530.191,374.91,530.325,379.674z"/>
<path fill="#7581BA" d="M554.174,362.43c0,3.791,3.086,6.878,6.878,6.878s6.878-3.086,6.878-6.878s-3.086-6.878-6.878-6.878
	S554.174,358.639,554.174,362.43z M578.43,379.674v21.035c0,1.711-1.308,3.019-3.019,3.019s-3.019-1.375-3.019-3.019v-19.324
	c0-0.47-0.403-0.872-0.872-0.872s-0.872,0.403-0.872,0.872v52.068c0,2.583-1.912,4.697-4.294,4.697s-4.294-2.114-4.294-4.697
	v-29.691c0-0.47-0.403-0.872-0.872-0.872c-0.47,0-0.872,0.403-0.872,0.872v29.691c0,2.583-1.912,4.697-4.294,4.697
	c-2.382,0-4.294-2.114-4.294-4.697v-52.068c0-0.47-0.403-0.872-0.872-0.872c-0.47,0-0.872,0.403-0.872,0.872v19.291
	c0,1.711-1.308,3.019-3.019,3.019c-1.711,0-3.019-1.376-3.019-3.019v-21.002c0-4.764,3.825-8.589,8.589-8.589h17.177
	C574.371,371.085,578.296,374.91,578.43,379.674z"/>
<path fill="#7581BA" d="M602.279,362.43c0,3.791,3.086,6.878,6.878,6.878s6.878-3.086,6.878-6.878s-3.086-6.878-6.878-6.878
	S602.279,358.639,602.279,362.43z M626.535,379.674v21.035c0,1.711-1.308,3.019-3.019,3.019s-3.019-1.375-3.019-3.019v-19.324
	c0-0.47-0.403-0.872-0.872-0.872s-0.872,0.403-0.872,0.872v52.068c0,2.583-1.912,4.697-4.294,4.697s-4.294-2.114-4.294-4.697
	v-29.691c0-0.47-0.403-0.872-0.872-0.872c-0.47,0-0.872,0.403-0.872,0.872v29.691c0,2.583-1.912,4.697-4.294,4.697
	s-4.294-2.114-4.294-4.697v-52.068c0-0.47-0.403-0.872-0.872-0.872s-0.872,0.403-0.872,0.872v19.291
	c0,1.711-1.308,3.019-3.019,3.019s-3.019-1.376-3.019-3.019v-21.002c0-4.764,3.825-8.589,8.589-8.589h17.177
	C622.475,371.085,626.401,374.91,626.535,379.674z"/>
<path fill="#7581BA" d="M670.384,362.43c0,3.791,3.086,6.878,6.878,6.878s6.878-3.086,6.878-6.878s-3.086-6.878-6.878-6.878
	S670.384,358.639,670.384,362.43z M694.639,379.674v21.035c0,1.711-1.308,3.019-3.019,3.019s-3.019-1.375-3.019-3.019v-19.324
	c0-0.47-0.403-0.872-0.872-0.872c-0.47,0-0.872,0.403-0.872,0.872v52.068c0,2.583-1.912,4.697-4.294,4.697
	c-2.382,0-4.294-2.114-4.294-4.697v-29.691c0-0.47-0.403-0.872-0.872-0.872c-0.47,0-0.872,0.403-0.872,0.872v29.691
	c0,2.583-1.912,4.697-4.294,4.697s-4.294-2.114-4.294-4.697v-52.068c0-0.47-0.403-0.872-0.872-0.872s-0.872,0.403-0.872,0.872
	v19.291c0,1.711-1.308,3.019-3.019,3.019s-3.019-1.376-3.019-3.019v-21.002c0-4.764,3.825-8.589,8.589-8.589h17.177
	C690.58,371.085,694.505,374.91,694.639,379.674z"/>
<path fill="#7581BA" d="M718.488,362.43c0,3.791,3.086,6.878,6.878,6.878s6.878-3.086,6.878-6.878s-3.086-6.878-6.878-6.878
	S718.488,358.639,718.488,362.43z M742.744,379.674v21.035c0,1.711-1.308,3.019-3.019,3.019c-1.711,0-3.019-1.375-3.019-3.019
	v-19.324c0-0.47-0.403-0.872-0.872-0.872c-0.47,0-0.872,0.403-0.872,0.872v52.068c0,2.583-1.912,4.697-4.294,4.697
	s-4.294-2.114-4.294-4.697v-29.691c0-0.47-0.403-0.872-0.872-0.872s-0.872,0.403-0.872,0.872v29.691
	c0,2.583-1.912,4.697-4.294,4.697s-4.294-2.114-4.294-4.697v-52.068c0-0.47-0.403-0.872-0.872-0.872
	c-0.47,0-0.872,0.403-0.872,0.872v19.291c0,1.711-1.308,3.019-3.019,3.019c-1.711,0-3.019-1.376-3.019-3.019v-21.002
	c0-4.764,3.825-8.589,8.589-8.589h17.177C738.685,371.085,742.61,374.91,742.744,379.674z"/>
<path fill="#7581BA" d="M766.593,362.43c0,3.791,3.086,6.878,6.878,6.878s6.878-3.086,6.878-6.878s-3.086-6.878-6.878-6.878
	S766.593,358.639,766.593,362.43z M790.849,379.674v21.035c0,1.711-1.308,3.019-3.019,3.019s-3.019-1.375-3.019-3.019v-19.324
	c0-0.47-0.403-0.872-0.872-0.872s-0.872,0.403-0.872,0.872v52.068c0,2.583-1.912,4.697-4.294,4.697s-4.294-2.114-4.294-4.697
	v-29.691c0-0.47-0.403-0.872-0.872-0.872c-0.47,0-0.872,0.403-0.872,0.872v29.691c0,2.583-1.912,4.697-4.294,4.697
	c-2.382,0-4.294-2.114-4.294-4.697v-52.068c0-0.47-0.403-0.872-0.872-0.872c-0.47,0-0.872,0.403-0.872,0.872v19.291
	c0,1.711-1.308,3.019-3.019,3.019s-3.019-1.376-3.019-3.019v-21.002c0-4.764,3.825-8.589,8.588-8.589h17.177
	C786.789,371.085,790.715,374.91,790.849,379.674z"/>
<path fill="#7581BA" d="M814.698,362.43c0,3.791,3.086,6.878,6.878,6.878s6.878-3.086,6.878-6.878s-3.086-6.878-6.878-6.878
	S814.698,358.639,814.698,362.43z M838.953,379.674v21.035c0,1.711-1.308,3.019-3.019,3.019s-3.019-1.375-3.019-3.019v-19.324
	c0-0.47-0.403-0.872-0.872-0.872s-0.872,0.403-0.872,0.872v52.068c0,2.583-1.912,4.697-4.294,4.697s-4.294-2.114-4.294-4.697
	v-29.691c0-0.47-0.403-0.872-0.872-0.872c-0.47,0-0.872,0.403-0.872,0.872v29.691c0,2.583-1.912,4.697-4.294,4.697
	s-4.294-2.114-4.294-4.697v-52.068c0-0.47-0.403-0.872-0.872-0.872s-0.872,0.403-0.872,0.872v19.291
	c0,1.711-1.308,3.019-3.019,3.019s-3.019-1.376-3.019-3.019v-21.002c0-4.764,3.825-8.589,8.589-8.589h17.177
	C834.894,371.085,838.819,374.91,838.953,379.674z"/>
<path fill="#7581BA" d="M862.802,362.43c0,3.791,3.086,6.878,6.878,6.878s6.878-3.086,6.878-6.878s-3.086-6.878-6.878-6.878
	S862.802,358.639,862.802,362.43z M887.058,379.674v21.035c0,1.711-1.308,3.019-3.019,3.019c-1.711,0-3.019-1.375-3.019-3.019
	v-19.324c0-0.47-0.403-0.872-0.872-0.872c-0.47,0-0.872,0.403-0.872,0.872v52.068c0,2.583-1.912,4.697-4.294,4.697
	c-2.382,0-4.294-2.114-4.294-4.697v-29.691c0-0.47-0.403-0.872-0.872-0.872c-0.47,0-0.872,0.403-0.872,0.872v29.691
	c0,2.583-1.912,4.697-4.294,4.697s-4.294-2.114-4.294-4.697v-52.068c0-0.47-0.403-0.872-0.872-0.872s-0.872,0.403-0.872,0.872
	v19.291c0,1.711-1.308,3.019-3.019,3.019s-3.019-1.376-3.019-3.019v-21.002c0-4.764,3.825-8.589,8.589-8.589h17.177
	C882.999,371.085,886.924,374.91,887.058,379.674z"/>
<path fill="#7581BA" d="M930.907,362.43c0,3.791,3.086,6.878,6.878,6.878s6.878-3.086,6.878-6.878s-3.086-6.878-6.878-6.878
	S930.907,358.639,930.907,362.43z M955.163,379.674v21.035c0,1.711-1.308,3.019-3.019,3.019c-1.711,0-3.019-1.375-3.019-3.019
	v-19.324c0-0.47-0.403-0.872-0.872-0.872c-0.47,0-0.872,0.403-0.872,0.872v52.068c0,2.583-1.912,4.697-4.294,4.697
	s-4.294-2.114-4.294-4.697v-29.691c0-0.47-0.403-0.872-0.872-0.872s-0.872,0.403-0.872,0.872v29.691
	c0,2.583-1.912,4.697-4.294,4.697s-4.294-2.114-4.294-4.697v-52.068c0-0.47-0.403-0.872-0.872-0.872
	c-0.47,0-0.872,0.403-0.872,0.872v19.291c0,1.711-1.308,3.019-3.019,3.019c-1.711,0-3.019-1.376-3.019-3.019v-21.002
	c0-4.764,3.825-8.589,8.589-8.589h17.177C951.103,371.085,955.029,374.91,955.163,379.674z"/>
<path fill="#7581BA" d="M979.012,362.43c0,3.791,3.086,6.878,6.878,6.878s6.878-3.086,6.878-6.878s-3.086-6.878-6.878-6.878
	S979.012,358.639,979.012,362.43z M1003.267,379.674v21.035c0,1.711-1.308,3.019-3.019,3.019s-3.019-1.375-3.019-3.019v-19.324
	c0-0.47-0.403-0.872-0.872-0.872s-0.872,0.403-0.872,0.872v52.068c0,2.583-1.912,4.697-4.294,4.697s-4.294-2.114-4.294-4.697
	v-29.691c0-0.47-0.403-0.872-0.872-0.872c-0.47,0-0.872,0.403-0.872,0.872v29.691c0,2.583-1.912,4.697-4.294,4.697
	c-2.382,0-4.294-2.114-4.294-4.697v-52.068c0-0.47-0.403-0.872-0.872-0.872c-0.47,0-0.872,0.403-0.872,0.872v19.291
	c0,1.711-1.308,3.019-3.019,3.019s-3.019-1.376-3.019-3.019v-21.002c0-4.764,3.825-8.589,8.588-8.589h17.177
	C999.208,371.085,1003.133,374.91,1003.267,379.674z"/>
<path fill="#7581BA" d="M1027.116,362.43c0,3.791,3.087,6.878,6.878,6.878s6.877-3.086,6.877-6.878s-3.086-6.878-6.877-6.878
	S1027.116,358.639,1027.116,362.43z M1051.372,379.674v21.035c0,1.711-1.308,3.019-3.019,3.019c-1.711,0-3.019-1.375-3.019-3.019
	v-19.324c0-0.47-0.403-0.872-0.872-0.872c-0.47,0-0.872,0.403-0.872,0.872v52.068c0,2.583-1.912,4.697-4.294,4.697
	s-4.294-2.114-4.294-4.697v-29.691c0-0.47-0.403-0.872-0.872-0.872c-0.47,0-0.872,0.403-0.872,0.872v29.691
	c0,2.583-1.912,4.697-4.294,4.697s-4.294-2.114-4.294-4.697v-52.068c0-0.47-0.403-0.872-0.872-0.872
	c-0.47,0-0.872,0.403-0.872,0.872v19.291c0,1.711-1.308,3.019-3.019,3.019s-3.019-1.376-3.019-3.019v-21.002
	c0-4.764,3.825-8.589,8.589-8.589h17.177C1047.313,371.085,1051.238,374.91,1051.372,379.674z"/>
<path fill="#7581BA" d="M1075.221,362.43c0,3.791,3.086,6.878,6.877,6.878s6.878-3.086,6.878-6.878s-3.087-6.878-6.878-6.878
	S1075.221,358.639,1075.221,362.43z M1099.477,379.674v21.035c0,1.711-1.308,3.019-3.019,3.019c-1.711,0-3.019-1.375-3.019-3.019
	v-19.324c0-0.47-0.403-0.872-0.872-0.872c-0.47,0-0.872,0.403-0.872,0.872v52.068c0,2.583-1.912,4.697-4.294,4.697
	s-4.294-2.114-4.294-4.697v-29.691c0-0.47-0.403-0.872-0.872-0.872c-0.47,0-0.872,0.403-0.872,0.872v29.691
	c0,2.583-1.912,4.697-4.294,4.697c-2.382,0-4.294-2.114-4.294-4.697v-52.068c0-0.47-0.403-0.872-0.872-0.872
	c-0.47,0-0.872,0.403-0.872,0.872v19.291c0,1.711-1.308,3.019-3.019,3.019c-1.711,0-3.019-1.376-3.019-3.019v-21.002
	c0-4.764,3.825-8.589,8.589-8.589h17.177C1095.417,371.085,1099.343,374.91,1099.477,379.674z"/>
<path fill="#7581BA" d="M1123.326,362.43c0,3.791,3.087,6.878,6.878,6.878s6.877-3.086,6.877-6.878s-3.086-6.878-6.877-6.878
	S1123.326,358.639,1123.326,362.43z M1147.581,379.674v21.035c0,1.711-1.308,3.019-3.019,3.019c-1.711,0-3.019-1.375-3.019-3.019
	v-19.324c0-0.47-0.403-0.872-0.872-0.872c-0.47,0-0.872,0.403-0.872,0.872v52.068c0,2.583-1.912,4.697-4.294,4.697
	s-4.294-2.114-4.294-4.697v-29.691c0-0.47-0.403-0.872-0.872-0.872s-0.872,0.403-0.872,0.872v29.691
	c0,2.583-1.912,4.697-4.294,4.697s-4.294-2.114-4.294-4.697v-52.068c0-0.47-0.403-0.872-0.872-0.872
	c-0.47,0-0.872,0.403-0.872,0.872v19.291c0,1.711-1.308,3.019-3.019,3.019c-1.711,0-3.019-1.376-3.019-3.019v-21.002
	c0-4.764,3.825-8.589,8.589-8.589h17.177C1143.522,371.085,1147.447,374.91,1147.581,379.674z"/>
<path fill="#7581BA" d="M1191.43,362.43c0,3.791,3.087,6.878,6.878,6.878s6.878-3.086,6.878-6.878s-3.087-6.878-6.878-6.878
	S1191.43,358.639,1191.43,362.43z M1215.686,379.674v21.035c0,1.711-1.308,3.019-3.019,3.019s-3.019-1.375-3.019-3.019v-19.324
	c0-0.47-0.403-0.872-0.872-0.872c-0.47,0-0.872,0.403-0.872,0.872v52.068c0,2.583-1.912,4.697-4.294,4.697s-4.294-2.114-4.294-4.697
	v-29.691c0-0.47-0.403-0.872-0.872-0.872c-0.47,0-0.872,0.403-0.872,0.872v29.691c0,2.583-1.912,4.697-4.294,4.697
	s-4.294-2.114-4.294-4.697v-52.068c0-0.47-0.403-0.872-0.872-0.872s-0.872,0.403-0.872,0.872v19.291
	c0,1.711-1.308,3.019-3.019,3.019c-1.711,0-3.019-1.376-3.019-3.019v-21.002c0-4.764,3.825-8.589,8.589-8.589h17.177
	C1211.627,371.085,1215.552,374.91,1215.686,379.674z"/>
<path fill="#7581BA" d="M1239.535,362.43c0,3.791,3.086,6.878,6.877,6.878s6.878-3.086,6.878-6.878s-3.087-6.878-6.878-6.878
	S1239.535,358.639,1239.535,362.43z M1263.791,379.674v21.035c0,1.711-1.308,3.019-3.019,3.019c-1.711,0-3.019-1.375-3.019-3.019
	v-19.324c0-0.47-0.403-0.872-0.872-0.872s-0.872,0.403-0.872,0.872v52.068c0,2.583-1.912,4.697-4.294,4.697
	s-4.294-2.114-4.294-4.697v-29.691c0-0.47-0.403-0.872-0.872-0.872c-0.47,0-0.872,0.403-0.872,0.872v29.691
	c0,2.583-1.912,4.697-4.294,4.697s-4.294-2.114-4.294-4.697v-52.068c0-0.47-0.403-0.872-0.872-0.872
	c-0.47,0-0.872,0.403-0.872,0.872v19.291c0,1.711-1.308,3.019-3.019,3.019s-3.019-1.376-3.019-3.019v-21.002
	c0-4.764,3.825-8.589,8.589-8.589h17.177C1259.731,371.085,1263.656,374.91,1263.791,379.674z"/>
<path fill="#7581BA" d="M101.232,480.28c0,3.791,3.086,6.878,6.878,6.878s6.878-3.086,6.878-6.878s-3.086-6.878-6.878-6.878
	S101.232,476.489,101.232,480.28z M125.488,497.524v21.035c0,1.711-1.308,3.019-3.019,3.019c-1.711,0-3.019-1.375-3.019-3.019
	v-19.324c0-0.47-0.403-0.872-0.872-0.872c-0.47,0-0.872,0.403-0.872,0.872v52.068c0,2.583-1.912,4.697-4.294,4.697
	s-4.294-2.114-4.294-4.697v-29.691c0-0.47-0.403-0.872-0.872-0.872s-0.872,0.403-0.872,0.872v29.691
	c0,2.583-1.912,4.697-4.294,4.697s-4.294-2.114-4.294-4.697v-52.068c0-0.47-0.403-0.872-0.872-0.872s-0.872,0.403-0.872,0.872
	v19.291c0,1.711-1.308,3.019-3.019,3.019S91,520.17,91,518.526v-21.002c0-4.764,3.825-8.589,8.588-8.589h17.177
	C121.429,488.936,125.354,492.76,125.488,497.524z"/>
<path fill="#7581BA" d="M149.337,480.28c0,3.791,3.086,6.878,6.878,6.878s6.878-3.086,6.878-6.878s-3.086-6.878-6.878-6.878
	S149.337,476.489,149.337,480.28z M173.593,497.524v21.035c0,1.711-1.308,3.019-3.019,3.019c-1.711,0-3.019-1.375-3.019-3.019
	v-19.324c0-0.47-0.403-0.872-0.872-0.872s-0.872,0.403-0.872,0.872v52.068c0,2.583-1.912,4.697-4.294,4.697
	c-2.382,0-4.294-2.114-4.294-4.697v-29.691c0-0.47-0.403-0.872-0.872-0.872c-0.47,0-0.872,0.403-0.872,0.872v29.691
	c0,2.583-1.912,4.697-4.294,4.697c-2.382,0-4.294-2.114-4.294-4.697v-52.068c0-0.47-0.403-0.872-0.872-0.872
	s-0.872,0.403-0.872,0.872v19.291c0,1.711-1.308,3.019-3.019,3.019s-3.019-1.375-3.019-3.019v-21.002
	c0-4.764,3.825-8.589,8.589-8.589h17.177C169.533,488.936,173.459,492.76,173.593,497.524z"/>
<path fill="#7581BA" d="M197.442,480.28c0,3.791,3.086,6.878,6.878,6.878s6.878-3.086,6.878-6.878s-3.086-6.878-6.878-6.878
	S197.442,476.489,197.442,480.28z M221.697,497.524v21.035c0,1.711-1.308,3.019-3.019,3.019c-1.711,0-3.019-1.375-3.019-3.019
	v-19.324c0-0.47-0.403-0.872-0.872-0.872s-0.872,0.403-0.872,0.872v52.068c0,2.583-1.912,4.697-4.294,4.697
	c-2.382,0-4.294-2.114-4.294-4.697v-29.691c0-0.47-0.403-0.872-0.872-0.872c-0.47,0-0.872,0.403-0.872,0.872v29.691
	c0,2.583-1.912,4.697-4.294,4.697c-2.382,0-4.294-2.114-4.294-4.697v-52.068c0-0.47-0.403-0.872-0.872-0.872
	s-0.872,0.403-0.872,0.872v19.291c0,1.711-1.308,3.019-3.019,3.019s-3.019-1.375-3.019-3.019v-21.002
	c0-4.764,3.825-8.589,8.589-8.589h17.177C217.638,488.936,221.563,492.76,221.697,497.524z"/>
<path fill="#7581BA" d="M245.546,480.28c0,3.791,3.086,6.878,6.878,6.878c3.791,0,6.878-3.086,6.878-6.878s-3.087-6.878-6.878-6.878
	C248.633,473.403,245.546,476.489,245.546,480.28z M269.802,497.524v21.035c0,1.711-1.308,3.019-3.019,3.019
	c-1.711,0-3.019-1.375-3.019-3.019v-19.324c0-0.47-0.403-0.872-0.872-0.872c-0.47,0-0.872,0.403-0.872,0.872v52.068
	c0,2.583-1.912,4.697-4.294,4.697s-4.294-2.114-4.294-4.697v-29.691c0-0.47-0.403-0.872-0.872-0.872
	c-0.47,0-0.872,0.403-0.872,0.872v29.691c0,2.583-1.912,4.697-4.294,4.697c-2.382,0-4.294-2.114-4.294-4.697v-52.068
	c0-0.47-0.403-0.872-0.872-0.872s-0.872,0.403-0.872,0.872v19.291c0,1.711-1.308,3.019-3.019,3.019
	c-1.711,0-3.019-1.375-3.019-3.019v-21.002c0-4.764,3.825-8.589,8.589-8.589h17.177C265.743,488.936,269.668,492.76,269.802,497.524
	z"/>
<path fill="#7581BA" d="M293.651,480.28c0,3.791,3.086,6.878,6.878,6.878s6.878-3.086,6.878-6.878s-3.086-6.878-6.878-6.878
	S293.651,476.489,293.651,480.28z M317.907,497.524v21.035c0,1.711-1.308,3.019-3.019,3.019s-3.019-1.375-3.019-3.019v-19.324
	c0-0.47-0.403-0.872-0.872-0.872s-0.872,0.403-0.872,0.872v52.068c0,2.583-1.912,4.697-4.294,4.697
	c-2.382,0-4.294-2.114-4.294-4.697v-29.691c0-0.47-0.403-0.872-0.872-0.872c-0.47,0-0.872,0.403-0.872,0.872v29.691
	c0,2.583-1.912,4.697-4.294,4.697s-4.294-2.114-4.294-4.697v-52.068c0-0.47-0.403-0.872-0.872-0.872
	c-0.47,0-0.872,0.403-0.872,0.872v19.291c0,1.711-1.308,3.019-3.019,3.019c-1.711,0-3.019-1.375-3.019-3.019v-21.002
	c0-4.764,3.825-8.589,8.589-8.589h17.177C313.847,488.936,317.773,492.76,317.907,497.524z"/>
<path fill="#7581BA" d="M361.756,480.28c0,3.791,3.086,6.878,6.878,6.878s6.878-3.086,6.878-6.878s-3.087-6.878-6.878-6.878
	S361.756,476.489,361.756,480.28z M386.011,497.524v21.035c0,1.711-1.308,3.019-3.019,3.019c-1.711,0-3.019-1.375-3.019-3.019
	v-19.324c0-0.47-0.403-0.872-0.872-0.872c-0.47,0-0.872,0.403-0.872,0.872v52.068c0,2.583-1.912,4.697-4.294,4.697
	s-4.294-2.114-4.294-4.697v-29.691c0-0.47-0.403-0.872-0.872-0.872c-0.47,0-0.872,0.403-0.872,0.872v29.691
	c0,2.583-1.912,4.697-4.294,4.697s-4.294-2.114-4.294-4.697v-52.068c0-0.47-0.403-0.872-0.872-0.872
	c-0.47,0-0.872,0.403-0.872,0.872v19.291c0,1.711-1.308,3.019-3.019,3.019s-3.019-1.375-3.019-3.019v-21.002
	c0-4.764,3.825-8.589,8.589-8.589h17.177C381.952,488.936,385.877,492.76,386.011,497.524z"/>
<path fill="#7581BA" d="M409.86,480.28c0,3.791,3.086,6.878,6.878,6.878s6.878-3.086,6.878-6.878s-3.086-6.878-6.878-6.878
	S409.86,476.489,409.86,480.28z M434.116,497.524v21.035c0,1.711-1.308,3.019-3.019,3.019s-3.019-1.375-3.019-3.019v-19.324
	c0-0.47-0.403-0.872-0.872-0.872s-0.872,0.403-0.872,0.872v52.068c0,2.583-1.912,4.697-4.294,4.697
	c-2.382,0-4.294-2.114-4.294-4.697v-29.691c0-0.47-0.403-0.872-0.872-0.872c-0.47,0-0.872,0.403-0.872,0.872v29.691
	c0,2.583-1.912,4.697-4.294,4.697s-4.294-2.114-4.294-4.697v-52.068c0-0.47-0.403-0.872-0.872-0.872
	c-0.47,0-0.872,0.403-0.872,0.872v19.291c0,1.711-1.308,3.019-3.019,3.019c-1.711,0-3.019-1.375-3.019-3.019v-21.002
	c0-4.764,3.825-8.589,8.589-8.589h17.177C430.057,488.936,433.982,492.76,434.116,497.524z"/>
<path fill="#7581BA" d="M457.965,480.28c0,3.791,3.086,6.878,6.878,6.878s6.878-3.086,6.878-6.878s-3.087-6.878-6.878-6.878
	S457.965,476.489,457.965,480.28z M482.221,497.524v21.035c0,1.711-1.308,3.019-3.019,3.019c-1.711,0-3.019-1.375-3.019-3.019
	v-19.324c0-0.47-0.403-0.872-0.872-0.872c-0.47,0-0.872,0.403-0.872,0.872v52.068c0,2.583-1.912,4.697-4.294,4.697
	s-4.294-2.114-4.294-4.697v-29.691c0-0.47-0.403-0.872-0.872-0.872c-0.47,0-0.872,0.403-0.872,0.872v29.691
	c0,2.583-1.912,4.697-4.294,4.697s-4.294-2.114-4.294-4.697v-52.068c0-0.47-0.403-0.872-0.872-0.872
	c-0.47,0-0.872,0.403-0.872,0.872v19.291c0,1.711-1.308,3.019-3.019,3.019s-3.019-1.375-3.019-3.019v-21.002
	c0-4.764,3.825-8.589,8.589-8.589h17.177C478.161,488.936,482.087,492.76,482.221,497.524z"/>
<path fill="#7581BA" d="M506.07,480.28c0,3.791,3.086,6.878,6.877,6.878c3.791,0,6.878-3.086,6.878-6.878s-3.086-6.878-6.878-6.878
	C509.156,473.403,506.07,476.489,506.07,480.28z M530.325,497.524v21.035c0,1.711-1.308,3.019-3.019,3.019
	c-1.711,0-3.019-1.375-3.019-3.019v-19.324c0-0.47-0.403-0.872-0.872-0.872c-0.47,0-0.872,0.403-0.872,0.872v52.068
	c0,2.583-1.912,4.697-4.294,4.697s-4.294-2.114-4.294-4.697v-29.691c0-0.47-0.403-0.872-0.872-0.872s-0.872,0.403-0.872,0.872
	v29.691c0,2.583-1.912,4.697-4.294,4.697c-2.382,0-4.294-2.114-4.294-4.697v-52.068c0-0.47-0.403-0.872-0.872-0.872
	c-0.47,0-0.872,0.403-0.872,0.872v19.291c0,1.711-1.308,3.019-3.019,3.019c-1.711,0-3.019-1.375-3.019-3.019v-21.002
	c0-4.764,3.825-8.589,8.589-8.589h17.177C526.266,488.936,530.191,492.76,530.325,497.524z"/>
<path fill="#7581BA" d="M554.174,480.28c0,3.791,3.086,6.878,6.878,6.878s6.878-3.086,6.878-6.878s-3.086-6.878-6.878-6.878
	S554.174,476.489,554.174,480.28z M578.43,497.524v21.035c0,1.711-1.308,3.019-3.019,3.019s-3.019-1.375-3.019-3.019v-19.324
	c0-0.47-0.403-0.872-0.872-0.872s-0.872,0.403-0.872,0.872v52.068c0,2.583-1.912,4.697-4.294,4.697s-4.294-2.114-4.294-4.697
	v-29.691c0-0.47-0.403-0.872-0.872-0.872c-0.47,0-0.872,0.403-0.872,0.872v29.691c0,2.583-1.912,4.697-4.294,4.697
	c-2.382,0-4.294-2.114-4.294-4.697v-52.068c0-0.47-0.403-0.872-0.872-0.872c-0.47,0-0.872,0.403-0.872,0.872v19.291
	c0,1.711-1.308,3.019-3.019,3.019c-1.711,0-3.019-1.375-3.019-3.019v-21.002c0-4.764,3.825-8.589,8.589-8.589h17.177
	C574.371,488.936,578.296,492.76,578.43,497.524z"/>
<path fill="#7581BA" d="M602.279,480.28c0,3.791,3.086,6.878,6.878,6.878s6.878-3.086,6.878-6.878s-3.086-6.878-6.878-6.878
	S602.279,476.489,602.279,480.28z M626.535,497.524v21.035c0,1.711-1.308,3.019-3.019,3.019s-3.019-1.375-3.019-3.019v-19.324
	c0-0.47-0.403-0.872-0.872-0.872s-0.872,0.403-0.872,0.872v52.068c0,2.583-1.912,4.697-4.294,4.697s-4.294-2.114-4.294-4.697
	v-29.691c0-0.47-0.403-0.872-0.872-0.872c-0.47,0-0.872,0.403-0.872,0.872v29.691c0,2.583-1.912,4.697-4.294,4.697
	s-4.294-2.114-4.294-4.697v-52.068c0-0.47-0.403-0.872-0.872-0.872s-0.872,0.403-0.872,0.872v19.291
	c0,1.711-1.308,3.019-3.019,3.019s-3.019-1.375-3.019-3.019v-21.002c0-4.764,3.825-8.589,8.589-8.589h17.177
	C622.475,488.936,626.401,492.76,626.535,497.524z"/>
<path fill="#7581BA" d="M670.384,480.28c0,3.791,3.086,6.878,6.878,6.878s6.878-3.086,6.878-6.878s-3.086-6.878-6.878-6.878
	S670.384,476.489,670.384,480.28z M694.639,497.524v21.035c0,1.711-1.308,3.019-3.019,3.019s-3.019-1.375-3.019-3.019v-19.324
	c0-0.47-0.403-0.872-0.872-0.872c-0.47,0-0.872,0.403-0.872,0.872v52.068c0,2.583-1.912,4.697-4.294,4.697
	c-2.382,0-4.294-2.114-4.294-4.697v-29.691c0-0.47-0.403-0.872-0.872-0.872c-0.47,0-0.872,0.403-0.872,0.872v29.691
	c0,2.583-1.912,4.697-4.294,4.697s-4.294-2.114-4.294-4.697v-52.068c0-0.47-0.403-0.872-0.872-0.872s-0.872,0.403-0.872,0.872
	v19.291c0,1.711-1.308,3.019-3.019,3.019s-3.019-1.375-3.019-3.019v-21.002c0-4.764,3.825-8.589,8.589-8.589h17.177
	C690.58,488.936,694.505,492.76,694.639,497.524z"/>
<path fill="#7581BA" d="M718.488,480.28c0,3.791,3.086,6.878,6.878,6.878s6.878-3.086,6.878-6.878s-3.086-6.878-6.878-6.878
	S718.488,476.489,718.488,480.28z M742.744,497.524v21.035c0,1.711-1.308,3.019-3.019,3.019c-1.711,0-3.019-1.375-3.019-3.019
	v-19.324c0-0.47-0.403-0.872-0.872-0.872c-0.47,0-0.872,0.403-0.872,0.872v52.068c0,2.583-1.912,4.697-4.294,4.697
	s-4.294-2.114-4.294-4.697v-29.691c0-0.47-0.403-0.872-0.872-0.872s-0.872,0.403-0.872,0.872v29.691
	c0,2.583-1.912,4.697-4.294,4.697s-4.294-2.114-4.294-4.697v-52.068c0-0.47-0.403-0.872-0.872-0.872
	c-0.47,0-0.872,0.403-0.872,0.872v19.291c0,1.711-1.308,3.019-3.019,3.019c-1.711,0-3.019-1.375-3.019-3.019v-21.002
	c0-4.764,3.825-8.589,8.589-8.589h17.177C738.685,488.936,742.61,492.76,742.744,497.524z"/>
<path fill="#7581BA" d="M766.593,480.28c0,3.791,3.086,6.878,6.878,6.878s6.878-3.086,6.878-6.878s-3.086-6.878-6.878-6.878
	S766.593,476.489,766.593,480.28z M790.849,497.524v21.035c0,1.711-1.308,3.019-3.019,3.019s-3.019-1.375-3.019-3.019v-19.324
	c0-0.47-0.403-0.872-0.872-0.872s-0.872,0.403-0.872,0.872v52.068c0,2.583-1.912,4.697-4.294,4.697s-4.294-2.114-4.294-4.697
	v-29.691c0-0.47-0.403-0.872-0.872-0.872c-0.47,0-0.872,0.403-0.872,0.872v29.691c0,2.583-1.912,4.697-4.294,4.697
	c-2.382,0-4.294-2.114-4.294-4.697v-52.068c0-0.47-0.403-0.872-0.872-0.872c-0.47,0-0.872,0.403-0.872,0.872v19.291
	c0,1.711-1.308,3.019-3.019,3.019s-3.019-1.375-3.019-3.019v-21.002c0-4.764,3.825-8.589,8.588-8.589h17.177
	C786.789,488.936,790.715,492.76,790.849,497.524z"/>
<path fill="#7581BA" d="M814.698,480.28c0,3.791,3.086,6.878,6.878,6.878s6.878-3.086,6.878-6.878s-3.086-6.878-6.878-6.878
	S814.698,476.489,814.698,480.28z M838.953,497.524v21.035c0,1.711-1.308,3.019-3.019,3.019s-3.019-1.375-3.019-3.019v-19.324
	c0-0.47-0.403-0.872-0.872-0.872s-0.872,0.403-0.872,0.872v52.068c0,2.583-1.912,4.697-4.294,4.697s-4.294-2.114-4.294-4.697
	v-29.691c0-0.47-0.403-0.872-0.872-0.872c-0.47,0-0.872,0.403-0.872,0.872v29.691c0,2.583-1.912,4.697-4.294,4.697
	s-4.294-2.114-4.294-4.697v-52.068c0-0.47-0.403-0.872-0.872-0.872s-0.872,0.403-0.872,0.872v19.291
	c0,1.711-1.308,3.019-3.019,3.019s-3.019-1.375-3.019-3.019v-21.002c0-4.764,3.825-8.589,8.589-8.589h17.177
	C834.894,488.936,838.819,492.76,838.953,497.524z"/>
<path fill="#7581BA" d="M862.802,480.28c0,3.791,3.086,6.878,6.878,6.878s6.878-3.086,6.878-6.878s-3.086-6.878-6.878-6.878
	S862.802,476.489,862.802,480.28z M887.058,497.524v21.035c0,1.711-1.308,3.019-3.019,3.019c-1.711,0-3.019-1.375-3.019-3.019
	v-19.324c0-0.47-0.403-0.872-0.872-0.872c-0.47,0-0.872,0.403-0.872,0.872v52.068c0,2.583-1.912,4.697-4.294,4.697
	c-2.382,0-4.294-2.114-4.294-4.697v-29.691c0-0.47-0.403-0.872-0.872-0.872c-0.47,0-0.872,0.403-0.872,0.872v29.691
	c0,2.583-1.912,4.697-4.294,4.697s-4.294-2.114-4.294-4.697v-52.068c0-0.47-0.403-0.872-0.872-0.872s-0.872,0.403-0.872,0.872
	v19.291c0,1.711-1.308,3.019-3.019,3.019s-3.019-1.375-3.019-3.019v-21.002c0-4.764,3.825-8.589,8.589-8.589h17.177
	C882.999,488.936,886.924,492.76,887.058,497.524z"/>
<path fill="#7581BA" d="M101.232,126.728c0,3.791,3.086,6.878,6.878,6.878s6.878-3.086,6.878-6.878s-3.086-6.878-6.878-6.878
	S101.232,122.937,101.232,126.728z M125.488,143.972v21.035c0,1.711-1.308,3.019-3.019,3.019c-1.711,0-3.019-1.376-3.019-3.019
	v-19.324c0-0.47-0.403-0.872-0.872-0.872c-0.47,0-0.872,0.403-0.872,0.872v52.068c0,2.583-1.912,4.697-4.294,4.697
	s-4.294-2.114-4.294-4.697V168.06c0-0.47-0.403-0.872-0.872-0.872s-0.872,0.403-0.872,0.872v29.691c0,2.583-1.912,4.697-4.294,4.697
	s-4.294-2.114-4.294-4.697v-52.068c0-0.47-0.403-0.872-0.872-0.872s-0.872,0.403-0.872,0.872v19.291
	c0,1.711-1.308,3.019-3.019,3.019S91,166.618,91,164.974v-21.002c0-4.764,3.825-8.589,8.588-8.589h17.177
	C121.429,135.384,125.354,139.208,125.488,143.972z"/>
<path fill="#7581BA" d="M149.337,126.728c0,3.791,3.086,6.878,6.878,6.878s6.878-3.086,6.878-6.878s-3.086-6.878-6.878-6.878
	S149.337,122.937,149.337,126.728z M173.593,143.972v21.035c0,1.711-1.308,3.019-3.019,3.019c-1.711,0-3.019-1.376-3.019-3.019
	v-19.324c0-0.47-0.403-0.872-0.872-0.872s-0.872,0.403-0.872,0.872v52.068c0,2.583-1.912,4.697-4.294,4.697
	c-2.382,0-4.294-2.114-4.294-4.697V168.06c0-0.47-0.403-0.872-0.872-0.872c-0.47,0-0.872,0.403-0.872,0.872v29.691
	c0,2.583-1.912,4.697-4.294,4.697c-2.382,0-4.294-2.114-4.294-4.697v-52.068c0-0.47-0.403-0.872-0.872-0.872
	s-0.872,0.403-0.872,0.872v19.291c0,1.711-1.308,3.019-3.019,3.019s-3.019-1.376-3.019-3.019v-21.002
	c0-4.764,3.825-8.589,8.589-8.589h17.177C169.533,135.384,173.459,139.208,173.593,143.972z"/>
<path fill="#7581BA" d="M197.442,126.728c0,3.791,3.086,6.878,6.878,6.878s6.878-3.086,6.878-6.878s-3.086-6.878-6.878-6.878
	S197.442,122.937,197.442,126.728z M221.697,143.972v21.035c0,1.711-1.308,3.019-3.019,3.019c-1.711,0-3.019-1.376-3.019-3.019
	v-19.324c0-0.47-0.403-0.872-0.872-0.872s-0.872,0.403-0.872,0.872v52.068c0,2.583-1.912,4.697-4.294,4.697
	c-2.382,0-4.294-2.114-4.294-4.697V168.06c0-0.47-0.403-0.872-0.872-0.872c-0.47,0-0.872,0.403-0.872,0.872v29.691
	c0,2.583-1.912,4.697-4.294,4.697c-2.382,0-4.294-2.114-4.294-4.697v-52.068c0-0.47-0.403-0.872-0.872-0.872
	s-0.872,0.403-0.872,0.872v19.291c0,1.711-1.308,3.019-3.019,3.019s-3.019-1.376-3.019-3.019v-21.002
	c0-4.764,3.825-8.589,8.589-8.589h17.177C217.638,135.384,221.563,139.208,221.697,143.972z"/>
<path fill="#7581BA" d="M245.546,126.728c0,3.791,3.086,6.878,6.878,6.878c3.791,0,6.878-3.086,6.878-6.878
	s-3.087-6.878-6.878-6.878C248.633,119.851,245.546,122.937,245.546,126.728z M269.802,143.972v21.035
	c0,1.711-1.308,3.019-3.019,3.019c-1.711,0-3.019-1.376-3.019-3.019v-19.324c0-0.47-0.403-0.872-0.872-0.872
	c-0.47,0-0.872,0.403-0.872,0.872v52.068c0,2.583-1.912,4.697-4.294,4.697s-4.294-2.114-4.294-4.697V168.06
	c0-0.47-0.403-0.872-0.872-0.872c-0.47,0-0.872,0.403-0.872,0.872v29.691c0,2.583-1.912,4.697-4.294,4.697
	c-2.382,0-4.294-2.114-4.294-4.697v-52.068c0-0.47-0.403-0.872-0.872-0.872s-0.872,0.403-0.872,0.872v19.291
	c0,1.711-1.308,3.019-3.019,3.019c-1.711,0-3.019-1.376-3.019-3.019v-21.002c0-4.764,3.825-8.589,8.589-8.589h17.177
	C265.743,135.384,269.668,139.208,269.802,143.972z"/>
<path fill="#7581BA" d="M293.651,126.728c0,3.791,3.086,6.878,6.878,6.878s6.878-3.086,6.878-6.878s-3.086-6.878-6.878-6.878
	S293.651,122.937,293.651,126.728z M317.907,143.972v21.035c0,1.711-1.308,3.019-3.019,3.019s-3.019-1.376-3.019-3.019v-19.324
	c0-0.47-0.403-0.872-0.872-0.872s-0.872,0.403-0.872,0.872v52.068c0,2.583-1.912,4.697-4.294,4.697
	c-2.382,0-4.294-2.114-4.294-4.697V168.06c0-0.47-0.403-0.872-0.872-0.872c-0.47,0-0.872,0.403-0.872,0.872v29.691
	c0,2.583-1.912,4.697-4.294,4.697s-4.294-2.114-4.294-4.697v-52.068c0-0.47-0.403-0.872-0.872-0.872
	c-0.47,0-0.872,0.403-0.872,0.872v19.291c0,1.711-1.308,3.019-3.019,3.019c-1.711,0-3.019-1.376-3.019-3.019v-21.002
	c0-4.764,3.825-8.589,8.589-8.589h17.177C313.847,135.384,317.773,139.208,317.907,143.972z"/>
<path fill="#7581BA" d="M361.756,126.728c0,3.791,3.086,6.878,6.878,6.878s6.878-3.086,6.878-6.878s-3.087-6.878-6.878-6.878
	S361.756,122.937,361.756,126.728z M386.011,143.972v21.035c0,1.711-1.308,3.019-3.019,3.019c-1.711,0-3.019-1.376-3.019-3.019
	v-19.324c0-0.47-0.403-0.872-0.872-0.872c-0.47,0-0.872,0.403-0.872,0.872v52.068c0,2.583-1.912,4.697-4.294,4.697
	s-4.294-2.114-4.294-4.697V168.06c0-0.47-0.403-0.872-0.872-0.872c-0.47,0-0.872,0.403-0.872,0.872v29.691
	c0,2.583-1.912,4.697-4.294,4.697s-4.294-2.114-4.294-4.697v-52.068c0-0.47-0.403-0.872-0.872-0.872
	c-0.47,0-0.872,0.403-0.872,0.872v19.291c0,1.711-1.308,3.019-3.019,3.019s-3.019-1.376-3.019-3.019v-21.002
	c0-4.764,3.825-8.589,8.589-8.589h17.177C381.952,135.384,385.877,139.208,386.011,143.972z"/>
<path fill="#7581BA" d="M409.86,126.728c0,3.791,3.086,6.878,6.878,6.878s6.878-3.086,6.878-6.878s-3.086-6.878-6.878-6.878
	S409.86,122.937,409.86,126.728z M434.116,143.972v21.035c0,1.711-1.308,3.019-3.019,3.019s-3.019-1.376-3.019-3.019v-19.324
	c0-0.47-0.403-0.872-0.872-0.872s-0.872,0.403-0.872,0.872v52.068c0,2.583-1.912,4.697-4.294,4.697
	c-2.382,0-4.294-2.114-4.294-4.697V168.06c0-0.47-0.403-0.872-0.872-0.872c-0.47,0-0.872,0.403-0.872,0.872v29.691
	c0,2.583-1.912,4.697-4.294,4.697s-4.294-2.114-4.294-4.697v-52.068c0-0.47-0.403-0.872-0.872-0.872
	c-0.47,0-0.872,0.403-0.872,0.872v19.291c0,1.711-1.308,3.019-3.019,3.019c-1.711,0-3.019-1.376-3.019-3.019v-21.002
	c0-4.764,3.825-8.589,8.589-8.589h17.177C430.057,135.384,433.982,139.208,434.116,143.972z"/>
<path fill="#7581BA" d="M457.965,126.728c0,3.791,3.086,6.878,6.878,6.878s6.878-3.086,6.878-6.878s-3.087-6.878-6.878-6.878
	S457.965,122.937,457.965,126.728z M482.221,143.972v21.035c0,1.711-1.308,3.019-3.019,3.019c-1.711,0-3.019-1.376-3.019-3.019
	v-19.324c0-0.47-0.403-0.872-0.872-0.872c-0.47,0-0.872,0.403-0.872,0.872v52.068c0,2.583-1.912,4.697-4.294,4.697
	s-4.294-2.114-4.294-4.697V168.06c0-0.47-0.403-0.872-0.872-0.872c-0.47,0-0.872,0.403-0.872,0.872v29.691
	c0,2.583-1.912,4.697-4.294,4.697s-4.294-2.114-4.294-4.697v-52.068c0-0.47-0.403-0.872-0.872-0.872
	c-0.47,0-0.872,0.403-0.872,0.872v19.291c0,1.711-1.308,3.019-3.019,3.019s-3.019-1.376-3.019-3.019v-21.002
	c0-4.764,3.825-8.589,8.589-8.589h17.177C478.161,135.384,482.087,139.208,482.221,143.972z"/>
<path fill="#7581BA" d="M506.07,126.728c0,3.791,3.086,6.878,6.877,6.878c3.791,0,6.878-3.086,6.878-6.878s-3.086-6.878-6.878-6.878
	C509.156,119.851,506.07,122.937,506.07,126.728z M530.325,143.972v21.035c0,1.711-1.308,3.019-3.019,3.019
	c-1.711,0-3.019-1.376-3.019-3.019v-19.324c0-0.47-0.403-0.872-0.872-0.872c-0.47,0-0.872,0.403-0.872,0.872v52.068
	c0,2.583-1.912,4.697-4.294,4.697s-4.294-2.114-4.294-4.697V168.06c0-0.47-0.403-0.872-0.872-0.872s-0.872,0.403-0.872,0.872v29.691
	c0,2.583-1.912,4.697-4.294,4.697c-2.382,0-4.294-2.114-4.294-4.697v-52.068c0-0.47-0.403-0.872-0.872-0.872
	c-0.47,0-0.872,0.403-0.872,0.872v19.291c0,1.711-1.308,3.019-3.019,3.019c-1.711,0-3.019-1.376-3.019-3.019v-21.002
	c0-4.764,3.825-8.589,8.589-8.589h17.177C526.266,135.384,530.191,139.208,530.325,143.972z"/>
<path fill="#7581BA" d="M554.174,126.728c0,3.791,3.086,6.878,6.878,6.878s6.878-3.086,6.878-6.878s-3.086-6.878-6.878-6.878
	S554.174,122.937,554.174,126.728z M578.43,143.972v21.035c0,1.711-1.308,3.019-3.019,3.019s-3.019-1.376-3.019-3.019v-19.324
	c0-0.47-0.403-0.872-0.872-0.872s-0.872,0.403-0.872,0.872v52.068c0,2.583-1.912,4.697-4.294,4.697s-4.294-2.114-4.294-4.697V168.06
	c0-0.47-0.403-0.872-0.872-0.872c-0.47,0-0.872,0.403-0.872,0.872v29.691c0,2.583-1.912,4.697-4.294,4.697
	c-2.382,0-4.294-2.114-4.294-4.697v-52.068c0-0.47-0.403-0.872-0.872-0.872c-0.47,0-0.872,0.403-0.872,0.872v19.291
	c0,1.711-1.308,3.019-3.019,3.019c-1.711,0-3.019-1.376-3.019-3.019v-21.002c0-4.764,3.825-8.589,8.589-8.589h17.177
	C574.371,135.384,578.296,139.208,578.43,143.972z"/>
<path fill="#7581BA" d="M602.279,126.728c0,3.791,3.086,6.878,6.878,6.878s6.878-3.086,6.878-6.878s-3.086-6.878-6.878-6.878
	S602.279,122.937,602.279,126.728z M626.535,143.972v21.035c0,1.711-1.308,3.019-3.019,3.019s-3.019-1.376-3.019-3.019v-19.324
	c0-0.47-0.403-0.872-0.872-0.872s-0.872,0.403-0.872,0.872v52.068c0,2.583-1.912,4.697-4.294,4.697s-4.294-2.114-4.294-4.697V168.06
	c0-0.47-0.403-0.872-0.872-0.872c-0.47,0-0.872,0.403-0.872,0.872v29.691c0,2.583-1.912,4.697-4.294,4.697s-4.294-2.114-4.294-4.697
	v-52.068c0-0.47-0.403-0.872-0.872-0.872s-0.872,0.403-0.872,0.872v19.291c0,1.711-1.308,3.019-3.019,3.019
	s-3.019-1.376-3.019-3.019v-21.002c0-4.764,3.825-8.589,8.589-8.589h17.177C622.475,135.384,626.401,139.208,626.535,143.972z"/>
<path fill="#7581BA" d="M670.384,126.728c0,3.791,3.086,6.878,6.878,6.878s6.878-3.086,6.878-6.878s-3.086-6.878-6.878-6.878
	S670.384,122.937,670.384,126.728z M694.639,143.972v21.035c0,1.711-1.308,3.019-3.019,3.019s-3.019-1.376-3.019-3.019v-19.324
	c0-0.47-0.403-0.872-0.872-0.872c-0.47,0-0.872,0.403-0.872,0.872v52.068c0,2.583-1.912,4.697-4.294,4.697
	c-2.382,0-4.294-2.114-4.294-4.697V168.06c0-0.47-0.403-0.872-0.872-0.872c-0.47,0-0.872,0.403-0.872,0.872v29.691
	c0,2.583-1.912,4.697-4.294,4.697s-4.294-2.114-4.294-4.697v-52.068c0-0.47-0.403-0.872-0.872-0.872s-0.872,0.403-0.872,0.872
	v19.291c0,1.711-1.308,3.019-3.019,3.019s-3.019-1.376-3.019-3.019v-21.002c0-4.764,3.825-8.589,8.589-8.589h17.177
	C690.58,135.384,694.505,139.208,694.639,143.972z"/>
<path fill="#7581BA" d="M718.488,126.728c0,3.791,3.086,6.878,6.878,6.878s6.878-3.086,6.878-6.878s-3.086-6.878-6.878-6.878
	S718.488,122.937,718.488,126.728z M742.744,143.972v21.035c0,1.711-1.308,3.019-3.019,3.019c-1.711,0-3.019-1.376-3.019-3.019
	v-19.324c0-0.47-0.403-0.872-0.872-0.872c-0.47,0-0.872,0.403-0.872,0.872v52.068c0,2.583-1.912,4.697-4.294,4.697
	s-4.294-2.114-4.294-4.697V168.06c0-0.47-0.403-0.872-0.872-0.872s-0.872,0.403-0.872,0.872v29.691c0,2.583-1.912,4.697-4.294,4.697
	s-4.294-2.114-4.294-4.697v-52.068c0-0.47-0.403-0.872-0.872-0.872c-0.47,0-0.872,0.403-0.872,0.872v19.291
	c0,1.711-1.308,3.019-3.019,3.019c-1.711,0-3.019-1.376-3.019-3.019v-21.002c0-4.764,3.825-8.589,8.589-8.589h17.177
	C738.685,135.384,742.61,139.208,742.744,143.972z"/>
<path fill="#7581BA" d="M766.593,126.728c0,3.791,3.086,6.878,6.878,6.878s6.878-3.086,6.878-6.878s-3.086-6.878-6.878-6.878
	S766.593,122.937,766.593,126.728z M790.849,143.972v21.035c0,1.711-1.308,3.019-3.019,3.019s-3.019-1.376-3.019-3.019v-19.324
	c0-0.47-0.403-0.872-0.872-0.872s-0.872,0.403-0.872,0.872v52.068c0,2.583-1.912,4.697-4.294,4.697s-4.294-2.114-4.294-4.697V168.06
	c0-0.47-0.403-0.872-0.872-0.872c-0.47,0-0.872,0.403-0.872,0.872v29.691c0,2.583-1.912,4.697-4.294,4.697
	c-2.382,0-4.294-2.114-4.294-4.697v-52.068c0-0.47-0.403-0.872-0.872-0.872c-0.47,0-0.872,0.403-0.872,0.872v19.291
	c0,1.711-1.308,3.019-3.019,3.019s-3.019-1.376-3.019-3.019v-21.002c0-4.764,3.825-8.589,8.588-8.589h17.177
	C786.789,135.384,790.715,139.208,790.849,143.972z"/>
<path fill="#7581BA" d="M101.232,8.878c0,3.791,3.086,6.878,6.878,6.878s6.878-3.086,6.878-6.878S111.901,2,108.11,2
	S101.232,5.086,101.232,8.878z M125.488,26.122v21.035c0,1.711-1.308,3.019-3.019,3.019c-1.711,0-3.019-1.376-3.019-3.019V27.833
	c0-0.47-0.403-0.872-0.872-0.872c-0.47,0-0.872,0.403-0.872,0.872V79.9c0,2.583-1.912,4.697-4.294,4.697s-4.294-2.114-4.294-4.697
	V50.21c0-0.47-0.403-0.872-0.872-0.872s-0.872,0.403-0.872,0.872V79.9c0,2.583-1.912,4.697-4.294,4.697s-4.294-2.114-4.294-4.697
	V27.833c0-0.47-0.403-0.872-0.872-0.872s-0.872,0.403-0.872,0.872v19.291c0,1.711-1.308,3.019-3.019,3.019S91,48.767,91,47.123
	V26.122c0-4.764,3.825-8.588,8.588-8.588h17.177C121.429,17.533,125.354,21.358,125.488,26.122z"/>
<path fill="#7581BA" d="M149.337,8.878c0,3.791,3.086,6.878,6.878,6.878s6.878-3.086,6.878-6.878S160.006,2,156.215,2
	S149.337,5.086,149.337,8.878z M173.593,26.122v21.035c0,1.711-1.308,3.019-3.019,3.019c-1.711,0-3.019-1.376-3.019-3.019V27.833
	c0-0.47-0.403-0.872-0.872-0.872s-0.872,0.403-0.872,0.872V79.9c0,2.583-1.912,4.697-4.294,4.697c-2.382,0-4.294-2.114-4.294-4.697
	V50.21c0-0.47-0.403-0.872-0.872-0.872c-0.47,0-0.872,0.403-0.872,0.872V79.9c0,2.583-1.912,4.697-4.294,4.697
	c-2.382,0-4.294-2.114-4.294-4.697V27.833c0-0.47-0.403-0.872-0.872-0.872s-0.872,0.403-0.872,0.872v19.291
	c0,1.711-1.308,3.019-3.019,3.019s-3.019-1.376-3.019-3.019V26.122c0-4.764,3.825-8.588,8.589-8.588h17.177
	C169.533,17.533,173.459,21.358,173.593,26.122z"/>
<path fill="#7581BA" d="M197.442,8.878c0,3.791,3.086,6.878,6.878,6.878s6.878-3.086,6.878-6.878S208.11,2,204.319,2
	S197.442,5.086,197.442,8.878z M221.697,26.122v21.035c0,1.711-1.308,3.019-3.019,3.019c-1.711,0-3.019-1.376-3.019-3.019V27.833
	c0-0.47-0.403-0.872-0.872-0.872s-0.872,0.403-0.872,0.872V79.9c0,2.583-1.912,4.697-4.294,4.697c-2.382,0-4.294-2.114-4.294-4.697
	V50.21c0-0.47-0.403-0.872-0.872-0.872c-0.47,0-0.872,0.403-0.872,0.872V79.9c0,2.583-1.912,4.697-4.294,4.697
	c-2.382,0-4.294-2.114-4.294-4.697V27.833c0-0.47-0.403-0.872-0.872-0.872s-0.872,0.403-0.872,0.872v19.291
	c0,1.711-1.308,3.019-3.019,3.019s-3.019-1.376-3.019-3.019V26.122c0-4.764,3.825-8.588,8.589-8.588h17.177
	C217.638,17.533,221.563,21.358,221.697,26.122z"/>
<path fill="#7581BA" d="M245.546,8.878c0,3.791,3.086,6.878,6.878,6.878c3.791,0,6.878-3.086,6.878-6.878S256.215,2,252.424,2
	C248.633,2,245.546,5.086,245.546,8.878z M269.802,26.122v21.035c0,1.711-1.308,3.019-3.019,3.019c-1.711,0-3.019-1.376-3.019-3.019
	V27.833c0-0.47-0.403-0.872-0.872-0.872c-0.47,0-0.872,0.403-0.872,0.872V79.9c0,2.583-1.912,4.697-4.294,4.697
	s-4.294-2.114-4.294-4.697V50.21c0-0.47-0.403-0.872-0.872-0.872c-0.47,0-0.872,0.403-0.872,0.872V79.9
	c0,2.583-1.912,4.697-4.294,4.697c-2.382,0-4.294-2.114-4.294-4.697V27.833c0-0.47-0.403-0.872-0.872-0.872
	s-0.872,0.403-0.872,0.872v19.291c0,1.711-1.308,3.019-3.019,3.019c-1.711,0-3.019-1.376-3.019-3.019V26.122
	c0-4.764,3.825-8.588,8.589-8.588h17.177C265.743,17.533,269.668,21.358,269.802,26.122z"/>
<path fill="#7581BA" d="M293.651,8.878c0,3.791,3.086,6.878,6.878,6.878s6.878-3.086,6.878-6.878S304.32,2,300.529,2
	S293.651,5.086,293.651,8.878z M317.907,26.122v21.035c0,1.711-1.308,3.019-3.019,3.019s-3.019-1.376-3.019-3.019V27.833
	c0-0.47-0.403-0.872-0.872-0.872s-0.872,0.403-0.872,0.872V79.9c0,2.583-1.912,4.697-4.294,4.697c-2.382,0-4.294-2.114-4.294-4.697
	V50.21c0-0.47-0.403-0.872-0.872-0.872c-0.47,0-0.872,0.403-0.872,0.872V79.9c0,2.583-1.912,4.697-4.294,4.697
	s-4.294-2.114-4.294-4.697V27.833c0-0.47-0.403-0.872-0.872-0.872c-0.47,0-0.872,0.403-0.872,0.872v19.291
	c0,1.711-1.308,3.019-3.019,3.019c-1.711,0-3.019-1.376-3.019-3.019V26.122c0-4.764,3.825-8.588,8.589-8.588h17.177
	C313.847,17.533,317.773,21.358,317.907,26.122z"/>
<path fill="#7581BA" d="M361.756,8.878c0,3.791,3.086,6.878,6.878,6.878s6.878-3.086,6.878-6.878S372.424,2,368.633,2
	S361.756,5.086,361.756,8.878z M386.011,26.122v21.035c0,1.711-1.308,3.019-3.019,3.019c-1.711,0-3.019-1.376-3.019-3.019V27.833
	c0-0.47-0.403-0.872-0.872-0.872c-0.47,0-0.872,0.403-0.872,0.872V79.9c0,2.583-1.912,4.697-4.294,4.697s-4.294-2.114-4.294-4.697
	V50.21c0-0.47-0.403-0.872-0.872-0.872c-0.47,0-0.872,0.403-0.872,0.872V79.9c0,2.583-1.912,4.697-4.294,4.697
	s-4.294-2.114-4.294-4.697V27.833c0-0.47-0.403-0.872-0.872-0.872c-0.47,0-0.872,0.403-0.872,0.872v19.291
	c0,1.711-1.308,3.019-3.019,3.019s-3.019-1.376-3.019-3.019V26.122c0-4.764,3.825-8.588,8.589-8.588h17.177
	C381.952,17.533,385.877,21.358,386.011,26.122z"/>
<path fill="#7581BA" d="M409.86,8.878c0,3.791,3.086,6.878,6.878,6.878s6.878-3.086,6.878-6.878S420.529,2,416.738,2
	S409.86,5.086,409.86,8.878z M434.116,26.122v21.035c0,1.711-1.308,3.019-3.019,3.019s-3.019-1.376-3.019-3.019V27.833
	c0-0.47-0.403-0.872-0.872-0.872s-0.872,0.403-0.872,0.872V79.9c0,2.583-1.912,4.697-4.294,4.697c-2.382,0-4.294-2.114-4.294-4.697
	V50.21c0-0.47-0.403-0.872-0.872-0.872c-0.47,0-0.872,0.403-0.872,0.872V79.9c0,2.583-1.912,4.697-4.294,4.697
	s-4.294-2.114-4.294-4.697V27.833c0-0.47-0.403-0.872-0.872-0.872c-0.47,0-0.872,0.403-0.872,0.872v19.291
	c0,1.711-1.308,3.019-3.019,3.019c-1.711,0-3.019-1.376-3.019-3.019V26.122c0-4.764,3.825-8.588,8.589-8.588h17.177
	C430.057,17.533,433.982,21.358,434.116,26.122z"/>
<path fill="#7581BA" d="M457.965,8.878c0,3.791,3.086,6.878,6.878,6.878s6.878-3.086,6.878-6.878S468.634,2,464.842,2
	S457.965,5.086,457.965,8.878z M482.221,26.122v21.035c0,1.711-1.308,3.019-3.019,3.019c-1.711,0-3.019-1.376-3.019-3.019V27.833
	c0-0.47-0.403-0.872-0.872-0.872c-0.47,0-0.872,0.403-0.872,0.872V79.9c0,2.583-1.912,4.697-4.294,4.697s-4.294-2.114-4.294-4.697
	V50.21c0-0.47-0.403-0.872-0.872-0.872c-0.47,0-0.872,0.403-0.872,0.872V79.9c0,2.583-1.912,4.697-4.294,4.697
	s-4.294-2.114-4.294-4.697V27.833c0-0.47-0.403-0.872-0.872-0.872c-0.47,0-0.872,0.403-0.872,0.872v19.291
	c0,1.711-1.308,3.019-3.019,3.019s-3.019-1.376-3.019-3.019V26.122c0-4.764,3.825-8.588,8.589-8.588h17.177
	C478.161,17.533,482.087,21.358,482.221,26.122z"/>
<path fill="#7581BA" d="M506.07,8.878c0,3.791,3.086,6.878,6.877,6.878c3.791,0,6.878-3.086,6.878-6.878S516.738,2,512.947,2
	C509.156,2,506.07,5.086,506.07,8.878z M530.325,26.122v21.035c0,1.711-1.308,3.019-3.019,3.019c-1.711,0-3.019-1.376-3.019-3.019
	V27.833c0-0.47-0.403-0.872-0.872-0.872c-0.47,0-0.872,0.403-0.872,0.872V79.9c0,2.583-1.912,4.697-4.294,4.697
	s-4.294-2.114-4.294-4.697V50.21c0-0.47-0.403-0.872-0.872-0.872s-0.872,0.403-0.872,0.872V79.9c0,2.583-1.912,4.697-4.294,4.697
	c-2.382,0-4.294-2.114-4.294-4.697V27.833c0-0.47-0.403-0.872-0.872-0.872c-0.47,0-0.872,0.403-0.872,0.872v19.291
	c0,1.711-1.308,3.019-3.019,3.019c-1.711,0-3.019-1.376-3.019-3.019V26.122c0-4.764,3.825-8.588,8.589-8.588h17.177
	C526.266,17.533,530.191,21.358,530.325,26.122z"/>
<path fill="#7581BA" d="M554.174,8.878c0,3.791,3.086,6.878,6.878,6.878s6.878-3.086,6.878-6.878S564.843,2,561.052,2
	S554.174,5.086,554.174,8.878z M578.43,26.122v21.035c0,1.711-1.308,3.019-3.019,3.019s-3.019-1.376-3.019-3.019V27.833
	c0-0.47-0.403-0.872-0.872-0.872s-0.872,0.403-0.872,0.872V79.9c0,2.583-1.912,4.697-4.294,4.697s-4.294-2.114-4.294-4.697V50.21
	c0-0.47-0.403-0.872-0.872-0.872c-0.47,0-0.872,0.403-0.872,0.872V79.9c0,2.583-1.912,4.697-4.294,4.697
	c-2.382,0-4.294-2.114-4.294-4.697V27.833c0-0.47-0.403-0.872-0.872-0.872c-0.47,0-0.872,0.403-0.872,0.872v19.291
	c0,1.711-1.308,3.019-3.019,3.019c-1.711,0-3.019-1.376-3.019-3.019V26.122c0-4.764,3.825-8.588,8.589-8.588h17.177
	C574.371,17.533,578.296,21.358,578.43,26.122z"/>
<path fill="#7581BA" d="M602.279,8.878c0,3.791,3.086,6.878,6.878,6.878s6.878-3.086,6.878-6.878S612.948,2,609.156,2
	S602.279,5.086,602.279,8.878z M626.535,26.122v21.035c0,1.711-1.308,3.019-3.019,3.019s-3.019-1.376-3.019-3.019V27.833
	c0-0.47-0.403-0.872-0.872-0.872s-0.872,0.403-0.872,0.872V79.9c0,2.583-1.912,4.697-4.294,4.697s-4.294-2.114-4.294-4.697V50.21
	c0-0.47-0.403-0.872-0.872-0.872c-0.47,0-0.872,0.403-0.872,0.872V79.9c0,2.583-1.912,4.697-4.294,4.697s-4.294-2.114-4.294-4.697
	V27.833c0-0.47-0.403-0.872-0.872-0.872s-0.872,0.403-0.872,0.872v19.291c0,1.711-1.308,3.019-3.019,3.019s-3.019-1.376-3.019-3.019
	V26.122c0-4.764,3.825-8.588,8.589-8.588h17.177C622.475,17.533,626.401,21.358,626.535,26.122z"/>
<path fill="#7581BA" d="M670.384,8.878c0,3.791,3.086,6.878,6.878,6.878s6.878-3.086,6.878-6.878S681.052,2,677.261,2
	S670.384,5.086,670.384,8.878z M694.639,26.122v21.035c0,1.711-1.308,3.019-3.019,3.019s-3.019-1.376-3.019-3.019V27.833
	c0-0.47-0.403-0.872-0.872-0.872c-0.47,0-0.872,0.403-0.872,0.872V79.9c0,2.583-1.912,4.697-4.294,4.697
	c-2.382,0-4.294-2.114-4.294-4.697V50.21c0-0.47-0.403-0.872-0.872-0.872c-0.47,0-0.872,0.403-0.872,0.872V79.9
	c0,2.583-1.912,4.697-4.294,4.697s-4.294-2.114-4.294-4.697V27.833c0-0.47-0.403-0.872-0.872-0.872s-0.872,0.403-0.872,0.872v19.291
	c0,1.711-1.308,3.019-3.019,3.019s-3.019-1.376-3.019-3.019V26.122c0-4.764,3.825-8.588,8.589-8.588h17.177
	C690.58,17.533,694.505,21.358,694.639,26.122z"/>
<path fill="#7581BA" d="M718.488,8.878c0,3.791,3.086,6.878,6.878,6.878s6.878-3.086,6.878-6.878S729.157,2,725.366,2
	S718.488,5.086,718.488,8.878z M742.744,26.122v21.035c0,1.711-1.308,3.019-3.019,3.019c-1.711,0-3.019-1.376-3.019-3.019V27.833
	c0-0.47-0.403-0.872-0.872-0.872c-0.47,0-0.872,0.403-0.872,0.872V79.9c0,2.583-1.912,4.697-4.294,4.697s-4.294-2.114-4.294-4.697
	V50.21c0-0.47-0.403-0.872-0.872-0.872s-0.872,0.403-0.872,0.872V79.9c0,2.583-1.912,4.697-4.294,4.697s-4.294-2.114-4.294-4.697
	V27.833c0-0.47-0.403-0.872-0.872-0.872c-0.47,0-0.872,0.403-0.872,0.872v19.291c0,1.711-1.308,3.019-3.019,3.019
	c-1.711,0-3.019-1.376-3.019-3.019V26.122c0-4.764,3.825-8.588,8.589-8.588h17.177C738.685,17.533,742.61,21.358,742.744,26.122z"/>
<path fill="#7581BA" d="M766.593,8.878c0,3.791,3.086,6.878,6.878,6.878s6.878-3.086,6.878-6.878S777.261,2,773.47,2
	S766.593,5.086,766.593,8.878z M790.849,26.122v21.035c0,1.711-1.308,3.019-3.019,3.019s-3.019-1.376-3.019-3.019V27.833
	c0-0.47-0.403-0.872-0.872-0.872s-0.872,0.403-0.872,0.872V79.9c0,2.583-1.912,4.697-4.294,4.697s-4.294-2.114-4.294-4.697V50.21
	c0-0.47-0.403-0.872-0.872-0.872c-0.47,0-0.872,0.403-0.872,0.872V79.9c0,2.583-1.912,4.697-4.294,4.697
	c-2.382,0-4.294-2.114-4.294-4.697V27.833c0-0.47-0.403-0.872-0.872-0.872c-0.47,0-0.872,0.403-0.872,0.872v19.291
	c0,1.711-1.308,3.019-3.019,3.019s-3.019-1.376-3.019-3.019V26.122c0-4.764,3.825-8.588,8.588-8.588h17.177
	C786.789,17.533,790.715,21.358,790.849,26.122z"/>
<path fill="#7581BA" d="M814.698,8.878c0,3.791,3.086,6.878,6.878,6.878s6.878-3.086,6.878-6.878S825.366,2,821.575,2
	S814.698,5.086,814.698,8.878z M838.953,26.122v21.035c0,1.711-1.308,3.019-3.019,3.019s-3.019-1.376-3.019-3.019V27.833
	c0-0.47-0.403-0.872-0.872-0.872s-0.872,0.403-0.872,0.872V79.9c0,2.583-1.912,4.697-4.294,4.697s-4.294-2.114-4.294-4.697V50.21
	c0-0.47-0.403-0.872-0.872-0.872c-0.47,0-0.872,0.403-0.872,0.872V79.9c0,2.583-1.912,4.697-4.294,4.697s-4.294-2.114-4.294-4.697
	V27.833c0-0.47-0.403-0.872-0.872-0.872s-0.872,0.403-0.872,0.872v19.291c0,1.711-1.308,3.019-3.019,3.019s-3.019-1.376-3.019-3.019
	V26.122c0-4.764,3.825-8.588,8.589-8.588h17.177C834.894,17.533,838.819,21.358,838.953,26.122z"/>
<path fill="#7581BA" d="M862.802,8.878c0,3.791,3.086,6.878,6.878,6.878s6.878-3.086,6.878-6.878S873.471,2,869.68,2
	S862.802,5.086,862.802,8.878z M887.058,26.122v21.035c0,1.711-1.308,3.019-3.019,3.019c-1.711,0-3.019-1.376-3.019-3.019V27.833
	c0-0.47-0.403-0.872-0.872-0.872c-0.47,0-0.872,0.403-0.872,0.872V79.9c0,2.583-1.912,4.697-4.294,4.697
	c-2.382,0-4.294-2.114-4.294-4.697V50.21c0-0.47-0.403-0.872-0.872-0.872c-0.47,0-0.872,0.403-0.872,0.872V79.9
	c0,2.583-1.912,4.697-4.294,4.697s-4.294-2.114-4.294-4.697V27.833c0-0.47-0.403-0.872-0.872-0.872s-0.872,0.403-0.872,0.872v19.291
	c0,1.711-1.308,3.019-3.019,3.019s-3.019-1.376-3.019-3.019V26.122c0-4.764,3.825-8.588,8.589-8.588h17.177
	C882.999,17.533,886.924,21.358,887.058,26.122z"/>
<path fill="#7581BA" d="M930.907,8.878c0,3.791,3.086,6.878,6.878,6.878s6.878-3.086,6.878-6.878S941.575,2,937.784,2
	S930.907,5.086,930.907,8.878z M955.163,26.122v21.035c0,1.711-1.308,3.019-3.019,3.019c-1.711,0-3.019-1.376-3.019-3.019V27.833
	c0-0.47-0.403-0.872-0.872-0.872c-0.47,0-0.872,0.403-0.872,0.872V79.9c0,2.583-1.912,4.697-4.294,4.697s-4.294-2.114-4.294-4.697
	V50.21c0-0.47-0.403-0.872-0.872-0.872s-0.872,0.403-0.872,0.872V79.9c0,2.583-1.912,4.697-4.294,4.697s-4.294-2.114-4.294-4.697
	V27.833c0-0.47-0.403-0.872-0.872-0.872c-0.47,0-0.872,0.403-0.872,0.872v19.291c0,1.711-1.308,3.019-3.019,3.019
	c-1.711,0-3.019-1.376-3.019-3.019V26.122c0-4.764,3.825-8.588,8.589-8.588h17.177C951.103,17.533,955.029,21.358,955.163,26.122z"
	/>
<path fill="#7581BA" d="M979.012,8.878c0,3.791,3.086,6.878,6.878,6.878s6.878-3.086,6.878-6.878S989.68,2,985.889,2
	S979.012,5.086,979.012,8.878z M1003.267,26.122v21.035c0,1.711-1.308,3.019-3.019,3.019s-3.019-1.376-3.019-3.019V27.833
	c0-0.47-0.403-0.872-0.872-0.872s-0.872,0.403-0.872,0.872V79.9c0,2.583-1.912,4.697-4.294,4.697s-4.294-2.114-4.294-4.697V50.21
	c0-0.47-0.403-0.872-0.872-0.872c-0.47,0-0.872,0.403-0.872,0.872V79.9c0,2.583-1.912,4.697-4.294,4.697
	c-2.382,0-4.294-2.114-4.294-4.697V27.833c0-0.47-0.403-0.872-0.872-0.872c-0.47,0-0.872,0.403-0.872,0.872v19.291
	c0,1.711-1.308,3.019-3.019,3.019s-3.019-1.376-3.019-3.019V26.122c0-4.764,3.825-8.588,8.588-8.588h17.177
	C999.208,17.533,1003.133,21.358,1003.267,26.122z"/>
<g>
	<text transform="matrix(1 0 0 1 2.6598 20.9087)" fill="#B3B3B3" font-family="'RobotoCondensed-Regular'" font-size="26px">1832</text>
</g>
<g>
	<text transform="matrix(1 0 0 1 29.1647 55.4087)" fill="#B3B3B3" font-family="'RobotoCondensed-Regular'" font-size="26px">1</text>
</g>
<g>
	<text transform="matrix(1 0 0 1 42.5865 53.5753)" fill="#B3B3B3" font-family="'RobotoCondensed-Regular'" font-size="26px">x</text>
</g>
<g>
	<text transform="matrix(1 0 0 1 29.1647 173.4354)" fill="#B3B3B3" font-family="'RobotoCondensed-Regular'" font-size="26px">1</text>
</g>
<g>
	<text transform="matrix(1 0 0 1 42.5865 171.6021)" fill="#B3B3B3" font-family="'RobotoCondensed-Regular'" font-size="26px">x</text>
</g>
<g>
	<text transform="matrix(1 0 0 1 2.6598 138.9354)" fill="#B3B3B3" font-family="'RobotoCondensed-Regular'" font-size="26px">1834</text>
</g>
<g>
	<text transform="matrix(1 0 0 1 29.1647 291.4354)" fill="#B3B3B3" font-family="'RobotoCondensed-Regular'" font-size="26px">1</text>
</g>
<g>
	<text transform="matrix(1 0 0 1 42.5865 289.6021)" fill="#B3B3B3" font-family="'RobotoCondensed-Regular'" font-size="26px">x</text>
</g>
<g>
	<text transform="matrix(1 0 0 1 2.6598 256.9354)" fill="#B3B3B3" font-family="'RobotoCondensed-Regular'" font-size="26px">1836</text>
</g>
<g>
	<text transform="matrix(1 0 0 1 29.1647 409.1021)" fill="#B3B3B3" font-family="'RobotoCondensed-Regular'" font-size="26px">1</text>
</g>
<g>
	<text transform="matrix(1 0 0 1 42.5865 407.2687)" fill="#B3B3B3" font-family="'RobotoCondensed-Regular'" font-size="26px">x</text>
</g>
<g>
	<text transform="matrix(1 0 0 1 2.6598 374.6021)" fill="#B3B3B3" font-family="'RobotoCondensed-Regular'" font-size="26px">1838</text>
</g>
<g>
	<text transform="matrix(1 0 0 1 29.1647 527.1021)" fill="#B3B3B3" font-family="'RobotoCondensed-Regular'" font-size="26px">1</text>
</g>
<g>
	<text transform="matrix(1 0 0 1 42.5865 525.2687)" fill="#B3B3B3" font-family="'RobotoCondensed-Regular'" font-size="26px">x</text>
</g>
<g>
	<text transform="matrix(1 0 0 1 2.6598 492.6021)" fill="#B3B3B3" font-family="'RobotoCondensed-Regular'" font-size="26px">1838</text>
</g>
</svg>
