<?xml version="1.0" encoding="utf-8"?>
<!-- Generator: Adobe Illustrator 22.1.0, SVG Export Plug-In . SVG Version: 6.00 Build 0)  -->
<svg version="1.1" xmlns="http://www.w3.org/2000/svg" xmlns:xlink="http://www.w3.org/1999/xlink" x="0px" y="0px"
	 viewBox="0 0 1268 418" enable-background="new 0 0 1268 418" xml:space="preserve">
<g id="Layer_1">
	<path fill="#AEA5BF" d="M102,8.9c0,3.8,3.1,6.9,6.9,6.9s6.9-3.1,6.9-6.9S112.7,2,108.9,2S102,5.1,102,8.9z M126.3,26.1v21
		c0,1.7-1.3,3-3,3c-1.7,0-3-1.4-3-3V27.8c0-0.5-0.4-0.9-0.9-0.9c-0.5,0-0.9,0.4-0.9,0.9v52.1c0,2.6-1.9,4.7-4.3,4.7
		s-4.3-2.1-4.3-4.7V50.2c0-0.5-0.4-0.9-0.9-0.9s-0.9,0.4-0.9,0.9v29.7c0,2.6-1.9,4.7-4.3,4.7s-4.3-2.1-4.3-4.7V27.8
		c0-0.5-0.4-0.9-0.9-0.9c-0.5,0-0.9,0.4-0.9,0.9v19.3c0,1.7-1.3,3-3,3s-3-1.4-3-3v-21c0-4.8,3.8-8.6,8.6-8.6h17.2
		C122.2,17.5,126.1,21.4,126.3,26.1z"/>
	<path fill="#AEA5BF" d="M150.1,8.9c0,3.8,3.1,6.9,6.9,6.9s6.9-3.1,6.9-6.9S160.8,2,157,2S150.1,5.1,150.1,8.9z M174.4,26.1v21
		c0,1.7-1.3,3-3,3c-1.7,0-3-1.4-3-3V27.8c0-0.5-0.4-0.9-0.9-0.9s-0.9,0.4-0.9,0.9v52.1c0,2.6-1.9,4.7-4.3,4.7
		c-2.4,0-4.3-2.1-4.3-4.7V50.2c0-0.5-0.4-0.9-0.9-0.9c-0.5,0-0.9,0.4-0.9,0.9v29.7c0,2.6-1.9,4.7-4.3,4.7c-2.4,0-4.3-2.1-4.3-4.7
		V27.8c0-0.5-0.4-0.9-0.9-0.9s-0.9,0.4-0.9,0.9v19.3c0,1.7-1.3,3-3,3s-3-1.4-3-3v-21c0-4.8,3.8-8.6,8.6-8.6h17.2
		C170.3,17.5,174.2,21.4,174.4,26.1z"/>
	<path fill="#AEA5BF" d="M198.2,8.9c0,3.8,3.1,6.9,6.9,6.9s6.9-3.1,6.9-6.9S208.9,2,205.1,2S198.2,5.1,198.2,8.9z M222.5,26.1v21
		c0,1.7-1.3,3-3,3c-1.7,0-3-1.4-3-3V27.8c0-0.5-0.4-0.9-0.9-0.9s-0.9,0.4-0.9,0.9v52.1c0,2.6-1.9,4.7-4.3,4.7
		c-2.4,0-4.3-2.1-4.3-4.7V50.2c0-0.5-0.4-0.9-0.9-0.9c-0.5,0-0.9,0.4-0.9,0.9v29.7c0,2.6-1.9,4.7-4.3,4.7c-2.4,0-4.3-2.1-4.3-4.7
		V27.8c0-0.5-0.4-0.9-0.9-0.9s-0.9,0.4-0.9,0.9v19.3c0,1.7-1.3,3-3,3s-3-1.4-3-3v-21c0-4.8,3.8-8.6,8.6-8.6h17.2
		C218.4,17.5,222.3,21.4,222.5,26.1z"/>
	<path fill="#AEA5BF" d="M246.3,8.9c0,3.8,3.1,6.9,6.9,6.9s6.9-3.1,6.9-6.9S257,2,253.2,2S246.3,5.1,246.3,8.9z M270.6,26.1v21
		c0,1.7-1.3,3-3,3s-3-1.4-3-3V27.8c0-0.5-0.4-0.9-0.9-0.9s-0.9,0.4-0.9,0.9v52.1c0,2.6-1.9,4.7-4.3,4.7c-2.4,0-4.3-2.1-4.3-4.7V50.2
		c0-0.5-0.4-0.9-0.9-0.9c-0.5,0-0.9,0.4-0.9,0.9v29.7c0,2.6-1.9,4.7-4.3,4.7c-2.4,0-4.3-2.1-4.3-4.7V27.8c0-0.5-0.4-0.9-0.9-0.9
		s-0.9,0.4-0.9,0.9v19.3c0,1.7-1.3,3-3,3c-1.7,0-3-1.4-3-3v-21c0-4.8,3.8-8.6,8.6-8.6h17.2C266.5,17.5,270.4,21.4,270.6,26.1z"/>
	<path fill="#AEA5BF" d="M294.4,8.9c0,3.8,3.1,6.9,6.9,6.9s6.9-3.1,6.9-6.9S305.1,2,301.3,2S294.4,5.1,294.4,8.9z M318.7,26.1v21
		c0,1.7-1.3,3-3,3c-1.7,0-3-1.4-3-3V27.8c0-0.5-0.4-0.9-0.9-0.9c-0.5,0-0.9,0.4-0.9,0.9v52.1c0,2.6-1.9,4.7-4.3,4.7
		s-4.3-2.1-4.3-4.7V50.2c0-0.5-0.4-0.9-0.9-0.9c-0.5,0-0.9,0.4-0.9,0.9v29.7c0,2.6-1.9,4.7-4.3,4.7s-4.3-2.1-4.3-4.7V27.8
		c0-0.5-0.4-0.9-0.9-0.9c-0.5,0-0.9,0.4-0.9,0.9v19.3c0,1.7-1.3,3-3,3s-3-1.4-3-3v-21c0-4.8,3.8-8.6,8.6-8.6H310
		C314.6,17.5,318.5,21.4,318.7,26.1z"/>
	<path fill="#AEA5BF" d="M362.5,8.9c0,3.8,3.1,6.9,6.9,6.9s6.9-3.1,6.9-6.9S373.2,2,369.4,2S362.5,5.1,362.5,8.9z M386.8,26.1v21
		c0,1.7-1.3,3-3,3s-3-1.4-3-3V27.8c0-0.5-0.4-0.9-0.9-0.9s-0.9,0.4-0.9,0.9v52.1c0,2.6-1.9,4.7-4.3,4.7c-2.4,0-4.3-2.1-4.3-4.7V50.2
		c0-0.5-0.4-0.9-0.9-0.9c-0.5,0-0.9,0.4-0.9,0.9v29.7c0,2.6-1.9,4.7-4.3,4.7c-2.4,0-4.3-2.1-4.3-4.7V27.8c0-0.5-0.4-0.9-0.9-0.9
		c-0.5,0-0.9,0.4-0.9,0.9v19.3c0,1.7-1.3,3-3,3c-1.7,0-3-1.4-3-3v-21c0-4.8,3.8-8.6,8.6-8.6h17.2C382.7,17.5,386.7,21.4,386.8,26.1z
		"/>
	<path fill="#AEA5BF" d="M410.6,8.9c0,3.8,3.1,6.9,6.9,6.9s6.9-3.1,6.9-6.9S421.3,2,417.5,2S410.6,5.1,410.6,8.9z M434.9,26.1v21
		c0,1.7-1.3,3-3,3c-1.7,0-3-1.4-3-3V27.8c0-0.5-0.4-0.9-0.9-0.9c-0.5,0-0.9,0.4-0.9,0.9v52.1c0,2.6-1.9,4.7-4.3,4.7
		s-4.3-2.1-4.3-4.7V50.2c0-0.5-0.4-0.9-0.9-0.9c-0.5,0-0.9,0.4-0.9,0.9v29.7c0,2.6-1.9,4.7-4.3,4.7s-4.3-2.1-4.3-4.7V27.8
		c0-0.5-0.4-0.9-0.9-0.9c-0.5,0-0.9,0.4-0.9,0.9v19.3c0,1.7-1.3,3-3,3s-3-1.4-3-3v-21c0-4.8,3.8-8.6,8.6-8.6h17.2
		C430.8,17.5,434.8,21.4,434.9,26.1z"/>
	<path fill="#AEA5BF" d="M458.7,8.9c0,3.8,3.1,6.9,6.9,6.9s6.9-3.1,6.9-6.9S469.4,2,465.6,2S458.7,5.1,458.7,8.9z M483,26.1v21
		c0,1.7-1.3,3-3,3s-3-1.4-3-3V27.8c0-0.5-0.4-0.9-0.9-0.9s-0.9,0.4-0.9,0.9v52.1c0,2.6-1.9,4.7-4.3,4.7c-2.4,0-4.3-2.1-4.3-4.7V50.2
		c0-0.5-0.4-0.9-0.9-0.9c-0.5,0-0.9,0.4-0.9,0.9v29.7c0,2.6-1.9,4.7-4.3,4.7c-2.4,0-4.3-2.1-4.3-4.7V27.8c0-0.5-0.4-0.9-0.9-0.9
		c-0.5,0-0.9,0.4-0.9,0.9v19.3c0,1.7-1.3,3-3,3c-1.7,0-3-1.4-3-3v-21c0-4.8,3.8-8.6,8.6-8.6h17.2C478.9,17.5,482.9,21.4,483,26.1z"
		/>
	<path fill="#AEA5BF" d="M506.8,8.9c0,3.8,3.1,6.9,6.9,6.9s6.9-3.1,6.9-6.9S517.5,2,513.7,2S506.8,5.1,506.8,8.9z M531.1,26.1v21
		c0,1.7-1.3,3-3,3s-3-1.4-3-3V27.8c0-0.5-0.4-0.9-0.9-0.9c-0.5,0-0.9,0.4-0.9,0.9v52.1c0,2.6-1.9,4.7-4.3,4.7s-4.3-2.1-4.3-4.7V50.2
		c0-0.5-0.4-0.9-0.9-0.9c-0.5,0-0.9,0.4-0.9,0.9v29.7c0,2.6-1.9,4.7-4.3,4.7s-4.3-2.1-4.3-4.7V27.8c0-0.5-0.4-0.9-0.9-0.9
		c-0.5,0-0.9,0.4-0.9,0.9v19.3c0,1.7-1.3,3-3,3c-1.7,0-3-1.4-3-3v-21c0-4.8,3.8-8.6,8.6-8.6h17.2C527,17.5,531,21.4,531.1,26.1z"/>
	<path fill="#AEA5BF" d="M554.9,8.9c0,3.8,3.1,6.9,6.9,6.9s6.9-3.1,6.9-6.9S565.6,2,561.8,2S554.9,5.1,554.9,8.9z M579.2,26.1v21
		c0,1.7-1.3,3-3,3s-3-1.4-3-3V27.8c0-0.5-0.4-0.9-0.9-0.9s-0.9,0.4-0.9,0.9v52.1c0,2.6-1.9,4.7-4.3,4.7s-4.3-2.1-4.3-4.7V50.2
		c0-0.5-0.4-0.9-0.9-0.9c-0.5,0-0.9,0.4-0.9,0.9v29.7c0,2.6-1.9,4.7-4.3,4.7s-4.3-2.1-4.3-4.7V27.8c0-0.5-0.4-0.9-0.9-0.9
		s-0.9,0.4-0.9,0.9v19.3c0,1.7-1.3,3-3,3s-3-1.4-3-3v-21c0-4.8,3.8-8.6,8.6-8.6h17.2C575.1,17.5,579.1,21.4,579.2,26.1z"/>
	<path fill="#AEA5BF" d="M623.8,8.9c0,3.8,3.1,6.9,6.9,6.9s6.9-3.1,6.9-6.9S634.5,2,630.7,2S623.8,5.1,623.8,8.9z M648.1,26.1v21
		c0,1.7-1.3,3-3,3s-3-1.4-3-3V27.8c0-0.5-0.4-0.9-0.9-0.9c-0.5,0-0.9,0.4-0.9,0.9v52.1c0,2.6-1.9,4.7-4.3,4.7s-4.3-2.1-4.3-4.7V50.2
		c0-0.5-0.4-0.9-0.9-0.9s-0.9,0.4-0.9,0.9v29.7c0,2.6-1.9,4.7-4.3,4.7s-4.3-2.1-4.3-4.7V27.8c0-0.5-0.4-0.9-0.9-0.9
		c-0.5,0-0.9,0.4-0.9,0.9v19.3c0,1.7-1.3,3-3,3c-1.7,0-3-1.4-3-3v-21c0-4.8,3.8-8.6,8.6-8.6h17.2C644,17.5,647.9,21.4,648.1,26.1z"
		/>
	<path fill="#AEA5BF" d="M671.9,8.9c0,3.8,3.1,6.9,6.9,6.9s6.9-3.1,6.9-6.9S682.6,2,678.8,2S671.9,5.1,671.9,8.9z M696.2,26.1v21
		c0,1.7-1.3,3-3,3s-3-1.4-3-3V27.8c0-0.5-0.4-0.9-0.9-0.9s-0.9,0.4-0.9,0.9v52.1c0,2.6-1.9,4.7-4.3,4.7s-4.3-2.1-4.3-4.7V50.2
		c0-0.5-0.4-0.9-0.9-0.9c-0.5,0-0.9,0.4-0.9,0.9v29.7c0,2.6-1.9,4.7-4.3,4.7c-2.4,0-4.3-2.1-4.3-4.7V27.8c0-0.5-0.4-0.9-0.9-0.9
		s-0.9,0.4-0.9,0.9v19.3c0,1.7-1.3,3-3,3s-3-1.4-3-3v-21c0-4.8,3.8-8.6,8.6-8.6h17.2C692.1,17.5,696,21.4,696.2,26.1z"/>
	<path fill="#AEA5BF" d="M720,8.9c0,3.8,3.1,6.9,6.9,6.9s6.9-3.1,6.9-6.9S730.7,2,726.9,2S720,5.1,720,8.9z M744.3,26.1v21
		c0,1.7-1.3,3-3,3s-3-1.4-3-3V27.8c0-0.5-0.4-0.9-0.9-0.9c-0.5,0-0.9,0.4-0.9,0.9v52.1c0,2.6-1.9,4.7-4.3,4.7
		c-2.4,0-4.3-2.1-4.3-4.7V50.2c0-0.5-0.4-0.9-0.9-0.9c-0.5,0-0.9,0.4-0.9,0.9v29.7c0,2.6-1.9,4.7-4.3,4.7s-4.3-2.1-4.3-4.7V27.8
		c0-0.5-0.4-0.9-0.9-0.9s-0.9,0.4-0.9,0.9v19.3c0,1.7-1.3,3-3,3s-3-1.4-3-3v-21c0-4.8,3.8-8.6,8.6-8.6h17.2
		C740.2,17.5,744.1,21.4,744.3,26.1z"/>
	<g>
		<text transform="matrix(1 0 0 1 2.1191 63.4019)" fill="#9C96AD" font-family="'RobotoCondensed-Regular'" font-size="26px">10</text>
	</g>
	<g>
		<text transform="matrix(1 0 0 1 29.0156 48.7769)" fill="#9C96AD" font-family="'RobotoCondensed-Regular'" font-size="16px">6</text>
	</g>
	<g>
		<text transform="matrix(1 0 0 1 41.3611 63.5605)" fill="#9C96AD" font-family="'RobotoCondensed-Regular'" font-size="26px">x</text>
	</g>
	<text transform="matrix(1 0 0 1 1.4344 21.085)" fill="#D1CDC9" font-family="'RobotoCondensed-Regular'" font-size="26px">2014</text>
	<path fill="#AEA5BF" d="M102,119.8c0,3.8,3.1,6.9,6.9,6.9s6.9-3.1,6.9-6.9s-3.1-6.9-6.9-6.9S102,116.1,102,119.8z M126.3,137.1v21
		c0,1.7-1.3,3-3,3c-1.7,0-3-1.4-3-3v-19.3c0-0.5-0.4-0.9-0.9-0.9c-0.5,0-0.9,0.4-0.9,0.9v52.1c0,2.6-1.9,4.7-4.3,4.7
		s-4.3-2.1-4.3-4.7v-29.7c0-0.5-0.4-0.9-0.9-0.9s-0.9,0.4-0.9,0.9v29.7c0,2.6-1.9,4.7-4.3,4.7s-4.3-2.1-4.3-4.7v-52.1
		c0-0.5-0.4-0.9-0.9-0.9c-0.5,0-0.9,0.4-0.9,0.9v19.3c0,1.7-1.3,3-3,3s-3-1.4-3-3v-21c0-4.8,3.8-8.6,8.6-8.6h17.2
		C122.2,128.5,126.1,132.3,126.3,137.1z"/>
	<path fill="#AEA5BF" d="M150.1,119.8c0,3.8,3.1,6.9,6.9,6.9s6.9-3.1,6.9-6.9s-3.1-6.9-6.9-6.9S150.1,116.1,150.1,119.8z
		 M174.4,137.1v21c0,1.7-1.3,3-3,3c-1.7,0-3-1.4-3-3v-19.3c0-0.5-0.4-0.9-0.9-0.9s-0.9,0.4-0.9,0.9v52.1c0,2.6-1.9,4.7-4.3,4.7
		c-2.4,0-4.3-2.1-4.3-4.7v-29.7c0-0.5-0.4-0.9-0.9-0.9c-0.5,0-0.9,0.4-0.9,0.9v29.7c0,2.6-1.9,4.7-4.3,4.7c-2.4,0-4.3-2.1-4.3-4.7
		v-52.1c0-0.5-0.4-0.9-0.9-0.9s-0.9,0.4-0.9,0.9v19.3c0,1.7-1.3,3-3,3s-3-1.4-3-3v-21c0-4.8,3.8-8.6,8.6-8.6h17.2
		C170.3,128.5,174.2,132.3,174.4,137.1z"/>
	<path fill="#AEA5BF" d="M198.2,119.8c0,3.8,3.1,6.9,6.9,6.9s6.9-3.1,6.9-6.9s-3.1-6.9-6.9-6.9S198.2,116.1,198.2,119.8z
		 M222.5,137.1v21c0,1.7-1.3,3-3,3c-1.7,0-3-1.4-3-3v-19.3c0-0.5-0.4-0.9-0.9-0.9s-0.9,0.4-0.9,0.9v52.1c0,2.6-1.9,4.7-4.3,4.7
		c-2.4,0-4.3-2.1-4.3-4.7v-29.7c0-0.5-0.4-0.9-0.9-0.9c-0.5,0-0.9,0.4-0.9,0.9v29.7c0,2.6-1.9,4.7-4.3,4.7c-2.4,0-4.3-2.1-4.3-4.7
		v-52.1c0-0.5-0.4-0.9-0.9-0.9s-0.9,0.4-0.9,0.9v19.3c0,1.7-1.3,3-3,3s-3-1.4-3-3v-21c0-4.8,3.8-8.6,8.6-8.6h17.2
		C218.4,128.5,222.3,132.3,222.5,137.1z"/>
	<path fill="#AEA5BF" d="M246.3,119.8c0,3.8,3.1,6.9,6.9,6.9s6.9-3.1,6.9-6.9s-3.1-6.9-6.9-6.9S246.3,116.1,246.3,119.8z
		 M270.6,137.1v21c0,1.7-1.3,3-3,3s-3-1.4-3-3v-19.3c0-0.5-0.4-0.9-0.9-0.9s-0.9,0.4-0.9,0.9v52.1c0,2.6-1.9,4.7-4.3,4.7
		c-2.4,0-4.3-2.1-4.3-4.7v-29.7c0-0.5-0.4-0.9-0.9-0.9c-0.5,0-0.9,0.4-0.9,0.9v29.7c0,2.6-1.9,4.7-4.3,4.7c-2.4,0-4.3-2.1-4.3-4.7
		v-52.1c0-0.5-0.4-0.9-0.9-0.9s-0.9,0.4-0.9,0.9v19.3c0,1.7-1.3,3-3,3c-1.7,0-3-1.4-3-3v-21c0-4.8,3.8-8.6,8.6-8.6h17.2
		C266.5,128.5,270.4,132.3,270.6,137.1z"/>
	<path fill="#AEA5BF" d="M294.4,119.8c0,3.8,3.1,6.9,6.9,6.9s6.9-3.1,6.9-6.9s-3.1-6.9-6.9-6.9S294.4,116.1,294.4,119.8z
		 M318.7,137.1v21c0,1.7-1.3,3-3,3c-1.7,0-3-1.4-3-3v-19.3c0-0.5-0.4-0.9-0.9-0.9c-0.5,0-0.9,0.4-0.9,0.9v52.1
		c0,2.6-1.9,4.7-4.3,4.7s-4.3-2.1-4.3-4.7v-29.7c0-0.5-0.4-0.9-0.9-0.9c-0.5,0-0.9,0.4-0.9,0.9v29.7c0,2.6-1.9,4.7-4.3,4.7
		s-4.3-2.1-4.3-4.7v-52.1c0-0.5-0.4-0.9-0.9-0.9c-0.5,0-0.9,0.4-0.9,0.9v19.3c0,1.7-1.3,3-3,3s-3-1.4-3-3v-21c0-4.8,3.8-8.6,8.6-8.6
		H310C314.6,128.5,318.5,132.3,318.7,137.1z"/>
	<path fill="#AEA5BF" d="M362.5,119.8c0,3.8,3.1,6.9,6.9,6.9s6.9-3.1,6.9-6.9s-3.1-6.9-6.9-6.9S362.5,116.1,362.5,119.8z
		 M386.8,137.1v21c0,1.7-1.3,3-3,3s-3-1.4-3-3v-19.3c0-0.5-0.4-0.9-0.9-0.9s-0.9,0.4-0.9,0.9v52.1c0,2.6-1.9,4.7-4.3,4.7
		c-2.4,0-4.3-2.1-4.3-4.7v-29.7c0-0.5-0.4-0.9-0.9-0.9c-0.5,0-0.9,0.4-0.9,0.9v29.7c0,2.6-1.9,4.7-4.3,4.7c-2.4,0-4.3-2.1-4.3-4.7
		v-52.1c0-0.5-0.4-0.9-0.9-0.9c-0.5,0-0.9,0.4-0.9,0.9v19.3c0,1.7-1.3,3-3,3c-1.7,0-3-1.4-3-3v-21c0-4.8,3.8-8.6,8.6-8.6h17.2
		C382.7,128.5,386.7,132.3,386.8,137.1z"/>
	<path fill="#AEA5BF" d="M410.6,119.8c0,3.8,3.1,6.9,6.9,6.9s6.9-3.1,6.9-6.9s-3.1-6.9-6.9-6.9S410.6,116.1,410.6,119.8z
		 M434.9,137.1v21c0,1.7-1.3,3-3,3c-1.7,0-3-1.4-3-3v-19.3c0-0.5-0.4-0.9-0.9-0.9c-0.5,0-0.9,0.4-0.9,0.9v52.1
		c0,2.6-1.9,4.7-4.3,4.7s-4.3-2.1-4.3-4.7v-29.7c0-0.5-0.4-0.9-0.9-0.9c-0.5,0-0.9,0.4-0.9,0.9v29.7c0,2.6-1.9,4.7-4.3,4.7
		s-4.3-2.1-4.3-4.7v-52.1c0-0.5-0.4-0.9-0.9-0.9c-0.5,0-0.9,0.4-0.9,0.9v19.3c0,1.7-1.3,3-3,3s-3-1.4-3-3v-21c0-4.8,3.8-8.6,8.6-8.6
		h17.2C430.8,128.5,434.8,132.3,434.9,137.1z"/>
	<path fill="#AEA5BF" d="M458.7,119.8c0,3.8,3.1,6.9,6.9,6.9s6.9-3.1,6.9-6.9s-3.1-6.9-6.9-6.9S458.7,116.1,458.7,119.8z M483,137.1
		v21c0,1.7-1.3,3-3,3s-3-1.4-3-3v-19.3c0-0.5-0.4-0.9-0.9-0.9s-0.9,0.4-0.9,0.9v52.1c0,2.6-1.9,4.7-4.3,4.7c-2.4,0-4.3-2.1-4.3-4.7
		v-29.7c0-0.5-0.4-0.9-0.9-0.9c-0.5,0-0.9,0.4-0.9,0.9v29.7c0,2.6-1.9,4.7-4.3,4.7c-2.4,0-4.3-2.1-4.3-4.7v-52.1
		c0-0.5-0.4-0.9-0.9-0.9c-0.5,0-0.9,0.4-0.9,0.9v19.3c0,1.7-1.3,3-3,3c-1.7,0-3-1.4-3-3v-21c0-4.8,3.8-8.6,8.6-8.6h17.2
		C478.9,128.5,482.9,132.3,483,137.1z"/>
	<path fill="#AEA5BF" d="M506.8,119.8c0,3.8,3.1,6.9,6.9,6.9s6.9-3.1,6.9-6.9s-3.1-6.9-6.9-6.9S506.8,116.1,506.8,119.8z
		 M531.1,137.1v21c0,1.7-1.3,3-3,3s-3-1.4-3-3v-19.3c0-0.5-0.4-0.9-0.9-0.9c-0.5,0-0.9,0.4-0.9,0.9v52.1c0,2.6-1.9,4.7-4.3,4.7
		s-4.3-2.1-4.3-4.7v-29.7c0-0.5-0.4-0.9-0.9-0.9c-0.5,0-0.9,0.4-0.9,0.9v29.7c0,2.6-1.9,4.7-4.3,4.7s-4.3-2.1-4.3-4.7v-52.1
		c0-0.5-0.4-0.9-0.9-0.9c-0.5,0-0.9,0.4-0.9,0.9v19.3c0,1.7-1.3,3-3,3c-1.7,0-3-1.4-3-3v-21c0-4.8,3.8-8.6,8.6-8.6h17.2
		C527,128.5,531,132.3,531.1,137.1z"/>
	<path fill="#AEA5BF" d="M554.9,119.8c0,3.8,3.1,6.9,6.9,6.9s6.9-3.1,6.9-6.9s-3.1-6.9-6.9-6.9S554.9,116.1,554.9,119.8z
		 M579.2,137.1v21c0,1.7-1.3,3-3,3s-3-1.4-3-3v-19.3c0-0.5-0.4-0.9-0.9-0.9s-0.9,0.4-0.9,0.9v52.1c0,2.6-1.9,4.7-4.3,4.7
		s-4.3-2.1-4.3-4.7v-29.7c0-0.5-0.4-0.9-0.9-0.9c-0.5,0-0.9,0.4-0.9,0.9v29.7c0,2.6-1.9,4.7-4.3,4.7s-4.3-2.1-4.3-4.7v-52.1
		c0-0.5-0.4-0.9-0.9-0.9s-0.9,0.4-0.9,0.9v19.3c0,1.7-1.3,3-3,3s-3-1.4-3-3v-21c0-4.8,3.8-8.6,8.6-8.6h17.2
		C575.1,128.5,579.1,132.3,579.2,137.1z"/>
	<path fill="#AEA5BF" d="M623.8,119.8c0,3.8,3.1,6.9,6.9,6.9s6.9-3.1,6.9-6.9s-3.1-6.9-6.9-6.9S623.8,116.1,623.8,119.8z
		 M648.1,137.1v21c0,1.7-1.3,3-3,3s-3-1.4-3-3v-19.3c0-0.5-0.4-0.9-0.9-0.9c-0.5,0-0.9,0.4-0.9,0.9v52.1c0,2.6-1.9,4.7-4.3,4.7
		s-4.3-2.1-4.3-4.7v-29.7c0-0.5-0.4-0.9-0.9-0.9s-0.9,0.4-0.9,0.9v29.7c0,2.6-1.9,4.7-4.3,4.7s-4.3-2.1-4.3-4.7v-52.1
		c0-0.5-0.4-0.9-0.9-0.9c-0.5,0-0.9,0.4-0.9,0.9v19.3c0,1.7-1.3,3-3,3c-1.7,0-3-1.4-3-3v-21c0-4.8,3.8-8.6,8.6-8.6h17.2
		C644,128.5,647.9,132.3,648.1,137.1z"/>
	<path fill="#AEA5BF" d="M671.9,119.8c0,3.8,3.1,6.9,6.9,6.9s6.9-3.1,6.9-6.9s-3.1-6.9-6.9-6.9S671.9,116.1,671.9,119.8z
		 M696.2,137.1v21c0,1.7-1.3,3-3,3s-3-1.4-3-3v-19.3c0-0.5-0.4-0.9-0.9-0.9s-0.9,0.4-0.9,0.9v52.1c0,2.6-1.9,4.7-4.3,4.7
		s-4.3-2.1-4.3-4.7v-29.7c0-0.5-0.4-0.9-0.9-0.9c-0.5,0-0.9,0.4-0.9,0.9v29.7c0,2.6-1.9,4.7-4.3,4.7c-2.4,0-4.3-2.1-4.3-4.7v-52.1
		c0-0.5-0.4-0.9-0.9-0.9s-0.9,0.4-0.9,0.9v19.3c0,1.7-1.3,3-3,3s-3-1.4-3-3v-21c0-4.8,3.8-8.6,8.6-8.6h17.2
		C692.1,128.5,696,132.3,696.2,137.1z"/>
	<path fill="#AEA5BF" d="M720,119.8c0,3.8,3.1,6.9,6.9,6.9s6.9-3.1,6.9-6.9s-3.1-6.9-6.9-6.9S720,116.1,720,119.8z M744.3,137.1v21
		c0,1.7-1.3,3-3,3s-3-1.4-3-3v-19.3c0-0.5-0.4-0.9-0.9-0.9c-0.5,0-0.9,0.4-0.9,0.9v52.1c0,2.6-1.9,4.7-4.3,4.7
		c-2.4,0-4.3-2.1-4.3-4.7v-29.7c0-0.5-0.4-0.9-0.9-0.9c-0.5,0-0.9,0.4-0.9,0.9v29.7c0,2.6-1.9,4.7-4.3,4.7s-4.3-2.1-4.3-4.7v-52.1
		c0-0.5-0.4-0.9-0.9-0.9s-0.9,0.4-0.9,0.9v19.3c0,1.7-1.3,3-3,3s-3-1.4-3-3v-21c0-4.8,3.8-8.6,8.6-8.6h17.2
		C740.2,128.5,744.1,132.3,744.3,137.1z"/>
	<path fill="#AEA5BF" d="M768.1,119.8c0,3.8,3.1,6.9,6.9,6.9s6.9-3.1,6.9-6.9s-3.1-6.9-6.9-6.9C771.2,113,768.1,116.1,768.1,119.8z
		 M792.4,137.1v21c0,1.7-1.3,3-3,3c-1.7,0-3-1.4-3-3v-19.3c0-0.5-0.4-0.9-0.9-0.9c-0.5,0-0.9,0.4-0.9,0.9v52.1
		c0,2.6-1.9,4.7-4.3,4.7s-4.3-2.1-4.3-4.7v-29.7c0-0.5-0.4-0.9-0.9-0.9s-0.9,0.4-0.9,0.9v29.7c0,2.6-1.9,4.7-4.3,4.7
		s-4.3-2.1-4.3-4.7v-52.1c0-0.5-0.4-0.9-0.9-0.9c-0.5,0-0.9,0.4-0.9,0.9v19.3c0,1.7-1.3,3-3,3s-3-1.4-3-3v-21c0-4.8,3.8-8.6,8.6-8.6
		h17.2C788.3,128.5,792.2,132.3,792.4,137.1z"/>
	<path fill="#AEA5BF" d="M816.2,119.8c0,3.8,3.1,6.9,6.9,6.9s6.9-3.1,6.9-6.9s-3.1-6.9-6.9-6.9S816.2,116.1,816.2,119.8z
		 M840.5,137.1v21c0,1.7-1.3,3-3,3s-3-1.4-3-3v-19.3c0-0.5-0.4-0.9-0.9-0.9c-0.5,0-0.9,0.4-0.9,0.9v52.1c0,2.6-1.9,4.7-4.3,4.7
		s-4.3-2.1-4.3-4.7v-29.7c0-0.5-0.4-0.9-0.9-0.9s-0.9,0.4-0.9,0.9v29.7c0,2.6-1.9,4.7-4.3,4.7s-4.3-2.1-4.3-4.7v-52.1
		c0-0.5-0.4-0.9-0.9-0.9c-0.5,0-0.9,0.4-0.9,0.9v19.3c0,1.7-1.3,3-3,3c-1.7,0-3-1.4-3-3v-21c0-4.8,3.8-8.6,8.6-8.6h17.2
		C836.4,128.5,840.4,132.3,840.5,137.1z"/>
	<path fill="#AEA5BF" d="M884.3,119.8c0,3.8,3.1,6.9,6.9,6.9s6.9-3.1,6.9-6.9s-3.1-6.9-6.9-6.9S884.3,116.1,884.3,119.8z
		 M908.6,137.1v21c0,1.7-1.3,3-3,3s-3-1.4-3-3v-19.3c0-0.5-0.4-0.9-0.9-0.9s-0.9,0.4-0.9,0.9v52.1c0,2.6-1.9,4.7-4.3,4.7
		s-4.3-2.1-4.3-4.7v-29.7c0-0.5-0.4-0.9-0.9-0.9c-0.5,0-0.9,0.4-0.9,0.9v29.7c0,2.6-1.9,4.7-4.3,4.7s-4.3-2.1-4.3-4.7v-52.1
		c0-0.5-0.4-0.9-0.9-0.9s-0.9,0.4-0.9,0.9v19.3c0,1.7-1.3,3-3,3s-3-1.4-3-3v-21c0-4.8,3.8-8.6,8.6-8.6h17.2
		C904.5,128.5,908.5,132.3,908.6,137.1z"/>
	<path fill="#AEA5BF" d="M932.4,119.8c0,3.8,3.1,6.9,6.9,6.9s6.9-3.1,6.9-6.9s-3.1-6.9-6.9-6.9S932.4,116.1,932.4,119.8z
		 M956.7,137.1v21c0,1.7-1.3,3-3,3s-3-1.4-3-3v-19.3c0-0.5-0.4-0.9-0.9-0.9c-0.5,0-0.9,0.4-0.9,0.9v52.1c0,2.6-1.9,4.7-4.3,4.7
		c-2.4,0-4.3-2.1-4.3-4.7v-29.7c0-0.5-0.4-0.9-0.9-0.9c-0.5,0-0.9,0.4-0.9,0.9v29.7c0,2.6-1.9,4.7-4.3,4.7s-4.3-2.1-4.3-4.7v-52.1
		c0-0.5-0.4-0.9-0.9-0.9s-0.9,0.4-0.9,0.9v19.3c0,1.7-1.3,3-3,3s-3-1.4-3-3v-21c0-4.8,3.8-8.6,8.6-8.6H948
		C952.6,128.5,956.6,132.3,956.7,137.1z"/>
	<path fill="#AEA5BF" d="M980.5,119.8c0,3.8,3.1,6.9,6.9,6.9s6.9-3.1,6.9-6.9s-3.1-6.9-6.9-6.9S980.5,116.1,980.5,119.8z
		 M1004.8,137.1v21c0,1.7-1.3,3-3,3c-1.7,0-3-1.4-3-3v-19.3c0-0.5-0.4-0.9-0.9-0.9c-0.5,0-0.9,0.4-0.9,0.9v52.1
		c0,2.6-1.9,4.7-4.3,4.7s-4.3-2.1-4.3-4.7v-29.7c0-0.5-0.4-0.9-0.9-0.9s-0.9,0.4-0.9,0.9v29.7c0,2.6-1.9,4.7-4.3,4.7
		s-4.3-2.1-4.3-4.7v-52.1c0-0.5-0.4-0.9-0.9-0.9c-0.5,0-0.9,0.4-0.9,0.9v19.3c0,1.7-1.3,3-3,3c-1.7,0-3-1.4-3-3v-21
		c0-4.8,3.8-8.6,8.6-8.6h17.2C1000.7,128.5,1004.7,132.3,1004.8,137.1z"/>
	<path fill="#AEA5BF" d="M1028.6,119.8c0,3.8,3.1,6.9,6.9,6.9s6.9-3.1,6.9-6.9s-3.1-6.9-6.9-6.9S1028.6,116.1,1028.6,119.8z
		 M1052.9,137.1v21c0,1.7-1.3,3-3,3c-1.7,0-3-1.4-3-3v-19.3c0-0.5-0.4-0.9-0.9-0.9s-0.9,0.4-0.9,0.9v52.1c0,2.6-1.9,4.7-4.3,4.7
		s-4.3-2.1-4.3-4.7v-29.7c0-0.5-0.4-0.9-0.9-0.9s-0.9,0.4-0.9,0.9v29.7c0,2.6-1.9,4.7-4.3,4.7s-4.3-2.1-4.3-4.7v-52.1
		c0-0.5-0.4-0.9-0.9-0.9c-0.5,0-0.9,0.4-0.9,0.9v19.3c0,1.7-1.3,3-3,3c-1.7,0-3-1.4-3-3v-21c0-4.8,3.8-8.6,8.6-8.6h17.2
		C1048.8,128.5,1052.8,132.3,1052.9,137.1z"/>
	<g>
		<text transform="matrix(1 0 0 1 2.1191 176.3325)" fill="#9C96AD" font-family="'RobotoCondensed-Regular'" font-size="26px">10</text>
	</g>
	<g>
		<text transform="matrix(1 0 0 1 29.0156 161.7075)" fill="#9C96AD" font-family="'RobotoCondensed-Regular'" font-size="16px">6</text>
	</g>
	<g>
		<text transform="matrix(1 0 0 1 41.3611 176.4912)" fill="#9C96AD" font-family="'RobotoCondensed-Regular'" font-size="26px">x</text>
	</g>
	<text transform="matrix(1 0 0 1 1.4344 132.2021)" fill="#D1CDC9" font-family="'RobotoCondensed-Regular'" font-size="26px">2016</text>
	<path fill="#AEA5BF" d="M102,231c0,3.8,3.1,6.9,6.9,6.9s6.9-3.1,6.9-6.9s-3.1-6.9-6.9-6.9S102,227.2,102,231z M126.3,248.2v21
		c0,1.7-1.3,3-3,3c-1.7,0-3-1.4-3-3v-19.3c0-0.5-0.4-0.9-0.9-0.9c-0.5,0-0.9,0.4-0.9,0.9V302c0,2.6-1.9,4.7-4.3,4.7
		s-4.3-2.1-4.3-4.7v-29.7c0-0.5-0.4-0.9-0.9-0.9s-0.9,0.4-0.9,0.9V302c0,2.6-1.9,4.7-4.3,4.7s-4.3-2.1-4.3-4.7v-52.1
		c0-0.5-0.4-0.9-0.9-0.9c-0.5,0-0.9,0.4-0.9,0.9v19.3c0,1.7-1.3,3-3,3s-3-1.4-3-3v-21c0-4.8,3.8-8.6,8.6-8.6h17.2
		C122.2,239.6,126.1,243.5,126.3,248.2z"/>
	<path fill="#AEA5BF" d="M150.1,231c0,3.8,3.1,6.9,6.9,6.9s6.9-3.1,6.9-6.9s-3.1-6.9-6.9-6.9S150.1,227.2,150.1,231z M174.4,248.2
		v21c0,1.7-1.3,3-3,3c-1.7,0-3-1.4-3-3v-19.3c0-0.5-0.4-0.9-0.9-0.9s-0.9,0.4-0.9,0.9V302c0,2.6-1.9,4.7-4.3,4.7
		c-2.4,0-4.3-2.1-4.3-4.7v-29.7c0-0.5-0.4-0.9-0.9-0.9c-0.5,0-0.9,0.4-0.9,0.9V302c0,2.6-1.9,4.7-4.3,4.7c-2.4,0-4.3-2.1-4.3-4.7
		v-52.1c0-0.5-0.4-0.9-0.9-0.9s-0.9,0.4-0.9,0.9v19.3c0,1.7-1.3,3-3,3s-3-1.4-3-3v-21c0-4.8,3.8-8.6,8.6-8.6h17.2
		C170.3,239.6,174.2,243.5,174.4,248.2z"/>
	<path fill="#AEA5BF" d="M198.2,231c0,3.8,3.1,6.9,6.9,6.9s6.9-3.1,6.9-6.9s-3.1-6.9-6.9-6.9S198.2,227.2,198.2,231z M222.5,248.2
		v21c0,1.7-1.3,3-3,3c-1.7,0-3-1.4-3-3v-19.3c0-0.5-0.4-0.9-0.9-0.9s-0.9,0.4-0.9,0.9V302c0,2.6-1.9,4.7-4.3,4.7
		c-2.4,0-4.3-2.1-4.3-4.7v-29.7c0-0.5-0.4-0.9-0.9-0.9c-0.5,0-0.9,0.4-0.9,0.9V302c0,2.6-1.9,4.7-4.3,4.7c-2.4,0-4.3-2.1-4.3-4.7
		v-52.1c0-0.5-0.4-0.9-0.9-0.9s-0.9,0.4-0.9,0.9v19.3c0,1.7-1.3,3-3,3s-3-1.4-3-3v-21c0-4.8,3.8-8.6,8.6-8.6h17.2
		C218.4,239.6,222.3,243.5,222.5,248.2z"/>
	<path fill="#AEA5BF" d="M246.3,231c0,3.8,3.1,6.9,6.9,6.9s6.9-3.1,6.9-6.9s-3.1-6.9-6.9-6.9S246.3,227.2,246.3,231z M270.6,248.2
		v21c0,1.7-1.3,3-3,3s-3-1.4-3-3v-19.3c0-0.5-0.4-0.9-0.9-0.9s-0.9,0.4-0.9,0.9V302c0,2.6-1.9,4.7-4.3,4.7c-2.4,0-4.3-2.1-4.3-4.7
		v-29.7c0-0.5-0.4-0.9-0.9-0.9c-0.5,0-0.9,0.4-0.9,0.9V302c0,2.6-1.9,4.7-4.3,4.7c-2.4,0-4.3-2.1-4.3-4.7v-52.1
		c0-0.5-0.4-0.9-0.9-0.9s-0.9,0.4-0.9,0.9v19.3c0,1.7-1.3,3-3,3c-1.7,0-3-1.4-3-3v-21c0-4.8,3.8-8.6,8.6-8.6h17.2
		C266.5,239.6,270.4,243.5,270.6,248.2z"/>
	<path fill="#AEA5BF" d="M294.4,231c0,3.8,3.1,6.9,6.9,6.9s6.9-3.1,6.9-6.9s-3.1-6.9-6.9-6.9S294.4,227.2,294.4,231z M318.7,248.2
		v21c0,1.7-1.3,3-3,3c-1.7,0-3-1.4-3-3v-19.3c0-0.5-0.4-0.9-0.9-0.9c-0.5,0-0.9,0.4-0.9,0.9V302c0,2.6-1.9,4.7-4.3,4.7
		s-4.3-2.1-4.3-4.7v-29.7c0-0.5-0.4-0.9-0.9-0.9c-0.5,0-0.9,0.4-0.9,0.9V302c0,2.6-1.9,4.7-4.3,4.7s-4.3-2.1-4.3-4.7v-52.1
		c0-0.5-0.4-0.9-0.9-0.9c-0.5,0-0.9,0.4-0.9,0.9v19.3c0,1.7-1.3,3-3,3s-3-1.4-3-3v-21c0-4.8,3.8-8.6,8.6-8.6H310
		C314.6,239.6,318.5,243.5,318.7,248.2z"/>
	<path fill="#AEA5BF" d="M362.5,231c0,3.8,3.1,6.9,6.9,6.9s6.9-3.1,6.9-6.9s-3.1-6.9-6.9-6.9S362.5,227.2,362.5,231z M386.8,248.2
		v21c0,1.7-1.3,3-3,3s-3-1.4-3-3v-19.3c0-0.5-0.4-0.9-0.9-0.9s-0.9,0.4-0.9,0.9V302c0,2.6-1.9,4.7-4.3,4.7c-2.4,0-4.3-2.1-4.3-4.7
		v-29.7c0-0.5-0.4-0.9-0.9-0.9c-0.5,0-0.9,0.4-0.9,0.9V302c0,2.6-1.9,4.7-4.3,4.7c-2.4,0-4.3-2.1-4.3-4.7v-52.1
		c0-0.5-0.4-0.9-0.9-0.9c-0.5,0-0.9,0.4-0.9,0.9v19.3c0,1.7-1.3,3-3,3c-1.7,0-3-1.4-3-3v-21c0-4.8,3.8-8.6,8.6-8.6h17.2
		C382.7,239.6,386.7,243.5,386.8,248.2z"/>
	<path fill="#AEA5BF" d="M410.6,231c0,3.8,3.1,6.9,6.9,6.9s6.9-3.1,6.9-6.9s-3.1-6.9-6.9-6.9S410.6,227.2,410.6,231z M434.9,248.2
		v21c0,1.7-1.3,3-3,3c-1.7,0-3-1.4-3-3v-19.3c0-0.5-0.4-0.9-0.9-0.9c-0.5,0-0.9,0.4-0.9,0.9V302c0,2.6-1.9,4.7-4.3,4.7
		s-4.3-2.1-4.3-4.7v-29.7c0-0.5-0.4-0.9-0.9-0.9c-0.5,0-0.9,0.4-0.9,0.9V302c0,2.6-1.9,4.7-4.3,4.7s-4.3-2.1-4.3-4.7v-52.1
		c0-0.5-0.4-0.9-0.9-0.9c-0.5,0-0.9,0.4-0.9,0.9v19.3c0,1.7-1.3,3-3,3s-3-1.4-3-3v-21c0-4.8,3.8-8.6,8.6-8.6h17.2
		C430.8,239.6,434.8,243.5,434.9,248.2z"/>
	<path fill="#AEA5BF" d="M458.7,231c0,3.8,3.1,6.9,6.9,6.9s6.9-3.1,6.9-6.9s-3.1-6.9-6.9-6.9S458.7,227.2,458.7,231z M483,248.2v21
		c0,1.7-1.3,3-3,3s-3-1.4-3-3v-19.3c0-0.5-0.4-0.9-0.9-0.9s-0.9,0.4-0.9,0.9V302c0,2.6-1.9,4.7-4.3,4.7c-2.4,0-4.3-2.1-4.3-4.7
		v-29.7c0-0.5-0.4-0.9-0.9-0.9c-0.5,0-0.9,0.4-0.9,0.9V302c0,2.6-1.9,4.7-4.3,4.7c-2.4,0-4.3-2.1-4.3-4.7v-52.1
		c0-0.5-0.4-0.9-0.9-0.9c-0.5,0-0.9,0.4-0.9,0.9v19.3c0,1.7-1.3,3-3,3c-1.7,0-3-1.4-3-3v-21c0-4.8,3.8-8.6,8.6-8.6h17.2
		C478.9,239.6,482.9,243.5,483,248.2z"/>
	<path fill="#AEA5BF" d="M506.8,231c0,3.8,3.1,6.9,6.9,6.9s6.9-3.1,6.9-6.9s-3.1-6.9-6.9-6.9S506.8,227.2,506.8,231z M531.1,248.2
		v21c0,1.7-1.3,3-3,3s-3-1.4-3-3v-19.3c0-0.5-0.4-0.9-0.9-0.9c-0.5,0-0.9,0.4-0.9,0.9V302c0,2.6-1.9,4.7-4.3,4.7s-4.3-2.1-4.3-4.7
		v-29.7c0-0.5-0.4-0.9-0.9-0.9c-0.5,0-0.9,0.4-0.9,0.9V302c0,2.6-1.9,4.7-4.3,4.7s-4.3-2.1-4.3-4.7v-52.1c0-0.5-0.4-0.9-0.9-0.9
		c-0.5,0-0.9,0.4-0.9,0.9v19.3c0,1.7-1.3,3-3,3c-1.7,0-3-1.4-3-3v-21c0-4.8,3.8-8.6,8.6-8.6h17.2C527,239.6,531,243.5,531.1,248.2z"
		/>
	<path fill="#AEA5BF" d="M554.9,231c0,3.8,3.1,6.9,6.9,6.9s6.9-3.1,6.9-6.9s-3.1-6.9-6.9-6.9S554.9,227.2,554.9,231z M579.2,248.2
		v21c0,1.7-1.3,3-3,3s-3-1.4-3-3v-19.3c0-0.5-0.4-0.9-0.9-0.9s-0.9,0.4-0.9,0.9V302c0,2.6-1.9,4.7-4.3,4.7s-4.3-2.1-4.3-4.7v-29.7
		c0-0.5-0.4-0.9-0.9-0.9c-0.5,0-0.9,0.4-0.9,0.9V302c0,2.6-1.9,4.7-4.3,4.7s-4.3-2.1-4.3-4.7v-52.1c0-0.5-0.4-0.9-0.9-0.9
		s-0.9,0.4-0.9,0.9v19.3c0,1.7-1.3,3-3,3s-3-1.4-3-3v-21c0-4.8,3.8-8.6,8.6-8.6h17.2C575.1,239.6,579.1,243.5,579.2,248.2z"/>
	<path fill="#AEA5BF" d="M623.8,231c0,3.8,3.1,6.9,6.9,6.9s6.9-3.1,6.9-6.9s-3.1-6.9-6.9-6.9S623.8,227.2,623.8,231z M648.1,248.2
		v21c0,1.7-1.3,3-3,3s-3-1.4-3-3v-19.3c0-0.5-0.4-0.9-0.9-0.9c-0.5,0-0.9,0.4-0.9,0.9V302c0,2.6-1.9,4.7-4.3,4.7s-4.3-2.1-4.3-4.7
		v-29.7c0-0.5-0.4-0.9-0.9-0.9s-0.9,0.4-0.9,0.9V302c0,2.6-1.9,4.7-4.3,4.7s-4.3-2.1-4.3-4.7v-52.1c0-0.5-0.4-0.9-0.9-0.9
		c-0.5,0-0.9,0.4-0.9,0.9v19.3c0,1.7-1.3,3-3,3c-1.7,0-3-1.4-3-3v-21c0-4.8,3.8-8.6,8.6-8.6h17.2C644,239.6,647.9,243.5,648.1,248.2
		z"/>
	<path fill="#AEA5BF" d="M671.9,231c0,3.8,3.1,6.9,6.9,6.9s6.9-3.1,6.9-6.9s-3.1-6.9-6.9-6.9S671.9,227.2,671.9,231z M696.2,248.2
		v21c0,1.7-1.3,3-3,3s-3-1.4-3-3v-19.3c0-0.5-0.4-0.9-0.9-0.9s-0.9,0.4-0.9,0.9V302c0,2.6-1.9,4.7-4.3,4.7s-4.3-2.1-4.3-4.7v-29.7
		c0-0.5-0.4-0.9-0.9-0.9c-0.5,0-0.9,0.4-0.9,0.9V302c0,2.6-1.9,4.7-4.3,4.7c-2.4,0-4.3-2.1-4.3-4.7v-52.1c0-0.5-0.4-0.9-0.9-0.9
		s-0.9,0.4-0.9,0.9v19.3c0,1.7-1.3,3-3,3s-3-1.4-3-3v-21c0-4.8,3.8-8.6,8.6-8.6h17.2C692.1,239.6,696,243.5,696.2,248.2z"/>
	<path fill="#AEA5BF" d="M720,231c0,3.8,3.1,6.9,6.9,6.9s6.9-3.1,6.9-6.9s-3.1-6.9-6.9-6.9S720,227.2,720,231z M744.3,248.2v21
		c0,1.7-1.3,3-3,3s-3-1.4-3-3v-19.3c0-0.5-0.4-0.9-0.9-0.9c-0.5,0-0.9,0.4-0.9,0.9V302c0,2.6-1.9,4.7-4.3,4.7
		c-2.4,0-4.3-2.1-4.3-4.7v-29.7c0-0.5-0.4-0.9-0.9-0.9c-0.5,0-0.9,0.4-0.9,0.9V302c0,2.6-1.9,4.7-4.3,4.7s-4.3-2.1-4.3-4.7v-52.1
		c0-0.5-0.4-0.9-0.9-0.9s-0.9,0.4-0.9,0.9v19.3c0,1.7-1.3,3-3,3s-3-1.4-3-3v-21c0-4.8,3.8-8.6,8.6-8.6h17.2
		C740.2,239.6,744.1,243.5,744.3,248.2z"/>
	<path fill="#AEA5BF" d="M768.1,231c0,3.8,3.1,6.9,6.9,6.9s6.9-3.1,6.9-6.9s-3.1-6.9-6.9-6.9C771.2,224.1,768.1,227.2,768.1,231z
		 M792.4,248.2v21c0,1.7-1.3,3-3,3c-1.7,0-3-1.4-3-3v-19.3c0-0.5-0.4-0.9-0.9-0.9c-0.5,0-0.9,0.4-0.9,0.9V302c0,2.6-1.9,4.7-4.3,4.7
		s-4.3-2.1-4.3-4.7v-29.7c0-0.5-0.4-0.9-0.9-0.9s-0.9,0.4-0.9,0.9V302c0,2.6-1.9,4.7-4.3,4.7s-4.3-2.1-4.3-4.7v-52.1
		c0-0.5-0.4-0.9-0.9-0.9c-0.5,0-0.9,0.4-0.9,0.9v19.3c0,1.7-1.3,3-3,3s-3-1.4-3-3v-21c0-4.8,3.8-8.6,8.6-8.6h17.2
		C788.3,239.6,792.2,243.5,792.4,248.2z"/>
	<path fill="#AEA5BF" d="M816.2,231c0,3.8,3.1,6.9,6.9,6.9s6.9-3.1,6.9-6.9s-3.1-6.9-6.9-6.9S816.2,227.2,816.2,231z M840.5,248.2
		v21c0,1.7-1.3,3-3,3s-3-1.4-3-3v-19.3c0-0.5-0.4-0.9-0.9-0.9c-0.5,0-0.9,0.4-0.9,0.9V302c0,2.6-1.9,4.7-4.3,4.7s-4.3-2.1-4.3-4.7
		v-29.7c0-0.5-0.4-0.9-0.9-0.9s-0.9,0.4-0.9,0.9V302c0,2.6-1.9,4.7-4.3,4.7s-4.3-2.1-4.3-4.7v-52.1c0-0.5-0.4-0.9-0.9-0.9
		c-0.5,0-0.9,0.4-0.9,0.9v19.3c0,1.7-1.3,3-3,3c-1.7,0-3-1.4-3-3v-21c0-4.8,3.8-8.6,8.6-8.6h17.2
		C836.4,239.6,840.4,243.5,840.5,248.2z"/>
	<path fill="#AEA5BF" d="M884.3,231c0,3.8,3.1,6.9,6.9,6.9s6.9-3.1,6.9-6.9s-3.1-6.9-6.9-6.9S884.3,227.2,884.3,231z M908.6,248.2
		v21c0,1.7-1.3,3-3,3s-3-1.4-3-3v-19.3c0-0.5-0.4-0.9-0.9-0.9s-0.9,0.4-0.9,0.9V302c0,2.6-1.9,4.7-4.3,4.7s-4.3-2.1-4.3-4.7v-29.7
		c0-0.5-0.4-0.9-0.9-0.9c-0.5,0-0.9,0.4-0.9,0.9V302c0,2.6-1.9,4.7-4.3,4.7s-4.3-2.1-4.3-4.7v-52.1c0-0.5-0.4-0.9-0.9-0.9
		s-0.9,0.4-0.9,0.9v19.3c0,1.7-1.3,3-3,3s-3-1.4-3-3v-21c0-4.8,3.8-8.6,8.6-8.6h17.2C904.5,239.6,908.5,243.5,908.6,248.2z"/>
	<path fill="#AEA5BF" d="M932.4,231c0,3.8,3.1,6.9,6.9,6.9s6.9-3.1,6.9-6.9s-3.1-6.9-6.9-6.9S932.4,227.2,932.4,231z M956.7,248.2
		v21c0,1.7-1.3,3-3,3s-3-1.4-3-3v-19.3c0-0.5-0.4-0.9-0.9-0.9c-0.5,0-0.9,0.4-0.9,0.9V302c0,2.6-1.9,4.7-4.3,4.7
		c-2.4,0-4.3-2.1-4.3-4.7v-29.7c0-0.5-0.4-0.9-0.9-0.9c-0.5,0-0.9,0.4-0.9,0.9V302c0,2.6-1.9,4.7-4.3,4.7s-4.3-2.1-4.3-4.7v-52.1
		c0-0.5-0.4-0.9-0.9-0.9s-0.9,0.4-0.9,0.9v19.3c0,1.7-1.3,3-3,3s-3-1.4-3-3v-21c0-4.8,3.8-8.6,8.6-8.6H948
		C952.6,239.6,956.6,243.5,956.7,248.2z"/>
	<path fill="#AEA5BF" d="M980.5,231c0,3.8,3.1,6.9,6.9,6.9s6.9-3.1,6.9-6.9s-3.1-6.9-6.9-6.9S980.5,227.2,980.5,231z M1004.8,248.2
		v21c0,1.7-1.3,3-3,3c-1.7,0-3-1.4-3-3v-19.3c0-0.5-0.4-0.9-0.9-0.9c-0.5,0-0.9,0.4-0.9,0.9V302c0,2.6-1.9,4.7-4.3,4.7
		s-4.3-2.1-4.3-4.7v-29.7c0-0.5-0.4-0.9-0.9-0.9s-0.9,0.4-0.9,0.9V302c0,2.6-1.9,4.7-4.3,4.7s-4.3-2.1-4.3-4.7v-52.1
		c0-0.5-0.4-0.9-0.9-0.9c-0.5,0-0.9,0.4-0.9,0.9v19.3c0,1.7-1.3,3-3,3c-1.7,0-3-1.4-3-3v-21c0-4.8,3.8-8.6,8.6-8.6h17.2
		C1000.7,239.6,1004.7,243.5,1004.8,248.2z"/>
	<path fill="#AEA5BF" d="M1028.6,231c0,3.8,3.1,6.9,6.9,6.9s6.9-3.1,6.9-6.9s-3.1-6.9-6.9-6.9S1028.6,227.2,1028.6,231z
		 M1052.9,248.2v21c0,1.7-1.3,3-3,3c-1.7,0-3-1.4-3-3v-19.3c0-0.5-0.4-0.9-0.9-0.9s-0.9,0.4-0.9,0.9V302c0,2.6-1.9,4.7-4.3,4.7
		s-4.3-2.1-4.3-4.7v-29.7c0-0.5-0.4-0.9-0.9-0.9s-0.9,0.4-0.9,0.9V302c0,2.6-1.9,4.7-4.3,4.7s-4.3-2.1-4.3-4.7v-52.1
		c0-0.5-0.4-0.9-0.9-0.9c-0.5,0-0.9,0.4-0.9,0.9v19.3c0,1.7-1.3,3-3,3c-1.7,0-3-1.4-3-3v-21c0-4.8,3.8-8.6,8.6-8.6h17.2
		C1048.8,239.6,1052.8,243.5,1052.9,248.2z"/>
	<path fill="#AEA5BF" d="M1076.8,231c0,3.8,3.1,6.9,6.9,6.9s6.9-3.1,6.9-6.9s-3.1-6.9-6.9-6.9S1076.8,227.2,1076.8,231z M1101,248.2
		v21c0,1.7-1.3,3-3,3s-3-1.4-3-3v-19.3c0-0.5-0.4-0.9-0.9-0.9c-0.5,0-0.9,0.4-0.9,0.9V302c0,2.6-1.9,4.7-4.3,4.7s-4.3-2.1-4.3-4.7
		v-29.7c0-0.5-0.4-0.9-0.9-0.9c-0.5,0-0.9,0.4-0.9,0.9V302c0,2.6-1.9,4.7-4.3,4.7s-4.3-2.1-4.3-4.7v-52.1c0-0.5-0.4-0.9-0.9-0.9
		s-0.9,0.4-0.9,0.9v19.3c0,1.7-1.3,3-3,3c-1.7,0-3-1.4-3-3v-21c0-4.8,3.8-8.6,8.6-8.6h17.2C1097,239.6,1100.9,243.5,1101,248.2z"/>
	<path fill="#AEA5BF" d="M1144.9,231c0,3.8,3.1,6.9,6.9,6.9s6.9-3.1,6.9-6.9s-3.1-6.9-6.9-6.9S1144.9,227.2,1144.9,231z
		 M1169.1,248.2v21c0,1.7-1.3,3-3,3c-1.7,0-3-1.4-3-3v-19.3c0-0.5-0.4-0.9-0.9-0.9c-0.5,0-0.9,0.4-0.9,0.9V302
		c0,2.6-1.9,4.7-4.3,4.7s-4.3-2.1-4.3-4.7v-29.7c0-0.5-0.4-0.9-0.9-0.9c-0.5,0-0.9,0.4-0.9,0.9V302c0,2.6-1.9,4.7-4.3,4.7
		c-2.4,0-4.3-2.1-4.3-4.7v-52.1c0-0.5-0.4-0.9-0.9-0.9c-0.5,0-0.9,0.4-0.9,0.9v19.3c0,1.7-1.3,3-3,3s-3-1.4-3-3v-21
		c0-4.8,3.8-8.6,8.6-8.6h17.2C1165.1,239.6,1169,243.5,1169.1,248.2z"/>
	<path fill="#AEA5BF" d="M1193,231c0,3.8,3.1,6.9,6.9,6.9s6.9-3.1,6.9-6.9s-3.1-6.9-6.9-6.9S1193,227.2,1193,231z M1217.2,248.2v21
		c0,1.7-1.3,3-3,3c-1.7,0-3-1.4-3-3v-19.3c0-0.5-0.4-0.9-0.9-0.9c-0.5,0-0.9,0.4-0.9,0.9V302c0,2.6-1.9,4.7-4.3,4.7
		s-4.3-2.1-4.3-4.7v-29.7c0-0.5-0.4-0.9-0.9-0.9s-0.9,0.4-0.9,0.9V302c0,2.6-1.9,4.7-4.3,4.7s-4.3-2.1-4.3-4.7v-52.1
		c0-0.5-0.4-0.9-0.9-0.9c-0.5,0-0.9,0.4-0.9,0.9v19.3c0,1.7-1.3,3-3,3c-1.7,0-3-1.4-3-3v-21c0-4.8,3.8-8.6,8.6-8.6h17.2
		C1213.2,239.6,1217.1,243.5,1217.2,248.2z"/>
	<path fill="#AEA5BF" d="M1241.1,231c0,3.8,3.1,6.9,6.9,6.9s6.9-3.1,6.9-6.9s-3.1-6.9-6.9-6.9S1241.1,227.2,1241.1,231z
		 M1265.3,248.2v21c0,1.7-1.3,3-3,3s-3-1.4-3-3v-19.3c0-0.5-0.4-0.9-0.9-0.9c-0.5,0-0.9,0.4-0.9,0.9V302c0,2.6-1.9,4.7-4.3,4.7
		c-2.4,0-4.3-2.1-4.3-4.7v-29.7c0-0.5-0.4-0.9-0.9-0.9c-0.5,0-0.9,0.4-0.9,0.9V302c0,2.6-1.9,4.7-4.3,4.7s-4.3-2.1-4.3-4.7v-52.1
		c0-0.5-0.4-0.9-0.9-0.9s-0.9,0.4-0.9,0.9v19.3c0,1.7-1.3,3-3,3c-1.7,0-3-1.4-3-3v-21c0-4.8,3.8-8.6,8.6-8.6h17.2
		C1261.3,239.6,1265.2,243.5,1265.3,248.2z"/>
	<g>
		<text transform="matrix(1 0 0 1 2.1191 284.3013)" fill="#9C96AD" font-family="'RobotoCondensed-Regular'" font-size="26px">10</text>
	</g>
	<g>
		<text transform="matrix(1 0 0 1 29.0156 269.6763)" fill="#9C96AD" font-family="'RobotoCondensed-Regular'" font-size="16px">6</text>
	</g>
	<g>
		<text transform="matrix(1 0 0 1 41.3611 284.46)" fill="#9C96AD" font-family="'RobotoCondensed-Regular'" font-size="26px">x</text>
	</g>
	<text transform="matrix(1 0 0 1 1.4344 243.1519)" fill="#D1CDC9" font-family="'RobotoCondensed-Regular'" font-size="26px">2018</text>
	<path fill="#AEA5BF" d="M102,341.9c0,3.8,3.1,6.9,6.9,6.9s6.9-3.1,6.9-6.9s-3.1-6.9-6.9-6.9S102,338.2,102,341.9z M126.3,359.2v21
		c0,1.7-1.3,3-3,3c-1.7,0-3-1.4-3-3v-19.3c0-0.5-0.4-0.9-0.9-0.9c-0.5,0-0.9,0.4-0.9,0.9V413c0,2.6-1.9,4.7-4.3,4.7
		s-4.3-2.1-4.3-4.7v-29.7c0-0.5-0.4-0.9-0.9-0.9s-0.9,0.4-0.9,0.9V413c0,2.6-1.9,4.7-4.3,4.7s-4.3-2.1-4.3-4.7v-52.1
		c0-0.5-0.4-0.9-0.9-0.9c-0.5,0-0.9,0.4-0.9,0.9v19.3c0,1.7-1.3,3-3,3s-3-1.4-3-3v-21c0-4.8,3.8-8.6,8.6-8.6h17.2
		C122.2,350.6,126.1,354.4,126.3,359.2z"/>
	<path fill="#AEA5BF" d="M150.1,341.9c0,3.8,3.1,6.9,6.9,6.9s6.9-3.1,6.9-6.9s-3.1-6.9-6.9-6.9S150.1,338.2,150.1,341.9z
		 M174.4,359.2v21c0,1.7-1.3,3-3,3c-1.7,0-3-1.4-3-3v-19.3c0-0.5-0.4-0.9-0.9-0.9s-0.9,0.4-0.9,0.9V413c0,2.6-1.9,4.7-4.3,4.7
		c-2.4,0-4.3-2.1-4.3-4.7v-29.7c0-0.5-0.4-0.9-0.9-0.9c-0.5,0-0.9,0.4-0.9,0.9V413c0,2.6-1.9,4.7-4.3,4.7c-2.4,0-4.3-2.1-4.3-4.7
		v-52.1c0-0.5-0.4-0.9-0.9-0.9s-0.9,0.4-0.9,0.9v19.3c0,1.7-1.3,3-3,3s-3-1.4-3-3v-21c0-4.8,3.8-8.6,8.6-8.6h17.2
		C170.3,350.6,174.2,354.4,174.4,359.2z"/>
	<path fill="#AEA5BF" d="M198.2,341.9c0,3.8,3.1,6.9,6.9,6.9s6.9-3.1,6.9-6.9s-3.1-6.9-6.9-6.9S198.2,338.2,198.2,341.9z
		 M222.5,359.2v21c0,1.7-1.3,3-3,3c-1.7,0-3-1.4-3-3v-19.3c0-0.5-0.4-0.9-0.9-0.9s-0.9,0.4-0.9,0.9V413c0,2.6-1.9,4.7-4.3,4.7
		c-2.4,0-4.3-2.1-4.3-4.7v-29.7c0-0.5-0.4-0.9-0.9-0.9c-0.5,0-0.9,0.4-0.9,0.9V413c0,2.6-1.9,4.7-4.3,4.7c-2.4,0-4.3-2.1-4.3-4.7
		v-52.1c0-0.5-0.4-0.9-0.9-0.9s-0.9,0.4-0.9,0.9v19.3c0,1.7-1.3,3-3,3s-3-1.4-3-3v-21c0-4.8,3.8-8.6,8.6-8.6h17.2
		C218.4,350.6,222.3,354.4,222.5,359.2z"/>
	<path fill="#AEA5BF" d="M246.3,341.9c0,3.8,3.1,6.9,6.9,6.9s6.9-3.1,6.9-6.9s-3.1-6.9-6.9-6.9S246.3,338.2,246.3,341.9z
		 M270.6,359.2v21c0,1.7-1.3,3-3,3s-3-1.4-3-3v-19.3c0-0.5-0.4-0.9-0.9-0.9s-0.9,0.4-0.9,0.9V413c0,2.6-1.9,4.7-4.3,4.7
		c-2.4,0-4.3-2.1-4.3-4.7v-29.7c0-0.5-0.4-0.9-0.9-0.9c-0.5,0-0.9,0.4-0.9,0.9V413c0,2.6-1.9,4.7-4.3,4.7c-2.4,0-4.3-2.1-4.3-4.7
		v-52.1c0-0.5-0.4-0.9-0.9-0.9s-0.9,0.4-0.9,0.9v19.3c0,1.7-1.3,3-3,3c-1.7,0-3-1.4-3-3v-21c0-4.8,3.8-8.6,8.6-8.6h17.2
		C266.5,350.6,270.4,354.4,270.6,359.2z"/>
	<path fill="#AEA5BF" d="M294.4,341.9c0,3.8,3.1,6.9,6.9,6.9s6.9-3.1,6.9-6.9s-3.1-6.9-6.9-6.9S294.4,338.2,294.4,341.9z
		 M318.7,359.2v21c0,1.7-1.3,3-3,3c-1.7,0-3-1.4-3-3v-19.3c0-0.5-0.4-0.9-0.9-0.9c-0.5,0-0.9,0.4-0.9,0.9V413c0,2.6-1.9,4.7-4.3,4.7
		s-4.3-2.1-4.3-4.7v-29.7c0-0.5-0.4-0.9-0.9-0.9c-0.5,0-0.9,0.4-0.9,0.9V413c0,2.6-1.9,4.7-4.3,4.7s-4.3-2.1-4.3-4.7v-52.1
		c0-0.5-0.4-0.9-0.9-0.9c-0.5,0-0.9,0.4-0.9,0.9v19.3c0,1.7-1.3,3-3,3s-3-1.4-3-3v-21c0-4.8,3.8-8.6,8.6-8.6H310
		C314.6,350.6,318.5,354.4,318.7,359.2z"/>
	<path fill="#AEA5BF" d="M362.5,341.9c0,3.8,3.1,6.9,6.9,6.9s6.9-3.1,6.9-6.9s-3.1-6.9-6.9-6.9S362.5,338.2,362.5,341.9z
		 M386.8,359.2v21c0,1.7-1.3,3-3,3s-3-1.4-3-3v-19.3c0-0.5-0.4-0.9-0.9-0.9s-0.9,0.4-0.9,0.9V413c0,2.6-1.9,4.7-4.3,4.7
		c-2.4,0-4.3-2.1-4.3-4.7v-29.7c0-0.5-0.4-0.9-0.9-0.9c-0.5,0-0.9,0.4-0.9,0.9V413c0,2.6-1.9,4.7-4.3,4.7c-2.4,0-4.3-2.1-4.3-4.7
		v-52.1c0-0.5-0.4-0.9-0.9-0.9c-0.5,0-0.9,0.4-0.9,0.9v19.3c0,1.7-1.3,3-3,3c-1.7,0-3-1.4-3-3v-21c0-4.8,3.8-8.6,8.6-8.6h17.2
		C382.7,350.6,386.7,354.4,386.8,359.2z"/>
	<path fill="#AEA5BF" d="M410.6,341.9c0,3.8,3.1,6.9,6.9,6.9s6.9-3.1,6.9-6.9s-3.1-6.9-6.9-6.9S410.6,338.2,410.6,341.9z
		 M434.9,359.2v21c0,1.7-1.3,3-3,3c-1.7,0-3-1.4-3-3v-19.3c0-0.5-0.4-0.9-0.9-0.9c-0.5,0-0.9,0.4-0.9,0.9V413c0,2.6-1.9,4.7-4.3,4.7
		s-4.3-2.1-4.3-4.7v-29.7c0-0.5-0.4-0.9-0.9-0.9c-0.5,0-0.9,0.4-0.9,0.9V413c0,2.6-1.9,4.7-4.3,4.7s-4.3-2.1-4.3-4.7v-52.1
		c0-0.5-0.4-0.9-0.9-0.9c-0.5,0-0.9,0.4-0.9,0.9v19.3c0,1.7-1.3,3-3,3s-3-1.4-3-3v-21c0-4.8,3.8-8.6,8.6-8.6h17.2
		C430.8,350.6,434.8,354.4,434.9,359.2z"/>
	<path fill="#AEA5BF" d="M458.7,341.9c0,3.8,3.1,6.9,6.9,6.9s6.9-3.1,6.9-6.9s-3.1-6.9-6.9-6.9S458.7,338.2,458.7,341.9z M483,359.2
		v21c0,1.7-1.3,3-3,3s-3-1.4-3-3v-19.3c0-0.5-0.4-0.9-0.9-0.9s-0.9,0.4-0.9,0.9V413c0,2.6-1.9,4.7-4.3,4.7c-2.4,0-4.3-2.1-4.3-4.7
		v-29.7c0-0.5-0.4-0.9-0.9-0.9c-0.5,0-0.9,0.4-0.9,0.9V413c0,2.6-1.9,4.7-4.3,4.7c-2.4,0-4.3-2.1-4.3-4.7v-52.1
		c0-0.5-0.4-0.9-0.9-0.9c-0.5,0-0.9,0.4-0.9,0.9v19.3c0,1.7-1.3,3-3,3c-1.7,0-3-1.4-3-3v-21c0-4.8,3.8-8.6,8.6-8.6h17.2
		C478.9,350.6,482.9,354.4,483,359.2z"/>
	<path fill="#AEA5BF" d="M506.8,341.9c0,3.8,3.1,6.9,6.9,6.9s6.9-3.1,6.9-6.9s-3.1-6.9-6.9-6.9S506.8,338.2,506.8,341.9z
		 M531.1,359.2v21c0,1.7-1.3,3-3,3s-3-1.4-3-3v-19.3c0-0.5-0.4-0.9-0.9-0.9c-0.5,0-0.9,0.4-0.9,0.9V413c0,2.6-1.9,4.7-4.3,4.7
		s-4.3-2.1-4.3-4.7v-29.7c0-0.5-0.4-0.9-0.9-0.9c-0.5,0-0.9,0.4-0.9,0.9V413c0,2.6-1.9,4.7-4.3,4.7s-4.3-2.1-4.3-4.7v-52.1
		c0-0.5-0.4-0.9-0.9-0.9c-0.5,0-0.9,0.4-0.9,0.9v19.3c0,1.7-1.3,3-3,3c-1.7,0-3-1.4-3-3v-21c0-4.8,3.8-8.6,8.6-8.6h17.2
		C527,350.6,531,354.4,531.1,359.2z"/>
	<path fill="#AEA5BF" d="M554.9,341.9c0,3.8,3.1,6.9,6.9,6.9s6.9-3.1,6.9-6.9s-3.1-6.9-6.9-6.9S554.9,338.2,554.9,341.9z
		 M579.2,359.2v21c0,1.7-1.3,3-3,3s-3-1.4-3-3v-19.3c0-0.5-0.4-0.9-0.9-0.9s-0.9,0.4-0.9,0.9V413c0,2.6-1.9,4.7-4.3,4.7
		s-4.3-2.1-4.3-4.7v-29.7c0-0.5-0.4-0.9-0.9-0.9c-0.5,0-0.9,0.4-0.9,0.9V413c0,2.6-1.9,4.7-4.3,4.7s-4.3-2.1-4.3-4.7v-52.1
		c0-0.5-0.4-0.9-0.9-0.9s-0.9,0.4-0.9,0.9v19.3c0,1.7-1.3,3-3,3s-3-1.4-3-3v-21c0-4.8,3.8-8.6,8.6-8.6h17.2
		C575.1,350.6,579.1,354.4,579.2,359.2z"/>
	<path fill="#AEA5BF" d="M623.8,341.9c0,3.8,3.1,6.9,6.9,6.9s6.9-3.1,6.9-6.9s-3.1-6.9-6.9-6.9S623.8,338.2,623.8,341.9z
		 M648.1,359.2v21c0,1.7-1.3,3-3,3s-3-1.4-3-3v-19.3c0-0.5-0.4-0.9-0.9-0.9c-0.5,0-0.9,0.4-0.9,0.9V413c0,2.6-1.9,4.7-4.3,4.7
		s-4.3-2.1-4.3-4.7v-29.7c0-0.5-0.4-0.9-0.9-0.9s-0.9,0.4-0.9,0.9V413c0,2.6-1.9,4.7-4.3,4.7s-4.3-2.1-4.3-4.7v-52.1
		c0-0.5-0.4-0.9-0.9-0.9c-0.5,0-0.9,0.4-0.9,0.9v19.3c0,1.7-1.3,3-3,3c-1.7,0-3-1.4-3-3v-21c0-4.8,3.8-8.6,8.6-8.6h17.2
		C644,350.6,647.9,354.4,648.1,359.2z"/>
	<path fill="#AEA5BF" d="M671.9,341.9c0,3.8,3.1,6.9,6.9,6.9s6.9-3.1,6.9-6.9s-3.1-6.9-6.9-6.9S671.9,338.2,671.9,341.9z
		 M696.2,359.2v21c0,1.7-1.3,3-3,3s-3-1.4-3-3v-19.3c0-0.5-0.4-0.9-0.9-0.9s-0.9,0.4-0.9,0.9V413c0,2.6-1.9,4.7-4.3,4.7
		s-4.3-2.1-4.3-4.7v-29.7c0-0.5-0.4-0.9-0.9-0.9c-0.5,0-0.9,0.4-0.9,0.9V413c0,2.6-1.9,4.7-4.3,4.7c-2.4,0-4.3-2.1-4.3-4.7v-52.1
		c0-0.5-0.4-0.9-0.9-0.9s-0.9,0.4-0.9,0.9v19.3c0,1.7-1.3,3-3,3s-3-1.4-3-3v-21c0-4.8,3.8-8.6,8.6-8.6h17.2
		C692.1,350.6,696,354.4,696.2,359.2z"/>
	<path fill="#AEA5BF" d="M720,341.9c0,3.8,3.1,6.9,6.9,6.9s6.9-3.1,6.9-6.9s-3.1-6.9-6.9-6.9S720,338.2,720,341.9z M744.3,359.2v21
		c0,1.7-1.3,3-3,3s-3-1.4-3-3v-19.3c0-0.5-0.4-0.9-0.9-0.9c-0.5,0-0.9,0.4-0.9,0.9V413c0,2.6-1.9,4.7-4.3,4.7
		c-2.4,0-4.3-2.1-4.3-4.7v-29.7c0-0.5-0.4-0.9-0.9-0.9c-0.5,0-0.9,0.4-0.9,0.9V413c0,2.6-1.9,4.7-4.3,4.7s-4.3-2.1-4.3-4.7v-52.1
		c0-0.5-0.4-0.9-0.9-0.9s-0.9,0.4-0.9,0.9v19.3c0,1.7-1.3,3-3,3s-3-1.4-3-3v-21c0-4.8,3.8-8.6,8.6-8.6h17.2
		C740.2,350.6,744.1,354.4,744.3,359.2z"/>
	<path fill="#AEA5BF" d="M768.1,341.9c0,3.8,3.1,6.9,6.9,6.9s6.9-3.1,6.9-6.9s-3.1-6.9-6.9-6.9C771.2,335.1,768.1,338.2,768.1,341.9
		z M792.4,359.2v21c0,1.7-1.3,3-3,3c-1.7,0-3-1.4-3-3v-19.3c0-0.5-0.4-0.9-0.9-0.9c-0.5,0-0.9,0.4-0.9,0.9V413
		c0,2.6-1.9,4.7-4.3,4.7s-4.3-2.1-4.3-4.7v-29.7c0-0.5-0.4-0.9-0.9-0.9s-0.9,0.4-0.9,0.9V413c0,2.6-1.9,4.7-4.3,4.7
		s-4.3-2.1-4.3-4.7v-52.1c0-0.5-0.4-0.9-0.9-0.9c-0.5,0-0.9,0.4-0.9,0.9v19.3c0,1.7-1.3,3-3,3s-3-1.4-3-3v-21c0-4.8,3.8-8.6,8.6-8.6
		h17.2C788.3,350.6,792.2,354.4,792.4,359.2z"/>
	<path fill="#AEA5BF" d="M816.2,341.9c0,3.8,3.1,6.9,6.9,6.9s6.9-3.1,6.9-6.9s-3.1-6.9-6.9-6.9S816.2,338.2,816.2,341.9z
		 M840.5,359.2v21c0,1.7-1.3,3-3,3s-3-1.4-3-3v-19.3c0-0.5-0.4-0.9-0.9-0.9c-0.5,0-0.9,0.4-0.9,0.9V413c0,2.6-1.9,4.7-4.3,4.7
		s-4.3-2.1-4.3-4.7v-29.7c0-0.5-0.4-0.9-0.9-0.9s-0.9,0.4-0.9,0.9V413c0,2.6-1.9,4.7-4.3,4.7s-4.3-2.1-4.3-4.7v-52.1
		c0-0.5-0.4-0.9-0.9-0.9c-0.5,0-0.9,0.4-0.9,0.9v19.3c0,1.7-1.3,3-3,3c-1.7,0-3-1.4-3-3v-21c0-4.8,3.8-8.6,8.6-8.6h17.2
		C836.4,350.6,840.4,354.4,840.5,359.2z"/>
	<g>
		<text transform="matrix(1 0 0 1 2.1191 391.856)" fill="#9C96AD" font-family="'RobotoCondensed-Regular'" font-size="26px">10</text>
	</g>
	<g>
		<text transform="matrix(1 0 0 1 29.0156 377.231)" fill="#9C96AD" font-family="'RobotoCondensed-Regular'" font-size="16px">6</text>
	</g>
	<g>
		<text transform="matrix(1 0 0 1 41.3611 392.0146)" fill="#9C96AD" font-family="'RobotoCondensed-Regular'" font-size="26px">x</text>
	</g>
	<text transform="matrix(1 0 0 1 1.4344 354.269)" fill="#D1CDC9" font-family="'RobotoCondensed-Regular'" font-size="26px">2020</text>
</g>
<g id="Layer_2">
</g>
<g id="Layer_3">
</g>
</svg>
