<svg enable-background="new 0 0 256 185" height="185" viewBox="0 0 256 185" width="256" xmlns="http://www.w3.org/2000/svg"><path d="m37.447 32.171c8.319 0 15.093-6.773 15.093-15.093 0-8.319-6.773-15.093-15.093-15.093-8.319 0-15.093 6.773-15.093 15.093.001 8.32 6.774 15.093 15.093 15.093zm35.383 48.444v-25.006c-.286-10.143-8.643-18.286-18.571-18.286h-33.973c-10.143 0-18.286 8.142-18.286 18.286v25.006zm-35.367 53.956c8.319 0 15.093-6.773 15.093-15.093 0-8.319-6.773-15.093-15.093-15.093-8.319 0-15.093 6.773-15.093 15.093s6.773 15.093 15.093 15.093zm35.367 48.444v-25.006c-.286-10.143-8.643-18.286-18.571-18.286h-33.973c-10.143 0-18.286 8.142-18.286 18.286v25.006zm55.201-150.844c8.319 0 15.093-6.773 15.093-15.093 0-8.319-6.773-15.093-15.093-15.093-8.319 0-15.093 6.773-15.093 15.093s6.774 15.093 15.093 15.093zm35.384 48.444v-25.006c-.286-10.143-8.643-18.286-18.571-18.286h-33.973c-10.143 0-18.286 8.143-18.286 18.286v25.006c-.001 0 70.83 0 70.83 0zm55.202-48.444c8.319 0 15.093-6.773 15.093-15.093 0-8.319-6.773-15.093-15.093-15.093-8.319 0-15.093 6.773-15.093 15.093s6.773 15.093 15.093 15.093zm35.383 48.444v-25.006c-.287-10.143-8.644-18.286-18.572-18.286h-33.973c-10.143 0-18.286 8.143-18.286 18.286v25.006zm-125.969 30.986c4.343 0 7.877 3.534 7.877 7.877s-3.534 7.877-7.877 7.877-7.877-3.534-7.877-7.877 3.533-7.877 7.877-7.877m0-7.877c-8.684 0-15.754 7.07-15.754 15.754s7.07 15.754 15.754 15.754c8.683 0 15.754-7.07 15.754-15.754-.001-8.683-7.07-15.754-15.754-15.754zm16.813 43.875c5.702 0 10.48 4.717 10.695 10.535v17.003h-55.077v-17.129c0-5.837 4.573-10.409 10.409-10.409zm0-7.876h-33.973c-10.143 0-18.286 8.143-18.286 18.286v25.006h70.83v-25.006c-.286-10.144-8.643-18.286-18.571-18.286zm73.773-28.122c4.343 0 7.877 3.534 7.877 7.877s-3.534 7.877-7.877 7.877-7.877-3.534-7.877-7.877 3.534-7.877 7.877-7.877m0-7.877c-8.684 0-15.754 7.07-15.754 15.754s7.07 15.754 15.754 15.754 15.754-7.07 15.754-15.754c0-8.683-7.071-15.754-15.754-15.754zm16.811 43.875c5.702 0 10.48 4.717 10.695 10.534v17.003h-55.077v-17.129c0-5.837 4.573-10.409 10.409-10.409zm0-7.876h-33.973c-10.143 0-18.286 8.143-18.286 18.286v25.006h70.831v-25.006c-.287-10.144-8.644-18.286-18.572-18.286z"/></svg>