<svg height="340" viewBox="0 0 650 340" width="650" xmlns="http://www.w3.org/2000/svg"><path d="m59.9 24.7v20.3h583.8" fill="none" stroke="#c4c0c0" stroke-width="1.91"/><path d="m60.3 43.4v-18.7" fill="none" stroke="#c4c0c0" stroke-width="2.46"/><text fill="#a3a2a2" font-family="Roboto Mono" font-size="14" transform="translate(134.2 16.2)">jan</text><path d="m145.8 43.4v-18.7" fill="none" stroke="#c4c0c0" stroke-width="1.69"/><text fill="#a3a2a2" font-family="Roboto Mono" font-size="14" transform="translate(208.2 16.2)">feb</text><path d="m220.8 43.4v-18.7" fill="none" stroke="#c4c0c0" stroke-width="1.69"/><text fill="#a3a2a2" font-family="Roboto Mono" font-size="14" transform="translate(283.3 16.2)">mar</text><path d="m295.9 43.4v-18.7" fill="none" stroke="#c4c0c0" stroke-width="1.69"/><text fill="#a3a2a2" font-family="Roboto Mono" font-size="14" transform="translate(358.4 16.2)">apr</text><path d="m371 43.4v-18.7" fill="none" stroke="#c4c0c0" stroke-width="1.69"/><text fill="#a3a2a2" font-family="Roboto Mono" font-size="14" transform="translate(433.5 16.2)">may</text><path d="m446.1 43.4v-18.7" fill="none" stroke="#c4c0c0" stroke-width="1.69"/><text fill="#a3a2a2" font-family="Roboto Mono" font-size="14" transform="translate(508.5 16.2)">jun</text><path d="m521.1 43.4v-18.7" fill="none" stroke="#c4c0c0" stroke-width="1.69"/><path d="m595.9 43.4v-18.7" fill="none" stroke="#c4c0c0" stroke-width="1.69"/><text fill="#a3a2a2" font-family="Roboto Mono" font-size="14" transform="translate(583.3 16.2)">jul</text><path d="m40 332.3h20.3v-287.3h-20.3" fill="none" stroke="#c4c0c0" stroke-width="1.7"/><text fill="#adadad" font-family="Roboto Mono" font-size="16" transform="translate(5 319.2)">2014</text><text fill="#adadad" font-family="Roboto Mono" font-size="16" transform="translate(5 250.7)">2015</text><text fill="#adadad" font-family="Roboto Mono" font-size="16" transform="translate(5 182.2)">2016</text><text fill="#adadad" font-family="Roboto Mono" font-size="16" transform="translate(5 113.8)">2017</text><path d="m59 111.9h584.7" fill="none" stroke="#c4c0c0" stroke-width="1.89"/><path d="m59 180.4h584.7" fill="none" stroke="#c4c0c0" stroke-width="1.89"/><path d="m59 248.8h584.7" fill="none" stroke="#c4c0c0" stroke-width="1.89"/><path d="m59 317.3h584.7" fill="none" stroke="#c4c0c0" stroke-width="1.89"/><g fill-opacity=".7" stroke="#333"><path d="m143.8 110.8a19.2 19.2 0 0 1 0-38.3" fill="#ccc" stroke-width=".41"/><path d="m145.2 57.3a26.8 26.8 0 0 1 .5 53.5" fill="#949494" stroke-width=".55"/><path d="m294.9 110.8a19.2 19.2 0 0 1 0-38.3" fill="#ccc" stroke-width=".41"/><path d="m296.5 84.8a13.1 13.1 0 0 1 .2 26.1" fill="#949494" stroke-width=".27"/><path d="m594.5 110.8a19.2 19.2 0 0 1 0-38.3" fill="#ccc" stroke-width=".41"/><path d="m596 67.4a21.7 21.7 0 0 1 .4 43.4" fill="#949494" stroke-width=".45"/><path d="m370.9 110.8a23.5 23.5 0 0 1 0-46.8" fill="#ccc" stroke-width=".5"/><path d="m372.3 57.3a26.8 26.8 0 0 1 .5 53.5" fill="#949494" stroke-width=".55"/><path d="m219.1 110.9a29.9 29.9 0 0 1 0-59.7" fill="#d9d9d9" stroke-width=".65"/><path d="m220.8 57.3a26.8 26.8 0 0 1 0 53.4" fill="#949494" stroke-width=".5"/><path d="m445.3 110.9a29.9 29.9 0 0 1 0-59.7" fill="#d9d9d9" stroke-width=".65"/><path d="m447 51.2a29.8 29.8 0 0 1 0 59.5" fill="#949494" stroke-width=".55"/><path d="m520.3 110.9a6.3 6.3 0 0 1 0-12.6" fill="#d9d9d9" stroke-width=".14"/><path d="m522 51.2a29.8 29.8 0 0 1 0 59.5" fill="#949494" stroke-width=".55"/><path d="m143.8 248.7a14.9 14.9 0 0 1 0-29.8" fill="#ccc" stroke-width=".31"/><path d="m145.4 222.7a13 13 0 0 1 .2 26" fill="#949494" stroke-width=".27"/><path d="m294.9 248.7a19.2 19.2 0 0 1 0-38.3" fill="#ccc" stroke-width=".41"/><path d="m296.3 206.2a21.3 21.3 0 0 1 .4 42.6" fill="#949494" stroke-width=".44"/><path d="m594.5 248.7a29.3 29.3 0 0 1 0-58.5" fill="#ccc" stroke-width=".62"/><path d="m595.9 197.1a25.9 25.9 0 0 1 .4 51.7" fill="#949494" stroke-width=".53"/><path d="m370.9 248.7a20.8 20.8 0 0 1 0-41.5" fill="#ccc" stroke-width=".44"/><path d="m372.3 209.7a19.6 19.6 0 0 1 .3 39.1" fill="#949494" stroke-width=".4"/><path d="m219.1 248.8a15 15 0 0 1 0-29.8" fill="#d9d9d9" stroke-width=".32"/><path d="m220.8 210.4a19.2 19.2 0 0 1 0 38.2" fill="#949494" stroke-width=".35"/><path d="m445.3 248.8a19.3 19.3 0 0 1 0-38.5" fill="#d9d9d9" stroke-width=".42"/><path d="m447 205.8a21.5 21.5 0 0 1 0 42.8" fill="#949494" stroke-width=".4"/><path d="m522 212.7a18 18 0 0 1 0 35.9" fill="#949494" stroke-width=".33"/><path d="m143.8 179.5a29.8 29.8 0 0 1 0-59.5" fill="#ccc" stroke-width=".63"/><path d="m145.2 126a26.8 26.8 0 0 1 .5 53.5" fill="#949494" stroke-width=".55"/><path d="m294.9 179.5a19.2 19.2 0 0 1 0-38.3" fill="#ccc" stroke-width=".41"/><path d="m296.4 144.6a17.5 17.5 0 0 1 .3 35" fill="#949494" stroke-width=".36"/><path d="m594.5 179.5a26.1 26.1 0 0 1 0-52" fill="#ccc" stroke-width=".55"/><path d="m596.1 145.7a17 17 0 0 1 .3 33.8" fill="#949494" stroke-width=".35"/><path d="m370.9 179.5a25.9 25.9 0 0 1 0-51.7" fill="#ccc" stroke-width=".55"/><path d="m372.3 145.7a16.9 16.9 0 0 1 .3 33.8" fill="#949494" stroke-width=".35"/><path d="m219.1 179.6a15 15 0 0 1 0-29.8" fill="#d9d9d9" stroke-width=".32"/><path d="m220.8 132.6a23.4 23.4 0 0 1 0 46.8" fill="#949494" stroke-width=".43"/><path d="m445.3 179.6a29.9 29.9 0 0 1 0-59.7" fill="#d9d9d9" stroke-width=".65"/><path d="m447 127a26.3 26.3 0 0 1 0 52.5" fill="#949494" stroke-width=".49"/><path d="m520.3 179.6a23.6 23.6 0 0 1 0-47" fill="#d9d9d9" stroke-width=".51"/><path d="m520.3 248.6a23.6 23.6 0 0 1 0-47" fill="#d9d9d9" stroke-width=".51"/><path d="m522 127a26.3 26.3 0 0 1 0 52.5" fill="#949494" stroke-width=".49"/><path d="m143.8 317.2a18.5 18.5 0 0 1 0-36.9" fill="#ccc" stroke-width=".39"/><path d="m145.2 267.2a25.1 25.1 0 0 1 .4 50" fill="#949494" stroke-width=".52"/><path d="m294.9 317.2a27.5 27.5 0 0 1 0-54.9" fill="#ccc" stroke-width=".58"/><path d="m296.5 297a10.1 10.1 0 0 1 .2 20.2" fill="#949494" stroke-width=".21"/><path d="m594.5 317.2a15.9 15.9 0 0 1 0-31.8" fill="#ccc" stroke-width=".34"/><path d="m595.9 268.8a24.3 24.3 0 0 1 .4 48.4" fill="#949494" stroke-width=".5"/><path d="m370.9 317.2a17.6 17.6 0 0 1 0-35.2" fill="#ccc" stroke-width=".37"/><path d="m372.2 275.3a21 21 0 0 1 .4 41.9" fill="#949494" stroke-width=".43"/><path d="m219.1 317.3a19.3 19.3 0 0 1 0-38.4" fill="#d9d9d9" stroke-width=".42"/><path d="m220.8 287.6a14.8 14.8 0 0 1 0 29.6" fill="#949494" stroke-width=".27"/><path d="m445.3 317.3a19.3 19.3 0 0 1 0-38.5" fill="#d9d9d9" stroke-width=".42"/><path d="m447 264.7a26.3 26.3 0 0 1 0 52.5" fill="#949494" stroke-width=".49"/><path d="m520.3 317.3a11.8 11.8 0 0 1 0-23.5" fill="#d9d9d9" stroke-width=".26"/><path d="m522 264.7a26.3 26.3 0 0 1 0 52.5" fill="#949494" stroke-width=".49"/></g></svg>