<?xml version="1.0" encoding="utf-8"?>
<!-- Generator: Adobe Illustrator 24.0.1, SVG Export Plug-In . SVG Version: 6.00 Build 0)  -->
<svg version="1.1" id="Layer_1" xmlns="http://www.w3.org/2000/svg" xmlns:xlink="http://www.w3.org/1999/xlink" x="0px" y="0px"
	 viewBox="0 0 1268 418" style="enable-background:new 0 0 1268 418;" xml:space="preserve">
<style type="text/css">
	.st0{fill:none;stroke:#C4C0C0;stroke-width:2.3839;}
	.st1{fill:none;stroke:#C4C0C0;stroke-width:3.0704;}
	.st2{fill:#A3A2A2;}
	.st3{font-family:'RobotoMono-Regular';}
	.st4{font-size:17.4736px;}
	.st5{fill:none;stroke:#C4C0C0;stroke-width:2.1093;}
	.st6{fill:none;stroke:#C4C0C0;stroke-width:2.1218;}
	.st7{fill:#ADADAD;}
	.st8{font-size:19.9698px;}
	.st9{fill:none;stroke:#C4C0C0;stroke-width:2.3589;}
	.st10{fill:#C4C5D1;fill-opacity:0.7;stroke:#333333;stroke-width:0.5117;}
	.st11{fill:#A39CB9;fill-opacity:0.7;stroke:#333333;stroke-width:0.6865;}
	.st12{fill:#A39CB9;fill-opacity:0.7;stroke:#333333;stroke-width:0.337;}
	.st13{fill:#A39CB9;fill-opacity:0.7;stroke:#333333;stroke-width:0.5617;}
	.st14{fill:#C4C5D1;fill-opacity:0.7;stroke:#333333;stroke-width:0.6241;}
	.st15{fill:#D9D9D9;fill-opacity:0.7;stroke:#333333;stroke-width:0.8113;}
	.st16{fill:#A39CB9;fill-opacity:0.7;stroke:#333333;stroke-width:0.6241;}
	.st17{fill:#D9D9D9;fill-opacity:0.7;stroke:#333333;stroke-width:0.1747;}
	.st18{fill:#C4C5D1;fill-opacity:0.7;stroke:#333333;stroke-width:0.3869;}
	.st19{fill:#A39CB9;fill-opacity:0.7;stroke:#333333;stroke-width:0.5492;}
	.st20{fill:#C4C5D1;fill-opacity:0.7;stroke:#333333;stroke-width:0.7738;}
	.st21{fill:#A39CB9;fill-opacity:0.7;stroke:#333333;stroke-width:0.6615;}
	.st22{fill:#C4C5D1;fill-opacity:0.7;stroke:#333333;stroke-width:0.5492;}
	.st23{fill:#A39CB9;fill-opacity:0.7;stroke:#333333;stroke-width:0.4992;}
	.st24{fill:#D9D9D9;fill-opacity:0.7;stroke:#333333;stroke-width:0.3994;}
	.st25{fill:#A39CB9;fill-opacity:0.7;stroke:#333333;stroke-width:0.4368;}
	.st26{fill:#D9D9D9;fill-opacity:0.7;stroke:#333333;stroke-width:0.5242;}
	.st27{fill:#A39CB9;fill-opacity:0.7;stroke:#333333;stroke-width:0.4119;}
	.st28{fill:#C4C5D1;fill-opacity:0.7;stroke:#333333;stroke-width:0.7863;}
	.st29{fill:#A39CB9;fill-opacity:0.7;stroke:#333333;stroke-width:0.4493;}
	.st30{fill:#C4C5D1;fill-opacity:0.7;stroke:#333333;stroke-width:0.6865;}
	.st31{fill:#A39CB9;fill-opacity:0.7;stroke:#333333;stroke-width:0.5367;}
	.st32{fill:#A39CB9;fill-opacity:0.7;stroke:#333333;stroke-width:0.6116;}
	.st33{fill:#D9D9D9;fill-opacity:0.7;stroke:#333333;stroke-width:0.6365;}
	.st34{fill:#C4C5D1;fill-opacity:0.7;stroke:#333333;stroke-width:0.4868;}
	.st35{fill:#A39CB9;fill-opacity:0.7;stroke:#333333;stroke-width:0.649;}
	.st36{fill:#C4C5D1;fill-opacity:0.7;stroke:#333333;stroke-width:0.7239;}
	.st37{fill:#A39CB9;fill-opacity:0.7;stroke:#333333;stroke-width:0.2621;}
	.st38{fill:#C4C5D1;fill-opacity:0.7;stroke:#333333;stroke-width:0.4244;}
	.st39{fill:#C4C5D1;fill-opacity:0.7;stroke:#333333;stroke-width:0.4618;}
	.st40{fill:#D9D9D9;fill-opacity:0.7;stroke:#333333;stroke-width:0.3245;}
</style>
<path class="st0" d="M303.3,29.1v25.3h728.6"/>
<path class="st1" d="M303.8,52.4V29.1"/>
<text transform="matrix(1 0 0 1 396.021 18.4717)" class="st2 st3 st4">jan</text>
<path class="st5" d="M410.5,52.4V29.1"/>
<text transform="matrix(1 0 0 1 488.3813 18.4717)" class="st2 st3 st4">feb</text>
<path class="st5" d="M504.1,52.4V29.1"/>
<text transform="matrix(1 0 0 1 582.1147 18.4717)" class="st2 st3 st4">mar</text>
<path class="st5" d="M597.8,52.4V29.1"/>
<text transform="matrix(1 0 0 1 675.8477 18.4717)" class="st2 st3 st4">apr</text>
<path class="st5" d="M691.6,52.4V29.1"/>
<text transform="matrix(1 0 0 1 769.5811 18.4717)" class="st2 st3 st4">may</text>
<path class="st5" d="M785.3,52.4V29.1"/>
<text transform="matrix(1 0 0 1 863.1895 18.4717)" class="st2 st3 st4">jun</text>
<path class="st5" d="M878.9,52.4V29.1"/>
<path class="st5" d="M972.3,52.4V29.1"/>
<text transform="matrix(1 0 0 1 956.5488 18.4717)" class="st2 st3 st4">jul</text>
<path class="st6" d="M278.4,413h25.3V54.4h-25.3"/>
<text transform="matrix(1 0 0 1 234.7646 396.6504)" class="st7 st3 st8">2014</text>
<text transform="matrix(1 0 0 1 234.7646 311.1543)" class="st7 st3 st8">2015</text>
<text transform="matrix(1 0 0 1 234.7646 225.6582)" class="st7 st3 st8">2016</text>
<text transform="matrix(1 0 0 1 234.7646 140.2871)" class="st7 st3 st8">2017</text>
<path class="st9" d="M302.2,137.9h729.8"/>
<path class="st9" d="M302.2,223.4h729.8"/>
<path class="st9" d="M302.2,308.8h729.8"/>
<path class="st9" d="M302.2,394.3h729.8"/>
<g>
	<path class="st10" d="M408,136.5c-13.2-1-23.1-12.4-22.2-25.6c0.9-11.9,10.3-21.3,22.2-22.2"/>
	<path class="st11" d="M409.8,69.8c18.4,0.9,32.6,16.7,31.7,35.1c-0.9,16.9-14.2,30.5-31.1,31.7"/>
	<path class="st10" d="M596.6,136.5c-13.2-1-23.1-12.4-22.2-25.6c0.9-11.9,10.3-21.3,22.2-22.2"/>
	<path class="st12" d="M598.6,104.1c9,0.7,15.7,8.6,15,17.6c-0.6,7.9-6.9,14.2-14.8,15"/>
	<path class="st10" d="M970.5,136.5c-13.2-1-23.1-12.4-22.2-25.6c0.9-11.9,10.3-21.3,22.2-22.2"/>
	<path class="st13" d="M972.4,82.4c15-0.1,27.2,11.9,27.3,26.8c0.1,15-11.9,27.2-26.8,27.3l0,0"/>
	<path class="st14" d="M691.4,136.5c-16.1-1.5-28-15.8-26.5-31.9c1.3-14.1,12.4-25.2,26.5-26.5"/>
	<path class="st11" d="M693.2,69.8c18.4,0.9,32.6,16.7,31.7,35.1c-0.9,16.9-14.2,30.5-31.1,31.7"/>
	<path class="st15" d="M502,136.7c-20.6-1.2-36.3-18.8-35.1-39.4c1.1-18.9,16.2-34,35.1-35.1"/>
	<path class="st16" d="M504.1,69.8c18.4,1.6,32,17.8,30.4,36.2c-1.4,16.2-14.2,29-30.4,30.4"/>
	<path class="st15" d="M784.3,136.7c-20.6-1.2-36.3-18.8-35.1-39.4c1.1-18.9,16.2-34,35.1-35.1"/>
	<path class="st11" d="M786.4,62.2c20.5,1.2,36.2,18.8,35,39.3c-1.1,18.8-16.1,33.9-35,35"/>
	<path class="st17" d="M877.9,136.7c-4.3,0-7.9-3.5-7.9-7.9c0-4.3,3.5-7.9,7.9-7.9"/>
	<path class="st11" d="M880,62.2c20.5,1.2,36.2,18.8,35,39.3c-1.1,18.8-16.1,33.9-35,35"/>
	<path class="st18" d="M408,308.7c-10.3,0-18.6-8.3-18.6-18.6c0-10.3,8.3-18.6,18.6-18.6"/>
	<path class="st12" d="M410,276.2c9-0.1,16.3,7.1,16.4,16.1c0.1,9-7.1,16.3-16.1,16.4"/>
	<path class="st10" d="M596.6,308.7c-13.2-1-23.1-12.4-22.2-25.6c0.9-11.9,10.3-21.3,22.2-22.2"/>
	<path class="st19" d="M598.3,255.6c14.7-0.1,26.7,11.7,26.8,26.3c0.1,14.7-11.7,26.7-26.3,26.8"/>
	<path class="st20" d="M970.5,308.7c-20.2-1.2-35.6-18.5-34.4-38.6c1.1-18.5,15.9-33.3,34.4-34.4"/>
	<path class="st21" d="M972.3,244.3c17.8,1,31.5,16.2,30.5,34c-0.9,16.3-13.8,29.4-30,30.5"/>
	<path class="st22" d="M691.4,308.7c-14.3-1-25.1-13.4-24.1-27.7c0.9-12.9,11.2-23.2,24.1-24.1"/>
	<path class="st23" d="M693.2,260c13.5,0.9,23.7,12.5,22.9,26c-0.8,12.1-10.4,21.9-22.5,22.8"/>
	<path class="st24" d="M502,308.8c-10.3-1.2-17.6-10.5-16.4-20.8c1-8.6,7.8-15.4,16.4-16.4"/>
	<path class="st25" d="M504.1,260.9c13.2,1.3,22.7,13.1,21.4,26.3c-1.2,11.3-10.1,20.2-21.4,21.4"/>
	<path class="st26" d="M784.3,308.8c-13.3-1-23.3-12.5-22.3-25.8c0.9-11.9,10.4-21.4,22.3-22.3"/>
	<path class="st23" d="M786.4,255.1c14.8,1.4,25.6,14.5,24.1,29.3c-1.2,12.8-11.3,22.9-24.1,24.1"/>
	<path class="st27" d="M880,263.7c12.4,0.9,21.7,11.7,20.7,24.1c-0.8,11.1-9.6,19.9-20.7,20.7"/>
	<path class="st28" d="M408,222.3c-20.5-1.2-36.2-18.8-35-39.3c1.1-18.8,16.1-33.9,35-35"/>
	<path class="st11" d="M409.8,155.5c18.4,0.9,32.6,16.7,31.7,35.1c-0.9,16.9-14.2,30.5-31.1,31.7"/>
	<path class="st10" d="M596.6,222.3c-13.2-1-23.1-12.4-22.2-25.6c0.9-11.9,10.3-21.3,22.2-22.2"/>
	<path class="st29" d="M598.5,178.7c12.1-0.1,21.9,9.6,22,21.7c0.1,12.1-9.6,21.9-21.7,22"/>
	<path class="st30" d="M970.5,222.3c-17.9-1.6-31.2-17.4-29.6-35.3c1.4-15.7,13.9-28.2,29.6-29.6"/>
	<path class="st25" d="M972.5,180.1c11.7,1.2,20.2,11.6,19,23.2c-1,9.9-8.7,17.8-18.6,19"/>
	<path class="st30" d="M691.4,222.3c-17.8-1.1-31.4-16.5-30.3-34.3c1-16.3,14-29.2,30.3-30.3"/>
	<path class="st25" d="M693.2,180.1c11.6-0.1,21.2,9.3,21.3,20.9c0.1,11.6-9.3,21.2-20.9,21.3"/>
	<path class="st24" d="M502,222.4c-10.3-1.2-17.6-10.5-16.4-20.8c1-8.6,7.8-15.4,16.4-16.4"/>
	<path class="st31" d="M504.1,163.8c16.1,0,29.2,13.1,29.2,29.2s-13.1,29.2-29.2,29.2"/>
	<path class="st15" d="M784.3,222.4c-20.6-1.2-36.3-18.8-35.1-39.4c1.1-18.9,16.2-34,35.1-35.1"/>
	<path class="st32" d="M786.4,156.8c18.1,1.1,31.9,16.7,30.7,34.8c-1,16.5-14.2,29.7-30.7,30.7"/>
	<path class="st33" d="M877.9,222.4c-16.2-1.5-28.1-15.8-26.6-32c1.3-14.1,12.5-25.3,26.6-26.6"/>
	<path class="st33" d="M877.9,308.5c-16.2-1.5-28.1-15.8-26.6-32c1.3-14.1,12.5-25.3,26.6-26.6"/>
	<path class="st32" d="M880,156.8c18.1,1.1,31.9,16.7,30.7,34.8c-1,16.5-14.2,29.7-30.7,30.7"/>
	<path class="st34" d="M408,394.2c-12.7-0.9-22.3-12-21.3-24.7c0.8-11.4,9.9-20.5,21.3-21.3"/>
	<path class="st35" d="M409.8,331.7c17.2,1.4,30.1,16.5,28.7,33.8c-1.2,15.1-13.1,27.2-28.2,28.6"/>
	<path class="st36" d="M596.6,394.2c-18.9-1.1-33.3-17.4-32.2-36.3c1-17.3,14.9-31.1,32.2-32.2"/>
	<path class="st37" d="M598.6,368.9c7-0.1,12.7,5.5,12.7,12.5c0.1,7-5.5,12.7-12.5,12.7"/>
	<path class="st38" d="M970.5,394.2c-11,0-19.8-8.9-19.8-19.9c0-10.9,8.9-19.8,19.8-19.8"/>
	<path class="st16" d="M972.3,333.7c16.7,1.4,29.1,16,27.7,32.7c-1.2,14.6-12.7,26.3-27.2,27.7"/>
	<path class="st39" d="M691.4,394.2c-12.1,0-22-9.8-22-22s9.8-22,22-22"/>
	<path class="st31" d="M693.1,341.9c14.5,0.9,25.5,13.3,24.6,27.7c-0.8,13.1-11.1,23.6-24.1,24.6"/>
	<path class="st26" d="M502,394.3c-13.2-1.4-22.9-13.2-21.5-26.4c1.2-11.4,10.1-20.4,21.5-21.5"/>
	<path class="st12" d="M504.1,357.2c10.2,0,18.5,8.3,18.5,18.5s-8.3,18.5-18.5,18.5"/>
	<path class="st26" d="M784.3,394.3c-13.3-1-23.3-12.5-22.3-25.8c0.9-11.9,10.4-21.4,22.3-22.3"/>
	<path class="st32" d="M786.4,328.6c18.1,1.1,31.9,16.7,30.7,34.8c-1,16.5-14.2,29.7-30.7,30.7"/>
	<path class="st40" d="M877.9,394.3c-8.1-0.7-14.1-7.9-13.3-16c0.7-7.1,6.2-12.7,13.3-13.3"/>
	<path class="st32" d="M880,328.6c18.1,1.1,31.9,16.7,30.7,34.8c-1,16.5-14.2,29.7-30.7,30.7"/>
</g>
</svg>
