<svg height="256" viewBox="0 0 256 256" width="256" xmlns="http://www.w3.org/2000/svg"><path d="m238.3 241.9v-100.3h-40.5v100.3h-16v-57.8h-40.3v57.8h-15.8v-44.3h-40.3v44.3h-15.8v-74.6h-40.3v74.6h-15.8v-240.2h-11.8v252h252v-11.8z"/><path d="m29.4 109.1h40.2v54.7h-40.2zm55.8 30.2h40.3v54.7h-40.3zm56.4 10.3h40.2v31h-40.2zm56.3-59.4h40.3v47.5h-40.3z" opacity=".5"/><path d="m29.4 2.1h40.3v103.4h-40.3zm55.8 85.4h40.3v48.2h-40.3zm56.4 25.7h40.3v32.8h-40.3zm56.4-43h40.3v16.4h-40.3z" opacity=".75"/></svg>