<svg height="256" viewBox="0 0 256 256" width="256" xmlns="http://www.w3.org/2000/svg"><path d="m254 20a16.3 16.3 0 0 1 -1.5 6.5 15 15 0 0 1 -4.5 4.9 30.7 30.7 0 0 1 -14.2 5.8c-5.9.9-11.5-1.1-17.2-2.2a34.3 34.3 0 0 0 -15.9.7 30.5 30.5 0 0 0 -5.1 1.7l-3.2 1.9a85.4 85.4 0 0 0 -7.8 5.6 44.6 44.6 0 0 0 -8 7 19.4 19.4 0 0 0 -3.4 4.7c-.6 1.5.3 2.6 1.7 3.3a22.6 22.6 0 0 1 5.4 3.2 8.3 8.3 0 0 1 3.1 5.3 24.2 24.2 0 0 1 .7 5.4c0 3.1-.2 8.7 3.4 10a10.2 10.2 0 0 0 4.6.4c2.4-.4 4.9-.6 7.3-.9a42.7 42.7 0 0 1 10.1-.1 51.2 51.2 0 0 1 7.7 2 38.1 38.1 0 0 1 12.6 7 26.6 26.6 0 0 1 5.7 5.9 31.4 31.4 0 0 1 2.8 6.8 17.5 17.5 0 0 1 .8 8.5 33.4 33.4 0 0 1 -1.7 7.6c-1.1 3-2.7 6.6-4.9 9a10.4 10.4 0 0 1 -3.2 2.3 4.2 4.2 0 0 1 -1.3.3 3.9 3.9 0 0 1 .3 1.3 24.1 24.1 0 0 1 -.8 2.5 6.9 6.9 0 0 1 -.7 1.5c-.9 1.7-2.3 2.6-3.8 3.7a17.1 17.1 0 0 1 -5.6 3.1c-2.2.7-4.3 1.6-6.4 2.1a38 38 0 0 1 -7.5.6 75.8 75.8 0 0 1 -8.3-.3 80.5 80.5 0 0 0 -8.4-.5c-6 0-18.2.5-16.6 9.5.5 2.6 1.5 5.5 4.1 6.8a16.9 16.9 0 0 0 4.4 1.2 6.7 6.7 0 0 0 2.8.2l2.5-.4 12.6-2.1c3.3-.4 7.2-.3 10.3 1.1s3.1 1.2 4.3 2.5a18.7 18.7 0 0 1 2 2.9c1.1 1.6 2 3.1 1.2 5.1s-2.6 4.7-3.8 7.1a29.7 29.7 0 0 1 -3.6 5.6c-1.4 1.5-2.6 3.2-4 4.7h-.1l1.4 1.5c4.9 5.8 9.6 11.7 14.4 17.6l6.5 8 1.8 2.2.8.8c.3.3.8 1.2 1.3 1.7l.4-.3a2 2 0 0 1 .8-.4c.2-.2.5-.2.8-.3h.2a4.9 4.9 0 0 1 1.7-.1 4.7 4.7 0 0 1 4.5 1.8c1.3 1.8.9 4.4-.1 6.2a6.7 6.7 0 0 1 -2.3 2.7 6.1 6.1 0 0 1 -2.7 1.5 5.3 5.3 0 0 1 -4.7-1.2 3.6 3.6 0 0 1 -.7-1 3.7 3.7 0 0 1 -1.2-2.1v-.4a1.3 1.3 0 0 1 -.1-.6 5.7 5.7 0 0 1 .8-3.8l-1.8-2-1.9-2.3-14.9-18.3-6.5-7.8-1-1.1c-2.2 1.6-4.8 2.8-6.9 4.2a30.1 30.1 0 0 1 -4.9 2.1c-1.6.6-3.1 1.4-4.8 1.9a19.6 19.6 0 0 1 -18.2-5.3 27.9 27.9 0 0 1 -5.7-8.3c-.6-1.1-1-2.3-1.5-3.4s-.6-2.4-1.5-2.9-3.3 2.7-4.3 4a19.6 19.6 0 0 1 -5.4 5.7c-3.5 2.4-7.4.4-10-2.3-1-1-2.1-1.8-3.1-2.7l-2.7-2.7c-1.6-1.7-4.2-2.7-6.3-3.6s-5.5-.4-7.5.7a12.1 12.1 0 0 0 -4.6 5.2 39.3 39.3 0 0 0 -2 5.4 14.8 14.8 0 0 0 -.2 4.2 8.5 8.5 0 0 0 2.5 5.4c1.6 1.7 4.5 2.8 6.6 3.7a61.6 61.6 0 0 1 6.8 3.4 10.7 10.7 0 0 1 4.5 4.2c1.3 2.2 1.1 4.4 1.1 6.8 0 5-2.5 8.7-6.7 11.3a29.9 29.9 0 0 1 -6.5 3.1c-2.1.7-4.3 1.1-6.4 1.7a59.8 59.8 0 0 0 -7.2 2.2 9.9 9.9 0 0 1 -5.4.8c-2.4-.4-4.3-1.7-6.4-2.9a24 24 0 0 1 -2.7-1.6l-2.6-2.4-5.3-4c-1.2-.9-2.4-2.3-4.1-2.3-5.3.1-6.7 7.7-9.4 11s-3.4 5.2-5.7 7.1a30.4 30.4 0 0 1 -7.2 4.6 14.6 14.6 0 0 1 -12.7.9c-1.8-.7-2.3-2.2-2.6-3.9a21.6 21.6 0 0 1 .7-8 19.1 19.1 0 0 1 4.1-7.5c2.3-2.8 4.9-5.5 7.1-8.4s6-6.7 8.1-10.6a29.3 29.3 0 0 0 2.1-4.4 41.3 41.3 0 0 0 1.7-4.5c.6-2 .2-4.3.2-6.4s-.4-4.2-.4-6.3 0-3.2 0-4.7.3-1.7.4-2.6l-3-.3h-4.7l-21 .4-11.3.2h-3.5c-1.2.1-2.3.4-3.5.6a6.1 6.1 0 0 1 -.7 1.4 5.3 5.3 0 0 1 -6 2.2h-.3a3.3 3.3 0 0 1 -1.7-.1 5.3 5.3 0 0 1 -2.9-2l-.6-.8a3.9 3.9 0 0 1 .1-4.6 5.8 5.8 0 0 1 2-1.8 6 6 0 0 1 4.1-1.4 5.3 5.3 0 0 1 2.8.7 4.4 4.4 0 0 1 2.9 2.3 1.1 1.1 0 0 1 .3.7h.3a15 15 0 0 1 3.7-.5h4.3l23.8-.4h8.9a27.8 27.8 0 0 1 5 0l1.3.2c.3-1.7.9-3.4 1.3-5.1a42.2 42.2 0 0 1 1.8-4.5c.6-1.5 1.4-3 2-4.5a40.6 40.6 0 0 1 4.7-8.7c1.8-2.3 3.6-4.6 5.5-6.8.5-.5 1.1-.9 1.6-1.5l1.1-1.5a39.7 39.7 0 0 0 2.8-3 20.2 20.2 0 0 0 2.7-3.8c.6-1.1 1.1-2.2 1.7-3.2a19.4 19.4 0 0 0 2.6-6.1 13.1 13.1 0 0 0 -2-11.8c-2.5-3.5-5.9-6.4-7.7-10.4s-.2-7.2 1.5-10.3c.4-.8.8-1.7 1.3-2.6h-52.5a5.6 5.6 0 1 1 .5-3.4h54.3l.3-.5c.9-1.5 2.2-3.5 2.3-5.3a8.4 8.4 0 0 0 -1.1-5.6 15.5 15.5 0 0 0 -5.3-4.9 17.3 17.3 0 0 0 -3.8-2.4c-1-.5-2-.6-3-1.1s-3-1.5-3.7-2.7a13.9 13.9 0 0 1 -.6-1.9c-.7-2.3-1.2-5.4.1-7.6s1.7-3.7 3.5-5.2a35.8 35.8 0 0 1 3.7-2.8 27.7 27.7 0 0 1 8.3-3.6 10 10 0 0 1 8.5 1.9 17.3 17.3 0 0 1 1.7 2.1l1.2 1.5c.7 1.3 1.1 2.8 1.8 4.2s2.2 4.6 3.9 6.5 2.7 1.9 4.5 2.6a6.5 6.5 0 0 0 3.4.3c.8 0 1.4-.3 2.2-.3l2.3-.5c2.1-.5 3.7-1.2 3.8-3.6s-1.3-3.6-2.3-5.3a26.6 26.6 0 0 1 -3-6.1c-.7-2.2 0-3.9 1.1-5.8s2.4-4.2 4.3-5.9a23 23 0 0 1 5.2-3.3c3.2-1.6 7.5-2.7 11.1-1.9 1.9.5 4.5.8 5.2 2.8a2.7 2.7 0 0 1 .1 2c-.1.5-.2 1.4.6 1.5l-1.5 1.1-.3-.2c.8 1.1 2-.7 2.5-1.3a3.9 3.9 0 0 0 1.2-3c-.2-1.5-1.1-2.6-1.9-3.9s-1.5-3-2.3-4.4a11.8 11.8 0 0 0 -6.5-5.1c-2.4-.7-5.1-1.2-7.6-1.7l-4.1-.4a17.8 17.8 0 0 1 -3.3-.9c-1.9-.7-5.3-1.3-6-3.6s2.5-6.1 4.4-7.7 4.3-3 6.9-2.9h7.5a29.8 29.8 0 0 1 5.2.2l5.4 1.2a48.1 48.1 0 0 1 11.7 4.2 16.3 16.3 0 0 1 3.9 3.5 5.7 5.7 0 0 1 1.3 2.1l2.7-1.1a43 43 0 0 1 11-3.1 56.4 56.4 0 0 1 11.6-.5 58.9 58.9 0 0 1 10.2 1.8 11.7 11.7 0 0 1 3.5 1.4l.8.4c-.2-1.6 1.1-3.7 2.1-4.8a14.1 14.1 0 0 1 3.9-2.4 38.2 38.2 0 0 1 5.5-2.4c4.3-1.4 8.8-2.7 13.3-2.8 7-.2 14.4.8 20.4 4.8a13.5 13.5 0 0 1 5.4 5.7c.9 1.9 2.1 3.9 1.9 6.1zm-231.6 87.2a8.2 8.2 0 0 0 3.4-.6 12.8 12.8 0 0 1 3.3-.6h4.3c1.2-.1 2.3-.6 3.5-.7a1.8 1.8 0 0 0 1.2-2.1 1.7 1.7 0 0 0 -2.1-1.2c-1.1.1-2.1.5-3.1.6h-4.1a14.3 14.3 0 0 0 -3.5.6 7.9 7.9 0 0 1 -2.9.6 1.7 1.7 0 0 0 -1.7 1.7c0 1.1.7 1.6 1.7 1.7zm11.4 2.4h4.6a1.7 1.7 0 0 1 0 3.4h-8.4l-3.5.6h-2.2a1.5 1.5 0 0 1 -1.8.5h-.4a1.7 1.7 0 0 1 -.7-2.9 4.1 4.1 0 0 1 2.1-1h1.7a27.6 27.6 0 0 0 4-.6 35.3 35.3 0 0 1 4.6 0zm-31 87.8a1.8 1.8 0 0 1 .6-2.3l.6-.2h1.4l3.5-.8 3.7-.4 2.7-.5c3.5-.6 7.7-.9 10.6 1.5a1.7 1.7 0 0 1 -.7 2.9h-.4a1.4 1.4 0 0 1 -2-1 9.5 9.5 0 0 0 -3.7-.5 25.2 25.2 0 0 0 -4.7.6c-2.4.6-4.9.6-7.3 1.2s-3.3 1-4.3-.5zm2.3.7-.2.2zm17.6 4.9c-3 .2-6 0-9.1-.1s-6.1.8-9.2.9-2.2 3.4 0 3.4 5-.6 7.4-.8 5.2.2 7.7.1a39.1 39.1 0 0 0 6.8-.6l1.7-.2h.4a1.7 1.7 0 0 0 3.3.1c1.4-5.1-6.5-3-9-2.8zm198.8 41.9c1.3-.2 2.4-1.1 3.7-1.3a33.8 33.8 0 0 1 4.5.1c2.7 0 5.8-.7 8.4.4a1.8 1.8 0 0 0 2.3-.6 1.8 1.8 0 0 0 -.6-2.4c-3.2-1.3-6.4-.9-9.8-.8-1.7 0-3.3-.2-5-.1s-2.9 1.1-4.4 1.4a1.7 1.7 0 0 0 -1.2 2.1 1.7 1.7 0 0 0 2.1 1.2zm16.4 4.5-4.5-.2h-7.2a14.5 14.5 0 0 0 -3.6.2 9.2 9.2 0 0 1 -2.9.4 1.7 1.7 0 0 0 -1.7 1.7 1.8 1.8 0 0 0 1.7 1.7c1.9.2 3.8-.6 5.7-.6h11.2a10.8 10.8 0 0 1 1.9.3l.9.2.3.2c1.4 1.7 3.8-.7 2.4-2.4s-2.8-1.3-4.2-1.5z"/></svg>