<?xml version="1.0" encoding="utf-8"?>
<!-- Generator: Adobe Illustrator 22.1.0, SVG Export Plug-In . SVG Version: 6.00 Build 0)  -->
<svg version="1.1" id="Layer_1" xmlns="http://www.w3.org/2000/svg" xmlns:xlink="http://www.w3.org/1999/xlink" x="0px" y="0px"
	 viewBox="0 0 800 639.1" style="enable-background:new 0 0 800 639.1;" xml:space="preserve">
<style type="text/css">
	.st0{fill:none;stroke:#A8A8A8;stroke-miterlimit:10;}
	.st1{fill:none;stroke:#C5C5C5;stroke-miterlimit:10;}
	.st2{opacity:0.33;fill:#B5B5B5;enable-background:new    ;}
	.st3{opacity:0.33;fill:#919191;stroke:#232322;stroke-miterlimit:10;enable-background:new    ;}
	.st4{fill:#A5A5B9;}
	.st5{font-family:'RobotoMono-Regular';}
	.st6{font-size:18px;}
	.st7{fill:none;stroke:#A8A8A8;stroke-width:1.06;stroke-miterlimit:10;}
	.st8{fill:#514361;}
	.st9{font-size:31.46px;}
	.st10{enable-background:new    ;}
	.st11{font-family:'Roboto-Italic';}
	.st12{font-size:16.8px;}
	
		.st13{opacity:0.8;fill:none;stroke:#A8A8A8;stroke-width:2;stroke-linecap:round;stroke-miterlimit:10;stroke-dasharray:0,3.32;enable-background:new    ;}
	.st14{opacity:0.8;enable-background:new    ;}
	.st15{fill:none;stroke:#A8A8A8;stroke-width:2;stroke-linecap:round;stroke-miterlimit:10;}
	.st16{fill:none;stroke:#A8A8A8;stroke-width:2;stroke-linecap:round;stroke-miterlimit:10;stroke-dasharray:0,3.5083;}
	.st17{fill:none;stroke:#A8A8A8;stroke-width:2;stroke-linecap:round;stroke-miterlimit:10;stroke-dasharray:0,3.3423;}
	.st18{fill:none;stroke:#A8A8A8;stroke-width:2;stroke-linecap:round;stroke-miterlimit:10;stroke-dasharray:0,3.32;}
	.st19{fill:#7C7C7C;}
</style>
<title>anatomy</title>
<line class="st0" x1="75.6" y1="573.8" x2="751" y2="573.8"/>
<path class="st1" d="M88.6,305.6"/>
<line class="st1" x1="409.4" y1="587.3" x2="409.4" y2="573.8"/>
<circle class="st2" cx="444.4" cy="286.2" r="23.2"/>
<circle class="st2" cx="349.5" cy="384.4" r="23.2"/>
<circle class="st2" cx="381.7" cy="253.5" r="23.2"/>
<circle class="st2" cx="310.8" cy="417.1" r="23.2"/>
<circle class="st2" cx="406.4" cy="417.1" r="23.2"/>
<circle class="st2" cx="423.3" cy="122.7" r="23.2"/>
<circle class="st2" cx="370.7" cy="253.5" r="23.2"/>
<ellipse transform="matrix(0.1602 -0.9871 0.9871 0.1602 -30.515 863.8338)" class="st2" cx="492.4" cy="449.8" rx="23.2" ry="23.2"/>
<circle class="st2" cx="472.3" cy="253.5" r="23.2"/>
<ellipse transform="matrix(0.1602 -0.9871 0.9871 0.1602 242.2507 661.0314)" class="st2" cx="509.6" cy="188.1" rx="23.2" ry="23.2"/>
<circle class="st2" cx="392.5" cy="122.7" r="23.2"/>
<circle class="st2" cx="325.5" cy="286.2" r="23.2"/>
<circle class="st2" cx="471" cy="122.7" r="23.2"/>
<circle class="st2" cx="427.2" cy="547.9" r="23.2"/>
<circle class="st2" cx="398.8" cy="515.2" r="23.2"/>
<circle class="st2" cx="432" cy="417.1" r="23.2"/>
<circle class="st2" cx="327.2" cy="351.6" r="23.2"/>
<ellipse transform="matrix(0.1602 -0.9871 0.9871 0.1602 134.9197 731.0789)" class="st2" cx="497.1" cy="286.2" rx="23.2" ry="23.2"/>
<circle class="st2" cx="368.5" cy="188.1" r="23.2"/>
<circle class="st2" cx="315.8" cy="417.1" r="23.2"/>
<circle class="st2" cx="476.4" cy="384.4" r="23.2"/>
<circle class="st2" cx="373.7" cy="381.1" r="23.2"/>
<circle class="st2" cx="419.9" cy="266.6" r="23.2"/>
<circle class="st2" cx="442.8" cy="224.1" r="23.2"/>
<circle class="st2" cx="376.2" cy="240.4" r="23.2"/>
<circle class="st2" cx="314.2" cy="197.9" r="23.2"/>
<circle class="st2" cx="388.4" cy="171.8" r="23.2"/>
<circle class="st2" cx="414.3" cy="220.8" r="23.2"/>
<circle class="st2" cx="401.6" cy="322.2" r="23.2"/>
<circle class="st2" cx="476.2" cy="175" r="23.2"/>
<circle class="st2" cx="342.3" cy="165.2" r="23.2"/>
<circle class="st2" cx="372.9" cy="90" r="23.2"/>
<circle class="st2" cx="449.4" cy="243.7" r="23.2"/>
<circle class="st2" cx="325.2" cy="318.9" r="23.2"/>
<circle class="st2" cx="432.7" cy="456.3" r="23.2"/>
<circle class="st2" cx="315.1" cy="430.1" r="23.2"/>
<circle class="st2" cx="482.4" cy="410.5" r="23.2"/>
<circle class="st2" cx="339" cy="240.4" r="23.2"/>
<circle class="st2" cx="462.5" cy="528.3" r="23.2"/>
<circle class="st2" cx="424" cy="325.5" r="23.2"/>
<circle class="st2" cx="386.9" cy="194.6" r="23.2"/>
<circle class="st2" cx="465.1" cy="318.9" r="23.2"/>
<circle class="st2" cx="317.5" cy="90.3" r="23.2"/>
<circle class="st2" cx="465.3" cy="387.6" r="23.2"/>
<circle class="st2" cx="337.9" cy="247" r="23.2"/>
<circle class="st2" cx="469.4" cy="276.4" r="23.2"/>
<circle class="st2" cx="448.1" cy="325.5" r="23.2"/>
<circle class="st2" cx="407.2" cy="178.3" r="23.2"/>
<circle class="st2" cx="320.7" cy="436.7" r="23.2"/>
<circle class="st2" cx="485.3" cy="384.4" r="23.2"/>
<circle class="st2" cx="319.3" cy="250.3" r="23.2"/>
<circle class="st2" cx="453.1" cy="204.5" r="23.2"/>
<circle class="st2" cx="393.5" cy="371.3" r="23.2"/>
<circle class="st2" cx="479.6" cy="260.1" r="23.2"/>
<circle class="st2" cx="395.5" cy="410.5" r="23.2"/>
<circle class="st2" cx="375.1" cy="256.8" r="23.2"/>
<circle class="st2" cx="481.1" cy="335.3" r="23.2"/>
<circle class="st2" cx="328.3" cy="269.9" r="23.2"/>
<circle class="st2" cx="329.6" cy="521.7" r="23.2"/>
<circle class="st2" cx="335" cy="410.5" r="23.2"/>
<ellipse transform="matrix(0.1602 -0.9871 0.9871 0.1602 32.8158 840.0701)" class="st2" cx="510.1" cy="400.7" rx="23.2" ry="23.2"/>
<circle class="st2" cx="408.1" cy="318.9" r="23.2"/>
<circle class="st2" cx="356.3" cy="479.2" r="23.2"/>
<circle class="st2" cx="374.8" cy="302.6" r="23.2"/>
<circle class="st2" cx="309.3" cy="302.6" r="23.2"/>
<circle class="st2" cx="452.3" cy="466.1" r="23.2"/>
<circle class="st2" cx="388.4" cy="449.8" r="23.2"/>
<circle class="st2" cx="335.7" cy="351.6" r="23.2"/>
<circle class="st2" cx="381.2" cy="466.1" r="23.2"/>
<circle class="st2" cx="364.2" cy="318.9" r="23.2"/>
<circle class="st2" cx="401.5" cy="433.4" r="23.2"/>
<circle class="st2" cx="485.9" cy="384.4" r="23.2"/>
<circle class="st2" cx="427.5" cy="335.3" r="23.2"/>
<circle class="st2" cx="410" cy="220.8" r="23.2"/>
<circle class="st2" cx="481.8" cy="351.6" r="23.2"/>
<circle class="st2" cx="330" cy="351.6" r="23.2"/>
<circle class="st2" cx="442" cy="417.1" r="23.2"/>
<circle class="st2" cx="372.7" cy="449.8" r="23.2"/>
<circle class="st2" cx="414.8" cy="482.5" r="23.2"/>
<circle class="st2" cx="341.7" cy="384.4" r="23.2"/>
<circle class="st2" cx="451.8" cy="351.6" r="23.2"/>
<circle class="st2" cx="323.1" cy="351.6" r="23.2"/>
<circle class="st2" cx="358.6" cy="449.8" r="23.2"/>
<circle class="st2" cx="434.5" cy="449.8" r="23.2"/>
<circle class="st2" cx="460.1" cy="384.4" r="23.2"/>
<circle class="st2" cx="413.1" cy="449.8" r="23.2"/>
<circle class="st2" cx="467.4" cy="449.8" r="23.2"/>
<circle class="st2" cx="375.5" cy="351.6" r="23.2"/>
<circle class="st2" cx="388.4" cy="351.6" r="23.2"/>
<circle class="st2" cx="404.6" cy="449.8" r="23.2"/>
<circle class="st2" cx="485.6" cy="417.1" r="23.2"/>
<circle class="st2" cx="500.2" cy="384.4" r="23.2"/>
<circle class="st2" cx="428.1" cy="449.8" r="23.2"/>
<circle class="st2" cx="447" cy="449.8" r="23.2"/>
<circle class="st2" cx="334.4" cy="155.4" r="23.2"/>
<ellipse transform="matrix(0.1602 -0.9871 0.9871 0.1602 98.2749 753.4081)" class="st2" cx="491.9" cy="318.9" rx="23.2" ry="23.2"/>
<circle class="st2" cx="338" cy="318.9" r="23.2"/>
<circle class="st2" cx="504.7" cy="384.4" r="23.2"/>
<circle class="st3" cx="477.5" cy="384.4" r="23.2"/>
<circle class="st2" cx="509.5" cy="482.5" r="23.2"/>
<ellipse transform="matrix(0.1602 -0.9871 0.9871 0.1602 -48.3479 908.2737)" class="st2" cx="509.6" cy="482.5" rx="23.2" ry="23.2"/>
<text transform="matrix(1 0 0 1 40.6965 447.0499)" class="st4 st5 st6">25</text>
<text transform="matrix(1 0 0 1 51.4982 580.8998)" class="st4 st5 st6">0</text>
<text transform="matrix(1 0 0 1 40.6965 313.0499)" class="st4 st5 st6">50</text>
<text transform="matrix(1 0 0 1 40.6965 179.1499)" class="st4 st5 st6">75</text>
<text transform="matrix(1 0 0 1 29.8944 45.2498)" class="st4 st5 st6">100</text>
<line class="st7" x1="75.8" y1="573.8" x2="75.8" y2="19.6"/>
<line class="st7" x1="75.8" y1="439.8" x2="92.6" y2="439.8"/>
<line class="st7" x1="75.8" y1="306" x2="92.6" y2="306"/>
<line class="st7" x1="75.8" y1="172" x2="92.6" y2="172"/>
<line class="st7" x1="75.8" y1="38.1" x2="92.6" y2="38.1"/>
<text transform="matrix(1 0 0 1 580.6 55.1499)" class="st8 st5 st9">jitter</text>
<text transform="matrix(1 0 0 1 580.6 92.9499)" class="st8 st5 st9">width</text>
<text transform="matrix(1 0 0 1 333.0999 621.3502)" class="st8 st5 st9">category</text>
<text transform="matrix(1 0 0 1 570.2 419.7499)" class="st10"><tspan x="0" y="0" class="st8 st11 st12">showing one individual </tspan><tspan x="0" y="20.2" class="st8 st11 st12">observation</tspan></text>
<text transform="matrix(1 0 0 1 564.2 393.4499)" class="st8 st5 st9">data point</text>
<path class="st13" d="M554.5,387.3l-66,0.3"/>
<text transform="matrix(1 0 0 1 123.1499 362.4499)" class="st8 st5 st9">median</text>
<path class="st13" d="M306.6,352.5l-47,0.3"/>
<g class="st14">
	<g>
		<line class="st15" x1="287.4" y1="77" x2="287.4" y2="77"/>
		<line class="st16" x1="287.4" y1="73.5" x2="287.4" y2="57.8"/>
		<line class="st15" x1="287.4" y1="56" x2="287.4" y2="56"/>
		<line class="st17" x1="290.8" y1="56" x2="523.1" y2="56"/>
		<line class="st15" x1="524.8" y1="56" x2="524.8" y2="56"/>
		<line class="st16" x1="524.8" y1="59.5" x2="524.8" y2="75.3"/>
		<line class="st15" x1="524.8" y1="77" x2="524.8" y2="77"/>
	</g>
</g>
<line class="st18" x1="524.7" y1="66.5" x2="560.7" y2="66.5"/>
<rect x="320.7" y="348.1" class="st19" width="173.5" height="6.3"/>
</svg>
