<svg height="256" viewBox="0 0 256 256" width="256" xmlns="http://www.w3.org/2000/svg"><path d="m19.6 219.6a15.2 15.2 0 1 1 12.3-8.7 15.2 15.2 0 0 1 -12.3 8.7zm-16.6 11.4a15.2 15.2 0 1 0 25.2-11.5 18.2 18.2 0 0 1 -20 .1 15.1 15.1 0 0 0 -5.2 11.4zm125.1-45.9a15.2 15.2 0 1 0 -15.2 15.3h.9a15.4 15.4 0 0 0 14.3-15.2c-.1-8.4 0 5.1 0-.1zm-30.4 26.8a15.2 15.2 0 1 0 25.1-11.6 18.2 18.2 0 0 1 -19.7 0 15.1 15.1 0 0 0 -5.4 11.6zm1.7 12.1a15.2 15.2 0 1 0 27 0 18.1 18.1 0 0 1 -25.5 1.4l-1.5-1.4c-1.2 2.1.5.5 0 0zm26.4-152.1a15.2 15.2 0 1 0 15 12.6 15.4 15.4 0 0 0 -15-12.6zm117.8 57.7a15.2 15.2 0 1 0 -18 11.8l1.4.2a15.4 15.4 0 0 0 16.6-12c1.7-8.2-1.1 5.1 0 0zm-5.7 26.9a15.2 15.2 0 0 0 -3.3-13 18.2 18.2 0 0 1 -18.4-3.9 15.2 15.2 0 1 0 21.7 16.9zm-29.7 17.8a15.2 15.2 0 1 0 28-8.3 18.2 18.2 0 0 1 -25.5 0 15.3 15.3 0 0 0 -2.5 8.2zm-95.3-64.7a15.2 15.2 0 1 0 14.4 10.4 15.2 15.2 0 0 0 -14.4-10.5zm-15.2 35a15.2 15.2 0 1 0 28.5-7.5 18.1 18.1 0 0 1 -25.6 1l-1-1a15.1 15.1 0 0 0 -1.9 7.5zm-65.9 40.6a15.2 15.2 0 1 0 -15.2-15.2 15.2 15.2 0 0 0 15.2 15.2zm34.7 24.7a15.2 15.2 0 0 0 -5.9-12 18.2 18.2 0 0 1 -18.8 0 15.2 15.2 0 1 0 24.7 11.9zm-30.5 21.1a15.2 15.2 0 1 0 28-8.3 18.2 18.2 0 0 1 -25.5 0 15.3 15.3 0 0 0 -2.5 8.3zm15.2-63.9h-.8a18.8 18.8 0 0 1 -13.3 20.9 15.2 15.2 0 0 0 14.1 9.6h1.4a15.2 15.2 0 0 0 -1.4-30.5zm172.2 32.1a15.2 15.2 0 1 0 15 12.6 15.4 15.4 0 0 0 -14.9-12.6zm-7.8 32a18.6 18.6 0 0 1 -10.7-15.4h-.1a15.2 15.2 0 1 0 15.2 16.8 18.6 18.6 0 0 1 -4.4-1.4zm26.3-15a18.5 18.5 0 0 1 -18.3 16.7 15.2 15.2 0 1 0 18.3-16.7zm-28.3-137.1a15.2 15.2 0 1 0 14.4 10.4 15.2 15.2 0 0 0 -14.4-10.4zm-52.4 128.9a15.2 15.2 0 0 0 -30.5 0 15.2 15.2 0 0 0 30.5 0m-15.2 18.6a16.5 16.5 0 0 1 -15-9.5 15.2 15.2 0 1 0 29.9 0 16.5 16.5 0 0 1 -15 9.4zm0 11.3a16.5 16.5 0 0 1 -15-9.5 15.2 15.2 0 1 0 29.9 0 16.5 16.5 0 0 1 -15 9.4zm10.9-72.7a15.2 15.2 0 0 0 -30.5 0 15.2 15.2 0 0 0 30.5 0m5.6-33.3a15.2 15.2 0 0 0 -15.2-15.2 15.2 15.2 0 1 0 15.2 15.2m-118-22.3a15.2 15.2 0 1 0 15 12.6 15.4 15.4 0 0 0 -15-12.6zm81.8-72.8a15.2 15.2 0 1 0 15 12.6 15.4 15.4 0 0 0 -14.9-12.7zm105.4 4.7a15.2 15.2 0 1 0 15 12.6 15.4 15.4 0 0 0 -14.9-12.6zm-197.8 26.6a15.2 15.2 0 1 0 15.1 12.6 15.4 15.4 0 0 0 -15.1-12.6zm91.9-66.1a15.2 15.2 0 1 0 15 12.6 15.4 15.4 0 0 0 -15-12.6zm125.7 249h-246v4h246zm3.8 0h-254.2v4h254.2z"/></svg>