<?xml version="1.0" encoding="utf-8"?>
<!-- Generator: Adobe Illustrator 22.1.0, SVG Export Plug-In . SVG Version: 6.00 Build 0)  -->
<svg version="1.1" id="Layer_1" xmlns="http://www.w3.org/2000/svg" xmlns:xlink="http://www.w3.org/1999/xlink" x="0px" y="0px"
	 viewBox="0 0 1136 955.9" style="enable-background:new 0 0 1136 955.9;" xml:space="preserve">
<style type="text/css">
	.st0{fill:#514361;}
	.st1{font-family:'RobotoMono-Regular';}
	.st2{font-size:34px;}
	.st3{font-size:30px;}
	.st4{fill:none;stroke:#C9C9C9;stroke-width:5;stroke-miterlimit:10;}
	.st5{fill:#7F7F7F;}
	.st6{font-size:35px;}
	.st7{fill:none;stroke:#C9C9C9;stroke-width:4;stroke-miterlimit:10;}
	.st8{fill:none;stroke:#565656;stroke-width:11;stroke-miterlimit:10;}
	.st9{fill:none;stroke:#BABABA;stroke-width:11;stroke-miterlimit:10;}
	.st10{fill:none;stroke:#909090;stroke-width:11;stroke-miterlimit:10;}
	.st11{fill:#BABABA;}
	.st12{fill:#909090;}
	.st13{fill:#565656;}
	.st14{fill:none;stroke:#FFFFFF;stroke-miterlimit:10;}
	.st15{fill:#7F7F7F;stroke:#FFFFFF;stroke-width:1.3;stroke-miterlimit:10;}
</style>
<text transform="matrix(1 0 0 1 7.9697 42.1335)" class="st0 st1 st2">variable A</text>
<text transform="matrix(1 0 0 1 408.3467 42.1335)" class="st0 st1 st2">variable B</text>
<text transform="matrix(1 0 0 1 811.997 42.1335)" class="st0 st1 st2">variable C</text>
<g>
	<text transform="matrix(1 0 0 1 126.4047 543.9088)" class="st0 st1 st3">category 2</text>
</g>
<g>
	<text transform="matrix(1 0 0 1 126.4046 765.4999)" class="st0 st1 st3">category 3</text>
</g>
<g>
	<text transform="matrix(1 0 0 1 126.405 350.3799)" class="st0 st1 st3">category 1</text>
</g>
<g>
	<text transform="matrix(1 0 0 1 945.454 622.4045)" class="st0 st1 st3">category 3</text>
</g>
<g>
	<text transform="matrix(1 0 0 1 945.4535 765.4999)" class="st0 st1 st3">category 2</text>
</g>
<g>
	<text transform="matrix(1 0 0 1 945.4536 462.3799)" class="st0 st1 st3">category 1</text>
</g>
<line class="st4" x1="511" y1="113" x2="511" y2="912"/>
<g>
	<text transform="matrix(1 0 0 1 414.5459 127.9869)" class="st5 st1 st6">80</text>
</g>
<g>
	<text transform="matrix(1 0 0 1 414.5459 317.8932)" class="st5 st1 st6">60</text>
</g>
<g>
	<text transform="matrix(1 0 0 1 414.5459 427.2448)" class="st5 st1 st6">50</text>
</g>
<g>
	<text transform="matrix(1 0 0 1 414.5459 522.5865)" class="st5 st1 st6">40</text>
</g>
<g>
	<text transform="matrix(1 0 0 1 414.5459 622.4049)" class="st5 st1 st6">30</text>
</g>
<g>
	<text transform="matrix(1 0 0 1 438.146 921.5729)" class="st5 st1 st6">0</text>
</g>
<line class="st7" x1="478" y1="909" x2="511" y2="909"/>
<line class="st7" x1="478" y1="811" x2="511" y2="811"/>
<line class="st7" x1="478" y1="611" x2="511" y2="611"/>
<line class="st7" x1="478" y1="513" x2="511" y2="513"/>
<line class="st7" x1="478" y1="414" x2="511" y2="414"/>
<line class="st7" x1="478" y1="214" x2="511" y2="214"/>
<line class="st7" x1="478" y1="116" x2="511" y2="116"/>
<line class="st4" x1="917" y1="113" x2="917" y2="912"/>
<g>
	<text transform="matrix(1 0 0 1 810.1475 921.5729)" class="st5 st1 st6">0.0</text>
</g>
<g>
	<text transform="matrix(1 0 0 1 810.1475 763.3815)" class="st5 st1 st6">0.5</text>
</g>
<g>
	<text transform="matrix(1 0 0 1 810.1475 604.2194)" class="st5 st1 st6">1.0</text>
</g>
<g>
	<text transform="matrix(1 0 0 1 810.1475 440.3854)" class="st5 st1 st6">1.5</text>
</g>
<g>
	<text transform="matrix(1 0 0 1 810.1475 286.0865)" class="st5 st1 st6">2.0</text>
</g>
<g>
	<text transform="matrix(1 0 0 1 810.1475 127.985)" class="st5 st1 st6">2.5</text>
</g>
<g>
	<line class="st7" x1="885" y1="909" x2="917" y2="909"/>
	<line class="st7" x1="885" y1="592" x2="917" y2="592"/>
	<line class="st7" x1="885" y1="274" x2="917" y2="274"/>
	<line class="st7" x1="885" y1="116" x2="917" y2="116"/>
</g>
<line class="st4" x1="110" y1="113" x2="109.6" y2="912"/>
<g>
	<text transform="matrix(1 0 0 1 4.5361 127.9869)" class="st5 st1 st6">100</text>
</g>
<g>
	<text transform="matrix(1 0 0 1 25.5395 317.8932)" class="st5 st1 st6">75</text>
</g>
<g>
	<text transform="matrix(1 0 0 1 25.5395 522.5865)" class="st5 st1 st6">50</text>
</g>
<g>
	<text transform="matrix(1 0 0 1 25.5395 722.4166)" class="st5 st1 st6">25</text>
</g>
<g>
	<text transform="matrix(1 0 0 1 46.5429 921.5729)" class="st5 st1 st6">0</text>
</g>
<line class="st7" x1="77" y1="909" x2="110" y2="909"/>
<line class="st7" x1="77" y1="709" x2="110" y2="709"/>
<line class="st8" x1="107.7" y1="710.3" x2="509.3" y2="710.3"/>
<line class="st7" x1="77" y1="510.3" x2="110" y2="510.3"/>
<line class="st7" x1="77" y1="305.8" x2="110" y2="305.8"/>
<line class="st7" x1="77" y1="116" x2="110" y2="116"/>
<polyline class="st9" points="107.7,303.9 511,214 915,429 "/>
<polyline class="st10" points="107.7,510.3 508.7,310.5 915,746.8 "/>
<circle class="st11" cx="107.7" cy="305.8" r="18.7"/>
<circle class="st11" cx="510.7" cy="211.9" r="18.7"/>
<circle class="st11" cx="915" cy="429" r="18.7"/>
<circle class="st12" cx="107.7" cy="510.3" r="18.7"/>
<circle class="st12" cx="915" cy="746.8" r="18.7"/>
<circle class="st12" cx="510.7" cy="316.4" r="18.7"/>
<circle class="st13" cx="107.7" cy="710.3" r="18.7"/>
<circle class="st13" cx="915" cy="590.9" r="18.7"/>
<circle class="st13" cx="510.7" cy="708.4" r="18.7"/>
<g>
	<text transform="matrix(1 0 0 1 414.5459 821.4557)" class="st5 st1 st6">10</text>
	<text transform="matrix(1 0 0 1 414.5459 821.4557)" class="st14 st1 st6">10</text>
</g>
<line class="st8" x1="509.3" y1="710.3" x2="917" y2="592"/>
<g>
	<text transform="matrix(1 0 0 1 414.5459 227.61)" class="st5 st1 st6">70</text>
	<text transform="matrix(1 0 0 1 414.5459 227.61)" class="st14 st1 st6">70</text>
</g>
<g>
	<text transform="matrix(1 0 0 1 414.5459 722.4166)" class="st15 st1 st6">20</text>
</g>
</svg>
