<?xml version="1.0" encoding="utf-8"?>
<!-- Generator: Adobe Illustrator 19.2.0, SVG Export Plug-In . SVG Version: 6.00 Build 0)  -->
<svg version="1.1" id="Layer_1" xmlns="http://www.w3.org/2000/svg" xmlns:xlink="http://www.w3.org/1999/xlink" x="0px" y="0px"
	 width="1200px" height="1200px" viewBox="0 0 1200 1200" enable-background="new 0 0 1200 1200" xml:space="preserve">
<rect x="2" y="1048" fill="#464A90" width="53" height="75"/>
<rect x="2" y="1123" fill="#7581BA" width="53" height="75"/>
<text transform="matrix(1 0 0 1 2 42.1334)" fill="#37246D" font-family="'Roboto-Medium'" font-size="46.6983px">variable A</text>
<text transform="matrix(1 0 0 1 496.377 42.1334)" fill="#37246D" font-family="'Roboto-Medium'" font-size="46.6983px">variable B</text>
<text transform="matrix(1 0 0 1 991.0273 42.1334)" fill="#37246D" font-family="'Roboto-Medium'" font-size="46.6983px">variable C</text>
<g>
	<text transform="matrix(1 0 0 1 344.4531 1023.8268)" fill="#7F7F7F" font-family="'Roboto-Regular'" font-size="46.6983px">variable A</text>
</g>
<g>
	<text transform="matrix(1 0 0 1 423.8398 1177.0846)" fill="#7F7F7F" font-family="'Roboto-Regular'" font-size="46.6983px">50</text>
</g>
<g>
	<text transform="matrix(1 0 0 1 423.8398 1107.0377)" fill="#7F7F7F" font-family="'Roboto-Regular'" font-size="46.6983px">40</text>
</g>
<g>
	<text transform="matrix(1 0 0 1 733.6543 1172.4166)" fill="#7F7F7F" font-family="'Roboto-Regular'" font-size="46.6983px">90</text>
</g>
<g>
	<text transform="matrix(1 0 0 1 705.6348 1107.0377)" fill="#7F7F7F" font-family="'Roboto-Regular'" font-size="46.6983px">110</text>
</g>
<g>
	<text transform="matrix(1 0 0 1 1016.0352 1177.0846)" fill="#7F7F7F" font-family="'Roboto-Regular'" font-size="46.6983px">1.5</text>
</g>
<g>
	<text transform="matrix(1 0 0 1 1016.0352 1107.0377)" fill="#7F7F7F" font-family="'Roboto-Regular'" font-size="46.6983px">0.5</text>
</g>
<g>
	<text transform="matrix(1 0 0 1 105.4648 1103.2428)" fill="#7F7F7F" font-family="'Roboto-Regular'" font-size="46.6983px">item 1</text>
</g>
<g>
	<text transform="matrix(1 0 0 1 170.4062 578.9088)" fill="#7F7F7F" font-family="'Roboto-Regular'" font-size="46.6983px">item 1</text>
</g>
<g>
	<text transform="matrix(1 0 0 1 170.4062 254.4069)" fill="#7F7F7F" font-family="'Roboto-Regular'" font-size="46.6983px">item 2</text>
</g>
<g>
	<text transform="matrix(1 0 0 1 105.4648 1177.9635)" fill="#7F7F7F" font-family="'Roboto-Regular'" font-size="46.6983px">item 2</text>
</g>
<g>
	<text transform="matrix(1 0 0 1 644.1016 1023.8248)" fill="#7F7F7F" font-family="'Roboto-Regular'" font-size="46.6983px">variable B</text>
</g>
<g>
	<text transform="matrix(1 0 0 1 943.3848 1023.8248)" fill="#7F7F7F" font-family="'Roboto-Regular'" font-size="46.6983px">variable C</text>
</g>
<line fill="none" stroke="#C9C9C9" stroke-width="8" stroke-miterlimit="10" x1="663" y1="100" x2="663" y2="899"/>
<g>
	<text transform="matrix(1 0 0 1 542.9463 114.9869)" fill="#7F7F7F" font-family="'Roboto-Regular'" font-size="42.0284px">120</text>
</g>
<g>
	<text transform="matrix(1 0 0 1 542.9463 214.61)" fill="#7F7F7F" font-family="'Roboto-Regular'" font-size="42.0284px">115</text>
</g>
<g>
	<text transform="matrix(1 0 0 1 542.9463 304.8932)" fill="#7F7F7F" font-family="'Roboto-Regular'" font-size="42.0284px">110</text>
</g>
<g>
	<text transform="matrix(1 0 0 1 542.9463 414.2448)" fill="#7F7F7F" font-family="'Roboto-Regular'" font-size="42.0284px">105</text>
</g>
<g>
	<text transform="matrix(1 0 0 1 542.9463 509.5865)" fill="#7F7F7F" font-family="'Roboto-Regular'" font-size="42.0284px">100</text>
</g>
<g>
	<text transform="matrix(1 0 0 1 566.5459 609.4049)" fill="#7F7F7F" font-family="'Roboto-Regular'" font-size="42.0284px">95</text>
</g>
<g>
	<text transform="matrix(1 0 0 1 566.5459 709.4166)" fill="#7F7F7F" font-family="'Roboto-Regular'" font-size="42.0284px">90</text>
</g>
<g>
	<text transform="matrix(1 0 0 1 566.5459 808.4557)" fill="#7F7F7F" font-family="'Roboto-Regular'" font-size="42.0284px">85</text>
</g>
<g>
	<text transform="matrix(1 0 0 1 566.5459 908.5729)" fill="#7F7F7F" font-family="'Roboto-Regular'" font-size="42.0284px">80</text>
</g>
<line fill="none" stroke="#C9C9C9" stroke-width="4" stroke-miterlimit="10" x1="630" y1="896" x2="663" y2="896"/>
<line fill="none" stroke="#C9C9C9" stroke-width="4" stroke-miterlimit="10" x1="630" y1="798" x2="663" y2="798"/>
<line fill="none" stroke="#C9C9C9" stroke-width="4" stroke-miterlimit="10" x1="630" y1="598" x2="663" y2="598"/>
<line fill="none" stroke="#C9C9C9" stroke-width="4" stroke-miterlimit="10" x1="630" y1="500" x2="663" y2="500"/>
<line fill="none" stroke="#C9C9C9" stroke-width="4" stroke-miterlimit="10" x1="630" y1="401" x2="663" y2="401"/>
<line fill="none" stroke="#C9C9C9" stroke-width="4" stroke-miterlimit="10" x1="630" y1="201" x2="663" y2="201"/>
<line fill="none" stroke="#C9C9C9" stroke-width="4" stroke-miterlimit="10" x1="630" y1="103" x2="663" y2="103"/>
<line fill="none" stroke="#C9C9C9" stroke-width="8" stroke-miterlimit="10" x1="1148" y1="100" x2="1148" y2="899"/>
<g>
	<text transform="matrix(1 0 0 1 1041.1475 908.5729)" fill="#7F7F7F" font-family="'Roboto-Regular'" font-size="42.0284px">0.0</text>
</g>
<g>
	<text transform="matrix(1 0 0 1 1041.1475 750.3815)" fill="#7F7F7F" font-family="'Roboto-Regular'" font-size="42.0284px">0.5</text>
</g>
<g>
	<text transform="matrix(1 0 0 1 1041.1475 591.2194)" fill="#7F7F7F" font-family="'Roboto-Regular'" font-size="42.0284px">1.0</text>
</g>
<g>
	<text transform="matrix(1 0 0 1 1041.1475 427.3854)" fill="#7F7F7F" font-family="'Roboto-Regular'" font-size="42.0284px">1.5</text>
</g>
<g>
	<text transform="matrix(1 0 0 1 1041.1475 273.0865)" fill="#7F7F7F" font-family="'Roboto-Regular'" font-size="42.0284px">2.0</text>
</g>
<g>
	<text transform="matrix(1 0 0 1 1041.1475 114.985)" fill="#7F7F7F" font-family="'Roboto-Regular'" font-size="42.0284px">2.5</text>
</g>
<g>
	<line fill="none" stroke="#C9C9C9" stroke-width="4" stroke-miterlimit="10" x1="1116" y1="896" x2="1148" y2="896"/>
	<line fill="none" stroke="#C9C9C9" stroke-width="4" stroke-miterlimit="10" x1="1116" y1="579" x2="1148" y2="579"/>
	<line fill="none" stroke="#C9C9C9" stroke-width="4" stroke-miterlimit="10" x1="1116" y1="261" x2="1148" y2="261"/>
	<line fill="none" stroke="#C9C9C9" stroke-width="4" stroke-miterlimit="10" x1="1116" y1="103" x2="1148" y2="103"/>
</g>
<line fill="none" stroke="#C9C9C9" stroke-width="8" stroke-miterlimit="10" x1="154" y1="100" x2="153.583" y2="899"/>
<rect x="302" y="1048" opacity="0.2" fill="#7581BA" width="297" height="75"/>
<rect x="4" y="1048" opacity="0.2" fill="#7581BA" width="294" height="75"/>
<rect x="603" y="1048" opacity="0.2" fill="#7581BA" width="296" height="75"/>
<rect x="903" y="1048" opacity="0.2" fill="#7581BA" width="294" height="75"/>
<rect x="4" y="1123" opacity="0.15" fill="#939FD5" width="294" height="75"/>
<rect x="903" y="1123" opacity="0.15" fill="#939FD5" width="294" height="75"/>
<rect x="302" y="1123" opacity="0.15" fill="#939FD5" width="297" height="75"/>
<rect x="603" y="1123" opacity="0.15" fill="#939FD5" width="296" height="75"/>
<g>
	<text transform="matrix(1 0 0 1 57.5361 114.9869)" fill="#7F7F7F" font-family="'Roboto-Regular'" font-size="42.0284px">60</text>
</g>
<g>
	<text transform="matrix(1 0 0 1 57.5361 304.8932)" fill="#7F7F7F" font-family="'Roboto-Regular'" font-size="42.0284px">50</text>
</g>
<g>
	<text transform="matrix(1 0 0 1 57.5361 509.5865)" fill="#7F7F7F" font-family="'Roboto-Regular'" font-size="42.0284px">40</text>
</g>
<g>
	<text transform="matrix(1 0 0 1 57.5361 709.4166)" fill="#7F7F7F" font-family="'Roboto-Regular'" font-size="42.0284px">30</text>
</g>
<g>
	<text transform="matrix(1 0 0 1 57.5361 908.5729)" fill="#7F7F7F" font-family="'Roboto-Regular'" font-size="42.0284px">20</text>
</g>
<line fill="none" stroke="#C9C9C9" stroke-width="4" stroke-miterlimit="10" x1="121" y1="896" x2="154" y2="896"/>
<line fill="none" stroke="#C9C9C9" stroke-width="4" stroke-miterlimit="10" x1="121" y1="696" x2="154" y2="696"/>
<line fill="none" stroke="#C9C9C9" stroke-width="4" stroke-miterlimit="10" x1="121" y1="103" x2="154" y2="103"/>
<polyline fill="none" stroke="#7581BA" stroke-width="18.6793" stroke-miterlimit="10" points="151.726,290.882 660.32,696.859 
	1145.982,416.033 "/>
<polyline fill="none" stroke="#464A90" stroke-width="18.6793" stroke-miterlimit="10" points="151.726,497.258 660.737,297.518 
	1145.982,733.791 "/>
<circle fill="#7581BA" cx="151.726" cy="292.849" r="18.679"/>
<circle fill="#7581BA" cx="660.32" cy="696.859" r="18.679"/>
<circle fill="#7581BA" cx="1145.982" cy="416.033" r="18.679"/>
<circle fill="#464A90" cx="151.726" cy="497.258" r="18.679"/>
<circle fill="#464A90" cx="1145.982" cy="733.791" r="18.679"/>
<circle fill="#464A90" cx="660.32" cy="296.384" r="18.679"/>
</svg>
