<?xml version="1.0" encoding="utf-8"?>
<!-- Generator: Adobe Illustrator 22.1.0, SVG Export Plug-In . SVG Version: 6.00 Build 0)  -->
<svg version="1.1" id="Layer_1" xmlns="http://www.w3.org/2000/svg" xmlns:xlink="http://www.w3.org/1999/xlink" x="0px" y="0px"
	 viewBox="0 0 1200 955.9" style="enable-background:new 0 0 1200 955.9;" xml:space="preserve">
<style type="text/css">
	.st0{fill:#514361;}
	.st1{font-family:'RobotoMono-Regular';}
	.st2{font-size:34px;}
	.st3{font-size:35px;}
	.st4{fill:none;stroke:#C9C9C9;stroke-width:8;stroke-miterlimit:10;}
	.st5{fill:#7F7F7F;}
	.st6{fill:none;stroke:#C9C9C9;stroke-width:4;stroke-miterlimit:10;}
	.st7{fill:none;stroke:#BABABA;stroke-width:11;stroke-miterlimit:10;}
	.st8{fill:none;stroke:#909090;stroke-width:11;stroke-miterlimit:10;}
	.st9{fill:#BABABA;}
	.st10{fill:#909090;}
	.st11{fill:none;stroke:#565656;stroke-width:11;stroke-miterlimit:10;}
	.st12{fill:#565656;}
	.st13{fill:#7F7F7F;stroke:#FFFFFF;stroke-miterlimit:10;}
</style>
<text transform="matrix(1 0 0 1 2 42.1334)" class="st0 st1 st2">variable A</text>
<text transform="matrix(1 0 0 1 496.377 42.1334)" class="st0 st1 st2">variable B</text>
<text transform="matrix(1 0 0 1 991.0273 42.1334)" class="st0 st1 st2">variable C</text>
<g>
	<text transform="matrix(1 0 0 1 186.4062 543.9088)" class="st0 st1 st3">item 2</text>
</g>
<g>
	<text transform="matrix(1 0 0 1 186.4061 792.3212)" class="st0 st1 st3">item 2</text>
</g>
<g>
	<text transform="matrix(1 0 0 1 170.405 350.3799)" class="st0 st1 st3">item 1</text>
</g>
<line class="st4" x1="663" y1="113" x2="663" y2="912"/>
<g>
	<text transform="matrix(1 0 0 1 566.5459 127.9869)" class="st5 st1 st3">80</text>
</g>
<g>
	<text transform="matrix(1 0 0 1 566.5459 317.8932)" class="st5 st1 st3">60</text>
</g>
<g>
	<text transform="matrix(1 0 0 1 566.5459 427.2448)" class="st5 st1 st3">50</text>
</g>
<g>
	<text transform="matrix(1 0 0 1 566.5459 522.5865)" class="st5 st1 st3">40</text>
</g>
<g>
	<text transform="matrix(1 0 0 1 566.5459 622.4049)" class="st5 st1 st3">30</text>
</g>
<g>
	<text transform="matrix(1 0 0 1 566.5459 722.4166)" class="st5 st1 st3">20</text>
</g>
<g>
	<text transform="matrix(1 0 0 1 590.146 921.5729)" class="st5 st1 st3">0</text>
</g>
<line class="st6" x1="630" y1="909" x2="663" y2="909"/>
<line class="st6" x1="630" y1="811" x2="663" y2="811"/>
<line class="st6" x1="630" y1="611" x2="663" y2="611"/>
<line class="st6" x1="630" y1="513" x2="663" y2="513"/>
<line class="st6" x1="630" y1="414" x2="663" y2="414"/>
<line class="st6" x1="630" y1="214" x2="663" y2="214"/>
<line class="st6" x1="630" y1="116" x2="663" y2="116"/>
<line class="st4" x1="1148" y1="113" x2="1148" y2="912"/>
<g>
	<text transform="matrix(1 0 0 1 1041.1475 921.5729)" class="st5 st1 st3">0.0</text>
</g>
<g>
	<text transform="matrix(1 0 0 1 1041.1475 763.3815)" class="st5 st1 st3">0.5</text>
</g>
<g>
	<text transform="matrix(1 0 0 1 1041.1475 604.2194)" class="st5 st1 st3">1.0</text>
</g>
<g>
	<text transform="matrix(1 0 0 1 1041.1475 440.3854)" class="st5 st1 st3">1.5</text>
</g>
<g>
	<text transform="matrix(1 0 0 1 1041.1475 286.0865)" class="st5 st1 st3">2.0</text>
</g>
<g>
	<text transform="matrix(1 0 0 1 1041.1475 127.985)" class="st5 st1 st3">2.5</text>
</g>
<g>
	<line class="st6" x1="1116" y1="909" x2="1148" y2="909"/>
	<line class="st6" x1="1116" y1="592" x2="1148" y2="592"/>
	<line class="st6" x1="1116" y1="274" x2="1148" y2="274"/>
	<line class="st6" x1="1116" y1="116" x2="1148" y2="116"/>
</g>
<line class="st4" x1="154" y1="113" x2="153.6" y2="912"/>
<g>
	<text transform="matrix(1 0 0 1 57.5361 127.9869)" class="st5 st1 st3">80</text>
</g>
<g>
	<text transform="matrix(1 0 0 1 57.5361 317.8932)" class="st5 st1 st3">60</text>
</g>
<g>
	<text transform="matrix(1 0 0 1 57.5361 522.5865)" class="st5 st1 st3">40</text>
</g>
<g>
	<text transform="matrix(1 0 0 1 57.5361 722.4166)" class="st5 st1 st3">20</text>
</g>
<g>
	<text transform="matrix(1 0 0 1 81.1357 921.5729)" class="st5 st1 st3">0</text>
</g>
<line class="st6" x1="121" y1="909" x2="154" y2="909"/>
<line class="st6" x1="121" y1="709" x2="154" y2="709"/>
<line class="st6" x1="121" y1="510.3" x2="154" y2="510.3"/>
<line class="st6" x1="121" y1="305.8" x2="154" y2="305.8"/>
<line class="st6" x1="121" y1="116" x2="154" y2="116"/>
<polyline class="st7" points="151.7,303.9 663,214 1146,429 "/>
<polyline class="st8" points="151.7,510.3 660.7,310.5 1146,746.8 "/>
<circle class="st9" cx="151.7" cy="305.8" r="18.7"/>
<circle class="st9" cx="662.7" cy="211.9" r="18.7"/>
<circle class="st9" cx="1146" cy="429" r="18.7"/>
<circle class="st10" cx="151.7" cy="510.3" r="18.7"/>
<circle class="st10" cx="1146" cy="746.8" r="18.7"/>
<circle class="st10" cx="662.7" cy="316.4" r="18.7"/>
<line class="st11" x1="151.7" y1="710.3" x2="663" y2="811"/>
<circle class="st12" cx="151.7" cy="710.3" r="18.7"/>
<circle class="st12" cx="1146" cy="590.9" r="18.7"/>
<circle class="st12" cx="662.7" cy="811" r="18.7"/>
<g>
	<text transform="matrix(1 0 0 1 566.5459 821.4557)" class="st13 st1 st3">10</text>
</g>
<line class="st11" x1="661.3" y1="812.9" x2="1148" y2="592"/>
<g>
	<text transform="matrix(1 0 0 1 566.5459 227.61)" class="st13 st1 st3">70</text>
</g>
</svg>
