<?xml version="1.0" encoding="utf-8"?>
<!-- Generator: Adobe Illustrator 22.1.0, SVG Export Plug-In . SVG Version: 6.00 Build 0)  -->
<svg version="1.1" xmlns="http://www.w3.org/2000/svg" xmlns:xlink="http://www.w3.org/1999/xlink" x="0px" y="0px"
	 viewBox="0 0 1268 418" enable-background="new 0 0 1268 418" xml:space="preserve">
<g id="Layer_1">
	<g>
		<line fill="none" stroke="#C4C4C4" stroke-miterlimit="10" x1="831" y1="118.8" x2="846" y2="118.8"/>
		<line fill="none" stroke="#C4C4C4" stroke-miterlimit="10" x1="831" y1="46.1" x2="846" y2="46.1"/>
		<line fill="none" stroke="#C4C4C4" stroke-miterlimit="10" x1="831" y1="191.4" x2="846" y2="191.4"/>
		<line fill="none" stroke="#C4C4C4" stroke-miterlimit="10" x1="831" y1="264.1" x2="846" y2="264.1"/>
		<line fill="none" stroke="#C4C4C4" stroke-miterlimit="10" x1="831" y1="336.7" x2="846" y2="336.7"/>
		<line fill="none" stroke="#C4C4C4" stroke-miterlimit="10" x1="831" y1="409.1" x2="846" y2="409.1"/>
		<line fill="none" stroke="#C4C4C4" stroke-miterlimit="10" x1="838.5" y1="409.1" x2="838.5" y2="46.1"/>
	</g>
	<g>
		<line fill="none" stroke="#C4C4C4" stroke-miterlimit="10" x1="426.7" y1="118.8" x2="441.7" y2="118.8"/>
		<line fill="none" stroke="#C4C4C4" stroke-miterlimit="10" x1="426.7" y1="46.1" x2="441.7" y2="46.1"/>
		<line fill="none" stroke="#C4C4C4" stroke-miterlimit="10" x1="426.7" y1="191.4" x2="441.7" y2="191.4"/>
		<line fill="none" stroke="#C4C4C4" stroke-miterlimit="10" x1="426.7" y1="264.1" x2="441.7" y2="264.1"/>
		<line fill="none" stroke="#C4C4C4" stroke-miterlimit="10" x1="426.7" y1="336.7" x2="441.7" y2="336.7"/>
		<line fill="none" stroke="#C4C4C4" stroke-miterlimit="10" x1="426.7" y1="409.1" x2="441.7" y2="409.1"/>
		<line fill="none" stroke="#C4C4C4" stroke-miterlimit="10" x1="434.2" y1="409.1" x2="434.2" y2="46.1"/>
	</g>
	<g>
		<line fill="none" stroke="#C4C4C4" stroke-miterlimit="10" x1="1225.6" y1="118.8" x2="1233.6" y2="118.8"/>
		<line fill="none" stroke="#C4C4C4" stroke-miterlimit="10" x1="1233.6" y1="191.4" x2="1225.6" y2="191.4"/>
		<line fill="none" stroke="#C4C4C4" stroke-miterlimit="10" x1="1233.6" y1="264.1" x2="1225.6" y2="264.1"/>
		<line fill="none" stroke="#C4C4C4" stroke-miterlimit="10" x1="1233.6" y1="336.7" x2="1225.6" y2="336.7"/>
		<polyline fill="none" stroke="#C4C4C4" stroke-miterlimit="10" points="1233.1,409.1 1225.6,409.1 1225.6,46.1 1233.1,46.1 		"/>
		<text transform="matrix(1 0 0 1 1236.3334 52.9336)"><tspan x="0" y="0" fill="#D1CDC9" font-family="'RobotoCondensed-Regular'" font-size="20px">100</tspan><tspan x="0" y="72" fill="#D1CDC9" font-family="'RobotoCondensed-Regular'" font-size="20px">80</tspan><tspan x="0" y="144" fill="#D1CDC9" font-family="'RobotoCondensed-Regular'" font-size="20px">60</tspan><tspan x="0" y="216" fill="#D1CDC9" font-family="'RobotoCondensed-Regular'" font-size="20px">40</tspan><tspan x="0" y="288" fill="#D1CDC9" font-family="'RobotoCondensed-Regular'" font-size="20px">20</tspan><tspan x="0" y="360" fill="#D1CDC9" font-family="'RobotoCondensed-Regular'" font-size="20px">0</tspan></text>
	</g>
	<g>
		<line fill="none" stroke="#C4C4C4" stroke-miterlimit="10" x1="35.7" y1="118.8" x2="43.7" y2="118.8"/>
		<line fill="none" stroke="#C4C4C4" stroke-miterlimit="10" x1="43.7" y1="191.4" x2="35.7" y2="191.4"/>
		<line fill="none" stroke="#C4C4C4" stroke-miterlimit="10" x1="43.7" y1="264.1" x2="35.7" y2="264.1"/>
		<line fill="none" stroke="#C4C4C4" stroke-miterlimit="10" x1="43.7" y1="336.7" x2="35.7" y2="336.7"/>
		<polyline fill="none" stroke="#C4C4C4" stroke-miterlimit="10" points="35.7,409.1 43.2,409.1 43.2,46.1 35.7,46.1 		"/>
		<text transform="matrix(1 0 0 1 2.0479 52.9336)"><tspan x="0" y="0" fill="#D1CDC9" font-family="'RobotoCondensed-Regular'" font-size="20px">100</tspan><tspan x="9.9" y="72" fill="#D1CDC9" font-family="'RobotoCondensed-Regular'" font-size="20px">80</tspan><tspan x="9.9" y="144" fill="#D1CDC9" font-family="'RobotoCondensed-Regular'" font-size="20px">60</tspan><tspan x="9.9" y="216" fill="#D1CDC9" font-family="'RobotoCondensed-Regular'" font-size="20px">40</tspan><tspan x="9.9" y="288" fill="#D1CDC9" font-family="'RobotoCondensed-Regular'" font-size="20px">20</tspan><tspan x="19.7" y="360" fill="#D1CDC9" font-family="'RobotoCondensed-Regular'" font-size="20px">0</tspan></text>
	</g>
	<polyline fill="none" stroke="#A4A6C9" stroke-width="2" stroke-miterlimit="10" points="43.2,81.5 434.2,233.3 838.5,118.8 
		1225.6,191.4 	"/>
	<polyline fill="none" stroke="#DDB997" stroke-width="2" stroke-miterlimit="10" points="43.7,336.7 434.2,395.7 838.5,228.3 
		1225.6,312.4 	"/>
	<polyline fill="none" stroke="#C4B7BD" stroke-width="2" stroke-miterlimit="10" points="43.7,191.4 434.2,90.3 838.5,315.7 
		1225.6,377.2 	"/>
	<polyline fill="none" stroke="#B4AEC3" stroke-width="2" stroke-miterlimit="10" points="43.7,264.1 434.2,336.7 838.5,191.4 
		1225.6,118.8 	"/>
	<polyline fill="none" stroke="#F3D0AA" stroke-width="2" stroke-miterlimit="10" points="43.7,153 434.2,46.1 838.5,85.7 
		1225.6,46.1 	"/>
	<polyline fill="none" stroke="#E3C8B0" stroke-width="2" stroke-miterlimit="10" points="43.2,219.8 434.2,191.4 838.5,363.7 
		1225.6,264.1 	"/>
	<polyline fill="none" stroke="#D3BFB6" stroke-width="2" stroke-miterlimit="10" points="41.7,220.5 434.2,263.6 838.5,172.3 
		1225.6,284.3 	"/>
	<rect x="901.3" y="380.3" fill="#FFFFFF" width="35.2" height="23.7"/>
	<circle fill="#F3D0AA" cx="434.2" cy="46.1" r="3.5"/>
	<circle fill="#F3D0AA" cx="838.5" cy="85.8" r="3.5"/>
	<circle fill="#F3D0AA" cx="1225.6" cy="46.1" r="3.5"/>
	<circle fill="#B4AEC3" cx="1225.6" cy="118.6" r="3.5"/>
	<circle fill="#B4AEC3" cx="838.5" cy="191.4" r="3.5"/>
	<circle fill="#B4AEC3" cx="434.2" cy="336.7" r="3.5"/>
	<circle fill="#B4AEC3" cx="43.7" cy="264.1" r="3.5"/>
	<circle fill="#EBE0D4" cx="43.2" cy="336.7" r="3.5"/>
	<circle fill="#EBE0D4" cx="434.2" cy="395.7" r="3.5"/>
	<circle fill="#EBE0D4" cx="838.5" cy="228.3" r="3.5"/>
	<circle fill="#EBE0D4" cx="1225.6" cy="312.4" r="3.5"/>
	<circle fill="#D3BFB6" cx="1225.6" cy="284.3" r="3.5"/>
	<circle fill="#E3C8B0" cx="1225.6" cy="264.1" r="3.5"/>
	<circle fill="#E3C8B0" cx="838.5" cy="363.7" r="3.5"/>
	<circle fill="#E3C8B0" cx="434.2" cy="191.4" r="3.5"/>
	<circle fill="#D3BFB6" cx="838.5" cy="172.3" r="3.5"/>
	<circle fill="#D3BFB6" cx="434.2" cy="264.1" r="3.5"/>
	<circle fill="#D3BFB6" cx="43.7" cy="220.5" r="3.5"/>
	<circle fill="#C4B7BD" cx="43.7" cy="191.4" r="3.5"/>
	<circle fill="#C4B7BD" cx="434.2" cy="90.3" r="3.5"/>
	<circle fill="#C4B7BD" cx="838.5" cy="315.5" r="3.5"/>
	<circle fill="#C4B7BD" cx="1225.6" cy="377.2" r="3.5"/>
	<circle fill="#F3D0AA" cx="43.2" cy="153" r="3.5"/>
	<circle fill="#A4A6C9" cx="43.2" cy="81.3" r="3.5"/>
	<circle fill="#A4A6C9" cx="434.2" cy="233.2" r="3.5"/>
	<circle fill="#A4A6C9" cx="838.5" cy="118.8" r="3.5"/>
	<circle fill="#A4A6C9" cx="1225.6" cy="191.4" r="3.5"/>
	<g>
		<text transform="matrix(1 0 0 1 1216.2251 22.293)" fill="#D1CDC9" font-family="'RobotoCondensed-Regular'" font-size="26px">Apr</text>
	</g>
	<g>
		<text transform="matrix(1 0 0 1 818.8313 22.293)" fill="#D1CDC9" font-family="'RobotoCondensed-Regular'" font-size="26px">Mar</text>
	</g>
	<g>
		<text transform="matrix(1 0 0 1 415.1027 22.293)" fill="#D1CDC9" font-family="'RobotoCondensed-Regular'" font-size="26px">Feb</text>
	</g>
	<g>
		<text transform="matrix(1 0 0 1 19.1265 22.293)" fill="#D1CDC9" font-family="'RobotoCondensed-Regular'" font-size="26px">Jan</text>
	</g>
</g>
<g id="Layer_2">
</g>
<g id="Layer_3">
</g>
</svg>
