<svg enable-background="new 0 0 200 200" height="200" viewBox="0 0 200 200" width="200" xmlns="http://www.w3.org/2000/svg"><path d="m33 33.1v134h134v-134zm130 26h-28.5v-22h28.5zm-61 30h28.5v22h-28.5zm-4 22h-28.5v-22h28.5zm4-26v-22h28.5v22zm0-26v-22h28.5v22zm-4 0h-28.5v-22h28.5zm0 4v22h-28.5v-22zm-32.5 22h-28.5v-22h28.5zm0 4v22h-28.5v-22zm0 26v22h-28.5v-22zm4 0h28.5v22h-28.5zm28.5 26v22h-28.5v-22zm4 0h28.5v22h-28.5zm0-4v-22h28.5v22zm32.5-22h28.5v22h-28.5zm0-4v-22h28.5v22zm0-26v-22h28.5v22zm-69-48v22h-28.5v-22zm-28.5 104h28.5v22h-28.5zm97.5 22v-22h28.5v22z" fill="#020202"/></svg>