<svg xmlns="http://www.w3.org/2000/svg" xmlns:xlink="http://www.w3.org/1999/xlink" width="650" height="625" viewBox="0 0 650 625"><defs><style>.a{fill:#e5e5e5;}.b{fill:none;stroke:#646464;stroke-width:6px;}.b,.f{stroke-miterlimit:10;}.c{font-size:11px;}.c,.f{fill:#575757;}.c,.d,.g,.j{font-family:RobotoCondensed-Regular, Roboto Condensed;}.d,.g,.j{isolation:isolate;font-size:16.36px;fill:#b0b0b0;}.e{letter-spacing:-0.01em;}.f{stroke:#fff;stroke-width:4px;}.g{letter-spacing:-0.01em;}.h{letter-spacing:0em;}.i{letter-spacing:-0.01em;}.j{letter-spacing:-0.01em;}</style><symbol id="a" viewBox="0 0 86.2 46.3"><path class="a" d="M0,0H86.2V9.1H0ZM0,18.6H86.2v9.2H0ZM0,37.1H86.2v9.2H0Z"/></symbol></defs><title>cyclic-timeline</title><circle class="b" cx="325" cy="311" r="214"/><text class="c" transform="translate(134.9 320) rotate(-90)">9:00</text><text class="d" transform="translate(32 289.4)">b<tspan class="e" x="8.1" y="0">r</tspan><tspan x="12.9" y="0">own</tspan></text><circle class="f" cx="111" cy="311.1" r="8.5"/><use width="86.2" height="46.3" transform="translate(7.7 299)" xlink:href="#a"/><text class="c" transform="translate(515.2 301.9) rotate(90)">3:00</text><circle class="f" cx="539" cy="310.8" r="8.5"/><text class="g" transform="translate(591.8 289.4)">r<tspan class="h" x="4.8" y="0">ed</tspan></text><use width="86.2" height="46.3" transform="translate(558 299)" xlink:href="#a"/><text class="c" transform="translate(313.3 120.9)">12:00</text><circle class="f" cx="324.9" cy="97" r="8.5"/><text class="d" transform="translate(307.4 22.4)">g<tspan class="i" x="8.1" y="0">r</tspan><tspan x="12.9" y="0">een</tspan></text><use width="86.2" height="46.3" transform="translate(281.4 32)" xlink:href="#a"/><text class="c" transform="translate(315.2 507.5)">6:00</text><circle class="f" cx="325.2" cy="525" r="8.5"/><text class="d" transform="translate(307.9 555.9)">violet</text><use width="86.2" height="46.3" transform="translate(281.4 565.4)" xlink:href="#a"/><text class="c" transform="translate(457.1 456.9) rotate(-45)">4:30</text><circle class="f" cx="476.5" cy="462.2" r="8.5"/><text class="j" transform="translate(503.2 488.6)">y<tspan class="h" x="6.7" y="0">ellow</tspan></text><use width="86.2" height="46.3" transform="translate(479.5 498.1)" xlink:href="#a"/><text class="c" transform="translate(182.3 184.9) rotate(-45)">11:30</text><circle class="f" cx="173.6" cy="159.8" r="8.5"/><text class="d" transform="translate(105.8 88.5)">white</text><use width="86.2" height="46.3" transform="translate(79.1 98)" xlink:href="#a"/><text class="c" transform="translate(453.1 170.1) rotate(45)">1:30</text><circle class="f" cx="476.3" cy="159.6" r="8.5"/><text class="d" transform="translate(521.8 92.9)">blue</text><use width="86.2" height="46.3" transform="translate(491.4 102.5)" xlink:href="#a"/><text class="c" transform="translate(179.1 443) rotate(45)">7:30</text><circle class="f" cx="173.8" cy="462.4" r="8.5"/><text class="d" transform="translate(107 477.9)">pink</text><use width="86.2" height="46.3" transform="translate(76.4 487.5)" xlink:href="#a"/></svg>