<?xml version="1.0" encoding="utf-8"?>
<!-- Generator: Adobe Illustrator 22.1.0, SVG Export Plug-In . SVG Version: 6.00 Build 0)  -->
<svg version="1.1" id="Layer_1" xmlns="http://www.w3.org/2000/svg" xmlns:xlink="http://www.w3.org/1999/xlink" x="0px" y="0px"
	 viewBox="0 0 1723.9 1195.9" style="enable-background:new 0 0 1723.9 1195.9;" xml:space="preserve">
<style type="text/css">
	.st0{fill:#514361;}
	.st1{font-family:'RobotoMono-Regular';}
	.st2{font-size:40px;}
	.st3{enable-background:new    ;}
	.st4{fill:none;stroke:#AFAFAF;stroke-width:4;stroke-linecap:round;stroke-miterlimit:10;stroke-dasharray:0,9.9536;}
	.st5{fill:none;stroke:#AFAFAF;stroke-width:4;stroke-linecap:round;stroke-miterlimit:10;}
	.st6{fill:none;stroke:#AFAFAF;stroke-width:4;stroke-linecap:round;stroke-miterlimit:10;stroke-dasharray:0,11.2706;}
	.st7{fill:none;stroke:#AFAFAF;stroke-width:4;stroke-linecap:round;stroke-miterlimit:10;stroke-dasharray:0,9.9545;}
	.st8{fill:none;stroke:#7A7A7A;stroke-width:4;stroke-miterlimit:10;}
	.st9{fill:#999999;}
	.st10{font-family:'RobotoCondensed-Regular';}
	.st11{font-size:37.6196px;}
	.st12{fill:#EBEBEB;}
	.st13{fill:#A8A8A8;}
</style>
<g>
	<g>
		<g>
			<text transform="matrix(1 0 0 1 263.2349 56.4107)" class="st0 st1 st2">timestamp</text>
		</g>
	</g>
	<g>
		<g>
			<text transform="matrix(1 0 0 1 513.6504 518.4107)" class="st0 st1 st2">time scale</text>
		</g>
	</g>
	<g>
		<g>
			<text transform="matrix(1 0 0 1 724.1998 734.4999)" class="st3"><tspan x="0" y="0" class="st0 st1 st2">event</tspan><tspan x="0" y="48" class="st0 st1 st2">description </tspan></text>
		</g>
	</g>
	<line class="st4" x1="369.9" y1="211.3" x2="369.9" y2="90.3"/>
	<g>
		<g>
			<line class="st5" x1="897.5" y1="432.2" x2="897.5" y2="432.2"/>
			<line class="st6" x1="897.5" y1="443.5" x2="897.5" y2="460.4"/>
			<line class="st5" x1="897.5" y1="466" x2="897.5" y2="466"/>
			<line class="st7" x1="887.5" y1="466" x2="374.9" y2="466"/>
			<line class="st5" x1="369.9" y1="466" x2="369.9" y2="466"/>
			<line class="st6" x1="369.9" y1="454.8" x2="369.9" y2="437.9"/>
			<line class="st5" x1="369.9" y1="432.2" x2="369.9" y2="432.2"/>
		</g>
	</g>
</g>
<path class="st8" d="M368.5,317.1h1153.3c94.7,0,171.4,76.7,171.4,171.4s-76.7,171.4-171.4,171.4H212.6
	c-97.2,0-176.2,78.8-176.2,176.2c0,97.2,78.8,176.2,176.2,176.2h1136.9"/>
<text transform="matrix(1 0 0 1 333.1592 613.3513)" class="st9 st10 st11">2008</text>
<text transform="matrix(1 0 0 1 862.9062 271.1315)" class="st9 st10 st11">2000</text>
<text transform="matrix(1 0 0 1 1411.9238 271.1315)" class="st9 st10 st11">2002</text>
<path class="st12" d="M761.4,364.6h81.5v27.2h-81.5V364.6z"/>
<path class="st12" d="M865.9,364.6h167.2v27.2H865.9V364.6z"/>
<path class="st12" d="M1351.6,364.6h194.8v27.2h-194.8V364.6z"/>
<path class="st12" d="M219.7,707.3h152.6v27.2H219.7V707.3z"/>
<path class="st12" d="M395.2,707.3h123.3v27.2H395.2V707.3z"/>
<text transform="matrix(1 0 0 1 234.0282 965.236)" class="st9 st10 st11">2012</text>
<text transform="matrix(1 0 0 1 783.2861 965.236)" class="st9 st10 st11">2014</text>
<text transform="matrix(1 0 0 1 1313.4989 965.236)" class="st9 st10 st11">2016</text>
<g>
	<circle class="st13" cx="368.5" cy="660.5" r="15.7"/>
	<text transform="matrix(1 0 0 1 333.1592 268.8529)" class="st9 st10 st11">1998</text>
	<path class="st12" d="M219.7,362.8h152.6V390H219.7V362.8z"/>
	<path class="st12" d="M395.2,362.8h123.3V390H395.2V362.8z"/>
	<circle class="st13" cx="368.5" cy="316" r="15.7"/>
	<circle class="st13" cx="897.5" cy="317.7" r="15.7"/>
	<circle class="st13" cx="1447.5" cy="317.7" r="15.7"/>
	
		<ellipse transform="matrix(4.531427e-02 -0.999 0.999 4.531427e-02 -752.718 1236.3641)" class="st13" cx="270.5" cy="1012" rx="15.7" ry="15.7"/>
	<circle class="st13" cx="820.3" cy="1012" r="15.7"/>
	<circle class="st13" cx="1349.5" cy="1012" r="15.7"/>
</g>
<path class="st12" d="M173.5,1058.6h194.4v27.2H173.5V1058.6z"/>
<path class="st12" d="M675.1,1058.6h98.2v27.2h-98.2V1058.6z"/>
<path class="st12" d="M794.2,1058.6h171.4v27.2H794.2V1058.6z"/>
<path class="st12" d="M1232.7,1058.6h48.1v27.2h-48.1V1058.6z"/>
<path class="st12" d="M1303.8,1058.6h165.1v27.2h-165.1V1058.6z"/>
<line class="st4" x1="548.8" y1="720.9" x2="710.8" y2="720.9"/>
</svg>
