<svg height="230" viewBox="0 0 650 230" width="650" xmlns="http://www.w3.org/2000/svg"><g fill="none" stroke="#bababa"><path d="m37.7 28.4v-3.9"/><path d="m69.2 28.4v-3.9"/><path d="m100.7 28.4v-3.9" stroke-width="2"/><path d="m131.6 28.4v-3.9"/><path d="m162.8 28.4v-3.9"/><path d="m194.3 28.4v-3.9"/><path d="m225.8 28.4v-3.9" stroke-width="2"/><path d="m256.6 28.4v-3.9"/><path d="m287.8 28.4v-3.9"/><path d="m319.4 28.4v-3.9"/><path d="m350.9 28.4v-3.9" stroke-width="2"/><path d="m382.1 28.4v-3.9"/><path d="m413.2 28.4v-3.9"/><path d="m444.8 28.4v-3.9"/><path d="m476.3 28.4v-3.9" stroke-width="2"/><path d="m507.1 28.4v-3.9"/><path d="m538.3 28.4v-3.9"/><path d="m569.9 28.4v-3.9"/><path d="m601.4 28.4v-3.9" stroke-width="2"/><path d="m632.2 28.4v-3.9"/><path d="m22.4 23.6h622.9"/></g><text fill="#b7b7b7" font-family="Roboto Mono" font-size="12" transform="translate(92.7 14.6)">2014</text><text fill="#b7b7b7" font-family="Roboto Mono" font-size="12" transform="translate(217.8 14.6)">2015</text><text fill="#b7b7b7" font-family="Roboto Mono" font-size="12" transform="translate(342.9 14.6)">2016</text><text fill="#b7b7b7" font-family="Roboto Mono" font-size="12" transform="translate(462.2 14.6)">2017</text><text fill="#b7b7b7" font-family="Roboto Mono" font-size="12" transform="translate(587.2 14.6)">2018</text><path d="m21.1 32.9h-.4v-2.5h27.1v.5h-.3v-.2h-.4v1.3h-.7v1.6h-.6v.6h-.4v-.5h-.3v5.3h-.4v-1.9h-.7v.3h-.6v-1.6h-.4v.4h-.7v.7h-.7v.2h-.6v-.2h-.4v1.6h-.3v-.4h-.4v1.8h-.7v-.6h-.8v-.8h-.5v.6h-.4v2.3h-.7v3.3h-.6v.7h-.4v-1.1h-.3v-1.2h-1v-2.8h-.7v-.8h-.4v-1.5h-.3v-2.2h-1.1v.5h-.6v-1.5h-.4v.9h-.3v-1.3h-.4v-.3h-.7v-.7h-.6v.8h-.4v-1.6h-.3v-1h-.4v-.3h-.6v.2h-.7v-.4h-.4v1.5h-.3v.8h-.9v-.8h-.8v.7h-.4v.2h-.3v.4h-.4v-.8h-.6v2.3h-.7v-.3h-.4v1.4h-.3zm42.1-2.5v1.1h.7v-1.1z" fill="#eaeaea"/><path d="m63.2 68.2h-12v-2.9h.7v-4.8h.3v-1.9h.8v-.8h.7v-1.1h.7v1.3h.3v-.2h.7v.2h.6v-.4h.7v3h.3v-.4h.3v-.2h.3v1h.9v-.3h.9v-2.2h.3v.7h.3v-.6h.7v-1.6h.7v2.4h.3v5.9h.3v-1.2h.3v1.7h.7v2.3zm-12.6-1.4h-.4v-.9h-.7v-1h-.7v1.6h-.6v1.3h-.4v.4h2.7v-1.4zm361.1-36.4v1.3h-.7v-1.3h-14.3v3.1h-.7v.2h-.3v-2.5h-.3v-.8h-.3v.5h-1.4v-.5h-231.4v.3h-.7v1.1h-.7v1.2h-.3v.6h-.7v-.5h-1.4v-1.2h-.3v-.4h-1.4v1.1h-.7v-1.2h-.3v-1h-1.4v1.1h-.7v-.3h-.3v.4h-.4v1.2h-.3v1.5h-.7v-.7h-.7v-.4h-.3v1.9h-.3v-.3h-.9v1.9h-.9v1.2h-.3v.2h-.3v.3h-1v1.2h-.7v1.5h-.3v-.9h-.7v.2h-.7v1.3h-.7v-.4h-.3v-.8h-.3v-.4h-.3v-1.1h-.7v1.5h-.7v.2h-.3v.2h-.6v-.4h-.3v-.3h-.7v4h-.7v.8h-.3v8.3h-.3v-1.5h-1.2v1.2h-.9v1.2h-.3v.2h-.3v-.6h-.7v.4h-.7v-.7h-.3v-1.4h-.3v1.4h-1v-1.7h-.7v-1.4h-.3v-.7h-.3v.2h-.3v1h-1.7v-.7h-.7v-1h-.3v1.1h-.7v1.2h-.7v.8h-.3v-.4h-.7v.9h-.7v.4h-.7v-1.2h-.3v-1.1h-.7v1h-1.7v-.2h-.3v.2h-.3v.7h-.7v.3h-.7v-.3h-.3v2.1h-.3v-1h-.3v-1.1h-.7v.5h-.7v-1.2h-.3v-1.2h-.6v-1.7h-.9v.4h-1.1v1.6h-.7v1.4h-.7v1.9h-.7v1.5h-.7v.8h-.3v1.5h-.7v.2h-.7v.2h-.3v-.4h-.3v-1.2h-.3v-8.7h-.7v.8h-.7v-1.9h-.3v.9h-.3v.5h-.9v1.6h-.9v-2.6h-.3v-.6h-.3v2.1h-.3v2h-.9v.5h-.7v-.6h-.3v-1.4h-.3v.7h-.3v-.8h-.7v.6h-.7v-2.3h-.5v-1.5h-.6v1.2h-.7v-1h-.7v-.7h-.5v-.7h-.5v-.5h-.7v3.9h-.7v.9h-.3v-1.2h-.3v-.8h-.4v-.4h-.7v.6h-.7v-1.2h-.3v-.2h-.3v-.7h-.4v-.2h-.7v1.2h-.7v-1.5h-.3v.5h-.3v-.2h-.4v2.8h-.7v-.9h-.8v1.9h-.5v2.4h-.4v1.9h-.7v.8h-.7v-.2h-.3v1.2h-.3v-.9h-.4v.2h-.7v-1.2h-.7v-.7h-.3v1.5h-.7v.2h-.7v-.2h-.7v1.6h-.3v-1.6h-.3v-.9h-.4v-.3h-.7v1.3h-.6v-.5h-.4v-.4h-.3v1.7h-.4v-2.7h-.7v.8h-.7v-1.2h-.3v1.4h-.3v1h-.4v-.3h-.7v2.5h-.7v.9h-.3v.7h-.3v.5h-.4v.6h-.7v.7h-.7v.7h-.3v.7h-.3v1.2h-.4v-1.5h-.7v1h-1v-1.4h-.3v.3h-.4v2.4h-.7v-1.3h-.7v-.7h-.3v1h-.3v-1.6h-.4v-.4h-.7v5.1h-.7v-1.1h-.3v1.7h-.3v2.1h581.3v-37.6z" fill="#ececec"/><path d="m154.4 68.2v-.5h.7v-.7h.3v.4h.3v.7h-1.4zm336.5-37.5h-.7v.9h-.7v-.2h-.3v.3h-.3v.4h-.3v1h-.7v1h-.7v.4h-.3v-.1h-.3v6.2h-.3v-.3h-.7v-.2h-1.6v1.7h-1.7v.2h-.3v-.2h-1.2v.8h-.9v-.2h-.3v-.4h-.3v.6h-1v1h-.7v1.2h-.3v.5h-1.3v.3h-.9v-1h-.7v-.4h-.9v.7h-.9v.1h-.3v-.7h-.7v.3h-.6v.6h-1v.8h-.7v1.7h-.7v-.5h-.7v1.7h-.3v1h-.3v1h-.3v.8h-.7v-.7h-.7v.4h-.3v-1h-.3v-.9h-1v-.3h-1v.5h-.5v-.5h-1v1.6h-1.5v2.8h-.3v1.4h-.7v-2.6h-.7v.6h-.3v-3h-.3v-.1h-.3v.6h-.7v1.5h-.7v-1h-.3v-1.6h-.7v-1.9h-.7v-.1h-.7v-.7h-.3v-1h-.3v-2.4h-.3v.5h-.7v.9h-.7v-.4h-.7v-.3h-1.7v.6h-.3v-.5h-.3v.9h-.3v.2h-1v1.8h-.7v.2h-.3v.8h-.7v.4h-.7v-.4h-.7v.8h-.3v-1.6h-.3v.8h-.3v.2h-.7v.2h-.7v-1.9h-.3v1h-1.4v-1.2h-.7v-.6h-.3v3.5h-.3v3.6h-.3v2.5h-.7v2.3h-.7v-2.4h-.3v-2.8h-.3v.6h-1.7v1h-.6v.6h-.7v-.7h-1.4v-.7h-.3v-.4h-.3v-.8h-.3v.3h-.7v-.8h-.7v.3h-.7v-.3h-1v1.3h-.7v.2h-.7v-1h-.3v.4h-.7v.9h-.7v1.6h-.7v1.3h-.3v-1.5h-.8v1.8h-1v1.4h-.3v6.6h-.3v-.8h-.7v-1.4h-.7v-.9h-.3v-.5h-1.4v1.1h-1v2.1h-.3v-.5h-.3v.5h-.7v.3h-.7v.8h-.3v.4h-.3v.6h-.9v-1h-.9v.3h-.3v1.3h-.3v.9h-.3v.4h233.6v-37.7h-154.7v.4zm-323.2 35.8h-.3v-.6h-.3v-1.3h-.7v1.4h-.7v.2h-.3v-.4h-.7v-.7h-.9v2.1h-.9v.6h-.7v.3h5.5zm243.3 1.5h-.7v-3h-.3v.6h-.3v-.4h-.3v.9h-.7v-.2h-.7v-2.5h-.3v.4h-.3v-.3h-1v-1.4h-.7v-.9h-.3v.8h-.7v.4h-.7v.6h-.7v.2h-.3v-.7h-.3v-1.5h-.9v-.5h-1.2v.8h-.3v1.8h-.3v1.6h-.7v1.3h-.7v1.1h-.6v-.4h-.3v1.2h-.3v-.4h-.7v.7h14.3zm-17.5.2h-.3v-1.1h-.3v-1.1h-.3v1.7h-1.4v-1.3h-.3v-3.3h-.3v-6.7h-.3v-.7h-.7v-.6h-.7v-.3h-.3v-1.2h-.3v.2h-.3v-.5h-.7v-2.3h-.7v-2.1h-.7v1.5h-.3v1.4h-.7v.3h-1v-2.2h-.3v1.1h-.3v-1.2h-.7v1.1h-.7v1h-.3v-.6h-.3v1.8h-.3v2.5h-.8v-.5h-.8v-.5h-.3v-.6h-.3v.8h-1.7-.3v1.4h-.3v2.1h-.7v.3h-.7v1.1h-1v-.8h-.7v-1.2h-1.4v1.5h-.3v.8h-.3v.2h-.4v4.1h-.7v-.2h-.7v.2h-.3v.7h-.3v1.5h-.3v-2.3h-.7v.9h-.7v-.3h-.3v-2h-.3v1.6h-.9v2.9h-.9v.3h-.3v-.6h-.3v-.8h-1v1.1h-.7v-2.8h-.3v.3h-.3v2.1h-.3v-2.3h-.7v-1h-1v3.6h-.3v.8h-.3v-7.1h-.4v.6h-.7v-2.1h-.7v5.4h-.3v-.5h-1.2v-.4h-.9v-2.6h-.3v2.3h-.3v-2.7h-.3v1.5h-.7v1.7h-.7v.6h-.3v-4.6h-.3v-2.1h-.3v-2.6h-1.7v-2h-.3v-1.3h-.3v1.9h-.9v-1.2h-.9v-.6h-.3v1.3h-1v1.3h-.7v-3h-.3v-2.2h-.3v.8h-.3v-1.9h-.7v-.6h-.7v-2.8h-.3v.5h-.3v-2.3h-1v-.7h-.7v3.4h-.3v-1h-.3v-1h-.3v-.8h-.7v.4h-.9v-.1h-.5v-.8h-.3v1h-.7v-1.3h-1.3v.5h-.3v1.3h-.3v3.3h-.4v-.5h-.7v1.7h-.7v-3.2h-.3v-.3h-.3v-.6h-.3v-3.4h-.7v-.4h-1v-.8h-.3v-.5h-.3v1.2h-.7v1.5h-.7v-.9h-.3v1.1h-.3v4.2h-.3v-.7h-.7v-3.3h-.7v3.2h-.3v1.6h-.7v1.9h-.7v.6h-1v-.8h-.3v1.6h-.3v-1.5h-.4v.2h-.7v-.5h-.7v2.5h-.3v-1.3h-.3v-.5h-.3v.5h-.7v.4h-.7v.8h-.3v-.7h-.3v1.2h-.3v-3.2h-.7v-2.1h-.7v-.3h-.3v.6h-.3v.8h-.3v-1.6h-.7v1.6h-.7v-.4h-.3v-2.3h-.7v.9h-.7v1h-1v1.5h-.3v2.3h-.3v-2h-.9v2.9h-.9v-1h-.3v-1.8h-.3v4.4h-.3v-4.8h-.7v-.5h-.7v.3h-.3v3h-.3v5.9h-.3v.6h-.7v-2.6h-.7v-6.6h-.3v-2.2h-.3v-1.4h-.3v-.5h-.7v1.1h-.7v.7h-.7v1.6h-.3v-5.7h-.7v3.7h-1v.4h-.3v-.3h-.3v.7h-.4v-3.4h-.7v-2.5h-.7v-.9h-.3v-.5h-.3v-.4h-.3v.5h-.7v-1.4h-.7v-.6h-.7v-4.5h-.3v-1.1h-.7v2h-.7v.9h-.3v1.4h-.3v1h-1v2h-.7v2.8h-.3v-2.3h-.3v-2.6h-.3v-.3h-.9v-.3h-1.2v1h-.6v.8h-.7v-2.1h-.7v-.6h-.3v-.5h-.3v.9h-.3v-.5h-.7v.8h-.7v-1h-.3v.5h-.3v-.3h-.3v.6h-.7v-.2h-.7v-1.2h-.3v-.2h-.3v1.2h-.3v-.4h-.7v-.6h-.7v-.6h-.3v-.6h-.7v-.4h-.7v.2h-1v-1.2h-.3v-.2h-.3v1.9h-.9v-2.3h-.9v.9h-.3v1.1h-1.4v1.1h-1v2.4h-.7v-.4h-.7v-1.1h-.7v2h-.3v.2h-.3v-.7h-.3v-2.4h-.7v-.2h-.7v3.1h-.3v-2.8h-.3v-1.6h-.3v-1.7h-.7v1.9h-.9v.5h-.3v.9h-.3v1.4h-.4v-.6h-.7v2.4h-.7v-1.2h-.3v-.5h-.3v.4h-.3v-.5h-.7v-.2h-.7v.4h-.3v.9h-.3v-.4h-.3v-1.1h-.9v1.7h-.9v.9h-.3v-.2h-.3v-1.6h-.7v2.6h-.7v-.8h-.3v.7h-.3v-2.7h-.3v-.5h-.7v1.1h-.7v-1.3h-.3v-.8h-.3v1.2h-.7v1.7h-.7v1.1h-.7v-.7h-.3v1.9h-.3v-1.9h-.3v-2.2h-.7v.4h-.7v.2h-.3v-1.8h-.3v-.6h-.3v.2h-.7v.5h-.7v-1.6h-.3v1.3h-.3v-2.7h-.3v-.6h-.7v2.8h-.7v.9h-.3v-.3h-.3v.7h-.9v.6h-.9v.5h-.3v1.3h-.3v2.5h-.7v2h-.7v.7h-.7v-.9h-.3v.3h-.3v.8h-1v1.3h-.7v-1.5h-.3v3.2h-.3v5.8h-.3v-3.8h-1.4v.5h-.3v2.7h-.3v.8h-.9v2.7h-.9v-.7h-.3v-2.9h-.3v-.4h-.3v.9h-.7v-2.5h-1v4h-.3v1.5h-1v-3h-.9v-1h-.8v-2h-.3v-1.3h-1.5v1.8h-.5v-.5h-.3v-.4h-.7v1.1h-.7v-.8h-.3v3.1h-.3v2.5h-.3v-1.4h-.7v-1.5h-.7v-1.8h-.3v-.3h-.3v-2h-.3v1.6h-.7v-2.4h-.7v-.4h-.3v-.4h-.3v1.2h-.8v-.5h-.7v-3.4h-1.3v1.2h-.3v-1h-.7v1.9h-1v1.5h-.3v-.5h-.3v1.4h-.7v-.2h-.7v1.3h-.3v1.5h-.3v1.5h-.3v.7h-.7v-.2h-.7v.3h-.3v-.2h-.3v.3h-.3v-.8h-.7v1.3h-.7v1h-.3v-.3h-.3v.6h-.3v1.6h-1.4v.4h-.3v1.9h-.8v.5h-.3v2.8h-.7v2.2h-.7v1.5h-.3v-1.5h-.3v-1.2h-.3v-1.2h-.7v-1h-.7v-.2h-.3v.2h-.3v2.2h-.3v-1h-1.4v-.3h-.3v.8h-.3v-1.6h-.3v.7h-.7v-.7h-.7v3h-.3v-4.1h-.3v-.9h-.8v1.6h-1.4v-.7h-.3v.2h-.3v.7h-.3v-.8h-1.4v.2h-.3v.4h-.3v3.3h-.3v-.4h-.7v-.7h-.7v.9h-.3v-.8h-.3v-4.6h-.9v.8h-.9v.3h-.7v1.3h-.3v-.6h-.7v.2h-.7v.8h-1v1.4h-.7v1.4h-.7v.5h-.3v.3h-.5v1.4h-1v1.4h-.7v.3h-.3v-.6h-.3v-.2h-.3v-.5h-.7v-.6h-.7v.6h-.3v-2.8h-.3v-.2h-.3v-.7h-.7v1.4h-.7v.7h-.3v-.2h-.3v2.7h-.3v.9h-.7v-.6h-.7v1.4h225.2zm1.7-.2h-.3v.2h.3z" fill="#cbcbcb"/><path d="m645.6 68.2v-36h-.2v-.8h-.3v1.5h-.4v.7h-.3v.5h-.7v.8h-.7v4h-.3v.2h-.4v4.5h-.3v2.4h-.7v1.9h-.7v-1.2h-.3v.4h-.3v.4h-.4v-1.4h-.7v-.3h-.7v-4.4h-.3v-3h-.3v-.3h-.4v1.5h-.7v.6h-.7v.4h-.3v1h-.3v-.5h-.4v2h-.7v1h-.7v-2.7h-.3v.7h-.3v2h-.4v1.1h-.8v-.7h-.9v.8h-.3v-1.2h-.4v-2.7h-.7v4.9h-.7v-2.5h-.3v-1.5h-.3v-2.4h-.4-.7v-1.6h-.7v-.4h-.3v.1h-.3v-.9h-.4v-1h-.7v1h-.7v1.8h-.3v1.1h-.3v-.9h-.4v-.1h-.7v.3h-.7v.7h-.3v-1.8h-.3v-.2h-.4v-.3h-.7v2.1h-.7v1.8h-.3v.8h-.3v-.4h-.9v-.4h-.9v-.3h-.3v3.4h-.3v1.9h-.4v1.1h-.7v4.1h-.7v.9h-.3v-3h-.3v-2.2h-.4v4.3h-.7v-2.7h-.6v-4.6h-.4v.2h-.3v.3h-.4v-.6h-.7v-2.2h-.6v.2h-.4v-1.9h-.3v-1.7h-.4v.1h-.7v-.9h-.6v-.5h-.4v.1h-.3v1.7h-.9v-.5h-.8v1.1h-.4v.6h-.3-.4v-.1h-.7v-.4h-.6v1.2h-.4v.5h-.3-.9v1.9h-.8v-1.2h-.4v.3h-.3-.9v-2.7h-.8-.4v.4h-.3v-.1h-.4v-1.1h-.7v1.5h-.6v1h-.4-.3v.3h-.4v-.5h-.7v2h-.6-.4v.2h-.3v-.4h-.4v-.1h-.7v-.8h-.6v-.4h-.4v1.4h-.3v-2.2h-.4v-.6h-.7v-.5h-.8-.5v1.1h-.4v1.9h-.7v-.1h-.6v-.6h-.4v1.3h-.3v-1.4h-.4v-1.6h-.6v-.5h-.7v-.7h-.4v-.2h-.3v.9h-.4v.3h-.6v1.1h-.7v2.7h-.4v.7h-.3v-1.3h-.4v1.4h-.6v2.4h-.7v3.6h-.4v.7h-.3v-.4h-.4v.6h-.6v-.1h-.7v.2h-.4v-2.5h-.3v-.5h-.4v.4h-.6v1.9h-.7v.7h-.4v-.4h-.3v.5h-.4-.6v.4h-.7v-.1h-.4v1.3h-.3v-.7h-.4v.5h-.6v-.2h-.7v.5h-.4v-.6h-.3v.7h-.4v1.8h-.6v-.9h-.7v-1h-.4v-1.9h-.3v-1.7h-.4-.6v-.8h-.7v1.1h-.4v-.9h-.3v-.8h-.4v-.4h-.6v1.8h-.7v-1.7h-.4v-.4h-.3v-.1h-.9v-1.3h-.8-.4v.5h-.3v.2h-.3v1h-.7v1h-.7v.4h-.4v-.5h-.3v.2h-.3v1.7h-.7v-.2h-.7v-.3h-.4v-2h-.3v-.4h-.3v1.1h-.7v1.6h-.7v1.4h-.4v-3.8h-.3v.7h-.3v.8h-.7v1.6h-.7v.6h-.4v-1.1h-.3v4.9h-.3v.9h-.7v-.6h-.7v-.7h-.4v-2h-.3v.5h-.3v.4h-.7v1.3h-.7-.4v-.5h-.3v.6h-.3v.4h-.7v.4h-.7v.9h-.4v1.4h-.3v.2h-.3v.3h-.7v.6h-.7v1.1h-.4v-1h-.5v.4h-.8v-.3h-.7v.2h-.4v-1.6h-.3v1.6h-.3v-1.5h-.7v-.4h-.7v.5h-.4v-.2h-.3v.6h-.3v-.9h-.7v2.9h-.7v-1.4h-.3v-.7h-.4v-1h-.3v.8h-.7v-2.5h-.7v-4.1h-.3v-.3h-.4v.6h-.3v.4h-.7v-1h-.7v1.5h-.3v.3h-.4v-.6h-.8-.9v-.2h-.3v.4h-.4v-.3h-.3v-.2h-.7v.7h-.7v.3h-.3v1.6h-.4v-3.6h-.3v-.1h-.7v-.3h-.7v1.5h-.3v.4h-.4v-.5h-.3v.7h-.7v2.8h-.7v1.7h-.3v-.3h-.4v-.4h-.3v.7h-.7v2.1h-.7v-.1h-.3v.1h-.4v-.6h-.3v.6h-.7v1h-.7v-.1h-.3v1.3h-.4v-.4h-.3v-.4h-.9v.5h-.8v-.5h-.4v.1h-.3v-1.1h-.7v-.1h-.7v-.3h-.3v-.2h-.4v-.6h-.3v.8h-.7-.7v-.2h-.3v-.1h-.4v.2h-.3v2.2h-.7v.1h-.7v-.2h-.3v-.3h-.4v1.1h-.3v-1.2h-.7v1.1h-.7v-.5h-.3v.2h-.4v1.1h-.3v-.2h-.7v.1h-.7v.3h-.3v-.2h-.4v-.4h-.3v.1h-.7v-.3h-.7v.6h-.3v-.6h-.4v2.1h-.3-.7v.3h-.7-.3v-.4h-.4v.3h-.8v.8h-.9v.3h-.3v-.2h-.4v.4h-.3v1z" fill="#9c9c9c"/><path d="m645.6 68.8v37.8h-620.6v-1.1h.9v.7h.3v-.5h.3v-.9h.7v.9h.7v.5h.3v-.6h.3v-.3h.5v-3.5h.7v-1.6h.7v2.4h.3v1.2h.3v-1.6h.3v.8h.7v-1.5h.7v-1.5h.3v1.3h.3v1.8h1v1.1h.7v-.6h.3v-2.1h1.4v-1.6h.7v-.6h.9v-.8h.9v-1.7h.7v-.3h.3v-.3h.3v-2.6h.5v-2.7h.7v.3h1v-.7h.3v1.6h.3v-.4h.7v.6h.7v.8h.3v.7h.3v-1.5h.3v-2.9h.7v2h.7v1.3h.3v.4h.3v-1.6h.3v.5h.7v1.1h1v1.3h.3v.6h.3v-.6h.7v.2h.7v1h.3v.9h.3v1.8h.8v.6h.7v-.3h.7v-.5h.3v.9h.3v-1.9h1v1.4h.7v2h.3v-.2h.3v-1.1h.3v1.1h.9v-2.8h.9v-1.8h.3v-.1h.3v-.7h.7v-1.3h.7v-.3h.3v.3h.3v.3h.3v.3h.7v.7h.7v-2.9h.3v-2.6h.7v-1.5h.7v1.6h.7v-.8h.3v.5h.6v-1.9h.3v.7h.7v1.1h.7v-2.7h.7v1.9h.3v-1.3h.7v3h.7v2.3h.3v1.7h.3v-2.3h.3v-2h1.4v1.5h.3v-1.3h.7v-6.1h.7v.8h.7v-1.9h.3v1.8h.3v-1.7h.3v-9.4h.7v1.5h.7v-1.3h.3v.5h.6v-.9h.3v1.5h1.7v.8h.3v3.8h.3v-2h.7v-1.3h.7v1.4h.3v-2h.3v-3.2h.3v-.5h.7v.9h.7v.4h.3v.7h.3v-1.9h.3v-1h.7v-1.2h.7v-.8h22.6v5.9h.7v3.7h.7v-.5h.3v.5h.3v-2.4h.3v-1.9h1.4v-.2h.3v3.7h.8v-2.4h1.2v1.1h.8v1.9h.3v-.8h.3v.9h.7v-1.5h.7v-1.9h.3v-.5h.7v-.6h.7v.7h.7v-1.2h.3v-2.5h1.4v.4h.7v.5h.3v-.4h.3v-.2h.3v-.6h.7v-.4h.7v-1h.3v1.5h.6v1.2h.3v2.4h.7v2.6h.7v-.9h.3v3.4h.3v1.5h1v.6h.7v-2h.3v.3h.3v2.6h.3v3.4h.7v1.7h.7v-3h.3v-1.5h.3v4.7h.3v1.8h.7v-1.3h1v-2.6h.3v-.4h.9v-1.9h.9v.5h.3v1.5h.7v-4h.3v10.9h.7v2.5h.7v-1.3h.3v-1.3h.3v-1.2h1v-.8h.7v4.4h.3v1.7h.3v1.6h.3v-1.5h.7v-3.7h.7v-.6h.3v2.4h.3v.9h.3v-.9h.7v.3h.7v-1.5h.3v-1.4h.7v-2.4h.9v.5h.9v.2h.6v-1.2h.3v.4h.7v1.3h.7v.5h.7v-5.4h.3v-2h.7v.7h.7v-1.6h.3v-.8h.3v2.9h1v-.5h.7v.6h.3v-2.8h.3v2.3h.3v.9h.7v-1h.7v1h.3v-1h.3v.6h.3v.4h1.4v-2.6h.7v-1.6h.9v1.2h.9v3.1h.5v-2h.3v.7h.3v-5.6h.7v-2.8h.7v.3h.3v-.4h.3v1h.3v-1.8h.7v-.4h.7v-.3h.3v.8h.7v10.5h.7v1.2h1v-.7h.3v3.1h.3v2h.7v-2.2h.7v.4h.3v-.5h.3v.8h.3v-1.7h1.1v-.5h.7v-.4h.3v-2.2h.3v-2.2h1v-.4h.7v-.2h.3v-.2h.3v.9h.3v.4h.7v-.8h.7v-2.4h.3v-.4h.3v1h.3v.3h.9v-1h.9v1h.3v-2.2h1v1.2h.7v3.9h.3v-.5h.3v.3h.3v-.3h1.1v2.3h.7v-1.2h.3v1.2h.3v-.3h.3v-2h.7v2.2h.7v.3h.3v-1.5h.3v2h.3v-.4h.7v.5h.7v-.3h.3v1.6h.3v-.3h.3v-1.4h.7v.2h.7v1.7h.3v-1.9h.3v2.4h.3v1.3h.7v1.7h.7v-.6h.3v.8h.3v1.1h.3v-.3h1.2v-.9h.7v-3h.3v.7h.7v9.1h.7v-1.1h.7v-2h.3v.5h.3v-1.7h.3v-2.2h1.4v1h.3v2.2h.7v-1.3h.7v-1.8h.7v-2.3h.3v.2h.3v-1.7h.3v-3.7h.7v1.5h.7v-.6h.3v-.5h.3v-1.3h.3v-.6h1v-1h.7v.2h.3v.5h.5v-1.6h.9v4h1v3.2h.7v1.4h.7v2h.7v-2h.3v2.3h.3v-.8h1v.4h.7v3.8h.3v-1.2h.3v.4h.3v-.8h.7v-2.3h1v1.1h.5v-2h1.1v-1h.7v.6h.9v.6h.9v2.2h.5v2.4h.3v-1.1h.3v-.7h.3v1.2h.7v2h.7v-1.2h.3v.5h.3v2.3h.3v-1.3h.9v.5h.9v-2.9h.3v-4.5h.3v-.7h.7v.9h.7v1h.3v1h.3v-2.7h.3v-13.4h1.1v-2.9h.7v.3h.3v-.4h.3v-2.6h1v1h.7v-.7h.3v-.6h.3v-.6h.3v-.7h.9v1.2h.9v.6h.3v-1.6h.3v-.2h1.4v.3h.3v-.3h3.8v.3h.7v2.5h.5v.9h.3v-2.2h.3v1h.7v-.7h.7v.4h.3v-.9h.3v.5h.3v-1.5h.7v.9h.7v.3h.3v.9h.3v1h.3v-.8h.7v-1.2h.7v.7h.3v.5h.3v-.5h.9v-1.4h.9v.7h.3v-1.4h3.1v1.1h.7v-1.1zm-624.2 37h-.3v-.7h-.4v1.5h.7v-.8zm2.1-.9h-.4v.5h-.6v-.9h-.7v2.1h1.7v-1.6z" fill="#ececec"/><path d="m87.9 106.7v-.5h.3v-1.5h.5v-1.9h.9v.4h.7v2.1h.3v-.4h.4v.4h.3v-.7h.7v.6h.7v-.8h.3v1.5h.3v.3h.3v-.8h.7v-1.3h.7v.4h.3v-2.2h.3v.2h.3v-1.8h.7v-.2h.7v1h.7v-1.5h.5v1.6h.7v1.2h.7v-1.4h.5v.2h.5v.4h.7v.7h.7v-1.2h.3v-1h.4v.2h.3v.9h.7v1.8h.7v-1.7h.3v.4h.7v-1h.9v-1.8h.9v.7h.3v1.2h.3v3.3h.7v.4h.7v-2.2h.3v2.8h.3v-5h.3v6.3h-22.5zm153-.6h-.9v.6h.9v-.7zm127-35.3h-.7v2h-.3v-1.9h-.3v2.6h-.9v2.9h-.9v.6h-.3v2.8h-.3v1.8h-.3v-1.3h-.7v-3h-.7v-6.8h-.3v1h-.3v-2.7h-39.6v.9h-.7v1.3h-.3v-1.6h-.3v.9h-.3v-1.3h-.7v2.2h-.7v2.4h-.3v1.8h-.3v3.3h-.3v-1.8h-.7v-4.1h-.7v-1.8h-.3v-.5h-.3v-.5h-.3v-1.2h-.7v.8h-.7v.4h-.3v2.3h-.3v1h-.3v.2h-.7v-1.7h-1.1v1.4h-.3v1.1h-1.2v3.7h-.9v-1.2h-.3v-1.2h-.3v2.9h-.3v-3.4h-.7v-1h-1v3.6h-.3v7.5h-.3v.7h-.7v-6.9h-.7v-4.5h-.3v-3.4h-.3v-.4h-1v.7h-.7v.4h-.3v.7h-.3v-.3h-.3v.7h-.7v.3h-1.1v-1.4h-.3v-1.5h-.3v1h-.4v-.6h-.7v-.2h-1v1.5h-.3v.6h-.3v-1.2h-.7v.4h-.7v9.8h-.3v-1.3h-1.4v1.1h-.7v1.6h-.3v3.2h-.3v-1h-.3v2.3h-.7v2.8h-.7v2.2h-.3v1.1h-.3v-1.6h-.3v.2h-.9v-.5h-1.2v.8h-.6v1h-.7v-2h-.7v-.3h-.3v-.2h-.3v-1.2h-.3v2.3h-.7v.3h-.7v-1.1h-.3v2.8h-.7v.9h-.7v-1.4h-.7v-.7h-.3v.5h-.3v1.3h-.3v.5h-.7v-.9h-.7v-.9h-.3v-1.4h-.3v1.4h-1v.4h-1v.7h-.3v-1.3h-.3v1.5h-.9v-.5h-.9v-1h-.3v1.9h-.3v.5h-.3v-.8h-.7v-.2h-.7v-1.6h-.3v1.3h-.3v-1h-.3v-.4h-.7v-.2h-.7v1.7h-.3v1.9h-.3v-.5h-.3v-.5h-1.4v.3h-.3v-1.9h-.7v-2.2h-.7v-1.5h-1v13.8h-.7v-.4h-.3v.4h-.7v2.7h383.3v-37.7h-277.7v1.9zm-106.3 34.1h-.3v.7h-.3v-.5h-.3v.8h-1.4v-.2h-.3v.6h-.3v.5h3.1v-1.8zm-13.7 1.6h-.7v-2.1h-.3v1.4h-.3v-.5h-.3v-.3h-.7v1.5h-.7v-1.3h-.3v-.2h-.3v1.6h3.8zm-4.1 0h-.7v-1h-.7v1.1h1.4v-.2z" fill="#cbcbcb"/><path d="m315.1 106.7v-.7h.7v.7zm162.4-37.7h-.3v3.2h-.3v.5h-.9v.5h-.9v-2.1h-.3v-1h-1.2v1.5h-.9v-.7h-.3v-.6h-.7v.7h-.7v1.1h-.7v-.5h-.3v-1h-.3v-.8h-.3v1.9h-.7v-1.1h-.7v.2h-.3v-.5h-.3v.8h-.3v.7h-.7v2.7h-.7v-.5h-.3v-1h-.3v-1.6h-.3v-.6h-.7v-1.8h-1.4v-.2h-.3v.2h-.7v2.7h-.7v.5h-.3v1.4h-.7v.5h-.3v3.5h-.7v-2.9h-.7v-.5h-.3v-4.1h-.3v-1.3h-1v3.6h-.7v-1.6h-.3v.2h-.3v-2.2h-1v.7h-.7v-.7h-12.8v.2h-.3v.7h-.7v-.5h-.7v1.2h-.3v1.2h-.7v-1.4h-.7v1.6h-.7v-3h-1.5v1.2h-.9v.2h-.4v.2h-.3v.2h-.3v-.4h-.7v.3h-.7v1.3h-.3v.3h-.3v-.7h-.3v.4h-.7v.3h-.7v-1h-1v-.5h-.7v-.6h-.7v.2h-.3v.4h-.7v.2h-1.4v.7h-.3v.8h-.3v-.6h-.3v-1h-1v1.2h-.7v.9h-.3v2.2h-.3v.2h-.3v-.6h-.7v-.7h-1v-.2h-.3v.8h-.3v.6h-1.4v-.7h-.3v-.2h-.3v-.8h-.3v-.8h-.7v1.1h-.7v1.3h-.7v1.4h-.9v.3h-.9v1.5h-.7v1.1h-.3v2.5h-.9v-1.3h-.7v-3.4h-.3v1.7h-.3v-.8h-.3v.3h-.7v1.1h-.7v-1.6h-.3v.5h-.3v-.8h-.3v.6h-.7v-.4h-.7v-1.4h-.7v.4h-.3v-.3h-.7v.2h-.7v-.4h-.3v1.3h-.3v-.5h-.9v1.5h-.9v-.3h-.3v1h-.3v.6h-.3v1.1h-.7v-.9h-.7v.6h-.6v.2h-.3v.3h-.3v-2.3h-1.4v-1.1h-.3v.7h-.3v1.5h-.3v3.5h-.7v.9h-.7v2.3h-.3v-1.8h-.7v-2h-.7v3.8h-.7v9.6h-.3v-.8h-.3v-1.8h-.3v-1.6h-.7v1h-.7v-1.8h-.3v-.3h-.3v.8h-.3v-1.2h-.7v1.6h-.7v.9h-.7v1h-.3v2h-.3v1.3h-.7v.2h-.7v.5h-.3v-1.8h-.3v2.8h-.3v-1.3h-.7v-.9h-.7v.9h-.3v-1h-.3v.8h-.3v2.5h-.8v-.5h-.8v2.5h-.3v1.7h-.3v1.2h-.7v.4h-.7v-1.4h-.3v-2.7h-.3v-.5h-.3v.7h-.7v.6h-.7v2h-1v-.5h-.7v-2.5h-1.2v-.4h-.3v-.6h-.3v.2h-.4v4.9h-.7v-.5h-1v.2h-.3v.2h-.3v-1.2h-.7v2.8h277.6v-37.8h-168.1zm-115.8 36.2h-.3v-4.2h-.7v-2.2h-.7v-8.3h-.3v8.9h-.3v-3.1h-.4v.8h-1.4v3.9h-.3v.6h-.3v-.5h-.9v.8h-.9v-4.2h-.3v2h-.3v-6.3h-1v1.8h-.7v-.1h-.3v-4.1h-.3v-.2h-.3v-.5h-.9v-6.3h-.9v-2h-.3v-.7h-.3v2.9h-.9v1.9h-1.7v-.3h-1.4v-1h-.3v-.7h-.3v2.7h-1v2.9h-.7v-3.5h-.3v-.4h-.3v-2h-.3v1.2h-.7v-.4h-.7v1h-.3v-1.6h-.3v-.4h-.3v2.2h-.7v-1.3h-.9v-.4h-.5v.7h-.3v-1.2h-.7v1.6h-1v1.1h-.3v-.3h-.3v3.2h-.4v-.7h-.7v.9h-.7v-3.7h-.3v-1.2h-.3v2.1h-.3v.7h-.7v-.7h-.7v.6h-.3v2.4h-.3v2.6h-.3v-.5h-.7v.4h-1v1.6h-.3v1h-.3v.3h-.7v1.7h-.7v6.3h-.3v1.5h-.3v-1h-.3v-2.3h-.7v.4h-1.1v1.5h-.3v3.3h-.3v-.8h-.4v-.2h-.7v1.1h39.4v-1.4z" fill="#9c9c9c"/><path d="m435.2 106.7v-1h.9v.6h.7v.3h-1.5zm18.3-4.8h-.3v-.5h-.3v-1.7h-.3v-.4h-.7v2.4h-.7v1.1h-.3v-.9h-.7v.6h-.7v-1.3h-.7v-.8h-.3v-.6h-.3v.4h-.3v-1.3h-.9v.3h-.7v-.3h-.3v-.3h-.3v1.3h-.3v-.4h-1.4v1h-.7v1.6h-.3v2.2h-.7v-.9h-1v2h-.3v1.1h12.7v-4.8zm128.5-33h-.7v.9h-.7v1.7h-.3v-1h-.3v-.1h-.3v-.6h-.7v.9h-.7v13h-.7v-.3h-.3v1h-.7v-1.8h-.7v-.3h-.3v-1.1h-.3v-1.3h-.3v.3h-.7v.4h-.7v.2h-.3v.6h-.3v.8h-.3v-.4h-1.4v.9h-.3v1.7h-.3v.9h-.7v-.1h-.7v-.2h-.7v.5h-.3v.6h-.3v1.4h-1v-1.8h-.7v-1h-.3v-1h-.3v.3h-.3v-.4h-.7v-1.4h-.7v-.5h-.3v-.8h-.3v1.8h-.3v.5h-.7v1.3h-.7v-1.5h-.3v1.3h-.3v.3h-.9v-1.5h-.9v-.2h-.3v1.4h-.3v1.5h-.3v.9h-1.4v-.8h-.3v-.6h-.7v-1h-.3v1.5h-.7v-.5h-.7v-.2h-.3v-2h-.3v-.4h-1v1.6h-.7v1.2h-.3v-2.8h-.3v-.8h-.3v-.2h-.7v.5h-1v-.9h-.7v.9h-.7v-3.4h-.7v-2.7h-.3v-.7h-.3v1.3h-1v1.3h-.7v-.1h-.3v.2h-.7v.2h-.3v1.5h-.7v.9h-1v-.5h-.3v1.3h-.3v-.3h-.7v1.9h-.7v1.5h-.3v-.7h-.7v1.9h-.9v-1.6h-.7v-.8h-.3v-1.5h-.3v1.4h-.3v-1.8h-.7v-1h-.7v.3h-.7v1h-.3v-.5h-.7v.8h-.7v2.5h-.3v-1.3h-.4v-.4h-.3v1.7h-.7v-1.5h-.7v-3.3h-.7v.7h-.3v-.8h-.7v.5h-.7v1.1h-.7v-.1h-1.7v.3h-.3v1.4h-.3v.9h-1v1.2h-1v1.5h-.3v-2h-.3v.9h-.7v-.4h-.7v1.5h-.9v-.6h-.3v.4h-.7v1.7h-.7v-.4h-.3v-.4h-.3v-.7h-1v2.5h-.7v.8h-.3v1h-.3v.2h-1v1h-.7v-.4h-.3v.4h-.3v-.6h-.3v.2h-.9v2h-.9v-1.3h-.3v-.7h-.3v-.5h-.7v1.4h-.7v-.4h-.3v-1.3h-.7v.3h-.3v1.8h-.7v.6h-.7v1.2h-.3v.2h-.3v2.2h-.3v1.1h-1.4-.7v.6h-.3v-1.8h-.7v.6h-1.7v-.3h-.7v.3h-1v.3h-.3v.6h-1v-.6h-1v-.4h-.6v1h-.3v-.5h-.7v.4h-.7v-.8h-.3v-.4h-1.2v1.4h-1.2v.2h-.3v.8h-1v1.1h-.7v.8h-.3v.2h-.3v.9h-.3v.6h-.7v-.3h-.7v-3.8h-.3v1h-.3v1.1h-.3v-.9h-.7v-.7h-.7v-.4h-.3v.3h-.7v1.8h-.3v.6h-.7v1.2h-1v.2h-.3v-.3h-.9v-1h-.9v.4h-.3v1.9h-.3v.4h-1.7v1.9h168v-37.8h-63.6zm-119.6 37.2h-.3v.5h.3zm-7.2 0h-.3v-.6h-.7v1.1h1zm2.4-.3h-.3v.4h-.7v.5h1v-.8z" fill="#717171"/><path d="m645.6 106.7v-37.5h-.2v-.4h-.3v.1h-.4v1h-.3v-.5h-.7v1.3h-.7v.6h-.3v.1h-.4v-.8h-.3v1.1h-.7v-.5h-.7v3.7h-.3v4.1h-.3-.4v-4h-.7v-.7h-.7v-2h-.3v2h-.3v1.6h-.4v4.5h-.7v.7h-.7v-1.2h-.3v1.5h-.3v-.7h-.4v2.3h-.7-.7v-3.4h-.3v3h-.3v1.4h-.4v1.5h-.8v-5.6h-.9v1.2h-.3v-4.7h-.4v-4h-.7v4.1h-.7v-3.4h-.3v-2.5h-.3v-.3h-.4v2.8h-.7v-1.8h-.7v-.7h-.3v-.6h-.3v.2h-.4v-.7h-.7v1.3h-.7v1.8h-.3v.5h-.3v.5h-.4v1h-.7v1.6h-.7v.5h-.3v-1.4h-.3v.1h-.4v-.7h-.7v1.5h-.7v1h-.3v.2h-.3v1h-.9v1.4h-.9v-.9h-.3v.8h-.3v2.6h-.4v2.2h-.7v3.5h-.7v-.8h-.3v-5h-.3v-1.9h-.4v3.9h-.7v-3h-.6v3h-.4v-4.5h-.3v.9h-.4v1.5h-.7v1.2h-.6v1.8h-.4v1.5h-.3v-.3h-.4v2.7h-.7v2.6h-.6v.1h-.4v-.1h-.3v-.8h-.9-.8v2.3h-.4v1.8h-.3v.2h-.4v.5h-.7v1.5h-.6v1.6h-.4v.5h-.3v1.3h-.9v1.8h-.8v-1.5h-.4v.3h-.3v.5h-.9v.8h-.8v-.6h-.4v-.3h-.3v-.8h-.4v-.3h-.7v1h-.6v.4h-.4v.9h-.3-.4v-.4h-.7v.6h-.6v.2h-.4v.7h-.3v1h-.4v.7h-.7v-2.6h-.6v-1.3h-.4v1.4h-.3v-2.9h-.4v-.2h-.7v.9h-.8v2.7h-.5v1.5h-.4v1.2h-.7v-.3h-.6v-.7h-.4v1h-.3v-1h-.4v.7h-.6v.4h-.7v-.4h-.4v-.3h-.3v.9h-.4v.2z" fill="#494949"/><path d="m31 146.4h-.3v-.7h.3zm2.1-.4h.3v2.4h.3v1h.7v1h.7v-.8h.7v-.4h.3v2.5h1.7v-1h.5v-.9h1.5v2h.3v-.5h.3v-.3h.6v.4h.7v-1h1v-.4h.3v-1.8h.3v2.4h.7v-.3h.7v-.5h.3v-.9h.3v-.3h1v.6h1v.5h.3v-.4h.3v.3h.7v-.2h.7v2.4h.3v1.3h.3v.4h1v-.7h.7v.4h.3v.5h.3v1h.8v.3h.7v.6h.7v-.2h.3v-.2h.3v-.2h1v.4h.7v1.1h.3v.3h.3v-.3h.3v.2h.9v-1h.9v.5h.3v-.6h.3v.6h.7v-1.1h.7v-.9h.3v-2.2h.7v-.8h.7v-.5h.7v.5h.3v-1.2h.3v.6h.3v1.8h.7v-.5h.7v.6h.3v.3h.6v-.4h.3v1.8h.7v1h.7v-.7h.3v.8h.3v.6h1v1.2h.7v1.9h.3v-1.5h.3v-2h.3v-.8h.7v-.5h.7v1.3h.3v-1.2h.3v6.9h.3v.6h.7v.6h.7v-1.3h.3v-.5h.3v-1.2h.3v.6h.7v-.3h.7v-2.8h.3v1.1h.8v.5h1v-.6h.7v1.4h.3v-.8h.3v-.5h1v-1.7h1v-.3h.3v.8h.3v-.6h.7v-.7h.7v-.4h.7v.6h.3v1.6h.7v1.4h.7v1h.3v-1h.5v-.4h.9v1.3h.7v.8h.3v.2h.6v-.2h.3v-.9h1.4v.2h.3v1.1h.3v1.2h.3v.3h.7v-3h.7v1.2h.3v-1.7h.3v-.8h1v-1.3h.7v-.6h.7v-1.1h.5v.2h.7v-.7h.7v-.6h.5v1.1h.5v-.6h.7v.4h.7v-2.1h.3v1h.4v.3h1v1.7h.7v-1h.3v-1h.3v-.6h.3v-.7h.9v.9h.9v3.5h.3v-.3h.3v1.8h.7v1h.7v.6h.3v.3h.3v-.6h.3v.4h.7v2.3h1v-.8h.3v-.3h.3v-1.5h1.4v-1.5h.3v-.3h.7v-.9h.3v-1h.9v.3h1.2v-.7h.3v.8h.7v-.4h1v-.5h.3v-.7h1v.5h.7v-1.2h.3v-.1h.3v-.3h1v.7h.7v-.2h.3v.3h.3v1.3h.3v1h.7v-2h.7v-.6h.3v1.2h.7v-1.8h.3v.7h.7v-.9h.7v-3.7h.3v1.3h.3v1.5h.3v-.3h.7v-1.1h.7v-1.1h.3v.5h.3v.5h.3v.5h.7v-1.5h.7v.7h.3v-1.8h.3v.5h.3v.3h.7v-1.4h.7v.4h.3v.3h.3v3.5h.9v-1.2h1.2v.2h.7v.8h.3v.3h.7v-1.9h.7v-1.1h.3v-.7h.3v1.6h.3v1.1h1.4v.7h.3v.4h.3v.3h.3v-.6h.7v-1.4h.7v.2h.3v1.9h.3v1.3h.3v-.3h1.4v1.2h.3v-.8h.3v.4h1.2v.7h.9v1h.7v-.4h.3v-.3h.7v-.8h.7v.7h.7v-.8h.3v-.2h1.4v1.1h.3v1.2h.3v.6h.3v-.8h1.7v-.9h.3v.4h.3v.7h.7v-.3h.7v.7h.7v.2h.3v-.8h.7v.3h.7v-2.9h.3v-1.1h1.2v.3h.9v.5h.5v-.7h.3v.4h.3v-.2h.7v-1h.7v.8h.3v-2.1h1.4v.8h.7v-1.8h.3v.2h.3v-.9h.3v.5h.7v-.7h.7v.6h.3v.3h.3v1.3h.3v1.4h.7v-.3h.7v1.4h.3v.6h.3v.9h.3v-1.3h1.1v-.5h1v-.3h.7v.3h.7v-1.1h.7v-.4h.7v-.6h.3v.5h.7v-.4h.7v-1h.3v.4h.7v-.2h.9v.4h.9v-.2h.3v.7h.3v-.3h.7v.6h1v-.9h.7v.2h.7v-.3h.7v-.6h.7v-.5h1v.5h.6v.8h.3v-.4h.3v2.1h.3v-.6h.7v.2h1v1.4h.7v-1h.7.7v1.9h.3v-2h.3v1.6h.3v.3h.7v1.4h.7v-.2h.3v1.2h.3v1.1h.3v-1.3h1.1v7.7h.7v3.7h.3v.9h.3v-.3h1.7v-1.1h.7v-.6h1.7v1.1h.3v.5h.3v.2h.3v-.4h.7v-.9h1v.9h.3v-.6h.3v-.9h1.4v1.5h.3v.3h.3v1h.3v-.2h1.1v-.8h.7v.3h1.7v.4h.6v-.7h.3v-1.2h.3v.3h.3v.5h.7v.9h.7v-.7h.3v1.6h.3v-.4h.3v3.8h.7v1.6h.7v1.1h.3v-.4h.3v-4.1h.3v-.5h.7v-1.9h.7v-.6h.3v.3h.5v-.3h1.3v1.2h.7v.3h.3v-.3h.5v-1.1h.9v1.7h.6v2.2h.3v.7h.3v-2.3h.3v-.4h.7v1.8h.7v-.2h.3v.7h.3v.7h.3v-1.7h1.7v3.3h.3v-2.2h.3v-.3h.7v-.3h.7v1.8h.3v1.5h.3v-2.7h.3v1.5h1.2v-.9h.7v-2.5h.3v1h.3v-.6h.3v.8h.7v.7h.7v-1.9h.3v.2h.3v-.2h.3v-1.2h.9v-.4h.9v-.9h.3v-1.1h.3v.2h.7v.5h.7v-1.2h.3v1.3h.3v1.3h.3v-.7h.7v.9h.7v-.4h.3v1.1h.3v-1.2h.3v1.8h.7v-1.5h.7v1.9h.7v.7h.3v-.8h.3v2.5h.7v-1.9h1v-1.9h.7v-2h.7v-1.1h.7v1h.3v2.6h.3v-1h1v-1.5h.7v1.4h.3v1.1h.3v-.8h.9v-1h1.5v-.3h.3v-.3h.7v.3h1v-1.2h.3v.6h.3v1.7h.7v-3.5h1v1.2h.3v-.7h.3v-3h.4v.3h.7v-.6h.7v-1.9h.3v-.3h.3v1.9h.3v-1.4h.7v-.2h.7v.5h.3v1.7h.3v-.6h.3v-1h.7v1h.7v.3h.3v-1.1h.3v-1.1h.3v.5h1.4.3v-.2h.3v.2h.3v.7h.9v1.3h.9v-1.1h.3v.1h.7v1.3h.7v-.3h.7v.3h.3v-.2h.3v1h.3v.6h.7v1.3h.7v-.2h.3v-2h.7v1.1h.7v.5h.7v-.4h.3v-.2h.3v-.7h.3v.8h.7v-.5h.7v-.6h.3v1h.3v.6h.3v.4h.7v1.6h1v.2h.3v-1.2h.3v-.4h.9v.2h.9v-.2h.3v1.2h.3v-.4h.3v-2h.7v-1.5h.7v.5h.7v-1.5h.3v-.9h.7v-.4h.7v6.3h.3v1.8h.3v-.9h.3v1.3h.7v.5h.7v-.6h.3v-.7h.7v-.7h.7v2.1h.9v.9h.3v-.2h.3v1.1h.4v.8h.7v-1.1h.7v.8h.3v-.4h.3v.7h.3v-.5h.7v-.4h.7v.2h.3v1.4h.3v.9h.3v2.7h.7v3.9h.7v1.7h.3v-4.1h.3v-1.3h.3v.4h1.4v3.8h.3v-1.7h.3v-1.2h.3v2.2h.9v-2.5h.9v1.6h.3v-.8h.7v-1h.7v1.2h.7v-1.3h.3v-.6h.3v.2h.3v2.6h.7v-1.4h.7v1.5h.3v.6h.3v-.5h.3v-.7h.7v2.1h1v-1.8h.3v1h.3v-.9h.7v-3.2h.7v.2h.3v-.9h.3v-1.5h1v.9h1.1v1.1h.3v-.3h.7v-.2h.7v.8h.7v5.9h.7v-2.2h.3v-.6h.7v.7h.7v1.9h2.4v-.6h.3v.2h.3v.4h43.5v-.9h.7v-.3h1v-1.3h.3v-1.6h1v-1.1h.7v.4h.3v1.9h.3v-1.8h.8v-.3h.8v-.7h.3v.6h.3v-2.1h.3v-.7h.7v.3h.7v1.4h.7v1.2h.8v-.8h1.4v-.3h.3v-1.1h.7v-.4h.7v-.6h.7v6h.3v-1.5h.3v-2.3h.3v.6h.7v-.2h.7v-.2h.3v-1h.3v2.4h.3v.8h.7v.5h.7v.8h.7v-1.6h.3v-.6h1.4v-1.9h.3v.7h.9v.8h.7v-1.2h.7v1h.3v.5h.3v1.7h.3v-1.7h.7v.3h.7v-1.1h.3v-2.2h.3v-.5h.3v-.3h.9v-.6h.9v.8h.3v-.7h.3v.4h1.4v-.4h.3v-.5h.3v.4h.3v.7h.7v.8h.7v.2h.3v.3h.3v-.3h.7v-.6h.7v-1.1h.7v-.3h.3v.8h.3v-1.7h.3v6.1h.7v2.2h.7v-1.6h.3v-2h.3v-2.3h.3v-.4h.9v.6h.9v-.5h.3v-.2h.3v-1.3h.7v-.6h.7v-1.1h.3v-.7h.3v-1.5h.3v.3h1.4v.2h.3v-1.2h.3v.6h.7v-1.1h.7v-.4h.7v.5h.3v.2h.3v.3h.3v.5h.7v-.5h.7v.5h.7v-.6h.3v-1.3h.7v.9h.7v.2h.3v-.2h.3v-.9h.3v1h1.4v.9h.3v.2h.3v-.6h.3v.9h1.4v-.2h.3v.7h.3v.3h.3v.2h.7v-.9h.7v.2h.3v.3h.7v-.4h1.2v-.5h.9v-.8h.3v1.7h.3v2.2h.7v-1.7h.7v1.7h.3v1.2h.3v-1.1h.3v1.2h.7v-.7h.7v.3h.3v-.7h.3v-.5h.3v.8h.7v.7h.7v-1.9h.3v-1h.7v-.5h.7v.9h.7v.8h.3v-.4h.7v.8h.9v-.9h.7v1.5h.3v.3h.3v.4h.3v-.5h.7v-.2h.7v2.8h.3v-.4h.3v-.2h.3v1.3h.7v-.7h.7v-.2h.3v-.6h.3v-1.1h.3v.5h.7v-.7h.7v.6h.3v.6h.3v-.3h1v-2.2h.7v.4h.3v.2h.8v-3.6h.3v-.7h.7v2h.7v-.3h.3v-.4h.3v-.3h.3v-.4h.7v-1.5h1v.4h.7v-.7h.9v-.9h.7v.6h.3v1h.3v1.6h1.7v-.3h.3v-2.9h.3v-.4h.3v-.7h.7v.6h.7v-1.8h.8v.3h.3v.8h1.4v-.6h.3v.2h.3v.2h.3v.2h.9v-.3h.9v.6h.3v-.3h.3v.4h1v-.8h.9v-1.3h.3v.3h.3v-.5h.7v1.2h.7v1.3h.3v-1.4h.7v.4h.9v-.3h.9v.7h.7v-2.3h.6v-.3h.7v-2.9h.3v-1.4h.3v-.2h.3v.8h.7v.9h.7v.8h.7v-.2h.3v-.7h1.4v-1.7h.3v1.4h.3v-.6h.3v-.9h.7v-.4h.7v-.5h.3v-.9h.7v.4h.9v.2h.9v-.5h.5v-.3h.3v.2h.7v1.1h.7v-.2h.3v-1h.3v.8h.3v.3h.7v-.2h1v.5h.3v1.3h.3v-.4h.7v.8h.7v.4h.7v-.8h.3v.9h1.4v1.1h.3v-.5h.7v.6h1.4v-.4h.3v.3h.7v-.2h.9v-.2h1v1h.3v.3h.3v.2h.7v.6h.7v.4h.7v.7h.9v-1h.9v.5h.3v5.3h.3v-.4h.3v1.2h.7v-.2h.7v.2h.3v.2h.3v-.2h1v1h.7v-.1h.3v.3h.6v-.3h.3v2.7h.7v1.4h.7v.6h.3v.6h.3v.4h.3v.2h.7v-.8h.7v-1.5h.3v1.9h.7v-.8h.7v-.5h.7v.4h.3v-.3h.3v-.3h.3v.5h.9v.5h.9v-.6h.7v.4h.7v-.2h1v1h.5v-.8h.3v-1.4h.7v-.7h.7v.6h.3v.3h.3v-.3h.3v-.8h.7v.4h1v.8h.3v-.4h.3v.2h.7v-.8h.7v.3h.3v-.4h.3v.8h.3v.2h.7v-1.2h1.1v1.3h.5v.9h.3v-.4h.7v-.3h.7v.1h.3v-.3h.7v-.4h.8v.8h.7v-.7h.3v4.5h.7v.4h.7v.7h1v.6h.3v.2h.3v.6h.7v-.4h.7v-.5h.3v.6h.3v-.4h.3v-.2h.7v1.2h.7v1h.3v.3h1.4v-.4h.7v.2h.3v-.3h.3v1h2.3v-.8h.3v-.6h.3v-.6h.7v.9h.7v-.5h.3v.4h.3v-.3h.3v-.8h.9v.8h.9v-.6h.3v.7h.3v.3h.7v-1.8h.7v-.6h.3.3v.3h.3v.5h.7v.2h1v-1.1h.3v.4h1v-.5h.7v-.5h.7v.6h.7v.4h.7v-1.1h1v.2h.3v-.2h.3v.2h.7v-.4h.7v-.8h.3v.6h.3v.4h1v.2h.7v.2h.3v-8.9h.3v-.9h.3v-.8h.7v1.6h.7v2.4h.3v1.6h1.7v-.5h.7v.2h.7v.5h.3v1.2h.7v.5h.6v-.4h.3v-.2h.3v1.1h.3v.8h.7v.5h.7v-.3h.3v1.3h.3v-1.4h1v-1.1h.7v-1h2.4v-.3h.3v-.7h.3v-.3h.3v-.5h.7v-1.1h.7v.7h.7v.8h.3v.4h.3v-.8h.7v-.4h.7v-.9h.3v1.9h.7v1h.7v-.6h1v.2h.3v1h.3v-.7h.9v-.2h.9v-.3h.3v-.6h.3v.4h.9v-.6h.9v-2.8h.3v-2.1h.3v-.5h.7v-.6h.7v-.2h.5v-.2h.7v.7h.9v-.5h.9v-3h.3v-.3h.3v4.3h1.4v-2.3h.3v.3h.7v-1.2h.7v.3h.7v2h.7v.8h.3v2.2h.7v4.4h.7v-1.9h.3v1h.3v4.4h.3v-1.4h.7v-1.3h.7v.5h.4v-2.7h.3v-.8h1.2v.7h.9v.8h.3v.2h.3v-1.6h.7v-2h.7v1.3h.3v.5h.3v1.4h.3v-.5h.7v-1.7h.7v.8h.3v-1.7h.3v1.4h.3v-2.1h.7v-.6h.7v.6h.3v.8h.3v-1h.3v-.4h.7v1.9h.7v.8h.7v-.3h.3v3.1h.3v2.3h.7v-3.1h.7v1h.3v-.4h.3v-.6h.9v2.3h.9v.2h.3v-2.9h.7v2.4h.7v-1.5h.7v-1.8h.7v-1.8h.3v.9h.7v-.8h.7v-2h.3v8.1h.3v.8h.3v2h.7v-.7h.7v.2h.3v-.3h.3v-.6h.3v.2h.7v1.1h1v1.9h.3v.3h.6v-1.4h.7v.5h.7v.2h.3v.3h.3v-1.2h.5v-35.5h-612.4z" fill="#eaeaea"/><path d="m374 146.4v-.2h-.3v1h-.3v-.8h-.7v1.8h-1v1.1h-.3v1.5h-.4v2.6h-.7v-.8h-.7v-1.9h-.3v1.3h-.3v.3h-.3v-1.1h-.7v.5h-.7v.5h-.3v5.1h-.3v2.8h-.9v1.5h-.9v2.8h-.3v-2.1h-.3v-3.3h-.3v-2.4h-.7v-1.3h-.7v.8h-.3v2.4h-.3v1.5h-.3v-1.6h-1.7v2.2h-.3v1.1h-.3v-1.4h-.4v.4h-.7v-.4h-.7v-.3h-.3v.9h-.3v-5.2h-.9v-1.6h-.9v-2.1h-.3v1.4h-.3v-1.4h-.3v-.3h-.7v1.3h-.7v-1h-.3v-1.8h-.3v-.5h-1.2v-1.3h-.9v-1.3h-.3v-.3h-.3v1.6h-.9v-.5h-.9v-.2h-.3v.5h-.5v1.8h-.7v.5h-.7v-1.5h-.3v-1.9h-.3v1.1h-.3v1.4h-.7v1.1h-.7v-1.7h-.7v-1.1h-.3v-1.1h-.7v-.7h-.7v1.1h-.3v-.6h-.3v-1h34.3v.7h-.6zm-35.8 1.6v-.3h.9v-.7h.7v-1.3h-8.9v.9h.3v1.2h.7v2.3h1v.3h.3v1.5h.3v1h.7v-1.5h1v-1.6h.3v-.7h.5v-1.3h1.7v.5h.5zm-12.5-2.2h-.3v.3h.3v-.2zm3.8.6v-.2h.7v-.5h-2.4v2.4h.3v-2.1h.3v.2h.3v.4h.7zm224.5-.8v.3h.3v.7h.7v-.5h.7v-.5z" fill="#ccc"/><path d="m30.3 182.8v-.5h-.7v-.7h-.6v1.3h-.4v.5h-.3v-1.7h-.4v-1.4h-.6v.5h-.7v-.7h-.4v.7h-.3v.1h-.9v1h-.8v-.2h-.4v-.4h-.3v-.9h-.4v.6h-.6v-.5h-.7v1.9h-.4v.8h-.3-.4v.4h.4.3.4.7.6.4.3.4.8.9.3.4.7.6.4.3.4.6.7.4v-.8z" fill="#ececec"/><path d="m57.1 184.2h.3v.03h-.3z" fill="#eaeaea"/><path d="m44 187.5h.7v.6h.4v-.4h.3v1.9h.4v-.8h.6v.3h.7v-1.1h.4v.1h.3v.5h.4v-.7h.6v.6h.7v.4h.4v-1.5h.3v-2.7h.4v.6h.6v-.6h.7v2.1h.4v-.4h.3v1.8h.4.6v1.4h.7v-.8h.4.3v-2.5h.3v-2.1h-11.9v5.3h.6z" fill="#eaeaea"/><path d="m59.5 187.9v2.3h.3v-.1h.3v.3h.7v-1.7h.7v-2.4h.4v-1.1h.3v.1h.3v-1.1h-3.9v3.7z" fill="#eaeaea"/><path d="m63.9 184.5h.4v-.3h-1.1v.8h.7z" fill="#eaeaea"/><path d="m71.1 184.2h.3v.06h-.3z" fill="#eaeaea"/><path d="m65.6 185v.2h.7v.9h.4v-.2h.3v-.8h.3v-.9h-2.4v.8z" fill="#eaeaea"/><path d="m57.1 222.1h-1.8v-5.3h.7v1.8h.7v2.8h.3v.7zm-13.7-7.4h-.4v-.9h-.3v-1.5h-.4v.3h-.7v1.4h-1v2.9h-.3v1.1h-1v.4h-.9v.6h-.5v.2h-.4v-1.3h-.7v-.5h-.6v-.2h-.4v.8h-.3v2h-.4v-.2h-.7v1.4h-.6v-.7h-.4v-3.4h-.3v-1.1h-1.1v1.8h-.6v-1h-.4v-.8h-.3v.5h-.4v-1.9h-.7v-.6h-.6v2.1h-.4v.5h-.3v-.6h-.4v-1.8h-.6v2.1h-.7v-.4h-.4v.4h-.3v-.4h-.9v2.3h-.8v.4h-.4v-1.4h-.3v-.7h-.4v-.7h-.6v.6h-.7v2.4h-.4v.7h-.3v1h-.4v1.6h22.7zm15.2 6.2h-.9v-.5h-.3v1.6h1.2v-1.2zm12.5.3h-.7v-1.8h-1v-.2h-.3v1.1h-.4v.9h-1.4v.8h3.8v-.9zm254.9-37v.4h-.3v-.4h-1.7v.9h-.3v.7h-.3v-.5h-.4v-.2h-.7v-.2h-.7v-.6h-.3v1.3h-.7v.3h-.7v2.4h-.7v2.2h-.3v.8h-.3v2h-.3v.4h-.7v-1.6h-1.7v-.5h-.7v1.5h-.7v-1.8h-.7v.8h-.3v2.3h-.7v-1.1h-.8v.5h-.3v.5h-.3v-2h-.9v3.1h-.9v-2.2h-.3v.3h-.3v3.8h-.3v-4.2h-.7v-1h-1v2.9h-.3v5.6h-.3v-3.1h-.7v-3.4h-.7v-6.1h-.3v-2h-.3v-1.5h-1v.7h-.7v.6h-.7v.7h-.3v-2.1h-.7v1.3h-1v.3h-.3v-1.7h-.7v1.3h-.7v.2h-.7v-.4h-.3v1.3h-.3v2.2h-1v-1.4h-.7v-.4h-.3v1.3h-.3v-3.9h-.3v.8h-.7v.7h-1v2h-.3v.3h-.3v.2h-.7v2.2h-.7v.2h-.3v.7h-.7v-.2h-2.1v.7h-.6v-.5h-.7v-2.1h-.7v-.9h-.7v-.6h-.3v-.7h-.7v.3h-.7v-1.4h-.3v1.7h-.3v.3h-.3v.8h-.7v-1.1h-.7v-1.1h-.3v-.8h-.3v2.2h-.3v-.2h-.7v-1h-.7v-.5h-.3v-1.1h-.3v-.2h-.3v-.7h-.7v.8h-1v-1.2h-.7v1.9h-.9v-.7h-.9v-1.1h-4.8v1.5h-.3v.9h-.3v-2.5h-4.1v9.4h-.3v.8h-.3v.9h-.4v-.7h-.7v3.2h-.7v-1.4h-.3v-.2h-.3v1.5h-.3v-.3h-1.4v.6h-.3v.2h-.3v-.3h-1.2v3.2h-.9v-1.1h-.3v.2h-.3v-.8h-1.4v-.6h-.3v-.6h-.3v-3.6h-1.7v1.5h-.3v-.5h-.3v2h-.7v.5h-.7v.5h-.7v.9h-.3v-2.4h-.7v-2h-.7v1h-.7v-1.8h-.7v-.5h-.3v-1.4h-1.4v-.5h-.3v.2h-.3v-.2h-1v.7h-.7v.9h-1.5v-.7h-.9v1.9h-.3v1.7h-.3v-.5h-.5v.2h-1.7v1.5h-.3v.6h-.3v.8h-.7v2.1h-.7v-4.1h-.3v2.1h-.3v-3.7h-.3v-10.2h-.7v-.4h-1v2.7h-.3v-1.1h-.9v.3h-.9v1.7h-.3v-1.1h-.3v-.9h-.3v-.3h-.7v-1.3h-.7v-.5h-.3v2.6h-.3v1.3h-.7v-1.5h-.7v-1h-.9v.7h-.4v-1.3h-.3v-.8h-4.1v3.8h-.3v1.3h-.3v-3.4h-.7v-.6h-.7v-.5h-.3v.6h-.3v-1.1h-13v1h-.7v2h-.3v-1.3h-.3v.3h-.3v1.3h-.7v-.5h-.7v2.6h-.3v1.5h-.7v-1.2h-.3v1.9h-.7v1.1h-.7v2.2h-.3v-1.2h-.3v-1.2h-.3v.2h-.7v-.9h-.7v-4.2h-.3v-2.1h-.3v2.8h-.3v-1.3h-1.4v.8h-.3v-.3h-.3v-1h-.3v-.2h-1.4v.8h-.3v-2.3h-.3v1.2h-.8v-1.3h-.7v-.7h-.7v1.6h-.3v.4h-.3v-.5h-.3v1.2h-.7v-1h-.7v-.7h-.3v.4h-.3v.2h-.3v.7h-.7v1.3h-.7v1.5h-.3v.7h-.3v-.3h-.9v-.8h-.9v1.3h-.7v-.3h-.3v-.4h-1.4v-.2h-.3v.6h-.3v-.9h-.3v.5h-.7v.7h-.7v1.2h-.3v.5h-.6v1.3h-.3v.8h-1.7v1.2h-.3v-.8h-.3v-.7h-.7v1.2h-.7v-1h-.3v-1h-.3v-.7h-.3v-.2h-.7v-1.3h-.7v.2h-.3v-1h-1.4v.4h-.7v.4h-.3v1.1h-.3v3.9h-.3v.8h-1.4v1h-1v-.3h-.3v-.5h-.9v.5h-.9v-.3h-.7v.4h-.7v-1.4h-.7v1.3h-.3v-.8h-.3v.7h-.3v-.6h-.7v.8h-.7v.4h-.3v-.4h-.7v.5h-.7v.7h-.7v1.7h-.3v-.7h-.3v-.6h-.3v-.4h-.7v-.5h-.7v.7h-.3v2.3h-.7v-1.1h-.8v-.4h-.7v1.5h-.3v.9h-.3v-.5h-.9v.2h-1.2v-.7h-.3v1.8h-.3v-.2h-.7v-.2h-.7v.6h-.3v-1.7h-.3v-.5h-.3v1.2h-.7v1.1h-.7v-.3h-.3v.6h-.3v1h-.3v-1h-.7v-.7h-.7v-.7h-.3v-1h-.7v-.3h-.3v-.9h-.7v2.5h-1v.4h-.3v-.7h-1.2-.9v-1h-.3v1.7h-.3v1.5h-1.4v-.4h-.3v-2.9h-.3v1.7h-1v-.2h-.7v-3h-.3v-.9h-.3v-.2h-.3v1.1h-.7v1.8h-.7v2.5h-.3v-1.1h-.7v-1.4h-.3v-.4h-.7v.9h-.7v-.4h-.3v2.8h-.3v-.7h-.3v4h-.7v1h-.7v-.5h-.3v-1h-.3v.7h-.3v.6h-.7v-.2h-.7v-1h-.7v-.8h-.3v1.8h-.7v-1.5h-.7v1.2h-.3v1.1h-.3v-.2h-.3v-.4h-.7v-.8h-.7v.6h-.3v.7h-.7v.3h-.9v-.6h-1.1v.4h-.3v.8h-.3v1h-.7v.7h-.7v1.1h-.3v1h-.3v-1.4h-.3v-.4h-.7v-3.8h-.7v2.7h-.3v.6h-.3v1.1h-.3v.7h-.7v-2.2h-.7v2.2h-.3v.4h-.3v-.7h-.9v-.6h-.9v-1.5h-.3v.4h-.3v2.8h-.3v2.3h-1.1v-3.1h-.7v1.5h-.3v-.7h-.3v-1.9h-.3v.8h-.7v-2.2h-.7v-.7h-.5v-.7h-.6v.3h-1.4v-.4h-.5v1h-.5v1.3h-.7v-.5h-.7v1.6h-.3v-.9h-.3v.2h-.4v-1.1h-.7v.5h-.7v-1.5h-.3v-1.1h-.3v-1.4h-.4v-1.6h-.7v1h-.7v1h-.3v-2.6h-.3v1.7h-.4v-.4h-.7v.9h-.8v1.5h-.5v.7h-.4v-.8h-.7v.2h-.7v.4h-.3v.9h-.3v1h-.4v-1.3h-.7v-1.8h-.7v-.5h-.3v-.4h-.3v2.2h-.4v-.6h-.7v-.5h-.7v.8h-.3v-1.9h-.3v4.3h-.4v2h-.7v1.2h-.6v.4h-.4v-.4h-1.4v-.5h-.7v6.1h-.6v-2.5h-.4v-1.5h-1.7v.8h-.3v.5h-1v1h-.8v1.1h-.3v2.2h573.8v-37.4h-319.5zm-261.1 35.9h-.3v1h-.3v.9h.7v-1.9z" fill="#ececec"/><path d="m224.6 222.1h-4.1v-.3h.3v-.3h.7v-.7h.7v-1h.3v.7h.5v.5h1v.9h.7zm3.4-.4h-.3v.4h.3zm295.7-36.9h-1v.2h-.3v-.8h-6.9v.3h-.7v.5h-.7v1.8h-.7v1.4h-.3v.7h-.3v-.6h-1.2v.9h-.9v-.5h-.3v-.4h-1v-.2h-1v.3h-.4v-.3h-.3v.3h-.7v-.5h-.7v.2h-.3v.4h-.3v.3h-.3v.3h-.7v-.1h-.7v.2h-.3v-.3h-.3v1.3h-.3v-1.2h-1.4v.4h-.3v-.2h-.3v.6h-.3v-.5h-.7v-.4h-.7v.3h-.3v-.2h-.3v1h-.3v.2h-1.4v.4h-.3v-1.5h-.8v1.6h-.3v-.4h-.7v-.6h-1v.3h-.3v-.2h-.9v-.2h-.9v.2h-1v-.2h-.7v1.2h-1v1.2h-.7v-.3h-1.4v.3h-.3v-.7h-.3v-1.7h-.3v-.8h-.7v-1h-.7v2.4h-.3v1h-.5v.3h-.3v.9h-.7v.4h-.7v.7h-.3v-.3h-1.2v-.3h-.9v.2h-.3v-1h-.3v.9h-1v-.3h-.7v.9h-.7v-.5h-.9v.7h-.9v-1.3h-.7v-.5h-1.7v-.5h-1.7v2.2h-.7v-.5h-.3v-.2h-.3v-.5h-.3v1.4h-.7v.1h-.7v1.6h-.3v-.6h-.3v2.5h-.3v-.5h-.7v1.7h-1v-1.9h-.3v-1.4h-.3v.8h-1.8v.2h-.5v-1.2h-.3v.4h-.7v.9h-.7v-.5h-.3v2h-.5v1.4h-.3v1.3h-.7v-1.6h-.7v.6h-.3v-2.6h-.3v-.5h-1v3h-.7v-.9h-.3v-.4h-.3v-.7h-.3v-.2h-1.4v-.4h-.3v-.9h-.3v-.6h-1v2.3h-.7v4.3h-.3v-.5h-.3v-.2h-.3v.8h-.7v-.2h-.7v.9h-.3v-.3h-.7v-1.5h-1.1v.4h-1v.2h-.3v.7h-.3v-.4h-.7v-.3h-.7v.3h-.3v-1.1h-.7v1.9h-.7v-1h-.7v-.7h-.7v1.7h-.3v-.2h-.7v-.6h-1v1.7h-.3v-.5h-.3v-1h-.7v1.6h-.7v-2.2h-.3v-.4h-2.6v.2h-.3v-.8h-.3v-.4h-1.4v-.3h-.3v1.1h-.7v.4h-2.1v.2h-.3v-1.2h-.7v.6h-.7v-.6h-.3v.5h-.3v-.3h-.3v.3h-.7v.1h-.7v1h-.3v.8h-.3v.7h-1v-.2h-.7v.9h-.7v-1.1h-1v.3h-.9v1.6h-.3v-.2h-.3v5.4h-.3v-1.7h-.7v.5h-1v.4h-.3v.6h-.3v1.2h-.7v.6h-.7v1.9h-.7v.3h-2.1v1.3h-.3v2.3h-.3v2.2h-1v-3h-.7v-4.3h-.3v1.9h-.3v-.4h-.3v2.3h-1.4v-.5h-.3v1.5h-.3v-.3h-.3v-.6h-.7v-2.8h-.7v-.3h-.3v-.8h-1.4v.7h-.7v-1.4h-.3v-.7h-.3v-.3h-.9v1.4h-.9v.9h-.3v-.5h-.3v1.1h-.3v3.2h-.7v-1.2h-.7v.6h-.6v-1h-.3v.6h-.3v-2.7h-.7v1.5h-.7v-.9h-.3v.9h-.7v2h-.7v-.7h-.7v.9h-.7v.2h-.3v-1.7h-.7v1.5h-1v-2.2h-.3v-1h-.3v-1.4h-.7v.7h-.7v-8h-.3v.4h-.3v-1.5h-1v1.5h-.7v.5h-.7v1.3h-.3v.7h-.7v-.2h-1v-1.3h-.3v1.1h-.3v-1.7h-.7v-.3h-.7v.5h-.3v.3h-.3v.7h-.3v2.3h-.8v-1.3h-.8v.5h-.3v-.2h-.3v.4h-.7v.7h-.7v-2.3h-.3v.6h-.3v1.5h-.3v.8h-.7v.2h-.7v2h-1.1v-1.6h-.3v2.4h-.3v1.3h-.7v-2h-.7v-.6h-.3v-1.2h-.3v.7h-.4v3.4h-.7v-.9h-.7v-1.6h-.3v1.5h-.3v.4h-.3v-3h-.7v1.7h-.7v-.7h-.3v-.5h-.3v2.7h-.9v1.2h-.9v1.7h-.7v.9h-.3v-.3h-.7v-1.6h-.7v-3.8h-.3v-.3h-.3v-1.7h-.3v-3.3h-.7v-.7h-.9v5.9h-.3v1.7h-.3v-1.9h-.4v.8h-.7v-1h-.7v3.7h-.3v-.6h-.3v.5h-.9v-.9h-.9v-4.3h-.3v2.9h-.3v-2.3h-.3v1h-1.4v.2h-.3v-3.7h-.3v-1.9h-.3v.5h-.9v-1.3h-.9v-1.6h-.3v-.4h-.3v1.1h-.9v.5h-.9v-.3h-.3v.9h-.5v1h-.7v1.3h-.7v-3h-.3v-.8h-.3v1.8h-1v2.1h-.7v-2.2h-.3v.6h-.3v-1.6h-1v-.2h-.7v3.2h-.3v-1.9h-.7v1.7h-.7v.8h-.9v.4h-.5v-1.1h-1.9v.5h-.3v.2h-.3v1.7h-.4v-1.6h-.7v1.8h-.7v-.9h-.3v-.6h-.3v.3h-.3v-1.3h-.7v-1.5h-.7v1h-.7v.5h-.3v1.8h-.7v1.2h-.7v-1.4h-.3v-1.2h-.3v.6h-.3v-1.1h-.7v2.7h-.7v10.1h-.3v1.4h319.3v-37.9h-121.8v.5zm-306 36.9h-.3v-.2h-.7v-1.6h-.7v-.9h-.3v1.6h-.3v-.8h-.4v-.3h-.7v1.8h-1.3v.6h-.3v-.3h-.7v-.9h-.7v-1.6h-.3v1h-.3v-1.1h-.3v-1.5h-.7v-.3h-1v1.8h-.3v-.2h-1v.5h-1v1.7h-.3v.6h-.3v.4h12.3v-.4zm-27.4.4v-.3h-.7v.3zm77.8-.5h-.3v-1.4h-.7v-.9h-1v-.9h-.3v-.2h-.3v2.4h-.7v.4h-.8v1h4.1v-.5zm31.5 0h-.6v.3h.7v-.4zm26-.4h-.3v.3h-.7v.2h-.6v.3h1.7v-.8zm-49.7.7h-.3v-.4h-.3v.5h.7zm-2.4.1h-.3v-.4h-.7v-.9h-.7v-.6h-.7v-.9h-.3v2.4h-.3v.5h3.1zm-4.1-.7h-.7v.8h.7z" fill="#cbcbcb"/><path d="m515.6 222.1v-.4h.3v-.3h.7v-1.4h.7v.2h.3v.3h.4v.4h.3v-.3h1.4v-.2h.3v-.4h.3v1.3h1.7v-1.5h.3v2.1h-6.9zm129.5-37.1h-.3v1.2h-.3v-.4h-.7v1.2h-.8v1.2h-.3v.6h-.3v-1.8h-.4v1.6h-.7v-2.5h-.7v1.7h-.3v2.2h-.3v-.9h-.3v-2.5h-.7v.4h-.7v-1.2h-.3v-.4h-.3v.4h-.3v2.2h-.7v1.2h-.7v-.6h-.3v1.9h-.3v-1.2h-.3v2.4h-.7v.6h-.7v-2.3h-.7v3h-.3v1.4h-.9v-3.2h-.9v2.2h-.9v-4.9h-.7v7.5h-.7v-3h-.3v-3.1h-.3v-.7h-.3v.3h-.7v-1.9h-.7v.4h-.3v.4h-.3v-.6h-.3v-2.6h-.7v.2h-.7v2.3h-.3v.6h-.3v.6h-.3v-.4h-.7v.7h-.7v.2h-.3v-1h-.3v-.5h-.3v-1.3h-.7v1.5h-1.1v2.6h-.3v.3h-.3v-1.4h-.9v.8h-.9v-.7h-.3v2.1h-.3v1.1h-.3v.8h-.7v1.1h-.7v3.8h-.3v-5.5h-.3v-2h-.3v3.9h-.7v-4.4h-.7v-2.8h-.3v-.8h-.3v2.5h-.3v-1.3h-.7v-.2h-.7v2h-.3v.6h-.7v.3h-.7v1.9h-1.4v2.1h-.9v-1.5h-.9v1.6h-.3v.3h-.5v-.5h-1.7v1.3h-.3v.9h-.3v.5h-.9v.5h-.9v-.2h-.7v.4h-2.4v-.4h-.3v-.8h-.7v-.6h-.7v2.6h-.3v-.8h-.3v-.2h-.5v.4h-.7v1.3h-.7v2.1h-.3v-.4h-.3v1.6h-.3v.7h-.7v-4h-1v1h-.3v-1.9h-.3v1.3h-.7v.8h-.9v.1h-.5v-.8h-.3v1.5h-.7v.2h-.7v-1h-.3v.3h-.3v-1.3h-1.7v-.3h-.3v-.6h-.3v.4h-.7v-.2h-.7v.4h-1v1.4h-.7v-.9h-1.4v6.5h-.3v.2h-.3v-.3h-1.7v1.2h-.3v.4h-1.4v.2h-.7v.5h-.3v1h-.3v.2h-1v.4h-1v1.8h-.3v.6h-.6v-.5h-.7v.2h-.7v.9h-.6v.8h-1v-1.6h-.7v.3h-.3v-1h-.3v-.7h-.3v.4h-.7v-.2h-.7v.8h-.3v-.6h-.3v.7h-1v1.1h-.7v-.5h-.3v1.3h-.3v-.3h-.9v-.5h-.9v-1.2h-.3v1.1h-.3v1.4h-.3v.3h-1.4v.2h-1v-.6h-.3v1.5h-.7v-.5h-1v-1.8h-.3v.6h-.3v-.5h-.7v1.6h-.7v1.6h-.3v-1.5h-.3v-.5h-.3v.6h-.7v-.4h-.7v.8h-.3v-.2h-.3v-.5h-.3v-.2h-.7v-.5h-.7v-.2h-.3v-1.3h-.3v-.2h-.3v.8h-.7v-.3h-.7v-.6h-.3v.5h-.8v.8h-1v.8h-.7v1.5h-.3v.9h-.3v1.6h-1v.8h-.7v1.4h-.3v-.8h-.7v1.4h-.9v-1.2h-.7v.7h-.3v-2h-.3v.9h-.3v-2h-.7v-1h-.7v1.4h-.7v.5h-.3v-1.4h-.7v1.3h-1v-.6h-.4v-.6h-.3v1.3h-.7v-.8h-.7v-2.4h-.3v-.6h-.3v-.2h-.3v.3h-.7v.8h-.7v2.5h-.3v.4h-.3v-.9h-.9v.7h-.9v.5h-.3v1.3h-.7v.4h-.7v.7h121.7v-37.6h-.5v.7z" fill="#9c9c9c"/><path d="m52.3 108.2h.3v1.2h.4v.3h.7v-1.1h1v-.5h.3v-.5h.3v.4h.7v.5h.7v2h.3v.2h.3v-.7h.3v1h.9v-1.7h.9v-1.3h.3v-.7h-7.4zm15.1-.8h1.4v-.2h-1.5zm2.1 0h.3v.4h.7v.8h.7v1.5h.3v-.3h.3v-1.5h.3v-.3h.7v-.5h.7v-.2h-4.1v.2zm-35 .8h.7v.4h.3v-.9h.3v-.4h-1.4v.9zm-10.3-.4h.8v-.5h-.8zm1.7.6h.3v-.3h1v.4h.7v1h.7v-.6h.4v-1.5h-3.1v1.1zm4.8-.4h.3v-.6h.3v.2h.7v-.3h-1.3z" fill="#eaeaea"/><path d="m30.7 144.9v.3h-1.7v-.3h.7v-1.2h.7v1.2zm3-.1v-.5h-.3v-1.9h-.7v1.7h-.7v1h2.4v-.4h-.6zm-8.7 0v.4h.9v-.4zm-1.2-.2v-.8h-.3v-2h-.4v-.2h-1.3v.4h-.4v-1.4h-.3v3.4h-.4v1.1h3.4v-.6h-.3zm45.3-.8h-.4v1.1h.7v-1.2h-.3zm250.2-34.2h-.3v.5h-.3v2.3h-1v-3h-.7v-2.3h-.3v.5h-.7v-.5h-2.4v.4h-.7v-.4h-.9v.9h-.3v1.5h-.3v-.3h-.9v2.4h-.9v-1h-.3v-1.4h-.3v2.9h-.3v-3.5h-.7v-1.2h-1.4v7.5h-.3v-1.3h-.7v-4h-.7v-2.2h-8.9v.3h-.7v-.3h-2.4v7.9h-.3v3.6h-.3v-.2h-.3v2.8h-.7v3.2h-.7v1.9h-.3v.8h-.3v-1.6h-.3v.4h-1.7v.3h-.3v.3h-.7v-.2h-.7v-2h-.7v-.7h-.3v-.5h-.3v-.5h-.3v.4h-.7v.3h-1v1.5h-.3v-.1h-.3v.2h-.7v-1h-.7v-.4h-.3v-.4h-.3v2h-1v-1.4h-.7v-.7h-.3v-.7h-.3v.2h-.3v1h-.7v.4h-1.1v-1.5h-.7v1.5h-.9v-1.5h-.9v-.5h-.3v.6h-.3v.4h-.3v1h-.7v-.3h-.7v-.9h-.3v1.7h-.7v-1.3h-.7v-.4h-.7v1.5h-.3v1.3h-.3v-1.3h-.3v-2h-.7v.6h-1v-2.1h-.3v-.9h-.3v-.3h-.7v-1.2h-.9v3.4h-.3v1.5h-.3v1.1h-.4v-.3h-.7v2.2h-.7v-1.9h-.3v.2h-.3v.4h-.3v-1.7h-.7v-.2h-1v-.3h-.3v.9h-1.2v.2h-.9v-1.4h-.3v-1h-.3v-.7h-.7v.7h-.7v-1.3h-.3v-.7h-.3v-2.1h-.3v2.1h-.7v-.3h-.7v.4h-.3v-.3h-.3v1.6h-.7v-.7h-.7v1.4h-.7v-1.6h-.3v.8h-.3v-.7h-.3v-2.6h-.7v.3h-.7v-1.4h-.3v.4h-.7v.4h-.7v2.4h-.7v.5h-.3v2.2h-.3v1.5h-.3v.8h-.7v-1.4h-.7v-.8h-.3v.6h-.3v-.6h-.9v-1.2h-.9v1.2h-.3v1.4h-.3v-.2h-.6v1.8h-.7v-.6h-.7v.7h-.3v1h-.3v-1.3h-.3v.2h-.7v-1.2h-.7v4.8h-.7v-1.8h-.3v-3.3h-.7v-.9h-.7v1.1h-.3v3.3h-.3v2.3h-.9v-.2h-.9v1.3h-.3v.2h-.3v1h-.3v.8h-.7v-.8h-.7v-1.4h-.3v.3h-.3v-.2h-.6v-2.5h-.7v-2.2h-.9v-.3h-.4v-.8h-1v-.7h-.9v1h-.5v-.4h-.3v1.1h-.7v1.9h-.7v1h-.3v1.3h-.3v2h-.3v-3.8h-.7v-1h-.7v-1.9h-.3v.4h-.3v-1.4h-.3v1.3h-.7v.3h-.7v-2.4h-.3v1.2h-.3v-.5h-1v-1.6h-.9v.3h-.9v.4h-.9v.3h-.7v.5h-.3v-.4h-.3v.4h-.3v-.4h-.7v-1.5h-.7v-.2h-.3v-.4h-.3v-.6h-.3v.5h-.7v1.2h-.7v-.2h-.3v-.7h-.3v-1.6h-.3v-.2h-.7v-.7h-.7v1.7h-.3v.2h-.7v1.6h-.7v.2h-.7v-.8h-.3v2.2h-.7v1.2h-.3v1.1h-.7v2h-.7v-2.7h-.3v-1.1h-.3v-1.6h-.3v.9h-.7v-2.2h-.7v-3.1h-.3v-2.1h-.3v1.6h-.3v-2.5h-.7v.4h-.7v1h-.3v.3h-.3v-1.7h-.3v.2h-1.4v.4h-.3v-2.3h-.3v1.2h-.8v-1.1h-.7v-1.5h-.7v1.2h-.3v.8h-.3v.9h-.3v1h-.7v-.5h-.7v-1h-.3v-.3h-.3v.4h-.3v-1.6h-.7v.6h-.7v.7h-.3v.7h-1.2v1h-.9v.4h-.3v-.3h-.3v-1.3h-.3v-.4h-.7v-.4h-1-.3v-.4h-.3v.8h-.7v1.6h-.7v-.2h-1v2.2h-.3v-1h-.7v-.2h-.7v1h-.3v-.6h-.3v.2h-.3v-1.4h-.7v1.3h-.7v-1h-.3v-2.9h-.3v.3h-.3v-.9h-.7v.3h-.7v-.8h-.3v-.5h-.3v.2h-.3v.9h-.7v-1h-.7v3.8h-.3v-1.6h-.3v-.4h-1v1h-.7v1.5h-.3v-.9h-.8v.9h-.3v-2h-.9v-.4h-.9v.4h-.7v1.3h-.7v-.4h-.7v.2h-.3v-.3h-.3v2.6h-1v1.6h-.7v.3h-.3v.3h-.3v2h-.3v-.2h-.7v-1.6h-1v-1.4h-.3v-.3h-.3v-.3h-.7v1.1h-.7v.5h-.3v1.8h-.7v-1.7h-.9v-1.1h-1v-.3h-.3v-.8h-.9v2.5h-.9v1.5h-.3v1.2h-.3v1.8h-.3v.2h-.7v1.6h-1v-1.3h-.3v-1.3h-.3v.6h-.7v2.2h-.7v1.6h-.3v.2h-.3v-1.1h-.3v-2.5h-1.4v-.7h-.3v.9h-.7v-.2h-.3v2.1h-.7v.2h-.7v-1.8h-.3v-.4h-.3v-1.6h-.3v1.2h-.9v-1.4h-.9v-3.9h-.3v3.9h-.3v.8h-.7v.4h-.7v-2h-.3v-4.4h-.3v1.7h-.3v3.2h-.7v-1h-.7v-5h-.3v.5h-.7v1.8h-.7v-.6h-.7v.3h-.3v-1.3h-.6v-2.4h-1v-2.2h-.7v-1.2h-.3v-.2h-.3v-1h-.3v1.6h-.7v1.7h-.7v-1.4h-.3v-1.6h-.3v.6h-.3v-1h-.7v-.3h-.7v-.4h-.7v.3h-.3v1.1h-.7v-1h-.7v-.3h-1v.6h-.7v.7h-1v.2h-.6v-.7h-.9v.7h-.9v.3h-.2v1.2h-.3v-.3h-.3v1.5h-.7v-.4h-.7v1.6h-.3v1.5h-.3v.5h-.3v.4h-.7v-4.5h-.7v4.1h-.3v2.7h-.3v-1.5h-.3v2.1h-.7v-2.1h-.7v-3.3h-.3v-.4h-1.2v1.2h-.9v-.5h-.3v.7h-.7v2.4h-1v-.7h-1v-1h-.3v.2h-.3v2h-.7v1.1h-.7v-.8h-.5v-.7h-.6v1.1h-.7v-.8h-1.2v.5h-.5v-.3h-.7v1.4h-.7v1.4h-.6v1.4h-.4v-.3h-.7v1.2h-.7v-.9h-.3v-.7h-.3v-.7h-.4v.6h-.7v.8h-.7v1.2h-.6v.6h-1v-.5h-.9v-.5h-.5v.5h-.4v1.2h-.7v1.4h-.7v-.2h-.3v1.2h-.3v-.3h-.4v-.6h-.7v-.2h-.7v-.2h-.3v.3h-.3v2.1h-1v-.6h-.8v.8h-.3v-1.5h-.7v-.5h-1.3v-.4h-.7v-.6h-.4v2.2h-1.4v-1.1h-.3v-.6h-.3v2.5h-.4v.4h-.7v-.8h-.7v13.5h-.3v-1.1h-.3v1.9h-.4v.5h572.1v-37.5h-326.4v2.4zm-267.3 35v-.5h-.8v-.6h-.6v-.3h-.4v.2h-.3v-.7h-.4v-1h-.7v-.2h-.6v.5h-.4v1.9h-.3v-.4h-.4v1h-.7v-.4h-.6v-.3h-.4v-1.8h-.7v-.8h-.7v1.6h-.6v-1.6h-.4v-.9h-.7v-.6h-.7v.2h-.6v.3h-.4v1.6h-1.4v1.4h-.8v.8h-.5v.5h-.4v-.7h-.7v.9h-.6v.3h16.1v-.4h-.4zm14.4-.7h-.8v-1.9h-.7v.5h-.3v-.6h-.3v2h-.4v-.2h-.7v-.2h-.7v-.5h-.3v-.4h-.3v.9h-1v1h-1v.2h6.9v-.7h-.5z" fill="#ececec"/><path d="m292.8 145.1v-7.7h.7v1.6h1.4v3h.3v3.1zm12-3.5h-.3v-2.3h-.3v.8h-.3v-.8h-.7v.7h-1v-.5h-.3v-.2h-.3v4.4h-.7v-.3h-.9v-1.2h-.3v-.2h-.3v2.4h-.4v-.3h-.7v.9h-.7v-1.2h-.7v.7h-1v.3h8.9v-3.5zm211.1-31.6h-.3v.3h-.7v1.2h-.7v2.4h-.7v.1h-.3v.4h-.3v.2h-1.2v1.7h-1.5v-.2h-1.4v-.4h-.3v-.4h-.5v-.4h-.3v-.5h-.7v1.1h-.7v-.2h-.7v1.3h-.3v.2h-.7v.7h-.7v-.4h-.3v-1.5h-.7v-2.2h-.7v-.5h-.7v.4h-.3v.2h-.3v.2h-1v.3h-.7v.6h-.3v.4h-.3v.4h-.3v.5h-.7v-.2h-.7v-.2h-.3v-.6h-.6v1.5h-.3v-.8h-1.4v-.3h-1.5v.5h-.9v.5h-.3v.7h-.3v-.2h-.3v.2h-.7v.7h-.7v.5h-.3v.2h-.3v.2h-.3v.7h-1.4v.4h-.3v.4h-.7v-.7h-.7v-2.7h-.7v-1.1h-.3v-.4h-.6v1.5h-.3v.6h-.7v1.8h-.7v.4h-.3v-.5h-.3v.2h-.9v-.4h-.9v.2h-.3v-.2h-.3v.4h-.3v-.2h-1.4v1.6h-.3v.9h-1.3v1.9h-.9v-1.5h-.3v-.3h-.3v-.9h-.9v.2h-.9v-.2h-.3v-.4h-.4v-.2h-.3v.3h-.7v.4h-.7v-.9h-1v.9h-1.4v1.7h-.3v.7h-.3v1.7h-.3v-.5h-.7v1.6h-.7v.4h-.3v-1.4h-.3v-1.8h-.3v.4h-.7v.9h-1.4v-1h-1v1.2h-.7v-1.5h-.3v.9h-.6v.8h-.3v3.1h-.7v-2.5h-.7v-1.2h-.3v-3.1h-.3v-.7h-.3v1.1h-.7v2.8h-1v-.9h-.3v-2h-1v-1.5h-1v-.5h-.3v-1.1h-.3v-.7h-.7v1.8h-.7v.3h-.3v-.6h-.3v.8h-.3v2h-.7v.2h-1v-1.1h-.3v.4h-.3v-.4h-1.2v1.5h-.7v-.2h-1v.6h-.7v-.6h-.7v.3h-.3v-.9h-.3v-.2h-.3v1.2h-.7v-1.7h-1v1.5h-.3v.7h-.3v.8h-.7v-.4h-.7v-.4h-.3v1.3h-.3v.4h-.3v-1.3h-.7v1.3h-.7v-2.1h-.3v-.9h-1.2v1.2h-.9v.4h-.6v.2h-.3v-.3h-.3v-.4h-.7v.4h-1.4v-.3h-1v-.4h-.7v-.3h-.3v-.5h-.3v.4h-.3v-.7h-1.4v-.2h-1v.3h-1.4v1.4h-.3v-.2h-.3v.3h-.3v-.3h-1v.6h-.7v3.2h-.3v.6h-.3v.5h-.3v-.2h-.7v-.4h-.7v.6h-.3v-.4h-.3v.5h-.3v.5h-.7v2h-.7v-.2h-.3v.6h-.3v-.5h-.3v.8h-.7v1.4h-.7v1.4h-.3v-.4h-.3v.4h-.9v-.6h-.9v1.1h-.3v1.2h-.3v.6h-.3v1.8h-1.1v-1.1h-.7v-4.1h-.3v.7h-.3v.4h-.3v.3h-.7v.3h-.7v-2.8h-.3v-1.3h-1.4v-.2h-.7v-1.3h-.7v1.7h-1v-.8h-.7v-1.2h-.3v-.5h-.3v-.2h-.9v.4h-.9v1.2h-.3v-.2h-.3v.8h-.3v2.3h-.7v-.8h-.7v1.4h-.5v-.9h-.7v-1.5h-.7v.8h-.6v-.4h-.3v-.3h-.3v-1.1h-.3v1.5h-.7v.3h-.7v1.4h-.3v1.1h-.3v.5h-.3v-.9h-.7v.8h-.7v.3h-.3v-2.2h-.3v-.3h-.3v-2.2h-.7v.6h-.7v-5.7h-.3v.9h-.3v-.2h-.3v-1.7h-.7v1h-.7v.8h-.8v.2h-.3v1.2h-.3v1h-.7v-.4h-.7v-.2h-.3v-.8h-.3v1.1h-.3v-1.1h-.7v-.6h-.7v.7h-.3v-.8h-.3v.8h-.3v1.6h-.8v-.3h-.8v-.4h-.3v-.4h-.3v-.2h-.7v.6h-1v.2h-.3v1.1h-.3v-.3h-.7v.5h-.7v2h-.9v1.1h-.3v1.7h-.3v-.2h-.7v-2.3h-.7v-.2h-.3v-.9h-.7v3.1h-.7v-1.1h-1v.9h-.3v.7h-.3v-1.6h-.7v.8h-.7v.5h-.3v-1.6h-.3v2.6h-.9v1.3h-1.2v-.2h-.3v.9h-.3v-.7h-1.4v-3.7h-.3v-2.8h-.3v-5.3h-.3v1.7h-.7v1.3h-1v1.7h-.3v4.5h-.3v-1.9h-.4v.2h-.7v-2h-.7v2.7h-.3v1.2h-.3v-.5h-.9v1.1h-.9v-3h-.3v2.1h-.3v-3.7h-.3v1.4h-.7v.2h-.7v-1.7h-.3v-2.5h-1.5v-2.4h-.9v-1.7h-.3v-.8h-.3v1.9h-.9v2h-.9v-.3h-.8v.3h-.7v1.2h-.7v-1.4h-.3v-.8h-.3v2h-.3v-.6h-.7v1.3h-.7v-1.5h-.3v-.3h-.3v-1.5h-1v-.5h-.7v2h-.3v-1.4h-.3v-.6h-.3v3.4h-.7v-1.1h-.9v.3h-.9v-1.1h-1.6v2.5h-.3v-.2h-.3v2.1h-.4v-.5h-.7v1.7h-.7v-2.1h-.3v-.6h-.3v1h-.3v.5h-.7v-1.3h-.7v.4h-.3v.5h-.3v.9h-.3v.2h-.7v1.5h-.7v-.9h-.3v.6h-.3v.7h-.3v-.6h-.7v1.2h-.7v7.8h-.3v1.5h-.3v-1.2h-.3v-2.5h-.7v.6h-1v1.7h-.3v-.2h-.8v.9h-.7v.5h-.7v.7h-.3v-.5h-.3v-.5h-.3v.6h-.7v2.4h-.7v.2h326.3v-37.7h-129.7v2.8zm-208 34.3h-.7v-1.2h-.3v1.5h-.3v.5h1.4v-.8zm7.9-.8h-.7v1h-.7v-2.2h-.3v1.1h-.7v1.6h2.4v-1.6z" fill="#cbcbcb"/><path d="m645.6 145.1v-21.1h-.2v.1h-.3v1.4h-.4v2.8h-.3v-.1h-.7v.7h-.7v2.5h-.3v-.1h-.4v-1.3h-.3v2h-.7v-1.3h-.7v-1h-.3v1.9h-.3v.1h-.4v-4.7h-.7v-.6h-.7v-1.4h-.3v1.5h-.3v-.2h-.4v3.6h-.7v.9h-.7v-.3h-.3v1.2h-.3v-1.2h-.4v1.7h-.7v.9h-.7v-2.2h-.3v.3h-.3v1.2h-.4v.7h-.8v-2.6h-.9v2.8h-.3-.4v-4.9h-.7v3.2h-.7v-2.8h-.3v-4.1h-.3v-.7h-.4v-.2h-.7v-3.3h-.7v-1.3h-.3-.3v1.1h-.4v-2.4h-.7v.4h-.7v3.1h-.3v1.5h-.3v1.4h-.4v.4h-.7v1.2h-.7v.9h-.3v-3.4h-.3v-1.3h-.4v-2.4h-.7v1.6h-.7v1.9h-.3v-.4h-.3v.8h-.9v.7h-.9v.5h-.3v2h-.3v1.7h-.4-.7v1.4h-.7v3.7h-.3v-4.8h-.3v-3.1h-.4v2.4h-.7v-5.4h-.6v-5.1h-.4v-.2h-.3v.5h-.4v-1h-.7v-.1h-.6v.5h-.4v.6h-.3v-.5h-.4v1.2h-.7v1.7h-.6v.7h-.4v-.2h-.3v1h-.9v-.1h-.8v1.6h-.4v.3h-.3v-.4h-.4-.7v.4h-.6v1.5h-.4v.4h-.3v1.7h-.9v1.9h-.8v-.2h-.4v-.1h-.3v-.8h-.9v-.3h-.8v-.4h-.4v-.1h-.3v-.5h-.4v-.7h-.7v1.3h-.6v1.5h-.4v.8h-.3v.1h-.4v-.1h-.7v.4h-.6v.6h-.4v1.3h-.3v1.4h-.4v.6h-.7v-1.2h-.6v-1.1h-.4-.3v-2.6h-.4v-.7h-.7v1.3h-.8v.5h-.5v.2h-.4v1.6h-.7v-.1h-.6v-1.3h-.4v1.1h-.3v-.5h-.4-.6v-.2h-.7v-.3h-.4v-.9h-.3v.7h-.4v.7h-.6v-.6h-.7v.7h-.4-.3v.9h-.4v-.1h-.6v-.2h-.7v4.9h-.4v-.1h-.3v.3h-.4v.3h-.6v-2.1h-.7v.3h-.4v-.8h-.3-.4-.6v.3h-.7v.2h-.4v-.2h-.3v1.8h-.4v-.5h-.6v-.2h-.7v1h-.4v2h-.3v-.7h-.4v.5h-.6v-.6h-.7v1h-.4v.6h-.3v2.2h-.4v.4h-.6v-.8h-.7v-.5h-.4v.1h-.3v1.1h-.4v.8h-.6v-.6h-.7v-.5h-.4v-1.2h-.3v.4h-.4v.3h-.6v.3h-.7v-1.1h-.4v1h-.3v-.1h-.9v-1h-.8v-.2h-.4v1.1h-.3v.9h-.3v.8h-.7v-.2h-.7v-.6h-.4v-.7h-.3v.3h-.3v2.1h-.7v-.5h-.7-.4v-1.8h-.3v.5h-.3v-.1h-.7v1h-.7v.8h-.4v-1.8h-.3v-.4h-.3v-.3h-.7v.1h-.7v.5h-.4v-.7h-.3v-.1h-.3v.1h-.7v-1.3h-.7v.8h-.4v-1.5h-.3v-.3h-.3v-3.2h-.7v.8h-.7v.5h-.4v-.3h-.3v.6h-.3v1.3h-.7v-.3h-.7v1h-.4v.4h-.3v1.5h-.3v.1h-.7v1.2h-.7v1.4h-.4v-.6h-.5v1.5h-.8v-1.2h-.7v-1h-.4v-2.6h-.3v1.5h-.3v-2.8h-.7v-1.4h-.7v.9h-.4v-.3h-.3v1h-.3v-.7h-.7v1.9h-.7v-.3h-.3v-.9h-.4v-.3h-.3v1.2h-.7v-.8h-.7v-3.6h-.3v.2h-.4v.5h-.3v-.8h-.7v.9h-.7v.9h-.3v.3h-.4v-1.2h-.8v.4h-.9v.2h-.3v1.6h-.4v.7h-.3v.8h-.7v.9h-.7v.4h-.3v1.2h-.4v-2.6h-.3v.6h-.7v.6h-.7v.1h-.3v.2h-.4v-.3h-.3v-.3h-.7v.8h-.7v-.5h-.3v.5h-.4v1.2h-.3v.5h-.7v.8h-.7v.9z" fill="#9c9c9c"/><text fill="#b7b7b7" font-family="Roboto Mono" font-size="12" transform="translate(23.1 53.5)">AAPL</text><text fill="#b7b7b7" font-family="Roboto Mono" font-size="12" transform="translate(23.1 92)">AMZN</text><text fill="#b7b7b7" font-family="Roboto Mono" font-size="12" transform="translate(23.1 130.5)">GOOG</text><text fill="#b7b7b7" font-family="Roboto Mono" font-size="12" transform="translate(23.1 168.9)">IBM</text><text fill="#b7b7b7" font-family="Roboto Mono" font-size="12" transform="translate(23.1 207.4)">MSFT</text></svg>