<svg height="256" viewBox="0 0 256 256" width="256" xmlns="http://www.w3.org/2000/svg"><path d="m.4 1.1h40.7v40.7h-40.7zm55.5 0v40.7h199.1v-40.7zm-31.2 75.1h-4.3l-8.6 4.9v6.3l5.6-3.2v14h-6v5.8h19.3v-5.8h-6zm-.1 83.2a20.1 20.1 0 0 0 3.2-4.5 9.2 9.2 0 0 0 1-4.4 7.1 7.1 0 0 0 -1.2-4.1 8.9 8.9 0 0 0 -3.5-2.8 14.4 14.4 0 0 0 -5.3-.9 16.4 16.4 0 0 0 -5.4.8 12 12 0 0 0 -4.4 2.1l2.3 5.2a15.7 15.7 0 0 1 3.7-1.8 10.9 10.9 0 0 1 3.4-.7c2.2 0 3.2.9 3.2 2.7s-.8 3.2-2.5 5l-9.1 9.5v5.4h19.6v-5.9h-10.6zm-1.7 65.2a6.3 6.3 0 0 0 4.3-6.2 6.8 6.8 0 0 0 -1.2-4 7.4 7.4 0 0 0 -3.5-2.7 13.8 13.8 0 0 0 -5.2-.9 17.5 17.5 0 0 0 -5.5.8 12.9 12.9 0 0 0 -4.4 2.1l2.3 5.2a13.5 13.5 0 0 1 3.6-1.8 9.1 9.1 0 0 1 3.5-.7 4 4 0 0 1 2.6.8 2.9 2.9 0 0 1 .9 2.3 2.1 2.1 0 0 1 -1 2 5.8 5.8 0 0 1 -3.1.6h-3.6v5.6h4.3a5.2 5.2 0 0 1 3.2.7 2.3 2.3 0 0 1 1 2.2 2.4 2.4 0 0 1 -1 2.3 5.6 5.6 0 0 1 -3.3.7 12.7 12.7 0 0 1 -7.4-2.5l-2.4 5.2a13.9 13.9 0 0 0 4.4 2.2 22.4 22.4 0 0 0 5.7.8 17.2 17.2 0 0 0 5.8-1 8.3 8.3 0 0 0 3.8-2.7 7.5 7.5 0 0 0 1.3-4.2 7.3 7.3 0 0 0 -1.3-4.3 7.3 7.3 0 0 0 -3.8-2.5zm33-111.6h31.3v-44.9h-31.3zm48 0h31.3v-44.9h-31.3zm48 0h31.2v-44.9h-31.2zm47.9 0h31.3v-44.9h-31.3zm-143.9 67.4h31.3v-44.9h-31.3zm48 0h31.3v-44.9h-31.3zm48 0h31.2v-44.9h-31.2zm-96 67.4h31.3v-45h-31.3zm48 0h31.3v-45h-31.3z"/></svg>