<svg xmlns="http://www.w3.org/2000/svg" width="650" height="315" viewBox="0 0 650 315"><title>voronoi-treemap</title><path d="M59.3,147.5l5,9.7,2.5-.5,4-12.7-4.3-3.6Z" fill="#999" stroke="#7c7c7c" stroke-width="0.66"/><path d="M96.2,143.4l-14.6-9.8-7.1,10.8,4.3,9.7,19.2-4Z" fill="#999" stroke="#7c7c7c" stroke-width="0.66"/><path d="M70.8,143.9l-4,12.7,12.1-2.5-4.3-9.7Z" fill="#999" stroke="#7c7c7c" stroke-width="0.66"/><path d="M76.7,130.3l-10.1,10,4.3,3.6,3.8,0.5,7.1-10.8Z" fill="#999" stroke="#7c7c7c" stroke-width="0.66"/><path d="M175.5,67L170.2,69l1.9,7.3L192,83.7l-2-15.5Z" fill="#bababa" stroke="#7c7c7c" stroke-width="0.66"/><path d="M173.2,100.8l19.2-13.6L192,83.7l-20-7.3L163.1,91Z" fill="#bababa" stroke="#7c7c7c" stroke-width="0.66"/><path d="M163.1,91l8.9-14.6-1.9-7.3L149,77.4Z" fill="#bababa" stroke="#7c7c7c" stroke-width="0.66"/><path d="M164.4,149.9l-8.9.4,4.9,13.6,11.2-3.2Z" fill="#d1d1d1" stroke="#7c7c7c" stroke-width="0.66"/><path d="M160.4,164l-4.9-13.7-6.3.3-10.1,12,10.3,8.1,7.7-1.5Z" fill="#d1d1d1" stroke="#7c7c7c" stroke-width="0.66"/><path d="M174.5,176.1l3-6.4-5.9-8.9L160.4,164l-3.2,5.2,5.9,13.4h1.6Z" fill="#d1d1d1" stroke="#7c7c7c" stroke-width="0.66"/><path d="M149.5,170.7l-4,10.9,17.7,1-5.9-13.4Z" fill="#d1d1d1" stroke="#7c7c7c" stroke-width="0.66"/><path d="M140.9,181.4l4.5,0.3,4-10.9-10.3-8.1-4.8,5.6Z" fill="#d1d1d1" stroke="#7c7c7c" stroke-width="0.66"/><path d="M177.5,169.7l-3,6.4,5.9,10.1,10.4-5.4,1.7-5.1Z" fill="#e2e2e2" stroke="#7c7c7c" stroke-width="0.66"/><path d="M196.9,191.4l-6.1-10.7-10.4,5.4,6.7,11.4Z" fill="#e2e2e2" stroke="#7c7c7c" stroke-width="0.66"/><path d="M192.6,175.7l-1.7,5.1,6.1,10.7,13.8-8.7Z" fill="#e2e2e2" stroke="#7c7c7c" stroke-width="0.66"/><path d="M151.7,124.1l9.9-.4,11.6-22.9L164,91.9l-18,7.2,1,22.2Z" fill="#9f9f9f" stroke="#7c7c7c" stroke-width="0.66"/><path d="M147.1,121.2l-1-22.2-5.8-2.6-6,16.9Z" fill="#9f9f9f" stroke="#7c7c7c" stroke-width="0.66"/><path d="M146.7,78.3l-6.5,18.2L146,99l18-7.2L149,77.3Z" fill="#9f9f9f" stroke="#7c7c7c" stroke-width="0.66"/><path d="M257.6,112.7l-3.4-2.7-14.6,16.4L246,136l11.6,1.2V112.7h0Z" fill="#bfbfbf" stroke="#7c7c7c" stroke-width="0.66"/><path d="M239.7,126.4l-11.5.3-5.1,10.2,9.8,10.9,3.7,0.2,9.4-12.1Z" fill="#bfbfbf" stroke="#7c7c7c" stroke-width="0.66"/><path d="M213.2,154.9l-0.5-13.3-16.3-8.1-7.9,4.1-3.7,17.2,11.5,9.6Z" fill="#bfbfbf" stroke="#7c7c7c" stroke-width="0.66"/><path d="M212.8,141.5l10.4-4.6,5.1-10.2-13.1-20.2-5-.6L195,119.3l1.4,14.1Z" fill="#bfbfbf" stroke="#7c7c7c" stroke-width="0.66"/><path d="M229.6,90.3L220.4,83l-19,2.8,8.7,20.1,5,0.6Z" fill="#bfbfbf" stroke="#7c7c7c" stroke-width="0.66"/><path d="M246.4,160.4l-9.7-12.3-3.7-.2-11.2,11.3,5.6,13.1Z" fill="#bfbfbf" stroke="#7c7c7c" stroke-width="0.66"/><path d="M213.2,154.9l8.5,4.3L233,147.8,223.1,137l-10.4,4.6Z" fill="#bfbfbf" stroke="#7c7c7c" stroke-width="0.66"/><path d="M177.3,128.8l11.2,8.7,7.9-4.1L195,119.3l-12.4-2.1Z" fill="#bfbfbf" stroke="#7c7c7c" stroke-width="0.66"/><path d="M161.6,123.7l0.8,7.2,14.9-2,5.3-11.6-11-13.3Z" fill="#bfbfbf" stroke="#7c7c7c" stroke-width="0.66"/><path d="M229.6,90.3l-14.6,16.2,13.1,20.2,11.5-.3L254.3,110Z" fill="#bfbfbf" stroke="#7c7c7c" stroke-width="0.66"/><path d="M171.8,161l5.7,8.7,17,6.6,1.9-12-11.5-9.6Z" fill="#bfbfbf" stroke="#7c7c7c" stroke-width="0.66"/><path d="M210.1,105.9l-8.7-20.1-9,1.3-19.2,13.6-1.6,3.2,11,13.3,12.4,2.1Z" fill="#bfbfbf" stroke="#7c7c7c" stroke-width="0.66"/><path d="M257.6,153.3V137.2L246,136l-9.4,12.1,9.7,12.3Z" fill="#bfbfbf" stroke="#7c7c7c" stroke-width="0.66"/><path d="M213.2,154.9l-16.9,9.5-1.9,12,16.3,6.4,16.6-10.4-5.6-13.1Z" fill="#bfbfbf" stroke="#7c7c7c" stroke-width="0.66"/><path d="M177.3,128.8l-14.9,2,2,19.1,7.3,11.1,13-6.2,3.8-17.2Z" fill="#bfbfbf" stroke="#7c7c7c" stroke-width="0.66"/><path d="M140.4,220.4l-11.5,5.3,7.7,9.9,9.3-7.1Z" fill="#d1d1d1" stroke="#7c7c7c" stroke-width="0.66"/><path d="M123.8,245.7l-5.9-15-5.3,2.5,6.6,14.6Z" fill="#d1d1d1" stroke="#7c7c7c" stroke-width="0.66"/><path d="M128.9,225.7l-11,5.1,5.9,15,13.2-5.9-0.4-4.3Z" fill="#d1d1d1" stroke="#7c7c7c" stroke-width="0.66"/><path d="M145.9,228.5l-9.3,7.1,0.4,4.3,12.7-5.7Z" fill="#d1d1d1" stroke="#7c7c7c" stroke-width="0.66"/><path d="M112.6,233.2l4.6-2.1,1.9-17.2-9.4-3.3-6.2,2.7Z" fill="#e3e3e3" stroke="#7c7c7c" stroke-width="0.66"/><path d="M94.3,192.9l9.2,20.3,6.2-2.7,3.1-14.6Z" fill="#e3e3e3" stroke="#7c7c7c" stroke-width="0.66"/><path d="M143.2,201.1L127,198.4l-4.5,14.3,12.9,10,5-2.3Z" fill="#e3e3e3" stroke="#7c7c7c" stroke-width="0.66"/><path d="M122.5,212.6l4.5-14.3L112.8,196l-3.1,14.6,9.4,3.3Z" fill="#e3e3e3" stroke="#7c7c7c" stroke-width="0.66"/><path d="M135.4,222.7l-12.9-10-3.4,1.2-1.9,17.2Z" fill="#e3e3e3" stroke="#7c7c7c" stroke-width="0.66"/><path d="M173.5,206.1l-30.3-5.1-2.8,19.3,9.3,13.8,24.2-10.8Z" fill="#9e9e9e" stroke="#7c7c7c" stroke-width="0.66"/><path d="M156.4,283l-0.9-.8-11.4-.5L143.4,292l12.9-4.6V283Z" fill="#bebebe" stroke="#7c7c7c" stroke-width="0.66"/><path d="M156.4,283l6.9-3V268.7h0l-10.2,3.4,2.4,10.1Z" fill="#bebebe" stroke="#7c7c7c" stroke-width="0.66"/><path d="M168.5,282.2l7.1-7.1-12.2-6.4v11.2Z" fill="#bebebe" stroke="#7c7c7c" stroke-width="0.66"/><path d="M142.2,310.7h22.2l3.3-11.1-2.1-6.4-9.2-5.7-12.9,4.6Z" fill="#bebebe" stroke="#7c7c7c" stroke-width="0.66"/><path d="M179.7,277.2l-4.1-2.2-7.1,7.1,1.7,5.8,9.1,1.5Z" fill="#bebebe" stroke="#7c7c7c" stroke-width="0.66"/><path d="M156.4,283v4.5l9.2,5.7,4.5-5.2-1.7-5.8-5.1-2.3Z" fill="#bebebe" stroke="#7c7c7c" stroke-width="0.66"/><path d="M144.6,274.9l-0.5,6.8,11.4,0.5-2.4-10.1Z" fill="#bebebe" stroke="#7c7c7c" stroke-width="0.66"/><path d="M178.3,310.7l0.4-10.3-11.1-.8-3.3,11.1h13.9Z" fill="#bebebe" stroke="#7c7c7c" stroke-width="0.66"/><path d="M167.7,299.6l11.1,0.8,0.5-11-9.1-1.5-4.5,5.2Z" fill="#bebebe" stroke="#7c7c7c" stroke-width="0.66"/><path d="M242.1,296.9l6.7-8.1v-2.5l-17.4,5.2,1.5,9Z" fill="#d2d2d2" stroke="#7c7c7c" stroke-width="0.66"/><path d="M209.7,262.3l-2.8,18,12,1.2,4.9-21Z" fill="#d2d2d2" stroke="#7c7c7c" stroke-width="0.66"/><path d="M248.9,286.3l0.2-13.4-10-14.1-15.4,1.9-4.9,21,3.2,5.4,9.3,4.4Z" fill="#d2d2d2" stroke="#7c7c7c" stroke-width="0.66"/><path d="M216.1,299.6l11.4,3,5.5-2.1-1.5-9-9.3-4.4-7.6,11.2Z" fill="#d2d2d2" stroke="#7c7c7c" stroke-width="0.66"/><path d="M205.3,290.4l9.2,7.8,7.6-11.2-3.2-5.4-12-1.2Z" fill="#d2d2d2" stroke="#7c7c7c" stroke-width="0.66"/><path d="M234.1,200.2l-1.7-.3-4.1,2.6,0.7,2.9,4.9,2.3,2.2-4.9Z" fill="#e5e5e5" stroke="#7c7c7c" stroke-width="0.66"/><path d="M252.6,201l2.1,4.3,3-1.9v-3.8h-4Z" fill="#e5e5e5" stroke="#7c7c7c" stroke-width="0.66"/><path d="M253.6,199.5h4v-5.2l-5.1,1.5Z" fill="#e5e5e5" stroke="#7c7c7c" stroke-width="0.66"/><path d="M231.2,186.5l0.7,2.9,2.6,0.8,2.4-1.6-2.7-4.6-0.9.2Z" fill="#e5e5e5" stroke="#7c7c7c" stroke-width="0.66"/><path d="M231.9,189.4l-2.3,2.8,1.7,2.8,2.7-.5,0.4-4.2Z" fill="#e5e5e5" stroke="#7c7c7c" stroke-width="0.66"/><path d="M254.7,205.3l-2.1-4.3-4.1-.2-1.6,4.1,3,3.5Z" fill="#e5e5e5" stroke="#7c7c7c" stroke-width="0.66"/><path d="M234.1,200.2l1.8,2.6h4.2l1.5-4.3-2.1-2.6-3.3.3Z" fill="#e5e5e5" stroke="#7c7c7c" stroke-width="0.66"/><path d="M234.1,200.2l2.1-3.9-2.1-1.9-2.7.5-0.9,1.7,1.9,3.3Z" fill="#e5e5e5" stroke="#7c7c7c" stroke-width="0.66"/><path d="M253,187.7l4.4-5.4-6-2.9-2.8,5.5h0Z" fill="#e5e5e5" stroke="#7c7c7c" stroke-width="0.66"/><path d="M245.1,176.4l-1.9,5.9,5.4,2.6,2.8-5.5Z" fill="#e5e5e5" stroke="#7c7c7c" stroke-width="0.66"/><path d="M252.5,195.9l5.1-1.5v-4.9l-4.7-1.8-3.4,3.9v1l1.7,2.8Z" fill="#e5e5e5" stroke="#7c7c7c" stroke-width="0.66"/><path d="M238.5,181.2l-0.3-4.9-5.1,1.2,2.5,4.6Z" fill="#e5e5e5" stroke="#7c7c7c" stroke-width="0.66"/><path d="M243.2,182.2l1.9-5.9-2.4-1.1-4.6,1.1,0.3,4.9,3.2,1.7Z" fill="#e5e5e5" stroke="#7c7c7c" stroke-width="0.66"/><path d="M234.1,194.3l2.1,1.9,3.3-.3,1.7-2.9-2.5-4.4-1.7-.2-2.4,1.6Z" fill="#e5e5e5" stroke="#7c7c7c" stroke-width="0.66"/><path d="M231.4,194.9l-1.7-2.8-3.8.2,1.1,4.9,3.5-.7Z" fill="#e5e5e5" stroke="#7c7c7c" stroke-width="0.66"/><path d="M238.9,210.1l1.9,0.9,3.9-.5-0.8-4.6-2.3-.7Z" fill="#e5e5e5" stroke="#7c7c7c" stroke-width="0.66"/><path d="M233.7,207.7l5.2,2.5,2.8-4.9-1.5-2.3h-4.2Z" fill="#e5e5e5" stroke="#7c7c7c" stroke-width="0.66"/><path d="M231.2,186.5l-4.4-1.8-2,2.7,1.1,4.9,3.8-.2,2.3-2.8Z" fill="#e5e5e5" stroke="#7c7c7c" stroke-width="0.66"/><path d="M241.7,182.9l-3.2-1.7-2.9,1-1.3,1.8,2.7,4.6,1.7,0.2,2.2-1.4Z" fill="#e5e5e5" stroke="#7c7c7c" stroke-width="0.66"/><path d="M226.8,184.7l4.4,1.8,2.2-2.4-3.7-3.2Z" fill="#e5e5e5" stroke="#7c7c7c" stroke-width="0.66"/><path d="M231.9,177.8l-2.2,3,3.7,3.2,0.9-.2,1.3-1.8-2.5-4.6Z" fill="#e5e5e5" stroke="#7c7c7c" stroke-width="0.66"/><path d="M243.4,192.7l-2.2.5-1.7,2.9,2.1,2.6,3.7-1v-3Z" fill="#e5e5e5" stroke="#7c7c7c" stroke-width="0.66"/><path d="M241.7,205.2l2.3,0.7,2.9-1,1.6-4.1-0.9-1.9-2.2-1.3-3.7,1-1.5,4.3Z" fill="#e5e5e5" stroke="#7c7c7c" stroke-width="0.66"/><path d="M257.6,182.4h-0.2l-4.4,5.4h0l4.7,1.8v-7.1Z" fill="#e5e5e5" stroke="#7c7c7c" stroke-width="0.66"/><path d="M247,210.2l2.9-1.9-3-3.5-2.9,1,0.8,4.6Z" fill="#e5e5e5" stroke="#7c7c7c" stroke-width="0.66"/><path d="M243.2,182.2l-1.5.7-0.9,4.5,3.5,2.4,2.5-.8,1.8-4h0Z" fill="#e5e5e5" stroke="#7c7c7c" stroke-width="0.66"/><path d="M230.5,196.6l-3.5.7,1.2,5.2,4.1-2.6Z" fill="#e5e5e5" stroke="#7c7c7c" stroke-width="0.66"/><path d="M251.3,195.4l-1.7-2.8-4.2,1.9v3l2.2,1.3Z" fill="#e5e5e5" stroke="#7c7c7c" stroke-width="0.66"/><path d="M249.6,192.6v-1l-2.7-2.7-2.5.8-1,2.9,2,1.8Z" fill="#e5e5e5" stroke="#7c7c7c" stroke-width="0.66"/><path d="M253,187.7l-4.3-2.7-1.8,4,2.7,2.7,3.4-4h0Z" fill="#e5e5e5" stroke="#7c7c7c" stroke-width="0.66"/><path d="M243.4,192.7l1-2.9-3.5-2.4-2.2,1.4,2.5,4.4Z" fill="#e5e5e5" stroke="#7c7c7c" stroke-width="0.66"/><path d="M252.6,201l1-1.5-1.1-3.6-1.2-.6-3.8,3.5,0.9,1.9Z" fill="#e5e5e5" stroke="#7c7c7c" stroke-width="0.66"/><path d="M64.3,269.8l-1-1.9-17.8-4.6L31.8,278.2l4.4,13.9L49.3,294Z" fill="#9d9d9d" stroke="#7c7c7c" stroke-width="0.66"/><path d="M36.1,261L29,269.4l2.8,8.8,13.7-14.8Z" fill="#9d9d9d" stroke="#7c7c7c" stroke-width="0.66"/><path d="M70.9,209.5L58,199.2l-11.4,7.1,4.8,9.1Z" fill="#bbb" stroke="#7c7c7c" stroke-width="0.66"/><path d="M75.3,207.2l-6.9-22.8-9.9,2.7-0.6,12,12.9,10.3,4.2-1.3Z" fill="#bbb" stroke="#7c7c7c" stroke-width="0.66"/><path d="M46.6,206.3L58,199.2l0.6-12-19.2,5.3Z" fill="#bbb" stroke="#7c7c7c" stroke-width="0.66"/><path d="M11.3,284.2l2.9,15.7,14.5,1.6,7.4-9.3-4.4-13.9-14.1-.2Z" fill="#d2d2d2" stroke="#7c7c7c" stroke-width="0.66"/><path d="M29,269.4L16.2,269l1.5,9,14.1,0.2Z" fill="#d2d2d2" stroke="#7c7c7c" stroke-width="0.66"/><path d="M14.2,299.8l-2.9-15.7-6.1-.7v15.3Z" fill="#d2d2d2" stroke="#7c7c7c" stroke-width="0.66"/><path d="M16.2,269l-11.1-.3v14.8l6.1,0.7,6.5-6.1Z" fill="#d2d2d2" stroke="#7c7c7c" stroke-width="0.66"/><path d="M110.8,147.5l16.2,5.8-4.1-8.3Z" fill="#e6e6e6" stroke="#7c7c7c" stroke-width="0.66"/><path d="M94.3,192.9l30.1,5,14.8-20.1L127,153.3l-16.2-5.8-17.3,3.6-7,23,5,17.1Z" fill="#e6e6e6" stroke="#7c7c7c" stroke-width="0.66"/><path d="M139.1,177.9L124.4,198l26.9,4.5Z" fill="#e6e6e6" stroke="#7c7c7c" stroke-width="0.66"/><path d="M77.1,182l14.3,9.1-5-17.1-12.1,2.7Z" fill="#e6e6e6" stroke="#7c7c7c" stroke-width="0.66"/><path d="M64.3,157.1l10.1,19.6L86.5,174l7-23Z" fill="#e6e6e6" stroke="#7c7c7c" stroke-width="0.66"/><path d="M175.5,67l10.7,0.9-0.8-10.6-10.6-.6Z" fill="#909090" stroke="#7c7c7c" stroke-width="0.66"/><path d="M190.2,51.7l-2-8.4-14.5-3.4,1.1,16.8,10.6,0.6Z" fill="#909090" stroke="#7c7c7c" stroke-width="0.66"/><path d="M205.1,42l1.6-12.2-7.9-3L195.4,39l6.5,4.2Z" fill="#909090" stroke="#7c7c7c" stroke-width="0.66"/><path d="M220.1,51l-15-9-3.2,1.2-4.1,8.2,9.3,13.8Z" fill="#909090" stroke="#7c7c7c" stroke-width="0.66"/><path d="M198.8,26.8l7.9,3,9.9-6.9-9.2-10.4-10.6,9.7Z" fill="#909090" stroke="#7c7c7c" stroke-width="0.66"/><path d="M201.9,43.2L195.4,39l-7.1,4.3,2,8.4,7.6-.3Z" fill="#909090" stroke="#7c7c7c" stroke-width="0.66"/><path d="M186.2,67.9l17.1,1.4,3.8-4.1-9.3-13.8-7.6.3-4.8,5.6Z" fill="#909090" stroke="#7c7c7c" stroke-width="0.66"/><path d="M196.8,22.3l10.6-9.7-6-6.9H191.1l0.4,13Z" fill="#909090" stroke="#7c7c7c" stroke-width="0.66"/><path d="M172.6,23.3l19-4.6-0.4-13H171.5Z" fill="#909090" stroke="#7c7c7c" stroke-width="0.66"/><path d="M205.1,42l15,9L231,39.3,216.6,22.9l-9.9,6.9Z" fill="#909090" stroke="#7c7c7c" stroke-width="0.66"/><path d="M195.4,39l3.4-12.1-1.9-4.6-5.2-3.6-19,4.6,1.1,16.6,14.5,3.4Z" fill="#909090" stroke="#7c7c7c" stroke-width="0.66"/><path d="M92.9,109l12.7,12.8,25.1,1.4,8.9-25L116.7,80.6,96.9,83.4l-2.8,3Z" fill="#b4b4b4" stroke="#7c7c7c" stroke-width="0.66"/><path d="M92.9,109L94,86.5,52,79.7l-1.8,34.2,25.7,8.4Z" fill="#b4b4b4" stroke="#7c7c7c" stroke-width="0.66"/><path d="M92.9,109L75.8,122.3l0.9,8,19.5,13.1,9.3-21.5Z" fill="#b4b4b4" stroke="#7c7c7c" stroke-width="0.66"/><path d="M146.7,78.3L128,60.2,116.7,80.7l22.8,17.6Z" fill="#b4b4b4" stroke="#7c7c7c" stroke-width="0.66"/><path d="M52.6,67.9L52,79.7l42,6.8,2.8-3L96.6,51.1,66.2,46.3Z" fill="#b4b4b4" stroke="#7c7c7c" stroke-width="0.66"/><path d="M64.3,157.1l33.8-7-1.9-6.7L76.7,130.3,59.3,147.5Z" fill="none" stroke="#7c7c7c" stroke-width="0.66"/><path d="M50.2,113.9l-0.8,14.2,10,19.4,17.3-17.1-0.9-8Z" fill="#b4b4b4" stroke="#7c7c7c" stroke-width="0.66"/><path d="M123,55.3L96.6,51.1l0.2,32.4,19.9-2.8L128,60.2Z" fill="#b4b4b4" stroke="#7c7c7c" stroke-width="0.66"/><path d="M96.2,143.4l1.9,6.7,24.7-5.1,7.7-21.6-25.1-1.4Z" fill="#b4b4b4" stroke="#7c7c7c" stroke-width="0.66"/><path d="M257.6,77.5l-24.6,1.8-6.5,8.6,31.1,24.8V77.5Z" fill="#d0d0d0" stroke="#7c7c7c" stroke-width="0.66"/><path d="M231,39.3L214.9,56.7l17.2,10L245,55.1Z" fill="#d0d0d0" stroke="#7c7c7c" stroke-width="0.66"/><path d="M233.1,79.3l24.6-1.8v-8L244.9,55.1,232.1,66.7Z" fill="#d0d0d0" stroke="#7c7c7c" stroke-width="0.66"/><path d="M214.9,56.7L203.3,69.3l23.3,18.6,6.5-8.6-1-12.6Z" fill="#d0d0d0" stroke="#7c7c7c" stroke-width="0.66"/><path d="M102.3,52L112,28.6,98.3,5.7H91.7L66.2,46.3Z" fill="#e3e3e3" stroke="#7c7c7c" stroke-width="0.66"/><path d="M134,5.7H98.3L112,28.6l16.7,1.1Z" fill="#e3e3e3" stroke="#7c7c7c" stroke-width="0.66"/><path d="M128.7,29.7L112,28.6,102.3,52,123,55.2Z" fill="#e3e3e3" stroke="#7c7c7c" stroke-width="0.66"/><path d="M192.4,87.1l-2.4-19L175.4,67,149,77.3l24.2,23.4Z" fill="none" stroke="#7c7c7c" stroke-width="0.66"/><path d="M149.3,150.7l-14.9,17.6,6.5,13.1,23.8,1.3,9.9-6.6,3-6.4-13.1-19.8Z" fill="none" stroke="#7c7c7c" stroke-width="0.66"/><path d="M174.5,176.1l12.6,21.5,23.6-14.8-33.3-13Z" fill="none" stroke="#7c7c7c" stroke-width="0.66"/><path d="M151.3,202.4l11.6,1.9,1.7-21.6-23.8-1.3Z" fill="#999" stroke="#7c7c7c" stroke-width="0.66"/><path d="M173.2,100.8L149,77.4l-2.3.9-12.5,35.1,17.5,10.8,9.9-.4Z" fill="none" stroke="#7c7c7c" stroke-width="0.66"/><path d="M257.6,153.3V112.7L220.4,83l-28,4.1-19.2,13.6-11.6,22.9,2.8,26.2,13.1,19.8,33.3,13Z" fill="none" stroke="#7c7c7c" stroke-width="0.66"/><path d="M162.9,204.3l10.6,1.8,13.6-8.6-12.6-21.5-9.9,6.6Z" fill="#999" stroke="#7c7c7c" stroke-width="0.66"/><path d="M149.3,150.7l15.2-.8-2.8-26.2-9.9.4-9.4,15.6Z" fill="#999" stroke="#7c7c7c" stroke-width="0.66"/><path d="M122.9,145l11.5,23.3,14.9-17.6-7-11-16.8-2Z" fill="#999" stroke="#7c7c7c" stroke-width="0.66"/><path d="M203.2,69.3L190,68.2l2.4,19,28-4.1Z" fill="#999" stroke="#7c7c7c" stroke-width="0.66"/><path d="M125.5,137.7l16.8,2,9.4-15.6-17.5-10.8Z" fill="#999" stroke="#7c7c7c" stroke-width="0.66"/><path d="M119.2,247.8l30.5-13.6-9.3-13.8-27.8,12.8Z" fill="none" stroke="#7c7c7c" stroke-width="1.53"/><path d="M112.6,233.2l27.8-12.8,2.8-19.3L94.3,193Z" fill="none" stroke="#7c7c7c" stroke-width="1.53"/><path d="M173.5,206.1l-30.3-5.1-2.8,19.3,9.3,13.8,24.2-10.8Z" fill="none" stroke="#7c7c7c" stroke-width="1.53"/><path d="M179.7,277.2l-1.4,33.5h23.8l5-32.1-20.9-5.2Z" fill="#bababa" stroke="#7c7c7c" stroke-width="1.53"/><path d="M187.1,261.9l13.2-9.9L186,236.5l-12.1,10.4-0.9,4.8Z" fill="#bababa" stroke="#7c7c7c" stroke-width="1.53"/><path d="M163.4,268.7l-18.8,6.3-2.4,35.7h36.1l1.4-33.5Z" fill="none" stroke="#7c7c7c" stroke-width="1.53"/><path d="M140.2,271l4.4,4,18.8-6.3,0.5-10.7L153,252.4l-9.8,3.8Z" fill="#bababa" stroke="#7c7c7c" stroke-width="1.53"/><path d="M163.4,268.7l16.4,8.5,6.6-3.8,0.8-11.5-14.2-10.2-9.1,6.3Z" fill="#bababa" stroke="#7c7c7c" stroke-width="1.53"/><path d="M209.7,262.3L200.2,252l-13.2,9.9-0.8,11.5,20.9,5.2Z" fill="#bababa" stroke="#7c7c7c" stroke-width="1.53"/><path d="M127.5,310.7L109,293.3l-3.9,17.3h22.4Z" fill="#bababa" stroke="#7c7c7c" stroke-width="1.53"/><path d="M153.2,232.6L131,242.5l12.2,13.7,9.8-3.8V232.6Z" fill="#bababa" stroke="#7c7c7c" stroke-width="1.53"/><path d="M114,270.8l26.2,0.3,3-14.8L131,242.5l-11.8,5.2Z" fill="#bababa" stroke="#7c7c7c" stroke-width="1.53"/><path d="M140.2,271l-26.2-.2-5,22.6,18.5,17.3h14.7l2.4-35.7Z" fill="#bababa" stroke="#7c7c7c" stroke-width="1.53"/><path d="M158.4,230.3l-5.2,2.3L153,252.4l10.8,5.6,9.1-6.4,0.9-4.8Z" fill="#bababa" stroke="#7c7c7c" stroke-width="1.53"/><path d="M173.9,223.3l-15.5,6.9,15.5,16.6L186,236.5Z" fill="#bababa" stroke="#7c7c7c" stroke-width="1.53"/><path d="M249.1,272.8l-10-14.1-29.4,3.6-4.4,28.1,10.8,9.1,11.4,3,14.7-5.7,6.7-8.1Z" fill="none" stroke="#7c7c7c" stroke-width="1.53"/><path d="M257.6,289.8V271.3l-8.6,1.5-0.3,15.9Z" fill="#b4b4b4" stroke="#7c7c7c" stroke-width="1.53"/><path d="M227.9,310.7l-0.4-8.1-11.4-3-3.3,11.1h15.1Z" fill="#b4b4b4" stroke="#7c7c7c" stroke-width="1.53"/><path d="M257.6,271.3V256.5l-18.5,2.3,10,14.1Z" fill="#b4b4b4" stroke="#7c7c7c" stroke-width="1.53"/><path d="M257.6,310.7V289.8l-8.9-1-6.7,8.1,5.4,13.8h10.2Z" fill="#b4b4b4" stroke="#7c7c7c" stroke-width="1.53"/><path d="M202.1,310.7h10.7l3.3-11.1-10.8-9.1Z" fill="#b4b4b4" stroke="#7c7c7c" stroke-width="1.53"/><path d="M247.5,310.7l-5.3-13.8-14.7,5.7,0.4,8.1h19.6Z" fill="#b4b4b4" stroke="#7c7c7c" stroke-width="1.53"/><path d="M257.6,69.5V30.1l-7.7-.8L232,40.5Z" fill="#d1d1d1" stroke="#7c7c7c" stroke-width="1.53"/><path d="M217.3,23.9L227,5.7H201.3Z" fill="#d1d1d1" stroke="#7c7c7c" stroke-width="1.53"/><path d="M257.6,30.1V5.7H242.8l7.1,23.6Z" fill="#d1d1d1" stroke="#7c7c7c" stroke-width="1.53"/><path d="M232,40.5l17.9-11.1L242.8,5.7H227l-9.6,18.1Z" fill="#d1d1d1" stroke="#7c7c7c" stroke-width="1.53"/><path d="M52.6,67.9L5.1,57.9v74.6L49.4,128Z" fill="#e2e2e2" stroke="#7c7c7c" stroke-width="1.53"/><path d="M22.4,197.2l17.8-4.9L26.7,175.1l-8,8Z" fill="#9f9f9f" stroke="#7c7c7c" stroke-width="1.53"/><path d="M42.1,150.8l20.2,2.4-8.8-17-12,8.3Z" fill="#9f9f9f" stroke="#7c7c7c" stroke-width="1.53"/><path d="M26.7,175.1l-0.5-5.3L5.1,163.7v17.8l13.5,1.6Z" fill="#9f9f9f" stroke="#7c7c7c" stroke-width="1.53"/><path d="M26.7,175.1l13.5,17.1,22.9-6.3,6.4-18.6-7.3-14.1-20.2-2.4L26.2,169.8Z" fill="#9f9f9f" stroke="#7c7c7c" stroke-width="1.53"/><path d="M22.4,197.2l-3.7-14L5.1,181.5v20.4Z" fill="#9f9f9f" stroke="#7c7c7c" stroke-width="1.53"/><path d="M42.1,150.8l-0.5-6.3-9.4-14.7L5.1,132.5v31.2l21.1,6.1Z" fill="#9f9f9f" stroke="#7c7c7c" stroke-width="1.53"/><path d="M53.5,136.1l-4.1-8.1-17.2,1.7,9.4,14.7Z" fill="#9f9f9f" stroke="#7c7c7c" stroke-width="1.53"/><path d="M69.6,167.3l-6.4,18.6,14-3.9Z" fill="#9f9f9f" stroke="#7c7c7c" stroke-width="1.53"/><path d="M257.6,219.5h-2.1l-7.5,8.1,4.2,6.1,5.4,0.6V219.5h0Z" fill="#bfbfbf" stroke="#7c7c7c" stroke-width="1.53"/><path d="M207.6,216.2l-0.6,9.1,3.7,0.7,4.7-9.2Z" fill="#bfbfbf" stroke="#7c7c7c" stroke-width="1.53"/><path d="M209.7,262.3l7.8-1,3.4-11.6-2-4-8.9-3.3-10,9.2Z" fill="#bfbfbf" stroke="#7c7c7c" stroke-width="1.53"/><path d="M229.9,259.8l-2.4-8.7-6.7-1.3-3.4,11.6Z" fill="#bfbfbf" stroke="#7c7c7c" stroke-width="1.53"/><path d="M257.6,153.3l-16.6,10.4,2.8,4.6h13.8V153.3Z" fill="#bfbfbf" stroke="#7c7c7c" stroke-width="1.53"/><path d="M189.9,219l-16,3.6v0.8l14.7,16,8.4-9.3Z" fill="#bfbfbf" stroke="#7c7c7c" stroke-width="1.53"/><path d="M228.9,205.4l-7.6,9.6,8.1,9.5,7.5-.7,3.9-12.9Z" fill="#bfbfbf" stroke="#7c7c7c" stroke-width="1.53"/><path d="M220.8,249.8l6.7,1.3,5.9-5.4v-2.2l-9.4-5.8-5.1,8Z" fill="#bfbfbf" stroke="#7c7c7c" stroke-width="1.53"/><path d="M199.9,251.7l10-9.2-0.2-4.8-8.4-7.8-4.3.2-8.4,9.3Z" fill="#bfbfbf" stroke="#7c7c7c" stroke-width="1.53"/><path d="M214.2,233.2l-4.5,4.5,0.2,4.8,8.8,3.3,5.1-8-0.9-2.5Z" fill="#bfbfbf" stroke="#7c7c7c" stroke-width="1.53"/><path d="M173.5,206.1l0.4,16.5,16-3.6,5.3-10.4-11.4-9Z" fill="#bfbfbf" stroke="#7c7c7c" stroke-width="1.53"/><path d="M214.2,233.2l8.8,2.1,6.4-10.8-8.1-9.5-5.9,1.8-4.7,9.2Z" fill="#bfbfbf" stroke="#7c7c7c" stroke-width="1.53"/><path d="M247,210.2l-6.2.8-3.9,12.9,4.3,3.9h6.8l7.5-8.1Z" fill="#bfbfbf" stroke="#7c7c7c" stroke-width="1.53"/><path d="M257.6,168.2H243.8l-1.1,6.9,14.9,7.1V168.2Z" fill="#bfbfbf" stroke="#7c7c7c" stroke-width="1.53"/><path d="M243.8,168.3l-2.8-4.6-13,8.1,3.8,5.9,10.9-2.6Z" fill="#bfbfbf" stroke="#7c7c7c" stroke-width="1.53"/><path d="M252.2,233.7l-4.2-6.1h-6.8v10l4.6,2.1Z" fill="#bfbfbf" stroke="#7c7c7c" stroke-width="1.53"/><path d="M229.4,224.5L223,235.3l0.9,2.5,9.4,5.8,8.1-5.8v-10l-4.3-3.9Z" fill="#bfbfbf" stroke="#7c7c7c" stroke-width="1.53"/><path d="M257.6,219.5V203.4L247,210.2l8.6,9.3h2.1Z" fill="#bfbfbf" stroke="#7c7c7c" stroke-width="1.53"/><path d="M247,210.2l10.6-6.9v-21l-14.9-7.1-10.9,2.6-7.1,9.6,4.1,17.9,11.9,5.7Z" fill="none" stroke="#7c7c7c" stroke-width="1.53"/><path d="M214.2,233.2l-3.5-7.2-3.7-.7-5.7,4.7,8.4,7.8Z" fill="#bfbfbf" stroke="#7c7c7c" stroke-width="1.53"/><path d="M183.8,199.7l11.4,9,0.5-.2-0.4-16Z" fill="#bfbfbf" stroke="#7c7c7c" stroke-width="1.53"/><path d="M257.6,234.4l-5.4-.6-6.2,6.1,1.9,5.8h9.7V234.4Z" fill="#bfbfbf" stroke="#7c7c7c" stroke-width="1.53"/><path d="M207.6,216.2l7.8,0.6,5.9-1.8,7.6-9.6-4.1-17.9-11.1-6.6-18.5,11.6,0.4,16Z" fill="#bfbfbf" stroke="#7c7c7c" stroke-width="1.53"/><path d="M257.6,256.5V245.6h-9.7l-1.2,2.1,2.7,9.7Z" fill="#bfbfbf" stroke="#7c7c7c" stroke-width="1.53"/><path d="M189.9,219l7.1,11.1,4.3-.2,5.7-4.7,0.6-9.1-11.9-7.7-0.5.2Z" fill="#bfbfbf" stroke="#7c7c7c" stroke-width="1.53"/><path d="M233.4,245.8l-5.9,5.3,2.4,8.7,8.3-1,0.3-9Z" fill="#bfbfbf" stroke="#7c7c7c" stroke-width="1.53"/><path d="M246,239.9l-4.6-2.1-8.1,5.8v2.2l5,4.1,8.3-2.1,1.2-2.1Z" fill="#bfbfbf" stroke="#7c7c7c" stroke-width="1.53"/><path d="M249.4,257.5l-2.7-9.7-8.3,2.1-0.3,9Z" fill="#bfbfbf" stroke="#7c7c7c" stroke-width="1.53"/><path d="M213.7,180.9l11.1,6.6,7.1-9.6-3.8-5.9Z" fill="#bfbfbf" stroke="#7c7c7c" stroke-width="1.53"/><path d="M17,60.4L16.5,43.9,5.1,41.3V57.9Z" fill="#d1d1d1" stroke="#7c7c7c" stroke-width="1.53"/><path d="M50.2,28.8L42,21.8,30.4,23l-4.7,7,0.9,5.3L38,41.7l10.7-5.4Z" fill="#d1d1d1" stroke="#7c7c7c" stroke-width="1.53"/><path d="M50.2,28.8L57.6,25,58.1,5.7h-13L41.9,21.8Z" fill="#d1d1d1" stroke="#7c7c7c" stroke-width="1.53"/><path d="M26.6,35.4L16.5,43.9,17,60.4l18.7,3.9,2.2-22.6Z" fill="#d1d1d1" stroke="#7c7c7c" stroke-width="1.53"/><path d="M26.8,5.7l3.6,17.3L42,21.8,45.1,5.7H26.8Z" fill="#d1d1d1" stroke="#7c7c7c" stroke-width="1.53"/><path d="M52.6,67.9L65,48.2,48.7,36.3,38,41.7,35.8,64.3Z" fill="#d1d1d1" stroke="#7c7c7c" stroke-width="1.53"/><path d="M5.1,27.1V41.3l11.3,2.6,10.1-8.5-0.9-5.3Z" fill="#d1d1d1" stroke="#7c7c7c" stroke-width="1.53"/><path d="M5.1,5.7V27.1l20.5,2.9,4.7-7L26.8,5.7H5.1Z" fill="#d1d1d1" stroke="#7c7c7c" stroke-width="1.53"/><path d="M50.2,28.8l-1.5,7.5L65.1,48.1l8.6-13.6L57.6,25Z" fill="#d1d1d1" stroke="#7c7c7c" stroke-width="1.53"/><path d="M91.8,5.7H58.1L57.6,25l16,9.4Z" fill="#d1d1d1" stroke="#7c7c7c" stroke-width="1.53"/><path d="M115.4,264.7l3.8-16.9-6.7-14.8-16.8,3.6-4.4,5.2,7.9,19.7Z" fill="#e3e3e3" stroke="#7c7c7c" stroke-width="1.53"/><path d="M5.1,268.7L29,269.5l7.1-8.5-6.4-20.4-6.4-1.2L5.1,248.3v20.4Z" fill="#e3e3e3" stroke="#7c7c7c" stroke-width="1.53"/><path d="M91.4,241.8l4.4-5.2L93,218.4l-16.1-5.9-9.2,16.3L75,241.6Z" fill="#e3e3e3" stroke="#7c7c7c" stroke-width="1.53"/><path d="M91.4,241.8L75,241.5,63.3,268l1,1.9,19.6,6.2,15.4-14.6Z" fill="#e3e3e3" stroke="#7c7c7c" stroke-width="1.53"/><path d="M5.1,248.3l18.1-8.9L5.1,226.1v22.2Z" fill="#e3e3e3" stroke="#7c7c7c" stroke-width="1.53"/><path d="M115.4,264.7l-16.1-3.2L83.8,276.1l8.2,16.7,16.6,2Z" fill="#e3e3e3" stroke="#7c7c7c" stroke-width="1.53"/><path d="M29,269.4l7.1,22.7L49.4,294l14.9-24.2-1-1.9-27.3-7Z" fill="none" stroke="#7c7c7c" stroke-width="1.53"/><path d="M103,212l-8.3-18.4L75.4,207.2l-0.2,1,1.8,4.3L93,218.4Z" fill="#e3e3e3" stroke="#7c7c7c" stroke-width="1.53"/><path d="M67.6,228.8l9.2-16.3-1.8-4.3-23.7,7.2L51,221.9Z" fill="#e3e3e3" stroke="#7c7c7c" stroke-width="1.53"/><path d="M103,212l-10,6.4,2.7,18.1,16.8-3.6Z" fill="#e3e3e3" stroke="#7c7c7c" stroke-width="1.53"/><path d="M39.4,192.4l12,23,23.7-7.2,0.2-1-6.9-22.8Z" fill="none" stroke="#7c7c7c" stroke-width="1.53"/><path d="M83.8,276.1l-19.6-6.2L49.4,294,55,310.7H85.5l6.6-18Z" fill="#e3e3e3" stroke="#7c7c7c" stroke-width="1.53"/><path d="M94.3,192.9L77.2,182l-8.7,2.4,6.9,22.8,19.3-13.6Z" fill="#e3e3e3" stroke="#7c7c7c" stroke-width="1.53"/><path d="M29,269.4l-23.9-.7v30.1l23.6,2.6,7.4-9.3Z" fill="none" stroke="#7c7c7c" stroke-width="1.53"/><path d="M5.1,298.9v11.8H29.8l-1-9.2Z" fill="#e3e3e3" stroke="#7c7c7c" stroke-width="1.53"/><path d="M63.3,267.9L75,241.5l-7.4-12.8L51,221.9,29.6,240.5l6.4,20.4Z" fill="#e3e3e3" stroke="#7c7c7c" stroke-width="1.53"/><path d="M105.2,310.7l3.5-15.9-16.6-2-6.6,18h19.6Z" fill="#e3e3e3" stroke="#7c7c7c" stroke-width="1.53"/><path d="M29.8,310.7H55L49.4,294l-13.2-1.9-7.4,9.3Z" fill="#e3e3e3" stroke="#7c7c7c" stroke-width="1.53"/><path d="M51.4,215.5l-12-23L5.1,201.9v24.1l18.1,13.3,6.4,1.2L51,221.9Z" fill="#e3e3e3" stroke="#7c7c7c" stroke-width="1.53"/><path d="M94.3,192.9l57,9.5L122.9,145,64.4,157.2,77.2,182Z" fill="none" stroke="#7c7c7c" stroke-width="1.53"/><path d="M201.3,5.7H171.5l4,61.3,27.8,2.3,27.7-30Z" fill="none" stroke="#7c7c7c" stroke-width="1.53"/><path d="M123,55.3l-56.8-9L52.6,67.9l-3.2,60.2,15,29.1L122.9,145l23.8-66.7Z" fill="none" stroke="#7c7c7c" stroke-width="1.53"/><path d="M257.6,112.7V69.5L231,39.3l-27.7,30Z" fill="none" stroke="#7c7c7c" stroke-width="1.53"/><path d="M91.8,5.7L66.2,46.3l56.8,9L134,5.7H91.8Z" fill="none" stroke="#7c7c7c" stroke-width="1.53"/><path d="M173.5,206.1l84.2-52.8V112.7L203.2,69.3,175.4,67,146.7,78.3,122.9,145l28.4,57.5Z" fill="none" stroke="#7c7c7c" stroke-width="1.53"/><path d="M134,5.7L123,55.3l23.7,23L175.5,67l-4-61.3H134Z" fill="#9e9e9e" stroke="#7c7c7c" stroke-width="1.53"/><path d="M173.9,223.3l-0.4-17.2L94.3,192.9l24.9,54.8Z" fill="none" stroke="#7c7c7c" stroke-width="2.4"/><path d="M173.9,223.3l-54.7,24.4-14,63h96.9l7.5-48.4Z" fill="none" stroke="#7c7c7c" stroke-width="2.4"/><path d="M257.6,310.7V256.5l-48,5.8-7.5,48.4h55.5Z" fill="none" stroke="#7c7c7c" stroke-width="2.4"/><path d="M257.6,5.7H201.3l56.3,63.8V5.7Z" fill="none" stroke="#7c7c7c" stroke-width="2.4"/><path d="M52.6,67.9L5.1,57.9v74.6L49.4,128Z" fill="none" stroke="#7c7c7c" stroke-width="2.4"/><path d="M5.1,201.9l72-19.9L49.4,128.1,5.1,132.5v69.4Z" fill="none" stroke="#7c7c7c" stroke-width="2.4"/><path d="M257.6,256.5V153.3l-84.2,52.8,0.4,17.2,35.7,39Z" fill="none" stroke="#7c7c7c" stroke-width="2.4"/><path d="M5.1,5.7V57.9l47.5,10L91.8,5.7H5.1Z" fill="none" stroke="#7c7c7c" stroke-width="2.4"/><path d="M77.1,182l-72,19.9V310.7h100l14-62.9L94.3,192.9Z" fill="none" stroke="#7c7c7c" stroke-width="2.4"/><path d="M91.8,5.7L52.6,67.9l-3.2,60.2L77.2,182l17.2,10.9,79.2,13.2,84.1-52.8V69.5L201.3,5.7H91.8Z" fill="none" stroke="#7c7c7c" stroke-width="2.4"/><path d="M257.6,5.7H5.1v305H257.6V5.7Z" fill="none" stroke="#7c7c7c" stroke-width="3.28"/><path d="M396.3,60.1l-9.9,7.3,1.6,8.7,13.8-2.6Z" fill="#999" stroke="#7c7c7c" stroke-width="0.79"/><path d="M368.3,63.2L362.6,71l-5.2,8.2-1.6,2.9,19.7-3.7-1.4-14.1-3.6-3.7Z" fill="#999" stroke="#7c7c7c" stroke-width="0.79"/><path d="M386.4,67.4l9.9-7.3-7.6-18.5-0.5.5-7,6.6-6.6,7-4,4.8,3.6,3.7Z" fill="#999" stroke="#7c7c7c" stroke-width="0.79"/><path d="M387.9,76.1l-1.6-8.7-12.2-3.1,1.4,14.1Z" fill="#999" stroke="#7c7c7c" stroke-width="0.79"/><path d="M444.7,48.3l-11.6-8.5-7.6,10.4,8.7,17.4,10.2-1.9Z" fill="#bababa" stroke="#7c7c7c" stroke-width="0.79"/><path d="M434.3,67.5l-8.7-17.4-11.7,3.2,1,17.8Z" fill="#bababa" stroke="#7c7c7c" stroke-width="0.79"/><path d="M425.5,50.1l7.6-10.4L412.5,24.5l-0.9.5-8.2,5.2-0.5.4,5.4,20.2,5.6,2.6Z" fill="#bababa" stroke="#7c7c7c" stroke-width="0.79"/><path d="M401.8,73.5l13-2.4-1-17.8-5.6-2.6-13.6,5.5Z" fill="#bababa" stroke="#7c7c7c" stroke-width="0.79"/><path d="M395.6,35.9l-6.9,5.7,6,14.6,13.6-5.5-5.4-20.2Z" fill="#bababa" stroke="#7c7c7c" stroke-width="0.79"/><path d="M445.2,10.3l-7.4,2.4-9,3.6-8.7,4.1-7.6,4.2,32.2,23.7Z" fill="#d1d1d1" stroke="#7c7c7c" stroke-width="0.79"/><path d="M588.1,196.6v4.1l7.8,5.5,5.9-7.5-4.8-5.3Z" fill="#e2e2e2" stroke="#7c7c7c" stroke-width="0.79"/><path d="M608.5,184.4l-4-4.5L597,193.3l4.8,5.3,6.8,0.6V184.4Z" fill="#e2e2e2" stroke="#7c7c7c" stroke-width="0.79"/><path d="M578.8,192.8l-5.1,5.7V199l8.7,6.9,5.7-5.1v-4.1Z" fill="#e2e2e2" stroke="#7c7c7c" stroke-width="0.79"/><path d="M595.4,169.4l-14.2-.3-8.6,10.3,6.3,13.4,9.3,3.8,8.9-3.3,7.6-13.4Z" fill="#e2e2e2" stroke="#7c7c7c" stroke-width="0.79"/><path d="M578.8,192.8l-6.3-13.4-9.9,11.9,11.1,7.2Z" fill="#e2e2e2" stroke="#7c7c7c" stroke-width="0.79"/><path d="M573,211.8h8.9l0.4-5.9-8.7-6.9-6.1,7.2Z" fill="#e2e2e2" stroke="#7c7c7c" stroke-width="0.79"/><path d="M582.3,205.8l-0.4,5.9h14.7l-0.7-5.5-7.8-5.5Z" fill="#e2e2e2" stroke="#7c7c7c" stroke-width="0.79"/><path d="M558.3,196.5l9.3,9.7,6.1-7.2v-0.4l-11.1-7.2Z" fill="#e2e2e2" stroke="#7c7c7c" stroke-width="0.79"/><path d="M607.2,211.6l1.4-4.4v-7.9l-6.8-.6-5.9,7.5,0.7,5.5h10.6Z" fill="#e2e2e2" stroke="#7c7c7c" stroke-width="0.79"/><path d="M482.1,265l-1.3-.2L463.1,276v5.2l11.6,2.5Z" fill="#9f9f9f" stroke="#7c7c7c" stroke-width="0.79"/><path d="M494.8,311.4l8.9-.6,6.2-14.6-26.4,3.7-0.3,11.3h11.6Z" fill="#9f9f9f" stroke="#7c7c7c" stroke-width="0.79"/><path d="M511.1,293.4l-2.2-14.9L500.4,268l-18.2-3-7.4,18.6,3.2,11.2,5.6,5.1,26.4-3.7Z" fill="#9f9f9f" stroke="#7c7c7c" stroke-width="0.79"/><path d="M474.7,283.6l-11.6-2.5v18.6l14.8-5Z" fill="#9f9f9f" stroke="#7c7c7c" stroke-width="0.79"/><path d="M465.9,309.6l9.6,1.2,7.7,0.5,0.3-11.3-5.6-5.1-14.8,5V309Z" fill="#9f9f9f" stroke="#7c7c7c" stroke-width="0.79"/><path d="M599,92l-3.7.6-0.6.9,0.5,4.9,3.8,1.6,2.2-.7,0.7-4.2Z" fill="#bfbfbf" stroke="#7c7c7c" stroke-width="0.79"/><path d="M605.4,71.4l-2.2.9,1.5,4.6,3.1-.3,1.4-4.6Z" fill="#bfbfbf" stroke="#7c7c7c" stroke-width="0.79"/><path d="M595.5,104.1l1.8,0.7,1.8-4.9-3.8-1.6-2.4,1.6Z" fill="#bfbfbf" stroke="#7c7c7c" stroke-width="0.79"/><path d="M599,92l2.8,3,2.8-1.1V90.3l-3.9-.9Z" fill="#bfbfbf" stroke="#7c7c7c" stroke-width="0.79"/><path d="M609.9,93.7l-0.4-4.1-2.4-.9-2.4,1.5v3.6l2.5,1.6Z" fill="#bfbfbf" stroke="#7c7c7c" stroke-width="0.79"/><path d="M609.9,93.7l-2.7,1.8-0.3,2.8,1.5,2.4h4.9l1.9-2.7L615,96.2Z" fill="#bfbfbf" stroke="#7c7c7c" stroke-width="0.79"/><path d="M604.7,90.3l2.4-1.5L606,82.9l-1.3-.6-3.4.9-1.6,2.5,1.2,3.7Z" fill="#bfbfbf" stroke="#7c7c7c" stroke-width="0.79"/><path d="M601.9,95l-0.7,4.2,0.8,0.5,4.8-1.4,0.3-2.8-2.5-1.6Z" fill="#bfbfbf" stroke="#7c7c7c" stroke-width="0.79"/><path d="M606,82.9l1.1,5.8,2.4,0.9,4-2.8-0.2-3.3-3.9-2.5Z" fill="#bfbfbf" stroke="#7c7c7c" stroke-width="0.79"/><path d="M622.4,79.2L619.2,74l-2.8-.5-1.9,5.2,1.1,2.4,4.8,0.9,2.5-2Z" fill="#bfbfbf" stroke="#7c7c7c" stroke-width="0.79"/><path d="M613.5,107.8l2.5-2.6-2.6-4.5h-4.9l-1.8,2.9,1.1,4.9Z" fill="#bfbfbf" stroke="#7c7c7c" stroke-width="0.79"/><path d="M609.4,81.1l3.9,2.5,2.3-2.6-1.1-2.4-4.7.6Z" fill="#bfbfbf" stroke="#7c7c7c" stroke-width="0.79"/><path d="M587.8,92.4l1.8,2.7,5.1-1.6,0.6-.9-2.2-5.3h-5Z" fill="#bfbfbf" stroke="#7c7c7c" stroke-width="0.79"/><path d="M623,97.8l0.8-3.3-5.4-1.8L615,96.2l0.2,1.7,4.7,3.1Z" fill="#bfbfbf" stroke="#7c7c7c" stroke-width="0.79"/><path d="M601.2,106.4l5.5,2.3h1l-1.1-4.9-3.3-.3Z" fill="#bfbfbf" stroke="#7c7c7c" stroke-width="0.79"/><path d="M599.6,85.7l1.6-2.5L598.9,80l-2.3.5-1.6,4Z" fill="#bfbfbf" stroke="#7c7c7c" stroke-width="0.79"/><path d="M609.8,79.3l4.7-.6,1.9-5.2-7.2-1.4-1.4,4.6Z" fill="#bfbfbf" stroke="#7c7c7c" stroke-width="0.79"/><path d="M618.4,92.7l5.4,1.8,1.7-7.3-4.5-1-3.2,2.7Z" fill="#bfbfbf" stroke="#7c7c7c" stroke-width="0.79"/><path d="M599,92l1.8-2.6-1.2-3.7L595,84.6l-0.4.2-1.5,2.6,2.2,5.3Z" fill="#bfbfbf" stroke="#7c7c7c" stroke-width="0.79"/><path d="M616,105.1l3.9-4.1L615.2,98l-1.9,2.7Z" fill="#bfbfbf" stroke="#7c7c7c" stroke-width="0.79"/><path d="M594.7,93.5l-5.1,1.6,3.2,4.9,2.4-1.6Z" fill="#bfbfbf" stroke="#7c7c7c" stroke-width="0.79"/><path d="M597.2,104.8l4,1.6,2.2-3.2-1.3-3.5-0.8-.5-2.2.7Z" fill="#bfbfbf" stroke="#7c7c7c" stroke-width="0.79"/><path d="M609.9,93.7l5.2,2.5,3.3-3.5-0.6-3.8-4.2-2-4,2.8Z" fill="#bfbfbf" stroke="#7c7c7c" stroke-width="0.79"/><path d="M604.7,82.3l1.3,0.6,3.4-1.8,0.4-1.8-2-2.6-3.1.3-0.7.8Z" fill="#bfbfbf" stroke="#7c7c7c" stroke-width="0.79"/><path d="M603.2,72.3l-4.8,2L600,78l4-.2,0.7-.8Z" fill="#bfbfbf" stroke="#7c7c7c" stroke-width="0.79"/><path d="M615.5,81l-2.3,2.6,0.2,3.3,4.2,2,3.2-2.7L620.4,82Z" fill="#bfbfbf" stroke="#7c7c7c" stroke-width="0.79"/><path d="M625.8,85.3L622.9,80l-2.5,2,0.6,4.3,4.5,1Z" fill="#bfbfbf" stroke="#7c7c7c" stroke-width="0.79"/><path d="M608.4,100.7l-1.5-2.4-4.8,1.4,1.3,3.5,3.3,0.3Z" fill="#bfbfbf" stroke="#7c7c7c" stroke-width="0.79"/><path d="M598.4,74.4L594.5,76l-1.2,1.5,3.3,3,2.3-.5,1.1-2Z" fill="#bfbfbf" stroke="#7c7c7c" stroke-width="0.79"/><path d="M590.2,81.6l4.4,3.2,0.4-.2,1.6-4-3.3-3Z" fill="#bfbfbf" stroke="#7c7c7c" stroke-width="0.79"/><path d="M604.7,82.3L604,77.8l-4,.2-1.1,2,2.4,3.2Z" fill="#bfbfbf" stroke="#7c7c7c" stroke-width="0.79"/><path d="M588.3,84l-0.2,3.5h5l1.5-2.6-4.4-3.2Z" fill="#bfbfbf" stroke="#7c7c7c" stroke-width="0.79"/><path d="M487.1,47.5h15.2l7.1-21.4L501,19l-13.5,3.2L482.3,40Z" fill="#d1d1d1" stroke="#7c7c7c" stroke-width="0.79"/><path d="M481.3,23.7l-3.1,9.6,4.2,6.6,5.2-17.7Z" fill="#d1d1d1" stroke="#7c7c7c" stroke-width="0.79"/><path d="M478.1,33.3l-9.5,3.9,2.9,9.7,12.3,4.2,3.2-3.6Z" fill="#e3e3e3" stroke="#7c7c7c" stroke-width="0.79"/><path d="M458.6,53.7l5.4,2.8,7.6-9.6-2.9-9.7-10.8,4.4Z" fill="#e3e3e3" stroke="#7c7c7c" stroke-width="0.79"/><path d="M474.3,61.9l9.6-10.8-12.3-4.2L464,56.5Z" fill="#e3e3e3" stroke="#7c7c7c" stroke-width="0.79"/><path d="M541.1,57.7l9.6,5.9,13.2-9.9-4-11.3-15.1-3.2Z" fill="#9e9e9e" stroke="#7c7c7c" stroke-width="0.79"/><path d="M545.4,35.8l-0.7,3.5,15.1,3.2,3.8-5.2L558.1,33Z" fill="#9e9e9e" stroke="#7c7c7c" stroke-width="0.79"/><path d="M559.4,69l7.9-13.8-3.4-1.4-13.2,9.9Z" fill="#9e9e9e" stroke="#7c7c7c" stroke-width="0.79"/><path d="M573.3,44.7l-9.6-7.4-3.8,5.2,4,11.3,3.4,1.4Z" fill="#9e9e9e" stroke="#7c7c7c" stroke-width="0.79"/><path d="M375.5,78.4l19.1,11-5.2-13.6Z" fill="#bebebe" stroke="#7c7c7c" stroke-width="0.79"/><path d="M355.8,82.1l-3,5.5-4.1,8.7-3.6,9-2.8,8.7,18.3,19.3,23.3-1L402,108.6l-7.4-19.2-19.1-11Z" fill="#bebebe" stroke="#7c7c7c" stroke-width="0.79"/><path d="M342.3,114.1v0.5l-2.4,9.4-1.8,9.5v0.3l20.6,5.8,2.1-6.1Z" fill="#bebebe" stroke="#7c7c7c" stroke-width="0.79"/><path d="M376,144.4l11.2-5.3-3.3-6.7-23.3,1-2.1,6.1Z" fill="#bebebe" stroke="#7c7c7c" stroke-width="0.79"/><path d="M409.6,128.5L402,108.6l-18.1,23.8,3.3,6.7Z" fill="#bebebe" stroke="#7c7c7c" stroke-width="0.79"/><path d="M370,198.7l-11.7-6.4-1.3,11.9Z" fill="#d2d2d2" stroke="#7c7c7c" stroke-width="0.79"/><path d="M364.6,156.5l12.4,0.4-1-12.4-9.6-2.7L361.9,153Z" fill="#d2d2d2" stroke="#7c7c7c" stroke-width="0.79"/><path d="M337.9,133.8l-1.2,9.3v2.2l13.9-1.6,2.2-5.7Z" fill="#d2d2d2" stroke="#7c7c7c" stroke-width="0.79"/><path d="M350.5,143.6l-13.9,1.6-0.5,7.5v5.4l13.1,4.2,6.1-9.7Z" fill="#d2d2d2" stroke="#7c7c7c" stroke-width="0.79"/><path d="M349.7,164.1l9.4,4.6,5.5-12.2-2.7-3.5-6.6-.4-6.1,9.7Z" fill="#d2d2d2" stroke="#7c7c7c" stroke-width="0.79"/><path d="M352.6,137.9l-2.2,5.7,4.8,8.9,6.6,0.4,4.5-11.3Z" fill="#d2d2d2" stroke="#7c7c7c" stroke-width="0.79"/><path d="M377,156.9l-12.4-.4L359,168.7l2.6,4.7,16.7,0.5Z" fill="#d2d2d2" stroke="#7c7c7c" stroke-width="0.79"/><path d="M336.1,162.3l0.6,9.4,13-7.6-0.5-1.8-13.1-4.2v4.3Z" fill="#d2d2d2" stroke="#7c7c7c" stroke-width="0.79"/><path d="M339.2,188.2l0.5,2.8,2.4,9.4,2.8,8.6,12-5,1.3-11.9-2.6-4.4Z" fill="#d2d2d2" stroke="#7c7c7c" stroke-width="0.79"/><path d="M349.7,164.1l-13,7.6V172l1.2,9.6,1.3,6.7,16.5-.4,5.9-14.4-2.6-4.7Z" fill="#d2d2d2" stroke="#7c7c7c" stroke-width="0.79"/><path d="M380,194.5l-1.6-20.6-16.7-.5-5.9,14.4,2.6,4.4,11.7,6.4Z" fill="#d2d2d2" stroke="#7c7c7c" stroke-width="0.79"/><path d="M442.6,197.6l-19.7-7.7-16.8,12.6L405,220.7l19.7,8.5,16.8-10.5Z" fill="#e5e5e5" stroke="#7c7c7c" stroke-width="0.79"/><path d="M487.1,246.9l7.4-28.9L468,207.6l-12.2,16.7,5.3,17.4Z" fill="#e5e5e5" stroke="#7c7c7c" stroke-width="0.79"/><path d="M506.2,242.2l7.9-16.5L494.5,218l-7.4,28.9,2.6,4.1Z" fill="#e5e5e5" stroke="#7c7c7c" stroke-width="0.79"/><path d="M424.7,229.2L405,220.7l-1.7,26.6,20-3Z" fill="#e5e5e5" stroke="#7c7c7c" stroke-width="0.79"/><path d="M461.1,241.8l-5.3-17.4-14.3-5.7-16.8,10.5-1.4,15.1,7.9,11.2,25.3-4.7Z" fill="#e5e5e5" stroke="#7c7c7c" stroke-width="0.79"/><path d="M442.6,197.6l-1.1,21,14.3,5.7L468,207.6Z" fill="none" stroke="#7c7c7c" stroke-width="0.79"/><path d="M463,265.4L489.7,251l-2.6-4.1-26-5.2-4.6,9,4.1,14.6H463Z" fill="#e5e5e5" stroke="#7c7c7c" stroke-width="0.79"/><path d="M430.1,265.3h30.5l-4.1-14.6-25.3,4.7Z" fill="#e5e5e5" stroke="#7c7c7c" stroke-width="0.79"/><path d="M402.1,265.2h28l1.1-9.9-7.9-11.2-20,3Z" fill="#e5e5e5" stroke="#7c7c7c" stroke-width="0.79"/><path d="M406.1,202.5l-26.2-8-2,.8-0.7,25.5L390,232l14.2,0.4Z" fill="#9d9d9d" stroke="#7c7c7c" stroke-width="0.79"/><path d="M377.3,220.9l-23.2,8.9,3.4,6.1,5.2,8.2,5.7,7.8,3.4,4.1L390,232Z" fill="#9d9d9d" stroke="#7c7c7c" stroke-width="0.79"/><path d="M345.1,209.7l3.6,9,4.1,8.7,1.3,2.4,23.2-8.9,0.7-25.5-33.1,13.7Z" fill="#9d9d9d" stroke="#7c7c7c" stroke-width="0.79"/><path d="M374.5,259.3l5.5,5.8h22.1l2.1-32.9L390,232l-18.3,24Z" fill="#9d9d9d" stroke="#7c7c7c" stroke-width="0.79"/><path d="M376,144.4l3.1,39.8,41.4-9.2-4-24.8-27.9-11.8Z" fill="#bbb" stroke="#7c7c7c" stroke-width="0.79"/><path d="M409.6,128.5l-20.9,9.9,27.9,11.8-3.3-20.5Z" fill="#bbb" stroke="#7c7c7c" stroke-width="0.79"/><path d="M422.9,189.9L420.5,175l-41.4,9.2,0.8,10.3,26.2,8Z" fill="#bbb" stroke="#7c7c7c" stroke-width="0.79"/><path d="M469.9,81.8L456.1,93.6l10,20.1,34.6-12.1Z" fill="none" stroke="#7c7c7c" stroke-width="0.79"/><path d="M514.1,225.7l18.2-37.9-37.9,11.5-2.1,17.9Z" fill="none" stroke="#7c7c7c" stroke-width="0.79"/><path d="M416.7,151.1l3,18.8,27.6-2.2-1.6-15.1-14.9-6.7Z" fill="none" stroke="#7c7c7c" stroke-width="0.79"/><path d="M419.7,169.8l3.2,20.1,13.2,5.2,13.5-22.3-2.3-5.2Z" fill="#d2d2d2" stroke="#7c7c7c" stroke-width="0.79"/><path d="M465.1,190.1l-6.7,13.7,33.9,13.3,2.1-17.9Z" fill="none" stroke="#7c7c7c" stroke-width="0.79"/><path d="M465.1,190.1l29.3,9.1,37.9-11.5,5.9-12.2V137.7l-8.2-17.3-29.4-18.9-34.6,12.1-10.8,9.6-3.4,5.5-6.2,23.7,1.6,15.1,2.3,5.2Z" fill="none" stroke="#7c7c7c" stroke-width="0.79"/><path d="M425,119.9l8.3,9,18.7-.2,3.4-5.5L441.4,106Z" fill="#d2d2d2" stroke="#7c7c7c" stroke-width="0.79"/><path d="M413.3,129.8l3.4,21.3,14.2-5.3,2.4-16.8-8.3-9Z" fill="#d2d2d2" stroke="#7c7c7c" stroke-width="0.79"/><path d="M433.3,128.9l-2.4,16.8,14.9,6.7,6.2-23.7Z" fill="#d2d2d2" stroke="#7c7c7c" stroke-width="0.79"/><path d="M458.4,203.8l6.7-13.7-15.5-17.4-13.5,22.3Z" fill="#d2d2d2" stroke="#7c7c7c" stroke-width="0.79"/><path d="M466.1,113.7l-10-20.1L441.4,106l13.9,17.3Z" fill="#d2d2d2" stroke="#7c7c7c" stroke-width="0.79"/><path d="M401.8,73.5L388.7,41.6l-0.5.5-7,6.6-6.6,7-6.2,7.5L362.6,71l-5.2,8.2-1.6,2.9Z" fill="none" stroke="#7c7c7c" stroke-width="1.84"/><path d="M444.5,65.6l0.2-17.3L412.5,24.5l-0.9.5-8.2,5.2-7.8,5.7-6.9,5.7,13.1,31.9Z" fill="none" stroke="#7c7c7c" stroke-width="1.84"/><path d="M445.2,10.3l-7.4,2.4-9,3.6-8.7,4.1-7.6,4.2,32.2,23.7Z" fill="none" stroke="#7c7c7c" stroke-width="1.84"/><path d="M595.4,169.4l14-17.1v-0.8l-10.2-22.1L568,133.7l-2.2,11.5,15.3,24Z" fill="#e6e6e6" stroke="#7c7c7c" stroke-width="1.84"/><path d="M638.9,148.5l-13.3-9.1-16.2,12.1v0.8l17.2,10.1Z" fill="#e6e6e6" stroke="#7c7c7c" stroke-width="1.84"/><path d="M595.4,169.4l-14.2-.3-22.9,27.3L573,211.8l34.2-.3,1.4-4.4V184.4Z" fill="none" stroke="#7c7c7c" stroke-width="1.84"/><path d="M643.2,143l-1.2-9.6-1.8-9.5h0L624.9,126l0.6,13.4,13.3,9.1,4.6-.4Z" fill="#e6e6e6" stroke="#7c7c7c" stroke-width="1.84"/><path d="M621.9,182.8l5.4,10.5,11.1,4.8,1.8-7,1.8-9.5,1-7.5L629.6,172Z" fill="#e6e6e6" stroke="#7c7c7c" stroke-width="1.84"/><path d="M629.6,172l13.3,2.1,0.3-2.1,0.6-9.7v-9.7l-0.3-4.6-4.6.4-12.4,14Z" fill="#e6e6e6" stroke="#7c7c7c" stroke-width="1.84"/><path d="M599.2,129.4l10.2,22.1,16.2-12.1L624.9,126Z" fill="#e6e6e6" stroke="#7c7c7c" stroke-width="1.84"/><path d="M568,133.7l-29.8,4v12.8l27.6-5.3Z" fill="#e6e6e6" stroke="#7c7c7c" stroke-width="1.84"/><path d="M595.4,169.4l13.2,15,13.3-1.6,7.7-10.8-3.1-9.5-17.2-10.1Z" fill="#e6e6e6" stroke="#7c7c7c" stroke-width="1.84"/><path d="M565.8,145.2l-27.6,5.3v25.1l20.1,20.9,22.9-27.3Z" fill="#e6e6e6" stroke="#7c7c7c" stroke-width="1.84"/><path d="M621.9,182.8l-13.3,1.6v22.7l18.7-13.8Z" fill="#e6e6e6" stroke="#7c7c7c" stroke-width="1.84"/><path d="M607.2,211.6l26.9-.2,0.7-1.7,3-9.2,0.6-2.4-11.1-4.8-18.7,13.8Z" fill="#e6e6e6" stroke="#7c7c7c" stroke-width="1.84"/><path d="M480.8,264.8L463.1,276V309l2.7,0.5,9.6,1.2,9.7,0.6h9.7l8.9-.6,7.4-17.5-2.2-14.9L500.4,268Z" fill="none" stroke="#7c7c7c" stroke-width="1.84"/><path d="M504.4,310.8l9.6-1.2,9.5-1.8,2.3-.6-2.2-13.3-12.5-.5-7.4,17.5h0.8Z" fill="#e5e5e5" stroke="#7c7c7c" stroke-width="1.84"/><path d="M508.9,278.5l11.6-3.6-2.4-14.6L502,264.6l-1.7,3.4Z" fill="#e5e5e5" stroke="#7c7c7c" stroke-width="1.84"/><path d="M520.5,274.9l-11.6,3.6,2.2,14.9,12.5,0.5Z" fill="#e5e5e5" stroke="#7c7c7c" stroke-width="1.84"/><path d="M478.2,257.2l2.6,7.6,19.5,3.2,1.7-3.4-6-17Z" fill="#e5e5e5" stroke="#7c7c7c" stroke-width="1.84"/><path d="M463,265.4V276l17.8-11.2-2.6-7.6Z" fill="#e5e5e5" stroke="#7c7c7c" stroke-width="1.84"/><path d="M518.1,260.2L516.4,250l-10.2-7.8L496,247.7l6,17Z" fill="#e5e5e5" stroke="#7c7c7c" stroke-width="1.84"/><path d="M617.3,244l5.2-8.2,4.7-8.5,4.1-8.7,2.9-7.3-40.1.3,5.9,27.4,15.9,6.8Z" fill="#909090" stroke="#7c7c7c" stroke-width="1.84"/><path d="M605.4,259.3l6.2-7.5,4.3-5.9L600,239.1l-10.2,10.3,9.6,16.4Z" fill="#909090" stroke="#7c7c7c" stroke-width="1.84"/><path d="M588.1,276l3.6-3,7-6.6,0.6-.6-9.6-16.4-20.3,2.4Z" fill="#909090" stroke="#7c7c7c" stroke-width="1.84"/><path d="M573,211.8l-9.7,31.9,6.2,8.1,20.3-2.4L600,239.1l-5.9-27.4Z" fill="#909090" stroke="#7c7c7c" stroke-width="1.84"/><path d="M516.4,250l9.5,57.1,7-1.8,9.2-3,9-3.6,8.7-4.1,8.5-4.7,8.2-5.2,7.8-5.7,3.8-3.1-24.8-32.2Z" fill="#b4b4b4" stroke="#7c7c7c" stroke-width="1.84"/><path d="M556.3,230l9,7.2,5.2-17.1-10.9-.8Z" fill="#d0d0d0" stroke="#7c7c7c" stroke-width="1.84"/><path d="M538.2,175.5l-6.4,13.2,16.8-2.4Z" fill="#d0d0d0" stroke="#7c7c7c" stroke-width="1.84"/><path d="M506.2,242.2l10.2,7.8,5.8-.8-11.5-16.4Z" fill="#d0d0d0" stroke="#7c7c7c" stroke-width="1.84"/><path d="M510.7,232.8l11.5,16.4,21-2.8,4.6-15.5-3.4-9.9-23-10.5Z" fill="#d0d0d0" stroke="#7c7c7c" stroke-width="1.84"/><path d="M563.3,243.8l2-6.6-9-7.2-8.6,1-4.6,15.5Z" fill="#d0d0d0" stroke="#7c7c7c" stroke-width="1.84"/><path d="M561.9,200.2l-13.3-13.8-16.8,2.4-10.4,21.8,23,10.5,11.6-5.8Z" fill="#d0d0d0" stroke="#7c7c7c" stroke-width="1.84"/><path d="M573,211.8l-11.2-11.6-5.9,15.1,3.7,3.9,10.9,0.8Z" fill="#d0d0d0" stroke="#7c7c7c" stroke-width="1.84"/><path d="M556.3,230l3.3-10.8-3.7-3.9-11.6,5.8,3.4,9.9Z" fill="#d0d0d0" stroke="#7c7c7c" stroke-width="1.84"/><path d="M530.1,120.4l3.8,8,7.9-9.6-7.7-5.3Z" fill="#e3e3e3" stroke="#7c7c7c" stroke-width="1.84"/><path d="M588.5,130.9l-0.8-6-12.2.4-1.8,7.6Z" fill="#e3e3e3" stroke="#7c7c7c" stroke-width="1.84"/><path d="M586.9,112.5l2.3,10,13,1.9,4.5-15.6-11.3-4.6Z" fill="#e3e3e3" stroke="#7c7c7c" stroke-width="1.84"/><path d="M632.5,99.6l-1.3-3.2-4.1-8.7-1.3-2.3L623,97.8Z" fill="#e3e3e3" stroke="#7c7c7c" stroke-width="1.84"/><path d="M640.2,123.9l-2.4-9.3-2-6.2-12.9,7.8,3.5,9.6Z" fill="#e3e3e3" stroke="#7c7c7c" stroke-width="1.84"/><path d="M555.8,135.3l18-2.4,1.8-7.6-3.5-9-5.7-2.9-8,1.5-5.2,6.9Z" fill="#e3e3e3" stroke="#7c7c7c" stroke-width="1.84"/><path d="M622.8,116.1l12.9-7.8-1-3-2.3-5.8L623,97.8l-9.5,10,6.6,7.7Z" fill="#e3e3e3" stroke="#7c7c7c" stroke-width="1.84"/><path d="M626.4,125.8l-3.5-9.6-2.8-.6-3.9,11.7Z" fill="#e3e3e3" stroke="#7c7c7c" stroke-width="1.84"/><path d="M570.8,48.9l16.7,6,0.5-.2,6.2-10.5L591.8,42l-7.5-6.2L580,32.8Z" fill="#e3e3e3" stroke="#7c7c7c" stroke-width="1.84"/><path d="M617.3,71l-5.7-7.8L610,61.3l-4.7,4.2v5.9L619.2,74Z" fill="#e3e3e3" stroke="#7c7c7c" stroke-width="1.84"/><path d="M587.5,55l-16.7-6-5.3,9.3,5.4,11.1,9.8,2.9,6-4.6Z" fill="#e3e3e3" stroke="#7c7c7c" stroke-width="1.84"/><path d="M539.2,104.5l8,6.1,7.5-1.2,4.7-7.1L548.9,87.4Z" fill="#e3e3e3" stroke="#7c7c7c" stroke-width="1.84"/><path d="M576,104.1l2.4,5.5,8.5,2.8,8.5-8.4-7.7-11.7Z" fill="#e3e3e3" stroke="#7c7c7c" stroke-width="1.84"/><path d="M586.9,112.5l-8.5-2.8-6.4,6.7,3.5,9,12.2-.4,1.5-2.5Z" fill="#e3e3e3" stroke="#7c7c7c" stroke-width="1.84"/><path d="M605.4,71.4V65.5l-8.2-4.4-7.3,7.3,4.6,7.6Z" fill="#e3e3e3" stroke="#7c7c7c" stroke-width="1.84"/><path d="M594.5,76l-4.6-7.6-3.2-.8-6,4.6L588.3,84Z" fill="#e3e3e3" stroke="#7c7c7c" stroke-width="1.84"/><path d="M604.4,128.7l11.8-1.6,3.9-11.7-6.6-7.7-6.8.9-4.5,15.6Z" fill="#e3e3e3" stroke="#7c7c7c" stroke-width="1.84"/><path d="M587.5,55l-0.9,12.6,3.2,0.8,7.3-7.3-0.5-2.6L588,54.8Z" fill="#e3e3e3" stroke="#7c7c7c" stroke-width="1.84"/><path d="M625.8,85.3l-3.4-6.2L619.2,74l-13.7-2.6-11,4.6L588.3,84l-0.6,8.4,7.7,11.7,11.3,4.6,6.8-.9,9.5-10Z" fill="none" stroke="#7c7c7c" stroke-width="1.84"/><path d="M553.1,121.9l5.2-6.9-3.6-5.5-7.5,1.2-2.1,7.4Z" fill="#e3e3e3" stroke="#7c7c7c" stroke-width="1.84"/><path d="M598.8,48.7l-4.6-4.4L588,54.8l8.7,3.7,5.6-6.1Z" fill="#e3e3e3" stroke="#7c7c7c" stroke-width="1.84"/><path d="M604.4,128.7l-2.2-4.4-13-1.9-1.5,2.5,0.8,6Z" fill="#e3e3e3" stroke="#7c7c7c" stroke-width="1.84"/><path d="M576,104.1l11.7-11.7,0.6-8.4-7.7-11.8-9.8-2.9-13.5,3.1-8.5,14.9,10.6,14.9,7.4,2.7Z" fill="#e3e3e3" stroke="#7c7c7c" stroke-width="1.84"/><path d="M610,61.3l-4.6-5.6-3.1-3.3-5.6,6.1,0.5,2.6,8.2,4.4Z" fill="#e3e3e3" stroke="#7c7c7c" stroke-width="1.84"/><path d="M538.3,137.7l17.6-2.4-2.7-13.4-8-3.9-3.4.9-7.9,9.6Z" fill="#e3e3e3" stroke="#7c7c7c" stroke-width="1.84"/><path d="M534,113.5l7.7,5.3,3.4-.9,2.1-7.4-8-6.1Z" fill="#e3e3e3" stroke="#7c7c7c" stroke-width="1.84"/><path d="M576,104.1l-9.2,1-0.5,8.3,5.7,2.9,6.4-6.7Z" fill="#e3e3e3" stroke="#7c7c7c" stroke-width="1.84"/><path d="M557.4,72.5l13.5-3.1-5.4-11.1Z" fill="#e3e3e3" stroke="#7c7c7c" stroke-width="1.84"/><path d="M566.3,113.4l0.5-8.3-7.4-2.7-4.7,7.1,3.6,5.5Z" fill="#e3e3e3" stroke="#7c7c7c" stroke-width="1.84"/><path d="M432.1,272.5l1.3-7.2H413.1l10.3,11.4Z" fill="#999" stroke="#7c7c7c" stroke-width="1.84"/><path d="M463.1,286.3v-21h-8.7l-3.5,16.8,4.2,4Z" fill="#999" stroke="#7c7c7c" stroke-width="1.84"/><path d="M395.6,279.1l4.9,3.5,11.6-17.4H397.7l-2.9,13.3Z" fill="#999" stroke="#7c7c7c" stroke-width="1.84"/><path d="M456.4,307.7l6.8,1.3V286.3l-8.1-.3-7.5,19.4Z" fill="#999" stroke="#7c7c7c" stroke-width="1.84"/><path d="M420.1,294.7l8.7,4.1,2,0.8,0.5-12.1-8.1-3.3-7.9,7.8Z" fill="#999" stroke="#7c7c7c" stroke-width="1.84"/><path d="M403.4,284.8l8.2,5.2,3.7,2,7.9-7.8,0.3-7.6-10.3-11.4h-1l-11.6,17.4Z" fill="#999" stroke="#7c7c7c" stroke-width="1.84"/><path d="M432.1,272.5l-8.6,4.1-0.3,7.6,8.1,3.3,5.7-6Z" fill="#999" stroke="#7c7c7c" stroke-width="1.84"/><path d="M454.4,265.3H433.4l-1.3,7.2,4.9,9,13.9,0.6Z" fill="#999" stroke="#7c7c7c" stroke-width="1.84"/><path d="M380,265.1l1.1,1.2,7,6.6,6.6,5.5,2.9-13.3H380Z" fill="#999" stroke="#7c7c7c" stroke-width="1.84"/><path d="M430.8,299.6l7,2.8,9.2,3h0.5l7.5-19.4-4.2-4-13.9-.6-5.7,6Z" fill="#999" stroke="#7c7c7c" stroke-width="1.84"/><path d="M542.1,12.7l-9.2-3-9.4-2.4-3.9-.7-2.2,15.7L540,27.7l5.7-13.6Z" fill="#bababa" stroke="#7c7c7c" stroke-width="1.84"/><path d="M444.5,65.6L470,81.9l4.3-4.8V61.9l-15.8-8.2-14,8.7v3.2Z" fill="#bababa" stroke="#7c7c7c" stroke-width="1.84"/><path d="M501,19l1.4-14.9-7.7-.5h-9.7l-9.7.6-1.7.2,7.5,19.3Z" fill="#bababa" stroke="#7c7c7c" stroke-width="1.84"/><path d="M524.7,83.4l1.8,2.9,19.8,5.6,13-22.9L541.1,57.7l-14.4,7.4Z" fill="#bababa" stroke="#7c7c7c" stroke-width="1.84"/><path d="M558.1,33l4.6-11.1-2.8-1.6-8.7-4.1-5.4-2.1L540,27.7l5.5,8.1Z" fill="#bababa" stroke="#7c7c7c" stroke-width="1.84"/><path d="M513.8,110L525,99.5l1.6-13.2-1.8-2.9-13.8-5.5L495.4,88.1l-2.2,8.7Z" fill="#bababa" stroke="#7c7c7c" stroke-width="1.84"/><path d="M501,19l-19.8,4.7-3.1,9.6,9,14.1h15.2l7.1-21.4Z" fill="none" stroke="#7c7c7c" stroke-width="1.84"/><path d="M525,99.5l12.7,7.5,8.6-15.1-19.8-5.6Z" fill="#bababa" stroke="#7c7c7c" stroke-width="1.84"/><path d="M573.3,44.7L580,32.8l-3.6-2.6L568.3,25l-5.6-3.1L558.1,33Z" fill="#bababa" stroke="#7c7c7c" stroke-width="1.84"/><path d="M493.2,96.8l2.2-8.7-21.1-11L470,81.9Z" fill="#bababa" stroke="#7c7c7c" stroke-width="1.84"/><path d="M487.1,47.5l-9-14.1-20.3,8.3,0.7,12,15.8,8.2Z" fill="none" stroke="#7c7c7c" stroke-width="1.84"/><path d="M478.1,33.3l3.1-9.6L473.7,4.5l-7.9,1-9.5,1.8L447,9.7l-1.8.6L444.9,36l12.9,5.6Z" fill="#bababa" stroke="#7c7c7c" stroke-width="1.84"/><path d="M524.7,83.4l2-18.3L514.3,63l-3.4,14.9Z" fill="#bababa" stroke="#7c7c7c" stroke-width="1.84"/><path d="M573.3,44.7L558.1,33l-12.6,2.8-4.4,21.9L559.4,69Z" fill="none" stroke="#7c7c7c" stroke-width="1.84"/><path d="M514,5.5l-9.6-1.2h-2L501,19l8.4,7.1,8-3.9,2.2-15.7Z" fill="#bababa" stroke="#7c7c7c" stroke-width="1.84"/><path d="M495.4,88.1l15.5-10.2L514.3,63l-12-15.5H487.1L474.3,61.9V77.1Z" fill="#bababa" stroke="#7c7c7c" stroke-width="1.84"/><path d="M530.1,120.4l7.7-13.4L525,99.5,513.8,110Z" fill="#bababa" stroke="#7c7c7c" stroke-width="1.84"/><path d="M444.5,62.3l14-8.7-0.7-12L444.9,36Z" fill="#bababa" stroke="#7c7c7c" stroke-width="1.84"/><path d="M517.4,22.2l-8,3.9-7.1,21.4,12,15.5,12.4,2.1,14.4-7.4,4.4-21.9L540,27.7Z" fill="#bababa" stroke="#7c7c7c" stroke-width="1.84"/><path d="M389.3,75.8l-33.5,6.2-3,5.5-4.1,8.7-3.6,9-3,9.2-2.4,9.4-1.8,9.5v0.3L376,144.4l33.6-16Z" fill="none" stroke="#7c7c7c" stroke-width="1.84"/><path d="M336.7,143l-0.6,9.7v9.7l0.6,9.7,1.2,9.6,1.8,9.5,2.4,9.4,2.8,8.6,35-14.6L376,144.4l-38.2-10.7Z" fill="none" stroke="#7c7c7c" stroke-width="1.84"/><path d="M406.1,202.5l-4.1,62.7,61,0.2,43.1-23.2,7.9-16.5-91.2-35.8Z" fill="none" stroke="#7c7c7c" stroke-width="1.84"/><path d="M380,194.5l-35,14.6,0.2,0.6,3.6,9,4.1,8.7,4.7,8.5,5.2,8.2,5.7,7.8,6.2,7.5,5.5,5.8h22.1l4.1-62.7Z" fill="none" stroke="#7c7c7c" stroke-width="1.84"/><path d="M380,194.5l26.2,8,16.8-12.6-9.6-60.1-3.7-1.3-33.6,16Z" fill="none" stroke="#7c7c7c" stroke-width="1.84"/><path d="M538.2,175.5V137.7l-8.2-17.3L469.9,81.8l-56.6,47.9,9.6,60.1,91.2,35.8Z" fill="none" stroke="#7c7c7c" stroke-width="1.84"/><path d="M444.5,65.6L389.3,75.8l20.3,52.6,3.7,1.3,56.6-47.9Z" fill="#d1d1d1" stroke="#7c7c7c" stroke-width="1.84"/><path d="M437.8,12.7l-9,3.6-8.7,4.1L411.6,25l-8.2,5.2-7.8,5.7L388.2,42l-7,6.6-6.6,7-6.2,7.5L362.6,71l-5.2,8.2-1.6,2.9,88.6-16.5,0.8-55.3Z" fill="none" stroke="#7c7c7c" stroke-width="2.89"/><path d="M573,211.8l61.1-.5,0.7-1.7,3-9.2,2.4-9.4,1.8-9.5,1.2-9.6,0.6-9.7v-9.7l-0.6-9.7-1.2-9.6-1.8-9.5h0L538.3,137.7v37.9Z" fill="none" stroke="#7c7c7c" stroke-width="2.89"/><path d="M465.9,309.6l9.6,1.2,9.7,0.6h9.7l9.7-.6,9.6-1.2,9.5-1.8,2.3-.6L516.4,250l-10.2-7.8L463,265.4V309Z" fill="none" stroke="#7c7c7c" stroke-width="2.89"/><path d="M591.8,273l7-6.6,6.6-7,6.2-7.5,5.7-7.8,5.2-8.2,4.7-8.5,4.1-8.7,2.9-7.3-61.1.5-9.7,31.9L588.1,276Z" fill="none" stroke="#7c7c7c" stroke-width="2.89"/><path d="M516.4,250l9.5,57.1,7-1.8,9.2-3,9-3.6,8.7-4.1,8.5-4.7,8.2-5.2,7.8-5.7,3.8-3.1-24.8-32.2Z" fill="none" stroke="#7c7c7c" stroke-width="2.89"/><path d="M516.4,250l46.9-6.2,9.7-31.9-34.9-36.3-32,66.7Z" fill="none" stroke="#7c7c7c" stroke-width="2.89"/><path d="M637.8,114.6l-3-9.2-3.6-9-4.1-8.7-4.7-8.5L617.3,71l-5.7-7.8-6.2-7.5-6.6-7-7-6.6-7.5-6.2L580,32.8l-50,87.7,8.2,17.3,101.9-13.8Z" fill="none" stroke="#7c7c7c" stroke-width="2.89"/><path d="M381.1,266.4l7,6.6,7.5,6.2,7.8,5.7,8.2,5.2,8.5,4.7,8.7,4.1,9,3.6,9.2,3,9.4,2.4,6.8,1.3V265.4l-83.1-.2Z" fill="none" stroke="#7c7c7c" stroke-width="2.89"/><path d="M580,32.8l-3.6-2.6L568.3,25l-8.5-4.7-8.7-4.1-9-3.6-9.2-3-9.4-2.4L514,5.5l-9.6-1.2-9.7-.6h-9.7l-9.7.6-9.6,1.2-9.5,1.8L447,9.7l-1.8.6-0.8,55.3,85.6,54.9Z" fill="none" stroke="#7c7c7c" stroke-width="2.89"/><path d="M444.5,65.6L355.8,82.1l-3,5.5-4.1,8.7-3.6,9-3,9.2-2.4,9.4-1.8,9.5-1.2,9.6-0.6,9.7v9.7l0.6,9.7,1.2,9.6,1.8,9.5,2.4,9.4,3,9.2,3.6,9,4.1,8.7,4.7,8.5,5.2,8.2,5.7,7.8,6.2,7.5,5.5,5.8,83.1,0.2,43.1-23.2,32-66.7V137.7l-8.2-17.3Z" fill="none" stroke="#7c7c7c" stroke-width="2.89"/><path d="M485.1,3.7l-9.7.6-9.6,1.2-9.5,1.8L447,9.7l-9.2,3-9,3.6-8.7,4.1L411.6,25l-8.2,5.2-7.8,5.7L388.2,42l-7,6.6-6.6,7-6.2,7.5L362.6,71l-5.2,8.2-4.7,8.5-4.1,8.7-3.6,9-3,9.2-2.4,9.4-1.8,9.5-1.2,9.6-0.6,9.7v9.7l0.6,9.7,1.2,9.6,1.8,9.5,2.4,9.4,3,9.2,3.6,9,4.1,8.7,4.7,8.5,5.2,8.2,5.7,7.8,6.2,7.5,6.6,7,7,6.6,7.5,6.2,7.8,5.7,8.2,5.2,8.5,4.7,8.7,4.1,9,3.6,9.2,3,9.4,2.4,9.5,1.8,9.6,1.2,9.7,0.6h9.7l9.7-.6,9.6-1.2,9.5-1.8,9.4-2.4,9.2-3,9-3.6,8.7-4.1,8.5-4.7,8.2-5.2,7.8-5.7,7.5-6.2,7-6.6,6.6-7,6.2-7.5,5.7-7.8,5.2-8.2,4.7-8.5,4.1-8.7,3.6-9,3-9.2,2.4-9.4,1.8-9.5,1.2-9.6,0.6-9.7v-9.7l-0.6-9.7-1.2-9.6-1.8-9.5-2.4-9.4-3-9.2-3.6-9-4.1-8.7-4.7-8.5L617.3,71l-5.7-7.8-6.2-7.5-6.6-7-7-6.6-7.5-6.2-7.8-5.7L568.3,25l-8.5-4.7-8.7-4.1-9-3.6-9.2-3-9.4-2.4L514,5.5l-9.6-1.2-9.7-.6h-9.7Z" fill="none" stroke="#7c7c7c" stroke-width="3.95"/></svg>