<svg height="256" viewBox="0 0 256 256" width="256" xmlns="http://www.w3.org/2000/svg"><path d="m255.1 112.8a7.5 7.5 0 0 0 -1.1-2v-104.3a5.1 5.1 0 0 0 -5-5h-139.4a38.9 38.9 0 0 0 -6 .3l-1.7-.2h-95.4a5.1 5.1 0 0 0 -5 5v242.4a5.1 5.1 0 0 0 5 5h242.5a5.1 5.1 0 0 0 5-5v-131.4a4 4 0 0 0 1.1-4.8zm-243.6-32.4v-68.9h81.3c-9.8 13.5-21.5 25.2-31.7 38.4-4.9 6.3-9.2 13.1-14 19.6-2.1 2.9-4.1 5.6-6 8.7a18.4 18.4 0 0 1 -1.7 2.2zm131.9 2.4c.8-2.7 1.6-5.5 2.5-8.2.3-1 .7-2.1 1.1-3.1s.9-1.2-.2 0a5 5 0 0 0 1.2-1.9 67.6 67.6 0 0 1 25.3 5.4c4 1.7 8.2 2.2 12.2 3.8 1.8.7 3.4 1.8 5.2 2.5h.1c-.3 2.4-.4 4.8-.6 7.2-.3 4.5-1.2 8.8-1.2 13.4a89.8 89.8 0 0 0 0 11.6c.3 2.3 1.4 4.6 1.9 6.9l-3.1-.4c-8.1-1.1-16.1-2.7-24-4.3s-15.2-3.1-22.7-4.8l-6.1-1.4c1-2.4 1.8-5.1 2.6-7.3 2.1-6.4 3.9-12.9 5.8-19.4zm100.6-17.7c-1.1-1.1-2.1-2.4-3.2-3.3a88.9 88.9 0 0 1 -9.6-9.8 4.8 4.8 0 0 0 -.3-3.3 1.5 1.5 0 0 0 .2-.8 7.1 7.1 0 0 0 .6-2.5 34.9 34.9 0 0 0 0-5.6 52.1 52.1 0 0 0 -3.3-12.9 33.3 33.3 0 0 0 -5.3-9.8 22 22 0 0 1 -3.2-5.6h24.1zm-21.4-1.1a13.7 13.7 0 0 0 1.8-2.4 5.6 5.6 0 0 0 .5-.8l.3-.3h.1a111 111 0 0 0 8.4 8.4c1.6 1.3 2.8 2.8 4.3 4.2a9.2 9.2 0 0 0 2.8 1.9c.7.4 2 .5 2.6 1l.6.4v32.7c-3.1.9-6.2 2.1-8.8 2.2-5.4.2-9.8.5-14.9 2.3a56.3 56.3 0 0 1 -18.1 3.4 3.6 3.6 0 0 0 -1.9.4 20.7 20.7 0 0 1 -1-3.3c-.8-3.4-.4-7-.3-10.4a98.7 98.7 0 0 1 .9-12.2c.3-2.5.4-5.1.6-7.6a5.3 5.3 0 0 0 2.6-4.4 4.9 4.9 0 0 0 2.3-1.3 129.7 129.7 0 0 1 12.3-11.1c1.6-1.1 3.5-1.7 4.9-3.1zm-96.3 43.9c.3 0 .5 0 .6.2zm0 9.9a6.1 6.1 0 0 0 2.6.8h.5l3.2.6 8.9 2 25.7 5.3c6.3 1.2 12.7 2.4 19.2 3.2l-1.3.8-15.6 9.8c-5.4 3.5-10.7 7.1-15.8 11-3.4 2.6-6.4 5.9-9.7 8.6l-2.3-1.8c-4.9-3.8-9.6-8-14.8-11.5-10.1-6.9-20.1-13.8-29.8-21.3s-20.3-12-29.5-19.5a137 137 0 0 1 -12.9-11l-1.9-2.1 10.5 3.8c11.4 4.2 22.9 8.5 34.5 12.6 8.3 3 16.8 6.6 25.4 8.4a11.2 11.2 0 0 0 3.1.3zm25.3 49.1h-.1c.6.6.6.7.1 0zm6.8-6.5c5.1-4.1 10.6-7.8 16.1-11.4l15.6-9.7c4.8-2.9 8.8-6.6 13.3-9.7a7.8 7.8 0 0 0 2.7-2.4c.1-.2.1-.3.2-.4a78.3 78.3 0 0 0 9.7-1.5c4.3-1 8.4-3.1 12.7-3.8s8.3-.1 12.4-.9l2.9-.8v34.6a6 6 0 0 0 -1.6.8l-.7.6-.3.2c.9-.9-3.6-1.1-4.9-1.4l-5.2-1a51.7 51.7 0 0 0 -12.4-1.3c-8.2.3-16.3 1-24.5 1.7a139.3 139.3 0 0 0 -24 3.7 97.3 97.3 0 0 0 -11.8 4.2l-4.2 2c1.3-1.2 2.6-2.4 4-3.5zm50.9-148.9a8.7 8.7 0 0 0 .7 1.7c1.9 5.9 6.6 10.4 8.7 16.4 1.6 4.3 3.5 9 3.1 13.8-.1 1.9-1.2 3.5-1.2 5.5a5.9 5.9 0 0 0 .4 2.3c-2.9 1.5-4.2 4.9-7.3 6.7s-5 4.1-7.5 6.2-5.4 4.6-7.9 7a5.1 5.1 0 0 0 -1.1 1.6c-2.4-1-5-1.9-7.2-2.9-4.7-2.1-9.9-2.6-14.6-4.8-8.5-3.8-17.3-5.1-26.5-5.4.2-2.1.5-4.2.5-6.4.1-4.9 0-9.9 0-14.9v-15c0-2.1-.6-5.1-.7-7.6a3.9 3.9 0 0 0 .6-4.2h60zm-94.3 0h24.1c-.5 3 .2 5.9.3 8.9.1 5.3 0 10.7 0 16.1v14.9c0 5-.9 9.9-1.1 15a37.1 37.1 0 0 0 -2.7 7.7c-1.7 5.4-3.2 10.9-4.8 16.3a131.9 131.9 0 0 1 -5 15 15.1 15.1 0 0 1 -1.1 2.2c-19.5-5.6-38.5-13.3-57.5-20.3l-14.4-5.2-1.9-.7c1.7-2.6 3.6-5.1 5.4-7.6 4.3-5.9 8.2-12.1 12.7-17.9 9.2-11.9 19.9-22.6 29-34.6 2.1-2.8 3.9-6 6.3-8.5s7.3-1.3 10.7-1.3zm-103.5 232.5v-153.6h26.7l1.6 1.6c2.4 2.6 4.2 5.9 6.7 8.6 5.2 5.8 11.9 10.8 18.1 15.6a168.7 168.7 0 0 0 20.9 13.4c6.7 3.8 12.8 9.2 19.1 13.8 11 7.9 22.8 15.2 33.1 24.1a5.5 5.5 0 0 0 1.4 3.4c-5 4.7-9.6 10-14.3 14.8l-19.8 19.6c-6.5 6.6-13 13.2-19.6 19.7l-9.5 9.7c-2.8 2.8-5.9 7-9.2 9.2h-55.2zm155.6 0h-86.4l9.1-9.2 20.9-21 21.1-21.1c5.5-5.5 10.9-11.7 16.8-16.9a8.6 8.6 0 0 0 4.5-.7c4.3-1.6 8.5-3.8 12.8-5.5 9.5-3.6 19.4-4.8 29.5-5.7s19.3-2.5 28.6-1.5c5.4.5 13.8 4.3 20 3.1v78.5z"/></svg>