<?xml version="1.0" encoding="utf-8"?>
<!-- Generator: Adobe Illustrator 24.0.1, SVG Export Plug-In . SVG Version: 6.00 Build 0)  -->
<svg version="1.1" id="Layer_1" xmlns="http://www.w3.org/2000/svg" xmlns:xlink="http://www.w3.org/1999/xlink" x="0px" y="0px"
	 viewBox="0 0 1268 418" style="enable-background:new 0 0 1268 418;" xml:space="preserve">
<style type="text/css">
	.st0{fill:none;stroke:#CCCCCC;stroke-width:1.6023;stroke-linecap:round;stroke-linejoin:round;}
	.st1{fill:none;stroke:#CCCCCC;stroke-width:1.2787;stroke-linecap:round;stroke-linejoin:round;}
	.st2{fill:#CCCCCC;}
	.st3{font-family:'RobotoMono-Regular';}
	.st4{font-size:18px;}
	.st5{fill:none;stroke:#817B9B;stroke-width:4;}
	.st6{fill:#B5AEC7;stroke:#817B9B;stroke-width:4;stroke-linecap:round;stroke-linejoin:round;}
	.st7{fill:#C4C5D1;stroke:#817B9B;stroke-width:4;stroke-linecap:round;stroke-linejoin:round;}
	.st8{fill:#B5AEC7;stroke:#817B9B;stroke-width:4.0282;stroke-linecap:round;stroke-linejoin:round;}
</style>
<path class="st0" d="M47,378.6h1214.9V5.1H47L47,378.6z"/>
<path class="st1" d="M42.2,51.9H30"/>
<path class="st1" d="M42.2,241.3H30"/>
<path class="st1" d="M42.2,336H30"/>
<path class="st1" d="M42.2,146.7H30"/>
<text transform="matrix(0 -1 1 0 22.9445 250.2754)" class="st2 st3 st4">20</text>
<text transform="matrix(0 -1 1 0 22.9445 60.2578)" class="st2 st3 st4">40</text>
<text transform="matrix(0 -1 1 0 22.9445 155.2666)" class="st2 st3 st4">30</text>
<text transform="matrix(0 -1 1 0 22.9445 345.2793)" class="st2 st3 st4">10</text>
<g>
	<path class="st1" d="M317.4,379.5v12.2"/>
	<text transform="matrix(1 0 0 1 299.6524 413.0391)" class="st2 st3 st4">jul</text>
	<path class="st5" d="M319.2,338.2v-71"/>
	<path class="st5" d="M342.9,338.3l-46.7-0.1"/>
	<path class="st6" d="M277.2,267.2h80.3v-85.4h-80.3V267.2z"/>
	<path class="st7" d="M277.2,50.6h80.3v130.6h-80.3V50.6z"/>
	<path class="st5" d="M318.3,17.9v32.7"/>
	<path class="st5" d="M294.5,17.9h46.7"/>
</g>
<g>
	<path class="st1" d="M495.8,379.5v12.2"/>
	<text transform="matrix(1 0 0 1 477.0954 413.0391)" class="st2 st3 st4">aug</text>
	<path class="st5" d="M497.6,342v-40.3"/>
	<path class="st5" d="M521.4,342.2l-46.7-0.1"/>
	<path class="st6" d="M472,301.8h47.6V140.9H472V301.8z"/>
	<path class="st7" d="M472,62.1h47.6v78.1H472V62.1z"/>
	<path class="st5" d="M496.7,33.2v28.9"/>
	<path class="st5" d="M472.9,33.2h46.7"/>
</g>
<g>
	<path class="st1" d="M138,379.5v12.2"/>
	<text transform="matrix(1 0 0 1 118.314 413.0391)" class="st2 st3 st4">jun</text>
	<path class="st5" d="M139.8,367.6v-40.3"/>
	<path class="st5" d="M163.6,367.7l-46.7-0.1"/>
	<path class="st6" d="M81.6,241.1v86.2h112.8v-86.2H81.6z"/>
	<path class="st7" d="M81.6,241.1v-40.9h112.8v40.9H81.6z"/>
	<path class="st5" d="M138.9,113.8v86.4"/>
	<path class="st5" d="M115.1,113.8h46.7"/>
</g>
<g>
	<path class="st1" d="M676,379.5v12.2"/>
	<text transform="matrix(1 0 0 1 658.3299 413.0391)" class="st2 st3 st4">sep</text>
	<path class="st5" d="M677.8,333.1v-87.6"/>
	<path class="st5" d="M701.6,333.2l-46.7-0.1"/>
	<path class="st6" d="M605.2,245.5h141.7v-72.9H605.2V245.5z"/>
	<path class="st7" d="M605.2,97.9h141.7v74.2H605.2V97.9z"/>
	<path class="st5" d="M676.9,53.7v44.2"/>
	<path class="st5" d="M653.2,53.7h46.7"/>
</g>
<g>
	<path class="st1" d="M1034.7,379.5v12.2"/>
	<text transform="matrix(1 0 0 1 1017.0082 413.0391)" class="st2 st3 st4">nov</text>
	<path class="st5" d="M1036.5,338.2V244"/>
	<path class="st5" d="M1060.3,338.3l-46.7-0.1"/>
	<path class="st8" d="M994.6,245h80.3V93.9h-80.3V245z"/>
	<path class="st7" d="M994.6,72.9h80.3V95h-80.3V72.9z"/>
	<path class="st5" d="M1035.6,17.9l0.6,54.1"/>
	<path class="st5" d="M1011.8,17.9h46.7"/>
</g>
<g>
	<path class="st1" d="M1213.2,379.5v12.2"/>
	<text transform="matrix(1 0 0 1 1194.4512 413.0391)" class="st2 st3 st4">dec</text>
	<path class="st5" d="M1215,342v-40.3"/>
	<path class="st5" d="M1238.7,342.2l-46.7-0.1"/>
	<path class="st6" d="M1189.4,302h47.6v-54h-47.6V302z"/>
	<path class="st7" d="M1189.4,117.9h47.6V248h-47.6V117.9z"/>
	<path class="st5" d="M1214.1,65.2V117"/>
	<path class="st5" d="M1190.3,65.2h46.7"/>
</g>
<g>
	<path class="st1" d="M854.6,379.5v12.2"/>
	<text transform="matrix(1 0 0 1 834.8673 413.0391)" class="st2 st3 st4">oct</text>
	<path class="st5" d="M856.4,367.6v-40.3"/>
	<path class="st5" d="M880.2,367.7l-46.7-0.1"/>
	<path class="st6" d="M830.6,213.2v114.1h47.9V213.2H830.6z"/>
	<path class="st7" d="M830.6,213.2V159h47.9v54.2H830.6z"/>
	<path class="st5" d="M855.5,113.8V159"/>
	<path class="st5" d="M831.7,113.8h46.7"/>
</g>
</svg>
