<?xml version="1.0" encoding="utf-8"?>
<!-- Generator: Adobe Illustrator 24.0.1, SVG Export Plug-In . SVG Version: 6.00 Build 0)  -->
<svg version="1.1" id="Layer_1" xmlns="http://www.w3.org/2000/svg" xmlns:xlink="http://www.w3.org/1999/xlink" x="0px" y="0px"
	 viewBox="0 0 1268 418" style="enable-background:new 0 0 1268 418;" xml:space="preserve">
<style type="text/css">
	.st0{fill:#ABABAB;stroke:#A39CB9;stroke-width:9.9744;stroke-miterlimit:10;}
	.st1{fill:#B0B0B0;}
	.st2{font-family:'RobotoCondensed-Regular';}
	.st3{font-size:21.385px;}
	.st4{fill:#E5E5E5;}
	.st5{font-size:32.6361px;}
	.st6{fill:#A39CB9;stroke:#FFFFFF;stroke-width:7.9795;stroke-miterlimit:10;}
</style>
<title>dynamic-timeline</title>
<path class="st0" d="M1252.9,204.2H15.1"/>
<text transform="matrix(1 0 0 1 183.6582 177.8799)" class="st1 st2 st3">2002</text>
<text transform="matrix(1 0 0 1 82.5176 250.0938)" class="st1 st2 st3">2001</text>
<path class="st4" d="M15.5,311.1h171.8v18.4H15.5V311.1z"/>
<path class="st4" d="M15.5,348.2h171.8v18.4H15.5V348.2z"/>
<text transform="matrix(1 0 0 1 461.3438 250.0938)" class="st1 st2 st3">2004</text>
<path class="st4" d="M397.3,311.1h171.8v18.4H397.3V311.1z"/>
<path class="st4" d="M397.3,348.2h171.8v18.4H397.3V348.2z"/>
<text transform="matrix(1 0 0 1 945.499 177.8799)" class="st1 st2 st3">2009</text>
<path class="st4" d="M871.1,14.5h171.8v18.4H871.1V14.5z"/>
<path class="st4" d="M871.1,51.6h171.8V70H871.1V51.6z"/>
<text transform="matrix(1 0 0 1 1142.5928 250.0938)" class="st1 st2 st3">2011</text>
<text transform="matrix(1 0 0 1 174.2822 145.9619)" class="st1 st2 st5">MVP</text>
<text transform="matrix(1 0 0 1 47.6074 290.3916)" class="st1 st2 st5">founded</text>
<text transform="matrix(1 0 0 1 439.5996 290.3916)" class="st1 st2 st5">launch</text>
<text transform="matrix(1 0 0 1 922.1592 145.9619)" class="st1 st2 st5">g</text>
<text transform="matrix(1 0 0 1 938.3184 145.9619)" class="st1 st2 st5">r</text>
<text transform="matrix(1 0 0 1 947.8926 145.9619)" class="st1 st2 st5">owth</text>
<text transform="matrix(1 0 0 1 1140.7979 290.3916)" class="st1 st2 st5">IPO</text>
<path class="st4" d="M1078.8,311.1h171.8v18.4h-171.8V311.1z"/>
<path class="st4" d="M1078.8,348.2h171.8v18.4h-171.8V348.2z"/>
<path class="st4" d="M15.5,385.1h171.8v18.4H15.5V385.1z"/>
<path class="st4" d="M397.3,385.1h171.8v18.4H397.3V385.1z"/>
<path class="st4" d="M871.1,88.5h171.8v18.4H871.1V88.5z"/>
<path class="st4" d="M1078.8,385.1h171.8v18.4h-171.8V385.1z"/>
<path class="st4" d="M113.4,15.1h171.8v18.4H113.4V15.1z"/>
<path class="st4" d="M113.4,52.2h171.8v18.4H113.4V52.2z"/>
<path class="st4" d="M113.4,89.1h171.8v18.4H113.4V89.1z"/>
<circle class="st6" cx="103.5" cy="204.6" r="17"/>
<circle class="st6" cx="199.4" cy="204.6" r="17"/>
<circle class="st6" cx="486.5" cy="204.6" r="17"/>
<circle class="st6" cx="966.8" cy="204.6" r="17"/>
<circle class="st6" cx="1167.1" cy="204.6" r="17"/>
</svg>
