<svg height="237" viewBox="0 0 256 237" width="256" xmlns="http://www.w3.org/2000/svg"><path d="m71.5 142.1c6.4 5.3 19.5 3.6 29.2-.7a28 28 0 0 0 13.3-12.3 23.4 23.4 0 0 0 2-5.8c1.1-5.6-.2-10.9-3.6-14.5a17.1 17.1 0 0 0 -17.7-4.7c-12.5 3.4-23.9 17.9-26.3 28.8a8.8 8.8 0 0 0 3.1 9.2zm3.8-7.7a26.2 26.2 0 0 1 2.2-5.8c3.9-7.6 11.5-15.6 19.1-17.7 4.3-1.2 7.7-.3 10.6 2.8s2.5 4.9 1.9 8.2c-1.1 5.5-5.3 10.3-11.3 13-9.1 4.1-18.8 4.2-21.9 1.8a2.1 2.1 0 0 1 -.6-2.3zm24.7 27.5c12.8-4.4 46.1-19.5 55.5-38a27.5 27.5 0 0 0 1.5-3.6 18.7 18.7 0 0 0 -2.4-17.1c-7.5-11-32.8-21.9-55.3-20.2-16.1 1.2-27.9 8.6-33.9 21.2-10.2 21.4-17.6 36.9-10 51.8s27.6 11.9 44.6 5.9zm-28.2-54.6a3 3 0 0 1 .4-.8c6.2-12.3 18.4-15.7 27.6-16.4 19.9-1.6 42.6 7.9 48.9 17.1a11.5 11.5 0 0 1 1.6 10.9c-.3.9-.7 1.7-1.1 2.6-7.7 15.1-37.4 29.6-51.5 34.5s-31.4 6.4-36-2.5c-5.7-11.2-.2-23.9 10.1-45.4zm4 79.3c20.6 3.1 39.5-4.8 63.5-14.9 29.6-12.4 45.7-25.3 57.5-46l1.2-2.2c5-9.8 8.5-24.1 4.3-37.2-3.3-10.2-10.5-17.9-21.3-23-27.8-12.9-70.9-21.7-92.3-13.4s-38.9 31.2-46 63.5c-5.3 24-3.3 43.6 5.8 56.8 6.3 9.1 15.5 14.6 27.3 16.4zm-26.2-71.6c6.6-29.9 21.4-50.7 41.7-58.5 18.7-7.3 60.7 1.2 86.7 13.2 9 4.2 14.9 10.5 17.5 18.8 3.8 11.9 0 25.2-4.8 33.7-11 19.2-26.2 31.3-54.1 43-23.9 10-41.1 17.2-59.7 14.4-9.9-1.5-17.4-6-22.5-13.4-7.9-11.4-9.5-29.6-4.8-51.2zm29.8 95.5c19 3.3 40.6.2 60.8-8.8l11.3-4.8c24.8-10.4 52.3-22 70.6-57.9a153.7 153.7 0 0 0 9-22.1c7.3-23.1 6.1-43-3.6-59-14.7-24.3-43.2-30.9-51.7-32.4-13.8-2.4-28-5.4-40.6-7.9-7.7-1.7-14.5-3-20-4.1-25.9-4.8-48.4 4.8-65.2 27.9-13 17.9-22.2 44.2-25.1 72-2.8 26.2.3 50.5 8.2 65 9.5 17.3 25.5 28.3 46.3 32.1zm-47.5-96.4c2.8-26.6 11.5-51.6 23.8-68.6 15.3-21 34.8-29.4 58.2-25 5.5 1 12.2 2.4 19.9 4 12.6 2.6 26.9 5.5 40.8 8 7.7 1.3 33.7 7.4 46.8 29 8.7 14.3 9.6 32.2 2.9 53.2a136.8 136.8 0 0 1 -8.6 21.3c-17 33.4-42.3 44-66.9 54.3l-11.4 4.9c-34.8 15.5-79.6 13.6-98-20.2-7.3-13.3-10.1-36-7.5-60.9zm214.1 110.9v11h-244.5v-234.5h11v223.5z"/></svg>