<svg xmlns="http://www.w3.org/2000/svg" width="256" height="256" viewBox="0 0 256 256"><title>icon</title><path d="M103.1,152.9a12,12,0,0,1-23.9,0,12,12,0,1,1,23.9,0ZM88.8,74.2a12,12,0,1,0,0,23.9,12,12,0,0,0,0-23.9ZM131,185.9a12,12,0,0,0,0,23.9,12,12,0,1,0,0-23.9Zm19-66.3a12,12,0,1,0,12,12A11.9,11.9,0,0,0,150,119.6ZM46.2,104a12,12,0,1,0,0,23.9,12,12,0,0,0,0-23.9Zm147.3,92.7a12,12,0,0,0,0,23.9,12,12,0,1,0,0-23.9ZM80.4,171.4a12,12,0,0,0,0,23.9,12,12,0,1,0,0-23.9Zm174.5,81.5H254V254H2V2H3V1A250.1,250.1,0,0,1,181.1,74.8,250.1,250.1,0,0,1,254.9,252.9Zm-80.8-171a246.8,246.8,0,0,0-35-29.1L100,114.7a170.3,170.3,0,0,1,45.8,48l63-37.1A241.5,241.5,0,0,0,174.1,81.9ZM75.3,204.1l61.8-36.4a159.1,159.1,0,0,0-42.4-44.5L56.4,183.9A88.5,88.5,0,0,1,75.3,204.1ZM51,192.4,25.2,233.5l41.4-24.4A77.2,77.2,0,0,0,51,192.4ZM13.8,84.3a167.8,167.8,0,0,1,77.9,24.9l39-61.8A240,240,0,0,0,13.8,11.2Zm0,82a85.1,85.1,0,0,1,34.4,12l38.2-60.7A158.4,158.4,0,0,0,13.8,94.3Zm0,10.1v56.3l29-46A78,78,0,0,0,13.8,176.4Zm65.7,65.8a77.9,77.9,0,0,0-7.7-24.5L30.1,242.2Zm82.1,0a156.9,156.9,0,0,0-19.4-65.9L80.4,212.6a87.4,87.4,0,0,1,9.2,29.6Zm83.1,0a240.9,240.9,0,0,0-30.8-108l-63,37.1a168.4,168.4,0,0,1,20.7,70.9Z"/></svg>