<?xml version="1.0" encoding="utf-8"?>
<!-- Generator: Adobe Illustrator 22.1.0, SVG Export Plug-In . SVG Version: 6.00 Build 0)  -->
<svg version="1.1" id="Layer_1" xmlns="http://www.w3.org/2000/svg" xmlns:xlink="http://www.w3.org/1999/xlink" x="0px" y="0px"
	 viewBox="0 0 1200 1031" style="enable-background:new 0 0 1200 1031;" xml:space="preserve">
<style type="text/css">
	.st0{fill:none;stroke:#D5D5D5;stroke-width:4;stroke-miterlimit:10;}
	.st1{fill:#D5D5D5;}
	.st2{fill:#5B5B5B;}
	.st3{font-family:'RobotoMono-Regular';}
	.st4{font-size:33px;}
	.st5{fill:none;stroke:#AFAFAF;stroke-width:8;stroke-miterlimit:10;}
	.st6{fill:#514361;}
	.st7{font-size:40px;}
	.st8{fill:none;stroke:#AFAFAF;stroke-width:4;stroke-linecap:round;stroke-miterlimit:10;stroke-dasharray:0,9.9536;}
</style>
<g>
	<path class="st0" d="M190,770V277.8c0-11.5,9.3-20.8,20.8-20.8h780.3c11.5,0,20.8,9.3,20.8,20.8V770"/>
	<path class="st1" d="M697.8,869.8H504.2c-29.2,0-52.8-23.6-52.8-52.8v0c0-29.2,23.6-52.8,52.8-52.8h193.6
		c29.2,0,52.8,23.6,52.8,52.8v0C750.6,846.2,727,869.8,697.8,869.8z"/>
	<path class="st1" d="M697.8,173.6H504.2c-29.2,0-52.8-23.6-52.8-52.8v0c0-29.2,23.6-52.8,52.8-52.8h193.6
		c29.2,0,52.8,23.6,52.8,52.8v0C750.6,150,727,173.6,697.8,173.6z"/>
	<g>
		<g>
			<text transform="matrix(1 0 0 1 500.035 830.3705)" class="st2 st3 st4">child node</text>
		</g>
	</g>
	<path class="st1" d="M1107,869.8H915c-29.2,0-52.8-23.6-52.8-52.8v0c0-29.2,23.6-52.8,52.8-52.8h192c29.2,0,52.8,23.6,52.8,52.8v0
		C1159.8,846.2,1136.2,869.8,1107,869.8z"/>
	<path class="st1" d="M286.9,869.8H94.1c-29.2,0-52.8-23.6-52.8-52.8v0c0-29.2,23.6-52.8,52.8-52.8h192.8
		c29.2,0,52.8,23.6,52.8,52.8v0C339.7,846.2,316.1,869.8,286.9,869.8z"/>
	<g>
		<g>
			<text transform="matrix(1 0 0 1 86.2361 830.3705)" class="st2 st3 st4">child node</text>
		</g>
	</g>
	<path class="st1" d="M1107,495.8H915c-29.2,0-52.8-23.6-52.8-52.8v0c0-29.2,23.6-52.8,52.8-52.8h192c29.2,0,52.8,23.6,52.8,52.8v0
		C1159.8,472.2,1136.2,495.8,1107,495.8z"/>
	<path class="st1" d="M286.9,495.8H94.1c-29.2,0-52.8-23.6-52.8-52.8v0c0-29.2,23.6-52.8,52.8-52.8h192.8
		c29.2,0,52.8,23.6,52.8,52.8v0C339.7,472.2,316.1,495.8,286.9,495.8z"/>
	<g>
		<g>
			<text transform="matrix(1 0 0 1 911.16 830.3705)" class="st2 st3 st4">child node</text>
		</g>
	</g>
	<g>
		<g>
			<text transform="matrix(1 0 0 1 69.6805 453.7244)" class="st2 st3 st4"> parent node</text>
		</g>
	</g>
	<g>
		<g>
			<text transform="matrix(1 0 0 1 891.6805 453.7244)" class="st2 st3 st4"> parent node</text>
		</g>
	</g>
	<g>
		<g>
			<text transform="matrix(1 0 0 1 505.4437 137.902)" class="st2 st3 st4">root node</text>
		</g>
	</g>
	<path class="st0" d="M190,630h382.3c15.9,0,28.7,12.9,28.7,28.7V781"/>
	<line class="st0" x1="601" y1="109" x2="601" y2="255"/>
	<path class="st5" d="M272,232"/>
</g>
<g>
	<g>
		<text transform="matrix(1 0 0 1 13.2113 137.902)" class="st6 st3 st7">top of hierarchy</text>
	</g>
</g>
<g>
	<g>
		<text transform="matrix(1 0 0 1 924.135 148.996)" class="st6 st3 st7">link</text>
	</g>
</g>
<g>
	<g>
		<text transform="matrix(1 0 0 1 372.9536 996.0001)" class="st6 st3 st7">bottom of hierarchy</text>
	</g>
</g>
<polyline class="st8" points="1016.6,901.1 1016.6,943 189.3,943 189.3,901.1 "/>
<line class="st8" x1="972.1" y1="168.1" x2="972.1" y2="246.1"/>
<g>
	<g>
		<text transform="matrix(1 0 0 1 57.1784 283.9893)" class="st6 st3 st7">node</text>
	</g>
</g>
<line class="st8" x1="105.2" y1="303.1" x2="105.2" y2="381.1"/>
</svg>
