<?xml version="1.0" encoding="utf-8"?>
<!-- Generator: Adobe Illustrator 22.1.0, SVG Export Plug-In . SVG Version: 6.00 Build 0)  -->
<svg version="1.1" id="Layer_1" xmlns="http://www.w3.org/2000/svg" xmlns:xlink="http://www.w3.org/1999/xlink" x="0px" y="0px"
	 viewBox="0 0 1268 418" style="enable-background:new 0 0 1268 418;" xml:space="preserve">
<style type="text/css">
	.st0{display:none;fill:none;stroke:#706F6E;stroke-width:2;stroke-miterlimit:10;}
	.st1{display:none;}
	.st2{display:inline;fill:none;stroke:#706F6E;stroke-width:2;stroke-miterlimit:10;}
	.st3{fill:#5C4E63;stroke:#977EA5;stroke-miterlimit:10;}
	.st4{fill:#FFFFFF;stroke:#977EA5;stroke-miterlimit:10;}
	.st5{fill:#796284;}
	.st6{display:inline;}
	.st7{opacity:0.5;fill:#1C75BC;enable-background:new    ;}
	.st8{opacity:0.5;}
	.st9{fill:#1C75BC;}
	.st10{font-family:'BebasNeueBold';}
	.st11{font-size:6.3728px;}
	.st12{font-size:16.3966px;}
	.st13{display:inline;fill:#1C75BC;}
	.st14{fill:#C9C9C9;}
</style>
<g id="Layer_2_1_">
</g>
<g id="_x32__Tree_2">
	<g id="Elements_1_">
		<g id="Elements_copy_2">
			<path id="Timeline_2_" class="st0" d="M633,64h200c61.9,0,112,50.3,112,112.1s-50.1,112-112,112H435c-61.9,0-112,50.1-112,112
				s50.1,112,112,112h182.6"/>
			<g class="st1">
				<path class="st2" d="M633,64h208c57.4,0,104,46.6,104,104s-46.6,104-104,104H633"/>
				<path class="st2" d="M633,480H425c-57.4,0-104-46.6-104-104s46.6-104,104-104h208"/>
			</g>
		</g>
		<g id="Layer_13_copy">
			<g>
				<rect x="648.4" y="8.8" class="st3" width="0.9" height="172.2"/>
			</g>
			<g>
				<path class="st3" d="M567.6,181.1h-0.9c0-40.7,18.5-61.8,38.1-84.2c21.4-24.4,43.5-34.9,43.5-88h0.9c0,53.5-22.2,64.1-43.8,88.6
					C586,119.7,567.6,140.7,567.6,181.1z"/>
			</g>
			<g>
				<path class="st3" d="M485.8,181.1h-0.9c0-40.8,37.1-61.9,76.4-84.3c42.8-24.4,87.1-34.9,87.1-87.9h0.9
					c0,53.6-44.5,64.2-87.6,88.7C522.7,119.8,485.8,140.8,485.8,181.1z"/>
			</g>
			<g>
				<path class="st3" d="M404,181.1h-0.9c0-40.9,55.6-62,114.5-84.3C582,72.3,648.4,61.9,648.4,8.8h0.9c0,53.7-66.8,64.3-131.3,88.7
					C459.3,119.8,404,140.8,404,181.1z"/>
			</g>
			<g>
				<path class="st3" d="M322.2,181.1h-0.9c0-40.9,74.2-62,152.7-84.3c85.8-24.4,174.4-34.9,174.4-87.9h0.9c0,53.7-89,64.3-175,88.7
					C396.1,119.8,322.2,140.8,322.2,181.1z"/>
			</g>
		</g>
		<g id="Limiters_copy_2_1_">
			<g>
				<g>
					<g>
						<path class="st4" d="M730.7,177.5c2,0,3.6,1.6,3.6,3.6s-1.6,3.6-3.6,3.6c-2,0-3.6-1.6-3.6-3.6S728.7,177.5,730.7,177.5"/>
					</g>
				</g>
			</g>
			<g>
				<g>
					<g>
						<path class="st4" d="M812.4,177.5c2,0,3.6,1.6,3.6,3.6s-1.6,3.6-3.6,3.6c-2,0-3.6-1.6-3.6-3.6S810.3,177.5,812.4,177.5"/>
					</g>
				</g>
			</g>
			<g>
				<path class="st3" d="M894.7,181.1h-0.9c0-40.3-55.4-61.3-114.1-83.5C715.1,73,648.4,62.5,648.4,8.8h0.9
					c0,53,66.5,63.5,130.8,87.9C839.1,119,894.7,140.2,894.7,181.1z"/>
			</g>
			<g>
				<g>
					<g>
						<circle class="st5" cx="648.9" cy="181.1" r="5.4"/>
					</g>
				</g>
			</g>
			<g>
				<g>
					<g>
						<circle class="st5" cx="485.2" cy="181.1" r="5.4"/>
					</g>
				</g>
			</g>
			<g>
				<g>
					<g>
						<path class="st5" d="M894.3,175.7c3,0,5.4,2.4,5.4,5.4s-2.4,5.4-5.4,5.4c-3,0-5.4-2.4-5.4-5.4S891.3,175.7,894.3,175.7"/>
					</g>
				</g>
			</g>
			<g>
				<g>
					<g>
						<circle class="st5" cx="403.4" cy="181.1" r="5.4"/>
					</g>
				</g>
			</g>
			<g>
				<g>
					<g>
						<circle class="st5" cx="321.6" cy="181.1" r="5.4"/>
					</g>
				</g>
			</g>
		</g>
		<g id="Limiters_copy_3">
			<g>
				<g>
					<g>
						<path class="st4" d="M730.7,177.5c2,0,3.6,1.6,3.6,3.6s-1.6,3.6-3.6,3.6c-2,0-3.6-1.6-3.6-3.6S728.7,177.5,730.7,177.5"/>
					</g>
				</g>
			</g>
			<g>
				<path class="st3" d="M731.1,181.1h-0.9c0-40.4-18.4-61.4-38-83.6c-21.6-24.5-43.8-35-43.8-88.6h0.9c0,53.1,22.1,63.6,43.6,88
					C712.5,119.2,731.1,140.3,731.1,181.1z"/>
			</g>
			<g>
				<path class="st3" d="M812.8,181.1h-0.9c0-40.3-36.9-61.3-76-83.5C692.9,73,648.4,62.4,648.4,8.8h0.9c0,53,44.3,63.5,87.1,87.9
					C775.7,119.1,812.8,140.3,812.8,181.1z"/>
			</g>
			<g>
				<g>
					<g>
						<circle class="st5" cx="648.9" cy="181.1" r="5.4"/>
					</g>
				</g>
			</g>
			<g>
				<g>
					<g>
						<circle class="st5" cx="567" cy="181.1" r="5.4"/>
					</g>
				</g>
			</g>
			<g>
				<g>
					<g>
						<path class="st5" d="M812.4,175.7c3,0,5.4,2.4,5.4,5.4s-2.4,5.4-5.4,5.4c-3,0-5.4-2.4-5.4-5.4S809.3,175.7,812.4,175.7"/>
					</g>
				</g>
			</g>
		</g>
		<g id="Layer_13_copy_1_">
			<g>
				<rect x="321.2" y="181.1" class="st3" width="0.9" height="187"/>
			</g>
			<g>
				<path class="st3" d="M240.4,368.1h-0.9c0-40.7,18.5-61.8,38.1-84.2c21.4-24.4,43.5-49.6,43.5-102.8h0.9
					c0,53.5-22.2,78.8-43.8,103.4C258.8,306.7,240.4,327.7,240.4,368.1z"/>
			</g>
			<g>
				<path class="st3" d="M158.6,368.1h-0.9c0-40.8,37.1-61.9,76.4-84.3c42.8-24.4,87.1-49.6,87.1-102.7h0.9
					c0,53.6-44.5,78.9-87.6,103.5C195.5,306.7,158.6,327.8,158.6,368.1z"/>
			</g>
			<g>
				<path class="st3" d="M76.7,368.1h-0.9c0-40.9,55.6-62,114.5-84.3c64.4-24.5,130.8-49.6,130.8-102.7h0.9
					c0,53.7-66.8,79-131.3,103.5C132.1,306.7,76.7,327.8,76.7,368.1z"/>
			</g>
		</g>
		<g id="Limiters_copy_2_2_">
			<g>
				<g>
					<g>
						<path class="st4" d="M403.4,364.5c2,0,3.6,1.6,3.6,3.6s-1.6,3.6-3.6,3.6s-3.6-1.6-3.6-3.6S401.5,364.5,403.4,364.5"/>
					</g>
				</g>
			</g>
			<g>
				<g>
					<g>
						<circle class="st5" cx="321.6" cy="368.1" r="5.4"/>
					</g>
				</g>
			</g>
			<g>
				<g>
					<g>
						<circle class="st5" cx="158" cy="368.1" r="5.4"/>
					</g>
				</g>
			</g>
			<g>
				<g>
					<g>
						<circle class="st5" cx="76.2" cy="368.1" r="5.4"/>
					</g>
				</g>
			</g>
		</g>
		<g id="Limiters_copy_3_1_">
			<g>
				<g>
					<g>
						<path class="st4" d="M403.4,364.5c2,0,3.6,1.6,3.6,3.6s-1.6,3.6-3.6,3.6s-3.6-1.6-3.6-3.6S401.5,364.5,403.4,364.5"/>
					</g>
				</g>
			</g>
			<g>
				<path class="st3" d="M403.9,368.1H403c0-40.4-18.4-61.4-38-83.6c-21.6-24.5-43.8-49.8-43.8-103.4h0.9
					c0,53.1,22.1,78.4,43.6,102.8C385.3,306.2,403.9,327.3,403.9,368.1z"/>
			</g>
			<g>
				<g>
					<g>
						<circle class="st5" cx="321.6" cy="368.1" r="5.4"/>
					</g>
				</g>
			</g>
			<g>
				<g>
					<g>
						<circle class="st5" cx="239.8" cy="368.1" r="5.4"/>
					</g>
				</g>
			</g>
		</g>
		<g>
			<g>
				<circle class="st5" cx="648.9" cy="8.8" r="5.4"/>
			</g>
		</g>
		<g>
			<g>
				<circle class="st5" cx="321.6" cy="181.1" r="5.4"/>
			</g>
		</g>
	</g>
	<g id="Notes">
		<g id="Limiters_6_">
			<g class="st1">
				<g class="st6">
					<rect x="555" y="37" class="st7" width="156" height="2"/>
					<g class="st8">
						<text transform="matrix(1 0 0 1 686.2988 31.2578)" class="st9 st10 st11">X </text>
						<text transform="matrix(1 0 0 1 691.2896 34.8982)" class="st9 st10 st12">3</text>
					</g>
				</g>
				<text transform="matrix(1 0 0 1 507.3939 -9.5002)" class="st13 st10 st12">4 Lines</text>
				<text transform="matrix(1 0 0 1 509.0939 10.1998)" class="st13 st10 st12">of text</text>
				<text transform="matrix(1 0 0 1 513.7939 29.8998)" class="st13 st10 st12">Limit</text>
			</g>
		</g>
	</g>
</g>
<g id="Limiters_copy_2_3_">
	<g>
		<g>
			<g>
				<path class="st4" d="M976.6,365.7c2,0,3.6,1.6,3.6,3.6s-1.6,3.6-3.6,3.6c-2,0-3.6-1.6-3.6-3.6S974.6,365.7,976.6,365.7"/>
			</g>
		</g>
	</g>
	<g>
		<path class="st3" d="M1140.6,369.3h-0.9c0-40.3-55.4-61.3-114.1-83.5C961,261.2,894.3,236,894.3,182.3h0.9
			c0,53,66.5,78.2,130.8,102.7C1085,307.3,1140.6,328.4,1140.6,369.3z"/>
	</g>
	<g>
		<g>
			<g>
				<path class="st5" d="M1058.3,363.9c3,0,5.4,2.4,5.4,5.4c0,3-2.4,5.4-5.4,5.4s-5.4-2.4-5.4-5.4
					C1052.9,366.3,1055.2,363.9,1058.3,363.9"/>
			</g>
		</g>
	</g>
	<g>
		<g>
			<g>
				<path class="st5" d="M1140.2,363.9c3,0,5.4,2.4,5.4,5.4c0,3-2.4,5.4-5.4,5.4s-5.4-2.4-5.4-5.4
					C1134.8,366.3,1137.2,363.9,1140.2,363.9"/>
			</g>
		</g>
	</g>
</g>
<g id="Limiters_copy_3_2_">
	<g>
		<g>
			<g>
				<path class="st4" d="M976.6,365.7c2,0,3.6,1.6,3.6,3.6s-1.6,3.6-3.6,3.6c-2,0-3.6-1.6-3.6-3.6S974.6,365.7,976.6,365.7"/>
			</g>
		</g>
	</g>
	<g>
		<path class="st3" d="M977,369.3h-0.9c0-40.4-18.4-61.4-38-83.6c-21.6-24.5-43.8-49.8-43.8-103.4h0.9c0,53.1,22.1,78.4,43.6,102.8
			C958.4,307.4,977,328.6,977,369.3z"/>
	</g>
	<g>
		<path class="st3" d="M1058.7,369.3h-0.9c0-40.3-36.9-61.3-76-83.5c-43.1-24.5-87.6-49.9-87.6-103.5h0.9c0,53,44.3,78.3,87.1,102.7
			C1021.6,307.4,1058.7,328.5,1058.7,369.3z"/>
	</g>
	<g>
		<g>
			<g>
				<path class="st5" d="M1052.9,370.2c0-3,2.3-5.4,5.4-5.4 M1058.3,364.8c3,0,5.4,2.4,5.4,5.4"/>
			</g>
		</g>
	</g>
</g>
<g id="Layer_13_copy_2_">
	<g>
		<rect x="730.2" y="181.1" class="st3" width="0.9" height="187"/>
	</g>
	<g>
		<path class="st3" d="M649.4,368.1h-0.9c0-40.7,18.5-61.8,38.1-84.2c21.4-24.4,43.5-49.6,43.5-102.8h0.9
			c0,53.5-22.2,78.8-43.8,103.4C667.8,306.7,649.4,327.7,649.4,368.1z"/>
	</g>
</g>
<g id="Limiters_copy_2_4_">
	<g>
		<g>
			<g>
				<path class="st4" d="M812.5,364.5c2,0,3.6,1.6,3.6,3.6s-1.6,3.6-3.6,3.6c-2,0-3.6-1.6-3.6-3.6S810.5,364.5,812.5,364.5"/>
			</g>
		</g>
	</g>
	<g>
		<g>
			<g>
				<circle class="st5" cx="730.7" cy="368.1" r="5.4"/>
			</g>
		</g>
	</g>
	<g>
		<g>
			<g>
				<circle class="st5" cx="403.4" cy="368.1" r="5.4"/>
			</g>
		</g>
	</g>
</g>
<g id="Limiters_copy_3_3_">
	<g>
		<path class="st3" d="M812.9,368.1H812c0-40.4-18.4-61.4-38-83.6c-21.6-24.5-43.8-49.8-43.8-103.4h0.9c0,53.1,22.1,78.4,43.6,102.8
			C794.3,306.2,812.9,327.3,812.9,368.1z"/>
	</g>
	<g>
		<g>
			<g>
				<circle class="st5" cx="730.7" cy="368.1" r="5.4"/>
			</g>
		</g>
	</g>
	<g>
		<g>
			<g>
				<circle class="st5" cx="648.9" cy="368.1" r="5.4"/>
			</g>
		</g>
	</g>
	<g>
		<g>
			<g>
				<path class="st5" d="M812.5,362.7c3,0,5.4,2.4,5.4,5.4c0,3-2.4,5.4-5.4,5.4s-5.4-2.4-5.4-5.4
					C807.1,365.1,809.5,362.7,812.5,362.7"/>
			</g>
		</g>
	</g>
	<g>
		<g>
			<g>
				<path class="st5" d="M976.6,363.9c3,0,5.4,2.4,5.4,5.4c0,3-2.4,5.4-5.4,5.4s-5.4-2.4-5.4-5.4
					C971.2,366.3,973.6,363.9,976.6,363.9"/>
			</g>
		</g>
	</g>
</g>
<g>
	<g>
		<circle class="st5" cx="730.7" cy="181.1" r="5.4"/>
	</g>
</g>
<rect x="55" y="386" class="st14" width="20.2" height="7.3"/>
<rect x="78.5" y="386" class="st14" width="8.1" height="7.3"/>
<rect x="142.2" y="386" class="st14" width="14.4" height="7.3"/>
<rect x="159.4" y="386" class="st14" width="14.4" height="7.3"/>
<rect x="223.8" y="386" class="st14" width="10.2" height="7.3"/>
<rect x="237.2" y="386" class="st14" width="18" height="7.3"/>
<rect x="306.4" y="386" class="st14" width="15.2" height="7.3"/>
<rect x="324.8" y="386" class="st14" width="13" height="7.3"/>
<rect x="387.7" y="386" class="st14" width="21.2" height="7.3"/>
<rect x="412.2" y="386" class="st14" width="7" height="7.3"/>
<rect x="387.7" y="400.7" class="st14" width="10.2" height="7.3"/>
<rect x="401.2" y="400.7" class="st14" width="18" height="7.3"/>
<rect x="633.9" y="386" class="st14" width="20.2" height="7.3"/>
<rect x="657.4" y="386" class="st14" width="8.1" height="7.3"/>
<rect x="721.1" y="386" class="st14" width="14.4" height="7.3"/>
<rect x="738.3" y="386" class="st14" width="14.4" height="7.3"/>
<rect x="802.6" y="386" class="st14" width="9.2" height="7.3"/>
<rect x="815.1" y="386" class="st14" width="19" height="7.3"/>
<rect x="966.6" y="386" class="st14" width="12.2" height="7.3"/>
<rect x="982.1" y="386" class="st14" width="16" height="7.3"/>
<rect x="966.6" y="386" class="st14" width="12.2" height="7.3"/>
<rect x="982.1" y="386" class="st14" width="16" height="7.3"/>
<rect x="1048" y="386" class="st14" width="13.2" height="7.3"/>
<rect x="1064.4" y="386" class="st14" width="15" height="7.3"/>
<rect x="1047.7" y="386" class="st14" width="13.2" height="7.3"/>
<rect x="1064.1" y="386" class="st14" width="15" height="7.3"/>
<rect x="1129" y="386" class="st14" width="21.2" height="7.3"/>
<rect x="1153.5" y="386" class="st14" width="7" height="7.3"/>
</svg>
