<?xml version="1.0" encoding="utf-8"?>
<!-- Generator: Adobe Illustrator 19.2.0, SVG Export Plug-In . SVG Version: 6.00 Build 0)  -->
<svg version="1.1" id="Layer_1" xmlns="http://www.w3.org/2000/svg" xmlns:xlink="http://www.w3.org/1999/xlink" x="0px" y="0px"
	 width="1200px" height="2001px" viewBox="0 0 1200 2001" enable-background="new 0 0 1200 2001" xml:space="preserve">
<g>
	<g>
		<text transform="matrix(1 0 0 1 -0.9646 1410.3748)" fill="#464A90" font-family="'Roboto-Regular'" font-size="59.9736px">heatmap using categorical data</text>
	</g>
	<g>
		<text transform="matrix(1 0 0 1 753.5237 1534.2556)" fill="#7F7F7F" font-family="'Roboto-Regular'" font-size="59.9736px">legend / key</text>
	</g>
	<g>
		<text transform="matrix(1 0 0 1 863.676 1685.8123)" fill="#7F7F7F" font-family="'Roboto-Regular'" font-size="59.9736px">low</text>
	</g>
	<g>
		<text transform="matrix(1 0 0 1 863.676 1791.031)" fill="#7F7F7F" font-family="'Roboto-Regular'" font-size="59.9736px">medium</text>
	</g>
	<g>
		<text transform="matrix(1 0 0 1 863.676 1900.0291)" fill="#7F7F7F" font-family="'Roboto-Regular'" font-size="59.9736px">high</text>
	</g>
	<rect x="758" y="1629" fill="#C8CDEB" width="74" height="74"/>
	<rect x="758" y="1736" fill="#AFB8E3" width="74" height="74"/>
	<rect x="758" y="1844" fill="#939FD5" width="74" height="74"/>
	<g>
		<text transform="matrix(1 0 0 1 87.512 518.1932)" fill="#7F7F7F" font-family="'Roboto-Regular'" font-size="59.9736px">rows</text>
	</g>
	<g>
		<text transform="matrix(1 0 0 1 483.7346 143.9315)" fill="#7F7F7F" font-family="'Roboto-Regular'" font-size="59.9736px">columns</text>
	</g>
	<rect x="371" y="278" fill="#C8CDEB" width="148" height="148"/>
	<rect x="519" y="278" fill="#939FD5" width="148" height="148"/>
	<rect x="667" y="278" fill="#C8CDEB" width="148" height="148"/>
	<rect x="371" y="426" fill="#939FD5" width="148" height="148"/>
	<rect x="519" y="426" fill="#AFB8E3" width="148" height="148"/>
	<rect x="667" y="426" fill="#939FD5" width="148" height="148"/>
	<rect x="371" y="574" fill="#AFB8E3" width="148" height="148"/>
	<rect x="519" y="574" fill="#C8CDEB" width="148" height="148"/>
	<rect x="667" y="574" fill="#AFB8E3" width="148" height="148"/>
	<g>
		<text transform="matrix(1 0 0 1 313.1917 366.0076)" fill="#37246D" font-family="'Roboto-Medium'" font-size="46.4534px">D</text>
	</g>
	<g>
		<text transform="matrix(1 0 0 1 313.1917 519.5447)" fill="#37246D" font-family="'Roboto-Medium'" font-size="46.4534px">E</text>
	</g>
	<g>
		<text transform="matrix(1 0 0 1 313.1917 664.6639)" fill="#37246D" font-family="'Roboto-Medium'" font-size="46.4534px">F</text>
	</g>
	<g>
		<text transform="matrix(1 0 0 1 430.4885 257.7127)" fill="#37246D" font-family="'Roboto-Medium'" font-size="46.4534px">a</text>
	</g>
	<g>
		<text transform="matrix(1 0 0 1 583.9534 257.7127)" fill="#37246D" font-family="'Roboto-Medium'" font-size="46.4534px">B</text>
	</g>
	<g>
		<text transform="matrix(1 0 0 1 727.6174 257.7127)" fill="#37246D" font-family="'Roboto-Medium'" font-size="46.4534px">C</text>
	</g>
	<rect x="57" y="1555" fill="#C8CDEB" width="148" height="148"/>
	<rect x="205" y="1555" fill="#939FD5" width="148" height="148"/>
	<rect x="353" y="1555" fill="#C8CDEB" width="148" height="148"/>
	<rect x="57" y="1703" fill="#939FD5" width="148" height="148"/>
	<rect x="205" y="1703" fill="#AFB8E3" width="148" height="148"/>
	<rect x="353" y="1703" fill="#939FD5" width="148" height="148"/>
	<rect x="57" y="1851" fill="#AFB8E3" width="148" height="148"/>
	<rect x="205" y="1851" fill="#C8CDEB" width="148" height="148"/>
	<rect x="353" y="1851" fill="#AFB8E3" width="148" height="148"/>
	<g>
		<text transform="matrix(1 0 0 1 -1.3787 1642.5505)" fill="#37246D" font-family="'Roboto-Medium'" font-size="46.4534px">D</text>
	</g>
	<g>
		<text transform="matrix(1 0 0 1 -1.3787 1796.0876)" fill="#37246D" font-family="'Roboto-Medium'" font-size="46.4534px">E</text>
	</g>
	<g>
		<text transform="matrix(1 0 0 1 -1.3787 1941.2068)" fill="#37246D" font-family="'Roboto-Medium'" font-size="46.4534px">F</text>
	</g>
	<g>
		<text transform="matrix(1 0 0 1 115.9143 1534.2556)" fill="#37246D" font-family="'Roboto-Medium'" font-size="46.4534px">a</text>
	</g>
	<g>
		<text transform="matrix(1 0 0 1 269.3831 1534.2556)" fill="#37246D" font-family="'Roboto-Medium'" font-size="46.4534px">B</text>
	</g>
	<g>
		<text transform="matrix(1 0 0 1 413.0471 1534.2556)" fill="#37246D" font-family="'Roboto-Medium'" font-size="46.4534px">C</text>
	</g>
	<polyline fill="none" stroke="#AFAFAF" stroke-width="8" stroke-miterlimit="10" points="444,204 444,176 743,176 743,204 	"/>
	<line fill="none" stroke="#AFAFAF" stroke-width="8" stroke-miterlimit="10" x1="596" y1="205" x2="596" y2="176"/>
	<polyline fill="none" stroke="#AFAFAF" stroke-width="8" stroke-miterlimit="10" points="297,650 269,650 269,351 297,351 	"/>
	<line fill="none" stroke="#AFAFAF" stroke-width="8" stroke-miterlimit="10" x1="297" y1="502" x2="243" y2="502"/>
	<g>
		<text transform="matrix(1 0 0 1 1.6213 842.9861)" fill="#7F7F7F" font-family="'Roboto-Regular'" font-size="59.9736px">value scale for determining cell colouring</text>
	</g>
	<g>
		<text transform="matrix(1 0 0 1 0.6213 1148.9138)" fill="#7F7F7F" font-family="'Roboto-Regular'" font-size="59.9736px">alternative value scale broken into ranges</text>
	</g>
	<linearGradient id="SVGID_1_" gradientUnits="userSpaceOnUse" x1="12" y1="923" x2="1165" y2="923">
		<stop  offset="0" style="stop-color:#C8CDEB"/>
		<stop  offset="1" style="stop-color:#7581BA"/>
	</linearGradient>
	<rect x="12" y="886" fill="url(#SVGID_1_)" width="1153" height="74"/>
	<rect x="742" y="1198" fill="#939FD5" width="208" height="74"/>
	<rect x="252" y="1198" fill="#C8CDEB" width="208" height="74"/>
	<rect x="3" y="1198" fill="#DADDF2" width="208" height="74"/>
	<rect x="990" y="1198" fill="#7581BA" width="208" height="74"/>
	<rect x="497" y="1198" fill="#AFB8E3" width="208" height="74"/>
	<g>
		<text transform="matrix(1 0 0 1 48.8831 1254.6423)" fill="#37246D" font-family="'Roboto-Medium'" font-size="46.4534px">0 - 20</text>
	</g>
	<g>
		<text transform="matrix(1 0 0 1 0.5432 1037.0876)" fill="#37246D" font-family="'Roboto-Medium'" font-size="46.4534px">0</text>
	</g>
	<g>
		<text transform="matrix(1 0 0 1 561.9807 1037.0876)" fill="#37246D" font-family="'Roboto-Medium'" font-size="46.4534px">50</text>
	</g>
	<g>
		<text transform="matrix(1 0 0 1 1120.7932 1037.0876)" fill="#37246D" font-family="'Roboto-Medium'" font-size="46.4534px">100</text>
	</g>
	<g>
		<text transform="matrix(1 0 0 1 285.1487 1254.6423)" fill="#37246D" font-family="'Roboto-Medium'" font-size="46.4534px">21 - 40</text>
	</g>
	<g>
		<text transform="matrix(1 0 0 1 528.2542 1254.6423)" fill="#37246D" font-family="'Roboto-Medium'" font-size="46.4534px">41 - 60</text>
	</g>
	<g>
		<text transform="matrix(1 0 0 1 774.4573 1254.6423)" fill="#37246D" font-family="'Roboto-Medium'" font-size="46.4534px">61 - 80</text>
	</g>
	<g>
		<text transform="matrix(1 0 0 1 1012.6721 1254.6423)" fill="#37246D" font-family="'Roboto-Medium'" font-size="46.4534px">81 - 100</text>
	</g>
	<polyline fill="none" stroke="#464A90" stroke-width="4" stroke-miterlimit="10" points="14,988 14,962 1163,962 1163,988 	"/>
	<line fill="none" stroke="#464A90" stroke-width="4" stroke-miterlimit="10" x1="587" y1="988" x2="587" y2="963"/>
	<text transform="matrix(1 0 0 1 2.0002 47.7401)" fill="#464A90" font-family="'Roboto-Regular'" font-size="59.9736px">heatmap using numerical data</text>
</g>
</svg>
