<?xml version="1.0" encoding="utf-8"?>
<!-- Generator: Adobe Illustrator 22.1.0, SVG Export Plug-In . SVG Version: 6.00 Build 0)  -->
<svg version="1.1" id="Layer_1" xmlns="http://www.w3.org/2000/svg" xmlns:xlink="http://www.w3.org/1999/xlink" x="0px" y="0px"
	 viewBox="0 0 1200 1282.1" style="enable-background:new 0 0 1200 1282.1;" xml:space="preserve">
<style type="text/css">
	.st0{fill:#6D6D6D;}
	.st1{font-family:'RobotoMono-Medium';}
	.st2{font-size:25px;}
	.st3{fill:#EBEBEB;}
	.st4{fill:#E3E3E3;}
	.st5{fill:#D5D5D5;}
	.st6{fill:#514361;}
	.st7{font-family:'RobotoMono-Regular';}
	.st8{font-size:50px;}
	.st9{fill:#8E8E8E;}
	.st10{fill:#898989;}
	.st11{font-size:39px;}
	.st12{fill:none;stroke:#AFAFAF;stroke-width:4;stroke-linecap:round;stroke-miterlimit:10;stroke-dasharray:0,9.9536;}
	.st13{fill:url(#SVGID_1_);}
	.st14{fill:#F2F2F2;}
	.st15{fill:#BABABA;}
	.st16{fill:none;stroke:#909090;stroke-width:4;stroke-miterlimit:10;}
	.st17{font-family:'Roboto-Italic';}
	.st18{font-size:29px;}
</style>
<g>
	<g>
		<g>
			<text transform="matrix(1 0 0 1 538.5661 1255.5122)" class="st0 st1 st2">low</text>
		</g>
	</g>
	<g>
		<g>
			<text transform="matrix(1 0 0 1 672.5031 1255.512)" class="st0 st1 st2">medium</text>
		</g>
	</g>
	<g>
		<g>
			<text transform="matrix(1 0 0 1 849.7863 1255.5122)" class="st0 st1 st2">high</text>
		</g>
	</g>
	<rect x="533.1" y="1157.3" class="st3" width="51.8" height="51.8"/>
	<rect x="691.4" y="1157.3" class="st4" width="51.8" height="51.8"/>
	<rect x="849.6" y="1157.3" class="st5" width="51.8" height="51.8"/>
	<g>
		<g>
			<text transform="matrix(1 0 0 1 32.005 443.7274)" class="st6 st7 st8">rows</text>
		</g>
	</g>
	<g>
		<g>
			<text transform="matrix(1 0 0 1 420.2203 56.4657)" class="st6 st7 st8">columns</text>
		</g>
	</g>
	<g>
		<g>
			<text transform="matrix(1 0 0 1 848.8909 443.7273)" class="st6 st7 st8">data point</text>
		</g>
	</g>
	<rect x="302.5" y="203.5" class="st3" width="148" height="148"/>
	<rect x="450.5" y="203.5" class="st5" width="148" height="148"/>
	<rect x="598.5" y="203.5" class="st3" width="148" height="148"/>
	<rect x="302.5" y="351.5" class="st5" width="148" height="148"/>
	<rect x="450.5" y="351.5" class="st4" width="148" height="148"/>
	<rect x="598.5" y="351.5" class="st9" width="148" height="148"/>
	<rect x="302.5" y="499.5" class="st0" width="148" height="148"/>
	<rect x="450.5" y="499.5" class="st3" width="148" height="148"/>
	<rect x="598.5" y="499.5" class="st4" width="148" height="148"/>
	<g>
		<text transform="matrix(1 0 0 1 252.9923 291.5417)" class="st10 st7 st11">1</text>
	</g>
	<g>
		<text transform="matrix(1 0 0 1 252.9923 445.0789)" class="st10 st7 st11">2</text>
	</g>
	<g>
		<text transform="matrix(1 0 0 1 252.9923 590.1981)" class="st10 st7 st11">3</text>
	</g>
	<g>
		<text transform="matrix(1 0 0 1 361.2891 183.2468)" class="st10 st7 st11">A</text>
	</g>
	<g>
		<text transform="matrix(1 0 0 1 514.754 183.2468)" class="st10 st7 st11">B</text>
	</g>
	<g>
		<text transform="matrix(1 0 0 1 658.418 183.2468)" class="st10 st7 st11">C</text>
	</g>
	<polyline class="st12" points="375.5,129.5 375.5,101.5 674.5,101.5 674.5,129.5 	"/>
	<polyline class="st12" points="228.5,575.5 200.5,575.5 200.5,276.5 228.5,276.5 	"/>
	<line class="st12" x1="200.5" y1="427.5" x2="174.5" y2="427.5"/>
	<g>
		<g>
			<text transform="matrix(1 0 0 1 55.1052 778.9877)" class="st6 st7 st8">color value scales </text>
		</g>
	</g>
	
		<linearGradient id="SVGID_1_" gradientUnits="userSpaceOnUse" x1="263.2" y1="-577.95" x2="1169.2" y2="-577.95" gradientTransform="matrix(1 0 0 1 0 1502)">
		<stop  offset="0" style="stop-color:#EBEBEB"/>
		<stop  offset="1" style="stop-color:#BABABA"/>
	</linearGradient>
	<rect x="263.2" y="895.8" class="st13" width="906" height="56.5"/>
	<rect x="825" y="1045" class="st5" width="158.9" height="56.5"/>
	<rect x="450.6" y="1045" class="st3" width="158.9" height="56.5"/>
	<rect x="260.3" y="1045" class="st14" width="158.9" height="56.5"/>
	<rect x="1014.5" y="1045" class="st15" width="158.9" height="56.5"/>
	<rect x="637.8" y="1045" class="st4" width="158.9" height="56.5"/>
	<g>
		<text transform="matrix(1 0 0 1 295.3882 1080.6248)" class="st0 st1 st2">0 - 20</text>
	</g>
	<g>
		<text transform="matrix(1 0 0 1 254.4526 1011.2461)" class="st0 st1 st2">0</text>
	</g>
	<g>
		<text transform="matrix(1 0 0 1 689.4365 1011.2461)" class="st0 st1 st2">50</text>
	</g>
	<g>
		<text transform="matrix(1 0 0 1 1135.415 1011.2461)" class="st0 st1 st2">100</text>
	</g>
	<g>
		<text transform="matrix(1 0 0 1 475.9146 1080.6248)" class="st0 st1 st2">21 - 40</text>
	</g>
	<g>
		<text transform="matrix(1 0 0 1 661.667 1080.6248)" class="st0 st1 st2">41 - 60</text>
	</g>
	<g>
		<text transform="matrix(1 0 0 1 849.7861 1080.6248)" class="st0 st1 st2">61 - 80</text>
	</g>
	<g>
		<text transform="matrix(1 0 0 1 1031.8027 1080.6248)" class="st0 st1 st2">81 - 100</text>
	</g>
	<polyline class="st16" points="264.7,973.7 264.7,953.9 1167.7,953.9 1167.7,973.7 	"/>
	<line class="st16" x1="708.6" y1="973.7" x2="708.6" y2="954.6"/>
</g>
<path class="st12" d="M526.5,102V69.5"/>
<line class="st12" x1="825" y1="427.5" x2="675.5" y2="427.5"/>
<g>
	<text transform="matrix(1 0 0 1 60.854 830.6848)" class="st6 st17 st18">the scale can show colors as a gradient from lowest to highest values</text>
	<text transform="matrix(1 0 0 1 60.854 865.4848)" class="st6 st17 st18">or as ranges </text>
</g>
</svg>
