<?xml version="1.0" encoding="utf-8"?>
<!-- Generator: Adobe Illustrator 22.1.0, SVG Export Plug-In . SVG Version: 6.00 Build 0)  -->
<svg version="1.1" xmlns="http://www.w3.org/2000/svg" xmlns:xlink="http://www.w3.org/1999/xlink" x="0px" y="0px"
	 viewBox="0 0 1268 418" enable-background="new 0 0 1268 418" xml:space="preserve">
<g id="Layer_1">
	<text transform="matrix(1 0 0 1 14.8452 113.9854)"><tspan x="0" y="0" fill="#D1CDC9" font-family="'RobotoCondensed-Regular'" font-size="18px">Mon</tspan><tspan x="0" y="58" fill="#D1CDC9" font-family="'RobotoCondensed-Regular'" font-size="18px">Tue</tspan><tspan x="0" y="116" fill="#D1CDC9" font-family="'RobotoCondensed-Regular'" font-size="18px">Wed</tspan><tspan x="0" y="174" fill="#D1CDC9" font-family="'RobotoCondensed-Regular'" font-size="18px">Thu</tspan><tspan x="0" y="232" fill="#D1CDC9" font-family="'RobotoCondensed-Regular'" font-size="18px">Fri</tspan></text>
	<g>
		<circle fill="#C6BFCF" cx="320.4" cy="281.2" r="25.3"/>
		<circle fill="#C6BFCF" cx="953.3" cy="281.2" r="25.3"/>
		<circle fill="#C6BFCF" cx="493" cy="107.9" r="25.3"/>
		<circle fill="#C6BFCF" cx="493" cy="165.6" r="25.3"/>
		<circle fill="#C6BFCF" cx="723.1" cy="223.4" r="25.3"/>
		<circle fill="#C6BFCF" cx="838.2" cy="107.9" r="25.3"/>
		<circle fill="#C6BFCF" cx="895.7" cy="107.9" r="25.3"/>
		<circle fill="#C6BFCF" cx="550.6" cy="281.2" r="25.3"/>
		<circle fill="#C6BFCF" cx="723.1" cy="107.9" r="25.3"/>
		<circle fill="#C6BFCF" cx="608.1" cy="165.6" r="25.3"/>
		<circle fill="#C6BFCF" cx="320.4" cy="223.4" r="25.3"/>
		<circle fill="#C6BFCF" cx="953.3" cy="223.4" r="25.3"/>
		<circle fill="#C6BFCF" cx="435.5" cy="281.2" r="25.3"/>
		<circle fill="#C6BFCF" cx="723.1" cy="281.2" r="25.3"/>
		<circle fill="#C6BFCF" cx="378" cy="338.9" r="25.3"/>
		<circle fill="#C6BFCF" cx="493" cy="338.9" r="25.3"/>
		<circle fill="#C6BFCF" cx="665.6" cy="338.9" r="25.3"/>
	</g>
	<g>
		<circle fill="#A697A6" cx="608.1" cy="107.9" r="25.3"/>
		<circle fill="#A697A6" cx="550.6" cy="165.6" r="25.3"/>
		<circle fill="#A697A6" cx="723.1" cy="165.6" r="25.3"/>
		<circle fill="#A697A6" cx="435.5" cy="223.4" r="25.3"/>
		<circle fill="#A697A6" cx="378" cy="281.2" r="25.3"/>
		<circle fill="#A697A6" cx="493" cy="281.2" r="25.3"/>
		<circle fill="#A697A6" cx="550.6" cy="338.9" r="25.3"/>
		<circle fill="#A697A6" cx="665.6" cy="107.9" r="25.3"/>
		<circle fill="#A697A6" cx="780.7" cy="165.6" r="25.3"/>
		<circle fill="#A697A6" cx="550.6" cy="223.4" r="25.3"/>
		<circle fill="#A697A6" cx="665.6" cy="281.2" r="25.3"/>
		<circle fill="#A697A6" cx="838.2" cy="281.2" r="25.3"/>
		<circle fill="#A697A6" cx="608.1" cy="223.4" r="25.3"/>
		<circle fill="#A697A6" cx="435.5" cy="165.6" r="25.3"/>
		<circle fill="#A697A6" cx="665.6" cy="223.4" r="25.3"/>
		<circle fill="#A697A6" cx="838.2" cy="223.4" r="25.3"/>
		<circle fill="#A697A6" cx="895.7" cy="223.4" r="25.3"/>
		<circle fill="#A697A6" cx="780.7" cy="338.9" r="25.3"/>
	</g>
	<g>
		<circle fill="#BEAFB6" cx="435.5" cy="107.9" r="25.3"/>
		<circle fill="#BEAFB6" cx="435.5" cy="338.9" r="25.3"/>
		<circle fill="#BEAFB6" cx="780.7" cy="281.2" r="25.3"/>
		<circle fill="#BEAFB6" cx="608.1" cy="338.9" r="25.3"/>
		<circle fill="#BEAFB6" cx="723.1" cy="338.9" r="25.3"/>
		<circle fill="#BEAFB6" cx="493" cy="223.4" r="25.3"/>
		<circle fill="#BEAFB6" cx="550.6" cy="107.9" r="25.3"/>
		<circle fill="#BEAFB6" cx="780.7" cy="107.9" r="25.3"/>
		<circle fill="#BEAFB6" cx="665.6" cy="165.6" r="25.3"/>
		<circle fill="#BEAFB6" cx="378" cy="223.4" r="25.3"/>
		<circle fill="#BEAFB6" cx="608.1" cy="281.2" r="25.3"/>
		<circle fill="#BEAFB6" cx="895.7" cy="281.2" r="25.3"/>
		<circle fill="#BEAFB6" cx="838.2" cy="338.9" r="25.3"/>
	</g>
	<g opacity="0.6">
		<circle fill="#EABB98" cx="205.4" cy="223.4" r="25.3"/>
		<circle fill="#EABB98" cx="147.9" cy="338.9" r="25.3"/>
		<circle fill="#EABB98" cx="1068.3" cy="338.9" r="25.3"/>
		<circle fill="#EABB98" cx="1183.4" cy="338.9" r="25.3"/>
		<circle fill="#EABB98" cx="320.4" cy="165.6" r="25.3"/>
		<circle fill="#EABB98" cx="1010.8" cy="165.6" r="25.3"/>
		<circle fill="#EABB98" cx="1183.4" cy="165.6" r="25.3"/>
		<circle fill="#EABB98" cx="1010.8" cy="223.4" r="25.3"/>
		<circle fill="#EABB98" cx="1125.8" cy="107.9" r="25.3"/>
		<circle fill="#EABB98" cx="1068.3" cy="165.6" r="25.3"/>
		<circle fill="#EABB98" cx="1125.8" cy="281.2" r="25.3"/>
		<circle fill="#EABB98" cx="1240" cy="338.9" r="25.3"/>
		<circle fill="#EABB98" cx="1240" cy="107.9" r="25.3"/>
		<circle fill="#EABB98" cx="1240" cy="223.4" r="25.3"/>
		<circle fill="#EABB98" cx="90.3" cy="107.9" r="25.3"/>
		<circle fill="#EABB98" cx="205.4" cy="107.9" r="25.3"/>
		<circle fill="#EABB98" cx="147.9" cy="165.6" r="25.3"/>
		<circle fill="#EABB98" cx="90.3" cy="223.4" r="25.3"/>
		<circle fill="#EABB98" cx="262.9" cy="281.2" r="25.3"/>
	</g>
	<g>
		<circle fill="#E7D7D4" cx="147.9" cy="107.9" r="25.3"/>
		<circle fill="#E7D7D4" cx="90.3" cy="165.6" r="25.3"/>
		<circle fill="#E7D7D4" cx="147.9" cy="223.4" r="25.3"/>
		<circle fill="#E7D7D4" cx="205.4" cy="281.2" r="25.3"/>
		<circle fill="#E7D7D4" cx="1068.3" cy="281.2" r="25.3"/>
		<circle fill="#E7D7D4" cx="1183.4" cy="281.2" r="25.3"/>
		<circle fill="#E7D7D4" cx="262.9" cy="338.9" r="25.3"/>
		<circle fill="#E7D7D4" cx="1010.8" cy="107.9" r="25.3"/>
		<circle fill="#E7D7D4" cx="1183.4" cy="107.9" r="25.3"/>
		<circle fill="#E7D7D4" cx="1125.8" cy="338.9" r="25.3"/>
		<circle fill="#E7D7D4" cx="895.7" cy="165.6" r="25.3"/>
		<circle fill="#E7D7D4" cx="378" cy="107.9" r="25.3"/>
		<circle fill="#E7D7D4" cx="953.3" cy="165.6" r="25.3"/>
		<circle fill="#E7D7D4" cx="1125.8" cy="165.6" r="25.3"/>
		<circle fill="#E7D7D4" cx="1240" cy="281.2" r="25.3"/>
		<circle fill="#E7D7D4" cx="1010.8" cy="338.9" r="25.3"/>
		<circle fill="#E7D7D4" cx="90.3" cy="338.9" r="25.3"/>
	</g>
	<g>
		<circle fill="#DDD9E0" cx="262.9" cy="107.9" r="25.3"/>
		<circle fill="#DDD9E0" cx="320.4" cy="107.9" r="25.3"/>
		<circle fill="#DDD9E0" cx="205.4" cy="165.6" r="25.3"/>
		<circle fill="#DDD9E0" cx="378" cy="165.6" r="25.3"/>
		<circle fill="#DDD9E0" cx="90.3" cy="281.2" r="25.3"/>
		<circle fill="#DDD9E0" cx="320.4" cy="338.9" r="25.3"/>
		<circle fill="#DDD9E0" cx="1068.3" cy="107.9" r="25.3"/>
		<circle fill="#DDD9E0" cx="262.9" cy="223.4" r="25.3"/>
		<circle fill="#DDD9E0" cx="780.7" cy="223.4" r="25.3"/>
		<circle fill="#DDD9E0" cx="1125.8" cy="223.4" r="25.3"/>
		<circle fill="#DDD9E0" cx="1010.8" cy="281.2" r="25.3"/>
		<circle fill="#DDD9E0" cx="953.3" cy="338.9" r="25.3"/>
		<circle fill="#DDD9E0" cx="953.3" cy="107.9" r="25.3"/>
		<circle fill="#DDD9E0" cx="1068.3" cy="223.4" r="25.3"/>
		<circle fill="#DDD9E0" cx="895.7" cy="338.9" r="25.3"/>
		<circle fill="#DDD9E0" cx="838.2" cy="165.6" r="25.3"/>
		<circle fill="#DDD9E0" cx="1183.4" cy="223.4" r="25.3"/>
		<circle fill="#DDD9E0" cx="1240" cy="165.6" r="25.3"/>
		<circle fill="#DDD9E0" cx="262.9" cy="165.6" r="25.3"/>
		<circle fill="#DDD9E0" cx="147.9" cy="281.2" r="25.3"/>
		<circle fill="#DDD9E0" cx="205.4" cy="338.9" r="25.3"/>
	</g>
	<polyline fill="none" stroke="#C4C4C4" stroke-miterlimit="10" points="83.5,388.7 83.5,379.3 1265.3,379.3 	"/>
	<g>
		<text transform="matrix(1 0 0 1 938.1543 415.6895)" fill="#D1CDC9" font-family="'RobotoCondensed-Regular'" font-size="18px">2015</text>
	</g>
	<g>
		<text transform="matrix(1 0 0 1 649.7354 415.6895)" fill="#D1CDC9" font-family="'RobotoCondensed-Regular'" font-size="18px">2010</text>
	</g>
	<g>
		<text transform="matrix(1 0 0 1 69.728 415.6895)" fill="#D1CDC9" font-family="'RobotoCondensed-Regular'" font-size="18px">2000</text>
	</g>
	<g>
		<text transform="matrix(1 0 0 1 363.2222 415.6895)" fill="#D1CDC9" font-family="'RobotoCondensed-Regular'" font-size="18px">2005</text>
	</g>
	<g>
		<text transform="matrix(1 0 0 1 1221.9121 415.6895)" fill="#D1CDC9" font-family="'RobotoCondensed-Regular'" font-size="18px">2020</text>
	</g>
	<line fill="none" stroke="#C4C4C4" stroke-miterlimit="10" x1="953.3" y1="388.7" x2="953.3" y2="379.3"/>
	<line fill="none" stroke="#C4C4C4" stroke-miterlimit="10" x1="665.6" y1="388.7" x2="665.6" y2="379.3"/>
	<line fill="none" stroke="#C4C4C4" stroke-miterlimit="10" x1="378.6" y1="388.7" x2="378.6" y2="379.3"/>
	<line fill="none" stroke="#C4C4C4" stroke-miterlimit="10" x1="1237.7" y1="388.7" x2="1237.7" y2="379.3"/>
</g>
<g id="Layer_2">
</g>
<g id="Layer_3">
</g>
</svg>
