<?xml version="1.0" encoding="utf-8"?>
<!-- Generator: Adobe Illustrator 19.2.0, SVG Export Plug-In . SVG Version: 6.00 Build 0)  -->
<svg version="1.1" id="Layer_1" xmlns="http://www.w3.org/2000/svg" xmlns:xlink="http://www.w3.org/1999/xlink" x="0px" y="0px"
	 width="1268px" height="558px" viewBox="0 0 1268 558" enable-background="new 0 0 1268 558" xml:space="preserve">
<g id="Layer_2">
</g>
<g>
	<text transform="matrix(1 0 0 1 1.6904 124.0002)"><tspan x="0" y="0" fill="#B3B3B3" font-family="'RobotoCondensed-Regular'" font-size="26px">Mo</tspan><tspan x="0" y="51" fill="#B3B3B3" font-family="'RobotoCondensed-Regular'" font-size="26px">Tu</tspan><tspan x="0" y="102" fill="#B3B3B3" font-family="'RobotoCondensed-Regular'" font-size="26px">We</tspan><tspan x="0" y="153" fill="#B3B3B3" font-family="'RobotoCondensed-Regular'" font-size="26px">Th</tspan><tspan x="0" y="204" fill="#B3B3B3" font-family="'RobotoCondensed-Regular'" font-size="26px">Fr</tspan><tspan x="0" y="255" fill="#B3B3B3" font-family="'RobotoCondensed-Regular'" font-size="26px">Sa</tspan><tspan x="0" y="306" fill="#B3B3B3" font-family="'RobotoCondensed-Regular'" font-size="26px">Su</tspan></text>
</g>
<g>
	<text transform="matrix(1 0 0 1 59.2172 77.0001)" fill="#B3B3B3" font-family="'RobotoCondensed-Regular'" font-size="26px">12a    1a    2a    3a    4a    5a    6a     7a    8a    9a   10a   11a  12a   1p    2p    3p    4p     5p    6p    7p     8p    9p   10p  11p</text>
</g>
<g>
	<text transform="matrix(1 0 0 1 655.6354 511.6949)" fill="#B3B3B3" font-family="'RobotoCondensed-Regular'" font-size="26px">less traffic</text>
</g>
<g>
	<text transform="matrix(1 0 0 1 1145.6355 511.6951)" fill="#B3B3B3" font-family="'RobotoCondensed-Regular'" font-size="26px">more traffic</text>
</g>
<circle fill="#EBE0D4" cx="128.044" cy="117.617" r="22.333"/>
<circle fill="#DFDAE3" cx="229.464" cy="117.617" r="22.333"/>
<circle fill="#DFDAE3" cx="280.174" cy="117.617" r="22.333"/>
<circle fill="#EBE0D4" cx="1091.536" cy="117.617" r="22.333"/>
<circle fill="#EBE0D4" cx="1192.956" cy="117.617" r="22.333"/>
<circle fill="#DFDAE3" cx="1243.667" cy="117.617" r="22.333"/>
<circle fill="#DFDAE3" cx="77.333" cy="168.53" r="22.333"/>
<circle fill="#EBE0D4" cx="178.754" cy="168.53" r="22.333"/>
<circle fill="#EBE0D4" cx="330.884" cy="168.53" r="22.333"/>
<circle fill="#EBE0D4" cx="1091.536" cy="168.53" r="22.333"/>
<circle fill="#DFDAE3" cx="1142.246" cy="168.53" r="22.333"/>
<circle fill="#F3D0AA" cx="1243.667" cy="168.53" r="22.333"/>
<circle fill="#DFDAE3" cx="128.044" cy="219.443" r="22.333"/>
<circle fill="#EBE0D4" cx="178.754" cy="219.443" r="22.333"/>
<circle fill="#DFDAE3" cx="1091.536" cy="219.443" r="22.333"/>
<circle fill="#EBE0D4" cx="1192.956" cy="219.443" r="22.333"/>
<circle fill="#EBE0D4" cx="1243.667" cy="219.443" r="22.333"/>
<circle fill="#EBE0D4" cx="77.333" cy="270.356" r="22.333"/>
<circle fill="#EBE0D4" cx="178.754" cy="270.356" r="22.333"/>
<circle fill="#EBE0D4" cx="939.406" cy="270.356" r="22.333"/>
<circle fill="#CBC5D3" cx="1040.826" cy="270.356" r="22.333"/>
<circle fill="#EBE0D4" cx="1142.246" cy="270.356" r="22.333"/>
<circle fill="#F3D0AA" cx="1192.956" cy="270.356" r="22.333"/>
<circle fill="#F3D0AA" cx="1243.667" cy="270.356" r="22.333"/>
<circle fill="#EBE0D4" cx="128.044" cy="321.269" r="22.333"/>
<circle fill="#DFDAE3" cx="229.464" cy="321.269" r="22.333"/>
<circle fill="#EBE0D4" cx="280.174" cy="321.269" r="22.333"/>
<circle fill="#CBC5D3" cx="939.406" cy="321.269" r="22.333"/>
<circle fill="#EBE0D4" cx="1040.826" cy="321.269" r="22.333"/>
<circle fill="#EBE0D4" cx="1142.246" cy="321.269" r="22.333"/>
<circle fill="#F3D0AA" cx="1243.667" cy="321.269" r="22.333"/>
<circle fill="#EBE0D4" cx="77.333" cy="372.182" r="22.333"/>
<circle fill="#EBE0D4" cx="178.754" cy="372.182" r="22.333"/>
<circle fill="#EBE0D4" cx="229.464" cy="372.182" r="22.333"/>
<circle fill="#EBE0D4" cx="1091.536" cy="372.182" r="22.333"/>
<circle fill="#DFDAE3" cx="1192.956" cy="372.182" r="22.333"/>
<circle fill="#F3D0AA" cx="1243.667" cy="372.182" r="22.333"/>
<circle fill="#DFDAE3" cx="178.754" cy="423.094" r="22.333"/>
<circle fill="#DFDAE3" cx="280.174" cy="423.094" r="22.333"/>
<circle fill="#CBC5D3" cx="330.884" cy="423.094" r="22.333"/>
<circle fill="#DFDAE3" cx="381.594" cy="117.617" r="22.333"/>
<circle fill="#CBC5D3" cx="533.725" cy="117.617" r="22.333"/>
<circle fill="#DFDAE3" cx="888.696" cy="117.617" r="22.333"/>
<circle fill="#CBC5D3" cx="939.406" cy="117.617" r="22.333"/>
<circle fill="#DFDAE3" cx="1040.826" cy="117.617" r="22.333"/>
<circle fill="#DFDAE3" cx="280.174" cy="168.53" r="22.333"/>
<circle fill="#CBC5D3" cx="483.015" cy="168.53" r="22.333"/>
<circle fill="#CBC5D3" cx="635.145" cy="168.53" r="22.333"/>
<circle fill="#CBC5D3" cx="888.696" cy="168.53" r="22.333"/>
<circle fill="#DFDAE3" cx="1040.826" cy="168.53" r="22.333"/>
<circle fill="#CBC5D3" cx="229.464" cy="219.443" r="22.333"/>
<circle fill="#DFDAE3" cx="381.594" cy="219.443" r="22.333"/>
<circle fill="#CBC5D3" cx="685.855" cy="219.443" r="22.333"/>
<circle fill="#DFDAE3" cx="990.116" cy="219.443" r="22.333"/>
<circle fill="#DFDAE3" cx="280.174" cy="270.356" r="22.333"/>
<circle fill="#CBC5D3" cx="330.884" cy="270.356" r="22.333"/>
<circle fill="#CBC5D3" cx="432.304" cy="270.356" r="22.333"/>
<circle fill="#DFDAE3" cx="888.696" cy="270.356" r="22.333"/>
<circle fill="#DFDAE3" cx="381.594" cy="321.269" r="22.333"/>
<circle fill="#CBC5D3" cx="483.015" cy="321.269" r="22.333"/>
<circle fill="#CBC5D3" cx="837.985" cy="321.269" r="22.333"/>
<circle fill="#DFDAE3" cx="990.116" cy="321.269" r="22.333"/>
<circle fill="#DFDAE3" cx="1091.536" cy="321.269" r="22.333"/>
<circle fill="#CBC5D3" cx="432.304" cy="372.182" r="22.333"/>
<circle fill="#CBC5D3" cx="584.435" cy="372.182" r="22.333"/>
<g>
	<circle fill="#CBC5D3" cx="837.985" cy="270.356" r="22.333"/>
	<circle fill="#CBC5D3" cx="837.985" cy="372.182" r="22.333"/>
	<circle fill="#CBC5D3" cx="939.406" cy="372.182" r="22.333"/>
</g>
<circle fill="#DFDAE3" cx="990.116" cy="372.182" r="22.333"/>
<circle fill="#DFDAE3" cx="1142.246" cy="372.182" r="22.333"/>
<circle fill="#CBC5D3" cx="533.725" cy="423.094" r="22.333"/>
<circle fill="#CBC5D3" cx="736.565" cy="423.094" r="22.333"/>
<circle fill="#CBC5D3" cx="432.304" cy="117.617" r="22.333"/>
<circle fill="#6C5F82" cx="584.435" cy="117.617" r="22.333"/>
<circle fill="#6C5F82" cx="837.985" cy="117.617" r="22.333"/>
<circle fill="#9C96AD" cx="432.304" cy="168.53" r="22.333"/>
<circle fill="#6C5F82" cx="685.855" cy="168.53" r="22.333"/>
<circle fill="#6C5F82" cx="787.275" cy="168.53" r="22.333"/>
<circle fill="#6C5F82" cx="483.015" cy="219.443" r="22.333"/>
<circle fill="#6C5F82" cx="635.145" cy="219.443" r="22.333"/>
<circle fill="#9C96AD" cx="939.406" cy="219.443" r="22.333"/>
<circle fill="#6C5F82" cx="584.435" cy="270.356" r="22.333"/>
<circle fill="#6C5F82" cx="685.855" cy="270.356" r="22.333"/>
<circle fill="#6C5F82" cx="736.565" cy="270.356" r="22.333"/>
<circle fill="#6C5F82" cx="533.725" cy="321.269" r="22.333"/>
<circle fill="#6C5F82" cx="635.145" cy="321.269" r="22.333"/>
<circle fill="#6C5F82" cx="787.275" cy="321.269" r="22.333"/>
<circle fill="#6C5F82" cx="483.015" cy="372.182" r="22.333"/>
<circle fill="#6C5F82" cx="685.855" cy="372.182" r="22.333"/>
<circle fill="#6C5F82" cx="736.565" cy="372.182" r="22.333"/>
<circle fill="#6C5F82" cx="685.855" cy="423.094" r="22.333"/>
<circle fill="#6C5F82" cx="837.985" cy="423.094" r="22.333"/>
<circle fill="#7F7593" cx="888.696" cy="372.182" r="22.333"/>
<circle fill="#7F7593" cx="736.565" cy="117.617" r="22.333"/>
<circle fill="#7F7593" cx="787.275" cy="117.617" r="22.333"/>
<circle fill="#7F7593" cx="432.304" cy="219.443" r="22.333"/>
<circle fill="#7F7593" cx="533.725" cy="219.443" r="22.333"/>
<circle fill="#7F7593" cx="888.696" cy="219.443" r="22.333"/>
<circle fill="#7F7593" cx="483.015" cy="270.356" r="22.333"/>
<circle fill="#7F7593" cx="381.594" cy="372.182" r="22.333"/>
<circle fill="#7F7593" cx="483.015" cy="423.094" r="22.333"/>
<circle fill="#9C96AD" cx="939.406" cy="423.094" r="22.333"/>
<circle fill="#CBC5D3" cx="330.884" cy="117.617" r="22.333"/>
<circle fill="#9C96AD" cx="483.015" cy="117.617" r="22.333"/>
<circle fill="#9C96AD" cx="635.145" cy="117.617" r="22.333"/>
<circle fill="#9C96AD" cx="685.855" cy="117.617" r="22.333"/>
<circle fill="#DFDAE3" cx="990.116" cy="117.617" r="22.333"/>
<circle fill="#9C96AD" cx="381.594" cy="168.53" r="22.333"/>
<circle fill="#9C96AD" cx="533.725" cy="168.53" r="22.333"/>
<circle fill="#9C96AD" cx="584.435" cy="168.53" r="22.333"/>
<circle fill="#9C96AD" cx="736.565" cy="168.53" r="22.333"/>
<circle fill="#9C96AD" cx="837.985" cy="168.53" r="22.333"/>
<circle fill="#9C96AD" cx="939.406" cy="168.53" r="22.333"/>
<circle fill="#9C96AD" cx="990.116" cy="168.53" r="22.333"/>
<circle fill="#CBC5D3" cx="280.174" cy="219.443" r="22.333"/>
<circle fill="#9C96AD" cx="330.884" cy="219.443" r="22.333"/>
<circle fill="#9C96AD" cx="584.435" cy="219.443" r="22.333"/>
<circle fill="#9C96AD" cx="736.565" cy="219.443" r="22.333"/>
<circle fill="#9C96AD" cx="787.275" cy="219.443" r="22.333"/>
<circle fill="#9C96AD" cx="837.985" cy="219.443" r="22.333"/>
<circle fill="#CBC5D3" cx="1040.826" cy="219.443" r="22.333"/>
<circle fill="#9C96AD" cx="381.594" cy="270.356" r="22.333"/>
<circle fill="#9C96AD" cx="533.725" cy="270.356" r="22.333"/>
<circle fill="#9C96AD" cx="635.145" cy="270.356" r="22.333"/>
<circle fill="#9C96AD" cx="787.275" cy="270.356" r="22.333"/>
<circle fill="#9C96AD" cx="990.116" cy="270.356" r="22.333"/>
<circle fill="#CBC5D3" cx="330.884" cy="321.269" r="22.333"/>
<circle fill="#9C96AD" cx="432.304" cy="321.269" r="22.333"/>
<circle fill="#9C96AD" cx="584.435" cy="321.269" r="22.333"/>
<circle fill="#9C96AD" cx="685.855" cy="321.269" r="22.333"/>
<circle fill="#9C96AD" cx="736.565" cy="321.269" r="22.333"/>
<circle fill="#9C96AD" cx="888.696" cy="321.269" r="22.333"/>
<circle fill="#CBC5D3" cx="280.174" cy="372.182" r="22.333"/>
<circle fill="#9C96AD" cx="330.884" cy="372.182" r="22.333"/>
<circle fill="#9C96AD" cx="533.725" cy="372.182" r="22.333"/>
<circle fill="#9C96AD" cx="635.145" cy="372.182" r="22.333"/>
<circle fill="#9C96AD" cx="787.275" cy="372.182" r="22.333"/>
<circle fill="#CBC5D3" cx="1040.826" cy="372.182" r="22.333"/>
<circle fill="#9C96AD" cx="381.594" cy="423.094" r="22.333"/>
<circle fill="#CBC5D3" cx="432.304" cy="423.094" r="22.333"/>
<circle fill="#6C5F82" cx="584.435" cy="423.094" r="22.333"/>
<circle fill="#9C96AD" cx="635.145" cy="423.094" r="22.333"/>
<circle fill="#9C96AD" cx="787.275" cy="423.094" r="22.333"/>
<circle fill="#9C96AD" cx="888.696" cy="423.094" r="22.333"/>
<circle fill="#CBC5D3" cx="990.116" cy="423.094" r="22.333"/>
<circle fill="#EBE0D4" cx="1040.826" cy="423.094" r="22.333"/>
<circle fill="#F3D0AA" cx="77.333" cy="117.617" r="22.333"/>
<circle fill="#F3D0AA" cx="178.754" cy="117.617" r="22.333"/>
<circle fill="#F3D0AA" cx="1142.246" cy="117.617" r="22.333"/>
<circle fill="#F3D0AA" cx="128.044" cy="168.53" r="22.333"/>
<circle fill="#F3D0AA" cx="229.464" cy="168.53" r="22.333"/>
<circle fill="#F3D0AA" cx="1192.956" cy="168.53" r="22.333"/>
<circle fill="#F3D0AA" cx="77.333" cy="219.443" r="22.333"/>
<circle fill="#F3D0AA" cx="1142.246" cy="219.443" r="22.333"/>
<circle fill="#F3D0AA" cx="128.044" cy="270.356" r="22.333"/>
<circle fill="#F3D0AA" cx="229.464" cy="270.356" r="22.333"/>
<circle fill="#F3D0AA" cx="1091.536" cy="270.356" r="22.333"/>
<circle fill="#EBE0D4" cx="77.333" cy="321.269" r="22.333"/>
<circle fill="#F3D0AA" cx="178.754" cy="321.269" r="22.333"/>
<circle fill="#F3D0AA" cx="1192.956" cy="321.269" r="22.333"/>
<circle fill="#F3D0AA" cx="128.044" cy="372.182" r="22.333"/>
<circle fill="#F3D0AA" cx="77.333" cy="423.094" r="22.333"/>
<circle fill="#F3D0AA" cx="128.044" cy="423.094" r="22.333"/>
<circle fill="#F3D0AA" cx="229.464" cy="423.094" r="22.333"/>
<circle fill="#F3D0AA" cx="1091.536" cy="423.094" r="22.333"/>
<circle fill="#DFDAE3" cx="1142.246" cy="423.094" r="22.333"/>
<circle fill="#F3D0AA" cx="1192.956" cy="423.094" r="22.333"/>
<circle fill="#EBE0D4" cx="1243.667" cy="423.094" r="22.333"/>
<linearGradient id="SVGID_1_" gradientUnits="userSpaceOnUse" x1="783.2753" y1="504.3594" x2="1132.203" y2="504.3594">
	<stop  offset="0" style="stop-color:#6C5F82"/>
	<stop  offset="0.3514" style="stop-color:#CBC5D3"/>
	<stop  offset="0.5568" style="stop-color:#EBE0D4"/>
	<stop  offset="0.7351" style="stop-color:#EBE0D4"/>
	<stop  offset="1" style="stop-color:#F3D0AA"/>
</linearGradient>
<rect x="783.275" y="490.023" fill="url(#SVGID_1_)" width="348.928" height="28.672"/>
</svg>
