<svg height="256" viewBox="0 0 256 256" width="256" xmlns="http://www.w3.org/2000/svg"><path d="m131.9 212.3h57.1v39.8h-57.1zm65-52.1h57.1v39.8h-57.1zm-194.9-156.3h57.1v39.8h-57.1zm0 156.3h57.1v39.8h-57.1zm194.9-52.1h57.1v39.8h-57.1zm0-104.2h57.1v39.8h-57.1zm-129.9 52.1h57.1v39.8h-57.1zm64.9-52.1h57.1v39.8h-57.1z" opacity=".5"/><path d="m67 212.3h57.1v39.8h-57.1zm-65 0h57.1v39.8h-57.1zm194.9 0h57.1v39.8h-57.1zm-194.9-104.2h57.1v39.8h-57.1zm129.9 0h57.1v39.8h-57.1zm-64.9-104.2h57.1v39.8h-57.1zm129.9 52.1h57.1v39.8h-57.1zm-129.9 104.2h57.1v39.8h-57.1z"/></svg>
