<svg height="418" viewBox="0 0 1268 418" width="1268" xmlns="http://www.w3.org/2000/svg"><path d="m61.1 276.4h67.7v107.1h-67.7z" fill="#a59cb9"/><path d="m61.1 104.6h67.7v171.8h-67.7z" fill="#c3bece"/><path d="m61.1 15h67.7v92.5h-67.7z" fill="#d2d2d8"/><path d="m152.2 259.7 67.7-.2.5 123.8-67.7.2z" fill="#a59cb9"/><path d="m151.8 89.2 67.7-.2.6 170.5-67.7.2z" fill="#c3bece"/><path d="m151.3 15.2 67.7-.2.2 74.2-67.7.3z" fill="#d2d2d8"/><path d="m245.3 203.2h67.7v180.4h-67.7z" fill="#a59cb9"/><path d="m245.3 107.3h67.7v95.8h-67.7z" fill="#c3bece"/><path d="m245.3 14.9h67.7v92.2h-67.7z" fill="#d2d2d8"/><path d="m337.4 305.6h67.6v78.1h-67.7z" fill="#a59cb9"/><path d="m337.4 149.2h67.6v156.3h-67.7z" fill="#c3bece"/><path d="m337.4 15h67.6v136.1h-67.7z" fill="#d2d2d8"/><path d="m429.5 232.8h67.7v150.7h-67.7z" fill="#a59cb9"/><path d="m429.5 93.4h67.7v139.2h-67.7z" fill="#c3bece"/><path d="m429.5 15h67.7v78.9h-67.7z" fill="#d2d2d8"/><path d="m521.7 302.4h67.7v81.2h-67.7z" fill="#a59cb9"/><path d="m521.7 136.4h67.7v166h-67.7z" fill="#c3bece"/><path d="m521.7 15h67.7v122.2h-67.7z" fill="#d2d2d8"/><path d="m613.7 193.3h67.8v190.3h-67.7z" fill="#a59cb9"/><path d="m613.7 81.1h67.8v112.1h-67.7z" fill="#c3bece"/><path d="m613.7 15h67.8v66.4h-67.7z" fill="#d2d2d8"/><path d="m705.9 294.7h67.7v88.8h-67.7z" fill="#a59cb9"/><path d="m705.9 156.5h67.7v138.4h-67.7z" fill="#c3bece"/><path d="m705.9 15h67.7v140.9h-67.7z" fill="#d2d2d8"/><path d="m798.1 226.8h67.5v156.7h-67.7v-156.7z" fill="#a59cb9"/><path d="m798.1 72.9h67.5v153.9h-67.7v-153.9z" fill="#c3bece"/><path d="m798.1 15h67.5v59.1h-67.7v-59.1z" fill="#d2d2d8"/><path d="m890.1 191.4h67.7v192.3h-67.7z" fill="#a59cb9"/><path d="m890.1 87h67.7v104.7h-67.7z" fill="#c3bece"/><path d="m890.1 15h67.7v71.4h-67.7z" fill="#d2d2d8"/><path d="m981.6 258.5h67.7v125h-67.7z" fill="#a59cb9"/><path d="m981.6 181.3h67.7v77.5h-67.7z" fill="#c3bece"/><path d="m981.6 15h67.7v166.7h-67.7z" fill="#d2d2d8"/><path d="m1073.8 192.4h67.5v191.1h-67.7v-191.1z" fill="#a59cb9"/><path d="m1073.8 72.9h67.5v119.5h-67.7v-119.5z" fill="#c3bece"/><path d="m1073.8 15h67.5v59.1h-67.7v-59.1z" fill="#d2d2d8"/><path d="m1165.8 123.6h67.7v260.1h-67.7z" fill="#a59cb9"/><path d="m1165.8 46.8h67.7v77h-67.7z" fill="#c3bece"/><path d="m1165.8 15h67.7v31.3h-67.7z" fill="#d2d2d8"/><path d="m50.8 384.6h-9.4" fill="none" stroke="#ccc" stroke-width="1.8"/><path d="m50.8 338.4h-9.4" fill="none" stroke="#ccc" stroke-width="1.8"/><path d="m50.8 292.4h-9.4" fill="none" stroke="#ccc" stroke-width="1.8"/><path d="m50.8 246.4h-9.4" fill="none" stroke="#ccc" stroke-width="1.8"/><path d="m50.8 200.2h-9.4" fill="none" stroke="#ccc" stroke-width="1.8"/><path d="m50.8 154.2h-9.4" fill="none" stroke="#ccc" stroke-width="1.8"/><path d="m50.8 108.2h-9.4" fill="none" stroke="#ccc" stroke-width="1.8"/><path d="m50.8 62h-9.4" fill="none" stroke="#ccc" stroke-width="1.8"/><path d="m50.8 16h-9.4" fill="none" stroke="#ccc" stroke-width="1.8"/><text fill="#ccc" font-family="Helvetica" font-size="16" transform="translate(20.1 390)">0</text><text fill="#ccc" font-family="Helvetica" font-size="16" transform="translate(4 297.9)">25%</text><text fill="#ccc" font-family="Helvetica" font-size="16" transform="translate(4 205.7)">50%</text><text fill="#ccc" font-family="Helvetica" font-size="16" transform="translate(4 113.6)">75%</text><text fill="#ccc" font-family="Helvetica" font-size="16" transform="translate(-1 21.5)">100%</text><g fill="none"><path d="m50.8 384.6v-368.6" stroke="#ccc" stroke-width="1.8"/><path d="m95 384.6v9.1" stroke="#ccc" stroke-width="1.8"/><path d="m187.2 384.6v9.1" stroke="#ccc" stroke-width="1.8"/><path d="m279.2 384.6v9.1" stroke="#ccc" stroke-width="1.8"/><path d="m371.4 384.6v9.1" stroke="#ccc" stroke-width="1.8"/><path d="m463.6 384.6v9.1" stroke="#ccc" stroke-width="1.8"/><path d="m555.5 384.6v9.1" stroke="#ccc" stroke-width="1.8"/><path d="m647.6 384.6v9.1" stroke="#ccc" stroke-width="1.8"/><path d="m739.7 384.6v9.1" stroke="#ccc" stroke-width="1.8"/><path d="m831.8 384.6v9.1" stroke="#ccc" stroke-width="1.8"/><path d="m924 384.6v9.1" stroke="#ccc" stroke-width="1.8"/></g><text fill="#ccc" font-family="Helvetica" font-size="16" transform="translate(89.8 412.1)">0</text><text fill="#ccc" font-family="Helvetica" font-size="16" transform="translate(182 412.1)">1</text><text fill="#ccc" font-family="Helvetica" font-size="16" transform="translate(274.1 412.1)">2</text><text fill="#ccc" font-family="Helvetica" font-size="16" transform="translate(366.2 412.1)">3</text><text fill="#ccc" font-family="Helvetica" font-size="16" transform="translate(458.3 412.1)">4</text><text fill="#ccc" font-family="Helvetica" font-size="16" transform="translate(550.4 412.1)">5</text><text fill="#ccc" font-family="Helvetica" font-size="16" transform="translate(642.6 412.1)">6</text><text fill="#ccc" font-family="Helvetica" font-size="16" transform="translate(734.7 412.1)">7</text><text fill="#ccc" font-family="Helvetica" font-size="16" transform="translate(826.8 412.1)">8</text><text fill="#ccc" font-family="Helvetica" font-size="16" transform="translate(918.9 412.1)">9</text><path d="m49.8 14.9 1196.9-27v368.6l-1196.9 27" fill="none"/><path d="m923.3 384.6v9.1" fill="none" stroke="#ccc" stroke-width="1.8"/><path d="m1015.4 384.6v9.1" fill="none" stroke="#ccc" stroke-width="1.8"/><path d="m1107.5 384.6v9.1" fill="none" stroke="#ccc" stroke-width="1.8"/><path d="m1199.7 384.6v9.1" fill="none" stroke="#ccc" stroke-width="1.8"/><text fill="#ccc" font-family="Helvetica" font-size="16" transform="translate(1006.5 412.1)">10</text><text fill="#ccc" font-family="Helvetica" font-size="16" transform="translate(1098.6 412.1)"><tspan letter-spacing="-.07em">1</tspan><tspan x="7.7" y="0">1</tspan></text><text fill="#ccc" font-family="Helvetica" font-size="16" transform="translate(1190.8 412.1)">12</text><path d="m50.8 384.6h1195.9" fill="none" stroke="#ccc" stroke-width="1.8"/></svg>