<svg enable-background="new 0 0 650 331" height="331" viewBox="0 0 650 331" width="650" xmlns="http://www.w3.org/2000/svg"><g transform="translate(480 250)"><g><path d="m-314.9-234c83.1 0 150.4 67.3 150.4 150.4s-67.4 150.6-150.4 150.6-150.5-67.5-150.5-150.6c0-45.9 20.6-87 52.9-114.6" fill="none" stroke="#ddd" stroke-miterlimit="10" stroke-width=".8389"/><text fill="#9e9e9e" font-family="'RobotoMono-Regular'" font-size="13.5" transform="translate(-342.3433 -214.915)">Feb</text></g><g><path d="m-314.9-210.3c70.1 0 126.8 56.8 126.8 126.8s-56.9 126.7-126.8 126.7-126.8-56.8-126.8-126.8c0-38.7 17.3-73.3 44.6-96.6" fill="none" stroke="#ddd" stroke-miterlimit="10" stroke-width=".8389"/><text fill="#9e9e9e" font-family="'RobotoMono-Regular'" font-size="13.5" transform="translate(-342.3433 -191.2188)">Mar</text></g><g><path d="m-314.9-186.5c56.9 0 103.1 46.2 103.1 103.1s-46.2 103.1-103.1 103.1-103.1-46.2-103.1-103.1c0-31.5 14.1-59.5 36.2-78.5" fill="none" stroke="#ddd" stroke-miterlimit="10" stroke-width=".8389"/><text fill="#9e9e9e" font-family="'RobotoMono-Regular'" font-size="13.5" transform="translate(-342.3433 -167.5225)">Apr</text></g><g><path d="m-314.9-162.9c43.8 0 79.4 35.5 79.4 79.4s-35.5 79.5-79.4 79.5-79.4-35.5-79.4-79.4c0-24.1 10.8-45.8 27.8-60.4" fill="none" stroke="#ddd" stroke-miterlimit="10" stroke-width=".8389"/><text fill="#9e9e9e" font-family="'RobotoMono-Regular'" font-size="13.5" transform="translate(-342.3433 -143.8281)">May</text></g><g><path d="m-314.9-139.2c30.8 0 55.6 25 55.6 55.6s-25 55.6-55.6 55.6-55.6-25-55.6-55.6c0-17 7.6-32.2 19.6-42.4" fill="none" stroke="#ddd" stroke-miterlimit="10" stroke-width=".8389"/><text fill="#9e9e9e" font-family="'RobotoMono-Regular'" font-size="13.5" transform="translate(-342.3433 -120.1309)">Jun</text></g></g><path d="m165.1 134.5c17.6 0 32 14.3 32 32s-14.3 32-32 32-32-14.3-32-32c0-9.7 4.4-18.5 11.2-24.4" fill="none" stroke="#ddd" stroke-miterlimit="10" stroke-width=".8389"/><g transform="matrix(0 -1 1 0 480 250)"><path d="m115.5-314.9h118.5" fill="none" stroke="#ddd" stroke-miterlimit="10" stroke-width=".8389"/><text fill="#bababa" font-family="'RobotoMono-Regular'" font-size="10" transform="matrix(0 1 -1 0 238.6104 -317.9009)">0</text></g><path d="m182 139.4 62.8-100.6" fill="none" stroke="#ddd" stroke-miterlimit="10" stroke-width=".8389"/><g transform="matrix(.89818458 -.43961855 .43961855 .89818458 480 250)"><path d="m-214.2-213.4h118.5" fill="none" stroke="#ddd" stroke-miterlimit="10" stroke-width=".8389"/><text fill="#bababa" font-family="'RobotoMono-Regular'" font-size="10" transform="matrix(.8982 .4396 -.4396 .8982 -92.2236 -211.7302)">10</text></g><path d="m196.9 169.8 117.8 12.1" fill="none" stroke="#ddd" stroke-miterlimit="10" stroke-width=".8389"/><g transform="matrix(.7897172 .61347107 -.61347107 .7897172 480 250)"><path d="m-267.9 127.3h118.4" fill="none" stroke="#ddd" stroke-miterlimit="10" stroke-width=".8389"/><text fill="#bababa" font-family="'RobotoMono-Regular'" font-size="10" transform="matrix(.7897 -.6135 .6135 .7897 -139.276 133.9852)">20</text></g><path d="m176.1 196.5 40.9 111.3" fill="none" stroke="#ddd" stroke-miterlimit="10" stroke-width=".8389"/><g transform="matrix(-.20383592 .97900506 -.97900506 -.20383592 480 250)"><path d="m14.4 325.3h118.6" fill="none" stroke="#ddd" stroke-miterlimit="10" stroke-width=".8389"/><text fill="#bababa" font-family="'RobotoMono-Regular'" font-size="10" transform="matrix(-.2038 -.979 .979 -.2038 147.5462 328.1838)">30</text></g><path d="m142.9 189.6-82.3 86.1" fill="none" stroke="#ddd" stroke-miterlimit="10" stroke-width=".8389"/><g transform="matrix(-.9689373 .2473065 -.2473065 -.9689373 480 250)"><path d="m316.5 158.9h118.5" fill="none" stroke="#ddd" stroke-miterlimit="10" stroke-width=".8389"/><text fill="#bababa" font-family="'RobotoMono-Regular'" font-size="10" transform="matrix(-.9689 -.2473 .2473 -.9689 450.913 158.0782)">40</text></g><path d="m134.6 156.8-113-35.9" fill="none" stroke="#ddd" stroke-miterlimit="10" stroke-width=".8389"/><g transform="matrix(-.64808969 -.76156402 .76156402 -.64808969 480 250)"><path d="m299.7-185.7h118.5" fill="none" stroke="#ddd" stroke-miterlimit="10" stroke-width=".8389"/><text fill="#bababa" font-family="'RobotoMono-Regular'" font-size="10" transform="matrix(-.6481 .7616 -.7616 -.6481 428.7413 -193.071)">50</text></g><g transform="translate(480 250)"><g fill="#adadad"><path d="m-314.9-225.7c78.5 0 142.2 63.7 142.2 142.2s-63.8 142.2-142.2 142.2-142.2-63.7-142.2-142.3c0-36.7 14.2-72 39.7-98.5l11.1 10.7c-48.5 50.5-46.9 130.8 3.6 179.2s130.7 46.9 179.1-3.5 46.9-130.8-3.6-179.2c-23.6-22.7-55-35.4-87.8-35.4z"/><path d="m-314.9-202c65.5 0 118.5 53 118.5 118.5s-53 118.5-118.5 118.5c-60.1 0-110.7-45.1-117.7-104.7l15.3-1.8c6.6 56.6 57.8 97.1 114.3 90.4s97.1-57.8 90.4-114.3c-6-52-50.1-91.1-102.4-91.1v-15.5z"/><path d="m-314.9-178.2c52.3 0 94.8 42.5 94.8 94.8s-42.5 94.8-94.8 94.8c-15.4 0-30.5-3.8-44.1-10.9l7.2-13.6c38.8 20.4 86.8 5.4 107.2-33.3s5.4-86.8-33.3-107.2c-11.4-6-24-9.1-36.9-9.1v-15.5z"/><path d="m-314.9-154.6c39.3 0 71.1 31.8 71.1 71.1 0 38.8-31 70.4-69.8 71.1l-.2-15.4c30.8-.6 55.3-25.9 54.7-56.7-.6-30.4-25.3-54.7-55.6-54.7v-15.5z"/><path d="m-314.9-130.9c26.2 0 47.3 21.2 47.3 47.3s-21.2 47.3-47.3 47.3c-10.4 0-20.5-3.4-28.8-9.7l9.4-12.2c14.1 10.8 34.1 8 44.9-6 10.8-14.1 8-34.1-6-44.9-5.6-4.3-12.4-6.5-19.4-6.5v-15.3z"/></g><path d="m13.5-234c83.1 0 150.4 67.3 150.4 150.4s-67.2 150.6-150.4 150.6-150.5-67.5-150.5-150.6c0-45.9 20.6-87 52.9-114.6" fill="none" stroke="#ddd" stroke-miterlimit="10" stroke-width=".8389"/><text fill="#9e9e9e" font-family="'RobotoMono-Regular'" font-size="13.5" transform="translate(-13.896 -214.915)">Feb</text><path d="m13.5-210.3c70.1 0 126.8 56.8 126.8 126.8s-56.8 126.7-126.8 126.7-126.8-56.7-126.8-126.8c0-38.7 17.3-73.3 44.6-96.6" fill="none" stroke="#ddd" stroke-miterlimit="10" stroke-width=".8389"/><text fill="#9e9e9e" font-family="'RobotoMono-Regular'" font-size="13.5" transform="translate(-13.895 -191.2188)">Mar</text><path d="m13.5-186.5c56.9 0 103.1 46.2 103.1 103.1s-46.2 103-103.1 103-103.1-46.2-103.1-103.2c0-31.5 14.1-59.5 36.2-78.5" fill="none" stroke="#ddd" stroke-miterlimit="10" stroke-width=".8389"/><text fill="#9e9e9e" font-family="'RobotoMono-Regular'" font-size="13.5" transform="translate(-13.895 -167.5225)">Apr</text><path d="m13.5-162.9c43.8 0 79.4 35.5 79.4 79.4s-35.5 79.5-79.4 79.5-79.5-35.5-79.5-79.4c0-24.1 10.8-45.8 27.8-60.4" fill="none" stroke="#ddd" stroke-miterlimit="10" stroke-width=".8389"/><text fill="#9e9e9e" font-family="'RobotoMono-Regular'" font-size="13.5" transform="translate(-13.896 -143.8281)">May</text><path d="m13.5-139.2c30.8 0 55.6 25 55.6 55.6s-25 55.6-55.6 55.6-55.6-25-55.6-55.6c0-17 7.6-32.2 19.6-42.4" fill="none" stroke="#ddd" stroke-miterlimit="10" stroke-width=".8389"/><text fill="#9e9e9e" font-family="'RobotoMono-Regular'" font-size="13.5" transform="translate(-13.896 -120.1309)">Jun</text><path d="m13.5-115.5c17.6 0 32 14.3 32 32s-14.3 32-32 32-32-14.3-32-32c0-9.7 4.4-18.5 11.2-24.4" fill="none" stroke="#ddd" stroke-miterlimit="10" stroke-width=".8389"/></g><g transform="matrix(0 -1 1 0 480 250)"><path d="m115.5 13.5h118.5" fill="none" stroke="#ddd" stroke-miterlimit="10" stroke-width=".8389"/><text fill="#bababa" font-family="'RobotoMono-Regular'" font-size="10" transform="matrix(0 1 -1 0 238.6104 10.5298)">0</text></g><path d="m510.4 139.4 62.7-100.6" fill="none" stroke="#ddd" stroke-miterlimit="10" stroke-width=".8389"/><g transform="matrix(.89818458 -.43961855 .43961855 .89818458 480 250)"><path d="m80.8-69.1h118.5" fill="none" stroke="#ddd" stroke-miterlimit="10" stroke-width=".8389"/><text fill="#bababa" font-family="'RobotoMono-Regular'" font-size="10" transform="matrix(.8982 .4396 -.4396 .8982 202.1264 -67.6711)">10</text></g><path d="m525.4 169.7 117.7 12.1" fill="none" stroke="#ddd" stroke-miterlimit="10" stroke-width=".8389"/><g transform="matrix(.7897172 .61347107 -.61347107 .7897172 480 250)"><path d="m-8.6-74.2h118.5" fill="none" stroke="#ddd" stroke-miterlimit="10" stroke-width=".8389"/><text fill="#bababa" font-family="'RobotoMono-Regular'" font-size="10" transform="matrix(.7897 -.6135 .6135 .7897 119.8862 -68.3895)">20</text></g><path d="m504.6 196.5 40.9 111.2" fill="none" stroke="#ddd" stroke-miterlimit="10" stroke-width=".8389"/><g transform="matrix(-.20383592 .97900506 -.97900506 -.20383592 480 250)"><path d="m-52.6 3.8h118.6" fill="none" stroke="#ddd" stroke-miterlimit="10" stroke-width=".8389"/><text fill="#bababa" font-family="'RobotoMono-Regular'" font-size="10" transform="matrix(-.2038 -.979 .979 -.2038 80.7863 7.5444)">30</text></g><path d="m471.4 189.6-81.9 85.6" fill="none" stroke="#ddd" stroke-miterlimit="10" stroke-width=".8389"/><g transform="matrix(-.9689373 .2473065 -.2473065 -.9689373 480 250)"><path d="m-1.8 77.6h118.4" fill="none" stroke="#ddd" stroke-miterlimit="10" stroke-width=".8389"/><text fill="#bababa" font-family="'RobotoMono-Regular'" font-size="10" transform="matrix(-.9689 -.2473 .2473 -.9689 133.1019 76.9619)">40</text></g><path d="m463 156.7-112.9-35.9" fill="none" stroke="#ddd" stroke-miterlimit="10" stroke-width=".8389"/><g transform="matrix(-.64808969 -.76156402 .76156402 -.64808969 480 250)"><path d="m86.9 64.4h118.5" fill="none" stroke="#ddd" stroke-miterlimit="10" stroke-width=".8389"/><text fill="#bababa" font-family="'RobotoMono-Regular'" font-size="10" transform="matrix(-.6481 .7616 -.7616 -.6481 216.5116 57.3157)">50</text></g><g transform="translate(480 250)"><path d="m141.3-146c3.2 6.5 5.9 13.3 8 20.2 4.1 13.4 6.4 27.6 6.4 42.3 0 73.1-55.3 133.4-126.3 141.3-5.2.6-10.5.8-15.9.8-10.2 0-33 0-52.6-10.1l5.7-14.3c19.4 7.7 40.2 10.4 60.7 8.2 28.5-3 56.1-15.7 77.5-38.1 32.9-34.2 42.7-82 29.9-124.4-2.5-8.2-5.3-14.7-7.5-19.2" fill="#cbcbcb"/><path d="m-39 48.7c-52.6-20.9-89.6-72.2-89.6-132.2 0-36.7 14.2-72 39.7-98.5l11.1 10.7c-48.5 50.5-46.9 130.8 3.6 179.2 12.2 11.8 26.2 20.6 41 26.5" fill="#e2e2e2"/><path d="m127.4-139.3c-6.4-13-15-25.1-26-35.6-23.6-22.7-55-35.4-87.8-35.4v-15.4c56.1 0 104.6 32.4 127.7 79.7" fill="#adadad"/><path d="m129.6-107.3c-1.3-6.5-3.2-12.8-5.4-18.7l-14.2 6c1.9 4.9 3.3 9.9 4.5 15.2.7 3.2 1.2 6.4 1.5 9.6 4.4 37.4-12 72.6-39.8 93.9l-.1.1 8.6 12.5c28.8-21.7 47.3-56 47.3-94.7-.1-8.3-.9-16.2-2.4-23.9z" fill="#cbcbcb"/><path d="m84.7 11.3c-19.9 14.9-44.5 23.6-71.2 23.6-60.1 0-110.7-45.1-117.7-104.7l15.3-1.8c6.6 56.6 57.7 97.1 114.3 90.4 19.2-2.1 36.5-9.5 50.7-20.5" fill="#e2e2e2"/><path d="m109.9-120.1c-14.9-39.2-52.8-66.4-96.3-66.4v-15.4c50.4 0 93.5 31.5 110.5 75.9" fill="#adadad"/><path d="m102.2-116.8c3.9 10.3 6 21.5 6 33.3 0 36-20 67.3-49.6 83.4-13.3 7.2-28.7 11.4-45.1 11.4-15.4 0-30.5-3.8-44.1-10.9l7.2-13.6c16.6 8.8 34.8 11 52 7.7 7.9-1.5 15.5-4.3 22.6-8 13.5-7.2 25-18.5 32.7-32.9 10.9-20.7 11.7-44 4.3-64.3" fill="#cbcbcb"/><path d="m102.2-116.8c3.9 10.3 6 21.5 6 33.3 0 36-20 67.3-49.6 83.4l-7.6-13.4c13.5-7.3 25-18.6 32.7-33 10.9-20.7 11.7-44 4.3-64.3" fill="#cbcbcb"/><path d="m58.7-.1c-13.4 7.2-28.8 11.4-45.2 11.4-15.4 0-30.5-3.8-44.1-10.9l7.2-13.6c16.6 8.8 34.8 11 52 7.7 7.9-1.5 15.5-4.3 22.6-8" fill="#e2e2e2"/><path d="m88-110.9c-.1-.5-.4-.9-.6-1.4-6.7-17.3-19.4-32.2-37-41.4-11.4-6-24-9.1-36.9-9.1v-15.4c40.6 0 75.3 25.6 88.8 61.5" fill="#adadad"/><path d="m64.2-33.7c12.7-12.8 20.4-30.4 20.4-49.8 0-13.5-3.8-26.2-10.4-36.9l-13.4 7.7c5.1 8.3 8 17.9 8.3 28.3.2 15.2-5.6 29.1-15.3 39.3" fill="#cbcbcb"/><path d="m53.9-45.2c-9.9 10.4-23.9 17-39.4 17.4l.2 15.4c19.4-.4 36.8-8.4 49.5-21.3" fill="#e2e2e2"/><path d="m60.9-112.8c-9.8-15.9-27.3-26.4-47.3-26.4v-15.4c25.7 0 48.3 13.6 60.7 34.1" fill="#adadad"/><path d="m13.5-130.9v15.4c7 0 13.8 2.2 19.4 6.5 2.2 1.8 4.3 3.8 5.9 5.9.1.1.1.2.2.4 3.7-2.4 8.4-6 12.1-9.6-8.7-11.3-22.3-18.6-37.6-18.6z" fill="#adadad"/><path d="m54.4-59.5c4.1-7 6.5-15.2 6.5-23.9 0-10.8-3.7-20.8-9.7-28.8-3.7 3.6-8.4 7.2-12.1 9.6 7.6 10.1 8.5 24 2.1 35.2" fill="#cbcbcb"/><path d="m41.3-67.6c-.7 1.2-1.4 2.2-2.2 3.4-10.8 14.1-30.9 16.8-44.9 6l-9.4 12.2c8.3 6.3 18.3 9.7 28.8 9.7 17.4 0 32.7-9.5 41-23.4" fill="#e2e2e2"/></g></svg>