<svg enable-background="new 0 0 650 327.3" height="327.3" viewBox="0 0 650 327.3" width="650" xml:space="preserve" xmlns="http://www.w3.org/2000/svg"><g transform="translate(480 400)"><g><circle cx="-324.8" cy="-232.9" fill="none" r="114.8" stroke="#e2e2e2" stroke-width=".5002"/><text fill="#a0a0a0" font-family="'Helvetica'" font-size="5.002" transform="translate(-327.6221 -348.998)">10</text></g><g><circle cx="-324.8" cy="-232.9" fill="none" r="149.6" stroke="#e2e2e2" stroke-width=".5002"/><g font-family="'Helvetica'" font-size="5.002"><text fill="#a0a0a0" transform="translate(-327.6221 -383.7949)">20</text><text fill="#fff" transform="translate(-327.6221 -364.2226)">10</text></g></g><g><circle cx="-324.8" cy="-232.9" fill="none" r="133.1" stroke="#e2e2e2" stroke-width=".3611"/><text fill="#a0a0a0" font-family="'Helvetica'" font-size="5.002" transform="translate(-327.6221 -367.2226)">15</text></g><g fill="#aaa"><path d="m-170.1-274c1.4 5.1 2.5 10.4 3.3 15.6l-79 12.5c-.4-2.5-.9-5-1.6-7.4z"/><path d="m-207.9-251c.6 3.8 1 7.7 1.2 11.5l-38.2 2c-.1-2.5-.4-5-.8-7.5z"/><path d="m-178.9-240.2c.2 4.8.2 9.7 0 14.5l-66-3.5c.1-2.5.1-5.1 0-7.6z"/><path d="m-199.8-226c-.2 4.1-.7 8.2-1.3 12.2l-44.7-7.1c.4-2.5.6-5 .8-7.5z"/><path d="m-180.6-209.7c-.8 4.8-1.8 9.5-3 14.2l-63.9-17.1c.6-2.4 1.2-4.9 1.6-7.4z"/><path d="m-190.5-196.5c-1.2 4.4-2.6 8.8-4.3 13.1l-55.2-21.2c.9-2.4 1.7-4.8 2.3-7.2z"/><path d="m-224.3-193.9c-1.3 3.3-2.7 6.5-4.3 9.6l-24.8-12.6c1.1-2.3 2.2-4.6 3.1-6.9z"/><path d="m-216.5-177.3c-1.8 3.5-3.8 7-6 10.3l-35-22.7c1.4-2.1 2.6-4.3 3.8-6.6z"/><path d="m-202.5-153c-2.6 4-5.5 8-8.5 11.7l-51.4-41.6c1.6-2 3.1-4 4.5-6.1z"/><path d="m-214.2-142.8c-3 3.7-6.1 7.2-9.5 10.5l-44.3-44.3c1.8-1.8 3.5-3.7 5.1-5.6z"/><path d="m-243.9-151.4c-2.7 2.6-5.4 5.1-8.3 7.5l-21.9-27c2-1.6 3.8-3.3 5.6-5.1z"/><path d="m-239.7-127.2c-3.5 2.8-7.1 5.4-10.8 7.9l-30.3-46.7c2.1-1.4 4.2-2.9 6.1-4.5z"/><path d="m-247.5-113.1c-4 2.6-8 4.9-12.2 7.1l-28.4-55.8c2.2-1.2 4.4-2.4 6.6-3.8z"/><path d="m-260.4-105.6c-4.2 2.1-8.5 4-12.9 5.7l-22.4-58.5c2.4-.9 4.7-1.9 6.9-3.1z"/><path d="m-279.1-112.6c-4 1.5-8 2.8-12.1 3.9l-12.6-47.1c2.4-.7 4.8-1.4 7.2-2.3z"/><path d="m-288.3-95c-4.6 1.2-9.2 2.2-13.8 2.9l-9.8-61.9c2.5-.4 5-.9 7.4-1.6z"/><path d="m-305.1-105.7c-4.2.6-8.4 1.1-12.6 1.3l-2.5-48.6c2.5-.1 5-.4 7.5-.8z"/><path d="m-317.8-90.4c-4.7.2-9.4.2-14.1 0l3.3-62.5c2.5.1 5.1.1 7.6 0z"/><path d="m-330.3-135.6c-3.1-.2-6.2-.5-9.3-1l2.7-17.2c2.5.4 5 .6 7.5.8z"/><path d="m-348.6-85.2c-4.9-.8-9.7-1.8-14.5-3.1l18-67.2c2.4.6 4.9 1.2 7.4 1.6z"/><path d="m-360.4-101.9c-4.3-1.2-8.6-2.6-12.7-4.1l20-52c2.4.9 4.8 1.7 7.2 2.3z"/><path d="m-361.4-138.9c-3-1.2-6-2.5-8.9-4l9.5-18.6c2.3 1.1 4.6 2.2 6.9 3.1z"/><path d="m-372.6-140.1c-3-1.5-5.9-3.2-8.8-5.1l13.3-20.4c2.1 1.4 4.3 2.6 6.6 3.8z"/><path d="m-397.2-122.2c-3.6-2.4-7.2-4.9-10.6-7.7l32.8-40.6c2 1.6 4 3.1 6.1 4.5z"/><path d="m-393-149.3c-2.7-2.2-5.3-4.6-7.8-7l19.7-19.7c1.8 1.8 3.7 3.5 5.6 5.1z"/><path d="m-396.5-161.8c-2.3-2.3-4.5-4.7-6.5-7.3l16.2-13.1c1.6 2 3.3 3.8 5.1 5.6z"/><path d="m-425.1-152.2c-2.7-3.3-5.1-6.7-7.5-10.3l40.9-26.5c1.4 2.1 2.9 4.2 4.5 6.1z"/><path d="m-430.1-165c-2.2-3.5-4.3-7-6.2-10.7l40.3-20.5c1.2 2.2 2.4 4.4 3.8 6.6z"/><path d="m-439.7-174.8c-1.9-3.8-3.6-7.6-5.2-11.6l45.5-17.5c.9 2.4 1.9 4.7 3.1 6.9z"/><path d="m-438.7-189.6c-1.4-3.7-2.6-7.5-3.7-11.4l40.3-10.8c.7 2.4 1.4 4.8 2.3 7.2z"/><path d="m-432.5-204.5c-.9-3.5-1.7-7-2.3-10.6l30.9-4.9c.4 2.5.9 5 1.6 7.4z"/><path d="m-441.8-214.8c-.6-3.8-1-7.7-1.2-11.5l38.2-2c.1 2.5.4 5 .8 7.5z"/><path d="m-450-226.8c-.2-4.1-.2-8.2 0-12.3l45.2 2.4c-.1 2.5-.1 5.1 0 7.6z"/><path d="m-429.1-238.8c.2-3.4.5-6.7 1.1-10.1l24.1 3.8c-.4 2.5-.6 5-.8 7.5z"/><path d="m-417.6-248c.5-3 1.1-5.9 1.9-8.8l13.4 3.6c-.6 2.4-1.2 4.9-1.6 7.4z"/><path d="m-439-263.9c1-3.7 2.2-7.4 3.6-11l35.7 13.7c-.9 2.4-1.7 4.8-2.3 7.2z"/><path d="m-409.2-265.7c1-2.7 2.2-5.3 3.5-7.9l9.3 4.7c-1.1 2.3-2.2 4.6-3.1 6.9z"/><path d="m-423.9-283.8c1.7-3.2 3.5-6.4 5.4-9.4l26.3 17.1c-1.4 2.1-2.6 4.3-3.8 6.6z"/><path d="m-438.4-307.2c2.4-3.7 5.1-7.4 7.9-10.8l43.3 35c-1.6 2-3.1 4-4.5 6.1z"/><path d="m-397.6-292.4c1.9-2.3 3.9-4.6 6-6.7l9.8 9.8c-1.8 1.8-3.5 3.7-5.1 5.6z"/><path d="m-425.4-334.1c3.3-3.3 6.8-6.5 10.5-9.5l39.4 48.7c-2 1.6-3.8 3.3-5.6 5.1z"/><path d="m-403.4-330.5c3.2-2.6 6.5-5 10-7.2l24.6 37.9c-2.1 1.4-4.2 2.9-6.1 4.5z"/><path d="m-383.3-323.6c2.9-1.9 6-3.6 9.1-5.2l12.6 24.8c-2.2 1.2-4.4 2.4-6.6 3.8z"/><path d="m-384.5-350.9c3.9-2 7.9-3.7 11.9-5.3l18.7 48.7c-2.4.9-4.7 1.9-6.9 3.1z"/><path d="m-365.6-340.3c3.5-1.3 7.1-2.5 10.7-3.5l9 33.6c-2.4.7-4.8 1.4-7.2 2.3z"/><path d="m-353.3-340.6c3.5-.9 7-1.7 10.6-2.3l4.9 30.9c-2.5.4-5 .9-7.4 1.6z"/><path d="m-343.5-353.3c3.9-.6 7.9-1 11.9-1.2l2.2 41.7c-2.5.1-5 .4-7.5.8z"/><path d="m-329.4-326.8c3-.1 6-.1 9 0l-.7 13.9c-2.5-.1-5.1-.1-7.6 0z"/><path d="m-316.6-382.3c4.9.3 9.9.8 14.8 1.6l-10.9 68.7c-2.5-.4-5-.6-7.5-.8z"/><path d="m-304.3-360c4.2.7 8.3 1.6 12.4 2.6l-12.6 47.1c-2.4-.6-4.9-1.2-7.4-1.6z"/><path d="m-300.1-323.6c2.9.8 5.8 1.7 8.6 2.8l-5 13c-2.4-.9-4.8-1.7-7.2-2.3z"/><path d="m-275.8-359.5c4.2 1.6 8.3 3.4 12.2 5.5l-25.3 49.6c-2.3-1.1-4.6-2.2-6.9-3.1z"/><path d="m-256.6-366.1c4.4 2.3 8.7 4.7 12.9 7.4l-37.9 58.4c-2.1-1.4-4.3-2.6-6.6-3.8z"/><path d="m-260.1-331.9c3.2 2.1 6.4 4.4 9.4 6.8l-24.1 29.7c-2-1.6-4-3.1-6.1-4.5z"/><path d="m-252.3-321.9c2.9 2.4 5.7 4.9 8.3 7.5l-24.6 24.6c-1.8-1.8-3.7-3.5-5.6-5.1z"/><path d="m-248.3-308.9c2.5 2.5 4.8 5.1 7 7.8l-21.6 17.5c-1.6-2-3.3-3.8-5.1-5.6z"/><path d="m-216.4-320.2c2.9 3.6 5.6 7.3 8.1 11.1l-49.6 32.2c-1.4-2.1-2.9-4.2-4.5-6.1z"/><path d="m-245.8-283.8c1.6 2.5 3.1 5.1 4.5 7.8l-12.4 6.3c-1.2-2.2-2.4-4.4-3.8-6.6z"/><path d="m-240.9-275.2c1.4 2.7 2.6 5.4 3.7 8.3l-13 5c-.9-2.4-1.9-4.7-3.1-6.9z"/><path d="m-230.5-268.7c1.2 3 2.2 6.1 3 9.3l-20.2 5.4c-.7-2.4-1.4-4.8-2.3-7.2z"/></g><g fill="#ddd"><path d="m-170.1-274c1.4 5.1 2.5 10.4 3.3 15.6-.9-5.2-2-10.4-3.3-15.6z"/><path d="m-207.9-251c.6 3.8 1 7.7 1.2 11.5-.2-3.9-.6-7.7-1.2-11.5z"/><path d="m-178.9-240.2c.2 4.8.2 9.7 0 14.5.3-4.8.3-9.6 0-14.5z"/><path d="m-199.8-226c-.2 4.1-.7 8.2-1.3 12.2.7-4 1.1-8.1 1.3-12.2z"/><path d="m-180.6-209.7c-.8 4.8-1.8 9.5-3 14.2 1.3-4.7 2.3-9.4 3-14.2z"/><path d="m-190.5-196.5c-1.2 4.4-2.6 8.8-4.3 13.1 1.7-4.3 3.1-8.7 4.3-13.1z"/><path d="m-224.3-193.9c-1.3 3.3-2.7 6.5-4.3 9.6 1.6-3.1 3.1-6.3 4.3-9.6z"/><path d="m-216.5-177.3c-1.8 3.5-3.8 7-6 10.3 2.2-3.3 4.2-6.7 6-10.3z"/><path d="m-202.5-153c-2.6 4-5.5 8-8.5 11.7 3-3.7 5.9-7.6 8.5-11.7z"/><path d="m-214.2-142.8c-3 3.7-6.1 7.2-9.5 10.5 3.3-3.4 6.5-6.9 9.5-10.5z"/><path d="m-243.9-151.4c-2.7 2.6-5.4 5.1-8.3 7.5 2.8-2.4 5.6-4.9 8.3-7.5z"/><path d="m-239.7-127.2c-3.5 2.8-7.1 5.4-10.8 7.9 3.6-2.5 7.3-5.1 10.8-7.9z"/><path d="m-247.5-113.1c-4 2.6-8 4.9-12.2 7.1 4.2-2.1 8.3-4.5 12.2-7.1z"/><path d="m-260.4-105.6c-4.2 2.1-8.5 4-12.9 5.7 4.4-1.7 8.7-3.6 12.9-5.7z"/><path d="m-279.1-112.6c-4 1.5-8 2.8-12.1 3.9 4.1-1.1 8.2-2.4 12.1-3.9z"/><path d="m-288.3-95c-4.6 1.2-9.2 2.2-13.8 2.9 4.6-.7 9.2-1.7 13.8-2.9z"/><path d="m-305.1-105.7c-4.2.6-8.4 1.1-12.6 1.3 4.2-.2 8.4-.6 12.6-1.3z"/><path d="m-317.8-90.4c-4.7.2-9.4.2-14.1 0 4.7.2 9.4.2 14.1 0z"/><path d="m-330.3-135.6c-3.1-.2-6.2-.5-9.3-1 3 .5 6.1.8 9.3 1z"/><path d="m-348.6-85.2c-4.9-.8-9.7-1.8-14.5-3.1 4.7 1.3 9.6 2.3 14.5 3.1z"/><path d="m-360.4-101.9c-4.3-1.2-8.6-2.6-12.7-4.1 4.2 1.5 8.4 2.9 12.7 4.1z"/><path d="m-361.4-138.9c-3-1.2-6-2.5-8.9-4 2.9 1.5 5.9 2.9 8.9 4z"/><path d="m-372.6-140.1c-3-1.5-5.9-3.2-8.8-5.1 2.9 1.9 5.8 3.6 8.8 5.1z"/><path d="m-397.2-122.2c-3.6-2.4-7.2-4.9-10.6-7.7 3.4 2.7 7 5.3 10.6 7.7z"/><path d="m-393-149.3c-2.7-2.2-5.3-4.6-7.8-7 2.5 2.4 5.1 4.7 7.8 7z"/><path d="m-396.5-161.8c-2.3-2.3-4.5-4.7-6.5-7.3 2 2.5 4.2 4.9 6.5 7.3z"/><path d="m-425.1-152.2c-2.7-3.3-5.1-6.7-7.5-10.3 2.3 3.6 4.8 7 7.5 10.3z"/><path d="m-430.1-165c-2.2-3.5-4.3-7-6.2-10.7 1.9 3.7 4 7.2 6.2 10.7z"/><path d="m-439.7-174.8c-1.9-3.8-3.6-7.6-5.2-11.6 1.5 3.9 3.3 7.8 5.2 11.6z"/><path d="m-438.7-189.6c-1.4-3.7-2.6-7.5-3.7-11.4 1.1 3.8 2.3 7.6 3.7 11.4z"/><path d="m-432.5-204.5c-.9-3.5-1.7-7-2.3-10.6.6 3.6 1.4 7.1 2.3 10.6z"/><path d="m-441.8-214.8c-.6-3.8-1-7.7-1.2-11.5.3 3.8.7 7.7 1.2 11.5z"/><path d="m-450-226.8c-.2-4.1-.2-8.2 0-12.3-.2 4.1-.2 8.2 0 12.3z"/><path d="m-429.1-238.8c.2-3.4.5-6.7 1.1-10.1-.5 3.4-.9 6.7-1.1 10.1z"/><path d="m-417.6-248c.5-3 1.1-5.9 1.9-8.8-.8 2.9-1.4 5.8-1.9 8.8z"/><path d="m-439-263.9c1-3.7 2.2-7.4 3.6-11-1.4 3.6-2.6 7.2-3.6 11z"/><path d="m-409.2-265.7c1-2.7 2.2-5.3 3.5-7.9-1.2 2.5-2.4 5.2-3.5 7.9z"/><path d="m-423.9-283.8c1.7-3.2 3.5-6.4 5.4-9.4-1.9 3-3.7 6.2-5.4 9.4z"/><path d="m-438.4-307.2c2.4-3.7 5.1-7.4 7.9-10.8-2.9 3.5-5.5 7.1-7.9 10.8z"/><path d="m-397.6-292.4c1.9-2.3 3.9-4.6 6-6.7-2.1 2.2-4.1 4.4-6 6.7z"/><path d="m-425.4-334.1c3.3-3.3 6.8-6.5 10.5-9.5-3.7 3-7.2 6.2-10.5 9.5z"/><path d="m-403.4-330.5c3.2-2.6 6.5-5 10-7.2-3.4 2.2-6.8 4.6-10 7.2z"/><path d="m-383.3-323.6c2.9-1.9 6-3.6 9.1-5.2-3.1 1.6-6.1 3.3-9.1 5.2z"/><path d="m-384.5-350.9c3.9-2 7.9-3.7 11.9-5.3-4.1 1.6-8 3.3-11.9 5.3z"/><path d="m-365.6-340.3c3.5-1.3 7.1-2.5 10.7-3.5-3.7 1-7.2 2.2-10.7 3.5z"/><path d="m-353.3-340.6c3.5-.9 7-1.7 10.6-2.3-3.5.6-7.1 1.4-10.6 2.3z"/><path d="m-343.5-353.3c3.9-.6 7.9-1 11.9-1.2-4 .2-8 .6-11.9 1.2z"/><path d="m-329.4-326.8c3-.1 6-.1 9 0-2.9-.1-5.9-.1-9 0z"/><path d="m-316.6-382.3c4.9.3 9.9.8 14.8 1.6-4.9-.8-9.9-1.3-14.8-1.6z"/><path d="m-304.3-360c4.2.7 8.3 1.6 12.4 2.6-4.1-1.1-8.2-1.9-12.4-2.6z"/><path d="m-300.1-323.6c2.9.8 5.8 1.7 8.6 2.8-2.9-1-5.7-2-8.6-2.8z"/><path d="m-275.8-359.5c4.2 1.6 8.3 3.4 12.2 5.5-4-2-8.1-3.9-12.2-5.5z"/><path d="m-256.6-366.1c4.4 2.3 8.7 4.7 12.9 7.4-4.1-2.6-8.4-5.1-12.9-7.4z"/><path d="m-260.1-331.9c3.2 2.1 6.4 4.4 9.4 6.8-3-2.4-6.1-4.7-9.4-6.8z"/><path d="m-252.3-321.9c2.9 2.4 5.7 4.9 8.3 7.5-2.6-2.6-5.4-5.1-8.3-7.5z"/><path d="m-248.3-308.9c2.5 2.5 4.8 5.1 7 7.8-2.2-2.7-4.5-5.3-7-7.8z"/><path d="m-216.4-320.2c2.9 3.6 5.6 7.3 8.1 11.1-2.5-3.8-5.2-7.5-8.1-11.1z"/><path d="m-245.8-283.8c1.6 2.5 3.1 5.1 4.5 7.8-1.4-2.6-2.9-5.2-4.5-7.8z"/><path d="m-240.9-275.2c1.4 2.7 2.6 5.4 3.7 8.3-1.2-2.9-2.4-5.6-3.7-8.3z"/><path d="m-230.5-268.7c1.2 3 2.2 6.1 3 9.3-.8-3.2-1.8-6.3-3-9.3z"/></g></g><path d="m-404.5-371.5-1.1 3.4" fill="none" stroke="#bfbfbf" stroke-width=".5002" transform="matrix(.9781476 -.20791169 .20791169 .9781476 636.503616 366.734129)"/><path d="m-433.9-341.7-.6 1.9" fill="none" stroke="#bfbfbf" stroke-width=".5002" transform="matrix(.9945219 -.10452846 .10452846 .9945219 639.123503 383.275446)"/><path d="m180 91-.7 1.9" fill="none" stroke="#bfbfbf" stroke-width=".5002"/><path d="m-482.6-273.8-.6 1.9" fill="none" stroke="#bfbfbf" stroke-width=".5002" transform="matrix(.9945219 .10452846 -.10452846 .9945219 639.123503 416.724554)"/><g transform="matrix(.9781476 .20791169 -.20791169 .9781476 636.503616 433.265871)"><path d="m-501.4-236.4-1.1 3.3" fill="none" stroke="#bfbfbf" stroke-width=".5002"/><text fill="#919191" font-family="'RobotoMono-Regular'" font-size="5.002" transform="matrix(-.9508 -.3098 .3098 -.9508 -501.4447 -231.6751)">5</text></g><path d="m-516.1-197.2-.6 1.9" fill="none" stroke="#bfbfbf" stroke-width=".5002" transform="matrix(.95105652 .30901699 -.30901699 .95105652 632.169043 449.442719)"/><path d="m-526.7-156.8-.6 2" fill="none" stroke="#bfbfbf" stroke-width=".5002" transform="matrix(.91354546 .40673664 -.40673664 .91354546 626.167273 465.077863)"/><path d="m-533-115.4-.6 1.9" fill="none" stroke="#bfbfbf" stroke-width=".5002" transform="matrix(.8660254 .5 -.5 .8660254 618.564065 480)"/><path d="m-534.9-73.6-.6 1.9" fill="none" stroke="#bfbfbf" stroke-width=".5002" transform="matrix(.80901699 .58778525 -.58778525 .80901699 609.442719 494.04564)"/><g transform="matrix(.74314483 .66913061 -.66913061 .74314483 598.903172 507.060897)"><path d="m-532.5-31.8-1 3.3" fill="none" stroke="#bfbfbf" stroke-width=".5002"/><text fill="#919191" font-family="'RobotoMono-Regular'" font-size="5.002" transform="matrix(-.9508 -.3098 .3098 -.9508 -531.2107 -26.6839)">10</text></g><path d="m-525.7 9.5-.6 1.9" fill="none" stroke="#bfbfbf" stroke-width=".5002" transform="matrix(.66913061 .74314483 -.74314483 .66913061 587.060897 518.903172)"/><path d="m-514.6 49.8-.6 1.9" fill="none" stroke="#bfbfbf" stroke-width=".5002" transform="matrix(.58778525 .80901699 -.80901699 .58778525 574.04564 529.442719)"/><path d="m-499.3 88.8-.7 1.9" fill="none" stroke="#bfbfbf" stroke-width=".5002" transform="matrix(.5 .8660254 -.8660254 .5 560 538.564065)"/><path d="m-480.1 125.9-.6 1.9" fill="none" stroke="#bfbfbf" stroke-width=".5002" transform="matrix(.40673664 .91354546 -.91354546 .40673664 545.077863 546.167273)"/><g transform="matrix(.30901699 .95105652 -.95105652 .30901699 529.442719 552.169043)"><path d="m-457.1 160.9-1.1 3.3" fill="none" stroke="#bfbfbf" stroke-width=".5002"/><text fill="#919191" font-family="'RobotoMono-Regular'" font-size="5.002" transform="matrix(-.9508 -.3098 .3098 -.9508 -455.8539 166.013)">15</text></g><path d="m-430.6 193.2-.6 1.9" fill="none" stroke="#bfbfbf" stroke-width=".5002" transform="matrix(.20791169 .9781476 -.9781476 .20791169 513.265871 556.503616)"/><path d="m-400.8 222.6-.6 1.9" fill="none" stroke="#bfbfbf" stroke-width=".5002" transform="matrix(.10452846 .9945219 -.9945219 .10452846 496.724554 559.123503)"/><path d="m-368.1 248.7-.6 1.9" fill="none" stroke="#bfbfbf" stroke-width=".5002" transform="matrix(0 1 -1 0 480 560)"/><path d="m-332.9 271.3-.6 1.9" fill="none" stroke="#bfbfbf" stroke-width=".5002" transform="matrix(-.10452846 .9945219 -.9945219 -.10452846 463.275446 559.123503)"/><g transform="matrix(-.20791169 .9781476 -.9781476 -.20791169 446.734129 556.503616)"><path d="m-295.5 290.1-1.1 3.3" fill="none" stroke="#bfbfbf" stroke-width=".5002"/><text fill="#919191" font-family="'RobotoMono-Regular'" font-size="5.002" transform="matrix(-.9508 -.3098 .3098 -.9508 -294.2466 295.2171)">20</text></g><path d="m-256.3 304.8-.7 1.9" fill="none" stroke="#bfbfbf" stroke-width=".5002" transform="matrix(-.30901699 .95105652 -.95105652 -.30901699 430.557281 552.169043)"/><path d="m-215.9 315.4-.6 1.9" fill="none" stroke="#bfbfbf" stroke-width=".5002" transform="matrix(-.40673664 .91354546 -.91354546 -.40673664 414.922137 546.167273)"/><path d="m-174.5 321.7-.6 1.9" fill="none" stroke="#bfbfbf" stroke-width=".5002" transform="matrix(-.5 .8660254 -.8660254 -.5 400 538.564065)"/><path d="m-132.7 323.6-.6 1.9" fill="none" stroke="#bfbfbf" stroke-width=".5002" transform="matrix(-.58778525 .80901699 -.80901699 -.58778525 385.95436 529.442719)"/><g transform="matrix(-.66913061 .74314483 -.74314483 -.66913061 372.939103 518.903172)"><path d="m-90.9 321.2-1.1 3.3" fill="none" stroke="#bfbfbf" stroke-width=".5002"/><text fill="#919191" font-family="'RobotoMono-Regular'" font-size="5.002" transform="matrix(-.9508 -.3098 .3098 -.9508 -89.6854 326.3058)">25</text></g><path d="m-49.7 314.4-.6 1.9" fill="none" stroke="#bfbfbf" stroke-width=".5002" transform="matrix(-.74314483 .66913061 -.66913061 -.74314483 361.096828 507.060897)"/><path d="m-9.3 303.3-.6 1.9" fill="none" stroke="#bfbfbf" stroke-width=".5002" transform="matrix(-.80901699 .58778525 -.58778525 -.80901699 350.557281 494.04564)"/><path d="m29.7 288-.7 1.9" fill="none" stroke="#bfbfbf" stroke-width=".5002" transform="matrix(-.8660254 .5 -.5 -.8660254 341.435935 480)"/><path d="m66.8 268.8-.6 1.9" fill="none" stroke="#bfbfbf" stroke-width=".5002" transform="matrix(-.91354546 .40673664 -.40673664 -.91354546 333.832727 465.077863)"/><g transform="matrix(-.95105652 .30901699 -.30901699 -.95105652 327.830957 449.442719)"><path d="m101.8 245.8-1.1 3.3" fill="none" stroke="#bfbfbf" stroke-width=".5002"/><text fill="#919191" font-family="'RobotoMono-Regular'" font-size="5.002" transform="matrix(-.9508 -.3098 .3098 -.9508 103.0084 250.9501)">30</text></g><path d="m134.1 219.3-.6 1.9" fill="none" stroke="#bfbfbf" stroke-width=".5002" transform="matrix(-.9781476 .20791169 -.20791169 -.9781476 323.496384 433.265871)"/><path d="m163.5 189.5-.6 1.9" fill="none" stroke="#bfbfbf" stroke-width=".5002" transform="matrix(-.9945219 .10452846 -.10452846 -.9945219 320.876497 416.724554)"/><path d="m189.6 156.8-.6 1.9" fill="none" stroke="#bfbfbf" stroke-width=".5002" transform="matrix(-1 0 0 -1 320 400)"/><path d="m212.2 121.6-.6 1.9" fill="none" stroke="#bfbfbf" stroke-width=".5002" transform="matrix(-.9945219 -.10452846 .10452846 -.9945219 320.876497 383.275446)"/><g transform="matrix(-.9781476 -.20791169 .20791169 -.9781476 323.496384 366.734129)"><path d="m231 84.2-1.1 3.3" fill="none" stroke="#bfbfbf" stroke-width=".5002"/><text fill="#919191" font-family="'RobotoMono-Regular'" font-size="5.002" transform="matrix(.9508 .3098 -.3098 .9508 225.8405 90.9457)">35</text></g><path d="m245.7 45-.6 1.9" fill="none" stroke="#bfbfbf" stroke-width=".5002" transform="matrix(-.95105652 -.30901699 .30901699 -.95105652 327.830957 350.557281)"/><path d="m256.3 4.6-.6 1.9" fill="none" stroke="#bfbfbf" stroke-width=".5002" transform="matrix(-.91354546 -.40673664 .40673664 -.91354546 333.832727 334.922137)"/><path d="m262.6-36.8-.6 1.9" fill="none" stroke="#bfbfbf" stroke-width=".5002" transform="matrix(-.8660254 -.5 .5 -.8660254 341.435935 320)"/><path d="m264.5-78.6-.6 1.9" fill="none" stroke="#bfbfbf" stroke-width=".5002" transform="matrix(-.80901699 -.58778525 .58778525 -.80901699 350.557281 305.95436)"/><g transform="matrix(-.74314483 -.66913061 .66913061 -.74314483 361.096828 292.939103)"><path d="m262.1-120.4-1.1 3.4" fill="none" stroke="#bfbfbf" stroke-width=".5002"/><text fill="#919191" font-family="'RobotoMono-Regular'" font-size="5.002" transform="matrix(.9508 .3098 -.3098 .9508 256.9295 -113.6144)">40</text></g><path d="m255.3-161.6-.7 1.9" fill="none" stroke="#bfbfbf" stroke-width=".5002" transform="matrix(-.66913061 -.74314483 .74314483 -.66913061 372.939103 281.096828)"/><path d="m244.2-202-.7 1.9" fill="none" stroke="#bfbfbf" stroke-width=".5002" transform="matrix(-.58778525 -.80901699 .80901699 -.58778525 385.95436 270.557281)"/><path d="m228.9-241-.6 1.9" fill="none" stroke="#bfbfbf" stroke-width=".5002" transform="matrix(-.5 -.8660254 .8660254 -.5 400 261.435935)"/><path d="m209.7-278.1-.6 1.9" fill="none" stroke="#bfbfbf" stroke-width=".5002" transform="matrix(-.40673664 -.91354546 .91354546 -.40673664 414.922137 253.832727)"/><g transform="matrix(-.30901699 -.95105652 .95105652 -.30901699 430.557281 247.830957)"><path d="m186.7-313.1-1.1 3.4" fill="none" stroke="#bfbfbf" stroke-width=".5002"/><text fill="#919191" font-family="'RobotoMono-Regular'" font-size="5.002" transform="matrix(.9508 .3098 -.3098 .9508 181.5726 -306.3123)">45</text></g><path d="m160.2-345.4-.7 1.9" fill="none" stroke="#bfbfbf" stroke-width=".5002" transform="matrix(-.20791169 -.9781476 .9781476 -.20791169 446.734129 243.496384)"/><path d="m130.4-374.8-.6 1.9" fill="none" stroke="#bfbfbf" stroke-width=".5002" transform="matrix(-.10452846 -.9945219 .9945219 -.10452846 463.275446 240.876497)"/><path d="m97.7-400.9-.6 1.9" fill="none" stroke="#bfbfbf" stroke-width=".5002" transform="matrix(0 -1 1 0 480 240)"/><path d="m62.5-423.5-.6 1.9" fill="none" stroke="#bfbfbf" stroke-width=".5002" transform="matrix(.10452846 -.9945219 .9945219 .10452846 496.724554 240.876497)"/><g transform="matrix(.20791169 -.9781476 .9781476 .20791169 513.265871 243.496384)"><path d="m25.1-442.3-1.1 3.4" fill="none" stroke="#bfbfbf" stroke-width=".5002"/><text fill="#919191" font-family="'RobotoMono-Regular'" font-size="5.002" transform="matrix(.9508 .3098 -.3098 .9508 19.9647 -435.5145)">50</text></g><path d="m-14.1-457-.6 1.9" fill="none" stroke="#bfbfbf" stroke-width=".5002" transform="matrix(.30901699 -.95105652 .95105652 .30901699 529.442719 247.830957)"/><path d="m-54.5-467.6-.7 1.9" fill="none" stroke="#bfbfbf" stroke-width=".5002" transform="matrix(.40673664 -.91354546 .91354546 .40673664 545.077863 253.832727)"/><path d="m-95.9-473.9-.6 1.9" fill="none" stroke="#bfbfbf" stroke-width=".5002" transform="matrix(.5 -.8660254 .8660254 .5 560 261.435935)"/><path d="m-137.7-475.8-.6 1.9" fill="none" stroke="#bfbfbf" stroke-width=".5002" transform="matrix(.58778525 -.80901699 .80901699 .58778525 574.04564 270.557281)"/><g transform="matrix(.66913061 -.74314483 .74314483 .66913061 587.060897 281.096828)"><path d="m-179.5-473.4-1.1 3.4" fill="none" stroke="#bfbfbf" stroke-width=".5002"/><text fill="#919191" font-family="'RobotoMono-Regular'" font-size="5.002" transform="matrix(.9508 .3098 -.3098 .9508 -184.5963 -466.6036)">55</text></g><path d="m-220.8-466.5-.6 1.9" fill="none" stroke="#bfbfbf" stroke-width=".5002" transform="matrix(.74314483 -.66913061 .66913061 .74314483 598.903172 292.939103)"/><path d="m-261.1-455.5-.6 1.9" fill="none" stroke="#bfbfbf" stroke-width=".5002" transform="matrix(.80901699 -.58778525 .58778525 .80901699 609.442719 305.95436)"/><path d="m-300.1-440.2-.6 1.9" fill="none" stroke="#bfbfbf" stroke-width=".5002" transform="matrix(.8660254 -.5 .5 .8660254 618.564065 320)"/><path d="m-337.2-421-.6 1.9" fill="none" stroke="#bfbfbf" stroke-width=".5002" transform="matrix(.91354546 -.40673664 .40673664 .91354546 626.167273 334.922137)"/><g transform="matrix(.95105652 -.30901699 .30901699 .95105652 632.169043 350.557281)"><path d="m-372.2-398-1.1 3.3" fill="none" stroke="#bfbfbf" stroke-width=".5002"/><text fill="#919191" font-family="'RobotoMono-Regular'" font-size="5.002" transform="matrix(.9508 .3098 -.3098 .9508 -377.2902 -391.2477)">60</text></g><g transform="translate(480 400)"><circle cx="7.2" cy="-232.9" fill="none" r="118.1" stroke="#e2e2e2" stroke-width=".5002"/><g fill="#a0a0a0" font-family="'Helvetica'" font-size="5.002"><text transform="translate(4.4395 -352.1577)">10</text><text transform="translate(4.4395 -371.5348)">15</text></g></g><g transform="translate(480 400)"><circle cx="7.2" cy="-232.9" fill="none" r="156.3" stroke="#e2e2e2" stroke-width=".5002"/><circle cx="7.2" cy="-232.9" fill="none" r="137.4" stroke="#e2e2e2" stroke-width=".4399"/><text fill="#a0a0a0" font-family="'Helvetica'" font-size="5.002" transform="translate(4.4395 -390.2562)">20</text></g><g fill="#aaa" transform="translate(480 400)"><path d="m132.5-266.1c1.1 4.1 2 8.3 2.7 12.5l-48.9 7.8c-.4-2.5-.9-5-1.6-7.4z"/><path d="m112.7-249.2c.5 3.4.9 6.9 1.1 10.3l-26.6 1.4c-.1-2.5-.4-5-.8-7.5z"/><path d="m148.1-239.9c.2 4.7.2 9.3 0 14l-60.9-3.2c.1-2.5.1-5.1 0-7.6z"/><path d="m136.6-225.7c-.2 4.3-.7 8.5-1.3 12.7l-48.9-7.8c.4-2.5.6-5 .8-7.5z"/><path d="m120.1-214.6c-.6 3.7-1.4 7.3-2.3 10.9l-33.1-8.9c.6-2.4 1.2-4.9 1.6-7.4z"/><path d="m147-195.1c-1.3 4.6-2.7 9.2-4.4 13.7l-60.5-23.2c.9-2.4 1.7-4.8 2.3-7.2z"/><path d="m110.3-192.9c-1.3 3.3-2.8 6.6-4.4 9.8l-27.2-13.8c1.1-2.3 2.2-4.6 3.1-6.9z"/><path d="m91.9-189.3c-1.4 2.7-2.9 5.4-4.6 7.9l-12.8-8.3c1.4-2.1 2.6-4.3 3.8-6.6z"/><path d="m134.9-149.6c-2.8 4.2-5.7 8.3-8.9 12.3l-56.3-45.6c1.6-2 3.1-4 4.5-6.1z"/><path d="m113.6-146.3c-2.9 3.5-5.9 6.9-9.1 10.1l-40.4-40.4c1.8-1.8 3.5-3.7 5.1-5.6z"/><path d="m90.5-149.1c-2.7 2.7-5.6 5.3-8.6 7.7l-24-29.6c2-1.6 3.8-3.3 5.6-5.1z"/><path d="m71.7-152.7c-2.6 2.1-5.3 4-8.1 5.9l-12.5-19.2c2.1-1.4 4.2-2.9 6.1-4.5z"/><path d="m77.5-124c-3.6 2.3-7.3 4.4-11.1 6.4l-22.5-44.1c2.2-1.2 4.4-2.4 6.6-3.8z"/><path d="m70.9-107.1c-4.2 2.1-8.4 4-12.8 5.7l-21.9-56.9c2.4-.9 4.7-1.9 6.9-3.1z"/><path d="m54.7-108.2c-4.1 1.6-8.3 2.9-12.5 4.1l-13.8-51.5c2.4-.7 4.8-1.4 7.2-2.3z"/><path d="m42.3-100.3c-4.4 1.2-8.8 2.1-13.3 2.8l-8.9-56.5c2.5-.4 5-.9 7.4-1.6z"/><path d="m27.7-101.1c-4.3.7-8.7 1.1-13.1 1.4l-2.8-53.3c2.5-.1 5-.4 7.5-.8z"/><path d="m14.6-84.5c-4.9.2-9.8.2-14.8 0l3.6-68.5c2.5.1 5.1.1 7.6 0z"/><path d="m1.6-134c-3.2-.2-6.4-.5-9.5-1l3-18.8c2.5.4 5 .6 7.5.8z"/><path d="m-16.4-86.2c-4.9-.8-9.7-1.8-14.4-3.1l17.8-66.3c2.4.6 4.9 1.2 7.4 1.6z"/><path d="m-29.7-96.8c-4.5-1.2-8.9-2.7-13.3-4.3l21.9-56.9c2.4.9 4.8 1.7 7.2 2.3z"/><path d="m-30-137c-3.1-1.2-6.1-2.6-9.1-4.1l10.4-20.4c2.3 1.1 4.6 2.2 6.9 3.1z"/><path d="m-41.6-138c-3.1-1.6-6.1-3.3-9-5.2l14.5-22.4c2.1 1.4 4.3 2.6 6.6 3.8z"/><path d="m-67.8-118.1c-3.8-2.5-7.4-5.1-11-8l36-44.4c2 1.6 4 3.1 6.1 4.5z"/><path d="m-62.6-147.3c-2.8-2.3-5.5-4.7-8-7.2l21.6-21.6c1.8 1.8 3.7 3.5 5.6 5.1z"/><path d="m-65.8-160.4c-2.3-2.4-4.6-4.8-6.7-7.4l17.8-14.4c1.6 2 3.3 3.8 5.1 5.6z"/><path d="m-96.7-149.3c-2.8-3.4-5.3-7-7.7-10.6l44.7-29.1c1.4 2.1 2.9 4.2 4.5 6.1z"/><path d="m-101.7-162.7c-2.3-3.6-4.4-7.3-6.4-11.1l44.1-22.5c1.2 2.2 2.4 4.4 3.8 6.6z"/><path d="m-111.8-172.7c-2-3.9-3.8-7.9-5.4-12l49.8-19.1c.9 2.4 1.9 4.7 3.1 6.9z"/><path d="m-110.3-188.2c-1.5-3.9-2.7-7.8-3.8-11.8l44.2-11.8c.7 2.4 1.4 4.8 2.3 7.2z"/><path d="m-103.3-203.7c-1-3.6-1.7-7.2-2.3-10.9l33.9-5.4c.4 2.5.9 5 1.6 7.4z"/><path d="m-113.3-214.2c-.6-3.9-1-7.9-1.3-11.9l41.9-2.2c.1 2.5.4 5 .8 7.5z"/><path d="m-122.2-226.5c-.2-4.3-.2-8.5 0-12.8l49.5 2.6c-.1 2.5-.1 5.1 0 7.6z"/><path d="m-99.3-238.9c.2-3.5.6-6.9 1.1-10.3l26.3 4.2c-.4 2.5-.6 5-.8 7.5z"/><path d="m-86.8-248.2c.5-3 1.1-6 1.9-9l14.7 3.9c-.6 2.4-1.2 4.9-1.6 7.4z"/><path d="m-110.5-264.9c1-3.9 2.3-7.6 3.7-11.4l39.1 15c-.9 2.4-1.7 4.8-2.3 7.2z"/><path d="m-78-266.1c1.1-2.7 2.3-5.4 3.6-8l10.2 5.2c-1.1 2.3-2.2 4.6-3.1 6.9z"/><path d="m-94.5-285.2c1.7-3.3 3.6-6.5 5.6-9.7l28.8 18.7c-1.4 2.1-2.6 4.3-3.8 6.6z"/><path d="m-110.8-310.1c2.5-3.9 5.3-7.7 8.2-11.3l47.4 38.4c-1.6 2-3.1 4-4.5 6.1z"/><path d="m-66.6-293.2c1.9-2.4 4-4.6 6.1-6.8l10.8 10.8c-1.8 1.8-3.5 3.7-5.1 5.6z"/><path d="m-97.6-338.3c3.5-3.5 7.2-6.8 11-9.9l43.2 53.3c-2 1.6-3.8 3.3-5.6 5.1z"/><path d="m-74-333.9c3.3-2.7 6.8-5.2 10.3-7.5l27 41.6c-2.1 1.4-4.2 2.9-6.1 4.5z"/><path d="m-52.6-325.8c3-1.9 6.1-3.7 9.3-5.4l13.8 27.2c-2.2 1.2-4.4 2.4-6.6 3.8z"/><path d="m-54.7-355.3c4-2 8.2-3.9 12.4-5.5l20.5 53.4c-2.4.9-4.7 1.9-6.9 3.1z"/><path d="m-34.7-343.4c3.6-1.4 7.3-2.6 11-3.6l9.9 36.8c-2.4.7-4.8 1.4-7.2 2.3z"/><path d="m-22-343.5c3.6-1 7.2-1.7 10.9-2.3l5.4 33.9c-2.5.4-5 .9-7.4 1.6z"/><path d="m-12.1-357.2c4.1-.6 8.2-1.1 12.3-1.3l2.4 45.7c-2.5.1-5 .4-7.5.8z"/><path d="m2.6-328.1c3.1-.1 6.1-.1 9.2 0l-.8 15.2c-2.5-.1-5.1-.1-7.6 0z"/><path d="m15.8-388.9c5.2.3 10.3.8 15.5 1.6l-12 75.3c-2.5-.4-5-.6-7.5-.8z"/><path d="m28.5-364.6c4.3.7 8.6 1.6 12.9 2.7l-13.8 51.5c-2.4-.6-4.9-1.2-7.4-1.6z"/><path d="m31.3-321.2c2.8.8 5.6 1.7 8.3 2.7l-4.1 10.7c-2.4-.9-4.8-1.7-7.2-2.3z"/><path d="m58.1-364.4c4.3 1.7 8.6 3.6 12.8 5.7l-27.7 54.3c-2.3-1.1-4.6-2.2-6.9-3.1z"/><path d="m76.8-368.6c4.5 2.3 8.9 4.8 13.1 7.6l-39.4 60.7c-2.1-1.4-4.3-2.6-6.6-3.8z"/><path d="m74-335c3.3 2.2 6.6 4.5 9.7 7l-26.4 32.6c-2-1.6-4-3.1-6.1-4.5z"/><path d="m81.9-324.5c3 2.4 5.9 5 8.6 7.7l-26.9 26.9c-1.8-1.8-3.7-3.5-5.6-5.1z"/><path d="m85.7-310.8c2.5 2.5 4.9 5.2 7.2 8l-23.7 19.2c-1.6-2-3.3-3.8-5.1-5.6z"/><path d="m90.4-299.8c2.2 2.7 4.2 5.5 6.1 8.4l-22.4 14.5c-1.4-2.1-2.9-4.2-4.5-6.1z"/><path d="m87.3-284.5c1.7 2.6 3.2 5.2 4.6 7.9l-13.6 6.9c-1.2-2.2-2.4-4.4-3.8-6.6z"/><path d="m92.3-275.8c1.4 2.7 2.6 5.5 3.7 8.4l-14.2 5.4c-.9-2.4-1.9-4.7-3.1-6.9z"/><path d="m103.4-269.4c1.2 3.1 2.2 6.3 3.1 9.5l-22.1 5.9c-.7-2.4-1.4-4.8-2.3-7.2z"/></g><g fill="#ddd" transform="translate(480 400)"><path d="m154.6-272c1.3 4.9 2.3 9.8 3.2 14.8l-22.6 3.6c-.7-4.2-1.6-8.4-2.7-12.5z"/><path d="m154.1-255.8c.8 4.9 1.3 9.8 1.5 14.7l-41.9 2.2c-.2-3.5-.6-6.9-1.1-10.3z"/><path d="m159.5-240.5c.3 5 .3 10.1 0 15.2l-11.4-.6c.2-4.7.2-9.3 0-14z"/><path d="m155.6-224.7c-.3 4.9-.8 9.8-1.5 14.7l-18.8-3c.7-4.2 1.1-8.4 1.3-12.7z"/><path d="m146.4-210.5c-.7 4.6-1.7 9.2-2.9 13.7l-25.8-6.9c1-3.6 1.7-7.2 2.3-10.9z"/><path d="m158-192.1c-1.4 5-3 9.9-4.8 14.8l-10.7-4.1c1.7-4.5 3.2-9 4.4-13.7z"/><path d="m131.6-184.7c-1.6 4.1-3.4 8.1-5.4 12l-20.4-10.4c1.6-3.2 3.1-6.5 4.4-9.8z"/><path d="m119.1-175.5c-1.9 3.7-3.9 7.2-6.2 10.7l-25.6-16.6c1.7-2.6 3.2-5.2 4.6-7.9z"/><path d="m138-147.5c-2.8 4.3-5.9 8.5-9.1 12.6l-3-2.4c3.2-3.9 6.1-8 8.9-12.3z"/><path d="m125.4-136.7c-3.2 3.9-6.6 7.7-10.1 11.3l-10.8-10.8c3.2-3.2 6.2-6.6 9.1-10.1z"/><path d="m109.3-130.2c-3.4 3.4-7 6.6-10.7 9.6l-16.8-20.7c3-2.4 5.9-5 8.6-7.7z"/><path d="m95.7-123.1c-3.6 2.9-7.4 5.7-11.3 8.2l-20.8-32c2.8-1.8 5.5-3.8 8.1-5.9z"/><path d="m85.8-111.2c-4 2.6-8.2 5-12.4 7.2l-6.9-13.6c3.8-1.9 7.5-4.1 11.1-6.4z"/><path d="m76.1-96.9c-4.5 2.3-9.1 4.3-13.8 6.2l-4.1-10.7c4.3-1.7 8.6-3.6 12.8-5.7z"/><path d="m57.4-101.1c-4.4 1.7-8.8 3.1-13.3 4.3l-2-7.4c4.2-1.1 8.4-2.5 12.5-4.1z"/><path d="m45.3-89.3c-4.8 1.3-9.6 2.3-14.4 3.1l-1.8-11.3c4.5-.7 8.9-1.7 13.3-2.8z"/><path d="m27.7-101.1c-4.3.7-8.7 1.1-13.1 1.4 4.4-.3 8.8-.7 13.1-1.4z"/><path d="m14.8-80.7c-5 .3-10.1.3-15.2 0l.2-3.8c4.9.2 9.8.2 14.8 0z"/><path d="m.4-111.2c-4-.2-8-.6-11.9-1.3l3.6-22.6c3.2.5 6.3.8 9.5 1z"/><path d="m-17.6-78.7c-5.1-.8-10.2-1.9-15.2-3.2l2-7.4c4.8 1.3 9.6 2.3 14.4 3.1z"/><path d="m-31.6-89.5c-4.8-1.3-9.4-2.8-14-4.6l2.7-7.1c4.4 1.7 8.8 3.1 13.3 4.3z"/><path d="m-42.3-105c-4.2-1.6-8.4-3.5-12.4-5.5l15.6-30.6c3 1.5 6 2.9 9.1 4.1z"/><path d="m-50.2-121c-3.7-1.9-7.2-3.9-10.7-6.2l10.4-16c2.9 1.9 5.9 3.6 9 5.2z"/><path d="m-74.1-108.5c-4.1-2.7-8.1-5.6-11.9-8.7l7.2-8.9c3.5 2.8 7.2 5.5 11 8z"/><path d="m-84.2-120.6c-3.7-3-7.3-6.2-10.7-9.6l24.3-24.3c2.5 2.5 5.2 4.9 8 7.2z"/><path d="m-98.2-128.1c-3.5-3.5-6.8-7.2-9.9-11l35.5-28.8c2.1 2.6 4.3 5 6.7 7.4z"/><path d="m-114.5-134.9c-3.3-4-6.3-8.2-9.1-12.6l19.2-12.5c2.4 3.7 5 7.2 7.7 10.6z"/><path d="m-127.2-146.1c-2.9-4.5-5.5-9.1-8-13.8l27.2-13.8c1.9 3.8 4.1 7.5 6.4 11.1z"/><path d="m-128.8-164.1c-2.3-4.5-4.3-9.1-6.2-13.8l17.8-6.8c1.6 4.1 3.4 8.1 5.4 12z"/><path d="m-131.7-180c-1.8-4.6-3.3-9.3-4.6-14l22.1-5.9c1.1 4 2.4 7.9 3.8 11.8z"/><path d="m-129.1-196.8c-1.2-4.5-2.2-9.1-2.9-13.7l26.3-4.2c.6 3.7 1.4 7.3 2.3 10.9z"/><path d="m-120.8-213c-.7-4.2-1.1-8.4-1.3-12.7l7.6-.4c.2 4 .6 8 1.3 11.9z"/><path d="m-133.6-225.9c-.2-4.7-.2-9.3 0-14l11.4.6c-.2 4.3-.2 8.5 0 12.8z"/><path d="m-118.3-239.9c.2-4.1.7-8.2 1.3-12.3l18.8 3c-.5 3.4-.9 6.9-1.1 10.3z"/><path d="m-113.2-252.4c.6-3.9 1.5-7.8 2.5-11.7l25.8 6.9c-.8 3-1.4 6-1.9 9z"/><path d="m-125.2-268.8c1.2-4.4 2.6-8.7 4.2-12.9l14.2 5.5c-1.4 3.7-2.7 7.5-3.7 11.4z"/><path d="m-110-278.4c1.5-3.8 3.2-7.6 5-11.3l30.6 15.6c-1.3 2.6-2.5 5.3-3.6 8z"/><path d="m-114.8-295.6c2.1-4 4.3-7.9 6.8-11.7l19.2 12.5c-2 3.1-3.9 6.4-5.6 9.7z"/><path d="m-120.4-316.3c2.8-4.2 5.7-8.3 8.9-12.3l8.9 7.2c-2.9 3.6-5.7 7.4-8.2 11.3z"/><path d="m-93.2-314.8c2.7-3.3 5.5-6.5 8.5-9.5l24.3 24.3c-2.2 2.2-4.2 4.4-6.1 6.8z"/><path d="m-100.3-341c3.6-3.6 7.3-7 11.3-10.1l2.4 3c-3.8 3.1-7.5 6.4-11 9.9z"/><path d="m-83.6-345.7c3.7-3 7.6-5.8 11.6-8.4l8.3 12.8c-3.6 2.3-7 4.8-10.3 7.5z"/><path d="m-63-341.8c3.6-2.3 7.3-4.4 11.1-6.4l8.7 17c-3.2 1.6-6.3 3.4-9.3 5.4z"/><path d="m-59.9-365.5c4.4-2.2 8.9-4.2 13.5-6l4.1 10.7c-4.2 1.6-8.4 3.5-12.4 5.5z"/><path d="m-40.2-357.6c4.1-1.6 8.3-2.9 12.5-4.1l3.9 14.7c-3.7 1-7.4 2.2-11 3.6z"/><path d="m-24.9-354.5c4-1.1 8-1.9 12.1-2.6l1.8 11.3c-3.7.6-7.3 1.4-10.9 2.3z"/><path d="m-15-376c4.7-.7 9.5-1.2 14.3-1.5l1 19c-4.1.2-8.2.7-12.3 1.3z"/><path d="m12.8-346.9-1 18.8c-3.1-.1-6.1-.1-9.2 0l-1-18.8z"/><path d="m16-392.7c5.3.3 10.6.8 15.9 1.7l-.6 3.8c-5.1-.8-10.3-1.3-15.5-1.6z"/><path d="m30.9-379.7c4.9.8 9.7 1.8 14.4 3.1l-3.9 14.7c-4.2-1.1-8.5-2-12.9-2.7z"/><path d="m38.2-346.9c3.7 1 7.4 2.2 11 3.6l-9.6 24.9c-2.7-1-5.5-1.9-8.3-2.7z"/><path d="m62.2-375.1c4.7 1.8 9.3 3.9 13.8 6.2l-5.2 10.2c-4.2-2.1-8.4-4-12.8-5.7z"/><path d="m80.2-375.4c4.7 2.4 9.3 5.1 13.8 8l-4.2 6.4c-4.2-2.7-8.6-5.3-13.1-7.6z"/><path d="m88.5-357.4c4.1 2.7 8.1 5.6 11.9 8.7l-16.8 20.7c-3.1-2.5-6.3-4.8-9.7-7z"/><path d="m93.9-339.3c3.5 2.9 6.9 5.9 10.1 9.1l-13.5 13.5c-2.7-2.7-5.6-5.3-8.6-7.7z"/><path d="m93.7-318.9c2.8 2.8 5.5 5.8 8 8.9l-8.9 7.2c-2.3-2.8-4.7-5.5-7.2-8z"/><path d="m123-326.1c3.1 3.8 6 7.8 8.7 11.9l-35.2 22.8c-1.9-2.9-3.9-5.7-6.1-8.4z"/><path d="m93.7-288.6c1.8 2.8 3.5 5.7 5 8.6l-6.8 3.5c-1.4-2.7-2.9-5.4-4.6-7.9z"/><path d="m109.3-284.5c1.7 3.3 3.2 6.7 4.5 10.2l-17.8 6.9c-1.1-2.9-2.4-5.6-3.7-8.4z"/><path d="m124.8-277.6c1.5 3.9 2.7 7.8 3.8 11.8l-22.1 5.9c-.9-3.2-1.9-6.4-3.1-9.5z"/></g><path d="m-79.7-302.4-1.1 3.3" fill="none" stroke="#bfbfbf" stroke-width=".5002" transform="matrix(.9781476 -.20791169 .20791169 .9781476 636.503616 366.734129)"/><path d="m-103.7-307-.6 1.9" fill="none" stroke="#bfbfbf" stroke-width=".5002" transform="matrix(.9945219 -.10452846 .10452846 .9945219 639.123503 383.275446)"/><path d="m512 91-.6 1.9" fill="none" stroke="#bfbfbf" stroke-width=".5002"/><path d="m-152.4-308.5-.6 1.9" fill="none" stroke="#bfbfbf" stroke-width=".5002" transform="matrix(.9945219 .10452846 -.10452846 .9945219 639.123503 416.724554)"/><g transform="matrix(.9781476 .20791169 -.20791169 .9781476 636.503616 433.265871)"><path d="m-176.6-305.4-1.1 3.3" fill="none" stroke="#bfbfbf" stroke-width=".5002"/><text fill="#919191" font-family="'RobotoMono-Regular'" font-size="5.002" transform="matrix(-.9509 -.3096 .3096 -.9509 -176.653 -300.7193)">5</text></g><path d="m-200.3-299.9-.6 2" fill="none" stroke="#bfbfbf" stroke-width=".5002" transform="matrix(.95105652 .30901699 -.30901699 .95105652 632.169043 449.442719)"/><path d="m-223.4-291.8-.6 1.9" fill="none" stroke="#bfbfbf" stroke-width=".5002" transform="matrix(.91354546 .40673664 -.40673664 .91354546 626.167273 465.077863)"/><path d="m-245.4-281.4-.6 1.9" fill="none" stroke="#bfbfbf" stroke-width=".5002" transform="matrix(.8660254 .5 -.5 .8660254 618.564065 480)"/><path d="m-266.3-268.8-.6 1.9" fill="none" stroke="#bfbfbf" stroke-width=".5002" transform="matrix(.80901699 .58778525 -.58778525 .80901699 609.442719 494.04564)"/><g transform="matrix(.74314483 .66913061 -.66913061 .74314483 598.903172 507.060897)"><path d="m-285.7-254-1.1 3.3" fill="none" stroke="#bfbfbf" stroke-width=".5002"/><text fill="#919191" font-family="'RobotoMono-Regular'" font-size="5.002" transform="matrix(-.9509 -.3096 .3096 -.9509 -284.455 -248.8819)">10</text></g><path d="m-303.5-237.3-.6 1.9" fill="none" stroke="#bfbfbf" stroke-width=".5002" transform="matrix(.66913061 .74314483 -.74314483 .66913061 587.060897 518.903172)"/><path d="m-319.4-218.8-.6 1.9" fill="none" stroke="#bfbfbf" stroke-width=".5002" transform="matrix(.58778525 .80901699 -.80901699 .58778525 574.04564 529.442719)"/><path d="m-333.3-198.8-.6 1.9" fill="none" stroke="#bfbfbf" stroke-width=".5002" transform="matrix(.5 .8660254 -.8660254 .5 560 538.564065)"/><path d="m-345.1-177.4-.6 1.9" fill="none" stroke="#bfbfbf" stroke-width=".5002" transform="matrix(.40673664 .91354546 -.91354546 .40673664 545.077863 546.167273)"/><g transform="matrix(.30901699 .95105652 -.95105652 .30901699 529.442719 552.169043)"><path d="m-354.5-154.9-1.1 3.3" fill="none" stroke="#bfbfbf" stroke-width=".5002"/><text fill="#919191" font-family="'RobotoMono-Regular'" font-size="5.002" transform="matrix(-.9509 -.3096 .3096 -.9509 -353.256 -149.8016)">15</text></g><path d="m-361.5-131.6-.7 1.9" fill="none" stroke="#bfbfbf" stroke-width=".5002" transform="matrix(.20791169 .9781476 -.9781476 .20791169 513.265871 556.503616)"/><path d="m-366.1-107.6-.6 1.9" fill="none" stroke="#bfbfbf" stroke-width=".5002" transform="matrix(.10452846 .9945219 -.9945219 .10452846 496.724554 559.123503)"/><path d="m-368.1-83.3-.7 1.9" fill="none" stroke="#bfbfbf" stroke-width=".5002" transform="matrix(0 1 -1 0 480 560)"/><path d="m-367.6-58.9-.6 1.9" fill="none" stroke="#bfbfbf" stroke-width=".5002" transform="matrix(-.10452846 .9945219 -.9945219 -.10452846 463.275446 559.123503)"/><g transform="matrix(-.20791169 .9781476 -.9781476 -.20791169 446.734129 556.503616)"><path d="m-364.6-34.7-1 3.3" fill="none" stroke="#bfbfbf" stroke-width=".5002"/><text fill="#919191" font-family="'RobotoMono-Regular'" font-size="5.002" transform="matrix(-.9509 -.3096 .3096 -.9509 -363.2986 -29.5944)">20</text></g><path d="m-359-11-.6 1.9" fill="none" stroke="#bfbfbf" stroke-width=".5002" transform="matrix(-.30901699 .95105652 -.95105652 -.30901699 430.557281 552.169043)"/><path d="m-350.9 12-.7 1.9" fill="none" stroke="#bfbfbf" stroke-width=".5002" transform="matrix(-.40673664 .91354546 -.91354546 -.40673664 414.922137 546.167273)"/><path d="m-340.5 34.1-.7 1.9" fill="none" stroke="#bfbfbf" stroke-width=".5002" transform="matrix(-.5 .8660254 -.8660254 -.5 400 538.564065)"/><path d="m-327.9 55-.6 1.9" fill="none" stroke="#bfbfbf" stroke-width=".5002" transform="matrix(-.58778525 .80901699 -.80901699 -.58778525 385.95436 529.442719)"/><g transform="matrix(-.66913061 .74314483 -.74314483 -.66913061 372.939103 518.903172)"><path d="m-313.1 74.4-1.1 3.3" fill="none" stroke="#bfbfbf" stroke-width=".5002"/><text fill="#919191" font-family="'RobotoMono-Regular'" font-size="5.002" transform="matrix(-.9509 -.3096 .3096 -.9509 -311.8936 79.5292)">25</text></g><path d="m-296.4 92.2-.7 1.9" fill="none" stroke="#bfbfbf" stroke-width=".5002" transform="matrix(-.74314483 .66913061 -.66913061 -.74314483 361.096828 507.060897)"/><path d="m-278 108.1-.6 1.9" fill="none" stroke="#bfbfbf" stroke-width=".5002" transform="matrix(-.80901699 .58778525 -.58778525 -.80901699 350.557281 494.04564)"/><path d="m-257.9 122-.7 1.9" fill="none" stroke="#bfbfbf" stroke-width=".5002" transform="matrix(-.8660254 .5 -.5 -.8660254 341.435935 480)"/><path d="m-236.6 133.7-.6 1.9" fill="none" stroke="#bfbfbf" stroke-width=".5002" transform="matrix(-.91354546 .40673664 -.40673664 -.91354546 333.832727 465.077863)"/><g transform="matrix(-.95105652 .30901699 -.30901699 -.95105652 327.830957 449.442719)"><path d="m-214.1 143.2-1 3.3" fill="none" stroke="#bfbfbf" stroke-width=".5002"/><text fill="#919191" font-family="'RobotoMono-Regular'" font-size="5.002" transform="matrix(-.9509 -.3096 .3096 -.9509 -212.8153 148.3301)">30</text></g><path d="m-190.7 150.2-.6 1.9" fill="none" stroke="#bfbfbf" stroke-width=".5002" transform="matrix(-.9781476 .20791169 -.20791169 -.9781476 323.496384 433.265871)"/><path d="m-166.7 154.8-.7 1.9" fill="none" stroke="#bfbfbf" stroke-width=".5002" transform="matrix(-.9945219 .10452846 -.10452846 -.9945219 320.876497 416.724554)"/><path d="m-142.4 156.8-.7 1.9" fill="none" stroke="#bfbfbf" stroke-width=".5002" transform="matrix(-1 0 0 -1 320 400)"/><path d="m-118.1 156.3-.6 1.9" fill="none" stroke="#bfbfbf" stroke-width=".5002" transform="matrix(-.9945219 -.10452846 .10452846 -.9945219 320.876497 383.275446)"/><g transform="matrix(-.9781476 -.20791169 .20791169 -.9781476 323.496384 366.734129)"><path d="m-93.9 153.2-1 3.4" fill="none" stroke="#bfbfbf" stroke-width=".5002"/><text fill="#919191" font-family="'RobotoMono-Regular'" font-size="5.002" transform="matrix(.9509 .3096 -.3096 .9509 -98.9807 159.9806)">35</text></g><path d="m-70.1 147.7-.6 1.9" fill="none" stroke="#bfbfbf" stroke-width=".5002" transform="matrix(-.95105652 -.30901699 .30901699 -.95105652 327.830957 350.557281)"/><path d="m-47.1 139.6-.6 1.9" fill="none" stroke="#bfbfbf" stroke-width=".5002" transform="matrix(-.91354546 -.40673664 .40673664 -.91354546 333.832727 334.922137)"/><path d="m-25 129.2-.6 1.9" fill="none" stroke="#bfbfbf" stroke-width=".5002" transform="matrix(-.8660254 -.5 .5 -.8660254 341.435935 320)"/><path d="m-4.2 116.6-.6 1.9" fill="none" stroke="#bfbfbf" stroke-width=".5002" transform="matrix(-.80901699 -.58778525 .58778525 -.80901699 350.557281 305.95436)"/><g transform="matrix(-.74314483 -.66913061 .66913061 -.74314483 361.096828 292.939103)"><path d="m15.3 101.8-1.1 3.4" fill="none" stroke="#bfbfbf" stroke-width=".5002"/><text fill="#919191" font-family="'RobotoMono-Regular'" font-size="5.002" transform="matrix(.9509 .3096 -.3096 .9509 10.1437 108.5748)">40</text></g><path d="m33 85.1-.6 1.9" fill="none" stroke="#bfbfbf" stroke-width=".5002" transform="matrix(-.66913061 -.74314483 .74314483 -.66913061 372.939103 281.096828)"/><path d="m49 66.7-.6 1.9" fill="none" stroke="#bfbfbf" stroke-width=".5002" transform="matrix(-.58778525 -.80901699 .80901699 -.58778525 385.95436 270.557281)"/><path d="m62.9 46.6-.6 1.9" fill="none" stroke="#bfbfbf" stroke-width=".5002" transform="matrix(-.5 -.8660254 .8660254 -.5 400 261.435935)"/><path d="m74.6 25.2-.6 1.9" fill="none" stroke="#bfbfbf" stroke-width=".5002" transform="matrix(-.40673664 -.91354546 .91354546 -.40673664 414.922137 253.832727)"/><g transform="matrix(-.30901699 -.95105652 .95105652 -.30901699 430.557281 247.830957)"><path d="m84.1 2.7-1.1 3.4" fill="none" stroke="#bfbfbf" stroke-width=".5002"/><text fill="#919191" font-family="'RobotoMono-Regular'" font-size="5.002" transform="matrix(.9509 .3096 -.3096 .9509 78.9447 9.4946)">45</text></g><path d="m91.1-20.6-.6 1.9" fill="none" stroke="#bfbfbf" stroke-width=".5002" transform="matrix(-.20791169 -.9781476 .9781476 -.20791169 446.734129 243.496384)"/><path d="m95.7-44.6-.7 1.9" fill="none" stroke="#bfbfbf" stroke-width=".5002" transform="matrix(-.10452846 -.9945219 .9945219 -.10452846 463.275446 240.876497)"/><path d="m97.7-68.9-.6 1.9" fill="none" stroke="#bfbfbf" stroke-width=".5002" transform="matrix(0 -1 1 0 480 240)"/><path d="m97.2-93.3-.6 1.9" fill="none" stroke="#bfbfbf" stroke-width=".5002" transform="matrix(.10452846 -.9945219 .9945219 .10452846 496.724554 240.876497)"/><g transform="matrix(.20791169 -.9781476 .9781476 .20791169 513.265871 243.496384)"><path d="m94.1-117.5-1.1 3.4" fill="none" stroke="#bfbfbf" stroke-width=".5002"/><text fill="#919191" font-family="'RobotoMono-Regular'" font-size="5.002" transform="matrix(.9509 .3096 -.3096 .9509 88.9886 -110.7132)">50</text></g><path d="m88.5-141.2-.6 1.9" fill="none" stroke="#bfbfbf" stroke-width=".5002" transform="matrix(.30901699 -.95105652 .95105652 .30901699 529.442719 247.830957)"/><path d="m80.5-164.2-.6 1.9" fill="none" stroke="#bfbfbf" stroke-width=".5002" transform="matrix(.40673664 -.91354546 .91354546 .40673664 545.077863 253.832727)"/><path d="m70.1-186.3-.6 1.9" fill="none" stroke="#bfbfbf" stroke-width=".5002" transform="matrix(.5 -.8660254 .8660254 .5 560 261.435935)"/><path d="m57.5-207.2-.7 1.9" fill="none" stroke="#bfbfbf" stroke-width=".5002" transform="matrix(.58778525 -.80901699 .80901699 .58778525 574.04564 270.557281)"/><g transform="matrix(.66913061 -.74314483 .74314483 .66913061 587.060897 281.096828)"><path d="m42.7-226.6-1.1 3.3" fill="none" stroke="#bfbfbf" stroke-width=".5002"/><text fill="#919191" font-family="'RobotoMono-Regular'" font-size="5.002" transform="matrix(.9509 .3096 -.3096 .9509 37.5824 -219.8365)">55</text></g><path d="m26-244.4-.6 1.9" fill="none" stroke="#bfbfbf" stroke-width=".5002" transform="matrix(.74314483 -.66913061 .66913061 .74314483 598.903172 292.939103)"/><path d="m7.5-260.3-.6 1.9" fill="none" stroke="#bfbfbf" stroke-width=".5002" transform="matrix(.80901699 -.58778525 .58778525 .80901699 609.442719 305.95436)"/><path d="m-12.5-274.2-.6 1.9" fill="none" stroke="#bfbfbf" stroke-width=".5002" transform="matrix(.8660254 -.5 .5 .8660254 618.564065 320)"/><path d="m-33.9-285.9-.6 1.9" fill="none" stroke="#bfbfbf" stroke-width=".5002" transform="matrix(.91354546 -.40673664 .40673664 .91354546 626.167273 334.922137)"/><g transform="matrix(.95105652 -.30901699 .30901699 .95105652 632.169043 350.557281)"><path d="m-56.4-295.4-1.1 3.3" fill="none" stroke="#bfbfbf" stroke-width=".5002"/><text fill="#919191" font-family="'RobotoMono-Regular'" font-size="5.002" transform="matrix(.9509 .3096 -.3096 .9509 -61.4957 -288.6381)">60</text></g><g transform="translate(430 387.5)"><circle cx="32.6" cy="-231.1" fill="#aaa" r="6.4"/><text transform="translate(44.5596 -228.2887)"><tspan fill="#919191" font-family="'RobotoMono-Regular'" font-size="8" x="0" y="0">winter</tspan><tspan fill="#919191" font-family="'RobotoMono-Regular'" font-size="8" letter-spacing="23" x="28.8" y="0"></tspan></text></g><g transform="translate(430 412.5)"><circle cx="32.6" cy="-236.1" fill="#ddd" r="6.4"/><text fill="#919191" font-family="'RobotoMono-Regular'" font-size="8" transform="translate(44.5596 -233.3434)">summer</text></g></svg>