<?xml version="1.0" encoding="utf-8"?>
<!-- Generator: Adobe Illustrator 19.2.0, SVG Export Plug-In . SVG Version: 6.00 Build 0)  -->
<svg version="1.1" id="Layer_1" xmlns="http://www.w3.org/2000/svg" xmlns:xlink="http://www.w3.org/1999/xlink" x="0px" y="0px"
	 width="650px" height="278.3px" viewBox="0 0 650 278.3" enable-background="new 0 0 650 278.3" xml:space="preserve">
<g>
	<path fill="none" d="M34,8.4h608.6v243.5H34V8.4z"/>
	<g transform="translate(.5 .5)">
		<g>
			<path fill="none" stroke="#888888" stroke-width="0.9569" d="M23.2,252.9h0.1"/>
			<path fill="none" stroke="#888888" stroke-width="0.9569" d="M23.2,205"/>
			<path fill="none" stroke="#888888" stroke-width="0.9569" d="M23.2,157.2"/>
			<path fill="none" stroke="#888888" stroke-width="0.9569" d="M23.2,109.4"/>
			<path fill="none" stroke="#888888" stroke-width="0.9569" d="M23.2,61.5"/>
		</g>
		<text transform="matrix(1 0 0 1 10.73 255.7256)" fill="#9E9E9E" font-family="'RobotoMono-Regular'" font-size="10px">0</text>
		<text transform="matrix(1 0 0 1 4.729 207.8809)" fill="#9E9E9E" font-family="'RobotoMono-Regular'" font-size="10px">10</text>
		<text transform="matrix(1 0 0 1 4.729 160.0361)" fill="#9E9E9E" font-family="'RobotoMono-Regular'" font-size="10px">20</text>
		<text transform="matrix(1 0 0 1 4.729 112.1924)" fill="#9E9E9E" font-family="'RobotoMono-Regular'" font-size="10px">30</text>
		<text transform="matrix(1 0 0 1 4.729 64.3481)" fill="#9E9E9E" font-family="'RobotoMono-Regular'" font-size="10px">40</text>
		<path fill="none" stroke="#888888" stroke-width="0.9569" d="M23.2,13.2"/>
		<path fill="none" stroke="#E8E8E8" stroke-miterlimit="10" d="M642.1,205H23.2"/>
		<path fill="none" stroke="#E8E8E8" stroke-miterlimit="10" d="M642.1,157.2H23.2"/>
		<path fill="none" stroke="#E8E8E8" stroke-miterlimit="10" d="M642.1,109.4H23.2"/>
		<path fill="none" stroke="#E8E8E8" stroke-miterlimit="10" d="M642.1,61.5H23.2"/>
		<path fill="none" stroke="#E8E8E8" stroke-miterlimit="10" d="M642.1,13.2H23.2"/>
		<text transform="matrix(1 0 0 1 4.729 16.0897)" fill="#9E9E9E" font-family="'RobotoMono-Regular'" font-size="10px">50</text>
	</g>
</g>
<path fill="#CBCBCB" d="M34.9,137.3h33.4v76.5H34.9V137.3z"/>
<path fill="#CBCBCB" d="M82,59.8l33.4-0.1l0.3,116.8l-33.4,0.1L82,59.8z"/>
<path fill="#CBCBCB" d="M130.6,41H164v187.3h-33.4V41z"/>
<path fill="#CBCBCB" d="M178.4,17.5h33.4v88.8h-33.4L178.4,17.5z"/>
<path fill="#CBCBCB" d="M226.3,82.3h33.4v90.6h-33.4V82.3z"/>
<path fill="#CBCBCB" d="M274.2,8.4h33.4v61.4h-33.4V8.4z"/>
<path fill="#CBCBCB" d="M322,53.7h33.5v149.9H322L322,53.7L322,53.7z"/>
<path fill="#CBCBCB" d="M369.8,117.1h33.4v115.5h-33.4V117.1z"/>
<path fill="#CBCBCB" d="M417.7,92.1H451V195h-33.4L417.7,92.1L417.7,92.1z"/>
<path fill="#CBCBCB" d="M465.5,28.2h33.4v139.3h-33.4V28.2z"/>
<path fill="#CBCBCB" d="M513.4,65.1h33.4v130.2h-33.4V65.1z"/>
<path fill="#CBCBCB" d="M561.2,124.4h33.3v100.8h-33.4L561.2,124.4L561.2,124.4z"/>
<path fill="#CBCBCB" d="M609,17.5h33.4v80.4H609V17.5z"/>
<g transform="translate(.5 200.5)">
	<g>
		<path fill="none" stroke="#888888" stroke-width="0.9569" d="M51.2,52.9v4.7"/>
		<path fill="none" stroke="#888888" stroke-width="0.9569" d="M99,52.9v4.7"/>
		<path fill="none" stroke="#888888" stroke-width="0.9569" d="M146.8,52.9v4.7"/>
		<path fill="none" stroke="#888888" stroke-width="0.9569" d="M194.7,52.9v4.7"/>
		<path fill="none" stroke="#888888" stroke-width="0.9569" d="M242.6,52.9v4.7"/>
		<path fill="none" stroke="#888888" stroke-width="0.9569" d="M290.3,52.9v4.7"/>
		<path fill="none" stroke="#888888" stroke-width="0.9569" d="M338.2,52.9v4.7"/>
		<path fill="none" stroke="#888888" stroke-width="0.9569" d="M386,52.9v4.7"/>
		<path fill="none" stroke="#888888" stroke-width="0.9569" d="M433.9,52.9v4.7"/>
		<path fill="none" stroke="#888888" stroke-width="0.9569" d="M481.7,52.9v4.7"/>
	</g>
	<text transform="matrix(1 0 0 1 48.4829 72.8)" fill="#9E9E9E" font-family="'RobotoMono-Regular'" font-size="12px">A</text>
	<text transform="matrix(1 0 0 1 96.3271 72.8)" fill="#9E9E9E" font-family="'RobotoMono-Regular'" font-size="12px">B</text>
	<text transform="matrix(1 0 0 1 144.1719 72.8)" fill="#9E9E9E" font-family="'RobotoMono-Regular'" font-size="12px">C</text>
	<text transform="matrix(1 0 0 1 192.0166 72.8)" fill="#9E9E9E" font-family="'RobotoMono-Regular'" font-size="12px">D</text>
	<text transform="matrix(1 0 0 1 239.8608 72.8)" fill="#9E9E9E" font-family="'RobotoMono-Regular'" font-size="12px">E</text>
	<text transform="matrix(1 0 0 1 287.7051 72.8)" fill="#9E9E9E" font-family="'RobotoMono-Regular'" font-size="12px">F</text>
	<text transform="matrix(1 0 0 1 335.5498 72.8)" fill="#9E9E9E" font-family="'RobotoMono-Regular'" font-size="12px">G</text>
	<text transform="matrix(1 0 0 1 383.3936 72.8)" fill="#9E9E9E" font-family="'RobotoMono-Regular'" font-size="12px">H</text>
	<text transform="matrix(1 0 0 1 431.2393 72.8)" fill="#9E9E9E" font-family="'RobotoMono-Regular'" font-size="12px">I</text>
	<text transform="matrix(1 0 0 1 479.084 72.8)" fill="#9E9E9E" font-family="'RobotoMono-Regular'" font-size="12px">J</text>
	<path fill="none" stroke="#888888" stroke-width="0.9569" d="M529.5,52.9v4.7"/>
	<path fill="none" stroke="#888888" stroke-width="0.9569" d="M577.4,52.9v4.7"/>
	<path fill="none" stroke="#888888" stroke-width="0.9569" d="M625.3,52.9v4.7"/>
	<text transform="matrix(1 0 0 1 526.9277 72.8)" fill="#9E9E9E" font-family="'RobotoMono-Regular'" font-size="12px">K</text>
	<text transform="matrix(1 0 0 1 574.7725 72.8)" fill="#9E9E9E" font-family="'RobotoMono-Regular'" font-size="12px">L</text>
	<text transform="matrix(1 0 0 1 622.6172 72.8)" fill="#9E9E9E" font-family="'RobotoMono-Regular'" font-size="12px">M</text>
	<path fill="none" stroke="#888888" stroke-width="1.0827" d="M23.2,52.9h618.9"/>
</g>
</svg>
