<svg id="Layer_1" data-name="Layer 1" xmlns="http://www.w3.org/2000/svg" width="650" height="523" viewBox="0 0 650 523"><title>spiral-bar-chart</title><path id="spiral" d="M312.45,212.33c30-5.83,59.76,10.56,74.11,36.74,15.77,29,11.51,65.28-8,91.46C359.75,365.6,329,379.47,297.78,379c-35-.63-67.8-19.39-87.67-47.94-17.66-25.7-24.28-57.71-19.24-88.3a130.54,130.54,0,0,1,49.51-81.84,139.56,139.56,0,0,1,98.39-27.75,148.88,148.88,0,0,1,87.51,40.05,158,158,0,0,1,46.2,84.68,165.75,165.75,0,0,1-12.77,100.44A174.22,174.22,0,0,1,388.13,435a181,181,0,0,1-92.24,23,188.81,188.81,0,0,1-94.45-28.23,193.78,193.78,0,0,1-69.22-75.21A201.08,201.08,0,0,1,110.3,251.12a206.23,206.23,0,0,1,30.91-97,215.44,215.44,0,0,1,69.85-69.22A219.93,219.93,0,0,1,307.4,53.7,225.09,225.09,0,0,1,410.21,69.78a231.7,231.7,0,0,1,86.73,62.28,236.29,236.29,0,0,1,48.41,89.09,243.07,243.07,0,0,1,7.25,99.34A247.93,247.93,0,0,1,496.2,447" fill="none" stroke="#b4b4b4" stroke-width="1.58"/><rect x="302.51" y="178.9" width="9.93" height="33.43" fill="#b4b4b4"/><rect x="293.4" y="179.89" width="52.35" height="9.93" transform="translate(126.81 499.72) rotate(-88.57)" fill="#b4b4b4"/><rect x="321.85" y="195.41" width="21.76" height="9.93" transform="translate(70.2 486.62) rotate(-78.53)" fill="#b4b4b4"/><rect x="326.23" y="185.22" width="49.04" height="9.93" transform="translate(46.66 448.5) rotate(-68.81)" fill="#b4b4b4"/><rect x="348.42" y="204.25" width="17.82" height="9.93" transform="translate(-4.71 410.18) rotate(-59.38)" fill="#b4b4b4"/><rect x="361.46" y="214.76" width="7.25" height="9.93" transform="translate(-37.37 359.72) rotate(-50.22)" fill="#b4b4b4"/><rect x="364.81" y="206.07" width="56.61" height="9.93" transform="translate(-41.51 311.94) rotate(-41.3)" fill="#b4b4b4"/><rect x="377.62" y="226.23" width="26.33" height="9.93" transform="translate(-63 246.99) rotate(-32.6)" fill="#b4b4b4"/><rect x="385.13" y="238.4" width="21.6" height="9.93" transform="translate(-64.87 182.98) rotate(-24.11)" fill="#b4b4b4"/><rect x="390.19" y="246.39" width="50.3" height="9.93" transform="translate(-52.79 122.74) rotate(-15.82)" fill="#b4b4b4"/><rect x="394.45" y="264.21" width="2.21" height="9.93" transform="translate(-32.54 55.52) rotate(-7.71)" fill="#d6d6d6"/><rect x="422.37" y="249.72" width="9.93" height="62.13" transform="matrix(0, -1, 1, 0, 144.84, 707)" fill="#d6d6d6"/><rect x="413.72" y="272.83" width="9.93" height="44.78" transform="translate(68.02 668.7) rotate(-81.99)" fill="#d6d6d6"/><rect x="407.13" y="290.83" width="9.93" height="35.16" transform="translate(4.04 622.14) rotate(-74.37)" fill="#d6d6d6"/><rect x="411.75" y="298.65" width="9.93" height="53.3" transform="translate(-46.09 580.8) rotate(-66.88)" fill="#d6d6d6"/><rect x="387.91" y="322.65" width="9.93" height="11.35" transform="translate(-89.33 500.45) rotate(-59.53)" fill="#d6d6d6"/><rect x="384.45" y="332.18" width="9.93" height="17.98" transform="translate(-118.64 440.72) rotate(-52.31)" fill="#d6d6d6"/><rect x="386.45" y="338.25" width="9.93" height="44.78" transform="translate(-140.29 384.28) rotate(-45.2)" fill="#d6d6d6"/><rect x="369.83" y="350.62" width="9.93" height="23.81" transform="translate(-143.95 309.61) rotate(-38.22)" fill="#d6d6d6"/><rect x="356.73" y="359.6" width="9.93" height="12.14" transform="translate(-137.43 241.54) rotate(-31.35)" fill="#d6d6d6"/><rect x="344.27" y="366.57" width="9.93" height="2.37" transform="translate(-121.31 178.56) rotate(-24.58)" fill="#d6d6d6"/><rect x="335.6" y="371.28" width="9.93" height="14.35" transform="translate(-99.88 123.07) rotate(-17.91)" fill="#d6d6d6"/><rect x="322.84" y="375.38" width="9.93" height="3.47" transform="translate(-67.74 71.81) rotate(-11.34)" fill="#d6d6d6"/><rect x="313.39" y="377.74" width="9.93" height="51.09" transform="translate(-33.01 28.41) rotate(-4.86)" fill="#d6d6d6"/><rect x="285.78" y="392.59" width="36.9" height="9.93" transform="translate(-101.33 691.04) rotate(-88.47)" fill="#d6d6d6"/><rect x="282.64" y="383.26" width="18.61" height="9.93" transform="translate(-132.47 624.49) rotate(-82.16)" fill="#d6d6d6"/><rect x="257.07" y="391.9" width="39.73" height="9.93" transform="translate(-175.33 569.06) rotate(-75.94)" fill="#d6d6d6"/><rect x="253.57" y="381.8" width="25.23" height="9.93" transform="translate(-188.73 502.92) rotate(-69.79)" fill="#d6d6d6"/><rect x="251.18" y="371.57" width="11.83" height="9.93" transform="translate(-194.36 440.32) rotate(-63.72)" fill="#d6d6d6"/><rect x="241.97" y="365.3" width="9.46" height="9.93" transform="translate(-198.09 381.13) rotate(-57.72)" fill="#d6d6d6"/><rect x="189.32" y="379.66" width="61.81" height="9.93" transform="translate(-218.22 319.79) rotate(-51.79)" fill="#d6d6d6"/><rect x="218.27" y="353.33" width="14.03" height="9.93" transform="translate(-188.85 271) rotate(-45.94)" fill="#d6d6d6"/><rect x="193.85" y="350.61" width="31.69" height="9.93" transform="translate(-179.85 218.96) rotate(-40.14)" fill="#d6d6d6"/><rect x="182.05" y="341.75" width="35.32" height="9.93" transform="translate(-161 173.56) rotate(-34.41)" fill="#d6d6d6"/><rect x="160.42" y="334.4" width="50.14" height="9.93" transform="translate(-140.34 131.02) rotate(-28.74)" fill="#d6d6d6"/><rect x="151.46" y="322.69" width="52.51" height="9.93" transform="translate(-114.44 96.17) rotate(-23.13)" fill="#d6d6d6"/><rect x="139.29" y="310.7" width="59.29" height="9.93" transform="translate(-87.47 65.78) rotate(-17.58)" fill="#d6d6d6"/><rect x="187.88" y="291.48" width="5.68" height="9.93" transform="translate(-57.87 46.53) rotate(-12.09)" fill="#d6d6d6"/><rect x="130.95" y="283.12" width="60.24" height="9.93" transform="translate(-32.28 20.59) rotate(-6.65)" fill="#d6d6d6"/><rect x="176.04" y="268.3" width="13.4" height="9.93" transform="translate(-5.98 4.1) rotate(-1.26)" fill="#d6d6d6"/><rect x="163.13" y="239.3" width="9.93" height="41.79" transform="translate(-103.38 409.39) rotate(-85.93)" fill="#a0a0a0"/><rect x="154.14" y="214.25" width="9.93" height="61.81" transform="translate(-108.65 362.28) rotate(-80.64)" fill="#a0a0a0"/><rect x="156.8" y="200.4" width="9.93" height="61.18" transform="translate(-102.53 329.32) rotate(-75.4)" fill="#a0a0a0"/><rect x="175.6" y="208.37" width="9.93" height="28.7" transform="translate(-90.12 317.24) rotate(-70.22)" fill="#a0a0a0"/><rect x="178.33" y="193.86" width="9.93" height="32.17" transform="translate(-84.34 287.67) rotate(-65.07)" fill="#a0a0a0"/><rect x="183.73" y="182.17" width="9.93" height="31.85" transform="translate(-77.24 262.31) rotate(-59.97)" fill="#a0a0a0"/><rect x="197.78" y="185.91" width="9.93" height="12.93" transform="translate(-71.21 247.71) rotate(-54.91)" fill="#a0a0a0"/><rect x="206.92" y="180.81" width="9.93" height="6.94" transform="translate(-65.56 227.64) rotate(-49.9)" fill="#a0a0a0"/><rect x="205.83" y="150.64" width="9.93" height="31.54" transform="translate(-55.97 197.45) rotate(-44.93)" fill="#a0a0a0"/><rect x="215.01" y="141.81" width="9.93" height="31.22" transform="translate(-49.72 178.2) rotate(-39.99)" fill="#a0a0a0"/><rect x="230.28" y="150.81" width="9.93" height="12.14" transform="translate(-47.43 163.8) rotate(-35.1)" fill="#a0a0a0"/><rect x="232.83" y="117.05" width="9.93" height="40.84" transform="translate(-36.87 138.49) rotate(-30.24)" fill="#a0a0a0"/><rect x="243.42" y="106.64" width="9.93" height="44.78" transform="translate(-31.34 119.16) rotate(-25.43)" fill="#a0a0a0"/><rect x="254.41" y="95.83" width="9.93" height="49.83" transform="translate(-25.92 99.24) rotate(-20.65)" fill="#a0a0a0"/><rect x="266.85" y="89.19" width="9.93" height="51.56" transform="translate(-21.1 78.91) rotate(-15.91)" fill="#a0a0a0"/><rect x="281.39" y="100.06" width="9.93" height="36.9" transform="translate(-17.56 57.86) rotate(-11.2)" fill="#a0a0a0"/><rect x="293.54" y="85.71" width="9.93" height="48.72" transform="translate(-10.57 34.62) rotate(-6.52)" fill="#a0a0a0"/><rect x="307.4" y="107.78" width="9.93" height="24.91" transform="translate(-3.78 10.34) rotate(-1.88)" fill="#a0a0a0"/><rect x="305.38" y="107.43" width="39.58" height="9.93" transform="translate(197.45 431.87) rotate(-87.28)" fill="#a0a0a0"/><rect x="327.75" y="118.5" width="18.29" height="9.93" transform="matrix(0.13, -0.99, 0.99, 0.13, 171.65, 441.95)" fill="#a0a0a0"/><rect x="325.77" y="102.59" width="53.93" height="9.93" transform="translate(175.08 430.71) rotate(-78.16)" fill="#a0a0a0"/><rect x="353.17" y="124.03" width="14.82" height="9.93" transform="translate(135.26 438.66) rotate(-73.64)" fill="#a0a0a0"/><rect x="357.33" y="116.5" width="37.84" height="9.93" transform="translate(128.9 429.91) rotate(-69.16)" fill="#a0a0a0"/><rect x="367.54" y="117.83" width="45.1" height="9.93" transform="translate(112.42 423.04) rotate(-64.71)" fill="#a0a0a0"/><rect x="382.56" y="128.58" width="32.96" height="9.93" transform="translate(85.25 413.91) rotate(-60.28)" fill="#a0a0a0"/><rect x="392.01" y="131.73" width="40.53" height="9.93" transform="translate(67.9 401.39) rotate(-55.89)" fill="#a0a0a0"/><rect x="407.06" y="147.7" width="18.45" height="9.93" transform="translate(37.77 383.58) rotate(-51.52)" fill="#a0a0a0"/><rect x="417.08" y="156" width="16.08" height="9.93" transform="translate(18.13 363.44) rotate(-47.19)" fill="#a0a0a0"/><rect x="420.19" y="149.01" width="60.87" height="9.93" transform="translate(15.61 347.72) rotate(-42.87)" fill="#a0a0a0"/><rect x="435.97" y="177.47" width="2.05" height="9.93" transform="translate(-18.38 312.37) rotate(-38.59)" fill="#a0a0a0"/><rect x="441.88" y="181.72" width="18.45" height="9.93" transform="translate(-26.7 286.9) rotate(-34.33)" fill="#a0a0a0"/><rect x="446.45" y="183.02" width="53.14" height="9.93" transform="matrix(0.87, -0.5, 0.5, 0.87, -30.5, 262.51)" fill="#d6d6d6"/><rect x="455.02" y="201.74" width="20.97" height="9.93" transform="translate(-43.54 223.92) rotate(-25.88)" fill="#d6d6d6"/><rect x="459.58" y="208.9" width="41.94" height="9.93" transform="translate(-45.02 192.82) rotate(-21.7)" fill="#d6d6d6"/><rect x="465.38" y="226.85" width="2.37" height="9.93" transform="translate(-48.17 151.35) rotate(-17.54)" fill="#d6d6d6"/><rect x="468.7" y="235.2" width="25.39" height="9.93" transform="translate(-42.56 118.13) rotate(-13.4)" fill="#d6d6d6"/><rect x="471.71" y="247.18" width="26.96" height="9.93" transform="translate(-34.33 81.61) rotate(-9.29)" fill="#d6d6d6"/><rect x="473.76" y="257.9" width="62.44" height="9.93" transform="translate(-21.74 46.83) rotate(-5.2)" fill="#d6d6d6"/><rect x="475.02" y="271.93" width="30.12" height="9.93" transform="translate(-5.37 9.72) rotate(-1.13)" fill="#d6d6d6"/><rect x="475.69" y="283.54" width="9.93" height="10.56" transform="translate(167.77 754.18) rotate(-87.09)" fill="#d6d6d6"/><rect x="497.41" y="275.89" width="9.93" height="55.03" transform="translate(140.51 765.45) rotate(-83.06)" fill="#d6d6d6"/><rect x="475.73" y="305.95" width="9.93" height="14.03" transform="translate(82.18 725.52) rotate(-79.06)" fill="#d6d6d6"/><rect x="469.78" y="320.53" width="9.93" height="6.47" transform="translate(39.66 699.14) rotate(-75.08)" fill="#d6d6d6"/><rect x="492.03" y="313.93" width="9.93" height="59.45" transform="translate(11.01 702.71) rotate(-71.12)" fill="#d6d6d6"/><rect x="466.26" y="341.16" width="9.93" height="12.93" transform="translate(-31.93 647.16) rotate(-67.18)" fill="#d6d6d6"/><rect x="467.35" y="348.58" width="9.93" height="25.7" transform="translate(-62.97 620.65) rotate(-63.26)" fill="#d6d6d6"/><rect x="454.34" y="364.08" width="9.93" height="7.88" transform="matrix(0.51, -0.86, 0.86, 0.51, -91.41, 575.67)" fill="#d6d6d6"/><rect x="464.45" y="365.86" width="9.93" height="46.83" transform="translate(-117.33 555.46) rotate(-55.48)" fill="#d6d6d6"/><rect x="452.45" y="378.95" width="9.93" height="35" transform="translate(-137.36 508.91) rotate(-51.62)" fill="#d6d6d6"/><rect x="446.16" y="388.24" width="9.93" height="39.11" transform="translate(-154.02 467.86) rotate(-47.78)" fill="#d6d6d6"/><rect x="426.7" y="402.18" width="9.93" height="7.88" transform="translate(-160.97 413.42) rotate(-43.96)" fill="#d6d6d6"/><rect x="428.3" y="406.76" width="9.93" height="38.95" transform="translate(-172.74 379.88) rotate(-40.16)" fill="#d6d6d6"/><rect x="412.3" y="417.25" width="9.93" height="17.35" transform="translate(-171.29 330.41) rotate(-36.37)" fill="#d6d6d6"/><rect x="413.7" y="421.25" width="9.93" height="58.81" transform="matrix(0.84, -0.54, 0.54, 0.84, -176.85, 296.6)" fill="#d6d6d6"/><rect x="398.7" y="429.44" width="9.93" height="43.36" transform="translate(-167.59 250.8) rotate(-28.85)" fill="#d6d6d6"/><rect x="389.24" y="435.42" width="9.93" height="51.72" transform="translate(-158.53 210.97) rotate(-25.12)" fill="#d6d6d6"/><rect x="374.75" y="441.58" width="9.93" height="37.84" transform="translate(-141.89 170.37) rotate(-21.41)" fill="#d6d6d6"/><rect x="364.02" y="446.16" width="9.93" height="45.1" transform="translate(-125.06 134.41) rotate(-17.7)" fill="#d6d6d6"/><rect x="347.92" y="450.59" width="9.93" height="14.19" transform="translate(-100.38 99.14) rotate(-14.02)" fill="#d6d6d6"/><rect x="340.35" y="453.26" width="9.93" height="58.5" transform="translate(-81.13 69.95) rotate(-10.36)" fill="#d6d6d6"/><rect x="327.42" y="455.61" width="9.93" height="61.65" transform="translate(-54.59 42.19) rotate(-6.71)" fill="#d6d6d6"/><rect x="312.45" y="457.37" width="9.93" height="2.37" transform="translate(-24.17 17.71) rotate(-3.08)" fill="#d6d6d6"/><rect x="298.42" y="460.47" width="14.67" height="9.93" transform="translate(-162.53 766.81) rotate(-89.46)" fill="#bdbdbd"/><rect x="280.27" y="466.13" width="26.02" height="9.93" transform="translate(-197.75 729.62) rotate(-85.86)" fill="#bdbdbd"/><rect x="261.75" y="470.71" width="37.05" height="9.93" transform="translate(-228.75 689.48) rotate(-82.28)" fill="#bdbdbd"/><rect x="266.74" y="454.81" width="7.57" height="9.93" transform="translate(-233.32 635.04) rotate(-78.71)" fill="#bdbdbd"/><rect x="234.28" y="468.74" width="41" height="9.93" transform="translate(-268.4 598.57) rotate(-75.15)" fill="#bdbdbd"/><rect x="233.99" y="456.84" width="22.71" height="9.93" transform="translate(-270.28 548.92) rotate(-71.61)" fill="#bdbdbd"/><rect x="197.21" y="469.99" width="59.44" height="9.93" transform="translate(-298.4 508.23) rotate(-68.09)" fill="#bdbdbd"/><rect x="224.82" y="439.85" width="3.31" height="9.93" transform="translate(-272.49 458.39) rotate(-64.58)" fill="#bdbdbd"/><rect x="212.2" y="436.19" width="6.15" height="9.93" transform="translate(-274.97 416.25) rotate(-61.08)" fill="#bdbdbd"/><rect x="184.84" y="439.91" width="28.23" height="9.93" transform="translate(-283.27 374.45) rotate(-57.6)" fill="#bdbdbd"/><rect x="157.53" y="442.1" width="49.51" height="9.93" transform="translate(-286.8 332.8) rotate(-54.13)" fill="#bdbdbd"/><rect x="186.93" y="415.5" width="0.47" height="9.93" transform="translate(-256.69 298.74) rotate(-50.67)" fill="#bdbdbd"/><rect x="130.64" y="428.95" width="56.92" height="9.93" transform="translate(-267.48 256.08) rotate(-47.23)" fill="#bdbdbd"/><rect x="119.25" y="420.62" width="58.82" height="9.93" transform="translate(-253.22 221.34) rotate(-43.8)" fill="#bdbdbd"/><rect x="156.34" y="394.09" width="6.31" height="9.93" transform="translate(-220.58 198.48) rotate(-40.39)" fill="#bdbdbd"/><rect x="141.25" y="387.82" width="14.51" height="9.93" transform="translate(-206.45 168.42) rotate(-36.99)" fill="#bdbdbd"/><rect x="89.79" y="391.58" width="62.76" height="9.93" transform="translate(-199.21 133.31) rotate(-33.6)" fill="#bdbdbd"/><rect x="131.76" y="367.19" width="9.62" height="9.93" transform="translate(-168.79 119.35) rotate(-30.23)" fill="#bdbdbd"/><rect x="104.76" y="361.99" width="31.85" height="9.93" transform="translate(-152.8 94.14) rotate(-26.86)" fill="#bdbdbd"/><rect x="126.52" y="345.22" width="3.31" height="9.93" transform="translate(-129.08 80.22) rotate(-23.51)" fill="#bdbdbd"/><rect x="94.39" y="339.56" width="31.54" height="9.93" transform="translate(-112.07 59.14) rotate(-20.18)" fill="#bdbdbd"/><rect x="65.04" y="331.55" width="56.92" height="9.93" transform="translate(-93.55 41.56) rotate(-16.85)" fill="#bdbdbd"/><rect x="115.83" y="312.59" width="1.58" height="9.93" transform="translate(-71.1 36.13) rotate(-13.54)" fill="#bdbdbd"/><rect x="96.59" y="302.84" width="18.13" height="9.93" transform="translate(-53.04 23.69) rotate(-10.24)" fill="#bdbdbd"/><rect x="97.37" y="290.72" width="14.98" height="9.93" transform="translate(-35.04 14.88) rotate(-6.96)" fill="#bdbdbd"/><rect x="54.02" y="280.29" width="56.92" height="9.93" transform="translate(-18.12 5.88) rotate(-3.68)" fill="#bdbdbd"/><rect x="68.66" y="267.04" width="41.47" height="9.93" transform="translate(-1.95 0.65) rotate(-0.41)" fill="#bdbdbd"/><rect x="90.07" y="244.83" width="9.93" height="29.65" transform="translate(-169 341.69) rotate(-87.16)" fill="#bdbdbd"/><rect x="87.52" y="229.07" width="9.93" height="35.95" transform="translate(-162.98 312.83) rotate(-83.92)" fill="#bdbdbd"/><rect x="97.76" y="227.09" width="9.93" height="17.82" transform="translate(-146.79 299.17) rotate(-80.68)" fill="#bdbdbd"/><rect x="78.03" y="188.38" width="9.93" height="61.97" transform="translate(-149.15 252.78) rotate(-77.47)" fill="#8c8c8c"/><rect x="98.15" y="198.38" width="9.93" height="25.86" transform="translate(-128.25 253.23) rotate(-74.26)" fill="#8c8c8c"/><rect x="84.14" y="162.31" width="9.93" height="62.45" transform="translate(-122.87 215.01) rotate(-71.06)" fill="#8c8c8c"/><rect x="91.88" y="154.85" width="9.93" height="55.03" transform="translate(-108.57 203.39) rotate(-67.87)" fill="#8c8c8c"/><rect x="100.3" y="148.42" width="9.93" height="46.99" transform="translate(-95.15 193.61) rotate(-64.7)" fill="#8c8c8c"/><rect x="99.96" y="127.12" width="9.93" height="60.08" transform="translate(-83.25 174.48) rotate(-61.53)" fill="#8c8c8c"/><rect x="108.58" y="119.99" width="9.93" height="54.4" transform="translate(-71.33 166.7) rotate(-58.38)" fill="#8c8c8c"/><rect x="129.73" y="136.33" width="9.93" height="19.39" transform="translate(-62.07 173.42) rotate(-55.24)" fill="#8c8c8c"/><rect x="130.07" y="113.13" width="9.93" height="35.64" transform="translate(-51.25 157.06) rotate(-52.1)" fill="#8c8c8c"/><rect x="149.19" y="128.63" width="9.93" height="5.05" transform="translate(-45.97 161.36) rotate(-48.97)" fill="#8c8c8c"/><rect x="153.56" y="112.04" width="9.93" height="14.35" transform="translate(-37.42 149.97) rotate(-45.86)" fill="#8c8c8c"/><rect x="162.14" y="104.5" width="9.93" height="12.93" transform="translate(-30.92 142.95) rotate(-42.76)" fill="#8c8c8c"/><rect x="161.69" y="70.84" width="9.93" height="41.79" transform="translate(-20.19 127.49) rotate(-39.66)" fill="#8c8c8c"/><rect x="166.26" y="47.59" width="9.93" height="58.66" transform="translate(-12.11 117.2) rotate(-36.58)" fill="#8c8c8c"/><rect x="189.16" y="80.82" width="9.93" height="13.88" transform="translate(-16.18 121.76) rotate(-33.51)" fill="#8c8c8c"/><rect x="194.93" y="59.23" width="9.93" height="29.8" transform="matrix(0.86, -0.51, 0.51, 0.86, -10, 111.51)" fill="#8c8c8c"/><rect x="203.81" y="45.98" width="9.93" height="37.21" transform="translate(-6.31 103.28) rotate(-27.39)" fill="#8c8c8c"/><rect x="216.75" y="48.99" width="9.93" height="28.07" transform="translate(-6.27 97) rotate(-24.34)" fill="#8c8c8c"/><rect x="225.1" y="28.8" width="9.93" height="43.68" transform="translate(-2.67 87.07) rotate(-21.31)" fill="#8c8c8c"/><rect x="241.96" y="55.1" width="9.93" height="11.83" transform="translate(-6.67 80.54) rotate(-18.28)" fill="#8c8c8c"/><rect x="249.04" y="20.73" width="9.93" height="42.89" transform="translate(-2.14 68.37) rotate(-15.27)" fill="#8c8c8c"/><rect x="261.5" y="20.26" width="9.93" height="39.89" transform="translate(-2.46 57.49) rotate(-12.26)" fill="#8c8c8c"/><rect x="276.63" y="53.54" width="9.93" height="3.63" transform="matrix(0.99, -0.16, 0.16, 0.99, -5.24, 46.03)" fill="#8c8c8c"/><rect x="286.73" y="27.06" width="9.93" height="28.22" transform="translate(-2.75 32.1) rotate(-6.27)" fill="#8c8c8c"/><rect x="298.73" y="18.52" width="9.93" height="35.48" transform="translate(-1.58 17.46) rotate(-3.29)" fill="#8c8c8c"/><rect x="311.03" y="6.39" width="9.93" height="46.67" transform="translate(-0.16 1.73) rotate(-0.31)" fill="#8c8c8c"/><rect x="325.73" y="45.48" width="5.2" height="9.93" transform="translate(262.05 375.95) rotate(-87.23)" fill="#8c8c8c"/><rect x="336.13" y="44.59" width="7.88" height="9.93" transform="translate(256.81 382.98) rotate(-84.27)" fill="#8c8c8c"/><rect x="344.02" y="41.21" width="16.87" height="9.93" transform="translate(253.66 387.65) rotate(-81.33)" fill="#8c8c8c"/><rect x="360.63" y="48.82" width="4.73" height="9.93" transform="translate(237.24 398.52) rotate(-78.39)" fill="#8c8c8c"/><rect x="372.7" y="51.91" width="3.15" height="9.93" transform="translate(225.25 404.88) rotate(-75.46)" fill="#8c8c8c"/><rect x="381.99" y="52.2" width="8.51" height="9.93" transform="translate(215.8 408.45) rotate(-72.54)" fill="#e3e3e3"/><rect x="381.32" y="38.41" width="45.1" height="9.93" transform="translate(222.57 406.86) rotate(-69.62)" fill="#e3e3e3"/><rect x="398.36" y="50.49" width="28.23" height="9.93" transform="translate(198.52 412.44) rotate(-66.72)" fill="#e3e3e3"/><rect x="405.75" y="49.12" width="41.94" height="9.93" transform="translate(189.94 413.18) rotate(-63.82)" fill="#e3e3e3"/><rect x="422.7" y="64.05" width="20.34" height="9.93" transform="translate(162.26 413.85) rotate(-60.94)" fill="#e3e3e3"/><rect x="433.76" y="70.81" width="17.82" height="9.93" transform="translate(144.15 411.32) rotate(-58.06)" fill="#e3e3e3"/><rect x="436.37" y="62.69" width="53.14" height="9.93" transform="translate(143.1 409.11) rotate(-55.19)" fill="#e3e3e3"/><rect x="452.13" y="80.3" width="26.81" height="9.93" transform="translate(113.47 401.56) rotate(-52.32)" fill="#e3e3e3"/><rect x="456.88" y="77.24" width="54.56" height="9.93" transform="matrix(0.65, -0.76, 0.76, 0.65, 107.02, 396.75)" fill="#e3e3e3"/><rect x="473.25" y="100.49" width="13.24" height="9.93" transform="translate(73.6 381.75) rotate(-46.61)" fill="#e3e3e3"/><rect x="483.17" y="111.69" width="4.1" height="9.93" transform="translate(54.14 368.09) rotate(-43.77)" fill="#e3e3e3"/><rect x="489.5" y="115.54" width="17.98" height="9.93" transform="translate(42.97 356.13) rotate(-40.94)" fill="#e3e3e3"/><rect x="495.55" y="119.19" width="35.48" height="9.93" transform="translate(32.8 343.27) rotate(-38.11)" fill="#e3e3e3"/><rect x="503.44" y="129.04" width="34.85" height="9.93" transform="translate(18.31 325.58) rotate(-35.3)" fill="#e3e3e3"/><rect x="513.01" y="147.32" width="4.1" height="9.93" transform="matrix(0.84, -0.54, 0.54, 0.84, -1.19, 300.47)" fill="#e3e3e3"/><rect x="518.84" y="155.55" width="10.25" height="9.93" transform="translate(-10.73 280.53) rotate(-29.68)" fill="#e3e3e3"/><rect x="524.68" y="165.15" width="12.77" height="9.93" transform="translate(-19.53 258.54) rotate(-26.89)" fill="#e3e3e3"/><rect x="529.59" y="173.02" width="25.7" height="9.93" transform="translate(-25.4 236.98) rotate(-24.1)" fill="#e3e3e3"/><rect x="533.5" y="178.41" width="56.61" height="9.93" transform="translate(-28.23 216.76) rotate(-21.32)" fill="#e3e3e3"/><rect x="539.19" y="196.38" width="19.24" height="9.93" transform="translate(-35.54 184.97) rotate(-18.54)" fill="#e3e3e3"/><rect x="542.34" y="202.08" width="60.7" height="9.93" transform="translate(-34.72 163.46) rotate(-15.77)" fill="#e3e3e3"/><rect x="546.14" y="216.72" width="42.1" height="9.93" transform="translate(-35.36 133.43) rotate(-13.01)" fill="#e3e3e3"/><rect x="548.81" y="227.32" width="59.6" height="9.93" transform="translate(-32.12 106.77) rotate(-10.26)" fill="#e3e3e3"/><rect x="551.5" y="243.55" width="6.46" height="9.93" transform="translate(-27.72 74.64) rotate(-7.51)" fill="#e3e3e3"/><rect x="553.06" y="255.06" width="6.46" height="9.93" transform="matrix(1, -0.08, 0.08, 1, -19.71, 47.19)" fill="#e3e3e3"/><rect x="554.18" y="266.57" width="9.46" height="9.93" transform="matrix(1, -0.04, 0.04, 1, -9.31, 20.07)" fill="#e3e3e3"/><rect x="562.17" y="270.86" width="9.93" height="24.91" transform="translate(277.06 847.02) rotate(-89.31)" fill="#e3e3e3"/><rect x="564.52" y="280.68" width="9.93" height="29.8" transform="translate(240.6 846.5) rotate(-86.59)" fill="#e3e3e3"/><rect x="560.14" y="296.27" width="9.93" height="22.39" transform="translate(199.15 836.58) rotate(-83.88)" fill="#e3e3e3"/><rect x="548.48" y="317.15" width="9.93" height="1.26" transform="translate(154.53 815.94) rotate(-81.18)" fill="#e3e3e3"/><rect x="547.78" y="327.71" width="9.93" height="3.31" transform="translate(119.58 805.16) rotate(-78.47)" fill="#7f7f7f"/><rect x="552.06" y="334.23" width="9.93" height="16.56" transform="translate(88.21 798.35) rotate(-75.78)" fill="#7f7f7f"/><rect x="557.3" y="339.63" width="9.93" height="33.74" transform="translate(57.7 790.85) rotate(-73.1)" fill="#7f7f7f"/><rect x="549.06" y="354.76" width="9.93" height="23.65" transform="translate(22.98 765.74) rotate(-70.42)" fill="#7f7f7f"/><rect x="543.82" y="367.12" width="9.93" height="20.66" transform="translate(-8.38 742.42) rotate(-67.75)" fill="#7f7f7f"/><rect x="535.79" y="380.38" width="9.93" height="12.93" transform="translate(-37.94 714.23) rotate(-65.08)" fill="#7f7f7f"/><rect x="529.92" y="391.86" width="9.93" height="10.56" transform="translate(-64.78 687.34) rotate(-62.42)" fill="#7f7f7f"/><rect x="539.08" y="393.94" width="9.93" height="44.31" transform="translate(-89.4 676.59) rotate(-59.76)" fill="#7f7f7f"/><rect x="538.37" y="401.74" width="9.93" height="57.71" transform="translate(-113.25 653.12) rotate(-57.12)" fill="#7f7f7f"/><rect x="528.58" y="414.01" width="9.93" height="50.61" transform="translate(-134.03 618.23) rotate(-54.47)" fill="#7f7f7f"/><rect x="504.28" y="432.75" width="9.93" height="7.25" transform="translate(-148.52 567.16) rotate(-51.84)" fill="#7f7f7f"/><rect x="497.89" y="441.58" width="9.93" height="9.3" transform="translate(-163.5 535.42) rotate(-49.21)" fill="#7f7f7f"/><text transform="translate(304.22 224.29)" font-size="14" fill="gray" font-family="Roboto Mono">may</text><text transform="matrix(0.07, 1, -1, 0.07, 380.58, 265.24)" font-size="14" fill="gray" font-family="Roboto Mono">jun</text><text transform="translate(204.81 268.16) rotate(-89.11)" font-size="14" fill="gray" font-family="Roboto Mono">jul</text><text transform="matrix(0.54, 0.84, -0.84, 0.54, 434.44, 204.05)" font-size="14" fill="gray" font-family="Roboto Mono">aug</text><text transform="translate(311.78 443.41) rotate(180)" font-size="14" fill="gray" font-family="Roboto Mono">sep</text><text transform="translate(122.18 233.45) rotate(-70.63)" font-size="14" fill="gray" font-family="Roboto Mono">oct</text><text transform="translate(375.02 71.77) rotate(20.64)" font-size="14" fill="gray" font-family="Roboto Mono">nov</text><text transform="translate(540.59 319.94) rotate(102.76)" font-size="14" fill="gray" font-family="Roboto Mono">dec</text></svg>