<svg enable-background="new 0 0 500 221.3" height="221.3" viewBox="0 0 500 221.3" width="500" xmlns="http://www.w3.org/2000/svg"><path d="m27.4 14.3h466v186.4h-466v-186.4z" fill="none"/><path d="m33.1 168.1h34.2v32.6h-34.2z" fill="#989898"/><path d="m33.1 115.7h34.2v52.4h-34.2z" fill="#cbcbcb"/><path d="m33.1 88.4h34.2v28.2h-34.2z" fill="#e2e2e2"/><path d="m79.2 142.6 34.2-.1.2 58.1-34.2.1z" fill="#989898"/><path d="m79 62.6 34.2-.1.3 80-34.2.1z" fill="#cbcbcb"/><path d="m78.8 27.8 34.2-.1.1 34.8-34.2.1z" fill="#e2e2e2"/><path d="m126.3 109.5h34.2v91.3h-34.2z" fill="#989898"/><path d="m126.3 49.7h34.2v59.7h-34.2z" fill="#cbcbcb"/><path d="m126.3 14.3h34.2v35.4h-34.2z" fill="#e2e2e2"/><path d="m172.9 179.3h34.2v21.4h-34.2z" fill="#989898"/><path d="m172.9 93.6h34.2v85.7h-34.2z" fill="#cbcbcb"/><path d="m172.9 33.6h34.2v60.8h-34.2z" fill="#e2e2e2"/><path d="m219.5 140.1h34.2v60.6h-34.2z" fill="#989898"/><path d="m219.5 84.2h34.2v55.9h-34.2z" fill="#cbcbcb"/><path d="m219.5 52.6h34.2v31.7h-34.2z" fill="#e2e2e2"/><path d="m266.1 172.8h34.2v28h-34.2z" fill="#989898"/><path d="m266.1 115.7h34.2v57.1h-34.2z" fill="#cbcbcb"/><path d="m266.1 74h34.2v42h-34.2z" fill="#e2e2e2"/><path d="m312.7 105.9h34.3v94.9h-34.2v-94.9z" fill="#989898"/><path d="m312.7 48.4h34.3v57.4h-34.2v-57.4z" fill="#cbcbcb"/><path d="m312.7 17h34.3v33.1h-34.2v-33.1z" fill="#e2e2e2"/><path d="m359.3 180.9h34.2v19.8h-34.2z" fill="#989898"/><path d="m359.3 149.5h34.2v31.5h-34.2z" fill="#cbcbcb"/><path d="m359.3 118.4h34.2v31.5h-34.2z" fill="#e2e2e2"/><path d="m405.9 121.5h34.2v79.2h-34.2z" fill="#989898"/><path d="m405.9 102.9h34.2v18.6h-34.2z" fill="#cbcbcb"/><path d="m405.9 84.7h34.2v18.6h-34.2z" fill="#e2e2e2"/><path d="m452.5 147.6h34.2v53.2h-34.2z" fill="#989898"/><path d="m452.5 131.3h34.2v16.3h-34.2z" fill="#cbcbcb"/><path d="m452.5 116.6h34.2v16.3h-34.2z" fill="#e2e2e2"/><g transform="translate(.5 200.5)"><g fill="none" stroke="#888" stroke-width=".932"><path d="m49.8.7v4.6"/><path d="m96.4.7v4.6"/><path d="m143 .7v4.6"/><path d="m189.6.7v4.6"/><path d="m236.2.7v4.6"/><path d="m282.7.7v4.6"/><path d="m329.3.7v4.6"/><path d="m375.9.7v4.6"/><path d="m422.5.7v4.6"/><path d="m469.1.7v4.6"/></g><text fill="#9e9e9e" font-family="'Helvetica'" font-size="9.3197" transform="translate(47.1641 14.6605)">0</text><text fill="#9e9e9e" font-family="'Helvetica'" font-size="9.3197" transform="translate(93.7627 14.6605)">1</text><text fill="#9e9e9e" font-family="'Helvetica'" font-size="9.3197" transform="translate(140.3613 14.6605)">2</text><text fill="#9e9e9e" font-family="'Helvetica'" font-size="9.3197" transform="translate(186.96 14.6605)">3</text><text fill="#9e9e9e" font-family="'Helvetica'" font-size="9.3197" transform="translate(233.5586 14.6605)">4</text><text fill="#9e9e9e" font-family="'Helvetica'" font-size="9.3197" transform="translate(280.1572 14.6605)">5</text><text fill="#9e9e9e" font-family="'Helvetica'" font-size="9.3197" transform="translate(326.7559 14.6605)">6</text><text fill="#9e9e9e" font-family="'Helvetica'" font-size="9.3197" transform="translate(373.3545 14.6605)">7</text><text fill="#9e9e9e" font-family="'Helvetica'" font-size="9.3197" transform="translate(419.9531 14.6605)">8</text><text fill="#9e9e9e" font-family="'Helvetica'" font-size="9.3197" transform="translate(466.5518 14.6605)">9</text><path d="m27.4.7h466" fill="none" stroke="#888" stroke-width=".932"/></g><g transform="translate(.5 .5)"><g fill="none" stroke="#888" stroke-width=".932"><path d="m27.4 200.7h-4.7"/><path d="m27.4 177.4h-4.7"/><path d="m27.4 154.1h-4.7"/><path d="m27.4 130.8h-4.7"/><path d="m27.4 107.5h-4.7"/><path d="m27.4 84.2h-4.7"/><path d="m27.4 60.9h-4.7"/><path d="m27.4 37.6h-4.7"/><path d="m27.4 14.3h-4.7"/></g><text fill="#9e9e9e" font-family="'Helvetica'" font-size="9.3197" transform="translate(15.6816 203.4769)">0</text><text fill="#9e9e9e" font-family="'Helvetica'" font-size="9.3197" transform="translate(10.4985 180.1781)">20</text><text fill="#9e9e9e" font-family="'Helvetica'" font-size="9.3197" transform="translate(10.4985 156.8783)">40</text><text fill="#9e9e9e" font-family="'Helvetica'" font-size="9.3197" transform="translate(10.4985 133.5794)">60</text><text fill="#9e9e9e" font-family="'Helvetica'" font-size="9.3197" transform="translate(10.4985 110.2796)">80</text><text fill="#9e9e9e" font-family="'Helvetica'" font-size="9.3197" transform="translate(5.3154 86.9808)">100</text><text fill="#9e9e9e" font-family="'Helvetica'" font-size="9.3197" transform="translate(5.3154 63.6815)">120</text><text fill="#9e9e9e" font-family="'Helvetica'" font-size="9.3197" transform="translate(5.3154 40.3822)">140</text><text fill="#9e9e9e" font-family="'Helvetica'" font-size="9.3197" transform="translate(5.3154 17.0828)">160</text><path d="m27.4 200.7v-186.4" fill="none" stroke="#888" stroke-width=".932"/></g></svg>