<svg enable-background="new 0 0 650 278.3" height="278.3" viewBox="0 0 650 278.3" width="650" xmlns="http://www.w3.org/2000/svg"><path d="m34 8.4h608.6v243.5h-608.6z" fill="none"/><path d="m41.5 209.3h44.7v42.6h-44.7z" fill="#989898"/><path d="m41.5 140.9h44.7v68.4h-44.7z" fill="#cbcbcb"/><path d="m41.5 105.2h44.7v36.8h-44.7z" fill="#e2e2e2"/><path d="m101.7 176 44.7-.1.3 75.9-44.7.1z" fill="#989898"/><path d="m101.4 71.5 44.7-.1.4 104.5-44.7.1z" fill="#cbcbcb"/><path d="m101.1 26.1 44.7-.1.1 45.5-44.7.1z" fill="#e2e2e2"/><path d="m163.2 132.8h44.7v119.2h-44.7z" fill="#989898"/><path d="m163.2 54.7h44.7v78h-44.7z" fill="#cbcbcb"/><path d="m163.2 8.4h44.7v46.2h-44.7z" fill="#e2e2e2"/><path d="m224 224h44.7v28h-44.7z" fill="#989898"/><path d="m224 112h44.7v112h-44.7z" fill="#cbcbcb"/><path d="m224 33.7h44.7v79.4h-44.7z" fill="#e2e2e2"/><path d="m284.9 172.8h44.7v79.1h-44.7z" fill="#989898"/><path d="m284.9 99.7h44.7v73h-44.7z" fill="#cbcbcb"/><path d="m284.9 58.5h44.7v41.4h-44.7z" fill="#e2e2e2"/><path d="m345.8 215.5h44.7v36.5h-44.7z" fill="#989898"/><path d="m345.8 140.9h44.7v74.6h-44.7z" fill="#cbcbcb"/><path d="m345.8 86.4h44.7v54.9h-44.7z" fill="#e2e2e2"/><path d="m406.6 128.1h44.8v123.9h-44.7v-123.9z" fill="#989898"/><path d="m406.6 53h44.8v75h-44.7v-75z" fill="#cbcbcb"/><path d="m406.6 12h44.8v43.2h-44.7v-43.2z" fill="#e2e2e2"/><path d="m467.5 226h44.7v25.9h-44.7z" fill="#989898"/><path d="m467.5 185h44.7v41.1h-44.7z" fill="#cbcbcb"/><path d="m467.5 144.4h44.7v41.1h-44.7z" fill="#e2e2e2"/><path d="m528.4 148.5h44.6v103.4h-44.7v-103.4z" fill="#989898"/><path d="m528.4 124.2h44.6v24.3h-44.7v-24.3z" fill="#cbcbcb"/><path d="m528.4 100.4h44.6v24.3h-44.7v-24.3z" fill="#e2e2e2"/><path d="m589.2 182.5h44.7v69.5h-44.7z" fill="#989898"/><path d="m589.2 161.3h44.7v21.3h-44.7z" fill="#cbcbcb"/><path d="m589.2 142.1h44.7v21.3h-44.7z" fill="#e2e2e2"/><g transform="translate(.5 200.5)"><g fill="none" stroke="#888" stroke-width="1.2173"><path d="m63.4 52.1v6"/><path d="m124.3 52.1v6"/><path d="m185.1 52.1v6"/><path d="m246 52.1v6"/><path d="m306.9 52.1v6"/><path d="m367.6 52.1v6"/><path d="m428.5 52.1v6"/><path d="m489.3 52.1v6"/><path d="m550.2 52.1v6"/><path d="m611.1 52.1v6"/></g><text fill="#9e9e9e" font-family="'Helvetica'" font-size="12.1725" transform="translate(59.9746 70.289)">0</text><text fill="#9e9e9e" font-family="'Helvetica'" font-size="12.1725" transform="translate(120.8369 70.289)">1</text><text fill="#9e9e9e" font-family="'Helvetica'" font-size="12.1725" transform="translate(181.6997 70.289)">2</text><text fill="#9e9e9e" font-family="'Helvetica'" font-size="12.1725" transform="translate(242.5625 70.289)">3</text><text fill="#9e9e9e" font-family="'Helvetica'" font-size="12.1725" transform="translate(303.4248 70.289)">4</text><text fill="#9e9e9e" font-family="'Helvetica'" font-size="12.1725" transform="translate(364.2871 70.289)">5</text><text fill="#9e9e9e" font-family="'Helvetica'" font-size="12.1725" transform="translate(425.1494 70.289)">6</text><text fill="#9e9e9e" font-family="'Helvetica'" font-size="12.1725" transform="translate(486.0117 70.289)">7</text><text fill="#9e9e9e" font-family="'Helvetica'" font-size="12.1725" transform="translate(546.875 70.289)">8</text><text fill="#9e9e9e" font-family="'Helvetica'" font-size="12.1725" transform="translate(607.7373 70.289)">9</text><path d="m34.2 52.1h608.6" fill="none" stroke="#888" stroke-width="1.2173"/></g><g transform="translate(.5 .5)"><g fill="none" stroke="#888" stroke-width="1.2173"><path d="m34.2 252.1h-6.2"/><path d="m34.2 221.6h-6.2"/><path d="m34.2 191.2h-6.2"/><path d="m34.2 160.8h-6.2"/><path d="m34.2 130.3h-6.2"/><path d="m34.2 99.9h-6.2"/><path d="m34.2 69.5h-6.2"/><path d="m34.2 39h-6.2"/><path d="m34.2 8.6h-6.2"/></g><text fill="#9e9e9e" font-family="'Helvetica'" font-size="12.1725" transform="translate(18.8555 255.6816)">0</text><text fill="#9e9e9e" font-family="'Helvetica'" font-size="12.1725" transform="translate(12.0859 225.251)">20</text><text fill="#9e9e9e" font-family="'Helvetica'" font-size="12.1725" transform="translate(12.0859 194.8193)">40</text><text fill="#9e9e9e" font-family="'Helvetica'" font-size="12.1725" transform="translate(12.0859 164.3887)">60</text><text fill="#9e9e9e" font-family="'Helvetica'" font-size="12.1725" transform="translate(12.0859 133.9565)">80</text><text fill="#9e9e9e" font-family="'Helvetica'" font-size="12.1725" transform="translate(5.3164 103.5264)">100</text><text fill="#9e9e9e" font-family="'Helvetica'" font-size="12.1725" transform="translate(5.3164 73.0947)">120</text><text fill="#9e9e9e" font-family="'Helvetica'" font-size="12.1725" transform="translate(5.3164 42.6636)">140</text><text fill="#9e9e9e" font-family="'Helvetica'" font-size="12.1725" transform="translate(5.3164 12.2324)">160</text><path d="m34.2 252.1v-243.5" fill="none" stroke="#888" stroke-width="1.2173"/></g></svg>