<svg height="256" viewBox="0 0 256 256" width="256" xmlns="http://www.w3.org/2000/svg"><path d="m154.9 174.2h34.5v40.4h-12.7v2.8h28.7v-2.7h-13.2v-40.5h32.2a2 2 0 0 0 2-1.9v-57.2a1.9 1.9 0 0 0 -.9-1.6l-14-9.1 13.9-8.4a1.9 1.9 0 0 0 1-1.7v-55.5a2 2 0 0 0 -2-2h-32.8v-16.8h12.7v-2.8h-28.7v2.8h13.3v16.8h-34a2 2 0 0 0 -1.9 2v55.5a1.9 1.9 0 0 0 .9 1.7l13.5 8.4-13.6 9.1a2.1 2.1 0 0 0 -.8 1.6v57.2a2 2 0 0 0 1.9 1.9zm2-58 14.4-9.7h36.2l15 9.7v54.1h-65.6zm-111.9 72.2h34.4v44.3h-12.7v2.8h28.8v-2.8h-13.3v-44.3h32.3a2 2 0 0 0 1.9-2v-42.1a2 2 0 0 0 -.9-1.7l-13.9-9 13.9-8.4a2 2 0 0 0 .9-1.7v-15.4a1.9 1.9 0 0 0 -1.9-1.9h-32.9v-49.9h12.8v-2.8h-28.8v2.8h13.3v49.9h-33.9a1.9 1.9 0 0 0 -2 1.9v15.4a2 2 0 0 0 .9 1.7l13.5 8.4-13.5 9.1a1.7 1.7 0 0 0 -.9 1.6v42.1a2 2 0 0 0 2 2zm1.9-43.1 14.4-9.7h36.3l14.9 9.8v39.1h-65.6z"/></svg>