<svg enable-background="new 0 0 256 256" height="256" viewBox="0 0 256 256" width="256" xmlns="http://www.w3.org/2000/svg"><path d="m175.8 73.2c14.4-8 30.6-12.2 47.1-12.2h31.1v-59h-32.8c-17.1 0-33.8 4.9-48.3 14l-68.5 43.5-22-31c-11.4-15.9-29.5-25.7-48.9-26.4v-.1h-31.5v63h29c14.4 0 28.1 5.9 38 16-11.1 5-23.2 7.6-35.5 7.6h-31.5v165.4h34.3c16.7 0 33-4.8 47-13.7l68.6-43.8 22.1 31.1c11.2 15.8 29.2 25.5 48.4 26.4v.1h31.6v-63h-28.6c-14.5 0-28.3-6-38.2-16.2 10.4-4.8 21.8-7.4 33.5-7.4h33.3v-82.8h-32.8c-17 0-33.8 2.5-49.9 7.6l-35.7 11.1-4-5.6zm2.4-48.8c12.9-8.2 27.8-12.5 43-12.5h1.3v39.4c-18 .1-35.8 4.7-51.5 13.4l-45.1 25-15.7-22.1zm-102.8 64.5 14.7 20.7-9.8 5.4c-14.2 7.9-30.2 12-46.4 12h-.4v-28.5c14.6 0 28.9-3.3 41.9-9.6zm2.7 143.1c-12.5 8-26.9 12.2-41.7 12.2h-2.8v-107.3h.4 4.5c14.9 0 29.7-2.2 43.9-6.7l18.5-5.7 45.5 63.9zm144.4-31.2v43.3c-16.1-.9-31-9.1-40.4-22.3l-99.7-140.2c-11.4-15.9-29.5-25.6-48.9-26.4v-43.3c16.2.8 31.4 9 40.8 22.3l99.7 140.2c11.3 15.8 29.2 25.5 48.5 26.4zm-48.3-99.1c15.2-4.7 31.1-7.1 47-7.1h1.3v63h-1.9c-13.9 0-27.5 3.2-39.8 9.4l-39.2-55.1z"/></svg>