<?xml version="1.0" encoding="utf-8"?>
<!-- Generator: Adobe Illustrator 22.1.0, SVG Export Plug-In . SVG Version: 6.00 Build 0)  -->
<svg version="1.1" id="Layer_1" xmlns="http://www.w3.org/2000/svg" xmlns:xlink="http://www.w3.org/1999/xlink" x="0px" y="0px"
	 viewBox="0 0 1438.9 1016.9" style="enable-background:new 0 0 1438.9 1016.9;" xml:space="preserve">
<style type="text/css">
	.st0{fill:#909090;}
	.st1{fill:#BCBCBC;}
	.st2{fill:#DDDDDD;}
	.st3{fill:#514361;}
	.st4{font-family:'RobotoMono-Regular';}
	.st5{font-size:40px;}
	.st6{fill:none;stroke:#AFAFAF;stroke-width:4;stroke-linecap:round;stroke-miterlimit:10;stroke-dasharray:0,9.9536;}
	.st7{fill:none;stroke:#AFAFAF;stroke-width:4;stroke-linecap:round;stroke-miterlimit:10;}
	.st8{fill:none;stroke:#AFAFAF;stroke-width:4;stroke-linecap:round;stroke-miterlimit:10;stroke-dasharray:0,10.4193;}
	.st9{fill:none;stroke:#AFAFAF;stroke-width:4;stroke-linecap:round;stroke-miterlimit:10;stroke-dasharray:0,9.7483;}
	.st10{fill:none;stroke:#AFAFAF;stroke-width:4;stroke-linecap:round;stroke-miterlimit:10;stroke-dasharray:0,9.8682;}
</style>
<g>
	<path class="st0" d="M62.9,142.2c0,8.7,7.1,15.8,15.8,15.8s15.8-7.1,15.8-15.8c0-8.7-7.1-15.8-15.8-15.8
		C70,126.4,62.9,133.5,62.9,142.2z M118.7,181.9v48.4c0,3.9-3,6.9-6.9,6.9c-3.9,0-6.9-3.2-6.9-6.9v-44.5c0-1.1-0.9-2-2-2s-2,0.9-2,2
		v119.8c0,5.9-4.4,10.8-9.9,10.8s-9.9-4.9-9.9-10.8v-68.3c0-1.1-0.9-2-2-2s-2,0.9-2,2v68.3c0,5.9-4.4,10.8-9.9,10.8
		s-9.9-4.9-9.9-10.8V185.8c0-1.1-0.9-2-2-2s-2,0.9-2,2v44.4c0,3.9-3,6.9-6.9,6.9c-3.9,0-6.9-3.2-6.9-6.9v-48.3
		c0-11,8.8-19.8,19.8-19.8h39.5C109.4,162.1,118.4,170.9,118.7,181.9z"/>
	<path class="st0" d="M185.4,142.2c0,8.7,7.1,15.8,15.8,15.8s15.8-7.1,15.8-15.8c0-8.7-7.1-15.8-15.8-15.8S185.4,133.5,185.4,142.2z
		 M241.2,181.9v48.4c0,3.9-3,6.9-6.9,6.9s-6.9-3.2-6.9-6.9v-44.5c0-1.1-0.9-2-2-2s-2,0.9-2,2v119.8c0,5.9-4.4,10.8-9.9,10.8
		c-5.5,0-9.9-4.9-9.9-10.8v-68.3c0-1.1-0.9-2-2-2s-2,0.9-2,2v68.3c0,5.9-4.4,10.8-9.9,10.8s-9.9-4.9-9.9-10.8V185.8c0-1.1-0.9-2-2-2
		s-2,0.9-2,2v44.4c0,3.9-3,6.9-6.9,6.9s-6.9-3.2-6.9-6.9v-48.3c0-11,8.8-19.8,19.8-19.8h39.5C231.8,162.1,240.9,170.9,241.2,181.9z"
		/>
	<path class="st0" d="M307.8,142.2c0,8.7,7.1,15.8,15.8,15.8s15.8-7.1,15.8-15.8c0-8.7-7.1-15.8-15.8-15.8S307.8,133.5,307.8,142.2z
		 M363.6,181.9v48.4c0,3.9-3,6.9-6.9,6.9s-6.9-3.2-6.9-6.9v-44.5c0-1.1-0.9-2-2-2s-2,0.9-2,2v119.8c0,5.9-4.4,10.8-9.9,10.8
		c-5.5,0-9.9-4.9-9.9-10.8v-68.3c0-1.1-0.9-2-2-2s-2,0.9-2,2v68.3c0,5.9-4.4,10.8-9.9,10.8s-9.9-4.9-9.9-10.8V185.8c0-1.1-0.9-2-2-2
		s-2,0.9-2,2v44.4c0,3.9-3,6.9-6.9,6.9s-6.9-3.2-6.9-6.9v-48.3c0-11,8.8-19.8,19.8-19.8h39.5C354.3,162.1,363.3,170.9,363.6,181.9z"
		/>
	<path class="st0" d="M430.3,142.2c0,8.7,7.1,15.8,15.8,15.8s15.8-7.1,15.8-15.8c0-8.7-7.1-15.8-15.8-15.8S430.3,133.5,430.3,142.2z
		 M486.1,181.9v48.4c0,3.9-3,6.9-6.9,6.9s-6.9-3.2-6.9-6.9v-44.5c0-1.1-0.9-2-2-2s-2,0.9-2,2v119.8c0,5.9-4.4,10.8-9.9,10.8
		s-9.9-4.9-9.9-10.8v-68.3c0-1.1-0.9-2-2-2s-2,0.9-2,2v68.3c0,5.9-4.4,10.8-9.9,10.8s-9.9-4.9-9.9-10.8V185.8c0-1.1-0.9-2-2-2
		s-2,0.9-2,2v44.4c0,3.9-3,6.9-6.9,6.9s-6.9-3.2-6.9-6.9v-48.3c0-11,8.8-19.8,19.8-19.8H466C476.7,162.1,485.8,170.9,486.1,181.9z"
		/>
	<path class="st0" d="M552.7,142.2c0,8.7,7.1,15.8,15.8,15.8s15.8-7.1,15.8-15.8c0-8.7-7.1-15.8-15.8-15.8
		C559.8,126.4,552.7,133.5,552.7,142.2z M608.5,181.9v48.4c0,3.9-3,6.9-6.9,6.9s-6.9-3.2-6.9-6.9v-44.5c0-1.1-0.9-2-2-2s-2,0.9-2,2
		v119.8c0,5.9-4.4,10.8-9.9,10.8s-9.9-4.9-9.9-10.8v-68.3c0-1.1-0.9-2-2-2s-2,0.9-2,2v68.3c0,5.9-4.4,10.8-9.9,10.8
		s-9.9-4.9-9.9-10.8V185.8c0-1.1-0.9-2-2-2s-2,0.9-2,2v44.4c0,3.9-3,6.9-6.9,6.9s-6.9-3.2-6.9-6.9v-48.3c0-11,8.8-19.8,19.8-19.8
		h39.5C599.2,162.1,608.2,170.9,608.5,181.9z"/>
	<path class="st0" d="M62.9,369c0,8.7,7.1,15.8,15.8,15.8s15.8-7.1,15.8-15.8s-7.1-15.8-15.8-15.8C70,353.2,62.9,360.3,62.9,369z
		 M118.7,408.7v48.4c0,3.9-3,6.9-6.9,6.9c-3.9,0-6.9-3.2-6.9-6.9v-44.5c0-1.1-0.9-2-2-2s-2,0.9-2,2v119.8c0,5.9-4.4,10.8-9.9,10.8
		s-9.9-4.9-9.9-10.8v-68.3c0-1.1-0.9-2-2-2s-2,0.9-2,2v68.3c0,5.9-4.4,10.8-9.9,10.8s-9.9-4.9-9.9-10.8V412.6c0-1.1-0.9-2-2-2
		s-2,0.9-2,2V457c0,3.9-3,6.9-6.9,6.9c-3.9,0-6.9-3.2-6.9-6.9v-48.3c0-11,8.8-19.8,19.8-19.8h39.5
		C109.4,388.9,118.4,397.7,118.7,408.7z"/>
	<path class="st0" d="M185.4,369c0,8.7,7.1,15.8,15.8,15.8S217,377.7,217,369s-7.1-15.8-15.8-15.8S185.4,360.3,185.4,369z
		 M241.2,408.7v48.4c0,3.9-3,6.9-6.9,6.9s-6.9-3.2-6.9-6.9v-44.5c0-1.1-0.9-2-2-2s-2,0.9-2,2v119.8c0,5.9-4.4,10.8-9.9,10.8
		c-5.5,0-9.9-4.9-9.9-10.8v-68.3c0-1.1-0.9-2-2-2s-2,0.9-2,2v68.3c0,5.9-4.4,10.8-9.9,10.8s-9.9-4.9-9.9-10.8V412.6c0-1.1-0.9-2-2-2
		s-2,0.9-2,2V457c0,3.9-3,6.9-6.9,6.9s-6.9-3.2-6.9-6.9v-48.3c0-11,8.8-19.8,19.8-19.8h39.5C231.8,388.9,240.9,397.7,241.2,408.7z"
		/>
	<path class="st0" d="M307.8,369c0,8.7,7.1,15.8,15.8,15.8s15.8-7.1,15.8-15.8s-7.1-15.8-15.8-15.8S307.8,360.3,307.8,369z
		 M363.6,408.7v48.4c0,3.9-3,6.9-6.9,6.9s-6.9-3.2-6.9-6.9v-44.5c0-1.1-0.9-2-2-2s-2,0.9-2,2v119.8c0,5.9-4.4,10.8-9.9,10.8
		c-5.5,0-9.9-4.9-9.9-10.8v-68.3c0-1.1-0.9-2-2-2s-2,0.9-2,2v68.3c0,5.9-4.4,10.8-9.9,10.8s-9.9-4.9-9.9-10.8V412.6c0-1.1-0.9-2-2-2
		s-2,0.9-2,2V457c0,3.9-3,6.9-6.9,6.9s-6.9-3.2-6.9-6.9v-48.3c0-11,8.8-19.8,19.8-19.8h39.5C354.3,388.9,363.3,397.7,363.6,408.7z"
		/>
	<path class="st0" d="M430.3,369c0,8.7,7.1,15.8,15.8,15.8s15.8-7.1,15.8-15.8s-7.1-15.8-15.8-15.8S430.3,360.3,430.3,369z
		 M486.1,408.7v48.4c0,3.9-3,6.9-6.9,6.9s-6.9-3.2-6.9-6.9v-44.5c0-1.1-0.9-2-2-2s-2,0.9-2,2v119.8c0,5.9-4.4,10.8-9.9,10.8
		s-9.9-4.9-9.9-10.8v-68.3c0-1.1-0.9-2-2-2s-2,0.9-2,2v68.3c0,5.9-4.4,10.8-9.9,10.8s-9.9-4.9-9.9-10.8V412.6c0-1.1-0.9-2-2-2
		s-2,0.9-2,2V457c0,3.9-3,6.9-6.9,6.9s-6.9-3.2-6.9-6.9v-48.3c0-11,8.8-19.8,19.8-19.8H466C476.7,388.9,485.8,397.7,486.1,408.7z"/>
	<path class="st1" d="M552.7,369c0,8.7,7.1,15.8,15.8,15.8s15.8-7.1,15.8-15.8s-7.1-15.8-15.8-15.8
		C559.8,353.2,552.7,360.3,552.7,369z M608.5,408.7v48.4c0,3.9-3,6.9-6.9,6.9s-6.9-3.2-6.9-6.9v-44.5c0-1.1-0.9-2-2-2s-2,0.9-2,2
		v119.8c0,5.9-4.4,10.8-9.9,10.8s-9.9-4.9-9.9-10.8v-68.3c0-1.1-0.9-2-2-2s-2,0.9-2,2v68.3c0,5.9-4.4,10.8-9.9,10.8
		s-9.9-4.9-9.9-10.8V412.6c0-1.1-0.9-2-2-2s-2,0.9-2,2V457c0,3.9-3,6.9-6.9,6.9s-6.9-3.2-6.9-6.9v-48.3c0-11,8.8-19.8,19.8-19.8
		h39.5C599.2,388.9,608.2,397.7,608.5,408.7z"/>
	<path class="st0" d="M679.2,142.2c0,8.7,7.1,15.8,15.8,15.8c8.7,0,15.8-7.1,15.8-15.8c0-8.7-7.1-15.8-15.8-15.8
		C686.3,126.4,679.2,133.5,679.2,142.2z M735,181.9v48.4c0,3.9-3,6.9-6.9,6.9s-6.9-3.2-6.9-6.9v-44.5c0-1.1-0.9-2-2-2s-2,0.9-2,2
		v119.8c0,5.9-4.4,10.8-9.9,10.8c-5.5,0-9.9-4.9-9.9-10.8v-68.3c0-1.1-0.9-2-2-2s-2,0.9-2,2v68.3c0,5.9-4.4,10.8-9.9,10.8
		c-5.5,0-9.9-4.9-9.9-10.8V185.8c0-1.1-0.9-2-2-2s-2,0.9-2,2v44.4c0,3.9-3,6.9-6.9,6.9s-6.9-3.2-6.9-6.9v-48.3
		c0-11,8.8-19.8,19.8-19.8h39.5C725.6,162.1,734.7,170.9,735,181.9z"/>
	<path class="st0" d="M801.6,142.2c0,8.7,7.1,15.8,15.8,15.8s15.8-7.1,15.8-15.8c0-8.7-7.1-15.8-15.8-15.8S801.6,133.5,801.6,142.2z
		 M857.4,181.9v48.4c0,3.9-3,6.9-6.9,6.9s-6.9-3.2-6.9-6.9v-44.5c0-1.1-0.9-2-2-2s-2,0.9-2,2v119.8c0,5.9-4.4,10.8-9.9,10.8
		c-5.5,0-9.9-4.9-9.9-10.8v-68.3c0-1.1-0.9-2-2-2s-2,0.9-2,2v68.3c0,5.9-4.4,10.8-9.9,10.8s-9.9-4.9-9.9-10.8V185.8c0-1.1-0.9-2-2-2
		s-2,0.9-2,2v44.4c0,3.9-3,6.9-6.9,6.9s-6.9-3.2-6.9-6.9v-48.3c0-11,8.8-19.8,19.8-19.8h39.5C848.1,162.1,857.1,170.9,857.4,181.9z"
		/>
	<path class="st0" d="M924.1,142.2c0,8.7,7.1,15.8,15.8,15.8s15.8-7.1,15.8-15.8c0-8.7-7.1-15.8-15.8-15.8S924.1,133.5,924.1,142.2z
		 M979.9,181.9v48.4c0,3.9-3,6.9-6.9,6.9s-6.9-3.2-6.9-6.9v-44.5c0-1.1-0.9-2-2-2s-2,0.9-2,2v119.8c0,5.9-4.4,10.8-9.9,10.8
		c-5.5,0-9.9-4.9-9.9-10.8v-68.3c0-1.1-0.9-2-2-2s-2,0.9-2,2v68.3c0,5.9-4.4,10.8-9.9,10.8s-9.9-4.9-9.9-10.8V185.8c0-1.1-0.9-2-2-2
		s-2,0.9-2,2v44.4c0,3.9-3,6.9-6.9,6.9s-6.9-3.2-6.9-6.9v-48.3c0-11,8.8-19.8,19.8-19.8h39.5C970.5,162.1,979.6,170.9,979.9,181.9z"
		/>
	<path class="st0" d="M1046.5,142.2c0,8.7,7.1,15.8,15.8,15.8c8.7,0,15.8-7.1,15.8-15.8c0-8.7-7.1-15.8-15.8-15.8
		C1053.6,126.4,1046.5,133.5,1046.5,142.2z M1102.3,181.9v48.4c0,3.9-3,6.9-6.9,6.9s-6.9-3.2-6.9-6.9v-44.5c0-1.1-0.9-2-2-2
		c-1.1,0-2,0.9-2,2v119.8c0,5.9-4.4,10.8-9.9,10.8s-9.9-4.9-9.9-10.8v-68.3c0-1.1-0.9-2-2-2c-1.1,0-2,0.9-2,2v68.3
		c0,5.9-4.4,10.8-9.9,10.8s-9.9-4.9-9.9-10.8V185.8c0-1.1-0.9-2-2-2c-1.1,0-2,0.9-2,2v44.4c0,3.9-3,6.9-6.9,6.9s-6.9-3.2-6.9-6.9
		v-48.3c0-11,8.8-19.8,19.8-19.8h39.5C1093,162.1,1102,170.9,1102.3,181.9z"/>
	<path class="st0" d="M1169,142.2c0,8.7,7.1,15.8,15.8,15.8c8.7,0,15.8-7.1,15.8-15.8c0-8.7-7.1-15.8-15.8-15.8
		C1176.1,126.4,1169,133.5,1169,142.2z M1224.8,181.9v48.4c0,3.9-3,6.9-6.9,6.9s-6.9-3.2-6.9-6.9v-44.5c0-1.1-0.9-2-2-2
		c-1.1,0-2,0.9-2,2v119.8c0,5.9-4.4,10.8-9.9,10.8s-9.9-4.9-9.9-10.8v-68.3c0-1.1-0.9-2-2-2c-1.1,0-2,0.9-2,2v68.3
		c0,5.9-4.4,10.8-9.9,10.8s-9.9-4.9-9.9-10.8V185.8c0-1.1-0.9-2-2-2c-1.1,0-2,0.9-2,2v44.4c0,3.9-3,6.9-6.9,6.9s-6.9-3.2-6.9-6.9
		v-48.3c0-11,8.8-19.8,19.8-19.8h39.5C1215.4,162.1,1224.5,170.9,1224.8,181.9z"/>
	<path class="st1" d="M679.2,369c0,8.7,7.1,15.8,15.8,15.8c8.7,0,15.8-7.1,15.8-15.8s-7.1-15.8-15.8-15.8
		C686.3,353.2,679.2,360.3,679.2,369z M735,408.7v48.4c0,3.9-3,6.9-6.9,6.9s-6.9-3.2-6.9-6.9v-44.5c0-1.1-0.9-2-2-2s-2,0.9-2,2
		v119.8c0,5.9-4.4,10.8-9.9,10.8c-5.5,0-9.9-4.9-9.9-10.8v-68.3c0-1.1-0.9-2-2-2s-2,0.9-2,2v68.3c0,5.9-4.4,10.8-9.9,10.8
		c-5.5,0-9.9-4.9-9.9-10.8V412.6c0-1.1-0.9-2-2-2s-2,0.9-2,2V457c0,3.9-3,6.9-6.9,6.9s-6.9-3.2-6.9-6.9v-48.3
		c0-11,8.8-19.8,19.8-19.8h39.5C725.6,388.9,734.7,397.7,735,408.7z"/>
	<path class="st1" d="M801.6,369c0,8.7,7.1,15.8,15.8,15.8s15.8-7.1,15.8-15.8s-7.1-15.8-15.8-15.8S801.6,360.3,801.6,369z
		 M857.4,408.7v48.4c0,3.9-3,6.9-6.9,6.9s-6.9-3.2-6.9-6.9v-44.5c0-1.1-0.9-2-2-2s-2,0.9-2,2v119.8c0,5.9-4.4,10.8-9.9,10.8
		c-5.5,0-9.9-4.9-9.9-10.8v-68.3c0-1.1-0.9-2-2-2s-2,0.9-2,2v68.3c0,5.9-4.4,10.8-9.9,10.8s-9.9-4.9-9.9-10.8V412.6c0-1.1-0.9-2-2-2
		s-2,0.9-2,2V457c0,3.9-3,6.9-6.9,6.9s-6.9-3.2-6.9-6.9v-48.3c0-11,8.8-19.8,19.8-19.8h39.5C848.1,388.9,857.1,397.7,857.4,408.7z"
		/>
	<path class="st1" d="M924.1,369c0,8.7,7.1,15.8,15.8,15.8s15.8-7.1,15.8-15.8s-7.1-15.8-15.8-15.8S924.1,360.3,924.1,369z
		 M979.9,408.7v48.4c0,3.9-3,6.9-6.9,6.9s-6.9-3.2-6.9-6.9v-44.5c0-1.1-0.9-2-2-2s-2,0.9-2,2v119.8c0,5.9-4.4,10.8-9.9,10.8
		c-5.5,0-9.9-4.9-9.9-10.8v-68.3c0-1.1-0.9-2-2-2s-2,0.9-2,2v68.3c0,5.9-4.4,10.8-9.9,10.8s-9.9-4.9-9.9-10.8V412.6c0-1.1-0.9-2-2-2
		s-2,0.9-2,2V457c0,3.9-3,6.9-6.9,6.9s-6.9-3.2-6.9-6.9v-48.3c0-11,8.8-19.8,19.8-19.8h39.5C970.5,388.9,979.6,397.7,979.9,408.7z"
		/>
	<path class="st1" d="M1046.5,369c0,8.7,7.1,15.8,15.8,15.8c8.7,0,15.8-7.1,15.8-15.8s-7.1-15.8-15.8-15.8
		C1053.6,353.2,1046.5,360.3,1046.5,369z M1102.3,408.7v48.4c0,3.9-3,6.9-6.9,6.9s-6.9-3.2-6.9-6.9v-44.5c0-1.1-0.9-2-2-2
		c-1.1,0-2,0.9-2,2v119.8c0,5.9-4.4,10.8-9.9,10.8s-9.9-4.9-9.9-10.8v-68.3c0-1.1-0.9-2-2-2c-1.1,0-2,0.9-2,2v68.3
		c0,5.9-4.4,10.8-9.9,10.8s-9.9-4.9-9.9-10.8V412.6c0-1.1-0.9-2-2-2c-1.1,0-2,0.9-2,2V457c0,3.9-3,6.9-6.9,6.9s-6.9-3.2-6.9-6.9
		v-48.3c0-11,8.8-19.8,19.8-19.8h39.5C1093,388.9,1102,397.7,1102.3,408.7z"/>
	<path class="st2" d="M1169,369c0,8.7,7.1,15.8,15.8,15.8c8.7,0,15.8-7.1,15.8-15.8s-7.1-15.8-15.8-15.8
		C1176.1,353.2,1169,360.3,1169,369z M1224.8,408.7v48.4c0,3.9-3,6.9-6.9,6.9s-6.9-3.2-6.9-6.9v-44.5c0-1.1-0.9-2-2-2
		c-1.1,0-2,0.9-2,2v119.8c0,5.9-4.4,10.8-9.9,10.8s-9.9-4.9-9.9-10.8v-68.3c0-1.1-0.9-2-2-2c-1.1,0-2,0.9-2,2v68.3
		c0,5.9-4.4,10.8-9.9,10.8s-9.9-4.9-9.9-10.8V412.6c0-1.1-0.9-2-2-2c-1.1,0-2,0.9-2,2V457c0,3.9-3,6.9-6.9,6.9s-6.9-3.2-6.9-6.9
		v-48.3c0-11,8.8-19.8,19.8-19.8h39.5C1215.4,388.9,1224.5,397.7,1224.8,408.7z"/>
	<path class="st0" d="M502.4,782.1c0,6.1,4.9,11,11,11c6.1,0,11-4.9,11-11s-4.9-11-11-11C507.4,771.1,502.4,776.1,502.4,782.1z
		 M541.2,809.7v33.6c0,2.7-2.1,4.8-4.8,4.8s-4.8-2.2-4.8-4.8v-30.9c0-0.8-0.6-1.4-1.4-1.4s-1.4,0.6-1.4,1.4v83.2
		c0,4.1-3.1,7.5-6.9,7.5c-3.8,0-6.9-3.4-6.9-7.5v-47.5c0-0.8-0.6-1.4-1.4-1.4c-0.8,0-1.4,0.6-1.4,1.4v47.5c0,4.1-3.1,7.5-6.9,7.5
		c-3.8,0-6.9-3.4-6.9-7.5v-83.2c0-0.8-0.6-1.4-1.4-1.4s-1.4,0.6-1.4,1.4v30.8c0,2.7-2.1,4.8-4.8,4.8s-4.8-2.2-4.8-4.8v-33.6
		c0-7.6,6.1-13.7,13.7-13.7h27.5C534.7,796,541,802.1,541.2,809.7z"/>
	<g>
		<g>
			<text transform="matrix(1 0 0 1 1015.3713 862.6769)" class="st3 st4 st5">legend</text>
		</g>
	</g>
	<g>
		<g>
			<text transform="matrix(1 0 0 1 600.5875 858.5146)" class="st3 st4 st5">= 100 people</text>
		</g>
	</g>
	<g>
		<g>
			<text transform="matrix(1 0 0 1 170.1099 813.9078)" class="st3 st4 st5">category A</text>
		</g>
	</g>
	<g>
		<g>
			<text transform="matrix(1 0 0 1 170.1099 884.4043)" class="st3 st4 st5">category B</text>
		</g>
	</g>
	<g>
		<g>
			<text transform="matrix(1 0 0 1 153.1921 61.6434)" class="st3 st4 st5">icon</text>
		</g>
	</g>
	<line class="st6" x1="201.2" y1="118.4" x2="201.2" y2="85.4"/>
	<g>
		<g>
			<text transform="matrix(1 0 0 1 1089.5806 623.861)" class="st3 st4 st5">fraction</text>
		</g>
	</g>
	<line class="st6" x1="1185.6" y1="583.1" x2="1185.6" y2="550.1"/>
</g>
<g>
	<g>
		<text transform="matrix(1 0 0 1 1674.7896 48.8339)" class="st3 st4 st5">negative</text>
		<text transform="matrix(1 0 0 1 1327.5608 346.147)" class="st3 st4 st5">100%</text>
	</g>
</g>
<g>
	<g>
		<line class="st7" x1="919.8" y1="758.4" x2="919.8" y2="758.4"/>
		<line class="st8" x1="930.2" y1="758.4" x2="945.8" y2="758.4"/>
		<line class="st7" x1="951" y1="758.4" x2="951" y2="758.4"/>
		<line class="st9" x1="951" y1="768.1" x2="951" y2="938.7"/>
		<line class="st7" x1="951" y1="943.6" x2="951" y2="943.6"/>
		<line class="st8" x1="940.6" y1="943.6" x2="925" y2="943.6"/>
		<line class="st7" x1="919.8" y1="943.6" x2="919.8" y2="943.6"/>
	</g>
</g>
<line class="st6" x1="958" y1="851" x2="1006.2" y2="851"/>
<g>
	<g>
		<line class="st7" x1="1262.7" y1="117.4" x2="1262.7" y2="117.4"/>
		<line class="st8" x1="1273.2" y1="117.4" x2="1288.8" y2="117.4"/>
		<line class="st7" x1="1294" y1="117.4" x2="1294" y2="117.4"/>
		<line class="st10" x1="1294" y1="127.2" x2="1294" y2="546.6"/>
		<line class="st7" x1="1294" y1="551.6" x2="1294" y2="551.6"/>
		<line class="st8" x1="1283.6" y1="551.6" x2="1268" y2="551.6"/>
		<line class="st7" x1="1262.7" y1="551.6" x2="1262.7" y2="551.6"/>
	</g>
</g>
<line class="st6" x1="1294" y1="334.5" x2="1325.6" y2="334.5"/>
<g>
	<g>
		<g>
			<path class="st1" d="M1204.7,388.9h-39.5c-11,0-19.8,8.8-19.8,19.8V457c0,3.8,3,6.9,6.9,6.9s6.9-3,6.9-6.9v-44.4c0-1.1,0.9-2,2-2
				c1.1,0,2,0.9,2,2v49.9h20.6c0.3-0.3,0.8-0.4,1.2-0.4c0.4,0,0.9,0.2,1.2,0.4h20.6v-49.9c0-1.1,0.9-2,2-2c1.1,0,2,0.9,2,2v44.5
				c0,3.8,3,6.9,6.9,6.9s6.9-3,6.9-6.9v-48.4C1224.5,397.7,1215.4,388.9,1204.7,388.9z"/>
		</g>
	</g>
	<g>
		<g>
			<path class="st1" d="M1184.8,353.2c-8.7,0-15.8,7.1-15.8,15.8s7.1,15.8,15.8,15.8c8.7,0,15.8-7.1,15.8-15.8
				C1200.6,360.3,1193.5,353.2,1184.8,353.2z"/>
		</g>
	</g>
</g>
<circle class="st0" cx="114.2" cy="802.2" r="20"/>
<circle class="st1" cx="114.2" cy="874.5" r="20"/>
</svg>
