<?xml version="1.0" encoding="utf-8"?>
<!-- Generator: Adobe Illustrator 22.1.0, SVG Export Plug-In . SVG Version: 6.00 Build 0)  -->
<svg version="1.1" id="Layer_1" xmlns="http://www.w3.org/2000/svg" xmlns:xlink="http://www.w3.org/1999/xlink" x="0px" y="0px"
	 viewBox="0 0 1268 418" style="enable-background:new 0 0 1268 418;" xml:space="preserve">
<style type="text/css">
	.st0{fill:#B8B3C4;}
	.st1{fill:#655984;}
</style>
<g id="Layer_1_1_">
	<path class="st0" d="M80.4,21.7c0,3.5,2.9,6.4,6.4,6.4s6.4-2.9,6.4-6.4s-2.9-6.4-6.4-6.4S80.4,18.2,80.4,21.7z M103,37.7v19.5
		c0,1.6-1.2,2.8-2.8,2.8c-1.6,0-2.8-1.3-2.8-2.8V39.3c0-0.5-0.4-0.8-0.8-0.8s-0.8,0.4-0.8,0.8v48.4c0,2.4-1.8,4.4-4,4.4
		c-2.2,0-4-2-4-4.4V60.1c0-0.5-0.4-0.8-0.8-0.8s-0.8,0.4-0.8,0.8v27.6c0,2.4-1.8,4.4-4,4.4c-2.2,0-4-2-4-4.4V39.3
		c0-0.5-0.4-0.8-0.8-0.8s-0.8,0.4-0.8,0.8v17.9c0,1.6-1.2,2.8-2.8,2.8s-2.8-1.3-2.8-2.8V37.7c0-4.5,3.5-8,8-8h16
		C99.2,29.7,102.9,33.3,103,37.7z"/>
	<path class="st0" d="M125.2,21.7c0,3.5,2.9,6.4,6.4,6.4s6.4-2.9,6.4-6.4s-2.9-6.4-6.4-6.4C128.1,15.3,125.2,18.2,125.2,21.7z
		 M147.8,37.7v19.5c0,1.6-1.2,2.8-2.8,2.8c-1.6,0-2.8-1.3-2.8-2.8V39.3c0-0.5-0.4-0.8-0.8-0.8c-0.5,0-0.8,0.4-0.8,0.8v48.4
		c0,2.4-1.8,4.4-4,4.4c-2.2,0-4-2-4-4.4V60.1c0-0.5-0.4-0.8-0.8-0.8c-0.5,0-0.8,0.4-0.8,0.8v27.6c0,2.4-1.8,4.4-4,4.4
		c-2.2,0-4-2-4-4.4V39.3c0-0.5-0.4-0.8-0.8-0.8s-0.8,0.4-0.8,0.8v17.9c0,1.6-1.2,2.8-2.8,2.8c-1.6,0-2.8-1.3-2.8-2.8V37.7
		c0-4.5,3.5-8,8-8h16C144,29.7,147.6,33.3,147.8,37.7z"/>
	<path class="st0" d="M169.9,21.7c0,3.5,2.9,6.4,6.4,6.4c3.5,0,6.4-2.9,6.4-6.4s-2.9-6.4-6.4-6.4C172.8,15.3,169.9,18.2,169.9,21.7z
		 M192.5,37.7v19.5c0,1.6-1.2,2.8-2.8,2.8s-2.8-1.3-2.8-2.8V39.3c0-0.5-0.4-0.8-0.8-0.8c-0.5,0-0.8,0.4-0.8,0.8v48.4
		c0,2.4-1.8,4.4-4,4.4s-4-2-4-4.4V60.1c0-0.5-0.4-0.8-0.8-0.8c-0.5,0-0.8,0.4-0.8,0.8v27.6c0,2.4-1.8,4.4-4,4.4c-2.2,0-4-2-4-4.4
		V39.3c0-0.5-0.4-0.8-0.8-0.8c-0.5,0-0.8,0.4-0.8,0.8v17.9c0,1.6-1.2,2.8-2.8,2.8c-1.6,0-2.8-1.3-2.8-2.8V37.7c0-4.5,3.5-8,8-8h16
		C188.7,29.7,192.3,33.3,192.5,37.7z"/>
	<path class="st0" d="M214.6,21.7c0,3.5,2.9,6.4,6.4,6.4c3.5,0,6.4-2.9,6.4-6.4s-2.9-6.4-6.4-6.4C217.5,15.3,214.6,18.2,214.6,21.7z
		 M237.2,37.7v19.5c0,1.6-1.2,2.8-2.8,2.8c-1.6,0-2.8-1.3-2.8-2.8V39.3c0-0.5-0.4-0.8-0.8-0.8c-0.5,0-0.8,0.4-0.8,0.8v48.4
		c0,2.4-1.8,4.4-4,4.4s-4-2-4-4.4V60.1c0-0.5-0.4-0.8-0.8-0.8c-0.5,0-0.8,0.4-0.8,0.8v27.6c0,2.4-1.8,4.4-4,4.4c-2.2,0-4-2-4-4.4
		V39.3c0-0.5-0.4-0.8-0.8-0.8c-0.5,0-0.8,0.4-0.8,0.8v17.9c0,1.6-1.2,2.8-2.8,2.8s-2.8-1.3-2.8-2.8V37.7c0-4.5,3.5-8,8-8h16
		C233.4,29.7,237,33.3,237.2,37.7z"/>
	<path class="st0" d="M259.4,21.7c0,3.5,2.9,6.4,6.4,6.4s6.4-2.9,6.4-6.4s-2.9-6.4-6.4-6.4S259.4,18.2,259.4,21.7z M282,37.7v19.5
		c0,1.6-1.2,2.8-2.8,2.8s-2.8-1.3-2.8-2.8V39.3c0-0.5-0.4-0.8-0.8-0.8c-0.5,0-0.8,0.4-0.8,0.8v48.4c0,2.4-1.8,4.4-4,4.4
		c-2.2,0-4-2-4-4.4V60.1c0-0.5-0.4-0.8-0.8-0.8s-0.8,0.4-0.8,0.8v27.6c0,2.4-1.8,4.4-4,4.4s-4-2-4-4.4V39.3c0-0.5-0.4-0.8-0.8-0.8
		s-0.8,0.4-0.8,0.8v17.9c0,1.6-1.2,2.8-2.8,2.8c-1.6,0-2.8-1.3-2.8-2.8V37.7c0-4.5,3.5-8,8-8h16.1C278.1,29.7,281.8,33.3,282,37.7z"
		/>
	<path class="st0" d="M311.2,21.7c0,3.5,2.9,6.4,6.4,6.4s6.4-2.9,6.4-6.4s-2.9-6.4-6.4-6.4S311.2,18.2,311.2,21.7z M333.8,37.7v19.5
		c0,1.6-1.2,2.8-2.8,2.8s-2.8-1.3-2.8-2.8V39.3c0-0.5-0.4-0.8-0.8-0.8c-0.5,0-0.8,0.4-0.8,0.8v48.4c0,2.4-1.8,4.4-4,4.4
		c-2.2,0-4-2-4-4.4V60.1c0-0.5-0.4-0.8-0.8-0.8s-0.8,0.4-0.8,0.8v27.6c0,2.4-1.8,4.4-4,4.4s-4-2-4-4.4V39.3c0-0.5-0.4-0.8-0.8-0.8
		s-0.8,0.4-0.8,0.8v17.9c0,1.6-1.2,2.8-2.8,2.8s-2.8-1.3-2.8-2.8V37.7c0-4.5,3.5-8,8-8h16C330,29.7,333.8,33.3,333.8,37.7z"/>
	<path class="st0" d="M356,21.7c0,3.5,2.9,6.4,6.4,6.4c3.5,0,6.4-2.9,6.4-6.4s-2.9-6.4-6.4-6.4C358.9,15.3,356,18.2,356,21.7z
		 M378.6,37.7v19.5c0,1.6-1.2,2.8-2.8,2.8s-2.8-1.3-2.8-2.8V39.3c0-0.5-0.4-0.8-0.8-0.8c-0.5,0-0.8,0.4-0.8,0.8v48.4
		c0,2.4-1.8,4.4-4,4.4c-2.2,0-4-2-4-4.4V60.1c0-0.5-0.4-0.8-0.8-0.8s-0.8,0.4-0.8,0.8v27.6c0,2.4-1.8,4.4-4,4.4c-2.2,0-4-2-4-4.4
		V39.3c0-0.5-0.4-0.8-0.8-0.8c-0.5,0-0.8,0.4-0.8,0.8v17.9c0,1.6-1.2,2.8-2.8,2.8s-2.8-1.3-2.8-2.8V37.7c0-4.5,3.5-8,8-8h16
		C374.8,29.7,378.5,33.3,378.6,37.7z"/>
	<path class="st0" d="M400.7,21.7c0,3.5,2.9,6.4,6.4,6.4c3.5,0,6.4-2.9,6.4-6.4s-2.9-6.4-6.4-6.4C403.6,15.3,400.7,18.2,400.7,21.7z
		 M423.3,37.7v19.5c0,1.6-1.2,2.8-2.8,2.8s-2.8-1.3-2.8-2.8V39.3c0-0.5-0.4-0.8-0.8-0.8s-0.8,0.4-0.8,0.8v48.4c0,2.4-1.8,4.4-4,4.4
		s-4-2-4-4.4V60.1c0-0.5-0.4-0.8-0.8-0.8s-0.8,0.4-0.8,0.8v27.6c0,2.4-1.8,4.4-4,4.4c-2.2,0-4-2-4-4.4V39.3c0-0.5-0.4-0.8-0.8-0.8
		c-0.5,0-0.8,0.4-0.8,0.8v17.9c0,1.6-1.2,2.8-2.8,2.8s-2.8-1.3-2.8-2.8V37.7c0-4.5,3.5-8,8-8h16C419.5,29.7,423.2,33.3,423.3,37.7z"
		/>
	<path class="st0" d="M445.4,21.7c0,3.5,2.9,6.4,6.4,6.4s6.4-2.9,6.4-6.4s-2.9-6.4-6.4-6.4C448.3,15.3,445.4,18.2,445.4,21.7z
		 M468,37.7v19.5c0,1.6-1.2,2.8-2.8,2.8s-2.8-1.3-2.8-2.8V39.3c0-0.5-0.4-0.8-0.8-0.8s-0.8,0.4-0.8,0.8v48.4c0,2.4-1.8,4.4-4,4.4
		c-2.2,0-4-2-4-4.4V60.1c0-0.5-0.4-0.8-0.8-0.8s-0.8,0.4-0.8,0.8v27.6c0,2.4-1.8,4.4-4,4.4c-2.2,0-4-2-4-4.4V39.3
		c0-0.5-0.4-0.8-0.8-0.8c-0.5,0-0.8,0.4-0.8,0.8v17.9c0,1.6-1.2,2.8-2.8,2.8s-2.8-1.3-2.8-2.8V37.7c0-4.5,3.5-8,8-8h16
		C464.2,29.7,467.9,33.3,468,37.7z"/>
	<path class="st0" d="M490.2,21.7c0,3.5,2.9,6.4,6.4,6.4s6.4-2.9,6.4-6.4s-2.9-6.4-6.4-6.4S490.2,18.2,490.2,21.7z M512.8,37.7v19.5
		c0,1.6-1.2,2.8-2.8,2.8s-2.8-1.3-2.8-2.8V39.3c0-0.5-0.4-0.8-0.8-0.8s-0.8,0.4-0.8,0.8v48.4c0,2.4-1.8,4.4-4,4.4c-2.2,0-4-2-4-4.4
		V60.1c0-0.5-0.4-0.8-0.8-0.8c-0.5,0-0.8,0.4-0.8,0.8v27.6c0,2.4-1.8,4.4-4,4.4c-2.2,0-4-2-4-4.4V39.3c0-0.5-0.4-0.8-0.8-0.8
		c-0.5,0-0.8,0.4-0.8,0.8v17.9c0,1.6-1.2,2.8-2.8,2.8s-2.8-1.3-2.8-2.8V37.7c0-4.5,3.5-8,8-8h16C508.9,29.7,512.7,33.3,512.8,37.7z"
		/>
	<path class="st0" d="M80.4,124.9c0,3.5,2.9,6.4,6.4,6.4s6.4-2.9,6.4-6.4c0-3.5-2.9-6.4-6.4-6.4S80.4,121.4,80.4,124.9z M103,140.9
		v19.5c0,1.6-1.2,2.8-2.8,2.8c-1.6,0-2.8-1.3-2.8-2.8v-17.9c0-0.5-0.4-0.8-0.8-0.8s-0.8,0.4-0.8,0.8V191c0,2.4-1.8,4.4-4,4.4
		c-2.2,0-4-2-4-4.4v-27.6c0-0.5-0.4-0.8-0.8-0.8s-0.8,0.4-0.8,0.8V191c0,2.4-1.8,4.4-4,4.4c-2.2,0-4-2-4-4.4v-48.4
		c0-0.5-0.4-0.8-0.8-0.8s-0.8,0.4-0.8,0.8v17.9c0,1.6-1.2,2.8-2.8,2.8s-2.8-1.3-2.8-2.8v-19.5c0-4.5,3.5-8,8-8h16
		C99.2,132.9,102.9,136.5,103,140.9z"/>
	<path class="st0" d="M125.2,124.9c0,3.5,2.9,6.4,6.4,6.4s6.4-2.9,6.4-6.4c0-3.5-2.9-6.4-6.4-6.4S125.2,121.4,125.2,124.9z
		 M147.8,140.9v19.5c0,1.6-1.2,2.8-2.8,2.8c-1.6,0-2.8-1.3-2.8-2.8v-17.9c0-0.5-0.4-0.8-0.8-0.8c-0.5,0-0.8,0.4-0.8,0.8V191
		c0,2.4-1.8,4.4-4,4.4c-2.2,0-4-2-4-4.4v-27.6c0-0.5-0.4-0.8-0.8-0.8c-0.5,0-0.8,0.4-0.8,0.8V191c0,2.4-1.8,4.4-4,4.4
		c-2.2,0-4-2-4-4.4v-48.4c0-0.5-0.4-0.8-0.8-0.8s-0.8,0.4-0.8,0.8v17.9c0,1.6-1.2,2.8-2.8,2.8c-1.6,0-2.8-1.3-2.8-2.8v-19.5
		c0-4.5,3.5-8,8-8h16C144,132.9,147.6,136.5,147.8,140.9z"/>
	<path class="st0" d="M169.9,124.9c0,3.5,2.9,6.4,6.4,6.4c3.5,0,6.4-2.9,6.4-6.4c0-3.5-2.9-6.4-6.4-6.4
		C172.8,118.4,169.9,121.4,169.9,124.9z M192.5,140.9v19.5c0,1.6-1.2,2.8-2.8,2.8s-2.8-1.3-2.8-2.8v-17.9c0-0.5-0.4-0.8-0.8-0.8
		c-0.5,0-0.8,0.4-0.8,0.8V191c0,2.4-1.8,4.4-4,4.4s-4-2-4-4.4v-27.6c0-0.5-0.4-0.8-0.8-0.8c-0.5,0-0.8,0.4-0.8,0.8V191
		c0,2.4-1.8,4.4-4,4.4c-2.2,0-4-2-4-4.4v-48.4c0-0.5-0.4-0.8-0.8-0.8c-0.5,0-0.8,0.4-0.8,0.8v17.9c0,1.6-1.2,2.8-2.8,2.8
		c-1.6,0-2.8-1.3-2.8-2.8v-19.5c0-4.5,3.5-8,8-8h16C188.7,132.9,192.3,136.5,192.5,140.9z"/>
	<path class="st0" d="M214.6,124.9c0,3.5,2.9,6.4,6.4,6.4c3.5,0,6.4-2.9,6.4-6.4c0-3.5-2.9-6.4-6.4-6.4
		C217.5,118.4,214.6,121.4,214.6,124.9z M237.2,140.9v19.5c0,1.6-1.2,2.8-2.8,2.8c-1.6,0-2.8-1.3-2.8-2.8v-17.9
		c0-0.5-0.4-0.8-0.8-0.8c-0.5,0-0.8,0.4-0.8,0.8V191c0,2.4-1.8,4.4-4,4.4s-4-2-4-4.4v-27.6c0-0.5-0.4-0.8-0.8-0.8
		c-0.5,0-0.8,0.4-0.8,0.8V191c0,2.4-1.8,4.4-4,4.4c-2.2,0-4-2-4-4.4v-48.4c0-0.5-0.4-0.8-0.8-0.8c-0.5,0-0.8,0.4-0.8,0.8v17.9
		c0,1.6-1.2,2.8-2.8,2.8s-2.8-1.3-2.8-2.8v-19.5c0-4.5,3.5-8,8-8h16C233.4,132.9,237,136.5,237.2,140.9z"/>
	<path class="st0" d="M259.4,124.9c0,3.5,2.9,6.4,6.4,6.4s6.4-2.9,6.4-6.4c0-3.5-2.9-6.4-6.4-6.4S259.4,121.4,259.4,124.9z
		 M282,140.9v19.5c0,1.6-1.2,2.8-2.8,2.8s-2.8-1.3-2.8-2.8v-17.9c0-0.5-0.4-0.8-0.8-0.8c-0.5,0-0.8,0.4-0.8,0.8V191
		c0,2.4-1.8,4.4-4,4.4c-2.2,0-4-2-4-4.4v-27.6c0-0.5-0.4-0.8-0.8-0.8s-0.8,0.4-0.8,0.8V191c0,2.4-1.8,4.4-4,4.4s-4-2-4-4.4v-48.4
		c0-0.5-0.4-0.8-0.8-0.8s-0.8,0.4-0.8,0.8v17.9c0,1.6-1.2,2.8-2.8,2.8c-1.6,0-2.8-1.3-2.8-2.8v-19.5c0-4.5,3.5-8,8-8h16.1
		C278.1,132.9,281.8,136.5,282,140.9z"/>
	<path class="st0" d="M311.2,124.9c0,3.5,2.9,6.4,6.4,6.4s6.4-2.9,6.4-6.4c0-3.5-2.9-6.4-6.4-6.4S311.2,121.4,311.2,124.9z
		 M333.8,140.9v19.5c0,1.6-1.2,2.8-2.8,2.8s-2.8-1.3-2.8-2.8v-17.9c0-0.5-0.4-0.8-0.8-0.8c-0.5,0-0.8,0.4-0.8,0.8V191
		c0,2.4-1.8,4.4-4,4.4c-2.2,0-4-2-4-4.4v-27.6c0-0.5-0.4-0.8-0.8-0.8s-0.8,0.4-0.8,0.8V191c0,2.4-1.8,4.4-4,4.4s-4-2-4-4.4v-48.4
		c0-0.5-0.4-0.8-0.8-0.8s-0.8,0.4-0.8,0.8v17.9c0,1.6-1.2,2.8-2.8,2.8s-2.8-1.3-2.8-2.8v-19.5c0-4.5,3.5-8,8-8h16
		C330,132.9,333.8,136.5,333.8,140.9z"/>
	<path class="st0" d="M356,124.9c0,3.5,2.9,6.4,6.4,6.4c3.5,0,6.4-2.9,6.4-6.4c0-3.5-2.9-6.4-6.4-6.4
		C358.9,118.4,356,121.4,356,124.9z M378.6,140.9v19.5c0,1.6-1.2,2.8-2.8,2.8s-2.8-1.3-2.8-2.8v-17.9c0-0.5-0.4-0.8-0.8-0.8
		c-0.5,0-0.8,0.4-0.8,0.8V191c0,2.4-1.8,4.4-4,4.4c-2.2,0-4-2-4-4.4v-27.6c0-0.5-0.4-0.8-0.8-0.8s-0.8,0.4-0.8,0.8V191
		c0,2.4-1.8,4.4-4,4.4c-2.2,0-4-2-4-4.4v-48.4c0-0.5-0.4-0.8-0.8-0.8c-0.5,0-0.8,0.4-0.8,0.8v17.9c0,1.6-1.2,2.8-2.8,2.8
		s-2.8-1.3-2.8-2.8v-19.5c0-4.5,3.5-8,8-8h16C374.8,132.9,378.5,136.5,378.6,140.9z"/>
	<path class="st0" d="M400.7,124.9c0,3.5,2.9,6.4,6.4,6.4c3.5,0,6.4-2.9,6.4-6.4c0-3.5-2.9-6.4-6.4-6.4
		C403.6,118.4,400.7,121.4,400.7,124.9z M423.3,140.9v19.5c0,1.6-1.2,2.8-2.8,2.8s-2.8-1.3-2.8-2.8v-17.9c0-0.5-0.4-0.8-0.8-0.8
		s-0.8,0.4-0.8,0.8V191c0,2.4-1.8,4.4-4,4.4s-4-2-4-4.4v-27.6c0-0.5-0.4-0.8-0.8-0.8s-0.8,0.4-0.8,0.8V191c0,2.4-1.8,4.4-4,4.4
		c-2.2,0-4-2-4-4.4v-48.4c0-0.5-0.4-0.8-0.8-0.8c-0.5,0-0.8,0.4-0.8,0.8v17.9c0,1.6-1.2,2.8-2.8,2.8s-2.8-1.3-2.8-2.8v-19.5
		c0-4.5,3.5-8,8-8h16C419.5,132.9,423.2,136.5,423.3,140.9z"/>
	<path class="st0" d="M445.4,124.9c0,3.5,2.9,6.4,6.4,6.4s6.4-2.9,6.4-6.4c0-3.5-2.9-6.4-6.4-6.4S445.4,121.4,445.4,124.9z
		 M468,140.9v19.5c0,1.6-1.2,2.8-2.8,2.8s-2.8-1.3-2.8-2.8v-17.9c0-0.5-0.4-0.8-0.8-0.8s-0.8,0.4-0.8,0.8V191c0,2.4-1.8,4.4-4,4.4
		c-2.2,0-4-2-4-4.4v-27.6c0-0.5-0.4-0.8-0.8-0.8s-0.8,0.4-0.8,0.8V191c0,2.4-1.8,4.4-4,4.4c-2.2,0-4-2-4-4.4v-48.4
		c0-0.5-0.4-0.8-0.8-0.8c-0.5,0-0.8,0.4-0.8,0.8v17.9c0,1.6-1.2,2.8-2.8,2.8s-2.8-1.3-2.8-2.8v-19.5c0-4.5,3.5-8,8-8h16
		C464.2,132.9,467.9,136.5,468,140.9z"/>
	<path class="st0" d="M490.2,124.9c0,3.5,2.9,6.4,6.4,6.4s6.4-2.9,6.4-6.4c0-3.5-2.9-6.4-6.4-6.4S490.2,121.4,490.2,124.9z
		 M512.8,140.9v19.5c0,1.6-1.2,2.8-2.8,2.8s-2.8-1.3-2.8-2.8v-17.9c0-0.5-0.4-0.8-0.8-0.8s-0.8,0.4-0.8,0.8V191c0,2.4-1.8,4.4-4,4.4
		c-2.2,0-4-2-4-4.4v-27.6c0-0.5-0.4-0.8-0.8-0.8c-0.5,0-0.8,0.4-0.8,0.8V191c0,2.4-1.8,4.4-4,4.4c-2.2,0-4-2-4-4.4v-48.4
		c0-0.5-0.4-0.8-0.8-0.8c-0.5,0-0.8,0.4-0.8,0.8v17.9c0,1.6-1.2,2.8-2.8,2.8s-2.8-1.3-2.8-2.8v-19.5c0-4.5,3.5-8,8-8h16
		C508.9,132.9,512.7,136.5,512.8,140.9z"/>
	<path class="st0" d="M80.4,228.3c0,3.5,2.9,6.4,6.4,6.4s6.4-2.9,6.4-6.4c0-3.5-2.9-6.4-6.4-6.4S80.4,224.7,80.4,228.3z M103,244.3
		v19.5c0,1.6-1.2,2.8-2.8,2.8c-1.6,0-2.8-1.3-2.8-2.8v-17.9c0-0.5-0.4-0.8-0.8-0.8s-0.8,0.4-0.8,0.8v48.4c0,2.4-1.8,4.4-4,4.4
		c-2.2,0-4-2-4-4.4v-27.6c0-0.5-0.4-0.8-0.8-0.8s-0.8,0.4-0.8,0.8v27.6c0,2.4-1.8,4.4-4,4.4c-2.2,0-4-2-4-4.4v-48.4
		c0-0.5-0.4-0.8-0.8-0.8s-0.8,0.4-0.8,0.8v17.9c0,1.6-1.2,2.8-2.8,2.8s-2.8-1.3-2.8-2.8v-19.5c0-4.5,3.5-8,8-8h16
		C99.2,236.3,102.9,239.9,103,244.3z"/>
	<path class="st0" d="M125.2,228.3c0,3.5,2.9,6.4,6.4,6.4s6.4-2.9,6.4-6.4c0-3.5-2.9-6.4-6.4-6.4S125.2,224.7,125.2,228.3z
		 M147.8,244.3v19.5c0,1.6-1.2,2.8-2.8,2.8c-1.6,0-2.8-1.3-2.8-2.8v-17.9c0-0.5-0.4-0.8-0.8-0.8c-0.5,0-0.8,0.4-0.8,0.8v48.4
		c0,2.4-1.8,4.4-4,4.4c-2.2,0-4-2-4-4.4v-27.6c0-0.5-0.4-0.8-0.8-0.8c-0.5,0-0.8,0.4-0.8,0.8v27.6c0,2.4-1.8,4.4-4,4.4
		c-2.2,0-4-2-4-4.4v-48.4c0-0.5-0.4-0.8-0.8-0.8s-0.8,0.4-0.8,0.8v17.9c0,1.6-1.2,2.8-2.8,2.8c-1.6,0-2.8-1.3-2.8-2.8v-19.5
		c0-4.5,3.5-8,8-8h16C144,236.3,147.6,239.9,147.8,244.3z"/>
	<path class="st0" d="M169.9,228.3c0,3.5,2.9,6.4,6.4,6.4c3.5,0,6.4-2.9,6.4-6.4c0-3.5-2.9-6.4-6.4-6.4
		C172.8,221.8,169.9,224.7,169.9,228.3z M192.5,244.3v19.5c0,1.6-1.2,2.8-2.8,2.8s-2.8-1.3-2.8-2.8v-17.9c0-0.5-0.4-0.8-0.8-0.8
		c-0.5,0-0.8,0.4-0.8,0.8v48.4c0,2.4-1.8,4.4-4,4.4s-4-2-4-4.4v-27.6c0-0.5-0.4-0.8-0.8-0.8c-0.5,0-0.8,0.4-0.8,0.8v27.6
		c0,2.4-1.8,4.4-4,4.4c-2.2,0-4-2-4-4.4v-48.4c0-0.5-0.4-0.8-0.8-0.8c-0.5,0-0.8,0.4-0.8,0.8v17.9c0,1.6-1.2,2.8-2.8,2.8
		c-1.6,0-2.8-1.3-2.8-2.8v-19.5c0-4.5,3.5-8,8-8h16C188.7,236.3,192.3,239.9,192.5,244.3z"/>
	<path class="st0" d="M214.6,228.3c0,3.5,2.9,6.4,6.4,6.4c3.5,0,6.4-2.9,6.4-6.4c0-3.5-2.9-6.4-6.4-6.4
		C217.5,221.8,214.6,224.7,214.6,228.3z M237.2,244.3v19.5c0,1.6-1.2,2.8-2.8,2.8c-1.6,0-2.8-1.3-2.8-2.8v-17.9
		c0-0.5-0.4-0.8-0.8-0.8c-0.5,0-0.8,0.4-0.8,0.8v48.4c0,2.4-1.8,4.4-4,4.4s-4-2-4-4.4v-27.6c0-0.5-0.4-0.8-0.8-0.8
		c-0.5,0-0.8,0.4-0.8,0.8v27.6c0,2.4-1.8,4.4-4,4.4c-2.2,0-4-2-4-4.4v-48.4c0-0.5-0.4-0.8-0.8-0.8c-0.5,0-0.8,0.4-0.8,0.8v17.9
		c0,1.6-1.2,2.8-2.8,2.8s-2.8-1.3-2.8-2.8v-19.5c0-4.5,3.5-8,8-8h16C233.4,236.3,237,239.9,237.2,244.3z"/>
	<path class="st0" d="M259.4,228.3c0,3.5,2.9,6.4,6.4,6.4s6.4-2.9,6.4-6.4c0-3.5-2.9-6.4-6.4-6.4S259.4,224.7,259.4,228.3z
		 M282,244.3v19.5c0,1.6-1.2,2.8-2.8,2.8s-2.8-1.3-2.8-2.8v-17.9c0-0.5-0.4-0.8-0.8-0.8c-0.5,0-0.8,0.4-0.8,0.8v48.4
		c0,2.4-1.8,4.4-4,4.4c-2.2,0-4-2-4-4.4v-27.6c0-0.5-0.4-0.8-0.8-0.8s-0.8,0.4-0.8,0.8v27.6c0,2.4-1.8,4.4-4,4.4s-4-2-4-4.4v-48.4
		c0-0.5-0.4-0.8-0.8-0.8s-0.8,0.4-0.8,0.8v17.9c0,1.6-1.2,2.8-2.8,2.8c-1.6,0-2.8-1.3-2.8-2.8v-19.5c0-4.5,3.5-8,8-8h16.1
		C278.1,236.3,281.8,239.9,282,244.3z"/>
	<path class="st0" d="M311.2,228.3c0,3.5,2.9,6.4,6.4,6.4s6.4-2.9,6.4-6.4c0-3.5-2.9-6.4-6.4-6.4S311.2,224.7,311.2,228.3z
		 M333.8,244.3v19.5c0,1.6-1.2,2.8-2.8,2.8s-2.8-1.3-2.8-2.8v-17.9c0-0.5-0.4-0.8-0.8-0.8c-0.5,0-0.8,0.4-0.8,0.8v48.4
		c0,2.4-1.8,4.4-4,4.4c-2.2,0-4-2-4-4.4v-27.6c0-0.5-0.4-0.8-0.8-0.8s-0.8,0.4-0.8,0.8v27.6c0,2.4-1.8,4.4-4,4.4s-4-2-4-4.4v-48.4
		c0-0.5-0.4-0.8-0.8-0.8s-0.8,0.4-0.8,0.8v17.9c0,1.6-1.2,2.8-2.8,2.8s-2.8-1.3-2.8-2.8v-19.5c0-4.5,3.5-8,8-8h16
		C330,236.3,333.8,239.9,333.8,244.3z"/>
	<path class="st0" d="M356,228.3c0,3.5,2.9,6.4,6.4,6.4c3.5,0,6.4-2.9,6.4-6.4c0-3.5-2.9-6.4-6.4-6.4
		C358.9,221.8,356,224.7,356,228.3z M378.6,244.3v19.5c0,1.6-1.2,2.8-2.8,2.8s-2.8-1.3-2.8-2.8v-17.9c0-0.5-0.4-0.8-0.8-0.8
		c-0.5,0-0.8,0.4-0.8,0.8v48.4c0,2.4-1.8,4.4-4,4.4c-2.2,0-4-2-4-4.4v-27.6c0-0.5-0.4-0.8-0.8-0.8s-0.8,0.4-0.8,0.8v27.6
		c0,2.4-1.8,4.4-4,4.4c-2.2,0-4-2-4-4.4v-48.4c0-0.5-0.4-0.8-0.8-0.8c-0.5,0-0.8,0.4-0.8,0.8v17.9c0,1.6-1.2,2.8-2.8,2.8
		s-2.8-1.3-2.8-2.8v-19.5c0-4.5,3.5-8,8-8h16C374.8,236.3,378.5,239.9,378.6,244.3z"/>
	<path class="st0" d="M400.7,228.3c0,3.5,2.9,6.4,6.4,6.4c3.5,0,6.4-2.9,6.4-6.4c0-3.5-2.9-6.4-6.4-6.4
		C403.6,221.8,400.7,224.7,400.7,228.3z M423.3,244.3v19.5c0,1.6-1.2,2.8-2.8,2.8s-2.8-1.3-2.8-2.8v-17.9c0-0.5-0.4-0.8-0.8-0.8
		s-0.8,0.4-0.8,0.8v48.4c0,2.4-1.8,4.4-4,4.4s-4-2-4-4.4v-27.6c0-0.5-0.4-0.8-0.8-0.8s-0.8,0.4-0.8,0.8v27.6c0,2.4-1.8,4.4-4,4.4
		c-2.2,0-4-2-4-4.4v-48.4c0-0.5-0.4-0.8-0.8-0.8c-0.5,0-0.8,0.4-0.8,0.8v17.9c0,1.6-1.2,2.8-2.8,2.8s-2.8-1.3-2.8-2.8v-19.5
		c0-4.5,3.5-8,8-8h16C419.5,236.3,423.2,239.9,423.3,244.3z"/>
	<path class="st0" d="M445.4,228.3c0,3.5,2.9,6.4,6.4,6.4s6.4-2.9,6.4-6.4c0-3.5-2.9-6.4-6.4-6.4S445.4,224.7,445.4,228.3z
		 M468,244.3v19.5c0,1.6-1.2,2.8-2.8,2.8s-2.8-1.3-2.8-2.8v-17.9c0-0.5-0.4-0.8-0.8-0.8s-0.8,0.4-0.8,0.8v48.4c0,2.4-1.8,4.4-4,4.4
		c-2.2,0-4-2-4-4.4v-27.6c0-0.5-0.4-0.8-0.8-0.8s-0.8,0.4-0.8,0.8v27.6c0,2.4-1.8,4.4-4,4.4c-2.2,0-4-2-4-4.4v-48.4
		c0-0.5-0.4-0.8-0.8-0.8c-0.5,0-0.8,0.4-0.8,0.8v17.9c0,1.6-1.2,2.8-2.8,2.8s-2.8-1.3-2.8-2.8v-19.5c0-4.5,3.5-8,8-8h16
		C464.2,236.3,467.9,239.9,468,244.3z"/>
	<path class="st0" d="M490.2,228.3c0,3.5,2.9,6.4,6.4,6.4s6.4-2.9,6.4-6.4c0-3.5-2.9-6.4-6.4-6.4S490.2,224.7,490.2,228.3z
		 M512.8,244.3v19.5c0,1.6-1.2,2.8-2.8,2.8s-2.8-1.3-2.8-2.8v-17.9c0-0.5-0.4-0.8-0.8-0.8s-0.8,0.4-0.8,0.8v48.4
		c0,2.4-1.8,4.4-4,4.4c-2.2,0-4-2-4-4.4v-27.6c0-0.5-0.4-0.8-0.8-0.8c-0.5,0-0.8,0.4-0.8,0.8v27.6c0,2.4-1.8,4.4-4,4.4
		c-2.2,0-4-2-4-4.4v-48.4c0-0.5-0.4-0.8-0.8-0.8c-0.5,0-0.8,0.4-0.8,0.8v17.9c0,1.6-1.2,2.8-2.8,2.8s-2.8-1.3-2.8-2.8v-19.5
		c0-4.5,3.5-8,8-8h16C508.9,236.3,512.7,239.9,512.8,244.3z"/>
	<path class="st1" d="M80.4,331.4c0,3.5,2.9,6.4,6.4,6.4s6.4-2.9,6.4-6.4c0-3.5-2.9-6.4-6.4-6.4S80.4,327.9,80.4,331.4z M103,347.5
		V367c0,1.6-1.2,2.8-2.8,2.8c-1.6,0-2.8-1.3-2.8-2.8v-17.9c0-0.5-0.4-0.8-0.8-0.8s-0.8,0.4-0.8,0.8v48.4c0,2.4-1.8,4.4-4,4.4
		c-2.2,0-4-2-4-4.4v-27.6c0-0.5-0.4-0.8-0.8-0.8s-0.8,0.4-0.8,0.8v27.6c0,2.4-1.8,4.4-4,4.4c-2.2,0-4-2-4-4.4v-48.4
		c0-0.5-0.4-0.8-0.8-0.8s-0.8,0.4-0.8,0.8V367c0,1.6-1.2,2.8-2.8,2.8s-2.8-1.3-2.8-2.8v-19.5c0-4.5,3.5-8,8-8h16
		C99.2,339.5,102.9,343,103,347.5z"/>
	<path class="st1" d="M125.2,331.4c0,3.5,2.9,6.4,6.4,6.4s6.4-2.9,6.4-6.4c0-3.5-2.9-6.4-6.4-6.4S125.2,327.9,125.2,331.4z
		 M147.8,347.5V367c0,1.6-1.2,2.8-2.8,2.8c-1.6,0-2.8-1.3-2.8-2.8v-17.9c0-0.5-0.4-0.8-0.8-0.8c-0.5,0-0.8,0.4-0.8,0.8v48.4
		c0,2.4-1.8,4.4-4,4.4c-2.2,0-4-2-4-4.4v-27.6c0-0.5-0.4-0.8-0.8-0.8c-0.5,0-0.8,0.4-0.8,0.8v27.6c0,2.4-1.8,4.4-4,4.4
		c-2.2,0-4-2-4-4.4v-48.4c0-0.5-0.4-0.8-0.8-0.8s-0.8,0.4-0.8,0.8V367c0,1.6-1.2,2.8-2.8,2.8c-1.6,0-2.8-1.3-2.8-2.8v-19.5
		c0-4.5,3.5-8,8-8h16C144,339.5,147.6,343,147.8,347.5z"/>
	<path class="st1" d="M169.9,331.4c0,3.5,2.9,6.4,6.4,6.4c3.5,0,6.4-2.9,6.4-6.4c0-3.5-2.9-6.4-6.4-6.4
		C172.8,325,169.9,327.9,169.9,331.4z M192.5,347.5V367c0,1.6-1.2,2.8-2.8,2.8s-2.8-1.3-2.8-2.8v-17.9c0-0.5-0.4-0.8-0.8-0.8
		c-0.5,0-0.8,0.4-0.8,0.8v48.4c0,2.4-1.8,4.4-4,4.4s-4-2-4-4.4v-27.6c0-0.5-0.4-0.8-0.8-0.8c-0.5,0-0.8,0.4-0.8,0.8v27.6
		c0,2.4-1.8,4.4-4,4.4c-2.2,0-4-2-4-4.4v-48.4c0-0.5-0.4-0.8-0.8-0.8c-0.5,0-0.8,0.4-0.8,0.8V367c0,1.6-1.2,2.8-2.8,2.8
		c-1.6,0-2.8-1.3-2.8-2.8v-19.5c0-4.5,3.5-8,8-8h16C188.7,339.5,192.3,343,192.5,347.5z"/>
	<path class="st1" d="M214.6,331.4c0,3.5,2.9,6.4,6.4,6.4c3.5,0,6.4-2.9,6.4-6.4c0-3.5-2.9-6.4-6.4-6.4
		C217.5,325,214.6,327.9,214.6,331.4z M237.2,347.5V367c0,1.6-1.2,2.8-2.8,2.8c-1.6,0-2.8-1.3-2.8-2.8v-17.9c0-0.5-0.4-0.8-0.8-0.8
		c-0.5,0-0.8,0.4-0.8,0.8v48.4c0,2.4-1.8,4.4-4,4.4s-4-2-4-4.4v-27.6c0-0.5-0.4-0.8-0.8-0.8c-0.5,0-0.8,0.4-0.8,0.8v27.6
		c0,2.4-1.8,4.4-4,4.4c-2.2,0-4-2-4-4.4v-48.4c0-0.5-0.4-0.8-0.8-0.8c-0.5,0-0.8,0.4-0.8,0.8V367c0,1.6-1.2,2.8-2.8,2.8
		s-2.8-1.3-2.8-2.8v-19.5c0-4.5,3.5-8,8-8h16C233.4,339.5,237,343,237.2,347.5z"/>
	<path class="st1" d="M259.4,331.4c0,3.5,2.9,6.4,6.4,6.4s6.4-2.9,6.4-6.4c0-3.5-2.9-6.4-6.4-6.4S259.4,327.9,259.4,331.4z
		 M282,347.5V367c0,1.6-1.2,2.8-2.8,2.8s-2.8-1.3-2.8-2.8v-17.9c0-0.5-0.4-0.8-0.8-0.8c-0.5,0-0.8,0.4-0.8,0.8v48.4
		c0,2.4-1.8,4.4-4,4.4c-2.2,0-4-2-4-4.4v-27.6c0-0.5-0.4-0.8-0.8-0.8s-0.8,0.4-0.8,0.8v27.6c0,2.4-1.8,4.4-4,4.4s-4-2-4-4.4v-48.4
		c0-0.5-0.4-0.8-0.8-0.8s-0.8,0.4-0.8,0.8V367c0,1.6-1.2,2.8-2.8,2.8c-1.6,0-2.8-1.3-2.8-2.8v-19.5c0-4.5,3.5-8,8-8h16.1
		C278.1,339.5,281.8,343,282,347.5z"/>
	<path class="st1" d="M311.2,331.4c0,3.5,2.9,6.4,6.4,6.4s6.4-2.9,6.4-6.4c0-3.5-2.9-6.4-6.4-6.4S311.2,327.9,311.2,331.4z
		 M333.8,347.5V367c0,1.6-1.2,2.8-2.8,2.8s-2.8-1.3-2.8-2.8v-17.9c0-0.5-0.4-0.8-0.8-0.8c-0.5,0-0.8,0.4-0.8,0.8v48.4
		c0,2.4-1.8,4.4-4,4.4c-2.2,0-4-2-4-4.4v-27.6c0-0.5-0.4-0.8-0.8-0.8s-0.8,0.4-0.8,0.8v27.6c0,2.4-1.8,4.4-4,4.4s-4-2-4-4.4v-48.4
		c0-0.5-0.4-0.8-0.8-0.8s-0.8,0.4-0.8,0.8V367c0,1.6-1.2,2.8-2.8,2.8s-2.8-1.3-2.8-2.8v-19.5c0-4.5,3.5-8,8-8h16
		C330,339.5,333.8,343,333.8,347.5z"/>
	<path class="st1" d="M356,331.4c0,3.5,2.9,6.4,6.4,6.4c3.5,0,6.4-2.9,6.4-6.4c0-3.5-2.9-6.4-6.4-6.4C358.9,325,356,327.9,356,331.4
		z M378.6,347.5V367c0,1.6-1.2,2.8-2.8,2.8s-2.8-1.3-2.8-2.8v-17.9c0-0.5-0.4-0.8-0.8-0.8c-0.5,0-0.8,0.4-0.8,0.8v48.4
		c0,2.4-1.8,4.4-4,4.4c-2.2,0-4-2-4-4.4v-27.6c0-0.5-0.4-0.8-0.8-0.8s-0.8,0.4-0.8,0.8v27.6c0,2.4-1.8,4.4-4,4.4c-2.2,0-4-2-4-4.4
		v-48.4c0-0.5-0.4-0.8-0.8-0.8c-0.5,0-0.8,0.4-0.8,0.8V367c0,1.6-1.2,2.8-2.8,2.8s-2.8-1.3-2.8-2.8v-19.5c0-4.5,3.5-8,8-8h16
		C374.8,339.5,378.5,343,378.6,347.5z"/>
	<path class="st1" d="M400.7,331.4c0,3.5,2.9,6.4,6.4,6.4c3.5,0,6.4-2.9,6.4-6.4c0-3.5-2.9-6.4-6.4-6.4
		C403.6,325,400.7,327.9,400.7,331.4z M423.3,347.5V367c0,1.6-1.2,2.8-2.8,2.8s-2.8-1.3-2.8-2.8v-17.9c0-0.5-0.4-0.8-0.8-0.8
		s-0.8,0.4-0.8,0.8v48.4c0,2.4-1.8,4.4-4,4.4s-4-2-4-4.4v-27.6c0-0.5-0.4-0.8-0.8-0.8s-0.8,0.4-0.8,0.8v27.6c0,2.4-1.8,4.4-4,4.4
		c-2.2,0-4-2-4-4.4v-48.4c0-0.5-0.4-0.8-0.8-0.8c-0.5,0-0.8,0.4-0.8,0.8V367c0,1.6-1.2,2.8-2.8,2.8s-2.8-1.3-2.8-2.8v-19.5
		c0-4.5,3.5-8,8-8h16C419.5,339.5,423.2,343,423.3,347.5z"/>
	<path class="st1" d="M445.4,331.4c0,3.5,2.9,6.4,6.4,6.4s6.4-2.9,6.4-6.4c0-3.5-2.9-6.4-6.4-6.4S445.4,327.9,445.4,331.4z
		 M468,347.5V367c0,1.6-1.2,2.8-2.8,2.8s-2.8-1.3-2.8-2.8v-17.9c0-0.5-0.4-0.8-0.8-0.8s-0.8,0.4-0.8,0.8v48.4c0,2.4-1.8,4.4-4,4.4
		c-2.2,0-4-2-4-4.4v-27.6c0-0.5-0.4-0.8-0.8-0.8s-0.8,0.4-0.8,0.8v27.6c0,2.4-1.8,4.4-4,4.4c-2.2,0-4-2-4-4.4v-48.4
		c0-0.5-0.4-0.8-0.8-0.8c-0.5,0-0.8,0.4-0.8,0.8V367c0,1.6-1.2,2.8-2.8,2.8s-2.8-1.3-2.8-2.8v-19.5c0-4.5,3.5-8,8-8h16
		C464.2,339.5,467.9,343,468,347.5z"/>
	<path class="st1" d="M490.2,331.4c0,3.5,2.9,6.4,6.4,6.4s6.4-2.9,6.4-6.4c0-3.5-2.9-6.4-6.4-6.4S490.2,327.9,490.2,331.4z
		 M512.8,347.5V367c0,1.6-1.2,2.8-2.8,2.8s-2.8-1.3-2.8-2.8v-17.9c0-0.5-0.4-0.8-0.8-0.8s-0.8,0.4-0.8,0.8v48.4c0,2.4-1.8,4.4-4,4.4
		c-2.2,0-4-2-4-4.4v-27.6c0-0.5-0.4-0.8-0.8-0.8c-0.5,0-0.8,0.4-0.8,0.8v27.6c0,2.4-1.8,4.4-4,4.4c-2.2,0-4-2-4-4.4v-48.4
		c0-0.5-0.4-0.8-0.8-0.8c-0.5,0-0.8,0.4-0.8,0.8V367c0,1.6-1.2,2.8-2.8,2.8s-2.8-1.3-2.8-2.8v-19.5c0-4.5,3.5-8,8-8h16
		C508.9,339.5,512.7,343,512.8,347.5z"/>
</g>
<g id="Layer_2_1_">
</g>
<g id="Layer_3">
</g>
<g id="Layer_3_1_">
</g>
<g id="Layer_1_2_">
	<path class="st0" d="M541.2,21.7c0,3.5,2.9,6.4,6.4,6.4c3.5,0,6.4-2.9,6.4-6.4s-2.9-6.4-6.4-6.4C544.1,15.3,541.2,18.2,541.2,21.7z
		 M563.8,37.7v19.5c0,1.6-1.2,2.8-2.8,2.8c-1.6,0-2.8-1.3-2.8-2.8V39.3c0-0.5-0.4-0.8-0.8-0.8s-0.8,0.4-0.8,0.8v48.4
		c0,2.4-1.8,4.4-4,4.4s-4-2-4-4.4V60.1c0-0.5-0.4-0.8-0.8-0.8s-0.8,0.4-0.8,0.8v27.6c0,2.4-1.8,4.4-4,4.4s-4-2-4-4.4V39.3
		c0-0.5-0.4-0.8-0.8-0.8s-0.8,0.4-0.8,0.8v17.9c0,1.6-1.2,2.8-2.8,2.8c-1.6,0-2.8-1.3-2.8-2.8V37.7c0-4.5,3.5-8,8-8h16
		C560,29.7,563.6,33.3,563.8,37.7z"/>
	<path class="st0" d="M585.9,21.7c0,3.5,2.9,6.4,6.4,6.4c3.5,0,6.4-2.9,6.4-6.4s-2.9-6.4-6.4-6.4S585.9,18.2,585.9,21.7z
		 M608.5,37.7v19.5c0,1.6-1.2,2.8-2.8,2.8c-1.6,0-2.8-1.3-2.8-2.8V39.3c0-0.5-0.4-0.8-0.8-0.8s-0.8,0.4-0.8,0.8v48.4
		c0,2.4-1.8,4.4-4,4.4c-2.2,0-4-2-4-4.4V60.1c0-0.5-0.4-0.8-0.8-0.8c-0.5,0-0.8,0.4-0.8,0.8v27.6c0,2.4-1.8,4.4-4,4.4s-4-2-4-4.4
		V39.3c0-0.5-0.4-0.8-0.8-0.8s-0.8,0.4-0.8,0.8v17.9c0,1.6-1.2,2.8-2.8,2.8c-1.6,0-2.8-1.3-2.8-2.8V37.7c0-4.5,3.5-8,8-8h16
		C604.7,29.7,608.4,33.3,608.5,37.7z"/>
	<path class="st0" d="M630.7,21.7c0,3.5,2.9,6.4,6.4,6.4s6.4-2.9,6.4-6.4s-2.9-6.4-6.4-6.4C633.6,15.3,630.7,18.2,630.7,21.7z
		 M653.3,37.7v19.5c0,1.6-1.2,2.8-2.8,2.8s-2.8-1.3-2.8-2.8V39.3c0-0.5-0.4-0.8-0.8-0.8c-0.5,0-0.8,0.4-0.8,0.8v48.4
		c0,2.4-1.8,4.4-4,4.4s-4-2-4-4.4V60.1c0-0.5-0.4-0.8-0.8-0.8s-0.8,0.4-0.8,0.8v27.6c0,2.4-1.8,4.4-4,4.4s-4-2-4-4.4V39.3
		c0-0.5-0.4-0.8-0.8-0.8s-0.8,0.4-0.8,0.8v17.9c0,1.6-1.2,2.8-2.8,2.8s-2.8-1.3-2.8-2.8V37.7c0-4.5,3.5-8,8-8h16
		C649.5,29.7,653.1,33.3,653.3,37.7z"/>
	<path class="st0" d="M675.4,21.7c0,3.5,2.9,6.4,6.4,6.4c3.5,0,6.4-2.9,6.4-6.4s-2.9-6.4-6.4-6.4S675.4,18.2,675.4,21.7z M698,37.7
		v19.5c0,1.6-1.2,2.8-2.8,2.8s-2.8-1.3-2.8-2.8V39.3c0-0.5-0.4-0.8-0.8-0.8s-0.8,0.4-0.8,0.8v48.4c0,2.4-1.8,4.4-4,4.4
		c-2.2,0-4-2-4-4.4V60.1c0-0.5-0.4-0.8-0.8-0.8c-0.5,0-0.8,0.4-0.8,0.8v27.6c0,2.4-1.8,4.4-4,4.4s-4-2-4-4.4V39.3
		c0-0.5-0.4-0.8-0.8-0.8s-0.8,0.4-0.8,0.8v17.9c0,1.6-1.2,2.8-2.8,2.8c-1.6,0-2.8-1.3-2.8-2.8V37.7c0-4.5,3.5-8,8-8h16
		C694.2,29.7,697.8,33.3,698,37.7z"/>
	<path class="st0" d="M720.1,21.7c0,3.5,2.9,6.4,6.4,6.4c3.5,0,6.4-2.9,6.4-6.4s-2.9-6.4-6.4-6.4C723,15.3,720.1,18.2,720.1,21.7z
		 M742.7,37.7v19.5c0,1.6-1.2,2.8-2.8,2.8s-2.8-1.3-2.8-2.8V39.3c0-0.5-0.4-0.8-0.8-0.8s-0.8,0.4-0.8,0.8v48.4c0,2.4-1.8,4.4-4,4.4
		c-2.2,0-4-2-4-4.4V60.1c0-0.5-0.4-0.8-0.8-0.8s-0.8,0.4-0.8,0.8v27.6c0,2.4-1.8,4.4-4,4.4c-2.2,0-4-2-4-4.4V39.3
		c0-0.5-0.4-0.8-0.8-0.8s-0.8,0.4-0.8,0.8v17.9c0,1.6-1.2,2.8-2.8,2.8s-2.8-1.3-2.8-2.8V37.7c0-4.5,3.5-8,8-8h16.1
		C738.9,29.7,742.5,33.3,742.7,37.7z"/>
	<path class="st0" d="M772,21.7c0,3.5,2.9,6.4,6.4,6.4s6.4-2.9,6.4-6.4s-2.9-6.4-6.4-6.4S772,18.2,772,21.7z M794.6,37.7v19.5
		c0,1.6-1.2,2.8-2.8,2.8s-2.8-1.3-2.8-2.8V39.3c0-0.5-0.4-0.8-0.8-0.8s-0.8,0.4-0.8,0.8v48.4c0,2.4-1.8,4.4-4,4.4c-2.2,0-4-2-4-4.4
		V60.1c0-0.5-0.4-0.8-0.8-0.8s-0.8,0.4-0.8,0.8v27.6c0,2.4-1.8,4.4-4,4.4c-2.2,0-4-2-4-4.4V39.3c0-0.5-0.4-0.8-0.8-0.8
		s-0.8,0.4-0.8,0.8v17.9c0,1.6-1.2,2.8-2.8,2.8s-2.8-1.3-2.8-2.8V37.7c0-4.5,3.5-8,8-8h16C790.8,29.7,794.5,33.3,794.6,37.7z"/>
	<path class="st0" d="M816.7,21.7c0,3.5,2.9,6.4,6.4,6.4c3.5,0,6.4-2.9,6.4-6.4s-2.9-6.4-6.4-6.4C819.6,15.3,816.7,18.2,816.7,21.7z
		 M839.3,37.7v19.5c0,1.6-1.2,2.8-2.8,2.8s-2.8-1.3-2.8-2.8V39.3c0-0.5-0.4-0.8-0.8-0.8s-0.8,0.4-0.8,0.8v48.4c0,2.4-1.8,4.4-4,4.4
		s-4-2-4-4.4V60.1c0-0.5-0.4-0.8-0.8-0.8c-0.5,0-0.8,0.4-0.8,0.8v27.6c0,2.4-1.8,4.4-4,4.4s-4-2-4-4.4V39.3c0-0.5-0.4-0.8-0.8-0.8
		s-0.8,0.4-0.8,0.8v17.9c0,1.6-1.2,2.8-2.8,2.8s-2.8-1.3-2.8-2.8V37.7c0-4.5,3.5-8,8-8h16C835.5,29.7,839.3,33.3,839.3,37.7z"/>
	<path class="st0" d="M861.5,21.7c0,3.5,2.9,6.4,6.4,6.4c3.5,0,6.4-2.9,6.4-6.4s-2.9-6.4-6.4-6.4C864.4,15.3,861.5,18.2,861.5,21.7z
		 M884.1,37.7v19.5c0,1.6-1.2,2.8-2.8,2.8s-2.8-1.3-2.8-2.8V39.3c0-0.5-0.4-0.8-0.8-0.8s-0.8,0.4-0.8,0.8v48.4c0,2.4-1.8,4.4-4,4.4
		c-2.2,0-4-2-4-4.4V60.1c0-0.5-0.4-0.8-0.8-0.8s-0.8,0.4-0.8,0.8v27.6c0,2.4-1.8,4.4-4,4.4c-2.2,0-4-2-4-4.4V39.3
		c0-0.5-0.4-0.8-0.8-0.8s-0.8,0.4-0.8,0.8v17.9c0,1.6-1.2,2.8-2.8,2.8s-2.8-1.3-2.8-2.8V37.7c0-4.5,3.5-8,8-8h16
		C880.3,29.7,884,33.3,884.1,37.7z"/>
	<path class="st0" d="M906.2,21.7c0,3.5,2.9,6.4,6.4,6.4s6.4-2.9,6.4-6.4s-2.9-6.4-6.4-6.4C909.1,15.3,906.2,18.2,906.2,21.7z
		 M928.8,37.7v19.5c0,1.6-1.2,2.8-2.8,2.8s-2.8-1.3-2.8-2.8V39.3c0-0.5-0.4-0.8-0.8-0.8c-0.5,0-0.8,0.4-0.8,0.8v48.4
		c0,2.4-1.8,4.4-4,4.4c-2.2,0-4-2-4-4.4V60.1c0-0.5-0.4-0.8-0.8-0.8c-0.5,0-0.8,0.4-0.8,0.8v27.6c0,2.4-1.8,4.4-4,4.4
		c-2.2,0-4-2-4-4.4V39.3c0-0.5-0.4-0.8-0.8-0.8s-0.8,0.4-0.8,0.8v17.9c0,1.6-1.2,2.8-2.8,2.8c-1.6,0-2.8-1.3-2.8-2.8V37.7
		c0-4.5,3.5-8,8-8h16C925,29.7,928.7,33.3,928.8,37.7z"/>
	<path class="st0" d="M950.9,21.7c0,3.5,2.9,6.4,6.4,6.4s6.4-2.9,6.4-6.4s-2.9-6.4-6.4-6.4S950.9,18.2,950.9,21.7z M973.5,37.7v19.5
		c0,1.6-1.2,2.8-2.8,2.8s-2.8-1.3-2.8-2.8V39.3c0-0.5-0.4-0.8-0.8-0.8c-0.5,0-0.8,0.4-0.8,0.8v48.4c0,2.4-1.8,4.4-4,4.4
		c-2.2,0-4-2-4-4.4V60.1c0-0.5-0.4-0.8-0.8-0.8s-0.8,0.4-0.8,0.8v27.6c0,2.4-1.8,4.4-4,4.4s-4-2-4-4.4V39.3c0-0.5-0.4-0.8-0.8-0.8
		s-0.8,0.4-0.8,0.8v17.9c0,1.6-1.2,2.8-2.8,2.8s-2.8-1.3-2.8-2.8V37.7c0-4.5,3.5-8,8-8h16C969.7,29.7,973.4,33.3,973.5,37.7z"/>
	<path class="st0" d="M541.2,124.9c0,3.5,2.9,6.4,6.4,6.4c3.5,0,6.4-2.9,6.4-6.4c0-3.5-2.9-6.4-6.4-6.4
		C544.1,118.4,541.2,121.4,541.2,124.9z M563.8,140.9v19.5c0,1.6-1.2,2.8-2.8,2.8c-1.6,0-2.8-1.3-2.8-2.8v-17.9
		c0-0.5-0.4-0.8-0.8-0.8s-0.8,0.4-0.8,0.8V191c0,2.4-1.8,4.4-4,4.4s-4-2-4-4.4v-27.6c0-0.5-0.4-0.8-0.8-0.8s-0.8,0.4-0.8,0.8V191
		c0,2.4-1.8,4.4-4,4.4s-4-2-4-4.4v-48.4c0-0.5-0.4-0.8-0.8-0.8s-0.8,0.4-0.8,0.8v17.9c0,1.6-1.2,2.8-2.8,2.8c-1.6,0-2.8-1.3-2.8-2.8
		v-19.5c0-4.5,3.5-8,8-8h16C560,132.9,563.6,136.5,563.8,140.9z"/>
	<path class="st0" d="M585.9,124.9c0,3.5,2.9,6.4,6.4,6.4c3.5,0,6.4-2.9,6.4-6.4c0-3.5-2.9-6.4-6.4-6.4
		C588.8,118.4,585.9,121.4,585.9,124.9z M608.5,140.9v19.5c0,1.6-1.2,2.8-2.8,2.8c-1.6,0-2.8-1.3-2.8-2.8v-17.9
		c0-0.5-0.4-0.8-0.8-0.8s-0.8,0.4-0.8,0.8V191c0,2.4-1.8,4.4-4,4.4c-2.2,0-4-2-4-4.4v-27.6c0-0.5-0.4-0.8-0.8-0.8
		c-0.5,0-0.8,0.4-0.8,0.8V191c0,2.4-1.8,4.4-4,4.4s-4-2-4-4.4v-48.4c0-0.5-0.4-0.8-0.8-0.8s-0.8,0.4-0.8,0.8v17.9
		c0,1.6-1.2,2.8-2.8,2.8c-1.6,0-2.8-1.3-2.8-2.8v-19.5c0-4.5,3.5-8,8-8h16C604.7,132.9,608.4,136.5,608.5,140.9z"/>
	<path class="st0" d="M630.7,124.9c0,3.5,2.9,6.4,6.4,6.4s6.4-2.9,6.4-6.4c0-3.5-2.9-6.4-6.4-6.4S630.7,121.4,630.7,124.9z
		 M653.3,140.9v19.5c0,1.6-1.2,2.8-2.8,2.8s-2.8-1.3-2.8-2.8v-17.9c0-0.5-0.4-0.8-0.8-0.8c-0.5,0-0.8,0.4-0.8,0.8V191
		c0,2.4-1.8,4.4-4,4.4s-4-2-4-4.4v-27.6c0-0.5-0.4-0.8-0.8-0.8s-0.8,0.4-0.8,0.8V191c0,2.4-1.8,4.4-4,4.4s-4-2-4-4.4v-48.4
		c0-0.5-0.4-0.8-0.8-0.8s-0.8,0.4-0.8,0.8v17.9c0,1.6-1.2,2.8-2.8,2.8s-2.8-1.3-2.8-2.8v-19.5c0-4.5,3.5-8,8-8h16
		C649.5,132.9,653.1,136.5,653.3,140.9z"/>
	<path class="st0" d="M675.4,124.9c0,3.5,2.9,6.4,6.4,6.4c3.5,0,6.4-2.9,6.4-6.4c0-3.5-2.9-6.4-6.4-6.4
		C678.3,118.4,675.4,121.4,675.4,124.9z M698,140.9v19.5c0,1.6-1.2,2.8-2.8,2.8s-2.8-1.3-2.8-2.8v-17.9c0-0.5-0.4-0.8-0.8-0.8
		s-0.8,0.4-0.8,0.8V191c0,2.4-1.8,4.4-4,4.4c-2.2,0-4-2-4-4.4v-27.6c0-0.5-0.4-0.8-0.8-0.8c-0.5,0-0.8,0.4-0.8,0.8V191
		c0,2.4-1.8,4.4-4,4.4s-4-2-4-4.4v-48.4c0-0.5-0.4-0.8-0.8-0.8s-0.8,0.4-0.8,0.8v17.9c0,1.6-1.2,2.8-2.8,2.8c-1.6,0-2.8-1.3-2.8-2.8
		v-19.5c0-4.5,3.5-8,8-8h16C694.2,132.9,697.8,136.5,698,140.9z"/>
	<path class="st0" d="M720.1,124.9c0,3.5,2.9,6.4,6.4,6.4c3.5,0,6.4-2.9,6.4-6.4c0-3.5-2.9-6.4-6.4-6.4
		C723,118.4,720.1,121.4,720.1,124.9z M742.7,140.9v19.5c0,1.6-1.2,2.8-2.8,2.8s-2.8-1.3-2.8-2.8v-17.9c0-0.5-0.4-0.8-0.8-0.8
		s-0.8,0.4-0.8,0.8V191c0,2.4-1.8,4.4-4,4.4c-2.2,0-4-2-4-4.4v-27.6c0-0.5-0.4-0.8-0.8-0.8s-0.8,0.4-0.8,0.8V191
		c0,2.4-1.8,4.4-4,4.4c-2.2,0-4-2-4-4.4v-48.4c0-0.5-0.4-0.8-0.8-0.8s-0.8,0.4-0.8,0.8v17.9c0,1.6-1.2,2.8-2.8,2.8s-2.8-1.3-2.8-2.8
		v-19.5c0-4.5,3.5-8,8-8h16.1C738.9,132.9,742.5,136.5,742.7,140.9z"/>
	<path class="st0" d="M772,124.9c0,3.5,2.9,6.4,6.4,6.4s6.4-2.9,6.4-6.4c0-3.5-2.9-6.4-6.4-6.4S772,121.4,772,124.9z M794.6,140.9
		v19.5c0,1.6-1.2,2.8-2.8,2.8s-2.8-1.3-2.8-2.8v-17.9c0-0.5-0.4-0.8-0.8-0.8s-0.8,0.4-0.8,0.8V191c0,2.4-1.8,4.4-4,4.4
		c-2.2,0-4-2-4-4.4v-27.6c0-0.5-0.4-0.8-0.8-0.8s-0.8,0.4-0.8,0.8V191c0,2.4-1.8,4.4-4,4.4c-2.2,0-4-2-4-4.4v-48.4
		c0-0.5-0.4-0.8-0.8-0.8s-0.8,0.4-0.8,0.8v17.9c0,1.6-1.2,2.8-2.8,2.8s-2.8-1.3-2.8-2.8v-19.5c0-4.5,3.5-8,8-8h16
		C790.8,132.9,794.5,136.5,794.6,140.9z"/>
	<path class="st0" d="M816.7,124.9c0,3.5,2.9,6.4,6.4,6.4c3.5,0,6.4-2.9,6.4-6.4c0-3.5-2.9-6.4-6.4-6.4
		C819.6,118.4,816.7,121.4,816.7,124.9z M839.3,140.9v19.5c0,1.6-1.2,2.8-2.8,2.8s-2.8-1.3-2.8-2.8v-17.9c0-0.5-0.4-0.8-0.8-0.8
		s-0.8,0.4-0.8,0.8V191c0,2.4-1.8,4.4-4,4.4s-4-2-4-4.4v-27.6c0-0.5-0.4-0.8-0.8-0.8c-0.5,0-0.8,0.4-0.8,0.8V191
		c0,2.4-1.8,4.4-4,4.4s-4-2-4-4.4v-48.4c0-0.5-0.4-0.8-0.8-0.8s-0.8,0.4-0.8,0.8v17.9c0,1.6-1.2,2.8-2.8,2.8s-2.8-1.3-2.8-2.8v-19.5
		c0-4.5,3.5-8,8-8h16C835.5,132.9,839.3,136.5,839.3,140.9z"/>
	<path class="st0" d="M861.5,124.9c0,3.5,2.9,6.4,6.4,6.4c3.5,0,6.4-2.9,6.4-6.4c0-3.5-2.9-6.4-6.4-6.4
		C864.4,118.4,861.5,121.4,861.5,124.9z M884.1,140.9v19.5c0,1.6-1.2,2.8-2.8,2.8s-2.8-1.3-2.8-2.8v-17.9c0-0.5-0.4-0.8-0.8-0.8
		s-0.8,0.4-0.8,0.8V191c0,2.4-1.8,4.4-4,4.4c-2.2,0-4-2-4-4.4v-27.6c0-0.5-0.4-0.8-0.8-0.8s-0.8,0.4-0.8,0.8V191
		c0,2.4-1.8,4.4-4,4.4c-2.2,0-4-2-4-4.4v-48.4c0-0.5-0.4-0.8-0.8-0.8s-0.8,0.4-0.8,0.8v17.9c0,1.6-1.2,2.8-2.8,2.8s-2.8-1.3-2.8-2.8
		v-19.5c0-4.5,3.5-8,8-8h16C880.3,132.9,884,136.5,884.1,140.9z"/>
	<path class="st0" d="M906.2,124.9c0,3.5,2.9,6.4,6.4,6.4s6.4-2.9,6.4-6.4c0-3.5-2.9-6.4-6.4-6.4
		C909.1,118.4,906.2,121.4,906.2,124.9z M928.8,140.9v19.5c0,1.6-1.2,2.8-2.8,2.8s-2.8-1.3-2.8-2.8v-17.9c0-0.5-0.4-0.8-0.8-0.8
		c-0.5,0-0.8,0.4-0.8,0.8V191c0,2.4-1.8,4.4-4,4.4c-2.2,0-4-2-4-4.4v-27.6c0-0.5-0.4-0.8-0.8-0.8c-0.5,0-0.8,0.4-0.8,0.8V191
		c0,2.4-1.8,4.4-4,4.4c-2.2,0-4-2-4-4.4v-48.4c0-0.5-0.4-0.8-0.8-0.8s-0.8,0.4-0.8,0.8v17.9c0,1.6-1.2,2.8-2.8,2.8
		c-1.6,0-2.8-1.3-2.8-2.8v-19.5c0-4.5,3.5-8,8-8h16C925,132.9,928.7,136.5,928.8,140.9z"/>
	<path class="st0" d="M950.9,124.9c0,3.5,2.9,6.4,6.4,6.4s6.4-2.9,6.4-6.4c0-3.5-2.9-6.4-6.4-6.4S950.9,121.4,950.9,124.9z
		 M973.5,140.9v19.5c0,1.6-1.2,2.8-2.8,2.8s-2.8-1.3-2.8-2.8v-17.9c0-0.5-0.4-0.8-0.8-0.8c-0.5,0-0.8,0.4-0.8,0.8V191
		c0,2.4-1.8,4.4-4,4.4c-2.2,0-4-2-4-4.4v-27.6c0-0.5-0.4-0.8-0.8-0.8s-0.8,0.4-0.8,0.8V191c0,2.4-1.8,4.4-4,4.4s-4-2-4-4.4v-48.4
		c0-0.5-0.4-0.8-0.8-0.8s-0.8,0.4-0.8,0.8v17.9c0,1.6-1.2,2.8-2.8,2.8s-2.8-1.3-2.8-2.8v-19.5c0-4.5,3.5-8,8-8h16
		C969.7,132.9,973.4,136.5,973.5,140.9z"/>
	<path class="st0" d="M541.2,228.3c0,3.5,2.9,6.4,6.4,6.4c3.5,0,6.4-2.9,6.4-6.4c0-3.5-2.9-6.4-6.4-6.4
		C544.1,221.8,541.2,224.7,541.2,228.3z M563.8,244.3v19.5c0,1.6-1.2,2.8-2.8,2.8c-1.6,0-2.8-1.3-2.8-2.8v-17.9
		c0-0.5-0.4-0.8-0.8-0.8s-0.8,0.4-0.8,0.8v48.4c0,2.4-1.8,4.4-4,4.4s-4-2-4-4.4v-27.6c0-0.5-0.4-0.8-0.8-0.8s-0.8,0.4-0.8,0.8v27.6
		c0,2.4-1.8,4.4-4,4.4s-4-2-4-4.4v-48.4c0-0.5-0.4-0.8-0.8-0.8s-0.8,0.4-0.8,0.8v17.9c0,1.6-1.2,2.8-2.8,2.8c-1.6,0-2.8-1.3-2.8-2.8
		v-19.5c0-4.5,3.5-8,8-8h16C560,236.3,563.6,239.9,563.8,244.3z"/>
	<path class="st0" d="M585.9,228.3c0,3.5,2.9,6.4,6.4,6.4c3.5,0,6.4-2.9,6.4-6.4c0-3.5-2.9-6.4-6.4-6.4
		C588.8,221.8,585.9,224.7,585.9,228.3z M608.5,244.3v19.5c0,1.6-1.2,2.8-2.8,2.8c-1.6,0-2.8-1.3-2.8-2.8v-17.9
		c0-0.5-0.4-0.8-0.8-0.8s-0.8,0.4-0.8,0.8v48.4c0,2.4-1.8,4.4-4,4.4c-2.2,0-4-2-4-4.4v-27.6c0-0.5-0.4-0.8-0.8-0.8
		c-0.5,0-0.8,0.4-0.8,0.8v27.6c0,2.4-1.8,4.4-4,4.4s-4-2-4-4.4v-48.4c0-0.5-0.4-0.8-0.8-0.8s-0.8,0.4-0.8,0.8v17.9
		c0,1.6-1.2,2.8-2.8,2.8c-1.6,0-2.8-1.3-2.8-2.8v-19.5c0-4.5,3.5-8,8-8h16C604.7,236.3,608.4,239.9,608.5,244.3z"/>
	<path class="st0" d="M630.7,228.3c0,3.5,2.9,6.4,6.4,6.4s6.4-2.9,6.4-6.4c0-3.5-2.9-6.4-6.4-6.4S630.7,224.7,630.7,228.3z
		 M653.3,244.3v19.5c0,1.6-1.2,2.8-2.8,2.8s-2.8-1.3-2.8-2.8v-17.9c0-0.5-0.4-0.8-0.8-0.8c-0.5,0-0.8,0.4-0.8,0.8v48.4
		c0,2.4-1.8,4.4-4,4.4s-4-2-4-4.4v-27.6c0-0.5-0.4-0.8-0.8-0.8s-0.8,0.4-0.8,0.8v27.6c0,2.4-1.8,4.4-4,4.4s-4-2-4-4.4v-48.4
		c0-0.5-0.4-0.8-0.8-0.8s-0.8,0.4-0.8,0.8v17.9c0,1.6-1.2,2.8-2.8,2.8s-2.8-1.3-2.8-2.8v-19.5c0-4.5,3.5-8,8-8h16
		C649.5,236.3,653.1,239.9,653.3,244.3z"/>
	<path class="st0" d="M675.4,228.3c0,3.5,2.9,6.4,6.4,6.4c3.5,0,6.4-2.9,6.4-6.4c0-3.5-2.9-6.4-6.4-6.4
		C678.3,221.8,675.4,224.7,675.4,228.3z M698,244.3v19.5c0,1.6-1.2,2.8-2.8,2.8s-2.8-1.3-2.8-2.8v-17.9c0-0.5-0.4-0.8-0.8-0.8
		s-0.8,0.4-0.8,0.8v48.4c0,2.4-1.8,4.4-4,4.4c-2.2,0-4-2-4-4.4v-27.6c0-0.5-0.4-0.8-0.8-0.8c-0.5,0-0.8,0.4-0.8,0.8v27.6
		c0,2.4-1.8,4.4-4,4.4s-4-2-4-4.4v-48.4c0-0.5-0.4-0.8-0.8-0.8s-0.8,0.4-0.8,0.8v17.9c0,1.6-1.2,2.8-2.8,2.8c-1.6,0-2.8-1.3-2.8-2.8
		v-19.5c0-4.5,3.5-8,8-8h16C694.2,236.3,697.8,239.9,698,244.3z"/>
	<path class="st0" d="M720.1,228.3c0,3.5,2.9,6.4,6.4,6.4c3.5,0,6.4-2.9,6.4-6.4c0-3.5-2.9-6.4-6.4-6.4
		C723,221.8,720.1,224.7,720.1,228.3z M742.7,244.3v19.5c0,1.6-1.2,2.8-2.8,2.8s-2.8-1.3-2.8-2.8v-17.9c0-0.5-0.4-0.8-0.8-0.8
		s-0.8,0.4-0.8,0.8v48.4c0,2.4-1.8,4.4-4,4.4c-2.2,0-4-2-4-4.4v-27.6c0-0.5-0.4-0.8-0.8-0.8s-0.8,0.4-0.8,0.8v27.6
		c0,2.4-1.8,4.4-4,4.4c-2.2,0-4-2-4-4.4v-48.4c0-0.5-0.4-0.8-0.8-0.8s-0.8,0.4-0.8,0.8v17.9c0,1.6-1.2,2.8-2.8,2.8s-2.8-1.3-2.8-2.8
		v-19.5c0-4.5,3.5-8,8-8h16.1C738.9,236.3,742.5,239.9,742.7,244.3z"/>
	<path class="st1" d="M772,228.3c0,3.5,2.9,6.4,6.4,6.4s6.4-2.9,6.4-6.4c0-3.5-2.9-6.4-6.4-6.4S772,224.7,772,228.3z M794.6,244.3
		v19.5c0,1.6-1.2,2.8-2.8,2.8s-2.8-1.3-2.8-2.8v-17.9c0-0.5-0.4-0.8-0.8-0.8s-0.8,0.4-0.8,0.8v48.4c0,2.4-1.8,4.4-4,4.4
		c-2.2,0-4-2-4-4.4v-27.6c0-0.5-0.4-0.8-0.8-0.8s-0.8,0.4-0.8,0.8v27.6c0,2.4-1.8,4.4-4,4.4c-2.2,0-4-2-4-4.4v-48.4
		c0-0.5-0.4-0.8-0.8-0.8s-0.8,0.4-0.8,0.8v17.9c0,1.6-1.2,2.8-2.8,2.8s-2.8-1.3-2.8-2.8v-19.5c0-4.5,3.5-8,8-8h16
		C790.8,236.3,794.5,239.9,794.6,244.3z"/>
	<path class="st1" d="M816.7,228.3c0,3.5,2.9,6.4,6.4,6.4c3.5,0,6.4-2.9,6.4-6.4c0-3.5-2.9-6.4-6.4-6.4
		C819.6,221.8,816.7,224.7,816.7,228.3z M839.3,244.3v19.5c0,1.6-1.2,2.8-2.8,2.8s-2.8-1.3-2.8-2.8v-17.9c0-0.5-0.4-0.8-0.8-0.8
		s-0.8,0.4-0.8,0.8v48.4c0,2.4-1.8,4.4-4,4.4s-4-2-4-4.4v-27.6c0-0.5-0.4-0.8-0.8-0.8c-0.5,0-0.8,0.4-0.8,0.8v27.6
		c0,2.4-1.8,4.4-4,4.4s-4-2-4-4.4v-48.4c0-0.5-0.4-0.8-0.8-0.8s-0.8,0.4-0.8,0.8v17.9c0,1.6-1.2,2.8-2.8,2.8s-2.8-1.3-2.8-2.8v-19.5
		c0-4.5,3.5-8,8-8h16C835.5,236.3,839.3,239.9,839.3,244.3z"/>
	<path class="st1" d="M861.5,228.3c0,3.5,2.9,6.4,6.4,6.4c3.5,0,6.4-2.9,6.4-6.4c0-3.5-2.9-6.4-6.4-6.4
		C864.4,221.8,861.5,224.7,861.5,228.3z M884.1,244.3v19.5c0,1.6-1.2,2.8-2.8,2.8s-2.8-1.3-2.8-2.8v-17.9c0-0.5-0.4-0.8-0.8-0.8
		s-0.8,0.4-0.8,0.8v48.4c0,2.4-1.8,4.4-4,4.4c-2.2,0-4-2-4-4.4v-27.6c0-0.5-0.4-0.8-0.8-0.8s-0.8,0.4-0.8,0.8v27.6
		c0,2.4-1.8,4.4-4,4.4c-2.2,0-4-2-4-4.4v-48.4c0-0.5-0.4-0.8-0.8-0.8s-0.8,0.4-0.8,0.8v17.9c0,1.6-1.2,2.8-2.8,2.8s-2.8-1.3-2.8-2.8
		v-19.5c0-4.5,3.5-8,8-8h16C880.3,236.3,884,239.9,884.1,244.3z"/>
	<path class="st1" d="M906.2,228.3c0,3.5,2.9,6.4,6.4,6.4s6.4-2.9,6.4-6.4c0-3.5-2.9-6.4-6.4-6.4
		C909.1,221.8,906.2,224.7,906.2,228.3z M928.8,244.3v19.5c0,1.6-1.2,2.8-2.8,2.8s-2.8-1.3-2.8-2.8v-17.9c0-0.5-0.4-0.8-0.8-0.8
		c-0.5,0-0.8,0.4-0.8,0.8v48.4c0,2.4-1.8,4.4-4,4.4c-2.2,0-4-2-4-4.4v-27.6c0-0.5-0.4-0.8-0.8-0.8c-0.5,0-0.8,0.4-0.8,0.8v27.6
		c0,2.4-1.8,4.4-4,4.4c-2.2,0-4-2-4-4.4v-48.4c0-0.5-0.4-0.8-0.8-0.8s-0.8,0.4-0.8,0.8v17.9c0,1.6-1.2,2.8-2.8,2.8
		c-1.6,0-2.8-1.3-2.8-2.8v-19.5c0-4.5,3.5-8,8-8h16C925,236.3,928.7,239.9,928.8,244.3z"/>
	<path class="st1" d="M950.9,228.3c0,3.5,2.9,6.4,6.4,6.4s6.4-2.9,6.4-6.4c0-3.5-2.9-6.4-6.4-6.4S950.9,224.7,950.9,228.3z
		 M973.5,244.3v19.5c0,1.6-1.2,2.8-2.8,2.8s-2.8-1.3-2.8-2.8v-17.9c0-0.5-0.4-0.8-0.8-0.8c-0.5,0-0.8,0.4-0.8,0.8v48.4
		c0,2.4-1.8,4.4-4,4.4c-2.2,0-4-2-4-4.4v-27.6c0-0.5-0.4-0.8-0.8-0.8s-0.8,0.4-0.8,0.8v27.6c0,2.4-1.8,4.4-4,4.4s-4-2-4-4.4v-48.4
		c0-0.5-0.4-0.8-0.8-0.8s-0.8,0.4-0.8,0.8v17.9c0,1.6-1.2,2.8-2.8,2.8s-2.8-1.3-2.8-2.8v-19.5c0-4.5,3.5-8,8-8h16
		C969.7,236.3,973.4,239.9,973.5,244.3z"/>
	<path class="st1" d="M541.2,331.4c0,3.5,2.9,6.4,6.4,6.4c3.5,0,6.4-2.9,6.4-6.4c0-3.5-2.9-6.4-6.4-6.4
		C544.1,325,541.2,327.9,541.2,331.4z M563.8,347.5V367c0,1.6-1.2,2.8-2.8,2.8c-1.6,0-2.8-1.3-2.8-2.8v-17.9c0-0.5-0.4-0.8-0.8-0.8
		s-0.8,0.4-0.8,0.8v48.4c0,2.4-1.8,4.4-4,4.4s-4-2-4-4.4v-27.6c0-0.5-0.4-0.8-0.8-0.8s-0.8,0.4-0.8,0.8v27.6c0,2.4-1.8,4.4-4,4.4
		s-4-2-4-4.4v-48.4c0-0.5-0.4-0.8-0.8-0.8s-0.8,0.4-0.8,0.8V367c0,1.6-1.2,2.8-2.8,2.8c-1.6,0-2.8-1.3-2.8-2.8v-19.5
		c0-4.5,3.5-8,8-8h16C560,339.5,563.6,343,563.8,347.5z"/>
	<path class="st1" d="M585.9,331.4c0,3.5,2.9,6.4,6.4,6.4c3.5,0,6.4-2.9,6.4-6.4c0-3.5-2.9-6.4-6.4-6.4
		C588.8,325,585.9,327.9,585.9,331.4z M608.5,347.5V367c0,1.6-1.2,2.8-2.8,2.8c-1.6,0-2.8-1.3-2.8-2.8v-17.9c0-0.5-0.4-0.8-0.8-0.8
		s-0.8,0.4-0.8,0.8v48.4c0,2.4-1.8,4.4-4,4.4c-2.2,0-4-2-4-4.4v-27.6c0-0.5-0.4-0.8-0.8-0.8c-0.5,0-0.8,0.4-0.8,0.8v27.6
		c0,2.4-1.8,4.4-4,4.4s-4-2-4-4.4v-48.4c0-0.5-0.4-0.8-0.8-0.8s-0.8,0.4-0.8,0.8V367c0,1.6-1.2,2.8-2.8,2.8c-1.6,0-2.8-1.3-2.8-2.8
		v-19.5c0-4.5,3.5-8,8-8h16C604.7,339.5,608.4,343,608.5,347.5z"/>
	<path class="st1" d="M630.7,331.4c0,3.5,2.9,6.4,6.4,6.4s6.4-2.9,6.4-6.4c0-3.5-2.9-6.4-6.4-6.4S630.7,327.9,630.7,331.4z
		 M653.3,347.5V367c0,1.6-1.2,2.8-2.8,2.8s-2.8-1.3-2.8-2.8v-17.9c0-0.5-0.4-0.8-0.8-0.8c-0.5,0-0.8,0.4-0.8,0.8v48.4
		c0,2.4-1.8,4.4-4,4.4s-4-2-4-4.4v-27.6c0-0.5-0.4-0.8-0.8-0.8s-0.8,0.4-0.8,0.8v27.6c0,2.4-1.8,4.4-4,4.4s-4-2-4-4.4v-48.4
		c0-0.5-0.4-0.8-0.8-0.8s-0.8,0.4-0.8,0.8V367c0,1.6-1.2,2.8-2.8,2.8s-2.8-1.3-2.8-2.8v-19.5c0-4.5,3.5-8,8-8h16
		C649.5,339.5,653.1,343,653.3,347.5z"/>
	<path class="st1" d="M675.4,331.4c0,3.5,2.9,6.4,6.4,6.4c3.5,0,6.4-2.9,6.4-6.4c0-3.5-2.9-6.4-6.4-6.4
		C678.3,325,675.4,327.9,675.4,331.4z M698,347.5V367c0,1.6-1.2,2.8-2.8,2.8s-2.8-1.3-2.8-2.8v-17.9c0-0.5-0.4-0.8-0.8-0.8
		s-0.8,0.4-0.8,0.8v48.4c0,2.4-1.8,4.4-4,4.4c-2.2,0-4-2-4-4.4v-27.6c0-0.5-0.4-0.8-0.8-0.8c-0.5,0-0.8,0.4-0.8,0.8v27.6
		c0,2.4-1.8,4.4-4,4.4s-4-2-4-4.4v-48.4c0-0.5-0.4-0.8-0.8-0.8s-0.8,0.4-0.8,0.8V367c0,1.6-1.2,2.8-2.8,2.8c-1.6,0-2.8-1.3-2.8-2.8
		v-19.5c0-4.5,3.5-8,8-8h16C694.2,339.5,697.8,343,698,347.5z"/>
	<path class="st1" d="M720.1,331.4c0,3.5,2.9,6.4,6.4,6.4c3.5,0,6.4-2.9,6.4-6.4c0-3.5-2.9-6.4-6.4-6.4
		C723,325,720.1,327.9,720.1,331.4z M742.7,347.5V367c0,1.6-1.2,2.8-2.8,2.8s-2.8-1.3-2.8-2.8v-17.9c0-0.5-0.4-0.8-0.8-0.8
		s-0.8,0.4-0.8,0.8v48.4c0,2.4-1.8,4.4-4,4.4c-2.2,0-4-2-4-4.4v-27.6c0-0.5-0.4-0.8-0.8-0.8s-0.8,0.4-0.8,0.8v27.6
		c0,2.4-1.8,4.4-4,4.4c-2.2,0-4-2-4-4.4v-48.4c0-0.5-0.4-0.8-0.8-0.8s-0.8,0.4-0.8,0.8V367c0,1.6-1.2,2.8-2.8,2.8s-2.8-1.3-2.8-2.8
		v-19.5c0-4.5,3.5-8,8-8h16.1C738.9,339.5,742.5,343,742.7,347.5z"/>
	<path class="st1" d="M772,331.4c0,3.5,2.9,6.4,6.4,6.4s6.4-2.9,6.4-6.4c0-3.5-2.9-6.4-6.4-6.4S772,327.9,772,331.4z M794.6,347.5
		V367c0,1.6-1.2,2.8-2.8,2.8s-2.8-1.3-2.8-2.8v-17.9c0-0.5-0.4-0.8-0.8-0.8s-0.8,0.4-0.8,0.8v48.4c0,2.4-1.8,4.4-4,4.4
		c-2.2,0-4-2-4-4.4v-27.6c0-0.5-0.4-0.8-0.8-0.8s-0.8,0.4-0.8,0.8v27.6c0,2.4-1.8,4.4-4,4.4c-2.2,0-4-2-4-4.4v-48.4
		c0-0.5-0.4-0.8-0.8-0.8s-0.8,0.4-0.8,0.8V367c0,1.6-1.2,2.8-2.8,2.8s-2.8-1.3-2.8-2.8v-19.5c0-4.5,3.5-8,8-8h16
		C790.8,339.5,794.5,343,794.6,347.5z"/>
	<path class="st1" d="M816.7,331.4c0,3.5,2.9,6.4,6.4,6.4c3.5,0,6.4-2.9,6.4-6.4c0-3.5-2.9-6.4-6.4-6.4
		C819.6,325,816.7,327.9,816.7,331.4z M839.3,347.5V367c0,1.6-1.2,2.8-2.8,2.8s-2.8-1.3-2.8-2.8v-17.9c0-0.5-0.4-0.8-0.8-0.8
		s-0.8,0.4-0.8,0.8v48.4c0,2.4-1.8,4.4-4,4.4s-4-2-4-4.4v-27.6c0-0.5-0.4-0.8-0.8-0.8c-0.5,0-0.8,0.4-0.8,0.8v27.6
		c0,2.4-1.8,4.4-4,4.4s-4-2-4-4.4v-48.4c0-0.5-0.4-0.8-0.8-0.8s-0.8,0.4-0.8,0.8V367c0,1.6-1.2,2.8-2.8,2.8s-2.8-1.3-2.8-2.8v-19.5
		c0-4.5,3.5-8,8-8h16C835.5,339.5,839.3,343,839.3,347.5z"/>
	<path class="st1" d="M861.5,331.4c0,3.5,2.9,6.4,6.4,6.4c3.5,0,6.4-2.9,6.4-6.4c0-3.5-2.9-6.4-6.4-6.4
		C864.4,325,861.5,327.9,861.5,331.4z M884.1,347.5V367c0,1.6-1.2,2.8-2.8,2.8s-2.8-1.3-2.8-2.8v-17.9c0-0.5-0.4-0.8-0.8-0.8
		s-0.8,0.4-0.8,0.8v48.4c0,2.4-1.8,4.4-4,4.4c-2.2,0-4-2-4-4.4v-27.6c0-0.5-0.4-0.8-0.8-0.8s-0.8,0.4-0.8,0.8v27.6
		c0,2.4-1.8,4.4-4,4.4c-2.2,0-4-2-4-4.4v-48.4c0-0.5-0.4-0.8-0.8-0.8s-0.8,0.4-0.8,0.8V367c0,1.6-1.2,2.8-2.8,2.8s-2.8-1.3-2.8-2.8
		v-19.5c0-4.5,3.5-8,8-8h16C880.3,339.5,884,343,884.1,347.5z"/>
	<path class="st1" d="M906.2,331.4c0,3.5,2.9,6.4,6.4,6.4s6.4-2.9,6.4-6.4c0-3.5-2.9-6.4-6.4-6.4C909.1,325,906.2,327.9,906.2,331.4
		z M928.8,347.5V367c0,1.6-1.2,2.8-2.8,2.8s-2.8-1.3-2.8-2.8v-17.9c0-0.5-0.4-0.8-0.8-0.8c-0.5,0-0.8,0.4-0.8,0.8v48.4
		c0,2.4-1.8,4.4-4,4.4c-2.2,0-4-2-4-4.4v-27.6c0-0.5-0.4-0.8-0.8-0.8c-0.5,0-0.8,0.4-0.8,0.8v27.6c0,2.4-1.8,4.4-4,4.4
		c-2.2,0-4-2-4-4.4v-48.4c0-0.5-0.4-0.8-0.8-0.8s-0.8,0.4-0.8,0.8V367c0,1.6-1.2,2.8-2.8,2.8c-1.6,0-2.8-1.3-2.8-2.8v-19.5
		c0-4.5,3.5-8,8-8h16C925,339.5,928.7,343,928.8,347.5z"/>
	<path class="st1" d="M950.9,331.4c0,3.5,2.9,6.4,6.4,6.4s6.4-2.9,6.4-6.4c0-3.5-2.9-6.4-6.4-6.4S950.9,327.9,950.9,331.4z
		 M973.5,347.5V367c0,1.6-1.2,2.8-2.8,2.8s-2.8-1.3-2.8-2.8v-17.9c0-0.5-0.4-0.8-0.8-0.8c-0.5,0-0.8,0.4-0.8,0.8v48.4
		c0,2.4-1.8,4.4-4,4.4c-2.2,0-4-2-4-4.4v-27.6c0-0.5-0.4-0.8-0.8-0.8s-0.8,0.4-0.8,0.8v27.6c0,2.4-1.8,4.4-4,4.4s-4-2-4-4.4v-48.4
		c0-0.5-0.4-0.8-0.8-0.8s-0.8,0.4-0.8,0.8V367c0,1.6-1.2,2.8-2.8,2.8s-2.8-1.3-2.8-2.8v-19.5c0-4.5,3.5-8,8-8h16
		C969.7,339.5,973.4,343,973.5,347.5z"/>
	<path class="st0" d="M1002.5,21.7c0,3.5,2.9,6.4,6.4,6.4c3.5,0,6.4-2.9,6.4-6.4s-2.9-6.4-6.4-6.4
		C1005.4,15.3,1002.5,18.2,1002.5,21.7z M1025.1,37.7v19.5c0,1.6-1.2,2.8-2.8,2.8s-2.8-1.3-2.8-2.8V39.3c0-0.5-0.4-0.8-0.8-0.8
		s-0.8,0.4-0.8,0.8v48.4c0,2.4-1.8,4.4-4,4.4c-2.2,0-4-2-4-4.4V60.1c0-0.5-0.4-0.8-0.8-0.8s-0.8,0.4-0.8,0.8v27.6
		c0,2.4-1.8,4.4-4,4.4s-4-2-4-4.4V39.3c0-0.5-0.4-0.8-0.8-0.8c-0.5,0-0.8,0.4-0.8,0.8v17.9c0,1.6-1.2,2.8-2.8,2.8s-2.8-1.3-2.8-2.8
		V37.7c0-4.5,3.5-8,8-8h16C1021.3,29.7,1025,33.3,1025.1,37.7z"/>
	<path class="st0" d="M1047.2,21.7c0,3.5,2.9,6.4,6.4,6.4s6.4-2.9,6.4-6.4s-2.9-6.4-6.4-6.4S1047.2,18.2,1047.2,21.7z M1069.8,37.7
		v19.5c0,1.6-1.2,2.8-2.8,2.8c-1.6,0-2.8-1.3-2.8-2.8V39.3c0-0.5-0.4-0.8-0.8-0.8s-0.8,0.4-0.8,0.8v48.4c0,2.4-1.8,4.4-4,4.4
		s-4-2-4-4.4V60.1c0-0.5-0.4-0.8-0.8-0.8s-0.8,0.4-0.8,0.8v27.6c0,2.4-1.8,4.4-4,4.4s-4-2-4-4.4V39.3c0-0.5-0.4-0.8-0.8-0.8
		c-0.5,0-0.8,0.4-0.8,0.8v17.9c0,1.6-1.2,2.8-2.8,2.8c-1.6,0-2.8-1.3-2.8-2.8V37.7c0-4.5,3.5-8,8-8h16
		C1066,29.7,1069.7,33.3,1069.8,37.7z"/>
	<path class="st0" d="M1091.9,21.7c0,3.5,2.9,6.4,6.4,6.4c3.5,0,6.4-2.9,6.4-6.4s-2.9-6.4-6.4-6.4
		C1094.8,15.3,1091.9,18.2,1091.9,21.7z M1114.5,37.7v19.5c0,1.6-1.2,2.8-2.8,2.8s-2.8-1.3-2.8-2.8V39.3c0-0.5-0.4-0.8-0.8-0.8
		s-0.8,0.4-0.8,0.8v48.4c0,2.4-1.8,4.4-4,4.4c-2.2,0-4-2-4-4.4V60.1c0-0.5-0.4-0.8-0.8-0.8s-0.8,0.4-0.8,0.8v27.6
		c0,2.4-1.8,4.4-4,4.4s-4-2-4-4.4V39.3c0-0.5-0.4-0.8-0.8-0.8s-0.8,0.4-0.8,0.8v17.9c0,1.6-1.2,2.8-2.8,2.8c-1.6,0-2.8-1.3-2.8-2.8
		V37.7c0-4.5,3.5-8,8-8h16C1110.7,29.7,1114.4,33.3,1114.5,37.7z"/>
	<path class="st0" d="M1136.7,21.7c0,3.5,2.9,6.4,6.4,6.4s6.4-2.9,6.4-6.4s-2.9-6.4-6.4-6.4C1139.6,15.3,1136.7,18.2,1136.7,21.7z
		 M1159.3,37.7v19.5c0,1.6-1.2,2.8-2.8,2.8c-1.6,0-2.8-1.3-2.8-2.8V39.3c0-0.5-0.4-0.8-0.8-0.8s-0.8,0.4-0.8,0.8v48.4
		c0,2.4-1.8,4.4-4,4.4c-2.2,0-4-2-4-4.4V60.1c0-0.5-0.4-0.8-0.8-0.8c-0.5,0-0.8,0.4-0.8,0.8v27.6c0,2.4-1.8,4.4-4,4.4
		c-2.2,0-4-2-4-4.4V39.3c0-0.5-0.4-0.8-0.8-0.8s-0.8,0.4-0.8,0.8v17.9c0,1.6-1.2,2.8-2.8,2.8c-1.6,0-2.8-1.3-2.8-2.8V37.7
		c0-4.5,3.5-8,8-8h16C1155.5,29.7,1159.2,33.3,1159.3,37.7z"/>
	<path class="st0" d="M1181.4,21.7c0,3.5,2.9,6.4,6.4,6.4c3.5,0,6.4-2.9,6.4-6.4s-2.9-6.4-6.4-6.4S1181.4,18.2,1181.4,21.7z
		 M1204,37.7v19.5c0,1.6-1.2,2.8-2.8,2.8c-1.6,0-2.8-1.3-2.8-2.8V39.3c0-0.5-0.4-0.8-0.8-0.8c-0.5,0-0.8,0.4-0.8,0.8v48.4
		c0,2.4-1.8,4.4-4,4.4c-2.2,0-4-2-4-4.4V60.1c0-0.5-0.4-0.8-0.8-0.8c-0.5,0-0.8,0.4-0.8,0.8v27.6c0,2.4-1.8,4.4-4,4.4
		c-2.2,0-4-2-4-4.4V39.3c0-0.5-0.4-0.8-0.8-0.8s-0.8,0.4-0.8,0.8v17.9c0,1.6-1.2,2.8-2.8,2.8c-1.6,0-2.8-1.3-2.8-2.8V37.7
		c0-4.5,3.5-8,8-8h16C1200.2,29.7,1203.9,33.3,1204,37.7z"/>
	<path class="st0" d="M1002.5,124.9c0,3.5,2.9,6.4,6.4,6.4c3.5,0,6.4-2.9,6.4-6.4c0-3.5-2.9-6.4-6.4-6.4
		C1005.4,118.4,1002.5,121.4,1002.5,124.9z M1025.1,140.9v19.5c0,1.6-1.2,2.8-2.8,2.8s-2.8-1.3-2.8-2.8v-17.9c0-0.5-0.4-0.8-0.8-0.8
		s-0.8,0.4-0.8,0.8V191c0,2.4-1.8,4.4-4,4.4c-2.2,0-4-2-4-4.4v-27.6c0-0.5-0.4-0.8-0.8-0.8s-0.8,0.4-0.8,0.8V191
		c0,2.4-1.8,4.4-4,4.4s-4-2-4-4.4v-48.4c0-0.5-0.4-0.8-0.8-0.8c-0.5,0-0.8,0.4-0.8,0.8v17.9c0,1.6-1.2,2.8-2.8,2.8s-2.8-1.3-2.8-2.8
		v-19.5c0-4.5,3.5-8,8-8h16C1021.3,132.9,1025,136.5,1025.1,140.9z"/>
	<path class="st0" d="M1047.2,124.9c0,3.5,2.9,6.4,6.4,6.4s6.4-2.9,6.4-6.4c0-3.5-2.9-6.4-6.4-6.4S1047.2,121.4,1047.2,124.9z
		 M1069.8,140.9v19.5c0,1.6-1.2,2.8-2.8,2.8c-1.6,0-2.8-1.3-2.8-2.8v-17.9c0-0.5-0.4-0.8-0.8-0.8s-0.8,0.4-0.8,0.8V191
		c0,2.4-1.8,4.4-4,4.4s-4-2-4-4.4v-27.6c0-0.5-0.4-0.8-0.8-0.8s-0.8,0.4-0.8,0.8V191c0,2.4-1.8,4.4-4,4.4s-4-2-4-4.4v-48.4
		c0-0.5-0.4-0.8-0.8-0.8c-0.5,0-0.8,0.4-0.8,0.8v17.9c0,1.6-1.2,2.8-2.8,2.8c-1.6,0-2.8-1.3-2.8-2.8v-19.5c0-4.5,3.5-8,8-8h16
		C1066,132.9,1069.7,136.5,1069.8,140.9z"/>
	<path class="st0" d="M1091.9,124.9c0,3.5,2.9,6.4,6.4,6.4c3.5,0,6.4-2.9,6.4-6.4c0-3.5-2.9-6.4-6.4-6.4
		C1094.8,118.4,1091.9,121.4,1091.9,124.9z M1114.5,140.9v19.5c0,1.6-1.2,2.8-2.8,2.8s-2.8-1.3-2.8-2.8v-17.9c0-0.5-0.4-0.8-0.8-0.8
		s-0.8,0.4-0.8,0.8V191c0,2.4-1.8,4.4-4,4.4c-2.2,0-4-2-4-4.4v-27.6c0-0.5-0.4-0.8-0.8-0.8s-0.8,0.4-0.8,0.8V191
		c0,2.4-1.8,4.4-4,4.4s-4-2-4-4.4v-48.4c0-0.5-0.4-0.8-0.8-0.8s-0.8,0.4-0.8,0.8v17.9c0,1.6-1.2,2.8-2.8,2.8c-1.6,0-2.8-1.3-2.8-2.8
		v-19.5c0-4.5,3.5-8,8-8h16C1110.7,132.9,1114.4,136.5,1114.5,140.9z"/>
	<path class="st0" d="M1136.7,124.9c0,3.5,2.9,6.4,6.4,6.4s6.4-2.9,6.4-6.4c0-3.5-2.9-6.4-6.4-6.4
		C1139.6,118.4,1136.7,121.4,1136.7,124.9z M1159.3,140.9v19.5c0,1.6-1.2,2.8-2.8,2.8c-1.6,0-2.8-1.3-2.8-2.8v-17.9
		c0-0.5-0.4-0.8-0.8-0.8s-0.8,0.4-0.8,0.8V191c0,2.4-1.8,4.4-4,4.4c-2.2,0-4-2-4-4.4v-27.6c0-0.5-0.4-0.8-0.8-0.8
		c-0.5,0-0.8,0.4-0.8,0.8V191c0,2.4-1.8,4.4-4,4.4c-2.2,0-4-2-4-4.4v-48.4c0-0.5-0.4-0.8-0.8-0.8s-0.8,0.4-0.8,0.8v17.9
		c0,1.6-1.2,2.8-2.8,2.8c-1.6,0-2.8-1.3-2.8-2.8v-19.5c0-4.5,3.5-8,8-8h16C1155.5,132.9,1159.2,136.5,1159.3,140.9z"/>
	<path class="st0" d="M1181.4,124.9c0,3.5,2.9,6.4,6.4,6.4c3.5,0,6.4-2.9,6.4-6.4c0-3.5-2.9-6.4-6.4-6.4
		C1184.3,118.4,1181.4,121.4,1181.4,124.9z M1204,140.9v19.5c0,1.6-1.2,2.8-2.8,2.8c-1.6,0-2.8-1.3-2.8-2.8v-17.9
		c0-0.5-0.4-0.8-0.8-0.8c-0.5,0-0.8,0.4-0.8,0.8V191c0,2.4-1.8,4.4-4,4.4c-2.2,0-4-2-4-4.4v-27.6c0-0.5-0.4-0.8-0.8-0.8
		c-0.5,0-0.8,0.4-0.8,0.8V191c0,2.4-1.8,4.4-4,4.4c-2.2,0-4-2-4-4.4v-48.4c0-0.5-0.4-0.8-0.8-0.8s-0.8,0.4-0.8,0.8v17.9
		c0,1.6-1.2,2.8-2.8,2.8c-1.6,0-2.8-1.3-2.8-2.8v-19.5c0-4.5,3.5-8,8-8h16C1200.2,132.9,1203.9,136.5,1204,140.9z"/>
	<path class="st1" d="M1002.5,228.3c0,3.5,2.9,6.4,6.4,6.4c3.5,0,6.4-2.9,6.4-6.4c0-3.5-2.9-6.4-6.4-6.4
		C1005.4,221.8,1002.5,224.7,1002.5,228.3z M1025.1,244.3v19.5c0,1.6-1.2,2.8-2.8,2.8s-2.8-1.3-2.8-2.8v-17.9c0-0.5-0.4-0.8-0.8-0.8
		s-0.8,0.4-0.8,0.8v48.4c0,2.4-1.8,4.4-4,4.4c-2.2,0-4-2-4-4.4v-27.6c0-0.5-0.4-0.8-0.8-0.8s-0.8,0.4-0.8,0.8v27.6
		c0,2.4-1.8,4.4-4,4.4s-4-2-4-4.4v-48.4c0-0.5-0.4-0.8-0.8-0.8c-0.5,0-0.8,0.4-0.8,0.8v17.9c0,1.6-1.2,2.8-2.8,2.8s-2.8-1.3-2.8-2.8
		v-19.5c0-4.5,3.5-8,8-8h16C1021.3,236.3,1025,239.9,1025.1,244.3z"/>
	<path class="st1" d="M1047.2,228.3c0,3.5,2.9,6.4,6.4,6.4s6.4-2.9,6.4-6.4c0-3.5-2.9-6.4-6.4-6.4S1047.2,224.7,1047.2,228.3z
		 M1069.8,244.3v19.5c0,1.6-1.2,2.8-2.8,2.8c-1.6,0-2.8-1.3-2.8-2.8v-17.9c0-0.5-0.4-0.8-0.8-0.8s-0.8,0.4-0.8,0.8v48.4
		c0,2.4-1.8,4.4-4,4.4s-4-2-4-4.4v-27.6c0-0.5-0.4-0.8-0.8-0.8s-0.8,0.4-0.8,0.8v27.6c0,2.4-1.8,4.4-4,4.4s-4-2-4-4.4v-48.4
		c0-0.5-0.4-0.8-0.8-0.8c-0.5,0-0.8,0.4-0.8,0.8v17.9c0,1.6-1.2,2.8-2.8,2.8c-1.6,0-2.8-1.3-2.8-2.8v-19.5c0-4.5,3.5-8,8-8h16
		C1066,236.3,1069.7,239.9,1069.8,244.3z"/>
	<path class="st1" d="M1091.9,228.3c0,3.5,2.9,6.4,6.4,6.4c3.5,0,6.4-2.9,6.4-6.4c0-3.5-2.9-6.4-6.4-6.4
		C1094.8,221.8,1091.9,224.7,1091.9,228.3z M1114.5,244.3v19.5c0,1.6-1.2,2.8-2.8,2.8s-2.8-1.3-2.8-2.8v-17.9c0-0.5-0.4-0.8-0.8-0.8
		s-0.8,0.4-0.8,0.8v48.4c0,2.4-1.8,4.4-4,4.4c-2.2,0-4-2-4-4.4v-27.6c0-0.5-0.4-0.8-0.8-0.8s-0.8,0.4-0.8,0.8v27.6
		c0,2.4-1.8,4.4-4,4.4s-4-2-4-4.4v-48.4c0-0.5-0.4-0.8-0.8-0.8s-0.8,0.4-0.8,0.8v17.9c0,1.6-1.2,2.8-2.8,2.8c-1.6,0-2.8-1.3-2.8-2.8
		v-19.5c0-4.5,3.5-8,8-8h16C1110.7,236.3,1114.4,239.9,1114.5,244.3z"/>
	<path class="st1" d="M1136.7,228.3c0,3.5,2.9,6.4,6.4,6.4s6.4-2.9,6.4-6.4c0-3.5-2.9-6.4-6.4-6.4
		C1139.6,221.8,1136.7,224.7,1136.7,228.3z M1159.3,244.3v19.5c0,1.6-1.2,2.8-2.8,2.8c-1.6,0-2.8-1.3-2.8-2.8v-17.9
		c0-0.5-0.4-0.8-0.8-0.8s-0.8,0.4-0.8,0.8v48.4c0,2.4-1.8,4.4-4,4.4c-2.2,0-4-2-4-4.4v-27.6c0-0.5-0.4-0.8-0.8-0.8
		c-0.5,0-0.8,0.4-0.8,0.8v27.6c0,2.4-1.8,4.4-4,4.4c-2.2,0-4-2-4-4.4v-48.4c0-0.5-0.4-0.8-0.8-0.8s-0.8,0.4-0.8,0.8v17.9
		c0,1.6-1.2,2.8-2.8,2.8c-1.6,0-2.8-1.3-2.8-2.8v-19.5c0-4.5,3.5-8,8-8h16C1155.5,236.3,1159.2,239.9,1159.3,244.3z"/>
	<path class="st1" d="M1181.4,228.3c0,3.5,2.9,6.4,6.4,6.4c3.5,0,6.4-2.9,6.4-6.4c0-3.5-2.9-6.4-6.4-6.4
		C1184.3,221.8,1181.4,224.7,1181.4,228.3z M1204,244.3v19.5c0,1.6-1.2,2.8-2.8,2.8c-1.6,0-2.8-1.3-2.8-2.8v-17.9
		c0-0.5-0.4-0.8-0.8-0.8c-0.5,0-0.8,0.4-0.8,0.8v48.4c0,2.4-1.8,4.4-4,4.4c-2.2,0-4-2-4-4.4v-27.6c0-0.5-0.4-0.8-0.8-0.8
		c-0.5,0-0.8,0.4-0.8,0.8v27.6c0,2.4-1.8,4.4-4,4.4c-2.2,0-4-2-4-4.4v-48.4c0-0.5-0.4-0.8-0.8-0.8s-0.8,0.4-0.8,0.8v17.9
		c0,1.6-1.2,2.8-2.8,2.8c-1.6,0-2.8-1.3-2.8-2.8v-19.5c0-4.5,3.5-8,8-8h16C1200.2,236.3,1203.9,239.9,1204,244.3z"/>
	<path class="st1" d="M1002.5,331.4c0,3.5,2.9,6.4,6.4,6.4c3.5,0,6.4-2.9,6.4-6.4c0-3.5-2.9-6.4-6.4-6.4
		C1005.4,325,1002.5,327.9,1002.5,331.4z M1025.1,347.5V367c0,1.6-1.2,2.8-2.8,2.8s-2.8-1.3-2.8-2.8v-17.9c0-0.5-0.4-0.8-0.8-0.8
		s-0.8,0.4-0.8,0.8v48.4c0,2.4-1.8,4.4-4,4.4c-2.2,0-4-2-4-4.4v-27.6c0-0.5-0.4-0.8-0.8-0.8s-0.8,0.4-0.8,0.8v27.6
		c0,2.4-1.8,4.4-4,4.4s-4-2-4-4.4v-48.4c0-0.5-0.4-0.8-0.8-0.8c-0.5,0-0.8,0.4-0.8,0.8V367c0,1.6-1.2,2.8-2.8,2.8s-2.8-1.3-2.8-2.8
		v-19.5c0-4.5,3.5-8,8-8h16C1021.3,339.5,1025,343,1025.1,347.5z"/>
	<path class="st1" d="M1047.2,331.4c0,3.5,2.9,6.4,6.4,6.4s6.4-2.9,6.4-6.4c0-3.5-2.9-6.4-6.4-6.4S1047.2,327.9,1047.2,331.4z
		 M1069.8,347.5V367c0,1.6-1.2,2.8-2.8,2.8c-1.6,0-2.8-1.3-2.8-2.8v-17.9c0-0.5-0.4-0.8-0.8-0.8s-0.8,0.4-0.8,0.8v48.4
		c0,2.4-1.8,4.4-4,4.4s-4-2-4-4.4v-27.6c0-0.5-0.4-0.8-0.8-0.8s-0.8,0.4-0.8,0.8v27.6c0,2.4-1.8,4.4-4,4.4s-4-2-4-4.4v-48.4
		c0-0.5-0.4-0.8-0.8-0.8c-0.5,0-0.8,0.4-0.8,0.8V367c0,1.6-1.2,2.8-2.8,2.8c-1.6,0-2.8-1.3-2.8-2.8v-19.5c0-4.5,3.5-8,8-8h16
		C1066,339.5,1069.7,343,1069.8,347.5z"/>
	<path class="st1" d="M1091.9,331.4c0,3.5,2.9,6.4,6.4,6.4c3.5,0,6.4-2.9,6.4-6.4c0-3.5-2.9-6.4-6.4-6.4
		C1094.8,325,1091.9,327.9,1091.9,331.4z M1114.5,347.5V367c0,1.6-1.2,2.8-2.8,2.8s-2.8-1.3-2.8-2.8v-17.9c0-0.5-0.4-0.8-0.8-0.8
		s-0.8,0.4-0.8,0.8v48.4c0,2.4-1.8,4.4-4,4.4c-2.2,0-4-2-4-4.4v-27.6c0-0.5-0.4-0.8-0.8-0.8s-0.8,0.4-0.8,0.8v27.6
		c0,2.4-1.8,4.4-4,4.4s-4-2-4-4.4v-48.4c0-0.5-0.4-0.8-0.8-0.8s-0.8,0.4-0.8,0.8V367c0,1.6-1.2,2.8-2.8,2.8c-1.6,0-2.8-1.3-2.8-2.8
		v-19.5c0-4.5,3.5-8,8-8h16C1110.7,339.5,1114.4,343,1114.5,347.5z"/>
	<path class="st1" d="M1136.7,331.4c0,3.5,2.9,6.4,6.4,6.4s6.4-2.9,6.4-6.4c0-3.5-2.9-6.4-6.4-6.4
		C1139.6,325,1136.7,327.9,1136.7,331.4z M1159.3,347.5V367c0,1.6-1.2,2.8-2.8,2.8c-1.6,0-2.8-1.3-2.8-2.8v-17.9
		c0-0.5-0.4-0.8-0.8-0.8s-0.8,0.4-0.8,0.8v48.4c0,2.4-1.8,4.4-4,4.4c-2.2,0-4-2-4-4.4v-27.6c0-0.5-0.4-0.8-0.8-0.8
		c-0.5,0-0.8,0.4-0.8,0.8v27.6c0,2.4-1.8,4.4-4,4.4c-2.2,0-4-2-4-4.4v-48.4c0-0.5-0.4-0.8-0.8-0.8s-0.8,0.4-0.8,0.8V367
		c0,1.6-1.2,2.8-2.8,2.8c-1.6,0-2.8-1.3-2.8-2.8v-19.5c0-4.5,3.5-8,8-8h16C1155.5,339.5,1159.2,343,1159.3,347.5z"/>
	<path class="st1" d="M1181.4,331.4c0,3.5,2.9,6.4,6.4,6.4c3.5,0,6.4-2.9,6.4-6.4c0-3.5-2.9-6.4-6.4-6.4
		C1184.3,325,1181.4,327.9,1181.4,331.4z M1204,347.5V367c0,1.6-1.2,2.8-2.8,2.8c-1.6,0-2.8-1.3-2.8-2.8v-17.9
		c0-0.5-0.4-0.8-0.8-0.8c-0.5,0-0.8,0.4-0.8,0.8v48.4c0,2.4-1.8,4.4-4,4.4c-2.2,0-4-2-4-4.4v-27.6c0-0.5-0.4-0.8-0.8-0.8
		c-0.5,0-0.8,0.4-0.8,0.8v27.6c0,2.4-1.8,4.4-4,4.4c-2.2,0-4-2-4-4.4v-48.4c0-0.5-0.4-0.8-0.8-0.8s-0.8,0.4-0.8,0.8V367
		c0,1.6-1.2,2.8-2.8,2.8c-1.6,0-2.8-1.3-2.8-2.8v-19.5c0-4.5,3.5-8,8-8h16C1200.2,339.5,1203.9,343,1204,347.5z"/>
</g>
<g id="Layer_3_2_">
</g>
</svg>
