<?xml version="1.0" encoding="utf-8"?>
<!-- Generator: Adobe Illustrator 19.2.0, SVG Export Plug-In . SVG Version: 6.00 Build 0)  -->
<svg version="1.1" id="Layer_1" xmlns="http://www.w3.org/2000/svg" xmlns:xlink="http://www.w3.org/1999/xlink" x="0px" y="0px"
	 width="256px" height="256px" viewBox="0 0 256 256" style="enable-background:new 0 0 256 256;" xml:space="preserve">
<path d="M37.4,67.7c8.3,0,15.1-6.8,15.1-15.1c0-8.3-6.8-15.1-15.1-15.1c-8.3,0-15.1,6.8-15.1,15.1C22.4,60.9,29.1,67.7,37.4,67.7z
	 M72.8,116.1v-25C72.5,81,64.2,72.8,54.3,72.8h-34C10.1,72.8,2,81,2,91.1v25H72.8z M37.5,170.1c8.3,0,15.1-6.8,15.1-15.1
	c0-8.3-6.8-15.1-15.1-15.1c-8.3,0-15.1,6.8-15.1,15.1C22.4,163.3,29.1,170.1,37.5,170.1z M72.8,218.5v-25
	c-0.3-10.1-8.6-18.3-18.6-18.3h-34c-10.1,0-18.3,8.1-18.3,18.3v25H72.8z M128,67.7c8.3,0,15.1-6.8,15.1-15.1
	c0-8.3-6.8-15.1-15.1-15.1c-8.3,0-15.1,6.8-15.1,15.1S119.7,67.7,128,67.7z M163.4,116.1v-25c-0.3-10.1-8.6-18.3-18.6-18.3h-34
	c-10.1,0-18.3,8.1-18.3,18.3v25C92.6,116.1,163.4,116.1,163.4,116.1z M218.6,67.7c8.3,0,15.1-6.8,15.1-15.1
	c0-8.3-6.8-15.1-15.1-15.1c-8.3,0-15.1,6.8-15.1,15.1S210.3,67.7,218.6,67.7z M254,116.1v-25c-0.3-10.1-8.6-18.3-18.6-18.3h-34
	c-10.1,0-18.3,8.1-18.3,18.3v25H254z M128,147.1c4.3,0,7.9,3.5,7.9,7.9s-3.5,7.9-7.9,7.9s-7.9-3.5-7.9-7.9S123.7,147.1,128,147.1
	 M128,139.2c-8.7,0-15.8,7.1-15.8,15.8s7.1,15.8,15.8,15.8c8.7,0,15.8-7.1,15.8-15.8C143.8,146.3,136.7,139.2,128,139.2z
	 M144.8,183.1c5.7,0,10.5,4.7,10.7,10.5v17h-55.1v-17.1c0-5.8,4.6-10.4,10.4-10.4H144.8z M144.8,175.2h-34
	c-10.1,0-18.3,8.1-18.3,18.3v25h70.8v-25C163.1,183.4,154.8,175.2,144.8,175.2z M218.6,147.1c4.3,0,7.9,3.5,7.9,7.9
	s-3.5,7.9-7.9,7.9s-7.9-3.5-7.9-7.9S214.3,147.1,218.6,147.1 M218.6,139.2c-8.7,0-15.8,7.1-15.8,15.8s7.1,15.8,15.8,15.8
	s15.8-7.1,15.8-15.8C234.4,146.3,227.3,139.2,218.6,139.2z M235.4,183.1c5.7,0,10.5,4.7,10.7,10.5v17H191v-17.1
	c0-5.8,4.6-10.4,10.4-10.4L235.4,183.1z M235.4,175.2h-34c-10.1,0-18.3,8.1-18.3,18.3v25H254v-25
	C253.7,183.4,245.4,175.2,235.4,175.2L235.4,175.2z"/>
</svg>
