<?xml version="1.0" encoding="utf-8"?>
<!-- Generator: Adobe Illustrator 22.1.0, SVG Export Plug-In . SVG Version: 6.00 Build 0)  -->
<svg version="1.1" xmlns="http://www.w3.org/2000/svg" xmlns:xlink="http://www.w3.org/1999/xlink" x="0px" y="0px"
	 viewBox="0 0 1268 418" enable-background="new 0 0 1268 418" xml:space="preserve">
<g id="Layer_1">
	<g>
		<rect x="71.1" y="69.9" fill="#D9DCF1" width="51" height="243"/>
		<rect x="422.9" y="261.9" fill="#BDBEDA" width="51" height="67"/>
		<rect x="599.4" y="230.9" fill="#BDBEDA" width="51" height="133"/>
		<rect x="775.8" y="125.9" fill="#BDBEDA" width="51" height="150"/>
		<rect x="951.2" y="2" fill="#BDBEDA" width="51" height="199.9"/>
		<rect x="158.8" y="17.9" fill="#9C96AD" width="51" height="55"/>
		<rect x="247.6" y="17.9" fill="#9C96AD" width="51" height="125"/>
		<rect x="335.2" y="139.9" fill="#9C96AD" width="51" height="188"/>
		<rect x="511.7" y="261.9" fill="#9C96AD" width="51" height="102"/>
		<rect x="687.1" y="230.9" fill="#9C96AD" width="51" height="45"/>
		<rect x="863.5" y="125.9" fill="#9C96AD" width="51" height="76"/>
		<rect x="1039.9" y="2" fill="#9C96AD" width="51" height="148.9"/>
		<rect x="1127.6" y="31.9" fill="#BDBEDA" width="51" height="119"/>
		<rect x="1169.5" y="32.1" fill="#BDBEDA" width="45.8" height="2.8"/>
		<rect x="1084.8" y="147.9" fill="#9C96AD" width="42.8" height="3"/>
		<rect x="998" y="2" fill="#BDBEDA" width="41.8" height="3"/>
		<rect x="907.3" y="198.9" fill="#9C96AD" width="43.8" height="3"/>
		<rect x="817.6" y="125.9" fill="#BDBEDA" width="45.9" height="3"/>
		<rect x="728.9" y="272.9" fill="#9C96AD" width="46.9" height="3"/>
		<rect x="642.8" y="230.9" fill="#BDBEDA" width="44.3" height="3"/>
		<rect x="556.5" y="360.9" fill="#9C96AD" width="42.8" height="3"/>
		<rect x="465.8" y="261.9" fill="#BDBEDA" width="45.9" height="3"/>
		<rect x="295.5" y="139.9" fill="#9C96AD" width="51" height="3"/>
		<rect x="202.7" y="17.9" fill="#9C96AD" width="51" height="3"/>
		<rect x="71.1" y="69.9" fill="#D9DCF1" width="87.7" height="3"/>
		<rect x="335.2" y="325.9" fill="#9C96AD" width="87.7" height="3"/>
		<rect x="1215.3" y="31.9" fill="#D9DCF1" width="51" height="281"/>
	</g>
	<g>
		<g>
			<line fill="none" stroke="#C4C4C4" stroke-miterlimit="10" x1="163.2" y1="388.3" x2="163.2" y2="378.9"/>
			<line fill="none" stroke="#C4C4C4" stroke-miterlimit="10" x1="271.2" y1="388.3" x2="271.2" y2="378.9"/>
			<line fill="none" stroke="#C4C4C4" stroke-miterlimit="10" x1="487.2" y1="388.3" x2="487.2" y2="378.9"/>
			<line fill="none" stroke="#C4C4C4" stroke-miterlimit="10" x1="811.1" y1="388.3" x2="811.1" y2="378.9"/>
			<line fill="none" stroke="#C4C4C4" stroke-miterlimit="10" x1="1027.1" y1="388.3" x2="1027.1" y2="378.9"/>
			<line fill="none" stroke="#C4C4C4" stroke-miterlimit="10" x1="379.2" y1="388.3" x2="379.2" y2="378.9"/>
			<line fill="none" stroke="#C4C4C4" stroke-miterlimit="10" x1="595.2" y1="388.3" x2="595.2" y2="378.9"/>
			<line fill="none" stroke="#C4C4C4" stroke-miterlimit="10" x1="703.2" y1="388.3" x2="703.2" y2="378.9"/>
			<line fill="none" stroke="#C4C4C4" stroke-miterlimit="10" x1="919.1" y1="388.3" x2="919.1" y2="378.9"/>
			<line fill="none" stroke="#C4C4C4" stroke-miterlimit="10" x1="1135.1" y1="388.3" x2="1135.1" y2="378.9"/>
			<line fill="none" stroke="#C4C4C4" stroke-miterlimit="10" x1="1243.1" y1="388.3" x2="1243.1" y2="378.9"/>
		</g>
		<g>
			<g>
				<text transform="matrix(1 0 0 1 4.2642 20.9425)" fill="#D1CDC9" font-family="'RobotoCondensed-Regular'" font-size="19px">100</text>
			</g>
			<polyline fill="none" stroke="#C4C4C4" stroke-miterlimit="10" points="55.2,2 55.2,379.1 1266.1,379.1 			"/>
			<g>
				<line fill="none" stroke="#C4C4C4" stroke-miterlimit="10" x1="45.6" y1="10" x2="55.6" y2="10"/>
				<line fill="none" stroke="#C4C4C4" stroke-miterlimit="10" x1="45.6" y1="305" x2="55.6" y2="305"/>
				<line fill="none" stroke="#C4C4C4" stroke-miterlimit="10" x1="45.6" y1="231" x2="55.6" y2="231"/>
				<line fill="none" stroke="#C4C4C4" stroke-miterlimit="10" x1="45.6" y1="158" x2="55.6" y2="158"/>
				<line fill="none" stroke="#C4C4C4" stroke-miterlimit="10" x1="45.6" y1="84" x2="55.6" y2="84"/>
			</g>
			<g>
				<g>
					
						<text transform="matrix(1 0 0 1 575.8375 415.7204)" fill="#D1CDC9" font-family="'RobotoCondensed-Regular'" font-size="19px">2014</text>
				</g>
				<g>
					
						<text transform="matrix(1 0 0 1 790.9769 415.7204)" fill="#D1CDC9" font-family="'RobotoCondensed-Regular'" font-size="19px">2016</text>
				</g>
				<g>
					
						<text transform="matrix(1 0 0 1 1006.9769 415.7204)" fill="#D1CDC9" font-family="'RobotoCondensed-Regular'" font-size="19px">2018</text>
				</g>
				<g>
					
						<text transform="matrix(1 0 0 1 359.7692 415.7204)" fill="#D1CDC9" font-family="'RobotoCondensed-Regular'" font-size="19px">2012</text>
				</g>
				<g>
					
						<text transform="matrix(1 0 0 1 143.7692 415.7204)" fill="#D1CDC9" font-family="'RobotoCondensed-Regular'" font-size="19px">2010</text>
				</g>
				<g>
					
						<text transform="matrix(1 0 0 1 1222.4972 415.7204)" fill="#D1CDC9" font-family="'RobotoCondensed-Regular'" font-size="19px">2020</text>
				</g>
			</g>
		</g>
	</g>
	<text transform="matrix(1 0 0 1 13.6439 240.5199)" fill="#D1CDC9" font-family="'RobotoCondensed-Regular'" font-size="19px">40</text>
	<text transform="matrix(1 0 0 1 13.6439 168.5199)" fill="#D1CDC9" font-family="'RobotoCondensed-Regular'" font-size="19px">60</text>
	<text transform="matrix(1 0 0 1 13.644 94.5199)" fill="#D1CDC9" font-family="'RobotoCondensed-Regular'" font-size="19px">80</text>
	<text transform="matrix(1 0 0 1 13.6439 312.943)" fill="#D1CDC9" font-family="'RobotoCondensed-Regular'" font-size="19px">20</text>
</g>
<g id="Layer_2">
</g>
<g id="Layer_3">
</g>
</svg>
