<svg xmlns="http://www.w3.org/2000/svg" viewBox="0 0 1152.8 1130.2"><title>anatomy</title><g style="isolation:isolate"><path d="M153.9,71.8h1.3l1.3.2,1.2.2.9.2-.7,4.4-2.5-.4H153a9.1,9.1,0,0,0-5.2,1.4,9,9,0,0,0-2.9,4.1V98.7h-4.5V72.3h4.3l.2,4.2a11.4,11.4,0,0,1,3.9-3.4A9.7,9.7,0,0,1,153.9,71.8Z" transform="translate(-7.2 -62.7)" fill="#514361"/><path d="M178.3,99.2a11.9,11.9,0,0,1-5.1-1,11.1,11.1,0,0,1-4-2.6,12.5,12.5,0,0,1-2.6-4.1,13.6,13.6,0,0,1-.9-5.1v-1a14.8,14.8,0,0,1,1-5.7,14.3,14.3,0,0,1,2.7-4.3,10.5,10.5,0,0,1,3.9-2.7,12.1,12.1,0,0,1,9.4.1,9.4,9.4,0,0,1,3.5,2.7,12.5,12.5,0,0,1,2.2,4.1,21.1,21.1,0,0,1,.7,5.2v2H170.2a9.8,9.8,0,0,0,.7,3.4,8.3,8.3,0,0,0,1.7,2.7,7,7,0,0,0,2.6,1.9,7.2,7.2,0,0,0,3.3.7,8.5,8.5,0,0,0,4.3-1,7.9,7.9,0,0,0,3.1-2.6l2.8,2.2a9.5,9.5,0,0,1-1.6,1.9,11.9,11.9,0,0,1-2.3,1.6,13.4,13.4,0,0,1-3,1.2A17.8,17.8,0,0,1,178.3,99.2Zm-.6-23.7a7.5,7.5,0,0,0-2.6.5,6.2,6.2,0,0,0-2.2,1.5,7.9,7.9,0,0,0-1.6,2.3,11.5,11.5,0,0,0-1,3.3h14.2v-.4a8.5,8.5,0,0,0-.5-2.6,10.1,10.1,0,0,0-1.2-2.3,8.7,8.7,0,0,0-2.1-1.7A6.7,6.7,0,0,0,177.7,75.5Z" transform="translate(-7.2 -62.7)" fill="#514361"/><path d="M195.8,85.3a19.3,19.3,0,0,1,.7-5.5,13.8,13.8,0,0,1,2.1-4.2,9.9,9.9,0,0,1,3.3-2.8,9.2,9.2,0,0,1,4.4-1,9.4,9.4,0,0,1,4.3.9,8.5,8.5,0,0,1,3.2,2.5l.2-2.9h4.1V98.1a13.6,13.6,0,0,1-.8,4.7,10.2,10.2,0,0,1-2.3,3.4,9.5,9.5,0,0,1-3.6,2.2,12.5,12.5,0,0,1-4.5.7l-2.3-.2a13.8,13.8,0,0,1-2.7-.8,9.4,9.4,0,0,1-2.6-1.4,7.7,7.7,0,0,1-2.2-2.2l2.4-2.7a6.9,6.9,0,0,0,1.7,1.7,4.5,4.5,0,0,0,1.7,1.1,6.4,6.4,0,0,0,1.8.6,6.5,6.5,0,0,0,1.9.2,7.1,7.1,0,0,0,2.9-.5,6.1,6.1,0,0,0,2.2-1.3,6.9,6.9,0,0,0,1.4-2.2,9.4,9.4,0,0,0,.5-3V96.1a9,9,0,0,1-3.2,2.3,10,10,0,0,1-4.1.8,10.5,10.5,0,0,1-4.4-1,10.2,10.2,0,0,1-3.3-2.9,13.8,13.8,0,0,1-2.1-4.2,18.3,18.3,0,0,1-.7-5.3Zm4.5.5a13.7,13.7,0,0,0,.4,3.6,9.7,9.7,0,0,0,1.3,3.1,6.3,6.3,0,0,0,2.2,2.1,7.1,7.1,0,0,0,5.3.5l1.7-.8,1.3-1.2a9.1,9.1,0,0,0,1.1-1.6V79.4a5.8,5.8,0,0,0-1.1-1.5,4.9,4.9,0,0,0-1.3-1.2l-1.7-.8a6.4,6.4,0,0,0-2-.3,6.7,6.7,0,0,0-3.3.8,6.3,6.3,0,0,0-2.2,2.1,9.7,9.7,0,0,0-1.3,3.1,15,15,0,0,0-.4,3.7Z" transform="translate(-7.2 -62.7)" fill="#514361"/><path d="M227.3,72.3h13.5V94.8h8.7v3.9H227.3V94.8h9V76.2h-9Zm8.4-7a2.9,2.9,0,0,1,.7-1.8,2.2,2.2,0,0,1,2-.8,2.5,2.5,0,0,1,2.1.8,2.8,2.8,0,0,1,.6,1.8,2.9,2.9,0,0,1-.6,1.9,2.8,2.8,0,0,1-2.1.7,2.4,2.4,0,0,1-2-.7A2.9,2.9,0,0,1,235.7,65.3Z" transform="translate(-7.2 -62.7)" fill="#514361"/><path d="M255.4,85.2a15.5,15.5,0,0,1,.8-5.3,11,11,0,0,1,2.4-4.2,11.6,11.6,0,0,1,3.7-2.9,11.8,11.8,0,0,1,5-1,11,11,0,0,1,8.9,3.9,14.4,14.4,0,0,1,2.4,4.2,18.4,18.4,0,0,1,.8,5.3v.6a17.8,17.8,0,0,1-.8,5.3,14.4,14.4,0,0,1-2.4,4.2,12,12,0,0,1-3.8,2.9,13.1,13.1,0,0,1-5,1,12.7,12.7,0,0,1-5-1,12.1,12.1,0,0,1-6.2-7.1,15.1,15.1,0,0,1-.8-5.3Zm4.5.6a15,15,0,0,0,.4,3.7,9.8,9.8,0,0,0,1.4,3.1,7.9,7.9,0,0,0,2.4,2.1,5.8,5.8,0,0,0,3.3.8,6.2,6.2,0,0,0,3.3-.8,6.6,6.6,0,0,0,2.3-2.1,9.8,9.8,0,0,0,1.4-3.1,15,15,0,0,0,.5-3.7v-.6a15.7,15.7,0,0,0-.5-3.7,10.9,10.9,0,0,0-1.4-3.1,6.9,6.9,0,0,0-2.4-2.1,6.7,6.7,0,0,0-3.3-.8,6.6,6.6,0,0,0-3.2.8,6.9,6.9,0,0,0-2.4,2.1,10.9,10.9,0,0,0-1.4,3.1,15.5,15.5,0,0,0-.4,3.7Z" transform="translate(-7.2 -62.7)" fill="#514361"/><path d="M290.7,72.3l.3,3.9a10.6,10.6,0,0,1,3.5-3.2,9.4,9.4,0,0,1,4.7-1.2,11.2,11.2,0,0,1,3.8.6,7.9,7.9,0,0,1,2.9,1.8,7.7,7.7,0,0,1,1.8,3.2,12.5,12.5,0,0,1,.7,4.5V98.7h-4.5V82a13.6,13.6,0,0,0-.4-3,5.2,5.2,0,0,0-1.2-1.9,4,4,0,0,0-1.9-1.1,6.6,6.6,0,0,0-2.5-.4,6.8,6.8,0,0,0-4,1.2,7.4,7.4,0,0,0-2.8,3V98.7h-4.5V72.3Z" transform="translate(-7.2 -62.7)" fill="#514361"/></g><g style="isolation:isolate"><path d="M1079.7,562.2v2.5a6.6,6.6,0,0,1,2.2-2.2,5.9,5.9,0,0,1,3.1-.8c2.4,0,4.1.9,4.9,2.8a5.7,5.7,0,0,1,5.2-2.8,5.4,5.4,0,0,1,4.4,1.8c1.1,1.2,1.6,3,1.6,5.4v19.7h-4.3V568.8c0-2.2-1-3.3-3.1-3.3a3.2,3.2,0,0,0-1.4.3,1.8,1.8,0,0,0-.9.6,1.6,1.6,0,0,0-.6.8,2.3,2.3,0,0,0-.3,1.1v20.3h-4.3V568.8a3.8,3.8,0,0,0-.7-2.4,2.9,2.9,0,0,0-2.3-.9,3.6,3.6,0,0,0-2.2.6,3.3,3.3,0,0,0-1.1,1.5v21h-4.3V562.2Z" transform="translate(-7.2 -62.7)" fill="#514361"/><path d="M1125,588.6a4,4,0,0,1-.4-1.3,7.8,7.8,0,0,1-.2-1.6l-1.6,1.3-1.8,1.1-2.2.7a9.9,9.9,0,0,1-2.4.3,11.2,11.2,0,0,1-3.8-.6,8.2,8.2,0,0,1-2.9-1.7,6.9,6.9,0,0,1-1.8-2.4,6.7,6.7,0,0,1-.7-3.1,7.6,7.6,0,0,1,.9-3.8,7.8,7.8,0,0,1,2.4-2.7,11.5,11.5,0,0,1,3.9-1.7,23.8,23.8,0,0,1,4.9-.5h5v-2.1a4.6,4.6,0,0,0-.5-2.1,5.2,5.2,0,0,0-1.2-1.7,7.5,7.5,0,0,0-2-1,9.5,9.5,0,0,0-2.6-.4,8.6,8.6,0,0,0-2.4.4,5.1,5.1,0,0,0-1.8.9,4.5,4.5,0,0,0-1.1,1.3,3.2,3.2,0,0,0-.4,1.6h-4.5a5.8,5.8,0,0,1,.7-2.8,8.2,8.2,0,0,1,2.1-2.5,8.8,8.8,0,0,1,3.3-1.8,12,12,0,0,1,4.4-.7,13.1,13.1,0,0,1,4.1.6,9.7,9.7,0,0,1,3.4,1.6,8.5,8.5,0,0,1,2.2,2.8,9.3,9.3,0,0,1,.8,3.9v12.2a26.4,26.4,0,0,0,.2,2.8,13.8,13.8,0,0,0,.7,2.6v.4Zm-8-3.4a6.9,6.9,0,0,0,2.5-.4,6.7,6.7,0,0,0,2.1-.9l1.6-1.3a4.2,4.2,0,0,0,1.1-1.5v-5.3h-4.2a13.1,13.1,0,0,0-6.2,1.2,3.9,3.9,0,0,0-2.2,3.6,4.1,4.1,0,0,0,.4,1.9,4.2,4.2,0,0,0,.9,1.4,4.6,4.6,0,0,0,1.7.9A5.6,5.6,0,0,0,1117,585.2Z" transform="translate(-7.2 -62.7)" fill="#514361"/><path d="M1159.9,575.7a22.6,22.6,0,0,1-.6,5.3,16.3,16.3,0,0,1-2,4.2,10.2,10.2,0,0,1-3.3,2.9,9.2,9.2,0,0,1-4.4,1,11.4,11.4,0,0,1-4.3-.8,8.7,8.7,0,0,1-3.1-2.2v12.7h-4.6V562.2h4.2l.2,2.9a7.8,7.8,0,0,1,3.2-2.5,9.7,9.7,0,0,1,4.3-.9,9.3,9.3,0,0,1,4.5,1,9.9,9.9,0,0,1,3.3,2.8,16.3,16.3,0,0,1,2,4.2,23.8,23.8,0,0,1,.6,5.5Zm-4.5-.5a15,15,0,0,0-.4-3.7,9.7,9.7,0,0,0-1.3-3.1,6.5,6.5,0,0,0-5.5-2.9,7,7,0,0,0-3.7,1,7.1,7.1,0,0,0-2.3,2.6v12.8a6.1,6.1,0,0,0,2.3,2.5,6.2,6.2,0,0,0,3.7,1,7,7,0,0,0,3.3-.8,6.3,6.3,0,0,0,2.2-2.1,9.7,9.7,0,0,0,1.3-3.1,15,15,0,0,0,.4-3.7Z" transform="translate(-7.2 -62.7)" fill="#514361"/></g><line x1="216.4" y1="213.7" x2="216.4" y2="213.7" fill="none" stroke="#afafaf" stroke-linecap="round" stroke-miterlimit="10" stroke-width="4"/><line x1="216.4" y1="203.7" x2="216.4" y2="69.4" fill="none" stroke="#afafaf" stroke-linecap="round" stroke-miterlimit="10" stroke-width="4" stroke-dasharray="0 9.95"/><line x1="216.4" y1="64.4" x2="216.4" y2="64.4" fill="none" stroke="#afafaf" stroke-linecap="round" stroke-miterlimit="10" stroke-width="4"/><g style="isolation:isolate"><path d="M606.6,1133.5h13.5v33.6h8.6v3.9H606.6v-3.9h9v-29.7h-9Z" transform="translate(-7.2 -62.7)" fill="#514361"/><path d="M647.5,1171.5a12.5,12.5,0,0,1-5.1-1,12,12,0,0,1-4-2.6,12.9,12.9,0,0,1-3.5-9.2v-1a16.1,16.1,0,0,1,1-5.7,11.9,11.9,0,0,1,2.8-4.3,11,11,0,0,1,3.8-2.7,11.5,11.5,0,0,1,4.4-.9,10.9,10.9,0,0,1,5,1,8.8,8.8,0,0,1,3.6,2.7,13.2,13.2,0,0,1,2.1,4.1,17,17,0,0,1,.7,5.1v2.1H639.4a12.8,12.8,0,0,0,.7,3.4,9.5,9.5,0,0,0,1.7,2.7,9.7,9.7,0,0,0,2.6,1.9,7.7,7.7,0,0,0,3.4.7,8.8,8.8,0,0,0,4.3-1,8.6,8.6,0,0,0,3.1-2.6l2.8,2.2a14.5,14.5,0,0,1-1.7,1.9,10.3,10.3,0,0,1-2.3,1.6,8.3,8.3,0,0,1-2.9,1.1A13.6,13.6,0,0,1,647.5,1171.5Zm-.6-23.7a7,7,0,0,0-2.5.5,4.8,4.8,0,0,0-2.2,1.5,8.1,8.1,0,0,0-1.7,2.3,14.4,14.4,0,0,0-.9,3.3h14.2v-.4a11.9,11.9,0,0,0-.5-2.6,6.5,6.5,0,0,0-1.3-2.3,6,6,0,0,0-2.1-1.7A6.7,6.7,0,0,0,646.9,1147.8Z" transform="translate(-7.2 -62.7)" fill="#514361"/><path d="M665,1157.6a19.2,19.2,0,0,1,.8-5.5,11.7,11.7,0,0,1,2-4.2,11.3,11.3,0,0,1,3.4-2.8,8.9,8.9,0,0,1,4.4-1,11.8,11.8,0,0,1,4.3.8,9.6,9.6,0,0,1,3.1,2.6l.2-2.9h4.1v25.8a11.6,11.6,0,0,1-.8,4.7,8.9,8.9,0,0,1-2.3,3.4,10.4,10.4,0,0,1-3.5,2.2,16.4,16.4,0,0,1-4.6.7l-2.3-.2-2.7-.8a16.5,16.5,0,0,1-2.6-1.4,8.8,8.8,0,0,1-2.1-2.2l2.3-2.7a13.6,13.6,0,0,0,1.7,1.7,8.7,8.7,0,0,0,1.8,1.1,6.4,6.4,0,0,0,1.8.6l1.8.2a8.8,8.8,0,0,0,2.9-.5,5.4,5.4,0,0,0,2.2-1.3,6.4,6.4,0,0,0,1.4-2.2,9.6,9.6,0,0,0,.5-3.1v-2.2a8.7,8.7,0,0,1-3.1,2.3,10.8,10.8,0,0,1-4.2.8,9.8,9.8,0,0,1-7.6-3.9,13.8,13.8,0,0,1-2.1-4.2,18.4,18.4,0,0,1-.8-5.3Zm4.6.5a13.7,13.7,0,0,0,.4,3.6,7.7,7.7,0,0,0,1.2,3.1,6.3,6.3,0,0,0,2.2,2.1,6.7,6.7,0,0,0,3.3.7l2.1-.2,1.7-.8a8,8,0,0,0,1.3-1.3,5.6,5.6,0,0,0,1-1.5v-12.1a5.6,5.6,0,0,0-1-1.5,5.3,5.3,0,0,0-1.4-1.2,4.8,4.8,0,0,0-1.6-.8,7.1,7.1,0,0,0-2.1-.3,7,7,0,0,0-3.3.8,6.3,6.3,0,0,0-2.2,2.1,7.7,7.7,0,0,0-1.2,3.1,14.5,14.5,0,0,0-.4,3.7Z" transform="translate(-7.2 -62.7)" fill="#514361"/><path d="M707.5,1171.5a12.5,12.5,0,0,1-5.1-1,12,12,0,0,1-4-2.6,12.9,12.9,0,0,1-3.5-9.2v-1a16.1,16.1,0,0,1,1-5.7,11.9,11.9,0,0,1,2.8-4.3,11,11,0,0,1,3.8-2.7,11.7,11.7,0,0,1,4.5-.9,10.7,10.7,0,0,1,4.9,1,8.2,8.2,0,0,1,3.6,2.7,11.4,11.4,0,0,1,2.1,4.1,17,17,0,0,1,.7,5.1v2.1H699.4a12.8,12.8,0,0,0,.7,3.4,9.5,9.5,0,0,0,1.7,2.7,9.7,9.7,0,0,0,2.6,1.9,8,8,0,0,0,3.4.7,8.8,8.8,0,0,0,4.3-1,8.6,8.6,0,0,0,3.1-2.6l2.8,2.2a14.5,14.5,0,0,1-1.7,1.9,10.3,10.3,0,0,1-2.3,1.6,8.3,8.3,0,0,1-2.9,1.1A13.6,13.6,0,0,1,707.5,1171.5Zm-.5-23.7a7.1,7.1,0,0,0-2.6.5,5.4,5.4,0,0,0-2.2,1.5,8.1,8.1,0,0,0-1.7,2.3,14.4,14.4,0,0,0-.9,3.3h14.2v-.4a11.9,11.9,0,0,0-.5-2.6,6.5,6.5,0,0,0-1.3-2.3,6,6,0,0,0-2.1-1.7A6.5,6.5,0,0,0,707,1147.8Z" transform="translate(-7.2 -62.7)" fill="#514361"/><path d="M729.9,1144.6l.3,3.9a9.9,9.9,0,0,1,3.6-3.2,9.4,9.4,0,0,1,4.7-1.2,10.6,10.6,0,0,1,3.7.6,7.1,7.1,0,0,1,2.9,1.8,7.8,7.8,0,0,1,1.9,3.2,14.9,14.9,0,0,1,.6,4.5V1171h-4.5v-16.7a8.7,8.7,0,0,0-.4-3,4,4,0,0,0-1.1-1.9,4.5,4.5,0,0,0-1.9-1.1,7.1,7.1,0,0,0-2.6-.4,7.7,7.7,0,0,0-4,1.1,9.7,9.7,0,0,0-2.7,3v19h-4.5v-26.4Z" transform="translate(-7.2 -62.7)" fill="#514361"/><path d="M755,1157.6a19.2,19.2,0,0,1,.8-5.5,13.8,13.8,0,0,1,2.1-4.2,9.9,9.9,0,0,1,3.3-2.8,9.2,9.2,0,0,1,4.4-1,9.1,9.1,0,0,1,7.2,3.1v-13.7h4.5V1171h-4.1l-.2-2.8a8.2,8.2,0,0,1-3.2,2.4,9.8,9.8,0,0,1-8.6-.2,8.8,8.8,0,0,1-3.3-2.8,13.8,13.8,0,0,1-2.1-4.2,18.4,18.4,0,0,1-.8-5.3Zm4.5.5a13.6,13.6,0,0,0,.5,3.6,9.6,9.6,0,0,0,1.2,3.1,6.6,6.6,0,0,0,2.3,2.1,6.1,6.1,0,0,0,3.2.7,6.5,6.5,0,0,0,2-.2,6.7,6.7,0,0,0,1.7-.8,5.3,5.3,0,0,0,1.4-1.2,13,13,0,0,0,1-1.5v-12.3a6.7,6.7,0,0,0-2.4-2.6,6.2,6.2,0,0,0-3.7-1.1,6.5,6.5,0,0,0-5.5,2.9,9.6,9.6,0,0,0-1.2,3.1,14.4,14.4,0,0,0-.5,3.7Z" transform="translate(-7.2 -62.7)" fill="#514361"/></g><g style="isolation:isolate"><path d="M40.1,739.1a9.9,9.9,0,0,0,2.4-.3,10.3,10.3,0,0,0,2.1-1.1A5.8,5.8,0,0,0,46,736a3.6,3.6,0,0,0,.6-2h4.3a8.3,8.3,0,0,1-1,3.4,10.1,10.1,0,0,1-2.3,2.8,13.1,13.1,0,0,1-3.5,1.9,10.5,10.5,0,0,1-4,.7,10.8,10.8,0,0,1-5.2-1.1,9.9,9.9,0,0,1-3.8-2.9,12,12,0,0,1-2.2-4.2,15.9,15.9,0,0,1-.8-5v-1a16.9,16.9,0,0,1,.8-5,12,12,0,0,1,2.2-4.2,11,11,0,0,1,3.8-2.9,12.1,12.1,0,0,1,5.2-1.1,11.8,11.8,0,0,1,4.3.8,9.6,9.6,0,0,1,3.4,2,8.1,8.1,0,0,1,2.2,3,8.5,8.5,0,0,1,.9,3.8H46.6a5.9,5.9,0,0,0-.5-2.3,6.2,6.2,0,0,0-1.4-1.8,5.3,5.3,0,0,0-2-1.3,7.5,7.5,0,0,0-2.6-.5,6.3,6.3,0,0,0-3.5.9,6.1,6.1,0,0,0-2.3,2.2,10.1,10.1,0,0,0-1.3,3,19.7,19.7,0,0,0-.4,3.4v1a20.9,20.9,0,0,0,.4,3.5,10.1,10.1,0,0,0,1.3,3,6.1,6.1,0,0,0,2.3,2.2A6.3,6.3,0,0,0,40.1,739.1Z" transform="translate(-7.2 -62.7)" fill="#514361"/><path d="M57.6,728.9a17.8,17.8,0,0,1,.8-5.3,13.7,13.7,0,0,1,2.4-4.3,9.7,9.7,0,0,1,3.8-2.8,11.9,11.9,0,0,1,10,0,9.7,9.7,0,0,1,3.8,2.8,13.7,13.7,0,0,1,2.4,4.3,17.8,17.8,0,0,1,.8,5.3v.5a17.8,17.8,0,0,1-.8,5.3,16.4,16.4,0,0,1-2.4,4.3,10.8,10.8,0,0,1-3.8,2.8,11.2,11.2,0,0,1-5,1,11.8,11.8,0,0,1-5-1,10.8,10.8,0,0,1-3.8-2.8,16.4,16.4,0,0,1-2.4-4.3,17.8,17.8,0,0,1-.8-5.3Zm4.5.5a14.4,14.4,0,0,0,.5,3.7,9.8,9.8,0,0,0,1.4,3.1,8,8,0,0,0,2.3,2.2,7.2,7.2,0,0,0,3.3.7,6.7,6.7,0,0,0,3.3-.7,8.6,8.6,0,0,0,3.7-5.3,14.4,14.4,0,0,0,.5-3.7v-.5a15,15,0,0,0-.5-3.7,9.8,9.8,0,0,0-1.4-3.1,8,8,0,0,0-2.3-2.2,7.3,7.3,0,0,0-3.3-.8,6.7,6.7,0,0,0-3.3.8,8,8,0,0,0-2.3,2.2,9.8,9.8,0,0,0-1.4,3.1,15,15,0,0,0-.5,3.7Z" transform="translate(-7.2 -62.7)" fill="#514361"/><path d="M89.6,704.8h13.5v33.6h8.6v3.9H89.6v-3.9h9V708.8h-9Z" transform="translate(-7.2 -62.7)" fill="#514361"/><path d="M117.6,728.9a17.8,17.8,0,0,1,.8-5.3,13.7,13.7,0,0,1,2.4-4.3,9.7,9.7,0,0,1,3.8-2.8,11.9,11.9,0,0,1,10,0,9.7,9.7,0,0,1,3.8,2.8,12,12,0,0,1,2.4,4.3,17.8,17.8,0,0,1,.8,5.3v.5a17.8,17.8,0,0,1-.8,5.3,14,14,0,0,1-2.4,4.3,10.8,10.8,0,0,1-3.8,2.8,11.2,11.2,0,0,1-5,1,11.8,11.8,0,0,1-5-1,10.8,10.8,0,0,1-3.8-2.8,16.4,16.4,0,0,1-2.4-4.3,17.8,17.8,0,0,1-.8-5.3Zm4.5.5a14.4,14.4,0,0,0,.5,3.7,9.8,9.8,0,0,0,1.4,3.1,8,8,0,0,0,2.3,2.2,7.2,7.2,0,0,0,3.3.7,6.7,6.7,0,0,0,3.3-.7,8.6,8.6,0,0,0,3.7-5.3,11.1,11.1,0,0,0,.5-3.7v-.5a11.4,11.4,0,0,0-.5-3.7,9.8,9.8,0,0,0-1.4-3.1,8,8,0,0,0-2.3-2.2,7.3,7.3,0,0,0-3.3-.8,6.7,6.7,0,0,0-3.3.8,8,8,0,0,0-2.3,2.2,9.8,9.8,0,0,0-1.4,3.1,15,15,0,0,0-.5,3.7Z" transform="translate(-7.2 -62.7)" fill="#514361"/><path d="M166.2,715.4h2.6l1.2.2.8.3-.6,4.4-2.5-.5h-2.5a8.1,8.1,0,0,0-5.1,1.5,8,8,0,0,0-2.9,4v16.9h-4.5V715.9H157l.2,4.2a12.3,12.3,0,0,1,3.8-3.4A10.3,10.3,0,0,1,166.2,715.4Z" transform="translate(-7.2 -62.7)" fill="#514361"/><path d="M190.6,742.8a14.6,14.6,0,0,1-5.2-.9,15.6,15.6,0,0,1-4-2.7,11.3,11.3,0,0,1-2.5-4.1,11.9,11.9,0,0,1-1-5.1v-1a14.8,14.8,0,0,1,1.1-5.7,11.2,11.2,0,0,1,2.7-4.3,14.6,14.6,0,0,1,3.8-2.7,12,12,0,0,1,4.5-.9,11.5,11.5,0,0,1,5,1,10.6,10.6,0,0,1,3.5,2.7,10.4,10.4,0,0,1,2.1,4.2,16.1,16.1,0,0,1,.7,5.1v2H182.4a12.8,12.8,0,0,0,.7,3.4,9,9,0,0,0,1.8,2.8,6.1,6.1,0,0,0,2.6,1.8,7.2,7.2,0,0,0,3.3.7,8.8,8.8,0,0,0,4.3-1,9.5,9.5,0,0,0,3.1-2.5l2.8,2.1a10.1,10.1,0,0,1-1.7,1.9,7.9,7.9,0,0,1-2.3,1.6,11,11,0,0,1-2.9,1.2A13.4,13.4,0,0,1,190.6,742.8Zm-.6-23.7a7.5,7.5,0,0,0-2.6.5,8.6,8.6,0,0,0-2.2,1.5,7.4,7.4,0,0,0-1.7,2.4,13.5,13.5,0,0,0-.9,3.2h14.2v-.3a8.6,8.6,0,0,0-.5-2.7,7.6,7.6,0,0,0-1.3-2.3,5.3,5.3,0,0,0-2-1.6A6,6,0,0,0,190,719.1Z" transform="translate(-7.2 -62.7)" fill="#514361"/><path d="M208,728.9a18,18,0,0,1,.8-5.4,13.3,13.3,0,0,1,2.1-4.3,9.9,9.9,0,0,1,3.3-2.8,10.5,10.5,0,0,1,4.4-1,10,10,0,0,1,4.1.8,8.7,8.7,0,0,1,3.1,2.3V704.8h4.5v37.5h-4.1l-.2-2.8a9.6,9.6,0,0,1-3.2,2.5,10.8,10.8,0,0,1-4.2.8,9.2,9.2,0,0,1-4.4-1,9.9,9.9,0,0,1-3.3-2.8,15.6,15.6,0,0,1-2.1-4.3,17.8,17.8,0,0,1-.8-5.3Zm4.5.5a15,15,0,0,0,.5,3.7,9.9,9.9,0,0,0,1.2,3,6.6,6.6,0,0,0,2.3,2.1,6.3,6.3,0,0,0,3.2.8,7.6,7.6,0,0,0,2.1-.3,4.8,4.8,0,0,0,1.6-.8,5.3,5.3,0,0,0,1.4-1.2,5.6,5.6,0,0,0,1-1.5V722.9a8.5,8.5,0,0,0-2.4-2.6,6.2,6.2,0,0,0-3.7-1,6.6,6.6,0,0,0-3.2.7,9.3,9.3,0,0,0-2.3,2.1,10.5,10.5,0,0,0-1.2,3.1,15,15,0,0,0-.5,3.7Z" transform="translate(-7.2 -62.7)" fill="#514361"/><path d="M46.4,795.3a3.2,3.2,0,0,0-.3-1.4,2.5,2.5,0,0,0-1.1-1.2,7.5,7.5,0,0,0-2-1,15.3,15.3,0,0,0-3.1-.8,22,22,0,0,1-4.1-1.2,11.9,11.9,0,0,1-3.2-1.5,7.3,7.3,0,0,1-2.1-2.2,5.3,5.3,0,0,1-.7-2.8,6.7,6.7,0,0,1,.7-3.1,8.3,8.3,0,0,1,2.2-2.4,10.9,10.9,0,0,1,3.2-1.7,14.2,14.2,0,0,1,4.2-.6,12.3,12.3,0,0,1,4.4.7,10.3,10.3,0,0,1,3.3,1.7,8.6,8.6,0,0,1,2.1,2.6,7.3,7.3,0,0,1,.8,3.3H46.1a3.3,3.3,0,0,0-.4-1.7,7.9,7.9,0,0,0-1.2-1.5,8.5,8.5,0,0,0-1.9-1,9.3,9.3,0,0,0-2.5-.4,9,9,0,0,0-2.5.3,5,5,0,0,0-1.8.9,4,4,0,0,0-1.1,1.2,2.8,2.8,0,0,0-.4,1.5,3.2,3.2,0,0,0,.3,1.4,2.6,2.6,0,0,0,1,1.1l1.9.9,3.1.7,4.4,1.2a15.9,15.9,0,0,1,3.2,1.6,6.8,6.8,0,0,1,2,2.2,5.4,5.4,0,0,1,.7,2.9,5.9,5.9,0,0,1-.8,3.2,6.5,6.5,0,0,1-2.2,2.5,9.7,9.7,0,0,1-3.4,1.5,14.4,14.4,0,0,1-4.3.6,14.3,14.3,0,0,1-4.8-.7,10.6,10.6,0,0,1-3.5-1.9,7.4,7.4,0,0,1-2.2-2.8,6.1,6.1,0,0,1-.8-3.2h4.5a4.6,4.6,0,0,0,2.4,3.9,6.6,6.6,0,0,0,2.1.8,9,9,0,0,0,2.3.2,8.3,8.3,0,0,0,4.5-1A3.2,3.2,0,0,0,46.4,795.3Z" transform="translate(-7.2 -62.7)" fill="#514361"/><path d="M68.6,792.9l1.2,3.2,8-20.2h5.1L69.5,806.4c-.4.7-.7,1.4-1.2,2.2a16.8,16.8,0,0,1-1.8,2.1,10,10,0,0,1-2.4,1.6,6.2,6.2,0,0,1-3.1.7H59.5l-.7-.2h-.6l.7-3.7h2.2a2.6,2.6,0,0,0,1.7-.5,3.7,3.7,0,0,0,1.3-1.2l1.1-1.5a6.6,6.6,0,0,0,.6-1.2l1.9-3.5L56.3,775.9h5Z" transform="translate(-7.2 -62.7)" fill="#514361"/><path d="M90.9,775.9l.2,2.5a5.6,5.6,0,0,1,2.1-2.2,5.9,5.9,0,0,1,3.1-.8c2.5,0,4.1,1,4.9,2.8a5.8,5.8,0,0,1,2.1-2,5.9,5.9,0,0,1,3.1-.8,5.4,5.4,0,0,1,4.4,1.8c1.1,1.2,1.6,3,1.6,5.4v19.7h-4.3V782.5c0-2.2-1-3.3-3-3.2a3,3,0,0,0-1.4.2,1.7,1.7,0,0,0-1,.6,1.6,1.6,0,0,0-.6.8,2.3,2.3,0,0,0-.3,1.1v20.3H97.5V782.5a4.3,4.3,0,0,0-.7-2.4,2.4,2.4,0,0,0-2.3-.8,3.8,3.8,0,0,0-2.2.5,3.3,3.3,0,0,0-1.1,1.5v21H86.9V775.9Z" transform="translate(-7.2 -62.7)" fill="#514361"/><path d="M141.3,789.4a21.9,21.9,0,0,1-.7,5.3,15.4,15.4,0,0,1-2,4.3,9.9,9.9,0,0,1-3.3,2.8,9.2,9.2,0,0,1-4.4,1,9.9,9.9,0,0,1-4.4-.9,8.2,8.2,0,0,1-3.2-2.6l-.3,3h-4.1V764.8h4.5v13.9a9,9,0,0,1,3.1-2.4,10,10,0,0,1,4.3-.9,10.6,10.6,0,0,1,4.5,1,9.9,9.9,0,0,1,3.3,2.8,13.2,13.2,0,0,1,2,4.3,22.1,22.1,0,0,1,.7,5.4Zm-4.6-.5a22.2,22.2,0,0,0-.3-3.7,14.3,14.3,0,0,0-1.2-3.1A8.8,8.8,0,0,0,133,780a6.7,6.7,0,0,0-3.3-.7,7.8,7.8,0,0,0-2.2.3,5.3,5.3,0,0,0-1.7.8,7.2,7.2,0,0,0-2.4,2.9v11.6a9.1,9.1,0,0,0,1.1,1.6,8,8,0,0,0,1.3,1.3,6.1,6.1,0,0,0,1.8.9,7.1,7.1,0,0,0,2.1.3,6.2,6.2,0,0,0,5.4-2.9,7.9,7.9,0,0,0,1.2-3,15,15,0,0,0,.4-3.7Z" transform="translate(-7.2 -62.7)" fill="#514361"/><path d="M147.6,788.9a17.8,17.8,0,0,1,.8-5.3,13.7,13.7,0,0,1,2.4-4.3,10.4,10.4,0,0,1,3.8-2.8,11.9,11.9,0,0,1,10,0,9.7,9.7,0,0,1,3.8,2.8,12,12,0,0,1,2.4,4.3,15.1,15.1,0,0,1,.8,5.3v.5a15.1,15.1,0,0,1-.8,5.3,14,14,0,0,1-2.4,4.3,10.8,10.8,0,0,1-3.8,2.8,11.2,11.2,0,0,1-5,1,11.3,11.3,0,0,1-8.8-3.8,16.4,16.4,0,0,1-2.4-4.3,17.8,17.8,0,0,1-.8-5.3Zm4.5.5a14.4,14.4,0,0,0,.5,3.7,9.8,9.8,0,0,0,1.4,3.1,8,8,0,0,0,2.3,2.2,7.2,7.2,0,0,0,3.3.7,6.7,6.7,0,0,0,3.3-.7,8,8,0,0,0,2.3-2.2,9.9,9.9,0,0,0,1.5-3.1,14.5,14.5,0,0,0,.4-3.7v-.5a11.4,11.4,0,0,0-.5-3.7,9.8,9.8,0,0,0-1.4-3.1,8,8,0,0,0-2.3-2.2,7.3,7.3,0,0,0-3.3-.8,7,7,0,0,0-3.3.8,8,8,0,0,0-2.3,2.2,9.8,9.8,0,0,0-1.4,3.1,15,15,0,0,0-.5,3.7Z" transform="translate(-7.2 -62.7)" fill="#514361"/><path d="M179.6,764.8h13.5v33.6h8.6v3.9H179.6v-3.9h9V768.8h-9Z" transform="translate(-7.2 -62.7)" fill="#514361"/></g><rect x="53.9" y="1064.7" width="65.6" height="65.58" fill="#ebebeb"/><rect x="153.1" y="1064.7" width="65.6" height="65.58" fill="#e3e3e3"/><rect x="251.5" y="1064.7" width="65.6" height="65.58" fill="#d5d5d5"/><rect x="350.8" y="1064.7" width="65.6" height="65.58" fill="#bababa"/><line x1="480.4" y1="1095.4" x2="480.4" y2="1095.4" fill="none" stroke="#afafaf" stroke-linecap="round" stroke-miterlimit="10" stroke-width="4"/><line x1="490.4" y1="1095.4" x2="575.9" y2="1095.4" fill="none" stroke="#afafaf" stroke-linecap="round" stroke-miterlimit="10" stroke-width="4" stroke-dasharray="0 10.06"/><line x1="581" y1="1095.4" x2="581" y2="1095.4" fill="none" stroke="#afafaf" stroke-linecap="round" stroke-miterlimit="10" stroke-width="4"/><line x1="946.7" y1="33" x2="946.7" y2="33" fill="none" stroke="#afafaf" stroke-linecap="round" stroke-miterlimit="10" stroke-width="4"/><line x1="956.1" y1="33" x2="1007.9" y2="33" fill="none" stroke="#afafaf" stroke-linecap="round" stroke-miterlimit="10" stroke-width="4" stroke-dasharray="0 9.43"/><line x1="1012.7" y1="33" x2="1012.7" y2="33" fill="none" stroke="#afafaf" stroke-linecap="round" stroke-miterlimit="10" stroke-width="4"/><line x1="1012.7" y1="43" x2="1012.7" y2="955.2" fill="none" stroke="#afafaf" stroke-linecap="round" stroke-miterlimit="10" stroke-width="4" stroke-dasharray="0 9.97"/><line x1="1012.7" y1="960.2" x2="1012.7" y2="960.2" fill="none" stroke="#afafaf" stroke-linecap="round" stroke-miterlimit="10" stroke-width="4"/><line x1="1003.4" y1="960.2" x2="952.4" y2="960.2" fill="none" stroke="#afafaf" stroke-linecap="round" stroke-miterlimit="10" stroke-width="4" stroke-dasharray="0 9.27"/><line x1="947.7" y1="960.2" x2="947.7" y2="960.2" fill="none" stroke="#afafaf" stroke-linecap="round" stroke-miterlimit="10" stroke-width="4"/><line x1="1012.7" y1="511.2" x2="1012.7" y2="511.2" fill="none" stroke="#afafaf" stroke-linecap="round" stroke-miterlimit="10" stroke-width="4"/><line x1="1022.1" y1="511.2" x2="1045.8" y2="511.2" fill="none" stroke="#afafaf" stroke-linecap="round" stroke-miterlimit="10" stroke-width="4" stroke-dasharray="0 9.47"/><line x1="1050.5" y1="511.2" x2="1050.5" y2="511.2" fill="none" stroke="#afafaf" stroke-linecap="round" stroke-miterlimit="10" stroke-width="4"/><polygon points="296.9 336.8 299.8 252.2 240.2 230.2 160.7 271.9 122 247.4 79.3 241.9 42.1 256.2 18 258.7 0 294.8 37.9 408.7 69 431.1 83.7 463.2 147.8 456.4 171.3 494.6 229.8 488.4 250.6 437 309.9 421.1 318 357.9 296.9 336.8" fill="#efefef"/><polygon points="670.4 599.7 680.7 685.8 647.9 745.5 671.9 769.5 664.1 879.1 698.6 905.7 741.2 903.9 825.1 779.2 825.1 735.1 870.1 702.1 906.3 626 906.3 594.7 933.6 567.4 884 515.9 822.6 491.7 757.1 487.1 731.6 520.2 731.6 520.2 698.7 563 670.4 599.7" fill="#efefef"/><polygon points="357.7 479.8 418.8 541 485.2 521 496.3 502.7 533.6 495.9 580.7 552.4 580.7 574.4 622.4 592.7 641.5 582.4 663.6 592.1 673.3 579.5 722.1 516.1 671.5 476.8 634.7 401.7 538.9 310.3 555.6 272.3 539.6 230.1 580.4 94.7 508.7 61.7 486.9 29.7 462.5 34.3 426.8 36.1 393.8 139 391.1 163 334 203 310 250 307.1 332.8 328.6 354.3 319.8 423.1 357.7 458.1 357.7 479.8" fill="#efefef"/><polygon points="622.9 603.8 570.7 581 570.7 556 529.7 506.8 502.5 511.8 491.8 529.5 416 552.4 347.6 484 347.6 462.5 313.1 430.6 258 445.4 238.8 492.8 260.6 534.4 224.7 589.7 253.5 627.4 237.4 644.6 240.2 692 261.6 725.1 275.9 832.2 345.1 844.9 375.1 829.9 401.2 872.8 432.2 889.3 428.4 950.8 488.3 963 512.7 927.9 571.4 935.6 596.9 868.1 654.2 875.8 661.5 773.3 635.5 747.3 670.3 683.8 660.6 601.7 642 593.5 622.9 603.8" fill="#efefef"/><polygon points="752.4 476.7 824.9 481.8 883.8 505 922.4 394.6 897.3 344.3 926.1 315.6 921.8 272.5 966.2 213.8 937.6 186.9 851.7 186 828.9 196.9 768.7 131.7 732.6 122.4 647.1 122.4 620.5 133.1 588.9 101.4 550.2 229.7 566.4 272.6 550.9 307.9 642.9 395.6 679.5 470.3 728.2 508.1 752.4 476.7" fill="#efefef"/><rect x="430.8" y="592.7" width="33.6" height="33.56" fill="#d5d5d5"/><rect x="464.3" y="614" width="33.6" height="33.56" fill="#d5d5d5"/><line x1="216.4" y1="697.8" x2="216.4" y2="697.8" fill="none" stroke="#afafaf" stroke-linecap="round" stroke-miterlimit="10" stroke-width="4"/><line x1="226.5" y1="697.8" x2="363.1" y2="697.8" fill="none" stroke="#afafaf" stroke-linecap="round" stroke-miterlimit="10" stroke-width="4" stroke-dasharray="0 10.12"/><line x1="368.1" y1="697.8" x2="368.1" y2="697.8" fill="none" stroke="#afafaf" stroke-linecap="round" stroke-miterlimit="10" stroke-width="4"/><rect x="440.3" y="647.6" width="33.6" height="33.56" fill="#e3e3e3"/><rect x="473.9" y="664.3" width="33.6" height="33.56" fill="#bababa"/><rect x="440.3" y="681" width="33.6" height="33.56" fill="#bababa"/><rect x="406.8" y="662.9" width="33.6" height="33.56" fill="#bababa"/><rect x="406.8" y="695.8" width="33.6" height="33.56" fill="#d5d5d5"/><rect x="373.2" y="681.1" width="33.6" height="33.56" fill="#e3e3e3"/><rect x="541" y="697.9" width="33.6" height="33.56" fill="#bababa"/><rect x="507.4" y="714.6" width="33.6" height="33.56" fill="#bababa"/><rect x="473.9" y="698.3" width="33.6" height="33.56" fill="#d5d5d5"/><rect x="473.9" y="732.4" width="33.6" height="33.56" fill="#e3e3e3"/><rect x="440.3" y="714.7" width="33.6" height="33.56" fill="#e3e3e3"/></svg>