<?xml version="1.0" encoding="utf-8"?>
<!-- Generator: Adobe Illustrator 22.1.0, SVG Export Plug-In . SVG Version: 6.00 Build 0)  -->
<svg version="1.1" xmlns="http://www.w3.org/2000/svg" xmlns:xlink="http://www.w3.org/1999/xlink" x="0px" y="0px"
	 viewBox="0 0 1268 418" enable-background="new 0 0 1268 418" xml:space="preserve">
<g id="Layer_1">
	<g>
		<polygon opacity="0.8" fill="#DDD9E0" points="444.9,72.7 445.1,71.4 442.2,69.8 438.2,69 438.1,71.9 441.9,73 		"/>
		<polygon opacity="0.8" fill="#DDD9E0" points="524,24.7 526.7,23.3 525.8,22.6 522,23.7 		"/>
		<polygon opacity="0.8" fill="#DDD9E0" points="447.5,12.2 449.7,12.3 449.1,13.5 		"/>
		<polygon opacity="0.8" fill="#DDD9E0" points="448.6,11.1 447.3,9 449,9.1 450.3,11 449.9,11.7 		"/>
		<polygon opacity="0.8" fill="#DDD9E0" points="510.4,66 506.6,63.9 507.3,65.5 502.6,66.6 501.8,66.8 501.3,68.4 501.1,69 
			501.1,69 503.6,68.7 504.3,68.6 504.7,68.5 504.4,68.7 504.2,68.8 502.4,69.8 501.8,70.1 503.3,70.6 503.6,70.5 508,68.8 
			512.1,70.1 514.8,70.1 512.9,72 510.8,72.6 505.6,76 501.6,76.5 498.4,78 493.3,78.5 492.2,78.6 489.1,80.6 489.2,81.7 486,85.4 
			481.9,87.5 478.4,88.4 478.1,85.9 476.9,88.1 473.1,88.9 474.6,89.4 472.2,91.2 472.2,95.4 468.6,99.4 466.2,99.2 468.1,100.7 
			467.3,104.4 466.7,106.8 465.4,107.3 466,108.9 463.9,109.7 462.5,109 460.7,108.3 459.4,106.5 454.1,106 455.3,105.4 
			452.4,104.5 451.5,101.3 449.2,100.1 449.5,98.4 447.6,97.5 446.2,95.7 446.8,91.6 445,94 445.1,90.8 443.5,87.8 442.3,88.1 
			441.3,84.9 444.5,83.1 440.6,82.5 442.4,78 445.4,78.6 442.3,77.1 447.2,76.5 448,72.1 446.5,70.8 440.8,68.9 439.1,67.6 
			444.1,67.6 446.2,68.8 447.8,67.8 445.5,67.6 445.6,66 441.9,65.6 443.8,63.3 440.6,64.4 437.4,64.6 436,63.4 437,61.3 
			436.5,57.3 437.5,55.8 435.5,54.9 436.4,53.7 434.8,52.6 435.4,51.2 433.2,48.7 430.6,47.9 430.6,47.9 430.6,47.9 429.5,46.5 
			430,44.9 424.3,42.8 423.8,42.7 423.8,42.7 418.1,41.7 416.9,42.9 411.7,42.2 411.1,43.8 406.5,43.1 402.8,40.8 404.4,40.1 
			399.7,38.6 400.7,36.3 404,35.2 399.7,34.8 396,32.8 396.8,30.9 404.4,29.4 407.4,28 412.3,27.9 414.9,25.7 414.4,23 409.8,22.8 
			409.6,22.5 408.8,21.3 410.9,19.7 413.3,19.5 415,17.7 419.3,16.4 422.7,17.2 424.5,14.8 422.9,13.4 429.7,11.4 439.5,9.9 
			441.6,11.4 441,14.5 443,12.7 442,10.5 445.4,11.5 447,12 444.9,12 444.9,12 449.1,13.5 447.6,16.7 447.4,26.4 448.6,28.8 
			450.8,21.2 453.8,23.5 452,28.9 454.7,25.9 458.5,29.7 458,33.6 466.4,34.6 461,35.9 477.8,37.9 473.3,41.5 478.7,49.3 
			483.3,51.8 492.6,53.2 491.6,55.1 504,54.8 496.3,51.5 496.9,45.7 500.9,46.9 503.8,50.7 507,50 517.8,53.1 518.2,53.8 
			519.1,55.4 516.8,55.3 515.7,55.9 515,56.4 511,54.8 506,56.4 507.2,56.8 507,56.6 509.9,55.5 511.2,56.2 513.6,57.4 515.9,59 
			513.5,58.5 515.8,60.2 515.2,61.4 510.5,59.6 509.9,58.2 511.8,58.2 509.8,58 508.8,57.4 508.8,57.4 508.7,57.4 508.7,57.5 
			509.8,60.1 514.6,62.4 513.2,63.3 516.2,65.1 516.9,68.3 512.6,68.7 		"/>
		<polygon opacity="0.8" fill="#DDD9E0" points="502.4,67.4 501.5,68.8 508,67.8 507.1,66 		"/>
		<polygon opacity="0.8" fill="#DDD9E0" points="755.7,247.1 755,250.9 755.4,253.8 757.1,255.8 759.7,254.6 759.9,251.9 
			757.5,247.7 		"/>
		<polygon opacity="0.8" fill="#DDD9E0" points="597.3,123.9 596.3,122.2 593.3,123.5 595.1,126.4 596.1,126.1 		"/>
		<polygon opacity="0.8" fill="#DDD9E0" points="409.7,227.4 411.7,227.4 413.9,226.5 409.7,225.9 		"/>
		<polygon opacity="0.8" fill="#DDD9E0" points="256.7,125 254.1,121.6 253.2,122.9 253.2,124.4 255,127 		"/>
		<polygon opacity="0.8" fill="#DDD9E0" points="254.4,119.4 251.3,119.9 252.1,122.1 252.9,120.6 255.7,120.6 		"/>
		<polygon opacity="0.8" fill="#DDD9E0" points="203.6,117.9 204.7,119.6 209.1,117.9 209.1,113.7 207,115.7 		"/>
		<polygon opacity="0.8" fill="#DDD9E0" points="249.1,117.5 250.1,115.8 248,114.9 246.3,115.8 247.6,117.2 250.7,122.1 
			250.1,118.1 		"/>
		<polygon opacity="0.8" fill="#DDD9E0" points="163.2,96.3 167,97.1 168.2,98.3 170.6,97 164.4,95.8 		"/>
		<polygon opacity="0.8" fill="#DDD9E0" points="174.2,130.9 176.3,130.2 176.7,128.8 174.6,129.3 		"/>
		<polygon opacity="0.8" fill="#DDD9E0" points="414.9,228 415.7,227.7 415.2,227.7 414.9,227.7 		"/>
		<polygon opacity="0.8" fill="#DDD9E0" points="343.5,75.3 340.4,77 334.7,74.9 330.7,74.8 334.7,74.2 336.5,71.4 338.2,71 
			340.9,73.1 342,75.2 		"/>
		<polygon opacity="0.8" fill="#DDD9E0" points="340.9,60.1 340.3,62.7 335.3,65.1 332.6,62.5 326.1,59 327.4,57.1 329.3,58.7 
			332.2,57.6 328.4,55.3 330.1,53.7 332.2,54.1 336.5,52.5 337.5,50.6 337,53.2 338.7,53.6 339,55.7 336.1,57.3 338.7,57.6 
			339.8,56.6 		"/>
		<polygon opacity="0.8" fill="#DDD9E0" points="327.2,71 325.6,73.1 327.4,72.7 328.2,74.2 324.1,75.7 317.2,74 316.7,72.7 
			315,74.7 308.2,76.3 305.2,77.5 305.1,76.6 302.2,77 300.2,75.5 300,74 294.6,73.5 291.2,70.6 292.3,70 293.8,69.9 293.8,69.9 
			295.9,69.6 298.9,69.3 302.6,69.8 303.7,68.4 300.5,67.7 293.5,68.2 291.7,68.3 291.1,67.8 291.1,67.8 289,66.2 294.4,64.7 
			291,64.7 289.7,63.4 287.4,63.6 287.4,62.3 289.6,60.9 288.5,60.1 291.5,57.9 298,55.8 299.4,57 299.9,59.2 301.6,57.4 
			305.8,58.7 304.8,60.7 307,59.5 309.2,59.7 307,57.5 308.5,57.5 312,59.5 314,63.5 313.1,56.1 313.4,55 319.7,58.5 320.4,61.4 
			322.1,64.7 321.3,65.9 322.9,67.4 328.6,70.1 329.8,69.8 329.5,72.7 		"/>
		<polygon opacity="0.8" fill="#DDD9E0" points="436.8,139 437.1,136.9 434.1,137.6 432.6,139.6 429.4,146 427.8,148.2 428.4,149.2 
			431,148.7 437.1,149.4 435.9,151.2 440.7,149.7 441.6,151.9 442.9,151.4 443.8,149.3 443,147.6 440.8,148.7 441.9,146.7 
			440.7,146.1 441.8,144 439.2,142.8 438.5,144 435.5,142.7 435.5,139.5 		"/>
		<polygon opacity="0.8" fill="#DDD9E0" points="390.9,80.7 389,81.8 386.5,81.9 385.6,80 387.1,77.8 389.6,77.6 390.8,77.9 		"/>
		<polygon opacity="0.8" fill="#DDD9E0" points="421.3,88.1 417.8,88.8 418.5,89.8 415.7,90.3 413.6,88.1 413.7,86.8 410.3,84.6 
			407.8,85 409.8,86.8 407.1,87.6 410,89.3 410,90.3 414.1,92.1 414.2,94.3 416.5,95.2 415.4,98.5 410.9,98.5 408.7,96.5 
			405.2,95.4 412.3,101.1 413.6,103 409,101.3 406.2,101 403.8,99.5 401.1,99.9 398.8,97.5 399.8,96 397.6,95.7 393.3,91.8 
			391.8,93 389.2,92.1 387.6,93.7 385.1,94.3 387.4,96.4 385.7,96 384.1,97.9 382.9,96.3 384.7,96.5 385.1,93.2 383.6,90.8 
			385.3,88.9 389.3,89.8 393.3,88.5 394.7,88.9 392.3,86.2 397.2,82.4 396.8,81.2 396.5,80.1 395.8,77.9 393.6,77.1 392.7,78.5 
			394.8,79.7 392.5,79.7 393,76.8 389.9,74.7 387.2,76 385.6,73 387.7,72.8 385.1,71.6 382.8,72.7 382,75 380.7,75 382,72.6 
			384.7,71.4 384.7,69.8 381.4,68.3 382.4,70.5 380.1,71.2 379.1,72.6 375.5,70.6 373.3,71.6 370.6,70.8 364.6,70.1 363.9,69 
			358.8,68.5 356.9,66 362.2,66.2 360.3,65.4 356.3,64.9 355.5,62.3 358,56.4 361,54.3 363.5,53.7 367.3,53.8 363.5,58.4 
			364.8,62.9 367.9,65.1 368.7,64.2 365.2,61.8 367.4,60.8 365.8,59.1 367.1,56.5 372.7,54.2 375.7,54.3 378.7,58.7 378.2,61.2 
			379.7,59.7 381.8,60.7 385,58.6 390.6,59.7 390.4,61.4 392.8,61.7 392,63.5 395.8,63.9 399.1,64.1 401.7,66.6 406.7,68.1 
			403.6,70 407.1,70 407.4,69.2 409.3,71.4 409.7,71.7 407.6,71.5 410.6,74 408.3,74.1 406.7,76.4 410.1,77.1 410.9,77.7 
			412.3,78.7 415.3,78.9 418.9,81.6 418.5,83.3 421.7,82.7 422.9,85.4 420.3,85.9 		"/>
		<polygon opacity="0.8" fill="#DDD9E0" points="380.2,46.1 379.5,49.1 379,50 375.2,50.9 355.9,50.5 351,49.3 350.4,48.1 350,47.3 
			350.9,45.8 351.1,45.5 350.9,45.2 350.9,45.2 348.4,41.7 346.7,42.1 346.2,42.3 342.1,41.5 339.8,38.7 342.3,38.2 347,39 
			347.8,39.7 348.5,40.4 352.5,40.1 354.7,41.2 357.2,42.6 352.8,42.8 357.7,44.5 358.3,46.2 362,45.4 364.2,46.2 370.5,44.4 
			376.6,44.6 		"/>
		<polygon opacity="0.8" fill="#DDD9E0" points="417.6,152.4 419.6,153.4 421.7,152.4 421.6,150 421.4,152.4 		"/>
		<polygon opacity="0.8" fill="#DDD9E0" points="410.8,14.8 402.7,16.8 415.7,14.5 406.8,19 402.5,21.6 401.3,22.3 399.3,24.5 
			394.9,24.2 395.4,25.6 388.9,26.6 387.7,26.4 385.5,26 385.6,26.9 387.3,27 392.3,27.2 392.2,28.2 388.4,27.8 386.8,27.9 
			384.2,28.2 386.6,28.3 389.3,28.5 392,29.5 391.5,30.5 387.6,30.7 390.9,31.6 389.6,33 386.7,34.1 383.6,33.7 384.6,35.6 
			381.3,37.1 379,37 377.5,36.9 378.7,37.2 381.7,38.1 380.8,39 384.2,38.7 384.6,40.3 381,41.9 381.9,44.2 380,44.1 380.8,42 
			376.8,42.9 377.5,41.4 371.7,41.2 370.1,41.2 369.4,41.7 368.9,42 368,41.9 363.5,41.5 361.9,41.3 355.7,41.2 355.2,40.8 
			354.4,40.1 357.1,39 359.8,38 361.3,36.9 360.7,35.8 360.1,34.5 362,34.6 363.8,34.6 364.7,34.7 365.7,36.1 371.1,36.9 
			373.4,33.8 370.1,36.1 366.3,35.9 366.5,33 361.7,33 361.7,31.2 363.8,29.4 369.3,28.7 367.5,25.1 364,24.4 364,23.2 364.1,21.4 
			365.2,21.5 370.4,21.8 374.2,23.8 375.4,23.6 371.7,21.4 384,19.8 379.3,19.8 387.3,18.2 380.2,18.6 372.5,20.2 371.6,19.3 
			369,20.3 366.1,20.1 363.4,19.8 365,17.6 362.2,19.7 357.2,18.4 363.5,17.6 364,16.9 356.1,17.6 354.9,16.6 359.6,14.3 
			354.7,15.5 356.8,14 351.2,14 353.4,13 357.2,13.1 360.4,11.4 368.2,12.1 363.5,11.2 366.7,10.4 365.7,9.3 372.3,10.2 375.7,11.2 
			379.2,12.2 376,10.9 373,9.8 374.4,8 377.7,8.7 377.9,8.8 377.7,8.7 375.7,7.4 378.5,7.5 379.6,7.5 379,6.6 386.1,6.9 388.4,5.8 
			393,6.2 393.8,6.9 395.8,5.7 403.5,5.5 403.8,6.2 411.4,6.8 406.1,8.4 408.8,8.2 415.3,6.7 419.7,9 422.7,9.1 423.3,10.9 
			416,13.6 413.7,13.3 		"/>
		<polygon opacity="0.8" fill="#DDD9E0" points="321.4,56.1 319.8,58.1 317,55.7 316.7,54.3 320,54.1 		"/>
		<polygon opacity="0.8" fill="#DDD9E0" points="425,150.7 423.3,153 423.3,155.1 426.8,153.7 		"/>
		<polygon opacity="0.8" fill="#DDD9E0" points="374.8,99.2 372,101.2 371.3,100.8 370.1,100.1 370.5,99.7 371.6,98.4 374.3,98.2 		
			"/>
		<polygon opacity="0.8" fill="#DDD9E0" points="378.8,95.2 376.9,96.5 373.4,95.7 372.2,93.7 368.5,97 366.1,97.3 365.7,95.5 
			362.4,96 364.7,94.1 364.2,92.2 365.3,87.7 367.3,87.7 369.6,89.9 373.7,91.5 376,94.2 		"/>
		<polygon opacity="0.8" fill="#DDD9E0" points="416.6,141.9 417.9,143.7 421.1,144.6 421.9,143.8 		"/>
		<polygon opacity="0.8" fill="#DDD9E0" points="283.1,43.8 285.6,44.2 288.6,41.8 287.6,41.1 290.6,39.7 289.9,41.5 294.9,40.1 
			293.8,38 296,37.1 293.7,35.8 288,36.8 281.5,41.4 278.6,42.4 279.5,43.9 		"/>
		<polygon opacity="0.8" fill="#DDD9E0" points="334.5,34.1 333.8,34.1 329.4,34.4 329.8,32.5 325.7,32.5 325.8,31.6 321.8,32.2 
			320.4,31 324,31 322.6,28.5 319.2,28.3 319.6,26.7 323.5,26.5 326.6,28.3 328.4,27.9 333.3,30.5 332.6,31.4 334.2,33.6 		"/>
		<polygon opacity="0.8" fill="#DDD9E0" points="306.1,31.6 307.9,32.1 310.1,32 309.9,30.5 307.8,29.6 301.1,31.5 301.3,32.2 		"/>
		<polygon opacity="0.8" fill="#DDD9E0" points="323.2,46.6 322.3,48.2 319,46.6 318.1,48 312.4,48.7 311.5,47.9 304.8,50.6 
			301.6,51.1 298.9,50 298.3,49.8 302.1,48.4 302.2,48.4 305.1,48.2 306.5,47.1 303.9,47.4 299.4,47.9 299.2,46.6 297.1,48.4 
			291.1,47.3 294.8,41.8 297.2,40.9 297.2,39.7 298.3,40 299.4,42.5 301.6,42.2 305.3,44.2 305.8,45.7 305.8,45.8 311.3,46 
			308.6,44 310.4,43 309.2,42.6 307.8,42 311.6,39.3 312.1,40.2 313.3,42.2 312.3,43.3 315.6,44 316.7,43.3 319.3,44 319.3,45.6 		
			"/>
		<polygon opacity="0.8" fill="#DDD9E0" points="326.7,43.4 323.6,44 322,41.9 322.8,40.2 325.8,41.9 		"/>
		<polygon opacity="0.8" fill="#DDD9E0" points="321,38.1 319.2,37.1 318,34.9 320.4,36.5 		"/>
		<polygon opacity="0.8" fill="#DDD9E0" points="367.8,26.8 364,28 361.5,30.1 359.9,28.7 359.9,31.2 358,32.6 355.2,32.5 
			351.1,32.5 348.2,30.4 345.7,28.5 348.2,27.5 351.3,27.5 349.6,26.1 348.1,26.6 346.6,27.1 342.3,26.3 340.1,22.3 344.3,22.9 
			340.3,21.5 341.7,19.9 343.6,19.8 342.9,18.7 344.3,17.2 348.4,17.1 345.5,16.1 347.6,15.7 348.2,15.5 351.5,16.8 352.5,18.1 
			353.1,18.8 354,20.1 357.4,20.2 358.1,22 359.3,20.7 361.2,20.8 362.9,23.6 362.6,25 362.5,25.3 366.2,25.3 		"/>
		<polygon opacity="0.8" fill="#DDD9E0" points="344.5,31.7 344.3,32.2 343.9,33.7 339.9,34.2 339,33.8 337.5,33.3 336.5,31.7 
			336.4,31.6 336,31 336.6,29.4 339.6,30 		"/>
		<polygon opacity="0.8" fill="#DDD9E0" points="336.6,46.7 336.9,48.2 331.5,48.2 330.6,46.2 332.7,45.1 326.1,46 327.3,44.5 
			324.5,44.7 327,43.5 328,41.3 332.7,43.8 329.5,40.7 331.7,40 334.3,41.3 334.8,40.4 337.7,41.2 338.5,45.1 		"/>
		<polygon opacity="0.8" fill="#DDD9E0" points="300.3,34.5 301.1,36 303.7,37 308.1,36.1 309.5,33.7 307,33.1 301.1,34.1 
			298.6,33.2 296.7,33.8 298.9,35 		"/>
		<polygon opacity="0.8" fill="#DDD9E0" points="257.8,128.7 254.6,128.6 254.8,130.8 259,135.6 256.8,131.9 		"/>
		<polygon opacity="0.8" fill="#DDD9E0" points="347.5,47.1 347.4,49 347.3,49.9 343.2,50.6 340.5,47.3 344.8,44.7 346.8,46.4 		"/>
		<polygon opacity="0.8" fill="#DDD9E0" points="348.3,35 347.5,36.3 341.7,36.3 343.1,34.7 		"/>
		<polygon opacity="0.8" fill="#DDD9E0" points="278.1,145.4 274.1,143.4 272.7,141.3 272.4,140.8 265.4,139.4 270.6,144 
			274.3,146.1 276.8,146.9 		"/>
		<polygon opacity="0.8" fill="#DDD9E0" points="296.2,55.3 287.2,59.2 284.8,61.6 284.2,62.2 283.7,64.1 278,66 275.6,63.3 
			271.3,62.2 273.3,58 276.4,54.1 274,51.4 281.5,50.4 284.8,51.6 289.7,51.6 292.6,52.6 293,52.9 		"/>
		<polygon opacity="0.8" fill="#DDD9E0" points="356.5,36.3 355,35.4 352.9,36.5 355.5,37.6 		"/>
		<polygon opacity="0.8" fill="#DDD9E0" points="388.2,57.1 387.9,58.4 379.5,58.2 377.5,56.3 377.4,54.2 384.4,54.8 		"/>
		<polygon opacity="0.8" fill="#DDD9E0" points="288.5,45.8 290.1,44.7 290.7,42.9 286.5,45.5 		"/>
		<polygon opacity="0.8" fill="#DDD9E0" points="582.7,269.2 583.1,269.6 583.5,269.1 583.1,268.7 		"/>
		<polygon opacity="0.8" fill="#DDD9E0" points="893.2,176.6 892.8,178.5 889.8,179.4 887,182.9 880.6,182.8 875.3,186.7 
			878.3,187.4 880.2,186.6 878.9,188.5 879.4,190.3 881,188.7 883.2,189 884.3,186.3 880.3,186.6 884.5,185 885.9,185.2 
			885.3,187.4 887.4,188.1 889.6,186.3 889.4,185 892.6,185.2 896.3,183.6 896.7,184.7 898.9,182.4 898.2,181 899.3,178 
			899.4,175.3 901.7,172.1 900.2,168.9 897.5,168.5 896.6,169.2 896.9,172.1 895.5,175.8 		"/>
		<polygon opacity="0.8" fill="#DDD9E0" points="872.9,188.7 871.4,186.7 872,189.1 873.7,190.2 873.9,194.2 876.4,193.9 
			878.1,189.8 877.4,188.1 874.5,187.4 		"/>
		<polygon opacity="0.8" fill="#DDD9E0" points="896.6,163.4 897.3,167 898.5,165.8 897.5,164.5 900.9,163.5 904.4,165.4 
			905.4,163.4 909.4,161.6 908.2,159.7 905.6,159.3 901.5,155.2 900,156.2 901.1,157.9 899.6,162.1 		"/>
		<polygon opacity="0.8" fill="#DDD9E0" points="422.9,233.3 423.2,233.9 423.4,233.1 423,233 		"/>
		<polygon opacity="0.8" fill="#DDD9E0" points="385.8,227.9 388.3,227.4 385.3,226 383.1,226.5 		"/>
		<polygon opacity="0.8" fill="#DDD9E0" points="423.6,238.7 423.6,238.3 423.4,238.4 423.5,239 		"/>
		<polygon opacity="0.8" fill="#DDD9E0" points="938,287 935.6,285.2 934.6,286 936.7,286.5 936,288.1 939.3,290.2 938.3,288.6 
			939.9,287.5 		"/>
		<polygon opacity="0.8" fill="#DDD9E0" points="946.3,289.8 943,291.4 945.4,293 944.8,291.2 947.6,292.7 		"/>
		<polygon opacity="0.8" fill="#DDD9E0" points="424.1,236.6 423.8,237.2 424.1,237.4 424.3,236.6 		"/>
		<polygon opacity="0.8" fill="#DDD9E0" points="589.7,163.4 588,163.7 588.2,166.5 589.2,167 		"/>
		<polygon opacity="0.8" fill="#DDD9E0" points="960.8,319.7 958.9,321.1 954.5,317.8 954.1,318.9 958.5,322.4 960,322 		"/>
		<polygon opacity="0.8" fill="#DDD9E0" points="622.5,36.8 624.9,34.4 623.1,34.2 621.5,32.2 616.6,33.2 618.4,33.9 616.7,36.4 
			621.1,35.8 620.3,37.2 		"/>
		<polygon opacity="0.8" fill="#DDD9E0" points="618.1,30.6 615,31 617.1,32.6 619.9,32.2 		"/>
		<polygon opacity="0.8" fill="#DDD9E0" points="619,24 618.9,24.6 613.6,25.2 613.9,26.7 621.4,26.2 621.4,27.2 628.3,26.1 
			628.3,25.1 631.3,23.9 630.6,22.2 624.8,21.5 621.6,22.2 621,20.3 620.1,23 618.9,21.7 616.6,21.9 615.7,19.5 611.1,21.8 
			610.3,23.6 611.7,24.6 		"/>
		<polygon opacity="0.8" fill="#DDD9E0" points="605.4,73.5 603.8,75.2 601.4,76 603.3,76.9 604.7,76.4 		"/>
		<polygon opacity="0.8" fill="#DDD9E0" points="603.5,77 603.3,76.9 603,77 		"/>
		<polygon opacity="0.8" fill="#DDD9E0" points="596.7,28.4 595.4,29.1 595.1,31.2 593,29 593.6,31.4 596.1,32.5 595.7,30.4 
			598.1,32.6 602,31.6 602.4,29.8 604.7,31.8 602.8,33 599.5,33.3 599.8,34.8 607,34.2 600.3,35.9 601.4,37.6 607,40.7 609.2,36.3 
			610.3,36.1 612.2,31.2 618.2,29.1 614,27.6 612,27.6 611.6,25.6 608.9,23.6 605.8,22.8 604.4,23.7 605.9,28.9 603.5,25.1 
			601.7,24.1 600.1,25.6 600,23.7 596.6,24.9 595.4,23.9 593.4,24.7 592.7,25.5 594,27.9 		"/>
		<polygon opacity="0.8" fill="#DDD9E0" points="599,78.6 603,77 600.4,77.5 		"/>
		<polygon opacity="0.8" fill="#DDD9E0" points="420.1,229 420.2,229.1 420,228.7 419.6,228.7 		"/>
		<polygon opacity="0.8" fill="#DDD9E0" points="828.4,222.3 825.6,222.3 823,224.1 823.2,226 825.2,226.8 827.2,225.5 		"/>
		<polygon opacity="0.8" fill="#DDD9E0" points="686.4,208.1 686.6,207.1 686.3,207 686.2,207.6 		"/>
		<polygon opacity="0.8" fill="#DDD9E0" points="867.6,265.7 867.2,268.9 868.1,271.8 869.7,271.8 868.1,267.9 868.9,264.3 		"/>
		<polygon opacity="0.8" fill="#DDD9E0" points="863.8,275.4 864.3,278.2 865.6,278.8 868.9,277 869.8,277.8 872.3,277.5 
			875.3,278.8 874.7,277 872,276.2 868,277.1 864.2,277 		"/>
		<polygon opacity="0.8" fill="#DDD9E0" points="880.6,282.9 883.8,284.4 884.5,283 880.8,282.1 		"/>
		<polygon opacity="0.8" fill="#DDD9E0" points="841.3,289 840.3,290.6 842.8,291.1 846.2,290.5 847.5,289.2 844,289.4 		"/>
		<polygon opacity="0.8" fill="#DDD9E0" points="860,268.7 861.9,265.7 858.8,267.8 851.9,266.5 849.9,268 848.2,274.4 847,276.5 
			848.9,279.8 848.3,282.2 850.5,282.6 850.7,277.2 852.4,276.2 851.9,277.9 853.6,279.3 854.5,282.5 854.7,280.3 856.1,283 
			857.3,279 855.1,278.3 855.2,276.6 853.7,274.1 857.9,271.4 853.7,270.8 851.4,273 849.8,270.2 850.7,268.6 		"/>
		<polygon opacity="0.8" fill="#DDD9E0" points="858.6,289.1 859.6,289.7 863.4,288.5 856.8,289 855.2,290 850.3,289.1 848.9,291.6 
			847.3,292.2 850.9,293.9 851.8,293.4 849.7,290.5 854,290.6 		"/>
		<polygon opacity="0.8" fill="#DDD9E0" points="861.7,291.9 867,289.5 861.9,290 861.3,290.7 860.6,291.2 860.2,291.2 859.6,291.4 
			859.2,291.6 858,294 860.2,293.5 		"/>
		<polygon opacity="0.8" fill="#DDD9E0" points="820,276.5 818.3,276.6 817,273.4 814.9,274.3 818.1,277 		"/>
		<polygon opacity="0.8" fill="#DDD9E0" points="825,272.8 825.9,272.3 826.8,276.7 830.4,276.3 830.5,278.1 833.5,276.6 
			836.8,277.8 837.2,279.4 840.5,278.3 841.8,274.9 841.3,273.9 843.8,270.9 844.6,267.9 847.5,267.5 844.8,265.3 844,260 
			844.4,259.9 844.4,260 844.3,260.4 844.9,260 844.6,259.9 846.8,259.3 845.4,258.3 848.1,257.6 844.5,255.8 842.8,252.5 
			839.5,257.6 838.4,258.2 838.4,258.4 838.1,258.4 838.9,259.7 838.1,258.9 838.1,258.4 838.1,258.2 838,258.3 836.9,258.8 
			835.7,258.9 833.3,262.4 829.4,263.2 828.7,266 825.5,264.8 823.5,267.8 		"/>
		<polygon opacity="0.8" fill="#DDD9E0" points="839.7,289.4 834.1,288 832.7,286.5 837.2,286.5 838.9,285.7 831.1,285.8 
			828.4,284.7 827.3,285.9 823,285.6 819.4,283.6 817,283.5 815.6,285.7 818.1,286 818.1,287 822.3,288 823.7,287.5 827.5,288.7 
			832.6,289.5 833.8,289.1 837,290.3 		"/>
		<polygon opacity="0.8" fill="#DDD9E0" points="817,277.3 816,275.4 813.5,274 812.7,270.8 810.9,270.5 811.6,269.1 808.7,267.4 
			806.6,264.7 804,264.7 802.2,262.2 798.7,260.1 796.9,257.4 793.6,257.3 792,256.5 792,258.4 797.1,263 795.8,266.4 797.4,268.4 
			797.9,267.4 796.4,264.9 799.3,265.2 800.7,269.1 798.7,269.7 800.1,273.6 800.9,273.9 799,269.7 802.2,269.8 805.4,275.7 
			809.7,280.3 813.8,283.6 816.4,283.3 		"/>
		<polygon opacity="0.8" fill="#DDD9E0" points="424,245.9 424.3,244.3 422.4,244.6 422.9,245.5 		"/>
		<polygon opacity="0.8" fill="#DDD9E0" points="387.7,209.2 388.3,210.9 390.1,212 389.6,210.9 		"/>
		<polygon opacity="0.8" fill="#DDD9E0" points="385.8,207.9 385.6,209.8 383,210.9 385,213.1 384.6,210.8 387.1,208.6 		"/>
		<polygon opacity="0.8" fill="#DDD9E0" points="391.5,215 390.1,212 388.8,213.3 		"/>
		<polygon opacity="0.8" fill="#DFDAE3" points="404.3,405.3 401.8,407.1 402.3,408.5 400.8,409.8 400.6,411.7 398,412.3 406,413.1 
			406.2,413.1 406,412.8 406.1,406 		"/>
		<polygon opacity="0.8" fill="#DDD9E0" points="394.3,375.3 393.3,373.7 392.8,377.1 391.6,379 394.1,378.1 		"/>
		<polygon opacity="0.8" fill="#DDD9E0" points="393.1,382.1 393.4,385.2 394.3,381.8 393.9,379.8 391.6,381.8 		"/>
		<polygon opacity="0.8" fill="#DFDAE3" points="407.7,413.2 403,413.6 409.5,416.4 406.1,414.1 410.9,414.4 		"/>
		<polygon opacity="0.8" fill="#DFDAE3" points="400.4,410.6 394.7,408 394.7,410.5 400.1,411.5 		"/>
		<polygon opacity="0.8" fill="#DDD9E0" points="857.3,242.8 854.3,240.9 854.3,245.3 855.9,244.7 855.4,246.6 856.9,248.6 
			860.6,246.3 858.4,246.2 		"/>
		<polygon opacity="0.8" fill="#DDD9E0" points="859.9,240.3 861.7,242.1 860,242.3 860.1,244.1 862.3,246.4 861.7,243.3 
			862.9,243.3 861.9,240.1 		"/>
		<polygon opacity="0.8" fill="#DDD9E0" points="862.7,246 862.8,248.6 861.1,248.5 858.9,250.6 858.6,249.6 854.8,251.4 
			854.5,254.7 855.7,251.7 856.4,252.7 858.5,251.4 859.7,255.2 862.4,256.7 863.4,252.5 864.4,255 865.4,252.7 865,250.4 		"/>
		<polygon opacity="0.8" fill="#DDD9E0" points="850,234.9 852.1,235.6 850.7,237.9 852.7,241 853.8,236.8 855.9,238.8 855.8,236.8 
			857.5,239.2 857.9,241.1 859.4,242.2 859.6,237.9 855.6,236 853.8,236.3 854.1,234.2 853,233.6 855.8,229.3 854.5,226.5 
			851.3,225.9 850.5,231.9 849.3,231.2 		"/>
		<polygon opacity="0.8" fill="#DDD9E0" points="843.3,250.1 849.2,245 848.7,243.9 850.7,241.4 849.5,240.8 849.3,243 		"/>
		<polygon opacity="0.8" fill="#DDD9E0" points="422.5,241.1 422.4,241 422.3,241.5 422.5,241.5 		"/>
		<polygon opacity="0.8" fill="#DDD9E0" points="422.2,229.3 421.9,229.3 422,229.6 422.4,229.5 		"/>
		<polygon opacity="0.8" fill="#DDD9E0" points="427.6,239 427.7,238.9 427.3,238.3 427.3,238.9 		"/>
		<polygon opacity="0.8" fill="#DDD9E0" points="587.4,169.9 587.7,173.9 590,173.2 590.6,169.4 589.2,167.4 586.8,168.5 		"/>
		<polygon opacity="0.8" fill="#DDD9E0" points="603.2,178.5 603.9,175.5 599.9,176.4 597.6,175.8 596.7,176.8 603,180 		"/>
		<polygon opacity="0.8" fill="#DDD9E0" points="601.2,182.1 601.7,182.2 601.6,182 601.2,181.6 		"/>
		<polygon opacity="0.8" fill="#DDD9E0" points="927.2,281 927.7,279.7 925.2,277.3 920.9,275.2 919.6,273.4 920.2,275.5 
			925.8,278.1 		"/>
		<polygon opacity="0.8" fill="#DDD9E0" points="916.4,283 919.5,284.4 921.5,284.4 925.3,282.5 926,279.8 924.1,279.5 924.4,281 
			921.8,282.7 913.6,282.5 		"/>
		<polygon opacity="0.8" fill="#DDD9E0" points="899.1,275.9 896.6,275.2 891.6,273.2 890.2,273.9 887.2,273.5 888.1,275.7 
			885,277.5 883.1,275.1 882.7,271.4 879.7,270.6 876.3,271.7 874.7,270.7 875.3,272.8 877.5,273.3 878.1,274.6 882.7,275.4 
			878.5,276 880.2,278.1 881.7,278.1 885.6,280.2 887.4,280.3 892.3,282.4 894.2,286.9 892.3,287.5 891.3,289.5 896.7,288.7 
			899.1,291.1 903.1,291.6 904.9,290.7 905.6,287.5 911.2,288.6 913.5,291.9 915.6,293.5 921.2,294 923.3,293.7 920.9,291.3 
			920.4,292.3 916.9,290.8 916,288.6 913.7,287.1 913.3,285.6 915.3,285.4 914.4,283.7 910.3,282.4 910.6,281.1 907.5,278.7 		"/>
		<polygon opacity="0.8" fill="#DDD9E0" points="812.1,266.5 811.9,266.4 811.4,266.6 811.7,266.8 		"/>
		<polygon opacity="0.8" fill="#DFDAE3" points="427.3,401.8 425.2,402.4 425,404.6 428.1,402.2 427,405 431.7,402.9 431.3,401.9 		
			"/>
		<polygon opacity="0.8" fill="#DDD9E0" points="553.6,118.5 553.6,118.5 553.6,118.5 		"/>
		<polygon opacity="0.8" fill="#DDD9E0" points="551.5,116.3 552.8,114.2 550.9,115.1 549.7,117.3 553.6,118.5 		"/>
		<polygon opacity="0.8" fill="#DDD9E0" points="553.7,120.1 552,120.5 554.1,121.9 552.3,123.2 553.9,124.9 555.2,122.9 
			556.7,124.3 555.5,126.5 557.3,127.8 557.3,126.6 559.5,126.4 558.9,127.6 561,128.8 560,131.1 557.8,131.6 557.7,134.7 
			555.1,135.8 560.4,138 557.8,138 554.7,141.2 558.9,141.1 559.3,140.1 564.4,139.2 568.1,139.5 570.7,138.3 569.6,136.9 
			571.7,134 570.6,132.6 568.2,132.1 567.4,128.8 564.9,127.2 563.7,124 560,122.4 563.3,117.8 563,117 559.3,116.9 557.9,116.2 
			559.9,114.8 561.6,112.1 559.6,112 559.5,113.7 555.7,113.7 553.9,116.4 553.6,118.5 554.1,118.6 		"/>
		<polygon opacity="0.8" fill="#DDD9E0" points="631.2,183.2 624.6,183.4 625.7,184.5 629.2,184.3 		"/>
		<polygon opacity="0.8" fill="#DDD9E0" points="986.9,309.5 985.1,311.1 984.3,310.1 984.7,312.6 986.5,312.9 987.4,314.6 
			987.1,311.1 989.2,309.1 991.3,309.4 990.5,307.9 		"/>
		<polygon opacity="0.8" fill="#DDD9E0" points="681.2,73.6 681.8,75.9 685.3,74.9 685.6,73.7 683.4,72.6 		"/>
		<polygon opacity="0.8" fill="#DDD9E0" points="791,22.5 789,24.4 784.7,26.2 788.1,25.6 791,28.2 795.2,28.4 797.5,29.4 
			801.3,29.4 802.9,24.7 800.8,22.8 799,23.7 797.1,22.2 		"/>
		<polygon opacity="0.8" fill="#DDD9E0" points="681,18.6 679.3,18.5 673.5,19.6 675.9,20.7 		"/>
		<polygon opacity="0.8" fill="#DDD9E0" points="701.4,19.5 705.5,17.4 699.6,17.1 694.5,18.6 698.8,19.7 		"/>
		<polygon opacity="0.8" fill="#DDD9E0" points="699.2,21.3 698.6,22.5 702,22 705.8,23.7 705,20.6 		"/>
		<polygon opacity="0.8" fill="#DDD9E0" points="713.6,19.7 712.4,17.5 714.5,13.9 712.9,14.4 712.6,17 708.8,17.6 706.9,20.2 
			711.1,20.9 		"/>
		<polygon opacity="0.8" fill="#DDD9E0" points="704.8,15 703.7,13.7 698.8,16.6 703.2,16.9 		"/>
		<polygon opacity="0.8" fill="#DDD9E0" points="785.7,20.3 782.8,21.5 787.9,23.1 789.9,22.4 796.2,21.8 796.2,19.6 797.9,19.3 
			792.8,16 786.5,17.6 785.1,18.8 782.4,17.1 785.2,19 		"/>
		<polygon opacity="0.8" fill="#DDD9E0" points="721.4,18.1 719.7,16.5 718.1,17.7 714.7,18.5 716,19.3 		"/>
		<polygon opacity="0.8" fill="#DDD9E0" points="707.7,71.7 709.7,70.9 707.2,69 705.3,70.3 		"/>
		<polygon opacity="0.8" fill="#DDD9E0" points="898.3,53.2 898,55.3 904.3,56.8 904.9,55 901.7,53.3 		"/>
		<polygon opacity="0.8" fill="#DDD9E0" points="692.2,66.5 692,64.7 693.5,65.5 692.9,67 697.8,67.4 701.9,68.4 703.1,67.4 
			699.4,65.2 697.7,60.6 700.3,56.5 696.7,55.5 692.6,56.9 690.8,61.6 689.5,61.3 688.8,63.9 		"/>
		<polygon opacity="0.8" fill="#DDD9E0" points="695.8,20.7 695.5,21.5 691.8,20.9 691.3,22.2 695.5,21.9 		"/>
		<polygon opacity="0.8" fill="#DDD9E0" points="802.8,33.8 805.6,32.6 811.5,32.2 815.1,31.1 817,32.2 814.9,29.4 811.7,27.6 
			807.1,26.4 801.1,33.3 		"/>
		<polygon opacity="0.8" fill="#DDD9E0" points="677.2,21.4 684,22.3 685.7,23.1 684.5,20.4 689.1,19.5 686.1,17.5 682.7,18.8 
			684.2,19.6 		"/>
		<polygon opacity="0.8" fill="#DDD9E0" points="889.4,46.6 891.9,49 894.6,49.9 901.2,48.3 902.4,49.2 907,48.1 909.6,45.8 
			906.1,44.2 902.8,44.1 900.1,42.6 899.1,45.3 894.2,42.4 890.8,43.8 891.2,44.6 887.8,45.3 886.7,44.2 886.1,46.5 887.5,46.2 		
			"/>
		<polygon opacity="0.8" fill="#DDD9E0" points="734.9,55.9 732.1,55.7 731.8,57.4 736.1,56.5 		"/>
		<polygon opacity="0.8" fill="#DDD9E0" points="714.3,42.5 711.2,42.2 711.2,43.1 705.7,44 704.3,45.5 701.6,46.5 698.1,49.9 
			696.4,53 693.7,54.1 697,55.5 701,56.4 704.6,52.1 704.3,50.3 706.7,50.9 712,46.7 725.5,43 729.6,40.7 728.5,38.7 725,38.8 
			718.1,42 		"/>
		<polygon opacity="0.8" fill="#DDD9E0" points="787.9,23.5 783.4,22.8 782.2,23.4 785.4,24.9 		"/>
		<polygon opacity="0.8" fill="#DDD9E0" points="913,158.1 913.9,157.4 912.8,158.1 		"/>
		<polygon opacity="0.8" fill="#DDD9E0" points="913.9,157.4 915,156.7 917.5,155.7 915.5,156.1 		"/>
		<polygon opacity="0.8" fill="#DDD9E0" points="903.4,130.2 901,131.1 900.9,136.3 902.2,138.4 902,141.5 901.2,145.5 902,148 
			901.1,152 901.8,154.1 902.6,151.9 904.8,152.1 902.8,147.7 904.5,143.7 906.9,144 904.3,135.9 904.5,131.9 		"/>
		<polygon opacity="0.8" fill="#DDD9E0" points="910.4,159.7 912.8,158.1 911.3,158.1 		"/>
		<polygon opacity="0.8" fill="#DDD9E0" points="832.9,52.6 834.2,51.4 831,50.5 829.8,51.4 		"/>
		<polygon opacity="0.8" fill="#DDD9E0" points="994.9,66.2 997,65.2 994.8,64 991.6,63.8 988.4,65.2 988.2,67.2 990.9,66.3 		"/>
		<path opacity="0.8" fill="#DDD9E0" d="M703.7,213.4l0.4-0.1l-2.2-0.6l-1.7-2.6l-0.1-1.4l-0.1-0.2l0.1-1.8l-0.6,0.7l-3.8,4.2
			l-2.1,0.9l-4.2,0.1l-0.6-0.6l-0.6-0.1l-0.1-0.8l0.9-0.7l-0.9-3.1l-1,3.6l-1.6-2.5v-2.3l-0.6-0.5l0.2,0.5l-0.6,0.6l-1.5-0.1
			l-0.1,0.6l-3.1,1.9l1.9,0.2l0.2-0.8l1.3-0.8l0.5,2.4l-0.5,1.4l-2.1,1.2l-3.1-0.3l-0.6,2.5l-2,0l-0.5,1.4l-1-0.1l-1.1-1.1l-0.4-1.1
			l-0.7,1.1l1.6,1.4l0.3,1.6l2.3,1.7l0.2,1.3l3,1.2l0.7-0.5l1.7,1.9l0.5-0.2l1.7,1.1l-1-2l1.3-1l3.1,1l0.1,3.1l-0.8,0.4l-0.5,1.8
			l4.5-0.2l0.4-0.5l2.5,0.1l2-1.1l0.7,0.6l0.8-1.2l0.3,1.2l1.3,0.4l0.5,0.4l0.9-0.1l0.2,0l0.2-0.2l1.2-1.9l2.2-0.5l-0.4-1.8l0.4-0.5
			l0.1-1.3l-2.9-3.6l-1.9-2.6l0.5-1.8l-0.6-2.2l1.1-3.1l-0.4,2.7l0.7,3.2l1.6,2l1-0.5l-0.1-2l0.6,1.3L703.7,213.4z M1011.1,83.5
			l-0.6-0.5h-5.5l-0.9,1.7l-2.1-4.5l-2.8-0.9l-5.5-3.6l-6.5-3.1l-6.8-1.6l-11.5-1l0.7,4.7l-3.1,0.9l-3.1-2l-0.5-1.8l2.6,0.5l0.5-1.2
			l-2.7-0.6l-3.1,2.2l-5-0.4l-1.8-0.9l-5,0.6l-2,0.9l-3.2-2l1-1.6l-1-1.7l-2.8-1.2l-6-0.6L929,67l-3.4-0.1l-1.4-1.8l-3.9-1.6
			l0.2-1.1l-3.9-1.7l-3.9,0.1l-3.8,0.1l0.7-1.4l-3.7-0.4l-5.4-0.6l-4.7,1.2l-0.9,1.5l2,3.1l-3-0.7l-4.2,0.5l-2.5-0.5l-3.4,1.2
			l-2-0.4l-2.7-1.8l-2.3,4.3l-1.5,0.5l-2.7-1.6l-4.4-5.6l2.5,1.6l1.5-0.9l-2.2-1l2-2.5l-5.7-2.3l-1.5,0.6l-2.4-0.8l-1.6-0.5l-0.4-1
			l-3.2,2.4l-0.6,2.2l-6.5-0.4l-4-1.1l-0.1-1.7l-5.3-0.4l-0.6-3.2l-1.2,3.1l-4.5,0.9l-0.9-1.7l-1.7,0.9l-5.5-1.5l-1.2,1.1l3.3,0.5
			l-7.5,2.3l-3.2-0.1l1.8-2h2.1l4.4-3.3l8.6-4.4l-2.5-2.7l2.7,1.2l-0.7-2.9l-1.8-0.1l-0.1-1.8l-3.3-0.7l-7.5,0.1l-0.2,1l-3.3,0.1
			l2.5-2l-5.4-1.5l1.6-1.8L814,35l-3.5,0.2l-5.5,3.4l-0.1,2.2h-4.7l2.1,2.3l-2.5-0.7l-5.3,1.6l-1.3-1.2l1.2-1.1l-0.5-3.1l-2.1,1.6
			l1.1,1.7l-2.8,1.1h-3.7l1.2,1.1l-10.4,1.8l-5,2.9v1.1l-3.8-0.7l4.4,4.2l-15.1,1.4l-1.2,1.2l1,3.4l3.4,1.1l3.4,3l-1.1,1.6l1.5,3.3
			l-1.3,0.7l-0.7-2.9l-1.5-1.2l1.9-0.6l-0.5-1.6l-2.6,0.4l-5.5-3.1l-0.6-3.1l-3,3.6l0.5,1.8l-2.7-0.7l-2.2,0.6l0.7,1.5l4.5,1.4h-5.3
			l-1.7-3.1l0.6-3.4l2.8-3.3l-2.7-0.4l-1.7,2.1l-1.8,0.2l2.2,1.7l-0.2,2.4l-3.3,1.2l-1.1,1.8l3,3.8l-1.9,3.2L741,74l4-0.2l5.2,1.5
			l1.1,2.6l-2.5,2.1l0.5-3.2l-2.2-1.8l-4.5,1.2l0.6,4.1l-2.8,3.4l-3.6,2.3l-3.8-0.4l2.8-1.2l3.6-6.3l1.3-1.2l-2.6-1.7l-0.4-5.6
			l0.6-3.6l-2-1.8l2.5-3.2l-0.1-2l-3-1l-4.7,0.2l-1.5,0.7l-1.1,3.8L725,65l-1.1,2.7l2.1-0.1l-1.4,4.7l3,0.5l1.1,2.2L730,75l-2,2.5
			l-2.9-2.2l-6.8-2.8l-7.9-1.2l-1.5,1.1l1.7,2.7l-4.2,2.1l-0.5-2.5l-3.7,1.8l-3.2-0.4l-4.7,1.2l-1.4-2.3l-5.3,1.7l-2.5,1.4l-1.5,0.9
			l-1.7,0.9l-2.2,0.6l-0.2,2.3l-4.4,0.4l-2.1-1.7l0.9-1.6l3.3-0.5l-1.8-2.4l-6.3-0.6l2.2,1.4l-1,4.4l1.6,2l-0.7,3.1l-3.8-3.4l-3,2.8
			l-3.6,1.7l1.3,2.7l-2,1.4l-6-2.3h-3l-1.8,1.2l-1.2-2.1l1.1-1.2l-1-1.6l-3.7-1.6l-1.6-2.3l2.9,1.5l10.4,2.6l3.3-0.2l2.6-1l2.2-2.5
			l-0.9-2.7l-6-2.7l-5.9-3.3l-3.1-0.4l-9-2.3l-5.3-1.4l3.7,0.2l2.2-0.9l-2.6-1.8l-2.1-0.6l-3.7-1.1l-2.5,3.2l0.5-2.6l-3.7,3.8
			l-0.1-1.9l2.6-2.1l-3.3,0.1l-1.6,1.8l-2.2,0.1l0.5-1.2l-2.3,0.4l1.1,1.4l-5,0.6l-5.3,3.4l-1.5-0.6l-2.3,2.2h1.2l-6,5l1.8,0.2
			l-2.8,1.2l-1.8,2.1l-0.7,2.5l-4,5.9l-4.8,3.8l0.8,1l3.7-1.1l-3.2,1.8l-3.1-1.8l-2.5,1.5l2.3,0.2l-4.7,1.8l0.4,0.5l-4.5,2.5v6.5
			l1.1,1.7l-0.7,1.8l2.2-0.6l-1.5,2.2l2.5,2.2l2.4,0.2l2.2-0.7l4.7-3.4l2.2,0.9l-0.7,0.1l1,3.4l2,3.6l0.4,2.1l1.8,3.1l1.7-0.3
			l0.8-0.1l0.9-2.1l4-0.2l1.5-3.4l3.1,0.4l1.3-1l-0.5-1.7l-1.5,2.2l-2.5-0.2l-0.9,1.5l-0.6-3.3l0.9-2.5l3.8-1.8l1.6-2.7l-4.5-3.8
			l0.6-5.6l0.6,0.4l3.8-3.8l3.4-1.5l1.7-2.2l-1.1-1.4l3.2-4l4.2,0.1l2.8,1.3l-0.4,1.4l-3,3.3l-4.2,3.1l-2.5,0.9l-0.1,2l1.2,4.5
			l-0.9,3.3l5.6,2l5.3-0.9l4.5-1.2l2.1-0.7l1.1,2.6l-2.7,1.8l-5.4-0.6l-5.3,1.6l0.1,1.6l-2.2-1.2v1.6l-1.7,1.4l3.2-1l2.6,2.3
			l0.1,2.1l-1.6,0.9l-2.6-2.6l-2.1,0.6l-1.5,2.5v3.7l0.5,1.6l-1.7,1l1-1.1l0.2-0.7l-0.4,0.7l-2.1,1.1l-1,1.6l1.8-0.7l-1.5,0.9
			l-0.9,0.5l0.5-0.6l-2.5,0.1l-0.6-1.4l-0.8,0.2l-0.7,0.1l-2.6,0.5l-1.1,0.9l-4.5,1.2l-1.6-0.7l-2.3-1l-3.8,1.6l-0.2-1.1l-3.2-1.6
			l1.1-1.5l2.2,0.6l-1.1-4.9l0.5-4.1l-1.8,2.2l-3.9,1.8l1.2,5.4l0.9,3.3l-1.1,1.1l-2.9-0.5l-0.2,1.5l-1.7-1l-3.7,1l-2,4.8l0.5,1.1
			l0.1,0.2l-0.2-0.2l-0.9,0.1l-1.2-0.1l-0.5,0.1l-1.5,0.7l3.8,3.4l-3.6-3.1l-0.2-0.4l-2.2,0.7l-0.9,2.7l-3.3,2.1l-4-1.4l1.3,3.3
			l-3.1,0.4l-1-1l-3.9,1.1l2,1.9l4.5,2.5l2.1,2.3l-0.9,7.7l-0.7,0.6l-4.2-0.4l-8.6-0.1l-1.6-0.6l-3.3,2.5l1.2,2.7l0.2,2.7l-2,6.3
			l1.7,1l-0.5,3.7l3.7-0.5l2.2,0.6l0.7,1.7l0.5,0.1l1.3,0.4l0.1,0.1v-0.1l2.1-1.6h5.4l1.1-1.7l2.3-0.7l0.4-1.8l4.4-1.5l2.5-1.8
			l1.6,0.7l0.2-2l-3.8,2.3l-3.4,0.7l-1-1.8l3.1-4.2l2.6-0.7l2.7-1.8L575,164l-0.1-2l2-1.2l2.8,0.4l1.6,1.1l3.6-2h0.2v-0.1l0.1-0.1
			l2.8-1.7l3.3,1.1l1,3.2l5.9,4.8l1.6-0.1l4.4,3.3l1.3,3.6l-0.2,2.2l2.6-3.9l-1.5-0.9l1.2-2.2l3.4,1.1l-1.2-1.5l-4.7-2.2v-1.5h-2.1
			l-2.5-1.8l-1.1-2.7l-3-2l-0.4-3.1l3.6-0.9l-0.2,0.1v0.1l0.9,2l0.9-1.5l2.1,3l-0.9,0.4l2.6,2l3.8,1.6l0.1,0.1l0.4,0.2l1.7,1.1
			l0.4-0.1l1.6,1.7l0.2,4.7l1.2,1.4l0.4,1.2l2.5,0.7l-1.5,0.9l0.6,2.8l1.7,0.2l0.4,2.2l3.6,0.9l-1.1-3.1l1.1-1.1l0.4,0.2l2.1,0.9
			l0.5,0.8l0.4,0.7l0.1,0.2l3.2-0.1l1.5-2.2l-1.1-1.5l-0.9,3.2l-2.6,0.2l-0.2-0.4l-0.1-0.1l-1.5-2.8l1.3-1.5l-2.2,0.1l-2.1-3.2
			l-0.1-0.2l-0.1-0.2l0.1-0.1l0,0l2.4-1.6l4.4-0.5l-1.2,2.8l2.3-2.4l1.8,0.4l1.7-1.1h3.4l-2.3-2.8l-0.9-1.4l2.2-3.6l0.1-1.7l2.5-2.6
			l0-0.4l0.1-0.8l2.9-2.8h3.6l-1.6,0.7l4.5,1.2l-2.1,0.9l0.7,1l1.9,2.7l4.9-2.4l1.3-0.6l-2.9,0.1l-1.2-2.3l2.6-1.4l5.5-1.4l2.5,0.2
			l-3.7,1v4.1l-2.7,0.2l3.4,1.8l0.7,0.4l0.2,0.1l1.4,0.8l2.3,2.2l3.7,2.1v3.2l-3.3,1.7h-4.2l-5.7-2.3l-6.1-0.9l-4.9,2.7l-4.8-0.5
			l-0.1,2.3h-5.6l-1.6,2.6l2.2,1.5l-1.8,1.8l2.3,0.7l0.1,2.8l2.5-0.2l3.2,2.5l1.7-0.2l0.6-1.8l3.2,1l1.8,1.3l2.1-0.2l2-1.7l2,0.6
			l1.5-1l-0.2,2.7l0.1,1.4l0.1,2l-1,2l-1.1,2.2l-0.6,2.1l-0.9,1.8l-0.1,0.1L648,194l-5,0.6l-0.4-1.1h-3.7l-3.2,1.8l-3.9-1.5
			l-5.2-0.7l-0.4-0.7l-4.4-1v-0.9l-3.6-0.7l-2.5,1l-1.5,2.2l0.2,2.3l-2.5,1.4l-3.8-2.1l-3.1-0.5l-2.1-2.8l-4.3-1.4l-2.3,0.1l-2-0.9
			l0.1,1.8l-0.2-1.1l0.1-0.7l-1.1-1.6l-1.7,0.2l-0.5-1.7l2.5-2.3l-1.7-4l-1.3-1.6l-2.9,1l-2.8-0.4l-5.1,1.2l-1-0.7l-4.4,0.2
			l-4.4,0.9l-7.7,3.8l-1.6-0.2v-0.4l-3.4,0.4l-2.2-1.8l0.1-0.1h-0.2l-1.2,0.2l-2.2,4.7l-3.9,2.1l-1.7,1.8l-1.5,2.9l0.5,3.3l-2.2,2.9
			l-2.1,1.7l-3.4,1l-1.6,3.1l-1.8,1.1l-1.2,3.9l-2,2.1l-3,6l-0.2,1.4l0.1,0.2l2.1,1.4l-0.8,2l1.2,3.4l-1.2,5.1l-1.5,2.8l1.5,2.6
			l3.4-0.6l-1.7,1.6l0.7-1h-2.4l-0.6,0.6l0.1,0.6v1.7l1.7,1.4l-0.5,1.7l2.8,0.1l3.4,2.8l0.6,1.7l0.8,3.6l3.4,1.5l5.2,4.2l4,1.8v0
			h0.1l4.7-1.7h6l2.1,0.9l7.7-3.2l0.5-0.2h0.5l0.6-0.2l2-0.1h4l3.6,4.7l6.3-1.1v-0.1l0.6-2.2l-0.6,2.3l2.3,2.1l0.5,3.7l-1.1,2.8
			l1.1,0.4l-1.1,0.9l-0.1,2.5l-1.4,0.4l1.4,3.1l4.3,4.8l1.7,1.6l0.4,1l0.6,1l-0.1,0.7l0.6,0.6l1.7-0.4l-2.2,0.6l2.6,5.1l-0.9,1.8
			l1.8,3.6l-0.2,3.8l-2.7,2.8l-1.8,5.7l0.1,3.6l0.1,2.1l6,10.1l0.2,4.7l1.8,8l2.8,3.1l1.8,4.5l2.1,3.4l0.2,2.6l-1,0.4l1.5,2.8
			l3.6,2.4l6.1-2.1l5.4,0.5l3.8-1.1l3.3-2l5.9-5.7l1.8-3.3l2.8-2.6l1.2-4.3l-1-2.2l0.9-1.1l5.3-2.3l0.9-1.2v-4.9l-1.7-5.4l5.5-4.9
			l6.6-3.6l1.6-2.2l0.6-2.5l-0.7-2l-0.2-7.5l-1.7-1.2l-1-3.8l0.4-3.4l-1.6-2l1-3.2l0.5-0.1l3.6-6.1l1.5-0.7l1.3-2l5.8-5.6l3.4-2
			l4.5-4.8l2.6-3.9l1.8-4.3l2.5-3.6l1-5.5l-5.5,1.4l-3.7,0.1l-2.2,1.2l-1.5-0.5l-3.6,1l-2.5-2.5l0.2-1.2l-0.5-1.6l-4.7-4.7l-2.1-0.6
			l-0.5-2.3l-0.9,1.5l-2.6-6.6l-2.9-2.7l-1.1-7l-2.8-2.2l-0.4-2.4l0-0.1l-1.7-3.2l-1.8-3.4l-1.2-3.4l-2.7-4.2l0.4-0.7l0.1-0.2
			l0.2,0.4l0.5,0.7l1.5,0.8l1,1.7l0.8,1l1.5-3.4l0.1-0.2l0.1,0.1l-0.1,0.4l-0.7,3.2l1.4,0.1l2,3.5l0,0l3.4,6.1l2.2,1.1l0.2,0.4
			l0.5,1.1l0.8,1.6v3.1l1.1,1.7l-0.3-1.2l2.4,0.1l0.2-3.5l-1.7-0.4l1.7-0.2l-1-0.7l2.1,0.3l-0.8-0.6l-2.2-0.2l-0.8-1.5l1.1,0.6
			l0.2-2.6l-0.4-0.5l-2.4-1l1.5-0.1l1.9,1.8l0.7-2.2l-0.4-1.4l-1.1-0.3l0.5-1.8l-1.1-0.8l1.8,0.4l-0.8-1.7l0.9-2.4l-0.1-1.1l1.6-2.6
			l1.3-1l1.7,1.3l2.5-0.8l0.3-0.8l0.8,2l2.2,1.7l2.1,0.4l3.3,2l2,2.2l1.1-1.2l0.8-0.3l-0.9-1.9l-0.7-2.1l-0.4-1.6l0.6-0.1l0.7,0.2
			l0.9-1l2.8,0.4l3.1,5.6l2.5,0.9l2.8,2.5l2.7,0.4l3.7-1.7l1.6,0.9l0.7,2.7l2.6,0.5l3.4,0.6l4,0.4l9.6-0.4l1.7-0.6l2.8,4.4l1.3-0.1
			l1.2-1.1l-0.6,0.9l-0.6,0.2l1,1.6l3.7,1.6l-2.8,0.6l2.6,2.8l2.2,1.1l2.6-1.2l1-2.3l0.9,4l-0.5,1.6l1.8,9.1l1.8,3.3l1.3,4.4
			l1.7,2.7l2.3,6.6l2.3,2l5.5-5.2v-4.2l1.1-3.2l-0.7-3.9l0.5-1.6l4.9-2.2l-0.1-1l4.3-3.1l3.2-3.3l2.2-0.9l1-2.8l3.3-2.2l2,0.6v-0.7
			l0.1,0.4l-0.1,0.4l5-1l0.6-1.4l1.8,4.2l1.8,2.6l2.2,1.4l1.6,4.5l-1,3.7l2.8,0.7l2.8-1.8l0.6-2.1l2,3.6l1,5.3l1,1.1l0.5,6.8
			l-1.2,3.1l0.5,1.7l3.9,4.4l1.5,6l1.2,2.5l4.9,3.1l2.2,0.1l-2-3.4v-4.3l-3.3-3.4l-4.4-2.9l-0.7-4.2l-1.5,0.1l-0.1-2.1l2-4.9v-3
			l2.2-0.1l-0.2,1.8h2.3l2.6,2.5l1.6,2.7l0.3,0l1.7,0.2l0.9,0.5l-0.1,3.3l4.1-1.7l1.8-2l4.2-2.3l0.6-6l-1.2-3.6l-5-5l-2.5-3.7l1-2.5
			l4.2-2.4l0.5-1.1l1.1-1l3,1l0.5,3l1.8-2.7l6.6-2l0.2-2.2l1.1,2.2l1.6-1.6l4-0.4l1.1-1.6l4.8-3.3l1.3-1.8l0.2-2.6l2-1.2l1.5-2.6
			l1.2-0.4l-0.1-2.3l1.7-1.7l-3.2-1.5l2.3-1l-0.4-2.7l-2.2-1.8l-0.8-2.3l-0.7-2l-2.5-2l3.6-3.8l4.7-2.6h-2.6l-2.1-1.1l-3.1,1.8
			l-1.3-2.7h-1.8l-0.7-2.7l2.9-0.1l1.2-2l2.1-0.9l1.8-2.1l2.6,1.2l-2.6,2.7l1.3,0.4l-1.5,1.8l3.1-2l4.5-1.9l2.5,2.2l-1.7,3.2
			l4.7,0.9l0.3,1.3l0.3,1.2l-1.3,0.4l1.1,2.5l-1.8,2.1l1.5,2.3l1.2-1.4l2.8-0.1l1.8-1.1l0.9-2.5l-0.5-3.1l0-0.1l-2.3-3.7l-2.1-1.5
			l0.1-1.6l5.2-3.1l-0.1-2l2.5-2.1l2.4-2.5l3.3,1.3l4.7-2.3l1.8-2.6l5.2-5.3l1-2.2l3.9-4.4l1.1-4.9l-0.5-1.5l1.1-3.3l1.2-1.1v-3.8
			l-3.9-3.7h-2.5l-2,2.3l-1.4-1.5l1.9-3.2l-3.3,3.9l0.5-2.6l-3.9-1l3.7-2.5l4.4-4.4l3.9-2.7l0.4-0.2l1-1.9l3.2-2.6l3.8-1l11.9,0.6
			l1.5-1.8l2.8,1l1.3,2.2l4.8-1.4l4.3,0.2l-2.7-1.2l2.1-2.9l5.9-5l6.8-0.6l-1.2,3.7l0.9,1.2l5.3-3.9l1.5,0.5l0.5-3.6l3.2-0.6l1.5,1
			l-2.6,0.5l-0.2,3.3l-4.9,3.3l-0.1,0.9l-4.8,3.7l-2,2.5l-3.7,2.1l-3.3,3.6l-1.2,4.9l1.1,6.4l0.2,1.2l1.6,6.1l2.3-1.7l2.1-4.3
			l1.4-0.7l1-0.5l1-2.9l4.9-2.1l-0.9-2.6l0.9-1.7l2.8-0.1l-1.3-2l1.3-3.2l-3.2-1.2l2.6-3.1l1,1.8l2.6-1.5h-2l-1.5-2.3l1.1-1.8
			l3.6-0.1l2.9-1.4l-0.6,2.2l2.2-1.7l5.1-0.9l2.7,2.1l1-1.8l2.8-1.2l4.7-3.4l7.7-2.8l3.9,0.7l1.6-1.2l-2.5-2.6l-0.7-3.5l-3.7-0.9
			l-1.6-1.2l5.2,1l4.9-1.8l1-2l-1.2-1.9l2,0.2l1,2.1l3.7-0.4l2.5,0.7l0.1,1.6l5.4,2.6l3.2-0.4l-1-1l1.1-3.2l1-0.1l2.8-0.3l1-2.1
			L1011.1,83.5z M582.5,152.6l0.6-0.4l0.4,0.2L582.5,152.6z M585.3,149.1l-0.1-0.2l1.6-3.9L585.3,149.1z M590.2,149.3h-0.4l-0.7-0.5
			l-0.2-0.5l1.5,0.9L590.2,149.3z M633.8,111.3l-0.2,0.1l-0.1-0.1H633.8z M633,111.5l0.4-0.1l-0.1,0.1l-0.2,0.4V111.5z M632.7,112.5
			l1,3.9l-1.1-0.5l-1.6-2.7L632.7,112.5z M600.9,129.5l1.1,0.1l-1,0.5l-0.9-0.5L600.9,129.5z M613,165l-0.5-0.5l0.5-0.1h0.1v-0.1
			l0.1,0.6L613,165z M616.2,168.3h-0.1v-0.5l0.4-0.1L616.2,168.3z M617,168.5l-0.1,0.1l-0.1,0.1l0.1-0.2l-0.1-0.1h0.1V168l0.4,0.5
			H617z M594.7,253.9l-0.1,0.4h-0.2l0.4-0.5V253.9z M601.6,239.3l-0.5,0.1v-0.6l0.1,0.2h1L601.6,239.3z M665.8,243.2l0.2,0.2
			l-0.2,0.2l-0.2-0.2L665.8,243.2z M637.3,270l0.5,0.1l-0.6,0.7h-0.7L637.3,270z M635.5,274.4l0.7-0.7l0.4,0.9l-1.1,1V274.4z
			 M633.7,309.5l-2.6,2.7l1.7-2.7l2.3-0.7L633.7,309.5z M634.6,291.7l-0.5-0.7l1.3-1.4l0.6,0.5L634.6,291.7z M639.2,289.6l0.2-0.6
			l-2.6-3.6l-0.9-3.8l0.2-4.1l0.2,1l0.7,1.6l0.2,4.3l2,1.6l1.4,3.8L639.2,289.6z M639.2,266.8v-0.5l1.9-1.6l0.4,0.7L639.2,266.8z
			 M645.7,275.6l-3.8-0.5l0.5-3.1l-0.1,0.1V272l2.1-3.1l3.2,0.1l0.6,1.2l-0.5,1.8l-0.5,2.7L645.7,275.6z M649.7,296.8l-0.6,1.5
			l0.4,3.2l-1.2-0.2l-0.7-2.9l0.6-4l-0.9-1.7l0.1-0.5h0.2l0.2,0.1l0.2,0.2l0.5,0.6l0.6,3.1l0.1,0.2l0.2,0.1l0.1,0.2V296.8z
			 M650.8,194.6l-0.1-0.2l0.1-0.1l0.2,0.1L650.8,194.6z M651.1,194h-0.2v-0.7l0.4-0.4L651.1,194z M702.1,164.4l1,0.4l0.5,1.4
			l-1.8-0.6L702.1,164.4z M711.5,129.2l6-0.7l-4.2,1l-0.4-0.1v-0.1H711.5v2.3h0.4l0.2,0.2l-1,2.7L711.5,129.2z M710.5,151.8l1,1.4
			l-0.9,0.2l-0.4,0.1v0.1h-0.4l-1.5,0.5l0.5,3.1l-0.4,1.7l-1.6-1.5l0.5-1.1l-0.7-2l-0.9,1l-1,3l0.6-3.2l0.4-1l4-0.5l0.4-0.1l-1-0.9
			l-0.5-0.5L710.5,151.8z M708.5,139.5l-0.4,0.6l-1.5-0.5L708.5,139.5z M705.8,139.4h-0.4l-0.1-0.2l-0.6-0.9L705.8,139.4z
			 M703.2,139h-0.5v0.1l-0.4-0.1l-2-0.5L703.2,139z M680.5,148.6l0.5,0.6l1.7,2.3l-0.1,0.1l-1.6-2.4L680.5,148.6z M686.5,136.7
			l-0.6,1l-0.4,0.2l-0.5,0.1l-0.5,0.1L686.5,136.7z M682,140l1.3-1l-0.2,0.4l-0.4,0.2l-0.4,0.4l0.1,1.7l-1,0.4L682,140z
			 M681.2,142.1l-0.1,0.1l-0.2-0.4l-0.1-0.1l-1.2-1.4L681.2,142.1z M674.8,164.6l-0.5-0.7l2.4,1.6L674.8,164.6z M680.9,166.6
			l-0.4,0.1l-1.8,0.5l2.6-0.9L680.9,166.6z M682.5,175.1l1.3-4.4l1-0.9l-3.1-4.2l-2.6-3.3l0.2-2.1l-2.1-2l2.2-3.7l3.8-1.8l2.1-1.1
			l2.6-1.3l3.2,0.8l1.4,0.4l-1.5,3.8l-2.8,0.2l-2.6,2l3.8,5.3l1.8,0.2l-0.6,2.8l0.9,1l0.7-1.6l0.9-0.4h1l2,2.7l-2.3,1.4l-1.8-1
			l-0.5,2.6l2,0.2l1,2.9l-0.2,4.3l0.2,1.4l-4.9,0.6l-2-0.4l-2.2-1.8l-2.3-0.6L682.5,175.1z M687.8,194.6l-0.4-1.2l-1.7,0.6l-1.4-2
			l-0.1-1.9l0.5,0.6l1.8-0.3l1.2,0.5l1.5,2.6l0.8,0.1L687.8,194.6z M740.2,131l-0.2-1l0.1-0.1l0.3-0.3L740.2,131z M740.4,129.5
			l-0.8-0.2h0.9L740.4,129.5z M747.7,129.1l-0.5-0.4h0.6L747.7,129.1z M756.8,138.3v0.5l-1.1,0.6l-4.9-7.9l5,7.6L756.8,138.3
			l0.5-0.5l1.8,1.7L756.8,138.3z M843.9,148.5l0.5-0.5l0.1-0.1l0.2,0.5L843.9,148.5z M878.9,158l-0.9-2l1.7-0.1l0.2,0.6L878.9,158z"
			/>
		<polygon opacity="0.8" fill="#DDD9E0" points="921.8,48.8 922.3,47.7 917.1,47.3 916.7,46.3 911.2,47.2 916.1,49.2 		"/>
		<polygon opacity="0.8" fill="#DDD9E0" points="853.1,214.6 854.1,210.6 852.2,209.9 850.2,214.1 851.8,217.7 		"/>
		<polygon opacity="0.8" fill="#DFDAE3" points="406.5,408 406.1,406 406.1,406.7 406,412.8 411,413.7 415.3,413.2 409.2,410.4 		
			"/>
		<polygon opacity="0.8" fill="#DDD9E0" points="419.2,227.1 419.2,226.9 419.1,227 419.1,227.1 		"/>
		<path opacity="0.8" fill="#DDD9E0" d="M483.9,281.8l-3.9-0.5l-2.9-2.9l-3.6-2h-5.3l-3.4-1.4l-0.9,1.2l-2.2-3.3l-0.9,0.9l-2-1.8
			l-3.7-1l-3.6,3.3h-2.8l-0.4-0.4l4.2-0.9l1-2.7l-3.1-0.2L449,270l-1.7,1.7l1.1,2.1l-1.6-1.6l0.4-1.8l1.8-0.4l1.2-0.2l-1.5-1.5
			l1.3-2.5l-1.8-1.1l-2-5.4l-0.4,1l-3.2-3.3l-2.7,0.2l0.2-1.1l-6.9-0.5l-0.6,1.2l0.1-1.4l-4.7-4.7l-2-1.1l-2.2-0.9l0.4-1l-4.7-2.7
			l-2.3-0.5l-0.2-1.2l-2.1,2.6l-3.5-1.2l-3.9,0.4l-2.2-2.3l-2.6-0.1l-3.8,1.6l1.2,2.6l-1.1,1.6l-1.3-1.8l1.2-2.1l-0.9-2.1l1.5-0.6
			l-0.9-1.5l-3.8,2.8l-3.6,0.5l-1.6,1.2l-0.2,2.7l-3.2,2.1l-1-0.2l-1.5-1.3l-3.6-1l-3.1,1.7l-3.3-0.2l-0.9-1.4l-2.1-2.2l-0.4-1
			l-0.5-1l1.7-8.7l-2.8-2l-3.8-0.4l-5.4,0.6l-0.9-0.5l-0.7,0.1l1.6-2.6l-0.1-3.7l1,0.7l1-3.2l-0.7-0.2l2.5-3.9l-3.3-1l-5.2,1.5
			l-1,3.9l-2.8,1.7l-5.9,1.4l-3.2-1.5l-3.2-4.7l-1.6-5l0.4-4.4l1.2-3.7l-0.6-3.3l2.1-2.7l5.8-3.3l2.1-0.2l7,1.7l0.4-1.1l2.1,1.2
			l-1.2-2.9l7.5-0.6l3.7,2.1l3-0.7l2.5,2.6l-0.4,2.7l4,6.8h1.5l0.9-4.5l-3.1-8.5l-0.1-2.3l1.3-2.3l3.9-2.8l1-1.6l6.4-3.4l1.2-2.2
			l-1.7-3l-0.6-5.1l0.5-1.4l1.6,3.9l1.5-1.4l-1.2-2.8l1.6,1.5l1.8-2.2l-0.5-2.1l4.4-1l-2.9-0.4l8.8-2l-2.6-1.7l2.5-4.4l2.3-1.6
			l4.9-1.2l-0.6-1l6.6-0.5l-3.9,2.2l0.6,3.1l2.1-0.9l1.4-2.2l1.7,0.2l6-2.5l-2.2-1.6l-1.2,0.7l-4.8-1.8l-1.5-2.8l1.3-2l-2.6,0.6
			l3.1-2.2l-0.5-2.1l-4.9-0.1l-5.7,2.7l-3.6,3.7l3.4-5.3l4-1.7l2.2-2.8l6.1-0.1l8.7,0.2l2.7-2.5l2.9-1.5l1.7,0.2l3.1-2.2l-0.1-3.3
			l-4-3.3l-3.3,0.9l-3.4,2.1l0.6-1.6l3.4-0.9l2.7-2l-3.4-0.7l-2.1-1.5l-2.1,1l0.9-2.5l-1.7-0.2l-0.7-4.3l-3.1-3.6l0.2-1.1l-0.3-0.5
			l-4.6-6.5l-1.8,2.3l-0.3,0.4l0.4,1.6l-4.9,3.4l-5-3.6v-3.2l3.8-0.8l0.4-0.1l-0.6-0.2l-3.1-1l-0.4-1l-2.4-0.2l-2.5-0.2v-1.6
			l-5.3-3.1l-2.1,1.2l-5.2-1.5l-2.8,1.4l-3.9-0.9l-0.9,2.3l2.1-0.7l2.8,0.4l1.3,1.4l-1.6,2.3l1.7,2.1l0.6,0.8l-3.1,3.9l4,4.2
			l0.6,4.7l-1.6,2.3l-4.2,2.1l-0.2-2.8l1-1.2l-2.6-2.6l0.7,6.9l-0.7,0.7l1.8,2.1l-0.2,1.6l-2.3,0.6l2.6,0.9l1,2.9l-1.7,0.5l-1,2.6
			l-3.8-3.1l-1.5-2.7l3,0.9l-1-1.6l-2.3-0.2l-0.7-3.1l0.5-2.9l-5.7-0.4l-6.9-2.7l-3.1-2.7l-5.2-1.4l-3.9,1.1l0.7-1.4l-1.7-4.8
			l-3.9-1v-3.2l2-5.4l1.7-1.1l1.6-2.5l1-1.5l3.6-0.7l-2.7-2.3l2.5,0.7l2.2-2.8l1.7,1.2l2.6-1l2.5-3.6l-4.9-0.7l-1.6-2.5l4.2,2.5h1.2
			l3.7-3.3l-2.2-1l3.2-0.5l3,3.1l1.8,0.6l-3-2.8l2.2,0.6l-1.7-2.8l2.5,2.1l5-4.3l-3-3.6l3-1.2L375,75l0.7-2l-2.6-1l-6.4-0.9
			l-0.1,2.7l2,0.7l-2.7,1.2l-0.5,2.7h-2.6l1.1,2.7l-2.1,0.6l-2-2.2l-0.4-2l1.3-0.2l-0.5-2l-2.2-1.7l-1.7,0.7l-1.4,3.3l-0.4-2.6
			l-1.6-2.7l-4.3-5.5l-0.1-2.3l-3.7-2.8l1-0.1l1.6-1.8l-1.7-1.5l4.2,0.4l1.3-0.6l3.8-4.8l-4.8-0.5l-3.3-0.9l-3.7,0.9v1.1l-1.2,0.5
			l0.1,3.7l1.2,1.3l0.1,2.6l-0.2,0l-2.8,2.8l-0.4,4.3l0.9,1.9l4.4,1.7l-0.7,3l2.2,0.6l-4.7,3.6l1.2,1.7l-3.1-0.7l1.4-3.3l-3.2-0.7
			l-3.4,0.5l1.6,1.9l2.2,0.5l-8.5-0.2l-3.8,0.5l-2.8-1.4l-2.2,0.1l-0.5-2.2l-1,1.2l-0.9-1.8l-2-0.7l-4.7,1.1l-1.2,1.5l2.7,0.4
			l4.7-1.8l-2.6,2.1l-2.7,0.1l-0.9,2.8l-3.9-2.8l-3.8,1.5l-5.4,0.1l-3.9-1l1.3-1.4l2.5-0.5l-2.7-2l-2.2,0.2l-4.8-0.9l-5.3-1.6
			l-2.6-1.4l-0.1-0.1l-3.6-0.4l-0.6,1.5l-3,0.5l0.1-3.3l-3.7,3.2l-2.8-3.6l-2.6-1.7l0.5,1.5l-2.2,2.7l-3.2-0.1l-1.4,1.7l-0.1,0.1
			l-0.8-0.4l-0.8-0.4l-0.1,0.1l-3.9,2.5l3-2.8l0.2-0.1l5.6-1.9l-2.5-0.6l-1.2,1.4L255,72l-0.1,0l-0.7,1.1l-5.9-0.5l-0.9,1.6L249,76
			l-2.4-0.7l-4-1.2l-2.4-1.6l-4.3-0.5l-5.4-2l-3.1,0.5l-6-0.7l-5.5-1.6l-5.9,0.4l-0.5-1.6l-4.5,0.1l-2.3-1.5l-4.1-0.7l-2.8,2.1
			l-3.8,0.1l-2.8,2h-2.5l-2.9,2.8l0.1,1.1l-3,2l-4.4,0.2l-0.7,2.1l5.6,3l1.1,2.1l4.3,0.2l0.6,2.3l1.3,0.9l-6.3,0.6l-0.1-2.1
			l-3.9,0.7l-6.4,2.9l4.7,1.5l-2,0.5l1.8,2.2l7.1,0.6l4.7-2l-0.6,2l1.5,2.6l-6,2.6l-1.8-0.9l-4.8,6.1l3.6,2.8l-2.3,1.8l-4.2,0.4
			l2,1.2l2.4-0.4l0.7-2l3.8,2.5l3.1-1.1l1.5,2.2v2.6l1.8,0.6l1.4-1.7l5.1,1.6l2.5-1l-1.3,4.5l-6.9,5.3l-2.9,0.4l-1.8,1.7l-4.5,1.6
			l-1,1l4.3-0.6l1.3-1.7l2,0.7l4.5-2.6l2.7-0.4l0.4-1.3l4.7-2.1l1.2-2l3.3-1.6l3.1-2.8l-2.1-0.6l0.1-1.2l2.6-1.1l3.4-4.5l2.5-1.4
			l3.3,1.7l-3.2-0.5l-2.2,1.1l-1.1,5.5l2.2-0.4l4.2-2.7l3.3-0.9l-1.1-1.8l3.4-0.6l1.6,1.7l5.2,1.7l2.6-0.5l5.9,1.5l4.8,2.2l3.7,2.9
			l1.5-1l2.6,0.4l1.2,3.4l1.2,0.2l-0.7-2.6l4.5,4.8l-1.5,0.6l1.5,1.8l0.9-0.9l0.7,3.8l1.7,0.7l1.7-1.2l-0.9,5.3l3.2,1.7l1.6,2.7
			l1.7-0.4l0.6,3.9l5.4,2.2l5,4.1h0.1l0.2-0.4l0.4,0.4l-0.2,2.6l-4-0.7l1.6,8.4l-0.5,4.8l-1,2.9l1.1,4l-0.7,2.7l1.2,1.7l0.4,2.6
			l2.8,2.9l0.2,1.7l4.2,7l1.7,0.4l-0.5,1.5l3.7-0.5l2.5,1.8l0.9,2.2l2.6,4.4l0.9,2.7l3.8,3.3l-2.2,1.8l3.2,2.6l3.4,1.8l0.1,2.7
			l4.3,3.3l1,1.7l1-1.7l-3-2.5l-2-5.4l-2.8-3l-0.2-1.5l-4.3-4.4v-4.1l3.8,1.6l-0.1,0.9l2.2,4.5l3.9,4.4l3.1,2.5l-0.5,1.4l2.7,1.7
			l5.8,6l0.5,1.7l-1.8,1.2l2.8-0.1l-1.2,2.7l1.6,2.6l3.6,2.5l4.1,1.1l1.7,1.5l10.5,3.8l4-1.8l2.2,0.9l3.9,3.7l2.2,1.5l2.8,0.5
			l3.1,1.1l2.3-0.4l0.7,0.4l0.5,0.6l-0.9,0.4l4.7,4.2l-0.5,1.7l1.8,2l0.9-1l3.7,3.1l0.6,1.5l2.9-0.1l0.1,1.7l3.8-0.4l-1.1-1.7
			l3.2-1.8l2.3,1.2l-0.7,1l1.2,2l1.4,1.6l0.4,6.5l-3.6,3.7l-0.4,1.8l-2.8,1.4v1.8l-2.1,2.6v3l2.3,2.1l-1,0.5l-2.1,2l0.4,4.3l2.3,1.4
			l2.6,3.7l4.4,9.1l2.1,3.1l-0.1,2l2.6,2.8l8.6,4.5l2.7,2.6l0.7,7.5l-1.2,4.2l0.4,5.5l-1.1,5.8l-1.5,3.3l0.6,2.5l-0.9,0.9l0.5,5.5
			l-1.8,7.2l-1,1.2l-1.4,4.2l-1.1,1.6l1,4.8l-1.6,4.2l0.4,2.1l2.1,0.5l0.4,3.1l-1.7,4.8l0.4,0.7l-1.5,3.3l-1.2-0.7l-2.9,2.5l3.8,1.5
			l-0.4,2l-0.4,5.8l-1-5.8l-1,0.2l-0.9,0.6v4.7l1.3,0.9l-1,2.7l2.4-3.1l-0.2,3.1l1.6,2.3l-2.6,0.2l4,5.2l5.2,1.8l0.7-3.4l3.7-1.7
			l1.6,0.5l-1.7-4.3l0.7-2l2.5-1.2l0.6-2.8l3.8-3v-2.9l-2-0.1l-2-2.4l0.7-1.6l2.6-1.8l1.5,0.1l0.6-3.9l2.1-2v-1.4l2,0.6l-0.5-1.8
			l-2.9-0.2l0.4-3.6l2.7,1.2l3.3-0.9l0.7-5.3l2.8,0.1l4.2-0.9l3.4-1.5l2.2-3.4l-1.4-1.8l0.2-1.8l-3.3-3.2l0.9-4.8l-0.5,3.9l1.2,1.4
			l3.7,1.1l3.2,0.2l2.8-1.6l0.9-1.7l1.8-1.6l1.6-4.7l1.6-3l1.3,0.4l-1.1,2.9l3.1-5.3l2.3-2.1l0.5-6.5l3.9-4.3l5.3-2.9l6.3-0.4
			l2.6-2.5l-0.2-1.1l3.2-5.2v-2.1l1.3-2.1l0.6-4.4l-0.2-6.1l2.2-1.5l2.7-4.4l3.7-3.7l1.2-4.8L483.9,281.8z M408.3,154.7l0.6,0.2
			l-0.5-0.1l-0.5-0.4L408.3,154.7z M386.3,159.6l2.8-1.5l-2.1,3.3l-5.5,0.1l-0.1-1.5L386.3,159.6z M381.4,162.7l-0.1,0.9l-5.9,3.1
			l-4.3-0.6l1-1.6l0.6-1l0.4,0.2l0.5,0.6l-1.5,0.1l1.1,0.7l2.9-1.7L381.4,162.7z M375.3,153.5l-2.5,0.7l2.2,0.9l0.2-1.4l2.2,0.2
			l2.5,3.3l-0.9,0.9l-2.7-1.5l-1.1,4.7l-1.7,1l-0.6-2.6l-2.7-0.1l1.2-1l-0.1-2.8l-1.3-0.6l-0.4-2.5L375.3,153.5z M359.7,145.8
			l4.5-0.2l1.1,3.2l2.3-0.7l1.1,4.4l-1.1-1l-5.6,0.9l-2.1-1.2l-1.7-3.1l-1.5-0.1L359.7,145.8z M347.5,94.3l3.9,1.2l-4.3-0.6
			L347.5,94.3z M329.3,198.8l-0.1-0.4l0.2-0.1l0.5,0.5H329.3z M334.2,206.1l-0.4-0.5l-0.2-0.7l0.6,0.2V206.1z M405.1,308.8l-0.1-0.1
			l0.2-0.6l-0.1-0.4l-0.2,0.4l-2.1-1l1.6-0.7l1.7,1.6L405.1,308.8z M439.8,329.5l-0.9,1l0.6-2.9l0.2-0.5V329.5z M441.6,351.2
			l-0.2-1.1l1.1-1.2l0.1,0.4L441.6,351.2z"/>
		<path opacity="0.8" fill="#DDD9E0" d="M393.1,225.7l1.2,0.9l4.3,0.6l0.9,1l1.7-2h4.2l1.4-0.5l-2.9-1.1l-0.7-1.4l-2.6-0.7l-1.7,0.6
			l-3.3-0.6l1.1,1.2l-0.1,2.5L393.1,225.7z M398.2,225.8v0.1v0.1l-0.1-0.2H398.2z"/>
		<polygon opacity="0.8" fill="#DDD9E0" points="544.4,137.3 547,136.9 550.1,135.2 552.5,134.9 553.4,132.5 552.8,128.8 
			554.5,127.1 553.1,125.3 550.4,125.7 548,125.4 547.6,128.3 544.3,128.1 545,129.8 543.6,130.7 545.6,131.9 542.9,135.2 		"/>
		<polygon opacity="0.8" fill="#DDD9E0" points="644.5,183.9 644.3,183.9 644.2,183.9 643.5,184.2 644.6,185.3 644.9,185.3 
			645.2,185.4 646.5,184.9 646.8,184.4 646.9,184.4 647,184.4 647.2,184.5 647.3,184.5 647.8,184.4 647.5,184.2 648.9,182.7 		"/>
		<polygon opacity="0.8" fill="#DDD9E0" points="964.4,312.3 963.7,310.6 963.5,311 		"/>
		<polygon opacity="0.8" fill="#DDD9E0" points="963.1,304.9 961.2,303.3 959.5,305.9 963.1,309.4 963.7,310.6 964.1,309.6 		"/>
		<polygon opacity="0.8" fill="#DDD9E0" points="965.9,314.4 964.4,312.3 966.2,316.2 		"/>
		<polygon opacity="0.8" fill="#DDD9E0" points="974.7,372.2 973.6,370 970.9,373.7 970.1,375.9 966.8,378.6 963.7,380.1 
			959.9,383.7 959.2,385.7 962,386.2 962.6,387.7 966.5,387.4 969.1,385.5 970.6,380.7 973.1,379.1 977.6,373.4 976.3,371.2 		"/>
		<polygon opacity="0.8" fill="#DDD9E0" points="981.5,362.1 981.2,359.7 979.5,358.3 976.6,355 973.8,353.7 977.7,359.4 
			978.8,362.5 978.2,365.5 976.3,366.9 979.8,369.4 978.3,372.2 980,373.1 983.5,369.1 983.7,367 985.9,366.1 987.6,362.4 
			984.9,363 		"/>
		<polygon opacity="0.8" fill="#DDD9E0" points="391.6,220.9 387.2,219.1 383.1,216.1 382.3,216.2 379.7,215.1 374.1,214.5 
			369.8,215.8 368.7,218 371.2,217.1 372.1,218.8 373.3,218.4 371.8,216.6 374.9,215.8 375,216.9 378.2,217.3 381.1,218.5 
			382.5,220.7 386.2,221.2 384.6,222.7 392.8,222.2 		"/>
		<polygon opacity="0.8" fill="#DDD9E0" points="908,370.5 908.1,370.5 908.3,369.6 		"/>
		<polygon opacity="0.8" fill="#DDD9E0" points="927.6,331.3 928.3,329.4 926.6,330 924.5,326.9 922.2,324.8 922.3,323.7 
			919.5,322.6 916.9,317.2 915,316.7 911.7,314.4 911.3,311.3 909.6,308.5 909.4,304.9 907.4,303 906.1,303.8 904.9,299.3 
			902.2,293.8 900.6,299.2 900.2,307.5 898.8,311 896.8,311.6 894.6,309.6 888.7,306.8 886,304.3 889.6,298.7 887.1,297.6 
			885.3,298.6 880.8,297.2 879.4,295.6 876.9,296.6 874.2,296.1 873.5,297.5 875.8,298.7 873.6,300.2 871.8,303.6 872.9,304.7 
			869.1,304.3 865.6,302.1 860.2,305.8 860.1,308.3 858.6,308 858.1,311.1 856.8,308.9 854.9,310.5 855.3,312.6 852,316.2 
			843.5,318.8 842.3,318.4 834.8,323.4 834.3,327 836.3,331.5 835.9,333.1 834.1,332.9 838,340.7 838,342.6 839.6,346.3 
			839.6,350.6 838,351.2 838.3,353.4 841.9,355.1 846,354.8 849.8,352.2 858.1,352.2 859.5,350.1 864.4,347.8 867,347.9 
			870.9,346.4 876.1,345.8 878.6,347.3 882,347.4 885.5,352.1 886,354.2 887.4,353.8 892.3,350.2 890.9,352.8 891.4,355.5 
			892.4,352.8 893.4,354.4 891.8,357.2 894.5,356.5 896.6,359.4 896.2,360.9 897.7,362.8 900.7,364.2 902.4,364.1 905.2,365.5 
			908.6,362.9 908.5,364.5 912.1,365.2 916.4,362.6 920.4,361.8 920.7,357.5 924.7,349.5 926.4,348.4 928.8,339.2 928.7,335.5 		"/>
		<polygon opacity="0.8" fill="#DDD9E0" points="911.9,371.8 908.1,370.5 907.7,371.3 909.2,375.9 911,378.6 913,378.8 914.6,377 
			915.6,377.6 916.4,374.5 916.1,370.2 		"/>
		<polygon opacity="0.8" fill="#DDD9E0" points="685,300.4 683.4,297.7 682.1,301.3 680.9,301.1 680.5,302.9 676.2,306.8 
			672.1,307.9 670.8,311 672.2,316.8 669.9,320.3 669.2,322.5 670.5,325.6 671.1,329.4 673.7,330.8 678.3,329.2 679.4,326.5 
			683,314.8 683.9,310.5 684.8,308.7 684.2,306.3 686.3,306 		"/>
		<polygon opacity="0.8" fill="#DDD9E0" points="533.2,93 535.5,90.8 535.5,88.7 532.6,87.8 529.8,84.6 528.7,86.1 526.1,87 
			523.2,86 521.2,87.7 520.2,86.2 517.8,89.7 517.3,86.8 514.3,85 513.1,85.1 514.6,86.8 512.3,86 511.6,87.7 509.8,88.7 513,88.4 
			516.1,89 514.5,90 516.2,90.5 510.9,91 515,91.6 516.4,93.6 514.1,95.1 517.7,94.6 520,96.2 523.4,96.7 529.9,94 		"/>
	</g>
	<g>
		<path fill="#C6BFCF" d="M855.3,197.5l-3.2-1.5l2.3-1l-0.4-2.7l-2.2-1.8l-0.8-2.3l-5.2,0.4l0.2,1.1l-2.7-0.2l-3.2,3.3l-0.4-1
			l-2,5.4l-1.8,1.1l1.4,2.5l-1.5,1.5l1.2,0.2l1.8,0.4l0.4,1.8l-1.6,1.6l1.1-2.1l-1.7-1.7l-1.5,0.1l-3.1,0.2l1,2.7l4.2,0.9l-0.4,0.4
			h-2.8l-3.6-3.3l-3.7,1l-2,1.8l-0.9-0.9l-2.2,3.3l-0.9-1.2l-3.4,1.4h-5.3l-3.6,2l-2.9,3l-3.9,0.5l-1.7,4.8l1.2,4.8l3.7,3.7l2.7,4.4
			l2.2,1.5l-0.2,6.1l0.6,4.4l0.7,1.1l1.7,0.2l0.9,0.5l-0.1,3.3l4.1-1.7l1.8-2l4.2-2.3l0.6-6l-1.2-3.6l-5-5l-2.5-3.7l1-2.5l4.2-2.4
			l0.5-1.1l1.1-1l3,1l0.5,3l1.8-2.7l6.6-2l0.2-2.2l1.1,2.2l1.6-1.6l4-0.4l1.1-1.6l4.8-3.3l1.3-1.8l0.2-2.6l2-1.2l1.5-2.6l1.2-0.4
			l-0.1-2.3L855.3,197.5z M871.8,178.3l-0.7,0.2L869,176l-0.2,1.2l-2.3,0.5l-0.6,0.4l0.3,1.2l-1.3,0.4l1.1,2.5l-1.8,2.1l1.5,2.3
			l1.2-1.4l2.8-0.1l1.8-1.1l0.9-2.5L871.8,178.3z M1011.1,83.5l-0.6-0.5h-5.5l-0.9,1.7l-2.1-4.5l-2.8-0.9l-5.5-3.6l-6.5-3.1
			l-6.8-1.6l-11.5-1l0.7,4.7l-3.1,0.9l-3.1-2l-0.5-1.8l2.6,0.5l0.5-1.2l-2.7-0.6l-3.1,2.2l-5-0.4l-1.8-0.9l-5,0.6l-2,0.9l-3.2-2
			l1-1.6l-1-1.7l-2.8-1.2l-6-0.6L929,67l-3.4-0.1l-1.4-1.8l-3.9-1.6l0.2-1.1l-3.9-1.7l-3.9,0.1l0,0.3l-0.7,3.1l-2.3,0.2l-1,1.6
			l2.9-0.9l-1.5,2.7l-3.8,3.1l-1-2.6l-1.7-0.5l1-3l2.6-0.9l-2.3-0.6l-0.2-1.6l1.8-2.1l-0.6-0.6l-5.4-0.6l-4.7,1.2l-0.9,1.5l2,3.1
			l-3-0.7l-4.2,0.5l-2.5-0.5l-3.4,1.2l-2-0.4l-2.7-1.8l-2.3,4.3l-1.5,0.5l-2.7-1.6l-4.4-5.6l2.5,1.6l1.5-0.9l-2.2-1l2-2.5l-5.7-2.3
			l-1.5,0.6l-2.4-0.8l-0.2,0.9l-1.7,0.2l0.9,2.5l-2.1-1l-2.1,1.5l-3.4,0.7l2.7,2l3.4,0.9l0.6,1.6l-3.4-2.1l-3.3-0.9l-4,3.3l-0.1,3.3
			l3.1,2.2l1.7-0.2l2.9,1.5l2.7,2.5l8.7-0.2l6.1,0.1l2.2,2.8l4.1,1.7l3.4,5.3l-3.6-3.7l-5.6-2.7l-4.9,0.1l-0.5,2.1l3.1,2.2l-2.6-0.6
			l1.4,2l-1.5,2.8l-4.8,1.8l-1.2-0.7l-2.2,1.6l6,2.5l1.7-0.2l1.4,2.2l2.1,0.9l0.6-3.1l-3.9-2.2l6.6,0.5l-0.6,1L881,91l2.3,1.6
			l2.5,4.4l-2.6,1.7l8.8,2l-3,0.4l4.4,1l-0.5,2.1l1.8,2.2l1.6-1.5l-1.2,2.8l1.5,1.4l1.6-3.9l0.5,1.4l-0.6,5.2l-1.7,2.9l1.2,2.2
			l0.4-0.2l1-1.9l3.2-2.6l3.8-1l11.9,0.6l1.5-1.8l2.8,1l1.3,2.2l4.8-1.4l4.3,0.2l-2.7-1.2l2.1-2.9l5.9-5l6.8-0.6l-1.2,3.7l0.9,1.2
			l5.3-3.9l1.5,0.5l0.5-3.6l3.2-0.6l1.5,1l-2.6,0.5l-0.2,3.3l-4.9,3.3l-0.1,0.9l-4.8,3.7l-2,2.5l-3.7,2.1l-3.3,3.6l-1.2,4.9l1.1,6.4
			l3.5-0.9l2.1,0.2l2,1.2l1-0.5l1-2.9l4.9-2.1l-0.9-2.6l0.9-1.7l2.8-0.1l-1.3-2l1.3-3.2l-3.2-1.2l2.6-3.1l1,1.8l2.6-1.5h-2l-1.5-2.3
			l1.1-1.8l3.6-0.1l2.9-1.4l-0.6,2.2l2.2-1.7l5.1-0.9l2.7,2.1l1-1.8l2.8-1.2l4.7-3.4l7.7-2.8l3.9,0.7l1.6-1.2l-2.5-2.6l-0.7-3.5
			l-3.7-0.9l-1.6-1.2l5.2,1l4.9-1.8l1-2l-1.2-1.9l2,0.2l1,2.1l3.7-0.4l2.5,0.7l0.1,1.6l5.4,2.6l3.2-0.4l-1-1l1.1-3.2l1-0.1l-0.1-1
			L1011.1,83.5z M877.8,87.4l-0.5,0.1l0.6-0.2l0.4-0.2L877.8,87.4z M899.2,94l-2.1-3.3l2.8,1.5l4.9,0.5l-0.1,1.5L899.2,94z
			 M910.9,99.2l-5.9-3.1l-0.1-0.9l5.3,0.7l3,1.7l1.1-0.7l-1.5-0.1l0.5-0.6l0.4-0.2l0.6,1l1,1.6L910.9,99.2z M916.3,87.8l-1.4,0.6
			l-0.1,2.8l1.2,1l-2.7,0.1l-0.6,2.6l-1.7-1l-1.1-4.7l-2.7,1.5l-0.9-0.9l2.5-3.3l2.2-0.2l0.2,1.4l2.2-0.9L911,86l5.7-0.7L916.3,87.8
			z M928,80.5l-1.7,3.1l-2.1,1.2l-5.6-0.9l-1.1,1l1.1-4.4l2.3,0.7l1.1-3.2l4.5,0.2l2.9,2.1L928,80.5z"/>
		<path fill="#C6BFCF" d="M695.3,82.2l-4.6-1.6l-1.8-1.7l-2.9-0.4l-0.5-0.4l-1.5,0.9l0.2,0l4.5,2.6l2-0.7l1.4,1.7l4.3,0.6
			L695.3,82.2z M629.8,69l0.5-2.6l-3.7,3.8l-0.1-1.9l2.6-2.1l-3.3,0.1l-1.6,1.8l-2.2,0.1l0.5-1.2l-2.3,0.4l1.1,1.4l-5,0.6l-5.3,3.4
			l-1.5-0.6l-2.3,2.2h1.2l-6,5l1.8,0.2l-2.8,1.2l-1.8,2.1l-0.7,2.5l-4,5.9l-4.8,3.8l0.8,1l3.7-1.1l-3.2,1.8l-3.1-1.8l-2.5,1.5
			l2.3,0.2l-4.7,1.8l0.4,0.5l-4.5,2.5v6.5l1.1,1.7l-0.7,1.8l2.2-0.6l-1.5,2.2l2.5,2.2l2.4,0.2l2.2-0.7l4.7-3.4l2.2,0.9l-0.7,0.1
			l1,3.4l2,3.6l0.4,2.1l1.8,3.1l1.7-0.3l-0.5-1.7l1.1-4.1l-1-2.9l-0.5-4.8l1.6-8.3l-4,0.7l-0.2-2.6l0.4-0.4l0.2,0.4h0.1l5-4.1
			l5.4-2.2l0.6-3.9l1.7,0.4l1.6-2.7l3.2-1.7l-0.9-5.3l1.7,1.2l1.7-0.7l0.7-3.8l0.9,0.9l1.5-1.8l-1.5-0.6l4.5-4.8l-0.7,2.6l1.2-0.2
			l1.2-3.4l2.6-0.4l1.5,1l3.7-2.9l2.6-1.2l-3.7-1.1L629.8,69z M593.2,129.3l-0.2-1.1l-3.2-1.6l1.1-1.5l2.2,0.6l-1.1-4.9l0.5-4.1
			l-1.8,2.2l-3.9,1.8l1.2,5.4l0.9,3.3l-1.1,1.1l-2.9-0.5l-0.2,1.5l-1.7-1l-3.7,1l-2,4.8l0.5,1.1l0.1,0.2l-0.2-0.2l-0.9,0.1l-1.2-0.1
			l-0.5,0.1l-1.5,0.7l-2.2,0.7l-0.9,2.7l-3.3,2.1l-4-1.4l1.3,3.3l-3.1,0.4l-1-1l-3.9,1.1l2,1.9l4.5,2.5l2.1,2.3l-0.9,7.7l-0.7,0.6
			l-4.2-0.4l-8.6-0.1l-1.6-0.6l-3.3,2.5l1.2,2.7l0.2,2.7l-2,6.3l1.7,1l-0.5,3.7l3.7-0.5l2.2,0.6l0.7,1.7l0.5,0.1l1.7-1.2l1.6-2.6
			l-1.2-2.7l2.8,0.1l-1.8-1.2l0.5-1.7l5.8-6l2.7-1.7l-0.5-1.4l3.1-2.5l3.9-4.4l2.2-4.5l-0.1-0.9l3.8-1.6l5.8-2l0.8-2.2l2.5-1.8
			l3.7,0.5l-0.5-1.5l1.7-0.4l4.2-7l0.2-1.7l2.8-3l0.1-1l-2.3-1L593.2,129.3z"/>
		<path fill="#C6BFCF" d="M623.8,175.6l1.3-1.5l-2.2,0.1l-2.1-3.2l0.2,1.8l0.9,0.4l-0.3,1.2l1.1,1.3l-0.2,0.9l-0.2,0.9l-0.8,0.3
			l1.5,0.5l2,0l0.3,0L623.8,175.6z M629.1,175.5l-0.9,3.2l-2.6,0.2l-0.2-0.4l0,0.5l0.1,0.2l3.2-0.1l1.5-2.2L629.1,175.5z
			 M634.9,158.6l2.5-2.6l0-0.4l-1.4,0.5l-1-1l-0.1-0.9l-2.4-0.6l-2.5-1.3l-2.5-2l-0.6-1.2l-2.4-1.6l-1.2-0.1l-0.9-1.6l1.1-0.1
			l-0.7-1.7l-0.2-2.6l-0.6-1l-2,2.2l0.2,1.3l1.2,1.2l-1.8-0.8l-0.2-1.5l0.8-2.9l-0.4-1.4l0.5-0.5l0.9,0.7l0.2-2.2l-0.4-1.9l0.4-1.1
			l-0.6-2.6l0.5-0.6l-0.7-1.2l-0.4-2.7l-0.9-0.6l0.3-1.1l-1.1-2l-0.1,0.7l0.8,2.4l-0.1,1.3l0.8,1.3l0,4.6l-1.5,2l-0.4-1.3l-2.3-1.6
			l0.3-1.1l-0.8-0.6l-1.1,0.8l-1.4,0.1l-0.5-1.6l-2.2-0.8l0.6-0.9l-0.6-1.1l-0.1,0l-1.1-0.4l0.3,0.5l0.8,1.3l0,1.6l-2.3-0.6l-1,4
			l1,0.5l0.9,3.3l-1.5,0.2l-0.6,0.9l-0.7-2.6l-2.5-2.8l-1.5,0l0.4,1l-2.1-1.5l0.8,3.6l1,1.9l0.9-0.6l1.8,2.8l-0.8-0.3l-1.2,0.5
			l-1.5-1.7l-1.2,0.2l-3-1.4l-0.6,1l1.3,1.9l0.1,1.9l-0.5,0.3l-0.2,2.1l0.8,1l0.1,1.8l1.2,1.6l0,1.9l1.6,1.5l1.4,0.5l1.4,1.9
			l0.8-0.3l1.7,2.6l2.4,1.8l2.2,2.3l0.8,1.4l2.6,1.6l1.6,1.6l1.5,0.5l2.8,2.1l-1.3-0.1l-0.4,0.9l2.1,2.3l-0.2,0.7l1.1,1.9l-0.2,1
			l1,0.8l-1-3l0.2-1.8l0-0.3l0-0.2l0,0.2l2.4-1.6l4.4-0.5l-1.2,2.8l2.3-2.4l1.8,0.4l1.7-1.1h3.4l-2.3-2.8l-0.9-1.4l2.2-3.6
			L634.9,158.6z M651.7,155.7l-1.8,1l-0.4-0.8l-1.6,0.2l-1.8-0.8l-0.5,0.5l1.9,2.7l4.9-2.4L651.7,155.7z M657.6,158.1l-0.7-0.2
			l0.7,0.4L657.6,158.1L657.6,158.1z M727.6,162.6l-0.3,0.5l-3.2-0.6l0.1,0.5l-0.4,0l-0.4-0.2l-0.6-1.1l-1.5-0.9l-1.1-1l-1.3-0.5
			l-2.8-0.4l-1.1-0.6l-0.5-2.3l-3.9-2.5l-1.1-0.7l-0.3-0.1l-0.9-0.2l-1.8-1.3l-2.2-0.7l-1.6,0.2l-0.7,1.4l-0.8-1.2l0.1,1.2l-0.9,0.4
			l-4.4-0.5l-1.6-0.6l-0.4,0.6l-2-0.5l-0.7-0.1l1.4,0.4l-1.5,3.8l-2.8,0.2l-2.6,2l3.8,5.3l1.8,0.2l-0.6,2.8l0.9,1l0.7-1.6l0.9-0.4h1
			l2,2.7l-2.3,1.4l-1.8-1l-0.5,2.6l2,0.2l1,2.9l-0.2,4.3l0.2,1.4l-4.9,0.6l-2-0.4l-2.2-1.8l-2.3-0.6l-0.6-2.2l1.3-4.4l1-0.9
			l-3.1-4.2l-2.6-3.3l0.2-2.1l-2.1-2l2.2-3.7l3.8-1.8l2.1-1.1l-1.4-0.8l1.7-1.3l3.2,0.4l0.7-0.4l2.1,0.2l2.9-0.9l2,0.4l0.4-1l-1,0.1
			l-2.8-0.7l-1.2,0.8l-1.9-0.8l-2.1-0.5l0,1.5l-2.6-0.5l-1.4,0.5l-2.7,0.4l-0.3,0.1l0,0l-0.8,0.2l-1.6-0.4l-1-1.7l-0.5,0.7l-0.7-0.6
			l-4.3,0.5l-0.8,0.4l-2.1-0.2l-1.2,0.7l-1.1,0L666,150l-2,0.8l-0.9,1.4l-1.9,1.8l-4,2l1.6,1.4l-1,0.9l-0.1,0l1.4,0.8l2.3,2.2
			l3.7,2.1v3.2l-3.3,1.7h-4.2l-5.7-2.3l-6.1-0.9l-4.9,2.7l-4.8-0.5l-0.1,2.3h-5.6l-1.6,2.6l2.2,1.5l-1.8,1.8l2.3,0.7l0.1,2.8
			l2.5-0.2l3.2,2.5l1.7-0.2l0.6-1.8l3.2,1l1.8,1.3l2.1-0.2l2-1.7l2,0.6l1.5-1l-0.2,2.7l0.1,1.4l0.1,2l-1,2l-1.1,2.2l-0.6,2.1
			l-0.9,1.8l-0.1,0.1L648,194l-5,0.6l-0.4-1.1H642l-0.6,0.9l0.8,1.2l0,1.8l-0.7-2.5l-1-1l-0.2,1l1,2.3l0.9,0.6l1-0.2l-0.2,0.8l1-0.5
			l0.1,0l0.2,0.2l0.5,0.7l1.5,0.8l1,1.7l0.8,1l1.5-3.4l0.1-0.2l0.1,0.1l-0.1,0.4l-0.7,3.2l1.4,0.1l2,3.5l0,0h0l3.4,6.1l2.2,1.1
			l0.2,0.4l0.2,0l0.4,1.1l-0.1,0l0.8,1.6v3.1l1.1,1.7l-0.3-1.2l2.4,0.1l0.2-3.5l-1.7-0.4l1.7-0.2l-1-0.7l2.1,0.3l-0.8-0.6l-2.2-0.2
			l-0.8-1.5l1.1,0.6l0.2-2.6l-0.4-0.5l-2.4-1l1.5-0.1l1.9,1.8l0.7-2.2l-0.4-1.4l-1.1-0.3l0.5-1.8l-1.1-0.8l1.8,0.4l-0.8-1.7l0.9-2.4
			l-0.1-1.1l1.6-2.6l1.3-1l1.7,1.3l2.5-0.8l0.3-0.8l0.8,2l2.2,1.7l2.1,0.4l3.3,2l2,2.2l1.1-1.2l0.8-0.3l-0.9-1.9l-0.7-2.1l-0.4-1.6
			l0.6-0.1l0.7,0.2l0.9-1l2.8,0.4l3.1,5.6l2.5,0.9l2.8,2.5l2.7,0.4l3.7-1.7l1.6,0.9l0.7,2.7l2.6,0.5l-0.7-1.7l-0.1-1.5l1-2.5
			l1.5,0.5l-2-4.3l1.1,1.1l-1-2.2l1-0.5l0.3-1.5L705,196l1.6-0.4l0.1-1.1l-2.2,0.6l0.4-0.6l2.3-1.4l1.8-0.2l0.5-1.2l-0.6-3.8
			l0.3-0.9l-0.1-2.5l0.5-1.3l1-0.7l4.5-1.4l1.6-1.8l-0.5-0.6l-4.1,0.5l-1,1l-1.9-0.2l-0.6-1.5l-2.1-0.9l-2.1-3.3l1.6-0.4l-1.2-0.5
			l0.3-0.5l-3-2.4l-0.6-1l-0.5-3.5l0.5-1.7l1.6-0.8l1.1-1.7l1.7-1.6l2.6-0.9l3-0.2l1.7,0.9l1.3,2.9l0.2,1.7l-1.3,1.7l1,2.6l1.5,1.1
			l0.9-2.3l0.3,0.2l1-1.4l-0.6-0.2l1.6-1.1l0.6-1.5l0.2,0.4l0.5,0.2l1.5,2.4l1.4,1.5l1.7,0.5l3.1-3.5l0.6-0.1l0.1,0
			C728.6,164.1,728.1,163.3,727.6,162.6z M658.9,203.4l0.1-0.4l1.6,1.6L658.9,203.4z M687.8,194.6l-0.4-1.2l-1.7,0.6l-1.4-2
			l-0.1-1.9l0.5,0.6l1.8-0.3l1.2,0.5l1.5,2.6l0.8,0.1L687.8,194.6z M695.7,196.1l-0.1,0.6l-2.2,0l-0.8-0.9l0.5-0.5l-1.1-0.6l0.5,1.3
			l-2.1-2.1l1.2-0.6l0.7,0.4l1.2-0.9l0-0.8l0.9,1.1l1.3-0.6l0.1,1l-1.6,2L695.7,196.1z M696.7,191.4l-0.7-0.2l0.4,0.7l-0.4,0
			l-0.2-0.1l0.2-0.6l0.3-0.9l1.6,1.6l0.6,3.5l-0.3,0.3l-1.4-2.4L696.7,191.4z M699,200.3l-0.3-1.7l-1.4-2.2l0.7-0.4l1.7,2.4
			L699,200.3z M700.9,162.2l-0.3-0.2l0.4-0.1l0.3,0L700.9,162.2z M651.1,212.6l-1.7-3.2l-0.1,0.1l-2.1-1.3l-1,0.2l-1.7,1.5l-0.3,2.1
			l0.1,0.1l-1.1,0.8l-1-0.1l-1.6,1.1l0.2,0.7l-0.5,0.4l0.8,1.8l1.4,1.1l1.7,1.8l0.8-3.1l-0.2-0.8l-1.5-1.6l1.2,0.2l0.3-1.3l-0.3-0.4
			l2.4,0.6l1-0.7l3.2,0L651.1,212.6z M704.5,225.5l-0.7-0.6l-0.3-1.7l0-0.6l0.1-1.3l-2.9-3.6l-1.9-2.6l0.5-1.8l-0.6-2.2l1.1-3.1
			l-0.4,2.7l0.7,3.2l1.6,2l1-0.5l-0.1-2l0.6,1.3l0.4-1.2l0.4-0.1l-2.2-0.6l-1.7-2.6l-0.1-1.4l-0.1-0.2l0.1-1.8l-0.6,0.7l-3.8,4.2
			l-2.1,0.9l-4.2,0.1l-0.6-0.6l-0.6-0.1l-0.1-0.8l0.9-0.7l-0.9-3.1l-1,3.6l-1.6-2.5v-2.3l-0.6-0.5l0.2,0.5l-0.6,0.6l-1.5-0.1
			l-0.1,0.6l-3.1,1.9l1.9,0.2l0.2-0.8l1.3-0.8l0.5,2.4l-0.5,1.4l-2.1,1.2l-3.1-0.3l-0.6,2.5l-2,0l-0.5,1.4l-1-0.1l-1.1-1.1l-0.4-1.1
			l-0.7,1.1l1.6,1.4l0.3,1.6l2.3,1.7l0.2,1.3l3,1.2l0.7-0.5l1.7,1.9l0.5-0.2l1.7,1.1l-1-2l1.3-1l3.1,1l0.1,3.1l-0.8,0.4l-0.5,1.8
			l4.5-0.2l0.4-0.5l2.5,0.1l2-1.1l0.7,0.6l0.8-1.2l0.3,1.2l1.3,0.4l0.5,0.4l1,0.8l0-0.9l0-0.8l-0.7-1.7l0.5-0.8l0.2,2.1l0.4,1
			l0.3,0.7l2.7,0.6l1.4-1L704.5,225.5z"/>
		<path fill="#C6BFCF" d="M765.1,188l-0.2,1.3l-0.4-0.9l0.7-0.7l1.2,0.2L765.1,188z M767,159.1l-1.2-0.2l-0.2-0.9l1.1,0.6l-0.1,0.2
			l0.2-0.1l0.2-0.3l0.1,0L767,159.1z M786.9,166.3l-1,0.8l0.1-0.3l1-1.2L786.9,166.3z M796,160.3l0.5-0.3l-0.5,1l-0.2,0.1L796,160.3
			z"/>
		<polygon fill="#C6BFCF" points="703.7,209.4 703.5,209.3 703.8,209.4 704,209.5 		"/>
		<polygon fill="#C6BFCF" points="696.8,162.4 696.5,162.4 696.5,162.2 696.6,162.2 		"/>
		<path fill="#C6BFCF" d="M351.5,16.8l-3.3-1.2l-0.6,0.1l-0.3,1l5.2,1.4L351.5,16.8z M364.1,21.4l-0.1,1.8l1.2-1.8L364.1,21.4z
			 M372.3,10.2l-6.6-1l1,1.1l-3.2,0.9l4.7,0.9l-7.7-0.7l-3.2,1.7l-3.8-0.1l-2.2,1.1h5.5l-2.1,1.5l4.9-1.2l-4.7,2.3l1.2,1l7.8-0.7
			l-0.5,0.7l-6.3,0.7l4.9,1.4l2.8-2.1l-1.6,2.2l2.7,0.2l0.5-0.8l6.4-4.6l2.7-3.5L372.3,10.2z M374.4,8L373,9.8l3,1.2l1.7-2.2
			L374.4,8z M375.7,7.4l2,1.2l0.8-1.1l0,0L375.7,7.4z M517.8,53.1L507,50l-3.1,0.8l-2.9-3.9l-4-1.2l-0.6,5.8l7.7,3.4l-12.4,0.3
			l1-1.9l-9.3-1.4l-4.6-2.5l-5.4-7.8l4.5-3.7l-16.8-2l5.4-1.2l-8.4-1l0.5-4l-3.8-3.8l-2.7,3l1.8-5.5l-3-2.2l-2.2,7.6l-1.2-2.4
			l0.2-9.7l1.5-3.2l0,0l0.6-1.2l0.2-0.5l0.4-0.8L449,9.1l-1.4-2l-0.6,0.5l-1.5,3.6l-0.2,0.2l-0.5,0.5l0,0l-4.8,4.7l-6.9,2.5l-22.2,1
			l-1.5,2.3l0.2,0.3l4.7,0.2l0.5,2.7l-2.6,2.2l-4.9,0.1l-3.1,1.4l-7.6,1.5l-0.7,2l3.7,2l4.3,0.4l-3.3,1.1l-1,2.3l4.7,1.5l-1.6,0.7
			l3.7,2.3l4.7,0.6l0.6-1.6l5.2,0.7l1.2-1.2l5.6,1h0l2.7-0.7l11.5,4.6l0.4,1.6l-7.7-0.3l0,0l2.6,0.7l2.2,2.6l-0.6,1.3l1.6,1.1
			l-0.9,1.2l2,0.9l-1,1.5l0.5,4.1l-1,2.1l1.4,1.2l3.2-0.2l3.2-1.1l-1.8,2.3l3.7,0.4l-0.1,1.6l2.3,0.2l-1.6,1l-2.1-1.2h-5l1.7,1.4
			l5.6,1.8l1.5,1.4l-0.7,4.4l-4.9,0.6l3.1,1.5l-3-0.6l-1.8,4.5l3.9,0.6l-3.2,1.7l1,3.2l1.2-0.2l1.6,2.9L445,94l1.8-2.3l-0.6,4
			l1.4,1.8l2,0.9l-0.4,1.7l2.3,1.2l0.8,3.2l3,0.9l-1.2,0.6l5.3,0.5l1.4,1.8l1.7,0.7l-3.8-4.8l5.6,0.8l3-0.6l0.8-3.7l-1.9-1.5
			l2.3,0.1l3.7-3.9v-4.2l2.3-1.8l-1.5-0.5l3.8-0.9l1.2-2.2l0.2,2.6l3.5-1l4.1-2.1l3.2-3.7l-0.1-1.1l3.2-2l1-0.1l-0.3-0.3l-7.8-2.5
			l-7.3-9.2l7.3,6.2l11,4l9.1-1.1l0.5-3.9l-2.1-1.2l-1.2-0.7l-1.3-0.8h0l-1.5-0.9l1.7,0.2l2.3,0.3l0.7,0.1l0.2,0l-0.1-0.1l-0.1-0.1
			l-1.6-2l-1-1.2l2.2-5.5l4.9-2.5l0.1,0h0l2.5-1.2l1.1-0.6l2.4,1.1l1-0.8l2.4-2.1l0.4-0.4L517.8,53.1z M448,53l-9.2,0l0-2.8
			l10.3-0.8l4.5,5.8L448,53z M489.6,58.1l-0.6,0.5l0.8-0.8l0.9-0.3L489.6,58.1z M420.3,85.9l2.6-0.5l-1.2-2.7l-3.2,0.6l0.4-1.7
			l-3.6-2.7l-3-0.1l-1.4-1l-1.3,5.6l-8.5,0.4l-4.2-2.4l0.4,1.2l-4.9,3.8l2.3,2.7l-1.3-0.4l-4,1.2l-3.9-0.9l-1.7,1.8l1.5,2.5
			l-0.4,3.3l-1.8-0.2l1.2,1.6l1.6-1.8l1.7,0.4l-2.3-2.1l2.5-0.6l1.6-1.6l2.7,0.9l1.5-1.2l4.3,3.9l2.2,0.4l-1,1.5l2.2,2.3l2.7-0.4
			l2.5,1.5l2.8,0.4l4.5,1.7l-1.2-2l-7.1-5.6l3.4,1.1l2.2,2h4.5l1.1-3.3l-2.3-0.9l-0.1-2.2l-4-1.8v-1l-3-1.7l2.7-0.7l-2-1.8l2.5-0.4
			l3.4,2.2l-0.1,1.2l2.1,2.2l2.8-0.5l-0.7-1l3.6-0.7L420.3,85.9z M420,113.7l-4.6-6.5l-1.8,2.3l2,0.6l-0.2,2.1L420,113.7z
			 M407.4,69.2l-0.4,0.9h-3.4l3.1-2l-5-1.5l-2.6-2.5l-3.3-0.2l-3.8-0.4l0.9-1.9l-2.5-0.2l0.2-1.7l-5.7-1.1l-3.2,2.1l-2.1-1l-1.5,1.5
			l0.5-2.5l-3.1-4.4l-2.9-0.1l-5.7,2.3l-1.2,2.6l1.6,1.7l-2.2,1l3.4,2.5l-0.7,0.9l-3.1-2.2l-1.3-4.5l3.8-4.5l-3.8-0.1l-2.5,0.6
			l-3.1,2.1l-2.5,5.9l0.7,2.6l4,0.5l1.8,0.9l-5.3-0.2l2,2.6l5,0.5l0.7,1.1l6,0.6l2.7,0.9l2.2-1l3.6,2l1-1.4l2.3-0.7l-1-2.2l3.3,1.5
			v1.6l-2.7,1.2l-1.4,2.4h1.4l0.7-2.3l2.3-1.1l2.6,1.2l-2.1,0.1l1.6,3.1l2.7-1.3l3.1,2.1l-0.5,2.9h2.3l-2.1-1.2l0.9-1.4l2.2,0.7
			l0.7,2.2l1.5-0.3l2.6-6l3.6-2.7l5.1,0.3L407.4,69.2z M407.3,107.1l0.2,0.3l0.4-0.1L407.3,107.1z M400.3,18.7l-8.6,3.4l-8,0.3
			l5.2,1.8l-1.2,2.1l1.2,0.2l6.5-1l-0.5-1.3l4.4,0.2l2-2.2l1.2-0.7L400.3,18.7z M399,104.8v-1.6l-5.3-3.1l-2.1,1.2l-5.2-1.5
			l-2.8,1.4l-3.9-0.9l-0.9,2.3l2.1-0.7l2.8,0.4l1.3,1.4l-1.6,2.3l1.7,2.1l3.7,0l9.8-3l2.7-0.2L399,104.8z M387.3,27l-0.5,0.9
			l1.6-0.1l3.8,0.4l0.1-1L387.3,27z M392,29.5l-2.7-1l-2.7-0.2l-1,1.7L379,37l2.3,0.1l3.3-1.5l-1-2l3.1,0.4l2.9-1.1l1.2-1.4
			l-3.3-0.9l3.9-0.2L392,29.5z M390.8,77.9l-1.1-0.2l-2.6,0.1l-1.5,2.2l0.9,2l2.6-0.1l1.8-1.1L390.8,77.9z M384.4,54.8l-7-0.6
			l0.1,2.1l2,2l8.5,0.1l0.2-1.2L384.4,54.8z M384.6,40.3l-0.4-1.6l-3.4,0.2l0.9-0.9l-3-0.9l-3.1,3.2l-3.9,0.7l5.8,0.2l-0.7,1.5
			l4-0.9l-0.9,2.1l2,0.1l-0.9-2.3L384.6,40.3z M376.6,44.6l-6.1-0.2l-6.3,1.8l-2.2-0.9l-3.7,0.9l-0.6-1.7l-4.9-1.7l4.4-0.1l-2.6-1.4
			l-0.8,0.7l-2.8-0.6l-0.2,3.9v0l0,0.6l-0.1,2.2l-0.4,0.1l0.6,1.2l4.9,1.2l19.3,0.4L379,50l0.5-0.9l0.7-3.1L376.6,44.6z M376,94.2
			l-2.3-2.7l-4-1.6l-2.3-2.2h-2l-1.1,4.5l0.5,1.8l-2.3,2l3.3-0.5l0.4,1.7l2.5-0.2l3.7-3.3l1.2,2l3.4,0.9l2-1.3L376,94.2z
			 M376.4,76.3L375,75l0.7-2l-2.6-1l-6.4-0.9l-0.1,2.7l2,0.7l-2.7,1.2l-0.5,2.7h-2.6l1.1,2.7l-2.1,0.6l-2-2.2l-0.4-2l1.3-0.2l-0.5-2
			l-2.2-1.7l-1.7,0.7l-1.4,3.3l-0.4-2.6l-1.6-2.7l-4.3-5.5l-0.1-2.3l-3.7-2.8l1-0.1l1.6-1.8l-1.7-1.5l4.2,0.4l1.3-0.6l3.8-4.8
			l-4.8-0.5l-3.3-0.9l-3.7,0.9v1.1l-1.2,0.5l0.1,3.7l1.2,1.3l0.1,2.6l-0.2,0l-2.8,2.8l-0.4,4.3l0.9,1.9l4.4,1.7l-0.7,3l2.2,0.6
			l-4.7,3.6l1.2,1.7l-3.1-0.7l1.4-3.3l-3.2-0.7l-3.4,0.5l1.6,1.9l2.2,0.5l-8.5-0.2l-3.8,0.5l-2.8-1.4l-2.2,0.1l-0.5-2.2l-1,1.2
			l-0.9-1.8l-2-0.7l-4.7,1.1l-1.2,1.5l2.7,0.4l4.7-1.8l-2.6,2.1l-2.7,0.1l-0.9,2.8l-3.9-2.8l-3.8,1.5l-5.4,0.1l-3.9-1l1.3-1.4
			l2.5-0.5l-2.7-2l-2.2,0.2l-4.8-0.9l-5.3-1.6l-2.6-1.4l-3.8,1.9l-1.5,3.8l2.6,3.2l-3.7-0.1l-2.2-3.7l-6.8,1.4l-4.7-0.9l-0.5-2.9
			l-1.9-0.7l-0.9-0.3l-0.9-0.3l-0.9-0.3L255,72l-4.1-1.5l-5.9,1.3l2,1.6l-0.5,2l-1,4.2l-1.9,0.4l0.4,1.8l-0.7,7.7l1.2,0.9l10.2-1
			l1.3-3.4l4.7,8l5.4,1.1l10.9,5.6l12.6,4.5l12.8,1.7l21.6-0.3l-2.2-8.5l5.5-2.2l6.1,3.1l1.2,3.3l-4.9-0.4l-0.7,2.4l5.1,0.6l5.3-4.7
			l9.4-0.2l0.7,0.2l1-1.5l3.6-0.7l-2.7-2.3l2.5,0.7l2.2-2.8l1.7,1.2l2.6-1l2.5-3.6l-4.9-0.7l-1.6-2.5l4.2,2.5h1.2l3.7-3.3l-2.2-1
			l3.2-0.5l3,3.1l1.8,0.6l-3-2.8l2.2,0.6l-1.7-2.8l2.5,2.1l5-4.3l-3-3.6L376.4,76.3z M374.3,98.2l-2.7,0.1l-1.1,1.3l1.1,0.5
			l-0.3,0.6l0.7,0.4l2.8-2L374.3,98.2z M368,41.9l0.9,0.1l0.5-0.4L368,41.9z M363.8,34.6l-0.8-1l-1,0.9l-1.3,1.1l-3.6,3.3l-1.9,1.7
			l0.5,0.4l6.3,0.1l1.6,0.2l1.3-5.7L363.8,34.6z M361.2,20.8l-1.8-0.1l-1.2,1.3l-0.7-1.8l-3.3-0.1l-1-1.3l-3.9,5.7l-2.1-3.2
			l-4.5,3.2l3.7-0.4l1.9,2.5l0.8,1l0.5,0.6l-1.1,2.2l2.8,2.1l4.1,0.1l0-0.6l7.4-7l0.3-1.4L361.2,20.8z M343.1,34.7l-1.5,1.6h5.9
			l0.7-1.2L343.1,34.7z M347.8,39.7L347,39l-4.8-0.7l-2.5,0.5l2.3,2.8l4,0.7l0.5-0.1l0-1.5L347.8,39.7z M345,49.7l-2.9-1.5l4.7-1.4
			l0-0.4l-1.9-1.7l-4.3,2.6l2.7,3.3l4-0.7l0.1-0.9L345,49.7z M341,32.6l-2.1,1.2l1,0.3l3.9-0.5l0.5-1.5L341,32.6z M342,75.2
			l-1.1-2.1l-2.7-2.1l-1.7,0.4l-1.8,2.8l-3.9,0.6l3.9,0.1l5.8,2.1l3.1-1.7L342,75.2z M339.8,56.6l-1.1,1l-2.6-0.4l2.8-1.6l-0.2-2.1
			l-1.7-0.4l0.5-2.6l-1,1.8l-4.3,1.6l-2.1-0.4l-1.7,1.6l3.8,2.3l-2.9,1.1l-1.8-1.6l-1.3,1.8l6.5,3.6l2.7,2.6l5-2.4l0.6-2.6
			L339.8,56.6z M338.5,45.1l-0.7-3.9l-2.9-0.7l-0.5,0.9l-2.6-1.3l-2.2,0.7l3.2,3.1l-4.7-2.5l-1,2.2l-2.6,1.2l2.8-0.2l-1.2,1.5
			l6.6-0.9l-2.1,1.1l0.9,2h5.4l-0.2-1.5L338.5,45.1z M336.4,31.6l0.1,0.1l0.1-0.3L336.4,31.6z M334.2,33.6l-0.5,0.5l0.8-0.1
			L334.2,33.6z M329.5,72.7l0.2-2.9l-1.1,0.4l-5.8-2.7l-1.6-1.6l0.9-1.1l-1.7-3.3l-0.7-3l-6.3-3.4l-0.4,1.1l1,7.4l-2.1-4.1l-3.4-2
			H307l2.2,2.2l-2.2-0.2l-2.2,1.2l1-2l-4.2-1.4l-1.7,1.8l-0.5-2.2l-1.5-1.2l-6.5,2.1l-2.9,2.2l1.1,0.9l-2.2,1.4v1.4l2.3-0.2l1.2,1.4
			h3.4l-5.4,1.5l2.1,1.6h0l2.4,0.3l0.1,0l2.3,1.5l0.8,0.5l-2.9-0.3h0l-1.4,0.2l-1.1,0.6l3.4,2.8L300,74l0.1,1.6l2.1,1.5l2.8-0.4
			l0.1,0.9l3-1.2l6.9-1.6l1.7-2l0.5,1.2l6.9,1.7l4.1-1.5l-0.7-1.5l-1.8,0.4l1.6-2.1L329.5,72.7z M325.8,41.9l-3.1-1.7l-0.7,1.7
			l1.6,2.1l3.1-0.6L325.8,41.9z M319.3,45.6V44l-2.6-0.7l-1.1,0.7l-3.3-0.7l1-1.1l-1.2-1.9l-0.7,0.4l-2.2,2l-3.5,3.1l-1.9,1.7
			l-0.5,0.4l-1.2,0.6l-3.3,1.6l2.7,1.1l3.2-0.5l6.6-2.7l1,0.7l5.7-0.6l0.9-1.5l3.3,1.6l1-1.6L319.3,45.6z M320,54.1l-3.3,0.2
			l0.2,1.4l2.8,2.4l1.6-2L320,54.1z M320.4,36.5l-2.5-1.6l1.2,2.2l1.8,1L320.4,36.5z M293,52.9l-3.4,1.6l-7.4-0.6l-2.8,2.6l5,4.3
			l0.3,0.9l2.4-2.4l9.1-3.9L293,52.9z"/>
	</g>
</g>
<g id="Layer_2">
</g>
<g id="Layer_3">
</g>
</svg>
