<?xml version="1.0" encoding="utf-8"?>
<!-- Generator: Adobe Illustrator 22.1.0, SVG Export Plug-In . SVG Version: 6.00 Build 0)  -->
<svg version="1.1" xmlns="http://www.w3.org/2000/svg" xmlns:xlink="http://www.w3.org/1999/xlink" x="0px" y="0px"
	 viewBox="0 0 1268 418" enable-background="new 0 0 1268 418" xml:space="preserve">
<g id="Layer_1">
	<path fill="#FEDEB8" d="M634,366.7c-86.9,0-157.7-70.7-157.7-157.7S547.1,51.3,634,51.3S791.7,122.1,791.7,209
		c0,35.2-11.6,67.7-31.1,93.9l35.2,35.2C824.1,302.7,841,257.9,841,209C841,94.7,748.3,2,634,2S427,94.7,427,209s92.7,207,207,207
		c46.6,0,89.6-15.4,124.2-41.4l-35.4-35.4C697.5,356.5,666.9,366.7,634,366.7z"/>
	<path fill="#DFDAE3" d="M634,316.6c-59.3,0-107.6-48.3-107.6-107.6S574.7,101.4,634,101.4S741.6,149.7,741.6,209
		c0,21.3-6.2,41.2-17,58l34.9,34.9c19.3-26,30.7-58.1,30.7-92.9c0-86.1-70.1-156.2-156.2-156.2S477.8,122.9,477.8,209
		S547.9,365.2,634,365.2c32.5,0,62.7-10,87.8-27.1l-35.2-35.2C671,311.6,653.1,316.6,634,316.6z"/>
	<path fill="#C6C0CC" d="M634,266.5c-31.7,0-57.5-25.8-57.5-57.5s25.8-57.5,57.5-57.5s57.5,25.8,57.5,57.5c0,7.4-1.4,14.5-4,21
		l36,36c10.5-16.5,16.6-36,16.6-56.9c0-58.5-47.6-106.1-106.1-106.1S527.9,150.5,527.9,209S575.5,315.1,634,315.1
		c18.7,0,36.2-4.8,51.4-13.3l-37.1-37.1C643.8,265.9,639,266.5,634,266.5z"/>
	<circle fill="none" cx="634" cy="209" r="174.9"/>
	<text transform="matrix(0.9841 -0.1778 0.1778 0.9841 597.7568 37.8213)" opacity="0.2"><tspan x="0" y="0" font-family="'RobotoCondensed-Regular'" font-size="19.4296px">S</tspan><tspan x="9.9" y="0" font-family="'RobotoCondensed-Regular'" font-size="19.4296px" rotate="2.9">y</tspan><tspan x="17.8" y="0.3" font-family="'RobotoCondensed-Regular'" font-size="19.4296px" rotate="6.6">m</tspan><tspan x="32" y="2" font-family="'RobotoCondensed-Regular'" font-size="19.4296px" rotate="11.2">b</tspan><tspan x="41.3" y="3.7" font-family="'RobotoCondensed-Regular'" font-size="19.4296px" rotate="13.4">o</tspan><tspan x="50.6" y="6" font-family="'RobotoCondensed-Regular'" font-size="19.4296px" rotate="15.7">l</tspan><tspan x="54.8" y="7.1" font-family="'RobotoCondensed-Regular'" font-size="19.4296px" rotate="17.8">s</tspan></text>
	<circle fill="#B1A7B5" cx="634" cy="209" r="56"/>
	<g opacity="0.6">
		
			<text transform="matrix(1 0 0 1 606.6802 214.2305)" fill="#FCF1E4" font-family="'RobotoCondensed-Regular'" font-size="19.4296px">Values</text>
	</g>
	<circle fill="none" cx="634" cy="209" r="125.3"/>
	<text transform="matrix(0.9831 -0.183 0.183 0.9831 605.0068 86.9258)" opacity="0.2"><tspan x="0" y="0" font-family="'RobotoCondensed-Regular'" font-size="19.4296px">H</tspan><tspan x="11.8" y="0" font-family="'RobotoCondensed-Regular'" font-size="19.4296px" rotate="4.7">e</tspan><tspan x="20.6" y="0.8" font-family="'RobotoCondensed-Regular'" font-size="19.4296px" rotate="8">r</tspan><tspan x="26.3" y="1.6" font-family="'RobotoCondensed-Regular'" font-size="19.4296px" rotate="11.5">o</tspan><tspan x="35.6" y="3.4" font-family="'RobotoCondensed-Regular'" font-size="19.4296px" rotate="15.6">e</tspan><tspan x="44.2" y="5.8" font-family="'RobotoCondensed-Regular'" font-size="19.4296px" rotate="19.6">s</tspan></text>
	<circle fill="none" cx="634" cy="209" r="73"/>
	<text transform="matrix(0.9602 -0.2792 0.2792 0.9602 608.6353 140.3467)" opacity="0.2"><tspan x="0" y="0" font-family="'RobotoCondensed-Regular'" font-size="19.4296px">R</tspan><tspan x="10" y="0.1" font-family="'RobotoCondensed-Regular'" font-size="19.4296px" rotate="5.6">i</tspan><tspan x="14.2" y="0.5" font-family="'RobotoCondensed-Regular'" font-size="19.4296px" rotate="9.4">t</tspan><tspan x="19.6" y="1.3" font-family="'RobotoCondensed-Regular'" font-size="19.4296px" rotate="15">u</tspan><tspan x="28.2" y="3.6" font-family="'RobotoCondensed-Regular'" font-size="19.4296px" rotate="21.9">a</tspan><tspan x="36.5" y="7" font-family="'RobotoCondensed-Regular'" font-size="19.4296px" rotate="27.1">l</tspan><tspan x="40.3" y="8.8" font-family="'RobotoCondensed-Regular'" font-size="19.4296px" rotate="32.1">s</tspan></text>
	<path fill="#EBE0D4" d="M794.3,338.8c-10.7,13.2-21.8,24.1-35.4,34.4L650,264.3c16.7-4.8,30.2-17,37-32.8L794.3,338.8z"/>
	<g opacity="0.2">
		
			<text transform="matrix(0.7239 0.6899 -0.6899 0.7239 692.7875 281.9373)" font-family="'RobotoCondensed-Regular'" font-size="19.4296px">Practices</text>
	</g>
</g>
<g id="Layer_2">
</g>
<g id="Layer_3">
</g>
</svg>
