<?xml version="1.0" encoding="utf-8"?>
<!-- Generator: Adobe Illustrator 22.1.0, SVG Export Plug-In . SVG Version: 6.00 Build 0)  -->
<svg version="1.1" id="Layer_1" xmlns="http://www.w3.org/2000/svg" xmlns:xlink="http://www.w3.org/1999/xlink" x="0px" y="0px"
	 viewBox="0 0 1268 418" style="enable-background:new 0 0 1268 418;" xml:space="preserve">
<style type="text/css">
	.st0{fill:#EEEDEF;}
	.st1{fill:#DFDAE3;}
	.st2{fill:#C6C0CC;}
	.st3{fill:none;}
	.st4{fill:#352247;}
	.st5{font-family:'RobotoCondensed-Regular';}
	.st6{font-size:19.4308px;}
	.st7{fill:#B1A7B5;}
	.st8{opacity:0.6;}
	.st9{fill:#FFFFFF;}
	.st10{font-size:19.4296px;}
	.st11{font-size:19.4284px;}
	.st12{fill:#EBE0D4;}
</style>
<g id="Layer_1_1_">
	<path class="st0" d="M333,366.7c-86.9,0-157.7-70.7-157.7-157.7S246.1,51.3,333,51.3S490.7,122.1,490.7,209
		c0,35.2-11.6,67.7-31.1,93.9l35.2,35.2C523.1,302.7,540,257.9,540,209C540,94.7,447.3,2,333,2S126,94.7,126,209s92.7,207,207,207
		c46.6,0,89.6-15.4,124.2-41.4l-35.4-35.4C396.5,356.5,365.9,366.7,333,366.7z"/>
	<path class="st1" d="M333,316.6c-59.3,0-107.6-48.3-107.6-107.6S273.7,101.4,333,101.4S440.6,149.7,440.6,209
		c0,21.3-6.2,41.2-17,58l34.9,34.9c19.3-26,30.7-58.1,30.7-92.9c0-86.1-70.1-156.2-156.2-156.2S176.8,122.9,176.8,209
		S246.9,365.2,333,365.2c32.5,0,62.7-10,87.8-27.1l-35.2-35.2C370,311.6,352.1,316.6,333,316.6z"/>
	<path class="st2" d="M333,266.5c-31.7,0-57.5-25.8-57.5-57.5s25.8-57.5,57.5-57.5s57.5,25.8,57.5,57.5c0,7.4-1.4,14.5-4,21l36,36
		c10.5-16.5,16.6-36,16.6-56.9c0-58.5-47.6-106.1-106.1-106.1s-106.1,47.5-106.1,106S274.5,315.1,333,315.1
		c18.7,0,36.2-4.8,51.4-13.3l-37.1-37.1C342.8,265.9,338,266.5,333,266.5z"/>
	<circle class="st3" cx="333" cy="209" r="174.9"/>
	<text transform="matrix(0.9841 -0.1778 0.1778 0.9841 296.7554 37.8204)" class="st4 st5 st6">S</text>
	<text transform="matrix(0.9841 -0.1778 0.1778 0.9841 306.4985 36.06)" class="st4 st5 st6">y</text>
	<text transform="matrix(0.9841 -0.1778 0.1778 0.9841 314.3263 34.9504)" class="st4 st5 st6">m</text>
	<text transform="matrix(0.9841 -0.1778 0.1778 0.9841 328.603 34.0987)" class="st4 st5 st6">b</text>
	<text transform="matrix(0.9841 -0.1778 0.1778 0.9841 338.0574 34.1183)" class="st4 st5 st6">o</text>
	<text transform="matrix(0.9841 -0.1778 0.1778 0.9841 347.618 34.728)" class="st4 st5 st6">l</text>
	<text transform="matrix(0.9841 -0.1778 0.1778 0.9841 351.9467 35.0633)" class="st4 st5 st6">s</text>
	<circle class="st7" cx="333" cy="209" r="56"/>
	<g class="st8">
		<text transform="matrix(1 0 0 1 305.6802 214.2305)" class="st9 st5 st10">Values</text>
	</g>
	<circle class="st3" cx="333" cy="209" r="125.3"/>
	<text transform="matrix(0.9831 -0.183 0.183 0.9831 304.0067 86.9258)" class="st4 st5 st10">H</text>
	<text transform="matrix(0.9831 -0.183 0.183 0.9831 315.6073 84.7665)" class="st4 st5 st10">e</text>
	<text transform="matrix(0.9831 -0.183 0.183 0.9831 324.4051 83.9425)" class="st4 st5 st10">r</text>
	<text transform="matrix(0.9831 -0.183 0.183 0.9831 330.1552 83.6859)" class="st4 st5 st10">o</text>
	<text transform="matrix(0.9831 -0.183 0.183 0.9831 339.6273 83.7535)" class="st4 st5 st10">e</text>
	<text transform="matrix(0.9831 -0.183 0.183 0.9831 348.5211 84.5392)" class="st4 st5 st10">s</text>
	<circle class="st3" cx="333" cy="209" r="73"/>
	<text transform="matrix(0.9602 -0.2792 0.2792 0.9602 307.6357 140.3457)" class="st4 st5 st11">R</text>
	<text transform="matrix(0.9602 -0.2792 0.2792 0.9602 317.2652 137.6505)" class="st4 st5 st11">i</text>
	<text transform="matrix(0.9602 -0.2792 0.2792 0.9602 321.4099 136.8612)" class="st4 st5 st11">t</text>
	<text transform="matrix(0.9602 -0.2792 0.2792 0.9602 326.8181 136.1226)" class="st4 st5 st11">u</text>
	<text transform="matrix(0.9602 -0.2792 0.2792 0.9602 335.7184 135.9297)" class="st4 st5 st11">a</text>
	<text transform="matrix(0.9602 -0.2792 0.2792 0.9602 344.6367 136.8767)" class="st4 st5 st11">l</text>
	<text transform="matrix(0.9602 -0.2792 0.2792 0.9602 348.7884 137.5439)" class="st4 st5 st11">s</text>
	<path class="st12" d="M493.3,338.8c-10.7,13.2-21.8,24.1-35.4,34.4L349,264.3c16.7-4.8,30.2-17,37-32.8L493.3,338.8z"/>
	<g>
		<text transform="matrix(0.7239 0.6899 -0.6899 0.7239 391.7873 281.9373)" class="st4 st5 st10">Practices</text>
	</g>
</g>
<g id="Layer_2_1_">
</g>
<g id="Layer_3">
</g>
<g id="Layer_1_2_">
	<path class="st0" d="M916,366.6c-86.9,0-157.7-70.7-157.7-157.7S829.1,51.2,916,51.2s157.7,70.8,157.7,157.7
		c0,35.2-11.6,67.7-31.1,93.9l35.2,35.2c28.3-35.4,45.2-80.2,45.2-129.1c0-114.3-92.7-207-207-207s-207,92.7-207,207
		s92.7,207,207,207c46.6,0,89.6-15.4,124.2-41.4l-35.4-35.4C979.5,356.4,948.9,366.6,916,366.6z"/>
	<path class="st1" d="M916,316.5c-59.3,0-107.6-48.3-107.6-107.6S856.7,101.3,916,101.3s107.6,48.3,107.6,107.6
		c0,21.3-6.2,41.2-17,58l34.9,34.9c19.3-26,30.7-58.1,30.7-92.9c0-86.1-70.1-156.2-156.2-156.2s-156.2,70.1-156.2,156.2
		S829.9,365.1,916,365.1c32.5,0,62.7-10,87.8-27.1l-35.2-35.2C953,311.5,935.1,316.5,916,316.5z"/>
	<path class="st2" d="M916,266.4c-31.7,0-57.5-25.8-57.5-57.5s25.8-57.5,57.5-57.5s57.5,25.8,57.5,57.5c0,7.4-1.4,14.5-4,21l36,36
		c10.5-16.5,16.6-36,16.6-56.9c0-58.5-47.6-106.1-106.1-106.1s-106.1,47.5-106.1,106S857.5,315,916,315c18.7,0,36.2-4.8,51.4-13.3
		l-37.1-37.1C925.8,265.8,921,266.4,916,266.4z"/>
	<circle class="st3" cx="916" cy="208.9" r="174.9"/>
	<text transform="matrix(0.9841 -0.1778 0.1778 0.9841 879.7558 37.7571)" class="st4 st5 st6">S</text>
	<text transform="matrix(0.9841 -0.1778 0.1778 0.9841 889.4984 35.9968)" class="st4 st5 st6">y</text>
	<text transform="matrix(0.9841 -0.1778 0.1778 0.9841 897.3262 34.8872)" class="st4 st5 st6">m</text>
	<text transform="matrix(0.9841 -0.1778 0.1778 0.9841 911.603 34.0355)" class="st4 st5 st6">b</text>
	<text transform="matrix(0.9841 -0.1778 0.1778 0.9841 921.0569 34.0552)" class="st4 st5 st6">o</text>
	<text transform="matrix(0.9841 -0.1778 0.1778 0.9841 930.6179 34.6648)" class="st4 st5 st6">l</text>
	<text transform="matrix(0.9841 -0.1778 0.1778 0.9841 934.9467 35.0001)" class="st4 st5 st6">s</text>
	<circle class="st7" cx="916" cy="208.9" r="56"/>
	<g class="st8">
		<text transform="matrix(1 0 0 1 888.6802 214.1678)" class="st9 st5 st10">Values</text>
	</g>
	
		<ellipse transform="matrix(0.7071 -0.7071 0.7071 0.7071 120.5756 708.8952)" class="st3" cx="916" cy="208.9" rx="125.3" ry="125.3"/>
	<text transform="matrix(0.9831 -0.183 0.183 0.9831 887.0067 86.863)" class="st4 st5 st10">H</text>
	<text transform="matrix(0.9831 -0.183 0.183 0.9831 898.6073 84.7037)" class="st4 st5 st10">e</text>
	<text transform="matrix(0.9831 -0.183 0.183 0.9831 907.405 83.8797)" class="st4 st5 st10">r</text>
	<text transform="matrix(0.9831 -0.183 0.183 0.9831 913.1552 83.6231)" class="st4 st5 st10">o</text>
	<text transform="matrix(0.9831 -0.183 0.183 0.9831 922.6273 83.6908)" class="st4 st5 st10">e</text>
	<text transform="matrix(0.9831 -0.183 0.183 0.9831 931.5211 84.4764)" class="st4 st5 st10">s</text>
	<circle class="st3" cx="916" cy="208.9" r="73"/>
	<text transform="matrix(0.9602 -0.2792 0.2792 0.9602 890.6356 140.2832)" class="st4 st5 st11">R</text>
	<text transform="matrix(0.9602 -0.2792 0.2792 0.9602 900.2652 137.5869)" class="st4 st5 st11">i</text>
	<text transform="matrix(0.9602 -0.2792 0.2792 0.9602 904.4099 136.7977)" class="st4 st5 st11">t</text>
	<text transform="matrix(0.9602 -0.2792 0.2792 0.9602 909.8184 136.0601)" class="st4 st5 st11">u</text>
	<text transform="matrix(0.9602 -0.2792 0.2792 0.9602 918.7183 135.8662)" class="st4 st5 st11">a</text>
	<text transform="matrix(0.9602 -0.2792 0.2792 0.9602 927.637 136.8141)" class="st4 st5 st11">l</text>
	<text transform="matrix(0.9602 -0.2792 0.2792 0.9602 931.7887 137.4813)" class="st4 st5 st11">s</text>
	<path class="st12" d="M1076.3,338.7c-10.7,13.2-21.8,24.1-35.4,34.4L932,264.2c16.7-4.8,30.2-17,37-32.8L1076.3,338.7z"/>
	<g>
		<text transform="matrix(0.7239 0.6899 -0.6899 0.7239 974.7873 281.8745)" class="st4 st5 st10">Practices</text>
	</g>
</g>
<g id="Layer_3_1_">
</g>
</svg>
