<svg height="256" viewBox="0 0 256 256" width="256" xmlns="http://www.w3.org/2000/svg"><path d="m134.3 11.5a110 110 0 0 0 -71.9 26.6l-.4.2a1 1 0 0 0 -.4.5 110.5 110.5 0 0 0 -38.2 83.6 115.2 115.2 0 0 0 1.7 19.6 1.6 1.6 0 0 0 -.1 1 1.4 1.4 0 0 0 .6 1.2 110.9 110.9 0 0 0 219.7-21.8c0-61.1-49.8-110.9-111-110.9zm46.4 82.4 37.6-37.6a103.6 103.6 0 0 1 7.5 10.8l-1.2-1.2-39 39a64.4 64.4 0 0 0 -4.9-11zm45.3-26.5a101.2 101.2 0 0 1 5.2 9.8l-33.1 33.1-3.9 3.3-3.9 3.4-1.4 1.4a79.1 79.1 0 0 0 -2.6-11.4zm-9-12.7-37.4 37.5a55.6 55.6 0 0 0 -6.6-8.4l36.8-36.9-1.4-1.4-36.8 36.9a48.8 48.8 0 0 0 -11.8-8.4l37.8-37.7a109.1 109.1 0 0 1 19.4 18.4zm-75.7 12.3h.1l40.5-40.4a94.4 94.4 0 0 1 14 8.4l-38 38a52.8 52.8 0 0 0 -16.6-4.4zm.4-18.3 27.3-27.4c3.7 1.3 7.4 2.8 11 4.4l-38.6 38.6zm0-2.9.5-20.4 1.3 1.3 9.5-9.6a104.7 104.7 0 0 1 13.9 3.5zm8.9-29.1-8.4 8.4.2-9.3c2.7.2 5.5.5 8.2.9zm-15.5-1.2h3.3l-1.1 52.7h-2.2zm-6.4.1h4.4v52.7h-1.9l-2.5.2zm-7.9.8a56.1 56.1 0 0 1 5.9-.6v52.9a55.8 55.8 0 0 0 -5.9.9zm-9.2 1.5 7.2-1.3v53.5a54.8 54.8 0 0 0 -7.2 2.2zm-8.5 2.3c2.1-.7 4.3-1.3 6.5-1.8v54.6c-2.2 1-4.4 2-6.5 3.2zm-8.6 56.4v-53.4l6.6-2.4v56.6l-4.4 2.9a2.1 2.1 0 0 0 -.3-.7l-2-2.5a.9.9 0 0 0 .1-.5zm-7-9.1v-41.2l5-2.3v50.6l-5.1-6.6a.9.9 0 0 0 .1-.5zm-7.9-36.9c1.9-1.2 3.9-2.3 5.9-3.3v38.3l-5.9-7.7zm-5.2 3.3 3.2-2.1v23.5l-3.2-4.1zm-2 1.4v13.3l-6.4-8.4zm61.9 194a107.1 107.1 0 0 1 -104.6-84.7l45.1-3.3a58.5 58.5 0 0 0 56.5 43.8 57.8 57.8 0 0 0 11-1.1l7.6 44.2a100.5 100.5 0 0 1 -15.6 1.1zm37.4-65.5a55.4 55.4 0 0 1 -27.3 15.7h-.8a2.3 2.3 0 0 0 -1 .5 53.5 53.5 0 0 1 -11.3 1.2 54.5 54.5 0 0 1 -54.4-54.4c0-29.2 23.9-53.1 54.5-54.4h2.7c29.7 0 49.9 21.2 51.6 54.6a49.9 49.9 0 0 1 -14 36.8zm17.3-44.2 1.2.4a4.7 4.7 0 0 1 1.4-1.4l3.9-3.4 3.9-3.4 32.7-32.7a110 110 0 0 1 4.6 12.5l-31.8 31.9-15.3 1.3c-.2-1.8-.3-3.5-.6-5.2zm19 3.6 29.3-29.4a106.3 106.3 0 0 1 3.1 15.1l-.4-.4-12.9 12.9zm22.2-2 10.4-10.4c.3 3.1.6 6.2.6 9.4z"/></svg>