<svg height="256" viewBox="0 0 256 256" width="256" xmlns="http://www.w3.org/2000/svg"><path d="m108.3 106.6-56.1-77.3-1.9 1.4c-39.8 29.3-55.8 78.6-40.8 125.6l.7 2.3 110-35.7zm144.7 21.9c.1-61.3-49.1-111.7-110.2-113.4v-.3h-2.4c-15 .1-47.1 8.3-65.2 21.2l-2 1.5 64.8 89v.3l-19.9 6.4-85.3 27.8.8 2.3a107.1 107.1 0 0 0 15.8 30.8 112.6 112.6 0 0 0 73.7 45.3 114.2 114.2 0 0 0 18.4 1.5 112.4 112.4 0 0 0 65.7-21.2l2-1.4v-.2c28.6-22.1 43.8-53 43.8-89.6zm-173-89.9c16.5-10.8 43.6-18 58-18.9v98.6zm43.9 196a108 108 0 0 1 -70.6-43.3 104.6 104.6 0 0 1 -14.4-27.2l80.7-26.3 20.1-6.5 62.5 86a107.8 107.8 0 0 1 -78.3 17.3zm82.3-20.4-63.4-87.3v-107c58.4 1.7 105.4 49.9 105.4 108.6 0 35-14.5 64.6-42 85.7z"/></svg>