<svg height="256" viewBox="0 0 256 256" width="256" xmlns="http://www.w3.org/2000/svg"><path d="m128.9 4.2v41.5a82.6 82.6 0 0 1 81.5 83.7 81.8 81.8 0 0 1 -2.2 17.8l40.3 10.1a111.4 111.4 0 0 0 3.5-29.3c0-68-55.2-123.4-123.1-123.8zm116.1 147.2-31.2-7.7a85.4 85.4 0 0 0 1.4-14.2 87.4 87.4 0 0 0 -81.5-88.4v-32a116.7 116.7 0 0 1 41.2 9.4 120.6 120.6 0 0 1 37.6 25.6 118.7 118.7 0 0 1 34.7 83.9 107 107 0 0 1 -2.2 23.4zm-117.6-105.7v-41.5a119.1 119.1 0 0 0 -56.7 14.1l19.4 36.5a80.6 80.6 0 0 1 37.3-9.1zm-39.5-5.4v-24.5l4-1.3v33.5l-4.1-7.7zm-1.2-2.1-3.2-6v-14.6l3.2-1.3zm25.5 4.1a54.1 54.1 0 0 0 -5.5 1.2v-32.7l5.5-.9zm1.2-32.5 4.4-.4v32l-4.4.7zm-7.9 34q-3 .8-6 1.8v-33.3l6-1.3zm-7.2 2.2a47.1 47.1 0 0 0 -5.2 2.1v-34l5.2-1.5zm24.3-5-3.6.3v-32l3.6-.2zm-40.3-23v12l-5.1-9.6zm6.4 37.5-19.3-36.4c-23 12.3-39.3 28.9-51.2 52.1l36.6 18.6a83 83 0 0 1 33.9-34.3zm-64 13.6a113 113 0 0 1 42.7-43.5l14.9 28a87.6 87.6 0 0 0 -29.4 29.9zm28.6 94.6-36.8 18c-17-35.5-16.7-74.2 1-109.2l36.6 18.6a82.7 82.7 0 0 0 -.8 72.6zm.6 1.3-36.8 17.9a126 126 0 0 0 17.3 26.3 74.5 74.5 0 0 0 6 6.5v3.6h1.2v-2.4c1.5 1.6 3.1 3.1 4.7 4.5v2.1h1.2v-1.1q2.6 2.3 5.1 4.2v.9h1.2c20 15.1 44.6 23.7 71.4 24.3l.7-41a82.9 82.9 0 0 1 -72-45.8zm18.8 68.7a52.4 52.4 0 0 1 -5.7-3.2v-39.6c1.8 1.7 3.7 3.4 5.7 5zm1.2-36.8a65.5 65.5 0 0 0 5.3 3.9v36.1l-5.3-2.6zm-8.1 32.9-5.1-3.3v-42.4c1.6 1.9 3.3 3.8 5.1 5.6zm-6.3-47.2v43.1l-5.7-4.3v-46.8c1.8 2.8 3.7 5.4 5.7 8zm-30.5-.1v11.5c-1.9-2.8-3.7-5.8-5.4-8.9zm1.2 13.3v-13.9l4.2-2.1v21.8c-1.5-1.9-2.9-3.8-4.2-5.8zm5.4 7.3v-23.8l4.8-2.4v31.8c-1.7-1.8-3.3-3.7-4.8-5.6zm6 6.9v-33.7l4.7-2.3v40.9c-1.6-1.6-3.2-3.2-4.7-4.9zm5.9 6v-42.6l4.4-2.1.7 1.3v47.8zm63.2 29.8-5.1-.8v-32.3l5.1 1.2zm1.1-31.7 4.8.7v31.7l-4.8-.5zm-7.4 30.7-4.8-1.1v-32.8l4.8 1.4zm-6-1.4-5.1-1.4v-33.6a53.8 53.8 0 0 0 5.1 2zm-6.3-1.7-6.6-2.3v-34.8q3.3 1.8 6.6 3.3zm28.4 5.1-2.7-.2v-31.6l3.2.3zm-36.2-42.8v35l-3.9-1.6v-35.8l.6.3zm123.5-55.3 40.2 10a123.1 123.1 0 0 1 -119.5 93.1h-1.8l.7-41h.5a82.5 82.5 0 0 0 79.9-62.1zm-126.4-85.9a76.6 76.6 0 0 1 46.1-15v78.4zm30.5 71.1 16-5.2 35.8 49.3 11 15.2a80.2 80.2 0 0 1 -111.4-18.1 73.9 73.9 0 0 1 -11.2-21.8z"/></svg>