<svg height="256" viewBox="0 0 256 256" width="256" xmlns="http://www.w3.org/2000/svg"><path d="m251.8 254h-246.5a3.1 3.1 0 0 1 -3-2.2 2.9 2.9 0 0 1 -.3-1.4v-242.6c0-4.3 6.6-4.2 6.6 0v239.6h243.2c4.3 0 4.3 6.6 0 6.6zm-189.5-23.4h-23.4v-68.1h23.4zm-4.4-63.7h-14.6v59.3h14.6zm30.2-6.9h-23.3v-68.1h23.3zm-4.4-63.7h-14.5v59.3h14.5zm30.2-6.9h-23.3v-68.1h23.3zm-4.4-63.7h-14.5v59.3h14.5zm80.2 134.3h-23.4v-68.1h23.4zm-4.4-63.7h-14.6v59.3h14.6zm30.2-6.9h-23.3v-68.1h23.3zm-4.4-63.7h-14.5v59.3h14.5zm-71.3 66.2h-23.4v68.1h23.4zm25.8 68.9h-23.4v68.1h23.4z"/></svg>