<svg xmlns="http://www.w3.org/2000/svg" width="620.5" height="195" viewBox="0 0 620.5 195"><title>dynamic-timeline</title><path d="M633.6,109.8H13.1" transform="translate(-13.1 -14.7)" fill="#ababab" stroke="#646464" stroke-miterlimit="10" stroke-width="5"/><text transform="translate(84.5 81.9)" font-size="10.72" fill="#b0b0b0" font-family="RobotoCondensed-Regular, Roboto Condensed" style="isolation:isolate">2002</text><text transform="translate(33.8 118.1)" font-size="10.72" fill="#b0b0b0" font-family="RobotoCondensed-Regular, Roboto Condensed" style="isolation:isolate">2001</text><path d="M13.3,163.4H99.4v9.2H13.3Z" transform="translate(-13.1 -14.7)" fill="#e5e5e5"/><path d="M13.3,182H99.4v9.2H13.3Z" transform="translate(-13.1 -14.7)" fill="#e5e5e5"/><text transform="translate(223.7 118.1)" font-size="10.72" fill="#b0b0b0" font-family="RobotoCondensed-Regular, Roboto Condensed" style="isolation:isolate">2004</text><path d="M204.7,163.4h86.1v9.2H204.7Z" transform="translate(-13.1 -14.7)" fill="#e5e5e5"/><path d="M204.7,182h86.1v9.2H204.7Z" transform="translate(-13.1 -14.7)" fill="#e5e5e5"/><text transform="translate(466.4 81.9)" font-size="10.72" fill="#b0b0b0" font-family="RobotoCondensed-Regular, Roboto Condensed" style="isolation:isolate">2009</text><path d="M442.2,14.7h86.1v9.2H442.2Z" transform="translate(-13.1 -14.7)" fill="#e5e5e5"/><path d="M442.2,33.3h86.1v9.2H442.2Z" transform="translate(-13.1 -14.7)" fill="#e5e5e5"/><text transform="translate(565.2 118.1)" font-size="10.72" fill="#b0b0b0" font-family="RobotoCondensed-Regular, Roboto Condensed" style="isolation:isolate">2011</text><text transform="translate(79.8 65.9)" font-size="16.36" fill="#b0b0b0" font-family="RobotoCondensed-Regular, Roboto Condensed" style="isolation:isolate">MVP</text><text transform="translate(16.3 138.3)" font-size="16.36" fill="#b0b0b0" font-family="RobotoCondensed-Regular, Roboto Condensed" style="isolation:isolate">founded</text><text transform="translate(212.8 138.3)" font-size="16.36" fill="#b0b0b0" font-family="RobotoCondensed-Regular, Roboto Condensed" style="isolation:isolate">launch</text><text transform="translate(454.7 65.9)" font-size="16.36" fill="#b0b0b0" font-family="RobotoCondensed-Regular, Roboto Condensed" style="isolation:isolate">g<tspan x="8.1" y="0" letter-spacing="-0.01em">r</tspan><tspan x="12.9" y="0" letter-spacing="0em">owth</tspan></text><text transform="translate(564.3 138.3)" font-size="16.36" fill="#b0b0b0" font-family="RobotoCondensed-Regular, Roboto Condensed" style="isolation:isolate">IPO</text><path d="M546.3,163.4h86.1v9.2H546.3Z" transform="translate(-13.1 -14.7)" fill="#e5e5e5"/><path d="M546.3,182h86.1v9.2H546.3Z" transform="translate(-13.1 -14.7)" fill="#e5e5e5"/><path d="M13.3,200.5H99.4v9.2H13.3Z" transform="translate(-13.1 -14.7)" fill="#e5e5e5"/><path d="M204.7,200.5h86.1v9.2H204.7Z" transform="translate(-13.1 -14.7)" fill="#e5e5e5"/><path d="M442.2,51.8h86.1V61H442.2Z" transform="translate(-13.1 -14.7)" fill="#e5e5e5"/><path d="M546.3,200.5h86.1v9.2H546.3Z" transform="translate(-13.1 -14.7)" fill="#e5e5e5"/><path d="M62.4,15h86.1v9.2H62.4Z" transform="translate(-13.1 -14.7)" fill="#e5e5e5"/><path d="M62.4,33.6h86.1v9.2H62.4Z" transform="translate(-13.1 -14.7)" fill="#e5e5e5"/><path d="M62.4,52.1h86.1v9.2H62.4Z" transform="translate(-13.1 -14.7)" fill="#e5e5e5"/><circle cx="44.3" cy="95.3" r="8.5" fill="#575757" stroke="#fff" stroke-miterlimit="10" stroke-width="4"/><circle cx="92.4" cy="95.3" r="8.5" fill="#575757" stroke="#fff" stroke-miterlimit="10" stroke-width="4"/><circle cx="236.3" cy="95.3" r="8.5" fill="#575757" stroke="#fff" stroke-miterlimit="10" stroke-width="4"/><circle cx="477.1" cy="95.3" r="8.5" fill="#575757" stroke="#fff" stroke-miterlimit="10" stroke-width="4"/><circle cx="577.5" cy="95.3" r="8.5" fill="#575757" stroke="#fff" stroke-miterlimit="10" stroke-width="4"/></svg>