<svg xmlns="http://www.w3.org/2000/svg" xmlns:xlink="http://www.w3.org/1999/xlink" width="650" height="275" viewBox="0 0 650 275"><defs><style>.a{fill:#e5e5e5;}.b,.i{fill:none;stroke:#646464;}.b,.e,.i{stroke-miterlimit:10;}.b{stroke-width:4px;}.c,.d{isolation:isolate;font-family:RobotoCondensed-Regular, Roboto Condensed;}.c{font-size:8px;}.c,.e{fill:#575757;}.d{font-size:11.5px;fill:#b0b0b0;}.e{stroke:#fff;stroke-width:2.83px;}.f{letter-spacing:-0.01em;}.g{letter-spacing:-0.02em;}.h{letter-spacing:-0.01em;}.i{stroke-width:6px;}.j{letter-spacing:-0.01em;}.k{letter-spacing:-0.01em;}.l{letter-spacing:0.01em;}.m{letter-spacing:0em;}</style><symbol id="a" viewBox="0 0 61 19.7"><path class="a" d="M0,0H61V6.4H0ZM0,13.2H61v6.5H0Z"/></symbol></defs><title>parallel-timelines-01</title><path class="b" d="M559.7,127.2s-297.1-.1-361.4,0-1.1,86.8-64.6,86.7"/><text class="c" transform="translate(221 143.5)">2005</text><text class="d" transform="translate(213.3 114.3)">launch</text><use width="61" height="19.68" transform="translate(198.2 151)" xlink:href="#a"/><circle class="e" cx="229.9" cy="127.4" r="6"/><text class="c" transform="translate(319.3 143.5)">2010</text><text class="d" transform="translate(311.2 114.3)">g<tspan class="f" x="5.7" y="0">r</tspan><tspan x="9.1" y="0">owth</tspan></text><use width="61" height="19.68" transform="translate(293.2 151)" xlink:href="#a"/><circle class="e" cx="326.8" cy="127.4" r="6"/><text class="c" transform="translate(410.7 143.5)">2015</text><text class="d" transform="translate(402 114.3)">t<tspan class="g" x="3.4" y="0">r</tspan><tspan x="6.7" y="0">action</tspan></text><use width="61" height="19.68" transform="translate(388 151)" xlink:href="#a"/><circle class="e" cx="419.4" cy="127.4" r="6"/><text class="d" transform="translate(508.8 114.3)">IPO</text><text class="c" transform="translate(510.9 143.5)">2010</text><use width="61" height="19.68" transform="translate(484.4 151)" xlink:href="#a"/><circle class="e" cx="518.4" cy="127.4" r="6"/><path class="b" d="M640.6,40.7s-474.5-.3-537.1-.1-1,173.3-63,173.3"/><text class="c" transform="translate(221 57)">2005</text><text class="d" transform="translate(213.3 27.8)">launch</text><use width="61" height="19.68" transform="translate(198.2 64.5)" xlink:href="#a"/><circle class="e" cx="229.9" cy="40.8" r="6"/><text class="c" transform="translate(128.1 57)">2002</text><text class="d" transform="translate(124.8 27.8)">MVP</text><use width="61" height="19.68" transform="translate(103.5 64.5)" xlink:href="#a"/><circle class="e" cx="133.7" cy="40.8" r="6"/><text class="c" transform="translate(319.3 57)">2010</text><text class="d" transform="translate(311.2 27.8)">g<tspan class="f" x="5.7" y="0">r</tspan><tspan x="9.1" y="0">owth</tspan></text><use width="61" height="19.68" transform="translate(293.2 64.5)" xlink:href="#a"/><circle class="e" cx="326.8" cy="40.8" r="6"/><text class="c" transform="translate(410.7 57)">2015</text><text class="d" transform="translate(402 27.8)">t<tspan class="g" x="3.4" y="0">r</tspan><tspan x="6.7" y="0">action</tspan></text><use width="61" height="19.68" transform="translate(388 64.5)" xlink:href="#a"/><circle class="e" cx="419.4" cy="40.8" r="6"/><text class="d" transform="translate(508.8 27.8)">IPO</text><text class="c" transform="translate(510.9 57)">2010</text><use width="61" height="19.68" transform="translate(484.4 64.5)" xlink:href="#a"/><circle class="e" cx="518.4" cy="40.8" r="6"/><text class="c" transform="translate(602.3 57)">2015</text><text class="d" transform="translate(591.4 27.8)">acqui<tspan class="h" x="24.8" y="0">r</tspan><tspan x="28.2" y="0">ed</tspan></text><use width="61" height="19.68" transform="translate(579.6 64.5)" xlink:href="#a"/><circle class="e" cx="611" cy="40.8" r="6"/><path class="i" d="M640.6,213.7H9.1"/><text class="c" transform="translate(221 230)">2005</text><text class="d" transform="translate(213.3 200.9)">launch</text><use width="61" height="19.68" transform="translate(198.2 237.5)" xlink:href="#a"/><circle class="e" cx="229.9" cy="213.9" r="6"/><text class="c" transform="translate(128.1 230)">2002</text><text class="d" transform="translate(124.8 200.9)">MVP</text><use width="61" height="19.68" transform="translate(103.5 237.5)" xlink:href="#a"/><circle class="e" cx="133.7" cy="213.9" r="6"/><text class="c" transform="translate(33 230)">2001</text><text class="d" transform="translate(10.6 200.9)">disc<tspan class="j" x="18.9" y="0">o</tspan><tspan class="k" x="24.6" y="0">v</tspan><tspan x="29.4" y="0">e</tspan><tspan class="l" x="34.8" y="0">r</tspan><tspan class="m" x="38.4" y="0">y</tspan></text><use width="61" height="19.68" transform="translate(9.3 237.5)" xlink:href="#a"/><circle class="e" cx="40.5" cy="213.9" r="6"/><text class="c" transform="translate(319.3 230)">2010</text><text class="d" transform="translate(311.2 200.9)">g<tspan class="f" x="5.7" y="0">r</tspan><tspan x="9.1" y="0">owth</tspan></text><use width="61" height="19.68" transform="translate(293.2 237.5)" xlink:href="#a"/><circle class="e" cx="326.8" cy="213.9" r="6"/><text class="c" transform="translate(410.7 230)">2015</text><text class="d" transform="translate(402 200.9)">t<tspan class="g" x="3.4" y="0">r</tspan><tspan x="6.7" y="0">action</tspan></text><use width="61" height="19.68" transform="translate(388 237.5)" xlink:href="#a"/><circle class="e" cx="419.4" cy="213.9" r="6"/><text class="d" transform="translate(508.8 200.9)">IPO</text><text class="c" transform="translate(510.9 230)">2010</text><use width="61" height="19.68" transform="translate(484.4 237.5)" xlink:href="#a"/><circle class="e" cx="518.4" cy="213.9" r="6"/><text class="c" transform="translate(602.3 230)">2015</text><text class="d" transform="translate(591.4 200.9)">acqui<tspan class="h" x="24.8" y="0">r</tspan><tspan x="28.2" y="0">ed</tspan></text><use width="61" height="19.68" transform="translate(579.6 237.5)" xlink:href="#a"/><circle class="e" cx="611" cy="213.9" r="6"/></svg>