<svg viewBox="0 0 650 200" xmlns="http://www.w3.org/2000/svg"><path d="m633.6 58.6h-620.5" fill="#ababab" stroke="#646464" stroke-miterlimit="10" stroke-width="5"/><text fill="#b0b0b0" font-family="'RobotoCondensed-Regular'" font-size="10.72" transform="translate(181.2 81.6001)">2002</text><text fill="#b0b0b0" font-family="'RobotoCondensed-Regular'" font-size="10.72" transform="translate(46.9 81.6001)">2001</text><path d="m13.3 93.6h86.2v9.1h-86.2z" fill="#e5e5e5"/><path d="m13.3 112.2h86.2v9.2h-86.2z" fill="#e5e5e5"/><text fill="#b0b0b0" font-family="'RobotoCondensed-Regular'" font-size="10.72" transform="translate(312.4 81.6001)">2005</text><path d="m280.3 93.6h86.1v9.1h-86.1z" fill="#e5e5e5"/><path d="m280.3 112.2h86.1v9.2h-86.1z" fill="#e5e5e5"/><text fill="#b0b0b0" font-family="'RobotoCondensed-Regular'" font-size="10.72" transform="translate(451.2 81.6001)">2010</text><path d="m413.8 93.6h86.1v9.1h-86.1z" fill="#e5e5e5"/><path d="m413.8 112.2h86.1v9.2h-86.1z" fill="#e5e5e5"/><text fill="#b0b0b0" font-family="'RobotoCondensed-Regular'" font-size="10.72" transform="translate(580.3 81.6001)">2015</text><text fill="#b0b0b0" font-family="'RobotoCondensed-Regular'" font-size="16.36" transform="translate(176.5 40.3999)">MVP</text><text fill="#b0b0b0" font-family="'RobotoCondensed-Regular'" font-size="16.36" transform="translate(29.4 40.3999)">founded</text><text fill="#b0b0b0" font-family="'RobotoCondensed-Regular'" font-size="16.36" transform="translate(301.5 40.3999)">launch</text><text fill="#b0b0b0" font-family="'RobotoCondensed-Regular'" font-size="16.36" transform="translate(439.5 40.3999)">g</text><text fill="#b0b0b0" font-family="'RobotoCondensed-Regular'" font-size="16.36" transform="translate(447.6 40.3999)">r</text><text fill="#b0b0b0" font-family="'RobotoCondensed-Regular'" font-size="16.36" transform="translate(452.4 40.3999)">owth</text><text fill="#b0b0b0" font-family="'RobotoCondensed-Regular'" font-size="16.36" transform="translate(579.4 40.3999)">IPO</text><g fill="#e5e5e5"><path d="m548.3 93.6h86.1v9.1h-86.1z"/><path d="m548.3 112.2h86.1v9.2h-86.1z"/><path d="m13.3 130.7h86.2v9.2h-86.2z"/><path d="m280.3 130.7h86.1v9.2h-86.1z"/><path d="m413.8 130.7h86.1v9.2h-86.1z"/><path d="m548.3 130.7h86.1v9.2h-86.1z"/><path d="m13.3 149.2h86.2v9.2h-86.2z"/><path d="m280.3 149.2h86.1v9.2h-86.1z"/><path d="m413.8 149.2h86.1v9.2h-86.1z"/><path d="m548.3 149.2h86.1v9.2h-86.1z"/><path d="m13.3 167.7h86.2v9.2h-86.2z"/><path d="m146 93.6h86.1v9.1h-86.1z"/><path d="m146 112.2h86.1v9.2h-86.1z"/><path d="m146 130.7h86.1v9.2h-86.1z"/><path d="m146 149.2h86.1v9.2h-86.1z"/><path d="m146 167.7h86.1v9.2h-86.1z"/><path d="m280.3 167.7h86.1v9.2h-86.1z"/><path d="m413.8 167.7h86.1v9.2h-86.1z"/><path d="m548.3 167.7h86.1v9.2h-86.1z"/></g><circle cx="57.4" cy="58.8" fill="#575757" r="8.5" stroke="#fff" stroke-miterlimit="10" stroke-width="4"/><circle cx="189.1" cy="58.8" fill="#575757" r="8.5" stroke="#fff" stroke-miterlimit="10" stroke-width="4"/><circle cx="325" cy="58.8" fill="#575757" r="8.5" stroke="#fff" stroke-miterlimit="10" stroke-width="4"/><circle cx="461.8" cy="58.8" fill="#575757" r="8.5" stroke="#fff" stroke-miterlimit="10" stroke-width="4"/><circle cx="592.6" cy="58.8" fill="#575757" r="8.5" stroke="#fff" stroke-miterlimit="10" stroke-width="4"/></svg>
