<?xml version="1.0" encoding="utf-8"?>
<!-- Generator: Adobe Illustrator 24.0.1, SVG Export Plug-In . SVG Version: 6.00 Build 0)  -->
<svg version="1.1" id="Layer_1" xmlns="http://www.w3.org/2000/svg" xmlns:xlink="http://www.w3.org/1999/xlink" x="0px" y="0px"
	 viewBox="0 0 320.1 219.3" style="enable-background:new 0 0 320.1 219.3;" xml:space="preserve">
<style type="text/css">
	.st0{fill:#D1D1D1;}
	.st1{fill:#D8D8D8;}
	.st2{fill:#AAAAAA;}
	.st3{font-family:'Roboto-Regular';}
	.st4{font-size:7.4915px;}
	.st5{clip-path:url(#SVGID_2_);}
	.st6{opacity:0.73;fill:#606060;enable-background:new    ;}
	.st7{opacity:0.54;fill:#606060;enable-background:new    ;}
	.st8{opacity:0.41;fill:#AFAFAF;enable-background:new    ;}
	.st9{fill:none;stroke:#6D6D6D;stroke-miterlimit:10;}
</style>
<g id="horizontal_1_">
	<path class="st0" d="M286.5,201.7h-229c-0.1,0-0.2-0.1-0.2-0.2c0-0.1,0.1-0.2,0.2-0.2h229c0.1,0,0.2,0.1,0.2,0.2
		S286.6,201.7,286.5,201.7z"/>
	<path class="st0" d="M275.4,182.5H68.6c-0.1,0-0.2-0.1-0.2-0.2c0-0.1,0.1-0.2,0.2-0.2h206.8c0.1,0,0.2,0.1,0.2,0.2
		C275.6,182.5,275.5,182.5,275.4,182.5z"/>
	<path class="st0" d="M264.4,163.4H79.7c-0.1,0-0.2-0.1-0.2-0.2c0-0.1,0.1-0.2,0.2-0.2h184.7c0.1,0,0.2,0.1,0.2,0.2
		C264.6,163.3,264.5,163.4,264.4,163.4z"/>
	<path class="st0" d="M253.3,144.2H90.8c-0.1,0-0.2-0.1-0.2-0.2s0.1-0.2,0.2-0.2h162.5c0.1,0,0.2,0.1,0.2,0.2
		S253.4,144.2,253.3,144.2z"/>
	<path class="st0" d="M242.2,125H101.8c-0.1,0-0.2-0.1-0.2-0.2c0-0.1,0.1-0.2,0.2-0.2h140.4c0.1,0,0.2,0.1,0.2,0.2
		C242.4,124.9,242.3,125,242.2,125z"/>
	<path class="st0" d="M220.1,86.7H124c-0.1,0-0.2-0.1-0.2-0.2s0.1-0.2,0.2-0.2h96.1c0.1,0,0.2,0.1,0.2,0.2S220.3,86.7,220.1,86.7z"
		/>
	<path class="st0" d="M231.3,105.8H112.9c-0.1,0-0.2-0.1-0.2-0.2s0.1-0.2,0.2-0.2h118.5c0.1,0,0.2,0.1,0.2,0.2
		S231.5,105.8,231.3,105.8z"/>
	<path class="st0" d="M209.1,67.5H135c-0.1,0-0.2-0.1-0.2-0.2s0.1-0.2,0.2-0.2h74.1c0.1,0,0.2,0.1,0.2,0.2S209.2,67.5,209.1,67.5z"
		/>
	<path class="st0" d="M198,48.3h-51.9c-0.1,0-0.2-0.1-0.2-0.2s0.1-0.2,0.2-0.2H198c0.1,0,0.2,0.1,0.2,0.2
		C198.2,48.2,198.1,48.3,198,48.3z"/>
	<path class="st0" d="M187.1,29.1h-30c-0.1,0-0.2-0.1-0.2-0.2c0-0.1,0.1-0.2,0.2-0.2h30c0.1,0,0.2,0.1,0.2,0.2
		C187.4,29,187.3,29.1,187.1,29.1z"/>
	<path class="st0" d="M175.9,10h-7.6c-0.1,0-0.2-0.1-0.2-0.2c0-0.1,0.1-0.2,0.2-0.2h7.6c0.1,0,0.2,0.1,0.2,0.2S176,10,175.9,10z"/>
</g>
<g id="left_tilt_1_">
	<g id="path5874_4_">
		<path class="st0" d="M55.5,205.9L55.5,205.9c-0.2-0.1-0.2-0.2-0.2-0.3l112.8-196c0.1-0.1,0.2-0.1,0.3-0.1c0.1,0.1,0.1,0.2,0.1,0.3
			l-112.7,196C55.7,205.9,55.6,205.9,55.5,205.9z"/>
	</g>
	<g id="path5961_4_">
		<path class="st0" d="M77.7,205.9L77.7,205.9c-0.2-0.1-0.2-0.2-0.2-0.3L179.1,28.8c0.1-0.1,0.2-0.1,0.3-0.1
			c0.1,0.1,0.1,0.2,0.1,0.3L77.9,205.8C77.8,205.8,77.8,205.9,77.7,205.9z"/>
	</g>
	<g id="path5963_4_">
		<path class="st0" d="M99.8,205.9L99.8,205.9c-0.2-0.1-0.2-0.2-0.2-0.3L190.2,48c0.1-0.1,0.2-0.1,0.3-0.1c0.1,0.1,0.1,0.2,0.1,0.3
			L100,205.8C100,205.9,99.9,205.9,99.8,205.9z"/>
	</g>
	<g id="path5965_4_">
		<path class="st0" d="M122,205.9L122,205.9c-0.2-0.1-0.2-0.2-0.2-0.3l79.5-138.4c0.1-0.1,0.2-0.1,0.3-0.1c0.1,0.1,0.1,0.2,0.1,0.3
			l-79.5,138.4C122.1,205.8,122.1,205.9,122,205.9z"/>
	</g>
	<g id="path5967_4_">
		<path class="st0" d="M144.1,205.9H144c-0.1-0.1-0.1-0.2-0.1-0.3l68.4-119.3c0.1-0.1,0.2-0.1,0.3-0.1c0.1,0.1,0.1,0.2,0.1,0.3
			l-68.4,119.3C144.3,205.9,144.2,205.9,144.1,205.9z"/>
	</g>
	<g id="path5969_4_">
		<path class="st0" d="M188.4,206h-0.1c-0.1-0.1-0.1-0.2-0.1-0.3l46.3-81c0.1-0.1,0.2-0.1,0.3-0.1c0.1,0.1,0.1,0.2,0.1,0.3l-46.3,81
			C188.5,205.9,188.4,206,188.4,206z"/>
	</g>
	<g id="path5971_4_">
		<path class="st0" d="M166.2,206.1h-0.1c-0.1-0.1-0.1-0.2-0.1-0.3l57.5-100.2c0.1-0.1,0.2-0.1,0.3-0.1c0.1,0.1,0.1,0.2,0.1,0.3
			L166.4,206C166.3,206.1,166.2,206.1,166.2,206.1z"/>
	</g>
	<g id="path5973_4_">
		<path class="st0" d="M210.5,206h-0.1c-0.1-0.1-0.1-0.2-0.1-0.3l35.3-61.8c0.1-0.1,0.2-0.1,0.3-0.1c0.1,0.1,0.1,0.2,0.1,0.3
			l-35.3,61.8C210.6,206,210.6,206,210.5,206z"/>
	</g>
	<g id="path5975_4_">
		<path class="st0" d="M232.7,206h-0.1c-0.1-0.1-0.1-0.2-0.1-0.3l24.2-42.6c0.1-0.1,0.2-0.1,0.3-0.1c0.1,0.1,0.1,0.2,0.1,0.3
			l-24.2,42.6C232.8,205.9,232.7,206,232.7,206z"/>
	</g>
	<g id="path5977_4_">
		<path class="st0" d="M254.7,206.2h-0.1c-0.1-0.1-0.1-0.2-0.1-0.3l13.2-23.6c0.1-0.1,0.2-0.1,0.3-0.1c0.1,0.1,0.1,0.2,0.1,0.3
			l-13.2,23.6C254.8,206.1,254.8,206.2,254.7,206.2z"/>
	</g>
	<g id="path5959_4_">
		<path class="st0" d="M276.9,206L276.9,206c-0.2-0.1-0.2-0.2-0.2-0.3l2-4.3c0-0.1,0.2-0.1,0.3-0.1s0.1,0.2,0.1,0.3l-2,4.3
			C277.1,205.9,277,206,276.9,206z"/>
	</g>
</g>
<g id="right_tilt_1_">
	<path class="st1" d="M279,201.7c-0.1,0-0.1,0-0.2-0.1L164.3,3.3c-0.1-0.1,0-0.2,0.1-0.3c0.1-0.1,0.2,0,0.3,0.1l114.4,198.3
		C279.2,201.5,279.1,201.6,279,201.7L279,201.7z"/>
	<path class="st1" d="M256.8,201.7c-0.1,0-0.1,0-0.2-0.1L153.3,22.5c-0.1-0.1,0-0.2,0.1-0.3c0.1-0.1,0.2,0,0.3,0.1l103.4,179.1
		c0.1,0.1,0,0.2-0.1,0.3C256.9,201.7,256.9,201.7,256.8,201.7z"/>
	<path class="st1" d="M234.7,201.7c-0.1,0-0.1,0-0.2-0.1L142.2,41.7c-0.1-0.1,0-0.2,0.1-0.3c0.1-0.1,0.2,0,0.3,0.1l92.3,160
		C235,201.6,234.9,201.7,234.7,201.7C234.8,201.7,234.7,201.7,234.7,201.7z"/>
	<path class="st1" d="M212.5,201.7c-0.1,0-0.1,0-0.2-0.1L131.1,60.9c-0.1-0.1,0-0.2,0.1-0.3c0.1-0.1,0.2,0,0.3,0.1l81.3,140.8
		c0.1,0.1,0,0.2-0.1,0.3C212.6,201.7,212.6,201.7,212.5,201.7z"/>
	<path class="st1" d="M190.4,201.7c-0.1,0-0.1,0-0.2-0.1L120,80c-0.1-0.1,0-0.2,0.1-0.3c0.1-0.1,0.2,0,0.3,0.1l70.2,121.6
		C190.7,201.5,190.6,201.6,190.4,201.7L190.4,201.7z"/>
	<path class="st1" d="M146.1,201.7c-0.1,0-0.1,0-0.2-0.1l-48.1-83.3c-0.1-0.1,0-0.2,0.1-0.3s0.2,0,0.3,0.1l48.1,83.3
		c0.1,0.1,0,0.2-0.1,0.3C146.2,201.7,146.1,201.7,146.1,201.7z"/>
	<path class="st1" d="M168.3,201.7c-0.1,0-0.1,0-0.2-0.1L108.8,99c-0.1-0.1,0-0.2,0.1-0.3c0.1-0.1,0.2,0,0.3,0.1l59.2,102.6
		C168.5,201.5,168.4,201.6,168.3,201.7L168.3,201.7z"/>
	<path class="st1" d="M124,201.7c-0.1,0-0.1,0-0.2-0.1l-37-64.2c-0.1-0.1,0-0.2,0.1-0.3s0.2,0,0.3,0.1l37,64.2
		c0.1,0.1,0,0.2-0.1,0.3C124,201.7,124,201.7,124,201.7z"/>
	<path class="st1" d="M101.8,201.7c-0.1,0-0.1,0-0.2-0.1l-25.9-45c-0.1-0.1,0-0.2,0.1-0.3s0.2,0,0.3,0.1l25.9,45
		C102.1,201.5,102,201.6,101.8,201.7C101.9,201.7,101.9,201.7,101.8,201.7z"/>
	<path class="st1" d="M79.7,201.7c-0.1,0-0.1,0-0.2-0.1l-15-26c-0.1-0.1,0-0.2,0.1-0.3s0.2,0,0.3,0.1l15,26
		C80,201.5,79.9,201.6,79.7,201.7C79.7,201.7,79.7,201.7,79.7,201.7z"/>
	<path class="st1" d="M57.5,201.7c-0.1,0-0.1,0-0.2-0.1l-3.8-6.6c-0.1-0.1,0-0.2,0.1-0.3c0.1-0.1,0.2,0,0.3,0.1l3.8,6.6
		C57.8,201.5,57.7,201.6,57.5,201.7C57.6,201.7,57.6,201.7,57.5,201.7z"/>
</g>
<g id="scale_marks_left_tilt" transform="translate(0.63738379,-0.67622858)">
	<text transform="matrix(1 0 0 1 171.5 8.1833)" class="st2 st3 st4">100</text>
	<text transform="matrix(1 0 0 1 226.8574 104.3454)" class="st2 st3 st4">50</text>
	<text transform="matrix(1 0 0 1 282.2169 199.947)" class="st2 st3 st4">0</text>
</g>
<g id="scale_marks_right_tilt" transform="rotate(60,130.36861,154.42683)">
	<text transform="matrix(1 0 0 1 10.9415 56.4269)" class="st2 st3 st4">0</text>
	<text transform="matrix(1 0 0 1 60.8172 148.7132)" class="st2 st3 st4">50</text>
	<text transform="matrix(1 0 0 1 110.9208 244.5963)" class="st2 st3 st4">100</text>
	<text transform="matrix(1 0 0 1 121.0046 260.5071)" class="st2 st3 st4">%</text>
</g>
<g id="scale_marks-_horizontal" transform="rotate(-60,168.50724,246.26774)">
	<text transform="matrix(1 0 0 1 244.1354 322.462)" class="st2 st3 st4">100</text>
	<text transform="matrix(1 0 0 1 188.6523 227.1945)" class="st2 st3 st4">50</text>
	<text transform="matrix(1 0 0 1 135.7686 132.9157)" class="st2 st3 st4">0</text>
</g>
<g>
	<g>
		<defs>
			<polygon id="SVGID_1_" points="168,10 57.3,201.7 278.8,201.7 			"/>
		</defs>
		<clipPath id="SVGID_2_">
			<use xlink:href="#SVGID_1_"  style="overflow:visible;"/>
		</clipPath>
		<g id="Isolines" class="st5">
			<path class="st6" d="M202.9,92.5c8.7,24.6,20.4,73.4-3.1,82.5s-17.9-16.3-26.6-40.9c-8.7-24.6-45.5-56.6-22-65.6
				S194.2,67.9,202.9,92.5z"/>
			<path class="st7" d="M242.2,90.8c16.8,45.8,19.5,86.5-26.2,103.4s-66.3-16.9-83.2-62.6s-49.8-76.3-4-93.1S225.4,45,242.2,90.8z"
				/>
			<path class="st7" d="M244.7,105.9c19.1,51.8,37,89.4-14.9,108.5s-111.9,0-131-51.8s-34.3-97,17.5-116S225.6,54,244.7,105.9z"/>
			<path class="st8" d="M219.2,85.7c22.4,60.9,85,96.7,59.5,115.9c-51.9,38.9-198.7,60.9-221.1,0S57.9,33.4,118.8,11
				S196.8,24.8,219.2,85.7z"/>
		</g>
	</g>
</g>
<polygon class="st9" points="168,10 57.3,201.7 278.8,201.7 "/>
</svg>
