<?xml version="1.0" encoding="utf-8"?>
<!-- Generator: Adobe Illustrator 24.0.1, SVG Export Plug-In . SVG Version: 6.00 Build 0)  -->
<svg version="1.1" id="Layer_1" xmlns="http://www.w3.org/2000/svg" xmlns:xlink="http://www.w3.org/1999/xlink" x="0px" y="0px"
	 viewBox="0 0 320.7 222" style="enable-background:new 0 0 320.7 222;" xml:space="preserve">
<style type="text/css">
	.st0{display:none;}
	.st1{display:inline;}
	.st2{fill:#D1D1D1;}
	.st3{fill:#AAAAAA;}
	.st4{font-family:'Roboto-Regular';}
	.st5{font-size:7.4915px;}
	.st6{fill:none;stroke:#6D6D6D;stroke-miterlimit:10;}
	.st7{opacity:0.76;fill:#606060;}
	.st8{opacity:0.76;fill:#9B9B9B;}
</style>
<g id="left_tilt_1_" class="st0">
	<g id="path5874_4_" class="st1">
		<path class="st2" d="M54.7,208.2h-0.1c-0.1-0.1-0.1-0.2-0.1-0.3l112.8-196c0.1-0.1,0.2-0.1,0.3-0.1c0.1,0.1,0.1,0.2,0.1,0.3
			L55,208.1C54.9,208.2,54.8,208.2,54.7,208.2z"/>
	</g>
	<g id="path5961_4_" class="st1">
		<path class="st2" d="M76.9,208.2L76.9,208.2c-0.2-0.1-0.2-0.2-0.2-0.3L178.3,31.1c0.1-0.1,0.2-0.1,0.3-0.1
			c0.1,0.1,0.1,0.2,0.1,0.3L77.1,208.1C77,208.1,77,208.2,76.9,208.2z"/>
	</g>
	<g id="path5963_4_" class="st1">
		<path class="st2" d="M99,208.2L99,208.2c-0.2-0.1-0.2-0.2-0.2-0.3l90.6-157.6c0.1-0.1,0.2-0.1,0.3-0.1c0.1,0.1,0.1,0.2,0.1,0.3
			L99.2,208.1C99.2,208.2,99.1,208.2,99,208.2z"/>
	</g>
	<g id="path5965_4_" class="st1">
		<path class="st2" d="M121.2,208.2L121.2,208.2c-0.2-0.1-0.2-0.2-0.2-0.3l79.5-138.4c0.1-0.1,0.2-0.1,0.3-0.1
			c0.1,0.1,0.1,0.2,0.1,0.3l-79.5,138.4C121.3,208.1,121.3,208.2,121.2,208.2z"/>
	</g>
	<g id="path5967_4_" class="st1">
		<path class="st2" d="M143.3,208.2L143.3,208.2c-0.2-0.1-0.2-0.2-0.2-0.3l68.4-119.3c0.1-0.1,0.2-0.1,0.3-0.1
			c0.1,0.1,0.1,0.2,0.1,0.3l-68.4,119.3C143.5,208.2,143.4,208.2,143.3,208.2z"/>
	</g>
	<g id="path5969_4_" class="st1">
		<path class="st2" d="M187.6,208.3h-0.1c-0.1-0.1-0.1-0.2-0.1-0.3l46.3-81c0.1-0.1,0.2-0.1,0.3-0.1c0.1,0.1,0.1,0.2,0.1,0.3
			l-46.3,81C187.7,208.2,187.6,208.3,187.6,208.3z"/>
	</g>
	<g id="path5971_4_" class="st1">
		<path class="st2" d="M165.4,208.4h-0.1c-0.1-0.1-0.1-0.2-0.1-0.3l57.5-100.2c0.1-0.1,0.2-0.1,0.3-0.1c0.1,0.1,0.1,0.2,0.1,0.3
			l-57.5,100.2C165.5,208.4,165.4,208.4,165.4,208.4z"/>
	</g>
	<g id="path5973_4_" class="st1">
		<path class="st2" d="M209.7,208.3h-0.1c-0.1-0.1-0.1-0.2-0.1-0.3l35.3-61.8c0.1-0.1,0.2-0.1,0.3-0.1c0.1,0.1,0.1,0.2,0.1,0.3
			l-35.3,61.8C209.8,208.3,209.8,208.3,209.7,208.3z"/>
	</g>
	<g id="path5975_4_" class="st1">
		<path class="st2" d="M231.9,208.3h-0.1c-0.1-0.1-0.1-0.2-0.1-0.3l24.2-42.6c0.1-0.1,0.2-0.1,0.3-0.1c0.1,0.1,0.1,0.2,0.1,0.3
			l-24.2,42.6C232,208.2,231.9,208.3,231.9,208.3z"/>
	</g>
	<g id="path5977_4_" class="st1">
		<path class="st2" d="M253.9,208.5h-0.1c-0.1-0.1-0.1-0.2-0.1-0.3l13.2-23.6c0.1-0.1,0.2-0.1,0.3-0.1c0.1,0.1,0.1,0.2,0.1,0.3
			l-13.2,23.6C254,208.4,254,208.5,253.9,208.5z"/>
	</g>
	<g id="path5959_4_" class="st1">
		<path class="st2" d="M276.1,208.3L276.1,208.3c-0.2-0.1-0.2-0.2-0.2-0.3l2-4.3c0-0.1,0.2-0.1,0.3-0.1s0.1,0.2,0.1,0.3l-2,4.3
			C276.3,208.2,276.2,208.3,276.1,208.3z"/>
	</g>
</g>
<g id="scale_marks_left_tilt" transform="translate(0.63738379,-0.67622858)">
	<text transform="matrix(1 0 0 1 170.7816 10.5102)" class="st3 st4 st5">100</text>
	<text transform="matrix(1 0 0 1 226.139 106.6723)" class="st3 st4 st5">50</text>
	<text transform="matrix(1 0 0 1 281.4984 202.2739)" class="st3 st4 st5">0</text>
</g>
<g id="scale_marks_right_tilt" transform="rotate(60,130.36861,154.42683)">
	<text transform="matrix(1 0 0 1 12.3654 54.6145)" class="st3 st4 st5">0</text>
	<text transform="matrix(1 0 0 1 62.4731 150.4988)" class="st3 st4 st5">50</text>
	<text transform="matrix(1 0 0 1 112.5767 246.3819)" class="st3 st4 st5">100</text>
	<text transform="matrix(1 0 0 1 122.6605 262.2928)" class="st3 st4 st5">%</text>
</g>
<g id="scale_marks-_horizontal" transform="rotate(-60,168.50724,246.26774)">
	<text transform="matrix(1 0 0 1 241.761 323.0033)" class="st3 st4 st5">100</text>
	<text transform="matrix(1 0 0 1 186.2778 227.7358)" class="st3 st4 st5">50</text>
	<text transform="matrix(1 0 0 1 133.3942 133.457)" class="st3 st4 st5">0</text>
</g>
<polygon class="st6" points="167.2,12.3 56.5,204 278,204 "/>
<g id="scatter_plot_marks">
	<circle class="st7" cx="226.1" cy="175.3" r="1.8"/>
	<circle class="st7" cx="218.5" cy="147.5" r="1.8"/>
	<circle class="st7" cx="219.5" cy="156.3" r="1.8"/>
	<circle class="st7" cx="223" cy="143.9" r="1.8"/>
	<circle class="st7" cx="170.1" cy="177" r="1.8"/>
	<circle class="st7" cx="189.5" cy="173.5" r="1.8"/>
	<circle class="st7" cx="137.1" cy="190.9" r="1.8"/>
	<circle class="st7" cx="104.5" cy="197.1" r="1.8"/>
	<circle class="st7" cx="115.9" cy="187.7" r="1.8"/>
	<circle class="st7" cx="170.1" cy="145.6" r="1.8"/>
	<circle class="st7" cx="197.9" cy="80.4" r="1.8"/>
	<circle class="st7" cx="184.6" cy="97.8" r="1.8"/>
	<circle class="st7" cx="179.4" cy="152.6" r="1.8"/>
	<circle class="st7" cx="147.1" cy="170.5" r="1.8"/>
	<circle class="st7" cx="212.1" cy="130.6" r="1.8"/>
	<circle class="st7" cx="229.8" cy="130.2" r="1.8"/>
	<circle class="st7" cx="214.8" cy="138.9" r="1.8"/>
	<circle class="st7" cx="170.8" cy="169.4" r="1.8"/>
	<circle class="st7" cx="189" cy="162" r="1.8"/>
	<circle class="st7" cx="158.2" cy="82.2" r="1.8"/>
	<circle class="st7" cx="179.4" cy="124.3" r="1.8"/>
	<circle class="st7" cx="196.1" cy="146.9" r="1.8"/>
</g>
<g id="scatter_plot_marks_1_">
	<circle class="st8" cx="141.6" cy="115.2" r="1.9"/>
	<circle class="st8" cx="122" cy="132.8" r="1.9"/>
	<circle class="st8" cx="140.6" cy="96.1" r="1.9"/>
	<circle class="st8" cx="191.3" cy="86.5" r="1.9"/>
	<circle class="st8" cx="161.4" cy="126.1" r="1.9"/>
	<circle class="st8" cx="131.6" cy="196.3" r="1.9"/>
	<circle class="st8" cx="145.9" cy="177.6" r="1.9"/>
	<circle class="st8" cx="151.4" cy="118.7" r="1.9"/>
	<circle class="st8" cx="157.7" cy="104.9" r="1.9"/>
	<circle class="st8" cx="129.8" cy="110.5" r="1.9"/>
	<circle class="st8" cx="127.4" cy="130.2" r="1.9"/>
	<circle class="st8" cx="117.5" cy="159.5" r="1.9"/>
	<circle class="st8" cx="104" cy="146" r="1.9"/>
	<circle class="st8" cx="111.9" cy="151.4" r="1.9"/>
	<circle class="st8" cx="111.8" cy="134.5" r="1.9"/>
	<circle class="st8" cx="121.9" cy="151.1" r="1.9"/>
	<circle class="st8" cx="167.7" cy="133.6" r="1.9"/>
	<circle class="st8" cx="174.2" cy="194.4" r="1.9"/>
	<circle class="st8" cx="151.4" cy="149.1" r="1.9"/>
	<circle class="st8" cx="156.4" cy="128.3" r="1.9"/>
	<circle class="st8" cx="171.8" cy="99.3" r="1.9"/>
</g>
</svg>
