<?xml version="1.0" encoding="utf-8"?>
<!-- Generator: Adobe Illustrator 22.1.0, SVG Export Plug-In . SVG Version: 6.00 Build 0)  -->
<svg version="1.1" id="Layer_1" xmlns="http://www.w3.org/2000/svg" xmlns:xlink="http://www.w3.org/1999/xlink" x="0px" y="0px"
	 viewBox="0 0 1200 1200" style="enable-background:new 0 0 1200 1200;" xml:space="preserve">
<style type="text/css">
	.st0{fill:#7F7F7F;}
	.st1{font-family:'RobotoMono-Regular';}
	.st2{font-size:60px;}
	.st3{font-size:70.3221px;}
	.st4{fill:none;stroke:#AFAFAF;stroke-width:4;stroke-linecap:round;stroke-miterlimit:10;}
	.st5{fill:none;stroke:#AFAFAF;stroke-width:4;stroke-linecap:round;stroke-miterlimit:10;stroke-dasharray:0,9.4281;}
	.st6{fill:none;stroke:#AFAFAF;stroke-width:4;stroke-linecap:round;stroke-miterlimit:10;stroke-dasharray:0,9.9699;}
	.st7{fill:none;stroke:#AFAFAF;stroke-width:4;stroke-linecap:round;stroke-miterlimit:10;stroke-dasharray:0,9.2735;}
	.st8{fill:none;stroke:#AFAFAF;stroke-width:4;stroke-linecap:round;stroke-miterlimit:10;stroke-dasharray:0,9.4667;}
	.st9{fill:#F2F2F2;}
	.st10{fill:#BABABA;}
	.st11{fill:none;stroke:#AFAFAF;stroke-width:4;stroke-linecap:round;stroke-miterlimit:10;stroke-dasharray:0,9.9536;}
	.st12{fill:none;stroke:#BABABA;stroke-width:12;stroke-miterlimit:10;}
	.st13{fill:#514361;}
	.st14{font-family:'Roboto-Italic';}
	.st15{font-size:28px;}
</style>
<g>
	<text transform="matrix(1 0 0 1 537.8 77.104)" class="st0 st1 st2">flow line</text>
</g>
<g>
	<text transform="matrix(1 0 0 1 1065.4004 589.6069)" class="st0 st1 st3">map</text>
</g>
<g>
	<g>
		<line class="st4" x1="953.8" y1="95.7" x2="953.8" y2="95.7"/>
		<line class="st5" x1="963.3" y1="95.7" x2="1015.1" y2="95.7"/>
		<line class="st4" x1="1019.8" y1="95.7" x2="1019.8" y2="95.7"/>
		<line class="st6" x1="1019.8" y1="105.7" x2="1019.8" y2="1017.9"/>
		<line class="st4" x1="1019.8" y1="1022.9" x2="1019.8" y2="1022.9"/>
		<line class="st7" x1="1010.6" y1="1022.9" x2="959.6" y2="1022.9"/>
		<line class="st4" x1="954.9" y1="1022.9" x2="954.9" y2="1022.9"/>
	</g>
</g>
<g>
	<g>
		<line class="st4" x1="1019.8" y1="573.9" x2="1019.8" y2="573.9"/>
		<line class="st8" x1="1029.3" y1="573.9" x2="1053" y2="573.9"/>
		<line class="st4" x1="1057.7" y1="573.9" x2="1057.7" y2="573.9"/>
	</g>
</g>
<g>
	<polygon class="st9" points="304.1,399.5 307,314.9 247.4,292.9 167.8,334.6 129.1,310.1 86.5,304.6 49.3,318.9 25.2,321.3 
		7.2,357.5 45.1,471.4 76.2,493.7 90.9,525.9 155,519.1 178.5,557.3 236.9,551.1 257.8,499.7 317.1,483.8 325.2,420.6 	"/>
	<polygon class="st9" points="677.6,662.4 687.9,748.5 655.1,808.2 679,832.2 671.2,941.8 705.8,968.4 748.4,966.6 832.2,841.9 
		832.2,797.8 877.3,764.7 913.4,688.7 913.4,657.4 940.8,630 891.1,578.6 829.8,554.4 764.3,549.8 738.8,582.9 738.8,582.9 
		705.9,625.7 	"/>
	<polygon class="st9" points="364.8,542.5 426,603.7 492.4,583.6 503.4,565.4 540.8,558.6 587.9,615.1 587.9,637.1 629.6,655.4 
		648.7,645.1 670.8,654.8 680.5,642.1 729.3,578.8 678.7,539.4 641.9,464.4 546.1,373 562.8,335 546.8,292.8 587.6,157.4 
		515.9,124.4 494.1,92.4 469.6,97 434,98.8 401,201.6 398.3,225.7 341.2,265.6 317.1,312.7 314.3,395.5 335.8,417 327,485.8 
		364.8,520.8 	"/>
	<polygon class="st9" points="630.1,666.5 577.8,643.6 577.8,618.7 536.8,569.5 509.7,574.5 499,592.1 423.2,615 354.8,546.7 
		354.8,525.2 320.3,493.3 265.2,508.1 246,555.5 267.8,597.1 231.9,652.4 260.7,690.1 244.6,707.3 247.4,754.7 268.8,787.8 
		283.1,894.9 352.2,907.6 382.2,892.6 408.4,935.5 439.4,952 435.5,1013.5 495.5,1025.6 519.9,990.6 578.6,998.3 604,930.8 
		661.4,938.5 668.7,836 642.7,810 677.5,746.5 667.7,664.4 649.1,656.2 	"/>
	<polygon class="st9" points="759.6,539.4 832,544.4 891,567.7 929.6,457.3 904.5,407 933.3,378.3 928.9,335.1 973.3,276.5 
		944.8,249.6 858.9,248.7 836.1,259.6 775.9,194.4 739.8,185.1 654.3,185.1 627.6,195.7 596,164.1 557.4,292.4 573.6,335.3 
		558.1,370.6 650.1,458.3 686.7,532.9 735.4,570.8 	"/>
</g>
<circle class="st10" cx="182.2" cy="412" r="18.8"/>
<g>
	<g>
		<line class="st4" x1="655.1" y1="372.7" x2="655.1" y2="372.7"/>
		<line class="st11" x1="706" y1="373.9" x2="706" y2="122"/>
	</g>
</g>
<g>
	<g>
		<line class="st4" x1="521.8" y1="884.2" x2="521.8" y2="884.2"/>
		<line class="st11" x1="572.7" y1="1062" x2="572.7" y2="633.5"/>
	</g>
</g>
<g>
	<g>
		<line class="st4" x1="454.7" y1="272.7" x2="454.7" y2="272.7"/>
		<line class="st11" x1="454.7" y1="262.7" x2="706" y2="122"/>
	</g>
</g>
<g>
	<path class="st10" d="M182.2,412c9.8-10.7,20.4-20.7,31.1-30.4c10.8-9.7,21.9-19.1,33.3-28.1c22.8-18,46.7-34.7,72-49.4
		c6.3-3.6,12.7-7.2,19.2-10.6c6.5-3.3,13.1-6.6,19.7-9.6c6.7-3,13.4-5.8,20.3-8.4c3.4-1.3,6.9-2.5,10.4-3.7c3.5-1.1,7-2.2,10.5-3.2
		c14.1-4,28.7-6.9,43.4-7.5c7.4-0.3,14.7-0.1,22,0.8c1.8,0.3,3.6,0.5,5.4,0.9c1.8,0.4,3.6,0.7,5.4,1.1l5.3,1.4
		c1.7,0.6,3.5,1.2,5.2,1.8c-14.3-2.8-28.7-2.7-42.8-0.6c-14.1,2-27.9,5.7-41.3,10.4c-13.4,4.7-26.6,10.3-39.4,16.5
		c-12.9,6.2-25.5,13-37.8,20.2c-24.8,14.4-48.8,30.2-72.3,46.8C228.2,376.9,205.1,394.2,182.2,412z"/>
</g>
<g>
	<path class="st10" d="M182.2,412c1.6,4.4,3.3,8.7,5.1,13c1.8,4.3,3.6,8.6,5.4,12.8c3.8,8.5,7.5,17,11.6,25.3
		c2,4.2,4.1,8.3,6.1,12.5c2.1,4.1,4.2,8.3,6.3,12.4c2.2,4.1,4.3,8.2,6.5,12.3c2.2,4.1,4.4,8.1,6.7,12.2
		c18.1,32.3,38.4,63.3,60.6,92.8l8.5,11l2.1,2.7l2.2,2.7l4.4,5.4l4.4,5.4c1.4,1.8,3,3.5,4.5,5.3l9,10.5c6.2,6.8,12.3,13.8,18.8,20.4
		l4.8,5c1.6,1.7,3.2,3.4,4.8,5l9.9,9.8l2.5,2.4l2.5,2.4l5.1,4.7l5.1,4.7l2.5,2.4l2.6,2.3l10.4,9.2l2.6,2.3c0.9,0.8,1.8,1.5,2.7,2.2
		l5.4,4.4c14.1,12.1,29.2,22.9,44.2,34.1c-16.3-9-32.3-18.8-47.5-29.8l-5.7-4.1c-0.9-0.7-1.9-1.4-2.8-2.1l-2.8-2.1l-11.1-8.6
		l-2.8-2.2l-2.7-2.3l-5.4-4.5l-5.4-4.5c-0.9-0.8-1.8-1.5-2.7-2.3l-2.6-2.4l-10.4-9.5c-1.8-1.6-3.4-3.2-5.1-4.9l-5-4.9l-5-4.9
		c-0.8-0.8-1.7-1.6-2.5-2.5l-2.4-2.6l-9.7-10.2c-3.1-3.5-6.2-7-9.3-10.5c-1.5-1.8-3.1-3.5-4.6-5.3l-4.5-5.4l-4.5-5.4l-2.2-2.7
		l-2.2-2.8l-8.7-11.1c-22.6-30-42.6-61.9-59.4-95.4c-8.5-16.7-16.1-33.8-23-51.2l-2.5-6.6l-2.4-6.6c-0.8-2.2-1.6-4.4-2.3-6.6
		c-0.8-2.2-1.5-4.4-2.2-6.6C187,430,184.3,421.1,182.2,412z"/>
</g>
<g>
	<path class="st10" d="M182.2,412c13.8,3.7,27.3,8.1,40.7,12.7c6.7,2.3,13.4,4.7,20,7.1c6.6,2.4,13.2,5,19.9,7.5
		c13.2,5,26.3,10.4,39.3,15.8c13,5.5,25.9,11.2,38.8,16.9c51.4,23.3,101.5,49.2,150.6,77l18.3,10.6c6.1,3.6,12.2,7.1,18.2,10.7
		c12,7.4,24.1,14.7,36,22.3l8.9,5.6c3,1.9,5.9,3.9,8.9,5.8c5.9,3.9,11.8,7.8,17.6,11.7c11.7,7.9,23.5,15.7,34.9,24.1
		c11.5,8.2,22.9,16.6,34.2,25.1l4.2,3.2l4.2,3.3l8.3,6.6c5.5,4.4,11.1,8.8,16.6,13.3c5.5,4.5,11,9,16.4,13.5c2.7,2.3,5.4,4.6,8,7
		c2.7,2.3,5.3,4.7,8,7.1c10.6,9.5,21,19.1,31.1,29.1c-26.2-11.5-51-24.8-76.2-37.4c-6.3-3.2-12.5-6.4-18.7-9.7
		c-6.2-3.3-12.3-6.6-18.6-9.8c-12.5-6.5-24.8-13-37.1-19.7c-49.4-26.4-98-53.8-146.6-81.4c-48.5-27.7-96.7-56-144.5-85.3
		c-12-7.3-23.9-14.7-35.8-22.2c-11.9-7.4-23.7-15.1-35.5-22.7c-11.8-7.7-23.6-15.4-35.3-23.4C205.4,428.5,193.7,420.5,182.2,412z"/>
</g>
<path class="st12" d="M182.2,412c0,0,429.6-119.1,603.6,0"/>
<polygon class="st10" points="796.9,430.4 736.2,433.1 786.1,370.6 "/>
<text transform="matrix(1 0 0 1 535.7999 113.0682)" class="st13 st14 st15">can be both directional and not </text>
<g>
	<text transform="matrix(1 0 0 1 375.7002 1124.9177)" class="st0 st1 st2">line weight</text>
</g>
<text transform="matrix(1 0 0 1 373.7001 1176.8818)" class="st13 st14 st15">the width shows the volume of flow</text>
</svg>
