<?xml version="1.0" encoding="utf-8"?>
<!-- Generator: Adobe Illustrator 24.0.1, SVG Export Plug-In . SVG Version: 6.00 Build 0)  -->
<svg version="1.1" id="Layer_1" xmlns="http://www.w3.org/2000/svg" xmlns:xlink="http://www.w3.org/1999/xlink" x="0px" y="0px"
	 viewBox="0 0 1200 582.1" style="enable-background:new 0 0 1200 582.1;" xml:space="preserve">
<style type="text/css">
	.st0{fill:#514361;}
	.st1{font-family:'RobotoMono-Regular';}
	.st2{font-size:36.6428px;}
	.st3{fill:none;stroke:#AFAFAF;stroke-width:4;stroke-linecap:round;stroke-miterlimit:10;}
	.st4{fill:none;stroke:#AFAFAF;stroke-width:4;stroke-linecap:round;stroke-miterlimit:10;stroke-dasharray:0,11.0882;}
	.st5{fill:none;stroke:#AFAFAF;stroke-width:4;stroke-linecap:round;stroke-miterlimit:10;stroke-dasharray:0,10.0067;}
	.st6{fill:none;stroke:#AFAFAF;stroke-width:4;stroke-linecap:round;stroke-miterlimit:10;stroke-dasharray:0,11.0876;}
	.st7{fill:none;stroke:#AFAFAF;stroke-width:4;stroke-linecap:round;stroke-miterlimit:10;stroke-dasharray:0,9.9536;}
	.st8{fill:#AFAFAF;}
	.st9{fill:#2F2654;fill-opacity:0;stroke:#878787;stroke-width:4;stroke-linejoin:round;stroke-miterlimit:14;}
	.st10{fill:#212121;fill-opacity:0;stroke:#878787;stroke-width:4;stroke-linejoin:round;stroke-miterlimit:14;}
	.st11{fill:#D1CDC9;}
	.st12{font-family:'RobotoCondensed-Regular';}
	.st13{font-size:34.6456px;}
	.st14{fill:none;}
	.st15{fill:#ADA9A5;}
</style>
<g>
	<g>
		<g>
			<g>
				<g>
					<g>
						<g>
							<text transform="matrix(0.9552 0 0 1 448.6566 59.6333)" class="st0 st1 st2">frequency of a value occuring</text>
						</g>
					</g>
					<g>
						<g>
							<text transform="matrix(0.9552 0 0 1 345.6046 450.6959)" class="st0 st1 st2">categorical or numeric axis</text>
						</g>
					</g>
					<g>
						<g>
							<text transform="matrix(0.9552 0 0 1 28.0051 565.5723)" class="st0 st1 st2">a single observation</text>
						</g>
					</g>
					<g>
						<g>
							<line class="st3" x1="148" y1="110.7" x2="148" y2="110.7"/>
							<line class="st4" x1="148.1" y1="99.6" x2="148.2" y2="94.1"/>
							<line class="st3" x1="148.3" y1="88.5" x2="148.3" y2="88.5"/>
							<line class="st5" x1="158.3" y1="88.5" x2="1075" y2="88.5"/>
							<line class="st3" x1="1080.1" y1="88.5" x2="1080.1" y2="88.5"/>
							<line class="st6" x1="1079.9" y1="99.6" x2="1079.9" y2="105.1"/>
							<line class="st3" x1="1079.8" y1="110.7" x2="1079.8" y2="110.7"/>
						</g>
					</g>
				</g>
			</g>
		</g>
	</g>
</g>
<g>
	<g>
		<line class="st7" x1="955.5" y1="438.5" x2="1078.8" y2="438.5"/>
		<g>
			<polygon class="st8" points="1075.9,448.5 1093.2,438.5 1075.9,428.5 			"/>
		</g>
	</g>
</g>
<path class="st9" d="M543,306.2v-168"/>
<path class="st9" d="M1029.2,306.2v-168"/>
<path class="st9" d="M988.9,306.2v-168"/>
<path class="st9" d="M803.4,306.2v-168"/>
<path class="st9" d="M858.2,306.2v-168"/>
<path class="st9" d="M691.2,306.2v-168"/>
<path class="st9" d="M975.1,306.2v-168"/>
<path class="st9" d="M714.4,306.2v-168"/>
<path class="st9" d="M722.6,306.2v-168"/>
<path class="st9" d="M699.4,306.2v-168"/>
<path class="st9" d="M694.3,306.2v-168"/>
<path class="st9" d="M730.7,306.2v-168"/>
<path class="st9" d="M953,306.2v-168"/>
<path class="st9" d="M817.1,306.2v-168"/>
<path class="st9" d="M961.4,306.2v-168"/>
<path class="st9" d="M806.4,306.2v-168"/>
<path class="st9" d="M911.1,306.2v-168"/>
<path class="st9" d="M980.7,306.2v-168"/>
<path class="st9" d="M280,306.2v-168"/>
<path class="st9" d="M678.4,306.2v-168"/>
<path class="st9" d="M1044.3,306.2v-168"/>
<path class="st9" d="M960,306.2v-168"/>
<path class="st9" d="M701.4,306.2v-168"/>
<path class="st9" d="M1068.1,306.2v-168"/>
<path class="st9" d="M697.9,306.2v-168"/>
<path class="st9" d="M814,306.2v-168"/>
<path class="st9" d="M899.5,306.2v-168"/>
<path class="st9" d="M689.2,306.2v-168"/>
<path class="st9" d="M858.8,306.2v-168"/>
<path class="st9" d="M714.6,306.2v-168"/>
<path class="st9" d="M279.7,306.2v-168"/>
<path class="st9" d="M283.2,306.2v-168"/>
<path class="st9" d="M174.9,306.2v-168"/>
<path class="st9" d="M397.3,306.2v-168"/>
<path class="st9" d="M211,306.2v-168"/>
<path class="st9" d="M154.6,306.2v-168"/>
<path class="st9" d="M469.1,306.2v-168"/>
<path class="st9" d="M319.9,306.2v-168"/>
<path class="st9" d="M296,306.2v-168"/>
<path class="st9" d="M840,306.2v-168"/>
<path class="st9" d="M1036.8,306.2v-168"/>
<path class="st9" d="M512.3,306.2v-168"/>
<path class="st9" d="M955.5,306.2v-168"/>
<path class="st9" d="M986.5,306.2v-168"/>
<path class="st9" d="M579.9,306.2v-168"/>
<path class="st9" d="M911,306.2v-168"/>
<path class="st9" d="M912,306.2v-168"/>
<path class="st9" d="M1065.1,306.2v-168"/>
<path class="st9" d="M715.3,306.2v-168"/>
<path class="st9" d="M285.4,306.2v-168"/>
<path class="st9" d="M726.3,306.2v-168"/>
<path class="st9" d="M871.9,306.2v-168"/>
<path class="st9" d="M522.9,306.2v-168"/>
<path class="st9" d="M895.6,306.2v-168"/>
<path class="st9" d="M918.4,306.2v-168"/>
<path class="st9" d="M704.5,306.2v-168"/>
<path class="st9" d="M876,306.2v-168"/>
<path class="st9" d="M715.4,306.2v-168"/>
<path class="st9" d="M686.1,306.2v-168"/>
<path class="st9" d="M703.8,306.2v-168"/>
<path class="st9" d="M711,306.2v-168"/>
<path class="st9" d="M781.9,306.2v-168"/>
<path class="st9" d="M715.8,306.2v-168"/>
<path class="st9" d="M990.2,306.2v-168"/>
<path class="st9" d="M430.2,306.2v-168"/>
<path class="st9" d="M524.7,306.2v-168"/>
<path class="st9" d="M688.5,306.2v-168"/>
<path class="st9" d="M288.2,306.2v-168"/>
<path class="st9" d="M670.4,306.2v-168"/>
<path class="st9" d="M1071.5,306.2v-168"/>
<path class="st9" d="M933.9,306.2v-168"/>
<path class="st9" d="M815.6,306.2v-168"/>
<path class="st9" d="M909,306.2v-168"/>
<path class="st9" d="M678.4,306.2v-168"/>
<path class="st9" d="M713.4,306.2v-168"/>
<path class="st9" d="M1057.9,306.2v-168"/>
<path class="st9" d="M979.2,306.2v-168"/>
<path class="st9" d="M749.7,306.2v-168"/>
<path class="st9" d="M536.6,306.2v-168"/>
<path class="st9" d="M655.2,306.2v-168"/>
<path class="st9" d="M328.7,306.2v-168"/>
<path class="st9" d="M310,306.2v-168"/>
<path class="st9" d="M496.1,306.2v-168"/>
<path class="st9" d="M914.1,306.2v-168"/>
<path class="st9" d="M1011.6,306.2v-168"/>
<path class="st9" d="M1019.9,306.2v-168"/>
<path class="st9" d="M853.3,306.2v-168"/>
<path class="st9" d="M754.4,306.2v-168"/>
<path class="st9" d="M610.9,306.2v-168"/>
<path class="st9" d="M164.8,306.2v-168"/>
<path class="st9" d="M783.5,306.2v-168"/>
<path class="st9" d="M829.4,306.2v-168"/>
<path class="st9" d="M315.1,306.2v-168"/>
<path class="st9" d="M809.2,306.2v-168"/>
<path class="st9" d="M1058.3,306.2v-168"/>
<path class="st9" d="M902.6,306.2v-168"/>
<path class="st9" d="M178.8,306.2v-168"/>
<path class="st9" d="M709.2,306.2v-168"/>
<path class="st9" d="M297.3,306.2v-168"/>
<path class="st9" d="M954.4,306.2v-168"/>
<path class="st9" d="M295.4,306.2v-168"/>
<path class="st9" d="M519.6,306.2v-168"/>
<path class="st9" d="M427.8,306.2v-168"/>
<path class="st9" d="M721.3,306.2v-168"/>
<path class="st9" d="M755.5,306.2v-168"/>
<path class="st9" d="M402.9,306.2v-168"/>
<path class="st9" d="M187.5,306.2v-168"/>
<path class="st9" d="M402,306.2v-168"/>
<path class="st9" d="M386,306.2v-168"/>
<path class="st9" d="M389,306.2v-168"/>
<path class="st9" d="M428.2,306.2v-168"/>
<path class="st9" d="M686.4,306.2v-168"/>
<path class="st9" d="M685.7,306.2v-168"/>
<path class="st9" d="M1039.7,306.2v-168"/>
<path class="st9" d="M1073.5,306.2v-168"/>
<path class="st9" d="M904.7,306.2v-168"/>
<path class="st9" d="M706.9,306.2v-168"/>
<path class="st9" d="M1052.4,306.2v-168"/>
<path class="st9" d="M867.4,306.2v-168"/>
<path class="st9" d="M512.7,306.2v-168"/>
<path class="st9" d="M524.6,306.2v-168"/>
<path class="st9" d="M565.8,138.2"/>
<path class="st9" d="M565.8,306.2"/>
<path class="st9" d="M583.2,306.2v-168"/>
<path class="st9" d="M600.1,306.2v-168"/>
<path class="st9" d="M679.8,306.2v-168"/>
<path class="st9" d="M925.9,306.2v-168"/>
<path class="st9" d="M689.7,306.2v-168"/>
<path class="st9" d="M535.8,306.2v-168"/>
<path class="st9" d="M153.2,306.2v-168"/>
<path class="st9" d="M650.1,306.2v-168"/>
<path class="st9" d="M1058.4,306.2v-168"/>
<path class="st9" d="M902.3,306.2v-168"/>
<path class="st10" d="M387.4,306.2v-168"/>
<g>
	<g>
		<text transform="matrix(1 0 0 1 139.1292 363.3417)" class="st11 st12 st13">Jan</text>
	</g>
</g>
<g>
	<g>
		<text transform="matrix(1 0 0 1 356.4065 363.3417)" class="st11 st12 st13">Feb</text>
	</g>
</g>
<g>
	<g>
		<text transform="matrix(1 0 0 1 573.6233 363.3417)" class="st11 st12 st13">Mar</text>
	</g>
</g>
<g>
	<g>
		<text transform="matrix(1 0 0 1 790.9045 363.3417)" class="st11 st12 st13">Apr</text>
	</g>
</g>
<g>
	<g>
		<text transform="matrix(1 0 0 1 1008.1223 363.3417)" class="st11 st12 st13">May</text>
	</g>
</g>
<path class="st14" d="M1235.7,685.1"/>
<path class="st14" d="M1235.7,685.1"/>
<path class="st14" d="M1235.7,685.1"/>
<path class="st14" d="M1235.7,685.1"/>
<path class="st14" d="M1235.7,685.1"/>
<path class="st14" d="M1235.7,685.1"/>
<path class="st14" d="M1235.7,685.1"/>
<path class="st14" d="M1235.7,685.1"/>
<path class="st14" d="M1235.7,685.1"/>
<path class="st14" d="M1235.7,685.1"/>
<path class="st14" d="M1235.7,685.1"/>
<path class="st14" d="M1235.7,685.1"/>
<path class="st14" d="M1235.7,685.1"/>
<path class="st14" d="M1235.7,685.1"/>
<g>
	<text transform="matrix(1 0 0 1 49.0305 228.329)" class="st15 st12 st13">2020</text>
</g>
<line class="st7" x1="211" y1="321.9" x2="211" y2="531.4"/>
</svg>
