<?xml version="1.0" encoding="utf-8"?>
<!-- Generator: Adobe Illustrator 24.0.1, SVG Export Plug-In . SVG Version: 6.00 Build 0)  -->
<svg version="1.1" id="Layer_1" xmlns="http://www.w3.org/2000/svg" xmlns:xlink="http://www.w3.org/1999/xlink" x="0px" y="0px"
	 viewBox="0 0 1268 418" style="enable-background:new 0 0 1268 418;" xml:space="preserve">
<style type="text/css">
	.st0{fill:#DBDAE5;}
	.st1{fill:#2F2654;fill-opacity:0;stroke:#3B3351;stroke-width:1.4;stroke-linejoin:round;stroke-miterlimit:14;}
	.st2{fill:#212121;fill-opacity:0;stroke:#2F2654;stroke-width:1.4;stroke-linejoin:round;stroke-miterlimit:14;}
	.st3{fill:#D1CDC9;}
	.st4{font-family:'RobotoCondensed-Regular';}
	.st5{font-size:22.8685px;}
	.st6{fill:none;}
	.st7{fill:#ADA9A5;}
</style>
<g id="Layer_2_1_">
</g>
<g id="Layer_3">
</g>
<path class="st0" d="M73.4,26h1183.8v110.9H73.4V26z"/>
<path class="st1" d="M575.5,136.9V26"/>
<path class="st1" d="M1195.5,136.9V26"/>
<path class="st1" d="M1144.1,136.9V26"/>
<path class="st1" d="M907.6,136.9V26"/>
<path class="st1" d="M977.5,136.9V26"/>
<path class="st1" d="M764.5,136.9V26"/>
<path class="st1" d="M1126.6,136.9V26"/>
<path class="st1" d="M794.1,136.9V26"/>
<path class="st1" d="M804.5,136.9V26"/>
<path class="st1" d="M774.9,136.9V26"/>
<path class="st1" d="M768.5,136.9V26"/>
<path class="st1" d="M814.9,136.9V26"/>
<path class="st1" d="M1098.4,136.9V26"/>
<path class="st1" d="M925.1,136.9V26"/>
<path class="st1" d="M1109.1,136.9V26"/>
<path class="st1" d="M911.4,136.9V26"/>
<path class="st1" d="M1045,136.9V26"/>
<path class="st1" d="M1133.7,136.9V26"/>
<path class="st1" d="M240,136.9V26"/>
<path class="st1" d="M748.2,136.9V26"/>
<path class="st1" d="M1214.8,136.9V26"/>
<path class="st1" d="M1107.3,136.9V26"/>
<path class="st1" d="M777.5,136.9V26"/>
<path class="st1" d="M1245.2,136.9V26"/>
<path class="st1" d="M773,136.9V26"/>
<path class="st1" d="M921.1,136.9V26"/>
<path class="st1" d="M1030.2,136.9V26"/>
<path class="st1" d="M761.9,136.9V26"/>
<path class="st1" d="M978.2,136.9V26"/>
<path class="st1" d="M794.3,136.9V26"/>
<path class="st1" d="M239.7,136.9V26"/>
<path class="st1" d="M244.2,136.9V26"/>
<path class="st1" d="M106,136.9V26"/>
<path class="st1" d="M389.6,136.9V26"/>
<path class="st1" d="M152.1,136.9V26"/>
<path class="st1" d="M80.1,136.9V26"/>
<path class="st1" d="M481.2,136.9V26"/>
<path class="st1" d="M291,136.9V26"/>
<path class="st1" d="M260.4,136.9V26"/>
<path class="st1" d="M954.3,136.9V26"/>
<path class="st1" d="M1205.3,136.9V26"/>
<path class="st1" d="M536.3,136.9V26"/>
<path class="st1" d="M1101.6,136.9V26"/>
<path class="st1" d="M1141.1,136.9V26"/>
<path class="st1" d="M622.5,136.9V26"/>
<path class="st1" d="M1044.8,136.9V26"/>
<path class="st1" d="M1046.1,136.9V26"/>
<path class="st1" d="M1241.3,136.9V26"/>
<path class="st1" d="M795.2,136.9V26"/>
<path class="st1" d="M247,136.9V26"/>
<path class="st1" d="M809.2,136.9V26"/>
<path class="st1" d="M995,136.9V26"/>
<path class="st1" d="M549.9,136.9V26"/>
<path class="st1" d="M1025.2,136.9V26"/>
<path class="st1" d="M1054.3,136.9V26"/>
<path class="st1" d="M781.5,136.9V26"/>
<path class="st1" d="M1000.2,136.9V26"/>
<path class="st1" d="M795.3,136.9V26"/>
<path class="st1" d="M758,136.9V26"/>
<path class="st1" d="M780.5,136.9V26"/>
<path class="st1" d="M789.7,136.9V26"/>
<path class="st1" d="M880.1,136.9V26"/>
<path class="st1" d="M795.9,136.9V26"/>
<path class="st1" d="M1145.8,136.9V26"/>
<path class="st1" d="M431.6,136.9V26"/>
<path class="st1" d="M552.2,136.9V26"/>
<path class="st1" d="M761,136.9V26"/>
<path class="st1" d="M250.5,136.9V26"/>
<path class="st1" d="M738,136.9V26"/>
<path class="st1" d="M1249.5,136.9V26"/>
<path class="st1" d="M1074,136.9V26"/>
<path class="st1" d="M923.1,136.9V26"/>
<path class="st1" d="M1042.2,136.9V26"/>
<path class="st1" d="M748.2,136.9V26"/>
<path class="st1" d="M792.8,136.9V26"/>
<path class="st1" d="M1232.2,136.9V26"/>
<path class="st1" d="M1131.8,136.9V26"/>
<path class="st1" d="M839.1,136.9V26"/>
<path class="st1" d="M567.3,136.9V26"/>
<path class="st1" d="M718.6,136.9V26"/>
<path class="st1" d="M302.2,136.9V26"/>
<path class="st1" d="M278.3,136.9V26"/>
<path class="st1" d="M515.6,136.9V26"/>
<path class="st1" d="M1048.8,136.9V26"/>
<path class="st1" d="M1173.1,136.9V26"/>
<path class="st1" d="M1183.7,136.9V26"/>
<path class="st1" d="M971.2,136.9V26"/>
<path class="st1" d="M845.1,136.9V26"/>
<path class="st1" d="M662.1,136.9V26"/>
<path class="st1" d="M93.1,136.9V26"/>
<path class="st1" d="M882.2,136.9V26"/>
<path class="st1" d="M940.8,136.9V26"/>
<path class="st1" d="M284.8,136.9V26"/>
<path class="st1" d="M915,136.9V26"/>
<path class="st1" d="M1232.7,136.9V26"/>
<path class="st1" d="M1034.1,136.9V26"/>
<path class="st1" d="M111,136.9V26"/>
<path class="st1" d="M787.5,136.9V26"/>
<path class="st1" d="M262.1,136.9V26"/>
<path class="st1" d="M1100.1,136.9V26"/>
<path class="st1" d="M259.7,136.9V26"/>
<path class="st1" d="M545.6,136.9V26"/>
<path class="st1" d="M428.6,136.9V26"/>
<path class="st1" d="M802.9,136.9V26"/>
<path class="st1" d="M846.5,136.9V26"/>
<path class="st1" d="M396.8,136.9V26"/>
<path class="st1" d="M122.1,136.9V26"/>
<path class="st1" d="M395.7,136.9V26"/>
<path class="st1" d="M375.3,136.9V26"/>
<path class="st1" d="M379.1,136.9V26"/>
<path class="st1" d="M429.1,136.9V26"/>
<path class="st1" d="M758.4,136.9V26"/>
<path class="st1" d="M757.5,136.9V26"/>
<path class="st1" d="M1209,136.9V26"/>
<path class="st1" d="M1252,136.9V26"/>
<path class="st1" d="M1036.8,136.9V26"/>
<path class="st1" d="M784.5,136.9V26"/>
<path class="st1" d="M1225.2,136.9V26"/>
<path class="st1" d="M989.2,136.9V26"/>
<path class="st1" d="M536.8,136.9V26"/>
<path class="st1" d="M552,136.9V26"/>
<path class="st1" d="M604.5,26"/>
<path class="st1" d="M604.5,136.9"/>
<path class="st1" d="M626.7,136.9V26"/>
<path class="st1" d="M648.3,136.9V26"/>
<path class="st1" d="M750,136.9V26"/>
<path class="st1" d="M1063.8,136.9V26"/>
<path class="st1" d="M762.6,136.9V26"/>
<path class="st1" d="M566.3,136.9V26"/>
<path class="st1" d="M78.3,136.9V26"/>
<path class="st1" d="M712.1,136.9V26"/>
<path class="st1" d="M1232.8,136.9V26"/>
<path class="st1" d="M1033.7,136.9V26"/>
<path class="st2" d="M377,136.9V26"/>
<path class="st3" d="M1311.8-758.8"/>
<g>
	<g>
		<text transform="matrix(1 0 0 1 69.0337 174.6011)" class="st3 st4 st5">Jan</text>
	</g>
</g>
<path class="st3" d="M1311.8-758.8"/>
<g>
	<g>
		<text transform="matrix(1 0 0 1 212.4517 174.6011)" class="st3 st4 st5">Feb</text>
	</g>
</g>
<path class="st3" d="M1311.8-758.8"/>
<g>
	<g>
		<text transform="matrix(1 0 0 1 355.8296 174.6011)" class="st3 st4 st5">Mar</text>
	</g>
</g>
<path class="st3" d="M1311.8-758.8"/>
<g>
	<g>
		<text transform="matrix(1 0 0 1 499.25 174.6011)" class="st3 st4 st5">Apr</text>
	</g>
</g>
<path class="st3" d="M1311.8-758.8"/>
<g>
	<g>
		<text transform="matrix(1 0 0 1 642.6289 174.6011)" class="st3 st4 st5">May</text>
	</g>
</g>
<path class="st3" d="M1311.8-758.8"/>
<g>
	<g>
		<text transform="matrix(1 0 0 1 786.0088 174.6011)" class="st3 st4 st5">June</text>
	</g>
</g>
<path class="st3" d="M1311.8-758.8"/>
<g>
	<g>
		<text transform="matrix(1 0 0 1 929.4277 174.6011)" class="st3 st4 st5">July</text>
	</g>
</g>
<path class="st3" d="M1311.8-758.8"/>
<g>
	<g>
		<text transform="matrix(1 0 0 1 1072.7861 174.6011)" class="st3 st4 st5">Aug</text>
	</g>
</g>
<path class="st3" d="M1311.8-758.8"/>
<g>
	<g>
		<text transform="matrix(1 0 0 1 1216.2061 174.6011)" class="st3 st4 st5">Sept</text>
	</g>
</g>
<path class="st3" d="M1311.8-758.8"/>
<path class="st3" d="M1311.8-758.8"/>
<path class="st3" d="M1311.8-758.8"/>
<path class="st3" d="M1311.8-758.8"/>
<g>
</g>
<path class="st3" d="M1311.8-758.8"/>
<path class="st0" d="M73.4,242.5h1177.4v110.9H73.4V242.5z"/>
<path class="st1" d="M575.5,353.3V242.5"/>
<path class="st1" d="M1195.5,353.3V242.5"/>
<path class="st1" d="M1144.1,353.3V242.5"/>
<path class="st1" d="M907.6,353.3V242.5"/>
<path class="st1" d="M977.5,353.3V242.5"/>
<path class="st1" d="M1157.4,353.3V242.5"/>
<path class="st1" d="M1126.6,353.3V242.5"/>
<path class="st1" d="M1187,353.3V242.5"/>
<path class="st1" d="M1197.4,353.3V242.5"/>
<path class="st1" d="M1167.8,353.3V242.5"/>
<path class="st1" d="M1161.4,353.3V242.5"/>
<path class="st1" d="M1199.4,353.3V242.5"/>
<path class="st1" d="M1098.4,353.3V242.5"/>
<path class="st1" d="M925.1,353.3V242.5"/>
<path class="st1" d="M1109.1,353.3V242.5"/>
<path class="st1" d="M911.4,353.3V242.5"/>
<path class="st1" d="M1045,353.3V242.5"/>
<path class="st1" d="M1133.7,353.3V242.5"/>
<path class="st1" d="M240,353.3V242.5"/>
<path class="st1" d="M1141.1,353.3V242.5"/>
<path class="st1" d="M1214.8,353.3V242.5"/>
<path class="st1" d="M1107.3,353.3V242.5"/>
<path class="st1" d="M1170.4,353.3V242.5"/>
<path class="st1" d="M1247.6,353.3V242.5"/>
<path class="st1" d="M1165.9,353.3V242.5"/>
<path class="st1" d="M921.1,353.3V242.5"/>
<path class="st1" d="M1030.2,353.3V242.5"/>
<path class="st1" d="M1154.8,353.3V242.5"/>
<path class="st1" d="M978.2,353.3V242.5"/>
<path class="st1" d="M1187.1,353.3V242.5"/>
<path class="st1" d="M194.7,353.3V242.5"/>
<path class="st1" d="M244.2,242.5"/>
<path class="st1" d="M244.2,353.3"/>
<path class="st1" d="M106,353.3V242.5"/>
<path class="st1" d="M389.6,353.3V242.5"/>
<path class="st1" d="M141.1,353.3V242.5"/>
<path class="st1" d="M80.1,353.3V242.5"/>
<path class="st1" d="M481.2,353.3V242.5"/>
<path class="st1" d="M291,353.3V242.5"/>
<path class="st1" d="M260.4,353.3V242.5"/>
<path class="st1" d="M954.3,353.3V242.5"/>
<path class="st1" d="M1205.3,353.3V242.5"/>
<path class="st1" d="M536.3,353.3V242.5"/>
<path class="st1" d="M1101.6,353.3V242.5"/>
<path class="st1" d="M1141.1,353.3V242.5"/>
<path class="st1" d="M622.5,353.3V242.5"/>
<path class="st1" d="M1044.8,353.3V242.5"/>
<path class="st1" d="M1046.1,353.3V242.5"/>
<path class="st1" d="M1246.1,353.3V242.5"/>
<path class="st1" d="M789.2,353.3V242.5"/>
<path class="st1" d="M247,242.5"/>
<path class="st1" d="M247,353.3"/>
<path class="st1" d="M809.2,353.3V242.5"/>
<path class="st1" d="M995,353.3V242.5"/>
<path class="st1" d="M549.9,353.3V242.5"/>
<path class="st1" d="M1028.8,353.3V242.5"/>
<path class="st1" d="M1054.3,353.3V242.5"/>
<path class="st1" d="M786.4,353.3V242.5"/>
<path class="st1" d="M1000.2,353.3V242.5"/>
<path class="st1" d="M1188.2,353.3V242.5"/>
<path class="st1" d="M1150.9,353.3V242.5"/>
<path class="st1" d="M1173.4,353.3V242.5"/>
<path class="st1" d="M1182.6,353.3V242.5"/>
<path class="st1" d="M880.1,353.3V242.5"/>
<path class="st1" d="M1188.8,353.3V242.5"/>
<path class="st1" d="M1145.8,353.3V242.5"/>
<path class="st1" d="M431.6,353.3V242.5"/>
<path class="st1" d="M552.2,353.3V242.5"/>
<path class="st1" d="M739.4,353.3V242.5"/>
<path class="st1" d="M250.5,353.3V242.5"/>
<path class="st1" d="M738,353.3V242.5"/>
<path class="st1" d="M1249.5,353.3V242.5"/>
<path class="st1" d="M1074,353.3V242.5"/>
<path class="st1" d="M940,353.3V242.5"/>
<path class="st1" d="M1042.2,353.3V242.5"/>
<path class="st1" d="M1141.1,353.3V242.5"/>
<path class="st1" d="M1185.7,353.3V242.5"/>
<path class="st1" d="M1232.2,353.3V242.5"/>
<path class="st1" d="M1131.8,353.3V242.5"/>
<path class="st1" d="M839.1,353.3V242.5"/>
<path class="st1" d="M567.3,353.3V242.5"/>
<path class="st1" d="M735.4,353.3V242.5"/>
<path class="st1" d="M302.2,353.3V242.5"/>
<path class="st1" d="M278.3,242.5"/>
<path class="st1" d="M278.3,353.3"/>
<path class="st1" d="M493.6,353.3V242.5"/>
<path class="st1" d="M1048.8,353.3V242.5"/>
<path class="st1" d="M1173.1,353.3V242.5"/>
<path class="st1" d="M1183.7,353.3V242.5"/>
<path class="st1" d="M971.2,353.3V242.5"/>
<path class="st1" d="M845.1,353.3V242.5"/>
<path class="st1" d="M656,353.3V242.5"/>
<path class="st1" d="M882.2,353.3V242.5"/>
<path class="st1" d="M940.8,353.3V242.5"/>
<path class="st1" d="M284.8,353.3V242.5"/>
<path class="st1" d="M915,353.3V242.5"/>
<path class="st1" d="M1232.7,353.3V242.5"/>
<path class="st1" d="M1034.1,353.3V242.5"/>
<path class="st1" d="M111,353.3V242.5"/>
<path class="st1" d="M787.5,353.3V242.5"/>
<path class="st1" d="M262.1,353.3V242.5"/>
<path class="st1" d="M1100.1,353.3V242.5"/>
<path class="st1" d="M259.7,353.3V242.5"/>
<path class="st1" d="M545.6,353.3V242.5"/>
<path class="st1" d="M428.6,353.3V242.5"/>
<path class="st1" d="M802.9,353.3V242.5"/>
<path class="st1" d="M846.5,353.3V242.5"/>
<path class="st1" d="M396.8,353.3V242.5"/>
<path class="st1" d="M122.1,353.3V242.5"/>
<path class="st1" d="M395.7,353.3V242.5"/>
<path class="st1" d="M375.3,353.3V242.5"/>
<path class="st1" d="M379.1,242.5"/>
<path class="st1" d="M379.1,353.3"/>
<path class="st1" d="M429.1,353.3V242.5"/>
<path class="st1" d="M1151.3,353.3V242.5"/>
<path class="st1" d="M1150.4,353.3V242.5"/>
<path class="st1" d="M1209,353.3V242.5"/>
<path class="st1" d="M1250.8,353.3V242.5"/>
<path class="st1" d="M1032,353.3V242.5"/>
<path class="st1" d="M1177.4,353.3V242.5"/>
<path class="st1" d="M1225.2,353.3V242.5"/>
<path class="st1" d="M989.2,353.3V242.5"/>
<path class="st1" d="M536.8,353.3V242.5"/>
<path class="st1" d="M552,353.3V242.5"/>
<path class="st1" d="M604.5,353.3V242.5"/>
<path class="st1" d="M626.7,353.3V242.5"/>
<path class="st1" d="M648.3,353.3V242.5"/>
<path class="st1" d="M1142.9,353.3V242.5"/>
<path class="st1" d="M1055.3,353.3V242.5"/>
<path class="st1" d="M1155.5,353.3V242.5"/>
<path class="st1" d="M566.3,353.3V242.5"/>
<path class="st1" d="M712.1,242.5"/>
<path class="st1" d="M712.1,353.3"/>
<path class="st1" d="M1232.8,353.3V242.5"/>
<path class="st1" d="M1033.7,353.3V242.5"/>
<path class="st1" d="M377,353.3V242.5"/>
<path class="st6" d="M1263.3,458.3"/>
<path class="st6" d="M1270.3-593"/>
<g>
	<g>
		<text transform="matrix(1 0 0 1 69.0337 391.0703)" class="st3 st4 st5">Jan</text>
	</g>
</g>
<path class="st6" d="M1263.3,458.3"/>
<path class="st6" d="M1270.3-593"/>
<g>
	<g>
		<text transform="matrix(1 0 0 1 212.4517 391.0703)" class="st3 st4 st5">Feb</text>
	</g>
</g>
<path class="st6" d="M1263.3,458.3"/>
<path class="st6" d="M1270.3-593"/>
<g>
	<g>
		<text transform="matrix(1 0 0 1 355.8296 391.0703)" class="st3 st4 st5">Mar</text>
	</g>
</g>
<path class="st6" d="M1263.3,458.3"/>
<path class="st6" d="M1270.3-593"/>
<g>
	<g>
		<text transform="matrix(1 0 0 1 499.25 391.0703)" class="st3 st4 st5">Apr</text>
	</g>
</g>
<path class="st6" d="M1263.3,458.3"/>
<path class="st6" d="M1270.3-593"/>
<g>
	<g>
		<text transform="matrix(1 0 0 1 642.6289 391.0703)" class="st3 st4 st5">May</text>
	</g>
</g>
<path class="st6" d="M1263.3,458.3"/>
<path class="st6" d="M1270.3-593"/>
<g>
	<g>
		<text transform="matrix(1 0 0 1 786.0088 391.0703)" class="st3 st4 st5">June</text>
	</g>
</g>
<path class="st6" d="M1263.3,458.3"/>
<path class="st6" d="M1270.3-593"/>
<g>
	<g>
		<text transform="matrix(1 0 0 1 929.4277 391.0703)" class="st3 st4 st5">July</text>
	</g>
</g>
<path class="st6" d="M1263.3,458.3"/>
<path class="st6" d="M1270.3-593"/>
<g>
	<g>
		<text transform="matrix(1 0 0 1 1072.7861 391.0703)" class="st3 st4 st5">Aug</text>
	</g>
</g>
<path class="st6" d="M1263.3,458.3"/>
<path class="st6" d="M1270.3-593"/>
<g>
	<g>
		<text transform="matrix(1 0 0 1 1216.2061 391.0703)" class="st3 st4 st5">Sept</text>
	</g>
</g>
<path class="st6" d="M1263.3,458.3"/>
<path class="st6" d="M1270.3-593"/>
<path class="st6" d="M1263.3,458.3"/>
<path class="st6" d="M1270.3-593"/>
<path class="st6" d="M1263.3,458.3"/>
<path class="st6" d="M1270.3-593"/>
<path class="st6" d="M1263.3,458.3"/>
<path class="st6" d="M1270.3-593"/>
<g>
</g>
<path class="st6" d="M1263.3,458.3"/>
<path class="st6" d="M1270.3-593"/>
<g>
	<text transform="matrix(1 0 0 1 9.5625 85.4834)" class="st7 st4 st5">2020</text>
</g>
<g>
	<text transform="matrix(1 0 0 1 9.5625 301.9531)" class="st7 st4 st5">2021</text>
</g>
</svg>
