<?xml version="1.0" encoding="utf-8"?>
<!-- Generator: Adobe Illustrator 22.1.0, SVG Export Plug-In . SVG Version: 6.00 Build 0)  -->
<svg version="1.1" id="Layer_1" xmlns="http://www.w3.org/2000/svg" xmlns:xlink="http://www.w3.org/1999/xlink" x="0px" y="0px"
	 viewBox="0 0 1200 718" style="enable-background:new 0 0 1200 718;" xml:space="preserve">
<style type="text/css">
	.st0{fill:#E3E3E3;}
	.st1{fill:#D5D5D5;}
	.st2{fill:#BABABA;}
	.st3{fill:#514361;}
	.st4{font-family:'RobotoMono-Regular';}
	.st5{font-size:54px;}
	.st6{fill:none;stroke:#6D6D6D;stroke-width:9;stroke-miterlimit:10;}
</style>
<path class="st0" d="M485.8,358.9c0-103.3,44-196.2,114.2-261.2C536.5,38.8,451.5,2.8,358.1,2.8C161.4,2.8,2,162.2,2,358.9
	S161.4,715,358.1,715c93.4,0,178.4-36,241.9-94.9C529.8,555.1,485.8,462.2,485.8,358.9z"/>
<path class="st1" d="M841.9,2.8c-93.4,0-178.4,36-241.9,94.9c70.2,65,114.2,158,114.2,261.2s-44,196.2-114.2,261.2
	C663.5,679,748.5,715,841.9,715c196.7,0,356.1-159.4,356.1-356.1S1038.6,2.8,841.9,2.8z"/>
<path class="st2" d="M714.2,358.9c0-103.3-44-196.2-114.2-261.2c-70.2,65-114.2,158-114.2,261.2s44,196.2,114.2,261.2
	C670.2,555.1,714.2,462.2,714.2,358.9z"/>
<g>
	<g>
		<text transform="matrix(1 0 0 1 336.0371 389.4532)" class="st3 st4 st5">A</text>
	</g>
</g>
<g>
	<g>
		<text transform="matrix(1 0 0 1 525.248 389.4532)" class="st3 st4 st5">A</text>
	</g>
</g>
<g>
	<g>
		<text transform="matrix(1 0 0 1 834.3711 389.4532)" class="st3 st4 st5">B</text>
	</g>
</g>
<g>
	<g>
		<text transform="matrix(1 0 0 1 633.4805 389.4532)" class="st3 st4 st5">B</text>
	</g>
</g>
<path class="st6" d="M616.5,389.5v-20.5c0-8-6.5-14.4-14.4-14.4l0,0c-8,0-14.4,6.5-14.4,14.4v20.5"/>
</svg>
