<svg enable-background="new 0 0 256 256" height="256" viewBox="0 0 256 256" width="256" xmlns="http://www.w3.org/2000/svg"><path d="m177.5 51.5c-18.2 0-35.6 6.4-49.4 18.1l-.1-.1-.1.1c-13.8-11.7-31.1-18.1-49.4-18.1-42.2 0-76.5 34.3-76.5 76.5s34.3 76.5 76.5 76.5c18.2 0 35.6-6.4 49.4-18.1l.1.1.1-.1c13.8 11.7 31.1 18.1 49.4 18.1 42.2 0 76.5-34.3 76.5-76.5s-34.3-76.5-76.5-76.5zm-66.7 76.5c0-16.8 6.1-32.5 17.2-44.7 10.9 12 17.2 28.1 17.3 44.3.1 16.5-6.2 32.9-17.3 45.2-11.1-12.3-17.2-28-17.2-44.8zm-99 0c0-36.8 29.9-66.7 66.7-66.7 15.6 0 30.4 5.4 42.3 15.2-12.9 14.1-19.9 32.2-19.9 51.5s7.1 37.4 19.9 51.5c-11.9 9.8-26.7 15.2-42.3 15.2-36.7 0-66.7-29.9-66.7-66.7z"/></svg>