<?xml version="1.0" encoding="utf-8"?>
<!-- Generator: Adobe Illustrator 19.2.0, SVG Export Plug-In . SVG Version: 6.00 Build 0)  -->
<svg version="1.1" id="Layer_1" xmlns="http://www.w3.org/2000/svg" xmlns:xlink="http://www.w3.org/1999/xlink" x="0px" y="0px"
	 width="1200px" height="718px" viewBox="0 0 1200 718" enable-background="new 0 0 1200 718" xml:space="preserve">
<path fill="#AFB8E3" d="M485.793,358.897c0-103.258,43.994-196.205,114.207-261.248C536.482,38.807,451.516,2.793,358.104,2.793
	C161.433,2.793,2,162.226,2,358.897S161.433,715,358.104,715c93.412,0,178.379-36.014,241.896-94.855
	C529.787,555.102,485.793,462.155,485.793,358.897z"/>
<path fill="#939FD5" d="M841.896,2.793c-93.412,0-178.379,36.014-241.896,94.855c70.213,65.044,114.207,157.99,114.207,261.248
	S670.213,555.102,600,620.145C663.518,678.986,748.484,715,841.896,715C1038.567,715,1198,555.567,1198,358.897
	S1038.567,2.793,841.896,2.793z"/>
<path fill="#7581BA" d="M714.207,358.897c0-103.258-43.994-196.205-114.207-261.248c-70.213,65.044-114.207,157.99-114.207,261.248
	S529.787,555.102,600,620.145C670.213,555.102,714.207,462.155,714.207,358.897z"/>
<g>
	<text transform="matrix(1 0 0 1 336.0371 389.4532)" fill="#37246D" font-family="'Roboto-Medium'" font-size="65.4062px">A</text>
</g>
<g>
	<text transform="matrix(1 0 0 1 525.248 389.4532)" fill="#37246D" font-family="'Roboto-Medium'" font-size="65.4062px">A</text>
</g>
<g>
	<text transform="matrix(1 0 0 1 834.3711 389.4532)" fill="#37246D" font-family="'Roboto-Medium'" font-size="65.4062px">b</text>
</g>
<g>
	<text transform="matrix(1 0 0 1 633.4805 389.4532)" fill="#37246D" font-family="'Roboto-Medium'" font-size="65.4062px">b</text>
</g>
<path fill="none" stroke="#37246D" stroke-width="9" stroke-miterlimit="10" d="M616.546,389.454v-20.507
	c0-7.967-6.458-14.425-14.425-14.425l0,0c-7.967,0-14.425,6.458-14.425,14.425v20.507"/>
</svg>
