<svg enable-background="new 0 0 256 157" height="157" viewBox="0 0 256 157" width="256" xmlns="http://www.w3.org/2000/svg"><path d="m177.465 1.965c-18.226 0-35.569 6.39-49.353 18.06l-.112-.108-.112.107c-13.784-11.669-31.127-18.059-49.353-18.059-42.202 0-76.535 34.333-76.535 76.535 0 42.201 34.333 76.535 76.535 76.535 18.228 0 35.573-6.392 49.353-18.06l.112.106.113-.108c13.782 11.671 31.126 18.061 49.352 18.061 42.201 0 76.535-34.334 76.535-76.535s-34.334-76.534-76.535-76.534zm-66.692 76.535c0-16.758 6.078-32.459 17.213-44.72 10.903 12.001 17.153 28.062 17.261 44.279.11 16.523-6.153 32.935-17.261 45.16-11.135-12.26-17.213-27.961-17.213-44.719zm-98.929 0c0-36.774 29.918-66.691 66.691-66.691 15.593 0 30.44 5.369 42.343 15.189-12.891 14.1-19.948 32.183-19.948 51.503s7.058 37.403 19.949 51.503c-11.901 9.818-26.749 15.189-42.343 15.189-36.775-.002-66.692-29.919-66.692-66.693z"/></svg>