<svg height="256" viewBox="0 0 256 256" width="256" xmlns="http://www.w3.org/2000/svg"><path d="m252.4 249.3h1.6v-63.7h-.1c-.3-7.1-1.2-13-3.4-15.8-4-5.1-9-9.1-14.3-13.3s-11.1-9-15.9-15.1l-.7-.8c-4.7-6-12.7-16.1-15.6-23.4a105.9 105.9 0 0 1 -3-11.9c-2.5-11.3-3.8-16.4-6.1-17.4a2.3 2.3 0 0 0 -2.1.2c-3.2 2-7.2 2.8-11.5 3.7s-11.2 2.1-16.9 5.7-7.4 12.2-8.5 19.5c-.7 4.8-1.3 9.5-3.4 10.8a51 51 0 0 1 -7.4 3.6l-.8.4h-.3l-.5.2a53.9 53.9 0 0 1 -7.1-10.6l-4-7c-2-3.2-3.4-5.7-4.5-7.6-2.8-4.9-3.4-6-5-6s-1.9 1.1-2.6 2.4a20.7 20.7 0 0 1 -8.2 8.8c-7.7 4.8-17.6 17.6-25.6 27.8-1.8 2.4-3.6 4.7-5.2 6.6a270.2 270.2 0 0 1 -29.9 32.2c-3.9-.2-7.6-1.1-9.3-3.2-3.8-4.8-13.3-11.1-17.2-13.6-.5-.3-10.7-6.7-14.6-7.7v-142.9h-3v241.1h247v-3zm-108.1-112.3a13.1 13.1 0 0 0 6.1 1.2c9.9 0 23.9-6.2 27.5-7.9 1.9 2.8 6.2 14.6 7.9 19.3.7 1.9 1.2 3.4 1.5 4.1 2.2 5.6 13.1 6.4 22.8 7.2 4.1.3 8 .6 10 1.3 5.7 1.7 8.7 6.4 11.8 11.3 4.1 6.6 8.3 13.3 19 13.3v13.3c-.1 1.8-.1 3.4-.1 4.7h.1v42.9h-106.6zm-60.6 11.4c1.6-1.9 3.3-4.2 5.2-6.6 7.8-10.1 17.5-22.6 24.8-27.1a24 24 0 0 0 9.3-10c.6.9 1.4 2.2 2.3 3.8s2.5 4.5 4.5 7.7 3 5.2 3.9 6.9a66 66 0 0 0 6.9 10.4 31.8 31.8 0 0 0 -4 2.3h-.2l-.8.5a17.5 17.5 0 0 0 -7.8 11.5q-.3 1.2-.6 3c-3 16-5.9 27.1-8.7 33.4-1.4 3.2-3 5.4-4.6 5.9-5.6 1.7-19.6 3.9-27.7 1.8-6.1-1.5-12.4-6.3-16.6-9.5s-4.9-3.7-6.2-3.7h-3.3l-4.4.2a274.7 274.7 0 0 0 28-30.5zm-72.5 64.6c1.9-.8 6.4-3.6 18.6-12.8 8.4-6.4 17.3-13.5 21.1-16.9v64.4h-39.7z"/></svg>