<svg height="256" viewBox="0 0 256 256" width="256" xmlns="http://www.w3.org/2000/svg"><path d="m252 11-17 4-20 11-12-8-44-5-31 18-46 10-26-13-27-4-23 13 .3-28.8h-3v61.1l-.3.2.3.4v179.4h248.7zm-4.8 143.5-3.7.7v-39.4h-1.9l5.6-4.7zm-6.7 1.2-2.4.5v-36.5h-1.2l3.6-3.1zm-5.4 1-6.3 1.2v-31.5l6.3-5.2zm-9.3 1.8-3.6.6v-27.1h-.1l3.7-3.1zm-6.6 1.2-2.5.4v-24.9l.8.7 1.7-1.4zm-5.5 1-5.4 1v-35l5.4 5.4zm-8.4 1.6-4.5.8v-44l4.5 4.6zm-7.5 1.3-4.3.8v-49.2h-1.6l3.6-1.3 2.3 2.2zm-7.3 1.4-5.5 1-1.4-1.4v-46.1h-1.1l8-2.8zm-9.9-3.4-7.2-7.2v-32.7l7.2-2.5zm-10.2-5.4-5.5 4.4v-35.9l5.5-1.9zm-8.5 6.9-6.9 5.7v-43.1l2.9 1.5 4-1.4zm-9.9 8.2-3.9 3.2v-52.4l3.9 2.1zm-6.9 5.6-2.8 2.3v-60.1l2.8 1.5zm-5.8-59.3v64l-3.3 2.8v-68.6l3.4 1.8zm-6.3 69.2-4.5 3.7-2.4-1.5v-76.1l2.2-1.1 4.7 2.5zm-9.9.4-7.3-4.5v-64.5l7.3-3.7zm-10.3-6.3-6.6-4v-53.7l6.6-3.4zm-9.6-4.1-3 1.5v-52h-.1l3.1-1.6zm-6 2.9-4.9 2.4v-51.8l4.9-2.5zm-7.9 3.9-2.4 1.2v-50h-3v51.5l-3.3 1.6v-51.5l8.7-4.5zm-11.7 5.8-3.9 1.9v-51.3l3.9-2.1zm-6.9 3.4-3.4 1.6v-51.2l3.4-1.7zm-6.4-50.5v52.4l-2.7-2.6v-51.5l3.5 1.7zm-5.7-3v50l-4.8-4.6v-47.8l4.9 2.4zm-7.8 42.6-4.9-4.6v-44.1l4.9 2.3zm-7.9-7.4-3.9-3.7v-40.8l3.9 1.8zm-6.9-46v39.4l-6.4-6-.5.5v-35l2.7-.9zm-9.9 36.7-1.8 1.8v-38.1l1.8-.6zm-4.8 4.6-2.5 2.3v-41.5l2.5-.8zm-5.5 5.1-4.5 4.3v-46.3l4.5-1.4zm-7.5 7.2-2 1.8v-49.5l1.9-.6zm24.3-128 33.9 33.9 39.7-39.7 22.5 17.5 26.3-12.8 29.8 17.3 64.2-17.8v51.8l-.6-.7-30.6 25.5-21-21-38.6 13.7-29.9-15.6-61.2 31.5-34.9-16.5-25.9 8v-55.9z"/></svg>