<?xml version="1.0" encoding="utf-8"?>
<!-- Generator: Adobe Illustrator 24.0.1, SVG Export Plug-In . SVG Version: 6.00 Build 0)  -->
<svg version="1.1" id="Layer_1" xmlns="http://www.w3.org/2000/svg" xmlns:xlink="http://www.w3.org/1999/xlink" x="0px" y="0px"
	 viewBox="0 0 1268 418" style="enable-background:new 0 0 1268 418;" xml:space="preserve">
<style type="text/css">
	.st0{fill:#FFFFFF;stroke:#A39CB9;stroke-width:1.5;stroke-miterlimit:10;}
	.st1{fill:#A39CB9;}
	.st2{fill:#BABCC6;}
	.st3{font-family:'ArialMT';}
	.st4{font-size:9.3174px;}
	.st5{font-size:9.316px;}
	.st6{font-size:9.3048px;}
	.st7{font-size:9.3346px;}
	.st8{font-size:9.3341px;}
	.st9{font-size:9.342px;}
	.st10{font-size:9.3402px;}
	.st11{enable-background:new    ;}
	.st12{font-size:9.2917px;}
</style>
<g>
	<g>
		<g>
			<path class="st0" d="M329.5,131.7c8.4-39.7-16.4-31.1-16.2-68"/>
			<path class="st0" d="M329.5,131.7c8.4-39.7-1.3-30.1,3.8-66.5"/>
			<path class="st0" d="M329.5,131.7c8.4-39.7,13.4-26.9,23.5-62.4"/>
			<path class="st0" d="M328.8,135.2l0.7-3.5c8.4-39.7,27.7-21.7,42.5-55.5"/>
			<path class="st0" d="M379.1,164.6c33.2-23.2,3.7-38.8,27.1-67.4"/>
			<path class="st0" d="M379.1,164.6c33.2-23.2,14.7-28.5,41.8-53.6"/>
			<path class="st0" d="M379.1,164.6l54.4-37.9"/>
			<path class="st0" d="M379.1,164.6c33.2-23.2,32-3.8,64.8-20.6"/>
			<path class="st0" d="M379.1,164.6c33.2-23.2,38,10,72.7-2.1"/>
			<path class="st0" d="M393.8,211.5c40.6,0.2,29.3-7.3,66.1-9.7"/>
			<path class="st0" d="M393.8,211.5c40.6,0.2,29.2,7.8,66,10.5"/>
			<path class="st0" d="M384.5,248.7c35.9,18.9,32.3,0,66.9,12.5"/>
			<path class="st0" d="M384.5,248.7c35.9,18.9,26.1,13.8,58.8,30.9"/>
			<path class="st0" d="M384.5,248.7c35.9,18.9,18.2,26.7,48.3,48.1"/>
			<path class="st0" d="M359.1,277.7c23.3,33.2,23,19.8,46.1,48.5"/>
			<path class="st0" d="M359.1,277.7c23.3,33.2,10.6,28.4,29.6,60"/>
			<path class="st0" d="M323.3,291.6c5.4,40.2,18.7,26.4,28.5,61.9"/>
			<path class="st0" d="M323.3,291.6l8.8,66"/>
			<path class="st0" d="M321.1,275l2.2,16.6c5.4,40.2-11.2,30.3-11.3,67.2"/>
			<path class="st0" d="M275,283c-18.8,35.9,7.3,34.6-2.8,70.1"/>
			<path class="st0" d="M275,283c-18.8,35.9-6.9,29.5-21.7,63.3"/>
			<path class="st0" d="M275,283c-18.8,35.9-20.3,22.5-39.6,53.9"/>
			<path class="st0" d="M275,283c-18.8,35.9-32.6,13.8-56,42.3"/>
			<path class="st0" d="M240.4,248.1c-36.1,18.5-18.4,26.6-48.6,47.7"/>
			<path class="st0" d="M240.4,248.1c-36.1,18.5-26.2,13.6-59,30.5"/>
			<path class="st0" d="M248.7,243.8l-8.4,4.3c-36.1,18.5-32.2-0.2-66.9,11.9"/>
			<path class="st0" d="M231.5,210.7c-40.6-0.2-29.2,7.6-66.1,9.9"/>
			<path class="st0" d="M237.1,210.6h-5.6c-40.6-0.2-29.2-7.5-66-10.2"/>
			<path class="st0" d="M243.5,168.6c-34.5-21.3-34.9,5.1-69.6-7.4"/>
			<path class="st0" d="M243.5,168.6c-34.5-21.3-28.8-8.7-61.5-25.8"/>
			<path class="st0" d="M243.5,168.6c-34.5-21.3-20.9-21.6-51-43"/>
			<path class="st0" d="M250.5,173.1l-7-4.5c-34.5-21.3-11.3-33.2-38.2-58.6"/>
			<path class="st0" d="M280.7,136.5c-16-37.3-25.1-20.1-44.1-51.7"/>
			<path class="st0" d="M280.7,136.5l-26.2-60.8"/>
			<path class="st0" d="M284.7,146.1l-4-9.6c-16-37.3,2.6-31.9-7.2-67.5"/>
		</g>
		<circle class="st1" cx="312.7" cy="211.3" r="3.9"/>
		<text transform="matrix(0.2079 -0.9781 0.9781 0.2079 325.956 162.9778)" class="st2 st3 st4">Apollo</text>
		<circle class="st1" cx="321.9" cy="168.5" r="2.4"/>
		<circle class="st1" cx="313.3" cy="63.7" r="3.9"/>
		<text transform="matrix(5.235960e-03 -1 1 5.235960e-03 316.2646 57.5057)" class="st2 st3 st4">Hobo Spider</text>
		<circle class="st1" cx="333.4" cy="65.2" r="3.9"/>
		<text transform="matrix(0.14 -0.9901 0.9901 0.14 337.138 59.4118)" class="st2 st3 st5">Giant House </text>
		<circle class="st1" cx="353.1" cy="69.3" r="3.9"/>
		<text transform="matrix(0.274 -0.9617 0.9617 0.274 357.5578 64.1845)" class="st2 st3 st4">Domestic </text>
		<circle class="st1" cx="372.1" cy="76.2" r="3.9"/>
		<text transform="matrix(0.4019 -0.9157 0.9157 0.4019 377.1847 71.6777)" class="st2 st3 st4">Dust Spider</text>
		<text transform="matrix(0.8211 -0.5708 0.5708 0.8211 353.9156 185.7663)" class="st2 st3 st6">Artemis</text>
		<circle class="st1" cx="349" cy="186.4" r="2.4"/>
		<circle class="st1" cx="406.3" cy="97.3" r="3.9"/>
		<text transform="matrix(0.6347 -0.7727 0.7727 0.6347 412.4508 94.2383)" class="st2 st3 st4">Giant Orb </text>
		<text transform="matrix(0.6347 -0.7727 0.7727 0.6347 439.7463 61.0082)" class="st2 st3 st4">W</text>
		<text transform="matrix(0.6347 -0.7727 0.7727 0.6347 445.2261 54.3369)" class="st2 st3 st4">eaver</text>
		<circle class="st1" cx="420.9" cy="111" r="3.9"/>
		<text transform="matrix(0.7337 -0.6794 0.6794 0.7337 427.4378 108.898)" class="st2 st3 st4">Cross Orb </text>
		<text transform="matrix(0.7337 -0.6794 0.6794 0.7337 460.4844 78.2965)" class="st2 st3 st4">W</text>
		<text transform="matrix(0.7337 -0.6794 0.6794 0.7337 466.8189 72.4307)" class="st2 st3 st4">eaver</text>
		<circle class="st1" cx="433.5" cy="126.7" r="3.9"/>
		<text transform="matrix(0.8211 -0.5708 0.5708 0.8211 440.3304 125.5132)" class="st2 st3 st6">Banded Garden Spider</text>
		<circle class="st1" cx="444" cy="144" r="3.9"/>
		<text transform="matrix(0.8884 -0.4592 0.4592 0.8884 450.8127 143.7015)" class="st2 st3 st7">Golden Orb </text>
		<text transform="matrix(0.8884 -0.4592 0.4592 0.8884 495.9722 120.3606)" class="st2 st3 st7">W</text>
		<text transform="matrix(0.8884 -0.4592 0.4592 0.8884 503.6557 116.3894)" class="st2 st3 st7">eaver </text>
		<circle class="st1" cx="451.9" cy="162.5" r="3.9"/>
		<text transform="matrix(0.9438 -0.3305 0.3305 0.9438 458.7123 163.1414)" class="st2 st3 st4">Long-Jawed Orb </text>
		<text transform="matrix(0.9438 -0.3305 0.3305 0.9438 526.2025 139.5056)" class="st2 st3 st4">W</text>
		<text transform="matrix(0.9438 -0.3305 0.3305 0.9438 534.3506 136.6522)" class="st2 st3 st4">eaver </text>
		<text transform="matrix(1 5.235960e-03 -5.235960e-03 1 359.7552 213.5564)" class="st2 st3 st4">Hermes</text>
		<circle class="st1" cx="357" cy="212" r="2.4"/>
		<circle class="st1" cx="459.9" cy="201.8" r="3.9"/>
		<text transform="matrix(0.9982 -5.989229e-02 5.989229e-02 0.9982 466.2782 204.3367)" class="st2 st3 st8">Brazilian </text>
		<text transform="matrix(0.9982 -5.989229e-02 5.989229e-02 0.9982 504.6398 202.035)" class="st2 st3 st8">W</text>
		<text transform="matrix(0.9982 -5.989229e-02 5.989229e-02 0.9982 513.0276 201.5318)" class="st2 st3 st8">andering </text>
		<circle class="st1" cx="459.8" cy="222" r="3.9"/>
		<text transform="matrix(0.9973 7.323820e-02 -7.323820e-02 0.9973 465.7977 225.284)" class="st2 st3 st4">Fishing Spider</text>
		<text transform="matrix(0.8854 0.4648 -0.4648 0.8854 356.4166 236.4423)" class="st2 st3 st4">Athena</text>
		<circle class="st1" cx="351.9" cy="232.4" r="2.4"/>
		<circle class="st1" cx="451.5" cy="261.3" r="3.9"/>
		<text transform="matrix(0.9409 0.3387 -0.3387 0.9409 456.2701 266.0899)" class="st2 st3 st4">Black House Spider</text>
		<circle class="st1" cx="443.3" cy="279.7" r="3.9"/>
		<text transform="matrix(0.8854 0.4648 -0.4648 0.8854 447.4722 285.1465)" class="st2 st3 st4">Brown House Spider</text>
		<circle class="st1" cx="432.8" cy="296.9" r="3.9"/>
		<text transform="matrix(0.8141 0.5807 -0.5807 0.8141 436.1516 302.8199)" class="st2 st3 st4">Hollow</text>
		<text transform="matrix(0.8141 0.5807 -0.5807 0.8141 460.8841 320.4618)" class="st2 st3 st4">T</text>
		<text transform="matrix(0.8141 0.5807 -0.5807 0.8141 465.128 323.4889)" class="st2 st3 st4">wig Spider</text>
		<text transform="matrix(0.5708 0.8211 -0.8211 0.5708 338.2049 251.4851)" class="st2 st3 st6">Hypnos</text>
		<circle class="st1" cx="338.1" cy="248.1" r="2.4"/>
		<circle class="st1" cx="405.2" cy="326.1" r="3.9"/>
		<text transform="matrix(0.6283 0.7779 -0.7779 0.6283 406.8801 332.7766)" class="st2 st3 st9">Southern House </text>
		<circle class="st1" cx="388.8" cy="337.7" r="3.9"/>
		<text transform="matrix(0.515 0.8572 -0.8572 0.515 389.4827 344.4388)" class="st2 st3 st4">Arizona Black</text>
		<text transform="matrix(-0.1323 -0.9912 0.9912 -0.1323 323.5938 271.9517)" class="st2 st3 st4">Iris</text>
		<circle class="st1" cx="318.5" cy="255.7" r="2.4"/>
		<circle class="st1" cx="351.8" cy="353.5" r="3.9"/>
		<text transform="matrix(0.2656 0.9641 -0.9641 0.2656 350.6337 360.2395)" class="st2 st3 st4">Carolina </text>
		<text transform="matrix(0.2656 0.9641 -0.9641 0.2656 360.5394 396.2019)" class="st2 st3 st4">W</text>
		<circle class="st1" cx="332.1" cy="357.6" r="3.9"/>
		<text transform="matrix(-0.1323 -0.9912 0.9912 -0.1323 342.075 410.9087)" class="st2 st3 st4">W</text>
		<text transform="matrix(-0.1323 -0.9912 0.9912 -0.1323 340.9332 402.3508)" class="st2 st3 st4">olf Spider</text>
		<circle class="st1" cx="311.9" cy="358.8" r="3.9"/>
		<text transform="matrix(5.235960e-03 -1 1 5.235960e-03 314.6131 413.0171)" class="st2 st3 st4">W</text>
		<text transform="matrix(5.235960e-03 -1 1 5.235960e-03 314.6583 404.3834)" class="st2 st3 st4">olf Spider</text>
		<text transform="matrix(0.4648 -0.8854 0.8854 0.4648 280.8351 278.7942)" class="st2 st3 st4">Janus</text>
		<circle class="st1" cx="292.2" cy="251" r="2.4"/>
		<circle class="st1" cx="272.2" cy="353.2" r="3.9"/>
		<text transform="matrix(0.274 -0.9617 0.9617 0.274 258.5207 411.7147)" class="st2 st3 st4">Cellar Spider</text>
		<circle class="st1" cx="253.2" cy="346.3" r="3.9"/>
		<text transform="matrix(0.4019 -0.9157 0.9157 0.4019 225.4131 416.6455)" class="st2 st3 st4">       Y ellow  Sac</text>
		<circle class="st1" cx="235.4" cy="336.9" r="3.9"/>
		<text transform="matrix(0.524 -0.8517 0.8517 0.524 202.8913 395.4249)" class="st2 st3 st4">Ground Spider</text>
		<circle class="st1" cx="219" cy="325.3" r="3.9"/>
		<text transform="matrix(0.6347 -0.7727 0.7727 0.6347 156.7925 405.6049)" class="st2 st3 st4">           Banded Garden </text>
		<text transform="matrix(0.8902 -0.4555 0.4555 0.8902 251.0261 245.7274)" class="st2 st3 st4">Nike</text>
		<circle class="st1" cx="273.3" cy="232" r="2.4"/>
		<circle class="st1" cx="191.7" cy="295.8" r="3.9"/>
		<text transform="matrix(0.8211 -0.5708 0.5708 0.8211 117.7884 350.9703)" class="st2 st3 st6">            Bold Jumping</text>
		<circle class="st1" cx="181.3" cy="278.5" r="3.9"/>
		<text transform="matrix(0.8902 -0.4555 0.4555 0.8902 95.5463 325.7072)" class="st2 st3 st4">           Zebra Jumping</text>
		<circle class="st1" cx="173.4" cy="260" r="3.9"/>
		<text transform="matrix(0.9438 -0.3305 0.3305 0.9438 96.0734 290.1492)" class="st2 st3 st4">       Wall Jumping</text>
		<text transform="matrix(1 5.235960e-03 -5.235960e-03 1 240.8455 213.6379)" class="st2 st3 st4">Zeus</text>
		<circle class="st1" cx="268.5" cy="211.6" r="2.4"/>
		<circle class="st1" cx="165.4" cy="220.6" r="3.9"/>
		<text transform="matrix(0.9982 -5.989229e-02 5.989229e-02 0.9982 103.5441 227.4753)" class="st2 st3 st8">Brown Spider</text>
		<circle class="st1" cx="165.5" cy="200.5" r="3.9"/>
		<text transform="matrix(0.9976 6.982914e-02 -6.982914e-02 0.9976 67.1202 196.208)" class="st2 st3 st10">           Brown Recluse</text>
		<text transform="matrix(0.8517 0.524 -0.524 0.8517 250.7824 175.6027)" class="st2 st3 st4">Hera</text>
		<circle class="st1" cx="275" cy="188.6" r="2.4"/>
		<circle class="st1" cx="173.8" cy="161.2" r="3.9"/>
		<text transform="matrix(0.9409 0.3387 -0.3387 0.9409 89.031 133.6588)" class="st2 st3 st4">           King Baboon</text>
		<circle class="st1" cx="182" cy="142.8" r="3.9"/>
		<text transform="matrix(0.8854 0.4648 -0.4648 0.8854 108.5772 107.5949)" class="st2 st3 st4">Bird Eating Spider</text>
		<circle class="st1" cx="192.5" cy="125.6" r="3.9"/>
		<text transform="matrix(0.8141 0.5807 -0.5807 0.8141 134.2997 87.6697)" class="st2 st3 st4"> Pink Tarantula </text>
		<circle class="st1" cx="205.3" cy="110" r="3.9"/>
		<text transform="matrix(0.7278 0.6858 -0.6858 0.7278 146.8959 57.5251)" class="st2 st3 st4">Ornamental</text>
		<text transform="matrix(0.7278 0.6858 -0.6858 0.7278 184.12 92.604)" class="st2 st3 st4">T</text>
		<text transform="matrix(0.7278 0.6858 -0.6858 0.7278 187.9721 96.234)" class="st2 st3 st4">ree</text>
		<text transform="matrix(0.3939 0.9191 -0.9191 0.3939 282.8708 148.9687)" class="st2 st3 st4">Ares</text>
		<circle class="st1" cx="295.3" cy="171.1" r="2.4"/>
		<circle class="st1" cx="236.5" cy="84.8" r="3.9"/>
		<text transform="matrix(0.515 0.8572 -0.8572 0.515 188.1492 10.023)" class="st2 st3 st4">           Black Widow </text>
		<circle class="st1" cx="254.4" cy="75.7" r="3.9"/>
		<text transform="matrix(0.3939 0.9191 -0.9191 0.3939 215.2706 -8.4656)" class="st2 st3 st4">           Brown Widow </text>
		<circle class="st1" cx="273.5" cy="69" r="3.9"/>
		<text transform="matrix(0.2707 0.9627 -0.9627 0.2707 248.5753 -10.6545)" class="st11"><tspan x="0" y="0" class="st2 st3 st4">           </tspan><tspan x="28.5" y="0" class="st2 st3 st12">Red Widow</tspan></text>
		<path class="st0" d="M312.7,211.3c8.8-18.2,1.9-19.4,9.5-42.8"/>
		<path class="st0" d="M312.7,211.3c18.7-7.2,14.6-12.9,36.2-24.8"/>
		<path class="st0" d="M312.7,211.3c19.5,5,19.3-2,43.8,0.7"/>
		<path class="st0" d="M312.7,211.3c15.1,13.4,18.1,7.1,38.6,20.7"/>
		<path class="st0" d="M312.7,211.3c7.2,18.7,12.9,14.6,24.9,36.1"/>
		<path class="st0" d="M312.7,211.3c-2,20,4.8,18.8,5.7,43.4"/>
		<path class="st0" d="M312.7,211.3c-13.1,15.2-6.8,18.2-20.1,38.9"/>
		<path class="st0" d="M312.7,211.3c-19.5,5-16,11.1-38.8,20.4"/>
		<path class="st0" d="M312.7,211.3c-19.7-4.6-19.4,2.4-43.9,0.3"/>
		<path class="st0" d="M312.7,211.3c-14.4-14.1-17.8-8-37.6-22.6"/>
		<path class="st0" d="M312.7,211.3c-3.6-19.9-9.9-16.9-17.4-40.3"/>
	</g>
	<g>
		<g>
			<path class="st0" d="M970.8,131.7c8.4-39.7-16.4-31.1-16.2-68"/>
			<path class="st0" d="M970.8,131.7c8.4-39.7-1.3-30.1,3.8-66.5"/>
			<path class="st0" d="M970.8,131.7c8.4-39.7,13.4-26.9,23.5-62.4"/>
			<path class="st0" d="M970.1,135.2l0.7-3.5c8.4-39.7,27.7-21.7,42.5-55.5"/>
			<path class="st0" d="M1020.4,164.6c33.2-23.2,3.7-38.8,27.1-67.4"/>
			<path class="st0" d="M1020.4,164.6c33.2-23.2,14.7-28.5,41.8-53.6"/>
			<path class="st0" d="M1020.4,164.6l54.4-37.9"/>
			<path class="st0" d="M1020.4,164.6c33.2-23.2,32-3.8,64.8-20.6"/>
			<path class="st0" d="M1020.4,164.6c33.2-23.2,38,10,72.7-2.1"/>
			<path class="st0" d="M1035.1,211.5c40.6,0.2,29.3-7.3,66.1-9.7"/>
			<path class="st0" d="M1035.1,211.5c40.6,0.2,29.2,7.8,66,10.5"/>
			<path class="st0" d="M1025.8,248.7c35.9,18.9,32.3,0,66.9,12.5"/>
			<path class="st0" d="M1025.8,248.7c35.9,18.9,26.1,13.8,58.8,30.9"/>
			<path class="st0" d="M1025.8,248.7c35.9,18.9,18.2,26.7,48.3,48.1"/>
			<path class="st0" d="M1000.4,277.7c23.3,33.2,23,19.8,46.1,48.5"/>
			<path class="st0" d="M1000.4,277.7c23.3,33.2,10.6,28.4,29.6,60"/>
			<path class="st0" d="M964.6,291.6c5.4,40.2,18.7,26.4,28.5,61.9"/>
			<path class="st0" d="M964.6,291.6l8.8,66"/>
			<path class="st0" d="M962.4,275l2.2,16.6c5.4,40.2-11.2,30.3-11.3,67.2"/>
			<path class="st0" d="M916.3,283c-18.8,35.9,7.3,34.6-2.8,70.1"/>
			<path class="st0" d="M916.3,283c-18.8,35.9-6.9,29.5-21.7,63.3"/>
			<path class="st0" d="M916.3,283c-18.8,35.9-20.3,22.5-39.6,53.9"/>
			<path class="st0" d="M916.3,283c-18.8,35.9-32.6,13.8-56,42.3"/>
			<path class="st0" d="M881.7,248.1c-36.1,18.5-18.4,26.6-48.6,47.7"/>
			<path class="st0" d="M881.7,248.1c-36.1,18.5-26.2,13.6-59,30.5"/>
			<path class="st0" d="M890,243.8l-8.4,4.3c-36.1,18.5-32.2-0.2-66.9,11.9"/>
			<path class="st0" d="M872.8,210.7c-40.6-0.2-29.2,7.6-66.1,9.9"/>
			<path class="st0" d="M878.4,210.6h-5.6c-40.6-0.2-29.2-7.5-66-10.2"/>
			<path class="st0" d="M884.8,168.6c-34.5-21.3-34.9,5.1-69.6-7.4"/>
			<path class="st0" d="M884.8,168.6c-34.5-21.3-28.8-8.7-61.5-25.8"/>
			<path class="st0" d="M884.8,168.6c-34.5-21.3-20.9-21.6-51-43"/>
			<path class="st0" d="M891.8,173.1l-7-4.5c-34.5-21.3-11.3-33.2-38.2-58.6"/>
			<path class="st0" d="M922,136.5c-16-37.3-25.1-20.1-44.1-51.7"/>
			<path class="st0" d="M922,136.5l-26.2-60.8"/>
			<path class="st0" d="M926,146.1l-4-9.6c-16-37.3,2.6-31.9-7.2-67.5"/>
		</g>
		<circle class="st1" cx="954" cy="211.3" r="3.9"/>
		<text transform="matrix(0.2079 -0.9781 0.9781 0.2079 967.257 162.9778)" class="st2 st3 st4">Apollo</text>
		<circle class="st1" cx="963.2" cy="168.5" r="2.4"/>
		<circle class="st1" cx="954.6" cy="63.7" r="3.9"/>
		<text transform="matrix(5.235960e-03 -1 1 5.235960e-03 957.5656 57.5057)" class="st2 st3 st4">Hobo Spider</text>
		<circle class="st1" cx="974.7" cy="65.2" r="3.9"/>
		<text transform="matrix(0.14 -0.9901 0.9901 0.14 978.439 59.4118)" class="st2 st3 st5">Giant House </text>
		<circle class="st1" cx="994.4" cy="69.3" r="3.9"/>
		<text transform="matrix(0.274 -0.9617 0.9617 0.274 998.8589 64.1845)" class="st2 st3 st4">Domestic </text>
		<circle class="st1" cx="1013.4" cy="76.2" r="3.9"/>
		<text transform="matrix(0.4019 -0.9157 0.9157 0.4019 1018.4857 71.6777)" class="st2 st3 st4">Dust Spider</text>
		<text transform="matrix(0.8211 -0.5708 0.5708 0.8211 995.2167 185.7663)" class="st2 st3 st6">Artemis</text>
		<circle class="st1" cx="990.3" cy="186.4" r="2.4"/>
		<circle class="st1" cx="1047.6" cy="97.3" r="3.9"/>
		<text transform="matrix(0.6347 -0.7727 0.7727 0.6347 1053.7518 94.2383)" class="st2 st3 st4">Giant Orb </text>
		<text transform="matrix(0.6347 -0.7727 0.7727 0.6347 1081.0474 61.0082)" class="st2 st3 st4">W</text>
		<text transform="matrix(0.6347 -0.7727 0.7727 0.6347 1086.5271 54.3369)" class="st2 st3 st4">eaver</text>
		<circle class="st1" cx="1062.2" cy="111" r="3.9"/>
		<text transform="matrix(0.7337 -0.6794 0.6794 0.7337 1068.7389 108.898)" class="st2 st3 st4">Cross Orb </text>
		<text transform="matrix(0.7337 -0.6794 0.6794 0.7337 1101.7854 78.2965)" class="st2 st3 st4">W</text>
		<text transform="matrix(0.7337 -0.6794 0.6794 0.7337 1108.12 72.4307)" class="st2 st3 st4">eaver</text>
		<circle class="st1" cx="1074.8" cy="126.7" r="3.9"/>
		<text transform="matrix(0.8211 -0.5708 0.5708 0.8211 1081.6313 125.5132)" class="st2 st3 st6">Banded Garden Spider</text>
		<circle class="st1" cx="1085.3" cy="144" r="3.9"/>
		<text transform="matrix(0.8884 -0.4592 0.4592 0.8884 1092.1138 143.7015)" class="st2 st3 st7">Golden Orb </text>
		<text transform="matrix(0.8884 -0.4592 0.4592 0.8884 1137.2732 120.3606)" class="st2 st3 st7">W</text>
		<text transform="matrix(0.8884 -0.4592 0.4592 0.8884 1144.9568 116.3894)" class="st2 st3 st7">eaver </text>
		<circle class="st1" cx="1093.2" cy="162.5" r="3.9"/>
		<text transform="matrix(0.9438 -0.3305 0.3305 0.9438 1100.0133 163.1414)" class="st2 st3 st4">Long-Jawed Orb </text>
		<text transform="matrix(0.9438 -0.3305 0.3305 0.9438 1167.5035 139.5056)" class="st2 st3 st4">W</text>
		<text transform="matrix(0.9438 -0.3305 0.3305 0.9438 1175.6516 136.6522)" class="st2 st3 st4">eaver </text>
		<text transform="matrix(1 5.235960e-03 -5.235960e-03 1 1001.0563 213.5564)" class="st2 st3 st4">Hermes</text>
		<circle class="st1" cx="998.3" cy="212" r="2.4"/>
		<circle class="st1" cx="1101.2" cy="201.8" r="3.9"/>
		<text transform="matrix(0.9982 -5.989229e-02 5.989229e-02 0.9982 1107.5792 204.3367)" class="st2 st3 st8">Brazilian </text>
		<text transform="matrix(0.9982 -5.989229e-02 5.989229e-02 0.9982 1145.9409 202.035)" class="st2 st3 st8">W</text>
		<text transform="matrix(0.9982 -5.989229e-02 5.989229e-02 0.9982 1154.3286 201.5318)" class="st2 st3 st8">andering </text>
		<circle class="st1" cx="1101.1" cy="222" r="3.9"/>
		<text transform="matrix(0.9973 7.323820e-02 -7.323820e-02 0.9973 1107.0988 225.284)" class="st2 st3 st4">Fishing Spider</text>
		<text transform="matrix(0.8854 0.4648 -0.4648 0.8854 997.7177 236.4423)" class="st2 st3 st4">Athena</text>
		<circle class="st1" cx="993.2" cy="232.4" r="2.4"/>
		<circle class="st1" cx="1092.8" cy="261.3" r="3.9"/>
		<text transform="matrix(0.9409 0.3387 -0.3387 0.9409 1097.5712 266.0899)" class="st2 st3 st4">Black House Spider</text>
		<circle class="st1" cx="1084.6" cy="279.7" r="3.9"/>
		<text transform="matrix(0.8854 0.4648 -0.4648 0.8854 1088.7732 285.1465)" class="st2 st3 st4">Brown House Spider</text>
		<circle class="st1" cx="1074.1" cy="296.9" r="3.9"/>
		<text transform="matrix(0.8141 0.5807 -0.5807 0.8141 1077.4525 302.8199)" class="st2 st3 st4">Hollow</text>
		<text transform="matrix(0.8141 0.5807 -0.5807 0.8141 1102.1852 320.4618)" class="st2 st3 st4">T</text>
		<text transform="matrix(0.8141 0.5807 -0.5807 0.8141 1106.4291 323.4889)" class="st2 st3 st4">wig Spider</text>
		<text transform="matrix(0.5708 0.8211 -0.8211 0.5708 979.5059 251.4851)" class="st2 st3 st6">Hypnos</text>
		<circle class="st1" cx="979.4" cy="248.1" r="2.4"/>
		<circle class="st1" cx="1046.5" cy="326.1" r="3.9"/>
		<text transform="matrix(0.6283 0.7779 -0.7779 0.6283 1048.1812 332.7766)" class="st2 st3 st9">Southern House </text>
		<circle class="st1" cx="1030.1" cy="337.7" r="3.9"/>
		<text transform="matrix(0.515 0.8572 -0.8572 0.515 1030.7837 344.4388)" class="st2 st3 st4">Arizona Black</text>
		<text transform="matrix(-0.1323 -0.9912 0.9912 -0.1323 964.8948 271.9517)" class="st2 st3 st4">Iris</text>
		<circle class="st1" cx="959.8" cy="255.7" r="2.4"/>
		<circle class="st1" cx="993.1" cy="353.5" r="3.9"/>
		<text transform="matrix(0.2656 0.9641 -0.9641 0.2656 991.9347 360.2395)" class="st2 st3 st4">Carolina </text>
		<text transform="matrix(0.2656 0.9641 -0.9641 0.2656 1001.8404 396.2019)" class="st2 st3 st4">W</text>
		<circle class="st1" cx="973.4" cy="357.6" r="3.9"/>
		<text transform="matrix(-0.1323 -0.9912 0.9912 -0.1323 983.376 410.9087)" class="st2 st3 st4">W</text>
		<text transform="matrix(-0.1323 -0.9912 0.9912 -0.1323 982.2342 402.3508)" class="st2 st3 st4">olf Spider</text>
		<circle class="st1" cx="953.2" cy="358.8" r="3.9"/>
		<text transform="matrix(5.235960e-03 -1 1 5.235960e-03 955.9141 413.0171)" class="st2 st3 st4">W</text>
		<text transform="matrix(5.235960e-03 -1 1 5.235960e-03 955.9593 404.3834)" class="st2 st3 st4">olf Spider</text>
		<text transform="matrix(0.4648 -0.8854 0.8854 0.4648 922.1361 278.7942)" class="st2 st3 st4">Janus</text>
		<circle class="st1" cx="933.5" cy="251" r="2.4"/>
		<circle class="st1" cx="913.5" cy="353.2" r="3.9"/>
		<text transform="matrix(0.274 -0.9617 0.9617 0.274 899.8217 411.7147)" class="st2 st3 st4">Cellar Spider</text>
		<circle class="st1" cx="894.5" cy="346.3" r="3.9"/>
		<text transform="matrix(0.4019 -0.9157 0.9157 0.4019 866.7141 416.6455)" class="st2 st3 st4">       Y ellow  Sac</text>
		<circle class="st1" cx="876.7" cy="336.9" r="3.9"/>
		<text transform="matrix(0.524 -0.8517 0.8517 0.524 844.1923 395.4249)" class="st2 st3 st4">Ground Spider</text>
		<circle class="st1" cx="860.3" cy="325.3" r="3.9"/>
		<text transform="matrix(0.6347 -0.7727 0.7727 0.6347 798.0935 405.6049)" class="st2 st3 st4">           Banded Garden </text>
		<text transform="matrix(0.8902 -0.4555 0.4555 0.8902 892.3271 245.7274)" class="st2 st3 st4">Nike</text>
		<circle class="st1" cx="914.6" cy="232" r="2.4"/>
		<circle class="st1" cx="833" cy="295.8" r="3.9"/>
		<text transform="matrix(0.8211 -0.5708 0.5708 0.8211 759.0894 350.9703)" class="st2 st3 st6">            Bold Jumping</text>
		<circle class="st1" cx="822.6" cy="278.5" r="3.9"/>
		<text transform="matrix(0.8902 -0.4555 0.4555 0.8902 736.8474 325.7072)" class="st2 st3 st4">           Zebra Jumping</text>
		<circle class="st1" cx="814.7" cy="260" r="3.9"/>
		<text transform="matrix(0.9438 -0.3305 0.3305 0.9438 737.3745 290.1492)" class="st2 st3 st4">       Wall Jumping</text>
		<text transform="matrix(1 5.235960e-03 -5.235960e-03 1 882.1465 213.6379)" class="st2 st3 st4">Zeus</text>
		<circle class="st1" cx="909.8" cy="211.6" r="2.4"/>
		<circle class="st1" cx="806.7" cy="220.6" r="3.9"/>
		<text transform="matrix(0.9982 -5.989229e-02 5.989229e-02 0.9982 744.8451 227.4753)" class="st2 st3 st8">Brown Spider</text>
		<circle class="st1" cx="806.8" cy="200.5" r="3.9"/>
		<text transform="matrix(0.9976 6.982914e-02 -6.982914e-02 0.9976 708.4212 196.208)" class="st2 st3 st10">           Brown Recluse</text>
		<text transform="matrix(0.8517 0.524 -0.524 0.8517 892.0834 175.6027)" class="st2 st3 st4">Hera</text>
		<circle class="st1" cx="916.3" cy="188.6" r="2.4"/>
		<circle class="st1" cx="815.1" cy="161.2" r="3.9"/>
		<text transform="matrix(0.9409 0.3387 -0.3387 0.9409 730.332 133.6588)" class="st2 st3 st4">           King Baboon</text>
		<circle class="st1" cx="823.3" cy="142.8" r="3.9"/>
		<text transform="matrix(0.8854 0.4648 -0.4648 0.8854 749.8782 107.5949)" class="st2 st3 st4">Bird Eating Spider</text>
		<circle class="st1" cx="833.8" cy="125.6" r="3.9"/>
		<text transform="matrix(0.8141 0.5807 -0.5807 0.8141 775.6007 87.6697)" class="st2 st3 st4"> Pink Tarantula </text>
		<circle class="st1" cx="846.6" cy="110" r="3.9"/>
		<text transform="matrix(0.7278 0.6858 -0.6858 0.7278 788.1969 57.5251)" class="st2 st3 st4">Ornamental</text>
		<text transform="matrix(0.7278 0.6858 -0.6858 0.7278 825.4211 92.604)" class="st2 st3 st4">T</text>
		<text transform="matrix(0.7278 0.6858 -0.6858 0.7278 829.2731 96.234)" class="st2 st3 st4">ree</text>
		<text transform="matrix(0.3939 0.9191 -0.9191 0.3939 924.1718 148.9687)" class="st2 st3 st4">Ares</text>
		<circle class="st1" cx="936.6" cy="171.1" r="2.4"/>
		<circle class="st1" cx="877.8" cy="84.8" r="3.9"/>
		<text transform="matrix(0.515 0.8572 -0.8572 0.515 829.4502 10.023)" class="st2 st3 st4">           Black Widow </text>
		<circle class="st1" cx="895.7" cy="75.7" r="3.9"/>
		<text transform="matrix(0.3939 0.9191 -0.9191 0.3939 856.5716 -8.4656)" class="st2 st3 st4">           Brown Widow </text>
		<circle class="st1" cx="914.8" cy="69" r="3.9"/>
		<text transform="matrix(0.2707 0.9627 -0.9627 0.2707 889.8763 -10.6545)" class="st11"><tspan x="0" y="0" class="st2 st3 st4">           </tspan><tspan x="28.5" y="0" class="st2 st3 st12">Red Widow</tspan></text>
		<path class="st0" d="M954,211.3c8.8-18.2,1.9-19.4,9.5-42.8"/>
		<path class="st0" d="M954,211.3c18.7-7.2,14.6-12.9,36.2-24.8"/>
		<path class="st0" d="M954,211.3c19.5,5,19.3-2,43.8,0.7"/>
		<path class="st0" d="M954,211.3c15.1,13.4,18.1,7.1,38.6,20.7"/>
		<path class="st0" d="M954,211.3c7.2,18.7,12.9,14.6,24.9,36.1"/>
		<path class="st0" d="M954,211.3c-2,20,4.8,18.8,5.7,43.4"/>
		<path class="st0" d="M954,211.3c-13.1,15.2-6.8,18.2-20.1,38.9"/>
		<path class="st0" d="M954,211.3c-19.5,5-16,11.1-38.8,20.4"/>
		<path class="st0" d="M954,211.3c-19.7-4.6-19.4,2.4-43.9,0.3"/>
		<path class="st0" d="M954,211.3c-14.4-14.1-17.8-8-37.6-22.6"/>
		<path class="st0" d="M954,211.3c-3.6-19.9-9.9-16.9-17.4-40.3"/>
	</g>
</g>
</svg>
