<?xml version="1.0" encoding="utf-8"?>
<!-- Generator: Adobe Illustrator 22.1.0, SVG Export Plug-In . SVG Version: 6.00 Build 0)  -->
<svg version="1.1" id="Layer_1" xmlns="http://www.w3.org/2000/svg" xmlns:xlink="http://www.w3.org/1999/xlink" x="0px" y="0px"
	 viewBox="0 0 800 852" style="enable-background:new 0 0 800 852;" xml:space="preserve">
<style type="text/css">
	.st0{fill:#A5A5B9;}
	.st1{font-family:'RobotoMono-Regular';}
	.st2{font-size:17.6832px;}
	.st3{fill:none;stroke:#A8A8A8;stroke-width:1.1052;stroke-miterlimit:10;}
	.st4{fill:#C6C6C6;}
	.st5{opacity:0.53;fill:#CCCCCC;enable-background:new    ;}
	
		.st6{opacity:0.8;fill:none;stroke:#A8A8A8;stroke-width:1.6578;stroke-linecap:round;stroke-miterlimit:10;stroke-dasharray:0,3.3156;enable-background:new    ;}
	.st7{fill:#514361;}
	.st8{font-family:'Roboto-Italic';}
	.st9{font-size:19.8936px;}
	.st10{font-size:30.9456px;}
	.st11{opacity:0.53;fill:#DDDDDD;enable-background:new    ;}
	.st12{opacity:0.7;fill:#DDDDDD;enable-background:new    ;}
	.st13{opacity:0.7;fill:#BEBEBE;enable-background:new    ;}
	.st14{opacity:0.7;fill:#7A7A7A;enable-background:new    ;}
	.st15{font-size:13.2624px;}
	.st16{fill:none;stroke:#DDDDDD;stroke-width:1.1052;stroke-miterlimit:10;}
	.st17{fill:none;}
	.st18{fill:#EFEFEF;stroke:#9E9E9E;stroke-width:0.5526;stroke-miterlimit:10;}
	.st19{clip-path:url(#SVGID_2_);}
	.st20{fill:none;stroke:#C1C1C1;stroke-width:0.3948;stroke-miterlimit:10;}
	.st21{clip-path:url(#SVGID_4_);}
	.st22{fill:none;stroke:#C1C1C1;stroke-width:0.5526;stroke-miterlimit:10;}
	.st23{fill:none;stroke:#A8A8A8;stroke-width:1.6578;stroke-linecap:round;stroke-miterlimit:10;stroke-dasharray:0,3.3156;}
</style>
<text transform="matrix(1 0 0 1 30.3926 714.8242)" class="st0 st1 st2">0</text>
<text transform="matrix(1 0 0 1 165.7935 714.8242)" class="st0 st1 st2">20</text>
<text transform="matrix(1 0 0 1 298.8081 714.8242)" class="st0 st1 st2">40</text>
<text transform="matrix(1 0 0 1 431.8232 714.8242)" class="st0 st1 st2">60</text>
<text transform="matrix(1 0 0 1 564.8369 714.8242)" class="st0 st1 st2">80</text>
<text transform="matrix(1 0 0 1 689.8555 714.8242)" class="st0 st1 st2">100</text>
<path class="st3" d="M47.6,689.9h665.1"/>
<path class="st3" d="M47.6,689.9v-16.6"/>
<path class="st3" d="M180.7,689.9v-16.6"/>
<path class="st3" d="M313.6,689.9v-16.6"/>
<path class="st3" d="M446.7,689.9v-16.6"/>
<path class="st3" d="M579.8,689.9v-16.6"/>
<text transform="matrix(1 0 0 1 16.3418 561.9375)" class="st0 st1 st2">20</text>
<text transform="matrix(1 0 0 1 16.3418 428.9238)" class="st0 st1 st2">40</text>
<text transform="matrix(1 0 0 1 16.3418 295.9097)" class="st0 st1 st2">60</text>
<text transform="matrix(1 0 0 1 16.3418 162.8945)" class="st0 st1 st2">80</text>
<text transform="matrix(1 0 0 1 3.665 29.8804)" class="st0 st1 st2">100</text>
<path class="st3" d="M47.6,689.9V24.8"/>
<path class="st3" d="M47.6,689.9h16.7"/>
<path class="st3" d="M47.6,556.8h16.7"/>
<path class="st3" d="M47.6,423.9h16.7"/>
<path class="st3" d="M47.6,290.8h16.7"/>
<path class="st3" d="M47.6,157.9h16.7"/>
<path class="st3" d="M47.6,24.8h16.7"/>
<circle class="st4" cx="180.3" cy="562.7" r="33.6"/>
<ellipse class="st4" cx="544.2" cy="499.4" rx="41.8" ry="43.8"/>
<circle class="st5" cx="617.1" cy="343.9" r="80.1"/>
<path class="st6" d="M314.1,667.8V291.7"/>
<path class="st6" d="M314.1,290.6H80.5"/>
<g>
	<text transform="matrix(1 0 0 1 141.1568 322.3999)" class="st7 st8 st9">value Y</text>
</g>
<text transform="matrix(1 0 0 1 72.1602 33.8)" class="st7 st1 st10">Y axis</text>
<g>
	<text transform="matrix(1 0 0 1 329.1821 580.3744)" class="st7 st8 st9">value X</text>
</g>
<circle class="st5" cx="313.6" cy="290.6" r="79"/>
<circle class="st4" cx="237.3" cy="763.6" r="17.1"/>
<circle class="st11" cx="237.3" cy="822" r="17.1"/>
<text transform="matrix(1 0 0 1 267.2923 769.457)" class="st0 st1 st2">category 1</text>
<text transform="matrix(1 0 0 1 266.1868 828.8984)" class="st0 st1 st2">category 2</text>
<circle class="st12" cx="503.2" cy="792.6" r="55.3"/>
<circle class="st13" cx="503.2" cy="812.1" r="35.9"/>
<circle class="st14" cx="503.2" cy="823.1" r="24.9"/>
<text transform="matrix(1 0 0 1 408.8274 830.4023)" class="st0 st1 st15">100</text>
<text transform="matrix(1 0 0 1 408.8274 757.1808)" class="st0 st1 st15">500</text>
<text transform="matrix(1 0 0 1 408.8274 792.546)" class="st0 st1 st15">200</text>
<path class="st16" d="M436.5,826.3h66.3"/>
<path class="st16" d="M436.5,788.6h66.3"/>
<path class="st16" d="M436.5,753.2h66.3"/>
<path class="st6" d="M206.6,843H179V742.5h27.6"/>
<text transform="matrix(1 0 0 1 78.5 72.2277)" class="st7 st8 st9">dependent</text>
<text transform="matrix(1 0 0 1 78.5 96.0277)" class="st7 st8 st9">variable</text>
<text transform="matrix(1 0 0 1 30.3926 806.9479)" class="st7 st1 st10">legend</text>
<text transform="matrix(1 0 0 1 426.4443 194.8414)" class="st7 st1 st10">scaled circle</text>
<path class="st17" d="M419.6,193.2h206v60.3h-206L419.6,193.2z"/>
<text transform="matrix(1 0 0 1 426.6016 221.3961)" class="st7 st8 st9">shown by circle area </text>
<g>
	<circle class="st18" cx="701.1" cy="121.6" r="47.9"/>
	<g>
		<g>
			<defs>
				<circle id="SVGID_1_" cx="701.1" cy="121.6" r="47.9"/>
			</defs>
			<clipPath id="SVGID_2_">
				<use xlink:href="#SVGID_1_"  style="overflow:visible;"/>
			</clipPath>
			<g class="st19">
				<path class="st20" d="M633.3,121.9l67.8-67.8l67.8,67.8l-67.8,67.8L633.3,121.9z"/>
				<path class="st20" d="M764.7,117.6L697,185.5"/>
				<path class="st20" d="M760.5,113.4l-67.9,67.9"/>
				<path class="st20" d="M756.3,109.2L688.4,177"/>
				<path class="st20" d="M752,104.9l-67.7,67.9"/>
				<path class="st20" d="M747.8,100.7l-67.9,67.9"/>
				<path class="st20" d="M743.6,96.5l-67.9,67.7"/>
				<path class="st20" d="M739.2,92.2l-67.7,67.9"/>
				<path class="st20" d="M735,88l-67.9,67.9"/>
				<path class="st20" d="M730.8,83.8L663,151.6"/>
				<path class="st20" d="M726.5,79.5l-67.7,67.9"/>
				<path class="st20" d="M722.3,75.3l-67.9,67.9"/>
				<path class="st20" d="M718,71.1l-67.7,67.7"/>
				<path class="st20" d="M713.8,66.8L646,134.6"/>
				<path class="st20" d="M709.6,62.6l-67.9,67.9"/>
				<path class="st20" d="M705.3,58.4l-67.7,67.7"/>
			</g>
		</g>
	</g>
	<circle class="st18" cx="447.3" cy="87" r="31.7"/>
	<g>
		<g>
			<defs>
				<circle id="SVGID_3_" cx="447.3" cy="87" r="31.7"/>
			</defs>
			<clipPath id="SVGID_4_">
				<use xlink:href="#SVGID_3_"  style="overflow:visible;"/>
			</clipPath>
			<g class="st21">
				<path class="st22" d="M460.4,28.7L507,75.3"/>
				<path class="st22" d="M439.2,143.2l-46.6-46.6"/>
				<path class="st22" d="M507,75.3l-67.9,67.9"/>
				<path class="st22" d="M502.8,71.1L435,138.8"/>
				<path class="st22" d="M498.5,66.8l-67.7,67.9"/>
				<path class="st22" d="M494.3,62.6l-67.9,67.9"/>
				<path class="st22" d="M490,58.4l-67.7,67.7"/>
				<path class="st22" d="M485.8,54.1L418,121.9"/>
				<path class="st22" d="M481.6,49.9l-67.9,67.7"/>
				<path class="st22" d="M477.3,45.7l-67.7,67.7"/>
				<path class="st22" d="M473.1,41.4l-67.9,67.9"/>
				<path class="st22" d="M468.9,37.2L401,104.9"/>
				<path class="st22" d="M464.6,32.9l-67.7,67.9"/>
				<path class="st22" d="M460.4,28.7l-67.9,67.9"/>
			</g>
		</g>
	</g>
	<path class="st23" d="M697,73.1L457.6,55.7"/>
	<path class="st23" d="M680.2,166.1l-234.4-46.5"/>
</g>
<circle class="st5" cx="457.6" cy="371.5" r="49.1"/>
<ellipse class="st4" cx="264.5" cy="470" rx="22.8" ry="23.9"/>
<ellipse transform="matrix(0.3162 -0.9487 0.9487 0.3162 79.8037 665.1207)" class="st5" cx="501.3" cy="277.2" rx="28.1" ry="28.1"/>
<circle class="st5" cx="314.7" cy="118.7" r="47.9"/>
<text transform="matrix(1 0 0 1 678.4 757.8448)" class="st7 st1 st10">X axis</text>
<text transform="matrix(1 0 0 1 680.4001 788.2499)" class="st7 st8 st9">independent</text>
<text transform="matrix(1 0 0 1 680.4001 812.0499)" class="st7 st8 st9">variable</text>
</svg>
