<svg enable-background="new 0 0 1268 418" viewBox="0 0 1268 418" xmlns="http://www.w3.org/2000/svg" xmlns:xlink="http://www.w3.org/1999/xlink"><symbol id="a" viewBox="-30.5 -9.8 60.9 19.7"><path d="m-30.5-9.8h60.9v6.4h-60.9zm0 13.1h60.9v6.5h-60.9z" fill="#e5e5e5"/></symbol><clipPath id="b"><path d="m420.6 231.7h102.7v33.1h-102.7z"/></clipPath><clipPath id="c"><path d="m580.5 231.7h102.7v33.1h-102.7z"/></clipPath><clipPath id="d"><path d="m740.2 231.7h102.7v33.1h-102.7z"/></clipPath><clipPath id="e"><path d="m902.5 231.7h102.7v33.1h-102.7z"/></clipPath><clipPath id="f"><path d="m420.6 86h102.7v33.1h-102.7z"/></clipPath><clipPath id="g"><path d="m261.1 86h102.7v33.1h-102.7z"/></clipPath><clipPath id="h"><path d="m580.5 86h102.7v33.1h-102.7z"/></clipPath><clipPath id="i"><path d="m740.2 86h102.7v33.1h-102.7z"/></clipPath><clipPath id="j"><path d="m902.5 86h102.7v33.1h-102.7z"/></clipPath><clipPath id="k"><path d="m1062.9 86h102.7v33.1h-102.7z"/></clipPath><clipPath id="l"><path d="m420.6 377.4h102.7v33.1h-102.7z"/></clipPath><clipPath id="m"><path d="m261.1 377.4h102.7v33.1h-102.7z"/></clipPath><clipPath id="n"><path d="m102.4 377.4h102.7v33.1h-102.7z"/></clipPath><clipPath id="o"><path d="m580.5 377.4h102.7v33.1h-102.7z"/></clipPath><clipPath id="p"><path d="m740.2 377.4h102.7v33.1h-102.7z"/></clipPath><clipPath id="q"><path d="m902.5 377.4h102.7v33.1h-102.7z"/></clipPath><clipPath id="r"><path d="m1062.9 377.4h102.7v33.1h-102.7z"/></clipPath><path d="m1029.4 191.6s-500.3-.2-608.6 0-1.9 146.2-108.8 146" fill="none" stroke="#a39cb9" stroke-miterlimit="10" stroke-width="6.7362"/><text fill="#a39cb9" font-family="'RobotoCondensed-Regular'" font-size="13.4725" transform="translate(458.96 219.0566)">2005</text><text fill="#b0b0b0" font-family="'RobotoCondensed-Regular'" font-size="19.3667" transform="translate(445.9927 169.8813)">launch</text><g clip-path="url(#b)" transform="translate(0 .000015)"><use height="19.7" transform="matrix(1.6841 0 0 1.6841 471.9274 248.2575)" width="60.9" x="-30.5" xlink:href="#a" y="-9.8"/></g><circle cx="473.9" cy="191.9" fill="#a39cb9" r="10.1" stroke="#fff" stroke-miterlimit="10" stroke-width="4.7659"/><text fill="#a39cb9" font-family="'RobotoCondensed-Regular'" font-size="13.4725" transform="translate(624.5034 219.0566)">2010</text><text fill="#b0b0b0" font-family="'RobotoCondensed-Regular'" font-size="19.3667" transform="translate(610.8623 169.8813)">g</text><text fill="#b0b0b0" font-family="'RobotoCondensed-Regular'" font-size="19.3667" transform="translate(620.4614 169.8813)">r</text><text fill="#b0b0b0" font-family="'RobotoCondensed-Regular'" font-size="19.3667" transform="translate(626.1875 169.8813)">owth</text><g clip-path="url(#c)" transform="translate(0 .000015)"><use height="19.7" transform="matrix(1.6841 0 0 1.6841 631.9133 248.2575)" width="60.9" x="-30.5" xlink:href="#a" y="-9.8"/></g><circle cx="637.1" cy="191.9" fill="#a39cb9" r="10.1" stroke="#fff" stroke-miterlimit="10" stroke-width="4.7659"/><text fill="#a39cb9" font-family="'RobotoCondensed-Regular'" font-size="13.4725" transform="translate(778.4268 219.0566)">2015</text><text fill="#b0b0b0" font-family="'RobotoCondensed-Regular'" font-size="19.3667" transform="translate(763.7754 169.8813)">t</text><text fill="#b0b0b0" font-family="'RobotoCondensed-Regular'" font-size="19.3667" transform="translate(769.501 169.8813)">r</text><text fill="#b0b0b0" font-family="'RobotoCondensed-Regular'" font-size="19.3667" transform="translate(775.0586 169.8813)">action</text><g clip-path="url(#d)" transform="translate(0 .000015)"><use height="19.7" transform="matrix(1.6841 0 0 1.6841 791.5624 248.2575)" width="60.9" x="-30.5" xlink:href="#a" y="-9.8"/></g><circle cx="793.1" cy="191.9" fill="#a39cb9" r="10.1" stroke="#fff" stroke-miterlimit="10" stroke-width="4.7659"/><text fill="#b0b0b0" font-family="'RobotoCondensed-Regular'" font-size="19.3667" transform="translate(943.6328 169.8813)">IPO</text><text fill="#a39cb9" font-family="'RobotoCondensed-Regular'" font-size="13.4725" transform="translate(947.1699 219.0566)">2010</text><g clip-path="url(#e)" transform="translate(0 .000015)"><use height="19.7" transform="matrix(1.6841 0 0 1.6841 953.906 248.2575)" width="60.9" x="-30.5" xlink:href="#a" y="-9.8"/></g><circle cx="959.8" cy="191.9" fill="#a39cb9" r="10.1" stroke="#fff" stroke-miterlimit="10" stroke-width="4.7659"/><path d="m1165.6 45.9s-799.1-.5-904.5-.2-1.7 291.9-106.1 291.9" fill="none" stroke="#a39cb9" stroke-miterlimit="10" stroke-width="6.7362"/><text fill="#a39cb9" font-family="'RobotoCondensed-Regular'" font-size="13.4725" transform="translate(458.96 73.3848)">2005</text><text fill="#b0b0b0" font-family="'RobotoCondensed-Regular'" font-size="19.3667" transform="translate(445.9927 24.21)">launch</text><g clip-path="url(#f)"><use height="19.7" transform="matrix(1.6841 0 0 1.6841 471.9274 102.5861)" width="60.9" x="-30.5" xlink:href="#a" y="-9.8"/></g><circle cx="473.9" cy="46.1" fill="#a39cb9" r="10.1" stroke="#fff" stroke-miterlimit="10" stroke-width="4.7659"/><text fill="#a39cb9" font-family="'RobotoCondensed-Regular'" font-size="13.4725" transform="translate(302.5107 73.3848)">2002</text><text fill="#b0b0b0" font-family="'RobotoCondensed-Regular'" font-size="19.3667" transform="translate(296.9531 24.21)">MVP</text><g clip-path="url(#g)"><use height="19.7" transform="matrix(1.6841 0 0 1.6841 312.4468 102.5861)" width="60.9" x="-30.5" xlink:href="#a" y="-9.8"/></g><circle cx="311.9" cy="46.1" fill="#a39cb9" r="10.1" stroke="#fff" stroke-miterlimit="10" stroke-width="4.7659"/><text fill="#a39cb9" font-family="'RobotoCondensed-Regular'" font-size="13.4725" transform="translate(624.5034 73.3848)">2010</text><text fill="#b0b0b0" font-family="'RobotoCondensed-Regular'" font-size="19.3667" transform="translate(610.8623 24.21)">g</text><text fill="#b0b0b0" font-family="'RobotoCondensed-Regular'" font-size="19.3667" transform="translate(620.4614 24.21)">r</text><text fill="#b0b0b0" font-family="'RobotoCondensed-Regular'" font-size="19.3667" transform="translate(626.1875 24.21)">owth</text><g clip-path="url(#h)"><use height="19.7" transform="matrix(1.6841 0 0 1.6841 631.9133 102.5861)" width="60.9" x="-30.5" xlink:href="#a" y="-9.8"/></g><circle cx="637.1" cy="46.1" fill="#a39cb9" r="10.1" stroke="#fff" stroke-miterlimit="10" stroke-width="4.7659"/><text fill="#a39cb9" font-family="'RobotoCondensed-Regular'" font-size="13.4725" transform="translate(778.4268 73.3848)">2015</text><text fill="#b0b0b0" font-family="'RobotoCondensed-Regular'" font-size="19.3667" transform="translate(763.7754 24.21)">t</text><text fill="#b0b0b0" font-family="'RobotoCondensed-Regular'" font-size="19.3667" transform="translate(769.501 24.21)">r</text><text fill="#b0b0b0" font-family="'RobotoCondensed-Regular'" font-size="19.3667" transform="translate(775.0586 24.21)">action</text><g clip-path="url(#i)"><use height="19.7" transform="matrix(1.6841 0 0 1.6841 791.5624 102.5861)" width="60.9" x="-30.5" xlink:href="#a" y="-9.8"/></g><circle cx="793.1" cy="46.1" fill="#a39cb9" r="10.1" stroke="#fff" stroke-miterlimit="10" stroke-width="4.7659"/><text fill="#b0b0b0" font-family="'RobotoCondensed-Regular'" font-size="19.3667" transform="translate(943.6328 24.21)">IPO</text><text fill="#a39cb9" font-family="'RobotoCondensed-Regular'" font-size="13.4725" transform="translate(947.1699 73.3848)">2010</text><g clip-path="url(#j)"><use height="19.7" transform="matrix(1.6841 0 0 1.6841 953.906 102.5861)" width="60.9" x="-30.5" xlink:href="#a" y="-9.8"/></g><circle cx="959.8" cy="46.1" fill="#a39cb9" r="10.1" stroke="#fff" stroke-miterlimit="10" stroke-width="4.7659"/><text fill="#a39cb9" font-family="'RobotoCondensed-Regular'" font-size="13.4725" transform="translate(1101.0928 73.3848)">2015</text><text fill="#b0b0b0" font-family="'RobotoCondensed-Regular'" font-size="19.3667" transform="translate(1082.7363 24.21)">acqui</text><text fill="#b0b0b0" font-family="'RobotoCondensed-Regular'" font-size="19.3667" transform="translate(1124.502 24.21)">r</text><text fill="#b0b0b0" font-family="'RobotoCondensed-Regular'" font-size="19.3667" transform="translate(1130.2266 24.21)">ed</text><g clip-path="url(#k)"><use height="19.7" transform="matrix(1.6841 0 0 1.6841 1114.2286 102.5861)" width="60.9" x="-30.5" xlink:href="#a" y="-9.8"/></g><circle cx="1115.7" cy="46.1" fill="#a39cb9" r="10.1" stroke="#fff" stroke-miterlimit="10" stroke-width="4.7659"/><path d="m1165.6 337.3h-1063.5" fill="none" stroke="#a39cb9" stroke-miterlimit="10" stroke-width="10.1044"/><text fill="#a39cb9" font-family="'RobotoCondensed-Regular'" font-size="13.4725" transform="translate(458.96 364.7275)">2005</text><text fill="#b0b0b0" font-family="'RobotoCondensed-Regular'" font-size="19.3667" transform="translate(445.9927 315.7207)">launch</text><g clip-path="url(#l)"><use height="19.7" transform="matrix(1.6841 0 0 1.6841 471.9274 393.9288)" width="60.9" x="-30.5" xlink:href="#a" y="-9.8"/></g><circle cx="473.9" cy="337.6" fill="#a39cb9" r="10.1" stroke="#fff" stroke-miterlimit="10" stroke-width="4.7659"/><text fill="#a39cb9" font-family="'RobotoCondensed-Regular'" font-size="13.4725" transform="translate(302.5107 364.7275)">2002</text><text fill="#b0b0b0" font-family="'RobotoCondensed-Regular'" font-size="19.3667" transform="translate(296.9531 315.7207)">MVP</text><g clip-path="url(#m)"><use height="19.7" transform="matrix(1.6841 0 0 1.6841 312.4468 393.9288)" width="60.9" x="-30.5" xlink:href="#a" y="-9.8"/></g><circle cx="311.9" cy="337.6" fill="#a39cb9" r="10.1" stroke="#fff" stroke-miterlimit="10" stroke-width="4.7659"/><g font-family="'RobotoCondensed-Regular'"><text fill="#a39cb9" font-size="13.4725" transform="translate(142.3564 364.7275)">2001</text><text fill="#b0b0b0" font-size="19.3667" transform="translate(104.6333 315.7207)">disc</text><text fill="#b0b0b0" font-size="19.3667" transform="translate(136.4624 315.7207)">o</text><text fill="#b0b0b0" font-size="19.3667" transform="translate(146.0615 315.7207)">v</text><text fill="#b0b0b0" font-size="19.3667" transform="translate(154.145 315.7207)">e</text><text fill="#b0b0b0" font-size="19.3667" transform="translate(163.2388 315.7207)">r</text><text fill="#b0b0b0" font-size="19.3667" transform="translate(169.3013 315.7207)">y</text></g><g clip-path="url(#n)"><use height="19.7" transform="matrix(1.6841 0 0 1.6841 153.8081 393.9288)" width="60.9" x="-30.5" xlink:href="#a" y="-9.8"/></g><circle cx="155" cy="337.6" fill="#a39cb9" r="10.1" stroke="#fff" stroke-miterlimit="10" stroke-width="4.7659"/><text fill="#a39cb9" font-family="'RobotoCondensed-Regular'" font-size="13.4725" transform="translate(624.5034 364.7275)">2010</text><text fill="#b0b0b0" font-family="'RobotoCondensed-Regular'" font-size="19.3667" transform="translate(610.8623 315.7207)">g</text><text fill="#b0b0b0" font-family="'RobotoCondensed-Regular'" font-size="19.3667" transform="translate(620.4614 315.7207)">r</text><text fill="#b0b0b0" font-family="'RobotoCondensed-Regular'" font-size="19.3667" transform="translate(626.1875 315.7207)">owth</text><g clip-path="url(#o)"><use height="19.7" transform="matrix(1.6841 0 0 1.6841 631.9133 393.9288)" width="60.9" x="-30.5" xlink:href="#a" y="-9.8"/></g><circle cx="637.1" cy="337.6" fill="#a39cb9" r="10.1" stroke="#fff" stroke-miterlimit="10" stroke-width="4.7659"/><text fill="#a39cb9" font-family="'RobotoCondensed-Regular'" font-size="13.4725" transform="translate(778.4268 364.7275)">2015</text><text fill="#b0b0b0" font-family="'RobotoCondensed-Regular'" font-size="19.3667" transform="translate(763.7754 315.7207)">t</text><text fill="#b0b0b0" font-family="'RobotoCondensed-Regular'" font-size="19.3667" transform="translate(769.501 315.7207)">r</text><text fill="#b0b0b0" font-family="'RobotoCondensed-Regular'" font-size="19.3667" transform="translate(775.0586 315.7207)">action</text><g clip-path="url(#p)"><use height="19.7" transform="matrix(1.6841 0 0 1.6841 791.5624 393.9288)" width="60.9" x="-30.5" xlink:href="#a" y="-9.8"/></g><circle cx="793.1" cy="337.6" fill="#a39cb9" r="10.1" stroke="#fff" stroke-miterlimit="10" stroke-width="4.7659"/><text fill="#b0b0b0" font-family="'RobotoCondensed-Regular'" font-size="19.3667" transform="translate(943.6328 315.7207)">IPO</text><text fill="#a39cb9" font-family="'RobotoCondensed-Regular'" font-size="13.4725" transform="translate(947.1699 364.7275)">2010</text><g clip-path="url(#q)"><use height="19.7" transform="matrix(1.6841 0 0 1.6841 953.906 393.9288)" width="60.9" x="-30.5" xlink:href="#a" y="-9.8"/></g><circle cx="959.8" cy="337.6" fill="#a39cb9" r="10.1" stroke="#fff" stroke-miterlimit="10" stroke-width="4.7659"/><text fill="#a39cb9" font-family="'RobotoCondensed-Regular'" font-size="13.4725" transform="translate(1101.0928 364.7275)">2015</text><text fill="#b0b0b0" font-family="'RobotoCondensed-Regular'" font-size="19.3667" transform="translate(1082.7363 315.7207)">acqui</text><text fill="#b0b0b0" font-family="'RobotoCondensed-Regular'" font-size="19.3667" transform="translate(1124.502 315.7207)">r</text><text fill="#b0b0b0" font-family="'RobotoCondensed-Regular'" font-size="19.3667" transform="translate(1130.2266 315.7207)">ed</text><g clip-path="url(#r)"><use height="19.7" transform="matrix(1.6841 0 0 1.6841 1114.2286 393.9288)" width="60.9" x="-30.5" xlink:href="#a" y="-9.8"/></g><circle cx="1115.7" cy="337.6" fill="#a39cb9" r="10.1" stroke="#fff" stroke-miterlimit="10" stroke-width="4.7659"/></svg>