<?xml version="1.0" encoding="utf-8"?>
<!-- Generator: Adobe Illustrator 22.1.0, SVG Export Plug-In . SVG Version: 6.00 Build 0)  -->
<svg version="1.1" id="Layer_1" xmlns="http://www.w3.org/2000/svg" xmlns:xlink="http://www.w3.org/1999/xlink" x="0px" y="0px"
	 viewBox="0 0 1200 1200" style="enable-background:new 0 0 1200 1200;" xml:space="preserve">
<style type="text/css">
	.st0{fill:#514361;}
	.st1{font-family:'RobotoMono-Regular';}
	.st2{font-size:35px;}
	.st3{fill:none;stroke:#AFAFAF;stroke-width:4;stroke-linecap:round;stroke-miterlimit:10;stroke-dasharray:0,9.9536;}
	.st4{fill:none;stroke:#B5B4B4;stroke-width:5;stroke-miterlimit:10;}
	.st5{fill:#B5B4B4;}
	.st6{fill:#BCBCBC;}
	.st7{font-size:37px;}
	.st8{fill:none;stroke:#BABABA;stroke-width:5;stroke-miterlimit:10;}
	.st9{fill:#909090;}
	.st10{font-family:'Roboto-Italic';}
	.st11{font-size:29px;}
</style>
<g>
	<g>
		<g>
			<text transform="matrix(1 0 0 1 144.7031 52.501)" class="st0 st1 st2">Y axis</text>
		</g>
	</g>
	<g>
		<g>
			<text transform="matrix(1 0 0 1 858.0005 635.1865)" class="st0 st1 st2">data point</text>
		</g>
	</g>
	<g>
		<g>
			<text transform="matrix(1 0 0 1 144.7036 360.6901)" class="st0 st1 st2">outlier</text>
		</g>
	</g>
	<g>
		<g>
			<text transform="matrix(1 0 0 1 721.8655 143.5992)" class="st0 st1 st2">line of best fit</text>
		</g>
	</g>
	<g>
		<g>
			<text transform="matrix(1 0 0 1 1013.0043 953.9049)" class="st0 st1 st2">X axis</text>
		</g>
	</g>
	<line class="st3" x1="889.9" y1="294.4" x2="889.9" y2="174.9"/>
	<line class="st3" x1="217.4" y1="322.8" x2="217.4" y2="187.9"/>
	<line class="st3" x1="960.9" y1="600" x2="960.9" y2="405.1"/>
	<g>
		<g>
			<g>
				<g>
					<polyline class="st4" points="1136.9,1048 101,1048 101,24.1 					"/>
					<g>
						<polygon class="st5" points="1133.2,1035.5 1154.8,1048 1133.2,1060.5 						"/>
					</g>
					<g>
						<polygon class="st5" points="113.5,27.8 101,6.2 88.5,27.8 						"/>
					</g>
				</g>
			</g>
		</g>
	</g>
	<g>
		<g>
			<text transform="matrix(1 0 0 1 191.7817 1125.5791)" class="st6 st1 st7">1</text>
		</g>
	</g>
	<g>
		<text transform="matrix(1 0 0 1 33.4688 957.2236)" class="st6 st1 st7">1</text>
	</g>
	<g>
		<text transform="matrix(1 0 0 1 33.4688 862.5361)" class="st6 st1 st7">2</text>
	</g>
	<g>
		<text transform="matrix(1 0 0 1 33.4688 767.8486)" class="st6 st1 st7">3</text>
	</g>
	<g>
		<text transform="matrix(1 0 0 1 33.4688 673.1611)" class="st6 st1 st7">4</text>
	</g>
	<g>
		<text transform="matrix(1 0 0 1 33.4688 578.4736)" class="st6 st1 st7">5</text>
	</g>
	<g>
		<text transform="matrix(1 0 0 1 33.4688 483.7861)" class="st6 st1 st7">6</text>
	</g>
	<g>
		<text transform="matrix(1 0 0 1 33.4688 389.0986)" class="st6 st1 st7">7</text>
	</g>
	<g>
		<text transform="matrix(1 0 0 1 33.4688 294.4111)" class="st6 st1 st7">8</text>
	</g>
	<g>
		<text transform="matrix(1 0 0 1 33.4688 199.7236)" class="st6 st1 st7">9</text>
	</g>
	<g>
		<text transform="matrix(1 0 0 1 11.2652 100.1683)" class="st6 st1 st7">10</text>
	</g>
	<g>
		<g>
			<text transform="matrix(1 0 0 1 64.1567 1125.5791)" class="st6 st1 st7">0</text>
		</g>
	</g>
	<g>
		<g>
			<text transform="matrix(1 0 0 1 284.8911 1125.5791)" class="st6 st1 st7">2</text>
		</g>
	</g>
	<g>
		<g>
			<text transform="matrix(1 0 0 1 380.7622 1125.5791)" class="st6 st1 st7">3</text>
		</g>
	</g>
	<g>
		<g>
			<text transform="matrix(1 0 0 1 477.8169 1125.5791)" class="st6 st1 st7">4</text>
		</g>
	</g>
	<g>
		<g>
			<text transform="matrix(1 0 0 1 570.1372 1125.5791)" class="st6 st1 st7">5</text>
		</g>
	</g>
	<g>
		<g>
			<text transform="matrix(1 0 0 1 667.1919 1125.5791)" class="st6 st1 st7">6</text>
		</g>
	</g>
	<g>
		<g>
			<text transform="matrix(1 0 0 1 759.5122 1125.5791)" class="st6 st1 st7">7</text>
		</g>
	</g>
	<g>
		<g>
			<text transform="matrix(1 0 0 1 856.5669 1125.5791)" class="st6 st1 st7">8</text>
		</g>
	</g>
	<g>
		<g>
			<text transform="matrix(1 0 0 1 948.8872 1125.5791)" class="st6 st1 st7">9</text>
		</g>
	</g>
	<g>
		<g>
			<text transform="matrix(1 0 0 1 1045.9419 1125.5791)" class="st6 st1 st7">10</text>
		</g>
	</g>
	<line class="st4" x1="1058" y1="1068" x2="1058" y2="1049"/>
	<line class="st4" x1="964" y1="1068" x2="964" y2="1049"/>
	<line class="st4" x1="869" y1="1068" x2="869" y2="1049"/>
	<line class="st4" x1="774" y1="1068" x2="774" y2="1049"/>
	<line class="st4" x1="680" y1="1068" x2="680" y2="1049"/>
	<line class="st4" x1="585" y1="1068" x2="585" y2="1049"/>
	<line class="st4" x1="490" y1="1068" x2="490" y2="1049"/>
	<line class="st4" x1="396" y1="1068" x2="396" y2="1049"/>
	<line class="st4" x1="301" y1="1068" x2="301" y2="1049"/>
	<line class="st4" x1="206" y1="1068" x2="206" y2="1049"/>
	<line class="st4" x1="102" y1="186" x2="81" y2="186"/>
	<line class="st4" x1="102" y1="83.2" x2="81" y2="83.2"/>
	<line class="st4" x1="102" y1="281" x2="81" y2="281"/>
	<line class="st4" x1="102" y1="375" x2="81" y2="375"/>
	<line class="st4" x1="102" y1="470" x2="81" y2="470"/>
	<line class="st4" x1="102" y1="565" x2="81" y2="565"/>
	<line class="st4" x1="102" y1="659" x2="81" y2="659"/>
	<line class="st4" x1="102" y1="754" x2="81" y2="754"/>
	<line class="st4" x1="102" y1="849" x2="81" y2="849"/>
	<line class="st4" x1="102" y1="943" x2="81" y2="943"/>
	<line class="st8" x1="214.3" y1="935" x2="925.9" y2="275.5"/>
	<circle class="st9" cx="506.9" cy="539" r="18.9"/>
	<circle class="st9" cx="300.9" cy="935" r="18.9"/>
	<circle class="st9" cx="263" cy="821.3" r="18.9"/>
	<circle class="st9" cx="405" cy="821.3" r="18.9"/>
	<circle class="st9" cx="523.4" cy="887.6" r="18.9"/>
	<circle class="st9" cx="523.4" cy="698.2" r="18.9"/>
	<circle class="st9" cx="698.6" cy="740.9" r="18.9"/>
	<circle class="st9" cx="286.7" cy="603.6" r="18.9"/>
	<circle class="st9" cx="447.6" cy="703" r="18.9"/>
	<circle class="st9" cx="759.5" cy="545.7" r="18.9"/>
	<circle class="st9" cx="688.9" cy="571.7" r="18.9"/>
	<circle class="st9" cx="605.8" cy="341.8" r="18.9"/>
	<circle class="st9" cx="217.4" cy="194.2" r="18.9"/>
	<circle class="st9" cx="640.5" cy="426.1" r="18.9"/>
	<circle class="st9" cx="960.9" cy="412.8" r="18.9"/>
	<circle class="st9" cx="1013" cy="299.1" r="18.9"/>
	<circle class="st9" cx="871" cy="539" r="18.9"/>
	<circle class="st9" cx="795.2" cy="294.4" r="18.9"/>
</g>
<text transform="matrix(1 0 0 1 144.7034 92.1683)" class="st0 st10 st11">showing dependent variable</text>
<text transform="matrix(1 0 0 1 795.2222 1004.2595)" class="st0 st10 st11">showing independent variable</text>
</svg>
