<?xml version="1.0" encoding="utf-8"?>
<!-- Generator: Adobe Illustrator 19.2.0, SVG Export Plug-In . SVG Version: 6.00 Build 0)  -->
<svg version="1.1" id="Layer_1" xmlns="http://www.w3.org/2000/svg" xmlns:xlink="http://www.w3.org/1999/xlink" x="0px" y="0px"
	 width="1200px" height="1200px" viewBox="0 0 1200 1200" enable-background="new 0 0 1200 1200" xml:space="preserve">
<g>
	<g>
		<text transform="matrix(1 0 0 1 136.7036 98.501)" fill="#37246D" font-family="'Roboto-Medium'" font-size="47.3438px">dependent variable</text>
	</g>
	<g>
		<text transform="matrix(1 0 0 1 753.4575 976.7881)" fill="#37246D" font-family="'Roboto-Medium'" font-size="47.3438px">independent variable</text>
	</g>
	<g>
		<text transform="matrix(1 0 0 1 946.0376 717.1865)" fill="#7F7F7F" font-family="'Roboto-Regular'" font-size="65px">points</text>
	</g>
	<g>
		<text transform="matrix(1 0 0 1 270.8911 208.4111)" fill="#7F7F7F" font-family="'Roboto-Regular'" font-size="65px">outlier</text>
	</g>
	<g>
		<text transform="matrix(1 0 0 1 597.772 206.6055)" fill="#7F7F7F" font-family="'Roboto-Regular'" font-size="65px">trend line</text>
	</g>
	<g>
		<text transform="matrix(1 0 0 1 523.5708 1196.0381)" fill="#7F7F7F" font-family="'Roboto-Regular'" font-size="65px">scale</text>
	</g>
	<line fill="none" stroke="#AFAFAF" stroke-width="8" stroke-miterlimit="10" x1="961" y1="664" x2="961" y2="457"/>
	<line fill="none" stroke="#AFAFAF" stroke-width="8" stroke-miterlimit="10" x1="734" y1="389" x2="734" y2="229"/>
	<line fill="none" stroke="#AFAFAF" stroke-width="8" stroke-miterlimit="10" x1="946.038" y1="667.667" x2="897.98" y2="578.471"/>
	
		<line fill="none" stroke="#AFAFAF" stroke-width="8" stroke-miterlimit="10" x1="934.886" y1="677.341" x2="719.472" y2="584.623"/>
	<g>
		<g>
			<polyline fill="none" stroke="#464A90" stroke-width="16" stroke-miterlimit="10" points="1154.813,1048 101,1048 101,32.187 			
				"/>
			<g>
				<polygon fill="#464A90" points="1146.643,1020.077 1195,1048 1146.643,1075.923 				"/>
			</g>
			<g>
				<polygon fill="#464A90" points="128.923,40.357 101,-8 73.077,40.357 				"/>
			</g>
		</g>
	</g>
	<g>
		<text transform="matrix(1 0 0 1 177.7817 1133.5791)" fill="#37246D" font-family="'Roboto-Medium'" font-size="47.3438px">1</text>
	</g>
	<g>
		<text transform="matrix(1 0 0 1 25.6724 957.2236)" fill="#37246D" font-family="'Roboto-Medium'" font-size="47.3438px">1</text>
	</g>
	<g>
		<text transform="matrix(1 0 0 1 25.6724 862.5361)" fill="#37246D" font-family="'Roboto-Medium'" font-size="47.3438px">2</text>
	</g>
	<g>
		<text transform="matrix(1 0 0 1 25.6724 767.8486)" fill="#37246D" font-family="'Roboto-Medium'" font-size="47.3438px">3</text>
	</g>
	<g>
		<text transform="matrix(1 0 0 1 25.6724 673.1611)" fill="#37246D" font-family="'Roboto-Medium'" font-size="47.3438px">4</text>
	</g>
	<g>
		<text transform="matrix(1 0 0 1 25.6724 578.4736)" fill="#37246D" font-family="'Roboto-Medium'" font-size="47.3438px">5</text>
	</g>
	<g>
		<text transform="matrix(1 0 0 1 25.6724 483.7861)" fill="#37246D" font-family="'Roboto-Medium'" font-size="47.3438px">6</text>
	</g>
	<g>
		<text transform="matrix(1 0 0 1 25.6724 389.0986)" fill="#37246D" font-family="'Roboto-Medium'" font-size="47.3438px">7</text>
	</g>
	<g>
		<text transform="matrix(1 0 0 1 25.6724 294.4111)" fill="#37246D" font-family="'Roboto-Medium'" font-size="47.3438px">8</text>
	</g>
	<g>
		<text transform="matrix(1 0 0 1 25.6724 199.7236)" fill="#37246D" font-family="'Roboto-Medium'" font-size="47.3438px">9</text>
	</g>
	<g>
		<text transform="matrix(1 0 0 1 64.1567 1133.5791)" fill="#37246D" font-family="'Roboto-Medium'" font-size="47.3438px">0</text>
	</g>
	<g>
		<text transform="matrix(1 0 0 1 270.8911 1133.5791)" fill="#37246D" font-family="'Roboto-Medium'" font-size="47.3438px">2</text>
	</g>
	<g>
		<text transform="matrix(1 0 0 1 366.7622 1133.5791)" fill="#37246D" font-family="'Roboto-Medium'" font-size="47.3438px">3</text>
	</g>
	<g>
		<text transform="matrix(1 0 0 1 463.8169 1133.5791)" fill="#37246D" font-family="'Roboto-Medium'" font-size="47.3438px">4</text>
	</g>
	<g>
		<text transform="matrix(1 0 0 1 556.1372 1133.5791)" fill="#37246D" font-family="'Roboto-Medium'" font-size="47.3438px">5</text>
	</g>
	<g>
		<text transform="matrix(1 0 0 1 653.1919 1133.5791)" fill="#37246D" font-family="'Roboto-Medium'" font-size="47.3438px">6</text>
	</g>
	<g>
		<text transform="matrix(1 0 0 1 745.5122 1133.5791)" fill="#37246D" font-family="'Roboto-Medium'" font-size="47.3438px">7</text>
	</g>
	<g>
		<text transform="matrix(1 0 0 1 842.5669 1133.5791)" fill="#37246D" font-family="'Roboto-Medium'" font-size="47.3438px">8</text>
	</g>
	<g>
		<text transform="matrix(1 0 0 1 934.8872 1133.5791)" fill="#37246D" font-family="'Roboto-Medium'" font-size="47.3438px">9</text>
	</g>
	<g>
		<text transform="matrix(1 0 0 1 1031.9419 1133.5791)" fill="#37246D" font-family="'Roboto-Medium'" font-size="47.3438px">10</text>
	</g>
	<line fill="none" stroke="#464A90" stroke-width="4" stroke-miterlimit="10" x1="1058" y1="1076" x2="1058" y2="1019"/>
	<line fill="none" stroke="#464A90" stroke-width="4" stroke-miterlimit="10" x1="964" y1="1076" x2="964" y2="1019"/>
	<line fill="none" stroke="#464A90" stroke-width="4" stroke-miterlimit="10" x1="869" y1="1076" x2="869" y2="1019"/>
	<line fill="none" stroke="#464A90" stroke-width="4" stroke-miterlimit="10" x1="774" y1="1076" x2="774" y2="1019"/>
	<line fill="none" stroke="#464A90" stroke-width="4" stroke-miterlimit="10" x1="680" y1="1076" x2="680" y2="1019"/>
	<line fill="none" stroke="#464A90" stroke-width="4" stroke-miterlimit="10" x1="585" y1="1076" x2="585" y2="1019"/>
	<line fill="none" stroke="#464A90" stroke-width="4" stroke-miterlimit="10" x1="490" y1="1076" x2="490" y2="1019"/>
	<line fill="none" stroke="#464A90" stroke-width="4" stroke-miterlimit="10" x1="396" y1="1076" x2="396" y2="1019"/>
	<line fill="none" stroke="#464A90" stroke-width="4" stroke-miterlimit="10" x1="301" y1="1076" x2="301" y2="1019"/>
	<line fill="none" stroke="#464A90" stroke-width="4" stroke-miterlimit="10" x1="206" y1="1076" x2="206" y2="1019"/>
	<line fill="none" stroke="#464A90" stroke-width="4" stroke-miterlimit="10" x1="130" y1="186" x2="73" y2="186"/>
	<line fill="none" stroke="#464A90" stroke-width="4" stroke-miterlimit="10" x1="130" y1="281" x2="73" y2="281"/>
	<line fill="none" stroke="#464A90" stroke-width="4" stroke-miterlimit="10" x1="130" y1="375" x2="73" y2="375"/>
	<line fill="none" stroke="#464A90" stroke-width="4" stroke-miterlimit="10" x1="130" y1="470" x2="73" y2="470"/>
	<line fill="none" stroke="#464A90" stroke-width="4" stroke-miterlimit="10" x1="130" y1="565" x2="73" y2="565"/>
	<line fill="none" stroke="#464A90" stroke-width="4" stroke-miterlimit="10" x1="130" y1="659" x2="73" y2="659"/>
	<line fill="none" stroke="#464A90" stroke-width="4" stroke-miterlimit="10" x1="130" y1="754" x2="73" y2="754"/>
	<line fill="none" stroke="#464A90" stroke-width="4" stroke-miterlimit="10" x1="130" y1="849" x2="73" y2="849"/>
	<line fill="none" stroke="#464A90" stroke-width="4" stroke-miterlimit="10" x1="130" y1="943" x2="73" y2="943"/>
	
		<line fill="none" stroke="#7581BA" stroke-width="9.4688" stroke-miterlimit="10" x1="214.258" y1="934.967" x2="1132.113" y2="17.113"/>
	<circle fill="#464A90" cx="506.906" cy="538.952" r="18.938"/>
	<circle fill="#464A90" cx="300.866" cy="934.967" r="18.938"/>
	<circle fill="#464A90" cx="262.991" cy="821.342" r="18.938"/>
	<circle fill="#464A90" cx="405.022" cy="821.342" r="18.938"/>
	<circle fill="#464A90" cx="523.382" cy="887.624" r="18.938"/>
	<circle fill="#464A90" cx="523.382" cy="698.248" r="18.938"/>
	<circle fill="#464A90" cx="698.554" cy="740.858" r="18.938"/>
	<circle fill="#464A90" cx="286.663" cy="603.561" r="18.938"/>
	<circle fill="#464A90" cx="447.632" cy="702.983" r="18.938"/>
	<circle fill="#464A90" cx="759.501" cy="545.663" r="18.938"/>
	<circle fill="#464A90" cx="688.939" cy="571.702" r="18.938"/>
	<circle fill="#464A90" cx="605.847" cy="341.752" r="18.938"/>
	<circle fill="#464A90" cx="217.414" cy="194.209" r="18.938"/>
	<circle fill="#464A90" cx="640.535" cy="426.096" r="18.938"/>
	<circle fill="#464A90" cx="960.925" cy="412.768" r="18.938"/>
	<circle fill="#464A90" cx="1013.004" cy="299.142" r="18.938"/>
	<circle fill="#464A90" cx="870.972" cy="538.952" r="18.938"/>
	<circle fill="#464A90" cx="795.222" cy="294.408" r="18.938"/>
</g>
</svg>
