<?xml version="1.0" encoding="utf-8"?>
<!-- Generator: Adobe Illustrator 22.1.0, SVG Export Plug-In . SVG Version: 6.00 Build 0)  -->
<svg version="1.1" xmlns="http://www.w3.org/2000/svg" xmlns:xlink="http://www.w3.org/1999/xlink" x="0px" y="0px"
	 viewBox="0 0 1268 418" enable-background="new 0 0 1268 418" xml:space="preserve">
<g id="Layer_1">
	<g>
		<circle fill="#E5C6A9" cx="688.5" cy="14.1" r="6"/>
		<circle fill="#E5C6A9" cx="723.4" cy="17.5" r="6"/>
		<circle fill="#E5C6A9" cx="740.7" cy="8" r="6"/>
		<circle fill="#E5C6A9" cx="759.4" cy="27.5" r="6"/>
		<circle fill="#E5C6A9" cx="780.8" cy="36.4" r="6"/>
		<circle fill="#E5C6A9" cx="707.4" cy="47.5" r="6"/>
		<circle fill="#E5C6A9" cx="770.4" cy="62.1" r="6"/>
		<circle fill="#E5C6A9" cx="782.4" cy="74.1" r="6"/>
		<circle fill="#E5C6A9" cx="745.4" cy="80.1" r="6"/>
		<circle fill="#E5C6A9" cx="620.1" cy="33.5" r="6"/>
		<circle fill="#E5C6A9" cx="620.1" cy="77" r="6"/>
		<circle fill="#E5C6A9" cx="658.8" cy="83" r="6"/>
		<circle fill="#E5C6A9" cx="563.4" cy="36.4" r="6"/>
		<circle fill="#E5C6A9" cx="545.4" cy="60.3" r="6"/>
		<circle fill="#E5C6A9" cx="537.4" cy="99.5" r="6"/>
		<circle fill="#E5C6A9" cx="569.4" cy="71" r="6"/>
		<circle fill="#E5C6A9" cx="597.9" cy="60.3" r="6"/>
		<circle fill="#E5C6A9" cx="650.9" cy="27.5" r="6"/>
		<circle fill="#E5C6A9" cx="666.4" cy="35.6" r="6"/>
		<circle fill="#E5C6A9" cx="431.9" cy="124.7" r="6"/>
		<circle fill="#E5C6A9" cx="361.9" cy="144.7" r="6"/>
		<circle fill="#E5C6A9" cx="321.9" cy="152.7" r="6"/>
		<circle fill="#E5C6A9" cx="295.9" cy="164.7" r="6"/>
		<circle fill="#E5C6A9" cx="496.9" cy="77" r="6"/>
		<circle fill="#E5C6A9" cx="431.9" cy="81.7" r="6"/>
		<circle fill="#E5C6A9" cx="478.5" cy="121.3" r="6"/>
		<circle fill="#E5C6A9" cx="429.4" cy="97.1" r="6"/>
		<circle fill="#E5C6A9" cx="346.4" cy="121.3" r="6"/>
		<circle fill="#E5C6A9" cx="387.4" cy="149.1" r="6"/>
		<circle fill="#E5C6A9" cx="375.4" cy="178.6" r="6"/>
		<circle fill="#E5C6A9" cx="243.9" cy="170.9" r="6"/>
		<circle fill="#E5C6A9" cx="279.4" cy="191.5" r="6"/>
		<circle fill="#E5C6A9" cx="164.9" cy="182.4" r="6"/>
		<circle fill="#E5C6A9" cx="270.9" cy="133.3" r="6"/>
	</g>
	<g>
		<circle fill="#968BAF" cx="850.7" cy="37.5" r="6"/>
		<circle fill="#968BAF" cx="830.1" cy="63.5" r="6"/>
		<circle fill="#968BAF" cx="809.4" cy="99.5" r="6"/>
		<circle fill="#968BAF" cx="937.8" cy="51.2" r="6"/>
		<circle fill="#968BAF" cx="923.1" cy="71.5" r="6"/>
		<circle fill="#968BAF" cx="951.7" cy="62.1" r="6"/>
		<circle fill="#968BAF" cx="723.4" cy="91.5" r="6"/>
		<circle fill="#968BAF" cx="746.7" cy="120.6" r="6"/>
		<circle fill="#968BAF" cx="729.4" cy="142.7" r="6"/>
		<circle fill="#968BAF" cx="515.4" cy="149.1" r="6"/>
		<circle fill="#968BAF" cx="540.2" cy="197.5" r="6"/>
		<circle fill="#968BAF" cx="484.5" cy="189.6" r="6"/>
		<circle fill="#968BAF" cx="437.9" cy="194.8" r="6"/>
		<circle fill="#968BAF" cx="443.9" cy="245.5" r="6"/>
		<circle fill="#968BAF" cx="416" cy="182.4" r="6"/>
		<circle fill="#968BAF" cx="455.9" cy="230.1" r="6"/>
		<circle fill="#968BAF" cx="375.4" cy="223.2" r="6"/>
		<circle fill="#968BAF" cx="317.4" cy="274.2" r="6"/>
		<circle fill="#968BAF" cx="387.6" cy="255.4" r="6"/>
		<circle fill="#968BAF" cx="415.6" cy="226.4" r="6"/>
		<circle fill="#968BAF" cx="249.9" cy="257.4" r="6"/>
		<circle fill="#968BAF" cx="219.4" cy="284.4" r="6"/>
		<circle fill="#968BAF" cx="244.8" cy="308.6" r="6"/>
		<circle fill="#968BAF" cx="225.4" cy="239.2" r="6"/>
		<circle fill="#968BAF" cx="694.5" cy="105.5" r="6"/>
		<circle fill="#968BAF" cx="691.1" cy="81.7" r="6"/>
		<circle fill="#968BAF" cx="681.4" cy="143.1" r="6"/>
		<circle fill="#968BAF" cx="614.1" cy="115.3" r="6"/>
		<circle fill="#968BAF" cx="628.9" cy="172.6" r="6"/>
		<circle fill="#968BAF" cx="581.9" cy="144.5" r="6"/>
		<circle fill="#968BAF" cx="608.1" cy="155.1" r="6"/>
		<circle fill="#968BAF" cx="563.4" cy="172.6" r="6"/>
		<circle fill="#968BAF" cx="632.9" cy="130.7" r="6"/>
		<circle fill="#968BAF" cx="679.1" cy="115.3" r="6"/>
		<circle fill="#968BAF" cx="893.7" cy="47.5" r="6"/>
		<circle fill="#968BAF" cx="1043.7" cy="77.5" r="6"/>
	</g>
	<g>
		<circle fill="#C6BFCF" cx="726.4" cy="184.6" r="6"/>
		<circle fill="#C6BFCF" cx="669.3" cy="170.9" r="6"/>
		<circle fill="#C6BFCF" cx="688.5" cy="205.4" r="6"/>
		<circle fill="#C6BFCF" cx="620.1" cy="196.3" r="6"/>
		<circle fill="#C6BFCF" cx="675.3" cy="217.2" r="6"/>
		<circle fill="#C6BFCF" cx="541.4" cy="223.2" r="6"/>
		<circle fill="#C6BFCF" cx="638.9" cy="230.1" r="6"/>
		<circle fill="#C6BFCF" cx="864.7" cy="133.3" r="6"/>
		<circle fill="#C6BFCF" cx="899.7" cy="97.5" r="6"/>
		<circle fill="#C6BFCF" cx="741.4" cy="169.5" r="6"/>
		<circle fill="#C6BFCF" cx="739.4" cy="189.9" r="6"/>
		<circle fill="#C6BFCF" cx="528.2" cy="242.1" r="6"/>
		<circle fill="#C6BFCF" cx="445.1" cy="278.1" r="6"/>
		<circle fill="#C6BFCF" cx="522.2" cy="274.2" r="6"/>
		<circle fill="#C6BFCF" cx="593.9" cy="243.4" r="6"/>
		<circle fill="#C6BFCF" cx="569.4" cy="290.4" r="6"/>
		<circle fill="#C6BFCF" cx="488.1" cy="291.7" r="6"/>
		<circle fill="#C6BFCF" cx="439.1" cy="319.6" r="6"/>
		<circle fill="#C6BFCF" cx="393.4" cy="300" r="6"/>
		<circle fill="#C6BFCF" cx="313.7" cy="358" r="6"/>
		<circle fill="#C6BFCF" cx="697.1" cy="166.5" r="6"/>
		<circle fill="#C6BFCF" cx="786.8" cy="117.6" r="6"/>
		<circle fill="#C6BFCF" cx="799.1" cy="150.7" r="6"/>
		<circle fill="#C6BFCF" cx="913.7" cy="99.5" r="6"/>
		<circle fill="#C6BFCF" cx="988.5" cy="66.3" r="6"/>
		<circle fill="#C6BFCF" cx="1044.5" cy="105.5" r="6"/>
		<circle fill="#C6BFCF" cx="1069" cy="80.5" r="6"/>
		<circle fill="#C6BFCF" cx="1081.7" cy="131.6" r="6"/>
		<circle fill="#C6BFCF" cx="1102.1" cy="91.5" r="6"/>
		<circle fill="#C6BFCF" cx="1121.1" cy="123.8" r="6"/>
		<circle fill="#C6BFCF" cx="1151.1" cy="143.8" r="6"/>
		<circle fill="#C6BFCF" cx="1159.1" cy="123.8" r="6"/>
		<circle fill="#C6BFCF" cx="1179.1" cy="143.8" r="6"/>
		<circle fill="#C6BFCF" cx="880.7" cy="27.5" r="6"/>
		<circle fill="#C6BFCF" cx="883.7" cy="57.5" r="6"/>
		<circle fill="#C6BFCF" cx="963.7" cy="93.5" r="6"/>
		<circle fill="#C6BFCF" cx="1123.7" cy="86.5" r="6"/>
	</g>
	<g>
		<g>
			<line fill="none" stroke="#C4C4C4" stroke-miterlimit="10" x1="163.1" y1="388.3" x2="163.1" y2="378.8"/>
			<line fill="none" stroke="#C4C4C4" stroke-miterlimit="10" x1="271.1" y1="388.3" x2="271.1" y2="378.8"/>
			<line fill="none" stroke="#C4C4C4" stroke-miterlimit="10" x1="487.1" y1="388.3" x2="487.1" y2="378.8"/>
			<line fill="none" stroke="#C4C4C4" stroke-miterlimit="10" x1="811.1" y1="388.3" x2="811.1" y2="378.8"/>
			<line fill="none" stroke="#C4C4C4" stroke-miterlimit="10" x1="1027.1" y1="388.3" x2="1027.1" y2="378.8"/>
			<line fill="none" stroke="#C4C4C4" stroke-miterlimit="10" x1="379.1" y1="388.3" x2="379.1" y2="378.8"/>
			<line fill="none" stroke="#C4C4C4" stroke-miterlimit="10" x1="595.1" y1="388.3" x2="595.1" y2="378.8"/>
			<line fill="none" stroke="#C4C4C4" stroke-miterlimit="10" x1="703.1" y1="388.3" x2="703.1" y2="378.8"/>
			<line fill="none" stroke="#C4C4C4" stroke-miterlimit="10" x1="919.1" y1="388.3" x2="919.1" y2="378.8"/>
			<line fill="none" stroke="#C4C4C4" stroke-miterlimit="10" x1="1135.1" y1="388.3" x2="1135.1" y2="378.8"/>
			<line fill="none" stroke="#C4C4C4" stroke-miterlimit="10" x1="1243" y1="388.3" x2="1243" y2="378.8"/>
		</g>
		<g>
			<g>
				<text transform="matrix(1 0 0 1 4.736328e-02 20.7388)"><tspan x="0" y="0" fill="#D1CDC9" font-family="'RobotoCondensed-Regular'" font-size="26px">100</tspan><tspan x="12.8" y="73" fill="#D1CDC9" font-family="'RobotoCondensed-Regular'" font-size="26px">80</tspan><tspan x="12.8" y="146" fill="#D1CDC9" font-family="'RobotoCondensed-Regular'" font-size="26px">60</tspan><tspan x="12.8" y="219" fill="#D1CDC9" font-family="'RobotoCondensed-Regular'" font-size="26px">40</tspan><tspan x="12.8" y="292" fill="#D1CDC9" font-family="'RobotoCondensed-Regular'" font-size="26px">20</tspan></text>
			</g>
			<polyline fill="none" stroke="#C4C4C4" stroke-miterlimit="10" points="55.2,1.6 55.2,379 1266,379 			"/>
			<g>
				<line fill="none" stroke="#C4C4C4" stroke-miterlimit="10" x1="45.5" y1="10" x2="55.5" y2="10"/>
				<line fill="none" stroke="#C4C4C4" stroke-miterlimit="10" x1="45.5" y1="305" x2="55.5" y2="305"/>
				<line fill="none" stroke="#C4C4C4" stroke-miterlimit="10" x1="45.5" y1="231" x2="55.5" y2="231"/>
				<line fill="none" stroke="#C4C4C4" stroke-miterlimit="10" x1="45.5" y1="158" x2="55.5" y2="158"/>
				<line fill="none" stroke="#C4C4C4" stroke-miterlimit="10" x1="45.5" y1="84" x2="55.5" y2="84"/>
			</g>
			<g>
				<g>
					
						<text transform="matrix(1 0 0 1 569.5403 415.6859)" fill="#D1CDC9" font-family="'RobotoCondensed-Regular'" font-size="26px">2014</text>
				</g>
				<g>
					
						<text transform="matrix(1 0 0 1 784.6797 415.6859)" fill="#D1CDC9" font-family="'RobotoCondensed-Regular'" font-size="26px">2016</text>
				</g>
				<g>
					
						<text transform="matrix(1 0 0 1 1000.6797 415.6859)" fill="#D1CDC9" font-family="'RobotoCondensed-Regular'" font-size="26px">2018</text>
				</g>
				<g>
					
						<text transform="matrix(1 0 0 1 353.4719 415.6859)" fill="#D1CDC9" font-family="'RobotoCondensed-Regular'" font-size="26px">2012</text>
				</g>
				<g>
					
						<text transform="matrix(1 0 0 1 137.4719 415.6859)" fill="#D1CDC9" font-family="'RobotoCondensed-Regular'" font-size="26px">2010</text>
				</g>
				<g>
					<text transform="matrix(1 0 0 1 1216.2 415.6859)" fill="#D1CDC9" font-family="'RobotoCondensed-Regular'" font-size="26px">2020</text>
				</g>
			</g>
		</g>
	</g>
</g>
<g id="Layer_2">
</g>
<g id="Layer_3">
</g>
</svg>
