<svg height="418" viewBox="0 0 1268 418" width="1268" xmlns="http://www.w3.org/2000/svg"><g fill="#978baf"><circle cx="612.2" cy="14.2" r="6"/><circle cx="647.1" cy="17.6" r="6"/><circle cx="664.4" cy="8.1" r="6"/><circle cx="683.1" cy="27.6" r="6"/><circle cx="704.5" cy="36.5" r="6"/><circle cx="631.1" cy="47.6" r="6"/><circle cx="694.1" cy="62.2" r="6"/><circle cx="706.1" cy="74.2" r="6"/><circle cx="669.1" cy="80.2" r="6"/><circle cx="543.8" cy="33.6" r="6"/><circle cx="543.8" cy="77.1" r="6"/><circle cx="582.5" cy="83.1" r="6"/><circle cx="487.1" cy="36.5" r="6"/><circle cx="469.1" cy="60.4" r="6"/><circle cx="461.1" cy="99.6" r="6"/><circle cx="493.1" cy="71.1" r="6"/><circle cx="521.6" cy="60.4" r="6"/><circle cx="574.6" cy="27.6" r="6"/><circle cx="590.1" cy="35.7" r="6"/><circle cx="355.6" cy="124.8" r="6"/><circle cx="285.6" cy="144.8" r="6"/><circle cx="219.6" cy="164.8" r="6"/><circle cx="420.6" cy="77.1" r="6"/><circle cx="355.6" cy="81.8" r="6"/><circle cx="402.2" cy="121.4" r="6"/><circle cx="353.1" cy="97.2" r="6"/><circle cx="270.1" cy="121.4" r="6"/><circle cx="311.1" cy="149.2" r="6"/><circle cx="299.1" cy="178.7" r="6"/><circle cx="167.6" cy="171" r="6"/><circle cx="203.1" cy="191.6" r="6"/><circle cx="88.6" cy="182.5" r="6"/><circle cx="194.6" cy="133.4" r="6"/><circle cx="774.4" cy="37.6" r="6"/><circle cx="753.8" cy="63.6" r="6"/><circle cx="733.1" cy="99.6" r="6"/><circle cx="861.5" cy="51.3" r="6"/><circle cx="846.8" cy="71.6" r="6"/><circle cx="875.4" cy="62.2" r="6"/><circle cx="647.1" cy="91.6" r="6"/><circle cx="670.4" cy="120.7" r="6"/><circle cx="653.1" cy="142.8" r="6"/><circle cx="439.1" cy="149.2" r="6"/><circle cx="463.9" cy="197.6" r="6"/><circle cx="408.2" cy="189.7" r="6"/><circle cx="361.6" cy="194.9" r="6"/><circle cx="339.7" cy="182.5" r="6"/><circle cx="379.6" cy="230.2" r="6"/><circle cx="299.1" cy="223.3" r="6"/><circle cx="241.1" cy="274.3" r="6"/><circle cx="311.3" cy="255.5" r="6"/><circle cx="339.3" cy="226.5" r="6"/><circle cx="173.6" cy="257.5" r="6"/><circle cx="143.1" cy="284.5" r="6"/><circle cx="168.5" cy="308.7" r="6"/><circle cx="149.1" cy="239.3" r="6"/><circle cx="618.2" cy="105.6" r="6"/><circle cx="614.8" cy="81.8" r="6"/><circle cx="605.1" cy="143.2" r="6"/><circle cx="537.8" cy="115.4" r="6"/><circle cx="552.6" cy="172.7" r="6"/><circle cx="505.6" cy="144.6" r="6"/><circle cx="531.8" cy="155.2" r="6"/><circle cx="487.1" cy="172.7" r="6"/><circle cx="556.6" cy="130.8" r="6"/><circle cx="602.8" cy="115.4" r="6"/><circle cx="817.4" cy="47.6" r="6"/><circle cx="967.4" cy="77.6" r="6"/><circle cx="593" cy="171" r="6"/><circle cx="543.8" cy="196.4" r="6"/><circle cx="599" cy="217.3" r="6"/><circle cx="465.1" cy="223.3" r="6"/><circle cx="562.6" cy="230.2" r="6"/><circle cx="788.4" cy="133.4" r="6"/><circle cx="823.4" cy="97.6" r="6"/><circle cx="665.1" cy="169.6" r="6"/><circle cx="663.1" cy="190" r="6"/><circle cx="451.9" cy="242.2" r="6"/><circle cx="368.8" cy="278.2" r="6"/><circle cx="445.9" cy="274.3" r="6"/><circle cx="517.6" cy="243.5" r="6"/><circle cx="493.1" cy="290.5" r="6"/><circle cx="411.8" cy="291.8" r="6"/><circle cx="362.8" cy="319.7" r="6"/><circle cx="317.1" cy="300.1" r="6"/><circle cx="237.4" cy="358.1" r="6"/><circle cx="620.8" cy="166.6" r="6"/><circle cx="710.5" cy="117.7" r="6"/><circle cx="722.8" cy="150.8" r="6"/><circle cx="837.4" cy="99.6" r="6"/><circle cx="912.2" cy="66.4" r="6"/><circle cx="968.2" cy="105.6" r="6"/><circle cx="992.7" cy="80.6" r="6"/><circle cx="1005.4" cy="131.7" r="6"/><circle cx="1025.8" cy="91.6" r="6"/><circle cx="1044.8" cy="123.9" r="6"/><circle cx="1074.8" cy="143.9" r="6"/><circle cx="1082.8" cy="123.9" r="6"/><circle cx="1102.8" cy="143.9" r="6"/><circle cx="804.4" cy="27.6" r="6"/><circle cx="807.4" cy="57.6" r="6"/><circle cx="887.4" cy="93.6" r="6"/><circle cx="1047.4" cy="86.6" r="6"/></g><path d="m165.1 388.4v-9.5" fill="none" stroke="#c4c4c4" stroke-miterlimit="10"/><path d="m273.1 388.4v-9.5" fill="none" stroke="#c4c4c4" stroke-miterlimit="10"/><path d="m489.1 388.4v-9.5" fill="none" stroke="#c4c4c4" stroke-miterlimit="10"/><path d="m813.1 388.4v-9.5" fill="none" stroke="#c4c4c4" stroke-miterlimit="10"/><path d="m1029.1 388.4v-9.5" fill="none" stroke="#c4c4c4" stroke-miterlimit="10"/><path d="m381.1 388.4v-9.5" fill="none" stroke="#c4c4c4" stroke-miterlimit="10"/><path d="m597.1 388.4v-9.5" fill="none" stroke="#c4c4c4" stroke-miterlimit="10"/><path d="m705.1 388.4v-9.5" fill="none" stroke="#c4c4c4" stroke-miterlimit="10"/><path d="m921.1 388.4v-9.5" fill="none" stroke="#c4c4c4" stroke-miterlimit="10"/><path d="m1137.1 388.4v-9.5" fill="none" stroke="#c4c4c4" stroke-miterlimit="10"/><text fill="#d2ceca" font-family="RobotoCondensed-Regular, Roboto Condensed" font-size="26" transform="translate(2 20.8)">100</text><text fill="#d2ceca" font-family="RobotoCondensed-Regular, Roboto Condensed" font-size="26" transform="translate(14.8 93.8)">80</text><text fill="#d2ceca" font-family="RobotoCondensed-Regular, Roboto Condensed" font-size="26" transform="translate(14.8 166.8)">60</text><text fill="#d2ceca" font-family="RobotoCondensed-Regular, Roboto Condensed" font-size="26" transform="translate(14.8 239.8)">40</text><text fill="#d2ceca" font-family="RobotoCondensed-Regular, Roboto Condensed" font-size="26" transform="translate(14.8 312.8)">20</text><path d="m57.2 1.7v377.4h1210.8" fill="none" stroke="#c4c4c4" stroke-miterlimit="10"/><path d="m47.5 10.1h10" fill="none" stroke="#c4c4c4" stroke-miterlimit="10"/><path d="m47.5 305.1h10" fill="none" stroke="#c4c4c4" stroke-miterlimit="10"/><path d="m47.5 231.1h10" fill="none" stroke="#c4c4c4" stroke-miterlimit="10"/><path d="m47.5 158.1h10" fill="none" stroke="#c4c4c4" stroke-miterlimit="10"/><path d="m47.5 84.1h10" fill="none" stroke="#c4c4c4" stroke-miterlimit="10"/><text fill="#d2ceca" font-family="RobotoCondensed-Regular, Roboto Condensed" font-size="26" transform="translate(690.5 412.4)">60</text><text fill="#d2ceca" font-family="RobotoCondensed-Regular, Roboto Condensed" font-size="26" transform="translate(905.7 412.4)">80</text><text fill="#d2ceca" font-family="RobotoCondensed-Regular, Roboto Condensed" font-size="26" transform="translate(1121.7 412.4)">100</text><text fill="#d2ceca" font-family="RobotoCondensed-Regular, Roboto Condensed" font-size="26" transform="translate(474.4 412.4)">40</text><text fill="#d2ceca" font-family="RobotoCondensed-Regular, Roboto Condensed" font-size="26" transform="translate(258.4 412.4)">20</text></svg>