<svg enable-background="new 0 0 256 256" height="256" viewBox="0 0 256 256" width="256" xmlns="http://www.w3.org/2000/svg"><path d="m39.406 206.75c5.437 0 9.844 4.407 9.844 9.844s-4.407 9.844-9.844 9.844-9.844-4.407-9.844-9.844 4.408-9.844 9.844-9.844zm35.438-51.187c5.437 0 9.844 4.407 9.844 9.844s-4.407 9.844-9.844 9.844-9.844-4.408-9.844-9.845 4.407-9.843 9.844-9.843zm94.5 3.832c5.437 0 9.844 4.407 9.844 9.844s-4.407 9.844-9.844 9.844-9.844-4.407-9.844-9.844 4.407-9.844 9.844-9.844zm-15.75-66.832c5.437 0 9.844 4.407 9.844 9.844s-4.407 9.844-9.844 9.844-9.844-4.407-9.844-9.844 4.407-9.844 9.844-9.844zm-31.5-74.813c5.437 0 9.844 4.407 9.844 9.844s-4.407 9.844-9.844 9.844-9.844-4.407-9.844-9.844 4.407-9.844 9.844-9.844zm90.562 74.813c5.437 0 9.844 4.407 9.844 9.844s-4.407 9.844-9.844 9.844-9.844-4.407-9.844-9.844 4.408-9.844 9.844-9.844zm15.75-59.063c5.437 0 9.844 4.407 9.844 9.844s-4.407 9.844-9.844 9.844-9.844-4.407-9.844-9.844 4.408-9.844 9.844-9.844zm25.594 208.688h-240.187v-240.188h-11.813v252h252z"/></svg>