<svg xmlns="http://www.w3.org/2000/svg" width="650" height="460" viewBox="0 0 650 460"><defs><style>.a,.l,.r{isolation:isolate;}.a,.b{font-size:16.22px;}.a,.b,.q{fill:#6f6f6f;}.a,.b,.l,.r{font-family:Roboto Mono;}.c{fill:#404040;}.d{fill:#595959;}.e{fill:#6b6b6b;}.f{fill:#c9c9c9;}.g{fill:#e9e9e9;}.h{fill:#e6e6e6;}.i{fill:#a8a8a8;}.j{fill:#747474;}.k{fill:#434343;}.l{font-size:16px;}.l,.r{fill:#888;}.m{fill:#777;}.n{fill:#c5c5c5;}.o{fill:#f2f2f2;}.p{fill:#b9b9b9;}.r{font-size:15.48px;}</style></defs><title>circular-heatmap</title><text class="a" transform="translate(335.5 31.5)">2018</text><text class="a" transform="translate(335.5 63.4)">2017</text><text class="a" transform="translate(335.5 93)">2016</text><text class="b" transform="translate(335.5 126.3)">2015</text><text class="a" transform="translate(335.5 156.7)">2014</text><rect class="c" x="32" y="89.9" width="15" height="29"/><rect class="d" x="32" y="120.8" width="15" height="29"/><rect class="e" x="32" y="151.6" width="15" height="29"/><rect class="f" x="32" y="182.6" width="15" height="29"/><rect class="g" x="32" y="213.2" width="15" height="29"/><rect class="h" x="32" y="244.1" width="15" height="29"/><rect class="i" x="32" y="275.2" width="15" height="29"/><rect class="j" x="32" y="306.1" width="15" height="29"/><rect class="k" x="32" y="337" width="15" height="29"/><text class="l" transform="translate(56.9 89.9)">150</text><text class="l" transform="translate(56.9 187.8)">100</text><text class="l" transform="translate(56.9 279.4)">50</text><text class="l" transform="translate(56.9 373.3)">0</text><path class="m" d="M383,16a3,3,0,0,1,3-3h0.1A210.5,210.5,0,0,1,573.3,138.1a2.9,2.9,0,0,1-1.5,3.9h-0.1l-20.5,8.5a2.9,2.9,0,0,1-3.8-1.5A182.1,182.1,0,0,0,386,41.2a3,3,0,0,1-2.9-3V16H383Z"/><path class="m" d="M573.2,145.9a3.1,3.1,0,0,1,3.9,1.6h0a210.3,210.3,0,0,1-43.9,220.8,3,3,0,0,1-4.2.1h-0.1l-15.7-15.7a3,3,0,0,1-.1-4.1A182,182,0,0,0,551,158.2a3,3,0,0,1,1.6-3.8Z"/><path class="g" d="M526,371.3a2.9,2.9,0,0,1,0,4.2h-0.1a210.3,210.3,0,0,1-220.8,43.9,3,3,0,0,1-1.7-3.8h0l8.5-20.5a2.9,2.9,0,0,1,3.8-1.6A182.1,182.1,0,0,0,506,355.6a2.9,2.9,0,0,1,4.1.1Z"/><path class="n" d="M299.7,414a3,3,0,0,1-3.9,1.6h-0.1A210.2,210.2,0,0,1,170.6,228.4a3,3,0,0,1,2.9-3h22.3a3.1,3.1,0,0,1,3,2.9A182.2,182.2,0,0,0,306.6,389.7a2.9,2.9,0,0,1,1.5,3.8Z"/><path class="o" d="M382.7,47.1a3,3,0,0,1,3-3h0.1A179.1,179.1,0,0,1,544.7,150.2a2.9,2.9,0,0,1-1.5,3.9h-0.1l-20.5,8.5a2.9,2.9,0,0,1-3.8-1.5A151,151,0,0,0,385.7,72.2a3,3,0,0,1-2.9-3V47.1h-0.1Z"/><path class="d" d="M544.3,157.5a3.1,3.1,0,0,1,3.9,1.6h0a179.1,179.1,0,0,1-37.3,187.4,3,3,0,0,1-4.2.1h-0.1L491,330.9a3,3,0,0,1-.1-4.1,150.9,150.9,0,0,0,31.2-157,3,3,0,0,1,1.6-3.8Z"/><path class="p" d="M504.2,349.1a2.9,2.9,0,0,1,0,4.2h-0.1a179.1,179.1,0,0,1-187.4,37.3,3,3,0,0,1-1.7-3.8h0l8.5-20.5a2.9,2.9,0,0,1,3.8-1.6,151.1,151.1,0,0,0,157-31.2,2.9,2.9,0,0,1,4.1.1Z"/><path class="k" d="M311.9,385.4A3,3,0,0,1,308,387h-0.1A179.1,179.1,0,0,1,201.8,228.1a2.9,2.9,0,0,1,2.9-3H227a3.1,3.1,0,0,1,3,2.9,151.2,151.2,0,0,0,88.9,133.1,2.9,2.9,0,0,1,1.5,3.8Z"/><path class="n" d="M382.3,78.2a3,3,0,0,1,3-3h0.1A148.4,148.4,0,0,1,516,162.5a2.9,2.9,0,0,1-1.5,3.9h-0.1L493.9,175a2.9,2.9,0,0,1-3.8-1.5,119.9,119.9,0,0,0-104.8-70,3.1,3.1,0,0,1-2.9-3V78.2h-0.1Z"/><path class="m" d="M515.5,169.1a3.1,3.1,0,0,1,3.9,1.6h0a148.1,148.1,0,0,1-30.6,154,3,3,0,0,1-4.2.1h-0.1l-15.7-15.7a3,3,0,0,1-.1-4.1,120,120,0,0,0,24.6-123.7,3,3,0,0,1,1.6-3.8Z"/><path class="g" d="M482.5,326.9a2.9,2.9,0,0,1,0,4.2h-0.1a148.1,148.1,0,0,1-154,30.6,3,3,0,0,1-1.7-3.8h0l8.5-20.5a2.9,2.9,0,0,1,3.8-1.6,120.1,120.1,0,0,0,123.7-24.6,2.9,2.9,0,0,1,4.1.1Z"/><path class="p" d="M324.1,356.8a3,3,0,0,1-3.9,1.6h-0.1a148,148,0,0,1-87.2-130.6,3.1,3.1,0,0,1,2.9-3.1h22.3a3.1,3.1,0,0,1,3,2.9,119.7,119.7,0,0,0,70,104.8,2.9,2.9,0,0,1,1.5,3.8Z"/><path class="q" d="M382,109.3a3,3,0,0,1,3-3h0.1a117,117,0,0,1,102.3,68.3,2.9,2.9,0,0,1-1.5,3.9h-0.1L465.3,187a2.9,2.9,0,0,1-3.8-1.5,88.9,88.9,0,0,0-76.6-51.2,3,3,0,0,1-2.8-3v-22H382Z"/><path class="c" d="M486.6,180.7a3.1,3.1,0,0,1,3.9,1.6h0a116.9,116.9,0,0,1-24,120.6,2.9,2.9,0,0,1-4.2.1h-0.1l-15.7-15.7a3,3,0,0,1-.1-4.1,88.9,88.9,0,0,0,18-90.3,2.9,2.9,0,0,1,1.7-3.7Z"/><path class="p" d="M460.7,304.6a2.9,2.9,0,0,1,0,4.2h-0.1a116.9,116.9,0,0,1-120.6,24,3,3,0,0,1-1.7-3.8h0l8.5-20.5a3,3,0,0,1,3.7-1.7,88.7,88.7,0,0,0,90.3-18,3,3,0,0,1,4.1.1Z"/><path class="m" d="M336.3,328.2a3,3,0,0,1-3.9,1.6h-0.1A117.3,117.3,0,0,1,264,227.5a3,3,0,0,1,2.9-3.1h22.3a3,3,0,0,1,3,2.8,88.9,88.9,0,0,0,51.2,76.6,3,3,0,0,1,1.5,3.8Z"/><path class="p" d="M381.7,140.4a3,3,0,0,1,3-3h0.1a85.8,85.8,0,0,1,73.9,49.4,2.9,2.9,0,0,1-1.4,3.9,0.1,0.1,0,0,0-.1.1l-20.6,8.5a3,3,0,0,1-3.8-1.4,57.7,57.7,0,0,0-48.3-32.3,3,3,0,0,1-2.8-3V140.4h0Z"/><path class="n" d="M457.8,192.3a3.1,3.1,0,0,1,3.9,1.6h0a86,86,0,0,1-17.3,87.2,3,3,0,0,1-4.2.2h-0.1l-15.7-15.7a3,3,0,0,1-.1-4.1,57.6,57.6,0,0,0,11.3-57,2.9,2.9,0,0,1,1.7-3.7Z"/><path class="q" d="M438.9,282.4a2.9,2.9,0,0,1,0,4.2h-0.1A86,86,0,0,1,351.6,304a3.1,3.1,0,0,1-1.8-3.8h0l8.5-20.6a3,3,0,0,1,3.7-1.7,57.8,57.8,0,0,0,57-11.3,3.1,3.1,0,0,1,4.1.1Z"/><path class="p" d="M348.5,299.5a3,3,0,0,1-3.9,1.6h-0.1a85.8,85.8,0,0,1-49.4-73.9,3,3,0,0,1,2.8-3.1h22.3a3,3,0,0,1,3,2.8,57.6,57.6,0,0,0,32.3,48.3,2.9,2.9,0,0,1,1.4,3.8Z"/><text class="r" transform="translate(535.4 52.6)">Winter</text><text class="r" transform="translate(573.4 340.3)">Spring</text><text class="r" transform="translate(416 449.8)">Summer</text><text class="r" transform="translate(157 375.3)">Autumn</text></svg>