<?xml version="1.0" encoding="utf-8"?>
<!-- Generator: Adobe Illustrator 22.1.0, SVG Export Plug-In . SVG Version: 6.00 Build 0)  -->
<svg version="1.1" id="Layer_1" xmlns="http://www.w3.org/2000/svg" xmlns:xlink="http://www.w3.org/1999/xlink" x="0px" y="0px"
	 viewBox="0 0 1200 1200" style="enable-background:new 0 0 1200 1200;" xml:space="preserve">
<style type="text/css">
	.st0{fill:#514361;}
	.st1{font-family:'RobotoMono-Regular';}
	.st2{font-size:50px;}
	.st3{enable-background:new    ;}
	.st4{fill:#EDEDED;}
	.st5{fill:none;stroke:#CCCCCC;stroke-width:4;stroke-miterlimit:10;}
	.st6{fill:none;stroke:#CCCCCC;stroke-width:4.6544;stroke-miterlimit:10;}
	.st7{fill:#909090;}
	.st8{font-size:31.5297px;}
	.st9{fill:#BABABA;}
	.st10{fill:#C7C7C7;stroke:#BABABA;stroke-width:12.0171;stroke-miterlimit:10;}
	.st11{fill:#BABABA;stroke:#BABABA;stroke-width:13.9482;stroke-miterlimit:10;}
	.st12{fill:none;stroke:#909090;stroke-width:11.9806;stroke-miterlimit:10;}
	.st13{fill:none;stroke:#909090;stroke-width:6;stroke-miterlimit:10;stroke-dasharray:31.6127,27.0966;}
	.st14{fill:none;stroke:#909090;stroke-width:8;stroke-miterlimit:10;}
	.st15{fill:none;stroke:#AFAFAF;stroke-width:4;stroke-linecap:round;stroke-miterlimit:10;stroke-dasharray:0,9.9536;}
	.st16{font-family:'Roboto-Italic';}
	.st17{font-size:39.1714px;}
</style>
<g>
	<text transform="matrix(1 0 0 1 635.9734 53.4881)"><tspan x="0" y="0" class="st0 st1 st2">dependency </tspan><tspan x="75" y="60" class="st0 st1 st2">marker</tspan></text>
</g>
<g>
	<text transform="matrix(1 0 0 1 187.9834 159.0561)"><tspan x="0" y="0" class="st0 st1 st2">project</tspan><tspan x="45" y="60" class="st0 st1 st2">name</tspan></text>
</g>
<g>
	<text transform="matrix(1 0 0 1 158.9805 949.0564)"><tspan x="0" y="0" class="st0 st1 st2">assignee</tspan><tspan x="60" y="60" class="st0 st1 st2">name</tspan></text>
</g>
<g>
	<text transform="matrix(1 0 0 1 343.9854 1143.0005)" class="st0 st1 st2">legend</text>
</g>
<g>
	<text transform="matrix(1 0 0 1 941.9639 235.9868)" class="st3"><tspan x="0" y="0" class="st0 st1 st2">current</tspan><tspan x="-45" y="60" class="st0 st1 st2">day marker</tspan></text>
</g>
<g>
	<text transform="matrix(1 0 0 1 764.1763 1009.0562)" class="st0 st1 st2">progress bar</text>
</g>
<path class="st4" d="M6.1,342h1189.8v129.9H6.1L6.1,342z"/>
<g>
	<path class="st5" d="M451,865V343"/>
	<path class="st5" d="M600,865V343"/>
	<path class="st5" d="M1196,602H136"/>
	<path class="st5" d="M1196,732H6"/>
	<path class="st5" d="M749,865V343"/>
	<path class="st5" d="M898,865V343"/>
	<path class="st5" d="M1047,865V343"/>
	<path class="st6" d="M1195.9,865.2V343.3"/>
	<path class="st5" d="M1196,472H6"/>
	<path class="st6" d="M1195.9,862.9H6.1V341.6h1189.4L1195.9,862.9z"/>
</g>
<g>
	<text transform="matrix(1 0 0 1 207.8565 550.9379)" class="st7 st1 st8">project A</text>
</g>
<g>
	<text transform="matrix(1 0 0 1 51.0796 614.9999)" class="st7 st1 st8">AV</text>
</g>
<g>
	<text transform="matrix(1 0 0 1 51.0796 819.9999)" class="st7 st1 st8">MV</text>
</g>
<g>
	<text transform="matrix(1 0 0 1 207.8565 686.8168)" class="st7 st1 st8">project B</text>
</g>
<g>
	<text transform="matrix(1 0 0 1 207.8565 820.8929)" class="st7 st1 st8">project C</text>
</g>
<text transform="matrix(1 0 0 1 483.8919 433.5298)" class="st7 st1 st8">01/03</text>
<text transform="matrix(1 0 0 1 632.5933 433.5298)" class="st7 st1 st8">02/03</text>
<text transform="matrix(1 0 0 1 781.2948 433.5298)" class="st7 st1 st8">03/03</text>
<text transform="matrix(1 0 0 1 929.9963 433.5298)" class="st7 st1 st8">04/03</text>
<text transform="matrix(1 0 0 1 1078.6979 433.5298)" class="st7 st1 st8">05/03</text>
<g>
	<text transform="matrix(1 0 0 1 455.0342 235.9866)" class="st0 st1 st2">time scale</text>
</g>
<path class="st9" d="M20,1106h74v74H20V1106z"/>
<path class="st7" d="M144,1106h74v74h-74V1106z"/>
<path class="st10" d="M455,502h289v70H455V502z"/>
<path class="st11" d="M604,762h140v69H604V762z"/>
<path class="st9" d="M460.2,502.4h142v69.2h-142V502.4z"/>
<path class="st12" d="M753,633h438v69H753V633z"/>
<path class="st7" d="M758.1,632.5h293.2v69.2H758.1L758.1,632.5z"/>
<path class="st13" d="M1047,307.2v556.5"/>
<path class="st14" d="M750,537h51v67.2"/>
<path class="st7" d="M785.8,599.7L801,626l15.2-26.3H785.8z"/>
<path class="st15" d="M293,502V236"/>
<path class="st15" d="M295,1143h-70"/>
<path class="st15" d="M136,936H70v-86"/>
<path class="st15" d="M954.8,958V690"/>
<path class="st15" d="M452,324.2v-49.5h306.1"/>
<path class="st15" d="M800,126.6V535"/>
<g>
	<text transform="matrix(1 0 0 1 349.623 1189.7617)" class="st0 st16 st17">used if progress bars are color coded</text>
</g>
<line class="st5" x1="136" y1="341.6" x2="136" y2="862.9"/>
</svg>
