<?xml version="1.0" encoding="utf-8"?>
<!-- Generator: Adobe Illustrator 22.1.0, SVG Export Plug-In . SVG Version: 6.00 Build 0)  -->
<svg version="1.1" xmlns="http://www.w3.org/2000/svg" xmlns:xlink="http://www.w3.org/1999/xlink" x="0px" y="0px"
	 viewBox="0 0 1268 418" enable-background="new 0 0 1268 418" xml:space="preserve">
<g id="Layer_1">
	<text transform="matrix(1 0 0 1 254.0745 20.781)" fill="#D1CDC9" font-family="'RobotoCondensed-Regular'" font-size="26px">Jan</text>
	<text transform="matrix(1 0 0 1 628.0363 20.781)" fill="#D1CDC9" font-family="'RobotoCondensed-Regular'" font-size="26px">Feb</text>
	<text transform="matrix(1 0 0 1 991.9972 20.781)" fill="#D1CDC9" font-family="'RobotoCondensed-Regular'" font-size="26px">Mar</text>
	<text transform="matrix(1 0 0 1 15.7502 51.5339)" fill="#A697A6" font-family="'RobotoCondensed-Regular'" font-size="18px">Task 1</text>
	<text transform="matrix(1 0 0 1 344.0002 95.7498)" fill="#A697A6" font-family="'RobotoCondensed-Regular'" font-size="18px">Task 2</text>
	<g>
		<text transform="matrix(1 0 0 1 692.5005 362.7505)" fill="#F7D2AD" font-family="'RobotoCondensed-Regular'" font-size="18px">Task 2</text>
	</g>
	<text transform="matrix(1 0 0 1 564.2501 416)" fill="#968BAF" font-family="'RobotoCondensed-Regular'" font-size="26px">now</text>
	<text transform="matrix(1 0 0 1 227.5002 321.7507)" fill="#F7D2AD" font-family="'RobotoCondensed-Regular'" font-size="18px">Task 1</text>
	<text transform="matrix(1 0 0 1 146.5942 216.7495)" fill="#C6BFCF" font-family="'RobotoCondensed-Regular'" font-size="18px">Task 1</text>
	<text transform="matrix(1 0 0 1 745.8757 257.7498)" fill="#C6BFCF" font-family="'RobotoCondensed-Regular'" font-size="18px">Task 2</text>
	<text transform="matrix(1 0 0 1 692.5002 136.7495)" fill="#A697A6" font-family="'RobotoCondensed-Regular'" font-size="18px">Task 3</text>
	<rect x="85" y="35.8" fill="#A697A6" width="331" height="24"/>
	<rect x="416" y="75.8" fill="#BEAFB6" width="340" height="24"/>
	<rect x="755" y="115.8" fill="#D7C8C5" width="276" height="24"/>
	<g>
		<g>
			<polyline fill="none" stroke="#C4C4C4" stroke-width="2" stroke-miterlimit="10" points="416,47.8 445,47.8 445,57.1 			"/>
			<g>
				<polygon fill="#C4C4C4" points="439,55.4 445,65.8 451,55.4 				"/>
			</g>
		</g>
	</g>
	<g>
		<g>
			<polyline fill="none" stroke="#C4C4C4" stroke-width="2" stroke-miterlimit="10" points="756,87.8 785,87.8 785,97.1 			"/>
			<g>
				<polygon fill="#C4C4C4" points="779,95.4 785,105.8 791,95.4 				"/>
			</g>
		</g>
	</g>
	<rect x="207.6" y="198.8" fill="#C6BFCF" width="622.4" height="24"/>
	<rect x="830" y="239.8" fill="#DDD9E0" width="372" height="24"/>
	<g>
		<g>
			<polyline fill="none" stroke="#C4C4C4" stroke-width="2" stroke-miterlimit="10" points="830,210.8 859,210.8 859,226.1 			"/>
			<g>
				<polygon fill="#C4C4C4" points="853,224.4 859,234.8 865,224.4 				"/>
			</g>
		</g>
	</g>
	<rect x="295" y="304.8" fill="#F7D2AD" width="291" height="24"/>
	<rect x="756" y="344.8" fill="#FEDEB8" width="191" height="24"/>
	<g>
		<g>
			<polyline fill="none" stroke="#C4C4C4" stroke-width="2" stroke-miterlimit="10" points="586,316.8 785,316.8 785,332.1 			"/>
			<g>
				<polygon fill="#C4C4C4" points="779,330.4 785,340.8 791,330.4 				"/>
			</g>
		</g>
	</g>
	<g>
		<g>
			<line fill="none" stroke="#C4C4C4" stroke-width="2" stroke-miterlimit="10" x1="1032" y1="127.8" x2="1213.4" y2="127.8"/>
			<g>
				<polygon fill="#C4C4C4" points="1211.6,133.7 1222,127.8 1211.6,121.8 				"/>
			</g>
		</g>
	</g>
	<line fill="none" stroke="#968BAF" stroke-miterlimit="10" x1="586" y1="394" x2="586" y2="2"/>
	<line fill="none" stroke="#C4C4C4" stroke-miterlimit="10" x1="85" y1="416" x2="85" y2="2"/>
	<line fill="none" stroke="#C4C4C4" stroke-miterlimit="10" x1="466.4" y1="415" x2="466.4" y2="2"/>
	<line fill="none" stroke="#C4C4C4" stroke-miterlimit="10" x1="830" y1="416" x2="830" y2="2"/>
	<line fill="none" stroke="#C4C4C4" stroke-miterlimit="10" x1="1202" y1="415.8" x2="1202" y2="2"/>
	<path fill="#968BAF" d="M1242.8,137.9v-34h9.7c2.6,0,3.1,1.8,3.4,2.1c1,1,1.7,1.5,3.1,1.5h7.1v15.6h-7c-1.4,0-2.1-0.6-3.1-1.5
		c-0.3-0.3-0.8-2.1-3.4-2.1h-6.4v18.4H1242.8z"/>
</g>
<g id="Layer_2">
</g>
<g id="Layer_3">
</g>
</svg>
