<?xml version="1.0" encoding="utf-8"?>
<!-- Generator: Adobe Illustrator 19.2.0, SVG Export Plug-In . SVG Version: 6.00 Build 0)  -->
<svg version="1.1" id="Layer_1" xmlns="http://www.w3.org/2000/svg" xmlns:xlink="http://www.w3.org/1999/xlink" x="0px" y="0px"
	 width="1268px" height="558px" viewBox="0 0 1268 558" enable-background="new 0 0 1268 558" xml:space="preserve">
<g id="Layer_2">
</g>
<line fill="none" stroke="#C4C4C4" stroke-miterlimit="10" x1="161" y1="39.5" x2="1266" y2="39.5"/>
<line fill="none" stroke="#C4C4C4" stroke-miterlimit="10" x1="500.5" y1="556" x2="500.5" y2="3"/>
<line fill="none" stroke="#C4C4C4" stroke-miterlimit="10" x1="415.5" y1="556" x2="415.5" y2="40"/>
<line fill="none" stroke="#C4C4C4" stroke-miterlimit="10" x1="330.5" y1="556" x2="330.5" y2="40"/>
<line fill="none" stroke="#C4C4C4" stroke-miterlimit="10" x1="245.5" y1="556" x2="245.5" y2="40"/>
<line fill="none" stroke="#C4C4C4" stroke-miterlimit="10" x1="1010.5" y1="556" x2="1010.5" y2="40"/>
<line fill="none" stroke="#C4C4C4" stroke-miterlimit="10" x1="925.5" y1="556" x2="925.5" y2="3"/>
<line fill="none" stroke="#C4C4C4" stroke-miterlimit="10" x1="1095.5" y1="556" x2="1095.5" y2="40"/>
<line fill="none" stroke="#C4C4C4" stroke-miterlimit="10" x1="1180.5" y1="556" x2="1180.5" y2="40"/>
<polyline fill="none" stroke="#C4C4C4" stroke-miterlimit="10" points="1265.5,556 1265.5,2.5 160.5,2.5 160.5,555.5 1266,555.5 "/>
<line fill="none" stroke="#C4C4C4" stroke-miterlimit="10" x1="840.5" y1="556" x2="840.5" y2="40"/>
<line fill="none" stroke="#C4C4C4" stroke-miterlimit="10" x1="755.5" y1="556" x2="755.5" y2="40"/>
<line fill="none" stroke="#C4C4C4" stroke-miterlimit="10" x1="670.5" y1="556" x2="670.5" y2="40"/>
<g>
	<text transform="matrix(1 0 0 1 1.9999 143.0002)"><tspan x="0" y="0" fill="#9C96AD" font-family="'RobotoCondensed-Regular'" font-size="26px">Activity A</tspan><tspan x="0" y="170" fill="#9C96AD" font-family="'RobotoCondensed-Regular'" font-size="26px">Activity B</tspan><tspan x="0" y="340" fill="#9C96AD" font-family="'RobotoCondensed-Regular'" font-size="26px">Activity C</tspan></text>
</g>
<g>
	<text transform="matrix(1 0 0 1 169.7502 129.4998)" fill="#B3B3B3" font-family="'RobotoCondensed-Regular'" font-size="26px">Task 1</text>
</g>
<g>
	<text transform="matrix(1 0 0 1 425.5002 191.9998)" fill="#B3B3B3" font-family="'RobotoCondensed-Regular'" font-size="26px">Task 2</text>
</g>
<g>
	<text transform="matrix(1 0 0 1 765.5002 546.0004)" fill="#B3B3B3" font-family="'RobotoCondensed-Regular'" font-size="26px">Task 7</text>
</g>
<g>
	<text transform="matrix(1 0 0 1 532.5002 546.0004)" fill="#B3B3B3" font-family="'RobotoCondensed-Regular'" font-size="26px">now</text>
</g>
<g>
	<text transform="matrix(1 0 0 1 339.5002 479.0007)" fill="#B3B3B3" font-family="'RobotoCondensed-Regular'" font-size="26px">Task 6</text>
</g>
<g>
	<text transform="matrix(1 0 0 1 169.7502 346.9995)" fill="#B3B3B3" font-family="'RobotoCondensed-Regular'" font-size="26px">Task 4</text>
</g>
<g>
	<text transform="matrix(1 0 0 1 849.7919 411.3748)" fill="#B3B3B3" font-family="'RobotoCondensed-Regular'" font-size="26px">Task 5</text>
</g>
<g>
	<text transform="matrix(1 0 0 1 765.5002 258.4409)" fill="#B3B3B3" font-family="'RobotoCondensed-Regular'" font-size="26px">Task 3</text>
</g>
<g>
	<text transform="matrix(1 0 0 1 299.0001 28.5979)" fill="#9C96AD" font-family="'RobotoCondensed-Regular'" font-size="26px">March</text>
</g>
<g>
	<text transform="matrix(1 0 0 1 692.0449 28.5981)" fill="#9C96AD" font-family="'RobotoCondensed-Regular'" font-size="26px">April</text>
</g>
<g>
	<text transform="matrix(1 0 0 1 1074.4604 28.5981)" fill="#9C96AD" font-family="'RobotoCondensed-Regular'" font-size="26px">May</text>
</g>
<rect x="161" y="64" fill="#6C5F82" width="255" height="32"/>
<rect x="416" y="128" fill="#F3D0AA" width="340" height="32"/>
<rect x="756" y="192" fill="#9C96AD" width="255" height="32"/>
<g>
	<g>
		<polyline fill="none" stroke="#C4C4C4" stroke-width="2" stroke-miterlimit="10" points="416,80 445,80 445,113.389 		"/>
		<g>
			<polygon fill="#C4C4C4" points="439.016,111.638 445,122 450.984,111.638 			"/>
		</g>
	</g>
</g>
<g>
	<g>
		<polyline fill="none" stroke="#C4C4C4" stroke-width="2" stroke-miterlimit="10" points="756,144 785,144 785,177.389 		"/>
		<g>
			<polygon fill="#C4C4C4" points="779.016,175.638 785,186 790.984,175.638 			"/>
		</g>
	</g>
</g>
<rect x="161" y="282" fill="#9C96AD" width="680" height="32"/>
<rect x="841" y="346" fill="#9C96AD" width="340" height="32"/>
<g>
	<g>
		<polyline fill="none" stroke="#C4C4C4" stroke-width="2" stroke-miterlimit="10" points="841,298 870,298 870,331.389 		"/>
		<g>
			<polygon fill="#C4C4C4" points="864.016,329.638 870,340 875.984,329.638 			"/>
		</g>
	</g>
</g>
<rect x="331" y="417" fill="#F3D0AA" width="255" height="32"/>
<rect x="756" y="481" fill="#9C96AD" width="170" height="32"/>
<g>
	<g>
		<polyline fill="none" stroke="#C4C4C4" stroke-width="2" stroke-miterlimit="10" points="586,433 785,433 785,466.389 		"/>
		<g>
			<polygon fill="#C4C4C4" points="779.016,464.638 785,475 790.984,464.638 			"/>
		</g>
	</g>
</g>
<g>
	<g>
		<line fill="none" stroke="#C4C4C4" stroke-width="2" stroke-miterlimit="10" x1="1011" y1="208" x2="1192.389" y2="208"/>
		<g>
			<polygon fill="#C4C4C4" points="1190.638,213.984 1201,208 1190.638,202.016 			"/>
		</g>
	</g>
</g>
<g>
	<g>
		<line fill="none" stroke="#6C5F82" stroke-width="2" stroke-miterlimit="10" x1="586" y1="556" x2="586" y2="550"/>
		
			<line fill="none" stroke="#6C5F82" stroke-width="2" stroke-miterlimit="10" stroke-dasharray="11.9055,7.937" x1="586" y1="542.063" x2="586" y2="49.969"/>
		<line fill="none" stroke="#6C5F82" stroke-width="2" stroke-miterlimit="10" x1="586" y1="46" x2="586" y2="40"/>
	</g>
</g>
<path fill="#6C5F82" d="M1221.767,218.156v-33.971h9.702c2.649,0,3.109,1.756,3.426,2.073c0.979,0.95,1.67,1.526,3.052,1.526H1245
	v15.604h-7.025c-1.382,0-2.073-0.576-3.052-1.526c-0.346-0.345-0.777-2.073-3.426-2.073h-6.362v18.367H1221.767z"/>
</svg>
