<?xml version="1.0" encoding="utf-8"?>
<!-- Generator: Adobe Illustrator 22.1.0, SVG Export Plug-In . SVG Version: 6.00 Build 0)  -->
<svg version="1.1" id="Layer_1" xmlns="http://www.w3.org/2000/svg" xmlns:xlink="http://www.w3.org/1999/xlink" x="0px" y="0px"
	 viewBox="0 0 800 800" style="enable-background:new 0 0 800 800;" xml:space="preserve">
<style type="text/css">
	.st0{fill:#A5A5B9;}
	.st1{font-family:'RobotoMono-Regular';}
	.st2{font-size:18.8793px;}
	.st3{fill:none;stroke:#A8A8A8;stroke-miterlimit:10;}
	.st4{fill:none;stroke:#9E9E9E;stroke-width:3;stroke-miterlimit:10;}
	.st5{fill:#EFEFEF;stroke:#9E9E9E;stroke-width:3;stroke-miterlimit:10;}
	.st6{fill:#9E9E9E;}
	.st7{fill:#514361;}
	.st8{font-size:25px;}
	
		.st9{opacity:0.8;fill:none;stroke:#A8A8A8;stroke-width:1.6578;stroke-linecap:round;stroke-miterlimit:10;stroke-dasharray:0,3.3156;enable-background:new    ;}
	.st10{opacity:0.8;enable-background:new    ;}
	.st11{fill:none;stroke:#A8A8A8;stroke-width:2;stroke-linecap:round;stroke-miterlimit:10;}
	.st12{fill:none;stroke:#A8A8A8;stroke-width:2;stroke-linecap:round;stroke-miterlimit:10;stroke-dasharray:0,3.2735;}
	
		.st13{opacity:0.8;fill:none;stroke:#A8A8A8;stroke-width:2;stroke-linecap:round;stroke-miterlimit:10;stroke-dasharray:0,3.3156;enable-background:new    ;}
	.st14{fill:none;stroke:#A8A8A8;stroke-width:2;stroke-linecap:round;stroke-miterlimit:10;stroke-dasharray:0,3.0345;}
	.st15{fill:none;stroke:#A8A8A8;stroke-width:2;stroke-linecap:round;stroke-miterlimit:10;stroke-dasharray:0,3.2748;}
</style>
<g>
	<g>
		<text transform="matrix(1 0 0 1 38.938 776.3154)" class="st0 st1 st2">0</text>
		<text transform="matrix(1 0 0 1 192.937 776.3154)" class="st0 st1 st2">A</text>
		<text transform="matrix(1 0 0 1 334.9497 776.3154)" class="st0 st1 st2">B</text>
		<text transform="matrix(1 0 0 1 476.96 776.3154)" class="st0 st1 st2">C</text>
		<text transform="matrix(1 0 0 1 618.9717 776.3154)" class="st0 st1 st2">D</text>
		<text transform="matrix(1 0 0 1 759.5273 776.3154)" class="st0 st1 st2">E</text>
	</g>
	<line class="st3" x1="57.4" y1="749.7" x2="767.5" y2="749.7"/>
	<g>
		<g>
			<line class="st3" x1="57.4" y1="749.7" x2="57.4" y2="732.1"/>
			<line class="st3" x1="199.4" y1="749.7" x2="199.4" y2="732.1"/>
			<line class="st3" x1="341.4" y1="749.7" x2="341.4" y2="732.1"/>
			<line class="st3" x1="483.4" y1="749.7" x2="483.4" y2="732.1"/>
			<line class="st3" x1="625.5" y1="749.7" x2="625.5" y2="732.1"/>
			<path class="st3" d="M767.5,749.7"/>
		</g>
	</g>
</g>
<g>
	<g>
		<text transform="matrix(1 0 0 1 23.9365 613.0859)" class="st0 st1 st2">20</text>
		<text transform="matrix(1 0 0 1 23.9365 471.0742)" class="st0 st1 st2">40</text>
		<text transform="matrix(1 0 0 1 23.9365 329.0635)" class="st0 st1 st2">60</text>
		<text transform="matrix(1 0 0 1 23.9365 187.0513)" class="st0 st1 st2">80</text>
		<text transform="matrix(1 0 0 1 10.4023 45.0376)" class="st0 st1 st2">100</text>
	</g>
	<line class="st3" x1="57.4" y1="749.7" x2="57.4" y2="39.6"/>
	<g>
		<g>
			<line class="st3" x1="57.4" y1="749.7" x2="75.1" y2="749.7"/>
			<line class="st3" x1="57.4" y1="607.6" x2="75.1" y2="607.6"/>
			<line class="st3" x1="57.4" y1="465.7" x2="75.1" y2="465.7"/>
			<line class="st3" x1="57.4" y1="323.6" x2="75.1" y2="323.6"/>
			<line class="st3" x1="57.4" y1="181.7" x2="75.1" y2="181.7"/>
			<line class="st3" x1="57.4" y1="39.6" x2="75.1" y2="39.6"/>
		</g>
	</g>
</g>
<line class="st4" x1="200.6" y1="223.9" x2="200.6" y2="695.8"/>
<rect x="165.1" y="308.1" class="st5" width="71.9" height="309"/>
<rect x="165.1" y="491.7" class="st6" width="71.9" height="4.7"/>
<rect x="176.5" y="221.2" class="st6" width="49.2" height="5.4"/>
<rect x="176.5" y="693" class="st6" width="49.2" height="5.4"/>
<circle class="st6" cx="200.8" cy="139.8" r="6.6"/>
<circle class="st6" cx="200.8" cy="107.7" r="6.6"/>
<text transform="matrix(1 0 0 1 298.9033 130.3779)" class="st7 st1 st8">outliers</text>
<text transform="matrix(1 0 0 1 298.9033 234.4595)" class="st7 st1 st8">maximum</text>
<text transform="matrix(1 0 0 1 298.9033 706.3545)" class="st7 st1 st8">minimum</text>
<path class="st9" d="M267.8,696.6h-46"/>
<text transform="matrix(1 0 0 1 298.9033 316.2441)" class="st7 st1 st8">upper quartile</text>
<text transform="matrix(1 0 0 1 298.9038 422.335)" class="st7 st1 st8">interquartile range</text>
<path class="st9" d="M267.8,309.4h-46"/>
<text transform="matrix(1 0 0 1 298.9033 624.916)" class="st7 st1 st8">lower quartile</text>
<text transform="matrix(1 0 0 1 298.9033 505.3926)" class="st7 st1 st8">median</text>
<g class="st10">
	<g>
		<line class="st11" x1="276.3" y1="123.7" x2="276.3" y2="123.7"/>
		<line class="st12" x1="273" y1="123.7" x2="238.7" y2="123.7"/>
		<line class="st11" x1="237" y1="123.7" x2="237" y2="123.7"/>
	</g>
</g>
<path class="st13" d="M276.6,224.4h-51"/>
<path class="st13" d="M276.6,493.9h-51"/>
<path class="st13" d="M267.8,696.6h-42.3"/>
<path class="st13" d="M267.8,309.4h-30.9"/>
<path class="st13" d="M272.1,617.3h-35.2"/>
<polyline class="st13" points="251.1,309.4 251.1,393.6 267.8,415 251.1,438.6 251.1,617.1 "/>
<g>
	<path class="st6" d="M208.1,45.2l-4.2,5.5v0.1l6.7-0.9v3l-6.7-0.8v0.1l4.2,5.3l-2.8,1.6l-2.7-6.2h-0.1l-2.9,6.2l-2.5-1.6l4.2-5.4
		v-0.1l-6.6,0.8v-3l6.5,0.8v-0.1l-4.2-5.4l2.7-1.5l2.7,6.2h0.1l2.7-6.2L208.1,45.2z"/>
</g>
<g>
	<g>
		<line class="st11" x1="221.9" y1="51.5" x2="221.9" y2="51.5"/>
		<line class="st14" x1="224.9" y1="51.5" x2="235.5" y2="51.5"/>
		<line class="st11" x1="237" y1="51.5" x2="237" y2="51.5"/>
		<line class="st15" x1="237" y1="54.8" x2="237" y2="144.8"/>
		<line class="st11" x1="237" y1="146.4" x2="237" y2="146.4"/>
		<line class="st14" x1="234" y1="146.4" x2="223.4" y2="146.4"/>
		<line class="st11" x1="221.9" y1="146.4" x2="221.9" y2="146.4"/>
	</g>
</g>
</svg>
