<?xml version="1.0" encoding="utf-8"?>
<!-- Generator: Adobe Illustrator 22.1.0, SVG Export Plug-In . SVG Version: 6.00 Build 0)  -->
<svg version="1.1" xmlns="http://www.w3.org/2000/svg" xmlns:xlink="http://www.w3.org/1999/xlink" x="0px" y="0px"
	 viewBox="0 0 1268 418" enable-background="new 0 0 1268 418" xml:space="preserve">
<g id="Layer_1">
	<line fill="none" stroke="#7E729E" stroke-miterlimit="10" x1="725" y1="18" x2="214" y2="18"/>
	<line fill="none" stroke="#7E729E" stroke-miterlimit="10" x1="725" y1="9" x2="725" y2="28"/>
	<line fill="none" stroke="#7E729E" stroke-miterlimit="10" x1="214" y1="9" x2="214" y2="28"/>
	
		<rect x="429.5" y="-115.5" transform="matrix(-1.836970e-16 1 -1 -1.836970e-16 464.5 -427.5)" fill="#AEA5BF" width="33" height="268"/>
	<rect x="450" y="16" transform="matrix(-1.836970e-16 1 -1 -1.836970e-16 485 -448)" fill="#67588E" width="33" height="5"/>
	<line fill="none" stroke="#7E729E" stroke-miterlimit="10" x1="1081" y1="101" x2="322" y2="101"/>
	<line fill="none" stroke="#7E729E" stroke-miterlimit="10" x1="1081" y1="92" x2="1081" y2="111"/>
	<line fill="none" stroke="#7E729E" stroke-miterlimit="10" x1="322" y1="92" x2="322" y2="111"/>
	
		<rect x="647.5" y="-142.5" transform="matrix(-1.836970e-16 1 -1 -1.836970e-16 765.5 -562.5)" fill="#AEA5BF" width="33" height="488"/>
	<rect x="595.5" y="99" transform="matrix(-1.836970e-16 1 -1 -1.836970e-16 713.5 -510.5)" fill="#67588E" width="33" height="5"/>
	<line fill="none" stroke="#7E729E" stroke-miterlimit="10" x1="1173" y1="183" x2="566" y2="183"/>
	<line fill="none" stroke="#7E729E" stroke-miterlimit="10" x1="1172" y1="174" x2="1172" y2="193"/>
	<line fill="none" stroke="#7E729E" stroke-miterlimit="10" x1="566" y1="174" x2="566" y2="193"/>
	<rect x="801" y="58" transform="matrix(-1.836970e-16 1 -1 -1.836970e-16 1001 -634)" fill="#AEA5BF" width="33" height="251"/>
	<rect x="768" y="181" transform="matrix(-1.836970e-16 1 -1 -1.836970e-16 968 -601)" fill="#67588E" width="33" height="5"/>
	<line fill="none" stroke="#7E729E" stroke-miterlimit="10" x1="793" y1="264.5" x2="391" y2="264.5"/>
	<line fill="none" stroke="#7E729E" stroke-miterlimit="10" x1="793" y1="255.5" x2="793" y2="274.5"/>
	<line fill="none" stroke="#7E729E" stroke-miterlimit="10" x1="391" y1="255.5" x2="391" y2="274.5"/>
	
		<rect x="580" y="158.5" transform="matrix(-1.836970e-16 1 -1 -1.836970e-16 861.4846 -331.5154)" fill="#AEA5BF" width="33" height="213"/>
	
		<rect x="550" y="262.5" transform="matrix(-1.836970e-16 1 -1 -1.836970e-16 831.4846 -301.5154)" fill="#67588E" width="33" height="5"/>
	<line fill="none" stroke="#7E729E" stroke-miterlimit="10" x1="821" y1="347" x2="269" y2="347"/>
	<line fill="none" stroke="#7E729E" stroke-miterlimit="10" x1="821" y1="338" x2="821" y2="357"/>
	<line fill="none" stroke="#7E729E" stroke-miterlimit="10" x1="269" y1="338" x2="269" y2="357"/>
	<rect x="460" y="175" transform="matrix(-1.836970e-16 1 -1 -1.836970e-16 824 -129)" fill="#AEA5BF" width="33" height="345"/>
	
		<rect x="492.5" y="345" transform="matrix(-1.836970e-16 1 -1 -1.836970e-16 856.5 -161.5)" fill="#67588E" width="33" height="5"/>
	<circle fill="#E5C6A9" cx="785.7" cy="18.4" r="5.9"/>
	<circle fill="#E5C6A9" cx="148" cy="18.4" r="5.9"/>
	<circle fill="#E5C6A9" cx="823.7" cy="18.4" r="5.9"/>
	<circle fill="#E5C6A9" cx="1115.8" cy="101" r="5.9"/>
	<circle fill="#E5C6A9" cx="359.6" cy="264.5" r="5.9"/>
	<circle fill="#E5C6A9" cx="814.6" cy="264.5" r="5.9"/>
	<circle fill="#E5C6A9" cx="834.6" cy="264.5" r="5.9"/>
	<circle fill="#E5C6A9" cx="309.6" cy="264.5" r="5.9"/>
	<circle fill="#E5C6A9" cx="295.6" cy="264.5" r="5.9"/>
	<circle fill="#E5C6A9" cx="1208" cy="183.5" r="5.9"/>
	<circle fill="#E5C6A9" cx="508" cy="183.5" r="5.9"/>
	<circle fill="#E5C6A9" cx="905.5" cy="347.5" r="5.9"/>
	<circle fill="#E5C6A9" cx="283.9" cy="101" r="5.9"/>
	<circle fill="#E5C6A9" cx="233.9" cy="101" r="5.9"/>
	<circle fill="#E5C6A9" cx="1175.8" cy="101" r="5.9"/>
	<circle fill="#E5C6A9" cx="1205.8" cy="101" r="5.9"/>
	<circle fill="#E5C6A9" cx="851.6" cy="18.4" r="5.9"/>
	<g>
		<text transform="matrix(1 0 0 1 14.0425 24.1057)"><tspan x="0" y="0" fill="#D1CDC9" font-family="'RobotoCondensed-Regular'" font-size="18px">May</tspan><tspan x="5" y="82" fill="#D1CDC9" font-family="'RobotoCondensed-Regular'" font-size="18px">Apr</tspan><tspan x="2" y="164" fill="#D1CDC9" font-family="'RobotoCondensed-Regular'" font-size="18px">Mar</tspan><tspan x="3.8" y="246" fill="#D1CDC9" font-family="'RobotoCondensed-Regular'" font-size="18px">Feb</tspan><tspan x="3.7" y="328" fill="#D1CDC9" font-family="'RobotoCondensed-Regular'" font-size="18px">Jan</tspan></text>
	</g>
	<polyline fill="none" stroke="#C4C4C4" stroke-miterlimit="10" points="60.4,1.9 60.4,379.4 1266,379.4 	"/>
	<g>
		<line fill="none" stroke="#C4C4C4" stroke-miterlimit="10" x1="50.8" y1="18.4" x2="60.8" y2="18.4"/>
		<line fill="none" stroke="#C4C4C4" stroke-miterlimit="10" x1="50.8" y1="347" x2="60.8" y2="347"/>
		<line fill="none" stroke="#C4C4C4" stroke-miterlimit="10" x1="50.8" y1="264.8" x2="60.8" y2="264.8"/>
		<line fill="none" stroke="#C4C4C4" stroke-miterlimit="10" x1="50.8" y1="182.7" x2="60.8" y2="182.7"/>
		<line fill="none" stroke="#C4C4C4" stroke-miterlimit="10" x1="50.8" y1="100.5" x2="60.8" y2="100.5"/>
	</g>
	<g>
		<g>
			<text transform="matrix(1 0 0 1 372.0106 416.0527)" fill="#D1CDC9" font-family="'RobotoCondensed-Regular'" font-size="18px">40</text>
		</g>
		<g>
			<text transform="matrix(1 0 0 1 588.6146 416.0527)" fill="#D1CDC9" font-family="'RobotoCondensed-Regular'" font-size="18px">60</text>
		</g>
		<g>
			<text transform="matrix(1 0 0 1 155.4067 416.0527)" fill="#D1CDC9" font-family="'RobotoCondensed-Regular'" font-size="18px">20</text>
		</g>
		<g>
			<text transform="matrix(1 0 0 1 805.2184 416.0527)" fill="#D1CDC9" font-family="'RobotoCondensed-Regular'" font-size="18px">80</text>
		</g>
		<g>
			<text transform="matrix(1 0 0 1 1014.5931 416.0527)" fill="#D1CDC9" font-family="'RobotoCondensed-Regular'" font-size="18px">100</text>
		</g>
		<g>
			<text transform="matrix(1 0 0 1 1228.8137 416.0527)" fill="#D1CDC9" font-family="'RobotoCondensed-Regular'" font-size="18px">120</text>
		</g>
	</g>
	<line fill="none" stroke="#C4C4C4" stroke-miterlimit="10" x1="168.5" y1="388.9" x2="168.5" y2="379.4"/>
	<line fill="none" stroke="#C4C4C4" stroke-miterlimit="10" x1="384.8" y1="388.9" x2="384.8" y2="379.4"/>
	<line fill="none" stroke="#C4C4C4" stroke-miterlimit="10" x1="601.1" y1="388.9" x2="601.1" y2="379.4"/>
	<line fill="none" stroke="#C4C4C4" stroke-miterlimit="10" x1="817.4" y1="388.9" x2="817.4" y2="379.4"/>
	<line fill="none" stroke="#C4C4C4" stroke-miterlimit="10" x1="276.7" y1="388.9" x2="276.7" y2="379.4"/>
	<line fill="none" stroke="#C4C4C4" stroke-miterlimit="10" x1="493" y1="388.9" x2="493" y2="379.4"/>
	<line fill="none" stroke="#C4C4C4" stroke-miterlimit="10" x1="709.3" y1="388.9" x2="709.3" y2="379.4"/>
	<line fill="none" stroke="#C4C4C4" stroke-miterlimit="10" x1="925.6" y1="388.9" x2="925.6" y2="379.4"/>
	<line fill="none" stroke="#C4C4C4" stroke-miterlimit="10" x1="1033.7" y1="388.9" x2="1033.7" y2="379.4"/>
	<line fill="none" stroke="#C4C4C4" stroke-miterlimit="10" x1="1141.9" y1="388.9" x2="1141.9" y2="379.4"/>
	<line fill="none" stroke="#C4C4C4" stroke-miterlimit="10" x1="1249" y1="387.3" x2="1249" y2="379.4"/>
</g>
<g id="Layer_2">
</g>
<g id="Layer_3">
</g>
</svg>
