<?xml version="1.0" encoding="utf-8"?>
<!-- Generator: Adobe Illustrator 19.2.0, SVG Export Plug-In . SVG Version: 6.00 Build 0)  -->
<svg version="1.1" id="Layer_1" xmlns="http://www.w3.org/2000/svg" xmlns:xlink="http://www.w3.org/1999/xlink" x="0px" y="0px"
	 width="1268px" height="558px" viewBox="0 0 1268 558" enable-background="new 0 0 1268 558" xml:space="preserve">
<g>
	<line fill="none" stroke="#C4C4C4" stroke-miterlimit="10" x1="2.938" y1="436.171" x2="1191.938" y2="436.171"/>
	<line fill="none" stroke="#C4C4C4" stroke-miterlimit="10" x1="2.938" y1="351.171" x2="1191.938" y2="351.171"/>
	<line fill="none" stroke="#C4C4C4" stroke-miterlimit="10" x1="2.938" y1="266.171" x2="1191.938" y2="266.171"/>
	<line fill="none" stroke="#C4C4C4" stroke-miterlimit="10" x1="2.938" y1="181.171" x2="1191.938" y2="181.171"/>
	<line fill="none" stroke="#C4C4C4" stroke-miterlimit="10" x1="2.938" y1="96.171" x2="1191.938" y2="96.171"/>
	<line fill="none" stroke="#C4C4C4" stroke-miterlimit="10" x1="2.938" y1="11.171" x2="1191.938" y2="11.171"/>
</g>
<g>
	<text transform="matrix(1 0 0 1 1201.3408 23.9805)"><tspan x="0" y="0" fill="#B3B3B3" font-family="'RobotoCondensed-Regular'" font-size="26px">$300K</tspan><tspan x="0" y="83" fill="#B3B3B3" font-family="'RobotoCondensed-Regular'" font-size="26px">$250K</tspan><tspan x="0" y="166" fill="#B3B3B3" font-family="'RobotoCondensed-Regular'" font-size="26px">$200K</tspan><tspan x="0" y="249" fill="#B3B3B3" font-family="'RobotoCondensed-Regular'" font-size="26px">$150K</tspan><tspan x="0" y="332" fill="#B3B3B3" font-family="'RobotoCondensed-Regular'" font-size="26px">$100K</tspan><tspan x="12.835" y="415" fill="#B3B3B3" font-family="'RobotoCondensed-Regular'" font-size="26px">$50K</tspan><tspan x="52.673" y="498" fill="#B3B3B3" font-family="'RobotoCondensed-Regular'" font-size="26px">0</tspan></text>
</g>
<line fill="none" stroke="#6C5F82" stroke-width="2" stroke-miterlimit="10" x1="2.938" y1="521.171" x2="1191.938" y2="521.171"/>
<line fill="none" stroke="#37246D" stroke-width="2" stroke-miterlimit="10" x1="46.825" y1="80.571" x2="46.825" y2="266.171"/>
<line fill="none" stroke="#37246D" stroke-width="2" stroke-miterlimit="10" x1="39.4" y1="80.571" x2="54.25" y2="80.571"/>
<line fill="none" stroke="#37246D" stroke-width="2" stroke-miterlimit="10" x1="39.4" y1="266.171" x2="54.25" y2="266.171"/>
<rect x="33.644" y="133.33" fill="#9C96AD" width="26.363" height="97.131"/>
<rect x="33.644" y="179.55" fill="#6C5F82" width="26.363" height="50.912"/>
<circle fill="#37246D" cx="46.825" cy="179.55" r="3.571"/>
<line fill="none" stroke="#37246D" stroke-width="2" stroke-miterlimit="10" x1="99.551" y1="30.571" x2="99.551" y2="306.171"/>
<line fill="none" stroke="#37246D" stroke-width="2" stroke-miterlimit="10" x1="92.126" y1="30.571" x2="106.976" y2="30.571"/>
<line fill="none" stroke="#37246D" stroke-width="2" stroke-miterlimit="10" x1="92.126" y1="306.171" x2="106.976" y2="306.171"/>
<rect x="86.37" y="93.33" fill="#9C96AD" width="26.363" height="177.131"/>
<rect x="86.37" y="199.55" fill="#6C5F82" width="26.363" height="70.912"/>
<circle fill="#37246D" cx="99.551" cy="199.55" r="3.571"/>
<line fill="none" stroke="#37246D" stroke-width="2" stroke-miterlimit="10" x1="152.277" y1="96.571" x2="152.277" y2="266.171"/>
<line fill="none" stroke="#37246D" stroke-width="2" stroke-miterlimit="10" x1="144.852" y1="96.571" x2="159.702" y2="96.571"/>
<line fill="none" stroke="#37246D" stroke-width="2" stroke-miterlimit="10" x1="144.852" y1="266.171" x2="159.702" y2="266.171"/>
<rect x="139.096" y="129.33" fill="#9C96AD" width="26.363" height="91.131"/>
<rect x="139.096" y="189.55" fill="#6C5F82" width="26.363" height="30.912"/>
<circle fill="#37246D" cx="152.277" cy="189.55" r="3.571"/>
<line fill="none" stroke="#37246D" stroke-width="2" stroke-miterlimit="10" x1="205.003" y1="120.571" x2="205.003" y2="266.171"/>
<line fill="none" stroke="#37246D" stroke-width="2" stroke-miterlimit="10" x1="197.578" y1="120.571" x2="212.428" y2="120.571"/>
<line fill="none" stroke="#37246D" stroke-width="2" stroke-miterlimit="10" x1="197.578" y1="266.171" x2="212.428" y2="266.171"/>
<rect x="191.822" y="153.33" fill="#9C96AD" width="26.363" height="77.131"/>
<rect x="191.822" y="189.55" fill="#6C5F82" width="26.363" height="40.912"/>
<circle fill="#37246D" cx="205.003" cy="189.55" r="3.571"/>
<line fill="none" stroke="#37246D" stroke-width="2" stroke-miterlimit="10" x1="257.729" y1="152.571" x2="257.729" y2="353.171"/>
<line fill="none" stroke="#37246D" stroke-width="2" stroke-miterlimit="10" x1="250.304" y1="152.571" x2="265.154" y2="152.571"/>
<line fill="none" stroke="#37246D" stroke-width="2" stroke-miterlimit="10" x1="250.304" y1="353.171" x2="265.154" y2="353.171"/>
<rect x="244.548" y="215.33" fill="#9C96AD" width="26.363" height="125.131"/>
<rect x="244.548" y="249.55" fill="#6C5F82" width="26.363" height="90.912"/>
<circle fill="#37246D" cx="257.729" cy="249.55" r="3.571"/>
<line fill="none" stroke="#37246D" stroke-width="2" stroke-miterlimit="10" x1="310.455" y1="210.571" x2="310.455" y2="396.171"/>
<line fill="none" stroke="#37246D" stroke-width="2" stroke-miterlimit="10" x1="303.03" y1="210.571" x2="317.88" y2="210.571"/>
<line fill="none" stroke="#37246D" stroke-width="2" stroke-miterlimit="10" x1="303.03" y1="396.171" x2="317.88" y2="396.171"/>
<rect x="297.274" y="273.33" fill="#9C96AD" width="26.363" height="97.131"/>
<rect x="297.274" y="309.55" fill="#6C5F82" width="26.363" height="60.912"/>
<circle fill="#37246D" cx="310.455" cy="309.55" r="3.571"/>
<line fill="none" stroke="#37246D" stroke-width="2" stroke-miterlimit="10" x1="363.181" y1="80.571" x2="363.181" y2="309.171"/>
<line fill="none" stroke="#37246D" stroke-width="2" stroke-miterlimit="10" x1="355.756" y1="80.571" x2="370.606" y2="80.571"/>
<line fill="none" stroke="#37246D" stroke-width="2" stroke-miterlimit="10" x1="355.756" y1="309.171" x2="370.606" y2="309.171"/>
<rect x="350" y="143.33" fill="#9C96AD" width="26.363" height="130.131"/>
<rect x="350" y="212.55" fill="#6C5F82" width="26.363" height="60.912"/>
<circle fill="#37246D" cx="363.181" cy="212.55" r="3.571"/>
<line fill="none" stroke="#37246D" stroke-width="2" stroke-miterlimit="10" x1="415.907" y1="120.571" x2="415.907" y2="456.171"/>
<line fill="none" stroke="#37246D" stroke-width="2" stroke-miterlimit="10" x1="408.482" y1="120.571" x2="423.332" y2="120.571"/>
<line fill="none" stroke="#37246D" stroke-width="2" stroke-miterlimit="10" x1="408.482" y1="456.171" x2="423.332" y2="456.171"/>
<rect x="402.726" y="153.33" fill="#9C96AD" width="26.363" height="237.131"/>
<rect x="402.726" y="249.55" fill="#6C5F82" width="26.363" height="140.912"/>
<circle fill="#37246D" cx="415.907" cy="249.55" r="3.571"/>
<line fill="none" stroke="#37246D" stroke-width="2" stroke-miterlimit="10" x1="468.633" y1="210.571" x2="468.633" y2="369.171"/>
<line fill="none" stroke="#37246D" stroke-width="2" stroke-miterlimit="10" x1="461.208" y1="210.571" x2="476.058" y2="210.571"/>
<line fill="none" stroke="#37246D" stroke-width="2" stroke-miterlimit="10" x1="461.208" y1="369.171" x2="476.058" y2="369.171"/>
<rect x="455.452" y="273.33" fill="#9C96AD" width="26.363" height="60.131"/>
<rect x="455.452" y="289.55" fill="#6C5F82" width="26.363" height="43.912"/>
<circle fill="#37246D" cx="468.633" cy="289.55" r="3.571"/>
<line fill="none" stroke="#37246D" stroke-width="2" stroke-miterlimit="10" x1="521.359" y1="60.571" x2="521.359" y2="306.171"/>
<line fill="none" stroke="#37246D" stroke-width="2" stroke-miterlimit="10" x1="513.934" y1="60.571" x2="528.784" y2="60.571"/>
<line fill="none" stroke="#37246D" stroke-width="2" stroke-miterlimit="10" x1="513.934" y1="306.171" x2="528.784" y2="306.171"/>
<rect x="508.178" y="163.33" fill="#9C96AD" width="26.363" height="107.131"/>
<rect x="508.178" y="239.55" fill="#6C5F82" width="26.363" height="30.912"/>
<circle fill="#37246D" cx="521.359" cy="239.55" r="3.571"/>
<line fill="none" stroke="#37246D" stroke-width="2" stroke-miterlimit="10" x1="574.085" y1="80.571" x2="574.085" y2="350.171"/>
<line fill="none" stroke="#37246D" stroke-width="2" stroke-miterlimit="10" x1="566.66" y1="80.571" x2="581.51" y2="80.571"/>
<line fill="none" stroke="#37246D" stroke-width="2" stroke-miterlimit="10" x1="566.66" y1="350.171" x2="581.51" y2="350.171"/>
<rect x="560.904" y="193.33" fill="#9C96AD" width="26.363" height="121.131"/>
<rect x="560.904" y="249.55" fill="#6C5F82" width="26.363" height="64.912"/>
<circle fill="#37246D" cx="574.085" cy="249.55" r="3.571"/>
<line fill="none" stroke="#37246D" stroke-width="2" stroke-miterlimit="10" x1="890.441" y1="80.571" x2="890.441" y2="309.171"/>
<line fill="none" stroke="#37246D" stroke-width="2" stroke-miterlimit="10" x1="883.016" y1="80.571" x2="897.866" y2="80.571"/>
<line fill="none" stroke="#37246D" stroke-width="2" stroke-miterlimit="10" x1="883.016" y1="309.171" x2="897.866" y2="309.171"/>
<rect x="877.26" y="143.33" fill="#9C96AD" width="26.363" height="130.131"/>
<rect x="877.26" y="212.55" fill="#6C5F82" width="26.363" height="60.912"/>
<circle fill="#37246D" cx="890.441" cy="212.55" r="3.571"/>
<line fill="none" stroke="#37246D" stroke-width="2" stroke-miterlimit="10" x1="943.167" y1="120.571" x2="943.167" y2="456.171"/>
<line fill="none" stroke="#37246D" stroke-width="2" stroke-miterlimit="10" x1="935.742" y1="120.571" x2="950.592" y2="120.571"/>
<line fill="none" stroke="#37246D" stroke-width="2" stroke-miterlimit="10" x1="935.742" y1="456.171" x2="950.592" y2="456.171"/>
<rect x="929.985" y="153.33" fill="#9C96AD" width="26.363" height="237.131"/>
<rect x="929.985" y="300.461" fill="#6C5F82" width="26.363" height="90"/>
<circle fill="#37246D" cx="943.167" cy="300.461" r="3.571"/>
<line fill="none" stroke="#37246D" stroke-width="2" stroke-miterlimit="10" x1="995.893" y1="200.571" x2="995.893" y2="379.171"/>
<line fill="none" stroke="#37246D" stroke-width="2" stroke-miterlimit="10" x1="988.468" y1="200.571" x2="1003.318" y2="200.571"/>
<line fill="none" stroke="#37246D" stroke-width="2" stroke-miterlimit="10" x1="988.468" y1="379.171" x2="1003.318" y2="379.171"/>
<rect x="982.711" y="263.33" fill="#9C96AD" width="26.363" height="80.131"/>
<rect x="982.711" y="299.55" fill="#6C5F82" width="26.363" height="43.912"/>
<circle fill="#37246D" cx="995.893" cy="299.55" r="3.571"/>
<line fill="none" stroke="#37246D" stroke-width="2" stroke-miterlimit="10" x1="1048.619" y1="190.571" x2="1048.619" y2="346.171"/>
<line fill="none" stroke="#37246D" stroke-width="2" stroke-miterlimit="10" x1="1041.194" y1="190.571" x2="1056.044" y2="190.571"/>
<line fill="none" stroke="#37246D" stroke-width="2" stroke-miterlimit="10" x1="1041.194" y1="346.171" x2="1056.044" y2="346.171"/>
<rect x="1035.438" y="223.33" fill="#9C96AD" width="26.363" height="87.131"/>
<rect x="1035.438" y="268.978" fill="#6C5F82" width="26.363" height="41.483"/>
<circle fill="#37246D" cx="1048.619" cy="268.978" r="3.571"/>
<line fill="none" stroke="#37246D" stroke-width="2" stroke-miterlimit="10" x1="1101.345" y1="110.571" x2="1101.345" y2="300.171"/>
<line fill="none" stroke="#37246D" stroke-width="2" stroke-miterlimit="10" x1="1093.92" y1="110.571" x2="1108.77" y2="110.571"/>
<line fill="none" stroke="#37246D" stroke-width="2" stroke-miterlimit="10" x1="1093.92" y1="300.171" x2="1108.77" y2="300.171"/>
<rect x="1088.163" y="173.33" fill="#9C96AD" width="26.363" height="91.131"/>
<rect x="1088.163" y="223.371" fill="#6C5F82" width="26.363" height="41.09"/>
<circle fill="#37246D" cx="1101.345" cy="223.371" r="3.571"/>
<line fill="none" stroke="#37246D" stroke-width="2" stroke-miterlimit="10" x1="1154.071" y1="60.571" x2="1154.071" y2="396.171"/>
<line fill="none" stroke="#37246D" stroke-width="2" stroke-miterlimit="10" x1="1146.646" y1="60.571" x2="1161.496" y2="60.571"/>
<line fill="none" stroke="#37246D" stroke-width="2" stroke-miterlimit="10" x1="1146.646" y1="396.171" x2="1161.496" y2="396.171"/>
<rect x="1140.889" y="163.33" fill="#9C96AD" width="26.363" height="197.131"/>
<rect x="1140.889" y="289.55" fill="#6C5F82" width="26.363" height="70.912"/>
<circle fill="#37246D" cx="1154.071" cy="289.55" r="3.571"/>
<line fill="none" stroke="#37246D" stroke-width="2" stroke-miterlimit="10" x1="626.811" y1="96.571" x2="626.811" y2="262.171"/>
<line fill="none" stroke="#37246D" stroke-width="2" stroke-miterlimit="10" x1="619.386" y1="96.571" x2="634.236" y2="96.571"/>
<line fill="none" stroke="#37246D" stroke-width="2" stroke-miterlimit="10" x1="619.386" y1="262.171" x2="634.236" y2="262.171"/>
<rect x="613.63" y="143.33" fill="#9C96AD" width="26.363" height="123.131"/>
<rect x="613.63" y="225.55" fill="#6C5F82" width="26.363" height="40.912"/>
<circle fill="#37246D" cx="626.811" cy="225.55" r="3.571"/>
<line fill="none" stroke="#37246D" stroke-width="2" stroke-miterlimit="10" x1="679.537" y1="12.571" x2="679.537" y2="406.171"/>
<line fill="none" stroke="#37246D" stroke-width="2" stroke-miterlimit="10" x1="672.112" y1="12.571" x2="686.962" y2="12.571"/>
<line fill="none" stroke="#37246D" stroke-width="2" stroke-miterlimit="10" x1="672.112" y1="406.171" x2="686.962" y2="406.171"/>
<rect x="666.356" y="75.33" fill="#9C96AD" width="26.363" height="225.131"/>
<rect x="666.356" y="194.871" fill="#6C5F82" width="26.363" height="126.634"/>
<circle fill="#37246D" cx="679.537" cy="194.871" r="3.571"/>
<line fill="none" stroke="#37246D" stroke-width="2" stroke-miterlimit="10" x1="732.263" y1="60.571" x2="732.263" y2="476.171"/>
<line fill="none" stroke="#37246D" stroke-width="2" stroke-miterlimit="10" x1="724.838" y1="60.571" x2="739.688" y2="60.571"/>
<line fill="none" stroke="#37246D" stroke-width="2" stroke-miterlimit="10" x1="724.838" y1="476.171" x2="739.688" y2="476.171"/>
<rect x="719.082" y="123.33" fill="#9C96AD" width="26.363" height="217.131"/>
<rect x="719.082" y="229.55" fill="#6C5F82" width="26.363" height="150.912"/>
<circle fill="#37246D" cx="732.263" cy="229.55" r="3.571"/>
<line fill="none" stroke="#37246D" stroke-width="2" stroke-miterlimit="10" x1="784.989" y1="118.571" x2="784.989" y2="350.171"/>
<line fill="none" stroke="#37246D" stroke-width="2" stroke-miterlimit="10" x1="777.564" y1="118.571" x2="792.414" y2="118.571"/>
<line fill="none" stroke="#37246D" stroke-width="2" stroke-miterlimit="10" x1="777.564" y1="350.171" x2="792.414" y2="350.171"/>
<rect x="771.807" y="181.33" fill="#9C96AD" width="26.363" height="133.131"/>
<rect x="771.807" y="249.55" fill="#6C5F82" width="26.363" height="64.912"/>
<circle fill="#37246D" cx="784.989" cy="249.55" r="3.571"/>
<line fill="none" stroke="#37246D" stroke-width="2" stroke-miterlimit="10" x1="837.715" y1="210.571" x2="837.715" y2="416.171"/>
<line fill="none" stroke="#37246D" stroke-width="2" stroke-miterlimit="10" x1="830.29" y1="210.571" x2="845.14" y2="210.571"/>
<line fill="none" stroke="#37246D" stroke-width="2" stroke-miterlimit="10" x1="830.29" y1="416.171" x2="845.14" y2="416.171"/>
<rect x="824.534" y="273.33" fill="#9C96AD" width="26.363" height="107.131"/>
<rect x="824.534" y="318.396" fill="#6C5F82" width="26.363" height="62.066"/>
<circle fill="#37246D" cx="837.715" cy="318.396" r="3.571"/>
<g>
	<text transform="matrix(1 0 0 1 32.5443 553.9542)" fill="#B3B3B3" font-family="'RobotoCondensed-Regular'" font-size="26px">01</text>
</g>
<g>
	<text transform="matrix(1 0 0 1 85.3561 553.9542)" fill="#B3B3B3" font-family="'RobotoCondensed-Regular'" font-size="26px">02</text>
</g>
<g>
	<text transform="matrix(1 0 0 1 138.1675 553.9542)" fill="#B3B3B3" font-family="'RobotoCondensed-Regular'" font-size="26px">03</text>
</g>
<g>
	<text transform="matrix(1 0 0 1 190.9789 553.9542)" fill="#B3B3B3" font-family="'RobotoCondensed-Regular'" font-size="26px">04</text>
</g>
<g>
	<text transform="matrix(1 0 0 1 243.7902 553.9542)" fill="#B3B3B3" font-family="'RobotoCondensed-Regular'" font-size="26px">05</text>
</g>
<g>
	<text transform="matrix(1 0 0 1 296.6016 553.9542)" fill="#B3B3B3" font-family="'RobotoCondensed-Regular'" font-size="26px">06</text>
</g>
<g>
	<text transform="matrix(1 0 0 1 349.4129 553.9542)" fill="#B3B3B3" font-family="'RobotoCondensed-Regular'" font-size="26px">07</text>
</g>
<g>
	<text transform="matrix(1 0 0 1 402.2243 553.9542)" fill="#B3B3B3" font-family="'RobotoCondensed-Regular'" font-size="26px">08</text>
</g>
<g>
	<text transform="matrix(1 0 0 1 455.0356 553.9542)" fill="#B3B3B3" font-family="'RobotoCondensed-Regular'" font-size="26px">09</text>
</g>
<g>
	<text transform="matrix(1 0 0 1 507.847 553.9542)" fill="#B3B3B3" font-family="'RobotoCondensed-Regular'" font-size="26px">10</text>
</g>
<g>
	<text transform="matrix(1 0 0 1 560.6584 553.9542)" fill="#B3B3B3" font-family="'RobotoCondensed-Regular'" font-size="26px">11</text>
</g>
<g>
	<text transform="matrix(1 0 0 1 613.4697 553.9542)" fill="#B3B3B3" font-family="'RobotoCondensed-Regular'" font-size="26px">12</text>
</g>
<g>
	<text transform="matrix(1 0 0 1 666.2811 553.9542)" fill="#B3B3B3" font-family="'RobotoCondensed-Regular'" font-size="26px">13</text>
</g>
<g>
	<text transform="matrix(1 0 0 1 719.0925 553.9542)" fill="#B3B3B3" font-family="'RobotoCondensed-Regular'" font-size="26px">14</text>
</g>
<g>
	<text transform="matrix(1 0 0 1 771.9038 553.9542)" fill="#B3B3B3" font-family="'RobotoCondensed-Regular'" font-size="26px">15</text>
</g>
<g>
	<text transform="matrix(1 0 0 1 824.7152 553.9542)" fill="#B3B3B3" font-family="'RobotoCondensed-Regular'" font-size="26px">16</text>
</g>
<g>
	<text transform="matrix(1 0 0 1 877.5266 553.9542)" fill="#B3B3B3" font-family="'RobotoCondensed-Regular'" font-size="26px">17</text>
</g>
<g>
	<text transform="matrix(1 0 0 1 930.3379 553.9542)" fill="#B3B3B3" font-family="'RobotoCondensed-Regular'" font-size="26px">18</text>
</g>
<g>
	<text transform="matrix(1 0 0 1 983.1493 553.9542)" fill="#B3B3B3" font-family="'RobotoCondensed-Regular'" font-size="26px">19</text>
</g>
<g>
	<text transform="matrix(1 0 0 1 1035.9607 553.9542)" fill="#B3B3B3" font-family="'RobotoCondensed-Regular'" font-size="26px">20</text>
</g>
<g>
	<text transform="matrix(1 0 0 1 1088.772 553.9542)" fill="#B3B3B3" font-family="'RobotoCondensed-Regular'" font-size="26px">21</text>
</g>
<g>
	<text transform="matrix(1 0 0 1 1141.5829 553.9542)" fill="#B3B3B3" font-family="'RobotoCondensed-Regular'" font-size="26px">22</text>
</g>
</svg>
