<svg height="430" viewBox="0 0 650 430" width="650" xmlns="http://www.w3.org/2000/svg"><path d="m16.4 375.3-4.2.2v-96.6h96.3v96.3h-4.1" fill="#919191"/><path d="m572.3 65.8-.2-54.1h54.7" fill="#919191"/><path d="m570 11.7-.1 22.2h-21.8l-.1-22.2z" fill="#919191"/><path d="m161 375.9v-82.7h83.3v82.7" fill="#c1c1c1"/><g fill="#919191"><path d="m515.7 420.6h-82.5v-82.3h82.4"/><path d="m330.9 172.7v68.8h-68.9v-68.8"/><path d="m519.3 147.1v68.9h-68.4v-68.9"/><path d="m447.5 150v66h-65.4v-66"/><path d="m378.4 106.6v62.6h-63.1v-62.6"/></g><path d="m465.4 218.8v57.7h-58v-57.7" fill="#c1c1c1"/><path d="m571.8 68.9h55.3v55.3h-55.3z" fill="#919191"/><path d="m522.7 218.9v54.6h-53.9v-54.6z" fill="#919191"/><path d="m462.4 335.4h-54.8v-55.6h54.8" fill="#c1c1c1"/><path d="m261.9 169.1v-50.4h50.4v50.4z" fill="#919191"/><path d="m209.2 153.4h50.1v49.5h-50.1z" fill="#919191"/><path d="m522.7 195.3v-48.2h48.2v48.2z" fill="#919191"/><path d="m195.8 244.3h46.3v45.6h-46.3z" fill="#c1c1c1"/><path d="m290.3 290.2h-45.4v-45.8h45.4z" fill="#c1c1c1"/><path d="m378.7 241.8h-44.8v-45h44.8z" fill="#c1c1c1"/><path d="m149.9 246.6h43.1v43.2l-43.1.3z" fill="#919191"/><path d="m325.2 286.7h41.9v41.9h-41.9z" fill="#c1c1c1"/><path d="m72.2 207.4v-40.4h40.4v40.4z" fill="#919191"/><path d="m246.9 333.3v-40h40.3v40z" fill="#c1c1c1"/><path d="m364.5 244.5v39.1h-39.3v-39.1z" fill="#c1c1c1"/><path d="m404.8 244.8v37.3h-37.8v-37.3z" fill="#c1c1c1"/><path d="m533.4 88.8h35.4v35.4h-35.4z" fill="#919191"/><path d="m223.6 240.9v-34.8h34.9v34.8z" fill="#919191"/><path d="m220.7 241.2h-34.9v-35.2h34.9z" fill="#c1c1c1"/><path d="m147 279.2v35h-35.2v-35z" fill="#c1c1c1"/><path d="m78.6 211h34.1v34h-34.1z" fill="#919191"/><path d="m206.8 173.2v30h-30.2v-30z" fill="#c1c1c1"/><path d="m116.9 246.3h29.9v29.9h-29.9z" fill="#c1c1c1"/><path d="m322.4 273.7h-29.2v-28.9h29.2z" fill="#c1c1c1"/><path d="m322.4 305.8h-29.3v-28.9h29.3z" fill="#c1c1c1"/><path d="m113.4 275.7h-27.6v-27.6h27.6z" fill="#919191"/><path d="m181.7 243.3h-24.4v-24.5h24.4z" fill="#c1c1c1"/><path d="m111.3 341v-23.4h24v23.4z" fill="#919191"/><path d="m381.8 241.6v-22.7h23v22.7z" fill="#c1c1c1"/><path d="m115.8 221.5h21.8v21.7h-21.8z" fill="#c1c1c1"/><path d="m573.9 147h18.5v18.5h-18.5z" fill="#919191"/><path d="m172.4 216.1h-15.7v-15.8h15.7z" fill="#c1c1c1"/><path d="m172.5 182.9v14.6h-14.8v-14.6z" fill="#c1c1c1"/><path d="m140.4 230h13.8v13.2l-13.8.1z" fill="#c1c1c1"/><path d="m140.3 226.9v-10.2h10.6v10.2z" fill="#c1c1c1"/><path d="m530 143.8h-79.5v-79.5h79.5z" fill="#919191"/><path d="m550.2 143.8h-16.8v-16.8h16.8z" fill="#919191"/><path d="m550.2 85.7h-16.8v-16.8h16.8z" fill="#c1c1c1"/><path d="m572.1 11.7h55v54.12h-55z" fill="#919191"/><path d="m522.8 198.1h17.2v17.25h-17.2z" fill="#919191"/></svg>