<svg enable-background="new 0 0 1268 418" viewBox="0 0 1268 418" xmlns="http://www.w3.org/2000/svg"><path d="m319.9 370.1-4.3.2v-97.8h97.5v97.5h-4.1" fill="#9191a3"/><path d="m882.7 56.8-.2-54.8h55.4" fill="#9191a3"/><path d="m880.4 2-.1 22.5h-22.1l-.1-22.5z" fill="#9191a3"/><path d="m466.3 370.7v-83.7h84.3v83.7" fill="#c1c1d3"/><g fill="#9191a3"><path d="m825.4 416h-83.5v-83.3h83.4"/><path d="m638.3 165v69.7h-69.8v-69.7"/><path d="m829.1 139.1v69.8h-69.3v-69.8"/><path d="m756.4 142v66.8h-66.2v-66.8"/><path d="m686.4 98.1v63.4h-63.9v-63.4"/></g><path d="m774.5 211.7v58.4h-58.7v-58.4" fill="#c1c1d3"/><path d="m882.2 59.9h56v56h-56z" fill="#9191a3"/><path d="m832.5 211.8v55.3h-54.6v-55.3z" fill="#9191a3"/><path d="m771.5 329.7h-55.5v-56.3h55.5" fill="#c1c1d3"/><path d="m568.5 161.4v-51h51v51z" fill="#9191a3"/><path d="m515.1 145.5h50.7v50.1h-50.7z" fill="#9191a3"/><path d="m832.5 187.9v-48.8h48.8v48.8z" fill="#9191a3"/><path d="m501.5 237.5h46.9v46.2h-46.9z" fill="#c1c1d3"/><path d="m597.2 284h-46v-46.4h46z" fill="#c1c1d3"/><path d="m686.7 235h-45.4v-45.6h45.4z" fill="#c1c1d3"/><path d="m455.1 239.8h43.6v43.7l-43.6.3z" fill="#9191a3"/><path d="m632.5 280.4h42.5v42.4h-42.4v-42.4z" fill="#c1c1d3"/><path d="m376.4 200.1v-40.9h40.9v40.9z" fill="#9191a3"/><path d="m553.3 327.6v-40.5h40.8v40.5z" fill="#c1c1d3"/><path d="m672.3 237.7v39.6h-39.8v-39.6z" fill="#c1c1d3"/><path d="m713.1 238v37.8h-38.3v-37.8z" fill="#c1c1d3"/><path d="m843.3 80.1h35.8v35.8h-35.8z" fill="#9191a3"/><path d="m529.7 234.1v-35.2h35.3v35.2z" fill="#9191a3"/><path d="m526.7 234.4h-35.3v-35.6h35.3z" fill="#c1c1d3"/><path d="m452.1 272.8v35.4h-35.6v-35.4z" fill="#c1c1d3"/><path d="m382.9 203.8h34.5v34.4h-34.5z" fill="#9191a3"/><path d="m512.7 165.5v30.4h-30.6v-30.4z" fill="#c1c1d3"/><path d="m421.6 239.5h30.3v30.3h-30.3z" fill="#c1c1d3"/><path d="m629.7 267.3h-29.6v-29.3h29.6z" fill="#c1c1d3"/><path d="m629.7 299.8h-29.7v-29.3h29.7z" fill="#c1c1d3"/><path d="m418.1 269.3h-27.9v-27.9h27.9z" fill="#9191a3"/><path d="m487.3 236.5h-24.7v-24.8h24.7z" fill="#c1c1d3"/><path d="m416 335.4v-23.7h24.3v23.7z" fill="#9191a3"/><path d="m689.8 234.8v-23h23.3v23z" fill="#c1c1d3"/><path d="m420.5 214.4h22.1v22h-22.1z" fill="#c1c1d3"/><path d="m884.3 139h18.7v18.7h-18.7z" fill="#9191a3"/><path d="m477.8 208.9h-15.9v-16h15.9z" fill="#c1c1d3"/><path d="m477.9 175.3v14.8h-15v-14.8z" fill="#c1c1d3"/><path d="m445.4 223h14v13.4l-14 .1z" fill="#c1c1d3"/><path d="m445.3 219.9v-10.3h10.7v10.3z" fill="#c1c1d3"/><path d="m839.9 135.7h-80.5v-80.4h80.5z" fill="#9191a3"/><path d="m860.3 135.7h-17v-17h17z" fill="#9191a3"/><path d="m860.3 76.9h-17v-17h17z" fill="#c1c1d3"/><path d="m882.5 2h55.7v54.8h-55.7z" fill="#9191a3"/><path d="m832.6 190.7h17.4v17.5h-17.4z" fill="#9191a3"/></svg>