<?xml version="1.0" encoding="utf-8"?>
<!-- Generator: Adobe Illustrator 19.2.0, SVG Export Plug-In . SVG Version: 6.00 Build 0)  -->
<svg version="1.1" id="Layer_1" xmlns="http://www.w3.org/2000/svg" xmlns:xlink="http://www.w3.org/1999/xlink" x="0px" y="0px"
	 width="1200px" height="1127px" viewBox="0 0 1200 1127" enable-background="new 0 0 1200 1127" xml:space="preserve">
<g>
	<rect x="266" y="706" fill="#7581BA" width="140" height="342"/>
	<rect x="491" y="567" fill="#939FD5" width="140" height="147"/>
	<rect x="717" y="376" fill="#AFB8E3" width="140" height="199"/>
	<rect x="942" y="376" fill="#7581BA" width="140" height="672"/>
	<line fill="none" stroke="#7581BA" stroke-width="8" stroke-miterlimit="10" x1="491" y1="710" x2="406" y2="710"/>
	<line fill="none" stroke="#939FD5" stroke-width="8" stroke-miterlimit="10" x1="717" y1="571" x2="631" y2="571"/>
	<line fill="none" stroke="#AFB8E3" stroke-width="8" stroke-miterlimit="10" x1="942" y1="380" x2="857" y2="380"/>
	<g>
		<text transform="matrix(1 0 0 1 221.399 58.6846)" fill="#7F7F7F" font-family="'Roboto-Regular'" font-size="65px">value scale</text>
	</g>
	<g>
		<g>
			<polyline fill="none" stroke="#464A90" stroke-width="16" stroke-miterlimit="10" points="169.786,42.411 169.786,1056.16 
				1157.812,1056.16 			"/>
			<g>
				<polygon fill="#464A90" points="141.862,50.582 169.786,2.225 197.709,50.582 				"/>
			</g>
			<g>
				<polygon fill="#464A90" points="1149.642,1084.084 1198,1056.16 1149.642,1028.237 				"/>
			</g>
		</g>
	</g>
	<g>
		<text transform="matrix(1 0 0 1 319.8248 1121.3623)" fill="#37246D" font-family="'Roboto-Regular'" font-size="46.6343px">A</text>
	</g>
	<g>
		<text transform="matrix(1 0 0 1 29.2428 893.0537)" fill="#37246D" font-family="'Roboto-Medium'" font-size="46.6343px">200</text>
	</g>
	<g>
		<text transform="matrix(1 0 0 1 93.8756 1070.5576)" fill="#37246D" font-family="'Roboto-Medium'" font-size="46.6343px">0</text>
	</g>
	<g>
		<text transform="matrix(1 0 0 1 548.8053 1121.3623)" fill="#37246D" font-family="'Roboto-Regular'" font-size="46.6343px">B</text>
	</g>
	<g>
		<text transform="matrix(1 0 0 1 771.3209 1121.3623)" fill="#37246D" font-family="'Roboto-Regular'" font-size="46.6343px">C</text>
	</g>
	<g>
		<text transform="matrix(1 0 0 1 994.3639 1121.3623)" fill="#37246D" font-family="'Roboto-Regular'" font-size="46.6343px">D</text>
	</g>
	<line fill="none" stroke="#464A90" stroke-width="4" stroke-miterlimit="10" x1="138" y1="711" x2="203" y2="711"/>
	<line fill="none" stroke="#464A90" stroke-width="4" stroke-miterlimit="10" x1="138" y1="543" x2="203" y2="543"/>
	<line fill="none" stroke="#464A90" stroke-width="4" stroke-miterlimit="10" x1="138" y1="375" x2="203" y2="375"/>
	<line fill="none" stroke="#464A90" stroke-width="4" stroke-miterlimit="10" x1="138" y1="207" x2="203" y2="207"/>
	<line fill="none" stroke="#464A90" stroke-width="4" stroke-miterlimit="10" x1="138" y1="879" x2="203" y2="879"/>
	<g>
		<text transform="matrix(1 0 0 1 30.5397 724.4424)" fill="#37246D" font-family="'Roboto-Medium'" font-size="46.6343px">400</text>
	</g>
	<g>
		<text transform="matrix(1 0 0 1 297.9088 893.0537)" fill="#37246D" font-family="'Roboto-Medium'" font-size="46.6343px">400</text>
	</g>
	<g>
		<text transform="matrix(1 0 0 1 506.8346 659.7725)" fill="#37246D" font-family="'Roboto-Medium'" font-size="46.6343px">+180</text>
	</g>
	<g>
		<text transform="matrix(1 0 0 1 975.5084 746.0459)" fill="#37246D" font-family="'Roboto-Medium'" font-size="46.6343px">800</text>
	</g>
	<g>
		<text transform="matrix(1 0 0 1 735.3424 505.8779)" fill="#37246D" font-family="'Roboto-Medium'" font-size="46.6343px">+220</text>
	</g>
	<g>
		<text transform="matrix(1 0 0 1 29.2428 556.0771)" fill="#37246D" font-family="'Roboto-Medium'" font-size="46.6343px">600</text>
	</g>
	<g>
		<text transform="matrix(1 0 0 1 29.6881 389.7139)" fill="#37246D" font-family="'Roboto-Medium'" font-size="46.6343px">800</text>
	</g>
	<g>
		<text transform="matrix(1 0 0 1 2.0006 221.4404)" fill="#37246D" font-family="'Roboto-Medium'" font-size="46.6343px">1000</text>
	</g>
</g>
</svg>
