<?xml version="1.0" encoding="utf-8"?>
<!-- Generator: Adobe Illustrator 22.1.0, SVG Export Plug-In . SVG Version: 6.00 Build 0)  -->
<svg version="1.1" id="Layer_1" xmlns="http://www.w3.org/2000/svg" xmlns:xlink="http://www.w3.org/1999/xlink" x="0px" y="0px"
	 viewBox="0 0 1200 1127" style="enable-background:new 0 0 1200 1127;" xml:space="preserve">
<style type="text/css">
	.st0{fill:#BABABA;}
	.st1{fill:#D5D5D5;}
	.st2{fill:#E3E3E3;}
	.st3{fill:none;stroke:#BABABA;stroke-width:8;stroke-miterlimit:10;}
	.st4{fill:none;stroke:#D5D5D5;stroke-width:8;stroke-miterlimit:10;}
	.st5{fill:none;stroke:#E3E3E3;stroke-width:8;stroke-miterlimit:10;}
	.st6{fill:#514361;}
	.st7{font-family:'RobotoMono-Regular';}
	.st8{font-size:40px;}
	.st9{fill:none;stroke:#C9C9C9;stroke-width:6;stroke-miterlimit:10;}
	.st10{fill:#C9C9C9;}
	.st11{fill:#606060;}
	.st12{fill:none;stroke:#AFAFAF;stroke-width:4;stroke-linecap:round;stroke-miterlimit:10;stroke-dasharray:0,9.9536;}
</style>
<g>
	<rect x="266" y="712" class="st0" width="140" height="342"/>
	<rect x="489.8" y="712" class="st1" width="140" height="98.6"/>
	<rect x="717" y="382" class="st2" width="140" height="428.6"/>
	<rect x="942" y="382" class="st0" width="140" height="672"/>
	<line class="st3" x1="491" y1="716" x2="406" y2="716"/>
	<line class="st4" x1="717" y1="806.6" x2="628" y2="806.6"/>
	<line class="st5" x1="942" y1="386" x2="857" y2="386"/>
	<g>
		<g>
			<text transform="matrix(1 0 0 1 221.399 58.6846)" class="st6 st7 st8">value scale</text>
		</g>
	</g>
	<g>
		<g>
			<g>
				<g>
					<polyline class="st9" points="169.8,63.9 169.8,1056.2 1136.3,1056.2 					"/>
					<g>
						<polygon class="st10" points="154.8,68.3 169.8,42.4 184.7,68.3 						"/>
					</g>
					<g>
						<polygon class="st10" points="1131.9,1071.1 1157.8,1056.2 1131.9,1041.2 						"/>
					</g>
				</g>
			</g>
		</g>
	</g>
	<g>
		<g>
			<text transform="matrix(1 0 0 1 318.8228 1121.3623)" class="st6 st7 st8">A</text>
		</g>
	</g>
	<g>
		<g>
			<text transform="matrix(1 0 0 1 74.5319 898.0537)" class="st6 st7 st8">20</text>
		</g>
	</g>
	<g>
		<g>
			<text transform="matrix(1 0 0 1 98.5358 1070.5576)" class="st6 st7 st8">0</text>
		</g>
	</g>
	<g>
		<g>
			<text transform="matrix(1 0 0 1 547.8033 1121.3623)" class="st6 st7 st8">B</text>
		</g>
	</g>
	<g>
		<g>
			<text transform="matrix(1 0 0 1 770.319 1121.3623)" class="st6 st7 st8">C</text>
		</g>
	</g>
	<g>
		<g>
			<text transform="matrix(1 0 0 1 993.3619 1121.3623)" class="st6 st7 st8">D</text>
		</g>
	</g>
	<line class="st9" x1="153" y1="711" x2="171" y2="711"/>
	<line class="st9" x1="153" y1="543" x2="171" y2="543"/>
	<line class="st9" x1="153" y1="375" x2="171" y2="375"/>
	<line class="st9" x1="153" y1="207" x2="171" y2="207"/>
	<line class="st9" x1="153" y1="879" x2="171" y2="879"/>
	<g>
		<g>
			<text transform="matrix(1 0 0 1 74.5319 729.4424)" class="st6 st7 st8">40</text>
		</g>
	</g>
	<g>
		<g>
			<text transform="matrix(1 0 0 1 306.9088 899.0537)" class="st11 st7 st8">40</text>
		</g>
	</g>
	<g>
		<g>
			<text transform="matrix(1 0 0 1 519.8347 773.7672)" class="st11 st7 st8">-10</text>
		</g>
	</g>
	<g>
		<g>
			<text transform="matrix(1 0 0 1 988.5084 752.0459)" class="st11 st7 st8">80</text>
		</g>
	</g>
	<g>
		<g>
			<text transform="matrix(1 0 0 1 752.342 596.289)" class="st11 st7 st8">+50</text>
		</g>
	</g>
	<g>
		<g>
			<text transform="matrix(1 0 0 1 74.5319 561.0771)" class="st6 st7 st8">60</text>
		</g>
	</g>
	<g>
		<g>
			<text transform="matrix(1 0 0 1 74.5319 394.7139)" class="st6 st7 st8">80</text>
		</g>
	</g>
	<g>
		<g>
			<text transform="matrix(1 0 0 1 50.528 226.4404)" class="st6 st7 st8">100</text>
		</g>
	</g>
</g>
<g>
	<g>
		<text transform="matrix(1 0 0 1 463.7895 491.8822)"><tspan x="0" y="0" class="st6 st7 st8">negative</tspan><tspan x="24" y="48" class="st6 st7 st8">change</tspan></text>
	</g>
</g>
<line class="st12" x1="559.8" y1="702.1" x2="559.8" y2="561.1"/>
<g>
	<g>
		<text transform="matrix(1 0 0 1 686.3052 165.3992)"><tspan x="0" y="0" class="st6 st7 st8">positive</tspan><tspan x="24" y="48" class="st6 st7 st8">change</tspan></text>
	</g>
</g>
<line class="st12" x1="782.3" y1="375.6" x2="782.3" y2="234.6"/>
</svg>
