<svg enable-background="new 0 0 1268 418" viewBox="0 0 1268 418" xmlns="http://www.w3.org/2000/svg" xmlns:xlink="http://www.w3.org/1999/xlink"><symbol id="a" viewBox="-101.9 -87.1 203.8 174.3"><path d="m64.3 49.6c17-17 26.6-40.2 26.6-64.3s-9.5-47.3-26.6-64.4" fill="none" stroke="#dfd9e8" stroke-miterlimit="10" stroke-width="20.7684"/><path d="m-64.3 49.6c17 17 40.2 26.6 64.3 26.6s47.3-9.6 64.3-26.6" fill="none" stroke="#b2a4c1" stroke-miterlimit="10" stroke-width="20.7684"/><path d="m-64.3 49.6c-17-17-26.6-40.2-26.6-64.3s9.6-47.3 26.6-64.3" fill="none" stroke="#9a8ea8" stroke-miterlimit="10" stroke-width="20.7684"/><path d="m-71.2-86.6c-18.5 18.3-30 43.8-30 71.9 0 55.8 45.3 101.1 101.2 101.1s101.2-45.3 101.2-101.1c0-27.9-11.3-53.2-29.6-71.5" fill="none" stroke="#595959" stroke-miterlimit="10" stroke-width="1.3846"/><path d="m-90.4-44.3-5.7-2.2" fill="none" stroke="#595959" stroke-miterlimit="10" stroke-width="1.3846"/><path d="m-94-.1-6 .7" fill="none" stroke="#595959" stroke-miterlimit="10" stroke-width="1.3846"/><path d="m-77.1 41-5.1 3.3" fill="none" stroke="#595959" stroke-miterlimit="10" stroke-width="1.3846"/><path d="m-43.4 69.9-3 5.3" fill="none" stroke="#595959" stroke-miterlimit="10" stroke-width="1.3846"/><path d="m-.2 80.4-.3 6" fill="none" stroke="#595959" stroke-miterlimit="10" stroke-width="1.3846"/><path d="m43 70.1 2.5 5.5" fill="none" stroke="#595959" stroke-miterlimit="10" stroke-width="1.3846"/><path d="m76.9 41.4 4.7 3.7" fill="none" stroke="#595959" stroke-miterlimit="10" stroke-width="1.3846"/><path d="m93.9.3 6 1.3" fill="none" stroke="#595959" stroke-miterlimit="10" stroke-width="1.3846"/><path d="m90.6-43.9 5.8-1.6" fill="none" stroke="#595959" stroke-miterlimit="10" stroke-width="1.3846"/></symbol><use height="174.3" transform="matrix(1 0 0 -1 111.7785 99.36)" width="203.8" x="-101.9" xlink:href="#a" y="-87.1"/><path d="m111.7 22.2 9.6 88.6c0 2.7-4.2 7.9-9.5 7.9-5.2 0-9.5-5.2-9.5-7.9z" fill="#312242"/><text fill="#b3b1b5" font-family="'RobotoCondensed-Regular'" font-size="25" transform="translate(94.527 166.7767)">50%</text><text fill="#dfd8e8" font-family="'RobotoCondensed-Regular'" font-size="22.5828" transform="translate(81.9995 201.6553)">Tokyo</text><use height="174.3" transform="matrix(1 0 0 -1 372.0242 99.36)" width="203.8" x="-101.9" xlink:href="#a" y="-87.1"/><path d="m459 103.4-87.5 16.7c-2.7.2-8.2-3.6-8.7-8.8-.4-5.2 4.4-9.8 7.1-10.1z" fill="#606060"/><text fill="#b3b1b5" font-family="'RobotoCondensed-Regular'" font-size="25" transform="translate(354.7727 166.7767)">81%</text><text fill="#dfd8e8" font-family="'RobotoCondensed-Regular'" font-size="22.5828" transform="translate(353.2508 201.6553)">Kyiv</text><use height="174.3" transform="matrix(1 0 0 -1 632.2698 99.36)" width="203.8" x="-101.9" xlink:href="#a" y="-87.1"/><path d="m558.9 157.6 68.2-57.4c2.3-1.5 8.9-.9 11.9 3.4 2.9 4.3 1 10.8-1.3 12.3z" fill="#606060"/><text fill="#b3b1b5" font-family="'RobotoCondensed-Regular'" font-size="25" transform="translate(621.1887 166.7767)">5%</text><text fill="#dfd8e8" font-family="'RobotoCondensed-Regular'" font-size="22.5828" transform="translate(596.9489 201.6553)">Toronto</text><use height="174.3" transform="matrix(1 0 0 -1 892.5155 99.36)" width="203.8" x="-101.9" xlink:href="#a" y="-87.1"/><path d="m823.8 55 75.2 47.9c2.1 1.7 3.5 8.3.3 12.3-3.3 4.1-10 4.1-12.1 2.4z" fill="#606060"/><text fill="#b3b1b5" font-family="'RobotoCondensed-Regular'" font-size="25" transform="translate(875.264 166.7767)">33%</text><text fill="#dfd8e8" font-family="'RobotoCondensed-Regular'" font-size="22.5828" transform="translate(858.7847 201.6553)">London</text><use height="174.3" transform="matrix(1 0 0 -1 1152.7611 99.36)" width="203.8" x="-101.9" xlink:href="#a" y="-87.1"/><path d="m1215 172.8-69.9-55.3c-1.9-1.9-2.7-8.6 1-12.3s10.3-3.1 12.3-1.2z" fill="#606060"/><text fill="#b3b1b5" font-family="'RobotoCondensed-Regular'" font-size="25" transform="translate(1135.5096 166.7767)">99%</text><text fill="#dfd8e8" font-family="'RobotoCondensed-Regular'" font-size="22.5828" transform="translate(1107.4303 201.6553)">Singapore</text><use height="174.3" transform="matrix(1 0 0 -1 111.7785 313.3364)" width="203.8" x="-101.9" xlink:href="#a" y="-87.1"/><path d="m28.3 294.1 86.6 21c2.6.9 6 6.7 4.3 11.6-1.8 4.9-8.1 7.1-10.7 6.2z" fill="#606060"/><text fill="#b3b1b5" font-family="'RobotoCondensed-Regular'" font-size="25" transform="translate(94.527 380.7531)">25%</text><text fill="#dfd8e8" font-family="'RobotoCondensed-Regular'" font-size="22.5828" transform="translate(66.4736 408.8177)">New-York</text><use height="174.3" transform="matrix(1 0 0 -1 372.0242 313.3364)" width="203.8" x="-101.9" xlink:href="#a" y="-87.1"/><path d="m289.5 355.3 79.1-41c2.5-1 8.9 1.1 10.8 6s-1.4 10.7-4 11.7z" fill="#606060"/><text fill="#b3b1b5" font-family="'RobotoCondensed-Regular'" font-size="25" transform="translate(354.7727 380.7531)">10%</text><text fill="#dfd8e8" font-family="'RobotoCondensed-Regular'" font-size="22.5828" transform="translate(348.6912 408.8177)">Paris</text><use height="174.3" transform="matrix(1 0 0 -1 632.2698 313.3364)" width="203.8" x="-101.9" xlink:href="#a" y="-87.1"/><path d="m632.2 236.2 9.6 88.6c0 2.7-4.2 7.9-9.5 7.9-5.2 0-9.5-5.2-9.5-7.9z" fill="#606060"/><text fill="#b3b1b5" font-family="'RobotoCondensed-Regular'" font-size="25" transform="translate(615.0183 380.7531)">50%</text><text fill="#dfd8e8" font-family="'RobotoCondensed-Regular'" font-size="22.5828" transform="translate(611.8849 408.8177)">Oslo</text><use height="174.3" transform="matrix(1 0 0 -1 892.5155 313.3364)" width="203.8" x="-101.9" xlink:href="#a" y="-87.1"/><path d="m962.7 271.6-65.5 60.4c-2.2 1.6-8.9 1.3-12-2.9s-1.5-10.7.7-12.3z" fill="#606060"/><text fill="#b3b1b5" font-family="'RobotoCondensed-Regular'" font-size="25" transform="translate(875.264 380.7531)">69%</text><text fill="#dfd8e8" font-family="'RobotoCondensed-Regular'" font-size="22.5828" transform="translate(844.9239 408.8177)">Vancouver</text><use height="174.3" transform="matrix(1 0 0 -1 1152.7611 313.3364)" width="203.8" x="-101.9" xlink:href="#a" y="-87.1"/><path d="m1111.1 246.4 51.1 78.4c0 2.7-4.2 7.9-9.5 7.9-5.2 0-9.5-5.2-8.3-3.7z" fill="#606060"/><g font-family="'RobotoCondensed-Regular'"><text fill="#b3b1b5" font-size="25" transform="translate(1135.5096 380.7531)">40%</text><text fill="#dfd8e8" font-size="22.5828" transform="translate(1100.5494 408.8177)">Amsterdam</text></g></svg>