<svg xmlns="http://www.w3.org/2000/svg" width="256" height="256" viewBox="0 0 256 256"><title>new-chart-icons-aim-160</title><path d="M159,45.3H118.2V37H159ZM118.2,58.7H159V50.4H118.2ZM189,132.8H149.2V141H189Zm-39.8,21.7H189v-8.3H149.2Zm65-13.5H254v-8.2H214.2Zm0,13.5H254v-8.3H214.2Zm-97,81.1H158v-8.3H117.2Zm0,13.4H158v-8.3H117.2Zm77-13.4H235v-8.3H194.2Zm0,13.4H235v-8.3H194.2ZM3,14.3H38.8V6H3ZM3,27.7H38.8V19.4H3ZM2,113H37.8v-8.2H2Zm0,13.5H37.8v-8.3H2Zm0,79.1H37.8v-8.3H2ZM2,219H37.8v-8.3H2ZM246.1,113a10.6,10.6,0,0,0-10.5-8.5A10.8,10.8,0,0,0,225,113H179.1a10.6,10.6,0,0,0-10.5-8.5A10.8,10.8,0,0,0,158,113H64a10.7,10.7,0,0,0-7.9-8.2V28.4A10.8,10.8,0,0,0,64.9,20h62.6a10.8,10.8,0,0,0,10.6,8.6A10.7,10.7,0,0,0,148.6,20H178V15H148.5a10.8,10.8,0,0,0-20.8,0H64.8A10.9,10.9,0,0,0,54.4,7a10.8,10.8,0,0,0-10.6,8.6v4.3a10.9,10.9,0,0,0,7.3,8.2v76.6a11.1,11.1,0,0,0-8.2,8.4v4.3a11,11,0,0,0,8.2,8.4v72.4a10.9,10.9,0,0,0-8.2,8.4v4.3a10.8,10.8,0,0,0,10.6,8.6A10.6,10.6,0,0,0,64,211h62.7a10.7,10.7,0,0,0,21,0h55.8a10.6,10.6,0,0,0,10.5,8.5,10.8,10.8,0,0,0,10.6-8.5H239v-5H224.4a10.7,10.7,0,0,0-20.8,0h-56a10.7,10.7,0,0,0-20.8,0H63.9a11,11,0,0,0-7.8-7.8V125.7a10.7,10.7,0,0,0,7.8-7.7h94.3a10.8,10.8,0,0,0,20.8,0h46.2a10.8,10.8,0,0,0,20.8,0h9v-5Z"/></svg>