<svg xmlns="http://www.w3.org/2000/svg" width="256" height="256" viewBox="0 0 256 256"><title>new-chart-icons-aim-160</title><path d="M211.7,134a7.8,7.8,0,0,0-.4-15.4,82.4,82.4,0,0,0-18.9-43.8,7.9,7.9,0,0,0-6-13.1,8,8,0,0,0-5.2,2,82.7,82.7,0,0,0-44.4-18.3,7.9,7.9,0,0,0-15.7-.1A82.9,82.9,0,0,0,76.7,63.1a7.7,7.7,0,0,0-4.5-1.4,8,8,0,0,0-7.9,7.9,8.6,8.6,0,0,0,1.2,4.2,82.7,82.7,0,0,0-19.9,46.4,7.8,7.8,0,0,0-6.5,7.7,7.9,7.9,0,0,0,6.4,7.7,83.2,83.2,0,0,0,17.6,44.2,8,8,0,0,0-1.1,4,7.9,7.9,0,0,0,7.9,7.9,7.4,7.4,0,0,0,3.6-.9,82.7,82.7,0,0,0,47.7,20.5,7.8,7.8,0,0,0,7.7,6.4,8,8,0,0,0,7.8-6.4,82.9,82.9,0,0,0,47.2-20.8,7.3,7.3,0,0,0,4.1,1.2,7.9,7.9,0,0,0,7.9-7.9,7.2,7.2,0,0,0-1.5-4.5A82.9,82.9,0,0,0,211.7,134ZM188,176a7.9,7.9,0,0,0-7.9,7.8,8.3,8.3,0,0,0,1.2,4.2,79.3,79.3,0,0,1-44.8,19.6,8,8,0,0,0-7.6-5.6,7.7,7.7,0,0,0-7.5,5.7,79.2,79.2,0,0,1-45.1-19.3A7.9,7.9,0,0,0,69.9,176a8,8,0,0,0-4.3,1.2,79.5,79.5,0,0,1-16.4-41.7,7.9,7.9,0,0,0,0-15.2,79.8,79.8,0,0,1,18.9-44,7.3,7.3,0,0,0,4.1,1.2,7.9,7.9,0,0,0,7.9-7.9,8,8,0,0,0-1-3.8,79.9,79.9,0,0,1,42.5-16.9,7.9,7.9,0,0,0,14.6.1,78.8,78.8,0,0,1,42.9,17.7,9.3,9.3,0,0,0-.5,2.9,7.8,7.8,0,0,0,7.8,7.9,7.3,7.3,0,0,0,3-.6,79,79,0,0,1,18.3,41.9,7.9,7.9,0,0,0,.4,15.1,80.2,80.2,0,0,1-16.4,43A7.5,7.5,0,0,0,188,176Zm10.9,15.4h29.9v7.3H198.9Zm0,10.9h29.9v7.3H198.9ZM256,117v7.3H226.1V117Zm-29.9,10.9H256v7.3H226.1Zm2.7-77.1H198.9V43.5h29.9Zm0,10.9H198.9V54.4h29.9ZM143.5,20.9H113.6V13.6h29.9Zm0,10.9H113.6V24.5h29.9ZM57.3,49H27.4V41.7H57.3Zm0,10.9H27.4V52.6H57.3ZM27.4,193.2H57.3v7.3H27.4Zm0,10.9H57.3v7.3H27.4Zm86.2,18.1h29.9v7.3H113.6Zm0,10.9h29.9v7.3H113.6Zm-81.7-107H2v-7.3H31.9Zm0,10.9H2v-7.3H31.9Z" fill-rule="evenodd"/></svg>