<svg height="256" viewBox="0 0 256 256" width="256" xmlns="http://www.w3.org/2000/svg"><path d="m221.2 178.2-.6 1.1a34.1 34.1 0 0 1 -3.7 4.8 30.1 30.1 0 0 1 -4 4.7c-1.5 1.3-3.1 2.5-4.6 3.9l-5 4.2a110.6 110.6 0 0 1 -10.6 7.3c-3.6 1.9-7.2 3.7-10.6 5.8a38.4 38.4 0 0 1 -5 3.2l-5.3 2.4-5.8 2.2a36.1 36.1 0 0 1 -6.2 2.4c-2.1.6-4.2 1-6.3 1.5a29.9 29.9 0 0 1 -3.2.9 52.3 52.3 0 0 1 -6.9.3c-8.9.2-17.8.2-26.8.2h-21.8a58.9 58.9 0 0 1 -10.3-1 108.4 108.4 0 0 1 -12.4-2.4l-11.9-3.3-.5 1a8 8 0 0 1 -3 3.3 7.8 7.8 0 0 1 -4 2.1 8.4 8.4 0 0 1 -4.7.2 8.3 8.3 0 0 1 -4.3-1.3 13 13 0 0 1 -4.7-4.6 12.3 12.3 0 0 1 -1.7-6.2 25.1 25.1 0 0 1 .4-2.7l-.4-.2c-.7-.4-1.4-1.1-2.2-1.5s-1.9-.5-2.8-.8-1-3.6.8-2.9 1.9.4 2.8.8a12 12 0 0 1 2.1 1.3l.8.4c0-.1.1-.2.2-.3a11.8 11.8 0 0 1 13.6-5.5 8.2 8.2 0 0 1 3.8 2 5.2 5.2 0 0 1 2 1.9 9.4 9.4 0 0 1 1.7 3.1 15.4 15.4 0 0 1 .8 1.9 11 11 0 0 1 .2 5.1l2.7.8 7.7 2.2c3.8 1 7.6 1.7 11.5 2.4a69.8 69.8 0 0 0 11.2 1.2h33.5c7-.1 14.1 0 21.1-.4h.9l1.9-.5c4-1 8.2-1.7 12-3.4 1.9-.9 3.8-1.6 5.8-2.4s3.5-1.6 5.3-2.3a23.6 23.6 0 0 0 4.8-2.9 49.9 49.9 0 0 1 5-2.9c3.4-1.9 6.9-3.6 10.2-5.8a96.1 96.1 0 0 0 10.3-7.8c1.5-1.3 2.9-2.7 4.5-3.9a21.7 21.7 0 0 0 3.9-4.1 57.2 57.2 0 0 0 3.7-4.6l1.4-2.1a6.9 6.9 0 0 1 -1.3-1.1l-.2-.2h-.1a18.6 18.6 0 0 1 -1.7-2.4h-.1l-.3-.9a11.6 11.6 0 0 1 -.6-1.5 11.4 11.4 0 0 1 0-5.8 10.5 10.5 0 0 1 2.8-4.9 10.9 10.9 0 0 1 10.7-2.8l1.1.3c.8-2.2 1.7-4.4 2.4-6.7a63 63 0 0 0 3-12.1c.6-4 .6-8 .8-12 .1-2 .1-4.1 0-6.1a31.1 31.1 0 0 0 -1-6.1c-.8-4.4-1.8-8.7-2.7-13.1s-1.2-8.4-2.6-12.4a77.5 77.5 0 0 0 -5.5-11.2 138.9 138.9 0 0 0 -13.4-20.5c-2.7-3.2-5.7-6.1-8.4-9.2a23.3 23.3 0 0 0 -4.2-4.1c-1.5-1.1-2.9-2.3-4.4-3.3s-3-1.7-4.4-2.7a7.8 7.8 0 0 1 -2.7 2.4l-2.5 1.1-1.4.3-.7.2a10.4 10.4 0 0 1 -4.3.2 8.4 8.4 0 0 1 -3.1-.8 7.5 7.5 0 0 1 -3.2-2.1 10.4 10.4 0 0 1 -2.5-4.3 11.8 11.8 0 0 1 1-8.8c-6-3.1-11.8-6.4-18.2-8.5a55.4 55.4 0 0 0 -12.1-2.5l-6.4-.8c-2.1-.3-4.2-.7-6.3-.8s-4.4.1-6.5.1l-6.4.2c-4.3.2-8.6.7-12.9 1.1l-6.5.2a17.3 17.3 0 0 0 -3.2.3 19.8 19.8 0 0 1 -2.6.6c-1 0-2-.2-2.9-.1l-2.7.4a7.7 7.7 0 0 0 -2.7.7 25.3 25.3 0 0 1 -2.3 1.2c-1.9.8-3.9 1-5.7 1.9s-3.1 2.1-4.7 3.1a80.7 80.7 0 0 0 -10 6.4l-.5.5.7.9a6.1 6.1 0 0 1 .9 4v.2c.7 2.3 0 4.8-1 6.9a9.1 9.1 0 0 1 -1.7 2.3 9.2 9.2 0 0 1 -4.1 3.1 10.6 10.6 0 0 1 -8.2.1c-.1.2-.2.3-.2.5-2 3.6-3 7.4-4.1 11.3s-2.8 8.1-3.1 12.2c-.1 1-.1 2-.2 3.1s-.3 1.7-.5 2.6a30.3 30.3 0 0 0 -.4 6.1c.1 1.9.1 3.9.3 5.9a15 15 0 0 0 .6 2.9c.2.9.2 1.9.4 2.9s.4 3.9.8 5.8a31.3 31.3 0 0 0 1.8 5.7 126.9 126.9 0 0 0 4.5 12.2 58.8 58.8 0 0 0 6.3 10.1 62.1 62.1 0 0 0 8 9 97.2 97.2 0 0 0 9.1 7.9c3.3 2.5 6.8 4.4 10.1 6.8l2.7 1.9 1.2-1.5 2.1-1.6 2.4-1 2.6-.4a6.6 6.6 0 0 1 3.9.9 4.5 4.5 0 0 1 2.3 1.3 5.2 5.2 0 0 1 1.8 1.8 8.6 8.6 0 0 1 1.9 4.7 8.1 8.1 0 0 1 -.1 4.1 6.1 6.1 0 0 0 -.5 1.2h-.1l1.3.5a40.2 40.2 0 0 0 5.9 1.8c2 .5 3.8 1.4 5.9 1.6a118.3 118.3 0 0 0 13.3.5c4.1 0 8.3.2 12.4-.5l5.9-1.4a32.3 32.3 0 0 0 6.3-1.6c3.6-1.5 7.4-2.4 10.9-4.1a44.1 44.1 0 0 0 9.2-6.3 43.8 43.8 0 0 0 7.9-8.2 65.8 65.8 0 0 0 5.1-10.3 46.6 46.6 0 0 0 3.9-11.6 1.7 1.7 0 0 1 .1-.7 11.2 11.2 0 0 1 -4-1.4l-2.3-1.8a11 11 0 0 1 -2.9-5l-.5-3a9.2 9.2 0 0 1 1-4.4 9.8 9.8 0 0 1 2.4-3.7 7.7 7.7 0 0 1 3.6-2.3l.4-.2-.6-1.5c-.7-1.7-1.9-3.3-2.6-5s-1.6-4-2.5-6a30.3 30.3 0 0 0 -6.7-9.1 57.5 57.5 0 0 0 -9.3-6.9l-10.1-6.4a24.1 24.1 0 0 0 -5.1-2.5 20.4 20.4 0 0 0 -6.1-.8c-4 0-8.2-.1-12.2.2a9.9 9.9 0 0 1 1.2 4.9 11.1 11.1 0 0 1 -1.4 5.4 8.7 8.7 0 0 1 -2.6 2.8 4.5 4.5 0 0 1 -2.1 1.2 8.5 8.5 0 0 1 -3.8.9l-2.6-.4-2.4-1-2-1.5a6.7 6.7 0 0 1 -2-3.2 2.2 2.2 0 0 1 -.5-1.2 7.4 7.4 0 0 1 -.2-3.9 5.4 5.4 0 0 1 .5-2.2 22.9 22.9 0 0 0 1-2.3 7.2 7.2 0 0 1 2.5-2.7 5.7 5.7 0 0 1 2.1-1.3 8 8 0 0 1 3.7-.8l2.6.4a7 7 0 0 1 3.3 1.7l.5.4a76.5 76.5 0 0 1 10.7-.3c4.3-.1 8.5-.2 12.6 1.6s6.7 4 10.1 6c6.7 4.1 14 8.4 18.4 15.1a36.5 36.5 0 0 1 3 5.5c.8 1.9 1.5 3.9 2.4 5.8s1.9 3.5 2.7 5.3l.4 1h1.1a10.2 10.2 0 0 1 5.7 1.6l2.3 1.7a12.2 12.2 0 0 1 3 5 29.1 29.1 0 0 0 .4 3.1 9.1 9.1 0 0 1 -1 4.3 9.1 9.1 0 0 1 -2.4 3.7 7.7 7.7 0 0 1 -3.6 2.3 7.1 7.1 0 0 1 -3.1 1 43.2 43.2 0 0 1 -1.7 6.9 116.1 116.1 0 0 1 -4.8 11.5 37.8 37.8 0 0 1 -6.6 9.7 49.9 49.9 0 0 1 -18.9 13.1c-2 .8-4 1.3-5.9 2a35.7 35.7 0 0 1 -6.1 1.9c-4.1.8-8.1 2-12.4 2.2s-8.9.1-13.4.1-9-.1-13-1.6c-2-.8-4.2-1.1-6.2-1.8l-3.6-1.3a5.2 5.2 0 0 1 -1.7 1.6 7.3 7.3 0 0 1 -3.1 1.7l-2.5.3-2.5-.3h-.3l-2.4-1a13 13 0 0 1 -2.3-1.8 7.5 7.5 0 0 1 -2.1-3.2 5.8 5.8 0 0 1 -.6-2.6 7.8 7.8 0 0 1 .1-4v-.2l-1.3-.9-5.3-3.7a84.3 84.3 0 0 1 -10.4-7.3 82 82 0 0 1 -16.4-18.4c-1.2-1.8-2.3-3.5-3.3-5.3a50.6 50.6 0 0 1 -2.5-5.8c-1.5-4.1-3-8.2-4.4-12.4-.6-1.9-.6-4-1-6a59.7 59.7 0 0 0 -1-6.1 23.9 23.9 0 0 1 -.5-6 42.6 42.6 0 0 1 .1-6.2c.1-2 .8-3.9.8-5.8a33 33 0 0 1 .9-6.3c1-4.4 2.4-8.6 3.7-12.9a40.5 40.5 0 0 1 3.3-8.1 10.2 10.2 0 0 1 -3.2-4.3 10.3 10.3 0 0 1 .5-9.5 10.9 10.9 0 0 1 6.5-5 16 16 0 0 1 4.4-.3h1a8.6 8.6 0 0 1 4.4 1.1h.2a32.4 32.4 0 0 1 3.5-2.7c3.4-2.3 6.9-4.3 10.3-6.6a21.4 21.4 0 0 1 5.3-2.5l3-.9 2.4-1.3c1.8-.8 3.8-.8 5.7-1.1a16 16 0 0 1 3.1 0 11.9 11.9 0 0 0 2.6-.5 33.3 33.3 0 0 1 6.3-.4l6.9-.5c4.5-.4 9-.9 13.4-.9s8.6-.5 12.8.2l13.7 1.8c8.3 1.2 15.9 4.8 23.3 8.6l4.2 2.3a19.9 19.9 0 0 1 2.4-1.9 12.3 12.3 0 0 1 5.6-1.5 9.6 9.6 0 0 1 3.6.7 5.2 5.2 0 0 1 2.1.7 7.7 7.7 0 0 1 3.4 2.2l1.7 2.1a7.8 7.8 0 0 1 1.2 3.9 7.5 7.5 0 0 1 -.2 4.2 7.4 7.4 0 0 1 -.4 1.4l3 1.9a36.5 36.5 0 0 1 4.5 3.2 42.3 42.3 0 0 1 4.5 3.7c1.5 1.7 2.8 3.4 4.3 4.9a114.6 114.6 0 0 1 15.4 20c2.2 3.7 4.2 7.5 6.3 11.3a47.5 47.5 0 0 1 4.7 12c.9 4.3 1.5 8.8 2.5 13.1s2 8.7 2.5 13.1.1 8.4 0 12.6a73.7 73.7 0 0 1 -1.5 12.4 101 101 0 0 1 -4.9 15.3h.1l1 .8.2.3a2.7 2.7 0 0 1 .7.8l.2.3.2.2a9.7 9.7 0 0 1 1.6 3.4 11.4 11.4 0 0 1 0 5.8 10.3 10.3 0 0 1 -2.1 4 12.3 12.3 0 0 1 -3.1 2.9l-2.6 1a11 11 0 0 1 -5.7 0zm-90.4-90.1a48 48 0 0 0 -10.7 1.1c-3.1.8-6.7.3-10.1.3a3 3 0 0 0 0 6c3.7 0 7.4.4 11-.3l2.6-.6 2-.3a45.2 45.2 0 0 1 5.2-.2 3 3 0 0 0 0-6zm-10.1 13c-3.5.5-6.9 1.3-10.4 1.3a3 3 0 1 0 0 6h.6a65.4 65.4 0 0 0 10.7-1.4c3-.5 6.7 0 9.9 0a3 3 0 0 0 0-6c-3.6 0-7.2-.4-10.8.1zm84.9 28.1h3.1c3 .1 5.9 0 8.9 0a3 3 0 0 0 3-3 3.1 3.1 0 0 0 -3-3h-8.9c-1.3 0-2.7-.1-4.1 0l-2.5.5-.8.2h-.7a3.1 3.1 0 0 0 -3 3 3 3 0 0 0 3 3h.5c1.3-.1 2.6-.5 3.9-.7zm-10.2 8.1a3 3 0 0 0 0 3.7 3.1 3.1 0 0 0 3.9.8l.7-.2h2.5l2.6-.5.8-.2h.9a29.7 29.7 0 0 0 5.2-.3l.9-.2h3.2a3.1 3.1 0 0 0 3-3 2.9 2.9 0 0 0 -3-3 32.7 32.7 0 0 0 -5.4.4h-4.6a11.7 11.7 0 0 0 -2.6.4l-1.2.3h-.8a12 12 0 0 0 -2 .3l-.5-.2a3.2 3.2 0 0 0 -3.6 1.7zm-116.4 41.8h.6l1.5-.4 3-.7a20.3 20.3 0 0 1 6-.9c3.2 0 7.3.9 8.5 4.4a3 3 0 0 1 -2.1 3.6 2.8 2.8 0 0 1 -3.4-1.5h-.5l-.9-.2h-3.4l-1.4.3-2.7.7a37.8 37.8 0 0 1 -5.7 1c-1.7.2-3-1.5-3-3s1.4-2.8 3-3zm13.8 3.8a1.6 1.6 0 0 1 .1.4h.1c-.1-.1-.2-.2-.2-.4zm-19.1 13a3 3 0 0 0 4.1 1c2.5-1.7 5.3-1.6 8.6-1.7a38 38 0 0 0 5.9-.6c1.9-.3 2.9.2 4.7.5a3 3 0 0 0 1.6-5.8 23 23 0 0 0 -2.8-.6 9.2 9.2 0 0 0 -3.7-.1 39.3 39.3 0 0 1 -6 .6c-3.8.1-8 .3-11.3 2.6a3.2 3.2 0 0 0 -1.1 4.1zm-48.3-155.2a49 49 0 0 1 -5.4-.4 26.3 26.3 0 0 0 -5.6-.2 10.4 10.4 0 0 1 -2.5 0h-.5l-.9-.4c-2-.6-4.2-.5-5.6 1.1a3.1 3.1 0 0 0 1.3 5.1h.5a2.6 2.6 0 0 0 2.4-.4l1.1.4a23.3 23.3 0 0 0 5.3.2c3.3-.2 6.6.6 9.9.6a2.9 2.9 0 0 0 3-3 3.1 3.1 0 0 0 -3-3zm-.7 9.4h-17a3 3 0 0 0 -3 3 3.1 3.1 0 0 0 3 3h17a3.1 3.1 0 0 0 3-3 3 3 0 0 0 -3-3zm180.7-24.9h23.7c3.8 0 3.8-6 0-6h-23.7c-3.9 0-3.9 6 0 6zm8.1 12.9c2.8 0 5.8-.3 8.5.2a23.2 23.2 0 0 0 4.5.6c1.6.1 3.1 0 4.7 0 3.9-.1 3.9-6.1 0-6a45.8 45.8 0 0 1 -7.4-.3 59.2 59.2 0 0 0 -8.4-.5l-5.4.2h-1.7l-1.4-.8a4.7 4.7 0 0 0 -3.5.5 2.9 2.9 0 0 0 -1.1 4.1c2.5 3.4 7.5 2 11.2 2zm36.6 155.6c-2 0-3.9.3-5.9.2a33.5 33.5 0 0 1 -5.4-.8c-4.1-.5-8.2-.1-12.4-.1s-3.8 6 0 6 8-.5 11.8.1a39.4 39.4 0 0 0 6 .8c2 .1 3.9-.2 5.9-.2 3.9 0 3.9-6 0-6zm-1.4 11.5c-1.7.2-3.5-.7-5.3-1.1a47 47 0 0 0 -7.4-1c-4.4-.3-9.1-.7-13.2 1.1-1.5.6-1.8 2.8-1.1 4.1a3 3 0 0 0 4.1 1 16.4 16.4 0 0 1 5-.4l6.1.2a29.3 29.3 0 0 1 5.9 1.1c1.9.5 3.9 1.3 5.9 1a3.1 3.1 0 0 0 3-3c0-1.5-1.4-3.2-3-3zm-198.9 33.8c1.7.2 3.4.7 5.2 1l3.2.4 2.9.5a22.2 22.2 0 0 0 4.5-.6 3.1 3.1 0 0 0 2.1-3.7c-.4-1.8-2-2.4-3.7-2.1l-2 .4h-1.1c-1.8-.4-3.7-.4-5.5-.8a43.3 43.3 0 0 0 -11.4-1.2 3.1 3.1 0 0 0 -3 3 3 3 0 0 0 3 3zm20.1 5.4a25.1 25.1 0 0 1 -5.5-.6 20.4 20.4 0 0 0 -6.5-.8c-2.1.2-4 .7-6.1.7a44.8 44.8 0 0 0 -6.4.8 3 3 0 0 0 -2.1 3.7 3.1 3.1 0 0 0 3.7 2.1 26 26 0 0 1 5.6-.6c2 0 3.8-.6 5.7-.7a19.6 19.6 0 0 1 5.4.8 31.8 31.8 0 0 0 6.2.6c3.8 0 3.8-6 0-6z"/></svg>