<svg xmlns="http://www.w3.org/2000/svg" width="650" height="650" viewBox="0 0 650 650"><defs><style>.a{font-size:20px;fill:#b7b6b7;font-family:Roboto Mono;}.b{fill:none;stroke:#a09fa0;stroke-width:4px;opacity:0.75;isolation:isolate;}.c{fill:#7c7c7c;}</style></defs><title>non-ribbon-chord-diagram</title><text class="a" transform="translate(4.6 333.8)">ESFJ</text><text class="a" transform="translate(31.4 456.1) rotate(-22.5)">ENTP</text><text class="a" transform="translate(102.9 558.8) rotate(-45)">INTP</text><text class="a" transform="translate(208.3 626.4) rotate(-67.5)">ENTJ</text><text class="a" transform="translate(331.6 648.5) rotate(-90)">INTJ</text><text class="a" transform="translate(424.7 582) rotate(67.5)">ENFP</text><text class="a" transform="translate(514.5 524.6) rotate(45)">INFP</text><text class="a" transform="translate(575.5 437.3) rotate(22.5)">ENFJ</text><text class="a" transform="translate(598.4 333.3)">INFJ</text><text class="a" transform="translate(579.8 228.4) rotate(-22.5)">ISTP</text><text class="a" transform="translate(522.4 138.6) rotate(-45)">ESTP</text><text class="a" transform="translate(435.1 77.6) rotate(-67.5)">ISFP</text><text class="a" transform="translate(331 54.7) rotate(-90)">ESFP</text><text class="a" transform="translate(197 33.6) rotate(67.5)">ISTJ</text><text class="a" transform="translate(94.3 105.1) rotate(45)">ESTJ</text><text class="a" transform="translate(26.7 210.6) rotate(22.5)">ISFJ</text><path class="b" d="M231.8,554.3S370,305.7,97.7,230.8"/><path class="b" d="M570.6,327.5S280,246.7,152.2,498.5"/><path class="b" d="M325.3,82.5s-143,284.2,91.5,467.3"/><path class="b" d="M227.1,101.4S317,239.6,498.7,154.2"/><path class="b" d="M228.7,101.4S288,285.7,551.9,233.7"/><path class="b" d="M99,422.7s132.4-84.1,52.4-268.3"/><path class="b" d="M325.6,572.8S301,340.7,80.3,327.8"/><path class="b" d="M325.6,572.8s38.9-105.2,177.6-71.9"/><path class="b" d="M420.7,97.9s-88.8,172,134.2,322.4"/><path class="b" d="M325.1,81.7S270.4,366.2,499.7,501.2"/><path class="b" d="M500.8,494.9S407,349.6,551.9,233.7"/><path class="b" d="M152.2,153.7S297,254.8,422.9,98"/><path class="b" d="M150.6,500.2s91.2-127.6-52-268.4"/><path class="b" d="M571.9,330.5s-105.4-38.3-73-177.2"/><circle class="c" cx="80.3" cy="327.8" r="13.2"/><circle class="c" cx="99" cy="421.6" r="13.2" transform="translate(-153.8 70) rotate(-22.5)"/><circle class="c" cx="152.2" cy="501.2" r="13.2" transform="translate(-309.8 254.4) rotate(-45)"/><circle class="c" cx="231.8" cy="554.3" r="13.2" transform="translate(-369 556.3) rotate(-67.5)"/><circle class="c" cx="325.6" cy="572.8" r="13.2"/><circle class="c" cx="419.4" cy="554.1" r="13.2" transform="translate(-180.1 202.7) rotate(-22.5)"/><circle class="c" cx="498.9" cy="500.9" r="13.2" transform="translate(-208.1 499.5) rotate(-45)"/><circle class="c" cx="552" cy="421.3" r="13.2" transform="translate(-48.5 770.1) rotate(-67.5)"/><circle class="c" cx="570.6" cy="327.5" r="13.2"/><circle class="c" cx="551.9" cy="233.7" r="13.2" transform="translate(-47.4 229) rotate(-22.5)"/><circle class="c" cx="498.7" cy="154.2" r="13.2" transform="translate(37.1 397.8) rotate(-45)"/><circle class="c" cx="419.1" cy="101.1" r="13.2" transform="translate(165.4 449.6) rotate(-67.5)"/><circle class="c" cx="325.3" cy="82.5" r="13.2"/><circle class="c" cx="231.5" cy="101.2" r="13.2" transform="translate(-21.1 96.3) rotate(-22.5)"/><circle class="c" cx="152" cy="154.4" r="13.2" transform="translate(-64.7 152.7) rotate(-45)"/><circle class="c" cx="98.9" cy="234" r="13.2" transform="translate(-155.2 235.8) rotate(-67.5)"/></svg>