<?xml version="1.0" encoding="utf-8"?>
<!-- Generator: Adobe Illustrator 19.2.0, SVG Export Plug-In . SVG Version: 6.00 Build 0)  -->
<svg version="1.1" id="Layer_1" xmlns="http://www.w3.org/2000/svg" xmlns:xlink="http://www.w3.org/1999/xlink" x="0px" y="0px"
	 width="1200px" height="855px" viewBox="0 0 1200 855" enable-background="new 0 0 1200 855" xml:space="preserve">
<g>
	<polyline fill="none" stroke="#AFAFAF" stroke-width="8" stroke-miterlimit="10" points="1065,302 689.395,302 608.234,220.839 	
		"/>
	<line fill="none" stroke="#AFAFAF" stroke-width="8" stroke-miterlimit="10" x1="335" y1="342" x2="335" y2="399"/>
	<line fill="none" stroke="#7581BA" stroke-width="16" stroke-miterlimit="10" x1="601" y1="636" x2="601" y2="224"/>
	<polyline fill="none" stroke="#7581BA" stroke-width="16" stroke-miterlimit="10" points="1050,636 1050,426 153,426 153,636 	"/>
	<rect x="453" y="2" fill="#A3AEE3" width="299" height="224"/>
	<rect x="452" y="630" fill="#A3AEE3" width="300" height="223"/>
	<rect x="4" y="630" fill="#A3AEE3" width="300" height="223"/>
	<rect x="900" y="630" fill="#A3AEE3" width="300" height="223"/>
	<g>
		<text transform="matrix(1 0 0 1 498.209 135.0195)" fill="#37246D" font-family="'Roboto-Medium'" font-size="65px">block A</text>
	</g>
	<g>
		<text transform="matrix(1 0 0 1 46.5469 766.9922)" fill="#37246D" font-family="'Roboto-Medium'" font-size="65px">block b</text>
	</g>
	<g>
		<text transform="matrix(1 0 0 1 498.2109 766.9922)" fill="#37246D" font-family="'Roboto-Medium'" font-size="65px">block c</text>
	</g>
	<g>
		<text transform="matrix(1 0 0 1 946.5977 766.9922)" fill="#37246D" font-family="'Roboto-Medium'" font-size="65px">block d</text>
	</g>
	<g>
		<text transform="matrix(1 0 0 1 804.1465 269.4922)" fill="#7F7F7F" font-family="'Roboto-Regular'" font-size="65px">flow-port</text>
	</g>
	<g>
		<text transform="matrix(1 0 0 1 136.3477 322.1719)" fill="#7F7F7F" font-family="'Roboto-Regular'" font-size="65px">standard-port</text>
	</g>
	<circle fill="#464A90" cx="602.461" cy="223.866" r="23.35"/>
	<circle fill="#464A90" cx="602.461" cy="629.588" r="23.35"/>
	<circle fill="#464A90" cx="1050.508" cy="629.588" r="23.35"/>
	<circle fill="#464A90" cx="153.861" cy="629.588" r="23.35"/>
</g>
</svg>
