<?xml version="1.0" encoding="utf-8"?>
<!-- Generator: Adobe Illustrator 22.1.0, SVG Export Plug-In . SVG Version: 6.00 Build 0)  -->
<svg version="1.1" xmlns="http://www.w3.org/2000/svg" xmlns:xlink="http://www.w3.org/1999/xlink" x="0px" y="0px"
	 viewBox="0 0 1268 418" enable-background="new 0 0 1268 418" xml:space="preserve">
<g id="Layer_1">
	<rect x="256.8" y="234" opacity="0.8" fill="#DDD9E0" width="233.6" height="55.9"/>
	<rect x="0.4" y="234" opacity="0.8" fill="#DDD9E0" width="232.6" height="55.9"/>
	<rect x="772.5" y="234" opacity="0.8" fill="#DDD9E0" width="233.6" height="55.9"/>
	<rect x="1029.8" y="234" opacity="0.8" fill="#DDD9E0" width="234" height="55.9"/>
	<rect x="515.1" y="234" opacity="0.8" fill="#DDD9E0" width="233.6" height="55.9"/>
	<rect x="104" y="360.1" opacity="0.8" fill="#DDD9E0" width="163.8" height="55.9"/>
	<rect x="292.5" y="360.1" opacity="0.8" fill="#DDD9E0" width="163.8" height="55.9"/>
	<rect x="480.9" y="360.1" opacity="0.8" fill="#DDD9E0" width="163.8" height="55.9"/>
	<rect x="713.4" y="360.1" opacity="0.8" fill="#DDD9E0" width="163.8" height="55.9"/>
	<rect x="901.8" y="360.1" opacity="0.8" fill="#DDD9E0" width="163.8" height="55.9"/>
	<rect x="515.1" y="108" opacity="0.8" fill="#DDD9E0" width="233.6" height="55.9"/>
	<rect x="515.1" y="2.9" opacity="0.8" fill="#DDD9E0" width="233.6" height="55.9"/>
	<line fill="none" stroke="#C4C4C4" stroke-width="2" stroke-miterlimit="10" x1="631.4" y1="58.9" x2="631.4" y2="108"/>
	<line fill="none" stroke="#C4C4C4" stroke-width="2" stroke-miterlimit="10" x1="631.4" y1="163.9" x2="631.4" y2="234"/>
	<path fill="none" stroke="#C4C4C4" stroke-width="2" stroke-miterlimit="10" d="M374,234L374,234c0-12.8,10.4-23.2,23.2-23.2h164.3
		c25.7,0,46.6-20.9,46.6-46.6v-0.3"/>
	<path fill="none" stroke="#C4C4C4" stroke-width="2" stroke-miterlimit="10" d="M116,234v-0.3c0-25.7,20.9-46.6,46.6-46.6h399.1
		c12.8,0,23.2-10.4,23.2-23.2v0"/>
	<path fill="none" stroke="#C4C4C4" stroke-width="2" stroke-miterlimit="10" d="M889.5,234L889.5,234c0-12.8-10.4-23.2-23.2-23.2
		H700.9c-25.7,0-46.6-20.9-46.6-46.6v-0.3"/>
	<line fill="none" stroke="#C4C4C4" stroke-width="2" stroke-miterlimit="10" x1="373.2" y1="289.9" x2="373.2" y2="360"/>
	<path fill="none" stroke="#C4C4C4" stroke-width="2" stroke-miterlimit="10" d="M185.8,360c0-12.8,10.4-23.2,23.2-23.2h94.3
		c25.7,0,46.6-20.9,46.6-46.6v-0.3"/>
	<path fill="none" stroke="#C4C4C4" stroke-width="2" stroke-miterlimit="10" d="M564.3,360L564.3,360c0-12.8-10.4-23.2-23.2-23.2
		h-98.3c-25.7,0-46.6-20.9-46.6-46.6v-0.3"/>
	<path fill="none" stroke="#C4C4C4" stroke-width="2" stroke-miterlimit="10" d="M795.3,360c0-12.8,10.4-23.2,23.2-23.2h24.3
		c25.7,0,46.6-20.9,46.6-46.6"/>
	<path fill="none" stroke="#C4C4C4" stroke-width="2" stroke-miterlimit="10" d="M983.6,360c0-12.8-10.4-23.2-23.2-23.2H936
		c-25.7,0-46.6-20.9-46.6-46.6"/>
	<path fill="none" stroke="#C4C4C4" stroke-width="2" stroke-miterlimit="10" d="M1147.5,234v-0.3c0-25.7-20.9-46.6-46.6-46.6H700.8
		c-12.8,0-23.2-10.4-23.2-23.2v0"/>
</g>
<g id="Layer_2">
</g>
<g id="Layer_3">
</g>
</svg>
