<svg enable-background="new 0 0 256 225" height="225" viewBox="0 0 256 225" width="256" xmlns="http://www.w3.org/2000/svg"><path d="m227.351 102.542v49.203h-9.841v-39.363h-84.63v39.273h-9.841v-39.273h-84.629v39.363h-9.84v-49.203h94.47v-37.395h-26.57v-62.828h63.178v62.829h-26.768v37.394zm-4.923 120.139 31.572-31.572-31.572-31.572-31.572 31.572zm-66.914-31.574c0-15.218-12.336-27.554-27.554-27.554-15.218 0-27.554 12.336-27.554 27.554 0 15.218 12.336 27.554 27.554 27.554 15.218 0 27.554-12.336 27.554-27.554zm-122.024-27.553-31.49 55.107h62.98z"/></svg>