<?xml version="1.0" encoding="utf-8"?>
<!-- Generator: Adobe Illustrator 24.0.1, SVG Export Plug-In . SVG Version: 6.00 Build 0)  -->
<svg version="1.1"
	 id="tally_chart" xmlns:cc="http://creativecommons.org/ns#" xmlns:dc="http://purl.org/dc/elements/1.1/" xmlns:inkscape="http://www.inkscape.org/namespaces/inkscape" xmlns:rdf="http://www.w3.org/1999/02/22-rdf-syntax-ns#" xmlns:sodipodi="http://sodipodi.sourceforge.net/DTD/sodipodi-0.dtd" xmlns:svg="http://www.w3.org/2000/svg"
	 xmlns="http://www.w3.org/2000/svg" xmlns:xlink="http://www.w3.org/1999/xlink" x="0px" y="0px" viewBox="0 0 1268 418"
	 style="enable-background:new 0 0 1268 418;" xml:space="preserve">
<style type="text/css">
	.st0{fill:#3B3842;}
</style>
<path class="st0" d="M74.8,24.7l-1.8-1.6c-2.1,2.4-4.2,4.6-6.4,6.6c-0.1-3-0.2-6.1-0.4-9.1l-2.4,0.1c0.2,3.7,0.3,7.3,0.5,11
	c-2.6,2.2-5.3,4.2-8,6.1c0.2-5.9,0.1-11.6-0.8-17.3L53,20.9c1,6.1,0.9,12.2,0.7,18.6c-2.9,2-5.9,3.8-9,5.7
	C44.6,37.4,44,29.5,43,21.8l-2.4,0.3c1.1,8,1.7,16.4,1.7,24.6c-2.4,1.5-4.9,3.1-7.4,4.7l-1.4-29.5l-2.4,0.1l1.5,31
	c-2.3,1.6-4.7,3.3-7,5.1l1.5,1.9c1.9-1.5,3.8-2.8,5.7-4.1l0.3,6.5l2.4-0.1l-0.4-8c2.4-1.6,4.8-3.2,7.2-4.7c0,3.8-0.2,7.6-0.4,11.3
	l2.4,0.2c0.3-4.3,0.4-8.6,0.5-13c0.2-0.1,0.4-0.3,0.6-0.4c2.8-1.7,5.5-3.4,8.2-5.2c0,0.4,0,0.8,0,1.3c-0.2,5.4-0.4,11-0.2,16.6
	l2.4-0.1c-0.3-5.5-0.1-11.1,0.2-16.4c0-1,0.1-2,0.1-3c2.8-1.9,5.5-3.9,8.2-6c0.3,9,0.4,18,0.3,26.9l2.4,0c0.1-9.6-0.1-19.3-0.4-28.9
	C69.4,30.4,72.1,27.7,74.8,24.7z"/>
<path class="st0" d="M135.6,24.7l-1.8-1.6c-2.1,2.4-4.2,4.6-6.4,6.6c-0.1-3-0.2-6.1-0.4-9.1l-2.4,0.1c0.2,3.7,0.3,7.3,0.5,11
	c-2.6,2.2-5.3,4.2-8,6.1c0.2-5.9,0.1-11.6-0.8-17.3l-2.4,0.4c1,6.1,0.9,12.2,0.7,18.6c-2.9,2-5.9,3.8-9,5.7
	c-0.1-7.9-0.7-15.8-1.7-23.4l-2.4,0.3c1.1,8,1.7,16.4,1.7,24.6c-2.4,1.5-4.9,3.1-7.4,4.7l-1.4-29.5l-2.4,0.1l1.5,31
	c-2.3,1.6-4.7,3.3-7,5.1l1.5,1.9c1.9-1.5,3.8-2.8,5.7-4.1l0.3,6.5l2.4-0.1l-0.4-8c2.4-1.6,4.8-3.2,7.2-4.7c0,3.8-0.2,7.6-0.4,11.3
	l2.4,0.2c0.3-4.3,0.4-8.6,0.5-13c0.2-0.1,0.4-0.3,0.6-0.4c2.8-1.7,5.5-3.4,8.2-5.2c0,0.4,0,0.8,0,1.3c-0.2,5.4-0.4,11-0.2,16.6
	l2.4-0.1c-0.3-5.5-0.1-11.1,0.2-16.4c0-1,0.1-2,0.1-3c2.8-1.9,5.5-3.9,8.2-6c0.3,9,0.4,18,0.3,26.9l2.4,0c0.1-9.6-0.1-19.3-0.4-28.9
	C130.2,30.4,132.9,27.7,135.6,24.7z"/>
<path class="st0" d="M196.4,24.7l-1.8-1.6c-2.1,2.4-4.2,4.6-6.4,6.6c-0.1-3-0.2-6.1-0.4-9.1l-2.4,0.1c0.2,3.7,0.3,7.3,0.5,11
	c-2.6,2.2-5.3,4.2-8,6.1c0.2-5.9,0.1-11.6-0.8-17.3l-2.4,0.4c1,6.1,0.9,12.2,0.7,18.6c-2.9,2-5.9,3.8-9,5.7
	c-0.1-7.9-0.7-15.8-1.7-23.4l-2.4,0.3c1.1,8,1.7,16.4,1.7,24.6c-2.4,1.5-4.9,3.1-7.4,4.7l-1.4-29.5l-2.4,0.1l1.5,31
	c-2.3,1.6-4.7,3.3-7,5.1l1.5,1.9c1.9-1.5,3.8-2.8,5.7-4.1l0.3,6.5l2.4-0.1l-0.4-8c2.4-1.6,4.8-3.2,7.2-4.7c0,3.8-0.2,7.6-0.4,11.3
	l2.4,0.2c0.3-4.3,0.4-8.6,0.5-13c0.2-0.1,0.4-0.3,0.6-0.4c2.8-1.7,5.5-3.4,8.2-5.2c0,0.4,0,0.8,0,1.3c-0.2,5.4-0.4,11-0.2,16.6
	l2.4-0.1c-0.3-5.5-0.1-11.1,0.2-16.4c0-1,0.1-2,0.1-3c2.8-1.9,5.5-3.9,8.2-6c0.3,9,0.4,18,0.3,26.9l2.4,0c0.1-9.6-0.1-19.3-0.4-28.9
	C191,30.4,193.8,27.7,196.4,24.7z"/>
<path class="st0" d="M257.2,24.7l-1.8-1.6c-2.1,2.4-4.2,4.6-6.4,6.6c-0.1-3-0.2-6.1-0.4-9.1l-2.4,0.1c0.2,3.7,0.3,7.3,0.5,11
	c-2.6,2.2-5.3,4.2-8,6.1c0.2-5.9,0.1-11.6-0.8-17.3l-2.4,0.4c1,6.1,0.9,12.2,0.7,18.6c-2.9,2-5.9,3.8-9,5.7
	c-0.1-7.9-0.7-15.8-1.7-23.4l-2.4,0.3c1.1,8,1.7,16.4,1.7,24.6c-2.4,1.5-4.9,3.1-7.4,4.7L216,21.9l-2.4,0.1l1.5,31
	c-2.3,1.6-4.7,3.3-7,5.1l1.5,1.9c1.9-1.5,3.8-2.8,5.7-4.1l0.3,6.5l2.4-0.1l-0.4-8c2.4-1.6,4.8-3.2,7.2-4.7c0,3.8-0.2,7.6-0.4,11.3
	l2.4,0.2c0.3-4.3,0.4-8.6,0.5-13c0.2-0.1,0.4-0.3,0.6-0.4c2.8-1.7,5.5-3.4,8.2-5.2c0,0.4,0,0.8,0,1.3c-0.2,5.4-0.4,11-0.2,16.6
	l2.4-0.1c-0.3-5.5-0.1-11.1,0.2-16.4c0-1,0.1-2,0.1-3c2.8-1.9,5.5-3.9,8.2-6c0.3,9,0.4,18,0.3,26.9l2.4,0c0.1-9.6-0.1-19.3-0.4-28.9
	C251.9,30.4,254.6,27.7,257.2,24.7z"/>
<path class="st0" d="M318.1,24.7l-1.8-1.6c-2.1,2.4-4.2,4.6-6.4,6.6c-0.1-3-0.2-6.1-0.4-9.1l-2.4,0.1c0.2,3.7,0.3,7.3,0.5,11
	c-2.6,2.2-5.3,4.2-8,6.1c0.2-5.9,0.1-11.6-0.8-17.3l-2.4,0.4c1,6.1,0.9,12.2,0.7,18.6c-2.9,2-5.9,3.8-9,5.7
	c-0.1-7.9-0.7-15.8-1.7-23.4l-2.4,0.3c1.1,8,1.7,16.4,1.7,24.6c-2.4,1.5-4.9,3.1-7.4,4.7l-1.4-29.5l-2.4,0.1l1.5,31
	c-2.3,1.6-4.7,3.3-7,5.1l1.5,1.9c1.9-1.5,3.8-2.8,5.7-4.1l0.3,6.5l2.4-0.1l-0.4-8c2.4-1.6,4.8-3.2,7.2-4.7c0,3.8-0.2,7.6-0.4,11.3
	l2.4,0.2c0.3-4.3,0.4-8.6,0.5-13c0.2-0.1,0.4-0.3,0.6-0.4c2.8-1.7,5.5-3.4,8.2-5.2c0,0.4,0,0.8,0,1.3c-0.2,5.4-0.4,11-0.2,16.6
	l2.4-0.1c-0.3-5.5-0.1-11.1,0.2-16.4c0-1,0.1-2,0.1-3c2.8-1.9,5.5-3.9,8.2-6c0.3,9,0.4,18,0.3,26.9l2.4,0c0.1-9.6-0.1-19.3-0.4-28.9
	C312.7,30.4,315.4,27.7,318.1,24.7z"/>
<path class="st0" d="M378.9,24.7l-1.8-1.6c-2.1,2.4-4.2,4.6-6.4,6.6c-0.1-3-0.2-6.1-0.4-9.1l-2.4,0.1c0.2,3.7,0.3,7.3,0.5,11
	c-2.6,2.2-5.3,4.2-8,6.1c0.2-5.9,0.1-11.6-0.8-17.3l-2.4,0.4c1,6.1,0.9,12.2,0.7,18.6c-2.9,2-5.9,3.8-9,5.7
	c-0.1-7.9-0.7-15.8-1.7-23.4l-2.4,0.3c1.1,8,1.7,16.4,1.7,24.6c-2.4,1.5-4.9,3.1-7.4,4.7l-1.4-29.5l-2.4,0.1l1.5,31
	c-2.3,1.6-4.7,3.3-7,5.1l1.5,1.9c1.9-1.5,3.8-2.8,5.7-4.1l0.3,6.5l2.4-0.1l-0.4-8c2.4-1.6,4.8-3.2,7.2-4.7c0,3.8-0.2,7.6-0.4,11.3
	l2.4,0.2c0.3-4.3,0.4-8.6,0.5-13c0.2-0.1,0.4-0.3,0.6-0.4c2.8-1.7,5.5-3.4,8.2-5.2c0,0.4,0,0.8,0,1.3c-0.2,5.4-0.4,11-0.2,16.6
	l2.4-0.1c-0.3-5.5-0.1-11.1,0.2-16.4c0-1,0.1-2,0.1-3c2.8-1.9,5.5-3.9,8.2-6c0.3,9,0.4,18,0.3,26.9l2.4,0c0.1-9.6-0.1-19.3-0.4-28.9
	C373.5,30.4,376.2,27.7,378.9,24.7z"/>
<path class="st0" d="M439.7,24.7l-1.8-1.6c-2.1,2.4-4.2,4.6-6.4,6.6c-0.1-3-0.2-6.1-0.4-9.1l-2.4,0.1c0.2,3.7,0.3,7.3,0.5,11
	c-2.6,2.2-5.3,4.2-8,6.1c0.2-5.9,0.1-11.6-0.8-17.3l-2.4,0.4c1,6.1,0.9,12.2,0.7,18.6c-2.9,2-5.9,3.8-9,5.7
	c-0.1-7.9-0.7-15.8-1.7-23.4l-2.4,0.3c1.1,8,1.7,16.4,1.7,24.6c-2.4,1.5-4.9,3.1-7.4,4.7l-1.4-29.5l-2.4,0.1l1.5,31
	c-2.3,1.6-4.7,3.3-7,5.1l1.5,1.9c1.9-1.5,3.8-2.8,5.7-4.1l0.3,6.5l2.4-0.1l-0.4-8c2.4-1.6,4.8-3.2,7.2-4.7c0,3.8-0.2,7.6-0.4,11.3
	l2.4,0.2c0.3-4.3,0.4-8.6,0.5-13c0.2-0.1,0.4-0.3,0.6-0.4c2.8-1.7,5.5-3.4,8.2-5.2c0,0.4,0,0.8,0,1.3c-0.2,5.4-0.4,11-0.2,16.6
	l2.4-0.1c-0.3-5.5-0.1-11.1,0.2-16.4c0-1,0.1-2,0.1-3c2.8-1.9,5.5-3.9,8.2-6c0.3,9,0.4,18,0.3,26.9l2.4,0c0.1-9.6-0.1-19.3-0.4-28.9
	C434.3,30.4,437.1,27.7,439.7,24.7z"/>
<path class="st0" d="M500.5,24.7l-1.8-1.6c-2.1,2.4-4.2,4.6-6.4,6.6c-0.1-3-0.2-6.1-0.4-9.1l-2.4,0.1c0.2,3.7,0.3,7.3,0.5,11
	c-2.6,2.2-5.3,4.2-8,6.1c0.2-5.9,0.1-11.6-0.8-17.3l-2.4,0.4c1,6.1,0.9,12.2,0.7,18.6c-2.9,2-5.9,3.8-9,5.7
	c-0.1-7.9-0.7-15.8-1.7-23.4l-2.4,0.3c1.1,8,1.7,16.4,1.7,24.6c-2.4,1.5-4.9,3.1-7.4,4.7l-1.4-29.5l-2.4,0.1l1.5,31
	c-2.3,1.6-4.7,3.3-7,5.1l1.5,1.9c1.9-1.5,3.8-2.8,5.7-4.1l0.3,6.5l2.4-0.1l-0.4-8c2.4-1.6,4.8-3.2,7.2-4.7c0,3.8-0.2,7.6-0.4,11.3
	l2.4,0.2c0.3-4.3,0.4-8.6,0.5-13c0.2-0.1,0.4-0.3,0.6-0.4c2.8-1.7,5.5-3.4,8.2-5.2c0,0.4,0,0.8,0,1.3c-0.2,5.4-0.4,11-0.2,16.6
	l2.4-0.1c-0.3-5.5-0.1-11.1,0.2-16.4c0-1,0.1-2,0.1-3c2.8-1.9,5.5-3.9,8.2-6c0.3,9,0.4,18,0.3,26.9l2.4,0c0.1-9.6-0.1-19.3-0.4-28.9
	C495.2,30.4,497.9,27.7,500.5,24.7z"/>
<path class="st0" d="M561.4,24.7l-1.8-1.6c-2.1,2.4-4.2,4.6-6.4,6.6c-0.1-3-0.2-6.1-0.4-9.1l-2.4,0.1c0.2,3.7,0.3,7.3,0.5,11
	c-2.6,2.2-5.3,4.2-8,6.1c0.2-5.9,0.1-11.6-0.8-17.3l-2.4,0.4c1,6.1,0.9,12.2,0.7,18.6c-2.9,2-5.9,3.8-9,5.7
	c-0.1-7.9-0.7-15.8-1.7-23.4l-2.4,0.3c1.1,8,1.7,16.4,1.7,24.6c-2.4,1.5-4.9,3.1-7.4,4.7l-1.4-29.5l-2.4,0.1l1.5,31
	c-2.3,1.6-4.7,3.3-7,5.1l1.5,1.9c1.9-1.5,3.8-2.8,5.7-4.1l0.3,6.5l2.4-0.1l-0.4-8c2.4-1.6,4.8-3.2,7.2-4.7c0,3.8-0.2,7.6-0.4,11.3
	l2.4,0.2c0.3-4.3,0.4-8.6,0.5-13c0.2-0.1,0.4-0.3,0.6-0.4c2.8-1.7,5.5-3.4,8.2-5.2c0,0.4,0,0.8,0,1.3c-0.2,5.4-0.4,11-0.2,16.6
	l2.4-0.1c-0.3-5.5-0.1-11.1,0.2-16.4c0-1,0.1-2,0.1-3c2.8-1.9,5.5-3.9,8.2-6c0.3,9,0.4,18,0.3,26.9l2.4,0c0.1-9.6-0.1-19.3-0.4-28.9
	C556,30.4,558.7,27.7,561.4,24.7z"/>
<path class="st0" d="M622.2,24.7l-1.8-1.6c-2.1,2.4-4.2,4.6-6.4,6.6c-0.1-3-0.2-6.1-0.4-9.1l-2.4,0.1c0.2,3.7,0.3,7.3,0.5,11
	c-2.6,2.2-5.3,4.2-8,6.1c0.2-5.9,0.1-11.6-0.8-17.3l-2.4,0.4c1,6.1,0.9,12.2,0.7,18.6c-2.9,2-5.9,3.8-9,5.7
	c-0.1-7.9-0.7-15.8-1.7-23.4l-2.4,0.3c1.1,8,1.7,16.4,1.7,24.6c-2.4,1.5-4.9,3.1-7.4,4.7l-1.4-29.5l-2.4,0.1l1.5,31
	c-2.3,1.6-4.7,3.3-7,5.1l1.5,1.9c1.9-1.5,3.8-2.8,5.7-4.1l0.3,6.5l2.4-0.1l-0.4-8c2.4-1.6,4.8-3.2,7.2-4.7c0,3.8-0.2,7.6-0.4,11.3
	l2.4,0.2c0.3-4.3,0.4-8.6,0.5-13c0.2-0.1,0.4-0.3,0.6-0.4c2.8-1.7,5.5-3.4,8.2-5.2c0,0.4,0,0.8,0,1.3c-0.2,5.4-0.4,11-0.2,16.6
	l2.4-0.1c-0.3-5.5-0.1-11.1,0.2-16.4c0-1,0.1-2,0.1-3c2.8-1.9,5.5-3.9,8.2-6c0.3,9,0.4,18,0.3,26.9l2.4,0c0.1-9.6-0.1-19.3-0.4-28.9
	C616.8,30.4,619.5,27.7,622.2,24.7z"/>
<path class="st0" d="M701,24.7l-1.8-1.6c-2.1,2.4-4.2,4.6-6.4,6.6c-0.1-3-0.2-6.1-0.4-9.1l-2.4,0.1c0.2,3.7,0.3,7.3,0.5,11
	c-2.6,2.2-5.3,4.2-8,6.1c0.2-5.9,0.1-11.6-0.8-17.3l-2.4,0.4c1,6.1,0.9,12.2,0.7,18.6c-2.9,2-5.9,3.8-9,5.7
	c-0.1-7.9-0.7-15.8-1.7-23.4l-2.4,0.3c1.1,8,1.7,16.4,1.7,24.6c-2.4,1.5-4.9,3.1-7.4,4.7l-1.4-29.5l-2.4,0.1l1.5,31
	c-2.3,1.6-4.7,3.3-7,5.1l1.5,1.9c1.9-1.5,3.8-2.8,5.7-4.1l0.3,6.5l2.4-0.1l-0.4-8c2.4-1.6,4.8-3.2,7.2-4.7c0,3.8-0.2,7.6-0.4,11.3
	l2.4,0.2c0.3-4.3,0.4-8.6,0.5-13c0.2-0.1,0.4-0.3,0.6-0.4c2.8-1.7,5.5-3.4,8.2-5.2c0,0.4,0,0.8,0,1.3c-0.2,5.4-0.4,11-0.2,16.6
	l2.4-0.1c-0.3-5.5-0.1-11.1,0.2-16.4c0-1,0.1-2,0.1-3c2.8-1.9,5.5-3.9,8.2-6c0.3,9,0.4,18,0.3,26.9l2.4,0c0.1-9.6-0.1-19.3-0.4-28.9
	C695.6,30.4,698.4,27.7,701,24.7z"/>
<path class="st0" d="M761.8,24.7l-1.8-1.6c-2.1,2.4-4.2,4.6-6.4,6.6c-0.1-3-0.2-6.1-0.4-9.1l-2.4,0.1c0.2,3.7,0.3,7.3,0.5,11
	c-2.6,2.2-5.3,4.2-8,6.1c0.2-5.9,0.1-11.6-0.8-17.3l-2.4,0.4c1,6.1,0.9,12.2,0.7,18.6c-2.9,2-5.9,3.8-9,5.7
	c-0.1-7.9-0.7-15.8-1.7-23.4l-2.4,0.3c1.1,8,1.7,16.4,1.7,24.6c-2.4,1.5-4.9,3.1-7.4,4.7l-1.4-29.5l-2.4,0.1l1.5,31
	c-2.3,1.6-4.7,3.3-7,5.1l1.5,1.9c1.9-1.5,3.8-2.8,5.7-4.1l0.3,6.5l2.4-0.1l-0.4-8c2.4-1.6,4.8-3.2,7.2-4.7c0,3.8-0.2,7.6-0.4,11.3
	l2.4,0.2c0.3-4.3,0.4-8.6,0.5-13c0.2-0.1,0.4-0.3,0.6-0.4c2.8-1.7,5.5-3.4,8.2-5.2c0,0.4,0,0.8,0,1.3c-0.2,5.4-0.4,11-0.2,16.6
	l2.4-0.1c-0.3-5.5-0.1-11.1,0.2-16.4c0-1,0.1-2,0.1-3c2.8-1.9,5.5-3.9,8.2-6c0.3,9,0.4,18,0.3,26.9l2.4,0c0.1-9.6-0.1-19.3-0.4-28.9
	C756.5,30.4,759.2,27.7,761.8,24.7z"/>
<path class="st0" d="M822.7,24.7l-1.8-1.6c-2.1,2.4-4.2,4.6-6.4,6.6c-0.1-3-0.2-6.1-0.4-9.1l-2.4,0.1c0.2,3.7,0.3,7.3,0.5,11
	c-2.6,2.2-5.3,4.2-8,6.1c0.2-5.9,0.1-11.6-0.8-17.3l-2.4,0.4c1,6.1,0.9,12.2,0.7,18.6c-2.9,2-5.9,3.8-9,5.7
	c-0.1-7.9-0.7-15.8-1.7-23.4l-2.4,0.3c1.1,8,1.7,16.4,1.7,24.6c-2.4,1.5-4.9,3.1-7.4,4.7l-1.4-29.5l-2.4,0.1l1.5,31
	c-2.3,1.6-4.7,3.3-7,5.1l1.5,1.9c1.9-1.5,3.8-2.8,5.7-4.1l0.3,6.5l2.4-0.1l-0.4-8c2.4-1.6,4.8-3.2,7.2-4.7c0,3.8-0.2,7.6-0.4,11.3
	l2.4,0.2c0.3-4.3,0.4-8.6,0.5-13c0.2-0.1,0.4-0.3,0.6-0.4c2.8-1.7,5.5-3.4,8.2-5.2c0,0.4,0,0.8,0,1.3c-0.2,5.4-0.4,11-0.2,16.6
	l2.4-0.1c-0.3-5.5-0.1-11.1,0.2-16.4c0-1,0.1-2,0.1-3c2.8-1.9,5.5-3.9,8.2-6c0.3,9,0.4,18,0.3,26.9l2.4,0c0.1-9.6-0.1-19.3-0.4-28.9
	C817.3,30.4,820,27.7,822.7,24.7z"/>
<path class="st0" d="M883.5,24.7l-1.8-1.6c-2.1,2.4-4.2,4.6-6.4,6.6c-0.1-3-0.2-6.1-0.4-9.1l-2.4,0.1c0.2,3.7,0.3,7.3,0.5,11
	c-2.6,2.2-5.3,4.2-8,6.1c0.2-5.9,0.1-11.6-0.8-17.3l-2.4,0.4c1,6.1,0.9,12.2,0.7,18.6c-2.9,2-5.9,3.8-9,5.7
	c-0.1-7.9-0.7-15.8-1.7-23.4l-2.4,0.3c1.1,8,1.7,16.4,1.7,24.6c-2.4,1.5-4.9,3.1-7.4,4.7l-1.4-29.5l-2.4,0.1l1.5,31
	c-2.3,1.6-4.7,3.3-7,5.1l1.5,1.9c1.9-1.5,3.8-2.8,5.7-4.1l0.3,6.5l2.4-0.1l-0.4-8c2.4-1.6,4.8-3.2,7.2-4.7c0,3.8-0.2,7.6-0.4,11.3
	l2.4,0.2c0.3-4.3,0.4-8.6,0.5-13c0.2-0.1,0.4-0.3,0.6-0.4c2.8-1.7,5.5-3.4,8.2-5.2c0,0.4,0,0.8,0,1.3c-0.2,5.4-0.4,11-0.2,16.6
	l2.4-0.1c-0.3-5.5-0.1-11.1,0.2-16.4c0-1,0.1-2,0.1-3c2.8-1.9,5.5-3.9,8.2-6c0.3,9,0.4,18,0.3,26.9l2.4,0c0.1-9.6-0.1-19.3-0.4-28.9
	C878.1,30.4,880.8,27.7,883.5,24.7z"/>
<path class="st0" d="M944.3,24.7l-1.8-1.6c-2.1,2.4-4.2,4.6-6.4,6.6c-0.1-3-0.2-6.1-0.4-9.1l-2.4,0.1c0.2,3.7,0.3,7.3,0.5,11
	c-2.6,2.2-5.3,4.2-8,6.1c0.2-5.9,0.1-11.6-0.8-17.3l-2.4,0.4c1,6.1,0.9,12.2,0.7,18.6c-2.9,2-5.9,3.8-9,5.7
	c-0.1-7.9-0.7-15.8-1.7-23.4l-2.4,0.3c1.1,8,1.7,16.4,1.7,24.6c-2.4,1.5-4.9,3.1-7.4,4.7l-1.4-29.5l-2.4,0.1l1.5,31
	c-2.3,1.6-4.7,3.3-7,5.1l1.5,1.9c1.9-1.5,3.8-2.8,5.7-4.1l0.3,6.5l2.4-0.1l-0.4-8c2.4-1.6,4.8-3.2,7.2-4.7c0,3.8-0.2,7.6-0.4,11.3
	l2.4,0.2c0.3-4.3,0.4-8.6,0.5-13c0.2-0.1,0.4-0.3,0.6-0.4c2.8-1.7,5.5-3.4,8.2-5.2c0,0.4,0,0.8,0,1.3c-0.2,5.4-0.4,11-0.2,16.6
	l2.4-0.1c-0.3-5.5-0.1-11.1,0.2-16.4c0-1,0.1-2,0.1-3c2.8-1.9,5.5-3.9,8.2-6c0.3,9,0.4,18,0.3,26.9l2.4,0c0.1-9.6-0.1-19.3-0.4-28.9
	C938.9,30.4,941.7,27.7,944.3,24.7z"/>
<path class="st0" d="M1005.1,24.7l-1.8-1.6c-2.1,2.4-4.2,4.6-6.4,6.6c-0.1-3-0.2-6.1-0.4-9.1l-2.4,0.1c0.2,3.7,0.3,7.3,0.5,11
	c-2.6,2.2-5.3,4.2-8,6.1c0.2-5.9,0.1-11.6-0.8-17.3l-2.4,0.4c1,6.1,0.9,12.2,0.7,18.6c-2.9,2-5.9,3.8-9,5.7
	c-0.1-7.9-0.7-15.8-1.7-23.4l-2.4,0.3c1.1,8,1.7,16.4,1.7,24.6c-2.4,1.5-4.9,3.1-7.4,4.7l-1.4-29.5l-2.4,0.1l1.5,31
	c-2.3,1.6-4.7,3.3-7,5.1l1.5,1.9c1.9-1.5,3.8-2.8,5.7-4.1l0.3,6.5l2.4-0.1l-0.4-8c2.4-1.6,4.8-3.2,7.2-4.7c0,3.8-0.2,7.6-0.4,11.3
	l2.4,0.2c0.3-4.3,0.4-8.6,0.5-13c0.2-0.1,0.4-0.3,0.6-0.4c2.8-1.7,5.5-3.4,8.2-5.2c0,0.4,0,0.8,0,1.3c-0.2,5.4-0.4,11-0.2,16.6
	l2.4-0.1c-0.3-5.5-0.1-11.1,0.2-16.4c0-1,0.1-2,0.1-3c2.8-1.9,5.5-3.9,8.2-6c0.3,9,0.4,18,0.3,26.9l2.4,0c0.1-9.6-0.1-19.3-0.4-28.9
	C999.7,30.4,1002.5,27.7,1005.1,24.7z"/>
<path class="st0" d="M1065.9,24.7l-1.8-1.6c-2.1,2.4-4.2,4.6-6.4,6.6c-0.1-3-0.2-6.1-0.4-9.1l-2.4,0.1c0.2,3.7,0.3,7.3,0.5,11
	c-2.6,2.2-5.3,4.2-8,6.1c0.2-5.9,0.1-11.6-0.8-17.3l-2.4,0.4c1,6.1,0.9,12.2,0.7,18.6c-2.9,2-5.9,3.8-9,5.7
	c-0.1-7.9-0.7-15.8-1.7-23.4l-2.4,0.3c1.1,8,1.7,16.4,1.7,24.6c-2.4,1.5-4.9,3.1-7.4,4.7l-1.4-29.5l-2.4,0.1l1.5,31
	c-2.3,1.6-4.7,3.3-7,5.1l1.5,1.9c1.9-1.5,3.8-2.8,5.7-4.1l0.3,6.5l2.4-0.1l-0.4-8c2.4-1.6,4.8-3.2,7.2-4.7c0,3.8-0.2,7.6-0.4,11.3
	l2.4,0.2c0.3-4.3,0.4-8.6,0.5-13c0.2-0.1,0.4-0.3,0.6-0.4c2.8-1.7,5.5-3.4,8.2-5.2c0,0.4,0,0.8,0,1.3c-0.2,5.4-0.4,11-0.2,16.6
	l2.4-0.1c-0.3-5.5-0.1-11.1,0.2-16.4c0-1,0.1-2,0.1-3c2.8-1.9,5.5-3.9,8.2-6c0.3,9,0.4,18,0.3,26.9l2.4,0c0.1-9.6-0.1-19.3-0.4-28.9
	C1060.6,30.4,1063.3,27.7,1065.9,24.7z"/>
<path class="st0" d="M1126.8,24.7l-1.8-1.6c-2.1,2.4-4.2,4.6-6.4,6.6c-0.1-3-0.2-6.1-0.4-9.1l-2.4,0.1c0.2,3.7,0.3,7.3,0.5,11
	c-2.6,2.2-5.3,4.2-8,6.1c0.2-5.9,0.1-11.6-0.8-17.3l-2.4,0.4c1,6.1,0.9,12.2,0.7,18.6c-2.9,2-5.9,3.8-9,5.7
	c-0.1-7.9-0.7-15.8-1.7-23.4l-2.4,0.3c1.1,8,1.7,16.4,1.7,24.6c-2.4,1.5-4.9,3.1-7.4,4.7l-1.4-29.5l-2.4,0.1l1.5,31
	c-2.3,1.6-4.7,3.3-7,5.1l1.5,1.9c1.9-1.5,3.8-2.8,5.7-4.1l0.3,6.5l2.4-0.1l-0.4-8c2.4-1.6,4.8-3.2,7.2-4.7c0,3.8-0.2,7.6-0.4,11.3
	l2.4,0.2c0.3-4.3,0.4-8.6,0.5-13c0.2-0.1,0.4-0.3,0.6-0.4c2.8-1.7,5.5-3.4,8.2-5.2c0,0.4,0,0.8,0,1.3c-0.2,5.4-0.4,11-0.2,16.6
	l2.4-0.1c-0.3-5.5-0.1-11.1,0.2-16.4c0-1,0.1-2,0.1-3c2.8-1.9,5.5-3.9,8.2-6c0.3,9,0.4,18,0.3,26.9l2.4,0c0.1-9.6-0.1-19.3-0.4-28.9
	C1121.4,30.4,1124.1,27.7,1126.8,24.7z"/>
<path class="st0" d="M1187.6,24.7l-1.8-1.6c-2.1,2.4-4.2,4.6-6.4,6.6c-0.1-3-0.2-6.1-0.4-9.1l-2.4,0.1c0.2,3.7,0.3,7.3,0.5,11
	c-2.6,2.2-5.3,4.2-8,6.1c0.2-5.9,0.1-11.6-0.8-17.3l-2.4,0.4c1,6.1,0.9,12.2,0.7,18.6c-2.9,2-5.9,3.8-9,5.7
	c-0.1-7.9-0.7-15.8-1.7-23.4l-2.4,0.3c1.1,8,1.7,16.4,1.7,24.6c-2.4,1.5-4.9,3.1-7.4,4.7l-1.4-29.5l-2.4,0.1l1.5,31
	c-2.3,1.6-4.7,3.3-7,5.1l1.5,1.9c1.9-1.5,3.8-2.8,5.7-4.1l0.3,6.5l2.4-0.1l-0.4-8c2.4-1.6,4.8-3.2,7.2-4.7c0,3.8-0.2,7.6-0.4,11.3
	l2.4,0.2c0.3-4.3,0.4-8.6,0.5-13c0.2-0.1,0.4-0.3,0.6-0.4c2.8-1.7,5.5-3.4,8.2-5.2c0,0.4,0,0.8,0,1.3c-0.2,5.4-0.4,11-0.2,16.6
	l2.4-0.1c-0.3-5.5-0.1-11.1,0.2-16.4c0-1,0.1-2,0.1-3c2.8-1.9,5.5-3.9,8.2-6c0.3,9,0.4,18,0.3,26.9l2.4,0c0.1-9.6-0.1-19.3-0.4-28.9
	C1182.2,30.4,1184.9,27.7,1187.6,24.7z"/>
<path class="st0" d="M1248.4,24.7l-1.8-1.6c-2.1,2.4-4.2,4.6-6.4,6.6c-0.1-3-0.2-6.1-0.4-9.1l-2.4,0.1c0.2,3.7,0.3,7.3,0.5,11
	c-2.6,2.2-5.3,4.2-8,6.1c0.2-5.9,0.1-11.6-0.8-17.3l-2.4,0.4c1,6.1,0.9,12.2,0.7,18.6c-2.9,2-5.9,3.8-9,5.7
	c-0.1-7.9-0.7-15.8-1.7-23.4l-2.4,0.3c1.1,8,1.7,16.4,1.7,24.6c-2.4,1.5-4.9,3.1-7.4,4.7l-1.4-29.5l-2.4,0.1l1.5,31
	c-2.3,1.6-4.7,3.3-7,5.1l1.5,1.9c1.9-1.5,3.8-2.8,5.7-4.1l0.3,6.5l2.4-0.1l-0.4-8c2.4-1.6,4.8-3.2,7.2-4.7c0,3.8-0.2,7.6-0.4,11.3
	l2.4,0.2c0.3-4.3,0.4-8.6,0.5-13c0.2-0.1,0.4-0.3,0.6-0.4c2.8-1.7,5.5-3.4,8.2-5.2c0,0.4,0,0.8,0,1.3c-0.2,5.4-0.4,11-0.2,16.6
	l2.4-0.1c-0.3-5.5-0.1-11.1,0.2-16.4c0-1,0.1-2,0.1-3c2.8-1.9,5.5-3.9,8.2-6c0.3,9,0.4,18,0.3,26.9l2.4,0c0.1-9.6-0.1-19.3-0.4-28.9
	C1243,30.4,1245.8,27.7,1248.4,24.7z"/>
<path class="st0" d="M74.8,109.8l-1.8-1.6c-2.1,2.4-4.2,4.6-6.4,6.6c-0.1-3-0.2-6.1-0.4-9.1l-2.4,0.1c0.2,3.7,0.3,7.3,0.5,11
	c-2.6,2.2-5.3,4.2-8,6.1c0.2-5.9,0.1-11.6-0.8-17.3L53,106c1,6.1,0.9,12.2,0.7,18.6c-2.9,2-5.9,3.8-9,5.7
	c-0.1-7.9-0.7-15.8-1.7-23.4l-2.4,0.3c1.1,8,1.7,16.4,1.7,24.6c-2.4,1.5-4.9,3.1-7.4,4.7l-1.4-29.5l-2.4,0.1l1.5,31
	c-2.3,1.6-4.7,3.3-7,5.1l1.5,1.9c1.9-1.5,3.8-2.8,5.7-4.1l0.3,6.5l2.4-0.1l-0.4-8c2.4-1.6,4.8-3.2,7.2-4.7c0,3.8-0.2,7.6-0.4,11.3
	l2.4,0.2c0.3-4.3,0.4-8.6,0.5-13c0.2-0.1,0.4-0.3,0.6-0.4c2.8-1.7,5.5-3.4,8.2-5.2c0,0.4,0,0.8,0,1.3c-0.2,5.4-0.4,11-0.2,16.6
	l2.4-0.1c-0.3-5.5-0.1-11.1,0.2-16.4c0-1,0.1-2,0.1-3c2.8-1.9,5.5-3.9,8.2-6c0.3,9,0.4,18,0.3,26.9l2.4,0c0.1-9.6-0.1-19.3-0.4-28.9
	C69.4,115.5,72.1,112.9,74.8,109.8z"/>
<path class="st0" d="M135.6,109.8l-1.8-1.6c-2.1,2.4-4.2,4.6-6.4,6.6c-0.1-3-0.2-6.1-0.4-9.1l-2.4,0.1c0.2,3.7,0.3,7.3,0.5,11
	c-2.6,2.2-5.3,4.2-8,6.1c0.2-5.9,0.1-11.6-0.8-17.3l-2.4,0.4c1,6.1,0.9,12.2,0.7,18.6c-2.9,2-5.9,3.8-9,5.7
	c-0.1-7.9-0.7-15.8-1.7-23.4l-2.4,0.3c1.1,8,1.7,16.4,1.7,24.6c-2.4,1.5-4.9,3.1-7.4,4.7l-1.4-29.5l-2.4,0.1l1.5,31
	c-2.3,1.6-4.7,3.3-7,5.1l1.5,1.9c1.9-1.5,3.8-2.8,5.7-4.1l0.3,6.5l2.4-0.1l-0.4-8c2.4-1.6,4.8-3.2,7.2-4.7c0,3.8-0.2,7.6-0.4,11.3
	l2.4,0.2c0.3-4.3,0.4-8.6,0.5-13c0.2-0.1,0.4-0.3,0.6-0.4c2.8-1.7,5.5-3.4,8.2-5.2c0,0.4,0,0.8,0,1.3c-0.2,5.4-0.4,11-0.2,16.6
	l2.4-0.1c-0.3-5.5-0.1-11.1,0.2-16.4c0-1,0.1-2,0.1-3c2.8-1.9,5.5-3.9,8.2-6c0.3,9,0.4,18,0.3,26.9l2.4,0c0.1-9.6-0.1-19.3-0.4-28.9
	C130.2,115.5,132.9,112.9,135.6,109.8z"/>
<path class="st0" d="M196.4,109.8l-1.8-1.6c-2.1,2.4-4.2,4.6-6.4,6.6c-0.1-3-0.2-6.1-0.4-9.1l-2.4,0.1c0.2,3.7,0.3,7.3,0.5,11
	c-2.6,2.2-5.3,4.2-8,6.1c0.2-5.9,0.1-11.6-0.8-17.3l-2.4,0.4c1,6.1,0.9,12.2,0.7,18.6c-2.9,2-5.9,3.8-9,5.7
	c-0.1-7.9-0.7-15.8-1.7-23.4l-2.4,0.3c1.1,8,1.7,16.4,1.7,24.6c-2.4,1.5-4.9,3.1-7.4,4.7l-1.4-29.5l-2.4,0.1l1.5,31
	c-2.3,1.6-4.7,3.3-7,5.1l1.5,1.9c1.9-1.5,3.8-2.8,5.7-4.1l0.3,6.5l2.4-0.1l-0.4-8c2.4-1.6,4.8-3.2,7.2-4.7c0,3.8-0.2,7.6-0.4,11.3
	l2.4,0.2c0.3-4.3,0.4-8.6,0.5-13c0.2-0.1,0.4-0.3,0.6-0.4c2.8-1.7,5.5-3.4,8.2-5.2c0,0.4,0,0.8,0,1.3c-0.2,5.4-0.4,11-0.2,16.6
	l2.4-0.1c-0.3-5.5-0.1-11.1,0.2-16.4c0-1,0.1-2,0.1-3c2.8-1.9,5.5-3.9,8.2-6c0.3,9,0.4,18,0.3,26.9l2.4,0c0.1-9.6-0.1-19.3-0.4-28.9
	C191,115.5,193.8,112.9,196.4,109.8z"/>
<path class="st0" d="M257.2,109.8l-1.8-1.6c-2.1,2.4-4.2,4.6-6.4,6.6c-0.1-3-0.2-6.1-0.4-9.1l-2.4,0.1c0.2,3.7,0.3,7.3,0.5,11
	c-2.6,2.2-5.3,4.2-8,6.1c0.2-5.9,0.1-11.6-0.8-17.3l-2.4,0.4c1,6.1,0.9,12.2,0.7,18.6c-2.9,2-5.9,3.8-9,5.7
	c-0.1-7.9-0.7-15.8-1.7-23.4l-2.4,0.3c1.1,8,1.7,16.4,1.7,24.6c-2.4,1.5-4.9,3.1-7.4,4.7l-1.4-29.5l-2.4,0.1l1.5,31
	c-2.3,1.6-4.7,3.3-7,5.1l1.5,1.9c1.9-1.5,3.8-2.8,5.7-4.1l0.3,6.5l2.4-0.1l-0.4-8c2.4-1.6,4.8-3.2,7.2-4.7c0,3.8-0.2,7.6-0.4,11.3
	l2.4,0.2c0.3-4.3,0.4-8.6,0.5-13c0.2-0.1,0.4-0.3,0.6-0.4c2.8-1.7,5.5-3.4,8.2-5.2c0,0.4,0,0.8,0,1.3c-0.2,5.4-0.4,11-0.2,16.6
	l2.4-0.1c-0.3-5.5-0.1-11.1,0.2-16.4c0-1,0.1-2,0.1-3c2.8-1.9,5.5-3.9,8.2-6c0.3,9,0.4,18,0.3,26.9l2.4,0c0.1-9.6-0.1-19.3-0.4-28.9
	C251.9,115.5,254.6,112.9,257.2,109.8z"/>
<path class="st0" d="M318.1,109.8l-1.8-1.6c-2.1,2.4-4.2,4.6-6.4,6.6c-0.1-3-0.2-6.1-0.4-9.1l-2.4,0.1c0.2,3.7,0.3,7.3,0.5,11
	c-2.6,2.2-5.3,4.2-8,6.1c0.2-5.9,0.1-11.6-0.8-17.3l-2.4,0.4c1,6.1,0.9,12.2,0.7,18.6c-2.9,2-5.9,3.8-9,5.7
	c-0.1-7.9-0.7-15.8-1.7-23.4l-2.4,0.3c1.1,8,1.7,16.4,1.7,24.6c-2.4,1.5-4.9,3.1-7.4,4.7l-1.4-29.5l-2.4,0.1l1.5,31
	c-2.3,1.6-4.7,3.3-7,5.1l1.5,1.9c1.9-1.5,3.8-2.8,5.7-4.1l0.3,6.5l2.4-0.1l-0.4-8c2.4-1.6,4.8-3.2,7.2-4.7c0,3.8-0.2,7.6-0.4,11.3
	l2.4,0.2c0.3-4.3,0.4-8.6,0.5-13c0.2-0.1,0.4-0.3,0.6-0.4c2.8-1.7,5.5-3.4,8.2-5.2c0,0.4,0,0.8,0,1.3c-0.2,5.4-0.4,11-0.2,16.6
	l2.4-0.1c-0.3-5.5-0.1-11.1,0.2-16.4c0-1,0.1-2,0.1-3c2.8-1.9,5.5-3.9,8.2-6c0.3,9,0.4,18,0.3,26.9l2.4,0c0.1-9.6-0.1-19.3-0.4-28.9
	C312.7,115.5,315.4,112.9,318.1,109.8z"/>
<path class="st0" d="M378.9,109.8l-1.8-1.6c-2.1,2.4-4.2,4.6-6.4,6.6c-0.1-3-0.2-6.1-0.4-9.1l-2.4,0.1c0.2,3.7,0.3,7.3,0.5,11
	c-2.6,2.2-5.3,4.2-8,6.1c0.2-5.9,0.1-11.6-0.8-17.3l-2.4,0.4c1,6.1,0.9,12.2,0.7,18.6c-2.9,2-5.9,3.8-9,5.7
	c-0.1-7.9-0.7-15.8-1.7-23.4l-2.4,0.3c1.1,8,1.7,16.4,1.7,24.6c-2.4,1.5-4.9,3.1-7.4,4.7l-1.4-29.5l-2.4,0.1l1.5,31
	c-2.3,1.6-4.7,3.3-7,5.1l1.5,1.9c1.9-1.5,3.8-2.8,5.7-4.1l0.3,6.5l2.4-0.1l-0.4-8c2.4-1.6,4.8-3.2,7.2-4.7c0,3.8-0.2,7.6-0.4,11.3
	l2.4,0.2c0.3-4.3,0.4-8.6,0.5-13c0.2-0.1,0.4-0.3,0.6-0.4c2.8-1.7,5.5-3.4,8.2-5.2c0,0.4,0,0.8,0,1.3c-0.2,5.4-0.4,11-0.2,16.6
	l2.4-0.1c-0.3-5.5-0.1-11.1,0.2-16.4c0-1,0.1-2,0.1-3c2.8-1.9,5.5-3.9,8.2-6c0.3,9,0.4,18,0.3,26.9l2.4,0c0.1-9.6-0.1-19.3-0.4-28.9
	C373.5,115.5,376.2,112.9,378.9,109.8z"/>
<path class="st0" d="M439.7,109.8l-1.8-1.6c-2.1,2.4-4.2,4.6-6.4,6.6c-0.1-3-0.2-6.1-0.4-9.1l-2.4,0.1c0.2,3.7,0.3,7.3,0.5,11
	c-2.6,2.2-5.3,4.2-8,6.1c0.2-5.9,0.1-11.6-0.8-17.3l-2.4,0.4c1,6.1,0.9,12.2,0.7,18.6c-2.9,2-5.9,3.8-9,5.7
	c-0.1-7.9-0.7-15.8-1.7-23.4l-2.4,0.3c1.1,8,1.7,16.4,1.7,24.6c-2.4,1.5-4.9,3.1-7.4,4.7l-1.4-29.5l-2.4,0.1l1.5,31
	c-2.3,1.6-4.7,3.3-7,5.1l1.5,1.9c1.9-1.5,3.8-2.8,5.7-4.1l0.3,6.5l2.4-0.1l-0.4-8c2.4-1.6,4.8-3.2,7.2-4.7c0,3.8-0.2,7.6-0.4,11.3
	l2.4,0.2c0.3-4.3,0.4-8.6,0.5-13c0.2-0.1,0.4-0.3,0.6-0.4c2.8-1.7,5.5-3.4,8.2-5.2c0,0.4,0,0.8,0,1.3c-0.2,5.4-0.4,11-0.2,16.6
	l2.4-0.1c-0.3-5.5-0.1-11.1,0.2-16.4c0-1,0.1-2,0.1-3c2.8-1.9,5.5-3.9,8.2-6c0.3,9,0.4,18,0.3,26.9l2.4,0c0.1-9.6-0.1-19.3-0.4-28.9
	C434.3,115.5,437.1,112.9,439.7,109.8z"/>
<path class="st0" d="M500.5,109.8l-1.8-1.6c-2.1,2.4-4.2,4.6-6.4,6.6c-0.1-3-0.2-6.1-0.4-9.1l-2.4,0.1c0.2,3.7,0.3,7.3,0.5,11
	c-2.6,2.2-5.3,4.2-8,6.1c0.2-5.9,0.1-11.6-0.8-17.3l-2.4,0.4c1,6.1,0.9,12.2,0.7,18.6c-2.9,2-5.9,3.8-9,5.7
	c-0.1-7.9-0.7-15.8-1.7-23.4l-2.4,0.3c1.1,8,1.7,16.4,1.7,24.6c-2.4,1.5-4.9,3.1-7.4,4.7l-1.4-29.5l-2.4,0.1l1.5,31
	c-2.3,1.6-4.7,3.3-7,5.1l1.5,1.9c1.9-1.5,3.8-2.8,5.7-4.1l0.3,6.5l2.4-0.1l-0.4-8c2.4-1.6,4.8-3.2,7.2-4.7c0,3.8-0.2,7.6-0.4,11.3
	l2.4,0.2c0.3-4.3,0.4-8.6,0.5-13c0.2-0.1,0.4-0.3,0.6-0.4c2.8-1.7,5.5-3.4,8.2-5.2c0,0.4,0,0.8,0,1.3c-0.2,5.4-0.4,11-0.2,16.6
	l2.4-0.1c-0.3-5.5-0.1-11.1,0.2-16.4c0-1,0.1-2,0.1-3c2.8-1.9,5.5-3.9,8.2-6c0.3,9,0.4,18,0.3,26.9l2.4,0c0.1-9.6-0.1-19.3-0.4-28.9
	C495.2,115.5,497.9,112.9,500.5,109.8z"/>
<path class="st0" d="M561.4,109.8l-1.8-1.6c-2.1,2.4-4.2,4.6-6.4,6.6c-0.1-3-0.2-6.1-0.4-9.1l-2.4,0.1c0.2,3.7,0.3,7.3,0.5,11
	c-2.6,2.2-5.3,4.2-8,6.1c0.2-5.9,0.1-11.6-0.8-17.3l-2.4,0.4c1,6.1,0.9,12.2,0.7,18.6c-2.9,2-5.9,3.8-9,5.7
	c-0.1-7.9-0.7-15.8-1.7-23.4l-2.4,0.3c1.1,8,1.7,16.4,1.7,24.6c-2.4,1.5-4.9,3.1-7.4,4.7l-1.4-29.5l-2.4,0.1l1.5,31
	c-2.3,1.6-4.7,3.3-7,5.1l1.5,1.9c1.9-1.5,3.8-2.8,5.7-4.1l0.3,6.5l2.4-0.1l-0.4-8c2.4-1.6,4.8-3.2,7.2-4.7c0,3.8-0.2,7.6-0.4,11.3
	l2.4,0.2c0.3-4.3,0.4-8.6,0.5-13c0.2-0.1,0.4-0.3,0.6-0.4c2.8-1.7,5.5-3.4,8.2-5.2c0,0.4,0,0.8,0,1.3c-0.2,5.4-0.4,11-0.2,16.6
	l2.4-0.1c-0.3-5.5-0.1-11.1,0.2-16.4c0-1,0.1-2,0.1-3c2.8-1.9,5.5-3.9,8.2-6c0.3,9,0.4,18,0.3,26.9l2.4,0c0.1-9.6-0.1-19.3-0.4-28.9
	C556,115.5,558.7,112.9,561.4,109.8z"/>
<path class="st0" d="M622.2,109.8l-1.8-1.6c-2.1,2.4-4.2,4.6-6.4,6.6c-0.1-3-0.2-6.1-0.4-9.1l-2.4,0.1c0.2,3.7,0.3,7.3,0.5,11
	c-2.6,2.2-5.3,4.2-8,6.1c0.2-5.9,0.1-11.6-0.8-17.3l-2.4,0.4c1,6.1,0.9,12.2,0.7,18.6c-2.9,2-5.9,3.8-9,5.7
	c-0.1-7.9-0.7-15.8-1.7-23.4l-2.4,0.3c1.1,8,1.7,16.4,1.7,24.6c-2.4,1.5-4.9,3.1-7.4,4.7l-1.4-29.5l-2.4,0.1l1.5,31
	c-2.3,1.6-4.7,3.3-7,5.1l1.5,1.9c1.9-1.5,3.8-2.8,5.7-4.1l0.3,6.5l2.4-0.1l-0.4-8c2.4-1.6,4.8-3.2,7.2-4.7c0,3.8-0.2,7.6-0.4,11.3
	l2.4,0.2c0.3-4.3,0.4-8.6,0.5-13c0.2-0.1,0.4-0.3,0.6-0.4c2.8-1.7,5.5-3.4,8.2-5.2c0,0.4,0,0.8,0,1.3c-0.2,5.4-0.4,11-0.2,16.6
	l2.4-0.1c-0.3-5.5-0.1-11.1,0.2-16.4c0-1,0.1-2,0.1-3c2.8-1.9,5.5-3.9,8.2-6c0.3,9,0.4,18,0.3,26.9l2.4,0c0.1-9.6-0.1-19.3-0.4-28.9
	C616.8,115.5,619.5,112.9,622.2,109.8z"/>
<path class="st0" d="M701,109.8l-1.8-1.6c-2.1,2.4-4.2,4.6-6.4,6.6c-0.1-3-0.2-6.1-0.4-9.1l-2.4,0.1c0.2,3.7,0.3,7.3,0.5,11
	c-2.6,2.2-5.3,4.2-8,6.1c0.2-5.9,0.1-11.6-0.8-17.3l-2.4,0.4c1,6.1,0.9,12.2,0.7,18.6c-2.9,2-5.9,3.8-9,5.7
	c-0.1-7.9-0.7-15.8-1.7-23.4l-2.4,0.3c1.1,8,1.7,16.4,1.7,24.6c-2.4,1.5-4.9,3.1-7.4,4.7l-1.4-29.5l-2.4,0.1l1.5,31
	c-2.3,1.6-4.7,3.3-7,5.1l1.5,1.9c1.9-1.5,3.8-2.8,5.7-4.1l0.3,6.5l2.4-0.1l-0.4-8c2.4-1.6,4.8-3.2,7.2-4.7c0,3.8-0.2,7.6-0.4,11.3
	l2.4,0.2c0.3-4.3,0.4-8.6,0.5-13c0.2-0.1,0.4-0.3,0.6-0.4c2.8-1.7,5.5-3.4,8.2-5.2c0,0.4,0,0.8,0,1.3c-0.2,5.4-0.4,11-0.2,16.6
	l2.4-0.1c-0.3-5.5-0.1-11.1,0.2-16.4c0-1,0.1-2,0.1-3c2.8-1.9,5.5-3.9,8.2-6c0.3,9,0.4,18,0.3,26.9l2.4,0c0.1-9.6-0.1-19.3-0.4-28.9
	C695.6,115.5,698.4,112.9,701,109.8z"/>
<path class="st0" d="M761.8,109.8l-1.8-1.6c-2.1,2.4-4.2,4.6-6.4,6.6c-0.1-3-0.2-6.1-0.4-9.1l-2.4,0.1c0.2,3.7,0.3,7.3,0.5,11
	c-2.6,2.2-5.3,4.2-8,6.1c0.2-5.9,0.1-11.6-0.8-17.3L740,106c1,6.1,0.9,12.2,0.7,18.6c-2.9,2-5.9,3.8-9,5.7
	c-0.1-7.9-0.7-15.8-1.7-23.4l-2.4,0.3c1.1,8,1.7,16.4,1.7,24.6c-2.4,1.5-4.9,3.1-7.4,4.7l-1.4-29.5l-2.4,0.1l1.5,31
	c-2.3,1.6-4.7,3.3-7,5.1l1.5,1.9c1.9-1.5,3.8-2.8,5.7-4.1l0.3,6.5l2.4-0.1l-0.4-8c2.4-1.6,4.8-3.2,7.2-4.7c0,3.8-0.2,7.6-0.4,11.3
	l2.4,0.2c0.3-4.3,0.4-8.6,0.5-13c0.2-0.1,0.4-0.3,0.6-0.4c2.8-1.7,5.5-3.4,8.2-5.2c0,0.4,0,0.8,0,1.3c-0.2,5.4-0.4,11-0.2,16.6
	l2.4-0.1c-0.3-5.5-0.1-11.1,0.2-16.4c0-1,0.1-2,0.1-3c2.8-1.9,5.5-3.9,8.2-6c0.3,9,0.4,18,0.3,26.9l2.4,0c0.1-9.6-0.1-19.3-0.4-28.9
	C756.5,115.5,759.2,112.9,761.8,109.8z"/>
<path class="st0" d="M822.7,109.8l-1.8-1.6c-2.1,2.4-4.2,4.6-6.4,6.6c-0.1-3-0.2-6.1-0.4-9.1l-2.4,0.1c0.2,3.7,0.3,7.3,0.5,11
	c-2.6,2.2-5.3,4.2-8,6.1c0.2-5.9,0.1-11.6-0.8-17.3l-2.4,0.4c1,6.1,0.9,12.2,0.7,18.6c-2.9,2-5.9,3.8-9,5.7
	c-0.1-7.9-0.7-15.8-1.7-23.4l-2.4,0.3c1.1,8,1.7,16.4,1.7,24.6c-2.4,1.5-4.9,3.1-7.4,4.7l-1.4-29.5l-2.4,0.1l1.5,31
	c-2.3,1.6-4.7,3.3-7,5.1l1.5,1.9c1.9-1.5,3.8-2.8,5.7-4.1l0.3,6.5l2.4-0.1l-0.4-8c2.4-1.6,4.8-3.2,7.2-4.7c0,3.8-0.2,7.6-0.4,11.3
	l2.4,0.2c0.3-4.3,0.4-8.6,0.5-13c0.2-0.1,0.4-0.3,0.6-0.4c2.8-1.7,5.5-3.4,8.2-5.2c0,0.4,0,0.8,0,1.3c-0.2,5.4-0.4,11-0.2,16.6
	l2.4-0.1c-0.3-5.5-0.1-11.1,0.2-16.4c0-1,0.1-2,0.1-3c2.8-1.9,5.5-3.9,8.2-6c0.3,9,0.4,18,0.3,26.9l2.4,0c0.1-9.6-0.1-19.3-0.4-28.9
	C817.3,115.5,820,112.9,822.7,109.8z"/>
<path class="st0" d="M883.5,109.8l-1.8-1.6c-2.1,2.4-4.2,4.6-6.4,6.6c-0.1-3-0.2-6.1-0.4-9.1l-2.4,0.1c0.2,3.7,0.3,7.3,0.5,11
	c-2.6,2.2-5.3,4.2-8,6.1c0.2-5.9,0.1-11.6-0.8-17.3l-2.4,0.4c1,6.1,0.9,12.2,0.7,18.6c-2.9,2-5.9,3.8-9,5.7
	c-0.1-7.9-0.7-15.8-1.7-23.4l-2.4,0.3c1.1,8,1.7,16.4,1.7,24.6c-2.4,1.5-4.9,3.1-7.4,4.7l-1.4-29.5l-2.4,0.1l1.5,31
	c-2.3,1.6-4.7,3.3-7,5.1l1.5,1.9c1.9-1.5,3.8-2.8,5.7-4.1l0.3,6.5l2.4-0.1l-0.4-8c2.4-1.6,4.8-3.2,7.2-4.7c0,3.8-0.2,7.6-0.4,11.3
	l2.4,0.2c0.3-4.3,0.4-8.6,0.5-13c0.2-0.1,0.4-0.3,0.6-0.4c2.8-1.7,5.5-3.4,8.2-5.2c0,0.4,0,0.8,0,1.3c-0.2,5.4-0.4,11-0.2,16.6
	l2.4-0.1c-0.3-5.5-0.1-11.1,0.2-16.4c0-1,0.1-2,0.1-3c2.8-1.9,5.5-3.9,8.2-6c0.3,9,0.4,18,0.3,26.9l2.4,0c0.1-9.6-0.1-19.3-0.4-28.9
	C878.1,115.5,880.8,112.9,883.5,109.8z"/>
<path class="st0" d="M944.3,109.8l-1.8-1.6c-2.1,2.4-4.2,4.6-6.4,6.6c-0.1-3-0.2-6.1-0.4-9.1l-2.4,0.1c0.2,3.7,0.3,7.3,0.5,11
	c-2.6,2.2-5.3,4.2-8,6.1c0.2-5.9,0.1-11.6-0.8-17.3l-2.4,0.4c1,6.1,0.9,12.2,0.7,18.6c-2.9,2-5.9,3.8-9,5.7
	c-0.1-7.9-0.7-15.8-1.7-23.4l-2.4,0.3c1.1,8,1.7,16.4,1.7,24.6c-2.4,1.5-4.9,3.1-7.4,4.7l-1.4-29.5l-2.4,0.1l1.5,31
	c-2.3,1.6-4.7,3.3-7,5.1l1.5,1.9c1.9-1.5,3.8-2.8,5.7-4.1l0.3,6.5l2.4-0.1l-0.4-8c2.4-1.6,4.8-3.2,7.2-4.7c0,3.8-0.2,7.6-0.4,11.3
	l2.4,0.2c0.3-4.3,0.4-8.6,0.5-13c0.2-0.1,0.4-0.3,0.6-0.4c2.8-1.7,5.5-3.4,8.2-5.2c0,0.4,0,0.8,0,1.3c-0.2,5.4-0.4,11-0.2,16.6
	l2.4-0.1c-0.3-5.5-0.1-11.1,0.2-16.4c0-1,0.1-2,0.1-3c2.8-1.9,5.5-3.9,8.2-6c0.3,9,0.4,18,0.3,26.9l2.4,0c0.1-9.6-0.1-19.3-0.4-28.9
	C938.9,115.5,941.7,112.9,944.3,109.8z"/>
<path class="st0" d="M1005.1,109.8l-1.8-1.6c-2.1,2.4-4.2,4.6-6.4,6.6c-0.1-3-0.2-6.1-0.4-9.1l-2.4,0.1c0.2,3.7,0.3,7.3,0.5,11
	c-2.6,2.2-5.3,4.2-8,6.1c0.2-5.9,0.1-11.6-0.8-17.3l-2.4,0.4c1,6.1,0.9,12.2,0.7,18.6c-2.9,2-5.9,3.8-9,5.7
	c-0.1-7.9-0.7-15.8-1.7-23.4l-2.4,0.3c1.1,8,1.7,16.4,1.7,24.6c-2.4,1.5-4.9,3.1-7.4,4.7l-1.4-29.5l-2.4,0.1l1.5,31
	c-2.3,1.6-4.7,3.3-7,5.1l1.5,1.9c1.9-1.5,3.8-2.8,5.7-4.1l0.3,6.5l2.4-0.1l-0.4-8c2.4-1.6,4.8-3.2,7.2-4.7c0,3.8-0.2,7.6-0.4,11.3
	l2.4,0.2c0.3-4.3,0.4-8.6,0.5-13c0.2-0.1,0.4-0.3,0.6-0.4c2.8-1.7,5.5-3.4,8.2-5.2c0,0.4,0,0.8,0,1.3c-0.2,5.4-0.4,11-0.2,16.6
	l2.4-0.1c-0.3-5.5-0.1-11.1,0.2-16.4c0-1,0.1-2,0.1-3c2.8-1.9,5.5-3.9,8.2-6c0.3,9,0.4,18,0.3,26.9l2.4,0c0.1-9.6-0.1-19.3-0.4-28.9
	C999.7,115.5,1002.5,112.9,1005.1,109.8z"/>
<path class="st0" d="M1065.9,109.8l-1.8-1.6c-2.1,2.4-4.2,4.6-6.4,6.6c-0.1-3-0.2-6.1-0.4-9.1l-2.4,0.1c0.2,3.7,0.3,7.3,0.5,11
	c-2.6,2.2-5.3,4.2-8,6.1c0.2-5.9,0.1-11.6-0.8-17.3l-2.4,0.4c1,6.1,0.9,12.2,0.7,18.6c-2.9,2-5.9,3.8-9,5.7
	c-0.1-7.9-0.7-15.8-1.7-23.4l-2.4,0.3c1.1,8,1.7,16.4,1.7,24.6c-2.4,1.5-4.9,3.1-7.4,4.7l-1.4-29.5l-2.4,0.1l1.5,31
	c-2.3,1.6-4.7,3.3-7,5.1l1.5,1.9c1.9-1.5,3.8-2.8,5.7-4.1l0.3,6.5l2.4-0.1l-0.4-8c2.4-1.6,4.8-3.2,7.2-4.7c0,3.8-0.2,7.6-0.4,11.3
	l2.4,0.2c0.3-4.3,0.4-8.6,0.5-13c0.2-0.1,0.4-0.3,0.6-0.4c2.8-1.7,5.5-3.4,8.2-5.2c0,0.4,0,0.8,0,1.3c-0.2,5.4-0.4,11-0.2,16.6
	l2.4-0.1c-0.3-5.5-0.1-11.1,0.2-16.4c0-1,0.1-2,0.1-3c2.8-1.9,5.5-3.9,8.2-6c0.3,9,0.4,18,0.3,26.9l2.4,0c0.1-9.6-0.1-19.3-0.4-28.9
	C1060.6,115.5,1063.3,112.9,1065.9,109.8z"/>
<path class="st0" d="M1126.8,109.8l-1.8-1.6c-2.1,2.4-4.2,4.6-6.4,6.6c-0.1-3-0.2-6.1-0.4-9.1l-2.4,0.1c0.2,3.7,0.3,7.3,0.5,11
	c-2.6,2.2-5.3,4.2-8,6.1c0.2-5.9,0.1-11.6-0.8-17.3l-2.4,0.4c1,6.1,0.9,12.2,0.7,18.6c-2.9,2-5.9,3.8-9,5.7
	c-0.1-7.9-0.7-15.8-1.7-23.4l-2.4,0.3c1.1,8,1.7,16.4,1.7,24.6c-2.4,1.5-4.9,3.1-7.4,4.7l-1.4-29.5l-2.4,0.1l1.5,31
	c-2.3,1.6-4.7,3.3-7,5.1l1.5,1.9c1.9-1.5,3.8-2.8,5.7-4.1l0.3,6.5l2.4-0.1l-0.4-8c2.4-1.6,4.8-3.2,7.2-4.7c0,3.8-0.2,7.6-0.4,11.3
	l2.4,0.2c0.3-4.3,0.4-8.6,0.5-13c0.2-0.1,0.4-0.3,0.6-0.4c2.8-1.7,5.5-3.4,8.2-5.2c0,0.4,0,0.8,0,1.3c-0.2,5.4-0.4,11-0.2,16.6
	l2.4-0.1c-0.3-5.5-0.1-11.1,0.2-16.4c0-1,0.1-2,0.1-3c2.8-1.9,5.5-3.9,8.2-6c0.3,9,0.4,18,0.3,26.9l2.4,0c0.1-9.6-0.1-19.3-0.4-28.9
	C1121.4,115.5,1124.1,112.9,1126.8,109.8z"/>
<path class="st0" d="M1187.6,109.8l-1.8-1.6c-2.1,2.4-4.2,4.6-6.4,6.6c-0.1-3-0.2-6.1-0.4-9.1l-2.4,0.1c0.2,3.7,0.3,7.3,0.5,11
	c-2.6,2.2-5.3,4.2-8,6.1c0.2-5.9,0.1-11.6-0.8-17.3l-2.4,0.4c1,6.1,0.9,12.2,0.7,18.6c-2.9,2-5.9,3.8-9,5.7
	c-0.1-7.9-0.7-15.8-1.7-23.4l-2.4,0.3c1.1,8,1.7,16.4,1.7,24.6c-2.4,1.5-4.9,3.1-7.4,4.7l-1.4-29.5l-2.4,0.1l1.5,31
	c-2.3,1.6-4.7,3.3-7,5.1l1.5,1.9c1.9-1.5,3.8-2.8,5.7-4.1l0.3,6.5l2.4-0.1l-0.4-8c2.4-1.6,4.8-3.2,7.2-4.7c0,3.8-0.2,7.6-0.4,11.3
	l2.4,0.2c0.3-4.3,0.4-8.6,0.5-13c0.2-0.1,0.4-0.3,0.6-0.4c2.8-1.7,5.5-3.4,8.2-5.2c0,0.4,0,0.8,0,1.3c-0.2,5.4-0.4,11-0.2,16.6
	l2.4-0.1c-0.3-5.5-0.1-11.1,0.2-16.4c0-1,0.1-2,0.1-3c2.8-1.9,5.5-3.9,8.2-6c0.3,9,0.4,18,0.3,26.9l2.4,0c0.1-9.6-0.1-19.3-0.4-28.9
	C1182.2,115.5,1184.9,112.9,1187.6,109.8z"/>
<path class="st0" d="M1248.4,109.8l-1.8-1.6c-2.1,2.4-4.2,4.6-6.4,6.6c-0.1-3-0.2-6.1-0.4-9.1l-2.4,0.1c0.2,3.7,0.3,7.3,0.5,11
	c-2.6,2.2-5.3,4.2-8,6.1c0.2-5.9,0.1-11.6-0.8-17.3l-2.4,0.4c1,6.1,0.9,12.2,0.7,18.6c-2.9,2-5.9,3.8-9,5.7
	c-0.1-7.9-0.7-15.8-1.7-23.4l-2.4,0.3c1.1,8,1.7,16.4,1.7,24.6c-2.4,1.5-4.9,3.1-7.4,4.7l-1.4-29.5l-2.4,0.1l1.5,31
	c-2.3,1.6-4.7,3.3-7,5.1l1.5,1.9c1.9-1.5,3.8-2.8,5.7-4.1l0.3,6.5l2.4-0.1l-0.4-8c2.4-1.6,4.8-3.2,7.2-4.7c0,3.8-0.2,7.6-0.4,11.3
	l2.4,0.2c0.3-4.3,0.4-8.6,0.5-13c0.2-0.1,0.4-0.3,0.6-0.4c2.8-1.7,5.5-3.4,8.2-5.2c0,0.4,0,0.8,0,1.3c-0.2,5.4-0.4,11-0.2,16.6
	l2.4-0.1c-0.3-5.5-0.1-11.1,0.2-16.4c0-1,0.1-2,0.1-3c2.8-1.9,5.5-3.9,8.2-6c0.3,9,0.4,18,0.3,26.9l2.4,0c0.1-9.6-0.1-19.3-0.4-28.9
	C1243,115.5,1245.8,112.9,1248.4,109.8z"/>
<path class="st0" d="M74.8,195l-1.8-1.6c-2.1,2.4-4.2,4.6-6.4,6.6c-0.1-3-0.2-6.1-0.4-9.1l-2.4,0.1c0.2,3.7,0.3,7.3,0.5,11
	c-2.6,2.2-5.3,4.2-8,6.1c0.2-5.9,0.1-11.6-0.8-17.3l-2.4,0.4c1,6.1,0.9,12.2,0.7,18.6c-2.9,2-5.9,3.8-9,5.7
	c-0.1-7.9-0.7-15.8-1.7-23.4l-2.4,0.3c1.1,8,1.7,16.4,1.7,24.6c-2.4,1.5-4.9,3.1-7.4,4.7l-1.4-29.5l-2.4,0.1l1.5,31
	c-2.3,1.6-4.7,3.3-7,5.1l1.5,1.9c1.9-1.5,3.8-2.8,5.7-4.1l0.3,6.5l2.4-0.1l-0.4-8c2.4-1.6,4.8-3.2,7.2-4.7c0,3.8-0.2,7.6-0.4,11.3
	l2.4,0.2c0.3-4.3,0.4-8.6,0.5-13c0.2-0.1,0.4-0.3,0.6-0.4c2.8-1.7,5.5-3.4,8.2-5.2c0,0.4,0,0.8,0,1.3c-0.2,5.4-0.4,11-0.2,16.6
	l2.4-0.1c-0.3-5.5-0.1-11.1,0.2-16.4c0-1,0.1-2,0.1-3c2.8-1.9,5.5-3.9,8.2-6c0.3,9,0.4,18,0.3,26.9l2.4,0c0.1-9.6-0.1-19.3-0.4-28.9
	C69.4,200.7,72.1,198,74.8,195z"/>
<path class="st0" d="M135.6,195l-1.8-1.6c-2.1,2.4-4.2,4.6-6.4,6.6c-0.1-3-0.2-6.1-0.4-9.1l-2.4,0.1c0.2,3.7,0.3,7.3,0.5,11
	c-2.6,2.2-5.3,4.2-8,6.1c0.2-5.9,0.1-11.6-0.8-17.3l-2.4,0.4c1,6.1,0.9,12.2,0.7,18.6c-2.9,2-5.9,3.8-9,5.7
	c-0.1-7.9-0.7-15.8-1.7-23.4l-2.4,0.3c1.1,8,1.7,16.4,1.7,24.6c-2.4,1.5-4.9,3.1-7.4,4.7l-1.4-29.5l-2.4,0.1l1.5,31
	c-2.3,1.6-4.7,3.3-7,5.1l1.5,1.9c1.9-1.5,3.8-2.8,5.7-4.1l0.3,6.5l2.4-0.1l-0.4-8c2.4-1.6,4.8-3.2,7.2-4.7c0,3.8-0.2,7.6-0.4,11.3
	l2.4,0.2c0.3-4.3,0.4-8.6,0.5-13c0.2-0.1,0.4-0.3,0.6-0.4c2.8-1.7,5.5-3.4,8.2-5.2c0,0.4,0,0.8,0,1.3c-0.2,5.4-0.4,11-0.2,16.6
	l2.4-0.1c-0.3-5.5-0.1-11.1,0.2-16.4c0-1,0.1-2,0.1-3c2.8-1.9,5.5-3.9,8.2-6c0.3,9,0.4,18,0.3,26.9l2.4,0c0.1-9.6-0.1-19.3-0.4-28.9
	C130.2,200.7,132.9,198,135.6,195z"/>
<path class="st0" d="M196.4,195l-1.8-1.6c-2.1,2.4-4.2,4.6-6.4,6.6c-0.1-3-0.2-6.1-0.4-9.1l-2.4,0.1c0.2,3.7,0.3,7.3,0.5,11
	c-2.6,2.2-5.3,4.2-8,6.1c0.2-5.9,0.1-11.6-0.8-17.3l-2.4,0.4c1,6.1,0.9,12.2,0.7,18.6c-2.9,2-5.9,3.8-9,5.7
	c-0.1-7.9-0.7-15.8-1.7-23.4l-2.4,0.3c1.1,8,1.7,16.4,1.7,24.6c-2.4,1.5-4.9,3.1-7.4,4.7l-1.4-29.5l-2.4,0.1l1.5,31
	c-2.3,1.6-4.7,3.3-7,5.1l1.5,1.9c1.9-1.5,3.8-2.8,5.7-4.1l0.3,6.5l2.4-0.1l-0.4-8c2.4-1.6,4.8-3.2,7.2-4.7c0,3.8-0.2,7.6-0.4,11.3
	l2.4,0.2c0.3-4.3,0.4-8.6,0.5-13c0.2-0.1,0.4-0.3,0.6-0.4c2.8-1.7,5.5-3.4,8.2-5.2c0,0.4,0,0.8,0,1.3c-0.2,5.4-0.4,11-0.2,16.6
	l2.4-0.1c-0.3-5.5-0.1-11.1,0.2-16.4c0-1,0.1-2,0.1-3c2.8-1.9,5.5-3.9,8.2-6c0.3,9,0.4,18,0.3,26.9l2.4,0c0.1-9.6-0.1-19.3-0.4-28.9
	C191,200.7,193.8,198,196.4,195z"/>
<path class="st0" d="M257.2,195l-1.8-1.6c-2.1,2.4-4.2,4.6-6.4,6.6c-0.1-3-0.2-6.1-0.4-9.1l-2.4,0.1c0.2,3.7,0.3,7.3,0.5,11
	c-2.6,2.2-5.3,4.2-8,6.1c0.2-5.9,0.1-11.6-0.8-17.3l-2.4,0.4c1,6.1,0.9,12.2,0.7,18.6c-2.9,2-5.9,3.8-9,5.7
	c-0.1-7.9-0.7-15.8-1.7-23.4l-2.4,0.3c1.1,8,1.7,16.4,1.7,24.6c-2.4,1.5-4.9,3.1-7.4,4.7l-1.4-29.5l-2.4,0.1l1.5,31
	c-2.3,1.6-4.7,3.3-7,5.1l1.5,1.9c1.9-1.5,3.8-2.8,5.7-4.1l0.3,6.5l2.4-0.1l-0.4-8c2.4-1.6,4.8-3.2,7.2-4.7c0,3.8-0.2,7.6-0.4,11.3
	l2.4,0.2c0.3-4.3,0.4-8.6,0.5-13c0.2-0.1,0.4-0.3,0.6-0.4c2.8-1.7,5.5-3.4,8.2-5.2c0,0.4,0,0.8,0,1.3c-0.2,5.4-0.4,11-0.2,16.6
	l2.4-0.1c-0.3-5.5-0.1-11.1,0.2-16.4c0-1,0.1-2,0.1-3c2.8-1.9,5.5-3.9,8.2-6c0.3,9,0.4,18,0.3,26.9l2.4,0c0.1-9.6-0.1-19.3-0.4-28.9
	C251.9,200.7,254.6,198,257.2,195z"/>
<path class="st0" d="M318.1,195l-1.8-1.6c-2.1,2.4-4.2,4.6-6.4,6.6c-0.1-3-0.2-6.1-0.4-9.1L307,191c0.2,3.7,0.3,7.3,0.5,11
	c-2.6,2.2-5.3,4.2-8,6.1c0.2-5.9,0.1-11.6-0.8-17.3l-2.4,0.4c1,6.1,0.9,12.2,0.7,18.6c-2.9,2-5.9,3.8-9,5.7
	c-0.1-7.9-0.7-15.8-1.7-23.4l-2.4,0.3c1.1,8,1.7,16.4,1.7,24.6c-2.4,1.5-4.9,3.1-7.4,4.7l-1.4-29.5l-2.4,0.1l1.5,31
	c-2.3,1.6-4.7,3.3-7,5.1l1.5,1.9c1.9-1.5,3.8-2.8,5.7-4.1l0.3,6.5l2.4-0.1l-0.4-8c2.4-1.6,4.8-3.2,7.2-4.7c0,3.8-0.2,7.6-0.4,11.3
	l2.4,0.2c0.3-4.3,0.4-8.6,0.5-13c0.2-0.1,0.4-0.3,0.6-0.4c2.8-1.7,5.5-3.4,8.2-5.2c0,0.4,0,0.8,0,1.3c-0.2,5.4-0.4,11-0.2,16.6
	l2.4-0.1c-0.3-5.5-0.1-11.1,0.2-16.4c0-1,0.1-2,0.1-3c2.8-1.9,5.5-3.9,8.2-6c0.3,9,0.4,18,0.3,26.9l2.4,0c0.1-9.6-0.1-19.3-0.4-28.9
	C312.7,200.7,315.4,198,318.1,195z"/>
<path class="st0" d="M378.9,195l-1.8-1.6c-2.1,2.4-4.2,4.6-6.4,6.6c-0.1-3-0.2-6.1-0.4-9.1l-2.4,0.1c0.2,3.7,0.3,7.3,0.5,11
	c-2.6,2.2-5.3,4.2-8,6.1c0.2-5.9,0.1-11.6-0.8-17.3l-2.4,0.4c1,6.1,0.9,12.2,0.7,18.6c-2.9,2-5.9,3.8-9,5.7
	c-0.1-7.9-0.7-15.8-1.7-23.4l-2.4,0.3c1.1,8,1.7,16.4,1.7,24.6c-2.4,1.5-4.9,3.1-7.4,4.7l-1.4-29.5l-2.4,0.1l1.5,31
	c-2.3,1.6-4.7,3.3-7,5.1l1.5,1.9c1.9-1.5,3.8-2.8,5.7-4.1l0.3,6.5l2.4-0.1l-0.4-8c2.4-1.6,4.8-3.2,7.2-4.7c0,3.8-0.2,7.6-0.4,11.3
	l2.4,0.2c0.3-4.3,0.4-8.6,0.5-13c0.2-0.1,0.4-0.3,0.6-0.4c2.8-1.7,5.5-3.4,8.2-5.2c0,0.4,0,0.8,0,1.3c-0.2,5.4-0.4,11-0.2,16.6
	l2.4-0.1c-0.3-5.5-0.1-11.1,0.2-16.4c0-1,0.1-2,0.1-3c2.8-1.9,5.5-3.9,8.2-6c0.3,9,0.4,18,0.3,26.9l2.4,0c0.1-9.6-0.1-19.3-0.4-28.9
	C373.5,200.7,376.2,198,378.9,195z"/>
<path class="st0" d="M439.7,195l-1.8-1.6c-2.1,2.4-4.2,4.6-6.4,6.6c-0.1-3-0.2-6.1-0.4-9.1l-2.4,0.1c0.2,3.7,0.3,7.3,0.5,11
	c-2.6,2.2-5.3,4.2-8,6.1c0.2-5.9,0.1-11.6-0.8-17.3l-2.4,0.4c1,6.1,0.9,12.2,0.7,18.6c-2.9,2-5.9,3.8-9,5.7
	c-0.1-7.9-0.7-15.8-1.7-23.4l-2.4,0.3c1.1,8,1.7,16.4,1.7,24.6c-2.4,1.5-4.9,3.1-7.4,4.7l-1.4-29.5l-2.4,0.1l1.5,31
	c-2.3,1.6-4.7,3.3-7,5.1l1.5,1.9c1.9-1.5,3.8-2.8,5.7-4.1l0.3,6.5l2.4-0.1l-0.4-8c2.4-1.6,4.8-3.2,7.2-4.7c0,3.8-0.2,7.6-0.4,11.3
	l2.4,0.2c0.3-4.3,0.4-8.6,0.5-13c0.2-0.1,0.4-0.3,0.6-0.4c2.8-1.7,5.5-3.4,8.2-5.2c0,0.4,0,0.8,0,1.3c-0.2,5.4-0.4,11-0.2,16.6
	l2.4-0.1c-0.3-5.5-0.1-11.1,0.2-16.4c0-1,0.1-2,0.1-3c2.8-1.9,5.5-3.9,8.2-6c0.3,9,0.4,18,0.3,26.9l2.4,0c0.1-9.6-0.1-19.3-0.4-28.9
	C434.3,200.7,437.1,198,439.7,195z"/>
<path class="st0" d="M500.5,195l-1.8-1.6c-2.1,2.4-4.2,4.6-6.4,6.6c-0.1-3-0.2-6.1-0.4-9.1l-2.4,0.1c0.2,3.7,0.3,7.3,0.5,11
	c-2.6,2.2-5.3,4.2-8,6.1c0.2-5.9,0.1-11.6-0.8-17.3l-2.4,0.4c1,6.1,0.9,12.2,0.7,18.6c-2.9,2-5.9,3.8-9,5.7
	c-0.1-7.9-0.7-15.8-1.7-23.4l-2.4,0.3c1.1,8,1.7,16.4,1.7,24.6c-2.4,1.5-4.9,3.1-7.4,4.7l-1.4-29.5l-2.4,0.1l1.5,31
	c-2.3,1.6-4.7,3.3-7,5.1l1.5,1.9c1.9-1.5,3.8-2.8,5.7-4.1l0.3,6.5l2.4-0.1l-0.4-8c2.4-1.6,4.8-3.2,7.2-4.7c0,3.8-0.2,7.6-0.4,11.3
	l2.4,0.2c0.3-4.3,0.4-8.6,0.5-13c0.2-0.1,0.4-0.3,0.6-0.4c2.8-1.7,5.5-3.4,8.2-5.2c0,0.4,0,0.8,0,1.3c-0.2,5.4-0.4,11-0.2,16.6
	l2.4-0.1c-0.3-5.5-0.1-11.1,0.2-16.4c0-1,0.1-2,0.1-3c2.8-1.9,5.5-3.9,8.2-6c0.3,9,0.4,18,0.3,26.9l2.4,0c0.1-9.6-0.1-19.3-0.4-28.9
	C495.2,200.7,497.9,198,500.5,195z"/>
<path class="st0" d="M561.4,195l-1.8-1.6c-2.1,2.4-4.2,4.6-6.4,6.6c-0.1-3-0.2-6.1-0.4-9.1l-2.4,0.1c0.2,3.7,0.3,7.3,0.5,11
	c-2.6,2.2-5.3,4.2-8,6.1c0.2-5.9,0.1-11.6-0.8-17.3l-2.4,0.4c1,6.1,0.9,12.2,0.7,18.6c-2.9,2-5.9,3.8-9,5.7
	c-0.1-7.9-0.7-15.8-1.7-23.4l-2.4,0.3c1.1,8,1.7,16.4,1.7,24.6c-2.4,1.5-4.9,3.1-7.4,4.7l-1.4-29.5l-2.4,0.1l1.5,31
	c-2.3,1.6-4.7,3.3-7,5.1l1.5,1.9c1.9-1.5,3.8-2.8,5.7-4.1l0.3,6.5l2.4-0.1l-0.4-8c2.4-1.6,4.8-3.2,7.2-4.7c0,3.8-0.2,7.6-0.4,11.3
	l2.4,0.2c0.3-4.3,0.4-8.6,0.5-13c0.2-0.1,0.4-0.3,0.6-0.4c2.8-1.7,5.5-3.4,8.2-5.2c0,0.4,0,0.8,0,1.3c-0.2,5.4-0.4,11-0.2,16.6
	l2.4-0.1c-0.3-5.5-0.1-11.1,0.2-16.4c0-1,0.1-2,0.1-3c2.8-1.9,5.5-3.9,8.2-6c0.3,9,0.4,18,0.3,26.9l2.4,0c0.1-9.6-0.1-19.3-0.4-28.9
	C556,200.7,558.7,198,561.4,195z"/>
<path class="st0" d="M622.2,195l-1.8-1.6c-2.1,2.4-4.2,4.6-6.4,6.6c-0.1-3-0.2-6.1-0.4-9.1l-2.4,0.1c0.2,3.7,0.3,7.3,0.5,11
	c-2.6,2.2-5.3,4.2-8,6.1c0.2-5.9,0.1-11.6-0.8-17.3l-2.4,0.4c1,6.1,0.9,12.2,0.7,18.6c-2.9,2-5.9,3.8-9,5.7
	c-0.1-7.9-0.7-15.8-1.7-23.4l-2.4,0.3c1.1,8,1.7,16.4,1.7,24.6c-2.4,1.5-4.9,3.1-7.4,4.7l-1.4-29.5l-2.4,0.1l1.5,31
	c-2.3,1.6-4.7,3.3-7,5.1l1.5,1.9c1.9-1.5,3.8-2.8,5.7-4.1l0.3,6.5l2.4-0.1l-0.4-8c2.4-1.6,4.8-3.2,7.2-4.7c0,3.8-0.2,7.6-0.4,11.3
	l2.4,0.2c0.3-4.3,0.4-8.6,0.5-13c0.2-0.1,0.4-0.3,0.6-0.4c2.8-1.7,5.5-3.4,8.2-5.2c0,0.4,0,0.8,0,1.3c-0.2,5.4-0.4,11-0.2,16.6
	l2.4-0.1c-0.3-5.5-0.1-11.1,0.2-16.4c0-1,0.1-2,0.1-3c2.8-1.9,5.5-3.9,8.2-6c0.3,9,0.4,18,0.3,26.9l2.4,0c0.1-9.6-0.1-19.3-0.4-28.9
	C616.8,200.7,619.5,198,622.2,195z"/>
<path class="st0" d="M701,195l-1.8-1.6c-2.1,2.4-4.2,4.6-6.4,6.6c-0.1-3-0.2-6.1-0.4-9.1l-2.4,0.1c0.2,3.7,0.3,7.3,0.5,11
	c-2.6,2.2-5.3,4.2-8,6.1c0.2-5.9,0.1-11.6-0.8-17.3l-2.4,0.4c1,6.1,0.9,12.2,0.7,18.6c-2.9,2-5.9,3.8-9,5.7
	c-0.1-7.9-0.7-15.8-1.7-23.4l-2.4,0.3c1.1,8,1.7,16.4,1.7,24.6c-2.4,1.5-4.9,3.1-7.4,4.7l-1.4-29.5l-2.4,0.1l1.5,31
	c-2.3,1.6-4.7,3.3-7,5.1l1.5,1.9c1.9-1.5,3.8-2.8,5.7-4.1l0.3,6.5l2.4-0.1l-0.4-8c2.4-1.6,4.8-3.2,7.2-4.7c0,3.8-0.2,7.6-0.4,11.3
	l2.4,0.2c0.3-4.3,0.4-8.6,0.5-13c0.2-0.1,0.4-0.3,0.6-0.4c2.8-1.7,5.5-3.4,8.2-5.2c0,0.4,0,0.8,0,1.3c-0.2,5.4-0.4,11-0.2,16.6
	l2.4-0.1c-0.3-5.5-0.1-11.1,0.2-16.4c0-1,0.1-2,0.1-3c2.8-1.9,5.5-3.9,8.2-6c0.3,9,0.4,18,0.3,26.9l2.4,0c0.1-9.6-0.1-19.3-0.4-28.9
	C695.6,200.7,698.4,198,701,195z"/>
<path class="st0" d="M761.8,195l-1.8-1.6c-2.1,2.4-4.2,4.6-6.4,6.6c-0.1-3-0.2-6.1-0.4-9.1l-2.4,0.1c0.2,3.7,0.3,7.3,0.5,11
	c-2.6,2.2-5.3,4.2-8,6.1c0.2-5.9,0.1-11.6-0.8-17.3l-2.4,0.4c1,6.1,0.9,12.2,0.7,18.6c-2.9,2-5.9,3.8-9,5.7
	c-0.1-7.9-0.7-15.8-1.7-23.4l-2.4,0.3c1.1,8,1.7,16.4,1.7,24.6c-2.4,1.5-4.9,3.1-7.4,4.7l-1.4-29.5l-2.4,0.1l1.5,31
	c-2.3,1.6-4.7,3.3-7,5.1l1.5,1.9c1.9-1.5,3.8-2.8,5.7-4.1l0.3,6.5l2.4-0.1l-0.4-8c2.4-1.6,4.8-3.2,7.2-4.7c0,3.8-0.2,7.6-0.4,11.3
	l2.4,0.2c0.3-4.3,0.4-8.6,0.5-13c0.2-0.1,0.4-0.3,0.6-0.4c2.8-1.7,5.5-3.4,8.2-5.2c0,0.4,0,0.8,0,1.3c-0.2,5.4-0.4,11-0.2,16.6
	l2.4-0.1c-0.3-5.5-0.1-11.1,0.2-16.4c0-1,0.1-2,0.1-3c2.8-1.9,5.5-3.9,8.2-6c0.3,9,0.4,18,0.3,26.9l2.4,0c0.1-9.6-0.1-19.3-0.4-28.9
	C756.5,200.7,759.2,198,761.8,195z"/>
<path class="st0" d="M822.7,195l-1.8-1.6c-2.1,2.4-4.2,4.6-6.4,6.6c-0.1-3-0.2-6.1-0.4-9.1l-2.4,0.1c0.2,3.7,0.3,7.3,0.5,11
	c-2.6,2.2-5.3,4.2-8,6.1c0.2-5.9,0.1-11.6-0.8-17.3l-2.4,0.4c1,6.1,0.9,12.2,0.7,18.6c-2.9,2-5.9,3.8-9,5.7
	c-0.1-7.9-0.7-15.8-1.7-23.4l-2.4,0.3c1.1,8,1.7,16.4,1.7,24.6c-2.4,1.5-4.9,3.1-7.4,4.7l-1.4-29.5l-2.4,0.1l1.5,31
	c-2.3,1.6-4.7,3.3-7,5.1l1.5,1.9c1.9-1.5,3.8-2.8,5.7-4.1l0.3,6.5l2.4-0.1l-0.4-8c2.4-1.6,4.8-3.2,7.2-4.7c0,3.8-0.2,7.6-0.4,11.3
	l2.4,0.2c0.3-4.3,0.4-8.6,0.5-13c0.2-0.1,0.4-0.3,0.6-0.4c2.8-1.7,5.5-3.4,8.2-5.2c0,0.4,0,0.8,0,1.3c-0.2,5.4-0.4,11-0.2,16.6
	l2.4-0.1c-0.3-5.5-0.1-11.1,0.2-16.4c0-1,0.1-2,0.1-3c2.8-1.9,5.5-3.9,8.2-6c0.3,9,0.4,18,0.3,26.9l2.4,0c0.1-9.6-0.1-19.3-0.4-28.9
	C817.3,200.7,820,198,822.7,195z"/>
<path class="st0" d="M883.5,195l-1.8-1.6c-2.1,2.4-4.2,4.6-6.4,6.6c-0.1-3-0.2-6.1-0.4-9.1l-2.4,0.1c0.2,3.7,0.3,7.3,0.5,11
	c-2.6,2.2-5.3,4.2-8,6.1c0.2-5.9,0.1-11.6-0.8-17.3l-2.4,0.4c1,6.1,0.9,12.2,0.7,18.6c-2.9,2-5.9,3.8-9,5.7
	c-0.1-7.9-0.7-15.8-1.7-23.4l-2.4,0.3c1.1,8,1.7,16.4,1.7,24.6c-2.4,1.5-4.9,3.1-7.4,4.7l-1.4-29.5l-2.4,0.1l1.5,31
	c-2.3,1.6-4.7,3.3-7,5.1l1.5,1.9c1.9-1.5,3.8-2.8,5.7-4.1l0.3,6.5l2.4-0.1l-0.4-8c2.4-1.6,4.8-3.2,7.2-4.7c0,3.8-0.2,7.6-0.4,11.3
	l2.4,0.2c0.3-4.3,0.4-8.6,0.5-13c0.2-0.1,0.4-0.3,0.6-0.4c2.8-1.7,5.5-3.4,8.2-5.2c0,0.4,0,0.8,0,1.3c-0.2,5.4-0.4,11-0.2,16.6
	l2.4-0.1c-0.3-5.5-0.1-11.1,0.2-16.4c0-1,0.1-2,0.1-3c2.8-1.9,5.5-3.9,8.2-6c0.3,9,0.4,18,0.3,26.9l2.4,0c0.1-9.6-0.1-19.3-0.4-28.9
	C878.1,200.7,880.8,198,883.5,195z"/>
<path class="st0" d="M944.3,195l-1.8-1.6c-2.1,2.4-4.2,4.6-6.4,6.6c-0.1-3-0.2-6.1-0.4-9.1l-2.4,0.1c0.2,3.7,0.3,7.3,0.5,11
	c-2.6,2.2-5.3,4.2-8,6.1c0.2-5.9,0.1-11.6-0.8-17.3l-2.4,0.4c1,6.1,0.9,12.2,0.7,18.6c-2.9,2-5.9,3.8-9,5.7
	c-0.1-7.9-0.7-15.8-1.7-23.4l-2.4,0.3c1.1,8,1.7,16.4,1.7,24.6c-2.4,1.5-4.9,3.1-7.4,4.7l-1.4-29.5l-2.4,0.1l1.5,31
	c-2.3,1.6-4.7,3.3-7,5.1l1.5,1.9c1.9-1.5,3.8-2.8,5.7-4.1l0.3,6.5l2.4-0.1l-0.4-8c2.4-1.6,4.8-3.2,7.2-4.7c0,3.8-0.2,7.6-0.4,11.3
	l2.4,0.2c0.3-4.3,0.4-8.6,0.5-13c0.2-0.1,0.4-0.3,0.6-0.4c2.8-1.7,5.5-3.4,8.2-5.2c0,0.4,0,0.8,0,1.3c-0.2,5.4-0.4,11-0.2,16.6
	l2.4-0.1c-0.3-5.5-0.1-11.1,0.2-16.4c0-1,0.1-2,0.1-3c2.8-1.9,5.5-3.9,8.2-6c0.3,9,0.4,18,0.3,26.9l2.4,0c0.1-9.6-0.1-19.3-0.4-28.9
	C938.9,200.7,941.7,198,944.3,195z"/>
<path class="st0" d="M1005.1,195l-1.8-1.6c-2.1,2.4-4.2,4.6-6.4,6.6c-0.1-3-0.2-6.1-0.4-9.1L994,191c0.2,3.7,0.3,7.3,0.5,11
	c-2.6,2.2-5.3,4.2-8,6.1c0.2-5.9,0.1-11.6-0.8-17.3l-2.4,0.4c1,6.1,0.9,12.2,0.7,18.6c-2.9,2-5.9,3.8-9,5.7
	c-0.1-7.9-0.7-15.8-1.7-23.4l-2.4,0.3c1.1,8,1.7,16.4,1.7,24.6c-2.4,1.5-4.9,3.1-7.4,4.7l-1.4-29.5l-2.4,0.1l1.5,31
	c-2.3,1.6-4.7,3.3-7,5.1l1.5,1.9c1.9-1.5,3.8-2.8,5.7-4.1l0.3,6.5l2.4-0.1l-0.4-8c2.4-1.6,4.8-3.2,7.2-4.7c0,3.8-0.2,7.6-0.4,11.3
	l2.4,0.2c0.3-4.3,0.4-8.6,0.5-13c0.2-0.1,0.4-0.3,0.6-0.4c2.8-1.7,5.5-3.4,8.2-5.2c0,0.4,0,0.8,0,1.3c-0.2,5.4-0.4,11-0.2,16.6
	l2.4-0.1c-0.3-5.5-0.1-11.1,0.2-16.4c0-1,0.1-2,0.1-3c2.8-1.9,5.5-3.9,8.2-6c0.3,9,0.4,18,0.3,26.9l2.4,0c0.1-9.6-0.1-19.3-0.4-28.9
	C999.7,200.7,1002.5,198,1005.1,195z"/>
<path class="st0" d="M1065.9,195l-1.8-1.6c-2.1,2.4-4.2,4.6-6.4,6.6c-0.1-3-0.2-6.1-0.4-9.1l-2.4,0.1c0.2,3.7,0.3,7.3,0.5,11
	c-2.6,2.2-5.3,4.2-8,6.1c0.2-5.9,0.1-11.6-0.8-17.3l-2.4,0.4c1,6.1,0.9,12.2,0.7,18.6c-2.9,2-5.9,3.8-9,5.7
	c-0.1-7.9-0.7-15.8-1.7-23.4l-2.4,0.3c1.1,8,1.7,16.4,1.7,24.6c-2.4,1.5-4.9,3.1-7.4,4.7l-1.4-29.5l-2.4,0.1l1.5,31
	c-2.3,1.6-4.7,3.3-7,5.1l1.5,1.9c1.9-1.5,3.8-2.8,5.7-4.1l0.3,6.5l2.4-0.1l-0.4-8c2.4-1.6,4.8-3.2,7.2-4.7c0,3.8-0.2,7.6-0.4,11.3
	l2.4,0.2c0.3-4.3,0.4-8.6,0.5-13c0.2-0.1,0.4-0.3,0.6-0.4c2.8-1.7,5.5-3.4,8.2-5.2c0,0.4,0,0.8,0,1.3c-0.2,5.4-0.4,11-0.2,16.6
	l2.4-0.1c-0.3-5.5-0.1-11.1,0.2-16.4c0-1,0.1-2,0.1-3c2.8-1.9,5.5-3.9,8.2-6c0.3,9,0.4,18,0.3,26.9l2.4,0c0.1-9.6-0.1-19.3-0.4-28.9
	C1060.6,200.7,1063.3,198,1065.9,195z"/>
<path class="st0" d="M1126.8,195l-1.8-1.6c-2.1,2.4-4.2,4.6-6.4,6.6c-0.1-3-0.2-6.1-0.4-9.1l-2.4,0.1c0.2,3.7,0.3,7.3,0.5,11
	c-2.6,2.2-5.3,4.2-8,6.1c0.2-5.9,0.1-11.6-0.8-17.3l-2.4,0.4c1,6.1,0.9,12.2,0.7,18.6c-2.9,2-5.9,3.8-9,5.7
	c-0.1-7.9-0.7-15.8-1.7-23.4l-2.4,0.3c1.1,8,1.7,16.4,1.7,24.6c-2.4,1.5-4.9,3.1-7.4,4.7l-1.4-29.5l-2.4,0.1l1.5,31
	c-2.3,1.6-4.7,3.3-7,5.1l1.5,1.9c1.9-1.5,3.8-2.8,5.7-4.1l0.3,6.5l2.4-0.1l-0.4-8c2.4-1.6,4.8-3.2,7.2-4.7c0,3.8-0.2,7.6-0.4,11.3
	l2.4,0.2c0.3-4.3,0.4-8.6,0.5-13c0.2-0.1,0.4-0.3,0.6-0.4c2.8-1.7,5.5-3.4,8.2-5.2c0,0.4,0,0.8,0,1.3c-0.2,5.4-0.4,11-0.2,16.6
	l2.4-0.1c-0.3-5.5-0.1-11.1,0.2-16.4c0-1,0.1-2,0.1-3c2.8-1.9,5.5-3.9,8.2-6c0.3,9,0.4,18,0.3,26.9l2.4,0c0.1-9.6-0.1-19.3-0.4-28.9
	C1121.4,200.7,1124.1,198,1126.8,195z"/>
<path class="st0" d="M1187.6,195l-1.8-1.6c-2.1,2.4-4.2,4.6-6.4,6.6c-0.1-3-0.2-6.1-0.4-9.1l-2.4,0.1c0.2,3.7,0.3,7.3,0.5,11
	c-2.6,2.2-5.3,4.2-8,6.1c0.2-5.9,0.1-11.6-0.8-17.3l-2.4,0.4c1,6.1,0.9,12.2,0.7,18.6c-2.9,2-5.9,3.8-9,5.7
	c-0.1-7.9-0.7-15.8-1.7-23.4l-2.4,0.3c1.1,8,1.7,16.4,1.7,24.6c-2.4,1.5-4.9,3.1-7.4,4.7l-1.4-29.5l-2.4,0.1l1.5,31
	c-2.3,1.6-4.7,3.3-7,5.1l1.5,1.9c1.9-1.5,3.8-2.8,5.7-4.1l0.3,6.5l2.4-0.1l-0.4-8c2.4-1.6,4.8-3.2,7.2-4.7c0,3.8-0.2,7.6-0.4,11.3
	l2.4,0.2c0.3-4.3,0.4-8.6,0.5-13c0.2-0.1,0.4-0.3,0.6-0.4c2.8-1.7,5.5-3.4,8.2-5.2c0,0.4,0,0.8,0,1.3c-0.2,5.4-0.4,11-0.2,16.6
	l2.4-0.1c-0.3-5.5-0.1-11.1,0.2-16.4c0-1,0.1-2,0.1-3c2.8-1.9,5.5-3.9,8.2-6c0.3,9,0.4,18,0.3,26.9l2.4,0c0.1-9.6-0.1-19.3-0.4-28.9
	C1182.2,200.7,1184.9,198,1187.6,195z"/>
<path class="st0" d="M1248.4,195l-1.8-1.6c-2.1,2.4-4.2,4.6-6.4,6.6c-0.1-3-0.2-6.1-0.4-9.1l-2.4,0.1c0.2,3.7,0.3,7.3,0.5,11
	c-2.6,2.2-5.3,4.2-8,6.1c0.2-5.9,0.1-11.6-0.8-17.3l-2.4,0.4c1,6.1,0.9,12.2,0.7,18.6c-2.9,2-5.9,3.8-9,5.7
	c-0.1-7.9-0.7-15.8-1.7-23.4l-2.4,0.3c1.1,8,1.7,16.4,1.7,24.6c-2.4,1.5-4.9,3.1-7.4,4.7l-1.4-29.5l-2.4,0.1l1.5,31
	c-2.3,1.6-4.7,3.3-7,5.1l1.5,1.9c1.9-1.5,3.8-2.8,5.7-4.1l0.3,6.5l2.4-0.1l-0.4-8c2.4-1.6,4.8-3.2,7.2-4.7c0,3.8-0.2,7.6-0.4,11.3
	l2.4,0.2c0.3-4.3,0.4-8.6,0.5-13c0.2-0.1,0.4-0.3,0.6-0.4c2.8-1.7,5.5-3.4,8.2-5.2c0,0.4,0,0.8,0,1.3c-0.2,5.4-0.4,11-0.2,16.6
	l2.4-0.1c-0.3-5.5-0.1-11.1,0.2-16.4c0-1,0.1-2,0.1-3c2.8-1.9,5.5-3.9,8.2-6c0.3,9,0.4,18,0.3,26.9l2.4,0c0.1-9.6-0.1-19.3-0.4-28.9
	C1243,200.7,1245.8,198,1248.4,195z"/>
<path class="st0" d="M74.8,280.1l-1.8-1.6c-2.1,2.4-4.2,4.6-6.4,6.6c-0.1-3-0.2-6.1-0.4-9.1l-2.4,0.1c0.2,3.7,0.3,7.3,0.5,11
	c-2.6,2.2-5.3,4.2-8,6.1c0.2-5.9,0.1-11.6-0.8-17.3l-2.4,0.4c1,6.1,0.9,12.2,0.7,18.6c-2.9,2-5.9,3.8-9,5.7
	c-0.1-7.9-0.7-15.8-1.7-23.4l-2.4,0.3c1.1,8,1.7,16.4,1.7,24.6c-2.4,1.5-4.9,3.1-7.4,4.7l-1.4-29.5l-2.4,0.1l1.5,31
	c-2.3,1.6-4.7,3.3-7,5.1l1.5,1.9c1.9-1.5,3.8-2.8,5.7-4.1l0.3,6.5l2.4-0.1l-0.4-8c2.4-1.6,4.8-3.2,7.2-4.7c0,3.8-0.2,7.6-0.4,11.3
	l2.4,0.2c0.3-4.3,0.4-8.6,0.5-13c0.2-0.1,0.4-0.3,0.6-0.4c2.8-1.7,5.5-3.4,8.2-5.2c0,0.4,0,0.8,0,1.3c-0.2,5.4-0.4,11-0.2,16.6
	l2.4-0.1c-0.3-5.5-0.1-11.1,0.2-16.4c0-1,0.1-2,0.1-3c2.8-1.9,5.5-3.9,8.2-6c0.3,9,0.4,18,0.3,26.9l2.4,0c0.1-9.6-0.1-19.3-0.4-28.9
	C69.4,285.8,72.1,283.2,74.8,280.1z"/>
<path class="st0" d="M135.6,280.1l-1.8-1.6c-2.1,2.4-4.2,4.6-6.4,6.6c-0.1-3-0.2-6.1-0.4-9.1l-2.4,0.1c0.2,3.7,0.3,7.3,0.5,11
	c-2.6,2.2-5.3,4.2-8,6.1c0.2-5.9,0.1-11.6-0.8-17.3l-2.4,0.4c1,6.1,0.9,12.2,0.7,18.6c-2.9,2-5.9,3.8-9,5.7
	c-0.1-7.9-0.7-15.8-1.7-23.4l-2.4,0.3c1.1,8,1.7,16.4,1.7,24.6c-2.4,1.5-4.9,3.1-7.4,4.7l-1.4-29.5l-2.4,0.1l1.5,31
	c-2.3,1.6-4.7,3.3-7,5.1l1.5,1.9c1.9-1.5,3.8-2.8,5.7-4.1l0.3,6.5l2.4-0.1l-0.4-8c2.4-1.6,4.8-3.2,7.2-4.7c0,3.8-0.2,7.6-0.4,11.3
	l2.4,0.2c0.3-4.3,0.4-8.6,0.5-13c0.2-0.1,0.4-0.3,0.6-0.4c2.8-1.7,5.5-3.4,8.2-5.2c0,0.4,0,0.8,0,1.3c-0.2,5.4-0.4,11-0.2,16.6
	l2.4-0.1c-0.3-5.5-0.1-11.1,0.2-16.4c0-1,0.1-2,0.1-3c2.8-1.9,5.5-3.9,8.2-6c0.3,9,0.4,18,0.3,26.9l2.4,0c0.1-9.6-0.1-19.3-0.4-28.9
	C130.2,285.8,132.9,283.2,135.6,280.1z"/>
<path class="st0" d="M196.4,280.1l-1.8-1.6c-2.1,2.4-4.2,4.6-6.4,6.6c-0.1-3-0.2-6.1-0.4-9.1l-2.4,0.1c0.2,3.7,0.3,7.3,0.5,11
	c-2.6,2.2-5.3,4.2-8,6.1c0.2-5.9,0.1-11.6-0.8-17.3l-2.4,0.4c1,6.1,0.9,12.2,0.7,18.6c-2.9,2-5.9,3.8-9,5.7
	c-0.1-7.9-0.7-15.8-1.7-23.4l-2.4,0.3c1.1,8,1.7,16.4,1.7,24.6c-2.4,1.5-4.9,3.1-7.4,4.7l-1.4-29.5l-2.4,0.1l1.5,31
	c-2.3,1.6-4.7,3.3-7,5.1l1.5,1.9c1.9-1.5,3.8-2.8,5.7-4.1l0.3,6.5l2.4-0.1l-0.4-8c2.4-1.6,4.8-3.2,7.2-4.7c0,3.8-0.2,7.6-0.4,11.3
	l2.4,0.2c0.3-4.3,0.4-8.6,0.5-13c0.2-0.1,0.4-0.3,0.6-0.4c2.8-1.7,5.5-3.4,8.2-5.2c0,0.4,0,0.8,0,1.3c-0.2,5.4-0.4,11-0.2,16.6
	l2.4-0.1c-0.3-5.5-0.1-11.1,0.2-16.4c0-1,0.1-2,0.1-3c2.8-1.9,5.5-3.9,8.2-6c0.3,9,0.4,18,0.3,26.9l2.4,0c0.1-9.6-0.1-19.3-0.4-28.9
	C191,285.8,193.8,283.2,196.4,280.1z"/>
<path class="st0" d="M257.2,280.1l-1.8-1.6c-2.1,2.4-4.2,4.6-6.4,6.6c-0.1-3-0.2-6.1-0.4-9.1l-2.4,0.1c0.2,3.7,0.3,7.3,0.5,11
	c-2.6,2.2-5.3,4.2-8,6.1c0.2-5.9,0.1-11.6-0.8-17.3l-2.4,0.4c1,6.1,0.9,12.2,0.7,18.6c-2.9,2-5.9,3.8-9,5.7
	c-0.1-7.9-0.7-15.8-1.7-23.4l-2.4,0.3c1.1,8,1.7,16.4,1.7,24.6c-2.4,1.5-4.9,3.1-7.4,4.7l-1.4-29.5l-2.4,0.1l1.5,31
	c-2.3,1.6-4.7,3.3-7,5.1l1.5,1.9c1.9-1.5,3.8-2.8,5.7-4.1l0.3,6.5l2.4-0.1l-0.4-8c2.4-1.6,4.8-3.2,7.2-4.7c0,3.8-0.2,7.6-0.4,11.3
	l2.4,0.2c0.3-4.3,0.4-8.6,0.5-13c0.2-0.1,0.4-0.3,0.6-0.4c2.8-1.7,5.5-3.4,8.2-5.2c0,0.4,0,0.8,0,1.3c-0.2,5.4-0.4,11-0.2,16.6
	l2.4-0.1c-0.3-5.5-0.1-11.1,0.2-16.4c0-1,0.1-2,0.1-3c2.8-1.9,5.5-3.9,8.2-6c0.3,9,0.4,18,0.3,26.9l2.4,0c0.1-9.6-0.1-19.3-0.4-28.9
	C251.9,285.8,254.6,283.2,257.2,280.1z"/>
<path class="st0" d="M318.1,280.1l-1.8-1.6c-2.1,2.4-4.2,4.6-6.4,6.6c-0.1-3-0.2-6.1-0.4-9.1l-2.4,0.1c0.2,3.7,0.3,7.3,0.5,11
	c-2.6,2.2-5.3,4.2-8,6.1c0.2-5.9,0.1-11.6-0.8-17.3l-2.4,0.4c1,6.1,0.9,12.2,0.7,18.6c-2.9,2-5.9,3.8-9,5.7
	c-0.1-7.9-0.7-15.8-1.7-23.4l-2.4,0.3c1.1,8,1.7,16.4,1.7,24.6c-2.4,1.5-4.9,3.1-7.4,4.7l-1.4-29.5l-2.4,0.1l1.5,31
	c-2.3,1.6-4.7,3.3-7,5.1l1.5,1.9c1.9-1.5,3.8-2.8,5.7-4.1l0.3,6.5l2.4-0.1l-0.4-8c2.4-1.6,4.8-3.2,7.2-4.7c0,3.8-0.2,7.6-0.4,11.3
	l2.4,0.2c0.3-4.3,0.4-8.6,0.5-13c0.2-0.1,0.4-0.3,0.6-0.4c2.8-1.7,5.5-3.4,8.2-5.2c0,0.4,0,0.8,0,1.3c-0.2,5.4-0.4,11-0.2,16.6
	l2.4-0.1c-0.3-5.5-0.1-11.1,0.2-16.4c0-1,0.1-2,0.1-3c2.8-1.9,5.5-3.9,8.2-6c0.3,9,0.4,18,0.3,26.9l2.4,0c0.1-9.6-0.1-19.3-0.4-28.9
	C312.7,285.8,315.4,283.2,318.1,280.1z"/>
<path class="st0" d="M378.9,280.1l-1.8-1.6c-2.1,2.4-4.2,4.6-6.4,6.6c-0.1-3-0.2-6.1-0.4-9.1l-2.4,0.1c0.2,3.7,0.3,7.3,0.5,11
	c-2.6,2.2-5.3,4.2-8,6.1c0.2-5.9,0.1-11.6-0.8-17.3l-2.4,0.4c1,6.1,0.9,12.2,0.7,18.6c-2.9,2-5.9,3.8-9,5.7
	c-0.1-7.9-0.7-15.8-1.7-23.4l-2.4,0.3c1.1,8,1.7,16.4,1.7,24.6c-2.4,1.5-4.9,3.1-7.4,4.7l-1.4-29.5l-2.4,0.1l1.5,31
	c-2.3,1.6-4.7,3.3-7,5.1l1.5,1.9c1.9-1.5,3.8-2.8,5.7-4.1l0.3,6.5l2.4-0.1l-0.4-8c2.4-1.6,4.8-3.2,7.2-4.7c0,3.8-0.2,7.6-0.4,11.3
	l2.4,0.2c0.3-4.3,0.4-8.6,0.5-13c0.2-0.1,0.4-0.3,0.6-0.4c2.8-1.7,5.5-3.4,8.2-5.2c0,0.4,0,0.8,0,1.3c-0.2,5.4-0.4,11-0.2,16.6
	l2.4-0.1c-0.3-5.5-0.1-11.1,0.2-16.4c0-1,0.1-2,0.1-3c2.8-1.9,5.5-3.9,8.2-6c0.3,9,0.4,18,0.3,26.9l2.4,0c0.1-9.6-0.1-19.3-0.4-28.9
	C373.5,285.8,376.2,283.2,378.9,280.1z"/>
<path class="st0" d="M439.7,280.1l-1.8-1.6c-2.1,2.4-4.2,4.6-6.4,6.6c-0.1-3-0.2-6.1-0.4-9.1l-2.4,0.1c0.2,3.7,0.3,7.3,0.5,11
	c-2.6,2.2-5.3,4.2-8,6.1c0.2-5.9,0.1-11.6-0.8-17.3l-2.4,0.4c1,6.1,0.9,12.2,0.7,18.6c-2.9,2-5.9,3.8-9,5.7
	c-0.1-7.9-0.7-15.8-1.7-23.4l-2.4,0.3c1.1,8,1.7,16.4,1.7,24.6c-2.4,1.5-4.9,3.1-7.4,4.7l-1.4-29.5l-2.4,0.1l1.5,31
	c-2.3,1.6-4.7,3.3-7,5.1l1.5,1.9c1.9-1.5,3.8-2.8,5.7-4.1l0.3,6.5l2.4-0.1l-0.4-8c2.4-1.6,4.8-3.2,7.2-4.7c0,3.8-0.2,7.6-0.4,11.3
	l2.4,0.2c0.3-4.3,0.4-8.6,0.5-13c0.2-0.1,0.4-0.3,0.6-0.4c2.8-1.7,5.5-3.4,8.2-5.2c0,0.4,0,0.8,0,1.3c-0.2,5.4-0.4,11-0.2,16.6
	l2.4-0.1c-0.3-5.5-0.1-11.1,0.2-16.4c0-1,0.1-2,0.1-3c2.8-1.9,5.5-3.9,8.2-6c0.3,9,0.4,18,0.3,26.9l2.4,0c0.1-9.6-0.1-19.3-0.4-28.9
	C434.3,285.8,437.1,283.2,439.7,280.1z"/>
<path class="st0" d="M500.5,280.1l-1.8-1.6c-2.1,2.4-4.2,4.6-6.4,6.6c-0.1-3-0.2-6.1-0.4-9.1l-2.4,0.1c0.2,3.7,0.3,7.3,0.5,11
	c-2.6,2.2-5.3,4.2-8,6.1c0.2-5.9,0.1-11.6-0.8-17.3l-2.4,0.4c1,6.1,0.9,12.2,0.7,18.6c-2.9,2-5.9,3.8-9,5.7
	c-0.1-7.9-0.7-15.8-1.7-23.4l-2.4,0.3c1.1,8,1.7,16.4,1.7,24.6c-2.4,1.5-4.9,3.1-7.4,4.7l-1.4-29.5l-2.4,0.1l1.5,31
	c-2.3,1.6-4.7,3.3-7,5.1l1.5,1.9c1.9-1.5,3.8-2.8,5.7-4.1l0.3,6.5l2.4-0.1l-0.4-8c2.4-1.6,4.8-3.2,7.2-4.7c0,3.8-0.2,7.6-0.4,11.3
	l2.4,0.2c0.3-4.3,0.4-8.6,0.5-13c0.2-0.1,0.4-0.3,0.6-0.4c2.8-1.7,5.5-3.4,8.2-5.2c0,0.4,0,0.8,0,1.3c-0.2,5.4-0.4,11-0.2,16.6
	l2.4-0.1c-0.3-5.5-0.1-11.1,0.2-16.4c0-1,0.1-2,0.1-3c2.8-1.9,5.5-3.9,8.2-6c0.3,9,0.4,18,0.3,26.9l2.4,0c0.1-9.6-0.1-19.3-0.4-28.9
	C495.2,285.8,497.9,283.2,500.5,280.1z"/>
<path class="st0" d="M561.4,280.1l-1.8-1.6c-2.1,2.4-4.2,4.6-6.4,6.6c-0.1-3-0.2-6.1-0.4-9.1l-2.4,0.1c0.2,3.7,0.3,7.3,0.5,11
	c-2.6,2.2-5.3,4.2-8,6.1c0.2-5.9,0.1-11.6-0.8-17.3l-2.4,0.4c1,6.1,0.9,12.2,0.7,18.6c-2.9,2-5.9,3.8-9,5.7
	c-0.1-7.9-0.7-15.8-1.7-23.4l-2.4,0.3c1.1,8,1.7,16.4,1.7,24.6c-2.4,1.5-4.9,3.1-7.4,4.7l-1.4-29.5l-2.4,0.1l1.5,31
	c-2.3,1.6-4.7,3.3-7,5.1l1.5,1.9c1.9-1.5,3.8-2.8,5.7-4.1l0.3,6.5l2.4-0.1l-0.4-8c2.4-1.6,4.8-3.2,7.2-4.7c0,3.8-0.2,7.6-0.4,11.3
	l2.4,0.2c0.3-4.3,0.4-8.6,0.5-13c0.2-0.1,0.4-0.3,0.6-0.4c2.8-1.7,5.5-3.4,8.2-5.2c0,0.4,0,0.8,0,1.3c-0.2,5.4-0.4,11-0.2,16.6
	l2.4-0.1c-0.3-5.5-0.1-11.1,0.2-16.4c0-1,0.1-2,0.1-3c2.8-1.9,5.5-3.9,8.2-6c0.3,9,0.4,18,0.3,26.9l2.4,0c0.1-9.6-0.1-19.3-0.4-28.9
	C556,285.8,558.7,283.2,561.4,280.1z"/>
<path class="st0" d="M622.2,280.1l-1.8-1.6c-2.1,2.4-4.2,4.6-6.4,6.6c-0.1-3-0.2-6.1-0.4-9.1l-2.4,0.1c0.2,3.7,0.3,7.3,0.5,11
	c-2.6,2.2-5.3,4.2-8,6.1c0.2-5.9,0.1-11.6-0.8-17.3l-2.4,0.4c1,6.1,0.9,12.2,0.7,18.6c-2.9,2-5.9,3.8-9,5.7
	c-0.1-7.9-0.7-15.8-1.7-23.4l-2.4,0.3c1.1,8,1.7,16.4,1.7,24.6c-2.4,1.5-4.9,3.1-7.4,4.7l-1.4-29.5l-2.4,0.1l1.5,31
	c-2.3,1.6-4.7,3.3-7,5.1l1.5,1.9c1.9-1.5,3.8-2.8,5.7-4.1l0.3,6.5l2.4-0.1l-0.4-8c2.4-1.6,4.8-3.2,7.2-4.7c0,3.8-0.2,7.6-0.4,11.3
	l2.4,0.2c0.3-4.3,0.4-8.6,0.5-13c0.2-0.1,0.4-0.3,0.6-0.4c2.8-1.7,5.5-3.4,8.2-5.2c0,0.4,0,0.8,0,1.3c-0.2,5.4-0.4,11-0.2,16.6
	l2.4-0.1c-0.3-5.5-0.1-11.1,0.2-16.4c0-1,0.1-2,0.1-3c2.8-1.9,5.5-3.9,8.2-6c0.3,9,0.4,18,0.3,26.9l2.4,0c0.1-9.6-0.1-19.3-0.4-28.9
	C616.8,285.8,619.5,283.2,622.2,280.1z"/>
<path class="st0" d="M701,280.1l-1.8-1.6c-2.1,2.4-4.2,4.6-6.4,6.6c-0.1-3-0.2-6.1-0.4-9.1l-2.4,0.1c0.2,3.7,0.3,7.3,0.5,11
	c-2.6,2.2-5.3,4.2-8,6.1c0.2-5.9,0.1-11.6-0.8-17.3l-2.4,0.4c1,6.1,0.9,12.2,0.7,18.6c-2.9,2-5.9,3.8-9,5.7
	c-0.1-7.9-0.7-15.8-1.7-23.4l-2.4,0.3c1.1,8,1.7,16.4,1.7,24.6c-2.4,1.5-4.9,3.1-7.4,4.7l-1.4-29.5l-2.4,0.1l1.5,31
	c-2.3,1.6-4.7,3.3-7,5.1l1.5,1.9c1.9-1.5,3.8-2.8,5.7-4.1l0.3,6.5l2.4-0.1l-0.4-8c2.4-1.6,4.8-3.2,7.2-4.7c0,3.8-0.2,7.6-0.4,11.3
	l2.4,0.2c0.3-4.3,0.4-8.6,0.5-13c0.2-0.1,0.4-0.3,0.6-0.4c2.8-1.7,5.5-3.4,8.2-5.2c0,0.4,0,0.8,0,1.3c-0.2,5.4-0.4,11-0.2,16.6
	l2.4-0.1c-0.3-5.5-0.1-11.1,0.2-16.4c0-1,0.1-2,0.1-3c2.8-1.9,5.5-3.9,8.2-6c0.3,9,0.4,18,0.3,26.9l2.4,0c0.1-9.6-0.1-19.3-0.4-28.9
	C695.6,285.8,698.4,283.2,701,280.1z"/>
<path class="st0" d="M761.8,280.1l-1.8-1.6c-2.1,2.4-4.2,4.6-6.4,6.6c-0.1-3-0.2-6.1-0.4-9.1l-2.4,0.1c0.2,3.7,0.3,7.3,0.5,11
	c-2.6,2.2-5.3,4.2-8,6.1c0.2-5.9,0.1-11.6-0.8-17.3l-2.4,0.4c1,6.1,0.9,12.2,0.7,18.6c-2.9,2-5.9,3.8-9,5.7
	c-0.1-7.9-0.7-15.8-1.7-23.4l-2.4,0.3c1.1,8,1.7,16.4,1.7,24.6c-2.4,1.5-4.9,3.1-7.4,4.7l-1.4-29.5l-2.4,0.1l1.5,31
	c-2.3,1.6-4.7,3.3-7,5.1l1.5,1.9c1.9-1.5,3.8-2.8,5.7-4.1l0.3,6.5l2.4-0.1l-0.4-8c2.4-1.6,4.8-3.2,7.2-4.7c0,3.8-0.2,7.6-0.4,11.3
	l2.4,0.2c0.3-4.3,0.4-8.6,0.5-13c0.2-0.1,0.4-0.3,0.6-0.4c2.8-1.7,5.5-3.4,8.2-5.2c0,0.4,0,0.8,0,1.3c-0.2,5.4-0.4,11-0.2,16.6
	l2.4-0.1c-0.3-5.5-0.1-11.1,0.2-16.4c0-1,0.1-2,0.1-3c2.8-1.9,5.5-3.9,8.2-6c0.3,9,0.4,18,0.3,26.9l2.4,0c0.1-9.6-0.1-19.3-0.4-28.9
	C756.5,285.8,759.2,283.2,761.8,280.1z"/>
<path class="st0" d="M822.7,280.1l-1.8-1.6c-2.1,2.4-4.2,4.6-6.4,6.6c-0.1-3-0.2-6.1-0.4-9.1l-2.4,0.1c0.2,3.7,0.3,7.3,0.5,11
	c-2.6,2.2-5.3,4.2-8,6.1c0.2-5.9,0.1-11.6-0.8-17.3l-2.4,0.4c1,6.1,0.9,12.2,0.7,18.6c-2.9,2-5.9,3.8-9,5.7
	c-0.1-7.9-0.7-15.8-1.7-23.4l-2.4,0.3c1.1,8,1.7,16.4,1.7,24.6c-2.4,1.5-4.9,3.1-7.4,4.7l-1.4-29.5l-2.4,0.1l1.5,31
	c-2.3,1.6-4.7,3.3-7,5.1l1.5,1.9c1.9-1.5,3.8-2.8,5.7-4.1l0.3,6.5l2.4-0.1l-0.4-8c2.4-1.6,4.8-3.2,7.2-4.7c0,3.8-0.2,7.6-0.4,11.3
	l2.4,0.2c0.3-4.3,0.4-8.6,0.5-13c0.2-0.1,0.4-0.3,0.6-0.4c2.8-1.7,5.5-3.4,8.2-5.2c0,0.4,0,0.8,0,1.3c-0.2,5.4-0.4,11-0.2,16.6
	l2.4-0.1c-0.3-5.5-0.1-11.1,0.2-16.4c0-1,0.1-2,0.1-3c2.8-1.9,5.5-3.9,8.2-6c0.3,9,0.4,18,0.3,26.9l2.4,0c0.1-9.6-0.1-19.3-0.4-28.9
	C817.3,285.8,820,283.2,822.7,280.1z"/>
<path class="st0" d="M883.5,280.1l-1.8-1.6c-2.1,2.4-4.2,4.6-6.4,6.6c-0.1-3-0.2-6.1-0.4-9.1l-2.4,0.1c0.2,3.7,0.3,7.3,0.5,11
	c-2.6,2.2-5.3,4.2-8,6.1c0.2-5.9,0.1-11.6-0.8-17.3l-2.4,0.4c1,6.1,0.9,12.2,0.7,18.6c-2.9,2-5.9,3.8-9,5.7
	c-0.1-7.9-0.7-15.8-1.7-23.4l-2.4,0.3c1.1,8,1.7,16.4,1.7,24.6c-2.4,1.5-4.9,3.1-7.4,4.7l-1.4-29.5l-2.4,0.1l1.5,31
	c-2.3,1.6-4.7,3.3-7,5.1l1.5,1.9c1.9-1.5,3.8-2.8,5.7-4.1l0.3,6.5l2.4-0.1l-0.4-8c2.4-1.6,4.8-3.2,7.2-4.7c0,3.8-0.2,7.6-0.4,11.3
	l2.4,0.2c0.3-4.3,0.4-8.6,0.5-13c0.2-0.1,0.4-0.3,0.6-0.4c2.8-1.7,5.5-3.4,8.2-5.2c0,0.4,0,0.8,0,1.3c-0.2,5.4-0.4,11-0.2,16.6
	l2.4-0.1c-0.3-5.5-0.1-11.1,0.2-16.4c0-1,0.1-2,0.1-3c2.8-1.9,5.5-3.9,8.2-6c0.3,9,0.4,18,0.3,26.9l2.4,0c0.1-9.6-0.1-19.3-0.4-28.9
	C878.1,285.8,880.8,283.2,883.5,280.1z"/>
<path class="st0" d="M944.3,280.1l-1.8-1.6c-2.1,2.4-4.2,4.6-6.4,6.6c-0.1-3-0.2-6.1-0.4-9.1l-2.4,0.1c0.2,3.7,0.3,7.3,0.5,11
	c-2.6,2.2-5.3,4.2-8,6.1c0.2-5.9,0.1-11.6-0.8-17.3l-2.4,0.4c1,6.1,0.9,12.2,0.7,18.6c-2.9,2-5.9,3.8-9,5.7
	c-0.1-7.9-0.7-15.8-1.7-23.4l-2.4,0.3c1.1,8,1.7,16.4,1.7,24.6c-2.4,1.5-4.9,3.1-7.4,4.7l-1.4-29.5l-2.4,0.1l1.5,31
	c-2.3,1.6-4.7,3.3-7,5.1l1.5,1.9c1.9-1.5,3.8-2.8,5.7-4.1l0.3,6.5l2.4-0.1l-0.4-8c2.4-1.6,4.8-3.2,7.2-4.7c0,3.8-0.2,7.6-0.4,11.3
	l2.4,0.2c0.3-4.3,0.4-8.6,0.5-13c0.2-0.1,0.4-0.3,0.6-0.4c2.8-1.7,5.5-3.4,8.2-5.2c0,0.4,0,0.8,0,1.3c-0.2,5.4-0.4,11-0.2,16.6
	l2.4-0.1c-0.3-5.5-0.1-11.1,0.2-16.4c0-1,0.1-2,0.1-3c2.8-1.9,5.5-3.9,8.2-6c0.3,9,0.4,18,0.3,26.9l2.4,0c0.1-9.6-0.1-19.3-0.4-28.9
	C938.9,285.8,941.7,283.2,944.3,280.1z"/>
<path class="st0" d="M1005.1,280.1l-1.8-1.6c-2.1,2.4-4.2,4.6-6.4,6.6c-0.1-3-0.2-6.1-0.4-9.1l-2.4,0.1c0.2,3.7,0.3,7.3,0.5,11
	c-2.6,2.2-5.3,4.2-8,6.1c0.2-5.9,0.1-11.6-0.8-17.3l-2.4,0.4c1,6.1,0.9,12.2,0.7,18.6c-2.9,2-5.9,3.8-9,5.7
	c-0.1-7.9-0.7-15.8-1.7-23.4l-2.4,0.3c1.1,8,1.7,16.4,1.7,24.6c-2.4,1.5-4.9,3.1-7.4,4.7l-1.4-29.5l-2.4,0.1l1.5,31
	c-2.3,1.6-4.7,3.3-7,5.1l1.5,1.9c1.9-1.5,3.8-2.8,5.7-4.1l0.3,6.5l2.4-0.1l-0.4-8c2.4-1.6,4.8-3.2,7.2-4.7c0,3.8-0.2,7.6-0.4,11.3
	l2.4,0.2c0.3-4.3,0.4-8.6,0.5-13c0.2-0.1,0.4-0.3,0.6-0.4c2.8-1.7,5.5-3.4,8.2-5.2c0,0.4,0,0.8,0,1.3c-0.2,5.4-0.4,11-0.2,16.6
	l2.4-0.1c-0.3-5.5-0.1-11.1,0.2-16.4c0-1,0.1-2,0.1-3c2.8-1.9,5.5-3.9,8.2-6c0.3,9,0.4,18,0.3,26.9l2.4,0c0.1-9.6-0.1-19.3-0.4-28.9
	C999.7,285.8,1002.5,283.2,1005.1,280.1z"/>
<path class="st0" d="M1065.9,280.1l-1.8-1.6c-2.1,2.4-4.2,4.6-6.4,6.6c-0.1-3-0.2-6.1-0.4-9.1l-2.4,0.1c0.2,3.7,0.3,7.3,0.5,11
	c-2.6,2.2-5.3,4.2-8,6.1c0.2-5.9,0.1-11.6-0.8-17.3l-2.4,0.4c1,6.1,0.9,12.2,0.7,18.6c-2.9,2-5.9,3.8-9,5.7
	c-0.1-7.9-0.7-15.8-1.7-23.4l-2.4,0.3c1.1,8,1.7,16.4,1.7,24.6c-2.4,1.5-4.9,3.1-7.4,4.7l-1.4-29.5l-2.4,0.1l1.5,31
	c-2.3,1.6-4.7,3.3-7,5.1l1.5,1.9c1.9-1.5,3.8-2.8,5.7-4.1l0.3,6.5l2.4-0.1l-0.4-8c2.4-1.6,4.8-3.2,7.2-4.7c0,3.8-0.2,7.6-0.4,11.3
	l2.4,0.2c0.3-4.3,0.4-8.6,0.5-13c0.2-0.1,0.4-0.3,0.6-0.4c2.8-1.7,5.5-3.4,8.2-5.2c0,0.4,0,0.8,0,1.3c-0.2,5.4-0.4,11-0.2,16.6
	l2.4-0.1c-0.3-5.5-0.1-11.1,0.2-16.4c0-1,0.1-2,0.1-3c2.8-1.9,5.5-3.9,8.2-6c0.3,9,0.4,18,0.3,26.9l2.4,0c0.1-9.6-0.1-19.3-0.4-28.9
	C1060.6,285.8,1063.3,283.2,1065.9,280.1z"/>
<path class="st0" d="M1126.8,280.1l-1.8-1.6c-2.1,2.4-4.2,4.6-6.4,6.6c-0.1-3-0.2-6.1-0.4-9.1l-2.4,0.1c0.2,3.7,0.3,7.3,0.5,11
	c-2.6,2.2-5.3,4.2-8,6.1c0.2-5.9,0.1-11.6-0.8-17.3l-2.4,0.4c1,6.1,0.9,12.2,0.7,18.6c-2.9,2-5.9,3.8-9,5.7
	c-0.1-7.9-0.7-15.8-1.7-23.4l-2.4,0.3c1.1,8,1.7,16.4,1.7,24.6c-2.4,1.5-4.9,3.1-7.4,4.7l-1.4-29.5l-2.4,0.1l1.5,31
	c-2.3,1.6-4.7,3.3-7,5.1l1.5,1.9c1.9-1.5,3.8-2.8,5.7-4.1l0.3,6.5l2.4-0.1l-0.4-8c2.4-1.6,4.8-3.2,7.2-4.7c0,3.8-0.2,7.6-0.4,11.3
	l2.4,0.2c0.3-4.3,0.4-8.6,0.5-13c0.2-0.1,0.4-0.3,0.6-0.4c2.8-1.7,5.5-3.4,8.2-5.2c0,0.4,0,0.8,0,1.3c-0.2,5.4-0.4,11-0.2,16.6
	l2.4-0.1c-0.3-5.5-0.1-11.1,0.2-16.4c0-1,0.1-2,0.1-3c2.8-1.9,5.5-3.9,8.2-6c0.3,9,0.4,18,0.3,26.9l2.4,0c0.1-9.6-0.1-19.3-0.4-28.9
	C1121.4,285.8,1124.1,283.2,1126.8,280.1z"/>
<path class="st0" d="M1187.6,280.1l-1.8-1.6c-2.1,2.4-4.2,4.6-6.4,6.6c-0.1-3-0.2-6.1-0.4-9.1l-2.4,0.1c0.2,3.7,0.3,7.3,0.5,11
	c-2.6,2.2-5.3,4.2-8,6.1c0.2-5.9,0.1-11.6-0.8-17.3l-2.4,0.4c1,6.1,0.9,12.2,0.7,18.6c-2.9,2-5.9,3.8-9,5.7
	c-0.1-7.9-0.7-15.8-1.7-23.4l-2.4,0.3c1.1,8,1.7,16.4,1.7,24.6c-2.4,1.5-4.9,3.1-7.4,4.7l-1.4-29.5l-2.4,0.1l1.5,31
	c-2.3,1.6-4.7,3.3-7,5.1l1.5,1.9c1.9-1.5,3.8-2.8,5.7-4.1l0.3,6.5l2.4-0.1l-0.4-8c2.4-1.6,4.8-3.2,7.2-4.7c0,3.8-0.2,7.6-0.4,11.3
	l2.4,0.2c0.3-4.3,0.4-8.6,0.5-13c0.2-0.1,0.4-0.3,0.6-0.4c2.8-1.7,5.5-3.4,8.2-5.2c0,0.4,0,0.8,0,1.3c-0.2,5.4-0.4,11-0.2,16.6
	l2.4-0.1c-0.3-5.5-0.1-11.1,0.2-16.4c0-1,0.1-2,0.1-3c2.8-1.9,5.5-3.9,8.2-6c0.3,9,0.4,18,0.3,26.9l2.4,0c0.1-9.6-0.1-19.3-0.4-28.9
	C1182.2,285.8,1184.9,283.2,1187.6,280.1z"/>
<path class="st0" d="M1248.4,280.1l-1.8-1.6c-2.1,2.4-4.2,4.6-6.4,6.6c-0.1-3-0.2-6.1-0.4-9.1l-2.4,0.1c0.2,3.7,0.3,7.3,0.5,11
	c-2.6,2.2-5.3,4.2-8,6.1c0.2-5.9,0.1-11.6-0.8-17.3l-2.4,0.4c1,6.1,0.9,12.2,0.7,18.6c-2.9,2-5.9,3.8-9,5.7
	c-0.1-7.9-0.7-15.8-1.7-23.4l-2.4,0.3c1.1,8,1.7,16.4,1.7,24.6c-2.4,1.5-4.9,3.1-7.4,4.7l-1.4-29.5l-2.4,0.1l1.5,31
	c-2.3,1.6-4.7,3.3-7,5.1l1.5,1.9c1.9-1.5,3.8-2.8,5.7-4.1l0.3,6.5l2.4-0.1l-0.4-8c2.4-1.6,4.8-3.2,7.2-4.7c0,3.8-0.2,7.6-0.4,11.3
	l2.4,0.2c0.3-4.3,0.4-8.6,0.5-13c0.2-0.1,0.4-0.3,0.6-0.4c2.8-1.7,5.5-3.4,8.2-5.2c0,0.4,0,0.8,0,1.3c-0.2,5.4-0.4,11-0.2,16.6
	l2.4-0.1c-0.3-5.5-0.1-11.1,0.2-16.4c0-1,0.1-2,0.1-3c2.8-1.9,5.5-3.9,8.2-6c0.3,9,0.4,18,0.3,26.9l2.4,0c0.1-9.6-0.1-19.3-0.4-28.9
	C1243,285.8,1245.8,283.2,1248.4,280.1z"/>
<path class="st0" d="M74.8,365.3l-1.8-1.6c-2.1,2.4-4.2,4.6-6.4,6.6c-0.1-3-0.2-6.1-0.4-9.1l-2.4,0.1c0.2,3.7,0.3,7.3,0.5,11
	c-2.6,2.2-5.3,4.2-8,6.1c0.2-5.9,0.1-11.6-0.8-17.3l-2.4,0.4c1,6.1,0.9,12.2,0.7,18.6c-2.9,2-5.9,3.8-9,5.7
	c-0.1-7.9-0.7-15.8-1.7-23.4l-2.4,0.3c1.1,8,1.7,16.4,1.7,24.6c-2.4,1.5-4.9,3.1-7.4,4.7l-1.4-29.5l-2.4,0.1l1.5,31
	c-2.3,1.6-4.7,3.3-7,5.1l1.5,1.9c1.9-1.5,3.8-2.8,5.7-4.1l0.3,6.5l2.4-0.1l-0.4-8c2.4-1.6,4.8-3.2,7.2-4.7c0,3.8-0.2,7.6-0.4,11.3
	l2.4,0.2c0.3-4.3,0.4-8.6,0.5-13c0.2-0.1,0.4-0.3,0.6-0.4c2.8-1.7,5.5-3.4,8.2-5.2c0,0.4,0,0.8,0,1.3c-0.2,5.4-0.4,11-0.2,16.6
	l2.4-0.1c-0.3-5.5-0.1-11.1,0.2-16.4c0-1,0.1-2,0.1-3c2.8-1.9,5.5-3.9,8.2-6c0.3,9,0.4,18,0.3,26.9l2.4,0c0.1-9.6-0.1-19.3-0.4-28.9
	C69.4,371,72.1,368.3,74.8,365.3z"/>
<path class="st0" d="M135.6,365.3l-1.8-1.6c-2.1,2.4-4.2,4.6-6.4,6.6c-0.1-3-0.2-6.1-0.4-9.1l-2.4,0.1c0.2,3.7,0.3,7.3,0.5,11
	c-2.6,2.2-5.3,4.2-8,6.1c0.2-5.9,0.1-11.6-0.8-17.3l-2.4,0.4c1,6.1,0.9,12.2,0.7,18.6c-2.9,2-5.9,3.8-9,5.7
	c-0.1-7.9-0.7-15.8-1.7-23.4l-2.4,0.3c1.1,8,1.7,16.4,1.7,24.6c-2.4,1.5-4.9,3.1-7.4,4.7l-1.4-29.5l-2.4,0.1l1.5,31
	c-2.3,1.6-4.7,3.3-7,5.1l1.5,1.9c1.9-1.5,3.8-2.8,5.7-4.1l0.3,6.5l2.4-0.1l-0.4-8c2.4-1.6,4.8-3.2,7.2-4.7c0,3.8-0.2,7.6-0.4,11.3
	l2.4,0.2c0.3-4.3,0.4-8.6,0.5-13c0.2-0.1,0.4-0.3,0.6-0.4c2.8-1.7,5.5-3.4,8.2-5.2c0,0.4,0,0.8,0,1.3c-0.2,5.4-0.4,11-0.2,16.6
	l2.4-0.1c-0.3-5.5-0.1-11.1,0.2-16.4c0-1,0.1-2,0.1-3c2.8-1.9,5.5-3.9,8.2-6c0.3,9,0.4,18,0.3,26.9l2.4,0c0.1-9.6-0.1-19.3-0.4-28.9
	C130.2,371,132.9,368.3,135.6,365.3z"/>
<path class="st0" d="M196.4,365.3l-1.8-1.6c-2.1,2.4-4.2,4.6-6.4,6.6c-0.1-3-0.2-6.1-0.4-9.1l-2.4,0.1c0.2,3.7,0.3,7.3,0.5,11
	c-2.6,2.2-5.3,4.2-8,6.1c0.2-5.9,0.1-11.6-0.8-17.3l-2.4,0.4c1,6.1,0.9,12.2,0.7,18.6c-2.9,2-5.9,3.8-9,5.7
	c-0.1-7.9-0.7-15.8-1.7-23.4l-2.4,0.3c1.1,8,1.7,16.4,1.7,24.6c-2.4,1.5-4.9,3.1-7.4,4.7l-1.4-29.5l-2.4,0.1l1.5,31
	c-2.3,1.6-4.7,3.3-7,5.1l1.5,1.9c1.9-1.5,3.8-2.8,5.7-4.1l0.3,6.5l2.4-0.1l-0.4-8c2.4-1.6,4.8-3.2,7.2-4.7c0,3.8-0.2,7.6-0.4,11.3
	l2.4,0.2c0.3-4.3,0.4-8.6,0.5-13c0.2-0.1,0.4-0.3,0.6-0.4c2.8-1.7,5.5-3.4,8.2-5.2c0,0.4,0,0.8,0,1.3c-0.2,5.4-0.4,11-0.2,16.6
	l2.4-0.1c-0.3-5.5-0.1-11.1,0.2-16.4c0-1,0.1-2,0.1-3c2.8-1.9,5.5-3.9,8.2-6c0.3,9,0.4,18,0.3,26.9l2.4,0c0.1-9.6-0.1-19.3-0.4-28.9
	C191,371,193.8,368.3,196.4,365.3z"/>
<path class="st0" d="M257.2,365.3l-1.8-1.6c-2.1,2.4-4.2,4.6-6.4,6.6c-0.1-3-0.2-6.1-0.4-9.1l-2.4,0.1c0.2,3.7,0.3,7.3,0.5,11
	c-2.6,2.2-5.3,4.2-8,6.1c0.2-5.9,0.1-11.6-0.8-17.3l-2.4,0.4c1,6.1,0.9,12.2,0.7,18.6c-2.9,2-5.9,3.8-9,5.7
	c-0.1-7.9-0.7-15.8-1.7-23.4l-2.4,0.3c1.1,8,1.7,16.4,1.7,24.6c-2.4,1.5-4.9,3.1-7.4,4.7l-1.4-29.5l-2.4,0.1l1.5,31
	c-2.3,1.6-4.7,3.3-7,5.1l1.5,1.9c1.9-1.5,3.8-2.8,5.7-4.1l0.3,6.5l2.4-0.1l-0.4-8c2.4-1.6,4.8-3.2,7.2-4.7c0,3.8-0.2,7.6-0.4,11.3
	l2.4,0.2c0.3-4.3,0.4-8.6,0.5-13c0.2-0.1,0.4-0.3,0.6-0.4c2.8-1.7,5.5-3.4,8.2-5.2c0,0.4,0,0.8,0,1.3c-0.2,5.4-0.4,11-0.2,16.6
	l2.4-0.1c-0.3-5.5-0.1-11.1,0.2-16.4c0-1,0.1-2,0.1-3c2.8-1.9,5.5-3.9,8.2-6c0.3,9,0.4,18,0.3,26.9l2.4,0c0.1-9.6-0.1-19.3-0.4-28.9
	C251.9,371,254.6,368.3,257.2,365.3z"/>
<path class="st0" d="M318.1,365.3l-1.8-1.6c-2.1,2.4-4.2,4.6-6.4,6.6c-0.1-3-0.2-6.1-0.4-9.1l-2.4,0.1c0.2,3.7,0.3,7.3,0.5,11
	c-2.6,2.2-5.3,4.2-8,6.1c0.2-5.9,0.1-11.6-0.8-17.3l-2.4,0.4c1,6.1,0.9,12.2,0.7,18.6c-2.9,2-5.9,3.8-9,5.7
	c-0.1-7.9-0.7-15.8-1.7-23.4l-2.4,0.3c1.1,8,1.7,16.4,1.7,24.6c-2.4,1.5-4.9,3.1-7.4,4.7l-1.4-29.5l-2.4,0.1l1.5,31
	c-2.3,1.6-4.7,3.3-7,5.1l1.5,1.9c1.9-1.5,3.8-2.8,5.7-4.1l0.3,6.5l2.4-0.1l-0.4-8c2.4-1.6,4.8-3.2,7.2-4.7c0,3.8-0.2,7.6-0.4,11.3
	l2.4,0.2c0.3-4.3,0.4-8.6,0.5-13c0.2-0.1,0.4-0.3,0.6-0.4c2.8-1.7,5.5-3.4,8.2-5.2c0,0.4,0,0.8,0,1.3c-0.2,5.4-0.4,11-0.2,16.6
	l2.4-0.1c-0.3-5.5-0.1-11.1,0.2-16.4c0-1,0.1-2,0.1-3c2.8-1.9,5.5-3.9,8.2-6c0.3,9,0.4,18,0.3,26.9l2.4,0c0.1-9.6-0.1-19.3-0.4-28.9
	C312.7,371,315.4,368.3,318.1,365.3z"/>
<path class="st0" d="M378.9,365.3l-1.8-1.6c-2.1,2.4-4.2,4.6-6.4,6.6c-0.1-3-0.2-6.1-0.4-9.1l-2.4,0.1c0.2,3.7,0.3,7.3,0.5,11
	c-2.6,2.2-5.3,4.2-8,6.1c0.2-5.9,0.1-11.6-0.8-17.3l-2.4,0.4c1,6.1,0.9,12.2,0.7,18.6c-2.9,2-5.9,3.8-9,5.7
	c-0.1-7.9-0.7-15.8-1.7-23.4l-2.4,0.3c1.1,8,1.7,16.4,1.7,24.6c-2.4,1.5-4.9,3.1-7.4,4.7l-1.4-29.5l-2.4,0.1l1.5,31
	c-2.3,1.6-4.7,3.3-7,5.1l1.5,1.9c1.9-1.5,3.8-2.8,5.7-4.1l0.3,6.5l2.4-0.1l-0.4-8c2.4-1.6,4.8-3.2,7.2-4.7c0,3.8-0.2,7.6-0.4,11.3
	l2.4,0.2c0.3-4.3,0.4-8.6,0.5-13c0.2-0.1,0.4-0.3,0.6-0.4c2.8-1.7,5.5-3.4,8.2-5.2c0,0.4,0,0.8,0,1.3c-0.2,5.4-0.4,11-0.2,16.6
	l2.4-0.1c-0.3-5.5-0.1-11.1,0.2-16.4c0-1,0.1-2,0.1-3c2.8-1.9,5.5-3.9,8.2-6c0.3,9,0.4,18,0.3,26.9l2.4,0c0.1-9.6-0.1-19.3-0.4-28.9
	C373.5,371,376.2,368.3,378.9,365.3z"/>
<path class="st0" d="M439.7,365.3l-1.8-1.6c-2.1,2.4-4.2,4.6-6.4,6.6c-0.1-3-0.2-6.1-0.4-9.1l-2.4,0.1c0.2,3.7,0.3,7.3,0.5,11
	c-2.6,2.2-5.3,4.2-8,6.1c0.2-5.9,0.1-11.6-0.8-17.3l-2.4,0.4c1,6.1,0.9,12.2,0.7,18.6c-2.9,2-5.9,3.8-9,5.7
	c-0.1-7.9-0.7-15.8-1.7-23.4l-2.4,0.3c1.1,8,1.7,16.4,1.7,24.6c-2.4,1.5-4.9,3.1-7.4,4.7l-1.4-29.5l-2.4,0.1l1.5,31
	c-2.3,1.6-4.7,3.3-7,5.1l1.5,1.9c1.9-1.5,3.8-2.8,5.7-4.1l0.3,6.5l2.4-0.1l-0.4-8c2.4-1.6,4.8-3.2,7.2-4.7c0,3.8-0.2,7.6-0.4,11.3
	l2.4,0.2c0.3-4.3,0.4-8.6,0.5-13c0.2-0.1,0.4-0.3,0.6-0.4c2.8-1.7,5.5-3.4,8.2-5.2c0,0.4,0,0.8,0,1.3c-0.2,5.4-0.4,11-0.2,16.6
	l2.4-0.1c-0.3-5.5-0.1-11.1,0.2-16.4c0-1,0.1-2,0.1-3c2.8-1.9,5.5-3.9,8.2-6c0.3,9,0.4,18,0.3,26.9l2.4,0c0.1-9.6-0.1-19.3-0.4-28.9
	C434.3,371,437.1,368.3,439.7,365.3z"/>
<path class="st0" d="M500.5,365.3l-1.8-1.6c-2.1,2.4-4.2,4.6-6.4,6.6c-0.1-3-0.2-6.1-0.4-9.1l-2.4,0.1c0.2,3.7,0.3,7.3,0.5,11
	c-2.6,2.2-5.3,4.2-8,6.1c0.2-5.9,0.1-11.6-0.8-17.3l-2.4,0.4c1,6.1,0.9,12.2,0.7,18.6c-2.9,2-5.9,3.8-9,5.7
	c-0.1-7.9-0.7-15.8-1.7-23.4l-2.4,0.3c1.1,8,1.7,16.4,1.7,24.6c-2.4,1.5-4.9,3.1-7.4,4.7l-1.4-29.5l-2.4,0.1l1.5,31
	c-2.3,1.6-4.7,3.3-7,5.1l1.5,1.9c1.9-1.5,3.8-2.8,5.7-4.1l0.3,6.5l2.4-0.1l-0.4-8c2.4-1.6,4.8-3.2,7.2-4.7c0,3.8-0.2,7.6-0.4,11.3
	l2.4,0.2c0.3-4.3,0.4-8.6,0.5-13c0.2-0.1,0.4-0.3,0.6-0.4c2.8-1.7,5.5-3.4,8.2-5.2c0,0.4,0,0.8,0,1.3c-0.2,5.4-0.4,11-0.2,16.6
	l2.4-0.1c-0.3-5.5-0.1-11.1,0.2-16.4c0-1,0.1-2,0.1-3c2.8-1.9,5.5-3.9,8.2-6c0.3,9,0.4,18,0.3,26.9l2.4,0c0.1-9.6-0.1-19.3-0.4-28.9
	C495.2,371,497.9,368.3,500.5,365.3z"/>
<path class="st0" d="M561.4,365.3l-1.8-1.6c-2.1,2.4-4.2,4.6-6.4,6.6c-0.1-3-0.2-6.1-0.4-9.1l-2.4,0.1c0.2,3.7,0.3,7.3,0.5,11
	c-2.6,2.2-5.3,4.2-8,6.1c0.2-5.9,0.1-11.6-0.8-17.3l-2.4,0.4c1,6.1,0.9,12.2,0.7,18.6c-2.9,2-5.9,3.8-9,5.7
	c-0.1-7.9-0.7-15.8-1.7-23.4l-2.4,0.3c1.1,8,1.7,16.4,1.7,24.6c-2.4,1.5-4.9,3.1-7.4,4.7l-1.4-29.5l-2.4,0.1l1.5,31
	c-2.3,1.6-4.7,3.3-7,5.1l1.5,1.9c1.9-1.5,3.8-2.8,5.7-4.1l0.3,6.5l2.4-0.1l-0.4-8c2.4-1.6,4.8-3.2,7.2-4.7c0,3.8-0.2,7.6-0.4,11.3
	l2.4,0.2c0.3-4.3,0.4-8.6,0.5-13c0.2-0.1,0.4-0.3,0.6-0.4c2.8-1.7,5.5-3.4,8.2-5.2c0,0.4,0,0.8,0,1.3c-0.2,5.4-0.4,11-0.2,16.6
	l2.4-0.1c-0.3-5.5-0.1-11.1,0.2-16.4c0-1,0.1-2,0.1-3c2.8-1.9,5.5-3.9,8.2-6c0.3,9,0.4,18,0.3,26.9l2.4,0c0.1-9.6-0.1-19.3-0.4-28.9
	C556,371,558.7,368.3,561.4,365.3z"/>
<path class="st0" d="M622.2,365.3l-1.8-1.6c-2.1,2.4-4.2,4.6-6.4,6.6c-0.1-3-0.2-6.1-0.4-9.1l-2.4,0.1c0.2,3.7,0.3,7.3,0.5,11
	c-2.6,2.2-5.3,4.2-8,6.1c0.2-5.9,0.1-11.6-0.8-17.3l-2.4,0.4c1,6.1,0.9,12.2,0.7,18.6c-2.9,2-5.9,3.8-9,5.7
	c-0.1-7.9-0.7-15.8-1.7-23.4l-2.4,0.3c1.1,8,1.7,16.4,1.7,24.6c-2.4,1.5-4.9,3.1-7.4,4.7l-1.4-29.5l-2.4,0.1l1.5,31
	c-2.3,1.6-4.7,3.3-7,5.1l1.5,1.9c1.9-1.5,3.8-2.8,5.7-4.1l0.3,6.5l2.4-0.1l-0.4-8c2.4-1.6,4.8-3.2,7.2-4.7c0,3.8-0.2,7.6-0.4,11.3
	l2.4,0.2c0.3-4.3,0.4-8.6,0.5-13c0.2-0.1,0.4-0.3,0.6-0.4c2.8-1.7,5.5-3.4,8.2-5.2c0,0.4,0,0.8,0,1.3c-0.2,5.4-0.4,11-0.2,16.6
	l2.4-0.1c-0.3-5.5-0.1-11.1,0.2-16.4c0-1,0.1-2,0.1-3c2.8-1.9,5.5-3.9,8.2-6c0.3,9,0.4,18,0.3,26.9l2.4,0c0.1-9.6-0.1-19.3-0.4-28.9
	C616.8,371,619.5,368.3,622.2,365.3z"/>
<path class="st0" d="M701,365.3l-1.8-1.6c-2.1,2.4-4.2,4.6-6.4,6.6c-0.1-3-0.2-6.1-0.4-9.1l-2.4,0.1c0.2,3.7,0.3,7.3,0.5,11
	c-2.6,2.2-5.3,4.2-8,6.1c0.2-5.9,0.1-11.6-0.8-17.3l-2.4,0.4c1,6.1,0.9,12.2,0.7,18.6c-2.9,2-5.9,3.8-9,5.7
	c-0.1-7.9-0.7-15.8-1.7-23.4l-2.4,0.3c1.1,8,1.7,16.4,1.7,24.6c-2.4,1.5-4.9,3.1-7.4,4.7l-1.4-29.5l-2.4,0.1l1.5,31
	c-2.3,1.6-4.7,3.3-7,5.1l1.5,1.9c1.9-1.5,3.8-2.8,5.7-4.1l0.3,6.5l2.4-0.1l-0.4-8c2.4-1.6,4.8-3.2,7.2-4.7c0,3.8-0.2,7.6-0.4,11.3
	l2.4,0.2c0.3-4.3,0.4-8.6,0.5-13c0.2-0.1,0.4-0.3,0.6-0.4c2.8-1.7,5.5-3.4,8.2-5.2c0,0.4,0,0.8,0,1.3c-0.2,5.4-0.4,11-0.2,16.6
	l2.4-0.1c-0.3-5.5-0.1-11.1,0.2-16.4c0-1,0.1-2,0.1-3c2.8-1.9,5.5-3.9,8.2-6c0.3,9,0.4,18,0.3,26.9l2.4,0c0.1-9.6-0.1-19.3-0.4-28.9
	C695.6,371,698.4,368.3,701,365.3z"/>
<path class="st0" d="M761.8,365.3l-1.8-1.6c-2.1,2.4-4.2,4.6-6.4,6.6c-0.1-3-0.2-6.1-0.4-9.1l-2.4,0.1c0.2,3.7,0.3,7.3,0.5,11
	c-2.6,2.2-5.3,4.2-8,6.1c0.2-5.9,0.1-11.6-0.8-17.3l-2.4,0.4c1,6.1,0.9,12.2,0.7,18.6c-2.9,2-5.9,3.8-9,5.7
	c-0.1-7.9-0.7-15.8-1.7-23.4l-2.4,0.3c1.1,8,1.7,16.4,1.7,24.6c-2.4,1.5-4.9,3.1-7.4,4.7l-1.4-29.5l-2.4,0.1l1.5,31
	c-2.3,1.6-4.7,3.3-7,5.1l1.5,1.9c1.9-1.5,3.8-2.8,5.7-4.1l0.3,6.5l2.4-0.1l-0.4-8c2.4-1.6,4.8-3.2,7.2-4.7c0,3.8-0.2,7.6-0.4,11.3
	l2.4,0.2c0.3-4.3,0.4-8.6,0.5-13c0.2-0.1,0.4-0.3,0.6-0.4c2.8-1.7,5.5-3.4,8.2-5.2c0,0.4,0,0.8,0,1.3c-0.2,5.4-0.4,11-0.2,16.6
	l2.4-0.1c-0.3-5.5-0.1-11.1,0.2-16.4c0-1,0.1-2,0.1-3c2.8-1.9,5.5-3.9,8.2-6c0.3,9,0.4,18,0.3,26.9l2.4,0c0.1-9.6-0.1-19.3-0.4-28.9
	C756.5,371,759.2,368.3,761.8,365.3z"/>
<path class="st0" d="M822.7,365.3l-1.8-1.6c-2.1,2.4-4.2,4.6-6.4,6.6c-0.1-3-0.2-6.1-0.4-9.1l-2.4,0.1c0.2,3.7,0.3,7.3,0.5,11
	c-2.6,2.2-5.3,4.2-8,6.1c0.2-5.9,0.1-11.6-0.8-17.3l-2.4,0.4c1,6.1,0.9,12.2,0.7,18.6c-2.9,2-5.9,3.8-9,5.7
	c-0.1-7.9-0.7-15.8-1.7-23.4l-2.4,0.3c1.1,8,1.7,16.4,1.7,24.6c-2.4,1.5-4.9,3.1-7.4,4.7l-1.4-29.5l-2.4,0.1l1.5,31
	c-2.3,1.6-4.7,3.3-7,5.1l1.5,1.9c1.9-1.5,3.8-2.8,5.7-4.1l0.3,6.5l2.4-0.1l-0.4-8c2.4-1.6,4.8-3.2,7.2-4.7c0,3.8-0.2,7.6-0.4,11.3
	l2.4,0.2c0.3-4.3,0.4-8.6,0.5-13c0.2-0.1,0.4-0.3,0.6-0.4c2.8-1.7,5.5-3.4,8.2-5.2c0,0.4,0,0.8,0,1.3c-0.2,5.4-0.4,11-0.2,16.6
	l2.4-0.1c-0.3-5.5-0.1-11.1,0.2-16.4c0-1,0.1-2,0.1-3c2.8-1.9,5.5-3.9,8.2-6c0.3,9,0.4,18,0.3,26.9l2.4,0c0.1-9.6-0.1-19.3-0.4-28.9
	C817.3,371,820,368.3,822.7,365.3z"/>
<path class="st0" d="M883.5,365.3l-1.8-1.6c-2.1,2.4-4.2,4.6-6.4,6.6c-0.1-3-0.2-6.1-0.4-9.1l-2.4,0.1c0.2,3.7,0.3,7.3,0.5,11
	c-2.6,2.2-5.3,4.2-8,6.1c0.2-5.9,0.1-11.6-0.8-17.3l-2.4,0.4c1,6.1,0.9,12.2,0.7,18.6c-2.9,2-5.9,3.8-9,5.7
	c-0.1-7.9-0.7-15.8-1.7-23.4l-2.4,0.3c1.1,8,1.7,16.4,1.7,24.6c-2.4,1.5-4.9,3.1-7.4,4.7l-1.4-29.5l-2.4,0.1l1.5,31
	c-2.3,1.6-4.7,3.3-7,5.1l1.5,1.9c1.9-1.5,3.8-2.8,5.7-4.1l0.3,6.5l2.4-0.1l-0.4-8c2.4-1.6,4.8-3.2,7.2-4.7c0,3.8-0.2,7.6-0.4,11.3
	l2.4,0.2c0.3-4.3,0.4-8.6,0.5-13c0.2-0.1,0.4-0.3,0.6-0.4c2.8-1.7,5.5-3.4,8.2-5.2c0,0.4,0,0.8,0,1.3c-0.2,5.4-0.4,11-0.2,16.6
	l2.4-0.1c-0.3-5.5-0.1-11.1,0.2-16.4c0-1,0.1-2,0.1-3c2.8-1.9,5.5-3.9,8.2-6c0.3,9,0.4,18,0.3,26.9l2.4,0c0.1-9.6-0.1-19.3-0.4-28.9
	C878.1,371,880.8,368.3,883.5,365.3z"/>
</svg>
