<svg enable-background="new 0 0 1268 418" viewBox="0 0 1268 418" xmlns="http://www.w3.org/2000/svg" xmlns:xlink="http://www.w3.org/1999/xlink"><symbol id="a" viewBox="-24.6 -21 49.2 41.9"><path d="m24.6 16.8-1.8 1.6c-2.1-2.4-4.2-4.6-6.4-6.6-.1 3-.2 6.1-.4 9.1l-2.4-.1c.2-3.7.3-7.3.5-11-2.6-2.2-5.3-4.2-8-6.1.2 5.9.1 11.6-.8 17.3l-2.5-.4c1-6.1.9-12.2.7-18.6-2.9-2-5.9-3.8-9-5.7-.1 7.7-.7 15.7-1.7 23.4l-2.4-.3c1.1-8 1.7-16.4 1.7-24.6-2.4-1.5-4.9-3.1-7.4-4.7l-1.4 29.5-2.4-.1 1.5-31c-2.3-1.6-4.7-3.3-7-5.1l1.5-1.9c1.9 1.5 3.8 2.8 5.7 4.1l.3-6.5 2.4.1-.4 8c2.4 1.6 4.8 3.2 7.2 4.7 0-3.8-.2-7.6-.4-11.3l2.4-.2c.3 4.3.4 8.6.5 13 .2 0 .4.2.6.4 2.8 1.7 5.5 3.4 8.2 5.2 0-.4 0-.8 0-1.3-.2-5.5-.4-11-.2-16.7l2.4.1c-.3 5.5-.1 11.1.2 16.4 0 1 .1 2 .1 3 2.8 1.9 5.5 3.9 8.2 6 .3-9 .4-18 .3-26.9h2.4c.1 9.6-.1 19.3-.4 28.9 2.8 2.6 5.5 5.3 8.2 8.3z" fill="#3b3842"/></symbol><path d="m1222.9 49.5-2.4.1-2-40 2.4-.1m8.8 27.4c0 3.8-.2 7.5-.4 11.2l2.4.2c.3-4.3.4-15.7.4-15.7-.1-7.8-.7-15.6-1.7-23.1l-2.4.3c1.1 7.9 1.7 16.2 1.7 24.3m11.1-4.2v1.3c-.2 5.3-.4 10.9-.2 16.4l2.4-.1c-.3-5.4-.1-11 .2-16.2 0-1 .1-2 .1-3l.1-3.1c.2-5.8.1-11.5-.8-17.1l-2.4.4c1 6 .9 12.1.7 18.4" fill="#3b3842"/><text fill="#d3ccdd" font-family="'RobotoCondensed-Regular'" font-size="20" transform="translate(7.6118 33.4998)">Mon</text><use height="41.9" transform="matrix(.9893 0 0 -.9893 76.347 28.8356)" width="49.2" x="-24.6" xlink:href="#a" y="-21"/><use height="41.9" transform="matrix(.9893 0 0 -.9893 136.5447 28.8356)" width="49.2" x="-24.6" xlink:href="#a" y="-21"/><use height="41.9" transform="matrix(.9893 0 0 -.9893 196.7425 28.8356)" width="49.2" x="-24.6" xlink:href="#a" y="-21"/><use height="41.9" transform="matrix(.9893 0 0 -.9893 256.8413 28.8356)" width="49.2" x="-24.6" xlink:href="#a" y="-21"/><use height="41.9" transform="matrix(.9893 0 0 -.9893 317.0885 28.8356)" width="49.2" x="-24.6" xlink:href="#a" y="-21"/><use height="41.9" transform="matrix(.9893 0 0 -.9893 377.3852 28.8356)" width="49.2" x="-24.6" xlink:href="#a" y="-21"/><use height="41.9" transform="matrix(.9893 0 0 -.9893 437.7314 28.8356)" width="49.2" x="-24.6" xlink:href="#a" y="-21"/><use height="41.9" transform="matrix(.9893 0 0 -.9893 497.7806 28.8356)" width="49.2" x="-24.6" xlink:href="#a" y="-21"/><use height="41.9" transform="matrix(.9893 0 0 -.9893 557.8793 28.8356)" width="49.2" x="-24.6" xlink:href="#a" y="-21"/><use height="41.9" transform="matrix(.9893 0 0 -.9893 617.9287 28.8356)" width="49.2" x="-24.6" xlink:href="#a" y="-21"/><use height="41.9" transform="matrix(.9893 0 0 -.9893 695.884 28.8356)" width="49.2" x="-24.6" xlink:href="#a" y="-21"/><use height="41.9" transform="matrix(.9893 0 0 -.9893 756.1064 28.8356)" width="49.2" x="-24.6" xlink:href="#a" y="-21"/><use height="41.9" transform="matrix(.9893 0 0 -.9893 816.2795 28.8356)" width="49.2" x="-24.6" xlink:href="#a" y="-21"/><use height="41.9" transform="matrix(.9893 0 0 -.9893 876.4277 28.8356)" width="49.2" x="-24.6" xlink:href="#a" y="-21"/><use height="41.9" transform="matrix(.9893 0 0 -.9893 936.6007 28.8356)" width="49.2" x="-24.6" xlink:href="#a" y="-21"/><use height="41.9" transform="matrix(.9893 0 0 -.9893 996.7613 28.8356)" width="49.2" x="-24.6" xlink:href="#a" y="-21"/><use height="41.9" transform="matrix(.9893 0 0 -.9893 1056.9652 28.8356)" width="49.2" x="-24.6" xlink:href="#a" y="-21"/><use height="41.9" transform="matrix(.9893 0 0 -.9893 1117.1412 28.8356)" width="49.2" x="-24.6" xlink:href="#a" y="-21"/><use height="41.9" transform="matrix(.9893 0 0 -.9893 1177.2679 28.8356)" width="49.2" x="-24.6" xlink:href="#a" y="-21"/><path d="m1162.2 129.1-1.4-29.2-2.4.1 1.5 30.7.2 2.9.3 6.4 2.4-.1-.4-7.9" fill="#3b3842"/><text fill="#d3ccdd" font-family="'RobotoCondensed-Regular'" font-size="20" transform="translate(12.9927 124.2242)">Tue</text><use height="41.9" transform="matrix(.9893 0 0 -.9893 76.347 119.9603)" width="49.2" x="-24.6" xlink:href="#a" y="-21"/><use height="41.9" transform="matrix(.9893 0 0 -.9893 136.5447 119.9603)" width="49.2" x="-24.6" xlink:href="#a" y="-21"/><use height="41.9" transform="matrix(.9893 0 0 -.9893 196.7425 119.9603)" width="49.2" x="-24.6" xlink:href="#a" y="-21"/><use height="41.9" transform="matrix(.9893 0 0 -.9893 256.8413 119.9603)" width="49.2" x="-24.6" xlink:href="#a" y="-21"/><use height="41.9" transform="matrix(.9893 0 0 -.9893 317.0885 119.9603)" width="49.2" x="-24.6" xlink:href="#a" y="-21"/><use height="41.9" transform="matrix(.9893 0 0 -.9893 377.3852 119.9603)" width="49.2" x="-24.6" xlink:href="#a" y="-21"/><use height="41.9" transform="matrix(.9893 0 0 -.9893 437.7314 119.9603)" width="49.2" x="-24.6" xlink:href="#a" y="-21"/><use height="41.9" transform="matrix(.9893 0 0 -.9893 497.7806 119.9603)" width="49.2" x="-24.6" xlink:href="#a" y="-21"/><use height="41.9" transform="matrix(.9893 0 0 -.9893 557.8793 119.9603)" width="49.2" x="-24.6" xlink:href="#a" y="-21"/><use height="41.9" transform="matrix(.9893 0 0 -.9893 617.9287 119.9603)" width="49.2" x="-24.6" xlink:href="#a" y="-21"/><use height="41.9" transform="matrix(.9893 0 0 -.9893 695.884 119.9603)" width="49.2" x="-24.6" xlink:href="#a" y="-21"/><use height="41.9" transform="matrix(.9893 0 0 -.9893 756.1064 119.9603)" width="49.2" x="-24.6" xlink:href="#a" y="-21"/><use height="41.9" transform="matrix(.9893 0 0 -.9893 816.2795 119.9603)" width="49.2" x="-24.6" xlink:href="#a" y="-21"/><use height="41.9" transform="matrix(.9893 0 0 -.9893 876.4277 119.9603)" width="49.2" x="-24.6" xlink:href="#a" y="-21"/><use height="41.9" transform="matrix(.9893 0 0 -.9893 936.6007 119.9603)" width="49.2" x="-24.6" xlink:href="#a" y="-21"/><use height="41.9" transform="matrix(.9893 0 0 -.9893 996.7613 119.9603)" width="49.2" x="-24.6" xlink:href="#a" y="-21"/><use height="41.9" transform="matrix(.9893 0 0 -.9893 1056.9652 119.9603)" width="49.2" x="-24.6" xlink:href="#a" y="-21"/><use height="41.9" transform="matrix(.9893 0 0 -.9893 1117.1412 119.9603)" width="49.2" x="-24.6" xlink:href="#a" y="-21"/><text fill="#d3ccdd" font-family="'RobotoCondensed-Regular'" font-size="20" transform="translate(7.9146 214.0215)">Wed</text><use height="41.9" transform="matrix(.9893 0 0 -.9893 76.347 209.7)" width="49.2" x="-24.6" xlink:href="#a" y="-21"/><use height="41.9" transform="matrix(.9893 0 0 -.9893 136.5447 209.7)" width="49.2" x="-24.6" xlink:href="#a" y="-21"/><use height="41.9" transform="matrix(.9893 0 0 -.9893 196.7425 209.7)" width="49.2" x="-24.6" xlink:href="#a" y="-21"/><use height="41.9" transform="matrix(.9893 0 0 -.9893 256.8413 209.7)" width="49.2" x="-24.6" xlink:href="#a" y="-21"/><use height="41.9" transform="matrix(.9893 0 0 -.9893 317.0885 209.7)" width="49.2" x="-24.6" xlink:href="#a" y="-21"/><use height="41.9" transform="matrix(.9893 0 0 -.9893 377.3852 209.7)" width="49.2" x="-24.6" xlink:href="#a" y="-21"/><use height="41.9" transform="matrix(.9893 0 0 -.9893 437.7314 209.7)" width="49.2" x="-24.6" xlink:href="#a" y="-21"/><use height="41.9" transform="matrix(.9893 0 0 -.9893 497.7806 209.7)" width="49.2" x="-24.6" xlink:href="#a" y="-21"/><use height="41.9" transform="matrix(.9893 0 0 -.9893 557.8793 209.7)" width="49.2" x="-24.6" xlink:href="#a" y="-21"/><use height="41.9" transform="matrix(.9893 0 0 -.9893 617.9287 209.7)" width="49.2" x="-24.6" xlink:href="#a" y="-21"/><use height="41.9" transform="matrix(.9893 0 0 -.9893 695.884 209.7)" width="49.2" x="-24.6" xlink:href="#a" y="-21"/><use height="41.9" transform="matrix(.9893 0 0 -.9893 756.1064 209.7)" width="49.2" x="-24.6" xlink:href="#a" y="-21"/><use height="41.9" transform="matrix(.9893 0 0 -.9893 816.2795 209.7)" width="49.2" x="-24.6" xlink:href="#a" y="-21"/><use height="41.9" transform="matrix(.9893 0 0 -.9893 876.4277 209.7)" width="49.2" x="-24.6" xlink:href="#a" y="-21"/><use height="41.9" transform="matrix(.9893 0 0 -.9893 936.6007 209.7)" width="49.2" x="-24.6" xlink:href="#a" y="-21"/><use height="41.9" transform="matrix(.9893 0 0 -.9893 996.7613 209.7)" width="49.2" x="-24.6" xlink:href="#a" y="-21"/><use height="41.9" transform="matrix(.9893 0 0 -.9893 1056.9652 209.7)" width="49.2" x="-24.6" xlink:href="#a" y="-21"/><use height="41.9" transform="matrix(.9893 0 0 -.9893 1117.1412 209.7)" width="49.2" x="-24.6" xlink:href="#a" y="-21"/><use height="41.9" transform="matrix(.9893 0 0 -.9893 1177.2679 209.7)" width="49.2" x="-24.6" xlink:href="#a" y="-21"/><use height="41.9" transform="matrix(.9893 0 0 -.9893 1237.3947 209.7)" width="49.2" x="-24.6" xlink:href="#a" y="-21"/><text fill="#d3ccdd" font-family="'RobotoCondensed-Regular'" font-size="20" transform="translate(12.6997 305.5735)">Thu</text><use height="41.9" transform="matrix(.9893 0 0 -.9893 76.347 300.1321)" width="49.2" x="-24.6" xlink:href="#a" y="-21"/><use height="41.9" transform="matrix(.9893 0 0 -.9893 136.5447 300.1321)" width="49.2" x="-24.6" xlink:href="#a" y="-21"/><use height="41.9" transform="matrix(.9893 0 0 -.9893 196.7425 300.1321)" width="49.2" x="-24.6" xlink:href="#a" y="-21"/><use height="41.9" transform="matrix(.9893 0 0 -.9893 256.8413 300.1321)" width="49.2" x="-24.6" xlink:href="#a" y="-21"/><use height="41.9" transform="matrix(.9893 0 0 -.9893 317.0885 300.1321)" width="49.2" x="-24.6" xlink:href="#a" y="-21"/><use height="41.9" transform="matrix(.9893 0 0 -.9893 377.3852 300.1321)" width="49.2" x="-24.6" xlink:href="#a" y="-21"/><use height="41.9" transform="matrix(.9893 0 0 -.9893 437.7314 300.1321)" width="49.2" x="-24.6" xlink:href="#a" y="-21"/><use height="41.9" transform="matrix(.9893 0 0 -.9893 497.7806 300.1321)" width="49.2" x="-24.6" xlink:href="#a" y="-21"/><use height="41.9" transform="matrix(.9893 0 0 -.9893 557.8793 300.1321)" width="49.2" x="-24.6" xlink:href="#a" y="-21"/><use height="41.9" transform="matrix(.9893 0 0 -.9893 617.9287 300.1321)" width="49.2" x="-24.6" xlink:href="#a" y="-21"/><use height="41.9" transform="matrix(.9893 0 0 -.9893 695.884 300.1321)" width="49.2" x="-24.6" xlink:href="#a" y="-21"/><use height="41.9" transform="matrix(.9893 0 0 -.9893 756.1064 300.1321)" width="49.2" x="-24.6" xlink:href="#a" y="-21"/><use height="41.9" transform="matrix(.9893 0 0 -.9893 816.2795 300.1321)" width="49.2" x="-24.6" xlink:href="#a" y="-21"/><use height="41.9" transform="matrix(.9893 0 0 -.9893 876.4277 300.1321)" width="49.2" x="-24.6" xlink:href="#a" y="-21"/><use height="41.9" transform="matrix(.9893 0 0 -.9893 936.6007 300.1321)" width="49.2" x="-24.6" xlink:href="#a" y="-21"/><use height="41.9" transform="matrix(.9893 0 0 -.9893 996.7613 300.1321)" width="49.2" x="-24.6" xlink:href="#a" y="-21"/><use height="41.9" transform="matrix(.9893 0 0 -.9893 1056.9652 300.1321)" width="49.2" x="-24.6" xlink:href="#a" y="-21"/><use height="41.9" transform="matrix(.9893 0 0 -.9893 1117.1412 300.1321)" width="49.2" x="-24.6" xlink:href="#a" y="-21"/><use height="41.9" transform="matrix(.9893 0 0 -.9893 1177.2679 300.1321)" width="49.2" x="-24.6" xlink:href="#a" y="-21"/><text fill="#d3ccdd" font-family="'RobotoCondensed-Regular'" font-size="20" transform="translate(22.1626 394.5422)">Fri</text><use height="41.9" transform="matrix(.9893 0 0 -.9893 76.347 390.5643)" width="49.2" x="-24.6" xlink:href="#a" y="-21"/><use height="41.9" transform="matrix(.9893 0 0 -.9893 136.5447 390.5643)" width="49.2" x="-24.6" xlink:href="#a" y="-21"/><use height="41.9" transform="matrix(.9893 0 0 -.9893 196.7425 390.5643)" width="49.2" x="-24.6" xlink:href="#a" y="-21"/><use height="41.9" transform="matrix(.9893 0 0 -.9893 256.8413 390.5643)" width="49.2" x="-24.6" xlink:href="#a" y="-21"/><use height="41.9" transform="matrix(.9893 0 0 -.9893 317.0885 390.5643)" width="49.2" x="-24.6" xlink:href="#a" y="-21"/><use height="41.9" transform="matrix(.9893 0 0 -.9893 377.3852 390.5643)" width="49.2" x="-24.6" xlink:href="#a" y="-21"/><use height="41.9" transform="matrix(.9893 0 0 -.9893 437.7314 390.5643)" width="49.2" x="-24.6" xlink:href="#a" y="-21"/><use height="41.9" transform="matrix(.9893 0 0 -.9893 497.7806 390.5643)" width="49.2" x="-24.6" xlink:href="#a" y="-21"/><use height="41.9" transform="matrix(.9893 0 0 -.9893 557.8793 390.5643)" width="49.2" x="-24.6" xlink:href="#a" y="-21"/><use height="41.9" transform="matrix(.9893 0 0 -.9893 617.9287 390.5643)" width="49.2" x="-24.6" xlink:href="#a" y="-21"/><use height="41.9" transform="matrix(.9893 0 0 -.9893 695.884 390.5643)" width="49.2" x="-24.6" xlink:href="#a" y="-21"/><use height="41.9" transform="matrix(.9893 0 0 -.9893 756.1064 390.5643)" width="49.2" x="-24.6" xlink:href="#a" y="-21"/><use height="41.9" transform="matrix(.9893 0 0 -.9893 816.2795 390.5643)" width="49.2" x="-24.6" xlink:href="#a" y="-21"/><use height="41.9" transform="matrix(.9893 0 0 -.9893 876.4277 390.5643)" width="49.2" x="-24.6" xlink:href="#a" y="-21"/></svg>