<svg height="256" viewBox="0 0 256 256" width="256" xmlns="http://www.w3.org/2000/svg"><path d="m167.4 44c-.1.2-.1.3-.2.4s.2-.3.2-.4zm12.4-.6a5.8 5.8 0 0 1 -3.8 4.1h-.1l-3.1 4-1 1.2a1.5 1.5 0 0 1 -.5.6l-1.8 2.5c-2.7 3.4-5.5 6.7-8.3 10s-5.3 6.1-8.2 9-4.3 4.6-6.5 6.9v140.8a4.5 4.5 0 0 1 -9 0v-131.6a18.5 18.5 0 0 0 -1.4 1.4c-2.9 2.9-6.1 5.5-9 8.4-1.3 1.4-2.4 3.1-3.8 4.5s-3 2.9-4.5 4.3c-3 2.9-5.9 5.9-8.8 8.9l-2.9 3.1v103.1a4.6 4.6 0 0 1 -4.5 4.5 4.5 4.5 0 0 1 -4.5-4.5v-94.2l-1.2 1-1.1 1.2-.3.4a24.7 24.7 0 0 1 -2.1 2.7 52.3 52.3 0 0 1 -4.2 3.9c-1.4 1.4-2.6 2.9-3.9 4.4-2.5 3.1-5 6.1-7.7 9.1s-3.8 4.2-5.8 6.2v66.3a4.5 4.5 0 0 1 -4.5 4.5 4.5 4.5 0 0 1 -4.5-4.5v-56.9l-2.6 2.8c-2.8 3-5.5 6.2-8.3 9.2s-5.6 5.6-8.4 8.4-5.6 5.8-8.3 8.7l-3.3 3.3v22.4a4.5 4.5 0 0 1 -9 0v-13.4l-.2.2-.6.8-1.2 1.5-1.9 2.4-2.1 2.6-.9 1.1-.4.5h-.1c-.6.8-1.1 1.6-1.8 2.4l-.5.5a4.4 4.4 0 0 1 -4.2 3.3 4.5 4.5 0 0 1 -4.5-4.5 9 9 0 0 1 2.9-5.7l.3-.5 1.4-1.7 1.8-2.3c1.3-1.5 2.8-3.4 3.8-4.8q-.1.4.3-.3a1.8 1.8 0 0 0 .5-.7 1 1 0 0 0 .4-.5l1-1.1 2-2.1 4-3.9v-149.3a4.5 4.5 0 0 1 9 0v140.2c2.8-2.9 5.5-5.8 8.5-8.5 6.1-5.7 11.2-12.4 17.1-18.4l5.3-5.5v-109.7a4.6 4.6 0 0 1 4.5-4.5 4.5 4.5 0 0 1 4.5 4.5v100c1.1-1.1 2.1-2.3 3.1-3.5 2.6-3.1 4.9-6.3 7.8-9.2 1.3-1.3 2.9-2.5 4.2-3.9l.4-.5.2-.3.9-1.2a25.7 25.7 0 0 1 2.1-2.4c2.5-2.5 5.1-4.8 7.6-7.2v-73.1a4.5 4.5 0 0 1 4.5-4.5 4.6 4.6 0 0 1 4.5 4.5v63.7l1.4-1.4c2.9-3 6.1-5.8 8.9-8.8 1.4-1.5 2.5-3.2 4-4.6l4.6-4.3c3.2-2.8 6.2-5.8 9.1-8.9l2.4-2.4v-38a4.5 4.5 0 1 1 9 0v28.6c1.9-2 3.9-3.9 5.7-6s5.4-6.3 8-9.5l1.2-1.5.5-.7 1.8-2.3 2.4-3.1 1.1-1.3c.1-.1.2-.2.2-.3a30.7 30.7 0 0 1 2.8-3.5 8.1 8.1 0 0 1 5.3-2.8c3-.4 4.9 3.2 4.3 5.7zm-12.6 1c.1-.1.1-.2.2-.4s-.1.2-.2.4zm56.6-13a4.5 4.5 0 0 0 -4.5 4.5v186.1a4.5 4.5 0 0 0 4.5 4.5 4.7 4.7 0 0 0 4.5-4.5v-186.1a4.5 4.5 0 0 0 -4.5-4.5zm25.2-3a4.6 4.6 0 0 0 -4.5 4.5v192a4.5 4.5 0 0 0 4.5 4.5 4.6 4.6 0 0 0 4.5-4.5v-192a4.5 4.5 0 0 0 -4.5-4.5z"/></svg>