<svg height="256" viewBox="0 0 256 256" width="256" xmlns="http://www.w3.org/2000/svg"><path d="m187.3 151a16.5 16.5 0 1 1 -16.5-16.4 16.4 16.4 0 0 1 16.5 16.4zm9.8 19.7a14.3 14.3 0 1 0 14.3 14.3 14.3 14.3 0 0 0 -14.3-14.3zm-103-33.4a19.2 19.2 0 1 0 19.2-19.2 19.2 19.2 0 0 0 -19.2 19.2zm11.1-24.5a21.9 21.9 0 1 0 -30.9 0 21.8 21.8 0 0 0 30.9 0zm-45.6 6.4a33.5 33.5 0 1 0 33.4 33.5 33.5 33.5 0 0 0 -33.4-33.5zm193.4 8.8a126 126 0 1 1 -126-126 126 126 0 0 1 126 126zm-117.2 1.1a62.5 62.5 0 1 0 -62.5 62.4 62.5 62.5 0 0 0 62.5-62.4zm95.3 34.5a42.2 42.2 0 1 0 -42.2 42.2 42.2 42.2 0 0 0 42.2-42.2z"/></svg>