<svg height="256" viewBox="0 0 256 256" width="256" xmlns="http://www.w3.org/2000/svg"><path d="m253.2 59.4v-51.9c0-5-5.4-6.6-8.8-4.7h-233.1c-2.8-1.6-7-.8-8.4 2.5a6.6 6.6 0 0 0 -.4 5.5v236.9c0 5.1 5.4 6.7 8.8 4.8 33.8 0 67.6-.3 101.3-.6l105.7-1.1 28.2-.2a7.7 7.7 0 0 0 6.7-6.7zm-11.5-45.2v144.2h-22.1l-1.5.3h-.4l-1.5.2a6.8 6.8 0 0 0 -2.6 1.5l-.9 1.2a5.7 5.7 0 0 0 -.7 2.9v24.8h-18.3a5.5 5.5 0 0 0 -3.5 1.2 5.7 5.7 0 0 0 -4.2 5.5v17.3h-22.1v-17.4a5.9 5.9 0 0 0 -5.8-5.8c-1.1.1-15.8 1-22.1 1v-46.9c3.7 0 14.3.8 15.4.7a5.8 5.8 0 0 0 5.7-5.7v-16.4h13.5a5.8 5.8 0 0 0 5.7-5.7v-36.5a5.6 5.6 0 0 0 -8.9-4.7h-35.2v-61.7zm-121 0v67.3a5.9 5.9 0 0 0 5.7 5.8h38.5v24h-13.5a5.9 5.9 0 0 0 -5.7 5.8v15.6h-15.9a5.8 5.8 0 0 0 -5.7 5.8 7.1 7.1 0 0 0 .4 2v25.6h-20.2v-19.9a5.9 5.9 0 0 0 -5.7-5.8 7.1 7.1 0 0 0 -2.6.7h-16.7v-22.1a5.8 5.8 0 0 0 -5.7-5.7h-11.6v-20.9c0-3-2.6-5.9-5.7-5.7a7.1 7.1 0 0 0 -2.5.6h-26.1a5.9 5.9 0 0 0 -5.7 5.8 6.8 6.8 0 0 0 1.6 3.9v23.9h-9.6v-106.7zm56.2 225.6-115.4 1-47.5.2v-108.6h16.3a5.9 5.9 0 0 0 5.8-5.7 6.7 6.7 0 0 0 -1-3.1v-24.8h15.4v17.6a5.8 5.8 0 0 0 -.6 2.6 5.8 5.8 0 0 0 5.7 5.7h12.2v22.2a5.9 5.9 0 0 0 5.8 5.7h19.2v20.2a5.8 5.8 0 0 0 5.8 5.7 6.2 6.2 0 0 0 3-.9h22.9v19.2a5.9 5.9 0 0 0 5.8 5.8h22.1v15.4a5.9 5.9 0 0 0 4.3 5.5 5.5 5.5 0 0 0 3.3 1.2h28.6a5 5 0 0 0 3.2.9 5.8 5.8 0 0 0 5.7-5.7v-19.3h17a4.6 4.6 0 0 0 3.2 1 6.1 6.1 0 0 0 5-2.9 5.4 5.4 0 0 0 1.4-3.8 5.2 5.2 0 0 0 -.7-2.5v-22.5h18.3v69.2c-21.6.1-43.2.5-64.8.7z"/></svg>