<?xml version="1.0" encoding="utf-8"?>
<!-- Generator: Adobe Illustrator 19.2.0, SVG Export Plug-In . SVG Version: 6.00 Build 0)  -->
<svg version="1.1" id="Layer_1" xmlns="http://www.w3.org/2000/svg" xmlns:xlink="http://www.w3.org/1999/xlink" x="0px" y="0px"
	 width="1200px" height="1200px" viewBox="0 0 1200 1200" enable-background="new 0 0 1200 1200" xml:space="preserve">
<g>
	<g>
		<g>
			
				<line fill="none" stroke="#AFAFAF" stroke-width="4" stroke-miterlimit="10" x1="1106.771" y1="712.57" x2="1094.771" y2="712.57"/>
			
				<line fill="none" stroke="#AFAFAF" stroke-width="4" stroke-miterlimit="10" stroke-dasharray="24.3578,18.2684" x1="1076.503" y1="712.57" x2="147.86" y2="712.57"/>
			
				<line fill="none" stroke="#AFAFAF" stroke-width="4" stroke-miterlimit="10" x1="138.726" y1="712.57" x2="126.726" y2="712.57"/>
		</g>
	</g>
	<g>
		<text transform="matrix(1 0 0 1 436.2344 1196.3516)" fill="#7F7F7F" font-family="'Roboto-Regular'" font-size="65px">value scale</text>
	</g>
	<g>
		<text transform="matrix(1 0 0 1 173.6543 137.3379)" fill="#7F7F7F" font-family="'Roboto-Regular'" font-size="65px">value scale</text>
	</g>
	<g>
		<g>
			<polyline fill="none" stroke="#464A90" stroke-width="16" stroke-miterlimit="10" points="103,45.187 103,1020 1151.813,1020 			
				"/>
			<g>
				<polygon fill="#464A90" points="75.077,53.357 103,5 130.923,53.357 				"/>
			</g>
			<g>
				<polygon fill="#464A90" points="1143.643,1047.924 1192,1020 1143.643,992.076 				"/>
			</g>
		</g>
	</g>
	<g>
		<text transform="matrix(1 0 0 1 234.5176 1113.8906)" fill="#37246D" font-family="'Roboto-Medium'" font-size="46.5175px">10</text>
	</g>
	<g>
		<text transform="matrix(1 0 0 1 10.0078 874.2324)" fill="#37246D" font-family="'Roboto-Medium'" font-size="46.5175px">10</text>
	</g>
	<g>
		<text transform="matrix(1 0 0 1 1080.7695 874.2324)" fill="#37246D" font-family="'Roboto-Medium'" font-size="46.5175px">-10 %</text>
	</g>
	<g>
		<text transform="matrix(1 0 0 1 1099.377 582.5352)" fill="#37246D" font-family="'Roboto-Medium'" font-size="46.5175px">10 %</text>
	</g>
	<g>
		<text transform="matrix(1 0 0 1 37.918 1113.8926)" fill="#37246D" font-family="'Roboto-Medium'" font-size="46.5175px">0</text>
	</g>
	<g>
		<text transform="matrix(1 0 0 1 383.8477 1113.8906)" fill="#37246D" font-family="'Roboto-Medium'" font-size="46.5175px">20</text>
	</g>
	<g>
		<text transform="matrix(1 0 0 1 531.3789 1113.8906)" fill="#37246D" font-family="'Roboto-Medium'" font-size="46.5175px">30</text>
	</g>
	<g>
		<text transform="matrix(1 0 0 1 829.377 1113.8906)" fill="#37246D" font-family="'Roboto-Medium'" font-size="46.5175px">50</text>
	</g>
	<g>
		<text transform="matrix(1 0 0 1 982.8848 1113.8906)" fill="#37246D" font-family="'Roboto-Medium'" font-size="46.5175px">60</text>
	</g>
	<g>
		<text transform="matrix(1 0 0 1 1122.4355 727.7949)" fill="#37246D" font-family="'Roboto-Medium'" font-size="46.5175px">0 %</text>
	</g>
	<g>
		<text transform="matrix(1 0 0 1 679.4355 1113.8906)" fill="#37246D" font-family="'Roboto-Medium'" font-size="46.5175px">40</text>
	</g>
	<line fill="none" stroke="#464A90" stroke-width="4" stroke-miterlimit="10" x1="72" y1="713" x2="136" y2="713"/>
	<line fill="none" stroke="#464A90" stroke-width="4" stroke-miterlimit="10" x1="72" y1="564" x2="136" y2="564"/>
	<line fill="none" stroke="#464A90" stroke-width="4" stroke-miterlimit="10" x1="72" y1="415" x2="136" y2="415"/>
	<line fill="none" stroke="#464A90" stroke-width="4" stroke-miterlimit="10" x1="72" y1="861" x2="136" y2="861"/>
	<line fill="none" stroke="#464A90" stroke-width="4" stroke-miterlimit="10" x1="262" y1="1050" x2="262" y2="986"/>
	<line fill="none" stroke="#464A90" stroke-width="4" stroke-miterlimit="10" x1="410" y1="1052" x2="410" y2="987"/>
	<line fill="none" stroke="#464A90" stroke-width="4" stroke-miterlimit="10" x1="559" y1="1052" x2="559" y2="987"/>
	<line fill="none" stroke="#464A90" stroke-width="4" stroke-miterlimit="10" x1="708" y1="1050" x2="708" y2="986"/>
	<line fill="none" stroke="#464A90" stroke-width="4" stroke-miterlimit="10" x1="857" y1="1050" x2="857" y2="986"/>
	<line fill="none" stroke="#464A90" stroke-width="4" stroke-miterlimit="10" x1="1006" y1="1050" x2="1006" y2="986"/>
	<g>
		<text transform="matrix(1 0 0 1 4.543 730.6602)" fill="#37246D" font-family="'Roboto-Medium'" font-size="46.5175px">20</text>
	</g>
	<g>
		<text transform="matrix(1 0 0 1 4.5977 582.5312)" fill="#37246D" font-family="'Roboto-Medium'" font-size="46.5175px">30</text>
	</g>
	<g>
		<text transform="matrix(1 0 0 1 2 430.3965)" fill="#37246D" font-family="'Roboto-Medium'" font-size="46.5175px">40</text>
	</g>
	<line fill="none" stroke="#464A90" stroke-width="4" stroke-miterlimit="10" x1="72" y1="266" x2="136" y2="266"/>
	<g>
		<text transform="matrix(1 0 0 1 2 281.541)" fill="#37246D" font-family="'Roboto-Medium'" font-size="46.5175px">50</text>
	</g>
	<line fill="none" stroke="#464A90" stroke-width="4" stroke-miterlimit="10" x1="72" y1="122" x2="136" y2="122"/>
	<g>
		<text transform="matrix(1 0 0 1 2 137.3359)" fill="#37246D" font-family="'Roboto-Medium'" font-size="46.5175px">60</text>
	</g>
	<polyline fill="none" stroke="#7581BA" stroke-width="9.3035" stroke-miterlimit="10" points="141.117,780.021 173.68,733.503 
		220.197,882.359 292.299,531.152 343.469,791.65 385.334,628.839 443.481,863.753 473.718,724.2 515.583,754.436 587.686,342.756 
		613.27,633.491 650.484,419.51 692.35,847.471 729.564,614.884 759.8,793.976 815.622,626.513 843.532,714.896 883.072,610.232 
		915.634,428.814 950.522,817.235 985.274,749.267 1010.995,882.359 1039.902,644.602 1059.257,803.28 1099.378,781.184 	"/>
</g>
</svg>
