<?xml version="1.0" encoding="utf-8"?>
<!-- Generator: Adobe Illustrator 22.1.0, SVG Export Plug-In . SVG Version: 6.00 Build 0)  -->
<svg version="1.1" xmlns="http://www.w3.org/2000/svg" xmlns:xlink="http://www.w3.org/1999/xlink" x="0px" y="0px"
	 viewBox="0 0 1268 418" enable-background="new 0 0 1268 418" xml:space="preserve">
<g id="Layer_1">
	<g>
		<polyline fill="none" stroke="#C4C4C4" stroke-miterlimit="10" points="55,2 55,374.4 1265.9,374.4 		"/>
		<line fill="none" stroke="#C4C4C4" stroke-miterlimit="10" x1="163" y1="383.9" x2="163" y2="374.4"/>
		<line fill="none" stroke="#C4C4C4" stroke-miterlimit="10" x1="275.3" y1="383.9" x2="275.3" y2="374.4"/>
		<line fill="none" stroke="#C4C4C4" stroke-miterlimit="10" x1="380.6" y1="383.9" x2="380.6" y2="374.4"/>
		<line fill="none" stroke="#C4C4C4" stroke-miterlimit="10" x1="490.8" y1="383.9" x2="490.8" y2="374.4"/>
		<line fill="none" stroke="#C4C4C4" stroke-miterlimit="10" x1="595.8" y1="383.9" x2="595.8" y2="374.4"/>
		<line fill="none" stroke="#C4C4C4" stroke-miterlimit="10" x1="704.8" y1="383.9" x2="704.8" y2="374.4"/>
		<line fill="none" stroke="#C4C4C4" stroke-miterlimit="10" x1="811.3" y1="383.9" x2="811.3" y2="374.4"/>
		<line fill="none" stroke="#C4C4C4" stroke-miterlimit="10" x1="918.3" y1="383.9" x2="918.3" y2="374.4"/>
		<line fill="none" stroke="#C4C4C4" stroke-miterlimit="10" x1="1028.2" y1="383.9" x2="1028.2" y2="374.4"/>
		<line fill="none" stroke="#C4C4C4" stroke-miterlimit="10" x1="1136.3" y1="383.9" x2="1136.3" y2="374.4"/>
		<line fill="none" stroke="#C4C4C4" stroke-miterlimit="10" x1="1243" y1="383.9" x2="1243" y2="374.4"/>
		<g>
			<line fill="none" stroke="#C4C4C4" stroke-miterlimit="10" x1="45.4" y1="10.4" x2="55.4" y2="10.4"/>
			<line fill="none" stroke="#C4C4C4" stroke-miterlimit="10" x1="45.4" y1="301.6" x2="55.4" y2="301.6"/>
			<line fill="none" stroke="#C4C4C4" stroke-miterlimit="10" x1="45.4" y1="228.8" x2="55.4" y2="228.8"/>
			<line fill="none" stroke="#C4C4C4" stroke-miterlimit="10" x1="45.4" y1="156" x2="55.4" y2="156"/>
			<line fill="none" stroke="#C4C4C4" stroke-miterlimit="10" x1="45.4" y1="83.2" x2="55.4" y2="83.2"/>
		</g>
	</g>
	<polygon fill="#67588E" points="1263.4,194.6 1258,257.8 1254,245.2 1251.8,262 1247.4,213.9 1242,231.8 1237.2,200.5 
		1232.5,236.6 1227.3,194.1 1222.4,228.3 1218.3,217 1214.5,252.3 1210.3,213.5 1204.4,248.4 1201.9,237.6 1198.7,243.2 
		1195.7,217.5 1191.9,230.7 1187.4,192.6 1181.5,219.5 1175.3,175.7 1171.7,226.2 1167.8,209.6 1164.1,230.8 1159.9,217.1 
		1158.9,259.4 1155.4,245.3 1153.9,288.5 1151.8,276.7 1149.1,291.6 1145.3,264.3 1143.3,272.2 1141.1,225.7 1138.4,242.9 
		1135.1,214.1 1131.9,235.1 1128.9,224.1 1126.7,250.2 1124.5,238.1 1120.9,264.4 1117,239.5 1113.7,248.4 1109.1,213.8 
		1102.9,241.7 1096.6,211.6 1092.2,235.8 1089.8,223.9 1086.5,243.3 1084.1,203.5 1081.1,213.9 1078.9,181.5 1073.3,215.8 
		1069.5,199 1065.2,213 1060.4,168.8 1055.6,211.7 1052.8,198.6 1049.4,227.4 1045.1,197.9 1039.1,242.9 1034.9,216.7 1031.5,262.9 
		1027.9,246 1024.1,255.3 1020.6,227.1 1017.1,243.6 1013.9,215.2 1009.8,232.4 1004.8,197.4 1002,217 995,172.4 990.7,213.4 
		985.3,197.6 981.1,215.8 976,176.5 973.1,199.5 971,188.4 966.8,227.6 964.6,219 961.3,248.7 957.3,212.3 954.9,222.5 951.9,193.2 
		948,215.8 944.3,152.2 939,178.1 934.6,162.5 931.1,186 927.1,170.1 923.9,190.9 919.7,179.3 916.5,187.3 912.4,168.6 908.7,189.5 
		905,161.4 899.6,198.8 895.4,146 891.9,162.1 886.5,126 881.1,178.6 876.3,146.8 871.7,186.2 867.1,155.3 865.1,180.1 862.9,167.8 
		859.1,193 855.3,160.1 851.7,176.5 846.8,137 842.3,167.5 840.3,151.4 836.3,166.2 834,141.9 829.4,178.2 824.7,136.3 820,151.3 
		816.2,113.9 811,138 806.6,121.2 801.7,145 799.4,102.1 796.4,111.8 791.4,58.5 785.9,106.1 781.8,64.3 777.1,81.2 772.8,40.1 
		766.7,86.1 762.7,66 758.2,113 754.2,80.9 750.8,112.1 747.4,96.2 743,123.3 740.1,113.9 736.3,131.9 732.2,90.4 729.1,109.7 
		725.2,58.6 718.7,95.7 716.3,67.7 712.4,81.4 708.5,46.4 703,81.3 699.7,67.4 694.6,85.2 688.4,54 686,80.9 684,70.5 680.6,110.9 
		678.2,91.6 675.7,104.3 671.4,80.5 664.1,110.5 657.8,82.3 653.3,115.8 651,107 646.9,132.9 643.4,106.6 641.2,118.7 639,92.5 
		636.1,102.9 633.6,76.3 629.5,111.4 626.7,94.2 624.6,140.7 622.6,132.8 618.8,160.1 616,144.7 613.9,159.1 611.7,129.4 607,154.9 
		601.6,120.9 596.2,146.9 591,105 585.1,154.2 581,135.9 576.6,173.7 573.8,161.8 570,197.6 564.2,161.5 562.4,184.7 559,172.5 
		556.2,194.8 550.3,146.7 547,178.6 541.5,153.9 537.1,198.6 531.9,173.6 527.5,190.3 522.3,166.3 518.5,203.7 513.8,188.7 
		509.1,230.6 504.5,194.2 501.8,222.4 498.5,202.1 495.3,226.6 492,187.2 486.8,228.9 483.2,212.4 479.2,246.7 473.6,220.3 
		467.1,243 461.9,195.7 456.7,219.5 452.6,180.6 446.6,214.8 443.1,198.4 438.9,251.1 433.5,213.7 429.4,245.8 426.5,222 
		419.3,240.1 416.8,232.1 413.7,242.2 411.6,221.8 407.5,238.4 403.8,214 400.6,229.2 396.2,201.8 390.6,269 386.6,245.5 
		383.6,274.9 381.3,265 377,297.1 372.7,239 365.8,254.6 362.5,228.9 357.4,268.1 353.2,250 347.8,265.7 343.5,224.8 336.5,269.4 
		333.7,249.7 328.7,284.7 324.6,267.6 321.4,296 317.9,279.5 314.5,306.9 310.8,294.8 306.9,315.3 303,276.2 298.3,295.2 296,243.6 
		289.2,280.7 285.7,250.9 282.9,264.1 279.1,230.3 273.6,265.2 270.3,251.3 265.4,268.3 261.8,236.6 255.9,277.5 251.4,248.2 
		246.1,287.1 242,264.4 234.7,294.4 228.4,266.2 224,299.7 221.6,290.9 217.6,316.8 214,290.4 211.8,303 207,257.2 201.2,297.6 
		197.3,280.5 195.3,323.4 192.1,307.9 189.2,342.6 186.7,329.1 184.5,341.7 181.9,295.4 178.2,312.2 174.8,261 168.7,283 
		164.8,235.2 157.7,272.7 153.1,246 145.7,278.7 142.7,270.8 139.9,294.7 137.9,289.7 133.8,303.1 128.1,289.8 124.3,307.6 
		120.2,269.4 116.1,280.7 111.5,248.7 105.3,274.5 101.2,255.2 95.3,283.8 91.3,264.8 86,322 80,283.7 76,302.8 66.1,242 
		55.5,312.7 55.5,326.2 66.2,255 75.7,313.7 79.7,294.8 86.5,338.2 92.1,278.2 95.3,293.6 101.2,264.9 105.2,283.6 111,259.4 
		115.2,288.8 119.1,278.1 123.7,320.2 128.8,296.4 134.2,308.9 138.1,295.7 140.9,302.8 143.7,279 146.3,285.5 152.8,256.3 
		157.6,284 164,250.1 167.7,294.4 173.6,273 177.2,326.3 180.7,310.2 183.4,358.9 186.7,340.4 189.9,357.9 192.9,321.8 196.6,339.3 
		198.6,295 201.7,308.4 206.7,273.6 211.2,317.2 213.7,303.3 217.4,330.7 222.1,300.6 224.6,310 228.9,277.6 234.6,303.2 241.7,274 
		246.4,299.9 251.5,262.2 255.9,291 261.6,252.1 264.6,278.5 270.1,259.2 274,275.5 278.8,245.3 282.3,276.7 285.1,263.3 
		288.8,294.1 294.8,261.3 296.9,309.1 302.1,288 306.2,329.2 311.2,303 315.4,316.4 318.4,291.5 322.1,308.4 325.3,279.2 
		329.2,295.4 333.7,263.7 336.5,282.7 343.1,240.2 346.8,275 352.8,257.2 358,279.4 362.5,244.4 364.7,261.9 371.3,247.1 
		376.5,316.3 381.9,276.1 384.4,287.1 387.1,260.4 391.3,284.8 396.8,218.5 400.3,240.3 403.4,225.2 407,248.6 410.8,233.3 
		412.7,252.3 416.8,238.9 419.1,246.1 425.5,230.1 429.3,261.9 433.6,228.5 439.4,269.1 444,212.1 446.9,225.2 452.1,195.1 
		456,232.1 461.2,208 466.3,253.4 473.3,228.6 479.8,259.1 483.8,224.5 487.4,240.7 491.6,206.4 495,245.5 498.7,215.8 502.4,237.7 
		504.8,212.4 509.2,247.6 514.7,198.3 519.6,213.6 523,179 527.3,198.9 531.7,182.3 537.8,211.9 542.2,166.4 547.8,191 550.5,164.6 
		556.2,211 559.8,182.6 563.5,196.2 564.9,178.5 570.4,212.8 574.5,173.6 577.3,185.2 581.6,148 585.6,166.1 591,121.5 595.6,159.1 
		601.3,132 606.8,166.9 610.8,145.1 613.2,177.2 616.2,157 619,172.7 623.2,143.2 626,154.3 627.8,113.6 629.8,125.9 633.4,95.3 
		635.2,114 637.9,103.9 640.5,133.8 643.1,119.4 646.8,146.8 651.5,116.7 654,126.1 658.3,93.7 664,119.3 671.1,90.2 675.5,114.9 
		677.8,104 681,130.3 684.8,85 686.8,95.1 689.2,68.2 694.2,93.8 699.5,75.3 703.4,91.6 708.2,61.4 711.5,91.6 715.2,78.7 
		718,111.3 724.4,74.7 728.4,126.9 731.7,106 735.6,144.8 740.5,121.9 743.6,132.2 747.6,107 751.4,124.5 754.3,98.1 758.4,131.4 
		763.4,79.7 767.1,98.3 772.6,57.1 776.2,91.8 780.9,75.1 785.7,125 791.2,77.6 795.4,122 798,113.5 800.5,160.7 806.8,130 
		811.2,146.5 815.5,126.7 819,161.2 823.8,145.9 829.3,195.3 833.7,160 835.4,177.4 839.6,161.8 842.2,182.2 846.6,151.9 
		851.1,188.3 854.7,172.1 858.9,208.1 863.1,180.4 865.7,196 867.7,172.8 871.9,201.4 876.6,161.8 881.5,194.7 886.9,141.9 
		891.6,173.1 894.5,159.7 899.1,216.8 904.9,176.1 908.3,202.6 912.6,178.8 916,194.1 919.6,185 924.7,198.9 927.5,180.3 
		931.5,196.2 935.2,172 939.3,186.7 943.2,167.5 947,233.3 951.4,208 954.1,234.7 956.6,224.1 961.2,266.8 965.4,229.9 967.7,238.7 
		971.5,202.2 973.4,212.3 976,192.1 980.5,227 985.7,204.9 991.7,222.6 995.4,187.8 1002,230.4 1004.8,211.3 1009.3,243 
		1013.2,226.8 1016.5,256 1020.1,239.2 1023,263.2 1027.3,252.8 1032.4,276.9 1035.6,234 1039.2,256.7 1045.2,212.3 1049.6,242.6 
		1053.4,210.9 1056.2,224.3 1060.4,187.2 1064.2,223 1069.2,206.7 1073.7,226.2 1078.1,199 1079.8,225.2 1082.8,215 1085.6,260.9 
		1090,234.8 1092.3,246.4 1096.7,222.1 1102.8,251.1 1108.6,225.2 1112.7,256.5 1116.2,247.3 1121.1,278.4 1124.8,251 1127.4,265.4 
		1129.9,235.4 1132.5,244.8 1134.8,229.3 1138,257.5 1140,245.1 1141.9,285.8 1144.7,274.7 1148.9,304.2 1151.8,288 1155.2,307.3 
		1156.9,259.6 1160.8,275 1160.8,266.9 1161.6,229.5 1164.6,239.3 1168.1,219.6 1172.7,239.7 1176,194.5 1181.1,230.8 1186.8,204.7 
		1191.1,240.8 1194.9,227.6 1197.5,249.6 1201.1,243.1 1204.6,258.8 1209.9,228 1214.5,270.8 1219.4,225.8 1223.3,236.5 
		1227.2,209.3 1232.5,252.7 1237.4,214.9 1241.3,240.9 1246.3,224.3 1251.5,280 1254.8,254.4 1259.2,268 1264.2,208.8 1266,217.8 
		1266,207.5 	"/>
	<g>
		<g>
			<text transform="matrix(1 0 0 1 576.2087 414.7953)" fill="#D1CDC9" font-family="'RobotoCondensed-Regular'" font-size="19px">2014</text>
		</g>
		<g>
			<text transform="matrix(1 0 0 1 791.3481 414.7953)" fill="#D1CDC9" font-family="'RobotoCondensed-Regular'" font-size="19px">2016</text>
		</g>
		<g>
			<text transform="matrix(1 0 0 1 1007.3481 414.7953)" fill="#D1CDC9" font-family="'RobotoCondensed-Regular'" font-size="19px">2018</text>
		</g>
		<g>
			<text transform="matrix(1 0 0 1 360.1404 414.7953)" fill="#D1CDC9" font-family="'RobotoCondensed-Regular'" font-size="19px">2012</text>
		</g>
		<g>
			<text transform="matrix(1 0 0 1 144.1401 414.7953)" fill="#D1CDC9" font-family="'RobotoCondensed-Regular'" font-size="19px">2010</text>
		</g>
		<g>
			<text transform="matrix(1 0 0 1 1222.8684 414.7953)" fill="#D1CDC9" font-family="'RobotoCondensed-Regular'" font-size="19px">2020</text>
		</g>
	</g>
	<g>
		<text transform="matrix(1 0 0 1 8.3037 19.88)" fill="#D1CDC9" font-family="'RobotoCondensed-Regular'" font-size="19px">100</text>
	</g>
	<text transform="matrix(1 0 0 1 17.6835 239.4573)" fill="#D1CDC9" font-family="'RobotoCondensed-Regular'" font-size="19px">40</text>
	<text transform="matrix(1 0 0 1 17.6835 167.4573)" fill="#D1CDC9" font-family="'RobotoCondensed-Regular'" font-size="19px">60</text>
	<text transform="matrix(1 0 0 1 17.6836 93.4573)" fill="#D1CDC9" font-family="'RobotoCondensed-Regular'" font-size="19px">80</text>
	<text transform="matrix(1 0 0 1 17.6835 311.8804)" fill="#D1CDC9" font-family="'RobotoCondensed-Regular'" font-size="19px">20</text>
</g>
<g id="Layer_2">
</g>
<g id="Layer_3">
</g>
</svg>
