<svg height="359.3" viewBox="0 0 659 359.3" width="659" xmlns="http://www.w3.org/2000/svg"><path d="m43.4 23v9.1h599.9v-9.1" fill="none" stroke="#7c7c7c" stroke-width="1.2"/><path d="m43.4 31.4v-8.4" fill="none" stroke="#7c7c7c" stroke-width="1.2"/><text fill="#7e7e7e" font-family="Roboto Mono" font-size="11" transform="translate(32.8 18.8)">Jan.</text><path d="m131 31.4v-8.4" fill="none" stroke="#7c7c7c" stroke-width="1.2"/><text fill="#7e7e7e" font-family="Roboto Mono" font-size="11" transform="translate(119.7 18.8)">Feb.</text><path d="m210.1 31.4v-8.4" fill="none" stroke="#7c7c7c" stroke-width="1.2"/><text fill="#7e7e7e" font-family="Roboto Mono" font-size="11" transform="translate(194.5 18.8)">March</text><path d="m297.6 31.4v-8.4" fill="none" stroke="#7c7c7c" stroke-width="1.2"/><text fill="#7e7e7e" font-family="Roboto Mono" font-size="11" transform="translate(286.4 18.8)">April</text><path d="m382.4 31.4v-8.4" fill="none" stroke="#7c7c7c" stroke-width="1.2"/><text fill="#7e7e7e" font-family="Roboto Mono" font-size="11" transform="translate(371.8 18.8)">May</text><path d="m470 31.4v-8.4" fill="none" stroke="#7c7c7c" stroke-width="1.2"/><text fill="#7e7e7e" font-family="Roboto Mono" font-size="11" transform="translate(457.8 18.8)">June</text><path d="m554.8 31.4v-8.4" fill="none" stroke="#7c7c7c" stroke-width="1.2"/><text fill="#7e7e7e" font-family="Roboto Mono" font-size="11" transform="translate(544.8 18.8)">July</text><text fill="#7e7e7e" font-family="Roboto Mono" font-size="11" transform="translate(630.8 18.8)">Aug.</text><path d="m34.2 351.8h9.1v-319.7h-9.1" fill="none" stroke="#7c7c7c" stroke-width="1.2"/><text fill="#707070" font-family="Roboto Mono" font-size="11" transform="translate(5 342.7)">2008</text><text fill="#707070" font-family="Roboto Mono" font-size="11" transform="translate(5 312)">2009</text><text fill="#707070" font-family="Roboto Mono" font-size="11" transform="translate(5 281.3)">2010</text><text fill="#707070" font-family="Roboto Mono" font-size="11" transform="translate(5.8 250.6)">2011</text><text fill="#707070" font-family="Roboto Mono" font-size="11" transform="translate(5 219.9)">2012</text><text fill="#707070" font-family="Roboto Mono" font-size="11" transform="translate(5 189.2)">2013</text><text fill="#707070" font-family="Roboto Mono" font-size="11" transform="translate(5 158.5)">2014</text><text fill="#707070" font-family="Roboto Mono" font-size="11" transform="translate(5 127.8)">2015</text><text fill="#707070" font-family="Roboto Mono" font-size="11" transform="translate(5 97.1)">2016</text><text fill="#707070" font-family="Roboto Mono" font-size="11" transform="translate(5 66.4)">2017</text><path d="m42.7 62.1h607.4" fill="none" stroke="#7c7c7c" stroke-width="1.2"/><path d="m478.2 62.1a22.2 22.2 0 1 1 44.4 0" fill="#d9d9d9" fill-opacity=".7" stroke="#333" stroke-width=".42"/><path d="m383.5 62.1a20.8 20.8 0 0 1 41.7 0" fill="#d9d9d9" fill-opacity=".7" stroke="#333" stroke-width=".42"/><path d="m262.4 62.1a20.4 20.4 0 0 1 40.7 0" fill="#d9d9d9" fill-opacity=".7" stroke="#333" stroke-width=".42"/><path d="m206 62.1a20.4 20.4 0 0 1 40.7 0" fill="#d9d9d9" fill-opacity=".7" stroke="#333" stroke-width=".42"/><path d="m187.7 62.1a18.9 18.9 0 0 1 37.7 0" fill="#d9d9d9" fill-opacity=".7" stroke="#333" stroke-width=".42"/><path d="m363.4 62.1a18.3 18.3 0 1 1 36.6 0" fill="#949494" fill-opacity=".7" stroke="#333" stroke-width=".42"/><path d="m152.6 62.1a17.2 17.2 0 0 1 34.4 0" fill="#949494" fill-opacity=".7" stroke="#333" stroke-width=".42"/><path d="m84.5 62.1a14.7 14.7 0 1 1 29.5 0" fill="#d9d9d9" fill-opacity=".7" stroke="#333" stroke-width=".42"/><path d="m42.7 92.8h607.4" fill="none" stroke="#7c7c7c" stroke-width="1.2"/><path d="m527.4 92.8a26.7 26.7 0 0 1 53.3 0" fill="#fbfbfb" fill-opacity=".7" stroke="#333" stroke-width=".42"/><path d="m298.5 92.8a26.7 26.7 0 0 1 53.3 0" fill="#d9d9d9" fill-opacity=".7" stroke="#333" stroke-width=".42"/><path d="m318.6 92.8a23.5 23.5 0 0 1 47 0" fill="#949494" fill-opacity=".7" stroke="#333" stroke-width=".42"/><path d="m353.8 92.8a22.2 22.2 0 1 1 44.4 0" fill="#d9d9d9" fill-opacity=".7" stroke="#333" stroke-width=".42"/><path d="m213.1 92.8a21.8 21.8 0 0 1 43.5 0" fill="#949494" fill-opacity=".7" stroke="#333" stroke-width=".42"/><path d="m251.2 92.8a20.4 20.4 0 0 1 40.7 0" fill="#d9d9d9" fill-opacity=".7" stroke="#333" stroke-width=".42"/><path d="m385.5 92.8a18.9 18.9 0 0 1 37.7 0" fill="#d9d9d9" fill-opacity=".7" stroke="#333" stroke-width=".42"/><path d="m616 92.8a17.2 17.2 0 0 1 34.4 0" fill="#d9d9d9" fill-opacity=".7" stroke="#333" stroke-width=".42"/><path d="m239.2 92.8a15.4 15.4 0 1 1 30.8 0" fill="#d9d9d9" fill-opacity=".7" stroke="#333" stroke-width=".42"/><path d="m428.5 92.8a15.4 15.4 0 1 1 30.8 0" fill="#d9d9d9" fill-opacity=".7" stroke="#333" stroke-width=".42"/><path d="m177.7 92.8a14.7 14.7 0 1 1 29.5 0" fill="#d9d9d9" fill-opacity=".7" stroke="#333" stroke-width=".42"/><path d="m42.7 123.5h607.4" fill="none" stroke="#7c7c7c" stroke-width="1.2"/><path d="m526.5 123.5a30.5 30.5 0 0 1 60.9 0" fill="#fbfbfb" fill-opacity=".7" stroke="#333" stroke-width=".42"/><path d="m150.8 123.5a24.7 24.7 0 0 1 49.5 0" fill="#ccc" fill-opacity=".7" stroke="#333" stroke-width=".42"/><path d="m424 123.5a22.7 22.7 0 0 1 45.3 0" fill="#949494" fill-opacity=".7" stroke="#333" stroke-width=".42"/><path d="m298.9 123.5a17.8 17.8 0 1 1 35.6 0" fill="#d9d9d9" fill-opacity=".7" stroke="#333" stroke-width=".42"/><path d="m385.5 123.5a16 16 0 1 1 32 0" fill="#d9d9d9" fill-opacity=".7" stroke="#333" stroke-width=".42"/><path d="m331.8 123.5a16 16 0 0 1 32 0" fill="#d9d9d9" fill-opacity=".7" stroke="#333" stroke-width=".42"/><path d="m516.1 123.5a15.4 15.4 0 0 1 30.8 0" fill="#d9d9d9" fill-opacity=".7" stroke="#333" stroke-width=".42"/><path d="m42.7 154.2h607.4" fill="none" stroke="#7c7c7c" stroke-width="1.2"/><path d="m528.1 154.2a28.8 28.8 0 0 1 57.6 0" fill="#fbfbfb" fill-opacity=".7" stroke="#333" stroke-width=".42"/><path d="m407.6 154.2a27.8 27.8 0 0 1 55.5 0" fill="#d9d9d9" fill-opacity=".7" stroke="#333" stroke-width=".42"/><path d="m43.7 154.2-.3-16.6a21.3 21.3 0 0 1 34.7 16.6" fill="#ccc" fill-opacity=".7" stroke="#333" stroke-width=".42"/><path d="m457.9 154.2a19.9 19.9 0 0 1 39.7 0" fill="#d9d9d9" fill-opacity=".7" stroke="#333" stroke-width=".42"/><path d="m357.2 154.2a18.9 18.9 0 0 1 37.7 0" fill="#d9d9d9" fill-opacity=".7" stroke="#333" stroke-width=".42"/><path d="m282.5 154.2a17.2 17.2 0 1 1 34.4 0" fill="#d9d9d9" fill-opacity=".7" stroke="#333" stroke-width=".42"/><path d="m42.7 184.9h607.4" fill="none" stroke="#7c7c7c" stroke-width="1.2"/><path d="m549.7 184.9a46.8 46.8 0 0 1 93.6 0" fill="#fbfbfb" fill-opacity=".7" stroke="#333" stroke-width=".42"/><path d="m413.2 184.9a22.2 22.2 0 0 1 44.4 0" fill="#d9d9d9" fill-opacity=".7" stroke="#333" stroke-width=".42"/><path d="m237.1 184.9a20.4 20.4 0 0 1 40.7 0" fill="#d9d9d9" fill-opacity=".7" stroke="#333" stroke-width=".42"/><path d="m441.5 184.9a19.4 19.4 0 0 1 38.7 0" fill="#d9d9d9" fill-opacity=".7" stroke="#333" stroke-width=".42"/><path d="m302.3 184.9a17.2 17.2 0 0 1 34.4 0" fill="#d9d9d9" fill-opacity=".7" stroke="#333" stroke-width=".42"/><path d="m327.4 184.9a14.7 14.7 0 0 1 29.5 0" fill="#949494" fill-opacity=".7" stroke="#333" stroke-width=".42"/><path d="m42.7 215.6h607.4" fill="none" stroke="#7c7c7c" stroke-width="1.2"/><path d="m474.1 215.6a80 80 0 0 1 160 0" fill="#eaeaea" fill-opacity=".7" stroke="#333" stroke-width=".42"/><path d="m349.8 215.6a26.3 26.3 0 1 1 52.6 0" fill="#d9d9d9" fill-opacity=".7" stroke="#333" stroke-width=".42"/><path d="m186.3 215.6a25.9 25.9 0 0 1 51.8 0" fill="#d9d9d9" fill-opacity=".7" stroke="#333" stroke-width=".42"/><path d="m526.5 215.6a24.7 24.7 0 0 1 49.5 0" fill="#d9d9d9" fill-opacity=".7" stroke="#333" stroke-width=".42"/><path d="m468.4 215.6a23.5 23.5 0 0 1 47 0" fill="#d9d9d9" fill-opacity=".7" stroke="#333" stroke-width=".42"/><path d="m433 215.6a22.2 22.2 0 0 1 44.4 0" fill="#d9d9d9" fill-opacity=".7" stroke="#333" stroke-width=".42"/><path d="m315.4 215.6a15.4 15.4 0 1 1 30.8 0" fill="#d9d9d9" fill-opacity=".7" stroke="#333" stroke-width=".42"/><path d="m285 215.6a14.7 14.7 0 0 1 29.5 0" fill="#d9d9d9" fill-opacity=".7" stroke="#333" stroke-width=".42"/><path d="m42.7 246.3h607.4" fill="none" stroke="#7c7c7c" stroke-width="1.2"/><g fill-opacity=".7" stroke="#333" stroke-width=".42"><path d="m415.2 246.3a51.3 51.3 0 0 1 102.5 0" fill="#fbfbfb"/><path d="m320.3 246.3a47.2 47.2 0 0 1 94.5 0" fill="#d9d9d9"/><path d="m402 246.3a44.7 44.7 0 1 1 89.3 0" fill="#d9d9d9"/><path d="m356.2 246.3a25.5 25.5 0 0 1 51.1 0" fill="#949494"/><path d="m280.6 246.3a24.7 24.7 0 0 1 49.5 0" fill="#d9d9d9"/><path d="m297.7 246.3a21.8 21.8 0 0 1 43.5 0" fill="#d9d9d9"/><path d="m315.2 246.3a21.3 21.3 0 0 1 42.6 0" fill="#d9d9d9"/><path d="m445.6 246.3a20.8 20.8 0 0 1 41.7 0" fill="#949494"/><path d="m113.2 246.3a19.9 19.9 0 0 1 39.7 0" fill="#ccc"/><path d="m504.7 246.3a18.3 18.3 0 1 1 36.6 0" fill="#d9d9d9"/><path d="m568.6 246.3a16.6 16.6 0 0 1 33.3 0" fill="#d9d9d9"/><path d="m332.4 246.3a15.4 15.4 0 0 1 30.8 0" fill="#d9d9d9"/></g><path d="m42.7 277h607.4" fill="none" stroke="#7c7c7c" stroke-width="1.2"/><path d="m382.6 277a27.4 27.4 0 0 1 54.8 0" fill="#d9d9d9" fill-opacity=".7" stroke="#333" stroke-width=".42"/><path d="m359 277a22.7 22.7 0 0 1 45.3 0" fill="#949494" fill-opacity=".7" stroke="#333" stroke-width=".42"/><path d="m231.4 277a20.4 20.4 0 0 1 40.7 0" fill="#949494" fill-opacity=".7" stroke="#333" stroke-width=".42"/><path d="m595.9 277a14.7 14.7 0 1 1 29.5 0" fill="#d9d9d9" fill-opacity=".7" stroke="#333" stroke-width=".42"/><path d="m42.7 307.7h607.4" fill="none" stroke="#7c7c7c" stroke-width="1.2"/><path d="m528.5 307.7a28.5 28.5 0 1 1 56.9 0" fill="#fbfbfb" fill-opacity=".7" stroke="#333" stroke-width=".42"/><path d="m135.8 307.7a19.9 19.9 0 0 1 39.7 0" fill="#d9d9d9" fill-opacity=".7" stroke="#333" stroke-width=".42"/><path d="m260.7 307.7a19.4 19.4 0 0 1 38.7 0" fill="#d9d9d9" fill-opacity=".7" stroke="#333" stroke-width=".42"/><path d="m301.2 307.7a18.3 18.3 0 1 1 36.6 0" fill="#d9d9d9" fill-opacity=".7" stroke="#333" stroke-width=".42"/><path d="m477.5 307.7a17.2 17.2 0 0 1 34.4 0" fill="#d9d9d9" fill-opacity=".7" stroke="#333" stroke-width=".42"/><path d="m592.4 307.7a15.4 15.4 0 1 1 30.8 0" fill="#d9d9d9" fill-opacity=".7" stroke="#333" stroke-width=".42"/><path d="m42.7 338.4h607.4" fill="none" stroke="#7c7c7c" stroke-width="1.2"/><path d="m376.2 338.4a47.9 47.9 0 0 1 95.7 0" fill="#949494" fill-opacity=".7" stroke="#333" stroke-width=".42"/><path d="m514.1 338.4a40 40 0 0 1 80 0" fill="#efefef" fill-opacity=".7" stroke="#333" stroke-width=".42"/><path d="m420.4 338.4a26.3 26.3 0 1 1 52.6 0" fill="#d9d9d9" fill-opacity=".7" stroke="#333" stroke-width=".42"/><path d="m472.5 338.4a19.4 19.4 0 0 1 38.7 0" fill="#b2b2b2" fill-opacity=".7" stroke="#333" stroke-width=".42"/><path d="m601.9 338.4a17.2 17.2 0 0 1 34.4 0" fill="#949494" fill-opacity=".7" stroke="#333" stroke-width=".42"/><path d="m125 338.4a16.6 16.6 0 0 1 33.3 0" fill="#d9d9d9" fill-opacity=".7" stroke="#333" stroke-width=".42"/><path d="m230.1 338.4a16 16 0 1 1 32 0" fill="#d9d9d9" fill-opacity=".7" stroke="#333" stroke-width=".42"/><path d="m307 338.4a15.4 15.4 0 1 1 30.8 0" fill="#d9d9d9" fill-opacity=".7" stroke="#333" stroke-width=".42"/></svg>