<svg enable-background="new 0 0 256 159" height="159" viewBox="0 0 256 159" width="256" xmlns="http://www.w3.org/2000/svg"><path d="m254 23.483-5.135-3.672-2.58-7.854-6.529-.558-1.627 11.341-2.068 3.277-1.278 2.184-7.646 2.091-6.344 1.511-5.113 6.623 1.441 3.067-10.713 6.786-3.277 4.159-3.067 2.278-8.296 4.927-4.578-1.395 3.533-8.343-5.229-7.274-1.534-6.088-3.904-2.092-6.693 6.112-1.371 5.229 2.022 6.599-1.998 7.506-3.045.488-1.696-4.462-.86-4.624 1.65-9.505-1.324-1.696 2.068-5.113 12.503-1.79-4.508-4.461-9.807 2.719-4.81-3.301-8.041 3.858-7.18-.721 2.463-7.854-5.089-2.835-4.508.256-5.81-2.812-8.249-.023-27.492-1.395-33.952-4.625-13.85-2.835-3.88-.883-22.266-5.993-1.58 4.973-7.956.5-1.201 13.117-7.738 14.78-.14 5.322-3.718 8.668.232 9.714 7.529 30.303 8.715 4.881 4.043 5.391.79 5.183 12.247 1.603-.767 1.163 18.08 10.619 10.086 1.581 4.647-2.115 8.785 1.163 7.064 7.436 1.929 6.344 6.995 4.787 2.835-4.415 6.785.232 9.551 13.966 2.068 7.227 9.806 1.998-1.254-5.484 2.974-6.274 7.716-4.392 9.504-7.599 8.18 2.487 2.208-1.905 5.345 3.997 5.949-1.952.86-4.949 5.81-1.651 5.112-1.022 7.227.325 6.252 3.533 4.601-3.625 8.389 6.413-.093 6.624 5.205 7.808 9.923 5.716.558-10.875-3.998-8.645-7.366-12.619 1.836-8.412 7.413-8.389 2.231-4.741 11.456-14.408-2.417-3.904.07-.024.232-.046.418-.093.116-.024-3.928-3.532.302-4.02-1.333-1.333 4.052.334 1.185-.582.744-2.881.14-.023.046-.024-3.579-7.53 1.534-1.65 4.532.674-.93-7.599 1.163-.348 7.436-3.881 2.046-3.044.232.139.581.86 2.068-2.487-2.975-5.833-.046-1.278 3.928-5.88zm-217.547 70.905c-3.262 0-5.906-2.644-5.906-5.906s2.644-5.906 5.906-5.906 5.906 2.644 5.906 5.906c0 3.261-2.644 5.906-5.906 5.906zm6.891-64.477c-3.534 0-6.398-2.865-6.398-6.398s2.865-6.398 6.398-6.398 6.398 2.865 6.398 6.398-2.864 6.398-6.398 6.398zm26.578 28.055c-3.262 0-5.906-2.644-5.906-5.906s2.644-5.906 5.906-5.906 5.906 2.644 5.906 5.906-2.644 5.906-5.906 5.906zm14.766 18.703c-3.262 0-5.906-2.644-5.906-5.906s2.644-5.906 5.906-5.906 5.906 2.644 5.906 5.906-2.645 5.906-5.906 5.906zm16.242-13.289c-3.262 0-5.906-2.644-5.906-5.906s2.644-5.906 5.906-5.906 5.906 2.644 5.906 5.906-2.644 5.906-5.906 5.906zm24.117 60.539c-3.262 0-5.906-2.644-5.906-5.906s2.644-5.906 5.906-5.906 5.906 2.644 5.906 5.906-2.644 5.906-5.906 5.906zm33.469-40.359c-3.262 0-5.906-2.644-5.906-5.906s2.644-5.906 5.906-5.906 5.906 2.644 5.906 5.906c0 3.261-2.644 5.906-5.906 5.906zm33.468 16.734c-3.262 0-5.906-2.644-5.906-5.906s2.644-5.906 5.906-5.906 5.906 2.644 5.906 5.906c.001 3.262-2.644 5.906-5.906 5.906z"/></svg>