<svg xmlns="http://www.w3.org/2000/svg" width="256" height="256" viewBox="0 0 256 256"><title>icon_sketch</title><path d="M122.5,223.9c-11.9,0-26.3-1.3-39.6-6.7s-23.2-13-34.8-25.1c-17.5-18-30-38.9-36.2-60.2A124.9,124.9,0,0,1,8,82.5l2,.3a122.2,122.2,0,0,0,3.8,48.5c6.1,21.1,18.5,41.6,35.7,59.4,11.5,11.9,22.6,19.9,34.1,24.6,16.9,6.9,35.8,6.9,48.6,6.3,19.1-.9,34.3-3.8,47.6-9.1A103.4,103.4,0,0,0,243.2,96.1a92.1,92.1,0,0,0-11.5-29.9,83.2,83.2,0,0,0-43.3-34.6c-18.3-6.3-38.1-5.9-56.8-4.6-12.3.9-28.3,2.4-44,6.5-7,1.9-17.2,5-25.4,11.3-13.1,10.1-20.5,27.7-19,46.1,1.2,16.1,9.1,32.6,22,46.3a74.7,74.7,0,0,0,18.5,14.7c14,7.7,38.8,13.9,77-.5,16.8-6.3,26.2-14.8,27.9-25.3.8-4.8-.1-10.3-2.7-16.8-4.6-11.6-12.2-21-21.4-26.3s-23-6.9-32.9-2.1l-.8-1.8c10.4-5.1,23.7-4.3,34.7,2.1s17.5,15.3,22.3,27.4c2.7,6.8,3.6,12.6,2.8,17.8-1.9,11.2-11.7,20.3-29.2,26.9-38.9,14.6-64.3,8.3-78.7.4a80.7,80.7,0,0,1-19-15.1c-13.2-14.1-21.2-31-22.5-47.6C39.7,72,47.3,53.7,61,43.2c8.5-6.5,19-9.7,26.1-11.6,15.8-4.1,32-5.7,44.3-6.6,18.9-1.4,39-1.7,57.7,4.7a84.9,84.9,0,0,1,44.3,35.5,92.6,92.6,0,0,1,11.7,30.5,105.2,105.2,0,0,1-64.5,118.7c-13.6,5.3-28.9,8.3-48.3,9.2C129.3,223.7,126,223.9,122.5,223.9Zm-5.8,10.3c1.1-.7,2.2-1.4,2.8-1.2l1.2.7,2,1.2c4.1,1.6,7.4-1.2,10-3.4s3.5-3,5.1-3a7.3,7.3,0,0,1,2.2.6,10,10,0,0,0,3.2.9c4.4.5,7.5-2.5,10.2-5.1s3.8-3.8,5.9-3.9a6.4,6.4,0,0,1,1.9.1,11.5,11.5,0,0,0,3.7,0c2.7-.5,4.6-2.3,6.3-3.8s2.4-2.4,3.7-2.6,3,.8,5.3,2.5a24.3,24.3,0,0,0,5.1,3.2c5.2,1.9,10.5-.3,14.6-2.4A99.5,99.5,0,0,0,239,180.7c5.3-8.9,7.7-16.4,7.6-23.7,0-4.6-1.1-9-2.1-13.3s-2.7-11.1-1.7-16.3,3-7.8,5.3-11.7,5-8.4,5.9-13.3c2-9.8-2.8-19.5-6.3-26.6L229.6,38.5l-1.9.4a58.5,58.5,0,0,1-33.3-3.8c-3.3-1.4-5-2.9-5.3-4.5a12.1,12.1,0,0,1,.1-1.8,14.5,14.5,0,0,0-.2-3.5c-1-4-5.1-5.7-8-6.6a102.5,102.5,0,0,0-67.4,2.6c-5.8,2.3-14.1,6.2-19.2,13.4l-.2.3c-.4.5-.9,1.3-1.2,1.4s-2.2-1.6-2.9-2.3l-.2-.3a21.8,21.8,0,0,0-22.8-5.6l-.7.3-.4.6A157.1,157.1,0,0,1,53.1,43.4c-8,8.1-16.2,16.5-20.5,27.4a44.4,44.4,0,0,0,4,39,77.4,77.4,0,0,0,6.4,8.4,90.7,90.7,0,0,1,5.7,7.3h.1a7.7,7.7,0,0,0,3.5,3.4c2.1.9,4.1.3,5.7-.2a5.6,5.6,0,0,1,2.3-.5,1.8,1.8,0,0,1,.9.7,5.5,5.5,0,0,1,.4,3.8,28.1,28.1,0,0,1-2,3.8,21.4,21.4,0,0,0-2.4,4.5c-1.9,5.3-.5,12.1,3.7,17.1s10,7.6,14,9.2a80.8,80.8,0,0,0,38.3,5.5,13.3,13.3,0,0,0,5.3-1.5,5.7,5.7,0,0,0,1.3-.8,5.2,5.2,0,0,1,1.2-.7l.9.5a6.3,6.3,0,0,0,3,1.2c4,.5,5.5-3.1,6.6-5.5a10.4,10.4,0,0,1,1.4-2.8,2,2,0,0,1,1.6-.7c1.9,0,4.7,1.5,7,3.9a12,12,0,0,0,4.7,3.3,11.1,11.1,0,0,0,7-.8,126.6,126.6,0,0,0,30.3-16.8h.1c1.6-1.3,3.2-2.5,4.8-2.6h1.1l.7-.9c3.6-4.9,7.6-10.4,9-16.9s-.1-14.9-6.7-18.9a29.9,29.9,0,0,0-4-2,18,18,0,0,1-3.4-1.6l15.2-7-4.4-8.6L193.7,95c-.2.1-.6,0-1-.4s-.6-.7-.5-.9l-4.5-2.1a1.7,1.7,0,0,1,1.7-.9c-1.2-.3-4-3.5-4.3-4.7l.3-4h-.2l1.8-2.7c3.9-5.7,6-8.8,4.1-11.1a3.4,3.4,0,0,0-.9-.8,2.7,2.7,0,0,0-.6-1c-1.9-2.2-5.2-.9-11.1,1.5a62.9,62.9,0,0,1-7.5,2.8l.9-3-8,.8L161,62.3l-2.6,3a1.9,1.9,0,0,1-1.8.6,1.8,1.8,0,0,1-1.7-.9l-.4-.6L154,64a12.4,12.4,0,0,0-11.4-.6,15.9,15.9,0,0,1-3.5,1.3l-1.7-4.5-2.7,4.3A22.6,22.6,0,0,0,133,68a7.6,7.6,0,0,1-.3-2.1l-5,.4a19.5,19.5,0,0,0,4.4,10.9l4.4,5.3V75.6a16.7,16.7,0,0,1,1.3-6.1c2.3.5,4.9-.7,6.9-1.6a7.5,7.5,0,0,1,6.2.2,6.9,6.9,0,0,0,5.2,2.8,8.5,8.5,0,0,0,3.2-.3l1.5,3.4,5-.5a3.4,3.4,0,0,0,1,1.3c2.4,2.3,6.7.7,13.6-2.1l3.2-1.3-2.4,4,3.5-1.5c-.6,1-1.3,1.9-1.8,2.7-3.9,5.7-6.1,8.8-4.2,11.1a3.1,3.1,0,0,0,2.2,1.1,16.2,16.2,0,0,0,6.5,6.5,6,6,0,0,0,2.1,3.2,6.4,6.4,0,0,0,3.6,1.5l-15.2,6.9.9,2.2c1.4,3.6,4.8,5.1,7.8,6.3a20.3,20.3,0,0,1,3.3,1.6c4.5,2.8,5.4,9,4.4,13.6s-4.4,9.9-7.5,14.2c-2.5.5-4.4,2-6.2,3.4h-.1a119.9,119.9,0,0,1-29.1,16.1c-1.3.5-2.8,1-3.8.7a7.5,7.5,0,0,1-2.5-2.1c-2.6-2.6-6.8-5.4-10.7-5.3a6.7,6.7,0,0,0-5.2,2.4,14.7,14.7,0,0,0-2.4,4.2,7.2,7.2,0,0,1-1.3,2.5,2.8,2.8,0,0,1-.9-.5,7.1,7.1,0,0,0-3.3-1.3,7,7,0,0,0-4.4,1.6l-.8.6a8.9,8.9,0,0,1-3.4.8,75.8,75.8,0,0,1-35.9-5.1c-3.5-1.4-8.6-3.8-12-7.8s-4.2-8.5-2.9-12.2c.5-1.2,1.2-2.3,1.9-3.6a22.5,22.5,0,0,0,2.5-4.9,9.8,9.8,0,0,0-.8-7.9,6.4,6.4,0,0,0-4.5-3,9.3,9.3,0,0,0-4.5.6,4.3,4.3,0,0,1-2.3.4,4.5,4.5,0,0,1-1.3-1.6h-.1c-1.8-2.7-3.9-5.2-5.9-7.7a88,88,0,0,1-6.1-7.9,39,39,0,0,1-3.5-34.5c3.9-10,11.4-17.6,19.3-25.7A158.7,158.7,0,0,0,69.5,32.7a16.5,16.5,0,0,1,16.7,4.5l.2.2c1.8,2,4.4,4.9,8,3.7a7.2,7.2,0,0,0,3.9-3.3v-.2c3.4-4.7,8.7-8.4,17-11.6a97.3,97.3,0,0,1,64.1-2.5c2.8.8,4.4,1.8,4.7,3a12,12,0,0,1,0,1.9,9.4,9.4,0,0,0,0,2.9c.5,3.5,3.2,6.3,8.2,8.4a64,64,0,0,0,34.3,4.4L243.3,78c4.1,8.4,7.3,15.9,5.8,23.4-.8,4.1-2.9,7.8-5.3,11.8s-4.9,8.3-5.9,13.2.3,12.5,1.7,18.4c1,4.2,2,8.2,2,12.2.1,6.4-2.1,13.1-6.9,21.2a93.6,93.6,0,0,1-37.2,35.3c-3.1,1.7-7.1,3.4-10.4,2.2a19,19,0,0,1-3.8-2.5c-2.6-1.9-5.5-4.1-9.3-3.4s-4.6,2.3-6.3,3.8-2.4,2.4-3.6,2.6a9.2,9.2,0,0,1-2.3-.1,14.5,14.5,0,0,0-3-.1c-3.8.3-6.5,3-8.9,5.3s-4.2,4-6.1,3.8l-2-.6a11.2,11.2,0,0,0-3.8-1c-3.6-.1-6.2,2.2-8.5,4.2s-3.7,3-4.9,2.5l-1-.6a8.1,8.1,0,0,0-2.8-1.4c-2.7-.8-5,.6-6.8,1.7s-2.1,1.4-2.9,1.3a3.4,3.4,0,0,1-1.4-.5l-1.7-.6a14.8,14.8,0,0,0-5.5-.3h-.6A33.5,33.5,0,0,1,85.1,227c-6.3-2.8-11.3-7.6-13.7-13.1-.7-1.6-1.2-3.4-1.9-5.4-1.8-5.8-4-12.5-10.5-14.5l-1.8-.4a8.6,8.6,0,0,1-2.1-.7,7.6,7.6,0,0,1-1.9-2.9c-.9-1.9-2.1-4.3-4.8-5.3a9.7,9.7,0,0,0-4.4-.3,5.3,5.3,0,0,1-2.2,0,6.5,6.5,0,0,1-1.5-2.3c-.7-1.7-1.7-3.8-3.9-4.8a7.6,7.6,0,0,0-4.1-.5H30.5c-.5-.3-.8-1.4-1.1-2.4a10.5,10.5,0,0,0-2.5-4.6,8.7,8.7,0,0,0-3.2-1.8,5.2,5.2,0,0,1-1.5-.7c-.7-.5-1.1-1.8-1.6-3.3L16,148a262.4,262.4,0,0,1-6.7-26.8c-2.1-12-2.4-24.5-2.7-36.6h-5c.3,12.3.6,25,2.8,37.4,1.6,9.3,4.3,18.4,6.8,27.3l4.6,15.9c.5,1.7,1.3,4.3,3.4,5.9a10,10,0,0,0,2.7,1.4,4,4,0,0,1,1.6.8,5.4,5.4,0,0,1,1.1,2.4c.6,1.8,1.3,4.1,3.6,5.3a8.6,8.6,0,0,0,4.3.7,5.3,5.3,0,0,1,1.8,0c.6.3,1,1.3,1.5,2.4s1.7,3.6,3.8,4.7a9.9,9.9,0,0,0,5,.5,4.9,4.9,0,0,1,2.1,0c.8.2,1.3,1.2,2,2.8s1.8,3.7,3.7,4.9a12.6,12.6,0,0,0,3.8,1.4l1.3.3c4.1,1.2,5.6,6.1,7.3,11.3.6,1.9,1.2,3.9,2,5.8,2.9,6.7,8.7,12.3,16.3,15.7a39.5,39.5,0,0,0,19.2,3.3h.7a10.6,10.6,0,0,1,3.6.1,2.6,2.6,0,0,1,1,.4,9.4,9.4,0,0,0,3.1.9h.5A10.7,10.7,0,0,0,116.7,234.2Z"/></svg>