<svg height="256" viewBox="0 0 256 256" width="256" xmlns="http://www.w3.org/2000/svg"><path d="m202.7 189.1h-45.3v-50.2h45.3zm-51-50.2h-45.4v50.2h45.4zm-51.1 50.2v-50.2h-45.3v50.2zm56.8-106.2v50.2h45.3v-50.2zm-107.9 111.9h-45.3v50.2h45.3zm56.8-61.7h45.4v-50.2h-45.4zm147.5 61.7h-45.3v50.2h45.3zm-51.1 0h-45.3v50.2h45.3zm5.8-55.9v50.2h45.3v-50.2zm0-56v50.2h45.3v-50.2zm-56.8 111.9h-45.4v50.2h45.4zm-102.2-5.7v-50.2h-45.3v50.2zm51.1 5.7h-45.3v50.2h45.3zm-57.9-105.1v36.2h-31.3v-36.2zm7-7h-45.3v50.2h45.3zm44 7v36.2h-31.3v-36.2zm7-7h-45.3v50.2h45.3zm-58-49v36.2h-31.3v-36.2zm7-7h-45.3v50.2h45.3zm44 7v36.2h-31.3v-36.2zm7-7h-45.3v50.2h45.3zm44 7v36.2h-31.3v-36.2zm7-7h-45.3v50.2h45.3zm44 7v36.2h-31.3v-36.2zm7-7h-45.3v50.2h45.3zm44 7v36.2h-31.3v-36.2zm7-7h-45.3v50.2h45.3z"/></svg>