<?xml version="1.0" encoding="utf-8"?>
<!-- Generator: Adobe Illustrator 22.1.0, SVG Export Plug-In . SVG Version: 6.00 Build 0)  -->
<svg version="1.1" id="Layer_1" xmlns="http://www.w3.org/2000/svg" xmlns:xlink="http://www.w3.org/1999/xlink" x="0px" y="0px"
	 viewBox="0 0 1200 1200" style="enable-background:new 0 0 1200 1200;" xml:space="preserve">
<style type="text/css">
	.st0{fill:none;stroke:#AFAFAF;stroke-width:4;stroke-miterlimit:10;}
	.st1{fill:none;stroke:#AFAFAF;stroke-width:4;stroke-miterlimit:10;stroke-dasharray:6,12;}
	.st2{fill:none;stroke:#C4C4C4;stroke-width:6;stroke-miterlimit:10;}
	.st3{fill:#C4C4C4;}
	.st4{fill:#C1C1C1;}
	.st5{font-family:'RobotoMono-Regular';}
	.st6{font-size:37px;}
	.st7{fill:#606060;}
	.st8{fill:none;stroke:#BABABA;stroke-width:4;stroke-miterlimit:10;}
	.st9{fill:none;stroke:#888889;stroke-width:6;stroke-miterlimit:10;}
	.st10{fill:#514361;}
	.st11{font-size:35px;}
	.st12{font-family:'Roboto-Italic';}
	.st13{font-size:29px;}
</style>
<g>
	<g>
		<g>
			<line class="st0" x1="1106.8" y1="712.6" x2="1094.8" y2="712.6"/>
			<line class="st1" x1="1076.5" y1="712.6" x2="147.9" y2="712.6"/>
		</g>
	</g>
	<g>
		<g>
			<g>
				<g>
					<polyline class="st2" points="103,66.7 103,1020 1130.3,1020 					"/>
					<g>
						<polygon class="st3" points="88,71.1 103,45.2 118,71.1 						"/>
					</g>
					<g>
						<polygon class="st3" points="1125.9,1035 1151.8,1020 1125.9,1005 						"/>
					</g>
				</g>
			</g>
		</g>
	</g>
	<g>
		<text transform="matrix(1 0 0 1 241.1104 1090.8906)" class="st4 st5 st6">10</text>
	</g>
	<g>
		<text transform="matrix(1 0 0 1 16.6006 874.2324)" class="st4 st5 st6">10</text>
	</g>
	<g>
		<g>
			<text transform="matrix(1 0 0 1 1088.7695 870.2324)" class="st7 st5 st6">-10 %</text>
		</g>
	</g>
	<g>
		<g>
			<text transform="matrix(1 0 0 1 1088.7695 578.5352)" class="st7 st5 st6">10 %</text>
		</g>
	</g>
	<g>
		<text transform="matrix(1 0 0 1 55.7144 1090.8926)" class="st4 st5 st6">0</text>
	</g>
	<g>
		<text transform="matrix(1 0 0 1 390.4405 1090.8906)" class="st4 st5 st6">20</text>
	</g>
	<g>
		<text transform="matrix(1 0 0 1 537.9717 1090.8906)" class="st4 st5 st6">30</text>
	</g>
	<g>
		<text transform="matrix(1 0 0 1 835.9698 1090.8906)" class="st4 st5 st6">50</text>
	</g>
	<g>
		<text transform="matrix(1 0 0 1 989.4776 1090.8906)" class="st4 st5 st6">60</text>
	</g>
	<g>
		<g>
			<text transform="matrix(1 0 0 1 1088.7695 723.7949)" class="st7 st5 st6">0 %</text>
		</g>
	</g>
	<g>
		<text transform="matrix(1 0 0 1 686.0283 1090.8906)" class="st4 st5 st6">40</text>
	</g>
	<line class="st8" x1="81" y1="713" x2="102" y2="713"/>
	<line class="st8" x1="81" y1="564" x2="102" y2="564"/>
	<line class="st8" x1="81" y1="415" x2="102" y2="415"/>
	<line class="st8" x1="81" y1="861" x2="102" y2="861"/>
	<line class="st8" x1="262" y1="1043" x2="262" y2="1018"/>
	<line class="st8" x1="410" y1="1045" x2="410" y2="1019"/>
	<line class="st8" x1="559" y1="1045" x2="559" y2="1019"/>
	<line class="st8" x1="708" y1="1043" x2="708" y2="1018"/>
	<line class="st8" x1="857" y1="1043" x2="857" y2="1018"/>
	<line class="st8" x1="1006" y1="1043" x2="1006" y2="1018"/>
	<g>
		<text transform="matrix(1 0 0 1 11.1358 730.6602)" class="st4 st5 st6">20</text>
	</g>
	<g>
		<text transform="matrix(1 0 0 1 11.1905 582.5312)" class="st4 st5 st6">30</text>
	</g>
	<g>
		<text transform="matrix(1 0 0 1 8.5928 430.3965)" class="st4 st5 st6">40</text>
	</g>
	<line class="st8" x1="81" y1="266" x2="102" y2="266"/>
	<g>
		<text transform="matrix(1 0 0 1 8.5928 281.541)" class="st4 st5 st6">50</text>
	</g>
	<line class="st8" x1="81" y1="122" x2="102" y2="122"/>
	<g>
		<text transform="matrix(1 0 0 1 8.5928 137.3359)" class="st4 st5 st6">60</text>
	</g>
	<polyline class="st9" points="141.1,780 173.7,733.5 220.2,882.4 292.3,531.2 343.5,791.7 385.3,628.8 443.5,863.8 473.7,724.2 
		515.6,754.4 587.7,342.8 613.3,633.5 650.5,419.5 692.3,847.5 729.6,614.9 759.8,794 815.6,626.5 843.5,714.9 883.1,610.2 
		915.6,428.8 950.5,817.2 985.3,749.3 1011,882.4 1039.9,644.6 1059.3,803.3 1099.4,781.2 	"/>
</g>
<g>
	<g>
		<text transform="matrix(1 0 0 1 141.1167 45.187)" class="st10 st5 st11">Y axis</text>
	</g>
</g>
<text transform="matrix(1 0 0 1 141.117 84.8544)" class="st10 st12 st13">expressed in percentages, duration, repetition</text>
<g>
	<g>
		<text transform="matrix(1 0 0 1 1027.7922 1138.187)" class="st10 st5 st11">X axis</text>
	</g>
</g>
<text transform="matrix(1 0 0 1 537.0533 1177.8544)" class="st10 st12 st13">expressed in time units, usually at equal intervals</text>
</svg>
