<svg enable-background="new 0 0 256 256" height="256" viewBox="0 0 256 256" width="256" xmlns="http://www.w3.org/2000/svg"><path d="m254 125.047h-20.593l-12.885-53.186-12.886 21.469-17.138-42.84-23.969 74.557h-20.091l-30.506-107.533-27.376 107.533h-74.743v-123.047h-11.813v252h252v-11.813h-240.187v-111.234h73.237l-15.927 62.587-18.024-48.372-23.497 65.52h10.454l13.22-36.855 19.619 52.664 24.314-95.543h40.674l17.384 61.297 19.707-61.297h49.74l3.101 12.797h10.129l-3.101-12.797h19.157zm-155.285 0 17.729-69.654 19.756 69.654zm57.143 33.203-7.747-27.297h16.518zm21.006-33.203 14.638-45.537 14.362 35.91 10.74-17.906 6.674 27.533z"/></svg>