<svg enable-background="new 0 0 1268 418" viewBox="0 0 1268 418" xmlns="http://www.w3.org/2000/svg" xmlns:xlink="http://www.w3.org/1999/xlink"><symbol id="a" viewBox="-30.3 -17.2 60.6 34.5"><path d="m-30.3-17.2h60.6v5.6h-60.6z" fill="#e2e2e2"/><path d="m-30.3-4.2h60.6v6.5h-60.6z" fill="#e2e2e2"/><path d="m-30.3 10.8h60.6v6.5h-60.6z" fill="#e2e2e2"/></symbol><path d="m268.7 25c5.5.4 10.4-3.8 10.8-9.3s-3.8-10.4-9.3-10.8-10.3 3.7-10.8 9.2c-.4 5.6 3.7 10.4 9.3 10.9m-8.6 4.1c2-1.5 4.5-2.2 7-2.1 3.3.3 6.2 2.1 8 4.9l10.1 20 13.8 9.7c1.1 1 1.8 2.4 1.8 3.9-.1 2.4-2.2 4.3-4.6 4.2-.1 0-.2 0-.3 0-.8-.1-1.5-.3-2.2-.8l-14.8-10.1c-.4-.4-.8-.9-1-1.4l-3.9-7.5-4.5 20 17.8 21.2c.4.6.7 1.3.9 2.1l4.8 25.6v1.4c-.3 3.7-3.5 6.5-7.2 6.3-3-.4-5.4-2.5-6.2-5.4l-4.6-23.9-14.6-16.1-3.2 15.5c-.4 1-.9 1.9-1.4 2.8l-13.9 23.5c-1.3 2.2-3.7 3.5-6.3 3.4-3.8-.3-6.6-3.5-6.3-7.3.2-1 .5-2 1-3l12.9-21.7 10.8-47.8-7.1 5.7-3.7 16.9c-.5 2.3-2.6 3.9-4.9 3.9-2.5-.3-4.3-2.4-4.3-4.9 0-.2 0-.4.1-.5l4.4-19.9c.2-.8.7-1.6 1.4-2.1z" fill="#a39cb9"/><path d="m314.3 91.2h563.4c38.8 0 70.3 32.3 70.3 72s-31.5 71.9-70.3 71.9h-537c-39.9 0-72.4 33-72.4 73.8s32.4 73.9 72.4 73.9h542.4" fill="none" stroke="#b5aec7" stroke-miterlimit="10" stroke-width="62.113"/><path d="m337.8 91.2h540c38.8 0 70.3 32.3 70.3 72s-31.5 71.9-70.3 71.9h-537c-39.9 0-72.4 33-72.4 73.8s32.4 73.9 72.4 73.9h524.6" fill="none" stroke="#e2e2e2" stroke-dasharray="25.8105 19.3579 9.6789 19.3579" stroke-miterlimit="10" stroke-width="4.2329"/><use height="34.5" transform="matrix(.955 0 0 .955 399.4217 27.1249)" width="60.6" x="-30.3" xlink:href="#a" y="-17.2"/><g fill="#fff" font-family="'RobotoCondensed-Regular'" font-size="15.1379"><text transform="translate(380.4224 78.4039)">2002</text><text transform="translate(597.1021 78.4039)">2003</text><text transform="translate(821.5244 78.4039)">2005</text><text transform="translate(382.1001 371.7408)">2011</text><text transform="translate(598.7798 371.7408)">2012</text><text transform="translate(823.2021 371.7408)">2015</text><text transform="translate(380.4224 223.2018)">2009</text><text transform="translate(823.2021 223.2018)">2006</text><text transform="translate(598.7798 223.2018)">2007</text></g><use height="34.5" transform="matrix(.955 0 0 .955 613.778 30.2221)" width="60.6" x="-30.3" xlink:href="#a" y="-17.2"/><use height="34.5" transform="matrix(.955 0 0 .955 836.6517 30.2221)" width="60.6" x="-30.3" xlink:href="#a" y="-17.2"/><use height="34.5" transform="matrix(.955 0 0 .955 399.4217 175.1481)" width="60.6" x="-30.3" xlink:href="#a" y="-17.2"/><use height="34.5" transform="matrix(.955 0 0 .955 613.778 178.2454)" width="60.6" x="-30.3" xlink:href="#a" y="-17.2"/><use height="34.5" transform="matrix(.955 0 0 .955 836.6517 178.2454)" width="60.6" x="-30.3" xlink:href="#a" y="-17.2"/><use height="34.5" transform="matrix(.955 0 0 .955 399.4217 325.6234)" width="60.6" x="-30.3" xlink:href="#a" y="-17.2"/><use height="34.5" transform="matrix(.955 0 0 .955 613.778 328.5916)" width="60.6" x="-30.3" xlink:href="#a" y="-17.2"/><use height="34.5" transform="matrix(.955 0 0 .955 836.6517 328.5916)" width="60.6" x="-30.3" xlink:href="#a" y="-17.2"/><path d="m1027 399.9h-6.7v-53.7h13.2v-18.7h-10.1l-55.6-18.8-55.6 18.8h-10.1v18.7h13.2v53.7h-6.7l-7.4 12.8h133.2zm-80.7 0h-18.7v-53.7h18.7zm30.5 0h-18.1v-53.7h18.1zm31.1 0h-18.7v-53.7h18.7z" fill="#a39cb9"/></svg>