<?xml version="1.0" encoding="utf-8"?>
<!-- Generator: Adobe Illustrator 22.1.0, SVG Export Plug-In . SVG Version: 6.00 Build 0)  -->
<svg version="1.1" id="Layer_1" xmlns="http://www.w3.org/2000/svg" xmlns:xlink="http://www.w3.org/1999/xlink" x="0px" y="0px"
	 viewBox="0 0 888.1 504.1" style="enable-background:new 0 0 888.1 504.1;" xml:space="preserve">
<style type="text/css">
	.st0{fill:none;stroke:#B2B2B2;stroke-width:5;stroke-miterlimit:10;}
	.st1{fill:#E3E3E3;}
	.st2{fill:#EBEBEB;}
	.st3{fill:#969696;}
	.st4{font-family:'RobotoMono-Regular';}
	.st5{font-size:24.3552px;}
	.st6{font-size:24.9962px;}
	.st7{fill:#514361;}
	.st8{font-size:21.9023px;}
	.st9{fill:#FFFFFF;}
	.st10{fill:#6D6D6D;}
	.st11{fill:none;stroke:#AFAFAF;stroke-width:2;stroke-linecap:round;stroke-miterlimit:10;stroke-dasharray:0,6;}
</style>
<line class="st0" x1="429.4" y1="70.2" x2="212.3" y2="241.8"/>
<line class="st0" x1="429.4" y1="70.2" x2="677.3" y2="256.6"/>
<line class="st0" x1="212.3" y1="256.6" x2="61.4" y2="438.5"/>
<line class="st0" x1="212.3" y1="256.6" x2="363" y2="438.5"/>
<g>
	<path class="st1" d="M154.4,217h115.9c18.5,0,33.5,15,33.5,33.5l0,0c0,18.5-15,33.5-33.5,33.5H154.4c-18.5,0-33.5-15-33.5-33.5l0,0
		C121,231.9,135.9,217,154.4,217z"/>
	<path class="st2" d="M53.1,400.1h16.7c21.2,0,38.5,17.2,38.5,38.5l0,0c0,21.2-17.2,38.5-38.5,38.5H53.1
		c-21.2,0-38.5-17.2-38.5-38.5l0,0C14.6,417.3,31.9,400.1,53.1,400.1z"/>
	<g>
		<text transform="matrix(1 0 0 1 30.543 445.6412)" class="st3 st4 st5">idea</text>
	</g>
	<path class="st2" d="M354.7,400.1h16.7c21.2,0,38.5,17.2,38.5,38.5l0,0c0,21.2-17.2,38.5-38.5,38.5h-16.7
		c-21.2,0-38.5-17.2-38.5-38.5l0,0C316.3,417.3,333.5,400.1,354.7,400.1z"/>
	<g>
		<text transform="matrix(1 0 0 1 332.1587 445.6412)" class="st3 st4 st5">idea</text>
	</g>
	<g>
		<text transform="matrix(1 0 0 1 144.8203 256.5699)" class="st3 st4 st6">sub-topic</text>
	</g>
	<g>
		<g>
			<text transform="matrix(1 0 0 1 114.1537 87.4748)" class="st7 st4 st8">connecting word</text>
		</g>
	</g>
</g>
<line class="st0" x1="677.3" y1="256.6" x2="526.4" y2="438.5"/>
<line class="st0" x1="677.3" y1="256.6" x2="828" y2="438.5"/>
<g>
	<path class="st1" d="M619.4,217h115.9c18.5,0,33.5,15,33.5,33.5l0,0c0,18.5-15,33.5-33.5,33.5H619.4c-18.5,0-33.5-15-33.5-33.5l0,0
		C586,231.9,600.9,217,619.4,217z"/>
	<path class="st2" d="M518.1,400.1h16.7c21.2,0,38.5,17.2,38.5,38.5l0,0c0,21.2-17.2,38.5-38.5,38.5h-16.7
		c-21.2,0-38.5-17.2-38.5-38.5l0,0C479.6,417.3,496.9,400.1,518.1,400.1z"/>
	<g>
		<text transform="matrix(1 0 0 1 495.5197 445.6412)" class="st3 st4 st5">idea</text>
	</g>
	<path class="st2" d="M819.7,400.1h16.7c21.2,0,38.5,17.2,38.5,38.5l0,0c0,21.2-17.2,38.5-38.5,38.5h-16.7
		c-21.2,0-38.5-17.2-38.5-38.5l0,0C781.2,417.3,798.5,400.1,819.7,400.1z"/>
	<g>
		<text transform="matrix(1 0 0 1 797.1354 445.6412)" class="st3 st4 st5">idea</text>
	</g>
	<g>
		<text transform="matrix(1 0 0 1 609.7971 256.5699)" class="st3 st4 st6">sub-topic</text>
	</g>
</g>
<g>
	<path class="st1" d="M371.5,30.6h115.9c18.5,0,33.5,15,33.5,33.5l0,0c0,18.5-15,33.5-33.5,33.5H371.5C353,97.5,338,82.5,338,64l0,0
		C338.1,45.5,353,30.6,371.5,30.6z"/>
	<g>
		<text transform="matrix(1 0 0 1 354.4042 70.1679)" class="st3 st4 st6">main topic</text>
	</g>
</g>
<rect x="294.3" y="137.6" class="st9" width="37.8" height="47.5"/>
<g>
	<text transform="matrix(1 0 0 1 298.1318 172.2036)" class="st10 st4 st6">is</text>
</g>
<rect x="108.1" y="323.8" class="st9" width="37.8" height="47.5"/>
<g>
	<text transform="matrix(1 0 0 1 111.9372 358.3705)" class="st10 st4 st6">is</text>
</g>
<rect x="256.7" y="323.8" class="st9" width="60.3" height="47.5"/>
<g>
	<text transform="matrix(1 0 0 1 265.669 359.0513)" class="st10 st4 st6">for</text>
</g>
<rect x="583.9" y="323.8" class="st9" width="37.8" height="47.5"/>
<g>
	<text transform="matrix(1 0 0 1 587.6488 358.3705)" class="st10 st4 st6">is</text>
</g>
<rect x="732.4" y="323.8" class="st9" width="60.3" height="47.5"/>
<g>
	<text transform="matrix(1 0 0 1 741.3806 359.0513)" class="st10 st4 st6">for</text>
</g>
<rect x="531.8" y="137.6" class="st9" width="56.7" height="47.5"/>
<g>
	<text transform="matrix(1 0 0 1 535.5941 172.2036)" class="st10 st4 st6">has</text>
</g>
<line class="st11" x1="232.8" y1="103.8" x2="294.3" y2="147.3"/>
<g>
	<g>
		<text transform="matrix(1 0 0 1 621.6763 70.1679)" class="st7 st4 st8">root node</text>
	</g>
</g>
<line class="st11" x1="520.8" y1="64" x2="621.7" y2="64"/>
</svg>
