<?xml version="1.0" encoding="utf-8"?>
<!-- Generator: Adobe Illustrator 22.1.0, SVG Export Plug-In . SVG Version: 6.00 Build 0)  -->
<svg version="1.1" id="Layer_1" xmlns="http://www.w3.org/2000/svg" xmlns:xlink="http://www.w3.org/1999/xlink" x="0px" y="0px"
	 viewBox="0 0 1268 418" style="enable-background:new 0 0 1268 418;" xml:space="preserve">
<style type="text/css">
	.st0{fill:none;stroke:#C4C4C4;stroke-width:2;stroke-miterlimit:10;}
	.st1{fill:#C4C4C4;}
	.st2{fill:#968BAF;}
	.st3{fill:#AD9CAE;}
	.st4{fill:#FFFFFF;}
	.st5{fill:#ADADAD;}
	.st6{font-family:'RobotoMono-Regular';}
	.st7{font-size:17.9629px;}
	.st8{font-size:18.4591px;}
</style>
<g>
	<g>
		<line class="st0" x1="370.7" y1="391.8" x2="535.3" y2="391.8"/>
		<g>
			<polygon class="st1" points="372.1,396.7 363.5,391.8 372.1,386.8 			"/>
		</g>
	</g>
</g>
<g>
	<g>
		<line class="st0" x1="149" y1="139.9" x2="420.9" y2="139.9"/>
		<g>
			<polygon class="st1" points="150.5,144.9 141.9,139.9 150.5,134.9 			"/>
		</g>
	</g>
</g>
<g>
	<g>
		<line class="st0" x1="535.3" y1="358" x2="535.3" y2="269.2"/>
		<g>
			<polygon class="st1" points="540.3,356.5 535.3,365.1 530.3,356.5 			"/>
		</g>
	</g>
</g>
<g>
	<g>
		<line class="st0" x1="301.7" y1="358" x2="301.7" y2="269.2"/>
		<g>
			<polygon class="st1" points="306.7,356.5 301.7,365.1 296.8,356.5 			"/>
		</g>
	</g>
</g>
<g>
	<g>
		<line class="st0" x1="945.3" y1="297.1" x2="876.1" y2="360.3"/>
		<g>
			<polygon class="st1" points="873.8,355.6 870.8,365.1 880.5,363 			"/>
		</g>
	</g>
</g>
<g>
	<g>
		<line class="st0" x1="982.2" y1="294" x2="1053.9" y2="360.4"/>
		<g>
			<polygon class="st1" points="1049.5,363.1 1059.2,365.3 1056.2,355.8 			"/>
		</g>
	</g>
</g>
<g id="Layer_2_1_">
</g>
<g id="Layer_3">
</g>
<g>
	<g>
		<line class="st0" x1="622.2" y1="20.4" x2="427.8" y2="106.7"/>
		<g>
			<polygon class="st1" points="427.1,101.6 421.2,109.6 431.1,110.7 			"/>
		</g>
	</g>
</g>
<g>
	<g>
		<line class="st0" x1="622.2" y1="20.4" x2="839.4" y2="105.8"/>
		<g>
			<polygon class="st1" points="836.2,109.9 846.1,108.4 839.8,100.6 			"/>
		</g>
	</g>
</g>
<g>
	<g>
		<line class="st0" x1="420" y1="136.5" x2="327.7" y2="241"/>
		<g>
			<polygon class="st1" points="325,236.7 323,246.4 332.4,243.3 			"/>
		</g>
	</g>
</g>
<g>
	<g>
		<line class="st0" x1="420" y1="136.5" x2="512.2" y2="241"/>
		<g>
			<polygon class="st1" points="507.5,243.2 517,246.4 515,236.6 			"/>
		</g>
	</g>
</g>
<g>
	<g>
		<line class="st0" x1="846.8" y1="136.5" x2="754.5" y2="241"/>
		<g>
			<polygon class="st1" points="751.8,236.7 749.8,246.4 759.2,243.3 			"/>
		</g>
	</g>
</g>
<g>
	<g>
		<line class="st0" x1="870.7" y1="166.2" x2="938.2" y2="240.2"/>
		<g>
			<polygon class="st1" points="933.5,242.5 943,245.5 940.9,235.8 			"/>
		</g>
	</g>
</g>
<g>
	<path class="st2" d="M569.4,0.3h107.2c17.1,0,31,14.3,31,31.8l0,0c0,17.5-13.9,31.8-31,31.8H569.4c-17.1,0-31-14.3-31-31.8l0,0
		C538.5,14.5,552.4,0.3,569.4,0.3z"/>
</g>
<g>
	<path class="st3" d="M375.7,113.6h88.6c14.1,0,25.6,11.8,25.6,26.3l0,0c0,14.5-11.5,26.3-25.6,26.3h-88.6
		c-14.1,0-25.6-11.8-25.6-26.3l0,0C350.2,125.3,361.6,113.6,375.7,113.6z"/>
</g>
<g>
	<path class="st3" d="M801.7,113.6h88.6c14.1,0,25.6,11.8,25.6,26.3l0,0c0,14.5-11.5,26.3-25.6,26.3h-88.6
		c-14.1,0-25.6-11.8-25.6-26.3l0,0C776.2,125.3,787.6,113.6,801.7,113.6z"/>
</g>
<g>
	<path class="st3" d="M920.6,246.4h88.6c14.1,0,25.6,11.8,25.6,26.3l0,0c0,14.5-11.5,26.3-25.6,26.3h-88.6
		c-14.1,0-25.6-11.8-25.6-26.3l0,0C895.1,258.2,906.5,246.4,920.6,246.4z"/>
</g>
<g>
	<path class="st3" d="M27.6,113.6h88.6c14.1,0,25.6,11.8,25.6,26.3l0,0c0,14.5-11.5,26.3-25.6,26.3H27.6C13.5,166.2,2,154.4,2,139.9
		l0,0C2.1,125.3,13.5,113.6,27.6,113.6z"/>
</g>
<path class="st4" d="M506.6,93.9l-35.1-0.5c-6.7,0-12.2-5.5-12.2-12.2v-3.5c0-6.7,5.5-12.2,12.2-12.2h34.3c6.7,0,12.2,5.5,12.2,12.2
	v3.5C517.9,88,513.3,93.9,506.6,93.9z"/>
<g>
	<text transform="matrix(0.9732 0 0 1 479.4943 87.4346)" class="st5 st6 st7">is</text>
</g>
<path class="st4" d="M357.6,223.2H352c-6.4,0-11.7-5.2-11.7-11.7v-14c0-6.4,5.2-11.7,11.7-11.7h5.6c6.4,0,11.7,5.2,11.7,11.7v14
	C369.3,218,364,223.2,357.6,223.2z"/>
<g>
	<text transform="matrix(0.9732 0 0 1 313.505 210.9293)" class="st5 st6 st7">showing</text>
</g>
<path class="st4" d="M488.5,223.2h-22.8c-6.4,0-11.7-5.2-11.7-11.7v-14c0-6.4,5.2-11.7,11.7-11.7h22.8c6.4,0,11.7,5.2,11.7,11.7v14
	C500.1,218,494.9,223.2,488.5,223.2z"/>
<g>
	<text transform="matrix(0.9732 0 0 1 447.9352 210.9293)" class="st5 st6 st7"> used as</text>
</g>
<path class="st4" d="M574.4,347.9h-79.6c-6.4,0-11.7-5.2-11.7-11.7v-14c0-6.4,5.2-11.7,11.7-11.7h79.6c6.4,0,11.7,5.2,11.7,11.7v14
	C586.1,342.7,580.9,347.9,574.4,347.9z"/>
<g>
	<text transform="matrix(0.9732 0 0 1 482.3214 335.9146)" class="st5 st6 st7">to improve</text>
</g>
<path class="st4" d="M324.9,158.5H180.9c-6.4,0-11.7-5.2-11.7-11.7v-14c0-6.4,5.2-11.7,11.7-11.7h144.1c6.4,0,11.7,5.2,11.7,11.7v14
	C336.6,153.3,331.4,158.5,324.9,158.5z"/>
<g>
	<text transform="matrix(0.9732 0 0 1 183.8063 145.1089)" class="st5 st6 st7">is similar to</text>
</g>
<path class="st4" d="M923.5,223.2H776.1c-6.4,0-11.7-5.2-11.7-11.7v-14c0-6.4,5.2-11.7,11.7-11.7h147.4c6.4,0,11.7,5.2,11.7,11.7v14
	C935.2,218,929.9,223.2,923.5,223.2z"/>
<g>
	<text transform="matrix(0.9732 0 0 1 781.3556 210.9283)" class="st5 st6 st7">consisting of</text>
</g>
<path class="st4" d="M795.9,93.7h-30.6c-7.1,0-12.9-5.2-12.9-11.6v-2.7c0-6.4,4.8-11.6,11.9-11.6h20.5c7.1,0,24,5.2,24,11.6V82
	C808.9,88.5,803.1,93.7,795.9,93.7z"/>
<g>
	<text transform="matrix(0.9732 0 0 1 766.6241 87.4346)" class="st5 st6 st7">has</text>
</g>
<path class="st4" d="M910.8,350.7h-5.6c-6.4,0-11.7-5.2-11.7-11.7v-14c0-6.4,5.2-11.7,11.7-11.7h5.6c6.4,0,11.7,5.2,11.7,11.7v14
	C922.4,345.5,917.2,350.7,910.8,350.7z"/>
<g>
	<text transform="matrix(0.9732 0 0 1 888.2413 338.3082)" class="st5 st6 st7">with</text>
</g>
<path class="st4" d="M1041.7,350.7h-22.8c-6.4,0-11.7-5.2-11.7-11.7v-14c0-6.4,5.2-11.7,11.7-11.7h22.8c6.4,0,11.7,5.2,11.7,11.7v14
	C1053.3,345.5,1048.1,350.7,1041.7,350.7z"/>
<g>
	<text transform="matrix(0.9732 0 0 1 1005.0968 338.3082)" class="st5 st6 st7">with</text>
</g>
<text transform="matrix(0.9732 0 0 1 563.7462 37.4615)" class="st4 st6 st8">concept map</text>
<text transform="matrix(0.9732 0 0 1 384.8424 145.108)" class="st4 st6 st8">visual</text>
<text transform="matrix(0.9732 0 0 1 799.7677 145.108)" class="st4 st6 st8">structure</text>
<text transform="matrix(0.9732 0 0 1 911.4777 278.4634)" class="st4 st6 st8">connectors</text>
<g>
	<path class="st3" d="M700.5,246.4h56c14.1,0,25.6,11.8,25.6,26.3l0,0c0,14.5-11.5,26.3-25.6,26.3h-56c-14.1,0-25.6-11.8-25.6-26.3
		l0,0C675,258.2,686.4,246.4,700.5,246.4z"/>
</g>
<g>
	<path class="st3" d="M495.7,246.4H568c14.1,0,25.6,11.8,25.6,26.3l0,0c0,14.5-11.5,26.3-25.6,26.3h-72.3
		c-14.1,0-25.6-11.8-25.6-26.3l0,0C470.1,258.2,481.5,246.4,495.7,246.4z"/>
</g>
<g>
	<path class="st3" d="M498.2,365.1h72.3c14.1,0,25.6,11.8,25.6,26.3l0,0c0,14.5-11.5,26.3-25.6,26.3h-72.3
		c-14.1,0-25.6-11.8-25.6-26.3l0,0C472.6,376.9,484.1,365.1,498.2,365.1z"/>
</g>
<g>
	<path class="st3" d="M837.2,365.1h72.3c14.1,0,25.6,11.8,25.6,26.3l0,0c0,14.5-11.5,26.3-25.6,26.3h-72.3
		c-14.1,0-25.6-11.8-25.6-26.3l0,0C811.7,376.9,823.1,365.1,837.2,365.1z"/>
</g>
<g>
	<path class="st3" d="M1022.2,365.1h72.3c14.1,0,25.6,11.8,25.6,26.3l0,0c0,14.5-11.5,26.3-25.6,26.3h-72.3
		c-14.1,0-25.6-11.8-25.6-26.3l0,0C996.7,376.9,1008.1,365.1,1022.2,365.1z"/>
</g>
<text transform="matrix(0.9732 0 0 1 701.6964 278.4634)" class="st4 st6 st8">nodes</text>
<text transform="matrix(0.9732 0 0 1 490.7253 278.4634)" class="st4 st6 st8">mnemonic</text>
<g>
	<path class="st3" d="M249.3,246.4h105c14.1,0,25.6,11.8,25.6,26.3l0,0c0,14.5-11.5,26.3-25.6,26.3h-105
		c-14.1,0-25.6-11.8-25.6-26.3l0,0C223.7,258.2,235.1,246.4,249.3,246.4z"/>
</g>
<text transform="matrix(0.9732 0 0 1 231.7721 278.4634)" class="st4 st6 st8">relationships </text>
<text transform="matrix(0.9732 0 0 1 502.0182 397.8765)" class="st4 st6 st8">recall</text>
<path class="st4" d="M341.8,347.9h-79.6c-6.4,0-11.7-5.2-11.7-11.7v-14c0-6.4,5.2-11.7,11.7-11.7h79.6c6.4,0,11.7,5.2,11.7,11.7v14
	C353.5,342.7,348.3,347.9,341.8,347.9z"/>
<g>
	<text transform="matrix(0.9732 0 0 1 291.819 338.3082)" class="st5 st6 st7">of</text>
</g>
<g>
	<path class="st3" d="M265.6,365.1h72.3c14.1,0,25.6,11.8,25.6,26.3l0,0c0,14.5-11.5,26.3-25.6,26.3h-72.3
		c-14.1,0-25.6-11.8-25.6-26.3l0,0C240,376.9,251.5,365.1,265.6,365.1z"/>
</g>
<text transform="matrix(0.9732 0 0 1 274.069 397.8765)" class="st4 st6 st8">facts</text>
<text transform="matrix(0.9732 0 0 1 27.4411 145.108)" class="st4 st6 st8">mind map</text>
<text transform="matrix(0.9732 0 0 1 1026.0782 397.4898)" class="st4 st6 st8">labels</text>
<text transform="matrix(0.9732 0 0 1 838.7306 397.4898)" class="st4 st6 st8">arrows</text>
<path class="st4" d="M424.6,410.4h-7.5c-6.4,0-11.7-5.2-11.7-11.7v-14c0-6.4,5.2-11.7,11.7-11.7h7.5c6.4,0,11.7,5.2,11.7,11.7v14
	C436.3,405.2,431.1,410.4,424.6,410.4z"/>
<g>
	<text transform="matrix(0.9732 0 0 1 410.6999 397.4898)" class="st5 st6 st7">of</text>
</g>
</svg>
