<?xml version="1.0" encoding="utf-8"?>
<!-- Generator: Adobe Illustrator 22.1.0, SVG Export Plug-In . SVG Version: 6.00 Build 0)  -->
<svg version="1.1" id="Layer_1" xmlns="http://www.w3.org/2000/svg" xmlns:xlink="http://www.w3.org/1999/xlink" x="0px" y="0px"
	 viewBox="0 0 256 256" style="enable-background:new 0 0 256 256;" xml:space="preserve">
<path d="M230.5,216.7h-38l-41.8-37.3h5.1c10.2,0,18.5-7.3,18.5-16.4s-8.3-16.4-18.5-16.4h-5.3l41.6-37.3h38.5
	c10.2,0,18.5-7.3,18.5-16.4s-8.3-16.4-18.5-16.4H191l-39.8-37.3h4.6c10.2,0,18.5-7.3,18.5-16.4c0-9-8.3-16.4-18.5-16.4h-54.4
	c-10.2,0-18.5,7.3-18.5,16.4c0,9,8.3,16.4,18.5,16.4h3.7L63.4,76.6H23.3C13.1,76.6,4.8,83.9,4.8,93s8.3,16.4,18.5,16.4h54.4
	c10.2,0,18.5-7.3,18.5-16.4s-8.3-16.4-18.5-16.4H74l41.6-37.3h25.3l39.8,37.3h-4.6c-10.2,0-18.5,7.3-18.5,16.4s8.3,16.4,18.5,16.4
	h5.3l-41.6,37.3h-38.5c-10.2,0-18.5,7.3-18.5,16.4s8.3,16.4,18.5,16.4h2l-41.8,37.3H23.3c-10.2,0-18.5,7.3-18.5,16.4
	c0,9,8.3,16.4,18.5,16.4h54.4c10.2,0,18.5-7.3,18.5-16.4c0-9-8.3-16.4-18.5-16.4h-5.5l41.8-37.3h26.2l41.8,37.3h-5.8
	c-10.2,0-18.5,7.3-18.5,16.4c0,9,8.3,16.4,18.5,16.4h54.4c10.2,0,18.5-7.3,18.5-16.4C249,224.1,240.7,216.7,230.5,216.7z"/>
</svg>
