<svg enable-background="new 0 0 1280 418" viewBox="0 0 1280 418" xmlns="http://www.w3.org/2000/svg" xmlns:xlink="http://www.w3.org/1999/xlink"><symbol id="a" viewBox="-223.8 -205.4 447.5 410.8"><path d="m-14.3 39.9c24.1 4.7 48-8.5 59.5-29.5 12.8-23.3 9.3-52.4-6.4-73.5-15.1-20.1-39.8-31.2-64.9-30.9-28.1.5-54.5 15.6-70.4 38.5-14.2 20.6-19.5 46.3-15.4 70.9 4.5 26.2 18.6 49.6 39.8 65.7 22.6 17.2 50.8 25.1 79 22.3 26.3-2.7 51.1-14 70.3-32.2s32.1-42 37.1-68c5.1-27.3 1.5-55.5-10.3-80.6-12.4-25.9-32.5-47.5-57.5-61.6-22.6-12.6-48.2-19-74.1-18.5-26.8.7-53 8.5-75.8 22.7-23.6 14.8-42.8 35.7-55.6 60.4-13.2 25.6-19.3 54.3-17.6 83.1 1.6 27.6 10.2 54.5 24.8 77.9 14.1 22.6 33.3 41.6 56.1 55.6 23.5 14.3 50 22.8 77.4 25.1 28.2 2.2 56.5-2.2 82.6-12.9 26.8-11 50.7-28.2 69.6-50 18-20.7 31.2-45.1 38.9-71.6 7.4-25.9 9.4-53.1 5.8-79.8-5.1-37.5-20.9-72.8-45.3-101.6" fill="none" stroke="#b4b4b4" stroke-width="1.6065"/><path d="m-22.3 66.8h8v-26.9h-8z" fill="#c6bfcf"/><path d="m-13.1 41 1 42.1 8-.2-1-42.1z" fill="#c6bfcf"/><path d="m-3.7 41.8 3.5 17.2 7.8-1.6-3.5-17.2z" fill="#c6bfcf"/><path d="m5.6 40.7 14.2 36.7 7.4-2.9-14.2-36.7z" fill="#c6bfcf"/><path d="m14.7 38.2 7.3 12.3 6.8-4-7.3-12.3z" fill="#c6bfcf"/><path d="m23.1 34.3 3.7 4.4 6.1-5.1-3.7-4.4z" fill="#c6bfcf"/><path d="m30.8 28.9 34.1 30 5.2-5.9-34.1-30z" fill="#c6bfcf"/><path d="m37.6 22.3 17.8 11.4 4.3-6.7-17.8-11.3z" fill="#c6bfcf"/><path d="m43.2 15 15.8 7.1 3.2-7.2-15.8-7.1z" fill="#c6bfcf"/><path d="m47.8 6.9 38.9 11 2.2-7.6-38.9-11.1z" fill="#c6bfcf"/><path d="m51-1.9 1.8.2 1-7.9-1.8-.2z" fill="#c6bfcf"/><path d="m51.7-10.2h49.9v-8h-49.9z" fill="#c6bfcf"/><path d="m52.7-28.2 1.1 7.9 35.7-5-1.1-7.9z" fill="#c6bfcf"/><path d="m51-37.3 2.2 7.6 27.2-7.6-2.2-7.6z" fill="#c6bfcf"/><path d="m48.2-46.1 3.1 7.3 39.4-16.8-3.1-7.3z" fill="#c6bfcf"/><path d="m44.3-54.4 4 6.8 7.9-4.7-4-6.8z" fill="#c6bfcf"/><path d="m39.4-62.3 4.9 6.3 11.4-8.8-4.9-6.3z" fill="#c6bfcf"/><path d="m33.5-69.4 5.6 5.6 25.5-25.4-5.6-5.6z" fill="#c6bfcf"/><path d="m26.7-75.7 6.3 4.9 11.8-15-6.3-4.9z" fill="#c6bfcf"/><path d="m19.3-81.2 6.8 4.2 5.1-8.3-6.8-4.2z" fill="#c6bfcf"/><path d="m11.3-85.7 7.2 3.3.8-1.8-7.2-3.3z" fill="#c6bfcf"/><path d="m2.7-89.3 7.6 2.4 3.5-11-7.6-2.4z" fill="#c6bfcf"/><path d="m-6.1-91.9 7.8 1.5.6-2.7-7.8-1.5z" fill="#c6bfcf"/><path d="m-15.3-93.3 8 .6 3.5-40.9-8-.6z" fill="#c6bfcf"/><path d="m-25.3-123.5.8 29.6 8-.2-.8-29.6z" fill="#c6bfcf"/><path d="m-35.7-108.3 2 14.8 7.9-1.1-2-14.8z" fill="#c6bfcf"/><path d="m-50.6-122.8 7.7 30.9 7.7-1.9-7.7-30.9z" fill="#c6bfcf"/><path d="m-58.7-108.4 7 19 7.5-2.7-7-19z" fill="#c6bfcf"/><path d="m-64.5-94.5 4.2 8.5 7.1-3.5-4.2-8.5z" fill="#c6bfcf"/><path d="m-72.5-88 4.1 6.4 6.7-4.3-4.1-6.4z" fill="#c6bfcf"/><path d="m-106.9-115.6 30.7 39 6.3-4.9-30.7-39z" fill="#c6bfcf"/><path d="m-91.1-78.6 7.8 8.1 5.7-5.5-7.8-8.1z" fill="#c6bfcf"/><path d="m-109.2-80.3 19.4 16.4 5.1-6.1-19.4-16.4z" fill="#c6bfcf"/><path d="m-118.8-72.9 23.4 16 4.5-6.6-23.4-16z" fill="#c6bfcf"/><path d="m-135.9-68.4 35.3 19.4 3.9-7-35.3-19.3z" fill="#c6bfcf"/><path d="m-143.5-57.4 38.8 16.5 3.1-7.3-38.8-16.5z" fill="#c6bfcf"/><path d="m-153.5-46.5 45.4 14.4 2.4-7.6-45.4-14.4z" fill="#c6bfcf"/><path d="m-115.1-24.3 4.5 1 1.7-7.8-4.5-1z" fill="#c6bfcf"/><path d="m-160.5-19.8 48 5.6.9-7.9-48-5.6z" fill="#c6bfcf"/><path d="m-124-5.2 10.8.2.2-8-10.8-.2z" fill="#c6bfcf"/><path d="m-147.3-1.4.6 8 33.5-2.4-.6-8z" fill="#c6bfcf"/><path d="m-162.5 13.7 1.3 7.9 49-8-1.3-7.9z" fill="#c6bfcf"/><path d="m-160.1 27.2 2 7.7 47.6-12.4-2-7.7z" fill="#c6bfcf"/><path d="m-132.5 31.7 2.7 7.5 21.7-7.8-2.7-7.5z" fill="#c6bfcf"/><path d="m-131.5 43.6 3.4 7.2 23.5-10.9-3.4-7.2z" fill="#c6bfcf"/><path d="m-126.7 54.2 4 6.9 22.2-12.9-4-6.9z" fill="#c6bfcf"/><path d="m-109 55.7 4.6 6.5 8.5-5.9-4.6-6.5z" fill="#c6bfcf"/><path d="m-99.8 61.2 5.1 6.1 4.3-3.5-5.1-6.1z" fill="#c6bfcf"/><path d="m-107.8 82.9 5.6 5.6 17.8-17.9-5.6-5.6z" fill="#c6bfcf"/><path d="m-99.7 91 6.1 5.1 16.1-19.1-6.1-5.1z" fill="#c6bfcf"/><path d="m-82.4 86.2 6.5 4.6 5.6-8-6.5-4.6z" fill="#c6bfcf"/><path d="m-86 112.1 6.9 4 16.5-28.3-6.9-4z" fill="#c6bfcf"/><path d="m-77.2 121.4 7.1 3.5 15.4-32.5-7.1-3.5z" fill="#c6bfcf"/><path d="m-67.8 130.8 7.5 2.8 14.1-37.4-7.5-2.8z" fill="#c6bfcf"/><path d="m-56.4 137 7.6 2.2 11.3-39.8-7.6-2.2z" fill="#c6bfcf"/><path d="m-42.1 129.1 7.8 1.5 5.8-29.1-7.8-1.5z" fill="#c6bfcf"/><path d="m-31.7 141.1 7.9.9 4.4-38.9-7.9-.9z" fill="#c6bfcf"/><path d="m-18.7 123.7 8 .2.6-20-8-.2z" fill="#c6bfcf"/><path d="m-8.9 104.5 1.5 31.8 8-.4-1.5-31.8z" fill="#c6bfcf"/><path d="m1.1 103.7 1.9 14.5 7.9-1-1.9-14.5z" fill="#c6bfcf"/><path d="m9.8 103.7 8.9 42.4 7.8-1.6-9-42.4z" fill="#c6bfcf"/><path d="m18.8 102.3 3.4 11.4 7.6-2.2-3.3-11.5z" fill="#c6bfcf"/><path d="m27.8 100.2 10.8 28.4 7.5-2.8-10.8-28.4z" fill="#c6bfcf"/><path d="m36.7 97.1 15.5 32.8 7.2-3.4-15.5-32.8z" fill="#c6bfcf"/><path d="m45.3 93.7 13.2 23.1 6.9-3.9-13.2-23.2z" fill="#c6bfcf"/><path d="m53.5 89.4 18.2 26.9 6.6-4.5-18.3-26.8z" fill="#c6bfcf"/><path d="m61.3 84.5 9.2 11.6 6.2-5-9.2-11.6z" fill="#c6bfcf"/><path d="m68.9 79.1 8.8 9.5 5.9-5.4-8.8-9.5z" fill="#c6bfcf"/><path d="m76 73.1 35.8 33.3 5.4-5.9-35.8-33.3z" fill="#c6bfcf"/><path d="m82.6 66.6 1.3 1 5-6.2-1.3-1z" fill="#c6bfcf"/><path d="m88.7 59.7 12.3 8.3 4.5-6.6-12.3-8.4z" fill="#c6bfcf"/><path d="m95.8 51 37.1 21.4 4-7-37.1-21.4z" fill="#c6bfcf"/><path d="m99.3 44.3 15.2 7.4 3.5-7.1-15.2-7.4z" fill="#c6bfcf"/><path d="m103.6 36.1 31.2 12.5 3-7.4-31.2-12.5z" fill="#c6bfcf"/><path d="m107.4 27.8 1.8.6 2.4-7.6-1.8-.6z" fill="#c6bfcf"/><path d="m110.6 19 19.8 4.7 1.8-7.7-19.8-4.7z" fill="#c6bfcf"/><path d="m113.1 10 21.4 3.5 1.3-7.9-21.4-3.5z" fill="#c6bfcf"/><path d="m115.1 1 49.9 4.5.7-8-49.9-4.5z" fill="#c6bfcf"/><path d="m116.2-8.2 24.2.5.2-8-24.2-.5z" fill="#c6bfcf"/><path d="m116.4-25.3.4 8 8.5-.4-.4-8z" fill="#c6bfcf"/><path d="m115.9-34.5 1 7.9 43.9-5.3-1-7.9z" fill="#c6bfcf"/><path d="m114.5-43.8 1.5 7.8 11-2.2-1.5-7.8z" fill="#c6bfcf"/><path d="m112.5-52.8 2 7.7 5.1-1.4-2-7.7z" fill="#c6bfcf"/><path d="m110-61.7 2.6 7.6 45.2-15.5-2.6-7.6z" fill="#c6bfcf"/><path d="m107-70.4 3.1 7.3 9.6-4-3.1-7.3z" fill="#c6bfcf"/><path d="m103.1-78.7 3.6 7.1 18.5-9.3-3.6-7.1z" fill="#c6bfcf"/><path d="m98.9-87.2 4 6.8 5.5-3.2-4-6.8z" fill="#c6bfcf"/><path d="m94-94.9 4.5 6.6 31-21.3-4.5-6.6z" fill="#c6bfcf"/><path d="m88.7-102.4 4.9 6.3 22-17.4-4.9-6.3z" fill="#c6bfcf"/><path d="m82.8-109.5 5.4 5.9 23.3-21.1-5.4-5.9z" fill="#c6bfcf"/><path d="m76.4-116.2 5.7 5.5 4.4-4.6-5.7-5.5z" fill="#c6bfcf"/><path d="m69.6-122.5 6.1 5.1 20.3-23.9-6.1-5.1z" fill="#c6bfcf"/><path d="m62.5-128.4 6.4 4.7 8.3-11.2-6.4-4.7z" fill="#c6bfcf"/><path d="m54.5-132.6 6.7 4.3 25.4-39.7-6.7-4.3z" fill="#c6bfcf"/><path d="m47.1-138.6 7 3.9 16.8-30.5-7-3.9z" fill="#c6bfcf"/><path d="m38.9-143 7.2 3.4 17.6-37.6-7.2-3.4z" fill="#c6bfcf"/><path d="m30.5-146.8 7.4 2.9 11.1-28.2-7.4-2.9z" fill="#c6bfcf"/><path d="m21.8-150.1 7.6 2.4 11-34.5-7.6-2.4z" fill="#c6bfcf"/><path d="m12.9-152.6 7.7 1.9 2.7-11.1-7.7-1.9z" fill="#c6bfcf"/><path d="m4-154.7 7.8 1.4 8.4-46.2-7.8-1.4z" fill="#c6bfcf"/><path d="m-5.2-156.2 7.9 1 5.8-49.2-7.9-1z" fill="#c6bfcf"/><path d="m-14.3-157.2 8 .4.1-1.9-8-.4z" fill="#c6bfcf"/><path d="m-23.7-169.3.1 11.8 8-.1-.1-11.8z" fill="#c6bfcf"/><path d="m-34.3-178.1 1.5 20.8 8-.6-1.5-20.8z" fill="#c6bfcf"/><path d="m-46.1-185.9 4 29.5 7.9-1-4-29.5z" fill="#c6bfcf"/><path d="m-52.5-161.1 1.2 6 7.8-1.5-1.2-6z" fill="#c6bfcf"/><path d="m-68.7-184.9 8.4 31.8 7.7-2-8.4-31.8z" fill="#c6bfcf"/><path d="m-74.9-167.9 5.8 17.3 7.6-2.5-5.8-17.3z" fill="#c6bfcf"/><path d="m-95.5-191.7 17.8 44.3 7.4-3-17.8-44.3z" fill="#c6bfcf"/><path d="m-87.5-146.4 1.1 2.4 7.1-3.5-1.1-2.4z" fill="#c6bfcf"/><path d="m-97-144.2 2.3 4.3 7-3.9-2.3-4.2z" fill="#c6bfcf"/><path d="m-114.9-154.3 12.1 19.1 6.7-4.3-12.1-19.1z" fill="#c6bfcf"/><path d="m-133.8-162.4 23.3 32.2 6.4-4.7-23.3-32.2z" fill="#c6bfcf"/><path d="m-118.1-124.9.2.3 6.2-5.1-.2-.3z" fill="#c6bfcf"/><path d="m-156-152.2 31 33.6 5.9-5.4-31-33.6z" fill="#c6bfcf"/><path d="m-165.7-145 34.1 32.7 5.5-5.7-34.1-32.7z" fill="#c6bfcf"/><path d="m-141.7-108.8 3.9 3.3 5.1-6-3.9-3.3z" fill="#c6bfcf"/><path d="m-153.1-105.4 9.3 7 4.8-6.3-9.3-7z" fill="#c6bfcf"/><path d="m-191.1-118.7 42 28 4.4-6.6-42-28z" fill="#c6bfcf"/><path d="m-160.9-87 6.7 3.9 4-6.9-6.7-3.9z" fill="#c6bfcf"/><path d="m-181.6-86.5 22.8 11.6 3.6-7.1-22.8-11.6z" fill="#c6bfcf"/><path d="m-165.2-67.7 2.4 1 3.1-7.3-2.4-1z" fill="#c6bfcf"/><path d="m-190.1-66.8 23.8 8.8 2.7-7.5-23.8-8.8z" fill="#c6bfcf"/><path d="m-213.2-62.7 43.8 13.3 2.3-7.6-43.8-13.3z" fill="#c6bfcf"/><path d="m-173.1-40.9 1.3.3 1.8-7.7-1.3-.3z" fill="#c6bfcf"/><path d="m-188.2-34.1 14.3 2.6 1.4-7.8-14.3-2.6z" fill="#c6bfcf"/><path d="m-187.4-23.8 12 1.4 1-7.9-12-1.4z" fill="#c6bfcf"/><path d="m-222.1-16.1 45.6 3 .5-8-45.5-3z" fill="#c6bfcf"/><path d="m-210.1-4.2 33.3.2.1-8-33.3-.2z" fill="#c6bfcf"/><path d="m-201-1.4.4 8 23.9-1.2-.4-8z" fill="#c6bfcf"/><path d="m-205.8 9.6.8 7.9 28.8-3-.8-7.9z" fill="#c6bfcf"/><path d="m-190.5 18.2 1.3 7.9 14.1-2.3-1.3-7.9z" fill="#c6bfcf"/><path d="m-223.8 35.7 1.7 7.8 48.6-10.8-1.7-7.8z" fill="#c6bfcf"/><path d="m-193.5 39.7 2.2 7.6 20-5.6-2.2-7.6z" fill="#c6bfcf"/><path d="m-218.8 59.4 2.6 7.6 47.4-16.3-2.6-7.6z" fill="#c6bfcf"/><path d="m-209.5 68.6 3 7.4 40.9-16.6-3-7.4z" fill="#c6bfcf"/><path d="m-199.5 76.8 3.4 7.2 34.1-16.1-3.4-7.2z" fill="#c6bfcf"/><path d="m-204.1 92.2 3.8 7 42.4-23-3.8-7z" fill="#c6bfcf"/><path d="m-194.8 100.3 4.2 6.7 37.2-22.9-4.2-6.7z" fill="#c6bfcf"/><path d="m-165.8 94.3 4.5 6.5 12.8-8.9-4.5-6.5z" fill="#c6bfcf"/><path d="m-170.6 110.9 4.9 6.3 22.6-17.6-4.9-6.3z" fill="#c6bfcf"/><path d="m-145.6 103.5 5.2 6 3.1-2.7-5.2-6z" fill="#c6bfcf"/><path d="m-144.8 115.8 5.5 5.7 8.3-8-5.5-5.7z" fill="#c6bfcf"/><path d="m-137.6 122.4 5.9 5.4 7.1-7.6-5.9-5.4z" fill="#c6bfcf"/><path d="m-145.2 147.1 6.1 5.1 21.4-25.9-6.1-5.1z" fill="#c6bfcf"/><path d="m-144.9 165.2 6.3 4.7 28.1-37.8-6.3-4.7z" fill="#c6bfcf"/><path d="m-115.7 142.4 6.7 4.4 6.2-9.3-6.7-4.4z" fill="#c6bfcf"/><path d="m-114.3 159.9 6.8 4 12.2-20.6-6.8-4z" fill="#c6bfcf"/><path d="m-108 170 7.1 3.7 13.7-26.5-7.1-3.7z" fill="#c6bfcf"/><path d="m-95.5 168.4 7.2 3.3 9.3-20.6-7.2-3.3z" fill="#c6bfcf"/><path d="m-90.6 184.7 7.4 2.9 12.8-32.7-7.4-2.9z" fill="#c6bfcf"/><path d="m-72.2 164.8 7.6 2.5 3-9-7.6-2.5z" fill="#c6bfcf"/><path d="m-69.7 192.1 7.7 2.1 9.1-33.3-7.7-2.1z" fill="#c6bfcf"/><path d="m-58.5 193 7.8 1.7 6.8-31.3-7.8-1.7z" fill="#c6bfcf"/><path d="m-42.6 166.4 8 1.3.5-2.9-8-1.3z" fill="#c6bfcf"/><path d="m-36.2 188.2 7.9.9 2.5-22.5-7.9-.9z" fill="#c6bfcf"/><path d="m-26.1 195.4 8 .5 1.6-28.4-8-.5z" fill="#c6bfcf"/><path d="m-15.5 205.3 8 .1.2-37.5-8-.1z" fill="#c6bfcf"/><path d="m-5.7 168 .2 4.2 8-.4-.2-4.2z" fill="#c6bfcf"/><path d="m3.6 167.9.6 6.3 8-.8-.6-6.3z" fill="#c6bfcf"/><path d="m12.8 167.2 2 13.4 7.9-1.2-2-13.4z" fill="#c6bfcf"/><path d="m22 166.2.7 3.7 7.8-1.6-.7-3.7z" fill="#c6bfcf"/><path d="m31.2 164.6.6 2.4 7.7-2-.6-2.4z" fill="#c6bfcf"/><path d="m40.1 162.5 2.1 6.5 7.6-2.4-2-6.5z" fill="#c6bfcf"/><path d="m49 160 12.6 34 7.5-2.7-12.6-34z" fill="#c6bfcf"/><path d="m57.9 157.1 8.9 20.8 7.3-3.1-8.9-20.8z" fill="#c6bfcf"/><path d="m66.5 153.7 14.9 30.2 7.1-3.5-14.9-30.2z" fill="#c6bfcf"/><path d="m74.9 149.9 8 14.2 7-3.9-8-14.2z" fill="#c6bfcf"/><path d="m83.1 145.6 7.6 12.1 6.7-4.2-7.6-12.2z" fill="#c6bfcf"/><path d="m91.1 140.9 24.4 35 6.5-4.6-24.3-35z" fill="#c6bfcf"/><path d="m98.9 135.8 13.2 17 6.3-4.9-13.2-17z" fill="#c6bfcf"/><path d="m106.4 130.3 28.5 33.3 6-5.1-28.5-33.3z" fill="#c6bfcf"/><path d="m113.7 124.7 7.3 7.7 5.8-5.5-7.3-7.7z" fill="#c6bfcf"/><path d="m120.5 118.5 2.4 2.2 5.5-5.7-2.4-2.2z" fill="#c6bfcf"/><path d="m127 112 10.9 9.5 5.2-6-10.9-9.5z" fill="#c6bfcf"/><path d="m133.4 105.1 22.4 17.6 4.9-6.3-22.4-17.6z" fill="#c6bfcf"/><path d="m139.3 98 22.8 16.1 4.6-6.5-22.8-16.1z" fill="#c6bfcf"/><path d="m143.8 92.2 2.7 1.8 4.3-6.7-2.7-1.8z" fill="#c6bfcf"/><path d="m150 82.9 7.1 4.1 3.9-6.9-7.1-4.1z" fill="#c6bfcf"/><path d="m155 75.1 9.2 4.7 3.6-7.1-9.2-4.7z" fill="#c6bfcf"/><path d="m159.4 66.9 18.9 8.4 3.2-7.2-18.9-8.4z" fill="#c6bfcf"/><path d="m163.4 58.6 42.3 16.5 2.9-7.4-42.3-16.5z" fill="#c6bfcf"/><path d="m167 50 14.6 4.9 2.5-7.6-14.6-4.9z" fill="#c6bfcf"/><path d="m170.2 41.4 46.9 13.3 2.2-7.6-46.9-13.3z" fill="#c6bfcf"/><path d="m172.9 32.4 32.9 7.6 1.8-7.7-32.9-7.6z" fill="#c6bfcf"/><path d="m175.2 23.5 47.1 8.5 1.4-7.8-47.1-8.5z" fill="#c6bfcf"/><path d="m177.2 14.4 5.1.6 1-7.9-5.1-.6z" fill="#c6bfcf"/><path d="m179.5 3.2 5.2.4.6-8-5.2-.4z" fill="#c6bfcf"/><path d="m180.1-2 7.6.3.3-8-7.6-.3z" fill="#c6bfcf"/><path d="m180.3-21 .1 8 20-.2-.1-8z" fill="#c6bfcf"/><path d="m180.1-30.3.5 8 23.9-1.4-.5-8z" fill="#c6bfcf"/><path d="m179.3-39.6.9 7.9 17.9-1.9-.9-7.9z" fill="#c6bfcf"/><path d="m178.1-48.7 1.2 7.9 1-.2-1.2-7.9z" fill="#c6bfcf"/><path d="m176.6-57.8 1.6 7.8 2.6-.6-1.6-7.8z" fill="#c6bfcf"/><path d="m174.8-66.8 1.9 7.7 12.9-3.3-1.9-7.7z" fill="#c6bfcf"/><path d="m172.2-75.7 2.3 7.6 25.9-7.9-2.3-7.6z" fill="#c6bfcf"/><path d="m169.5-84.6 2.7 7.5 17.8-6.3-2.7-7.5z" fill="#c6bfcf"/><path d="m166.3-93.3 3 7.4 15.4-6.3-3-7.4z" fill="#c6bfcf"/><path d="m162.8-101.7 3.4 7.2 9.4-4.3-3.4-7.2z" fill="#c6bfcf"/><path d="m158.8-110 3.7 7.1 7.6-3.9-3.7-7.1z" fill="#c6bfcf"/><path d="m154.3-118.3 4 6.9 30.8-17.9-4-6.9z" fill="#c6bfcf"/><path d="m149.5-126.2 4.3 6.7 39-25.1-4.3-6.7z" fill="#c6bfcf"/><path d="m144.4-133.8 4.7 6.5 33.1-23.7-4.7-6.5z" fill="#c6bfcf"/><path d="m139-141.4 4.9 6.3 4.6-3.5-4.9-6.3z" fill="#c6bfcf"/><path d="m133.2-148.6 5.2 6 5.6-4.9-5.2-6z" fill="#c6bfcf"/></symbol><use height="410.8" transform="matrix(1 0 0 -1 368.125 209)" width="447.5" x="-223.8" xlink:href="#a" y="-205.4"/><use height="410.8" transform="matrix(1 0 0 -1 911.875 209)" width="447.5" x="-223.8" xlink:href="#a" y="-205.4"/></svg>