<?xml version="1.0" encoding="utf-8"?>
<!-- Generator: Adobe Illustrator 24.0.1, SVG Export Plug-In . SVG Version: 6.00 Build 0)  -->
<svg version="1.1" id="Layer_1" xmlns="http://www.w3.org/2000/svg" xmlns:xlink="http://www.w3.org/1999/xlink" x="0px" y="0px"
	 viewBox="0 0 1200 907" style="enable-background:new 0 0 1200 907;" xml:space="preserve">
<style type="text/css">
	.st0{fill:#514361;}
	.st1{font-family:'RobotoMono-Regular';}
	.st2{font-size:36.6428px;}
	.st3{font-size:46.5172px;}
	.st4{fill:#8E8E8E;}
	.st5{fill:none;stroke:#AFAFAF;stroke-width:4;stroke-linecap:round;stroke-miterlimit:10;}
	.st6{fill:none;stroke:#AFAFAF;stroke-width:4;stroke-linecap:round;stroke-miterlimit:10;stroke-dasharray:0,11.0882;}
	.st7{fill:none;stroke:#AFAFAF;stroke-width:4;stroke-linecap:round;stroke-miterlimit:10;stroke-dasharray:0,9.5916;}
	.st8{fill:none;stroke:#AFAFAF;stroke-width:4;stroke-linecap:round;stroke-miterlimit:10;stroke-dasharray:0,11.0876;}
	.st9{fill:none;stroke:#AFAFAF;stroke-width:4;stroke-linecap:round;stroke-miterlimit:10;stroke-dasharray:0,10.0067;}
	.st10{fill:#AFAFAF;}
	.st11{fill:none;stroke:#514361;stroke-width:3;stroke-miterlimit:10;}
	.st12{fill:none;stroke:#AFAFAF;stroke-width:4;stroke-linecap:round;stroke-miterlimit:10;stroke-dasharray:0,9.9536;}
</style>
<g>
	<g>
		<g>
			<text transform="matrix(0.9552 0 0 1 106.3642 65.9)" class="st0 st1 st2">stems</text>
		</g>
	</g>
	<g>
		<g>
			<text transform="matrix(0.9552 0 0 1 147.2969 224.8833)" class="st0 st1 st3">8</text>
		</g>
	</g>
	<g>
		<g>
			<text transform="matrix(0.9552 0 0 1 147.2969 325.395)" class="st0 st1 st3">9</text>
		</g>
	</g>
	<g>
		<g>
			<text transform="matrix(0.9552 0 0 1 120.6323 425.9067)" class="st0 st1 st3">10</text>
		</g>
	</g>
	<g>
		<g>
			<text transform="matrix(0.9552 0 0 1 120.6323 526.4189)" class="st0 st1 st3">11</text>
		</g>
	</g>
	<g>
		<g>
			<text transform="matrix(0.9552 0 0 1 120.6323 626.9307)" class="st0 st1 st3">12</text>
		</g>
	</g>
	<g>
		<g>
			<text transform="matrix(0.9552 0 0 1 120.6323 727.4434)" class="st0 st1 st3">13</text>
		</g>
	</g>
	<g>
		<g>
			<text transform="matrix(0.9552 0 0 1 120.6323 827.9551)" class="st0 st1 st3">14</text>
		</g>
	</g>
	<g>
		<g>
			<g>
				<text transform="matrix(0.9552 0 0 1 289.028 224.8833)" class="st4 st1 st3">01</text>
			</g>
		</g>
		<g>
			<g>
				<text transform="matrix(0.9552 0 0 1 289.028 325.395)" class="st4 st1 st3">03</text>
			</g>
		</g>
		<g>
			<g>
				<text transform="matrix(0.9552 0 0 1 289.028 425.9067)" class="st4 st1 st3">05</text>
			</g>
		</g>
		<g>
			<g>
				<text transform="matrix(0.9552 0 0 1 289.028 526.4189)" class="st4 st1 st3">10</text>
			</g>
		</g>
		<g>
			<g>
				<text transform="matrix(0.9552 0 0 1 289.028 626.9307)" class="st4 st1 st3">02</text>
			</g>
		</g>
		<g>
			<g>
				<text transform="matrix(0.9552 0 0 1 289.028 727.4434)" class="st4 st1 st3">07</text>
			</g>
		</g>
		<g>
			<g>
				<text transform="matrix(0.9552 0 0 1 289.028 827.9551)" class="st4 st1 st3">09</text>
			</g>
		</g>
	</g>
	<g>
		<g>
			<g>
				<text transform="matrix(0.9552 0 0 1 378.6949 224.8833)" class="st4 st1 st3">13</text>
			</g>
		</g>
		<g>
			<g>
				<text transform="matrix(0.9552 0 0 1 378.6949 325.395)" class="st4 st1 st3">10</text>
			</g>
		</g>
		<g>
			<g>
				<text transform="matrix(0.9552 0 0 1 378.6949 425.9067)" class="st4 st1 st3">12</text>
			</g>
		</g>
		<g>
			<g>
				<text transform="matrix(0.9552 0 0 1 378.6949 526.4189)" class="st4 st1 st3">15</text>
			</g>
		</g>
		<g>
			<g>
				<text transform="matrix(0.9552 0 0 1 378.6949 626.9307)" class="st4 st1 st3">12</text>
			</g>
		</g>
		<g>
			<g>
				<text transform="matrix(0.9552 0 0 1 378.6949 727.4434)" class="st4 st1 st3">11</text>
			</g>
		</g>
		<g>
			<g>
				<text transform="matrix(0.9552 0 0 1 378.6949 827.9551)" class="st4 st1 st3">23</text>
			</g>
		</g>
	</g>
	<g>
		<g>
			<g>
				<text transform="matrix(0.9552 0 0 1 468.3619 224.8833)" class="st4 st1 st3">25</text>
			</g>
		</g>
		<g>
			<g>
				<text transform="matrix(0.9552 0 0 1 468.3619 325.395)" class="st4 st1 st3">17</text>
			</g>
		</g>
		<g>
			<g>
				<text transform="matrix(0.9552 0 0 1 468.3619 425.9067)" class="st4 st1 st3">15</text>
			</g>
		</g>
		<g>
			<g>
				<text transform="matrix(0.9552 0 0 1 468.3619 526.4189)" class="st4 st1 st3">20</text>
			</g>
		</g>
		<g>
			<g>
				<text transform="matrix(0.9552 0 0 1 468.3619 626.9307)" class="st4 st1 st3">22</text>
			</g>
		</g>
		<g>
			<g>
				<text transform="matrix(0.9552 0 0 1 468.3619 727.4434)" class="st4 st1 st3">21</text>
			</g>
		</g>
		<g>
			<g>
				<text transform="matrix(0.9552 0 0 1 468.3619 827.9551)" class="st4 st1 st3">32</text>
			</g>
		</g>
	</g>
	<g>
		<g>
			<g>
				<text transform="matrix(0.9552 0 0 1 558.0284 224.8833)" class="st4 st1 st3">31</text>
			</g>
		</g>
		<g>
			<g>
				<text transform="matrix(0.9552 0 0 1 558.0284 325.395)" class="st4 st1 st3">24</text>
			</g>
		</g>
		<g>
			<g>
				<text transform="matrix(0.9552 0 0 1 558.0284 425.9067)" class="st4 st1 st3">34</text>
			</g>
		</g>
		<g>
			<g>
				<text transform="matrix(0.9552 0 0 1 558.0284 526.4189)" class="st4 st1 st3">32</text>
			</g>
		</g>
		<g>
			<g>
				<text transform="matrix(0.9552 0 0 1 558.0284 626.9307)" class="st4 st1 st3">30</text>
			</g>
		</g>
		<g>
			<g>
				<text transform="matrix(0.9552 0 0 1 558.0284 727.4434)" class="st4 st1 st3">33</text>
			</g>
		</g>
		<g>
			<g>
				<text transform="matrix(0.9552 0 0 1 558.0284 827.9551)" class="st4 st1 st3">37</text>
			</g>
		</g>
	</g>
	<g>
		<g>
			<g>
				<text transform="matrix(0.9552 0 0 1 647.6949 224.8833)" class="st4 st1 st3">40</text>
			</g>
		</g>
		<g>
			<g>
				<text transform="matrix(0.9552 0 0 1 647.6949 325.395)" class="st4 st1 st3">35</text>
			</g>
		</g>
		<g>
			<g>
				<text transform="matrix(0.9552 0 0 1 647.6949 425.9067)" class="st4 st1 st3">40</text>
			</g>
		</g>
		<g>
			<g>
				<text transform="matrix(0.9552 0 0 1 647.6949 526.4189)" class="st4 st1 st3">45</text>
			</g>
		</g>
		<g>
			<g>
				<text transform="matrix(0.9552 0 0 1 647.6949 626.9307)" class="st4 st1 st3">40</text>
			</g>
		</g>
		<g>
			<g>
				<text transform="matrix(0.9552 0 0 1 647.6949 727.4434)" class="st4 st1 st3">13</text>
			</g>
		</g>
		<g>
			<g>
				<text transform="matrix(0.9552 0 0 1 647.6949 827.9551)" class="st4 st1 st3">47</text>
			</g>
		</g>
	</g>
	<g>
		<g>
			<g>
				<text transform="matrix(0.9552 0 0 1 737.3615 224.8833)" class="st4 st1 st3">45</text>
			</g>
		</g>
		<g>
			<g>
				<text transform="matrix(0.9552 0 0 1 737.3615 325.395)" class="st4 st1 st3">44</text>
			</g>
		</g>
		<g>
			<g>
				<text transform="matrix(0.9552 0 0 1 737.3615 425.9067)" class="st4 st1 st3">50</text>
			</g>
		</g>
		<g>
			<g>
				<text transform="matrix(0.9552 0 0 1 737.3615 526.4189)" class="st4 st1 st3">55</text>
			</g>
		</g>
		<g>
			<g>
				<text transform="matrix(0.9552 0 0 1 737.3615 626.9307)" class="st4 st1 st3">50</text>
			</g>
		</g>
		<g>
			<g>
				<text transform="matrix(0.9552 0 0 1 737.3615 727.4434)" class="st4 st1 st3">13</text>
			</g>
		</g>
		<g>
			<g>
				<text transform="matrix(0.9552 0 0 1 737.3615 827.9551)" class="st4 st1 st3">50</text>
			</g>
		</g>
	</g>
	<g>
		<g>
			<g>
				<text transform="matrix(0.9552 0 0 1 827.028 224.8833)" class="st4 st1 st3">50</text>
			</g>
		</g>
		<g>
			<g>
				<text transform="matrix(0.9552 0 0 1 827.028 325.395)" class="st4 st1 st3">55</text>
			</g>
		</g>
		<g>
			<g>
				<text transform="matrix(0.9552 0 0 1 827.028 425.9067)" class="st4 st1 st3">55</text>
			</g>
		</g>
		<g>
			<g>
				<text transform="matrix(0.9552 0 0 1 827.028 526.4189)" class="st4 st1 st3">59</text>
			</g>
		</g>
		<g>
			<g>
				<text transform="matrix(0.9552 0 0 1 827.028 626.9307)" class="st4 st1 st3">56</text>
			</g>
		</g>
		<g>
			<g>
				<text transform="matrix(0.9552 0 0 1 827.028 727.4434)" class="st4 st1 st3">13</text>
			</g>
		</g>
		<g>
			<g>
				<text transform="matrix(0.9552 0 0 1 827.028 827.9551)" class="st4 st1 st3">58</text>
			</g>
		</g>
	</g>
	<g>
		<g>
			<g>
				<g>
					<g>
						<g>
							<line class="st5" x1="97.3" y1="117" x2="97.3" y2="117"/>
							<line class="st6" x1="97.4" y1="105.9" x2="97.5" y2="100.4"/>
							<line class="st5" x1="97.6" y1="94.8" x2="97.6" y2="94.8"/>
							<line class="st7" x1="107.2" y1="94.8" x2="217.5" y2="94.8"/>
							<line class="st5" x1="222.3" y1="94.8" x2="222.3" y2="94.8"/>
							<line class="st8" x1="222.2" y1="105.9" x2="222.1" y2="111.4"/>
							<line class="st5" x1="222.1" y1="117" x2="222.1" y2="117"/>
						</g>
					</g>
					<g>
						<g>
							<text transform="matrix(0.9552 0 0 1 518.5676 65.9)" class="st0 st1 st2">leaves</text>
						</g>
					</g>
					<g>
						<g>
							<text transform="matrix(0.9552 0 0 1 330.4002 891.9971)" class="st0 st1 st2">ordered chronologically</text>
						</g>
					</g>
					<g>
						<g>
							<line class="st5" x1="237.5" y1="117" x2="237.5" y2="117"/>
							<line class="st6" x1="237.6" y1="105.9" x2="237.7" y2="100.4"/>
							<line class="st5" x1="237.8" y1="94.8" x2="237.8" y2="94.8"/>
							<line class="st9" x1="247.8" y1="94.8" x2="893.2" y2="94.8"/>
							<line class="st5" x1="898.3" y1="94.8" x2="898.3" y2="94.8"/>
							<line class="st8" x1="898.1" y1="105.9" x2="898.1" y2="111.4"/>
							<line class="st5" x1="898" y1="117" x2="898" y2="117"/>
						</g>
					</g>
					<g>
						<polygon class="st10" points="1133.4,65.9 1150.6,55.9 1133.4,46 						"/>
					</g>
				</g>
			</g>
		</g>
	</g>
</g>
<line class="st11" x1="222.3" y1="141.2" x2="222.3" y2="862.5"/>
<g>
	<g>
		<line class="st12" x1="842.3" y1="882.8" x2="965.6" y2="882.8"/>
		<g>
			<polygon class="st10" points="962.7,892.8 980,882.8 962.7,872.8 			"/>
		</g>
	</g>
</g>
</svg>
