<?xml version="1.0" encoding="utf-8"?>
<!-- Generator: Adobe Illustrator 24.0.1, SVG Export Plug-In . SVG Version: 6.00 Build 0)  -->
<svg version="1.1" id="Layer_1" xmlns="http://www.w3.org/2000/svg" xmlns:xlink="http://www.w3.org/1999/xlink" x="0px" y="0px"
	 viewBox="0 0 1268 418" style="enable-background:new 0 0 1268 418;" xml:space="preserve">
<style type="text/css">
	.st0{fill:none;stroke:#B2A4C1;stroke-miterlimit:10;}
	.st1{fill:#938F99;}
	.st2{font-family:'Roboto-Regular';}
	.st3{font-size:28.1069px;}
</style>
<g id="Layer_2_1_">
</g>
<g id="Layer_3">
</g>
<line class="st0" x1="28.9" y1="50.7" x2="1238.9" y2="47"/>
<line class="st0" x1="117.4" y1="15.3" x2="116" y2="408"/>
<text transform="matrix(1 0 0 1 68.0762 99.4639)" class="st1 st2 st3">7</text>
<text transform="matrix(1 0 0 1 153.4946 99.4639)" class="st1 st2 st3">01</text>
<text transform="matrix(1 0 0 1 228.2759 99.4639)" class="st1 st2 st3">06</text>
<text transform="matrix(1 0 0 1 303.0571 99.4639)" class="st1 st2 st3">12</text>
<text transform="matrix(1 0 0 1 377.8384 99.4639)" class="st1 st2 st3">15</text>
<text transform="matrix(1 0 0 1 452.6196 99.4639)" class="st1 st2 st3">17</text>
<text transform="matrix(1 0 0 1 527.4009 99.4639)" class="st1 st2 st3">18</text>
<text transform="matrix(1 0 0 1 602.1821 99.4639)" class="st1 st2 st3">21</text>
<text transform="matrix(1 0 0 1 676.9639 99.4639)" class="st1 st2 st3">28</text>
<text transform="matrix(1 0 0 1 751.7451 99.4639)" class="st1 st2 st3">32</text>
<text transform="matrix(1 0 0 1 826.5273 99.4639)" class="st1 st2 st3">37</text>
<text transform="matrix(1 0 0 1 901.3076 99.4639)" class="st1 st2 st3">42</text>
<text transform="matrix(1 0 0 1 976.0889 99.4639)" class="st1 st2 st3">42</text>
<text transform="matrix(1 0 0 1 1050.8701 99.4639)" class="st1 st2 st3">51</text>
<text transform="matrix(1 0 0 1 1125.6514 99.4639)" class="st1 st2 st3">58</text>
<text transform="matrix(1 0 0 1 153.4946 157.6963)" class="st1 st2 st3">03</text>
<text transform="matrix(1 0 0 1 228.2759 157.6963)" class="st1 st2 st3">07</text>
<text transform="matrix(1 0 0 1 303.0571 157.6963)" class="st1 st2 st3">10</text>
<text transform="matrix(1 0 0 1 377.8384 157.6963)" class="st1 st2 st3">18</text>
<text transform="matrix(1 0 0 1 452.6196 157.6963)" class="st1 st2 st3">20</text>
<text transform="matrix(1 0 0 1 527.4009 157.6963)" class="st1 st2 st3">35</text>
<text transform="matrix(1 0 0 1 602.1821 157.6963)" class="st1 st2 st3">50</text>
<text transform="matrix(1 0 0 1 676.9639 157.6963)" class="st1 st2 st3">55</text>
<text transform="matrix(1 0 0 1 153.4946 215.9277)" class="st1 st2 st3">04</text>
<text transform="matrix(1 0 0 1 228.2759 215.9277)" class="st1 st2 st3">09</text>
<text transform="matrix(1 0 0 1 303.0571 215.9277)" class="st1 st2 st3">17</text>
<text transform="matrix(1 0 0 1 377.8384 215.9277)" class="st1 st2 st3">23</text>
<text transform="matrix(1 0 0 1 452.6196 215.9277)" class="st1 st2 st3">25</text>
<text transform="matrix(1 0 0 1 527.4009 215.9277)" class="st1 st2 st3">27</text>
<text transform="matrix(1 0 0 1 602.1821 215.9277)" class="st1 st2 st3">30</text>
<text transform="matrix(1 0 0 1 676.9639 215.9277)" class="st1 st2 st3">31</text>
<text transform="matrix(1 0 0 1 751.7451 215.9277)" class="st1 st2 st3">40</text>
<text transform="matrix(1 0 0 1 153.4946 274.1602)" class="st1 st2 st3">01</text>
<text transform="matrix(1 0 0 1 228.2759 274.1602)" class="st1 st2 st3">09</text>
<text transform="matrix(1 0 0 1 303.0571 274.1602)" class="st1 st2 st3">19</text>
<text transform="matrix(1 0 0 1 377.8384 274.1602)" class="st1 st2 st3">29</text>
<text transform="matrix(1 0 0 1 452.6196 274.1602)" class="st1 st2 st3">39</text>
<text transform="matrix(1 0 0 1 527.4009 274.1602)" class="st1 st2 st3">50</text>
<text transform="matrix(1 0 0 1 153.4946 332.3916)" class="st1 st2 st3">01</text>
<text transform="matrix(1 0 0 1 228.2759 332.3916)" class="st1 st2 st3">06</text>
<text transform="matrix(1 0 0 1 303.0571 332.3916)" class="st1 st2 st3">12</text>
<text transform="matrix(1 0 0 1 377.8384 332.3916)" class="st1 st2 st3">15</text>
<text transform="matrix(1 0 0 1 452.6196 332.3916)" class="st1 st2 st3">17</text>
<text transform="matrix(1 0 0 1 153.4946 390.624)" class="st1 st2 st3">01</text>
<text transform="matrix(1 0 0 1 228.2759 390.624)" class="st1 st2 st3">06</text>
<text transform="matrix(1 0 0 1 303.0571 390.624)" class="st1 st2 st3">12</text>
<text transform="matrix(1 0 0 1 377.8384 390.624)" class="st1 st2 st3">15</text>
<text transform="matrix(1 0 0 1 68.0762 157.6963)" class="st1 st2 st3">8</text>
<text transform="matrix(1 0 0 1 68.0762 215.9277)" class="st1 st2 st3">9</text>
<text transform="matrix(1 0 0 1 52.2935 274.1602)" class="st1 st2 st3">10</text>
<text transform="matrix(1 0 0 1 52.2935 332.3916)" class="st1 st2 st3">11</text>
<text transform="matrix(1 0 0 1 52.2935 390.624)" class="st1 st2 st3">12</text>
<g>
	<text transform="matrix(1 0 0 1 47.5552 37.8491)" class="st1 st2 st3">hour</text>
</g>
<g>
	<text transform="matrix(1 0 0 1 152.7593 37.8491)" class="st1 st2 st3">minute</text>
</g>
</svg>
