<svg enable-background="new 0 0 256 256" viewBox="0 0 256 256" xmlns="http://www.w3.org/2000/svg"><path d="m142.2 178.4c-.9-.9-1.6-1.9-2.2-3-1.7-3-1.9-6.3-.6-9 1.8-3.7 5.1-5.8 9.2-5.9 7.8-.3 17 5.9 20.4 11.7 1.1 2 1.1 4-.1 5.9-2.7 4.2-10.6 5.6-16.9 4.9-3.8-.4-7.3-2.1-9.8-4.6zm20.9-7c-3.6-3.6-9.5-6.8-14.2-6.6-2.7.1-4.5 1.3-5.6 3.5-.7 1.4-.5 3.3.4 5.1 1.6 2.9 4.9 5 8.9 5.4 6 .7 11.6-1.1 12.8-3 .2-.4.3-.7 0-1.4-.6-1-1.4-2-2.3-3zm-45.7 11.6c-.6-.6-1.1-1.2-1.5-1.8-2.2-3.1-2.8-6.5-1.7-10.2 2.3-7.7 14.7-18.6 28-21.7 9.5-2.2 17.5-.2 23.3 5.9 9.8 10.4 16.9 17.9 15.2 27.9-1.5 9-13.6 11.9-24.5 11.6-8.1-.3-29.9-2.8-38.8-11.7zm44.7-25.2c-5.9-5.9-13.5-5.7-18.9-4.4-11.7 2.8-23 12.4-24.9 18.8-.7 2.4-.4 4.5 1.1 6.5.3.5.7.9 1.1 1.3 7.2 7.3 26.9 10.1 35.9 10.3 9.3.2 19.2-2.1 20.2-8 1.2-7.5-4.3-13.8-14.1-24.2-.2-.1-.3-.2-.4-.3zm-69.1 32.8c-4.7-4.7-9.3-12.3-9.3-20.6 0-6.5 2.7-12.2 8-17.1 13.5-12.5 36.7-25.5 50.4-24.6 14.5.9 28 10.8 38.1 28 7.4 12.8 9.9 24.4 7.1 33.6-1.9 6.4-6.2 11.2-12.6 14.4-11.2 5.6-23.6 4.5-39.2 3.1-19.2-1.7-30.8-6.1-41.4-15.8-.3-.3-.7-.6-1.1-1zm4-2.1-1.4 1.6 1.4-1.6c9.8 9 20.7 13.1 38.9 14.7 15.5 1.4 26.8 2.3 36.9-2.7 5.4-2.7 8.9-6.6 10.4-11.8 2.4-8 0-18.7-6.7-30.3-9.3-15.9-21.6-25.1-34.6-25.9-12.1-.7-34.6 11.8-47.3 23.5-4.4 4.1-6.6 8.8-6.6 14 0 7.6 4.7 14.5 9 18.5zm-14.9 15.4c-3.1-3.1-6.2-6.8-9.2-11.1-8.5-11.9-11.4-23.5-8.8-34.5 4-16.6 19.1-25.7 23.7-28 7.5-3.9 15.1-8.2 21.8-12 4.2-2.3 7.8-4.4 10.8-6 13.9-7.5 28.6-6.2 42.5 4 10.8 7.9 20.8 21.3 27.6 36.7 6.4 14.5 9.1 29.1 7.2 38.8-2.2 11.6-9.4 20.9-20.7 26.9-10.3 5.4-23.2 7.6-36.5 6.1-2.4-.3-4.9-.5-7.4-.7-16.1-1.4-34-3-51-20.2zm40.3-87.8c-3 1.6-6.6 3.6-10.7 6-6.7 3.8-14.4 8.1-21.9 12.1-4.2 2.2-18 10.4-21.5 25.3-2.3 9.8.4 20.2 8.1 31 2.9 4.1 5.9 7.6 8.8 10.6 15.9 16 32.4 17.5 48.4 18.9 2.5.2 5 .4 7.5.7 22.8 2.5 48.1-6.8 52.5-29.6 1.7-9-.9-22.5-6.9-36.3-6.5-14.8-16.1-27.5-26.2-35-12.8-9.3-25.5-10.5-38.1-3.7zm6.1-98.3-127.9 221.4h255.8zm-112.3 212.4 112.3-194.4 112.3 194.5m-112.3-2.5"/></svg>