<svg enable-background="new 0 0 256 256" viewBox="0 0 256 256" xmlns="http://www.w3.org/2000/svg"><path d="m128.5 11-127.9 221.5h255.8zm59.2 120.6 53.1 91.9h-105.6zm-59.2 89.4-52.4-94h106.2zm52.5-101h-105l52.5-91zm-111 10.4 51.9 93.1h-105.7zm-17.5 82.1c0 4.4-3.6 8-8 8s-8-3.6-8-8 3.6-8 8-8 8 3.5 8 8zm34.1.6c0 4.4-3.6 8-8 8s-8-3.6-8-8 3.6-8 8-8 8 3.6 8 8zm19-8.7c0 4.4-3.6 8-8 8s-8-3.6-8-8 3.6-8 8-8 8 3.6 8 8zm-28.5-36c0 4.4-3.6 8-8 8s-8-3.6-8-8 3.6-8 8-8 8 3.6 8 8zm124.6 30.7c0 4.4-3.6 8-8 8s-8-3.6-8-8 3.6-8 8-8c4.4-.1 8 3.5 8 8zm-63.2-13.5c0 4.4-3.6 8-8 8s-8-3.6-8-8 3.6-8 8-8 8 3.6 8 8zm-44.1-3.6c0 4.4-3.6 8-8 8s-8-3.6-8-8 3.6-8 8-8 8 3.6 8 8zm51.2-104.3h7.1v5.2h-7.1v8.1h-5.4v-8.1h-7.2v-5.2h7.2v-7.7h5.4zm12.9 24.6h7.1v5.2h-7.1v8.1h-5.5v-8.1h-7.2v-5.2h7.2v-7.7h5.4v7.7zm-48.3-6.8h7.1v5.2h-7.1v8.1h-5.4v-8.1h-7.2v-5.2h7.2v-7.7h5.4zm16.2 59.7h7.1v5.2h-7.1v8.1h-5.4v-8.1h-7.2v-5.2h7.2v-7.7h5.4zm-22.8-17h7.1v5.2h-7.1v8.1h-5.4v-8.1h-7.2v-5.2h7.2v-7.7h5.4zm-39.9 55.1h7.1v5.2h-7.1v8.1h-5.4v-8.1h-7.2v-5.2h7.2v-7.7h5.4zm113.4 28.3c-4.7 0-8.5-3.8-8.5-8.5s3.8-8.5 8.5-8.5 8.5 3.8 8.5 8.5-3.8 8.5-8.5 8.5zm0-13.9c-3 0-5.5 2.5-5.5 5.5s2.5 5.5 5.5 5.5 5.5-2.5 5.5-5.5-2.5-5.5-5.5-5.5zm-53.7-144.8h7.1v5.2h-7.1v8.1h-5.4v-8.1h-7.2v-5.2h7.2v-7.7h5.4zm89.6 153.4c-4.7 0-8.5-3.8-8.5-8.5s3.8-8.5 8.5-8.5 8.5 3.8 8.5 8.5-3.8 8.5-8.5 8.5zm0-14c-3 0-5.5 2.5-5.5 5.5s2.5 5.5 5.5 5.5 5.5-2.5 5.5-5.5-2.5-5.5-5.5-5.5zm-16.1-14.6c-4.7 0-8.5-3.8-8.5-8.5s3.8-8.5 8.5-8.5 8.5 3.8 8.5 8.5-3.8 8.5-8.5 8.5zm0-14c-3 0-5.5 2.5-5.5 5.5s2.5 5.5 5.5 5.5 5.5-2.5 5.5-5.5-2.5-5.5-5.5-5.5zm-22.6 22.7c-4.7 0-8.5-3.8-8.5-8.5s3.8-8.5 8.5-8.5 8.5 3.8 8.5 8.5-3.8 8.5-8.5 8.5zm0-13.9c-3 0-5.5 2.5-5.5 5.5s2.5 5.5 5.5 5.5 5.5-2.5 5.5-5.5c0-3.1-2.5-5.5-5.5-5.5zm-27.1-31.3c-4.7 0-8.5-3.8-8.5-8.5s3.8-8.5 8.5-8.5 8.5 3.8 8.5 8.5-3.8 8.5-8.5 8.5zm0-14c-3 0-5.5 2.5-5.5 5.5s2.5 5.5 5.5 5.5 5.5-2.5 5.5-5.5-2.4-5.5-5.5-5.5zm-15.4-25.5c-4.7 0-8.5-3.8-8.5-8.5s3.8-8.5 8.5-8.5 8.5 3.8 8.5 8.5-3.8 8.5-8.5 8.5zm0-13.9c-3 0-5.5 2.5-5.5 5.5s2.5 5.5 5.5 5.5 5.5-2.5 5.5-5.5-2.4-5.5-5.5-5.5z"/></svg>