<?xml version="1.0" encoding="utf-8"?>
<!-- Generator: Adobe Illustrator 19.2.0, SVG Export Plug-In . SVG Version: 6.00 Build 0)  -->
<svg version="1.1" id="Layer_1" xmlns="http://www.w3.org/2000/svg" xmlns:xlink="http://www.w3.org/1999/xlink" x="0px" y="0px"
	 width="1200px" height="893px" viewBox="0 0 1200 893" enable-background="new 0 0 1200 893" xml:space="preserve">
<g>
	<g>
		<text transform="matrix(1 0 0 1 621.7328 857.4639)" fill="#7F7F7F" font-family="'Roboto-Regular'" font-size="65px">geographical region</text>
	</g>
	<polygon fill="#7581BA" points="1109.456,287.211 1116.217,229.96 1043.909,130.628 958.316,146.676 919.386,99.204 
		919.386,99.204 640.699,2.374 546.372,59.528 188.828,71.345 164.963,156.909 4,216.249 35.861,470.855 14.222,624.987 
		232.935,744.702 532.051,758.194 732.898,638.004 787.118,454.673 918.985,433.807 1117.132,339.848 	"/>
	<circle fill="#464A90" cx="534.904" cy="401.193" r="198.819"/>
	<circle fill="#464A90" cx="855.45" cy="265.11" r="73.036"/>
	<circle fill="#AFAFAF" cx="198.119" cy="609.97" r="16.23"/>
	<circle fill="#AFAFAF" cx="597.796" cy="446.523" r="16.23"/>
	<polyline fill="none" stroke="#AFAFAF" stroke-width="8" stroke-miterlimit="10" points="1197,886 474.149,886 198.119,609.97 	"/>
	<polyline fill="none" stroke="#AFAFAF" stroke-width="8" stroke-miterlimit="10" points="1197,583 733.831,583 595.767,444.936 	
		"/>
	<g>
		<text transform="matrix(1 0 0 1 843.6684 552.8389)" fill="#7F7F7F" font-family="'Roboto-Regular'" font-size="65px">area = value</text>
	</g>
</g>
</svg>
