<svg enable-background="new 0 0 256 159" height="159" viewBox="0 0 256 159" width="256" xmlns="http://www.w3.org/2000/svg"><path d="m254 23.483-5.135-3.672-2.58-7.854-6.529-.558-1.627 11.34-2.068 3.277-1.278 2.184-7.646 2.092-6.344 1.51-5.113 6.624 1.441 3.067-10.713 6.785-3.277 4.16-3.067 2.277-8.296 4.927-4.578-1.394 3.533-8.343-5.229-7.275-1.534-6.088-3.904-2.091-6.693 6.111-1.371 5.229 2.022 6.6-1.998 7.506-3.045.488-1.696-4.462-.86-4.625 1.65-9.504-1.324-1.697 2.068-5.112 12.503-1.79-4.508-4.462-9.807 2.719-4.81-3.3-8.041 3.858-7.18-.721 2.463-7.854-5.089-2.835-4.508.255-5.81-2.811-8.249-.024-27.492-1.394-33.952-4.625-13.85-2.835-3.88-.883-22.266-5.993-1.58 4.973-7.956.5-1.201 13.117-7.738 14.78-.14 5.322-3.718 8.668.232 9.714 7.529 30.303 8.715 4.88 4.043 5.391.79 5.182 12.247 1.604-.767 1.162 18.08 10.62 10.086 1.58 4.647-2.114 8.785 1.162 7.064 7.437 1.929 6.344 6.995 4.787 2.835-4.416 6.785.233 9.551 13.966 2.068 7.227 9.806 1.998-1.254-5.485 2.974-6.274 7.716-4.391 9.504-7.599 8.18 2.487 2.208-1.906 5.345 3.998 5.949-1.952.86-4.95 5.81-1.65 5.112-1.023 7.227.326 6.252 3.532 4.601-3.625 8.389 6.414-.093 6.623 5.205 7.808 9.923 5.717.558-10.876-3.998-8.645-7.366-12.618 1.836-8.412 7.413-8.39 2.231-4.741 11.456-14.407-2.417-3.904.07-.024.232-.046.418-.093.116-.023-3.928-3.533.302-4.02-1.333-1.333 4.052.334 1.185-.581.744-2.881.14-.024.046-.023-3.579-7.529 1.534-1.65 4.532.673-.93-7.598 1.163-.349 7.436-3.88 2.046-3.045.232.14.581.859 2.068-2.487-2.975-5.832-.046-1.278 3.928-5.88zm-213.855 28.701c-6.796 0-12.305-5.509-12.305-12.305s5.509-12.305 12.305-12.305 12.305 5.509 12.305 12.305-5.51 12.305-12.305 12.305zm41.097 38.636c-5.708 0-10.336-4.628-10.336-10.336s4.628-10.336 10.336-10.336 10.336 4.628 10.336 10.336c0 5.709-4.627 10.336-10.336 10.336zm39.867-53.402c4.621 0 8.367 3.746 8.367 8.367s-3.746 8.367-8.367 8.367-8.367-3.746-8.367-8.367 3.746-8.367 8.367-8.367zm.985 82.583c-8.698 0-15.75-7.052-15.75-15.75s7.052-15.75 15.75-15.75 15.75 7.052 15.75 15.75-7.052 15.75-15.75 15.75zm66.199-21.798c-6.388 0-11.566-5.178-11.566-11.566s5.178-11.566 11.566-11.566 11.566 5.178 11.566 11.566-5.178 11.566-11.566 11.566z"/></svg>