<?xml version="1.0" encoding="utf-8"?>
<!-- Generator: Adobe Illustrator 19.2.0, SVG Export Plug-In . SVG Version: 6.00 Build 0)  -->
<svg version="1.1" id="Layer_1" xmlns="http://www.w3.org/2000/svg" xmlns:xlink="http://www.w3.org/1999/xlink" x="0px" y="0px"
	 width="256px" height="256px" viewBox="0 0 256 256" style="enable-background:new 0 0 256 256;" xml:space="preserve">
<path d="M254,72l-5.1-3.7l-2.6-7.9l-6.5-0.6l-1.6,11.3l-2.1,3.3l-1.3,2.2l-7.6,2.1l-6.3,1.5l-5.1,6.6l1.4,3.1l-10.7,6.8l-3.3,4.2
	l-3.1,2.3l-8.3,4.9l-4.6-1.4l3.5-8.3l-5.2-7.3L184,85l-3.9-2.1l-6.7,6.1l-1.4,5.2l2,6.6l-2,7.5l-3,0.5l-1.7-4.5l-0.9-4.6l1.6-9.5
	l-1.3-1.7l2.1-5.1l12.5-1.8l-4.5-4.5L167,80l-4.8-3.3l-8,3.9l-7.2-0.7l2.5-7.9l-5.1-2.8l-4.5,0.3l-5.8-2.8l-8.2,0l-27.5-1.4l-34-4.6
	l-13.8-2.8l-3.9-0.9l-22.3-6l-1.6,5l-8,0.5l-1.2,13.1L5.9,84.2l-0.1,5.3L2,98.1l0.2,9.7l7.5,30.3l8.7,4.9l4,5.4l0.8,5.2l12.2,1.6
	l-0.8,1.2L52.9,167l10.1,1.6l4.6-2.1l8.8,1.2l7.1,7.4l1.9,6.3l7,4.8l2.8-4.4l6.8,0.2l9.6,14l2.1,7.2l9.8,2l-1.3-5.5l3-6.3l7.7-4.4
	l9.5-7.6l8.2,2.5l2.2-1.9l5.3,4l5.9-2l0.9-4.9l5.8-1.6l5.1-1l7.2,0.3l6.3,3.5l4.6-3.6l8.4,6.4l-0.1,6.6l5.2,7.8l9.9,5.7l0.6-10.9
	l-4-8.6l-7.4-12.6l1.8-8.4l7.4-8.4l2.2-4.7l11.5-14.4l-2.4-3.9l0.1,0l0.2,0l0.4-0.1l0.1,0l-3.9-3.5l0.3-4l-1.3-1.3l4.1,0.3l1.2-0.6
	l0.7-2.9l0.1,0l0,0l-3.6-7.5l1.5-1.7l4.5,0.7l-0.9-7.6l1.2-0.3l7.4-3.9l2-3l0.2,0.1l0.6,0.9l2.1-2.5l-3-5.8l0-1.3l3.9-5.9L254,72z
	 M40.1,100.7c-6.8,0-12.3-5.5-12.3-12.3c0-6.8,5.5-12.3,12.3-12.3s12.3,5.5,12.3,12.3C52.5,95.2,46.9,100.7,40.1,100.7z M81.2,139.3
	c-5.7,0-10.3-4.6-10.3-10.3c0-5.7,4.6-10.3,10.3-10.3s10.3,4.6,10.3,10.3C91.6,134.7,87,139.3,81.2,139.3z M121.1,85.9
	c4.6,0,8.4,3.7,8.4,8.4s-3.7,8.4-8.4,8.4s-8.4-3.7-8.4-8.4S116.5,85.9,121.1,85.9z M122.1,168.5c-8.7,0-15.8-7.1-15.8-15.8
	s7.1-15.8,15.8-15.8s15.8,7.1,15.8,15.8S130.8,168.5,122.1,168.5z M188.3,146.7c-6.4,0-11.6-5.2-11.6-11.6s5.2-11.6,11.6-11.6
	s11.6,5.2,11.6,11.6S194.7,146.7,188.3,146.7z"/>
</svg>
