<svg enable-background="new 0 0 1268 418" viewBox="0 0 1268 418" xmlns="http://www.w3.org/2000/svg"><g fill-opacity=".7"><circle cx="361.8" cy="194.6" fill="#b6b6e1" r="20"/><circle cx="337.9" cy="229.4" fill="#b6b6e1" r="19.7"/><circle cx="313.6" cy="187.7" fill="#b6b6e1" r="26.1"/><circle cx="368.5" cy="225.1" fill="#b6b6e1" r="8.7"/><circle cx="296.9" cy="232.3" fill="#b6b6e1" r="19"/><ellipse cx="350" cy="149.5" fill="#b6b6e1" rx="24.2" ry="24.2" transform="matrix(.8536 -.521 .521 .8536 -26.6532 204.2524)"/><circle cx="407.1" cy="217.3" fill="#b6b6e1" r="28.2"/><circle cx="372.9" cy="260.5" fill="#b6b6e1" r="24.5"/><circle cx="390.6" cy="166.3" fill="#b6b6e1" r="18.5"/><ellipse cx="439.7" cy="169.8" fill="#b6b6e1" rx="26.8" ry="26.8" transform="matrix(.8536 -.521 .521 .8536 -24.0502 253.944)"/><ellipse cx="244.2" cy="197.8" fill="#71719d" rx="41.6" ry="41.6" transform="matrix(.7071 -.7071 .7071 .7071 -68.3377 230.6097)"/><circle cx="319.5" cy="272.1" fill="#71719d" r="24.4"/><circle cx="352.6" cy="296.4" fill="#71719d" r="14.2"/><circle cx="309.2" cy="144.9" fill="#71719d" r="14.4"/><circle cx="283" cy="158" fill="#71719d" r="11.8"/><circle cx="262.8" cy="270.5" fill="#71719d" r="29.8"/><circle cx="387.2" cy="130.8" fill="#71719d" r="14.9"/><circle cx="410.2" cy="259" fill="#71719d" r="11.8"/><circle cx="323.5" cy="119.2" fill="#71719d" r="12.8"/><circle cx="222.1" cy="250.5" fill="#71719d" r="13"/><ellipse cx="281.8" cy="129.8" fill="#71719d" rx="14.4" ry="14.4" transform="matrix(.926 -.3776 .3776 .926 -28.1348 115.9882)"/><circle cx="364.1" cy="115.4" fill="#71719d" r="10.3"/><circle cx="425.8" cy="119.4" fill="#71719d" r="22.9"/><circle cx="345" cy="111.2" fill="#71719d" r="6.8"/><circle cx="407.6" cy="297.5" fill="#71719d" r="23.9"/><circle cx="241.1" cy="130.1" fill="#71719d" r="23.7"/><circle cx="370.1" cy="340.3" fill="#71719d" r="30.6"/><ellipse cx="471.1" cy="258" fill="#71719d" rx="45" ry="45" transform="matrix(.926 -.3776 .3776 .926 -62.5474 196.9634)"/><circle cx="300.4" cy="109.4" fill="#71719d" r="10.7"/><circle cx="314.9" cy="323.5" fill="#71719d" r="24.7"/><circle cx="283.9" cy="305.5" fill="#aeaeda" r="8.5"/><ellipse cx="485.1" cy="191.1" fill="#aeaeda" rx="20.9" ry="20.9" transform="matrix(.926 -.3776 .3776 .926 -36.2309 197.2999)"/><circle cx="387.2" cy="77.6" fill="#aeaeda" r="31.5"/><ellipse cx="333.3" cy="94" fill="#aeaeda" rx="11.6" ry="11.6" transform="matrix(.8536 -.521 .521 .8536 -.1674 187.4308)"/><ellipse cx="339.7" cy="65.5" fill="#aeaeda" rx="15" ry="15" transform="matrix(.8536 -.521 .521 .8536 15.5976 186.5767)"/><circle cx="442.7" cy="312" fill="#aeaeda" r="13.3"/><circle cx="307" cy="82.3" fill="#aeaeda" r="14.9"/><circle cx="280" cy="105.2" fill="#aeaeda" r="7.7"/><circle cx="256.9" cy="88.4" fill="#aeaeda" r="18.4"/><circle cx="456.2" cy="135.4" fill="#aeaeda" r="8.8"/><circle cx="258.9" cy="321.1" fill="#aeaeda" r="18.4"/><circle cx="280.3" cy="43.2" fill="#474772" r="29.9"/><circle cx="281.6" cy="346.6" fill="#474772" r="13.3"/><ellipse cx="213.1" cy="284" fill="#474772" rx="19.2" ry="19.2" transform="matrix(.8536 -.521 .521 .8536 -116.7825 152.6327)"/><circle cx="177.5" cy="234.3" fill="#474772" r="32"/><circle cx="199.5" cy="151.2" fill="#9090bb" r="20.4"/><ellipse cx="323.2" cy="42.9" fill="#e0e0ff" rx="10.5" ry="10.5" transform="matrix(.8536 -.521 .521 .8536 24.9759 174.6831)"/><ellipse cx="432.6" cy="83" fill="#e0e0ff" rx="11.7" ry="11.7" transform="matrix(.8536 -.521 .521 .8536 20.1233 237.5516)"/><circle cx="332.8" cy="351" fill="#e0e0ff" r="5.7"/><ellipse cx="500.1" cy="137" fill="#e0e0ff" rx="32.7" ry="32.7" transform="matrix(.926 -.3776 .3776 .926 -14.7288 198.9629)"/><ellipse cx="221.1" cy="321.8" fill="#e0e0ff" rx="16.9" ry="16.9" transform="matrix(.8536 -.521 .521 .8536 -135.2883 162.3343)"/><circle cx="432.3" cy="358.9" fill="#e0e0ff" r="31.9"/><ellipse cx="463" cy="103.4" fill="#e0e0ff" rx="15" ry="15" transform="matrix(.8536 -.521 .521 .8536 13.9132 256.3613)"/><ellipse cx="188.4" cy="185.4" fill="#e0e0ff" rx="13.1" ry="13.1" transform="matrix(.8536 -.521 .521 .8536 -68.9947 125.332)"/><g fill="#aeaeda"><circle cx="160.4" cy="190.2" r="12.8"/><circle cx="181.7" cy="278.8" r="10.2"/><circle cx="357.4" cy="32.7" r="19.9"/><circle cx="508" cy="214.6" r="9.5"/><circle cx="313.9" cy="367.8" r="17.1"/><circle cx="198.8" cy="105.5" r="22.8"/><ellipse cx="277.4" cy="381.4" rx="19.4" ry="19.4" transform="matrix(.8536 -.521 .521 .8536 -158.0939 200.3741)"/><ellipse cx="455.2" cy="78.2" rx="8.9" ry="8.9" transform="matrix(.8536 -.521 .521 .8536 25.9255 248.5933)"/><circle cx="222" cy="66" r="20.5"/><circle cx="342.7" cy="373.2" r="9.8"/><circle cx="480.2" cy="327.7" r="22.9"/><circle cx="432.6" cy="49.6" r="19.2"/><ellipse cx="245.3" cy="357.6" rx="18.1" ry="18.1" transform="matrix(.8536 -.521 .521 .8536 -150.3776 180.1524)"/><ellipse cx="524.3" cy="182.9" rx="16.7" ry="16.7" transform="matrix(.8536 -.521 .521 .8536 -18.4804 299.9674)"/><circle cx="163.4" cy="160.7" r="14.4"/><circle cx="326.8" cy="19.1" r="11.1"/><circle cx="388.1" cy="389.7" r="19.5"/><circle cx="216.4" cy="350.1" r="9.2"/><circle cx="527.2" cy="209.6" r="7.8"/><circle cx="385.1" cy="37.8" r="5.8"/><circle cx="359.9" cy="377.4" r="5.4"/><circle cx="200.7" cy="307.9" r="5.3"/><ellipse cx="514.3" cy="229.7" rx="5.4" ry="5.4" transform="matrix(.853 -.5219 .5219 .853 -44.3026 302.1704)"/><circle cx="239.5" cy="41.2" r="7.7"/><circle cx="487.2" cy="96.1" r="7.8"/><circle cx="458.9" cy="60.4" r="6.9"/><circle cx="176.9" cy="130.3" r="7.8"/><circle cx="404.8" cy="39.4" r="8"/><ellipse cx="330.9" cy="390.5" rx="8.7" ry="8.7" transform="matrix(.8536 -.521 .521 .8536 -155.0033 229.6082)"/><circle cx="473.1" cy="81.3" r="6.9"/><circle cx="358.5" cy="393" r="7.8"/><ellipse cx="502.9" cy="303.4" rx="7.9" ry="7.9" transform="matrix(.8536 -.521 .521 .8536 -84.4382 306.45)"/><circle cx="307.9" cy="17.3" r="5.3"/><circle cx="188.7" cy="295.4" r="5.3"/><ellipse cx="394.1" cy="24.6" rx="7.8" ry="7.8" transform="matrix(.8536 -.521 .521 .8536 44.9139 208.922)"/><ellipse cx="185.3" cy="310.8" rx="7.8" ry="7.8" transform="matrix(.8536 -.521 .521 .8536 -134.7778 142.0692)"/><circle cx="344.2" cy="404.1" r="7.8"/><circle cx="522.7" cy="242.7" r="6.2"/><circle cx="162.9" cy="138" r="5.7"/><circle cx="528.8" cy="225.4" r="5.6"/><circle cx="193.5" cy="328" r="8.8"/><ellipse cx="164.7" cy="272.2" rx="5.5" ry="5.5" transform="matrix(.8536 -.521 .521 .8536 -117.6942 125.6972)"/><circle cx="488.5" cy="79.9" r="6.1"/><circle cx="522.6" cy="256.8" r="5.8"/><circle cx="315.1" cy="396" r="5.5"/><circle cx="147.5" cy="207.1" r="6"/><ellipse cx="175.6" cy="295.6" rx="5.2" ry="5.2" transform="matrix(.8536 -.521 .521 .8536 -128.2681 134.7955)"/><ellipse cx="539" cy="158.5" rx="9.2" ry="9.2" transform="matrix(.8536 -.521 .521 .8536 -3.6646 304.0345)"/><circle cx="416.4" cy="19.4" r="12.6"/><circle cx="476.4" cy="362.7" r="9.9"/><circle cx="522" cy="290.2" r="12.7"/><ellipse cx="550" cy="241.8" rx="20.4" ry="20.4" transform="matrix(.853 -.5219 .5219 .853 -45.3313 322.5362)"/><circle cx="190.7" cy="72.3" r="9"/><circle cx="163.9" cy="113.9" r="10.7"/><ellipse cx="548.6" cy="278.8" rx="13.8" ry="13.8" transform="matrix(.8536 -.521 .521 .8536 -64.9088 326.6566)"/><circle cx="245.8" cy="388.8" r="10.6"/></g><circle cx="160.4" cy="311.9" fill="#d3d3fe" r="14.6"/><ellipse cx="193" cy="351" fill="#d3d3fe" rx="11.6" ry="11.6" transform="matrix(.8536 -.521 .521 .8536 -154.6116 151.9838)"/><circle cx="129.5" cy="174" fill="#d3d3fe" r="19.6"/><ellipse cx="552.5" cy="203.5" fill="#d3d3fe" rx="15.7" ry="15.7" transform="matrix(.8536 -.521 .521 .8536 -25.1223 317.6481)"/><ellipse cx="472.6" cy="32" fill="#d3d3fe" rx="22.2" ry="22.2" transform="matrix(.9382 -.3461 .3461 .9382 18.1148 165.5275)"/><circle cx="147.2" cy="284.4" fill="#d3d3fe" r="13.3"/><ellipse cx="126" cy="254.5" fill="#d3d3fe" rx="20.8" ry="20.8" transform="matrix(.8536 -.521 .521 .8536 -114.1349 102.8985)"/><ellipse cx="516.8" cy="320.8" fill="#d3d3fe" rx="13.6" ry="13.6" transform="matrix(.853 -.5219 .5219 .853 -91.4377 316.8388)"/><circle cx="906.2" cy="194.6" fill="#b6b6e1" r="20"/><circle cx="930.1" cy="229.4" fill="#b6b6e1" r="19.7"/><circle cx="954.4" cy="187.7" fill="#b6b6e1" r="26.1"/><circle cx="899.5" cy="225.1" fill="#b6b6e1" r="8.7"/><circle cx="971.1" cy="232.3" fill="#b6b6e1" r="19"/><ellipse cx="918" cy="149.5" fill="#b6b6e1" rx="24.2" ry="24.2" transform="matrix(.521 -.8536 .8536 .521 312.0762 855.1875)"/><circle cx="860.9" cy="217.3" fill="#b6b6e1" r="28.2"/><circle cx="895.1" cy="260.5" fill="#b6b6e1" r="24.5"/><circle cx="877.4" cy="166.3" fill="#b6b6e1" r="18.5"/><ellipse cx="828.3" cy="169.8" fill="#b6b6e1" rx="26.8" ry="26.8" transform="matrix(.521 -.8536 .8536 .521 251.8589 788.3127)"/><ellipse cx="1023.8" cy="197.8" fill="#71719d" rx="41.6" ry="41.6" transform="matrix(.7071 -.7071 .7071 .7071 160.0008 781.8678)"/><circle cx="948.5" cy="272.1" fill="#71719d" r="24.4"/><circle cx="915.4" cy="296.4" fill="#71719d" r="14.2"/><circle cx="958.8" cy="144.9" fill="#71719d" r="14.4"/><circle cx="985" cy="158" fill="#71719d" r="11.8"/><circle cx="1005.2" cy="270.5" fill="#71719d" r="29.8"/><circle cx="880.8" cy="130.8" fill="#71719d" r="14.9"/><circle cx="857.8" cy="259" fill="#71719d" r="11.8"/><circle cx="944.5" cy="119.2" fill="#71719d" r="12.8"/><circle cx="1045.9" cy="250.5" fill="#71719d" r="13"/><ellipse cx="986.2" cy="129.8" fill="#71719d" rx="14.4" ry="14.4" transform="matrix(.521 -.8536 .8536 .521 361.6431 903.9485)"/><circle cx="903.9" cy="115.4" fill="#71719d" r="10.3"/><circle cx="842.2" cy="119.4" fill="#71719d" r="22.9"/><circle cx="923" cy="111.2" fill="#71719d" r="6.8"/><circle cx="860.4" cy="297.5" fill="#71719d" r="23.9"/><circle cx="1026.9" cy="130.1" fill="#71719d" r="23.7"/><circle cx="897.9" cy="340.3" fill="#71719d" r="30.6"/><ellipse cx="796.9" cy="258" fill="#71719d" rx="45" ry="45" transform="matrix(.7071 -.7071 .7071 .7071 50.9641 639.0659)"/><circle cx="967.6" cy="109.4" fill="#71719d" r="10.7"/><circle cx="953.1" cy="323.5" fill="#71719d" r="24.7"/><circle cx="984.1" cy="305.5" fill="#aeaeda" r="8.5"/><ellipse cx="782.9" cy="191.1" fill="#aeaeda" rx="20.9" ry="20.9" transform="matrix(.521 -.8536 .8536 .521 211.9159 759.7492)"/><circle cx="880.8" cy="77.6" fill="#aeaeda" r="31.5"/><ellipse cx="934.7" cy="94" fill="#aeaeda" rx="11.6" ry="11.6" transform="matrix(.521 -.8536 .8536 .521 367.4581 842.8289)"/><ellipse cx="928.3" cy="65.5" fill="#aeaeda" rx="15" ry="15" transform="matrix(.5491 -.8357 .8357 .5491 363.7774 805.3835)"/><circle cx="825.3" cy="312" fill="#aeaeda" r="13.3"/><circle cx="961" cy="82.3" fill="#aeaeda" r="14.9"/><circle cx="988" cy="105.2" fill="#aeaeda" r="7.7"/><circle cx="1011.1" cy="88.4" fill="#aeaeda" r="18.4"/><circle cx="811.8" cy="135.4" fill="#aeaeda" r="8.8"/><circle cx="1009.1" cy="321.1" fill="#aeaeda" r="18.4"/><circle cx="987.7" cy="43.2" fill="#474772" r="29.9"/><circle cx="986.4" cy="346.6" fill="#474772" r="13.3"/><ellipse cx="1054.9" cy="284" fill="#474772" rx="19.2" ry="19.2" transform="matrix(.521 -.8536 .8536 .521 262.8298 1036.4569)"/><circle cx="1090.5" cy="234.3" fill="#474772" r="32"/><circle cx="1068.5" cy="151.2" fill="#9090bb" r="20.4"/><ellipse cx="944.8" cy="42.9" fill="#e0e0ff" rx="10.5" ry="10.5" transform="matrix(.5491 -.8357 .8357 .5491 390.1141 808.9432)"/><ellipse cx="835.4" cy="83" fill="#e0e0ff" rx="11.7" ry="11.7" transform="matrix(.521 -.8536 .8536 .521 329.311 752.786)"/><circle cx="935.2" cy="351" fill="#e0e0ff" r="5.7"/><ellipse cx="767.9" cy="137" fill="#e0e0ff" rx="32.7" ry="32.7" transform="matrix(.521 -.8536 .8536 .521 250.8358 721.0812)"/><ellipse cx="1046.9" cy="321.8" fill="#e0e0ff" rx="16.9" ry="16.9" transform="matrix(.521 -.8536 .8536 .521 226.7578 1047.7157)"/><circle cx="835.7" cy="358.9" fill="#e0e0ff" r="31.9"/><ellipse cx="805" cy="103.4" fill="#e0e0ff" rx="15" ry="15" transform="matrix(.521 -.8536 .8536 .521 297.3156 736.6735)"/><ellipse cx="1079.6" cy="185.4" fill="#e0e0ff" rx="13.1" ry="13.1" transform="matrix(.651 -.7591 .7591 .651 236.0311 884.163)"/><circle cx="1107.6" cy="190.2" fill="#aeaeda" r="12.8"/><circle cx="1086.3" cy="278.8" fill="#aeaeda" r="10.2"/><circle cx="910.6" cy="32.7" fill="#aeaeda" r="19.9"/><circle cx="760" cy="214.6" fill="#aeaeda" r="9.5"/><circle cx="954.1" cy="367.8" fill="#aeaeda" r="17.1"/><circle cx="1069.2" cy="105.5" fill="#aeaeda" r="22.8"/><ellipse cx="990.6" cy="381.4" fill="#aeaeda" rx="19.4" ry="19.4" transform="matrix(.651 -.7591 .7591 .651 56.2062 885.0613)"/><ellipse cx="812.8" cy="78.2" fill="#aeaeda" rx="8.9" ry="8.9" transform="matrix(.521 -.8536 .8536 .521 322.6107 731.246)"/><circle cx="1046" cy="66" fill="#aeaeda" r="20.5"/><circle cx="925.3" cy="373.2" fill="#aeaeda" r="9.8"/><circle cx="787.8" cy="327.7" fill="#aeaeda" r="22.9"/><circle cx="835.4" cy="49.6" fill="#aeaeda" r="19.2"/><ellipse cx="1022.7" cy="357.6" fill="#aeaeda" rx="18.1" ry="18.1" transform="matrix(.521 -.8536 .8536 .521 184.6759 1044.2262)"/><ellipse cx="743.7" cy="182.9" fill="#aeaeda" rx="16.7" ry="16.7" transform="matrix(.4344 -.9007 .9007 .4344 255.9306 773.2676)"/><circle cx="1104.6" cy="160.7" fill="#aeaeda" r="14.4"/><circle cx="941.2" cy="19.1" fill="#aeaeda" r="11.1"/><circle cx="879.9" cy="389.7" fill="#aeaeda" r="19.5"/><circle cx="1051.6" cy="350.1" fill="#aeaeda" r="9.2"/><circle cx="740.8" cy="209.6" fill="#aeaeda" r="7.8"/><circle cx="882.9" cy="37.8" fill="#aeaeda" r="5.8"/><circle cx="908.1" cy="377.4" fill="#aeaeda" r="5.4"/><circle cx="1067.3" cy="307.9" fill="#aeaeda" r="5.3"/><ellipse cx="753.7" cy="229.7" fill="#aeaeda" rx="5.4" ry="5.4" transform="matrix(.5219 -.853 .853 .5219 164.3857 752.7552)"/><circle cx="1028.5" cy="41.2" fill="#aeaeda" r="7.7"/><circle cx="780.8" cy="96.1" fill="#aeaeda" r="7.8"/><circle cx="809.1" cy="60.4" fill="#aeaeda" r="6.9"/><circle cx="1091.1" cy="130.3" fill="#aeaeda" r="7.8"/><circle cx="863.2" cy="39.4" fill="#aeaeda" r="8"/><ellipse cx="937.1" cy="390.5" fill="#aeaeda" rx="8.7" ry="8.7" transform="matrix(.651 -.7591 .7591 .651 30.5963 847.5978)"/><circle cx="794.9" cy="81.3" fill="#aeaeda" r="6.9"/><circle cx="909.5" cy="393" fill="#aeaeda" r="7.8"/><ellipse cx="765.1" cy="303.4" fill="#aeaeda" rx="7.9" ry="7.9" transform="matrix(.521 -.8536 .8536 .521 107.4894 798.3923)"/><circle cx="960.1" cy="17.3" fill="#aeaeda" r="5.3"/><circle cx="1079.3" cy="295.4" fill="#aeaeda" r="5.3"/><ellipse cx="873.9" cy="24.6" fill="#aeaeda" rx="7.8" ry="7.8" transform="matrix(.521 -.8536 .8536 .521 397.6252 757.6955)"/><ellipse cx="1082.7" cy="310.8" fill="#aeaeda" rx="7.8" ry="7.8" transform="matrix(.521 -.8536 .8536 .521 253.3259 1072.978)"/><circle cx="923.8" cy="404.1" fill="#aeaeda" r="7.8"/><circle cx="745.3" cy="242.7" fill="#aeaeda" r="6.2"/><circle cx="1105.1" cy="138" fill="#aeaeda" r="5.7"/><circle cx="739.2" cy="225.4" fill="#aeaeda" r="5.6"/><circle cx="1074.5" cy="328" fill="#aeaeda" r="8.8"/><ellipse cx="1103.3" cy="272.2" fill="#aeaeda" rx="5.5" ry="5.5" transform="matrix(.521 -.8536 .8536 .521 296.1093 1072.0681)"/><circle cx="779.5" cy="79.9" fill="#aeaeda" r="6.1"/><circle cx="745.4" cy="256.8" fill="#aeaeda" r="5.8"/><circle cx="952.9" cy="396" fill="#aeaeda" r="5.5"/><circle cx="1120.5" cy="207.1" fill="#aeaeda" r="6"/><ellipse cx="1092.4" cy="295.6" fill="#aeaeda" rx="5.2" ry="5.2" transform="matrix(.521 -.8536 .8536 .521 270.9522 1073.9551)"/><ellipse cx="729" cy="158.5" fill="#aeaeda" rx="9.2" ry="9.2" transform="matrix(.521 -.8536 .8536 .521 213.872 698.1873)"/><circle cx="851.6" cy="19.4" fill="#aeaeda" r="12.6"/><circle cx="791.6" cy="362.7" fill="#aeaeda" r="9.9"/><circle cx="746" cy="290.2" fill="#aeaeda" r="12.7"/><ellipse cx="718" cy="241.8" fill="#aeaeda" rx="20.4" ry="20.4" transform="matrix(.5219 -.853 .853 .5219 137.0988 728.0922)"/><circle cx="1077.3" cy="72.3" fill="#aeaeda" r="9"/><circle cx="1104.1" cy="113.9" fill="#aeaeda" r="10.7"/><ellipse cx="719.4" cy="278.8" fill="#aeaeda" rx="13.8" ry="13.8" transform="matrix(.521 -.8536 .8536 .521 106.6234 747.5776)"/><circle cx="1022.2" cy="388.8" fill="#aeaeda" r="10.6"/><circle cx="1107.6" cy="311.9" fill="#d3d3fe" r="14.6"/><ellipse cx="1075" cy="351" fill="#d3d3fe" rx="11.6" ry="11.6" transform="matrix(.521 -.8536 .8536 .521 215.2835 1085.6628)"/><circle cx="1138.5" cy="174" fill="#d3d3fe" r="19.6"/><ellipse cx="715.5" cy="203.5" fill="#d3d3fe" rx="15.7" ry="15.7" transform="matrix(.521 -.8536 .8536 .521 169.0228 708.2184)"/><ellipse cx="795.4" cy="32" fill="#d3d3fe" rx="22.2" ry="22.2" transform="matrix(.5319 -.8468 .8468 .5319 345.1968 688.5499)"/><circle cx="1120.8" cy="284.4" fill="#d3d3fe" r="13.3"/><ellipse cx="1142" cy="254.5" fill="#d3d3fe" rx="20.8" ry="20.8" transform="matrix(.521 -.8536 .8536 .521 329.8161 1096.6718)"/><ellipse cx="751.2" cy="320.8" fill="#d3d3fe" rx="13.6" ry="13.6" transform="matrix(.5219 -.853 .853 .5219 85.56 794.1641)"/></g></svg>