<svg xmlns="http://www.w3.org/2000/svg" width="256" height="256" viewBox="0 0 256 256"><title>icon_sketch</title><path d="M112.2,102.3a19.4,19.4,0,0,1,7.6-3.1,30.1,30.1,0,0,1,16.3,0l7.3,3.1a23.6,23.6,0,0,1,8.7,7.9A15,15,0,0,1,156,117a24.1,24.1,0,0,1,2.7,11.8c-.4,2.8-.8,5.5-1.1,8.2a24.1,24.1,0,0,1-5.5,10.5,24.5,24.5,0,0,1-8.7,7.9,36.8,36.8,0,0,1-4.9,2.3,19.7,19.7,0,0,1-3.9,1.3,31,31,0,0,1-16,0,24.3,24.3,0,0,1-10.3-5.4,23.3,23.3,0,0,1-7.7-8.5,29.2,29.2,0,0,1-4.1-15.2,24.8,24.8,0,0,1,1.1-8.6c1.6-6,2.5-6.7,5.6-10.6a28.5,28.5,0,0,1,2.8-3.5Zm83.1-8.5a19.7,19.7,0,0,0,6.5,7.2,20.2,20.2,0,0,0,8.7,4.5,26.1,26.1,0,0,0,13.6,0,13.3,13.3,0,0,0,3.3-1.3,19.1,19.1,0,0,0,8.2-5.3,8.2,8.2,0,0,0,2.1-2.7,8.3,8.3,0,0,0,2.1-2.8c.9-2,1.7-4,2.6-6.1a25.8,25.8,0,0,0,0-13.5,10.2,10.2,0,0,0-.9-2.2,18.2,18.2,0,0,0-4.1-7.3,18.5,18.5,0,0,0-7.1-6.5l-6-2.6a18.9,18.9,0,0,0-10-.4,13,13,0,0,0-6.4,1.7,19.5,19.5,0,0,0-8.1,5.2l-4,5.1a22,22,0,0,0-1.5,3.1,26.1,26.1,0,0,0-1.6,4.2,19.7,19.7,0,0,0-.5,10.2A19.5,19.5,0,0,0,195.3,93.8Zm58.4,35.4a15.2,15.2,0,0,0-2.2-6.8,16.3,16.3,0,0,0-5.1-5.6,15.9,15.9,0,0,0-6.7-3.5c-6.3-1.6-13.7-.1-18.1,4.8a19.2,19.2,0,0,0-5.5,13.2,13.8,13.8,0,0,0,1.6,7.2,13.9,13.9,0,0,0,3.9,6,18.4,18.4,0,0,0,8.2,4.8l3.2.5a12.5,12.5,0,0,0,5.1-.2,9.3,9.3,0,0,0,4.6-1.2,13.7,13.7,0,0,0,5.9-3.8l2.9-3.7,1.8-4.4A14,14,0,0,0,253.7,129.2Zm-22.9,40.2a12.3,12.3,0,0,0-3.3-5.6,12,12,0,0,0-4.6-4.6,19.3,19.3,0,0,0-8.7-4.6l-.6-.2c-8.7-2.7-18.8.3-25.2,6.7a25.2,25.2,0,0,0-6.6,11.4,19,19,0,0,0-.5,10.3,18.9,18.9,0,0,0,3.1,9.7,26.4,26.4,0,0,0,9.3,9.2,24.7,24.7,0,0,0,13,3.6,25.3,25.3,0,0,0,13.1-3.6c.2,0,.3-.2.5-.3l5.2-4c1.3-1.7,2.7-3.4,4-5.2s1.7-4.1,2.6-6.1a18.7,18.7,0,0,0,.4-10.2A12.4,12.4,0,0,0,230.8,169.4ZM133,78.5l6.2,4.9a32.5,32.5,0,0,0,15.6,4.2,23.8,23.8,0,0,0,11.8-2.7,22.9,22.9,0,0,0,9.9-6.4,22.7,22.7,0,0,0,6.4-9.9,22.7,22.7,0,0,0,2.6-11.8c-.3-2.7-.7-5.5-1.1-8.2A30.7,30.7,0,0,0,176.5,35l-6.2-4.8A32.4,32.4,0,0,0,154.8,26a24.2,24.2,0,0,0-11.9,2.7A22.7,22.7,0,0,0,133,35a22.7,22.7,0,0,0-6.3,9.9A23.4,23.4,0,0,0,124,56.8c.4,2.7.7,5.4,1.1,8.2A30.8,30.8,0,0,0,133,78.5ZM185.5,131a8.3,8.3,0,0,0,3.9-6,7.9,7.9,0,0,0-2.3-6.8,8.7,8.7,0,0,0-4-2.2,6.8,6.8,0,0,0-4-.6,7.6,7.6,0,0,0-6.1,5.3,8.8,8.8,0,0,0,4.3,10.3,8.2,8.2,0,0,0,8.2,0Zm-49.3,43.3a41.8,41.8,0,0,0-18.5-10.8c-10.8-3.3-23.1-1.5-32.8,4.2l-1,.6A41.4,41.4,0,0,0,69,225.1a42.2,42.2,0,0,0,14.9,14.8c3.6,1.8,7.4,3.3,11.1,4.8a42.6,42.6,0,0,0,22.4,0A41.9,41.9,0,0,0,136,233.8a.2.2,0,0,0,.2-.2A41.9,41.9,0,0,0,147,192.8,42.4,42.4,0,0,0,136.2,174.3ZM103.4,90.4h.2a13.5,13.5,0,0,0,5.9-3.1,13.3,13.3,0,0,0,4.5-4.9l1.8-4.2a13.5,13.5,0,0,0,.3-6.9,8.3,8.3,0,0,0-1.2-4.4,12.3,12.3,0,0,0-3.6-5.6c-3.3-3-7.8-5.5-12.4-5.1a17.5,17.5,0,0,0-5.1.7,24.6,24.6,0,0,0-4.7,2,11.6,11.6,0,0,0-4.9,4.4,13.5,13.5,0,0,0-3.2,6,13.5,13.5,0,0,0-.3,6.9,12.5,12.5,0,0,0,2.1,6.5c2.4,3.8,6,7,10.4,8.1l4.7.6A20.4,20.4,0,0,0,103.4,90.4ZM61.9,101.3a18.5,18.5,0,0,0-9.9,0,17.8,17.8,0,0,0-8.2,4.7,19.6,19.6,0,0,0-4.8,8.2,14.4,14.4,0,0,0-.3,7.4,13.7,13.7,0,0,0,2.2,7,19.1,19.1,0,0,0,16,9.2,19.2,19.2,0,0,0,9.4-2.6h.2l3.7-2.8,2.9-3.8c.6-1.5,1.3-2.9,1.9-4.4a14.3,14.3,0,0,0,.3-7.4A8.8,8.8,0,0,0,74,112a9,9,0,0,0-2.3-4,11,11,0,0,0-3.4-3.4,13.6,13.6,0,0,0-6.3-3.3ZM11.4,88c1.1,1.1,1.3,1,3.5,2.8a34.5,34.5,0,0,0,3.5,2.7c1.7.9,6.2,2.6,8,3.3a32.3,32.3,0,0,0,31.2-8.2l5-6.5a31.7,31.7,0,0,0,4.3-16.2,24.2,24.2,0,0,0-2.7-12.4,24.7,24.7,0,0,0-6.6-10.3A32.8,32.8,0,0,0,43.4,35a31.5,31.5,0,0,0-4.2-.9,24.4,24.4,0,0,0-9.7.2,15.9,15.9,0,0,0-8,2.1A24.3,24.3,0,0,0,11.3,43l-5,6.4c-1,2.5-2.1,5-3.1,7.6a22.6,22.6,0,0,0-.6,12.6A24.1,24.1,0,0,0,6.3,81.4C6.9,82.3,10.6,87.1,11.4,88ZM80.5,38.8a20.1,20.1,0,0,0,7.1,7.1,19.5,19.5,0,0,0,10,2.7,19.8,19.8,0,0,0,17.1-29.8,20.1,20.1,0,0,0-7.1-7.1A19.5,19.5,0,0,0,97.6,9h-.3a20.3,20.3,0,0,0-9.9,2.6,19.8,19.8,0,0,0-7,7.1,19.3,19.3,0,0,0,0,19.7C80.4,38.6,80.5,38.7,80.5,38.8Zm117.6-1.4a10.5,10.5,0,0,1-1.3-4.9,10.5,10.5,0,0,1,4.8-8.5,9.8,9.8,0,0,1,14.3,11,8.9,8.9,0,0,1-2.6,4.4.1.1,0,0,0-.1.1h0l-1.4,1.1h-.2l-.4.2a8.5,8.5,0,0,1-3.4,1.1,8.6,8.6,0,0,1-3.9-.3h-.4l-.8-.3-1-.5c0,.1.1.1.2.1l-.7-.4h.1l-1.6-1.2h0A7.4,7.4,0,0,1,198.1,37.4Zm5.6,4.3Zm-2.2-.9h.2l-.4-.2C201.4,40.6,201.4,40.7,201.5,40.8Zm0,0ZM171.2,166.4a8.9,8.9,0,0,0-3.5-3.2,12.4,12.4,0,0,0-9.6-1.3c-3,1-5.9,2.8-7.4,5.7s-2.3,6.4-1.3,9.6v.2c1.3,3.9,4.4,7.9,8.7,8.7h.1c3.2.6,6.7.6,9.4-1.2l2.5-1.9a12.4,12.4,0,0,0,3.2-5.4c.9-2.4.3-4.6,0-7A9.5,9.5,0,0,0,171.2,166.4Zm-120.9-21a6.7,6.7,0,0,0-2.8-2.2,21.1,21.1,0,0,0-9.2-4.9h-.1a27.8,27.8,0,0,0-14.6,0,20.8,20.8,0,0,0-9.4,4.9,21.1,21.1,0,0,0-7.1,7.7,28.1,28.1,0,0,0-3.7,13.9v.5a27.2,27.2,0,0,0,40.9,23.5l.4-.3a26.6,26.6,0,0,0,9.9-9.8,21.2,21.2,0,0,0,3.3-10.3,21.3,21.3,0,0,0-.5-10.9A27,27,0,0,0,50.3,145.4Z"/></svg>