<svg xmlns="http://www.w3.org/2000/svg" xmlns:xlink="http://www.w3.org/1999/xlink" width="650" height="560.5" viewBox="0 0 650 560.5"><defs><style>.a{fill:#e5e5e5;}.b{fill:none;stroke:#4d4d4d;stroke-linecap:round;stroke-linejoin:round;stroke-width:3px;}.c{isolation:isolate;font-size:10.7px;fill:#706f70;font-family:RobotoCondensed-Regular, Roboto Condensed;}.d{letter-spacing:-0.01em;}.e{fill:#575757;stroke:#fff;stroke-miterlimit:10;stroke-width:2.62px;}.f{letter-spacing:-0.01em;}.g{letter-spacing:-0.01em;}</style><symbol id="a" viewBox="0 0 86.2 46.3"><path class="a" d="M0,0H86.2V9.1H0ZM0,18.6H86.2v9.2H0ZM0,37.1H86.2v9.2H0Z"/></symbol></defs><title>spiral-timeline</title><path class="b" d="M250.9,313.5c-16.6-32.9,4.6-71.2,36.6-84.3,45.2-18.5,95.1,10.3,110.9,54.3,20.7,57.3-15.9,119-71.9,137.5-69.4,23-143-21.5-164.1-89.5C137.1,250,189.5,164.4,269.5,140.8c93.6-27.7,191.2,32.6,217.3,124.6,30.1,105.7-38.2,215.3-142.3,244C226.8,541.9,105.1,465.6,74,349.5,39.1,219.8,123.4,86,251.5,52.3c141.8-37.2,287.6,55,323.7,195,15.7,61,10,126.6-15.3,184.3"/><use width="86.2" height="46.3" transform="translate(144.8 148.7) scale(0.57)" xlink:href="#a"/><text class="c" transform="translate(211.7 193.4) rotate(-45.9)"><tspan class="d">f</tspan><tspan x="3.3" y="0">eb</tspan></text><circle class="e" cx="206" cy="177.3" r="5.6"/><use width="86.2" height="46.3" transform="translate(192.4 305.6) scale(0.57)" xlink:href="#a"/><circle class="e" cx="250.9" cy="313.5" r="5.6"/><text class="c" transform="translate(257.1 304.2) rotate(65.8)">jan</text><use width="86.2" height="46.3" transform="translate(279.2 185.8) scale(0.57)" xlink:href="#a"/><circle class="e" cx="305.5" cy="224.7" r="5.6"/><text class="c" transform="translate(298.8 240.9) rotate(-8.2)">mar</text><use width="86.2" height="46.3" transform="translate(376.7 218.4) scale(0.57)" xlink:href="#a"/><circle class="e" cx="363.2" cy="238.1" r="5.6"/><text class="c" transform="translate(349.8 245.9) rotate(35.3)">apr</text><use width="86.2" height="46.3" transform="translate(410.4 278.2) scale(0.57)" xlink:href="#a"/><circle class="e" cx="399.4" cy="285.9" r="5.6"/><text class="c" transform="matrix(0.29, 0.96, -0.96, 0.29, 382.79, 282.43)">m<tspan class="f" x="8" y="0">a</tspan><tspan x="13.1" y="0">y</tspan></text><use width="86.2" height="46.3" transform="translate(410.4 333.3) scale(0.57)" xlink:href="#a"/><circle class="e" cx="400.2" cy="345.6" r="5.6"/><text class="c" transform="translate(390.1 349.3) rotate(-70.4)">jun</text><use width="86.2" height="46.3" transform="translate(379.9 395.2) scale(0.57)" xlink:href="#a"/><circle class="e" cx="368.2" cy="396.4" r="5.6"/><text class="c" transform="translate(358.6 394.6) rotate(-42.4)">jul</text><use width="86.2" height="46.3" transform="translate(303.8 437.4) scale(0.57)" xlink:href="#a"/><circle class="e" cx="314.8" cy="424.5" r="5.6"/><text class="c" transform="matrix(0.96, -0.28, 0.28, 0.96, 304.95, 419)">aug</text><use width="86.2" height="46.3" transform="translate(223.6 436.6) scale(0.57)" xlink:href="#a"/><circle class="e" cx="254.9" cy="422.4" r="5.6"/><text class="c" transform="matrix(0.96, 0.29, -0.29, 0.96, 249.78, 411.25)">sep</text><use width="86.2" height="46.3" transform="translate(157.5 405.2) scale(0.57)" xlink:href="#a"/><circle class="e" cx="202.1" cy="393" r="5.6"/><text class="c" transform="matrix(0.75, 0.66, -0.66, 0.75, 203, 382.34)">oct</text><use width="86.2" height="46.3" transform="translate(108.4 343) scale(0.57)" xlink:href="#a"/><circle class="e" cx="166.9" cy="344.1" r="5.6"/><text class="c" transform="translate(172.6 334.5) rotate(72.1)">n<tspan class="g" x="5.2" y="0">o</tspan><tspan x="10.5" y="0">v</tspan></text><use width="86.2" height="46.3" transform="translate(92.2 273.3) scale(0.57)" xlink:href="#a"/><circle class="e" cx="155.8" cy="284.7" r="5.6"/><text class="c" transform="translate(170.2 293) rotate(-83.7)">dec</text><use width="86.2" height="46.3" transform="translate(109.9 211.2) scale(0.57)" xlink:href="#a"/><circle class="e" cx="170.5" cy="226.1" r="5.6"/><text class="c" transform="translate(180.6 238.2) rotate(-62.7)">jan</text><use width="86.2" height="46.3" transform="translate(195.9 231.6) scale(0.57)" xlink:href="#a"/><circle class="e" cx="256.3" cy="255.9" r="5.6"/><text class="c" transform="translate(266.5 268.4) rotate(-62.7)"><tspan class="d">f</tspan><tspan x="3.3" y="0">eb</tspan></text><use width="86.2" height="46.3" transform="translate(217 105.2) scale(0.57)" xlink:href="#a"/><circle class="e" cx="257.2" cy="145.1" r="5.6"/><text class="c" transform="matrix(0.91, -0.4, 0.4, 0.91, 255.99, 163.3)">mar</text><use width="86.2" height="46.3" transform="translate(291.5 96.8) scale(0.57)" xlink:href="#a"/><circle class="e" cx="316.6" cy="134" r="5.6"/><text class="c" transform="translate(309.8 149.1) rotate(-1)">apr</text><use width="86.2" height="46.3" transform="translate(368.7 107.2) scale(0.57)" xlink:href="#a"/><circle class="e" cx="376" cy="145.1" r="5.6"/><text class="c" transform="matrix(0.93, 0.37, -0.37, 0.93, 362.25, 156.51)">m<tspan class="f" x="8" y="0">a</tspan><tspan x="13.1" y="0">y</tspan></text><use width="86.2" height="46.3" transform="translate(434.9 138.6) scale(0.57)" xlink:href="#a"/><circle class="e" cx="427.9" cy="175.8" r="5.6"/><text class="c" transform="translate(413.7 182.7) rotate(40.3)">jun</text><use width="86.2" height="46.3" transform="translate(476.5 192.3) scale(0.57)" xlink:href="#a"/><circle class="e" cx="467.7" cy="221.6" r="5.6"/><text class="c" transform="translate(453.2 225.1) rotate(60.2)">jul</text><use width="86.2" height="46.3" transform="translate(501.1 260.1) scale(0.57)" xlink:href="#a"/><circle class="e" cx="489.6" cy="277.4" r="5.6"/><text class="c" transform="matrix(0.21, 0.98, -0.98, 0.21, 474.88, 275.35)">aug</text><use width="86.2" height="46.3" transform="translate(501.1 328) scale(0.57)" xlink:href="#a"/><circle class="e" cx="492.6" cy="338.1" r="5.6"/><text class="c" transform="translate(478.4 330.5) rotate(94.9)">sep</text><use width="86.2" height="46.3" transform="translate(488.2 386.1) scale(0.57)" xlink:href="#a"/><circle class="e" cx="476.5" cy="396.4" r="5.6"/><text class="c" transform="translate(468.1 398.3) rotate(-65.7)">oct</text><use width="86.2" height="46.3" transform="translate(451.9 444.2) scale(0.57)" xlink:href="#a"/><circle class="e" cx="443.4" cy="447.3" r="5.6"/><text class="c" transform="matrix(0.65, -0.76, 0.76, 0.65, 432.42, 448.24)">n<tspan class="g" x="5.2" y="0">o</tspan><tspan x="10.5" y="0">v</tspan></text><use width="86.2" height="46.3" transform="translate(404.5 494.5) scale(0.57)" xlink:href="#a"/><circle class="e" cx="397.2" cy="486.6" r="5.6"/><text class="c" transform="matrix(0.79, -0.61, 0.61, 0.79, 386.16, 483.86)">dec</text><use width="86.2" height="46.3" transform="translate(328.3 520.9) scale(0.57)" xlink:href="#a"/><circle class="e" cx="341.8" cy="510.5" r="5.6"/><text class="c" transform="matrix(0.98, -0.2, 0.2, 0.98, 332.27, 503.13)">jan</text><use width="86.2" height="46.3" transform="translate(254.7 528) scale(0.57)" xlink:href="#a"/><circle class="e" cx="281.4" cy="516.9" r="5.6"/><text class="c" transform="matrix(1, 0.05, -0.05, 1, 275.68, 507.42)"><tspan class="d">f</tspan><tspan x="3.3" y="0">eb</tspan></text><use width="86.2" height="46.3" transform="translate(184.7 517.9) scale(0.57)" xlink:href="#a"/><circle class="e" cx="222" cy="505.8" r="5.6"/><text class="c" transform="translate(217.6 495) rotate(20.8)">mar</text><use width="86.2" height="46.3" transform="translate(113.2 489.6) scale(0.57)" xlink:href="#a"/><circle class="e" cx="167.2" cy="479.3" r="5.6"/><text class="c" transform="translate(166.5 467.4) rotate(34.3)">apr</text><use width="86.2" height="46.3" transform="translate(61.3 437.4) scale(0.57)" xlink:href="#a"/><circle class="e" cx="121.9" cy="439.3" r="5.6"/><text class="c" transform="translate(122.8 426) rotate(49.9)">m<tspan class="f" x="8" y="0">a</tspan><tspan x="13.1" y="0">y</tspan></text><use width="86.2" height="46.3" transform="translate(28.2 384.1) scale(0.57)" xlink:href="#a"/><circle class="e" cx="88.6" cy="388.8" r="5.6"/><text class="c" transform="matrix(0.37, 0.93, -0.93, 0.37, 94.46, 380.42)">jun</text><use width="86.2" height="46.3" transform="translate(9.3 325.4) scale(0.57)" xlink:href="#a"/><circle class="e" cx="69.9" cy="331" r="5.6"/><text class="c" transform="translate(78.7 326.1) rotate(84.6)">jul</text><use width="86.2" height="46.3" transform="translate(4.7 260.1) scale(0.57)" xlink:href="#a"/><circle class="e" cx="66.8" cy="270.7" r="5.6"/><text class="c" transform="translate(80.7 279.4) rotate(-83.2)">aug</text><use width="86.2" height="46.3" transform="translate(17 192.3) scale(0.57)" xlink:href="#a"/><circle class="e" cx="79.5" cy="211.2" r="5.6"/><text class="c" transform="translate(89.4 222.9) rotate(-69.8)">sep</text><use width="86.2" height="46.3" transform="translate(41.5 138.6) scale(0.57)" xlink:href="#a"/><circle class="e" cx="106.6" cy="157.3" r="5.6"/><text class="c" transform="translate(113.8 171.2) rotate(-55.9)">oct</text><use width="86.2" height="46.3" transform="translate(83.9 83.6) scale(0.57)" xlink:href="#a"/><circle class="e" cx="145.7" cy="110.8" r="5.6"/><text class="c" transform="translate(149.3 126.2) rotate(-45.8)">n<tspan class="g" x="5.2" y="0">o</tspan><tspan x="10.5" y="0">v</tspan></text><use width="86.2" height="46.3" transform="translate(142.8 36.5) scale(0.57)" xlink:href="#a"/><circle class="e" cx="194.6" cy="75.2" r="5.6"/><text class="c" transform="matrix(0.85, -0.52, 0.52, 0.85, 195.58, 91.09)">dec</text><use width="86.2" height="46.3" transform="translate(214 13.7) scale(0.57)" xlink:href="#a"/><circle class="e" cx="250.7" cy="52.6" r="5.6"/><text class="c" transform="translate(249.6 68.4) rotate(-14.7)">j<tspan class="g" x="2.4" y="0">a</tspan><tspan x="7.4" y="0">v</tspan></text><use width="86.2" height="46.3" transform="translate(285.5 6.6) scale(0.57)" xlink:href="#a"/><circle class="e" cx="311" cy="44.2" r="5.6"/><text class="c" transform="matrix(1, -0.02, 0.02, 1, 304.54, 59.41)"><tspan class="d">f</tspan><tspan x="3.3" y="0">eb</tspan></text><use width="86.2" height="46.3" transform="translate(358.4 12.2) scale(0.57)" xlink:href="#a"/><circle class="e" cx="371.1" cy="50.3" r="5.6"/><text class="c" transform="matrix(0.98, 0.22, -0.22, 0.98, 359.65, 63.41)">mar</text><use width="86.2" height="46.3" transform="translate(422.8 33.8) scale(0.57)" xlink:href="#a"/><circle class="e" cx="428.3" cy="69.9" r="5.6"/><text class="c" transform="translate(417.2 80.1) rotate(28)">apr</text><use width="86.2" height="46.3" transform="translate(488.2 70.4) scale(0.57)" xlink:href="#a"/><circle class="e" cx="480.1" cy="101.6" r="5.6"/><text class="c" transform="translate(464.8 107.3) rotate(35.8)">m<tspan class="f" x="8" y="0">a</tspan><tspan x="13.1" y="0">y</tspan></text><use width="86.2" height="46.3" transform="translate(537.3 120.4) scale(0.57)" xlink:href="#a"/><circle class="e" cx="523.1" cy="144.5" r="5.6"/><text class="c" transform="matrix(0.66, 0.75, -0.75, 0.66, 508.16, 147.09)">jun</text><use width="86.2" height="46.3" transform="translate(573.6 179.1) scale(0.57)" xlink:href="#a"/><circle class="e" cx="555.7" cy="195.5" r="5.6"/><text class="c" transform="translate(541 196.6) rotate(62.8)">jul</text><use width="86.2" height="46.3" transform="translate(591.6 231.6) scale(0.57)" xlink:href="#a"/><circle class="e" cx="576.4" cy="252.4" r="5.6"/><text class="c" transform="translate(560.5 249.4) rotate(71.5)">aug</text><use width="86.2" height="46.3" transform="translate(594.2 299.7) scale(0.57)" xlink:href="#a"/><circle class="e" cx="583.9" cy="313.4" r="5.6"/><text class="c" transform="matrix(0, 1, -1, 0, 570.33, 304.72)">sep</text><use width="86.2" height="46.3" transform="translate(591.6 359.7) scale(0.57)" xlink:href="#a"/><circle class="e" cx="578.4" cy="373.9" r="5.6"/><text class="c" transform="translate(569 378) rotate(-74.2)">oct</text><use width="86.2" height="46.3" transform="translate(573.6 419.7) scale(0.57)" xlink:href="#a"/><circle class="e" cx="560" cy="431.5" r="5.6"/><text class="c" transform="translate(550.4 435) rotate(-67.2)">n<tspan class="g" x="5.2" y="0">o</tspan><tspan x="10.5" y="0">v</tspan></text></svg>