<?xml version="1.0" encoding="utf-8"?>
<!-- Generator: Adobe Illustrator 24.0.1, SVG Export Plug-In . SVG Version: 6.00 Build 0)  -->
<svg version="1.1" id="Layer_1" xmlns="http://www.w3.org/2000/svg" xmlns:xlink="http://www.w3.org/1999/xlink" x="0px" y="0px"
	 viewBox="0 0 1268 418" style="enable-background:new 0 0 1268 418;" xml:space="preserve">
<style type="text/css">
	.st0{opacity:0.7;fill:#C0C0D9;enable-background:new    ;}
	.st1{opacity:0.7;fill:#9494AD;enable-background:new    ;}
	.st2{opacity:0.7;fill:#B2B2CB;enable-background:new    ;}
	.st3{opacity:0.7;fill:#8888A1;enable-background:new    ;}
	.st4{fill:#6B6B84;}
	.st5{opacity:0.7;fill:#5B5B74;enable-background:new    ;}
	.st6{opacity:0.7;fill:#72728B;enable-background:new    ;}
	.st7{opacity:0.7;fill:#8C8CA5;enable-background:new    ;}
	.st8{opacity:0.7;fill:#66667F;enable-background:new    ;}
	.st9{opacity:0.7;fill:#9F9FB8;enable-background:new    ;}
	.st10{fill:#DBDBF4;}
	.st11{opacity:0.7;fill:#7D7D96;enable-background:new    ;}
	.st12{opacity:0.7;fill:#B5B5CE;enable-background:new    ;}
	.st13{opacity:0.7;fill:#ABABC4;enable-background:new    ;}
	.st14{opacity:0.7;fill:#B6B6CF;enable-background:new    ;}
	.st15{opacity:0.7;fill:#8E8EA7;enable-background:new    ;}
	.st16{fill:#E6E6FF;}
	.st17{fill:#A8A8C1;}
	.st18{fill:none;stroke:#8988A1;stroke-width:2.6696;}
	.st19{fill:#CCCCCC;}
	.st20{font-family:'RobotoMono-Regular';}
	.st21{font-size:19.6838px;}
	.st22{fill:#8C8BA4;}
	.st23{fill:#C9C9E2;}
</style>
<title>spiral-heatmap copy</title>
<rect x="873.8" y="78" class="st0" width="75.4" height="43.1"/>
<rect x="949.1" y="78" class="st1" width="75.4" height="43.1"/>
<rect x="1024.4" y="78" class="st2" width="75.4" height="43.1"/>
<rect x="1099.8" y="78" class="st3" width="75.4" height="43.1"/>
<rect x="873.8" y="121.1" class="st3" width="75.4" height="43.1"/>
<rect x="949.1" y="121.1" class="st4" width="75.4" height="43.1"/>
<rect x="1024.4" y="121.1" class="st3" width="75.4" height="43.1"/>
<rect x="1099.8" y="121.1" class="st5" width="75.4" height="43.1"/>
<rect x="873.8" y="164.2" class="st6" width="75.4" height="43.1"/>
<rect x="949.1" y="164.2" class="st7" width="75.4" height="43.1"/>
<rect x="1024.4" y="164.2" class="st8" width="75.4" height="43.1"/>
<rect x="1099.8" y="164.2" class="st6" width="75.4" height="43.1"/>
<rect x="873.8" y="207.2" class="st1" width="75.4" height="43.1"/>
<rect x="949.1" y="207.2" class="st0" width="75.4" height="43.1"/>
<rect x="1024.4" y="207.2" class="st9" width="75.4" height="43.1"/>
<rect x="1099.8" y="207.2" class="st1" width="75.4" height="43.1"/>
<rect x="873.8" y="250.2" class="st10" width="75.4" height="43.1"/>
<rect x="949.1" y="250.2" class="st9" width="75.4" height="43.1"/>
<rect x="1024.4" y="250.2" class="st0" width="75.4" height="43.1"/>
<rect x="1099.8" y="250.2" class="st11" width="75.4" height="43.1"/>
<rect x="873.8" y="293.3" class="st12" width="75.4" height="43.1"/>
<rect x="949.1" y="293.3" class="st13" width="75.4" height="43.1"/>
<rect x="1024.4" y="293.3" class="st14" width="75.4" height="43.1"/>
<rect x="1099.8" y="293.3" class="st15" width="75.4" height="43.1"/>
<rect x="873.8" y="336.3" class="st9" width="75.4" height="43.1"/>
<rect x="949.1" y="336.3" class="st16" width="75.4" height="43.1"/>
<rect x="1024.4" y="336.3" class="st17" width="75.4" height="43.1"/>
<rect x="1099.8" y="336.3" class="st8" width="75.4" height="43.1"/>
<path class="st18" d="M790.2,131.9H781v67.3"/>
<path class="st18" d="M818.6,266.4H781v-67.3"/>
<path class="st18" d="M867.6,99.6h-77.3v32.3"/>
<path class="st18" d="M828.8,164.2h-38.6v-32.3"/>
<path class="st18" d="M867.6,228.7h-48.9v37.6"/>
<path class="st18" d="M842.5,304h-23.9v-37.6"/>
<path class="st18" d="M867.6,142.6h-38.7v21.5"/>
<path class="st18" d="M867.6,185.7h-38.7v-21.5"/>
<path class="st18" d="M867.6,271.7h-25V304"/>
<path class="st18" d="M853.9,336.3h-11.4V304"/>
<path class="st18" d="M867.6,314.8h-13.6v21.5"/>
<path class="st18" d="M867.6,357.9h-13.6v-21.5"/>
<text transform="matrix(1 0 0 1 1187.3691 104.4453)" class="st19 st20 st21">a</text>
<text transform="matrix(1 0 0 1 1187.3691 233.6533)" class="st19 st20 st21">e</text>
<text transform="matrix(1 0 0 1 1187.3691 147.5146)" class="st19 st20 st21">f</text>
<text transform="matrix(1 0 0 1 1187.3691 190.584)" class="st19 st20 st21">g</text>
<text transform="matrix(1 0 0 1 1187.3691 276.7236)" class="st19 st20 st21">b</text>
<text transform="matrix(1 0 0 1 1187.3691 319.7041)" class="st19 st20 st21">c</text>
<text transform="matrix(1 0 0 1 1187.3691 362.7734)" class="st19 st20 st21">d</text>
<path class="st18" d="M949.1,41.1V10.4h75.4"/>
<path class="st18" d="M1099.8,56.5V10.4h-75.4"/>
<path class="st18" d="M911.4,71.9V41.1h37.6"/>
<path class="st18" d="M986.8,71.9V41.1h-37.7"/>
<path class="st18" d="M1062.1,71.9V56.5h37.6"/>
<path class="st18" d="M1137.4,71.9V56.5h-37.6"/>
<text transform="matrix(1 0 0 1 903.502 403.9746)" class="st19 st20 st21">c1</text>
<text transform="matrix(1 0 0 1 977.0049 403.9746)" class="st19 st20 st21">c2</text>
<text transform="matrix(1 0 0 1 1054.1562 403.9746)" class="st19 st20 st21">c3</text>
<text transform="matrix(1 0 0 1 1126.8584 403.9746)" class="st19 st20 st21">c4</text>
<rect x="298.3" y="78" class="st0" width="75.4" height="43.1"/>
<rect x="223" y="78" class="st1" width="75.4" height="43.1"/>
<rect x="147.6" y="78" class="st2" width="75.4" height="43.1"/>
<rect x="72.2" y="78" class="st3" width="75.4" height="43.1"/>
<rect x="298.3" y="121.1" class="st3" width="75.4" height="43.1"/>
<rect x="223" y="121.1" class="st4" width="75.4" height="43.1"/>
<rect x="147.6" y="121.1" class="st3" width="75.4" height="43.1"/>
<rect x="72.2" y="121.1" class="st5" width="75.4" height="43.1"/>
<rect x="298.3" y="164.2" class="st6" width="75.4" height="43.1"/>
<rect x="223" y="164.2" class="st7" width="75.4" height="43.1"/>
<rect x="147.6" y="164.2" class="st8" width="75.4" height="43.1"/>
<rect x="72.2" y="164.2" class="st6" width="75.4" height="43.1"/>
<rect x="298.3" y="207.2" class="st1" width="75.4" height="43.1"/>
<rect x="223" y="207.2" class="st0" width="75.4" height="43.1"/>
<rect x="147.6" y="207.2" class="st9" width="75.4" height="43.1"/>
<rect x="72.2" y="207.2" class="st1" width="75.4" height="43.1"/>
<rect x="298.3" y="250.2" class="st10" width="75.4" height="43.1"/>
<rect x="223" y="250.2" class="st9" width="75.4" height="43.1"/>
<rect x="147.6" y="250.2" class="st0" width="75.4" height="43.1"/>
<rect x="72.2" y="250.2" class="st11" width="75.4" height="43.1"/>
<rect x="298.3" y="293.3" class="st12" width="75.4" height="43.1"/>
<rect x="223" y="293.3" class="st13" width="75.4" height="43.1"/>
<rect x="147.6" y="293.3" class="st14" width="75.4" height="43.1"/>
<rect x="72.2" y="293.3" class="st15" width="75.4" height="43.1"/>
<rect x="298.3" y="336.3" class="st9" width="75.4" height="43.1"/>
<rect x="223" y="336.3" class="st16" width="75.4" height="43.1"/>
<rect x="147.6" y="336.3" class="st17" width="75.4" height="43.1"/>
<rect x="72.2" y="336.3" class="st8" width="75.4" height="43.1"/>
<path class="st18" d="M466.4,199.1v-67.3h-9.3"/>
<path class="st18" d="M466.4,199.1v67.3h-37.6"/>
<path class="st18" d="M457.2,131.9V99.6h-77.3"/>
<path class="st18" d="M457.2,131.9v32.3h-38.6"/>
<path class="st18" d="M428.8,266.3v-37.6h-48.9"/>
<path class="st18" d="M428.8,266.4V304h-23.9"/>
<path class="st18" d="M418.6,164.2v-21.5h-38.7"/>
<path class="st18" d="M418.6,164.2v21.5h-38.7"/>
<path class="st18" d="M404.9,304v-32.3h-25"/>
<path class="st18" d="M404.9,304v32.3h-11.4"/>
<path class="st18" d="M393.5,336.3v-21.5h-13.6"/>
<path class="st18" d="M393.5,336.3v21.5h-13.6"/>
<text transform="matrix(1 0 0 1 38.0445 104.4453)" class="st19 st20 st21">a</text>
<text transform="matrix(1 0 0 1 38.0445 233.6533)" class="st19 st20 st21">e</text>
<text transform="matrix(1 0 0 1 38.0445 147.5146)" class="st19 st20 st21">f</text>
<text transform="matrix(1 0 0 1 38.0445 190.584)" class="st19 st20 st21">g</text>
<text transform="matrix(1 0 0 1 38.0445 276.7236)" class="st19 st20 st21">b</text>
<text transform="matrix(1 0 0 1 38.0445 319.7041)" class="st19 st20 st21">c</text>
<text transform="matrix(1 0 0 1 38.0445 362.7734)" class="st19 st20 st21">d</text>
<path class="st18" d="M223,10.4h75.4v30.7"/>
<path class="st18" d="M223,10.4h-75.4v46.1"/>
<path class="st18" d="M298.4,41.1H336v30.8"/>
<path class="st18" d="M298.4,41.1h-37.7v30.8"/>
<path class="st18" d="M147.7,56.5h37.6v15.4"/>
<path class="st18" d="M147.6,56.5H110v15.4"/>
<text transform="matrix(1 0 0 1 99.5557 403.9746)" class="st19 st20 st21">c1</text>
<text transform="matrix(1 0 0 1 173.0582 403.9746)" class="st19 st20 st21">c2</text>
<text transform="matrix(1 0 0 1 250.21 403.9746)" class="st19 st20 st21">c3</text>
<text transform="matrix(1 0 0 1 322.9122 403.9746)" class="st19 st20 st21">c4</text>
<rect x="604.4" y="114.2" class="st4" width="18.4" height="35.7"/>
<rect x="604.4" y="152.1" class="st22" width="18.4" height="35.7"/>
<rect x="604.4" y="190.1" class="st23" width="18.4" height="35.7"/>
<rect x="604.4" y="228.3" class="st16" width="18.4" height="35.7"/>
<rect x="604.4" y="266" class="st22" width="18.4" height="35.7"/>
<rect x="604.4" y="304.4" class="st4" width="18.4" height="35.7"/>
<text transform="matrix(1 0 0 1 634.752 122.5986)" class="st19 st20 st21">150</text>
<text transform="matrix(1 0 0 1 634.752 196.6353)" class="st19 st20 st21">100</text>
<text transform="matrix(1 0 0 1 634.752 271.2949)" class="st19 st20 st21">50</text>
<text transform="matrix(1 0 0 1 634.752 347.1113)" class="st19 st20 st21">0</text>
</svg>
