<svg xmlns="http://www.w3.org/2000/svg" width="256" height="256" viewBox="0 0 256 256"><title>icon_sketch</title><path d="M56.9,56.6h56.4V97H56.9ZM118.7,97h56.4V56.6H118.7Zm61.9-40.4V97H237V56.6ZM56.9,141.2h56.4V100.7H56.9Zm61.8,0h56.4V100.7H118.7Zm61.9,0H237V100.7H180.6ZM56.9,185.3h56.4V144.9H56.9Zm61.8,0h56.4V144.9H118.7Zm61.9,0H237V144.9H180.6ZM56.9,229.5h56.4V189.1H56.9Zm61.8,0h56.4V189.1H118.7Zm61.9,0H237V189.1H180.6ZM7,109.9v34.2H26.8v22.1h21v-2.1H29V122H47.8v-2.1h-21V142H9.1V77.9H47.8V75.7H7ZM156.2,48.4h2.1V31.5H119.7V17.9h29.7V15.8H117.5V31.5H78.9V48.4h2.2V33.7h75.1Z"/></svg>