<?xml version="1.0" encoding="utf-8"?>
<!-- Generator: Adobe Illustrator 19.2.0, SVG Export Plug-In . SVG Version: 6.00 Build 0)  -->
<svg version="1.1" id="Layer_1" xmlns="http://www.w3.org/2000/svg" xmlns:xlink="http://www.w3.org/1999/xlink" x="0px" y="0px"
	 width="1268px" height="558px" viewBox="0 0 1268 558" enable-background="new 0 0 1268 558" xml:space="preserve">
<radialGradient id="SVGID_1_" cx="626.454" cy="278.8594" r="251.7886" fx="620.2496" fy="96.5875" gradientUnits="userSpaceOnUse">
	<stop  offset="0.2115" style="stop-color:#FFFFFF"/>
	<stop  offset="1" style="stop-color:#F5EFE9"/>
</radialGradient>
<circle fill="url(#SVGID_1_)" cx="626.454" cy="278.859" r="251.789"/>
<g id="Layer_2">
</g>
<path fill="none" stroke="#C4C4C4" stroke-miterlimit="10" d="M493.101,417.207c22.823-27.289,64.722-62.651,95.027-60.669
	c0.267,0.134,0.526,0.276,0.784,0.41c16.214,23.218,17.045,55.156,4.867,111.007"/>
<path fill="none" stroke="#C4C4C4" stroke-miterlimit="10" d="M426.834,423.884c19.335-17.676,47.01-21.014,66.233-6.542
	c20.943,15.772,24.332,47.034,8.484,71.672"/>
<path fill="none" stroke="#C4C4C4" stroke-miterlimit="10" d="M441.953,441.86c18.252-21.726,40.354-32.624,51.114-24.519
	c11.234,8.451,5.986,34.507-11.587,58.99"/>
<line fill="none" stroke="#C4C4C4" stroke-miterlimit="10" x1="493.068" y1="417.341" x2="460.822" y2="460.158"/>
<path fill="none" stroke="#C4C4C4" stroke-miterlimit="10" d="M705.938,45.511c-0.144,1.055-0.32,2.118-0.526,3.189
	c-4.865,25.76-23.419,43.88-41.445,40.479c-0.096-0.024-0.186-0.037-0.281-0.061c-17.864-3.59-28.394-27.12-23.557-52.749
	c0.234-1.231,0.5-2.442,0.796-3.633"/>
<path fill="none" stroke="#C4C4C4" stroke-miterlimit="10" d="M684.258,39.082c-4.865,25.761-13.086,51.459-20.29,50.097
	c-0.096-0.024-0.186-0.037-0.281-0.061c-6.976-1.877-5.201-28.647-0.398-54.07"/>
<line fill="none" stroke="#C4C4C4" stroke-miterlimit="10" x1="642.501" y1="269.334" x2="695.518" y2="214.029"/>
<line fill="none" stroke="#C4C4C4" stroke-miterlimit="10" x1="642.501" y1="270.86" x2="586.838" y2="356.065"/>
<line fill="none" stroke="#C4C4C4" stroke-miterlimit="10" x1="642.501" y1="270.86" x2="733.968" y2="335.142"/>
<path fill="none" stroke="#C4C4C4" stroke-miterlimit="10" d="M695.596,214.757c26.459-9.129,57.866-24.293,87.989-48.844"/>
<path fill="none" stroke="#C4C4C4" stroke-miterlimit="10" d="M695.596,214.757c34.09,6.713,73.351,8.371,111.711-4.511"/>
<path fill="none" stroke="#C4C4C4" stroke-miterlimit="10" d="M695.248,214.757c11.179-25.728,28.804-55.923,55.735-84.102"/>
<path fill="none" stroke="#C4C4C4" stroke-miterlimit="10" d="M695.248,214.757c-6.695-35.303-5.064-77.086,10.876-112.398"/>
<path fill="none" stroke="#C4C4C4" stroke-miterlimit="10" d="M663.984,88.925c-3.664,11.91-5.634,24.56-5.634,37.674
	c0,70.685,57.304,127.99,127.99,127.99c10.814,0,21.306-1.337,31.336-3.869"/>
<path fill="none" stroke="#C4C4C4" stroke-miterlimit="10" d="M740.963,433.607c-21.431-29.686-25.452-68.038-6.998-98.464
	c17.5-28.839,50.654-43.067,84.914-39.965"/>
<path fill="none" stroke="#C4C4C4" stroke-miterlimit="10" d="M778.831,396.675c-32.218-24.837-53.13-47.902-44.866-61.533
	c8.112-13.363,39.1-7.534,75.089,8.708"/>
<path fill="none" stroke="#C4C4C4" stroke-miterlimit="10" d="M872.795,275.681c-1.043,0.214-2.104,0.401-3.183,0.562
	c-25.915,3.958-49.165-7.533-51.938-25.666c-0.009-0.098-0.027-0.187-0.036-0.285c-2.541-18.044,16.163-35.784,41.944-39.724
	c1.239-0.187,2.469-0.339,3.691-0.455"/>
<path fill="none" stroke="#C4C4C4" stroke-miterlimit="10" d="M871.666,253.095c-25.915,3.958-52.886,4.729-53.991-2.518
	c-0.009-0.098-0.027-0.187-0.036-0.285c-0.544-7.203,25.299-14.412,50.875-18.316"/>
<path fill="none" stroke="#C4C4C4" stroke-miterlimit="10" d="M553.11,513.576c0.11-1.059,0.25-2.127,0.421-3.204
	c4.018-25.906,21.969-44.624,40.096-41.815c0.096,0.021,0.187,0.031,0.283,0.052c17.972,3.003,29.267,26.176,25.272,51.949
	c-0.194,1.238-0.419,2.457-0.676,3.657"/>
<path fill="none" stroke="#C4C4C4" stroke-miterlimit="10" d="M574.989,519.291c4.018-25.906,11.394-51.86,18.638-50.735
	c0.096,0.021,0.187,0.031,0.283,0.052c7.033,1.648,6.137,28.461,2.169,54.028"/>
<path fill="none" stroke="#C4C4C4" stroke-miterlimit="10" d="M843.93,162.964c-0.827,0.671-1.681,1.327-2.564,1.967
	c-21.165,15.47-47.094,16.004-57.921,1.196c-0.053-0.083-0.11-0.154-0.163-0.237c-10.58-14.835-2.173-39.205,18.881-54.597
	c1.013-0.738,2.034-1.44,3.065-2.106"/>
<path fill="none" stroke="#C4C4C4" stroke-miterlimit="10" d="M832.507,143.447c-21.165,15.47-44.736,28.599-49.061,22.68
	c-0.053-0.083-0.11-0.154-0.163-0.237c-3.806-6.14,15.794-24.459,36.683-39.726"/>
<ellipse transform="matrix(0.3318 -0.9433 0.9433 0.3318 397.5566 626.4084)" fill="#F3D0AA" cx="640.954" cy="32.573" rx="5.044" ry="5.044"/>
<ellipse transform="matrix(0.3318 -0.9433 0.9433 0.3318 410.3143 649.041)" fill="#F3D0AA" cx="663.309" cy="34.884" rx="5.044" ry="5.044"/>
<ellipse transform="matrix(0.3318 -0.9433 0.9433 0.3318 420.5715 671.6727)" fill="#F3D0AA" cx="684.413" cy="38.959" rx="5.044" ry="5.044"/>
<ellipse transform="matrix(0.3318 -0.9433 0.9433 0.3318 429.1887 696.6801)" fill="#F3D0AA" cx="706.374" cy="45.38" rx="5.044" ry="5.044"/>
<circle fill="#F3D0AA" cx="863.409" cy="209.974" r="5.044"/>
<circle fill="#F3D0AA" cx="868.714" cy="231.976" r="5.044"/>
<circle fill="#F3D0AA" cx="871.85" cy="253.019" r="5.044"/>
<circle fill="#F3D0AA" cx="873.198" cy="275.781" r="5.044"/>
<ellipse transform="matrix(0.8872 -0.4614 0.4614 0.8872 40.5982 383.939)" fill="#F3D0AA" cx="805.397" cy="108.952" rx="5.044" ry="5.044"/>
<ellipse transform="matrix(0.8872 -0.4614 0.4614 0.8872 34.4034 392.6604)" fill="#F3D0AA" cx="820.134" cy="125.98" rx="5.044" ry="5.044"/>
<ellipse transform="matrix(0.8872 -0.4614 0.4614 0.8872 27.7992 400.401)" fill="#F3D0AA" cx="832.66" cy="143.355" rx="5.044" ry="5.044"/>
<ellipse transform="matrix(0.8872 -0.4614 0.4614 0.8872 20.1125 407.9625)" fill="#F3D0AA" cx="844.279" cy="162.854" rx="5.044" ry="5.044"/>
<path fill="none" stroke="#C4C4C4" stroke-miterlimit="10" d="M809.324,451.001c-24.06-18.176-36.825-41.375-28.669-52.917
	c8.156-11.533,34.217-7.265,59.359,9.303"/>
<line fill="none" stroke="#C4C4C4" stroke-miterlimit="10" x1="825.825" y1="430.013" x2="780.654" y2="398.083"/>
<path fill="none" stroke="#C4C4C4" stroke-miterlimit="10" d="M459.454,374.174c40.2-24.669,102.449-24.669,126.882-18.545
	c0.597,0.294,1.195,0.606,1.792,0.909c0.267,0.134,0.526,0.276,0.784,0.41c0.499,0.259,1.007,0.517,1.507,0.802
	c29.808,28.447,51.798,69.907,56.861,112.212"/>
<path fill="none" stroke="#C4C4C4" stroke-miterlimit="10" d="M440.008,326.495c47.489-4.306,98.509,4.859,146.328,29.134
	c0.597,0.294,1.195,0.606,1.792,0.909c0.267,0.134,0.526,0.276,0.784,0.41c0.499,0.259,1.007,0.517,1.507,0.802
	c46.428,24.48,82.819,59.845,106.746,100.042"/>
<line fill="none" stroke="#C4C4C4" stroke-miterlimit="10" x1="588.128" y1="356.538" x2="539.711" y2="450.322"/>
<g>
	<path fill="none" stroke="#C4C4C4" stroke-miterlimit="10" d="M388.053,218.35c28.804,4.894,50.511,14.986,49.308,23.25
		c-1.221,8.371-25.496,11.83-55.004,8.068"/>
	<line fill="none" stroke="#C4C4C4" stroke-miterlimit="10" x1="642.501" y1="269.334" x2="541.373" y2="208.079"/>
	<path fill="none" stroke="#C4C4C4" stroke-miterlimit="10" d="M558.174,97.884c9.111,44.556,0.642,90.913-15.788,111.328
		c-19.381,24.07-61.994,33.35-104.981,32.236"/>
	<path fill="none" stroke="#C4C4C4" stroke-miterlimit="10" d="M504.052,129.407c20.219,26.111,35.57,56.44,38.334,79.805
		c-25.701,2.728-56.645-10.778-83.193-26.548"/>
	<path fill="none" stroke="#C4C4C4" stroke-miterlimit="10" d="M507.342,63.009c14.718,21.672,14.05,49.54-3.031,66.487
		c-18.614,18.463-50.039,17.33-72.148-1.89"/>
	<path fill="none" stroke="#C4C4C4" stroke-miterlimit="10" d="M487.381,75.392c18.882,21.182,26.495,44.619,16.929,54.104
		c-9.976,9.904-35.008,0.972-56.716-19.934"/>
	<line fill="none" stroke="#C4C4C4" stroke-miterlimit="10" x1="504.311" y1="129.496" x2="466.565" y2="91.439"/>
</g>
<g>
	<circle fill="#A69FB8" cx="695.099" cy="214.76" r="9.344"/>
	<circle fill="#A69FB8" cx="733.968" cy="335.142" r="8.36"/>
	<circle fill="#A69FB8" cx="541.373" cy="208.079" r="9.529"/>
	<circle fill="#A69FB8" cx="586.838" cy="356.065" r="10.891"/>
</g>
<ellipse transform="matrix(0.9973 -0.0738 0.0738 0.9973 -29.3364 61.9208)" fill="#F3D0AA" cx="823.121" cy="427.882" rx="5.044" ry="5.044"/>
<ellipse transform="matrix(0.9973 -0.0738 0.0738 0.9973 -30.877 60.7102)" fill="#F3D0AA" cx="805.971" cy="448.122" rx="5.044" ry="5.044"/>
<ellipse transform="matrix(0.9973 -0.0738 0.0738 0.9973 -27.6937 62.9493)" fill="#F3D0AA" cx="837.858" cy="406.17" rx="5.044" ry="5.044"/>
<g>
	
		<text transform="matrix(1 0 0 1 604.417 359.7226)" fill="#B3B3B3" font-family="'RobotoCondensed-Regular'" font-size="19.0587px">Johnson</text>
</g>
<g>
	
		<text transform="matrix(1 0 0 1 672.2451 341.495)" fill="#B3B3B3" font-family="'RobotoCondensed-Regular'" font-size="19.0587px">Brown</text>
</g>
<g>
	
		<text transform="matrix(1 0 0 1 831.3672 301.6415)" fill="#B3B3B3" font-family="'RobotoCondensed-Regular'" font-size="19.0587px">Davis</text>
</g>
<g>
	
		<text transform="matrix(1 0 0 1 886.3447 283.9677)" fill="#B3B3B3" font-family="'RobotoCondensed-Regular'" font-size="16.336px">Thompson</text>
</g>
<g>
	
		<text transform="matrix(1 0 0 1 885.9316 259.5761)" fill="#B3B3B3" font-family="'RobotoCondensed-Regular'" font-size="16.336px">Martinez</text>
</g>
<g>
	
		<text transform="matrix(1 0 0 1 883.7676 236.0361)" fill="#B3B3B3" font-family="'RobotoCondensed-Regular'" font-size="16.336px">Robinson</text>
</g>
<g>
	
		<text transform="matrix(1 0 0 1 878.3691 212.0614)" fill="#B3B3B3" font-family="'RobotoCondensed-Regular'" font-size="16.336px">Rodriguez</text>
</g>
<g>
	
		<text transform="matrix(1 0 0 1 784.8574 199.206)" fill="#B3B3B3" font-family="'RobotoCondensed-Regular'" font-size="19.0587px">Jackson</text>
</g>
<g>
	
		<text transform="matrix(1 0 0 1 747.0488 166.2402)" fill="#B3B3B3" font-family="'RobotoCondensed-Regular'" font-size="16.336px">Lee</text>
</g>
<g>
	
		<text transform="matrix(1 0 0 1 428.9707 208.0204)" fill="#B3B3B3" font-family="'RobotoCondensed-Regular'" font-size="19.0587px">White</text>
</g>
<g>
	
		<text transform="matrix(1 0 0 1 369.5068 332.6425)" fill="#B3B3B3" font-family="'RobotoCondensed-Regular'" font-size="19.0587px">Stewart </text>
</g>
<g>
	
		<text transform="matrix(1 0 0 1 382.3848 382.2509)" fill="#B3B3B3" font-family="'RobotoCondensed-Regular'" font-size="19.0587px">Sanchez</text>
</g>
<g>
	
		<text transform="matrix(1 0 0 1 424.7666 267.5175)" fill="#B3B3B3" font-family="'RobotoCondensed-Regular'" font-size="19.0587px">Morris</text>
</g>
<g>
	
		<text transform="matrix(1 0 0 1 508.1641 421.2948)" fill="#B3B3B3" font-family="'RobotoCondensed-Regular'" font-size="19.0587px">Cox</text>
</g>
<g>
	
		<text transform="matrix(1 0 0 1 551.9873 456.0966)" fill="#B3B3B3" font-family="'RobotoCondensed-Regular'" font-size="19.0587px">Bell</text>
</g>
<g>
	
		<text transform="matrix(1 0 0 1 624.7344 492.3114)" fill="#B3B3B3" font-family="'RobotoCondensed-Regular'" font-size="19.0587px">Bailey</text>
</g>
<g>
	
		<text transform="matrix(1 0 0 1 680.1201 480.0673)" fill="#B3B3B3" font-family="'RobotoCondensed-Regular'" font-size="19.0587px">Morgan</text>
</g>
<g>
	
		<text transform="matrix(1 0 0 1 727.9121 119.1532)" fill="#B3B3B3" font-family="'RobotoCondensed-Regular'" font-size="19.0587px">Harris</text>
</g>
<g>
	
		<text transform="matrix(1 0 0 1 695.5176 90.7958)" fill="#B3B3B3" font-family="'RobotoCondensed-Regular'" font-size="19.0587px">Martin</text>
</g>
<g>
	
		<text transform="matrix(1 0 0 1 601.5898 99.4091)" fill="#B3B3B3" font-family="'RobotoCondensed-Regular'" font-size="19.0587px">Garcia</text>
</g>
<g>
	<text transform="matrix(1 0 0 1 604.6172 17.6718)" fill="#B3B3B3" font-family="'RobotoCondensed-Regular'" font-size="16.336px">Clark</text>
</g>
<g>
	<text transform="matrix(1 0 0 1 459.4766 50.4257)" fill="#B3B3B3" font-family="'RobotoCondensed-Regular'" font-size="16.336px">Lopez</text>
</g>
<g>
	
		<text transform="matrix(1 0 0 1 363.6025 131.4394)" fill="#B3B3B3" font-family="'RobotoCondensed-Regular'" font-size="16.336px">Mitchell</text>
</g>
<g>
	
		<text transform="matrix(1 0 0 1 328.2588 218.5917)" fill="#B3B3B3" font-family="'RobotoCondensed-Regular'" font-size="16.336px"> Carter  </text>
</g>
<g>
	
		<text transform="matrix(1 0 0 1 330.0225 252.4843)" fill="#B3B3B3" font-family="'RobotoCondensed-Regular'" font-size="16.336px">Perez  </text>
</g>
<g>
	
		<text transform="matrix(1 0 0 1 354.9941 432.1142)" fill="#B3B3B3" font-family="'RobotoCondensed-Regular'" font-size="16.336px"> Roberts</text>
</g>
<g>
	
		<text transform="matrix(1 0 0 1 384.3506 454.6405)" fill="#B3B3B3" font-family="'RobotoCondensed-Regular'" font-size="16.336px">Turner  </text>
</g>
<g>
	
		<text transform="matrix(1 0 0 1 401.2598 476.9491)" fill="#B3B3B3" font-family="'RobotoCondensed-Regular'" font-size="16.336px">Phillips  </text>
</g>
<g>
	
		<text transform="matrix(1 0 0 1 410.8584 497.5458)" fill="#B3B3B3" font-family="'RobotoCondensed-Regular'" font-size="16.336px">Campbell  </text>
</g>
<g>
	<text transform="matrix(1 0 0 1 462.249 516.0898)" fill="#B3B3B3" font-family="'RobotoCondensed-Regular'" font-size="16.336px">Baker</text>
</g>
<g>
	
		<text transform="matrix(1 0 0 1 536.5146 545.4013)" fill="#B3B3B3" font-family="'RobotoCondensed-Regular'" font-size="16.336px">Evans</text>
</g>
<g>
	
		<text transform="matrix(1 0 0 1 510.1973 534.3339)" fill="#B3B3B3" font-family="'RobotoCondensed-Regular'" font-size="16.336px">Hill</text>
</g>
<g>
	
		<text transform="matrix(1 0 0 1 581.7559 552.7451)" fill="#B3B3B3" font-family="'RobotoCondensed-Regular'" font-size="16.336px">Scott</text>
</g>
<g>
	
		<text transform="matrix(1 0 0 1 624.4863 553.2695)" fill="#B3B3B3" font-family="'RobotoCondensed-Regular'" font-size="16.336px">Green</text>
</g>
<g>
	
		<text transform="matrix(1 0 0 1 384.8076 107.4042)" fill="#B3B3B3" font-family="'RobotoCondensed-Regular'" font-size="16.336px">Nelson</text>
</g>
<g>
	<text transform="matrix(1 0 0 1 390.9326 86.3944)" fill="#B3B3B3" font-family="'RobotoCondensed-Regular'" font-size="16.336px">Gonzalez</text>
</g>
<g>
	<text transform="matrix(1 0 0 1 429.3389 67.7406)" fill="#B3B3B3" font-family="'RobotoCondensed-Regular'" font-size="16.336px">Adams</text>
</g>
<g>
	<text transform="matrix(1 0 0 1 648.5088 17.6718)" fill="#B3B3B3" font-family="'RobotoCondensed-Regular'" font-size="16.336px">Lewis</text>
</g>
<g>
	<text transform="matrix(1 0 0 1 691.5332 25.4926)" fill="#B3B3B3" font-family="'RobotoCondensed-Regular'" font-size="16.336px">Walker</text>
</g>
<g>
	<text transform="matrix(1 0 0 1 723.3916 40.3344)" fill="#B3B3B3" font-family="'RobotoCondensed-Regular'" font-size="16.336px">Allen</text>
</g>
<g>
	
		<text transform="matrix(1 0 0 1 814.7979 101.3759)" fill="#B3B3B3" font-family="'RobotoCondensed-Regular'" font-size="16.336px">Young</text>
</g>
<g>
	
		<text transform="matrix(1 0 0 1 832.1279 120.1357)" fill="#B3B3B3" font-family="'RobotoCondensed-Regular'" font-size="16.336px">Hernandez</text>
</g>
<g>
	
		<text transform="matrix(1 0 0 1 846.0674 142.0556)" fill="#B3B3B3" font-family="'RobotoCondensed-Regular'" font-size="16.336px">King</text>
</g>
<g>
	<text transform="matrix(1 0 0 1 857.5518 165.913)" fill="#B3B3B3" font-family="'RobotoCondensed-Regular'" font-size="16.336px">Wright</text>
</g>
<g>
	
		<text transform="matrix(1 0 0 1 821.7637 350.4071)" fill="#B3B3B3" font-family="'RobotoCondensed-Regular'" font-size="19.0587px">Miller</text>
</g>
<g>
	
		<text transform="matrix(1 0 0 1 772.4004 384.4638)" fill="#B3B3B3" font-family="'RobotoCondensed-Regular'" font-size="19.0587px">Wilson</text>
</g>
<g>
	
		<text transform="matrix(1 0 0 1 718.8926 456.3036)" fill="#B3B3B3" font-family="'RobotoCondensed-Regular'" font-size="19.0587px">Moore</text>
</g>
<g>
	
		<text transform="matrix(1 0 0 1 819.4277 465.0048)" fill="#B3B3B3" font-family="'RobotoCondensed-Regular'" font-size="16.336px">Thomas</text>
</g>
<g>
	
		<text transform="matrix(1 0 0 1 835.7812 441.9648)" fill="#B3B3B3" font-family="'RobotoCondensed-Regular'" font-size="16.336px">Anderson</text>
</g>
<g>
	<text transform="matrix(1 0 0 1 852.1348 419.703)" fill="#B3B3B3" font-family="'RobotoCondensed-Regular'" font-size="16.336px">Taylor</text>
</g>
<g>
	
		<text transform="matrix(1 0 0 1 615.5088 219.8896)" fill="#B3B3B3" font-family="'RobotoCondensed-Regular'" font-size="19.0587px">Williams  </text>
</g>
<g>
	
		<text transform="matrix(1 0 0 1 552.2539 210.1122)" fill="#B3B3B3" font-family="'RobotoCondensed-Regular'" font-size="19.0587px"> Jones </text>
</g>
<circle fill="#F3D0AA" cx="507.293" cy="62.764" r="5.044"/>
<ellipse transform="matrix(0.9896 -0.1435 0.1435 0.9896 -65.3298 76.9922)" fill="#F3D0AA" cx="501.02" cy="491.341" rx="5.044" ry="5.044"/>
<ellipse transform="matrix(0.9896 -0.1435 0.1435 0.9896 -56.3996 65.6432)" fill="#F3D0AA" cx="426.817" cy="423.764" rx="5.044" ry="5.044"/>
<ellipse transform="matrix(0.3007 -0.9537 0.9537 0.3007 -68.8143 957.1105)" fill="#F3D0AA" cx="618.272" cy="525.482" rx="5.044" ry="5.044"/>
<ellipse transform="matrix(0.3007 -0.9537 0.9537 0.3007 -82.8473 934.495)" fill="#F3D0AA" cx="595.834" cy="523.743" rx="5.044" ry="5.044"/>
<ellipse transform="matrix(0.3007 -0.9537 0.9537 0.3007 -94.17 911.8698)" fill="#F3D0AA" cx="574.743" cy="520.152" rx="5.044" ry="5.044"/>
<ellipse transform="matrix(0.3007 -0.9537 0.9537 0.3007 -104.0351 887.0968)" fill="#F3D0AA" cx="552.918" cy="514.493" rx="5.044" ry="5.044"/>
<ellipse transform="matrix(0.9896 -0.1435 0.1435 0.9896 -63.5842 73.8934)" fill="#F3D0AA" cx="480.413" cy="477.691" rx="5.044" ry="5.044"/>
<ellipse transform="matrix(0.9896 -0.1435 0.1435 0.9896 -61.4182 70.8222)" fill="#F3D0AA" cx="460.207" cy="461.141" rx="5.044" ry="5.044"/>
<ellipse transform="matrix(0.9896 -0.1435 0.1435 0.9896 -58.8873 67.9415)" fill="#F3D0AA" cx="441.504" cy="442.158" rx="5.044" ry="5.044"/>
<circle fill="#F3D0AA" cx="387.25" cy="218.166" r="5.044"/>
<circle fill="#F3D0AA" cx="381.526" cy="249.5" r="5.044"/>
<circle fill="#F3D0AA" cx="447.25" cy="109.242" r="5.044"/>
<circle fill="#F3D0AA" cx="466.299" cy="91.172" r="5.044"/>
<circle fill="#F3D0AA" cx="487.228" cy="75.126" r="5.044"/>
<circle fill="#F3D0AA" cx="431.861" cy="127.215" r="5.044"/>
<circle fill="#EBE0D4" cx="642.501" cy="269.334" r="34.618"/>
<text transform="matrix(1 0 0 1 615.9951 276.0995)" fill="#A69FB8" font-family="'RobotoCondensed-Regular'" font-size="23.5964px">Smith</text>
<g>
	<circle fill="#C5BAD3" cx="557.625" cy="98.79" r="5.899"/>
	<circle fill="#C5BAD3" cx="459.193" cy="182.539" r="5.899"/>
	<circle fill="#C5BAD3" cx="437.405" cy="241.537" r="5.901"/>
	<circle fill="#C5BAD3" cx="819.621" cy="294.759" r="5.899"/>
	<circle fill="#C5BAD3" cx="809.533" cy="343.525" r="5.899"/>
	<circle fill="#C5BAD3" cx="778.944" cy="396.675" r="6.393"/>
	<circle fill="#C5BAD3" cx="741.038" cy="433.607" r="5.899"/>
	<circle fill="#C5BAD3" cx="697.164" cy="457.793" r="5.899"/>
	<circle fill="#C5BAD3" cx="647.28" cy="469.962" r="5.899"/>
	<circle fill="#C5BAD3" cx="539.711" cy="449.421" r="5.899"/>
	<circle fill="#C5BAD3" cx="492.559" cy="417.341" r="7.377"/>
	<circle fill="#C5BAD3" cx="459.454" cy="374.541" r="5.899"/>
	<circle fill="#C5BAD3" cx="440.008" cy="326.743" r="5.899"/>
	<circle fill="#C5BAD3" cx="504.311" cy="129.496" r="7.377"/>
	<circle fill="#C5BAD3" cx="817.631" cy="250.165" r="6.885"/>
	<circle fill="#C5BAD3" cx="807.307" cy="210.113" r="5.899"/>
	<circle fill="#C5BAD3" cx="782.805" cy="165.913" r="6.885"/>
	<circle fill="#C5BAD3" cx="594.412" cy="468.521" r="6.885"/>
	<circle fill="#C5BAD3" cx="750.984" cy="130.655" r="5.899"/>
	<circle fill="#C5BAD3" cx="706.124" cy="102.359" r="5.899"/>
	<circle fill="#C5BAD3" cx="664.413" cy="88.925" r="6.885"/>
</g>
</svg>
