<?xml version="1.0" encoding="utf-8"?>
<!-- Generator: Adobe Illustrator 22.1.0, SVG Export Plug-In . SVG Version: 6.00 Build 0)  -->
<svg version="1.1" xmlns="http://www.w3.org/2000/svg" xmlns:xlink="http://www.w3.org/1999/xlink" x="0px" y="0px"
	 viewBox="0 0 1268 418" enable-background="new 0 0 1268 418" xml:space="preserve">
<g id="Layer_1">
	<g>
		<g>
			<path fill="none" stroke="#AEA5BF" stroke-miterlimit="10" d="M559.8,83.5c-0.1-0.3-0.3-0.5-0.4-0.8L533,30.4"/>
			<path fill="none" stroke="#AEA5BF" stroke-miterlimit="10" d="M504.1,50.2c3.7,4,11.2,10.4,28.7,15.8c12.5,3.9,22.8,9,27.1,17.4"
				/>
			<path fill="none" stroke="#AEA5BF" stroke-miterlimit="10" d="M559.8,83.5c-0.1-0.3-0.3-0.5-0.4-0.8c-4.4-8.4-9.5-13.4-22.2-22.3
				C527,53.2,520.9,45,517.8,39.9"/>
			<path fill="none" stroke="#AEA5BF" stroke-miterlimit="10" d="M565.3,15.7c1.1,4.1,4,14-3.5,35.7c-4.3,12.4-6.2,23.7-2,32.1"/>
			<path fill="none" stroke="#AEA5BF" stroke-miterlimit="10" d="M559.8,83.5c-0.1-0.3-0.3-0.5-0.4-0.8c-4.2-8.5-5.1-15.6-4.8-31.1
				c0.3-13.7-3.4-24.2-5.7-29.3"/>
		</g>
		<g>
			<path fill="none" stroke="#AEA5BF" stroke-miterlimit="10" d="M489.9,182.2c-0.3,0-0.6-0.1-0.9-0.1l-57.2-9.3"/>
			<path fill="none" stroke="#AEA5BF" stroke-miterlimit="10" d="M428.6,207.9c5-0.4,15-1.9,31.3-14.1c10.5-7.8,20.7-13.2,30-11.7"
				/>
			<path fill="none" stroke="#AEA5BF" stroke-miterlimit="10" d="M429.5,190.5c5.8,0.5,16.4,0.6,28.5-3.6c15.1-5.2,22.1-6.4,32-4.7"
				/>
			<path fill="none" stroke="#AEA5BF" stroke-miterlimit="10" d="M441,139c4.9,2.2,13.4,7.3,24.1,22.7c7.5,10.7,15.5,19,24.8,20.5"
				/>
			<path fill="none" stroke="#AEA5BF" stroke-miterlimit="10" d="M489.9,182.2c-0.3,0-0.6-0.1-0.9-0.1c-9.3-1.6-15.6-5-28-14.4
				c-9.9-7.5-19.5-10.8-25.3-12.2"/>
		</g>
		<g>
			<path fill="none" stroke="#AEA5BF" stroke-miterlimit="10" d="M525.6,306.8c-0.2,0.2-0.5,0.4-0.7,0.7l-42.9,38.8"/>
			<path fill="none" stroke="#AEA5BF" stroke-miterlimit="10" d="M507.8,370.3c2.9-4.3,7.6-13.2,8.2-32.8
				c0.4-13.1,2.7-24.4,9.6-30.7"/>
			<path fill="none" stroke="#AEA5BF" stroke-miterlimit="10" d="M525.6,306.8c-0.2,0.2-0.5,0.4-0.7,0.7
				c-6.9,6.4-10.3,12.7-15.5,27.3c-4.3,11.9-10.7,20-14.8,24.3"/>
			<path fill="none" stroke="#AEA5BF" stroke-miterlimit="10" d="M460.8,318.3c4.6-2.4,13.9-6.2,33.3-4.9c13,0.8,24.6-0.3,31.5-6.6"
				/>
			<path fill="none" stroke="#AEA5BF" stroke-miterlimit="10" d="M525.6,306.8c-0.2,0.2-0.5,0.4-0.7,0.7c-7.1,6.3-13.7,9-28.7,12.8
				c-12.2,3.1-20.9,8.7-25.5,12.3"/>
		</g>
		<g>
			<path fill="none" stroke="#AEA5BF" stroke-miterlimit="10" d="M671.5,349.9L671.5,349.9c0.1,0.3,0.2,0.6,0.2,0.9c0,0,0,0,0,0
				l14.1,55.5"/>
			<path fill="none" stroke="#AEA5BF" stroke-miterlimit="10" d="M671.5,349.9L671.5,349.9c2.3,9.1,11.3,16.4,22.7,22.9
				c16.3,9.3,22.2,17.4,24.8,22"/>
			<path fill="none" stroke="#AEA5BF" stroke-miterlimit="10" d="M671.5,349.9L671.5,349.9c0.1,0.3,0.2,0.6,0.2,0.9c0,0,0,0,0,0
				c0,0,0,0.1,0,0.1c2.4,9.1,6.4,15,16.8,26.5c8.2,9,12.4,18.2,14.3,23.8"/>
			<path fill="none" stroke="#AEA5BF" stroke-miterlimit="10" d="M671.5,350c2.3,9.1-2.1,19.8-8.9,31c-9.8,16-11.1,25.8-11.2,31.2"
				/>
			<path fill="none" stroke="#AEA5BF" stroke-miterlimit="10" d="M671.5,350c0.1,0.3,0.2,0.6,0.2,0.9c2.3,9.2,1.6,16.3-2.1,31.4
				c-2.9,11.8-2.1,21.9-1.2,27.8"/>
		</g>
		<g>
			<polyline fill="none" stroke="#AEA5BF" stroke-miterlimit="10" points="754.9,293.4 755.6,293.9 755.7,294 802.2,327.1 			"/>
			<path fill="none" stroke="#AEA5BF" stroke-miterlimit="10" d="M754.9,293.4c7.7,5.4,19.2,5.2,32.1,2.8
				c18.6-3.5,28.2-1.1,33.2,0.8"/>
			<path fill="none" stroke="#AEA5BF" stroke-miterlimit="10" d="M754.9,293.4c0.3,0.2,0.6,0.4,0.9,0.6c7.7,5.4,14.6,7.3,29.9,9.3
				c12.1,1.6,21.2,5.8,26.4,8.9"/>
			<path fill="none" stroke="#AEA5BF" stroke-miterlimit="10" d="M754.8,293.4c7.7,5.4,11.2,16.4,13.2,29.4
				c2.8,18.3,8.1,26.6,11.5,30.8"/>
			<path fill="none" stroke="#AEA5BF" stroke-miterlimit="10" d="M754.8,293.4c0.3,0.2,0.5,0.4,0.8,0.5c7.7,5.6,11.8,11.4,18.7,25.3
				c5.4,10.8,12.4,17.9,16.9,21.8"/>
		</g>
		<g>
			<path fill="none" stroke="#AEA5BF" stroke-miterlimit="10" d="M523.8,114c-0.3-0.2-0.5-0.4-0.7-0.5c0,0,0,0,0,0l-47.7-34.6"/>
			<path fill="none" stroke="#AEA5BF" stroke-miterlimit="10" d="M523.8,114c-0.3-0.2-0.5-0.4-0.7-0.5c-7.7-5.5-14.6-7.5-29.9-9.6
				c-14.1-2-24.1-7.6-28.6-10.6"/>
			<path fill="none" stroke="#AEA5BF" stroke-miterlimit="10" d="M523.8,114L523.8,114c-0.1-0.1-0.3-0.2-0.4-0.3
				c-0.1-0.1-0.2-0.2-0.4-0.3c0,0,0,0,0,0c-7.6-5.6-11.7-11.5-18.5-25.4c-5.5-11.3-12.7-18.6-17.3-22.4"/>
		</g>
		<g>
			<path fill="none" stroke="#AEA5BF" stroke-miterlimit="10" d="M566.7,337.8c-0.1,0.2-0.3,0.4-0.4,0.7l-30.5,50.3"/>
			<path fill="none" stroke="#AEA5BF" stroke-miterlimit="10" d="M566.7,337.8c-0.3,0.4-0.5,0.9-0.8,1.3c-4.6,7.9-6,15-6.9,30.1
				c-0.7,12.5-4.5,22.2-7.2,27.4"/>
			<path fill="none" stroke="#AEA5BF" stroke-miterlimit="10" d="M520.5,379.5c3.1-4.6,10.1-13.3,21.9-20.4
				c13.8-8.2,19.2-12.7,24.3-21.3"/>
		</g>
		<path fill="none" stroke="#AEA5BF" stroke-miterlimit="10" d="M743.4,34.4c-2.9,4.8-9.4,16.5-12.8,28.2
			c-3.1,10.5-4.7,16.2-7.2,21.7"/>
		<path fill="none" stroke="#AEA5BF" stroke-miterlimit="10" d="M722.2,85.5c2-7.1,1-14.9,0.5-27c-0.6-14.4,2.5-25.4,4.6-31"/>
		<path fill="none" stroke="#AEA5BF" stroke-miterlimit="10" d="M723.8,86.4c5.3-5.1,12.7-7.9,23.6-13.1c11-5.2,18.5-11.7,23-16.3"
			/>
		<path fill="none" stroke="#AEA5BF" stroke-miterlimit="10" d="M758.6,43.6c-2.8,4.8-10,16.1-18.7,24.6c-8.2,8-12.5,12.1-16.3,17.2
			"/>
		<path fill="none" stroke="#AEA5BF" stroke-miterlimit="10" d="M647.1,2.3c-0.8,5.5-2.1,18.9-0.6,30.9c1.3,10.9,2.1,16.7,2,22.7"/>
		<path fill="none" stroke="#AEA5BF" stroke-miterlimit="10" d="M647.8,57.6c-1-7.3-4.9-14.1-10.2-25c-6.3-13-7.8-24.3-8.1-30.3"/>
		<path fill="none" stroke="#AEA5BF" stroke-miterlimit="10" d="M649.6,57.8c2.8-6.8,8.5-12.3,16.4-21.4c8-9.2,12.4-18.1,14.7-24.1"
			/>
		<path fill="none" stroke="#AEA5BF" stroke-miterlimit="10" d="M664.7,4.7c-0.7,5.5-2.8,18.8-7.4,30c-4.4,10.6-6.6,16.1-8.1,22.3"
			/>
		<path fill="none" stroke="#AEA5BF" stroke-miterlimit="10" d="M797.6,82c-4.7,3.1-15.5,11-23.5,20.1c-7.2,8.2-11.1,12.7-15.7,16.6
			"/>
		<path fill="none" stroke="#AEA5BF" stroke-miterlimit="10" d="M807.5,96.8c-4.6,3.2-15.9,10.4-27.4,14.4
			c-10.8,3.8-16.5,5.7-22,8.7"/>
		<path fill="none" stroke="#AEA5BF" stroke-miterlimit="10" d="M451,116c5.8,2.8,16.6,7.4,27.2,9.6c10.7,2.2,16.5,3.4,22.2,5.4"/>
		<path fill="none" stroke="#AEA5BF" stroke-miterlimit="10" d="M459.7,100.5c5.8,3,15.5,8.5,23.3,15.3c8.7,7.5,13.1,11.5,18.5,14.8
			"/>
		<path fill="none" stroke="#AEA5BF" stroke-miterlimit="10" d="M585.6,356.3c-0.9,6-0.8,11.9-0.9,22.8c0,10.3-2.2,21.3-3.8,27.7"/>
		<path fill="none" stroke="#AEA5BF" stroke-miterlimit="10" d="M564.1,401.5c1.8-6.4,5.3-16.6,10.1-25.2c5.7-10,8.6-15.1,10.9-21.1
			"/>
		<path fill="none" stroke="#AEA5BF" stroke-miterlimit="10" d="M447.3,293.2c6.1-2.5,16.2-7.2,24.5-13.2c8.9-6.4,13.7-9.9,19-12.7"
			/>
		<path fill="none" stroke="#AEA5BF" stroke-miterlimit="10" d="M454.9,308.4c5.3-3.5,13.3-10,20.6-20.2c7-9.8,11.1-16.6,17-20.9"/>
		<path fill="none" stroke="#AEA5BF" stroke-miterlimit="10" d="M491.9,265.5c-7.3,0.7-14.9-1.6-26.6-4.2
			c-11.9-2.6-23.4-2.4-29.7-1.5"/>
		<path fill="none" stroke="#AEA5BF" stroke-miterlimit="10" d="M440.7,276.8c6.1-2.2,16.9-5.7,27.3-6.9c11.4-1.3,17.3-1.9,23.4-3.5
			"/>
		<path fill="none" stroke="#AEA5BF" stroke-miterlimit="10" d="M723,335.4c4,4.5,8.6,8.2,17,15.2c8,6.6,15.1,15.4,19.1,20.6"/>
		<path fill="none" stroke="#AEA5BF" stroke-miterlimit="10" d="M722.3,333.8c5.7,4.6,13.3,6.9,24.6,11.2
			c12.3,4.7,20.8,11.1,25.4,15.4"/>
		<path fill="none" stroke="#AEA5BF" stroke-miterlimit="10" d="M720.9,334.9c2.6,6.9,2.2,14.8,2.7,26.8c0.5,12.1,3.4,21.7,5.8,27.6
			"/>
		<path fill="none" stroke="#AEA5BF" stroke-miterlimit="10" d="M721.8,335.2c3.2,5.5,5.2,11.1,9.4,21.8c3.7,9.5,9.6,18.9,13.3,24.3
			"/>
		<path fill="none" stroke="#AEA5BF" stroke-miterlimit="10" d="M501.5,130.9l5.7,3.4l72.1,42.6l0.6,0.4c0,0,0,0,0,0"/>
		<path fill="none" stroke="#AEA5BF" stroke-miterlimit="10" d="M581.2,178c-0.1-0.1-0.2-0.1-0.3-0.2c-0.1-0.1-0.2-0.1-0.3-0.2
			c-15.1-8-40.3,9-55.3,16.4c-18.4,9-34.4,11.1-45.1,11.3"/>
		<path fill="none" stroke="#AEA5BF" stroke-miterlimit="10" d="M581.2,178c-0.2-0.1-0.4-0.2-0.6-0.4c-12.1-6.7-29-4.9-47.5,0.2
			c-28.2,7.7-42.9,5-50.3,2.8"/>
		<path fill="none" stroke="#AEA5BF" stroke-miterlimit="10" d="M581.2,178c-0.1-0.1-0.2-0.1-0.3-0.2c-0.3-0.2-0.6-0.3-0.8-0.5
			c0,0,0,0,0,0c0,0,0,0,0,0c-12.2-7.1-22.7-9.1-45.8-10.1c-21.6-0.9-37.5-8.2-44.3-12"/>
		<path fill="none" stroke="#AEA5BF" stroke-miterlimit="10" d="M581.2,178c-0.2-0.1-0.5-0.3-0.7-0.4c-14.3-9.4-11.5-39.7-12.3-56.3
			c-1-20.4-6.9-35.4-11.9-44.9"/>
		<path fill="none" stroke="#AEA5BF" stroke-miterlimit="10" d="M581.2,178c-0.2-0.1-0.4-0.2-0.6-0.4c0,0-0.1,0-0.1,0
			c-11.7-7.3-18.2-23-22.7-41.6C551,107.6,541.5,96,536,90.6"/>
		<path fill="none" stroke="#AEA5BF" stroke-miterlimit="10" d="M581.2,178c-0.1-0.1-0.2-0.1-0.3-0.2c-0.3-0.2-0.6-0.3-0.8-0.5
			c-12.1-7.3-19-15.5-31-35.2c-11.3-18.4-25.2-28.8-31.8-33"/>
		<line fill="none" stroke="#AEA5BF" stroke-miterlimit="10" x1="507.2" y1="134.3" x2="579.3" y2="176.9"/>
		<path fill="none" stroke="#AEA5BF" stroke-miterlimit="10" d="M699.6,71.2l-21.5,53.1L666,154.1l-0.6,1.5l-0.1,0.3c0,0,0,0,0,0
			L642,213.4"/>
		<path fill="none" stroke="#AEA5BF" stroke-miterlimit="10" d="M664.9,157c0-0.1,0.1-0.2,0.1-0.3c0-0.1,0.1-0.2,0.1-0.3
			c0,0,0-0.1,0-0.1c0,0,0,0,0,0c0-0.1,0.1-0.3,0.1-0.4c0,0,0,0,0,0c5.2-16.1-15.2-38.2-24.6-51.8c-13.4-19.3-17.2-37.1-18.5-47.4"/>
		<path fill="none" stroke="#AEA5BF" stroke-miterlimit="10" d="M664.9,157c0.1-0.2,0.1-0.4,0.2-0.5c0,0,0-0.1,0-0.1
			c0.1-0.3,0.2-0.5,0.3-0.8c0,0,0,0,0,0c4.4-12.8,0-28.9-7.6-46.1c-13.7-31-10.8-46.2-9.7-52.4"/>
		<path fill="none" stroke="#AEA5BF" stroke-miterlimit="10" d="M664.9,157c0.1-0.2,0.2-0.4,0.2-0.5c0.3-0.8,0.6-1.6,0.9-2.4
			c0,0,0-0.1,0.1-0.1c4.5-12.4,4.9-23.1,2.5-45.1c-2.5-23.2,3.3-40.8,5.8-47.1"/>
		<path fill="none" stroke="#AEA5BF" stroke-miterlimit="10" d="M664.9,157c0.1-0.3,0.2-0.5,0.3-0.7c7.2-15.5,37.5-17.3,53.8-20.6
			c17.5-3.5,30.4-10.1,39.1-16"/>
		<path fill="none" stroke="#AEA5BF" stroke-miterlimit="10" d="M664.9,157c0.1-0.3,0.2-0.5,0.3-0.7c5.5-12.6,20-21.4,37.8-28.6
			c23.8-9.7,34.5-19.5,39.7-25.9"/>
		<path fill="none" stroke="#AEA5BF" stroke-miterlimit="10" d="M664.9,157c5.5-13.8,12.4-21.9,30.7-37.2c15.5-13,23.7-27.3,27.2-35
			"/>
		<line fill="none" stroke="#AEA5BF" stroke-miterlimit="10" x1="697" y1="77.3" x2="665.7" y2="154.9"/>
		<g>
			<g>
				<path fill="none" stroke="#AEA5BF" stroke-miterlimit="10" d="M540.2,330c6.2-5.8,20.4-20.4,30-36.1
					c12.5-20.4,16.6-27.3,27.9-38.3"/>
				<path fill="none" stroke="#AEA5BF" stroke-miterlimit="10" d="M598.1,255.6c-0.2,0.2-0.3,0.3-0.5,0.5c0,0,0,0,0,0
					c-10.9,10.9-12.3,24-17.5,46.9c-4.4,19.6-12.3,33.7-17.7,41.6"/>
				<path fill="none" stroke="#AEA5BF" stroke-miterlimit="10" d="M504.1,289.9c6.9-4.9,22.8-14.1,45.9-18.3
					c23.5-4.3,36.7-5.1,48.1-16"/>
				<path fill="none" stroke="#AEA5BF" stroke-miterlimit="10" d="M491.8,266.4c8.8-3.7,26-7.4,57.6-4.6c22.3,2,39.7,2.3,48.7-6.3"
					/>
				<path fill="none" stroke="#AEA5BF" stroke-miterlimit="10" d="M598.1,255.6c-0.2,0.2-0.3,0.3-0.5,0.5c-0.1,0.1-0.1,0.1-0.2,0.2
					c-8.3,8.8-8.8,25.9-7.7,47.7c1.2,24.9-1.2,40.7-4.3,50.6"/>
				<path fill="none" stroke="#AEA5BF" stroke-miterlimit="10" d="M520.2,311.7c6.1-5.9,22.5-20.8,38.6-29.8
					c20.9-11.6,27.9-15.5,39.3-26.4"/>
			</g>
		</g>
		<line fill="none" stroke="#AEA5BF" stroke-miterlimit="10" x1="642" y1="213.4" x2="673.8" y2="261.5"/>
		<line fill="none" stroke="#AEA5BF" stroke-miterlimit="10" x1="642" y1="213.4" x2="698.5" y2="213"/>
		<line fill="none" stroke="#AEA5BF" stroke-miterlimit="10" x1="642" y1="213.4" x2="594.4" y2="259.1"/>
		<line fill="none" stroke="#AEA5BF" stroke-miterlimit="10" x1="642" y1="213.4" x2="577.2" y2="175.5"/>
	</g>
	<g>
		<path fill="none" stroke="#AEA5BF" stroke-miterlimit="10" d="M671.5,257.9l0.1,0.1c0,0,0,0,0,0l0.8,1.2c0,0,0,0,0,0l49.6,75.3"/>
		<path fill="none" stroke="#AEA5BF" stroke-miterlimit="10" d="M670.8,256.9c0.2,0.4,0.5,0.7,0.7,1.1c8,11,23.8,16.7,42.4,20.2
			c28.3,5.3,40.3,14,46.1,19.3"/>
		<path fill="none" stroke="#AEA5BF" stroke-miterlimit="10" d="M670.8,256.9c0.3,0.4,0.5,0.8,0.8,1.2c0.3,0.4,0.5,0.8,0.8,1.1
			c0,0,0,0,0,0c7.7,11,16.3,17.4,35.9,28.1c19,10.3,30,23.8,34.5,30.1"/>
		<path fill="none" stroke="#AEA5BF" stroke-miterlimit="10" d="M670.8,256.9L670.8,256.9c7.7,11.7,6.8,29,2.6,48
			c-6.6,30-2.4,44.6,0.1,51.4"/>
		<path fill="none" stroke="#AEA5BF" stroke-miterlimit="10" d="M670.8,256.9L670.8,256.9c0.3,0.4,0.5,0.8,0.8,1.2
			c7.7,11.9,10.3,22.2,12.4,45.3c2.1,22.3,10.6,38,14.6,44.3"/>
	</g>
	<path fill="none" stroke="#AEA5BF" stroke-miterlimit="10" d="M698.5,213c1.6,0,3-0.1,4.5-0.2c0,0,0,0,0,0
		c12.9-0.8,21.2-3.3,41.9-9.3c15.3-4.4,32.7-6,42.5-6.4"/>
	<path fill="none" stroke="#AEA5BF" stroke-miterlimit="10" d="M698.5,213c1,0,2-0.1,2.9-0.2c0,0,0,0,0,0
		c14.2-1.4,23.9-9.9,42.3-22.7c15.6-10.9,30.1-16.1,39.5-18.4"/>
	<path fill="none" stroke="#AEA5BF" stroke-miterlimit="10" d="M698.5,213c15.8-0.3,26.1,7.9,46.3,20.6
		c14.7,9.2,28.3,13.7,37.8,15.8"/>
	<path fill="none" stroke="#AEA5BF" stroke-miterlimit="10" d="M698.5,212.9c1,0,2-0.1,2.9-0.1c0,0,0,0,0,0c0.5,0,1.1,0,1.6,0
		c12.9-0.1,21.4,2.3,42.3,7.2c15.1,3.5,31.9,4.1,41.9,4"/>
	<path fill="none" stroke="#AEA5BF" stroke-miterlimit="10" d="M789.3,223.7c6-0.3,11.8-1.5,22.6-3.5c10.2-2,21.5-2,28-1.7"/>
	<path fill="none" stroke="#AEA5BF" stroke-miterlimit="10" d="M787.7,223.1c7.2-1.5,13.7-5.9,24.2-11.9c11.4-6.5,21.7-9,28-9.9"/>
	<path fill="none" stroke="#AEA5BF" stroke-miterlimit="10" d="M787.6,225c6.9,2.4,12.8,7.6,22.5,14.9c9.7,7.3,18.9,11.1,25,13"/>
	<path fill="none" stroke="#AEA5BF" stroke-miterlimit="10" d="M788.4,224.4c6.3,1.1,11.9,3,22.8,6.6c9.7,3.2,20.7,4.6,27.2,5.1"/>
	<g>
		<circle fill="#67588E" cx="757.3" cy="46.1" r="2.9"/>
		<circle fill="#67588E" cx="742.6" cy="36" r="2.9"/>
		<circle fill="#67588E" cx="727.3" cy="27.4" r="2.9"/>
		<circle fill="#67588E" cx="770.3" cy="57" r="2.9"/>
		<circle fill="#67588E" cx="664.4" cy="6.9" r="2.9"/>
		<circle fill="#67588E" cx="647" cy="4.9" r="2.9"/>
		<circle fill="#67588E" cx="805.7" cy="97.9" r="2.9"/>
		<circle fill="#67588E" cx="795.6" cy="83.6" r="2.9"/>
		<circle fill="#67588E" cx="629.7" cy="5.2" r="2.9"/>
		<circle fill="#67588E" cx="565" cy="15.7" r="2.9"/>
		<circle fill="#67588E" cx="548.9" cy="22.3" r="2.9"/>
		<circle fill="#67588E" cx="533" cy="30.4" r="2.9"/>
		<circle fill="#67588E" cx="517.8" cy="39.9" r="2.9"/>
		<circle fill="#67588E" cx="504.1" cy="50.2" r="2.9"/>
		<circle fill="#67588E" cx="487.3" cy="65.5" r="2.9"/>
		<circle fill="#67588E" cx="475.3" cy="78.8" r="2.9"/>
		<circle fill="#67588E" cx="464.5" cy="93.2" r="2.9"/>
		<circle fill="#67588E" cx="459.7" cy="100.5" r="2.9"/>
		<circle fill="#67588E" cx="451" cy="116" r="2.9"/>
		<circle fill="#67588E" cx="441" cy="139" r="2.9"/>
		<circle fill="#67588E" cx="435.8" cy="155.4" r="2.9"/>
		<circle fill="#67588E" cx="432" cy="172.7" r="2.9"/>
		<circle fill="#67588E" cx="429.2" cy="190.4" r="2.9"/>
		<circle fill="#67588E" cx="428.6" cy="207.4" r="2.9"/>
		<circle fill="#67588E" cx="681.1" cy="10.7" r="2.9"/>
		<circle fill="#67588E" cx="435.5" cy="259.7" r="2.9"/>
		<circle fill="#67588E" cx="440.7" cy="276.8" r="2.9"/>
		<circle fill="#67588E" cx="447.3" cy="293.2" r="2.9"/>
		<circle fill="#67588E" cx="454.9" cy="308.4" r="2.9"/>
		<circle fill="#67588E" cx="460.8" cy="318.3" r="2.9"/>
		<circle fill="#67588E" cx="470.7" cy="332.6" r="2.9"/>
		<circle fill="#67588E" cx="482.1" cy="346.2" r="2.9"/>
		<circle fill="#67588E" cx="494.6" cy="359" r="2.9"/>
		<circle fill="#67588E" cx="507.8" cy="370.3" r="2.9"/>
		<circle fill="#67588E" cx="520.5" cy="379.5" r="2.9"/>
		<circle fill="#67588E" cx="535.8" cy="388.7" r="2.9"/>
		<circle fill="#67588E" cx="551.8" cy="396.6" r="2.9"/>
		<circle fill="#67588E" cx="564.1" cy="401.5" r="2.9"/>
		<circle fill="#67588E" cx="580.9" cy="406.9" r="2.9"/>
		<circle fill="#67588E" cx="651.2" cy="413.1" r="2.9"/>
		<circle fill="#67588E" cx="668.5" cy="410" r="2.9"/>
		<circle fill="#67588E" cx="685.9" cy="406.4" r="2.9"/>
		<circle fill="#67588E" cx="702.7" cy="401.2" r="2.9"/>
		<circle fill="#67588E" cx="719" cy="394.9" r="2.9"/>
		<circle fill="#67588E" cx="729.6" cy="389.9" r="2.9"/>
		<circle fill="#67588E" cx="744.5" cy="381.3" r="2.9"/>
		<circle fill="#67588E" cx="759.1" cy="371.2" r="2.9"/>
		<circle fill="#67588E" cx="772.3" cy="360.4" r="2.9"/>
		<circle fill="#67588E" cx="779.5" cy="353.6" r="2.9"/>
		<circle fill="#67588E" cx="791.3" cy="341" r="2.9"/>
		<circle fill="#67588E" cx="802.2" cy="327.1" r="2.9"/>
		<circle fill="#67588E" cx="812" cy="312.2" r="2.9"/>
		<circle fill="#67588E" cx="820.2" cy="296.8" r="2.9"/>
		<circle fill="#67588E" cx="839.4" cy="201.4" r="2.9"/>
		<circle fill="#67588E" cx="839.4" cy="218.9" r="2.9"/>
		<circle fill="#67588E" cx="837.7" cy="236.1" r="2.9"/>
		<circle fill="#67588E" cx="834.8" cy="252.9" r="2.9"/>
	</g>
	<path fill="none" stroke="#AEA5BF" stroke-miterlimit="10" d="M666,154.1l-0.6,1.5l-0.1,0.3c0,0,0,0,0,0L642,213.4"/>
	<circle fill="#F5F3F0" cx="642" cy="213.4" r="34.3"/>
	<g>
		<circle fill="#968BAF" cx="699.6" cy="71.2" r="4.3"/>
		<circle fill="#968BAF" cx="674.4" cy="61.8" r="4.3"/>
		<circle fill="#968BAF" cx="648.7" cy="56.9" r="4.3"/>
		<circle fill="#968BAF" cx="622.2" cy="56.7" r="4.3"/>
		<circle fill="#968BAF" cx="556.3" cy="76.4" r="4.3"/>
		<circle fill="#968BAF" cx="536" cy="90.6" r="4.3"/>
		<circle fill="#968BAF" cx="517.2" cy="109.1" r="4.3"/>
		<circle fill="#968BAF" cx="501.5" cy="130.9" r="4.3"/>
		<circle fill="#968BAF" cx="489.9" cy="155.2" r="4.3"/>
		<circle fill="#968BAF" cx="482.8" cy="180.6" r="4.3"/>
		<circle fill="#968BAF" cx="480.2" cy="205.3" r="4.3"/>
		<circle fill="#968BAF" cx="758.1" cy="119.7" r="4.3"/>
		<circle fill="#968BAF" cx="783.2" cy="171.6" r="4.3"/>
		<circle fill="#968BAF" cx="787.4" cy="197.1" r="4.3"/>
		<circle fill="#968BAF" cx="787.4" cy="224" r="4.3"/>
		<circle fill="#968BAF" cx="782.8" cy="249.4" r="4.3"/>
		<circle fill="#968BAF" cx="760.1" cy="297.5" r="4.3"/>
		<circle fill="#968BAF" cx="742.9" cy="317.5" r="4.3"/>
		<circle fill="#968BAF" cx="722" cy="334.5" r="4.3"/>
		<circle fill="#968BAF" cx="698.6" cy="347.6" r="4.3"/>
		<circle fill="#968BAF" cx="673.5" cy="356.4" r="4.3"/>
		<circle fill="#968BAF" cx="742.7" cy="101.7" r="4.3"/>
		<circle fill="#968BAF" cx="722.8" cy="84.8" r="4.3"/>
		<circle fill="#968BAF" cx="585.5" cy="354.5" r="4.3"/>
		<circle fill="#968BAF" cx="562.4" cy="344.6" r="4.3"/>
		<circle fill="#968BAF" cx="540.2" cy="330" r="4.3"/>
		<circle fill="#968BAF" cx="520.2" cy="311.7" r="4.3"/>
		<circle fill="#968BAF" cx="504.1" cy="289.9" r="4.3"/>
		<circle fill="#968BAF" cx="491.8" cy="266.4" r="4.3"/>
	</g>
	<g>
		<circle fill="#AEA5BF" cx="574.9" cy="174.4" r="7.8"/>
		<circle fill="#AEA5BF" cx="667.3" cy="150.1" r="7.8"/>
		<circle fill="#AEA5BF" cx="673.8" cy="261.5" r="7.8"/>
		<circle fill="#AEA5BF" cx="703.8" cy="212.2" r="7.8"/>
		<circle fill="#AEA5BF" cx="593.1" cy="260.3" r="7.8"/>
	</g>
	<path fill="#C8C0DE" d="M638.6,194c0,2.1,1.7,3.9,3.9,3.9s3.9-1.7,3.9-3.9c0-2.1-1.7-3.9-3.9-3.9S638.6,191.8,638.6,194z
		 M652.3,203.7v11.9c0,1-0.7,1.7-1.7,1.7c-1,0-1.7-0.8-1.7-1.7v-10.9c0-0.3-0.2-0.5-0.5-0.5c-0.3,0-0.5,0.2-0.5,0.5V234
		c0,1.5-1.1,2.6-2.4,2.6c-1.3,0-2.4-1.2-2.4-2.6v-16.7c0-0.3-0.2-0.5-0.5-0.5c-0.3,0-0.5,0.2-0.5,0.5V234c0,1.5-1.1,2.6-2.4,2.6
		c-1.3,0-2.4-1.2-2.4-2.6v-29.3c0-0.3-0.2-0.5-0.5-0.5c-0.3,0-0.5,0.2-0.5,0.5v10.9c0,1-0.7,1.7-1.7,1.7c-1,0-1.7-0.8-1.7-1.7v-11.8
		c0-2.7,2.2-4.8,4.8-4.8h9.7C650,198.8,652.2,201,652.3,203.7z"/>
</g>
<g id="Layer_2">
</g>
<g id="Layer_3">
</g>
</svg>
