<svg enable-background="new 0 0 243 256" height="256" viewBox="0 0 243 256" width="243" xmlns="http://www.w3.org/2000/svg"><path d="m238.9 191.612c-3.153-4.34-9.228-5.302-13.568-2.149-.341.248-.654.52-.953.801l-38.196-6.05c-2.132-2.758-5.463-4.541-9.218-4.541-.656 0-1.295.067-1.922.172l-32.219-44.346c1.509-2.211 2.41-4.861 2.504-7.717l52-16.758c2.124 2.242 5.122 3.648 8.454 3.648 6.437 0 11.656-5.218 11.656-11.656 0-6.437-5.218-11.656-11.656-11.656-5.988 0-10.915 4.517-11.575 10.328l-51.897 16.724c-1.683-2.18-3.966-3.864-6.607-4.813v-53.835c3.974-1.857 6.734-5.878 6.734-10.554 0-.328-.022-.65-.049-.971l26.338-27.022c.647.136 1.318.21 2.006.21 5.365 0 9.714-4.349 9.714-9.714s-4.349-9.714-9.714-9.714-9.714 4.349-9.714 9.714c0 .998.152 1.961.431 2.867l-24.266 24.895c-.47-.31-.967-.579-1.48-.82v-18.577c2.864-1.689 4.792-4.798 4.792-8.364 0-5.365-4.349-9.714-9.714-9.714s-9.714 4.349-9.714 9.714c0 3.566 1.927 6.674 4.791 8.364v18.579c-.571.267-1.121.569-1.637.92l-24.342-24.345c.425-1.092.667-2.276.667-3.518 0-5.365-4.349-9.714-9.714-9.714s-9.714 4.349-9.714 9.714 4.349 9.714 9.714 9.714c.419 0 .829-.035 1.234-.087l27.099 27.099c-.017.256-.039.511-.039.771 0 4.676 2.76 8.697 6.734 10.554v53.835c-2.64.949-4.923 2.633-6.606 4.813l-52.589-16.947c-.746-5.593-5.448-9.923-11.205-10.088l-17.838-21.005c.481-1.152.749-2.415.749-3.741 0-5.365-4.349-9.714-9.714-9.714s-9.714 4.349-9.714 9.714 4.349 9.714 9.714 9.714c.362 0 .719-.023 1.071-.062l16.404 19.317c-1.547 1.873-2.504 4.242-2.633 6.828l-23.788 3.857c-1.773-2.351-4.581-3.878-7.752-3.878-5.365 0-9.714 4.349-9.714 9.714s4.349 9.714 9.714 9.714c3.954 0 7.35-2.367 8.866-5.758l26.613-4.315c2.053 1.806 4.738 2.91 7.687 2.91 3.412 0 6.472-1.475 8.603-3.811l52.509 16.922c.094 2.863 1.001 5.519 2.517 7.733l-19.333 26.693-.028-.02-12.788 17.656c-.625-.104-1.262-.171-1.916-.171-6.437 0-11.656 5.218-11.656 11.656 0 1.954.486 3.791 1.336 5.409l-14.174 19.57c-.181-.01-.359-.027-.542-.027-5.365 0-9.714 4.349-9.714 9.714s4.349 9.714 9.714 9.714 9.714-4.349 9.714-9.714c0-1.515-.357-2.943-.975-4.221l13.806-19.061c.804.175 1.636.274 2.492.274 6.437 0 11.656-5.218 11.656-11.656 0-2.147-.591-4.152-1.603-5.879l31.988-44.164c1.288.373 2.645.583 4.053.583s2.765-.21 4.053-.583l32.036 44.231c-.988 1.712-1.563 3.693-1.563 5.812 0 2.714.936 5.205 2.491 7.186l-5.362 36.903c-.603.27-1.188.605-1.744 1.009-4.34 3.153-5.302 9.228-2.149 13.568s9.228 5.302 13.568 2.149 5.302-9.228 2.149-13.568c-.587-.808-1.275-1.497-2.035-2.066l4.872-33.531c.819-.009 1.616-.104 2.386-.274l10.338 14.229c-1.322 3.05-1.054 6.696 1.041 9.579 3.153 4.34 9.228 5.302 13.568 2.149s5.302-9.228 2.149-13.568c-2.097-2.886-5.486-4.268-8.797-3.949l-10.486-14.432c.365-.7.658-1.441.876-2.215l33.484 5.304c.298 1.131.797 2.228 1.526 3.231 3.153 4.34 9.228 5.302 13.568 2.149 4.338-3.159 5.3-9.234 2.147-13.574z"/></svg>