<?xml version="1.0" encoding="utf-8"?>
<!-- Generator: Adobe Illustrator 22.1.0, SVG Export Plug-In . SVG Version: 6.00 Build 0)  -->
<svg version="1.1" id="Layer_1" xmlns="http://www.w3.org/2000/svg" xmlns:xlink="http://www.w3.org/1999/xlink" x="0px" y="0px"
	 viewBox="0 0 555 340" style="enable-background:new 0 0 555 340;" xml:space="preserve">
<style type="text/css">
	.st0{fill:none;stroke:#D6D4D4;}
	.st1{font-family:'RobotoMono-Regular';}
	.st2{font-size:12px;}
	.st3{opacity:0.47;fill:#848484;}
	.st4{fill:none;stroke:#000000;stroke-miterlimit:10;}
</style>
<path class="st0" d="M90.8,301.5V14.2"/>
<path class="st0" d="M163.6,301.5V14.2"/>
<path class="st0" d="M236.5,301.5V14.2"/>
<path class="st0" d="M309.3,301.5V14.2"/>
<path class="st0" d="M382.1,301.5V14.2"/>
<path class="st0" d="M454.9,301.5V14.2"/>
<path class="st0" d="M527.7,301.5V14.2"/>
<path class="st0" d="M18,301.5V14.2"/>
<text transform="matrix(1 0 0 1 15.091 319.2)" class="st1 st2">0</text>
<text transform="matrix(1 0 0 1 84.4904 319.2)" class="st1 st2">10</text>
<text transform="matrix(1 0 0 1 157.4904 319.2)" class="st1 st2">20</text>
<text transform="matrix(1 0 0 1 230.4904 319.2)" class="st1 st2">30</text>
<text transform="matrix(1 0 0 1 303.4904 319.2)" class="st1 st2">40</text>
<text transform="matrix(1 0 0 1 376.4904 319.2)" class="st1 st2">50</text>
<text transform="matrix(1 0 0 1 449.4904 319.2)" class="st1 st2">60</text>
<text transform="matrix(1 0 0 1 522.4904 319.2)" class="st1 st2">70</text>
<circle class="st3" cx="62.3" cy="232.6" r="44.3"/>
<circle class="st3" cx="75.7" cy="153.9" r="31"/>
<circle class="st3" cx="109.8" cy="97.7" r="21.9"/>
<circle class="st3" cx="159.1" cy="193.2" r="39.3"/>
<circle class="st3" cx="171.6" cy="110.2" r="26.8"/>
<circle class="st3" cx="215.1" cy="255.5" r="21.4"/>
<circle class="st3" cx="241.2" cy="195.7" r="29.5"/>
<circle class="st3" cx="263.7" cy="109.3" r="43.1"/>
<circle class="st3" cx="208" cy="146.3" r="23.5"/>
<circle class="st3" cx="299.6" cy="187.3" r="21.1"/>
<circle class="st3" cx="415.5" cy="187.9" r="18.1"/>
<circle class="st3" cx="455.8" cy="240.2" r="17.2"/>
<circle class="st3" cx="510.6" cy="140.8" r="19.1"/>
<circle class="st3" cx="464" cy="147.5" r="10.5"/>
<circle class="st3" cx="343.7" cy="147.8" r="14.7"/>
<text transform="matrix(1 0 0 1 44.3387 229.533)"><tspan x="0" y="0" class="st1 st2">South</tspan><tspan x="0" y="14.4" class="st1 st2">Korea</tspan></text>
<text transform="matrix(1 0 0 1 139.6888 198.0917)" class="st1 st2">Japan</text>
<text transform="matrix(1 0 0 1 57.6887 157.2001)" class="st1 st2">China</text>
<text transform="matrix(1 0 0 1 245.7219 113.8667)" class="st1 st2">India</text>
<text transform="matrix(1 0 0 1 219.5881 199.0919)" class="st1 st2">Mexico</text>
<text transform="matrix(1 0 0 1 189.9816 150.0106)" class="st1 st2">Egypt</text>
<text transform="matrix(1 0 0 1 157.1945 113.8668)" class="st1 st2">Iran</text>
<text transform="matrix(1 0 0 1 200.7005 259.8668)" class="st1 st2">Cuba</text>
<text transform="matrix(1 0 0 1 282.5573 191.1998)" class="st1 st2">Qatar</text>
<text transform="matrix(1 0 0 1 332.8961 152.3998)" class="st1 st2">USA</text>
<text transform="matrix(1 0 0 1 448.5836 244.4877)" class="st1 st2">UK</text>
<text transform="matrix(1 0 0 1 397.4697 192.2251)" class="st1 st2">Italy</text>
<text transform="matrix(1 0 0 1 492.574 145.0847)" class="st1 st2">Spain</text>
<text transform="matrix(1 0 0 1 399.3067 133.0654)" class="st1 st2">Norway</text>
<text transform="matrix(1 0 0 1 91.7707 101.389)" class="st1 st2">Chile</text>
<line class="st4" x1="446.2" y1="133.6" x2="464" y2="148"/>
</svg>
