<svg height="420" viewBox="0 0 650 420" width="650" xmlns="http://www.w3.org/2000/svg"><path d="m326.55 3v69.38a138.09 138.09 0 0 1 132.52 169.71l67.38 16.81a186 186 0 0 0 5.8-48.9c0-113.7-92.25-206.3-205.7-207z" fill="#d2d2d2"/><path d="m324 72.36v-69.36c-34.3.2-64.5 7.7-94.8 23.6l32.44 61a137.38 137.38 0 0 1 62.36-15.24z" fill="#e2e2e2"/><path d="m259.37 88.79-32.37-60.89c-38.4 20.6-65.6 48.4-85.6 87.1l61.2 31.18a138.62 138.62 0 0 1 56.77-57.39z" fill="#9d9d9d"/><path d="m186.74 210.35a137.41 137.41 0 0 1 14.68-62l-61.17-31.15c-29.5 58.6-30 123.3-1.6 182.5l61.5-30a137.45 137.45 0 0 1 -13.41-59.35z" fill="#b1b1b1"/><path d="m201.17 271.83-61.52 30c34.8 70.3 102.2 113.3 180.6 115.1l1.21-68.59a138 138 0 0 1 -120.29-76.51z" fill="#ccc"/><path d="m458.47 244.52a138 138 0 0 1 -133.73 103.83h-.74l-1.25 68.65h2.5a206 206 0 0 0 200.4-155.7z" fill="#bcbcbc"/><g font-size="22"><text fill="#fff" font-family="Roboto Mono" transform="translate(185.75 104.62)">11</text><text fill="#fff" font-family="Roboto Mono" transform="translate(142.03 225.41)">15</text><text fill="#fff" font-family="Roboto Mono" transform="translate(225.43 367.48)">18</text><text fill="#fff" font-family="Roboto Mono" transform="translate(412.95 354.83)">22</text><text fill="#fff" font-family="Roboto Mono" transform="translate(441.71 123.03)">30</text><text fill="#fff" font-family="Roboto Mono" transform="translate(277.78 56.88)">8</text></g><path d="m324.18 76c-28.92.19-53.45 8.15-77 25l77 105.92z" fill="#a6a6a6"/><path d="m245.62 102.18c-47 34.62-65.87 92.66-48.21 148.3l70.72-23 55.39-18-11.9-16.48z" fill="#c8c8c8"/><path d="m298.17 219.81-100.1 32.55a126.28 126.28 0 0 0 18.7 36.43c43.23 59.52 126.62 72.92 186.35 30.21l-18.44-25.43-59.86-82.37z" fill="#bfbfbf"/><path d="m404.67 317.77c35.59-26.2 54.42-63.47 54.42-107.77.06-73.5-59.53-133.42-133-133.94v133.59l29.44 40.51z" fill="#dcdcdc"/><text fill="#919191" font-family="Roboto Mono" font-size="22" transform="translate(382.74 201.9)">40</text><text fill="#919191" font-family="Roboto Mono" font-size="22" transform="translate(289.61 291.21)">30</text><text fill="#919191" font-family="Roboto Mono" font-size="22" transform="translate(236.08 193.2)">20</text><text fill="#919191" font-family="Roboto Mono" font-size="22" transform="translate(283.44 134.73)">10</text></svg>
