<svg enable-background="new 0 0 1280 418" viewBox="0 0 1280 418" xmlns="http://www.w3.org/2000/svg"><path d="m6.7 12h37.4v27.3h-37.4zm50.3 0h37.2v27.3h-37.2zm50.1 0h37.2v27.3h-37.2zm50.2 0h37.4v27.3h-37.4zm50.1 0h37.2v27.3h-37.2zm50.1 0h37.4v27.3h-37.4zm50.4 0h37.2v27.3h-37.2zm-301.2 36.8h37.4v27.3h-37.4zm50.3 0h37.2v27.3h-37.2zm50.1 0h37.2v27.3h-37.2zm50.2 0h37.4v27.3h-37.4z" fill="#e2e2f4"/><path d="m6.7 85.4h37.4v27.5h-37.4zm50.3 0h37.2v27.5h-37.2zm50.1 0h37.2v27.5h-37.2zm50.2 0h37.4v27.5h-37.4zm50.1 0h37.2v27.5h-37.2zm50.1 0h37.4v27.5h-37.4zm50.4 0h37.2v27.5h-37.2zm-301.2 36.8h37.4v27.5h-37.4zm50.3 0h37.2v27.5h-37.2zm50.1 0h37.2v27.5h-37.2zm50.2 0h37.4v27.5h-37.4zm50.1 0h37.2v27.5h-37.2zm50.1 0h37.4v27.5h-37.4zm50.4 0h37.2v27.5h-37.2zm-100.5-73.4h37.2v27.3h-37.2zm50.1 0h37.4v27.3h-37.4zm50.4 0h37.2v27.3h-37.2zm-301.2 110.2h37.4v27.5h-37.4zm50.3 0h37.2v27.5h-37.2zm50.1 0h37.2v27.5h-37.2zm50.2 0h37.4v27.5h-37.4zm50.1 0h37.2v27.5h-37.2zm50.1 0h37.4v27.5h-37.4zm50.4 0h37.2v27.5h-37.2zm-301.2 37h37.4v27.3h-37.4zm50.3 0h37.2v27.3h-37.2zm50.1 0h37.2v27.3h-37.2zm50.2 0h37.4v27.3h-37.4zm50.1 0h37.2v27.3h-37.2zm50.1 0h37.4v27.3h-37.4zm50.4 0h37.2v27.3h-37.2zm-301.2 36.8h37.4v27.3h-37.4zm50.3 0h37.2v27.3h-37.2zm50.1 0h37.2v27.3h-37.2zm50.2 0h37.4v27.3h-37.4zm50.1 0h37.2v27.3h-37.2zm50.1 0h37.4v27.3h-37.4zm50.4 0h37.2v27.3h-37.2zm-301.2 36.6h37.4v27.5h-37.4zm50.3 0h37.2v27.5h-37.2zm50.1 0h37.2v27.5h-37.2zm50.2 0h37.4v27.5h-37.4zm50.1 0h37.2v27.5h-37.2zm50.1 0h37.4v27.5h-37.4zm50.4 0h37.2v27.5h-37.2zm-301.2 36.8h37.4v27.5h-37.4zm50.3 0h37.2v27.5h-37.2zm50.1 0h37.2v27.5h-37.2zm50.2 0h37.4v27.5h-37.4zm50.1 0h37.2v27.5h-37.2zm50.1 0h37.4v27.5h-37.4zm50.4 0h37.2v27.5h-37.2zm-301.2 36.8h37.4v27.5h-37.4zm50.3 0h37.2v27.5h-37.2zm50.1 0h37.2v27.5h-37.2zm50.2 0h37.4v27.5h-37.4zm50.1 0h37.2v27.5h-37.2zm50.1 0h37.4v27.5h-37.4zm50.4 0h37.2v27.5h-37.2z" fill="#ababbd"/><text fill="#ccc" font-family="'RobotoMono-Regular'" font-size="24" transform="translate(125.0513 404.6826)">lorem</text><path d="m478 159h37.4v27.5h-37.4zm50.1 0h37.4v27.5h-37.4zm-50.1-147.2h37.4v27.3h-37.4zm50.1 0h37.4v27.3h-37.4zm50.3 0h37.2v27.3h-37.2zm-100.4 36.8h37.4v27.5h-37.4zm50.1 0h37.4v27.5h-37.4zm50.3 0h37.2v27.5h-37.2zm-100.4 36.8h37.4v27.3h-37.4zm50.1 0h37.4v27.3h-37.4zm50.3 0h37.2v27.3h-37.2zm-100.4 36.8h37.4v27.3h-37.4zm50.1 0h37.4v27.3h-37.4zm50.3 0h37.2v27.3h-37.2zm50.2-110.4h37.4v27.3h-37.4zm50.3 0h37.2v27.3h-37.2zm48.1 0h37.2v27.3h-37.2zm50.2 0h37.2v27.3h-37.2zm-148.6 36.8h37.4v27.5h-37.4zm50.3 0h37.2v27.5h-37.2zm48.1 0h37.2v27.5h-37.2zm50.2 0h37.2v27.5h-37.2zm-148.6 36.8h37.4v27.3h-37.4zm50.3 0h37.2v27.3h-37.2zm48.1 0h37.2v27.3h-37.2zm50.2 0h37.2v27.3h-37.2zm-148.6 36.8h37.4v27.3h-37.4zm50.3 0h37.2v27.3h-37.2zm48.1 0h37.2v27.3h-37.2zm50.2 0h37.2v27.3h-37.2z" fill="#e2e2f4"/><path d="m578.4 159h37.2v27.5h-37.2zm-100.4 37h37.4v27.3h-37.4zm50.1 0h37.4v27.3h-37.4zm50.3 0h37.2v27.3h-37.2zm-100.4 36.8h37.4v27.3h-37.4zm50.1 0h37.4v27.3h-37.4zm50.3 0h37.2v27.3h-37.2zm-100.4 36.6h37.4v27.5h-37.4zm50.1 0h37.4v27.5h-37.4zm50.3 0h37.2v27.5h-37.2zm-100.4 36.8h37.4v27.5h-37.4zm50.1 0h37.4v27.5h-37.4zm50.3 0h37.2v27.5h-37.2zm-100.4 36.8h37.4v27.5h-37.4zm50.1 0h37.4v27.5h-37.4zm50.3 0h37.2v27.5h-37.2zm50.2-184h37.4v27.5h-37.4zm50.3 0h37.2v27.5h-37.2zm48.1 0h37.2v27.5h-37.2zm50.2 0h37.2v27.5h-37.2zm-148.6 37h37.4v27.3h-37.4zm50.3 0h37.2v27.3h-37.2zm48.1 0h37.2v27.3h-37.2zm50.2 0h37.2v27.3h-37.2zm-148.6 36.8h37.4v27.3h-37.4zm50.3 0h37.2v27.3h-37.2zm48.1 0h37.2v27.3h-37.2zm50.2 0h37.2v27.3h-37.2zm-148.6 36.6h37.4v27.5h-37.4zm50.3 0h37.2v27.5h-37.2zm48.1 0h37.2v27.5h-37.2zm50.2 0h37.2v27.5h-37.2zm-148.6 36.8h37.4v27.5h-37.4zm50.3 0h37.2v27.5h-37.2zm48.1 0h37.2v27.5h-37.2zm50.2 0h37.2v27.5h-37.2zm-148.6 36.8h37.4v27.5h-37.4zm50.3 0h37.2v27.5h-37.2zm48.1 0h37.2v27.5h-37.2zm50.2 0h37.2v27.5h-37.2z" fill="#535365"/><text fill="#ccc" font-family="'RobotoMono-Regular'" font-size="24" transform="translate(598.1289 404.6826)">ipsum</text><path d="m1090.5 11.8h37.4v27.5h-37.4zm50.3 0h37.2v27.5h-37.2zm-200.7 37h37.2v27.3h-37.2zm50.1 0h37.2v27.3h-37.2zm50.2 0h37.2v27.3h-37.2zm50.1 0h37.4v27.3h-37.4zm50.3 0h37.2v27.3h-37.2zm-200.7 36.6h37.2v27.5h-37.2zm50.1 0h37.2v27.5h-37.2zm50.2 0h37.2v27.5h-37.2zm147.6-73.6h37.2v27.5h-37.2zm50.1 0h37.4v27.5h-37.4zm-298.2 0h37.2v27.5h-37.2zm50.3 0h37.2v27.5h-37.2zm50.2 0h37.2v27.5h-37.2zm147.6 37h37.2v27.3h-37.2zm50.1 0h37.4v27.3h-37.4z" fill="#e2e2f4"/><path d="m1090.5 85.4h37.4v27.5h-37.4zm50.3 0h37.2v27.5h-37.2zm-200.7 36.8h37.2v27.5h-37.2zm50.1 0h37.2v27.5h-37.2zm50.2 0h37.2v27.5h-37.2zm50.1 0h37.4v27.5h-37.4zm50.3 0h37.2v27.5h-37.2zm-200.7 36.8h37.2v27.5h-37.2zm50.1 0h37.2v27.5h-37.2zm50.2 0h37.2v27.5h-37.2zm50.1 0h37.4v27.5h-37.4zm50.3 0h37.2v27.5h-37.2zm-200.7 37h37.2v27.3h-37.2zm50.1 0h37.2v27.3h-37.2zm50.2 0h37.2v27.3h-37.2zm50.1 0h37.4v27.3h-37.4zm50.3 0h37.2v27.3h-37.2zm-200.7 36.8h37.2v27.3h-37.2zm50.1 0h37.2v27.3h-37.2zm50.2 0h37.2v27.3h-37.2zm50.1 0h37.4v27.3h-37.4zm50.3 0h37.2v27.3h-37.2zm-200.7 36.6h37.2v27.5h-37.2zm50.1 0h37.2v27.5h-37.2zm50.2 0h37.2v27.5h-37.2zm50.1 0h37.4v27.5h-37.4zm50.3 0h37.2v27.5h-37.2zm-200.7 36.8h37.2v27.5h-37.2zm50.1 0h37.2v27.5h-37.2zm50.2 0h37.2v27.5h-37.2zm50.1 0h37.4v27.5h-37.4zm50.3 0h37.2v27.5h-37.2zm-200.7 36.8h37.2v27.5h-37.2zm50.1 0h37.2v27.5h-37.2zm50.2 0h37.2v27.5h-37.2zm50.1 0h37.4v27.5h-37.4zm50.3 0h37.2v27.5h-37.2zm47.2-257.6h37.2v27.5h-37.2zm50.1 0h37.4v27.5h-37.4zm-50.1 36.8h37.2v27.5h-37.2zm50.1 0h37.4v27.5h-37.4zm-50.1 36.8h37.2v27.5h-37.2zm50.1 0h37.4v27.5h-37.4zm-50.1 37h37.2v27.3h-37.2zm50.1 0h37.4v27.3h-37.4zm-50.1 36.8h37.2v27.3h-37.2zm50.1 0h37.4v27.3h-37.4zm-50.1 36.6h37.2v27.5h-37.2zm50.1 0h37.4v27.5h-37.4zm-50.1 36.8h37.2v27.5h-37.2zm50.1 0h37.4v27.5h-37.4zm-50.1 36.8h37.2v27.5h-37.2zm50.1 0h37.4v27.5h-37.4z" fill="#89899b"/><text fill="#ccc" font-family="'RobotoMono-Regular'" font-size="24" transform="translate(1068.4219 404.6826)">dolor</text></svg>