<svg xmlns="http://www.w3.org/2000/svg" width="256" height="256" viewBox="0 0 256 256"><title>icon</title><path d="M254,242.2V254H2V2H13.8V242.2Zm-12.5-124a12.1,12.1,0,0,0-12,12.1,13.6,13.6,0,0,0,.3,2.9L190.1,162a11.8,11.8,0,0,0-7.7-2.9,12.4,12.4,0,0,0-2.7.3L107.4,59.6a11.8,11.8,0,0,0,1.1-5,12.1,12.1,0,1,0-24.2,0,12.5,12.5,0,0,0,3,7.9L42.1,154.6a13.4,13.4,0,0,0-3.5-.5,12.3,12.3,0,1,0,10.6,6.4L95.3,66.6h1.1a12.7,12.7,0,0,0,4.4-.8l71.5,98.8a11.7,11.7,0,0,0-2,6.6,12.1,12.1,0,0,0,24.2,0c0-.4-.1-.8-.1-1.2l40.7-29.5a12,12,0,0,0,6.4,1.9,12.1,12.1,0,0,0,0-24.2Z"/><path d="M242.1,40.8A12.1,12.1,0,0,0,230,52.9L190.4,68.6a12.7,12.7,0,0,0-7.4-2.5,12.1,12.1,0,0,0-12.1,12.1,11.1,11.1,0,0,0,.8,4.1l-70.2,93.5a13.4,13.4,0,0,0-4.5-.9l-1.8.2L47.7,75.6A12.1,12.1,0,1,0,38.4,80h1.4l47.6,99.7a11.7,11.7,0,0,0-2.5,7.3,12.1,12.1,0,0,0,24.2,0,11.7,11.7,0,0,0-1.1-4.9l69.9-93a11,11,0,0,0,5.1,1.2,12.1,12.1,0,0,0,12.1-12.1,9.1,9.1,0,0,0-.1-1.7l38.4-15.3a12.1,12.1,0,1,0,8.7-20.4Z" opacity="0.5"/></svg>