<?xml version="1.0" encoding="utf-8"?>
<!-- Generator: Adobe Illustrator 24.0.1, SVG Export Plug-In . SVG Version: 6.00 Build 0)  -->
<svg version="1.1" id="Layer_1" xmlns="http://www.w3.org/2000/svg" xmlns:xlink="http://www.w3.org/1999/xlink" x="0px" y="0px"
	 viewBox="0 0 1268 418" style="enable-background:new 0 0 1268 418;" xml:space="preserve">
<style type="text/css">
	.st0{fill:none;stroke:#A0A0A0;stroke-width:1.3023;stroke-linecap:round;stroke-linejoin:round;}
	.st1{fill:#CCCCCC;}
	.st2{font-family:'RobotoMono-Regular';}
	.st3{font-size:18px;}
	.st4{fill:#E8E8E8;stroke:#9B9B9B;stroke-width:1.8102;stroke-linecap:round;stroke-linejoin:round;}
	.st5{fill:#D8D8D8;stroke:#9B9B9B;stroke-width:1.8102;stroke-linecap:round;stroke-linejoin:round;}
	.st6{fill:#A39CB9;stroke:#9B9B9B;stroke-width:1.8102;stroke-linecap:round;stroke-linejoin:round;}
	.st7{fill:#C4C5D1;stroke:#9B9B9B;stroke-width:1.8102;stroke-linecap:round;stroke-linejoin:round;}
</style>
<title>hehagonal-bin-plot</title>
<path class="st0" d="M287.6,385.9H1047V5.5H287.6V385.9z"/>
<path class="st0" d="M382.1,386.8v8.5"/>
<path class="st0" d="M572.8,386.8v8.5"/>
<path class="st0" d="M764.3,386.8v8.5"/>
<path class="st0" d="M955.7,386.8v8.5"/>
<path class="st0" d="M287.6,53.2h-15.5"/>
<path class="st0" d="M287.6,246.1h-15.5"/>
<path class="st0" d="M287.6,342.6h-15.5"/>
<path class="st0" d="M287.6,149.7h-15.5"/>
<text transform="matrix(1 0 0 1 369.9863 414.9551)" class="st1 st2 st3">10</text>
<text transform="matrix(1 0 0 1 560.7773 414.9551)" class="st1 st2 st3">20</text>
<text transform="matrix(1 0 0 1 752.2188 414.9551)" class="st1 st2 st3">30</text>
<text transform="matrix(1 0 0 1 943.6611 414.9551)" class="st1 st2 st3">40</text>
<text transform="matrix(6.123234e-17 -1 1 6.123234e-17 257.9399 257.248)" class="st1 st2 st3">12</text>
<text transform="matrix(6.123234e-17 -1 1 6.123234e-17 257.9399 63.7231)" class="st1 st2 st3">14</text>
<text transform="matrix(6.123234e-17 -1 1 6.123234e-17 257.9399 160.4858)" class="st1 st2 st3">13</text>
<text transform="matrix(6.123234e-17 -1 1 6.123234e-17 257.9399 354.0107)" class="st1 st2 st3">11</text>
<polygon class="st4" points="477.3,316.2 477.3,353.1 445.3,371.5 413.6,353.1 413.6,316.2 445.3,297.9 "/>
<polygon class="st4" points="541.1,316.2 541.1,353.1 509.2,371.5 477.3,353.1 477.3,316.2 509.2,297.9 "/>
<polygon class="st4" points="445.3,261 445.3,297.9 413.6,316.2 381.5,297.9 381.5,261 413.6,242.7 "/>
<polygon class="st5" points="509.2,261 509.2,297.9 477.3,316.2 445.3,297.9 445.3,261 477.3,242.7 "/>
<polygon class="st5" points="573,261 573,297.9 541.1,316.2 509.2,297.9 509.2,261 541.1,242.7 "/>
<polygon class="st4" points="636.8,261 636.8,297.9 604.9,316.2 573,297.9 573,261 604.9,242.7 "/>
<polygon class="st4" points="764.4,261 764.4,297.9 732.5,316.2 700.6,297.9 700.6,261 732.5,242.7 "/>
<polygon class="st4" points="891.9,261 891.9,297.9 860,316.2 828.2,297.9 828.2,261 860,242.7 "/>
<polygon class="st4" points="955.7,261 955.7,297.9 923.8,316.2 891.9,297.9 891.9,261 923.8,242.7 "/>
<polygon class="st4" points="413.6,205.8 413.6,242.7 381.5,261 349.8,242.7 349.8,205.8 381.5,187.3 "/>
<polygon class="st4" points="477.3,205.8 477.3,242.7 445.3,261 413.6,242.7 413.6,205.8 445.3,187.3 "/>
<polygon class="st6" points="541.1,205.8 541.1,242.7 509.2,261 477.3,242.7 477.3,205.8 509.2,187.3 "/>
<polygon class="st4" points="987.6,205.8 987.6,242.7 955.7,261 923.8,242.7 923.8,205.8 955.7,187.3 "/>
<polygon class="st4" points="477.3,95.2 477.3,132.1 445.3,150.5 413.6,132.1 413.6,95.2 445.3,76.9 "/>
<polygon class="st4" points="541.1,95.2 541.1,132.1 509.2,150.5 477.3,132.1 477.3,95.2 509.2,76.9 "/>
<polygon class="st7" points="604.9,95.2 604.9,132.1 573,150.5 541.1,132.1 541.1,95.2 573,76.9 "/>
<polygon class="st4" points="732.5,95.2 732.5,132.1 700.6,150.5 668.7,132.1 668.7,95.2 700.6,76.9 "/>
<polygon class="st5" points="796.2,95.2 796.2,132.1 764.4,150.5 732.5,132.1 732.5,95.2 764.4,76.9 "/>
<polygon class="st4" points="923.8,95.2 923.8,132.1 891.9,150.5 860,132.1 860,95.2 891.9,76.9 "/>
<polygon class="st5" points="987.6,95.2 987.6,132.1 955.7,150.5 923.8,132.1 923.8,95.2 955.7,76.9 "/>
<polygon class="st4" points="573,40 573,76.9 541.1,95.2 509.2,76.9 509.2,40 541.1,21.7 "/>
<polygon class="st4" points="636.8,40 636.8,76.9 604.9,95.2 573,76.9 573,40 604.9,21.7 "/>
<polygon class="st4" points="764.4,40 764.4,76.9 732.5,95.2 700.6,76.9 700.6,40 732.5,21.7 "/>
<polygon class="st4" points="828.2,40 828.2,76.9 796.2,95.2 764.4,76.9 764.4,40 796.2,21.7 "/>
<polygon class="st7" points="604.9,205.8 604.9,242.7 573,261 541.1,242.7 541.1,205.8 573,187.3 "/>
<polygon class="st7" points="668.7,205.8 668.7,242.7 636.8,261 604.9,242.7 604.9,205.8 636.8,187.3 "/>
<polygon class="st4" points="732.5,205.8 732.5,242.7 700.6,261 668.7,242.7 668.7,205.8 700.6,187.3 "/>
<polygon class="st7" points="796.2,205.8 796.2,242.7 764.4,261 732.5,242.7 732.5,205.8 764.4,187.3 "/>
<polygon class="st5" points="860,205.8 860,242.7 828.2,261 796.2,242.7 796.2,205.8 828.2,187.3 "/>
<polygon class="st4" points="923.8,205.8 923.8,242.7 891.9,261 860,242.7 860,205.8 891.9,187.3 "/>
<polygon class="st4" points="509.2,150.5 509.2,187.3 477.3,205.8 445.3,187.3 445.3,150.5 477.3,132.1 "/>
<polygon class="st5" points="573,150.5 573,187.3 541.1,205.8 509.2,187.3 509.2,150.5 541.1,132.1 "/>
<polygon class="st6" points="636.8,150.5 636.8,187.3 604.9,205.8 573,187.3 573,150.5 604.9,132.1 "/>
<polygon class="st7" points="700.6,150.5 700.6,187.3 668.7,205.8 636.8,187.3 636.8,150.5 668.7,132.1 "/>
<polygon class="st6" points="764.4,150.5 764.4,187.3 732.5,205.8 700.6,187.3 700.6,150.5 732.5,132.1 "/>
<polygon class="st7" points="828.2,150.5 828.2,187.3 796.2,205.8 764.4,187.3 764.4,150.5 796.2,132.1 "/>
<polygon class="st5" points="891.9,150.5 891.9,187.3 860,205.8 828.2,187.3 828.2,150.5 860,132.1 "/>
<polygon class="st4" points="955.7,150.5 955.7,187.3 923.8,205.8 891.9,187.3 891.9,150.5 923.8,132.1 "/>
<polygon class="st7" points="668.7,95.2 668.7,132.1 636.8,150.5 604.9,132.1 604.9,95.2 636.8,76.9 "/>
<polygon class="st5" points="860,95.2 860,132.1 828.2,150.5 796.2,132.1 796.2,95.2 828.2,76.9 "/>
<polygon class="st4" points="732.5,205.8 732.5,242.7 700.6,261 668.7,242.7 668.7,205.8 700.6,187.3 "/>
<polygon class="st4" points="732.5,95.2 732.5,132.1 700.6,150.5 668.7,132.1 668.7,95.2 700.6,76.9 "/>
</svg>
