<svg enable-background="new 0 0 1268 418" viewBox="0 0 1268 418" xmlns="http://www.w3.org/2000/svg"><path d="m38.8 327.9h-11.5" fill="none" stroke="#ccc" stroke-linecap="round" stroke-linejoin="round" stroke-width=".9735"/><path d="m38.8 226.3h-11.5" fill="none" stroke="#ccc" stroke-linecap="round" stroke-linejoin="round" stroke-width=".9735"/><path d="m38.8 124.9h-11.5" fill="none" stroke="#ccc" stroke-linecap="round" stroke-linejoin="round" stroke-width=".9735"/><path d="m38.8 23.5h-11.5" fill="none" stroke="#ccc" stroke-linecap="round" stroke-linejoin="round" stroke-width=".9735"/><text fill="#ccc" font-family="'RobotoMono-Regular'" font-size="18.4964" transform="matrix(0 -1 1 0 18.9478 344.1055)">−2</text><text fill="#ccc" font-family="'RobotoMono-Regular'" font-size="18.4964" transform="matrix(0 -1 1 0 18.9478 231.457)">0</text><text fill="#ccc" font-family="'RobotoMono-Regular'" font-size="18.4964" transform="matrix(0 -1 1 0 18.9497 130.0054)">2</text><text fill="#ccc" font-family="'RobotoMono-Regular'" font-size="18.4964" transform="matrix(0 -1 1 0 18.9497 28.5483)">4</text><path d="m38.8 374.8h1219.2v-367.8h-1219.2z" fill="none" stroke="#ccc" stroke-linecap="round" stroke-linejoin="round" stroke-width="1.4021"/><path d="m101.5 365.1c.8-12.2 1.3-11 1.8-23.2.2-5.5.5-7.3.8-12.9.1-2.4.3-4.6.9-6.9.7-2.6.4-5.5 2.1-7.8 1.6-1.9 1.1-4.5 1.3-6.9.2-3.5.1-7.2.6-10.7.1-.9.3-1.9.8-2.7.3-.4.9-.6 1.1-1 .5-.8.4-1.9.7-2.8.3-1 .9-1.7 1.2-2.5.6-1.8.3-3.8.7-5.6.3-1.2.6-1.6 1.6-2.5.2-.2.2-.6.4-.9.2-.2.5 0 .8-.3s1-.4 1.2-.8c.6-.8.2-3.3.3-4.2.2-2 .3-4.2.5-6.2.1-1-.2-1.8.6-2.5.4-.3 1.2-.3 1.4-.6.6-.7.3-2 .9-2.8.7-1 1.7-.9 2.2-1.9.8-1.4 1.8-2.4 2.3-3.9.5-1.2.2-3 1-4 .2-.3.8-.3 1.1-.5.7-.6 1-1.3 1.6-1.8 1.7-1.8 2.6-4.1 3.9-6.1.9-1.3 1.2-2.9 1.7-4.4.2-.5.3-.9.5-1.4.2-.4.3-.9.5-1.3.2-.3.9-.3 1-.5.7-1.3.4-2.9.8-4.3.5-1.4 1.5-1.5 2-2.2.4-.6.4-1.8.6-2.5.3-.9.4-.9.8-1.3.3-.3 1.1-.7 1.4-1.3.4-.7.3-1.7.8-2.2.7-.8 1.9-.5 2.9-1.3 1.4-1.1.4-1.1-.4-2.3-.3-.6-.9-1.1-1-1.4-.2-.4-.6-.5-.9-1.4-.2-.6-.2-1.4-.6-1.8-.5-.8-1.2-.8-1.6-1.2-.3-.3-.8-1.3-1.2-1.5s-1.2 0-1.7-.1c-2-.6-1.1-1.8-2-3.3-.2-.3-.8 0-1-.3-.4-.6-.4-1.5-.6-2.1-.4-1.5-.8-2.9-1.2-4.4-.3-1.1-.5-2.2-1.1-3.2-.3-.5-.7-.9-1-1.4-.4-.8-.2-2-.8-2.7-.2-.3-.8-.1-1-.3-.4-.5-.8-1.3-1.1-1.8-.4-.5-.5-.2-.9-1s-.5-1.9-.7-2.8c-.6-2.5-.3-5.5-2.9-7-.2-.1-.6.1-.8 0-.4-.1-.6-.7-.9-.8-.5-.2-1.1-.3-1.6-.5-1.5-.6-2-1.4-2.6-2.8-.6-1.3-.7-2.6-1.1-3.9-.5-1.3-1.3-1.8-2-2.9-3.2-4.5 1-11.7-3.4-15.5-1.8-1.5-4.8-2-5.7-4.1-1.3-2.4-1.2-6-1.6-8.7-.7-5.4-.3-10.8-1.3-16.1-.4-1.9-.9-3.2-1-5.2-.1-3.2-.2-6.4-.2-9.7-.2-7.8-.4-15.5-.5-23.3 0-1.6-.1-3.1-.1-4.6h-1.8c0 1.6-.1 3.1-.1 4.6-.2 7.8-.4 15.5-.5 23.3-.1 3.2-.2 6.4-.2 9.7 0 1.9-.6 3.2-1 5.2-1 5.3-.6 10.8-1.3 16.1-.4 2.6-.3 6.2-1.6 8.7-1.1 2-4.1 2.6-5.8 4.1-4.3 3.8-.4 10.9-3.4 15.5-.7 1.1-1.7 1.7-2 2.9-.5 1.3-.5 2.6-1.1 3.9-.7 1.5-1.2 2.2-2.6 2.8-.5.2-1.2.3-1.6.5s-.6.7-.9.8c-.2.1-.6-.1-.8 0-2.6 1.5-2.3 4.4-2.9 7-.2.9-.3 2-.7 2.8s-.5.5-.9 1c-.3.4-.7 1.3-1.1 1.8-.3.3-.8.1-1 .3-.5.7-.4 1.9-.8 2.7-.2.5-.7.9-1 1.4-.5 1-.7 2.1-1.1 3.2-.4 1.5-.8 2.9-1.2 4.4-.2.6-.2 1.6-.6 2.1-.2.3-.8 0-1 .3-1 1.5 0 2.7-2 3.3-.4.1-1.3-.1-1.7.1s-.9 1.2-1.2 1.5c-.5.4-1.2.4-1.6 1.2-.3.5-.4 1.4-.6 1.8-.2.9-.6 1-.9 1.4-.2.3-.7.8-1 1.4-.7 1.3-1.7 1.3-.4 2.3 1 .8 2.2.5 2.9 1.3.5.6.4 1.6.8 2.2.4.7 1.1 1 1.4 1.3.4.4.5.4.8 1.3.2.7.2 1.9.6 2.5.6.8 1.6 1 2 2.2.5 1.4.2 3 .8 4.3.1.3.8.2 1 .5.2.4.4.9.5 1.3.2.5.4.9.5 1.4.5 1.4.8 3 1.7 4.4 1.3 2 2.2 4.4 3.9 6.1.6.6.9 1.3 1.6 1.8.3.3.9.3 1.1.5.8 1 .5 2.8 1 4 .6 1.5 1.6 2.6 2.3 3.9.6 1.1 1.6 1.1 2.2 1.9s.2 2.1.9 2.8c.2.2 1 .2 1.4.6.8.7.6 1.6.6 2.5.2 2 .3 4.2.5 6.2.1 1-.2 3.4.3 4.2.3.4.9.5 1.2.8.3.2.5 0 .8.3.2.2.2.6.4.9.9.9 1.3 1.4 1.6 2.5.4 1.8.2 3.9.7 5.6.3.9.9 1.7 1.2 2.5.3.9.2 2 .7 2.8.2.4.8.6 1.1 1 .5.7.7 1.8.8 2.7.5 3.5.4 7.2.6 10.7.1 2.4-.3 5 1.3 6.9 1.8 2.2 1.5 5.2 2.1 7.8.6 2.4.8 4.5.9 6.9.3 5.5.6 7.3.8 12.9.5 12.2 1 11 1.8 23.2z" style="fill:#d0d1d6;stroke:#a39cb9;stroke-width:2;stroke-linecap:round;stroke-linejoin:round;stroke-miterlimit:10"/><path d="m77.1 257.5h47" style="fill:none;stroke:#a39cb9;stroke-width:2;stroke-linecap:round;stroke-linejoin:round;stroke-miterlimit:10"/><path d="m77.1 180.6h47" style="fill:none;stroke:#a39cb9;stroke-width:2;stroke-linecap:round;stroke-linejoin:round;stroke-miterlimit:10"/><path d="m54.6 219.7h92.1" style="fill:none;stroke:#a39cb9;stroke-width:2;stroke-linecap:round;stroke-linejoin:round;stroke-miterlimit:10"/><path d="m100.7 374.8v10.2" fill="none" stroke="#ccc" stroke-linecap="round" stroke-linejoin="round" stroke-width=".9735"/><text fill="#ccc" font-family="'RobotoMono-Regular'" font-size="18.4964" transform="translate(94.8081 409.3711)">a</text><path d="m373.5 23.3c.1 2.1.2 4.2.3 6.3.6 11 1 12.5 1.3 23.5.3 8.5 1.3 11 1.5 19.5.3 10.4-.4 12.6 1.6 22.9.4 2.2.7 5.1 1.9 7 .1.2.7.2.9.5.2.2.2.6.3.9.2.4.5 1.1.6 1.6.1.6 0 1.2.1 1.8.3 6.3.5 12.6.8 18.9.1 1.8 1.1 2.9 1.8 4.7 1 2.1 1 4.7 1.7 6.9.7 2.1.6 4.5 1.6 6.5 1 2.1 1.6 3.9 1.8 6.3.3 2.7.5 5.4 1.3 8 .4 1.2.6 2.3.9 3.6.3 1.6.4 1.2 1.5 2.2 2.1 2 2.4 4.4 3.4 7 .3 1 .9 2.3 1.6 3.1.7.7 1.6 1.1 2.4 1.7.9.6 2 1 2.5 1.8.8 1.2.2 3 .8 4.2.5 1 1 1.4 1.2 2.4.3 1.2.2 2.7.7 3.9s1.7 1.7 2.1 2.7c.3.5.2 1.6.6 1.9.3.3.9.4 1.2.6.4.3.5 0 .8.4.2.3.3.9.4 1.2.2.5.2 1.2.6 1.6 1.2 1 1.4.2 1.9 1.8.4 1.1.1 3.2 1 3.9.8.7 1.8.4 2.6 1.4.2.3 1.3 1.5 1.3 1.6.1.2.8.2.5 1s-2.1 1-2.8 1.5c-.8.5-2.1 1.2-2.8 1.8-.8.7-1.2 1.8-1.9 2.5-1.8 1.6-3.4 2.4-4.4 4.6-.2.5-.4 1.4-.8 1.8-.5.6-.3.1-1 .6-.8.5-1.9.8-2.6 1.3-1.2.9-1.3 1-2.7 1.5-1.1.3-1.6.6-2.1 1.5-1.4 1.9-3.4 3.6-4.8 5.6-.4.6-.5 1.2-.9 1.7-.3.3-1.4.6-1.6.9-.6.8-.5 2.2-.9 3.2-.7 1.7-1 1.2-2.5 1.6-1.6.4-1.4.9-1.7 2.3-.4 1.7-.6 1.5-2.1 2.2-.9.5-1.9 1.5-2.9 1.7-.8.3-2.2 0-2.7.5-.7.7-.5 3-.8 3.9-.2.6-.3 1.2-.7 1.7-.2.3-1.1.7-1.2.8-.6.9-.8 2.2-1.1 3.3h-1.8c-.3-1.1-.5-2.4-1.1-3.3-.1-.1-.9-.5-1.2-.8-.5-.5-.6-1.1-.7-1.7-.3-.9-.1-3.3-.8-3.9-.6-.6-2-.3-2.7-.5-.9-.3-2-1.3-2.9-1.7-1.6-.8-1.7-.6-2.1-2.2-.4-1.5-.1-2-1.7-2.3-1.6-.4-1.8.1-2.5-1.6-.4-.9-.3-2.4-.9-3.2-.2-.3-1.3-.6-1.6-.9-.5-.5-.6-1.1-.9-1.7-1.4-2-3.3-3.7-4.8-5.6-.6-.9-1.2-1.2-2.1-1.5-1.5-.4-1.6-.6-2.7-1.5-.7-.5-1.9-.8-2.6-1.3s-.5 0-1-.6c-.4-.4-.6-1.3-.8-1.8-1-2.2-2.4-3-4.3-4.6-.8-.7-1.2-1.8-1.9-2.5-.7-.6-1.9-1.3-2.8-1.8-.7-.5-2.5-.7-2.8-1.5s.4-.8.5-1c.1-.1 1.1-1.4 1.3-1.6.8-1 1.8-.7 2.6-1.4.9-.7.6-2.8 1-3.9.6-1.6.8-.7 1.9-1.8.4-.3.4-1.1.6-1.6.1-.3.2-1 .4-1.2.3-.4.4 0 .8-.4.2-.2.9-.3 1.2-.6.4-.4.4-1.5.6-1.9.5-1.1 1.7-1.6 2.1-2.7s.4-2.6.7-3.9c.3-1.2.7-1.5 1.2-2.4.6-1.3.1-3 .8-4.2.5-.8 1.7-1.3 2.5-1.8.9-.6 1.8-1 2.4-1.7.8-.8 1.3-2.1 1.6-3.1.9-2.7 1.2-5 3.4-7 1.1-1 1.2-.7 1.5-2.2.3-1.2.5-2.4.9-3.6.8-2.6 1-5.3 1.3-8 .3-2.3.9-4.1 1.8-6.3.9-2 .8-4.4 1.6-6.5.7-2.2.8-4.9 1.7-6.9.8-1.7 1.8-2.8 1.8-4.7.3-6.3.5-12.6.8-18.9 0-.6 0-1.2.1-1.8.1-.5.4-1.2.6-1.6.1-.2.2-.6.3-.9.2-.3.7-.2.9-.5 1.3-1.9 1.6-4.8 1.9-7 1.9-10.3 1.3-12.5 1.6-22.9.2-8.5 1.2-11 1.5-19.5.4-11 .8-12.6 1.3-23.5.1-2.1.2-4.2.3-6.3z" style="fill:#d0d1d6;stroke:#a39cb9;stroke-width:2;stroke-linecap:round;stroke-linejoin:round;stroke-miterlimit:10"/><path d="m349.1 224.7h47" style="fill:none;stroke:#a39cb9;stroke-width:2;stroke-linecap:round;stroke-linejoin:round;stroke-miterlimit:10"/><path d="m349.1 169.4h47" style="fill:none;stroke:#a39cb9;stroke-width:2;stroke-linecap:round;stroke-linejoin:round;stroke-miterlimit:10"/><path d="m326.6 205.5h92" style="fill:none;stroke:#a39cb9;stroke-width:2;stroke-linecap:round;stroke-linejoin:round;stroke-miterlimit:10"/><path d="m372.6 374.8v10.2" fill="none" stroke="#ccc" stroke-linecap="round" stroke-linejoin="round" stroke-width=".9735"/><text fill="#ccc" font-family="'RobotoMono-Regular'" font-size="18.4964" transform="translate(367.1931 409.3711)">c</text><path d="m509.5 337.4c.3-10.3.2-20.7.9-31.1.3-4.6.8-9.6 1.8-14.1.4-1.9 1.2-4.5 1.9-6.3.3-.7.8-1.2 1-1.9.4-1.5.3-3.2.4-4.7.2-2.7.3-4.5 1.7-6.8.7-1.3.9-1.7 2.3-2.2 1.1-.4 2.3-.5 3-1.6 1.2-1.9.8-5.1 1.8-7.3.4-1 1-1.9 1.4-2.9.7-1.8 1.2-1.3 2.2-2.6.8-1 .9-1.3 2-1.8 1-.5 2-.7 2.8-1.6s.9-1.8 1.8-2.6c1-1 1.7-1.7 2.4-2.8.5-.8 1.4-2.3 2-2.9.8-.7 2-.2 2.8-.8.4-.3.5-1.1.8-1.5.4-.4.9-.5 1.3-.8 1.2-.8 1.5-1.5 2.4-2.4.3-.3.9-.2 1.1-.4.4-.5.4-1.4.5-1.9.4-1.3 1.1-2.1 1.8-3.2s1.3-1.3 2.6-1.6c1.5-.3 1.8.2 2.3-1 1.1-2.9-2.5-3.4-4.2-4.9-1.6-1.5-3.2-2.6-5.1-3.7-.6-.3-2.5-.9-2.7-1.1-.9-.9-.1-3-.9-3.9-1-1.2-4.1-.8-5.5-1.4-.4-.2-2.2-1.7-2.5-2-.7-.9-.6-2.6-.8-3.8-.3-2.2-.4-5-1.3-7-.2-.4-.5-1-.9-1.4-.3-.3-.8 0-1.1-.3-1-.8-1.8-1.9-2.1-3-.5-1.1-.6-2.5-1.2-3.5-.7-1.2-1.1-.8-1.5-2.2-.4-1.2-.4-2.3-1-3.5-.7-1.3-1.5-1.6-1.8-2.9-.4-1.1-.6-2.6-1.3-3.6-.5-.7-1.7-1.1-2-1.8-.5-.9-.2-2.7-.3-3.8-.2-1.8-.3-3.5-.5-5.2-.2-1.8-.3-3.8-.5-5.6-.1-1.7-.3-3.2-.4-4.9 0-.5.1-1.3-.1-1.8-.2-.3-.6-.5-.7-.8-1-2.1-.8-4.9-1.8-7.2-.8-1.8-2-2.8-2.2-4.5-.5-3.2-.4-6.5-.6-9.7-.3-4.4-.5-8.8-.7-13.1-.5-10.7-.9-21.4-1.3-32-.1-1.8-.1-3.5-.2-5.2h-1.8c-.1 1.8-.1 3.5-.2 5.2-.4 10.7-.9 21.4-1.3 32-.2 4.4-.4 8.8-.7 13.1-.2 3.2-.1 6.5-.6 9.7-.3 1.7-1.6 2.6-2.2 4.5-1 2.3-.8 5.1-1.8 7.2-.1.3-.6.5-.7.8-.2.5-.1 1.3-.1 1.8-.1 1.7-.3 3.2-.4 4.9-.2 1.8-.3 3.8-.5 5.6s-.3 3.5-.5 5.2c-.1 1 .2 2.8-.3 3.8-.4.8-1.5 1.1-2 1.8-.8 1-1 2.4-1.4 3.6-.5 1.4-1.3 1.7-1.8 2.9-.6 1.2-.6 2.3-1 3.5-.5 1.5-.8 1.1-1.5 2.2-.6 1-.7 2.4-1.2 3.5-.4 1.1-1.2 2.2-2.1 3-.3.3-.8 0-1.1.3s-.7.9-.9 1.4c-.9 2.1-1 4.8-1.3 7-.2 1.2-.1 2.8-.8 3.8-.3.4-2.1 1.8-2.5 2-1.5.6-4.6.2-5.5 1.4-.8 1 0 3-.9 3.9-.2.2-2.2.7-2.8 1.1-1.8 1.2-3.5 2.3-5.1 3.7-1.6 1.5-5.3 2-4.2 4.9.4 1.2.8.8 2.3 1 1.4.2 1.8.5 2.6 1.6.9 1.1 1.6 1.9 1.8 3.2.2.6.2 1.5.5 1.9.2.2.8.1 1.1.4.9 1 1.3 1.7 2.4 2.4.5.3.9.4 1.3.8s.4 1.2.8 1.5c.8.6 2 .2 2.8.8.7.6 1.6 2.1 2 2.9.8 1.2 1.5 1.8 2.4 2.8.9.9 1.1 1.8 1.8 2.6.8.9 1.8 1.1 2.8 1.6 1.1.5 1.2.8 1.9 1.8 1.1 1.4 1.6.9 2.2 2.6.4 1 1 1.9 1.4 2.9 1 2.1.6 5.4 1.8 7.3.7 1.1 1.9 1.2 3 1.6 1.5.6 1.6 1 2.2 2.2 1.4 2.3 1.4 4.1 1.7 6.8.1 1.5 0 3.2.4 4.7.2.8.7 1.3 1 1.9.8 1.8 1.6 4.4 1.9 6.3.9 4.6 1.5 9.5 1.8 14.1.7 10.3.6 20.7 1 31.1z" style="fill:#d0d1d6;stroke:#a39cb9;stroke-width:2;stroke-linecap:round;stroke-linejoin:round;stroke-miterlimit:10"/><path d="m485.2 252.9h46.9" style="fill:none;stroke:#a39cb9;stroke-width:2;stroke-linecap:round;stroke-linejoin:round;stroke-miterlimit:10"/><path d="m485.2 205.1h46.9" style="fill:none;stroke:#a39cb9;stroke-width:2;stroke-linecap:round;stroke-linejoin:round;stroke-miterlimit:10"/><path d="m462.6 230.1h92.1" style="fill:none;stroke:#a39cb9;stroke-width:2;stroke-linecap:round;stroke-linejoin:round;stroke-miterlimit:10"/><text fill="#ccc" font-family="'RobotoMono-Regular'" font-size="18.4964" transform="translate(503.3371 409.3711)">e</text><path d="m508.9 374.8v10.2" fill="none" stroke="#ccc" stroke-linecap="round" stroke-linejoin="round" stroke-width=".9735"/><path d="m645.3 308.8c1.8-.9 1.2-3.2 1.8-4.7.8-1.8 1.3-3 1.6-5.1.3-1.9 1.3-1.8 2.8-2.8 1.7-1.1 1.5-2.6 1.8-4.4s.7-2.4 2.3-3.2c1.5-.7 2.7-1.8 3.6-3 .5-.7.7-1.5 1.3-2.1.5-.7 1.3-1.2 1.8-1.8 1.2-1.3 2-2.1 2.8-3.6.9-1.5 1.8-1.1 3.6-1.4 2.3-.4 1.9-1 3.2-2.5s2.7-1.4 3.5-3c.6-1.4 1-2.9 1.7-4.3.6-1.2.5-.6 1.4-1.3s1-1.1 1.8-1.9c.4-.5.8-.3 1.2-.9.6-.9.2-2.3.8-3.3.7-1.2 2.2-1.6 3.5-2.1.9-.5.8-.2 1.3-.9.6-.9.5-2.4.8-3.5 1.7-5.6 2.8-11.9 2.8-17.7 0-4.9 0-9.6 0-14.5 0-1 .4-2.9 0-3.8-.2-.3-.9-.7-1.2-1-.5-.6-1.2-1.6-1.5-2.3-1.2-2.9-.8-6.6-1.4-9.7-.2-.9-.2-2.4-.7-3.1-.3-.5-1.1-.7-1.6-1.3-1.2-1.4-1.3-3.3-2-4.9-.7-1.5-1.7-2.3-2.8-3.3s-2.8-1.3-3.8-2.3c-1.1-1.1-1.6-2.8-2.7-3.8-.2-.2-.8.1-1 0-.4-.3-.5-.9-.9-1.2-.6-.5-1.4-.9-2-1.3-.8-.4-1.1-.2-1.8-1.2s-.7-1.4-1.6-1.9c-1.3-.7-2.5-.9-3.9-1.4-1.8-.7-1.9-2.2-2.6-3.9-.6-1.4-1.7-2.5-2.1-4-.8-2-.9-2.8-2.4-4.5-.6-.6-1.2-1-1.8-1.4-.5-.5-1.5-.8-1.8-1.2-1.1-.9-1.9-2.3-2.3-3.6-.3-.9-.1-2.2-.6-3.1-.3-.5-.8-.7-1.1-1.2-1-1.7-.4-3.3-1.8-4.9h-1.8c-1.5 1.5-.9 3.2-1.8 4.9-.3.5-.8.7-1.1 1.2-.5.9-.4 2.1-.6 3.1-.4 1.3-1.3 2.7-2.3 3.6-.4.3-1.4.7-1.8 1.2-.6.5-1.2.9-1.8 1.4-1.6 1.6-1.7 2.4-2.4 4.5-.5 1.5-1.6 2.7-2.2 4.2-.7 1.7-.9 3.1-2.7 3.8-1.4.5-2.6.7-3.8 1.4-1 .5-1 1-1.6 1.9-.7 1.1-.9.7-1.8 1.2-.7.4-1.5.7-2 1.3-.3.3-.4.8-.8 1.1-.2.2-.7 0-.9.2-1.2 1-1.8 2.6-2.8 3.7-.4.4-1.4 1-1.9 1.3-.7.4-1.1.5-1.8 1.1-1.2.9-2.1 1.8-2.8 3.1-.8 1.6-.9 3.5-1.9 5-.5.7-1.4.9-1.8 1.3-.5.7-.5 2.1-.6 3-.7 3.1-.2 6.8-1.3 9.8-.3.7-.9 1.8-1.5 2.3-.3.3-1.1.9-1.3 1.1-.4.9 0 2.7 0 3.6v14.2c0 6.1 1.1 12.4 2.8 18.2.3 1 .2 2.3.7 3.3s.2.4 1.2 1c1.2.7 2.9 1 3.6 2.1.6.9.2 2.2.7 3.2.5.8.6.4 1.2 1 .8.9.9 1.3 1.8 2s.7 0 1.4 1.3c.7 1.4 1 2.9 1.7 4.3.7 1.7 2.1 1.6 3.3 3 1.3 1.5.9 2.1 3.1 2.6 1.8.4 2.9-.2 3.8 1.4 1.5 2.5 4.1 4.7 5.8 7.2.9 1.4 2.1 2.4 3.7 3.2 1.7.9 1.9 1.5 2.3 3.2.4 1.8.2 3.3 1.8 4.4.5.4 1.3.6 1.8 1.1.7.7.6.3.9 1.5s.2 2.5.7 3.7c.2.6.7 1.1 1 1.7.7 1.5.1 3.8 1.8 4.7h1.8z" style="fill:#d0d1d6;stroke:#a39cb9;stroke-width:2;stroke-linecap:round;stroke-linejoin:round;stroke-miterlimit:10"/><path d="m621 277h46.9" style="fill:none;stroke:#a39cb9;stroke-width:2;stroke-linecap:round;stroke-linejoin:round;stroke-miterlimit:10"/><path d="m621 182.2h46.9" style="fill:none;stroke:#a39cb9;stroke-width:2;stroke-linecap:round;stroke-linejoin:round;stroke-miterlimit:10"/><path d="m598.4 228h92.1" style="fill:none;stroke:#a39cb9;stroke-width:2;stroke-linecap:round;stroke-linejoin:round;stroke-miterlimit:10"/><path d="m644.8 374.8v10.2" fill="none" stroke="#ccc" stroke-linecap="round" stroke-linejoin="round" stroke-width=".9735"/><text fill="#ccc" font-family="'RobotoMono-Regular'" font-size="18.4964" transform="translate(638.8973 409.3711)">d</text><path d="m242.7 374.8v10.2" fill="none" stroke="#ccc" stroke-linecap="round" stroke-linejoin="round" stroke-width=".9735"/><text fill="#ccc" font-family="'RobotoMono-Regular'" font-size="18.4964" transform="translate(237.1512 409.3711)">b</text><path d="m237.6 302.5c.3-11.1.2-6.6.9-17.7.3-5 .8-3.6 1.8-8.5.4-2 1.2-4.8 1.9-6.7.3-.8.8-1.3 1-2 .4-1.6.3-3.4.4-5.1.2-2.9.3-4.9 1.7-7.3.7-1.4.9-1.8 2.3-2.4 1.1-.5 2.3-.5 3-1.8 1.2-2 .8-3.2 1.8-5.5.4-1.1 1-2 1.4-3.1.7-1.8 1.2-1.4 2.2-2.7.8-1.1.9-1.4 2-1.8 1-.5 2-.7 2.8-1.7.8-.9.9-1.9 1.8-2.8 1-1.1 1.7-1.8 2.4-3.1.5-.8 1.4-2.5 2-3.1.8-.7 2-.3 2.8-.9.4-.3.5-1.2.8-1.6.4-.4.9-.5 1.3-.8 1.2-.8 1.5-1.6 2.4-2.5.3-.3.9-.2 1.1-.4.4-.5.4-1.5.5-2 .4-1.4 1.1-2.3 1.8-3.5.8-1.1 1.3-1.4 2.6-1.7 1.5-.3 1.8.2 2.3-1.1 1.1-3.1-2.5-3.7-4.2-5.3-1.6-1.6-3.2-2.8-5.1-4-.6-.4-2.5-.9-2.7-1.2-.9-1-.1-3.2-.9-4.2-1-1.3-4.1-.9-5.5-1.5-.4-.2-2.2-1.8-2.5-2.1-.7-1-.6-2.8-.8-4-.3-2.4-.4-5.3-1.3-7.6-.2-.4-.5-1.1-.9-1.5-.3-.3-.8 0-1.1-.3-1-.9-1.8-2.1-2.1-3.2-.5-1.2-.6-2.7-1.2-3.8-.7-1.3-1.1-.9-1.5-2.3-.4-1.3-.4-4.6-1-5.8-.7-1.4-1.5-1.7-1.8-3.1-.4-1.2-.6-4.9-1.3-5.9-.5-.8-1.7-1.2-2-1.9-.5-1-.2-2.9-.3-4.1-.2-1.8-.3-3.7-.5-5.5-.2-2-.3-4.1-.5-6.1-.1-1.8-.3-3.5-.4-5.3 0-.5.1-1.4-.1-1.8-.2-.3-.6-.5-.7-.8-1-2.3-.8-5.3-1.8-7.7-.8-1.8-2-3-2.2-4.8-.5-3.4-.4-7-.6-10.4-.3-4.7-.5-9.3-.7-14-.5-11.5-.9-22.9-1.3-34.4-.1-1.8-.1-1.7-.2-3.5h-1.8c-.1 1.8-.1 1.7-.2 3.5-.4 11.5-.9 22.9-1.3 34.4-.2 4.7-.4 9.3-.7 14-.2 3.4-.1 7-.6 10.4-.3 1.8-1.6 2.8-2.2 4.8-1 2.4-.8 5.4-1.8 7.7-.1.3-.6.5-.7.8-.2.5-.1 1.4-.1 1.8-.1 1.8-.3 3.5-.4 5.3-.2 2-.3 4.1-.5 6.1-.2 1.8-.3 3.7-.5 5.5-.1 1.1.2 3-.3 4.1-.4.8-1.5 1.2-2 1.9-.8 1.1-1 4.7-1.4 5.9-.5 1.5-1.3 1.8-1.8 3.1-.6 1.2-.6 4.6-1 5.8-.5 1.6-.8 1.1-1.5 2.3-.6 1.1-.7 2.6-1.2 3.8-.4 1.2-1.2 2.4-2.1 3.2-.3.3-.8 0-1.1.3s-.7 1-.9 1.5c-.9 2.2-1 5.2-1.3 7.6-.2 1.3-.1 3-.8 4-.3.4-2.1 1.9-2.5 2.1-1.5.7-4.6.2-5.5 1.5-.8 1 0 3.3-.9 4.2-.2.2-2.2.8-2.8 1.2-1.8 1.2-3.5 2.4-5.1 4s-5.3 2.1-4.2 5.3c.4 1.3.8.8 2.3 1.1 1.4.3 1.8.5 2.6 1.7.9 1.2 1.6 2 1.8 3.5.2.6.2 1.6.5 2 .2.3.8.2 1.1.4.9 1.1 1.3 1.8 2.4 2.5.5.3.9.4 1.3.8s.4 1.2.8 1.6c.8.6 2 .2 2.8.9.7.6 1.6 2.3 2 3.1.8 1.3 1.5 2 2.4 3.1.9.9 1.1 1.8 1.8 2.8.8 1 1.8 1.2 2.8 1.7 1.1.6 1.2.9 1.9 1.8 1.1 1.5 1.6.9 2.2 2.7.4 1.1 1 2 1.4 3.1 1 2.3.6 3.5 1.8 5.5.7 1.2 1.9 1.3 3 1.8 1.5.6 1.6 1.1 2.2 2.4 1.4 2.5 1.4 4.4 1.7 7.3.1 1.6 0 3.4.4 5.1.2.8.7 1.4 1 2 .8 1.9 1.6 4.7 1.9 6.7.9 4.9 1.5 3.6 1.8 8.5.7 11 .6 6.6 1 17.7z" style="fill:#d0d1d6;stroke:#a39cb9;stroke-width:2;stroke-linecap:round;stroke-linejoin:round;stroke-miterlimit:10"/><path d="m213.2 236.5h46.9" style="fill:none;stroke:#a39cb9;stroke-width:2;stroke-linecap:round;stroke-linejoin:round;stroke-miterlimit:10"/><path d="m213.2 185.1h46.9" style="fill:none;stroke:#a39cb9;stroke-width:2;stroke-linecap:round;stroke-linejoin:round;stroke-miterlimit:10"/><path d="m190.6 212h92.1" style="fill:none;stroke:#a39cb9;stroke-width:2;stroke-linecap:round;stroke-linejoin:round;stroke-miterlimit:10"/><path d="m1189.1 365.1c.8-8.7 1.3-7.9 1.8-16.5.2-4 .5-5.3.8-9.2.1-1.7.3-3.2.9-4.9.7-1.9.4-4 2.1-5.6 1.6-1.4 1.2-3.2 1.3-4.9.2-2.5.1-5.1.6-7.6.1-.6.3-1.5.8-1.9.3-.3.9-.4 1.1-.7.5-.6.4-1.4.7-2s.9-1.2 1.2-1.8c.5-1.3.3-2.7.7-4 .3-.8.7-1.2 1.6-1.8.2-.2.2-.5.4-.6.3-.2.5-.1.8-.2.3-.2.9-.3 1.2-.6.5-.6.2-2.3.3-3 .2-1.5.3-3 .5-4.4 0-.7-.2-1.3.6-1.8.4-.3 1.2-.3 1.4-.4.7-.5.3-1.5.9-2 .7-.6 1.7-.6 2.2-1.4.8-.9 1.8-1.7 2.3-2.8.5-.8.2-2.2 1-2.8.2-.1.8-.1 1.1-.3.7-.4 1-.9 1.6-1.3 1.7-1.3 2.6-2.9 3.9-4.4.9-1 1.2-2.2 1.7-3.1.1-.3.3-.6.5-1 .1-.3.3-.6.5-.9.2-.2.9-.1 1-.3.6-.9.3-2.1.8-3.1.5-.9 1.5-1 2-1.6.4-.4.4-1.3.6-1.8.3-.6.4-.6.8-.9.3-.2 1-.4 1.4-.9s.3-1.2.8-1.6c.7-.6 1.9-.3 2.9-.9 1.3-.8.3-.8-.4-1.7-.3-.4-.8-.8-1-1-.3-.3-.7-.3-.9-1-.2-.3-.3-1-.6-1.3-.4-.6-1.1-.6-1.6-.8-.3-.2-.8-.9-1.2-1s-1.3 0-1.7-.1c-2-.4-1.1-1.3-2-2.4-.2-.2-.8 0-1-.2-.4-.4-.4-1.1-.6-1.5-.4-1-.8-2.1-1.2-3.1-.4-.8-.6-1.6-1.1-2.3-.3-.3-.8-.6-1-1-.4-.6-.3-1.5-.8-1.9-.2-.1-.7 0-1-.2-.4-.3-.8-1-1.1-1.3-.4-.3-.5-.1-.9-.7s-.5-1.4-.7-2c-.6-1.9-.3-4-2.9-5-.2-.1-.6.1-.8 0-.3-.1-.5-.4-.9-.6-.4-.1-1.1-.2-1.6-.3-1.5-.4-1.9-1-2.6-2-.6-.9-.6-1.9-1.1-2.8-.4-.9-1.4-1.3-2-2.1-3-3.3.9-8.3-3.4-11.1-1.8-1-4.8-1.5-5.8-2.9-1.3-1.7-1.2-4.3-1.6-6.2-.7-3.8-.3-7.7-1.3-11.5-.4-1.4-1-2.3-1-3.7 0-2.4-.1-4.7-.2-7-.1-5.6-.3-11.1-.5-16.6 0-1-.1-2.2-.1-3.3h-1.8c0 1-.1 2.2-.1 3.3-.1 5.6-.3 11.1-.5 16.6 0 2.4-.1 4.7-.2 7-.1 1.4-.6 2.3-1 3.7-1 3.8-.6 7.6-1.3 11.5-.4 1.9-.3 4.4-1.6 6.2-1 1.5-4 1.9-5.7 2.9-4.4 2.7-.2 7.9-3.4 11.1-.8.8-1.6 1.2-2 2.1s-.5 1.9-1.1 2.8c-.6 1-1.2 1.6-2.6 2-.5.1-1.1.2-1.6.3-.3.1-.5.5-.9.6-.2.1-.6-.1-.8 0-2.6 1-2.3 3.2-2.9 5-.2.6-.3 1.5-.7 2-.4.6-.5.3-.9.7-.3.3-.7.9-1.1 1.3-.2.1-.8 0-1 .2-.6.5-.4 1.4-.8 1.9-.3.3-.7.6-1 1-.6.7-.8 1.5-1.1 2.3-.4 1-.8 2.1-1.2 3.1-.2.5-.2 1.1-.6 1.5-.2.2-.8 0-1 .2-1 1.1 0 1.9-2 2.4-.5.1-1.3-.1-1.7.1-.4.1-.9.8-1.2 1-.4.3-1.1.3-1.6.8-.4.3-.4.9-.6 1.3-.3.6-.7.7-.9 1-.1.2-.7.6-1 1-.8.9-1.8.9-.4 1.7 1 .6 2.2.3 2.9.9.5.4.4 1.1.8 1.6.3.4 1.1.7 1.4.9.4.3.5.3.8.9.2.5.2 1.4.6 1.8.6.6 1.6.6 2 1.6s.1 2.2.8 3.1c.1.1.8.1 1 .3.2.3.3.6.5.9s.3.6.5 1c.5 1 .8 2.2 1.7 3.1 1.3 1.5 2.2 3.1 3.9 4.4.6.4.9.9 1.6 1.3.3.1.9.1 1.1.3.8.7.5 2 1 2.8.6 1 1.6 1.8 2.3 2.8.6.8 1.6.7 2.2 1.4.6.6.3 1.5.9 2 .2.2 1 .2 1.4.4.8.5.5 1.1.6 1.8.2 1.5.3 3 .5 4.4.1.6-.3 2.4.3 3 .2.3.9.3 1.2.6.3.2.6.1.8.2.2.2.2.5.4.6 1 .7 1.3 1 1.6 1.8.4 1.3.1 2.7.7 4 .3.6.9 1.1 1.2 1.8.3.6.2 1.5.7 2 .2.3.8.4 1.1.7.5.6.7 1.3.8 1.9.5 2.5.4 5.1.6 7.6.2 1.7-.3 3.5 1.3 4.9 1.8 1.6 1.5 3.7 2.1 5.6.6 1.7.8 3.2.9 4.9.3 4 .6 5.3.8 9.2.5 8.7 1 7.9 1.8 16.5z" style="fill:#d0d1d6;stroke:#a39cb9;stroke-width:2;stroke-linecap:round;stroke-linejoin:round;stroke-miterlimit:10"/><path d="m1165 288.3h47" style="fill:none;stroke:#a39cb9;stroke-width:1.2339;stroke-linecap:round;stroke-linejoin:round;stroke-miterlimit:10"/><path d="m1165 233.4h47" style="fill:none;stroke:#a39cb9;stroke-width:1.2339;stroke-linecap:round;stroke-linejoin:round;stroke-miterlimit:10"/><path d="m1142.4 261.3h92.1" style="fill:none;stroke:#a39cb9;stroke-width:1.2339;stroke-linecap:round;stroke-linejoin:round;stroke-miterlimit:10"/><path d="m1188.4 385v-10.2" fill="none" stroke="#ccc" stroke-linecap="round" stroke-linejoin="round" stroke-width=".9735"/><text fill="#ccc" font-family="'RobotoMono-Regular'" font-size="18.4964" transform="translate(1184 409.3711)">h</text><text fill="#ccc" font-family="'RobotoMono-Regular'" font-size="18.4964" transform="translate(775.4711 409.3711)">e</text><g stroke-linecap="round" stroke-linejoin="round"><path d="m781.6 264c.4-8.7.3-17.4 1-26.1.3-3.8.9-8 1.8-11.9.4-1.6 1.2-3.8 1.9-5.3.3-.6.8-1 1-1.6.4-1.2.3-2.7.4-3.9.3-2.3.3-3.8 1.7-5.7.7-1.1.8-1.4 2.2-1.9 1.1-.3 2.3-.4 3-1.3 1.2-1.6.8-4.3 1.8-6.1.4-.8 1-1.6 1.4-2.5.7-1.5 1.2-1.1 2.2-2.2.8-.8.9-1.1 1.9-1.5s2-.6 2.8-1.3c.7-.7.9-1.5 1.8-2.2 1-.8 1.7-1.4 2.4-2.4.5-.7 1.4-2 2-2.5.8-.5 2-.2 2.8-.7.4-.2.4-.9.8-1.2s.8-.4 1.3-.7c1.2-.7 1.6-1.2 2.4-2 .3-.2.9-.2 1.1-.3.3-.4.3-1.1.5-1.6.3-1.1 1-1.8 1.8-2.7s1.3-1.1 2.6-1.3c1.6-.2 1.9.2 2.3-.8 1.1-2.4-2.6-2.9-4.2-4.1-1.6-1.1-3.2-2.1-5.1-3.1-.6-.3-2.6-.7-2.8-.9-.9-.7-.1-2.5-.9-3.3-1-1-4.1-.7-5.5-1.1-.4-.2-2.2-1.4-2.5-1.7-.7-.8-.6-2.2-.8-3.2-.3-1.9-.4-4.1-1.3-5.9-.2-.4-.6-.9-.9-1.1s-.8 0-1.1-.2c-1-.7-1.8-1.6-2.1-2.5-.5-.9-.6-2.1-1.2-2.9-.7-1-1-.7-1.5-1.9-.4-1-.4-2-1-2.9-.6-1.1-1.4-1.3-1.8-2.5-.4-1-.6-2.2-1.4-3-.6-.6-1.7-.8-2-1.5-.5-.8-.2-2.4-.3-3.2-.2-1.4-.3-2.9-.5-4.3-.2-1.6-.3-3.2-.5-4.7-.1-1.4-.3-2.7-.4-4.1 0-.4.1-1.1-.1-1.5-.1-.2-.6-.4-.7-.7-1-1.8-.8-4.1-1.8-6.1-.7-1.6-1.9-2.4-2.2-3.8-.5-2.7-.4-5.5-.6-8.2-.3-3.7-.5-7.4-.7-11-.4-8.9-.9-17.9-1.3-26.9-.1-1.4-.1-2.9-.2-4.3h-1.8c-.1 1.4-.1 2.9-.2 4.3-.4 8.9-.8 17.9-1.3 26.9-.2 3.7-.4 7.4-.7 11-.2 2.7-.1 5.5-.6 8.2-.2 1.4-1.5 2.3-2.2 3.8-1 2-.8 4.3-1.8 6.1-.1.2-.5.4-.7.7-.2.4-.1 1.1-.1 1.5-.1 1.4-.3 2.7-.4 4.1-.2 1.6-.3 3.2-.5 4.7-.2 1.4-.3 2.9-.5 4.3-.1.9.2 2.5-.3 3.2-.4.6-1.6.9-2 1.5-.7.8-.9 2.1-1.3 3-.4 1.1-1.2 1.4-1.8 2.5-.6 1-.6 2-1 2.9-.4 1.2-.8.9-1.5 1.9-.6.8-.7 2-1.2 2.9-.4.9-1.2 1.9-2.1 2.5-.3.2-.8 0-1.1.2-.4.3-.7.8-.9 1.1-.9 1.7-1 4-1.3 5.9-.2 1-.1 2.5-.8 3.2-.3.3-2.1 1.6-2.5 1.7-1.5.5-4.6.2-5.5 1.1-.8.7 0 2.5-.9 3.3-.2.2-2.1.7-2.7.9-1.8.9-3.5 1.9-5.1 3.1-1.7 1.2-5.3 1.6-4.2 4.1.5 1 .9.6 2.3.8s1.8.4 2.6 1.3 1.5 1.6 1.8 2.7c.1.5.1 1.2.5 1.6.2.2.8.1 1.1.3 1 .8 1.3 1.4 2.4 2 .4.2.9.3 1.3.7.3.3.4 1 .8 1.2.8.5 2 .1 2.8.7.7.5 1.6 1.8 2 2.5.8 1 1.5 1.6 2.4 2.4.9.7 1 1.5 1.8 2.2s1.8.9 2.8 1.3c1.2.4 1.3.7 2 1.5 1.1 1.1 1.6.7 2.2 2.2.4.8 1 1.6 1.4 2.5 1 1.9.6 4.5 1.8 6.1.7.9 1.9 1 3 1.3 1.5.5 1.7.8 2.3 1.9 1.4 2 1.5 3.4 1.7 5.7.1 1.2 0 2.7.4 3.9.2.7.7 1.1 1 1.6.8 1.6 1.6 3.7 1.9 5.3 1 3.8 1.5 8 1.8 11.9.7 8.7.6 17.4.9 26.1z" fill="#d0d1d6" stroke="#a39cb9" stroke-miterlimit="10" stroke-width="2"/><path d="m757 193h46.9" fill="none" stroke="#a39cb9" stroke-miterlimit="10" stroke-width="1.3383"/><path d="m757 152.9h46.9" fill="none" stroke="#a39cb9" stroke-miterlimit="10" stroke-width="1.3383"/><path d="m734.4 173.9h92.1" fill="none" stroke="#a39cb9" stroke-miterlimit="10" stroke-width="1.3383"/><path d="m780.2 385v-10.2" fill="none" stroke="#ccc" stroke-width=".9735"/><path d="m917.2 23.3c.1 2.6.2 5 .3 7.6.5 13.1.9 14.9 1.3 28.1.3 10.1 1.3 13.2 1.5 23.3.3 12.5-.4 15 1.6 27.4.4 2.7.7 6.1 1.9 8.4.2.3.7.2.9.6.1.3.2.8.3 1 .2.5.5 1.3.6 1.9.1.7.1 1.4.1 2.1.3 7.6.5 15 .8 22.6.1 2.2 1.1 3.6 1.8 5.6.9 2.4 1 5.6 1.7 8.3.8 2.6.7 5.4 1.6 7.8.9 2.7 1.5 4.8 1.8 7.6.3 3.3.5 6.4 1.3 9.6.4 1.4.6 2.9.9 4.3.3 1.9.4 1.5 1.5 2.7 2.2 2.4 2.5 5.1 3.4 8.4.3 1.2.8 2.8 1.6 3.7.7.8 1.6 1.3 2.4 2 .9.6 2 1.2 2.5 2.1.7 1.4.2 3.5.8 5 .5 1.2.9 1.5 1.2 2.9.3 1.5.2 3.3.7 4.7s1.7 2 2.1 3.3c.2.6.2 1.9.6 2.3.3.3 1 .5 1.2.7.4.5.5 0 .8.5.2.2.3 1 .4 1.4.2.6.2 1.5.6 1.9 1.2 1.3 1.4.2 1.9 2.1.4 1.3.1 3.8 1 4.7.8.8 1.8.5 2.6 1.6.2.2 1.2 1.7 1.3 1.9s.8.2.5 1.2c-.3.9-2.1 1.2-2.8 1.7-.9.7-2.1 1.5-2.8 2.2-.8.9-1.2 2.2-1.9 3-1.8 1.9-3.3 2.8-4.3 5.5-.2.7-.4 1.7-.8 2.2-.5.7-.3.1-1 .7s-1.9.9-2.6 1.5c-1.2 1-1.3 1.3-2.7 1.7-1 .3-1.6.7-2.1 1.7-1.5 2.3-3.4 4.3-4.8 6.8-.3.7-.4 1.4-.9 2-.3.3-1.4.7-1.6 1-.6.9-.5 2.8-.9 3.8-.8 2-1 1.4-2.5 1.9-1.6.3-1.3 1-1.7 2.8-.5 2-.6 1.7-2.1 2.7-.9.5-2 1.6-2.9 2-.7.2-2.1-.1-2.7.6-.7.7-.5 3.6-.8 4.7-.1.7-.2 1.4-.7 2-.3.4-1.1.8-1.2.9-.6 1-.8 2.7-1.1 4h-1.8c-.3-1.3-.5-2.9-1.1-4-.1-.1-1-.6-1.2-.9-.4-.6-.5-1.3-.7-2-.3-1-.1-3.8-.8-4.7-.5-.6-1.9-.2-2.7-.6-1-.2-2-1.4-2.9-2-1.6-.9-1.8-.7-2.1-2.7-.3-1.7-.1-2.3-1.7-2.8s-1.8.1-2.5-1.9c-.4-1.2-.3-2.9-.9-3.8-.2-.3-1.3-.7-1.6-1-.4-.6-.5-1.3-.9-2-1.4-2.4-3.4-4.4-4.8-6.8-.6-1-1.1-1.4-2.1-1.7-1.5-.6-1.6-.7-2.7-1.7-.7-.6-1.8-.9-2.6-1.5-.7-.6-.5 0-1-.7-.4-.6-.6-1.6-.8-2.2-1-2.6-2.5-3.6-4.4-5.5-.8-.8-1.2-2.2-1.9-3s-2-1.6-2.8-2.2c-.7-.6-2.5-.8-2.8-1.7s.4-.9.5-1.2c0-.1 1.1-1.5 1.3-1.9.8-1.2 1.8-.8 2.6-1.6.9-.8.6-3.4 1-4.7.6-1.9.8-.9 1.9-2.1.4-.5.4-1.3.6-1.9.1-.3.2-1 .4-1.4.3-.5.4-.1.8-.5.3-.2.9-.3 1.2-.7.4-.5.3-1.7.6-2.3.5-1.3 1.7-1.9 2.1-3.3.5-1.4.4-3.3.7-4.7.2-1.3.7-1.7 1.2-2.9.6-1.4 0-3.6.8-5 .5-.9 1.7-1.4 2.5-2.1.9-.7 1.8-1.2 2.4-2 .7-.9 1.3-2.6 1.6-3.7 1-3.1 1.3-5.9 3.4-8.4 1.1-1.3 1.2-.8 1.5-2.7.3-1.5.5-2.9.9-4.3.8-3.1 1-6.3 1.3-9.6.2-2.9.8-5 1.8-7.6 1-2.4.9-5.2 1.6-7.8.7-2.7.7-5.7 1.7-8.3.8-2.1 1.8-3.4 1.8-5.6.3-7.6.5-15 .8-22.6.1-.7 0-1.4.1-2.1.1-.6.4-1.4.6-1.9.1-.3.1-.8.3-1 .2-.3.8-.3.9-.6 1.3-2.3 1.6-5.7 1.9-8.4 1.9-12.4 1.3-14.9 1.6-27.4.2-10.1 1.2-13.2 1.5-23.3.3-13.2.7-14.9 1.3-28.1.1-2.6.2-5 .3-7.6z" fill="#d0d1d6" stroke="#a39cb9" stroke-miterlimit="10" stroke-width="2"/><path d="m893 264.6h47" fill="none" stroke="#a39cb9" stroke-miterlimit="10" stroke-width="1.5985"/><path d="m893 198.4h47" fill="none" stroke="#a39cb9" stroke-miterlimit="10" stroke-width="1.5985"/><path d="m870.5 241.7h92" fill="none" stroke="#a39cb9" stroke-miterlimit="10" stroke-width="1.5985"/><path d="m916.5 385v-10.2" fill="none" stroke="#ccc" stroke-width=".9735"/></g><text fill="#ccc" font-family="'RobotoMono-Regular'" font-size="18.4964" transform="translate(911.7659 409.3711)">f</text><text fill="#ccc" font-family="'RobotoMono-Regular'" font-size="18.4964" transform="translate(1041.8079 409.3711)">g</text><path d="m1046.4 385v-10.2" fill="none" stroke="#ccc" stroke-linecap="round" stroke-linejoin="round" stroke-width=".9735"/><path d="m1053.5 327.5c.4-8.8.3-5.3 1-14 .3-3.8.9-2.8 1.8-6.7.4-1.6 1.2-3.8 1.9-5.3.3-.5.8-1 1-1.6.4-1.3.3-2.8.4-4 .3-2.3.3-3.8 1.7-5.8.7-1.1.8-1.5 2.2-1.9 1.1-.4 2.3-.5 3-1.4 1.2-1.6.8-2.5 1.8-4.4.4-.8 1-1.6 1.4-2.5.7-1.5 1.2-1 2.2-2.2.8-.8.9-1 1.9-1.5 1-.4 2-.5 2.8-1.3.7-.8.9-1.5 1.8-2.2 1-.8 1.7-1.5 2.4-2.5.5-.6 1.4-2 2-2.5.8-.5 2-.2 2.8-.7.4-.3.4-.9.8-1.2s.8-.4 1.3-.6c1.2-.6 1.6-1.2 2.4-2 .3-.2.9-.1 1.1-.3.3-.4.3-1.2.5-1.6.3-1.2 1-1.8 1.8-2.8.8-.9 1.3-1.1 2.6-1.3 1.6-.2 1.9.2 2.3-.8 1.1-2.5-2.6-2.9-4.2-4.1s-3.2-2.2-5.1-3.1c-.6-.3-2.6-.8-2.8-.9-.9-.7-.1-2.5-.9-3.3-1-1-4.1-.6-5.5-1.2-.4-.2-2.2-1.4-2.5-1.7-.7-.8-.6-2.2-.8-3.1-.3-1.9-.4-4.2-1.3-6-.2-.4-.6-.9-.9-1.2-.3-.2-.8 0-1.1-.2-1-.6-1.8-1.6-2.1-2.5-.5-.9-.6-2.2-1.2-3-.7-1-1-.6-1.5-1.8-.4-1-.4-3.7-1-4.6-.6-1.1-1.4-1.3-1.8-2.5-.4-1-.6-3.8-1.4-4.7-.6-.6-1.7-.9-2-1.5-.5-.8-.2-2.4-.3-3.2-.2-1.5-.3-2.9-.5-4.4-.2-1.6-.3-3.2-.5-4.8-.1-1.4-.3-2.8-.4-4.1 0-.4.1-1.1-.1-1.5-.1-.2-.6-.4-.7-.6-1-1.8-.8-4.1-1.8-6.1-.7-1.5-1.9-2.4-2.2-3.8-.5-2.7-.4-5.5-.6-8.2-.3-3.7-.5-7.4-.7-11.1-.4-9.1-.9-18.1-1.3-27.1-.1-1.5-.1-1.3-.2-2.8h-1.8c-.1 1.5-.1 1.3-.2 2.8-.4 9.1-.8 18.1-1.3 27.1-.2 3.7-.4 7.4-.7 11.1-.2 2.7-.1 5.5-.6 8.2-.2 1.4-1.5 2.3-2.2 3.8-1 1.9-.8 4.2-1.8 6.1-.1.2-.5.4-.7.6-.2.4-.1 1.1-.1 1.5-.1 1.4-.3 2.8-.4 4.1-.2 1.6-.3 3.2-.5 4.8-.2 1.5-.3 2.9-.5 4.4-.1.9.2 2.5-.3 3.2-.4.6-1.6.9-2 1.5-.7.8-.9 3.8-1.3 4.7-.4 1.2-1.2 1.4-1.8 2.5-.6 1-.6 3.6-1 4.6-.4 1.2-.8.8-1.5 1.8-.6.8-.7 2.1-1.2 3-.4.8-1.2 1.8-2.1 2.5-.3.2-.8 0-1.1.2-.4.3-.7.8-.9 1.2-.9 1.8-1 4.1-1.3 6-.2.9-.1 2.4-.8 3.1-.3.3-2.1 1.5-2.5 1.7-1.5.5-4.6.2-5.5 1.2-.8.8 0 2.5-.9 3.3-.2.2-2.1.6-2.7.9-1.8.9-3.5 1.9-5.1 3.1-1.7 1.2-5.3 1.7-4.2 4.1.5 1 .9.6 2.3.8s1.8.5 2.6 1.3c.8.9 1.5 1.7 1.8 2.8.1.5.1 1.2.5 1.6.2.2.8.1 1.1.3 1 .8 1.3 1.4 2.4 2 .4.2.9.3 1.3.6.3.3.4 1 .8 1.2.8.5 2 .2 2.8.7.7.5 1.6 1.8 2 2.5.8 1 1.5 1.6 2.4 2.5.9.7 1 1.5 1.8 2.2.8.8 1.8.9 2.8 1.3 1.2.4 1.3.6 2 1.5 1.1 1.1 1.6.7 2.2 2.2.4.8 1 1.6 1.4 2.5 1 1.8.6 2.8 1.8 4.4.7 1 1.9 1 3 1.4 1.5.5 1.7.8 2.3 1.9 1.4 1.9 1.5 3.5 1.7 5.8.1 1.3 0 2.8.4 4 .2.6.7 1 1 1.6.8 1.5 1.6 3.7 1.9 5.3 1 3.8 1.5 2.8 1.8 6.7.7 8.8.6 5.2.9 14z" style="fill:#d0d1d6;stroke:#a39cb9;stroke-width:2;stroke-linecap:round;stroke-linejoin:round;stroke-miterlimit:10"/><path d="m1029 275.4h46.9" style="fill:none;stroke:#a39cb9;stroke-width:1.2971;stroke-linecap:round;stroke-linejoin:round;stroke-miterlimit:10"/><path d="m1029 234.9h46.9" style="fill:none;stroke:#a39cb9;stroke-width:1.2971;stroke-linecap:round;stroke-linejoin:round;stroke-miterlimit:10"/><path d="m1006.4 256.1h92.1" style="fill:none;stroke:#a39cb9;stroke-width:1.2971;stroke-linecap:round;stroke-linejoin:round;stroke-miterlimit:10"/></svg>