<?xml version="1.0" encoding="utf-8"?>
<!-- Generator: Adobe Illustrator 19.2.0, SVG Export Plug-In . SVG Version: 6.00 Build 0)  -->
<svg version="1.1" id="Layer_1" xmlns="http://www.w3.org/2000/svg" xmlns:xlink="http://www.w3.org/1999/xlink" x="0px" y="0px"
	 width="1200px" height="1343px" viewBox="0 0 1200 1343" enable-background="new 0 0 1200 1343" xml:space="preserve">
<g>
	<rect x="412" y="4" fill="#939FD5" width="329" height="98"/>
	<rect x="187" y="173" fill="#939FD5" width="226" height="98"/>
	<rect x="212" y="342" fill="#939FD5" width="175" height="98"/>
	<rect x="777" y="173" fill="#939FD5" width="226" height="98"/>
	<g>
		<text transform="matrix(1 0 0 1 504.8936 67.7024)" fill="#37246D" font-family="'Roboto-Medium'" font-size="51.3305px">A 200</text>
	</g>
	<g>
		<text transform="matrix(1 0 0 1 247.5947 242.2278)" fill="#37246D" font-family="'Roboto-Medium'" font-size="51.3305px">B 80</text>
	</g>
	<g>
		<text transform="matrix(1 0 0 1 249.6396 411.6165)" fill="#37246D" font-family="'Roboto-Medium'" font-size="51.3305px">E 50</text>
	</g>
	<rect x="2" y="342" fill="#939FD5" width="175" height="98"/>
	<g>
		<text transform="matrix(1 0 0 1 36.9268 411.6145)" fill="#37246D" font-family="'Roboto-Medium'" font-size="51.3305px">D 30</text>
	</g>
	<rect x="803" y="342" fill="#939FD5" width="175" height="98"/>
	<g>
		<text transform="matrix(1 0 0 1 836.9805 411.6165)" fill="#37246D" font-family="'Roboto-Medium'" font-size="51.3305px">G 40</text>
	</g>
	<rect x="1023" y="342" fill="#939FD5" width="175" height="98"/>
	<g>
		<text transform="matrix(1 0 0 1 1056.9395 411.6184)" fill="#37246D" font-family="'Roboto-Medium'" font-size="51.3305px">H 60</text>
	</g>
	<rect x="566" y="342" fill="#939FD5" width="175" height="98"/>
	<g>
		<text transform="matrix(1 0 0 1 604.2324 411.6184)" fill="#37246D" font-family="'Roboto-Medium'" font-size="51.3305px">F 20</text>
	</g>
	<g>
		<text transform="matrix(1 0 0 1 823.8447 237.0911)" fill="#37246D" font-family="'Roboto-Medium'" font-size="51.3305px">C 120</text>
	</g>
	<line fill="none" stroke="#7581BA" stroke-width="8" stroke-miterlimit="10" x1="577" y1="135" x2="577" y2="101"/>
	<line fill="none" stroke="#7581BA" stroke-width="8" stroke-miterlimit="10" x1="300" y1="343" x2="300" y2="271"/>
	<line fill="none" stroke="#7581BA" stroke-width="8" stroke-miterlimit="10" x1="890" y1="343" x2="890" y2="271"/>
	<polyline fill="none" stroke="#7581BA" stroke-width="8" stroke-miterlimit="10" points="300,173 300,137 890,137 890,173 	"/>
	<polyline fill="none" stroke="#7581BA" stroke-width="8" stroke-miterlimit="10" points="89,343 89,307 299,307 	"/>
	<polyline fill="none" stroke="#7581BA" stroke-width="8" stroke-miterlimit="10" points="654,343 654,307 1111,307 1111,343 	"/>
	<rect x="179" y="520" fill="#939FD5" width="821" height="821"/>
	<rect x="179" y="520" fill="#C8CDEB" width="821" height="82"/>
	<rect x="179" y="602" fill="#AFB8E3" width="821" height="82"/>
	<line fill="none" stroke="#C8CDEB" stroke-width="10" stroke-miterlimit="10" x1="508" y1="602" x2="508" y2="1341"/>
	<line fill="none" stroke="#C8CDEB" stroke-width="10" stroke-miterlimit="10" x1="836" y1="907" x2="836" y2="1341"/>
	<line fill="none" stroke="#C8CDEB" stroke-width="10" stroke-miterlimit="10" x1="179" y1="1105" x2="508" y2="1105"/>
	<line fill="none" stroke="#C8CDEB" stroke-width="10" stroke-miterlimit="10" x1="508" y1="907" x2="1000" y2="907"/>
	<g>
		<text transform="matrix(1 0 0 1 560.2471 579.5969)" fill="#37246D" font-family="'Roboto-Medium'" font-size="51.3305px">A</text>
	</g>
	<g>
		<text transform="matrix(1 0 0 1 323.7344 663.5442)" fill="#37246D" font-family="'Roboto-Medium'" font-size="51.3305px">B</text>
	</g>
	<g>
		<text transform="matrix(1 0 0 1 320.2793 916.6672)" fill="#37246D" font-family="'Roboto-Medium'" font-size="51.3305px">E</text>
	</g>
	<g>
		<text transform="matrix(1 0 0 1 318.0234 1246.8938)" fill="#37246D" font-family="'Roboto-Medium'" font-size="51.3305px">D</text>
	</g>
	<g>
		<text transform="matrix(1 0 0 1 734.6709 663.009)" fill="#37246D" font-family="'Roboto-Medium'" font-size="51.3305px">C</text>
	</g>
	<g>
		<text transform="matrix(1 0 0 1 733.1924 815.718)" fill="#37246D" font-family="'Roboto-Medium'" font-size="51.3305px">H</text>
	</g>
	<g>
		<text transform="matrix(1 0 0 1 660.3818 1139.5266)" fill="#37246D" font-family="'Roboto-Medium'" font-size="51.3305px">G</text>
	</g>
	<g>
		<text transform="matrix(1 0 0 1 902.2256 1129.259)" fill="#37246D" font-family="'Roboto-Medium'" font-size="51.3305px">F</text>
	</g>
</g>
</svg>
