<?xml version="1.0" encoding="utf-8"?>
<!-- Generator: Adobe Illustrator 22.1.0, SVG Export Plug-In . SVG Version: 6.00 Build 0)  -->
<svg version="1.1" id="Layer_1" xmlns="http://www.w3.org/2000/svg" xmlns:xlink="http://www.w3.org/1999/xlink" x="0px" y="0px"
	 viewBox="0 0 1268 418" style="enable-background:new 0 0 1268 418;" xml:space="preserve">
<style type="text/css">
	.st0{fill:#EBE7F2;}
	.st1{fill:#C5BFD8;}
	.st2{fill:#DECED1;}
	.st3{fill:#ACA3CE;}
	.st4{fill:#968BAF;}
	.st5{opacity:0.5;fill:#C2AABC;enable-background:new    ;}
	.st6{opacity:0.3;fill:#A886A3;enable-background:new    ;}
	.st7{opacity:0.6;}
	.st8{fill:#FFFFFF;}
	.st9{font-family:'RobotoCondensed-Regular';}
	.st10{font-size:25.0312px;}
	.st11{opacity:0.4;}
	.st12{opacity:0.28;}
</style>
<rect x="18.1" class="st0" width="1239" height="418"/>
<g id="Layer_1_1_">
	<rect x="417" y="9.7" class="st1" width="535.3" height="398.8"/>
	<polygon class="st2" points="1246.9,9.7 954.2,9.7 954.2,408.3 1246.9,408.3 1246.9,196.5 1246.9,194.6 	"/>
	<rect x="636.5" y="151.2" class="st3" width="311" height="252.2"/>
	<rect x="641.3" y="243.7" class="st4" width="301.3" height="155"/>
	<rect x="853.2" y="170.5" class="st4" width="89.5" height="68.4"/>
	<rect x="1063" y="235" class="st5" width="179.1" height="168.5"/>
	<rect x="1140" y="161.8" class="st5" width="102.1" height="68.4"/>
	<rect x="1142.9" y="336.1" class="st6" width="94.3" height="62.6"/>
	<rect x="1163.2" y="268.7" class="st6" width="74.1" height="62.6"/>
	<g class="st7">
		<text transform="matrix(1 0 0 1 424.7324 37.2412)" class="st8 st9 st10">23010</text>
	</g>
	<g class="st11">
		<text transform="matrix(1 0 0 1 645.1797 178.772)" class="st8 st9 st10">8460</text>
	</g>
	<g class="st12">
		<text transform="matrix(1 0 0 1 649.292 271.2812)" class="st8 st9 st10">5032</text>
	</g>
	<g class="st7">
		<text transform="matrix(1 0 0 1 962.623 37.3999)" class="st8 st9 st10">12580</text>
	</g>
	<g class="st11">
		<text transform="matrix(1 0 0 1 1071.6533 262.6768)" class="st8 st9 st10">3250</text>
	</g>
	<g class="st11">
		<text transform="matrix(1 0 0 1 1171.2168 296.1318)" class="st8 st9 st10">503</text>
	</g>
	<g class="st11">
		<text transform="matrix(1 0 0 1 1151.2842 363.7646)" class="st8 st9 st10">637</text>
	</g>
	<g class="st11">
		<text transform="matrix(1 0 0 1 1152.5645 190.4756)" class="st8 st9 st10">750</text>
	</g>
	<g class="st12">
		<text transform="matrix(1 0 0 1 861.3994 197.9326)" class="st8 st9 st10">675</text>
	</g>
</g>
<g id="Layer_2_1_">
</g>
<g id="Layer_3">
</g>
</svg>
