<?xml version="1.0" encoding="utf-8"?>
<!-- Generator: Adobe Illustrator 22.1.0, SVG Export Plug-In . SVG Version: 6.00 Build 0)  -->
<svg version="1.1" xmlns="http://www.w3.org/2000/svg" xmlns:xlink="http://www.w3.org/1999/xlink" x="0px" y="0px"
	 viewBox="0 0 1268 418" enable-background="new 0 0 1268 418" xml:space="preserve">
<g id="Layer_1">
	<polygon fill="#8B8CA4" points="1078,295 1170,295 1172,295 1265.9,295 1265.9,196 1078,196 	"/>
	<rect x="2" y="2" fill="#C6BFCF" width="556" height="414.2"/>
	<polygon fill="#DECED1" points="864,2 560,2 560,416 864,416 864,196 864,194 	"/>
	<polygon opacity="0.8" fill="#EBC7A4" points="1266,194 1266,2 866,2 866,194 1078,194 	"/>
	<polygon fill="#BEBFCB" points="1075.7,196 866,196 866,416 1076,416 1076,296.5 1075.7,296.5 	"/>
	<polygon fill="#968BAF" points="1170,297 1078,297 1078,416 1170,416 1170,359 1170,357 	"/>
	<polygon fill="#A697A6" points="1217,357 1219,357 1266.1,357 1266.1,297 1172,297 1172,357 	"/>
	<rect x="1172" y="359" fill="#7E729E" width="45" height="57"/>
	<rect x="1219" y="359" fill="#756686" width="47.1" height="57"/>
	<rect x="1183" y="239" transform="matrix(-1 -1.224647e-16 1.224647e-16 -1 2444 529)" fill="#717291" width="78" height="51"/>
	<rect x="230" y="149" fill="#AEA5BF" width="323" height="262"/>
	<rect x="871" y="313" fill="#A4A6B8" width="200" height="98"/>
	<rect x="1019" y="269" fill="#A4A6B8" width="52" height="39"/>
	<rect x="1019" y="225" fill="#A4A6B8" width="52" height="39"/>
	<rect x="235" y="245" fill="#968BAF" width="313" height="161"/>
	<rect x="455" y="169" fill="#968BAF" width="93" height="71"/>
	
		<rect x="673" y="236" transform="matrix(-1 -1.224647e-16 1.224647e-16 -1 1532 647)" opacity="0.5" fill="#C2AABC" width="186" height="175"/>
	
		<rect x="753" y="160" transform="matrix(-1 -1.224647e-16 1.224647e-16 -1 1612 391)" opacity="0.5" fill="#C2AABC" width="106" height="71"/>
	
		<rect x="756" y="341" transform="matrix(-1 -1.224647e-16 1.224647e-16 -1 1610 747)" opacity="0.3" fill="#A886A3" width="98" height="65"/>
	
		<rect x="777" y="271" transform="matrix(-1 -1.224647e-16 1.224647e-16 -1 1631 607)" opacity="0.3" fill="#A886A3" width="77" height="65"/>
	<g opacity="0.6">
		<text transform="matrix(1 0 0 1 10 30.5902)" fill="#FFFFFF" font-family="'RobotoCondensed-Regular'" font-size="26px">23010</text>
	</g>
	<g opacity="0.4">
		<text transform="matrix(1 0 0 1 238.9792 177.5985)" fill="#FFFFFF" font-family="'RobotoCondensed-Regular'" font-size="26px">8460</text>
	</g>
	<g opacity="0.28">
		<text transform="matrix(1 0 0 1 243.2504 273.6879)" fill="#FFFFFF" font-family="'RobotoCondensed-Regular'" font-size="26px">5032</text>
	</g>
	<g opacity="0.6">
		<text transform="matrix(1 0 0 1 568.708 30.7549)" fill="#FFFFFF" font-family="'RobotoCondensed-Regular'" font-size="26px">12580</text>
	</g>
	<g opacity="0.6">
		<text transform="matrix(1 0 0 1 884.9272 30.7549)" fill="#FFFFFF" font-family="'RobotoCondensed-Regular'" font-size="26px">7680</text>
	</g>
	<g opacity="0.4">
		<text transform="matrix(1 0 0 1 875.3125 224.579)" fill="#FFFFFF" font-family="'RobotoCondensed-Regular'" font-size="26px">4620</text>
	</g>
	<g opacity="0.4">
		<text transform="matrix(1 0 0 1 879.0106 341.5414)" fill="#FFFFFF" font-family="'RobotoCondensed-Regular'" font-size="26px">1960</text>
	</g>
	<g opacity="0.4">
		<text transform="matrix(1 0 0 1 1025.9337 297.7497)" fill="#FFFFFF" font-family="'RobotoCondensed-Regular'" font-size="26px">202</text>
	</g>
	<g opacity="0.4">
		<text transform="matrix(1 0 0 1 1025.9337 253.583)" fill="#FFFFFF" font-family="'RobotoCondensed-Regular'" font-size="26px">202</text>
	</g>
	<g opacity="0.4">
		<text transform="matrix(1 0 0 1 1086.0004 224.8541)" fill="#FFFFFF" font-family="'RobotoCondensed-Regular'" font-size="26px">1861</text>
	</g>
	<g opacity="0.35">
		<text transform="matrix(1 0 0 1 1188.3818 263.9999)" fill="#FFFFFF" font-family="'RobotoCondensed-Regular'" font-size="26px">7680</text>
	</g>
	<g opacity="0.4">
		<text transform="matrix(1 0 0 1 1180 325.4797)" fill="#FFFFFF" font-family="'RobotoCondensed-Regular'" font-size="26px">564</text>
	</g>
	<g opacity="0.35">
		<text transform="matrix(1 0 0 1 1085.9998 325.7501)" fill="#FFFFFF" font-family="'RobotoCondensed-Regular'" font-size="26px">1094</text>
	</g>
	<g opacity="0.3">
		<text transform="matrix(1 0 0 1 1174.9995 387.7857)" fill="#FFFFFF" font-family="'RobotoCondensed-Regular'" font-size="26px">256</text>
	</g>
	<g opacity="0.3">
		<text transform="matrix(1 0 0 1 1224.0002 387.8329)" fill="#FFFFFF" font-family="'RobotoCondensed-Regular'" font-size="26px">267</text>
	</g>
	<g opacity="0.4">
		<text transform="matrix(1 0 0 1 681.958 264.7504)" fill="#FFFFFF" font-family="'RobotoCondensed-Regular'" font-size="26px">3250</text>
	</g>
	<g opacity="0.4">
		<text transform="matrix(1 0 0 1 785.3746 299.5004)" fill="#FFFFFF" font-family="'RobotoCondensed-Regular'" font-size="26px">503</text>
	</g>
	<g opacity="0.4">
		<text transform="matrix(1 0 0 1 764.6708 369.7504)" fill="#FFFFFF" font-family="'RobotoCondensed-Regular'" font-size="26px">637</text>
	</g>
	<g opacity="0.4">
		<text transform="matrix(1 0 0 1 766 189.7549)" fill="#FFFFFF" font-family="'RobotoCondensed-Regular'" font-size="26px">750</text>
	</g>
	<g opacity="0.28">
		<text transform="matrix(1 0 0 1 463.5669 197.5004)" fill="#FFFFFF" font-family="'RobotoCondensed-Regular'" font-size="26px">675</text>
	</g>
</g>
<g id="Layer_2">
</g>
<g id="Layer_3">
</g>
</svg>
