<?xml version="1.0" encoding="utf-8"?>
<!-- Generator: Adobe Illustrator 24.0.1, SVG Export Plug-In . SVG Version: 6.00 Build 0)  -->
<svg version="1.1" id="Layer_1" xmlns="http://www.w3.org/2000/svg" xmlns:xlink="http://www.w3.org/1999/xlink" x="0px" y="0px"
	 viewBox="0 0 351.7 222" style="enable-background:new 0 0 351.7 222;" xml:space="preserve">
<style type="text/css">
	.st0{fill:#D1D1D1;}
	.st1{fill:#D8D8D8;}
	.st2{fill:#AAAAAA;}
	.st3{font-family:'Roboto-Regular';}
	.st4{font-size:7.4915px;}
	.st5{fill:none;stroke:#584F6D;stroke-miterlimit:10;}
	.st6{opacity:0.76;fill:#727272;enable-background:new    ;}
</style>
<g id="horizontal_1_">
	<path class="st0" d="M301.2,204h-229c-0.1,0-0.2-0.1-0.2-0.2c0-0.1,0.1-0.2,0.2-0.2h229c0.1,0,0.2,0.1,0.2,0.2
		C301.4,203.9,301.3,204,301.2,204z"/>
	<path class="st0" d="M290.1,184.8H83.3c-0.1,0-0.2-0.1-0.2-0.2c0-0.1,0.1-0.2,0.2-0.2h206.8c0.1,0,0.2,0.1,0.2,0.2
		C290.3,184.8,290.2,184.8,290.1,184.8z"/>
	<path class="st0" d="M279.1,165.7H94.4c-0.1,0-0.2-0.1-0.2-0.2c0-0.1,0.1-0.2,0.2-0.2h184.7c0.1,0,0.2,0.1,0.2,0.2
		C279.3,165.6,279.2,165.7,279.1,165.7z"/>
	<path class="st0" d="M268,146.5H105.5c-0.1,0-0.2-0.1-0.2-0.2s0.1-0.2,0.2-0.2H268c0.1,0,0.2,0.1,0.2,0.2S268.1,146.5,268,146.5z"
		/>
	<path class="st0" d="M256.9,127.3H116.5c-0.1,0-0.2-0.1-0.2-0.2s0.1-0.2,0.2-0.2h140.4c0.1,0,0.2,0.1,0.2,0.2
		C257.1,127.2,257,127.3,256.9,127.3z"/>
	<path class="st0" d="M234.8,89h-96.1c-0.1,0-0.2-0.1-0.2-0.2s0.1-0.2,0.2-0.2h96.1c0.1,0,0.2,0.1,0.2,0.2S235,89,234.8,89z"/>
	<path class="st0" d="M246,108.1H127.6c-0.1,0-0.2-0.1-0.2-0.2s0.1-0.2,0.2-0.2h118.5c0.1,0,0.2,0.1,0.2,0.2S246.2,108.1,246,108.1z
		"/>
	<path class="st0" d="M223.8,69.8h-74.1c-0.1,0-0.2-0.1-0.2-0.2s0.1-0.2,0.2-0.2h74.1c0.1,0,0.2,0.1,0.2,0.2S223.9,69.8,223.8,69.8z
		"/>
	<path class="st0" d="M212.7,50.6h-51.9c-0.1,0-0.2-0.1-0.2-0.2c0-0.1,0.1-0.2,0.2-0.2h51.9c0.1,0,0.2,0.1,0.2,0.2
		C212.9,50.5,212.8,50.6,212.7,50.6z"/>
	<path class="st0" d="M201.8,31.4h-30c-0.1,0-0.2-0.1-0.2-0.2s0.1-0.2,0.2-0.2h30c0.1,0,0.2,0.1,0.2,0.2S202,31.4,201.8,31.4z"/>
	<path class="st0" d="M190.6,12.3H183c-0.1,0-0.2-0.1-0.2-0.2c0-0.1,0.1-0.2,0.2-0.2h7.6c0.1,0,0.2,0.1,0.2,0.2
		S190.7,12.3,190.6,12.3z"/>
</g>
<g id="left_tilt_1_">
	<g id="path5874_4_">
		<path class="st0" d="M70.2,208.2L70.2,208.2c-0.2-0.1-0.2-0.2-0.2-0.3l112.8-196c0.1-0.1,0.2-0.1,0.3-0.1c0.1,0.1,0.1,0.2,0.1,0.3
			l-112.7,196C70.4,208.2,70.3,208.2,70.2,208.2z"/>
	</g>
	<g id="path5961_4_">
		<path class="st0" d="M92.4,208.2L92.4,208.2c-0.2-0.1-0.2-0.2-0.2-0.3L193.8,31.1c0.1-0.1,0.2-0.1,0.3-0.1
			c0.1,0.1,0.1,0.2,0.1,0.3L92.6,208.1C92.5,208.1,92.5,208.2,92.4,208.2z"/>
	</g>
	<g id="path5963_4_">
		<path class="st0" d="M114.5,208.2L114.5,208.2c-0.2-0.1-0.2-0.2-0.2-0.3l90.6-157.6c0.1-0.1,0.2-0.1,0.3-0.1
			c0.1,0.1,0.1,0.2,0.1,0.3l-90.6,157.6C114.7,208.2,114.6,208.2,114.5,208.2z"/>
	</g>
	<g id="path5965_4_">
		<path class="st0" d="M136.7,208.2L136.7,208.2c-0.2-0.1-0.2-0.2-0.2-0.3L216,69.5c0.1-0.1,0.2-0.1,0.3-0.1
			c0.1,0.1,0.1,0.2,0.1,0.3l-79.5,138.4C136.8,208.1,136.8,208.2,136.7,208.2z"/>
	</g>
	<g id="path5967_4_">
		<path class="st0" d="M158.8,208.2L158.8,208.2c-0.2-0.1-0.2-0.2-0.2-0.3L227,88.6c0.1-0.1,0.2-0.1,0.3-0.1
			c0.1,0.1,0.1,0.2,0.1,0.3L159,208.1C159,208.2,158.9,208.2,158.8,208.2z"/>
	</g>
	<g id="path5969_4_">
		<path class="st0" d="M203.1,208.3H203c-0.1-0.1-0.1-0.2-0.1-0.3l46.3-81c0.1-0.1,0.2-0.1,0.3-0.1c0.1,0.1,0.1,0.2,0.1,0.3
			l-46.3,81C203.2,208.2,203.1,208.3,203.1,208.3z"/>
	</g>
	<g id="path5971_4_">
		<path class="st0" d="M180.9,208.4h-0.1c-0.1-0.1-0.1-0.2-0.1-0.3l57.5-100.2c0.1-0.1,0.2-0.1,0.3-0.1c0.1,0.1,0.1,0.2,0.1,0.3
			l-57.5,100.2C181,208.4,180.9,208.4,180.9,208.4z"/>
	</g>
	<g id="path5973_4_">
		<path class="st0" d="M225.2,208.3h-0.1c-0.1-0.1-0.1-0.2-0.1-0.3l35.3-61.8c0.1-0.1,0.2-0.1,0.3-0.1c0.1,0.1,0.1,0.2,0.1,0.3
			l-35.3,61.8C225.3,208.3,225.3,208.3,225.2,208.3z"/>
	</g>
	<g id="path5975_4_">
		<path class="st0" d="M247.4,208.3h-0.1c-0.1-0.1-0.1-0.2-0.1-0.3l24.2-42.6c0.1-0.1,0.2-0.1,0.3-0.1c0.1,0.1,0.1,0.2,0.1,0.3
			l-24.2,42.6C247.5,208.2,247.4,208.3,247.4,208.3z"/>
	</g>
	<g id="path5977_4_">
		<path class="st0" d="M269.4,208.5h-0.1c-0.1-0.1-0.1-0.2-0.1-0.3l13.2-23.6c0.1-0.1,0.2-0.1,0.3-0.1c0.1,0.1,0.1,0.2,0.1,0.3
			l-13.2,23.6C269.5,208.4,269.5,208.5,269.4,208.5z"/>
	</g>
	<g id="path5959_4_">
		<path class="st0" d="M291.6,208.3L291.6,208.3c-0.2-0.1-0.2-0.2-0.2-0.3l2-4.3c0-0.1,0.2-0.1,0.3-0.1s0.1,0.2,0.1,0.3l-2,4.3
			C291.8,208.2,291.7,208.3,291.6,208.3z"/>
	</g>
</g>
<g id="right_tilt_1_">
	<path class="st1" d="M293.7,204c-0.1,0-0.1,0-0.2-0.1L179,5.6c-0.1-0.1,0-0.2,0.1-0.3c0.1-0.1,0.2,0,0.3,0.1l114.4,198.3
		C293.9,203.8,293.8,203.9,293.7,204L293.7,204z"/>
	<path class="st1" d="M271.5,204c-0.1,0-0.1,0-0.2-0.1L168,24.8c-0.1-0.1,0-0.2,0.1-0.3c0.1-0.1,0.2,0,0.3,0.1l103.4,179.1
		c0.1,0.1,0,0.2-0.1,0.3C271.6,204,271.6,204,271.5,204z"/>
	<path class="st1" d="M249.4,204c-0.1,0-0.1,0-0.2-0.1L156.9,44c-0.1-0.1,0-0.2,0.1-0.3c0.1-0.1,0.2,0,0.3,0.1l92.3,160
		c0.1,0.1,0,0.2-0.1,0.3C249.5,204,249.4,204,249.4,204z"/>
	<path class="st1" d="M227.2,204c-0.1,0-0.1,0-0.2-0.1L145.8,63.2c-0.1-0.1,0-0.2,0.1-0.3c0.1-0.1,0.2,0,0.3,0.1l81.3,140.8
		c0.1,0.1,0,0.2-0.1,0.3C227.3,204,227.3,204,227.2,204z"/>
	<path class="st1" d="M205.1,204c-0.1,0-0.1,0-0.2-0.1L134.7,82.3c-0.1-0.1,0-0.2,0.1-0.3c0.1-0.1,0.2,0,0.3,0.1l70.2,121.6
		C205.4,203.8,205.3,203.9,205.1,204L205.1,204z"/>
	<path class="st1" d="M160.8,204c-0.1,0-0.1,0-0.2-0.1l-48.1-83.3c-0.1-0.1,0-0.2,0.1-0.3c0.1-0.1,0.2,0,0.3,0.1l48.1,83.3
		c0.1,0.1,0,0.2-0.1,0.3C160.9,204,160.8,204,160.8,204z"/>
	<path class="st1" d="M183,204c-0.1,0-0.1,0-0.2-0.1l-59.3-102.6c-0.1-0.1,0-0.2,0.1-0.3c0.1-0.1,0.2,0,0.3,0.1l59.2,102.6
		C183.2,203.8,183.1,203.9,183,204L183,204z"/>
	<path class="st1" d="M138.7,204c-0.1,0-0.1,0-0.2-0.1l-37-64.2c-0.1-0.1,0-0.2,0.1-0.3s0.2,0,0.3,0.1l37,64.2
		c0.1,0.1,0,0.2-0.1,0.3C138.7,204,138.7,204,138.7,204z"/>
	<path class="st1" d="M116.5,204c-0.1,0-0.1,0-0.2-0.1l-25.9-45c-0.1-0.1,0-0.2,0.1-0.3s0.2,0,0.3,0.1l25.9,45
		C116.8,203.8,116.7,203.9,116.5,204C116.6,204,116.6,204,116.5,204z"/>
	<path class="st1" d="M94.4,204c-0.1,0-0.1,0-0.2-0.1l-15-26c-0.1-0.1,0-0.2,0.1-0.3s0.2,0,0.3,0.1l15,26
		C94.7,203.8,94.6,203.9,94.4,204L94.4,204z"/>
	<path class="st1" d="M72.2,204c-0.1,0-0.1,0-0.2-0.1l-3.8-6.6c-0.1-0.1,0-0.2,0.1-0.3s0.2,0,0.3,0.1l3.8,6.6
		C72.5,203.8,72.4,203.9,72.2,204C72.3,204,72.3,204,72.2,204z"/>
</g>
<g id="scale_marks_left_tilt" transform="translate(0.63738379,-0.67622858)">
	<text transform="matrix(1 0 0 1 186.2674 10.5102)" class="st2 st3 st4">100</text>
	<text transform="matrix(1 0 0 1 241.6248 106.6723)" class="st2 st3 st4">50</text>
	<text transform="matrix(1 0 0 1 296.9842 202.2739)" class="st2 st3 st4">0</text>
</g>
<g id="scale_marks_right_tilt" transform="rotate(60,130.36861,154.42683)">
	<text transform="matrix(1 0 0 1 20.1083 41.2034)" class="st2 st3 st4">0</text>
	<text transform="matrix(1 0 0 1 70.216 137.0877)" class="st2 st3 st4">50</text>
	<text transform="matrix(1 0 0 1 120.3196 232.9708)" class="st2 st3 st4">100</text>
	<text transform="matrix(1 0 0 1 130.4034 248.8817)" class="st2 st3 st4">%</text>
</g>
<g id="scale_marks-_horizontal" transform="rotate(-60,168.50724,246.26774)">
	<text transform="matrix(1 0 0 1 249.5039 336.4144)" class="st2 st3 st4">100</text>
	<text transform="matrix(1 0 0 1 194.0208 241.1469)" class="st2 st3 st4">50</text>
	<text transform="matrix(1 0 0 1 141.1371 146.8681)" class="st2 st3 st4">0</text>
</g>
<polygon class="st5" points="182.7,12.3 72,204 293.5,204 "/>
<g id="scatter_plot_marks_1_">
	<circle class="st6" cx="223" cy="131.5" r="4.6"/>
	<circle class="st6" cx="244.2" cy="135.5" r="3.9"/>
	<circle class="st6" cx="233.3" cy="135.5" r="5.2"/>
	<circle class="st6" cx="244.2" cy="151.2" r="7.9"/>
	<circle class="st6" cx="164.2" cy="167.4" r="4.5"/>
	<circle class="st6" cx="187.7" cy="163.1" r="6.5"/>
	<circle class="st6" cx="100.1" cy="182.2" r="2.1"/>
	<circle class="st6" cx="114" cy="170.7" r="5.9"/>
	<circle class="st6" cx="164.2" cy="129.2" r="7.9"/>
	<circle class="st6" cx="181.8" cy="71" r="2.1"/>
	<circle class="st6" cx="197.8" cy="64.6" r="4.3"/>
	<circle class="st6" cx="194.2" cy="104.9" r="7.9"/>
	<circle class="st6" cx="187.7" cy="82.4" r="12.2"/>
	<circle class="st6" cx="175.5" cy="137.7" r="3.9"/>
	<circle class="st6" cx="136.3" cy="159.5" r="5.3"/>
	<circle class="st6" cx="200" cy="146.9" r="8.9"/>
</g>
</svg>
