<svg enable-background="new 0 0 1268 418" viewBox="0 0 1268 418" xmlns="http://www.w3.org/2000/svg"><g fill="#d1d1f5"><path d="m560.6 383.6h-423.9c-.2 0-.4-.2-.4-.4s.2-.4.4-.4h423.9c.2 0 .4.2.4.4s-.2.4-.4.4z"/><path d="m540.1 348.1h-382.9c-.2 0-.4-.2-.4-.4s.2-.4.4-.4h382.8c.2 0 .4.2.4.4 0 .4-.2.4-.3.4z"/><path d="m519.7 312.7h-341.9c-.2 0-.4-.2-.4-.4s.2-.4.4-.4h341.9c.2 0 .4.2.4.4s-.2.4-.4.4z"/><path d="m499.1 277.2h-300.8c-.2 0-.4-.2-.4-.4s.2-.4.4-.4h300.8c.2 0 .4.2.4.4s-.2.4-.4.4z"/><path d="m478.6 241.6h-259.9c-.2 0-.4-.2-.4-.4s.2-.4.4-.4h259.9c.2 0 .4.2.4.4s-.2.4-.4.4z"/><path d="m437.7 170.7h-177.9c-.2 0-.4-.2-.4-.4s.2-.4.4-.4h177.9c.2 0 .4.2.4.4s0 .4-.4.4z"/><path d="m458.4 206.1h-219.2c-.2 0-.4-.2-.4-.4s.2-.4.4-.4h219.4c.2 0 .4.2.4.4s-.2.4-.6.4z"/><path d="m417.3 135.2h-137.2c-.2 0-.4-.2-.4-.4s.2-.4.4-.4h137.2c.2 0 .4.2.4.4s-.2.4-.4.4z"/><path d="m396.8 99.6h-96.1c-.2 0-.4-.2-.4-.4s.2-.4.4-.4h96.1c.2 0 .4.2.4.4-.1.3-.2.4-.4.4z"/><path d="m376.6 64.1h-55.5c-.2 0-.4-.2-.4-.4s.2-.4.4-.4h55.5c.2 0 .4.2.4.4s0 .4-.4.4z"/><path d="m355.9 28.7h-14.1c-.2 0-.4-.2-.4-.4s.2-.4.4-.4h14.1c.2 0 .4.2.4.4-.1.3-.3.4-.4.4z"/><path d="m133 391.4c-.4-.2-.4-.4-.4-.6l208.8-362.8c.2-.2.4-.2.6-.2.2.2.2.4.2.6l-208.7 362.8c-.2.2-.3.2-.5.2z"/><path d="m174.1 391.4c-.4-.2-.4-.4-.4-.6l188.1-327.3c.2-.2.4-.2.6-.2.2.2.2.4.2.6l-188.2 327.3c-.1 0-.1.2-.3.2z"/><path d="m215 391.4c-.4-.2-.4-.4-.4-.6l167.7-291.7c.2-.2.4-.2.6-.2.2.2.2.4.2.6l-167.7 291.7c0 .2-.2.2-.4.2z"/><path d="m256.1 391.4c-.4-.2-.4-.4-.4-.6l147.2-256.2c.2-.2.4-.2.6-.2.2.2.2.4.2.6l-147.3 256.2c-.1 0-.1.2-.3.2z"/><path d="m297 391.4c-.4-.2-.4-.4-.4-.6l126.6-220.8c.2-.2.4-.2.6-.2.2.2.2.4.2.6l-126.6 220.8c0 .2-.2.2-.4.2z"/><path d="m379 391.6h-.2c-.2-.2-.2-.4-.2-.6l85.7-149.9c.2-.2.4-.2.6-.2.2.2.2.4.2.6l-85.7 149.9c-.2 0-.4.2-.4.2z"/><path d="m337.9 391.8h-.2c-.2-.2-.2-.4-.2-.6l106.5-185.5c.2-.2.4-.2.6-.2.2.2.2.4.2.6l-106.5 185.5c-.2.2-.4.2-.4.2z"/><path d="m419.9 391.6h-.2c-.2-.2-.2-.4-.2-.6l65.3-114.4c.2-.2.4-.2.6-.2.2.2.2.4.2.6l-65.3 114.4c-.2.2-.2.2-.4.2z"/><path d="m461 391.6h-.2c-.2-.2-.2-.4-.2-.6l44.8-78.9c.2-.2.4-.2.6-.2.2.2.2.4.2.6l-44.8 78.9c-.2 0-.4.2-.4.2z"/><path d="m501.7 391.9h-.2c-.2-.2-.2-.4-.2-.6l24.4-43.7c.2-.2.4-.2.6-.2.2.2.2.4.2.6l-24.4 43.7c-.2.1-.2.2-.4.2z"/><path d="m542.8 391.6c-.4-.2-.4-.4-.4-.6l3.7-8c0-.2.4-.2.6-.2s.2.4.2.6l-3.7 8s-.2.2-.4.2z"/></g><path d="m546.7 383.6c-.2 0-.2 0-.4-.2l-212-367.1c-.2-.2 0-.4.2-.6s.4 0 .6.2l211.8 367.1c.2.2 0 .4-.2.6z" fill="#d8d8fc"/><path d="m505.6 383.6c-.2 0-.2 0-.4-.2l-191.2-331.5c-.2-.2 0-.4.2-.6s.4 0 .6.2l191.4 331.5c.2.2 0 .4-.2.6-.2 0-.2 0-.4 0z" fill="#d8d8fc"/><path d="m464.7 383.6c-.2 0-.2 0-.4-.2l-170.9-296c-.2-.2 0-.4.2-.6s.4 0 .6.2l170.9 296.2c.2.2 0 .4-.2.6 0-.2-.2-.2-.2-.2z" fill="#d8d8fc"/><path d="m423.6 383.6c-.2 0-.2 0-.4-.2l-150.3-260.4c-.2-.2 0-.4.2-.6s.4 0 .6.2l150.5 260.6c.2.2 0 .4-.2.6-.2-.2-.2-.2-.4-.2z" fill="#d8d8fc"/><path d="m382.7 383.6c-.2 0-.2 0-.4-.2l-130-225.1c-.2-.2 0-.4.2-.6s.4 0 .6.2l130 225.1c.2.2 0 .4-.4.6z" fill="#d8d8fc"/><path d="m300.7 383.6c-.2 0-.2 0-.4-.2l-89-154.2c-.2-.2 0-.4.2-.6s.4 0 .6.2l89 154.2c.2.2 0 .4-.2.6z" fill="#d8d8fc"/><path d="m341.8 383.6c-.2 0-.2 0-.4-.2l-109.8-189.9c-.2-.2 0-.4.2-.6s.4 0 .6.2l109.6 190c.2.1 0 .3-.2.5z" fill="#d8d8fc"/><path d="m259.8 383.6c-.2 0-.2 0-.4-.2l-68.5-118.8c-.2-.2 0-.4.2-.6s.4 0 .6.2l68.5 118.8c.2.2 0 .4-.2.6-.2 0-.2 0-.2 0z" fill="#d8d8fc"/><path d="m218.7 383.6c-.2 0-.2 0-.4-.2l-47.9-83.3c-.2-.2 0-.4.2-.6s.4 0 .6.2l47.9 83.3c.1.2 0 .4-.4.6.2 0 .2 0 0 0z" fill="#d8d8fc"/><path d="m177.8 383.6c-.2 0-.2 0-.4-.2l-27.8-48.1c-.2-.2 0-.4.2-.6s.4 0 .6.2l27.8 48.1c.1.2-.1.4-.4.6z" fill="#d8d8fc"/><path d="m136.7 383.6c-.2 0-.2 0-.4-.2l-7-12.2c-.2-.2 0-.4.2-.6s.4 0 .6.2l7 12.2c.1.2-.1.4-.4.6.2 0 .2 0 0 0z" fill="#d8d8fc"/><text fill="#aaaace" font-family="'Roboto-Regular'" font-size="13.8683" transform="translate(349.016784 24.177971)">100</text><text fill="#aaaace" font-family="'Roboto-Regular'" font-size="13.8683" transform="translate(451.494284 202.193071)">50</text><text fill="#aaaace" font-family="'Roboto-Regular'" font-size="13.8683" transform="translate(553.975784 379.171071)">0</text><text fill="#aaaace" font-family="'Roboto-Regular'" font-size="13.8683" transform="matrix(.5 .8660254 -.8660254 .5 323.81916996946 10.27956857098)">0</text><text fill="#aaaace" font-family="'Roboto-Regular'" font-size="13.8683" transform="matrix(.5 .8660254 -.8660254 .5 216.47777941866 179.36282486736)">50</text><text fill="#aaaace" font-family="'Roboto-Regular'" font-size="13.8683" transform="matrix(.5 .8660254 -.8660254 .5 109.13532976438 348.43664674276)">100</text><text fill="#aaaace" font-family="'Roboto-Regular'" font-size="13.8683" transform="matrix(.5 .8660254 -.8660254 .5 92.95996500484 379.33029288456)">%</text><text fill="#aaaace" font-family="'Roboto-Regular'" font-size="13.8683" transform="matrix(.5 -.8660254 .8660254 .5 534.45167410024 415.44910431186)">100</text><text fill="#aaaace" font-family="'Roboto-Regular'" font-size="13.8683" transform="matrix(.5 -.8660254 .8660254 .5 330.36445417148 416.21973917126)">50</text><text fill="#aaaace" font-family="'Roboto-Regular'" font-size="13.8683" transform="matrix(.5 -.8660254 .8660254 .5 130.26926335266 413.73817679316)">0</text><path d="m341.2 28.7-204.9 354.9h410z" fill="none" stroke="#584f91" stroke-miterlimit="10" stroke-width="1.8512"/><circle cx="415.8" cy="249.4" fill="#727296" opacity=".76" r="8.5"/><circle cx="455.1" cy="256.8" fill="#727296" opacity=".76" r="7.2"/><circle cx="434.9" cy="256.8" fill="#727296" opacity=".76" r="9.6"/><circle cx="455.1" cy="285.9" fill="#727296" opacity=".76" r="14.6"/><circle cx="307" cy="315.9" fill="#727296" opacity=".76" r="8.3"/><circle cx="350.5" cy="307.9" fill="#727296" opacity=".76" r="12"/><circle cx="188.3" cy="343.3" fill="#727296" opacity=".76" r="3.9"/><circle cx="214.1" cy="322" fill="#727296" opacity=".76" r="10.9"/><circle cx="307" cy="245.1" fill="#727296" opacity=".76" r="14.6"/><circle cx="339.6" cy="137.4" fill="#727296" opacity=".76" r="3.9"/><circle cx="369.2" cy="125.6" fill="#727296" opacity=".76" r="8"/><circle cx="362.5" cy="200.2" fill="#727296" opacity=".76" r="14.6"/><circle cx="350.5" cy="158.5" fill="#727296" opacity=".76" r="22.6"/><circle cx="327.9" cy="260.9" fill="#727296" opacity=".76" r="7.2"/><circle cx="255.3" cy="301.2" fill="#727296" opacity=".76" r="9.8"/><circle cx="373.3" cy="277.9" fill="#727296" opacity=".76" r="16.5"/><path d="m1179.9 383.6h-423.9c-.2 0-.4-.2-.4-.4s.2-.4.4-.4h423.9c.2 0 .4.2.4.4s-.2.4-.4.4z" fill="#d1d1f5"/><path d="m1159.4 348.1h-382.9c-.2 0-.4-.2-.4-.4s.2-.4.4-.4h382.8c.2 0 .4.2.4.4 0 .4-.2.4-.3.4z" fill="#d1d1f5"/><path d="m1139 312.7h-341.9c-.2 0-.4-.2-.4-.4s.2-.4.4-.4h341.9c.2 0 .4.2.4.4s-.2.4-.4.4z" fill="#d1d1f5"/><path d="m1118.4 277.2h-300.8c-.2 0-.4-.2-.4-.4s.2-.4.4-.4h300.8c.2 0 .4.2.4.4s-.2.4-.4.4z" fill="#d1d1f5"/><path d="m1097.9 241.6h-259.9c-.2 0-.4-.2-.4-.4s.2-.4.4-.4h259.9c.2 0 .4.2.4.4s-.2.4-.4.4z" fill="#d1d1f5"/><path d="m1057 170.7h-177.9c-.2 0-.4-.2-.4-.4s.2-.4.4-.4h177.9c.2 0 .4.2.4.4s0 .4-.4.4z" fill="#d1d1f5"/><path d="m1077.7 206.1h-219.2c-.2 0-.4-.2-.4-.4s.2-.4.4-.4h219.4c.2 0 .4.2.4.4s-.2.4-.6.4z" fill="#d1d1f5"/><path d="m1036.6 135.2h-137.2c-.2 0-.4-.2-.4-.4s.2-.4.4-.4h137.2c.2 0 .4.2.4.4s-.2.4-.4.4z" fill="#d1d1f5"/><path d="m1016.1 99.6h-96.1c-.2 0-.4-.2-.4-.4s.2-.4.4-.4h96.1c.2 0 .4.2.4.4-.1.3-.2.4-.4.4z" fill="#d1d1f5"/><path d="m995.9 64.1h-55.5c-.2 0-.4-.2-.4-.4s.2-.4.4-.4h55.5c.2 0 .4.2.4.4s0 .4-.4.4z" fill="#d1d1f5"/><path d="m975.2 28.7h-14.1c-.2 0-.4-.2-.4-.4s.2-.4.4-.4h14.1c.2 0 .4.2.4.4-.1.3-.3.4-.4.4z" fill="#d1d1f5"/><path d="m752.3 391.4c-.4-.2-.4-.4-.4-.6l208.8-362.8c.2-.2.4-.2.6-.2.2.2.2.4.2.6l-208.7 362.8c-.2.2-.3.2-.5.2z" fill="#d1d1f5"/><path d="m793.4 391.4c-.4-.2-.4-.4-.4-.6l188.1-327.3c.2-.2.4-.2.6-.2.2.2.2.4.2.6l-188.2 327.3c-.1 0-.1.2-.3.2z" fill="#d1d1f5"/><path d="m834.3 391.4c-.4-.2-.4-.4-.4-.6l167.7-291.7c.2-.2.4-.2.6-.2.2.2.2.4.2.6l-167.7 291.7c0 .2-.2.2-.4.2z" fill="#d1d1f5"/><path d="m875.4 391.4c-.4-.2-.4-.4-.4-.6l147.2-256.2c.2-.2.4-.2.6-.2.2.2.2.4.2.6l-147.3 256.2c-.1 0-.1.2-.3.2z" fill="#d1d1f5"/><path d="m916.3 391.4c-.4-.2-.4-.4-.4-.6l126.6-220.8c.2-.2.4-.2.6-.2.2.2.2.4.2.6l-126.6 220.8c0 .2-.2.2-.4.2z" fill="#d1d1f5"/><path d="m998.3 391.6h-.2c-.2-.2-.2-.4-.2-.6l85.7-149.9c.2-.2.4-.2.6-.2.2.2.2.4.2.6l-85.7 149.9c-.2 0-.4.2-.4.2z" fill="#d1d1f5"/><path d="m957.2 391.8h-.2c-.2-.2-.2-.4-.2-.6l106.4-185.5c.2-.2.4-.2.6-.2.2.2.2.4.2.6l-106.4 185.5c-.2.2-.4.2-.4.2z" fill="#d1d1f5"/><path d="m1039.2 391.6h-.2c-.2-.2-.2-.4-.2-.6l65.3-114.4c.2-.2.4-.2.6-.2.2.2.2.4.2.6l-65.3 114.4c-.2.2-.2.2-.4.2z" fill="#d1d1f5"/><path d="m1080.3 391.6h-.2c-.2-.2-.2-.4-.2-.6l44.8-78.9c.2-.2.4-.2.6-.2.2.2.2.4.2.6l-44.8 78.9c-.2 0-.4.2-.4.2z" fill="#d1d1f5"/><path d="m1121 391.9h-.2c-.2-.2-.2-.4-.2-.6l24.4-43.7c.2-.2.4-.2.6-.2.2.2.2.4.2.6l-24.4 43.7c-.2.1-.2.2-.4.2z" fill="#d1d1f5"/><path d="m1162.1 391.6c-.4-.2-.4-.4-.4-.6l3.7-8c0-.2.4-.2.6-.2s.2.4.2.6l-3.7 8s-.2.2-.4.2z" fill="#d1d1f5"/><path d="m1166 383.6c-.2 0-.2 0-.4-.2l-212-367.1c-.2-.2 0-.4.2-.6s.4 0 .6.2l211.8 367.1c.2.2 0 .4-.2.6z" fill="#d8d8fc"/><path d="m1124.9 383.6c-.2 0-.2 0-.4-.2l-191.2-331.5c-.2-.2 0-.4.2-.6s.4 0 .6.2l191.4 331.5c.2.2 0 .4-.2.6-.2 0-.2 0-.4 0z" fill="#d8d8fc"/><path d="m1084 383.6c-.2 0-.2 0-.4-.2l-170.9-296c-.2-.2 0-.4.2-.6s.4 0 .6.2l170.9 296.2c.2.2 0 .4-.2.6 0-.2-.2-.2-.2-.2z" fill="#d8d8fc"/><path d="m1042.9 383.6c-.2 0-.2 0-.4-.2l-150.3-260.4c-.2-.2 0-.4.2-.6s.4 0 .6.2l150.5 260.6c.2.2 0 .4-.2.6-.2-.2-.2-.2-.4-.2z" fill="#d8d8fc"/><path d="m1002 383.6c-.2 0-.2 0-.4-.2l-130-225.1c-.2-.2 0-.4.2-.6s.4 0 .6.2l130 225.1c.2.2 0 .4-.4.6z" fill="#d8d8fc"/><path d="m920 383.6c-.2 0-.2 0-.4-.2l-89-154.2c-.2-.2 0-.4.2-.6s.4 0 .6.2l89 154.2c.2.2 0 .4-.2.6z" fill="#d8d8fc"/><path d="m961.1 383.6c-.2 0-.2 0-.4-.2l-109.8-189.9c-.2-.2 0-.4.2-.6s.4 0 .6.2l109.6 189.9c.2.2 0 .4-.2.6z" fill="#d8d8fc"/><path d="m879.1 383.6c-.2 0-.2 0-.4-.2l-68.5-118.8c-.2-.2 0-.4.2-.6s.4 0 .6.2l68.5 118.8c.2.2 0 .4-.2.6-.2 0-.2 0-.2 0z" fill="#d8d8fc"/><path d="m838 383.6c-.2 0-.2 0-.4-.2l-47.9-83.3c-.2-.2 0-.4.2-.6s.4 0 .6.2l47.9 83.3c.1.2 0 .4-.4.6.2 0 .2 0 0 0z" fill="#d8d8fc"/><path d="m797.1 383.6c-.2 0-.2 0-.4-.2l-27.8-48.1c-.2-.2 0-.4.2-.6s.4 0 .6.2l27.8 48.1c.1.2-.1.4-.4.6z" fill="#d8d8fc"/><path d="m756 383.6c-.2 0-.2 0-.4-.2l-7-12.2c-.2-.2 0-.4.2-.6s.4 0 .6.2l7 12.2c.1.2-.1.4-.4.6.2 0 .2 0 0 0z" fill="#d8d8fc"/><text fill="#aaaace" font-family="'Roboto-Regular'" font-size="13.8683" transform="translate(968.317884 24.177971)">100</text><text fill="#aaaace" font-family="'Roboto-Regular'" font-size="13.8683" transform="translate(1070.795484 202.193071)">50</text><text fill="#aaaace" font-family="'Roboto-Regular'" font-size="13.8683" transform="translate(1173.276884 379.171071)">0</text><text fill="#aaaace" font-family="'Roboto-Regular'" font-size="13.8683" transform="matrix(.5 .8660254 -.8660254 .5 943.1204423667 10.27963989876)">0</text><text fill="#aaaace" font-family="'Roboto-Regular'" font-size="13.8683" transform="matrix(.5 .8660254 -.8660254 .5 835.7791018159 179.36298279768)">50</text><text fill="#aaaace" font-family="'Roboto-Regular'" font-size="13.8683" transform="matrix(.5 .8660254 -.8660254 .5 728.43665216162 348.43680467308)">100</text><text fill="#aaaace" font-family="'Roboto-Regular'" font-size="13.8683" transform="matrix(.5 .8660254 -.8660254 .5 712.26128740208 379.33045081488)">%</text><text fill="#aaaace" font-family="'Roboto-Regular'" font-size="13.8683" transform="matrix(.5 -.8660254 .8660254 .5 1153.75299649748 415.44894638154)">100</text><text fill="#aaaace" font-family="'Roboto-Regular'" font-size="13.8683" transform="matrix(.5 -.8660254 .8660254 .5 949.66572656872 416.21966784348)">50</text><text fill="#aaaace" font-family="'Roboto-Regular'" font-size="13.8683" transform="matrix(.5 -.8660254 .8660254 .5 749.5705357499 413.73810546538)">0</text><path d="m960.5 28.7-204.9 354.9h410z" fill="none" stroke="#584f91" stroke-miterlimit="10" stroke-width="1.8512"/><circle cx="1035.1" cy="249.4" fill="#727296" opacity=".76" r="8.5"/><circle cx="1074.4" cy="256.8" fill="#727296" opacity=".76" r="7.2"/><circle cx="1054.2" cy="256.8" fill="#727296" opacity=".76" r="9.6"/><circle cx="1074.4" cy="285.9" fill="#727296" opacity=".76" r="14.6"/><circle cx="926.3" cy="315.9" fill="#727296" opacity=".76" r="8.3"/><circle cx="969.8" cy="307.9" fill="#727296" opacity=".76" r="12"/><circle cx="807.6" cy="343.3" fill="#727296" opacity=".76" r="3.9"/><circle cx="833.4" cy="322" fill="#727296" opacity=".76" r="10.9"/><circle cx="926.3" cy="245.1" fill="#727296" opacity=".76" r="14.6"/><circle cx="958.9" cy="137.4" fill="#727296" opacity=".76" r="3.9"/><circle cx="988.5" cy="125.6" fill="#727296" opacity=".76" r="8"/><circle cx="981.8" cy="200.2" fill="#727296" opacity=".76" r="14.6"/><circle cx="969.8" cy="158.5" fill="#727296" opacity=".76" r="22.6"/><circle cx="947.2" cy="260.9" fill="#727296" opacity=".76" r="7.2"/><circle cx="874.6" cy="301.2" fill="#727296" opacity=".76" r="9.8"/><circle cx="992.6" cy="277.9" fill="#727296" opacity=".76" r="16.5"/></svg>