<svg enable-background="new 0 0 256 256" viewBox="0 0 256 256" xmlns="http://www.w3.org/2000/svg"><path d="m128.5 11-127.9 221.5h255.8zm-112.3 212.5 112.3-194.5 112.3 194.5m-146.3-63.5c0 7.1-5.8 12.9-12.9 12.9s-12.9-5.8-12.9-12.9 5.8-12.9 12.9-12.9 12.9 5.8 12.9 12.9zm75.2-34.1c0 21.8-17.7 39.5-39.5 39.5s-39.5-17.7-39.5-39.5 17.7-39.5 39.5-39.5 39.5 17.7 39.5 39.5zm-32.5 66.3c0 12.6-10.2 22.8-22.8 22.8s-22.8-10.2-22.8-22.8 10.2-22.8 22.8-22.8 22.8 10.2 22.8 22.8zm51.4-12.4c0 9.9-8.1 18-18 18s-18-8.1-18-18 8.1-18 18-18c10 0 18 8 18 18zm-31 26c0 4.8-3.9 8.7-8.7 8.7s-8.7-3.9-8.7-8.7 3.9-8.7 8.7-8.7 8.7 3.9 8.7 8.7zm-17.4-134c0 3.8-3.1 7-7 7s-7-3.1-7-7c0-3.8 3.1-7 7-7s7 3.2 7 7z"/></svg>