<svg xmlns="http://www.w3.org/2000/svg" xmlns:xlink="http://www.w3.org/1999/xlink" width="650" height="430" viewBox="0 0 650 430"><defs><style>.a,.c,.p{fill:none;}.a{stroke:#7a7a7a;stroke-linecap:round;stroke-linejoin:round;}.b{isolation:isolate;font-size:16px;fill:#999;font-family:Roboto Mono;}.c,.p{stroke:#a3a2a2;}.c,.d,.e,.f,.g,.h,.i,.j,.k,.l,.m,.n,.o,.p{stroke-miterlimit:10;}.c{stroke-width:0.98px;}.d{fill:#dfdfdf;}.d,.e,.f,.g,.h,.i,.j,.k,.l,.m,.n,.o{stroke:#7c7c7c;stroke-width:1.1px;}.e{fill:#d8d8d8;}.f{fill:#d2d2d2;}.g{fill:#cbcbcb;}.h{fill:#c5c5c5;}.i{fill:#e6e6e6;}.j{fill:#e1e1e1;}.k{fill:#ddd;}.l{fill:#d4d4d4;}.m{fill:#d0d0d0;}.n{fill:#c7c7c7;}.o{fill:#c2c2c2;}</style><symbol id="a" viewBox="0 0 13.3 13.3"><line class="a" x1="2.3" y1="2.3" x2="11" y2="11"/><line class="a" x1="2.3" y1="11" x2="11" y2="2.3"/><line class="a" x1="0.5" y1="6.6" x2="12.8" y2="6.6"/><line class="a" x1="6.7" y1="0.5" x2="6.7" y2="12.8"/></symbol></defs><title>letter-value-box-plot</title><text class="b" transform="translate(121.5 424.1)">aa</text><text class="b" transform="translate(255.7 423.5)">bb</text><text class="b" transform="translate(390.5 423.5)">cc</text><text class="b" transform="translate(525.5 423.5)">dd</text><text class="b" transform="translate(29.3 380.5) rotate(-90)">−4</text><text class="b" transform="translate(29.3 294.3) rotate(-90)">−2</text><text class="b" transform="translate(29.3 197.7) rotate(-90)">0</text><text class="b" transform="translate(29.3 111.5) rotate(-90)">2</text><text class="b" transform="translate(29.3 25.4) rotate(-90)">4</text><polyline class="c" points="43.1 402.4 642.4 402.4 642.4 7.7 43.1 7.7 43.1 402.4"/><use width="13.3" height="13.29" transform="matrix(1.1, 0, 0, -1.1, 123.13, 261.83)" xlink:href="#a"/><use width="13.3" height="13.29" transform="matrix(1.1, 0, 0, -1.1, 123.13, 274.74)" xlink:href="#a"/><use width="13.3" height="13.29" transform="matrix(1.1, 0, 0, -1.1, 123.13, 270.55)" xlink:href="#a"/><use width="13.3" height="13.29" transform="matrix(1.1, 0, 0, -1.1, 123.13, 287.87)" xlink:href="#a"/><use width="13.3" height="13.29" transform="matrix(1.1, 0, 0, -1.1, 123.13, 295.15)" xlink:href="#a"/><use width="13.3" height="13.29" transform="matrix(1.1, 0, 0, -1.1, 123.13, 304.75)" xlink:href="#a"/><use width="13.3" height="13.29" transform="matrix(1.1, 0, 0, -1.1, 123.13, 301.89)" xlink:href="#a"/><use width="13.3" height="13.29" transform="matrix(1.1, 0, 0, -1.1, 123.13, 314.13)" xlink:href="#a"/><use width="13.3" height="13.29" transform="matrix(1.1, 0, 0, -1.1, 392.76, 30.97)" xlink:href="#a"/><use width="13.3" height="13.29" transform="matrix(1.1, 0, 0, -1.1, 392.76, 35.71)" xlink:href="#a"/><use width="13.3" height="13.29" transform="matrix(1.1, 0, 0, -1.1, 392.76, 56.46)" xlink:href="#a"/><use width="13.3" height="13.29" transform="matrix(1.1, 0, 0, -1.1, 392.76, 58.55)" xlink:href="#a"/><use width="13.3" height="13.29" transform="matrix(1.1, 0, 0, -1.1, 393.09, 68.05)" xlink:href="#a"/><use width="13.3" height="13.29" transform="matrix(1.1, 0, 0, -1.1, 392.76, 368.32)" xlink:href="#a"/><use width="13.3" height="13.29" transform="matrix(1.1, 0, 0, -1.1, 392.76, 373.51)" xlink:href="#a"/><use width="13.3" height="13.29" transform="matrix(1.1, 0, 0, -1.1, 392.76, 393.59)" xlink:href="#a"/><use width="13.3" height="13.29" transform="matrix(1.1, 0, 0, -1.1, 392.76, 360.48)" xlink:href="#a"/><use width="13.3" height="13.29" transform="matrix(1.1, 0, 0, -1.1, 392.76, 364.68)" xlink:href="#a"/><use width="13.3" height="13.29" transform="matrix(1.1, 0, 0, -1.1, 258.22, 332.45)" xlink:href="#a"/><use width="13.3" height="13.29" transform="matrix(1.1, 0, 0, -1.1, 258.22, 334.99)" xlink:href="#a"/><use width="13.3" height="13.29" transform="matrix(1.1, 0, 0, -1.1, 258.22, 349.78)" xlink:href="#a"/><use width="13.3" height="13.29" transform="matrix(1.1, 0, 0, -1.1, 258.22, 346.58)" xlink:href="#a"/><use width="13.3" height="13.29" transform="matrix(1.1, 0, 0, -1.1, 258.22, 59)" xlink:href="#a"/><use width="13.3" height="13.29" transform="matrix(1.1, 0, 0, -1.1, 258.22, 68.82)" xlink:href="#a"/><use width="13.3" height="13.29" transform="matrix(1.1, 0, 0, -1.1, 258.22, 71.14)" xlink:href="#a"/><use width="13.3" height="13.29" transform="matrix(1.1, 0, 0, -1.1, 258.22, 86.47)" xlink:href="#a"/><use width="13.3" height="13.29" transform="matrix(1.1, 0, 0, -1.1, 258.22, 48.95)" xlink:href="#a"/><use width="13.3" height="13.29" transform="matrix(1.1, 0, 0, -1.1, 258.22, 364.13)" xlink:href="#a"/><use width="13.3" height="13.29" transform="matrix(1.1, 0, 0, -1.1, 527.75, 352.87)" xlink:href="#a"/><use width="13.3" height="13.29" transform="matrix(1.1, 0, 0, -1.1, 527.75, 334)" xlink:href="#a"/><use width="13.3" height="13.29" transform="matrix(1.1, 0, 0, -1.1, 527.75, 336.65)" xlink:href="#a"/><use width="13.3" height="13.29" transform="matrix(1.1, 0, 0, -1.1, 123.13, 115.72)" xlink:href="#a"/><use width="13.3" height="13.29" transform="matrix(1.1, 0, 0, -1.1, 123.13, 119.14)" xlink:href="#a"/><use width="13.3" height="13.29" transform="matrix(1.1, 0, 0, -1.1, 123.13, 122.56)" xlink:href="#a"/><use width="13.3" height="13.29" transform="matrix(1.1, 0, 0, -1.1, 123.13, 127.64)" xlink:href="#a"/><use width="13.3" height="13.29" transform="matrix(1.1, 0, 0, -1.1, 123.13, 123.88)" xlink:href="#a"/><use width="13.3" height="13.29" transform="matrix(1.1, 0, 0, -1.1, 123.13, 138.12)" xlink:href="#a"/><use width="13.3" height="13.29" transform="matrix(1.1, 0, 0, -1.1, 123.13, 139.33)" xlink:href="#a"/><use width="13.3" height="13.29" transform="matrix(1.1, 0, 0, -1.1, 123.13, 88.57)" xlink:href="#a"/><use width="13.3" height="13.29" transform="matrix(1.1, 0, 0, -1.1, 123.13, 81.18)" xlink:href="#a"/><use width="13.3" height="13.29" transform="matrix(1.1, 0, 0, -1.1, 123.13, 96.19)" xlink:href="#a"/><use width="13.3" height="13.29" transform="matrix(1.1, 0, 0, -1.1, 123.13, 88.57)" xlink:href="#a"/><use width="13.3" height="13.29" transform="matrix(1.1, 0, 0, -1.1, 123.13, 81.18)" xlink:href="#a"/><use width="13.3" height="13.29" transform="matrix(1.1, 0, 0, -1.1, 527.86, 131.61)" xlink:href="#a"/><use width="13.3" height="13.29" transform="matrix(1.1, 0, 0, -1.1, 527.86, 122.45)" xlink:href="#a"/><use width="13.3" height="13.29" transform="matrix(1.1, 0, 0, -1.1, 527.86, 113.4)" xlink:href="#a"/><use width="13.3" height="13.29" transform="matrix(1.1, 0, 0, -1.1, 527.86, 95.08)" xlink:href="#a"/><rect class="d" x="522.3" y="133.2" width="25.7" height="184.48"/><rect class="e" x="507.1" y="140.4" width="55.9" height="167.41"/><rect class="f" x="499" y="150.7" width="72.1" height="147.14"/><rect class="g" x="493.9" y="167.8" width="82.5" height="111.19"/><rect class="h" x="489.9" y="189.7" width="90.5" height="63.77"/><rect class="i" x="395" y="64.6" width="10.5" height="283.19"/><rect class="j" x="389.7" y="72.6" width="21.1" height="261.52"/><rect class="k" x="384.5" y="79.9" width="31.6" height="245.7"/><rect class="e" x="379.2" y="93.1" width="42.3" height="221.37"/><rect class="l" x="373.8" y="105" width="52.7" height="198.3"/><rect class="m" x="368.5" y="118.5" width="63.3" height="169.34"/><rect class="g" x="363.3" y="134.9" width="73.8" height="134.8"/><rect class="n" x="358" y="152.5" width="84.5" height="99.69"/><rect class="o" x="352.7" y="174.5" width="95" height="55.92"/><rect class="i" x="257.8" y="79.5" width="15.1" height="242.38"/><rect class="d" x="250.4" y="90.8" width="30.2" height="220.15"/><rect class="e" x="242.9" y="108.7" width="45.1" height="181.82"/><rect class="f" x="235.3" y="126.1" width="60.3" height="147.14"/><rect class="g" x="227.8" y="143.2" width="75.4" height="111.19"/><rect class="h" x="220.1" y="164.9" width="90.5" height="63.77"/><rect class="i" x="257.8" y="79.5" width="15.1" height="242.38"/><rect class="d" x="250.4" y="90.8" width="30.2" height="220.15"/><rect class="e" x="242.9" y="108.7" width="45.1" height="181.82"/><rect class="f" x="235.3" y="126.1" width="60.3" height="147.14"/><rect class="g" x="227.8" y="143.2" width="75.4" height="111.19"/><rect class="h" x="220.1" y="164.9" width="90.5" height="63.77"/><rect class="i" x="112.9" y="136" width="35.2" height="117.77"/><rect class="f" x="95.2" y="166.7" width="70.4" height="62.24"/><line class="p" x1="38" y1="192.7" x2="43.1" y2="192.7"/><line class="p" x1="38" y1="192.7" x2="43.1" y2="192.7"/><line class="p" x1="38" y1="279.5" x2="43.1" y2="279.5"/><line class="p" x1="38" y1="279.5" x2="43.1" y2="279.5"/><line class="p" x1="38" y1="364" x2="43.1" y2="364"/><line class="p" x1="38" y1="106.3" x2="43.1" y2="106.3"/><line class="p" x1="38" y1="20.5" x2="43.1" y2="20.5"/><line class="p" x1="131.1" y1="408.4" x2="131.1" y2="403.3"/><line class="p" x1="265.3" y1="407.8" x2="265.3" y2="402.7"/><line class="p" x1="400.1" y1="407.8" x2="400.1" y2="402.7"/><line class="p" x1="535.1" y1="407.8" x2="535.1" y2="402.7"/></svg>