<svg enable-background="new 0 0 1268 418" viewBox="0 0 1268 418" xmlns="http://www.w3.org/2000/svg"><path d="m52.3 8v372.3h1189.7" fill="none" stroke="#ccc" stroke-miterlimit="10" stroke-width="1.2"/><path d="m472.4 149.9-4.5-6.2c-7.8-10.9-14-22.7-18.6-35.3l-5.9-16.1c-.3-.5-.8-.9-1.4-.8-.6 0-1.1.3-1.4.8l-5.9 16.1c-4.6 12.5-10.8 24.4-18.6 35.3l-4.5 6.2c-10.9 14.5-12.8 33.8-4.9 50.1l10.2 21.4c7.5 15.7 13.4 32.2 17.6 49.1l6 19.5c.2.5.7.8 1.3.8s1.1-.3 1.3-.8l6-19.5c4.1-17 10-33.4 17.6-49.1l10.1-21.4c3.2-6.5 4.8-13.7 4.8-21 .4-10.1-2.9-20.2-9.2-29.1z" fill="#b5aec7"/><path d="m441.9 391.3v-11.4" fill="none" stroke="#ccc" stroke-miterlimit="10" stroke-width="1.2"/><text fill="#ccc" font-family="'RobotoMono-Regular'" font-size="18" transform="translate(421.3162 413.4)">2012</text><path d="m780.8 248.3c0-7.3-1.6-14.5-4.8-21l-10.1-21.4c-7.6-15.7-13.5-43.1-17.6-60.1l-6-29.5c-.2-.5-.7-.8-1.3-.8s-1.1.3-1.3.8l-6 29.5c-4.2 16.9-10.1 44.4-17.6 60.1l-10.2 21.4c-7.9 16.3-6 35.6 4.9 50.1l4.5 6.2c7.8 10.9 14 22.8 18.6 35.3l5.9 16.1c.3.5.8.8 1.4.8.6.1 1.1-.3 1.4-.8l5.9-16.1c4.6-12.6 10.8-24.4 18.6-35.3l4.5-6.2c6.3-8.9 9.6-19 9.2-29.1z" fill="#b5aec7"/><path d="m741.1 391.3v-11.4" fill="none" stroke="#ccc" stroke-miterlimit="10" stroke-width="1.2"/><text fill="#ccc" font-family="'RobotoMono-Regular'" font-size="18" transform="translate(720.4591 413.4)">2014</text><path d="m591.4 37.4c1.9 4.6 3 9.5 3.2 14.5l2.3 62.3c.8 21.5 10.5 41.8 26.7 56 7.8 6.8 11 17.5 8.1 27.5-3.1 10.6-3 22 .4 32.5l3.5 11.2c4.1 13.1.3 27.4-9.7 36.8-13.1 12.2-22.1 28-25.9 45.5l-8.3 38.2c-.2.2-.5.3-.7.1 0 0-.1-.1-.1-.1l-8.2-38.1c-3.8-17.5-12.8-33.3-25.9-45.5-10.1-9.4-13.9-23.7-9.7-36.8l3.5-11.2c3.4-10.5 3.5-21.9.4-32.5-2.9-10 .3-20.7 8.1-27.5 16.3-14.2 25.9-34.4 26.7-56l2.3-62.3c.4-5 1.5-9.9 3.3-14.6z" fill="#b5aec7"/><path d="m591.4 391.3v-11.4" fill="none" stroke="#ccc" stroke-miterlimit="10" stroke-width="1.2"/><text fill="#ccc" font-family="'RobotoMono-Regular'" font-size="18" transform="translate(574.6226 413.4)">2013</text><path d="m1040.2 342.9c-1.9-4.1-3.1-8.4-3.4-12.8l-2.3-55c-.8-19-10.4-36.9-26.7-49.4-7.8-6-11-15.5-8.1-24.3 3.1-9.4 3-19.4-.4-28.7l-3.5-9.9c-4.2-11.6-.4-24.2 9.7-32.5 13.1-10.7 22.1-24.7 25.9-40.1l8.2-33.6s.1-.1.1-.1c.2-.1.5-.1.7.1l8.3 33.7c3.8 15.4 12.8 29.4 25.9 40.1 10 8.3 13.8 20.9 9.7 32.5l-3.5 9.9c-3.4 9.3-3.5 19.3-.4 28.7 2.9 8.8-.3 18.2-8.1 24.3-16.2 12.5-25.9 30.4-26.7 49.4l-2.3 55c-.2 4.4-1.3 8.7-3.1 12.7z" fill="#b5aec7"/><path d="m1040.1 391.3v-11.4" fill="none" stroke="#ccc" stroke-miterlimit="10" stroke-width="1.2"/><text fill="#ccc" font-family="'RobotoMono-Regular'" font-size="18" transform="translate(1023.3368 413.4)">2016</text><path d="m175.8 211.9-9.8-32.8c-3.9-13-5.2-26.6-3.9-40.1l2.4-24.8c1.1-11.3.1-22.8-2.9-33.8l-17.6-59.2c-.2-.6-.8-1.1-1.4-1.1-.7 0-1.3.4-1.4 1.1l-17.5 59.3c-3 11-4 22.5-2.9 33.8l2.4 24.8c1.3 13.5 0 27.1-3.9 40.1l-9.9 32.8c-7 23.3-5.7 48.2 3.5 70.7l28.3 65.3c.2.6.8 1 1.5 1s1.3-.4 1.5-1l28.3-65.5c9.2-22.5 10.3-47.4 3.3-70.6z" fill="#b5aec7"/><path d="m142.5 391.3v-11.4" fill="none" stroke="#ccc" stroke-miterlimit="10" stroke-width="1.2"/><text fill="#ccc" font-family="'RobotoMono-Regular'" font-size="18" transform="translate(118.2 413.4)">2010</text><path d="m1222.8 135.8c7-20.1 5.9-41.7-3.3-61.2l-28.3-56.8c-.2-.5-.8-.9-1.5-.9s-1.3.3-1.5.9l-28.3 56.6c-9.2 19.5-10.5 41.1-3.5 61.3l9.9 28.4c3.9 11.3 5.2 23.1 3.9 34.8l-2.4 18.5c-1.1 9.8.9 16.8 3.9 26.3l17.5 51.4c.1.6.7 1 1.4 1 .6 0 1.2-.4 1.4-1l17.6-51.3c3-9.5 3-16.5 1.9-26.3l-2.4-18.5c-1.3-11.7 0-23.5 3.9-34.8z" fill="#b5aec7"/><path d="m1189.5 391.3v-11.4" fill="none" stroke="#ccc" stroke-miterlimit="10" stroke-width="1.2"/><text fill="#ccc" font-family="'RobotoMono-Regular'" font-size="18" transform="translate(1165.2 413.4)">2017</text><path d="m322.3 117.7-.2-.5-14.9-31.2-13.2-31.8c-.3-.7-1-1.2-1.8-1.3-.8 0-1.5.5-1.8 1.3l-13.2 31.8c-4.4 10.7-9.4 21.2-14.8 31.3l-.2.5c-9.9 18.8-13 40.5-8.8 61.4l23.6 118.8c1.8 9.2 7.1 17.6 13 24.3.5.6 1.2.9 2 .9h.1c.8 0 1.5-.3 2-.9 5.9-6.8 11.2-15.2 13-24.3l23.7-118.8c4.4-20.9 1.4-42.6-8.5-61.5z" fill="#b5aec7"/><path d="m292.6 391.3v-11.4" fill="none" stroke="#ccc" stroke-miterlimit="10" stroke-width="1.2"/><text fill="#ccc" font-family="'RobotoMono-Regular'" font-size="18" transform="translate(271.8376 413.4)">2011</text><path d="m929.1 196.9-23.7-118.8c-1.8-9.1-7.1-17.5-13-24.3-.5-.6-1.2-.9-2-.9h-.1c-.8 0-1.5.3-2 .9-5.9 6.7-11.2 15.1-13 24.3l-23.6 118.8c-4.2 20.9-1.1 42.6 8.8 61.4l.2.5c5.4 10.1 10.4 20.6 14.8 31.3l13.2 31.8c.3.8 1 1.3 1.8 1.3.8-.1 1.5-.6 1.8-1.3l13.2-31.8 14.9-31.2.2-.5c9.9-18.9 12.9-40.6 8.5-61.5z" fill="#b5aec7"/><path d="m890.9 391.3v-11.4" fill="none" stroke="#ccc" stroke-miterlimit="10" stroke-width="1.2"/><text fill="#ccc" font-family="'RobotoMono-Regular'" font-size="18" transform="translate(870.1233 413.4)">2015</text><g fill="none" stroke="#ccc" stroke-miterlimit="10" stroke-width="1.2"><path d="m40.8 291.1h12"/><path d="m40.8 202.1h12"/><path d="m40.8 114.3h12"/><path d="m40.8 25.3h12"/></g><text fill="#ccc" font-family="'RobotoCondensed-Regular'" font-size="18" transform="translate(13 209.3)">40</text><text fill="#ccc" font-family="'RobotoCondensed-Regular'" font-size="18" transform="translate(13 122.7)">60</text><text fill="#ccc" font-family="'RobotoCondensed-Regular'" font-size="18" transform="translate(13 33.7)">80</text><text fill="#ccc" font-family="'RobotoCondensed-Regular'" font-size="18" transform="translate(13 296.4)">20</text></svg>