<?xml version="1.0" encoding="utf-8"?>
<!-- Generator: Adobe Illustrator 24.0.1, SVG Export Plug-In . SVG Version: 6.00 Build 0)  -->
<svg version="1.1" id="Layer_1" xmlns="http://www.w3.org/2000/svg" xmlns:xlink="http://www.w3.org/1999/xlink" x="0px" y="0px"
	 viewBox="0 0 1268 418" style="enable-background:new 0 0 1268 418;" xml:space="preserve">
<style type="text/css">
	.st0{fill:#E3E3E3;}
	.st1{fill:none;stroke:#D8D8D8;stroke-width:1.695;}
	.st2{fill:#C6BFCF;stroke:#FFFFFF;stroke-width:1.695;}
</style>
<g>
	
		<rect x="1082.1" y="75" transform="matrix(0.7218 -0.6921 0.6921 0.7218 246.5265 772.4193)" class="st0" width="3.8" height="9.2"/>
	
		<rect x="1108.8" y="106.6" transform="matrix(0.8415 -0.5402 0.5402 0.8415 115.9656 617.6815)" class="st0" width="3.8" height="9.2"/>
	<path class="st1" d="M1084.1,400.8c45.1-46.9,69.9-111.6,66.6-174.1c-4.2-79.3-53-152-119.9-185.9s-149.4-28-208.3,10.9
		s-92.6,108.9-88.4,175c4.2,66.1,45.5,125.9,101,153.1c55.5,27.2,122.9,21.4,170.4-10.9c47.5-32.3,73.6-89.2,69.4-142.1
		s-38-99.7-82-120.3s-96.5-14.7-132.5,10.9c-36,25.7-54.7,69.7-50.5,109.3c4.2,39.7,30.5,73.5,63.1,87.5c32.6,14,70.1,8.1,94.7-10.9
		c24.6-19.1,35.8-50.1,31.5-76.5s-23-47.3-44.2-54.7c-21.2-7.4-43.6-1.5-56.8,10.9s-16.9,30.5-12.6,43.7"/>
	<circle class="st2" cx="925.6" cy="170" r="18.3"/>
	<circle class="st2" cx="956.7" cy="172.3" r="11"/>
	<circle class="st2" cx="981.2" cy="189.9" r="16.5"/>
	<circle class="st2" cx="996.6" cy="216.1" r="9.5"/>
	<circle class="st2" cx="999.5" cy="247.1" r="14.2"/>
	<circle class="st2" cx="989.7" cy="276.6" r="21.9"/>
	<circle class="st2" cx="970.3" cy="300.8" r="11.4"/>
	<circle class="st2" cx="942.8" cy="316.6" r="13.2"/>
	<circle class="st2" cx="911.4" cy="321.7" r="21.3"/>
	<circle class="st2" cx="880" cy="317.3" r="14.8"/>
	<circle class="st2" cx="852" cy="301.7" r="11.2"/>
	<circle class="st2" cx="830" cy="278.9" r="19.6"/>
	<circle class="st2" cx="815.5" cy="251" r="15.6"/>
	<circle class="st2" cx="809" cy="218.9" r="14"/>
	<circle class="st2" cx="812.8" cy="186.9" r="5.4"/>
	<circle class="st2" cx="824.7" cy="157.1" r="20.2"/>
	<circle class="st2" cx="843.6" cy="131.7" r="13.9"/>
	
		<ellipse transform="matrix(0.1602 -0.9871 0.9871 0.1602 619.3536 951.788)" class="st2" cx="869" cy="111.9" rx="16.3" ry="16.3"/>
	<circle class="st2" cx="898.1" cy="99.5" r="9.1"/>
	<circle class="st2" cx="930" cy="94" r="15.6"/>
	<circle class="st2" cx="961.7" cy="96.9" r="7.5"/>
	<circle class="st2" cx="992.2" cy="106.3" r="6.8"/>
	<circle class="st2" cx="1019.6" cy="122.9" r="9.8"/>
	<circle class="st2" cx="1042.1" cy="146.3" r="16.4"/>
	<circle class="st2" cx="1059.2" cy="172.3" r="15.8"/>
	<circle class="st2" cx="1070.8" cy="202.7" r="10.3"/>
	<circle class="st2" cx="1075.7" cy="233.4" r="13.9"/>
	<circle class="st2" cx="1072.9" cy="265.1" r="20.3"/>
	<circle class="st2" cx="1063.8" cy="296" r="27.3"/>
	<circle class="st2" cx="1048.7" cy="324.9" r="24.5"/>
	<circle class="st2" cx="1029" cy="349.4" r="14.1"/>
	<circle class="st2" cx="1004.4" cy="369.5" r="25.2"/>
	<circle class="st2" cx="975.3" cy="384.5" r="15.2"/>
	<circle class="st2" cx="944.4" cy="393.7" r="12.3"/>
	<circle class="st2" cx="912.3" cy="397.1" r="17.5"/>
	<circle class="st2" cx="880.1" cy="394.6" r="17.5"/>
	<circle class="st2" cx="849.4" cy="386.3" r="14.6"/>
	<circle class="st2" cx="819.8" cy="371.4" r="8.1"/>
	<circle class="st2" cx="794.5" cy="352.2" r="12.3"/>
	<circle class="st2" cx="772.3" cy="327.9" r="10.3"/>
	<circle class="st2" cx="755.1" cy="300.6" r="10.1"/>
	<circle class="st2" cx="742.7" cy="271.7" r="19.9"/>
	<circle class="st2" cx="735" cy="239.6" r="19.6"/>
	<circle class="st2" cx="733.6" cy="207.1" r="13.7"/>
	<circle class="st2" cx="738.3" cy="175" r="25.1"/>
	<circle class="st2" cx="747.8" cy="144.4" r="22"/>
	<circle class="st2" cx="762.3" cy="115" r="30.4"/>
	<circle class="st2" cx="780.8" cy="88.6" r="27.2"/>
	<circle class="st2" cx="803.9" cy="65.8" r="27.1"/>
	<circle class="st2" cx="830.6" cy="46.5" r="22.6"/>
	<circle class="st2" cx="859.8" cy="32.8" r="22"/>
	<circle class="st2" cx="890.8" cy="23.1" r="17.9"/>
	<circle class="st2" cx="922.4" cy="18.9" r="10.2"/>
	<circle class="st2" cx="955.5" cy="19.6" r="11.4"/>
	<circle class="st2" cx="987.2" cy="24.9" r="18.3"/>
	<circle class="st2" cx="1017.8" cy="34.9" r="9.2"/>
	<circle class="st2" cx="1046.5" cy="49.9" r="13"/>
	<circle class="st2" cx="1072.5" cy="68.9" r="17.8"/>
	<circle class="st2" cx="1095.2" cy="91.9" r="16.8"/>
	<circle class="st2" cx="1113.9" cy="116.8" r="12.2"/>
	<circle class="st2" cx="1130.3" cy="145.6" r="14.2"/>
	<circle class="st2" cx="1141.5" cy="176.1" r="8.6"/>
	<circle class="st2" cx="1149.2" cy="208.2" r="12.4"/>
	<circle class="st2" cx="1151" cy="239.1" r="19.7"/>
	<circle class="st2" cx="1148.3" cy="270.9" r="22.4"/>
	<circle class="st2" cx="1141.4" cy="303.2" r="26"/>
	<circle class="st2" cx="1129.8" cy="333.1" r="9.8"/>
	<circle class="st2" cx="1115" cy="361.6" r="20"/>
	<circle class="st2" cx="1095.9" cy="387.9" r="15.5"/>
	<circle class="st2" cx="898.5" cy="181.9" r="13.9"/>
	<circle class="st2" cx="883.9" cy="211.2" r="14.4"/>
</g>
<g>
	
		<rect x="186.4" y="77.7" transform="matrix(0.6921 -0.7218 0.7218 0.6921 1.3642 162.3636)" class="st0" width="9.2" height="3.8"/>
	
		<rect x="159.7" y="109.3" transform="matrix(0.5402 -0.8415 0.8415 0.5402 -18.045 189.3628)" class="st0" width="9.2" height="3.8"/>
	<path class="st1" d="M389.5,226.7c4.2-13.2,0.5-31.3-12.6-43.7s-35.6-18.3-56.8-10.9c-21.2,7.4-39.9,28.2-44.2,54.7
		s6.9,57.5,31.5,76.5c24.6,19.1,62,24.9,94.7,10.9s58.9-47.8,63.1-87.5c4.2-39.7-14.5-83.6-50.5-109.3s-88.5-31.5-132.5-10.9
		s-77.8,67.4-82,120.3c-4.2,52.9,21.9,109.8,69.4,142.1S384.5,407,440,379.8s96.8-87,101-153.1c4.2-66.1-29.5-136.1-88.4-175
		S311.2,7,244.3,40.8S128.6,147.3,124.4,226.7c-3.4,62.1,21.1,126.4,65.7,173.2"/>
	<circle class="st2" cx="349.4" cy="170" r="18.3"/>
	<circle class="st2" cx="318.3" cy="172.3" r="11"/>
	<circle class="st2" cx="293.8" cy="189.9" r="16.5"/>
	<circle class="st2" cx="278.4" cy="216.1" r="9.5"/>
	<circle class="st2" cx="275.5" cy="247.1" r="14.2"/>
	<circle class="st2" cx="285.3" cy="276.6" r="21.9"/>
	<circle class="st2" cx="304.7" cy="300.8" r="11.4"/>
	<circle class="st2" cx="332.2" cy="316.6" r="13.2"/>
	<circle class="st2" cx="363.6" cy="321.7" r="21.3"/>
	<circle class="st2" cx="395" cy="317.3" r="14.8"/>
	<circle class="st2" cx="423" cy="301.7" r="11.2"/>
	<circle class="st2" cx="445" cy="278.9" r="19.6"/>
	<circle class="st2" cx="459.5" cy="251" r="15.6"/>
	<circle class="st2" cx="466" cy="218.9" r="14"/>
	<circle class="st2" cx="462.2" cy="186.9" r="5.4"/>
	<circle class="st2" cx="450.3" cy="157.1" r="20.2"/>
	<circle class="st2" cx="431.4" cy="131.7" r="13.9"/>
	<circle class="st2" cx="406" cy="111.9" r="16.3"/>
	<circle class="st2" cx="376.9" cy="99.5" r="9.1"/>
	<circle class="st2" cx="345" cy="94" r="15.6"/>
	<circle class="st2" cx="313.3" cy="96.9" r="7.5"/>
	<circle class="st2" cx="282.8" cy="106.3" r="6.8"/>
	<circle class="st2" cx="255.4" cy="122.9" r="9.8"/>
	<circle class="st2" cx="232.9" cy="146.3" r="16.4"/>
	<circle class="st2" cx="215.8" cy="172.3" r="15.8"/>
	<circle class="st2" cx="204.2" cy="202.7" r="10.3"/>
	<circle class="st2" cx="199.3" cy="233.4" r="13.9"/>
	<circle class="st2" cx="202.1" cy="265.1" r="20.3"/>
	<circle class="st2" cx="211.2" cy="296" r="27.3"/>
	<circle class="st2" cx="226.3" cy="324.9" r="24.5"/>
	<circle class="st2" cx="246" cy="349.4" r="14.1"/>
	<circle class="st2" cx="270.6" cy="369.5" r="25.2"/>
	<circle class="st2" cx="299.7" cy="384.5" r="15.2"/>
	<circle class="st2" cx="330.6" cy="393.7" r="12.3"/>
	<circle class="st2" cx="362.7" cy="397.1" r="17.5"/>
	<circle class="st2" cx="394.9" cy="394.6" r="17.5"/>
	<circle class="st2" cx="425.6" cy="386.3" r="14.6"/>
	<circle class="st2" cx="455.2" cy="371.4" r="8.1"/>
	<circle class="st2" cx="480.5" cy="352.2" r="12.3"/>
	<circle class="st2" cx="502.7" cy="327.9" r="10.3"/>
	<circle class="st2" cx="519.9" cy="300.6" r="10.1"/>
	<circle class="st2" cx="532.3" cy="271.7" r="19.9"/>
	<circle class="st2" cx="540" cy="239.6" r="19.6"/>
	<circle class="st2" cx="541.4" cy="207.1" r="13.7"/>
	<circle class="st2" cx="536.7" cy="175" r="25.1"/>
	<circle class="st2" cx="527.2" cy="144.4" r="22"/>
	<circle class="st2" cx="512.7" cy="115" r="30.4"/>
	<circle class="st2" cx="494.2" cy="88.6" r="27.2"/>
	<circle class="st2" cx="471.1" cy="65.8" r="27.1"/>
	<circle class="st2" cx="444.4" cy="46.5" r="22.6"/>
	<circle class="st2" cx="415.2" cy="32.8" r="22"/>
	<circle class="st2" cx="384.2" cy="23.1" r="17.9"/>
	<circle class="st2" cx="352.6" cy="18.9" r="10.2"/>
	<circle class="st2" cx="319.5" cy="19.6" r="11.4"/>
	<circle class="st2" cx="287.8" cy="24.9" r="18.3"/>
	<circle class="st2" cx="257.2" cy="34.9" r="9.2"/>
	<circle class="st2" cx="228.5" cy="49.9" r="13"/>
	<circle class="st2" cx="202.5" cy="68.9" r="17.8"/>
	<circle class="st2" cx="179.8" cy="91.9" r="16.8"/>
	
		<ellipse transform="matrix(3.327797e-02 -0.9994 0.9994 3.327797e-02 39.0137 273.9903)" class="st2" cx="161.1" cy="116.8" rx="12.2" ry="12.2"/>
	<circle class="st2" cx="144.7" cy="145.6" r="14.2"/>
	<circle class="st2" cx="133.5" cy="176.1" r="8.6"/>
	<circle class="st2" cx="125.8" cy="208.2" r="12.4"/>
	<circle class="st2" cx="124" cy="239.1" r="19.7"/>
	<circle class="st2" cx="126.7" cy="270.9" r="22.4"/>
	<circle class="st2" cx="133.6" cy="303.2" r="26"/>
	<circle class="st2" cx="145.2" cy="333.1" r="9.8"/>
	<circle class="st2" cx="160" cy="361.6" r="20"/>
	<circle class="st2" cx="179.1" cy="387.9" r="15.5"/>
	<circle class="st2" cx="376.5" cy="181.9" r="13.9"/>
	<circle class="st2" cx="391.1" cy="211.2" r="14.4"/>
</g>
</svg>
