<svg height="252.3" viewBox="0 0 252.1 252.3" width="252.1" xmlns="http://www.w3.org/2000/svg"><path d="m254.2 254h-252v-252h11.8v240.2h240.2zm0-17.8v-127.3l-12.4-8.2-37 25.4-33.9-4.1-36 45.2-39 20.6-35-28.8-41.1 14v63.2z" transform="translate(-2.2 -1.7)"/><path d="m251.5 102.6-12.3-8.3-37.1 25.4-33.9-4.1-36 45.3-38.9 20.5-35.1-28.8-41.1 14.1.5-83 40.9-9.6 35-23.2 39.6 14.6 37.3-43.9 32.1 32.1 37.3-6.4 11.7-15.2" opacity=".5"/><path d="m252.1 0-234.4.7-.1 78.8 40.9-9.6 35-23.2 39.6 14.6 37.3-43.9 32.1 32.1 37.3-6.4 11.7-15.2" opacity=".75"/></svg>