<svg enable-background="new 0 0 650 523" height="523" viewBox="0 0 650 523" width="650" xmlns="http://www.w3.org/2000/svg">  <path d="m312.5 212.3c30-5.8 59.8 10.6 74.1 36.7 15.8 29 11.5 65.3-8 91.5-18.8 25.1-49.6 38.9-80.8 38.5-35-.6-67.8-19.4-87.7-47.9-17.7-25.7-24.3-57.7-19.2-88.3 5.6-32.6 23.2-61.8 49.5-81.8 28.1-21.4 63.3-31.3 98.4-27.8 32.8 3.3 63.6 17.4 87.5 40.1s40 52.3 46.2 84.7c6.3 34 1.9 69.1-12.8 100.4-15.4 32.3-40.4 59.1-71.6 76.7-28.1 15.7-60 23.7-92.2 23-33.4-.9-66-10.6-94.4-28.2-29.4-18.4-53.3-44.4-69.2-75.2-16.4-31.9-24-67.6-21.9-103.4 2-34.4 12.7-67.8 30.9-97 17.6-28.1 41.5-51.8 69.8-69.2 29.2-17.8 62.2-28.4 96.3-31.2 35.1-2.7 70.3 2.8 102.8 16.1 33.4 13.7 63.1 35.1 86.7 62.3 22.4 25.8 38.9 56.2 48.4 89.1 9.2 32.3 11.7 66.1 7.2 99.3-6.4 46.7-26 90.6-56.4 126.5" fill="none" stroke="#b4b4b4" stroke-width="2"/><g fill="#a0a0a0"><path d="m302.5 178.9h9.9v33.4h-9.9z"/><path d="m314 210.9 1.3-52.4 9.9.2-1.3 52.4z"/><path d="m325.7 210 4.3-21.4 9.7 2-4.3 21.4z"/><path d="m337.2 211.3 17.7-45.7 9.2 3.6-17.7 45.7z"/><path d="m348.5 214.4 9.1-15.3 8.5 5-9.1 15.3z"/><path d="m359 219.3 4.6-5.5 7.6 6.3-4.6 5.5z"/><path d="m368.6 226 42.5-37.4 6.5 7.4-42.5 37.4z"/><path d="m377.1 234.2 22.2-14.2 5.3 8.3-22.2 14.2z"/><path d="m384 243.3 19.7-8.8 4 9-19.7 8.8z"/><path d="m389.8 253.4 48.4-13.7 2.7 9.5-48.4 13.8z"/><path d="m393.8 264.4 2.2-.3 1.3 9.8-2.2.3z"/><path d="m394.6 274.7h62.1v9.9h-62.1z"/><path d="m395.8 297.1 1.4-9.8 44.4 6.2-1.4 9.8z"/><path d="m393.8 308.4 2.7-9.5 33.9 9.5-2.7 9.5z"/><path d="m390.2 319.4 3.9-9.1 49 20.9-3.9 9.1z"/><path d="m385.4 329.7 5-8.5 9.8 5.8-5 8.5z"/><path d="m379.3 339.6 6.1-7.8 14.2 11-6.1 7.8z"/><path d="m372 348.4 7-7 31.8 31.6-7 7z"/><path d="m363.5 356.2 7.8-6.1 14.7 18.7-7.8 6.1z"/><path d="m354.3 363.1 8.5-5.2 6.3 10.3-8.5 5.2z"/><path d="m344.3 368.7 9-4.1 1 2.2-9 4.1z"/><path d="m333.6 373.2 9.4-3 4.4 13.7-9.4 3z"/><path d="m322.7 376.4 9.7-1.9.7 3.4-9.7 1.9z"/><path d="m311.2 378.2 9.9-.8 4.3 50.9-9.9.8z"/><path d="m298.8 415.8 1-36.9 9.9.3-1 36.9z"/><path d="m285.8 396.8 2.5-18.4 9.8 1.4-2.5 18.4z"/><path d="m267.3 414.9 9.6-38.5 9.6 2.4-9.6 38.5z"/><path d="m257.2 396.9 8.7-23.6 9.3 3.4-8.7 23.6z"/><path d="m250 379.6 5.2-10.6 8.9 4.4-5.2 10.6z"/><path d="m240 371.6 5.1-8 8.4 5.3-5.1 8z"/><path d="m197.2 405.9 38.2-48.6 7.8 6.1-38.2 48.6z"/><path d="m216.9 359.8 9.7-10.1 7.1 6.9-9.7 10.1z"/><path d="m194.3 362 24.2-20.4 6.4 7.6-24.2 20.4z"/><path d="m182.3 352.7 29.1-19.9 5.6 8.2-29.1 19.9z"/><path d="m161.1 347.1 43.9-24.1 4.8 8.7-43.9 24.1z"/><path d="m151.6 333.4 48.3-20.6 3.9 9.1-48.3 20.6z"/><path d="m139.2 319.9 56.5-17.9 3 9.4-56.5 17.9z"/><path d="m186.9 292.2 5.6-1.2 2.1 9.7-5.6 1.2z"/><path d="m130.5 286.6 59.8-7 1.1 9.8-59.8 7z"/><path d="m175.9 268.5 13.4-.3.2 9.9-13.4.3z"/><path d="m146.9 263.7.7-9.9 41.7 3-.7 9.9z"/><path d="m127.9 245 1.6-9.8 61 10-1.6 9.8z"/><path d="m130.9 228.1 2.5-9.6 59.2 15.4-2.5 9.6z"/><path d="m165.3 222.5 3.4-9.3 27 9.7-3.4 9.3z"/><path d="m166.6 207.7 4.2-9 29.2 13.6-4.2 9z"/><path d="m172.5 194.5 5-8.6 27.6 16-5 8.6z"/><path d="m194.6 192.7 5.7-8.1 10.6 7.4-5.7 8.1z"/><path d="m206 185.8 6.4-7.6 5.3 4.4-6.4 7.6z"/><path d="m196.1 158.8 7-7 22.2 22.3-7 7z"/><path d="m206.1 148.7 7.6-6.4 20.1 23.9-7.6 6.4z"/><path d="m227.7 154.7 8.1-5.7 7 9.9-8.1 5.7z"/><path d="m223.2 122.4 8.6-5 20.5 35.2-8.6 5z"/><path d="m234.2 110.9 8.9-4.3 19.2 40.5-8.9 4.3z"/><path d="m245.9 99.2 9.3-3.5 17.6 46.6-9.3 3.5z"/><path d="m260 91.5 9.5-2.7 14.1 49.6-9.5 2.7z"/><path d="m277.9 101.3 9.7-1.9 7.2 36.2-9.7 1.9z"/><path d="m290.8 86.4 9.8-1.1 5.5 48.4-9.8 1.1z"/><path d="m307 108 9.9-.3.8 24.9-9.9.3z"/><path d="m319.2 131.9 1.9-39.6 9.9.5-1.9 39.6z"/><path d="m331.6 132.9 2.4-18.1 9.8 1.3-2.4 18.1z"/><path d="m342.4 132.9 11.1-52.8 9.7 2-11.2 52.8z"/><path d="m353.7 134.7 4.2-14.2 9.5 2.8-4.2 14.2z"/><path d="m364.9 137.3 13.4-35.3 9.3 3.5-13.4 35.3z"/><path d="m375.9 141.1 19.3-40.8 9 4.2-19.3 40.8z"/><path d="m386.6 145.4 16.4-28.7 8.6 4.9-16.4 28.7z"/><path d="m396.8 150.7 22.7-33.5 8.2 5.6-22.7 33.4z"/><path d="m406.6 156.8 11.5-14.5 7.7 6.2-11.4 14.5z"/><path d="m416 163.5 10.9-11.8 7.3 6.7-10.9 11.8z"/><path d="m424.9 171 44.6-41.4 6.7 7.3-44.6 41.4z"/><path d="m433.1 179.1 1.6-1.2 6.2 7.7-1.6 1.2z"/><path d="m440.7 187.7 15.3-10.4 5.6 8.2-15.3 10.4z"/><path d="m449.5 198.5 46.2-26.6 5 8.7-46.2 26.6z"/><path d="m453.9 206.8 18.9-9.2 4.3 8.9-18.9 9.2z"/><path d="m459.2 217 38.9-15.5 3.7 9.2-38.9 15.5z"/><path d="m464 227.4 2.3-.7 3 9.4-2.3.7z"/><path d="m467.9 238.3 24.7-5.9 2.3 9.6-24.7 5.9z"/><path d="m471.1 249.5 26.6-4.4 1.6 9.8-26.6 4.4z"/><path d="m473.5 260.8 62.1-5.7.9 9.9-62.1 5.7z"/><path d="m474.9 272.2 30.1-.6.2 9.9-30.1.6z"/><path d="m475.1 293.5.5-9.9 10.6.5-.5 9.9z"/><path d="m474.5 305 1.2-9.8 54.6 6.6-1.2 9.8z"/><path d="m472.8 316.5 1.9-9.7 13.7 2.7-1.9 9.7z"/><path d="m470.3 327.7 2.5-9.6 6.3 1.7-2.5 9.6z"/><path d="m467.2 338.8 3.2-9.4 56.3 19.3-3.2 9.4z"/><path d="m463.4 349.7 3.8-9.1 11.9 5-3.8 9.1z"/><path d="m458.6 360 4.5-8.8 23 11.6-4.5 8.8z"/><path d="m453.4 370.6 5-8.5 6.8 4-5 8.5z"/><path d="m447.3 380.1 5.6-8.2 38.6 26.5-5.6 8.2z"/><path d="m440.7 389.5 6.1-7.8 27.4 21.7-6.1 7.8z"/><path d="m433.3 398.3 6.7-7.3 29 26.3-6.7 7.3z"/><path d="m425.4 406.7 7.1-6.9 5.5 5.7-7.1 6.9z"/><path d="m416.9 414.5 7.6-6.4 25.2 29.8-7.6 6.4z"/><path d="m408.1 421.9 8-5.9 10.3 14-8 5.9z"/><path d="m398.1 427.1 8.3-5.4 31.7 49.4-8.3 5.4z"/><path d="m388.9 434.6 8.7-4.8 20.9 38-8.7 4.8z"/><path d="m378.7 440 9-4.2 21.9 46.8-9 4.2z"/><path d="m368.2 444.7 9.2-3.6 13.8 35.2-9.2 3.6z"/><path d="m357.4 448.8 9.4-3 13.7 43-9.4 3z"/><path d="m346.3 452 9.6-2.4 3.4 13.8-9.6 2.4z"/><path d="m335.2 454.6 9.7-1.8 10.5 57.5-9.7 1.8z"/><path d="m323.8 456.4 9.8-1.2 7.2 61.3-9.8 1.2z"/><path d="m312.5 457.7 9.9-.5.1 2.4-9.9.5z"/><path d="m300.8 472.8.1-14.7 9.9.1-.1 14.7z"/><path d="m287.5 483.7 1.9-25.9 9.9.7-1.9 25.9z"/><path d="m272.8 493.4 5-36.7 9.8 1.3-5 36.7z"/><path d="m264.9 462.6 1.5-7.5 9.7 1.9-1.5 7.5z"/><path d="m244.7 492.2 10.5-39.6 9.6 2.5-10.5 39.6z"/><path d="m237 471 7.2-21.5 9.4 3.1-7.2 21.5z"/><path d="m211.3 500.6 22.2-55.1 9.2 3.7-22.2 55.1z"/><path d="m221.3 444.2 1.4-3 8.9 4.3-1.4 3z"/><path d="m209.5 441.5 2.9-5.3 8.7 4.8-2.9 5.3z"/><path d="m187.2 454.1 15.1-23.8 8.4 5.3-15.1 23.8z"/><path d="m163.7 464.2 29-40.1 8 5.8-29 40.1z"/><path d="m183.2 417.5.3-.4 7.7 6.3-.3.4z"/><path d="m136.1 451.5 38.6-41.8 7.3 6.7-38.6 41.8z"/><path d="m124 442.5 42.4-40.7 6.9 7.1-42.4 40.7z"/><path d="m153.9 397.4 4.8-4.1 6.4 7.5-4.8 4.1z"/><path d="m139.7 393.2 11.6-8.7 6 7.9-11.6 8.7z"/><path d="m92.3 409.8 52.3-34.8 5.5 8.2-52.3 34.8z"/><path d="m130 370.3 8.3-4.8 5 8.6-8.3 4.8z"/><path d="m104.2 369.7 28.4-14.4 4.5 8.8-28.4 14.4z"/><path d="m124.6 346.3 3-1.3 3.9 9.1-3 1.3z"/><path d="m93.6 345.2 29.6-10.9 3.4 9.3-29.6 10.9z"/><path d="m64.8 340.1 54.5-16.5 2.9 9.5-54.5 16.5z"/><path d="m114.7 312.9 1.6-.4 2.3 9.6-1.6.4z"/><path d="m95.9 304.5 17.8-3.2 1.8 9.7-17.8 3.2z"/><path d="m96.9 291.6 14.9-1.8 1.2 9.8-14.9 1.8z"/><path d="m53.7 282.1 56.8-3.7.6 9.9-56.7 3.7z"/><path d="m68.7 267.2 41.5-.3.1 9.9-41.5.3z"/><path d="m80 263.8.5-9.9 29.7 1.5-.5 9.9z"/><path d="m74.1 250.1 1-9.8 35.9 3.7-1 9.8z"/><path d="m93.1 239.4 1.6-9.8 17.6 2.9-1.6 9.8z"/><path d="m51.7 217.5 2.1-9.7 60.5 13.5-2.1 9.7z"/><path d="m89.3 212.6 2.7-9.5 24.9 7-2.7 9.5z"/><path d="m57.9 188.1 3.2-9.4 59 20.3-3.2 9.4z"/><path d="m69.5 176.6 3.7-9.2 50.9 20.7-3.7 9.2z"/><path d="m81.9 166.4 4.2-9 42.5 20.1-4.2 9z"/><path d="m76.2 147.2 4.7-8.7 52.8 28.6-4.7 8.7z"/><path d="m87.8 137.1 5.2-8.4 46.3 28.5-5.2 8.4z"/><path d="m123.9 144.6 5.6-8.1 15.9 11.1-5.6 8.1z"/><path d="m117.9 123.9 6.1-7.8 28.1 21.9-6.1 7.8z"/><path d="m149 133.2 6.5-7.5 3.8 3.3-6.5 7.5z"/><path d="m150 117.8 6.9-7.1 10.3 10-6.9 7.1z"/><path d="m159 109.6 7.3-6.7 8.8 9.5-7.3 6.7z"/><path d="m149.5 78.9 7.6-6.3 26.7 32.2-7.6 6.3z"/><path d="m149.8 56.3 7.9-5.9 35 47.1-7.9 5.9z"/><path d="m186.2 84.7 8.3-5.5 7.7 11.6-8.3 5.5z"/><path d="m187.9 63 8.5-5 15.2 25.6-8.5 5z"/><path d="m195.8 50.4 8.8-4.6 17.1 33-8.8 4.6z"/><path d="m211.4 52.3 9-4.1 11.6 25.6-9 4.1z"/><path d="m217.5 32.1 9.2-3.6 15.9 40.7-9.2 3.6z"/><path d="m240.4 56.9 9.4-3.1 3.7 11.2-9.4 3.1z"/><path d="m243.5 22.8 9.6-2.6 11.3 41.4-9.6 2.6z"/><path d="m257.4 21.7 9.7-2.1 8.5 39-9.7 2.1z"/><path d="m277.2 54.8 9.9-1.6.6 3.6-9.9 1.6z"/><path d="m285.2 27.7 9.8-1.1 3.1 28-9.8 1.1z"/><path d="m297.7 18.8 9.9-.6 2 35.4-9.9.6z"/><path d="m310.9 6.4 9.9-.1.3 46.7-9.9.1z"/><path d="m323.2 52.8.3-5.2 9.9.5-.3 5.2z"/><path d="m334.7 53 .8-7.9 9.9 1-.8 7.9z"/><path d="m346.2 53.8 2.5-16.7 9.8 1.5-2.5 16.7z"/><path d="m357.6 55.1.9-4.6 9.7 2-.9 4.6z"/><path d="m369.1 57.1.8-3 9.6 2.5-.8 3z"/><path d="m380.2 59.7 2.6-8.1 9.4 3-2.5 8.1z"/><path d="m391.3 62.8 15.7-42.3 9.3 3.4-15.7 42.3z"/><path d="m402.3 66.4 11.1-25.9 9.1 3.9-11.1 25.9z"/><path d="m413 70.7 18.5-37.6 8.9 4.4-18.5 37.6z"/><path d="m423.5 75.4 9.9-17.7 8.7 4.8-9.9 17.7z"/><path d="m433.7 80.7 9.4-15.1 8.4 5.2-9.4 15.2z"/><path d="m443.7 86.6 30.4-43.6 8.1 5.7-30.3 43.6z"/><path d="m453.4 92.9 16.4-21.2 7.8 6.1-16.4 21.2z"/><path d="m462.7 99.8 35.5-41.5 7.5 6.4-35.5 41.5z"/><path d="m471.8 106.8 9.1-9.6 7.2 6.8-9.1 9.6z"/><path d="m480.3 114.5 3-2.8 6.8 7.1-3 2.8z"/><path d="m488.4 122.6 13.6-11.8 6.5 7.5-13.6 11.8z"/><path d="m496.3 131.2 27.9-21.9 6.1 7.8-27.9 21.9z"/><path d="m503.7 140 28.4-20.1 5.7 8.1-28.4 20z"/><path d="m509.3 147.2 3.4-2.2 5.4 8.3-3.4 2.2z"/><path d="m517 158.8 8.9-5.1 4.9 8.6-8.9 5.1z"/><path d="m523.2 168.5 11.4-5.8 4.5 8.8-11.4 5.8z"/><path d="m528.7 178.7 23.5-10.5 4 9-23.5 10.5z"/><path d="m533.7 189 52.7-20.6 3.6 9.2-52.7 20.6z"/><path d="m538.1 199.7 18.2-6.1 3.1 9.4-18.2 6.1z"/><path d="m542.1 210.5 58.4-16.5 2.7 9.5-58.4 16.5z"/><path d="m545.5 221.7 41-9.5 2.2 9.6-41 9.5z"/><path d="m548.4 232.7 58.6-10.6 1.8 9.7-58.6 10.6z"/><path d="m550.9 244.1 6.4-.8 1.3 9.8-6.4.8z"/><path d="m553.7 258 6.5-.5.8 10-6.5.5z"/><path d="m554.5 264.5 9.5-.4.4 9.9-9.5.4z"/><path d="m554.7 288.2.1-9.9 24.9.3-.1 9.9z"/><path d="m554.4 299.7.6-9.9 29.7 1.8-.6 9.9z"/><path d="m553.5 311.3 1.1-9.8 22.3 2.4-1.1 9.8z"/><path d="m552 322.6 1.5-9.8 1.3.2-1.5 9.8z"/><path d="m550.1 334 2-9.7 3.2.7-2 9.7z"/><path d="m547.8 345.2 2.4-9.6 16.1 4.1-2.4 9.6z"/><path d="m544.6 356.3 2.9-9.5 32.2 9.8-2.9 9.5z"/><path d="m541.3 367.3 3.3-9.3 22.2 7.9-3.3 9.3z"/><path d="m537.3 378.1 3.7-9.2 19.2 7.8-3.7 9.2z"/><path d="m532.9 388.6 4.2-9 11.7 5.4-4.2 9z"/><path d="m527.9 399 4.6-8.8 9.4 4.9-4.6 8.8z"/><path d="m522.4 409.3 5-8.6 38.3 22.3-5 8.6z"/><path d="m516.4 419.1 5.4-8.3 48.5 31.3-5.4 8.3z"/><path d="m510 428.6 5.8-8.1 41.2 29.5-5.8 8.1z"/><path d="m503.3 438 6.1-7.8 5.7 4.4-6.1 7.8z"/><path d="m496.1 447 6.5-7.5 7 6.1-6.5 7.5z"/></g></svg>
