<?xml version="1.0" encoding="utf-8"?>
<!-- Generator: Adobe Illustrator 22.1.0, SVG Export Plug-In . SVG Version: 6.00 Build 0)  -->
<svg version="1.1" id="Layer_1" xmlns="http://www.w3.org/2000/svg" xmlns:xlink="http://www.w3.org/1999/xlink" x="0px" y="0px"
	 viewBox="0 0 1200 1113" style="enable-background:new 0 0 1200 1113;" xml:space="preserve">
<style type="text/css">
	.st0{fill:none;stroke:#E3E3E3;stroke-width:13;stroke-miterlimit:10;}
	.st1{fill:#514361;}
	.st2{font-family:'RobotoMono-Regular';}
	.st3{font-size:40px;}
	.st4{fill:none;stroke:#C6C6C6;stroke-width:6;stroke-miterlimit:10;}
	.st5{fill:#C6C6C6;}
	.st6{fill:#BCBCBC;}
	.st7{font-size:30px;}
	.st8{fill:none;stroke:#C6C6C6;stroke-width:4;stroke-miterlimit:10;}
	.st9{fill:none;stroke:#C6C6C6;stroke-width:4;stroke-miterlimit:10;stroke-dasharray:24.4687,18.3515;}
	.st10{fill:#909090;}
</style>
<path class="st0" d="M94,924l176.3-346.1l169.9,170L608.8,241c0.4-1.3,2.1-1.7,3.1-0.7l167.7,167.8l169.9,519.4"/>
<g>
	<g>
		<text transform="matrix(1 0 0 1 948.9999 1049.0986)" class="st1 st2 st3">intervals</text>
	</g>
</g>
<g>
	<g>
		<text transform="matrix(1 0 0 1 105.957 42.187)" class="st1 st2 st3">value scale</text>
	</g>
</g>
<g>
	<g>
		<g>
			<g>
				<polyline class="st4" points="91,63.7 91,927 1137.3,927 				"/>
				<g>
					<polygon class="st5" points="76,68.1 91,42.2 106,68.1 					"/>
				</g>
				<g>
					<polygon class="st5" points="1132.9,942 1158.8,927 1132.9,912 					"/>
				</g>
			</g>
		</g>
	</g>
</g>
<g>
	<g>
		<text transform="matrix(1 0 0 1 258.7148 986.7393)" class="st6 st2 st7">1</text>
	</g>
</g>
<g>
	<g>
		<text transform="matrix(1 0 0 1 58.7148 986.7393)" class="st6 st2 st7">0</text>
	</g>
</g>
<g>
	<g>
		<text transform="matrix(1 0 0 1 41.125 760.499)" class="st6 st2 st7">1</text>
	</g>
</g>
<g>
	<g>
		<text transform="matrix(1 0 0 1 424.3359 986.7393)" class="st6 st2 st7">2</text>
	</g>
</g>
<g>
	<g>
		<text transform="matrix(1 0 0 1 600.5664 986.7393)" class="st6 st2 st7">3</text>
	</g>
</g>
<g>
	<g>
		<text transform="matrix(1 0 0 1 937.5742 986.7393)" class="st6 st2 st7">5</text>
	</g>
</g>
<g>
	<g>
		<text transform="matrix(1 0 0 1 761.8984 986.7393)" class="st6 st2 st7">4</text>
	</g>
</g>
<line class="st4" x1="67" y1="578" x2="90" y2="578"/>
<line class="st4" x1="67" y1="408" x2="90" y2="408"/>
<line class="st4" x1="67" y1="238" x2="90" y2="238"/>
<line class="st4" x1="67" y1="748" x2="90" y2="748"/>
<line class="st4" x1="270" y1="947" x2="270" y2="927"/>
<line class="st4" x1="440" y1="949" x2="440" y2="928"/>
<line class="st4" x1="610" y1="949" x2="610" y2="928"/>
<line class="st4" x1="780" y1="947" x2="780" y2="927"/>
<line class="st4" x1="949" y1="947" x2="949" y2="927"/>
<g>
	<g>
		<text transform="matrix(1 0 0 1 35.582 591.2803)" class="st6 st2 st7">2</text>
	</g>
</g>
<g>
	<g>
		<text transform="matrix(1 0 0 1 539.9999 182.333)" class="st1 st2 st3">(4,3)</text>
	</g>
</g>
<g>
	<g>
		<text transform="matrix(1 0 0 1 34.6367 422.1631)" class="st6 st2 st7">3</text>
	</g>
</g>
<g>
	<g>
		<text transform="matrix(1 0 0 1 34 248.9795)" class="st6 st2 st7">4</text>
	</g>
</g>
<g>
	<g>
		<line class="st8" x1="609.8" y1="928" x2="609.8" y2="915.1"/>
		<line class="st9" x1="609.8" y1="895.4" x2="609.8" y2="260.9"/>
		<line class="st8" x1="609.8" y1="251.1" x2="609.8" y2="238.2"/>
	</g>
</g>
<circle class="st10" cx="779.6" cy="408.1" r="15.9"/>
<circle class="st10" cx="609.8" cy="238.2" r="15.9"/>
<circle class="st10" cx="439.9" cy="747.8" r="15.9"/>
<circle class="st10" cx="270.1" cy="577.9" r="15.9"/>
<g>
	<g>
		<line class="st8" x1="585.2" y1="238" x2="576.1" y2="238"/>
		<line class="st9" x1="562.2" y1="238" x2="115.3" y2="238"/>
		<line class="st8" x1="108.3" y1="238" x2="99.3" y2="238"/>
	</g>
</g>
</svg>
