<?xml version="1.0" encoding="utf-8"?>
<!-- Generator: Adobe Illustrator 19.2.0, SVG Export Plug-In . SVG Version: 6.00 Build 0)  -->
<svg version="1.1" id="Layer_1" xmlns="http://www.w3.org/2000/svg" xmlns:xlink="http://www.w3.org/1999/xlink" x="0px" y="0px"
	 width="1200px" height="1113px" viewBox="0 0 1200 1113" enable-background="new 0 0 1200 1113" xml:space="preserve">
<g>
	<path fill="#AFAFAF" d="M540,240h-24v-4h24V240z M580,240h-24v-4h24V240z M498,240h-24v-4h24V240z M456,240h-24v-4h24V240z
		 M414,240h-24v-4h24V240z M372,240h-24v-4h24V240z M330,240h-24v-4h24V240z M288,240h-24v-4h24V240z M246,240h-24v-4h24V240z
		 M204,240h-24v-4h24V240z M162,240h-24v-4h24V240z"/>
</g>
<g>
	<path fill="#AFAFAF" d="M246,580h-24v-4h24V580z M204,580h-24v-4h24V580z M162,580h-24v-4h24V580z"/>
</g>
<g>
	<path fill="#AFAFAF" d="M540,410h-24v-4h24V410z M580,410h-24v-4h24V410z M498,410h-24v-4h24V410z M456,410h-24v-4h24V410z
		 M414,410h-24v-4h24V410z M372,410h-24v-4h24V410z M330,410h-24v-4h24V410z M288,410h-24v-4h24V410z M246,410h-24v-4h24V410z
		 M204,410h-24v-4h24V410z M162,410h-24v-4h24V410z"/>
</g>
<g>
	<path fill="#AFAFAF" d="M414,750h-24v-4h24V750z M372,750h-24v-4h24V750z M330,750h-24v-4h24V750z M288,750h-24v-4h24V750z
		 M246,750h-24v-4h24V750z M204,750h-24v-4h24V750z M162,750h-24v-4h24V750z"/>
</g>
<g>
	<path fill="#AFAFAF" d="M748,410h-24v-4h24V410z M706,410h-24v-4h24V410z M664,410h-24v-4h24V410z M622,410h-24v-4h24V410z"/>
</g>
<path fill="none" stroke="#A3AEE3" stroke-width="18.8731" stroke-miterlimit="10" d="M98.429,921.481l171.919-343.549
	l169.861,170.005l168.609-506.902c0.438-1.318,2.11-1.713,3.092-0.731l167.72,167.769L949.5,927.5"/>
<g>
	<text transform="matrix(1 0 0 1 946.582 1111.0986)" fill="#7F7F7F" font-family="'Roboto-Regular'" font-size="65px">intervals</text>
</g>
<g>
	<text transform="matrix(1 0 0 1 161.957 51.9912)" fill="#7F7F7F" font-family="'Roboto-Regular'" font-size="65px">value scale</text>
</g>
<g>
	<g>
		<polyline fill="none" stroke="#464A90" stroke-width="16" stroke-miterlimit="10" points="91,42.187 91,927 1158.813,927 		"/>
		<g>
			<polygon fill="#464A90" points="63.077,50.357 91,2 118.923,50.357 			"/>
		</g>
		<g>
			<polygon fill="#464A90" points="1150.643,954.923 1199,927 1150.643,899.077 			"/>
		</g>
	</g>
</g>
<g>
	<text transform="matrix(1 0 0 1 256.7148 1022.7393)" fill="#37246D" font-family="'Roboto-Medium'" font-size="47.1828px">1</text>
</g>
<g>
	<text transform="matrix(1 0 0 1 9.125 765.499)" fill="#37246D" font-family="'Roboto-Medium'" font-size="47.1828px">1</text>
</g>
<g>
	<text transform="matrix(1 0 0 1 422.3359 1022.7393)" fill="#37246D" font-family="'Roboto-Medium'" font-size="47.1828px">2</text>
</g>
<g>
	<text transform="matrix(1 0 0 1 595.5664 1022.7393)" fill="#37246D" font-family="'Roboto-Medium'" font-size="47.1828px">3</text>
</g>
<g>
	<text transform="matrix(1 0 0 1 935.5742 1022.7393)" fill="#37246D" font-family="'Roboto-Medium'" font-size="47.1828px">5</text>
</g>
<g>
	<text transform="matrix(1 0 0 1 759.8984 1022.7393)" fill="#37246D" font-family="'Roboto-Medium'" font-size="47.1828px">4</text>
</g>
<line fill="none" stroke="#464A90" stroke-width="4" stroke-miterlimit="10" x1="59" y1="578" x2="124" y2="578"/>
<line fill="none" stroke="#464A90" stroke-width="4" stroke-miterlimit="10" x1="59" y1="408" x2="124" y2="408"/>
<line fill="none" stroke="#464A90" stroke-width="4" stroke-miterlimit="10" x1="59" y1="238" x2="124" y2="238"/>
<line fill="none" stroke="#464A90" stroke-width="4" stroke-miterlimit="10" x1="59" y1="748" x2="124" y2="748"/>
<line fill="none" stroke="#464A90" stroke-width="4" stroke-miterlimit="10" x1="270" y1="958" x2="270" y2="893"/>
<line fill="none" stroke="#464A90" stroke-width="4" stroke-miterlimit="10" x1="440" y1="960" x2="440" y2="894"/>
<line fill="none" stroke="#464A90" stroke-width="4" stroke-miterlimit="10" x1="610" y1="960" x2="610" y2="894"/>
<line fill="none" stroke="#464A90" stroke-width="4" stroke-miterlimit="10" x1="780" y1="958" x2="780" y2="893"/>
<line fill="none" stroke="#464A90" stroke-width="4" stroke-miterlimit="10" x1="949" y1="958" x2="949" y2="893"/>
<g>
	<text transform="matrix(1 0 0 1 3.582 596.2803)" fill="#37246D" font-family="'Roboto-Medium'" font-size="47.1828px">2</text>
</g>
<g>
	<text transform="matrix(1 0 0 1 254.1719 528.3896)" fill="#37246D" font-family="'Roboto-Medium'" font-size="47.1828px">(2;1)</text>
</g>
<g>
	<text transform="matrix(1 0 0 1 475.9336 763.6748)" fill="#37246D" font-family="'Roboto-Medium'" font-size="47.1828px">(1;2)</text>
</g>
<g>
	<text transform="matrix(1 0 0 1 657.3984 222.333)" fill="#37246D" font-family="'Roboto-Medium'" font-size="47.1828px">(4;3)</text>
</g>
<g>
	<text transform="matrix(1 0 0 1 827.2559 427.1631)" fill="#37246D" font-family="'Roboto-Medium'" font-size="47.1828px">(3;4)</text>
</g>
<g>
	<text transform="matrix(1 0 0 1 2.6367 427.1631)" fill="#37246D" font-family="'Roboto-Medium'" font-size="47.1828px">3</text>
</g>
<g>
	<text transform="matrix(1 0 0 1 2 253.9795)" fill="#37246D" font-family="'Roboto-Medium'" font-size="47.1828px">4</text>
</g>
<g>
	<g>
		<line fill="none" stroke="#AFAFAF" stroke-width="4" stroke-miterlimit="10" x1="779.63" y1="880.098" x2="779.63" y2="868.098"/>
		
			<line fill="none" stroke="#AFAFAF" stroke-width="4" stroke-miterlimit="10" stroke-dasharray="24.3292,18.2469" x1="779.63" y1="849.851" x2="779.63" y2="433.214"/>
		<line fill="none" stroke="#AFAFAF" stroke-width="4" stroke-miterlimit="10" x1="779.63" y1="424.091" x2="779.63" y2="412.091"/>
	</g>
</g>
<g>
	<g>
		<line fill="none" stroke="#AFAFAF" stroke-width="4" stroke-miterlimit="10" x1="609.772" y1="880" x2="609.772" y2="868"/>
		
			<line fill="none" stroke="#AFAFAF" stroke-width="4" stroke-miterlimit="10" stroke-dasharray="24.4687,18.3515" x1="609.772" y1="849.648" x2="609.772" y2="259.342"/>
		
			<line fill="none" stroke="#AFAFAF" stroke-width="4" stroke-miterlimit="10" x1="609.772" y1="250.166" x2="609.772" y2="238.166"/>
	</g>
</g>
<g>
	<g>
		
			<line fill="none" stroke="#AFAFAF" stroke-width="4" stroke-miterlimit="10" x1="439.914" y1="879.901" x2="439.914" y2="867.901"/>
		
			<line fill="none" stroke="#AFAFAF" stroke-width="4" stroke-miterlimit="10" stroke-dasharray="25.7814,19.336" x1="439.914" y1="848.565" x2="439.914" y2="767.999"/>
		
			<line fill="none" stroke="#AFAFAF" stroke-width="4" stroke-miterlimit="10" x1="439.914" y1="758.331" x2="439.914" y2="746.331"/>
	</g>
</g>
<g>
	<g>
		
			<line fill="none" stroke="#AFAFAF" stroke-width="4" stroke-miterlimit="10" x1="270.056" y1="880.491" x2="270.056" y2="868.491"/>
		
			<line fill="none" stroke="#AFAFAF" stroke-width="4" stroke-miterlimit="10" stroke-dasharray="25.247,18.9352" x1="270.056" y1="849.556" x2="270.056" y2="593.93"/>
		
			<line fill="none" stroke="#AFAFAF" stroke-width="4" stroke-miterlimit="10" x1="270.056" y1="584.462" x2="270.056" y2="572.462"/>
	</g>
</g>
<circle fill="#464A90" cx="779.63" cy="408.074" r="15.885"/>
<circle fill="#464A90" cx="609.772" cy="238.216" r="15.885"/>
<circle fill="#464A90" cx="439.914" cy="747.79" r="15.885"/>
<circle fill="#464A90" cx="270.056" cy="577.932" r="15.885"/>
</svg>
