<?xml version="1.0" encoding="utf-8"?>
<!-- Generator: Adobe Illustrator 24.0.1, SVG Export Plug-In . SVG Version: 6.00 Build 0)  -->
<svg version="1.1" id="Layer_1" xmlns="http://www.w3.org/2000/svg" xmlns:xlink="http://www.w3.org/1999/xlink" x="0px" y="0px"
	 viewBox="0 0 1268 418" style="enable-background:new 0 0 1268 418;" xml:space="preserve">
<style type="text/css">
	.st0{fill:none;stroke:#C6BFCF;stroke-width:4;stroke-miterlimit:10;}
	.st1{fill:none;stroke:#C4C4C4;stroke-miterlimit:10;}
	.st2{fill:#D1CDC9;}
	.st3{font-family:'RobotoCondensed-Regular';}
	.st4{font-size:19px;}
</style>
<g id="Layer_1_1_">
	<polyline class="st0" points="1243.2,126 1135,57 1028,232 919,249 811,161 703,146 599,219 487,186 379,289 271,273 163,318 
		57,286 	"/>
	<g>
		<g>
			<line class="st1" x1="163.3" y1="388.3" x2="163.3" y2="378.9"/>
			<line class="st1" x1="271.3" y1="388.3" x2="271.3" y2="378.9"/>
			<line class="st1" x1="487.3" y1="388.3" x2="487.3" y2="378.9"/>
			<line class="st1" x1="811.2" y1="388.3" x2="811.2" y2="378.9"/>
			<line class="st1" x1="1027.2" y1="388.3" x2="1027.2" y2="378.9"/>
			<line class="st1" x1="379.3" y1="388.3" x2="379.3" y2="378.9"/>
			<line class="st1" x1="595.2" y1="388.3" x2="595.2" y2="378.9"/>
			<line class="st1" x1="703.2" y1="388.3" x2="703.2" y2="378.9"/>
			<line class="st1" x1="919.2" y1="388.3" x2="919.2" y2="378.9"/>
			<line class="st1" x1="1135.2" y1="388.3" x2="1135.2" y2="378.9"/>
			<line class="st1" x1="1243.2" y1="388.3" x2="1243.2" y2="378.9"/>
		</g>
		<g>
			<polyline class="st1" points="55.3,2 55.3,379.1 1266.1,379.1 			"/>
			<g>
				<line class="st1" x1="45.7" y1="10" x2="55.7" y2="10"/>
				<line class="st1" x1="45.7" y1="305" x2="55.7" y2="305"/>
				<line class="st1" x1="45.7" y1="231" x2="55.7" y2="231"/>
				<line class="st1" x1="45.7" y1="158" x2="55.7" y2="158"/>
				<line class="st1" x1="45.7" y1="84" x2="55.7" y2="84"/>
			</g>
		</g>
	</g>
	<g>
		<g>
			<text transform="matrix(1 0 0 1 576.0095 411.4878)" class="st2 st3 st4">2014</text>
		</g>
		<g>
			<text transform="matrix(1 0 0 1 791.1489 411.4878)" class="st2 st3 st4">2016</text>
		</g>
		<g>
			<text transform="matrix(1 0 0 1 1007.1489 411.4878)" class="st2 st3 st4">2018</text>
		</g>
		<g>
			<text transform="matrix(1 0 0 1 359.9412 411.4878)" class="st2 st3 st4">2012</text>
		</g>
		<g>
			<text transform="matrix(1 0 0 1 143.9408 411.4878)" class="st2 st3 st4">2010</text>
		</g>
		<g>
			<text transform="matrix(1 0 0 1 1222.6692 411.4878)" class="st2 st3 st4">2020</text>
		</g>
	</g>
	<g>
		<text transform="matrix(1 0 0 1 8.1044 16.573)" class="st2 st3 st4">100</text>
	</g>
	<text transform="matrix(1 0 0 1 17.4844 236.1504)" class="st2 st3 st4">40</text>
	<text transform="matrix(1 0 0 1 17.4844 164.1504)" class="st2 st3 st4">60</text>
	<text transform="matrix(1 0 0 1 17.4844 90.1504)" class="st2 st3 st4">80</text>
	<text transform="matrix(1 0 0 1 17.4844 308.5732)" class="st2 st3 st4">20</text>
</g>
<g id="Layer_2_1_">
</g>
<g id="Layer_3">
</g>
</svg>
