<svg enable-background="new 0 0 256 256" height="256" viewBox="0 0 256 256" width="256" xmlns="http://www.w3.org/2000/svg"><path d="m254 242.188v11.812h-252v-252h11.813v240.188zm-211.723-15.75c7.068 0 12.797-5.729 12.797-12.797 0-3.39-1.328-6.464-3.48-8.753l28.738-64.107c.112.003.222.017.335.017 4.674 0 8.751-2.514 10.984-6.256l86.889 12.413c1.424 5.514 6.417 9.593 12.376 9.593 7.068 0 12.797-5.729 12.797-12.797 0-2.719-.854-5.236-2.301-7.309l37.514-58.845c.714.124 1.444.201 2.193.201 7.068 0 12.797-5.729 12.797-12.797s-5.729-12.797-12.797-12.797-12.797 5.729-12.797 12.797c0 2.719.854 5.236 2.301 7.309l-37.514 58.845c-.714-.124-1.444-.201-2.193-.201-4.674 0-8.751 2.514-10.984 6.256l-86.889-12.413c-1.424-5.514-6.417-9.593-12.376-9.593-7.068 0-12.797 5.729-12.797 12.797 0 3.39 1.327 6.463 3.479 8.753l-28.738 64.108c-.112-.003-.222-.017-.335-.017-7.068 0-12.797 5.729-12.797 12.797s5.731 12.796 12.798 12.796z"/></svg>