<?xml version="1.0" encoding="utf-8"?>
<!-- Generator: Adobe Illustrator 24.0.1, SVG Export Plug-In . SVG Version: 6.00 Build 0)  -->
<svg version="1.1" id="Layer_1" xmlns="http://www.w3.org/2000/svg" xmlns:xlink="http://www.w3.org/1999/xlink" x="0px" y="0px"
	 viewBox="0 0 1268 418" style="enable-background:new 0 0 1268 418;" xml:space="preserve">
<style type="text/css">
	.st0{fill:#ABABAB;fill-opacity:0.3;}
	.st1{fill:#8D8D8D;fill-opacity:0.3;}
	.st2{fill:#C9C9C9;fill-opacity:0.3;}
	.st3{fill:#6C6C6C;}
	.st4{font-family:'RobotoMono-Regular';}
	.st5{font-size:41.8308px;}
	
		.st6{fill:#ABABAB;fill-opacity:0.3;stroke:#999999;stroke-width:0.2604;stroke-linecap:round;stroke-linejoin:round;stroke-miterlimit:10;}
</style>
<g>
	<circle class="st0" cx="433.5" cy="127.8" r="81.9"/>
	<circle class="st1" cx="433.5" cy="259.7" r="121"/>
	<circle class="st2" cx="223.3" cy="210.2" r="204.8"/>
</g>
<text transform="matrix(1 0 0 1 433.499 127.8159)" class="st3 st4 st5">B</text>
<text transform="matrix(1 0 0 1 437.7705 281.0186)" class="st3 st4 st5">C</text>
<text transform="matrix(1 0 0 1 210.7676 215.9834)" class="st3 st4 st5">A</text>
<g>
	<circle class="st0" cx="781" cy="114.8" r="81.9"/>
	<circle class="st1" cx="1100" cy="278.7" r="121"/>
	<circle class="st2" cx="926.8" cy="210.2" r="181.2"/>
</g>
<text transform="matrix(1 0 0 1 741.9615 108.8159)" class="st3 st4 st5">B</text>
<text transform="matrix(1 0 0 1 1127.233 313.0186)" class="st3 st4 st5">C</text>
<text transform="matrix(1 0 0 1 914.2301 215.9834)" class="st3 st4 st5">A</text>
<circle class="st6" cx="1078.3" cy="67.2" r="51.7"/>
<text transform="matrix(1 0 0 1 1067.3971 73.2246)" class="st3 st4 st5">D</text>
</svg>
