<svg height="256" viewBox="0 0 256 256" width="256" xmlns="http://www.w3.org/2000/svg"><path d="m218.9 81.3c0-1 .1-2 .1-3a54.1 54.1 0 0 0 -94.5-35.9 96.9 96.9 0 0 0 -24.3-3.1 94.2 94.2 0 1 0 47.9 175.3 74.1 74.1 0 0 0 29.1 5.8 75.8 75.8 0 0 0 41.7-139.1zm-30.4 52.2a88.2 88.2 0 0 1 -40.9 74.4 69.8 69.8 0 0 1 -28.9-101.5 54.1 54.1 0 0 0 46.2 26 53.5 53.5 0 0 0 23.3-5.3c.2 2.1.3 4.2.3 6.4zm-71.7-55.2a48 48 0 0 1 9.8-29 88.8 88.8 0 0 1 35.2 21 76.8 76.8 0 0 0 -42 24.7 48.5 48.5 0 0 1 -3-16.7zm57.1-3.5h3.3a69.8 69.8 0 0 1 35.4 9.6 48.2 48.2 0 0 1 -19.6 32.9 92.6 92.6 0 0 0 -19.1-42.5zm-9-44.5a48 48 0 0 1 48 47.4 75.2 75.2 0 0 0 -35.7-8.9 73.8 73.8 0 0 0 -8.2.4 94.8 94.8 0 0 0 -38.1-24.8 47.9 47.9 0 0 1 34-14.1zm-64.7 191.4a88.2 88.2 0 0 1 0-176.4 90.2 90.2 0 0 1 20.3 2.3 53.3 53.3 0 0 0 -9.7 30.7 52.5 52.5 0 0 0 4.8 22.1 75.3 75.3 0 0 0 -14.3 44.2 76 76 0 0 0 40.1 66.9 87.9 87.9 0 0 1 -41.2 10.2zm77-7.3a69.6 69.6 0 0 1 -22.9-3.8 94.2 94.2 0 0 0 40.2-77.1c0-3.2-.2-6.5-.5-9.6a54.5 54.5 0 0 0 24.1-35.9 69.8 69.8 0 0 1 -40.9 126.4z"/></svg>