<svg height="256" viewBox="0 0 256 256" width="256" xmlns="http://www.w3.org/2000/svg"><path d="m27.4 140.6v.5zm219.7-5.9a13.3 13.3 0 0 1 -2.7 7.6 21 21 0 0 1 -5.6 5.9 19.6 19.6 0 0 1 -3.9 1.8l-1.1.4h-.2l-.6.4-5.9 3.2-4.4 1.9-.3.2-1.5.7a28.7 28.7 0 0 1 -4 1.8l-.6.3h-.4l-.8.5a55.8 55.8 0 0 1 -6.7 2.8l-.6.2-1.4.9-1.1.7a.1.1 0 0 1 -.1.1l-.3.3-1.2 1.2c-.1.1-.4.6-.1 0v.2l-1.6 2.6-.3.8-.2.3-.3.9c-.3.9-.6 1.9-.8 2.8s-.1 1-.2 1.4-.1-.6-.1.1v.6a24.5 24.5 0 0 1 -.2 2.7c-.1.1-.1.3-.1.6a2 2 0 0 0 -.1.7c0 .3-.1.6-.1.9s-.3 1.8-.4 2.7a15.8 15.8 0 0 1 -.9 3.1 31.9 31.9 0 0 1 -2.8 6.3 23.3 23.3 0 0 1 -10.2 9.7 55.9 55.9 0 0 1 -7.2 2.6 17.6 17.6 0 0 1 -4 .7h-.8c-.8 0 .6 0 .5-.1a8.2 8.2 0 0 0 -2.6.4c-2.3.2-4.6 0-6.9 0h-11.3l-2.7.3h-6.6c-5-.1-10-1.2-15-2l-1.1-.2h-.1c.7.2-.3 0-.5 0h-10c-.6.1-.4.1-.1.1l-1.5.2-1.6.3a10.9 10.9 0 0 0 -3.1.8c-2.1.8-4.2 1.1-6.3 1.8-4.5 1.4-9.2 2-13.8 3-2.2.5-4.4 1.4-6.6 1.8l-4.7.6h-3.9l-1.7.2-3.3.7c-2.2.5-4.3 1.1-6.5 1.5a68.8 68.8 0 0 1 -7.7 1.3h-1.9a18.9 18.9 0 0 1 -4.1.3 30 30 0 0 1 -7.3-1.1l-2.8-.8a9.2 9.2 0 0 1 -2.3-.9l-.5-.4-.5-.3-1.5-.6a16.6 16.6 0 0 1 -2.1-1.6l-2.1-1.9c-1.8-1.6-3.7-3-4.9-5.1s-.8-1.8-1.3-2.7a20.2 20.2 0 0 1 -1.4-3.4 10.7 10.7 0 0 1 1.1-7.8c0-.2.1-.3.2-.5a23.8 23.8 0 0 1 3.8-6.8 14.5 14.5 0 0 1 2.2-2.1l1.6-1.3h.2a.8.8 0 0 1 .4-.4 7.7 7.7 0 0 1 6.8-1.9l1.3.4h.4l-1.6-2.1a17.9 17.9 0 0 0 -2.2-2.5 12.6 12.6 0 0 1 -2.2-2.4l-.3-.2-1.8-1.1c-3.5-1.9-7-4.6-7.9-8.8-.6-2.5-.3-5.1-.4-7.6a24.6 24.6 0 0 1 .8-7.6l1-2.5.2-.4a4.3 4.3 0 0 0 .2-1.1 1.1 1.1 0 0 0 .1-.5.6.6 0 0 1 .1-.4c0-.4 0-.4-.1-.2v.1-.2a7.5 7.5 0 0 1 -.4-1.6c-.2-1-.4-1.9-.7-2.9l-.6-1.6c0-.1-.1-.3-.1-.4l-1.5-2.7c-1.1-2-2.2-4-3.4-6s-2.4-3.5-3.4-5.4a17.3 17.3 0 0 1 -2.1-8 33 33 0 0 1 .7-7.7c.3-1.1.7-2.2 1-3.3a11.5 11.5 0 0 1 .2-1.4 1.3 1.3 0 0 1 .1-.6v-2.5a2.8 2.8 0 0 1 -.1-.9v-.2c-.1-.2-.1-.5-.2-.8-.5-2.3-1.1-4.5-1.7-6.7a50.4 50.4 0 0 1 -2.3-14.4 25.5 25.5 0 0 1 .2-3.9 14.2 14.2 0 0 1 .4-2 1.9 1.9 0 0 1 .2-.7.6.6 0 0 1 .1-.4c-.1.1-.1.2-.1.4s0-.2.1-.4.1-1.3.2-2l.3-1.1a15 15 0 0 1 2.3-4.1c2.2-2.9 5.6-5 9.4-4.1s4.8 2.5 6.7 4.2a22.9 22.9 0 0 1 2.7 2.7l1.4 2.2a.4.4 0 0 0 .1.3 6.9 6.9 0 0 1 2 3.5l.6.6c.9.9 1.9 1.6 2.8 2.4a6 6 0 0 0 .8.8l.8.4 1.6.6h.5l1-.3.8-.3h.2l.9-.4c1.8-.8 3.5-1.6 5.3-2.2a14.7 14.7 0 0 1 12.6 1.2l3.3 2.3a11.6 11.6 0 0 0 1.4.9h.1l.8.2 1.8.5h1.3l.9-.2 1.9-.5a41.4 41.4 0 0 1 9.8-1.9 69.9 69.9 0 0 1 9.2.8h4.7l1.1-.2 2-.6 2.3-.8h.3l.7-.4 4.2-1.9a60.1 60.1 0 0 1 9.2-3.5c3.7-1 7.1-.7 10.9 0l1.5.3h4.1c.5-.1 1.7.1 2.2-.2h.2l.8-.2 2.2-.7 4-1.3 8.7-2.8c2.8-.9 5.5-2 8.3-3.1a64.6 64.6 0 0 1 8.6-2.4 25.5 25.5 0 0 1 10.3.1c3.8.8 7.1 3.3 8.1 7.1a1.3 1.3 0 0 1 .1.6l3.8-.4a35.5 35.5 0 0 1 8 .4 65.2 65.2 0 0 1 6.3 1.8l3.2 1 1.6.5h3.5l2 .3h.4a6.3 6.3 0 0 1 1.9.3c4.2 1.4 6.9 6.3 4.4 10.4a7.5 7.5 0 0 1 1.4 3 7.8 7.8 0 0 1 -2.7 8.2l-.6.4c-.2 1-.3 2-.5 3a8.8 8.8 0 0 1 -.2 1.6 1 1 0 0 1 -.1.4c-.1 1.1-.2 2.2-.2 3.2v1.2a6.4 6.4 0 0 1 2 .3l1.1.5h.5a7.7 7.7 0 0 1 2.7 1.7 7.5 7.5 0 0 1 1.5 2l-.3-.3a1 1 0 0 1 .4.5 18.4 18.4 0 0 1 1.7 2.2h.2l.7.9a14.4 14.4 0 0 1 1.6 3.3 19.4 19.4 0 0 1 .1 8.3v.2a20.6 20.6 0 0 1 4.6 3.1 28.7 28.7 0 0 1 3.9 5.9c1.2 3.3 2.5 5.9 2.4 8.8zm-220 8.1c-.1.3-.1.6 0 0zm.2-.4c-.1 0-.1.1-.2.3zm192.6-45.7c-.1-.1 0-.1 0 0zm3.8 5.2c.1.4.4.6 0 0zm.5-8.6c0 .2-.1.4 0 .4zm-35.2-21.6c-.1.1-.2.1-.2.2s-.4.8.2-.2zm-114.6 2.1a.4.4 0 0 0 .5 0zm-48.1-8.4-.3.2zm9.7 105.8h-.2c.9.6.5.2.2 0zm6.3 6.3-.4.2zm-.1-.1-.2.2zm-.4.3a.1.1 0 0 1 -.1.1h.1zm-6.6 18.3v.2c.1 0 0-.1 0-.2zm147.3-6.1-.4.3zm5.6-14.4a1.2 1.2 0 0 0 -.1.5 1.8 1.8 0 0 0 .1-.5zm19.8-25.6-.5.2zm8.6 9-.5.2zm18.5-24.2v-.2c-.1 0-.1-.1-.1-.2-.9-1.6-1.7-3.3-2.7-4.8l-.2-.2-.3-.2a9.4 9.4 0 0 1 -2.2-1.2c-2.4-1.7-4.6-3.7-5.4-6.6a12.5 12.5 0 0 1 0-5.1l.3-1.3a.8.8 0 0 1 .1-.4 6.1 6.1 0 0 1 -.1-1.4c.1.1.2 0 .1-.3h-.1l-1.4-1.8-.3-.4-.7-.8h-.2a16.1 16.1 0 0 1 -3.7-.7 11.1 11.1 0 0 1 -4.5-2.2 7 7 0 0 1 -2-5.1 6.1 6.1 0 0 1 .1-1.4 12 12 0 0 1 .2-2.4v-2.5a64.8 64.8 0 0 1 1-7.7c.1-.5.1-1.1.2-1.6s.1-.2.1-.3a24.7 24.7 0 0 1 .3-3.9 6.5 6.5 0 0 1 -1.8-5.1c-3.5-.7-6.8-2.3-10.3-3.1l-.6-.2c-.1.1-.9 0-1.1 0h-3l-3.3.2h-.8l-.8.2c-4.1.9-9.7 2.3-12.7-1.7a6.1 6.1 0 0 1 -.6-6.7h-2.3l-3 .7c-3.8 1-7.4 2.6-11.1 3.9s-8 2.6-12 3.9a41.6 41.6 0 0 1 -12.6 2.6 40.2 40.2 0 0 1 -6.9-.6l-1.9-.3h-2.1c-.1-.4-5.2 1.5-5.7 1.7l-.8.3h-.1l-.7.3-2.9 1.3c-4.3 1.9-8.5 3.8-13.2 4.4s-8.5-.3-12.9-.5h-3.5l-1.3.3-5.9 1.5a20.3 20.3 0 0 1 -14.1-1.8 48.4 48.4 0 0 1 -4.4-3l-.9-.6h-1.1l-3 .9h-.2l-1.3.6a23.2 23.2 0 0 1 -6.2 2.3c-5.1.9-10-.9-13.9-4.4l-3.3-2.9a5.8 5.8 0 0 1 -1.9-1.9h-.2a9.4 9.4 0 0 1 -2.4-3.9 5 5 0 0 1 -.5-1.3c-.1-.1-.1-.3-.2-.4a4.3 4.3 0 0 1 -.4-.7h-.2a17.3 17.3 0 0 1 -.4 2v.3a.8.8 0 0 0 -.1.4v1.2a33.3 33.3 0 0 0 .4 6.3s.1.5.1.6a8.3 8.3 0 0 0 .4 1.5c.2 1 .5 2 .8 3l1.8 6.7a30.1 30.1 0 0 1 -.1 14.6c-.3 1.1-.7 2.2-.9 3.3a.6.6 0 0 0 -.1.4c0 .5-.1 1-.1 1.5v2.2c-.1-.1-.1-.1-.1-.2s0 .1.1.2v.2c-.1.6.1.3 0 0a3.7 3.7 0 0 1 .2.9.8.8 0 0 1 .2.5c.1 0 .3.6.4.7l.3.6.8 1.2 1.8 2.7c1.1 1.8 2.1 3.7 3.1 5.6a49 49 0 0 1 3.2 6.5 42.4 42.4 0 0 1 1.7 6.1 18.3 18.3 0 0 1 -.1 8.4 8 8 0 0 1 -.7 2l-.4.8a4.2 4.2 0 0 1 -.4 1.2c-.1.4-.1.8-.2 1.2v2.4a18.2 18.2 0 0 1 0 3.3c0 .5.1 1 .1 1.5l.3.3a9.5 9.5 0 0 0 1.7 1 26.5 26.5 0 0 1 3.9 2.6 6.2 6.2 0 0 1 1.8 1.8l.7.9c.6.8-.2-.4-.3-.4s.8.7 1 .9l1 1 3.5 4.5c1.8 2.3 3.2 4.7 3 7.8a12 12 0 0 1 -8.7 11.2 15.5 15.5 0 0 1 -6.1.5 2.7 2.7 0 0 0 -.8.7.8.8 0 0 0 -.4.4h-.2c-.2.3-.2.4-.1.3l-.4.5a7.5 7.5 0 0 1 -.7 1.2.4.4 0 0 1 -.1.3 24.4 24.4 0 0 1 -1 2.4c.1.2.2.3.2.5l.6 1.2a5.4 5.4 0 0 1 .6 1.1l.3.3 4 3.6a4.5 4.5 0 0 1 2.1 1l.4.3.7.2 2.8.7 1.4.4h3.7a16 16 0 0 1 2.3-.3h2.1l3.1-.6 6.2-1.5 6.9-1.2 2.3-.3h2.1l3.1-.3h.8a3.5 3.5 0 0 0 1.4-.3l2.9-.8 6.8-1.6 6.7-1.3 3.3-1 3-.7a47.7 47.7 0 0 1 6.2-1.7 64.2 64.2 0 0 1 7.5-1h6.8a69.3 69.3 0 0 1 7.8 1l6.6 1.1h10.3c.3-.1 1.2-.3.4 0h.1a47.8 47.8 0 0 1 7.6-.4h12.4a24 24 0 0 1 2.8-.3h.1l2.9-.8 1.7-.6.7-.2.3-.2.6-.2 1.2-.8.9-.5v-.2l.7-.5.9-1h.2a5 5 0 0 1 .8-1.2l.6-1.2.7-1.3a.8.8 0 0 1 .2-.4c.3-1 .7-1.9.9-2.8a9.3 9.3 0 0 0 .4-1.3.6.6 0 0 1 .1-.4c0-.4.3-2.5.4-3.6a3.4 3.4 0 0 1 0-1 13.3 13.3 0 0 1 .3-2.8 30.9 30.9 0 0 1 4.7-12.1 24.8 24.8 0 0 1 11.9-9.3l1.6-.6.8-.2h.2l.8-.4 1.1-.6a26.4 26.4 0 0 1 3.8-1.8h.1l.6-.3 1.3-.7 3.9-1.7.7-.3.4-.2h.2l.6-.3 5.8-3.1a30 30 0 0 1 4.1-1.8l1.2-.6.4-.2a.8.8 0 0 0 .4-.4l.8-.8a.3.3 0 0 1 .1-.2 8.3 8.3 0 0 0 .8-1.2zm.3.5c-.1-.1-.1-.3-.2-.4v-.2a.6.6 0 0 0 .2.6zm-197.5 55.8-.3.4a.4.4 0 0 0 .3-.4zm186.6-78.4h.1c-.6-.7-.3-.4-.1 0zm.1.5v-.3h-.1a2 2 0 0 0 .1.3zm-199.5-43.2v.2c0 .1-.1.1-.1.2s.2-.4.1-.4zm55.6 130.6h.4c-.6-.1-.7 0-.4 0zm-38.9-22.7h.1c0 .1 0 .1-.1.1z"/></svg>