<svg height="256" viewBox="0 0 256 256" width="256" xmlns="http://www.w3.org/2000/svg"><path d="m43.7 128.7.3 2.6a6.7 6.7 0 0 1 -.8 3.7 4.3 4.3 0 0 1 -1.2 2.2 4.9 4.9 0 0 1 -1.8 1.7 4.6 4.6 0 0 1 -2.1 1.3 5.4 5.4 0 0 1 -2.5.6 7 7 0 0 1 -3.8-.1l-2.4-1-1.9-1.5-.4-.4a9 9 0 0 1 -2.3-4c-.1-.9-.3-1.7-.4-2.5a8.6 8.6 0 0 1 .8-3.6 7 7 0 0 1 1.9-2.9l.4-.4a7.2 7.2 0 0 1 3.1-2 5 5 0 0 1 2.4-.6 7.4 7.4 0 0 1 3.9.1l2.3 1 2 1.5 1.5 2c.3.8.7 1.5 1 2.3zm-3.6 57.5-2.7-2.1a13.7 13.7 0 0 0 -6.9-1.8 10.4 10.4 0 0 0 -5.2 1.1 10.4 10.4 0 0 0 -4.3 2.8 9.5 9.5 0 0 0 -2.8 4.4 9.5 9.5 0 0 0 -1.2 5.2c.1 1.2.3 2.4.5 3.6a13.1 13.1 0 0 0 3.5 6l2.7 2.1a12.7 12.7 0 0 0 6.8 1.9 10.8 10.8 0 0 0 5.3-1.2 10 10 0 0 0 4.3-2.8 9.8 9.8 0 0 0 2.8-4.4 10.2 10.2 0 0 0 1.2-5.2c-.2-1.2-.3-2.4-.5-3.6a13.1 13.1 0 0 0 -3.5-6zm169.7 24.2a7 7 0 0 0 -1.9-3.6 5 5 0 0 0 -1.9-1.9 7 7 0 0 0 -3.6-1.9l-2.8-.4-2.9.4a11.6 11.6 0 0 0 -6.3 4.9h-.1c-.3.9-.7 1.7-1 2.6a7.5 7.5 0 0 0 -.2 4.2 5 5 0 0 0 .7 2.7 7.7 7.7 0 0 0 2.2 3.4l2.1 1.7 2.6 1a6.5 6.5 0 0 0 1.9.4 8.1 8.1 0 0 0 3.1 0 7.7 7.7 0 0 0 3.6-1.2l2-1.5a9.8 9.8 0 0 0 2.5-4.3v-.2h.1l.3-2.8v-.6c-.1-1-.2-1.9-.4-2.9zm-12.7-48.7c-18.1 0-18.2 28.2 0 28.2s18.1-28.2 0-28.2zm-27.9-19.1-2.9-2.2a13.5 13.5 0 0 0 -7.1-1.9 10.2 10.2 0 0 0 -5.4 1.2 9.8 9.8 0 0 0 -4.5 2.9 11.1 11.1 0 0 0 -3 4.5 12.6 12.6 0 0 0 -1.2 5.5l.5 3.7a13.6 13.6 0 0 0 3.7 6.2l2.8 2.2a13.8 13.8 0 0 0 7.1 1.9 9.8 9.8 0 0 0 5.4-1.2 9.8 9.8 0 0 0 4.6-2.9 10.9 10.9 0 0 0 2.9-4.5 10.2 10.2 0 0 0 1.2-5.4l-.5-3.8a14.9 14.9 0 0 0 -3.6-6.2zm-40.5 15.8a15.6 15.6 0 0 0 -4.1-6.4l-4-3.1-4.8-2-5.3-.7-5.2.7-4.8 2a16.2 16.2 0 0 0 -5.6 5.1 10.1 10.1 0 0 0 -1.3 1.6l-.3.4-.3.6a19.2 19.2 0 0 0 0 19.3l1.5 1.9 1.5 2h.1a21.5 21.5 0 0 0 4.1 3.2l4.7 1.9h.2l5.2.7h.2l5.3-.7 4.8-2a15.5 15.5 0 0 0 5.6-5.2 10.4 10.4 0 0 0 2.5-4.3 10.3 10.3 0 0 0 1.4-5.1 11.4 11.4 0 0 0 0-5.2 10.3 10.3 0 0 0 -1.4-4.7zm-51.8-11.7-3.3-2.5a15.3 15.3 0 0 0 -8-2.2 11.8 11.8 0 0 0 -6.2 1.4 11.6 11.6 0 0 0 -5.2 3.3 13.6 13.6 0 0 0 -3.3 5.2 11.7 11.7 0 0 0 -1.4 6.1l.6 4.3a16.4 16.4 0 0 0 4.1 7.1l3.3 2.5a17.5 17.5 0 0 0 8.1 2.2 12.7 12.7 0 0 0 6.1-1.4 13.6 13.6 0 0 0 5.2-3.3 12.5 12.5 0 0 0 3.3-5.2 12 12 0 0 0 1.4-6.2l-.6-4.2a16.4 16.4 0 0 0 -4.1-7.1zm-47.2-33.3a22.2 22.2 0 0 0 11.3 3 16 16 0 0 0 8.6-1.9 16.2 16.2 0 0 0 7.2-4.6 16.2 16.2 0 0 0 4.6-7.2 16.7 16.7 0 0 0 1.9-8.6c-.2-2-.5-4-.8-5.9a22.4 22.4 0 0 0 -5.7-9.9l-4.5-3.5a22.5 22.5 0 0 0 -11.3-3 15.8 15.8 0 0 0 -8.6 1.9 16.2 16.2 0 0 0 -7.2 4.6 16.2 16.2 0 0 0 -4.6 7.2 17 17 0 0 0 -2 8.6l.8 5.9a22.6 22.6 0 0 0 5.8 9.9zm155.9-25.6-1.2-8.8a31.9 31.9 0 0 0 -8.5-14.5l-6.6-5.2a32.7 32.7 0 0 0 -16.7-4.5 25.2 25.2 0 0 0 -12.7 2.8 24.7 24.7 0 0 0 -10.6 6.9 23.9 23.9 0 0 0 -6.8 10.6 25 25 0 0 0 -2.9 12.7l1.2 8.8c.3 1 .6 2 1 3a25.1 25.1 0 0 0 -3.2-4.1l-4.9-3.8a24.1 24.1 0 0 0 -12.3-3.3 18.7 18.7 0 0 0 -9.3 2.1 19 19 0 0 0 -7.8 5 18.3 18.3 0 0 0 -5.1 7.8 19.1 19.1 0 0 0 -2.1 9.4l.9 6.5a24.4 24.4 0 0 0 6.3 10.7l4.9 3.8a23.8 23.8 0 0 0 12.2 3.3 18.8 18.8 0 0 0 9.4-2.1 19 19 0 0 0 7.8-5 18.1 18.1 0 0 0 5-7.8 19.1 19.1 0 0 0 2.1-9.4l-.9-6.5a7.8 7.8 0 0 0 -.5-1.4 33.8 33.8 0 0 0 5 6.3l6.7 5.2a32.3 32.3 0 0 0 16.6 4.5 24 24 0 0 0 12.7-2.9 23.9 23.9 0 0 0 10.6-6.8 24.7 24.7 0 0 0 6.9-10.6 25.2 25.2 0 0 0 2.8-12.7zm60.4-46.5a25.2 25.2 0 0 0 -6.7-11.6l-5.3-4.1a25.7 25.7 0 0 0 -13.2-3.6 19.5 19.5 0 0 0 -10.1 2.3 19.3 19.3 0 0 0 -8.4 5.4 19 19 0 0 0 -5.4 8.4 19.7 19.7 0 0 0 -2.3 10.1l.9 7a25.9 25.9 0 0 0 6.8 11.5l5.3 4.1a25.7 25.7 0 0 0 13.2 3.6 19.4 19.4 0 0 0 10.1-2.2 20.2 20.2 0 0 0 8.4-5.5 18 18 0 0 0 5.4-8.4 19.5 19.5 0 0 0 2.3-10.1c-.3-2.3-.6-4.6-1-6.9zm-36.2 70-3.8-3c-3-1.7-11.6-2.3-15-2.3s.4.2-1.9 1.3a17.4 17.4 0 0 0 -10 10.1 14 14 0 0 0 -1.6 7.3l.7 5a19.7 19.7 0 0 0 4.8 8.4l3.9 2.9a18.6 18.6 0 0 0 9.5 2.6 14 14 0 0 0 7.3-1.6 14.6 14.6 0 0 0 6.1-3.9 13.9 13.9 0 0 0 3.9-6.1 14.3 14.3 0 0 0 1.7-7.3c-.3-1.7-.5-3.4-.7-5.1a18 18 0 0 0 -4.9-8.3z"/></svg>