<svg height="256" viewBox="0 0 256 256" width="256" xmlns="http://www.w3.org/2000/svg"><path d="m244.6 33.5v-.2c.1-.1.1 0 0 .2zm-24.7-11.2c.1-.3.1-.2 0 0zm-25.9 76a5.3 5.3 0 0 1 1.4-2.4 4.5 4.5 0 0 1 1-.9l.2-.3a10 10 0 0 1 .8-1.4l.2-.4a12.4 12.4 0 0 1 .4-1.6v-.2a1.5 1.5 0 0 1 .1-.7v-1.8c.1-2.2-.1-4.3 0-6.4a37.8 37.8 0 0 1 1.3-6.7c.6-2 1-4.1 1.6-6.2v-.6a2.8 2.8 0 0 0 0-1.3v-1.7a5.6 5.6 0 0 0 -.1-.7 36.2 36.2 0 0 0 -1.7-5.6 18.6 18.6 0 0 1 -1-2.5c0 .2-.4-.8-.4-.9l-.6-1.2a16.1 16.1 0 0 1 -2.3-7.1 29.6 29.6 0 0 1 .3-5.9c.1-.2.1-.4.2-.6a6.8 6.8 0 0 1 -1-5.5 5.4 5.4 0 0 1 2.7-3.4 4.9 4.9 0 0 1 1.7-.6l1.7-.2h.4l1.3-.4.8-.2a3.1 3.1 0 0 1 1-.5 22.5 22.5 0 0 0 2.1-1.2l.6-.4.8-.7a9.8 9.8 0 0 0 1.7-1.8l.8-.9a.1.1 0 0 0 .1-.1h.1l.5-.9c.1-.1.1-.1.1-.2v-.2c.1-.1.1-.3.2-.5 0-.3-.1-.5-.1-.8a9.9 9.9 0 0 1 .3-2.4v-.3a16.5 16.5 0 0 1 .6-3.2 12.6 12.6 0 0 1 3-5.1l1.5-1.4a3.9 3.9 0 0 1 1-.8l.6-.5.3-.3c2.5-2.4 6.1-3.7 9.4-4.9 1.5-.5 3.4-1.4 5.1-1.4l1.8-.7a11.8 11.8 0 0 1 2.7-.6c4.1-.3 7.8 2.9 8.9 6.7a13.4 13.4 0 0 1 .2 6.3c-.1.2-.1.5-.2.7s.1-.7 0-.1-.1.8-.2 1.2-.1.5-.1.7v.3a10.2 10.2 0 0 1 -.3 3c.2-1.1 0 .2 0 .4l-.3 2a1.3 1.3 0 0 0 -.1.6c0 .2-.1.9-.1.9s-.1 1.6-.2 2.3a9.9 9.9 0 0 1 -.2 1.7c0 .1-.1.1-.1.2v1.3c0 .8.1 1.5.1 2.2a12.7 12.7 0 0 1 -.1 2 9.9 9.9 0 0 1 -.2 1.7v.8a30.3 30.3 0 0 1 -2.2 11 6.1 6.1 0 0 0 -.5 1.2c-.1.1-.1.2-.2.2a.8.8 0 0 1 -.1.4l-1.1 2.7-.9 1.6s-.2.8-.3.8l-.7 1.9-2 4.2-.2.4v.2l-.3 1.1c-.1.6-.3 1.3-.4 2v2.3a19.2 19.2 0 0 1 0 2.4 26.8 26.8 0 0 1 -.7 5.6 43.5 43.5 0 0 1 -2.7 10c-1.4 3.1-4.1 5.5-6.6 7.7s-4.8 4.7-7.9 6.4a17.7 17.7 0 0 1 -6.4 2h-3.9l-.5.3-1.1.7-1.7 1a10.8 10.8 0 0 1 -5.5 1.7c-2.8.2-5.5-2.7-4.4-5.5zm41.3-59.9c.1-.1 0-.1 0 0zm2-24.7c-.1.2-.1.8 0 0zm-32.6 25.9a7.1 7.1 0 0 1 .5 2.6 8.9 8.9 0 0 1 -.2 1.5c0 .2-.1.3-.1.5a4.4 4.4 0 0 1 -1.1 2.4v.7a1.7 1.7 0 0 1 .1.7 2.1 2.1 0 0 1 .2.6c.1.2.1.3.2.4s.5.9.7 1.4a23.2 23.2 0 0 1 1.8 3.9c1.6 3.9 3.2 7.8 3.2 12.2s-1.3 8.6-2.3 12.9a9.4 9.4 0 0 0 -.4 1.6c-.1.3-.1.6-.2.9s0 0 .1-.1-.1 2.1-.1 3.1.1 4.2-.1 6.2h3.3c-.1-.1.8-.2.8-.2l.8-.2.8-.4 2-1.2h.4l.9-.9 1.7-1.7 3.8-3.5 1.7-1.7.4-.6c.1-.2.1-.4.2-.5a8.3 8.3 0 0 0 .4-1.2l.3-.8.7-2.5c.3-1.5.5-3 .8-4.5l.3-1.3c.1-.9 0-.3 0-.1v-2.4c0-3.3.1-6.7 1.3-9.8s1.5-3.2 2.2-4.9l.4-.9c.1-.2.3-.8.3-.5a23.4 23.4 0 0 1 .9-2.4c.4-.7.7-1.4 1.1-2.2s.2-.5.2-.6l.5-1.1a20 20 0 0 1 1-2.1c0-.2.1-.3.1-.4a.3.3 0 0 0 .1-.2l.3-.8a25.6 25.6 0 0 0 .5-2.7c.1-.1.1-.1.1-.2v-1.2c.1-.8 0-1.5.1-2.2s.1-.6.1-.9.2-1.7.2-1.6-.1-2.7-.1-4a15.5 15.5 0 0 1 .3-3.1c0-.1.1-.2.1-.3v-1.2c.1-1.2.2-2.3.4-3.5s.1-.6.2-.9v-.2a6.7 6.7 0 0 1 .4-2.5.4.4 0 0 1 -.1-.3v-.8a7.8 7.8 0 0 1 .4-2.2 10.1 10.1 0 0 1 .3-1.7c0-.4.1-1 .1-1.6s-.1-.1-.1-.2h-.1l-.8.2-1.8.6-1.2.3-4.5 1.4-.9.4-.8.3-.6.3-.9.4-1 .6h-.1l-.8.7-.9.6-1.3 1.2-.6.6-.5.7-.2.4a1.9 1.9 0 0 0 -.2.7c-.1.1-.1.6-.1.6s-.1.6-.2 1a5.9 5.9 0 0 1 -.2 1.3 12.2 12.2 0 0 1 -.1 2.7c-.6 3.1-2.5 5.6-4.6 7.8a23.2 23.2 0 0 1 -7.1 5.3zm-3.7 29.5c.1-.2 0-.3 0 0zm45 78.5a46.2 46.2 0 0 1 .4 10.5c-.2 3.5-.8 7-1.3 10.5a6.9 6.9 0 0 0 -.2 1.3 1.7 1.7 0 0 0 -.1.7 17.9 17.9 0 0 0 -.2 2.3l-.3 2.5a4.9 4.9 0 0 1 -.1 1.2c0 .4-.1.7-.1.9v.4a24.4 24.4 0 0 0 -.1 2.7c-.1.6-.1 1.2-.2 1.7s-.2 1.4-.1.5c-.2 1.8-.4 3.6-.7 5.3a39.2 39.2 0 0 1 -2.8 10c-.3.8-.7 1.5-1 2.3l-.3.8a3.6 3.6 0 0 0 -.4.9c-.7 1.7-1.5 3.4-2.3 5.1a27.2 27.2 0 0 0 -1.1 2.5 1.7 1.7 0 0 0 -.3.6l-.3.8c-.6 1.5-1.3 3.1-2 4.6a30 30 0 0 1 -5.3 7.5 19.7 19.7 0 0 1 -4.3 3.3l-.7.5-.5.5-2.4 1.8-4.3 3.2-.9.7-.7.5a15.1 15.1 0 0 1 -2.1 1.4l-2.7 1.1h-.3l-1.8.8a13.9 13.9 0 0 1 -4.6.4 30.2 30.2 0 0 1 -9.7-2.9l-.7-.3h-.1l-.8-.2h-2.7l-1.9.6-.9.4-.7.3-2.2 1.1c-1.2.7-2.5 1.3-3.8 1.9a14.7 14.7 0 0 1 -5.3 1.9 13.5 13.5 0 0 1 -4.5-.5c-3.5-.8-6.1-2.9-8.8-5.1s-5.7-4.1-7.1-7.2c-3.1-6.3-1.9-14 1.8-19.7a34.3 34.3 0 0 1 7.4-7.8 19.7 19.7 0 0 1 3.8-2.6l1.8-.9h.1c.1-.2.3-.5.4-.5l2.1-3.7a9.3 9.3 0 0 1 .5-1c.1 0 .1-.1.1-.3l.9-2.1c.5-1.5.9-3.1 1.5-4.6s.5-1.3.8-1.9v-.2a14.2 14.2 0 0 0 .7-2.2l.6-2.6c0-.3.1-.6.1-.9s.1-.5.1-.6a38.5 38.5 0 0 0 .2-4.8 24.4 24.4 0 0 0 -.1-2.7c0-.2-.1-.4-.1-.7v-.8c-.3-1.5-.4-2.9-.8-4.4a.8.8 0 0 1 -.1-.4l-.3-.4a4.1 4.1 0 0 0 -.5-.9l-1.1-1.9a16.3 16.3 0 0 0 -.9-1.9l-.4-.7-.5-.5a27.3 27.3 0 0 0 -3.3-3.5l-.7-.8a6.1 6.1 0 0 1 -.7-1l-.4-.4a13.4 13.4 0 0 1 -1.1-1.4 3.6 3.6 0 0 1 -.4-3.7h-.1a8.2 8.2 0 0 1 .2-4.4 5.9 5.9 0 0 1 4.8-3.9c1.2-.2 2.3-.8 3.5-1.1a39.2 39.2 0 0 0 4.9-1.3 11.7 11.7 0 0 1 4.9-.7c2.2.2 3.8 1.2 5.7 2.1l4.4 1.9 1.1.6.8.2h1.7l1.1-.3 1.7-.5 1.1-.4h.1l.6-.3h.1a3.1 3.1 0 0 0 .2-.8.4.4 0 0 1 .1-.3 7.1 7.1 0 0 1 -.1-1.4c.1.3.1.1 0-.1s0-.1.1-.2v.2a7 7 0 0 1 -.3-2.9 10.9 10.9 0 0 1 1.3-5.3 23.8 23.8 0 0 1 7.4-6.7 31.1 31.1 0 0 1 4.1-2l2.7-1.1 1.1-.5c.9-.4.3-.1.1-.1 3.1-1.2 6.4-2.2 9.7-1.3s5.7 4 7.6 6.8 1.6 2.7 2.3 4.1a21.5 21.5 0 0 1 1 2.7l.3.7.3.6 1.4 3c-.3-.8.3.6.3.6a2 2 0 0 0 .4.8c.6 1.5 1.3 2.9 2 4.4a39.1 39.1 0 0 1 3.2 9.6zm-45.3-10.9c-.1.2-.1.2 0 .1zm36.9 17.1c0-.9-.1-1.8-.1-2.8a1.3 1.3 0 0 1 -.1-.6v-.6a32 32 0 0 0 -1-4.2 27.7 27.7 0 0 0 -1-2.6v-.2c-.1-.4-.3-.7-.4-1.1s-1.3-2.6-1.9-3.9-.9-2-1.3-3l-.2-.3-.6-1.2a22.6 22.6 0 0 1 -1.7-4.3v-.2l-.2-.4-.6-1a17.4 17.4 0 0 0 -1.1-1.8c-.4-.5-.7-1.1-1.2-1.7h-.1l-.6-.8-.5-.4h-1.3l-1.5.5-.7.2-1.1.5-1.9.8h-.3l-1 .4-1.9 1c-1.1.6-2.1 1.4-3.2 2.1l-.4.4-.7.6-.6.6-.3.4v.2.9a12.9 12.9 0 0 1 .3 4.8c-.4 3.5-1.9 6.8-5.2 8.5a23.2 23.2 0 0 1 -8.6 2.6c-3.7.4-6.8-1.3-10-2.8l-4.3-2c.1.1.3.2-.1 0h-.6l-.6.2-4.7 1.3-.8.2a4.1 4.1 0 0 1 0 2.9l2.1 2.3a19.7 19.7 0 0 1 2.9 4.2c.6 1.3 1.4 2.5 2 3.8 1.6 3.1 2 6.6 2.4 10.1a37.3 37.3 0 0 1 -2.7 19 1.4 1.4 0 0 1 -.2.6v.2l-.3 1-.6 2.1c-.6 1.5-1.1 3-1.7 4.4a38.8 38.8 0 0 1 -2.4 4.5 12.9 12.9 0 0 1 -2.5 3.6 17.7 17.7 0 0 1 -4.1 2.6l-1.8 1.1-.7.5-.6.5a37 37 0 0 0 -2.8 2.8l-1.3 1.5-.2.2-.6 1a21.2 21.2 0 0 0 -1.1 2.1c0 .1 0 .1-.1.1v.2l-.3.8c-.1.5-.3 1.1-.4 1.7v.6a4.1 4.1 0 0 0 -.1 1.1c0 .3.1.6.1 1v.5c.2.6.3 1.2.5 1.8s.4.8.3.7v.2l.6.6.6.6 3.7 3.1 1.7 1.3q.3.1.3.3h.2l.6.4.9.5h.4l1.7.4h1.1c5.4-2.6 10.7-6.3 16.9-6.4a11.8 11.8 0 0 1 4.9.8l2.6 1.2h.2l1.1.4 2 .5 1.2.3.3.2h2.2l2.3-.9c.1-.1 1.3-.6.3-.1l.7-.4c.4-.3.4-.3.1 0l.9-.7.8-.6 1.8-1.4 3.6-2.6.7-.6.7-.6 2.4-1.8 1.1-.7.7-.5 1.1-1.1 1.2-1.4v-.2h.2l.4-.7a27.5 27.5 0 0 0 2-3.8h.1a3.6 3.6 0 0 1 .4-.9 13.4 13.4 0 0 1 .7-1.8c.7-1.8 1.5-3.5 2.3-5.3l.9-1.9a3.6 3.6 0 0 0 .4-.9l.2-.4 2.3-5.3c.3-.8.1-.3.1-.2s.3-.8.4-1.3l.6-1.9c.3-1.6.6-3.2.8-4.8s.1-.4.1-.2.1-.9.1-1.4.2-2 .4-3v-1.4a17.9 17.9 0 0 1 .2-2.3c.1-1.3.2-1.6.1-.9v-.2c0-.4.1-.8.1-1.2s.1-1.5.2-2.3c.3-3.3.9-6.6 1.4-9.9v-.3c0-.1.1-.2.1-.4s.1-.7.1-1.1.1-1.5.2-2.2-.1-3-.1-4.6zm-86.6 38.2a26.2 26.2 0 0 0 -2.8 3 32.4 32.4 0 0 1 -4.6 3.7 20 20 0 0 1 -4.9 2.8 19.1 19.1 0 0 1 -11.8-.6 35.7 35.7 0 0 1 -5.7-2.3l-2.4-1.1h-.4l-1-.2h-2.4l-1.3.3c-1.9.5-3.8 1-5.7 1.3a25.8 25.8 0 0 1 -12.6-1.1 52.5 52.5 0 0 1 -5.5-2.2l-1.2-.6h-.5l-2.6-.7-2.9-.4-1.4-.2-.9-.2h-4.3l-2.6.7-1 .4-.8.3c-1.6.8-3.1 1.9-4.6 2.8a29.5 29.5 0 0 1 -11.4 4.1 36.7 36.7 0 0 1 -11.4-1l-2.5-.5c-1.4-.2.8.3-.5 0h-.5l-2.5.5-.9.3-.8.3c-3.8 2-7.6 4.3-12.1 3.5a33.9 33.9 0 0 1 -5.2-1.5l-3-1.2-.8-.3-.9-.3c-3.8-1-7.9-2-10-5.7s-1.5-7.7-1.5-11.5-.3-7.6.2-11.3c0-.4.1-.8.1-1.2s.1-.6 0-.1a5.7 5.7 0 0 0 .1-1.3v-2.6a20.8 20.8 0 0 1 .7-5.5c.9-3.7 3-6.6 5.2-9.6a24.4 24.4 0 0 0 2.4-4.1l.3-.8c.1-.3.3-.7.4-1.1s.5-1.6.7-2.4c.8-3.2 1.5-6.4 2.6-9.5s1.8-6.9 2.7-10.4a23.8 23.8 0 0 1 1.7-4.9 3.1 3.1 0 0 1 .1-1c.6-2.5 3.2-3.5 5.5-3.1h1.4l3.1.5h1.8a17.5 17.5 0 0 1 3.3.6 16.6 16.6 0 0 1 5.5 3.1l1.9 1.6 1 .9c.1 0 .1.1.2.2h.2l2.3 1.3 1.2.5.4.2h.2l5.3 1.3 5.1.8h2.3l2.7.3a42.2 42.2 0 0 1 6.2 1l5.3 1.7 1.4.2.9.2 3.2.4a25.3 25.3 0 0 0 5 .3l5.7-.4h5.5c3.7 0 7.3-.6 11-.5a44.2 44.2 0 0 1 10.9 1.6c6.3 2.1 11.3 6.3 16.2 10.7l3.3 3a24 24 0 0 0 3.1 2.4l2.1 1.2.8.3.8.4a45 45 0 0 0 4.9 1.4 42.5 42.5 0 0 1 5.1 1.4 29 29 0 0 1 5.1 2.9c3.2 2.1 6.1 5.2 7 9.1a26.5 26.5 0 0 1 .8 6.3c-.1 2-.4 4.2-.7 6.2a22.1 22.1 0 0 1 -4.2 10.4 8.7 8.7 0 0 1 -4.8 3.4 17.3 17.3 0 0 1 -5.1.4h-.2l-1.2.2-.6.3zm1.5-9.6h3.3l.2-.3.5-.6.3-.6.6-1c-.5 1 0-.2.1-.3a25 25 0 0 0 .7-2.6c.1-.6.3-1.3.4-1.9v-.8c.1-.4.1-.8.2-1.2s.2-2.1.2-3.1a4.9 4.9 0 0 1 -.1-1.2.6.6 0 0 1 -.1-.4 8 8 0 0 0 -.5-2.1l-.3-.7-.3-.4a7.3 7.3 0 0 1 -.8-.9l-.7-.5-.6-.4-.6-.4-2.2-1.4-.7-.4-.6-.2c-3.2-.9-6.4-1.5-9.5-2.7a30.2 30.2 0 0 1 -9.2-5.7c-2.2-1.8-4.3-3.8-6.5-5.7l-1.7-1.4-.5-.5-.6-.4-3.4-2.3-2-1-.6-.3-.7-.3-4.1-1h-.6l-1.4-.2-2.8-.2h-5.1l-5 .4a41.3 41.3 0 0 1 -5-.1c-3.7 0-7.3.6-11 .3a23.8 23.8 0 0 1 -3.7-.6h-.7l-1.8-.2a27.8 27.8 0 0 1 -5-1.1 46.1 46.1 0 0 0 -5.3-1.5l-4.3-.5a98.8 98.8 0 0 1 -11.1-1.6 28.3 28.3 0 0 1 -10.2-4 55.4 55.4 0 0 1 -4.5-3.7l-.8-.7h-.3l-.7-.4-.8-.3h-1.8l-3-.4-.3.9c-.5 1.6-.7 3.3-1.2 5s-.8 3.3-1.3 4.9-1 2.9-1.4 4.3c-.9 3-1.5 6.2-2.4 9.2a34.6 34.6 0 0 1 -4.9 9.3 33.5 33.5 0 0 0 -2.9 4.4.4.4 0 0 0 -.1.3l-.3.9a10.6 10.6 0 0 0 -.4 1.9c0-.1-.1.9-.1 1.1v3.3a14.3 14.3 0 0 1 -.3 2.9v.5a6.6 6.6 0 0 0 -.1 1.4c-.1 3.7 0 7.4 0 11.1v2.7a5.7 5.7 0 0 0 .1 1.3c-.1-1.1 0 0 0 .3s.1.1.1.2.1.1.2.3l.4.3.7.2 1.3.4 2.3.6 2.8 1.1.8.3.7.3a36.4 36.4 0 0 0 4.7 1.4c-.2-.1.4 0 .4 0l1-.2 1.2-.5h.2c1.8-.9 3.5-1.9 5.3-2.6a25 25 0 0 1 4.5-1.2 18.3 18.3 0 0 1 6.6.4l2.7.5.6.2h.8a32.5 32.5 0 0 0 5.4.2h.8l.8-.2 2.1-.8 1.2-.5.8-.3 2.3-1.3a37 37 0 0 1 4.3-2.5 25.9 25.9 0 0 1 11.2-2.9 34 34 0 0 1 6.3.8 30.3 30.3 0 0 1 5.1.9l3.1 1.2 1.1.5.8.3a1.5 1.5 0 0 0 .6.3l1.2.5 2.3.8a17.6 17.6 0 0 0 9.1.2c3.9-.8 7.5-1.9 11.5-1.2a21.1 21.1 0 0 1 5.4 2.2l1.2.5.8.4 2 .7a15.8 15.8 0 0 0 3.1.9l.9.2h2l1-.2h.3l2.1-1.3 1.2-.8.6-.5a28.3 28.3 0 0 0 3-3 12.5 12.5 0 0 1 9.4-4.8zm29.8-98.5v.3c.1-.1 0-.2 0-.3zm-3.8-11-.2-.3c.1 0 .1.2.2.3zm-77 42.1h.1a.4.4 0 0 0 -.1-.3zm-11.9-54.7a17.4 17.4 0 0 1 -.6-5.1l.3-2.1c0-.2.1-.9 0-.1s.1-1.5.2-2.2a7.7 7.7 0 0 1 .2-1.5c.1-.6.1-1.1.2-1.7a23.3 23.3 0 0 1 .5-2.8 5 5 0 0 1 1.2-4 4.7 4.7 0 0 1 5.8-.5h.1l2.3-.6 4.4-1a26.1 26.1 0 0 1 4.8-.5l9.1.3c3 .2 6.1.1 9.2.1s5.8-.5 8.8-.7 6.3-.5 9.5-.6 6-.3 9.1-.3c5.7 0 11.5-.4 17.2.3s12.7 2.9 16.4 8.4 1.3 12.5-1.5 18.3a12.4 12.4 0 0 1 -1 2 2.1 2.1 0 0 1 -.3.7l.2.4.3.6c.4.8.7 1.7 1.1 2.5v.2l.4.8a28.5 28.5 0 0 1 1.6 4.4 54.3 54.3 0 0 1 2.3 8.8c0 .5.1.9.1 1.4s.1.4.1.6a19 19 0 0 1 .4 2.6c0 1.3-.3 2.7-.4 4.1a26.3 26.3 0 0 1 -.4 4.9 39 39 0 0 1 -1.7 4.8 74.5 74.5 0 0 1 -3.7 7.5 41 41 0 0 1 -4.6 7.1 9.9 9.9 0 0 1 -4.6 2.7 10.1 10.1 0 0 1 -3 .2h-.8l-.6.3h-.1v.2a5.7 5.7 0 0 0 -1.1 1.1 25.7 25.7 0 0 1 -3.7 2.8l-3.5 2a18.7 18.7 0 0 1 -4 2l-1.8.2-.5.2-2.8.4a18.3 18.3 0 0 1 -4.7-.3l-4.5-.9h-.8l-.8-.2h-1.9a42 42 0 0 0 -8.3.6c-3.2.5-6.4 1-9.6-.2a21.3 21.3 0 0 1 -4.5-2.3l-2.3-1.7c-.8-.6-.2-.1-.1-.1l-.6-.2-.7-.2h-1.5l-.8.2-.8.2-2.1.3c-2.2.4-4.3 1.1-6.6.8a14.1 14.1 0 0 1 -6.9-2.2 10.2 10.2 0 0 1 -4.5-6.4c-.6-3.1.1-5.9.7-9a32.1 32.1 0 0 1 .7-4.3v-.2a9.9 9.9 0 0 1 -.3-2.4.4.4 0 0 1 -.1-.3c-.1-.4-.3-.7-.4-1.1s-.1-.4-.2-.6l-.3-.5a32.3 32.3 0 0 1 -2.2-4.1c0-.2-.2-.6-.2-.8a4.6 4.6 0 0 1 -.5-1 13.3 13.3 0 0 1 -.3-2.8 35.6 35.6 0 0 1 .5-4.7c.3-1.6.8-3 1.2-4.5s.4-2.8.7-4.2a3 3 0 0 0 .2-1 5.6 5.6 0 0 0 .1-.7v-2.8c-.1 0-.2-.8-.2-.9l-.3-1.8c-.6-3-1.5-5.9-2.2-8.9zm4.7 43.6v-.2c-.1.1-.1.2 0 .2zm62.9 16.2-.3.2zm15.7.2a.1.1 0 0 0 -.1.1zm12.6-53.4a.5.5 0 0 0 -.1.3.4.4 0 0 0 .1-.3zm-86.7-17.8-.3 2.5a6.4 6.4 0 0 0 -.2.7.4.4 0 0 1 .1-.3v.2a23 23 0 0 1 -.3 2.6s-.1.5-.1.6v1.2c0-.2-.1-.8 0 .2a2.9 2.9 0 0 1 .2.9l.6 2.1 1.2 4.3c.2 1.4.4 2.7.7 4.1 1.3 6-.1 12-1.7 17.9l-.3 1.4a12.1 12.1 0 0 1 -.1 1.9v.3h.1a5.6 5.6 0 0 1 .4 1.2 1.7 1.7 0 0 1 .2.5c.6 1.1 1.3 2 1.8 3a19.9 19.9 0 0 1 1.5 4.3c.1.6.1 1.2.2 1.9a11.7 11.7 0 0 1 .4 2.6 29.3 29.3 0 0 1 -.7 4.1c-.3 1.5-.5 2.9-.9 4.3s-.1.4-.1.7a9.1 9.1 0 0 1 -.1 1.7v.2.2h.1l.2.2.3.3.3.2h.6l1.1.3h2.3l1.5-.4 3.8-.7a13.9 13.9 0 0 1 9.4 1 11.2 11.2 0 0 1 2.2 1.6h.3l.9.6 1.5.9.6.2.6.3.8.2h2.4l1.2-.2 2.1-.3a46.9 46.9 0 0 1 9.2-.6 50.7 50.7 0 0 1 5.4.9l1.7.4 1.1.2h3.6l2.5-.4.4-.2a58.8 58.8 0 0 0 6-3.5l.6-.5a4.6 4.6 0 0 0 .7-.7l1.4-1.2a14 14 0 0 1 4.3-2.4l3-.3h.9l.2-.2.5-.5v-.2a61.1 61.1 0 0 0 3.8-6.5c.6-1.4 1.3-2.7 1.9-4a3.6 3.6 0 0 0 .4-.9v-.2a13.4 13.4 0 0 0 .7-1.8 5.7 5.7 0 0 1 .4-1.4h.1v-2c0-1.3.3-2.6.4-3.9v-.8c0-.2-.1-.4-.1-.6l-.3-2.8c-.1-.3-.1-.7-.2-1.1v-.4a5.6 5.6 0 0 0 -.4-1.2c-.5-1.4-.8-2.8-1.2-4.2l-.6-1.8c.1.1-.1-.5-.2-.7l-.3-.6a27.2 27.2 0 0 1 -1.1-2.5l-.2-.3v-.2a16.9 16.9 0 0 1 -1.5-3.7c-.8-3.4 1-6.2 2.4-9.1a22.9 22.9 0 0 1 1-2.3l.2-.5.3-.7a8.4 8.4 0 0 0 .5-1.7l.3-1.1v-.8a3.5 3.5 0 0 0 -.1-.6.4.4 0 0 0 -.1-.3.8.8 0 0 0 -.2-.4c-.1-.3-.3-.5-.4-.8a7.4 7.4 0 0 1 -1.3-1.2l-.2-.2h-.2l-.7-.5-.8-.4-.6-.3-.7-.2-.8-.3-1.6-.4-1.3-.2-.7-.2h-5.3c-2.8-.1-5.6 0-8.4 0-5.9 0-11.8.1-17.7.6l-8.6.7a84.3 84.3 0 0 1 -8.7.3l-8.8-.3h-7.6c-1.4.3-2.8.5-4.2.9l-2.5.7zm-29.4 53.4c.7-.3-.3-.2 0 0zm8.2-36.4v-.2zm-64.1 32.7c-.1.4.2.6 0 0zm-1.1-4.1a5.2 5.2 0 0 1 -.4-5.5l.4-.6a6.6 6.6 0 0 1 .9-1.9l.3-.5c0-.1.1-.2.2-.4s.1-.4.2-.4.1-.5.1-.7v-1.3a11 11 0 0 1 .2-1.8 10.1 10.1 0 0 1 1.7-4l1.6-2.1.3-.3a1 1 0 0 1 .1-.3.3.3 0 0 1 .1-.2 2.4 2.4 0 0 1 .2-.8v-6.5a6.6 6.6 0 0 0 -.2-.9 3.2 3.2 0 0 0 -.1-.8 9.9 9.9 0 0 0 -.2-1.7 8.1 8.1 0 0 1 -.1-1.6 19.7 19.7 0 0 1 .1-4.2c.3-2.1 1.3-4 1.8-6.1-.1.2 0-.1 0-.4s0-.1.1-.1-.4-1-.3-.9-1.2-1.6-1.7-2.5a9.7 9.7 0 0 1 -1-8.9 27 27 0 0 1 1.7-3.4 16.3 16.3 0 0 1 1.1-2.3c1.8-2.8 4.6-3.9 7.8-4a4.7 4.7 0 0 1 1.7.4h3.6a22 22 0 0 1 4.4-.5h.5a9.1 9.1 0 0 1 2.3-.3c.3 0 1.1-.2.3 0h.7a7 7 0 0 1 2.5-.1l1.4.2h.8a10.7 10.7 0 0 1 2.5.3h.6l2 .4c-.3-.1.9-.1 1.1-.1a32.4 32.4 0 0 1 7.6 1.8l6 2.3a21.5 21.5 0 0 1 6.6 4.5 63.3 63.3 0 0 1 4.9 5.6l1.2 1.1.3.4 1.3.3a6.6 6.6 0 0 1 2.2 1.5 10 10 0 0 1 3.5 5.9 16.6 16.6 0 0 1 .3 4.4v.7a10.9 10.9 0 0 1 .4 2.5 15 15 0 0 1 .2 2c.1.2.1.5.2.7a17.9 17.9 0 0 1 .2 2.3v.4h.1v.7a20.3 20.3 0 0 1 .2 4.3 7.5 7.5 0 0 1 0 1.5v.2c.1.4.1.9.2 1.3a19.3 19.3 0 0 1 .1 2.4v.6h.1a8.8 8.8 0 0 1 .3 3.6 11.5 11.5 0 0 1 -1.1 4.5 5.7 5.7 0 0 1 -.8 1.3c0 .1-.1.2-.1.3s.1 1.9 0 2.8a13.4 13.4 0 0 1 -.6 4l-.3.8c0-.2-.1-.2-.1.1 0 .6.1 1.2.1 1.7v.3a.7.7 0 0 0 .1.5 16.4 16.4 0 0 1 .2 2.3c0 2.7-1.8 5.5-3.6 7.5l-1.2 1.2-.3.4c-1 1.4-2.2 2.8-3.9 3.2a5.1 5.1 0 0 1 -4.5-.8 12.3 12.3 0 0 1 -6.3-.5l-1.1-.3h-2.2l-1.7.3a18.9 18.9 0 0 1 -4.1.3l-2.4-.4c-.3-.1-1.7-.3-.7-.2a13.7 13.7 0 0 1 -7.1-2.4l-2.7-1.9h-.1l-.7-.3-1.5-.3-1-.2h-1.8a29.5 29.5 0 0 1 -4.2-.2l-3.3-.7-1.7-.5-.7-.2h-1.3l-1.8.5-.7.3h-.1a6.7 6.7 0 0 1 -1.8.7c-2.8.9-6.1.4-7.8-2.2a7.7 7.7 0 0 1 -1.1-3.9c0-.1-.1-.5-.1-.6l-.3-1.8c0-.3-.2-.7-.2-1zm7.5 2c-.2.1-.2.2 0 0zm2.7 2.5c0-.2 0-.3-.1-.4 0 .2 0 .3.1.4zm47.7 10.9c-.1-.2-.3-.1 0 0zm7.5-64.7c0 .1.2.1.4.2zm-52.9-2.7a.4.4 0 0 0 .1.3c0-.1 0-.3-.1-.3zm-4 48.7v.2a9.8 9.8 0 0 1 1.1 3.4c0 .3.1.6.1.9a15.4 15.4 0 0 1 6.3-1.2c2.1.1 3.9.9 5.9 1.4l1.2.2h3.3a18.5 18.5 0 0 1 11.1 3.7 10.8 10.8 0 0 0 1.8 1.1l.4.2h1.3l1.6.2 1.1.3h2.4l1.8-.3a15.7 15.7 0 0 1 6.1 0 21 21 0 0 1 2.4.6l.5.2h.1a8.1 8.1 0 0 1 4.6-.3l1.3-1.5.3-.6.4-.7a20.7 20.7 0 0 1 -.4-5 33.7 33.7 0 0 1 .9-3.4c.1-.1.1-.5.1-.6v-1a19.5 19.5 0 0 1 .4-4.8 9.4 9.4 0 0 1 1.5-3c.1-.2.1-1.3.1-.3a1.7 1.7 0 0 1 .1-.7v-.4h-.1a27 27 0 0 1 -.4-2.8v-2a20.7 20.7 0 0 1 -.3-3.5 17.6 17.6 0 0 0 0-2.3v-1.1a.4.4 0 0 0 -.1-.3 13.7 13.7 0 0 1 -.2-1.9v-.4c-.3-1.2-.3-2.3-.5-3.4a3.8 3.8 0 0 0 -.1-1c0-.1-.2-1.5 0-.5a14.5 14.5 0 0 1 -.4-2.9v-2.2l-.2-.8a.3.3 0 0 0 -.1-.2v-.2l-.3-.2h-.6c-3.6-1-5.6-4.9-8-7.5s-2.4-2.4-3.5-3.5l-.2-.2h-.1l-1-.6h-.3l-.9-.3a88.1 88.1 0 0 0 -9.1-3l-1-.2h-.8a9.1 9.1 0 0 1 -2.3-.3c.2.1-.6 0-.8 0l-1.7-.7h-.2a4 4 0 0 1 -1.1 0l-1.9-.2h-.2a5.8 5.8 0 0 1 -1.8.2h-1.1a17.2 17.2 0 0 1 -3.2.2c-.2 0-1.4.2-.5 0l-1.3.3-2.9.4h-3.7l-1.1.2-.8 1.9-.8 1.3c.5-.8 0 .4 0 .3v.5l.7 1.1a12.9 12.9 0 0 1 2.8 7.3 16.3 16.3 0 0 1 -1.5 6.5 9.4 9.4 0 0 0 -.4 1.6.4.4 0 0 0 -.1.3v.4c.1 1 .1 2.1.1 3.1a5.1 5.1 0 0 1 .2.9v.8s.1.1.1.5a6.8 6.8 0 0 1 .2 1.4c.1 1.1.1 2.1.1 3.2a22.8 22.8 0 0 1 -.6 6.9 11.5 11.5 0 0 1 -2.3 4.2s-.1.2-.2.2a.4.4 0 0 1 -.1.3 7.1 7.1 0 0 1 -1 1.4v1.7a16.1 16.1 0 0 1 -.7 3.7 20 20 0 0 1 -1 2.1c-.2.2-.6 1-.5.7zm-1.4 2.7.2-.2v-.2zm-7.2-5.3c-.2.4-.1.3 0 0zm74.4-22.4a.1.1 0 0 1 -.1-.1h.1z"/></svg>