<svg enable-background="new 0 0 1268 418" viewBox="0 0 1268 418" xmlns="http://www.w3.org/2000/svg"><circle cx="945.4" cy="209.3" fill="#828299" opacity=".15" r="204.2"/><circle cx="844" cy="209.3" fill="#828299" opacity=".25" r="101.4"/><circle cx="1029.8" cy="278" fill="#828299" opacity=".25" r="94.4"/><path d="m844 209.3c0 27.9-22.6 50.5-50.5 50.5s-50.5-22.6-50.5-50.5 22.6-50.5 50.5-50.5c27.8 0 50.5 22.6 50.5 50.5z" fill="#828299" opacity=".45"/><path d="m945 209.3c0 27.9-22.6 50.5-50.5 50.5s-50.5-22.6-50.5-50.5 22.6-50.5 50.5-50.5c27.9 0 50.5 22.6 50.5 50.5z" fill="#828299" opacity=".45"/><path d="m1029.5 303.4c0 24-19.4 43.4-43.4 43.4s-43.4-19.4-43.4-43.4 19.4-43.4 43.4-43.4c24 0 43.4 19.4 43.4 43.4z" fill="#828299" opacity=".45"/><path d="m1117.8 304.7c0 24-19.4 43.4-43.4 43.4s-43.4-19.4-43.4-43.4 19.4-43.4 43.4-43.4c24 0 43.4 19.4 43.4 43.4z" fill="#828299" opacity=".45"/><circle cx="1029.7" cy="227.1" fill="#828299" opacity=".45" r="43.4"/><path d="m884.1 64.4-7.2.3.3 7.7-2.2.1-.7-17.4 10.7-.4.1 1.9-8.5.3.2 5.9 7.2-.3z" fill="#494960" opacity=".5"/><path d="m900.6 219.1h-2.2l-6.7-13v13h-2.2v-17.4h2.2l6.7 13v-13h2.2z" fill="#494960" opacity=".5"/><path d="m846.6 278.7h-7.3v6.1h8.5v1.9h-10.7v-17.4h10.6v1.9h-8.4v5.6h7.3z" fill="#494960" opacity=".5"/><path d="m1030.1 226.9-1.9 2.2v5.9h-2.3v-17.4h2.3v8.5l1.7-2.1 5.1-6.4h2.7l-6.1 7.6 6.5 9.8h-2.7z" fill="#494960" opacity=".5"/><path d="m981.2 309.8h8.5v1.9h-10.7v-17.4h2.2z" fill="#494960" opacity=".5"/><path d="m1054.1 318.9 2.8 8.7 3.1-8.7h2.7v17.4h-2.1v-6.9l.2-7.2-3.2 9.4h-1.3l-3-9.1.2 7v6.9h-2.1v-17.5z" fill="#494960" opacity=".5"/><path d="m1037.1 356.2c-.1.8-.3 1.5-.6 2.2-.3.6-.7 1.2-1.2 1.7s-1.1.9-1.8 1.1c-.7.3-1.5.4-2.3.4-.7 0-1.3-.1-2-.3-.6-.2-1.1-.5-1.6-.8-.5-.4-.9-.8-1.2-1.3s-.6-1-.8-1.6-.4-1.2-.5-1.8-.2-1.3-.2-1.9v-2.4c0-.6.1-1.3.2-1.9s.3-1.2.5-1.8.5-1.1.8-1.6.7-.9 1.2-1.3 1-.7 1.6-.8c.6-.2 1.3-.3 2-.3.8 0 1.6.1 2.3.4s1.3.6 1.8 1.1.9 1.1 1.2 1.8.5 1.5.6 2.3h-2.2c-.1-.5-.2-1-.4-1.5-.2-.4-.4-.8-.7-1.2-.3-.3-.7-.6-1.1-.8-.5-.2-1-.3-1.5-.3s-1 .1-1.4.3-.7.4-1 .7-.5.7-.7 1c-.2.4-.4.8-.5 1.2s-.2.9-.3 1.3-.1.9-.1 1.3v2.5c0 .4 0 .9.1 1.3.1.5.1.9.3 1.4.1.4.3.8.5 1.2s.4.7.7 1 .6.5 1 .7.9.3 1.4.3 1-.1 1.5-.3c.4-.2.8-.4 1.1-.8.3-.3.5-.7.7-1.2s.3-1 .4-1.5z" fill="#494960" opacity=".5"/><path d="m1110.5 179.2h-5.8l-1.4 4.5h-2.2l5.6-17.4h1.9l5.5 17.4h-2.2zm-5.2-1.9h4.6l-2.3-7.6z" fill="#494960" opacity=".5"/><circle cx="1001" cy="103.4" fill="#828299" opacity=".25" r="80.4"/><path d="m926.2 66c0 25.6-20.8 46.4-46.4 46.4s-46.4-20.8-46.4-46.4 20.8-46.4 46.4-46.4c25.7 0 46.4 20.8 46.4 46.4z" fill="#828299" opacity=".25"/><path d="m1059 144.4c0 16.9-13.7 30.6-30.6 30.6s-30.6-13.7-30.6-30.6 13.7-30.6 30.6-30.6 30.6 13.7 30.6 30.6z" fill="#828299" opacity=".45"/><circle cx="988.7" cy="58.2" fill="#828299" opacity=".45" r="33"/><path d="m997.9 66.7h-2.1v-8h-7.1v8h-2.1v-17.4h2.1v7.5h7.1v-7.5h2.1z" fill="#494960" opacity=".5"/><path d="m969 129.7c-.7.8-1.5 1.5-2.5 1.9s-2 .6-3.1.6c-.7 0-1.3-.1-2-.3-.6-.2-1.1-.5-1.6-.9s-.9-.8-1.3-1.3-.7-1.1-.9-1.6c-.2-.6-.4-1.2-.5-1.8s-.2-1.3-.2-1.9v-2c0-.6.1-1.3.2-1.9s.3-1.2.5-1.8.5-1.1.8-1.6c.7-1 1.7-1.8 2.8-2.2.6-.2 1.3-.3 2-.3.8 0 1.5.1 2.2.4 1.3.5 2.4 1.5 3 2.8.3.7.5 1.4.6 2.2h-2.2c-.1-.5-.2-1-.4-1.4s-.4-.8-.7-1.1-.7-.5-1.1-.7c-.5-.2-1-.3-1.4-.3-.9 0-1.8.3-2.5 1-.3.3-.6.7-.8 1.1s-.4.8-.5 1.3c-.1.4-.2.9-.3 1.4-.1.4-.1.9-.1 1.3v2c0 .5 0 .9.1 1.4s.2.9.3 1.4c.1.4.3.9.5 1.3s.5.7.8 1c.7.6 1.6 1 2.5 1h1c.3 0 .7-.1 1-.2s.6-.2.9-.4.5-.4.7-.6v-3.9h-3.5v-1.9h5.6z" fill="#494960" opacity=".5"/><path d="m1034.1 134.1h2.3v12.1c0 .8-.2 1.5-.5 2.2-.6 1.3-1.6 2.4-3 2.9-.7.3-1.5.4-2.2.4-.8 0-1.5-.1-2.2-.4-1.3-.5-2.4-1.5-2.9-2.7-.3-.7-.5-1.4-.5-2.2h2.2c0 .5.1.9.3 1.4.2.4.4.8.7 1.1s.7.5 1.1.7.9.3 1.4.3 1-.1 1.4-.3.8-.5 1.1-.8.5-.7.7-1.2.2-.9.3-1.4z" fill="#494960" opacity=".5"/><path d="m805.8 189.3c0 14.1-11.4 25.5-25.5 25.5s-25.5-11.4-25.5-25.5 11.4-25.5 25.5-25.5 25.5 11.4 25.5 25.5z" fill="#828299" opacity=".55"/><path d="m840.6 222.9c0 13-10.6 23.6-23.6 23.6s-23.6-10.6-23.6-23.6 10.6-23.6 23.6-23.6 23.6 10.6 23.6 23.6z" fill="#828299" opacity=".55"/><path d="m1078.1 85.2c0 17.3-14 31.3-31.3 31.3s-31.3-14-31.3-31.3 14-31.3 31.3-31.3c17.3 0 31.3 14 31.3 31.3z" fill="#828299" opacity=".45"/><path d="m1000.9 123.8c0 20.4-16.5 36.9-36.9 36.9s-36.9-16.5-36.9-36.9 16.5-36.9 36.9-36.9 36.9 16.5 36.9 36.9z" fill="#828299" opacity=".45"/><ellipse cx="902.3" cy="353" fill="#828299" opacity=".25" rx="53.6" ry="53.6" transform="matrix(.07088902 -.9975 .9975 .07088902 486.2323 1228.0895)"/><path d="m795 234.3c0 10.8-8.7 19.5-19.5 19.5s-19.5-8.7-19.5-19.5 8.7-19.5 19.5-19.5c10.8.1 19.5 8.8 19.5 19.5z" fill="#828299" opacity=".55"/><path d="m1083.1 290.4c0 13-10.6 23.6-23.6 23.6s-23.6-10.6-23.6-23.6 10.6-23.6 23.6-23.6c13 .1 23.6 10.6 23.6 23.6z" fill="#828299" opacity=".55"/><path d="m1111.2 318.9c0 10.8-8.7 19.5-19.5 19.5s-19.5-8.7-19.5-19.5 8.7-19.5 19.5-19.5c10.8 0 19.5 8.7 19.5 19.5z" fill="#828299" opacity=".55"/><g fill="#494960"><path d="m897.1 362.1v-17.4h4c1.1 0 2.2.2 3.2.6.9.4 1.7.9 2.4 1.6s1.2 1.6 1.5 2.5c.4 1.1.5 2.2.5 3.3v1.3c0 1.1-.2 2.2-.5 3.3-.3.9-.8 1.8-1.5 2.5s-1.5 1.3-2.4 1.6c-1 .4-2.1.6-3.2.6zm2.2-15.6v13.8h1.8c.8 0 1.7-.2 2.4-.5s1.2-.8 1.7-1.3c.5-.6.8-1.3 1-2 .2-.8.3-1.6.3-2.5v-1.3c0-.8-.1-1.7-.3-2.5-.2-.7-.5-1.4-1-2s-1-1-1.7-1.3c-.8-.3-1.6-.5-2.4-.5z" opacity=".5"/><path d="m1042.4 76.4h10.5v1.9h-4.2v13.6h4.2v1.9h-10.5v-1.9h4.1v-13.5h-4.1z" opacity=".5"/><path d="m821.5 227.6c0-.5-.1-.9-.4-1.4-.2-.4-.6-.7-.9-.9-.4-.3-.8-.5-1.3-.6-.5-.2-.9-.3-1.3-.5-.6-.2-1.3-.4-1.9-.7s-1.2-.6-1.7-1-.9-.9-1.3-1.4c-.3-.6-.5-1.3-.5-2s.2-1.4.5-2 .8-1.1 1.3-1.5 1.2-.7 1.8-.9c.7-.2 1.3-.3 2-.3s1.5.1 2.2.4c.7.2 1.3.6 1.9 1 .5.5 1 1 1.3 1.6.3.7.5 1.4.5 2.2h-2.3c-.1-.5-.2-.9-.4-1.4-.2-.4-.4-.8-.7-1.1s-.7-.5-1.1-.7c-.5-.2-.9-.3-1.4-.2-.4 0-.8.1-1.2.2s-.8.3-1.1.5-.6.5-.8.9-.3.8-.3 1.2c0 .5.1.9.4 1.3s.6.7.9.9c.4.2.8.4 1.2.6s.9.3 1.2.4c.4.1.8.3 1.3.5.4.2.9.4 1.3.6s.8.5 1.1.8.7.6.9 1c.6.7.9 1.7.8 2.6 0 .7-.2 1.4-.5 2s-.8 1.1-1.3 1.5c-.6.4-1.2.7-1.9.9s-1.4.3-2.1.3c-.8 0-1.5-.1-2.3-.4-.7-.2-1.4-.6-2-1s-1.1-1-1.4-1.6c-.4-.7-.6-1.4-.6-2.2h2.3c.1.5.2 1 .4 1.4s.5.8.9 1.1.8.5 1.2.7c.5.2 1 .2 1.5.2.4 0 .9-.1 1.3-.2s.8-.3 1.1-.5.6-.5.8-.9c.5-.6.7-1 .6-1.4z" opacity=".5"/><path d="m783.6 228.7h-5.4v15.5h-2.2v-15.5h-5.4v-1.9h12.9v1.9z" opacity=".5"/><path d="m780.2 189.5h-3.5v7.1h-2.2v-17.4h5.1c.8 0 1.6.1 2.3.3s1.3.5 1.9 1c.5.4 1 1 1.3 1.6.3.7.5 1.5.5 2.3 0 1-.3 2-.9 2.8-.3.4-.6.7-1 1s-.8.6-1.3.8l3.7 7.4v.1h-2.3zm-3.5-1.8h3c.5 0 1-.1 1.4-.2s.8-.4 1.2-.6c.3-.3.6-.6.8-1s.3-.9.3-1.4-.1-1-.3-1.5c-.2-.4-.4-.8-.8-1-.3-.3-.7-.5-1.2-.6s-1-.2-1.5-.2h-2.9z" opacity=".5"/><path d="m1096.6 319.7c0 .7-.1 1.3-.2 1.9-.1.7-.3 1.3-.5 1.9s-.5 1.2-.8 1.7-.7 1-1.2 1.4l3 2.5-1.5 1.4-3.4-2.9c-.5.1-1.1.2-1.6.2-.7 0-1.4-.1-2-.3s-1.1-.5-1.6-.9-.9-.9-1.2-1.4-.6-1.1-.8-1.7-.4-1.2-.5-1.9c-.1-.6-.2-1.3-.2-1.9v-1.5c0-.6.1-1.3.2-1.9s.3-1.3.5-1.9.5-1.2.8-1.7.7-1 1.2-1.4 1-.7 1.6-.9c1.3-.5 2.7-.5 4 0 .6.2 1.1.5 1.6.9s.9.9 1.2 1.4.6 1.1.8 1.7.4 1.3.5 1.9.2 1.3.2 1.9zm-2.2-1.6c0-.4 0-.9-.1-1.4 0-.5-.1-.9-.2-1.4s-.3-.9-.5-1.3-.4-.8-.7-1.1-.7-.6-1.1-.7c-.4-.2-.9-.3-1.4-.3-.9 0-1.8.3-2.5 1-.3.3-.5.7-.7 1.1s-.4.9-.5 1.3c-.1.5-.2.9-.3 1.4-.1.4-.1.9-.1 1.4v1.6c0 .5 0 .9.1 1.4s.1.9.3 1.4c.1.5.3.9.5 1.3s.4.8.7 1.1.7.6 1.1.8c.9.4 1.9.4 2.9 0 .4-.2.8-.4 1.1-.8.3-.3.5-.7.7-1.1s.3-.9.5-1.3c.1-.5.2-.9.2-1.4s.1-.9.1-1.4z" opacity=".5"/><path d="m1056.9 292v7h-2.2v-17.4h5.6c.8 0 1.5.1 2.2.4.7.2 1.3.6 1.8 1s1 1 1.2 1.6c.6 1.4.6 3 0 4.4-.3.6-.7 1.2-1.2 1.6s-1.2.8-1.8 1c-.7.2-1.5.4-2.2.4zm0-1.9h3.4c.5 0 1-.1 1.4-.2s.8-.4 1.1-.7.6-.6.7-1c.2-.4.3-.9.3-1.4s-.1-1-.3-1.4-.4-.8-.7-1.1-.7-.5-1.1-.7c-.5-.2-.9-.2-1.4-.3h-3.4z" opacity=".5"/><path d="m937.5 82.7v-17.5h5.2c.7 0 1.4.1 2.1.3s1.3.4 1.8.8c1.2.8 1.8 2.1 1.7 3.5 0 .4-.1.8-.2 1.2s-.3.7-.6 1c-.2.3-.5.6-.9.8-.3.2-.7.4-1 .6.5.1.9.3 1.3.6.8.5 1.4 1.2 1.6 2.1.2.5.2 1 .2 1.4 0 .7-.1 1.5-.5 2.1-.3.6-.7 1.1-1.3 1.6-.6.4-1.2.8-1.8 1-.7.2-1.4.3-2.2.3zm2.2-10h3.1c.4 0 .8-.1 1.2-.2s.7-.3 1.1-.5c.3-.2.6-.5.8-.9s.3-.8.3-1.2-.1-.9-.3-1.2-.4-.6-.8-.8c-.3-.2-.7-.4-1.1-.5s-.8-.2-1.3-.2h-3zm0 1.8v6.3h3.4c.4 0 .9-.1 1.3-.2s.8-.3 1.1-.6.6-.6.8-1 .3-.9.3-1.3c0-.5-.1-.9-.2-1.3-.2-.4-.4-.7-.7-1s-.7-.5-1.1-.6-.9-.2-1.3-.2z" opacity=".5"/><path d="m823.8 183.1c0 .6-.1 1.3-.2 1.9s-.3 1.2-.5 1.8-.5 1.1-.8 1.6-.7 1-1.2 1.3c-.5.4-1 .7-1.5.9-1.3.4-2.6.4-3.9 0-.6-.2-1.1-.5-1.5-.9-.5-.4-.8-.8-1.2-1.3-.3-.5-.6-1.1-.8-1.7s-.4-1.2-.5-1.8-.2-1.2-.2-1.9v-2c0-.6.1-1.3.2-1.9s.3-1.2.5-1.8.5-1.1.8-1.7c.3-.5.7-1 1.2-1.4s1-.7 1.5-.9c1.3-.4 2.6-.4 3.9 0 .6.2 1.1.5 1.5.9.5.4.8.8 1.2 1.3.3.5.6 1.1.8 1.7s.4 1.2.5 1.8.2 1.3.2 1.9zm-2.2-2c0-.4 0-.8-.1-1.3 0-.4-.1-.9-.2-1.3s-.3-.9-.5-1.3-.4-.7-.7-1.1c-.6-.7-1.5-1-2.4-1-.5 0-.9.1-1.4.3-.4.2-.7.4-1 .7s-.5.7-.7 1.1-.3.8-.5 1.3c-.1.4-.2.9-.3 1.3-.1.5-.1.9-.1 1.3v2c0 .4 0 .8.1 1.3s.1.9.3 1.3c.1.4.3.9.5 1.3s.4.8.7 1.1.6.5 1 .7.9.3 1.4.3c.9 0 1.8-.3 2.4-1 .3-.3.5-.7.7-1.1s.3-.8.5-1.3c.1-.4.2-.9.2-1.3 0-.5.1-.9.1-1.3z" opacity=".5"/></g><circle cx="322.6" cy="209.3" fill="#828299" opacity=".15" r="204.2"/><circle cx="221.1" cy="209.3" fill="#828299" opacity=".25" r="101.4"/><circle cx="406.9" cy="278" fill="#828299" opacity=".25" r="94.4"/><path d="m221.1 209.3c0 27.9-22.6 50.5-50.5 50.5s-50.6-22.6-50.6-50.5 22.6-50.5 50.5-50.5c28 0 50.6 22.6 50.6 50.5z" fill="#828299" opacity=".45"/><path d="m322.2 209.3c0 27.9-22.6 50.5-50.5 50.5s-50.5-22.6-50.5-50.5 22.6-50.5 50.5-50.5c27.8 0 50.5 22.6 50.5 50.5z" fill="#828299" opacity=".45"/><path d="m406.6 303.4c0 24-19.4 43.4-43.4 43.4s-43.4-19.4-43.4-43.4 19.4-43.4 43.4-43.4c24 0 43.4 19.4 43.4 43.4z" fill="#828299" opacity=".45"/><path d="m494.9 304.7c0 24-19.4 43.4-43.4 43.4s-43.4-19.4-43.4-43.4 19.4-43.4 43.4-43.4c24 0 43.4 19.4 43.4 43.4z" fill="#828299" opacity=".45"/><circle cx="406.9" cy="227.1" fill="#828299" opacity=".45" r="43.4"/><path d="m261.2 64.4-7.2.3.3 7.7-2.2.1-.7-17.4 10.7-.4.1 1.9-8.5.3.2 5.9 7.2-.3z" fill="#494960" opacity=".5"/><path d="m277.7 219.1h-2.2l-6.7-13v13h-2.2v-17.4h2.2l6.7 13v-13h2.2z" fill="#494960" opacity=".5"/><path d="m223.8 278.7h-7.3v6.1h8.5v1.9h-10.7v-17.4h10.6v1.9h-8.4v5.6h7.3z" fill="#494960" opacity=".5"/><path d="m407.2 226.9-1.9 2.2v5.9h-2.3v-17.4h2.3v8.5l1.7-2.1 5.1-6.4h2.7l-6.1 7.6 6.5 9.8h-2.7z" fill="#494960" opacity=".5"/><path d="m358.3 309.8h8.5v1.9h-10.7v-17.4h2.2z" fill="#494960" opacity=".5"/><path d="m431.2 318.9 2.8 8.7 3.1-8.7h2.7v17.4h-2.1v-6.9l.2-7.2-3.2 9.4h-1.3l-3-9.1.2 7v6.9h-2.1v-17.5z" fill="#494960" opacity=".5"/><path d="m414.2 356.2c-.1.8-.3 1.5-.6 2.2-.3.6-.7 1.2-1.2 1.7s-1.1.9-1.8 1.1c-.7.3-1.5.4-2.3.4-.7 0-1.3-.1-2-.3-.6-.2-1.1-.5-1.6-.8-.5-.4-.9-.8-1.2-1.3s-.6-1-.8-1.6-.4-1.2-.5-1.8-.2-1.3-.2-1.9v-2.4c0-.6.1-1.3.2-1.9s.3-1.2.5-1.8.5-1.1.8-1.6.7-.9 1.2-1.3 1-.7 1.6-.8c.6-.2 1.3-.3 2-.3.8 0 1.6.1 2.3.4s1.3.6 1.8 1.1.9 1.1 1.2 1.8.5 1.5.6 2.3h-2.2c-.1-.5-.2-1-.4-1.5-.2-.4-.4-.8-.7-1.2-.3-.3-.7-.6-1.1-.8-.5-.2-1-.3-1.5-.3s-1 .1-1.4.3-.7.4-1 .7-.5.7-.7 1c-.2.4-.4.8-.5 1.2s-.2.9-.3 1.3-.1.9-.1 1.3v2.5c0 .4 0 .9.1 1.3.1.5.1.9.3 1.4.1.4.3.8.5 1.2s.4.7.7 1 .6.5 1 .7.9.3 1.4.3 1-.1 1.5-.3c.4-.2.8-.4 1.1-.8.3-.3.5-.7.7-1.2s.3-1 .4-1.5z" fill="#494960" opacity=".5"/><path d="m487.6 179.2h-5.8l-1.4 4.5h-2.2l5.6-17.4h1.9l5.5 17.4h-2.2zm-5.2-1.9h4.6l-2.3-7.6z" fill="#494960" opacity=".5"/><circle cx="378.1" cy="103.4" fill="#828299" opacity=".25" r="80.4"/><path d="m303.3 66c0 25.6-20.8 46.4-46.4 46.4s-46.4-20.8-46.4-46.4 20.8-46.4 46.4-46.4c25.7 0 46.4 20.8 46.4 46.4z" fill="#828299" opacity=".25"/><path d="m436.1 144.4c0 16.9-13.7 30.6-30.6 30.6s-30.6-13.7-30.6-30.6 13.7-30.6 30.6-30.6 30.6 13.7 30.6 30.6z" fill="#828299" opacity=".45"/><circle cx="365.8" cy="58.2" fill="#828299" opacity=".45" r="33"/><path d="m375 66.7h-2.1v-8h-7.1v8h-2.1v-17.4h2.1v7.5h7.1v-7.5h2.1z" fill="#494960" opacity=".5"/><path d="m346.1 129.7c-.7.8-1.5 1.5-2.5 1.9s-2 .6-3.1.6c-.7 0-1.3-.1-2-.3-.6-.2-1.1-.5-1.6-.9s-.9-.8-1.3-1.3-.7-1.1-.9-1.6c-.2-.6-.4-1.2-.5-1.8s-.2-1.3-.2-1.9v-2c0-.6.1-1.3.2-1.9s.3-1.2.5-1.8.5-1.1.8-1.6c.7-1 1.7-1.8 2.8-2.2.6-.2 1.3-.3 2-.3.8 0 1.5.1 2.2.4 1.3.5 2.4 1.5 3 2.8.3.7.5 1.4.6 2.2h-2.2c-.1-.5-.2-1-.4-1.4s-.4-.8-.7-1.1-.7-.5-1.1-.7c-.5-.2-1-.3-1.4-.3-.9 0-1.8.3-2.5 1-.3.3-.6.7-.8 1.1s-.4.8-.5 1.3c-.1.4-.2.9-.3 1.4-.1.4-.1.9-.1 1.3v2c0 .5 0 .9.1 1.4s.2.9.3 1.4c.1.4.3.9.5 1.3s.5.7.8 1c.7.6 1.6 1 2.5 1h1c.3 0 .7-.1 1-.2s.6-.2.9-.4.5-.4.7-.6v-3.9h-3.5v-1.9h5.6z" fill="#494960" opacity=".5"/><path d="m411.2 134.1h2.3v12.1c0 .8-.2 1.5-.5 2.2-.6 1.3-1.6 2.4-3 2.9-.7.3-1.5.4-2.2.4-.8 0-1.5-.1-2.2-.4-1.3-.5-2.4-1.5-2.9-2.7-.3-.7-.5-1.4-.5-2.2h2.2c0 .5.1.9.3 1.4.2.4.4.8.7 1.1s.7.5 1.1.7.9.3 1.4.3 1-.1 1.4-.3.8-.5 1.1-.8.5-.7.7-1.2.2-.9.3-1.4z" fill="#494960" opacity=".5"/><path d="m182.9 189.3c0 14.1-11.4 25.5-25.5 25.5s-25.5-11.4-25.5-25.5 11.4-25.5 25.5-25.5 25.5 11.4 25.5 25.5z" fill="#828299" opacity=".55"/><path d="m217.7 222.9c0 13-10.6 23.6-23.6 23.6s-23.6-10.6-23.6-23.6 10.6-23.6 23.6-23.6 23.6 10.6 23.6 23.6z" fill="#828299" opacity=".55"/><path d="m455.2 85.2c0 17.3-14 31.3-31.3 31.3s-31.3-14-31.3-31.3 14-31.3 31.3-31.3c17.3 0 31.3 14 31.3 31.3z" fill="#828299" opacity=".45"/><path d="m378 123.8c0 20.4-16.5 36.9-36.9 36.9s-36.9-16.5-36.9-36.9 16.5-36.9 36.9-36.9 36.9 16.5 36.9 36.9z" fill="#828299" opacity=".45"/><ellipse cx="279.5" cy="353" fill="#828299" opacity=".25" rx="53.6" ry="53.6" transform="matrix(.07088902 -.9975 .9975 .07088902 -92.4946 606.7741)"/><path d="m172.2 234.3c0 10.8-8.7 19.5-19.5 19.5s-19.5-8.7-19.5-19.5 8.7-19.5 19.5-19.5c10.7.1 19.5 8.8 19.5 19.5z" fill="#828299" opacity=".55"/><path d="m460.2 290.4c0 13-10.6 23.6-23.6 23.6s-23.6-10.6-23.6-23.6 10.6-23.6 23.6-23.6c13.1.1 23.6 10.6 23.6 23.6z" fill="#828299" opacity=".55"/><path d="m488.3 318.9c0 10.8-8.7 19.5-19.5 19.5s-19.5-8.7-19.5-19.5 8.7-19.5 19.5-19.5c10.8 0 19.5 8.7 19.5 19.5z" fill="#828299" opacity=".55"/><path d="m274.2 362.1v-17.4h4c1.1 0 2.2.2 3.2.6.9.4 1.7.9 2.4 1.6s1.2 1.6 1.5 2.5c.4 1.1.5 2.2.5 3.3v1.3c0 1.1-.2 2.2-.5 3.3-.3.9-.8 1.8-1.5 2.5s-1.5 1.3-2.4 1.6c-1 .4-2.1.6-3.2.6zm2.2-15.6v13.8h1.8c.8 0 1.7-.2 2.4-.5s1.2-.8 1.7-1.3c.5-.6.8-1.3 1-2 .2-.8.3-1.6.3-2.5v-1.3c0-.8-.1-1.7-.3-2.5-.2-.7-.5-1.4-1-2s-1-1-1.7-1.3c-.8-.3-1.6-.5-2.4-.5z" fill="#494960" opacity=".5"/><path d="m419.6 76.4h10.5v1.9h-4.2v13.6h4.2v1.9h-10.5v-1.9h4.1v-13.5h-4.1z" fill="#494960" opacity=".5"/><path d="m198.7 227.6c0-.5-.1-.9-.4-1.4-.2-.4-.6-.7-.9-.9-.4-.3-.8-.5-1.3-.6-.5-.2-.9-.3-1.3-.5-.6-.2-1.3-.4-1.9-.7s-1.2-.6-1.7-1-.9-.9-1.3-1.4c-.3-.6-.5-1.3-.5-2s.2-1.4.5-2 .8-1.1 1.3-1.5 1.2-.7 1.8-.9c.7-.2 1.3-.3 2-.3s1.5.1 2.2.4c.7.2 1.3.6 1.9 1 .5.5 1 1 1.3 1.6.3.7.5 1.4.5 2.2h-2.3c-.1-.5-.2-.9-.4-1.4-.2-.4-.4-.8-.7-1.1s-.7-.5-1.1-.7c-.5-.2-.9-.3-1.4-.2-.4 0-.8.1-1.2.2s-.8.3-1.1.5-.6.5-.8.9-.3.8-.3 1.2c0 .5.1.9.4 1.3s.6.7.9.9l1.2.6c.4.2.9.3 1.2.4.4.1.8.3 1.3.5.4.2.9.4 1.3.6s.8.5 1.1.8.7.6.9 1c.6.7.9 1.7.8 2.6 0 .7-.2 1.4-.5 2s-.8 1.1-1.3 1.5c-.6.4-1.2.7-1.9.9s-1.4.3-2.1.3c-.8 0-1.5-.1-2.3-.4-.7-.2-1.4-.6-2-1s-1.1-1-1.4-1.6c-.4-.7-.6-1.4-.6-2.2h2.3c.1.5.2 1 .4 1.4s.5.8.9 1.1.8.5 1.2.7c.5.2 1 .2 1.5.2.4 0 .9-.1 1.3-.2s.8-.3 1.1-.5.6-.5.8-.9c.5-.6.6-1 .6-1.4z" fill="#494960" opacity=".5"/><path d="m160.7 228.7h-5.4v15.5h-2.2v-15.5h-5.4v-1.9h12.9v1.9z" fill="#494960" opacity=".5"/><path d="m157.3 189.5h-3.5v7.1h-2.2v-17.4h5.1c.8 0 1.6.1 2.3.3s1.3.5 1.9 1c.5.4 1 1 1.3 1.6.3.7.5 1.5.5 2.3 0 1-.3 2-.9 2.8-.3.4-.6.7-1 1s-.8.6-1.3.8l3.7 7.4v.1h-2.3zm-3.5-1.8h3c.5 0 1-.1 1.4-.2s.8-.4 1.2-.6c.3-.3.6-.6.8-1s.3-.9.3-1.4-.1-1-.3-1.5c-.2-.4-.4-.8-.8-1-.3-.3-.7-.5-1.2-.6s-1-.2-1.5-.2h-2.9z" fill="#494960" opacity=".5"/><path d="m473.8 319.7c0 .7-.1 1.3-.2 1.9-.1.7-.3 1.3-.5 1.9s-.5 1.2-.8 1.7-.7 1-1.2 1.4l3 2.5-1.5 1.4-3.4-2.9c-.5.1-1.1.2-1.6.2-.7 0-1.4-.1-2-.3s-1.1-.5-1.6-.9-.9-.9-1.2-1.4-.6-1.1-.8-1.7-.4-1.2-.5-1.9c-.1-.6-.2-1.3-.2-1.9v-1.5c0-.6.1-1.3.2-1.9s.3-1.3.5-1.9.5-1.2.8-1.7.7-1 1.2-1.4 1-.7 1.6-.9c1.3-.5 2.7-.5 4 0 .6.2 1.1.5 1.6.9s.9.9 1.2 1.4.6 1.1.8 1.7.4 1.3.5 1.9.2 1.3.2 1.9zm-2.2-1.6c0-.4 0-.9-.1-1.4 0-.5-.1-.9-.2-1.4s-.3-.9-.5-1.3-.4-.8-.7-1.1-.7-.6-1.1-.7c-.4-.2-.9-.3-1.4-.3-.9 0-1.8.3-2.5 1-.3.3-.5.7-.7 1.1s-.4.9-.5 1.3c-.1.5-.2.9-.3 1.4-.1.4-.1.9-.1 1.4v1.6c0 .5 0 .9.1 1.4s.1.9.3 1.4c.1.5.3.9.5 1.3s.4.8.7 1.1.7.6 1.1.8c.9.4 1.9.4 2.9 0 .4-.2.8-.4 1.1-.8.3-.3.5-.7.7-1.1s.3-.9.5-1.3c.1-.5.2-.9.2-1.4s.1-.9.1-1.4z" fill="#494960" opacity=".5"/><path d="m434 292v7h-2.2v-17.4h5.6c.8 0 1.5.1 2.2.4.7.2 1.3.6 1.8 1s1 1 1.2 1.6c.6 1.4.6 3 0 4.4-.3.6-.7 1.2-1.2 1.6s-1.2.8-1.8 1c-.7.2-1.5.4-2.2.4zm0-1.9h3.4c.5 0 1-.1 1.4-.2s.8-.4 1.1-.7.6-.6.7-1c.2-.4.3-.9.3-1.4s-.1-1-.3-1.4-.4-.8-.7-1.1-.7-.5-1.1-.7c-.5-.2-.9-.2-1.4-.3h-3.4z" fill="#494960" opacity=".5"/><path d="m314.6 82.7v-17.5h5.2c.7 0 1.4.1 2.1.3s1.3.4 1.8.8c1.2.8 1.8 2.1 1.7 3.5 0 .4-.1.8-.2 1.2s-.3.7-.6 1c-.2.3-.5.6-.9.8-.3.2-.7.4-1 .6.5.1.9.3 1.3.6.8.5 1.4 1.2 1.6 2.1.2.5.2 1 .2 1.4 0 .7-.1 1.5-.5 2.1-.3.6-.7 1.1-1.3 1.6-.6.4-1.2.8-1.8 1-.7.2-1.4.3-2.2.3zm2.2-10h3.1c.4 0 .8-.1 1.2-.2s.7-.3 1.1-.5c.3-.2.6-.5.8-.9s.3-.8.3-1.2-.1-.9-.3-1.2-.4-.6-.8-.8c-.3-.2-.7-.4-1.1-.5s-.8-.2-1.3-.2h-3zm0 1.8v6.3h3.4c.4 0 .9-.1 1.3-.2s.8-.3 1.1-.6.6-.6.8-1 .3-.9.3-1.3c0-.5-.1-.9-.2-1.3-.2-.4-.4-.7-.7-1s-.7-.5-1.1-.6-.9-.2-1.3-.2z" fill="#494960" opacity=".5"/><path d="m200.9 183.1c0 .6-.1 1.3-.2 1.9s-.3 1.2-.5 1.8-.5 1.1-.8 1.6-.7 1-1.2 1.3c-.5.4-1 .7-1.5.9-1.3.4-2.6.4-3.9 0-.6-.2-1.1-.5-1.5-.9-.5-.4-.8-.8-1.2-1.3-.3-.5-.6-1.1-.8-1.7s-.4-1.2-.5-1.8-.2-1.2-.2-1.9v-2c0-.6.1-1.3.2-1.9s.3-1.2.5-1.8.5-1.1.8-1.7c.3-.5.7-1 1.2-1.4s1-.7 1.5-.9c1.3-.4 2.6-.4 3.9 0 .6.2 1.1.5 1.5.9.5.4.8.8 1.2 1.3.3.5.6 1.1.8 1.7s.4 1.2.5 1.8.2 1.3.2 1.9zm-2.2-2c0-.4 0-.8-.1-1.3 0-.4-.1-.9-.2-1.3s-.3-.9-.5-1.3-.4-.7-.7-1.1c-.6-.7-1.5-1-2.4-1-.5 0-.9.1-1.4.3-.4.2-.7.4-1 .7s-.5.7-.7 1.1-.3.8-.5 1.3c-.1.4-.2.9-.3 1.3-.1.5-.1.9-.1 1.3v2c0 .4 0 .8.1 1.3s.1.9.3 1.3c.1.4.3.9.5 1.3s.4.8.7 1.1.6.5 1 .7.9.3 1.4.3c.9 0 1.8-.3 2.4-1 .3-.3.5-.7.7-1.1s.3-.8.5-1.3c.1-.4.2-.9.2-1.3 0-.5.1-.9.1-1.3z" fill="#494960" opacity=".5"/></svg>