<svg xmlns="http://www.w3.org/2000/svg" width="256" height="256" viewBox="0 0 256 256"><title>new-chart-icons-aim-160</title><path d="M65,104H50v-2H65Zm-8,5H48v2h9Zm53-38.8a17,17,0,0,1,2.7-12.4,16.7,16.7,0,0,1,23-4.1,16.5,16.5,0,0,1-9.5,30A16.3,16.3,0,0,1,110,70.2ZM135.6,77H116.9l1.6,1.3A13.7,13.7,0,0,0,135.6,77Zm-20-18H137a15.8,15.8,0,0,0-3-2.8,13.7,13.7,0,0,0-7.7-2.4A13.4,13.4,0,0,0,115.6,59Zm-2.4,5h26.2a13.4,13.4,0,0,0-1.2-3H115V59.8A11.2,11.2,0,0,0,113.2,64Zm-.2,5.7h0V69h26v2H113.3a12.6,12.6,0,0,0,2.7,5.1V75h21v.4l.3-.4a13.2,13.2,0,0,0,2.4-9H113V64.8A13.4,13.4,0,0,0,113,69.7Zm84.2,9.9a15.2,15.2,0,0,0,20.9-3.7,15,15,0,1,0-20.9,3.7Zm54.7,12.9-17.6,25.3a6.7,6.7,0,0,1-9.2,1.7l-25.3-17.6-27,40.1,23.1,16.1a9.2,9.2,0,0,1,3.9,6l6.6,36.9a9.5,9.5,0,0,1-18.7,3.2L181.9,171l-29-20.6s-15.3,22.1-16.4,23.4-2,3.2-3.7,4.1a9.8,9.8,0,0,1-7.2,1l-1.2-.3,3.9,22.1a11.2,11.2,0,0,1-8.9,12.7h-1.7a11.2,11.2,0,0,1-11-9.1l-5.6-32.1-11.7-3.1a9.4,9.4,0,0,1-6.8-10.4l-8.9-6.3c-3.3,4.7-14.6,21.1-15.6,22.3a8.6,8.6,0,0,0-.7,1,11.7,11.7,0,0,1-3.5,3.5,11.4,11.4,0,0,1-8.2,1L9.5,170.6a10.8,10.8,0,1,1,5.7-20.9l28.6,7.6.2-.2V156h.7L89,91.7H74.4L59.3,113.4a7.8,7.8,0,0,1-5.2,3.4,8.2,8.2,0,0,1-6.1-1.2,8,8,0,0,1-3.4-5.2,8.3,8.3,0,0,1,1.3-6.1L63.5,79.1a7.5,7.5,0,0,1,7.1-3.4h30.3a23.4,23.4,0,0,1,13.8,4.4l9.7,6.9,10,7.1L144.2,80a6.1,6.1,0,0,1,5.9-2.8h30.3a21.7,21.7,0,0,1,12.9,4.1l9.7,6.9,24,16.9,14.1-19.9a6.6,6.6,0,0,1,9.2-1.8A6.4,6.4,0,0,1,251.9,92.5Zm-106.7,9.2,1.9,1.3,9.1-12.8h-3.1Zm-1.8,2.4-4.7,6.9h18.4l4.1-6H151v-2h11.6l2.7-4H155V97.1l-7.2,10.1Zm-5.6,8.1.2.2v-.5ZM65.9,80.8,64.4,83h49.2l-.7-.5a20.4,20.4,0,0,0-12-3.8H70.4A4.7,4.7,0,0,0,65.9,80.8ZM69.1,94H57v-.4L48.3,106a5.2,5.2,0,0,0-.7,3.9,4.6,4.6,0,0,0,2.1,3.2,5.8,5.8,0,0,0,3.9.8,5.4,5.4,0,0,0,3.2-2.1Zm25.6-5.3L93.1,91h31.7l-2.1-1.5L116,84.7V85H64V83.6L58.1,92H70.5l2.3-3.3ZM84.9,103H117v1.2l2.9-4.4,7,4.9,5.8-8.2L126,91.8V93H91.7ZM105,121v1l5.4-8H78v-1l-5.5,8Zm-33,2v-1.3L64.9,132H98v.4l6.3-9.4Zm44.4-18H84v-.7L78.7,112h33ZM5.2,157H30.9l-16.5-4.4A7.8,7.8,0,0,0,5.2,157ZM5,163H62.7c1.2-1.6,2.4-3.3,3.5-5H47l-1.9,2.8L36,158.4v.6H5v-1.6a1.9,1.9,0,0,0-.2.7A7.4,7.4,0,0,0,5,163Zm49.9,11.1H33.7l12.7,3.4a8.9,8.9,0,0,0,6.1-.7A8.6,8.6,0,0,0,54.9,174.1Zm6.5-9.1H6.1a7.3,7.3,0,0,0,4.1,2.7L31,173.3V172H56v.6Zm48.2-9.8L91.2,142.4l5.7-8.4H64v-.7L56.6,144H91v2H56v-1.1L48.4,156H67v.9l5.1-7.4.9-1.2,10.6,7.5a9.3,9.3,0,0,1,10.7-4.6Zm-5.3,18,2,11.8h16.2l-.5-3H106v-2h15.6l-.4-2.3Zm3.7,21.2V193h15.9l-1.1-6H106.7Zm17.4,6.8-1.1-6.2H108.1l1.6,8.9A7.9,7.9,0,0,0,125,205H110v-2h15.4A5.4,5.4,0,0,0,125.4,201.2Zm24-79.1a8.4,8.4,0,0,1-4.6-1.3l-9.1-6.4a6.7,6.7,0,0,1-7.3-.1,6.2,6.2,0,0,1-2.7-6.8l-5-3.5L95.4,141.6l21.8,15.3.7.5L124,159Zm6.3-9.1H138.9l7.6,5.3a5.3,5.3,0,0,0,5.4.2Zm15.7-22.8H159.8L155.1,97h11.6Z"/></svg>