<svg height="256" viewBox="0 0 256 256" width="256" xmlns="http://www.w3.org/2000/svg"><path d="m133.4 69.1a14.6 14.6 0 1 0 -13.5-15.7 14.6 14.6 0 0 0 13.5 15.7m-12.4 6a15.2 15.2 0 0 1 10.1-3 16 16 0 0 1 11.6 7.1l14.6 29.1 20 13.9a7 7 0 0 1 2.6 5.7 6.7 6.7 0 0 1 -10.2 4.9l-21.4-14.6a8.7 8.7 0 0 1 -1.7-2.1l-5.6-10.9-6.5 29 25.9 30.7a13 13 0 0 1 1.3 3l6.9 37v2.1a9.9 9.9 0 0 1 -10.6 9.1 10.2 10.2 0 0 1 -8.9-7.8l-6.5-34.4-21.1-23.4-4.8 22.5a30.5 30.5 0 0 1 -2.1 4l-20.1 34.1c-2.1 3.1-5.3 5.2-9.2 4.8a9.9 9.9 0 0 1 -9.2-10.6 10.9 10.9 0 0 1 1.4-4.3l18.8-31.4 15.6-69.2-10.2 8.2-5.5 24.6a7.1 7.1 0 0 1 -7 5.6c-3.6-.1-6.3-3.5-6.1-7.1a2.8 2.8 0 0 1 .1-.8l6.3-28.7a5.6 5.6 0 0 1 2.1-3.1zm59 178.9h-104.1l-73.5-73.6v-104.1l73.5-73.6h104.1l73.6 73.6v104.1zm-98.7-13h93.3l66-66v-93.3l-66-66h-93.3l-65.9 66v93.3z"/></svg>