<svg enable-background="new 0 0 800 590" viewBox="0 0 800 590" xml:space="preserve" xmlns="http://www.w3.org/2000/svg"><path d="m53.6 223.7v-136.8" fill="none" stroke="#514361" stroke-miterlimit="10" stroke-width="2"/><path d="m63.6 220.8-10 17.3-10-17.3z" fill="#514361"/><path d="m245.7 47.6h-154.9" fill="none" stroke="#514361" stroke-miterlimit="10" stroke-width="2"/><path d="m242.8 37.7 17.3 9.9-17.3 10z" fill="#514361"/><path d="m90.8 86.9h85.7v68.6h-85.7z" fill="#efefef"/><path d="m191.2 86.9h85.7v68.6h-85.7z" fill="#efefef"/><path d="m90.8 172.2h85.7v68.6h-85.7z" fill="#efefef"/><path d="m191.2 172.2h85.7v68.6h-85.7z" fill="#efefef"/><path d="m90.8 257.6h85.7v68.6h-85.7z" fill="#efefef"/><path d="m191.2 257.6h85.7v68.6h-85.7z" fill="#efefef"/><path d="m90.8 343h85.7v68.6h-85.7z" fill="#efefef"/><path d="m191.2 343h85.7v68.6h-85.7z" fill="#efefef"/><path d="m90.8 429.8h85.7v68.6h-85.7z" fill="#efefef"/><path d="m191.2 429.8h85.7v68.6h-85.7z" fill="#efefef"/><path d="m592.7 172.2h85.7v68.6h-85.7z" fill="#efefef"/><path d="m693.1 172.2h85.7v68.6h-85.7z" fill="#efefef"/><path d="m592.7 257.6h85.7v68.6h-85.7z" fill="#efefef"/><path d="m693.1 257.6h85.7v68.6h-85.7z" fill="#efefef"/><path d="m592.7 343h85.7v68.6h-85.7z" fill="#efefef"/><path d="m693.1 343h85.7v68.6h-85.7z" fill="#efefef"/><path d="m592.7 429.8h85.7v68.6h-85.7z" fill="#efefef"/><path d="m693.1 429.8h85.7v68.6h-85.7z" fill="#efefef"/><path d="m291.6 257.6h85.7v68.6h-85.7z" fill="#efefef"/><path d="m392 257.6h85.7v68.6h-85.7z" fill="#d6d6d6"/><path d="m291.6 343h85.7v68.6h-85.7z" fill="#d6d6d6"/><path d="m392 343h85.7v68.6h-85.7z" fill="#d6d6d6"/><path d="m291.6 429.8h85.7v68.6h-85.7z" fill="#d6d6d6"/><path d="m392 429.8h85.7v68.6h-85.7z" fill="#d6d6d6"/><path d="m492.3 257.6h85.7v68.6h-85.7z" fill="#d6d6d6"/><path d="m492.3 343h85.7v68.6h-85.7z" fill="#d6d6d6"/><path d="m492.3 429.8h85.7v68.6h-85.7z" fill="#d6d6d6"/><path d="m584.8 512.1v19.8h-288.1-11l-.1-20.3" style="fill:none;stroke:#a8a8a8;stroke-width:2.5;stroke-linecap:round;stroke-miterlimit:10;stroke-dasharray:0 5.0395;opacity:.8"/><text fill="#514361" font-family="'RobotoMono-Regular'" font-size="32.8333" transform="translate(324.9707 568.1732)">table group</text><text transform="translate(406.0001 121.9678)"><tspan fill="#514361" font-family="'RobotoMono-Regular'" font-size="32.8333" x="0" y="0">index </tspan><tspan fill="#514361" font-family="'RobotoMono-Regular'" font-size="32.8333" x="0" y="39.4">number</tspan></text><text fill="#514361" font-family="'RobotoMono-Regular'" font-size="32.8333" transform="translate(89.0953 30.6838)">columns</text><text fill="#514361" font-family="'RobotoMono-Regular'" font-size="32.8333" transform="matrix(0 -1 1 0 37.5992 162.4713)">rows</text><path d="m512.7 110.7h94.6l.1 65.8" style="fill:none;stroke:#a8a8a8;stroke-width:2.5;stroke-linecap:round;stroke-miterlimit:10;stroke-dasharray:0 5.0395;opacity:.8"/><g fill="#b5b5b5" font-family="'RobotoMono-Regular'" font-size="18.7619"><text transform="translate(97.8438 110.6727)">1</text><text transform="translate(97.8438 195.4144)">3</text><text transform="translate(97.8438 281.4601)">7</text><text transform="translate(97.8438 365.8514)">14</text><text transform="translate(97.8438 452.3784)">21</text><text transform="translate(198.2169 110.6727)">2</text><text transform="translate(198.2169 195.4144)">4</text><text transform="translate(198.2169 365.8514)">15</text><text transform="translate(198.2169 452.3784)">22</text><text transform="translate(298.5904 281.4601)">9</text><text transform="translate(298.5904 365.8514)">16</text><text transform="translate(298.5904 452.3784)">23</text><text transform="translate(198.2169 281.4601)">8</text><text transform="translate(398.9637 281.4601)">10</text><text transform="translate(398.9637 365.8514)">17</text><text transform="translate(398.9637 452.3784)">24</text><text transform="translate(499.3369 281.4601)">11</text><text transform="translate(499.3369 365.8514)">18</text><text transform="translate(499.3369 452.3784)">25</text><text transform="translate(599.7104 281.4601)">12</text><text transform="translate(599.7104 365.8514)">19</text><text transform="translate(599.7104 452.3784)">26</text><text transform="translate(700.0833 281.4601)">13</text><text transform="translate(599.7104 195.4145)">5</text><text transform="translate(700.0833 195.4145)">6</text><text transform="translate(700.0833 365.8514)">20</text><text transform="translate(700.0833 452.3784)">27</text></g></svg>