<?xml version="1.0" encoding="utf-8"?>
<!-- Generator: Adobe Illustrator 24.0.1, SVG Export Plug-In . SVG Version: 6.00 Build 0)  -->
<svg version="1.1" id="Layer_1" xmlns="http://www.w3.org/2000/svg" xmlns:xlink="http://www.w3.org/1999/xlink" x="0px" y="0px"
	 viewBox="0 0 1268 418" style="enable-background:new 0 0 1268 418;" xml:space="preserve">
<style type="text/css">
	.st0{fill:#D9D3E2;}
	.st1{fill:#C8BAD8;}
	.st2{fill:#B9ACCC;}
	.st3{fill:#8B77AA;}
	.st4{fill:#A198AF;}
	.st5{fill:#E2E2E2;}
	.st6{fill:#B0A4E0;}
	.st7{fill:#5B5087;}
	.st8{fill:#6E56A8;}
	.st9{fill:#9582C4;}
	.st10{fill:#6042B2;}
	.st11{fill:#A98BD6;}
</style>
<g id="Layer_2_1_">
</g>
<g id="Layer_3">
</g>
<g>
	<rect x="253.1" y="9.8" class="st0" width="40" height="40"/>
	<rect x="253.1" y="52.4" class="st1" width="40" height="40"/>
	<rect x="253.1" y="95.1" class="st1" width="40" height="40"/>
	<rect x="253.1" y="137.7" class="st1" width="40" height="40"/>
	<rect x="253.1" y="179.9" class="st1" width="40" height="40"/>
	<rect x="253.1" y="222.5" class="st1" width="40" height="40"/>
	<rect x="253.1" y="265.2" class="st1" width="40" height="40"/>
</g>
<g>
	<rect x="295.6" y="52.4" class="st2" width="40" height="40"/>
	<rect x="295.6" y="95.1" class="st2" width="40" height="40"/>
	<rect x="295.6" y="137.7" class="st2" width="40" height="40"/>
	<rect x="295.6" y="179.9" class="st2" width="40" height="40"/>
	<rect x="295.6" y="222.5" class="st2" width="40" height="40"/>
	<rect x="295.6" y="265.2" class="st2" width="40" height="40"/>
</g>
<g>
	<g>
		<rect x="338.1" y="137.7" class="st3" width="40" height="40"/>
		<rect x="338.1" y="179.9" class="st3" width="40" height="40"/>
		<rect x="338.1" y="222.5" class="st4" width="40" height="40"/>
		<rect x="338.1" y="265.2" class="st5" width="40" height="40"/>
	</g>
	<rect x="338.1" y="325.5" class="st4" width="40" height="40"/>
	<rect x="338.1" y="368.2" class="st5" width="40" height="40"/>
</g>
<g>
	<g>
		<rect x="380.6" y="137.7" class="st3" width="40" height="40"/>
		<rect x="380.6" y="179.9" class="st3" width="40" height="40"/>
		<rect x="380.6" y="222.5" class="st3" width="40" height="40"/>
		<rect x="380.6" y="265.2" class="st3" width="40" height="40"/>
	</g>
	<rect x="380.6" y="325.5" class="st4" width="40" height="40"/>
	<rect x="380.6" y="368.2" class="st5" width="40" height="40"/>
</g>
<g>
	<g>
		<rect x="423.1" y="137.7" class="st3" width="40" height="40"/>
		<rect x="423.1" y="179.9" class="st3" width="40" height="40"/>
		<rect x="423.1" y="222.5" class="st3" width="40" height="40"/>
		<rect x="423.1" y="265.2" class="st3" width="40" height="40"/>
	</g>
	<rect x="423.1" y="325.5" class="st4" width="40" height="40"/>
	<rect x="423.1" y="368.2" class="st5" width="40" height="40"/>
</g>
<g>
	<rect x="465.7" y="137.7" class="st3" width="40" height="40"/>
	<rect x="465.7" y="179.9" class="st3" width="40" height="40"/>
	<rect x="465.7" y="222.5" class="st3" width="40" height="40"/>
	<rect x="465.7" y="265.2" class="st3" width="40" height="40"/>
	<rect x="465.7" y="325.5" class="st4" width="40" height="40"/>
	<rect x="465.7" y="368.2" class="st5" width="40" height="40"/>
</g>
<g>
	<rect x="508.2" y="137.7" class="st3" width="40" height="40"/>
	<rect x="508.2" y="179.9" class="st3" width="40" height="40"/>
	<rect x="508.2" y="222.5" class="st3" width="40" height="40"/>
	<rect x="508.2" y="265.2" class="st3" width="40" height="40"/>
	<rect x="508.2" y="325.5" class="st4" width="40" height="40"/>
	<rect x="508.2" y="368.2" class="st5" width="40" height="40"/>
</g>
<g>
	<rect x="550.7" y="137.7" class="st3" width="40" height="40"/>
	<rect x="550.7" y="179.9" class="st3" width="40" height="40"/>
	<rect x="550.7" y="222.5" class="st3" width="40" height="40"/>
	<rect x="550.7" y="265.2" class="st3" width="40" height="40"/>
	<rect x="550.7" y="325.5" class="st4" width="40" height="40"/>
	<rect x="550.7" y="368.2" class="st5" width="40" height="40"/>
</g>
<g>
	<rect x="593.2" y="137.7" class="st3" width="40" height="40"/>
	<rect x="593.2" y="179.9" class="st3" width="40" height="40"/>
	<rect x="593.2" y="222.5" class="st3" width="40" height="40"/>
	<rect x="593.2" y="265.2" class="st6" width="40" height="40"/>
	<rect x="593.2" y="325.5" class="st4" width="40" height="40"/>
	<rect x="593.2" y="368.2" class="st5" width="40" height="40"/>
</g>
<g>
	<rect x="635.7" y="137.7" class="st3" width="40" height="40"/>
	<rect x="635.7" y="179.9" class="st3" width="40" height="40"/>
	<rect x="635.7" y="222.5" class="st3" width="40" height="40"/>
	<rect x="635.7" y="265.2" class="st6" width="40" height="40"/>
	<rect x="635.7" y="325.5" class="st4" width="40" height="40"/>
	<rect x="635.7" y="368.2" class="st5" width="40" height="40"/>
</g>
<g>
	<rect x="678.3" y="137.7" class="st3" width="40" height="40"/>
	<rect x="678.3" y="179.9" class="st3" width="40" height="40"/>
	<rect x="678.3" y="222.5" class="st3" width="40" height="40"/>
	<rect x="678.3" y="265.2" class="st6" width="40" height="40"/>
	<rect x="678.3" y="325.5" class="st4" width="40" height="40"/>
	<rect x="678.3" y="368.2" class="st5" width="40" height="40"/>
</g>
<g>
	<rect x="720.8" y="137.7" class="st3" width="40" height="40"/>
	<rect x="720.8" y="179.9" class="st3" width="40" height="40"/>
	<rect x="720.8" y="222.5" class="st3" width="40" height="40"/>
	<rect x="720.8" y="265.2" class="st3" width="40" height="40"/>
	<rect x="720.8" y="325.5" class="st4" width="40" height="40"/>
	<rect x="720.8" y="368.2" class="st5" width="40" height="40"/>
</g>
<g>
	<rect x="763.3" y="52.4" class="st7" width="40" height="40"/>
	<rect x="763.3" y="95.1" class="st8" width="40" height="40"/>
	<rect x="763.3" y="137.7" class="st8" width="40" height="40"/>
	<rect x="763.3" y="179.9" class="st8" width="40" height="40"/>
	<rect x="763.3" y="222.5" class="st8" width="40" height="40"/>
	<rect x="763.3" y="265.2" class="st6" width="40" height="40"/>
	<rect x="763.3" y="325.5" class="st4" width="40" height="40"/>
	<rect x="763.3" y="368.2" class="st5" width="40" height="40"/>
</g>
<g>
	<rect x="805.8" y="52.4" class="st9" width="40" height="40"/>
	<rect x="805.8" y="95.1" class="st7" width="40" height="40"/>
	<rect x="805.8" y="137.7" class="st7" width="40" height="40"/>
	<rect x="805.8" y="179.9" class="st8" width="40" height="40"/>
	<rect x="805.8" y="222.5" class="st8" width="40" height="40"/>
	<rect x="805.8" y="265.2" class="st6" width="40" height="40"/>
	<rect x="805.8" y="325.5" class="st4" width="40" height="40"/>
	<rect x="805.8" y="368.2" class="st5" width="40" height="40"/>
</g>
<g>
	<rect x="848.3" y="52.4" class="st9" width="40" height="40"/>
	<rect x="848.3" y="95.1" class="st9" width="40" height="40"/>
	<rect x="848.3" y="137.7" class="st7" width="40" height="40"/>
	<rect x="848.3" y="179.9" class="st7" width="40" height="40"/>
	<rect x="848.3" y="222.5" class="st8" width="40" height="40"/>
	<rect x="848.3" y="265.2" class="st6" width="40" height="40"/>
	<rect x="848.3" y="325.5" class="st4" width="40" height="40"/>
	<rect x="848.3" y="368.2" class="st5" width="40" height="40"/>
</g>
<g>
	<rect x="890.9" y="52.4" class="st9" width="40" height="40"/>
	<rect x="890.9" y="95.1" class="st9" width="40" height="40"/>
	<rect x="890.9" y="137.7" class="st9" width="40" height="40"/>
	<rect x="890.9" y="179.9" class="st7" width="40" height="40"/>
	<rect x="890.9" y="222.5" class="st8" width="40" height="40"/>
	<rect x="890.9" y="265.2" class="st6" width="40" height="40"/>
	<rect x="890.9" y="325.5" class="st4" width="40" height="40"/>
	<rect x="890.9" y="368.2" class="st5" width="40" height="40"/>
</g>
<g>
	<rect x="933.4" y="52.4" class="st10" width="40" height="40"/>
	<rect x="933.4" y="95.1" class="st10" width="40" height="40"/>
	<rect x="933.4" y="137.7" class="st10" width="40" height="40"/>
	<rect x="933.4" y="179.9" class="st10" width="40" height="40"/>
	<rect x="933.4" y="222.5" class="st10" width="40" height="40"/>
	<rect x="933.4" y="265.2" class="st6" width="40" height="40"/>
	<rect x="933.4" y="325.5" class="st4" width="40" height="40"/>
	<rect x="933.4" y="368.2" class="st5" width="40" height="40"/>
</g>
<g>
	<rect x="975.9" y="9.8" class="st11" width="40" height="40"/>
	<rect x="975.9" y="52.4" class="st11" width="40" height="40"/>
	<rect x="975.9" y="95.1" class="st11" width="40" height="40"/>
	<rect x="975.9" y="137.7" class="st11" width="40" height="40"/>
	<rect x="975.9" y="179.9" class="st11" width="40" height="40"/>
	<rect x="975.9" y="222.5" class="st11" width="40" height="40"/>
	<rect x="975.9" y="265.2" class="st11" width="40" height="40"/>
</g>
</svg>
