<?xml version="1.0" encoding="utf-8"?>
<!-- Generator: Adobe Illustrator 22.1.0, SVG Export Plug-In . SVG Version: 6.00 Build 0)  -->
<svg version="1.1" xmlns="http://www.w3.org/2000/svg" xmlns:xlink="http://www.w3.org/1999/xlink" x="0px" y="0px"
	 viewBox="0 0 1268 418" enable-background="new 0 0 1268 418" xml:space="preserve">
<g id="Layer_1">
	<g>
		
			<text transform="matrix(1 0 0 1 85.4729 20.6406)" fill="#D1CDC9" font-family="'RobotoCondensed-Regular'" font-size="26.0849px">A</text>
	</g>
	<g>
		
			<text transform="matrix(1 0 0 1 209.0791 20.6406)" fill="#D1CDC9" font-family="'RobotoCondensed-Regular'" font-size="26.0849px">B</text>
	</g>
	<g>
		
			<text transform="matrix(1 0 0 1 332.0034 20.6406)" fill="#D1CDC9" font-family="'RobotoCondensed-Regular'" font-size="26.0849px">C</text>
	</g>
	<g>
		
			<text transform="matrix(1 0 0 1 455.1569 20.6406)" fill="#D1CDC9" font-family="'RobotoCondensed-Regular'" font-size="26.0849px">D</text>
	</g>
	<g>
		<text transform="matrix(1 0 0 1 579.33 20.6406)" fill="#D1CDC9" font-family="'RobotoCondensed-Regular'" font-size="26.0849px">E</text>
	</g>
	<g>
		
			<text transform="matrix(1 0 0 1 702.7448 20.6406)" fill="#D1CDC9" font-family="'RobotoCondensed-Regular'" font-size="26.0849px">F</text>
	</g>
	<g>
		
			<text transform="matrix(1 0 0 1 824.5106 20.6406)" fill="#D1CDC9" font-family="'RobotoCondensed-Regular'" font-size="26.0849px">G</text>
	</g>
	<g>
		
			<text transform="matrix(1 0 0 1 947.333 20.6406)" fill="#D1CDC9" font-family="'RobotoCondensed-Regular'" font-size="26.0849px">H</text>
	</g>
	<g>
		
			<text transform="matrix(1 0 0 1 1075.365 20.6406)" fill="#D1CDC9" font-family="'RobotoCondensed-Regular'" font-size="26.0849px">I</text>
	</g>
	<g>
		
			<text transform="matrix(1 0 0 1 1195.5259 20.6406)" fill="#D1CDC9" font-family="'RobotoCondensed-Regular'" font-size="26.0849px">J</text>
	</g>
	<text transform="matrix(1 0 0 1 1.2979 75.3779)"><tspan x="0" y="0" fill="#D1CDC9" font-family="'RobotoCondensed-Regular'" font-size="26.0849px">1</tspan><tspan x="0" y="63" fill="#D1CDC9" font-family="'RobotoCondensed-Regular'" font-size="26.0849px">2</tspan><tspan x="0" y="126" fill="#D1CDC9" font-family="'RobotoCondensed-Regular'" font-size="26.0849px">3</tspan><tspan x="0" y="189" fill="#D1CDC9" font-family="'RobotoCondensed-Regular'" font-size="26.0849px">4</tspan><tspan x="0" y="252" fill="#D1CDC9" font-family="'RobotoCondensed-Regular'" font-size="26.0849px">5</tspan><tspan x="0" y="315" fill="#D1CDC9" font-family="'RobotoCondensed-Regular'" font-size="26.0849px">6</tspan></text>
	<rect x="525.3" y="100.3" fill="#B1A7B5" width="121.7" height="61.2"/>
	<rect x="772.7" y="227" fill="#B1A7B5" width="121.7" height="61.4"/>
	<rect x="525.3" y="353.8" fill="#B1A7B5" width="121.7" height="61.4"/>
	<rect x="896.4" y="227" fill="#B1A7B5" width="121.7" height="61.4"/>
	<rect x="649" y="100.3" fill="#B1A7B5" width="121.7" height="61.2"/>
	<rect x="896.4" y="163.5" fill="#B1A7B5" width="121.7" height="61.4"/>
	<rect x="401.6" y="353.8" fill="#B1A7B5" width="121.7" height="61.4"/>
	<rect x="649" y="227" fill="#B1A7B5" width="121.7" height="61.4"/>
	<rect x="896.4" y="100.3" fill="#B1A7B5" width="121.7" height="61.2"/>
	<rect x="1020.1" y="227" fill="#B1A7B5" width="121.7" height="61.4"/>
	<rect x="772.7" y="100.3" fill="#B1A7B5" width="121.7" height="61.2"/>
	<rect x="401.6" y="163.5" fill="#B1A7B5" width="121.7" height="61.4"/>
	<rect x="277.9" y="353.8" fill="#B1A7B5" width="121.7" height="61.4"/>
	<rect x="401.6" y="290.4" fill="#B1A7B5" width="121.7" height="61.4"/>
	<rect x="277.9" y="290.4" fill="#B1A7B5" width="121.7" height="61.4"/>
	<rect x="277.9" y="163.5" fill="#B1A7B5" width="121.7" height="61.4"/>
	<rect x="525.3" y="290.4" fill="#B1A7B5" width="121.7" height="61.4"/>
	<rect x="525.3" y="163.5" fill="#B1A7B5" width="121.7" height="61.4"/>
	<rect x="401.6" y="100.3" fill="#B1A7B5" width="121.7" height="61.2"/>
	<rect x="525.3" y="227" fill="#B1A7B5" width="121.7" height="61.4"/>
	<rect x="277.9" y="227" fill="#B1A7B5" width="121.7" height="61.4"/>
	<rect x="277.9" y="100.3" fill="#B1A7B5" width="121.7" height="61.2"/>
	<rect x="649" y="163.5" fill="#B1A7B5" width="121.7" height="61.4"/>
	<rect x="772.7" y="163.5" fill="#B1A7B5" width="121.7" height="61.4"/>
	<rect x="401.6" y="227" fill="#B1A7B5" width="121.7" height="61.4"/>
	<rect x="30.5" y="36.6" fill="#988CAB" width="121.7" height="61.4"/>
	<rect x="30.5" y="163.5" fill="#FEDEB8" width="121.7" height="61.4"/>
	<rect x="30.5" y="100.3" fill="#FEDEB8" width="121.7" height="61.2"/>
	<rect x="30.5" y="353.8" fill="#FEDEB8" width="121.7" height="61.4"/>
	<rect x="30.5" y="227" fill="#FEDEB8" width="121.7" height="61.4"/>
	<rect x="30.5" y="290.4" fill="#FEDEB8" width="121.7" height="61.4"/>
	<rect x="154.2" y="227" fill="#DFDAE3" width="121.7" height="61.4"/>
	<rect x="154.2" y="163.5" fill="#DFDAE3" width="121.7" height="61.4"/>
	<rect x="154.2" y="353.8" fill="#DFDAE3" width="121.7" height="61.4"/>
	<rect x="154.2" y="100.1" fill="#DFDAE3" width="121.7" height="61.4"/>
	<rect x="154.2" y="290.4" fill="#DFDAE3" width="121.7" height="61.4"/>
	<rect x="154.2" y="36.6" fill="#B1A7B5" width="121.7" height="61.4"/>
	<rect x="772.7" y="36.6" fill="#B1A7B5" width="121.7" height="61.4"/>
	<rect x="401.6" y="36.6" fill="#B1A7B5" width="121.7" height="61.4"/>
	<rect x="277.9" y="36.6" fill="#B1A7B5" width="121.7" height="61.4"/>
	<rect x="649" y="36.6" fill="#B1A7B5" width="121.7" height="61.4"/>
	<rect x="525.3" y="36.6" fill="#B1A7B5" width="121.7" height="61.4"/>
	<rect x="1020.1" y="290.4" fill="#C6C0CC" width="121.2" height="61.4"/>
	<rect x="772.7" y="353.8" fill="#C6C0CC" width="121.7" height="61.4"/>
	<rect x="1020.1" y="353.8" fill="#C6C0CC" width="121.2" height="61.4"/>
	<rect x="896.4" y="353.8" fill="#C6C0CC" width="121.7" height="61.4"/>
	<rect x="772.7" y="290.4" fill="#C6C0CC" width="121.7" height="61.4"/>
	<rect x="649" y="353.8" fill="#C6C0CC" width="121.7" height="61.4"/>
	<rect x="896.4" y="290.4" fill="#C6C0CC" width="121.7" height="61.4"/>
	<rect x="649" y="290.4" fill="#C6C0CC" width="121.7" height="61.4"/>
	<rect x="1143.8" y="36.6" fill="#988CAB" width="121.7" height="61.4"/>
	<rect x="1020.1" y="36.6" fill="#988CAB" width="121.7" height="61.4"/>
	<rect x="896.4" y="36.6" fill="#988CAB" width="121.7" height="61.4"/>
	<rect x="1020.1" y="100.3" fill="#988CAB" width="121.7" height="61.2"/>
	<rect x="1143.8" y="100.3" fill="#988CAB" width="121.7" height="61.2"/>
	<rect x="1020.1" y="163.5" fill="#988CAB" width="121.7" height="61.4"/>
	<rect x="1143.8" y="353.8" fill="#DFDAE3" width="121.7" height="61.4"/>
	<rect x="1143.8" y="163.5" fill="#DFDAE3" width="121.7" height="61.4"/>
	<rect x="1143.8" y="290.4" fill="#DFDAE3" width="121.7" height="61.4"/>
	<rect x="1143.8" y="227" fill="#DFDAE3" width="121.7" height="61.4"/>
</g>
<g id="Layer_2">
</g>
<g id="Layer_3">
</g>
</svg>
