<svg xmlns="http://www.w3.org/2000/svg" width="256" height="256" viewBox="0 0 256 256"><title>new-chart-icons-aim-160</title><path d="M226,26.5V48.2H181.1V92H51.4V48.3H29V27.5H1.5V184.3h252V26.5ZM24,179.3H6.5V162.5H24Zm0-21.8H6.5V140.7H24Zm0-21.8H6.5V118.8H24Zm0-21.9H6.5V97H24ZM24,92H6.5V75.2H24Zm0-21.8H6.5V53.3H24Zm0-21.9H6.5V31.5H24Zm22.4,131H29V162.5H46.4Zm0-21.8H29V140.7H46.4Zm0-21.8H29V118.8H46.4Zm0-21.9H29V97H46.4Zm0-21.8H29V75.2H46.4Zm0-21.8H29V53.3H46.4ZM68.9,179.3H51.4V162.5H68.9Zm0-21.8H51.4V140.7H68.9Zm0-21.8H51.4V118.8H68.9Zm0-21.9H51.4V97H68.9Zm22.4,65.5H73.9V162.5H91.3Zm0-21.8H73.9V140.7H91.3Zm0-21.8H73.9V118.8H91.3Zm0-21.9H73.9V97H91.3Zm22.5,65.5H96.3V162.5h17.5Zm0-21.8H96.3V140.7h17.5Zm0-21.8H96.3V118.8h17.5Zm0-21.9H96.3V97h17.5Zm22.4,65.5H118.8V162.5h17.4Zm0-21.8H118.8V140.7h17.4Zm0-21.8H118.8V118.8h17.4Zm0-21.9H118.8V97h17.4Zm22.5,65.5H141.2V162.5h17.5Zm0-21.8H141.2V140.7h17.5Zm0-21.8H141.2V118.8h17.5Zm0-21.9H141.2V97h17.5Zm22.4,65.5H163.7V162.5h17.4Zm0-21.8H163.7V140.7h17.4Zm0-21.8H163.7V118.8h17.4Zm0-21.9H163.7V97h17.4Zm5-60.8h17.3V70.5l-17.3.2Zm0,22.7,17.4-.2V92H186.1Zm0,21.3h17.4v16.8H186.1Zm0,21.8h17.4v16.9H186.1Zm0,21.9h17.4v16.8H186.1Zm0,38.6V162.5h17.5v16.8Zm39.9,0H208.6V162.5H226Zm0-21.8H208.6V140.7H226Zm0-21.8H208.5V118.8H226Zm0-21.9H208.5V97H226ZM226,92H208.5V75.5H226Zm0-21.6H208.4V53.1H226Zm22.5,108.9H231V162.5h17.5Zm0-21.8H231V140.7h17.5Zm0-21.8H231V118.8h17.5Zm0-21.9H231V97h17.5Zm0-21.8H231V75.3h17.5Zm0-21.8H231V53.2h17.5Zm0-21.9H231V31.5h17.5ZM69.7,249.2H231.6V200.8H69.7Zm134.7-5H186.9V227.3h17.5Zm5-38.7h17.4v16.8H209.4Zm0,21.8h17.4v16.9H209.4Zm-5-21.8v16.8H186.8V205.5Zm-39.9,0h17.3v16.8H164.5Zm0,21.8h17.4v16.9H164.5ZM142,205.5h17.5v16.8H142Zm0,21.8h17.5v16.9H142Zm-22.4-21.8H137v16.8H119.6Zm0,21.8H137v16.9H119.6ZM97.1,205.5h17.5v16.8H97.1Zm0,21.8h17.5v16.9H97.1ZM74.7,205.5H92.1v16.8H74.7Zm0,21.8H92.1v16.9H74.7Z"/></svg>