<?xml version="1.0" encoding="utf-8"?>
<!-- Generator: Adobe Illustrator 22.1.0, SVG Export Plug-In . SVG Version: 6.00 Build 0)  -->
<svg version="1.1" id="Layer_1" xmlns="http://www.w3.org/2000/svg" xmlns:xlink="http://www.w3.org/1999/xlink" x="0px" y="0px"
	 viewBox="0 0 485.6 327" enable-background="new 0 0 485.6 327" xml:space="preserve">
<text transform="matrix(1 0 0 1 147.0451 294.5281)" fill="#514361" font-family="'RobotoMono-Regular'" font-size="21px">legend</text>
<text transform="matrix(1 0 0 1 256.5918 216.9102)" fill="#514361" font-family="'RobotoMono-Regular'" font-size="21px">junction</text>
<text transform="matrix(1 0 0 1 11.8926 216.9102)" fill="#514361" font-family="'RobotoMono-Regular'" font-size="21px">station</text>
<path fill="#A0A0A0" d="M112,73.9l-2.8-2.8L163,17.3c0.4-0.4,0.9-0.6,1.4-0.6H299c1.1,0,2,0.9,2,2c0,1.1-0.9,2-2,2H165.2L112,73.9z"
	/>
<path fill="#AAAAAA" d="M473.2,155.1L440.1,122h-127v-4h127.8c0.5,0,1,0.2,1.4,0.6l33.6,33.6L473.2,155.1z"/>
<path fill="#595959" d="M348.5,86.8c0,0.5-0.2,1-0.6,1.4l-33.3,33.3c-0.4,0.4-0.9,0.6-1.4,0.6H152.4c-0.6,0-1.1-0.3-1.5-0.7
	s-0.5-1-0.5-1.6l0.4-2.5L108.6,75H55.3L12,123.3l-2.8-2.8l43.9-48.9c0.4-0.4,0.9-0.6,1.4-0.6h54.9c0.5,0,1,0.2,1.4,0.6l43.6,43.6
	c0.4,0.4,0.7,1.1,0.6,1.7l-0.2,1.2h157.6L344.5,86"/>
<g>
	<path fill="#515151" stroke="#FFFFFF" stroke-width="1.7408" stroke-linejoin="round" d="M60.3,72.8c0,3.2-2.6,5.8-5.8,5.8
		s-5.8-2.6-5.8-5.8s2.6-5.8,5.8-5.8S60.3,69.6,60.3,72.8z"/>
	<path fill="#515151" stroke="#FFFFFF" stroke-width="1.7408" stroke-linejoin="round" d="M162,119.7c0,3.2-2.6,5.8-5.8,5.8
		s-5.8-2.6-5.8-5.8s2.6-5.8,5.8-5.8S162,116.5,162,119.7z"/>
	<path fill="#515151" stroke="#FFFFFF" stroke-width="1.7408" stroke-linejoin="round" d="M214.7,119.7c0,3.2-2.6,5.8-5.8,5.8
		s-5.8-2.6-5.8-5.8s2.6-5.8,5.8-5.8S214.7,116.5,214.7,119.7z"/>
	<path fill="#515151" stroke="#FFFFFF" stroke-width="1.7408" stroke-linejoin="round" d="M264.8,119.7c0,3.2-2.6,5.8-5.8,5.8
		c-3.2,0-5.8-2.6-5.8-5.8s2.6-5.8,5.8-5.8C262.2,113.9,264.8,116.5,264.8,119.7z"/>
	<path fill="#FFFFFF" stroke="#000000" stroke-width="1.7408" stroke-linejoin="round" d="M318.9,119.7c0,3.2-2.6,5.8-5.8,5.8
		s-5.8-2.6-5.8-5.8s2.6-5.8,5.8-5.8S318.9,116.5,318.9,119.7z"/>
	<path fill="#515151" stroke="#FFFFFF" stroke-width="1.7408" stroke-linejoin="round" d="M352,87c0,3.2-2.6,5.8-5.8,5.8
		s-5.8-2.6-5.8-5.8s2.6-5.8,5.8-5.8S352,83.8,352,87z"/>
	<path fill="#AAAAAA" stroke="#FFFFFF" stroke-width="1.7408" stroke-linejoin="round" d="M386.3,119.8c0,3.2-2.6,5.8-5.8,5.8
		s-5.8-2.6-5.8-5.8s2.6-5.8,5.8-5.8S386.3,116.6,386.3,119.8z"/>
	<path fill="#FFFFFF" stroke="#000000" stroke-width="1.5" stroke-linejoin="round" d="M118.1,73.2c0,3.2-2.6,5.8-5.8,5.8
		s-5.8-2.6-5.8-5.8s2.6-5.8,5.8-5.8C115.5,67.4,118.1,70,118.1,73.2z"/>
	<path fill="#A0A0A0" stroke="#FFFFFF" stroke-width="1.5" stroke-linejoin="round" d="M233.2,17c0.9,4.2-2.7,7.9-7,7
		c-2.1-0.5-3.9-2.2-4.3-4.3c-0.9-4.2,2.7-7.9,7-7C231,13.2,232.7,14.9,233.2,17z"/>
	<path fill="#A0A0A0" stroke="#FFFFFF" stroke-width="1.5" stroke-linejoin="round" d="M170.2,17c0.9,4.2-2.7,7.9-7,7
		c-2.1-0.5-3.9-2.2-4.3-4.3c-0.9-4.2,2.7-7.9,7-7C168,13.2,169.7,14.9,170.2,17z"/>
	<path fill="#A0A0A0" stroke="#FFFFFF" stroke-width="1.5" stroke-linejoin="round" d="M304.2,18.4c0,3.2-2.6,5.8-5.8,5.8
		s-5.8-2.6-5.8-5.8s2.6-5.8,5.8-5.8S304.2,15.2,304.2,18.4z"/>
</g>
<path fill="none" stroke="#AFAFAF" stroke-width="2" stroke-linecap="round" stroke-miterlimit="10" stroke-dasharray="0,6" d="
	M313.2,134.9v51.9"/>
<text transform="matrix(1 0 0 1 390.3665 32.1362)" fill="#514361" font-family="'RobotoMono-Regular'" font-size="21px">line</text>
<path fill="none" stroke="#AFAFAF" stroke-width="2" stroke-linecap="round" stroke-miterlimit="10" stroke-dasharray="0,6" d="
	M415.6,38v79.6"/>
<path fill="none" stroke="#AFAFAF" stroke-width="2" stroke-linecap="round" stroke-miterlimit="10" stroke-dasharray="0,6" d="
	M54.5,87v99.8"/>
<path fill="none" stroke="#595959" stroke-width="4" stroke-linejoin="round" d="M19.3,274.5h84"/>
<path fill="none" stroke="#A0A0A0" stroke-width="4" stroke-linejoin="round" d="M19.8,302h84"/>
<g>
	<g>
		
			<line fill="none" stroke="#AFAFAF" stroke-width="2" stroke-linecap="round" stroke-miterlimit="10" x1="118.3" y1="253" x2="118.3" y2="253"/>
		
			<line fill="none" stroke="#AFAFAF" stroke-width="2" stroke-linecap="round" stroke-miterlimit="10" stroke-dasharray="0,7.25" x1="125.5" y1="253" x2="129.2" y2="253"/>
		
			<line fill="none" stroke="#AFAFAF" stroke-width="2" stroke-linecap="round" stroke-miterlimit="10" x1="132.8" y1="253" x2="132.8" y2="253"/>
		
			<line fill="none" stroke="#AFAFAF" stroke-width="2" stroke-linecap="round" stroke-miterlimit="10" stroke-dasharray="0,6.0909" x1="132.8" y1="259.1" x2="132.8" y2="317"/>
		
			<line fill="none" stroke="#AFAFAF" stroke-width="2" stroke-linecap="round" stroke-miterlimit="10" x1="132.8" y1="320" x2="132.8" y2="320"/>
		
			<line fill="none" stroke="#AFAFAF" stroke-width="2" stroke-linecap="round" stroke-miterlimit="10" stroke-dasharray="0,7.25" x1="125.5" y1="320" x2="121.9" y2="320"/>
		
			<line fill="none" stroke="#AFAFAF" stroke-width="2" stroke-linecap="round" stroke-miterlimit="10" x1="118.3" y1="320" x2="118.3" y2="320"/>
	</g>
</g>
</svg>
