<?xml version="1.0" encoding="utf-8"?>
<!-- Generator: Adobe Illustrator 22.1.0, SVG Export Plug-In . SVG Version: 6.00 Build 0)  -->
<svg version="1.1" id="Layer_1" xmlns="http://www.w3.org/2000/svg" xmlns:xlink="http://www.w3.org/1999/xlink" x="0px" y="0px"
	 viewBox="0 0 1074.8 417.4" style="enable-background:new 0 0 1074.8 417.4;" xml:space="preserve">
<style type="text/css">
	.st0{fill:none;stroke:#716B77;stroke-miterlimit:10;}
	.st1{fill:none;stroke:#CCC9CC;stroke-width:7;stroke-linejoin:round;}
	.st2{fill:none;stroke:#AFADB2;stroke-width:7;stroke-linejoin:round;}
	.st3{fill:none;stroke:#A9A8B2;stroke-width:7;stroke-linejoin:round;}
	.st4{fill:none;stroke:#AAA5AA;stroke-width:7;stroke-linejoin:round;}
	.st5{fill:#918396;}
	.st6{fill:#FFFFFF;}
	.st7{fill:none;stroke:#9287AA;stroke-width:7;stroke-linejoin:round;}
	.st8{fill:#AB97C1;stroke:#FFFFFF;stroke-width:1.7408;stroke-linejoin:round;}
	.st9{fill:#BDBBC4;stroke:#FFFFFF;stroke-width:1.7408;stroke-linejoin:round;}
	.st10{fill:#969499;stroke:#FFFFFF;stroke-width:1.7408;stroke-linejoin:round;}
	.st11{fill:#FFFFFF;stroke:#848484;stroke-width:4;stroke-linejoin:round;}
	.st12{fill:#9D999E;stroke:#FFFFFF;stroke-width:1.7408;stroke-linejoin:round;}
	.st13{fill:none;stroke:#A39AA8;stroke-width:7;stroke-linejoin:round;}
	.st14{fill:#988A9E;stroke:#FFFFFF;stroke-width:2;stroke-miterlimit:10;}
	.st15{fill:#D1CDD0;stroke:#FFFFFF;stroke-width:1.5;stroke-linejoin:round;}
</style>
<g transform="translate(853.33227 1028.4921)">
	<path class="st0" d="M-36.8-867.9l70.9-0.4h40.4l68.6,68.6v63.9v40.4v20.1v6.1"/>
	<path class="st1" d="M-509.5-905.7l57.1-57.1h264.1"/>
	<path class="st2" d="M-324.2-851.8v64.2l78.5,78.5l35.7,35.7v49.3"/>
	<path class="st3" d="M-768.4-889v-65.1"/>
	<path class="st4" d="M-257.9-855.1h135.7l35.7,35.7L56.1-962.1"/>
	<g transform="matrix(.10069185 0 0 .10069185 64.51504 -903.18039)">
		<path class="st5" d="M900.6,2848.4c19.2,0,35.1-15.6,35.1-35.1v-222.7c0-19.2-15.6-35.1-35.1-35.1H677.4
			c-19.2,0-34.9,15.6-34.9,35.1v223c0,19.2,15.6,35.1,34.9,35.1C677.4,2848.4,900.6,2848.4,900.6,2848.4z"/>
		<path class="st6" d="M776.2,2596.6c0-17.3,26.1-17.3,26.1,0.4v72.2l101.2,60.7v26.5l-100.8-33v53.9l23.2,18.3v20.9l-35.9-11.2
			l-35.9,11.2V2796l22.9-18.3v-53.9L676.2,2757v-26.5l99.8-60.7v-73h0.2V2596.6z"/>
	</g>
	<g>
		<path class="st3" d="M-664.7-813.4l-67.9-1.5l-35.7-35.7v-38.6"/>
		<path class="st7" d="M-762-722.3l68.5-68.5l114.3-114.3h68.5l46.2,46.2l-0.6,3.7h207l71.4-71.4V-998l14.3-14.3h49.9"/>
		<path class="st8" d="M-751.3-724.9c0,5.2-4,9.2-9.2,9.2s-9.2-4-9.2-9.2s4-9.2,9.2-9.2C-755.4-734.2-751.3-730-751.3-724.9z"/>
		<path class="st8" d="M-706.7-768.9c0,5.2-4,9.2-9.2,9.2s-9.2-4-9.2-9.2s4-9.2,9.2-9.2C-710.9-778.1-706.7-773.9-706.7-768.9z"/>
		<path class="st8" d="M-661.7-813.4c0,5.2-4,9.2-9.2,9.2s-9.2-4-9.2-9.2s4-9.2,9.2-9.2S-661.7-818.5-661.7-813.4z"/>
		<path class="st8" d="M-617.6-858c0,5.2-4,9.2-9.2,9.2s-9.2-4-9.2-9.2s4-9.2,9.2-9.2S-617.6-863-617.6-858z"/>
		<path class="st8" d="M-570-905.2c0,5.2-4,9.2-9.2,9.2s-9.2-4-9.2-9.2s4-9.2,9.2-9.2S-570-910.3-570-905.2z"/>
		<path class="st9" d="M-664.1-808.5c-3.6,3.6-9.4,3.6-13,0s-3.6-9.4,0-13s9.4-3.6,13,0S-660.5-812-664.1-808.5z"/>
		<path class="st9" d="M-727-808.5c-3.6,3.6-9.4,3.6-13,0s-3.6-9.4,0-13s9.4-3.6,13,0S-723.3-812-727-808.5z"/>
		<path class="st9" d="M-775-883.7c-3.6-3.6-3.6-9.4,0-13s9.4-3.6,13,0s3.6,9.4,0,13C-765.6-880.1-771.3-880.2-775-883.7z"/>
		<path class="st9" d="M-775-946.5c-3.6-3.6-3.6-9.4,0-13s9.4-3.6,13,0s3.6,9.4,0,13S-771.3-943.1-775-946.5z"/>
		<path class="st10" d="M-246.8-719.4c5.2,0,9.2,4,9.2,9.2s-4,9.2-9.2,9.2s-9.2-4-9.2-9.2C-256.3-715.1-252-719.4-246.8-719.4z"/>
		<path class="st10" d="M-291.4-764.4c5.2,0,9.2,4,9.2,9.2s-4,9.2-9.2,9.2s-9.2-4-9.2-9.2C-300.8-760.2-296.5-764.4-291.4-764.4z"/>
		<path class="st10" d="M-203.7-630.4c3.6,3.6,3.6,9.4,0,13s-9.4,3.6-13,0s-3.6-9.4,0-13C-213.1-634-207.1-634-203.7-630.4z"/>
		<path class="st8" d="M-451.8-855.5c0,5.2-4,9.2-9.2,9.2s-9.2-4-9.2-9.2s4-9.2,9.2-9.2S-451.8-860.7-451.8-855.5z"/>
		<path class="st8" d="M-383.7-855.5c0,5.2-4,9.2-9.2,9.2s-9.2-4-9.2-9.2s4-9.2,9.2-9.2S-383.7-860.5-383.7-855.5z"/>
		<path class="st8" d="M-315.7-855.5c0,5.2-4,9.2-9.2,9.2s-9.2-4-9.2-9.2s4-9.2,9.2-9.2S-315.7-860.5-315.7-855.5z"/>
		<path class="st11" d="M-248.7-855.5c0,7.3-8.2,12.5-16.1,6.9c-5.6-7.9-0.4-16.1,6.9-16.1C-252.9-864.7-248.7-860.5-248.7-855.5z"
			/>
		<path class="st8" d="M-213.8-890.3c0,5.2-4,9.2-9.2,9.2s-9.2-4-9.2-9.2s4-9.2,9.2-9.2C-217.9-899.4-213.8-895.3-213.8-890.3z"/>
	</g>
	<path class="st12" d="M-177.4-855.4c0,5.2-4,9.2-9.2,9.2s-9.2-4-9.2-9.2s4-9.2,9.2-9.2C-181.5-864.6-177.4-860.6-177.4-855.4z"/>
	<path class="st12" d="M-78.3-820.6c0,5.2-4,9.2-9.2,9.2s-9.2-4-9.2-9.2s4-9.2,9.2-9.2S-78.3-825.6-78.3-820.6z"/>
	<path class="st12" d="M17.9-915c0,5.2-4,9.2-9.2,9.2s-9.2-4-9.2-9.2s4-9.2,9.2-9.2C13.6-924.2,17.9-920.2,17.9-915z"/>
	<path class="st13" d="M-36.8-867.9l70.9-0.4h40.4l68.6,68.6v63.9v40.4v20.1v6.1"/>
	<path class="st12" d="M65.9-962.6c0,5.2-4,9.2-9.2,9.2s-9.2-4-9.2-9.2s4-9.2,9.2-9.2S65.9-967.8,65.9-962.6z"/>
	<path class="st14" d="M81.9-867.1c0,5.2-4,9.2-9.2,9.2s-9.2-4-9.2-9.2s4-9.2,9.2-9.2S81.9-872.1,81.9-867.1z"/>
	<path class="st14" d="M152.6-798.4c0,5.2-4,9.2-9.2,9.2s-9.2-4-9.2-9.2s4-9.2,9.2-9.2S152.6-803.5,152.6-798.4z"/>
	<path class="st14" d="M149.9-726.8c-3.6,3.6-9.3,3.6-13,0c-3.6-3.6-3.6-9.3,0-13c3.6-3.6,9.3-3.6,13,0
		C153.5-736.2,153.5-730.4,149.9-726.8z"/>
	<path class="st14" d="M136.9-676.4c-3.6,3.6-3.6,9.3,0,13c3.6,3.6,9.3,3.6,13,0c3.6-3.6,3.6-9.3,0-13
		C146.2-680,140.5-680,136.9-676.4z"/>
	<path class="st15" d="M-364-963c0,5.2-4,9.2-9.2,9.2s-9.2-4-9.2-9.2s4-9.2,9.2-9.2C-368.1-972.3-364-968.2-364-963z"/>
	<path class="st15" d="M-264.5-963c0,5.2-4,9.2-9.2,9.2s-9.2-4-9.2-9.2s4-9.2,9.2-9.2C-268.5-972.3-264.5-968.2-264.5-963z"/>
	<path class="st12" d="M-28.9-867.8c0,5.2-4,9.2-9.2,9.2s-9.2-4-9.2-9.2s4-9.2,9.2-9.2S-28.9-872.9-28.9-867.8z"/>
</g>
<path class="st11" d="M537.8,173.1c0,7.3-8.2,12.5-16.1,6.9c-5.6-7.9-0.4-16.1,6.9-16.1C533.7,163.9,537.8,168.2,537.8,173.1z"/>
<path class="st11" d="M353.2,124c0,7.3-8.2,12.5-16.1,6.9c-5.6-7.9-0.4-16.1,6.9-16.1C349,114.7,353.2,119,353.2,124z"/>
<path class="st11" d="M676.5,66c0,7.3-8.2,12.5-16.1,6.9c-5.6-7.9-0.5-16.1,6.9-16.1C672.4,56.8,676.5,61.1,676.5,66z"/>
<path class="st11" d="M824.4,160.7c0,7.3-8.2,12.5-16.1,6.9c-5.6-7.9-0.4-16.1,6.9-16.1C820.3,151.5,824.4,155.8,824.4,160.7z"/>
<path class="st11" d="M191.6,213.9c0,7.3-8.2,12.5-16.1,6.9c-5.6-7.9-0.4-16.1,6.9-16.1C187.6,204.7,191.6,209,191.6,213.9z"/>
<path class="st8" d="M737.2,9.7c7.3,10.1-3.5,20.9-13.6,13.6C716.3,13.2,727.1,2.4,737.2,9.7z"/>
</svg>
