<?xml version="1.0" encoding="utf-8"?>
<!-- Generator: Adobe Illustrator 22.1.0, SVG Export Plug-In . SVG Version: 6.00 Build 0)  -->
<svg version="1.1" id="Layer_1" xmlns="http://www.w3.org/2000/svg" xmlns:xlink="http://www.w3.org/1999/xlink" x="0px" y="0px"
	 viewBox="0 0 1074.8 417.4" style="enable-background:new 0 0 1074.8 417.4;" xml:space="preserve">
<style type="text/css">
	.st0{fill:none;stroke:#5A3C77;stroke-miterlimit:10;}
	.st1{fill:none;stroke:#CCBBCB;stroke-width:7;stroke-linejoin:round;}
	.st2{fill:none;stroke:#A39BB2;stroke-width:7;stroke-linejoin:round;}
	.st3{fill:none;stroke:#877FB2;stroke-width:7;stroke-linejoin:round;}
	.st4{fill:none;stroke:#A993AA;stroke-width:7;stroke-linejoin:round;}
	.st5{fill:#514349;}
	.st6{fill:#FFFFFF;}
	.st7{fill:none;stroke:#816CA3;stroke-width:7;stroke-linejoin:round;}
	.st8{fill:#7D58A0;stroke:#FFFFFF;stroke-width:1.7408;stroke-linejoin:round;}
	.st9{fill:#A297C4;stroke:#FFFFFF;stroke-width:1.7408;stroke-linejoin:round;}
	.st10{fill:#8B8299;stroke:#FFFFFF;stroke-width:1.7408;stroke-linejoin:round;}
	.st11{fill:#FFFFFF;stroke:#474747;stroke-width:4;stroke-linejoin:round;}
	.st12{fill:#97859E;stroke:#FFFFFF;stroke-width:1.7408;stroke-linejoin:round;}
	.st13{fill:none;stroke:#5F4768;stroke-width:7;stroke-linejoin:round;}
	.st14{fill:#5F4768;stroke:#FFFFFF;stroke-width:2;stroke-miterlimit:10;}
	.st15{fill:#D1C0CE;stroke:#FFFFFF;stroke-width:1.5;stroke-linejoin:round;}
</style>
<g transform="translate(853.33227 1028.4921)">
	<path class="st0" d="M-20.3-891.9l63-0.4h35.9l61,61v71.8v35.9v44.9v5.4"/>
	<path class="st1" d="M-440.5-925.5l50.8-50.8h234.8"/>
	<path class="st2" d="M-275.8-877.6v57.1l69.8,69.8l31.7,31.7v99"/>
	<path class="st3" d="M-772.9-910.7v-57.9"/>
	<path class="st4" d="M-216.9-880.5h120.6l31.7,31.7L62.3-975.7H75"/>
	<g transform="matrix(.10069185 0 0 .10069185 64.51504 -903.18039)">
		<path class="st5" d="M852.7,2749.6c17.1,0,31.2-13.9,31.2-31.2v-198c0-17.1-13.9-31.2-31.2-31.2H654.3c-17.1,0-31,13.9-31,31.2
			v198.2c0,17.1,13.9,31.2,31,31.2C654.3,2749.6,852.7,2749.6,852.7,2749.6z"/>
		<path class="st6" d="M742.1,2525.8c0-15.4,23.2-15.4,23.2,0.4v64.2l90,54v23.6l-89.6-29.3v47.9l20.6,16.3v18.6l-31.9-10l-31.9,10
			V2703l20.4-16.3v-47.9l-89.6,29.5v-23.6l88.7-54V2525.8z"/>
	</g>
	<g>
		<path class="st3" d="M-578.5-843.5l-162.6-1.3l-31.7-31.7v-34.3"/>
		<path class="st7" d="M-665-762.5l60.9-60.9L-502.5-925h60.9l41.1,41.1l-0.5,3.3h184l63.5-63.5v-63.5l12.7-12.7h44.4"/>
		<path class="st8" d="M-655.5-764.8c0,4.6-3.6,8.2-8.2,8.2s-8.2-3.6-8.2-8.2s3.6-8.2,8.2-8.2C-659.1-773.1-655.5-769.3-655.5-764.8
			z"/>
		<path class="st8" d="M-615.8-803.9c0,4.6-3.6,8.2-8.2,8.2s-8.2-3.6-8.2-8.2s3.6-8.2,8.2-8.2C-619.6-812.1-615.8-808.4-615.8-803.9
			z"/>
		<path class="st8" d="M-575.8-843.5c0,4.6-3.6,8.2-8.2,8.2s-8.2-3.6-8.2-8.2s3.6-8.2,8.2-8.2S-575.8-848-575.8-843.5z"/>
		<path class="st8" d="M-536.6-883.1c0,4.6-3.6,8.2-8.2,8.2s-8.2-3.6-8.2-8.2s3.6-8.2,8.2-8.2S-536.6-887.6-536.6-883.1z"/>
		<path class="st8" d="M-494.3-925.1c0,4.6-3.6,8.2-8.2,8.2c-4.6,0-8.2-3.6-8.2-8.2s3.6-8.2,8.2-8.2
			C-497.9-933.3-494.3-929.6-494.3-925.1z"/>
		<path class="st9" d="M-578-839.1c-3.2,3.2-8.4,3.2-11.6,0s-3.2-8.4,0-11.6s8.4-3.2,11.6,0S-574.8-842.2-578-839.1z"/>
		<path class="st9" d="M-633.9-839.1c-3.2,3.2-8.4,3.2-11.6,0c-3.2-3.2-3.2-8.4,0-11.6c3.2-3.2,8.4-3.2,11.6,0
			S-630.6-842.2-633.9-839.1z"/>
		<path class="st9" d="M-689.7-839.1c-3.2,3.2-8.4,3.2-11.6,0c-3.2-3.2-3.2-8.4,0-11.6s8.4-3.2,11.6,0
			C-686.5-847.5-686.5-842.2-689.7-839.1z"/>
		<path class="st9" d="M-778.8-906c-3.2-3.2-3.2-8.4,0-11.6s8.4-3.2,11.6,0s3.2,8.4,0,11.6S-775.5-902.9-778.8-906z"/>
		<path class="st9" d="M-778.8-961.8c-3.2-3.2-3.2-8.4,0-11.6c3.2-3.2,8.4-3.2,11.6,0c3.2,3.2,3.2,8.4,0,11.6
			S-775.5-958.8-778.8-961.8z"/>
		<path class="st10" d="M-207-759.9c4.6,0,8.2,3.6,8.2,8.2s-3.6,8.2-8.2,8.2s-8.2-3.6-8.2-8.2C-215.4-756.1-211.6-759.9-207-759.9z"
			/>
		<path class="st10" d="M-246.6-799.9c4.6,0,8.2,3.6,8.2,8.2s-3.6,8.2-8.2,8.2s-8.2-3.6-8.2-8.2C-255-796.2-251.2-799.9-246.6-799.9
			z"/>
		<path class="st10" d="M-168.7-680.8c3.2,3.2,3.2,8.4,0,11.6c-3.2,3.2-8.4,3.2-11.6,0s-3.2-8.4,0-11.6
			C-177-684-171.7-684-168.7-680.8z"/>
		<path class="st10" d="M-168.7-624.9c3.2,3.2,3.2,8.4,0,11.6c-3.2,3.2-8.4,3.2-11.6,0c-3.2-3.2-3.2-8.4,0-11.6
			C-177-628.2-171.7-628.2-168.7-624.9z"/>
		<path class="st8" d="M-389.2-880.9c0,4.6-3.6,8.2-8.2,8.2s-8.2-3.6-8.2-8.2s3.6-8.2,8.2-8.2S-389.2-885.5-389.2-880.9z"/>
		<path class="st8" d="M-328.7-880.9c0,4.6-3.6,8.2-8.2,8.2s-8.2-3.6-8.2-8.2s3.6-8.2,8.2-8.2S-328.7-885.3-328.7-880.9z"/>
		<path class="st8" d="M-268.2-880.9c0,4.6-3.6,8.2-8.2,8.2s-8.2-3.6-8.2-8.2s3.6-8.2,8.2-8.2S-268.2-885.3-268.2-880.9z"/>
		<path class="st11" d="M-208.7-880.9c0,6.5-7.3,11.1-14.3,6.1c-5-7-0.4-14.3,6.1-14.3C-212.4-889.1-208.7-885.3-208.7-880.9z"/>
		<path class="st8" d="M-177.7-911.8c0,4.6-3.6,8.2-8.2,8.2c-4.6,0-8.2-3.6-8.2-8.2s3.6-8.2,8.2-8.2
			C-181.3-919.9-177.7-916.3-177.7-911.8z"/>
	</g>
	<path class="st12" d="M-145.3-880.8c0,4.6-3.6,8.2-8.2,8.2c-4.6,0-8.2-3.6-8.2-8.2s3.6-8.2,8.2-8.2
		C-148.9-889-145.3-885.4-145.3-880.8z"/>
	<path class="st12" d="M-57.2-849.9c0,4.6-3.6,8.2-8.2,8.2s-8.2-3.6-8.2-8.2s3.6-8.2,8.2-8.2S-57.2-854.3-57.2-849.9z"/>
	<path class="st12" d="M28.3-933.8c0,4.6-3.6,8.2-8.2,8.2s-8.2-3.6-8.2-8.2s3.6-8.2,8.2-8.2C24.5-942,28.3-938.4,28.3-933.8z"/>
	<path class="st13" d="M-20.3-891.9l63-0.4h35.9l61,61v71.8v35.9v44.9v5.4"/>
	<path class="st12" d="M71-976.1c0,4.6-3.6,8.2-8.2,8.2s-8.2-3.6-8.2-8.2s3.6-8.2,8.2-8.2S71-980.7,71-976.1z"/>
	<path class="st14" d="M38.4-886c-3.2,3.2-8.3,3.2-11.6,0s-3.2-8.3,0-11.6c3.2-3.2,8.3-3.2,11.6,0S41.6-889.2,38.4-886z"/>
	<path class="st14" d="M85.2-891.2c0,4.6-3.6,8.2-8.2,8.2c-4.6,0-8.2-3.6-8.2-8.2s3.6-8.2,8.2-8.2C81.6-899.4,85.2-895.7,85.2-891.2
		z"/>
	<path class="st14" d="M147.5-830.1c0,4.6-3.6,8.2-8.2,8.2c-4.6,0-8.2-3.6-8.2-8.2c0-4.6,3.6-8.2,8.2-8.2
		C143.9-838.3,147.5-834.7,147.5-830.1z"/>
	<path class="st14" d="M146.2-751.5c-3.2,3.2-8.3,3.2-11.6,0c-3.2-3.2-3.2-8.3,0-11.6c3.2-3.2,8.3-3.2,11.6,0
		C149.4-759.8,149.4-754.7,146.2-751.5z"/>
	<path class="st14" d="M134-679.7c-3.2,3.2-3.2,8.3,0,11.6c3.2,3.2,8.3,3.2,11.6,0c3.2-3.2,3.2-8.3,0-11.6
		C142.3-682.9,137.2-682.9,134-679.7z"/>
	<path class="st15" d="M-311.2-976.5c0,4.6-3.6,8.2-8.2,8.2s-8.2-3.6-8.2-8.2s3.6-8.2,8.2-8.2S-311.2-981.1-311.2-976.5z"/>
	<path class="st15" d="M-222.7-976.5c0,4.6-3.6,8.2-8.2,8.2c-4.6,0-8.2-3.6-8.2-8.2s3.6-8.2,8.2-8.2
		C-226.3-984.7-222.7-981.1-222.7-976.5z"/>
	<path class="st12" d="M-13.3-891.8c0,4.6-3.6,8.2-8.2,8.2s-8.2-3.6-8.2-8.2s3.6-8.2,8.2-8.2S-13.3-896.4-13.3-891.8z"/>
</g>
<path class="st11" d="M585.2,147.7c0,6.5-7.3,11.1-14.3,6.1c-5-7-0.4-14.3,6.1-14.3C581.6,139.5,585.2,143.3,585.2,147.7z"/>
<path class="st11" d="M421.1,104c0,6.5-7.3,11.1-14.3,6.1c-5-7-0.4-14.3,6.1-14.3C417.4,95.8,421.1,99.6,421.1,104z"/>
<path class="st11" d="M708.5,52.5c0,6.5-7.3,11.1-14.3,6.1c-5-7-0.4-14.3,6.1-14.3C704.9,44.3,708.5,48.1,708.5,52.5z"/>
<path class="st11" d="M840,136.7c0,6.5-7.3,11.1-14.3,6.1c-5-7-0.4-14.3,6.1-14.3C836.4,128.5,840,132.3,840,136.7z"/>
<path class="st11" d="M277.5,184c0,6.5-7.3,11.1-14.3,6.1c-5-7-0.4-14.3,6.1-14.3C273.9,175.8,277.5,179.6,277.5,184z"/>
<path class="st8" d="M762.5,2.4c6.5,9-3.1,18.6-12.1,12.1C743.9,5.5,753.5-4.1,762.5,2.4z"/>
</svg>
