<?xml version="1.0" encoding="utf-8"?>
<!-- Generator: Adobe Illustrator 22.1.0, SVG Export Plug-In . SVG Version: 6.00 Build 0)  -->
<svg version="1.1" id="Layer_1" xmlns="http://www.w3.org/2000/svg" xmlns:xlink="http://www.w3.org/1999/xlink" x="0px" y="0px"
	 viewBox="0 0 1074.8 417.4" enable-background="new 0 0 1074.8 417.4" xml:space="preserve">
<g transform="translate(853.33227 1028.4921)">
	<path fill="none" stroke="#AC9EC6" stroke-width="4" stroke-linejoin="round" d="M-413.3-891.1l40-40h185"/>
	<path opacity="0.5" fill="#B2CBD3" enable-background="new    " d="M222.2-799.4L81.7-943.8H55.9l-8.1,8.1l-50,50l-40,40l-30,30
		h-0.1l-19.6,19.6h-46.4l-27.2-27.2h-311.9l-114.8,114.8v17.8v25l5,5h40v45h-45l813.9,4.6"/>
	<path fill="none" stroke="#AF9489" stroke-width="4" stroke-linejoin="round" d="M-622.2-732.6h-45l-55,55l-25,25h-78"/>
	<path fill="none" stroke="#EF8975" stroke-width="4" stroke-linejoin="round" d="M-826.7-816v-45.6"/>
	<path fill="none" stroke="#8562A5" stroke-width="4" stroke-linejoin="round" d="M-237.2-855.7h95l25,25l100-100h10l15,15"/>
	<g transform="matrix(.10069185 0 0 .10069185 64.51504 -903.18039)">
		<path fill="#C8C8C8" d="M1329.7,263.2c7.9,0,14.4-6.4,14.4-14.4v-91.3c0-7.9-6.4-14.4-14.4-14.4h-91.5c-7.9,0-14.3,6.4-14.3,14.4
			v91.4c0,7.9,6.4,14.4,14.3,14.4C1238.2,263.2,1329.7,263.2,1329.7,263.2z"/>
		<path fill="#FFFFFF" d="M1278.7,160c0-7.1,10.7-7.1,10.7,0.2v29.6l41.5,24.9v10.9l-41.3-13.5v22.1l9.5,7.5v8.6l-14.7-4.6
			l-14.7,4.6v-8.6l9.4-7.5v-22.1l-41.3,13.6v-10.9l40.9-24.9V160z"/>
	</g>
	<g>
		<path fill="none" stroke="#EF8975" stroke-width="4" stroke-linejoin="round" d="M-587.7-764h-214l-25-25v-27"/>
		<path fill="none" stroke="#CEA05D" stroke-width="4" stroke-linejoin="round" d="M-622.2-730.7l80-80l80-80h48l32.4,32.4l-0.4,2.6
			h145l50-50v-50l10-10h35"/>
		<path fill="#DDAF5E" stroke="#FFFFFF" stroke-width="1.7408" stroke-linejoin="round" d="M-616.9-732.5c0,2.4-1.9,4.3-4.3,4.3
			s-4.3-1.9-4.3-4.3s1.9-4.3,4.3-4.3C-618.8-736.9-616.9-734.9-616.9-732.5z"/>
		<path fill="#FFFFFF" stroke="#000000" stroke-width="1.7408" stroke-linejoin="round" d="M-584.9-763.7c0,2.4-1.9,4.3-4.3,4.3
			s-4.3-1.9-4.3-4.3s1.9-4.3,4.3-4.3C-586.8-768.1-584.9-766.1-584.9-763.7z"/>
		<path fill="#DDAF5E" stroke="#FFFFFF" stroke-width="1.7408" stroke-linejoin="round" d="M-553.6-795.3c0,2.4-1.9,4.3-4.3,4.3
			s-4.3-1.9-4.3-4.3s1.9-4.3,4.3-4.3C-555.6-799.6-553.6-797.7-553.6-795.3z"/>
		<path fill="#DDAF5E" stroke="#FFFFFF" stroke-width="1.7408" stroke-linejoin="round" d="M-522.1-826.5c0,2.4-1.9,4.3-4.3,4.3
			s-4.3-1.9-4.3-4.3s1.9-4.3,4.3-4.3S-522.1-828.9-522.1-826.5z"/>
		<path fill="#DDAF5E" stroke="#FFFFFF" stroke-width="1.7408" stroke-linejoin="round" d="M-491.2-857.7c0,2.4-1.9,4.3-4.3,4.3
			s-4.3-1.9-4.3-4.3s1.9-4.3,4.3-4.3S-491.2-860.1-491.2-857.7z"/>
		<path fill="#DDAF5E" stroke="#FFFFFF" stroke-width="1.7408" stroke-linejoin="round" d="M-457.9-890.8c0,2.4-1.9,4.3-4.3,4.3
			s-4.3-1.9-4.3-4.3s1.9-4.3,4.3-4.3S-457.9-893.2-457.9-890.8z"/>
		<path fill="#DD8A6C" stroke="#FFFFFF" stroke-width="1.7408" stroke-linejoin="round" d="M-630.5-761.2c-1.7,1.7-4.4,1.7-6.1,0
			s-1.7-4.4,0-6.1s4.4-1.7,6.1,0S-628.9-762.8-630.5-761.2z"/>
		<path fill="#DD8A6C" stroke="#FFFFFF" stroke-width="1.7408" stroke-linejoin="round" d="M-674.7-761.1c-1.7,1.7-4.4,1.7-6.1,0
			s-1.7-4.4,0-6.1s4.4-1.7,6.1,0S-673-762.7-674.7-761.1z"/>
		<path fill="#DD8A6C" stroke="#FFFFFF" stroke-width="1.7408" stroke-linejoin="round" d="M-718.7-761.1c-1.7,1.7-4.4,1.7-6.1,0
			s-1.7-4.4,0-6.1s4.4-1.7,6.1,0S-717-762.7-718.7-761.1z"/>
		<path fill="#DD8A6C" stroke="#FFFFFF" stroke-width="1.7408" stroke-linejoin="round" d="M-762.7-761.1c-1.7,1.7-4.4,1.7-6.1,0
			s-1.7-4.4,0-6.1s4.4-1.7,6.1,0S-761-762.7-762.7-761.1z"/>
		<path fill="#DD8A6C" stroke="#FFFFFF" stroke-width="1.7408" stroke-linejoin="round" d="M-829.8-813.8c-1.7-1.7-1.7-4.4,0-6.1
			s4.4-1.7,6.1,0s1.7,4.4,0,6.1S-828.1-812.2-829.8-813.8z"/>
		<path fill="#DD8A6C" stroke="#FFFFFF" stroke-width="1.7408" stroke-linejoin="round" d="M-829.8-857.8c-1.7-1.7-1.7-4.4,0-6.1
			s4.4-1.7,6.1,0s1.7,4.4,0,6.1S-828.1-856.2-829.8-857.8z"/>
		<path fill="#BA917F" stroke="#FFFFFF" stroke-width="1.7408" stroke-linejoin="round" d="M-717.1-678.4c0,2.4-1.9,4.3-4.3,4.3
			s-4.3-1.9-4.3-4.3s1.9-4.3,4.3-4.3C-719.1-682.8-717.1-680.8-717.1-678.4z"/>
		<path fill="#BA917F" stroke="#FFFFFF" stroke-width="1.7408" stroke-linejoin="round" d="M-685.6-709.6c0,2.4-1.9,4.3-4.3,4.3
			s-4.3-1.9-4.3-4.3s1.9-4.3,4.3-4.3C-687.5-714-685.6-712-685.6-709.6z"/>
		<path fill="#BA917F" stroke="#FFFFFF" stroke-width="1.7408" stroke-linejoin="round" d="M-778.8-649.7c-1.7,1.7-4.4,1.7-6.1,0
			s-1.7-4.4,0-6.1s4.4-1.7,6.1,0S-777.1-651.3-778.8-649.7z"/>
		<path fill="#BA917F" stroke="#FFFFFF" stroke-width="1.7408" stroke-linejoin="round" d="M-822.8-649.7c-1.7,1.7-4.4,1.7-6.1,0
			s-1.7-4.4,0-6.1s4.4-1.7,6.1,0S-821.1-651.3-822.8-649.7z"/>
		<path fill="#DDAF5E" stroke="#FFFFFF" stroke-width="1.7408" stroke-linejoin="round" d="M-375.1-856c0,2.4-1.9,4.3-4.3,4.3
			s-4.3-1.9-4.3-4.3s1.9-4.3,4.3-4.3S-375.1-858.4-375.1-856z"/>
		<path fill="#DDAF5E" stroke="#FFFFFF" stroke-width="1.7408" stroke-linejoin="round" d="M-327.4-856c0,2.4-1.9,4.3-4.3,4.3
			s-4.3-1.9-4.3-4.3s1.9-4.3,4.3-4.3S-327.4-858.3-327.4-856z"/>
		<path fill="#DDAF5E" stroke="#FFFFFF" stroke-width="1.7408" stroke-linejoin="round" d="M-279.7-856c0,2.4-1.9,4.3-4.3,4.3
			s-4.3-1.9-4.3-4.3s1.9-4.3,4.3-4.3S-279.7-858.3-279.7-856z"/>
		<path fill="#FFFFFF" stroke="#000000" stroke-width="1.7408" stroke-linejoin="round" d="M-232.9-856c0,2.4-1.9,4.3-4.3,4.3
			s-4.3-1.9-4.3-4.3s1.9-4.3,4.3-4.3S-232.9-858.3-232.9-856z"/>
		<path fill="#DDAF5E" stroke="#FFFFFF" stroke-width="1.7408" stroke-linejoin="round" d="M-208.4-880.3c0,2.4-1.9,4.3-4.3,4.3
			s-4.3-1.9-4.3-4.3s1.9-4.3,4.3-4.3S-208.4-882.7-208.4-880.3z"/>
	</g>
	<path fill="#CEA05D" d="M-152.2-970.7h15v10h-15V-970.7z"/>
	<path fill="#AAAAAA" stroke="#FFFFFF" stroke-width="1.7408" stroke-linejoin="round" d="M-182.9-855.9c0,2.4-1.9,4.3-4.3,4.3
		s-4.3-1.9-4.3-4.3s1.9-4.3,4.3-4.3S-182.9-858.3-182.9-855.9z"/>
	<path fill="#AAAAAA" stroke="#FFFFFF" stroke-width="1.7408" stroke-linejoin="round" d="M-113.5-831.6c0,2.4-1.9,4.3-4.3,4.3
		s-4.3-1.9-4.3-4.3s1.9-4.3,4.3-4.3S-113.5-833.9-113.5-831.6z"/>
	<path fill="#AAAAAA" stroke="#FFFFFF" stroke-width="1.7408" stroke-linejoin="round" d="M-78.9-864.6c0,2.4-1.9,4.3-4.3,4.3
		s-4.3-1.9-4.3-4.3s1.9-4.3,4.3-4.3S-78.9-867-78.9-864.6z"/>
	<path fill="#AAAAAA" stroke="#FFFFFF" stroke-width="1.7408" stroke-linejoin="round" d="M-46.1-897.7c0,2.4-1.9,4.3-4.3,4.3
		s-4.3-1.9-4.3-4.3s1.9-4.3,4.3-4.3C-48.1-902-46.1-900.1-46.1-897.7z"/>
	<path fill="none" stroke="#AAAAAA" stroke-width="4" stroke-linejoin="round" d="M-17.1-930.3l34.9-35.3l20-20h68l40,40l20,20
		l25,25l3,3"/>
	<path fill="none" stroke="#FFFFFF" stroke-width="2" stroke-linejoin="round" d="M-17.1-930.3l34.9-35.3l20-20h68l40,40l20,20
		l25,25l3,3"/>
	<path fill="#AAAAAA" stroke="#FFFFFF" stroke-width="1.7408" stroke-linejoin="round" d="M-12.5-931c0,2.4-1.9,4.3-4.3,4.3
		s-4.3-1.9-4.3-4.3s1.9-4.3,4.3-4.3S-12.5-933.4-12.5-931z"/>
	<path fill="#AAAAAA" d="M6.7-909.7l-10.6-10.6l7.1-7.1l10.6,10.6L6.7-909.7z"/>
	<path fill="#AAAAAA" stroke="#FFFFFF" stroke-width="1.5" stroke-linejoin="round" d="M16.7-959.7c0,2.4-1.9,4.3-4.3,4.3
		s-4.3-1.9-4.3-4.3s1.9-4.3,4.3-4.3S16.7-962.1,16.7-959.7z"/>
	<path fill="#AAAAAA" stroke="#FFFFFF" stroke-width="1.7408" stroke-linejoin="round" d="M75-985.9c0,2.4-1.9,4.3-4.3,4.3
		s-4.3-1.9-4.3-4.3s1.9-4.3,4.3-4.3S75-988.3,75-985.9z"/>
	<path fill="#AAAAAA" stroke="#FFFFFF" stroke-width="1.5" stroke-linejoin="round" d="M151.7-944.8c0,2.4-1.9,4.3-4.3,4.3
		s-4.3-1.9-4.3-4.3s1.9-4.3,4.3-4.3S151.7-947.2,151.7-944.8z"/>
	<path fill="#AAAAAA" stroke="#FFFFFF" stroke-width="1.7408" stroke-linejoin="round" d="M189.2-898c0,2.4,1.9,4.3,4.3,4.3
		s4.3-1.9,4.3-4.3s-1.9-4.3-4.3-4.3S189.2-900.4,189.2-898z"/>
	<path fill="#FFFFFF" stroke="#000000" stroke-width="1.5" stroke-linejoin="round" d="M-407.1-890.6c0,2.4-1.9,4.3-4.3,4.3
		s-4.3-1.9-4.3-4.3s1.9-4.3,4.3-4.3S-407.1-892.9-407.1-890.6z"/>
	<path fill="#B8A6C9" stroke="#FFFFFF" stroke-width="1.5" stroke-linejoin="round" d="M-313.6-931.3c0,2.4-1.9,4.3-4.3,4.3
		s-4.3-1.9-4.3-4.3s1.9-4.3,4.3-4.3S-313.6-933.7-313.6-931.3z"/>
	<path fill="#B8A6C9" stroke="#FFFFFF" stroke-width="1.5" stroke-linejoin="round" d="M-243.9-931.3c0,2.4-1.9,4.3-4.3,4.3
		s-4.3-1.9-4.3-4.3s1.9-4.3,4.3-4.3S-243.9-933.7-243.9-931.3z"/>
</g>
</svg>
