<svg enable-background="new 0 0 650 340" height="340" viewBox="0 0 650 340" width="650" xmlns="http://www.w3.org/2000/svg" xmlns:xlink="http://www.w3.org/1999/xlink"><symbol id="a" viewBox="-6.8 -6.8 13.6 13.6"><path d="m0 6.8v-13.6" fill="none" stroke="#828181" stroke-miterlimit="10" stroke-width="2"/><path d="m-6.8 0h13.6" fill="none" stroke="#828181" stroke-miterlimit="10" stroke-width="2"/></symbol><symbol id="b" viewBox="-6.9 -6.5 13.8 13.1"><path d="m0 6.5 2.1-4.3 4.8-.7-3.5-3.3.9-4.7-4.3 2.2-4.3-2.2.9 4.7-3.5 3.3 4.8.7z" fill="#828181"/></symbol><path d="m48.5 299.1h553.8v-292.1h-553.8z" fill="none" stroke="#a0a0a0" stroke-linecap="round" stroke-linejoin="round"/><path d="m121 299.8v11.9" fill="none" stroke="#a0a0a0" stroke-linecap="round" stroke-linejoin="round"/><path d="m267.5 299.8v11.9" fill="none" stroke="#a0a0a0" stroke-linecap="round" stroke-linejoin="round"/><path d="m414.5 299.8v11.9" fill="none" stroke="#a0a0a0" stroke-linecap="round" stroke-linejoin="round"/><path d="m561.5 299.8v11.9" fill="none" stroke="#a0a0a0" stroke-linecap="round" stroke-linejoin="round"/><path d="m48.5 43.6h-11.9" fill="none" stroke="#a0a0a0" stroke-linecap="round" stroke-linejoin="round"/><path d="m48.5 191.7h-11.9" fill="none" stroke="#a0a0a0" stroke-linecap="round" stroke-linejoin="round"/><path d="m48.5 265.8h-11.9" fill="none" stroke="#a0a0a0" stroke-linecap="round" stroke-linejoin="round"/><path d="m48.5 117.7h-11.9" fill="none" stroke="#a0a0a0" stroke-linecap="round" stroke-linejoin="round"/><text fill="#afaeae" font-family="'RobotoMono-Regular'" font-size="18" transform="translate(110.2 331.5)">10</text><text fill="#afaeae" font-family="'RobotoMono-Regular'" font-size="18" transform="translate(256.7 331.5)">20</text><text fill="#afaeae" font-family="'RobotoMono-Regular'" font-size="18" transform="translate(403.7 331.5)">30</text><text fill="#afaeae" font-family="'RobotoMono-Regular'" font-size="18" transform="translate(550.7 331.5)">40</text><text fill="#afaeae" font-family="'RobotoMono-Regular'" font-size="18" transform="matrix(0 -1 1 0 25.7 200.3008)">20</text><text fill="#afaeae" font-family="'RobotoMono-Regular'" font-size="18" transform="matrix(0 -1 1 0 25.7 51.6992)">40</text><text fill="#afaeae" font-family="'RobotoMono-Regular'" font-size="18" transform="matrix(0 -1 1 0 25.7 126)">30</text><text fill="#afaeae" font-family="'RobotoMono-Regular'" font-size="18" transform="matrix(0 -1 1 0 25.7 274.5996)">10</text><g fill="none"><circle cx="117" cy="265.5" r="6.1" stroke="#828181" stroke-miterlimit="10" stroke-width="2.25"/><circle cx="151" cy="217.5" r="6.1" stroke="#828181" stroke-miterlimit="10" stroke-width="2.25"/><circle cx="203.8" cy="207.1" r="6.1" stroke="#828181" stroke-miterlimit="10" stroke-width="2.25"/><circle cx="175.8" cy="176.8" r="6.1" stroke="#828181" stroke-miterlimit="10" stroke-width="2.25"/><circle cx="244.3" cy="235.4" r="6.1" stroke="#828181" stroke-miterlimit="10" stroke-width="2.25"/><circle cx="221.5" cy="170" r="6.1" stroke="#828181" stroke-miterlimit="10" stroke-width="2.25"/><circle cx="221.5" cy="136" r="6.1" stroke="#828181" stroke-miterlimit="10" stroke-width="2.25"/><circle cx="405.8" cy="210.7" r="6.1" stroke="#828181" stroke-miterlimit="10" stroke-width="2.25"/><circle cx="144.2" cy="103" r="6.1" stroke="#828181" stroke-miterlimit="10" stroke-width="2.25"/><circle cx="249.9" cy="153.1" r="6.1" stroke="#828181" stroke-miterlimit="10" stroke-width="2.25"/><circle cx="279.1" cy="219.2" r="6.1" stroke="#828181" stroke-miterlimit="10" stroke-width="2.25"/><circle cx="214.7" cy="231.2" r="6.1" stroke="#828181" stroke-miterlimit="10" stroke-width="2.25"/><circle cx="223.7" cy="258.7" r="6.1" stroke="#828181" stroke-miterlimit="10" stroke-width="2.25"/><circle cx="148" cy="251.9" r="6.1" stroke="#828181" stroke-miterlimit="10" stroke-width="2.25"/><circle cx="122.4" cy="231.2" r="6.1" stroke="#828181" stroke-miterlimit="10" stroke-width="2.25"/><circle cx="182.6" cy="138" r="6.1" stroke="#828181" stroke-miterlimit="10" stroke-width="2.25"/></g><text fill="#afaeae" font-family="'RobotoMono-Regular'" font-size="18" transform="translate(634.7 210.0996)">A</text><text fill="#afaeae" font-family="'RobotoMono-Regular'" font-size="18" transform="translate(634.7 243.0996)">B</text><text fill="#afaeae" font-family="'RobotoMono-Regular'" font-size="18" transform="translate(634.7 275.0996)">C</text><use height="13.6" transform="matrix(1 0 0 -1 184.9998 248.9665)" width="13.6" x="-6.8" xlink:href="#a" y="-6.8"/><use height="13.6" transform="matrix(1 0 0 -1 256.7 193.501)" width="13.6" x="-6.8" xlink:href="#a" y="-6.8"/><use height="13.6" transform="matrix(1 0 0 -1 307.25 244.9176)" width="13.6" x="-6.8" xlink:href="#a" y="-6.8"/><use height="13.6" transform="matrix(1 0 0 -1 288.5 149.5996)" width="13.6" x="-6.8" xlink:href="#a" y="-6.8"/><use height="13.6" transform="matrix(1 0 0 -1 290.8994 127.0996)" width="13.6" x="-6.8" xlink:href="#a" y="-6.8"/><use height="13.6" transform="matrix(1 0 0 -1 267.5 113.2998)" width="13.6" x="-6.8" xlink:href="#a" y="-6.8"/><use height="13.6" transform="matrix(1 0 0 -1 274.2998 73.2998)" width="13.6" x="-6.8" xlink:href="#a" y="-6.8"/><use height="13.6" transform="matrix(1 0 0 -1 325.4167 113.2998)" width="13.6" x="-6.8" xlink:href="#a" y="-6.8"/><use height="13.6" transform="matrix(1 0 0 -1 360.4494 133.8994)" width="13.6" x="-6.8" xlink:href="#a" y="-6.8"/><use height="13.6" transform="matrix(1 0 0 -1 455.5 170)" width="13.6" x="-6.8" xlink:href="#a" y="-6.8"/><use height="13.6" transform="matrix(1 0 0 -1 561.5 238)" width="13.6" x="-6.8" xlink:href="#a" y="-6.8"/><use height="13.6" transform="matrix(1 0 0 -1 620.1667 238)" width="13.6" x="-6.8" xlink:href="#a" y="-6.8"/><use height="13.6" transform="matrix(1 0 0 -1 330.7002 82.5)" width="13.6" x="-6.8" xlink:href="#a" y="-6.8"/><use height="13.6" transform="matrix(1 0 0 -1 378.5 91.7998)" width="13.6" x="-6.8" xlink:href="#a" y="-6.8"/><use height="13.6" transform="matrix(1 0 0 -1 346.8498 53.7998)" width="13.6" x="-6.8" xlink:href="#a" y="-6.8"/><use height="13.6" transform="matrix(1 0 0 -1 327.0998 142.7998)" width="13.6" x="-6.8" xlink:href="#a" y="-6.8"/><use height="13.6" transform="matrix(1 0 0 -1 337.5 174.7998)" width="13.6" x="-6.8" xlink:href="#a" y="-6.8"/><use height="13.6" transform="matrix(1 0 0 -1 401.5 142.7998)" width="13.6" x="-6.8" xlink:href="#a" y="-6.8"/><use height="13.6" transform="matrix(1 0 0 -1 307.25 207.1006)" width="13.6" x="-6.8" xlink:href="#a" y="-6.8"/><use height="13.6" transform="matrix(1 0 0 -1 364.9004 210.6667)" width="13.6" x="-6.8" xlink:href="#a" y="-6.8"/><circle cx="620.2" cy="203.9" fill="none" r="5.6" stroke="#828181" stroke-miterlimit="10" stroke-width="2.0557"/><use height="13.1" transform="matrix(1 0 0 -1 307.0915 36.1242)" width="13.8" x="-6.9" xlink:href="#b" y="-6.5"/><use height="13.1" transform="matrix(1 0 0 -1 363.5 107.7998)" width="13.8" x="-6.9" xlink:href="#b" y="-6.5"/><use height="13.1" transform="matrix(1 0 0 -1 416.4004 113.2998)" width="13.8" x="-6.9" xlink:href="#b" y="-6.5"/><use height="13.1" transform="matrix(1 0 0 -1 421.2998 72.4518)" width="13.8" x="-6.9" xlink:href="#b" y="-6.5"/><use height="13.1" transform="matrix(1 0 0 -1 430 43.6)" width="13.8" x="-6.9" xlink:href="#b" y="-6.5"/><use height="13.1" transform="matrix(1 0 0 -1 466.45 60.5996)" width="13.8" x="-6.9" xlink:href="#b" y="-6.5"/><use height="13.1" transform="matrix(1 0 0 -1 452.0417 99.7002)" width="13.8" x="-6.9" xlink:href="#b" y="-6.5"/><use height="13.1" transform="matrix(1 0 0 -1 480.7002 126)" width="13.8" x="-6.9" xlink:href="#b" y="-6.5"/><use height="13.1" transform="matrix(1.168 0 0 -1.168 619.5 268.2998)" width="13.8" x="-6.9" xlink:href="#b" y="-6.5"/><use height="13.1" transform="matrix(1 0 0 -1 442.0089 133.8994)" width="13.8" x="-6.9" xlink:href="#b" y="-6.5"/><use height="13.1" transform="matrix(1 0 0 -1 385.2998 173.9518)" width="13.8" x="-6.9" xlink:href="#b" y="-6.5"/><use height="13.1" transform="matrix(1 0 0 -1 490.9 96.2002)" width="13.8" x="-6.9" xlink:href="#b" y="-6.5"/><use height="13.1" transform="matrix(1 0 0 -1 506.5 59.7517)" width="13.8" x="-6.9" xlink:href="#b" y="-6.5"/><use height="13.1" transform="matrix(1 0 0 -1 476.5 30.0004)" width="13.8" x="-6.9" xlink:href="#b" y="-6.5"/><use height="13.1" transform="matrix(1 0 0 -1 531.2002 79.2517)" width="13.8" x="-6.9" xlink:href="#b" y="-6.5"/><use height="13.1" transform="matrix(1 0 0 -1 531.2002 120.0996)" width="13.8" x="-6.9" xlink:href="#b" y="-6.5"/><use height="13.1" transform="matrix(1 0 0 -1 568.2998 49.5518)" width="13.8" x="-6.9" xlink:href="#b" y="-6.5"/><use height="13.1" transform="matrix(1 0 0 -1 288.5 179.0996)" width="13.8" x="-6.9" xlink:href="#b" y="-6.5"/></svg>