<svg xmlns="http://www.w3.org/2000/svg" width="650" height="340" viewBox="0 0 650 340"><defs><style>.a{fill:none;stroke:#a0a0a0;stroke-linecap:round;stroke-linejoin:round;}.b{isolation:isolate;font-size:18px;fill:#afaeae;font-family:Roboto Mono;}.c{fill:#bcbcbc;}.d{fill:#e8e8e8;}.e{fill:#8e8e8e;}</style></defs><title>multi-color-scatterplot</title><path class="a" d="M48.5,299.1H602.3V7H48.5V299.1Z"/><path class="a" d="M121,299.8v11.9"/><path class="a" d="M267.5,299.8v11.9"/><path class="a" d="M414.5,299.8v11.9"/><path class="a" d="M561.5,299.8v11.9"/><path class="a" d="M48.5,43.6H36.6"/><path class="a" d="M48.5,191.7H36.6"/><path class="a" d="M48.5,265.8H36.6"/><path class="a" d="M48.5,117.7H36.6"/><text class="b" transform="translate(110.2 331.5)">10</text><text class="b" transform="translate(256.7 331.5)">20</text><text class="b" transform="translate(403.7 331.5)">30</text><text class="b" transform="translate(550.7 331.5)">40</text><text class="b" transform="translate(25.7 200.3) rotate(-90)">20</text><text class="b" transform="translate(25.7 51.7) rotate(-90)">40</text><text class="b" transform="translate(25.7 126) rotate(-90)">30</text><text class="b" transform="translate(25.7 274.6) rotate(-90)">10</text><circle class="c" cx="117" cy="265.5" r="6.8"/><circle class="c" cx="185" cy="249" r="6.8"/><circle class="c" cx="151" cy="217.5" r="6.8"/><circle class="c" cx="203.8" cy="207.1" r="6.8"/><circle class="c" cx="175.8" cy="176.8" r="6.8"/><circle class="c" cx="244.3" cy="235.4" r="6.8"/><circle class="d" cx="256.7" cy="193.5" r="6.8"/><circle class="c" cx="221.5" cy="170" r="6.8"/><circle class="c" cx="221.5" cy="136" r="6.8"/><circle class="d" cx="307" cy="207.1" r="6.8"/><circle class="d" cx="401.5" cy="142.8" r="6.8"/><circle class="d" cx="288.5" cy="149.6" r="6.8"/><circle class="d" cx="274.3" cy="73.3" r="6.8"/><circle class="c" cx="405.8" cy="210.7" r="6.8"/><circle class="d" cx="325" cy="113.3" r="6.8"/><circle class="d" cx="346.8" cy="53.8" r="6.8"/><circle class="d" cx="378.5" cy="91.8" r="6.8"/><circle class="d" cx="455.5" cy="170" r="6.8"/><circle class="e" cx="451.5" cy="99.7" r="6.8"/><circle class="e" cx="506.5" cy="60.6" r="6.8"/><circle class="e" cx="430" cy="43.6" r="6.8"/><circle class="d" cx="337.5" cy="174.8" r="6.8"/><circle class="d" cx="360.4" cy="133.7" r="6.8"/><circle class="e" cx="531.2" cy="120.1" r="6.8"/><circle class="e" cx="416.4" cy="113.3" r="6.8"/><circle class="d" cx="330.7" cy="82.5" r="6.8"/><circle class="d" cx="267.5" cy="113.3" r="6.8"/><circle class="e" cx="480.7" cy="126" r="6.8"/><circle class="d" cx="364.9" cy="210.7" r="6.8"/><circle class="c" cx="144.2" cy="103" r="6.8"/><circle class="d" cx="561.5" cy="238" r="6.8"/><circle class="e" cx="568.3" cy="50.4" r="6.8"/><circle class="e" cx="531.2" cy="80.1" r="6.8"/><circle class="e" cx="421.3" cy="73.3" r="6.8"/><circle class="e" cx="476.5" cy="30" r="6.8"/><circle class="e" cx="466.4" cy="60.6" r="6.8"/><circle class="d" cx="327" cy="142.8" r="6.8"/><circle class="e" cx="385.3" cy="174.8" r="6.8"/><circle class="c" cx="249.9" cy="153.1" r="6.8"/><circle class="d" cx="307" cy="244.8" r="6.8"/><circle class="e" cx="490.9" cy="96.2" r="6.8"/><circle class="e" cx="442.6" cy="134.9" r="6.8"/><circle class="e" cx="363.5" cy="107.8" r="6.8"/><circle class="d" cx="287.9" cy="179.1" r="6.8"/><circle class="d" cx="290.9" cy="127.1" r="6.8"/><circle class="c" cx="279.1" cy="219.2" r="6.8"/><circle class="c" cx="214.7" cy="231.2" r="6.8"/><circle class="c" cx="223.7" cy="258.7" r="6.8"/><circle class="c" cx="148" cy="251.9" r="6.8"/><circle class="c" cx="122.4" cy="231.2" r="6.8"/><circle class="c" cx="182.6" cy="138" r="6.8"/><circle class="e" cx="307" cy="36.8" r="6.8"/><text class="b" transform="translate(634.7 210.1)">A</text><text class="b" transform="translate(634.7 243.1)">B</text><text class="b" transform="translate(634.7 275.1)">C</text><rect class="e" x="613.7" y="196.8" width="13" height="13"/><rect class="c" x="613" y="261.8" width="13" height="13"/><rect class="d" x="613" y="229.8" width="13" height="13"/></svg>