<?xml version="1.0" encoding="utf-8"?>
<!-- Generator: Adobe Illustrator 22.1.0, SVG Export Plug-In . SVG Version: 6.00 Build 0)  -->
<svg version="1.1" id="Layer_1" xmlns="http://www.w3.org/2000/svg" xmlns:xlink="http://www.w3.org/1999/xlink" x="0px" y="0px"
	 viewBox="0 0 1200 768.9" style="enable-background:new 0 0 1200 768.9;" xml:space="preserve">
<style type="text/css">
	.st0{fill:none;stroke:#C4C4C4;stroke-width:13.793;stroke-miterlimit:10;}
	.st1{fill:#BABABA;}
	.st2{fill:#514361;}
	.st3{font-family:'RobotoMono-Regular';}
	.st4{font-size:50px;}
	.st5{fill:none;stroke:#C4C4C4;stroke-width:19;stroke-miterlimit:10;}
	.st6{fill:#C6C6C6;}
	.st7{fill:none;stroke:#8C8C8C;stroke-width:4;stroke-linecap:round;stroke-miterlimit:10;stroke-dasharray:0,9.9536;}
</style>
<g>
	<polygon class="st0" points="1028,502.5 1028,322.9 1181.9,412.7 	"/>
	<g>
		<g>
			<line class="st0" x1="66" y1="189.3" x2="160.6" y2="372.6"/>
			<g>
				<polygon class="st1" points="139.5,376.7 174.2,399 176.1,357.8 				"/>
			</g>
		</g>
	</g>
	<g>
		<g>
			<line class="st0" x1="441.6" y1="189.3" x2="536.1" y2="372.6"/>
			<g>
				<polygon class="st1" points="515,376.7 549.8,399 551.7,357.8 				"/>
			</g>
		</g>
	</g>
	<g>
		<g>
			<line class="st0" x1="816.7" y1="189.3" x2="911.3" y2="372.6"/>
			<g>
				<polygon class="st1" points="890.2,376.7 924.9,399 926.9,357.8 				"/>
			</g>
		</g>
	</g>
	<g>
		<g>
			<line class="st0" x1="66" y1="639.9" x2="160.6" y2="456.5"/>
			<g>
				<polygon class="st1" points="176.1,471.3 174.2,430.1 139.5,452.4 				"/>
			</g>
		</g>
	</g>
	<g>
		<g>
			<line class="st0" x1="441.6" y1="639.9" x2="536.1" y2="456.5"/>
			<g>
				<polygon class="st1" points="551.7,471.3 549.8,430.1 515,452.4 				"/>
			</g>
		</g>
	</g>
	<g>
		<g>
			<line class="st0" x1="816.7" y1="639.9" x2="911.3" y2="456.5"/>
			<g>
				<polygon class="st1" points="926.9,471.3 924.9,430.1 890.2,452.4 				"/>
			</g>
		</g>
	</g>
	<g>
		<g>
			<text transform="matrix(1 0 0 1 981.9153 177.6792)" class="st2 st3 st4">problem</text>
		</g>
	</g>
	<line class="st5" x1="131.4" y1="414.9" x2="1028" y2="414.9"/>
	<rect x="3" y="156.9" class="st6" width="165" height="62"/>
	<rect x="379" y="156.9" class="st6" width="165" height="62"/>
	<rect x="754" y="156.9" class="st6" width="165" height="62"/>
	<rect x="3" y="605.9" class="st6" width="165" height="62"/>
	<rect x="379" y="605.9" class="st6" width="165" height="62"/>
	<rect x="754" y="605.9" class="st6" width="165" height="62"/>
	<g>
		<g>
			<text transform="matrix(1 0 0 1 24 57.2582)" class="st2 st3 st4">category of causes</text>
		</g>
	</g>
	<g>
		<g>
			<text transform="matrix(1 0 0 1 24 742.7233)" class="st2 st3 st4">individual cause</text>
		</g>
	</g>
</g>
<line class="st7" x1="85.5" y1="168.5" x2="85.5" y2="69.4"/>
<line class="st7" x1="248.1" y1="699.5" x2="248.1" y2="558.5"/>
<line class="st7" x1="1097" y1="363.1" x2="1097" y2="203"/>
<line class="st0" x1="108.3" y1="267.5" x2="218.6" y2="267.5"/>
<line class="st0" x1="131.4" y1="316.1" x2="262.1" y2="316.1"/>
<line class="st0" x1="467.1" y1="243.2" x2="577.4" y2="243.2"/>
<line class="st0" x1="490.2" y1="291.8" x2="620.9" y2="291.8"/>
<line class="st0" x1="516.5" y1="340.4" x2="647.2" y2="340.4"/>
<line class="st0" x1="871.2" y1="291.8" x2="1001.9" y2="291.8"/>
<line class="st0" x1="871.2" y1="525.5" x2="1001.9" y2="525.5"/>
<line class="st0" x1="853.7" y1="570.5" x2="984.3" y2="570.5"/>
<line class="st0" x1="516.5" y1="502.5" x2="647.2" y2="502.5"/>
<line class="st0" x1="488.5" y1="551.1" x2="619.2" y2="551.1"/>
<line class="st0" x1="139.5" y1="502.5" x2="218.6" y2="502.5"/>
<line class="st0" x1="111.8" y1="551.1" x2="262.1" y2="551.1"/>
</svg>
