<svg xmlns="http://www.w3.org/2000/svg" width="256" height="256" viewBox="0 0 256 256"><title>icon_sketch</title><path d="M51.1,187.6a61.3,61.3,0,0,1-3-49.4l8.2-22.4a56.8,56.8,0,0,0,3.2-26.7l-2-16.9A54.6,54.6,0,0,1,60,48.5L74.7,8.1A3.2,3.2,0,0,1,78,6V7h2.6c-.1,13.2,0,26.7,0,39.6V64.4a21.6,21.6,0,0,1,1.8,7.8l1.9,17.2a32.2,32.2,0,0,0,5.5,17.2l.5-.4,6.7,5.5-1.6,1.7a78.9,78.9,0,0,0,10.4,8.4c7.2,5,10.1,18,7.4,25.2q-1,2.7-2.1,4.8c-1.5,3.2-2.6,5.5-2,8.6a6.8,6.8,0,0,0,2.1,3.5l4.9,4.5c8,8.5.2,22.2-8.4,28.4s-15.3,12.1-18.9,19.7l1-.8,2.1,1.7-4.9,4c-.1.2-.1.4-.2.6l-6.8,24.7a2.4,2.4,0,0,1-2.5,1.8,2.3,2.3,0,0,1-2.5-2.1h4.4a1.8,1.8,0,0,0-1.9-1.5,1.7,1.7,0,0,0-1.8,1.5V246l1.5-5.1V234a3.1,3.1,0,0,1-2.4-1.7Zm56.7-21.3a11.4,11.4,0,0,1-2.3-3.1L84.3,180.5l-1.7-1.4v2.4H78.8v19.1h-1v28.6l.9,1.7a1.2,1.2,0,0,0-.8-.4h0v3.6h-.1v4.1l3.3-12.1-1,.8-2-1.6,4.2-3.5.2-.6c3.1-11.5,10.5-18.7,22.3-27.1,8.2-6,13.4-17.5,7.8-23.5Zm-4.9-41.8-.6-.4-18,14.8-1.7-1.4v41.1l22.1-18.1c-.6-3.8.7-6.7,2.3-10,.6-1.4,1.3-2.8,2-4.5,1.4-3.7.8-9.8-1.2-14.7l-21,17.2-2.1-1.7L106,129.4l1.5,1.2A15.4,15.4,0,0,0,102.9,124.5Zm-10.4-8.3L81.1,127.9l-2.3-1.5,11.9-12.1a25.1,25.1,0,0,1-2.6-3.1l-8,6.5-1.3-1.1v16.5h3.8v3.8l17.5-14.3A82.6,82.6,0,0,1,92.5,116.2Zm-37.4,70,22,41.7V200.6h-.3V181.5H72.9V133.1h3.9v-46h2v28.4l7.7-6.4a43.4,43.4,0,0,1-2.8-4.6L81,106.8l-2.1-1.7,3.7-3a35.1,35.1,0,0,1-2.8-12.5L77.9,72.4a18.6,18.6,0,0,0-2.5-8.8l2.2-.8V12.4l-13.4,37a53.4,53.4,0,0,0-2.4,22.4l2,17a59.7,59.7,0,0,1-3.3,28l-8.3,22.4A58.9,58.9,0,0,0,55.1,186.2Zm86.6-69.5c-3.7-14.6-1-29.8,7.5-43l.2-.4c4.2-6.5,8.3-13.6,12.2-21.2l11.1-21.8a4.1,4.1,0,0,1,3.5-2v3.6a.5.5,0,0,0,.5-.3L165.7,53.4c-4,7.7-8.2,14.9-12.4,21.5l-.2.4a51.4,51.4,0,0,0-7.2,40.7l19.6,81.1c1.5,5.9,5.6,11.1,9.3,14.7V181.7h.4v-34h-4V80.1h4V67.2h2v6.9l7.1-5.7c-1.2-2.5-2.3-5-3.4-7.6l-.3.3-2-1.7,1.3-1.1c0-.1,0-.2-.1-.2L174.9,45l.9-.2V42.1a3.5,3.5,0,0,1,3.2,1.7V44L184,57a118.9,118.9,0,0,0,15.3,28.2l3.7,5c5.6,7.6,5.6,10.3,5.6,18.5v.4c0,2.6-1.7,6.1-3.7,10.1s-5.6,11.2-4.3,15c3.8,10.8-4.2,25.7-8.6,33.7a31.7,31.7,0,0,0-2.3,4.7c-.5,1.3-.9,2.2-1.3,3s-1.7,4-4.2,13.7l-2.6,8.3h.2l-7,28v-9.4a4.6,4.6,0,0,1-2.3-1.2c-4.1-3.8-9.5-10-11.2-17.3Zm34.2-71v-.8l-.8.3A.9.9,0,0,0,175.9,45.7Zm24.6,72.8-19.1,15.6h-.2v13.7h-4v20.6l15.5-12.7.6.5c2-4.7,3.7-9.7,3.9-14.4l-16.6,13.6-2-1.7,17.2-14.1,1.5,1.2a17.3,17.3,0,0,0-.9-5.6C194.7,130.3,197.7,124.1,200.5,118.5Zm3.8-9.8c0-3.8,0-6.2-.6-8.5l-20.6,16.9-1.9-1.6v15.4l19.1-15.6,1.3,1c1.4-2.9,2.7-5.6,2.7-7.2Zm-5-16.6L197.8,90l-14.7,12-1.9-1.5v14.7l21.6-17.6A32.1,32.1,0,0,0,199.3,92.1ZM177.2,74.7v5.4h4v20.1l15-12.3-.6-.9a49.8,49.8,0,0,1-3.3-4.7l-8.4,6.8-2-1.7,8.9-7.3c-1.9-3.1-3.7-6.2-5.3-9.4l-6.6,5.4Zm0,107h.5v13.9l2.3-7.2c1.2-4.6,2-7.5,2.6-9.5l-2.8,2.3-2.1-1.7,6.8-5.5,1-2.5c.4-1.1,1.3-2.7,2.5-5s2.2-4,3.4-6.4L178.1,171l-.9-.7ZM85.1,165.5l23.1-18.8-2.1-1.7-23,18.8ZM81,196.9l31.7-26-2-1.7-31.8,26Zm-2.1,13.3,2.1,1.7,23.8-19.5-2.1-1.6Z"/></svg>