<?xml version="1.0" encoding="utf-8"?>
<!-- Generator: Adobe Illustrator 19.2.0, SVG Export Plug-In . SVG Version: 6.00 Build 0)  -->
<svg version="1.1" id="Layer_1" xmlns="http://www.w3.org/2000/svg" xmlns:xlink="http://www.w3.org/1999/xlink" x="0px" y="0px"
	 width="1200px" height="975px" viewBox="0 0 1200 975" enable-background="new 0 0 1200 975" xml:space="preserve">
<g>
	<polygon fill="#7581BA" points="995.543,664.025 995.543,573.58 1073.068,618.802 	"/>
	<g>
		<g>
			
				<line fill="none" stroke="#7581BA" stroke-width="13.793" stroke-miterlimit="10" x1="66.027" y1="395.363" x2="160.574" y2="578.727"/>
			<g>
				<polygon fill="#7581BA" points="139.469,582.817 174.183,605.12 176.146,563.905 				"/>
			</g>
		</g>
	</g>
	<g>
		<g>
			
				<line fill="none" stroke="#7581BA" stroke-width="13.793" stroke-miterlimit="10" x1="441.599" y1="395.363" x2="536.146" y2="578.727"/>
			<g>
				<polygon fill="#7581BA" points="515.041,582.817 549.754,605.12 551.717,563.905 				"/>
			</g>
		</g>
	</g>
	<g>
		<g>
			
				<line fill="none" stroke="#7581BA" stroke-width="13.793" stroke-miterlimit="10" x1="816.741" y1="395.363" x2="911.288" y2="578.727"/>
			<g>
				<polygon fill="#7581BA" points="890.183,582.817 924.896,605.12 926.859,563.905 				"/>
			</g>
		</g>
	</g>
	<g>
		<g>
			
				<line fill="none" stroke="#7581BA" stroke-width="13.793" stroke-miterlimit="10" x1="66.027" y1="845.991" x2="160.574" y2="662.627"/>
			<g>
				<polygon fill="#7581BA" points="176.146,677.449 174.183,636.235 139.469,658.538 				"/>
			</g>
		</g>
	</g>
	<g>
		<g>
			
				<line fill="none" stroke="#7581BA" stroke-width="13.793" stroke-miterlimit="10" x1="441.599" y1="845.991" x2="536.146" y2="662.627"/>
			<g>
				<polygon fill="#7581BA" points="551.717,677.449 549.754,636.235 515.041,658.538 				"/>
			</g>
		</g>
	</g>
	<g>
		<g>
			
				<line fill="none" stroke="#7581BA" stroke-width="13.793" stroke-miterlimit="10" x1="816.741" y1="845.991" x2="911.288" y2="662.627"/>
			<g>
				<polygon fill="#7581BA" points="926.859,677.449 924.896,636.235 890.183,658.538 				"/>
			</g>
		</g>
	</g>
	<g>
		<text transform="matrix(1 0 0 1 450.9932 113.6299)" fill="#7F7F7F" font-family="'Roboto-Regular'" font-size="65px">cause</text>
	</g>
	<g>
		<text transform="matrix(0 -1 1 0 1194.9795 169.7197)" fill="#7F7F7F" font-family="'Roboto-Regular'" font-size="65px">effect</text>
	</g>
	<g>
		<text transform="matrix(0 -1 1 0 1197.5557 705.208)" fill="#7F7F7F" font-family="'Roboto-Regular'" font-size="65px">problem</text>
	</g>
	<line fill="none" stroke="#CCCCCC" stroke-width="4" stroke-miterlimit="10" x1="1114" y1="965" x2="1114" y2="3"/>
	<line fill="none" stroke="#CCCCCC" stroke-width="4" stroke-miterlimit="10" x1="1199" y1="187" x2="3" y2="187"/>
	<line fill="none" stroke="#7581BA" stroke-width="36" stroke-miterlimit="10" x1="24" y1="621" x2="999" y2="621"/>
	<rect x="3" y="363" fill="#AFAFAF" width="165" height="62"/>
	<rect x="379" y="363" fill="#AFAFAF" width="165" height="62"/>
	<rect x="754" y="363" fill="#AFAFAF" width="165" height="62"/>
	<rect x="3" y="812" fill="#AFAFAF" width="165" height="62"/>
	<rect x="379" y="812" fill="#AFAFAF" width="165" height="62"/>
	<rect x="754" y="812" fill="#AFAFAF" width="165" height="62"/>
	<g>
		<text transform="matrix(1 0 0 1 9.803772e-04 963.0439)" fill="#37246D" font-family="'Roboto-Medium'" font-size="51.4992px">manpower</text>
	</g>
	<g>
		<text transform="matrix(1 0 0 1 375.4209 963.0439)" fill="#37246D" font-family="'Roboto-Medium'" font-size="51.4992px">measurement</text>
	</g>
	<g>
		<text transform="matrix(1 0 0 1 754.5107 963.0439)" fill="#37246D" font-family="'Roboto-Medium'" font-size="51.4992px">environment</text>
	</g>
	<g>
		<text transform="matrix(1 0 0 1 8.5205 314.3662)" fill="#37246D" font-family="'Roboto-Medium'" font-size="51.4992px">material</text>
	</g>
	<g>
		<text transform="matrix(1 0 0 1 384.0869 314.3662)" fill="#37246D" font-family="'Roboto-Medium'" font-size="51.4992px">method</text>
	</g>
	<g>
		<text transform="matrix(1 0 0 1 758.8682 306.8545)" fill="#37246D" font-family="'Roboto-Medium'" font-size="51.4992px">machine</text>
	</g>
</g>
</svg>
