<?xml version="1.0" encoding="utf-8"?>
<!-- Generator: Adobe Illustrator 22.1.0, SVG Export Plug-In . SVG Version: 6.00 Build 0)  -->
<svg version="1.1" xmlns="http://www.w3.org/2000/svg" xmlns:xlink="http://www.w3.org/1999/xlink" x="0px" y="0px"
	 viewBox="0 0 1268 418" enable-background="new 0 0 1268 418" xml:space="preserve">
<g id="Layer_1">
	<polygon fill="#A697A6" points="1111.4,225.4 24,225.4 24,213.5 1111.4,213.5 	"/>
	<line fill="none" stroke="#C4C4C4" stroke-miterlimit="10" x1="23.5" y1="25.7" x2="250.8" y2="25.7"/>
	<line fill="none" stroke="#C4C4C4" stroke-miterlimit="10" x1="52" y1="88.5" x2="280.2" y2="88.5"/>
	<line fill="none" stroke="#C4C4C4" stroke-miterlimit="10" x1="80.4" y1="151.2" x2="308.7" y2="151.2"/>
	<g>
		<g>
			<polyline fill="none" stroke="#9C96AD" stroke-width="4" stroke-miterlimit="10" points="330.8,198.4 250.8,25.7 24.1,25.7 			
				"/>
			<g>
				<polygon fill="#9C96AD" points="338.6,191.6 336.8,211.5 320.5,200 				"/>
			</g>
		</g>
	</g>
	<line fill="none" stroke="#C4C4C4" stroke-miterlimit="10" x1="419.6" y1="88.5" x2="647.9" y2="88.5"/>
	<line fill="none" stroke="#C4C4C4" stroke-miterlimit="10" x1="448.1" y1="151.2" x2="676.3" y2="151.2"/>
	<g>
		<g>
			<polyline fill="none" stroke="#9C96AD" stroke-width="4" stroke-miterlimit="10" points="698.5,198.4 618.9,25.7 392.1,25.7 			
				"/>
			<g>
				<polygon fill="#9C96AD" points="706.3,191.6 704.5,211.5 688.2,199.9 				"/>
			</g>
		</g>
	</g>
	<line fill="none" stroke="#C4C4C4" stroke-miterlimit="10" x1="786.7" y1="88.5" x2="1015" y2="88.5"/>
	<line fill="none" stroke="#C4C4C4" stroke-miterlimit="10" x1="815.2" y1="151.2" x2="1043.4" y2="151.2"/>
	<g>
		<g>
			<polyline fill="none" stroke="#9C96AD" stroke-width="4" stroke-miterlimit="10" points="1065.6,198.4 986,25.7 759.3,25.7 			
				"/>
			<g>
				<polygon fill="#9C96AD" points="1073.4,191.6 1071.6,211.5 1055.3,199.9 				"/>
			</g>
		</g>
	</g>
	<line fill="none" stroke="#C4C4C4" stroke-miterlimit="10" x1="758.5" y1="413.4" x2="986.8" y2="413.4"/>
	<line fill="none" stroke="#C4C4C4" stroke-miterlimit="10" x1="787" y1="350.7" x2="1015.2" y2="350.7"/>
	<line fill="none" stroke="#C4C4C4" stroke-miterlimit="10" x1="815.4" y1="287.9" x2="1043.7" y2="287.9"/>
	<g>
		<g>
			<polyline fill="none" stroke="#9C96AD" stroke-width="4" stroke-miterlimit="10" points="1065.8,240.7 985.9,413.4 759.2,413.4 
							"/>
			<g>
				<polygon fill="#9C96AD" points="1055.5,239.2 1071.8,227.7 1073.6,247.5 				"/>
			</g>
		</g>
	</g>
	<line fill="none" stroke="#C4C4C4" stroke-miterlimit="10" x1="419.5" y1="350.7" x2="647.7" y2="350.7"/>
	<line fill="none" stroke="#C4C4C4" stroke-miterlimit="10" x1="447.9" y1="287.9" x2="676.2" y2="287.9"/>
	<g>
		<g>
			<polyline fill="none" stroke="#9C96AD" stroke-width="4" stroke-miterlimit="10" points="698.3,240.7 618.6,413.4 391.8,413.4 
							"/>
			<g>
				<polygon fill="#9C96AD" points="688,239.2 704.3,227.7 706.1,247.5 				"/>
			</g>
		</g>
	</g>
	<line fill="none" stroke="#C4C4C4" stroke-miterlimit="10" x1="51.8" y1="350.7" x2="280.1" y2="350.7"/>
	<line fill="none" stroke="#C4C4C4" stroke-miterlimit="10" x1="80.3" y1="287.9" x2="308.5" y2="287.9"/>
	<g>
		<g>
			<polyline fill="none" stroke="#9C96AD" stroke-width="4" stroke-miterlimit="10" points="330.7,240.7 251.7,413.4 24.9,412.5 			
				"/>
			<g>
				<polygon fill="#9C96AD" points="320.4,239.2 336.7,227.7 338.5,247.5 				"/>
			</g>
		</g>
	</g>
	<polyline fill="none" stroke="#9C96AD" stroke-width="4" stroke-miterlimit="10" points="1195.2,349.3 1252,218.2 1195.2,88 	"/>
	
		<rect x="52" y="67.8" transform="matrix(-1 -3.562229e-11 3.562229e-11 -1 200.8168 145.4807)" fill="#EBE5E1" width="96.9" height="9.9"/>
	
		<rect x="108.5" y="3.8" transform="matrix(-1 -1.805413e-11 1.805413e-11 -1 284.035 17.5374)" fill="#EBE5E1" width="67" height="9.9"/>
	
		<rect x="23.5" y="3.8" transform="matrix(-1 -4.489088e-11 4.489088e-11 -1 123.9176 17.5374)" fill="#EBE5E1" width="76.9" height="9.9"/>
	
		<rect x="145.4" y="129.9" transform="matrix(-1 -2.573687e-11 2.573687e-11 -1 337.8335 269.6989)" fill="#EBE5E1" width="47" height="9.9"/>
	
		<rect x="80.4" y="129.9" transform="matrix(-1 -6.067825e-11 6.067825e-11 -1 217.716 269.6989)" fill="#EBE5E1" width="56.9" height="9.9"/>
	
		<rect x="494.8" y="67.8" transform="matrix(-1 -1.808122e-11 1.808122e-11 -1 1056.6759 145.4807)" fill="#EBE5E1" width="67" height="9.9"/>
	
		<rect x="419.8" y="67.8" transform="matrix(-1 -5.160418e-11 5.160418e-11 -1 906.5584 145.4807)" fill="#EBE5E1" width="66.9" height="9.9"/>
	
		<rect x="456.4" y="3.8" transform="matrix(-1 -1.805413e-11 1.805413e-11 -1 979.7767 17.5374)" fill="#EBE5E1" width="67" height="9.9"/>
	
		<rect x="391.4" y="3.8" transform="matrix(-1 -6.067825e-11 6.067825e-11 -1 839.6592 17.5374)" fill="#EBE5E1" width="56.9" height="9.9"/>
	
		<rect x="448.3" y="129.9" transform="matrix(-1 -3.562229e-11 3.562229e-11 -1 993.4576 269.6989)" fill="#EBE5E1" width="96.9" height="9.9"/>
	
		<rect x="861.2" y="129.9" transform="matrix(-1 -1.570978e-11 1.570978e-11 -1 1799.3401 269.6989)" fill="#EBE5E1" width="77" height="9.9"/>
	
		<rect x="816.2" y="129.9" transform="matrix(-1 -9.359548e-11 9.359548e-11 -1 1669.2225 269.6989)" fill="#EBE5E1" width="36.9" height="9.9"/>
	
		<rect x="872.7" y="67.8" transform="matrix(-1 -2.577550e-11 2.577550e-11 -1 1792.4175 145.4807)" fill="#EBE5E1" width="47" height="9.9"/>
	
		<rect x="787.7" y="67.8" transform="matrix(-1 -4.489088e-11 4.489088e-11 -1 1652.3 145.4807)" fill="#EBE5E1" width="76.9" height="9.9"/>
	
		<rect x="842.3" y="3.8" transform="matrix(-1 -2.468660e-11 2.468660e-11 -1 1733.5183 17.5374)" fill="#EBE5E1" width="49" height="9.9"/>
	
		<rect x="759.3" y="3.8" transform="matrix(-1 -4.608992e-11 4.608992e-11 -1 1593.4009 17.5374)" fill="#EBE5E1" width="74.9" height="9.9"/>
	
		<rect x="881.2" y="266.1" transform="matrix(-1 -1.808122e-11 1.808122e-11 -1 1829.3168 542.139)" fill="#EBE5E1" width="67" height="9.9"/>
	
		<rect x="816.2" y="266.1" transform="matrix(-1 -6.064628e-11 6.064628e-11 -1 1689.1992 542.139)" fill="#EBE5E1" width="56.9" height="9.9"/>
	
		<rect x="842.2" y="329.8" transform="matrix(-1 -1.805413e-11 1.805413e-11 -1 1751.3168 669.4585)" fill="#EBE5E1" width="67" height="9.9"/>
	
		<rect x="787.2" y="329.8" transform="matrix(-1 -7.362523e-11 7.362523e-11 -1 1621.1992 669.4585)" fill="#EBE5E1" width="46.9" height="9.9"/>
	
		<rect x="759.2" y="392.4" transform="matrix(-1 -3.560364e-11 3.560364e-11 -1 1615.2826 794.7849)" fill="#EBE5E1" width="96.9" height="9.9"/>
	
		<rect x="448.8" y="266.1" transform="matrix(-1 -2.951029e-11 2.951029e-11 -1 1014.3808 542.139)" fill="#EBE5E1" width="116.9" height="9.9"/>
	
		<rect x="504.7" y="329.8" transform="matrix(-1 -2.573687e-11 2.573687e-11 -1 1056.4983 669.4585)" fill="#EBE5E1" width="47" height="9.9"/>
	
		<rect x="419.8" y="329.8" transform="matrix(-1 -4.489088e-11 4.489088e-11 -1 916.3808 669.4585)" fill="#EBE5E1" width="76.9" height="9.9"/>
	<rect x="476.8" y="392.4" fill="#EBE5E1" width="57" height="9.9"/>
	
		<rect x="391.8" y="392.4" transform="matrix(-1 -4.486690e-11 4.486690e-11 -1 860.4641 794.7849)" fill="#EBE5E1" width="76.9" height="9.9"/>
	
		<rect x="156.8" y="266.1" transform="matrix(-1 -2.125379e-11 2.125379e-11 -1 370.6964 542.139)" fill="#EBE5E1" width="57" height="9.9"/>
	
		<rect x="81.9" y="266.1" transform="matrix(-1 -5.157664e-11 5.157664e-11 -1 230.579 542.139)" fill="#EBE5E1" width="66.9" height="9.9"/>
	
		<rect x="52.9" y="329.8" transform="matrix(-1 -3.562229e-11 3.562229e-11 -1 202.579 669.4585)" fill="#EBE5E1" width="96.9" height="9.9"/>
	
		<rect x="109.9" y="392.4" transform="matrix(-1 -1.808122e-11 1.808122e-11 -1 286.7798 794.7849)" fill="#EBE5E1" width="67" height="9.9"/>
	
		<rect x="24.9" y="392.4" transform="matrix(-1 -4.486690e-11 4.486690e-11 -1 126.6623 794.7849)" fill="#EBE5E1" width="76.9" height="9.9"/>
	
		<rect x="1124.2" y="208" transform="matrix(-1 -4.489488e-11 4.489488e-11 -1 2335.3613 425.8155)" fill="#EBE5E1" width="86.9" height="9.9"/>
	
		<rect x="1124.2" y="226" transform="matrix(-1 -4.467550e-11 4.467550e-11 -1 2304.4778 461.8373)" fill="#EBE5E1" width="56" height="9.9"/>
</g>
<g id="Layer_2">
</g>
<g id="Layer_3">
</g>
</svg>
