<?xml version="1.0" encoding="utf-8"?>
<!-- Generator: Adobe Illustrator 19.2.0, SVG Export Plug-In . SVG Version: 6.00 Build 0)  -->
<svg version="1.1" id="Layer_1" xmlns="http://www.w3.org/2000/svg" xmlns:xlink="http://www.w3.org/1999/xlink" x="0px" y="0px"
	 width="1368px" height="558px" viewBox="0 0 1368 558" enable-background="new 0 0 1368 558" xml:space="preserve">
<g id="Layer_2">
</g>
<g>
	<text transform="matrix(1 0 0 1 1.5794 543.1577)" fill="#B3B3B3" font-family="'RobotoCondensed-Regular'" font-size="26px">Machine</text>
</g>
<g>
	<text transform="matrix(1 0 0 1 405.1153 542.8192)"><tspan x="0" y="0" fill="#B3B3B3" font-family="'RobotoCondensed-Regular'" font-size="26px">Envi</tspan><tspan x="42.567" y="0" fill="#B3B3B3" font-family="'RobotoCondensed-Regular'" font-size="26px">r</tspan><tspan x="50.223" y="0" fill="#B3B3B3" font-family="'RobotoCondensed-Regular'" font-size="26px">onment</tspan></text>
</g>
<g>
	<text transform="matrix(1 0 0 1 808.4697 543.1819)" fill="#B3B3B3" font-family="'RobotoCondensed-Regular'" font-size="26px">Materials</text>
</g>
<rect x="16.413" y="287.795" fill="#6C5F82" width="1160.381" height="11.235"/>
<g>
	<text transform="matrix(1 0 0 1 2.5962 22.5879)"><tspan x="0" y="0" fill="#B3B3B3" font-family="'RobotoCondensed-Regular'" font-size="26px">P</tspan><tspan x="14.244" y="0" fill="#B3B3B3" font-family="'RobotoCondensed-Regular'" font-size="26px">eople</tspan></text>
</g>
<line fill="none" stroke="#C4C4C4" stroke-miterlimit="10" x1="3.667" y1="33.646" x2="235.53" y2="33.646"/>
<line fill="none" stroke="#C4C4C4" stroke-miterlimit="10" x1="32.567" y1="97.396" x2="264.43" y2="97.396"/>
<line fill="none" stroke="#C4C4C4" stroke-miterlimit="10" x1="61.467" y1="161.147" x2="293.331" y2="161.147"/>
<line fill="none" stroke="#C4C4C4" stroke-miterlimit="10" x1="90.368" y1="224.898" x2="322.231" y2="224.898"/>
<g>
	<g>
		<polyline fill="none" stroke="#9C96AD" stroke-width="4" stroke-miterlimit="10" points="344.789,273.068 234.025,33.646 
			3.667,33.646 		"/>
		<g>
			<polygon fill="#9C96AD" points="352.615,266.232 350.816,286.094 334.513,274.607 			"/>
		</g>
	</g>
</g>
<g>
	<text transform="matrix(1 0 0 1 402.5962 22.5879)" fill="#B3B3B3" font-family="'RobotoCondensed-Regular'" font-size="26px">Method</text>
</g>
<line fill="none" stroke="#C4C4C4" stroke-miterlimit="10" x1="407.164" y1="33.646" x2="639.027" y2="33.646"/>
<line fill="none" stroke="#C4C4C4" stroke-miterlimit="10" x1="436.064" y1="97.396" x2="667.927" y2="97.396"/>
<line fill="none" stroke="#C4C4C4" stroke-miterlimit="10" x1="464.964" y1="161.147" x2="696.827" y2="161.147"/>
<line fill="none" stroke="#C4C4C4" stroke-miterlimit="10" x1="493.865" y1="224.898" x2="725.728" y2="224.898"/>
<g>
	<g>
		<polyline fill="none" stroke="#9C96AD" stroke-width="4" stroke-miterlimit="10" points="748.286,273.068 637.522,33.646 
			407.164,33.646 		"/>
		<g>
			<polygon fill="#9C96AD" points="756.112,266.232 754.312,286.094 738.01,274.607 			"/>
		</g>
	</g>
</g>
<g>
	<text transform="matrix(1 0 0 1 809.5958 22.5879)"><tspan x="0" y="0" fill="#B3B3B3" font-family="'RobotoCondensed-Regular'" font-size="26px">Measu</tspan><tspan x="68.682" y="0" fill="#B3B3B3" font-family="'RobotoCondensed-Regular'" font-size="26px">r</tspan><tspan x="76.35" y="0" fill="#B3B3B3" font-family="'RobotoCondensed-Regular'" font-size="26px">ement</tspan></text>
</g>
<line fill="none" stroke="#C4C4C4" stroke-miterlimit="10" x1="810.073" y1="33.646" x2="1041.936" y2="33.646"/>
<line fill="none" stroke="#C4C4C4" stroke-miterlimit="10" x1="838.973" y1="97.396" x2="1070.837" y2="97.396"/>
<line fill="none" stroke="#C4C4C4" stroke-miterlimit="10" x1="867.874" y1="161.147" x2="1099.737" y2="161.147"/>
<line fill="none" stroke="#C4C4C4" stroke-miterlimit="10" x1="896.774" y1="224.898" x2="1128.637" y2="224.898"/>
<g>
	<g>
		<polyline fill="none" stroke="#9C96AD" stroke-width="4" stroke-miterlimit="10" points="1151.196,273.068 1040.432,33.646 
			810.073,33.646 		"/>
		<g>
			<polygon fill="#9C96AD" points="1159.021,266.232 1157.222,286.094 1140.919,274.607 			"/>
		</g>
	</g>
</g>
<line fill="none" stroke="#C4C4C4" stroke-miterlimit="10" x1="810.303" y1="554.033" x2="1042.166" y2="554.033"/>
<line fill="none" stroke="#C4C4C4" stroke-miterlimit="10" x1="839.203" y1="490.282" x2="1071.067" y2="490.282"/>
<line fill="none" stroke="#C4C4C4" stroke-miterlimit="10" x1="868.104" y1="426.531" x2="1099.967" y2="426.531"/>
<line fill="none" stroke="#C4C4C4" stroke-miterlimit="10" x1="897.004" y1="362.781" x2="1128.867" y2="362.781"/>
<g>
	<g>
		<polyline fill="none" stroke="#9C96AD" stroke-width="4" stroke-miterlimit="10" points="1151.426,314.611 1040.662,554.033 
			810.303,554.033 		"/>
		<g>
			<polygon fill="#9C96AD" points="1141.15,313.072 1157.452,301.585 1159.252,321.446 			"/>
		</g>
	</g>
</g>
<line fill="none" stroke="#C4C4C4" stroke-miterlimit="10" x1="407.006" y1="554.033" x2="638.869" y2="554.033"/>
<line fill="none" stroke="#C4C4C4" stroke-miterlimit="10" x1="435.906" y1="490.282" x2="667.769" y2="490.282"/>
<line fill="none" stroke="#C4C4C4" stroke-miterlimit="10" x1="464.806" y1="426.531" x2="696.67" y2="426.531"/>
<line fill="none" stroke="#C4C4C4" stroke-miterlimit="10" x1="493.707" y1="362.781" x2="725.57" y2="362.781"/>
<g>
	<g>
		<polyline fill="none" stroke="#9C96AD" stroke-width="4" stroke-miterlimit="10" points="748.128,314.611 637.364,554.033 
			407.006,554.033 		"/>
		<g>
			<polygon fill="#9C96AD" points="737.852,313.072 754.155,301.585 755.954,321.446 			"/>
		</g>
	</g>
</g>
<line fill="none" stroke="#C4C4C4" stroke-miterlimit="10" x1="3.509" y1="554.033" x2="235.372" y2="554.033"/>
<line fill="none" stroke="#C4C4C4" stroke-miterlimit="10" x1="32.409" y1="490.282" x2="264.272" y2="490.282"/>
<line fill="none" stroke="#C4C4C4" stroke-miterlimit="10" x1="61.309" y1="426.531" x2="293.173" y2="426.531"/>
<line fill="none" stroke="#C4C4C4" stroke-miterlimit="10" x1="90.21" y1="362.781" x2="322.073" y2="362.781"/>
<g>
	<g>
		<polyline fill="none" stroke="#9C96AD" stroke-width="4" stroke-miterlimit="10" points="344.631,314.611 233.867,554.033 
			3.509,554.033 		"/>
		<g>
			<polygon fill="#9C96AD" points="334.355,313.072 350.658,301.585 352.457,321.446 			"/>
		</g>
	</g>
</g>
<text transform="matrix(1 0 0 1 1205.5959 286.0939)"><tspan x="0" y="0" fill="#9C96AD" font-family="'RobotoCondensed-Regular'" font-size="26px">Missed</tspan><tspan x="0" y="31.2" fill="#9C96AD" font-family="'RobotoCondensed-Regular'" font-size="26px">Deadline</tspan></text>
<polyline fill="none" stroke="#9C96AD" stroke-width="4" stroke-miterlimit="10" points="1305.285,426.105 1363,292.986 
	1305.285,160.72 "/>
<rect x="32.416" y="73.875" fill="#EBE0D4" width="54" height="13"/>
<rect x="97.416" y="73.875" fill="#EBE0D4" width="76.5" height="13"/>
<rect x="184.916" y="73.875" fill="#EBE0D4" width="40.417" height="13"/>
<rect x="90.291" y="339.333" fill="#EBE0D4" width="54" height="13"/>
<rect x="155.291" y="339.333" fill="#EBE0D4" width="86.5" height="13"/>
<rect x="252.791" y="339.333" fill="#EBE0D4" width="30.417" height="13"/>
<rect x="61.309" y="402.917" fill="#EBE0D4" width="64" height="13"/>
<rect x="136.309" y="402.917" fill="#EBE0D4" width="96.5" height="13"/>
<rect x="32.541" y="466.667" fill="#EBE0D4" width="64" height="13"/>
<rect x="107.541" y="466.667" fill="#EBE0D4" width="56.5" height="13"/>
<rect x="175.541" y="466.667" fill="#EBE0D4" width="56.5" height="13"/>
<rect x="494.269" y="339.333" fill="#EBE0D4" width="54" height="13"/>
<rect x="559.269" y="339.333" fill="#EBE0D4" width="46.5" height="13"/>
<rect x="616.769" y="339.333" fill="#EBE0D4" width="70.417" height="13"/>
<rect x="465.287" y="402.917" fill="#EBE0D4" width="64" height="13"/>
<rect x="540.287" y="402.917" fill="#EBE0D4" width="112.379" height="13"/>
<rect x="436.519" y="466.667" fill="#EBE0D4" width="64" height="13"/>
<rect x="511.519" y="466.667" fill="#EBE0D4" width="56.5" height="13"/>
<rect x="579.519" y="466.667" fill="#EBE0D4" width="39.481" height="13"/>
<rect x="61.541" y="137.625" fill="#EBE0D4" width="64" height="13"/>
<rect x="136.541" y="137.625" fill="#EBE0D4" width="39.5" height="13"/>
<rect x="187.041" y="137.625" fill="#EBE0D4" width="67.417" height="13"/>
<rect x="90.582" y="201.375" fill="#EBE0D4" width="64" height="13"/>
<rect x="165.582" y="201.375" fill="#EBE0D4" width="69.5" height="13"/>
<rect x="245.874" y="201.375" fill="#EBE0D4" width="37.959" height="13"/>
<rect x="436.065" y="73.875" fill="#EBE0D4" width="40" height="13"/>
<rect x="487.065" y="73.875" fill="#EBE0D4" width="97.5" height="13"/>
<rect x="595.565" y="73.875" fill="#EBE0D4" width="33.417" height="13"/>
<rect x="465.19" y="137.625" fill="#EBE0D4" width="54" height="13"/>
<rect x="530.19" y="137.625" fill="#EBE0D4" width="61.5" height="13"/>
<rect x="602.69" y="137.625" fill="#EBE0D4" width="55.417" height="13"/>
<rect x="494.232" y="201.375" fill="#EBE0D4" width="94" height="13"/>
<rect x="599.232" y="201.375" fill="#EBE0D4" width="79.5" height="13"/>
<rect x="897.004" y="339.167" fill="#EBE0D4" width="44" height="13"/>
<rect x="952.004" y="339.167" fill="#EBE0D4" width="93.5" height="13"/>
<rect x="1056.504" y="339.167" fill="#EBE0D4" width="33.417" height="13"/>
<rect x="868.102" y="402.917" fill="#EBE0D4" width="54" height="13"/>
<rect x="933.102" y="402.917" fill="#EBE0D4" width="29.5" height="13"/>
<rect x="973.602" y="402.917" fill="#EBE0D4" width="87.417" height="13"/>
<rect x="839.186" y="466.667" fill="#EBE0D4" width="94" height="13"/>
<rect x="944.186" y="466.667" fill="#EBE0D4" width="79.5" height="13"/>
<rect x="839.102" y="73.875" fill="#EBE0D4" width="44" height="13"/>
<rect x="894.102" y="73.875" fill="#EBE0D4" width="53.5" height="13"/>
<rect x="958.602" y="73.875" fill="#EBE0D4" width="73.417" height="13"/>
<rect x="868.227" y="137.625" fill="#EBE0D4" width="54" height="13"/>
<rect x="933.227" y="137.625" fill="#EBE0D4" width="59.5" height="13"/>
<rect x="1003.727" y="137.625" fill="#EBE0D4" width="57.417" height="13"/>
<rect x="897.269" y="201.375" fill="#EBE0D4" width="74" height="13"/>
<rect x="982.269" y="201.375" fill="#EBE0D4" width="99.5" height="13"/>
</svg>
