<svg height="256" viewBox="0 0 256 256" width="256" xmlns="http://www.w3.org/2000/svg"><path d="m253.7 246.4-120-242.8a5.2 5.2 0 0 0 -4.6-2.8 4.8 4.8 0 0 0 -4.5 2.8l-122.3 242.8a5 5 0 0 0 .2 4.9 5.3 5.3 0 0 0 4.4 2.5h242.2a5.3 5.3 0 0 0 4.4-2.5 5 5 0 0 0 .2-4.9zm-124.5-228.7h-.3l.2-.4zm-5.1 9.4v216.4h-108.9zm10 216.4v-216l106.8 216zm-12.7-161a9.2 9.2 0 1 1 -9.2-9.1 9.1 9.1 0 0 1 9.2 9.1zm36.4 6.3a9.1 9.1 0 1 1 -9.1-9.1 9.2 9.2 0 0 1 9.1 9.1zm-40.9 38.7a9.2 9.2 0 1 1 -9.1-9.1 9.2 9.2 0 0 1 9.1 9.1zm-8.3-22.5a9.2 9.2 0 1 1 -9.2-9.2 9.2 9.2 0 0 1 9.2 9.2zm60 28.9a9.1 9.1 0 1 1 -9.1-9.2 9.1 9.1 0 0 1 9.1 9.2zm33.5-48.4a9.1 9.1 0 0 1 -18.2 0 9.1 9.1 0 0 1 18.2 0zm-103.1-46.9a9.1 9.1 0 1 1 -9.1-9.1 9.1 9.1 0 0 1 9.1 9.1zm19 126.1a9.1 9.1 0 1 1 -9.1-9.1 9.2 9.2 0 0 1 9.1 9.1zm-29.4-14.8a9.1 9.1 0 1 1 -9.1-9.2 9.1 9.1 0 0 1 9.1 9.2zm80.8 18.9a9.2 9.2 0 1 1 -9.2-9.1 9.2 9.2 0 0 1 9.2 9.1zm43.5 41.3a9.2 9.2 0 1 1 -9.1-9.1 9.2 9.2 0 0 1 9.1 9.1zm-49.1-6.3a9.2 9.2 0 1 1 -9.1-9.1 9.1 9.1 0 0 1 9.1 9.1zm-76.7-1.1a9.1 9.1 0 1 1 -9.1-9.1 9.1 9.1 0 0 1 9.1 9.1z"/></svg>