<?xml version="1.0" encoding="utf-8"?>
<!-- Generator: Adobe Illustrator 22.1.0, SVG Export Plug-In . SVG Version: 6.00 Build 0)  -->
<svg version="1.1" id="Layer_1" xmlns="http://www.w3.org/2000/svg" xmlns:xlink="http://www.w3.org/1999/xlink" x="0px" y="0px"
	 viewBox="0 0 1022 1010" style="enable-background:new 0 0 1022 1010;" xml:space="preserve">
<style type="text/css">
	.st0{fill:#E0E0E0;}
	.st1{fill:#D5D5D5;}
	.st2{fill:#EDEDED;}
	.st3{enable-background:new    ;}
	.st4{fill:#6D6D6D;}
	.st5{font-family:'RobotoMono-Regular';}
	.st6{font-size:60px;}
	.st7{fill:#BABABA;}
	.st8{font-size:55.5962px;}
	.st9{fill:none;stroke:#E8E8E8;stroke-width:4.687;stroke-miterlimit:10;}
	.st10{fill:none;stroke:#BABABA;stroke-width:4.6871;stroke-miterlimit:10;}
	.st11{fill:#C1C1C1;}
	.st12{fill:#514361;}
	.st13{font-size:50px;}
	.st14{fill:none;stroke:#9E9E9E;stroke-width:4;stroke-linecap:round;stroke-miterlimit:10;stroke-dasharray:0,10;}
</style>
<g>
	<path class="st0" d="M489.7,457.4l118.8,326.4c180.3-65.6,273.3-265,207.6-445.3C765.2,198.5,638.8,110,489.7,110V457.4z"/>
	<path class="st1" d="M489.7,457.4l-342.1-60.3C114.3,586,240.5,766.2,429.4,799.5c62.9,11.1,119.1,6.2,179.1-15.7L489.7,457.4z"/>
	<path class="st2" d="M489.7,457.4V110c-170.4,0-312.5,119.3-342.1,287.1L489.7,457.4z"/>
	<g>
		<text transform="matrix(1 0 0 1 375.385 575.6793)" class="st3"><tspan x="0" y="0" class="st4 st5 st6">1</tspan><tspan x="0" y="45" class="st4 st5 st6">-</tspan><tspan x="0" y="90" class="st4 st5 st6">3</tspan></text>
	</g>
	<g>
		<text transform="matrix(1 0 0 1 623.5911 458.6021)" class="st4 st5 st6">45%</text>
	</g>
	<g>
		<text transform="matrix(1 0 0 1 69.1978 772.8639)" class="st7 st5 st8">120</text>
	</g>
	<g>
		<text transform="matrix(1 0 0 1 878.6426 302.1163)" class="st7 st5 st8">160</text>
	</g>
	<g>
		<g>
			<path class="st9" d="M489.1,65.9c216.5,0,392,175.5,392,392c0,158.9-94.6,295.8-230.6,357.3"/>
			<g>
				<polygon class="st7" points="648.2,794.9 624.6,825.7 663.1,830.7 				"/>
			</g>
		</g>
	</g>
	<g>
		<g>
			<path class="st9" d="M624.6,825.7c-42.2,15.6-87.9,24.1-135.5,24.1c-216.5,0-392-175.5-392-392c0-14.1,0.7-28,2.2-41.7"/>
			<g>
				<polygon class="st7" points="118,424.4 103.3,388.5 79.5,419.3 				"/>
			</g>
		</g>
	</g>
	<circle class="st10" cx="981.6" cy="253" r="5.6"/>
	<circle class="st10" cx="173" cy="726.5" r="5.6"/>
	<line class="st10" x1="123.6" y1="392.3" x2="82.1" y2="384.8"/>
	<line class="st10" x1="492.7" y1="87" x2="493.1" y2="44.9"/>
	<line class="st10" x1="631.7" y1="845.4" x2="617.5" y2="805.7"/>
</g>
<g>
	<g>
		<g>
			<g class="st3">
				<path class="st11" d="M369,865.5c0,1.8-0.1,3.6-0.1,5.3c2.8,0.7,5.6,1.3,8.4,1.9c0,1,0,1.9-0.1,2.9c-2.8-0.6-5.6-1.3-8.4-1.9
					c-0.1,4-0.2,8-0.3,12c0,0.9,0.1,1.6,0.3,2.2c0.2,0.6,0.5,1.1,0.9,1.5c0.4,0.4,0.8,0.8,1.3,1c0.5,0.3,1,0.4,1.6,0.6
					c0.4,0.1,0.8,0.2,1.3,0.2c0.4,0.1,0.9,0.1,1.3,0.1c0.4,0,0.8,0,1.2,0c0.4,0,0.7,0,0.9,0c0.2,0.9,0.3,1.9,0.5,2.8
					c-0.3,0.1-0.7,0.2-1.2,0.2c-0.5,0-0.9,0.1-1.5,0c-0.5,0-1.1-0.1-1.7-0.1c-0.6-0.1-1.2-0.2-1.8-0.3c-1-0.2-1.9-0.6-2.7-1.1
					c-0.8-0.5-1.6-1.1-2.2-1.8c-0.6-0.8-1.1-1.7-1.4-2.7c-0.3-1-0.5-2.2-0.5-3.6c0.1-4,0.2-8,0.3-12c-1.9-0.5-3.8-0.9-5.8-1.4
					c0-1,0-1.9,0.1-2.9c1.9,0.5,3.8,0.9,5.8,1.4c0-1.8,0.1-3.6,0.1-5.3C366.5,864.9,367.7,865.2,369,865.5z"/>
				<path class="st11" d="M383.6,885c0-1.6,0.3-3,0.8-4.3c0.5-1.3,1.2-2.3,2.1-3.1c0.9-0.8,2-1.4,3.2-1.7c1.3-0.3,2.7-0.3,4.2,0
					c1.6,0.3,3,0.9,4.2,1.7c1.2,0.8,2.3,1.8,3.1,3c0.8,1.2,1.5,2.5,1.9,3.9c0.4,1.5,0.6,3,0.6,4.6c0,0.1,0,0.3,0,0.4
					c0,1.6-0.3,3-0.8,4.3c-0.5,1.3-1.2,2.3-2.1,3.2c-0.9,0.8-2,1.4-3.2,1.8c-1.3,0.3-2.7,0.4-4.2,0.1c-1.6-0.3-3-0.9-4.2-1.7
					c-1.2-0.8-2.3-1.8-3.1-3c-0.8-1.2-1.5-2.5-1.9-4c-0.4-1.5-0.6-3-0.6-4.6C383.6,885.3,383.6,885.2,383.6,885z M387.4,886.3
					c0,1.1,0.1,2.2,0.3,3.2c0.2,1,0.6,2,1.1,2.8c0.5,0.9,1.1,1.6,1.9,2.2c0.8,0.6,1.7,1,2.7,1.2c1,0.2,1.9,0.2,2.7-0.1
					c0.8-0.3,1.5-0.8,2-1.4c0.5-0.6,1-1.4,1.2-2.4c0.3-0.9,0.4-2,0.5-3c0-0.1,0-0.3,0-0.4c0-1.1-0.1-2.1-0.3-3.2
					c-0.2-1-0.6-2-1.1-2.8c-0.5-0.8-1.1-1.6-1.9-2.2c-0.8-0.6-1.7-1-2.7-1.2c-1-0.2-2-0.2-2.8,0.1c-0.8,0.3-1.4,0.8-2,1.4
					c-0.5,0.6-1,1.4-1.2,2.4c-0.3,0.9-0.4,1.9-0.5,3C387.4,886,387.4,886.1,387.4,886.3z"/>
				<path class="st11" d="M419.1,875.3c0,1.8-0.1,3.6-0.1,5.4c2.8,0.4,5.6,0.9,8.4,1.3c0,1,0,1.9-0.1,2.9c-2.8-0.4-5.6-0.8-8.4-1.3
					c-0.1,4-0.2,8-0.3,12c0,0.9,0.1,1.6,0.3,2.2c0.2,0.6,0.5,1.1,0.9,1.5c0.4,0.4,0.8,0.7,1.3,0.9c0.5,0.2,1,0.4,1.6,0.4
					c0.4,0.1,0.8,0.1,1.3,0.1c0.4,0,0.9,0,1.3,0c0.4,0,0.8,0,1.2,0c0.4,0,0.7,0,0.9-0.1c0.2,0.9,0.3,1.8,0.5,2.8
					c-0.3,0.1-0.7,0.3-1.2,0.3c-0.5,0.1-1,0.1-1.5,0.2c-0.5,0-1.1,0-1.7,0c-0.6,0-1.2-0.1-1.8-0.2c-1-0.2-1.9-0.4-2.7-0.8
					c-0.8-0.4-1.6-1-2.2-1.7c-0.6-0.7-1.1-1.6-1.4-2.6c-0.3-1-0.5-2.2-0.5-3.6c0.1-4,0.2-8,0.3-12c-1.9-0.3-3.9-0.6-5.8-1
					c0-1,0-1.9,0.1-2.9c1.9,0.3,3.9,0.7,5.8,1c0-1.8,0.1-3.6,0.1-5.4C416.6,874.9,417.9,875.1,419.1,875.3z"/>
				<path class="st11" d="M449.3,906.9c-0.1-0.3-0.3-0.7-0.3-1.1c-0.1-0.4-0.1-0.9-0.2-1.4c-0.4,0.3-0.8,0.7-1.3,0.9
					c-0.5,0.3-1,0.5-1.6,0.7c-0.6,0.2-1.2,0.3-1.8,0.4c-0.6,0.1-1.3,0.1-2.1,0c-1.2-0.1-2.2-0.4-3.2-0.9c-0.9-0.5-1.7-1-2.4-1.7
					c-0.6-0.7-1.1-1.4-1.5-2.3c-0.3-0.8-0.5-1.7-0.5-2.7c0-1.2,0.3-2.2,0.8-3.1c0.5-0.8,1.2-1.5,2.1-2c0.9-0.5,2-0.8,3.2-1
					c1.3-0.1,2.7-0.1,4.2,0.1c1.4,0.2,2.8,0.3,4.2,0.5c0-0.6,0-1.2,0-1.7c0-0.7-0.1-1.3-0.3-1.8c-0.2-0.6-0.6-1.1-1-1.5
					c-0.4-0.4-1-0.8-1.6-1.1c-0.6-0.3-1.4-0.5-2.2-0.6c-0.8-0.1-1.4-0.1-2,0c-0.6,0.1-1.1,0.3-1.5,0.6c-0.4,0.3-0.7,0.6-1,1
					c-0.2,0.4-0.4,0.8-0.4,1.3c-1.3-0.2-2.5-0.3-3.8-0.5c0-0.8,0.3-1.6,0.7-2.3c0.4-0.7,1-1.3,1.8-1.9c0.8-0.5,1.7-0.9,2.8-1.2
					c1.1-0.2,2.3-0.3,3.7-0.1c1.3,0.2,2.4,0.4,3.5,0.9c1.1,0.4,2,1,2.8,1.7c0.8,0.7,1.4,1.5,1.8,2.5c0.4,1,0.6,2.1,0.6,3.3
					c-0.1,3.4-0.2,6.9-0.3,10.3c0,0.7,0,1.5,0.1,2.4c0.1,0.8,0.3,1.6,0.5,2.2c0,0.1,0,0.2,0,0.3
					C451.9,907.2,450.6,907.1,449.3,906.9z M442.6,903.2c0.7,0.1,1.4,0.1,2.1,0c0.6-0.1,1.2-0.3,1.8-0.6c0.5-0.3,1-0.6,1.4-0.9
					c0.4-0.4,0.7-0.7,0.9-1.2c0-1.5,0.1-3,0.1-4.5c-1.2-0.1-2.4-0.3-3.5-0.4c-2.2-0.3-4-0.1-5.2,0.4c-1.2,0.5-1.9,1.4-1.9,2.9
					c0,0.5,0.1,1.1,0.2,1.5c0.2,0.5,0.4,0.9,0.8,1.3c0.4,0.4,0.8,0.7,1.4,1C441.2,903,441.9,903.2,442.6,903.2z"/>
				<path class="st11" d="M461.3,876.6c3.8,0.4,7.6,0.7,11.4,1c-0.2,9.4-0.5,18.8-0.7,28.2c2.4,0.2,4.8,0.4,7.3,0.5
					c0,1.1-0.1,2.2-0.1,3.3c-6.2-0.4-12.4-0.9-18.7-1.5c0-1.1,0.1-2.2,0.1-3.3c2.5,0.2,5.1,0.5,7.6,0.7c0.2-8.3,0.4-16.6,0.6-24.9
					c-2.5-0.2-5.1-0.4-7.6-0.7C461.3,878.8,461.3,877.7,461.3,876.6z"/>
				<path class="st11" d="M529.2,903.7c-6.1,0-12.3,0-18.4-0.1c0-1.1,0.1-2.2,0.1-3.3c6.1,0.1,12.3,0.2,18.4,0.1
					C529.2,901.5,529.2,902.6,529.2,903.7z M529.4,895.2c-6.1,0-12.3,0-18.4-0.1c0-1.1,0.1-2.2,0.1-3.3c6.1,0.1,12.3,0.2,18.4,0.1
					C529.5,892.9,529.4,894,529.4,895.2z"/>
				<path class="st11" d="M573.6,909.5c-1.3,0.1-2.5,0.2-3.8,0.3c0.2-8.4,0.4-16.7,0.6-25.1c-2.6,1.2-5.3,2.3-7.9,3.5
					c0-1.2,0.1-2.3,0.1-3.5c3.8-1.7,7.6-3.3,11.4-5.1c0.1,0,0.2,0,0.3,0C574.1,889.5,573.9,899.5,573.6,909.5z"/>
				<path class="st11" d="M605.5,895c0,1.9-0.3,3.6-0.8,5.2c-0.5,1.5-1.1,2.8-2,3.9c-0.8,1.1-1.9,2-3.1,2.6
					c-1.2,0.7-2.6,1.1-4.1,1.2c-1.5,0.2-2.9,0-4.1-0.4c-1.2-0.4-2.2-1.1-3-2c-0.8-0.9-1.4-2.1-1.8-3.5c-0.4-1.4-0.6-3.1-0.5-5
					c0.1-2.3,0.1-4.7,0.2-7c0-1.9,0.3-3.6,0.8-5.1c0.5-1.5,1.1-2.8,2-3.9c0.9-1.1,1.9-2,3.1-2.6s2.6-1,4.1-1.2
					c1.5-0.2,2.9,0,4.1,0.4c1.2,0.4,2.2,1.1,3,2c0.8,0.9,1.4,2.1,1.8,3.5c0.4,1.4,0.6,3.1,0.5,5C605.7,890.3,605.6,892.7,605.5,895z
					 M590.1,895.9c4-3.4,7.9-6.7,11.8-10.2c-0.2-2-0.7-3.4-1.6-4.3c-0.9-0.9-2.2-1.3-4-1.1c-2,0.2-3.5,1-4.5,2.5
					c-1,1.4-1.5,3.5-1.6,6C590.2,891.2,590.1,893.5,590.1,895.9z M601.9,889.4c-3.9,3.4-7.9,6.8-11.8,10.1c0.2,1.9,0.7,3.3,1.7,4.2
					c0.9,0.9,2.3,1.3,4,1.1c2-0.2,3.5-1.1,4.5-2.5c1-1.5,1.5-3.5,1.6-6.1C601.8,894,601.8,891.7,601.9,889.4z"/>
				<path class="st11" d="M630.6,891.6c0,1.9-0.3,3.6-0.8,5.2c-0.5,1.5-1.1,2.9-2,4c-0.8,1.1-1.9,2.1-3.1,2.7
					c-1.2,0.7-2.6,1.2-4.1,1.4c-1.5,0.2-2.9,0.1-4-0.2c-1.2-0.4-2.2-1-3-1.9c-0.8-0.9-1.4-2.1-1.8-3.5c-0.4-1.4-0.6-3.1-0.5-5
					c0.1-2.3,0.1-4.7,0.2-7c0-1.9,0.3-3.6,0.8-5.2c0.5-1.5,1.1-2.9,2-4c0.8-1.1,1.9-2,3.1-2.7c1.2-0.7,2.6-1.1,4.1-1.4
					c1.5-0.2,2.9-0.2,4,0.2c1.2,0.4,2.2,1,3,1.9c0.8,0.9,1.4,2,1.8,3.4c0.4,1.4,0.6,3.1,0.5,5C630.8,886.9,630.7,889.2,630.6,891.6z
					 M615.2,893c3.9-3.5,7.9-7,11.8-10.6c-0.2-2-0.7-3.4-1.6-4.3c-0.9-0.9-2.2-1.2-4-1c-2,0.3-3.5,1.2-4.5,2.6
					c-1,1.5-1.5,3.5-1.6,6.1C615.3,888.3,615.3,890.7,615.2,893z M627,886.1c-3.9,3.6-7.8,7.1-11.8,10.6c0.2,1.9,0.7,3.3,1.7,4.2
					c0.9,0.9,2.2,1.2,3.9,1c2-0.3,3.5-1.2,4.4-2.7c1-1.5,1.5-3.6,1.5-6.1C626.9,890.7,627,888.4,627,886.1z"/>
				<path class="st11" d="M634.7,877.8c0-0.8,0.2-1.5,0.4-2.3c0.3-0.7,0.6-1.4,1.1-2c0.5-0.6,1-1.1,1.7-1.5c0.7-0.4,1.5-0.7,2.4-0.9
					c0.9-0.2,1.7-0.1,2.4,0.1c0.7,0.2,1.2,0.5,1.7,1c0.4,0.5,0.8,1,1,1.7c0.2,0.7,0.3,1.4,0.3,2.2c0,0.5,0,1.1,0,1.6
					c0,0.8-0.2,1.5-0.4,2.3c-0.3,0.7-0.6,1.4-1.1,2c-0.5,0.6-1,1.1-1.7,1.6c-0.7,0.4-1.5,0.7-2.3,0.9c-0.9,0.2-1.7,0.1-2.3-0.1
					c-0.7-0.2-1.2-0.5-1.7-1c-0.4-0.5-0.8-1-1-1.7c-0.2-0.7-0.3-1.4-0.3-2.2C634.7,878.9,634.7,878.4,634.7,877.8z M637.5,879
					c0,0.4,0,0.8,0.1,1.2c0.1,0.4,0.2,0.7,0.4,1c0.2,0.3,0.5,0.5,0.8,0.6c0.3,0.1,0.7,0.2,1.2,0.1c0.5-0.1,0.9-0.2,1.2-0.5
					c0.3-0.2,0.6-0.5,0.8-0.9c0.2-0.3,0.4-0.7,0.5-1.1c0.1-0.4,0.2-0.8,0.2-1.3c0-0.5,0-1.1,0-1.6c0-0.4,0-0.8-0.1-1.2
					c-0.1-0.4-0.2-0.7-0.4-1c-0.2-0.3-0.5-0.5-0.8-0.6c-0.3-0.1-0.7-0.1-1.2-0.1c-0.5,0.1-0.9,0.2-1.2,0.5c-0.3,0.2-0.6,0.5-0.8,0.9
					c-0.2,0.3-0.4,0.7-0.5,1.1c-0.1,0.4-0.2,0.8-0.2,1.3C637.5,877.9,637.5,878.4,637.5,879z M641.4,897.3c-0.7-0.3-1.5-0.6-2.2-0.9
					c4-7.8,8-15.6,12-23.4c0.7,0.3,1.5,0.6,2.2,0.9C649.5,881.7,645.4,889.6,641.4,897.3z M646.5,893.4c0-0.8,0.2-1.5,0.4-2.3
					c0.3-0.7,0.6-1.4,1.1-2c0.5-0.6,1.1-1.1,1.7-1.6c0.7-0.4,1.5-0.7,2.3-0.9c0.9-0.2,1.7-0.2,2.3,0c0.7,0.2,1.2,0.5,1.7,0.9
					c0.4,0.4,0.8,1,1,1.7c0.2,0.7,0.3,1.4,0.3,2.2c0,0.5,0,1.1,0,1.6c0,0.8-0.2,1.5-0.4,2.3c-0.3,0.7-0.6,1.4-1.1,2.1
					c-0.5,0.6-1,1.1-1.7,1.6c-0.7,0.4-1.5,0.7-2.3,0.9c-0.9,0.2-1.7,0.2-2.4,0c-0.7-0.2-1.2-0.5-1.7-0.9c-0.4-0.4-0.8-1-1-1.7
					c-0.2-0.7-0.3-1.4-0.3-2.2C646.5,894.4,646.5,893.9,646.5,893.4z M649.3,894.5c0,0.4,0,0.8,0.1,1.2c0.1,0.4,0.2,0.7,0.4,1
					c0.2,0.3,0.5,0.5,0.8,0.6c0.3,0.1,0.7,0.1,1.2,0c0.5-0.1,0.9-0.3,1.2-0.5c0.3-0.3,0.6-0.5,0.8-0.9c0.2-0.3,0.4-0.7,0.5-1.1
					c0.1-0.4,0.2-0.8,0.2-1.3c0-0.5,0-1.1,0-1.6c0-0.4,0-0.8-0.1-1.2c-0.1-0.4-0.2-0.7-0.4-1c-0.2-0.3-0.5-0.5-0.8-0.6
					c-0.3-0.1-0.7-0.1-1.2,0c-0.5,0.1-0.9,0.3-1.2,0.5c-0.3,0.2-0.6,0.5-0.8,0.9c-0.2,0.3-0.4,0.7-0.5,1.1c-0.1,0.4-0.2,0.8-0.2,1.3
					C649.3,893.4,649.3,893.9,649.3,894.5z"/>
			</g>
		</g>
	</g>
</g>
<g>
	<g>
		<text transform="matrix(1 0 0 1 770.6449 887.1074)" class="st12 st5 st13">segment</text>
	</g>
</g>
<g>
	<g>
		<text transform="matrix(1 0 0 1 919.6376 440.55)" class="st12 st5 st13">arc</text>
	</g>
</g>
<g>
	<g>
		<text transform="matrix(1 0 0 1 707.1567 98.0001)" class="st12 st5 st13">percentage</text>
	</g>
</g>
<line class="st14" x1="685.1" y1="611" x2="781.6" y2="839.2"/>
<g>
	<g>
		<text transform="matrix(1 0 0 1 38.3795 887.1074)" class="st12 st5 st13">fraction</text>
	</g>
</g>
<line class="st14" x1="389" y1="686" x2="281.7" y2="839.7"/>
<line class="st14" x1="687.1" y1="390.5" x2="858.3" y2="110"/>
<line class="st14" x1="929" y1="321" x2="963" y2="392.3"/>
</svg>
