<?xml version="1.0" encoding="utf-8"?>
<!-- Generator: Adobe Illustrator 22.1.0, SVG Export Plug-In . SVG Version: 6.00 Build 0)  -->
<svg version="1.1" id="Layer_1" xmlns="http://www.w3.org/2000/svg" xmlns:xlink="http://www.w3.org/1999/xlink" x="0px" y="0px"
	 viewBox="0 0 1022 1010" style="enable-background:new 0 0 1022 1010;" xml:space="preserve">
<style type="text/css">
	.st0{fill:#E3E3E3;}
	.st1{fill:#D5D5D5;}
	.st2{fill:#BABABA;}
	.st3{fill:#6D6D6D;}
	.st4{font-family:'RobotoMono-Regular';}
	.st5{font-size:60px;}
	.st6{font-size:55.5962px;}
	.st7{fill:none;stroke:#BABABA;stroke-width:4.687;stroke-miterlimit:10;}
	.st8{fill:none;stroke:#BABABA;stroke-width:4.6871;stroke-miterlimit:10;}
	.st9{fill:#514361;}
	.st10{font-size:50px;}
</style>
<g>
	<path class="st0" d="M489.7,457.4l118.8,326.4c180.3-65.6,273.3-265,207.6-445.3C765.2,198.5,638.8,110,489.7,110V457.4z"/>
	<path class="st1" d="M489.7,457.4l-342.1-60.3C114.3,586,240.5,766.2,429.4,799.5c62.9,11.1,119.1,6.2,179.1-15.7L489.7,457.4z"/>
	<path class="st2" d="M489.7,457.4V110c-170.4,0-312.5,119.3-342.1,287.1L489.7,457.4z"/>
	<g>
		<text transform="matrix(1 0 0 1 345.9092 372.5992)" class="st3 st4 st5">22%</text>
	</g>
	<g>
		<text transform="matrix(1 0 0 1 375.1709 557.6793)" class="st3 st4 st5">33%</text>
	</g>
	<g>
		<text transform="matrix(1 0 0 1 551.248 448.8663)" class="st3 st4 st5">45%</text>
	</g>
	<g>
		<text transform="matrix(1 0 0 1 142.9566 165.9044)" class="st2 st4 st6">80</text>
	</g>
	<g>
		<text transform="matrix(1 0 0 1 69.1978 772.8639)" class="st2 st4 st6">120</text>
	</g>
	<g>
		<text transform="matrix(1 0 0 1 878.6426 302.1163)" class="st2 st4 st6">160</text>
	</g>
	<g>
		<g>
			<path class="st7" d="M489.1,65.9c216.5,0,392,175.5,392,392c0,158.9-94.6,295.8-230.6,357.3"/>
			<g>
				<polygon class="st2" points="648.2,794.9 624.6,825.7 663.1,830.7 				"/>
			</g>
		</g>
	</g>
	<g>
		<g>
			<path class="st7" d="M624.6,825.7c-42.2,15.6-87.9,24.1-135.5,24.1c-216.5,0-392-175.5-392-392c0-14.1,0.7-28,2.2-41.7"/>
			<g>
				<polygon class="st2" points="118,424.4 103.3,388.5 79.5,419.3 				"/>
			</g>
		</g>
	</g>
	<g>
		<g>
			<path class="st7" d="M103.3,388.5C134.4,214.1,281,79.6,461.2,66.9"/>
			<g>
				<polygon class="st2" points="456.4,86.7 489.1,65.9 454.7,47.9 				"/>
			</g>
		</g>
	</g>
	<circle class="st8" cx="210.6" cy="116.8" r="5.6"/>
	<circle class="st8" cx="981.6" cy="253" r="5.6"/>
	<circle class="st8" cx="173" cy="726.5" r="5.6"/>
	<line class="st8" x1="123.6" y1="392.3" x2="82.1" y2="384.8"/>
	<line class="st8" x1="487.7" y1="87" x2="488.1" y2="44.9"/>
	<line class="st8" x1="631.7" y1="845.4" x2="617.5" y2="805.7"/>
</g>
<g>
	<g>
		<text transform="matrix(1 0 0 1 348.1378 987.1381)" class="st9 st4 st10">total = 100%</text>
	</g>
</g>
</svg>
