<?xml version="1.0" encoding="utf-8"?>
<!-- Generator: Adobe Illustrator 22.1.0, SVG Export Plug-In . SVG Version: 6.00 Build 0)  -->
<svg version="1.1" id="Layer_2" xmlns="http://www.w3.org/2000/svg" xmlns:xlink="http://www.w3.org/1999/xlink" x="0px" y="0px"
	 viewBox="0 0 1268 418" style="enable-background:new 0 0 1268 418;" xml:space="preserve">
<style type="text/css">
	.st0{fill:#948EAD;}
	.st1{fill:#DFD9E8;}
	.st2{fill:#FFFFFF;}
	.st3{font-family:'RobotoCondensed-Regular';}
	.st4{font-size:16.4674px;}
	.st5{font-size:15.7829px;}
</style>
<g>
	<path class="st0" d="M102.9,95.2V2.6c51.2,0,92.7,41.5,92.7,92.7l0,0H102.9z"/>
	<path class="st1" d="M102.9,95.2h92.7c0,51.2-41.5,92.7-92.7,92.7s-92.7-41.5-92.7-92.7S51.8,2.6,102.9,2.6l0,0V95.2z"/>
</g>
<g>
	<path class="st0" d="M362.3,95.2V2.6c51.2,0,92.7,41.5,92.7,92.7c0,20.5-5.7,37.9-17.7,54.5L362.3,95.2z"/>
	<path class="st1" d="M362.3,95.2l75,54.5c-30.1,41.4-88,50.6-129.4,20.5s-50.6-88-20.5-129.4c18-24.8,44.3-38.2,75-38.2V95.2z"/>
</g>
<g>
	<path class="st1" d="M881,95.2V2.6c-51.2,0-92.7,41.5-92.7,92.7c0,20.5,5.7,37.9,17.7,54.5L881,95.2z"/>
	<path class="st0" d="M881,95.2l-75,54.5c30.1,41.4,88,50.6,129.4,20.5s50.6-88,20.5-129.4c-18-24.8-44.3-38.2-75-38.2V95.2z"/>
</g>
<g>
	<path class="st0" d="M621.7,95.2V2.6c51.2,0,92.7,41.5,92.7,92.7s-41.5,92.7-92.7,92.7l0,0V95.2z"/>
	<path class="st1" d="M621.7,95.2v92.7c-51.2,0-92.7-41.5-92.7-92.7s41.5-92.7,92.7-92.7l0,0V95.2z"/>
</g>
<g>
	<path class="st0" d="M1140.4,95.2V2.6c51.2,0,92.7,41.5,92.7,92.7s-41.5,92.7-92.7,92.7c-51.2,0-92.7-41.5-92.7-92.7l0,0H1140.4z"
		/>
	<path class="st1" d="M1140.4,95.2h-92.7c0-51.2,41.5-92.7,92.7-92.7l0,0V95.2z"/>
</g>
<g>
	<path class="st0" d="M103,321v-92.7c10.2,0,18.9,1.4,28.6,4.5L103,321z"/>
	<path class="st1" d="M103,321l28.6-88.1c48.7,15.8,75.3,68.1,59.5,116.8S123,425,74.3,409.2C25.7,393.4-1,341.1,14.8,292.4
		c12.7-38.9,47.2-64,88.1-64V321z"/>
</g>
<g>
	<path class="st1" d="M1140.4,321v-92.7c10.2,0,18.9,1.4,28.6,4.5L1140.4,321z"/>
	<path class="st0" d="M1140.4,321l28.6-88.1c48.7,15.8,75.3,68.1,59.5,116.8s-68.1,75.3-116.8,59.5c-48.7-15.8-75.3-68.1-59.5-116.8
		c12.7-38.9,47.2-64,88.1-64V321z"/>
</g>
<g>
	<path class="st0" d="M362.3,321v-92.7c20.5,0,37.9,5.7,54.5,17.7L362.3,321z"/>
	<path class="st1" d="M362.3,321l54.5-75c41.4,30.1,50.6,88,20.5,129.4s-88,50.6-129.4,20.5s-50.6-88-20.5-129.4
		c18-24.8,44.3-38.2,75-38.2V321z"/>
</g>
<g>
	<path class="st0" d="M621.7,321v-92.7c40.9,0,75.5,25.1,88.1,64L621.7,321z"/>
	<path class="st1" d="M621.7,321l88.1-28.6c15.8,48.7-10.8,101-59.5,116.8c-48.7,15.8-101-10.8-116.8-59.5
		c-15.8-48.7,10.8-101,59.5-116.8c9.7-3.2,18.4-4.5,28.6-4.5V321z"/>
</g>
<g>
	<path class="st0" d="M881,321v-92.7c51.2,0,92.7,41.5,92.7,92.7c0,10.2-1.4,18.9-4.5,28.6L881,321z"/>
	<path class="st1" d="M881,321l88.1,28.6c-15.8,48.7-68.1,75.3-116.8,59.5c-48.7-15.8-75.3-68.1-59.5-116.8
		c12.7-38.9,47.2-64,88.1-64V321z"/>
</g>
<g id="Layer_1">
	<g id="Layer_2_1_">
	</g>
	<g id="Layer_3">
	</g>
	<g>
		<g>
		</g>
		<g>
		</g>
		<g>
		</g>
		<g>
		</g>
	</g>
	<g>
		<g>
		</g>
		<g>
		</g>
		<g>
		</g>
		<g>
		</g>
	</g>
	<g>
		<g>
		</g>
		<g>
		</g>
		<g>
		</g>
		<g>
		</g>
	</g>
	<g>
		<text transform="matrix(1 0 0 1 131.441 69.1403)" class="st2 st3 st4">25</text>
	</g>
	<g>
		<text transform="matrix(1 0 0 1 909.4965 122.0948)" class="st2 st3 st5">65</text>
		<text transform="matrix(1 0 0 1 1162.9646 122.0948)" class="st2 st3 st5">75</text>
	</g>
	<g>
		<g>
		</g>
		<g>
		</g>
	</g>
	<g>
		<g>
		</g>
		<g>
		</g>
	</g>
	<g>
		<g>
		</g>
		<g>
		</g>
	</g>
	<g>
		<g>
		</g>
		<g>
		</g>
	</g>
	<g>
		<g>
		</g>
		<g>
		</g>
	</g>
	<g>
		<text transform="matrix(1 0 0 1 109.3975 261.2044)" class="st2 st3 st5">5</text>
	</g>
	<g>
		<text transform="matrix(1 0 0 1 1132.5957 368.5378)" class="st2 st3 st5">95</text>
	</g>
	<g>
		<text transform="matrix(1 0 0 1 373.3949 261.2042)" class="st2 st3 st5">10</text>
		<text transform="matrix(1 0 0 1 643.5162 280.2042)" class="st2 st3 st5">20</text>
	</g>
	<g>
		<text transform="matrix(1 0 0 1 919.5798 302.8398)" class="st2 st3 st5">30</text>
		<text transform="matrix(1 0 0 1 650.7982 103.6353)" class="st2 st3 st5">50</text>
		<text transform="matrix(1 0 0 1 397.8558 76.1408)" class="st2 st3 st5">35</text>
	</g>
	<g>
		<g>
		</g>
		<g>
		</g>
	</g>
</g>
</svg>
