<?xml version="1.0" encoding="utf-8"?>
<!-- Generator: Adobe Illustrator 22.1.0, SVG Export Plug-In . SVG Version: 6.00 Build 0)  -->
<svg version="1.1" xmlns="http://www.w3.org/2000/svg" xmlns:xlink="http://www.w3.org/1999/xlink" x="0px" y="0px"
	 viewBox="0 0 1268 418" enable-background="new 0 0 1268 418" xml:space="preserve">
<g id="Layer_1">
	<path fill="#A9A1B6" d="M348.4,2c-44.7,0.3-82.6,12.6-119,38.7l119,163.7V2z"/>
	<path fill="#CCC3D9" d="M227,42.4c-72.6,53.5-101.8,143.2-74.5,229.2l109.3-35.5l85.6-27.8L329,182.8L227,42.4z"/>
	<path fill="#F3D0AA" d="M308.2,224.2l-154.7,50.3c7,21.2,15.7,38.1,28.9,56.3c66.8,92,195.7,112.7,288,46.7l-28.5-39.3l-92.5-127.3
		L308.2,224.2z"/>
	<path fill="#DFD9E8" d="M472.8,375.6c55-40.5,84.1-98.1,84.1-166.6C557,95.4,464.9,2.8,351.4,2v206.5l45.5,62.6L472.8,375.6z"/>
	<g opacity="0.2">
		<text transform="matrix(1 0 0 1 439.5598 195.5654)" font-family="'RobotoCondensed-Regular'" font-size="26px">40</text>
	</g>
	<g opacity="0.2">
		<text transform="matrix(1 0 0 1 295.6359 333.5805)" font-family="'RobotoCondensed-Regular'" font-size="26px">30</text>
	</g>
	<g opacity="0.2">
		<text transform="matrix(1 0 0 1 211.9064 183.1082)" font-family="'RobotoCondensed-Regular'" font-size="26px">20</text>
	</g>
	<g opacity="0.2">
		<text transform="matrix(1 0 0 1 286.1076 91.7485)" font-family="'RobotoCondensed-Regular'" font-size="26px">10</text>
	</g>
	<g>
		<path fill="#E7D7D4" d="M879.5,1.8C845.2,2,815,9.5,784.7,25.4l50.6,95.2c13.3-6.9,28.3-10.8,44.2-11V1.8z"/>
		<path fill="#A697A6" d="M833.1,121.8l-14.5-27.3l-36.1-67.8c-38.4,20.6-65.6,48.4-85.6,87.1l96,48.9
			C802,145.4,816,131.2,833.1,121.8z"/>
		<path fill="#AEA5BF" d="M791.8,164.9l-96-48.9c-29.5,58.6-30,123.3-1.6,182.5l96.9-47.2c-6.1-12.8-9.5-27.2-9.5-42.4
			C781.5,193,785.2,178.1,791.8,164.9z"/>
		<path fill="#C6BFCF" d="M792.1,253.4l-96.9,47.2c34.8,70.3,102.2,113.3,180.6,115.1l1.9-107.8C840.3,306.9,808,285,792.1,253.4z"
			/>
		<path fill="#D7C8C5" d="M880.7,308c-0.2,0-0.3,0-0.5,0l-1.9,107.8c0.8,0,1.6,0,2.5,0c94.9,0,176.9-63.5,200.4-155.7L976.7,234
			C965.6,276.6,926.8,308,880.7,308z"/>
		<path fill="#FEDEB8" d="M980,208.8c0,7.8-0.9,15.5-2.6,22.8l104.6,26.1c4.3-17.6,5.8-30.5,5.8-48.9c0-113.7-92.2-206.3-205.7-207
			v107.8C936.2,110.3,980,154.4,980,208.8z"/>
		<g opacity="0.2">
			<text transform="matrix(1 0 0 1 979.8418 132.2021)" font-family="'RobotoCondensed-Regular'" font-size="26px">30</text>
		</g>
		<g opacity="0.2">
			<text transform="matrix(1 0 0 1 954.9523 334.5901)" font-family="'RobotoCondensed-Regular'" font-size="26px">22</text>
		</g>
		<g opacity="0.2">
			<text transform="matrix(1 0 0 1 791.7653 343.9234)" font-family="'RobotoCondensed-Regular'" font-size="26px">18</text>
		</g>
		<g opacity="0.2">
			<text transform="matrix(1 0 0 1 720.432 219.2567)" font-family="'RobotoCondensed-Regular'" font-size="26px">15</text>
		</g>
		<g opacity="0.2">
			<text transform="matrix(1 0 0 1 757.5126 115.949)" font-family="'RobotoCondensed-Regular'" font-size="26px">11</text>
		</g>
		<g opacity="0.2">
			<text transform="matrix(1 0 0 1 838.4888 74.6157)" font-family="'RobotoCondensed-Regular'" font-size="26px">8</text>
		</g>
	</g>
</g>
<g id="Layer_2">
</g>
<g id="Layer_3">
</g>
</svg>
