<?xml version="1.0" encoding="utf-8"?>
<!-- Generator: Adobe Illustrator 19.2.0, SVG Export Plug-In . SVG Version: 6.00 Build 0)  -->
<svg version="1.1" id="Layer_1" xmlns="http://www.w3.org/2000/svg" xmlns:xlink="http://www.w3.org/1999/xlink" x="0px" y="0px"
	 width="1268px" height="558px" viewBox="0 0 1268 558" enable-background="new 0 0 1268 558" xml:space="preserve">
<g id="Layer_2">
</g>
<g>
	<g>
		<path fill="#A9A1B6" stroke="#FFFFFF" stroke-width="4" stroke-miterlimit="10" d="M503.615,279.99L340.804,55.9
			C390.309,19.933,442.424,3,503.615,3V279.99z"/>
	</g>
</g>
<g>
	<g>
		<path fill="#CCC3D9" stroke="#FFFFFF" stroke-width="4" stroke-miterlimit="10" d="M503.615,279.99l-263.433,85.595
			c-37.818-116.392,1.613-237.75,100.623-309.684L503.615,279.99z"/>
	</g>
</g>
<g>
	<g>
		<path fill="#F3D0AA" stroke="#FFFFFF" stroke-width="4" stroke-miterlimit="10" d="M503.615,279.99l162.811,224.09
			c-123.761,89.918-296.983,62.482-386.9-61.279c-17.984-24.752-29.889-48.118-39.344-77.216L503.615,279.99z"/>
	</g>
</g>
<g>
	<g>
		<path fill="#DFD9E8" stroke="#FFFFFF" stroke-width="4" stroke-miterlimit="10" d="M503.615,279.99V3
			c152.977,0,276.99,124.013,276.99,276.99c0,91.786-39.923,170.139-114.179,224.09L503.615,279.99z"/>
	</g>
</g>
<rect x="842.56" y="141.119" fill="#DFD9E8" width="37.498" height="37.498"/>
<g>
	<text transform="matrix(1 0 0 1 896.4498 169.2421)" fill="#B3B3B3" font-family="'RobotoCondensed-Regular'" font-size="26px">Transportation</text>
</g>
<g>
	<text transform="matrix(1 0 0 1 644.3029 247.6163)" fill="#6C5F82" font-family="'RobotoCondensed-Regular'" font-size="26px">40%</text>
</g>
<g>
	<text transform="matrix(1 0 0 1 429.2352 453.3816)" fill="#6C5F82" font-family="'RobotoCondensed-Regular'" font-size="26px">30%</text>
</g>
<g>
	<text transform="matrix(1 0 0 1 316.6972 240.2422)" fill="#6C5F82" font-family="'RobotoCondensed-Regular'" font-size="26px">20%</text>
</g>
<g>
	<text transform="matrix(1 0 0 1 429.8615 118.8971)" fill="#6C5F82" font-family="'RobotoCondensed-Regular'" font-size="26px">10%</text>
</g>
<rect x="842.56" y="219.119" fill="#F3D0AA" width="37.498" height="37.498"/>
<g>
	<text transform="matrix(1 0 0 1 897.9098 247.2421)" fill="#B3B3B3" font-family="'RobotoCondensed-Regular'" font-size="26px">Entertainment</text>
</g>
<rect x="842.56" y="296" fill="#CCC3D9" width="37.498" height="37.498"/>
<g>
	<text transform="matrix(1 0 0 1 897.3385 324.1234)" fill="#B3B3B3" font-family="'RobotoCondensed-Regular'" font-size="26px">Power industry</text>
</g>
<rect x="842.56" y="372.881" fill="#A9A1B6" width="37.498" height="37.498"/>
<g>
	<text transform="matrix(1 0 0 1 897.5035 401.0048)" fill="#B3B3B3" font-family="'RobotoCondensed-Regular'" font-size="26px">Hotel industry</text>
</g>
</svg>
