<?xml version="1.0" encoding="utf-8"?>
<!-- Generator: Adobe Illustrator 24.0.1, SVG Export Plug-In . SVG Version: 6.00 Build 0)  -->
<svg version="1.1" id="Layer_1" xmlns="http://www.w3.org/2000/svg" xmlns:xlink="http://www.w3.org/1999/xlink" x="0px" y="0px"
	 viewBox="0 0 1268 418" style="enable-background:new 0 0 1268 418;" xml:space="preserve">
<style type="text/css">
	.st0{fill:none;stroke:#7C7C7C;stroke-width:1.434;}
	.st1{fill:#7E7E7E;}
	.st2{font-family:'RobotoMono-Regular';}
	.st3{font-size:13.1453px;}
	.st4{fill:#707070;}
	.st5{fill:#D9D9D9;fill-opacity:0.7;stroke:#333333;stroke-width:0.5019;}
	.st6{fill:#A39CB9;fill-opacity:0.7;stroke:#333333;stroke-width:0.5019;}
	.st7{fill:#FBFBFB;fill-opacity:0.7;stroke:#333333;stroke-width:0.5019;}
	.st8{fill:#CCCCCC;fill-opacity:0.7;stroke:#333333;stroke-width:0.5019;}
	.st9{fill:#EAEAEA;fill-opacity:0.7;stroke:#333333;stroke-width:0.5019;}
	.st10{fill:#EFEFEF;fill-opacity:0.7;stroke:#333333;stroke-width:0.5019;}
	.st11{fill:#B2B2B2;fill-opacity:0.7;stroke:#333333;stroke-width:0.5019;}
</style>
<path class="st0" d="M291.8,21.6v10.9h716.9V21.6"/>
<path class="st0" d="M291.8,31.7v-10"/>
<text transform="matrix(1 0 0 1 279.1226 16.5951)" class="st1 st2 st3">Jan.</text>
<path class="st0" d="M396.5,31.7v-10"/>
<text transform="matrix(1 0 0 1 382.9707 16.5951)" class="st1 st2 st3">Feb.</text>
<path class="st0" d="M491,31.7v-10"/>
<text transform="matrix(1 0 0 1 472.3584 16.5951)" class="st1 st2 st3">March</text>
<path class="st0" d="M595.6,31.7v-10"/>
<text transform="matrix(1 0 0 1 582.1816 16.5951)" class="st1 st2 st3">April</text>
<path class="st0" d="M696.9,31.7v-10"/>
<text transform="matrix(1 0 0 1 684.2363 16.5951)" class="st1 st2 st3">May</text>
<path class="st0" d="M801.6,31.7v-10"/>
<text transform="matrix(1 0 0 1 787.0088 16.5951)" class="st1 st2 st3">June</text>
<path class="st0" d="M902.9,31.7v-10"/>
<text transform="matrix(1 0 0 1 890.9766 16.5951)" class="st1 st2 st3">July</text>
<text transform="matrix(1 0 0 1 993.749 16.5951)" class="st1 st2 st3">Aug.</text>
<path class="st0" d="M280.8,414.5h10.9V32.5h-10.9"/>
<text transform="matrix(1 0 0 1 245.9009 403.6645)" class="st4 st2 st3">2008</text>
<text transform="matrix(1 0 0 1 245.9009 366.977)" class="st4 st2 st3">2009</text>
<text transform="matrix(1 0 0 1 245.9009 330.2904)" class="st4 st2 st3">2010</text>
<text transform="matrix(1 0 0 1 246.8569 293.6029)" class="st4 st2 st3">2011</text>
<text transform="matrix(1 0 0 1 245.9009 256.9154)" class="st4 st2 st3">2012</text>
<text transform="matrix(1 0 0 1 245.9009 220.2279)" class="st4 st2 st3">2013</text>
<text transform="matrix(1 0 0 1 245.9009 183.5404)" class="st4 st2 st3">2014</text>
<text transform="matrix(1 0 0 1 245.9009 146.8534)" class="st4 st2 st3">2015</text>
<text transform="matrix(1 0 0 1 245.9009 110.1659)" class="st4 st2 st3">2016</text>
<text transform="matrix(1 0 0 1 245.9009 73.4789)" class="st4 st2 st3">2017</text>
<path class="st0" d="M291,68.3h725.9"/>
<path class="st5" d="M811.4,68.3c0-14.7,11.9-26.5,26.5-26.5s26.5,11.9,26.5,26.5"/>
<path class="st5" d="M698.2,68.3c0-13.8,11.2-24.9,24.9-24.9c13.8,0,24.9,11.2,24.9,24.9"/>
<path class="st5" d="M553.5,68.3c0.9-13.4,12.6-23.6,26-22.6c12.1,0.9,21.8,10.5,22.6,22.6"/>
<path class="st5" d="M486.1,68.3c0.9-13.4,12.6-23.6,26-22.6c12.1,0.9,21.8,10.5,22.6,22.6"/>
<path class="st5" d="M464.2,68.3c0.9-12.4,11.7-21.8,24.2-20.9c11.2,0.8,20.1,9.7,20.9,20.9"/>
<path class="st6" d="M674.2,68.3c0-12.1,9.8-21.9,21.9-21.9c12.1,0,21.9,9.8,21.9,21.9"/>
<path class="st6" d="M422.3,68.3c0-11.4,9.2-20.5,20.6-20.5c11.3,0,20.5,9.2,20.5,20.5"/>
<path class="st5" d="M340.9,68.3c0-9.7,7.9-17.6,17.6-17.6s17.6,7.9,17.6,17.6"/>
<path class="st0" d="M291,105h725.9"/>
<path class="st7" d="M870.2,105c1.1-17.6,16.2-31,33.8-29.9c16.1,1,28.9,13.8,29.9,29.9"/>
<path class="st5" d="M596.6,105c1.1-17.6,16.2-31,33.8-29.9c16.1,1,28.9,13.8,29.9,29.9"/>
<path class="st6" d="M620.7,105c0-15.5,12.6-28.1,28.1-28.1c15.5,0,28.1,12.6,28.1,28.1"/>
<path class="st5" d="M662.7,105c0-14.7,11.9-26.5,26.5-26.5c14.7,0,26.5,11.9,26.5,26.5c0,0,0,0,0,0"/>
<path class="st6" d="M494.6,105c1-14.4,13.4-25.2,27.8-24.2c13,0.9,23.3,11.2,24.2,24.2"/>
<path class="st5" d="M540.1,105c0.9-13.4,12.6-23.6,26-22.6c12.1,0.9,21.8,10.5,22.6,22.6"/>
<path class="st5" d="M700.6,105c0.9-12.4,11.7-21.8,24.2-20.9c11.2,0.8,20.1,9.7,20.9,20.9"/>
<path class="st5" d="M976.1,105c0-11.4,9.2-20.6,20.6-20.6c11.4,0,20.6,9.2,20.6,20.6"/>
<path class="st5" d="M525.8,105c0-10.2,8.2-18.4,18.4-18.4s18.4,8.2,18.4,18.4"/>
<path class="st5" d="M752,105c0-10.2,8.2-18.4,18.4-18.4c10.2,0,18.4,8.2,18.4,18.4c0,0,0,0,0,0"/>
<path class="st5" d="M452.3,105c0-9.7,7.9-17.6,17.6-17.6s17.6,7.9,17.6,17.6l0,0"/>
<path class="st0" d="M291,141.7h725.9"/>
<path class="st7" d="M869.1,141.7c1.2-20.1,18.4-35.5,38.5-34.3c18.5,1.1,33.2,15.8,34.3,34.3"/>
<path class="st8" d="M420.1,141.7c0-16.3,13.2-29.6,29.6-29.6s29.6,13.2,29.6,29.6"/>
<path class="st6" d="M746.6,141.7c1-14.9,13.9-26.3,28.9-25.3c13.6,0.9,24.4,11.7,25.3,25.3"/>
<path class="st5" d="M597.1,141.7c0-11.7,9.5-21.3,21.3-21.3c11.7,0,21.3,9.5,21.3,21.3"/>
<path class="st5" d="M700.6,141.7c0-10.6,8.6-19.1,19.1-19.1c10.6,0,19.1,8.6,19.1,19.1"/>
<path class="st5" d="M636.4,141.7c0-10.6,8.6-19.1,19.1-19.1c10.6,0,19.1,8.6,19.1,19.1"/>
<path class="st5" d="M856.7,141.7c0-10.2,8.3-18.4,18.4-18.4c10.2,0,18.4,8.2,18.4,18.4"/>
<path class="st0" d="M291,178.4h725.9"/>
<path class="st7" d="M871,178.4c0-19,15.4-34.4,34.4-34.4c19,0,34.4,15.4,34.4,34.4"/>
<path class="st5" d="M727,178.4c1.1-18.3,16.8-32.3,35.2-31.2c16.8,1,30.2,14.4,31.2,31.2"/>
<path class="st8" d="M292.1,178.4l-0.4-19.8c10.9-8.8,27-7.2,35.8,3.8c3.7,4.5,5.7,10.2,5.7,16.1"/>
<path class="st5" d="M787.1,178.4c0.9-13.1,12.3-23,25.4-22c11.8,0.8,21.2,10.2,22,22"/>
<path class="st5" d="M666.8,178.4c0.9-12.4,11.7-21.8,24.2-20.9c11.2,0.8,20.1,9.7,20.9,20.9"/>
<path class="st5" d="M577.5,178.4c0-11.4,9.2-20.6,20.5-20.6c11.4,0,20.6,9.2,20.6,20.5c0,0,0,0,0,0"/>
<path class="st0" d="M291,215.1h725.9"/>
<path class="st7" d="M896.8,215.1c0-30.9,25.1-55.9,56-55.9c30.9,0,55.9,25,55.9,55.9"/>
<path class="st5" d="M733.7,215.1c0-14.7,11.9-26.5,26.5-26.5c14.6,0,26.5,11.9,26.5,26.5"/>
<path class="st5" d="M523.3,215.1c0.9-13.4,12.6-23.6,26-22.6c12.1,0.9,21.8,10.5,22.6,22.6"/>
<path class="st5" d="M767.5,215.1c0.9-12.8,12-22.4,24.8-21.5c11.5,0.8,20.6,10,21.5,21.5"/>
<path class="st5" d="M601.2,215.1c0-11.4,9.2-20.5,20.6-20.5c11.3,0,20.5,9.2,20.5,20.5"/>
<path class="st6" d="M631.2,215.1c0-9.7,7.9-17.6,17.6-17.6c9.7,0,17.6,7.9,17.6,17.6"/>
<path class="st0" d="M291,251.8h725.9"/>
<path class="st9" d="M806.5,251.8c0-52.8,42.9-95.6,95.7-95.5c52.8,0,95.5,42.8,95.5,95.5"/>
<path class="st5" d="M657.9,251.8c0-17.4,14.1-31.4,31.4-31.4c17.4,0,31.4,14.1,31.4,31.4"/>
<path class="st5" d="M462.6,251.8c0-17.1,13.9-31,31-31c17.1,0,31,13.9,31,31"/>
<path class="st5" d="M869.1,251.8c0-16.3,13.2-29.6,29.6-29.6s29.6,13.2,29.6,29.6l0,0"/>
<path class="st5" d="M799.7,251.8c0-15.5,12.6-28.1,28.1-28.1c15.5,0,28.1,12.6,28.1,28.1"/>
<path class="st5" d="M757.4,251.8c0-14.7,11.9-26.5,26.5-26.5c14.6,0,26.5,11.9,26.5,26.5"/>
<path class="st5" d="M616.8,251.8c0-10.2,8.2-18.4,18.4-18.4c10.2,0,18.4,8.2,18.4,18.4c0,0,0,0,0,0"/>
<path class="st5" d="M580.5,251.8c0-9.7,7.9-17.6,17.6-17.6s17.6,7.9,17.6,17.6"/>
<path class="st0" d="M291,288.5h725.9"/>
<g>
	<path class="st7" d="M736.1,288.5c1.5-33.8,30.1-60,64-58.5c31.7,1.4,57.1,26.8,58.5,58.5"/>
	<path class="st5" d="M622.7,288.5c0-31.2,25.3-56.5,56.5-56.5s56.5,25.3,56.5,56.5"/>
	<path class="st5" d="M720.3,288.5c-1.4-29.5,21.4-54.5,50.8-55.9c29.5-1.4,54.5,21.4,55.9,50.8c0.1,1.7,0.1,3.4,0,5.1"/>
	<path class="st6" d="M665.6,288.5c0-16.9,13.7-30.5,30.5-30.5s30.5,13.7,30.5,30.5l0,0"/>
	<path class="st5" d="M575.3,288.5c0-16.3,13.2-29.6,29.6-29.6c16.3,0,29.6,13.2,29.6,29.6l0,0"/>
	<path class="st5" d="M595.7,288.5c1-14.4,13.4-25.2,27.8-24.2c13,0.9,23.3,11.2,24.2,24.2"/>
	<path class="st5" d="M616.6,288.5c0-14.1,11.4-25.5,25.5-25.5c14.1,0,25.5,11.4,25.5,25.5"/>
	<path class="st6" d="M772.4,288.5c0-13.8,11.2-24.9,24.9-24.9c13.8,0,24.9,11.2,24.9,24.9"/>
	<path class="st8" d="M375.2,288.5c0.9-13.1,12.3-23,25.4-22c11.8,0.8,21.2,10.2,22,22"/>
	<path class="st5" d="M843.1,288.5c0-12.1,9.8-21.9,21.8-21.9c12.1,0,21.9,9.8,21.9,21.8c0,0,0,0,0,0"/>
	<path class="st5" d="M919.4,288.5c0-11,8.9-19.9,19.9-19.9c11,0,19.9,8.9,19.9,19.9"/>
	<path class="st5" d="M637.2,288.5c0-10.2,8.3-18.4,18.4-18.4c10.2,0,18.4,8.2,18.4,18.4"/>
</g>
<path class="st0" d="M291,325.2h725.9"/>
<path class="st5" d="M697.1,325.2c0-18.1,14.7-32.7,32.8-32.7c18.1,0,32.7,14.7,32.7,32.7"/>
<path class="st6" d="M668.9,325.2c1-14.9,13.9-26.3,28.9-25.3c13.6,0.9,24.4,11.7,25.3,25.3"/>
<path class="st6" d="M516.5,325.2c0.9-13.4,12.6-23.6,26-22.6c12.1,0.9,21.8,10.5,22.6,22.6"/>
<path class="st5" d="M952,325.2c0-9.7,7.9-17.6,17.6-17.6c9.7,0,17.6,7.9,17.6,17.6"/>
<path class="st0" d="M291,361.8h725.9"/>
<path class="st7" d="M871.5,361.8c-1.1-18.8,13.2-34.9,32-36c18.8-1.1,34.9,13.2,36,32c0.1,1.3,0.1,2.7,0,4"/>
<path class="st5" d="M402.2,361.8c0.9-13.1,12.3-23,25.4-22c11.8,0.8,21.2,10.2,22,22"/>
<path class="st5" d="M551.5,361.8c0.9-12.8,12-22.4,24.8-21.5c11.5,0.8,20.6,10,21.5,21.5"/>
<path class="st5" d="M599.9,361.8c0-12.1,9.8-21.9,21.9-21.9s21.9,9.8,21.9,21.9"/>
<path class="st5" d="M810.6,361.8c0-11.4,9.2-20.5,20.6-20.5c11.3,0,20.5,9.2,20.5,20.5"/>
<path class="st5" d="M947.9,361.8c0-10.2,8.2-18.4,18.4-18.4c10.2,0,18.4,8.2,18.4,18.4c0,0,0,0,0,0"/>
<path class="st0" d="M291,398.5h725.9"/>
<path class="st6" d="M689.5,398.5c1.4-31.6,28.2-56,59.8-54.6c29.6,1.4,53.2,25,54.6,54.6"/>
<path class="st10" d="M854.3,398.5c0-26.4,21.4-47.8,47.8-47.8s47.8,21.4,47.8,47.8"/>
<path class="st5" d="M742.3,398.5c0-17.4,14.1-31.4,31.4-31.4c17.4,0,31.4,14.1,31.4,31.4"/>
<path class="st11" d="M804.6,398.5c0.9-12.8,12-22.4,24.8-21.5c11.5,0.8,20.6,10,21.5,21.5"/>
<path class="st6" d="M959.2,398.5c0-11.4,9.2-20.6,20.6-20.6c11.4,0,20.6,9.2,20.6,20.6"/>
<path class="st5" d="M389.3,398.5c0-11,8.9-19.9,19.9-19.9s19.9,8.9,19.9,19.9"/>
<path class="st5" d="M514.9,398.5c0-10.6,8.6-19.1,19.1-19.1s19.1,8.6,19.1,19.1"/>
<path class="st5" d="M606.8,398.5c0-10.2,8.2-18.4,18.4-18.4c10.2,0,18.4,8.2,18.4,18.4c0,0,0,0,0,0"/>
</svg>
