<?xml version="1.0" encoding="utf-8"?>
<!-- Generator: Adobe Illustrator 22.1.0, SVG Export Plug-In . SVG Version: 6.00 Build 0)  -->
<svg version="1.1" id="Layer_1" xmlns="http://www.w3.org/2000/svg" xmlns:xlink="http://www.w3.org/1999/xlink" x="0px" y="0px"
	 viewBox="0 0 1000 333" style="enable-background:new 0 0 1000 333;" xml:space="preserve">
<style type="text/css">
	.st0{fill:#A59DB2;}
	.st1{fill:none;stroke:#CCCCCC;stroke-width:3;stroke-miterlimit:10;}
	.st2{fill:#CECECE;}
	.st3{font-family:'RobotoMono-Regular';}
	.st4{font-size:19.5147px;}
</style>
<circle class="st0" cx="88.4" cy="221.3" r="7.9"/>
<circle class="st0" cx="125" cy="221.3" r="7.9"/>
<circle class="st0" cx="161.5" cy="221.3" r="7.9"/>
<circle class="st0" cx="198" cy="221.3" r="7.9"/>
<circle class="st0" cx="88.4" cy="198.2" r="7.9"/>
<circle class="st0" cx="125" cy="198.2" r="7.9"/>
<circle class="st0" cx="161.5" cy="198.2" r="7.9"/>
<circle class="st0" cx="198" cy="198.2" r="7.9"/>
<circle class="st0" cx="88.4" cy="175.2" r="7.9"/>
<circle class="st0" cx="125" cy="175.2" r="7.9"/>
<circle class="st0" cx="161.5" cy="175.2" r="7.9"/>
<circle class="st0" cx="198" cy="175.2" r="7.9"/>
<circle class="st0" cx="125" cy="152.2" r="7.9"/>
<circle class="st0" cx="161.5" cy="152.2" r="7.9"/>
<circle class="st0" cx="198" cy="152.2" r="7.9"/>
<circle class="st0" cx="125" cy="129.1" r="7.9"/>
<circle class="st0" cx="161.5" cy="129.1" r="7.9"/>
<circle class="st0" cx="198" cy="129.1" r="7.9"/>
<circle class="st0" cx="161.5" cy="106.1" r="7.9"/>
<circle class="st0" cx="234.8" cy="221.3" r="7.9"/>
<circle class="st0" cx="271.3" cy="221.3" r="7.9"/>
<circle class="st0" cx="307.8" cy="221.3" r="7.9"/>
<circle class="st0" cx="344.4" cy="221.3" r="7.9"/>
<circle class="st0" cx="234.8" cy="198.2" r="7.9"/>
<circle class="st0" cx="271.3" cy="198.2" r="7.9"/>
<circle class="st0" cx="307.8" cy="198.2" r="7.9"/>
<circle class="st0" cx="344.4" cy="198.2" r="7.9"/>
<circle class="st0" cx="234.8" cy="175.2" r="7.9"/>
<circle class="st0" cx="271.3" cy="175.2" r="7.9"/>
<circle class="st0" cx="307.8" cy="175.2" r="7.9"/>
<circle class="st0" cx="344.4" cy="175.2" r="7.9"/>
<circle class="st0" cx="271.3" cy="152.2" r="7.9"/>
<circle class="st0" cx="307.8" cy="152.2" r="7.9"/>
<circle class="st0" cx="344.4" cy="152.2" r="7.9"/>
<circle class="st0" cx="271.3" cy="129.1" r="7.9"/>
<circle class="st0" cx="307.8" cy="129.1" r="7.9"/>
<circle class="st0" cx="344.4" cy="129.1" r="7.9"/>
<circle class="st0" cx="381.1" cy="221.3" r="7.9"/>
<circle class="st0" cx="417.6" cy="221.3" r="7.9"/>
<circle class="st0" cx="454.2" cy="221.3" r="7.9"/>
<circle class="st0" cx="490.7" cy="221.3" r="7.9"/>
<circle class="st0" cx="381.1" cy="198.2" r="7.9"/>
<circle class="st0" cx="417.6" cy="198.2" r="7.9"/>
<circle class="st0" cx="454.2" cy="198.2" r="7.9"/>
<circle class="st0" cx="490.7" cy="198.2" r="7.9"/>
<circle class="st0" cx="381.1" cy="175.2" r="7.9"/>
<circle class="st0" cx="417.6" cy="175.2" r="7.9"/>
<circle class="st0" cx="454.2" cy="175.2" r="7.9"/>
<circle class="st0" cx="490.7" cy="175.2" r="7.9"/>
<circle class="st0" cx="417.6" cy="152.2" r="7.9"/>
<circle class="st0" cx="454.2" cy="152.2" r="7.9"/>
<circle class="st0" cx="490.7" cy="152.2" r="7.9"/>
<circle class="st0" cx="417.6" cy="129.1" r="7.9"/>
<circle class="st0" cx="454.2" cy="129.1" r="7.9"/>
<circle class="st0" cx="490.7" cy="129.1" r="7.9"/>
<circle class="st0" cx="454.2" cy="106.1" r="7.9"/>
<circle class="st0" cx="527.3" cy="221.3" r="7.9"/>
<circle class="st0" cx="563.8" cy="221.3" r="7.9"/>
<circle class="st0" cx="600.4" cy="221.3" r="7.9"/>
<circle class="st0" cx="636.9" cy="221.3" r="7.9"/>
<circle class="st0" cx="527.3" cy="198.2" r="7.9"/>
<circle class="st0" cx="563.8" cy="198.2" r="7.9"/>
<circle class="st0" cx="600.4" cy="198.2" r="7.9"/>
<circle class="st0" cx="636.9" cy="198.2" r="7.9"/>
<circle class="st0" cx="527.3" cy="175.2" r="7.9"/>
<circle class="st0" cx="563.8" cy="175.2" r="7.9"/>
<circle class="st0" cx="600.4" cy="175.2" r="7.9"/>
<circle class="st0" cx="636.9" cy="175.2" r="7.9"/>
<circle class="st0" cx="563.8" cy="152.2" r="7.9"/>
<circle class="st0" cx="600.4" cy="152.2" r="7.9"/>
<circle class="st0" cx="636.9" cy="152.2" r="7.9"/>
<circle class="st0" cx="563.8" cy="129.1" r="7.9"/>
<circle class="st0" cx="600.4" cy="129.1" r="7.9"/>
<circle class="st0" cx="636.9" cy="129.1" r="7.9"/>
<circle class="st0" cx="600.4" cy="106.1" r="7.9"/>
<circle class="st0" cx="673.7" cy="221.3" r="7.9"/>
<circle class="st0" cx="710.2" cy="221.3" r="7.9"/>
<circle class="st0" cx="746.7" cy="221.3" r="7.9"/>
<circle class="st0" cx="783.2" cy="221.3" r="7.9"/>
<circle class="st0" cx="673.7" cy="198.2" r="7.9"/>
<circle class="st0" cx="710.2" cy="198.2" r="7.9"/>
<circle class="st0" cx="746.7" cy="198.2" r="7.9"/>
<circle class="st0" cx="783.2" cy="198.2" r="7.9"/>
<circle class="st0" cx="673.7" cy="175.2" r="7.9"/>
<circle class="st0" cx="710.2" cy="175.2" r="7.9"/>
<circle class="st0" cx="746.7" cy="175.2" r="7.9"/>
<circle class="st0" cx="783.2" cy="175.2" r="7.9"/>
<circle class="st0" cx="710.2" cy="152.2" r="7.9"/>
<circle class="st0" cx="746.7" cy="152.2" r="7.9"/>
<circle class="st0" cx="783.2" cy="152.2" r="7.9"/>
<circle class="st0" cx="710.2" cy="129.1" r="7.9"/>
<circle class="st0" cx="746.7" cy="129.1" r="7.9"/>
<circle class="st0" cx="783.2" cy="129.1" r="7.9"/>
<circle class="st0" cx="820" cy="221.3" r="7.9"/>
<circle class="st0" cx="856.5" cy="221.3" r="7.9"/>
<circle class="st0" cx="893" cy="221.3" r="7.9"/>
<circle class="st0" cx="929.6" cy="221.3" r="7.9"/>
<circle class="st0" cx="820" cy="198.2" r="7.9"/>
<circle class="st0" cx="856.5" cy="198.2" r="7.9"/>
<circle class="st0" cx="893" cy="198.2" r="7.9"/>
<circle class="st0" cx="929.6" cy="198.2" r="7.9"/>
<circle class="st0" cx="820" cy="175.2" r="7.9"/>
<circle class="st0" cx="856.5" cy="175.2" r="7.9"/>
<circle class="st0" cx="893" cy="175.2" r="7.9"/>
<circle class="st0" cx="929.6" cy="175.2" r="7.9"/>
<circle class="st0" cx="856.5" cy="152.2" r="7.9"/>
<circle class="st0" cx="893" cy="152.2" r="7.9"/>
<circle class="st0" cx="929.6" cy="152.2" r="7.9"/>
<circle class="st0" cx="856.5" cy="129.1" r="7.9"/>
<circle class="st0" cx="893" cy="129.1" r="7.9"/>
<circle class="st0" cx="929.6" cy="129.1" r="7.9"/>
<circle class="st0" cx="893" cy="106.1" r="7.9"/>
<circle class="st0" cx="88.4" cy="175.3" r="7.9"/>
<circle class="st0" cx="125" cy="175.3" r="7.9"/>
<circle class="st0" cx="161.5" cy="175.3" r="7.9"/>
<circle class="st0" cx="198" cy="175.3" r="7.9"/>
<circle class="st0" cx="88.4" cy="152.3" r="7.9"/>
<circle class="st0" cx="125" cy="152.3" r="7.9"/>
<circle class="st0" cx="161.5" cy="152.3" r="7.9"/>
<circle class="st0" cx="198" cy="152.3" r="7.9"/>
<circle class="st0" cx="88.4" cy="129.3" r="7.9"/>
<circle class="st0" cx="125" cy="129.3" r="7.9"/>
<circle class="st0" cx="161.5" cy="129.3" r="7.9"/>
<circle class="st0" cx="198" cy="129.3" r="7.9"/>
<circle class="st0" cx="125" cy="106.2" r="7.9"/>
<circle class="st0" cx="161.5" cy="106.2" r="7.9"/>
<circle class="st0" cx="198" cy="106.2" r="7.9"/>
<circle class="st0" cx="125" cy="83.2" r="7.9"/>
<circle class="st0" cx="161.5" cy="83.2" r="7.9"/>
<circle class="st0" cx="198" cy="83.2" r="7.9"/>
<circle class="st0" cx="161.5" cy="60.1" r="7.9"/>
<circle class="st0" cx="234.8" cy="175.3" r="7.9"/>
<circle class="st0" cx="271.3" cy="175.3" r="7.9"/>
<circle class="st0" cx="307.8" cy="175.3" r="7.9"/>
<circle class="st0" cx="344.4" cy="175.3" r="7.9"/>
<circle class="st0" cx="234.8" cy="152.3" r="7.9"/>
<circle class="st0" cx="271.3" cy="152.3" r="7.9"/>
<circle class="st0" cx="307.8" cy="152.3" r="7.9"/>
<circle class="st0" cx="344.4" cy="152.3" r="7.9"/>
<circle class="st0" cx="234.8" cy="129.3" r="7.9"/>
<circle class="st0" cx="271.3" cy="129.3" r="7.9"/>
<circle class="st0" cx="307.8" cy="129.3" r="7.9"/>
<circle class="st0" cx="344.4" cy="129.3" r="7.9"/>
<circle class="st0" cx="271.3" cy="106.2" r="7.9"/>
<circle class="st0" cx="271.3" cy="83.2" r="7.9"/>
<circle class="st0" cx="381.1" cy="175.3" r="7.9"/>
<circle class="st0" cx="417.6" cy="175.3" r="7.9"/>
<circle class="st0" cx="454.2" cy="175.3" r="7.9"/>
<circle class="st0" cx="490.7" cy="175.3" r="7.9"/>
<circle class="st0" cx="381.1" cy="152.3" r="7.9"/>
<circle class="st0" cx="417.6" cy="152.3" r="7.9"/>
<circle class="st0" cx="454.2" cy="152.3" r="7.9"/>
<circle class="st0" cx="490.7" cy="152.3" r="7.9"/>
<circle class="st0" cx="381.1" cy="129.3" r="7.9"/>
<circle class="st0" cx="417.6" cy="129.3" r="7.9"/>
<circle class="st0" cx="454.2" cy="129.3" r="7.9"/>
<circle class="st0" cx="490.7" cy="129.3" r="7.9"/>
<circle class="st0" cx="417.6" cy="106.2" r="7.9"/>
<circle class="st0" cx="454.2" cy="106.2" r="7.9"/>
<circle class="st0" cx="490.7" cy="106.2" r="7.9"/>
<circle class="st0" cx="417.6" cy="83.2" r="7.9"/>
<circle class="st0" cx="454.2" cy="83.2" r="7.9"/>
<circle class="st0" cx="490.7" cy="83.2" r="7.9"/>
<circle class="st0" cx="454.2" cy="60.1" r="7.9"/>
<circle class="st0" cx="527.3" cy="175.3" r="7.9"/>
<circle class="st0" cx="563.8" cy="175.3" r="7.9"/>
<circle class="st0" cx="600.4" cy="175.3" r="7.9"/>
<circle class="st0" cx="636.9" cy="175.3" r="7.9"/>
<circle class="st0" cx="527.3" cy="152.3" r="7.9"/>
<circle class="st0" cx="563.8" cy="152.3" r="7.9"/>
<circle class="st0" cx="600.4" cy="152.3" r="7.9"/>
<circle class="st0" cx="636.9" cy="152.3" r="7.9"/>
<circle class="st0" cx="527.3" cy="129.3" r="7.9"/>
<circle class="st0" cx="563.8" cy="129.3" r="7.9"/>
<circle class="st0" cx="600.4" cy="129.3" r="7.9"/>
<circle class="st0" cx="636.9" cy="129.3" r="7.9"/>
<circle class="st0" cx="563.8" cy="106.2" r="7.9"/>
<circle class="st0" cx="600.4" cy="106.2" r="7.9"/>
<circle class="st0" cx="636.9" cy="106.2" r="7.9"/>
<circle class="st0" cx="563.8" cy="83.2" r="7.9"/>
<circle class="st0" cx="600.4" cy="83.2" r="7.9"/>
<circle class="st0" cx="636.9" cy="83.2" r="7.9"/>
<circle class="st0" cx="600.4" cy="60.1" r="7.9"/>
<circle class="st0" cx="673.7" cy="175.3" r="7.9"/>
<circle class="st0" cx="710.2" cy="175.3" r="7.9"/>
<circle class="st0" cx="746.7" cy="175.3" r="7.9"/>
<circle class="st0" cx="783.2" cy="175.3" r="7.9"/>
<circle class="st0" cx="673.7" cy="152.3" r="7.9"/>
<circle class="st0" cx="710.2" cy="152.3" r="7.9"/>
<circle class="st0" cx="746.7" cy="152.3" r="7.9"/>
<circle class="st0" cx="783.2" cy="152.3" r="7.9"/>
<circle class="st0" cx="673.7" cy="129.3" r="7.9"/>
<circle class="st0" cx="710.2" cy="129.3" r="7.9"/>
<circle class="st0" cx="746.7" cy="129.3" r="7.9"/>
<circle class="st0" cx="783.2" cy="129.3" r="7.9"/>
<circle class="st0" cx="710.2" cy="106.2" r="7.9"/>
<circle class="st0" cx="746.7" cy="106.2" r="7.9"/>
<circle class="st0" cx="783.2" cy="106.2" r="7.9"/>
<circle class="st0" cx="710.2" cy="83.2" r="7.9"/>
<circle class="st0" cx="746.7" cy="83.2" r="7.9"/>
<circle class="st0" cx="783.2" cy="83.2" r="7.9"/>
<circle class="st0" cx="820" cy="175.3" r="7.9"/>
<circle class="st0" cx="856.5" cy="175.3" r="7.9"/>
<circle class="st0" cx="893" cy="175.3" r="7.9"/>
<circle class="st0" cx="929.6" cy="175.3" r="7.9"/>
<circle class="st0" cx="820" cy="152.3" r="7.9"/>
<circle class="st0" cx="856.5" cy="152.3" r="7.9"/>
<circle class="st0" cx="893" cy="152.3" r="7.9"/>
<circle class="st0" cx="929.6" cy="152.3" r="7.9"/>
<circle class="st0" cx="820" cy="129.3" r="7.9"/>
<circle class="st0" cx="856.5" cy="129.3" r="7.9"/>
<circle class="st0" cx="893" cy="129.3" r="7.9"/>
<circle class="st0" cx="929.6" cy="129.3" r="7.9"/>
<circle class="st0" cx="856.5" cy="106.2" r="7.9"/>
<circle class="st0" cx="893" cy="106.2" r="7.9"/>
<circle class="st0" cx="929.6" cy="106.2" r="7.9"/>
<circle class="st0" cx="856.5" cy="83.2" r="7.9"/>
<circle class="st0" cx="893" cy="83.2" r="7.9"/>
<circle class="st0" cx="929.6" cy="83.2" r="7.9"/>
<circle class="st0" cx="893" cy="60.1" r="7.9"/>
<line class="st1" x1="937.4" y1="250.4" x2="79" y2="250.3"/>
<g>
	<text transform="matrix(1 0 0 1 150.9517 304.2646)" class="st2 st3 st4">1</text>
</g>
<g>
	<text transform="matrix(1 0 0 1 83.7349 304.2646)" class="st2 st3 st4">0</text>
</g>
<g>
	<text transform="matrix(1 0 0 1 228.3149 304.2646)" class="st2 st3 st4">2</text>
</g>
<g>
	<text transform="matrix(1 0 0 1 307.9736 304.2646)" class="st2 st3 st4">3</text>
</g>
<g>
	<text transform="matrix(1 0 0 1 388.6143 304.2646)" class="st2 st3 st4">4</text>
</g>
<g>
	<text transform="matrix(1 0 0 1 465.3213 304.2646)" class="st2 st3 st4">5</text>
</g>
<g>
	<text transform="matrix(1 0 0 1 545.9629 304.2646)" class="st2 st3 st4">6</text>
</g>
<g>
	<text transform="matrix(1 0 0 1 622.6719 304.2646)" class="st2 st3 st4">7</text>
</g>
<g>
	<text transform="matrix(1 0 0 1 703.3125 304.2646)" class="st2 st3 st4">8</text>
</g>
<g>
	<text transform="matrix(1 0 0 1 780.0195 304.2646)" class="st2 st3 st4">9</text>
</g>
<g>
	<text transform="matrix(1 0 0 1 854.8057 304.2646)" class="st2 st3 st4">10</text>
</g>
<g>
	<text transform="matrix(1 0 0 1 922.5771 304.2646)" class="st2 st3 st4">11</text>
</g>
<line class="st1" x1="865.2" y1="263.1" x2="865.2" y2="252.1"/>
<line class="st1" x1="934.6" y1="263.1" x2="934.6" y2="252.1"/>
<line class="st1" x1="785.8" y1="263.1" x2="785.8" y2="252.1"/>
<line class="st1" x1="707.3" y1="263.1" x2="707.3" y2="252.1"/>
<line class="st1" x1="628.8" y1="263.1" x2="628.8" y2="252.1"/>
<line class="st1" x1="550.3" y1="263.1" x2="550.3" y2="252.1"/>
<line class="st1" x1="471.8" y1="263.1" x2="471.8" y2="252.1"/>
<line class="st1" x1="392.4" y1="263.1" x2="392.4" y2="252.1"/>
<line class="st1" x1="313.9" y1="263.1" x2="313.9" y2="252.1"/>
<line class="st1" x1="235.4" y1="263.1" x2="235.4" y2="252.1"/>
<line class="st1" x1="156.8" y1="263.1" x2="156.8" y2="252.1"/>
<line class="st1" x1="80.3" y1="263.1" x2="80.3" y2="248.9"/>
</svg>
