<?xml version="1.0" encoding="utf-8"?>
<!-- Generator: Adobe Illustrator 22.1.0, SVG Export Plug-In . SVG Version: 6.00 Build 0)  -->
<svg version="1.1" id="Layer_1" xmlns="http://www.w3.org/2000/svg" xmlns:xlink="http://www.w3.org/1999/xlink" x="0px" y="0px"
	 viewBox="0 0 256 256" style="enable-background:new 0 0 256 256;" xml:space="preserve">
<g>
	<g>
		<path d="M38.9,226.3c0,10.8-8.7,19.5-19.5,19.5C8.7,245.7,0,237,0,226.3c0-10.8,8.7-19.5,19.5-19.5
			C30.2,206.8,38.9,215.5,38.9,226.3z M91.8,206.8c-10.8,0-19.5,8.7-19.5,19.5c0,10.8,8.7,19.5,19.5,19.5c10.8,0,19.5-8.7,19.5-19.5
			C111.3,215.5,102.6,206.8,91.8,206.8z M164.2,206.8c-10.8,0-19.5,8.7-19.5,19.5c0,10.8,8.7,19.5,19.5,19.5
			c10.8,0,19.5-8.7,19.5-19.5C183.6,215.5,174.9,206.8,164.2,206.8z M236.5,206.8c-10.8,0-19.5,8.7-19.5,19.5
			c0,10.8,8.7,19.5,19.5,19.5c10.8,0,19.5-8.7,19.5-19.5C256,215.5,247.3,206.8,236.5,206.8z M19.5,156.2C8.7,156.2,0,164.9,0,175.6
			c0,10.8,8.7,19.5,19.5,19.5c10.8,0,19.5-8.7,19.5-19.5C38.9,164.9,30.2,156.2,19.5,156.2z M91.8,156.2c-10.8,0-19.5,8.7-19.5,19.5
			c0,10.8,8.7,19.5,19.5,19.5c10.8,0,19.5-8.7,19.5-19.5C111.3,164.9,102.6,156.2,91.8,156.2z M164.2,156.2
			c-10.8,0-19.5,8.7-19.5,19.5c0,10.8,8.7,19.5,19.5,19.5c10.8,0,19.5-8.7,19.5-19.5C183.6,164.9,174.9,156.2,164.2,156.2z
			 M236.5,156.2c-10.8,0-19.5,8.7-19.5,19.5c0,10.8,8.7,19.5,19.5,19.5c10.8,0,19.5-8.7,19.5-19.5
			C256,164.9,247.3,156.2,236.5,156.2z M91.8,105.5c-10.8,0-19.5,8.7-19.5,19.5s8.7,19.5,19.5,19.5c10.8,0,19.5-8.7,19.5-19.5
			S102.6,105.5,91.8,105.5z M164.2,105.5c-10.8,0-19.5,8.7-19.5,19.5s8.7,19.5,19.5,19.5c10.8,0,19.5-8.7,19.5-19.5
			S174.9,105.5,164.2,105.5z M236.5,105.5c-10.8,0-19.5,8.7-19.5,19.5s8.7,19.5,19.5,19.5c10.8,0,19.5-8.7,19.5-19.5
			S247.3,105.5,236.5,105.5z M91.8,54.9c-10.8,0-19.5,8.7-19.5,19.5s8.7,19.5,19.5,19.5c10.8,0,19.5-8.7,19.5-19.5
			S102.6,54.9,91.8,54.9z M164.2,54.9c-10.8,0-19.5,8.7-19.5,19.5s8.7,19.5,19.5,19.5c10.8,0,19.5-8.7,19.5-19.5
			S174.9,54.9,164.2,54.9z M164.2,4.3c-10.8,0-19.5,8.7-19.5,19.5c0,10.8,8.7,19.5,19.5,19.5c10.8,0,19.5-8.7,19.5-19.5
			C183.6,13,174.9,4.3,164.2,4.3z"/>
	</g>
</g>
</svg>
