<svg enable-background="new 0 0 1268 418" viewBox="0 0 1268 418" xmlns="http://www.w3.org/2000/svg"><path d="m343.5 169.6c24.1-4.7 48 8.5 59.6 29.5 12.7 23.3 9.2 52.5-6.5 73.5-15.1 20.1-39.8 31.3-64.9 30.9-28.1-.5-54.5-15.6-70.5-38.5-14.2-20.6-19.6-46.3-15.5-71 4.5-26.2 18.7-49.6 39.8-65.8 22.6-17.2 50.8-25.1 79.1-22.3 26.4 2.7 51.1 14 70.4 32.2 19.2 18.3 32.2 42.1 37.1 68.1 5.1 27.3 1.5 55.6-10.2 80.7-12.4 26-32.5 47.4-57.6 61.6-22.6 12.7-48.2 19.1-74.1 18.5-26.9-.7-53.1-8.5-75.9-22.7-23.6-14.8-42.9-35.6-55.6-60.4-13.2-25.6-19.3-54.4-17.6-83.2 1.6-27.7 10.2-54.5 24.8-77.9 14.2-22.6 33.3-41.7 56.2-55.6 23.5-14.3 50-22.8 77.4-25.1 28.2-2.2 56.5 2.2 82.6 12.9 26.8 11 50.7 28.2 69.7 50 18 20.7 31.3 45.2 38.9 71.6 7.4 25.9 9.4 53.1 5.9 79.8-5.2 37.5-20.8 72.8-45.4 101.6" fill="none" stroke="#b4b4b4" stroke-width="1.2697"/><path d="m335.6 142.7h7.9v26.9h-7.9z" fill="#8e86a5"/><path d="m344.8 168.4 1.1-42.1 7.9.2-1.1 42.1z" fill="#8e86a5"/><path d="m354.3 167.7 3.5-17.1 7.8 1.6-3.5 17.1z" fill="#8e86a5"/><path d="m363.6 168.8 14.2-36.7 7.4 2.9-14.2 36.6z" fill="#8e86a5"/><path d="m372.6 171.2 7.3-12.3 6.8 4-7.3 12.3z" fill="#8e86a5"/><path d="m380.9 175.3 3.7-4.5 6.1 5.1-3.7 4.5z" fill="#8e86a5"/><path d="m388.7 180.6 34.2-30 5.2 6-34.2 30z" fill="#8e86a5"/><path d="m395.5 187.1 17.8-11.4 4.3 6.7-17.8 11.4z" fill="#8e86a5"/><path d="m401.1 194.4 15.9-7.1 3.2 7.2-15.9 7.1z" fill="#8e86a5"/><path d="m405.7 202.7 38.9-11 2.2 7.6-38.9 11z" fill="#8e86a5"/><path d="m408.9 211.4 1.8-.2 1.1 7.9-1.8.2z" fill="#d6d6d8"/><path d="m409.5 219.7h49.9v7.9h-49.9z" fill="#d6d6d8"/><path d="m410.6 237.7 1.1-7.9 35.7 5-1.1 7.9z" fill="#d6d6d8"/><path d="m408.9 246.8 2.1-7.6 27.2 7.6-2.1 7.6z" fill="#d6d6d8"/><path d="m406.1 255.7 3.1-7.3 39.4 16.8-3.1 7.3z" fill="#d6d6d8"/><path d="m402.2 264 4-6.8 7.9 4.6-4 6.8z" fill="#d6d6d8"/><path d="m397.2 271.9 4.9-6.3 11.5 8.9-4.9 6.3z" fill="#d6d6d8"/><path d="m391.5 278.9 5.6-5.6 25.6 25.4-5.6 5.6z" fill="#d6d6d8"/><path d="m384.6 285.2 6.2-4.9 11.9 15-6.2 4.9z" fill="#d6d6d8"/><path d="m377.2 290.7 6.8-4.1 5.1 8.3-6.8 4.1z" fill="#d6d6d8"/><path d="m369.1 295.2 7.2-3.3.8 1.7-7.2 3.3z" fill="#d6d6d8"/><path d="m360.6 298.8 7.6-2.4 3.5 11-7.6 2.4z" fill="#d6d6d8"/><path d="m351.8 301.4 7.8-1.6.5 2.7-7.8 1.6z" fill="#d6d6d8"/><path d="m342.6 302.9 7.9-.7 3.5 40.9-7.9.7z" fill="#d6d6d8"/><path d="m332.5 333.2.8-29.7 7.9.2-.8 29.7z" fill="#d6d6d8"/><path d="m322.1 317.8 2-14.8 7.9 1.1-2 14.8z" fill="#d6d6d8"/><path d="m307.3 332.4 7.8-31 7.7 1.9-7.8 31z" fill="#d6d6d8"/><path d="m299.2 317.9 7-19 7.5 2.7-7 19z" fill="#d6d6d8"/><path d="m293.4 304.1 4.2-8.5 7.1 3.5-4.2 8.5z" fill="#d6d6d8"/><path d="m285.4 297.6 4.1-6.5 6.7 4.2-4.1 6.5z" fill="#d6d6d8"/><path d="m250.9 325.2 30.7-39 6.2 4.9-30.7 39z" fill="#d6d6d8"/><path d="m266.7 288.1 7.9-8.1 5.7 5.5-7.9 8.1z" fill="#d6d6d8"/><path d="m248.7 289.9 19.5-16.4 5.1 6.1-19.5 16.4z" fill="#d6d6d8"/><path d="m239 282.4 23.4-16 4.5 6.6-23.4 16z" fill="#d6d6d8"/><path d="m221.9 277.9 35.3-19.4 3.8 7-35.3 19.4z" fill="#d6d6d8"/><path d="m214.3 266.9 38.8-16.6 3.1 7.3-38.8 16.6z" fill="#d6d6d8"/><path d="m204.3 256 45.4-14.4 2.4 7.6-45.4 14.4z" fill="#d6d6d8"/><path d="m242.7 233.8 4.5-1 1.7 7.8-4.5 1z" fill="#d6d6d8"/><path d="m197.5 229.3 48.1-5.6.9 7.9-48.1 5.6z" fill="#d6d6d8"/><path d="m233.9 214.7 10.7-.2.2 7.9-10.7.2z" fill="#d6d6d8"/><path d="m210.5 210.9.6-7.9 33.5 2.4-.6 7.9z" fill="#b6adc7"/><path d="m195.1 195.8 1.3-7.8 49 8.1-1.3 7.8z" fill="#b6adc7"/><path d="m197.7 182.3 2-7.7 47.5 12.4-2 7.7z" fill="#b6adc7"/><path d="m225.4 177.8 2.7-7.5 21.7 7.8-2.7 7.5z" fill="#b6adc7"/><path d="m226.3 165.9 3.3-7.2 23.4 10.9-3.3 7.2z" fill="#b6adc7"/><path d="m231.1 155.2 4-6.9 22.2 12.8-4 6.9z" fill="#b6adc7"/><path d="m248.9 153.8 4.6-6.5 8.5 6-4.6 6.5z" fill="#b6adc7"/><path d="m258.1 148.3 5.1-6.1 4.3 3.6-5.1 6.1z" fill="#b6adc7"/><path d="m250.1 126.5 5.6-5.6 17.9 17.9-5.6 5.6z" fill="#b6adc7"/><path d="m258.1 118.4 6.1-5.1 16.1 19.2-6.1 5.1z" fill="#b6adc7"/><path d="m275.4 123.4 6.5-4.6 5.6 8-6.5 4.6z" fill="#b6adc7"/><path d="m271.9 97.3 6.9-4 16.5 28.4-6.9 4z" fill="#b6adc7"/><path d="m280.7 88.1 7.2-3.4 15.5 32.5-7.2 3.4z" fill="#b6adc7"/><path d="m290.1 78.7 7.4-2.8 14.1 37.4-7.4 2.8z" fill="#b6adc7"/><path d="m301.4 72.6 7.6-2.2 11.3 39.8-7.6 2.2z" fill="#b6adc7"/><path d="m315.9 80.5 7.8-1.5 5.8 29.1-7.8 1.5z" fill="#b6adc7"/><path d="m326.1 68.4 7.9-.9 4.4 38.9-7.9.9z" fill="#b6adc7"/><path d="m339.2 85.8 7.9-.3.7 20-7.9.3z" fill="#b6adc7"/><path d="m349.1 105 1.5-31.7 7.9.4-1.5 31.7z" fill="#b6adc7"/><path d="m358.9 105.7 1.9-14.6 7.9 1-1.9 14.6z" fill="#b6adc7"/><path d="m367.6 105.8 8.9-42.4 7.8 1.6-8.9 42.4z" fill="#b6adc7"/><path d="m376.8 107.3 3.4-11.4 7.6 2.2-3.4 11.4z" fill="#b6adc7"/><path d="m385.7 109.4 10.9-28.4 7.4 2.8-10.8 28.4z" fill="#b6adc7"/><path d="m394.6 112.3 15.5-32.8 7.2 3.4-15.5 32.8z" fill="#b6adc7"/><path d="m403.2 115.8 13.1-23 6.9 3.9-13.1 23z" fill="#b6adc7"/><path d="m411.4 120 18.3-27 6.6 4.5-18.3 27z" fill="#b6adc7"/><path d="m419.3 125 9.2-11.6 6.2 4.9-9.2 11.6z" fill="#b6adc7"/><path d="m426.8 130.4 8.8-9.5 5.8 5.4-8.8 9.5z" fill="#b6adc7"/><path d="m434 136.4 35.9-33.3 5.4 5.8-35.9 33.3z" fill="#b6adc7"/><path d="m440.4 143 1.3-1.1 5 6.2-1.3 1.1z" fill="#b6adc7"/><path d="m446.6 149.9 12.2-8.3 4.5 6.6-12.2 8.3z" fill="#b6adc7"/><g fill="#d6d6d8"><path d="m453.7 158.5 37.2-21.4 4 7-37.2 21.4z"/><path d="m457.3 165.1 15.2-7.4 3.5 7.1-15.2 7.4z"/><path d="m461.5 173.4 31.4-12.5 2.9 7.4-31.4 12.5z"/><path d="m465.3 181.7 1.8-.6 2.4 7.6-1.8.6z"/><path d="m468.4 190.5 19.9-4.7 1.8 7.7-19.9 4.7z"/><path d="m471.1 199.4 21.4-3.5 1.3 7.8-21.4 3.5z"/><path d="m473 208.5 50-4.6.7 7.9-50 4.6z"/><path d="m474.2 217.7 24.2-.5.2 7.9-24.2.5z"/><path d="m474.2 234.8.4-7.9 8.5.4-.4 7.9z"/><path d="m473.8 244.1 1-7.9 43.9 5.3-1 7.9z"/><path d="m472.5 253.4 1.5-7.8 11.1 2.1-1.5 7.8z"/><path d="m470.5 262.3 2-7.7 5 1.3-2 7.7z"/><path d="m468 271.2 2.6-7.5 45.2 15.4-2.6 7.5z"/><path d="m464.8 280 3.1-7.3 9.6 4-3.1 7.3z"/><path d="m461 288.3 3.6-7.1 18.4 9.3-3.6 7.1z"/><path d="m456.8 296.8 4.1-6.8 5.5 3.2-4.1 6.8z"/><path d="m451.9 304.5 4.5-6.5 31 21.3-4.5 6.5z"/><path d="m446.6 312 4.9-6.2 22 17.4-4.9 6.2z"/><path d="m440.7 319 5.3-5.9 23.3 21.1-5.3 5.9z"/><path d="m434.3 325.8 5.7-5.5 4.4 4.6-5.7 5.5z"/><path d="m427.5 332.1 6.1-5.1 20.2 23.9-6.1 5.1z"/><path d="m420.5 338 6.4-4.7 8.2 11.2-6.4 4.7z"/><path d="m412.4 342.1 6.7-4.3 25.5 39.7-6.7 4.3z"/><path d="m405 348.2 7-3.8 16.8 30.5-7 3.8z"/><path d="m396.8 352.5 7.2-3.4 17.7 37.7-7.2 3.4z"/><path d="m388.4 356.3 7.4-2.9 11.1 28.3-7.4 2.9z"/><path d="m379.7 359.6 7.6-2.4 11 34.5-7.6 2.4z"/><path d="m370.8 362.2 7.7-1.9 2.8 11.1-7.7 1.9z"/><path d="m361.8 364.4 7.8-1.4 8.5 46.3-7.8 1.4z"/><path d="m352.7 365.8 7.9-.9 5.8 49.2-7.9.9z"/><path d="m343.5 366.7 7.9-.4.1 1.9-7.9.4z"/></g><path d="m334.2 378.8.1-11.8 7.9.1-.1 11.8z" fill="#c5c5d1"/><path d="m323.4 387.7 1.5-20.9 7.9.6-1.5 20.9z" fill="#c5c5d1"/><path d="m311.8 395.4 4-29.5 7.9 1.1-4 29.5z" fill="#c5c5d1"/><path d="m305.4 370.7 1.2-5.9 7.8 1.6-1.2 5.9z" fill="#c5c5d1"/><path d="m289.1 394.6 8.4-31.9 7.7 2-8.4 31.9z" fill="#c5c5d1"/><path d="m283 377.5 5.8-17.3 7.5 2.5-5.8 17.3z" fill="#c5c5d1"/><path d="m262.2 401.3 17.8-44.3 7.4 3-17.8 44.3z" fill="#c5c5d1"/><path d="m270.4 355.9 1.2-2.4 7.2 3.4-1.2 2.4z" fill="#c5c5d1"/><path d="m260.8 353.7 2.4-4.3 6.9 3.8-2.4 4.3z" fill="#c5c5d1"/><path d="m242.9 363.9 12.2-19.2 6.7 4.3-12.2 19.2z" fill="#c5c5d1"/><path d="m224 372 23.3-32.2 6.4 4.7-23.3 32.2z" fill="#c5c5d1"/><path d="m239.7 334.5.3-.3 6.1 5-.3.3z" fill="#c5c5d1"/><path d="m201.9 361.8 31.1-33.6 5.8 5.4-31.1 33.6z" fill="#c5c5d1"/><path d="m192.2 354.5 34.1-32.7 5.5 5.7-34.1 32.7z" fill="#c5c5d1"/><path d="m216.2 318.3 3.9-3.3 5.1 6-3.9 3.3z" fill="#c5c5d1"/><path d="m204.7 314.9 9.3-7 4.8 6.3-9.3 7z" fill="#c5c5d1"/><path d="m166.6 328.3 42-27.9 4.4 6.6-42 27.9z" fill="#c5c5d1"/><path d="m196.9 296.5 6.7-3.9 4 6.9-6.7 3.9z" fill="#c5c5d1"/><path d="m176.3 296.1 22.8-11.6 3.6 7.1-22.8 11.6z" fill="#c5c5d1"/><path d="m192.7 277.3 2.5-1.1 3.2 7.3-2.5 1.1z" fill="#c5c5d1"/><path d="m167.8 276.4 23.8-8.7 2.7 7.5-23.8 8.7z" fill="#c5c5d1"/><path d="m144.6 272.2 43.8-13.3 2.3 7.6-43.8 13.3z" fill="#c5c5d1"/><path d="m184.6 250.5 1.3-.3 1.9 7.7-1.3.3z" fill="#c5c5d1"/><path d="m169.6 243.7 14.4-2.6 1.4 7.8-14.4 2.6z" fill="#c5c5d1"/><path d="m170.3 233.4 11.9-1.5 1 7.9-11.9 1.5z" fill="#c5c5d1"/><path d="m135.7 225.7 45.7-2.9.5 7.9-45.7 2.9z" fill="#c5c5d1"/><path d="m147.6 213.7 33.3-.2.1 7.9-33.3.2z" fill="#c5c5d1"/><path d="m156.8 211 .4-7.9 23.8 1.2-.4 7.9z" fill="#c5c5d1"/><path d="m152 199.9.8-7.9 28.7 3.1-.8 7.9z" fill="#c5c5d1"/><path d="m167.3 191.4 1.3-7.8 14.1 2.3-1.3 7.8z" fill="#c5c5d1"/><path d="m134 173.8 1.7-7.8 48.6 10.8-1.7 7.8z" fill="#8d84a5"/><path d="m164.3 169.8 2.2-7.6 20 5.6-2.2 7.6z" fill="#8d84a5"/><path d="m139.1 150.1 2.6-7.5 47.5 16.3-2.6 7.5z" fill="#8d84a5"/><path d="m148.3 141 3-7.4 41 16.7-3 7.4z" fill="#8d84a5"/><path d="m158.3 132.6 3.4-7.2 34.1 16.1-3.4 7.2z" fill="#8d84a5"/><path d="m153.7 117.2 3.8-7 42.4 23-3.8 7z" fill="#8d84a5"/><path d="m163 109.2 4.2-6.8 37.2 22.9-4.2 6.8z" fill="#8d84a5"/><path d="m192 115.1 4.5-6.5 12.8 8.9-4.5 6.5z" fill="#8d84a5"/><path d="m187.3 98.5 4.9-6.3 22.6 17.6-4.9 6.3z" fill="#8d84a5"/><path d="m212.3 106 5.2-6 3.1 2.7-5.2 6z" fill="#8d84a5"/><path d="m213 93.6 5.5-5.7 8.3 8-5.5 5.7z" fill="#8d84a5"/><path d="m220.3 87.1 5.8-5.4 7.1 7.7-5.8 5.4z" fill="#8d84a5"/><path d="m212.6 62.3 6.1-5.1 21.4 25.8-6.1 5.1z" fill="#8d84a5"/><path d="m212.8 44.2 6.4-4.7 28.1 37.9-6.4 4.7z" fill="#8d84a5"/><path d="m242.1 67 6.6-4.4 6.1 9.3-6.6 4.4z" fill="#8d84a5"/><path d="m243.4 49.6 6.8-4.1 12.2 20.6-6.8 4.1z" fill="#8d84a5"/><path d="m249.9 39.4 7-3.7 13.7 26.5-7 3.7z" fill="#8d84a5"/><path d="m262.3 40.9 7.2-3.3 9.3 20.5-7.2 3.3z" fill="#8d84a5"/><path d="m267.3 24.8 7.4-2.9 12.8 32.7-7.4 2.9z" fill="#8d84a5"/><path d="m285.7 44.7 7.5-2.5 3 9-7.5 2.5z" fill="#8d84a5"/><path d="m288.2 17.2 7.7-2.1 9.1 33.2-7.7 2.1z" fill="#8d84a5"/><path d="m299.3 16.5 7.8-1.7 6.8 31.3-7.8 1.7z" fill="#8d84a5"/><path d="m315.3 43 7.9-1.3.5 2.8-7.9 1.3z" fill="#8d84a5"/><path d="m321.7 21.2 7.9-.9 2.5 22.5-7.9.9z" fill="#8d84a5"/><path d="m331.7 14 7.9-.5 1.6 28.4-7.9.5z" fill="#8d84a5"/><path d="m342.4 4.2h7.9l.2 37.5h-7.9z" fill="#8d84a5"/><path d="m352.2 41.4.2-4.2 7.9.4-.2 4.2z" fill="#8d84a5"/><path d="m361.5 41.5.6-6.3 7.9.8-.6 6.3z" fill="#8d84a5"/><path d="m370.7 42.1 2-13.4 7.8 1.2-2 13.4z" fill="#8d84a5"/><path d="m379.9 43.3.8-3.7 7.8 1.6-.8 3.7z" fill="#8d84a5"/><path d="m389.1 44.9.6-2.5 7.7 2-.6 2.5z" fill="#8d84a5"/><path d="m398 47 2.1-6.5 7.6 2.4-2.1 6.5z" fill="#e0dfe5"/><path d="m407 49.4 12.6-34 7.4 2.8-12.6 34z" fill="#e0dfe5"/><path d="m415.8 52.4 9-20.9 7.3 3.1-9 20.9z" fill="#e0dfe5"/><path d="m424.4 55.8 14.9-30.3 7.1 3.5-14.9 30.3z" fill="#e0dfe5"/><path d="m432.8 59.6 8-14.3 6.9 3.9-8 14.3z" fill="#e0dfe5"/><path d="m441 63.8 7.6-12.1 6.7 4.2-7.6 12.1z" fill="#e0dfe5"/><path d="m449.1 68.6 24.4-35 6.5 4.5-24.4 35z" fill="#e0dfe5"/><path d="m456.9 73.6 13.2-17 6.3 4.9-13.2 17z" fill="#e0dfe5"/><path d="m464.3 79.1 28.5-33.3 6 5.2-28.5 33.3z" fill="#e0dfe5"/><path d="m471.5 84.8 7.3-7.7 5.8 5.5-7.3 7.7z" fill="#e0dfe5"/><path d="m478.5 90.9 2.4-2.3 5.5 5.7-2.4 2.3z" fill="#e0dfe5"/><path d="m485 97.5 10.9-9.5 5.2 6-10.9 9.5z" fill="#e0dfe5"/><path d="m491.3 104.4 22.4-17.6 4.9 6.2-22.4 17.6z" fill="#e0dfe5"/><path d="m497.3 111.4 22.8-16.2 4.6 6.5-22.8 16.2z" fill="#e0dfe5"/><path d="m501.8 117.2 2.8-1.8 4.3 6.7-2.8 1.8z" fill="#e0dfe5"/><path d="m508 126.5 7.2-4.1 3.9 6.9-7.2 4.1z" fill="#e0dfe5"/><path d="m512.9 134.3 9.1-4.6 3.6 7.1-9.1 4.6z" fill="#e0dfe5"/><path d="m517.2 142.5 18.8-8.4 3.2 7.2-18.8 8.4z" fill="#e0dfe5"/><path d="m521.3 150.8 42.3-16.5 2.9 7.4-42.3 16.5z" fill="#e0dfe5"/><path d="m524.9 159.4 14.7-4.9 2.5 7.5-14.7 4.9z" fill="#e0dfe5"/><path d="m528.2 168.1 46.9-13.2 2.2 7.6-46.9 13.2z" fill="#e0dfe5"/><path d="m530.8 177.1 33-7.6 1.8 7.7-33 7.6z" fill="#e0dfe5"/><path d="m533.2 186 47.2-8.5 1.4 7.8-47.2 8.5z" fill="#e0dfe5"/><path d="m535.2 195.1 5.1-.7 1 7.9-5.1.7z" fill="#e0dfe5"/><path d="m537.4 206.2 5.1-.4.6 8-5.1.4z" fill="#e0dfe5"/><path d="m538.9 211.4 7.6-.3.3 7.9-7.6.3z" fill="#e0dfe5"/><path d="m538.2 230.5.1-7.9 20 .2-.1 7.9z" fill="#e0dfe5"/><path d="m537.9 239.8.5-7.9 23.9 1.4-.5 7.9z" fill="#e0dfe5"/><path d="m537.3 249.1.8-7.9 17.9 1.9-.8 7.9z" fill="#e0dfe5"/><path d="m536 258.2 1.2-7.8 1 .2-1.2 7.8z" fill="#e0dfe5"/><path d="m534.6 267.3 1.6-7.8 2.6.5-1.6 7.8z" fill="#a59cb9"/><path d="m532.7 276.4 2-7.7 12.9 3.3-2 7.7z" fill="#a59cb9"/><path d="m530.2 285.3 2.3-7.6 25.9 7.9-2.3 7.6z" fill="#a59cb9"/><path d="m527.4 294.1 2.7-7.5 17.9 6.4-2.7 7.5z" fill="#a59cb9"/><path d="m524.3 302.8 3-7.3 15.3 6.3-3 7.3z" fill="#a59cb9"/><path d="m520.7 311.2 3.3-7.2 9.5 4.4-3.3 7.2z" fill="#a59cb9"/><path d="m516.7 319.6 3.7-7 7.6 4-3.7 7z" fill="#a59cb9"/><path d="m512.3 327.8 4-6.9 30.8 17.9-4 6.9z" fill="#a59cb9"/><path d="m507.5 335.7 4.3-6.7 38.9 25.2-4.3 6.7z" fill="#a59cb9"/><path d="m502.3 343.5 4.6-6.5 33.1 23.6-4.6 6.5z" fill="#a59cb9"/><path d="m497 350.9 4.9-6.2 4.6 3.6-4.9 6.2z" fill="#a59cb9"/><path d="m491.2 358.1 5.2-6 5.6 4.9-5.2 6z" fill="#a59cb9"/><text fill="#d1cdc9" font-family="'RobotoMono-Regular'" font-size="11.2506" transform="translate(336.9593 179.1997)">may</text><text fill="#d1cdc9" font-family="'RobotoMono-Regular'" font-size="11.2787" transform="matrix(.06982628 .9976 -.9976 .06982628 398.3228 212.1075)">jun</text><text fill="#d1cdc9" font-family="'RobotoMono-Regular'" font-size="11.2509" transform="matrix(.01553247 -.9999 .9999 .01553247 257.0714 214.4543)">jul</text><text fill="#d1cdc9" font-family="'RobotoMono-Regular'" font-size="11.2354" transform="matrix(.5408 .8412 -.8412 .5408 441.6068 162.9334)">aug</text><text fill="#d1cdc9" font-family="'RobotoMono-Regular'" font-size="11.2506" transform="matrix(-1 0 0 -1 343.034 355.2891)">sep</text><text fill="#d1cdc9" font-family="'RobotoMono-Regular'" font-size="11.2508" transform="matrix(.3317 -.9434 .9434 .3317 190.6684 186.5597)">oct</text><text fill="#d1cdc9" font-family="'RobotoMono-Regular'" font-size="11.2505" transform="matrix(.9358 .3525 -.3525 .9358 393.8551 56.6312)">nov</text><text fill="#d1cdc9" font-family="'RobotoMono-Regular'" font-size="11.2507" transform="matrix(-.2209 .9753 -.9753 -.2209 526.9094 256.065)">dec</text><path d="m895.8 169.6c24.1-4.7 48 8.5 59.6 29.5 12.7 23.3 9.2 52.5-6.5 73.5-15.1 20.1-39.8 31.3-64.9 30.9-28.1-.5-54.5-15.6-70.5-38.5-14.2-20.6-19.6-46.3-15.5-71 4.5-26.2 18.7-49.6 39.8-65.8 22.6-17.2 50.8-25.1 79.1-22.3 26.4 2.7 51.1 14 70.4 32.2 19.2 18.3 32.2 42.1 37.1 68.1 5.1 27.3 1.5 55.6-10.2 80.7-12.4 26-32.5 47.4-57.6 61.6-22.6 12.7-48.2 19.1-74.1 18.5-26.9-.7-53.1-8.5-75.9-22.7-23.6-14.8-42.9-35.6-55.6-60.4-13.2-25.6-19.3-54.4-17.6-83.2 1.6-27.7 10.2-54.5 24.8-77.9 14.2-22.6 33.3-41.7 56.2-55.6 23.5-14.3 50-22.8 77.4-25.1 28.2-2.2 56.5 2.2 82.6 12.9 26.8 11 50.7 28.2 69.7 50 18 20.7 31.3 45.2 38.9 71.6 7.4 25.9 9.4 53.1 5.9 79.8-5.2 37.5-20.8 72.8-45.4 101.6" fill="none" stroke="#b4b4b4" stroke-width="1.2697"/><path d="m887.8 142.7h7.9v26.9h-7.9z" fill="#8e86a5"/><path d="m897 168.4 1.1-42.1 7.9.2-1.1 42.1z" fill="#8e86a5"/><path d="m906.5 167.7 3.5-17.1 7.8 1.6-3.5 17.1z" fill="#8e86a5"/><path d="m915.8 168.8 14.2-36.8 7.4 2.9-14.2 36.7z" fill="#8e86a5"/><path d="m924.8 171.2 7.3-12.3 6.8 4-7.3 12.3z" fill="#8e86a5"/><path d="m933.1 175.3 3.7-4.5 6.1 5.1-3.7 4.5z" fill="#8e86a5"/><path d="m940.9 180.6 34.2-30 5.2 6-34.2 30z" fill="#8e86a5"/><path d="m947.7 187.1 17.8-11.4 4.3 6.7-17.8 11.4z" fill="#8e86a5"/><path d="m953.4 194.4 15.9-7.1 3.2 7.2-15.9 7.1z" fill="#8e86a5"/><path d="m957.9 202.7 38.9-11 2.2 7.6-38.9 11z" fill="#8e86a5"/><path d="m961.2 211.4 1.8-.2 1.1 7.9-1.8.2z" fill="#d6d6d8"/><path d="m961.8 219.7h49.9v7.9h-49.9z" fill="#d6d6d8"/><path d="m962.8 237.7 1.1-7.9 35.7 5-1.1 7.9z" fill="#d6d6d8"/><path d="m961.1 246.8 2.1-7.6 27.2 7.6-2.1 7.6z" fill="#d6d6d8"/><path d="m958.4 255.7 3.1-7.3 39.4 16.8-3.1 7.3z" fill="#d6d6d8"/><path d="m954.4 264 4-6.8 7.9 4.6-4 6.8z" fill="#d6d6d8"/><path d="m949.5 271.9 4.9-6.3 11.5 8.9-4.9 6.3z" fill="#d6d6d8"/><path d="m943.7 278.9 5.6-5.6 25.6 25.4-5.6 5.6z" fill="#d6d6d8"/><path d="m936.8 285.2 6.2-4.9 11.9 15-6.2 4.9z" fill="#d6d6d8"/><path d="m929.4 290.7 6.8-4.1 5.1 8.3-6.8 4.1z" fill="#d6d6d8"/><path d="m921.3 295.2 7.2-3.3.8 1.7-7.2 3.3z" fill="#d6d6d8"/><path d="m912.8 298.8 7.6-2.4 3.5 11-7.6 2.4z" fill="#d6d6d8"/><path d="m904 301.4 7.8-1.6.5 2.7-7.8 1.6z" fill="#d6d6d8"/><path d="m894.8 302.9 7.9-.7 3.5 40.9-7.9.7z" fill="#d6d6d8"/><path d="m884.7 333.2.8-29.7 7.9.2-.8 29.7z" fill="#d6d6d8"/><path d="m874.4 317.8 2-14.8 7.9 1.1-2 14.8z" fill="#d6d6d8"/><path d="m859.5 332.4 7.8-31 7.7 1.9-7.8 31z" fill="#d6d6d8"/><path d="m851.4 317.9 7-19 7.5 2.7-7 19z" fill="#d6d6d8"/><path d="m845.6 304.1 4.2-8.5 7.1 3.5-4.2 8.5z" fill="#d6d6d8"/><path d="m837.6 297.6 4.1-6.5 6.7 4.2-4.1 6.5z" fill="#d6d6d8"/><path d="m803.1 325.2 30.7-39 6.2 4.9-30.7 39z" fill="#d6d6d8"/><path d="m818.9 288.1 7.9-8.1 5.7 5.5-7.9 8.1z" fill="#d6d6d8"/><path d="m800.9 289.9 19.5-16.4 5.1 6.1-19.4 16.4z" fill="#d6d6d8"/><path d="m791.2 282.4 23.4-16 4.5 6.6-23.4 16z" fill="#d6d6d8"/><path d="m774.1 277.9 35.3-19.4 3.8 7-35.3 19.4z" fill="#d6d6d8"/><path d="m766.6 266.9 38.8-16.6 3.1 7.3-38.8 16.6z" fill="#d6d6d8"/><path d="m756.5 256 45.4-14.4 2.4 7.6-45.4 14.4z" fill="#d6d6d8"/><path d="m794.9 233.8 4.5-1 1.7 7.8-4.5 1z" fill="#d6d6d8"/><path d="m749.7 229.3 48.1-5.6.9 7.9-48.1 5.6z" fill="#d6d6d8"/><path d="m786.1 214.7 10.7-.2.2 7.9-10.7.2z" fill="#d6d6d8"/><path d="m762.7 210.9.6-7.9 33.5 2.4-.6 7.9z" fill="#b6adc7"/><path d="m747.4 195.8 1.3-7.8 49 8.1-1.3 7.8z" fill="#b6adc7"/><path d="m749.9 182.3 2-7.7 47.5 12.4-2 7.7z" fill="#b6adc7"/><path d="m777.6 177.8 2.7-7.5 21.7 7.8-2.7 7.5z" fill="#b6adc7"/><path d="m778.5 165.9 3.3-7.2 23.4 10.9-3.3 7.2z" fill="#b6adc7"/><path d="m783.3 155.2 4-6.9 22.2 12.8-4 6.9z" fill="#b6adc7"/><path d="m801.1 153.8 4.6-6.5 8.5 6-4.6 6.5z" fill="#b6adc7"/><path d="m810.3 148.3 5.1-6.1 4.3 3.6-5.1 6.1z" fill="#b6adc7"/><path d="m802.3 126.5 5.6-5.6 17.9 17.9-5.6 5.6z" fill="#b6adc7"/><path d="m810.4 118.4 6.1-5.1 16.1 19.2-6.1 5.1z" fill="#b6adc7"/><path d="m827.7 123.4 6.5-4.6 5.6 8-6.5 4.6z" fill="#b6adc7"/><path d="m824.1 97.3 6.9-4 16.5 28.4-6.9 4z" fill="#b6adc7"/><path d="m832.9 88.1 7.2-3.4 15.5 32.5-7.2 3.4z" fill="#b6adc7"/><path d="m842.3 78.7 7.4-2.8 14.1 37.4-7.4 2.8z" fill="#b6adc7"/><path d="m853.6 72.6 7.6-2.2 11.3 39.8-7.6 2.2z" fill="#b6adc7"/><path d="m868.1 80.5 7.8-1.5 5.8 29.1-7.8 1.5z" fill="#b6adc7"/><path d="m878.4 68.4 7.9-.9 4.4 38.9-7.9.9z" fill="#b6adc7"/><path d="m891.4 85.8 7.9-.3.7 20-7.9.3z" fill="#b6adc7"/><path d="m901.3 105 1.5-31.7 7.9.4-1.5 31.7z" fill="#b6adc7"/><path d="m911.1 105.7 1.9-14.6 7.9 1-1.9 14.6z" fill="#b6adc7"/><path d="m919.8 105.8 8.9-42.4 7.8 1.6-8.9 42.4z" fill="#b6adc7"/><path d="m929 107.3 3.4-11.4 7.6 2.2-3.4 11.4z" fill="#b6adc7"/><path d="m938 109.4 10.8-28.4 7.4 2.8-10.8 28.4z" fill="#b6adc7"/><path d="m946.8 112.3 15.5-32.8 7.2 3.4-15.5 32.8z" fill="#b6adc7"/><path d="m955.4 115.8 13.1-23 6.9 3.9-13.1 23z" fill="#b6adc7"/><path d="m963.6 120 18.3-27 6.6 4.5-18.3 27z" fill="#b6adc7"/><path d="m971.5 125 9.2-11.6 6.2 4.9-9.2 11.6z" fill="#b6adc7"/><path d="m979 130.4 8.8-9.5 5.8 5.4-8.8 9.5z" fill="#b6adc7"/><path d="m986.2 136.4 35.9-33.3 5.4 5.8-35.9 33.3z" fill="#b6adc7"/><path d="m992.7 143 1.3-1.1 5 6.2-1.3 1.1z" fill="#b6adc7"/><path d="m998.8 149.9 12.2-8.3 4.5 6.6-12.2 8.3z" fill="#b6adc7"/><path d="m1005.9 158.5 37.2-21.4 4 7-37.2 21.4z" fill="#d6d6d8"/><path d="m1009.5 165.1 15.2-7.4 3.5 7.1-15.2 7.4z" fill="#d6d6d8"/><path d="m1013.7 173.4 31.4-12.5 2.9 7.4-31.4 12.5z" fill="#d6d6d8"/><path d="m1017.6 181.7 1.8-.6 2.4 7.6-1.8.6z" fill="#d6d6d8"/><path d="m1020.7 190.5 19.9-4.7 1.8 7.7-19.9 4.7z" fill="#d6d6d8"/><path d="m1023.3 199.4 21.4-3.5 1.3 7.8-21.4 3.5z" fill="#d6d6d8"/><path d="m1025.2 208.5 50-4.6.7 7.9-50 4.6z" fill="#d6d6d8"/><path d="m1026.4 217.7 24.2-.5.2 7.9-24.2.5z" fill="#d6d6d8"/><path d="m1026.5 234.8.4-7.9 8.5.4-.4 7.9z" fill="#d6d6d8"/><path d="m1026 244.1 1-7.9 43.9 5.3-1 7.9z" fill="#d6d6d8"/><path d="m1024.7 253.4 1.5-7.8 11.1 2.1-1.5 7.8z" fill="#d6d6d8"/><path d="m1022.7 262.3 2-7.7 5 1.3-2 7.7z" fill="#d6d6d8"/><path d="m1020.2 271.2 2.6-7.5 45.2 15.4-2.6 7.5z" fill="#d6d6d8"/><path d="m1017 280 3.1-7.3 9.6 4-3.1 7.3z" fill="#d6d6d8"/><path d="m1013.2 288.3 3.6-7.1 18.4 9.3-3.6 7.1z" fill="#d6d6d8"/><path d="m1009 296.8 4.1-6.8 5.5 3.2-4.1 6.8z" fill="#d6d6d8"/><path d="m1004.1 304.5 4.5-6.5 31 21.3-4.5 6.5z" fill="#d6d6d8"/><path d="m998.8 312 4.9-6.2 22 17.4-4.9 6.2z" fill="#d6d6d8"/><path d="m992.9 319 5.3-5.9 23.3 21.1-5.3 5.9z" fill="#d6d6d8"/><path d="m986.5 325.8 5.7-5.5 4.4 4.6-5.7 5.5z" fill="#d6d6d8"/><path d="m979.7 332.1 6.1-5.1 20.2 23.9-6.1 5.1z" fill="#d6d6d8"/><path d="m972.7 338 6.4-4.7 8.2 11.2-6.4 4.7z" fill="#d6d6d8"/><path d="m964.6 342.1 6.7-4.3 25.5 39.7-6.7 4.3z" fill="#d6d6d8"/><path d="m957.2 348.2 7-3.8 16.8 30.5-7 3.8z" fill="#d6d6d8"/><path d="m949 352.5 7.2-3.4 17.7 37.7-7.2 3.4z" fill="#d6d6d8"/><path d="m940.6 356.3 7.4-2.9 11.1 28.3-7.4 2.9z" fill="#d6d6d8"/><path d="m931.9 359.6 7.6-2.4 11 34.5-7.6 2.4z" fill="#d6d6d8"/><path d="m923 362.2 7.7-1.9 2.8 11.1-7.7 1.9z" fill="#d6d6d8"/><path d="m914 364.4 7.8-1.4 8.5 46.3-7.8 1.4z" fill="#d6d6d8"/><path d="m904.9 365.8 7.9-.9 5.8 49.2-7.9.9z" fill="#d6d6d8"/><path d="m895.7 366.7 7.9-.4.1 1.9-7.9.4z" fill="#d6d6d8"/><path d="m886.4 378.8.1-11.8 7.9.1-.1 11.8z" fill="#c5c5d1"/><path d="m875.7 387.7 1.5-20.9 7.9.6-1.5 20.9z" fill="#c5c5d1"/><path d="m864 395.4 4-29.5 7.9 1.1-4 29.5z" fill="#c5c5d1"/><path d="m857.6 370.7 1.2-5.9 7.8 1.6-1.2 5.9z" fill="#c5c5d1"/><path d="m841.4 394.6 8.4-31.9 7.7 2-8.4 31.9z" fill="#c5c5d1"/><path d="m835.2 377.5 5.8-17.3 7.5 2.5-5.8 17.3z" fill="#c5c5d1"/><path d="m814.4 401.3 17.8-44.3 7.4 3-17.8 44.3z" fill="#c5c5d1"/><path d="m822.6 355.9 1.2-2.4 7.2 3.4-1.2 2.4z" fill="#c5c5d1"/><path d="m813 353.7 2.4-4.3 6.9 3.8-2.4 4.3z" fill="#c5c5d1"/><path d="m795.1 363.9 12.2-19.2 6.7 4.3-12.2 19.2z" fill="#c5c5d1"/><path d="m776.2 372 23.3-32.2 6.4 4.7-23.3 32.2z" fill="#c5c5d1"/><path d="m791.9 334.5.3-.3 6.1 5-.3.3z" fill="#c5c5d1"/><path d="m754.1 361.8 31.1-33.6 5.8 5.4-31.1 33.6z" fill="#c5c5d1"/><path d="m744.4 354.5 34.1-32.7 5.5 5.7-34.1 32.7z" fill="#c5c5d1"/><path d="m768.4 318.3 3.9-3.3 5.1 6-3.9 3.3z" fill="#c5c5d1"/><path d="m757 314.9 9.3-7 4.8 6.3-9.3 7z" fill="#c5c5d1"/><path d="m718.8 328.3 42-27.9 4.4 6.6-42 27.9z" fill="#c5c5d1"/><path d="m749.1 296.5 6.7-3.9 4 6.9-6.7 3.9z" fill="#c5c5d1"/><path d="m728.5 296.1 22.8-11.6 3.6 7.1-22.8 11.6z" fill="#c5c5d1"/><path d="m744.9 277.3 2.5-1.1 3.2 7.3-2.5 1.1z" fill="#c5c5d1"/><path d="m720 276.4 23.8-8.7 2.7 7.5-23.8 8.7z" fill="#c5c5d1"/><path d="m696.8 272.2 43.8-13.3 2.3 7.6-43.8 13.3z" fill="#c5c5d1"/><path d="m736.8 250.5 1.3-.3 1.9 7.7-1.3.3z" fill="#c5c5d1"/><path d="m721.8 243.7 14.4-2.6 1.4 7.8-14.4 2.6z" fill="#c5c5d1"/><path d="m722.5 233.4 11.9-1.5 1 7.9-11.9 1.5z" fill="#c5c5d1"/><path d="m687.9 225.7 45.7-2.9.5 7.9-45.7 2.9z" fill="#c5c5d1"/><path d="m699.8 213.7 33.3-.2.1 7.9-33.3.2z" fill="#c5c5d1"/><path d="m709 211 .4-7.9 23.8 1.2-.4 7.9z" fill="#c5c5d1"/><path d="m704.2 199.9.8-7.9 28.7 3.1-.8 7.9z" fill="#c5c5d1"/><path d="m719.6 191.4 1.3-7.8 14.1 2.3-1.3 7.8z" fill="#c5c5d1"/><path d="m686.3 173.8 1.7-7.8 48.6 10.8-1.7 7.8z" fill="#8d84a5"/><path d="m716.5 169.8 2.2-7.6 20 5.6-2.2 7.6z" fill="#8d84a5"/><path d="m691.3 150.1 2.6-7.5 47.5 16.3-2.6 7.5z" fill="#8d84a5"/><path d="m700.6 141 3-7.4 41 16.7-3 7.4z" fill="#8d84a5"/><path d="m710.5 132.6 3.4-7.2 34.1 16.1-3.4 7.2z" fill="#8d84a5"/><path d="m705.9 117.2 3.8-7 42.4 23-3.8 7z" fill="#8d84a5"/><path d="m715.2 109.2 4.2-6.8 37.2 22.9-4.2 6.8z" fill="#8d84a5"/><path d="m744.2 115.1 4.5-6.5 12.8 8.9-4.5 6.5z" fill="#8d84a5"/><path d="m739.5 98.5 4.9-6.3 22.6 17.6-4.9 6.3z" fill="#8d84a5"/><path d="m764.5 106 5.2-6 3.1 2.7-5.2 6z" fill="#8d84a5"/><path d="m765.2 93.6 5.5-5.7 8.3 8-5.5 5.7z" fill="#8d84a5"/><path d="m772.5 87.1 5.8-5.4 7.1 7.7-5.8 5.4z" fill="#8d84a5"/><path d="m764.8 62.3 6.1-5.1 21.4 25.8-6.1 5.1z" fill="#8d84a5"/><path d="m765.1 44.2 6.4-4.7 28.1 37.9-6.4 4.7z" fill="#8d84a5"/><path d="m794.3 67 6.6-4.4 6.1 9.3-6.6 4.4z" fill="#8d84a5"/><path d="m795.6 49.6 6.8-4.1 12.2 20.6-6.8 4.1z" fill="#8d84a5"/><path d="m802.1 39.4 7-3.7 13.7 26.5-7 3.7z" fill="#8d84a5"/><path d="m814.5 40.9 7.2-3.3 9.3 20.5-7.2 3.3z" fill="#8d84a5"/><path d="m819.5 24.8 7.4-2.9 12.8 32.7-7.4 2.9z" fill="#8d84a5"/><path d="m837.9 44.7 7.5-2.5 3 9-7.5 2.5z" fill="#8d84a5"/><path d="m840.4 17.2 7.7-2.1 9.1 33.2-7.7 2.1z" fill="#8d84a5"/><path d="m851.6 16.5 7.8-1.7 6.8 31.3-7.8 1.7z" fill="#8d84a5"/><path d="m867.5 43 7.9-1.3.5 2.8-7.9 1.3z" fill="#8d84a5"/><path d="m873.9 21.2 7.9-.9 2.5 22.5-7.9.9z" fill="#8d84a5"/><path d="m884 14 7.9-.5 1.6 28.4-7.9.5z" fill="#8d84a5"/><path d="m894.6 4.2h7.9l.2 37.5h-7.9z" fill="#8d84a5"/><path d="m904.5 41.4.2-4.2 7.9.4-.2 4.2z" fill="#8d84a5"/><path d="m913.7 41.5.6-6.3 7.9.8-.6 6.3z" fill="#8d84a5"/><path d="m922.9 42.1 2-13.4 7.8 1.2-2 13.4z" fill="#8d84a5"/><path d="m932.1 43.3.8-3.7 7.8 1.6-.8 3.7z" fill="#8d84a5"/><path d="m941.3 44.9.6-2.5 7.7 2-.6 2.5z" fill="#8d84a5"/><path d="m950.2 47 2.1-6.5 7.6 2.4-2.1 6.5z" fill="#e0dfe5"/><path d="m959.2 49.4 12.6-34 7.4 2.8-12.6 34z" fill="#e0dfe5"/><path d="m968.1 52.4 9-20.9 7.3 3.1-9 20.9z" fill="#e0dfe5"/><path d="m976.6 55.8 14.9-30.3 7.1 3.5-14.9 30.3z" fill="#e0dfe5"/><path d="m985.1 59.6 8-14.3 6.9 3.9-8 14.3z" fill="#e0dfe5"/><path d="m993.2 63.8 7.6-12.1 6.7 4.2-7.6 12.1z" fill="#e0dfe5"/><path d="m1001.3 68.6 24.4-35 6.5 4.5-24.4 35z" fill="#e0dfe5"/><path d="m1009.1 73.6 13.2-17 6.3 4.9-13.2 17z" fill="#e0dfe5"/><path d="m1016.5 79.1 28.5-33.3 6 5.2-28.5 33.3z" fill="#e0dfe5"/><path d="m1023.8 84.8 7.3-7.7 5.8 5.5-7.3 7.7z" fill="#e0dfe5"/><path d="m1030.7 90.9 2.4-2.3 5.5 5.7-2.4 2.3z" fill="#e0dfe5"/><path d="m1037.2 97.5 10.9-9.5 5.2 6-10.9 9.5z" fill="#e0dfe5"/><path d="m1043.5 104.4 22.4-17.6 4.9 6.2-22.4 17.6z" fill="#e0dfe5"/><path d="m1049.5 111.4 22.8-16.2 4.6 6.5-22.8 16.2z" fill="#e0dfe5"/><path d="m1054 117.2 2.8-1.8 4.3 6.7-2.8 1.8z" fill="#e0dfe5"/><path d="m1060.2 126.5 7.2-4.1 3.9 6.9-7.2 4.1z" fill="#e0dfe5"/><path d="m1065.1 134.3 9.1-4.6 3.6 7.1-9.1 4.6z" fill="#e0dfe5"/><path d="m1069.5 142.5 18.8-8.4 3.2 7.2-18.8 8.4z" fill="#e0dfe5"/><path d="m1073.6 150.8 42.3-16.5 2.9 7.4-42.3 16.5z" fill="#e0dfe5"/><path d="m1077.1 159.4 14.7-4.9 2.5 7.5-14.7 4.9z" fill="#e0dfe5"/><path d="m1080.4 168.1 46.9-13.2 2.2 7.6-46.9 13.2z" fill="#e0dfe5"/><path d="m1083 177.1 33-7.6 1.8 7.7-33 7.6z" fill="#e0dfe5"/><path d="m1085.4 186 47.2-8.5 1.4 7.8-47.2 8.5z" fill="#e0dfe5"/><path d="m1087.4 195.1 5.1-.7 1 7.9-5.1.7z" fill="#e0dfe5"/><path d="m1089.7 206.2 5.1-.4.6 8-5.1.4z" fill="#e0dfe5"/><path d="m1091.1 211.4 7.6-.3.3 7.9-7.6.3z" fill="#e0dfe5"/><path d="m1090.4 230.5.1-7.9 20 .2-.1 7.9z" fill="#e0dfe5"/><path d="m1090.1 239.8.5-7.9 23.9 1.4-.5 7.9z" fill="#e0dfe5"/><path d="m1089.5 249.1.8-7.9 17.9 1.9-.8 7.9z" fill="#e0dfe5"/><path d="m1088.3 258.2 1.2-7.8 1 .2-1.2 7.8z" fill="#e0dfe5"/><path d="m1086.8 267.3 1.6-7.8 2.6.5-1.6 7.8z" fill="#a59cb9"/><path d="m1084.9 276.4 2-7.7 12.9 3.3-2 7.7z" fill="#a59cb9"/><path d="m1082.4 285.3 2.3-7.6 25.9 7.9-2.3 7.6z" fill="#a59cb9"/><path d="m1079.6 294.1 2.7-7.5 17.9 6.4-2.7 7.5z" fill="#a59cb9"/><path d="m1076.5 302.8 3-7.3 15.3 6.3-3 7.3z" fill="#a59cb9"/><path d="m1072.9 311.2 3.3-7.2 9.5 4.4-3.3 7.2z" fill="#a59cb9"/><path d="m1068.9 319.6 3.7-7 7.6 4-3.7 7z" fill="#a59cb9"/><path d="m1064.6 327.8 4-6.9 30.8 17.9-4 6.9z" fill="#a59cb9"/><path d="m1059.7 335.7 4.3-6.7 38.9 25.2-4.3 6.7z" fill="#a59cb9"/><path d="m1054.6 343.5 4.6-6.5 33.1 23.6-4.6 6.5z" fill="#a59cb9"/><path d="m1049.2 350.9 4.9-6.2 4.6 3.6-4.9 6.2z" fill="#a59cb9"/><path d="m1043.4 358.1 5.2-6 5.6 4.9-5.2 6z" fill="#a59cb9"/><text fill="#d1cdc9" font-family="'RobotoMono-Regular'" font-size="11.2506" transform="translate(889.1741 179.1997)">may</text><text fill="#d1cdc9" font-family="'RobotoMono-Regular'" font-size="11.2787" transform="matrix(.06982628 .9976 -.9976 .06982628 950.5374 212.1076)">jun</text><text fill="#d1cdc9" font-family="'RobotoMono-Regular'" font-size="11.2509" transform="matrix(.01553247 -.9999 .9999 .01553247 809.2862 214.4543)">jul</text><text fill="#d1cdc9" font-family="'RobotoMono-Regular'" font-size="11.2354" transform="matrix(.5408 .8412 -.8412 .5408 993.8216 162.9335)">aug</text><text fill="#d1cdc9" font-family="'RobotoMono-Regular'" font-size="11.2506" transform="matrix(-1 0 0 -1 895.2473 355.2891)">sep</text><text fill="#d1cdc9" font-family="'RobotoMono-Regular'" font-size="11.2508" transform="matrix(.3317 -.9434 .9434 .3317 742.8829 186.5592)">oct</text><text fill="#d1cdc9" font-family="'RobotoMono-Regular'" font-size="11.2505" transform="matrix(.9358 .3525 -.3525 .9358 946.0699 56.6312)">nov</text><text fill="#d1cdc9" font-family="'RobotoMono-Regular'" font-size="11.2507" transform="matrix(-.2209 .9753 -.9753 -.2209 1079.125 256.0654)">dec</text></svg>