<svg height="256" viewBox="0 0 256 256" width="256" xmlns="http://www.w3.org/2000/svg"><path d="m240.3 243.7v5h-230.7v-5h.1v-226.8h5v226.8zm-211.3-93.2c2.2 0 5-.9 13.9-11.5a179.5 179.5 0 0 0 13.5-18 68.9 68.9 0 0 1 6.1 8.3c5.3 8.1 11.3 17.2 19.5 17.2 15.6 0 38.4-37.5 41.4-51.6s10.7-23.4 15.4-23.4h.1c14.4.3 20.8 28.3 24.7 45.1 1.4 6.1 2.5 11 3.8 13.8 9.7 20.9 22.8 26.3 34.7 26.3 7.7 0 14.8-2.3 20.2-3.9 2.8-.9 5.8-1.8 7.2-1.8v-9c-2.8 0-5.9 1-9.9 2.2-13.3 4.1-31.4 9.7-44-17.6-.9-2-2.1-6.9-3.2-12.1-4.8-20.5-11.9-51.5-33.3-52-11.2-.2-21.2 15.4-24.5 30.6-1.3 6.2-7.4 17.8-14.4 27.5-8.3 11.6-15.3 16.9-18.2 16.9s-8.7-8.2-12-13.1c-4.8-7.3-8.6-13-14-13-1.9 0-4.6.7-6.8 4.2-7.2 11.2-18.8 24.7-21.5 26.2 0-.1.5-.3 1.3-.3z"/></svg>