<svg enable-background="new 0 0 1268 418" viewBox="0 0 1268 418" xmlns="http://www.w3.org/2000/svg"><path d="m49.8 14.9 921.2 12v368.6l-921.2-12z" fill="none"/><path d="m61.1 319h67.7v64.5h-67.7z" fill="#a59cb9"/><path d="m61.1 215.5h67.7v103.5h-67.7z" fill="#c3bece"/><path d="m61.1 161.5h67.7v55.7h-67.7z" fill="#d2d2d8"/><path d="m152.2 268.6 67.7-.2.5 114.9-67.7.2z" fill="#a59cb9"/><path d="m151.8 110.4 67.7-.2.6 158.2-67.7.2z" fill="#c3bece"/><path d="m151.3 41.7 67.7-.2.2 68.9-67.7.2z" fill="#d2d2d8"/><path d="m245.3 203.2h67.7v180.4h-67.7z" fill="#a59cb9"/><path d="m245.3 85h67.7v118.1h-67.7z" fill="#c3bece"/><path d="m245.3 14.9h67.7v69.9h-67.7z" fill="#d2d2d8"/><path d="m337.4 341.3h67.6v42.4h-67.7z" fill="#a59cb9"/><path d="m337.4 171.7h67.6v169.5h-67.7z" fill="#c3bece"/><path d="m337.4 53.2h67.6v120.2h-67.7z" fill="#d2d2d8"/><path d="m429.5 263.8h67.7v119.7h-67.7z" fill="#a59cb9"/><path d="m429.5 153.1h67.7v110.5h-67.7z" fill="#c3bece"/><path d="m429.5 90.8h67.7v62.7h-67.7z" fill="#d2d2d8"/><path d="m521.7 328.4h67.7v55.2h-67.7z" fill="#a59cb9"/><path d="m521.7 215.5h67.7v112.9h-67.7z" fill="#c3bece"/><path d="m521.7 133h67.7v83.1h-67.7z" fill="#d2d2d8"/><path d="m613.7 196.1h67.8v187.5h-67.7z" fill="#a59cb9"/><path d="m613.7 82.4h67.8v113.6h-67.7z" fill="#c3bece"/><path d="m613.7 20.4h67.8v65.4h-67.7z" fill="#d2d2d8"/><path d="m705.9 344.3h67.7v39.2h-67.7z" fill="#a59cb9"/><path d="m705.9 282.2h67.7v62.2h-67.7z" fill="#c3bece"/><path d="m705.9 220.8h67.7v62.2h-67.7z" fill="#d2d2d8"/><path d="m798.1 227h67.5v156.5h-67.7v-156.5z" fill="#a59cb9"/><path d="m798.1 190.2h67.5v36.8h-67.7v-36.8z" fill="#c3bece"/><path d="m798.1 154.2h67.5v36.8h-67.7v-36.8z" fill="#d2d2d8"/><path d="m890.1 278.5h67.7v105.2h-67.7z" fill="#a59cb9"/><path d="m890.1 246.4h67.7v32.2h-67.7z" fill="#c3bece"/><path d="m890.1 217.3h67.7v32.2h-67.7z" fill="#d2d2d8"/><g transform="translate(.5 200.5)"><g fill="none" stroke="#ccc" stroke-width="1.8"><path d="m94.5 184.1v9.1"/><path d="m186.7 184.1v9.1"/><path d="m278.7 184.1v9.1"/><path d="m370.9 184.1v9.1"/><path d="m463.1 184.1v9.1"/><path d="m555 184.1v9.1"/><path d="m647.1 184.1v9.1"/><path d="m739.2 184.1v9.1"/><path d="m831.3 184.1v9.1"/><path d="m923.5 184.1v9.1"/></g><text fill="#ccc" font-family="'Helvetica'" font-size="16" transform="translate(89.347 211.5873)">0</text><text fill="#ccc" font-family="'Helvetica'" font-size="16" transform="translate(181.4676 211.5873)">1</text><text fill="#ccc" font-family="'Helvetica'" font-size="16" transform="translate(273.5882 211.5873)">2</text><text fill="#ccc" font-family="'Helvetica'" font-size="16" transform="translate(365.7088 211.5873)">3</text><text fill="#ccc" font-family="'Helvetica'" font-size="16" transform="translate(457.8294 211.5873)">4</text><text fill="#ccc" font-family="'Helvetica'" font-size="16" transform="translate(549.9485 211.5873)">5</text><text fill="#ccc" font-family="'Helvetica'" font-size="16" transform="translate(642.0687 211.5873)">6</text><text fill="#ccc" font-family="'Helvetica'" font-size="16" transform="translate(734.1898 211.5873)">7</text><text fill="#ccc" font-family="'Helvetica'" font-size="16" transform="translate(826.3108 211.5873)">8</text><text fill="#ccc" font-family="'Helvetica'" font-size="16" transform="translate(918.431 211.5873)">9</text><path d="m49.3-185.6h1196.9v368.6h-1196.9" fill="none"/><path d="m981.1 92.7h67.7v90.3h-67.7z" fill="#a59cb9"/><path d="m981.1 36.9h67.7v56h-67.7z" fill="#c3bece"/><path d="m981.1-83.3h67.7v120.5h-67.7z" fill="#d2d2d8"/><path d="m1073.3 64.1h67.5v118.9h-67.7v-118.9z" fill="#a59cb9"/><path d="m1073.3-10.3h67.5v74.4h-67.7v-74.4z" fill="#c3bece"/><path d="m1073.3-46.3h67.5v36.8h-67.7v-36.8z" fill="#d2d2d8"/><path d="m1165.3 99.8h67.7v83.4h-67.7z" fill="#a59cb9"/><path d="m1165.3 61.9h67.7v38h-67.7z" fill="#c3bece"/><path d="m1165.3 51.3h67.7v11.2h-67.7z" fill="#d2d2d8"/><path d="m922.8 184.1v9.1" fill="none" stroke="#ccc" stroke-width="1.8"/><path d="m1014.9 184.1v9.1" fill="none" stroke="#ccc" stroke-width="1.8"/><path d="m1107 184.1v9.1" fill="none" stroke="#ccc" stroke-width="1.8"/><path d="m1199.2 184.1v9.1" fill="none" stroke="#ccc" stroke-width="1.8"/><text fill="#ccc" font-family="'Helvetica'" font-size="16" transform="translate(1006.0117 211.5873)">10</text><text fill="#ccc" font-family="'Helvetica'" font-size="16" transform="translate(1098.1327 211.5873)">11</text><text fill="#ccc" font-family="'Helvetica'" font-size="16" transform="translate(1190.2529 211.5873)">12</text><path d="m50.3 184.1h1195.9" fill="none" stroke="#ccc" stroke-width="1.8"/></g><g transform="translate(.5 .5)"><g fill="none" stroke="#ccc" stroke-width="1.8"><path d="m50.3 384.1h-9.4"/><path d="m50.3 337.9h-9.4"/><path d="m50.3 291.9h-9.4"/><path d="m50.3 245.9h-9.4"/><path d="m50.3 199.7h-9.4"/><path d="m50.3 153.7h-9.4"/><path d="m50.3 107.7h-9.4"/><path d="m50.3 61.5h-9.4"/><path d="m50.3 15.5h-9.4"/></g><text fill="#ccc" font-family="'Helvetica'" font-size="16" transform="translate(27.1102 389.4779)">0</text><text fill="#ccc" font-family="'Helvetica'" font-size="16" transform="translate(16.8636 343.4184)">20</text><text fill="#ccc" font-family="'Helvetica'" font-size="16" transform="translate(16.8636 297.3568)">40</text><text fill="#ccc" font-family="'Helvetica'" font-size="16" transform="translate(16.8636 251.2982)">60</text><text fill="#ccc" font-family="'Helvetica'" font-size="16" transform="translate(16.8636 205.2367)">80</text><text fill="#ccc" font-family="'Helvetica'" font-size="16" transform="translate(6.6175 159.1781)">100</text><text fill="#ccc" font-family="'Helvetica'" font-size="16" transform="translate(6.6175 113.1171)">120</text><text fill="#ccc" font-family="'Helvetica'" font-size="16" transform="translate(6.6175 67.0575)">140</text><text fill="#ccc" font-family="'Helvetica'" font-size="16" transform="translate(6.6175 20.9975)">160</text><path d="m50.3 384.1v-368.6" fill="none" stroke="#ccc" stroke-width="1.8"/></g></svg>