<?xml version="1.0" encoding="utf-8"?>
<!-- Generator: Adobe Illustrator 24.0.1, SVG Export Plug-In . SVG Version: 6.00 Build 0)  -->
<svg version="1.1" id="Layer_1" xmlns="http://www.w3.org/2000/svg" xmlns:xlink="http://www.w3.org/1999/xlink" x="0px" y="0px"
	 viewBox="0 0 1268 418" style="enable-background:new 0 0 1268 418;" xml:space="preserve">
<style type="text/css">
	.st0{fill:none;stroke:#A0A0A0;stroke-width:1.3149;stroke-linecap:round;stroke-linejoin:round;}
	.st1{fill:#AFAEAE;}
	.st2{font-family:'RobotoMono-Regular';}
	.st3{font-size:18px;}
	.st4{fill:#B5AEC7;}
	.st5{fill:#E8E8E8;}
	.st6{fill:#A39CB9;}
	.st7{font-size:24px;}
</style>
<title>multi-color-scatterplot</title>
<path class="st0" d="M263,386.8h728.2V2.8H263V386.8z"/>
<path class="st0" d="M358.4,387.8v10.6"/>
<path class="st0" d="M551,387.8v10.6"/>
<path class="st0" d="M744.3,387.8v10.6"/>
<path class="st0" d="M937.5,387.8v10.6"/>
<path class="st0" d="M263,50.9h-15.6"/>
<path class="st0" d="M263,245.6h-15.6"/>
<path class="st0" d="M263,343.1h-15.6"/>
<path class="st0" d="M263,148.3h-15.6"/>
<text transform="matrix(1 0 0 1 346.1567 416.4482)" class="st1 st2 st3">10</text>
<text transform="matrix(1 0 0 1 538.7817 416.4482)" class="st1 st2 st3">20</text>
<text transform="matrix(1 0 0 1 732.0654 416.4482)" class="st1 st2 st3">30</text>
<text transform="matrix(1 0 0 1 925.3506 416.4482)" class="st1 st2 st3">40</text>
<text transform="matrix(6.123234e-17 -1 1 6.123234e-17 239.0513 256.9385)" class="st1 st2 st3">20</text>
<text transform="matrix(6.123234e-17 -1 1 6.123234e-17 239.0513 61.5498)" class="st1 st2 st3">40</text>
<text transform="matrix(6.123234e-17 -1 1 6.123234e-17 239.0513 159.2461)" class="st1 st2 st3">30</text>
<text transform="matrix(6.123234e-17 -1 1 6.123234e-17 239.0513 354.6318)" class="st1 st2 st3">10</text>
<circle class="st4" cx="353.1" cy="342.7" r="8.9"/>
<circle class="st4" cx="442.5" cy="321" r="8.9"/>
<circle class="st4" cx="397.8" cy="279.6" r="8.9"/>
<circle class="st4" cx="467.2" cy="265.9" r="8.9"/>
<circle class="st4" cx="430.4" cy="226" r="8.9"/>
<circle class="st4" cx="520.5" cy="303.1" r="8.9"/>
<ellipse transform="matrix(0.3162 -0.9487 0.9487 0.3162 131.7654 678.8112)" class="st5" cx="536.8" cy="248" rx="8.9" ry="8.9"/>
<circle class="st4" cx="490.5" cy="217.1" r="8.9"/>
<circle class="st4" cx="490.5" cy="172.4" r="8.9"/>
<circle class="st5" cx="602.9" cy="265.9" r="8.9"/>
<circle class="st5" cx="727.2" cy="181.3" r="8.9"/>
<circle class="st5" cx="578.6" cy="190.3" r="8.9"/>
<circle class="st5" cx="559.9" cy="90" r="8.9"/>
<circle class="st4" cx="732.8" cy="270.6" r="8.9"/>
<circle class="st5" cx="626.6" cy="142.5" r="8.9"/>
<circle class="st5" cx="655.2" cy="64.3" r="8.9"/>
<circle class="st5" cx="696.9" cy="114.3" r="8.9"/>
<circle class="st5" cx="798.2" cy="217.1" r="8.9"/>
<circle class="st6" cx="792.9" cy="124.7" r="8.9"/>
<circle class="st6" cx="865.2" cy="73.3" r="8.9"/>
<circle class="st6" cx="764.6" cy="50.9" r="8.9"/>
<circle class="st5" cx="643" cy="223.4" r="8.9"/>
<circle class="st5" cx="673.1" cy="169.4" r="8.9"/>
<circle class="st6" cx="897.7" cy="151.5" r="8.9"/>
<circle class="st6" cx="746.8" cy="142.5" r="8.9"/>
<circle class="st5" cx="634.1" cy="102" r="8.9"/>
<circle class="st5" cx="551" cy="142.5" r="8.9"/>
<circle class="st6" cx="831.3" cy="159.2" r="8.9"/>
<circle class="st5" cx="679" cy="270.6" r="8.9"/>
<circle class="st4" cx="388.9" cy="129" r="8.9"/>
<circle class="st5" cx="937.5" cy="306.5" r="8.9"/>
<circle class="st6" cx="946.5" cy="59.8" r="8.9"/>
<circle class="st6" cx="897.7" cy="98.9" r="8.9"/>
<circle class="st6" cx="753.2" cy="90" r="8.9"/>
<circle class="st6" cx="825.8" cy="33" r="8.9"/>
<circle class="st6" cx="812.5" cy="73.3" r="8.9"/>
<circle class="st5" cx="629.2" cy="181.3" r="8.9"/>
<circle class="st6" cx="705.9" cy="223.4" r="8.9"/>
<ellipse transform="matrix(0.3162 -0.9487 0.9487 0.3162 176.046 634.0063)" class="st4" cx="527.8" cy="194.9" rx="8.9" ry="8.9"/>
<circle class="st5" cx="602.9" cy="315.4" r="8.9"/>
<circle class="st6" cx="844.7" cy="120.1" r="8.9"/>
<circle class="st6" cx="781.2" cy="170.9" r="8.9"/>
<circle class="st6" cx="677.2" cy="135.3" r="8.9"/>
<circle class="st5" cx="577.8" cy="229.1" r="8.9"/>
<circle class="st5" cx="581.7" cy="160.7" r="8.9"/>
<circle class="st4" cx="566.2" cy="281.8" r="8.9"/>
<circle class="st4" cx="481.6" cy="297.6" r="8.9"/>
<circle class="st4" cx="493.4" cy="333.7" r="8.9"/>
<circle class="st4" cx="393.9" cy="324.8" r="8.9"/>
<ellipse transform="matrix(0.1602 -0.9871 0.9871 0.1602 8.7754 605.447)" class="st4" cx="360.2" cy="297.6" rx="8.9" ry="8.9"/>
<circle class="st4" cx="439.4" cy="175" r="8.9"/>
<circle class="st6" cx="602.9" cy="42" r="8.9"/>
<text transform="matrix(1 0 0 1 1033.7979 269.8252)" class="st1 st2 st7">A</text>
<text transform="matrix(1 0 0 1 1033.7979 313.2139)" class="st1 st2 st7">B</text>
<text transform="matrix(1 0 0 1 1033.7979 355.29)" class="st1 st2 st7">C</text>
<rect x="1006.2" y="252.3" class="st6" width="17.1" height="17.1"/>
<rect x="1005.3" y="337.8" class="st4" width="17.1" height="17.1"/>
<rect x="1005.3" y="295.7" class="st5" width="17.1" height="17.1"/>
</svg>
