<svg xmlns="http://www.w3.org/2000/svg" width="256" height="256" viewBox="0 0 256 256"><title>icon_sketch</title><path d="M251.3,245.3v3H4.3V7.2h3V245.3ZM191.5,105A13.5,13.5,0,1,0,205,118.5,13.4,13.4,0,0,0,191.5,105Zm-55,51.5a15,15,0,1,1,15-15A15,15,0,0,1,136.5,156.5Zm0-27a12,12,0,1,0,12,12A12,12,0,0,0,136.5,129.5ZM213,68a15,15,0,1,1,15-15A15,15,0,0,1,213,68Zm0-27a12,12,0,1,0,12,12A12,12,0,0,0,213,41ZM66.5,85.5a15,15,0,1,1,15-15A15,15,0,0,1,66.5,85.5Zm0-27a12,12,0,1,0,12,12A12,12,0,0,0,66.5,58.5Zm78-1.5A13.5,13.5,0,1,0,158,70.5,13.4,13.4,0,0,0,144.5,57Zm-60,71A13.5,13.5,0,1,0,98,141.5,13.4,13.4,0,0,0,84.5,128Zm-45,32A13.5,13.5,0,1,0,53,173.5,13.4,13.4,0,0,0,39.5,160Z"/></svg>