<svg xmlns="http://www.w3.org/2000/svg" width="650" height="340" viewBox="0 0 650 340"><defs><style>.a{fill:none;stroke:#a0a0a0;}.a,.c,.d,.e,.f{stroke-linecap:round;stroke-linejoin:round;}.b{isolation:isolate;font-size:18px;fill:#afaeae;font-family:Roboto Mono;}.c{fill:#e8e8e8;}.c,.d,.e,.f{stroke:#9b9b9b;stroke-width:1.39px;}.d{fill:#d8d8d8;}.e{fill:#a0a0a0;}.f{fill:#c6c6c6;}</style></defs><title>hehagonal-bin-plot</title><path class="a" d="M48.5,299.1H631.6V7H48.5V299.1Z"/><path class="a" d="M121,299.8v11.9"/><path class="a" d="M267.5,299.8v11.9"/><path class="a" d="M414.5,299.8v11.9"/><path class="a" d="M561.5,299.8v11.9"/><path class="a" d="M48.5,43.6H36.6"/><path class="a" d="M48.5,191.7H36.6"/><path class="a" d="M48.5,265.8H36.6"/><path class="a" d="M48.5,117.7H36.6"/><text class="b" transform="translate(110.2 331.5)">10</text><text class="b" transform="translate(256.7 331.5)">20</text><text class="b" transform="translate(403.7 331.5)">30</text><text class="b" transform="translate(550.7 331.5)">40</text><text class="b" transform="translate(25.7 200.3) rotate(-90)">12</text><text class="b" transform="translate(25.7 51.7) rotate(-90)">14</text><text class="b" transform="translate(25.7 126) rotate(-90)">13</text><text class="b" transform="translate(25.7 274.6) rotate(-90)">11</text><polygon class="c" points="194.1 245.6 194.1 273.9 169.6 288 145.2 273.9 145.2 245.6 169.6 231.5 194.1 245.6"/><polygon class="c" points="243.1 245.6 243.1 273.9 218.6 288 194.1 273.9 194.1 245.6 218.6 231.5 243.1 245.6"/><polygon class="c" points="169.6 203.2 169.6 231.5 145.2 245.6 120.6 231.5 120.6 203.2 145.2 189.1 169.6 203.2"/><polygon class="d" points="218.6 203.2 218.6 231.5 194.1 245.6 169.6 231.5 169.6 203.2 194.1 189.1 218.6 203.2"/><polygon class="d" points="267.6 203.2 267.6 231.5 243.1 245.6 218.6 231.5 218.6 203.2 243.1 189.1 267.6 203.2"/><polygon class="c" points="316.6 203.2 316.6 231.5 292.1 245.6 267.6 231.5 267.6 203.2 292.1 189.1 316.6 203.2"/><polygon class="c" points="414.6 203.2 414.6 231.5 390.1 245.6 365.6 231.5 365.6 203.2 390.1 189.1 414.6 203.2"/><polygon class="c" points="512.5 203.2 512.5 231.5 488 245.6 463.6 231.5 463.6 203.2 488 189.1 512.5 203.2"/><polygon class="c" points="561.5 203.2 561.5 231.5 537 245.6 512.5 231.5 512.5 203.2 537 189.1 561.5 203.2"/><polygon class="c" points="145.2 160.8 145.2 189.1 120.6 203.2 96.2 189.1 96.2 160.8 120.6 146.6 145.2 160.8"/><polygon class="c" points="194.1 160.8 194.1 189.1 169.6 203.2 145.2 189.1 145.2 160.8 169.6 146.6 194.1 160.8"/><polygon class="e" points="243.1 160.8 243.1 189.1 218.6 203.2 194.1 189.1 194.1 160.8 218.6 146.6 243.1 160.8"/><polygon class="c" points="586 160.8 586 189.1 561.5 203.2 537 189.1 537 160.8 561.5 146.6 586 160.8"/><polygon class="c" points="194.1 75.9 194.1 104.2 169.6 118.3 145.2 104.2 145.2 75.9 169.6 61.8 194.1 75.9"/><polygon class="c" points="243.1 75.9 243.1 104.2 218.6 118.3 194.1 104.2 194.1 75.9 218.6 61.8 243.1 75.9"/><polygon class="f" points="292.1 75.9 292.1 104.2 267.6 118.3 243.1 104.2 243.1 75.9 267.6 61.8 292.1 75.9"/><polygon class="c" points="390.1 75.9 390.1 104.2 365.6 118.3 341.1 104.2 341.1 75.9 365.6 61.8 390.1 75.9"/><polygon class="d" points="439 75.9 439 104.2 414.6 118.3 390.1 104.2 390.1 75.9 414.6 61.8 439 75.9"/><polygon class="c" points="537 75.9 537 104.2 512.5 118.3 488 104.2 488 75.9 512.5 61.8 537 75.9"/><polygon class="d" points="586 75.9 586 104.2 561.5 118.3 537 104.2 537 75.9 561.5 61.8 586 75.9"/><polygon class="c" points="267.6 33.5 267.6 61.8 243.1 75.9 218.6 61.8 218.6 33.5 243.1 19.4 267.6 33.5"/><polygon class="c" points="316.6 33.5 316.6 61.8 292.1 75.9 267.6 61.8 267.6 33.5 292.1 19.4 316.6 33.5"/><polygon class="c" points="414.6 33.5 414.6 61.8 390.1 75.9 365.6 61.8 365.6 33.5 390.1 19.4 414.6 33.5"/><polygon class="c" points="463.6 33.5 463.6 61.8 439 75.9 414.6 61.8 414.6 33.5 439 19.4 463.6 33.5"/><polygon class="f" points="292.1 160.8 292.1 189.1 267.6 203.2 243.1 189.1 243.1 160.8 267.6 146.6 292.1 160.8"/><polygon class="f" points="341.1 160.8 341.1 189.1 316.6 203.2 292.1 189.1 292.1 160.8 316.6 146.6 341.1 160.8"/><polygon class="c" points="390.1 160.8 390.1 189.1 365.6 203.2 341.1 189.1 341.1 160.8 365.6 146.6 390.1 160.8"/><polygon class="f" points="439 160.8 439 189.1 414.6 203.2 390.1 189.1 390.1 160.8 414.6 146.6 439 160.8"/><polygon class="d" points="488 160.8 488 189.1 463.6 203.2 439 189.1 439 160.8 463.6 146.6 488 160.8"/><polygon class="c" points="537 160.8 537 189.1 512.5 203.2 488 189.1 488 160.8 512.5 146.6 537 160.8"/><polygon class="c" points="218.6 118.3 218.6 146.6 194.1 160.8 169.6 146.6 169.6 118.3 194.1 104.2 218.6 118.3"/><polygon class="d" points="267.6 118.3 267.6 146.6 243.1 160.8 218.6 146.6 218.6 118.3 243.1 104.2 267.6 118.3"/><polygon class="e" points="316.6 118.3 316.6 146.6 292.1 160.8 267.6 146.6 267.6 118.3 292.1 104.2 316.6 118.3"/><polygon class="f" points="365.6 118.3 365.6 146.6 341.1 160.8 316.6 146.6 316.6 118.3 341.1 104.2 365.6 118.3"/><polygon class="e" points="414.6 118.3 414.6 146.6 390.1 160.8 365.6 146.6 365.6 118.3 390.1 104.2 414.6 118.3"/><polygon class="f" points="463.6 118.3 463.6 146.6 439 160.8 414.6 146.6 414.6 118.3 439 104.2 463.6 118.3"/><polygon class="d" points="512.5 118.3 512.5 146.6 488 160.8 463.6 146.6 463.6 118.3 488 104.2 512.5 118.3"/><polygon class="c" points="561.5 118.3 561.5 146.6 537 160.8 512.5 146.6 512.5 118.3 537 104.2 561.5 118.3"/><polygon class="f" points="341.1 75.9 341.1 104.2 316.6 118.3 292.1 104.2 292.1 75.9 316.6 61.8 341.1 75.9"/><polygon class="d" points="488 75.9 488 104.2 463.6 118.3 439 104.2 439 75.9 463.6 61.8 488 75.9"/><polygon class="c" points="390.1 160.8 390.1 189.1 365.6 203.2 341.1 189.1 341.1 160.8 365.6 146.6 390.1 160.8"/><polygon class="c" points="390.1 75.9 390.1 104.2 365.6 118.3 341.1 104.2 341.1 75.9 365.6 61.8 390.1 75.9"/></svg>