<svg enable-background="new 0 0 1268 418" viewBox="0 0 1268 418" xmlns="http://www.w3.org/2000/svg"><text fill="#ccc" font-family="'RobotoMono-Regular'" font-size="18" transform="translate(59.1797 409)">Ares</text><text fill="#ccc" font-family="'RobotoMono-Regular'" font-size="18" transform="translate(59.1797 175)">Appolo</text><path d="m160.9 14.1h-138.5v28.7h109.6v109.8h-109.6 138.5z" fill="#b5aec7"/><path d="m22.4 42.8h-.1v109.8h.1z" fill="#a7a7a7"/><path d="m22.4 152.6v-69.3h69.2v69.2h-69.2m109.6-109.7h-109.6v109.8h109.6z" fill="#a39cb9"/><path d="m91.6 83.3h-69.2v69.3h69.2z" fill="#c4c5d1"/><circle cx="91.6" cy="311" fill="#c4c5d1" r="72.7"/><circle cx="91.6" cy="333.8" fill="#b5aec7" r="49.9"/><circle cx="91.6" cy="363.3" fill="#a39cb9" r="20.4"/><text fill="#ccc" font-family="'RobotoMono-Regular'" font-size="18" transform="translate(331.5571 409)">Athena</text><text fill="#ccc" font-family="'RobotoMono-Regular'" font-size="18" transform="translate(341.5571 175)">Zeus</text><path d="m436.5 5.6h-147v30.5h116.4v116.5h-116.4 147z" fill="#b5aec7"/><path d="m289.5 36.1h-.1v116.5h.1z" fill="#a7a7a7"/><path d="m289.5 152.6v-73.5h73.5v73.5zm116.4-116.5h-116.4v116.5h116.4z" fill="#a39cb9"/><path d="m363 79.1h-73.5v73.5h73.5z" fill="#c4c5d1"/><circle cx="363" cy="304.2" fill="#c4c5d1" r="79.5"/><circle cx="363" cy="329.1" fill="#b5aec7" r="54.5"/><circle cx="363" cy="361.4" fill="#a39cb9" r="22.3"/><text fill="#ccc" font-family="'RobotoMono-Regular'" font-size="18" transform="translate(588.2345 409)">Aphrodite</text><text fill="#ccc" font-family="'RobotoMono-Regular'" font-size="18" transform="translate(613.2345 175)">Hera</text><path d="m699.1 23.1h-129.5v26.9h102.5v102.6h-102.5 129.5z" fill="#b5aec7"/><path d="m569.6 50h-.1v102.6h.1z" fill="#a7a7a7"/><path d="m569.6 152.6v-64.8h64.7v64.7h-64.7m102.5-102.5h-102.5v102.6h102.5z" fill="#a39cb9"/><path d="m651.3 70.2h-81.7v82.4h81.7z" fill="#c4c5d1"/><circle cx="634.8" cy="319.4" fill="#c4c5d1" r="64.3"/><circle cx="634.8" cy="336.5" fill="#b5aec7" r="47.1"/><circle cx="634.8" cy="347.2" fill="#a39cb9" r="36.5"/><text fill="#ccc" font-family="'RobotoMono-Regular'" font-size="18" transform="translate(1144.6892 409)">Artemis</text><text fill="#ccc" font-family="'RobotoMono-Regular'" font-size="18" transform="translate(1144.6892 175)">Hermes</text><path d="m1246.4 14.1h-138.5v28.7h109.6v109.8h-109.6 138.5z" fill="#b5aec7"/><path d="m1107.9 42.8h-.1v109.8h.1z" fill="#a7a7a7"/><path d="m1107.9 152.6v-69.3h69.2v69.2h-69.2m109.6-109.7h-109.6v109.8h109.6z" fill="#a39cb9"/><path d="m1177.1 83.3h-69.2v69.3h69.2z" fill="#c4c5d1"/><circle cx="1177.1" cy="311" fill="#c4c5d1" r="72.7"/><circle cx="1177.1" cy="333.8" fill="#b5aec7" r="49.9"/><circle cx="1177.1" cy="363.3" fill="#a39cb9" r="20.4"/><text fill="#ccc" font-family="'RobotoMono-Regular'" font-size="18" transform="translate(873.3118 409)">Uranus</text><text fill="#ccc" font-family="'RobotoMono-Regular'" font-size="18" transform="translate(884.3118 175)">Chaos</text><path d="m979.2 5.6h-147v30.5h116.4v116.5h-116.4 147z" fill="#b5aec7"/><path d="m832.2 36.1h-.1v116.5h.1z" fill="#a7a7a7"/><path d="m832.2 152.6v-73.5h73.5v73.5zm116.4-116.5h-116.4v116.5h116.4z" fill="#a39cb9"/><path d="m905.7 79.1h-73.5v73.5h73.5z" fill="#c4c5d1"/><circle cx="905.7" cy="304.2" fill="#c4c5d1" r="79.5"/><circle cx="905.7" cy="329.1" fill="#b5aec7" r="54.5"/><circle cx="905.7" cy="361.4" fill="#a39cb9" r="22.3"/></svg>