<?xml version="1.0" encoding="utf-8"?>
<!-- Generator: Adobe Illustrator 22.1.0, SVG Export Plug-In . SVG Version: 6.00 Build 0)  -->
<svg version="1.1" id="Layer_1" xmlns="http://www.w3.org/2000/svg" xmlns:xlink="http://www.w3.org/1999/xlink" x="0px" y="0px"
	 viewBox="0 0 1268 418" style="enable-background:new 0 0 1268 418;" xml:space="preserve">
<style type="text/css">
	.st0{fill:#D1CDC9;}
	.st1{font-family:'RobotoCondensed-Regular';}
	.st2{font-size:21.2941px;}
	.st3{fill:none;stroke:#C4C4C4;stroke-miterlimit:10;}
	.st4{fill:#C8B5C9;}
	.st5{fill:#E7D7D4;}
	.st6{fill:#E0DAE8;}
	.st7{fill:#EABB98;}
	.st8{fill:#E59661;}
	.st9{fill:#A697A6;}
	.st10{fill:#EAC7B0;}
	.st11{fill:#DDD9E0;}
	.st12{fill:#EA7E42;}
</style>
<g id="Layer_1_1_">
	<text transform="matrix(1.0193 0 0 1 5.7671 26.4102)" class="st0 st1 st2">Jan</text>
	<text transform="matrix(1.0193 0 0 1 5.7671 55.582)" class="st0 st1 st2">Feb</text>
	<text transform="matrix(1.0193 0 0 1 5.7671 84.7529)" class="st0 st1 st2">Mar</text>
	<text transform="matrix(1.0193 0 0 1 5.7671 113.9248)" class="st0 st1 st2">Apr</text>
	<text transform="matrix(1.0193 0 0 1 5.7671 143.0967)" class="st0 st1 st2">May</text>
	<text transform="matrix(1.0193 0 0 1 5.7671 172.2686)" class="st0 st1 st2">Jun</text>
	<text transform="matrix(1.0193 0 0 1 5.7671 201.4404)" class="st0 st1 st2">Jul</text>
	<text transform="matrix(1.0193 0 0 1 5.7671 230.6113)" class="st0 st1 st2">Aug</text>
	<text transform="matrix(1.0193 0 0 1 5.7671 259.7852)" class="st0 st1 st2">Sep</text>
	<text transform="matrix(1.0193 0 0 1 5.7671 288.9561)" class="st0 st1 st2">Oct</text>
	<text transform="matrix(1.0193 0 0 1 5.7671 318.1279)" class="st0 st1 st2">Nov</text>
	<text transform="matrix(1.0193 0 0 1 5.7671 347.2988)" class="st0 st1 st2">Dec</text>
	<polyline class="st3" points="47.4,380.2 47.4,369.1 1244.4,369.1 	"/>
	<g>
		<text transform="matrix(1.0728 0 0 1 622.8936 412.125)" class="st0 st1 st2">2038</text>
	</g>
	<g>
		<text transform="matrix(1.0728 0 0 1 29.9189 412.125)" class="st0 st1 st2">2018</text>
	</g>
	<g>
		<text transform="matrix(1.0728 0 0 1 326.8208 412.125)" class="st0 st1 st2">2028</text>
	</g>
	<g>
		<text transform="matrix(1.0728 0 0 1 1222.8916 412.125)" class="st0 st1 st2">2058</text>
	</g>
	<g>
		<text transform="matrix(1.0728 0 0 1 919.665 412.125)" class="st0 st1 st2">2048</text>
	</g>
	<line class="st3" x1="645.5" y1="380.2" x2="645.5" y2="369.1"/>
	<line class="st3" x1="944.2" y1="380.2" x2="944.2" y2="369.1"/>
	<line class="st3" x1="1244.4" y1="380.2" x2="1244.4" y2="369.1"/>
	<line class="st3" x1="346.3" y1="380.2" x2="346.3" y2="369.1"/>
</g>
<g id="Layer_2_1_">
</g>
<g id="Layer_3">
</g>
<g>
	<rect x="1094.9" y="239.8" class="st4" width="27.4" height="26.8"/>
	<rect x="1065" y="239.8" class="st4" width="27.4" height="26.8"/>
	<rect x="1124.8" y="239.8" class="st4" width="27.4" height="26.8"/>
	<rect x="1154.7" y="239.8" class="st5" width="27.4" height="26.8"/>
	<rect x="1214.5" y="239.8" class="st5" width="27.4" height="26.8"/>
	<rect x="1184.6" y="239.8" class="st5" width="27.4" height="26.8"/>
	<rect x="1005.2" y="239.8" class="st6" width="27.4" height="26.8"/>
	<rect x="1035.1" y="239.8" class="st4" width="27.4" height="26.8"/>
	<rect x="825.9" y="239.8" class="st7" width="27.4" height="26.8"/>
	<rect x="796" y="239.8" class="st8" width="27.4" height="26.8"/>
	<rect x="855.8" y="239.8" class="st7" width="27.4" height="26.8"/>
	<rect x="975.3" y="239.8" class="st4" width="27.4" height="26.8"/>
	<rect x="1124.8" y="94.3" class="st4" width="27.4" height="26.8"/>
	<rect x="945.4" y="239.8" class="st5" width="27.4" height="26.8"/>
	<rect x="915.6" y="239.8" class="st5" width="27.4" height="26.8"/>
	<rect x="885.7" y="239.8" class="st5" width="27.4" height="26.8"/>
	<rect x="736.2" y="239.8" class="st7" width="27.4" height="26.8"/>
	<rect x="1154.7" y="94.3" class="st6" width="27.4" height="26.8"/>
	<rect x="1214.5" y="94.3" class="st6" width="27.4" height="26.8"/>
	<rect x="1184.6" y="94.3" class="st6" width="27.4" height="26.8"/>
	<rect x="766.1" y="239.8" class="st7" width="27.4" height="26.8"/>
	<rect x="198.1" y="123.4" class="st6" width="27.4" height="26.8"/>
	<rect x="228" y="123.4" class="st5" width="27.4" height="26.8"/>
	<rect x="317.7" y="123.4" class="st5" width="27.4" height="26.8"/>
	<rect x="287.8" y="123.4" class="st6" width="27.4" height="26.8"/>
	<rect x="257.9" y="123.4" class="st6" width="27.4" height="26.8"/>
	<rect x="168.2" y="123.4" class="st6" width="27.4" height="26.8"/>
	<rect x="168.2" y="239.8" class="st9" width="27.4" height="26.8"/>
	<rect x="168.2" y="181.6" class="st8" width="27.4" height="26.8"/>
	<rect x="168.2" y="152.5" class="st10" width="27.4" height="26.8"/>
	<rect x="168.2" y="210.7" class="st10" width="27.4" height="26.8"/>
	<rect x="526.9" y="123.4" class="st5" width="27.4" height="26.8"/>
	<rect x="497" y="123.4" class="st5" width="27.4" height="26.8"/>
	<rect x="467.1" y="123.4" class="st5" width="27.4" height="26.8"/>
	<rect x="556.8" y="123.4" class="st5" width="27.4" height="26.8"/>
	<rect x="407.4" y="123.4" class="st5" width="27.4" height="26.8"/>
	<rect x="377.5" y="123.4" class="st5" width="27.4" height="26.8"/>
	<rect x="437.3" y="123.4" class="st5" width="27.4" height="26.8"/>
	<rect x="347.6" y="123.4" class="st5" width="27.4" height="26.8"/>
	<rect x="467.1" y="239.8" class="st5" width="27.4" height="26.8"/>
	<rect x="706.3" y="239.8" class="st7" width="27.4" height="26.8"/>
	<rect x="556.8" y="239.8" class="st5" width="27.4" height="26.8"/>
	<rect x="526.9" y="239.8" class="st5" width="27.4" height="26.8"/>
	<rect x="497" y="239.8" class="st5" width="27.4" height="26.8"/>
	<rect x="586.7" y="239.8" class="st5" width="27.4" height="26.8"/>
	<rect x="616.6" y="239.8" class="st5" width="27.4" height="26.8"/>
	<rect x="676.4" y="239.8" class="st7" width="27.4" height="26.8"/>
	<rect x="646.5" y="239.8" class="st7" width="27.4" height="26.8"/>
	<rect x="347.6" y="239.8" class="st9" width="27.4" height="26.8"/>
	<rect x="437.3" y="239.8" class="st5" width="27.4" height="26.8"/>
	<rect x="287.8" y="239.8" class="st9" width="27.4" height="26.8"/>
	<rect x="228" y="239.8" class="st9" width="27.4" height="26.8"/>
	<rect x="317.7" y="239.8" class="st9" width="27.4" height="26.8"/>
	<rect x="257.9" y="239.8" class="st9" width="27.4" height="26.8"/>
	<rect x="198.1" y="239.8" class="st9" width="27.4" height="26.8"/>
	<rect x="407.4" y="239.8" class="st9" width="27.4" height="26.8"/>
	<rect x="377.5" y="239.8" class="st9" width="27.4" height="26.8"/>
	<rect x="467.1" y="268.8" class="st9" width="27.4" height="26.8"/>
	<rect x="437.3" y="268.8" class="st5" width="27.4" height="26.8"/>
	<rect x="407.4" y="268.8" class="st9" width="27.4" height="26.8"/>
	<rect x="377.5" y="268.8" class="st9" width="27.4" height="26.8"/>
	<rect x="586.7" y="123.4" class="st5" width="27.4" height="26.8"/>
	<rect x="347.6" y="268.8" class="st9" width="27.4" height="26.8"/>
	<rect x="586.7" y="268.8" class="st5" width="27.4" height="26.8"/>
	<rect x="556.8" y="268.8" class="st5" width="27.4" height="26.8"/>
	<rect x="1154.7" y="268.8" class="st5" width="27.4" height="26.8"/>
	<rect x="616.6" y="268.8" class="st5" width="27.4" height="26.8"/>
	<rect x="497" y="268.8" class="st5" width="27.4" height="26.8"/>
	<rect x="168.2" y="268.8" class="st4" width="27.4" height="26.8"/>
	<rect x="138.3" y="268.8" class="st9" width="27.4" height="26.8"/>
	<rect x="138.3" y="210.7" class="st10" width="27.4" height="26.8"/>
	<rect x="317.7" y="268.8" class="st9" width="27.4" height="26.8"/>
	<rect x="138.3" y="239.8" class="st9" width="27.4" height="26.8"/>
	<rect x="228" y="268.8" class="st9" width="27.4" height="26.8"/>
	<rect x="287.8" y="268.8" class="st9" width="27.4" height="26.8"/>
	<rect x="257.9" y="268.8" class="st4" width="27.4" height="26.8"/>
	<rect x="198.1" y="268.8" class="st4" width="27.4" height="26.8"/>
	<rect x="915.6" y="268.8" class="st6" width="27.4" height="26.8"/>
	<rect x="975.3" y="268.8" class="st6" width="27.4" height="26.8"/>
	<rect x="1005.2" y="268.8" class="st6" width="27.4" height="26.8"/>
	<rect x="945.4" y="268.8" class="st6" width="27.4" height="26.8"/>
	<rect x="1035.1" y="268.8" class="st6" width="27.4" height="26.8"/>
	<rect x="1124.8" y="268.8" class="st9" width="27.4" height="26.8"/>
	<rect x="646.5" y="268.8" class="st7" width="27.4" height="26.8"/>
	<rect x="1065" y="268.8" class="st6" width="27.4" height="26.8"/>
	<rect x="1094.9" y="268.8" class="st6" width="27.4" height="26.8"/>
	<rect x="736.2" y="268.8" class="st8" width="27.4" height="26.8"/>
	<rect x="706.3" y="268.8" class="st8" width="27.4" height="26.8"/>
	<rect x="676.4" y="268.8" class="st7" width="27.4" height="26.8"/>
	<rect x="766.1" y="268.8" class="st7" width="27.4" height="26.8"/>
	<rect x="885.7" y="268.8" class="st7" width="27.4" height="26.8"/>
	<rect x="855.8" y="268.8" class="st5" width="27.4" height="26.8"/>
	<rect x="796" y="268.8" class="st7" width="27.4" height="26.8"/>
	<rect x="825.9" y="268.8" class="st7" width="27.4" height="26.8"/>
	<rect x="915.6" y="94.3" class="st7" width="27.4" height="26.8"/>
	<rect x="736.2" y="94.3" class="st7" width="27.4" height="26.8"/>
	<rect x="766.1" y="94.3" class="st7" width="27.4" height="26.8"/>
	<rect x="796" y="94.3" class="st7" width="27.4" height="26.8"/>
	<rect x="706.3" y="94.3" class="st7" width="27.4" height="26.8"/>
	<rect x="676.4" y="94.3" class="st7" width="27.4" height="26.8"/>
	<rect x="616.6" y="94.3" class="st5" width="27.4" height="26.8"/>
	<rect x="825.9" y="94.3" class="st7" width="27.4" height="26.8"/>
	<rect x="646.5" y="94.3" class="st7" width="27.4" height="26.8"/>
	<rect x="855.8" y="94.3" class="st7" width="27.4" height="26.8"/>
	<rect x="1035.1" y="94.3" class="st6" width="27.4" height="26.8"/>
	<rect x="975.3" y="94.3" class="st11" width="27.4" height="26.8"/>
	<rect x="1005.2" y="94.3" class="st11" width="27.4" height="26.8"/>
	<rect x="586.7" y="94.3" class="st5" width="27.4" height="26.8"/>
	<rect x="1065" y="94.3" class="st6" width="27.4" height="26.8"/>
	<rect x="885.7" y="94.3" class="st7" width="27.4" height="26.8"/>
	<rect x="945.4" y="94.3" class="st11" width="27.4" height="26.8"/>
	<rect x="1094.9" y="94.3" class="st6" width="27.4" height="26.8"/>
	<rect x="317.7" y="94.3" class="st5" width="27.4" height="26.8"/>
	<rect x="168.2" y="94.3" class="st6" width="27.4" height="26.8"/>
	<rect x="228" y="94.3" class="st5" width="27.4" height="26.8"/>
	<rect x="198.1" y="94.3" class="st4" width="27.4" height="26.8"/>
	<rect x="257.9" y="94.3" class="st5" width="27.4" height="26.8"/>
	<rect x="287.8" y="94.3" class="st5" width="27.4" height="26.8"/>
	<rect x="138.3" y="152.5" class="st10" width="27.4" height="26.8"/>
	<rect x="138.3" y="123.4" class="st6" width="27.4" height="26.8"/>
	<rect x="556.8" y="94.3" class="st5" width="27.4" height="26.8"/>
	<rect x="138.3" y="94.3" class="st9" width="27.4" height="26.8"/>
	<rect x="467.1" y="94.3" class="st5" width="27.4" height="26.8"/>
	<rect x="497" y="94.3" class="st5" width="27.4" height="26.8"/>
	<rect x="526.9" y="94.3" class="st5" width="27.4" height="26.8"/>
	<rect x="138.3" y="181.6" class="st8" width="27.4" height="26.8"/>
	<rect x="437.3" y="94.3" class="st5" width="27.4" height="26.8"/>
	<rect x="347.6" y="94.3" class="st5" width="27.4" height="26.8"/>
	<rect x="407.4" y="94.3" class="st5" width="27.4" height="26.8"/>
	<rect x="377.5" y="94.3" class="st5" width="27.4" height="26.8"/>
	<rect x="526.9" y="268.8" class="st5" width="27.4" height="26.8"/>
	<rect x="1035.1" y="152.5" class="st6" width="27.4" height="26.8"/>
	<rect x="885.7" y="152.5" class="st11" width="27.4" height="26.8"/>
	<rect x="1154.7" y="152.5" class="st6" width="27.4" height="26.8"/>
	<rect x="1124.8" y="152.5" class="st6" width="27.4" height="26.8"/>
	<rect x="1065" y="152.5" class="st6" width="27.4" height="26.8"/>
	<rect x="915.6" y="152.5" class="st11" width="27.4" height="26.8"/>
	<rect x="1005.2" y="152.5" class="st6" width="27.4" height="26.8"/>
	<rect x="945.4" y="152.5" class="st7" width="27.4" height="26.8"/>
	<rect x="975.3" y="152.5" class="st6" width="27.4" height="26.8"/>
	<rect x="1094.9" y="152.5" class="st6" width="27.4" height="26.8"/>
	<rect x="1214.5" y="152.5" class="st6" width="27.4" height="26.8"/>
	<rect x="1184.6" y="152.5" class="st6" width="27.4" height="26.8"/>
	<rect x="796" y="152.5" class="st10" width="27.4" height="26.8"/>
	<rect x="467.1" y="152.5" class="st10" width="27.4" height="26.8"/>
	<rect x="526.9" y="152.5" class="st10" width="27.4" height="26.8"/>
	<rect x="497" y="152.5" class="st10" width="27.4" height="26.8"/>
	<rect x="556.8" y="152.5" class="st10" width="27.4" height="26.8"/>
	<rect x="377.5" y="152.5" class="st10" width="27.4" height="26.8"/>
	<rect x="586.7" y="152.5" class="st10" width="27.4" height="26.8"/>
	<rect x="407.4" y="152.5" class="st10" width="27.4" height="26.8"/>
	<rect x="437.3" y="152.5" class="st10" width="27.4" height="26.8"/>
	<rect x="736.2" y="152.5" class="st10" width="27.4" height="26.8"/>
	<rect x="616.6" y="152.5" class="st10" width="27.4" height="26.8"/>
	<rect x="766.1" y="152.5" class="st10" width="27.4" height="26.8"/>
	<rect x="825.9" y="152.5" class="st10" width="27.4" height="26.8"/>
	<rect x="855.8" y="152.5" class="st7" width="27.4" height="26.8"/>
	<rect x="706.3" y="152.5" class="st10" width="27.4" height="26.8"/>
	<rect x="646.5" y="152.5" class="st10" width="27.4" height="26.8"/>
	<rect x="676.4" y="152.5" class="st10" width="27.4" height="26.8"/>
	<rect x="228" y="181.6" class="st10" width="27.4" height="26.8"/>
	<rect x="497" y="181.6" class="st10" width="27.4" height="26.8"/>
	<rect x="526.9" y="181.6" class="st10" width="27.4" height="26.8"/>
	<rect x="437.3" y="181.6" class="st10" width="27.4" height="26.8"/>
	<rect x="556.8" y="181.6" class="st10" width="27.4" height="26.8"/>
	<rect x="646.5" y="181.6" class="st10" width="27.4" height="26.8"/>
	<rect x="676.4" y="181.6" class="st10" width="27.4" height="26.8"/>
	<rect x="616.6" y="181.6" class="st10" width="27.4" height="26.8"/>
	<rect x="586.7" y="181.6" class="st10" width="27.4" height="26.8"/>
	<rect x="616.6" y="123.4" class="st5" width="27.4" height="26.8"/>
	<rect x="347.6" y="152.5" class="st10" width="27.4" height="26.8"/>
	<rect x="287.8" y="181.6" class="st10" width="27.4" height="26.8"/>
	<rect x="257.9" y="181.6" class="st10" width="27.4" height="26.8"/>
	<rect x="48.6" y="327" class="st9" width="27.4" height="26.8"/>
	<rect x="377.5" y="181.6" class="st10" width="27.4" height="26.8"/>
	<rect x="317.7" y="181.6" class="st10" width="27.4" height="26.8"/>
	<rect x="407.4" y="181.6" class="st10" width="27.4" height="26.8"/>
	<rect x="347.6" y="181.6" class="st10" width="27.4" height="26.8"/>
	<rect x="706.3" y="181.6" class="st10" width="27.4" height="26.8"/>
	<rect x="1065" y="181.6" class="st11" width="27.4" height="26.8"/>
	<rect x="1094.9" y="181.6" class="st11" width="27.4" height="26.8"/>
	<rect x="1124.8" y="181.6" class="st5" width="27.4" height="26.8"/>
	<rect x="1035.1" y="181.6" class="st11" width="27.4" height="26.8"/>
	<rect x="1154.7" y="181.6" class="st5" width="27.4" height="26.8"/>
	<rect x="1005.2" y="181.6" class="st11" width="27.4" height="26.8"/>
	<rect x="1214.5" y="181.6" class="st5" width="27.4" height="26.8"/>
	<rect x="1184.6" y="181.6" class="st5" width="27.4" height="26.8"/>
	<rect x="796" y="181.6" class="st10" width="27.4" height="26.8"/>
	<rect x="825.9" y="181.6" class="st10" width="27.4" height="26.8"/>
	<rect x="736.2" y="181.6" class="st10" width="27.4" height="26.8"/>
	<rect x="855.8" y="181.6" class="st11" width="27.4" height="26.8"/>
	<rect x="766.1" y="181.6" class="st10" width="27.4" height="26.8"/>
	<rect x="915.6" y="181.6" class="st11" width="27.4" height="26.8"/>
	<rect x="945.4" y="181.6" class="st11" width="27.4" height="26.8"/>
	<rect x="885.7" y="181.6" class="st11" width="27.4" height="26.8"/>
	<rect x="975.3" y="181.6" class="st11" width="27.4" height="26.8"/>
	<rect x="467.1" y="181.6" class="st10" width="27.4" height="26.8"/>
	<rect x="317.7" y="152.5" class="st10" width="27.4" height="26.8"/>
	<rect x="1184.6" y="123.4" class="st6" width="27.4" height="26.8"/>
	<rect x="1214.5" y="123.4" class="st6" width="27.4" height="26.8"/>
	<rect x="1154.7" y="123.4" class="st6" width="27.4" height="26.8"/>
	<rect x="1184.6" y="210.7" class="st5" width="27.4" height="26.8"/>
	<rect x="1154.7" y="210.7" class="st5" width="27.4" height="26.8"/>
	<rect x="1214.5" y="210.7" class="st5" width="27.4" height="26.8"/>
	<rect x="796" y="123.4" class="st8" width="27.4" height="26.8"/>
	<rect x="766.1" y="123.4" class="st7" width="27.4" height="26.8"/>
	<rect x="736.2" y="123.4" class="st7" width="27.4" height="26.8"/>
	<rect x="825.9" y="123.4" class="st8" width="27.4" height="26.8"/>
	<rect x="676.4" y="123.4" class="st7" width="27.4" height="26.8"/>
	<rect x="706.3" y="123.4" class="st7" width="27.4" height="26.8"/>
	<rect x="646.5" y="123.4" class="st7" width="27.4" height="26.8"/>
	<rect x="855.8" y="123.4" class="st8" width="27.4" height="26.8"/>
	<rect x="1124.8" y="123.4" class="st6" width="27.4" height="26.8"/>
	<rect x="1065" y="123.4" class="st6" width="27.4" height="26.8"/>
	<rect x="1035.1" y="123.4" class="st5" width="27.4" height="26.8"/>
	<rect x="1094.9" y="123.4" class="st5" width="27.4" height="26.8"/>
	<rect x="1005.2" y="123.4" class="st6" width="27.4" height="26.8"/>
	<rect x="975.3" y="123.4" class="st6" width="27.4" height="26.8"/>
	<rect x="915.6" y="123.4" class="st11" width="27.4" height="26.8"/>
	<rect x="945.4" y="123.4" class="st11" width="27.4" height="26.8"/>
	<rect x="885.7" y="123.4" class="st11" width="27.4" height="26.8"/>
	<rect x="1124.8" y="210.7" class="st4" width="27.4" height="26.8"/>
	<rect x="377.5" y="210.7" class="st10" width="27.4" height="26.8"/>
	<rect x="407.4" y="210.7" class="st10" width="27.4" height="26.8"/>
	<rect x="347.6" y="210.7" class="st10" width="27.4" height="26.8"/>
	<rect x="317.7" y="210.7" class="st10" width="27.4" height="26.8"/>
	<rect x="437.3" y="210.7" class="st10" width="27.4" height="26.8"/>
	<rect x="287.8" y="210.7" class="st10" width="27.4" height="26.8"/>
	<rect x="526.9" y="210.7" class="st12" width="27.4" height="26.8"/>
	<rect x="497" y="210.7" class="st10" width="27.4" height="26.8"/>
	<rect x="467.1" y="210.7" class="st10" width="27.4" height="26.8"/>
	<rect x="257.9" y="152.5" class="st10" width="27.4" height="26.8"/>
	<rect x="257.9" y="210.7" class="st10" width="27.4" height="26.8"/>
	<rect x="228" y="152.5" class="st5" width="27.4" height="26.8"/>
	<rect x="287.8" y="152.5" class="st10" width="27.4" height="26.8"/>
	<rect x="198.1" y="152.5" class="st5" width="27.4" height="26.8"/>
	<rect x="1094.9" y="210.7" class="st11" width="27.4" height="26.8"/>
	<rect x="228" y="210.7" class="st10" width="27.4" height="26.8"/>
	<rect x="198.1" y="210.7" class="st10" width="27.4" height="26.8"/>
	<rect x="198.1" y="181.6" class="st8" width="27.4" height="26.8"/>
	<rect x="556.8" y="210.7" class="st12" width="27.4" height="26.8"/>
	<rect x="945.4" y="210.7" class="st11" width="27.4" height="26.8"/>
	<rect x="855.8" y="210.7" class="st11" width="27.4" height="26.8"/>
	<rect x="885.7" y="210.7" class="st11" width="27.4" height="26.8"/>
	<rect x="975.3" y="210.7" class="st11" width="27.4" height="26.8"/>
	<rect x="915.6" y="210.7" class="st11" width="27.4" height="26.8"/>
	<rect x="586.7" y="210.7" class="st12" width="27.4" height="26.8"/>
	<rect x="1065" y="210.7" class="st11" width="27.4" height="26.8"/>
	<rect x="1035.1" y="210.7" class="st11" width="27.4" height="26.8"/>
	<rect x="1005.2" y="210.7" class="st4" width="27.4" height="26.8"/>
	<rect x="646.5" y="210.7" class="st10" width="27.4" height="26.8"/>
	<rect x="706.3" y="210.7" class="st10" width="27.4" height="26.8"/>
	<rect x="676.4" y="210.7" class="st10" width="27.4" height="26.8"/>
	<rect x="616.6" y="210.7" class="st10" width="27.4" height="26.8"/>
	<rect x="825.9" y="210.7" class="st10" width="27.4" height="26.8"/>
	<rect x="796" y="210.7" class="st10" width="27.4" height="26.8"/>
	<rect x="766.1" y="210.7" class="st10" width="27.4" height="26.8"/>
	<rect x="736.2" y="210.7" class="st10" width="27.4" height="26.8"/>
	<rect x="646.5" y="327" class="st9" width="27.4" height="26.8"/>
	<rect x="676.4" y="327" class="st9" width="27.4" height="26.8"/>
	<rect x="317.7" y="327" class="st9" width="27.4" height="26.8"/>
	<rect x="616.6" y="327" class="st9" width="27.4" height="26.8"/>
	<rect x="855.8" y="327" class="st9" width="27.4" height="26.8"/>
	<rect x="736.2" y="327" class="st5" width="27.4" height="26.8"/>
	<rect x="825.9" y="327" class="st9" width="27.4" height="26.8"/>
	<rect x="586.7" y="327" class="st9" width="27.4" height="26.8"/>
	<rect x="766.1" y="327" class="st9" width="27.4" height="26.8"/>
	<rect x="796" y="327" class="st9" width="27.4" height="26.8"/>
	<rect x="377.5" y="327" class="st9" width="27.4" height="26.8"/>
	<rect x="556.8" y="327" class="st9" width="27.4" height="26.8"/>
	<rect x="437.3" y="327" class="st6" width="27.4" height="26.8"/>
	<rect x="347.6" y="327" class="st9" width="27.4" height="26.8"/>
	<rect x="407.4" y="327" class="st5" width="27.4" height="26.8"/>
	<rect x="526.9" y="327" class="st9" width="27.4" height="26.8"/>
	<rect x="467.1" y="327" class="st5" width="27.4" height="26.8"/>
	<rect x="497" y="327" class="st5" width="27.4" height="26.8"/>
	<rect x="706.3" y="327" class="st5" width="27.4" height="26.8"/>
	<rect x="1214.5" y="327" class="st9" width="27.4" height="26.8"/>
	<rect x="1184.6" y="327" class="st9" width="27.4" height="26.8"/>
	<rect x="1154.7" y="327" class="st9" width="27.4" height="26.8"/>
	<rect x="1094.9" y="327" class="st9" width="27.4" height="26.8"/>
	<rect x="945.4" y="327" class="st9" width="27.4" height="26.8"/>
	<rect x="1005.2" y="327" class="st9" width="27.4" height="26.8"/>
	<rect x="975.3" y="327" class="st9" width="27.4" height="26.8"/>
	<rect x="915.6" y="327" class="st9" width="27.4" height="26.8"/>
	<rect x="1065" y="327" class="st9" width="27.4" height="26.8"/>
	<rect x="1035.1" y="327" class="st9" width="27.4" height="26.8"/>
	<rect x="885.7" y="327" class="st9" width="27.4" height="26.8"/>
	<rect x="1124.8" y="327" class="st9" width="27.4" height="26.8"/>
	<rect x="467.1" y="36.2" class="st6" width="27.4" height="26.8"/>
	<rect x="257.9" y="36.2" class="st6" width="27.4" height="26.8"/>
	<rect x="377.5" y="36.2" class="st6" width="27.4" height="26.8"/>
	<rect x="108.4" y="36.2" class="st9" width="27.4" height="26.8"/>
	<rect x="347.6" y="36.2" class="st6" width="27.4" height="26.8"/>
	<rect x="317.7" y="36.2" class="st6" width="27.4" height="26.8"/>
	<rect x="168.2" y="36.2" class="st4" width="27.4" height="26.8"/>
	<rect x="138.3" y="36.2" class="st4" width="27.4" height="26.8"/>
	<rect x="228" y="36.2" class="st6" width="27.4" height="26.8"/>
	<rect x="198.1" y="36.2" class="st4" width="27.4" height="26.8"/>
	<rect x="287.8" y="36.2" class="st6" width="27.4" height="26.8"/>
	<rect x="407.4" y="36.2" class="st6" width="27.4" height="26.8"/>
	<rect x="556.8" y="36.2" class="st5" width="27.4" height="26.8"/>
	<rect x="526.9" y="36.2" class="st6" width="27.4" height="26.8"/>
	<rect x="616.6" y="36.2" class="st6" width="27.4" height="26.8"/>
	<rect x="586.7" y="36.2" class="st6" width="27.4" height="26.8"/>
	<rect x="497" y="36.2" class="st6" width="27.4" height="26.8"/>
	<rect x="437.3" y="36.2" class="st6" width="27.4" height="26.8"/>
	<rect x="78.5" y="94.3" class="st4" width="27.4" height="26.8"/>
	<rect x="138.3" y="327" class="st9" width="27.4" height="26.8"/>
	<rect x="168.2" y="327" class="st9" width="27.4" height="26.8"/>
	<rect x="108.4" y="327" class="st9" width="27.4" height="26.8"/>
	<rect x="78.5" y="327" class="st9" width="27.4" height="26.8"/>
	<rect x="198.1" y="327" class="st9" width="27.4" height="26.8"/>
	<rect x="257.9" y="327" class="st9" width="27.4" height="26.8"/>
	<rect x="228" y="327" class="st9" width="27.4" height="26.8"/>
	<rect x="78.5" y="297.9" class="st5" width="27.4" height="26.8"/>
	<rect x="78.5" y="210.7" class="st10" width="27.4" height="26.8"/>
	<rect x="78.5" y="123.4" class="st4" width="27.4" height="26.8"/>
	<rect x="78.5" y="268.8" class="st9" width="27.4" height="26.8"/>
	<rect x="78.5" y="152.5" class="st10" width="27.4" height="26.8"/>
	<rect x="78.5" y="65.2" class="st9" width="27.4" height="26.8"/>
	<rect x="287.8" y="327" class="st9" width="27.4" height="26.8"/>
	<rect x="78.5" y="239.8" class="st9" width="27.4" height="26.8"/>
	<rect x="78.5" y="181.6" class="st10" width="27.4" height="26.8"/>
	<rect x="78.5" y="36.2" class="st9" width="27.4" height="26.8"/>
	<rect x="855.8" y="7.1" class="st6" width="27.4" height="26.8"/>
	<rect x="467.1" y="7.1" class="st6" width="27.4" height="26.8"/>
	<rect x="437.3" y="7.1" class="st6" width="27.4" height="26.8"/>
	<rect x="407.4" y="7.1" class="st6" width="27.4" height="26.8"/>
	<rect x="497" y="7.1" class="st6" width="27.4" height="26.8"/>
	<rect x="257.9" y="7.1" class="st6" width="27.4" height="26.8"/>
	<rect x="287.8" y="7.1" class="st6" width="27.4" height="26.8"/>
	<rect x="377.5" y="7.1" class="st6" width="27.4" height="26.8"/>
	<rect x="526.9" y="7.1" class="st5" width="27.4" height="26.8"/>
	<rect x="347.6" y="7.1" class="st6" width="27.4" height="26.8"/>
	<rect x="317.7" y="7.1" class="st6" width="27.4" height="26.8"/>
	<rect x="706.3" y="7.1" class="st6" width="27.4" height="26.8"/>
	<rect x="736.2" y="7.1" class="st6" width="27.4" height="26.8"/>
	<rect x="556.8" y="7.1" class="st5" width="27.4" height="26.8"/>
	<rect x="676.4" y="7.1" class="st6" width="27.4" height="26.8"/>
	<rect x="766.1" y="7.1" class="st6" width="27.4" height="26.8"/>
	<rect x="646.5" y="7.1" class="st6" width="27.4" height="26.8"/>
	<rect x="586.7" y="7.1" class="st6" width="27.4" height="26.8"/>
	<rect x="616.6" y="7.1" class="st6" width="27.4" height="26.8"/>
	<rect x="48.6" y="94.3" class="st6" width="27.4" height="26.8"/>
	<rect x="48.6" y="152.5" class="st10" width="27.4" height="26.8"/>
	<rect x="796" y="7.1" class="st6" width="27.4" height="26.8"/>
	<rect x="48.6" y="181.6" class="st10" width="27.4" height="26.8"/>
	<rect x="48.6" y="123.4" class="st6" width="27.4" height="26.8"/>
	<rect x="48.6" y="210.7" class="st10" width="27.4" height="26.8"/>
	<rect x="48.6" y="297.9" class="st6" width="27.4" height="26.8"/>
	<rect x="48.6" y="268.8" class="st6" width="27.4" height="26.8"/>
	<rect x="48.6" y="239.8" class="st9" width="27.4" height="26.8"/>
	<rect x="48.6" y="36.2" class="st6" width="27.4" height="26.8"/>
	<rect x="168.2" y="7.1" class="st6" width="27.4" height="26.8"/>
	<rect x="48.6" y="65.2" class="st6" width="27.4" height="26.8"/>
	<rect x="198.1" y="7.1" class="st6" width="27.4" height="26.8"/>
	<rect x="108.4" y="7.1" class="st9" width="27.4" height="26.8"/>
	<rect x="138.3" y="7.1" class="st6" width="27.4" height="26.8"/>
	<rect x="228" y="7.1" class="st6" width="27.4" height="26.8"/>
	<rect x="48.6" y="7.1" class="st9" width="27.4" height="26.8"/>
	<rect x="78.5" y="7.1" class="st9" width="27.4" height="26.8"/>
	<rect x="825.9" y="7.1" class="st6" width="27.4" height="26.8"/>
	<rect x="945.4" y="7.1" class="st6" width="27.4" height="26.8"/>
	<rect x="975.3" y="7.1" class="st6" width="27.4" height="26.8"/>
	<rect x="1005.2" y="7.1" class="st6" width="27.4" height="26.8"/>
	<rect x="1035.1" y="7.1" class="st6" width="27.4" height="26.8"/>
	<rect x="885.7" y="7.1" class="st6" width="27.4" height="26.8"/>
	<rect x="915.6" y="7.1" class="st6" width="27.4" height="26.8"/>
	<rect x="1065" y="7.1" class="st6" width="27.4" height="26.8"/>
	<rect x="646.5" y="36.2" class="st6" width="27.4" height="26.8"/>
	<rect x="1094.9" y="7.1" class="st6" width="27.4" height="26.8"/>
	<rect x="1214.5" y="7.1" class="st6" width="27.4" height="26.8"/>
	<rect x="1184.6" y="7.1" class="st6" width="27.4" height="26.8"/>
	<rect x="1124.8" y="7.1" class="st6" width="27.4" height="26.8"/>
	<rect x="1184.6" y="268.8" class="st5" width="27.4" height="26.8"/>
	<rect x="1154.7" y="7.1" class="st6" width="27.4" height="26.8"/>
	<rect x="407.4" y="65.2" class="st6" width="27.4" height="26.8"/>
	<rect x="198.1" y="65.2" class="st6" width="27.4" height="26.8"/>
	<rect x="437.3" y="65.2" class="st6" width="27.4" height="26.8"/>
	<rect x="347.6" y="65.2" class="st6" width="27.4" height="26.8"/>
	<rect x="287.8" y="65.2" class="st6" width="27.4" height="26.8"/>
	<rect x="317.7" y="65.2" class="st6" width="27.4" height="26.8"/>
	<rect x="228" y="65.2" class="st4" width="27.4" height="26.8"/>
	<rect x="257.9" y="65.2" class="st6" width="27.4" height="26.8"/>
	<rect x="467.1" y="65.2" class="st6" width="27.4" height="26.8"/>
	<rect x="676.4" y="36.2" class="st6" width="27.4" height="26.8"/>
	<rect x="646.5" y="65.2" class="st6" width="27.4" height="26.8"/>
	<rect x="676.4" y="65.2" class="st6" width="27.4" height="26.8"/>
	<rect x="616.6" y="65.2" class="st6" width="27.4" height="26.8"/>
	<rect x="706.3" y="65.2" class="st6" width="27.4" height="26.8"/>
	<rect x="556.8" y="65.2" class="st5" width="27.4" height="26.8"/>
	<rect x="526.9" y="65.2" class="st5" width="27.4" height="26.8"/>
	<rect x="736.2" y="65.2" class="st6" width="27.4" height="26.8"/>
	<rect x="586.7" y="65.2" class="st6" width="27.4" height="26.8"/>
	<rect x="497" y="65.2" class="st5" width="27.4" height="26.8"/>
	<rect x="198.1" y="297.9" class="st5" width="27.4" height="26.8"/>
	<rect x="168.2" y="65.2" class="st4" width="27.4" height="26.8"/>
	<rect x="108.4" y="268.8" class="st9" width="27.4" height="26.8"/>
	<rect x="108.4" y="297.9" class="st6" width="27.4" height="26.8"/>
	<rect x="138.3" y="297.9" class="st6" width="27.4" height="26.8"/>
	<rect x="287.8" y="297.9" class="st5" width="27.4" height="26.8"/>
	<rect x="257.9" y="297.9" class="st5" width="27.4" height="26.8"/>
	<rect x="228" y="297.9" class="st5" width="27.4" height="26.8"/>
	<rect x="317.7" y="297.9" class="st5" width="27.4" height="26.8"/>
	<rect x="108.4" y="94.3" class="st9" width="27.4" height="26.8"/>
	<rect x="108.4" y="65.2" class="st9" width="27.4" height="26.8"/>
	<rect x="108.4" y="123.4" class="st4" width="27.4" height="26.8"/>
	<rect x="138.3" y="65.2" class="st5" width="27.4" height="26.8"/>
	<rect x="108.4" y="152.5" class="st10" width="27.4" height="26.8"/>
	<rect x="108.4" y="239.8" class="st9" width="27.4" height="26.8"/>
	<rect x="108.4" y="210.7" class="st10" width="27.4" height="26.8"/>
	<rect x="108.4" y="181.6" class="st10" width="27.4" height="26.8"/>
	<rect x="168.2" y="297.9" class="st5" width="27.4" height="26.8"/>
	<rect x="766.1" y="65.2" class="st6" width="27.4" height="26.8"/>
	<rect x="1214.5" y="268.8" class="st5" width="27.4" height="26.8"/>
	<rect x="1005.2" y="65.2" class="st6" width="27.4" height="26.8"/>
	<rect x="945.4" y="65.2" class="st6" width="27.4" height="26.8"/>
	<rect x="915.6" y="65.2" class="st7" width="27.4" height="26.8"/>
	<rect x="975.3" y="65.2" class="st6" width="27.4" height="26.8"/>
	<rect x="885.7" y="65.2" class="st7" width="27.4" height="26.8"/>
	<rect x="796" y="65.2" class="st6" width="27.4" height="26.8"/>
	<rect x="855.8" y="65.2" class="st7" width="27.4" height="26.8"/>
	<rect x="825.9" y="65.2" class="st6" width="27.4" height="26.8"/>
	<rect x="1035.1" y="65.2" class="st6" width="27.4" height="26.8"/>
	<rect x="1214.5" y="65.2" class="st9" width="27.4" height="26.8"/>
	<rect x="1154.7" y="65.2" class="st9" width="27.4" height="26.8"/>
	<rect x="1184.6" y="65.2" class="st9" width="27.4" height="26.8"/>
	<rect x="1124.8" y="65.2" class="st4" width="27.4" height="26.8"/>
	<rect x="1065" y="65.2" class="st5" width="27.4" height="26.8"/>
	<rect x="1094.9" y="65.2" class="st4" width="27.4" height="26.8"/>
	<rect x="377.5" y="65.2" class="st6" width="27.4" height="26.8"/>
	<rect x="1214.5" y="36.2" class="st9" width="27.4" height="26.8"/>
	<rect x="855.8" y="36.2" class="st6" width="27.4" height="26.8"/>
	<rect x="825.9" y="36.2" class="st5" width="27.4" height="26.8"/>
	<rect x="915.6" y="36.2" class="st5" width="27.4" height="26.8"/>
	<rect x="796" y="36.2" class="st5" width="27.4" height="26.8"/>
	<rect x="885.7" y="36.2" class="st5" width="27.4" height="26.8"/>
	<rect x="706.3" y="36.2" class="st6" width="27.4" height="26.8"/>
	<rect x="736.2" y="36.2" class="st6" width="27.4" height="26.8"/>
	<rect x="766.1" y="36.2" class="st6" width="27.4" height="26.8"/>
	<rect x="1154.7" y="36.2" class="st9" width="27.4" height="26.8"/>
	<rect x="1124.8" y="36.2" class="st9" width="27.4" height="26.8"/>
	<rect x="1094.9" y="36.2" class="st9" width="27.4" height="26.8"/>
	<rect x="1184.6" y="36.2" class="st9" width="27.4" height="26.8"/>
	<rect x="1065" y="36.2" class="st9" width="27.4" height="26.8"/>
	<rect x="1005.2" y="36.2" class="st6" width="27.4" height="26.8"/>
	<rect x="1035.1" y="36.2" class="st6" width="27.4" height="26.8"/>
	<rect x="975.3" y="36.2" class="st6" width="27.4" height="26.8"/>
	<rect x="945.4" y="36.2" class="st6" width="27.4" height="26.8"/>
	<rect x="975.3" y="297.9" class="st5" width="27.4" height="26.8"/>
	<rect x="676.4" y="297.9" class="st7" width="27.4" height="26.8"/>
	<rect x="736.2" y="297.9" class="st7" width="27.4" height="26.8"/>
	<rect x="706.3" y="297.9" class="st7" width="27.4" height="26.8"/>
	<rect x="616.6" y="297.9" class="st5" width="27.4" height="26.8"/>
	<rect x="646.5" y="297.9" class="st7" width="27.4" height="26.8"/>
	<rect x="825.9" y="297.9" class="st7" width="27.4" height="26.8"/>
	<rect x="855.8" y="297.9" class="st7" width="27.4" height="26.8"/>
	<rect x="796" y="297.9" class="st7" width="27.4" height="26.8"/>
	<rect x="437.3" y="297.9" class="st5" width="27.4" height="26.8"/>
	<rect x="467.1" y="297.9" class="st5" width="27.4" height="26.8"/>
	<rect x="407.4" y="297.9" class="st5" width="27.4" height="26.8"/>
	<rect x="377.5" y="297.9" class="st5" width="27.4" height="26.8"/>
	<rect x="586.7" y="297.9" class="st5" width="27.4" height="26.8"/>
	<rect x="497" y="297.9" class="st5" width="27.4" height="26.8"/>
	<rect x="556.8" y="297.9" class="st5" width="27.4" height="26.8"/>
	<rect x="526.9" y="297.9" class="st5" width="27.4" height="26.8"/>
	<rect x="766.1" y="297.9" class="st5" width="27.4" height="26.8"/>
	<rect x="1214.5" y="297.9" class="st6" width="27.4" height="26.8"/>
	<rect x="1154.7" y="297.9" class="st6" width="27.4" height="26.8"/>
	<rect x="1184.6" y="297.9" class="st6" width="27.4" height="26.8"/>
	<rect x="1065" y="297.9" class="st6" width="27.4" height="26.8"/>
	<rect x="945.4" y="297.9" class="st5" width="27.4" height="26.8"/>
	<rect x="347.6" y="297.9" class="st5" width="27.4" height="26.8"/>
	<rect x="915.6" y="297.9" class="st5" width="27.4" height="26.8"/>
	<rect x="1005.2" y="297.9" class="st5" width="27.4" height="26.8"/>
	<rect x="1124.8" y="297.9" class="st6" width="27.4" height="26.8"/>
	<rect x="1094.9" y="297.9" class="st9" width="27.4" height="26.8"/>
	<rect x="885.7" y="297.9" class="st7" width="27.4" height="26.8"/>
	<rect x="1035.1" y="297.9" class="st6" width="27.4" height="26.8"/>
</g>
</svg>
