<?xml version="1.0" encoding="utf-8"?>
<!-- Generator: Adobe Illustrator 19.2.0, SVG Export Plug-In . SVG Version: 6.00 Build 0)  -->
<svg version="1.1" id="Layer_1" xmlns="http://www.w3.org/2000/svg" xmlns:xlink="http://www.w3.org/1999/xlink" x="0px" y="0px"
	 width="1200px" height="907px" viewBox="0 0 1200 907" enable-background="new 0 0 1200 907" xml:space="preserve">
<g>
	<rect x="2" y="3" transform="matrix(6.123234e-17 -1 1 6.123234e-17 -1 80)" fill="#AFB8E3" width="75" height="75"/>
	<rect x="563" y="3" transform="matrix(6.123234e-17 -1 1 6.123234e-17 560 641)" fill="#939FD5" width="75" height="75"/>
	<g>
		<text transform="matrix(1 0 0 1 108.9414 59.7656)" fill="#7F7F7F" font-family="'Roboto-Regular'" font-size="65px">category A</text>
	</g>
	<g>
		<text transform="matrix(1 0 0 1 669.5684 59.7656)" fill="#7F7F7F" font-family="'Roboto-Regular'" font-size="65px">category B</text>
	</g>
	<g>
		<text transform="matrix(1 0 0 1 534.5781 902.2754)" fill="#7F7F7F" font-family="'Roboto-Regular'" font-size="65px">time</text>
	</g>
	<g>
		<g>
			<line fill="none" stroke="#AFAFAF" stroke-width="8" stroke-miterlimit="10" x1="2" y1="821" x2="1166.425" y2="821"/>
			<g>
				<polygon fill="#AFAFAF" points="1160.005,842.939 1198,821 1160.005,799.061 				"/>
			</g>
		</g>
	</g>
	<path fill="#AFB8E3" d="M1198,292.582v386.971l-16.398-5.84c-70.826-25.321-149.78-11.026-207.244,37.515L928.9,749.631
		c-41.393,34.946-102.127,34.525-143.053-1.028l-79.703-69.19c-16.538-14.389-39.477-18.968-60.314-12.007l-18.781,6.26
		c-28.872,9.624-60.547,5.372-85.869-11.54l-61.715-41.112c-39.291-26.209-91.148-23.173-127.075,7.382l-28.172,23.92
		c-55.128,46.859-137.166,42.981-187.576-8.923l-27.471-28.312C82.45,587.611,45.775,572.1,7.466,572.1H2V400.035h5.466
		c38.309,0,74.984-15.511,101.707-42.981l27.471-28.312c50.409-51.904,132.448-55.782,187.576-8.923l28.172,23.92
		c35.927,30.554,87.784,33.591,127.075,7.381l61.715-41.112c25.322-16.912,56.997-21.163,85.869-11.539l18.781,6.26
		c20.837,6.961,43.775,2.383,60.314-12.007l79.703-69.19c40.925-35.553,101.66-35.973,143.053-1.028l45.457,38.403
		c57.464,48.541,136.419,62.837,207.244,37.515L1198,292.582z"/>
	<path fill="#939FD5" d="M1198,390.925v288.628l-16.398-5.84c-70.826-25.321-149.78-11.026-207.244,37.515L928.9,749.631
		c-41.393,34.946-102.127,34.525-143.053-1.028l-79.703-69.19c-16.538-14.389-39.477-18.968-60.314-12.007l-18.781,6.26
		c-28.872,9.624-60.547,5.372-85.869-11.54l-61.715-41.112c-39.291-26.209-91.148-23.173-127.075,7.382l-28.172,23.92
		c-55.128,46.859-137.166,42.981-187.576-8.923l-27.471-28.312C82.45,587.611,45.775,572.1,7.466,572.1H2v-31.909l81.244-47.747
		c25.088-13.922,55.502-14.156,80.823-0.607l20.276,10.886c43.775,23.453,96.287,23.826,140.437,1.074l102.968-53.259
		c63.024-32.563,140.063-18.734,187.903,33.684l105.117,115.209c31.302,34.291,84.514,36.581,118.619,5.046l156.087-144.221
		C1050.322,409.566,1123.904,384.478,1198,390.925z"/>
	<g>
		<g>
			<line fill="none" stroke="#464A90" stroke-width="4" stroke-miterlimit="10" x1="778" y1="246.353" x2="778" y2="609.647"/>
			<g>
				<polygon fill="#464A90" points="768.027,249.271 778,232 787.973,249.271 				"/>
			</g>
			<g>
				<polygon fill="#464A90" points="768.027,606.729 778,624 787.973,606.729 				"/>
			</g>
		</g>
	</g>
	<g>
		<text transform="matrix(1 0 0 1 796.2031 444.4316)" fill="#464A90" font-family="'Roboto-Regular'" font-size="65px">value</text>
	</g>
</g>
</svg>
