<svg enable-background="new 0 0 256 241" height="241" viewBox="0 0 256 241" width="256" xmlns="http://www.w3.org/2000/svg"><path d="m233.311 115.098 20.689-6.464v56.838l-13.112 17.316c-8.995 11.879-27.02 11.337-35.285-1.06l-.687-1.031c-5.42-8.13-17.894-6.083-20.432 3.353l-11.708 43.539c-3.853 14.33-24.043 14.719-28.445.548l-12.363-39.793c-2.36-7.596-9.389-12.773-17.344-12.773-5.239 0-10.199-2.361-13.503-6.427l-3.337-4.107c-7.019-8.638-20.887-5.556-23.587 5.242l-3.535 14.138c-2.02 8.081-12.903 9.492-16.917 2.193l-22.571-41.038c-5.851-10.64-17.032-17.25-29.175-17.25v-19.687l22.993 2.874c5.513.689 10.64 3.196 14.569 7.126l4.122 4.122c3.297 3.297 8.377 4.016 12.459 1.764l17.6-9.709c2.645-1.459 5.616-2.227 8.636-2.231 3.435-.005 6.801.977 9.694 2.829l7.618 4.876c7.679 4.915 17.494 5.002 25.259.223l8.827-5.432c2.66-1.637 5.72-2.503 8.844-2.503 7.635 0 14.319 5.127 16.297 12.501l6.964 25.957c.299 1.12 1.316 1.9 2.478 1.9s2.178-.78 2.479-1.902l6.91-25.755c1.945-7.25 8.998-11.904 16.428-10.843l17.11 2.444c7.383 1.053 14.907.447 22.025-1.778zm6.575-73.536c-9.212-10.36-25.434-10.247-34.502.237l-5.207 6.02c-4.248 4.911-12.169 3.694-14.746-2.266l-15.463-35.757c-4.124-9.538-17.528-9.868-22.118-.545l-15.236 30.949c-2.233 4.536-8.308 5.447-11.773 1.765l-.922-.98c-3.908-4.151-10.669-3.553-13.786 1.221l-17.4 26.639c-4.116 6.302-12.986 7.223-18.308 1.901l-9.608-9.608c-6.388-6.388-16.745-6.388-23.133 0l-11.99 11.99c-5.086 5.086-11.985 7.944-19.178 7.944h-4.516v19.688l35.241-3.204c5.353-.486 10.607-1.747 15.596-3.744l5.923-2.369c3.936-1.574 8.379-1.241 12.036.903l14.902 8.736c4.292 2.516 9.814.977 12.188-3.394l12.008-22.121c.992-1.828 3.631-1.784 4.562.077l10.147 20.294c2.081 4.162 6.335 6.791 10.989 6.791 4.943 0 9.405-2.962 11.322-7.518l11.397-27.069c.72-1.708 2.392-2.819 4.246-2.819 1.745 0 3.34.986 4.121 2.547l10.032 20.064c2.648 5.296 8.414 8.274 14.266 7.365l37.111-5.759c6.508-1.01 13.151.599 18.475 4.477l7.437 5.416.001-42z"/></svg>