<svg enable-background="new 0 0 1268 418" viewBox="0 0 1268 418" xmlns="http://www.w3.org/2000/svg"><g fill="none" stroke="#ccc"><path d="m257.2 5v375.8l794.5-.7" stroke-width="1.6018"/><path d="m266 381.4v8.5" stroke-width="1.72"/><path d="m352.2 381.4v8.5" stroke-width="1.72"/><path d="m438.2 381.4v8.5" stroke-width="1.72"/><path d="m524.3 381.4v8.5" stroke-width="1.72"/><path d="m610.5 381.4v8.5" stroke-width="1.72"/><path d="m696.4 381.4v8.5" stroke-width="1.72"/><path d="m782.5 381.4v8.5" stroke-width="1.72"/><path d="m868.5 381.4v8.5" stroke-width="1.72"/><path d="m954.7 381.4v8.5" stroke-width="1.72"/><path d="m1040.8 381.4v8.5" stroke-width="1.72"/></g><path d="m271.1 407.3c0 .8-.1 1.5-.3 2.2-.1.6-.4 1.2-.8 1.7-.3.5-.8.8-1.3 1.1l-1.8.4-1.8-.4c-.5-.2-1-.6-1.3-1.1-.4-.5-.7-1.1-.9-1.7-.2-.7-.3-1.5-.3-2.2v-3.2c0-.8.1-1.5.3-2.2.1-.6.4-1.2.8-1.7.3-.5.8-.8 1.3-1.1 1.2-.5 2.5-.5 3.7 0 .5.2 1 .6 1.3 1.1.4.5.6 1.1.8 1.7.2.7.3 1.5.3 2.2zm-6.9-.4 5.3-3.9c-.1-.7-.3-1.4-.8-2-.5-.5-1.2-.7-1.8-.7-.8-.1-1.5.3-2 .9-.5.8-.7 1.7-.7 2.6v3.2zm5.2-2.4-5.1 3.9c0 .7.3 1.4.8 2 .5.5 1.2.7 1.8.7.8.1 1.5-.3 2-.9.5-.8.7-1.7.7-2.6v-2.9z" fill="#ccc"/><path d="m354.4 412.4h-1.7v-11.2l-3.5 1.3v-1.5l5-2h.1v13.3z" fill="#ccc"/><path d="m443.1 412.4h-8.7v-1.2l4.3-4.9.9-1.2.7-.9.4-.8c.1-.3.1-.5.1-.8s0-.6-.1-.9l-.5-.8-.8-.5h-2.1l-.8.5c-.2.3-.4.6-.5.9-.1.4-.2.8-.1 1.2h-1.7c0-.5.1-1.1.3-1.6s.4-.9.8-1.3l1.3-.9 1.8-.4 1.7.3 1.3.8c.3.3.6.7.8 1.2s.3 1 .3 1.4-.1.8-.3 1.2l-.5 1.2-.8 1.2-.9 1.1-3.5 3.9h6.7v1.4-.1z" fill="#ccc"/><path d="m523 404.9h2.4l.8-.5.5-.7c.1-.3.1-.6.1-.9.2-1.1-.7-2.2-1.8-2.4-.2 0-.4 0-.6 0h-.9l-.8.5-.5.7c-.1.3-.1.6-.1.9h-1.7c0-1 .4-2 1.2-2.6l1.3-.8 1.7-.3 1.6.3 1.3.7c.3.3.6.7.8 1.2s.3 1 .3 1.6c0 .3-.1.5-.1.8l-.4.8-.7.8-.9.5 1.1.5.7.8c.2.3.3.6.4.9s.1.6.1.9c0 .6-.1 1.2-.3 1.7s-.5.9-.9 1.2l-1.3.8-1.7.3-1.7-.3-1.3-.8c-.4-.3-.7-.7-.9-1.2-.3-.5-.4-1-.4-1.6h1.7c0 .3 0 .6.1.9l.5.8.8.5h2.1l.8-.5.5-.8c.1-.3.1-.7.1-1.1s-.1-.7-.3-1.1l-.5-.8-.9-.4h-2.4v-1.3z" fill="#ccc"/><path d="m614 407.9h1.8v1.4h-1.8v3.2h-1.7v-3.2h-6v-1.1l5.9-9.2h1.8zm-6 0h4.2v-6.6l-.3.5z" fill="#ccc"/><path d="m693.9 405.7.7-6.7h6.8v1.7h-5.4l-.4 3.5.9-.4h1.3l1.7.3c.5.2.9.5 1.2.9.4.4.6.9.8 1.4.2.6.3 1.2.3 1.8s-.1 1.2-.3 1.7-.4 1-.8 1.4-.8.7-1.3.9l-1.8.4-1.6-.3-1.3-.7c-.4-.3-.7-.7-.9-1.2s-.4-1-.4-1.6h1.6c0 .6.3 1.3.8 1.7s1.1.6 1.7.5l1.1-.3.8-.7c.2-.3.4-.6.5-.9.1-.4.1-.8.1-1.2s0-.8-.1-1.2c-.1-.3-.3-.6-.5-.9l-.8-.7-1.2-.3h-1.4l-.5.3-.4.4z" fill="#ccc"/><path d="m785.6 399.1v1.6h-1.7l-1.2.5-.9.7-.7.9-.4 1.1c-.1.3-.1.7-.1 1.1l.5-.5.7-.4.8-.3h.9c.6 0 1.2.1 1.7.4s.9.6 1.2 1.1c.3.4.5.9.7 1.4s.2 1 .3 1.6c0 .6-.1 1.2-.3 1.7s-.4 1-.8 1.4-.8.7-1.3.9c-.6.3-1.2.4-1.8.4l-1.3-.3-1.1-.5-.8-.9-.4-1.1c-.2-.4-.3-.8-.4-1.2s-.1-.8-.1-1.2v-.8c0-.6 0-1.2.1-1.8s.2-1.2.4-1.7c.2-.6.5-1.1.8-1.6s.7-1 1.2-1.3l1.7-.8 2.2-.3h.1zm-2.3 6.1h-.8l-.8.4-.7.7-.4.8v.5c0 .5.1 1.1.3 1.6.1.4.3.8.5 1.2l.8.7.9.3 1.1-.3.8-.7c.2-.3.4-.6.5-.9.2-.8.2-1.6 0-2.4-.1-.3-.2-.6-.4-.9l-.8-.7z" fill="#ccc"/><path d="m873.9 400.1-5.5 12.3h-1.8l5.5-11.8h-7.2v-1.4h9.1v.9z" fill="#ccc"/><path d="m959.8 402.6c0 .7-.2 1.3-.5 1.8-.4.5-.9.9-1.4 1.2l.9.5.7.8.4.9c.1.3.1.7.1 1.1 0 .5-.1 1.1-.4 1.6-.2.5-.5.9-.9 1.2l-1.3.8-1.7.3-1.7-.3-1.3-.8c-.4-.3-.7-.7-.9-1.2s-.4-1-.4-1.6c0-.4 0-.7.1-1.1l.4-.9.7-.8.9-.5-.8-.5-.7-.7-.4-.8c-.1-.3-.1-.6-.1-.9 0-.5.1-1.1.3-1.6.2-.4.4-.8.8-1.2l1.2-.7 1.6-.3 1.6.3 1.3.7c.3.3.6.7.8 1.2.2.4.5.9.7 1.5zm-1.5 6.1c0-.4 0-.7-.1-1.1l-.5-.8-.8-.5h-2.1l-.8.5-.5.8c-.1.3-.2.7-.1 1.1 0 .4 0 .7.1 1.1l.5.8.8.5h2.1l.8-.5.5-.8c.1-.3.1-.6.1-.9zm-.2-6.1c0-.3 0-.6-.1-.9l-.5-.8-.7-.5h-1.8l-.7.5-.4.8c-.1.3-.1.6-.1.9s0 .6.1.9l.4.7.7.4h1.8l.7-.4.5-.7c.1-.3.1-.5.1-.8z" fill="#ccc"/><path d="m1039.5 411h1.6l1.2-.4.8-.7.5-.9c.1-.3.2-.7.3-1.1.1-.3.1-.7.1-1.1l-.5.5-.7.4-.8.3h-.9c-1.1 0-2.2-.5-2.9-1.4-.3-.4-.5-.9-.7-1.4-.3-1.1-.3-2.3 0-3.4.2-.5.4-1 .8-1.4s.8-.8 1.3-1.1c.6-.3 1.2-.4 1.8-.4l1.4.3 1.1.7.8.9.5 1.1c.1.4.2.9.3 1.3s.1.9.1 1.3v.7c0 .5 0 1.1-.1 1.7 0 .6-.1 1.1-.3 1.7s-.4 1.1-.7 1.6-.7 1-1.2 1.3l-1.7.9-2.4.3h-.1v-1.4h.3v-.3zm1.9-4.4h.8l.8-.4.7-.7.4-.8v-.5c0-.5-.1-1.1-.3-1.6-.1-.4-.3-.8-.5-1.2l-.8-.8-.9-.3-1.1.3-.8.7c-.2.3-.4.7-.5 1.1s-.1.8-.1 1.2 0 .8.1 1.2.2.7.4 1.1l.8.7z" fill="#ccc"/><path d="m255.4 47.3h-8.5" fill="none" stroke="#ccc" stroke-width="1.72"/><path d="m255.4 133.4h-8.5" fill="none" stroke="#ccc" stroke-width="1.72"/><path d="m255.4 219.3h-8.5" fill="none" stroke="#ccc" stroke-width="1.72"/><path d="m255.4 305.5h-8.5" fill="none" stroke="#ccc" stroke-width="1.72"/><path d="m224 312.8h-1.7v-11.2l-3.5 1.3v-1.6l5-2h.1v13.4h.1z" fill="#ccc"/><path d="m238.2 307.6c0 .8-.1 1.5-.3 2.2-.1.6-.4 1.2-.8 1.7-.3.5-.8.8-1.3 1.1l-1.8.4-1.8-.4c-.5-.2-1-.6-1.3-1.1-.4-.5-.7-1.1-.9-1.7-.2-.7-.3-1.5-.3-2.2v-3.2c0-.8.1-1.5.3-2.2.1-.6.4-1.2.8-1.7.3-.5.8-.8 1.3-1.1 1.2-.5 2.5-.5 3.7 0 .5.2 1 .6 1.3 1.1.4.5.6 1.1.8 1.7.2.7.3 1.5.3 2.2zm-7-.4 5.3-3.9c-.1-.7-.3-1.4-.8-2-.5-.5-1.2-.7-1.8-.7-.8-.1-1.5.3-2 .9-.5.8-.7 1.7-.7 2.6v3.2zm5.3-2.3-5.1 3.9c0 .7.3 1.4.8 2 .5.5 1.2.7 1.8.7.8.1 1.5-.3 2-.9.5-.8.7-1.7.7-2.6v-3h-.2z" fill="#ccc"/><path d="m226.8 225.2h-8.8v-1.2l4.3-4.9.9-1.2.7-.9.4-.8c.1-.3.1-.5.1-.8s0-.6-.1-.9l-.5-.8-.8-.5h-2.1l-.8.5c-.2.3-.4.6-.5.9-.1.4-.2.8-.1 1.2h-1.7c0-.5.1-1.1.3-1.6s.4-.9.8-1.3l1.3-.9 1.8-.4 1.7.3 1.3.8c.3.3.6.7.8 1.2s.3 1 .3 1.4-.1.8-.3 1.2l-.5 1.2-.8 1.2-.9 1.1-3.5 3.9h6.8v1.4-.1z" fill="#ccc"/><path d="m238.2 220.1c0 .8-.1 1.5-.3 2.2-.1.6-.4 1.2-.8 1.7-.3.5-.8.8-1.3 1.1l-1.8.4-1.8-.4c-.5-.2-1-.6-1.3-1.1-.4-.5-.7-1.1-.9-1.7-.2-.7-.3-1.5-.3-2.2v-3.2c0-.8.1-1.5.3-2.2.1-.6.4-1.2.8-1.7.3-.5.8-.8 1.3-1.1l1.8-.4c.6 0 1.3.1 1.8.4.5.2 1 .6 1.3 1.1.4.5.6 1.1.8 1.7.2.7.3 1.5.3 2.2v3.2zm-7-.4 5.3-3.9c-.1-.7-.3-1.4-.8-2-.5-.5-1.2-.7-1.8-.7-.8-.1-1.5.3-2 .9-.5.8-.7 1.7-.7 2.6v3.2zm5.3-2.4-5.1 3.9c0 .7.3 1.4.8 2 .5.5 1.2.7 1.8.7.8.1 1.5-.3 2-.9.5-.8.7-1.7.7-2.6v-3h-.2z" fill="#ccc"/><path d="m220.6 131.3h2.2l.8-.5.5-.8c.1-.3.1-.6.1-.9 0-.6-.2-1.2-.7-1.7-.5-.4-1.1-.6-1.7-.5h-.8l-.8.5-.5.8c-.1.3-.1.6-.1.9h-1.6c0-1 .4-2 1.2-2.6l1.3-.8 1.7-.3 1.6.3 1.3.7c.3.3.6.7.8 1.2s.3 1 .3 1.6c0 .3-.1.5-.1.8l-.4.8-.7.8-1 .4 1.1.5.7.8c.2.3.3.6.4.9s.1.6.1.9c0 .6-.1 1.2-.3 1.7s-.5.9-.9 1.2l-1.3.8-1.7.3-1.7-.3-1.4-.8c-.4-.3-.7-.7-.9-1.2-.3-.5-.4-1-.4-1.6h1.8c0 .3 0 .6.1.9l.5.8.8.5h2.1l.8-.5.5-.8c.1-.3.1-.7.1-1.1s-.1-.7-.3-1.1l-.5-.8-.9-.4h-2.2v-1.3-.1z" fill="#ccc"/><path d="m238.2 133.7c0 .8-.1 1.5-.3 2.2-.1.6-.4 1.2-.8 1.7-.3.5-.8.8-1.3 1.1l-1.8.4-1.8-.4c-.5-.2-1-.6-1.3-1.1-.4-.5-.7-1.1-.9-1.7-.2-.7-.3-1.5-.3-2.2v-3.2c0-.8.1-1.5.3-2.2.1-.6.4-1.2.8-1.7.3-.5.8-.8 1.3-1.1l1.8-.4c.6 0 1.3.1 1.8.4.5.2 1 .6 1.3 1.1.4.5.6 1.1.8 1.7.2.7.3 1.5.3 2.2v3.2zm-7-.4 5.3-3.9c-.1-.7-.3-1.4-.8-2-.5-.5-1.2-.7-1.8-.7-.8-.1-1.5.3-2 .9-.5.8-.7 1.7-.7 2.6v3.2zm5.3-2.4-5.1 3.9c0 .7.3 1.4.8 2 .5.5 1.2.7 1.8.7.8.1 1.5-.3 2-.9.5-.8.7-1.7.7-2.6v-3h-.2z" fill="#ccc"/><path d="m225.5 48.1h1.8v1.4h-1.8v3.2h-1.7v-3.3h-6v-.9l5.9-9.2h1.8zm-6 0h4.2v-6.6l-.3.5z" fill="#ccc"/><path d="m238.2 47.4c0 .8-.1 1.5-.3 2.2-.1.6-.4 1.2-.8 1.7-.3.5-.8.8-1.3 1.1l-1.8.4-2-.5c-.5-.2-1-.6-1.3-1.1-.4-.5-.7-1.1-.9-1.7-.2-.7-.3-1.5-.3-2.2v-3c0-.8.1-1.5.3-2.2.1-.6.4-1.2.8-1.7.3-.5.8-.8 1.3-1.1l1.8-.4c.6 0 1.3.1 1.8.4.5.2 1 .6 1.3 1.1.4.5.6 1.1.8 1.7.2.7.3 1.5.3 2.2v3.2h.3zm-7-.4 5.3-3.9c-.1-.7-.3-1.4-.8-2-.5-.5-1.2-.7-1.8-.7-.8-.1-1.5.3-2 .9-.5.8-.7 1.7-.7 2.6v3.2zm5.3-2.3-5.1 3.9c0 .7.3 1.4.8 2 .5.5 1.2.7 1.8.7.8.1 1.5-.3 2-.9.5-.8.7-1.7.7-2.6v-3z" fill="#ccc"/><path d="m269.7 214.9s53.3-75.1 82.5-76.2c45.3-1.4 51.9 156 86 156s37.6-128.7 86.4-128.7 47.4 79.3 85.9 87.6c34.7 7.5 49.1-213.1 86.4-213.1s45.2 160.3 86 159.4c46.2-.9 47.9 138.6 85.7 138.6s46.6-77.5 81.4-77.5 47.5-69.8 90.9-69.8" fill="none" stroke="#a39cb9" stroke-miterlimit="10" stroke-width="7.8777"/><path d="m352.2 133.1c2.9 0 5.3 2.3 5.3 5.2 0 2.9-2.4 5.2-5.3 5.2-2.9 0-5.3-2.3-5.3-5.2 0-2.8 2.4-5.2 5.3-5.2z" fill="#5d5d5e" stroke="#fff" stroke-miterlimit="10" stroke-width="2.4683"/><path d="m438.2 289.8c2.9 0 5.3 2.3 5.3 5.2 0 2.9-2.4 5.2-5.3 5.2-2.9 0-5.3-2.3-5.3-5.2 0-2.9 2.4-5.2 5.3-5.2z" fill="#5d5d5e" stroke="#fff" stroke-miterlimit="10" stroke-width="2.4683"/><path d="m269.7 209c2.9 0 5.3 2.3 5.3 5.2 0 2.9-2.4 5.2-5.3 5.2-2.9 0-5.3-2.3-5.3-5.2.1-2.8 2.4-5.2 5.3-5.2z" fill="#5d5d5e" stroke="#fff" stroke-miterlimit="10" stroke-width="2.4683"/><path d="m524.3 161.1c2.9 0 5.3 2.3 5.3 5.2 0 2.9-2.4 5.2-5.3 5.2-2.9 0-5.3-2.3-5.3-5.2 0-2.8 2.4-5.2 5.3-5.2z" fill="#5d5d5e" stroke="#fff" stroke-miterlimit="10" stroke-width="2.4683"/><path d="m610.5 247.8c2.9 0 5.3 2.3 5.3 5.2 0 2.9-2.4 5.2-5.3 5.2-2.9 0-5.3-2.3-5.3-5.2.1-2.9 2.4-5.2 5.3-5.2z" fill="#5d5d5e" stroke="#fff" stroke-miterlimit="10" stroke-width="2.4683"/><path d="m696.4 35.3c2.9 0 5.3 2.3 5.3 5.2 0 2.9-2.4 5.2-5.3 5.2-2.9 0-5.3-2.3-5.3-5.2.1-2.8 2.4-5.2 5.3-5.2z" fill="#5d5d5e" stroke="#fff" stroke-miterlimit="10" stroke-width="2.4683"/><path d="m782.5 194.5c2.9 0 5.3 2.3 5.3 5.2 0 2.9-2.4 5.2-5.3 5.2-2.9 0-5.3-2.3-5.3-5.2.1-2.9 2.4-5.2 5.3-5.2z" fill="#5d5d5e" stroke="#fff" stroke-miterlimit="10" stroke-width="2.4683"/><path d="m868.5 333.4c2.9 0 5.3 2.3 5.3 5.2 0 2.9-2.4 5.2-5.3 5.2-2.9 0-5.3-2.3-5.3-5.2.1-2.9 2.4-5.2 5.3-5.2z" fill="#5d5d5e" stroke="#fff" stroke-miterlimit="10" stroke-width="2.4683"/><path d="m954.7 255.6c2.9 0 5.3 2.3 5.3 5.2 0 2.9-2.4 5.2-5.3 5.2-2.9 0-5.3-2.3-5.3-5.2 0-2.8 2.4-5.2 5.3-5.2z" fill="#5d5d5e" stroke="#fff" stroke-miterlimit="10" stroke-width="2.4683"/><path d="m1040.8 186.1c2.9 0 5.3 2.3 5.3 5.2 0 2.9-2.4 5.2-5.3 5.2-2.9 0-5.3-2.3-5.3-5.2 0-2.9 2.4-5.2 5.3-5.2z" fill="#5d5d5e" stroke="#fff" stroke-miterlimit="10" stroke-width="2.4683"/></svg>