<?xml version="1.0" encoding="utf-8"?>
<!-- Generator: Adobe Illustrator 19.2.0, SVG Export Plug-In . SVG Version: 6.00 Build 0)  -->
<svg version="1.1" id="Layer_1" xmlns="http://www.w3.org/2000/svg" xmlns:xlink="http://www.w3.org/1999/xlink" x="0px" y="0px"
	 width="1268px" height="558px" viewBox="0 0 1268 558" enable-background="new 0 0 1268 558" xml:space="preserve">

<g>
	<g>
		<line fill="none" stroke="#C4C4C4" stroke-miterlimit="10" x1="79.355" y1="437.188" x2="1191.355" y2="437.188"/>
		<line fill="none" stroke="#C4C4C4" stroke-miterlimit="10" x1="79.355" y1="352.188" x2="1191.355" y2="352.188"/>
		<line fill="none" stroke="#C4C4C4" stroke-miterlimit="10" x1="79.355" y1="267.188" x2="1191.355" y2="267.188"/>
		<line fill="none" stroke="#C4C4C4" stroke-miterlimit="10" x1="79.355" y1="182.188" x2="1191.355" y2="182.188"/>
		<line fill="none" stroke="#C4C4C4" stroke-miterlimit="10" x1="79.355" y1="97.188" x2="1191.355" y2="97.188"/>
		<line fill="none" stroke="#C4C4C4" stroke-miterlimit="10" x1="79.355" y1="12.188" x2="1191.355" y2="12.188"/>
	</g>
	<g>
		<text transform="matrix(1 0 0 1 2.6447 21.9973)"><tspan x="0" y="0" fill="#B3B3B3" font-family="'RobotoCondensed-Regular'" font-size="26px">120$</tspan><tspan x="0" y="83" fill="#B3B3B3" font-family="'RobotoCondensed-Regular'" font-size="26px">100$</tspan><tspan x="12.835" y="166" fill="#B3B3B3" font-family="'RobotoCondensed-Regular'" font-size="26px">80$</tspan><tspan x="12.835" y="249" fill="#B3B3B3" font-family="'RobotoCondensed-Regular'" font-size="26px">60$</tspan><tspan x="12.835" y="332" fill="#B3B3B3" font-family="'RobotoCondensed-Regular'" font-size="26px">40$</tspan><tspan x="12.835" y="415" fill="#B3B3B3" font-family="'RobotoCondensed-Regular'" font-size="26px">20$</tspan><tspan x="25.67" y="498" fill="#B3B3B3" font-family="'RobotoCondensed-Regular'" font-size="26px">0$</tspan></text>
	</g>
	<g>
		<text transform="matrix(1 0 0 1 1214.0156 21.9973)"><tspan x="0" y="0" fill="#B3B3B3" font-family="'RobotoCondensed-Regular'" font-size="26px">120$</tspan><tspan x="0" y="83" fill="#B3B3B3" font-family="'RobotoCondensed-Regular'" font-size="26px">100$</tspan><tspan x="12.835" y="166" fill="#B3B3B3" font-family="'RobotoCondensed-Regular'" font-size="26px">80$</tspan><tspan x="12.835" y="249" fill="#B3B3B3" font-family="'RobotoCondensed-Regular'" font-size="26px">60$</tspan><tspan x="12.835" y="332" fill="#B3B3B3" font-family="'RobotoCondensed-Regular'" font-size="26px">40$</tspan><tspan x="12.835" y="415" fill="#B3B3B3" font-family="'RobotoCondensed-Regular'" font-size="26px">20$</tspan><tspan x="25.67" y="498" fill="#B3B3B3" font-family="'RobotoCondensed-Regular'" font-size="26px">0$</tspan></text>
	</g>
	
		<line fill="none" stroke="#9C96AD" stroke-width="2" stroke-miterlimit="10" x1="79.355" y1="522.188" x2="1191.355" y2="522.188"/>
	<g>
		<text transform="matrix(1 0 0 1 178.787 551.199)" fill="#B3B3B3" font-family="'RobotoCondensed-Regular'" font-size="26px">March</text>
	</g>
	<g>
		<text transform="matrix(1 0 0 1 616.7801 551.1987)" fill="#B3B3B3" font-family="'RobotoCondensed-Regular'" font-size="26px">April</text>
	</g>
	<g>
		<text transform="matrix(1 0 0 1 1048.4325 551.1987)" fill="#B3B3B3" font-family="'RobotoCondensed-Regular'" font-size="26px">May</text>
	</g>
	<line fill="none" stroke="#4F3D6E" stroke-width="2" stroke-miterlimit="10" x1="87.355" y1="168.188" x2="87.355" y2="291.188"/>
	
		<line fill="none" stroke="#4F3D6E" stroke-width="2" stroke-miterlimit="10" x1="107.355" y1="189.688" x2="107.355" y2="267.188"/>
	
		<line fill="none" stroke="#4F3D6E" stroke-width="2" stroke-miterlimit="10" x1="128.355" y1="206.938" x2="128.355" y2="367.188"/>
	
		<line fill="none" stroke="#4F3D6E" stroke-width="2" stroke-miterlimit="10" x1="148.355" y1="168.188" x2="148.355" y2="324.938"/>
	
		<line fill="none" stroke="#4F3D6E" stroke-width="2" stroke-miterlimit="10" x1="169.355" y1="194.688" x2="169.355" y2="267.188"/>
	
		<line fill="none" stroke="#4F3D6E" stroke-width="2" stroke-miterlimit="10" x1="190.355" y1="106.688" x2="190.355" y2="182.188"/>
	
		<line fill="none" stroke="#4F3D6E" stroke-width="2" stroke-miterlimit="10" x1="211.355" y1="156.938" x2="211.355" y2="303.688"/>
	
		<line fill="none" stroke="#4F3D6E" stroke-width="2" stroke-miterlimit="10" x1="231.355" y1="228.438" x2="231.355" y2="341.438"/>
	
		<line fill="none" stroke="#4F3D6E" stroke-width="2" stroke-miterlimit="10" x1="252.355" y1="280.188" x2="252.355" y2="393.188"/>
	
		<line fill="none" stroke="#4F3D6E" stroke-width="2" stroke-miterlimit="10" x1="273.355" y1="221.687" x2="273.355" y2="298.688"/>
	
		<line fill="none" stroke="#4F3D6E" stroke-width="2" stroke-miterlimit="10" x1="293.355" y1="266.188" x2="293.355" y2="352.688"/>
	
		<line fill="none" stroke="#4F3D6E" stroke-width="2" stroke-miterlimit="10" x1="314.355" y1="352.188" x2="314.355" y2="438.688"/>
	
		<line fill="none" stroke="#4F3D6E" stroke-width="2" stroke-miterlimit="10" x1="335.355" y1="303.688" x2="335.355" y2="415.188"/>
	
		<line fill="none" stroke="#4F3D6E" stroke-width="2" stroke-miterlimit="10" x1="356.355" y1="269.188" x2="356.355" y2="380.688"/>
	
		<line fill="none" stroke="#4F3D6E" stroke-width="2" stroke-miterlimit="10" x1="376.355" y1="344.938" x2="376.355" y2="472.688"/>
	
		<line fill="none" stroke="#4F3D6E" stroke-width="2" stroke-miterlimit="10" x1="397.355" y1="377.688" x2="397.355" y2="469.188"/>
	
		<line fill="none" stroke="#4F3D6E" stroke-width="2" stroke-miterlimit="10" x1="418.355" y1="295.688" x2="418.355" y2="387.188"/>
	
		<line fill="none" stroke="#4F3D6E" stroke-width="2" stroke-miterlimit="10" x1="439.355" y1="284.188" x2="439.355" y2="375.688"/>
	
		<line fill="none" stroke="#4F3D6E" stroke-width="2" stroke-miterlimit="10" x1="459.355" y1="207.438" x2="459.355" y2="298.938"/>
	
		<line fill="none" stroke="#4F3D6E" stroke-width="2" stroke-miterlimit="10" x1="480.355" y1="244.688" x2="480.355" y2="308.938"/>
	
		<line fill="none" stroke="#4F3D6E" stroke-width="2" stroke-miterlimit="10" x1="501.355" y1="172.938" x2="501.355" y2="344.938"/>
	
		<line fill="none" stroke="#4F3D6E" stroke-width="2" stroke-miterlimit="10" x1="521.355" y1="230.938" x2="521.355" y2="321.438"/>
	
		<line fill="none" stroke="#4F3D6E" stroke-width="2" stroke-miterlimit="10" x1="542.355" y1="184.438" x2="542.355" y2="274.938"/>
	
		<line fill="none" stroke="#4F3D6E" stroke-width="2" stroke-miterlimit="10" x1="563.355" y1="196.938" x2="563.355" y2="321.438"/>
	
		<line fill="none" stroke="#4F3D6E" stroke-width="2" stroke-miterlimit="10" x1="584.355" y1="159.188" x2="584.355" y2="253.188"/>
	
		<line fill="none" stroke="#4F3D6E" stroke-width="2" stroke-miterlimit="10" x1="604.355" y1="211.938" x2="604.355" y2="305.938"/>
	
		<line fill="none" stroke="#4F3D6E" stroke-width="2" stroke-miterlimit="10" x1="625.355" y1="196.188" x2="625.355" y2="290.188"/>
	
		<line fill="none" stroke="#4F3D6E" stroke-width="2" stroke-miterlimit="10" x1="646.355" y1="119.188" x2="646.355" y2="284.188"/>
	<line fill="none" stroke="#4F3D6E" stroke-width="2" stroke-miterlimit="10" x1="667.355" y1="59.188" x2="667.355" y2="175.688"/>
	<line fill="none" stroke="#4F3D6E" stroke-width="2" stroke-miterlimit="10" x1="687.355" y1="97.188" x2="687.355" y2="228.438"/>
	
		<line fill="none" stroke="#4F3D6E" stroke-width="2" stroke-miterlimit="10" x1="708.355" y1="158.062" x2="708.355" y2="267.188"/>
	
		<line fill="none" stroke="#4F3D6E" stroke-width="2" stroke-miterlimit="10" x1="729.355" y1="169.188" x2="729.355" y2="298.688"/>
	
		<line fill="none" stroke="#4F3D6E" stroke-width="2" stroke-miterlimit="10" x1="749.355" y1="223.688" x2="749.355" y2="292.688"/>
	
		<line fill="none" stroke="#4F3D6E" stroke-width="2" stroke-miterlimit="10" x1="770.355" y1="208.688" x2="770.355" y2="277.688"/>
	
		<line fill="none" stroke="#4F3D6E" stroke-width="2" stroke-miterlimit="10" x1="790.355" y1="163.188" x2="790.355" y2="254.188"/>
	
		<line fill="none" stroke="#4F3D6E" stroke-width="2" stroke-miterlimit="10" x1="812.355" y1="308.688" x2="812.355" y2="423.188"/>
	
		<line fill="none" stroke="#4F3D6E" stroke-width="2" stroke-miterlimit="10" x1="832.355" y1="267.188" x2="832.355" y2="342.188"/>
	
		<line fill="none" stroke="#4F3D6E" stroke-width="2" stroke-miterlimit="10" x1="853.355" y1="287.854" x2="853.355" y2="362.854"/>
	
		<line fill="none" stroke="#4F3D6E" stroke-width="2" stroke-miterlimit="10" x1="874.355" y1="233.938" x2="874.355" y2="323.854"/>
	
		<line fill="none" stroke="#4F3D6E" stroke-width="2" stroke-miterlimit="10" x1="895.355" y1="173.521" x2="895.355" y2="283.188"/>
	
		<line fill="none" stroke="#4F3D6E" stroke-width="2" stroke-miterlimit="10" x1="915.355" y1="228.188" x2="915.355" y2="309.188"/>
	<line fill="none" stroke="#4F3D6E" stroke-width="2" stroke-miterlimit="10" x1="936.355" y1="64.854" x2="936.355" y2="267.021"/>
	<line fill="none" stroke="#4F3D6E" stroke-width="2" stroke-miterlimit="10" x1="957.355" y1="78.104" x2="957.355" y2="152.854"/>
	<line fill="none" stroke="#4F3D6E" stroke-width="2" stroke-miterlimit="10" x1="977.355" y1="46.521" x2="977.355" y2="150.521"/>
	
		<line fill="none" stroke="#4F3D6E" stroke-width="2" stroke-miterlimit="10" x1="998.355" y1="138.687" x2="998.355" y2="242.687"/>
	
		<line fill="none" stroke="#4F3D6E" stroke-width="2" stroke-miterlimit="10" x1="1019.355" y1="202.188" x2="1019.355" y2="359.521"/>
	
		<line fill="none" stroke="#4F3D6E" stroke-width="2" stroke-miterlimit="10" x1="1040.355" y1="244.688" x2="1040.355" y2="353.521"/>
	
		<line fill="none" stroke="#4F3D6E" stroke-width="2" stroke-miterlimit="10" x1="1060.355" y1="280.854" x2="1060.355" y2="348.688"/>
	
		<line fill="none" stroke="#4F3D6E" stroke-width="2" stroke-miterlimit="10" x1="1081.355" y1="332.021" x2="1081.355" y2="418.938"/>
	
		<line fill="none" stroke="#4F3D6E" stroke-width="2" stroke-miterlimit="10" x1="1102.355" y1="299.104" x2="1102.355" y2="402.979"/>
	
		<line fill="none" stroke="#4F3D6E" stroke-width="2" stroke-miterlimit="10" x1="1123.355" y1="278.75" x2="1123.355" y2="382.625"/>
	
		<line fill="none" stroke="#4F3D6E" stroke-width="2" stroke-miterlimit="10" x1="1143.355" y1="215.688" x2="1143.355" y2="348.562"/>
	
		<line fill="none" stroke="#4F3D6E" stroke-width="2" stroke-miterlimit="10" x1="1164.355" y1="216.75" x2="1164.355" y2="280.688"/>
	
		<line fill="none" stroke="#4F3D6E" stroke-width="2" stroke-miterlimit="10" x1="1185.355" y1="142.521" x2="1185.355" y2="260.323"/>
	
		<line fill="none" stroke="#4F3D6E" stroke-width="2" stroke-miterlimit="10" x1="162.355" y1="207.188" x2="176.355" y2="207.188"/>
	
		<line fill="none" stroke="#4F3D6E" stroke-width="2" stroke-miterlimit="10" x1="452.355" y1="282.188" x2="466.355" y2="282.188"/>
	
		<line fill="none" stroke="#4F3D6E" stroke-width="2" stroke-miterlimit="10" x1="618.355" y1="227.188" x2="632.355" y2="227.188"/>
	
		<rect x="1178.855" y="167.688" transform="matrix(-1 -4.491530e-11 4.491530e-11 -1 2370.7104 416.375)" fill="#9C96AD" stroke="#4F3D6E" stroke-miterlimit="10" width="13" height="81"/>
	
		<rect x="1157.855" y="227.688" transform="matrix(-1 -4.491530e-11 4.491530e-11 -1 2328.7104 476.375)" fill="#6C5F82" stroke="#4F3D6E" stroke-miterlimit="10" width="13" height="21"/>
	
		<rect x="1136.855" y="234.688" transform="matrix(-1 -4.484514e-11 4.484514e-11 -1 2286.7104 558.375)" fill="#6C5F82" stroke="#4F3D6E" stroke-miterlimit="10" width="13" height="89"/>
	
		<rect x="1116.855" y="312.688" transform="matrix(-1 -4.491530e-11 4.491530e-11 -1 2246.7104 661.375)" fill="#9C96AD" stroke="#4F3D6E" stroke-miterlimit="10" width="13" height="36"/>
	
		<rect x="1095.855" y="326.688" transform="matrix(-1 -4.484514e-11 4.484514e-11 -1 2204.7104 724.375)" fill="#6C5F82" stroke="#4F3D6E" stroke-miterlimit="10" width="13" height="71"/>
	
		<rect x="1053.855" y="325.688" transform="matrix(-1 -4.498503e-11 4.498503e-11 -1 2120.7104 674.375)" fill="#9C96AD" stroke="#4F3D6E" stroke-miterlimit="10" width="13" height="23"/>
	
		<rect x="1033.855" y="280.688" transform="matrix(-1 -4.491530e-11 4.491530e-11 -1 2080.7104 615.375)" fill="#6C5F82" stroke="#4F3D6E" stroke-miterlimit="10" width="13" height="54"/>
	
		<rect x="1012.855" y="219.688" transform="matrix(-1 -4.484514e-11 4.484514e-11 -1 2038.7104 561.375)" fill="#9C96AD" stroke="#4F3D6E" stroke-miterlimit="10" width="13" height="122"/>
	
		<rect x="991.855" y="149.688" transform="matrix(-1 -4.491530e-11 4.491530e-11 -1 1996.7104 381.375)" fill="#6C5F82" stroke="#4F3D6E" stroke-miterlimit="10" width="13" height="82"/>
	
		<rect x="970.855" y="102.688" transform="matrix(-1 -4.491530e-11 4.491530e-11 -1 1954.7104 232.375)" fill="#6C5F82" stroke="#4F3D6E" stroke-miterlimit="10" width="13" height="27"/>
	
		<rect x="950.855" y="89.688" transform="matrix(-1 -4.491530e-11 4.491530e-11 -1 1914.7104 190.375)" fill="#6C5F82" stroke="#4F3D6E" stroke-miterlimit="10" width="13" height="11"/>
	
		<rect x="929.855" y="89.688" transform="matrix(-1 -4.498503e-11 4.498503e-11 -1 1872.7104 317.375)" fill="#9C96AD" stroke="#4F3D6E" stroke-miterlimit="10" width="13" height="138"/>
	
		<rect x="908.855" y="227.688" transform="matrix(-1 -4.484514e-11 4.484514e-11 -1 1830.7104 464.375)" fill="#9C96AD" stroke="#4F3D6E" stroke-miterlimit="10" width="13" height="9"/>
	
		<rect x="888.855" y="234.688" transform="matrix(-1 -4.491530e-11 4.491530e-11 -1 1790.7104 506.375)" fill="#6C5F82" stroke="#4F3D6E" stroke-miterlimit="10" width="13" height="37"/>
	
		<rect x="867.855" y="268.688" transform="matrix(-1 -4.484514e-11 4.484514e-11 -1 1748.7104 585.375)" fill="#9C96AD" stroke="#4F3D6E" stroke-miterlimit="10" width="13" height="48"/>
	
		<rect x="846.855" y="292.688" transform="matrix(-1 -4.491530e-11 4.491530e-11 -1 1706.7104 618.375)" fill="#6C5F82" stroke="#4F3D6E" stroke-miterlimit="10" width="13" height="33"/>
	
		<rect x="825.855" y="292.688" transform="matrix(-1 -4.491530e-11 4.491530e-11 -1 1664.7104 614.375)" fill="#9C96AD" stroke="#4F3D6E" stroke-miterlimit="10" width="13" height="29"/>
	
		<rect x="805.855" y="334.688" transform="matrix(-1 -4.498503e-11 4.498503e-11 -1 1624.7104 722.375)" fill="#6C5F82" stroke="#4F3D6E" stroke-miterlimit="10" width="13" height="53"/>
	
		<rect x="784.855" y="192.688" transform="matrix(-1 -4.491530e-11 4.491530e-11 -1 1582.7104 422.375)" fill="#6C5F82" stroke="#4F3D6E" stroke-miterlimit="10" width="13" height="37"/>
	
		<rect x="763.855" y="222.688" transform="matrix(-1 -4.491530e-11 4.491530e-11 -1 1540.7104 489.375)" fill="#9C96AD" stroke="#4F3D6E" stroke-miterlimit="10" width="13" height="44"/>
	
		<rect x="722.855" y="180.688" transform="matrix(-1 -4.491530e-11 4.491530e-11 -1 1458.7104 439.375)" fill="#9C96AD" stroke="#4F3D6E" stroke-miterlimit="10" width="13" height="78"/>
	
		<rect x="701.855" y="185.688" transform="matrix(-1 -4.491530e-11 4.491530e-11 -1 1416.7104 394.375)" fill="#6C5F82" stroke="#4F3D6E" stroke-miterlimit="10" width="13" height="23"/>
	
		<rect x="680.855" y="129.688" transform="matrix(-1 -4.484514e-11 4.484514e-11 -1 1374.7104 338.375)" fill="#6C5F82" stroke="#4F3D6E" stroke-miterlimit="10" width="13" height="79"/>
	
		<rect x="660.855" y="116.688" transform="matrix(-1 -4.491530e-11 4.491530e-11 -1 1334.7104 253.375)" fill="#6C5F82" stroke="#4F3D6E" stroke-miterlimit="10" width="13" height="20"/>
	
		<rect x="639.855" y="126.688" transform="matrix(-1 -4.484514e-11 4.484514e-11 -1 1292.7104 372.375)" fill="#9C96AD" stroke="#4F3D6E" stroke-miterlimit="10" width="13" height="119"/>
	
		<rect x="597.855" y="226.688" transform="matrix(-1 -4.491530e-11 4.491530e-11 -1 1208.7104 513.375)" fill="#6C5F82" stroke="#4F3D6E" stroke-miterlimit="10" width="13" height="60"/>
	
		<rect x="556.855" y="204.688" transform="matrix(-1 -4.491530e-11 4.491530e-11 -1 1126.7104 474.375)" fill="#9C96AD" stroke="#4F3D6E" stroke-miterlimit="10" width="13" height="65"/>
	
		<rect x="432.855" y="280.688" transform="matrix(-1 -4.491530e-11 4.491530e-11 -1 878.7104 631.375)" fill="#6C5F82" stroke="#4F3D6E" stroke-miterlimit="10" width="13" height="70"/>
	
		<rect x="411.855" y="325.688" transform="matrix(-1 -4.484514e-11 4.484514e-11 -1 836.7104 705.375)" fill="#9C96AD" stroke="#4F3D6E" stroke-miterlimit="10" width="13" height="54"/>
	
		<rect x="390.855" y="427.688" transform="matrix(-1 3.022326e-11 -3.022326e-11 -1 794.7104 884.375)" fill="#9C96AD" stroke="#4F3D6E" stroke-miterlimit="10" width="13" height="29"/>
	
		<rect x="369.855" y="352.688" transform="matrix(-1 -4.491530e-11 4.491530e-11 -1 752.7104 801.375)" fill="#6C5F82" stroke="#4F3D6E" stroke-miterlimit="10" width="13" height="96"/>
	
		<rect x="349.855" y="312.688" transform="matrix(-1 -6.562363e-11 6.562363e-11 -1 712.7104 663.375)" fill="#6C5F82" stroke="#4F3D6E" stroke-miterlimit="10" width="13" height="38"/>
	
		<rect x="328.855" y="324.688" transform="matrix(-1 -6.779256e-11 6.779256e-11 -1 670.7104 726.375)" fill="#9C96AD" stroke="#4F3D6E" stroke-miterlimit="10" width="13" height="77"/>
	
		<rect x="307.855" y="395.688" transform="matrix(-1 -4.484514e-11 4.484514e-11 -1 628.7104 808.375)" fill="#6C5F82" stroke="#4F3D6E" stroke-miterlimit="10" width="13" height="17"/>
	
		<rect x="286.855" y="279.688" transform="matrix(-1 -4.491530e-11 4.491530e-11 -1 586.7104 614.375)" fill="#9C96AD" stroke="#4F3D6E" stroke-miterlimit="10" width="13" height="55"/>
	
		<rect x="245.855" y="310.688" transform="matrix(-1 -4.491530e-11 4.491530e-11 -1 504.7104 667.375)" fill="#9C96AD" stroke="#4F3D6E" stroke-miterlimit="10" width="13" height="46"/>
	
		<rect x="224.855" y="273.688" transform="matrix(-1 -4.491530e-11 4.491530e-11 -1 462.7104 593.375)" fill="#6C5F82" stroke="#4F3D6E" stroke-miterlimit="10" width="13" height="46"/>
	
		<rect x="204.855" y="156.688" transform="matrix(-1 7.350726e-07 -7.350726e-07 -1 422.7106 437.3748)" fill="#6C5F82" stroke="#4F3D6E" stroke-miterlimit="10" width="13" height="124"/>
	
		<rect x="183.855" y="141.688" transform="matrix(-1 7.642774e-07 -7.642774e-07 -1 380.7106 312.3749)" fill="#9C96AD" stroke="#4F3D6E" stroke-miterlimit="10" width="13" height="29"/>
	
		<rect x="141.855" y="187.688" transform="matrix(-1 -4.491530e-11 4.491530e-11 -1 296.7104 479.375)" fill="#9C96AD" stroke="#4F3D6E" stroke-miterlimit="10" width="13" height="104"/>
	
		<rect x="121.855" y="221.688" transform="matrix(-1 -4.491530e-11 4.491530e-11 -1 256.7104 569.375)" fill="#9C96AD" stroke="#4F3D6E" stroke-miterlimit="10" width="13" height="126"/>
	
		<rect x="100.855" y="236.688" transform="matrix(-1 -1.469193e-11 1.469193e-11 -1 214.7104 491.375)" fill="#6C5F82" stroke="#4F3D6E" stroke-miterlimit="10" width="13" height="18"/>
	
		<rect x="80.855" y="189.688" transform="matrix(-1 6.709153e-07 -6.709153e-07 -1 174.7106 428.3749)" fill="#6C5F82" stroke="#4F3D6E" stroke-miterlimit="10" width="13" height="49"/>
	
		<rect x="266.855" y="271.688" transform="matrix(-1 -4.477542e-11 4.477542e-11 -1 546.7104 556.375)" fill="#6C5F82" stroke="#4F3D6E" stroke-miterlimit="10" width="13" height="13"/>
	
		<rect x="535.855" y="219.688" transform="matrix(-1 -4.484514e-11 4.484514e-11 -1 1084.7104 484.375)" fill="#6C5F82" stroke="#4F3D6E" stroke-miterlimit="10" width="13" height="45"/>
	
		<rect x="514.855" y="294.688" transform="matrix(-1 -4.320515e-07 4.320515e-07 -1 1042.7103 607.3752)" fill="#6C5F82" stroke="#4F3D6E" stroke-miterlimit="10" width="13" height="18"/>
	
		<rect x="494.855" y="183.688" transform="matrix(-1 -5.037227e-11 5.037227e-11 -1 1002.7104 496.375)" fill="#9C96AD" stroke="#4F3D6E" stroke-miterlimit="10" width="13" height="129"/>
	
		<rect x="473.855" y="257.688" transform="matrix(-1 -4.491530e-11 4.491530e-11 -1 960.7104 528.375)" fill="#9C96AD" stroke="#4F3D6E" stroke-miterlimit="10" width="13" height="13"/>
	
		<rect x="577.855" y="237.688" transform="matrix(-1 -4.491530e-11 4.491530e-11 -1 1168.7104 490.375)" fill="#9C96AD" stroke="#4F3D6E" stroke-miterlimit="10" width="13" height="15"/>
	
		<rect x="742.855" y="262.688" transform="matrix(-1 -4.491530e-11 4.491530e-11 -1 1498.7104 532.375)" fill="#6C5F82" stroke="#4F3D6E" stroke-miterlimit="10" width="13" height="7"/>
	
		<rect x="1074.855" y="361.688" transform="matrix(-1 -4.498503e-11 4.498503e-11 -1 2162.7104 749.375)" fill="#6C5F82" stroke="#4F3D6E" stroke-miterlimit="10" width="13" height="26"/>
</g>
</svg>
