<?xml version="1.0" encoding="utf-8"?>
<!-- Generator: Adobe Illustrator 22.1.0, SVG Export Plug-In . SVG Version: 6.00 Build 0)  -->
<svg version="1.1" id="Layer_1" xmlns="http://www.w3.org/2000/svg" xmlns:xlink="http://www.w3.org/1999/xlink" x="0px" y="0px"
	 viewBox="0 0 800 550.6" style="enable-background:new 0 0 800 550.6;" xml:space="preserve">
<style type="text/css">
	.st0{fill:#514361;}
	.st1{font-family:'Roboto-Italic';}
	.st2{font-size:18px;}
	.st3{fill:#B2B2B2;}
	.st4{fill:none;stroke:#B2B2B2;stroke-miterlimit:10;}
	.st5{fill:none;stroke:#B2B2B2;stroke-width:4;stroke-miterlimit:10;}
	
		.st6{opacity:0.8;fill:none;stroke:#A8A8A8;stroke-width:1.5;stroke-linecap:round;stroke-miterlimit:10;stroke-dasharray:0,3;enable-background:new    ;}
	.st7{font-family:'RobotoMono-Regular';}
	.st8{font-size:28px;}
</style>
<text transform="matrix(1 0 0 1 662.8678 76.4985)" class="st0 st1 st2">can be weighted</text>
<text transform="matrix(1 0 0 1 662.8678 98.0985)" class="st0 st1 st2">and unweighted</text>
<text transform="matrix(1 0 0 1 504.2892 536.2999)" class="st0 st1 st2">can be equal or weighted</text>
<g>
	<ellipse class="st3" cx="48.2" cy="367.9" rx="38.6" ry="40.5"/>
	<ellipse class="st3" cx="188.2" cy="367.9" rx="17.3" ry="18.1"/>
	<ellipse class="st3" cx="328.2" cy="367.9" rx="17.3" ry="18.1"/>
	<ellipse class="st3" cx="468.2" cy="367.9" rx="17.3" ry="18.1"/>
	<ellipse class="st3" cx="748.3" cy="367.9" rx="17.3" ry="18.1"/>
</g>
<path class="st4" d="M46.3,368.3c0-194.1,157.4-351.5,351.5-351.5s351.5,157.4,351.5,351.5"/>
<path class="st5" d="M187.2,368.3c0-155.2,125.8-281,281-281s281,125.8,281,281"/>
<path class="st4" d="M46.3,368.3c0-116.5,94.5-211,211-211s211,94.5,211,211"/>
<path class="st4" d="M46.3,368.3c0-77.9,63.1-141,141-141s141,63.1,141,141"/>
<path class="st6" d="M328.2,458.4v19.8"/>
<text transform="matrix(1 0 0 1 257.2457 511.7483)" class="st0 st7 st8">unweighted</text>
<text transform="matrix(1 0 0 1 257.2457 544.8542)" class="st0 st7 st8">node</text>
<text transform="matrix(1 0 0 1 493.0875 511.7484)" class="st0 st7 st8">node distance</text>
<path class="st6" d="M48.2,458.4v19.8"/>
<text transform="matrix(1 0 0 1 20.3518 511.7485)" class="st0 st7 st8">weighted</text>
<text transform="matrix(1 0 0 1 20.3518 544.8545)" class="st0 st7 st8">node</text>
<path class="st6" d="M659.7,133.9l67.9-27.7"/>
<text transform="matrix(1 0 0 1 701.8418 47.8375)" class="st0 st7 st8">arcs</text>
<path class="st6" d="M726.5,106.2L667,161.6"/>
<text transform="matrix(1 0 0 1 41.5674 441.0889)" class="st0 st7 st8">A</text>
<text transform="matrix(1 0 0 1 179.5605 441.0889)" class="st0 st7 st8">B</text>
<text transform="matrix(1 0 0 1 321.5605 441.0889)" class="st0 st7 st8">C</text>
<text transform="matrix(1 0 0 1 459.5605 441.0889)" class="st0 st7 st8">D</text>
<text transform="matrix(1 0 0 1 741.5605 441.0889)" class="st0 st7 st8">E</text>
<path class="st6" d="M467.5,459.1V478H751v-18.9"/>
</svg>
