<svg enable-background="new 0 0 800 1087" viewBox="0 0 800 1087" xmlns="http://www.w3.org/2000/svg"><text transform="translate(662.8678 76.4985)"><tspan fill="#514361" font-family="'Roboto-Italic'" font-size="18" x="0" y="0">can be weighted</tspan><tspan fill="#514361" font-family="'Roboto-Italic'" font-size="18" x="0" y="21.6">and unweighted</tspan></text><text fill="#514361" font-family="'Roboto-Italic'" font-size="18" transform="translate(371.9755 556.5088)">can be equal or weighted</text><g fill="#b2b2b2"><ellipse cx="48.2" cy="367.9" rx="38.6" ry="40.5"/><ellipse cx="380" cy="936.9" rx="38.6" ry="40.5"/><ellipse cx="188.2" cy="367.9" rx="17.3" ry="18.1"/><ellipse cx="328.2" cy="367.9" rx="17.3" ry="18.1"/><ellipse cx="259" cy="826.6" rx="17.3" ry="18.1"/><ellipse cx="442.3" cy="800" rx="17.3" ry="18.1"/><ellipse cx="589.3" cy="1024" rx="17.3" ry="18.1"/><ellipse cx="240" cy="989.2" rx="17.3" ry="18.1"/><ellipse cx="468.2" cy="367.9" rx="17.3" ry="18.1"/><ellipse cx="748.3" cy="367.9" rx="17.3" ry="18.1"/></g><path d="m46.3 368.3c0-194.1 157.4-351.5 351.5-351.5s351.5 157.4 351.5 351.5" fill="none" stroke="#b2b2b2" stroke-miterlimit="10"/><path d="m187.2 368.3c0-155.2 125.8-281 281-281s281 125.8 281 281" fill="none" stroke="#b2b2b2" stroke-miterlimit="10" stroke-width="4"/><path d="m46.3 368.3c0-116.5 94.5-211 211-211s211 94.5 211 211" fill="none" stroke="#b2b2b2" stroke-miterlimit="10"/><path d="m46.3 368.3c0-77.9 63.1-141 141-141s141 63.1 141 141" fill="none" stroke="#b2b2b2" stroke-miterlimit="10"/><path d="m328.2 488.4v116.8" style="opacity:.8;fill:none;stroke:#a8a8a8;stroke-width:1.5;stroke-linecap:round;stroke-miterlimit:10;stroke-dasharray:0 3"/><text transform="translate(257.2457 646.4813)"><tspan fill="#514361" font-family="'RobotoMono-Regular'" font-size="28" x="0" y="0">unweighted</tspan><tspan fill="#514361" font-family="'RobotoMono-Regular'" font-size="28" x="0" y="33.6">node</tspan></text><text fill="#b2b2b2" font-family="'RobotoMono-Regular'" font-size="21" transform="translate(181.2344 738.6997)">network diagram of the same data</text><text fill="#514361" font-family="'RobotoMono-Regular'" font-size="28" transform="translate(371.9755 530.4916)">node distance</text><path d="m48.2 488.4v116.8" style="opacity:.8;fill:none;stroke:#a8a8a8;stroke-width:1.5;stroke-linecap:round;stroke-miterlimit:10;stroke-dasharray:0 3"/><text transform="translate(20.3518 646.4811)"><tspan fill="#514361" font-family="'RobotoMono-Regular'" font-size="28" x="0" y="0">weighted</tspan><tspan fill="#514361" font-family="'RobotoMono-Regular'" font-size="28" x="0" y="33.6">node</tspan></text><path d="m659.7 133.9 67.9-27.7" style="opacity:.8;fill:none;stroke:#a8a8a8;stroke-width:1.5;stroke-linecap:round;stroke-miterlimit:10;stroke-dasharray:0 3"/><text fill="#514361" font-family="'RobotoMono-Regular'" font-size="28" transform="translate(701.8418 47.8375)">arcs</text><path d="m726.5 106.2-59.5 55.4" style="opacity:.8;fill:none;stroke:#a8a8a8;stroke-width:1.5;stroke-linecap:round;stroke-miterlimit:10;stroke-dasharray:0 3"/><text fill="#514361" font-family="'RobotoMono-Regular'" font-size="28" transform="translate(41.5674 441.0889)">A</text><text fill="#514361" font-family="'RobotoMono-Regular'" font-size="28" transform="translate(179.5605 441.0889)">B</text><text fill="#514361" font-family="'RobotoMono-Regular'" font-size="28" transform="translate(231.2452 1041.056)">B</text><text fill="#514361" font-family="'RobotoMono-Regular'" font-size="28" transform="translate(321.5605 441.0889)">C</text><text fill="#514361" font-family="'RobotoMono-Regular'" font-size="28" transform="translate(247.5605 880.0889)">C</text><text fill="#514361" font-family="'RobotoMono-Regular'" font-size="28" transform="translate(459.5605 441.0889)">D</text><text fill="#514361" font-family="'RobotoMono-Regular'" font-size="28" transform="translate(442.3069 850.0889)">D</text><text fill="#514361" font-family="'RobotoMono-Regular'" font-size="28" transform="translate(741.5605 441.0889)">E</text><text fill="#514361" font-family="'RobotoMono-Regular'" font-size="28" transform="translate(582.7506 1076.7584)">E</text><path d="m472 502.7 13.5-24.7h263.7" style="opacity:.8;fill:none;stroke:#a8a8a8;stroke-width:1.5;stroke-linecap:round;stroke-miterlimit:10;stroke-dasharray:0 3"/><path d="m345.5 478h105.5l12.4 24.7" style="opacity:.8;fill:none;stroke:#a8a8a8;stroke-width:1.5;stroke-linecap:round;stroke-miterlimit:10;stroke-dasharray:0 3"/><path d="m240 989.2 140-50.3" fill="none" stroke="#b2b2b2" stroke-miterlimit="10"/><path d="m380 936.9-121-106.9" fill="none" stroke="#b2b2b2" stroke-miterlimit="10"/><path d="m380 936.9 64.7-136.9" fill="none" stroke="#b2b2b2" stroke-miterlimit="10"/><path d="m380 936.9 209.3 87.1" fill="none" stroke="#b2b2b2" stroke-miterlimit="10"/><path d="m240 989.2 349.3 34.8" fill="none" stroke="#b2b2b2" stroke-miterlimit="10" stroke-width="4"/><text fill="#514361" font-family="'RobotoMono-Regular'" font-size="28" transform="translate(371.9755 944.5918)">A</text></svg>