<?xml version="1.0" encoding="utf-8"?>
<!-- Generator: Adobe Illustrator 19.2.0, SVG Export Plug-In . SVG Version: 6.00 Build 0)  -->
<svg version="1.1" id="Layer_1" xmlns="http://www.w3.org/2000/svg" xmlns:xlink="http://www.w3.org/1999/xlink" x="0px" y="0px"
	 width="1268px" height="558px" viewBox="0 0 1268 558" enable-background="new 0 0 1268 558" xml:space="preserve">
<g id="Layer_2">
</g>
<path fill="none" stroke="#A9C5D6" stroke-width="2" stroke-miterlimit="10" d="M288.892,516.121
	c0-37.309,30.245-67.554,67.554-67.554S424,478.812,424,516.121"/>
<path fill="none" stroke="#CBC5D3" stroke-width="2" stroke-miterlimit="10" d="M704.25,516.121c0-37.003,29.997-67,67-67
	s67,29.997,67,67"/>
<path fill="none" stroke="#A3B1D6" stroke-width="2" stroke-miterlimit="10" d="M19.625,514.563
	c0-35.036,28.402-63.438,63.438-63.438s63.438,28.402,63.438,63.438"/>
<path fill="none" stroke="#6C5F82" stroke-width="2" stroke-miterlimit="10" d="M13.033,516.147
	C13.033,250.417,228.449,35,494.18,35s481.147,215.417,481.147,481.147"/>
<g>
	<text transform="matrix(1 0 0 1 9.8792 556.0005)" fill="#B3B3B3" font-family="'RobotoCondensed-Regular'" font-size="26px">A</text>
</g>
<g>
	<text transform="matrix(1 0 0 1 141.2886 556.0005)" fill="#B3B3B3" font-family="'RobotoCondensed-Regular'" font-size="26px">B</text>
</g>
<g>
	<text transform="matrix(1 0 0 1 281.019 556.0005)" fill="#B3B3B3" font-family="'RobotoCondensed-Regular'" font-size="26px">C</text>
</g>
<g>
	<text transform="matrix(1 0 0 1 419.9778 556.0005)" fill="#B3B3B3" font-family="'RobotoCondensed-Regular'" font-size="26px">D</text>
</g>
<g>
	<text transform="matrix(1 0 0 1 557.9521 556.0005)" fill="#B3B3B3" font-family="'RobotoCondensed-Regular'" font-size="26px">E</text>
</g>
<g>
	<text transform="matrix(1 0 0 1 696.1714 556.0005)" fill="#B3B3B3" font-family="'RobotoCondensed-Regular'" font-size="26px">F</text>
</g>
<g>
	<text transform="matrix(1 0 0 1 832.7461 556.0005)" fill="#B3B3B3" font-family="'RobotoCondensed-Regular'" font-size="26px">G</text>
</g>
<g>
	<text transform="matrix(1 0 0 1 967.375 556.0005)" fill="#B3B3B3" font-family="'RobotoCondensed-Regular'" font-size="26px">H</text>
</g>
<g>
	<text transform="matrix(1 0 0 1 1112.196 556.0005)" fill="#B3B3B3" font-family="'RobotoCondensed-Regular'" font-size="26px">I</text>
</g>
<g>
	<text transform="matrix(1 0 0 1 1246.1719 556.0005)" fill="#B3B3B3" font-family="'RobotoCondensed-Regular'" font-size="26px">J</text>
</g>
<path fill="none" stroke="#F3D0AA" stroke-width="2" stroke-miterlimit="10" d="M568.757,516.121
	c0-74.625,60.496-135.121,135.121-135.121S839,441.496,839,516.121"/>
<path fill="none" stroke="#F3D0AA" stroke-width="2" stroke-miterlimit="10" d="M286.739,516.121
	c0-75.632,61.311-136.943,136.943-136.943s136.943,61.312,136.943,136.943"/>
<path fill="none" stroke="#F3D0AA" stroke-width="2" stroke-miterlimit="10" d="M567.333,516.121
	c0-112.022,90.812-202.833,202.833-202.833S973,404.1,973,516.121"/>
<path fill="none" stroke="#F3D0AA" stroke-width="2" stroke-miterlimit="10" d="M565.25,516.121
	c0-189.878,153.927-343.805,343.805-343.805s343.805,153.927,343.805,343.805"/>
<path fill="none" stroke="#9C96AD" stroke-width="2" stroke-miterlimit="10" d="M430.25,515.66
	c0-227.472,184.403-411.875,411.875-411.875S1254,288.188,1254,515.66"/>
<path fill="none" stroke="#CBC5D3" stroke-width="2" stroke-miterlimit="10" d="M703,516.121
	c0-113.833,92.28-206.113,206.113-206.113s206.113,92.28,206.113,206.113"/>
<path fill="none" stroke="#CBC5D3" stroke-width="2" stroke-miterlimit="10" d="M700.86,516.121
	c0-152.055,123.265-275.32,275.32-275.32s275.32,123.265,275.32,275.32"/>
<path fill="none" stroke="#CBC5D3" stroke-width="2" stroke-miterlimit="10" d="M841.86,516.121
	C841.86,403.388,933.248,312,1045.981,312s204.121,91.388,204.121,204.121"/>
<path fill="none" stroke="#A3B1D6" stroke-width="2" stroke-miterlimit="10" d="M148.86,516.121
	c0-114.12,92.512-206.632,206.632-206.632s206.632,92.513,206.632,206.632"/>
<path fill="none" stroke="#A3B1D6" stroke-width="2" stroke-miterlimit="10" d="M150.75,516.121
	c0-75.832,61.474-137.305,137.305-137.305S425.36,440.29,425.36,516.121"/>
<path fill="none" stroke="#A3B1D6" stroke-width="2" stroke-miterlimit="10" d="M147,516.121
	c0-191.505,155.245-346.75,346.75-346.75S840.5,324.617,840.5,516.121"/>
<path fill="none" stroke="#6C5F82" stroke-width="2" stroke-miterlimit="10" d="M15,516.391C15,327.294,168.294,174,357.391,174
	s342.391,153.294,342.391,342.391"/>
<path fill="none" stroke="#6C5F82" stroke-width="2" stroke-miterlimit="10" d="M16.5,516.391
	c0-151.167,122.545-273.712,273.712-273.712s273.712,122.545,273.712,273.712"/>
<path fill="none" stroke="#6C5F82" stroke-width="2" stroke-miterlimit="10" d="M18.375,516.391
	c0-113.115,91.698-204.812,204.812-204.812S428,403.276,428,516.391"/>
<path fill="none" stroke="#B29780" stroke-width="2" stroke-miterlimit="10" d="M976.825,516.121
	c0-37.466,30.372-67.837,67.837-67.837s67.837,30.372,67.837,67.837"/>
<path fill="none" stroke="#B29780" stroke-width="2" stroke-miterlimit="10" d="M843.5,516.121c0-74.558,60.442-135,135-135
	s135,60.442,135,135"/>
<line fill="none" stroke="#6C5F82" stroke-width="2" stroke-miterlimit="10" x1="18" y1="516.121" x2="1253.358" y2="516.121"/>
<circle fill="#6C5F82" stroke="#FFFFFF" stroke-miterlimit="10" cx="17.322" cy="515.66" r="12.5"/>
<circle fill="#A3B1D6" stroke="#FFFFFF" stroke-miterlimit="10" cx="148.86" cy="515.66" r="10"/>
<circle fill="#A9C5D6" stroke="#FFFFFF" stroke-miterlimit="10" cx="288.86" cy="515.66" r="5"/>
<circle fill="#9C96AD" stroke="#FFFFFF" stroke-miterlimit="10" cx="426.86" cy="515.66" r="10"/>
<circle fill="#F3D0AA" stroke="#FFFFFF" stroke-miterlimit="10" cx="563.86" cy="515.66" r="15"/>
<circle fill="#CBC5D3" stroke="#FFFFFF" stroke-miterlimit="10" cx="701.86" cy="515.66" r="10"/>
<circle fill="#EBE0D4" stroke="#FFFFFF" stroke-miterlimit="10" cx="841.86" cy="515.66" r="12.5"/>
<circle fill="#B29780" stroke="#FFFFFF" stroke-miterlimit="10" cx="975.86" cy="515.66" r="7.5"/>
<circle fill="#A995CC" stroke="#FFFFFF" stroke-miterlimit="10" cx="1114.86" cy="515.66" r="7.5"/>
<circle fill="#C9AFE0" stroke="#FFFFFF" stroke-miterlimit="10" cx="1252.86" cy="515.66" r="10"/>
</svg>
