<svg enable-background="new 0 0 256 134" height="134" viewBox="0 0 256 134" width="256" xmlns="http://www.w3.org/2000/svg"><path d="m247.8 113.1c-4.6-62-56.6-111.1-119.8-111.1s-115.2 49.1-119.8 111.1c-3.6 1.4-6.2 5-6.2 9.1 0 5.4 4.4 9.8 9.8 9.8s9.8-4.4 9.8-9.8c0-3.4-1.8-6.4-4.5-8.2 3.4-9.8 12.8-16.9 23.7-16.9s20.3 7.1 23.7 16.9c-2.7 1.7-4.5 4.8-4.5 8.2 0 5.4 4.4 9.8 9.8 9.8s9.8-4.4 9.8-9.8c0-4.5-3.1-8.3-7.2-9.4-4.1-13.6-16.7-23.6-31.6-23.6-6.2 0-12 1.7-16.9 4.7 9.6-15.4 26.6-25.6 46-25.6 26.9 0 49.2 19.6 53.5 45.3-3.1 1.6-5.1 4.9-5.1 8.6 0 5.4 4.4 9.8 9.8 9.8s9.8-4.4 9.8-9.8c0-3.7-2-6.9-5-8.5 3.1-18.8 15.8-34.3 32.9-41.3 8.8 11.7 14.5 25.8 16.1 41.1-3.2 1.6-5.5 4.9-5.5 8.8 0 5.4 4.4 9.8 9.8 9.8s9.8-4.4 9.8-9.8c0-4.1-2.6-7.6-6.2-9.1-1.6-16-7.3-30.8-16.2-43.4 4-1 8.3-1.5 12.6-1.5 26.9 0 49.2 19.7 53.4 45.3-3 1.7-5.1 4.9-5.1 8.6 0 5.4 4.4 9.8 9.8 9.8s9.8-4.4 9.8-9.8c-.1-4.1-2.7-7.6-6.3-9.1zm-119.7-12.4c-8.8-23.5-31.6-40.3-58.1-40.3-14.7 0-28.3 5.2-38.9 13.8 15.1-21.3 39.9-35.3 68-35.3 24.3 0 46.2 10.5 61.4 27.1-14.9 6.8-26.7 19.3-32.4 34.7zm58.1-40.3c-6.2 0-12.2.9-17.8 2.6-16.8-19.6-41.7-32-69.4-32-22.7 0-43.5 8.3-59.5 22.1 20.6-26.3 52.6-43.2 88.5-43.2 47.5 0 88.3 29.7 104.6 71.5-11.3-12.9-28-21-46.4-21z"/></svg>