<?xml version="1.0" encoding="utf-8"?>
<!-- Generator: Adobe Illustrator 22.1.0, SVG Export Plug-In . SVG Version: 6.00 Build 0)  -->
<svg version="1.1" id="Layer_1" xmlns="http://www.w3.org/2000/svg" xmlns:xlink="http://www.w3.org/1999/xlink" x="0px" y="0px"
	 viewBox="0 0 1148 1214" style="enable-background:new 0 0 1148 1214;" xml:space="preserve">
<style type="text/css">
	.st0{fill:#514361;}
	.st1{font-family:'RobotoMono-Regular';}
	.st2{font-size:32px;}
	.st3{fill:none;stroke:#909090;stroke-width:4;stroke-miterlimit:10;}
	.st4{fill:#BABABA;}
	.st5{fill:#D5D5D5;}
	.st6{enable-background:new    ;}
	.st7{fill:#565656;}
	.st8{font-size:28.0764px;}
</style>
<g>
	<text transform="matrix(0.9552 0 0 1 489.46 908.9927)" class="st0 st1 st2">root node</text>
</g>
<g>
	<text transform="matrix(0.9552 0 0 1 221.4322 1024.4587)" class="st0 st1 st2">parent node</text>
</g>
<g>
	<text transform="matrix(0.9552 0 0 1 751.9468 1024.4587)" class="st0 st1 st2">parent node</text>
</g>
<path class="st3" d="M570.9,956.6v-28.8"/>
<path class="st3" d="M322.3,1093.5v-54.9"/>
<path class="st3" d="M851.8,1093.5v-54.9"/>
<path class="st4" d="M578.2,194.4v138.9c55.6,2.2,99.9,48,99.9,104.1c0,56.1-44.4,101.8-99.9,104.1v138.9
	C710.3,678,817,569.9,817,437.3S710.3,196.6,578.2,194.4L578.2,194.4z"/>
<path class="st5" d="M469.8,437.3c0-55.8,43.9-101.4,99.1-104V194.4c-131.7,2.7-238,110.6-238,243s106.3,240.3,238,243V541.4
	C513.8,538.7,469.8,493.2,469.8,437.3L469.8,437.3z"/>
<g>
	<path class="st4" d="M752.4,258.9c14.3,14.3,26.6,30,36.9,46.7l134.7-76.9C853.5,110.8,725.2,31.5,578.2,30v155.1
		C644,186.2,705.7,212.3,752.4,258.9L752.4,258.9z"/>
	<path class="st4" d="M752.4,615.7c-46.7,46.7-108.4,72.8-174.2,73.8v155.1c147-1.5,275.3-80.8,345.7-198.7L789.3,569
		C779,585.8,766.6,601.5,752.4,615.7L752.4,615.7z"/>
	<path class="st4" d="M826.3,437.3c0,44-11.2,86.4-32.3,123.7l134.6,76.9c33.6-59.2,52.7-127.7,52.7-200.6
		c0-72.9-19.2-141.4-52.7-200.6L794,313.6C815.1,351,826.3,393.3,826.3,437.3L826.3,437.3z"/>
</g>
<path class="st5" d="M395.6,258.9c46.5-46.5,107.9-72.6,173.4-73.8V30c-221,2.7-399.7,181.4-402.3,402.4h155.1
	C323,366.9,349.1,305.4,395.6,258.9L395.6,258.9z"/>
<path class="st5" d="M395.6,615.7c-46.6-46.6-72.7-108.3-73.8-174.1H166.7C169,663,347.7,842,569,844.7V689.6
	C503.5,688.3,442.1,662.2,395.6,615.7L395.6,615.7z"/>
<g>
	<text transform="matrix(1 0 0 1 542.5034 428.0771)" class="st6"><tspan x="0" y="0" class="st7 st1 st8">root</tspan><tspan x="0" y="33.7" class="st7 st1 st8">node</tspan></text>
</g>
<g>
	<text transform="matrix(1 0 0 1 696.0034 428.0771)"><tspan x="0" y="0" class="st7 st1 st8">parent</tspan><tspan x="16.8" y="33.7" class="st7 st1 st8">node</tspan></text>
</g>
<g>
	<text transform="matrix(1 0 0 1 350.0292 428.0771)"><tspan x="0" y="0" class="st7 st1 st8">parent</tspan><tspan x="16.8" y="33.7" class="st7 st1 st8">node</tspan></text>
</g>
<g>
	<text transform="matrix(1 0 0 1 872.9086 428.0771)" class="st6"><tspan x="0" y="0" class="st7 st1 st8">child</tspan><tspan x="8.4" y="33.7" class="st7 st1 st8">node</tspan></text>
</g>
<g>
	<text transform="matrix(1 0 0 1 688.1479 145.5015)" class="st6"><tspan x="0" y="0" class="st7 st1 st8">child</tspan><tspan x="8.4" y="33.7" class="st7 st1 st8">node</tspan></text>
</g>
<g>
	<text transform="matrix(1 0 0 1 288.8369 194.3696)" class="st6"><tspan x="0" y="0" class="st7 st1 st8">child</tspan><tspan x="8.4" y="33.7" class="st7 st1 st8">node</tspan></text>
</g>
<g>
	<text transform="matrix(1 0 0 1 288.8369 643.1621)" class="st6"><tspan x="0" y="0" class="st7 st1 st8">child</tspan><tspan x="8.4" y="33.7" class="st7 st1 st8">node</tspan></text>
</g>
<g>
	<text transform="matrix(1 0 0 1 697.2045 706.832)" class="st6"><tspan x="0" y="0" class="st7 st1 st8">child</tspan><tspan x="8.4" y="33.7" class="st7 st1 st8">node</tspan></text>
</g>
<g>
	<text transform="matrix(0.9552 0 0 1 1004.9913 1153.739)" class="st6"><tspan x="0" y="0" class="st0 st1 st2">child</tspan><tspan x="9.6" y="38.4" class="st0 st1 st2">node</tspan></text>
</g>
<g>
	<text transform="matrix(0.9552 0 0 1 805.9727 1153.739)" class="st6"><tspan x="0" y="0" class="st0 st1 st2">child</tspan><tspan x="9.6" y="38.4" class="st0 st1 st2">node</tspan></text>
</g>
<g>
	<text transform="matrix(0.9552 0 0 1 594.3472 1153.739)" class="st6"><tspan x="0" y="0" class="st0 st1 st2">child</tspan><tspan x="9.6" y="38.4" class="st0 st1 st2">node</tspan></text>
</g>
<g>
	<text transform="matrix(0.9552 0 0 1 276.4586 1153.739)" class="st6"><tspan x="0" y="0" class="st0 st1 st2">child</tspan><tspan x="9.6" y="38.4" class="st0 st1 st2">node</tspan></text>
</g>
<g>
	<text transform="matrix(0.9552 0 0 1 88.2466 1153.739)" class="st6"><tspan x="0" y="0" class="st0 st1 st2">child</tspan><tspan x="9.6" y="38.4" class="st0 st1 st2">node</tspan></text>
</g>
<path class="st3" d="M322.3,983.6v-27.9h529.5v27.9"/>
<path class="st3" d="M134.1,1093.5v-27.9h189.1"/>
<path class="st3" d="M640.2,1093.5v-27.9h409.7v27.9"/>
</svg>
