<?xml version="1.0" encoding="utf-8"?>
<!-- Generator: Adobe Illustrator 19.2.0, SVG Export Plug-In . SVG Version: 6.00 Build 0)  -->
<svg version="1.1" id="Layer_1" xmlns="http://www.w3.org/2000/svg" xmlns:xlink="http://www.w3.org/1999/xlink" x="0px" y="0px"
	 width="1200px" height="1317px" viewBox="0 0 1200 1317" enable-background="new 0 0 1200 1317" xml:space="preserve">
<rect x="411" y="4" fill="#C8CDEB" width="327" height="61"/>
<rect x="186" y="127" fill="#939FD5" width="225" height="61"/>
<rect x="237" y="249" fill="#939FD5" width="174" height="123"/>
<rect x="774" y="127" fill="#7581BA" width="225" height="61"/>
<g>
	<text transform="matrix(1 0 0 1 464.1289 49.668)" fill="#37246D" font-family="'Roboto-Regular'" font-size="51.1111px">root node</text>
</g>
<g>
	<text transform="matrix(1 0 0 1 244.3516 172.3359)" fill="#FFFFFF" font-family="'Roboto-Regular'" font-size="51.1111px">node</text>
</g>
<g>
	<text transform="matrix(1 0 0 1 288.7285 305.2246)"><tspan x="0" y="0" fill="#FFFFFF" font-family="'Roboto-Regular'" font-size="51.1111px">leaf</tspan><tspan x="-14.113" y="51.111" fill="#FFFFFF" font-family="'Roboto-Regular'" font-size="51.1111px">node</tspan></text>
</g>
<rect x="2" y="249" fill="#939FD5" width="174" height="123"/>
<g>
	<text transform="matrix(1 0 0 1 53.6152 305.2246)"><tspan x="0" y="0" fill="#FFFFFF" font-family="'Roboto-Regular'" font-size="51.1111px">leaf</tspan><tspan x="-14.113" y="51.111" fill="#FFFFFF" font-family="'Roboto-Regular'" font-size="51.1111px">node</tspan></text>
</g>
<rect x="794" y="249" fill="#7581BA" width="174" height="123"/>
<g>
	<text transform="matrix(1 0 0 1 835.6152 305.2246)"><tspan x="0" y="0" fill="#FFFFFF" font-family="'Roboto-Regular'" font-size="51.1111px">leaf</tspan><tspan x="-14.113" y="51.111" fill="#FFFFFF" font-family="'Roboto-Regular'" font-size="51.1111px">node</tspan></text>
</g>
<rect x="1024" y="249" fill="#7581BA" width="174" height="123"/>
<g>
	<text transform="matrix(1 0 0 1 1065.6152 305.2246)"><tspan x="0" y="0" fill="#FFFFFF" font-family="'Roboto-Regular'" font-size="51.1111px">leaf</tspan><tspan x="-14.113" y="51.111" fill="#FFFFFF" font-family="'Roboto-Regular'" font-size="51.1111px">node</tspan></text>
</g>
<rect x="564" y="249" fill="#7581BA" width="174" height="123"/>
<g>
	<text transform="matrix(1 0 0 1 605.6152 305.2246)"><tspan x="0" y="0" fill="#FFFFFF" font-family="'Roboto-Regular'" font-size="51.1111px">leaf</tspan><tspan x="-14.113" y="51.111" fill="#FFFFFF" font-family="'Roboto-Regular'" font-size="51.1111px">node</tspan></text>
</g>
<g>
	<text transform="matrix(1 0 0 1 827.0195 172.3359)" fill="#FFFFFF" font-family="'Roboto-Regular'" font-size="51.1111px">node</text>
</g>
<line fill="none" stroke="#464A90" stroke-width="10" stroke-miterlimit="10" x1="574" y1="91" x2="574" y2="65"/>
<line fill="none" stroke="#464A90" stroke-width="10" stroke-miterlimit="10" x1="298" y1="249" x2="298" y2="188"/>
<line fill="none" stroke="#464A90" stroke-width="10" stroke-miterlimit="10" x1="886" y1="249" x2="886" y2="188"/>
<path fill="#7581BA" d="M579.111,594.059v153.376c61.348,2.449,110.333,52.949,110.333,114.897
	c0,61.949-48.985,112.448-110.333,114.898v153.375c145.813-2.501,263.667-121.875,263.667-268.273
	C842.778,715.934,724.925,596.561,579.111,594.059z"/>
<path fill="#939FD5" d="M459.444,862.333c0-61.649,48.512-111.965,109.444-114.864V594.07
	c-145.404,2.97-262.778,122.161-262.778,268.263s117.374,265.293,262.778,268.263V977.197
	C507.957,974.299,459.444,923.983,459.444,862.333z"/>
<path fill="#7581BA" d="M771.413,665.365c15.755,15.755,29.373,33.075,40.746,51.594l148.681-84.96
	c-77.77-130.181-219.455-217.764-381.729-219.414v171.249C651.769,585.021,719.903,613.854,771.413,665.365z"/>
<path fill="#7581BA" d="M771.413,1059.302c-51.51,51.511-119.644,80.344-192.302,81.53v171.25
	c162.273-1.65,303.959-89.233,381.728-219.414l-148.681-84.961C800.786,1026.227,787.168,1043.546,771.413,1059.302z"/>
<path fill="#7581BA" d="M853,862.333c0,48.626-12.381,95.347-35.642,136.572l148.623,84.928
	c37.07-65.386,58.241-140.969,58.241-221.5c0-80.53-21.171-156.114-58.241-221.499l-148.624,84.927
	C840.619,766.986,853,813.707,853,862.333z"/>
<path fill="#939FD5" d="M377.476,665.365c51.3-51.301,119.088-80.114,191.413-81.521V412.591
	c-244.033,2.954-441.292,200.251-444.188,444.298h171.254C297.333,784.522,326.149,716.691,377.476,665.365z"/>
<path fill="#939FD5" d="M377.476,1059.302c-51.484-51.483-80.315-119.573-81.529-192.19h-171.25
	c2.544,244.354,199.937,442.008,444.192,444.965v-171.255C496.564,1139.415,428.776,1110.603,377.476,1059.302z"/>
<g>
	<text transform="matrix(1 0 0 1 525.3203 847.002)"><tspan x="0" y="0" fill="#37246D" font-family="'Roboto-Regular'" font-size="51.1111px">root</tspan><tspan x="-10.482" y="61.333" fill="#37246D" font-family="'Roboto-Regular'" font-size="51.1111px">node</tspan></text>
</g>
<g>
	<text transform="matrix(1 0 0 1 325.7251 877.668)" fill="#FFFFFF" font-family="'Roboto-Regular'" font-size="51.1111px">node</text>
</g>
<g>
	<text transform="matrix(1 0 0 1 709.061 877.668)" fill="#FFFFFF" font-family="'Roboto-Regular'" font-size="51.1111px">node</text>
</g>
<g>
	<text transform="matrix(1 0 0 1 717.6338 545.4473)"><tspan x="0" y="0" fill="#FFFFFF" font-family="'Roboto-Regular'" font-size="51.1111px">lead</tspan><tspan x="-8.573" y="61.333" fill="#FFFFFF" font-family="'Roboto-Regular'" font-size="51.1111px">node</tspan></text>
</g>
<g>
	<text transform="matrix(1 0 0 1 712.5205 1158.7793)"><tspan x="0" y="0" fill="#FFFFFF" font-family="'Roboto-Regular'" font-size="51.1111px">lead</tspan><tspan x="-8.573" y="61.333" fill="#FFFFFF" font-family="'Roboto-Regular'" font-size="51.1111px">node</tspan></text>
</g>
<g>
	<text transform="matrix(1 0 0 1 262.7432 1097.4473)"><tspan x="0" y="0" fill="#FFFFFF" font-family="'Roboto-Regular'" font-size="51.1111px">lead</tspan><tspan x="-8.573" y="61.333" fill="#FFFFFF" font-family="'Roboto-Regular'" font-size="51.1111px">node</tspan></text>
</g>
<g>
	<text transform="matrix(1 0 0 1 272.9658 591.4473)"><tspan x="0" y="0" fill="#FFFFFF" font-family="'Roboto-Regular'" font-size="51.1111px">lead</tspan><tspan x="-8.573" y="61.333" fill="#FFFFFF" font-family="'Roboto-Regular'" font-size="51.1111px">node</tspan></text>
</g>
<g>
	<text transform="matrix(1 0 0 1 886.2979 852.1133)"><tspan x="0" y="0" fill="#FFFFFF" font-family="'Roboto-Regular'" font-size="51.1111px">lead</tspan><tspan x="-8.573" y="61.333" fill="#FFFFFF" font-family="'Roboto-Regular'" font-size="51.1111px">node</tspan></text>
</g>
<polyline fill="none" stroke="#464A90" stroke-width="10" stroke-miterlimit="10" points="298,127 298,96 886,96 886,127 "/>
<polyline fill="none" stroke="#464A90" stroke-width="10" stroke-miterlimit="10" points="89,249 89,218 299,218 "/>
<polyline fill="none" stroke="#464A90" stroke-width="10" stroke-miterlimit="10" points="651,249 651,218 1106,218 1106,249 "/>
</svg>
