<svg enable-background="new 0 0 1268 418" viewBox="0 0 1268 418" xmlns="http://www.w3.org/2000/svg"><path d="m180 78.7c-.1.1-.1.1 0 0l.1.2.1-.1z" fill="#c4b7bd"/><path d="m520 319.9c2.3-3.7 4.5-7.6 6.6-11.5l-35.6-18.9c-1.6 3.1-3.4 6.1-5.2 9.1z" fill="#c4bdcd"/><path d="m432.5 352.5 21.5 34.1c5.5-3.5 10.8-7.2 15.9-11.2l-24.8-31.8c-4 3.2-8.2 6.1-12.6 8.9z" fill="#c4bdcd"/><path d="m446.3 342.7 24.8 31.8c11.9-9.3 22.8-20 32.4-31.6l-31.3-25.5c-7.6 9.3-16.3 17.8-25.9 25.3z" fill="#c4bdcd"/><path d="m473.2 316.2 31.3 25.5c5.3-6.5 10.2-13.4 14.7-20.6l-34.2-21.2c-3.6 5.7-7.5 11.1-11.8 16.3z" fill="#c4bdcd"/><path d="m452.7 269.3-35.7-18.9c-9.4 17.4-24.8 31.2-43.4 38.6l14.3 37.8c27.3-10.7 50.4-30.8 64.8-57.5z" fill="#c4bdcd"/><path d="m342.7 294.8c-4.4 0-8.7-.3-12.9-1l-6.5 39.8c6.3 1 12.8 1.5 19.4 1.5 2.4 0 4.8-.1 7.2-.2l-2.7-40.2c-1.5.1-3 .1-4.5.1z" fill="#c4bdcd"/><path d="m348.7 294.6 2.7 40.2c12.2-.8 24-3.5 35.2-7.6l-14.3-37.7c-7.5 2.8-15.4 4.5-23.6 5.1z" fill="#c4bdcd"/><path d="m342.7 253.2c-2.1 0-4.2-.2-6.2-.5l-6.4 39.6c4.1.6 8.3 1 12.6 1 31.5 0 59-17.7 73-43.6l-35.5-18.8c-7.3 13.3-21.4 22.3-37.5 22.3z" fill="#c4bdcd"/><path d="m410.3 317.1 21.5 34.1c14.9-9.5 28.2-21.2 39.4-34.7l-31.3-25.5c-3.2 4-15 17.2-29.6 26.1z" fill="#c4bdcd"/><path d="m472.1 315.3c6.7-8.2 12.6-17.1 17.6-26.5l-35.7-18.8c-3.8 7-8.2 13.7-13.2 19.9z" fill="#c4bdcd"/><path d="m402.7 365.8c9.6-3.7 18.9-8.4 27.7-13.8l-21.4-34.1c-6.5 4-13.3 7.4-20.5 10.2z" fill="#c4bdcd"/><path d="m269.9 311.6c15.1 10.9 32.8 18.5 51.9 21.7l6.5-39.8c-12.8-2.2-24.6-7.3-34.7-14.5z" fill="#aca3bd"/><path d="m217.9 210.4c0 13.9 2.3 27.3 6.5 39.8l38.1-13.1c-2.8-8.4-4.3-17.4-4.3-26.7 0-1.4 0-2.7.1-4.1l-40.3-2.2c0 2.1-.1 4.2-.1 6.3z" fill="#aca3bd"/><path d="m268.7 310.8 23.7-32.6c-13.3-9.9-23.7-23.7-29.3-39.7l-38.1 13.1c8.3 23.8 23.7 44.4 43.7 59.2z" fill="#aca3bd"/><path d="m267.9 360.9-18.1 36.1c11 5.5 22.3 9.9 34 13.3l11.2-38.7c-9.4-2.8-18.4-6.3-27.1-10.7z" fill="#aca3bd"/><path d="m285.2 410.8c7.6 2.2 15.3 3.9 23.2 5.2l6.5-39.8c-6.2-1-12.4-2.4-18.4-4.2z" fill="#aca3bd"/><path d="m215.1 319.9c-4-4.7-7.8-9.6-11.2-14.6l-33.4 22.6c5.6 8.1 11.7 15.8 18.3 23.1l29.7-27.3c-1.2-1.3-2.3-2.6-3.4-3.8z" fill="#aca3bd"/><path d="m219.5 324.7-29.7 27.3c9 9.7 18.9 18.5 29.6 26.4l23.7-32.6c-8.5-6.2-16.4-13.3-23.6-21.1z" fill="#aca3bd"/><path d="m299.9 210.4c0-.6 0-1.2 0-1.8l-40.1-2.2c-.1 1.3-.1 2.7-.1 4 0 40.9 29.8 75 68.8 81.7l6.4-39.6c-19.9-3.7-35-21.1-35-42.1z" fill="#aca3bd"/><path d="m216.5 204-40.2-2.2c-.1 2.8-.2 5.7-.2 8.5 0 10.8 1 21.4 3 31.7l39.6-7.8c-1.5-7.7-2.3-15.7-2.3-23.8 0-2.1 0-4.3.1-6.4z" fill="#aca3bd"/><path d="m179.4 243.6c1.4 6.9 3.2 13.6 5.4 20.2l38.2-13.1c-1.6-4.9-3-9.9-4-15z" fill="#aca3bd"/><path d="m185.2 265.2c4.7 13.6 11 26.3 18.9 38.1l33.5-22.7c-5.9-8.8-10.7-18.3-14.2-28.5z" fill="#aca3bd"/><path d="m238.5 281.8-33.6 22.7c10.6 15.5 23.7 29.1 38.9 40.3l23.9-32.8c-11.3-8.3-21.2-18.5-29.2-30.2z" fill="#aca3bd"/><path d="m245.1 345.7c6.9 5 14.3 9.5 22 13.4l18.2-36.1c-5.7-2.9-11.2-6.3-16.3-10z" fill="#aca3bd"/><path d="m268.5 359.7c14.4 7.1 30 12.2 46.6 15l6.5-39.8c-12.3-2.1-24.1-5.9-34.9-11.3z" fill="#aca3bd"/><path d="m137.8 172.1c-1.6 8.5-2.6 17.2-3.1 25.9l40.3 2.2c.4-7 1.3-13.9 2.5-20.7z" fill="#d6b9b6"/><path d="m180.3 166.7-38.9-10.7c-1.3 4.9-2.4 9.8-3.4 14.7l39.6 7.4c.8-3.9 1.7-7.7 2.7-11.4z" fill="#d6b9b6"/><path d="m266.1 174.9-36.4-17.4c-6.5 13.9-10.6 29.1-11.6 45.2l40.3 2.2c.7-10.7 3.4-20.8 7.7-30z" fill="#d6b9b6"/><path d="m271.6 164.8-33.8-21.9c-2.7 4.2-5.2 8.6-7.4 13.2l36.4 17.4c1.4-3 3-5.9 4.8-8.7z" fill="#d6b9b6"/><path d="m190.6 138.7-36.3-17.4c-5.1 10.8-9.2 21.8-12.4 33.2l38.9 10.7c2.4-9.1 5.7-18 9.8-26.5z" fill="#d6b9b6"/><path d="m272.9 165.7c-7.4 11.5-12 24.8-13 39.2l40.1 2.2c.6-7.2 2.9-13.8 6.5-19.6z" fill="#d6b9b6"/><path d="m181.8 167.1c-2.9 10.7-4.7 21.8-5.4 33.3l40.2 2.2c.5-8.5 1.9-16.8 4-24.8z" fill="#d6b9b6"/><path d="m192 139.4c-4 8.4-7.3 17.2-9.8 26.2l38.8 10.7c1.9-6.8 4.3-13.3 7.3-19.6z" fill="#d6b9b6"/><path d="m202.7 120.1c-3.7 5.7-7.1 11.7-10.1 17.9l36.3 17.4c2.2-4.6 4.8-9.1 7.5-13.4z" fill="#d6b9b6"/><g fill="#e6d4d1"><path d="m510.7 207.7 40.3-.5c-.1-7.4-.6-14.7-1.5-21.9l-40 5c.7 5.8 1.1 11.6 1.2 17.4z"/><path d="m509.3 188.8 40-5c-.6-4.9-1.4-9.8-2.4-14.7l-39.5 8.1c.8 3.9 1.4 7.7 1.9 11.6z"/><path d="m546.7 167.7c-4.9-23.5-13.9-46.1-26.6-66.7l-34.3 21.3c10.1 16.4 17.4 34.5 21.4 53.6z"/><path d="m448.1 143.8c-3.4-5.4-7.2-10.5-11.4-15.4l-30.3 26.6c2.7 3.1 5.2 6.5 7.5 10z"/><path d="m427.1 210.4c0 2.8-.1 5.5-.4 8.2l40.1 4.2c.4-4.1.6-8.2.6-12.4 0-8.3-.8-16.5-2.4-24.4l-39.5 8.1c1 5.3 1.6 10.7 1.6 16.3z"/><path d="m417.7 249 35.7 18.9c6.9-13.3 11.5-28 13.3-43.6l-40.1-4.2c-1.3 10.3-4.3 20.1-8.9 28.9z"/><path d="m405.4 154 30.3-26.7c-6.4-7.2-13.7-13.7-21.8-19.3l-22.7 33.4c5.2 3.6 10 7.9 14.2 12.6z"/><path d="m448.9 145.1-34.3 21.3c4.9 8 8.5 16.8 10.5 26.3l39.5-8.1c-2.9-14.1-8.2-27.4-15.7-39.5z"/><path d="m390 140.5 22.7-33.4c-20.5-13.9-44.4-21.3-69.3-21.5v40.4c17.2.1 33.3 5.5 46.6 14.5z"/><path d="m551.1 210.4c0-.6 0-1.1 0-1.7l-40.3.5v1.2c0 5.7-.3 11.3-.9 17l40.1 4.2c.7-7 1.1-14.1 1.1-21.2z"/><path d="m385.4 210.4c0 6.9-1.6 13.4-4.5 19.2l35.5 18.8c5.9-11.4 9.2-24.3 9.2-37.9 0-45.5-36.8-82.5-82.1-82.9v40.2c23.2.3 41.9 19.2 41.9 42.6z"/><path d="m483.7 121.8c-4.6-7.4-9.8-14.4-15.6-20.9l-30.2 26.6c4.3 4.9 8.1 10.1 11.6 15.6z"/><path d="m505.7 176.1c-4-18.9-11.2-36.8-21.2-53.1l-34.2 21.2c7.5 12.1 12.9 25.6 15.9 39.9z"/><path d="m509.2 207.7c-.2-10.2-1.3-20.3-3.2-30.1l-39.4 8.1c1.4 7.3 2.3 14.8 2.4 22.5z"/><path d="m490.4 287.5c3.1-5.9 5.8-11.9 8.1-18.1l-37.7-14.1c-1.7 4.6-3.7 9.1-6 13.4z"/><path d="m378 47.6c-11.3-2.4-22.9-3.7-34.6-3.8v40.3c8.9.1 17.5 1 25.9 2.8z"/><path d="m436.9 126.3 30.2-26.6c-8.7-9.8-18.6-18.6-29.6-26.3l-22.7 33.3c8.1 5.7 15.5 12.3 22.1 19.6z"/><path d="m499 267.9c4.6-12.6 7.7-25.8 9.2-39.2l-40-4.2c-1.1 10.2-3.5 20-6.9 29.4z"/><path d="m468.3 223 40 4.2c.6-5.6.9-11.2.9-16.8 0-.4 0-.8 0-1.2l-40.3.5v.7c0 4.3-.2 8.5-.6 12.6z"/></g><path d="m341.9 42.3v-40.3c-8.7 0-17.2.6-25.7 1.7l5.2 40c6.8-.9 13.6-1.3 20.5-1.4z" fill="#f7d2ad"/><path d="m244.7 73.8-23.3-32.9c-14.8 10.6-28.4 23.3-40.3 37.8l31.3 25.4c3.6-4.3 7.3-8.5 11.4-12.5 6.6-6.6 13.5-12.5 20.9-17.8z" fill="#f7d2ad"/><path d="m341.9 126v-40.3c-18.4.1-35.9 4.2-51.6 11.5l17 36.5c10.6-4.8 22.3-7.6 34.6-7.7z" fill="#f7d2ad"/><path d="m306 134.4-17-36.5c-20.4 9.8-37.8 25-50.3 43.8l33.8 21.9c8.3-12.5 19.9-22.6 33.5-29.2z" fill="#f7d2ad"/><path d="m270.6 58.5-17-36.5c-10.8 5.1-21.1 11.1-30.9 18l23.3 32.9c7.8-5.5 16-10.3 24.6-14.4z" fill="#f7d2ad"/><path d="m298.5 48.2-10.3-39c-3.2.9-6.3 1.8-9.5 2.8l12.4 38.3c2.4-.7 4.9-1.5 7.4-2.1z" fill="#f7d2ad"/><path d="m319.9 43.8-5.2-40c-8.5 1.1-16.9 2.8-25.1 4.9l10.3 39c6.6-1.6 13.3-2.9 20-3.9z" fill="#f7d2ad"/><path d="m289.7 50.8-12.4-38.3c-7.6 2.5-15.1 5.5-22.3 8.8l17 36.5c5.7-2.6 11.6-5 17.7-7z" fill="#f7d2ad"/><path d="m341.9 167.7v-40.2c-28.4.3-53.4 14.9-68.2 36.9l33.7 21.8c7.6-11 20.2-18.3 34.5-18.5z" fill="#f7d2ad"/><path d="m212.7 106.3c-3.2 4-6.3 8.2-9.2 12.6l33.7 21.9c2.1-3.1 4.3-6.2 6.7-9.1z" fill="#f7d2ad"/><path d="m288.2 96.4-17-36.5c-22.4 10.7-42 26.2-57.5 45.2l31.2 25.3c11.7-14.2 26.5-25.9 43.3-34z" fill="#f7d2ad"/><path d="m341.9 43.8c-14.4.1-28.3 2-41.6 5.5l10.3 38.9c10-2.6 20.5-4 31.3-4.1z" fill="#f7d2ad"/><path d="m298.9 49.7c-9.1 2.5-17.9 5.7-26.3 9.6l17 36.5c6.3-2.9 12.8-5.3 19.6-7.2z" fill="#f7d2ad"/><path d="m943 133.5v-31.7c-20.9.1-40.3 6.3-56.8 16.8l17.2 26.7c11.5-7.4 25-11.7 39.6-11.8z" fill="#ddbd9c"/><path d="m902.1 146-17.2-26.7c-12.2 8-22.6 18.4-30.7 30.6l26.6 17.3c5.7-8.4 12.9-15.7 21.3-21.2z" fill="#ddbd9c"/><path d="m943 167.1v-32.1c-25.4.3-47.7 13.3-60.9 33l26.9 17.5c7.4-10.9 19.9-18.2 34-18.4z" fill="#e3af8d"/><path d="m866.1 90.1-17.2-26.7c-14.3 9.4-27.2 20.8-38.2 33.8l24.4 20.3c8.9-10.5 19.4-19.8 31-27.4z" fill="#e7d4c1"/><path d="m943 67v-31.8c-10.4 0-20.6 1-30.5 2.8l5.8 31.2c8-1.4 16.3-2.2 24.7-2.2z" fill="#e7d4c1"/><path d="m891.9 76.8-11.4-29.7c-3.4 1.3-6.7 2.7-9.9 4.3l13.5 28.8c2.5-1.3 5.2-2.4 7.8-3.4z" fill="#e7d4c1"/><path d="m882.7 80.8-13.5-28.8c-6.6 3.1-13 6.7-19.1 10.6l17.2 26.7c5-3.1 10.1-6 15.4-8.5z" fill="#e7d4c1"/><path d="m916.9 69.5-5.9-31.2c-10 1.9-19.8 4.7-29.1 8.3l11.4 29.7c7.6-3 15.4-5.2 23.6-6.8z" fill="#e7d4c1"/><path d="m809.7 98.4c-4 4.9-7.8 9.9-11.2 15.2l26.6 17.3c2.8-4.2 5.8-8.3 9-12.2z" fill="#e7d4c1"/><path d="m884.1 118-17.2-26.7c-16.1 10.6-29.9 24.3-40.5 40.4l26.6 17.3c8.2-12.3 18.8-22.8 31.1-31z" fill="#e2c9af"/><path d="m892.4 78.2c-8.5 3.4-16.7 7.5-24.3 12.4l17.2 26.7c5.8-3.7 12-6.9 18.5-9.4z" fill="#e2c9af"/><path d="m943 100.2v-31.7c-17.3.1-33.8 3.3-49.1 9.1l11.4 29.6c11.7-4.4 24.4-6.9 37.7-7z" fill="#e2c9af"/><path d="m868.6 216.6-31.6 2.9c4.7 48.1 41.1 86.9 88.1 95.2l5.3-31.3c-32.9-6-58.5-33.2-61.8-66.8z" fill="#8e7f96"/><path d="m868.2 209c0-14.9 4.3-28.8 11.8-40.6l-26.6-17.3c-10.7 16.7-17 36.6-17 57.9 0 3 .1 6 .4 8.9l31.6-2.9c-.1-1.9-.2-4-.2-6z" fill="#8e7f96"/><path d="m811.7 156.7-29.5-11.9c-4.4 10.9-7.6 22.4-9.7 34.3l31.3 5.3c1.7-9.6 4.4-18.9 7.9-27.7z" fill="#beafb6"/><path d="m840.4 348.7c21.3 15.8 46.3 26.8 73.5 31.6l5.3-31.3c-22.1-3.9-42.4-12.8-59.8-25.7z" fill="#beafb6"/><path d="m801.7 209c0-7.8.7-15.5 1.9-23.1l-31.3-5.3c-1.5 9.2-2.3 18.7-2.3 28.4 0 5 .2 10 .6 14.9l31.7-2.9c-.4-3.9-.6-7.9-.6-12z" fill="#beafb6"/><path d="m828.4 291.8-25.9 18.4c10.3 14.3 22.6 26.9 36.7 37.5l19-25.5c-11.4-8.5-21.4-18.8-29.8-30.4z" fill="#beafb6"/><path d="m805.4 241-31 7c5.1 22.3 14.5 42.9 27.3 61l25.9-18.4c-10.4-14.7-18.1-31.5-22.2-49.6z" fill="#beafb6"/><path d="m802.4 222.6-31.7 2.9c.7 7.2 1.8 14.2 3.3 21.1l31-7c-1.2-5.6-2.1-11.3-2.6-17z" fill="#beafb6"/><path d="m824.3 132.2-26.6-17.3c-5.8 9-10.8 18.5-14.9 28.5l29.5 11.9c3.3-8.1 7.3-15.8 12-23.1z" fill="#beafb6"/><path d="m1026.4 93.6 18.6-25.7c-11.3-8.2-23.7-15-36.8-20.3l-11.7 29.6c10.7 4.3 20.7 9.8 29.9 16.4z" fill="#d6c9c6"/><path d="m964.9 36.5c-6.7-.8-13.5-1.3-20.5-1.3v31.8c5.6 0 11.1.4 16.4 1z" fill="#d6c9c6"/><path d="m995.2 76.6 11.7-29.6c-12.8-5-26.4-8.5-40.4-10.4l-4 31.5c11.3 1.6 22.3 4.5 32.7 8.5z" fill="#d6c9c6"/><path d="m1045.9 110.5 23-21.9c-7-7.2-14.5-13.8-22.6-19.8l-18.6 25.7c6.5 4.8 12.6 10.1 18.2 16z" fill="#d6c9c6"/><path d="m1085.8 209c0 5.6-.3 11.2-1 16.7l31.5 3.9c.8-6.8 1.2-13.6 1.2-20.6 0-11.6-1.2-23-3.3-33.9l-31.2 6.3c1.8 8.9 2.8 18.2 2.8 27.6z" fill="#d6c9c6"/><path d="m1071.3 146.5 28.6-13.8c-7.8-15.9-17.9-30.4-29.9-43.1l-23 21.9c9.7 10.4 17.9 22.2 24.3 35z" fill="#d6c9c6"/><path d="m1082.8 179.9 31.2-6.3c-2.9-13.8-7.4-27.1-13.4-39.5l-28.6 13.8c4.8 10.1 8.4 20.8 10.8 32z" fill="#d6c9c6"/><path d="m943.7 250.9c-2.1 0-4.2-.2-6.3-.5l-5.4 31.7c3.8.6 7.7.9 11.7.9 37.5 0 68.6-28 73.4-64.2l-31.9-3.9c-2.8 20.3-20.3 36-41.5 36z" fill="#7e729e"/><path d="m803.7 220.9 31.6-2.9c-.2-3-.4-6-.4-9.1 0-6 .5-11.8 1.4-17.5l-31.3-5.3c-1.2 7.4-1.9 15-1.9 22.8.1 4.1.3 8.1.6 12z" fill="#a697a6"/><path d="m803.9 222.4c2.4 24.9 11.3 47.9 24.9 67.3l25.9-18.4c-10.5-15-17.3-32.7-19.2-51.8z" fill="#a697a6"/><path d="m852.2 150.3-26.6-17.3c-10 15.4-17 32.9-20.3 51.7l31.3 5.3c2.6-14.4 7.9-27.8 15.6-39.7z" fill="#a697a6"/><path d="m855.5 272.6-25.8 18.4c21 29.2 53 50 89.8 56.4l5.3-31.3c-28.4-5-53-21-69.3-43.5z" fill="#a697a6"/><path d="m1008 296.7c-8.6 6.3-18.3 11.4-28.6 15l10.2 30.1c13.5-4.7 26-11.3 37.3-19.6z" fill="#aea5bf"/><path d="m1009.2 295.8 18.9 25.5c18.7-14.1 33.8-32.7 43.6-54.2l-29-13c-7.6 16.6-19.2 30.9-33.5 41.7z" fill="#aea5bf"/><path d="m943.7 317.8c-6 0-11.8-.5-17.5-1.4l-5.3 31.3c7.4 1.2 15 1.9 22.8 1.9 15.5 0 30.5-2.5 44.4-7.2l-10.1-30.1c-10.8 3.5-22.3 5.5-34.3 5.5z" fill="#aea5bf"/><path d="m1072.3 265.7c5.4-12.1 9.1-25.1 10.8-38.8l-31.5-3.9c-1.4 10.4-4.2 20.4-8.3 29.7z" fill="#aea5bf"/><path d="m989.4 269.2 18.9 25.5c22.4-17 38-42.5 41.8-71.7l-31.5-3.9c-2.7 20.3-13.6 38.2-29.2 50.1z" fill="#968baf"/><path d="m943.7 284.5c-4.1 0-8-.3-11.9-.9l-5.3 31.3c5.6.9 11.4 1.4 17.2 1.4 23.7 0 45.6-7.7 63.3-20.7l-18.9-25.5c-12.4 9.1-27.8 14.4-44.4 14.4z" fill="#968baf"/><path d="m901.8 209c0-8.2 2.4-15.8 6.4-22.2l-26.9-17.5c-7.3 11.5-11.6 25.1-11.6 39.7 0 36.3 26.3 66.7 60.9 72.9l5.4-31.7c-19.4-3.7-34.2-20.7-34.2-41.2z" fill="#756686"/><path d="m776.1 260.5-30.3 9.2c4.4 14.3 10.3 27.9 17.5 40.7l26.9-16.6c-5.9-10.6-10.6-21.8-14.1-33.3z" fill="#d7c8c5"/><path d="m769.2 225.6-31.6 2.9c.4 4.1.9 8.2 1.5 12.2l31.3-5c-.5-3.4-.9-6.7-1.2-10.1z" fill="#d7c8c5"/><path d="m770.7 180.4-31.2-5.3c-1.8 10.8-2.7 21.9-2.8 33.2h31.7c.1-9.5.9-18.8 2.3-27.9z" fill="#d7c8c5"/><path d="m772.8 248.4-30.9 7c1 4.4 2.1 8.7 3.4 12.9l30.3-9.2c-1-3.6-1.9-7.1-2.8-10.7z" fill="#d7c8c5"/><path d="m768.4 209.7h-31.7c0 5.8.3 11.5.8 17.2l31.6-2.9c-.4-4.7-.6-9.4-.7-14.3z" fill="#d7c8c5"/><path d="m780.7 144.2-29.3-11.8c-5.2 13.1-9.2 26.9-11.6 41.2l31.2 5.3c2-11.9 5.3-23.5 9.7-34.7z" fill="#d7c8c5"/><path d="m796.3 114-26.5-17.2c-7 10.8-13 22.2-17.9 34.2l29.3 11.8c4.2-10 9.2-19.6 15.1-28.8z" fill="#d7c8c5"/><path d="m770.7 237.2-31.3 5c.6 3.9 1.4 7.9 2.2 11.7l30.9-7c-.7-3.2-1.3-6.5-1.8-9.7z" fill="#d7c8c5"/><path d="m828 340.7-21 23.6c4 3.5 8.1 6.8 12.3 10l18.9-25.3c-3.4-2.6-6.9-5.4-10.2-8.3z" fill="#d7c8c5"/><path d="m839.4 350-18.9 25.3c12.7 9.5 26.6 17.5 41.4 23.9l12.4-29.1c-12.3-5.3-24-12.1-34.9-20.1z" fill="#d7c8c5"/><path d="m875.7 370.7-12.4 29.1c4.4 1.8 8.8 3.5 13.3 5.1l10.2-30c-3.8-1.3-7.5-2.7-11.1-4.2z" fill="#d7c8c5"/><path d="m819.8 333c-3.6-3.6-7.1-7.4-10.3-11.2l-24.3 20.2c6.4 7.6 13.3 14.8 20.8 21.4l21-23.6c-2.5-2.3-4.9-4.5-7.2-6.8z" fill="#d7c8c5"/><path d="m888.2 375.3-10.2 30c9.8 3.3 19.9 5.9 30.3 7.7l5.3-31.2c-8.7-1.6-17.2-3.7-25.4-6.5z" fill="#d7c8c5"/><path d="m790.9 295-26.9 16.6c3.3 5.7 6.8 11.3 10.6 16.6l25.7-18.3c-3.4-4.8-6.5-9.8-9.4-14.9z" fill="#d7c8c5"/><path d="m801.2 311.2-25.7 18.3c2.8 3.9 5.7 7.6 8.7 11.3l24.3-20.2c-2.5-3.1-5-6.2-7.3-9.4z" fill="#d7c8c5"/><path d="m1110.3 258.5c2.6-8.9 4.6-18 5.8-27.4l-31.5-3.9c-1 7.6-2.6 15-4.7 22.2z" fill="#c6bfcf"/><path d="m990.1 343.2 10.2 30.1c10.8-3.7 21.1-8.5 30.8-14.1l-16.1-27.4c-7.9 4.6-16.2 8.4-24.9 11.4z" fill="#c6bfcf"/><path d="m1016.3 331.1 16.1 27.4c5-2.9 9.8-6.1 14.4-9.5l-18.9-25.5c-3.8 2.6-7.7 5.2-11.6 7.6z" fill="#c6bfcf"/><path d="m968.2 348.9 5.3 31.3c8.7-1.5 17.2-3.7 25.4-6.4l-10.2-30.1c-6.7 2.2-13.5 4-20.5 5.2z" fill="#c6bfcf"/><path d="m1102.7 279.3c2.8-6.3 5.2-12.8 7.3-19.4l-30.4-9.2c-1.6 5.3-3.6 10.5-5.8 15.6z" fill="#c6bfcf"/><path d="m943.7 351c-7.9 0-15.6-.7-23.1-1.9l-5.3 31.3c9.2 1.5 18.7 2.3 28.4 2.3 9.6 0 19.1-.8 28.3-2.3l-5.3-31.3c-7.5 1.3-15.1 1.9-23 1.9z" fill="#c6bfcf"/><path d="m1053.3 299.2 24.4 20.3c9.7-11.7 17.9-24.8 24.3-38.8l-29-13c-5.2 11.4-11.8 22-19.7 31.5z" fill="#c6bfcf"/><path d="m1029 322.5 18.9 25.5c10.6-8 20.3-17.2 28.9-27.4l-24.4-20.3c-7 8.3-14.8 15.7-23.4 22.2z" fill="#c6bfcf"/><path d="m1079 320.5 24.3 20.2c5.7-6.9 10.9-14.1 15.7-21.7l-26.8-16.7c-4 6.4-8.4 12.4-13.2 18.2z" fill="#ddd9e0"/><path d="m1093 301.1 26.8 16.7c4.7-7.5 8.9-15.4 12.6-23.5l-28.8-12.9c-3.2 6.7-6.7 13.3-10.6 19.7z" fill="#ddd9e0"/><path d="m1067.7 333c-3.4 3.4-6.8 6.6-10.4 9.6l20.4 24.2c8.9-7.6 17.2-15.9 24.7-24.8l-24.3-20.2c-3.3 3.8-6.8 7.5-10.4 11.2z" fill="#ddd9e0"/><path d="m1106.3 274.9 29.2 12c2.3-5.7 4.4-11.5 6.2-17.4l-30.3-9.1c-1.5 4.9-3.2 9.8-5.1 14.5z" fill="#ddd9e0"/><path d="m1111.8 259 30.3 9.1c.8-2.6 1.5-5.3 2.2-8l-30.7-7.7c-.5 2.2-1.1 4.4-1.8 6.6z" fill="#ddd9e0"/><path d="m1048.9 349.3 18.8 25.4c3-2.2 5.9-4.6 8.8-7l-20.4-24.2c-2.3 2-4.8 4-7.2 5.8z" fill="#ddd9e0"/><path d="m1104.1 280 28.8 12.9c.7-1.5 1.3-3.1 2-4.6l-29.2-12c-.5 1.3-1 2.5-1.6 3.7z" fill="#ddd9e0"/><path d="m943.7 384.3c-5.9 0-11.7-.3-17.5-.9l-3.3 31.5c6.8.7 13.8 1 20.8 1 5.2 0 10.3-.2 15.3-.6l-2.5-31.6c-4.2.4-8.5.6-12.8.6z" fill="#ddd9e0"/><path d="m958.1 383.7 2.5 31.6c5.7-.5 11.4-1.2 17-2.1l-5.3-31.2c-4.7.8-9.4 1.3-14.2 1.7z" fill="#ddd9e0"/><path d="m973.7 381.8 5.3 31.2c10.4-1.8 20.6-4.4 30.5-7.7l-10.2-29.9c-8.3 2.7-16.8 4.9-25.6 6.4z" fill="#ddd9e0"/><path d="m1114 250.9 30.7 7.7c1.9-7.7 3.4-15.5 4.4-23.5l-31.4-3.9c-.9 6.7-2.1 13.3-3.7 19.7z" fill="#ddd9e0"/><path d="m1024.6 364.6 14.4 28.1c3-1.6 5.9-3.2 8.9-4.9l-16-27.2c-2.4 1.4-4.9 2.8-7.3 4z" fill="#ddd9e0"/><path d="m1033.2 359.9 16 27.2c6-3.6 11.8-7.4 17.4-11.5l-18.8-25.3c-4.8 3.4-9.7 6.6-14.6 9.6z" fill="#ddd9e0"/><path d="m1000.8 374.8 10.2 29.9c9.2-3.2 18.1-7 26.7-11.4l-14.4-28.1c-7.3 3.8-14.8 7-22.5 9.6z" fill="#ddd9e0"/><path d="m915.1 382-5.3 31.2c3.9.6 7.7 1.2 11.7 1.6l3.3-31.5c-3.3-.4-6.5-.8-9.7-1.3z" fill="#ddd9e0"/><path d="m965.1 35 4-31.4c-8.1-1.1-16.3-1.6-24.6-1.6v31.7c6.9 0 13.8.5 20.6 1.3z" fill="#e3d5ca"/><path d="m1117.8 229.8 31.4 3.9c.8-6.6 1.3-13.4 1.4-20.2l-31.7-.6c0 5.7-.4 11.3-1.1 16.9z" fill="#e3d5ca"/><path d="m994 41 9.2-30.3c-10.6-3.2-21.5-5.5-32.5-6.9l-4 31.4c9.2 1.2 18.4 3.1 27.3 5.8z" fill="#e3d5ca"/><path d="m1028.7 20.2c-2.7-1.2-5.5-2.4-8.3-3.5l-11.6 29.4c2.3.9 4.5 1.9 6.8 2.9z" fill="#e3d5ca"/><path d="m1119 209v2.4l31.7.6c0-1 0-2 0-3 0-8.3-.5-16.5-1.4-24.6l-31.5 3.9c.8 6.8 1.2 13.7 1.2 20.7z" fill="#e3d5ca"/><path d="m1007.4 45.6 11.6-29.4c-4.8-1.9-9.6-3.5-14.5-5l-9.2 30.3c4.2 1.1 8.2 2.5 12.1 4.1z" fill="#e3d5ca"/><path d="m1107.7 146.7 29.7-11.1c-2.1-5.4-4.3-10.8-6.9-16l-28.5 13.8c2.1 4.3 4 8.8 5.7 13.3z" fill="#e3d5ca"/><path d="m1114.4 91.7c-6.1-8.8-12.8-17.2-20.3-25.1l-22.9 21.9c6.3 6.6 12 13.7 17.1 21.1z" fill="#e3d5ca"/><path d="m1077.7 51.2-20.4 24.2c3.6 3.1 7.1 6.3 10.4 9.6.8.8 1.6 1.6 2.4 2.4l22.9-21.9c-4.9-5-10-9.8-15.3-14.3z" fill="#e3d5ca"/><path d="m1115.4 173.3 31-6.3c-2.1-10.2-5-20.2-8.6-30l-29.7 11.1c3.1 8.2 5.5 16.6 7.3 25.2z" fill="#e3d5ca"/><path d="m1117.7 186.8 31.4-3.9c-.6-4.9-1.4-9.7-2.3-14.5l-31 6.3c.7 4 1.3 8.1 1.9 12.1z" fill="#e3d5ca"/><path d="m1046 66.6 18.6-25.6c-10.8-7.8-22.4-14.6-34.5-20.2l-13.1 28.8c10.1 4.7 19.9 10.4 29 17z" fill="#e3d5ca"/><path d="m1101.3 132 28.5-13.8c-4.3-8.7-9.2-17.2-14.6-25.3l-26.2 17.8c4.6 6.9 8.7 14 12.3 21.3z" fill="#e3d5ca"/><path d="m1056.1 74.4 20.4-24.2c-3.5-2.9-7-5.7-10.7-8.4l-18.6 25.6c3.1 2.3 6 4.6 8.9 7z" fill="#e3d5ca"/><path d="m861.2 54.2-14.7-27.9c-4.9 2.6-9.7 5.4-14.4 8.4l17.1 26.5c4-2.5 8-4.8 12-7z" fill="#ebe0d4"/><path d="m925.7 34.6-3.1-31.5c-5.5.6-10.9 1.3-16.2 2.3l5.8 31.1c4.5-.8 9-1.4 13.5-1.9z" fill="#ebe0d4"/><path d="m943 33.7v-31.7c-6.4 0-12.7.3-18.9.9l3.1 31.5c5.2-.4 10.5-.7 15.8-.7z" fill="#ebe0d4"/><path d="m819.8 85c5.1-5.1 10.5-9.9 16.2-14.3l-19.3-25c-11.5 9-22 19.1-31.4 30.3l24.3 20.2c3.1-3.8 6.6-7.6 10.2-11.2z" fill="#ebe0d4"/><path d="m848 62.1-17.1-26.5c-4.5 2.9-8.8 6-13.1 9.3l19.3 25c3.6-2.8 7.2-5.4 10.9-7.8z" fill="#ebe0d4"/><path d="m879.9 45.6-11.4-29.5c-4.1 1.6-8.1 3.3-12.1 5.2l13.4 28.6c3.4-1.5 6.7-3 10.1-4.3z" fill="#ebe0d4"/><path d="m910.7 36.8-5.8-31.1c-9.1 1.7-17.9 4-26.5 6.9l10.1 30c7.2-2.5 14.7-4.4 22.2-5.8z" fill="#ebe0d4"/><path d="m887.1 43-10.1-30c-2.4.8-4.7 1.7-7.1 2.6l11.4 29.5c1.9-.7 3.8-1.4 5.8-2.1z" fill="#ebe0d4"/><path d="m868.5 50.5-13.4-28.5c-2.4 1.2-4.9 2.4-7.2 3.6l14.7 27.9c1.9-1 3.9-2 5.9-3z" fill="#ebe0d4"/><path d="m801.6 106.4-25.6-18.6c-1.8 2.5-3.6 5.1-5.3 7.7l26.5 17.2c1.4-2.1 2.8-4.2 4.4-6.3z" fill="#ebe0d4"/><path d="m808.5 97.4-24.3-20.2c-2.5 3.1-5 6.2-7.3 9.4l25.5 18.6c2-2.7 4-5.3 6.1-7.8z" fill="#ebe0d4"/><path d="m994.6 78c-15.6-6.1-32.5-9.4-50.1-9.5v31.7c13.6.1 26.5 2.7 38.5 7.3z" fill="#c7bcc1"/><path d="m1021.9 133.4 23-21.9c-13.7-14.2-30.3-25.5-48.8-32.9l-11.7 29.5c14.2 5.8 27 14.4 37.5 25.3z" fill="#c7bcc1"/><path d="m1022.9 134.5c7.4 7.8 13.6 16.8 18.4 26.5l28.6-13.8c-6.3-12.7-14.4-24.4-24-34.6z" fill="#c7bcc1"/><path d="m1052.5 209c0 4.3-.3 8.5-.7 12.6l31.5 3.9c.6-5.4 1-10.9 1-16.5 0-21.6-4.9-42.1-13.7-60.4l-28.6 13.8c6.7 14.1 10.5 29.9 10.5 46.6z" fill="#c7bcc1"/><path d="m997.8 156.3 23-21.9c-19.4-20-46.4-32.5-76.3-32.7v31.7c20.9.3 39.8 9 53.3 22.9z" fill="#b5abb9"/><path d="m1019.3 209c0 2.9-.2 5.7-.5 8.5l31.5 3.9c.5-4.1.7-8.2.7-12.4 0-28.4-11.1-54.3-29.2-73.5l-23 21.9c12.7 13.5 20.5 31.7 20.5 51.6z" fill="#b5abb9"/><path d="m985.7 209c0 1.5-.1 2.9-.2 4.4l31.9 3.9c.3-2.7.5-5.5.5-8.3 0-40.6-32.8-73.6-73.3-74v32.1c22.7.4 41.1 19 41.1 41.9z" fill="#a39bb3"/></svg>