<?xml version="1.0" encoding="utf-8"?>
<!-- Generator: Adobe Illustrator 19.2.0, SVG Export Plug-In . SVG Version: 6.00 Build 0)  -->
<svg version="1.1" id="Layer_1" xmlns="http://www.w3.org/2000/svg" xmlns:xlink="http://www.w3.org/1999/xlink" x="0px" y="0px"
	 width="1200px" height="886px" viewBox="0 0 1200 886" enable-background="new 0 0 1200 886" xml:space="preserve">
<g>
	<polyline fill="none" stroke="#7581BA" stroke-width="14" stroke-miterlimit="10" points="1011,115 1011,628 189,628 189,115 	"/>
	<rect x="413" y="2" fill="#939FD5" width="374" height="132"/>
	<rect x="413" y="751" fill="#939FD5" width="374" height="132"/>
	<g>
		<text transform="matrix(1 0 0 1 466.7439 84.8871)" fill="#37246D" font-family="'Roboto-Medium'" font-size="65px">leaf node</text>
	</g>
	<rect x="4" y="2" fill="#939FD5" width="372" height="132"/>
	<g>
		<text transform="matrix(1 0 0 1 52.9451 84.8871)" fill="#37246D" font-family="'Roboto-Medium'" font-size="65px">leaf node</text>
	</g>
	<rect x="824" y="2" fill="#939FD5" width="373" height="132"/>
	<rect x="4" y="376" fill="#939FD5" width="372" height="132"/>
	<rect x="824" y="376" fill="#939FD5" width="373" height="132"/>
	<g>
		<text transform="matrix(1 0 0 1 877.869 84.8871)" fill="#37246D" font-family="'Roboto-Medium'" font-size="65px">leaf node</text>
	</g>
	<g>
		<text transform="matrix(1 0 0 1 114.9549 462.2396)" fill="#37246D" font-family="'Roboto-Medium'" font-size="65px">node</text>
	</g>
	<g>
		<text transform="matrix(1 0 0 1 940.3201 462.2396)" fill="#37246D" font-family="'Roboto-Medium'" font-size="65px">node</text>
	</g>
	<g>
		<text transform="matrix(1 0 0 1 462.2508 838.6185)" fill="#37246D" font-family="'Roboto-Medium'" font-size="65px">root node</text>
	</g>
	<polyline fill="none" stroke="#7581BA" stroke-width="14" stroke-miterlimit="10" points="1011,255 600,255 600,134 	"/>
	<line fill="none" stroke="#7581BA" stroke-width="14" stroke-miterlimit="10" x1="600" y1="751" x2="600" y2="630"/>
	<line fill="none" stroke="#AFAFAF" stroke-width="8" stroke-miterlimit="10" x1="929" y1="770" x2="929" y2="653"/>
	<g>
		<text transform="matrix(1 0 0 1 873.0135 843.2894)" fill="#7F7F7F" font-family="'Roboto-Regular'" font-size="65px">links</text>
	</g>
</g>
</svg>
