<?xml version="1.0" encoding="utf-8"?>
<!-- Generator: Adobe Illustrator 22.1.0, SVG Export Plug-In . SVG Version: 6.00 Build 0)  -->
<svg version="1.1" xmlns="http://www.w3.org/2000/svg" xmlns:xlink="http://www.w3.org/1999/xlink" x="0px" y="0px"
	 viewBox="0 0 1268 418" enable-background="new 0 0 1268 418" xml:space="preserve">
<g id="Layer_1">
	<rect x="2" y="191.8" fill="#968BAF" width="235" height="34.4"/>
	<rect x="1031" y="110.4" fill="#DDD9E0" width="235" height="34.4"/>
	<line fill="none" stroke="#C4C4C4" stroke-miterlimit="10" x1="237" y1="209.4" x2="290" y2="209.4"/>
	<polyline fill="none" stroke="#C4C4C4" stroke-miterlimit="10" points="635,98.8 291.5,98.8 291.5,317.7 635,317.7 	"/>
	<polyline fill="none" stroke="#C4C4C4" stroke-miterlimit="10" points="977,45.7 634.5,45.7 634.5,154.1 977,154.1 	"/>
	<rect x="688" y="137.3" fill="#C6BFCF" width="235" height="34.4"/>
	<rect x="1031" y="164.9" fill="#DDD9E0" width="235" height="34.4"/>
	<rect x="1031" y="2" fill="#DDD9E0" width="235" height="34.4"/>
	<polyline fill="none" stroke="#C4C4C4" stroke-miterlimit="10" points="1032,20.3 977.5,20.3 977.5,73.4 1031,73.4 	"/>
	<polyline fill="none" stroke="#C4C4C4" stroke-miterlimit="10" points="1032,127.9 977.5,127.9 977.5,181 1031,181 	"/>
	<polyline fill="none" stroke="#C4C4C4" stroke-miterlimit="10" points="1032,236.3 977.5,236.3 977.5,289.3 1031,289.3 	"/>
	<polyline fill="none" stroke="#C4C4C4" stroke-miterlimit="10" points="1032,343.9 977.5,343.9 977.5,396.9 1031,396.9 	"/>
	<rect x="1031" y="56.6" fill="#DDD9E0" width="235" height="34.4"/>
	<rect x="1031" y="218.7" fill="#DDD9E0" width="235" height="34.4"/>
	<rect x="1031" y="273.3" fill="#DDD9E0" width="235" height="34.4"/>
	<rect x="1031" y="327.1" fill="#DDD9E0" width="235" height="34.4"/>
	<rect x="1031" y="381.6" fill="#DDD9E0" width="235" height="34.4"/>
	<rect x="344" y="82" fill="#AEA5BF" width="235" height="34.4"/>
	<rect x="344" y="300.9" fill="#AEA5BF" width="235" height="34.4"/>
	<rect x="688" y="28.9" fill="#C6BFCF" width="235" height="34.4"/>
	<polyline fill="none" stroke="#C4C4C4" stroke-miterlimit="10" points="977,261.7 634.5,261.7 634.5,370 977,370 	"/>
	<rect x="688" y="353.2" fill="#C6BFCF" width="235" height="34.4"/>
	<rect x="688" y="244.1" fill="#C6BFCF" width="235" height="34.4"/>
</g>
<g id="Layer_2">
</g>
<g id="Layer_3">
</g>
</svg>
