<svg enable-background="new 0 0 256 256" height="256" viewBox="0 0 256 256" width="256" xmlns="http://www.w3.org/2000/svg"><path d="m248.12 233.548v-35.657h-19.713v-19.721c4.133-1.839 7.019-5.974 7.019-10.79s-2.886-8.951-7.019-10.79v-33.512h-35.314v-10.772c5.366-1.998 9.195-7.152 9.195-13.214s-3.829-11.216-9.195-13.214v-36.628h-69.459v-15.446c6.586-2.087 11.361-8.245 11.361-15.521-.002-8.993-7.292-16.283-16.285-16.283s-16.283 7.29-16.283 16.283c0 7.276 4.775 13.434 11.361 15.521v15.446h-69.46v36.63c-5.363 1.999-9.19 7.152-9.19 13.212s3.827 11.213 9.19 13.212v10.774h-35.437v33.574c-4.064 1.867-6.891 5.963-6.891 10.728 0 6.524 5.289 11.813 11.813 11.813s11.813-5.289 11.813-11.813c0-4.765-2.827-8.861-6.891-10.728v-23.73h61.031v23.73c-4.063 1.868-6.891 5.963-6.891 10.728 0 6.524 5.289 11.813 11.813 11.813s11.812-5.289 11.812-11.813c0-4.765-2.827-8.861-6.891-10.728v-33.574h-35.437v-10.774c5.363-1.999 9.19-7.152 9.19-13.212s-3.827-11.213-9.19-13.212v-26.786h129.076v26.788c-5.361 2.001-9.185 7.152-9.185 13.21s3.825 11.209 9.185 13.21v10.776h-35.561v33.635c-3.994 1.895-6.763 5.952-6.763 10.667 0 4.714 2.769 8.772 6.763 10.667v19.844h-19.687v35.256c-3.608 1.808-6.09 5.53-6.09 9.841 0 6.082 4.93 11.012 11.012 11.012s11.012-4.93 11.012-11.012c0-4.31-2.482-8.032-6.09-9.841v-25.413h29.531v25.413c-3.608 1.808-6.09 5.53-6.09 9.841 0 6.082 4.93 11.012 11.012 11.012s11.012-4.93 11.012-11.012c0-4.31-2.482-8.032-6.09-9.841v-35.256h-19.688v-19.721c4.133-1.839 7.019-5.974 7.019-10.79s-2.886-8.951-7.019-10.79v-23.668h61.031v23.791c-3.994 1.895-6.763 5.952-6.763 10.667 0 4.714 2.769 8.772 6.763 10.667v19.844h-19.662v35.46c-3.504 1.793-5.907 5.431-5.907 9.637 0 5.98 4.848 10.828 10.828 10.828s10.828-4.848 10.828-10.828c0-4.206-2.403-7.843-5.906-9.636v-25.617h29.531v25.788c-3.517 1.788-5.932 5.433-5.932 9.649 0 5.98 4.848 10.828 10.828 10.828s10.83-4.848 10.83-10.828c0-4.196-2.391-7.826-5.88-9.624z"/></svg>