<?xml version="1.0" encoding="utf-8"?>
<!-- Generator: Adobe Illustrator 22.1.0, SVG Export Plug-In . SVG Version: 6.00 Build 0)  -->
<svg version="1.1" id="Layer_1" xmlns="http://www.w3.org/2000/svg" xmlns:xlink="http://www.w3.org/1999/xlink" x="0px" y="0px"
	 viewBox="0 0 1268 418" style="enable-background:new 0 0 1268 418;" xml:space="preserve">
<style type="text/css">
	.st0{fill:#6A5C84;}
	.st1{fill:#EFEFEF;}
	.st2{fill:#BFB1DD;}
</style>
<g id="Layer_1_1_">
	<g>
		<circle class="st0" cx="312.5" cy="199.2" r="5"/>
	</g>
	<g>
		<circle class="st0" cx="703.5" cy="262.4" r="5"/>
	</g>
	<g>
		<rect x="2" y="249.2" class="st1" width="172.3" height="29.1"/>
	</g>
	<g>
		<rect x="2" y="302.4" class="st1" width="263.5" height="29.1"/>
	</g>
	<g>
		<rect x="2" y="353.8" class="st1" width="238.1" height="29.1"/>
	</g>
	<g>
		<rect x="268" y="353.8" class="st1" width="395.2" height="29.1"/>
	</g>
	<g>
		<rect x="860.8" y="302.4" class="st1" width="405.2" height="29.1"/>
	</g>
	<g>
		<rect x="691" y="353.8" class="st1" width="329.1" height="29.1"/>
	</g>
	<g>
		<rect x="293.3" y="302.4" class="st1" width="539.6" height="29.1"/>
	</g>
	<g>
		<rect x="2" y="35.1" class="st1" width="263.5" height="29.1"/>
	</g>
	<g>
		<rect x="2" y="88.7" class="st1" width="324.3" height="29.1"/>
	</g>
	<g>
		<rect x="354.1" y="88.7" class="st1" width="184.9" height="29.1"/>
	</g>
	<g>
		<rect x="564.4" y="88.7" class="st1" width="336.8" height="29.1"/>
	</g>
	<g>
		<rect x="1132.7" y="88.7" class="st1" width="133.3" height="29.1"/>
	</g>
	<g>
		<rect x="293.3" y="35.1" class="st1" width="382.5" height="29.1"/>
	</g>
	<g>
		<rect x="706.2" y="35.1" class="st1" width="541.8" height="29.1"/>
	</g>
	<g>
		<rect x="1050.8" y="353.8" class="st1" width="189.2" height="29.1"/>
	</g>
	<g>
		<rect x="2" y="142" class="st1" width="172.3" height="29.1"/>
	</g>
	<g>
		<rect x="202.1" y="142" class="st1" width="286.3" height="29.1"/>
	</g>
	<g>
		<rect x="513.7" y="142" class="st1" width="288.9" height="29.1"/>
	</g>
	<g>
		<rect x="832.1" y="142" class="st1" width="108.9" height="29.1"/>
	</g>
	<g>
		<rect x="966.4" y="142" class="st1" width="290.6" height="29.1"/>
	</g>
	<g>
		<rect x="2" y="196" class="st1" width="113.2" height="29.1"/>
	</g>
	<g>
		<polygon class="st2" points="312.5,228.1 141.3,228.1 141.3,202.9 160,208 186.7,194.5 201.4,204.2 212.5,197.9 232.5,213.7 
			250,202.8 267.4,205.2 282.9,195.6 298.8,212.4 312.5,199.5 		"/>
	</g>
	<g>
		<rect x="339" y="196" class="st1" width="339.6" height="29.1"/>
	</g>
	<g>
		<rect x="202.1" y="249.2" class="st1" width="277.6" height="29.1"/>
	</g>
	<g>
		<rect x="729.7" y="249.2" class="st1" width="191" height="29.1"/>
	</g>
	<g>
		<rect x="946.1" y="249.2" class="st1" width="237.6" height="29.1"/>
	</g>
	<g>
		<rect x="708.7" y="196.9" class="st1" width="157.1" height="29.1"/>
	</g>
	<g>
		<rect x="891.1" y="196.9" class="st1" width="348.9" height="29.1"/>
	</g>
	<g>
		<polygon class="st0" points="311.5,198.4 298.8,210.3 283.2,193.6 267,203.7 249.7,201.3 232.6,211.9 212.7,196.1 201.5,202.5 
			186.8,192.8 159.7,206.1 141.3,201.4 141.3,204.5 160,209.3 186.6,196.2 201.4,206 212.4,199.7 232.4,215.6 250.3,204.4 
			267.7,206.8 282.7,197.5 298.7,214.6 313.5,200.6 		"/>
	</g>
	<g>
		<circle class="st0" cx="1106.3" cy="87.5" r="5"/>
	</g>
	<g>
		<polygon class="st2" points="1106.3,117.4 927.8,117.4 927.8,92.2 946.5,95.3 963.2,105.8 980.8,93.8 997.5,101.1 1021.4,87.5 
			1037,98.2 1046.2,92.5 1061,105.8 1083.8,87.5 1095,97.5 1106.3,87.5 		"/>
	</g>
	<g>
		<polygon class="st0" points="1105.3,86.4 1095,95.5 1083.8,85.5 1061.1,103.8 1046.4,90.7 1037,96.5 1021.5,85.7 997.4,99.4 
			980.6,92 963.2,104 946.9,93.5 927.8,90.5 927.8,93.5 945.8,96.4 963.3,107.5 980.9,95.5 997.6,102.8 1021.3,89.2 1037,100 
			1046.1,94.4 1060.9,107.7 1083.7,89.4 1095,99.5 1107.3,88.6 		"/>
	</g>
	<g>
		<polygon class="st2" points="703.5,291.5 506.1,291.5 506.1,266.3 524.8,271.4 551.4,257.9 566.2,267.6 580,265.2 596.8,272.8 
			617,270.2 634,261 680.1,277.8 703.5,262.9 		"/>
	</g>
	<g>
		<polygon class="st0" points="702.7,261.6 679.9,276.1 633.9,259.4 616.5,268.8 597,271.2 580.2,263.7 566.5,266 551.5,256.2 
			524.5,269.4 506.2,264.8 506.2,267.9 524.8,272.6 551.3,259.6 565.9,269.2 579.8,266.8 596.5,274.3 617.5,271.7 634.1,262.6 
			680.3,279.5 704.3,264.1 		"/>
	</g>
</g>
<g id="Layer_2_1_">
</g>
<g id="Layer_3">
</g>
</svg>
