<?xml version="1.0" encoding="utf-8"?>
<!-- Generator: Adobe Illustrator 19.2.0, SVG Export Plug-In . SVG Version: 6.00 Build 0)  -->
<svg version="1.1" id="Layer_1" xmlns="http://www.w3.org/2000/svg" xmlns:xlink="http://www.w3.org/1999/xlink" x="0px" y="0px"
	 width="1200px" height="1224px" viewBox="0 0 1200 1224" enable-background="new 0 0 1200 1224" xml:space="preserve">
<g>
	<path fill="#AFB8E3" d="M564.428,537.013c0,0-169.593-129.186-156.759-167.067c11.734-34.636,194.059,7.012,194.059,7.012
		l21.348-58.559l-33.945-143.615l-85.492-95.26L377.914,25.463l-33.945,17.24c0,0,6.286,329.129-247.217,451.331
		c-12.284,34.835,12.113,40.611,12.113,40.611l109.38,82.978l152.126,6.286l96.807-35.203L564.428,537.013z"/>
	<path fill="#939FD5" d="M193.745,72.835c0,0,73.532,165.101,52.159,241.793C212.111,435.886,74.69,506.337,74.69,506.337
		L22.116,387.548l23.023-107.573c0,0,147.013,35.051,148.904,12.022c1.551-18.879-140.287-51.547-140.287-51.547l18.496-109.089
		L193.745,72.835z"/>
	<g>
		<text transform="matrix(1 0 0 1 653.9609 198.4458)" fill="#37246D" font-family="'Roboto-Medium'" font-size="70px">a</text>
	</g>
	<g>
		<text transform="matrix(1 0 0 1 51.5312 70.2105)" fill="#37246D" font-family="'Roboto-Medium'" font-size="70px">b</text>
	</g>
	<g>
		<text transform="matrix(1 0 0 1 139.5029 696.1407)" fill="#37246D" font-family="'Roboto-Medium'" font-size="70px">c</text>
	</g>
	<rect x="211" y="875" fill="#E0E0E0" width="115" height="115"/>
	<rect x="326" y="991" fill="#E0E0E0" width="115" height="115"/>
	<rect x="442" y="1107" fill="#E0E0E0" width="115" height="115"/>
	<line fill="none" stroke="#CCCCCC" stroke-width="4" stroke-miterlimit="10" x1="211" y1="1222" x2="211" y2="760"/>
	<line fill="none" stroke="#CCCCCC" stroke-width="4" stroke-miterlimit="10" x1="327" y1="1222" x2="327" y2="760"/>
	<line fill="none" stroke="#CCCCCC" stroke-width="4" stroke-miterlimit="10" x1="557" y1="991" x2="95" y2="991"/>
	<line fill="none" stroke="#CCCCCC" stroke-width="4" stroke-miterlimit="10" x1="557" y1="1106" x2="95" y2="1106"/>
	<line fill="none" stroke="#CCCCCC" stroke-width="4" stroke-miterlimit="10" x1="442" y1="1222" x2="442" y2="760"/>
	<line fill="none" stroke="#CCCCCC" stroke-width="4" stroke-miterlimit="10" x1="557" y1="875" x2="95" y2="875"/>
	<polygon fill="none" stroke="#CCCCCC" stroke-width="4" stroke-miterlimit="10" points="558.301,1220 96,1220 96,759 558,759 	"/>
	<text transform="matrix(1 0 0 1 244.7559 842.6075)" fill="#464A90" font-family="'Roboto-Medium'" font-size="65px">a</text>
	<text transform="matrix(1 0 0 1 133.9121 951.5792)" fill="#464A90" font-family="'Roboto-Medium'" font-size="65px">a</text>
	<text transform="matrix(1 0 0 1 133.9121 1071.7666)" fill="#464A90" font-family="'Roboto-Medium'" font-size="65px">b</text>
	<text transform="matrix(1 0 0 1 133.9121 1187.1465)" fill="#464A90" font-family="'Roboto-Medium'" font-size="65px">c</text>
	<text transform="matrix(1 0 0 1 364.9434 842.6075)" fill="#464A90" font-family="'Roboto-Medium'" font-size="65px">b</text>
	<text transform="matrix(1 0 0 1 357.332 951.5792)" fill="#464A90" font-family="'Roboto-Medium'" font-size="48px">10</text>
	<text transform="matrix(1 0 0 1 471.1104 951.5792)" fill="#464A90" font-family="'Roboto-Medium'" font-size="48px">40</text>
	<text transform="matrix(1 0 0 1 471.1104 1064.5566)" fill="#464A90" font-family="'Roboto-Medium'" font-size="48px">20</text>
	<text transform="matrix(1 0 0 1 239.9463 1064.5566)" fill="#464A90" font-family="'Roboto-Medium'" font-size="48px">10</text>
	<text transform="matrix(1 0 0 1 244.7539 1182.3345)" fill="#464A90" font-family="'Roboto-Medium'" font-size="48px">40</text>
	<text transform="matrix(1 0 0 1 357.3301 1182.3345)" fill="#464A90" font-family="'Roboto-Medium'" font-size="48px">20</text>
	<text transform="matrix(1 0 0 1 480.3232 842.6075)" fill="#464A90" font-family="'Roboto-Medium'" font-size="65px">c</text>
	<text transform="matrix(1 0 0 1 794.2148 833.5015)" fill="#464A90" font-family="'Roboto-Medium'" font-size="65px">a</text>
	<text transform="matrix(1 0 0 1 945.6514 791.1822)" fill="#464A90" font-family="'Roboto-Medium'" font-size="48px">10</text>
	<text transform="matrix(1 0 0 1 1149.9707 833.5015)" fill="#464A90" font-family="'Roboto-Medium'" font-size="65px">b</text>
	<g>
		<g>
			<line fill="none" stroke="#AFAFAF" stroke-width="8" stroke-miterlimit="10" x1="1091.147" y1="810" x2="871" y2="810"/>
			<g>
				<polygon fill="#AFAFAF" points="1085.078,789.257 1121,810 1085.078,830.743 				"/>
			</g>
		</g>
	</g>
	<text transform="matrix(1 0 0 1 794.2148 963.3052)" fill="#464A90" font-family="'Roboto-Medium'" font-size="65px">b</text>
	<text transform="matrix(1 0 0 1 945.6514 920.6861)" fill="#464A90" font-family="'Roboto-Medium'" font-size="48px">20</text>
	<text transform="matrix(1 0 0 1 1149.9707 963.3052)" fill="#464A90" font-family="'Roboto-Medium'" font-size="65px">c</text>
	<g>
		<g>
			<line fill="none" stroke="#AFAFAF" stroke-width="8" stroke-miterlimit="10" x1="1091.147" y1="940" x2="871" y2="940"/>
			<g>
				<polygon fill="#AFAFAF" points="1085.078,919.257 1121,940 1085.078,960.743 				"/>
			</g>
		</g>
	</g>
	<text transform="matrix(1 0 0 1 794.2148 1093.1055)" fill="#464A90" font-family="'Roboto-Medium'" font-size="65px">c</text>
	<text transform="matrix(1 0 0 1 945.6514 1050.4902)" fill="#464A90" font-family="'Roboto-Medium'" font-size="48px">40</text>
	<text transform="matrix(1 0 0 1 1149.9707 1093.1055)" fill="#464A90" font-family="'Roboto-Medium'" font-size="65px">a</text>
	<g>
		<g>
			<line fill="none" stroke="#AFAFAF" stroke-width="8" stroke-miterlimit="10" x1="1091.147" y1="1070" x2="871" y2="1070"/>
			<g>
				<polygon fill="#AFAFAF" points="1085.078,1049.257 1121,1070 1085.078,1090.743 				"/>
			</g>
		</g>
	</g>
	<g>
		<text transform="matrix(1 0 0 1 762.5684 385.3091)" fill="#7F7F7F" font-family="'Roboto-Regular'" font-size="65px">arc connection</text>
	</g>
	<path fill="#464A90" d="M323.853,605.149c-155.289,0-281.622-126.335-281.622-281.622c0-14.824,1.169-29.379,3.387-43.591
		l-39.241-9.059C3.544,288.02,2,305.593,2,323.527C2,500.997,146.381,645.38,323.853,645.38
		c95.615,0,181.574-41.954,240.575-108.367l-31.72-24.783C481.137,569.255,406.613,605.149,323.853,605.149z"/>
	<path fill="#464A90" d="M605.475,323.527c0,58.098-17.691,112.138-47.958,157.031l31.729,24.789
		c35.58-51.771,56.461-114.393,56.461-181.821c0-170.708-133.608-310.734-301.737-321.161v40.337
		C489.895,53.062,605.475,175.011,605.475,323.527z"/>
	<path fill="#464A90" d="M303.737,42.703V2.366c-136.7,8.478-250.517,102.635-288.311,229.311l39.242,9.06
		C88.215,131.886,186.112,51.053,303.737,42.703z"/>
	<path opacity="0.75" fill="#464A90" d="M589.734,505.326C316.938,300.17,179.924,49.351,179.924,49.351L303.586,2.179
		c-0.201,3.922,0,19.311,0,23.183c0,180.841,128.075,318.182,308.829,353.837C614.074,381.312,589.734,505.326,589.734,505.326z"/>
	<line fill="none" stroke="#AFAFAF" stroke-width="8" stroke-miterlimit="10" x1="1195" y1="414" x2="578" y2="414"/>
	<circle fill="#AFAFAF" cx="574.489" cy="414.158" r="12.019"/>
	<g>
		<text transform="matrix(1 0 0 1 778.9922 543.5025)" fill="#7F7F7F" font-family="'Roboto-Regular'" font-size="65px">node segment</text>
	</g>
	<line fill="none" stroke="#AFAFAF" stroke-width="8" stroke-miterlimit="10" x1="1194" y1="569" x2="503" y2="569"/>
	<circle fill="#AFAFAF" cx="503.674" cy="568.797" r="12.019"/>
</g>
</svg>
