<?xml version="1.0" encoding="utf-8"?>
<!-- Generator: Adobe Illustrator 19.2.0, SVG Export Plug-In . SVG Version: 6.00 Build 0)  -->
<svg version="1.1" id="Layer_1" xmlns="http://www.w3.org/2000/svg" xmlns:xlink="http://www.w3.org/1999/xlink" x="0px" y="0px"
	 width="1268px" height="558px" viewBox="0 0 1268 558" enable-background="new 0 0 1268 558" xml:space="preserve">
<g opacity="0.6">
	<path fill="#A3B1D6" d="M384.185,240.311c46.152,7.156,140.944,15.303,194.614-24.833c60.26-45.064,69.038-125.956,69.038-184.81
		c0-26.909,106.7,14.175,106.7,14.175l29.648,38.79c0,0-103.406,117.908-175.397,176.375
		c-115.932,94.155-197.724,136.957-197.724,136.957l-21.654-31.29l-25.936-91.272C363.474,274.403,374.33,238.783,384.185,240.311z"
		/>
</g>
<g id="Layer_2">
</g>
<g display="none">
	
		<line display="inline" fill="none" stroke="#1AFF1A" stroke-miterlimit="10" x1="453.596" y1="685.667" x2="346.786" y2="747.333"/>
	
		<line display="inline" fill="none" stroke="#1AFF1A" stroke-miterlimit="10" x1="453.596" y1="685.667" x2="560.406" y2="747.333"/>
	
		<line display="inline" fill="none" stroke="#1AFF1A" stroke-miterlimit="10" x1="453.596" y1="685.667" x2="453.596" y2="562.333"/>
</g>
<g>
	<path fill="#F3D0AA" d="M430.337,427.146c101.437-77.715,208.999-41.328,201.028,100.538c-1.589,28.288,33.901,10.173,32.805,2.03
		c-19.935-148.094-110.228-191.681-253.353-132.749C410.781,419.275,422.73,432.974,430.337,427.146z"/>
</g>
<g>
	<path fill="#B6CADE" d="M814.626,445.59c-114.811-100.257-74.925-151.858,60.993-119.539
		c14.471-24.657-1.124-115.225-1.124-115.225C687.361,265.76,656.971,358.198,719.622,511.027
		c6.13,14.953,31.316,1.492,31.316,1.492l49.183-24.591C800.121,487.928,823.054,452.949,814.626,445.59z"/>
</g>
<g opacity="0.8">
	<path fill="#F3D0AA" d="M719.622,511.027c-61.851-145.382-71.785-267.653,103.781-391.167c-6.891-28.968-9.897-33.767-9.897-33.767
		s-22.441-9.635-26.894-5.211C642.69,223.85,637.778,340.095,663.369,527.188C664.108,532.587,725.103,523.911,719.622,511.027z"/>
</g>
<g opacity="0.49">
	<g>
		<path fill="#464A90" d="M865.02,439.488C623.95,258.191,502.871,36.542,502.871,36.542l109.28-41.686
			c-0.178,3.466,0,17.065,0,20.487c0,159.81,113.18,281.178,272.912,312.686C886.53,329.897,865.02,439.488,865.02,439.488z"/>
	</g>
</g>
<g>
	<path fill="#C8D0E6" d="M381.192,278.832c0-13.1,1.033-25.962,2.993-38.521l-34.677-8.006c-2.504,15.15-3.869,30.678-3.869,46.527
		c0,64.326,21.477,123.723,57.62,171.425l27.077-23.111C399.477,385.697,381.192,334.361,381.192,278.832z"/>
</g>
<g>
	<path fill="#F3D0AA" d="M631.365,527.684l-2.622,35.554c0.44,0.002,0.878,0.017,1.318,0.017
		c84.495,0,160.457-37.075,212.597-95.764l-28.031-21.901C769.324,495.682,703.977,527.308,631.365,527.684z"/>
</g>
<g opacity="0.6">
	<path fill="#6C5F82" d="M454.033,454.591l-27.088,23.12c43.401,44.317,101.133,74.539,165.623,83.069l2.62-35.533
		C540.434,517.534,491.34,491.955,454.033,454.591z"/>
</g>
<g>
	<path fill="#B6CADE" d="M890.148,163.8l-31.638,16.348c13.132,30.268,20.42,63.638,20.42,98.684
		c0,51.341-15.633,99.097-42.381,138.769l28.039,21.906c31.442-45.75,49.895-101.089,49.895-160.675
		C914.483,237.908,905.778,198.988,890.148,163.8z"/>
</g>
<g>
	<path fill="#D9CCC1" d="M647.837-4.978v35.646c81.832,5.809,152.851,51.337,193.838,117.366l31.671-16.365
		C826.322,54.252,743.393,0.948,647.837-4.978z"/>
</g>
<g opacity="0.46">
	<g>
		<path fill="#6C5F82" d="M515.301,57.65c0,0,51.001,91.455,73.925,211.881c12.214,64.164,16.582,178.271,5.961,255.715
			c-1.809,13.191-52.874-6.385-52.874-6.385s60.252-112.25,27.288-251.843c-18.278-77.402-56.621-137.46-97.347-180.423
			C463.436,77.291,515.301,57.65,515.301,57.65z"/>
	</g>
</g>
<g opacity="0.56">
	<path fill="#A8A8A8" d="M392.182,205.67c145.323,33.977,199.371,112.935,61.85,248.921c-12.442,12.303,48.839,50.131,48.839,50.131
		s38.862,18.604,41.798,8.421c17.724-61.458,38.104-154.132,13.695-232.689c-20.464-65.862-69.008-123.868-112.387-168.869
		C400.474,64.378,365.799,199.502,392.182,205.67z"/>
</g>
<g opacity="0.49">
	<g>
		<path fill="#B29780" d="M841.787,147.976c-31.311,19.218-60.101,39.911-55.175,49.254c4.553,8.634,49.937-7.243,72.321-17.301
			c4.343-1.951,10.266,16.04,10.266,16.04l1.277,16.061c0,0-80.323,21.758-97.546-6.359c-18.738-30.591,49.185-84.902,49.185-84.902
			l12.086,8.677C834.202,129.446,846.053,145.358,841.787,147.976z"/>
	</g>
</g>
<g>
	<path fill="#A4A6C9" d="M612.282-4.981V30.67c-52.926,3.755-101.341,24.124-140.027,55.924l-24.711-25.671
		C492.707,23.041,549.795-1.107,612.282-4.981z"/>
</g>
<g>
	<path fill="#C4C4C4" d="M421.296,85.947l24.675,25.635c-24.303,26.715-42.885,58.719-53.789,94.083l-34.68-8.001
		C370.074,155.511,392.171,117.436,421.296,85.947z"/>
</g>
<g>
	<path fill="#FFFFFF" d="M629.943,536.632c-68.89,0-133.657-26.827-182.37-75.54c-48.712-48.712-75.54-113.479-75.54-182.37
		s26.828-133.657,75.54-182.37c48.713-48.713,113.48-75.54,182.37-75.54S763.6,47.64,812.312,96.353
		c48.713,48.712,75.541,113.479,75.541,182.37s-26.828,133.657-75.541,182.37C763.6,509.805,698.833,536.632,629.943,536.632z
		 M629.943,30.41c-136.921,0-248.313,111.393-248.313,248.313s111.392,248.313,248.313,248.313s248.313-111.393,248.313-248.313
		S766.864,30.41,629.943,30.41z"/>
</g>
<g>
	<path fill="#FFFFFF" d="M629.943,564.223c-76.26,0-147.956-29.697-201.88-83.621s-83.62-125.619-83.62-201.879
		s29.697-147.955,83.62-201.879s125.62-83.621,201.88-83.621S777.898,22.92,831.821,76.844
		c53.924,53.924,83.622,125.619,83.622,201.879s-29.698,147.955-83.622,201.879C777.898,534.525,706.203,564.223,629.943,564.223z
		 M629.943,4.019c-151.473,0-274.704,123.232-274.704,274.704S478.47,553.426,629.943,553.426s274.704-123.232,274.704-274.704
		S781.416,4.019,629.943,4.019z"/>
</g>
<g>
	<text transform="matrix(1 0 0 1 800.9995 53.3627)" fill="#B3B3B3" font-family="'RobotoCondensed-Regular'" font-size="26px">A</text>
</g>
<g>
	<text transform="matrix(1 0 0 1 915.291 308.8939)" fill="#B3B3B3" font-family="'RobotoCondensed-Regular'" font-size="26px">B</text>
</g>
<g>
	<text transform="matrix(1 0 0 1 775.04 542.965)" fill="#B3B3B3" font-family="'RobotoCondensed-Regular'" font-size="26px">C</text>
</g>
<g>
	<text transform="matrix(1 0 0 1 482.2188 547.7794)" fill="#B3B3B3" font-family="'RobotoCondensed-Regular'" font-size="26px">D</text>
</g>
<g>
	<text transform="matrix(1 0 0 1 338.5288 359.9662)" fill="#B3B3B3" font-family="'RobotoCondensed-Regular'" font-size="26px">E</text>
</g>
<g>
	<text transform="matrix(1 0 0 1 370.5504 136.3959)" fill="#B3B3B3" font-family="'RobotoCondensed-Regular'" font-size="26px">F</text>
</g>
<g>
	<text transform="matrix(1 0 0 1 488.5096 26.3627)" fill="#B3B3B3" font-family="'RobotoCondensed-Regular'" font-size="26px">G</text>
</g>
</svg>
