<svg xmlns="http://www.w3.org/2000/svg" width="633.13" height="341.02" viewBox="0 0 633.13 341.02"><title>two-way-histogram</title><rect x="0.83" y="317.57" width="322.4" height="22.62" fill="#aaa" stroke="#fff" stroke-miterlimit="10" stroke-width="1.65"/><rect x="58.07" y="294.94" width="265.38" height="22.62" fill="#aaa" stroke="#fff" stroke-miterlimit="10" stroke-width="1.65"/><rect x="92.06" y="272.32" width="231.38" height="22.62" fill="#aaa" stroke="#fff" stroke-miterlimit="10" stroke-width="1.65"/><rect x="76.05" y="249.7" width="247.17" height="22.62" fill="#aaa" stroke="#fff" stroke-miterlimit="10" stroke-width="1.65"/><rect x="38.55" y="227.07" width="284.68" height="22.62" fill="#aaa" stroke="#fff" stroke-miterlimit="10" stroke-width="1.65"/><rect x="74.96" y="204.45" width="248.27" height="22.62" fill="#aaa" stroke="#fff" stroke-miterlimit="10" stroke-width="1.65"/><rect x="107.63" y="181.82" width="215.59" height="22.62" fill="#aaa" stroke="#fff" stroke-miterlimit="10" stroke-width="1.65"/><rect x="139.65" y="159.2" width="183.57" height="22.62" fill="#aaa" stroke="#fff" stroke-miterlimit="10" stroke-width="1.65"/><rect x="151.94" y="136.57" width="171.29" height="22.62" fill="#aaa" stroke="#fff" stroke-miterlimit="10" stroke-width="1.65"/><rect x="179.35" y="113.95" width="143.87" height="22.62" fill="#aaa" stroke="#fff" stroke-miterlimit="10" stroke-width="1.65"/><rect x="192.29" y="91.32" width="131.15" height="22.62" fill="#aaa" stroke="#fff" stroke-miterlimit="10" stroke-width="1.65"/><rect x="204.79" y="68.7" width="118.43" height="22.62" fill="#aaa" stroke="#fff" stroke-miterlimit="10" stroke-width="1.65"/><rect x="231.11" y="46.07" width="92.11" height="22.62" fill="#aaa" stroke="#fff" stroke-miterlimit="10" stroke-width="1.65"/><rect x="256.77" y="23.45" width="66.45" height="22.62" fill="#aaa" stroke="#fff" stroke-miterlimit="10" stroke-width="1.65"/><rect x="267.08" y="0.83" width="56.37" height="22.62" fill="#aaa" stroke="#fff" stroke-miterlimit="10" stroke-width="1.65"/><rect x="323.3" y="317.57" width="299.59" height="22.62" fill="#666" stroke="#fff" stroke-miterlimit="10" stroke-width="1.65"/><rect x="323.43" y="294.94" width="262.09" height="22.62" fill="#666" stroke="#fff" stroke-miterlimit="10" stroke-width="1.65"/><rect x="323.37" y="272.32" width="236.86" height="22.62" fill="#666" stroke="#fff" stroke-miterlimit="10" stroke-width="1.65"/><rect x="323.49" y="249.7" width="268.23" height="22.62" fill="#666" stroke="#fff" stroke-miterlimit="10" stroke-width="1.65"/><rect x="323.28" y="227.07" width="309.02" height="22.62" fill="#666" stroke="#fff" stroke-miterlimit="10" stroke-width="1.65"/><rect x="323.42" y="204.45" width="287.75" height="22.62" fill="#666" stroke="#fff" stroke-miterlimit="10" stroke-width="1.65"/><rect x="323.3" y="181.82" width="249.15" height="22.62" fill="#666" stroke="#fff" stroke-miterlimit="10" stroke-width="1.65"/><rect x="323.48" y="159.2" width="208.79" height="22.62" fill="#666" stroke="#fff" stroke-miterlimit="10" stroke-width="1.65"/><rect x="323.42" y="136.57" width="193.44" height="22.62" fill="#666" stroke="#fff" stroke-miterlimit="10" stroke-width="1.65"/><rect x="323.35" y="113.95" width="159.23" height="22.62" fill="#666" stroke="#fff" stroke-miterlimit="10" stroke-width="1.65"/><rect x="323.37" y="91.32" width="143.22" height="22.62" fill="#666" stroke="#fff" stroke-miterlimit="10" stroke-width="1.65"/><rect x="323.44" y="68.7" width="127.42" height="22.62" fill="#666" stroke="#fff" stroke-miterlimit="10" stroke-width="1.65"/><rect x="323.48" y="46.07" width="94.31" height="22.62" fill="#666" stroke="#fff" stroke-miterlimit="10" stroke-width="1.65"/><rect x="323.42" y="23.45" width="62.29" height="22.62" fill="#666" stroke="#fff" stroke-miterlimit="10" stroke-width="1.65"/><rect x="323.43" y="0.83" width="49.57" height="22.62" fill="#666" stroke="#fff" stroke-miterlimit="10" stroke-width="1.65"/></svg>