<svg enable-background="new 0 0 1280 418" viewBox="0 0 1280 418" xmlns="http://www.w3.org/2000/svg"><g stroke="#fff" stroke-miterlimit="10"><g fill="#a39cb9" stroke-width="1.6897"><path d="m10.7 371.1h306.8v24.9h-306.8z"/><path d="m65.2 346.1h252.5v24.9h-252.5z"/><path d="m97.6 321.2h220.2v24.9h-220.2z"/><path d="m82.3 296.3h235.2v24.9h-235.2z"/><path d="m46.6 271.3h270.9v24.9h-270.9z"/><path d="m81.3 246.4h236.3v24.9h-236.3z"/><path d="m112.4 221.5h205.2v24.9h-205.2z"/><path d="m142.9 196.5h174.7v24.9h-174.7z"/><path d="m154.5 171.6h163v24.9h-163z"/><path d="m180.6 146.7h136.9v24.9h-136.9z"/><path d="m192.9 121.7h124.8v24.9h-124.8z"/><path d="m204.8 96.8h112.7v24.9h-112.7z"/><path d="m229.9 71.9h87.7v24.9h-87.7z"/><path d="m254.3 46.9h63.2v24.9h-63.2z"/><path d="m264.1 22h53.6v24.9h-53.6z"/></g><path d="m317.6 371.1h285.1v24.9h-285.1z" fill="#c2becc"/><path d="m317.7 346.1h249.4v24.9h-249.4z" fill="#c2becc"/><path d="m317.7 321.2h225.4v24.9h-225.4z" fill="#c2becc"/><path d="m317.8 296.3h255.3v24.9h-255.3z" fill="#c2becc"/><path d="m317.6 271.3h294.1v24.9h-294.1z" fill="#c2becc"/><path d="m317.7 246.4h273.8v24.9h-273.8z" fill="#c2becc"/><path d="m317.6 221.5h237.1v24.9h-237.1z" fill="#c2becc"/><path d="m317.8 196.5h198.7v24.9h-198.7z" fill="#c2becc"/><path d="m317.7 171.6h184.1v24.9h-184.1z" fill="#c2becc"/><path d="m317.7 146.7h151.5v24.9h-151.5z" fill="#c2becc"/><path d="m317.7 121.7h136.3v24.9h-136.3z" fill="#c2becc"/><path d="m317.8 96.8h121.3v24.9h-121.3z" fill="#c2becc"/><path d="m317.8 71.9h89.8v24.9h-89.8z" fill="#c2becc"/><path d="m317.7 46.9h59.3v24.9h-59.3z" fill="#c2becc"/><path d="m317.7 22h47.2v24.9h-47.2z" fill="#c2becc"/><path d="m663.9 371.1h306.8v24.9h-306.8z" fill="#a39cb9" stroke-width="1.6897"/><path d="m718.3 346.1h252.5v24.9h-252.5z" fill="#a39cb9" stroke-width="1.6897"/><path d="m750.7 321.2h220.2v24.9h-220.2z" fill="#a39cb9" stroke-width="1.6897"/><path d="m735.4 296.3h235.2v24.9h-235.2z" fill="#a39cb9" stroke-width="1.6897"/><path d="m699.7 271.3h270.9v24.9h-270.9z" fill="#a39cb9" stroke-width="1.6897"/><path d="m734.4 246.4h236.3v24.9h-236.3z" fill="#a39cb9" stroke-width="1.6897"/><path d="m765.5 221.5h205.2v24.9h-205.2z" fill="#a39cb9" stroke-width="1.6897"/><path d="m796 196.5h174.7v24.9h-174.7z" fill="#a39cb9" stroke-width="1.6897"/><path d="m807.7 171.6h163v24.9h-163z" fill="#a39cb9" stroke-width="1.6897"/><path d="m833.7 146.7h136.9v24.9h-136.9z" fill="#a39cb9" stroke-width="1.6897"/><path d="m846.1 121.7h124.8v24.9h-124.8z" fill="#a39cb9" stroke-width="1.6897"/><path d="m857.9 96.8h112.7v24.9h-112.7z" fill="#a39cb9" stroke-width="1.6897"/><path d="m883 71.9h87.7v24.9h-87.7z" fill="#a39cb9" stroke-width="1.6897"/><path d="m907.4 46.9h63.2v24.9h-63.2z" fill="#a39cb9" stroke-width="1.6897"/><path d="m917.2 22h53.6v24.9h-53.6z" fill="#a39cb9" stroke-width="1.6897"/><path d="m970.7 371.1h285.1v24.9h-285.1z" fill="#c2becc"/><path d="m970.9 346.1h249.4v24.9h-249.4z" fill="#c2becc"/><path d="m970.8 321.2h225.4v24.9h-225.4z" fill="#c2becc"/><path d="m970.9 296.3h255.3v24.9h-255.3z" fill="#c2becc"/><path d="m970.7 271.3h294.1v24.9h-294.1z" fill="#c2becc"/><path d="m970.8 246.4h273.8v24.9h-273.8z" fill="#c2becc"/><path d="m970.7 221.5h237.1v24.9h-237.1z" fill="#c2becc"/><path d="m970.9 196.5h198.7v24.9h-198.7z" fill="#c2becc"/><path d="m970.8 171.6h184.1v24.9h-184.1z" fill="#c2becc"/><path d="m970.8 146.7h151.5v24.9h-151.5z" fill="#c2becc"/><path d="m970.8 121.7h136.3v24.9h-136.3z" fill="#c2becc"/><path d="m970.9 96.8h121.3v24.9h-121.3z" fill="#c2becc"/><path d="m970.9 71.9h89.8v24.9h-89.8z" fill="#c2becc"/><path d="m970.8 46.9h59.3v24.9h-59.3z" fill="#c2becc"/><path d="m970.9 22h47.2v24.9h-47.2z" fill="#c2becc"/></g></svg>