<?xml version="1.0" encoding="utf-8"?>
<!-- Generator: Adobe Illustrator 24.0.1, SVG Export Plug-In . SVG Version: 6.00 Build 0)  -->
<svg version="1.1" id="Layer_1" xmlns="http://www.w3.org/2000/svg" xmlns:xlink="http://www.w3.org/1999/xlink" x="0px" y="0px"
	 viewBox="0 0 1200 1081.7" style="enable-background:new 0 0 1200 1081.7;" xml:space="preserve">
<style type="text/css">
	.st0{fill:#F6F5F7;}
	.st1{fill:#D1D1D1;}
	.st2{fill:#D8D8D8;}
	.st3{fill:#AAAAAA;}
	.st4{font-family:'Roboto-Regular';}
	.st5{font-size:32.5564px;}
	.st6{opacity:0.76;fill:#382460;enable-background:new    ;}
	.st7{fill:none;stroke:#584F6D;stroke-width:3;stroke-miterlimit:10;}
	.st8{fill:#514361;stroke:#514361;stroke-width:3;stroke-miterlimit:10;}
	.st9{fill:#514361;}
	.st10{font-family:'RobotoMono-Regular';}
	.st11{font-size:40px;}
	.st12{font-family:'RobotoMono-Bold';}
	.st13{font-size:40.6216px;}
	.st14{font-family:'Roboto-Italic';}
	.st15{font-size:28px;}
	.st16{fill:none;stroke:#AFAFAF;stroke-width:4.5;stroke-linecap:round;stroke-miterlimit:10;stroke-dasharray:0,10.7694;}
</style>
<path class="st0" d="M627.9,46.8L146.8,880H1109L627.9,46.8z"/>
<path class="st1" d="M1012,713.5H244.4c-0.4,0-0.9-0.5-0.9-0.9s0.4-0.9,0.9-0.9H1012c0.4,0,0.9,0.5,0.9,0.9S1012.7,713.5,1012,713.5
	z"/>
<path class="st1" d="M915.6,546.7H338.3c-0.4,0-0.9-0.5-0.9-0.9s0.4-0.9,0.9-0.9h577.3c0.4,0,0.9,0.5,0.9,0.9
	C916.5,546.5,916,546.7,915.6,546.7z"/>
<path class="st1" d="M819.4,380.2h-384c-0.4,0-0.9-0.5-0.9-0.9s0.4-0.9,0.9-0.9h383.9c0.4,0,0.9,0.5,0.9,0.9
	S819.8,380.2,819.4,380.2L819.4,380.2z"/>
<path class="st1" d="M723.3,213.5h-192c-0.4,0-0.8-0.5-0.8-0.9c0-0.5,0.4-0.9,0.8-0.9h192c0.4,0,0.8,0.5,0.8,0.9
	S723.9,213.5,723.3,213.5z"/>
<path class="st1" d="M340,880.5c-0.2,0-0.2,0-0.5-0.2c-0.5-0.2-0.5-0.7-0.2-1.1l383.3-667.1c0.2-0.5,0.7-0.5,1.1-0.2
	s0.5,0.7,0.2,1.1L340.7,880.1C340.7,880.3,340.2,880.5,340,880.5L340,880.5z"/>
<path class="st1" d="M532.5,880.3c-0.2,0-0.2,0-0.4-0.2c-0.4-0.2-0.4-0.7-0.2-1.1L819,378.7c0.2-0.4,0.7-0.4,1.1-0.2
	s0.4,0.7,0.2,1.1L533.4,879.8C533.1,880.3,532.9,880.3,532.5,880.3L532.5,880.3z"/>
<path class="st1" d="M724.9,880.2c-0.2,0-0.2,0-0.4-0.2c-0.4-0.2-0.4-0.7-0.2-1.1l190.9-333.6c0.2-0.4,0.7-0.4,1.1-0.2
	s0.4,0.7,0.2,1.1L725.6,879.8C725.6,880.2,725.4,880.2,724.9,880.2L724.9,880.2z"/>
<path class="st1" d="M917.6,879.8c-0.2,0-0.2,0-0.4,0c-0.4-0.2-0.4-0.6-0.2-1l94.5-166.5c0.2-0.4,0.6-0.4,1-0.2s0.4,0.6,0.2,1
	l-94.5,166.5C918.2,879.8,917.8,879.8,917.6,879.8z"/>
<path class="st2" d="M915.8,880.2c-0.2,0-0.7-0.2-0.7-0.4l-383.4-664c-0.2-0.4,0-0.9,0.2-1.1c0.4-0.2,0.9,0,1.1,0.2l383.4,664
	c0.2,0.4,0,0.9-0.2,1.1S916,880.2,915.8,880.2L915.8,880.2z"/>
<path class="st2" d="M723.3,880.2c-0.2,0-0.7-0.2-0.7-0.4L434.9,381.2c-0.2-0.4,0-0.9,0.2-1.1c0.4-0.2,0.9,0,1.1,0.2L724,878.9
	c0.2,0.4,0,0.9-0.2,1.1C723.7,880.2,723.5,880.2,723.3,880.2z"/>
<path class="st2" d="M531,880.2c-0.2,0-0.6-0.2-0.6-0.4l-192-332.4c-0.2-0.4,0-0.9,0.2-1.1c0.4-0.2,0.9,0,1.1,0.2l191.9,332.4
	c0.2,0.4,0,0.9-0.2,1.1S531,880.2,531,880.2z"/>
<path class="st2" d="M338.5,880.2c-0.2,0-0.6-0.2-0.6-0.4l-95.6-165.5c-0.2-0.4,0-0.8,0.2-1c0.4-0.2,0.8,0,1,0.2L339.1,879
	c0.2,0.4,0,0.8-0.2,1S338.7,880.2,338.5,880.2L338.5,880.2z"/>
<text transform="matrix(1 0 0 1 555.8129 62.7227)" class="st3 st4 st5">0</text>
<text transform="matrix(1 0 0 1 1125.3119 869.6396)" class="st3 st4 st5">0</text>
<circle class="st6" cx="724.6" cy="546.7" r="11.1"/>
<path class="st7" d="M627.9,46.8L146.8,880H1109L627.9,46.8z"/>
<text transform="matrix(1 0 0 1 138.5941 936.958)" class="st3 st4 st5">0</text>
<text transform="matrix(1 0 0 1 321.7338 936.958)" class="st3 st4 st5">20</text>
<text transform="matrix(1 0 0 1 514.0135 936.958)" class="st3 st4 st5">40</text>
<text transform="matrix(1 0 0 1 706.2933 936.958)" class="st3 st4 st5">60</text>
<text transform="matrix(1 0 0 1 898.5736 936.958)" class="st3 st4 st5">80</text>
<text transform="matrix(1 0 0 1 1081.7133 936.958)" class="st3 st4 st5">100</text>
<text transform="matrix(1 0 0 1 64.7963 869.6387)" class="st3 st4 st5">100</text>
<text transform="matrix(1 0 0 1 665.7914 62.7222)" class="st3 st4 st5">100</text>
<path class="st8" d="M760.6,1026.9h-326"/>
<path class="st8" d="M757.3,1015.7l19.5,11.2l-19.5,11.3V1015.7z"/>
<text transform="matrix(1 0 0 1 434.5819 1007.8193)" class="st9 st10 st11">value axis </text>
<text transform="matrix(1 0 0 1 698.5819 1007.8193)" class="st9 st12 st11">A</text>
<path class="st8" d="M221.3,604.3l163.2-283.2"/>
<path class="st8" d="M232.6,607l-19.4,11.3v-22.5L232.6,607z"/>
<text transform="matrix(0.4993 -0.8664 0.8664 0.4993 222.8354 563.4252)" class="st9 st10 st13">value axis </text>
<text transform="matrix(0.4993 -0.8664 0.8664 0.4993 356.6978 331.143)" class="st9 st12 st13">B</text>
<path class="st8" d="M887.5,324.7l164.2,284.9"/>
<path class="st8" d="M1059.8,601v22.5l-19.4-11.3L1059.8,601z"/>
<text transform="matrix(0.5021 0.8648 -0.8648 0.5021 900.8536 312.8007)" class="st9 st10 st11">value axis </text>
<text transform="matrix(0.5021 0.8648 -0.8648 0.5021 1033.4073 541.1078)" class="st9 st12 st11">C</text>
<text transform="matrix(1 0 0 1 137.3858 138.9991)" class="st9 st10 st11">a + b + c = K</text>
<text transform="matrix(1 0 0 1 195.852 192.0831)" class="st9 st14 st15">K is constant</text>
<path class="st16" d="M830.3,130.1L724.6,331v215.5"/>
<text transform="matrix(1 0 0 1 835.2686 114.4407)" class="st9 st10 st11">point (a,b,c)</text>
</svg>
