<svg enable-background="new 0 0 1200 1081.7" viewBox="0 0 1200 1081.7" xml:space="preserve" xmlns="http://www.w3.org/2000/svg"><path d="m627.9 46.8-481.1 833.2h962.2z" fill="#f6f5f7"/><text fill="#514361" font-family="'RobotoMono-Regular'" font-size="33.1717" transform="translate(1213.34 -325.4691)">legend</text><text fill="#939393" font-family="'RobotoMono-Regular'" font-size="33.1717" transform="translate(869.3623 -328.9211)">= 100 galons</text><text fill="#939393" font-family="'RobotoMono-Regular'" font-size="33.1717" transform="translate(512.3702 -365.9135)">category A</text><text fill="#939393" font-family="'RobotoMono-Regular'" font-size="33.1717" transform="translate(512.3702 -307.4504)">category B</text><text fill="#514361" font-family="'RobotoMono-Regular'" font-size="33.1717" transform="translate(661.5283 -468.4836)">unit</text><text fill="#514361" font-family="'RobotoMono-Regular'" font-size="33.1717" transform="translate(1294.7023 -788.8982)">ratio</text><path d="m1142.7-412h13" style="fill:none;stroke:#afafaf;stroke-width:3.3172;stroke-linecap:round;stroke-miterlimit:10;stroke-dasharray:0 8.6407"/><path d="m1160-403.9v138.5" style="fill:none;stroke:#afafaf;stroke-width:3.3172;stroke-linecap:round;stroke-miterlimit:10;stroke-dasharray:0 8.0842"/><path d="m1151.4-261.4h-13" style="fill:none;stroke:#afafaf;stroke-width:3.3172;stroke-linecap:round;stroke-miterlimit:10;stroke-dasharray:0 8.6407"/><path d="m1165.8-335.2h40" style="fill:none;stroke:#afafaf;stroke-width:3.3172;stroke-linecap:round;stroke-miterlimit:10;stroke-dasharray:0 8.2545"/><path d="m1235.4-905h13" style="fill:none;stroke:#afafaf;stroke-width:3.185;stroke-linecap:round;stroke-miterlimit:10;stroke-dasharray:0 8.2964"/><path d="m1252.7-897.5v320.7" style="fill:none;stroke:#afafaf;stroke-width:3.185;stroke-linecap:round;stroke-miterlimit:10;stroke-dasharray:0 7.8576"/><path d="m1244-573h-12.9" style="fill:none;stroke:#afafaf;stroke-width:3.185;stroke-linecap:round;stroke-miterlimit:10;stroke-dasharray:0 8.2964"/><path d="m1252.7-798.6h26.2" style="fill:none;stroke:#afafaf;stroke-width:3.3172;stroke-linecap:round;stroke-miterlimit:10;stroke-dasharray:0 8.2545"/><circle cx="466" cy="-375.6" fill="#909090" r="16.6"/><circle cx="466" cy="-315.7" fill="#bcbcbc" r="16.6"/><path d="m416.1-1032.2h142.5v75.2h-142.5z" fill="#cecece"/><path d="m629.9-1032.2h142.5v75.2h-142.5z" fill="#cecece"/><path d="m1058.3-1032.2h142.5v75.2h-142.5z" fill="#cecece"/><path d="m844.5-1032.2h142.5v75.2h-142.5z" fill="#cecece"/><path d="m416.1-896.8h142.5v75.2h-142.5z" fill="#cecece"/><g fill="#909090"><path d="m629.9-896.8h142.5v75.2h-142.5z"/><path d="m1058.3-896.8h142.5v75.2h-142.5z"/><path d="m844.5-896.8h142.5v75.2h-142.5z"/><path d="m416.1-761.4h142.5v75.2h-142.5z"/><path d="m629.9-761.4h142.5v75.2h-142.5z"/><path d="m1058.3-761.4h142.5v75.2h-142.5z"/><path d="m844.5-761.4h142.5v75.2h-142.5z"/><path d="m416.1-625.9h142.5v75.2h-142.5z"/><path d="m629.9-625.9h142.5v75.2h-142.5z"/><path d="m1058.3-625.9h142.5v75.2h-142.5z"/><path d="m844.5-625.9h142.5v75.2h-142.5z"/></g><text fill="#514361" font-family="'RobotoMono-Regular'" font-size="33.1717" transform="translate(228.1285 -828.9783)">total</text><text fill="#514361" font-family="'RobotoMono-Regular'" font-size="33.1717" transform="translate(287.8285 -789.1782)">of</text><text fill="#514361" font-family="'RobotoMono-Regular'" font-size="33.1717" transform="translate(248.0285 -749.3782)">100%</text><path d="m378.1-1040.1h-16.2" style="fill:none;stroke:#afafaf;stroke-width:4.3653;stroke-linecap:round;stroke-miterlimit:10;stroke-dasharray:0 11.3708"/><path d="m356.5-1028.9v481.1" style="fill:none;stroke:#afafaf;stroke-width:4.3653;stroke-linecap:round;stroke-miterlimit:10;stroke-dasharray:0 10.7694"/><path d="m367.3-542.1h16.2" style="fill:none;stroke:#afafaf;stroke-width:4.3653;stroke-linecap:round;stroke-miterlimit:10;stroke-dasharray:0 11.3708"/><path d="m776.8-376h74.6v74.6h-74.6z" fill="#909090"/><path d="m705.5-502.1v-40" style="fill:none;stroke:#afafaf;stroke-width:3.3172;stroke-linecap:round;stroke-miterlimit:10;stroke-dasharray:0 8.2545"/><path d="m1012 713.5h-767.6c-.4 0-.9-.5-.9-.9s.4-.9.9-.9h767.6c.4 0 .9.5.9.9s-.2.9-.9.9z" fill="#d1d1d1"/><path d="m915.6 546.7h-577.3c-.4 0-.9-.5-.9-.9s.4-.9.9-.9h577.3c.4 0 .9.5.9.9 0 .7-.5.9-.9.9z" fill="#d1d1d1"/><path d="m819.4 380.2h-384c-.4 0-.9-.5-.9-.9s.4-.9.9-.9h383.9c.4 0 .9.5.9.9s-.4.9-.8.9z" fill="#d1d1d1"/><path d="m723.3 213.5h-192c-.4 0-.8-.5-.8-.9 0-.5.4-.9.8-.9h192c.4 0 .8.5.8.9s-.2.9-.8.9z" fill="#d1d1d1"/><path d="m340 880.5c-.2 0-.2 0-.5-.2-.5-.2-.5-.7-.2-1.1l383.3-667.1c.2-.5.7-.5 1.1-.2s.5.7.2 1.1l-383.2 667.1c0 .2-.5.4-.7.4z" fill="#d1d1d1"/><path d="m532.5 880.3c-.2 0-.2 0-.4-.2-.4-.2-.4-.7-.2-1.1l287.1-500.3c.2-.4.7-.4 1.1-.2s.4.7.2 1.1l-286.9 500.2c-.3.5-.5.5-.9.5z" fill="#d1d1d1"/><path d="m724.9 880.2c-.2 0-.2 0-.4-.2-.4-.2-.4-.7-.2-1.1l190.9-333.6c.2-.4.7-.4 1.1-.2s.4.7.2 1.1l-190.9 333.6c0 .4-.2.4-.7.4z" fill="#d1d1d1"/><path d="m917.6 879.8c-.2 0-.2 0-.4 0-.4-.2-.4-.6-.2-1l94.5-166.5c.2-.4.6-.4 1-.2s.4.6.2 1l-94.5 166.5c0 .2-.4.2-.6.2z" fill="#d1d1d1"/><path d="m915.8 880.2c-.2 0-.7-.2-.7-.4l-383.4-664c-.2-.4 0-.9.2-1.1.4-.2.9 0 1.1.2l383.4 664c.2.4 0 .9-.2 1.1s-.2.2-.4.2z" fill="#d8d8d8"/><path d="m723.3 880.2c-.2 0-.7-.2-.7-.4l-287.7-498.6c-.2-.4 0-.9.2-1.1.4-.2.9 0 1.1.2l287.8 498.6c.2.4 0 .9-.2 1.1-.1.2-.3.2-.5.2z" fill="#d8d8d8"/><path d="m531 880.2c-.2 0-.6-.2-.6-.4l-192-332.4c-.2-.4 0-.9.2-1.1.4-.2.9 0 1.1.2l191.9 332.4c.2.4 0 .9-.2 1.1s-.4.2-.4.2z" fill="#d8d8d8"/><path d="m338.5 880.2c-.2 0-.6-.2-.6-.4l-95.6-165.5c-.2-.4 0-.8.2-1 .4-.2.8 0 1 .2l95.6 165.5c.2.4 0 .8-.2 1s-.2.2-.4.2z" fill="#d8d8d8"/><text fill="#aaa" font-family="'Roboto-Regular'" font-size="32.5564" transform="translate(555.8129 62.7227)">0</text><text fill="#aaa" font-family="'Roboto-Regular'" font-size="32.5564" transform="translate(1125.3119 869.6396)">0</text><circle cx="724.6" cy="546.7" fill="#382460" opacity=".76" r="11.1"/><path d="m627.9 46.8-481.1 833.2h962.2z" fill="none" stroke="#584f6d" stroke-miterlimit="10" stroke-width="3"/><text fill="#aaa" font-family="'Roboto-Regular'" font-size="32.5564" transform="translate(138.5941 936.958)">0</text><text fill="#aaa" font-family="'Roboto-Regular'" font-size="32.5564" transform="translate(321.7338 936.958)">20</text><text fill="#aaa" font-family="'Roboto-Regular'" font-size="32.5564" transform="translate(514.0135 936.958)">40</text><text fill="#aaa" font-family="'Roboto-Regular'" font-size="32.5564" transform="translate(706.2933 936.958)">60</text><text fill="#aaa" font-family="'Roboto-Regular'" font-size="32.5564" transform="translate(898.5736 936.958)">80</text><text fill="#aaa" font-family="'Roboto-Regular'" font-size="32.5564" transform="translate(1081.7133 936.958)">100</text><text fill="#aaa" font-family="'Roboto-Regular'" font-size="32.5564" transform="translate(64.7963 869.6387)">100</text><text fill="#aaa" font-family="'Roboto-Regular'" font-size="32.5564" transform="translate(665.7914 62.7222)">100</text><path d="m760.6 1026.9h-326" fill="#514361" stroke="#514361" stroke-miterlimit="10" stroke-width="3"/><path d="m757.3 1015.7 19.5 11.2-19.5 11.3z" fill="#514361" stroke="#514361" stroke-miterlimit="10" stroke-width="3"/><text transform="translate(434.5819 1007.8193)"><tspan fill="#514361" font-family="'RobotoMono-Regular'" font-size="40" x="0" y="0">value axis </tspan><tspan fill="#514361" font-family="'RobotoMono-Bold'" font-size="40" x="264" y="0">A</tspan></text><path d="m221.3 604.3 163.2-283.2" fill="#514361" stroke="#514361" stroke-miterlimit="10" stroke-width="3"/><path d="m232.6 607-19.4 11.3v-22.5z" fill="#514361" stroke="#514361" stroke-miterlimit="10" stroke-width="3"/><text transform="matrix(.4993 -.8664 .8664 .4993 222.8354 563.4249)"><tspan fill="#514361" font-family="'RobotoMono-Regular'" font-size="40.6216" x="0" y="0">value axis </tspan><tspan fill="#514361" font-family="'RobotoMono-Bold'" font-size="40.6216" x="268.1" y="0">B</tspan></text><path d="m887.5 324.7 164.2 284.9" fill="#514361" stroke="#514361" stroke-miterlimit="10" stroke-width="3"/><path d="m1059.8 601v22.5l-19.4-11.3z" fill="#514361" stroke="#514361" stroke-miterlimit="10" stroke-width="3"/><text transform="matrix(.5021 .8648 -.8648 .5021 900.8532 312.8007)"><tspan fill="#514361" font-family="'RobotoMono-Regular'" font-size="40" x="0" y="0">value axis </tspan><tspan fill="#514361" font-family="'RobotoMono-Bold'" font-size="40" x="264" y="0">C</tspan></text><text fill="#514361" font-family="'RobotoMono-Regular'" font-size="40" transform="translate(137.3858 138.9991)">a + b + c = K</text><text fill="#514361" font-family="'Roboto-Italic'" font-size="28" transform="translate(195.852 192.0831)">K is constant</text><path d="m830.3 130.1-105.7 200.9v215.5" style="fill:none;stroke:#afafaf;stroke-width:4.5;stroke-linecap:round;stroke-miterlimit:10;stroke-dasharray:0 10.7694"/><text fill="#514361" font-family="'RobotoMono-Regular'" font-size="40" transform="translate(835.2686 114.4407)">point (a,b,c)</text></svg>