<svg height="256" viewBox="0 0 256 256" width="256" xmlns="http://www.w3.org/2000/svg"><path d="m253 227.4c0 13.8-10.7 24.9-23.8 24.9a23.6 23.6 0 0 1 -20.9-12.9 23.7 23.7 0 0 1 -20.9 12.9c-13.2 0-23.8-11.1-23.8-24.9s10.6-24.8 23.8-24.8h.4c1.3-6.8 4.4-12.7 8.7-16.5-5.7-5.2-9.4-13.8-9.4-23.7s3-16.7 7.8-21.9c-4.8-5.3-7.8-13.2-7.8-22a35.3 35.3 0 0 1 3.5-15.5 35.3 35.3 0 0 1 -3.5-15.5c0-15.7 9.6-28.5 21.4-28.5s21.5 12.8 21.5 28.5a35.3 35.3 0 0 1 -3.5 15.5 35.3 35.3 0 0 1 3.5 15.5c0 8.8-3 16.7-7.8 22 4.8 5.2 7.8 13.1 7.8 21.9s-3.8 18.5-9.4 23.7c4.2 3.8 7.4 9.7 8.7 16.5 13.1.1 23.7 11.2 23.7 24.8zm-150.4-150.4c-6.9 3.7-14 7-20.9 10.6s-13.9 7.5-20.7 11.3l-10.6 5.7-10.3 5.2c-3.2 1.8-6.3 3.8-9.7 5.4a43.1 43.1 0 0 0 -4.7 2.6c-1.1.7-3 1.8-3.7 2.4-3.3 2.7-7.8-2.4-4.4-5.1.8-.7 1.6-1 2.4-1.6l2.8-1.8c1.6-1 3.4-1.9 5.2-2.8 3.7-1.8 7.1-4.1 10.9-6 7.9-3.9 15.7-8.2 23.5-12.5s14.1-7.7 21.3-11.4 13.9-6.9 20.7-10.5c3.5-1.9 7.2-3.5 10.8-5.2l10.6-5.5c7-3.6 14.1-6.8 21.2-10.3s13.9-7.2 21-10.6c3.6-1.7 7.2-3.2 10.6-5l10.1-5.5 20-10.8a18.7 18.7 0 0 0 -3.4.3l-2 .2a57.1 57.1 0 0 1 -11.6 2.5 8 8 0 0 1 -4.6-.7 3.7 3.7 0 0 1 -.4-5.8c1.9-1.7 5.5-1.4 7.9-1.8l4.7-.6 2.9-.2c2.6-.7 5.2-1.5 7.9-2.1s7.6-1.4 11.3-2.3a18.8 18.8 0 0 1 5.3-.6l1.5.2a3.6 3.6 0 0 1 2.3 0h.7a2.9 2.9 0 0 1 1.8.7 2.4 2.4 0 0 1 .8.6 3.5 3.5 0 0 1 -.3 4.8 5.7 5.7 0 0 1 -1.3.8 26.1 26.1 0 0 1 -2.7 2.2c-.6.5-1.5.9-2 1.3a20.9 20.9 0 0 0 -2.2 2q-4.7 4-9 8.4c-2.7 2.8-5.4 5.7-7.8 8.7a73.6 73.6 0 0 0 -5.4 8.3 3.8 3.8 0 0 1 -1.1 1.6l-.5.5c-2.8 2.6-7.1-1.3-5-4.4s4-6.6 6.4-9.7a106.9 106.9 0 0 1 7.1-8l-.9.4-22.9 12.5c-6.7 3.7-13.7 6.7-20.6 10.1s-14 7.2-21.1 10.6-14.1 6.9-21.1 10.5-13.9 6.8-20.8 10.4zm87.9-59.4c-.6.1-.5.3 0 0zm.1-5.6c-.7-.4-1 0-.2 0zm-134.7 205.4a20.2 20.2 0 0 0 -4.2-8.7 20.8 20.8 0 0 0 4.8-13.5 21 21 0 0 0 -6.3-15.2 21 21 0 0 0 6.3-15.2c0-10.9-7.7-19.7-17.3-19.7s-17.2 8.8-17.2 19.7a20.9 20.9 0 0 0 6.2 15.2 20.9 20.9 0 0 0 -6.2 15.2 21.3 21.3 0 0 0 4.7 13.5 20.2 20.2 0 0 0 -4.2 8.7h-.3c-10.6 0-19.2 7.7-19.2 17.2s8.6 17.2 19.2 17.2a19.7 19.7 0 0 0 16.8-8.9 19.7 19.7 0 0 0 16.8 8.9c10.6 0 19.2-7.7 19.2-17.2s-8.5-17.1-19.1-17.2zm80.3-5.7a25.1 25.1 0 0 0 -4.3-10.3 27.4 27.4 0 0 0 4.9-16c0-7.2-2.5-13.7-6.4-17.9 3.9-4.3 6.4-10.7 6.4-18a27.8 27.8 0 0 0 -4.5-15.5 27.5 27.5 0 0 0 4.5-15.5c0-12.8-7.9-23.3-17.6-23.3s-17.5 10.5-17.5 23.3a27.5 27.5 0 0 0 4.5 15.5 27.8 27.8 0 0 0 -4.5 15.5c0 7.3 2.5 13.7 6.4 18-3.9 4.2-6.4 10.7-6.4 17.9a28.1 28.1 0 0 0 4.8 16 26.4 26.4 0 0 0 -4.2 10.3h-.3c-10.8 0-19.5 9.1-19.5 20.3s8.7 20.3 19.5 20.3a19.4 19.4 0 0 0 17-10.5 19.5 19.5 0 0 0 17.1 10.5c10.7 0 19.5-9.1 19.5-20.3s-8.7-20.2-19.4-20.3z"/></svg>