<svg height="256" viewBox="0 0 256 256" width="256" xmlns="http://www.w3.org/2000/svg"><path d="m10.5 238.2 232.5.8v5l-237.5-.9v-235.1h5zm13.5-7.8h.2a4.7 4.7 0 0 0 3.5-1.5 4.5 4.5 0 0 0 1.5-3.5 5.1 5.1 0 0 0 -1.5-3.5 4.9 4.9 0 0 0 -3.5-1.5h-.2a5.1 5.1 0 0 0 -3.5 1.5 4.7 4.7 0 0 0 -1.5 3.5 5.1 5.1 0 0 0 1.5 3.5 4.9 4.9 0 0 0 3.5 1.5zm20.8-10.7a3.3 3.3 0 0 0 -.6 1.9 4.5 4.5 0 0 0 .1 2 4.8 4.8 0 0 0 1.8 2.6 5.2 5.2 0 0 0 3 1.1l1.3-.2a4.5 4.5 0 0 0 2.1-1.2l.7-.5a5.1 5.1 0 0 0 1.5-3.5.4.4 0 0 0 -.1-.3v-.2a5.1 5.1 0 0 0 -1.5-3.5 5.3 5.3 0 0 0 -3.5-1.5 5.5 5.5 0 0 0 -3.6 1.5 7.5 7.5 0 0 0 -1.2 1.8zm-20.6-8.3c6.4 0 6.5-10 0-10s-6.4 10 0 10zm12.3-10.1a5.3 5.3 0 0 1 -.2-3.3 1.4 1.4 0 0 1 .2-.6 5.5 5.5 0 0 1 2.3-2.9 4.2 4.2 0 0 1 2.7-.6 5.5 5.5 0 0 1 1.8.1 5 5 0 0 1 3.5 6.2 6.3 6.3 0 0 1 -2 2.8l.6-.5-1.4 1.1a5.9 5.9 0 0 1 -2.9.7 5.1 5.1 0 0 1 -4.6-3zm.3-4.5.3-.4-.2.3zm-7.2-20.2h-.1a4.1 4.1 0 0 0 -1.6.2 5 5 0 0 0 -3.5 6.1v.3a5 5 0 0 0 3.5 3.5 4.8 4.8 0 0 0 4.8-1.3l.3-.3a4.8 4.8 0 0 0 0-7 4.9 4.9 0 0 0 -3.4-1.5zm10-20.4a5 5 0 0 0 .5-3.8 5.3 5.3 0 0 0 -2.3-3 5.3 5.3 0 0 0 -3.9-.5 5.1 5.1 0 0 0 -1.7.7 7.3 7.3 0 0 0 -2.2 2.1 5.8 5.8 0 0 0 -.6 2.6 5.4 5.4 0 0 0 .6 2.5 6.4 6.4 0 0 0 2.6 2.3 5.6 5.6 0 0 0 3.6.3 5.4 5.4 0 0 0 3.4-3.2zm6.3 11.2a5.3 5.3 0 0 0 -2.9-1 5.5 5.5 0 0 0 -3.6 1.5 6.2 6.2 0 0 0 -1.8 4.1 5.7 5.7 0 0 0 1.1 3.3 5.3 5.3 0 0 0 2.8 1.8 5.8 5.8 0 0 0 4.3-.4 4.6 4.6 0 0 0 1.6-1.5 5.6 5.6 0 0 0 1.1-2 5.9 5.9 0 0 0 -.5-3.9 6.4 6.4 0 0 0 -2.1-1.9zm-24.1-25.3a5 5 0 0 0 2.2 1.3 3.4 3.4 0 0 0 2 .1 3.3 3.3 0 0 0 1.9-.6h.1a5.4 5.4 0 0 0 2.5-2.2 4.6 4.6 0 0 0 .5-3.8 5 5 0 0 0 -2.3-3 5 5 0 0 0 -2.9-.7 4.4 4.4 0 0 0 -1.6.2 5.2 5.2 0 0 0 -3 2.3c0 .1-.1.2-.2.4a5.8 5.8 0 0 0 -.6 3.2 5 5 0 0 0 1.4 2.8zm4.3-32.3a5.1 5.1 0 0 0 2.8 1.9 3.9 3.9 0 0 0 1.5.2l1.5-.2a6.2 6.2 0 0 0 3-2.3 5.3 5.3 0 0 0 .5-3.9 4.7 4.7 0 0 0 -1.2-2 4.8 4.8 0 0 0 -3-2.2 4.6 4.6 0 0 0 -3.8.5 4.4 4.4 0 0 0 -2.3 2.9 8.1 8.1 0 0 0 -.1 3.1 4.7 4.7 0 0 0 1.1 2zm5.6-34.4a5.3 5.3 0 0 0 3.6 1.5 5.1 5.1 0 0 0 5-5c0-.1-.1-.2-.1-.4a3.6 3.6 0 0 0 -.1-1.8 5.1 5.1 0 0 0 -6.2-3.5h-.3a5 5 0 0 0 -2.6 1.8 5.7 5.7 0 0 0 -1 3.1 3.6 3.6 0 0 0 .2 1.8 5.8 5.8 0 0 0 1.5 2.5zm5.4 27a4.8 4.8 0 0 0 5 5h.5a4.8 4.8 0 0 0 5-5 5 5 0 0 0 -1.4-3.5 5.3 5.3 0 0 0 -3.6-1.5h-.5a5.3 5.3 0 0 0 -3.6 1.5 5.2 5.2 0 0 0 -1.4 3.5zm80.5 127.5a6.1 6.1 0 0 0 2.2 1.3 4.5 4.5 0 0 0 2 .1 6 6 0 0 0 1.9-.6 9.3 9.3 0 0 0 1.5-1.3 5.3 5.3 0 0 0 1.5-3.5v-.5a5.1 5.1 0 0 0 -.2-1.3 5 5 0 0 0 -2.3-3 5.1 5.1 0 0 0 -3.8-.5 4.7 4.7 0 0 0 -3 2.3l-.6.9-.5 1.2a4.6 4.6 0 0 0 -.1 2 5 5 0 0 0 1.4 2.9zm-.8-15.6a4.8 4.8 0 0 0 -2.3-2.9h-.1l-.6-.4a5 5 0 0 0 -6.8 1.8 7.5 7.5 0 0 1 -.7 1.2 4.8 4.8 0 0 0 -.5 3.1 4.3 4.3 0 0 0 1.3 2.9 7.1 7.1 0 0 0 2.2 1.3 4.6 4.6 0 0 0 2 .1 3.3 3.3 0 0 0 1.9-.6l.6-.3a5.1 5.1 0 0 0 3-6.1zm9.4-9.7a5.9 5.9 0 0 0 -2.3-1.3l-1-.8a5.3 5.3 0 0 0 -3.9-.5 5.1 5.1 0 0 0 -3.5 6.1 7.5 7.5 0 0 0 1.6 2.9 5.2 5.2 0 0 0 1.7 1.2 7.5 7.5 0 0 0 3.9.9 5 5 0 0 0 3.5-1.4 5 5 0 0 0 0-7.1zm4.6 9.2a5.1 5.1 0 0 1 1.8-6.9 5.6 5.6 0 0 1 3.2-.6 5.9 5.9 0 0 1 2.3-.5 4.7 4.7 0 0 1 3.5 1.5 5.1 5.1 0 0 1 1.5 3.5 4.7 4.7 0 0 1 -1.5 3.5l-.5.5a6.7 6.7 0 0 1 -3.4 2.6 5.8 5.8 0 0 1 -5.5-1.5 9.6 9.6 0 0 1 -1.4-2.1zm11.7-19.8-1.1.5a4.8 4.8 0 0 0 -2.9 2.3 6.1 6.1 0 0 0 -.5 1.2 3.9 3.9 0 0 0 0 2.6v.4l.5 1.2a3.5 3.5 0 0 0 1.3 1.4 4.8 4.8 0 0 0 3 1.1 6.1 6.1 0 0 0 5.3-3.3 4.8 4.8 0 0 0 .5-3.9 5.2 5.2 0 0 0 -2.3-3 5 5 0 0 0 -3.8-.5zm-29.3-10.4a4.7 4.7 0 0 0 3.8.6l1.2-.5a5.6 5.6 0 0 0 2.8-2.2 5.3 5.3 0 0 0 .5-3.9 7.1 7.1 0 0 0 -.8-1.5 4.8 4.8 0 0 0 -2.2-2.8 5.1 5.1 0 0 0 -3.8-.5h-.3a4.8 4.8 0 0 0 -3.5 3.4 16.6 16.6 0 0 0 -.3 2.2 16.6 16.6 0 0 0 .3 2.2 4.8 4.8 0 0 0 2.3 3zm14.9-88h.1a5.3 5.3 0 0 1 1.5 3.5 4.9 4.9 0 0 1 -1.5 3.6 5 5 0 0 1 -3.5 1.4 5.9 5.9 0 0 1 -2.9-.7 4.4 4.4 0 0 1 -1.7-1.6 7.2 7.2 0 0 1 -1.4-4 4.7 4.7 0 0 1 1.5-3.5 4.8 4.8 0 0 1 7 0 3.4 3.4 0 0 1 .9 1.3zm-4.4-24.2a5.3 5.3 0 0 0 -3.9.5 5 5 0 0 0 -2.3 3 2.9 2.9 0 0 1 -.3 1 6.4 6.4 0 0 0 .6 4.3 11.8 11.8 0 0 0 1.7 2.2 4.7 4.7 0 0 0 3.5 1.5 5.3 5.3 0 0 0 3.6-1.5 5 5 0 0 0 1.4-3.5l-.2-1.3a5 5 0 0 0 -.5-1.3 5 5 0 0 0 -.6-2.6 5.3 5.3 0 0 0 -3-2.3zm-6.2-12.4a5 5 0 0 0 3.5 1.4 5.4 5.4 0 0 0 3.6-1.4 5.2 5.2 0 0 0 1.4-3.6l-.2-1.3a4.6 4.6 0 0 0 -.7-1.6 5.4 5.4 0 0 0 -2.2-2.7 4.9 4.9 0 0 0 -3.9-.5h-.2a5 5 0 0 0 -3.2 2.8 5.1 5.1 0 0 0 .2 4.5 17 17 0 0 0 1.7 2.4zm103.5 152.7a5.5 5.5 0 0 1 -.5 3.8 5.7 5.7 0 0 1 -5 3 5.1 5.1 0 0 1 -3.6-1.5 5 5 0 0 1 -1.4-3.5 5.2 5.2 0 0 1 1.4-3.6l1.2-.8a5.2 5.2 0 0 1 5.6-.4 5.3 5.3 0 0 1 2.3 3zm.7-10a3.9 3.9 0 0 1 -1 1.6 7.4 7.4 0 0 1 -3.3 2.2 5.7 5.7 0 0 1 -5.3-1.3 6.1 6.1 0 0 1 -1.6-4 5.4 5.4 0 0 1 1.4-3.6 5.6 5.6 0 0 1 3-1.4 8.6 8.6 0 0 1 2.3-.5 5.3 5.3 0 0 1 3.5 1.5 5.1 5.1 0 0 1 1.5 3.5 4.6 4.6 0 0 1 -.5 2zm-1.4-2.6v.1zm-10.2-8.5a6.1 6.1 0 0 0 3.6-1.5 5.2 5.2 0 0 0 1.4-3.5 5 5 0 0 0 -5-5h-.1l-.4-.2a4.6 4.6 0 0 0 -3.8-.5 5 5 0 0 0 -3 2.3 5 5 0 0 0 -.5 3.8 6.1 6.1 0 0 0 4.4 4.5 7.6 7.6 0 0 0 3 .1zm-8.4-22.7a5 5 0 0 0 -3.8.5 5 5 0 0 0 -2.3 3 5.3 5.3 0 0 0 .5 3.9 9.5 9.5 0 0 0 1.5 2 6.9 6.9 0 0 0 4.5 1.8 5.1 5.1 0 0 0 3.5-1.5 5 5 0 0 0 0-7.1 6 6 0 0 0 -1.3-.9 5.6 5.6 0 0 0 -2.6-1.7zm18.5-8.5a4.4 4.4 0 0 0 .1 3l-1.5-.7a5 5 0 0 0 -3.8.5 5 5 0 0 0 -2.3 3 4.9 4.9 0 0 0 .5 3.9 3.7 3.7 0 0 0 .5 1.1 5.4 5.4 0 0 0 3.4 2.7 6.7 6.7 0 0 0 6.3-1.9 5.2 5.2 0 0 0 1.4-3.6 5.5 5.5 0 0 0 -.3-1.7h.5a5.4 5.4 0 0 0 4.8-2.8 4.9 4.9 0 0 0 .5-3.9 5.5 5.5 0 0 0 -.9-1.9 5.3 5.3 0 0 0 -2.9-2 5 5 0 0 0 -6.1 3.5 2.4 2.4 0 0 0 -.2.8zm-5.4-24.7a5 5 0 0 0 -6.2 3.5 5.8 5.8 0 0 0 .5 3.9 18.4 18.4 0 0 0 1.7 2.5 6.2 6.2 0 0 0 6 1.5 4.6 4.6 0 0 0 3-2.3 5 5 0 0 0 .5-3.8 5.1 5.1 0 0 0 -2.6-3.1 5.8 5.8 0 0 0 -2.9-2.2zm-8.4-3.9c6.5 0 6.5-10 0-10s-6.4 10 0 10zm-2.3-18.5c.1 1 .4 1.9.5 2.9a5.7 5.7 0 0 0 2.3 3 5.1 5.1 0 0 0 6.9-1.8 6.1 6.1 0 0 1 .5-1.2 6.1 6.1 0 0 0 0-2.7 5.7 5.7 0 0 0 .1-1.3 5 5 0 0 0 -1.4-3.5 4.9 4.9 0 0 0 -3.6-1.5 5.3 5.3 0 0 0 -3.5 1.5 6.7 6.7 0 0 0 -1.6 2.7 6.2 6.2 0 0 0 -.2 1.9zm11.5-21.9a5 5 0 0 0 -2.3-3 5.1 5.1 0 0 0 -3.8-.5 5.3 5.3 0 0 0 -3 2.3 8.2 8.2 0 0 0 -1.3 4 6.4 6.4 0 0 0 2.1 4.7 4.9 4.9 0 0 0 3.5 1.5 4.9 4.9 0 0 0 4.8-6.3 6.1 6.1 0 0 0 0-2.7zm-5.5-19.6a4.7 4.7 0 0 0 -3.5 1.5l-.8 1a3.6 3.6 0 0 0 -.4.9 5.1 5.1 0 0 0 -.1 4 6.2 6.2 0 0 0 1.6 2 4.8 4.8 0 0 0 3 1.1h1.2a4.8 4.8 0 0 0 5-5 5.1 5.1 0 0 0 -3.4-4.7 4.1 4.1 0 0 0 -2.6-.8zm1.5-18a4.8 4.8 0 0 0 -7 0 5.8 5.8 0 0 0 -1.7 3.5 5.4 5.4 0 0 0 .1 2.8 6.9 6.9 0 0 0 1.7 2.7 5.5 5.5 0 0 0 1.9 1.2 7.1 7.1 0 0 0 2.2.5 4.6 4.6 0 0 0 3.5-1.4 5.3 5.3 0 0 0 1.5-3.6 7.8 7.8 0 0 0 -.7-2.5 5 5 0 0 0 -1.5-3.2zm-1.6-15.9a5.3 5.3 0 0 0 -3.9-.5h-.3a5 5 0 0 0 -3.5 6.2 7.3 7.3 0 0 0 1.9 3 5.2 5.2 0 0 0 3.6 1.4 5 5 0 0 0 3.5-1.4 5.3 5.3 0 0 0 1.5-3.6 8 8 0 0 0 -.5-2.1 5.7 5.7 0 0 0 -2.3-3zm-8.2-4.2a2.9 2.9 0 0 0 1.3 1.4 2.8 2.8 0 0 0 1.7.9 5 5 0 0 0 3.8-.5 5 5 0 0 0 2.3-3 4.6 4.6 0 0 0 -.5-3.8l-.3-.5a4.4 4.4 0 0 0 -1.3-1.4 5.6 5.6 0 0 0 -1.7-.9 5 5 0 0 0 -6.2 3.5 5.9 5.9 0 0 0 .5 3.9zm21.6 84.6a5.3 5.3 0 0 0 3.5 3.5h.3a5 5 0 0 0 5.7-7.4l-.3-.3a5.7 5.7 0 0 0 -1.9-1.9 5 5 0 0 0 -3.8-.5 5 5 0 0 0 -3 2.3l-.5 1.2a4.2 4.2 0 0 0 0 2.7zm8.5 7.2a5.3 5.3 0 0 0 -3.9.5c-2.1 1.4-3.3 4.5-1.8 6.9a7 7 0 0 0 4.5 3.2 10.4 10.4 0 0 0 3.5.1c2.6 0 5.2-2.2 5-5a5.1 5.1 0 0 0 -5-5h-.8zm14.5-4.2a5.6 5.6 0 0 0 -2.8-2 5 5 0 0 0 -3.8.5 4.9 4.9 0 0 0 -2.3 3 5.7 5.7 0 0 0 -.3 1.8 8.3 8.3 0 0 0 .8 2.8 5.2 5.2 0 0 0 1.8 1.8 3.3 3.3 0 0 0 1.9.6 4.8 4.8 0 0 0 4.2-1.4l.2-.3a5.1 5.1 0 0 0 1.5-3.5 5.2 5.2 0 0 0 -1.2-3.3zm-56.4 7h2.4a5 5 0 0 0 3.5-8.6 5.2 5.2 0 0 0 -3.5-1.4h-2.4a5 5 0 0 0 -3.5 1.4 5.3 5.3 0 0 0 -1.5 3.6 5.1 5.1 0 0 0 1.5 3.5 5.3 5.3 0 0 0 3.5 1.5zm-53.2-2.6a5 5 0 0 0 -3.5 1.4 5.3 5.3 0 0 0 -1.5 3.6 5.1 5.1 0 0 0 1.5 3.5 5.3 5.3 0 0 0 3.5 1.5h.3a5.3 5.3 0 0 0 3.6-1.5 5.2 5.2 0 0 0 1.4-3.5 4.8 4.8 0 0 0 -5-5zm-1.1 22.5a5.2 5.2 0 0 0 -1.4 3.5v.3a5 5 0 0 0 1.4 3.5 4.9 4.9 0 0 0 3.6 1.5 4.9 4.9 0 0 0 3.5-1.5 4.9 4.9 0 0 0 1.5-3.5v-.3a5.1 5.1 0 0 0 -1.5-3.5 5 5 0 0 0 -7.1 0zm-3.2-10c-6.4 0-6.4 10 0 10s6.5-10 0-10zm-5.1-6-1.2-1a5 5 0 0 0 -3.8-.5 5.1 5.1 0 0 0 -3.5 6.2v.2a5 5 0 0 0 3.5 3.5h.3a5 5 0 0 0 3.8-.5 4.6 4.6 0 0 0 2.3-3 4.9 4.9 0 0 0 -.5-3.9 3.1 3.1 0 0 0 -.9-1zm2.2-11.9a7.6 7.6 0 0 0 1.2 1.9 8.2 8.2 0 0 0 2.6 1.4 4.6 4.6 0 0 0 3.8-.5 5 5 0 0 0 2-6.5 5.3 5.3 0 0 0 -1.3-2.3 5 5 0 0 0 -3.5-1.4 4.8 4.8 0 0 0 -3.6 1.4 6.2 6.2 0 0 0 -1.4 2.5 5.3 5.3 0 0 0 .2 3.5zm-15.7-3.3a5 5 0 0 0 3.8.5 5 5 0 0 0 3-2.3 5.1 5.1 0 0 0 .5-3.8l-.5-1.2c0-.1-.1-.1-.1-.2a4.3 4.3 0 0 0 -2-2.2 4.6 4.6 0 0 0 -3.8-.5h-.2a5 5 0 0 0 -3 7.3 6.6 6.6 0 0 0 2.3 2.4zm80.1 25.7a4.9 4.9 0 0 0 -1.5 3.5 4.9 4.9 0 0 0 1.5 3.6 4.5 4.5 0 0 0 3 1.4h.4a5.1 5.1 0 0 0 3.8-.5 4.7 4.7 0 0 0 2.3-2.9 4.8 4.8 0 0 0 -.5-3.9 5 5 0 0 0 -3-2.3h-.3a4.1 4.1 0 0 0 -2.2-.4 3.2 3.2 0 0 0 -1.9.5 2.9 2.9 0 0 0 -1.6 1zm-64.9 56.9a7.1 7.1 0 0 1 -1.4-1 8.4 8.4 0 0 1 -1.5-2.6 4.6 4.6 0 0 1 .5-3.8 4.3 4.3 0 0 1 2.1-1.9h-.3l-.7.2a5.1 5.1 0 0 1 -6.2-3.5 6.9 6.9 0 0 1 0-3.5 4.1 4.1 0 0 1 2.3-3 5 5 0 0 1 3.8-.5 1.3 1.3 0 0 1 .8.3h.6a5.1 5.1 0 0 1 5 5 5.3 5.3 0 0 1 -1.5 3.6 4.2 4.2 0 0 1 -1.4.9 5.2 5.2 0 0 1 2.3.7 3.6 3.6 0 0 1 1.3 1.1 6.2 6.2 0 0 1 1.7 2.5 5 5 0 0 1 -.5 3.8 5.1 5.1 0 0 1 -6.9 1.8zm6.2-7.4.3.6-.2-.5zm-33.4 5.7a5 5 0 0 0 3.5 8.5 8.4 8.4 0 0 0 3.8-.8 5.7 5.7 0 0 0 3-2.3 5.1 5.1 0 0 0 .5-3.8 5.3 5.3 0 0 0 -2.3-3 4.8 4.8 0 0 0 -3.9-.5l-1.2.4a4.9 4.9 0 0 0 -3.4 1.5zm62.3-1.2a5.3 5.3 0 0 1 -.5 3.9 6.4 6.4 0 0 1 -1 1.3 5.4 5.4 0 0 1 -2.6 2.1 6.5 6.5 0 0 1 -2 .5 5.2 5.2 0 0 1 -3-1.1 5 5 0 0 1 -1.3-6.5 4.1 4.1 0 0 1 1.2-1.4l.3-.3a4.9 4.9 0 0 1 6.6-1.5 5.2 5.2 0 0 1 2.3 3zm-73.1-3.8a20.2 20.2 0 0 0 3.2 1.1 4.9 4.9 0 0 0 3.9-.5 5.3 5.3 0 0 0 2.3-3 5.1 5.1 0 0 0 -.5-3.8 5 5 0 0 0 -3-2.3h-.4a5.2 5.2 0 0 0 -2.5-.7h-.5l-1.3.2a2.8 2.8 0 0 0 -1.7.9 4.4 4.4 0 0 0 -1.8 2.6 5.7 5.7 0 0 0 0 2.6 5 5 0 0 0 2.3 2.9zm58.3-9.7a5.1 5.1 0 0 0 3.5 3.5l2.2.2a5 5 0 0 0 3.5-8.5 4.9 4.9 0 0 0 -2.4-1.4 4.7 4.7 0 0 0 -3.3-.2 5 5 0 0 0 -3 2.3 5 5 0 0 0 -.5 3.8zm-52.8-9.8 3.2 1.4a4.9 4.9 0 0 0 3.9-.5 5.3 5.3 0 0 0 2.3-3 5 5 0 0 0 -.5-3.8l-.8-1a4.4 4.4 0 0 0 -1.9-1.2l-.7-.3a5.2 5.2 0 0 0 -2.8-.9h-1.5a4.6 4.6 0 0 0 -1.7.9 5.1 5.1 0 0 0 -1.8 2.6 6.2 6.2 0 0 0 0 2.7 5 5 0 0 0 2.3 3.1zm41.7-7.6h-.2a5.1 5.1 0 0 0 -3.8-.5 5 5 0 0 0 -3 2.3 5.1 5.1 0 0 0 -.5 3.8v.3a5.1 5.1 0 0 0 3.5 3.5l.8.2 2 .3a4.9 4.9 0 0 0 3.6-1.5 4.8 4.8 0 0 0 1.4-3.5 5 5 0 0 0 -1.4-3.5 4.7 4.7 0 0 0 -2.4-1.3zm15.8 3.1 1.2.9 1.8.8a5.3 5.3 0 0 0 3.9-.6 5.1 5.1 0 0 0 2.3-2.9 5.3 5.3 0 0 0 -.5-3.9l-.8-1-1.2-.9-.7-.5a5.3 5.3 0 0 0 -3.9-.5 5 5 0 0 0 -3 2.3 4.8 4.8 0 0 0 -.5 3.9 5.8 5.8 0 0 0 1.4 2.4zm-35.3-3c6.5 0 6.5-10 0-10s-6.4 10 0 10z"/></svg>