<?xml version="1.0" encoding="utf-8"?>
<!-- Generator: Adobe Illustrator 19.2.0, SVG Export Plug-In . SVG Version: 6.00 Build 0)  -->
<svg version="1.1" id="Layer_1" xmlns="http://www.w3.org/2000/svg" xmlns:xlink="http://www.w3.org/1999/xlink" x="0px" y="0px"
	 width="1268px" height="558px" viewBox="0 0 1268 558" enable-background="new 0 0 1268 558" xml:space="preserve">
<g id="Layer_2">
</g>
<g>
	<g>
		<line fill="none" stroke="#C4C4C4" stroke-miterlimit="10" x1="50.938" y1="436.17" x2="1239.169" y2="436.17"/>
		<line fill="none" stroke="#C4C4C4" stroke-miterlimit="10" x1="50.938" y1="351.17" x2="1239.169" y2="351.17"/>
		<line fill="none" stroke="#C4C4C4" stroke-miterlimit="10" x1="50.938" y1="266.17" x2="1239.169" y2="266.17"/>
		<line fill="none" stroke="#C4C4C4" stroke-miterlimit="10" x1="50.938" y1="181.17" x2="1239.169" y2="181.17"/>
		<line fill="none" stroke="#C4C4C4" stroke-miterlimit="10" x1="50.938" y1="96.17" x2="1239.169" y2="96.17"/>
		<line fill="none" stroke="#C4C4C4" stroke-miterlimit="10" x1="50.938" y1="11.17" x2="1239.169" y2="11.17"/>
	</g>
	<g>
		<text transform="matrix(1 0 0 1 3.062 20.9801)"><tspan x="0" y="0" fill="#9C96AD" font-family="'RobotoCondensed-Regular'" font-size="26px">120</tspan><tspan x="0" y="85" fill="#9C96AD" font-family="'RobotoCondensed-Regular'" font-size="26px">100</tspan><tspan x="12.835" y="170" fill="#9C96AD" font-family="'RobotoCondensed-Regular'" font-size="26px">80</tspan><tspan x="12.835" y="255" fill="#9C96AD" font-family="'RobotoCondensed-Regular'" font-size="26px">60</tspan><tspan x="12.835" y="340" fill="#9C96AD" font-family="'RobotoCondensed-Regular'" font-size="26px">40</tspan><tspan x="12.835" y="425" fill="#9C96AD" font-family="'RobotoCondensed-Regular'" font-size="26px">20</tspan><tspan x="25.67" y="510" fill="#9C96AD" font-family="'RobotoCondensed-Regular'" font-size="26px">0</tspan></text>
	</g>
	<g>
		<text transform="matrix(1 0 0 1 62.4583 552.2156)" fill="#9C96AD" font-family="'RobotoCondensed-Regular'" font-size="26px">1940</text>
	</g>
	<g>
		<text transform="matrix(1 0 0 1 206.3506 552.2156)" fill="#9C96AD" font-family="'RobotoCondensed-Regular'" font-size="26px">1950</text>
	</g>
	<g>
		<text transform="matrix(1 0 0 1 350.2429 552.2156)" fill="#9C96AD" font-family="'RobotoCondensed-Regular'" font-size="26px">1960</text>
	</g>
	<g>
		<text transform="matrix(1 0 0 1 494.1353 552.2156)" fill="#9C96AD" font-family="'RobotoCondensed-Regular'" font-size="26px">1970</text>
	</g>
	<g>
		<text transform="matrix(1 0 0 1 638.0276 552.2156)" fill="#9C96AD" font-family="'RobotoCondensed-Regular'" font-size="26px">1980</text>
	</g>
	<g>
		<text transform="matrix(1 0 0 1 781.9199 552.2156)" fill="#9C96AD" font-family="'RobotoCondensed-Regular'" font-size="26px">1990</text>
	</g>
	<g>
		<text transform="matrix(1 0 0 1 925.8122 552.2156)" fill="#9C96AD" font-family="'RobotoCondensed-Regular'" font-size="26px">2000</text>
	</g>
	<g>
		<text transform="matrix(1 0 0 1 1069.7056 552.2156)" fill="#9C96AD" font-family="'RobotoCondensed-Regular'" font-size="26px">2010</text>
	</g>
	<g>
		<text transform="matrix(1 0 0 1 1213.5979 552.2156)" fill="#9C96AD" font-family="'RobotoCondensed-Regular'" font-size="26px">2020</text>
	</g>
	<line opacity="0.4" fill="#ABC1CF" x1="1239.169" y1="521.17" x2="50.938" y2="521.17"/>
	<polygon opacity="0.65" fill="#F2E0CB" points="89.169,521.17 232.919,436.17 520.419,378.814 664.169,207.814 807.919,11.17 
		951.669,45.814 1095.419,266.17 1239.169,351.17 1239.169,521.17 	"/>
	<polygon opacity="0.4" fill="#9C96AD" points="232.919,521.17 375.813,436.17 520.419,436.17 664.169,351.17 807.919,225.814 
		952.169,181.17 1095.419,351.17 1239.169,436.17 1239.169,521.17 	"/>
	<polygon opacity="0.5" fill="#A3B1D6" points="525.201,521.17 664.169,402.814 802.688,382.877 948.18,321.17 1087.673,190.389 
		1239.169,137.882 1239.169,521.17 	"/>
	<polygon opacity="0.4" fill="#4F3D6E" points="89.169,521.17 232.919,350.881 376.669,311.17 520.419,352.814 664.169,416.814 
		807.169,472.814 1095.169,437.814 1239.169,462.814 1239.169,521.17 89.169,521.17 	"/>
</g>
</svg>
