<?xml version="1.0" encoding="utf-8"?>
<!-- Generator: Adobe Illustrator 22.1.0, SVG Export Plug-In . SVG Version: 6.00 Build 0)  -->
<svg version="1.1" id="Layer_1" xmlns="http://www.w3.org/2000/svg" xmlns:xlink="http://www.w3.org/1999/xlink" x="0px" y="0px"
	 viewBox="0 0 1268 418" style="enable-background:new 0 0 1268 418;" xml:space="preserve">
<style type="text/css">
	.st0{opacity:0.4;fill:#968BAF;enable-background:new    ;}
	.st1{fill:none;stroke:#C4C4C4;stroke-miterlimit:10;}
	.st2{fill:#D1CDC9;}
	.st3{font-family:'RobotoCondensed-Regular';}
	.st4{font-size:19px;}
</style>
<g id="Layer_1_1_">
	<polygon class="st0" points="55.4,379.4 163.5,329.2 271.5,290 379.5,298.5 487.5,240.6 595.5,206.5 703.5,110 811.4,59 919.4,54 
		1027.4,123.6 1140,146 1243.1,253.6 1243.1,379.4 	"/>
	<g>
		<g>
			<line class="st1" x1="163.5" y1="388.3" x2="163.5" y2="378.9"/>
			<line class="st1" x1="271.5" y1="388.3" x2="271.5" y2="378.9"/>
			<line class="st1" x1="487.5" y1="388.3" x2="487.5" y2="378.9"/>
			<line class="st1" x1="811.4" y1="388.3" x2="811.4" y2="378.9"/>
			<line class="st1" x1="1027.4" y1="388.3" x2="1027.4" y2="378.9"/>
			<line class="st1" x1="379.5" y1="388.3" x2="379.5" y2="378.9"/>
			<line class="st1" x1="595.5" y1="388.3" x2="595.5" y2="378.9"/>
			<line class="st1" x1="703.5" y1="388.3" x2="703.5" y2="378.9"/>
			<line class="st1" x1="919.4" y1="388.3" x2="919.4" y2="378.9"/>
			<line class="st1" x1="1135.4" y1="388.3" x2="1135.4" y2="378.9"/>
			<line class="st1" x1="1243.4" y1="388.3" x2="1243.4" y2="378.9"/>
		</g>
		<g>
			<polyline class="st1" points="55.5,2 55.5,379.1 1266.4,379.1 			"/>
			<g>
				<line class="st1" x1="45.9" y1="10" x2="55.9" y2="10"/>
				<line class="st1" x1="45.9" y1="305" x2="55.9" y2="305"/>
				<line class="st1" x1="45.9" y1="231" x2="55.9" y2="231"/>
				<line class="st1" x1="45.9" y1="158" x2="55.9" y2="158"/>
				<line class="st1" x1="45.9" y1="84" x2="55.9" y2="84"/>
			</g>
		</g>
	</g>
	<g>
		<g>
			<text transform="matrix(1 0 0 1 576.6802 415.3513)" class="st2 st3 st4">2014</text>
		</g>
		<g>
			<text transform="matrix(1 0 0 1 791.8196 415.3513)" class="st2 st3 st4">2016</text>
		</g>
		<g>
			<text transform="matrix(1 0 0 1 1007.8196 415.3513)" class="st2 st3 st4">2018</text>
		</g>
		<g>
			<text transform="matrix(1 0 0 1 360.6118 415.3513)" class="st2 st3 st4">2012</text>
		</g>
		<g>
			<text transform="matrix(1 0 0 1 144.6116 415.3513)" class="st2 st3 st4">2010</text>
		</g>
		<g>
			<text transform="matrix(1 0 0 1 1223.3398 415.3513)" class="st2 st3 st4">2020</text>
		</g>
	</g>
	<g>
		<text transform="matrix(1 0 0 1 8.7752 20.436)" class="st2 st3 st4">100</text>
	</g>
	<text transform="matrix(1 0 0 1 18.1549 240.0134)" class="st2 st3 st4">40</text>
	<text transform="matrix(1 0 0 1 18.1549 168.0133)" class="st2 st3 st4">60</text>
	<text transform="matrix(1 0 0 1 18.155 94.0134)" class="st2 st3 st4">80</text>
	<text transform="matrix(1 0 0 1 18.1549 312.4365)" class="st2 st3 st4">20</text>
</g>
<g id="Layer_2_1_">
</g>
<g id="Layer_3">
</g>
</svg>
