<?xml version="1.0" encoding="utf-8"?>
<!-- Generator: Adobe Illustrator 22.1.0, SVG Export Plug-In . SVG Version: 6.00 Build 0)  -->
<svg version="1.1" xmlns="http://www.w3.org/2000/svg" xmlns:xlink="http://www.w3.org/1999/xlink" x="0px" y="0px"
	 viewBox="0 0 1268 418" enable-background="new 0 0 1268 418" xml:space="preserve">
<g id="Layer_1">
	<polygon opacity="0.4" fill="#968BAF" points="55.4,379.4 163.5,254.7 271.5,211.6 379.5,228.4 487.5,271 595.5,277.3 703.5,330.6 
		811.4,282.5 919.4,295.5 1027.4,253.6 1134,319 1243.1,336.2 1243.1,379.4 55.4,379.4 	"/>
	<polygon opacity="0.4" fill="#CA9F9B" points="55.4,379.4 163.5,329.2 271.5,290 379.5,298.5 487.5,240.6 595.5,206.5 703.5,67.5 
		811.4,15.5 919.4,33 1027.4,123.6 1135.4,101.2 1243.1,253.6 1243.1,379.4 	"/>
	<polygon opacity="0.2" fill="#4F3D6E" points="1243.1,379.4 1243.1,336.2 1265.9,331.7 1265.9,379.4 	"/>
	<polygon opacity="0.1" fill="#756686" points="1243.1,379.4 1243.1,95.7 1265.9,105.5 1265.9,379.4 	"/>
	<polygon opacity="0.2" fill="#CA9F9B" points="1243.1,379.4 1243.1,253.6 1265.9,258.8 1265.9,379.4 	"/>
	<polygon opacity="0.2" fill="#968BAF" points="1243.1,379.4 1243.1,316.5 1265.9,315.5 1265.9,379.4 	"/>
	<polygon opacity="0.2" fill="#756686" points="505.7,379.4 595.5,313.5 703.5,286 811.4,233.5 919.4,201.5 1027.4,209 
		1135.4,122.5 1243.1,95.7 1243.1,379.4 	"/>
	<polygon opacity="0.5" fill="#968BAF" points="203.9,379.4 271.5,342 379.5,314.3 487.5,303 595.5,267.8 703.5,214.5 811.4,140.3 
		919.4,125 1027.4,185.3 1135.4,275.5 1243.1,316.5 1243.1,379.4 	"/>
	<g>
		<g>
			<line fill="none" stroke="#C4C4C4" stroke-miterlimit="10" x1="163.5" y1="388.3" x2="163.5" y2="378.9"/>
			<line fill="none" stroke="#C4C4C4" stroke-miterlimit="10" x1="271.5" y1="388.3" x2="271.5" y2="378.9"/>
			<line fill="none" stroke="#C4C4C4" stroke-miterlimit="10" x1="487.5" y1="388.3" x2="487.5" y2="378.9"/>
			<line fill="none" stroke="#C4C4C4" stroke-miterlimit="10" x1="811.4" y1="388.3" x2="811.4" y2="378.9"/>
			<line fill="none" stroke="#C4C4C4" stroke-miterlimit="10" x1="1027.4" y1="388.3" x2="1027.4" y2="378.9"/>
			<line fill="none" stroke="#C4C4C4" stroke-miterlimit="10" x1="379.5" y1="388.3" x2="379.5" y2="378.9"/>
			<line fill="none" stroke="#C4C4C4" stroke-miterlimit="10" x1="595.5" y1="388.3" x2="595.5" y2="378.9"/>
			<line fill="none" stroke="#C4C4C4" stroke-miterlimit="10" x1="703.5" y1="388.3" x2="703.5" y2="378.9"/>
			<line fill="none" stroke="#C4C4C4" stroke-miterlimit="10" x1="919.4" y1="388.3" x2="919.4" y2="378.9"/>
			<line fill="none" stroke="#C4C4C4" stroke-miterlimit="10" x1="1135.4" y1="388.3" x2="1135.4" y2="378.9"/>
			<line fill="none" stroke="#C4C4C4" stroke-miterlimit="10" x1="1243.4" y1="388.3" x2="1243.4" y2="378.9"/>
		</g>
		<g>
			<polyline fill="none" stroke="#C4C4C4" stroke-miterlimit="10" points="55.5,2 55.5,379.1 1266.4,379.1 			"/>
			<g>
				<line fill="none" stroke="#C4C4C4" stroke-miterlimit="10" x1="45.9" y1="10" x2="55.9" y2="10"/>
				<line fill="none" stroke="#C4C4C4" stroke-miterlimit="10" x1="45.9" y1="305" x2="55.9" y2="305"/>
				<line fill="none" stroke="#C4C4C4" stroke-miterlimit="10" x1="45.9" y1="231" x2="55.9" y2="231"/>
				<line fill="none" stroke="#C4C4C4" stroke-miterlimit="10" x1="45.9" y1="158" x2="55.9" y2="158"/>
				<line fill="none" stroke="#C4C4C4" stroke-miterlimit="10" x1="45.9" y1="84" x2="55.9" y2="84"/>
			</g>
		</g>
	</g>
	<g>
		<g>
			<text transform="matrix(1 0 0 1 576.6802 415.3513)" fill="#D1CDC9" font-family="'RobotoCondensed-Regular'" font-size="19px">2014</text>
		</g>
		<g>
			<text transform="matrix(1 0 0 1 791.8196 415.3513)" fill="#D1CDC9" font-family="'RobotoCondensed-Regular'" font-size="19px">2016</text>
		</g>
		<g>
			<text transform="matrix(1 0 0 1 1007.8196 415.3513)" fill="#D1CDC9" font-family="'RobotoCondensed-Regular'" font-size="19px">2018</text>
		</g>
		<g>
			<text transform="matrix(1 0 0 1 360.6118 415.3513)" fill="#D1CDC9" font-family="'RobotoCondensed-Regular'" font-size="19px">2012</text>
		</g>
		<g>
			<text transform="matrix(1 0 0 1 144.6116 415.3513)" fill="#D1CDC9" font-family="'RobotoCondensed-Regular'" font-size="19px">2010</text>
		</g>
		<g>
			<text transform="matrix(1 0 0 1 1223.3398 415.3513)" fill="#D1CDC9" font-family="'RobotoCondensed-Regular'" font-size="19px">2020</text>
		</g>
	</g>
	<g>
		<text transform="matrix(1 0 0 1 8.7752 20.436)" fill="#D1CDC9" font-family="'RobotoCondensed-Regular'" font-size="19px">100</text>
	</g>
	<text transform="matrix(1 0 0 1 18.1549 240.0134)" fill="#D1CDC9" font-family="'RobotoCondensed-Regular'" font-size="19px">40</text>
	<text transform="matrix(1 0 0 1 18.1549 168.0133)" fill="#D1CDC9" font-family="'RobotoCondensed-Regular'" font-size="19px">60</text>
	<text transform="matrix(1 0 0 1 18.155 94.0134)" fill="#D1CDC9" font-family="'RobotoCondensed-Regular'" font-size="19px">80</text>
	<text transform="matrix(1 0 0 1 18.1549 312.4365)" fill="#D1CDC9" font-family="'RobotoCondensed-Regular'" font-size="19px">20</text>
</g>
<g id="Layer_2">
</g>
<g id="Layer_3">
</g>
</svg>
