<svg height='300px' width='300px'  fill="#000000" xmlns:dc="http://purl.org/dc/elements/1.1/" xmlns:cc="http://creativecommons.org/ns#" xmlns:rdf="http://www.w3.org/1999/02/22-rdf-syntax-ns#" xmlns:svg="http://www.w3.org/2000/svg" xmlns="http://www.w3.org/2000/svg" xmlns:sodipodi="http://sodipodi.sourceforge.net/DTD/sodipodi-0.dtd" xmlns:inkscape="http://www.inkscape.org/namespaces/inkscape" viewBox="0 0 100 100" version="1.1" x="0px" y="0px"><g transform="translate(0,-952.36216)"><path style="color:#000000;font-style:normal;font-variant:normal;font-weight:normal;font-stretch:normal;font-size:medium;line-height:normal;font-family:sans-serif;text-indent:0;text-align:start;text-decoration:none;text-decoration-line:none;text-decoration-style:solid;text-decoration-color:#000000;letter-spacing:normal;word-spacing:normal;text-transform:none;direction:ltr;block-progression:tb;writing-mode:lr-tb;baseline-shift:baseline;text-anchor:start;white-space:normal;clip-rule:nonzero;display:inline;overflow:visible;visibility:visible;opacity:1;isolation:auto;mix-blend-mode:normal;color-interpolation:sRGB;color-interpolation-filters:linearRGB;solid-color:#000000;solid-opacity:1;fill:#000000;fill-opacity:1;fill-rule:evenodd;stroke:none;stroke-width:5.25;stroke-linecap:round;stroke-linejoin:miter;stroke-miterlimit:4;stroke-dasharray:none;stroke-dashoffset:0;stroke-opacity:1;color-rendering:auto;image-rendering:auto;shape-rendering:auto;text-rendering:auto;enable-background:accumulate" d="m 50.012121,957.36619 0,0 -2.50468,4.34726 -4.97396,-1.2672 0.24629,1.1824 -0.0232,0.012 -0.0232,0.016 0.0232,0 0.0293,0 1.02078,5.1098 0.0474,-0.012 c 0,0 3.19503,-0.4418 6.12278,-0.4315 2.92795,0 6.12882,0.4749 6.12882,0.4749 l 0.0474,0 0.96367,-4.6607 0.35476,-1.6297 -4.98385,1.2238 -2.4732,-4.35709 0,-0.0121 z m -0.0161,10.46416 0,0.01 c -2.92452,0 -4.82271,0.2225 -5.96518,0.4453 -0.0373,0.012 -0.0424,0.013 -0.0767,0.02 -0.47281,0.9384 -0.72233,1.9741 -0.72515,3.0249 0,3.7351 3.03016,6.7634 6.76529,6.7634 3.73503,0 6.76126,-3.0283 6.76126,-6.7634 0,-1.0497 -0.2469,-2.0845 -0.71729,-3.023 -0.0414,-0.012 -0.0434,-0.015 -0.0847,-0.025 -1.14246,-0.2232 -3.03278,-0.4474 -5.9573,-0.4474 z m -8.37138,11.6801 c -0.0888,1.8131 -0.191,3.6153 -0.3034,5.4094 -0.29856,4.7654 -0.67945,9.465 -1.15094,14.0922 l 6.36331,0 2.93037,-2.9303 0.53597,-0.5361 3.46644,3.4664 6.36322,0 c -0.47109,-4.6266 -0.85027,-9.3254 -1.14893,-14.0901 0.40955,0.1937 0.76118,0.6004 1.24357,1.401 0.77469,1.2861 1.47411,3.4968 1.94299,6.1072 0.93794,5.2207 1.0794,11.96075 1.36968,17.10545 a 2.6488294,2.6488294 0 1 0 5.28926,-0.2976 c -0.28009,-4.9641 -0.38876,-11.85845 -1.44647,-17.74595 -0.5289,-2.9437 -1.26304,-5.6547 -2.61708,-7.9024 -1.26687,-2.103 -3.44485,-3.8591 -6.08736,-4.0792 0.0868,1.7669 0.18636,3.5227 0.29563,5.2715 -0.10897,-1.7485 -0.20916,-3.505 -0.29563,-5.2715 l -4.04186,0 c -0.32752,3.2388 -2.13803,5.7268 -4.34133,5.7268 -2.2033,0 -4.01351,-2.488 -4.34132,-5.7268 l -4.02612,0 z m 0,0 c -2.642511,0.2201 -4.820489,1.9762 -6.087361,4.0792 -1.354047,2.2477 -2.088078,4.9587 -2.616983,7.9024 -1.057711,5.8875 -1.166378,12.78185 -1.44647,17.74595 a 2.6488294,2.6488294 0 1 0 5.289259,0.2976 c 0.290283,-5.1447 0.431641,-11.88475 1.369586,-17.10545 0.468871,-2.6104 1.168389,-4.8211 1.943079,-6.1072 0.4833,-0.8022 0.83493,-1.2097 1.24549,-1.4031 0.1126,-1.7941 0.2144,-3.5962 0.3034,-5.4094 z m 8.37531,18.1773 -2.83966,2.83785 2.83774,2.8397 2.83967,-2.8397 -2.83775,-2.83785 z m -10.1607,4.35135 c -0.994948,8.9287 -2.329723,17.5863 -4.093012,25.9004 l 5.878402,0 6.86185,0 9.88878,0 5.87648,0 c -1.76339,-8.3141 -3.09665,-16.9717 -4.0911,-25.9004 l -6.69426,0 -3.46644,3.4664 -3.46634,-3.4664 -6.69436,0 z m 1.01685,27.4139 0,14.1256 c 0,2.0961 1.68751,3.7838 3.78366,3.7837 2.08798,0 3.78366,-1.6876 3.78366,-3.7837 l 0,-14.1256 -7.56732,0 z m 10.72038,0 0,14.1256 c 0,2.0961 1.69558,3.7837 3.78366,3.7837 2.09605,0 3.78367,-1.6876 3.78367,-3.7837 l 0,-14.1256 -7.56733,0 z"></path></g></svg>