<svg height="256" viewBox="0 0 256 256" width="256" xmlns="http://www.w3.org/2000/svg"><path d="m52.4 65.4 17.6 21.3h-17.2l-8.8-11.1-8.8 11.1h-17.1l17.6-21.3-16.6-20h17.3l7.6 9.9 7.6-9.9h17.4zm16.6 61.3h-17.4l-7.6 9.9-7.6-9.9h-17.3l16.6 20-17.6 21.3h17.1l8.8-11.1 8.8 11.1h17.2l-17.6-21.3zm0 78h-17.4l-7.6 9.9-7.6-9.9h-17.3l16.6 20-17.6 21.3h17.1l8.8-11.1 8.8 11.1h17.2l-17.6-21.3zm113.8-159.3h-17.4l-7.6 9.9-7.6-9.9h-17.3l16.6 20-17.6 21.3h17.1l8.8-11.1 8.8 11.1h17.2l-17.6-21.3zm0 81.3h-17.4l-7.6 9.9-7.6-9.9h-17.3l16.6 20-17.6 21.3h17.1l8.8-11.1 8.8 11.1h17.2l-17.6-21.3zm-61.9-107.6a23.2 23.2 0 0 1 2.8 11.4 23.6 23.6 0 0 1 -2.8 11.5 18.8 18.8 0 0 1 -7.9 7.4 24.6 24.6 0 0 1 -11.9 2.7 26.5 26.5 0 0 1 -12-2.6 18.4 18.4 0 0 1 -7.9-7.5 23.3 23.3 0 0 1 -2.7-11.5 23.2 23.2 0 0 1 2.7-11.4 18.4 18.4 0 0 1 7.9-7.5 26.5 26.5 0 0 1 12-2.6 25.8 25.8 0 0 1 11.9 2.6 19.7 19.7 0 0 1 7.9 7.5zm-11.8 11.4c0-3.5-.7-6.2-2-7.9s-3.3-2.5-6-2.5-4.7.8-6.1 2.5-2 4.4-2 7.9.7 6.3 2 8.1 3.4 2.5 6.1 2.5c5.3 0 8-3.5 8-10.6zm11.8 69.9a22.9 22.9 0 0 1 2.8 11.4 23.6 23.6 0 0 1 -2.8 11.5 18.8 18.8 0 0 1 -7.9 7.4 24.6 24.6 0 0 1 -11.9 2.7 26.5 26.5 0 0 1 -12-2.6 19 19 0 0 1 -7.9-7.5 23.5 23.5 0 0 1 -2.7-11.5 22.9 22.9 0 0 1 2.7-11.4 18.4 18.4 0 0 1 7.9-7.5 26.5 26.5 0 0 1 12-2.6 25.8 25.8 0 0 1 11.9 2.6 19.7 19.7 0 0 1 7.9 7.5zm-11.8 11.4c0-3.5-.7-6.2-2-7.9s-3.3-2.5-6-2.5-4.7.8-6.1 2.5-2 4.4-2 7.9.7 6.3 2 8 3.4 2.6 6.1 2.6c5.3 0 8-3.5 8-10.6zm11.8 66.7a24.6 24.6 0 0 1 0 22.8 19.7 19.7 0 0 1 -7.9 7.5 25.8 25.8 0 0 1 -11.9 2.6 25.3 25.3 0 0 1 -12-2.6 18.4 18.4 0 0 1 -7.9-7.5 22.9 22.9 0 0 1 -2.7-11.4 23.5 23.5 0 0 1 2.7-11.5 19.7 19.7 0 0 1 7.9-7.5 26.5 26.5 0 0 1 12-2.6 24.6 24.6 0 0 1 11.9 2.7 18.4 18.4 0 0 1 7.9 7.5zm-11.8 11.4c0-3.6-.7-6.2-2-7.9s-3.3-2.6-6-2.6-4.7.8-6.1 2.6-2 4.3-2 7.9.7 6.3 2 8a7.4 7.4 0 0 0 6.1 2.6c5.3 0 8-3.6 8-10.6zm85.9-147.9a23.3 23.3 0 0 1 -2.7-11.5 23.2 23.2 0 0 1 2.7-11.4 18.4 18.4 0 0 1 7.9-7.5 26.7 26.7 0 0 1 12.1-2.6 26.4 26.4 0 0 1 11.9 2.6 19.4 19.4 0 0 1 7.8 7.5 23.2 23.2 0 0 1 2.8 11.4 23.6 23.6 0 0 1 -2.8 11.5 18.6 18.6 0 0 1 -7.8 7.4 25.2 25.2 0 0 1 -11.9 2.7 26.7 26.7 0 0 1 -12.1-2.6 18.4 18.4 0 0 1 -7.9-7.5zm11.8-11.5c0 3.7.7 6.3 2.1 8.1s3.3 2.5 6.1 2.5c5.3 0 7.9-3.5 7.9-10.6 0-3.5-.6-6.2-2-7.9s-3.3-2.5-5.9-2.5-4.8.8-6.1 2.5-2.1 4.4-2.1 7.9zm27.9 69.9a22.9 22.9 0 0 1 2.8 11.4 23.6 23.6 0 0 1 -2.8 11.5 18.6 18.6 0 0 1 -7.8 7.4 25.2 25.2 0 0 1 -11.9 2.7 26.7 26.7 0 0 1 -12.1-2.6 19 19 0 0 1 -7.9-7.5 23.5 23.5 0 0 1 -2.7-11.5 22.9 22.9 0 0 1 2.7-11.4 18.4 18.4 0 0 1 7.9-7.5 26.7 26.7 0 0 1 12.1-2.6 26.4 26.4 0 0 1 11.9 2.6 19.4 19.4 0 0 1 7.8 7.5zm-11.8 11.4c0-3.5-.6-6.2-2-7.9s-3.3-2.5-5.9-2.5-4.8.8-6.1 2.5-2.1 4.4-2.1 7.9.7 6.3 2.1 8 3.3 2.6 6.1 2.6c5.3 0 7.9-3.5 7.9-10.6zm11.8 66.7a24.6 24.6 0 0 1 0 22.8 19.4 19.4 0 0 1 -7.8 7.5 26.4 26.4 0 0 1 -11.9 2.6 25.4 25.4 0 0 1 -12.1-2.6 18.4 18.4 0 0 1 -7.9-7.5 22.9 22.9 0 0 1 -2.7-11.4 23.5 23.5 0 0 1 2.7-11.5 19.7 19.7 0 0 1 7.9-7.5 26.7 26.7 0 0 1 12.1-2.6 25.2 25.2 0 0 1 11.9 2.7 18.2 18.2 0 0 1 7.8 7.5zm-11.8 11.4c0-3.6-.6-6.2-2-7.9s-3.3-2.6-5.9-2.6-4.8.8-6.1 2.6-2.1 4.3-2.1 7.9.7 6.3 2.1 8 3.3 2.6 6.1 2.6c5.3 0 7.9-3.6 7.9-10.6z"/></svg>