<?xml version="1.0" encoding="utf-8"?>
<!-- Generator: Adobe Illustrator 22.1.0, SVG Export Plug-In . SVG Version: 6.00 Build 0)  -->
<svg version="1.1" id="Layer_1" xmlns="http://www.w3.org/2000/svg" xmlns:xlink="http://www.w3.org/1999/xlink" x="0px" y="0px"
	 viewBox="0 0 470 465" style="enable-background:new 0 0 470 465;" xml:space="preserve">
<style type="text/css">
	.st0{fill:#514361;}
	.st1{font-family:'RobotoMono-Regular';}
	.st2{font-size:21.9023px;}
	.st3{fill:#898989;}
	.st4{font-size:17.0838px;}
	.st5{fill:none;stroke:#A8A8A8;stroke-width:1.1052;stroke-miterlimit:10;}
	.st6{fill:none;stroke:#AFAFAF;stroke-width:2;stroke-linecap:round;stroke-miterlimit:10;}
	.st7{fill:none;stroke:#AFAFAF;stroke-width:2;stroke-linecap:round;stroke-miterlimit:10;stroke-dasharray:0,3.5;}
	.st8{fill:none;stroke:#AFAFAF;stroke-width:2;stroke-linecap:round;stroke-miterlimit:10;stroke-dasharray:0,6.1375;}
	.st9{fill:#909090;}
	.st10{fill:#B5B5B5;}
</style>
<g>
	<g>
		<g>
			<text transform="matrix(1 0 0 1 359.4 455.2451)" class="st0 st1 st2">interval</text>
		</g>
	</g>
	<g>
		<g>
			<text transform="matrix(1 0 0 1 5.2666 35.7373)" class="st0 st1 st2">frequency</text>
		</g>
	</g>
	<g>
		<g>
			<text transform="matrix(1 0 0 1 89.8359 434.4023)" class="st3 st1 st4">1</text>
		</g>
	</g>
	<g>
		<g>
			<text transform="matrix(1 0 0 1 27.8359 434.4023)" class="st3 st1 st4">0</text>
		</g>
	</g>
	<g>
		<g>
			<text transform="matrix(1 0 0 1 138.8696 434.4023)" class="st3 st1 st4">2</text>
		</g>
	</g>
	<g>
		<g>
			<text transform="matrix(1 0 0 1 19.9033 306.5693)" class="st3 st1 st4">4</text>
		</g>
	</g>
	<g>
		<g>
			<text transform="matrix(1 0 0 1 19.9033 356.5908)" class="st3 st1 st4">2</text>
		</g>
	</g>
	<g>
		<g>
			<text transform="matrix(1 0 0 1 19.9033 251.4971)" class="st3 st1 st4">6</text>
		</g>
	</g>
	<g>
		<g>
			<text transform="matrix(1 0 0 1 10.2666 150.4434)" class="st3 st1 st4">10</text>
		</g>
	</g>
	<g>
		<g>
			<text transform="matrix(1 0 0 1 10.2666 97.002)" class="st3 st1 st4">12</text>
		</g>
	</g>
	<g>
		<g>
			<text transform="matrix(1 0 0 1 19.9033 202.8232)" class="st3 st1 st4">8</text>
		</g>
	</g>
	<g>
		<g>
			<text transform="matrix(1 0 0 1 187.9707 434.4023)" class="st3 st1 st4">3</text>
		</g>
	</g>
	<g>
		<g>
			<text transform="matrix(1 0 0 1 333.4189 434.4023)" class="st3 st1 st4">6</text>
		</g>
	</g>
	<g>
		<g>
			<text transform="matrix(1 0 0 1 235.7344 434.4023)" class="st3 st1 st4">4</text>
		</g>
	</g>
	<g>
		<g>
			<text transform="matrix(1 0 0 1 285.6724 434.4023)" class="st3 st1 st4">5</text>
		</g>
	</g>
	<line class="st5" x1="143.9" y1="389.9" x2="143.9" y2="397"/>
	<line class="st5" x1="193" y1="389.9" x2="193" y2="397"/>
	<line class="st5" x1="143.9" y1="389.9" x2="143.9" y2="397"/>
	<line class="st5" x1="94.9" y1="389.9" x2="94.9" y2="397"/>
	<line class="st5" x1="242.1" y1="389.9" x2="242.1" y2="397"/>
	<line class="st5" x1="291.1" y1="389.9" x2="291.1" y2="397"/>
	<line class="st5" x1="340.2" y1="389.9" x2="340.2" y2="397"/>
	<g>
		<g>
			<line class="st6" x1="340.2" y1="443.3" x2="340.2" y2="443.3"/>
			<line class="st7" x1="340.2" y1="446.8" x2="340.2" y2="448.5"/>
			<line class="st6" x1="340.2" y1="450.3" x2="340.2" y2="450.3"/>
			<line class="st8" x1="334.1" y1="450.3" x2="294.2" y2="450.3"/>
			<line class="st6" x1="291.1" y1="450.3" x2="291.1" y2="450.3"/>
			<line class="st7" x1="291.1" y1="446.8" x2="291.1" y2="445"/>
			<line class="st6" x1="291.1" y1="443.3" x2="291.1" y2="443.3"/>
		</g>
	</g>
	<line class="st5" x1="52.8" y1="348.7" x2="59.8" y2="348.7"/>
	<line class="st5" x1="52.8" y1="297.4" x2="59.8" y2="297.4"/>
	<line class="st5" x1="52.8" y1="245.7" x2="59.8" y2="245.7"/>
	<line class="st5" x1="52.8" y1="195.8" x2="59.8" y2="195.8"/>
	<line class="st5" x1="52.8" y1="142.8" x2="59.8" y2="142.8"/>
	<path class="st5" d="M59.8,90.7"/>
	<line class="st5" x1="52.8" y1="90.7" x2="59.8" y2="90.7"/>
	<g>
		<g>
			<g>
				<g>
					<polyline class="st5" points="52.7,59.2 52.7,396.4 437.8,396.4 					"/>
					<g>
						<polygon class="st9" points="47.7,60.6 52.7,52 57.7,60.6 						"/>
					</g>
					<g>
						<polygon class="st9" points="436.4,401.4 445,396.4 436.4,391.4 						"/>
					</g>
				</g>
			</g>
		</g>
	</g>
</g>
<circle class="st10" cx="94.4" cy="377.5" r="7.5"/>
<circle class="st10" cx="143.9" cy="377.5" r="7.5"/>
<circle class="st10" cx="192.9" cy="377.5" r="7.5"/>
<circle class="st10" cx="242.5" cy="377.5" r="7.5"/>
<circle class="st10" cx="290.9" cy="377.5" r="7.5"/>
<circle class="st10" cx="340.4" cy="377.5" r="7.5"/>
<circle class="st10" cx="94.4" cy="357.5" r="7.5"/>
<circle class="st10" cx="143.9" cy="357.5" r="7.5"/>
<circle class="st10" cx="192.9" cy="357.5" r="7.5"/>
<circle class="st10" cx="242.5" cy="357.5" r="7.5"/>
<circle class="st10" cx="290.9" cy="357.5" r="7.5"/>
<circle class="st10" cx="340.4" cy="357.5" r="7.5"/>
<circle class="st10" cx="94.4" cy="337.5" r="7.5"/>
<circle class="st10" cx="143.9" cy="337.5" r="7.5"/>
<circle class="st10" cx="192.9" cy="337.5" r="7.5"/>
<circle class="st10" cx="242.5" cy="337.5" r="7.5"/>
<circle class="st10" cx="290.9" cy="337.5" r="7.5"/>
<circle class="st10" cx="340.4" cy="337.5" r="7.5"/>
<circle class="st10" cx="94.4" cy="317.5" r="7.5"/>
<circle class="st10" cx="143.9" cy="317.5" r="7.5"/>
<circle class="st10" cx="192.9" cy="317.5" r="7.5"/>
<circle class="st10" cx="242.5" cy="317.5" r="7.5"/>
<circle class="st10" cx="290.9" cy="317.5" r="7.5"/>
<circle class="st10" cx="340.4" cy="317.5" r="7.5"/>
<circle class="st10" cx="94.4" cy="297.5" r="7.5"/>
<circle class="st10" cx="143.9" cy="297.5" r="7.5"/>
<circle class="st10" cx="192.9" cy="297.5" r="7.5"/>
<circle class="st10" cx="242.5" cy="297.5" r="7.5"/>
<circle class="st10" cx="340.4" cy="297.5" r="7.5"/>
<circle class="st10" cx="94.4" cy="277.5" r="7.5"/>
<circle class="st10" cx="143.9" cy="277.5" r="7.5"/>
<circle class="st10" cx="192.9" cy="277.5" r="7.5"/>
<circle class="st10" cx="242.5" cy="277.5" r="7.5"/>
<circle class="st10" cx="340.4" cy="277.5" r="7.5"/>
<circle class="st10" cx="94.4" cy="257.5" r="7.5"/>
<circle class="st10" cx="143.9" cy="257.5" r="7.5"/>
<circle class="st10" cx="242.5" cy="257.5" r="7.5"/>
<circle class="st10" cx="340.4" cy="257.5" r="7.5"/>
<circle class="st10" cx="94.4" cy="237.5" r="7.5"/>
<circle class="st10" cx="143.9" cy="237.5" r="7.5"/>
<circle class="st10" cx="242.5" cy="237.5" r="7.5"/>
<circle class="st10" cx="340.4" cy="237.5" r="7.5"/>
<circle class="st10" cx="94.4" cy="217.5" r="7.5"/>
<circle class="st10" cx="242.5" cy="217.5" r="7.5"/>
<circle class="st10" cx="94.4" cy="197.5" r="7.5"/>
<circle class="st10" cx="242.5" cy="197.5" r="7.5"/>
<circle class="st10" cx="94.4" cy="177.5" r="7.5"/>
<circle class="st10" cx="242.5" cy="177.5" r="7.5"/>
<circle class="st10" cx="94.4" cy="157.5" r="7.5"/>
<circle class="st10" cx="242.5" cy="157.5" r="7.5"/>
<circle class="st10" cx="242.5" cy="137.5" r="7.5"/>
<circle class="st10" cx="242.5" cy="117.5" r="7.5"/>
<path class="st5" d="M622,617.5V-47.6"/>
</svg>
