<?xml version="1.0" encoding="utf-8"?>
<!-- Generator: Adobe Illustrator 22.1.0, SVG Export Plug-In . SVG Version: 6.00 Build 0)  -->
<svg version="1.1" id="Layer_1" xmlns="http://www.w3.org/2000/svg" xmlns:xlink="http://www.w3.org/1999/xlink" x="0px" y="0px"
	 viewBox="0 0 1000 333" style="enable-background:new 0 0 1000 333;" xml:space="preserve">
<style type="text/css">
	.st0{fill:#7E738C;}
	.st1{fill:none;stroke:#CCCCCC;stroke-width:3;stroke-miterlimit:10;}
</style>
<circle class="st0" cx="116.6" cy="284.3" r="9"/>
<circle class="st0" cx="150" cy="284.3" r="9"/>
<circle class="st0" cx="183.4" cy="284.3" r="9"/>
<circle class="st0" cx="216.8" cy="284.3" r="9"/>
<circle class="st0" cx="116.6" cy="263.2" r="9"/>
<circle class="st0" cx="150" cy="263.2" r="9"/>
<circle class="st0" cx="183.4" cy="263.2" r="9"/>
<circle class="st0" cx="216.8" cy="263.2" r="9"/>
<circle class="st0" cx="116.6" cy="242.2" r="9"/>
<circle class="st0" cx="150" cy="242.2" r="9"/>
<circle class="st0" cx="183.4" cy="242.2" r="9"/>
<circle class="st0" cx="216.8" cy="242.2" r="9"/>
<circle class="st0" cx="150" cy="221.1" r="9"/>
<circle class="st0" cx="183.4" cy="221.1" r="9"/>
<circle class="st0" cx="216.8" cy="221.1" r="9"/>
<circle class="st0" cx="150" cy="200" r="9"/>
<circle class="st0" cx="183.4" cy="200" r="9"/>
<circle class="st0" cx="216.8" cy="200" r="9"/>
<circle class="st0" cx="183.4" cy="179" r="9"/>
<circle class="st0" cx="250.4" cy="284.3" r="9"/>
<circle class="st0" cx="283.8" cy="284.3" r="9"/>
<circle class="st0" cx="317.2" cy="284.3" r="9"/>
<circle class="st0" cx="350.6" cy="284.3" r="9"/>
<circle class="st0" cx="250.4" cy="263.2" r="9"/>
<circle class="st0" cx="283.8" cy="263.2" r="9"/>
<circle class="st0" cx="317.2" cy="263.2" r="9"/>
<circle class="st0" cx="350.6" cy="263.2" r="9"/>
<circle class="st0" cx="250.4" cy="242.2" r="9"/>
<circle class="st0" cx="283.8" cy="242.2" r="9"/>
<circle class="st0" cx="317.2" cy="242.2" r="9"/>
<circle class="st0" cx="350.6" cy="242.2" r="9"/>
<circle class="st0" cx="283.8" cy="221.1" r="9"/>
<circle class="st0" cx="317.2" cy="221.1" r="9"/>
<circle class="st0" cx="350.6" cy="221.1" r="9"/>
<circle class="st0" cx="283.8" cy="200" r="9"/>
<circle class="st0" cx="317.2" cy="200" r="9"/>
<circle class="st0" cx="350.6" cy="200" r="9"/>
<circle class="st0" cx="384.2" cy="284.3" r="9"/>
<circle class="st0" cx="417.6" cy="284.3" r="9"/>
<circle class="st0" cx="451" cy="284.3" r="9"/>
<circle class="st0" cx="484.4" cy="284.3" r="9"/>
<circle class="st0" cx="384.2" cy="263.2" r="9"/>
<circle class="st0" cx="417.6" cy="263.2" r="9"/>
<circle class="st0" cx="451" cy="263.2" r="9"/>
<circle class="st0" cx="484.4" cy="263.2" r="9"/>
<circle class="st0" cx="384.2" cy="242.2" r="9"/>
<circle class="st0" cx="417.6" cy="242.2" r="9"/>
<circle class="st0" cx="451" cy="242.2" r="9"/>
<circle class="st0" cx="484.4" cy="242.2" r="9"/>
<circle class="st0" cx="417.6" cy="221.1" r="9"/>
<circle class="st0" cx="451" cy="221.1" r="9"/>
<circle class="st0" cx="484.4" cy="221.1" r="9"/>
<circle class="st0" cx="417.6" cy="200" r="9"/>
<circle class="st0" cx="451" cy="200" r="9"/>
<circle class="st0" cx="484.4" cy="200" r="9"/>
<circle class="st0" cx="451" cy="179" r="9"/>
<circle class="st0" cx="517.8" cy="284.3" r="9"/>
<circle class="st0" cx="551.2" cy="284.3" r="9"/>
<circle class="st0" cx="584.6" cy="284.3" r="9"/>
<circle class="st0" cx="618" cy="284.3" r="9"/>
<circle class="st0" cx="517.8" cy="263.2" r="9"/>
<circle class="st0" cx="551.2" cy="263.2" r="9"/>
<circle class="st0" cx="584.6" cy="263.2" r="9"/>
<circle class="st0" cx="618" cy="263.2" r="9"/>
<circle class="st0" cx="517.8" cy="242.2" r="9"/>
<circle class="st0" cx="551.2" cy="242.2" r="9"/>
<circle class="st0" cx="584.6" cy="242.2" r="9"/>
<circle class="st0" cx="618" cy="242.2" r="9"/>
<circle class="st0" cx="551.2" cy="221.1" r="9"/>
<circle class="st0" cx="584.6" cy="221.1" r="9"/>
<circle class="st0" cx="618" cy="221.1" r="9"/>
<circle class="st0" cx="551.2" cy="200" r="9"/>
<circle class="st0" cx="584.6" cy="200" r="9"/>
<circle class="st0" cx="618" cy="200" r="9"/>
<circle class="st0" cx="584.6" cy="179" r="9"/>
<circle class="st0" cx="651.6" cy="284.3" r="9"/>
<circle class="st0" cx="685" cy="284.3" r="9"/>
<circle class="st0" cx="718.4" cy="284.3" r="9"/>
<circle class="st0" cx="751.8" cy="284.3" r="9"/>
<circle class="st0" cx="651.6" cy="263.2" r="9"/>
<circle class="st0" cx="685" cy="263.2" r="9"/>
<circle class="st0" cx="718.4" cy="263.2" r="9"/>
<circle class="st0" cx="751.8" cy="263.2" r="9"/>
<circle class="st0" cx="651.6" cy="242.2" r="9"/>
<circle class="st0" cx="685" cy="242.2" r="9"/>
<circle class="st0" cx="718.4" cy="242.2" r="9"/>
<circle class="st0" cx="751.8" cy="242.2" r="9"/>
<circle class="st0" cx="685" cy="221.1" r="9"/>
<circle class="st0" cx="718.4" cy="221.1" r="9"/>
<circle class="st0" cx="751.8" cy="221.1" r="9"/>
<circle class="st0" cx="685" cy="200" r="9"/>
<circle class="st0" cx="718.4" cy="200" r="9"/>
<circle class="st0" cx="751.8" cy="200" r="9"/>
<circle class="st0" cx="785.4" cy="284.3" r="9"/>
<circle class="st0" cx="818.8" cy="284.3" r="9"/>
<circle class="st0" cx="852.2" cy="284.3" r="9"/>
<circle class="st0" cx="885.6" cy="284.3" r="9"/>
<circle class="st0" cx="785.4" cy="263.2" r="9"/>
<circle class="st0" cx="818.8" cy="263.2" r="9"/>
<circle class="st0" cx="852.2" cy="263.2" r="9"/>
<circle class="st0" cx="885.6" cy="263.2" r="9"/>
<circle class="st0" cx="785.4" cy="242.2" r="9"/>
<circle class="st0" cx="818.8" cy="242.2" r="9"/>
<circle class="st0" cx="852.2" cy="242.2" r="9"/>
<circle class="st0" cx="885.6" cy="242.2" r="9"/>
<circle class="st0" cx="818.8" cy="221.1" r="9"/>
<circle class="st0" cx="852.2" cy="221.1" r="9"/>
<circle class="st0" cx="885.6" cy="221.1" r="9"/>
<circle class="st0" cx="818.8" cy="200" r="9"/>
<circle class="st0" cx="852.2" cy="200" r="9"/>
<circle class="st0" cx="885.6" cy="200" r="9"/>
<circle class="st0" cx="852.2" cy="179" r="9"/>
<circle class="st0" cx="116.6" cy="242.3" r="9"/>
<circle class="st0" cx="150" cy="242.3" r="9"/>
<circle class="st0" cx="183.4" cy="242.3" r="9"/>
<circle class="st0" cx="216.8" cy="242.3" r="9"/>
<circle class="st0" cx="116.6" cy="221.2" r="9"/>
<circle class="st0" cx="150" cy="221.2" r="9"/>
<circle class="st0" cx="183.4" cy="221.2" r="9"/>
<circle class="st0" cx="216.8" cy="221.2" r="9"/>
<circle class="st0" cx="116.6" cy="200.2" r="9"/>
<circle class="st0" cx="150" cy="200.2" r="9"/>
<circle class="st0" cx="183.4" cy="200.2" r="9"/>
<circle class="st0" cx="216.8" cy="200.2" r="9"/>
<circle class="st0" cx="150" cy="179.1" r="9"/>
<circle class="st0" cx="183.4" cy="179.1" r="9"/>
<circle class="st0" cx="216.8" cy="179.1" r="9"/>
<circle class="st0" cx="150" cy="158" r="9"/>
<circle class="st0" cx="183.4" cy="158" r="9"/>
<circle class="st0" cx="216.8" cy="158" r="9"/>
<circle class="st0" cx="183.4" cy="137" r="9"/>
<circle class="st0" cx="250.4" cy="242.3" r="9"/>
<circle class="st0" cx="283.8" cy="242.3" r="9"/>
<circle class="st0" cx="317.2" cy="242.3" r="9"/>
<circle class="st0" cx="350.6" cy="242.3" r="9"/>
<circle class="st0" cx="250.4" cy="221.2" r="9"/>
<circle class="st0" cx="283.8" cy="221.2" r="9"/>
<circle class="st0" cx="317.2" cy="221.2" r="9"/>
<circle class="st0" cx="350.6" cy="221.2" r="9"/>
<circle class="st0" cx="250.4" cy="200.2" r="9"/>
<circle class="st0" cx="283.8" cy="200.2" r="9"/>
<circle class="st0" cx="317.2" cy="200.2" r="9"/>
<circle class="st0" cx="350.6" cy="200.2" r="9"/>
<circle class="st0" cx="283.8" cy="179.1" r="9"/>
<circle class="st0" cx="283.8" cy="158" r="9"/>
<circle class="st0" cx="384.2" cy="242.3" r="9"/>
<circle class="st0" cx="417.6" cy="242.3" r="9"/>
<circle class="st0" cx="451" cy="242.3" r="9"/>
<circle class="st0" cx="484.4" cy="242.3" r="9"/>
<circle class="st0" cx="384.2" cy="221.2" r="9"/>
<circle class="st0" cx="417.6" cy="221.2" r="9"/>
<circle class="st0" cx="451" cy="221.2" r="9"/>
<circle class="st0" cx="484.4" cy="221.2" r="9"/>
<circle class="st0" cx="384.2" cy="200.2" r="9"/>
<circle class="st0" cx="417.6" cy="200.2" r="9"/>
<circle class="st0" cx="451" cy="200.2" r="9"/>
<circle class="st0" cx="484.4" cy="200.2" r="9"/>
<circle class="st0" cx="417.6" cy="179.1" r="9"/>
<circle class="st0" cx="451" cy="179.1" r="9"/>
<circle class="st0" cx="484.4" cy="179.1" r="9"/>
<circle class="st0" cx="417.6" cy="158" r="9"/>
<circle class="st0" cx="451" cy="158" r="9"/>
<circle class="st0" cx="484.4" cy="158" r="9"/>
<circle class="st0" cx="451" cy="137" r="9"/>
<circle class="st0" cx="517.8" cy="242.3" r="9"/>
<circle class="st0" cx="551.2" cy="242.3" r="9"/>
<circle class="st0" cx="584.6" cy="242.3" r="9"/>
<circle class="st0" cx="618" cy="242.3" r="9"/>
<circle class="st0" cx="517.8" cy="221.2" r="9"/>
<circle class="st0" cx="551.2" cy="221.2" r="9"/>
<circle class="st0" cx="584.6" cy="221.2" r="9"/>
<circle class="st0" cx="618" cy="221.2" r="9"/>
<circle class="st0" cx="517.8" cy="200.2" r="9"/>
<circle class="st0" cx="551.2" cy="200.2" r="9"/>
<circle class="st0" cx="584.6" cy="200.2" r="9"/>
<circle class="st0" cx="618" cy="200.2" r="9"/>
<circle class="st0" cx="551.2" cy="179.1" r="9"/>
<circle class="st0" cx="584.6" cy="179.1" r="9"/>
<circle class="st0" cx="618" cy="179.1" r="9"/>
<circle class="st0" cx="551.2" cy="158" r="9"/>
<circle class="st0" cx="584.6" cy="158" r="9"/>
<circle class="st0" cx="618" cy="158" r="9"/>
<circle class="st0" cx="584.6" cy="137" r="9"/>
<circle class="st0" cx="651.6" cy="242.3" r="9"/>
<circle class="st0" cx="685" cy="242.3" r="9"/>
<circle class="st0" cx="718.4" cy="242.3" r="9"/>
<circle class="st0" cx="751.8" cy="242.3" r="9"/>
<circle class="st0" cx="651.6" cy="221.2" r="9"/>
<circle class="st0" cx="685" cy="221.2" r="9"/>
<circle class="st0" cx="718.4" cy="221.2" r="9"/>
<circle class="st0" cx="751.8" cy="221.2" r="9"/>
<circle class="st0" cx="651.6" cy="200.2" r="9"/>
<circle class="st0" cx="685" cy="200.2" r="9"/>
<circle class="st0" cx="718.4" cy="200.2" r="9"/>
<circle class="st0" cx="751.8" cy="200.2" r="9"/>
<circle class="st0" cx="685" cy="179.1" r="9"/>
<circle class="st0" cx="718.4" cy="179.1" r="9"/>
<circle class="st0" cx="751.8" cy="179.1" r="9"/>
<circle class="st0" cx="685" cy="158" r="9"/>
<circle class="st0" cx="718.4" cy="158" r="9"/>
<circle class="st0" cx="751.8" cy="158" r="9"/>
<circle class="st0" cx="785.4" cy="242.3" r="9"/>
<circle class="st0" cx="818.8" cy="242.3" r="9"/>
<circle class="st0" cx="852.2" cy="242.3" r="9"/>
<circle class="st0" cx="885.6" cy="242.3" r="9"/>
<circle class="st0" cx="785.4" cy="221.2" r="9"/>
<circle class="st0" cx="818.8" cy="221.2" r="9"/>
<circle class="st0" cx="852.2" cy="221.2" r="9"/>
<circle class="st0" cx="885.6" cy="221.2" r="9"/>
<circle class="st0" cx="785.4" cy="200.2" r="9"/>
<circle class="st0" cx="818.8" cy="200.2" r="9"/>
<circle class="st0" cx="852.2" cy="200.2" r="9"/>
<circle class="st0" cx="885.6" cy="200.2" r="9"/>
<circle class="st0" cx="818.8" cy="179.1" r="9"/>
<circle class="st0" cx="852.2" cy="179.1" r="9"/>
<circle class="st0" cx="885.6" cy="179.1" r="9"/>
<circle class="st0" cx="818.8" cy="158" r="9"/>
<circle class="st0" cx="852.2" cy="158" r="9"/>
<circle class="st0" cx="885.6" cy="158" r="9"/>
<circle class="st0" cx="852.2" cy="137" r="9"/>
<line class="st1" x1="116.5" y1="304.5" x2="885.5" y2="304.5"/>
</svg>
