<svg xmlns="http://www.w3.org/2000/svg" width="256" height="256" viewBox="0 0 256 256"><title>icon_sketch</title><path d="M47.2,133.3a47.1,47.1,0,0,1,0-94.1v5a42.1,42.1,0,0,0,0,84.1ZM47.2,10V130.8A60.4,60.4,0,0,0,47.2,10ZM92.5,202.9A45.1,45.1,0,0,1,47.4,248v-2.2a31.2,31.2,0,0,1,0-62.4V157.7A45.1,45.1,0,0,1,92.5,202.9ZM47.4,240.8V188.4a26.2,26.2,0,0,0,0,52.4ZM140.9,73.3a60,60,0,0,1,59.9-59.9h2.5V24.2a53.3,53.3,0,0,1,0,106.4v2.7h-2.5A60,60,0,0,1,140.9,73.3Zm5,0a55,55,0,0,0,52.4,54.9V18.4A55,55,0,0,0,145.9,73.3Zm92,136.6a38.1,38.1,0,0,1-34.6,37.9v2.7h-2.5a50.6,50.6,0,0,1,0-101.1h2.5V172A38.1,38.1,0,0,1,237.9,209.9Zm-39.6-55.5a45.6,45.6,0,0,0,0,91Z"/></svg>