<svg xmlns="http://www.w3.org/2000/svg" width="256" height="256" viewBox="0 0 256 256"><title>icon_sketch</title><path d="M6.5,249.3h-1V20h1ZM49.9,18.2h-1V248.7h1Zm47.5-3.4h-1V248.7h1ZM146,12.4h-1V251h1Zm51-2.3h-1V248.7h1Zm46.3,0h-1V248.7h1ZM50,69.2a27.2,27.2,0,0,0,0,54.4c14.8.3,26.9-11.8,27.2-27.2S65,69.2,50,69.2Zm64.3,69.5a27.8,27.8,0,1,0,27.8,27.8A27.7,27.7,0,0,0,114.3,138.7Zm28.9-73a15.1,15.1,0,1,0,15.1,15.1A15.1,15.1,0,0,0,143.2,65.7Zm54.5,42.9A17.4,17.4,0,1,0,215,125.9,17.3,17.3,0,0,0,197.7,108.6Zm2.3,88a15.1,15.1,0,1,0,15,15A15.1,15.1,0,0,0,200,196.6Z"/></svg>