<svg xmlns="http://www.w3.org/2000/svg" width="256" height="256" viewBox="0 0 256 256"><title>icon_sketch</title><path d="M256,78.2v3.1H1V78.2H3.7a65.4,65.4,0,0,1,130.7-2.6,33.1,33.1,0,0,1,65.9.5,20.4,20.4,0,0,1,40.6,2.1ZM216.8,93.9A33.1,33.1,0,0,0,183.7,126H182a60.9,60.9,0,0,0-73.1,0H65.5a28.7,28.7,0,0,0-57.2,0H1v3H105.2a61.1,61.1,0,0,0-20.5,44H1v3.1H256V173h-2.3a28.7,28.7,0,0,0-50.4-17.1A60.9,60.9,0,0,0,185.8,129H256v-3h-6.2A33,33,0,0,0,216.8,93.9ZM150.1,201.8a28.6,28.6,0,0,0-28.6,27.1H90.7a44.7,44.7,0,0,0-89.4,0H1v3H256v-3H178.7A28.6,28.6,0,0,0,150.1,201.8Z"/></svg>