<?xml version="1.0" encoding="utf-8"?>
<!-- Generator: Adobe Illustrator 24.0.1, SVG Export Plug-In . SVG Version: 6.00 Build 0)  -->
<svg version="1.1" id="Layer_1" xmlns="http://www.w3.org/2000/svg" xmlns:xlink="http://www.w3.org/1999/xlink" x="0px" y="0px"
	 viewBox="0 0 921.5 594.7" style="enable-background:new 0 0 921.5 594.7;" xml:space="preserve">
<style type="text/css">
	.st0{fill:#615468;}
	.st1{fill:#615468;stroke:#000000;stroke-width:1.2;stroke-miterlimit:4.8;}
	.st2{fill:#615468;stroke:#000000;stroke-width:3;stroke-miterlimit:12;}
	.st3{fill:#615468;stroke:#000000;stroke-width:1.5;stroke-miterlimit:12;}
	.st4{fill:#615468;stroke:#000000;stroke-width:1.5;stroke-miterlimit:12;stroke-dasharray:22.5,6,22.5,6,22.5,59.9999;}
</style>
<path class="st0" d="M733.2,15.6c1.6,5.7,0.1,11.3-3.6,15.1V61c-2.1,2.8-8.1,3.9-11.5,1.4c1.2-16.5-1.4-35.4-2.2-45.4
	C718.7,10.2,729.2,11.7,733.2,15.6L733.2,15.6z M717.3,18.5c0.8,0.2,1.1,0.8,1.4,1.4c2.7-0.2,2.8-3,3.6-5
	C719.6,15.1,717.6,15.9,717.3,18.5z M726,20.7c2.6,0.4,3.5-0.8,5-1.4c0.1-1.8,0.1-3.5-1.4-3.6C727.7,16.7,726.8,18.7,726,20.7
	L726,20.7z M717.3,23.6c-0.3,7.6,15.1,6.4,14.4-0.7C726.6,21.6,721.2,26.6,717.3,23.6z M726,30c-0.5,1.6-4,0.3-5.8,0.7
	c0,5.7-1.2,10.3-0.7,16.6c1.7,1.7,5,3,7.9,1.4C727.8,42.8,728.8,34.6,726,30L726,30z M726.7,50.9c-2,0.4-5.7-0.9-6.5,0.7
	C721.6,52.9,726.4,54.3,726.7,50.9z M720.2,55.2c1.2,0.9,6.3,1.6,6.5-0.7C723.6,55.4,720.7,52.6,720.2,55.2z M720.9,58.8h5v-1.4h-5
	V58.8z M720.9,61.7c1.4,0.4,4.1,1.3,5-1.4C723.6,61.6,722.4,59.5,720.9,61.7z"/>
<path class="st0" d="M753.3,80.4c8,4.7,13.8,11.6,19.4,18.7C764.9,94.3,759.4,87.1,753.3,80.4L753.3,80.4z"/>
<path class="st0" d="M737.5,81.2c12.4,8.3,24.4,20.7,30.2,33.1c-9.8-10.1-17.1-22.7-29.5-30.2C738.3,82.7,737.3,82.5,737.5,81.2
	L737.5,81.2z"/>
<path class="st0" d="M719.5,86.9c2.7-0.1,5.8-0.5,5,2.9C723.2,90.7,719.6,89.4,719.5,86.9z"/>
<path class="st0" d="M731,88.4c3.3,0.2,3.5,0.8,6.5,0c0.1,1.3-0.9,1.5-0.7,2.9C734.1,91,731.1,91.2,731,88.4z"/>
<path class="st0" d="M711.6,92c-2.3,0.3-2.8-1-4.3-1.4C707.4,88.3,711.9,89.5,711.6,92z"/>
<path class="st0" d="M702.2,90.5c0,2.1-1.9,2.4-2.2,4.3c-2.2-0.2-4.9,0.1-5-2.2C699.4,93.9,699.1,90.6,702.2,90.5L702.2,90.5z"/>
<path class="st0" d="M741.1,91.2c3.2,0,0.1,3.8,0,5c-2.6-0.8-6.5-0.2-7.2-2.9C737.7,93.5,740.4,95.2,741.1,91.2z"/>
<path class="st0" d="M726,96.3c-2.8-1-8.5-1-9.4,3.6c0.9,5.4,9.6,4.9,13,2.2c1.2-2.1-0.2-3.7,0.7-5c7.7,9.7-15.7,12.3-15.8,2.9
	C714.4,95.8,723.6,89.6,726,96.3L726,96.3z"/>
<path class="st0" d="M749,97c-0.7,2.8-4.7,0.4-6.5,0C743.3,94.1,746.7,97,749,97z"/>
<path class="st0" d="M697.2,97c2.1,1-0.2,3.6-0.7,4.3c-3.2-1.6-7.3,1.7-8.6-2.2C691.4,98.9,696.6,100.2,697.2,97L697.2,97z"/>
<path class="st0" d="M673.4,97.7c3.7,1.9-2.9,8.2-6.5,5C667.7,99.7,674.5,102.7,673.4,97.7z"/>
<path class="st0" d="M736.8,99.2h2.2c-0.2,1.7-0.5,3.4-2.9,2.9C735.9,100.7,736.9,100.5,736.8,99.2L736.8,99.2z"/>
<path class="st0" d="M682.8,99.9c3.2,1.1-0.9,2.8-0.7,5c-2.4-0.2-6.2,1-5.8-2.2C679.4,102.8,683.2,103.5,682.8,99.9z"/>
<path class="st0" d="M705.8,100.6c2.1,1-0.2,3.6-0.7,4.3c-2.3-0.4-4-1.3-5.8-2.2C699.6,99.4,705.1,104.3,705.8,100.6L705.8,100.6z"
	/>
<path class="st0" d="M782.1,100.6c9,7.6,13.3,19.8,13.7,36C793.2,124.4,789.5,110.1,782.1,100.6L782.1,100.6z"/>
<path class="st0" d="M744.7,104.2c-1.5-0.4-4.7,0.9-5-0.7C739.2,100.8,744.9,102.5,744.7,104.2z"/>
<path class="st0" d="M753.3,102c3.6,0.3-0.4,2.7,0,4.3c-2.4-0.2-6.2,1-5.8-2.2C750.3,104.3,753.3,104.6,753.3,102L753.3,102z"/>
<path class="st0" d="M777.1,102c8,6.4,11.4,17.4,13,30.2c-3.8-0.4-1.8-4-2.2-5.8C786,117.4,782,109.8,777.1,102L777.1,102z"/>
<path class="st0" d="M693.6,103.5c2.8-0.5,0,2.5,0,3.6c-3-0.2-6.8,0.6-7.2-2.2C690.2,104.3,692.7,106.8,693.6,103.5z"/>
<path class="st0" d="M669.8,104.9c0.8-0.1,1.3,0.2,1.4,0.7c0.1,1.3-0.9,1.5-0.7,2.9c-4.2-0.6-10.2,0.6-11.5-2.9
	C663.1,104.8,668.7,109.4,669.8,104.9z"/>
<path class="st0" d="M712.3,104.9c3.7,0.9-0.9,4.5-1.4,5.8c-1.2-1-4.6,0.3-4.3-2.2C710.5,109.4,711.5,107.2,712.3,104.9L712.3,104.9
	z"/>
<path class="st0" d="M702.9,105.6c3.6,2.3-2.5,4.6-5,2.2C698.3,104.5,702.4,109.1,702.9,105.6z"/>
<path class="st0" d="M679.2,107.1c3.3,0,0.2,3.3,0,4.3c-1.3-0.7-3.6-0.2-4.3-1.4C674,107,679.9,111.5,679.2,107.1z"/>
<path class="st0" d="M721.6,107.8c3.6,0.4-0.4,3.3,0,5c-2.5-0.1-5.5,0.3-5.8-2.2C719.3,111.2,721.2,110.3,721.6,107.8z"/>
<path class="st0" d="M750.4,107.8c2.3,1.9-0.7,4.5-0.7,6.5c-2.5-0.1-5.5,0.3-5.8-2.2C748.5,113.7,748.9,110.8,750.4,107.8z"/>
<path class="st0" d="M654.7,108.5c0.1,1.8-1.1,2.2-1.4,3.6c-1.9-1-5.7-0.1-5.8-2.9C650.6,110.2,652.3,109.8,654.7,108.5z"/>
<path class="st0" d="M740.4,111.4c-1.8,0.1-2.2-1.1-3.6-1.4C737.3,107.3,740.6,109.1,740.4,111.4z"/>
<path class="st0" d="M690,109.2c5.3,2.7-6.2,5.9-6.5,1.4C686.6,110.1,689.4,112.9,690,109.2z"/>
<path class="st0" d="M667.6,110c2.7,0.6,0.6,3,0,4.3c-4.3-0.3-8.7-0.4-11.5-2.2C659.6,109.3,666.7,116.2,667.6,110L667.6,110z"/>
<path class="st0" d="M758.4,110c3.6,1-0.9,5-1.4,6.5c-1.8-0.1-3.4-0.4-4.3-1.4C754.3,112.9,758,114.5,758.4,110L758.4,110z"/>
<path class="st0" d="M700,110.7c3.3,0,0.2,3.3,0,4.3c-2.6-0.1-5.8,0.5-5.8-2.2C697.3,113.7,699.4,113.8,700,110.7L700,110.7z"/>
<path class="st0" d="M731,110.7c3,0.9,0,3.7-0.7,5c-1.6-1-4.8-0.5-5.8-2.2C726.6,112,730.8,115.1,731,110.7z"/>
<path class="st0" d="M638.8,111.4c2.9,0.9-0.2,1.5,0,3.6c-2.5-0.6-5.8-0.4-6.5-2.9C634.9,111.6,637.9,114.4,638.8,111.4z"/>
<path class="st0" d="M779.2,111.4c3.3,1.5,4,5.6,4.3,10.1C781.6,118.7,780.2,115.2,779.2,111.4L779.2,111.4z"/>
<path class="st0" d="M710.1,112.1c-0.2,2.2-1.6,3.2-2.2,5c-2.3-0.1-5.5,0.7-5-2.2C707.6,116.4,707,112.4,710.1,112.1z"/>
<path class="st0" d="M649.6,112.8c-0.6,4.3-2.9,4.2-7.2,3.6C643,113.2,647.5,115.6,649.6,112.8L649.6,112.8z"/>
<path class="st0" d="M676.3,112.8c3.7,0.5-0.4,3.3-0.7,4.3c-1.3-0.7-3.6-0.2-4.3-1.4C670.7,113,676.7,116.9,676.3,112.8L676.3,112.8
	z"/>
<path class="st0" d="M740.4,113.6c0.5,2.6-1.6,2.8-1.4,5c-1.6-0.8-4-0.8-4.3-2.9C738.2,116.7,737.7,113.5,740.4,113.6L740.4,113.6z"
	/>
<path class="st0" d="M718,114.3c1.2-0.2,1.2,0.7,2.2,0.7c-0.7,2-2.2,3.1-2.9,5c-3-0.2-6.3,0.1-6.5-2.9
	C714.1,118.1,718.2,118.5,718,114.3L718,114.3z"/>
<path class="st0" d="M657.6,115c0.1,1.8-1.1,2.2-1.4,3.6c-2.7-0.1-6.2,0.4-6.5-2.2C653.8,117.6,654.7,116.5,657.6,115L657.6,115z"/>
<path class="st0" d="M687.1,115c3.4,0.2-0.5,3.2-0.7,4.3c-2.3-0.1-5.5,0.7-5-2.2C683.9,118.5,686.8,117.8,687.1,115z"/>
<path class="st0" d="M664.8,115.7c3.1,1,0.2,4.5-0.7,5.8c-1.4-1.5-5.7-0.1-5.8-2.9C662.1,119.4,664.1,119.4,664.8,115.7z"/>
<path class="st0" d="M746.1,115.7c1.2-0.2,1.2,0.7,2.2,0.7c-0.5,4.1-6,5.6-7.9,1.4C742.8,117.7,746.6,118.8,746.1,115.7L746.1,115.7
	z"/>
<path class="st0" d="M636.7,116.4c0.1,1.8-1.1,2.2-1.4,3.6c-2.5-0.3-6.9,1.2-6.5-2.2C632.5,119.4,634,117.7,636.7,116.4L636.7,116.4
	z"/>
<path class="st0" d="M768.4,116.4c13.3,14.2-24.4,17.1-32.4,20.9C744.4,128.5,772.5,132.9,768.4,116.4z"/>
<path class="st0" d="M696.4,117.2c3.5,0.4-0.3,4-0.7,5c-2.2-0.2-4.9,0.1-5-2.2C694.1,120.6,696,119.6,696.4,117.2z"/>
<path class="st0" d="M645.3,117.9c3.1,1-0.3,4-0.7,5.8c-1.9-1-5.7-0.1-5.8-2.9C643.1,121.3,644.1,121.3,645.3,117.9z"/>
<path class="st0" d="M727.4,117.9c3.1,1-0.3,4-0.7,5.8c-1.8-0.9-4.7-0.6-5-2.9C725,121.3,727,120.3,727.4,117.9z"/>
<path class="st0" d="M754,117.9c2.6-0.7,1.3,3.1,0.7,3.6c4.4,3.3,5.1-1.1,8.6-2.2c-0.1,2.5-2.1,3.2-2.2,5.8
	c-3.9-1.3-9.3-1.3-11.5-4.3C752.6,121.2,754.1,120.4,754,117.9L754,117.9z"/>
<path class="st0" d="M673.4,118.6c3.2,0,0.1,3.8,0,5c-2.2,0-4.7,0.4-4.3-2.2C671.9,121.9,673.5,121.1,673.4,118.6z"/>
<path class="st0" d="M706.5,119.3c-0.8,1.8-1.8,3.5-2.9,5c-2.8,0.4-4.2-0.6-5.8-1.4C702.4,123,702.8,121.2,706.5,119.3L706.5,119.3z
	"/>
<path class="st0" d="M621.6,120c3.7,0.5-0.4,3.3-0.7,4.3c-1.7-1.2-4.6-1.1-6.5-2.2C614.8,118.5,621.5,125.3,621.6,120L621.6,120z"/>
<path class="st0" d="M653.2,120c3.2,0.1-0.3,4-0.7,5c-2.6-0.1-5.8,0.5-5.8-2.2C650.9,124.1,651.8,122.9,653.2,120z"/>
<path class="st0" d="M735.3,120c3.8,0.2,0.7,2.1,0.7,4.3c0.7,1.5,2.8,1.6,5,1.4c1.8-0.6,0.8-4,3.6-3.6c0.2,2.6-1.3,3.5-1.4,5.8
	c-3.7,0.6-9.7-1.5-13-3.6C730.8,121.9,735.9,125,735.3,120L735.3,120z"/>
<path class="st0" d="M684.9,121.5c-0.2,2.2-1.6,3.2-2.2,5c-2.6-0.2-5.7-0.1-5.8-2.9C681,126.1,682.1,122.3,684.9,121.5L684.9,121.5z
	"/>
<path class="st0" d="M631.6,122.2c4.4,3.4-4.3,5.5-7.2,2.9C624.9,121.8,631.5,126.9,631.6,122.2z"/>
<path class="st0" d="M715.9,122.2c-1.1,1.8-1.5,4.3-2.9,5.8c-2.3-0.6-4.8-1-6.5-2.2c0.9-3.1,2.3,0.7,5,0
	C713.9,125.5,712.4,121.4,715.9,122.2L715.9,122.2z"/>
<path class="st0" d="M661.2,122.9h2.2c-0.3,2.1-1.1,3.7-2.2,5c-2.6,0.2-4-0.8-5.8-1.4C656.9,124.9,662.1,127,661.2,122.9z"/>
<path class="st0" d="M692.8,123.6c3.5,0.5-0.9,3.9-0.7,5.8c-3,0.4-4.9-0.4-6.5-1.4C689.2,127.1,691.9,128.1,692.8,123.6L692.8,123.6
	z"/>
<path class="st0" d="M723.8,124.4c3.9,1.3-1.3,4.6-0.7,7.2c-3.4-0.2-6.1-1.1-7.2-3.6c1.6,0.5,3.7,0.6,5,1.4
	C722.7,128.5,723.2,126.4,723.8,124.4L723.8,124.4z"/>
<path class="st0" d="M616.5,125.1c2.1,0.6-0.4,2.3,0,3.6c-2.2-0.6-4.9-0.8-5.8-2.9C613.3,125.2,615.7,128,616.5,125.1z"/>
<path class="st0" d="M642.4,125.1c0.3,2.7-1.5,3.3-2.9,4.3c-2.1-0.5-4.5-0.8-5.8-2.2C636.9,126.6,639.7,127.3,642.4,125.1z"/>
<path class="st0" d="M670.5,125.1c3.2,0.3-0.5,4.3-0.7,5.8c-2.6-0.2-5.7-0.1-5.8-2.9C667,129.5,670.4,128.4,670.5,125.1z"/>
<path class="st0" d="M751.2,125.1c2.4,0.3,1.4,4.4-1.4,3.6C749.6,126.9,750.8,126.4,751.2,125.1z"/>
<path class="st0" d="M649.6,126.5c2.9,0.8,0.1,4.4-0.7,5.8c-2.4-0.5-5.4-0.3-5.8-2.9C646.7,130.8,649,129.8,649.6,126.5z"/>
<path class="st0" d="M702.2,126.5c-0.1,2.8-2.4,3.3-2.2,6.5c-2.3-0.1-4.3-0.5-4.3-2.9C700.2,131.3,698.9,126.6,702.2,126.5
	L702.2,126.5z"/>
<path class="st0" d="M600.7,127.2c0.5,2.2-2,1.4-1.4,3.6c-2.9-0.2-6.8,0.6-6.5-2.9C596.4,129.7,597.8,129,600.7,127.2z"/>
<path class="st0" d="M628.8,128c3.3,1.2-0.6,2.4,0,5c-2.6-0.7-6-0.7-6.5-3.6C624.3,130.2,628.7,131.1,628.8,128z"/>
<path class="st0" d="M679.9,128c3.7,0.9-1.7,3.6-0.7,6.5c-2.5-0.6-5.8-0.4-6.5-2.9C677.1,133,678.8,131.5,679.9,128L679.9,128z"/>
<path class="st0" d="M731.7,128c3.6,1-0.9,5-1.4,6.5c-2.6,0.4-3.5-0.8-5-1.4C726.8,131.5,731.5,132.5,731.7,128z"/>
<path class="st0" d="M609.3,129.4c-0.2,2.2-1.6,3.2-2.2,5c-2.6,0.2-4-0.8-5.8-1.4C604.8,132.5,606.8,130.7,609.3,129.4z"/>
<path class="st0" d="M658.3,129.4c3.6,0.8-0.4,4.9-0.7,6.5c-1.6-0.8-3.6-1.2-5-2.2C654.7,132.5,659.1,133.6,658.3,129.4z"/>
<path class="st0" d="M711.6,130.1c0.2,2.1-1.6,2.2-1.4,4.3C707.5,134,709.2,129.8,711.6,130.1z"/>
<path class="st0" d="M739.6,130.1c1.4,0.3,1.3,5.1-1.4,3.6C738.1,131.9,739.3,131.5,739.6,130.1z"/>
<path class="st0" d="M688.5,131.6c3.4,0.8-1.2,4.7-1.4,6.5c-2.2-0.9-5.6-0.6-5.8-3.6c1.7,0.2,3,0.9,4.3,1.4
	C687.1,134.9,688.1,133.5,688.5,131.6L688.5,131.6z"/>
<path class="st0" d="M637.4,132.3h2.2c0,2.2-1.5,2.8-2.2,4.3c-2.1-0.3-3.7-1.1-5-2.2C633.7,132,637.7,136.6,637.4,132.3z"/>
<path class="st0" d="M592,133c3,0.9-0.6,2.5-0.7,4.3c-1.2-1.2-4.5-0.3-4.3-2.9C589.7,134.9,591.1,135.6,592,133L592,133z"/>
<path class="st0" d="M613.6,133h2.2c0,2.2-1.5,2.8-2.2,4.3c-1.5-1.4-6.1,0.4-5-3.6C609.8,133.7,613.9,136.1,613.6,133L613.6,133z"/>
<path class="st0" d="M666.9,133c2.3,0.4,0.2,5.6-2.2,5.8c0.3-3.9-2,0.7-4.3-2.2C661.4,133.8,666.9,137.8,666.9,133L666.9,133z"/>
<path class="st0" d="M709.4,135.9c-2.6-0.1-5.8,0.5-5.8-2.2C705.3,133.8,709.1,133.1,709.4,135.9z"/>
<path class="st0" d="M736,135.2h-2.9C732.6,132.4,736.6,132.4,736,135.2z"/>
<path class="st0" d="M720.9,133.7c0.3,3.2-2.1,3.7-2.2,6.5c-3.3,0-4.7-2-7.2-2.9c1-3.1,2.6,1,5.8,0
	C719,136.6,718.5,133.7,720.9,133.7L720.9,133.7z"/>
<path class="st0" d="M624.4,134.4h2.2c-0.1,2.5-2.1,3.2-2.2,5.8c-3.5-0.6-7.5-0.7-8.6-3.6c2.5,0.1,4.1,1.2,5.8,2.2
	C623.2,138,624.2,136.6,624.4,134.4z"/>
<path class="st0" d="M646,134.4c3.1,0.9-0.7,2.3,0,5c-2.8-0.1-5.2-0.5-5.8-2.9c2.3-0.3,2.8,1,4.3,1.4
	C645.3,137.5,644.3,135.5,646,134.4L646,134.4z"/>
<path class="st0" d="M696.4,134.4c3.8,1-1.2,4.2-0.7,6.5c-2.7,0-5-0.3-5-2.9C693.8,139.8,696.2,137.6,696.4,134.4L696.4,134.4z"/>
<path class="st0" d="M598.5,135.2c3.6,0.3-0.4,2.7,0,4.3c-2.6,0.4-3.5-0.8-5-1.4C594.3,136.2,599.5,138.7,598.5,135.2z"/>
<path class="st0" d="M675.6,135.9c3.2,0.3-0.5,4.3-0.7,5.8c-2.8-0.1-5.2-0.5-5.8-2.9C672.4,139.9,675.2,139.5,675.6,135.9z"/>
<path class="st0" d="M579.1,136.6c3.3,0,0.2,3.3,0,4.3c-2.8,0.2-3.7-1.5-5.8-2.2C574.6,136.4,579.4,141.1,579.1,136.6z"/>
<path class="st0" d="M655.4,136.6c2.4,2-1.4,3.9-0.7,6.5c-2.8-0.1-5.2-0.5-5.8-2.9C652.9,142,654.4,139.6,655.4,136.6L655.4,136.6z"
	/>
<path class="st0" d="M727.4,136.6c2.2-0.7,1.3,1.6,1.4,2.9c2.5-0.2,3.9-1.4,5.8-2.2c0.2,3.3-6.9,5-10.8,6.5
	c-0.3-1.4-1.6-1.8-1.4-3.6C726.1,141.8,726,139,727.4,136.6L727.4,136.6z"/>
<path class="st0" d="M633.8,137.3c1.2-0.2,1.2,0.7,2.2,0.7c-1,2.3-2.7,4-3.6,6.5c-2.6-0.7-6-0.7-6.5-3.6c2.6-0.5,2.8,1.6,5,1.4
	C632.1,140.9,633.5,139.7,633.8,137.3L633.8,137.3z"/>
<path class="st0" d="M706.5,137.3c1.8,2-1.2,5.5-2.2,7.2c-2.7,0-5-0.3-5-2.9C703.9,143.8,704.6,139.8,706.5,137.3L706.5,137.3z"/>
<path class="st0" d="M605.7,138c3.7,0.6-0.1,4.1-0.7,5c-1.8-0.3-3.3-1-4.3-2.2C599.8,137.9,606.6,142.6,605.7,138z"/>
<path class="st0" d="M568.3,138.8c2,1-0.6,3.2-0.7,4.3c-2.2,0-4.7,0.4-4.3-2.2C566.3,141.8,567.5,141.6,568.3,138.8L568.3,138.8z"/>
<path class="st0" d="M589.2,139.5c-0.3,2.4-2.1,3.2-2.9,5c-1.8-0.6-4.2-0.6-4.3-2.9C585.9,144.2,585.8,139.5,589.2,139.5
	L589.2,139.5z"/>
<path class="st0" d="M684.2,139.5c3.5,0.6-0.6,4.2-0.7,5.8c-2.8-0.1-5.2-0.5-5.8-2.9C681.3,143.8,683.5,142.7,684.2,139.5z"/>
<path class="st0" d="M613.6,140.2c0.8-0.1,1.3,0.2,1.4,0.7c0.4,2.8-1.8,3-2.2,5c-2.8-0.1-5.2-0.5-5.8-2.9
	C610.4,144.1,613.7,144.2,613.6,140.2z"/>
<path class="st0" d="M642.4,140.9c3.7,1.4-1.3,5.6-1.4,7.9c-2.2-0.2-3.2-1.6-5-2.2C639.6,146.5,641.5,145.2,642.4,140.9L642.4,140.9
	z"/>
<path class="st0" d="M662.6,140.9c3.6,0.5-0.2,4,0,5.8c-2.8-0.1-5.2-0.5-5.8-2.9C660,144.8,662.7,144.8,662.6,140.9z"/>
<path class="st0" d="M621.6,141.6c3.5,1.5-1.5,5.9-2.2,7.9c-1.6-0.8-3.6-1.2-5-2.2c0.2-2.1,2.7-1,3.6,0
	C620.1,146.4,620.2,143.4,621.6,141.6z"/>
<path class="st0" d="M692.8,142.4c2.2,2-1,4.7-1.4,6.5c-2.7,0.3-3.4-1.4-5-2.2C689.4,146.7,691.7,145.8,692.8,142.4z"/>
<path class="st0" d="M716.6,142.4c0.2,1.9-0.3,3.1-2.2,2.9C714.2,143.4,714.7,142.1,716.6,142.4z"/>
<path class="st0" d="M576.9,143.1c-0.1,2.1-1.6,2.7-2.9,3.6c-2.3,0.3-2.8-1-4.3-1.4C572.6,144.4,574.3,145.1,576.9,143.1
	L576.9,143.1z"/>
<path class="st0" d="M593.5,143.1c3.3,0,0.2,3.3,0,4.3c-2.8-0.1-5.2-0.5-5.8-2.9C589.9,144.5,593.6,146.8,593.5,143.1z"/>
<path class="st0" d="M671.2,143.8c3.6,1.2-1.3,5.1-1.4,7.2c-2.2-0.2-3.2-1.6-5-2.2c0.2-2.1,2.7-1,3.6,0
	C670.1,147.9,670.7,145.9,671.2,143.8z"/>
<path class="st0" d="M558.2,144.5c1.5,1.6-0.7,5.5-3.6,5C555.1,147.2,557.9,147.1,558.2,144.5z"/>
<path class="st0" d="M706.5,144.5c2.5,1.1,5.9,1.3,6.5,4.3C710.8,147.4,706.8,147.8,706.5,144.5z"/>
<path class="st0" d="M602.8,146c-0.2,2.7-2.3,3.5-2.9,5.8c-2.2-0.6-5-0.7-5-3.6C599.1,151,599.3,147.2,602.8,146z"/>
<path class="st0" d="M630.9,146c0,3.3-2,4.7-2.9,7.2c-2.8-0.1-5.2-0.5-5.8-2.9C628,153.4,627.2,147,630.9,146z"/>
<path class="st0" d="M651.1,146c3.4,0.6-1.3,4.1-0.7,6.5c-2.4-0.5-5.4-0.3-5.8-2.9C648.6,151.3,650,149,651.1,146L651.1,146z"/>
<path class="st0" d="M702.2,146c3,1.1-1.1,4.3-1.4,6.5c-2.8-0.1-5.2-0.5-5.8-2.9C699.1,151.4,701.1,149.1,702.2,146L702.2,146z"/>
<path class="st0" d="M565.4,146.7c-1.3,1.4-1.6,3.6-2.9,5c-2.5,0.6-3-0.8-4.3-1.4c-0.2-1.3,4-1.3,2.9,0.7
	C563,150.1,562.5,146.7,565.4,146.7L565.4,146.7z"/>
<path class="st0" d="M584.8,146.7c0.4,2.8-1.8,3-2.2,5c-2.4-0.3-3.2-2.1-5-2.9C580.5,148,582.3,148.7,584.8,146.7z"/>
<path class="st0" d="M679.9,148.1c3.3,0.8-1.1,5.3-1.4,7.2c-2.2-0.9-5.1-1.1-5.8-3.6C676.8,153.5,679,151.5,679.9,148.1L679.9,148.1
	z"/>
<path class="st0" d="M571.2,150.3c3.4,0.3-0.7,3.6-0.7,5c-2.7,0-5-0.3-5-2.9C568,153.8,570.8,153.1,571.2,150.3z"/>
<path class="st0" d="M589.2,150.3c3.6,0.3-0.4,2.7,0,4.3c-2.4,0-2.5-2.3-5-2.2C584.2,148.8,589.1,154.2,589.2,150.3z"/>
<path class="st0" d="M638.1,150.3c3.5,1.5-1.5,5.9-2.2,7.9c-0.9-1.7-4.6-0.7-4.3-3.6C635.6,156.9,637.3,153.2,638.1,150.3z"/>
<path class="st0" d="M659,150.3c3.1,0.2-1.1,3.7-0.7,5.8c-3.2-0.2-5.9-0.8-6.5-3.6c1.6,0.6,2.8,1.5,5,1.4
	C658.5,153.6,657.5,150.7,659,150.3L659,150.3z"/>
<path class="st0" d="M708,150.3c1.3,0.5,0.1,1.3,0,2.2c-24.4,10.1-57.2,27.2-87.1,31.7c-3.8,0.6-6.8-0.5-9.4-1.4
	c-2.6-4.6-3-11.4-6.5-15.1c-2.4-0.2-5.8,0.6-7.2-0.7c1.3-3.1,6.5-0.5,9.4-0.7c2.9,4.1,3.1,10.8,5.8,15.1
	c16.9,1.3,31.6-5.8,45.4-10.1c-0.2-1.5-1.9-1.4-2.9-2.2c2.9-1.1,5.7-2.4,7.2-6.5c2.2,2-1.7,4-1.4,6.5c8.3,0.4,16-6.1,24.5-7.9
	c-0.2-2.7-3.1-2.7-4.3-4.3c3.9,0.6,5.5-2.4,7.2-5.8c2.4,2.7-2.2,4.5-1.4,7.9C693.6,158.5,701.4,153,708,150.3L708,150.3z"/>
<path class="st0" d="M607.9,151c3.6,0.4-0.4,3.3,0,5c-2.4,0-3.8-1-5-2.2C602.8,150.6,608.6,156.6,607.9,151z"/>
<path class="st0" d="M597.8,153.2c3.4,0.3-0.7,3.6-0.7,5c-3.2,0.1-5.4-0.9-5.8-3.6C593.8,155.6,597.5,157.4,597.8,153.2z"/>
<path class="st0" d="M615.8,153.2c3.6,1-1.2,4.6-0.7,7.2c-2.4-0.5-3.5-2.2-5.8-2.9C612.4,156.8,615.5,157.9,615.8,153.2z"/>
<path class="st0" d="M668.4,153.2c-0.8,2.8-2.5,4.7-3.6,7.2c-1.4-1.3-4.4-0.8-4.3-3.6C665.2,159.7,665,153.8,668.4,153.2
	L668.4,153.2z"/>
<path class="st0" d="M578.4,153.9c-0.3,2.1-1.2,3.6-2.9,4.3c-1.8-0.4-3.7-0.6-3.6-2.9C575.1,157.3,575.9,154.6,578.4,153.9z"/>
<path class="st0" d="M647.5,153.9c3.5,1.7-1.9,6.1-2.2,8.6c-1.6-1.5-5.9-0.4-5.8-3.6c2.3-0.3,2.8,1,4.3,1.4
	C646.3,159.4,645.9,155.7,647.5,153.9z"/>
<path class="st0" d="M626.6,156c-0.4,3.4-3.3,4.4-3.6,7.9c-3.2,0.1-5.4-0.9-5.8-3.6c2.1-0.2,2.2,1.6,4.3,1.4
	C624.1,160.7,622.3,155.4,626.6,156L626.6,156z"/>
<path class="st0" d="M674.8,157.5c3.4,1-0.7,5.7-1.4,7.2c-1.9-0.9-4.4-1.3-5-3.6C672.5,162.2,674.4,161.5,674.8,157.5L674.8,157.5z"
	/>
<path class="st0" d="M586.3,158.2c0,2.2-1.5,2.8-2.2,4.3c-2.1-0.8-4.9-0.9-5-3.6C582.4,160.8,583.6,160,586.3,158.2L586.3,158.2z"/>
<path class="st0" d="M605,158.2c2,1-0.6,3.2-0.7,4.3c-3.5,0.6-3.3-2.4-5.8-2.9C600.3,157.8,604,162.7,605,158.2z"/>
<path class="st0" d="M567.6,158.9c2.2,1.4-1.1,3.1-0.7,5c-2.6,0.4-3.5-0.8-5-1.4C562.7,160.4,567.2,162.9,567.6,158.9z"/>
<path class="st0" d="M656.1,158.9c-0.6,2.7-2.4,4.3-2.9,7.2c-2.8-0.1-5.2-0.5-5.8-2.9c1.8-0.1,3,0.4,3.6,1.4
	C653.6,163.6,653,159.4,656.1,158.9L656.1,158.9z"/>
<path class="st0" d="M635.2,160.4c-1.4,3.2-2.6,6.5-4.3,9.4c-1.9-1.5-4.2-2.5-6.5-3.6c1-3.1,3.3,1,5.8,0.7
	C632.7,165.5,631.1,160,635.2,160.4z"/>
<path class="st0" d="M575.5,161.8c3.2,1.4-1.6,4.4-2.2,6.5c-1-1.1-3.8-0.6-3.6-2.9C573.7,166.3,574.7,164.1,575.5,161.8L575.5,161.8
	z"/>
<path class="st0" d="M611.5,162.5c3.3,0,0.2,3.3,0,4.3c-2.4-0.3-4.7-0.6-5-2.9C608.7,163.9,611.5,166.1,611.5,162.5z"/>
<path class="st0" d="M512.1,164c3.8,3.1,7.5,6.4,10.1,10.8C518,172,514.5,168.6,512.1,164z"/>
<path class="st0" d="M642.4,164.7c3.2,1.8-1.7,7.3-2.2,10.1c-2.7-0.1-4.7-1-5-3.6c0.9,0.7,2.7,0.7,3.6,1.4
	C640.4,170.3,641.7,167.8,642.4,164.7L642.4,164.7z"/>
<path class="st0" d="M581.2,166.1c3.7,0.9-1.1,4.2-1.4,5.8c-1.4-1.3-4.4-0.8-4.3-3.6C578.5,169.2,580.6,169.2,581.2,166.1z"/>
<path class="st0" d="M619.4,166.1c3.6,0.6-0.1,4.7-0.7,5.8c-1.9-0.7-4.1-1.2-4.3-3.6C616.3,169,620.2,169.9,619.4,166.1L619.4,166.1
	z"/>
<path class="st0" d="M571.2,169.7c1.7,0.2,0.4,3.2,0,3.6c-2.3-0.1-4.3-0.5-4.3-2.9C568.4,170.7,570.7,172.1,571.2,169.7z"/>
<path class="st0" d="M628.8,171.2c2.2,1.8-0.8,4.5-1.4,5.8c-1.9-0.7-4.7-0.6-4.3-3.6C626.1,174.9,628.2,175,628.8,171.2z"/>
<path class="st0" d="M616.5,173.3c1.5,1.6,0.1,6.3-2.2,6.5C614,176.5,615.8,175.5,616.5,173.3z"/>
<path class="st0" d="M606.4,187c-5.3-4.4-5.2-12.4-15.8-11.5c-10.5,0.9-31.8,16-42.5,19.4c2.9-4.6,12.4-8.1,21.6-12.2
	C584.3,176.1,602.5,166.8,606.4,187L606.4,187z"/>
<path class="st0" d="M526.5,178.4c8.2,7.9,14.9,21.1,15.8,33.8C538.9,199,532.9,188.5,526.5,178.4z"/>
<path class="st0" d="M473.2,287.8c2.2,0.9,3.1,3.1,5.8,3.6c1.1-2,1.1-8,0-10.1c-6.3-4.5-12.5-16.7-10.8-24.5c-1-3.3-3.6-5.1-6.5-6.5
	c-5.1,10.4,4.7,23.3,7.9,32.4c-6.4-7.1-14.3-23.1-8.6-35.3h2.2c6.2,4.2,17.2,22.1,18.7,33.8C483.3,292.6,475.7,296.2,473.2,287.8
	L473.2,287.8z M476.1,272.7c-0.8-4.2-2.3-7.8-5-10.1C471.7,267.1,473.2,270.6,476.1,272.7z"/>
<path class="st0" d="M745.4,308.7c0.4,8-0.4,15-0.7,22.3c-2.3,3.8-11.4,3.8-13.7,0c0.2-9.7-0.1-15.4,0.7-22.3
	C734.9,304.5,742.1,304.6,745.4,308.7z M733.2,309.4c-0.5,2.9,3,1.8,2.9,4.3c-2.3-0.8-1.7,1.1-2.9,1.4c0.5,8.9-4.4,17.9,7.9,16.6
	c2.4-4.3,2.7-11.5,1.4-18c-1.9-0.6-4,2.2-5,0c1.5-1.6,5.6-0.6,5.8-3.6C743.3,305.5,734.3,306.9,733.2,309.4L733.2,309.4z"/>
<path class="st0" d="M491.2,310.8c8.2,8.6,14.7,18.9,21.6,28.8C504.4,331.3,497.6,321.3,491.2,310.8z"/>
<path class="st0" d="M513.6,342.5c1.5,1.1,0.7,5.9-1.4,5.8C512.9,346.6,512.6,343.9,513.6,342.5z"/>
<path class="st0" d="M503.5,349c-0.7,2.5-5.9,4.2-7.2,3.6C497.5,350.3,500.5,349.6,503.5,349z"/>
<path class="st0" d="M289.6,437.6c65.3-29.1,134.1-54.5,199.4-83.5c1.2-0.3,1.4,0.6,1.4,1.4C424.1,382.9,355.9,412.4,289.6,437.6
	L289.6,437.6z"/>
<path class="st0" d="M747.6,356.9c0.9,8.4-17.1,9.8-18.7,2.9C730.3,354.3,744,351.4,747.6,356.9z M731.7,359.8
	c2.7,5,11.1,2.6,14.4-2.2C743,353.7,733.8,356.2,731.7,359.8z"/>
<path class="st0" d="M277.4,408.8c-6.9,3.7-12.9,5.8-19.4,8.6c-43,18.6-89.3,38.9-134.6,56.9C173.4,451.2,225.2,429.7,277.4,408.8
	L277.4,408.8z"/>
<path class="st0" d="M667.6,420.3c-4.5,4.2-14,7.1-19.4,7.9C653.7,424.5,660.9,422.7,667.6,420.3z"/>
<path class="st0" d="M672.7,421.7c-7.8,5.4-18.1,8.3-28.1,11.5C652.3,427.8,663.3,425.6,672.7,421.7z"/>
<path class="st0" d="M650.4,484.4c-2.7,2.8-10.7,0.3-10.8,5.8c0.8,6.6,13.2,6.2,16.6,2.2c0.9-3.3-2-2.8-1.4-5.8
	c1.9,1,3.4,2.3,2.9,5.8c-3.4,6.3-18.2,6.6-19.4-0.7C637.3,486.7,643.3,481.9,650.4,484.4z"/>
<path class="st0" d="M516.4,295.7c49.2-18.2,99-38.9,148.3-59c2.6-1.7,3.1-5.5,7.2-5.8c-1.2-3.2-1.5-10,0-15.8
	c13.7-4.2,27.7-10.1,41.8-15.8c15.1-6.2,28-13.7,43.9-17.3c7.5-1.7,14.6-7.9,20.9-7.2c10.2,1.1,22.1,22.9,28.1,30.2
	c12.1,14.8,21.7,24.7,20.9,48.2c-3.7,5.5-13.3,11.8-18.7,10.8c-2.8,8.9-16,1.3-22.3-4.3c-3.7-3.3-9.4-12.3-14.4-13
	c-5.3-0.7-14.8,5.3-21.6,7.9c-11.6,4.4-19.1,11.4-31.7,6.5c-11.9,5.2-26.6,7.4-31.7,19.4c-32.2,11.4-72.2,30.3-96,38.4
	c-2.5,0.7-5.3,1.3-7.7,2.6c-6.3,3.7-8.7,9.8-15.8,2.2c-7.2,4.6-13.7,9.8-19.4,15.8c3.3,6.9,10.7,14.6,13.7,23
	c2.3,6.4,4.1,16.8,1.4,21.6c-1.6,2.8-7.9,6.5-11.5,6.5c-7.4-0.1-14.8-11-20.2-16.6c-7.2-7.6-11.8-14.1-18-18.7
	c-21.5,3.4-35.5,10.9-55.4,19.4c-54,24.7-108.9,45.1-164.2,68.4c-27.1,11.4-55.2,23.1-84.2,32.4c-44.3,14.1-89.8,26.7-145.4,28.8
	c7.5-12.4,19.9-21.6,31.7-30.2c35.1-25.9,79.7-43.5,123.1-61.9l5.8-2.2c83.7-32.8,165.9-66,249.8-101.5c-9-15.2-29.9-42.8-25.9-66.2
	c0.8-4.8,8.7-13.1,17.3-12.2c8,0.8,11.7,11.3,15.8,17.3C492.8,263.7,504.5,279.8,516.4,295.7L516.4,295.7z M823.2,243.2
	c-1.8-16.4-11.6-26.3-22.3-39.6c-9.4-11.8-17.6-29.5-31-22.3c1.1,4.2,7.8,6.6,6.5,10.8c-5.3-2.3-8.3-10.4-15.8-7.9
	c-0.9,12.3,14.6,16.2,13,29.5c4.8,7.4,15.6,12.1,11.5,25.9c-1.5,2.1-5.2,2-6.5,4.3c7.7,7.4,11.8,18.4,25.9,19.4
	c0.6,0,0.9,0.1,1.4-0.7c8.7-19-6.7-35.6-13.7-48.2c-3.8-4.1-9.9-9.7-10.1-15.1c11.9,18.1,29.3,30.7,29.5,60.5
	C820.1,258.7,824.2,252.9,823.2,243.2L823.2,243.2z M756.2,188.4c-1.3,0.1-2.2-0.2-2.9-0.7c-24.3,11-50.5,20.1-74.9,31
	c4.1,5.8,10.8,20.8,19.4,13c-12.6,3.8-13-12.3-4.3-10.8c-1.2,2.4-4.6,2.6-5,5.8c1.9,5.1,14.9,5.1,14.4-2.2c-0.3-3.1-5.1-1.6-5.8-4.3
	c4.1-0.3,6.4,1.2,7.2,4.3c0.7,3.4-1.2,4.1-2.2,5.8c4.1-0.7,7.5-2.1,10.8-3.6c-1.5-14.1,15.3-15.4,24.5-10.8c0.2,2.4,2.1,3.2,1.4,6.5
	c8.7-0.9,13.2-6,21.6-7.2c1.3,0.1,0.4,2.4,1.4,2.9c2.9-0.7,5.6-1.6,7.9-2.9c0.3-4.1,0.1-7.8-2.9-8.6c-8.5,3.3-18.1,9.3-26.6,10.1
	c3.4-2.8,8.3-4.2,13-5.8c-8.7-1.8-6-15.9,3.6-12.2c-3.3,1.5-8.3,1.3-7.9,6.5c2.7,5,14.4,3.3,14.4-2.9c-0.6-2.5-4.2-2-5-4.3
	c2.3-0.4,2.2,1.3,3.6,0C760.6,194.2,757.6,192,756.2,188.4L756.2,188.4z M716.6,225.9c4.3-0.8,6.1-3.5,10.8-2.2
	c-1.3,1.4-0.1,1.8,0,3.6c-1.4,2.4-6.6,1.1-6.5,5c2.5,3.6,9.6,3.3,12.2,0c0.9-3.5-4.2-3.4-2.2-5.8c10.3,6.2-5.9,14.1-11.5,7.9
	c-7.2,7.5-20.1,9.2-30.2,13.7c-4.9-2.7-10.6-11.9-6.5-15.1c-0.9-0.1-1.7-0.2-1.4-1.4c-4.2,0.4-9.9,4.7-13.7,7.9
	c1.8,1,2.3-2.8,2.9-0.7c-5.5,6.2-16.7,6.8-23.8,11.5c1.2,2.4,4.2,3,4.3,6.5c-1.9,7.8-16.2,5.1-14.4-2.2
	c-37.3,11.9-71.8,26.6-105.8,41.8c14.4-3.6,31,8.8,22.3,23.8c7.9-3.4,15.1-14.3,26.6-9.4c34.8-14.4,70.4-28,105.1-42.5
	c5.5-12.3,22.8-12.7,33.8-19.4c14.4,3.4,25.2-4.5,36.7-9.4c9.4-4,18.3-6.9,25.9-11.5c-3.1-3.8-5.9-8.1-10.1-10.8
	c-5.6,0.2-11,6.2-15.1,1.4c-8.1,3.2-20.9,11-26.6,0.7c2.9-0.2,3.6,1.7,6.5,1.4C734.5,210.1,709.8,216.1,716.6,225.9L716.6,225.9z
	 M674.8,226.6c11.9-3.9,5.1,16.3,14.4,17.3c0.6-12.8-7.8-16.7-14.4-22.3V226.6z M716.6,236c-1.6-1.5,0-6.2-1.4-7.9
	c-9.1,1.7-14.9,6.7-23.8,8.6c0.3,2.9-0.7,6.9,0.7,8.6C700.2,242.8,711.9,237.2,716.6,236L716.6,236z M763.4,238.8
	c-11.7,5-24.4,8.8-34.6,14.4c0.2,1.7,1.1,2.7,0.7,5c14.1-4.9,29.4-11,42.5-16.6c3.9-1.7,12-2.9,10.8-9.4
	C775.2,231.1,769.5,236.2,763.4,238.8L763.4,238.8z M558.9,367c-2.8-10.9-13.2-22.8-20.2-33.1c-21.6-31.9-46.6-65.1-66.2-95
	c-2-2.5-6-5.3-7.8-5.6c-1.1-0.1-5,0-4.4,1.6c0.7,2.2,7.7,4.6,5.7,7.6c-2.7-2.1-6.7-6.9-10.1-4.3c-4.3,3.2-3.6,8.6-2.9,14.4
	c2.5,21.2,17.1,44,28.8,54.7c4.3-2.5,6.6-6.9,12.2-7.9c5.3,5.3,10,13.7,16.6,22.3c5.3,7,15.6,16.1,16.6,23
	c0.5,3.4-1.1,11.9-5.8,10.8c10,10.6,16.7,24.5,31.7,30.2c0.9-15.4-9-27.6-16.6-38.9c-23.3-34.8-46.6-68.9-67.7-103
	c29.2,44.2,64.5,88.3,87.8,136.8C561,381.1,559.9,370.6,558.9,367L558.9,367z M690.7,261.9c-1,3.1-4.5,6.7-2.9,10.1
	c3.4,0.2-0.9-3.2,1.4-4.3c11.5,0.6,20.9-6.9,31-10.1c0.3-2.5-0.3-4-0.7-5.8C708.1,253.3,701.1,259.3,690.7,261.9L690.7,261.9z
	 M721.6,257.6c1.6,0.8,4.3,0.5,5.8,1.4c0.6-1,0.1-5.4-0.7-7.2h-4.3C721.2,252.9,721.7,255.5,721.6,257.6L721.6,257.6z M642.4,256.1
	c1.5-0.4,4.7,0.9,5-0.7C646.5,254.4,642.4,254,642.4,256.1z M682.8,271.2C654.1,283.7,619,296,590.6,308c-3.2,1.3-10.1,3.1-7.9,8.6
	c17.3-4.9,34.9-12.2,52.6-19.4c17.5-7.2,36-13.4,51.1-23C685,273.3,685.9,270.3,682.8,271.2L682.8,271.2z M553.2,308.7
	c-0.3-11.5-19.4-11.3-31.7-7.9c1,4.8,3.7,7.8,7.2,10.1c-0.5-12,19.2-11.4,19.4-2.9c0.2,6.9-11,8.7-18,5.8c2.2,3.8,3.6,8.4,7.9,10.1
	C542.6,318.4,553.4,317.1,553.2,308.7L553.2,308.7z M530.1,310.1c3.5,5.3,15.4,4.9,16.6-2.9C543.4,301.4,530.2,301.5,530.1,310.1z
	 M103.9,474.3c-11.3,7.9-23.4,15.7-31,27.4c43.6-4.7,83.5-13.5,121.7-25.2c37.3-11.4,71.9-26.9,107.3-41
	c51.9-20.7,105.8-42.4,157.7-64.8c17.3-7.5,44.4-21.4,63.4-19.4c-0.2-2.3,1.3-3,0.7-5.8c-1.5-1.5-6.9,1.3-7.2-2.9
	c2.5,0.2,3.5,1.8,6.5,1.4c-9.2-14.3-18.6-28.4-30.2-40.3c-3.8,0.5-5,3.6-7.2,5.8c-51.6,20.4-97.2,39.6-147.6,60.2
	c-16,6.6-33.3,13.5-48.2,19.9c-2.6,8.3-0.5,16.6-10.1,18.5c4.5-3.5,7.7-8.1,6.5-17.3C224.4,417.4,155.7,438.1,103.9,474.3
	L103.9,474.3z M542.4,332.5c0.2,1.5,1.9,1.4,2.2,2.9c9.4-4.5,16.1-11.7,24.5-17.3c-0.5-2.7,1.2-3.1,0.7-5.8
	C559.3,317.7,549.3,323.5,542.4,332.5L542.4,332.5z M570.4,317.3c0.8,0.3,1.6,0.8,2.2,1.4c-1.1,0.6-2.3,1.1-2.2,2.9
	c0.5,3.3,6.2,5.1,8.6,2.2c1.1-4.6-3.4-3.8-3.6-7.2c2.8-0.8,2.6,2.5,4.3,0.7c0.8-5.1-3.7-5-7.9-5
	C571.8,314.3,570.6,315.3,570.4,317.3L570.4,317.3z M538.8,326c4.4-0.3,15.9-7,13.7-11.5C549,319.4,542.7,321.5,538.8,326z"/>
<path class="st0" d="M564,359.8c2.7-10.7-1.5-25.4,14.4-23.8c-1-3.5-7.3,0.2-8.6-1.4c14.7-7.5,13.2,16.3,15.1,27.4
	C580.1,371,567.5,367,564,359.8L564,359.8z M569.7,338.9c0.8,3.3,8,0.1,10.1,2.2C579.7,337,572.6,338,569.7,338.9z M568.3,345.4
	c4.8-0.9,8.1-0.6,12.2,0.7C580.5,341.2,569.1,341.2,568.3,345.4z M567.6,350.4c4.5-2.2,12,1.4,13.7-0.7
	C579.5,346,568.3,345.2,567.6,350.4z M567.6,359.8c0.8-5,5.5-6,10.1-7.2C571.9,349.9,563.5,355.2,567.6,359.8z M571.9,361.3
	c1.9,0.7,4.8,1.3,5.8-0.7C574.8,361.3,572.6,358.4,571.9,361.3z M574,362.7c0.6,2.3,0.6,1.5-0.7,2.9c3,1.1,7.8-1.6,9.4-4.3
	C578.5,361.1,576.7,365.4,574,362.7L574,362.7z"/>
<path class="st0" d="M542.4,122.9c-3.4,2.4-7.6,2.3-10.8,0c-2.2-14.2,3.1-29.8-2.9-38.9c-0.1-4.1,0.3-7.8,2.2-10.1
	c3.7-1.1,10.2-3.6,14.4,0c2.3,5.3,1.7,11.1-2.2,14.4C542.9,105.2,543,109.8,542.4,122.9L542.4,122.9z M538.8,74
	c3.1,3.2-3.2,4.6,1.4,7.2c0.5-1.9,3.4-1.4,4.3-2.9C545.6,74,540.5,73.1,538.8,74L538.8,74z M530.8,75.4c-1.5,3.9,3.1,3.9,1.4,5.8
	c1.8-0.4,2.5-1,3.6,0.7c-0.8,1.4-5.3-1.7-5.8,1.4c1,4.6,15.5,6.1,14.4-1.4c-4.1-1-3,3.2-6.5,2.9C536.8,80.6,536.4,73,530.8,75.4
	L530.8,75.4z M533.7,111.4c2.4,1.2,4.9,0.2,7.2-0.7c0-8.6,0.8-15.4,0-21.6H533C533.1,98,531.2,104.8,533.7,111.4L533.7,111.4z
	 M540.2,112.8H533C532.8,115.9,540.4,115.9,540.2,112.8z M533.7,117.2c2,0.7,7.1,1.8,7.2-1.4C538.1,115.8,535.5,116.1,533.7,117.2z
	 M540.2,119.3c-2.3-0.1-5.3,0.5-6.5-0.7C532.9,121.8,540.1,121.5,540.2,119.3z"/>
<path class="st0" d="M803.7,138c-2.4,2.2-7.4,1.7-9.4,4.3c-5.2-2.4-12-2.8-20.2-2.2c-27.6,2.2-52.6,18.5-80.6,30.2
	c-17.5,7.3-38.5,16.6-60.5,22.3c-7.9,2-18.5,4.8-23.8,3.6c-6.6-1.5-9.6-9.7-15.1-11.5c-15.4,5.5-30.2,11.5-43.2,19.4
	c0.1,5.2,1.2,9.4,1.4,14.4c-12.3,8.4-18.6-8.1-25.2-14.4c4.7-12.9-8.3-17.2-13.7-24.5c-3.4-0.5-4.6,1.1-7.2,1.4
	c-13.5-5.9-7.9-27.4,9.4-23c55-27.9,124.7-58.3,193.7-75.6c13.7-3.4,29.1-5.2,39.6-11.5c9.2-5.5,19,7.8,25.9,13.7
	C789.3,96.9,805.1,109.9,803.7,138L803.7,138z M545.2,148.1c4.6,3.6,7.3,9,13,11.5c-2.1,4.1,3.7,9.2,5.8,7.2
	c-3.5,17,19.4,5.5,27.4,1.4c-0.2-3.2-6.7-3-5-5.8c2.7,3.2,7.2,1.2,7.9,0c-0.3,2.6-1.2,4.2,0,6.5c-10,2.3-18.4,12.1-30.2,7.9
	c-6.2-10.1-10.6-22-21.6-27.4c-6.7,3.6-14.6,6.1-20.9,10.1c1.5,3,3,6.1,6.5,7.2c1.6-2.4,7.4-7.8,10.8-3.6c-4.8-0.3-8.2,0.9-8.6,5
	c1.6,4.7,10.3,4.2,13.7,1.4c1.8-2-1-4.4,0.7-5.8c4.4,6.1-3.2,10.7-10.8,9.4c5.6,8.1,11,16.3,15.1,25.9c16.7-4.9,27.2-16,47.5-17.3
	c10.4,12.4,20.3,11.2,37.4,6.5c21.4-5.9,41-15,58.3-22.3c26.7-11.3,52.7-26.1,78.5-29.5c11.1-1.5,22,2.9,28.8-0.7
	c1-29.3-17.8-40.8-32.4-54c-3.9-3.6-8.2-8.6-13.7-8.6c7.4,6.9,17.1,13,22.3,22.3c-10.2-5.3-14.8-19.6-27.4-20.2
	c-0.2,2.6,6.1,2.5,3.6,5c-5.5-4.5-10.1-0.8-15.8,0.7c-17.9,4.7-37.4,6.2-50.4,13c3.1-0.1,0.5,4.2-0.7,4.3c-2.4,0-5.1,0.3-5-2.2
	c2.4,0.3,5.6,1.9,5-2.2C635.9,106.2,583.8,130,545.2,148.1L545.2,148.1z M522.2,165.4c-2.6-2.5-7.5-4-12.2-3.6
	c0,1.2-0.6,1.8-1.4,2.2c-1.3-1.4-2.6-0.2-4.3,0c-5.1,5.3,0.3,15.1,6.5,13c-1.5-0.6-3.7-4.2-0.7-5c8.9,6.7,16.3,14.9,23,23.8
	c-0.6,2.7-0.6,6.1-1.4,8.6c5.8,3.6,9.5,17.4,18,11.5C547.3,197,534.5,177,522.2,165.4z"/>
<path class="st0" d="M620.1,426.8c11.4-10.9,22.4-20.2,33.8-30.2c10.3-9,22.9-14.1,37.4-20.2c6-2.5,14.2-4.9,20.2-8.6
	c5.3-3.4,6.6-10.9,11.5-14.4c8.9-6.3,26.2-6,36.7-2.2c4.3,1.6,8.2,5.1,14.4,5.8c18,2,32.1-7.5,50.4-8.6c-1.2-3.9-5.4-4.7-6.5-8.6
	c2.2-5.4,1-9.7,2.9-15.1c8.5-3.7,21.4-2.3,28.8,2.9c4.3,3,10.9,12.5,11.5,16.6c0.5,3-1.7,4.6-2.2,8.6c-0.4,3.4,1.7,5.5,0.7,7.9
	c-1.4,3.6-6.9,4.7-7.9,8.6c-22.8,13.6-52.6,13.5-82.1,18.7c-16.3,2.9-32.8,7.3-47.5,12.2c-15.2,5.1-28.2,12.3-41,16.6
	c5.1-6.4,15.1-10.1,23.8-13.7c8.4-3.4,18-7.4,27.4-10.1c35.7-10.3,78.6-9.6,110.9-23.8c-14.4,3.1-33.5,11.6-52.6,10.1
	c23.3-4.7,47.7-6.4,61.9-18.7l-2.9,1.4c-51,20.5-125.5,17.5-167,47.5c29.5-14.3,60-23.8,98.6-29.5c-2.4,3.5-7.9,2.9-11.5,3.6
	c-32.7,6.4-66.3,16.2-91.4,30.2c2.7-4.6-0.6-1-3.6-2.9c4-6.2,12-8.5,18.7-11.5c20-9,42.4-15.9,67.7-20.9c16.6-3.3,33.9-5.5,50.4-8.6
	c15.6-3,32-6.5,42.5-16.6c-17.7,9.8-41.9,16.5-65.5,18c3.7-3.3,9.9-2.8,15.1-3.6c16.7-2.6,41.1-6.7,49.7-18
	c9.3-12.3-12-28.3-29.5-22.3c-1.1,4,3.2,2.6,2.9,5.8c-1.3,0.1-1.5-0.9-2.9-0.7c2.2,5,7.2,7.2,10.8,10.8c1.9-3.4-5.4-3.7-5-7.9
	c3.2,2.8,8,4.1,7.9,8.6c-0.2,8.5-19.5,9.3-27.4,10.8c-11.9,2.3-21.8,6.2-31.7,6.5c-10.8,0.3-18.1-8.5-29.5-9.4
	c-6.7-0.5-17.4,0.5-22.3,3.6c-6.1,3.9-6.6,13-14.4,16.6c-7.5,3.4-15.2,5-21.6,7.9c-6.6,3-16.8,6.3-23,10.1
	c-9.7,5.9-14.4,14.8-24.5,23c-4.7,3.8-11.4,5.3-15.8,11.5c3,3.8,7.3,6.1,11.5,8.6v12.2c13.8-3.9,26.6-8.9,38.9-14.4
	c0.3-4.3-0.2-8-0.7-11.5c-2.6-3.8-8.7-4.3-11.5-7.9c13.9-12.8,32.9-19.5,52.6-25.9c19.4-6.4,40.6-12.8,63.4-15.1
	c-4.2,3.5-10.1,3.3-15.1,4.3c-34.6,6.9-71.5,16.9-96.5,35.3c9.5,3.5,14.2,10.8,10.8,24.5c-5.2,2.1-13.4,4.4-23,7.9
	c-7.8,2.8-16.9,9.2-22.3,8.6c-3.5-0.4-22.2-14.1-10.8-18.7C622.2,428.8,622.4,430.4,620.1,426.8L620.1,426.8z M830.4,346.1
	c-2.9-2.1-5.6-4.5-7.9-7.2C821.1,342.2,827.6,347,830.4,346.1z M833.2,345.4c-0.6-1.9-4-4.6-5-3.6
	C830.2,342.7,830.9,344.9,833.2,345.4z M635.2,435.4c-0.5,2.4,0.9,6.7-0.7,7.9c-3.3-1.1-8.6-3.6-7.9-6.5c2.2,0.1,4.7,4.5,5.8,1.4
	c-2.8-1.4-4.7-3.9-7.9-1.4c2.3,5.1,7.1,7.8,12.2,10.1c1.5-2.6,0.4-7.8,0.7-11.5c-3.2-1.4-6.2-6.7-9.4-5.8
	C630.2,431.8,633.2,433.1,635.2,435.4z"/>
<path class="st0" d="M553.2,534.8c1.4,4.1,4.4,6.6,6.5,10.1c1.3,13.5-5.3,19.2-13.7,23c2.9,5.5,9.4,11.2,10.8,15.8
	c-12.4,12.9-28.5,1.4-36.7-8.6c-12-14.2-22.1-42.3-18-56.9c7.7-6.6,17.7-4.2,28.1-7.9c22.6-8.2,45.2-21,68.4-31
	c23.8-10.3,47.3-20.3,69.8-29.5c2.3,2,3.7,4.9,5.8,7.2c17.4-5.2,39-14.8,58.3-22.3c6.2-2.4,15.3-7.8,19.4-7.2
	c7.6,1.1,10.4,12,12.2,18.7c-3.6,0.2-3.9-2.9-5.8-4.3c-3,0.1-4.3,1.9-5,4.3c2.5,2.7,1.6-4.1,5-2.9c-1.9,3.1-1.1,7.1,2.9,7.9
	c4.5-2,8.5-8.8,14.4-7.9c4,0.6,7.8,6.8,7.9,10.8c-4-0.6-12-13.2-16.6-0.7c-11.3,3.1-21.2,7.6-31.7,11.5c-3.6,1.7-1.9,4.6-5,7.2
	c-4.5,3-9,0.3-13.7,0.7c-10.2,1-18.6,9-28.8,10.8c-6.1-5.9-15.2-12.4-26.6-12.2c-22.3,0.3-35.9,22.1-44.6,36c-3.2,1-6.3,2.5-8.6,3.6
	C590.4,518.6,570.4,525.8,553.2,534.8L553.2,534.8z M745.4,431.8c-6.3,5.6-18.1,9-25.2,11.5c-11.2,6.1-29.8,11-42.5,18
	c1.3,4.9,8.5,7.5,5,13c1.3,1.9,2.9,3.4,4.3,5c3.2,0.1,5.9-0.4,6.5-2.9c-3.5,0.1-6.6-0.2-7.2-2.9c2.6,0.2,4.3-0.5,5-2.2
	c-1.3-0.2-3.6,0.7-2.9-1.4c2.7-0.5,7.2,0.9,8.6-0.7c-3.4-3.9-10.1,0.8-12.2,0c3.2-6.7,20.1-2.8,13.7,5.8c4.9-0.2,7.7-2.4,11.5-3.6
	c-1.3-9.8,15.2-10.9,18-4.3c-3.7-0.5-14.1-5-15.8,2.9c7-1.8,19.6,5.1,17.3-6.5c9.9-2.6,18-7,27.4-10.1c-5.9-3.8-8.1-12.9,1.4-14.4
	C756.2,432.5,751.8,431,745.4,431.8L745.4,431.8z M646.8,464.9c5.2-1.4,11.3-3,17.3-1.4c-0.4-3.3,4.3-5.3,2.2-7.9
	C659.6,458.5,651.2,459.8,646.8,464.9L646.8,464.9z M666.2,462.8c2.2-0.9,2.9-3.3,4.3-5C667.8,458.1,667.1,460.5,666.2,462.8z
	 M666.9,464.9c3.4,0.4,5.5,2.2,9.4,2.2c-1.2-2.9-2.7-5.5-5-7.2C670.1,461.9,668.8,463.7,666.9,464.9z M625.2,482.9
	c1.2,7.6-6.3,10.3-7.2,18c11.6-14.2,22.7-35.1,50.4-31c3,0.5,8.4,5.5,10.8,0.7C660.8,459.6,632.6,466.6,625.2,482.9L625.2,482.9z
	 M635.2,468.5c-36.7,10.8-92.6,43.6-108.7,46.8c-8.3,1.9-19.1-0.7-22.3,8.6c1.6,1.5,5.5,0.7,5,4.3c-2.3,0.8-4.4-4.4-5-0.7
	c-0.3,5.6,0.8,9.7,2.2,13.7c0.7,2,2.5-1.3,3.6,0.7c6.5,9.9,13.7,18.9,20.9,28.1c3-2.8,6.7-4.8,10.8-6.5c7.3,4.2,16.7-6.3,16.6-16.6
	c-8.1-11.4-29-12.2-41.8-7.9c1.5-1.6,4-2.2,6.5-2.9v-8.6c33.4-13.4,67.8-25.8,100.1-40.3c-9.8,1-19,6-28.1,9.4
	c-28.5,10.6-55.9,22.5-83.5,33.1c-1.8,2.3-0.9,7.2-3.6,8.6c-0.1-3.7,1.5-5.7,1.4-9.4c26-10.5,57.7-23.2,85-33.8
	c7.9-3.1,23-7.2,28.8-11.5c1.8-1.3,2.5-4.4,4.3-6.5c2.8-3.3,9.4-6.5,8.6-8.6C635.7,468.5,635.5,468.5,635.2,468.5L635.2,468.5z
	 M534.4,526.1c13.1,5.8,20.2-0.6,31.7-5.8c14-6.4,25.7-11.3,38.2-17.3c5.8-2.8,14.8-3.9,14.4-10.8
	C589.5,502.4,561,513.3,534.4,526.1z M582,516c-10.8,5.2-22.4,8.3-31,15.8c10.4-5.4,21.9-9.4,33.1-14.4c11.1-5,23.4-8.5,32.4-15.8
	c-0.2-0.8-0.8-1.1-1.4-1.4C604.1,505.3,593,510.7,582,516z M524.4,529c0.1,2.3-0.5,5.3,0.7,6.5c11.8-2.3,23.2,1,29.5,6.5
	C550.4,531.5,538.2,525.7,524.4,529z M552.4,583c-3.1-5.8-7-10.8-11.5-15.1c-2.2,0.2-3.2,1.6-5,2.2c2.9,4.1,8.8,9,8.6,13.7
	c-2.6-3.9-6-6.9-7.9-11.5c-4.9,5-6.2,0.1-10.1-5c-6.1-8.1-14.6-20.2-19.4-24.5C512.3,560.1,529.8,594.9,552.4,583L552.4,583z"/>
<path class="st0" d="M556,578.7c4.7-7,12.7-11,20.2-15.1c7.4-4.1,15.8-8.5,25.9-9.4c-0.7-3.2,3-5.2,2.2-10.8
	c20-16.5,43.8-32.5,75.6-42.5c14-4.4,30.9-7.7,47.5-11.5c17.2-4,40.8-7.6,42.5-26.6c6.3-3.5,13.4-6.3,20.2-9.4
	c2.5,2.1,21.9,17.3,21.6,24.5c-0.3,6.6-13.1,11.3-19.4,12.2c-25.6,3.8-42.1,5.7-59.8,17.3c-23.5,15.3-58.1,31.4-90,41
	c-13.7,4.1-27.8,6.3-43.9,9.4C580.2,561.3,570,572.8,556,578.7L556,578.7z M789.3,457.7c-5.4-0.5-9.9,5.1-15.8,6.5
	c-2.7,20.1-27.3,24.5-46.8,28.1c-49.3,9.1-94.2,27-119.5,53.3c2.4,1.6,3.8,4.3,6.5,5.8c45-8.7,80-27.5,115.2-46.1
	c2.3-1.8-0.3-4.1,2.9-5c2-0.5,1.4,1.4,2.9,1.4c-0.5-2.6,0.5-3.8,1.4-5c14.1-8,34.4-15,54.7-15.8c6.6-0.3,11.5,1,16.6-2.9
	C801.6,472.8,797.6,458.5,789.3,457.7L789.3,457.7z M803,483.7c-0.1-0.9-0.2-1.7-1.4-1.4c-24,1.7-47.1,4.3-61.2,15.8
	C757.5,489.5,782.5,488.8,803,483.7z M605.7,553.5c3-0.8,2.9-0.9,5.8-1.7c-1.9-0.8-2.7-3.1-5-3.3
	C605.6,549.3,605.6,551.7,605.7,553.5L605.7,553.5z"/>
<path class="st0" d="M546.7,547c1.5,12.5-17.8,11.8-18.7,3.6c-0.8-7,7.2-7.5,11.5-8.6C543.6,543.4,541.9,546.2,546.7,547L546.7,547z
	"/>
<path class="st0" d="M617.1,41.1h-6.8v-19l-2.5,1.5c-1,0.6-1.9,0.9-2.7,1.1v-7.1c3.1-1.8,5.2-4.3,6.5-7.3h5.5L617.1,41.1L617.1,41.1
	z"/>
<path class="st0" d="M882.5,61.2l-3.2,7.2h-19.7v-0.4l10.7-14c1.5-2,2.3-3.9,2.3-5.6c0-1.7-0.6-3-1.9-3.9c-1.2-0.9-2.7-1.3-4.6-1.3
	c-1.2,0-2.7,0.3-4.4,1v-6.6c2-0.5,4.1-0.8,6.3-0.8c3.6,0,6.5,0.9,8.8,2.8c2.3,1.9,3.4,4.3,3.4,7.2c0,2.7-0.9,5.3-2.6,7.9l-4.5,6.6
	L882.5,61.2L882.5,61.2z"/>
<path class="st0" d="M871.8,267.2l-2.4,5.9h-1.1v4.5h-6.6v-4.5H849v-5.3l12.8-20.9h6.6v20.4L871.8,267.2L871.8,267.2z M861.7,267.2
	v-9.4l-6.1,9.4H861.7z"/>
<path class="st0" d="M906.5,445.6l-1.4,5.5h-8.3l-1.2,4.3c3.2,0,5.7,0.9,7.6,2.6c1.9,1.7,2.8,4.1,2.8,7.2c0,3.8-1.4,6.8-4.2,9
	c-2.4,1.9-5.4,2.9-9,2.9c-1.6,0-3.5-0.3-5.8-1v-6.7c1.6,0.7,3.2,1,4.9,1c4.5,0,6.7-1.6,6.7-4.9c0-2.9-2.4-4.6-7.3-4.9
	c-0.5,0-1.2,0-2,0.1c-1,0.1-1.6,0.1-1.9,0.1l3.9-15.1L906.5,445.6L906.5,445.6z"/>
<path class="st0" d="M767.8,548.9c0,3.1-1.2,5.6-3.7,7.5c-2.4,1.9-5.4,2.8-8.9,2.8c-3.1,0-5.9-0.6-8.4-1.9l2-6.3
	c3,1,5.2,1.5,6.6,1.5c1.4,0,2.5-0.3,3.5-0.9c1-0.7,1.5-1.5,1.5-2.7c0-1.3-0.6-2.3-1.7-3c-1-0.7-2.3-1-3.7-1c-0.9,0-1.5,0-1.9,0.1
	v-4.8c4,0,6-1.2,6-3.7c0-1-0.5-1.7-1.5-2.3c-0.9-0.5-1.9-0.8-3.2-0.8c-1.8,0-3.6,0.5-5.2,1.5v-6.6c2.1-0.9,4.3-1.3,6.7-1.3
	c2.7,0,5,0.6,7,1.9c2.4,1.5,3.5,3.7,3.5,6.5c0,2.8-1.1,4.8-3.4,6c1.5,0.6,2.6,1.6,3.5,3C767.4,545.8,767.8,547.3,767.8,548.9
	L767.8,548.9z"/>
<path class="st0" d="M597,448.4c0,3.6-1.1,6.5-3.3,8.7c-2.1,2-4.8,3-8,3c-3.2,0-5.8-1-7.9-3.1c-2.2-2.2-3.3-5-3.3-8.6
	c0-2,0.5-3.9,1.4-5.8c0.8-1.6,2.2-3.6,4.2-6.1l6.4-7.9h8.6l-7.9,9.7c2.7,0.4,5,1.3,6.7,2.8C596,443,597,445.4,597,448.4L597,448.4z
	 M589.8,449c0-1.1-0.4-2-1.2-2.8c-0.8-0.8-1.7-1.2-2.8-1.2s-2,0.4-2.8,1.2c-0.8,0.8-1.2,1.7-1.2,2.8c0,1.1,0.4,2,1.2,2.8
	c0.8,0.8,1.7,1.2,2.8,1.2s2-0.4,2.8-1.2C589.4,451,589.8,450.1,589.8,449z"/>
<g transform="translate(-16.85 1.1363)">
	<g>
		<path class="st0" d=""/>
		<path class="st1" d="M563.5,66.2l2.4-11.7l9,8L563.5,66.2z"/>
		<path class="st1" d="M727.2,12.4l-11.9,1.3l4.9-11L727.2,12.4z"/>
		<path marker-end="url(#Arrow1)" marker-start="url(#Arrow2)" class="st2" d="M720.8,9.6"/>
		<path class="st0" d=""/>
		<path class="st1" d="M809,97.8l6.6-10l5.3,10.8L809,97.8z"/>
		<path marker-start="url(#Arrow2)" class="st2" d="M872.1,66.7"/>
		<path class="st0" d=""/>
		<path class="st1" d="M764.5,310l7.4-9.4l4.5,11.1L764.5,310z"/>
		<path marker-start="url(#Arrow2)" class="st2" d="M862,270.9"/>
		<path class="st0" d=""/>
		<path class="st1" d="M593.9,370.8l7.6,9.3l-11.8,1.9L593.9,370.8z"/>
		<path marker-start="url(#Arrow2)" class="st2" d="M602.6,423.8"/>
		<path class="st0" d=""/>
		<path class="st1" d="M855.5,375.7l10.9,4.9l-9.7,7L855.5,375.7z"/>
		<path marker-start="url(#Arrow2)" class="st2" d="M903.9,442.8"/>
		<path class="st0" d=""/>
		<path class="st1" d="M743.2,511l10.9,4.9l-9.7,7L743.2,511z"/>
		<path marker-start="url(#Arrow2)" class="st2" d="M762.1,525.7"/>
		<path class="st0" d=""/>
		<path class="st1" d="M392.1,346.6l-10-6.6l10.8-5.3L392.1,346.6z"/>
		<path marker-start="url(#Arrow2)" class="st2" d="M360.2,282.3"/>
	</g>
	<g>
		<path class="st3" d="M552.2,128.5"/>
		<path class="st3" d="M555.3,548.1"/>
		<path class="st3" d="M740.8,64.9"/>
		<path class="st3" d="M739.4,469.5"/>
		<path class="st4" d="M737.1,351l-75.9-95.6"/>
	</g>
</g>
<g>
	<path class="st0" d="M354,247l-12.8,30.8h-7.5l10.3-25h-11l2.5-5.8L354,247L354,247z"/>
</g>
</svg>
