<svg height="256" viewBox="0 0 256 256" width="256" xmlns="http://www.w3.org/2000/svg"><path d="m250.9 174.8h-5.4v-26.3a14.9 14.9 0 0 0 -15.1-14.8h-24.4a2.4 2.4 0 0 1 -1.6-.7l-41.8-45.8a10.8 10.8 0 0 0 -7.3-3.1h-78.5a15.4 15.4 0 0 0 -14.2 9.9l-18.1 38a2.1 2.1 0 0 1 -2.1 1.6c-9.4.1-22.7.1-22.7 17.1v21.9a2.1 2.1 0 0 1 -2.1 2.1h-3.4a2.1 2.1 0 0 0 -2.1 2.1v7a9.6 9.6 0 0 0 9.6 9.5h3.9a2.1 2.1 0 0 0 2.1-1.7 34.6 34.6 0 0 1 68-.1 2 2 0 0 0 2.1 1.7h70a2 2 0 0 0 2-1.7 34.6 34.6 0 0 1 68 0 1.9 1.9 0 0 0 2 1.7h3.6a9.5 9.5 0 0 0 9.6-9.5v-6.9a2 2 0 0 0 -2.1-2zm-141.1-43.9a1.9 1.9 0 0 1 -2 1.9h-45.9a2 2 0 0 1 -2-2.4l13.3-31.6a3.5 3.5 0 0 1 3.4-2.8h31.2a2 2 0 0 1 2 1.9zm72.4 1.4h-55.8a2 2 0 0 1 -1.9-2v-31.8a2 2 0 0 1 1.9-2h27.6a1.5 1.5 0 0 1 1.4.7l28.2 31.8a2 2 0 0 1 -1.4 3.3zm-113.8 69.2a25.8 25.8 0 1 0 25.9 25.8 25.8 25.8 0 0 0 -25.9-25.8zm0 38.4a12.7 12.7 0 1 1 12.7-12.6 12.7 12.7 0 0 1 -12.7 12.6zm150.8-46.3a25.7 25.7 0 1 0 25.8 25.7 25.8 25.8 0 0 0 -25.8-25.7zm0 38.3a12.6 12.6 0 1 1 12.7-12.6 12.7 12.7 0 0 1 -12.7 12.6zm-205.6-173.3a21.2 21.2 0 0 1 37.4 18.6 1.2 1.2 0 0 0 .7 1.5l11.6 5.8 30-60.3-23.1-11.5a9.5 9.5 0 0 0 -10.5 1.6l-20.4 16a1.2 1.2 0 0 1 -1.6.3c-5.2-2.5-12.5-6.2-17.2 3.2l-6 12.2a1.3 1.3 0 0 1 -1.7.5l-1.9-.9a1.3 1.3 0 0 0 -1.7.6l-1.9 3.8a5.8 5.8 0 0 0 2.6 7.9l2.1 1.1a1.2 1.2 0 0 0 1.6-.4zm34.6-24.9 16-13.9a2.2 2.2 0 0 1 2.6-.6l17.2 8.6a1.2 1.2 0 0 1 .5 1.6l-9 18.2a1.3 1.3 0 0 1 -1.7.5l-25.2-12.6a1.2 1.2 0 0 1 -.4-1.8zm115.9 16 3.3 7.7a4.3 4.3 0 0 1 .1.5l18.1 42.5 39.8-17a1.7 1.7 0 0 0 .9-1.8 25.7 25.7 0 0 1 14.9-29.4l-9.1-21.3-41.4-19a7.6 7.6 0 0 0 -5.9 0l-30.9 13.1 10.5 24.5zm4.6-20.8 18.9-8.1a1.1 1.1 0 0 1 1.1 0l28.6 13.7a1.5 1.5 0 0 1 0 2.7l-38.1 16.3a1.4 1.4 0 0 1 -1.9-.8l-9.4-21.9a1.4 1.4 0 0 1 .8-1.9z"/></svg>