<svg height="330" width="650" xmlns="http://www.w3.org/2000/svg"><path d="m443.6 82.2h97.9v45.42h-97.9z" fill="#ccc"/><path d="m443.6 280.3h97.9v45.57h-97.9z" fill="#ccc"/><path d="m548.3 82.2h97.9v45.42h-97.9z" fill="#ccc"/><path d="m338.8 280.3h97.9v45.57h-97.9z" fill="#ccc"/><path d="m548.3 181.2h97.9v45.57h-97.9z" fill="#ccc"/><path d="m338.8 131.6h97.9v45.57h-97.9z" fill="#ccc"/><path d="m234 280.3h97.9v45.57h-97.9z" fill="#ccc"/><path d="m338.8 230.7h97.9v45.57h-97.9z" fill="#ccc"/><path d="m234 230.7h97.9v45.57h-97.9z" fill="#ccc"/><path d="m234 131.6h97.9v45.57h-97.9z" fill="#838383"/><path d="m443.6 230.7h97.9v45.57h-97.9z" fill="#838383"/><path d="m443.6 131.6h97.9v45.57h-97.9z" fill="#ccc"/><path d="m338.8 82.2h97.9v45.42h-97.9z" fill="#ccc"/><path d="m443.6 181.2h97.9v45.57h-97.9z" fill="#ccc"/><path d="m234 181.2h97.9v45.57h-97.9z" fill="#ccc"/><path d="m234 82.2h97.9v45.42h-97.9z" fill="#ccc"/><path d="m548.3 131.6h97.9v45.57h-97.9z" fill="#ccc"/><path d="m338.8 181.2h97.9v45.57h-97.9z" fill="#838383"/><path d="m24.4 32.4h97.9v45.57h-97.9z" fill="#838383"/><path d="m24.4 131.6h97.9v45.57h-97.9z" fill="#afafaf"/><path d="m24.4 82.2h97.9v45.42h-97.9z" fill="#afafaf"/><path d="m24.4 280.3h97.9v45.57h-97.9z" fill="#afafaf"/><path d="m24.4 181.2h97.9v45.57h-97.9z" fill="#afafaf"/><path d="m24.4 230.7h97.9v45.57h-97.9z" fill="#afafaf"/><path d="m129.2 181.2h97.9v45.57h-97.9z" fill="#ccc"/><path d="m129.2 131.6h97.9v45.57h-97.9z" fill="#ccc"/><path d="m129.2 280.3h97.9v45.57h-97.9z" fill="#ccc"/><path d="m129.2 82h97.9v45.57h-97.9z" fill="#838383"/><path d="m129.2 230.7h97.9v45.57h-97.9z" fill="#ccc"/><path d="m129.2 32.4h97.9v45.57h-97.9z" fill="#afafaf"/><path d="m338.8 32.4h97.9v45.57h-97.9z" fill="#afafaf"/><path d="m234 32.4h97.9v45.57h-97.9z" fill="#afafaf"/><path d="m548.3 32.4h97.9v45.57h-97.9z" fill="#afafaf"/><path d="m443.6 32.4h97.9v45.57h-97.9z" fill="#afafaf"/><path d="m548.3 280.3h97.9v45.57h-97.9z" fill="#838383"/><path d="m548.3 230.7h97.9v45.57h-97.9z" fill="#ccc"/><g fill="#cecece" font-family="RobotoCondensed-Regular, Roboto Condensed" font-size="24"><text transform="translate(68.4 22)">A</text><text transform="translate(173.1 22)">B</text><text transform="translate(277.2 22)">C</text><text transform="translate(381.6 22)">D</text><text transform="translate(486.8 22)">E</text><text transform="translate(591.3 22)">F</text><text transform="translate(3.9 63)">A</text><text transform="translate(3.9 112.4)">B</text><text transform="translate(3.9 161.8)">C</text><text transform="translate(3.9 211.2)">D</text><text transform="translate(3.9 260.6)">E</text><text transform="translate(3.9 310)">F</text></g></svg>
