<?xml version="1.0" encoding="utf-8"?>
<!-- Generator: Adobe Illustrator 24.0.1, SVG Export Plug-In . SVG Version: 6.00 Build 0)  -->
<svg version="1.1" id="Layer_1" xmlns="http://www.w3.org/2000/svg" xmlns:xlink="http://www.w3.org/1999/xlink" x="0px" y="0px"
	 viewBox="0 0 1268 418" style="enable-background:new 0 0 1268 418;" xml:space="preserve">
<style type="text/css">
	.st0{fill:#CCCCCC;}
	.st1{font-family:'RobotoMono-Regular';}
	.st2{font-size:12.8614px;}
	.st3{opacity:0.75;fill:none;stroke:#C4C5D1;stroke-width:3;enable-background:new    ;}
	.st4{fill:#A39CB9;}
</style>
<title>non-ribbon-chord-diagram</title>
<g>
	<text transform="matrix(1 0 0 1 742.5828 213.5859)" class="st0 st1 st2">ESFJ</text>
	<text transform="matrix(0.9239 -0.3827 0.3827 0.9239 759.8167 292.2339)" class="st0 st1 st2">ENTP</text>
	<text transform="matrix(0.7071 -0.7071 0.7071 0.7071 805.796 358.2765)" class="st0 st1 st2">INTP</text>
	<text transform="matrix(0.3827 -0.9239 0.9239 0.3827 873.576 401.747)" class="st0 st1 st2">ENTJ</text>
	<text transform="matrix(6.123234e-17 -1 1 6.123234e-17 952.866 415.959)" class="st0 st1 st2">INTJ</text>
	<text transform="matrix(0.3827 0.9239 -0.9239 0.3827 1012.7349 373.1961)" class="st0 st1 st2">ENFP</text>
	<text transform="matrix(0.7071 0.7071 -0.7071 0.7071 1070.4828 336.2834)" class="st0 st1 st2">INFP</text>
	<text transform="matrix(0.9239 0.3827 -0.3827 0.9239 1109.7107 280.1429)" class="st0 st1 st2">ENFJ</text>
	<text transform="matrix(1 0 0 1 1124.4363 213.2637)" class="st0 st1 st2">INFJ</text>
	<text transform="matrix(0.9239 -0.3827 0.3827 0.9239 1112.4751 145.8071)" class="st0 st1 st2">ISTP</text>
	<text transform="matrix(0.7071 -0.7071 0.7071 0.7071 1075.563 88.0592)" class="st0 st1 st2">ESTP</text>
	<text transform="matrix(0.3827 -0.9239 0.9239 0.3827 1019.4235 48.8311)" class="st0 st1 st2">ISFP</text>
	<text transform="matrix(6.123234e-17 -1 1 6.123234e-17 952.4803 34.1064)" class="st0 st1 st2">ESFP</text>
	<text transform="matrix(0.3827 0.9239 -0.9239 0.3827 866.3083 20.537)" class="st0 st1 st2">ISTJ</text>
	<text transform="matrix(0.7071 0.7071 -0.7071 0.7071 800.2653 66.5158)" class="st0 st1 st2">ESTJ</text>
	<text transform="matrix(0.9239 0.3827 -0.3827 0.9239 756.7955 134.3597)" class="st0 st1 st2">ISFJ</text>
	<path class="st3" d="M888.7,355.4c0,0,88.9-159.9-86.2-208"/>
	<path class="st3" d="M1106.6,209.5c0,0-186.9-52-269.1,110"/>
	<path class="st3" d="M948.8,52c0,0-92,182.8,58.8,300.5"/>
	<path class="st3" d="M885.7,64.1c0,0,57.8,88.9,174.7,34"/>
	<path class="st3" d="M886.7,64.1c0,0,38.1,118.5,207.8,85.1"/>
	<path class="st3" d="M803.3,270.8c0,0,85.1-54.1,33.7-172.5"/>
	<path class="st3" d="M949,367.3c0,0-15.8-149.3-157.7-157.6"/>
	<path class="st3" d="M949,367.3c0,0,25-67.7,114.2-46.2"/>
	<path class="st3" d="M1010.2,61.9c0,0-57.1,110.6,86.3,207.3"/>
	<path class="st3" d="M948.7,51.5c0,0-35.2,183,112.3,269.8"/>
	<path class="st3" d="M1061.7,317.2c0,0-60.3-93.4,32.9-168"/>
	<path class="st3" d="M837.5,97.8c0,0,93.1,65,174.1-35.8"/>
	<path class="st3" d="M836.5,320.6c0,0,58.6-82.1-33.4-172.6"/>
	<path class="st3" d="M1107.4,211.5c0,0-67.8-24.6-46.9-114"/>
	<circle class="st4" cx="791.3" cy="209.7" r="8.5"/>
	
		<ellipse transform="matrix(0.9239 -0.3827 0.3827 0.9239 -42.2011 327.963)" class="st4" cx="803.3" cy="270.1" rx="8.5" ry="8.5"/>
	
		<ellipse transform="matrix(0.7071 -0.7071 0.7071 0.7071 18.1636 686.2959)" class="st4" cx="837.5" cy="321.2" rx="8.5" ry="8.5"/>
	
		<ellipse transform="matrix(0.3827 -0.9239 0.9239 0.3827 220.2961 1040.4171)" class="st4" cx="888.7" cy="355.4" rx="8.5" ry="8.5"/>
	<circle class="st4" cx="949" cy="367.3" r="8.5"/>
	<circle class="st4" cx="1009.3" cy="355.3" r="8.5"/>
	<circle class="st4" cx="1060.4" cy="321.1" r="8.5"/>
	<circle class="st4" cx="1094.6" cy="269.9" r="8.5"/>
	<circle class="st4" cx="1106.6" cy="209.5" r="8.5"/>
	
		<ellipse transform="matrix(0.9239 -0.3827 0.3827 0.9239 26.2137 430.2239)" class="st4" cx="1094.5" cy="149.2" rx="8.5" ry="8.5"/>
	
		<ellipse transform="matrix(0.7071 -0.7071 0.7071 0.7071 241.213 778.5231)" class="st4" cx="1060.4" cy="98.1" rx="8.5" ry="8.5"/>
	
		<ellipse transform="matrix(0.3827 -0.9239 0.9239 0.3827 563.9182 971.8398)" class="st4" cx="1009.2" cy="63.9" rx="8.5" ry="8.5"/>
	<circle class="st4" cx="948.8" cy="52" r="8.5"/>
	<circle class="st4" cx="888.5" cy="64" r="8.5"/>
	<circle class="st4" cx="837.3" cy="98.2" r="8.5"/>
	<circle class="st4" cx="803.2" cy="149.4" r="8.5"/>
</g>
<title>non-ribbon-chord-diagram</title>
<g>
	<text transform="matrix(1 0 0 1 109.3348 213.5859)" class="st0 st1 st2">ESFJ</text>
	<text transform="matrix(0.9239 -0.3827 0.3827 0.9239 126.5686 292.2339)" class="st0 st1 st2">ENTP</text>
	<text transform="matrix(0.7071 -0.7071 0.7071 0.7071 172.548 358.2765)" class="st0 st1 st2">INTP</text>
	<text transform="matrix(0.3827 -0.9239 0.9239 0.3827 240.3281 401.747)" class="st0 st1 st2">ENTJ</text>
	<text transform="matrix(6.123234e-17 -1 1 6.123234e-17 319.618 415.959)" class="st0 st1 st2">INTJ</text>
	<text transform="matrix(0.3827 0.9239 -0.9239 0.3827 379.4869 373.1961)" class="st0 st1 st2">ENFP</text>
	<text transform="matrix(0.7071 0.7071 -0.7071 0.7071 437.2348 336.2834)" class="st0 st1 st2">INFP</text>
	<text transform="matrix(0.9239 0.3827 -0.3827 0.9239 476.4627 280.1429)" class="st0 st1 st2">ENFJ</text>
	<text transform="matrix(1 0 0 1 491.1884 213.2637)" class="st0 st1 st2">INFJ</text>
	<text transform="matrix(0.9239 -0.3827 0.3827 0.9239 479.2272 145.8071)" class="st0 st1 st2">ISTP</text>
	<text transform="matrix(0.7071 -0.7071 0.7071 0.7071 442.3151 88.0592)" class="st0 st1 st2">ESTP</text>
	<text transform="matrix(0.3827 -0.9239 0.9239 0.3827 386.1755 48.8311)" class="st0 st1 st2">ISFP</text>
	<text transform="matrix(6.123234e-17 -1 1 6.123234e-17 319.2323 34.1064)" class="st0 st1 st2">ESFP</text>
	<text transform="matrix(0.3827 0.9239 -0.9239 0.3827 233.0603 20.537)" class="st0 st1 st2">ISTJ</text>
	<text transform="matrix(0.7071 0.7071 -0.7071 0.7071 167.0173 66.5158)" class="st0 st1 st2">ESTJ</text>
	<text transform="matrix(0.9239 0.3827 -0.3827 0.9239 123.5476 134.3597)" class="st0 st1 st2">ISFJ</text>
	<path class="st3" d="M255.4,355.4c0,0,88.9-159.9-86.2-208"/>
	<path class="st3" d="M473.3,209.5c0,0-186.9-52-269.1,110"/>
	<path class="st3" d="M315.6,52c0,0-92,182.8,58.8,300.5"/>
	<path class="st3" d="M252.4,64.1c0,0,57.8,88.9,174.7,34"/>
	<path class="st3" d="M253.4,64.1c0,0,38.1,118.5,207.8,85.1"/>
	<path class="st3" d="M170,270.8c0,0,85.1-54.1,33.7-172.5"/>
	<path class="st3" d="M315.8,367.3c0,0-15.8-149.3-157.7-157.6"/>
	<path class="st3" d="M315.8,367.3c0,0,25-67.7,114.2-46.2"/>
	<path class="st3" d="M376.9,61.9c0,0-57.1,110.6,86.3,207.3"/>
	<path class="st3" d="M315.4,51.5c0,0-35.2,183,112.3,269.8"/>
	<path class="st3" d="M428.4,317.2c0,0-60.3-93.4,32.9-168"/>
	<path class="st3" d="M204.3,97.8c0,0,93.1,65,174.1-35.8"/>
	<path class="st3" d="M203.2,320.6c0,0,58.6-82.1-33.4-172.6"/>
	<path class="st3" d="M474.1,211.5c0,0-67.8-24.6-46.9-114"/>
	<circle class="st4" cx="158" cy="209.7" r="8.5"/>
	<ellipse transform="matrix(0.9239 -0.3827 0.3827 0.9239 -90.4042 85.6295)" class="st4" cx="170" cy="270.1" rx="8.5" ry="8.5"/>
	
		<ellipse transform="matrix(0.7071 -0.7071 0.7071 0.7071 -167.3104 238.522)" class="st4" cx="204.3" cy="321.2" rx="8.5" ry="8.5"/>
	
		<ellipse transform="matrix(0.3827 -0.9239 0.9239 0.3827 -170.6183 455.3723)" class="st4" cx="255.4" cy="355.4" rx="8.5" ry="8.5"/>
	<circle class="st4" cx="315.8" cy="367.3" r="8.5"/>
	<circle class="st4" cx="376.1" cy="355.3" r="8.5"/>
	<circle class="st4" cx="427.2" cy="321.1" r="8.5"/>
	<circle class="st4" cx="461.3" cy="269.9" r="8.5"/>
	<circle class="st4" cx="473.3" cy="209.5" r="8.5"/>
	
		<ellipse transform="matrix(0.9239 -0.3827 0.3827 0.9239 -21.9895 187.8904)" class="st4" cx="461.3" cy="149.2" rx="8.5" ry="8.5"/>
	<ellipse transform="matrix(0.7071 -0.7071 0.7071 0.7071 55.7389 330.7492)" class="st4" cx="427.1" cy="98.1" rx="8.5" ry="8.5"/>
	<ellipse transform="matrix(0.3827 -0.9239 0.9239 0.3827 173.0038 386.795)" class="st4" cx="375.9" cy="63.9" rx="8.5" ry="8.5"/>
	<circle class="st4" cx="315.6" cy="52" r="8.5"/>
	<circle class="st4" cx="255.3" cy="64" r="8.5"/>
	<circle class="st4" cx="204.1" cy="98.2" r="8.5"/>
	<circle class="st4" cx="169.9" cy="149.4" r="8.5"/>
</g>
</svg>
