<?xml version="1.0" encoding="utf-8"?>
<!-- Generator: Adobe Illustrator 22.1.0, SVG Export Plug-In . SVG Version: 6.00 Build 0)  -->
<svg version="1.1"
	 id="svg2" inkscape:version="0.48.3.1 r9886" sodipodi:docname="cartogram—national.svg" xmlns:cc="http://creativecommons.org/ns#" xmlns:dc="http://purl.org/dc/elements/1.1/" xmlns:inkscape="http://www.inkscape.org/namespaces/inkscape" xmlns:rdf="http://www.w3.org/1999/02/22-rdf-syntax-ns#" xmlns:sodipodi="http://sodipodi.sourceforge.net/DTD/sodipodi-0.dtd" xmlns:svg="http://www.w3.org/2000/svg"
	 xmlns="http://www.w3.org/2000/svg" xmlns:xlink="http://www.w3.org/1999/xlink" x="0px" y="0px" viewBox="0 0 1272 1002"
	 style="enable-background:new 0 0 1272 1002;" xml:space="preserve">
<style type="text/css">
	.st0{fill:#AFAFAF;stroke:#FFFFFF;stroke-width:2;stroke-linecap:round;}
	.st1{fill:#AFAFAF;stroke:#FFFFFF;stroke-width:2;}
	.st2{fill:#898989;stroke:#FFFFFF;stroke-width:2;}
	.st3{fill:#898989;stroke:#FFFFFF;stroke-width:2;stroke-linecap:round;}
	.st4{opacity:0.4;fill:#FFFFFF;}
	.st5{fill:#AFAFAF;}
	.st6{fill:#898989;}
	.st7{fill:#514361;}
	.st8{font-family:'RobotoMono-Regular';}
	.st9{font-size:32px;}
	
		.st10{opacity:0.8;fill:none;stroke:#A8A8A8;stroke-width:1.658;stroke-linecap:round;stroke-miterlimit:10;stroke-dasharray:0,7;enable-background:new    ;}
	
		.st11{opacity:0.8;fill:none;stroke:#A8A8A8;stroke-width:1.6578;stroke-linecap:round;stroke-miterlimit:10;stroke-dasharray:0,3.3156;enable-background:new    ;}
	.st12{enable-background:new    ;}
	.st13{font-family:'Roboto-Italic';}
	.st14{font-size:23px;}
	.st15{font-size:21px;}
</style>
<g id="layer1" transform="translate(-999,258.625)" inkscape:groupmode="layer" inkscape:label="Layer 1">
	<g id="g8379">
		<g id="g8324">
			<path id="rect3808" inkscape:connector-curvature="0" class="st0" d="M1050,212.4v30v30v30v30h30v-30h30v30v30v30h-30v-30h-30v30
				v30v30h30v30h30v30h30v30v30h30v30h30h30h30h30v-30v-30v-30v-30v-30h-30h-30v-30h-30v-30h-30v-30v-30v-30v-30v-30h-30h-30h-30
				v-30H1050z"/>
			<path id="rect3808-29" inkscape:connector-curvature="0" class="st1" d="M1050,182.4v30h30v30h30h30h30v-30v-30h-30h-30h-30H1050
				z"/>
			<path id="rect3808-64" inkscape:connector-curvature="0" class="st1" d="M1080,92.4v30h-30v30v30h30h30h30h30h30v-30h-30v-30v-30
				h-30h-30H1080z"/>
			<path id="rect3808-64-1-9" inkscape:connector-curvature="0" class="st1" d="M1170,242.4v30v30v30v30v30h30v-30v-30v-30v-30h30
				v-30h-30H1170z"/>
			<path id="rect4847" class="st0" d="M1260,242.4h90v90h-90V242.4z"/>
			<path id="rect4851-7" inkscape:connector-curvature="0" class="st0" d="M1320,332.4v30h-30v30v30h30h30v-30v-30v-30H1320z"/>
			<path id="rect5428-4" inkscape:connector-curvature="0" class="st0" d="M1470,92.4v30v30h-30v30h30h30h30v-30v-30h-30v-30H1470z"
				/>
			<path id="rect5428-4-9" inkscape:connector-curvature="0" class="st0" d="M1470-87.6v30v30v30v30v30v30h30v30h30v-30v-30v-30h-30
				v-30v-30v-30h30v-30h-30H1470z"/>
			<path id="rect5428-4-5" inkscape:connector-curvature="0" class="st0" d="M1500-57.6v30v30v30h30v30h30h30v-30v-30v-30v-30h-30
				v30h-30v-30H1500z"/>
			<path id="rect5428-4-8" inkscape:connector-curvature="0" class="st0" d="M1530,62.4v30v30v30v30v30v30h30v30v30h30v-30h30v-30
				v-30v-30v-30v-30v-30h-30v-30h-30H1530z"/>
			<path id="rect5428-4-3" inkscape:connector-curvature="0" class="st0" d="M1590-87.6v30h30h30v-30h-30H1590z M1650-57.6v30v30v30
				v30v30h30h30h30v-30h30v-30v-30h-30v30h-30v-30v-30v-30h-30H1650z"/>
			<path id="rect5428-4-2" inkscape:connector-curvature="0" class="st0" d="M1680,92.4v30v30v30v30v30h30h30v30h30v-30h30v-30v-30
				v-30v-30h-30v30h-30v-30v-30h-30H1680z"/>
			<path id="rect5428-4-38" inkscape:connector-curvature="0" class="st0" d="M1830,242.4v30h-30h-30v30h-30v30h30h30h30h30h30h30
				h30h30v-30h-30h-30h-30v-30h-30v-30H1830z"/>
			<path id="rect5428-4-1" inkscape:connector-curvature="0" class="st0" d="M1650,452.4v30v30h30h30h30h30v30v30v30v30h30v30h30v30
				h30v-30h30v-30v-30v-30v-30v-30h-30h-30v-30h-30h-30h-30h-30v-30h-30H1650z M1830,692.4h-30v30h30V692.4z"/>
			<path id="rect5428-4-88" inkscape:connector-curvature="0" class="st0" d="M1860,242.4v30h30v30h30v-30v-30h-30H1860z"/>
			<path id="rect5428-4-89" inkscape:connector-curvature="0" class="st0" d="M1830,212.4v30h30h30h30v30v30h30h30h30v-30h-30v-30
				v-30h-30h-30h-30h-30H1830z"/>
			<path id="rect5428-4-0" inkscape:connector-curvature="0" class="st0" d="M1980,182.4v30v30v30h30v-30v-30v-30H1980z"/>
			<path id="rect5428-4-7" inkscape:connector-curvature="0" class="st0" d="M1860,62.4v30h-30v30h-30v30v30h30h30v30h30h30h30h30
				v-30h-30v-30v-30v-30h-30v-30h-30H1860z"/>
			<path id="rect5428-4-26" inkscape:connector-curvature="0" class="st0" d="M1950,92.4v30v30v30h30h30v30v30h30v-30h30v-30v-30
				v-30h-30v-30h-30h-30H1950z"/>
			<path id="rect5428-4-29" inkscape:connector-curvature="0" class="st0" d="M1980-117.6v30h-30v30v30h-30h-30h-30v30h30v30h-30v30
				h30h30v30h30h30h30v-30v-30h30v-30v-30v-30v-30v-30h-30H1980z M2040,32.4v30h30h30v-30h-30H2040z"/>
			<path id="rect5428-4-72" inkscape:connector-curvature="0" class="st0" d="M2040-57.6v30v30v30h30v-30h30h30v-30v-30h-30h-30
				H2040z"/>
			<path id="rect5428-4-57" inkscape:connector-curvature="0" class="st0" d="M2130-57.6v30v30h30h30v-30v-30h-30H2130z"/>
			<path id="rect5428-4-33" inkscape:connector-curvature="0" class="st0" d="M2070-117.6v30h-30v30h30h30h30h30h30h30h30v-30v-30
				h-30v30h-30h-30v-30h-30h-30H2070z"/>
			<path id="rect5428-4-95" inkscape:connector-curvature="0" class="st0" d="M2040-147.6v30v30h30v-30h30v-30h-30H2040z"/>
			<path id="rect5428-4-35" inkscape:connector-curvature="0" class="st0" d="M2100-177.6v30v30h30h30v-30v-30h-30H2100z"/>
			<path id="rect5428-4-293" inkscape:connector-curvature="0" class="st0" d="M2130-237.6v30v30h30h30v-30v-30h-30H2130z"/>
			<path id="rect5428-4-03" inkscape:connector-curvature="0" class="st0" d="M1050,632.4v30h30v-30H1050z M1080,662.4v30h30v-30
				H1080z M1110,692.4v30h30h30v-30h-30H1110z"/>
		</g>
		<g id="g8353">
			<path id="rect3808-64-1-9-1-8-6" inkscape:connector-curvature="0" class="st2" d="M1320,182.4v30h30h30h30v-30h-30h-30H1320z"/>
			<path id="rect3808-64-1" inkscape:connector-curvature="0" class="st2" d="M1170,182.4v30v30h30h30v-30v-30h-30H1170z"/>
			<path id="rect3808-64-1-9-1" inkscape:connector-curvature="0" class="st2" d="M1230,242.4v30h-30v30v30v30h30v-30h30v-30v-30
				v-30H1230z"/>
			<path id="rect3808-64-1-9-1-1" inkscape:connector-curvature="0" class="st2" d="M1230,332.4v30h-30v30v30h30v30h30h30v-30v-30
				v-30h30v-30h-30h-30H1230z"/>
			<path id="rect3808-64-1-9-1-11" inkscape:connector-curvature="0" class="st2" d="M1230,182.4v30h30h30h30v-30h-30h-30H1230z"/>
			<path id="rect3808-64-1-9-1-17" inkscape:connector-curvature="0" class="st2" d="M1230,212.4v30h30h30h30v-30h-30h-30H1230z"/>
			<path id="rect3808-64-1-9-1-8-6-2" inkscape:connector-curvature="0" class="st2" d="M1320,212.4v30h30h30h30v-30h-30h-30H1320z"
				/>
			<path id="rect4849" class="st3" d="M1350,242.4h90v60h-90V242.4z"/>
			<path id="rect4851" inkscape:connector-curvature="0" class="st3" d="M1440,272.4v30h-30h-30h-30v30h30h30v30h30h30v-30v-30v-30
				H1440z"/>
			<path id="rect4851-4" inkscape:connector-curvature="0" class="st3" d="M1350,332.4v30v30v30h-30h-30v30h30v30v30h30v-30h30v30
				v30v30v30h30v-30h30h30v-30v-30h30v-30h30v-30h-30v-30v-30v-30h-30h-30h-30v-30h-30H1350z"/>
			<path id="rect4851-9" inkscape:connector-curvature="0" class="st3" d="M1410,182.4v30v30h30v30h30v-30v-30v-30h-30H1410z"/>
			<path id="rect4851-5" inkscape:connector-curvature="0" class="st3" d="M1470,182.4v30v30v30v30h30h30h30v-30v-30h-30v-30v-30
				h-30H1470z"/>
			<path id="rect4851-90" inkscape:connector-curvature="0" class="st3" d="M1470,302.4v30v30h30h30h30v-30v-30h-30h-30H1470z"/>
			<path id="rect4851-94" inkscape:connector-curvature="0" class="st3" d="M1500,362.4v30v30v30h30v30h30h30v-30v-30h-30h-30v-30
				h30v-30h-30H1500z"/>
			<path id="rect5428" inkscape:connector-curvature="0" class="st3" d="M1560,362.4v30h-30v30h30h30v30h30v-30v-30v-30h-30H1560z"
				/>
			<path id="rect5428-3" inkscape:connector-curvature="0" class="st3" d="M1560,302.4v30v30h30h30h30h30h30v-30h30v-30h-30h-30h-30
				h-30h-30H1560z"/>
			<path id="rect5428-0" inkscape:connector-curvature="0" class="st3" d="M1620,362.4v30v30v30h30h30h30v-30v-30v-30h-30h-30H1620z
				"/>
			<path id="rect5428-6" inkscape:connector-curvature="0" class="st3" d="M1680,242.4v30h-30h-30h-30v30h30h30h30h30h30h30v-30h-30
				v-30h-30H1680z"/>
			<path id="rect5428-8" inkscape:connector-curvature="0" class="st3" d="M1650,92.4v30h-30v30v30v30v30v30h30h30v-30v-30v-30v-30
				v-30v-30H1650z"/>
			<path id="rect5428-38" inkscape:connector-curvature="0" class="st3" d="M1710,332.4v30h30h30h30v30h30h30h30v30h30v-30h30v-30
				h30v-30h-30h-30h-30h-30h-30h-30h-30h-30H1710z"/>
			<path id="rect5428-1" inkscape:connector-curvature="0" class="st3" d="M1710,362.4v30v30v30v30h30h30h30h30v30h30h30v-30h-30
				v-30h-30h-30v-30v-30v-30h-30h-30H1710z"/>
			<path id="rect5428-2" inkscape:connector-curvature="0" class="st3" d="M1800,392.4v30v30h30h30v30h30h30v-30v-30h-30v-30h-30
				h-30H1800z"/>
			<path id="rect5428-9" inkscape:connector-curvature="0" class="st3" d="M1800,182.4v30v30h-30v30h30h30v-30v-30h30v-30h-30H1800z
				"/>
			<path id="rect5428-4-59" inkscape:connector-curvature="0" class="st3" d="M1050-87.6v30v30h30h30v-30h-30v-30H1050z"/>
		</g>
	</g>
	<g id="text7795">
		<path id="path10702" class="st4" d="M1141.9,436.9c-0.6-0.3-1.2-0.5-1.8-0.6c-0.6-0.2-1.3-0.2-2-0.2c-0.9,0-1.8,0.2-2.6,0.5
			c-0.8,0.3-1.4,0.7-2,1.3c-0.6,0.6-1,1.2-1.3,2c-0.3,0.8-0.5,1.7-0.5,2.7c0,1,0.2,1.9,0.5,2.8c0.3,0.8,0.8,1.5,1.4,2.1
			c0.6,0.6,1.3,1,2,1.3c0.8,0.3,1.7,0.4,2.6,0.4c0.6,0,1.3,0,1.9-0.1c0.6-0.1,1.3-0.3,2-0.6l0.2,2.7c-0.5,0.2-1.2,0.4-1.9,0.5
			c-0.7,0.1-1.4,0.2-2.2,0.2c-1.4,0-2.7-0.2-3.9-0.6c-1.2-0.4-2.2-1-3-1.8s-1.5-1.7-2-2.9c-0.5-1.1-0.7-2.4-0.7-3.9
			c0-1.3,0.2-2.6,0.7-3.7c0.5-1.1,1.2-2.1,2-2.9c0.9-0.8,1.9-1.4,3-1.8c1.2-0.4,2.4-0.7,3.8-0.7c0.8,0,1.5,0.1,2.1,0.2
			c0.7,0.1,1.4,0.3,2,0.5L1141.9,436.9"/>
		<path id="path10704" class="st4" d="M1161.4,451.6h-3.4l-1.7-4.3h-8l-1.7,4.3h-3.2l7.3-17.9h3.4L1161.4,451.6 M1153.4,439.8
			c-0.1-0.2-0.2-0.5-0.3-0.8c-0.1-0.3-0.2-0.7-0.3-1s-0.2-0.7-0.3-1c-0.1-0.3-0.2-0.6-0.2-0.8h-0.1c-0.1,0.2-0.2,0.5-0.3,0.8
			c-0.1,0.3-0.2,0.7-0.3,1c-0.1,0.3-0.2,0.7-0.3,1c-0.1,0.3-0.2,0.6-0.3,0.8l-1.9,5h6.3L1153.4,439.8"/>
	</g>
	<g id="text7795-1">
		<path id="path10692" class="st4" d="M1111.6,190.9c1.3,0,2.4,0.2,3.5,0.7c1.1,0.4,2,1,2.7,1.8c0.8,0.8,1.3,1.7,1.7,2.9
			c0.4,1.1,0.6,2.4,0.6,3.8c0,1.4-0.2,2.7-0.6,3.9c-0.4,1.1-1,2.1-1.8,2.9c-0.8,0.8-1.7,1.4-2.7,1.9c-1.1,0.4-2.3,0.6-3.6,0.6
			c-1.3,0-2.5-0.2-3.6-0.6c-1.1-0.4-2-1.1-2.7-1.8c-0.8-0.8-1.3-1.8-1.7-2.9c-0.4-1.1-0.6-2.4-0.6-3.8c0-1.5,0.2-2.7,0.6-3.9
			c0.4-1.1,1-2.1,1.8-2.9c0.8-0.8,1.7-1.4,2.8-1.8C1108.9,191.1,1110.2,190.9,1111.6,190.9 M1111.4,193.3c-0.8,0-1.5,0.2-2.2,0.5
			c-0.6,0.3-1.2,0.8-1.7,1.4c-0.5,0.6-0.8,1.3-1.1,2.2c-0.3,0.8-0.4,1.8-0.4,2.8c0,1,0.1,2,0.4,2.8c0.3,0.8,0.6,1.6,1.1,2.2
			c0.5,0.6,1,1,1.7,1.4c0.7,0.3,1.4,0.5,2.2,0.5c0.8,0,1.5-0.2,2.2-0.5c0.7-0.3,1.2-0.8,1.7-1.4c0.5-0.6,0.8-1.3,1.1-2.2
			c0.3-0.8,0.4-1.8,0.4-2.8c0-1-0.1-2-0.4-2.8c-0.3-0.9-0.6-1.6-1.1-2.2c-0.5-0.6-1-1-1.7-1.4
			C1112.9,193.5,1112.2,193.3,1111.4,193.3"/>
		<path id="path10694" class="st4" d="M1123.7,191.2h4.8c1.1,0,2.1,0.1,2.9,0.2c0.9,0.2,1.6,0.4,2.3,0.8c0.6,0.4,1.1,0.8,1.4,1.4
			c0.3,0.6,0.5,1.3,0.5,2.3c0,1.2-0.4,2.2-1.1,2.8c-0.7,0.7-1.6,1.1-2.8,1.4v0.1c0.6,0.2,1.1,0.5,1.4,0.9c0.3,0.4,0.7,0.9,0.9,1.6
			l2.9,6.5h-3.4l-2.3-5.4c-0.2-0.5-0.4-0.8-0.6-1.1c-0.2-0.3-0.4-0.5-0.7-0.7c-0.3-0.2-0.6-0.3-1-0.4c-0.4-0.1-0.9-0.1-1.5-0.1h-0.9
			v7.7h-3.1V191.2 M1126.8,198.9h1.2c1.5,0,2.6-0.2,3.4-0.6c0.8-0.4,1.2-1.1,1.2-2.1c0-0.5-0.1-1-0.3-1.3c-0.2-0.3-0.5-0.6-0.9-0.8
			c-0.4-0.2-0.8-0.3-1.4-0.4c-0.6-0.1-1.2-0.1-1.9-0.1h-1.2L1126.8,198.9"/>
	</g>
	<g id="text7795-1-2">
		<path id="path10684" class="st4" d="M1116.2,119.6c-0.1-0.2-0.1-0.4-0.2-0.7c-0.1-0.3-0.1-0.6-0.2-0.8c-0.1-0.3-0.1-0.6-0.2-0.9
			c-0.1-0.3-0.1-0.6-0.1-0.8h-0.1c-0.1,0.5-0.2,1-0.3,1.6c-0.1,0.6-0.2,1.1-0.3,1.6l-3,12.4h-3.9l-5.2-17.9h3.3l3,11.3
			c0,0.2,0.1,0.4,0.2,0.7c0.1,0.3,0.2,0.7,0.3,1.1c0.1,0.4,0.2,0.8,0.3,1.3c0.1,0.4,0.2,0.8,0.2,1h0.1c0.1-0.3,0.1-0.6,0.2-1
			c0.1-0.4,0.2-0.8,0.3-1.3c0.1-0.4,0.2-0.8,0.2-1.1c0.1-0.3,0.1-0.6,0.2-0.7l2.7-11.3h4.2l2.8,11.3c0,0.2,0.1,0.4,0.2,0.8
			c0.1,0.3,0.2,0.7,0.3,1.1c0.1,0.4,0.2,0.8,0.2,1.2c0.1,0.4,0.2,0.8,0.2,1h0.1c0.1-0.3,0.1-0.6,0.2-1c0.1-0.4,0.2-0.8,0.3-1.2
			c0.1-0.4,0.2-0.8,0.2-1.1c0.1-0.3,0.2-0.6,0.2-0.8l2.9-11.3h3.1l-5.2,17.9h-3.9L1116.2,119.6"/>
		<path id="path10686" class="st4" d="M1146.4,132h-3.4l-1.7-4.3h-8l-1.7,4.3h-3.2l7.3-17.9h3.4L1146.4,132 M1138.5,120.3
			c-0.1-0.2-0.2-0.5-0.3-0.8c-0.1-0.3-0.2-0.7-0.3-1c-0.1-0.3-0.2-0.7-0.3-1c-0.1-0.3-0.2-0.6-0.2-0.8h-0.1
			c-0.1,0.2-0.2,0.5-0.3,0.8c-0.1,0.3-0.2,0.7-0.3,1c-0.1,0.3-0.2,0.7-0.3,1c-0.1,0.3-0.2,0.6-0.3,0.8l-1.9,5h6.3L1138.5,120.3"/>
	</g>
	<g id="text7795-1-0">
		<path id="path10679" class="st4" d="M1193.8,210.9h-3.1v-17.9h3.1V210.9"/>
		<path id="path10681" class="st4" d="M1202.8,193.1c1.5,0,2.9,0.2,4.2,0.5c1.3,0.3,2.4,0.8,3.4,1.5c1,0.7,1.7,1.6,2.3,2.8
			c0.5,1.1,0.8,2.5,0.8,4.2c0,1.6-0.3,2.9-0.8,4c-0.5,1.1-1.3,2-2.3,2.7c-1,0.7-2.1,1.2-3.4,1.6c-1.3,0.3-2.7,0.5-4.2,0.5h-4.4
			v-17.9H1202.8 M1201.5,208.5h1c1.1,0,2.1-0.1,3-0.3c1-0.2,1.8-0.6,2.5-1.1c0.7-0.5,1.2-1.2,1.6-2c0.4-0.8,0.6-1.8,0.6-3
			c0-1.3-0.2-2.3-0.6-3.1c-0.4-0.8-0.9-1.5-1.6-2c-0.7-0.5-1.5-0.8-2.5-1c-0.9-0.2-2-0.3-3-0.3h-1V208.5"/>
	</g>
	<g id="text7795-1-8">
		<path id="path10674" class="st4" d="M1247.8,197.7c0.1,0.3,0.2,0.6,0.3,1c0.1,0.4,0.2,0.8,0.4,1.2c0.1,0.4,0.3,0.8,0.4,1.2
			c0.1,0.4,0.2,0.8,0.3,1.1h0.1c0.1-0.3,0.2-0.7,0.3-1.1c0.1-0.4,0.2-0.8,0.4-1.2c0.1-0.4,0.3-0.8,0.4-1.2c0.1-0.4,0.3-0.7,0.4-1
			l3.5-10h4.9v17.9h-3v-10.3c0-0.3,0-0.7,0-1.2c0-0.4,0-0.9,0-1.4c0-0.5,0-1,0-1.5c0-0.5,0-1,0.1-1.4h-0.1c-0.1,0.4-0.2,0.8-0.4,1.2
			c-0.1,0.4-0.3,0.8-0.4,1.3c-0.1,0.4-0.3,0.8-0.4,1.2c-0.1,0.4-0.2,0.7-0.3,0.9l-4.1,11.1h-2.8l-4-10.9c-0.1-0.2-0.2-0.5-0.3-0.9
			c-0.1-0.4-0.3-0.8-0.4-1.3c-0.2-0.5-0.3-0.9-0.4-1.4c-0.1-0.5-0.2-0.8-0.3-1.2h-0.1c0,0.4,0,0.9,0,1.4c0,0.5,0,1,0,1.5
			c0,0.5,0,0.9,0,1.4c0,0.4,0,0.8,0,1.2v10.3h-2.9v-17.9h5L1247.8,197.7"/>
		<path id="path10676" class="st4" d="M1267,205.6v-15.3l-5.2,0.1v-2.7h13.5v2.7l-5.2-0.1v15.3H1267"/>
	</g>
	<g id="text7795-1-6">
		<path id="path10669" class="st4" d="M1251.2,223.9c-0.1-0.2-0.1-0.4-0.2-0.7c-0.1-0.3-0.1-0.6-0.2-0.8c-0.1-0.3-0.1-0.6-0.2-0.9
			c-0.1-0.3-0.1-0.6-0.1-0.8h-0.1c-0.1,0.5-0.2,1-0.3,1.6c-0.1,0.6-0.2,1.1-0.3,1.6l-3,12.4h-3.9l-5.2-17.9h3.3l3,11.3
			c0,0.2,0.1,0.4,0.2,0.7c0.1,0.3,0.2,0.7,0.3,1.1c0.1,0.4,0.2,0.8,0.3,1.3c0.1,0.4,0.2,0.8,0.2,1h0.1c0.1-0.3,0.1-0.6,0.2-1
			c0.1-0.4,0.2-0.8,0.3-1.3c0.1-0.4,0.2-0.8,0.2-1.1c0.1-0.3,0.1-0.6,0.2-0.7l2.7-11.3h4.2l2.8,11.3c0,0.2,0.1,0.4,0.2,0.8
			c0.1,0.3,0.2,0.7,0.3,1.1c0.1,0.4,0.2,0.8,0.2,1.2c0.1,0.4,0.2,0.8,0.2,1h0.1c0.1-0.3,0.1-0.6,0.2-1c0.1-0.4,0.2-0.8,0.3-1.2
			c0.1-0.4,0.2-0.8,0.2-1.1c0.1-0.3,0.2-0.6,0.2-0.8l2.9-11.3h3.1l-5.2,17.9h-3.9L1251.2,223.9"/>
		<path id="path10671" class="st4" d="M1267.6,218.4l2.2,3.6c0.2,0.3,0.4,0.6,0.6,1.1c0.3,0.4,0.5,0.8,0.7,1.3
			c0.2,0.4,0.5,0.8,0.7,1.2c0.2,0.4,0.4,0.7,0.5,0.9h0.1c0.1-0.2,0.3-0.5,0.5-0.9c0.2-0.4,0.5-0.8,0.7-1.2c0.3-0.4,0.5-0.8,0.7-1.3
			c0.2-0.4,0.4-0.8,0.6-1l2.2-3.6h3.5l-6.7,10.5v7.3h-3.1V229l-6.8-10.6H1267.6"/>
	</g>
	<g id="text7795-1-8-4">
		<path id="path10650" class="st4" d="M1346.9,188.3h2.8v17.9h-4l-5.4-10.2c-0.2-0.4-0.4-0.8-0.7-1.3c-0.2-0.4-0.4-0.9-0.6-1.3
			c-0.2-0.4-0.4-0.9-0.6-1.3c-0.2-0.4-0.3-0.7-0.4-1h-0.1c0,0.3,0,0.6,0.1,1.1c0,0.5,0,0.9,0,1.5c0,0.5,0,1,0,1.6c0,0.5,0,1,0,1.3
			v9.5h-2.9v-17.9h4.3l5.2,10.1c0.2,0.3,0.3,0.7,0.5,1.1c0.2,0.4,0.4,0.8,0.6,1.2c0.2,0.4,0.4,0.8,0.6,1.2c0.2,0.4,0.3,0.7,0.5,1
			h0.1c0-0.3,0-0.8-0.1-1.3c0-0.5,0-1.1-0.1-1.7c0-0.6,0-1.2-0.1-1.8c0-0.6,0-1.1,0-1.5V188.3"/>
		<path id="path10652" class="st4" d="M1358.7,188.3c1.5,0,2.9,0.2,4.2,0.5c1.3,0.3,2.4,0.8,3.4,1.5c1,0.7,1.7,1.6,2.3,2.8
			c0.5,1.1,0.8,2.5,0.8,4.2c0,1.6-0.3,2.9-0.8,4c-0.5,1.1-1.3,2-2.3,2.7c-1,0.7-2.1,1.2-3.4,1.6c-1.3,0.3-2.7,0.5-4.2,0.5h-4.4
			v-17.9H1358.7 M1357.5,203.7h1c1.1,0,2.1-0.1,3-0.3c1-0.2,1.8-0.6,2.5-1.1c0.7-0.5,1.2-1.2,1.6-2c0.4-0.8,0.6-1.8,0.6-3
			c0-1.3-0.2-2.3-0.6-3.1c-0.4-0.8-0.9-1.5-1.6-2c-0.7-0.5-1.5-0.8-2.5-1c-0.9-0.2-2-0.3-3-0.3h-1V203.7"/>
	</g>
	<g id="text7795-1-8-3">
		<path id="path10645" class="st4" d="M1347.1,221c-0.7-0.3-1.3-0.5-1.8-0.6c-0.6-0.1-1.1-0.2-1.6-0.2c-1,0-1.7,0.2-2.3,0.6
			c-0.6,0.4-0.8,0.9-0.8,1.6c0,0.3,0,0.6,0.1,0.8c0.1,0.2,0.2,0.5,0.5,0.7c0.3,0.2,0.6,0.5,1,0.7c0.4,0.2,1,0.5,1.7,0.8
			c1.6,0.6,2.8,1.4,3.5,2.2c0.7,0.8,1.1,1.9,1.1,3.1c0,0.8-0.2,1.6-0.5,2.3c-0.3,0.7-0.7,1.2-1.3,1.7c-0.5,0.5-1.2,0.8-2,1.1
			c-0.8,0.3-1.7,0.4-2.6,0.4c-0.8,0-1.6-0.1-2.3-0.2c-0.7-0.1-1.4-0.3-2.1-0.6l0.3-2.8c0.8,0.4,1.4,0.6,2.1,0.8
			c0.6,0.1,1.3,0.2,1.9,0.2c1,0,1.9-0.2,2.5-0.7c0.6-0.4,1-1.1,1-1.9c0-0.4-0.1-0.7-0.2-1s-0.3-0.6-0.6-0.8c-0.3-0.3-0.6-0.5-1-0.7
			c-0.4-0.3-1-0.5-1.7-0.8c-0.8-0.3-1.5-0.7-2.1-1c-0.6-0.4-1-0.7-1.4-1.2c-0.3-0.4-0.6-0.8-0.7-1.3c-0.2-0.5-0.2-1-0.2-1.6
			c0-0.8,0.1-1.4,0.4-2c0.3-0.6,0.7-1.2,1.2-1.6c0.5-0.4,1.2-0.8,1.9-1c0.8-0.2,1.6-0.4,2.5-0.4c0.7,0,1.4,0.1,2,0.2
			c0.7,0.1,1.3,0.3,2,0.5L1347.1,221"/>
		<path id="path10647" class="st4" d="M1356.2,218.1c1.5,0,2.9,0.2,4.2,0.5c1.3,0.3,2.4,0.8,3.4,1.5c1,0.7,1.7,1.6,2.3,2.8
			c0.5,1.1,0.8,2.5,0.8,4.2c0,1.6-0.3,2.9-0.8,4c-0.5,1.1-1.3,2-2.3,2.7c-1,0.7-2.1,1.2-3.4,1.6c-1.3,0.3-2.7,0.5-4.2,0.5h-4.4
			v-17.9H1356.2 M1354.9,233.5h1c1.1,0,2.1-0.1,3-0.3c1-0.2,1.8-0.6,2.5-1.1c0.7-0.5,1.2-1.2,1.6-2c0.4-0.8,0.6-1.8,0.6-3
			c0-1.3-0.2-2.3-0.6-3.1c-0.4-0.8-0.9-1.5-1.6-2c-0.7-0.5-1.5-0.8-2.5-1c-0.9-0.2-2-0.3-3-0.3h-1V233.5"/>
	</g>
	<g id="text7795-1-8-4-7">
		<path id="path10634" class="st4" d="M1436,194.1h2.8V212h-4l-5.4-10.2c-0.2-0.4-0.4-0.8-0.7-1.3c-0.2-0.4-0.4-0.9-0.6-1.3
			c-0.2-0.4-0.4-0.9-0.6-1.3c-0.2-0.4-0.3-0.7-0.4-1h-0.1c0,0.3,0,0.6,0.1,1.1c0,0.5,0,0.9,0,1.5c0,0.5,0,1,0,1.6c0,0.5,0,1,0,1.3
			v9.5h-2.9v-17.9h4.3l5.2,10.1c0.2,0.3,0.3,0.7,0.5,1.1c0.2,0.4,0.4,0.8,0.6,1.2c0.2,0.4,0.4,0.8,0.6,1.2c0.2,0.4,0.3,0.7,0.5,1
			h0.1c0-0.3,0-0.8-0.1-1.3c0-0.5,0-1.1-0.1-1.7c0-0.6,0-1.2-0.1-1.8c0-0.6,0-1.1,0-1.5V194.1"/>
		<path id="path10636" class="st4" d="M1453.8,212h-10.4v-17.9h10.2v2.6h-7.2v4.8h6.6v2.5h-6.6v5.4h7.3V212"/>
	</g>
	<g id="text7795-1-61">
		<path id="path10626" class="st4" d="M1303.4,265.3c-0.6-0.3-1.2-0.5-1.8-0.6c-0.6-0.2-1.3-0.2-2-0.2c-0.9,0-1.8,0.2-2.6,0.5
			c-0.8,0.3-1.4,0.7-2,1.3c-0.6,0.6-1,1.2-1.3,2c-0.3,0.8-0.5,1.7-0.5,2.7c0,1,0.2,1.9,0.5,2.8c0.3,0.8,0.8,1.5,1.4,2.1
			c0.6,0.6,1.3,1,2,1.3c0.8,0.3,1.7,0.4,2.6,0.4c0.6,0,1.3,0,1.9-0.1c0.6-0.1,1.3-0.3,2-0.6l0.2,2.7c-0.5,0.2-1.2,0.4-1.9,0.5
			c-0.7,0.1-1.4,0.2-2.2,0.2c-1.4,0-2.7-0.2-3.9-0.6c-1.2-0.4-2.2-1-3-1.8c-0.9-0.8-1.5-1.7-2-2.9c-0.5-1.1-0.7-2.4-0.7-3.9
			c0-1.3,0.2-2.6,0.7-3.7c0.5-1.1,1.2-2.1,2-2.9c0.9-0.8,1.9-1.4,3-1.8c1.2-0.4,2.4-0.7,3.8-0.7c0.8,0,1.5,0.1,2.1,0.2
			c0.7,0.1,1.4,0.3,2,0.5L1303.4,265.3"/>
		<path id="path10628" class="st4" d="M1314.4,261.7c1.3,0,2.4,0.2,3.5,0.7c1.1,0.4,2,1,2.7,1.8c0.8,0.8,1.3,1.7,1.7,2.9
			c0.4,1.1,0.6,2.4,0.6,3.8c0,1.4-0.2,2.7-0.6,3.9c-0.4,1.1-1,2.1-1.8,2.9c-0.8,0.8-1.7,1.4-2.7,1.9c-1.1,0.4-2.3,0.6-3.6,0.6
			c-1.3,0-2.5-0.2-3.6-0.6c-1.1-0.4-2-1.1-2.7-1.8c-0.8-0.8-1.3-1.8-1.7-2.9c-0.4-1.1-0.6-2.4-0.6-3.8c0-1.5,0.2-2.7,0.6-3.9
			c0.4-1.1,1-2.1,1.8-2.9c0.8-0.8,1.7-1.4,2.8-1.8C1311.8,261.9,1313.1,261.7,1314.4,261.7 M1314.2,264.1c-0.8,0-1.5,0.2-2.2,0.5
			c-0.6,0.3-1.2,0.8-1.7,1.4c-0.5,0.6-0.8,1.3-1.1,2.2c-0.3,0.8-0.4,1.8-0.4,2.8c0,1,0.1,2,0.4,2.8c0.3,0.8,0.6,1.6,1.1,2.2
			c0.5,0.6,1,1,1.7,1.4c0.7,0.3,1.4,0.5,2.2,0.5c0.8,0,1.5-0.2,2.2-0.5c0.7-0.3,1.2-0.8,1.7-1.4c0.5-0.6,0.8-1.3,1.1-2.2
			c0.3-0.8,0.4-1.8,0.4-2.8c0-1-0.1-2-0.4-2.8c-0.3-0.9-0.6-1.6-1.1-2.2c-0.5-0.6-1-1-1.7-1.4C1315.8,264.3,1315,264.1,1314.2,264.1
			"/>
	</g>
	<g id="text7795-1-62">
		<path id="path10618" class="st4" d="M1193.4,248.9h2.8v17.9h-4l-5.4-10.2c-0.2-0.4-0.4-0.8-0.7-1.3c-0.2-0.4-0.4-0.9-0.6-1.3
			c-0.2-0.4-0.4-0.9-0.6-1.3c-0.2-0.4-0.3-0.7-0.4-1h-0.1c0,0.3,0,0.6,0.1,1.1c0,0.5,0,0.9,0,1.5c0,0.5,0,1,0,1.6c0,0.5,0,1,0,1.3
			v9.5h-2.9v-17.9h4.3l5.2,10.1c0.2,0.3,0.3,0.7,0.5,1.1c0.2,0.4,0.4,0.8,0.6,1.2c0.2,0.4,0.4,0.8,0.6,1.2c0.2,0.4,0.3,0.7,0.5,1
			h0.1c0-0.3,0-0.8-0.1-1.3c0-0.5,0-1.1-0.1-1.7c0-0.6,0-1.2-0.1-1.8c0-0.6,0-1.1,0-1.5V248.9"/>
		<path id="path10620" class="st4" d="M1206.1,261c0.1,0.2,0.1,0.4,0.2,0.7c0.1,0.3,0.2,0.6,0.3,0.8c0.1,0.3,0.2,0.6,0.3,0.9
			c0.1,0.3,0.2,0.6,0.3,0.8h0.1c0.1-0.2,0.1-0.5,0.2-0.8c0.1-0.3,0.2-0.6,0.3-0.9c0.1-0.3,0.2-0.6,0.3-0.8c0.1-0.3,0.2-0.5,0.2-0.7
			l4.1-12.1h3.2l-6.6,17.9h-3.7l-6.6-17.9h3.4L1206.1,261"/>
	</g>
	<g id="text7795-1-61-6">
		<path id="path10610" class="st4" d="M1229.1,290.7c0,2.4-0.6,4.4-1.8,5.7c-1.2,1.4-3,2-5.4,2c-1.3,0-2.4-0.2-3.3-0.5
			c-0.9-0.4-1.6-0.9-2.2-1.6c-0.5-0.7-0.9-1.5-1.2-2.5s-0.4-2-0.4-3.2v-10.4h3.1v10.1c0,0.9,0.1,1.7,0.2,2.4
			c0.1,0.7,0.4,1.3,0.7,1.7c0.3,0.5,0.7,0.8,1.2,1.1c0.5,0.2,1.1,0.4,1.9,0.4c0.8,0,1.4-0.1,1.9-0.4c0.5-0.3,1-0.6,1.3-1.1
			c0.3-0.5,0.6-1.1,0.7-1.7c0.1-0.7,0.2-1.5,0.2-2.4v-10.1h3V290.7"/>
		<path id="path10612" class="st4" d="M1236.9,298.2v-15.3l-5.2,0.1v-2.7h13.5v2.7l-5.2-0.1v15.3H1236.9"/>
	</g>
	<g id="text7795-1-61-2">
		<path id="path10602" class="st4" d="M1250.9,388.1h-3.4l-1.7-4.3h-8l-1.7,4.3h-3.2l7.3-17.9h3.4L1250.9,388.1 M1243,376.4
			c-0.1-0.2-0.2-0.5-0.3-0.8c-0.1-0.3-0.2-0.7-0.3-1c-0.1-0.3-0.2-0.7-0.3-1c-0.1-0.3-0.2-0.6-0.2-0.8h-0.1
			c-0.1,0.2-0.2,0.5-0.3,0.8c-0.1,0.3-0.2,0.7-0.3,1c-0.1,0.3-0.2,0.7-0.3,1c-0.1,0.3-0.2,0.6-0.3,0.8l-1.9,5h6.3L1243,376.4"/>
		<path id="path10604" class="st4" d="M1264.4,372.9c-1.4,2-2.6,3.7-3.7,5.2c-1,1.5-1.9,2.7-2.7,3.7c-0.7,1-1.3,1.8-1.7,2.4
			c-0.4,0.6-0.8,1-0.9,1.2h9.2v2.6h-12.5v-2.6c1.2-1.7,2.3-3.3,3.3-4.8c1-1.5,1.9-2.7,2.7-3.8c0.8-1.1,1.5-2,2-2.7
			c0.5-0.7,0.9-1.1,1-1.3h-8.8v-2.6h12.1V372.9L1264.4,372.9"/>
	</g>
	<g id="text7795-1-61-7">
		<path id="path10592" class="st4" d="M1312.7,368.6h2.8v17.9h-4l-5.4-10.2c-0.2-0.4-0.4-0.8-0.7-1.3c-0.2-0.4-0.4-0.9-0.6-1.3
			c-0.2-0.4-0.4-0.9-0.6-1.3c-0.2-0.4-0.3-0.7-0.4-1h-0.1c0,0.3,0,0.6,0.1,1.1c0,0.5,0,0.9,0,1.5c0,0.5,0,1,0,1.6c0,0.5,0,1,0,1.3
			v9.5h-2.9v-17.9h4.3l5.2,10.1c0.2,0.3,0.3,0.7,0.5,1.1c0.2,0.4,0.4,0.8,0.6,1.2c0.2,0.4,0.4,0.8,0.6,1.2c0.2,0.4,0.3,0.7,0.5,1
			h0.1c0-0.3,0-0.8-0.1-1.3c0-0.5,0-1.1-0.1-1.7c0-0.6,0-1.2-0.1-1.8c0-0.6,0-1.1,0-1.5V368.6"/>
		<path id="path10594" class="st4" d="M1328.7,378.7c0.1,0.3,0.2,0.6,0.3,1c0.1,0.4,0.2,0.8,0.4,1.2c0.1,0.4,0.3,0.8,0.4,1.2
			c0.1,0.4,0.2,0.8,0.3,1.1h0.1c0.1-0.3,0.2-0.7,0.3-1.1c0.1-0.4,0.2-0.8,0.4-1.2c0.1-0.4,0.3-0.8,0.4-1.2c0.1-0.4,0.3-0.7,0.4-1
			l3.5-10h4.9v17.9h-3v-10.3c0-0.3,0-0.7,0-1.2s0-0.9,0-1.4c0-0.5,0-1,0-1.5c0-0.5,0-1,0.1-1.4h-0.1c-0.1,0.4-0.2,0.8-0.4,1.2
			c-0.1,0.4-0.3,0.8-0.4,1.3c-0.1,0.4-0.3,0.8-0.4,1.2c-0.1,0.4-0.2,0.7-0.3,0.9l-4.1,11.1h-2.8l-4-10.9c-0.1-0.2-0.2-0.5-0.3-0.9
			c-0.1-0.4-0.3-0.8-0.4-1.3c-0.2-0.5-0.3-0.9-0.4-1.4c-0.1-0.5-0.2-0.8-0.3-1.2h-0.1c0,0.4,0,0.9,0,1.4c0,0.5,0,1,0,1.5
			c0,0.5,0,0.9,0,1.4s0,0.8,0,1.2v10.3h-2.9v-17.9h5L1328.7,378.7"/>
	</g>
	<g id="text7795-1-61-7-2">
		<path id="path10584" class="st4" d="M1401.7,426.7v-15.3l-5.2,0.1v-2.7h13.5v2.7l-5.2-0.1v15.3H1401.7"/>
		<path id="path10586" class="st4" d="M1414.8,408.8l2.2,3.4c0.4,0.6,0.8,1.3,1.2,1.9c0.4,0.6,0.7,1.2,1,1.7c0.3-0.5,0.6-1.1,1-1.8
			c0.4-0.7,0.8-1.3,1.1-1.8l2.2-3.4h3.4l-5.8,8.6l6.3,9.2h-3.8l-2.1-3.3c-0.2-0.3-0.4-0.6-0.6-1c-0.2-0.4-0.5-0.8-0.7-1.2
			c-0.2-0.4-0.4-0.8-0.6-1.1c-0.2-0.3-0.3-0.6-0.4-0.8c-0.1,0.2-0.3,0.5-0.5,0.8c-0.2,0.3-0.4,0.7-0.7,1.1c-0.2,0.4-0.5,0.8-0.7,1.2
			c-0.2,0.4-0.5,0.7-0.7,1l-2.1,3.3h-3.5l6.4-9.2l-6-8.6L1414.8,408.8"/>
	</g>
	<g id="text7795-1-8-3-7">
		<path id="path10574" class="st4" d="M1380.3,269.3h-3.1v-17.9h3.1v7.9h0.1c0.2-0.3,0.5-0.6,0.8-0.9c0.3-0.4,0.6-0.7,0.9-1
			c0.3-0.4,0.6-0.7,0.9-1c0.3-0.3,0.5-0.6,0.6-0.7l3.8-4.2h4l-8,8.4l8.8,9.5h-4.3l-4.6-5.3c-0.3-0.4-0.7-0.9-1.3-1.5
			c-0.5-0.6-1-1.3-1.5-2h-0.1L1380.3,269.3"/>
		<path id="path10576" class="st4" d="M1403.1,254.3c-0.7-0.3-1.3-0.5-1.8-0.6c-0.6-0.1-1.1-0.2-1.6-0.2c-1,0-1.7,0.2-2.3,0.6
			c-0.6,0.4-0.8,0.9-0.8,1.6c0,0.3,0,0.6,0.1,0.8c0.1,0.2,0.2,0.5,0.5,0.7c0.3,0.2,0.6,0.5,1,0.7c0.4,0.2,1,0.5,1.7,0.8
			c1.6,0.6,2.8,1.4,3.5,2.2c0.7,0.8,1.1,1.9,1.1,3.1c0,0.8-0.2,1.6-0.5,2.3c-0.3,0.7-0.7,1.2-1.3,1.7c-0.5,0.5-1.2,0.8-2,1.1
			c-0.8,0.3-1.7,0.4-2.6,0.4c-0.8,0-1.6-0.1-2.3-0.2c-0.7-0.1-1.4-0.3-2.1-0.6l0.3-2.8c0.8,0.4,1.4,0.6,2.1,0.8
			c0.6,0.1,1.3,0.2,1.9,0.2c1,0,1.9-0.2,2.5-0.7c0.6-0.4,1-1.1,1-1.9c0-0.4-0.1-0.7-0.2-1c-0.1-0.3-0.3-0.6-0.6-0.8
			c-0.3-0.3-0.6-0.5-1-0.7c-0.4-0.3-1-0.5-1.7-0.8c-0.8-0.3-1.5-0.7-2.1-1c-0.6-0.4-1-0.7-1.4-1.2c-0.3-0.4-0.6-0.8-0.7-1.3
			c-0.2-0.5-0.2-1-0.2-1.6c0-0.8,0.1-1.4,0.4-2c0.3-0.6,0.7-1.2,1.2-1.6c0.5-0.4,1.2-0.8,1.9-1c0.8-0.2,1.6-0.4,2.5-0.4
			c0.7,0,1.4,0.1,2,0.2c0.7,0.1,1.3,0.3,2,0.5L1403.1,254.3"/>
	</g>
	<g id="text7795-1-61-68">
		<path id="path10566" class="st4" d="M1428.4,308.9c1.3,0,2.4,0.2,3.5,0.7c1.1,0.4,2,1,2.7,1.8c0.8,0.8,1.3,1.7,1.7,2.9
			c0.4,1.1,0.6,2.4,0.6,3.8c0,1.4-0.2,2.7-0.6,3.9c-0.4,1.1-1,2.1-1.8,2.9c-0.8,0.8-1.7,1.4-2.7,1.9c-1.1,0.4-2.3,0.6-3.6,0.6
			c-1.3,0-2.5-0.2-3.6-0.6c-1.1-0.4-2-1.1-2.7-1.8c-0.8-0.8-1.3-1.8-1.7-2.9c-0.4-1.1-0.6-2.4-0.6-3.8c0-1.5,0.2-2.7,0.6-3.9
			s1-2.1,1.8-2.9c0.8-0.8,1.7-1.4,2.8-1.8C1425.8,309.1,1427,308.9,1428.4,308.9 M1428.2,311.3c-0.8,0-1.5,0.2-2.2,0.5
			c-0.6,0.3-1.2,0.8-1.7,1.4c-0.5,0.6-0.8,1.3-1.1,2.2s-0.4,1.8-0.4,2.8c0,1,0.1,2,0.4,2.8c0.3,0.8,0.6,1.6,1.1,2.2
			c0.5,0.6,1,1,1.7,1.4c0.7,0.3,1.4,0.5,2.2,0.5c0.8,0,1.5-0.2,2.2-0.5c0.7-0.3,1.2-0.8,1.7-1.4c0.5-0.6,0.8-1.3,1.1-2.2
			c0.3-0.8,0.4-1.8,0.4-2.8c0-1-0.1-2-0.4-2.8c-0.3-0.9-0.6-1.6-1.1-2.2c-0.5-0.6-1-1-1.7-1.4C1429.8,311.5,1429,311.3,1428.2,311.3
			"/>
		<path id="path10568" class="st4" d="M1443.6,327h-3.1v-17.9h3.1v7.9h0.1c0.2-0.3,0.5-0.6,0.8-0.9c0.3-0.4,0.6-0.7,0.9-1
			c0.3-0.4,0.6-0.7,0.9-1c0.3-0.3,0.5-0.6,0.6-0.7l3.8-4.2h4l-8,8.4l8.8,9.5h-4.3l-4.6-5.3c-0.3-0.4-0.7-0.9-1.3-1.5
			c-0.5-0.6-1-1.3-1.5-2h-0.1L1443.6,327"/>
	</g>
	<g id="text7795-1-8-3-7-5">
		<path id="path10558" class="st4" d="M1500.2,260.4c0.1,0.3,0.2,0.6,0.3,1c0.1,0.4,0.2,0.8,0.4,1.2c0.1,0.4,0.3,0.8,0.4,1.2
			c0.1,0.4,0.2,0.8,0.3,1.1h0.1c0.1-0.3,0.2-0.7,0.3-1.1c0.1-0.4,0.2-0.8,0.4-1.2c0.1-0.4,0.3-0.8,0.4-1.2c0.1-0.4,0.3-0.7,0.4-1
			l3.5-10h4.9v17.9h-3V258c0-0.3,0-0.7,0-1.2c0-0.4,0-0.9,0-1.4c0-0.5,0-1,0-1.5c0-0.5,0-1,0.1-1.4h-0.1c-0.1,0.4-0.2,0.8-0.4,1.2
			c-0.1,0.4-0.3,0.8-0.4,1.3c-0.1,0.4-0.3,0.8-0.4,1.2c-0.1,0.4-0.2,0.7-0.3,0.9l-4.1,11.1h-2.8l-4-10.9c-0.1-0.2-0.2-0.5-0.3-0.9
			c-0.1-0.4-0.3-0.8-0.4-1.3c-0.2-0.5-0.3-0.9-0.4-1.4c-0.1-0.5-0.2-0.8-0.3-1.2h-0.1c0,0.4,0,0.9,0,1.4c0,0.5,0,1,0,1.5
			c0,0.5,0,0.9,0,1.4c0,0.4,0,0.8,0,1.2v10.3h-2.9v-17.9h5L1500.2,260.4"/>
		<path id="path10560" class="st4" d="M1524,250.1c1.3,0,2.4,0.2,3.5,0.7c1.1,0.4,2,1,2.7,1.8c0.8,0.8,1.3,1.7,1.7,2.9
			c0.4,1.1,0.6,2.4,0.6,3.8c0,1.4-0.2,2.7-0.6,3.9c-0.4,1.1-1,2.1-1.8,2.9c-0.8,0.8-1.7,1.4-2.7,1.9c-1.1,0.4-2.3,0.6-3.6,0.6
			c-1.3,0-2.5-0.2-3.6-0.6c-1.1-0.4-2-1.1-2.7-1.8c-0.8-0.8-1.3-1.8-1.7-2.9c-0.4-1.1-0.6-2.4-0.6-3.8c0-1.5,0.2-2.7,0.6-3.9
			c0.4-1.1,1-2.1,1.8-2.9c0.8-0.8,1.7-1.4,2.8-1.8C1521.4,250.3,1522.6,250.1,1524,250.1 M1523.8,252.6c-0.8,0-1.5,0.2-2.2,0.5
			c-0.6,0.3-1.2,0.8-1.7,1.4c-0.5,0.6-0.8,1.3-1.1,2.2c-0.3,0.8-0.4,1.8-0.4,2.8s0.1,2,0.4,2.8c0.3,0.8,0.6,1.6,1.1,2.2
			c0.5,0.6,1,1,1.7,1.4c0.7,0.3,1.4,0.5,2.2,0.5c0.8,0,1.5-0.2,2.2-0.5c0.7-0.3,1.2-0.8,1.7-1.4c0.5-0.6,0.8-1.3,1.1-2.2
			c0.3-0.8,0.4-1.8,0.4-2.8c0-1-0.1-2-0.4-2.8c-0.3-0.9-0.6-1.6-1.1-2.2c-0.5-0.6-1-1-1.7-1.4
			C1525.4,252.7,1524.6,252.6,1523.8,252.6"/>
	</g>
	<g id="text7795-3-5-4-8-1-55">
		<path id="path10553_1_" class="st4" d="M1506.9,274.1h1.4"/>
		<path id="path10555" class="st4" d="M1518,273.8 M1518,273.8"/>
	</g>
	<g id="text7795-1-8-3-7-3">
		<path id="path10548" class="st4" d="M1514.3,330h-3.4l-1.7-4.3h-8l-1.7,4.3h-3.2l7.3-17.9h3.4L1514.3,330 M1506.3,318.3
			c-0.1-0.2-0.2-0.5-0.3-0.8c-0.1-0.3-0.2-0.7-0.3-1c-0.1-0.3-0.2-0.7-0.3-1c-0.1-0.3-0.2-0.6-0.2-0.8h-0.1
			c-0.1,0.2-0.2,0.5-0.3,0.8c-0.1,0.3-0.2,0.7-0.3,1c-0.1,0.3-0.2,0.7-0.3,1c-0.1,0.3-0.2,0.6-0.3,0.8l-1.9,5h6.3L1506.3,318.3"/>
		<path id="path10550" class="st4" d="M1516.8,312.2h4.8c1.1,0,2.1,0.1,2.9,0.2c0.9,0.2,1.6,0.4,2.3,0.8c0.6,0.4,1.1,0.8,1.4,1.4
			c0.3,0.6,0.5,1.3,0.5,2.3c0,1.2-0.4,2.2-1.1,2.8c-0.7,0.7-1.6,1.1-2.8,1.4v0.1c0.6,0.2,1.1,0.5,1.4,0.9c0.3,0.4,0.7,0.9,0.9,1.6
			l2.9,6.5h-3.4l-2.3-5.4c-0.2-0.5-0.4-0.8-0.6-1.1c-0.2-0.3-0.4-0.5-0.7-0.7c-0.3-0.2-0.6-0.3-1-0.4c-0.4-0.1-0.9-0.1-1.5-0.1h-0.9
			v7.7h-3.1L1516.8,312.2 M1519.9,319.9h1.2c1.5,0,2.6-0.2,3.4-0.6c0.8-0.4,1.2-1.1,1.2-2.1c0-0.5-0.1-1-0.3-1.3
			c-0.2-0.3-0.5-0.6-0.9-0.8c-0.4-0.2-0.8-0.3-1.4-0.4c-0.6-0.1-1.2-0.1-1.9-0.1h-1.2L1519.9,319.9"/>
	</g>
	<g id="text7795-1-61-68-1">
		<path id="path10540" class="st4" d="M1542.8,444.4h7.2v2.6h-10.3v-17.9h3.1V444.4"/>
		<path id="path10542" class="st4" d="M1568.8,447h-3.4l-1.7-4.3h-8l-1.7,4.3h-3.2l7.3-17.9h3.4L1568.8,447 M1560.8,435.3
			c-0.1-0.2-0.2-0.5-0.3-0.8c-0.1-0.3-0.2-0.7-0.3-1c-0.1-0.3-0.2-0.7-0.3-1c-0.1-0.3-0.2-0.6-0.2-0.8h-0.1
			c-0.1,0.2-0.2,0.5-0.3,0.8c-0.1,0.3-0.2,0.7-0.3,1c-0.1,0.3-0.2,0.7-0.3,1c-0.1,0.3-0.2,0.6-0.3,0.8l-1.9,5h6.3L1560.8,435.3"/>
	</g>
	<g id="text7795-1-61-68-18">
		<path id="path10532" class="st4" d="M1582.6,381.9c0.1,0.3,0.2,0.6,0.3,1c0.1,0.4,0.2,0.8,0.4,1.2c0.1,0.4,0.3,0.8,0.4,1.2
			c0.1,0.4,0.2,0.8,0.3,1.1h0.1c0.1-0.3,0.2-0.7,0.3-1.1c0.1-0.4,0.2-0.8,0.4-1.2c0.1-0.4,0.3-0.8,0.4-1.2c0.1-0.4,0.3-0.7,0.4-1
			l3.5-10h4.9v17.9h-3v-10.3c0-0.3,0-0.7,0-1.2s0-0.9,0-1.4c0-0.5,0-1,0-1.5c0-0.5,0-1,0.1-1.4h-0.1c-0.1,0.4-0.2,0.8-0.4,1.2
			c-0.1,0.4-0.3,0.8-0.4,1.3c-0.1,0.4-0.3,0.8-0.4,1.2c-0.1,0.4-0.2,0.7-0.3,0.9l-4.1,11.1h-2.8l-4-10.9c-0.1-0.2-0.2-0.5-0.3-0.9
			c-0.1-0.4-0.3-0.8-0.4-1.3c-0.2-0.5-0.3-0.9-0.4-1.4c-0.1-0.5-0.2-0.8-0.3-1.2h-0.1c0,0.4,0,0.9,0,1.4c0,0.5,0,1,0,1.5
			c0,0.5,0,0.9,0,1.4s0,0.8,0,1.2v10.3h-2.9v-17.9h5L1582.6,381.9"/>
		<path id="path10534" class="st4" d="M1607.3,374.8c-0.7-0.3-1.3-0.5-1.8-0.6c-0.6-0.1-1.1-0.2-1.6-0.2c-1,0-1.7,0.2-2.3,0.6
			c-0.6,0.4-0.8,0.9-0.8,1.6c0,0.3,0,0.6,0.1,0.8c0.1,0.2,0.2,0.5,0.5,0.7c0.3,0.2,0.6,0.5,1,0.7c0.4,0.2,1,0.5,1.7,0.8
			c1.6,0.6,2.8,1.4,3.5,2.2c0.7,0.8,1.1,1.9,1.1,3.1c0,0.8-0.2,1.6-0.5,2.3c-0.3,0.7-0.7,1.2-1.3,1.7c-0.5,0.5-1.2,0.8-2,1.1
			c-0.8,0.3-1.7,0.4-2.6,0.4c-0.8,0-1.6-0.1-2.3-0.2c-0.7-0.1-1.4-0.3-2.1-0.6l0.3-2.8c0.8,0.4,1.4,0.6,2.1,0.8
			c0.6,0.1,1.3,0.2,1.9,0.2c1,0,1.9-0.2,2.5-0.7c0.6-0.4,1-1.1,1-1.9c0-0.4-0.1-0.7-0.2-1c-0.1-0.3-0.3-0.6-0.6-0.8
			c-0.3-0.3-0.6-0.5-1-0.7c-0.4-0.3-1-0.5-1.7-0.8c-0.8-0.3-1.5-0.7-2.1-1c-0.6-0.4-1-0.7-1.4-1.2c-0.3-0.4-0.6-0.8-0.7-1.3
			c-0.2-0.5-0.2-1-0.2-1.6c0-0.8,0.1-1.4,0.4-2c0.3-0.6,0.7-1.2,1.2-1.6c0.5-0.4,1.2-0.8,1.9-1c0.8-0.2,1.6-0.4,2.5-0.4
			c0.7,0,1.4,0.1,2,0.2c0.7,0.1,1.3,0.3,2,0.5L1607.3,374.8"/>
	</g>
	<g id="text7795-1-8-3-7-3-5">
		<path id="path10524" class="st4" d="M1666.7,391.3h-3.4l-1.7-4.3h-8l-1.7,4.3h-3.2l7.3-17.9h3.4L1666.7,391.3 M1658.8,379.6
			c-0.1-0.2-0.2-0.5-0.3-0.8c-0.1-0.3-0.2-0.7-0.3-1c-0.1-0.3-0.2-0.7-0.3-1c-0.1-0.3-0.2-0.6-0.2-0.8h-0.1
			c-0.1,0.2-0.2,0.5-0.3,0.8c-0.1,0.3-0.2,0.7-0.3,1c-0.1,0.3-0.2,0.7-0.3,1c-0.1,0.3-0.2,0.6-0.3,0.8l-1.9,5h6.3L1658.8,379.6"/>
		<path id="path10526" class="st4" d="M1672.4,388.7h7.2v2.6h-10.3v-17.9h3.1V388.7"/>
	</g>
	<g id="text7795-1-61-7-2-6">
		<path id="path10516" class="st4" d="M1607.3,339.3V324l-5.2,0.1v-2.7h13.5v2.7l-5.2-0.1v15.3H1607.3"/>
		<path id="path10518" class="st4" d="M1630,321.4h2.8v17.9h-4l-5.4-10.2c-0.2-0.4-0.4-0.8-0.7-1.3c-0.2-0.4-0.4-0.9-0.6-1.3
			c-0.2-0.4-0.4-0.9-0.6-1.3c-0.2-0.4-0.3-0.7-0.4-1h-0.1c0,0.3,0,0.6,0.1,1.1c0,0.5,0,0.9,0,1.5c0,0.5,0,1,0,1.6c0,0.5,0,1,0,1.3
			v9.5h-2.9v-17.9h4.3l5.2,10.1c0.2,0.3,0.3,0.7,0.5,1.1c0.2,0.4,0.4,0.8,0.6,1.2c0.2,0.4,0.4,0.8,0.6,1.2c0.2,0.4,0.3,0.7,0.5,1
			h0.1c0-0.3,0-0.8-0.1-1.3c0-0.5,0-1.1-0.1-1.7c0-0.6,0-1.2-0.1-1.8c0-0.6,0-1.1,0-1.5V321.4"/>
	</g>
	<g id="text7795-1-8-3-7-7">
		<path id="path10506" class="st4" d="M1701,269.8h-3.1v-17.9h3.1v7.9h0.1c0.2-0.3,0.5-0.6,0.8-0.9c0.3-0.4,0.6-0.7,0.9-1
			c0.3-0.4,0.6-0.7,0.9-1c0.3-0.3,0.5-0.6,0.6-0.7l3.8-4.2h4l-8,8.4l8.8,9.5h-4.3l-4.6-5.3c-0.3-0.4-0.7-0.9-1.3-1.5
			c-0.5-0.6-1-1.3-1.5-2h-0.1L1701,269.8"/>
		<path id="path10508" class="st4" d="M1716.1,251.9l2.2,3.6c0.2,0.3,0.4,0.6,0.6,1.1c0.3,0.4,0.5,0.8,0.7,1.3
			c0.2,0.4,0.5,0.8,0.7,1.2c0.2,0.4,0.4,0.7,0.5,0.9h0.1c0.1-0.2,0.3-0.5,0.5-0.9c0.2-0.4,0.5-0.8,0.7-1.2c0.3-0.4,0.5-0.8,0.7-1.3
			c0.2-0.4,0.4-0.8,0.6-1l2.2-3.6h3.5l-6.7,10.5v7.3h-3.1v-7.3l-6.8-10.6H1716.1"/>
	</g>
	<g id="text7795-3-5-38-0-7">
		<path id="path10503" class="st4" d="M1711.1,276.3"/>
	</g>
	<g id="text7795-1-61-7-2-6-3">
		<path id="path10498" class="st4" d="M1640.8,158.3h-3.1v-17.9h3.1V158.3"/>
		<path id="path10500" class="st4" d="M1657.1,140.5h2.8v17.9h-4l-5.4-10.2c-0.2-0.4-0.4-0.8-0.7-1.3c-0.2-0.4-0.4-0.9-0.6-1.3
			c-0.2-0.4-0.4-0.9-0.6-1.3c-0.2-0.4-0.3-0.7-0.4-1h-0.1c0,0.3,0,0.6,0.1,1.1c0,0.5,0,0.9,0,1.5c0,0.5,0,1,0,1.6c0,0.5,0,1,0,1.3
			v9.5h-2.9v-17.9h4.3l5.2,10.1c0.2,0.3,0.3,0.7,0.5,1.1c0.2,0.4,0.4,0.8,0.6,1.2c0.2,0.4,0.4,0.8,0.6,1.2c0.2,0.4,0.3,0.7,0.5,1
			h0.1c0-0.3,0-0.8-0.1-1.3c0-0.5,0-1.1-0.1-1.7c0-0.6,0-1.2-0.1-1.8c0-0.6,0-1.1,0-1.5V140.5"/>
	</g>
	<g id="text7795-1-61-7-2-6-3-9">
		<path id="path10488" class="st4" d="M1565.5,132.2h-3.1v-17.9h3.1V132.2"/>
		<path id="path10490" class="st4" d="M1573.2,129.5h7.2v2.6h-10.3v-17.9h3.1V129.5"/>
	</g>
	<g id="text7795-1-8-4-7-0">
		<path id="path10478" class="st4" d="M1486.6,148.3h-3.1v-17.9h3.1V148.3"/>
		<path id="path10480" class="st4" d="M1507.3,148.3h-3.4l-1.7-4.3h-8l-1.7,4.3h-3.2l7.3-17.9h3.4L1507.3,148.3 M1499.3,136.6
			c-0.1-0.2-0.2-0.5-0.3-0.8c-0.1-0.3-0.2-0.7-0.3-1c-0.1-0.3-0.2-0.7-0.3-1c-0.1-0.3-0.2-0.6-0.2-0.8h-0.1
			c-0.1,0.2-0.2,0.5-0.3,0.8c-0.1,0.3-0.2,0.7-0.3,1c-0.1,0.3-0.2,0.7-0.3,1c-0.1,0.3-0.2,0.6-0.3,0.8l-1.9,5h6.3L1499.3,136.6"/>
	</g>
	<g id="text7795-1-8-4-7-0-8">
		<path id="path10470" class="st4" d="M1490.1,49.9c0.1,0.3,0.2,0.6,0.3,1c0.1,0.4,0.2,0.8,0.4,1.2c0.1,0.4,0.3,0.8,0.4,1.2
			c0.1,0.4,0.2,0.8,0.3,1.1h0.1c0.1-0.3,0.2-0.7,0.3-1.1c0.1-0.4,0.2-0.8,0.4-1.2c0.1-0.4,0.3-0.8,0.4-1.2c0.1-0.4,0.3-0.7,0.4-1
			l3.5-10h4.9v17.9h-3V47.5c0-0.3,0-0.7,0-1.2c0-0.4,0-0.9,0-1.4c0-0.5,0-1,0-1.5c0-0.5,0-1,0.1-1.4h-0.1c-0.1,0.4-0.2,0.8-0.4,1.2
			c-0.1,0.4-0.3,0.8-0.4,1.3c-0.1,0.4-0.3,0.8-0.4,1.2c-0.1,0.4-0.2,0.7-0.3,0.9l-4.1,11.1h-2.8l-4-10.9c-0.1-0.2-0.2-0.5-0.3-0.9
			c-0.1-0.4-0.3-0.8-0.4-1.3c-0.2-0.5-0.3-0.9-0.4-1.4c-0.1-0.5-0.2-0.8-0.3-1.2h-0.1c0,0.4,0,0.9,0,1.4c0,0.5,0,1,0,1.5
			c0,0.5,0,0.9,0,1.4c0,0.4,0,0.8,0,1.2v10.3h-2.9V39.9h5L1490.1,49.9"/>
		<path id="path10472" class="st4" d="M1517.7,39.9h2.8v17.9h-4l-5.4-10.2c-0.2-0.4-0.4-0.8-0.7-1.3c-0.2-0.4-0.4-0.9-0.6-1.3
			c-0.2-0.4-0.4-0.9-0.6-1.3c-0.2-0.4-0.3-0.7-0.4-1h-0.1c0,0.3,0,0.6,0.1,1.1c0,0.5,0,0.9,0,1.5c0,0.5,0,1,0,1.6c0,0.5,0,1,0,1.3
			v9.5h-2.9V39.9h4.3l5.2,10.1c0.2,0.3,0.3,0.7,0.5,1.1c0.2,0.4,0.4,0.8,0.6,1.2c0.2,0.4,0.4,0.8,0.6,1.2c0.2,0.4,0.3,0.7,0.5,1h0.1
			c0-0.3,0-0.8-0.1-1.3c0-0.5,0-1.1-0.1-1.7c0-0.6,0-1.2-0.1-1.8c0-0.6,0-1.1,0-1.5V39.9"/>
	</g>
	<g id="text7795-1-8-4-7-0-8-7">
		<path id="path10460" class="st4" d="M1541.4-10c-0.1-0.2-0.1-0.4-0.2-0.7c-0.1-0.3-0.1-0.6-0.2-0.8c-0.1-0.3-0.1-0.6-0.2-0.9
			c-0.1-0.3-0.1-0.6-0.1-0.8h-0.1c-0.1,0.5-0.2,1-0.3,1.6c-0.1,0.6-0.2,1.1-0.3,1.6l-3,12.4h-3.9l-5.2-17.9h3.3l3,11.3
			c0,0.2,0.1,0.4,0.2,0.7c0.1,0.3,0.2,0.7,0.3,1.1c0.1,0.4,0.2,0.8,0.3,1.3c0.1,0.4,0.2,0.8,0.2,1h0.1c0.1-0.3,0.1-0.6,0.2-1
			c0.1-0.4,0.2-0.8,0.3-1.3c0.1-0.4,0.2-0.8,0.2-1.1c0.1-0.3,0.1-0.6,0.2-0.7l2.7-11.3h4.2l2.8,11.3c0,0.2,0.1,0.4,0.2,0.8
			c0.1,0.3,0.2,0.7,0.3,1.1c0.1,0.4,0.2,0.8,0.2,1.2c0.1,0.4,0.2,0.8,0.2,1h0.1c0.1-0.3,0.1-0.6,0.2-1c0.1-0.4,0.2-0.8,0.3-1.2
			c0.1-0.4,0.2-0.8,0.2-1.1c0.1-0.3,0.2-0.6,0.2-0.8l2.9-11.3h3.1l-5.2,17.9h-3.9L1541.4-10"/>
		<path id="path10462" class="st4" d="M1559.3,2.4h-3.1v-17.9h3.1V2.4"/>
	</g>
	<g id="text7795-1-8-4-7-0-8-3">
		<path id="path10450" class="st4" d="M1675.2,35.2c0.1,0.3,0.2,0.6,0.3,1c0.1,0.4,0.2,0.8,0.4,1.2c0.1,0.4,0.3,0.8,0.4,1.2
			c0.1,0.4,0.2,0.8,0.3,1.1h0.1c0.1-0.3,0.2-0.7,0.3-1.1c0.1-0.4,0.2-0.8,0.4-1.2c0.1-0.4,0.3-0.8,0.4-1.2c0.1-0.4,0.3-0.7,0.4-1
			l3.5-10h4.9v17.9h-3V32.8c0-0.3,0-0.7,0-1.2c0-0.4,0-0.9,0-1.4c0-0.5,0-1,0-1.5c0-0.5,0-1,0.1-1.4h-0.1c-0.1,0.4-0.2,0.8-0.4,1.2
			c-0.1,0.4-0.3,0.8-0.4,1.3c-0.1,0.4-0.3,0.8-0.4,1.2c-0.1,0.4-0.2,0.7-0.3,0.9l-4.1,11.1h-2.8l-4-10.9c-0.1-0.2-0.2-0.5-0.3-0.9
			c-0.1-0.4-0.3-0.8-0.4-1.3c-0.2-0.5-0.3-0.9-0.4-1.4c-0.1-0.5-0.2-0.8-0.3-1.2h-0.1c0,0.4,0,0.9,0,1.4c0,0.5,0,1,0,1.5
			c0,0.5,0,0.9,0,1.4c0,0.4,0,0.8,0,1.2v10.3h-2.9V25.2h5L1675.2,35.2"/>
		<path id="path10452" class="st4" d="M1694.1,43.1h-3.1V25.2h3.1V43.1"/>
	</g>
	<g id="text7795-1-8-4-7-0-8-3-5">
		<path id="path10440" class="st4" d="M1731.5,166.3c1.3,0,2.4,0.2,3.5,0.7c1.1,0.4,2,1,2.7,1.8c0.8,0.8,1.3,1.7,1.7,2.9
			c0.4,1.1,0.6,2.4,0.6,3.8c0,1.4-0.2,2.7-0.6,3.9c-0.4,1.1-1,2.1-1.8,2.9c-0.8,0.8-1.7,1.4-2.7,1.9c-1.1,0.4-2.3,0.6-3.6,0.6
			c-1.3,0-2.5-0.2-3.6-0.6c-1.1-0.4-2-1.1-2.7-1.8c-0.8-0.8-1.3-1.8-1.7-2.9c-0.4-1.1-0.6-2.4-0.6-3.8c0-1.5,0.2-2.7,0.6-3.9
			c0.4-1.1,1-2.1,1.8-2.9c0.8-0.8,1.7-1.4,2.8-1.8C1728.9,166.5,1730.1,166.3,1731.5,166.3 M1731.3,168.7c-0.8,0-1.5,0.2-2.2,0.5
			c-0.6,0.3-1.2,0.8-1.7,1.4c-0.5,0.6-0.8,1.3-1.1,2.2c-0.3,0.8-0.4,1.8-0.4,2.8c0,1,0.1,2,0.4,2.8c0.3,0.8,0.6,1.6,1.1,2.2
			c0.5,0.6,1,1,1.7,1.4c0.7,0.3,1.4,0.5,2.2,0.5c0.8,0,1.5-0.2,2.2-0.5c0.7-0.3,1.2-0.8,1.7-1.4c0.5-0.6,0.8-1.3,1.1-2.2
			c0.3-0.8,0.4-1.8,0.4-2.8c0-1-0.1-2-0.4-2.8c-0.3-0.9-0.6-1.6-1.1-2.2c-0.5-0.6-1-1-1.7-1.4
			C1732.9,168.9,1732.1,168.7,1731.3,168.7"/>
		<path id="path10442" class="st4" d="M1757.8,184.5h-3.1v-7.9h-7.9v7.9h-3.1v-17.9h3.1v7.3h7.9v-7.3h3.1V184.5"/>
	</g>
	<g id="text7795-1-8-3-7-7-6">
		<path id="path10430" class="st4" d="M1822.5,194.4c-0.1-0.2-0.1-0.4-0.2-0.7c-0.1-0.3-0.1-0.6-0.2-0.8c-0.1-0.3-0.1-0.6-0.2-0.9
			c-0.1-0.3-0.1-0.6-0.1-0.8h-0.1c-0.1,0.5-0.2,1-0.3,1.6c-0.1,0.6-0.2,1.1-0.3,1.6l-3,12.4h-3.9l-5.2-17.9h3.3l3,11.3
			c0,0.2,0.1,0.4,0.2,0.7c0.1,0.3,0.2,0.7,0.3,1.1c0.1,0.4,0.2,0.8,0.3,1.3c0.1,0.4,0.2,0.8,0.2,1h0.1c0.1-0.3,0.1-0.6,0.2-1
			c0.1-0.4,0.2-0.8,0.3-1.3c0.1-0.4,0.2-0.8,0.2-1.1c0.1-0.3,0.1-0.6,0.2-0.7l2.7-11.3h4.2l2.8,11.3c0,0.2,0.1,0.4,0.2,0.8
			c0.1,0.3,0.2,0.7,0.3,1.1s0.2,0.8,0.2,1.2c0.1,0.4,0.2,0.8,0.2,1h0.1c0.1-0.3,0.1-0.6,0.2-1c0.1-0.4,0.2-0.8,0.3-1.2
			c0.1-0.4,0.2-0.8,0.2-1.1c0.1-0.3,0.2-0.6,0.2-0.8l2.9-11.3h3.1l-5.2,17.9h-3.9L1822.5,194.4"/>
		<path id="path10432" class="st4" d="M1842.7,201c0.1,0.2,0.1,0.4,0.2,0.7c0.1,0.3,0.2,0.6,0.3,0.8c0.1,0.3,0.2,0.6,0.3,0.9
			c0.1,0.3,0.2,0.6,0.3,0.8h0.1c0.1-0.2,0.1-0.5,0.2-0.8c0.1-0.3,0.2-0.6,0.3-0.9c0.1-0.3,0.2-0.6,0.3-0.8c0.1-0.3,0.2-0.5,0.2-0.7
			l4.1-12.1h3.2l-6.6,17.9h-3.7l-6.6-17.9h3.4L1842.7,201"/>
	</g>
	<g id="text7795-1-8-4-7-0-8-3-0">
		<path id="path10422" class="st4" d="M1843.8,138.4c1,0,2,0.1,2.8,0.2c0.9,0.2,1.7,0.4,2.4,0.8c0.7,0.4,1.2,0.9,1.6,1.7
			c0.4,0.7,0.6,1.6,0.6,2.7c0,1.1-0.2,2-0.6,2.7c-0.4,0.7-0.9,1.3-1.6,1.7c-0.7,0.4-1.5,0.7-2.4,0.9c-0.9,0.2-1.8,0.3-2.8,0.3h-1.2
			v7h-3.1v-17.9H1843.8 M1842.6,146.9h1c0.7,0,1.3,0,1.8-0.1c0.6-0.1,1-0.2,1.4-0.5c0.4-0.2,0.7-0.5,0.9-0.9
			c0.2-0.4,0.3-0.9,0.3-1.5c0-0.6-0.1-1.1-0.3-1.4c-0.2-0.4-0.5-0.7-0.9-0.9c-0.4-0.2-0.8-0.4-1.4-0.5c-0.5-0.1-1.2-0.2-1.9-0.2
			h-0.9L1842.6,146.9"/>
		<path id="path10424" class="st4" d="M1868.8,156.3h-3.4l-1.7-4.3h-8l-1.7,4.3h-3.2l7.3-17.9h3.4L1868.8,156.3 M1860.9,144.6
			c-0.1-0.2-0.2-0.5-0.3-0.8c-0.1-0.3-0.2-0.7-0.3-1c-0.1-0.3-0.2-0.7-0.3-1c-0.1-0.3-0.2-0.6-0.2-0.8h-0.1
			c-0.1,0.2-0.2,0.5-0.3,0.8c-0.1,0.3-0.2,0.7-0.3,1c-0.1,0.3-0.2,0.7-0.3,1c-0.1,0.3-0.2,0.6-0.3,0.8l-1.9,5h6.3L1860.9,144.6"/>
	</g>
	<g id="text7795-1-8-4-7-0-8-3-5-9">
		<path id="path10412" class="st4" d="M1801.3,306.5c0.1,0.2,0.1,0.4,0.2,0.7c0.1,0.3,0.2,0.6,0.3,0.8c0.1,0.3,0.2,0.6,0.3,0.9
			c0.1,0.3,0.2,0.6,0.3,0.8h0.1c0.1-0.2,0.1-0.5,0.2-0.8c0.1-0.3,0.2-0.6,0.3-0.9c0.1-0.3,0.2-0.6,0.3-0.8c0.1-0.3,0.2-0.5,0.2-0.7
			l4.1-12.1h3.2l-6.6,17.9h-3.7l-6.6-17.9h3.4L1801.3,306.5"/>
		<path id="path10414" class="st4" d="M1827.9,312.3h-3.4l-1.7-4.3h-8l-1.7,4.3h-3.2l7.3-17.9h3.4L1827.9,312.3 M1820,300.6
			c-0.1-0.2-0.2-0.5-0.3-0.8c-0.1-0.3-0.2-0.7-0.3-1c-0.1-0.3-0.2-0.7-0.3-1c-0.1-0.3-0.2-0.6-0.2-0.8h-0.1
			c-0.1,0.2-0.2,0.5-0.3,0.8c-0.1,0.3-0.2,0.7-0.3,1c-0.1,0.3-0.2,0.7-0.3,1c-0.1,0.3-0.2,0.6-0.3,0.8l-1.9,5h6.3L1820,300.6"/>
	</g>
	<g id="text7795-1-8-4-7-0-8-3-5-9-8">
		<path id="path10402" class="st4" d="M1836.9,352.6h2.8v17.9h-4l-5.4-10.2c-0.2-0.4-0.4-0.8-0.7-1.3c-0.2-0.4-0.4-0.9-0.6-1.3
			c-0.2-0.4-0.4-0.9-0.6-1.3c-0.2-0.4-0.3-0.7-0.4-1h-0.1c0,0.3,0,0.6,0.1,1.1c0,0.5,0,0.9,0,1.5c0,0.5,0,1,0,1.6c0,0.5,0,1,0,1.3
			v9.5h-2.9v-17.9h4.3l5.2,10.1c0.2,0.3,0.3,0.7,0.5,1.1c0.2,0.4,0.4,0.8,0.6,1.2c0.2,0.4,0.4,0.8,0.6,1.2c0.2,0.4,0.3,0.7,0.5,1
			h0.1c0-0.3,0-0.8-0.1-1.3c0-0.5,0-1.1-0.1-1.7c0-0.6,0-1.2-0.1-1.8c0-0.6,0-1.1,0-1.5V352.6"/>
		<path id="path10404" class="st4" d="M1856.7,355.8c-0.6-0.3-1.2-0.5-1.8-0.6c-0.6-0.2-1.3-0.2-2-0.2c-0.9,0-1.8,0.2-2.6,0.5
			c-0.8,0.3-1.4,0.7-2,1.3c-0.6,0.6-1,1.2-1.3,2c-0.3,0.8-0.5,1.7-0.5,2.7c0,1,0.2,1.9,0.5,2.8c0.3,0.8,0.8,1.5,1.4,2.1
			c0.6,0.6,1.3,1,2,1.3c0.8,0.3,1.7,0.4,2.6,0.4c0.6,0,1.3,0,1.9-0.1c0.6-0.1,1.3-0.3,2-0.6l0.2,2.7c-0.5,0.2-1.2,0.4-1.9,0.5
			c-0.7,0.1-1.4,0.2-2.2,0.2c-1.4,0-2.7-0.2-3.9-0.6c-1.2-0.4-2.2-1-3-1.8s-1.5-1.7-2-2.9c-0.5-1.1-0.7-2.4-0.7-3.9
			c0-1.3,0.2-2.6,0.7-3.7c0.5-1.1,1.2-2.1,2-2.9c0.9-0.8,1.9-1.4,3-1.8c1.2-0.4,2.4-0.7,3.8-0.7c0.8,0,1.5,0.1,2.1,0.2
			c0.7,0.1,1.4,0.3,2,0.5L1856.7,355.8"/>
	</g>
	<g id="text7795-1-8-4-7-0-8-3-5-9-8-6">
		<path id="path10392" class="st4" d="M1827.7,417.4c-0.7-0.3-1.3-0.5-1.8-0.6c-0.6-0.1-1.1-0.2-1.6-0.2c-1,0-1.7,0.2-2.3,0.6
			c-0.6,0.4-0.8,0.9-0.8,1.6c0,0.3,0,0.6,0.1,0.8c0.1,0.2,0.2,0.5,0.5,0.7c0.3,0.2,0.6,0.5,1,0.7c0.4,0.2,1,0.5,1.7,0.8
			c1.6,0.6,2.8,1.4,3.5,2.2s1.1,1.9,1.1,3.1c0,0.8-0.2,1.6-0.5,2.3c-0.3,0.7-0.7,1.2-1.3,1.7c-0.5,0.5-1.2,0.8-2,1.1
			c-0.8,0.3-1.7,0.4-2.6,0.4c-0.8,0-1.6-0.1-2.3-0.2c-0.7-0.1-1.4-0.3-2.1-0.6l0.3-2.8c0.8,0.4,1.4,0.6,2.1,0.8
			c0.6,0.1,1.3,0.2,1.9,0.2c1,0,1.9-0.2,2.5-0.7c0.6-0.4,1-1.1,1-1.9c0-0.4-0.1-0.7-0.2-1c-0.1-0.3-0.3-0.6-0.6-0.8
			c-0.3-0.3-0.6-0.5-1-0.7c-0.4-0.3-1-0.5-1.7-0.8c-0.8-0.3-1.5-0.7-2.1-1c-0.6-0.4-1-0.7-1.4-1.2c-0.3-0.4-0.6-0.8-0.7-1.3
			c-0.2-0.5-0.2-1-0.2-1.6c0-0.8,0.1-1.4,0.4-2c0.3-0.6,0.7-1.2,1.2-1.6c0.5-0.4,1.2-0.8,1.9-1c0.8-0.2,1.6-0.4,2.5-0.4
			c0.7,0,1.4,0.1,2,0.2c0.7,0.1,1.3,0.3,2,0.5L1827.7,417.4"/>
		<path id="path10394" class="st4" d="M1844.7,417.7c-0.6-0.3-1.2-0.5-1.8-0.6c-0.6-0.2-1.3-0.2-2-0.2c-0.9,0-1.8,0.2-2.6,0.5
			c-0.8,0.3-1.4,0.7-2,1.3c-0.6,0.6-1,1.2-1.3,2c-0.3,0.8-0.5,1.7-0.5,2.7c0,1,0.2,1.9,0.5,2.8c0.3,0.8,0.8,1.5,1.4,2.1
			c0.6,0.6,1.3,1,2,1.3c0.8,0.3,1.7,0.4,2.6,0.4c0.6,0,1.3,0,1.9-0.1c0.6-0.1,1.3-0.3,2-0.6l0.2,2.7c-0.5,0.2-1.2,0.4-1.9,0.5
			c-0.7,0.1-1.4,0.2-2.2,0.2c-1.4,0-2.7-0.2-3.9-0.6c-1.2-0.4-2.2-1-3-1.8s-1.5-1.7-2-2.9c-0.5-1.1-0.7-2.4-0.7-3.9
			c0-1.3,0.2-2.6,0.7-3.7c0.5-1.1,1.2-2.1,2-2.9c0.9-0.8,1.9-1.4,3-1.8c1.2-0.4,2.4-0.7,3.8-0.7c0.8,0,1.5,0.1,2.1,0.2
			c0.7,0.1,1.4,0.3,2,0.5L1844.7,417.7"/>
	</g>
	<g id="text7795-1-61-68-18-9">
		<path id="path10384" class="st4" d="M1751.1,400.3c-0.6-0.3-1.3-0.6-2.2-0.8c-0.8-0.2-1.7-0.3-2.5-0.3c-1,0-1.9,0.2-2.8,0.5
			c-0.8,0.3-1.5,0.8-2.1,1.3c-0.6,0.6-1,1.2-1.4,2c-0.3,0.8-0.5,1.7-0.5,2.7c0,1,0.2,1.9,0.5,2.7c0.3,0.8,0.7,1.5,1.3,2.1
			c0.6,0.6,1.3,1,2.1,1.3c0.8,0.3,1.7,0.5,2.7,0.5c0.4,0,0.8,0,1.2-0.1c0.4,0,0.8-0.1,1.2-0.2v-4.8h-3.8v-2.5h6.8v9.3
			c-1,0.3-1.9,0.5-2.8,0.7c-0.9,0.1-1.8,0.2-2.8,0.2c-1.4,0-2.7-0.2-3.9-0.6s-2.2-1-3-1.8s-1.5-1.8-2-2.9c-0.5-1.1-0.7-2.4-0.7-3.8
			c0-1.4,0.2-2.6,0.7-3.7c0.5-1.1,1.2-2.1,2-2.8c0.9-0.8,1.9-1.4,3.2-1.8c1.2-0.4,2.6-0.6,4.1-0.6c0.9,0,1.7,0.1,2.5,0.2
			c0.8,0.1,1.6,0.3,2.4,0.6L1751.1,400.3"/>
		<path id="path10386" class="st4" d="M1771.9,414.6h-3.4l-1.7-4.3h-8l-1.7,4.3h-3.2l7.3-17.9h3.4L1771.9,414.6 M1764,402.9
			c-0.1-0.2-0.2-0.5-0.3-0.8c-0.1-0.3-0.2-0.7-0.3-1c-0.1-0.3-0.2-0.7-0.3-1c-0.1-0.3-0.2-0.6-0.2-0.8h-0.1
			c-0.1,0.2-0.2,0.5-0.3,0.8c-0.1,0.3-0.2,0.7-0.3,1c-0.1,0.3-0.2,0.7-0.3,1c-0.1,0.3-0.2,0.6-0.3,0.8l-1.9,5h6.3L1764,402.9"/>
	</g>
	<g id="text7795-1-61-68-18-9-1">
		<path id="path10374" class="st4" d="M1799.5,578.3v-17.9h9.7v2.6h-6.6v5.1h6.3v2.5h-6.3v7.7H1799.5"/>
		<path id="path10376" class="st4" d="M1815.7,575.7h7.2v2.6h-10.3v-17.9h3.1V575.7"/>
	</g>
	<g id="text7795-1-8-4-7-0-8-3-0-5">
		<path id="path10364" class="st4" d="M1880,248.6c1.5,0,2.9,0.2,4.2,0.5c1.3,0.3,2.4,0.8,3.4,1.5c1,0.7,1.7,1.6,2.3,2.8
			c0.5,1.1,0.8,2.5,0.8,4.2c0,1.6-0.3,2.9-0.8,4c-0.5,1.1-1.3,2-2.3,2.7c-1,0.7-2.1,1.2-3.4,1.6c-1.3,0.3-2.7,0.5-4.2,0.5h-4.4
			v-17.9L1880,248.6 M1878.8,264.1h1c1.1,0,2.1-0.1,3-0.3c1-0.2,1.8-0.6,2.5-1.1c0.7-0.5,1.2-1.2,1.6-2c0.4-0.8,0.6-1.8,0.6-3
			c0-1.3-0.2-2.3-0.6-3.1c-0.4-0.8-0.9-1.5-1.6-2c-0.7-0.5-1.5-0.8-2.5-1c-0.9-0.2-2-0.3-3-0.3h-1V264.1"/>
		<path id="path10366" class="st4" d="M1906.7,251.9c-0.6-0.3-1.2-0.5-1.8-0.6c-0.6-0.2-1.3-0.2-2-0.2c-0.9,0-1.8,0.2-2.6,0.5
			c-0.8,0.3-1.4,0.7-2,1.3c-0.6,0.6-1,1.2-1.3,2c-0.3,0.8-0.5,1.7-0.5,2.7c0,1,0.2,1.9,0.5,2.8c0.3,0.8,0.8,1.5,1.4,2.1
			c0.6,0.6,1.3,1,2,1.3c0.8,0.3,1.7,0.4,2.6,0.4c0.6,0,1.3,0,1.9-0.1c0.6-0.1,1.3-0.3,2-0.6l0.2,2.7c-0.5,0.2-1.2,0.4-1.9,0.5
			c-0.7,0.1-1.4,0.2-2.2,0.2c-1.4,0-2.7-0.2-3.9-0.6c-1.2-0.4-2.2-1-3-1.8c-0.9-0.8-1.5-1.7-2-2.9c-0.5-1.1-0.7-2.4-0.7-3.9
			c0-1.3,0.2-2.6,0.7-3.7c0.5-1.1,1.2-2.1,2-2.9c0.9-0.8,1.9-1.4,3-1.8c1.2-0.4,2.4-0.7,3.8-0.7c0.8,0,1.5,0.1,2.1,0.2
			c0.7,0.1,1.4,0.3,2,0.5L1906.7,251.9"/>
	</g>
	<g id="text7795-1-8-4-7-0-8-3-7">
		<path id="path10356" class="st4" d="M1939.1,232.1c0.1,0.3,0.2,0.6,0.3,1c0.1,0.4,0.2,0.8,0.4,1.2c0.1,0.4,0.3,0.8,0.4,1.2
			c0.1,0.4,0.2,0.8,0.3,1.1h0.1c0.1-0.3,0.2-0.7,0.3-1.1c0.1-0.4,0.2-0.8,0.4-1.2c0.1-0.4,0.3-0.8,0.4-1.2c0.1-0.4,0.3-0.7,0.4-1
			l3.5-10h4.9V240h-3v-10.3c0-0.3,0-0.7,0-1.2c0-0.4,0-0.9,0-1.4c0-0.5,0-1,0-1.5c0-0.5,0-1,0.1-1.4h-0.1c-0.1,0.4-0.2,0.8-0.4,1.2
			c-0.1,0.4-0.3,0.8-0.4,1.3c-0.1,0.4-0.3,0.8-0.4,1.2c-0.1,0.4-0.2,0.7-0.3,0.9l-4.1,11.1h-2.8l-4-10.9c-0.1-0.2-0.2-0.5-0.3-0.9
			c-0.1-0.4-0.3-0.8-0.4-1.3c-0.2-0.5-0.3-0.9-0.4-1.4c-0.1-0.5-0.2-0.8-0.3-1.2h-0.1c0,0.4,0,0.9,0,1.4c0,0.5,0,1,0,1.5
			c0,0.5,0,0.9,0,1.4c0,0.4,0,0.8,0,1.2V240h-2.9v-17.9h5L1939.1,232.1"/>
		<path id="path10358" class="st4" d="M1959.3,222.1c1.5,0,2.9,0.2,4.2,0.5c1.3,0.3,2.4,0.8,3.4,1.5c1,0.7,1.7,1.6,2.3,2.8
			c0.5,1.1,0.8,2.5,0.8,4.2c0,1.6-0.3,2.9-0.8,4c-0.5,1.1-1.3,2-2.3,2.7c-1,0.7-2.1,1.2-3.4,1.6c-1.3,0.3-2.7,0.5-4.2,0.5h-4.4
			v-17.9H1959.3 M1958,237.5h1c1.1,0,2.1-0.1,3-0.3c1-0.2,1.8-0.6,2.5-1.1c0.7-0.5,1.2-1.2,1.6-2c0.4-0.8,0.6-1.8,0.6-3
			c0-1.3-0.2-2.3-0.6-3.1c-0.4-0.8-0.9-1.5-1.6-2c-0.7-0.5-1.5-0.8-2.5-1c-0.9-0.2-2-0.3-3-0.3h-1V237.5"/>
	</g>
	<g id="text7795-1-8-4-7-0-8-3-0-5-4">
		<path id="path10346" class="st5" d="M2042.8,254.9c1.9,0,3.6,0.2,5.2,0.6c1.6,0.4,3.1,1,4.3,1.9c1.2,0.9,2.1,2.1,2.8,3.5
			c0.7,1.4,1,3.2,1,5.2c0,2-0.4,3.6-1.1,5.1c-0.7,1.4-1.6,2.5-2.8,3.4c-1.2,0.9-2.6,1.6-4.2,2c-1.6,0.4-3.4,0.6-5.2,0.6h-5.5v-22.3
			L2042.8,254.9 M2041.2,274.2h1.2c1.4,0,2.6-0.1,3.8-0.4c1.2-0.3,2.2-0.7,3.1-1.3c0.9-0.6,1.6-1.5,2-2.5c0.5-1,0.7-2.3,0.7-3.8
			c0-1.6-0.2-2.9-0.7-3.9c-0.5-1-1.2-1.9-2-2.5c-0.9-0.6-1.9-1-3.1-1.3c-1.2-0.3-2.4-0.4-3.8-0.4h-1.2V274.2"/>
		<path id="path10348" class="st5" d="M2073.7,277.2h-13v-22.3h12.8v3.2h-9v6h8.3v3.1h-8.3v6.7h9.2L2073.7,277.2"/>
	</g>
	<g id="text7795-3-5-0-44-4-1">
		<path id="path10343" class="st5" d="M2091.5,267.1c-0.1,0-0.3,0-0.5,0s-0.4,0-0.5,0v-1.6c0.1,0,0.3,0,0.5,0s0.4,0,0.5,0
			c1.9,0,3.4-0.3,4.5-0.9c1.1-0.6,1.6-1.6,1.6-2.9c0-0.6-0.1-1.1-0.4-1.6c-0.2-0.4-0.6-0.8-1-1.1c-0.4-0.3-0.9-0.5-1.4-0.6
			c-0.5-0.1-1.1-0.2-1.7-0.2c-0.7,0-1.4,0.1-2.1,0.2c-0.7,0.1-1.5,0.4-2.3,0.8l-0.2-1.7c0.8-0.3,1.6-0.5,2.3-0.7
			c0.8-0.1,1.6-0.2,2.4-0.2c0.9,0,1.8,0.1,2.5,0.3c0.8,0.2,1.4,0.5,2,1c0.6,0.4,1,1,1.3,1.6c0.3,0.6,0.4,1.3,0.4,2.1
			c0,0.7-0.1,1.3-0.4,1.9c-0.2,0.5-0.6,1-1,1.4c-0.4,0.4-1,0.7-1.6,0.9s-1.3,0.4-2,0.4v0.1c0.7,0,1.4,0.2,2,0.4
			c0.6,0.2,1.2,0.5,1.7,0.9c0.5,0.4,0.8,0.9,1.1,1.5c0.3,0.6,0.4,1.3,0.4,2c0,0.9-0.2,1.7-0.5,2.4c-0.4,0.7-0.8,1.3-1.5,1.8
			c-0.6,0.5-1.4,0.9-2.3,1.1c-0.9,0.3-1.8,0.4-2.9,0.4c-0.8,0-1.5-0.1-2.4-0.2c-0.8-0.1-1.6-0.3-2.4-0.6l0.2-1.7
			c0.8,0.4,1.6,0.6,2.4,0.8c0.7,0.1,1.5,0.2,2.2,0.2c0.7,0,1.4-0.1,2-0.3c0.7-0.2,1.2-0.4,1.7-0.8c0.5-0.4,0.9-0.8,1.1-1.3
			c0.3-0.5,0.4-1.2,0.4-1.9c0-1.3-0.5-2.3-1.6-2.9C2095.1,267.4,2093.6,267.1,2091.5,267.1"/>
	</g>
	<g id="text7795-1-8-4-7-0-8-3-0-2">
		<path id="path10338" class="st4" d="M1986.9,141.2h2.8v17.9h-4l-5.4-10.2c-0.2-0.4-0.4-0.8-0.7-1.3c-0.2-0.4-0.4-0.9-0.6-1.3
			c-0.2-0.4-0.4-0.9-0.6-1.3c-0.2-0.4-0.3-0.7-0.4-1h-0.1c0,0.3,0,0.6,0.1,1.1c0,0.5,0,0.9,0,1.5c0,0.5,0,1,0,1.6c0,0.5,0,1,0,1.3
			v9.5h-2.9v-17.9h4.3l5.2,10.1c0.2,0.3,0.3,0.7,0.5,1.1c0.2,0.4,0.4,0.8,0.6,1.2c0.2,0.4,0.4,0.8,0.6,1.2c0.2,0.4,0.3,0.7,0.5,1
			h0.1c0-0.3,0-0.8-0.1-1.3c0-0.5,0-1.1-0.1-1.7c0-0.6,0-1.2-0.1-1.8c0-0.6,0-1.1,0-1.5V141.2"/>
		<path id="path10340" class="st4" d="M1992.5,156.4c0.3,0.1,0.6,0.2,0.8,0.2c0.3,0.1,0.6,0.1,0.9,0.1c0.9,0,1.6-0.2,1.9-0.7
			c0.4-0.5,0.6-1.3,0.6-2.5v-12.2h3.1v12.7c0,0.8-0.1,1.5-0.3,2.2c-0.2,0.7-0.5,1.2-0.9,1.7c-0.4,0.5-0.9,0.9-1.6,1.1
			c-0.6,0.3-1.4,0.4-2.3,0.4c-0.4,0-0.8,0-1.2-0.1c-0.4-0.1-0.8-0.1-1.1-0.2L1992.5,156.4"/>
	</g>
	<g id="text7795-1-8-4-7-0-8-3-0-27">
		<path id="path10328" class="st4" d="M1927.9-0.3h2.8v17.9h-4l-5.4-10.2c-0.2-0.4-0.4-0.8-0.7-1.3c-0.2-0.4-0.4-0.9-0.6-1.3
			c-0.2-0.4-0.4-0.9-0.6-1.3c-0.2-0.4-0.3-0.7-0.4-1h-0.1c0,0.3,0,0.6,0.1,1.1c0,0.5,0,0.9,0,1.5c0,0.5,0,1,0,1.6c0,0.5,0,1,0,1.3
			v9.5h-2.9V-0.3h4.3l5.2,10.1c0.2,0.3,0.3,0.7,0.5,1.1c0.2,0.4,0.4,0.8,0.6,1.2c0.2,0.4,0.4,0.8,0.6,1.2c0.2,0.4,0.3,0.7,0.5,1h0.1
			c0-0.3,0-0.8-0.1-1.3c0-0.5,0-1.1-0.1-1.7c0-0.6,0-1.2-0.1-1.8c0-0.6,0-1.1,0-1.5V-0.3"/>
		<path id="path10330" class="st4" d="M1936.9-0.3l2.2,3.6c0.2,0.3,0.4,0.6,0.6,1.1c0.3,0.4,0.5,0.8,0.7,1.3
			c0.2,0.4,0.5,0.8,0.7,1.2c0.2,0.4,0.4,0.7,0.5,0.9h0.1c0.1-0.2,0.3-0.5,0.5-0.9c0.2-0.4,0.5-0.8,0.7-1.2c0.3-0.4,0.5-0.8,0.7-1.3
			c0.2-0.4,0.4-0.8,0.6-1l2.2-3.6h3.5l-6.7,10.5v7.3h-3.1v-7.3l-6.8-10.6L1936.9-0.3"/>
	</g>
	<g id="text7795-1-8-4-7-0-8-3-5-4">
		<path id="path10318" class="st4" d="M2071.4-31.8c-0.6-0.3-1.2-0.5-1.8-0.6c-0.6-0.2-1.3-0.2-2-0.2c-0.9,0-1.8,0.2-2.6,0.5
			c-0.8,0.3-1.4,0.7-2,1.3c-0.6,0.6-1,1.2-1.3,2c-0.3,0.8-0.5,1.7-0.5,2.7c0,1,0.2,1.9,0.5,2.8c0.3,0.8,0.8,1.5,1.4,2.1
			c0.6,0.6,1.3,1,2,1.3c0.8,0.3,1.7,0.4,2.6,0.4c0.6,0,1.3,0,1.9-0.1c0.6-0.1,1.3-0.3,2-0.6l0.2,2.7c-0.5,0.2-1.2,0.4-1.9,0.5
			c-0.7,0.1-1.4,0.2-2.2,0.2c-1.4,0-2.7-0.2-3.9-0.6c-1.2-0.4-2.2-1-3-1.8c-0.9-0.8-1.5-1.7-2-2.9c-0.5-1.1-0.7-2.4-0.7-3.9
			c0-1.3,0.2-2.6,0.7-3.7c0.5-1.1,1.2-2.1,2-2.9c0.9-0.8,1.9-1.4,3-1.8c1.2-0.4,2.4-0.7,3.8-0.7c0.8,0,1.5,0.1,2.1,0.2
			c0.7,0.1,1.4,0.3,2,0.5L2071.4-31.8"/>
		<path id="path10320" class="st4" d="M2078.1-17.2v-15.3l-5.2,0.1v-2.7h13.5v2.7l-5.2-0.1v15.3H2078.1"/>
	</g>
	<g id="text7795-1-8-4-7-0-8-3-0-27-2">
		<path id="path10310" class="st4" d="M2149.4-48.6h4.8c1.1,0,2.1,0.1,2.9,0.2c0.9,0.2,1.6,0.4,2.3,0.8c0.6,0.4,1.1,0.8,1.4,1.4
			c0.3,0.6,0.5,1.3,0.5,2.3c0,1.2-0.4,2.2-1.1,2.8c-0.7,0.7-1.6,1.1-2.8,1.4v0.1c0.6,0.2,1.1,0.5,1.4,0.9c0.3,0.4,0.7,0.9,0.9,1.6
			l2.9,6.5h-3.4l-2.3-5.4c-0.2-0.5-0.4-0.8-0.6-1.1c-0.2-0.3-0.4-0.5-0.7-0.7c-0.3-0.2-0.6-0.3-1-0.4c-0.4-0.1-0.9-0.1-1.5-0.1h-0.9
			v7.7h-3.1L2149.4-48.6 M2152.5-40.9h1.2c1.5,0,2.6-0.2,3.4-0.6c0.8-0.4,1.2-1.1,1.2-2.1c0-0.5-0.1-1-0.3-1.3
			c-0.2-0.3-0.5-0.6-0.9-0.8c-0.4-0.2-0.8-0.3-1.4-0.4c-0.6-0.1-1.2-0.1-1.9-0.1h-1.2V-40.9"/>
		<path id="path10312" class="st4" d="M2168.4-30.7h-3.1v-17.9h3.1V-30.7"/>
	</g>
	<g id="text7795-1-8-4-7-0-8-3-59">
		<path id="path10302" class="st4" d="M2089.4-75.6c0.1,0.3,0.2,0.6,0.3,1c0.1,0.4,0.2,0.8,0.4,1.2c0.1,0.4,0.3,0.8,0.4,1.2
			c0.1,0.4,0.2,0.8,0.3,1.1h0.1c0.1-0.3,0.2-0.7,0.3-1.1c0.1-0.4,0.2-0.8,0.4-1.2c0.1-0.4,0.3-0.8,0.4-1.2c0.1-0.4,0.3-0.7,0.4-1
			l3.5-10h4.9v17.9h-3V-78c0-0.3,0-0.7,0-1.2c0-0.4,0-0.9,0-1.4c0-0.5,0-1,0-1.5c0-0.5,0-1,0.1-1.4h-0.1c-0.1,0.4-0.2,0.8-0.4,1.2
			c-0.1,0.4-0.3,0.8-0.4,1.3c-0.1,0.4-0.3,0.8-0.4,1.2c-0.1,0.4-0.2,0.7-0.3,0.9l-4.1,11.1h-2.8l-4-10.9c-0.1-0.2-0.2-0.5-0.3-0.9
			c-0.1-0.4-0.3-0.8-0.4-1.3c-0.2-0.5-0.3-0.9-0.4-1.4c-0.1-0.5-0.2-0.8-0.3-1.2h-0.1c0,0.4,0,0.9,0,1.4c0,0.5,0,1,0,1.5
			c0,0.5,0,0.9,0,1.4c0,0.4,0,0.8,0,1.2v10.3h-2.9v-17.9h5L2089.4-75.6"/>
		<path id="path10304" class="st4" d="M2121.3-67.7h-3.4l-1.7-4.3h-8l-1.7,4.3h-3.2l7.3-17.9h3.4L2121.3-67.7 M2113.4-79.4
			c-0.1-0.2-0.2-0.5-0.3-0.8c-0.1-0.3-0.2-0.7-0.3-1c-0.1-0.3-0.2-0.7-0.3-1c-0.1-0.3-0.2-0.6-0.2-0.8h-0.1
			c-0.1,0.2-0.2,0.5-0.3,0.8c-0.1,0.3-0.2,0.7-0.3,1c-0.1,0.3-0.2,0.7-0.3,1c-0.1,0.3-0.2,0.6-0.3,0.8l-1.9,5h6.3L2113.4-79.4"/>
	</g>
	<g id="text7795-1-8-4-7-0-8-3-0-5-9">
		<path id="path10292" class="st4" d="M2056-129c0.1,0.2,0.1,0.4,0.2,0.7c0.1,0.3,0.2,0.6,0.3,0.8c0.1,0.3,0.2,0.6,0.3,0.9
			c0.1,0.3,0.2,0.6,0.3,0.8h0.1c0.1-0.2,0.1-0.5,0.2-0.8c0.1-0.3,0.2-0.6,0.3-0.9c0.1-0.3,0.2-0.6,0.3-0.8c0.1-0.3,0.2-0.5,0.2-0.7
			l4.1-12.1h3.2l-6.6,17.9h-3.7l-6.6-17.9h3.4L2056-129"/>
		<path id="path10294" class="st4" d="M2071.2-123.2v-15.3l-5.2,0.1v-2.7h13.5v2.7l-5.2-0.1v15.3H2071.2"/>
	</g>
	<g id="text7795-1-8-4-7-0-8-3-0-5-9-4">
		<path id="path10284" class="st4" d="M2124.6-167.6h2.8v17.9h-4l-5.4-10.2c-0.2-0.4-0.4-0.8-0.7-1.3c-0.2-0.4-0.4-0.9-0.6-1.3
			c-0.2-0.4-0.4-0.9-0.6-1.3c-0.2-0.4-0.3-0.7-0.4-1h-0.1c0,0.3,0,0.6,0.1,1.1c0,0.5,0,0.9,0,1.5c0,0.5,0,1,0,1.6c0,0.5,0,1,0,1.3
			v9.5h-2.9v-17.9h4.3l5.2,10.1c0.2,0.3,0.3,0.7,0.5,1.1c0.2,0.4,0.4,0.8,0.6,1.2c0.2,0.4,0.4,0.8,0.6,1.2c0.2,0.4,0.3,0.7,0.5,1
			h0.1c0-0.3,0-0.8-0.1-1.3c0-0.5,0-1.1-0.1-1.7c0-0.6,0-1.2-0.1-1.8c0-0.6,0-1.1,0-1.5L2124.6-167.6"/>
		<path id="path10286" class="st4" d="M2146.1-149.7h-3.1v-7.9h-7.9v7.9h-3.1v-17.9h3.1v7.3h7.9v-7.3h3.1V-149.7"/>
	</g>
	<g id="text7795-1-8-4-7-0-8-3-0-5-9-4-4">
		<path id="path10276" class="st4" d="M2152.1-217.9c0.1,0.3,0.2,0.6,0.3,1c0.1,0.4,0.2,0.8,0.4,1.2c0.1,0.4,0.3,0.8,0.4,1.2
			c0.1,0.4,0.2,0.8,0.3,1.1h0.1c0.1-0.3,0.2-0.7,0.3-1.1c0.1-0.4,0.2-0.8,0.4-1.2c0.1-0.4,0.3-0.8,0.4-1.2c0.1-0.4,0.3-0.7,0.4-1
			l3.5-10h4.9v17.9h-3v-10.3c0-0.3,0-0.7,0-1.2c0-0.4,0-0.9,0-1.4c0-0.5,0-1,0-1.5c0-0.5,0-1,0.1-1.4h-0.1c-0.1,0.4-0.2,0.8-0.4,1.2
			c-0.1,0.4-0.3,0.8-0.4,1.3c-0.1,0.4-0.3,0.8-0.4,1.2c-0.1,0.4-0.2,0.7-0.3,0.9l-4.1,11.1h-2.8l-4-10.9c-0.1-0.2-0.2-0.5-0.3-0.9
			c-0.1-0.4-0.3-0.8-0.4-1.3c-0.2-0.5-0.3-0.9-0.4-1.4c-0.1-0.5-0.2-0.8-0.3-1.2h-0.1c0,0.4,0,0.9,0,1.4c0,0.5,0,1,0,1.5
			c0,0.5,0,0.9,0,1.4c0,0.4,0,0.8,0,1.2v10.3h-2.9V-228h5L2152.1-217.9"/>
		<path id="path10278" class="st4" d="M2178.3-210.1h-10.4V-228h10.2v2.6h-7.2v4.8h6.6v2.5h-6.6v5.4h7.3L2178.3-210.1"/>
	</g>
	<g id="text7795-1-8-4-7-0-8-3-4">
		<path id="path10268" class="st6" d="M1147.8-49h-4.3l-2.1-5.4h-10l-2.1,5.4h-4l9.1-22.3h4.2L1147.8-49 M1137.9-63.6
			c-0.1-0.3-0.2-0.6-0.4-1c-0.1-0.4-0.3-0.8-0.4-1.2c-0.1-0.4-0.3-0.8-0.4-1.2c-0.1-0.4-0.2-0.7-0.3-1h-0.1c-0.1,0.3-0.2,0.6-0.4,1
			c-0.1,0.4-0.3,0.8-0.4,1.2c-0.1,0.4-0.3,0.8-0.4,1.2c-0.1,0.4-0.3,0.7-0.4,1l-2.3,6.3h7.8L1137.9-63.6"/>
		<path id="path10270" class="st6" d="M1154.9-49h-3.8v-22.3h3.8v9.9h0.1c0.3-0.3,0.6-0.7,1-1.2c0.4-0.4,0.8-0.9,1.2-1.3
			c0.4-0.4,0.7-0.9,1.1-1.2c0.3-0.4,0.6-0.7,0.8-0.9l4.7-5.2h5l-10,10.5l10.9,11.9h-5.3l-5.8-6.6c-0.4-0.4-0.9-1.1-1.6-1.9
			c-0.6-0.8-1.3-1.6-1.9-2.5h-0.1L1154.9-49"/>
	</g>
	<g id="text7795-1-8-4-7-0-8-3-0-5-4-3">
		<path id="path10260" class="st5" d="M1141.1,683.8h-3.9v-9.9h-9.8v9.9h-3.9v-22.3h3.9v9.2h9.8v-9.2h3.9V683.8"/>
		<path id="path10262" class="st5" d="M1150.8,683.8h-3.9v-22.3h3.9V683.8"/>
	</g>
</g>
<rect x="1073.1" y="910" class="st0" width="30" height="30"/>
<rect x="1156.3" y="910" class="st3" width="30" height="30"/>
<g>
	<text transform="matrix(1 0 0 1 1068.1118 834.0464)" class="st7 st8 st9">LEGEND</text>
</g>
<g>
	<text transform="matrix(1 0 0 1 1001.05 684.8256)" class="st7 st8 st9">LABEL</text>
</g>
<g>
	<text transform="matrix(1 0 0 1 1148.0242 362.1439)"><tspan x="0" y="0" class="st7 st8 st9">DATA</tspan><tspan x="0" y="38.4" class="st7 st8 st9">LABEL</tspan></text>
</g>
<path class="st10" d="M1057.1,657.9V539.5"/>
<path class="st10" d="M1100.5,520.3l90.5-103.1"/>
<path class="st11" d="M1180,867l0.5-10.5h-108.4l0,10.5"/>
<text transform="matrix(1 0 0 1 1000.7156 713.1033)" class="st12"><tspan x="0" y="0" class="st7 st13 st14">usually necesary to help</tspan><tspan x="0" y="27.6" class="st7 st13 st14">readers recognize areas</tspan></text>
<text transform="matrix(1 0 0 1 1073.9937 965.9936)" class="st5 st13 st15">Dem</text>
<text transform="matrix(1 0 0 1 1062.7356 897.9936)" class="st5 st13 st15">Electoral Votes</text>
<text transform="matrix(1 0 0 1 1156.266 965.9936)" class="st5 st13 st15">Rep</text>
</svg>
