<?xml version="1.0" encoding="utf-8"?>
<!-- Generator: Adobe Illustrator 22.1.0, SVG Export Plug-In . SVG Version: 6.00 Build 0)  -->
<svg version="1.1" xmlns="http://www.w3.org/2000/svg" xmlns:xlink="http://www.w3.org/1999/xlink" x="0px" y="0px"
	 viewBox="0 0 1268 418" enable-background="new 0 0 1268 418" xml:space="preserve">
<g id="Layer_1">
	<polygon fill="#C6BFCF" points="753.3,326.4 753.3,226.2 648.4,226.2 646.9,226.2 611.1,226.2 611.1,212 579.7,212 579.7,274.8 
		614,274.8 614,292 631.2,292 631.2,345.1 681.3,345.1 681.3,328 681.3,328 681.3,326.4 	"/>
	<polygon fill="#AEA5BF" points="648.4,223.2 765.8,223.2 765.8,188.8 803.1,188.8 803.1,206 834.5,206 834.5,175.4 834.5,173.9 
		834.5,141 730.6,141 730.6,123.8 679.1,123.8 679.1,101.4 648.4,101.4 648.4,122.3 	"/>
	<polygon fill="#C6BFCF" points="467.6,260.6 467.6,209 450.4,209 450.4,192.6 433.2,192.6 433.2,138.8 410.8,138.8 410.8,158.2 
		359.9,158.2 359.9,224.7 359.9,227 359.9,257.6 377.1,257.6 377.1,310.8 392.4,310.8 392.4,328 409.5,328 409.5,345.1 490.7,345.1 
		490.7,260.6 	"/>
	<polygon fill="#EFE0D5" points="288.2,209.8 253.8,209.8 253.8,158.2 149.2,158.2 149.2,207.9 169.4,207.9 169.4,225 186.5,225 
		186.5,276.5 255.1,276.5 255.1,292 288.2,292 	"/>
	<polygon fill="#C6BFCF" points="628.2,295 611.1,295 611.1,277.8 579.7,277.8 578.2,277.8 542.3,277.8 542.3,260.6 493.7,260.6 
		493.7,345.1 526.9,345.1 526.9,379.4 544,379.4 544,362.3 561.2,362.3 561.2,396.6 578.4,396.6 578.4,379.4 595.5,379.4 
		595.5,362.3 629.8,362.3 629.8,362.2 628.2,362.2 	"/>
	<polygon fill="#EFE0D5" points="357,260.6 357,227 322.6,227 322.6,209.8 291.2,209.8 291.2,295 255.1,295 255.1,333.1 
		303.1,333.1 303.1,351.6 320.3,351.6 320.3,345.4 342.8,345.4 342.8,357.9 374.1,357.9 374.1,260.6 	"/>
	<polygon fill="#C6BFCF" points="407.8,155.2 407.8,135.8 433.2,135.8 460.8,135.8 529.6,135.8 529.6,40.7 478.8,40.7 478.8,26.6 
		426.8,26.6 426.8,53.5 392.5,53.5 392.5,70.6 377.1,70.6 377.1,155.2 	"/>
	<polygon fill="#AEA5BF" points="545.3,135.8 545.3,209 578.2,209 579.7,209 614,209 614,223.2 645.4,223.2 645.4,122.3 
		645.4,101.4 611.2,101.4 611.2,80.3 532.6,80.3 532.6,135.8 	"/>
	<polygon fill="#DDD9E0" points="256.8,206.8 325.6,206.8 325.6,224 357,224 357,155.2 374.1,155.2 374.1,104.9 324.8,104.9 
		324.8,87.8 220.8,87.8 220.8,139.2 238,139.2 238,155.2 256.8,155.2 	"/>
	<polygon fill="#DDD9E0" points="645.4,98.4 648.4,98.4 682.1,98.4 682.1,120.8 733.6,120.8 733.6,138 767.3,138 767.3,49.7 
		732.8,49.7 732.8,2 666.4,2 666.4,13.1 632,13.1 632,24.4 614.2,24.4 614.2,98.4 	"/>
	<polygon fill="#AEA5BF" points="436.2,189.6 453.4,189.6 453.4,206 470.6,206 470.6,257.6 545.3,257.6 545.3,274.8 576.7,274.8 
		576.7,212 542.3,212 542.3,138.8 460.8,138.8 436.2,138.8 	"/>
	<polygon fill="#DDD9E0" points="868.9,260.6 836,260.6 836,259.3 834.5,259.3 834.5,209 800.1,209 800.1,191.8 768.8,191.8 
		768.8,226.2 756.3,226.2 756.3,329.3 715.6,329.3 715.6,362.3 732.8,362.3 732.8,379.4 749.9,379.4 749.9,416 852.9,416 
		852.9,345.1 870,345.1 870,328 887.2,328 887.2,277.8 868.9,277.8 	"/>
	<polygon fill="#DDD9E0" points="936.9,72.2 936.9,36.3 887.2,36.3 887.2,49.7 770.2,49.7 770.2,138 837.5,138 837.5,172.4 
		868.2,172.4 868.2,153.6 938.6,153.6 938.6,122.2 971.3,122.1 971.3,72.2 	"/>
	<polygon fill="#C6BFCF" points="871.1,175.4 837.5,175.4 837.5,207.9 837.5,209 837.5,257.6 871.9,257.6 871.9,274.8 904,274.8 
		904,276.5 904.3,276.5 904.3,240 955.8,240 955.8,156.6 871.1,156.6 	"/>
	<polygon fill="#EFE0D5" points="1093.9,36.3 1093.9,2 990.1,2 990.1,19.2 939.9,19.2 939.9,69.3 974.3,69.3 974.3,104.9 
		1076.7,104.9 1076.7,53.5 1059.6,53.5 1059.6,36.3 	"/>
</g>
<g id="Layer_2">
</g>
<g id="Layer_3">
</g>
</svg>
