<svg height="256" viewBox="0 0 256 256" width="256" xmlns="http://www.w3.org/2000/svg"><path d="m89.1 151.9c0 4.6-1.9 8.3-4.1 8.3s-3.9-3.3-4.2-7.5l-28.5-20.7 1.2-6.6 28.5 20.8a3.8 3.8 0 0 1 .9-1.5l-4.8-51.5 3.4-1.2 4.8 52c1.6 1.1 2.8 4.2 2.8 7.9zm148.9 0a102.8 102.8 0 0 1 -139.8 95.8v-.9a39.2 39.2 0 0 0 6-4.3l1.8-1.7c15.8-15.2 26.9-46.9 27.8-84.1h.1v-9.7h-.1c-.9-37.1-12-68.9-27.8-84.1l-1.8-1.6a39.2 39.2 0 0 0 -6-4.3v-.9a102.8 102.8 0 0 1 26.1-6.4v-2.1a22.2 22.2 0 1 1 25 0v2.5a103 103 0 0 1 88.7 101.8zm-46.6 40 .5-.4 11.5 9.5 5.5-5.8-10-11 .3-.6 14.6 3 2.2-7.7-14.1-5c0-.2.1-.5.1-.7l14.3-4.2-1.7-7.8-14.8 2.1-.3-.6 10.7-10.4-5.2-6.1-12 8.8-.6-.4 4.6-14.2-7.4-2.9-6.5 13.4h-.7l-2.7-14.7-7.9.9.6 14.9-.7.2-9.2-11.7-6.6 4.5 7.5 12.9-.5.5-13.6-6-3.8 7 12.7 7.9a6.4 6.4 0 0 0 -.2.7l-14.9 1v8l13.8 1-12.1 6.6 3.3 7.3 14-5.3.4.6-8.2 12.4 6.4 4.9 9.8-11.2.7.3-1.4 14.8 7.8 1.3 3.5-14.5h.7l5.7 13.7 7.6-2.5zm10.7-87.1 3.4-5.9-3.4-2.4-4.4 5.2 1.1-6.7-4.1-1.1-2.2 6.5-1.4-6.7-4.2.5.2 6.8-3.7-5.7-3.7 1.9 2.6 6.3-5.5-4.1-2.8 3.2 4.7 4.9-6.6-1.8-1.5 3.9 6.2 3-6.8.6v4.2l9.2.8-7.9 4.9 1.9 3.7 6.4-2.5-4.2 5.5 3.1 2.8 5.1-4.6-2 6.5 3.9 1.6 3.1-6.1.5 6.8h4.2l.7-6.8 2.9 6.2 3.9-1.4-1.7-6.6 4.9 4.7 3.1-2.7-4-5.5 6.3 2.7 2-3.7-5.7-3.8 6.9.3.5-4.1-6.7-1.6 6.5-2.1-.9-4.1-6.8 1 5.3-4.4-2.4-3.4zm-77.8-65.3v-3.7a6.4 6.4 0 0 1 6.4-6.4h12.2a6.4 6.4 0 0 1 6.4 6.4v3.7a16.2 16.2 0 1 0 -25 0zm-3 117.2c-.9 37.2-12 68.9-27.8 84.1l-1.8 1.7a39.2 39.2 0 0 1 -6 4.3 27.6 27.6 0 0 1 -13.2 3.6c-27 0-49-44.2-49-98.5s22-98.6 49-98.6a26.6 26.6 0 0 1 13.2 3.7 39.2 39.2 0 0 1 6 4.3l1.8 1.6c15.8 15.2 26.9 47 27.8 84.1h.1v9.7zm-10.2-1.4v-6.9l5.4-.7c-.7-29.7-8.6-55.6-20.3-70.7-1.5-1.8-3-3.5-4.5-5a39 39 0 0 0 -6-4.9 25.7 25.7 0 0 0 -11.1-4l-.4 13.6h-3.5l-.4-13.6c-22.5 2.3-40.7 38.7-41.9 84.1l9.3 1.2v6.9l-9.3 1.3c1.2 45.3 19.3 81.7 41.8 84l.5-16.1h3.5l.5 16.1a25.8 25.8 0 0 0 11-4 33.3 33.3 0 0 0 6-4.8 58.3 58.3 0 0 0 4.5-5.1c11.7-15.1 19.6-40.9 20.3-70.6zm80.4-44.2a4.2 4.2 0 1 0 4.2 4.2 4.2 4.2 0 0 0 -4.2-4.2zm-11.8 50.6a11.2 11.2 0 1 0 11.2 11.2 11.2 11.2 0 0 0 -11.2-11.2z"/></svg>