<svg enable-background="new 0 0 1268 418" viewBox="0 0 1268 418" xmlns="http://www.w3.org/2000/svg"><g fill="none" stroke="#888"><path d="m257.9 5.3v375.1l793.1-.7" stroke-width="1.5991"/><path d="m266.6 381.1v8.5" stroke-width="1.7171"/><path d="m352.6 381.1v8.5" stroke-width="1.7171"/><path d="m438.5 381.1v8.5" stroke-width="1.7171"/><path d="m524.5 381.1v8.5" stroke-width="1.7171"/><path d="m610.6 381.1v8.5" stroke-width="1.7171"/><path d="m696.3 381.1v8.5" stroke-width="1.7171"/><path d="m782.3 381.1v8.5" stroke-width="1.7171"/><path d="m868.1 381.1v8.5" stroke-width="1.7171"/><path d="m954.1 381.1v8.5" stroke-width="1.7171"/><path d="m1040.1 381.1v8.5" stroke-width="1.7171"/></g><path d="m271.7 407c0 .8-.1 1.5-.3 2.2-.1.6-.4 1.2-.8 1.7-.3.4-.8.8-1.3 1l-1.8.4-1.8-.4c-.5-.2-1-.6-1.3-1-.4-.5-.7-1.1-.9-1.7-.2-.7-.3-1.5-.3-2.2v-3.1c0-.8.1-1.5.3-2.2.1-.6.4-1.2.8-1.7.3-.4.8-.8 1.3-1 1.2-.5 2.5-.5 3.7 0 .5.2 1 .6 1.3 1 .4.5.6 1.1.8 1.7.2.7.3 1.5.3 2.2zm-6.9-.4 5.2-3.9c-.1-.7-.3-1.4-.8-2-.5-.5-1.2-.7-1.8-.7-.8-.1-1.5.3-2 .9-.5.8-.7 1.7-.7 2.6zm5.2-2.4-5.1 3.9c0 .7.3 1.4.8 2 .5.5 1.2.7 1.8.7.8.1 1.5-.3 2-.9.5-.8.7-1.7.7-2.6v-2.9z" fill="#b4b4b5"/><path d="m354.9 412.1h-1.7v-11.1l-3.5 1.3v-1.6l5-2h.1v13.2z" fill="#b4b4b5"/><path d="m443.5 412.1h-8.7v-1.2l4.3-4.8.9-1.2.7-.9.4-.8c.1-.3.1-.5.1-.8s0-.6-.1-.9l-.5-.8-.8-.5h-2.1l-.8.5c-.2.3-.4.6-.5.9-.1.4-.2.8-.1 1.2h-1.7c0-.5.1-1.1.3-1.6s.4-.9.8-1.3l1.3-.9 1.8-.4 1.7.3 1.3.8c.3.3.6.7.8 1.2s.3.9.3 1.4c0 .4-.1.8-.3 1.2l-.5 1.2-.8 1.2-.9 1-3.5 3.9h6.7v1.4z" fill="#b4b4b5"/><path d="m523.2 404.6h2.4l.8-.5.5-.7c.1-.3.1-.6.1-.9.2-1.1-.6-2.2-1.8-2.4-.2 0-.4 0-.6 0h-.9l-.8.5-.5.7c-.1.3-.1.6-.1.9h-1.7c0-1 .4-2 1.2-2.6l1.3-.8 1.7-.3 1.6.3 1.3.7c.3.3.6.7.8 1.2s.3 1 .3 1.6c0 .3-.1.5-.1.8l-.4.8-.7.8-.9.5 1 .5.7.8c.2.3.3.6.4.9s.1.6.1.9c0 .6-.1 1.2-.3 1.7s-.5.9-.9 1.2l-1.3.8-1.7.3-1.7-.3-1.3-.8c-.4-.3-.7-.7-.9-1.2-.3-.5-.4-1-.4-1.6h1.7c0 .3 0 .6.1.9l.5.8.8.5h2.1l.8-.5.5-.8c.1-.3.1-.7.1-1 0-.4-.1-.7-.3-1l-.5-.8-.9-.4h-2.4v-1.3z" fill="#b4b4b5"/><path d="m614 407.6h1.8v1.4h-1.8v3.1h-1.7v-3.1h-6v-1l5.9-9.2h1.8zm-5.9 0h4.2v-6.6l-.3.5z" fill="#b4b4b5"/><path d="m693.8 405.4.7-6.7h6.8v1.7h-5.4l-.4 3.5.9-.4h1.3l1.7.3c.5.2.9.5 1.2.9.4.4.6.9.8 1.4.2.6.3 1.2.3 1.8s-.1 1.2-.3 1.7-.4 1-.8 1.4-.8.7-1.3.9l-1.8.4-1.6-.3-1.3-.7c-.4-.3-.7-.7-.9-1.2s-.4-1-.4-1.6h1.6c0 .6.3 1.3.8 1.7s1.1.6 1.7.5l1-.3.8-.7c.2-.3.4-.6.5-.9.1-.4.1-.8.1-1.2s0-.8-.1-1.2c-.1-.3-.3-.6-.5-.9l-.8-.7-1.2-.3h-1.3l-.5.3-.4.4z" fill="#b4b4b5"/><path d="m785.3 398.8v1.6h-1.7l-1.2.5-.9.7-.7.9-.4 1c-.1.3-.1.7-.1 1l.5-.5.7-.4.8-.3h.9c.6 0 1.2.1 1.7.4s.9.6 1.2 1 .5.9.7 1.4.2 1 .3 1.6c0 .6-.1 1.2-.3 1.7s-.4 1-.8 1.4-.8.7-1.3.9c-.6.3-1.2.4-1.8.4l-1.3-.3-1-.5-.8-.9-.4-1c-.2-.4-.3-.8-.4-1.2s-.1-.8-.1-1.2v-.8c0-.6 0-1.2.1-1.8s.2-1.1.4-1.7.5-1.1.8-1.6.7-.9 1.2-1.3l1.7-.8 2.2-.2.1-.1v.1zm-2.2 6.1h-.8l-.8.4-.7.7-.4.8v.5c0 .5.1 1.1.3 1.6.1.4.3.8.5 1.2l.8.7.9.3 1-.3.8-.7c.2-.3.4-.6.5-.9.2-.8.2-1.6 0-2.4-.1-.3-.2-.6-.4-.9l-.8-.7z" fill="#b4b4b5"/><path d="m873.5 399.7-5.5 12.3h-1.8l5.5-11.8h-7.2v-1.4h9z" fill="#b4b4b5"/><path d="m959.2 402.2c0 .7-.2 1.3-.5 1.8-.4.5-.9.9-1.4 1.2l.9.5.7.8.4.9c.1.3.1.7.1 1 0 .5-.1 1.1-.4 1.6-.2.5-.5.9-.9 1.2l-1.3.8-1.7.3-1.7-.3-1.3-.8c-.4-.3-.7-.7-.9-1.2s-.4-1-.4-1.6c0-.4 0-.7.1-1l.4-.9.7-.8.9-.5-.8-.5-.7-.7-.4-.8c-.1-.3-.1-.6-.1-.9 0-.5.1-1.1.3-1.6.2-.4.4-.8.8-1.2l1.2-.7 1.6-.3 1.6.3 1.3.7c.3.3.6.7.8 1.2s.6 1 .7 1.5zm-1.4 6.2c0-.4 0-.7-.1-1l-.5-.8-.8-.5h-2.1l-.8.5-.5.8c-.1.3-.2.7-.1 1 0 .4 0 .7.1 1l.5.8.8.5h2.1l.8-.5.5-.8c.1-.3.1-.6.1-.9zm-.3-6.2c0-.3 0-.6-.1-.9l-.5-.8-.7-.5h-1.8l-.7.5-.4.8c-.1.3-.1.6-.1.9s0 .6.1.9l.4.7.7.4h1.8l.7-.4.5-.7c.1-.3.1-.5.1-.8z" fill="#b4b4b5"/><path d="m1038.8 410.6h1.6l1.2-.4.8-.7.5-.9c.1-.3.2-.7.3-1s.1-.7.1-1l-.5.5-.7.4-.8.3h-.9c-1.1 0-2.2-.5-2.9-1.4-.3-.4-.5-.9-.7-1.4-.3-1.1-.3-2.3 0-3.4.2-.5.4-1 .8-1.4s.8-.8 1.3-1c.6-.3 1.2-.4 1.8-.4l1.4.3 1 .7.8.9.5 1c.1.4.2.9.3 1.3s.1.9.1 1.3v.7c0 .5 0 1.1-.1 1.7 0 .6-.1 1.1-.3 1.7s-.4 1.1-.7 1.6-.7 1-1.2 1.3l-1.7.9-2.4.3h-.1v-1.4h.3v-.5zm2-4.3h.8l.8-.4.7-.7.4-.8v-.5c0-.5-.1-1.1-.3-1.6-.1-.4-.3-.8-.5-1.2l-.8-.8-.9-.3-1 .3-.8.7c-.2.3-.4.7-.5 1-.1.4-.1.8-.1 1.2s0 .8.1 1.2.2.7.4 1l.8.7z" fill="#b4b4b5"/><path d="m256 47.5h-8.5" fill="none" stroke="#888" stroke-width="1.7171"/><path d="m256 133.5h-8.5" fill="none" stroke="#888" stroke-width="1.7171"/><path d="m256 219.3h-8.5" fill="none" stroke="#888" stroke-width="1.7171"/><path d="m256 305.4h-8.5" fill="none" stroke="#888" stroke-width="1.7171"/><path d="m224.7 312.6h-1.7v-11.1l-3.5 1.3v-1.6l5-2h.1z" fill="#b4b4b5"/><path d="m238.8 307.5c0 .8-.1 1.5-.3 2.2-.1.6-.4 1.2-.8 1.7-.3.4-.8.8-1.3 1l-1.8.4-1.8-.4c-.5-.2-1-.6-1.3-1-.4-.5-.7-1.1-.9-1.7-.2-.7-.3-1.5-.3-2.2v-3.1c0-.8.1-1.5.3-2.2.1-.6.4-1.2.8-1.7.3-.4.8-.8 1.3-1 1.2-.5 2.5-.5 3.7 0 .5.2 1 .6 1.3 1 .4.5.6 1.1.8 1.7.2.7.3 1.5.3 2.2zm-6.9-.4 5.2-3.9c-.1-.7-.3-1.4-.8-2-.5-.5-1.2-.7-1.8-.7-.8-.1-1.5.3-2 .9-.5.8-.7 1.7-.7 2.6v3.1zm5.2-2.4-5.1 3.9c0 .7.3 1.4.8 2 .5.5 1.2.7 1.8.7.8.1 1.5-.3 2-.9.5-.8.7-1.7.7-2.6v-3h-.2z" fill="#b4b4b5"/><path d="m227.4 225.2h-8.8v-1.2l4.3-4.8.9-1.2.7-.9.4-.8c.1-.3.1-.5.1-.8s0-.6-.1-.9l-.5-.8-.8-.5h-2.1l-.8.5c-.2.3-.4.6-.5.9-.1.4-.2.8-.1 1.2h-1.7c0-.5.1-1.1.3-1.6s.4-.9.8-1.3l1.3-.9 1.8-.4 1.7.3 1.3.8c.3.3.6.7.8 1.2s.3.9.3 1.4c0 .4-.1.8-.3 1.2l-.5 1.2-.8 1.2-.9 1-3.5 3.9h6.8z" fill="#b4b4b5"/><path d="m238.8 220c0 .8-.1 1.5-.3 2.2-.1.6-.4 1.2-.8 1.7-.3.4-.8.8-1.3 1l-1.8.4-1.8-.4c-.5-.2-1-.6-1.3-1-.4-.5-.7-1.1-.9-1.7-.2-.7-.3-1.5-.3-2.2v-3.1c0-.8.1-1.5.3-2.2.1-.6.4-1.2.8-1.7.3-.4.8-.8 1.3-1l1.8-.4c.6 0 1.3.1 1.8.4.5.2 1 .6 1.3 1 .4.5.6 1.1.8 1.7.2.7.3 1.5.3 2.2zm-6.9-.4 5.2-3.9c-.1-.7-.3-1.4-.8-2-.5-.5-1.2-.7-1.8-.7-.8-.1-1.5.3-2 .9-.5.8-.7 1.7-.7 2.6v3.1zm5.2-2.3-5.1 3.9c0 .7.3 1.4.8 2 .5.5 1.2.7 1.8.7.8.1 1.5-.3 2-.9.5-.8.7-1.7.7-2.6v-3z" fill="#b4b4b5"/><path d="m221.3 131.4h2.2l.8-.5.5-.8c.1-.3.1-.6.1-.9 0-.6-.2-1.2-.7-1.7-.5-.4-1.1-.6-1.7-.5h-.8l-.8.5-.5.7c-.1.3-.1.6-.1.9h-1.7c0-1 .4-2 1.2-2.6l1.3-.8 1.7-.3 1.6.3 1.3.7c.3.3.6.7.8 1.2s.3 1 .3 1.6c0 .3-.1.5-.1.8l-.4.8-.7.8-.9.5 1 .5.7.8c.2.3.3.6.4.9s.1.6.1.9c0 .6-.1 1.2-.3 1.7s-.5.9-.9 1.2l-1.3.8-1.7.3-1.7-.3-1.3-.7c-.4-.3-.7-.7-.9-1.2-.3-.5-.4-1-.4-1.6h1.8c0 .3 0 .6.1.9l.5.8.8.5h2.1l.8-.5.5-.8c.1-.3.1-.7.1-1 0-.4-.1-.7-.3-1l-.5-.8-.9-.4h-2.2v-1.3z" fill="#b4b4b5"/><path d="m238.8 133.8c0 .8-.1 1.5-.3 2.2-.1.6-.4 1.2-.8 1.7-.3.4-.8.8-1.3 1l-1.8.4-1.8-.4c-.5-.2-1-.6-1.3-1-.4-.5-.7-1.1-.9-1.7-.2-.7-.3-1.5-.3-2.2v-3.1c0-.8.1-1.5.3-2.2.1-.6.4-1.2.8-1.7.3-.4.8-.8 1.3-1 1.2-.5 2.5-.5 3.7 0 .5.2 1 .6 1.3 1 .4.5.6 1.1.8 1.7.2.7.3 1.5.3 2.2zm-6.9-.4 5.2-3.9c-.1-.7-.3-1.4-.8-2-.5-.5-1.2-.7-1.8-.7-.8-.1-1.5.3-2 .9-.5.8-.7 1.7-.7 2.6v3.1zm5.2-2.4-5.1 4c0 .7.3 1.4.8 2 .5.5 1.2.7 1.8.7.8.1 1.5-.3 2-.9.5-.8.7-1.7.7-2.6v-3h-.2z" fill="#b4b4b5"/><path d="m226.1 48.3h1.8v1.4h-1.8v3.1h-1.7v-3.3h-6v-.9l5.9-9.2h1.8zm-5.9 0h4.2v-6.6l-.3.5z" fill="#b4b4b5"/><path d="m238.8 47.7c0 .8-.1 1.5-.3 2.2-.1.6-.4 1.2-.8 1.7-.3.4-.8.8-1.3 1-.6.3-1.2.4-1.8.4l-2-.5c-.5-.2-1-.6-1.3-1-.4-.5-.7-1.1-.9-1.7-.2-.7-.3-1.5-.3-2.2v-3c0-.8.1-1.5.3-2.2.1-.6.4-1.2.8-1.7.3-.4.8-.8 1.3-1 1.2-.5 2.5-.5 3.7 0 .5.2 1 .6 1.3 1 .4.5.6 1.1.8 1.7.2.7.3 1.5.3 2.2v3.1zm-6.9-.4 5.2-3.9c-.1-.7-.3-1.4-.8-2-.5-.5-1.2-.7-1.8-.7-.8-.1-1.5.3-2 .9-.5.8-.7 1.7-.7 2.6v3.1zm5.2-2.4-5.1 3.9c0 .7.3 1.4.8 2 .5.5 1.2.7 1.8.7.8.1 1.5-.3 2-.9.5-.8.7-1.7.7-2.6v-3z" fill="#b4b4b5"/><path d="m266.6 368.6h773.5v-211.3c-43.3 0-56-49.5-90.7-49.5s-48.5 74.6-81.3 93.1c-29.4 16.6-49.9 18-85.6-.8-46.7-24.5-48.6-159.1-85.9-159.1-37.2 0-51.6 135-86.2 127.5-38.4-8.3-37.1-62.5-85.7-62.5s-52.1 131-86.2 131-40.6-99.6-85.9-98c-29.1.9-86 76-86 76z" fill="#b5aec7"/><path d="m270.3 214.9s53.2-75 82.3-76c45.2-1.6 51.8 98 85.9 98s37.5-131.1 86.2-131.1 47.3 54.3 85.7 62.5c34.6 7.5 49-127.5 86.2-127.5s39.2 134.7 85.9 159.1c35.7 18.7 56.1 17.4 85.6.8 32.9-18.5 46.5-93.1 81.3-93.1s47.4 49.5 90.7 49.5" fill="none" stroke="#868687" stroke-miterlimit="10" stroke-width="5.2431"/><path d="m352.6 133.3c2.9 0 5.2 2.3 5.2 5.2s-2.3 5.2-5.2 5.2-5.2-2.3-5.2-5.2 2.3-5.2 5.2-5.2z" fill="#5d5d5e" stroke="#fff" stroke-miterlimit="10" stroke-width="2.4642"/><path d="m438.5 232c2.9 0 5.2 2.3 5.2 5.2s-2.3 5.2-5.2 5.2-5.2-2.3-5.2-5.2c-.1-2.9 2.3-5.2 5.2-5.2z" fill="#5d5d5e" stroke="#fff" stroke-miterlimit="10" stroke-width="2.4642"/><path d="m270.3 209c2.9 0 5.2 2.3 5.2 5.2s-2.3 5.2-5.2 5.2-5.2-2.3-5.2-5.2c0-2.8 2.3-5.2 5.2-5.2z" fill="#5d5d5e" stroke="#fff" stroke-miterlimit="10" stroke-width="2.4642"/><path d="m524.5 100.9c2.9 0 5.2 2.3 5.2 5.2s-2.3 5.2-5.2 5.2-5.2-2.3-5.2-5.2c-.1-2.9 2.3-5.2 5.2-5.2z" fill="#5d5d5e" stroke="#fff" stroke-miterlimit="10" stroke-width="2.4642"/><path d="m610.6 162.5c2.9 0 5.2 2.3 5.2 5.2s-2.3 5.2-5.2 5.2-5.2-2.3-5.2-5.2c-.1-2.9 2.3-5.2 5.2-5.2z" fill="#5d5d5e" stroke="#fff" stroke-miterlimit="10" stroke-width="2.4642"/><path d="m696.3 35.6c2.9 0 5.2 2.3 5.2 5.2s-2.3 5.2-5.2 5.2-5.2-2.3-5.2-5.2c0-2.8 2.3-5.2 5.2-5.2z" fill="#5d5d5e" stroke="#fff" stroke-miterlimit="10" stroke-width="2.4642"/><path d="m782.3 194.5c2.9 0 5.2 2.3 5.2 5.2s-2.3 5.2-5.2 5.2-5.2-2.3-5.2-5.2c-.1-2.9 2.3-5.2 5.2-5.2z" fill="#5d5d5e" stroke="#fff" stroke-miterlimit="10" stroke-width="2.4642"/><path d="m868.1 195.5c2.9 0 5.2 2.3 5.2 5.2s-2.3 5.2-5.2 5.2-5.2-2.3-5.2-5.2c0-2.8 2.4-5.2 5.2-5.2z" fill="#5d5d5e" stroke="#fff" stroke-miterlimit="10" stroke-width="2.4642"/><path d="m954.1 102.2c2.9 0 5.2 2.3 5.2 5.2s-2.3 5.2-5.2 5.2-5.2-2.3-5.2-5.2 2.3-5.2 5.2-5.2z" fill="#5d5d5e" stroke="#fff" stroke-miterlimit="10" stroke-width="2.4642"/><path d="m1040.1 152c2.9 0 5.2 2.3 5.2 5.2s-2.3 5.2-5.2 5.2-5.2-2.3-5.2-5.2c0-2.8 2.3-5.2 5.2-5.2z" fill="#5d5d5e" stroke="#fff" stroke-miterlimit="10" stroke-width="2.4642"/></svg>