<svg enable-background="new 0 0 650 297.7" height="297.7" viewBox="0 0 650 297.7" width="650" xmlns="http://www.w3.org/2000/svg"><path d="m640.3 149.3c0-79.2-64-143.3-143.2-143.3s-143.3 64.1-143.3 143.3 64.1 143.3 143.3 143.3 143.2-64.2 143.2-143.3z" fill="none" stroke="#d1d1d1" stroke-miterlimit="10"/><path d="m497.1 149.3v143.2" fill="none" stroke="#d1d1d1" stroke-miterlimit="10"/><path d="m497.1 149.3 71.6 124" fill="none" stroke="#d1d1d1" stroke-miterlimit="10"/><path d="m497.1 149.3 124 71.6" fill="none" stroke="#d1d1d1" stroke-miterlimit="10"/><path d="m497.1 149.3h143.2" fill="none" stroke="#d1d1d1" stroke-miterlimit="10"/><path d="m497.1 149.3 124-71.7" fill="none" stroke="#d1d1d1" stroke-miterlimit="10"/><path d="m497.1 149.3 71.6-124.1" fill="none" stroke="#d1d1d1" stroke-miterlimit="10"/><path d="m497.1 149.3v-143.3" fill="none" stroke="#d1d1d1" stroke-miterlimit="10"/><path d="m497.1 149.3-71.7-124.1" fill="none" stroke="#d1d1d1" stroke-miterlimit="10"/><path d="m497.1 149.3-124.1-71.7" fill="none" stroke="#d1d1d1" stroke-miterlimit="10"/><path d="m497.1 149.3h-143.3" fill="none" stroke="#d1d1d1" stroke-miterlimit="10"/><path d="m497.1 149.3-124.1 71.6" fill="none" stroke="#d1d1d1" stroke-miterlimit="10"/><path d="m497.1 149.3-71.7 124" fill="none" stroke="#d1d1d1" stroke-miterlimit="10"/><path d="m389.8 87.1 54.8-29 52.6-33 67.7 6.8 36.2 57.3-3.6 60 7.1 62-45.4 45.4-62.1.6-50.2-21-61.7-22.4 19.5-64.6z" fill="#999" opacity=".55"/><path d="m457.3 80.4 39.8-40.3 62 1.7 29.9 54.4-13.9 54.2-1 43.3-21.5 51.7-55.5-24.5h-42.1l-47.1-20.2 15.6-51.4-11.5-49.2z" fill="#ededed" opacity=".8"/><path d="m298.2 149.3c0-79.2-64.1-143.3-143.2-143.3s-143.3 64.1-143.3 143.3 64.1 143.2 143.3 143.2 143.2-64.1 143.2-143.2z" fill="none" stroke="#d1d1d1" stroke-miterlimit="10"/><path d="m155 149.3v143.2" fill="none" stroke="#d1d1d1" stroke-miterlimit="10"/><path d="m155 149.3 71.6 124" fill="none" stroke="#d1d1d1" stroke-miterlimit="10"/><path d="m155 149.3 124 71.6" fill="none" stroke="#d1d1d1" stroke-miterlimit="10"/><path d="m155 149.3h143.2" fill="none" stroke="#d1d1d1" stroke-miterlimit="10"/><path d="m155 149.3 124-71.7" fill="none" stroke="#d1d1d1" stroke-miterlimit="10"/><path d="m155 149.3 71.6-124.1" fill="none" stroke="#d1d1d1" stroke-miterlimit="10"/><path d="m155 149.3v-143.3" fill="none" stroke="#d1d1d1" stroke-miterlimit="10"/><path d="m155 149.3-71.7-124.1" fill="none" stroke="#d1d1d1" stroke-miterlimit="10"/><path d="m155 149.3-124.1-71.7" fill="none" stroke="#d1d1d1" stroke-miterlimit="10"/><path d="m155 149.3h-143.3" fill="none" stroke="#d1d1d1" stroke-miterlimit="10"/><path d="m155 149.3-124.1 71.6" fill="none" stroke="#d1d1d1" stroke-miterlimit="10"/><path d="m155 149.3-71.7 124" fill="none" stroke="#d1d1d1" stroke-miterlimit="10"/><g fill="#999"><path d="m115.2 80.4 39.8-40.3 62 1.7 29.9 54.4-13.9 54.2-1 43.3-21.6 51.7-55.4-24.5h-42.1l-47.1-20.2 15.6-51.4-11.5-49.2z" opacity=".55"/><ellipse cx="390.3" cy="87.2" rx="2.2" ry="2.2" transform="matrix(.952 -.3061 .3061 .952 -7.9672 123.6268)"/><ellipse cx="444.8" cy="58.4" rx="2.2" ry="2.2" transform="matrix(.9131 -.4077 .4077 .9131 14.8464 186.405)"/><ellipse cx="497.1" cy="25.2" rx="2.2" ry="2.2" transform="matrix(.9131 -.4077 .4077 .9131 32.9169 204.8393)"/><ellipse cx="564.5" cy="32.2" rx="2.2" ry="2.2" transform="matrix(.9131 -.4077 .4077 .9131 35.9186 232.9342)"/><ellipse cx="600.4" cy="89.3" rx="2.2" ry="2.2" transform="matrix(.9131 -.4077 .4077 .9131 15.7464 252.5352)"/><ellipse cx="497.1" cy="149.3" rx="2.2" ry="2.2" transform="matrix(.9131 -.4077 .4077 .9131 -17.6639 215.6182)"/><ellipse cx="404.8" cy="149.3" rx="2.2" ry="2.2" transform="matrix(.952 -.3061 .3061 .952 -26.2573 131.043)"/><ellipse cx="385.2" cy="213.9" rx="2.2" ry="2.2" transform="matrix(.952 -.3061 .3061 .952 -46.9709 128.1678)"/><ellipse cx="447.1" cy="236.2" rx="2.2" ry="2.2" transform="matrix(.952 -.3061 .3061 .952 -50.8483 148.1725)"/><ellipse cx="497.1" cy="257.2" rx="2.2" ry="2.2" transform="matrix(.952 -.3061 .3061 .952 -54.8694 164.4777)"/><ellipse cx="559" cy="256.4" rx="2.2" ry="2.2" transform="matrix(.952 -.3061 .3061 .952 -51.6452 183.3838)"/><ellipse cx="604.6" cy="211.4" rx="2.2" ry="2.2" transform="matrix(.952 -.3061 .3061 .952 -35.6785 195.2011)"/><ellipse cx="597.5" cy="149.3" rx="2.2" ry="2.2" transform="matrix(.952 -.3061 .3061 .952 -17.0076 190.0357)"/><ellipse cx="210.1" cy="245.4" rx="2.2" ry="2.2" transform="matrix(.952 -.3061 .3061 .952 -65.0134 76.0678)"/><ellipse cx="231.8" cy="193.7" rx="2.2" ry="2.2" transform="matrix(.952 -.3061 .3061 .952 -48.1713 80.2377)"/><ellipse cx="233.1" cy="149.3" rx="2.2" ry="2.2" transform="matrix(.952 -.3061 .3061 .952 -34.4967 78.4931)"/><ellipse cx="246.2" cy="96.4" rx="2.2" ry="2.2" transform="matrix(.952 -.3061 .3061 .952 -17.6803 79.975)"/><ellipse cx="216.2" cy="42.4" rx="2.2" ry="2.2" transform="matrix(.952 -.3061 .3061 .952 -2.5863 68.2173)"/><ellipse cx="154.5" cy="40.1" rx="2.2" ry="2.2" transform="matrix(.952 -.3061 .3061 .952 -4.8714 49.2192)"/><ellipse cx="115.3" cy="80.8" rx="2.2" ry="2.2" transform="matrix(.952 -.3061 .3061 .952 -19.1916 39.1501)"/><ellipse cx="70.3" cy="100.7" rx="2.2" ry="2.2" transform="matrix(.952 -.3061 .3061 .952 -27.4571 26.3606)"/><ellipse cx="81.2" cy="149.3" rx="2.2" ry="2.2" transform="matrix(.952 -.3061 .3061 .952 -41.7828 32.0234)"/><ellipse cx="66.4" cy="200.2" rx="2.2" ry="2.2" transform="matrix(.952 -.3061 .3061 .952 -58.0917 29.9332)"/><ellipse cx="114" cy="220.9" rx="2.2" ry="2.2" transform="matrix(.952 -.3061 .3061 .952 -62.1356 45.4764)"/><ellipse cx="155" cy="220.9" rx="2.2" ry="2.2" transform="matrix(.952 -.3061 .3061 .952 -60.1678 58.0272)"/><ellipse cx="155" cy="149.3" rx="2.2" ry="2.2" transform="matrix(.952 -.3061 .3061 .952 -38.2445 54.5898)"/></g><ellipse cx="558.8" cy="42.1" fill="#f2f0f0" rx="2.2" ry="2.2" transform="matrix(.9131 -.4077 .4077 .9131 31.3994 231.4716)"/><ellipse cx="589" cy="96.8" fill="#f2f0f0" rx="2.2" ry="2.2" transform="matrix(.9131 -.4077 .4077 .9131 11.699 248.5476)"/><ellipse cx="575" cy="149.3" fill="#f2f0f0" rx="2.2" ry="2.2" transform="matrix(.9131 -.4077 .4077 .9131 -10.8977 247.3694)"/><ellipse cx="573.2" cy="193.3" fill="#f2f0f0" rx="2.2" ry="2.2" transform="matrix(.9131 -.4077 .4077 .9131 -29.0099 250.4712)"/><ellipse cx="552.6" cy="245.4" fill="#f2f0f0" rx="2.2" ry="2.2" transform="matrix(.9131 -.4077 .4077 .9131 -52.0205 246.602)"/><ellipse cx="497.1" cy="221.2" fill="#f2f0f0" rx="2.2" ry="2.2" transform="matrix(.9131 -.4077 .4077 .9131 -46.9832 221.8662)"/><ellipse cx="455.6" cy="220.9" fill="#f2f0f0" rx="2.2" ry="2.2" transform="matrix(.9131 -.4077 .4077 .9131 -50.466 204.9516)"/><ellipse cx="408.3" cy="200.7" fill="#f2f0f0" rx="2.2" ry="2.2" transform="matrix(.9131 -.4077 .4077 .9131 -46.35 183.9053)"/><ellipse cx="423.5" cy="149.3" fill="#f2f0f0" rx="2.2" ry="2.2" transform="matrix(.9131 -.4077 .4077 .9131 -24.0518 185.6423)"/><ellipse cx="412.1" cy="100.1" fill="#f2f0f0" rx="2.2" ry="2.2" transform="matrix(.9131 -.4077 .4077 .9131 -5.014 176.7272)"/><ellipse cx="456.8" cy="80.5" fill="#f2f0f0" rx="2.2" ry="2.2" transform="matrix(.9131 -.4077 .4077 .9131 6.8493 193.2305)"/><ellipse cx="497.1" cy="40.1" fill="#f2f0f0" rx="2.2" ry="2.2" transform="matrix(.9131 -.4077 .4077 .9131 26.819 206.1388)"/></svg>