<?xml version="1.0" encoding="utf-8"?>
<!-- Generator: Adobe Illustrator 24.0.1, SVG Export Plug-In . SVG Version: 6.00 Build 0)  -->
<svg version="1.1" id="Layer_1" xmlns="http://www.w3.org/2000/svg" xmlns:xlink="http://www.w3.org/1999/xlink" x="0px" y="0px"
	 viewBox="0 0 1268 418" style="enable-background:new 0 0 1268 418;" xml:space="preserve">
<style type="text/css">
	.st0{fill:none;stroke:#D1D1D1;stroke-width:1.4017;stroke-miterlimit:10;}
	.st1{fill:#A39CB9;}
	.st2{fill:#C4C5D1;}
	.st3{fill:#B5AEC7;}
	.st4{fill:#999999;}
	.st5{fill:#F2F0F0;}
</style>
<path class="st0" d="M1075.6,209.4c0-111-89.7-200.9-200.7-200.9S674,98.4,674,209.4s89.9,200.9,200.9,200.9
	S1075.6,320.3,1075.6,209.4z"/>
<path class="st0" d="M874.8,209.4v200.7"/>
<path class="st0" d="M874.8,209.4l100.4,173.8"/>
<path class="st0" d="M874.8,209.4l173.8,100.4"/>
<path class="st0" d="M874.8,209.4h200.7"/>
<path class="st0" d="M874.8,209.4l173.8-100.5"/>
<path class="st0" d="M874.8,209.4l100.4-174"/>
<path class="st0" d="M874.8,209.4V8.6"/>
<path class="st0" d="M874.8,209.4l-100.5-174"/>
<path class="st0" d="M874.8,209.4l-174-100.5"/>
<path class="st0" d="M874.8,209.4H674"/>
<path class="st0" d="M874.8,209.4l-174,100.4"/>
<path class="st0" d="M874.8,209.4L774.3,383.3"/>
<path class="st1" d="M724.4,122.3l76.8-40.7L875,35.4l94.9,9.5l50.7,80.3l-5,84.1l10,86.9L962,359.8l-87,0.8l-70.4-29.4L718,299.9
	l27.3-90.6L724.4,122.3z"/>
<path class="st2" d="M819,112.9l55.8-56.5l86.9,2.4l41.9,76.3l-19.5,76l-1.4,60.7l-30.1,72.5L874.8,310h-59l-66-28.3l21.9-72
	l-16.1-69L819,112.9z"/>
<path class="st0" d="M596,209.4c0-111-89.9-200.9-200.7-200.9S194.4,98.4,194.4,209.4s89.9,200.7,200.9,200.7S596,320.3,596,209.4z"
	/>
<path class="st0" d="M395.3,209.4v200.7"/>
<path class="st0" d="M395.3,209.4l100.4,173.8"/>
<path class="st0" d="M395.3,209.4l173.8,100.4"/>
<path class="st0" d="M395.3,209.4H596"/>
<path class="st0" d="M395.3,209.4l173.8-100.5"/>
<path class="st0" d="M395.3,209.4l100.4-174"/>
<path class="st0" d="M395.3,209.4V8.6"/>
<path class="st0" d="M395.3,209.4l-100.5-174"/>
<path class="st0" d="M395.3,209.4l-174-100.5"/>
<path class="st0" d="M395.3,209.4H194.4"/>
<path class="st0" d="M395.3,209.4l-174,100.4"/>
<path class="st0" d="M395.3,209.4L294.8,383.3"/>
<g>
	<path class="st3" d="M339.5,112.9l55.8-56.5l86.9,2.4l41.9,76.3l-19.5,76l-1.4,60.7L473,344.2l-77.7-34.3h-59l-66-28.3l21.9-72
		l-16.1-69L339.5,112.9z"/>
	<ellipse transform="matrix(0.952 -0.3061 0.3061 0.952 -2.6619 227.8325)" class="st4" cx="725.1" cy="122.4" rx="3.1" ry="3.1"/>
	<ellipse transform="matrix(0.9131 -0.4077 0.4077 0.9131 36.1997 333.8972)" class="st4" cx="801.5" cy="82" rx="3.1" ry="3.1"/>
	<ellipse transform="matrix(0.9131 -0.4077 0.4077 0.9131 61.5298 359.7481)" class="st4" cx="874.8" cy="35.5" rx="3.1" ry="3.1"/>
	<ellipse transform="matrix(0.9131 -0.4077 0.4077 0.9131 65.7471 399.122)" class="st4" cx="969.3" cy="45.3" rx="3.1" ry="3.1"/>
	
		<ellipse transform="matrix(0.9131 -0.4077 0.4077 0.9131 37.4974 426.5735)" class="st4" cx="1019.6" cy="125.3" rx="3.1" ry="3.1"/>
	<ellipse transform="matrix(0.9131 -0.4077 0.4077 0.9131 -9.3761 374.851)" class="st4" cx="874.8" cy="209.4" rx="3.1" ry="3.1"/>
	<ellipse transform="matrix(0.952 -0.3061 0.3061 0.952 -28.3107 238.2478)" class="st4" cx="745.5" cy="209.4" rx="3.1" ry="3.1"/>
	<ellipse transform="matrix(0.952 -0.3061 0.3061 0.952 -57.3655 234.181)" class="st4" cx="718" cy="300" rx="3.1" ry="3.1"/>
	<ellipse transform="matrix(0.952 -0.3061 0.3061 0.952 -62.7586 262.2149)" class="st4" cx="804.7" cy="331.2" rx="3.1" ry="3.1"/>
	<ellipse class="st4" cx="874.8" cy="360.7" rx="3.1" ry="3.1"/>
	<ellipse class="st4" cx="961.6" cy="359.5" rx="3.1" ry="3.1"/>
	
		<ellipse transform="matrix(0.952 -0.3061 0.3061 0.952 -41.5368 328.1409)" class="st4" cx="1025.5" cy="296.5" rx="3.1" ry="3.1"/>
	
		<ellipse transform="matrix(0.952 -0.3061 0.3061 0.952 -15.3474 320.9249)" class="st4" cx="1015.6" cy="209.4" rx="3.1" ry="3.1"/>
	<ellipse class="st4" cx="472.6" cy="344.1" rx="3.1" ry="3.1"/>
	<ellipse class="st4" cx="502.9" cy="271.7" rx="3.1" ry="3.1"/>
	<ellipse class="st4" cx="504.8" cy="209.4" rx="3.1" ry="3.1"/>
	<ellipse class="st4" cx="523.2" cy="135.3" rx="3.1" ry="3.1"/>
	<ellipse class="st4" cx="481.1" cy="59.6" rx="3.1" ry="3.1"/>
	<ellipse class="st4" cx="394.6" cy="56.4" rx="3.1" ry="3.1"/>
	<ellipse class="st4" cx="339.7" cy="113.4" rx="3.1" ry="3.1"/>
	<ellipse class="st4" cx="276.6" cy="141.3" rx="3.1" ry="3.1"/>
	<ellipse class="st4" cx="291.9" cy="209.5" rx="3.1" ry="3.1"/>
	<ellipse class="st4" cx="271.1" cy="280.8" rx="3.1" ry="3.1"/>
	<ellipse class="st4" cx="337.8" cy="309.8" rx="3.1" ry="3.1"/>
	<ellipse class="st4" cx="395.3" cy="309.8" rx="3.1" ry="3.1"/>
	<ellipse class="st4" cx="395.3" cy="209.4" rx="3.1" ry="3.1"/>
</g>
<ellipse transform="matrix(0.9131 -0.4077 0.4077 0.9131 59.3822 397.0734)" class="st5" cx="961.3" cy="59.2" rx="3.1" ry="3.1"/>
<ellipse transform="matrix(0.9131 -0.4077 0.4077 0.9131 31.7875 420.9847)" class="st5" cx="1003.6" cy="135.9" rx="3.1" ry="3.1"/>
<ellipse transform="matrix(0.9131 -0.4077 0.4077 0.9131 0.1139 419.3732)" class="st5" cx="984" cy="209.4" rx="3.1" ry="3.1"/>
<ellipse transform="matrix(0.9131 -0.4077 0.4077 0.9131 -25.2506 423.7123)" class="st5" cx="981.5" cy="271.1" rx="3.1" ry="3.1"/>
<ellipse transform="matrix(0.9131 -0.4077 0.4077 0.9131 -57.5345 418.2707)" class="st5" cx="952.6" cy="344.1" rx="3.1" ry="3.1"/>
<ellipse transform="matrix(0.9131 -0.4077 0.4077 0.9131 -50.47 383.6106)" class="st5" cx="874.8" cy="310.2" rx="3.1" ry="3.1"/>
<ellipse transform="matrix(0.9131 -0.4077 0.4077 0.9131 -55.3453 359.8798)" class="st5" cx="816.7" cy="309.8" rx="3.1" ry="3.1"/>
<ellipse transform="matrix(0.9131 -0.4077 0.4077 0.9131 -49.5635 330.3932)" class="st5" cx="750.4" cy="281.5" rx="3.1" ry="3.1"/>
<ellipse transform="matrix(0.9131 -0.4077 0.4077 0.9131 -18.3615 332.8306)" class="st5" cx="771.7" cy="209.5" rx="3.1" ry="3.1"/>
<ellipse transform="matrix(0.9131 -0.4077 0.4077 0.9131 8.3801 320.3036)" class="st5" cx="755.7" cy="140.5" rx="3.1" ry="3.1"/>
<ellipse transform="matrix(0.9131 -0.4077 0.4077 0.9131 25.0242 343.4391)" class="st5" cx="818.3" cy="113" rx="3.1" ry="3.1"/>
<ellipse transform="matrix(0.9131 -0.4077 0.4077 0.9131 53.0145 361.5629)" class="st5" cx="874.8" cy="56.4" rx="3.1" ry="3.1"/>
</svg>
