<svg xmlns="http://www.w3.org/2000/svg" width="256" height="256" viewBox="0 0 256 256"><title>icon_sketch</title><path d="M105.4,120.8H7.2L16,83.5ZM44.5,53.5,18.2,79.8l90.3,37.7Zm66.4,60.4L87.4,57.1c-6.3.2-29.1-3.2-37.9-4.6Zm97-85L165,12.3,122.9,113.9ZM126.6,129.6l68.3,68.3L247.4,180ZM36.8,206l41.6,4.3,32.5-78.4Zm86.1-74.1,40,96.6,28.9-27.7ZM6.2,125l-.2.7,17.2,33.7L106.3,125ZM119,133.5V250l40.4-18.9ZM224.8,75.9,210.7,32l-84.8,84.9Zm-110,57.6L82.3,212l32.5,37.6Zm12.7-12.7H232.1L225.9,80ZM252,177.4,232.7,125H126.5ZM119,112.3,160.9,11.1,119,6.6ZM114.8,10.1,90.2,53l24.6,59.3ZM24.3,163.5l9.2,39.8,74.4-74.4Z"/></svg>