<svg enable-background="new 0 0 650 291.9" height="291.9" viewBox="0 0 650 291.9" width="650" xmlns="http://www.w3.org/2000/svg"><g fill="none" stroke="#888" stroke-width="1.2173"><path d="m39.3 262.6h600.7"/><path d="m139.4 262.6v6.2"/><path d="m239.5 262.6v6.2"/><path d="m339.6 262.6v6.2"/><path d="m439.7 262.6v6.2"/><path d="m539.8 262.6v6.2"/><path d="m640 262.6v6.2"/></g><text fill="#9e9e9e" font-family="'Helvetica'" font-size="12.1725" transform="translate(19.1084 265.6292)">0</text><text fill="#9e9e9e" font-family="'Helvetica'" font-size="12.1725" transform="translate(12.3384 203.1243)">10</text><text fill="#9e9e9e" font-family="'Helvetica'" font-size="12.1725" transform="translate(12.3384 140.6204)">20</text><text fill="#9e9e9e" font-family="'Helvetica'" font-size="12.1725" transform="translate(12.3384 78.1156)">30</text><text fill="#9e9e9e" font-family="'Helvetica'" font-size="12.1725" transform="translate(12.3384 15.6117)">40</text><path d="m39.3 262.8v-250" fill="none" stroke="#888" stroke-width="1.2173"/><path d="m31.8 200.3h7.5" fill="none" stroke="#888" stroke-width="1.2173"/><path d="m31.8 137.8h7.5" fill="none" stroke="#888" stroke-width="1.2173"/><path d="m31.8 75.3h7.5" fill="none" stroke="#888" stroke-width="1.2173"/><path d="m31.8 12.8h7.5" fill="none" stroke="#888" stroke-width="1.2173"/><path d="m104 205.9h24v56.3h-24z" fill="#e2e2e2"/><path d="m204.1 68.4h24v193.8h-24z" fill="#e2e2e2"/><path d="m304.2 149h24v113.2h-24z" fill="#e2e2e2"/><path d="m404.4 205.9h24v56.3h-24z" fill="#e2e2e2"/><path d="m504.5 224.6h24v37.5h-24z" fill="#e2e2e2"/><path d="m604.6 190.7h24v71.5h-24z" fill="#e2e2e2"/><path d="m77.3 112.1h24v150h-24z" fill="#cbcbcb"/><path d="m177.4 153.3h24v108.8h-24z" fill="#cbcbcb"/><path d="m277.5 197.5h24v64.7h-24z" fill="#cbcbcb"/><path d="m377.7 187.1h24v75h-24z" fill="#cbcbcb"/><path d="m477.8 149.6h24v112.5h-24z" fill="#cbcbcb"/><path d="m577.9 211.4h24v50.7h-24z" fill="#cbcbcb"/><path d="m50.6 168.4h24v93.8h-24z" fill="#989898"/><path d="m150.7 112.1h24v150h-24z" fill="#989898"/><path d="m250.8 100.5h24v161.7h-24z" fill="#989898"/><path d="m351 105.9h24v156.3h-24z" fill="#989898"/><path d="m451.1 16.1h24v246h-24z" fill="#989898"/><path d="m551.2 129.1h24v133h-24z" fill="#989898"/><text fill="#9e9e9e" font-family="'Helvetica'" font-size="14" transform="translate(585.8975 284.3255)">Jun</text><text fill="#9e9e9e" font-family="'Helvetica'" font-size="14" transform="translate(485.7832 284.3255)">May</text><text fill="#9e9e9e" font-family="'Helvetica'" font-size="14" transform="translate(385.668 284.3255)">Apr</text><text fill="#9e9e9e" font-family="'Helvetica'" font-size="14" transform="translate(285.5518 284.3255)">Mar</text><text fill="#9e9e9e" font-family="'Helvetica'" font-size="14" transform="translate(185.4365 284.3255)">Feb</text><text fill="#9e9e9e" font-family="'Helvetica'" font-size="14" transform="translate(85.3203 284.3255)">Jan</text></svg>