<svg xmlns="http://www.w3.org/2000/svg" width="256" height="256" viewBox="0 0 256 256"><path d="M81.8,52.5h33.4V246.7l-35.3.2V11H38.2V88.5h3.2V14.6H76.7V91.4l-1.3-1.5L42.5,127.3l2.3,2.6L76.7,93.5v14.8L42.2,147.6l2.3,2.5,32.2-36.7v56.1l-2-2.3L41.3,205.3l2.2,2.5L76.7,170v54.7l-1.8-2.1L56.8,243.2l2.2,2.5,17.7-20.2v21.4l-35.9.3v-80l1.7,2,31.7-36L72,130.7,40.8,166.1V91.5H8c-2.7,0-5.8.1-6.6,5.2a21.7,21.7,0,0,0-.1,3.6c0,.5.1,1,.1,1.4v147H2.6V251l115.8-.7V48.9H81.8ZM37.6,247.2l-33.1.2V100.2a12.1,12.1,0,0,1,0-2.7c.3-2.2.7-2.3,3.5-2.3H37.6ZM213,32.7V85.6h3.2V36.3H251V241.9l-35.8,1.4V89.3H197.7l-.4-.5-.5.5H174.6v35.3H141.3v3.6h33.3V244.9l-31.8,1.3V130.1h-3.1V246.3h-.8l.2,3.6,115.1-4.5V32.7Zm-.9,154.8-1-1.2-29.9,34.1,2.2,2.5,28.7-32.6v53.2l-19,.7,18.4-20.9-2.2-2.6L190.6,242l1.9,2.2-14.8.6V92.9h16L178,110.8l2.2,2.5,17.9-20.4h10.8l-30.6,34.8,2.2,2.6,30.9-35.2-1.9-2.2h2.6ZM65.1,20.8l-19,21.6-2.3-2.6,19-21.6ZM42.9,61.5,72.3,28l2.3,2.5L45.1,64.1Zm.3,21.4,30.7-35,2.3,2.5-30.8,35Zm-.7,22.8L73.8,70.1,76,72.7,44.8,108.2Zm-1.6,81.9,33.5-38,2.2,2.5L43.2,190.2Zm31.7-.3,2.2,2.5-31,35.3-2.2-2.5ZM44.2,237.6l29.2-33.2,2.2,2.5L46.4,240.2Zm138.9-91.2-2.2-2.5,23.8-27.1,2.2,2.5Zm24.6-14.3,2.3,2.5-29.2,33.2-2.2-2.6Zm1.6,20.1-28.1,32.1-2.3-2.5,28.2-32.1Zm-1.8,18.3,2.2,2.5-26.3,29.7-2.2-2.6Zm-28.9,66.4,30.6-34.8,2.2,2.5-30.6,34.8Z" /></svg>