<?xml version="1.0" encoding="utf-8"?>
<!-- Generator: Adobe Illustrator 22.1.0, SVG Export Plug-In . SVG Version: 6.00 Build 0)  -->
<svg version="1.1" id="Layer_1" xmlns="http://www.w3.org/2000/svg" xmlns:xlink="http://www.w3.org/1999/xlink" x="0px" y="0px"
	 viewBox="0 0 1268 418" style="enable-background:new 0 0 1268 418;" xml:space="preserve">
<style type="text/css">
	.st0{fill:none;stroke:#7E729E;stroke-miterlimit:10;}
	.st1{fill:#F4F2F9;stroke:#928BA0;stroke-width:3;stroke-miterlimit:10;}
	.st2{fill:#928BA0;}
	.st3{fill:#D1CDC9;}
	.st4{font-family:'RobotoCondensed-Regular';}
	.st5{font-size:18px;}
	.st6{fill:none;stroke:#C4C4C4;stroke-miterlimit:10;}
	.st7{opacity:0.8;fill:#7E729E;}
</style>
<g id="Layer_1_1_">
	<line class="st0" x1="160" y1="80.6" x2="160" y2="329"/>
	<line class="st0" x1="151" y1="80.6" x2="170" y2="80.6"/>
	<line class="st0" x1="151" y1="329" x2="170" y2="329"/>
	<rect x="144" y="131.1" class="st1" width="33" height="158.1"/>
	<rect x="144" y="196.6" class="st2" width="33" height="2.9"/>
	<g>
		<text transform="matrix(1 0 0 1 2.3853 24.1057)" class="st3 st4 st5">100</text>
		<text transform="matrix(1 0 0 1 16.271 106.1057)" class="st3 st4 st5">80</text>
		<text transform="matrix(1 0 0 1 13.271 188.1057)" class="st3 st4 st5">60</text>
		<text transform="matrix(1 0 0 1 15.071 270.1057)" class="st3 st4 st5">40</text>
		<text transform="matrix(1 0 0 1 14.971 352.1057)" class="st3 st4 st5">20</text>
	</g>
	<polyline class="st6" points="51.4,1.9 51.4,379.4 1257,379.4 	"/>
	<g>
		<line class="st6" x1="41.8" y1="18.4" x2="51.8" y2="18.4"/>
		<line class="st6" x1="41.8" y1="347" x2="51.8" y2="347"/>
		<line class="st6" x1="41.8" y1="264.8" x2="51.8" y2="264.8"/>
		<line class="st6" x1="41.8" y1="182.7" x2="51.8" y2="182.7"/>
		<line class="st6" x1="41.8" y1="100.5" x2="51.8" y2="100.5"/>
	</g>
	<g>
		<g>
			<text transform="matrix(1 0 0 1 370.0106 416.0527)" class="st3 st4 st5">C</text>
		</g>
		<g>
			<text transform="matrix(1 0 0 1 478.1082 416.0527)" class="st3 st4 st5">D</text>
		</g>
		<g>
			<text transform="matrix(1 0 0 1 587.6146 416.0527)" class="st3 st4 st5">E</text>
		</g>
		<g>
			<text transform="matrix(1 0 0 1 696.948 416.0527)" class="st3 st4 st5">F</text>
		</g>
		<g>
			<text transform="matrix(1 0 0 1 154.4067 416.0527)" class="st3 st4 st5">A</text>
		</g>
		<g>
			<text transform="matrix(1 0 0 1 263.4067 416.0527)" class="st3 st4 st5">B</text>
		</g>
		<g>
			<text transform="matrix(1 0 0 1 804.2184 416.0527)" class="st3 st4 st5">G</text>
		</g>
		<g>
			<text transform="matrix(1 0 0 1 911.5517 416.0527)" class="st3 st4 st5">H</text>
		</g>
		<g>
			<text transform="matrix(1 0 0 1 1022.5931 416.0527)" class="st3 st4 st5">I</text>
		</g>
		<g>
			<text transform="matrix(1 0 0 1 1128.9264 416.0527)" class="st3 st4 st5">J</text>
		</g>
		<g>
			<text transform="matrix(1 0 0 1 1235.8137 416.0527)" class="st3 st4 st5">K</text>
		</g>
	</g>
	<line class="st6" x1="159.5" y1="388.9" x2="159.5" y2="379.4"/>
	<line class="st6" x1="375.8" y1="388.9" x2="375.8" y2="379.4"/>
	<line class="st6" x1="592.1" y1="388.9" x2="592.1" y2="379.4"/>
	<line class="st6" x1="808.4" y1="388.9" x2="808.4" y2="379.4"/>
	<line class="st6" x1="267.7" y1="388.9" x2="267.7" y2="379.4"/>
	<line class="st6" x1="484" y1="388.9" x2="484" y2="379.4"/>
	<line class="st6" x1="700.3" y1="388.9" x2="700.3" y2="379.4"/>
	<line class="st6" x1="916.6" y1="388.9" x2="916.6" y2="379.4"/>
	<line class="st6" x1="1024.7" y1="388.9" x2="1024.7" y2="379.4"/>
	<line class="st6" x1="1132.9" y1="388.9" x2="1132.9" y2="379.4"/>
	<line class="st6" x1="1240" y1="387.3" x2="1240" y2="379.4"/>
</g>
<g id="Layer_2_1_">
</g>
<g id="Layer_3">
</g>
<circle class="st7" cx="160" cy="44.7" r="3"/>
<circle class="st7" cx="160" cy="32.2" r="3"/>
<circle class="st7" cx="160" cy="27.1" r="3"/>
<circle class="st7" cx="160" cy="53.8" r="3"/>
<circle class="st7" cx="160" cy="61.3" r="3"/>
<circle class="st7" cx="160" cy="355.5" r="3"/>
<circle class="st7" cx="160" cy="363" r="3"/>
<line class="st0" x1="268" y1="113.6" x2="268" y2="284"/>
<line class="st0" x1="259" y1="113.6" x2="278" y2="113.6"/>
<line class="st0" x1="259" y1="284" x2="278" y2="284"/>
<rect x="252" y="164.1" class="st1" width="33" height="80.1"/>
<rect x="251.2" y="209.7" class="st2" width="33" height="2.9"/>
<circle class="st7" cx="268" cy="77.9" r="3"/>
<circle class="st7" cx="268" cy="87" r="3"/>
<circle class="st7" cx="268" cy="94.5" r="3"/>
<circle class="st7" cx="268" cy="342" r="3"/>
<circle class="st7" cx="268" cy="311.8" r="3"/>
<circle class="st7" cx="268" cy="303.1" r="3"/>
<line class="st0" x1="376" y1="108.6" x2="376" y2="273.1"/>
<line class="st0" x1="367" y1="108.6" x2="386" y2="108.6"/>
<line class="st0" x1="367" y1="273.1" x2="386" y2="273.1"/>
<rect x="360" y="131.1" class="st1" width="33" height="102.2"/>
<rect x="360" y="196.6" class="st2" width="33" height="2.9"/>
<circle class="st7" cx="376" cy="75.4" r="3"/>
<circle class="st7" cx="376" cy="62.9" r="3"/>
<circle class="st7" cx="376" cy="57.8" r="3"/>
<circle class="st7" cx="376" cy="84.5" r="3"/>
<circle class="st7" cx="376" cy="292.9" r="3"/>
<circle class="st7" cx="376" cy="300.4" r="3"/>
<circle class="st7" cx="376" cy="305" r="3"/>
<circle class="st7" cx="376" cy="312.5" r="3"/>
<line class="st0" x1="484" y1="167.6" x2="484" y2="329"/>
<line class="st0" x1="475" y1="167.6" x2="494" y2="167.6"/>
<line class="st0" x1="475" y1="329" x2="494" y2="329"/>
<rect x="468" y="218.2" class="st1" width="33" height="71"/>
<rect x="467.5" y="268.6" class="st2" width="33" height="2.9"/>
<circle class="st7" cx="484" cy="124.6" r="3"/>
<circle class="st7" cx="484" cy="112.1" r="3"/>
<circle class="st7" cx="484" cy="107" r="3"/>
<circle class="st7" cx="484" cy="133.7" r="3"/>
<circle class="st7" cx="484" cy="141.2" r="3"/>
<circle class="st7" cx="484" cy="139.3" r="3"/>
<circle class="st7" cx="484" cy="126.8" r="3"/>
<circle class="st7" cx="484" cy="121.7" r="3"/>
<circle class="st7" cx="484" cy="148.4" r="3"/>
<circle class="st7" cx="484" cy="155.9" r="3"/>
<circle class="st7" cx="484" cy="355.5" r="3"/>
<circle class="st7" cx="484" cy="363" r="3"/>
<line class="st0" x1="592" y1="143.7" x2="592" y2="273.6"/>
<line class="st0" x1="583" y1="143.7" x2="602" y2="143.7"/>
<line class="st0" x1="583" y1="273.6" x2="602" y2="273.6"/>
<rect x="576" y="194.2" class="st1" width="33" height="39.6"/>
<polyline class="st2" points="609,216.7 609,219.6 576,219.6 576,216.7 "/>
<circle class="st7" cx="592" cy="98" r="3"/>
<circle class="st7" cx="592" cy="93" r="3"/>
<circle class="st7" cx="592" cy="119.6" r="3"/>
<circle class="st7" cx="592" cy="127.1" r="3"/>
<circle class="st7" cx="592" cy="311.5" r="3"/>
<circle class="st7" cx="592" cy="319" r="3"/>
<circle class="st7" cx="592" cy="347.3" r="3"/>
<circle class="st7" cx="592" cy="354.8" r="3"/>
<circle class="st7" cx="592" cy="301" r="3"/>
<circle class="st7" cx="592" cy="308.5" r="3"/>
<line class="st0" x1="700" y1="198.8" x2="700" y2="309"/>
<line class="st0" x1="691" y1="198.8" x2="710" y2="198.8"/>
<line class="st0" x1="691" y1="309" x2="710" y2="309"/>
<rect x="684" y="249.4" class="st1" width="33" height="39.8"/>
<rect x="684" y="262.4" class="st2" width="33" height="2.9"/>
<circle class="st7" cx="700" cy="162.9" r="3"/>
<circle class="st7" cx="700" cy="172" r="3"/>
<circle class="st7" cx="700" cy="179.5" r="3"/>
<circle class="st7" cx="700" cy="335.5" r="3"/>
<circle class="st7" cx="700" cy="343" r="3"/>
<line class="st0" x1="808" y1="103.7" x2="808" y2="318"/>
<line class="st0" x1="799" y1="103.7" x2="818" y2="103.7"/>
<line class="st0" x1="799" y1="318" x2="818" y2="318"/>
<rect x="792" y="154.2" class="st1" width="33" height="135"/>
<rect x="792" y="192.6" class="st2" width="33" height="2.9"/>
<circle class="st7" cx="808" cy="70.7" r="3"/>
<circle class="st7" cx="808" cy="45.2" r="3"/>
<circle class="st7" cx="808" cy="79.8" r="3"/>
<circle class="st7" cx="808" cy="87.3" r="3"/>
<circle class="st7" cx="808" cy="333.5" r="3"/>
<circle class="st7" cx="808" cy="341" r="3"/>
<circle class="st7" cx="808" cy="341" r="3"/>
<circle class="st7" cx="808" cy="348.5" r="3"/>
<circle class="st7" cx="808" cy="354.8" r="3"/>
<circle class="st7" cx="808" cy="362.3" r="3"/>
<line class="st0" x1="916" y1="184.6" x2="916" y2="329"/>
<line class="st0" x1="907" y1="184.6" x2="926" y2="184.6"/>
<line class="st0" x1="907" y1="329" x2="926" y2="329"/>
<rect x="900" y="235.1" class="st1" width="33" height="54.1"/>
<rect x="900" y="260.6" class="st2" width="33" height="2.9"/>
<circle class="st7" cx="916" cy="148.7" r="3"/>
<circle class="st7" cx="916" cy="136.2" r="3"/>
<circle class="st7" cx="916" cy="131.1" r="3"/>
<circle class="st7" cx="916" cy="157.8" r="3"/>
<circle class="st7" cx="916" cy="165.3" r="3"/>
<circle class="st7" cx="916" cy="355.5" r="3"/>
<circle class="st7" cx="916" cy="363" r="3"/>
<line class="st0" x1="1024" y1="81.6" x2="1024" y2="265"/>
<line class="st0" x1="1015" y1="81.6" x2="1034" y2="81.6"/>
<line class="st0" x1="1015" y1="265" x2="1034" y2="265"/>
<rect x="1008" y="132.1" class="st1" width="33" height="93.1"/>
<rect x="1008" y="197.6" class="st2" width="33" height="2.9"/>
<circle class="st7" cx="1024" cy="45.7" r="3"/>
<circle class="st7" cx="1024" cy="33.2" r="3"/>
<circle class="st7" cx="1024" cy="28.1" r="3"/>
<circle class="st7" cx="1024" cy="54.8" r="3"/>
<circle class="st7" cx="1024" cy="62.3" r="3"/>
<circle class="st7" cx="1024" cy="291.5" r="3"/>
<circle class="st7" cx="1024" cy="299" r="3"/>
<circle class="st7" cx="1024" cy="335.2" r="3"/>
<circle class="st7" cx="1024" cy="342.7" r="3"/>
<circle class="st7" cx="1024" cy="309.6" r="3"/>
<circle class="st7" cx="1024" cy="317.1" r="3"/>
<circle class="st7" cx="1024" cy="354" r="3"/>
<circle class="st7" cx="1024" cy="361.5" r="3"/>
<line class="st0" x1="1132" y1="117.6" x2="1132" y2="270"/>
<line class="st0" x1="1123" y1="117.6" x2="1142" y2="117.6"/>
<line class="st0" x1="1123" y1="270" x2="1142" y2="270"/>
<rect x="1116" y="168.1" class="st1" width="33" height="62.1"/>
<rect x="1116" y="196.6" class="st2" width="33" height="2.9"/>
<circle class="st7" cx="1132" cy="81.7" r="3"/>
<circle class="st7" cx="1132" cy="69.2" r="3"/>
<circle class="st7" cx="1132" cy="64.1" r="3"/>
<circle class="st7" cx="1132" cy="90.8" r="3"/>
<circle class="st7" cx="1132" cy="98.3" r="3"/>
<circle class="st7" cx="1132" cy="296.5" r="3"/>
<circle class="st7" cx="1132" cy="304" r="3"/>
<circle class="st7" cx="1132" cy="336.2" r="3"/>
<circle class="st7" cx="1132" cy="343.7" r="3"/>
<circle class="st7" cx="1132" cy="367.4" r="3"/>
<circle class="st7" cx="1132" cy="312.6" r="3"/>
<circle class="st7" cx="1132" cy="320.1" r="3"/>
<line class="st0" x1="1240" y1="137.6" x2="1240" y2="255"/>
<line class="st0" x1="1231" y1="137.6" x2="1250" y2="137.6"/>
<line class="st0" x1="1231" y1="255" x2="1250" y2="255"/>
<rect x="1224" y="173.1" class="st1" width="33" height="42.1"/>
<rect x="1224" y="196.6" class="st2" width="33" height="2.9"/>
<circle class="st7" cx="1240" cy="101.7" r="3"/>
<circle class="st7" cx="1240" cy="89.2" r="3"/>
<circle class="st7" cx="1240" cy="84.1" r="3"/>
<circle class="st7" cx="1240" cy="110.8" r="3"/>
<circle class="st7" cx="1240" cy="118.3" r="3"/>
<circle class="st7" cx="1240" cy="281.5" r="3"/>
<circle class="st7" cx="1240" cy="289" r="3"/>
<circle class="st7" cx="1240" cy="326.7" r="3"/>
<circle class="st7" cx="1240" cy="334.2" r="3"/>
<circle class="st7" cx="1240" cy="303.3" r="3"/>
<circle class="st7" cx="1240" cy="310.8" r="3"/>
<circle class="st7" cx="1240" cy="305" r="3"/>
<circle class="st7" cx="1240" cy="312.5" r="3"/>
<circle class="st7" cx="1240" cy="350.2" r="3"/>
<circle class="st7" cx="1240" cy="357.7" r="3"/>
<circle class="st7" cx="1240" cy="326.7" r="3"/>
<circle class="st7" cx="1240" cy="334.2" r="3"/>
</svg>
