<?xml version="1.0" encoding="utf-8"?>
<!-- Generator: Adobe Illustrator 19.2.0, SVG Export Plug-In . SVG Version: 6.00 Build 0)  -->
<svg version="1.1" id="Layer_1" xmlns="http://www.w3.org/2000/svg" xmlns:xlink="http://www.w3.org/1999/xlink" x="0px" y="0px"
	 width="1200px" height="1136px" viewBox="0 0 1200 1136" enable-background="new 0 0 1200 1136" xml:space="preserve">
<g>
	<g>
		<text transform="matrix(1 0 0 1 1.9999 57.6055)" fill="#37246D" font-family="'Roboto-Regular'" font-size="65px">line</text>
	</g>
	<path fill="none" stroke="#939FD5" stroke-width="13.9832" stroke-miterlimit="10" d="M306.261,852.917
		c-3.909-20.546-5.955-41.752-5.955-63.436c0-172.041,128.785-314.003,295.21-334.74"/>
	<path fill="none" stroke="#939FD5" stroke-width="13.9832" stroke-miterlimit="10" d="M598.603,452.482
		c10.052-0.867,20.257-1.276,30.565-1.276c140.476,0,262.582,78.887,324.375,194.768c27.452,51.486,43.015,110.217,43.015,172.622
		c0,28.83-3.317,56.894-9.593,83.836"/>
	<path fill="none" stroke="#939FD5" stroke-width="13.9832" stroke-miterlimit="10" d="M695.985,734.464
		c36.361-85.235,6.963-232.856-89.013-280.655"/>
	<path fill="none" stroke="#939FD5" stroke-width="13.9832" stroke-miterlimit="10" d="M891.75,847.477
		c37.045-58.68,59.395-127.566,61.793-201.503c0.204-4.49,0.255-8.981,0.255-13.522c0-206.555-155.12-376.779-355.195-400.608"/>
	
		<line fill="none" stroke="#37246D" stroke-width="4" stroke-miterlimit="10" x1="221.299" y1="917.523" x2="202.737" y2="885.371"/>
	
		<line fill="none" stroke="#37246D" stroke-width="4" stroke-miterlimit="10" x1="121.785" y1="974.977" x2="103.223" y2="942.826"/>
	<g>
		<g>
			<polyline fill="none" stroke="#37246D" stroke-width="10" stroke-miterlimit="10" points="1170.756,1008.35 599,678.246 
				599,30.705 			"/>
			<g>
				<polygon fill="#37246D" points="1175.675,988.158 1195.615,1022.702 1155.729,1022.705 				"/>
			</g>
			<g>
				<polygon fill="#37246D" points="618.945,36.541 599,2 579.055,36.541 				"/>
			</g>
		</g>
	</g>
	<g>
		<g>
			
				<line fill="none" stroke="#37246D" stroke-width="10" stroke-miterlimit="10" x1="26.857" y1="1008.35" x2="598.613" y2="678.246"/>
			<g>
				<polygon fill="#37246D" points="41.884,1022.705 1.998,1022.702 21.939,988.158 				"/>
			</g>
		</g>
	</g>
	
		<line fill="none" stroke="#37246D" stroke-width="4" stroke-miterlimit="10" x1="801.676" y1="775.467" x2="783.114" y2="807.618"/>
	
		<line fill="none" stroke="#37246D" stroke-width="4" stroke-miterlimit="10" x1="1094.004" y1="942.826" x2="1075.441" y2="974.977"/>
	<g>
		<text transform="matrix(1 0 0 1 231.4779 1049.8867)" fill="#7F7F7F" font-family="'Roboto-Regular'" font-size="65px">node</text>
	</g>
	<g>
		<text transform="matrix(1 0 0 1 953.8002 291.8711)" fill="#7F7F7F" font-family="'Roboto-Regular'" font-size="65px">edge</text>
	</g>
	<g>
		<text transform="matrix(1 0 0 1 678.0228 57.6055)" fill="#7F7F7F" font-family="'Roboto-Regular'" font-size="65px">regulator</text>
	</g>
	<g>
		<text transform="matrix(1 0 0 1 5.9486 1119.3164)" fill="#7F7F7F" font-family="'Roboto-Regular'" font-size="65px">workhorse</text>
	</g>
	<g>
		<text transform="matrix(1 0 0 1 938.1615 1119.3164)" fill="#7F7F7F" font-family="'Roboto-Regular'" font-size="65px">manager</text>
	</g>
	<g>
		<text transform="matrix(1 0 0 1 531.0033 581.1992)" fill="#37246D" font-family="'Roboto-Medium'" font-size="46.6106px">1</text>
	</g>
	<g>
		<text transform="matrix(1 0 0 1 612.515 652.375)" fill="#37246D" font-family="'Roboto-Medium'" font-size="65.2548px">2:1</text>
	</g>
	<g>
		<text transform="matrix(1 0 0 1 202.6967 656.2773)" fill="#37246D" font-family="'Roboto-Medium'" font-size="65.2548px">3:2</text>
	</g>
	<g>
		<text transform="matrix(1 0 0 1 595.515 1014.6855)" fill="#37246D" font-family="'Roboto-Medium'" font-size="65.2548px">2:3</text>
	</g>
	<g>
		<text transform="matrix(1 0 0 1 782.724 609.166)" fill="#37246D" font-family="'Roboto-Medium'" font-size="65.2548px">2:4</text>
	</g>
	<g>
		<text transform="matrix(1 0 0 1 392.9877 428.9062)" fill="#37246D" font-family="'Roboto-Medium'" font-size="65.2548px">1:3</text>
	</g>
	<g>
		<text transform="matrix(1 0 0 1 724.1732 392.9102)" fill="#37246D" font-family="'Roboto-Medium'" font-size="65.2548px">4:3</text>
	</g>
	<circle fill="#7581BA" cx="598.613" cy="453.809" r="17.179"/>
	<circle fill="#7581BA" cx="306.873" cy="850.474" r="17.179"/>
	<circle fill="#7581BA" cx="695.985" cy="734.464" r="17.179"/>
	<circle fill="#7581BA" cx="987.52" cy="902.433" r="17.179"/>
	<circle fill="#7581BA" cx="598.613" cy="231.047" r="17.179"/>
	<line fill="none" stroke="#AFAFAF" stroke-width="8" stroke-miterlimit="10" x1="303" y1="888" x2="303" y2="995"/>
	<line fill="none" stroke="#AFAFAF" stroke-width="8" stroke-miterlimit="10" x1="925" y1="274" x2="803" y2="274"/>
	<path fill="none" stroke="#939FD5" stroke-width="13.9832" stroke-miterlimit="10" d="M891.328,847.061
		c-56.58,57.303-135.177,92.816-222.068,92.816c-112.514,0-211.12-59.545-266.026-148.842"/>
	<circle fill="#7581BA" cx="892.271" cy="847.477" r="17.179"/>
	<circle fill="#7581BA" cx="403.235" cy="791.035" r="17.179"/>
	<path fill="none" stroke="#939FD5" stroke-width="13.9832" stroke-miterlimit="10" d="M501.242,734.819
		c-4.414-10.357-8.354-21.032-11.784-32.007c-42.403-135.663,5.22-277.955,109.144-362.483"/>
	<circle fill="#7581BA" cx="598.613" cy="342.428" r="17.179"/>
	<circle fill="#7581BA" cx="501.242" cy="734.819" r="17.179"/>
	
		<line fill="none" stroke="#37246D" stroke-width="4.6611" stroke-miterlimit="10" x1="580.051" y1="565.811" x2="617.176" y2="565.811"/>
	<line fill="none" stroke="#37246D" stroke-width="4" stroke-miterlimit="10" x1="580" y1="117" x2="617" y2="117"/>
	<g>
		<text transform="matrix(1 0 0 1 654.9564 805.0039)" fill="#37246D" font-family="'Roboto-Medium'" font-size="46.6106px">1</text>
	</g>
	<g>
		<text transform="matrix(1 0 0 1 751.9095 861.2188)" fill="#37246D" font-family="'Roboto-Medium'" font-size="46.6106px">2</text>
	</g>
	<g>
		<text transform="matrix(1 0 0 1 848.8549 917.4375)" fill="#37246D" font-family="'Roboto-Medium'" font-size="46.6106px">3</text>
	</g>
	<g>
		<text transform="matrix(1 0 0 1 945.8041 973.4375)" fill="#37246D" font-family="'Roboto-Medium'" font-size="46.6106px">4</text>
	</g>
	<g>
		<text transform="matrix(1 0 0 1 1040.2064 1030.2109)" fill="#37246D" font-family="'Roboto-Medium'" font-size="46.6106px">5</text>
	</g>
	<g>
		<text transform="matrix(1 0 0 1 520.2533 805.0039)" fill="#37246D" font-family="'Roboto-Medium'" font-size="46.6106px">1</text>
	</g>
	<g>
		<text transform="matrix(1 0 0 1 425.9818 861.2188)" fill="#37246D" font-family="'Roboto-Medium'" font-size="46.6106px">2</text>
	</g>
	<g>
		<text transform="matrix(1 0 0 1 327.2826 917.4375)" fill="#37246D" font-family="'Roboto-Medium'" font-size="46.6106px">3</text>
	</g>
	<g>
		<text transform="matrix(1 0 0 1 221.3002 973.4375)" fill="#37246D" font-family="'Roboto-Medium'" font-size="46.6106px">4</text>
	</g>
	<g>
		<text transform="matrix(1 0 0 1 121.7885 1030.2109)" fill="#37246D" font-family="'Roboto-Medium'" font-size="46.6106px">5</text>
	</g>
	<g>
		<text transform="matrix(1 0 0 1 531.0072 469.6367)" fill="#37246D" font-family="'Roboto-Medium'" font-size="46.6106px">2</text>
	</g>
	<g>
		<text transform="matrix(1 0 0 1 531.0033 359.0312)" fill="#37246D" font-family="'Roboto-Medium'" font-size="46.6106px">3</text>
	</g>
	<g>
		<text transform="matrix(1 0 0 1 531.0033 244.875)" fill="#37246D" font-family="'Roboto-Medium'" font-size="46.6106px">4</text>
	</g>
	<g>
		<text transform="matrix(1 0 0 1 531.0033 137.7188)" fill="#37246D" font-family="'Roboto-Medium'" font-size="46.6106px">5</text>
	</g>
</g>
</svg>
