<?xml version="1.0" encoding="utf-8"?>
<!-- Generator: Adobe Illustrator 19.2.0, SVG Export Plug-In . SVG Version: 6.00 Build 0)  -->
<svg version="1.1" id="Layer_1" xmlns="http://www.w3.org/2000/svg" xmlns:xlink="http://www.w3.org/1999/xlink" x="0px" y="0px"
	 width="1268px" height="558px" viewBox="0 0 1268 558" enable-background="new 0 0 1268 558" xml:space="preserve">
<g id="Layer_2">
</g>
<path fill="none" stroke="#E6DBCF" stroke-width="2" stroke-miterlimit="10" d="M175.036,362.991c0,0,814.058,341.48,990.225-87.606
	"/>
<path fill="none" stroke="#E6DBCF" stroke-width="2" stroke-miterlimit="10" d="M175.036,362.991
	c0,0,817.858,384.373,1019.358-86.914"/>
<path fill="none" stroke="#E6DBCF" stroke-width="2" stroke-miterlimit="10" d="M154.41,395.935
	c0,0,858.451,409.596,1069.117-119.858"/>
<path fill="none" stroke="#E6DBCF" stroke-width="2" stroke-miterlimit="10" d="M216.288,298.096c0,0,55.082,11.714,88.546-21.884"
	/>
<path fill="none" stroke="#E6DBCF" stroke-width="2" stroke-miterlimit="10" d="M175.036,362.991c0,0,331.481,96.434,480.444-86.914
	"/>
<path fill="none" stroke="#E6DBCF" stroke-width="2" stroke-miterlimit="10" d="M154.41,395.935
	c0,0,580.257,166.065,777.784-119.723"/>
<path fill="none" stroke="#E6DBCF" stroke-width="2" stroke-miterlimit="10" d="M113.158,460.334
	c0,0,409.689,30.807,513.189-184.623"/>
<path fill="none" stroke="#E6DBCF" stroke-width="2" stroke-miterlimit="10" d="M92.532,492.781c0,0,364.458,35.49,415.801-216.569"
	/>
<path fill="none" stroke="#E6DBCF" stroke-width="2" stroke-miterlimit="10" d="M92.532,492.781
	c0,0,714.968,154.684,912.495-216.569"/>
<path fill="none" stroke="#E6DBCF" stroke-width="2" stroke-miterlimit="10" d="M175.036,362.991
	c0,0,813.758,305.672,961.091-86.914"/>
<path fill="none" stroke="#E6DBCF" stroke-width="2" stroke-miterlimit="10" d="M133.784,427.886
	c0,0,869.577,260.783,1016.91-151.809"/>
<path fill="none" stroke="#E6DBCF" stroke-width="2" stroke-miterlimit="10" d="M109,96.683c0,0,910.994-300.177,1143.661,178.702"
	/>
<path fill="none" stroke="#E6DBCF" stroke-width="2" stroke-miterlimit="10" d="M109,96.683c0,0,859.294-279.51,1099.961,178.702"/>
<path fill="none" stroke="#E6DBCF" stroke-width="2" stroke-miterlimit="10" d="M109,96.683c0,0,832.061-266.152,1085.394,179.394"
	/>
<path fill="none" stroke="#E6DBCF" stroke-width="2" stroke-miterlimit="10" d="M1150.694,276.077
	C914.694-156.802,109,96.683,109,96.683"/>
<path fill="none" stroke="#E6DBCF" stroke-width="2" stroke-miterlimit="10" d="M109,96.683c0,0-186,164.466-16.468,396.098"/>
<path fill="none" stroke="#E6DBCF" stroke-width="2" stroke-miterlimit="10" d="M109,96.683c0,0-134,156.121,4.158,363.651"/>
<path fill="none" stroke="#E6DBCF" stroke-width="2" stroke-miterlimit="10" d="M109,96.683c0,0-99,156.702,24.784,331.203"/>
<path fill="none" stroke="#E6DBCF" stroke-width="2" stroke-miterlimit="10" d="M130,128.184c0,0-71.724,153.284,3.784,299.702"/>
<path fill="none" stroke="#E6DBCF" stroke-width="2" stroke-miterlimit="10" d="M130,128.184c0,0-45.47,127.874,45.036,234.807"/>
<path fill="none" stroke="#E6DBCF" stroke-width="2" stroke-miterlimit="10" d="M130,128.184c0,0,759.194-288.011,961.861,147.201"
	/>
<path fill="none" stroke="#E6DBCF" stroke-width="2" stroke-miterlimit="10" d="M130,128.184c0,0,716.061-261.011,918.727,147.201"
	/>
<path fill="none" stroke="#E6DBCF" stroke-width="2" stroke-miterlimit="10" d="M130,128.184c0,0,679.4-233.99,889.594,148.029"/>
<path fill="none" stroke="#E6DBCF" stroke-width="2" stroke-miterlimit="10" d="M152,160.433c0,0,626.367-248.568,823.894,115.644"
	/>
<path fill="none" stroke="#E6DBCF" stroke-width="2" stroke-miterlimit="10" d="M152,160.433c0,0,600.567-217.433,794.761,115.78"/>
<path fill="none" stroke="#E6DBCF" stroke-width="2" stroke-miterlimit="10" d="M152,160.433c0,0,576.77-189.568,765.627,115.644"/>
<path fill="none" stroke="#E6DBCF" stroke-width="2" stroke-miterlimit="10" d="M173.5,192.179c0,0,452.594-202.179,656.08,84.033"
	/>
<path fill="none" stroke="#E6DBCF" stroke-width="2" stroke-miterlimit="10" d="M173.5,192.179c0,0,455.467-180.257,612.38,83.206"
	/>
<path fill="none" stroke="#E6DBCF" stroke-width="2" stroke-miterlimit="10" d="M216.5,256.058c0,0,179.907-90.633,322.703,20.155"
	/>
<path fill="none" stroke="#E6DBCF" stroke-width="2" stroke-miterlimit="10" d="M216.5,256.058c0,0,174.709-71.75,291.833,20.155"/>
<path fill="none" stroke="#E6DBCF" stroke-width="2" stroke-miterlimit="10" d="M216.5,256.058c0,0,139-56.522,234.037,20.155"/>
<path fill="none" stroke="#E6DBCF" stroke-width="2" stroke-miterlimit="10" d="M406.203,276.213
	c-76-52.03-189.703-20.155-189.703-20.155"/>
<path fill="none" stroke="#E6DBCF" stroke-width="2" stroke-miterlimit="10" d="M216.288,298.096c0,0-15.641-26.444,0.212-42.038"/>
<line fill="none" stroke="#6C5F82" stroke-width="2" stroke-miterlimit="10" x1="230" y1="276.213" x2="1266" y2="276.213"/>
<line fill="none" stroke="#6C5F82" stroke-width="2" stroke-miterlimit="10" x1="230" y1="276.213" x2="99.438" y2="82.025"/>
<line fill="none" stroke="#6C5F82" stroke-width="2" stroke-miterlimit="10" x1="230" y1="276.213" x2="78.203" y2="515.658"/>
<g>
	<text transform="matrix(1 0 0 1 1.7779 57.2564)" fill="#B3B3B3" font-family="'RobotoCondensed-Regular'" font-size="26px">Nutritional value</text>
</g>
<g>
	<text transform="matrix(1 0 0 1 97.5078 554)" fill="#B3B3B3" font-family="'RobotoCondensed-Regular'" font-size="26px">Food</text>
</g>
<g>
	<text transform="matrix(1 0 0 1 398.2347 316)" fill="#B3B3B3" font-family="'RobotoCondensed-Regular'" font-size="26px">min</text>
</g>
<g>
	<text transform="matrix(1 0 0 1 666.5643 316)" fill="#B3B3B3" font-family="'RobotoCondensed-Regular'" font-size="26px">mid</text>
</g>
<g>
	<text transform="matrix(1 0 0 1 993.0969 316)" fill="#B3B3B3" font-family="'RobotoCondensed-Regular'" font-size="26px">max</text>
</g>
<g>
	<text transform="matrix(1 0 0 1 1215.1299 316)" fill="#B3B3B3" font-family="'RobotoCondensed-Regular'" font-size="26px">price</text>
</g>
<circle fill="#EBE0D4" stroke="#6C5F82" stroke-miterlimit="10" cx="216.5" cy="256.058" r="6.5"/>
<path fill="none" stroke="#6C5F82" stroke-width="2" stroke-miterlimit="10" d="M195,224.183c0,0-26.333,40.662,0,106.361"/>
<g>
	<path fill="none" stroke="#A3B1D6" stroke-width="2" stroke-miterlimit="10" d="M195,224.183c0,0,81.333-25.758,124,52.03"/>
	<path fill="none" stroke="#A3B1D6" stroke-width="2" stroke-miterlimit="10" d="M195,224.183c0,0,95.852-32.368,138.518,52.03"/>
	<path fill="none" stroke="#A3B1D6" stroke-width="2" stroke-miterlimit="10" d="M195,224.183c0,0,734.427-488.884,1043.094,51.202"
		/>
	<path fill="none" stroke="#A3B1D6" stroke-width="2" stroke-miterlimit="10" d="M195,224.183c0,0,654.517-403.594,868.294,51.202"
		/>
	<path fill="none" stroke="#A3B1D6" stroke-width="2" stroke-miterlimit="10" d="M195,224.183c0,0,533.967-247.485,693.494,51.894"
		/>
	<path fill="none" stroke="#A3B1D6" stroke-width="2" stroke-miterlimit="10" d="M195,224.183c0,0,403.671-171.965,547.18,51.202"/>
	<path fill="none" stroke="#A3B1D6" stroke-width="2" stroke-miterlimit="10" d="M195,224.183c0,0,373.918-142.021,488.914,52.03"/>
	<path fill="none" stroke="#A3B1D6" stroke-width="2" stroke-miterlimit="10" d="M195,224.183c0,0,311.217-107.318,401.514,51.894"
		/>
	<path fill="none" stroke="#A3B1D6" stroke-width="2" stroke-miterlimit="10" d="M195,224.183c0,0,212.285-65.497,283.667,52.03"/>
	<path fill="none" stroke="#A3B1D6" stroke-width="2" stroke-miterlimit="10" d="M435.667,276.213
		C364.333,174.054,195,224.183,195,224.183"/>
	<path fill="none" stroke="#A3B1D6" stroke-width="2" stroke-miterlimit="10" d="M195,224.183c0,0-73.84,66.888-40.59,171.256"/>
	<path fill="none" stroke="#A3B1D6" stroke-width="2" stroke-miterlimit="10" d="M195,224.183c0,0-92.804,66.888-61.216,203.703"/>
	<path fill="none" stroke="#A3B1D6" stroke-width="2" stroke-miterlimit="10" d="M195,224.183c0,0-142.958,84.34-102.468,268.598"/>
</g>
<circle fill="#A3B1D6" stroke="#6C5F82" stroke-miterlimit="10" cx="195" cy="224.183" r="13.5"/>
<path fill="none" stroke="#6C5F82" stroke-width="2" stroke-miterlimit="10" d="M195.662,330.544
	c0,0,753.632,254.323,867.632-55.159"/>
<path fill="none" stroke="#6C5F82" stroke-width="2" stroke-miterlimit="10" d="M195.662,330.544
	c0,0,647.472,184.978,765.666-54.467"/>
<path fill="none" stroke="#6C5F82" stroke-width="2" stroke-miterlimit="10" d="M195.662,330.544
	c0,0,651.272,205.727,794.799-54.331"/>
<path fill="none" stroke="#6C5F82" stroke-width="2" stroke-miterlimit="10" d="M195.662,330.544
	c0,0,574.372,146.956,707.399-54.331"/>
<path fill="none" stroke="#6C5F82" stroke-width="2" stroke-miterlimit="10" d="M195.662,330.544c0,0,423.399,76.41,590.219-55.159"
	/>
<path fill="none" stroke="#6C5F82" stroke-width="2" stroke-miterlimit="10" d="M195.662,330.544
	c0,0,461.252,102.463,633.919-54.331"/>
<path fill="none" stroke="#6C5F82" stroke-width="2" stroke-miterlimit="10" d="M195.662,330.544c0,0,229.542,35.853,356.208-54.331
	"/>
<path fill="none" stroke="#6C5F82" stroke-width="2" stroke-miterlimit="10" d="M195.662,330.544c0,0,127.672,17.505,195.672-54.331
	"/>
<path fill="none" stroke="#6C5F82" stroke-width="2" stroke-miterlimit="10" d="M195.662,330.544c0,0,88.838,11.453,152.172-54.331"
	/>
<path fill="none" stroke="#6C5F82" stroke-width="2" stroke-miterlimit="10" d="M195.662,330.544c0,0,74.099,7.433,123.338-54.331"
	/>
<path fill="none" stroke="#6C5F82" stroke-width="2" stroke-miterlimit="10" d="M195.662,330.544
	c0,0,759.332,288.393,911.332-54.467"/>
<path fill="none" stroke="#6C5F82" stroke-width="2" stroke-miterlimit="10" d="M195.662,330.544
	c0,0,781.899,334.321,925.899-54.467"/>
<ellipse transform="matrix(0.9167 -0.3997 0.3997 0.9167 -130.4868 100.2059)" fill="#EBE0D4" stroke="#6C5F82" stroke-miterlimit="10" cx="175.036" cy="362.991" rx="8.998" ry="8.998"/>
<ellipse transform="matrix(0.9167 -0.3997 0.3997 0.9167 -145.1737 94.6666)" fill="#DDD4D4" stroke="#6C5F82" stroke-miterlimit="10" cx="154.41" cy="395.439" rx="7.998" ry="7.998"/>
<ellipse transform="matrix(0.9167 -0.3997 0.3997 0.9167 -159.8606 89.1273)" fill="#C9C3D1" stroke="#6C5F82" stroke-miterlimit="10" cx="133.784" cy="427.886" rx="8.498" ry="8.498"/>
<ellipse transform="matrix(0.9167 -0.3997 0.3997 0.9167 -174.5475 83.588)" fill="#AFA7BB" stroke="#6C5F82" stroke-miterlimit="10" cx="113.158" cy="460.334" rx="7.498" ry="7.498"/>
<ellipse transform="matrix(0.9167 -0.3997 0.3997 0.9167 -189.2344 78.0487)" fill="#9C93AB" stroke="#6C5F82" stroke-miterlimit="10" cx="92.532" cy="492.781" rx="8.498" ry="8.498"/>
<ellipse transform="matrix(0.9167 -0.3997 0.3997 0.9167 -101.1129 111.2845)" fill="#F1D3B2" stroke="#6C5F82" stroke-miterlimit="10" cx="216.288" cy="298.096" rx="6.998" ry="6.998"/>
<path fill="none" stroke="#6C5F82" stroke-width="2" stroke-miterlimit="10" d="M173.214,191.754c0,0-34.714,71.222,21.786,138.79"
	/>
<path fill="none" stroke="#6C5F82" stroke-width="2" stroke-miterlimit="10" d="M152,160.433c0,0-33.422,100.716,43,170.111"/>
<path fill="none" stroke="#6C5F82" stroke-width="2" stroke-miterlimit="10" d="M130.5,128.558c0,0-37.968,127.5,64.5,201.986"/>
<path fill="none" stroke="#6C5F82" stroke-width="2" stroke-miterlimit="10" d="M109,96.683c0,0-45.947,156.121,86,233.861"/>
<circle fill="#A9C5D6" stroke="#6C5F82" stroke-miterlimit="10" cx="173.5" cy="192.308" r="8"/>
<ellipse transform="matrix(0.9167 -0.3997 0.3997 0.9167 -115.7998 105.7452)" fill="#F5B45F" stroke="#6C5F82" stroke-miterlimit="10" cx="195.662" cy="330.544" rx="14.996" ry="14.996"/>
<circle fill="#F3D0AA" stroke="#6C5F82" stroke-miterlimit="10" cx="260.537" cy="276.213" r="6.5"/>
<circle fill="#F3D0AA" stroke="#6C5F82" stroke-miterlimit="10" cx="275.103" cy="276.213" r="6.5"/>
<circle fill="#F3D0AA" stroke="#6C5F82" stroke-miterlimit="10" cx="289.67" cy="276.213" r="6.5"/>
<circle fill="#F3D0AA" stroke="#6C5F82" stroke-miterlimit="10" cx="304.237" cy="276.213" r="6.5"/>
<circle fill="#F3D0AA" stroke="#6C5F82" stroke-miterlimit="10" cx="318.803" cy="276.213" r="7"/>
<circle fill="#F3D0AA" stroke="#6C5F82" stroke-miterlimit="10" cx="333.37" cy="276.213" r="6.5"/>
<circle fill="#F3D0AA" stroke="#6C5F82" stroke-miterlimit="10" cx="347.937" cy="276.213" r="6.5"/>
<circle fill="#F3D0AA" stroke="#6C5F82" stroke-miterlimit="10" cx="362.503" cy="276.213" r="6.5"/>
<circle fill="#F3D0AA" stroke="#6C5F82" stroke-miterlimit="10" cx="377.07" cy="276.213" r="6.5"/>
<circle fill="#F3D0AA" stroke="#6C5F82" stroke-miterlimit="10" cx="391.637" cy="276.213" r="6.5"/>
<circle fill="#F3D0AA" stroke="#6C5F82" stroke-miterlimit="10" cx="406.203" cy="276.213" r="6.5"/>
<circle fill="#F3D0AA" stroke="#6C5F82" stroke-miterlimit="10" cx="420.77" cy="276.213" r="6.5"/>
<circle fill="#F3D0AA" stroke="#6C5F82" stroke-miterlimit="10" cx="435.337" cy="276.213" r="6.5"/>
<circle fill="#F3D0AA" stroke="#6C5F82" stroke-miterlimit="10" cx="449.903" cy="276.213" r="6.5"/>
<circle fill="#F3D0AA" stroke="#6C5F82" stroke-miterlimit="10" cx="464.47" cy="276.213" r="6.5"/>
<circle fill="#F3D0AA" stroke="#6C5F82" stroke-miterlimit="10" cx="479.037" cy="276.213" r="6.5"/>
<circle fill="#F3D0AA" stroke="#6C5F82" stroke-miterlimit="10" cx="493.603" cy="276.213" r="6.5"/>
<circle fill="#F3D0AA" stroke="#6C5F82" stroke-miterlimit="10" cx="508.17" cy="276.213" r="7"/>
<circle fill="#F3D0AA" stroke="#6C5F82" stroke-miterlimit="10" cx="522.737" cy="276.213" r="6.5"/>
<circle fill="#F3D0AA" stroke="#6C5F82" stroke-miterlimit="10" cx="537.303" cy="276.213" r="6.5"/>
<circle fill="#F3D0AA" stroke="#6C5F82" stroke-miterlimit="10" cx="551.87" cy="276.213" r="6.5"/>
<circle fill="#F3D0AA" stroke="#6C5F82" stroke-miterlimit="10" cx="552.38" cy="276.213" r="6.5"/>
<circle fill="#F3D0AA" stroke="#6C5F82" stroke-miterlimit="10" cx="566.947" cy="276.213" r="6.5"/>
<circle fill="#F3D0AA" stroke="#6C5F82" stroke-miterlimit="10" cx="581.514" cy="276.213" r="6.5"/>
<circle fill="#DFDAE3" stroke="#6C5F82" stroke-miterlimit="10" cx="596.514" cy="276.077" r="6.5"/>
<circle fill="#DFDAE3" stroke="#6C5F82" stroke-miterlimit="10" cx="611.08" cy="276.077" r="6.5"/>
<circle fill="#DFDAE3" stroke="#6C5F82" stroke-miterlimit="10" cx="625.647" cy="276.077" r="6.5"/>
<circle fill="#DFDAE3" stroke="#6C5F82" stroke-miterlimit="10" cx="640.214" cy="276.077" r="6.5"/>
<circle fill="#DFDAE3" stroke="#6C5F82" stroke-miterlimit="10" cx="654.78" cy="276.077" r="6.5"/>
<circle fill="#DFDAE3" stroke="#6C5F82" stroke-miterlimit="10" cx="669.347" cy="276.077" r="6.5"/>
<circle fill="#DFDAE3" stroke="#6C5F82" stroke-miterlimit="10" cx="683.914" cy="276.077" r="6.5"/>
<circle fill="#DFDAE3" stroke="#6C5F82" stroke-miterlimit="10" cx="698.48" cy="276.077" r="6.5"/>
<circle fill="#DFDAE3" stroke="#6C5F82" stroke-miterlimit="10" cx="713.047" cy="276.077" r="6.5"/>
<circle fill="#DFDAE3" stroke="#6C5F82" stroke-miterlimit="10" cx="727.614" cy="276.077" r="6.5"/>
<circle fill="#DFDAE3" stroke="#6C5F82" stroke-miterlimit="10" cx="742.18" cy="276.077" r="6.5"/>
<circle fill="#DFDAE3" stroke="#6C5F82" stroke-miterlimit="10" cx="756.747" cy="276.077" r="6.5"/>
<circle fill="#DFDAE3" stroke="#6C5F82" stroke-miterlimit="10" cx="771.314" cy="276.077" r="6.5"/>
<circle fill="#DFDAE3" stroke="#6C5F82" stroke-miterlimit="10" cx="785.88" cy="276.077" r="7"/>
<circle fill="#DFDAE3" stroke="#6C5F82" stroke-miterlimit="10" cx="800.447" cy="276.077" r="6.5"/>
<circle fill="#DFDAE3" stroke="#6C5F82" stroke-miterlimit="10" cx="815.014" cy="276.077" r="6.5"/>
<circle fill="#DFDAE3" stroke="#6C5F82" stroke-miterlimit="10" cx="829.58" cy="276.077" r="7"/>
<circle fill="#A3B1D6" stroke="#6C5F82" stroke-miterlimit="10" cx="888.494" cy="276.077" r="6.5"/>
<circle fill="#A3B1D6" stroke="#6C5F82" stroke-miterlimit="10" cx="903.061" cy="276.077" r="6.5"/>
<circle fill="#A3B1D6" stroke="#6C5F82" stroke-miterlimit="10" cx="917.627" cy="276.077" r="6.5"/>
<circle fill="#A3B1D6" stroke="#6C5F82" stroke-miterlimit="10" cx="859.287" cy="276.077" r="6.5"/>
<circle fill="#A3B1D6" stroke="#6C5F82" stroke-miterlimit="10" cx="844.684" cy="276.077" r="6.5"/>
<circle fill="#A3B1D6" stroke="#6C5F82" stroke-miterlimit="10" cx="873.854" cy="276.077" r="6.5"/>
<circle fill="#A3B1D6" stroke="#6C5F82" stroke-miterlimit="10" cx="932.194" cy="276.077" r="6.5"/>
<circle fill="#A3B1D6" stroke="#6C5F82" stroke-miterlimit="10" cx="946.761" cy="276.077" r="6.5"/>
<circle fill="#A3B1D6" stroke="#6C5F82" stroke-miterlimit="10" cx="961.327" cy="276.077" r="6.5"/>
<circle fill="#A3B1D6" stroke="#6C5F82" stroke-miterlimit="10" cx="975.894" cy="276.077" r="6.5"/>
<circle fill="#A3B1D6" stroke="#6C5F82" stroke-miterlimit="10" cx="990.461" cy="276.077" r="6.5"/>
<circle fill="#A3B1D6" stroke="#6C5F82" stroke-miterlimit="10" cx="1005.027" cy="276.077" r="6.5"/>
<circle fill="#A3B1D6" stroke="#6C5F82" stroke-miterlimit="10" cx="1019.594" cy="276.077" r="6.5"/>
<circle fill="#A3B1D6" stroke="#6C5F82" stroke-miterlimit="10" cx="1034.161" cy="276.077" r="6.5"/>
<circle fill="#A3B1D6" stroke="#6C5F82" stroke-miterlimit="10" cx="1048.727" cy="276.077" r="6.5"/>
<circle fill="#A3B1D6" stroke="#6C5F82" stroke-miterlimit="10" cx="1063.294" cy="276.077" r="7"/>
<circle fill="#A3B1D6" stroke="#6C5F82" stroke-miterlimit="10" cx="1077.861" cy="276.077" r="6.5"/>
<circle fill="#A3B1D6" stroke="#6C5F82" stroke-miterlimit="10" cx="1092.427" cy="276.077" r="6.5"/>
<circle fill="#A3B1D6" stroke="#6C5F82" stroke-miterlimit="10" cx="1106.994" cy="276.077" r="6.5"/>
<circle fill="#A3B1D6" stroke="#6C5F82" stroke-miterlimit="10" cx="1121.561" cy="276.077" r="6.5"/>
<circle fill="#A3B1D6" stroke="#6C5F82" stroke-miterlimit="10" cx="1136.127" cy="276.077" r="6.5"/>
<circle fill="#A3B1D6" stroke="#6C5F82" stroke-miterlimit="10" cx="1150.694" cy="276.077" r="7"/>
<circle fill="#A3B1D6" stroke="#6C5F82" stroke-miterlimit="10" cx="1165.261" cy="276.077" r="6.5"/>
<circle fill="#A3B1D6" stroke="#6C5F82" stroke-miterlimit="10" cx="1179.827" cy="276.077" r="6.5"/>
<circle fill="#A3B1D6" stroke="#6C5F82" stroke-miterlimit="10" cx="1194.394" cy="276.077" r="7"/>
<circle fill="#A3B1D6" stroke="#6C5F82" stroke-miterlimit="10" cx="1208.961" cy="276.077" r="6.5"/>
<circle fill="#A3B1D6" stroke="#6C5F82" stroke-miterlimit="10" cx="1223.527" cy="276.077" r="6.5"/>
<circle fill="#A3B1D6" stroke="#6C5F82" stroke-miterlimit="10" cx="1238.094" cy="276.077" r="6.5"/>
<circle fill="#A3B1D6" stroke="#6C5F82" stroke-miterlimit="10" cx="1252.661" cy="276.077" r="6.5"/>
<circle fill="#9C96AD" stroke="#6C5F82" stroke-miterlimit="10" cx="152" cy="160.433" r="8.5"/>
<circle fill="#C4C4C4" stroke="#6C5F82" stroke-miterlimit="10" cx="130.5" cy="128.558" r="9.5"/>
<circle fill="#EBE0D4" stroke="#6C5F82" stroke-miterlimit="10" cx="109" cy="96.683" r="10.5"/>
</svg>
