<?xml version="1.0" encoding="utf-8"?>
<!-- Generator: Adobe Illustrator 22.1.0, SVG Export Plug-In . SVG Version: 6.00 Build 0)  -->
<svg version="1.1" xmlns="http://www.w3.org/2000/svg" xmlns:xlink="http://www.w3.org/1999/xlink" x="0px" y="0px"
	 viewBox="0 0 1268 418" enable-background="new 0 0 1268 418" xml:space="preserve">
<g id="Layer_1">
	<path fill="none" stroke="#E6DBCF" stroke-width="2" stroke-miterlimit="10" d="M178,303.6c0,0,784.1,297.9,970.6-82.8"/>
	<path fill="none" stroke="#E6DBCF" stroke-width="2" stroke-miterlimit="10" d="M217.3,241.8c0,0,48.5,15.1,84.3-20.8"/>
	<path fill="none" stroke="#E6DBCF" stroke-width="2" stroke-miterlimit="10" d="M178,303.6c0,0,346.8,97.9,457.5-82.8"/>
	<path fill="none" stroke="#E6DBCF" stroke-width="2" stroke-miterlimit="10" d="M158.3,335c0,0,601.3,146,740.6-114"/>
	<path fill="none" stroke="#E6DBCF" stroke-width="2" stroke-miterlimit="10" d="M178,303.6c0,0,776.5,254.6,915.2-82.8"/>
	<path fill="none" stroke="#E6DBCF" stroke-width="2" stroke-miterlimit="10" d="M138.7,365.4c0,0,871.2,182.3,968.3-144.6"/>
	<path fill="none" stroke="#E6DBCF" stroke-width="2" stroke-miterlimit="10" d="M135.1,80.1c0,0-116.1,134.3,3.6,285.4"/>
	<path fill="none" stroke="#E6DBCF" stroke-width="2" stroke-miterlimit="10" d="M135.1,80.1c0,0-64.4,122.9,42.9,223.6"/>
	<path fill="none" stroke="#E6DBCF" stroke-width="2" stroke-miterlimit="10" d="M135.1,80.1c0,0,728.4-244.6,915.9,140.2"/>
	<path fill="none" stroke="#E6DBCF" stroke-width="2" stroke-miterlimit="10" d="M135.1,80.1c0,0,689.2-221.8,874.8,140.2"/>
	<path fill="none" stroke="#E6DBCF" stroke-width="2" stroke-miterlimit="10" d="M135.1,80.1c0,0,663.8-203.4,847.1,141"/>
	<path fill="none" stroke="#E6DBCF" stroke-width="2" stroke-miterlimit="10" d="M156,110.8c0,0,603.6-241.8,784.5,110.1"/>
	<path fill="none" stroke="#E6DBCF" stroke-width="2" stroke-miterlimit="10" d="M156,110.8c0,0,586-207,756.8,110.2"/>
	<path fill="none" stroke="#E6DBCF" stroke-width="2" stroke-miterlimit="10" d="M156,110.8c0,0,565.4-180.7,729,110.1"/>
	<path fill="none" stroke="#E6DBCF" stroke-width="2" stroke-miterlimit="10" d="M176.5,141c0,0,436.7-192.5,624.7,80"/>
	<path fill="none" stroke="#E6DBCF" stroke-width="2" stroke-miterlimit="10" d="M176.5,141c0,0,433.7-171.6,583.1,79.2"/>
	<path fill="none" stroke="#E6DBCF" stroke-width="2" stroke-miterlimit="10" d="M217.5,201.8c0,0,171.3-86.3,307.3,19.2"/>
	<path fill="none" stroke="#E6DBCF" stroke-width="2" stroke-miterlimit="10" d="M217.5,201.8c0,0,166.4-68.3,277.9,19.2"/>
	<path fill="none" stroke="#E6DBCF" stroke-width="2" stroke-miterlimit="10" d="M217.5,201.8c0,0,132.4-53.8,222.9,19.2"/>
	<path fill="none" stroke="#E6DBCF" stroke-width="2" stroke-miterlimit="10" d="M398.1,221c-72.4-49.5-180.6-19.2-180.6-19.2"/>
	<path fill="none" stroke="#E6DBCF" stroke-width="2" stroke-miterlimit="10" d="M217.3,241.8c0,0-14.9-25.2,0.2-40"/>
	<line fill="none" stroke="#C4C4C4" stroke-miterlimit="10" x1="230.3" y1="221" x2="1243" y2="221"/>
	<line fill="none" stroke="#C4C4C4" stroke-miterlimit="10" x1="230.3" y1="221" x2="106" y2="36.1"/>
	<line fill="none" stroke="#C4C4C4" stroke-miterlimit="10" x1="230.3" y1="221" x2="113.2" y2="405.8"/>
	<text transform="matrix(1 0 0 1 375.2502 260.5796)" fill="#D1CDC9" font-family="'RobotoCondensed-Regular'" font-size="26px">min</text>
	<text transform="matrix(1 0 0 1 639.0798 260.5796)" fill="#D1CDC9" font-family="'RobotoCondensed-Regular'" font-size="26px">mid</text>
	<text transform="matrix(1 0 0 1 942.613 260.5796)" fill="#D1CDC9" font-family="'RobotoCondensed-Regular'" font-size="26px">max</text>
	<circle fill="#756686" cx="217.5" cy="201.8" r="10"/>
	<g>
		<path fill="none" stroke="#C6BFCF" stroke-width="2" stroke-miterlimit="10" d="M197,171.5c0,0,85.5-23.5,118.1,49.5"/>
		<path fill="none" stroke="#C6BFCF" stroke-width="2" stroke-miterlimit="10" d="M197,171.5c0,0,97.3-32.6,131.9,49.5"/>
		<path fill="none" stroke="#C6BFCF" stroke-width="2" stroke-miterlimit="10" d="M197,171.5c0,0,709.1-406.5,993.2,48.8"/>
		<path fill="none" stroke="#C6BFCF" stroke-width="2" stroke-miterlimit="10" d="M197,171.5c0,0,639.4-349.9,826.8,48.8"/>
		<path fill="none" stroke="#C6BFCF" stroke-width="2" stroke-miterlimit="10" d="M197,171.5c0,0,508.4-235.7,660.4,49.4"/>
		<path fill="none" stroke="#C6BFCF" stroke-width="2" stroke-miterlimit="10" d="M197,171.5c0,0,384.4-163.7,521,48.8"/>
		<path fill="none" stroke="#C6BFCF" stroke-width="2" stroke-miterlimit="10" d="M197,171.5c0,0,356-135.2,465.5,49.5"/>
		<path fill="none" stroke="#C6BFCF" stroke-width="2" stroke-miterlimit="10" d="M197,171.5c0,0,296.3-102.2,382.3,49.4"/>
		<path fill="none" stroke="#C6BFCF" stroke-width="2" stroke-miterlimit="10" d="M197,171.5c0,0,202.1-62.4,270.1,49.5"/>
		<path fill="none" stroke="#C6BFCF" stroke-width="2" stroke-miterlimit="10" d="M426.2,221C358.2,123.7,197,171.5,197,171.5"/>
		<path fill="none" stroke="#C6BFCF" stroke-width="2" stroke-miterlimit="10" d="M197,171.5c0,0-82,60.9-38.7,163.1"/>
		<path fill="none" stroke="#C6BFCF" stroke-width="2" stroke-miterlimit="10" d="M197,171.5c0,0-122,60.9-58.3,194"/>
	</g>
	<circle fill="#A4A6B8" cx="178" cy="303.6" r="8.5"/>
	<circle fill="#BEBFCB" cx="158.3" cy="334.5" r="5.5"/>
	<circle fill="#C6C7D4" cx="138.7" cy="365.4" r="7"/>
	<circle fill="#717291" cx="217.3" cy="241.8" r="6.7"/>
	<g>
		<path fill="none" stroke="#8B8CA4" stroke-width="2" stroke-miterlimit="10" d="M197,171.5c0,0-25.1,38.7,0,101.3"/>
		<path fill="none" stroke="#8B8CA4" stroke-width="2" stroke-miterlimit="10" d="M197.6,272.7c0,0,717.6,242.2,826.2-52.5"/>
		<path fill="none" stroke="#8B8CA4" stroke-width="2" stroke-miterlimit="10" d="M197.6,272.7c0,0,616.5,176.1,729.1-51.9"/>
		<path fill="none" stroke="#8B8CA4" stroke-width="2" stroke-miterlimit="10" d="M197.6,272.7c0,0,546.9,139.9,673.6-51.7"/>
		<path fill="none" stroke="#8B8CA4" stroke-width="2" stroke-miterlimit="10" d="M197.6,272.7c0,0,403.2,72.8,562-52.5"/>
		<path fill="none" stroke="#8B8CA4" stroke-width="2" stroke-miterlimit="10" d="M197.6,272.7c0,0,439.2,97.6,603.6-51.7"/>
		<path fill="none" stroke="#8B8CA4" stroke-width="2" stroke-miterlimit="10" d="M197.6,272.7c0,0,253.4,41.5,339.2-51.7"/>
		<path fill="none" stroke="#8B8CA4" stroke-width="2" stroke-miterlimit="10" d="M197.6,272.7c0,0,153.7,21,186.3-51.7"/>
		<path fill="none" stroke="#8B8CA4" stroke-width="2" stroke-miterlimit="10" d="M197.6,272.7c0,0,117.4,12.6,144.9-51.7"/>
		<path fill="none" stroke="#8B8CA4" stroke-width="2" stroke-miterlimit="10" d="M197.6,272.7c0,0,90.7,11.8,117.4-51.7"/>
		<path fill="none" stroke="#8B8CA4" stroke-width="2" stroke-miterlimit="10" d="M197.6,272.7c0,0,723,274.6,867.8-51.9"/>
		<path fill="none" stroke="#8B8CA4" stroke-width="2" stroke-miterlimit="10" d="M176.2,140.6c0,0-36.4,64.5,20.7,132.2"/>
		<path fill="none" stroke="#8B8CA4" stroke-width="2" stroke-miterlimit="10" d="M156,110.8c0,0-40.1,94.3,40.9,162"/>
		<path fill="none" stroke="#8B8CA4" stroke-width="2" stroke-miterlimit="10" d="M135.6,80.4c0,0-47.2,121.4,61.4,192.3"/>
	</g>
	<circle fill="#BEAFB6" cx="176.5" cy="141.1" r="7"/>
	<circle fill="#8B8CA4" cx="197.6" cy="272.7" r="23.5"/>
	<circle fill="#C6BFCF" cx="301" cy="221" r="4"/>
	<circle fill="#C6BFCF" cx="314.9" cy="221" r="5.5"/>
	<circle fill="#C6BFCF" cx="328.8" cy="221" r="4"/>
	<circle fill="#C6BFCF" cx="342.6" cy="221" r="4"/>
	<circle fill="#C6BFCF" cx="384.2" cy="221" r="4"/>
	<circle fill="#C6BFCF" cx="398.1" cy="221" r="4"/>
	<circle fill="#C6BFCF" cx="425.8" cy="221" r="4"/>
	<circle fill="#C6BFCF" cx="439.7" cy="221" r="4"/>
	<circle fill="#C6BFCF" cx="467.5" cy="221" r="4"/>
	<circle fill="#C6BFCF" cx="495.2" cy="221" r="4"/>
	<circle fill="#C6BFCF" cx="522.9" cy="221" r="4"/>
	<circle fill="#C6BFCF" cx="536.8" cy="221" r="4"/>
	<circle fill="#968BAF" cx="579.3" cy="220.9" r="4"/>
	<circle fill="#968BAF" cx="634.8" cy="220.9" r="4"/>
	<circle fill="#968BAF" cx="662.5" cy="220.9" r="4"/>
	<circle fill="#968BAF" cx="718" cy="220.9" r="4"/>
	<circle fill="#968BAF" cx="801.2" cy="220.9" r="5.5"/>
	<circle fill="#7E729E" cx="857.3" cy="220.9" r="4"/>
	<circle fill="#7E729E" cx="871.2" cy="220.9" r="4"/>
	<circle fill="#7E729E" cx="885.1" cy="220.9" r="4"/>
	<circle fill="#7E729E" cx="899" cy="220.9" r="4"/>
	<circle fill="#7E729E" cx="912.8" cy="220.9" r="4"/>
	<circle fill="#7E729E" cx="926.7" cy="220.9" r="4"/>
	<circle fill="#7E729E" cx="940.6" cy="220.9" r="4"/>
	<circle fill="#7E729E" cx="982.2" cy="220.9" r="4"/>
	<circle fill="#7E729E" cx="1009.9" cy="220.9" r="4"/>
	<circle fill="#7E729E" cx="1023.8" cy="220.9" r="5.5"/>
	<circle fill="#7E729E" cx="1051.5" cy="220.9" r="4"/>
	<circle fill="#7E729E" cx="1065.4" cy="220.9" r="4"/>
	<circle fill="#7E729E" cx="1093.1" cy="220.9" r="4"/>
	<circle fill="#7E729E" cx="1107" cy="220.9" r="4"/>
	<circle fill="#7E729E" cx="1148.6" cy="220.9" r="4"/>
	<circle fill="#7E729E" cx="1189" cy="220.7" r="4"/>
	<circle fill="#D7C8C5" cx="156" cy="110.8" r="8.5"/>
	<circle fill="#D8BBB8" cx="135.6" cy="80.4" r="11.5"/>
	<circle fill="#A697A6" cx="197" cy="171.5" r="20.5"/>
	<circle fill="#968BAF" cx="759.6" cy="220.9" r="5.5"/>
</g>
<g id="Layer_2">
</g>
<g id="Layer_3">
</g>
</svg>
