<svg enable-background="new 0 0 256 254" height="254" viewBox="0 0 256 254" width="256" xmlns="http://www.w3.org/2000/svg"><path d="m254 36.438-6.01-10.41-24.934 14.395c-18.077-23.893-46.257-38.016-76.388-38.016-7.371 0-14.615.864-21.615 2.503-6.848-1.64-13.883-2.503-20.999-2.503-32.009 0-55.604 12.039-75.983 38.898l-21.062-12.16-5.009 8.675 21.279 12.285c-11.481 31.136-8.483 61.663 8.622 86.402 18.88 27.306 52.812 44.894 87.846 45.979v69.107h12.021v-32.24c61.155-2.886 110.021-53.54 110.021-115.397 0-18.531-4.434-36.714-12.873-53.036zm-122.232 70.571 53.363-30.809c-3.019 29.192-24.591 52.971-53.363 58.732zm-6.969-9.857-56.912-32.859c10.53-24.435 31.93-42.412 57.155-49.052 24.167 6.524 45.532 24.016 57.92 48.331zm-60.888-23.588 55.836 32.237v65.928c-33.419-5.504-60.479-36.637-60.479-71.246.001-9.933 1.576-18.951 4.643-26.919zm67.857 134.91v-63.369c31.974-5.547 56.613-30.321 62.436-61.646 5.568 11.777 8.48 24.65 8.48 37.928.001 42.541-29.991 78.704-70.916 87.087zm14.9-196.05c26.56 0 51.426 12.255 67.64 33.05l-22.663 13.084c-10.547-20.458-26.919-36.502-46.062-46.113.362-.004.722-.021 1.085-.021zm-42.614 0c.05 0 .099.003.149.003-19.678 9.783-35.841 26.2-45.038 46.83l-22.348-12.902c18.317-23.72 38.69-33.931 67.237-33.931zm-63.913 118.387c-10.683-15.451-20.365-40.853-8.052-75.619l23.032 13.298c-3.896 9.482-5.869 20.22-5.869 31.994 0 19.931 8.066 40.166 22.129 55.518 1.792 1.956 3.658 3.811 5.59 5.567-14.935-7.296-27.936-17.895-36.83-30.758zm191.631-26.855c0 38.337-20.554 71.961-51.219 90.439 19.843-18.18 32.148-44.283 32.148-73.009 0-18.718-5.192-36.719-15.035-52.424l22.565-13.028c7.568 14.797 11.541 31.252 11.541 48.022z"/></svg>