<?xml version="1.0" encoding="utf-8"?>
<!-- Generator: Adobe Illustrator 22.1.0, SVG Export Plug-In . SVG Version: 6.00 Build 0)  -->
<svg version="1.1" xmlns="http://www.w3.org/2000/svg" xmlns:xlink="http://www.w3.org/1999/xlink" x="0px" y="0px"
	 viewBox="0 0 1268 418" enable-background="new 0 0 1268 418" xml:space="preserve">
<g id="Layer_1">
	<line fill="none" stroke="#B3B3B3" stroke-miterlimit="10" x1="888.8" y1="80.5" x2="601.7" y2="80.5"/>
	<circle fill="#F3D0AA" cx="888.8" cy="80.5" r="3"/>
	<line fill="none" stroke="#B3B3B3" stroke-miterlimit="10" x1="889" y1="192.5" x2="672.8" y2="192.5"/>
	<circle fill="#DCBFAB" cx="888.8" cy="192.5" r="3"/>
	<line fill="none" stroke="#B3B3B3" stroke-miterlimit="10" x1="888.8" y1="256.5" x2="713.4" y2="256.5"/>
	<circle fill="#C4AEAD" cx="888.8" cy="256.5" r="3"/>
	<line fill="none" stroke="#B3B3B3" stroke-miterlimit="10" x1="888.8" y1="321.5" x2="753" y2="321.5"/>
	<circle fill="#AD9CAE" cx="888.8" cy="322.1" r="3"/>
	<line fill="none" stroke="#B3B3B3" stroke-miterlimit="10" x1="888.8" y1="385.4" x2="794" y2="385.4"/>
	<circle fill="#968BAF" cx="888.8" cy="385.4" r="3"/>
	<polygon fill="#C4AEAD" points="329.3,287 691.1,287 652.4,226 368,226 	"/>
	<polygon fill="#AD9CAE" points="288,352 732.4,352 693,290 327.4,290 	"/>
	<polygon fill="#968BAF" points="247.4,416 767.3,416 773,416 734.3,355 286.1,355 	"/>
	<polygon fill="#F3D0AA" points="510.2,2 410.5,159 609.9,159 	"/>
	<polygon fill="#DCBFAB" points="408.6,162 369.9,223 650.5,223 611.8,162 	"/>
	
		<rect x="996" y="372.1" transform="matrix(-1 -4.486867e-11 4.486867e-11 -1 2018.985 754)" fill="#EBE5E1" width="27" height="9.9"/>
	
		<rect x="911" y="372.1" transform="matrix(-1 -4.489088e-11 4.489088e-11 -1 1898.8674 754)" fill="#EBE5E1" width="76.9" height="9.9"/>
	
		<rect x="911" y="390.1" transform="matrix(-1 -4.489310e-11 4.489310e-11 -1 1887.9839 790.0219)" fill="#EBE5E1" width="66" height="9.9"/>
	
		<rect x="984.9" y="390.1" transform="matrix(-1 -4.489488e-11 4.489488e-11 -1 2022.8674 790.0219)" fill="#EBE5E1" width="53.1" height="9.9"/>
	
		<rect x="966" y="308.1" transform="matrix(-1 -4.488999e-11 4.488999e-11 -1 2001.985 626)" fill="#EBE5E1" width="70" height="9.9"/>
	
		<rect x="911" y="308.1" transform="matrix(-1 -4.488555e-11 4.488555e-11 -1 1868.8674 626)" fill="#EBE5E1" width="46.9" height="9.9"/>
	
		<rect x="911" y="326.1" transform="matrix(-1 -4.490287e-11 4.490287e-11 -1 1877.9839 662.0219)" fill="#EBE5E1" width="56" height="9.9"/>
	
		<rect x="974.9" y="326.1" transform="matrix(-1 -4.489887e-11 4.489887e-11 -1 1985.8674 662.0219)" fill="#EBE5E1" width="36.1" height="9.9"/>
	
		<rect x="996" y="178.1" transform="matrix(-1 -4.486867e-11 4.486867e-11 -1 2018.985 366)" fill="#EBE5E1" width="27" height="9.9"/>
	
		<rect x="911" y="178.1" transform="matrix(-1 -4.489088e-11 4.489088e-11 -1 1898.8674 366)" fill="#EBE5E1" width="76.9" height="9.9"/>
	
		<rect x="911" y="196.1" transform="matrix(-1 -4.489310e-11 4.489310e-11 -1 1887.9839 402.0219)" fill="#EBE5E1" width="66" height="9.9"/>
	
		<rect x="984.9" y="196.1" transform="matrix(-1 -4.489488e-11 4.489488e-11 -1 2022.8674 402.0219)" fill="#EBE5E1" width="53.1" height="9.9"/>
	
		<rect x="966" y="66.1" transform="matrix(-1 -4.488999e-11 4.488999e-11 -1 2001.985 142)" fill="#EBE5E1" width="70" height="9.9"/>
	
		<rect x="911" y="66.1" transform="matrix(-1 -4.488555e-11 4.488555e-11 -1 1868.8674 142)" fill="#EBE5E1" width="46.9" height="9.9"/>
	
		<rect x="911" y="84.1" transform="matrix(-1 -4.489488e-11 4.489488e-11 -1 1917.9839 178.0219)" fill="#EBE5E1" width="96" height="9.9"/>
	
		<rect x="911" y="243.1" transform="matrix(-1 -4.488466e-11 4.488466e-11 -1 1908.8674 496)" fill="#EBE5E1" width="86.9" height="9.9"/>
	
		<rect x="911" y="261.1" transform="matrix(-1 -4.490287e-11 4.490287e-11 -1 1877.9839 532.0219)" fill="#EBE5E1" width="56" height="9.9"/>
	
		<rect x="974.9" y="261.1" transform="matrix(-1 -4.489354e-11 4.489354e-11 -1 2005.8674 532.0219)" fill="#EBE5E1" width="56.1" height="9.9"/>
</g>
<g id="Layer_2">
</g>
<g id="Layer_3">
</g>
</svg>
