<svg height="252" viewBox="0 0 252 252" width="252" xmlns="http://www.w3.org/2000/svg"><g transform="translate(-1.7 -1.7)"><path d="m238.3 241.9v-94.7h-40.5v94.7h-16v-57.8h-40.3v57.8h-15.8v-44.3h-40.3v44.3h-15.8v-74.6h-40.3v74.6h-15.8v-240.2h-11.8v252h252v-11.8z"/><path d="m29.4 84.7h40.2v79.1h-40.2zm55.8-14.9h40.3v124.2h-40.3zm56.4 31.6h40.2v79.2h-40.2zm56.3-24h40.3v65.8h-40.3z" opacity=".5"/><path d="m29.4 2.1h40.3v79h-40.3zm55.8.2h40.3v63.9h-40.3zm56.4.2h40.3v95.3h-40.3zm56.4.3h40.3v71h-40.3z" opacity=".75"/></g></svg>