<?xml version="1.0" encoding="utf-8"?>
<!-- Generator: Adobe Illustrator 19.2.0, SVG Export Plug-In . SVG Version: 6.00 Build 0)  -->
<svg version="1.1" id="Layer_1" xmlns="http://www.w3.org/2000/svg" xmlns:xlink="http://www.w3.org/1999/xlink" x="0px" y="0px"
	 width="1200px" height="1200px" viewBox="0 0 1200 1200" enable-background="new 0 0 1200 1200" xml:space="preserve">
<g>
	<g>
		<g>
			<path fill="none" stroke="#AFAFAF" stroke-width="9.3333" stroke-miterlimit="10" d="M565.663,469.491
				c10.961-2.877,22.468-4.404,34.337-4.404c26.631,0,51.471,7.731,72.392,21.065"/>
			<g>
				<polygon fill="#AFAFAF" points="578.82,487.577 537.56,480.394 564.407,448.25 				"/>
			</g>
			<g>
				<polygon fill="#AFAFAF" points="654.367,499.347 695.853,505.08 680.08,466.284 				"/>
			</g>
		</g>
	</g>
	<polyline fill="none" stroke="#7581BA" stroke-width="14" stroke-miterlimit="10" points="416.407,248.3 600,600 740.949,460.486 	
		"/>
	<polyline fill="none" stroke="#7581BA" stroke-width="14" stroke-miterlimit="10" points="154.317,205.359 508.222,424.15 
		519.272,211.561 	"/>
	<line fill="none" stroke="#7581BA" stroke-width="14" stroke-miterlimit="10" x1="327" y1="312.125" x2="232.609" y2="131.943"/>
	<circle fill="none" stroke="#C9C9C9" stroke-width="6" stroke-miterlimit="10" cx="600" cy="600" r="593"/>
	<circle fill="none" stroke="#C9C9C9" stroke-width="6" stroke-miterlimit="10" cx="600" cy="600" r="396.667"/>
	<circle fill="none" stroke="#C9C9C9" stroke-width="6" stroke-miterlimit="10" cx="600" cy="600" r="198.333"/>
	<g>
		<text transform="matrix(1 0 0 1 668.4438 612.8779)" fill="#7F7F7F" font-family="'Roboto-Regular'" font-size="65px">level 0</text>
	</g>
	<g>
		<text transform="matrix(1 0 0 1 386.1118 692.5557)" fill="#7F7F7F" font-family="'Roboto-Regular'" font-size="65px">level 1</text>
	</g>
	<g>
		<text transform="matrix(1 0 0 1 470.1123 584.8789)" fill="#37246D" font-family="'Roboto-Medium'" font-size="46.6667px">r</text>
	</g>
	<g>
		<text transform="matrix(1 0 0 1 611.5845 445.998)" fill="#37246D" font-family="'Roboto-Medium'" font-size="46.6667px">α</text>
	</g>
	<g>
		<text transform="matrix(1 0 0 1 557.999 917.3291)" fill="#37246D" font-family="'Roboto-Medium'" font-size="46.6667px">r*2</text>
	</g>
	<g>
		<text transform="matrix(1 0 0 1 945.0571 932.8867)" fill="#37246D" font-family="'Roboto-Medium'" font-size="46.6667px">r*3</text>
	</g>
	<g>
		<text transform="matrix(1 0 0 1 224.1396 854.5264)" fill="#7F7F7F" font-family="'Roboto-Regular'" font-size="65px">level 2</text>
	</g>
	<g>
		<text transform="matrix(1 0 0 1 66.6387 1012.0293)" fill="#7F7F7F" font-family="'Roboto-Regular'" font-size="65px">level 3</text>
	</g>
	<g>
		<g>
			<line fill="none" stroke="#AFAFAF" stroke-width="9.3333" stroke-miterlimit="10" x1="555.86" y1="600" x2="431.807" y2="600"/>
			<g>
				<polygon fill="#AFAFAF" points="549.732,579.058 586,600 549.732,620.942 				"/>
			</g>
			<g>
				<polygon fill="#AFAFAF" points="437.935,579.058 401.667,600 437.935,620.942 				"/>
			</g>
		</g>
	</g>
	<g>
		<g>
			
				<line fill="none" stroke="#AFAFAF" stroke-width="9.3333" stroke-miterlimit="10" x1="590.828" y1="642.337" x2="522.382" y2="958.268"/>
			<g>
				<polygon fill="#AFAFAF" points="569.062,643.891 597.209,612.88 609.998,652.76 				"/>
			</g>
			<g>
				<polygon fill="#AFAFAF" points="503.211,947.845 516,987.725 544.147,956.713 				"/>
			</g>
		</g>
	</g>
	<g>
		<g>
			
				<line fill="none" stroke="#AFAFAF" stroke-width="9.3333" stroke-miterlimit="10" x1="637.653" y1="621.849" x2="1088.634" y2="883.54"/>
			<g>
				<polygon fill="#AFAFAF" points="632.442,643.038 611.583,606.722 653.464,606.811 				"/>
			</g>
			<g>
				<polygon fill="#AFAFAF" points="1072.823,898.578 1114.703,898.667 1093.844,862.35 				"/>
			</g>
		</g>
	</g>
	
		<ellipse transform="matrix(0.309 -0.9511 0.9511 0.309 73.786 1023.053)" fill="#37246D" cx="740.949" cy="460.748" rx="16.329" ry="16.329"/>
	
		<ellipse transform="matrix(0.309 -0.9511 0.9511 0.309 -154.9788 984.4497)" fill="#37246D" cx="600" cy="598.88" rx="16.329" ry="16.329"/>
	
		<ellipse transform="matrix(0.309 -0.9511 0.9511 0.309 -53.1744 775.1118)" fill="#37246D" cx="506.838" cy="424.15" rx="16.329" ry="16.329"/>
	
		<ellipse transform="matrix(0.309 -0.9511 0.9511 0.309 51.5827 567.5978)" fill="#37246D" cx="416.407" cy="248.3" rx="16.329" ry="16.329"/>
	
		<ellipse transform="matrix(0.309 -0.9511 0.9511 0.309 156.5502 640.8062)" fill="#37246D" cx="519.272" cy="212.667" rx="16.329" ry="16.329"/>
	
		<ellipse transform="matrix(0.7572 -0.6532 0.6532 0.7572 -124.4799 289.3891)" fill="#37246D" cx="327" cy="312.125" rx="16.333" ry="16.333"/>
	
		<ellipse transform="matrix(0.7572 -0.6532 0.6532 0.7572 -29.7037 183.9801)" fill="#37246D" cx="232.609" cy="131.943" rx="16.333" ry="16.333"/>
	
		<ellipse transform="matrix(0.7572 -0.6532 0.6532 0.7572 -96.6705 150.6666)" fill="#37246D" cx="154.317" cy="205.359" rx="16.333" ry="16.333"/>
</g>
</svg>
