<?xml version="1.0" encoding="utf-8"?>
<!-- Generator: Adobe Illustrator 22.1.0, SVG Export Plug-In . SVG Version: 6.00 Build 0)  -->
<svg version="1.1" xmlns="http://www.w3.org/2000/svg" xmlns:xlink="http://www.w3.org/1999/xlink" x="0px" y="0px"
	 viewBox="0 0 1268 418" enable-background="new 0 0 1268 418" xml:space="preserve">
<g id="Layer_1">
	<circle fill="none" stroke="#B3B3B3" stroke-miterlimit="10" cx="634" cy="209" r="187.2"/>
	<circle fill="#D8BBB8" cx="634" cy="21.8" r="3.7"/>
	<circle fill="#8B8CA4" cx="644.1" cy="396.4" r="3.7"/>
	<circle fill="#E5C6A9" cx="523.9" cy="57.6" r="3.7"/>
	<circle fill="#8B8CA4" cx="727.6" cy="371.1" r="3.7"/>
	<circle fill="#E5C6A9" cx="462.7" cy="133.7" r="3.7"/>
	<circle fill="#AEA5BF" cx="791.7" cy="309.8" r="3.7"/>
	<circle fill="#B2958C" cx="446.8" cy="209" r="3.7"/>
	<circle fill="#AEA5BF" cx="821.2" cy="217.6" r="3.7"/>
	<circle fill="#B2958C" cx="476.1" cy="310.2" r="3.7"/>
	<circle fill="#D8BBB8" cx="796.1" cy="115.4" r="3.7"/>
	<circle fill="#B2958C" cx="549.5" cy="376.3" r="3.7"/>
	<circle fill="#D8BBB8" cx="735.4" cy="51.7" r="3.7"/>
	
		<rect x="616.2" y="48.2" transform="matrix(6.123234e-17 -1 1 6.123234e-17 584.1025 683.8129)" fill="#EBE5E1" width="35.6" height="3.3"/>
	
		<rect x="567.1" y="56" transform="matrix(-0.309 -0.9511 0.9511 -0.309 710.7656 631.6918)" fill="#EBE5E1" width="35.6" height="3.3"/>
	<rect x="536.7" y="69.5" transform="matrix(-0.5 -0.866 0.866 -0.5 770.1431 586.971)" fill="#EBE5E1" width="35.6" height="3.3"/>
	
		<rect x="512.6" y="90.3" transform="matrix(-0.6691 -0.7431 0.7431 -0.6691 814.2407 546.366)" fill="#EBE5E1" width="32.3" height="3.3"/>
	
		<rect x="478.6" y="127.7" transform="matrix(-0.866 -0.5 0.5 -0.866 861.5713 489.5367)" fill="#EBE5E1" width="35.6" height="3.3"/>
	
		<rect x="473.8" y="159.4" transform="matrix(-0.9511 -0.309 0.309 -0.9511 900.579 464.7639)" fill="#EBE5E1" width="26.7" height="3.3"/>
	
		<rect x="466.9" y="223.3" transform="matrix(-0.9945 0.1045 -0.1045 -0.9945 981.5014 398.4556)" fill="#EBE5E1" width="26.8" height="3.3"/>
	
		<rect x="460.8" y="240.2" transform="matrix(-0.9781 0.2079 -0.2079 -0.9781 996.9914 378.8691)" fill="#EBE5E1" width="35.6" height="3.3"/>
	
		<rect x="485.8" y="268.6" transform="matrix(-0.9135 0.4067 -0.4067 -0.9135 1058.7985 315.5443)" fill="#EBE5E1" width="20.2" height="3.3"/>
	<rect x="482" y="285.7" transform="matrix(-0.866 0.5 -0.5 -0.866 1072.866 287.2197)" fill="#EBE5E1" width="32" height="3.3"/>
	
		<rect x="502.5" y="311.8" transform="matrix(-0.7431 0.6691 -0.6691 -0.7431 1112.3402 199.8649)" fill="#EBE5E1" width="30.5" height="3.3"/>
	
		<rect x="525.1" y="334.5" transform="matrix(-0.5878 0.809 -0.809 -0.5878 1131.7042 95.7778)" fill="#EBE5E1" width="32.8" height="3.3"/>
	
		<rect x="553.5" y="351" transform="matrix(-0.4067 0.9135 -0.9135 -0.4067 1123.9806 -24.5561)" fill="#EBE5E1" width="32.8" height="3.3"/>
	
		<rect x="571.3" y="355.2" transform="matrix(-0.309 0.9511 -0.9511 -0.309 1106.3999 -90.03)" fill="#EBE5E1" width="29.3" height="3.3"/>
	
		<rect x="591.7" y="355.7" transform="matrix(-0.2079 0.9781 -0.9781 -0.2079 1077.2375 -157.6826)" fill="#EBE5E1" width="21.5" height="3.3"/>
	<polygon fill="#EBE5E1" points="632.3,383.4 632.4,349.9 635.7,349.9 635.6,383.4 	"/>
	
		<rect x="666.2" y="357" transform="matrix(0.309 0.9511 -0.9511 0.309 812.8971 -401.502)" fill="#EBE5E1" width="33.1" height="3.3"/>
	
		<rect x="682.5" y="349.7" transform="matrix(0.4067 0.9135 -0.9135 0.4067 734.8203 -428.7835)" fill="#EBE5E1" width="30" height="3.3"/>
	<rect x="700.6" y="336.2" transform="matrix(0.5 0.866 -0.866 0.5 646.934 -444.727)" fill="#EBE5E1" width="16.1" height="3.3"/>
	
		<rect x="709.9" y="335.1" transform="matrix(0.5878 0.809 -0.809 0.5878 572.1719 -449.3873)" fill="#EBE5E1" width="34.3" height="3.3"/>
	
		<rect x="736.3" y="308.3" transform="matrix(0.7431 0.6691 -0.6691 0.7431 399.1433 -419.8722)" fill="#EBE5E1" width="20.4" height="3.3"/>
	
		<rect x="754.2" y="285.3" transform="matrix(0.866 0.5 -0.5 0.866 246.5699 -346.3182)" fill="#EBE5E1" width="30.7" height="3.3"/>
	
		<rect x="761.4" y="271.7" transform="matrix(0.9135 0.4067 -0.4067 0.9135 178.5411 -293.2877)" fill="#EBE5E1" width="35.6" height="3.3"/>
	
		<rect x="767.5" y="255.4" transform="matrix(0.9511 0.309 -0.309 0.9511 117.7495 -229.3219)" fill="#EBE5E1" width="30.7" height="3.3"/>
	
		<rect x="774.3" y="223.3" transform="matrix(0.9945 0.1045 -0.1045 0.9945 27.8335 -81.1923)" fill="#EBE5E1" width="28.5" height="3.3"/>
	
		<rect x="774.3" y="190.7" transform="matrix(0.9945 -0.1045 0.1045 0.9945 -15.7886 83.5414)" fill="#EBE5E1" width="29.8" height="3.3"/>
	
		<rect x="767.6" y="159.6" transform="matrix(0.9511 -0.309 0.309 0.9511 -11.6448 248.9535)" fill="#EBE5E1" width="25" height="3.3"/>
	
		<rect x="761.6" y="143.5" transform="matrix(0.9135 -0.4067 0.4067 0.9135 8.1305 328.5007)" fill="#EBE5E1" width="30.4" height="3.3"/>
	<rect x="754.5" y="130.2" transform="matrix(0.866 -0.5 0.5 0.866 36.8169 401.1888)" fill="#EBE5E1" width="25.1" height="3.3"/>
	
		<rect x="723.7" y="91.7" transform="matrix(0.6691 -0.7431 0.7431 0.6691 174.7933 579.2274)" fill="#EBE5E1" width="28.4" height="3.3"/>
	
		<rect x="681.5" y="63" transform="matrix(0.4067 -0.9135 0.9135 0.4067 355.1307 676.1068)" fill="#EBE5E1" width="33.3" height="3.3"/>
	
		<rect x="667.9" y="59.5" transform="matrix(0.309 -0.9511 0.9511 0.309 412.9714 690.8126)" fill="#EBE5E1" width="28" height="3.3"/>
	
		<rect x="650.5" y="53.2" transform="matrix(0.2079 -0.9781 0.9781 0.2079 474.4127 695.5456)" fill="#EBE5E1" width="32.4" height="3.3"/>
	
		<rect x="638.2" y="55.1" transform="matrix(0.1045 -0.9945 0.9945 0.1045 525.5961 697.1631)" fill="#EBE5E1" width="23.5" height="3.3"/>
	<rect x="731.3" y="379.4" fill="#EBE5E1" width="38.9" height="9.7"/>
	<rect x="778.4" y="379.4" fill="#EBE5E1" width="20.2" height="9.7"/>
	<rect x="608" y="2" fill="#EBE5E1" width="53.4" height="9.7"/>
	<rect x="461.1" y="384.5" fill="#EBE5E1" width="32.9" height="9.7"/>
	<rect x="502.2" y="384.5" fill="#EBE5E1" width="41.8" height="9.7"/>
	<rect x="420" y="313.9" fill="#EBE5E1" width="46.3" height="9.7"/>
	<rect x="800.8" y="313.6" fill="#EBE5E1" width="46.3" height="9.7"/>
	<rect x="420.9" y="125.1" fill="#EBE5E1" width="32.1" height="9.7"/>
	<rect x="807.4" y="106.8" fill="#EBE5E1" width="32.1" height="9.7"/>
	<rect x="456.1" y="40.5" fill="#EBE5E1" width="63.9" height="9.7"/>
	<g>
		<rect x="610.1" y="406.5" fill="#EBE5E1" width="25.4" height="9.7"/>
		<rect x="643.7" y="406.5" fill="#EBE5E1" width="34.4" height="9.7"/>
	</g>
	<g>
		<rect x="368" y="204.1" fill="#EBE5E1" width="25.4" height="9.7"/>
		<rect x="401.6" y="204.1" fill="#EBE5E1" width="34.4" height="9.7"/>
	</g>
	<g>
		<rect x="832" y="212.7" fill="#EBE5E1" width="25.4" height="9.7"/>
		<rect x="865.7" y="212.7" fill="#EBE5E1" width="34.4" height="9.7"/>
	</g>
	<g>
		<rect x="739.7" y="34.7" fill="#EBE5E1" width="41.1" height="9.7"/>
		<rect x="789" y="34.7" fill="#EBE5E1" width="27.6" height="9.7"/>
	</g>
	<path fill="#C6BFCF" d="M629.4,183.2c0,2.8,2.3,5.2,5.2,5.2s5.2-2.3,5.2-5.2c0-2.8-2.3-5.2-5.2-5.2S629.4,180.3,629.4,183.2z
		 M647.6,196.1v15.8c0,1.3-1,2.3-2.3,2.3s-2.3-1-2.3-2.3v-14.5c0-0.4-0.3-0.7-0.7-0.7c-0.4,0-0.7,0.3-0.7,0.7v39.1
		c0,1.9-1.4,3.5-3.2,3.5s-3.2-1.6-3.2-3.5v-22.3c0-0.4-0.3-0.7-0.7-0.7c-0.4,0-0.7,0.3-0.7,0.7v22.3c0,1.9-1.4,3.5-3.2,3.5
		s-3.2-1.6-3.2-3.5v-39.1c0-0.4-0.3-0.7-0.7-0.7c-0.4,0-0.7,0.3-0.7,0.7v14.5c0,1.3-1,2.3-2.3,2.3s-2.3-1-2.3-2.3v-15.8
		c0-3.6,2.9-6.4,6.4-6.4h12.9C644.6,189.7,647.5,192.5,647.6,196.1z"/>
	<path fill="#EBE5E1" d="M620.9,68.2l-1.4-12.7c-1.1,0.1-2.2,0.2-3.3,0.3l1.4,12.7L620.9,68.2z"/>
	<path fill="#EBE5E1" d="M617.6,38.4l-3.3,0.3l1.5,14.2c1.1-0.1,2.2-0.2,3.3-0.3L617.6,38.4z"/>
	<path fill="#EBE5E1" d="M578.1,79.2l-5.2-11.7c-1,0.4-2,0.9-3,1.4l5.2,11.7L578.1,79.2z"/>
	<path fill="#EBE5E1" d="M566.3,52.8l-3,1.4l5.3,11.9c1-0.5,2-0.9,3-1.4L566.3,52.8z"/>
	<path fill="#EBE5E1" d="M530.2,113.1l-9.5-8.6c-0.8,0.8-1.5,1.6-2.2,2.5l9.5,8.6L530.2,113.1z"/>
	<path fill="#EBE5E1" d="M512,96.7l-2.2,2.5l6.5,5.8c0.7-0.8,1.5-1.7,2.2-2.5L512,96.7z"/>
	<path fill="#EBE5E1" d="M493.8,192.4l-13-1.4c-0.1,1.1-0.2,2.2-0.4,3.3l13,1.4L493.8,192.4z"/>
	<path fill="#EBE5E1" d="M465.2,189.4l-0.3,3.3l12.6,1.3c0.1-1.1,0.2-2.2,0.4-3.3L465.2,189.4z"/>
	<path fill="#EBE5E1" d="M538.4,312.5l-8.8,9.8c0.8,0.8,1.6,1.5,2.5,2.2l8.8-9.8L538.4,312.5z"/>
	<path fill="#EBE5E1" d="M521.7,331.1l2.5,2.2l5.9-6.5c-0.8-0.7-1.7-1.5-2.5-2.2L521.7,331.1z"/>
	<path fill="#EBE5E1" d="M661.8,347.1l2.8,13c1.1-0.2,2.2-0.5,3.2-0.7l-2.8-13L661.8,347.1z"/>
	<path fill="#EBE5E1" d="M668.7,379.7l3.3-0.7l-3.5-16.7c-1.1,0.2-2.2,0.5-3.2,0.7L668.7,379.7z"/>
	<path fill="#EBE5E1" d="M771.7,239.7l12.8,2.7c0.2-1.1,0.5-2.2,0.7-3.3l-12.8-2.7L771.7,239.7z"/>
	<path fill="#EBE5E1" d="M803.7,243.1l-15.6-3.3c-0.2,1.1-0.4,2.2-0.7,3.3l15.6,3.3L803.7,243.1z"/>
	<path fill="#EBE5E1" d="M740,115.5l9.5-8.5c-0.7-0.8-1.5-1.7-2.2-2.5l-9.5,8.5L740,115.5z"/>
	<path fill="#EBE5E1" d="M761.5,96.1l-2.2-2.5l-9.8,8.9c0.8,0.8,1.5,1.6,2.2,2.5L761.5,96.1z"/>
	<path fill="#EBE5E1" d="M606.2,70.4l-1.7-8.1c-1.1,0.2-2.2,0.5-3.2,0.7l1.7,8.1L606.2,70.4z"/>
	<path fill="#EBE5E1" d="M505.7,149.9l-7.7-3.4c-0.5,1-0.9,2-1.4,3l7.7,3.4L505.7,149.9z"/>
	<path fill="#EBE5E1" d="M481.4,207.1h-18.9v3.3h18.9c0-0.5,0-1,0-1.5C481.3,208.4,481.4,207.8,481.4,207.1z"/>
	<path fill="#EBE5E1" d="M492.9,207.1h-8.5c0,0.6,0,1.2,0,1.9c0,0.5,0,1,0,1.5h8.5V207.1z"/>
	<path fill="#EBE5E1" d="M562,330.2l-4.3,7.5c1,0.6,1.9,1.1,2.9,1.7l4.3-7.5L562,330.2z"/>
	<path fill="#EBE5E1" d="M647.1,349.3l0.9,8.7c1.1-0.1,2.2-0.2,3.3-0.3l-0.9-8.7L647.1,349.3z"/>
	<path fill="#EBE5E1" d="M727.2,314.7l5.8,6.4c0.8-0.7,1.7-1.5,2.5-2.2l-5.7-6.4L727.2,314.7z"/>
	<path fill="#EBE5E1" d="M748,337.8l2.5-2.2l-13-14.4c-0.8,0.8-1.6,1.5-2.5,2.2L748,337.8z"/>
	<path fill="#EBE5E1" d="M783.6,207h-8.5v3.3h8.5c0-0.5,0-0.9,0-1.4C783.6,208.3,783.6,207.7,783.6,207z"/>
	<path fill="#EBE5E1" d="M749.1,127.1l6.7-4.9c-0.6-0.9-1.3-1.8-2-2.7l-6.7,4.9L749.1,127.1z"/>
	<path fill="#EBE5E1" d="M706,87.4l4.1-7.1c-1-0.6-1.9-1.1-2.9-1.7l-4.1,7.1L706,87.4z"/>
	<path fill="#EBE5E1" d="M720.6,62l-2.9-1.7l-9,15.6c1,0.5,1.9,1.1,2.9,1.7L720.6,62z"/>
	<path fill="#EBE5E1" d="M598.9,35.6l-3.3,0.7l2,9.3c1.1-0.2,2.2-0.5,3.2-0.7L598.9,35.6z"/>
	<path fill="#EBE5E1" d="M603.9,59.4l-2.4-11.5c-1.1,0.2-2.2,0.5-3.2,0.7l2.4,11.5C601.7,59.8,602.8,59.6,603.9,59.4z"/>
	<path fill="#EBE5E1" d="M495.3,145.2l-10.7-4.8c-0.5,1-0.9,2-1.4,3l10.7,4.8C494.4,147.3,494.9,146.2,495.3,145.2z"/>
	<path fill="#EBE5E1" d="M473.3,135.4l-1.4,3l8.6,3.8c0.4-1,0.9-2,1.4-3L473.3,135.4z"/>
	<path fill="#EBE5E1" d="M556.2,340.3l-5.9,10.2c1,0.6,1.9,1.1,2.9,1.7l5.9-10.2C558.1,341.4,557.1,340.8,556.2,340.3z"/>
	<path fill="#EBE5E1" d="M544.3,360.9l2.9,1.7l4.6-7.9c-1-0.5-1.9-1.1-2.9-1.7L544.3,360.9z"/>
	<path fill="#EBE5E1" d="M648.4,360.9l1.2,11.7c1.1-0.1,2.2-0.2,3.3-0.3l-1.2-11.7C650.6,360.7,649.5,360.8,648.4,360.9z"/>
	<path fill="#EBE5E1" d="M650.9,384.6l3.3-0.3l-0.9-9c-1.1,0.1-2.2,0.2-3.3,0.3L650.9,384.6z"/>
	<path fill="#EBE5E1" d="M786.6,209c0,0.5,0,0.9,0,1.4h11.7c0-0.5,0-0.9,0-1.4c0-0.7,0-1.3,0-2h-11.7
		C786.6,207.7,786.6,208.3,786.6,209z"/>
	<path fill="#EBE5E1" d="M810.7,207h-9.4c0,0.7,0,1.3,0,2c0,0.5,0,0.9,0,1.4h9.4V207z"/>
	<path fill="#EBE5E1" d="M777.9,106.2l-2-2.7l-7.7,5.6c0.7,0.9,1.3,1.8,2,2.7L777.9,106.2z"/>
	<path fill="#EBE5E1" d="M758.2,120.5l9.5-6.9c-0.6-0.9-1.3-1.8-2-2.7l-9.5,6.9C757,118.7,757.6,119.6,758.2,120.5z"/>
	<path fill="#EBE5E1" d="M531.5,64.9l-2.7,2l8.4,11.6c0.9-0.7,1.8-1.3,2.7-2L531.5,64.9z"/>
	<path fill="#EBE5E1" d="M552.4,93.6l-10.7-14.7c-0.9,0.6-1.8,1.3-2.7,2l10.7,14.7L552.4,93.6z"/>
	<path fill="#EBE5E1" d="M520.8,124.5L506,113.8c-0.7,0.9-1.3,1.8-2,2.7l14.8,10.7L520.8,124.5z"/>
	<path fill="#EBE5E1" d="M492,103.6l-2,2.7l11.6,8.4c0.6-0.9,1.3-1.8,2-2.7L492,103.6z"/>
	<path fill="#EBE5E1" d="M496.3,177.8l-18-3.8c-0.2,1.1-0.5,2.2-0.7,3.2l18,3.8L496.3,177.8z"/>
	<path fill="#EBE5E1" d="M461.5,170.4l-0.7,3.3l13.8,2.9c0.2-1.1,0.5-2.2,0.7-3.2L461.5,170.4z"/>
	<path fill="#EBE5E1" d="M469.1,260.6l1,3.2l9.7-3.2c-0.4-1-0.7-2.1-1-3.2L469.1,260.6z"/>
	<path fill="#EBE5E1" d="M499.3,250.8l-17.6,5.7c0.3,1.1,0.7,2.1,1,3.2l17.6-5.7L499.3,250.8z"/>
	<path fill="#EBE5E1" d="M493.8,308.5l2,2.7l7.7-5.5c-0.7-0.9-1.3-1.8-2-2.7L493.8,308.5z"/>
	<path fill="#EBE5E1" d="M518.9,290.4l-15,10.9c0.6,0.9,1.3,1.8,2,2.7l15-10.9L518.9,290.4z"/>
	<path fill="#EBE5E1" d="M617.6,348.9l-2,18.6c1.1,0.1,2.2,0.2,3.3,0.3l2-18.6L617.6,348.9z"/>
	<path fill="#EBE5E1" d="M613.9,384.3l3.3,0.3l1.5-13.8c-1.1-0.1-2.2-0.2-3.3-0.3L613.9,384.3z"/>
	<path fill="#EBE5E1" d="M747.2,293l15,10.9c0.7-0.9,1.3-1.8,2-2.7l-15-10.9L747.2,293z"/>
	<path fill="#EBE5E1" d="M776,313.9l2-2.7l-11.4-8.3c-0.6,0.9-1.3,1.8-2,2.7L776,313.9z"/>
	<path fill="#EBE5E1" d="M771.7,177.7l0.7,3.3l18-3.8c-0.2-1.1-0.5-2.2-0.7-3.2L771.7,177.7z"/>
	<path fill="#EBE5E1" d="M807.2,173.6l-0.7-3.3l-13.9,2.9c0.2,1.1,0.5,2.2,0.7,3.2L807.2,173.6z"/>
	<path fill="#EBE5E1" d="M718.3,95.5l10.7-14.7c-0.9-0.7-1.8-1.3-2.7-2l-10.7,14.7L718.3,95.5z"/>
	<path fill="#EBE5E1" d="M736.8,70.2l-2.7-2l-6.1,8.2c0.9,0.6,1.8,1.3,2.7,2L736.8,70.2z"/>
	<path fill="none" stroke="#8B8CA4" stroke-miterlimit="10" d="M647.8,340c-0.2-4.4-1.1-14.9-4-23.9c-3.7-11.8-5-15.7-5.5-23.9"/>
	<path fill="none" stroke="#8B8CA4" stroke-miterlimit="10" d="M661.5,338.4c-0.9-4.3-3.6-13.4-10.8-23.2
		c-7.3-9.9-12-14.9-12.4-23.1"/>
	<path fill="none" stroke="#8B8CA4" stroke-miterlimit="10" d="M619.9,340.6c0.4-4.4,2.2-13.7,8.4-24.1c6.3-10.6,10.5-16,10.1-24.2"
		/>
	<path fill="none" stroke="#8B8CA4" stroke-miterlimit="10" d="M633.9,340.7c-0.3-4.4-0.5-14.9,1.4-24.2c2.5-12.1,3.4-16.2,3-24.3
		c-0.3-6.6-0.4-12.2,3.2-19.6c5.7-11.5,4.3-17.9,4.3-17.9"/>
	<g>
		<g>
			<path fill="none" stroke="#AEA5BF" stroke-miterlimit="10" d="M765.8,208.7c-4.4-0.3-14.9-0.5-24.2,1.4
				c-12.1,2.5-16.2,3.3-24.3,2.9"/>
			<path fill="none" stroke="#AEA5BF" stroke-miterlimit="10" d="M765.7,194.9c-4.4,0.4-13.7,2.1-24.2,8.2
				c-10.7,6.2-16.1,10.3-24.3,9.9"/>
			<path fill="none" stroke="#AEA5BF" stroke-miterlimit="10" d="M763.3,236.5c-4.3-0.9-13.4-3.6-23.1-10.9
				c-9.9-7.4-14.8-12.1-23-12.6"/>
			<path fill="none" stroke="#AEA5BF" stroke-miterlimit="10" d="M759.2,249.6c-4.5-1.9-12.1-7-22.4-20.4
				c-7.1-9.1-13.1-15.8-19.5-16.2"/>
			<path fill="none" stroke="#AEA5BF" stroke-miterlimit="10" d="M763,181.4c-4.7,1.4-12.8,5.6-24.5,17.7
				c-8.1,8.3-14.8,14.2-21.2,13.9"/>
			<path fill="none" stroke="#AEA5BF" stroke-miterlimit="10" d="M765,222.6c-4.4-0.2-14.9-1.1-23.9-4c-11.8-3.8-15.7-5.1-23.8-5.6"
				/>
		</g>
		<path fill="none" stroke="#AEA5BF" stroke-miterlimit="10" d="M748.4,274.8c-3.6-2.4-12.7-7.9-21.7-10.9
			c-11.7-3.9-15.7-5.2-22.5-9.6"/>
		<path fill="none" stroke="#AEA5BF" stroke-miterlimit="10" d="M755.3,262.8c-4-1.8-12.9-5-25.1-4.9c-12.4,0.1-19.1,0.9-26-3.5"/>
		<path fill="none" stroke="#AEA5BF" stroke-miterlimit="10" d="M732.5,297.7c-3.3-2.9-9.8-9.8-14.6-21
			c-4.9-11.3-6.8-17.9-13.7-22.4"/>
		<path fill="none" stroke="#AEA5BF" stroke-miterlimit="10" d="M740.8,286.5c-3.7-2.4-12.4-8.4-18.7-15.4
			c-8.3-9.2-10.9-12.5-17.8-16.8c-3.8-2.3-6.3-5.7-11.7-14.5c-5.2-8.6-13.8-13.8-13.8-13.8"/>
		<path fill="none" stroke="#AEA5BF" stroke-miterlimit="10" d="M717.2,213.1c-8.4-0.7-13.4,2.5-19,6.5c-12.8,9.2-19.4,6.4-19.4,6.4
			l-3.5-1.4"/>
	</g>
	<g>
		<path fill="none" stroke="#D8BBB8" stroke-miterlimit="10" d="M700.4,93.9c-2.4,3.6-7.9,12.7-10.9,21.7
			c-3.9,11.7-5.2,15.7-9.6,22.5"/>
		<path fill="none" stroke="#D8BBB8" stroke-miterlimit="10" d="M688.3,87.1c-1.8,4-5,12.9-4.9,25.1c0.1,12.4,0.9,19.1-3.5,26"/>
		<path fill="none" stroke="#D8BBB8" stroke-miterlimit="10" d="M723.2,109.9c-2.9,3.3-9.8,9.8-21,14.6
			c-11.3,4.9-17.9,6.8-22.4,13.7"/>
		<path fill="none" stroke="#D8BBB8" stroke-miterlimit="10" d="M712,101.5c-2.4,3.7-8.3,12.4-15.4,18.7
			c-9.1,8.3-12.3,11.1-16.8,17.8l-22,33.7"/>
		<path fill="none" stroke="#D8BBB8" stroke-miterlimit="10" d="M659.9,168.7c0,0,2.7-3.9,1.4-10.3c-1.7-8.5-12.4-13.4-18.9-18.1
			c-5.1-3.6-8.5-9.9-8.5-16.2V76.7"/>
		<path fill="none" stroke="#D8BBB8" stroke-miterlimit="10" d="M659.9,168.7c0,0,2.7-4.5,9.1-5c5.4-0.4,8.7,2.8,16.4,5.3
			c4.3,1.4,9.3,2.9,15,1c1.1-0.4,2.1-0.9,3.1-1.4l45.1-25.8"/>
		<path fill="none" stroke="#D8BBB8" stroke-miterlimit="10" d="M593,83.1c2.1,4.2,7.3,13.4,19.1,21.1c7.3,4.8,21.8,11.7,21.8,20.7"
			/>
		<path fill="none" stroke="#D8BBB8" stroke-miterlimit="10" d="M606.3,79.6c0.7,2.7,1.5,10.8,15,23.9c7.2,7,12.6,14.2,12.6,21.4"/>
		<path fill="none" stroke="#D8BBB8" stroke-miterlimit="10" d="M620,77.4c0,3.4,0.6,13.1,6.3,23.8c5.8,10.9,7.6,16.1,7.5,23.8"/>
		<path fill="none" stroke="#D8BBB8" stroke-miterlimit="10" d="M674.8,83.1c-2.1,4.2-7.3,13.4-19.1,21.1
			c-7.3,4.8-21.8,11.7-21.8,20.7"/>
		<path fill="none" stroke="#D8BBB8" stroke-miterlimit="10" d="M661.4,79.6c-0.7,2.7-1.5,10.8-15,23.9c-7.2,7-12.6,14.2-12.6,21.4"
			/>
		<path fill="none" stroke="#D8BBB8" stroke-miterlimit="10" d="M647.7,77.4c0,3.4-0.6,13.1-6.3,23.8c-5.8,10.9-7.6,16.1-7.5,23.8"
			/>
		<line fill="none" stroke="#D8BBB8" stroke-miterlimit="10" x1="633.9" y1="80.5" x2="633.9" y2="123.8"/>
		<path fill="none" stroke="#D8BBB8" stroke-miterlimit="10" d="M732.4,120.3c-2.1,1.9-8.7,6.7-13.3,24.8c-2.5,9.8-6.1,18-12.4,21.6
			"/>
		<path fill="none" stroke="#D8BBB8" stroke-miterlimit="10" d="M741.1,131.1c-3,1.7-11,7-17.5,17.3c-6.6,10.5-10.2,14.6-16.9,18.4"
			/>
		<path fill="none" stroke="#D8BBB8" stroke-miterlimit="10" d="M759.7,168.1c-2.7,0.8-10.1,4.1-28.2-1.1
			c-9.7-2.8-18.6-3.9-24.9-0.3"/>
		<path fill="none" stroke="#D8BBB8" stroke-miterlimit="10" d="M754.9,155.1c-3,1.7-11.6,6-23.8,6.3c-12.3,0.4-17.7,1.4-24.4,5.3"
			/>
	</g>
	<g>
		<g>
			<g>
				<path fill="none" stroke="#B2958C" stroke-miterlimit="10" d="M580.9,328.9c2-3.9,6.4-13.5,8.4-22.8c2.6-12.1,3.4-16.2,7-23.5"
					/>
				<path fill="none" stroke="#B2958C" stroke-miterlimit="10" d="M593.6,334.3c1.4-4.2,3.5-13.4,2.1-25.5
					c-1.4-12.3-3-18.9,0.6-26.2"/>
				<path fill="none" stroke="#B2958C" stroke-miterlimit="10" d="M556.4,315.6c2.5-3.6,8.7-10.8,19.2-16.8
					c10.7-6.1,17-8.8,20.7-16.1"/>
				<path fill="none" stroke="#B2958C" stroke-miterlimit="10" d="M546,306.5c3.5-3.3,11.3-8.3,27.6-12.4
					c11.2-2.8,19.7-5.7,22.6-11.5"/>
				<path fill="none" stroke="#B2958C" stroke-miterlimit="10" d="M607,337.3c0.6-4.8-0.1-14-6.5-29.6c-4.4-10.7-7.1-19.3-4.2-25"/>
				<path fill="none" stroke="#B2958C" stroke-miterlimit="10" d="M568.5,322.6c1.9-3.9,6.9-13.2,13.2-20.3
					c8.2-9.3,10.9-12.4,14.6-19.6"/>
			</g>
			<path fill="none" stroke="#B2958C" stroke-miterlimit="10" d="M527.2,286.6c3.7-2.4,12.3-8.5,18.6-15.5
				c8.3-9.2,11-12.3,17.8-16.8"/>
			<path fill="none" stroke="#B2958C" stroke-miterlimit="10" d="M535.5,297.7c3.3-2.9,9.7-9.9,14.5-21c4.9-11.3,6.8-17.9,13.6-22.4
				"/>
			<path fill="none" stroke="#B2958C" stroke-miterlimit="10" d="M512.6,262.8c4-1.8,12.9-5,25.1-5c12.4,0,19.1,0.9,26-3.6"/>
			<path fill="none" stroke="#B2958C" stroke-miterlimit="10" d="M596.3,282.7c7.9-17.3-14-37.9-2.2-48.2"/>
		</g>
		<g>
			<path fill="none" stroke="#B2958C" stroke-miterlimit="10" d="M519.6,274.8c3.6-2.4,12.6-8,21.6-11c11.7-3.9,15.7-5.2,22.5-9.6
				l33.5-21.8"/>
			<path fill="none" stroke="#B2958C" stroke-miterlimit="10" d="M594.1,234.4c-1.8,1.2-8.6,3.9-20.1-10.3
				c-2.8-3.5-10.3-8.5-19.7-7.3c-12.9,1.6-51.6,5.5-51.6,5.5"/>
			<path fill="none" stroke="#B2958C" stroke-miterlimit="10" d="M508.5,249.4c2.7-1,10.6-2.6,22.1-17.4c6.2-8,12.8-14,20-14.8"/>
			<path fill="none" stroke="#B2958C" stroke-miterlimit="10" d="M504.8,236.1c3.4-0.4,12.9-2,23-8.8c10.2-6.9,15.2-9.3,22.8-10"/>
			<path fill="none" stroke="#B2958C" stroke-miterlimit="10" d="M502.6,194.7c2.8,0.4,10.9,0.3,25.3,12.3
				c7.8,6.5,15.4,11,22.7,10.2"/>
			<path fill="none" stroke="#B2958C" stroke-miterlimit="10" d="M501.8,208.5c3.4-0.4,13-0.8,24.3,3.7c11.5,4.6,16.8,5.8,24.5,4.9"
				/>
		</g>
	</g>
	<g>
		<path fill="none" stroke="#E5C6A9" stroke-miterlimit="10" d="M596.4,178.2c-6.2-5-14.4-2.8-23.6-1.8c-5,0.5-9.2,0.8-15.5-2.1
			l-44.2-19.3"/>
		<path fill="none" stroke="#E5C6A9" stroke-miterlimit="10" d="M504.7,181.4c2.8,0.5,10.5,3,27.9-4.1c9.3-3.8,18-5.8,24.7-2.9"/>
		<path fill="none" stroke="#E5C6A9" stroke-miterlimit="10" d="M508.1,167.9c3.1,1.4,12.2,4.7,24.3,3.7c12.3-1,17.8-0.5,24.8,2.6"
			/>
		<path fill="none" stroke="#E5C6A9" stroke-miterlimit="10" d="M526.8,130.9c2.3,1.7,9.3,5.7,15.9,23.3c3.5,9.5,8,17.2,14.6,20.1"
			/>
		<path fill="none" stroke="#E5C6A9" stroke-miterlimit="10" d="M519.2,142.5c3.1,1.4,11.7,5.8,19.3,15.3
			c7.7,9.7,11.7,13.4,18.8,16.4"/>
		<path fill="none" stroke="#E5C6A9" stroke-miterlimit="10" d="M555.8,101.6l28.6,38.8c5.2,6.2,5.1,12.6,5.5,20.2
			c0.4,9.2,2.3,14.2,6.5,17.6l2.8,2.2"/>
		<path fill="none" stroke="#E5C6A9" stroke-miterlimit="10" d="M535.3,120.3c2.2,1.8,7.6,7.8,26.2,10.3c10,1.3,18.5,3.9,22.9,9.8"
			/>
		<path fill="none" stroke="#E5C6A9" stroke-miterlimit="10" d="M545,110.4c2,2.7,8.2,10.1,19.2,15.4c11.1,5.3,15.6,8.4,20.2,14.7"
			/>
		<path fill="none" stroke="#E5C6A9" stroke-miterlimit="10" d="M579.6,87.6c1.1,2.6,5.2,9.6,2.1,28.1c-1.7,10-1.7,18.9,2.6,24.7"/>
		<path fill="none" stroke="#E5C6A9" stroke-miterlimit="10" d="M567.3,94c2,2.7,7.3,10.9,9,22.9c1.8,12.2,3.5,17.4,8.1,23.6"/>
	</g>
	<g>
		<path fill="none" stroke="#8B8CA4" stroke-miterlimit="10" d="M699.8,322.9l-23.7-41.3c-5.1-8.7-12.9-11.5-19.8-15.9
			c-5.1-3.3-8.6-7.7-9.8-9.5c-0.3-0.5-0.6-1-0.7-1.6l-0.7-2.9"/>
		<path fill="none" stroke="#8B8CA4" stroke-miterlimit="10" d="M722.3,306.7c-1.9-2.1-6.7-8.6-24.9-13.2c-9.8-2.5-18-6-21.6-12.3"
			/>
		<path fill="none" stroke="#8B8CA4" stroke-miterlimit="10" d="M711.5,315.4c-1.7-3-7-11-17.3-17.5c-10.5-6.6-14.6-10.2-18.4-16.9"
			/>
		<path fill="none" stroke="#8B8CA4" stroke-miterlimit="10" d="M674.5,334.1c-0.8-2.7-4.1-10.1,1.1-28.2c2.8-9.7,3.8-18.6,0.2-24.9
			"/>
		<path fill="none" stroke="#8B8CA4" stroke-miterlimit="10" d="M687.5,329.2c-1.7-3-6-11.6-6.4-23.8c-0.4-12.3-1.4-17.7-5.3-24.4"
			/>
	</g>
	<g>
		<circle fill="#E5C6A9" cx="580.1" cy="88.1" r="2.2"/>
		<circle fill="#E5C6A9" cx="567.8" cy="94.4" r="2.2"/>
		<circle fill="#E5C6A9" cx="556.2" cy="102" r="2.2"/>
		<circle fill="#E5C6A9" cx="545.4" cy="110.7" r="2.2"/>
		<circle fill="#E5C6A9" cx="535.6" cy="120.5" r="2.2"/>
		<circle fill="#E5C6A9" cx="526.9" cy="131.2" r="2.2"/>
		<circle fill="#E5C6A9" cx="519.4" cy="142.9" r="2.2"/>
		<circle fill="#E5C6A9" cx="513.1" cy="155.2" r="2.2"/>
		<circle fill="#E5C6A9" cx="508.1" cy="168.1" r="2.2"/>
		<circle fill="#E5C6A9" cx="504.5" cy="181.5" r="2.2"/>
	</g>
	<g>
		<circle fill="#D8BBB8" cx="634" cy="76.7" r="2.2"/>
		<circle fill="#D8BBB8" cx="620.1" cy="77.4" r="2.2"/>
		<circle fill="#D8BBB8" cx="606.4" cy="79.6" r="2.2"/>
		<circle fill="#D8BBB8" cx="593.1" cy="83.1" r="2.2"/>
		<circle fill="#D8BBB8" cx="759.9" cy="168.1" r="2.2"/>
		<circle fill="#D8BBB8" cx="754.9" cy="155.1" r="2.2"/>
		<circle fill="#D8BBB8" cx="748.6" cy="142.8" r="2.2"/>
		<circle fill="#D8BBB8" cx="741" cy="131.2" r="2.2"/>
		<circle fill="#D8BBB8" cx="732.3" cy="120.4" r="2.2"/>
		<circle fill="#D8BBB8" cx="722.5" cy="110.6" r="2.2"/>
		<circle fill="#D8BBB8" cx="711.8" cy="101.9" r="2.2"/>
		<circle fill="#D8BBB8" cx="700.1" cy="94.4" r="2.2"/>
		<circle fill="#D8BBB8" cx="687.8" cy="88.1" r="2.2"/>
		<circle fill="#D8BBB8" cx="674.9" cy="83.1" r="2.2"/>
		<circle fill="#D8BBB8" cx="661.5" cy="79.5" r="2.2"/>
		<circle fill="#D8BBB8" cx="647.8" cy="77.4" r="2.2"/>
	</g>
	<g>
		<circle fill="#AEA5BF" cx="732.4" cy="297.5" r="2.2"/>
		<circle fill="#AEA5BF" cx="741.1" cy="286.8" r="2.2"/>
		<circle fill="#AEA5BF" cx="748.6" cy="275.1" r="2.2"/>
		<circle fill="#AEA5BF" cx="754.9" cy="262.8" r="2.2"/>
		<circle fill="#AEA5BF" cx="759.9" cy="249.9" r="2.2"/>
		<circle fill="#AEA5BF" cx="763.5" cy="236.5" r="2.2"/>
		<circle fill="#AEA5BF" cx="765.6" cy="222.8" r="2.2"/>
		<circle fill="#AEA5BF" cx="766.3" cy="209" r="2.2"/>
		<circle fill="#AEA5BF" cx="765.6" cy="195.1" r="2.2"/>
		<circle fill="#AEA5BF" cx="763.4" cy="181.4" r="2.2"/>
	</g>
	<g>
		<circle fill="#8B8CA4" cx="620.2" cy="340.6" r="2.2"/>
		<circle fill="#8B8CA4" cx="634" cy="341.3" r="2.2"/>
		<circle fill="#8B8CA4" cx="647.9" cy="340.6" r="2.2"/>
		<circle fill="#8B8CA4" cx="661.6" cy="338.4" r="2.2"/>
		<circle fill="#8B8CA4" cx="674.9" cy="334.9" r="2.2"/>
		<circle fill="#8B8CA4" cx="687.9" cy="329.9" r="2.2"/>
		<circle fill="#8B8CA4" cx="700.2" cy="323.6" r="2.2"/>
		<circle fill="#8B8CA4" cx="711.8" cy="316" r="2.2"/>
		<circle fill="#8B8CA4" cx="722.6" cy="307.3" r="2.2"/>
	</g>
	<g>
		<g>
			<circle fill="#B2958C" cx="513.1" cy="262.9" r="2.2"/>
			<circle fill="#B2958C" cx="519.4" cy="275.2" r="2.2"/>
			<circle fill="#B2958C" cx="527" cy="286.8" r="2.2"/>
			<circle fill="#B2958C" cx="535.7" cy="297.6" r="2.2"/>
			<circle fill="#B2958C" cx="545.5" cy="307.4" r="2.2"/>
			<circle fill="#B2958C" cx="556.2" cy="316.1" r="2.2"/>
			<circle fill="#B2958C" cx="567.9" cy="323.6" r="2.2"/>
			<circle fill="#B2958C" cx="580.2" cy="329.9" r="2.2"/>
			<circle fill="#B2958C" cx="593.1" cy="334.9" r="2.2"/>
			<circle fill="#B2958C" cx="606.5" cy="338.5" r="2.2"/>
		</g>
		<g>
			<circle fill="#B2958C" cx="502.4" cy="195.2" r="2.2"/>
			<circle fill="#B2958C" cx="501.7" cy="209" r="2.2"/>
			<circle fill="#B2958C" cx="502.4" cy="222.9" r="2.2"/>
			<circle fill="#B2958C" cx="504.6" cy="236.6" r="2.2"/>
			<circle fill="#B2958C" cx="508.1" cy="249.9" r="2.2"/>
		</g>
	</g>
</g>
<g id="Layer_2">
</g>
<g id="Layer_3">
</g>
</svg>
