<svg enable-background="new 0 0 1268 418" viewBox="0 0 1268 418" xmlns="http://www.w3.org/2000/svg" xmlns:xlink="http://www.w3.org/1999/xlink"><symbol id="a" viewBox="-6.6 -6.6 13.3 13.3"><path d="m-4.3-4.3 8.6 8.6" style="fill:none;stroke:#7a7a8c;stroke-width:.9992;stroke-linecap:round;stroke-linejoin:round;stroke-miterlimit:3.997"/><path d="m-4.3 4.3 8.6-8.6" style="fill:none;stroke:#7a7a8c;stroke-width:.9992;stroke-linecap:round;stroke-linejoin:round;stroke-miterlimit:3.997"/><path d="m-6.1 0h12.2" style="fill:none;stroke:#7a7a8c;stroke-width:.9992;stroke-linecap:round;stroke-linejoin:round;stroke-miterlimit:3.997"/><path d="m0-6.1v12.2" style="fill:none;stroke:#7a7a8c;stroke-width:.9992;stroke-linecap:round;stroke-linejoin:round;stroke-miterlimit:3.997"/></symbol><path d="m35.1 391.4h1219.9v-385.7h-1219.9z" fill="none" stroke="#ccc" stroke-miterlimit="10" stroke-width=".98"/><text fill="#ccc" font-family="'RobotoMono-Regular'" font-size="18" transform="matrix(0 -1 1 0 21.3 375.5)">−4</text><text fill="#ccc" font-family="'RobotoMono-Regular'" font-size="18" transform="matrix(0 -1 1 0 21.3 289.2998)">−2</text><text fill="#ccc" font-family="'RobotoMono-Regular'" font-size="18" transform="matrix(0 -1 1 0 21.3 192.7002)">0</text><text fill="#ccc" font-family="'RobotoMono-Regular'" font-size="18" transform="matrix(0 -1 1 0 21.3 106.5)">2</text><text fill="#ccc" font-family="'RobotoMono-Regular'" font-size="18" transform="matrix(0 -1 1 0 21.3 20.4004)">4</text><path d="m30 187.7h5.1" fill="none" stroke="#ccc" stroke-miterlimit="10"/><path d="m30 187.7h5.1" fill="none" stroke="#ccc" stroke-miterlimit="10"/><path d="m30 274.5h5.1" fill="none" stroke="#ccc" stroke-miterlimit="10"/><path d="m30 274.5h5.1" fill="none" stroke="#ccc" stroke-miterlimit="10"/><path d="m30 359h5.1" fill="none" stroke="#ccc" stroke-miterlimit="10"/><path d="m30 101.3h5.1" fill="none" stroke="#ccc" stroke-miterlimit="10"/><path d="m30 15.5h5.1" fill="none" stroke="#ccc" stroke-miterlimit="10"/><text fill="#ccc" font-family="'RobotoMono-Regular'" font-size="18" transform="translate(91.1745 413.1)">aa</text><use height="13.3" transform="matrix(1.1 0 0 -1.1 100.1195 249.5205)" width="13.3" x="-6.6" xlink:href="#a" y="-6.6"/><use height="13.3" transform="matrix(1.1 0 0 -1.1 100.1195 262.4305)" width="13.3" x="-6.6" xlink:href="#a" y="-6.6"/><use height="13.3" transform="matrix(1.1 0 0 -1.1 100.1195 258.2405)" width="13.3" x="-6.6" xlink:href="#a" y="-6.6"/><use height="13.3" transform="matrix(1.1 0 0 -1.1 100.1195 275.5605)" width="13.3" x="-6.6" xlink:href="#a" y="-6.6"/><use height="13.3" transform="matrix(1.1 0 0 -1.1 100.1195 282.8405)" width="13.3" x="-6.6" xlink:href="#a" y="-6.6"/><use height="13.3" transform="matrix(1.1 0 0 -1.1 100.1195 292.4405)" width="13.3" x="-6.6" xlink:href="#a" y="-6.6"/><use height="13.3" transform="matrix(1.1 0 0 -1.1 100.1195 289.5805)" width="13.3" x="-6.6" xlink:href="#a" y="-6.6"/><use height="13.3" transform="matrix(1.1 0 0 -1.1 100.1195 301.8205)" width="13.3" x="-6.6" xlink:href="#a" y="-6.6"/><use height="13.3" transform="matrix(1.1 0 0 -1.1 100.1195 103.4105)" width="13.3" x="-6.6" xlink:href="#a" y="-6.6"/><use height="13.3" transform="matrix(1.1 0 0 -1.1 100.1195 106.8305)" width="13.3" x="-6.6" xlink:href="#a" y="-6.6"/><use height="13.3" transform="matrix(1.1 0 0 -1.1 100.1195 110.2505)" width="13.3" x="-6.6" xlink:href="#a" y="-6.6"/><use height="13.3" transform="matrix(1.1 0 0 -1.1 100.1195 115.3305)" width="13.3" x="-6.6" xlink:href="#a" y="-6.6"/><use height="13.3" transform="matrix(1.1 0 0 -1.1 100.1195 111.5705)" width="13.3" x="-6.6" xlink:href="#a" y="-6.6"/><use height="13.3" transform="matrix(1.1 0 0 -1.1 100.1195 125.8105)" width="13.3" x="-6.6" xlink:href="#a" y="-6.6"/><use height="13.3" transform="matrix(1.1 0 0 -1.1 100.1195 127.0205)" width="13.3" x="-6.6" xlink:href="#a" y="-6.6"/><use height="13.3" transform="matrix(1.1 0 0 -1.1 100.1195 76.2605)" width="13.3" x="-6.6" xlink:href="#a" y="-6.6"/><use height="13.3" transform="matrix(1.1 0 0 -1.1 100.1195 68.8705)" width="13.3" x="-6.6" xlink:href="#a" y="-6.6"/><use height="13.3" transform="matrix(1.1 0 0 -1.1 100.1195 83.8805)" width="13.3" x="-6.6" xlink:href="#a" y="-6.6"/><use height="13.3" transform="matrix(1.1 0 0 -1.1 100.1195 76.2605)" width="13.3" x="-6.6" xlink:href="#a" y="-6.6"/><use height="13.3" transform="matrix(1.1 0 0 -1.1 100.1195 68.8705)" width="13.3" x="-6.6" xlink:href="#a" y="-6.6"/><path d="m82.6 131h35.2v117.8h-35.2z" fill="#e6e6f8" stroke="#7c7c8e" stroke-miterlimit="10" stroke-width="1.1"/><path d="m64.9 161.7h70.4v62.2h-70.4z" fill="#d2d2e4" stroke="#7c7c8e" stroke-miterlimit="10" stroke-width="1.1"/><path d="m100.8 397.4v-5.1" fill="none" stroke="#ccc" stroke-miterlimit="10"/><text fill="#ccc" font-family="'RobotoMono-Regular'" font-size="18" transform="translate(1175.9165 413.1)">aa</text><use height="13.3" transform="matrix(1.1 0 0 -1.1 1184.8615 299.6481)" width="13.3" x="-6.6" xlink:href="#a" y="-6.6"/><use height="13.3" transform="matrix(1.1 0 0 -1.1 1184.8615 312.5581)" width="13.3" x="-6.6" xlink:href="#a" y="-6.6"/><use height="13.3" transform="matrix(1.1 0 0 -1.1 1184.8615 308.3681)" width="13.3" x="-6.6" xlink:href="#a" y="-6.6"/><use height="13.3" transform="matrix(1.1 0 0 -1.1 1184.8615 332.9681)" width="13.3" x="-6.6" xlink:href="#a" y="-6.6"/><use height="13.3" transform="matrix(1.1 0 0 -1.1 1184.8615 153.5381)" width="13.3" x="-6.6" xlink:href="#a" y="-6.6"/><use height="13.3" transform="matrix(1.1 0 0 -1.1 1184.8615 156.9581)" width="13.3" x="-6.6" xlink:href="#a" y="-6.6"/><use height="13.3" transform="matrix(1.1 0 0 -1.1 1184.8615 160.3781)" width="13.3" x="-6.6" xlink:href="#a" y="-6.6"/><use height="13.3" transform="matrix(1.1 0 0 -1.1 1184.8615 165.4581)" width="13.3" x="-6.6" xlink:href="#a" y="-6.6"/><use height="13.3" transform="matrix(1.1 0 0 -1.1 1184.8615 161.6982)" width="13.3" x="-6.6" xlink:href="#a" y="-6.6"/><use height="13.3" transform="matrix(1.1 0 0 -1.1 1184.8615 175.9381)" width="13.3" x="-6.6" xlink:href="#a" y="-6.6"/><use height="13.3" transform="matrix(1.1 0 0 -1.1 1184.8615 177.1481)" width="13.3" x="-6.6" xlink:href="#a" y="-6.6"/><use height="13.3" transform="matrix(1.1 0 0 -1.1 1184.8615 126.3882)" width="13.3" x="-6.6" xlink:href="#a" y="-6.6"/><use height="13.3" transform="matrix(1.1 0 0 -1.1 1184.8615 134.0081)" width="13.3" x="-6.6" xlink:href="#a" y="-6.6"/><path d="m1167.3 181.1h35.2v117.8h-35.2z" fill="#e6e6f8" stroke="#7c7c8e" stroke-miterlimit="10" stroke-width="1.1"/><path d="m1149.6 221.4h70.4v43.1h-70.4z" fill="#d2d2e4" stroke="#7c7c8e" stroke-miterlimit="10" stroke-width=".9153"/><path d="m1185.5 397.4v-5.1" fill="none" stroke="#ccc" stroke-miterlimit="10"/><text fill="#ccc" font-family="'RobotoMono-Regular'" font-size="18" transform="translate(271.2148 412.5)">bb</text><use height="13.3" transform="matrix(1.1 0 0 -1.1 281.0498 306.1405)" width="13.3" x="-6.6" xlink:href="#a" y="-6.6"/><use height="13.3" transform="matrix(1.1 0 0 -1.1 281.0498 308.6805)" width="13.3" x="-6.6" xlink:href="#a" y="-6.6"/><use height="13.3" transform="matrix(1.1 0 0 -1.1 281.0498 323.4705)" width="13.3" x="-6.6" xlink:href="#a" y="-6.6"/><use height="13.3" transform="matrix(1.1 0 0 -1.1 281.0498 320.2705)" width="13.3" x="-6.6" xlink:href="#a" y="-6.6"/><use height="13.3" transform="matrix(1.1 0 0 -1.1 281.0498 32.6905)" width="13.3" x="-6.6" xlink:href="#a" y="-6.6"/><use height="13.3" transform="matrix(1.1 0 0 -1.1 281.0498 42.5105)" width="13.3" x="-6.6" xlink:href="#a" y="-6.6"/><use height="13.3" transform="matrix(1.1 0 0 -1.1 281.0498 44.8305)" width="13.3" x="-6.6" xlink:href="#a" y="-6.6"/><use height="13.3" transform="matrix(1.1 0 0 -1.1 281.0498 60.1605)" width="13.3" x="-6.6" xlink:href="#a" y="-6.6"/><use height="13.3" transform="matrix(1.1 0 0 -1.1 281.0498 22.6405)" width="13.3" x="-6.6" xlink:href="#a" y="-6.6"/><use height="13.3" transform="matrix(1.1 0 0 -1.1 281.0498 337.8205)" width="13.3" x="-6.6" xlink:href="#a" y="-6.6"/><g stroke-miterlimit="10"><path d="m273.3 60.5h15.1v242.4h-15.1z" fill="#e6e6f8" stroke="#7c7c8e" stroke-width="1.1"/><path d="m265.9 71.8h30.2v220.2h-30.2z" fill="#dfdff1" stroke="#7c7c8e" stroke-width="1.1"/><path d="m258.4 89.7h45.1v181.8h-45.1z" fill="#d8d8ea" stroke="#7c7c8e" stroke-width="1.1"/><path d="m250.8 107.1h60.3v147.1h-60.3z" fill="#d2d2e4" stroke="#7c7c8e" stroke-width="1.1"/><path d="m243.3 124.2h75.4v111.2h-75.4z" fill="#cbcbdd" stroke="#7c7c8e" stroke-width="1.1"/><path d="m235.6 145.9h90.5v63.8h-90.5z" fill="#c5c5d7" stroke="#7c7c8e" stroke-width="1.1"/><path d="m273.3 60.5h15.1v242.4h-15.1z" fill="#e6e6f8" stroke="#7c7c8e" stroke-width="1.1"/><path d="m265.9 71.8h30.2v220.2h-30.2z" fill="#dfdff1" stroke="#7c7c8e" stroke-width="1.1"/><path d="m258.4 89.7h45.1v181.8h-45.1z" fill="#d8d8ea" stroke="#7c7c8e" stroke-width="1.1"/><path d="m250.8 107.1h60.3v147.1h-60.3z" fill="#d2d2e4" stroke="#7c7c8e" stroke-width="1.1"/><path d="m243.3 124.2h75.4v111.2h-75.4z" fill="#cbcbdd" stroke="#7c7c8e" stroke-width="1.1"/><path d="m235.6 145.9h90.5v63.8h-90.5z" fill="#c5c5d7" stroke="#7c7c8e" stroke-width="1.1"/><path d="m280.8 396.8v-5.1" fill="none" stroke="#ccc"/></g><text fill="#ccc" font-family="'RobotoMono-Regular'" font-size="18" transform="translate(994.3762 412.5)">bb</text><use height="13.3" transform="matrix(1.1 0 0 -1.1 1004.2111 339.1172)" width="13.3" x="-6.6" xlink:href="#a" y="-6.6"/><use height="13.3" transform="matrix(1.1 0 0 -1.1 1004.2111 341.6572)" width="13.3" x="-6.6" xlink:href="#a" y="-6.6"/><use height="13.3" transform="matrix(1.1 0 0 -1.1 1004.2111 356.4472)" width="13.3" x="-6.6" xlink:href="#a" y="-6.6"/><use height="13.3" transform="matrix(1.1 0 0 -1.1 1004.2111 353.2472)" width="13.3" x="-6.6" xlink:href="#a" y="-6.6"/><use height="13.3" transform="matrix(1.1 0 0 -1.1 1004.2111 65.6672)" width="13.3" x="-6.6" xlink:href="#a" y="-6.6"/><use height="13.3" transform="matrix(1.1 0 0 -1.1 1004.2111 75.4872)" width="13.3" x="-6.6" xlink:href="#a" y="-6.6"/><use height="13.3" transform="matrix(1.1 0 0 -1.1 1004.2111 77.8072)" width="13.3" x="-6.6" xlink:href="#a" y="-6.6"/><use height="13.3" transform="matrix(1.1 0 0 -1.1 1004.2111 93.1372)" width="13.3" x="-6.6" xlink:href="#a" y="-6.6"/><use height="13.3" transform="matrix(1.1 0 0 -1.1 1004.2111 370.7972)" width="13.3" x="-6.6" xlink:href="#a" y="-6.6"/><path d="m996.5 93.5h15.1v242.4h-15.1z" fill="#e6e6f8" stroke="#7c7c8e" stroke-miterlimit="10" stroke-width="1.1"/><path d="m989.1 104.8h30.2v220.2h-30.2z" fill="#dfdff1" stroke="#7c7c8e" stroke-miterlimit="10" stroke-width="1.1"/><path d="m981.6 122.7h45.1v181.8h-45.1z" fill="#d8d8ea" stroke="#7c7c8e" stroke-miterlimit="10" stroke-width="1.1"/><path d="m974 140.1h60.3v147.1h-60.3z" fill="#d2d2e4" stroke="#7c7c8e" stroke-miterlimit="10" stroke-width="1.1"/><path d="m966.5 157.2h75.4v111.2h-75.4z" fill="#cbcbdd" stroke="#7c7c8e" stroke-miterlimit="10" stroke-width="1.1"/><path d="m958.8 178.9h90.5v63.8h-90.5z" fill="#c5c5d7" stroke="#7c7c8e" stroke-miterlimit="10" stroke-width="1.1"/><path d="m996.5 93.5h15.1v242.4h-15.1z" fill="#e6e6f8" stroke="#7c7c8e" stroke-miterlimit="10" stroke-width="1.1"/><path d="m989.1 104.8h30.2v220.2h-30.2z" fill="#dfdff1" stroke="#7c7c8e" stroke-miterlimit="10" stroke-width="1.1"/><path d="m981.6 122.7h45.1v181.8h-45.1z" fill="#d8d8ea" stroke="#7c7c8e" stroke-miterlimit="10" stroke-width="1.1"/><path d="m974 140.1h60.3v147.1h-60.3z" fill="#d2d2e4" stroke="#7c7c8e" stroke-miterlimit="10" stroke-width="1.1"/><path d="m966.5 157.2h75.4v111.2h-75.4z" fill="#cbcbdd" stroke="#7c7c8e" stroke-miterlimit="10" stroke-width="1.1"/><path d="m958.8 178.9h90.5v63.8h-90.5z" fill="#c5c5d7" stroke="#7c7c8e" stroke-miterlimit="10" stroke-width="1.1"/><path d="m1004 396.8v-5.1" fill="none" stroke="#ccc" stroke-miterlimit="10"/><text fill="#ccc" font-family="'RobotoMono-Regular'" font-size="18" transform="translate(451.9551 412.5)">cc</text><use height="13.3" transform="matrix(1.1 0 0 -1.1 461.5301 18.6605)" width="13.3" x="-6.6" xlink:href="#a" y="-6.6"/><use height="13.3" transform="matrix(1.1 0 0 -1.1 461.5301 23.4005)" width="13.3" x="-6.6" xlink:href="#a" y="-6.6"/><use height="13.3" transform="matrix(1.1 0 0 -1.1 461.5301 44.1505)" width="13.3" x="-6.6" xlink:href="#a" y="-6.6"/><use height="13.3" transform="matrix(1.1 0 0 -1.1 461.5301 46.2405)" width="13.3" x="-6.6" xlink:href="#a" y="-6.6"/><use height="13.3" transform="matrix(1.1 0 0 -1.1 461.8601 55.7405)" width="13.3" x="-6.6" xlink:href="#a" y="-6.6"/><use height="13.3" transform="matrix(1.1 0 0 -1.1 461.5301 356.0105)" width="13.3" x="-6.6" xlink:href="#a" y="-6.6"/><use height="13.3" transform="matrix(1.1 0 0 -1.1 461.5301 361.2005)" width="13.3" x="-6.6" xlink:href="#a" y="-6.6"/><use height="13.3" transform="matrix(1.1 0 0 -1.1 461.5301 379.2805)" width="13.3" x="-6.6" xlink:href="#a" y="-6.6"/><use height="13.3" transform="matrix(1.1 0 0 -1.1 461.5301 348.1705)" width="13.3" x="-6.6" xlink:href="#a" y="-6.6"/><use height="13.3" transform="matrix(1.1 0 0 -1.1 461.5301 352.3705)" width="13.3" x="-6.6" xlink:href="#a" y="-6.6"/><path d="m456.5 59.6h10.5v283.2h-10.5z" fill="#e6e6f8" stroke="#7c7c8e" stroke-miterlimit="10" stroke-width="1.1"/><path d="m451.2 67.6h21.1v261.5h-21.1z" fill="#e1e1f3" stroke="#7c7c8e" stroke-miterlimit="10" stroke-width="1.1"/><path d="m446 74.9h31.6v245.7h-31.6z" fill="#ddddef" stroke="#7c7c8e" stroke-miterlimit="10" stroke-width="1.1"/><path d="m440.7 88.1h42.3v221.4h-42.3z" fill="#d8d8ea" stroke="#7c7c8e" stroke-miterlimit="10" stroke-width="1.1"/><path d="m435.3 100h52.7v198.3h-52.7z" fill="#d4d4e6" stroke="#7c7c8e" stroke-miterlimit="10" stroke-width="1.1"/><path d="m430 113.5h63.3v169.3h-63.3z" fill="#d0d0e2" stroke="#7c7c8e" stroke-miterlimit="10" stroke-width="1.1"/><path d="m424.8 129.9h73.8v134.8h-73.8z" fill="#cbcbdd" stroke="#7c7c8e" stroke-miterlimit="10" stroke-width="1.1"/><path d="m419.5 147.5h84.5v99.7h-84.5z" fill="#c7c7d9" stroke="#7c7c8e" stroke-miterlimit="10" stroke-width="1.1"/><path d="m414.2 169.5h95v55.9h-95z" fill="#c2c2d4" stroke="#7c7c8e" stroke-miterlimit="10" stroke-width="1.1"/><path d="m461.6 396.8v-5.1" fill="none" stroke="#ccc" stroke-miterlimit="10"/><text fill="#ccc" font-family="'RobotoMono-Regular'" font-size="18" transform="translate(813.5358 412.5)">cc</text><use height="13.3" transform="matrix(1.1 0 0 -1.1 823.1108 16.4005)" width="13.3" x="-6.6" xlink:href="#a" y="-6.6"/><use height="13.3" transform="matrix(1.1 0 0 -1.1 823.1108 37.1505)" width="13.3" x="-6.6" xlink:href="#a" y="-6.6"/><use height="13.3" transform="matrix(1.1 0 0 -1.1 823.4408 48.7405)" width="13.3" x="-6.6" xlink:href="#a" y="-6.6"/><use height="13.3" transform="matrix(1.1 0 0 -1.1 823.1108 344.0105)" width="13.3" x="-6.6" xlink:href="#a" y="-6.6"/><use height="13.3" transform="matrix(1.1 0 0 -1.1 823.1108 349.2005)" width="13.3" x="-6.6" xlink:href="#a" y="-6.6"/><use height="13.3" transform="matrix(1.1 0 0 -1.1 823.1108 367.2805)" width="13.3" x="-6.6" xlink:href="#a" y="-6.6"/><use height="13.3" transform="matrix(1.1 0 0 -1.1 823.1108 336.1705)" width="13.3" x="-6.6" xlink:href="#a" y="-6.6"/><path d="m812.7 60.6h21.1v261.5h-21.1z" fill="#e1e1f3" stroke="#7c7c8e" stroke-miterlimit="10" stroke-width="1.1"/><path d="m807.5 67.9h31.6v245.7h-31.6z" fill="#ddddef" stroke="#7c7c8e" stroke-miterlimit="10" stroke-width="1.1"/><path d="m802.2 81.1h42.3v221.4h-42.3z" fill="#d8d8ea" stroke="#7c7c8e" stroke-miterlimit="10" stroke-width="1.1"/><path d="m796.8 93h52.7v198.3h-52.7z" fill="#d4d4e6" stroke="#7c7c8e" stroke-miterlimit="10" stroke-width="1.1"/><path d="m791.5 106.5h63.3v169.3h-63.3z" fill="#d0d0e2" stroke="#7c7c8e" stroke-miterlimit="10" stroke-width="1.1"/><path d="m786.3 122.9h73.8v134.8h-73.8z" fill="#cbcbdd" stroke="#7c7c8e" stroke-miterlimit="10" stroke-width="1.1"/><path d="m781 140.5h84.5v99.7h-84.5z" fill="#c7c7d9" stroke="#7c7c8e" stroke-miterlimit="10" stroke-width="1.1"/><path d="m775.7 167.5h95v45.9h-95z" fill="#c2c2d4" stroke="#7c7c8e" stroke-miterlimit="10" stroke-width=".9964"/><path d="m823.1 396.8v-5.1" fill="none" stroke="#ccc" stroke-miterlimit="10"/><text fill="#ccc" font-family="'RobotoMono-Regular'" font-size="18" transform="translate(632.7955 412.5)">dd</text><use height="13.3" transform="matrix(1.1 0 0 -1.1 642.3605 340.5605)" width="13.3" x="-6.6" xlink:href="#a" y="-6.6"/><use height="13.3" transform="matrix(1.1 0 0 -1.1 642.3605 321.6905)" width="13.3" x="-6.6" xlink:href="#a" y="-6.6"/><use height="13.3" transform="matrix(1.1 0 0 -1.1 642.3605 324.3405)" width="13.3" x="-6.6" xlink:href="#a" y="-6.6"/><use height="13.3" transform="matrix(1.1 0 0 -1.1 642.4705 119.3005)" width="13.3" x="-6.6" xlink:href="#a" y="-6.6"/><use height="13.3" transform="matrix(1.1 0 0 -1.1 642.4705 110.1405)" width="13.3" x="-6.6" xlink:href="#a" y="-6.6"/><use height="13.3" transform="matrix(1.1 0 0 -1.1 642.4705 101.0905)" width="13.3" x="-6.6" xlink:href="#a" y="-6.6"/><use height="13.3" transform="matrix(1.1 0 0 -1.1 642.4705 82.7705)" width="13.3" x="-6.6" xlink:href="#a" y="-6.6"/><path d="m629.6 128.2h25.7v184.5h-25.7z" fill="#dfdff1" stroke="#7c7c8e" stroke-miterlimit="10" stroke-width="1.1"/><path d="m614.4 135.4h55.9v167.4h-55.9z" fill="#d8d8ea" stroke="#7c7c8e" stroke-miterlimit="10" stroke-width="1.1"/><path d="m606.3 145.7h72.1v147.1h-72.1z" fill="#d2d2e4" stroke="#7c7c8e" stroke-miterlimit="10" stroke-width="1.1"/><path d="m601.2 162.8h82.5v111.2h-82.5z" fill="#cbcbdd" stroke="#7c7c8e" stroke-miterlimit="10" stroke-width="1.1"/><path d="m597.2 184.7h90.5v63.8h-90.5z" fill="#c5c5d7" stroke="#7c7c8e" stroke-miterlimit="10" stroke-width="1.1"/><path d="m642.4 396.8v-5.1" fill="none" stroke="#ccc" stroke-miterlimit="10"/></svg>