<svg xmlns="http://www.w3.org/2000/svg" width="256" height="256" viewBox="0 0 256 256"><title>icon_sketch</title><path d="M150.4,159.6h-7.7V90.8h7.7V69.1h7.5V52h7.6V34.6h50.1V52h7.6V69.1h7.6V90.8h7.4v68.8h-7.4v25.7h-7.6v18.8h-7.6v17.3H165.5V204.1h-7.6V185.3h-7.5Zm60.2,44.5H170.5v12.3h40.1Zm7.6-18.8H162.9v13.8h55.3Zm7.6-25.7H155.4v20.7h70.4ZM170.5,52h40.1V39.6H170.5Zm-7.6,17.1h55.3V57H162.9Zm-7.5,21.7h70.4V74.1H155.4Zm75.4,63.8h2.4V95.8H147.7v58.8ZM35.5,159.8H17.8V92.6H35.5V61.9H75.7V92.6H93.2v67.2H75.7v24.9H35.5Zm35.2,0H40.5v19.9H70.7ZM40.5,92.6H70.7V66.9H40.5Zm-5,62.2H88.2V97.6H22.8v57.2Z"/></svg>