<?xml version="1.0" encoding="utf-8"?>
<!-- Generator: Adobe Illustrator 22.1.0, SVG Export Plug-In . SVG Version: 6.00 Build 0)  -->
<svg version="1.1" id="Layer_1" xmlns="http://www.w3.org/2000/svg" xmlns:xlink="http://www.w3.org/1999/xlink" x="0px" y="0px"
	 viewBox="0 0 256 256" style="enable-background:new 0 0 256 256;" xml:space="preserve">
<path d="M244.9,221.1v-45.7c4.3-2.3,7.1-6.8,7.1-12c0-7.6-6.1-13.7-13.7-13.7c-1.9,0-3.7,0.4-5.4,1.1l-20.1-15.4
	c0.1-0.7,0.2-1.5,0.2-2.3c0-5.2-2.9-9.7-7.1-12V27.7c4.3-2.3,7.1-6.8,7.1-12C213,8.1,206.9,2,199.3,2c-7.6,0-13.7,6.1-13.7,13.7
	c0,5.2,2.9,9.7,7.1,12v93.4c-2.3,1.3-4.2,3.2-5.5,5.5h-32.1c-2.3-4.3-6.8-7.1-12-7.1c-0.2,0-0.3,0-0.5,0c-4.9,0.2-9.1,2.9-11.4,6.9
	l-31.3,0.2c-1.5-3.3-4.1-6-7.3-7.5l-0.1-43.6c3.3-1.8,5.7-4.8,6.7-8.5c0-0.1,0-0.1,0-0.2c0.1-0.3,0.2-0.6,0.2-0.9
	c0-0.2,0-0.3,0.1-0.5c0-0.2,0.1-0.5,0.1-0.7c0-0.4,0.1-0.8,0.1-1.3c0-7.6-6.1-13.7-13.7-13.7c-0.4,0-0.9,0-1.3,0.1
	c-0.3,0-0.6,0.1-1,0.1c-0.1,0-0.2,0-0.3,0c-0.4,0.1-0.8,0.2-1.2,0.3c0,0,0,0,0,0c-2,0.6-3.9,1.6-5.4,3c0,0-0.1,0.1-0.1,0.1
	c-0.4,0.4-0.8,0.7-1.1,1.1c0,0,0,0,0,0c-0.7,0.8-1.3,1.7-1.8,2.7c0,0.1-0.1,0.2-0.1,0.3c-0.2,0.4-0.4,0.8-0.5,1.2
	c0,0.1-0.1,0.2-0.1,0.3C72.8,60,72.5,61,72.4,62c0,0,0,0,0,0c-0.1,0.5-0.1,1-0.1,1.5c0,0.4,0,0.8,0.1,1.2c0,0.1,0,0.2,0,0.3
	c0,0.4,0.1,0.7,0.2,1.1c0,0,0,0.1,0,0.1c0.1,0.4,0.2,0.8,0.3,1.2c0,0.1,0.1,0.2,0.1,0.3c0.1,0.3,0.2,0.6,0.3,0.9
	c0,0.1,0.1,0.2,0.1,0.2c0.2,0.4,0.3,0.7,0.5,1c0.1,0.1,0.1,0.2,0.2,0.3c0.1,0.3,0.3,0.5,0.5,0.8c0.1,0.1,0.1,0.2,0.2,0.3
	c0.2,0.3,0.4,0.6,0.7,0.9c0.1,0.1,0.2,0.2,0.2,0.3c0.2,0.2,0.4,0.4,0.6,0.6c0.1,0.1,0.2,0.2,0.3,0.3c0.3,0.3,0.5,0.5,0.8,0.7
	c0.1,0.1,0.2,0.1,0.3,0.2c0.2,0.2,0.4,0.3,0.6,0.5c0.1,0.1,0.2,0.2,0.3,0.2c0.3,0.2,0.6,0.4,0.9,0.6c0,0,0,0,0,0l-0.1,43.7
	c-5,2.5-8.4,7.6-8.4,13.6l-47.1,20.7c-2.2-1.5-4.8-2.3-7.6-2.3c-7.6,0-13.7,6.1-13.7,13.7c0,7.6,6.1,13.7,13.7,13.7
	c7.5,0,13.6-6,13.7-13.5l46.6-20.4c0.8,0.7,1.7,1.2,2.6,1.7l-0.2,75c-4.3,2.3-7.2,6.8-7.2,12c0,7.6,6.1,13.7,13.7,13.7
	c7.6,0,13.7-6.1,13.7-13.7c0-5.2-2.9-9.7-7.1-12l0.2-74.6c3.2-1.4,5.7-3.9,7.3-6.9h31.5c2.3,4.3,6.8,7.1,12,7.1
	c5.2,0,9.7-2.9,12-7.1h32.1c2.3,4.3,6.8,7.1,12,7.1c1.9,0,3.7-0.4,5.4-1.1l20.1,15.4c-0.1,0.7-0.2,1.5-0.2,2.3c0,5.2,2.9,9.7,7.1,12
	v45.7c-4.3,2.3-7.1,6.8-7.1,12c0,7.6,6.1,13.7,13.7,13.7c7.6,0,13.7-6.1,13.7-13.7C252,228,249.1,223.5,244.9,221.1z M16.3,172
	c-3.9,0-7.1-3.2-7.1-7.1c0-3.9,3.2-7.1,7.1-7.1c3.9,0,7.1,3.2,7.1,7.1C23.4,168.8,20.2,172,16.3,172z M86.1,56.3
	c3.6,0,6.5,2.9,6.5,6.5c0,3.6-2.9,6.5-6.5,6.5c-3.6,0-6.5-2.9-6.5-6.5C79.7,59.2,82.6,56.3,86.1,56.3z M92.7,233.3
	c0,3.9-3.2,7.1-7.1,7.1c-3.9,0-7.1-3.2-7.1-7.1c0-3.9,3.2-7.1,7.1-7.1C89.5,226.2,92.7,229.4,92.7,233.3z M86.1,139.3
	c-3.6,0-6.5-2.9-6.5-6.5c0-3.6,2.9-6.5,6.5-6.5c1.7,0,3.2,0.7,4.4,1.7c0.7,0.6,1.2,1.4,1.6,2.3c0.3,0.8,0.5,1.6,0.5,2.5
	C92.6,136.4,89.7,139.3,86.1,139.3z M143.3,140.3C143.3,140.3,143.3,140.3,143.3,140.3c-0.1,0-0.2,0-0.2,0c-1,0-2-0.2-2.8-0.6
	c-2.4-1-4-3.3-4.3-5.9c0-0.1,0-0.1,0-0.2c0-0.1,0-0.3,0-0.4c0,0,0-0.1,0-0.1c0,0,0-0.1,0-0.1c0-4.1,3.3-7.3,7.3-7.3
	c4.1,0,7.3,3.3,7.3,7.3C150.7,137,147.4,140.3,143.3,140.3z M192.1,15.5c0-4.1,3.3-7.3,7.3-7.3c4.1,0,7.3,3.3,7.3,7.3
	c0,4.1-3.3,7.3-7.3,7.3C195.4,22.8,192.1,19.5,192.1,15.5z M205.9,136c-0.7,1.7-2.1,3-3.7,3.7c-0.9,0.4-1.8,0.6-2.8,0.6
	c-0.6,0-1.2-0.1-1.8-0.2l-1-0.3c-2.5-1.1-4.3-3.6-4.3-6.6c0-3.9,3.2-7.1,7.1-7.1c2.7,0,5.1,1.5,6.3,3.8c0.1,0.2,0.2,0.4,0.3,0.5
	c0.4,0.9,0.6,1.8,0.6,2.8C206.5,134.2,206.2,135.2,205.9,136z M231.3,163.5c0-3.8,3.1-7,7-7s7,3.1,7,7c0,3.8-3.1,7-7,7
	S231.3,167.3,231.3,163.5z M238.3,240.3c-3.9,0-7.1-3.2-7.1-7.1c0-3.9,3.2-7.1,7.1-7.1c3.9,0,7.1,3.2,7.1,7.1
	C245.4,237.1,242.2,240.3,238.3,240.3z"/>
</svg>
