<svg height="540" width="650" xmlns="http://www.w3.org/2000/svg"><path d="m483.4 287.1c-4.8 6.2-11.7 10.9-17.9 16a8.2 8.2 0 0 1 -6.1 1.4c-18.1-4.7-34.4.3-50.3 8.6-3.9 2-8 3.8-13.1 6.1a.7.7 0 0 1 -.8-1c5.3-6.7 9.6-12.3 14-17.7 9.6-11.7 20.5-22.7 28.7-35.3 6.4-9.9 14.3-17.2 24.9-18.5 18.4-2.4 34.8-9 50.5-18.2a29.5 29.5 0 0 1 5.9-2.1c6.1-1.5 12.2-3.6 18.4-4.3s12.4-.2 18.7-.2c-18.5-3.2-36.9-1.4-52.4 8.8s-33.9 8.8-50.8 13.2a.7.7 0 0 1 -.7-1.1 21 21 0 0 1 4.7-4.7c4.8-3.3 10.2-5.7 14.4-9.5a40.5 40.5 0 0 1 22.4-10.4c9.2-1.3 17.4-5.4 24.9-11.9a.7.7 0 0 0 -.7-1.1c-6.6 3.4-12.5 6.9-18.8 8.4-11.9 2.8-22.3 7.5-33.1 13.3-15.7 8.6-24.1 22.3-34.2 35.6-14.9 19.4-31.8 37.3-47.8 55.8a.8.8 0 0 1 -.9.1l-2.5-1.7a.7.7 0 0 1 -.2-.9c5.2-10.7 9.3-22.4 16.2-31.9 15-20.6 30.4-40.6 41.1-63.9 14.2-30.8 26.7-61.5 54.3-84.4 3.3-2.6-7.8 2.6-17.1 9.7a.6.6 0 0 1 -1-.6c.8-5.7 1.9-10.2 1.5-14.5s-1.9-8.3-3.2-12.5a.7.7 0 0 0 -1.3.1 8.6 8.6 0 0 0 .1 3.2c2.4 12.9 1.5 25-5.2 36.9-10.8 19.2-21 38.8-30.8 58.4-12.2 24.4-28.1 45.9-47.6 66.6a.6.6 0 0 1 -1.1-.4c-.6-10-1-17.8 7.2-25.2 11.1-10.1 20.6-22.2 30.1-33.9a28.4 28.4 0 0 0 6-18.1c0-.7-1.1-.9-1.3-.3-2.8 6.9-5 14.2-9.3 19.8a225.5 225.5 0 0 1 -27 28.3c-6.9 6-11.3 13-11.2 21.5.1 15.8-6 29.4-11.1 43.7s-17.8 21.2-31 25.9c-8.7 3.1-12.6-.6-12.6-10.3s1.4-21.5.8-32.2c-.3-6.1 2-9.9 6.2-13.4s9.8-7.2 13.6-11.6c10.4-11.8 22.5-23.2 23.2-40.1.8-18.7 11.6-29.5 26.9-36.3a44.9 44.9 0 0 0 24.6-26c3.9-9.9 6.5-20.4 15.7-27.1a.9.9 0 0 0 .4-.6.7.7 0 0 0 -1.1-.8c-1.9 1.6-6.4 6.6-8 5.6 1.3-5.8 2.4-14.8 3.8-20.6a.7.7 0 0 0 -1.3-.4 70.3 70.3 0 0 0 -3.5 12.7c-5.1 26.4-11.2 52-44 58.9a.7.7 0 0 1 -.8-.7c.5-5.1 1-10.1 1.6-15.2a.7.7 0 0 0 -1.4-.2c-1.2 4.4-2 9-3.1 13.5a72.8 72.8 0 0 1 -4.1 11c-2.8 6.9-7.6 13.5-8.3 20.6-1 9.2-2.2 18-8.2 24.9-9.5 11.1-20 21.5-30.7 32.7a.7.7 0 0 1 -1.1-.2c-5.8-13.4-4.4-24.2 2.1-34.8s13.7-22.4 19.2-34.3c3.4-7.1 6.1-15.6 5.6-23.2-.8-12.3 4.1-19.6 13.5-26.1 4.6-3.3 8.4-8.5 11-13.6a44.2 44.2 0 0 0 4.7-17.3c.6-10.8 7-17.1 14.8-22.9a.7.7 0 0 0 -.7-1.1c-8.4 4.2-15.5 9.7-16.5 21-1.4 17.3-9.7 30-27.6 38.5a.7.7 0 0 1 -.9-.9c4.1-11.5 7.8-21.5 11.3-31.6s8.5-22 10.8-33.4c1.5-7.4 4.5-12.7 10.2-16.8s9.3-6.2 13.9-9.3a.7.7 0 0 0 -.6-1.2c-12.9 5.4-24 12.5-27.7 28.6-2.9 12.7-7.8 25-12.6 37.1-6.3 15.6-11.8 31-11.4 48.5.3 14.9-5.5 28.3-17.2 39.7a.7.7 0 0 1 -1.1-.2c-2.8-8.5-5.5-15.8-7.8-23.2-5.7-18.2-7-36.5-1.9-55 2.2-7.8 5.6-14 12.6-19.1 16.9-12.4 26.9-29.1 22.8-50.9-2.7-14.2-6.7-28.2-10.4-42.2a.7.7 0 0 0 -1.3.2 184.2 184.2 0 0 0 5.7 29.6c6.5 22.2 1.8 41.3-15.4 56.3-7.8 6.9-14.1 14.2-17.8 24.7a.6.6 0 0 1 -1.2 0c-3.9-9.9-7.1-19.2-5.1-28.4 1.2-5.5 1.9-11.9.3-17.1-2.9-9-1.8-16.9.2-25.9 5.2-23.6-5.1-41.7-19-58.4-.5-.7-1.5.1-1 .8 13.3 20.4 24.2 41.4 13.5 67.8a.7.7 0 0 1 -.8.4c-18-5.2-24.6-13.5-25.5-31.7-.4-8.4-1.9-16.4-6-23.4a.7.7 0 0 0 -1.2.5c1.9 7.1 4.5 14.3 4.3 21.4-.6 18.4 8.6 28.7 24 35.9 2.4 1.2 5.2 4.6 5.4 7.2.8 8 .3 16.1.4 24.1 0 3.1-.9 6.6.1 9.4 5.3 15.4 7.1 31.3 8 47.3-.2 7-.2 13.9.6 18.2 1.3 6.9 2.9 13.8 4.6 20.7 2.9 11.6-7.9 16.2-3.4 33.2 6.1 22.8-.1 46.8-.8 62.4a64.7 64.7 0 0 1 -4.3 20.6.6.6 0 0 1 -1.2 0 64.7 64.7 0 0 1 -4.3-20.6c-.7-15.6.2-31.3 0-46.9-.1-4.9-.4-10.4-2.6-14.5-6.3-11.4-4.4-22.6-1.6-34.2 1.7-6.9 3.3-13.8 4.6-20.7 2.3-12.3-1.2-41.4-1.3-42.6-3.4-13.6-10.4-22.2-19.5-30.2h-.1c-1-.6-17.8-11.1-20.8-36.6a.7.7 0 0 0 -1.4 0c-.8 18.3 8.8 32.6 23.8 43.6 6.9 5.1 10.4 11.3 12.5 19.1 5.1 18.5 3.8 36.8-1.9 55-2.3 7.4-4.9 14.7-7.8 23.2a.7.7 0 0 1 -1.1.2c-11.7-11.4-17.5-24.8-17.1-39.7.3-17.5-5.2-32.9-11.5-48.5-4.8-12.1-9.7-24.4-12.6-37.1-3.7-16.1-14.8-23.2-27.7-28.6-.7-.3-1.3.8-.6 1.2 4.7 3.1 9.3 6.1 13.9 9.3s8.7 9.4 10.2 16.8c2.3 11.4 7 22.3 10.8 33.4s7.2 20.1 11.3 31.6a.7.7 0 0 1 -.9.9c-17.9-8.5-26.1-21.2-27.6-38.5-.9-11.3-8.1-16.8-16.5-21a.7.7 0 0 0 -.7 1.1h.1c7.7 5.8 14.1 12.1 14.7 22.9a46 46 0 0 0 4.7 17.3c2.6 5.1 6.4 10.3 11 13.6 9.4 6.5 14.4 13.8 13.5 26.1-.5 7.6 2.3 16.1 5.6 23.2 5.5 11.9 12.4 23.1 19.2 34.3s7.9 21.4 2.1 34.8a.7.7 0 0 1 -1.1.2c-10.7-11.2-21.2-21.6-30.7-32.7-5.9-6.9-7.2-15.7-8.2-24.9-.7-7.1-5.4-13.7-8.3-20.6a85.4 85.4 0 0 1 -4.1-11c-1-4.5-1.9-9.1-3.1-13.5a.7.7 0 0 0 -1.3.2l1.5 15.2a.7.7 0 0 1 -.8.7c-32.8-6.9-38.9-32.5-44-58.9a70.3 70.3 0 0 0 -3.5-12.7.7.7 0 0 0 -1.3.4l4.2 17.4-3.2 2-5.2-4.4a.7.7 0 0 0 -1.1.8 1.5 1.5 0 0 0 .4.6c9.3 6.7 11.8 17.2 15.7 27.1a44.9 44.9 0 0 0 24.6 26c15.4 6.8 26.1 17.6 26.9 36.3.7 16.9 12.9 28.3 23.2 40.1 3.9 4.4 9 7.7 13.6 11.6s6.5 7.3 6.2 13.4c-.5 10.7.7 21.5.8 32.2s-3.8 13.4-12.6 10.3c-13.1-4.7-25.4-10.4-31-25.9s-11.2-27.9-11-43.7c.1-8.5-4.4-15.5-11.2-21.5a219.4 219.4 0 0 1 -27.1-28.3c-4.3-5.6-6.5-12.9-9.3-19.8-.2-.6-1.2-.4-1.2.3a27.7 27.7 0 0 0 5.9 18.1c9.6 11.7 19 23.8 30.1 33.9 8.2 7.4 7.8 15.2 7.3 25.2a.7.7 0 0 1 -1.2.4c-19.5-20.7-35.4-42.2-47.6-66.6-9.8-19.6-20-39.2-30.8-58.4-6.6-11.9-7.6-24-5.2-36.9a6.9 6.9 0 0 0 .1-3.2.7.7 0 0 0 -1.3-.1c-1.2 4.2-2.9 8.3-3.2 12.5s.7 8.8 1.5 14.5a.6.6 0 0 1 -1 .6l-15.5-12c27.6 22.9 38.5 55.9 52.7 86.7 10.7 23.3 26.1 43.3 41.1 63.9 6.9 9.5 11 21.2 16.2 31.9a.7.7 0 0 1 -.2.9l-2.5 1.7a.6.6 0 0 1 -.8-.1c-16.1-18.5-33-36.4-47.8-55.8-10.2-13.3-18.5-27-34.3-35.6-10.8-5.8-21.2-10.5-33.1-13.3-6.3-1.5-12.2-5-18.8-8.4a.7.7 0 0 0 -.7 1.1c7.5 6.5 15.7 10.6 25 11.9a40.5 40.5 0 0 1 22.3 10.4c4.2 3.8 9.7 6.2 14.4 9.5a21 21 0 0 1 4.7 4.7.7.7 0 0 1 -.7 1.1c-16.9-4.4-35-2.8-50.8-13.2s-33.9-12-52.4-8.8c6.3 0 12.6-.6 18.8.2s12.2 2.8 18.3 4.3a29.5 29.5 0 0 1 5.9 2.1c15.7 9.2 32.1 15.8 50.5 18.2 10.6 1.3 18.6 8.6 24.9 18.5 8.2 12.6 19.1 23.6 28.7 35.3 4.4 5.4 8.7 11 14 17.7.5.6-.1 1.3-.8 1-5.1-2.3-9.2-4.1-13.1-6.1-15.9-8.3-32.2-13.3-50.3-8.6a8.3 8.3 0 0 1 -6.1-1.4c-6.2-5.1-13.1-9.8-17.9-16-9.9-12.7-22.3-15.5-37.1-12.3l-20.1 4.4a.7.7 0 0 0 .1 1.3c3.8 0 7.2.1 10.6-.1 9.3-.6 18.6-2.4 27.9-1.8 4.5.4 9.6 4.1 13.1 7.6 7.2 7.4 13.5 15.7 21.3 24.9a.8.8 0 0 1 .1.7c-3.5 9.1-11.3 12-27.8 7.7a.7.7 0 0 0 -.5 1.2c9.4 6 21.8 5.4 28.1-3.4 9.1-12.7 21.8-12.7 32.9-8.5 20 7.6 38.9 18.1 58 27.3a.7.7 0 0 1 .1 1.2c-11.6 6-21.5 11.5-31.9 16.1-6 2.7-12.8 3.8-19.4 5.3a121.8 121.8 0 0 1 -16.9 2.9c-3.4.3-6.7.3-10.1.4a.7.7 0 0 0 0 1.4 85.6 85.6 0 0 0 10.1.2 139.9 139.9 0 0 0 24.1-3.4c7.2-1.8 14-5.5 21.2-7.7 9.7-2.9 19.5-5.3 29.4-7.5 1.8-.4 4.3 1.1 6.4 2.1 4.4 2.2 8.6 5.8 13.3 6.6 11.6 2.1 15.3 10.2 19.2 19.9h.1c11.7 34.3-5.5 65.6-3.7 102.6.5 11.7-10.3 22.4-15.1 33.9a.7.7 0 0 0 .6 1h84.2a.8.8 0 0 0 .7-1c-4.9-11.5-15.7-22.2-15.1-33.9 1.7-37-15.5-68.3-3.7-102.6 3.9-9.7 7.6-17.8 19.2-19.9 4.7-.8 8.9-4.4 13.4-6.6 2-1 4.5-2.5 6.4-2.1 9.8 2.2 19.7 4.6 29.3 7.5 7.2 2.2 14 5.9 21.3 7.7s15.9 2.8 24 3.4a85.1 85.1 0 0 0 10.1-.2.7.7 0 0 0 0-1.4c-3.4-.1-6.7-.1-10-.4a123.2 123.2 0 0 1 -17-2.9c-6.6-1.5-13.4-2.6-19.4-5.3-10.4-4.6-20.3-10.1-31.8-16.1a.7.7 0 0 1 0-1.2c19.2-9.2 38-19.7 58-27.3 11.1-4.2 23.8-4.2 32.9 8.5 6.3 8.8 18.7 9.4 28.1 3.4a.7.7 0 0 0 -.5-1.2c-16.5 4.3-24.3 1.4-27.8-7.7a.8.8 0 0 1 .2-.7c7.7-9.2 14-17.5 21.2-24.9 3.5-3.5 8.6-7.2 13.2-7.6 9.2-.6 18.5 1.2 27.8 1.8 3.4.2 6.8.1 10.6.1.8 0 .9-1.2.2-1.3l-20.2-4.4c-14.8-3.2-27.2-.4-37.1 12.3z" fill="#505050"/><g font-family="MyriadPro-Regular, Myriad Pro" font-size="21.04"><text fill="#898888" transform="matrix(.91636273 .40034903 -.40034903 .91636273 135.1 49.6)"><tspan letter-spacing="-.02em">P</tspan><tspan x="10.7" y="0">oseidon</tspan></text><text fill="#898888" transform="translate(5.8 226.9)">He<tspan letter-spacing="0em" x="24.3" y="0">r</tspan><tspan x="31" y="0">a</tspan></text><text fill="#898888" transform="matrix(.87881711 .47715876 -.47715876 .87881711 25.3 83.7)">Hephaestus</text><text fill="#898888" transform="translate(56.2 323.1)"><tspan letter-spacing="0em">A</tspan><tspan x="12.8" y="0">pollo</tspan></text><text fill="#898888" transform="translate(65.9 369.9)"><tspan letter-spacing="0em">A</tspan><tspan x="12.8" y="0">ph</tspan><tspan letter-spacing="-.01em" x="36.5" y="0">r</tspan><tspan x="43.1" y="0">odi</tspan><tspan letter-spacing="-.01em" x="71.5" y="0">t</tspan><tspan x="78.3" y="0">e</tspan></text><text fill="#898888" transform="translate(471.2 369.9)">Hades</text><text fill="#898888" letter-spacing="0em" transform="translate(498.6 323.1)">A<tspan letter-spacing=".02em" x="12.8" y="0">r</tspan><tspan letter-spacing="-.01em" x="20.2" y="0">t</tspan><tspan letter-spacing="0em" x="27" y="0">emis</tspan></text><text fill="#898888" letter-spacing="-.01em" transform="translate(546.6 286.6)">A<tspan letter-spacing="0em" x="12.7" y="0">thena</tspan></text><text fill="#898888" transform="translate(262.5 529.7)">pa<tspan letter-spacing="0em" x="22.1" y="0">n</tspan><tspan letter-spacing="0em" x="33.7" y="0">theon</tspan></text><text fill="#898888" transform="matrix(.97397597 -.22665131 .22665131 .97397597 500.6 132.8)">O<tspan letter-spacing="0em" x="14.5" y="0">r</tspan><tspan letter-spacing="0em" x="21.5" y="0">ion</tspan></text><text fill="#898888" transform="matrix(.23 -.97 .97 .23 399.5 184.44)"><tspan letter-spacing="0em">E</tspan><tspan x="10.3" y="0">os</tspan></text><text fill="#898888" transform="matrix(.87881711 .47715876 -.47715876 .87881711 11.8 158.5)"><tspan letter-spacing="0em">D</tspan><tspan x="14.1" y="0">eme</tspan><tspan letter-spacing="-.01em" x="52.7" y="0">t</tspan><tspan x="59.6" y="0">er</tspan></text><text fill="#898888" transform="matrix(.45709793 .88941637 -.88941637 .45709793 220.9 20.8)"><tspan letter-spacing="0em">O</tspan><tspan letter-spacing="-.01em" x="14.6" y="0">c</tspan><tspan x="23.9" y="0">eanus</tspan></text><text fill="#898888" letter-spacing="-.01em" transform="matrix(.45709793 .88941637 -.88941637 .45709793 201.7 143.5)">A<tspan letter-spacing="0em" x="12.7" y="0">tlas</tspan></text><text fill="#fff" letter-spacing="-.01em" transform="matrix(.02094242 -.99978068 .99978068 .02094242 312.5 404.7)">Z<tspan letter-spacing="0em" x="11.4" y="0">eus</tspan></text><text fill="#898888" transform="matrix(.86 -.52 .52 .86 528.49 207.29)">Hestia</text><text fill="#898888" transform="matrix(.63 .77 -.77 .63 131.61 86.43)"><tspan letter-spacing="0em">C</tspan><tspan letter-spacing="-.01em" x="12.1" y="0">r</tspan><tspan x="18.8" y="0">onus</tspan></text><text fill="#898888" transform="matrix(.37298778 .92783625 -.92783625 .37298778 322.5 11.6)">E<tspan letter-spacing="0em" x="10.3" y="0">r</tspan><tspan letter-spacing="0em" x="17.3" y="0">is</tspan></text><text fill="#898888" transform="matrix(.82412619 -.56640624 .56640624 .82412619 404.9 119.2)"><tspan letter-spacing="0em">A</tspan><tspan x="12.8" y="0">idos</tspan></text><text fill="#898888" transform="matrix(.12360148 .99233194 -.99233194 .12360148 458.7 58.9)">Helios</text><text fill="#898888" transform="translate(561.7 226.1)">Dio<tspan letter-spacing="-.01em" x="30.5" y="0">n</tspan><tspan letter-spacing="-.01em" x="41.9" y="0">y</tspan><tspan letter-spacing="0em" x="51.7" y="0">sus</tspan></text><text fill="#898888" transform="translate(25.3 286.3)"><tspan letter-spacing="0em">A</tspan><tspan letter-spacing="-.01em" x="12.8" y="0">r</tspan><tspan x="19.5" y="0">es</tspan></text><text fill="#898888" transform="matrix(.77162458 -.63607822 .63607822 .77162458 405 83.7)"><tspan letter-spacing="-.01em">A</tspan><tspan x="12.6" y="0">gon</tspan></text><text fill="#898888" letter-spacing=".01em" transform="matrix(.46638664 .88458098 -.88458098 .46638664 162.5 168.3)">N<tspan letter-spacing="0em" x="14.1" y="0">ike</tspan></text><text fill="#898888" transform="matrix(.34037955 -.94028813 .94028813 .34037955 436.9 200.7)">Elpis</text></g></svg>
