<?xml version="1.0" encoding="utf-8"?>
<!-- Generator: Adobe Illustrator 19.2.0, SVG Export Plug-In . SVG Version: 6.00 Build 0)  -->
<svg version="1.1" id="Layer_1" xmlns="http://www.w3.org/2000/svg" xmlns:xlink="http://www.w3.org/1999/xlink" x="0px" y="0px"
	 width="1200px" height="493px" viewBox="0 0 1200 493" enable-background="new 0 0 1200 493" xml:space="preserve">
<rect x="503.676" y="-345.085" transform="matrix(-1.836970e-16 1 -1 -1.836970e-16 845.9154 -356.7325)" fill="#FFFFFF" width="195.297" height="1179.352"/>
<rect x="60.972" y="97.619" transform="matrix(-1.836970e-16 1 -1 -1.836970e-16 403.2115 85.9714)" fill="#7581BA" width="195.297" height="293.944"/>
<rect x="10.5" y="146.943" fill="none" stroke="#464A90" stroke-width="16" stroke-miterlimit="10" width="1180.369" height="192.998"/>
<polyline fill="none" stroke="#AFAFAF" stroke-width="8" stroke-miterlimit="10" points="10,113 10,73 303,73 303,113 "/>
<polyline fill="none" stroke="#AFAFAF" stroke-width="8" stroke-miterlimit="10" points="1196,374 1196,414 11,414 11,374 "/>
<line fill="none" stroke="#464A90" stroke-width="16" stroke-miterlimit="10" x1="600.684" y1="146.943" x2="600.684" y2="339.941"/>
<line fill="none" stroke="#464A90" stroke-width="16" stroke-miterlimit="10" x1="895.776" y1="146.943" x2="895.776" y2="339.941"/>
<line fill="none" stroke="#464A90" stroke-width="16" stroke-miterlimit="10" x1="305.592" y1="146.943" x2="305.592" y2="339.941"/>
<g>
	<text transform="matrix(1 0 0 1 139.6733 49.4492)" fill="#7F7F7F" font-family="'Roboto-Regular'" font-size="64.8392px">A</text>
</g>
<g>
	<g>
		<text transform="matrix(1 0 0 1 529.2109 489.4287)" fill="#7F7F7F" font-family="'Roboto-Regular'" font-size="64.8392px">A    4</text>
	</g>
	<g>
		<text transform="matrix(1 0 0 1 593.1055 476.793)" fill="#7F7F7F" font-family="'Roboto-Regular'" font-size="44.6526px">x</text>
	</g>
</g>
</svg>
