<?xml version="1.0" encoding="utf-8"?>
<!-- Generator: Adobe Illustrator 22.1.0, SVG Export Plug-In . SVG Version: 6.00 Build 0)  -->
<svg version="1.1" xmlns="http://www.w3.org/2000/svg" xmlns:xlink="http://www.w3.org/1999/xlink" x="0px" y="0px"
	 viewBox="0 0 1268 418" enable-background="new 0 0 1268 418" xml:space="preserve">
<g id="Layer_1">
	<rect x="2" y="77" fill="#AEA5BF" width="121" height="67"/>
	<text transform="matrix(1 0 0 1 59.3496 221.4333)" fill="#D1CDC9" font-family="'RobotoCondensed-Regular'" font-size="26px">1</text>
	<text transform="matrix(1 0 0 1 59.6833 313.2527)" fill="#D1CDC9" font-family="'RobotoCondensed-Regular'" font-size="26px">1</text>
	
		<text transform="matrix(1 0 0 1 690.4385 223.7668)" fill="#D1CDC9" font-family="'RobotoCondensed-Regular'" font-size="31.0837px">9</text>
	<text transform="matrix(1 0 0 1 59.0159 387.2856)" fill="#D1CDC9" font-family="'RobotoCondensed-Regular'" font-size="26px">9</text>
	<text transform="matrix(1 0 0 1 619.9316 19.88)" fill="#D1CDC9" font-family="'RobotoCondensed-Regular'" font-size="26px">10</text>
	<path fill="none" stroke="#C4C4C4" stroke-miterlimit="10" d="M3.3,67.2L3.3,67.2c0-11.6,9.4-21,21-21h584.4
		c9.9,0,19.3-4.4,25.6-12l0,0l0.5,0.6c6.3,7.2,15.5,11.4,25.1,11.4h584.4c11.6,0,21,9.4,21,21v0"/>
	<path fill="none" stroke="#C4C4C4" stroke-miterlimit="10" d="M1265.3,153.2L1265.3,153.2c0,11.6-9.4,21-21,21H722.9
		c-9.9,0-19.3,4.4-25.6,12l0,0l-0.5-0.6c-6.3-7.2-15.5-11.4-25.1-11.4H150.3c-11.6,0-21-9.4-21-21v0"/>
	<path fill="none" stroke="#C4C4C4" stroke-miterlimit="10" d="M128.3,153.2L128.3,153.2c0,11.6-9.4,21-21,21H90.9
		c-9.9,0-19.3,4.4-25.6,12h0l-0.5-0.6c-6.3-7.2-15.5-11.4-25.1-11.4H23.3c-11.6,0-21-9.4-21-21v0"/>
	<rect x="260" y="77" fill="#DDD9E0" width="116" height="67"/>
	<rect x="765" y="77" fill="#DDD9E0" width="116" height="67"/>
	<rect x="891" y="77" fill="#DDD9E0" width="116" height="67"/>
	<rect x="512" y="77" fill="#DDD9E0" width="117" height="67"/>
	<rect x="386" y="77" fill="#DDD9E0" width="116" height="67"/>
	<rect x="133" y="77" fill="#DDD9E0" width="117" height="67"/>
	<rect x="639" y="77" fill="#DDD9E0" width="116" height="67"/>
	<rect x="1017" y="77" fill="#DDD9E0" width="117" height="67"/>
	<rect x="1144" y="77" fill="#DDD9E0" width="122" height="67"/>
	<rect x="260" y="349" fill="#DDD9E0" width="116" height="67"/>
	<rect x="765" y="349" fill="#DDD9E0" width="116" height="67"/>
	<rect x="891" y="349" fill="#DDD9E0" width="116" height="67"/>
	<rect x="512" y="349" fill="#DDD9E0" width="117" height="67"/>
	<rect x="386" y="349" fill="#DDD9E0" width="116" height="67"/>
	<rect x="133" y="349" fill="#DDD9E0" width="117" height="67"/>
	<rect x="133" y="272" fill="#AEA5BF" width="117" height="67"/>
	<rect x="639" y="349" fill="#DDD9E0" width="116" height="67"/>
	<rect x="1017" y="349" fill="#DDD9E0" width="117" height="67"/>
	<rect x="1144" y="349" fill="#DDD9E0" width="122" height="67"/>
</g>
<g id="Layer_2">
</g>
<g id="Layer_3">
</g>
</svg>
