<svg xmlns="http://www.w3.org/2000/svg" width="1268" height="418" viewBox="0 0 1268 418"><defs><style>.a{fill:#67608c;}.a,.c,.d,.e,.f,.g,.h,.j{isolation:isolate;}.b,.e,.i{fill:none;stroke-miterlimit:10;}.b{stroke:#8b84a0;stroke-width:1.66px;}.c{fill:#938cb5;}.e{stroke:#1e143d;stroke-width:2.21px;}.f{fill:#564d7c;}.g{fill:#1e143d;}.h{fill:#ed4f3e;opacity:0.72;}.i{stroke:#c4c4c4;}.j{font-size:19px;fill:#d1cdc9;font-family:RobotoCondensed-Regular, Roboto Condensed;}</style></defs><title>cover</title><polygon class="a" points="949.8 70.3 87.8 307.6 115.2 327.5 491 308.8 655.8 299.2 906.4 276.4 1148.4 252.5 1180.6 192.7 1184.5 146 1113.5 76.4 949.8 70.3"/><line class="b" x1="984.6" y1="257.7" x2="654.5" y2="229.4"/><line class="b" x1="1150.6" y1="253.9" x2="654.5" y2="229.4"/><line class="b" x1="654.5" y1="229.4" x2="1158.8" y2="120.8"/><line class="b" x1="654.5" y1="229.4" x2="91.7" y2="307.7"/><line class="b" x1="654.5" y1="229.4" x2="496" y2="307.7"/><line class="b" x1="655.8" y1="299.2" x2="654.5" y2="229.4"/><line class="b" x1="1181" y1="188.1" x2="654.5" y2="229.4"/><line class="b" x1="1142.7" y1="180.6" x2="654.5" y2="229.4"/><line class="b" x1="1184.5" y1="146" x2="654.5" y2="229.4"/><line class="b" x1="1030.2" y1="177" x2="654.5" y2="229.4"/><line class="b" x1="654.5" y1="229.4" x2="1022.4" y2="130"/><line class="b" x1="1114.9" y1="77.7" x2="654.5" y2="229.4"/><line class="b" x1="949.8" y1="70.3" x2="654.5" y2="229.4"/><line class="b" x1="702.8" y1="273.8" x2="654.5" y2="229.4"/><line class="b" x1="321" y1="306.1" x2="654.5" y2="229.4"/><line class="b" x1="397.7" y1="300.5" x2="654.5" y2="229.4"/><line class="b" x1="654.5" y1="229.4" x2="639.3" y2="166.7"/><line class="b" x1="654.5" y1="229.4" x2="715.1" y2="157.4"/><line class="b" x1="654.5" y1="229.4" x2="115.2" y2="327.5"/><line class="b" x1="654.5" y1="229.4" x2="1045.9" y2="134.9"/><line class="b" x1="654.5" y1="229.4" x2="461.3" y2="219.1"/><polygon class="c" points="780.7 161.4 502.6 222.1 382.6 267.9 368.7 281.4 400.6 287.8 432.8 290.8 654.1 263.6 813 243.6 835.4 238.2 958.4 205.9 984 196.5 1000.1 181.2 1011 173.3 1021 150.8 1016.1 142.4 986.3 139.8 919.2 142.2 780.7 161.4"/><g class="d"><line class="e" x1="655.4" y1="217.4" x2="653.7" y2="241.4"/><line class="e" x1="666.5" y1="230.3" x2="642.6" y2="228.5"/><line class="e" x1="663.6" y1="221.6" x2="645.5" y2="237.3"/><line class="e" x1="646.7" y1="220.3" x2="662.4" y2="238.5"/></g><circle class="f" cx="691.5" cy="213" r="3.8"/><circle class="f" cx="737.8" cy="212.6" r="3.8"/><circle class="f" cx="624.7" cy="245.6" r="3.8"/><circle class="f" cx="743.5" cy="238.1" r="3.8"/><circle class="f" cx="871.3" cy="167.4" r="3.8"/><circle class="f" cx="907.6" cy="204" r="3.8"/><circle class="f" cx="841.6" cy="165.2" r="3.8"/><circle class="f" cx="845.3" cy="212.6" r="3.8"/><circle class="f" cx="779.1" cy="222.1" r="3.8"/><circle class="f" cx="706.4" cy="224.2" r="3.8"/><circle class="f" cx="689.4" cy="228.9" r="3.8"/><circle class="f" cx="624.7" cy="215.3" r="3.8"/><circle class="f" cx="574.6" cy="241.9" r="3.8"/><circle class="f" cx="585.1" cy="257.6" r="3.8"/><circle class="f" cx="553.8" cy="237.8" r="3.8"/><circle class="f" cx="562.1" cy="263.4" r="3.8"/><circle class="f" cx="427.8" cy="269.6" r="3.8"/><circle class="f" cx="504.3" cy="269.9" r="3.8"/><circle class="f" cx="608.7" cy="231.9" r="3.8"/><circle class="f" cx="984" cy="162.4" r="3.8"/><circle class="g" cx="655.8" cy="299.2" r="3.8"/><circle class="g" cx="702.8" cy="273.8" r="3.8"/><circle class="g" cx="949.8" cy="70.3" r="3.8"/><circle class="g" cx="88.8" cy="307.7" r="3.8"/><circle class="g" cx="321" cy="306.1" r="3.8"/><circle class="g" cx="397.7" cy="300.5" r="3.8"/><circle class="g" cx="496" cy="307.7" r="3.8"/><circle class="g" cx="1146.9" cy="252.8" r="3.8"/><circle class="g" cx="1138.9" cy="181.2" r="3.8"/><circle class="g" cx="1030.2" cy="177" r="3.8"/><circle class="g" cx="1184.5" cy="146" r="3.8"/><circle class="g" cx="1181" cy="188.1" r="3.8"/><circle class="g" cx="1114" cy="77.7" r="3.8"/><circle class="g" cx="1022.4" cy="129.4" r="3.8"/><circle class="g" cx="638" cy="166.6" r="3.8"/><circle class="g" cx="460.9" cy="217.8" r="3.8"/><circle class="g" cx="714.5" cy="157.7" r="3.8"/><circle class="g" cx="1158.8" cy="120.8" r="3.8"/><circle class="g" cx="1045.9" cy="134.9" r="3.8"/><circle class="g" cx="116.1" cy="327.6" r="3.8"/><circle class="g" cx="984" cy="258.9" r="3.8"/><circle class="h" cx="670" cy="105.4" r="3.8"/><circle class="h" cx="1098.6" cy="312.2" r="3.8"/><circle class="h" cx="1221.1" cy="308.4" r="3.8"/><circle class="h" cx="231" cy="219.1" r="3.8"/><circle class="h" cx="368.2" cy="153.9" r="3.8"/><circle class="h" cx="468.4" cy="153" r="3.8"/><circle class="h" cx="1109.6" cy="41.8" r="3.8"/><line class="i" x1="161.3" y1="387.7" x2="161.3" y2="378.3"/><line class="i" x1="269.2" y1="387.7" x2="269.2" y2="378.3"/><line class="i" x1="485.2" y1="387.7" x2="485.2" y2="378.3"/><line class="i" x1="809.2" y1="387.7" x2="809.2" y2="378.3"/><line class="i" x1="1025.2" y1="387.7" x2="1025.2" y2="378.3"/><line class="i" x1="377.2" y1="387.7" x2="377.2" y2="378.3"/><line class="i" x1="593.2" y1="387.7" x2="593.2" y2="378.3"/><line class="i" x1="701.2" y1="387.7" x2="701.2" y2="378.3"/><line class="i" x1="917.2" y1="387.7" x2="917.2" y2="378.3"/><line class="i" x1="1133.2" y1="387.7" x2="1133.2" y2="378.3"/><line class="i" x1="1241.2" y1="387.7" x2="1241.2" y2="378.3"/><polyline class="i" points="53.3 2.4 53.3 378.5 1264.1 378.5"/><line class="i" x1="43.7" y1="9.4" x2="53.7" y2="9.4"/><line class="i" x1="43.7" y1="304.4" x2="53.7" y2="304.4"/><line class="i" x1="43.7" y1="230.4" x2="53.7" y2="230.4"/><line class="i" x1="43.7" y1="157.4" x2="53.7" y2="157.4"/><line class="i" x1="43.7" y1="83.4" x2="53.7" y2="83.4"/><text class="j" transform="translate(579.4 413.3)">500</text><text class="j" transform="translate(794.5 413.3)">700</text><text class="j" transform="translate(1010.5 413.3)">900</text><text class="j" transform="translate(363.3 413.3)">300</text><text class="j" transform="translate(146.3 413.3)">100</text><text class="j" transform="translate(1222.1 413.3)">1100</text><text class="j" transform="translate(5.5 20.4)">100</text><text class="j" transform="translate(14.9 239.9)">40</text><text class="j" transform="translate(14.9 167.9)">60</text><text class="j" transform="translate(14.9 93.9)">80</text><text class="j" transform="translate(14.9 312.4)">20</text></svg>