<svg enable-background="new 0 0 1268 418" viewBox="0 0 1268 418" xmlns="http://www.w3.org/2000/svg"><text fill="#ccc" font-family="'RobotoMono-Regular'" font-size="17.3923" transform="matrix(1 -.00190428 .00190428 1 576.0415 414.4926)">Poseidon</text><text fill="#ccc" font-family="'RobotoMono-Regular'" font-size="17.3923" transform="matrix(1 -.00190428 .00190428 1 596.587 177.833)">Hera</text><path d="m617.5 313.6v66.9c-37.7 0-68.1-30-68.1-66.9z" fill="#c4c5d1"/><path d="m580.5 313.6c0-20.4 16.6-37 37-37v37z" fill="#ededed"/><path d="m617.5 313.6v-69c37.8 0 68.3 30.9 68.3 69.1z" fill="#a39cb9"/><path d="m666.9 313.6c0 25-22.1 45.2-49.5 45.2v-45.2z" fill="#b5aec7"/><text fill="#ccc" font-family="'RobotoMono-Regular'" font-size="17.3923" transform="matrix(1 -.00190428 .00190428 1 125.0361 415.3915)">Uranus</text><text fill="#ccc" font-family="'RobotoMono-Regular'" font-size="17.3923" transform="matrix(1 -.00190428 .00190428 1 124.5816 178.7318)">Appolo</text><path d="m156.1 313.6v66.9c-37.7 0-68.1-30-68.1-66.9z" fill="#c4c5d1"/><path d="m71.7 313.6c0-46.6 37.8-84.4 84.4-84.4v84.4z" fill="#ededed"/><path d="m156.1 313.6v-55.8c30.5 0 55.3 25 55.3 55.8z" fill="#a39cb9"/><path d="m243.4 313.6c0 44.2-39.1 79.9-87.4 79.9v-79.9z" fill="#b5aec7"/><path d="m84.2 6h71.8v71.8h-71.8z" fill="#ededed"/><path d="m100.5 77.5h55.6v55.5h-55.6z" fill="#c4c5d1"/><path d="m156.1 20.8h56.9v56.9h-56.9z" fill="#a39cb9"/><path d="m156.1 77.5h46.2v46.2h-46.2z" fill="#b5aec7"/><text fill="#ccc" font-family="'RobotoMono-Regular'" font-size="17.3923" transform="translate(1094.7987 414.9023)">Chaos</text><text fill="#ccc" font-family="'RobotoMono-Regular'" font-size="17.3923" transform="translate(1064.7987 178.2422)">Artemis</text><path d="m1189.1 313.6c0 36.9-30.4 66.9-68.1 66.9v-66.9z" fill="#b5aec7"/><path d="m1121 313.6v-84.4c46.6 0 84.4 37.8 84.4 84.4z" fill="#a39cb9"/><path d="m1065.7 313.6c0-30.8 24.8-55.8 55.3-55.8v55.8z" fill="#ededed"/><path d="m1121.1 313.6v79.9c-48.3 0-87.4-35.7-87.4-79.9z" fill="#c4c5d1"/><path d="m1175 77.8h-71.8v-71.8h71.8z" fill="#a39cb9"/><path d="m1158.7 133h-55.6v-55.5h55.6z" fill="#b5aec7"/><path d="m1103.1 77.7h-56.9v-56.9h56.9z" fill="#ededed"/><path d="m1103.1 123.7h-46.2v-46.2h46.2z" fill="#c4c5d1"/><text fill="#ccc" font-family="'RobotoMono-Regular'" font-size="18" transform="matrix(1 -.00190428 .00190428 1 366.2081 414.9322)">Athena</text><text fill="#ccc" font-family="'RobotoMono-Regular'" font-size="17.3923" transform="matrix(1 -.00190428 .00190428 1 365.7536 178.2725)">Zeus</text><path d="m387 313.6v66.9c-37.7 0-68.1-30-68.1-66.9z" fill="#c4c5d1"/><path d="m328.7 313.6c0-32.2 26.1-58.3 58.3-58.3v58.3z" fill="#ededed"/><path d="m387 313.6v-65c35.6 0 64.4 29.1 64.4 65z" fill="#a39cb9"/><path d="m463.8 313.6c0 38.7-34.4 70.2-76.8 70.2v-70.2z" fill="#b5aec7"/><path d="m333.2 23.6h54.1v54.1h-54.1z" fill="#ededed"/><path d="m310.8 77.5h76.5v76.5h-76.5z" fill="#c4c5d1"/><path d="m387.3 9.1h68.7v68.7h-68.7z" fill="#a39cb9"/><path d="m387.3 77.5h60.6v60.5h-60.6z" fill="#b5aec7"/><text fill="#ccc" font-family="'RobotoMono-Regular'" font-size="18" transform="translate(819.9711 414.9023)">Aphrodite</text><text fill="#ccc" font-family="'RobotoMono-Regular'" font-size="17.3923" transform="translate(820.9711 178.2422)">Hermes</text><path d="m936.8 313.6c0 36.9-30.4 66.9-68.1 66.9v-66.9z" fill="#b5aec7"/><path d="m868.7 313.6v-58.3c32.2 0 58.3 26.1 58.3 58.3z" fill="#a39cb9"/><path d="m804.3 313.6c0-35.9 28.8-65 64.4-65v65z" fill="#ededed"/><path d="m791.9 313.6h76.8v70.2c-42.4 0-76.8-31.5-76.8-70.2z" fill="#c4c5d1"/><path d="m906.6 77.7h-54.1v-54.1h54.1z" fill="#a39cb9"/><path d="m929 154h-76.5v-76.5h76.5z" fill="#b5aec7"/><path d="m852.5 77.8h-68.7v-68.7h68.7z" fill="#ededed"/><path d="m852.5 138h-60.6v-60.5h60.6z" fill="#c4c5d1"/><path d="m580.5 39.7h38.1v38.1h-38.1z" fill="#ededed"/><path d="m563 77.5h55.6v55.5h-55.6z" fill="#c4c5d1"/><path d="m618.5 18.8h58.9v58.9h-58.9z" fill="#a39cb9"/><path d="m618.5 77.5h30.2v30.3h-30.2z" fill="#b5aec7"/></svg>