<svg xmlns="http://www.w3.org/2000/svg" width="256" height="256" viewBox="0 0 256 256"><title>icon_sketch</title><path d="M137.2,127.5H17V7.3H137.2Zm89.2-80.8H146.9v79.5h79.5Zm-74.5,5h69.5v69.5H151.9ZM134.4,138H19.8V252.5H134.4ZM24.8,143H129.4V247.5H24.8Zm180.3-7.3H146.9v58.2h58.2Zm-53.2,5h48.2v48.2H151.9Zm24.2-89.3-3.5-3.5L147.3,73.2l3.5,3.5Zm23.5,3.4-3.5-3.6L148.5,98.8l3.6,3.5Zm19.3-2.3-3.6-3.6-65.9,65.9,3.6,3.6Zm4.5,16.4-3.5-3.5-56.3,56.2,3.6,3.6Zm1.5,21.4-3.5-3.5-34.9,34.8,3.5,3.6Zm-1.1,19.4-2.1-2.1-14.1,14.1,2.1,2.1ZM43.2,249.4,25.7,231.9,23.6,234l17.5,17.5Zm11.2,1L23.9,219.9,21.8,222l30.5,30.5Zm13.4-.2L24.5,206.9,22.4,209l43.3,43.3Zm15.3,1.1-58-58L23,195.4l58,58Zm10.8-1.9-69.1-69-2.1,2.1,69.1,69.1Zm14.9-.2L24.2,164.6l-2.1,2.1,84.5,84.6Zm14.2,1.9L24.8,152.9,22.7,155l98.2,98.2Zm10.5-1.9L24.8,140.5l-2.1,2.2L131.4,251.3Zm1.1-9.1L33.4,139l-2.1,2.1L132.4,242.2Zm-1.2-13.8L45.5,138.4l-2.1,2.1,87.9,87.9Zm-.8-15.6L61.2,139.3l-2.1,2.1,71.4,71.4Zm.9-12.1L74.8,139.9,72.7,142l58.7,58.7Zm1.6-15.4L91.8,139.9,89.7,142,133,185.3Zm-.1-19.5-22.5-22.5-2.2,2.1,22.6,22.6Z"/></svg>