<?xml version="1.0" encoding="utf-8"?>
<!-- Generator: Adobe Illustrator 22.1.0, SVG Export Plug-In . SVG Version: 6.00 Build 0)  -->
<svg version="1.1" id="Layer_1" xmlns="http://www.w3.org/2000/svg" xmlns:xlink="http://www.w3.org/1999/xlink" x="0px" y="0px"
	 viewBox="0 0 741.1 684" style="enable-background:new 0 0 741.1 684;" xml:space="preserve">
<style type="text/css">
	.st0{fill:#514361;}
	.st1{font-family:'RobotoMono-Regular';}
	.st2{font-size:25px;}
	
		.st3{opacity:0.8;fill:none;stroke:#A8A8A8;stroke-width:1.5;stroke-linecap:round;stroke-miterlimit:10;stroke-dasharray:0,3;enable-background:new    ;}
	.st4{fill:#878787;}
	.st5{font-size:22.8245px;}
	.st6{fill:#AFAFAF;}
	.st7{font-size:20px;}
	.st8{font-size:20.7448px;}
	.st9{fill:none;stroke:#716082;stroke-miterlimit:10;}
</style>
<text transform="matrix(1 0 0 1 260.4131 34.735)" class="st0 st1 st2">time or intervals</text>
<g>
	<text transform="matrix(1 0 0 1 39.1634 541.0173)" class="st0 st1 st2">initial rank</text>
</g>
<g>
	<text transform="matrix(1 0 0 1 413.8208 633.8143)" class="st0 st1 st2">slope</text>
</g>
<path class="st3" d="M540.7,79.9V59.3H226.4v20.5"/>
<g>
	<g>
		<text transform="matrix(1 0 0 1 58.5989 468.1482)" class="st4 st1 st5">category C</text>
	</g>
</g>
<g>
	<text transform="matrix(1 0 0 1 577.805 182.6969)" class="st4 st1 st5">category B</text>
</g>
<g>
	<text transform="matrix(1 0 0 1 565.8056 593.1924)" class="st4 st1 st5">category C</text>
</g>
<g>
	<text transform="matrix(1 0 0 1 571.8053 468.1485)" class="st4 st1 st5">category A</text>
</g>
<line class="st3" x1="446.6" y1="534.3" x2="447" y2="593.8"/>
<g>
	<text transform="matrix(1 0 0 1 214.7557 593.7969)" class="st0 st1 st2">value</text>
</g>
<line class="st3" x1="247.6" y1="485.2" x2="247.9" y2="553.8"/>
<g>
	<text transform="matrix(1 0 0 1 565.8057 666.7114)" class="st0 st1 st2">final rank</text>
</g>
<g>
	<g>
		<text transform="matrix(1 0 0 1 58.599 190.4259)" class="st4 st1 st5">category A</text>
	</g>
</g>
<g>
	<text transform="matrix(1 0 0 1 223.8958 118.5646)" class="st6 st1 st7">2019</text>
</g>
<g>
	<text transform="matrix(1 0 0 1 358.0003 118.5646)" class="st6 st1 st7">2020</text>
</g>
<g>
	<text transform="matrix(1 0 0 1 496.2991 118.5646)" class="st6 st1 st7">2021</text>
</g>
<g>
	<g>
		<text transform="matrix(1 0 0 1 58.5992 334.257)" class="st4 st1 st5">category B</text>
	</g>
</g>
<g>
	<text transform="matrix(1 0 0 1 229.2263 191.5509)" class="st6 st1 st8">100</text>
</g>
<g>
	<text transform="matrix(1 0 0 1 235.451 335.382)" class="st6 st1 st8">98</text>
</g>
<g>
	<text transform="matrix(1 0 0 1 235.451 468.1486)" class="st6 st1 st8">96</text>
</g>
<g>
	<text transform="matrix(1 0 0 1 367.1736 191.5509)" class="st6 st1 st8">100</text>
</g>
<g>
	<text transform="matrix(1 0 0 1 373.3976 261.3712)" class="st6 st1 st8">99</text>
</g>
<g>
	<text transform="matrix(1 0 0 1 373.3979 468.1486)" class="st6 st1 st8">96</text>
</g>
<g>
	<text transform="matrix(1 0 0 1 501.6302 191.5511)" class="st6 st1 st8">100</text>
</g>
<g>
	<text transform="matrix(1 0 0 1 507.8538 468.1483)" class="st6 st1 st8">96</text>
</g>
<g>
	<text transform="matrix(1 0 0 1 507.8538 602.2971)" class="st6 st1 st8">94</text>
</g>
<line class="st9" x1="276.8" y1="327.9" x2="356.8" y2="255.3"/>
<line class="st9" x1="410.9" y1="255.3" x2="494" y2="182.7"/>
<line class="st9" x1="276.8" y1="184.7" x2="356.8" y2="184.7"/>
<line class="st9" x1="410.9" y1="182.7" x2="494" y2="460.7"/>
<line class="st9" x1="276.8" y1="460.7" x2="356.8" y2="460.7"/>
<line class="st9" x1="410.9" y1="460.7" x2="494" y2="592.1"/>
<path class="st3" d="M59.9,485.5v15.6h135.2v-15.5"/>
<path class="st3" d="M569,611.4V627h135.2v-15.5"/>
</svg>
