<?xml version="1.0" encoding="utf-8"?>
<!-- Generator: Adobe Illustrator 22.1.0, SVG Export Plug-In . SVG Version: 6.00 Build 0)  -->
<svg version="1.1" id="Layer_1" xmlns="http://www.w3.org/2000/svg" xmlns:xlink="http://www.w3.org/1999/xlink" x="0px" y="0px"
	 viewBox="0 0 256 256" style="enable-background:new 0 0 256 256;" xml:space="preserve">
<g>
	<path d="M225,85.7c6.4,0,11.6-5.2,11.6-11.6s-5.2-11.6-11.6-11.6c-6.2,0-11.3,4.8-11.6,11L130,96.6l-40-34L216,26.7
		c2.1,2.6,5.4,4.2,9,4.2c6.4,0,11.6-5.2,11.6-11.6S231.4,7.7,225,7.7c-6,0-11,4.6-11.6,10.4L81.8,55.6L43.5,23
		c0.4-1.1,0.6-2.4,0.6-3.6c0-6.4-5.2-11.6-11.6-11.6s-11.6,5.2-11.6,11.6S26,31,32.4,31c1.9,0,3.6-0.4,5.2-1.2l33.9,28.8L41.7,67
		c-2.1-2.8-5.5-4.7-9.3-4.7c-6.4,0-11.6,5.2-11.6,11.6S26,85.7,32.4,85.7c5.8,0,10.6-4.3,11.5-9.9l35.7-10.2l39.9,34l-78.1,21.8
		c-2.1-2.6-5.4-4.3-9.1-4.3c-6.4,0-11.6,5.2-11.6,11.6s5.2,11.6,11.6,11.6c6,0,10.9-4.5,11.6-10.3l83.8-23.5l86.1,73.3
		c-0.4,1.1-0.6,2.3-0.6,3.5c0,6.4,5.2,11.6,11.6,11.6s11.6-5.2,11.6-11.6s-5.2-11.6-11.6-11.6c-1.9,0-3.7,0.5-5.3,1.3l-81.5-69.4
		l78.1-21.8C218.5,84.2,221.6,85.7,225,85.7z"/>
	<path d="M225,226.5c-3.7,0-7,1.8-9.2,4.5L44,182c-0.7-5.8-5.6-10.3-11.6-10.3c-6.4,0-11.6,5.2-11.6,11.6s5.2,11.6,11.6,11.6
		c3.7,0,7-1.7,9.1-4.4l171.9,48.9c0.7,5.7,5.6,10.1,11.5,10.1c6.4,0,11.6-5.2,11.6-11.6S231.4,226.5,225,226.5z"/>
</g>
</svg>
