<?xml version="1.0" encoding="utf-8"?>
<!-- Generator: Adobe Illustrator 24.0.1, SVG Export Plug-In . SVG Version: 6.00 Build 0)  -->
<svg version="1.1" id="Layer_1" xmlns="http://www.w3.org/2000/svg" xmlns:xlink="http://www.w3.org/1999/xlink" x="0px" y="0px"
	 viewBox="0 0 1268 418" style="enable-background:new 0 0 1268 418;" xml:space="preserve">
<style type="text/css">
	.st0{fill:#D2D2EB;}
	.st1{fill:#E2E2FB;}
	.st2{fill:#9D9DB6;}
	.st3{fill:#B1B1CA;}
	.st4{fill:#CCCCE5;}
	.st5{fill:#BCBCD5;}
	.st6{fill:#FFFFFF;}
	.st7{font-family:'RobotoMono-Regular';}
	.st8{font-size:21.8936px;}
	.st9{fill:#A6A6BF;}
	.st10{fill:#C8C8E1;}
	.st11{fill:#BFBFD8;}
	.st12{fill:#DCDCF5;}
	.st13{fill:#9191AA;}
</style>
<g>
	<path class="st0" d="M357.4,3v69c75.9,1,136.6,63.4,135.5,139.3c-0.1,10-1.4,19.9-3.6,29.6l67.1,16.7c4.1-15.9,6-32.3,5.8-48.7
		C562.1,95.8,470.3,3.7,357.4,3z"/>
	<path class="st1" d="M354.9,72V3c-34.1,0.2-64.2,7.7-94.3,23.5l32.3,60.7C312,77.3,333.3,72.1,354.9,72z"/>
	<path class="st2" d="M290.5,88.4l-32.2-60.6C220.1,48.3,193,76,173.1,114.5l60.9,31C246.8,121.3,266.5,101.4,290.5,88.4z"/>
	<path class="st3" d="M218.3,209.3c0-21.4,5-42.6,14.6-61.7l-60.9-31c-29.4,58.3-29.9,122.7-1.6,181.6l61.2-29.9
		C222.8,250,218.2,229.8,218.3,209.3z"/>
	<path class="st4" d="M232.6,270.5l-61.2,29.9c34.6,70,101.7,112.8,179.7,114.5l1.2-68.3C301.4,345.5,255.3,316.2,232.6,270.5
		L232.6,270.5z"/>
	<path class="st5" d="M488.7,243.4c-15.5,60.8-70.3,103.3-133.1,103.3h-0.7l-1.2,68.3h2.5c94.2,0.3,176.4-63.6,199.4-154.9
		L488.7,243.4z"/>
	<g>
		<text transform="matrix(1 0 0 1 217.2749 104.1304)" class="st6 st7 st8">11</text>
		<text transform="matrix(1 0 0 1 173.7661 224.3359)" class="st6 st7 st8">15</text>
		<text transform="matrix(1 0 0 1 256.7627 365.7188)" class="st6 st7 st8">18</text>
		<text transform="matrix(1 0 0 1 443.376 353.1299)" class="st6 st7 st8">22</text>
		<text transform="matrix(1 0 0 1 471.9971 122.4512)" class="st6 st7 st8">30</text>
		<text transform="matrix(1 0 0 1 308.8599 56.6211)" class="st6 st7 st8">8</text>
	</g>
	<path class="st9" d="M355,75.6c-28.8,0.2-53.2,8.1-76.6,24.9L355,205.9V75.6z"/>
	<path class="st10" d="M276.9,101.7c-46.8,34.5-65.6,92.2-48,147.6l70.4-22.9l55.1-17.9l-11.8-16.4L276.9,101.7z"/>
	<path class="st11" d="M329.2,218.8l-99.6,32.4c4.2,13,10.5,25.3,18.6,36.3c43,59.2,126,72.6,185.4,30.1l-18.4-25.3l-59.6-82
		L329.2,218.8z"/>
	<path class="st12" d="M435.1,316.2c35.4-26.1,54.2-63.2,54.2-107.2c0.1-73.1-59.2-132.8-132.4-133.3v132.9l29.3,40.3L435.1,316.2z"
		/>
	<text transform="matrix(1 0 0 1 413.312 200.9399)" class="st13 st7 st8">40</text>
	<text transform="matrix(1 0 0 1 320.6323 289.8184)" class="st13 st7 st8">30</text>
	<text transform="matrix(1 0 0 1 267.3613 192.2817)" class="st13 st7 st8">20</text>
	<text transform="matrix(1 0 0 1 314.4922 134.0947)" class="st13 st7 st8">10</text>
</g>
<g>
	<path class="st0" d="M913.7,3v69c75.9,1,136.6,63.4,135.5,139.3c-0.1,10-1.4,19.9-3.6,29.6l67.1,16.7c4.1-15.9,6-32.3,5.8-48.7
		C1118.4,95.8,1026.6,3.7,913.7,3z"/>
	<path class="st1" d="M911.2,72V3C877,3.2,847,10.7,816.8,26.5l32.3,60.7C868.3,77.3,889.6,72.1,911.2,72z"/>
	<path class="st2" d="M846.8,88.4l-32.2-60.6c-38.2,20.5-65.3,48.2-85.2,86.7l60.9,31C803.1,121.3,822.8,101.4,846.8,88.4z"/>
	<path class="st3" d="M774.6,209.3c0-21.4,5-42.6,14.6-61.7l-60.9-31c-29.4,58.3-29.9,122.7-1.6,181.6l61.2-29.9
		C779.1,250,774.5,229.8,774.6,209.3z"/>
	<path class="st4" d="M788.9,270.5l-61.2,29.9c34.6,70,101.7,112.8,179.7,114.5l1.2-68.3C857.7,345.5,811.6,316.2,788.9,270.5
		L788.9,270.5z"/>
	<path class="st5" d="M1045,243.4c-15.5,60.8-70.3,103.3-133.1,103.3h-0.7L910,415h2.5c94.2,0.3,176.4-63.6,199.4-154.9L1045,243.4z
		"/>
	<g>
		<text transform="matrix(1 0 0 1 773.5713 104.1304)" class="st6 st7 st8">11</text>
		<text transform="matrix(1 0 0 1 730.0625 224.3359)" class="st6 st7 st8">15</text>
		<text transform="matrix(1 0 0 1 813.0596 365.7188)" class="st6 st7 st8">18</text>
		<text transform="matrix(1 0 0 1 999.6729 353.1299)" class="st6 st7 st8">22</text>
		<text transform="matrix(1 0 0 1 1028.2939 122.4512)" class="st6 st7 st8">30</text>
		<text transform="matrix(1 0 0 1 865.1562 56.6211)" class="st6 st7 st8">8</text>
	</g>
	<path class="st9" d="M911.3,75.6c-28.8,0.2-53.2,8.1-76.6,24.9l76.6,105.4V75.6z"/>
	<path class="st10" d="M833.2,101.7c-46.8,34.5-65.6,92.2-48,147.6l70.4-22.9l55.1-17.9l-11.8-16.4L833.2,101.7z"/>
	<path class="st11" d="M885.4,218.8l-99.6,32.4c4.2,13,10.5,25.3,18.6,36.3c43,59.2,126,72.6,185.4,30.1l-18.4-25.3l-59.6-82
		L885.4,218.8z"/>
	<path class="st12" d="M991.4,316.2c35.4-26.1,54.2-63.2,54.2-107.2c0.1-73.1-59.2-132.8-132.4-133.3v132.9l29.3,40.3L991.4,316.2z"
		/>
	<text transform="matrix(1 0 0 1 969.6094 200.9399)" class="st13 st7 st8">40</text>
	<text transform="matrix(1 0 0 1 876.9297 289.8184)" class="st13 st7 st8">30</text>
	<text transform="matrix(1 0 0 1 823.6582 192.2817)" class="st13 st7 st8">20</text>
	<text transform="matrix(1 0 0 1 870.7891 134.0947)" class="st13 st7 st8">10</text>
</g>
</svg>
