<svg xmlns="http://www.w3.org/2000/svg" width="256" height="256" viewBox="0 0 256 256"><title>icon</title><path d="M173.9,46.9a9.5,9.5,0,1,0-9.5-9.5A9.4,9.4,0,0,0,173.9,46.9Zm22.2,30.4V61.6a11.9,11.9,0,0,0-11.6-11.5H163.1a11.5,11.5,0,0,0-11.5,11.5V77.3Zm34.6-30.4a9.5,9.5,0,1,0,0-18.9,9.5,9.5,0,0,0,0,18.9ZM253,77.3V61.6a11.9,11.9,0,0,0-11.7-11.5H219.9a11.4,11.4,0,0,0-11.4,11.5V77.3Zm-79.1,26.8a9.5,9.5,0,1,0-9.5-9.5A9.5,9.5,0,0,0,173.9,104.1Zm22.2,30.3V118.7a11.8,11.8,0,0,0-11.6-11.4H163.1a11.4,11.4,0,0,0-11.5,11.4v15.7Zm34.6-30.3a9.5,9.5,0,1,0-9.4-9.5A9.6,9.6,0,0,0,230.7,104.1ZM253,134.4V118.7a11.8,11.8,0,0,0-11.7-11.4H219.9a11.3,11.3,0,0,0-11.4,11.4v15.7Zm-79.1,26.8a9.5,9.5,0,1,0-9.5-9.5A9.5,9.5,0,0,0,173.9,161.2Zm22.2,30.4V175.9a11.8,11.8,0,0,0-11.6-11.5H163.1a11.4,11.4,0,0,0-11.5,11.5v15.7Zm34.6-30.4a9.5,9.5,0,1,0-9.4-9.5A9.6,9.6,0,0,0,230.7,161.2ZM253,191.6V175.9a11.8,11.8,0,0,0-11.7-11.5H219.9a11.4,11.4,0,0,0-11.4,11.5v15.7Zm-79.1,26.7a9.5,9.5,0,1,0-9.5-9.5A9.5,9.5,0,0,0,173.9,218.3Zm22.2,30.4V233a11.9,11.9,0,0,0-11.6-11.5H163.1A11.5,11.5,0,0,0,151.6,233v15.7Zm34.6-30.4a9.5,9.5,0,1,0-9.4-9.5A9.6,9.6,0,0,0,230.7,218.3ZM253,248.7V233a11.9,11.9,0,0,0-11.7-11.5H219.9A11.4,11.4,0,0,0,208.5,233v15.7ZM81.6,103.8a9.5,9.5,0,1,0-9.5-9.4A9.5,9.5,0,0,0,81.6,103.8ZM70.8,107a11.5,11.5,0,0,0-11.5,11.5v15.7h44.5V118.5A11.9,11.9,0,0,0,92.1,107M25.3,161.2a9.5,9.5,0,1,0-9.5-9.5A9.5,9.5,0,0,0,25.3,161.2Zm22.2,30.4V175.9a11.8,11.8,0,0,0-11.7-11.5H14.5A11.4,11.4,0,0,0,3,175.9v15.7ZM81.6,161a9.5,9.5,0,1,0-9.5-9.5A9.6,9.6,0,0,0,81.6,161Zm-10.8,3.2a11.4,11.4,0,0,0-11.5,11.4v15.7h44.5V175.6a11.8,11.8,0,0,0-11.7-11.4M25.3,218.3a9.5,9.5,0,1,0-9.5-9.5A9.5,9.5,0,0,0,25.3,218.3Zm22.2,30.4V233a11.9,11.9,0,0,0-11.7-11.5H14.5A11.4,11.4,0,0,0,3,233v15.7Zm34.1-30.6a9.5,9.5,0,1,0-9.5-9.5A9.6,9.6,0,0,0,81.6,218.1Zm-10.8,3.2a11.5,11.5,0,0,0-11.5,11.5v15.7h44.5V232.8a11.8,11.8,0,0,0-11.7-11.5"/></svg>