<svg height="256" viewBox="0 0 256 256" width="256" xmlns="http://www.w3.org/2000/svg"><path d="m249.3 254.3h-246.2c.9 0 .8-38.9.8-56.1v-192.6c0-4.4 6.9-4.4 6.9 0v241.8h26.1v-110.8h22.3v18h-12.3c-3.5 0-3.5 3.5 0 3.5h30.6c3.5 0 3.5-3.5 0-3.5h-12.8v-18h24.1v110.8h23.7v-150.1l24.1-.2v38.2h-8.6c-3 0-3 3.5 0 3.5h21.8c3 0 3-3.5 0-3.5h-8.6v-38.2l23.2.2v150.1h24.2v-196.2h22.4v28.3h-10.9c-3.8 0-3.8 3.5 0 3.5h27.6c3.8 0 3.8-3.5 0-3.5h-10.9v-28.3h23.8v196.2h8.7c4.4 0 4.4 6.9 0 6.9zm-184.6-191.1h13.3c3.5 0 3.5-3.4 0-3.4h-30.8c-3.5 0-3.5 3.4 0 3.4h12v73.4h5.5zm76.5 27.1v-10.1h9.3c3 0 3-3.5 0-3.5h-23.2c-3 0-3 3.5 0 3.5h9.3v16.9h4.6zm75.6-61.2v-10.8h11.8c3.7 0 3.7-3.5 0-3.5h-29.3c-3.8 0-3.8 3.5 0 3.5h11.7v32.9h5.8z"/></svg>