<svg height="340" viewBox="0 0 650 340" width="650" xmlns="http://www.w3.org/2000/svg"><g stroke-linecap="round" stroke-linejoin="round"><path d="m37.9 306.1h605.1v-299.1h-605.1z" fill="none" stroke="#6d6c6c"/><path d="m130 25.7v75.7" fill="none" stroke="#bebebe" stroke-width="3"/><path d="m74.4 170a21.1 21.1 0 0 0 .2 6.4c1.5 8.1 6.7 14.5 10.3 21.1a42.8 42.8 0 0 1 5.8 21.1c0 7.2-11.7 28.5-10.3 29.6s40.9.8 49.6 1.1 47.2.7 49.6-1.1-10.3-22.4-10.3-29.6a42.8 42.8 0 0 1 5.8-21.1c3.6-6.6 8.9-12.9 10.3-21.1a21.1 21.1 0 0 0 .2-6.6" fill="#aaa5a5" stroke="#6d6c6c" stroke-width="2.03"/><path d="m179.7 155.3c-3.9-6.6-8.8-13-10.3-21.4s.5-14 1.7-21.1c.3-1.9 1.9-8.9.7-10.2s-82.1-1.8-83.7 0 .4 8.3.7 10.2c1.2 7 3.1 13.8 1.7 21.1s-6.4 14.8-10.3 21.4c-2.4 4.1-4.9 8.5-5.7 13.4-.1.4 58.6.5 58.6.5s52.3.2 52.3 0c-.7-5.1-3.2-9.7-5.7-13.9z" fill="#cecccc" stroke="#6d6c6c" stroke-width="2.03"/><path d="m130 289.2-.1-39.6" fill="none" stroke="#6d6c6c" stroke-width="3"/><path d="m130 68.6v32.4" fill="none" stroke="#6d6c6c" stroke-width="3"/><path d="m270 36v94.5" fill="none" stroke="#bebebe" stroke-width="3"/><path d="m269.6 266.5v-54.3" fill="none" stroke="#bebebe" stroke-width="3"/><path d="m228.9 172.1a150.4 150.4 0 0 0 -9.9 12.3c-3 4.5-5.2 9.5-5.2 15a30.9 30.9 0 0 0 1.1 7.9c.3 1.3.7 2.5 1.1 3.8s.1.9.9.9h105.5c.7 0 .6-.1.9-.9s.8-2.5 1.1-3.8a32.8 32.8 0 0 0 1.1-7.9c0-5.5-2.2-10.6-5.2-15s-6.6-8.3-10-12.3" fill="#aaa5a5" stroke="#6d6c6c" stroke-width="2.03"/><path d="m310.3 172.1c-3.3-3.9-6.6-8.1-8.6-13a34 34 0 0 1 -2.1-7.9c-.4-2.6-.5-5.3-.7-7.9a60 60 0 0 0 -1.2-7.9 3.8 3.8 0 0 0 -.4-1.4h-4.3l-21.7-.7h-3.3l-21.7.7h-4.2a4.1 4.1 0 0 0 -.4 1.4 46.9 46.9 0 0 0 -1.2 7.9c-.4 5.4-.7 10.7-2.9 15.7s-5.3 9-8.6 13h81.4z" fill="#cecccc" stroke="#6d6c6c" stroke-width="2.03"/><path d="m269.6 238.1v-25.1" fill="none" stroke="#6d6c6c" stroke-width="3"/><path d="m270.1 61.7v70.8" fill="none" stroke="#6d6c6c" stroke-width="3"/><path d="m409.3 60.4v101.9" fill="none" stroke="#bebebe" stroke-width="3"/><path d="m409.3 255.1v-24.8" fill="none" stroke="#bebebe" stroke-width="1.76"/><path d="m353.5 196.1a32 32 0 0 0 .4 3.9 109.1 109.1 0 0 0 4 14.8 67.8 67.8 0 0 0 5.8 13.2c.3.6.9 2 1.4 2.2a5.2 5.2 0 0 0 1.5 0h84.8a5.2 5.2 0 0 0 1.5 0c.6-.2 1.1-1.6 1.5-2.2a67.5 67.5 0 0 0 5.9-13.2 104.5 104.5 0 0 0 4-14.7 29.6 29.6 0 0 0 .4-3.6" fill="#aaa5a5" stroke="#6d6c6c" stroke-width="2.03"/><path d="m465 196.4a20.3 20.3 0 0 0 -2.1-10.7c-2.2-4.3-5.8-7.9-9.3-11.2s-7-6.6-10.2-10.3c-.5-.5-.9-1.5-1.6-1.6a14 14 0 0 0 -2.3 0h-60.4a13.5 13.5 0 0 0 -2.4 0c-.7.1-1.1 1.1-1.6 1.6-3.2 3.6-6.7 6.9-10.2 10.3s-7 6.9-9.3 11.3a20.1 20.1 0 0 0 -2.1 10.4z" fill="#cecccc" stroke="#6d6c6c" stroke-width="2.03"/><path d="m409.3 278.8v-47.8" fill="none" stroke="#6d6c6c" stroke-width="3"/><path d="m409.3 91.5v69.9" fill="none" stroke="#6d6c6c" stroke-width="3"/><path d="m542.7 197.7a29.1 29.1 0 0 1 -4.8 15.8 72.9 72.9 0 0 1 -10.9 12.9c-4.1 4.1-8.5 8.1-12.8 12.1a140.5 140.5 0 0 0 -11.7 12.3c-3.5 4.2-6.8 8.9-7.7 14.5h6.7l29.1.2h36.6l29.1-.2h6.7c-.8-5.5-4.2-10.3-7.7-14.5a140.5 140.5 0 0 0 -11.7-12.3c-4.3-4-8.7-7.9-12.8-12.1a72.9 72.9 0 0 1 -10.8-12.9 29.1 29.1 0 0 1 -4.8-15.8" fill="#aaa5a5" stroke="#6d6c6c" stroke-width="2.03"/><path d="m548.9 295.4v-28.4" fill="none" stroke="#6d6c6c" stroke-width="3"/><path d="m548.9 97.6v30.2" fill="none" stroke="#6d6c6c" stroke-width="3"/><path d="m555.1 197.7c.1-5.6 2.1-11.1 4.4-16.1a84 84 0 0 1 7.8-14.2 65.6 65.6 0 0 1 11.6-12.2c4.5-3.7 9.2-7 13.7-10.6s9.1-7.2 11.3-12.4a12.5 12.5 0 0 0 .9-3.9l-19-.2-30-.3h-13.8l-30 .3-19 .2a12.5 12.5 0 0 0 .9 3.9c2.2 5.2 7 9 11.3 12.4s9.2 6.9 13.7 10.6a65.6 65.6 0 0 1 11.6 12.2 84 84 0 0 1 7.8 14.2c2.3 5.1 4.3 10.5 4.4 16.1z" fill="#cecccc" stroke="#6d6c6c" stroke-width="2.03"/><path d="m130 306.8v11.9" fill="none" stroke="#6d6c6c"/><path d="m269.6 306.8v11.9" fill="none" stroke="#6d6c6c"/><path d="m409.3 306.8v11.9" fill="none" stroke="#6d6c6c"/><path d="m548.9 306.8v11.9" fill="none" stroke="#6d6c6c"/></g><text fill="#999" font-family="Roboto Mono" font-size="14" transform="translate(119.6 333.5)">ni</text><text fill="#999" font-family="Roboto Mono" font-size="14" transform="translate(260.4 333.5)">so</text><text fill="#999" font-family="Roboto Mono" font-size="14" transform="translate(401.2 333.5)">ka</text><text fill="#999" font-family="Roboto Mono" font-size="14" transform="translate(542.1 333.5)">me</text><path d="m37.9 191.7h-11.9" fill="none" stroke="#6d6c6c" stroke-linecap="round" stroke-linejoin="round"/><path d="m37.9 43.6h-11.9" fill="none" stroke="#6d6c6c" stroke-linecap="round" stroke-linejoin="round"/><text fill="#999" font-family="Roboto Mono" font-size="14" transform="matrix(0 -1 1 0 19.7 200.3)">20</text><text fill="#999" font-family="Roboto Mono" font-size="14" transform="matrix(0 -1 1 0 19.7 51.7)">40</text><text fill="#999" font-family="Roboto Mono" font-size="14" transform="matrix(0 -1 1 0 19.7 126)">30</text><text fill="#999" font-family="Roboto Mono" font-size="14" transform="matrix(0 -1 1 0 19.7 274.6)">10</text><path d="m37.9 265.8h-11.9" fill="none" stroke="#6d6c6c" stroke-linecap="round" stroke-linejoin="round"/><path d="m37.9 117.7h-11.9" fill="none" stroke="#6d6c6c" stroke-linecap="round" stroke-linejoin="round"/></svg>