<?xml version="1.0" encoding="utf-8"?>
<!-- Generator: Adobe Illustrator 19.2.0, SVG Export Plug-In . SVG Version: 6.00 Build 0)  -->
<svg version="1.1" id="Layer_1" xmlns="http://www.w3.org/2000/svg" xmlns:xlink="http://www.w3.org/1999/xlink" x="0px" y="0px"
	 width="1200px" height="1036px" viewBox="0 0 1200 1036" enable-background="new 0 0 1200 1036" xml:space="preserve">
<g>
	<path fill="#939FD5" d="M93.264,856.569c-48.8,0-88.36,39.56-88.36,88.36s39.56,88.361,88.36,88.361
		c48.8,0,88.36-39.56,88.36-88.361S142.064,856.569,93.264,856.569z M57.55,914.922c8.381,0,15.176,6.794,15.176,15.176
		c0,8.382-6.795,15.176-15.176,15.176c-8.382,0-15.176-6.795-15.176-15.176C42.373,921.717,49.168,914.922,57.55,914.922z
		 M94.536,1005.414c-20.873,0-39.72-12.376-48.016-31.529l12.66-5.484c6.109,14.103,19.987,23.216,35.356,23.216
		s29.247-9.113,35.356-23.216l12.66,5.484C134.256,993.038,115.409,1005.414,94.536,1005.414z M128.978,945.275
		c-8.381,0-15.176-6.795-15.176-15.176c0-8.382,6.795-15.176,15.176-15.176c8.381,0,15.176,6.794,15.176,15.176
		C144.154,938.48,137.359,945.275,128.978,945.275z"/>
	<path fill="#939FD5" d="M501.872,857.991c-48.015,0-86.939,38.924-86.939,86.939s38.924,86.939,86.939,86.939
		c48.015,0,86.939-38.924,86.939-86.939S549.887,857.991,501.872,857.991z M466.159,915.405c8.247,0,14.932,6.685,14.932,14.932
		c0,8.247-6.685,14.932-14.932,14.932c-8.247,0-14.932-6.685-14.932-14.932C451.227,922.09,457.913,915.405,466.159,915.405z
		 M537.338,997.196c-6.01-13.876-19.665-22.843-34.787-22.843c-15.122,0-28.777,8.966-34.787,22.843l-12.456-5.395
		c8.163-18.845,26.707-31.022,47.243-31.022c20.537,0,39.081,12.177,47.244,31.022L537.338,997.196z M536.438,945.269
		c-8.247,0-14.932-6.685-14.932-14.932c0-8.247,6.685-14.932,14.932-14.932c8.247,0,14.932,6.685,14.932,14.932
		C551.37,938.584,544.685,945.269,536.438,945.269z"/>
	<g>
		<circle fill="#464A90" cx="623.622" cy="381.187" r="203.849"/>
	</g>
	<g>
		<circle fill="#FFFFFF" cx="545.879" cy="345.434" r="32.554"/>
	</g>
	<g>
		<path fill="none" stroke="#FFFFFF" stroke-width="13.9517" stroke-miterlimit="10" d="M494.829,294.916
			c13.017-13.154,31.082-21.302,51.05-21.302c8.938,0,17.495,1.633,25.389,4.616"/>
	</g>
	<g>
		<path fill="none" stroke="#FFFFFF" stroke-width="13.9517" stroke-miterlimit="10" d="M755.387,294.916
			c-13.017-13.154-31.082-21.302-51.05-21.302c-8.938,0-17.495,1.633-25.389,4.616"/>
	</g>
	<g>
		<circle fill="#FFFFFF" cx="701.364" cy="345.434" r="32.554"/>
	</g>
	<g>
		<path fill="#FFFFFF" d="M626.557,530.027c-48.154,0-91.635-28.551-110.775-72.738l29.207-12.651
			c14.093,32.536,46.11,53.56,81.567,53.56s67.474-21.024,81.567-53.56l29.207,12.651
			C718.192,501.475,674.71,530.027,626.557,530.027z"/>
	</g>
	<path fill="#939FD5" d="M706.176,857.991c-48.015,0-86.938,38.924-86.938,86.939s38.924,86.939,86.938,86.939
		c48.015,0,86.939-38.924,86.939-86.939S754.191,857.991,706.176,857.991z M670.463,915.405c8.247,0,14.932,6.685,14.932,14.932
		c0,8.247-6.685,14.932-14.932,14.932c-8.247,0-14.932-6.685-14.932-14.932C655.531,922.09,662.217,915.405,670.463,915.405z
		 M706.176,999.941c-21.747,0-40.425-13.127-48.547-31.877h97.095C746.601,986.815,727.923,999.941,706.176,999.941z
		 M740.742,945.269c-8.247,0-14.932-6.685-14.932-14.932c0-8.247,6.685-14.932,14.932-14.932c8.247,0,14.932,6.685,14.932,14.932
		C755.674,938.584,748.989,945.269,740.742,945.269z"/>
	<path fill="#939FD5" d="M297.568,857.991c-48.015,0-86.939,38.924-86.939,86.939s38.924,86.939,86.939,86.939
		c48.015,0,86.939-38.924,86.939-86.939S345.583,857.991,297.568,857.991z M246.923,930.156c0-8.247,6.685-14.932,14.932-14.932
		c8.247,0,14.932,6.685,14.932,14.932c0,8.247-6.685,14.932-14.932,14.932C253.608,945.088,246.923,938.403,246.923,930.156z
		 M332.134,990.692h-70.279v-13.765h70.279V990.692z M332.134,945.088c-8.247,0-14.932-6.685-14.932-14.932
		c0-8.247,6.685-14.932,14.932-14.932c8.247,0,14.932,6.685,14.932,14.932C347.066,938.403,340.381,945.088,332.134,945.088z"/>
	<g>
		<text transform="matrix(1 0 0 1 132.3599 288.6586)"><tspan x="0" y="0" fill="#7F7F7F" font-family="'Roboto-Regular'" font-size="65px">eyebrow</tspan><tspan x="102.261" y="78" fill="#7F7F7F" font-family="'Roboto-Regular'" font-size="65px">slant</tspan></text>
	</g>
	<g>
		<text transform="matrix(1 0 0 1 39.9771 516.0493)" fill="#7F7F7F" font-family="'Roboto-Regular'" font-size="65px">nose length</text>
	</g>
	<g>
		<text transform="matrix(1 0 0 1 1.9985 805.8227)" fill="#7F7F7F" font-family="'Roboto-Regular'" font-size="65px">different emotions</text>
	</g>
	<g>
		<text transform="matrix(1 0 0 1 55.481 52.4789)" fill="#7F7F7F" font-family="'Roboto-Regular'" font-size="65px">face length</text>
	</g>
	<g>
		<text transform="matrix(1 0 0 1 4.3228 186.6391)" fill="#7F7F7F" font-family="'Roboto-Regular'" font-size="65.1077px">eyebrow trim</text>
	</g>
	<g>
		<text transform="matrix(1 0 0 1 827.4692 593.8481)" fill="#7F7F7F" font-family="'Roboto-Regular'" font-size="65px">mouth smile</text>
	</g>
	<g>
		<text transform="matrix(1 0 0 1 935.2817 235.0102)"><tspan x="0" y="0" fill="#7F7F7F" font-family="'Roboto-Regular'" font-size="65px">eyes</tspan><tspan x="0" y="65.108" fill="#7F7F7F" font-family="'Roboto-Regular'" font-size="65px">position</tspan><tspan x="0" y="158.119" fill="#7F7F7F" font-family="'Roboto-Regular'" font-size="65px">eye size</tspan><tspan x="0" y="251.13" fill="#7F7F7F" font-family="'Roboto-Regular'" font-size="65px">eye slant</tspan></text>
	</g>
	<g>
		<text transform="matrix(1 0 0 1 773.3833 52.9282)" fill="#7F7F7F" font-family="'Roboto-Regular'" font-size="65px">forhead shape</text>
	</g>
	<line fill="none" stroke="#AFAFAF" stroke-width="8" stroke-miterlimit="10" x1="901" y1="342" x2="735" y2="342"/>
	<line fill="none" stroke="#AFAFAF" stroke-width="8" stroke-miterlimit="10" x1="495" y1="274" x2="394" y2="274"/>
	<line fill="none" stroke="#AFAFAF" stroke-width="8" stroke-miterlimit="10" x1="898" y1="201" x2="898" y2="483"/>
	<line fill="none" stroke="#AFAFAF" stroke-width="8" stroke-miterlimit="10" x1="398" y1="151" x2="398" y2="368"/>
	<polyline fill="none" stroke="#AFAFAF" stroke-width="8" stroke-miterlimit="10" points="1195,618 801.947,618 692.605,508.658 	
		"/>
	<polyline fill="none" stroke="#AFAFAF" stroke-width="8" stroke-miterlimit="10" points="43,538 496.453,538 605.794,428.658 	"/>
	<polyline fill="none" stroke="#AFAFAF" stroke-width="8" stroke-miterlimit="10" points="1195,81 774.043,81 692.605,162.439 	"/>
	<polyline fill="none" stroke="#AFAFAF" stroke-width="8" stroke-miterlimit="10" points="55,81 449.409,81 530.847,162.439 	"/>
	<polygon fill="#FFFFFF" points="648.368,433.061 605.794,433.061 627.081,390.488 	"/>
	<g>
		<circle fill="#464A90" cx="701.364" cy="349.504" r="16.704"/>
	</g>
	<g>
		<circle fill="#464A90" cx="545.879" cy="349.504" r="16.704"/>
	</g>
	<path fill="#939FD5" d="M910.48,856.569c-48.806,0-88.36,39.556-88.36,88.36s39.556,88.361,88.36,88.361
		c48.804,0,88.36-39.556,88.36-88.361S959.284,856.569,910.48,856.569z M852.215,916.145l43.076-13.53l2.898,9.25l-43.076,13.462
		L852.215,916.145z M862.087,942.86c0-8.421,6.765-15.186,15.186-15.186c8.421,0,15.186,6.765,15.186,15.186
		s-6.765,15.186-15.186,15.186C868.852,958.047,862.087,951.281,862.087,942.86z M947.697,1001.704l-13.256-10.451l-15.976,12.575
		l-15.973-12.575l-15.976,12.575l-18.693-14.7l5.439-6.882l13.256,10.451l15.973-12.575l15.973,12.575l15.976-12.575l18.693,14.7
		L947.697,1001.704z M943.684,958.047c-8.421,0-15.186-6.765-15.186-15.186s6.765-15.186,15.186-15.186
		c8.421,0,15.186,6.765,15.186,15.186S952.105,958.047,943.684,958.047z M965.844,925.326l-43.076-13.462l2.898-9.25l43.076,13.462
		L965.844,925.326z"/>
	<path fill="#939FD5" d="M1084.803,911.855c4.799,0,8.696,3.896,8.696,8.696s-3.896,8.696-8.696,8.696
		c-4.799,0-8.695-3.896-8.695-8.696S1080.004,911.855,1084.803,911.855z M1153.389,920.481c0,4.799-3.896,8.696-8.696,8.696
		c-4.799,0-8.695-3.896-8.695-8.696s3.896-8.696,8.695-8.696C1149.492,911.786,1153.389,915.68,1153.389,920.481z M1114.784,855.859
		c-45.353,0-82.08,36.797-82.08,82.15c0,36.17,23.372,66.847,55.857,77.836c5.426,10.852,15.163,18.155,26.224,18.155
		s20.798-7.234,26.224-18.155c32.485-10.991,55.857-41.735,55.857-77.836C1196.864,892.656,1160.137,855.859,1114.784,855.859z
		 M1058.301,893.004c13.077-13.008,32.067-16.904,32.833-17.043l0.905,4.381l0.905,4.382l0,0l0,0l0,0
		c-0.279,0.07-17.18,3.618-28.31,14.607L1058.301,893.004z M1083.552,938.079c-9.807,0-17.737-7.93-17.737-17.737
		s15.79-22.467,25.528-22.467c9.807,0,9.877,12.659,9.877,22.467C1101.219,930.149,1093.29,938.079,1083.552,938.079z
		 M1114.784,1015.499c-8.278,0-15.024-8.904-15.024-19.963c0-11.06,6.746-19.963,15.024-19.963s15.024,8.904,15.024,19.963
		C1129.808,1006.595,1123.062,1015.499,1114.784,1015.499z M1146.016,938.079c-9.807,0-17.737-7.93-17.737-17.737
		s0.07-22.467,9.877-22.467c9.807,0,25.528,12.659,25.528,22.467S1155.823,938.079,1146.016,938.079z M1164.936,899.335
		c-11.13-10.991-28.032-14.537-28.31-14.606l0,0l0,0l0,0l0.905-4.382l0.905-4.382c0.835,0.139,19.756,4.033,32.833,17.043
		L1164.936,899.335z"/>
</g>
</svg>
