<?xml version="1.0" encoding="utf-8"?>
<!-- Generator: Adobe Illustrator 22.1.0, SVG Export Plug-In . SVG Version: 6.00 Build 0)  -->
<svg version="1.1" id="Layer_1" xmlns="http://www.w3.org/2000/svg" xmlns:xlink="http://www.w3.org/1999/xlink" x="0px" y="0px"
	 viewBox="0 0 500 450" style="enable-background:new 0 0 500 450;" xml:space="preserve">
<style type="text/css">
	.st0{fill:#FFFFFF;}
	.st1{fill:#848484;}
	.st2{fill:#514361;}
	.st3{font-family:'RobotoMono-Regular';}
	.st4{font-size:19px;}
	.st5{font-family:'Roboto-Italic';}
	.st6{font-size:15px;}
	.st7{font-size:14px;}
	
		.st8{opacity:0.8;fill:none;stroke:#A8A8A8;stroke-width:1.6578;stroke-linecap:round;stroke-miterlimit:10;stroke-dasharray:0,3.3156;enable-background:new    ;}
	.st9{fill:none;stroke:#A8A8A8;stroke-width:1.6578;stroke-linecap:round;stroke-miterlimit:10;stroke-dasharray:0,3.3156;}
	.st10{fill:none;}
</style>
<g>
	<path class="st0" d="M277.7,378.3c-1.3,0-2.4-0.5-3.4-1.4c-3.9-3.9-3.8-14.8-3.8-22c0-0.7,0-1.4,0-2c0-8.1,6.6-14.8,14.8-14.8
		c8.1,0,14.8,6.6,14.8,14.8c0,3.8-3.2,10-8.2,15.8C286.8,374.6,281.3,378.3,277.7,378.3z"/>
	<path class="st1" d="M285.3,338.6c7.9,0,14.3,6.4,14.3,14.3c0,7.7-14,24.9-21.9,24.9c-1.2,0-2.2-0.4-3-1.3
		c-3.7-3.8-3.7-14.9-3.6-21.6c0-0.7,0-1.4,0-2C271.1,345,277.4,338.6,285.3,338.6 M285.3,337.6c-8.4,0-15.3,6.8-15.3,15.3
		s-0.8,25.9,7.6,25.9s22.9-17.5,22.9-25.9S293.7,337.6,285.3,337.6L285.3,337.6z"/>
</g>
<g>
	<path class="st0" d="M160.2,378.3c-3.7,0-9.1-3.7-14.2-9.6c-5-5.8-8.2-12-8.2-15.8c0-8.1,6.6-14.8,14.8-14.8
		c8.1,0,14.8,6.6,14.8,14.8c0,0.6,0,1.3,0,2c0,7.2,0.1,18.1-3.8,22C162.6,377.8,161.5,378.3,160.2,378.3z"/>
	<path class="st1" d="M152.5,338.6c7.9,0,14.3,6.4,14.3,14.3c0,0.6,0,1.3,0,2c0,6.7,0.1,17.9-3.6,21.6c-0.8,0.8-1.8,1.3-3,1.3
		c-7.9,0-21.9-17.2-21.9-24.9C138.3,345,144.7,338.6,152.5,338.6 M152.5,337.6c-8.4,0-15.3,6.8-15.3,15.3s14.5,25.9,22.9,25.9
		c8.4,0,7.6-17.5,7.6-25.9S161,337.6,152.5,337.6L152.5,337.6z"/>
</g>
<g>
	<path class="st0" d="M218.5,437.5c-18.7,0-35.8-11.9-48.4-33.4c-10.9-18.8-17.5-43.3-17.5-65.7c0-20.4,6.9-38.9,19.3-52.1
		c12.1-12.9,28.7-20,46.6-20s34.4,7.1,46.6,20c12.4,13.2,19.3,31.8,19.3,52.1c0,22.9-6.2,47.5-16.5,65.7
		C259.3,419.3,243.7,437.5,218.5,437.5z"/>
	<path class="st1" d="M218.5,266.8c17.8,0,34.2,7,46.2,19.9c12.4,13.1,19.2,31.5,19.2,51.8c0,22.8-6.1,47.3-16.4,65.5
		c-15.5,27.4-35.2,33.1-49,33.1c-9.7,0-18.9-3.1-27.4-9.3c-7.7-5.6-14.7-13.7-20.6-23.8c-10.9-18.7-17.4-43.1-17.4-65.4
		c0-20.3,6.8-38.7,19.2-51.8C184.3,273.8,200.7,266.8,218.5,266.8 M218.5,265.8c-36.7,0-66.4,29.6-66.4,72.7s24.7,99.6,66.4,99.6
		c44.4,0,66.4-56.5,66.4-99.6S255.1,265.8,218.5,265.8L218.5,265.8z"/>
</g>
<text transform="matrix(1 0 0 1 9.7382 285.9551)" class="st2 st3 st4">LEGEND</text>
<text transform="matrix(1 0 0 1 198.9867 191.9551)" class="st2 st3 st4">DATA SERIES</text>
<text transform="matrix(1 0 0 1 374.2411 347.9131)" class="st2 st5 st6">height of eyes</text>
<text transform="matrix(1 0 0 1 374.2411 312.0352)" class="st2 st5 st6">width of eyes</text>
<text transform="matrix(1 0 0 1 374.2411 399.9404)" class="st2 st5 st6">width of nose</text>
<g>
	<text transform="matrix(1 0 0 1 140.7382 209.6465)" class="st2 st5 st7">arranged either by similarity or by time</text>
</g>
<path class="st8" d="M362.4,338.4H259.3"/>
<path class="st8" d="M193.8,318.7v-7.2h168.6"/>
<text transform="matrix(1 0 0 1 374.2411 285.833)" class="st2 st5 st6">height of hat</text>
<path class="st8" d="M295.3,281.5l67.1-0.1"/>
<path class="st8" d="M360.6,397.6H218.9v-5.4"/>
<path class="st8" d="M243.1,406.7"/>
<path class="st8" d="M381.5,483.2"/>
<g>
	<path class="st0" d="M279,303.6c-3.8,0-9.3-1.1-16.4-2.4c-11.1-2.2-26.4-5.1-42.7-5.1c-16.4,0-31.6,3-42.7,5.1
		c-7,1.4-12.6,2.4-16.4,2.4c-1.7,0-3-0.2-3.8-0.7c-0.8-0.5-1.2-1.2-1.2-2.2c0-10.2,28.1-41.6,62.5-41.6c20.6,0,37.7,10.8,46.1,17.3
		c12.2,9.4,19.5,19.7,19.5,24.3C283.9,302.1,283.3,303.6,279,303.6z"/>
	<path class="st1" d="M218.3,259.6c20.5,0,37.5,10.8,45.8,17.2c11.9,9.2,19.3,19.5,19.3,23.9c0,0.9,0,2.4-4.5,2.4
		c-3.7,0-9.3-1.1-16.3-2.4c-11.1-2.2-26.4-5.1-42.8-5.1c-16.4,0-31.7,3-42.8,5.1c-7,1.4-12.6,2.4-16.3,2.4c-4.5,0-4.5-1.6-4.5-2.4
		C156.2,292.1,182.6,259.6,218.3,259.6 M218.3,258.6c-35.7,0-63,32.4-63,42.1c0,2.5,1.9,3.4,5.5,3.4c10,0,32.7-7.5,59.1-7.5
		c26.4,0,49.1,7.5,59.1,7.5c3.5,0,5.5-0.9,5.5-3.4C284.4,291,254,258.6,218.3,258.6L218.3,258.6z"/>
</g>
<polyline class="st8" points="251.2,328.6 258.4,328.6 258.4,348.3 251.2,348.3 "/>
<polyline class="st8" points="203.7,325.9 203.7,318.7 183.9,318.7 183.9,325.9 "/>
<polyline class="st8" points="228.8,385.1 228.8,392.2 209.1,392.2 209.1,385.1 "/>
<g>
	<g>
		<path class="st1" d="M200.1,402.1c0,9.9,8,17.9,17.9,17.9c9.9,0,17.9-8,17.9-17.9H200.1z"/>
	</g>
</g>
<path class="st8" d="M298,34.1"/>
<g>
	<path class="st0" d="M212.8,92.2c-0.7,0-1.2-0.2-1.7-0.7c-2.1-2.1-2-8.3-2-12l0-1.1c0-4.4,3.6-7.9,7.9-7.9s7.9,3.6,7.9,7.9
		C225,82.7,217.2,92.2,212.8,92.2z"/>
	<path class="st1" d="M217,70.9c4.1,0,7.4,3.3,7.4,7.4c0,4-7.5,13.4-11.7,13.4c-0.5,0-1-0.2-1.4-0.6c-1.9-2-1.9-8-1.9-11.7
		c0-0.4,0-0.8,0-1.1C209.6,74.3,212.9,70.9,217,70.9 M217,69.9c-4.7,0-8.4,3.8-8.4,8.4s-0.4,14.4,4.2,14.4s12.7-9.7,12.7-14.4
		S221.7,69.9,217,69.9L217,69.9z"/>
</g>
<g>
	<path class="st0" d="M147.7,92.2c-4.4,0-12.2-9.6-12.2-13.9c0-4.4,3.6-7.9,7.9-7.9c4.4,0,7.9,3.6,7.9,7.9l0,1.1c0,3.7,0.1,9.9-2,12
		C148.9,92,148.4,92.2,147.7,92.2z"/>
	<path class="st1" d="M143.5,70.9c4.1,0,7.4,3.3,7.4,7.4c0,0.4,0,0.7,0,1.1c0,3.6,0.1,9.7-1.9,11.7c-0.4,0.4-0.8,0.6-1.4,0.6
		c-4.1,0-11.7-9.4-11.7-13.4C136,74.3,139.4,70.9,143.5,70.9 M143.5,69.9c-4.7,0-8.4,3.8-8.4,8.4s8,14.4,12.7,14.4s4.2-9.7,4.2-14.4
		S148.1,69.9,143.5,69.9L143.5,69.9z"/>
</g>
<g>
	<path class="st0" d="M180,125c-23.4,0-36.3-32.3-36.3-54.6c0-22.7,15.6-39.7,36.3-39.7s36.3,17.1,36.3,39.7
		c0,12.7-3.4,26.2-9.1,36.3C202.4,115,193.9,125,180,125z"/>
	<path class="st1" d="M180,31.1c9.7,0,18.7,3.9,25.3,10.9c6.8,7.2,10.5,17.3,10.5,28.4c0,12.6-3.4,26-9,36
		c-4.7,8.3-13.1,18.1-26.7,18.1c-10.1,0-19.4-6.4-26.2-18.1c-6-10.3-9.6-23.7-9.6-36c0-11.1,3.7-21.2,10.5-28.4
		C161.3,35,170.3,31.1,180,31.1 M180,30.1c-20.3,0-36.8,16.4-36.8,40.2s13.7,55.1,36.8,55.1c24.6,0,36.8-31.3,36.8-55.1
		S200.3,30.1,180,30.1L180,30.1z"/>
</g>
<g>
	<g>
		<ellipse class="st1" cx="198" cy="70.9" rx="11" ry="6.6"/>
	</g>
</g>
<g>
	<g>
		<ellipse class="st1" cx="161" cy="70.9" rx="11" ry="6.6"/>
	</g>
</g>
<path class="st8" d="M193.7,108.2"/>
<g>
	<path class="st0" d="M213.5,50.9c-2.1,0-5.1-0.6-9-1.3c-6.2-1.2-14.6-2.8-23.7-2.8c-9.1,0-17.6,1.6-23.7,2.8c-3.9,0.8-7,1.3-9,1.3
		c-0.9,0-1.6-0.1-2-0.4c-0.4-0.2-0.5-0.5-0.5-1c0-4.8,14.6-22.8,34.4-22.8c19,0,36.1,17.5,36.1,22.8C216,50.2,215.7,50.9,213.5,50.9
		z"/>
	<path class="st1" d="M179.9,27.1c19.6,0,35.6,17.9,35.6,22.3c0,0.3,0,0.9-2,0.9c-2,0-5.1-0.6-8.9-1.3c-6.2-1.2-14.7-2.8-23.8-2.8
		c-9.1,0-17.6,1.6-23.8,2.8c-3.9,0.7-6.9,1.3-8.9,1.3c-2,0-2-0.6-2-0.9C146,44.8,160.4,27.1,179.9,27.1 M179.9,26.1
		c-19.8,0-34.9,18-34.9,23.3c0,1.4,1.1,1.9,3,1.9c5.5,0,18.1-4.2,32.7-4.2c14.6,0,27.2,4.2,32.7,4.2c1.9,0,3-0.5,3-1.9
		C216.5,44.1,199.7,26.1,179.9,26.1L179.9,26.1z"/>
</g>
<g>
	<g>
		<path class="st1" d="M169.8,105.6c0,5.5,4.4,9.9,9.9,9.9c5.5,0,9.9-4.4,9.9-9.9H169.8z"/>
	</g>
</g>
<g>
	<path class="st0" d="M342,92.2c-0.7,0-1.2-0.2-1.7-0.7c-2.1-2.1-2-8.3-2-12l0-1.1c0-4.4,3.6-7.9,7.9-7.9s7.9,3.6,7.9,7.9
		C354.1,82.7,346.4,92.2,342,92.2z"/>
	<path class="st1" d="M346.2,70.9c4.1,0,7.4,3.3,7.4,7.4c0,4-7.5,13.4-11.7,13.4c-0.5,0-1-0.2-1.4-0.6c-1.9-2-1.9-8-1.9-11.7
		c0-0.4,0-0.8,0-1.1C338.7,74.3,342.1,70.9,346.2,70.9 M346.2,69.9c-4.7,0-8.4,3.8-8.4,8.4s-0.4,14.4,4.2,14.4s12.7-9.7,12.7-14.4
		S350.9,69.9,346.2,69.9L346.2,69.9z"/>
</g>
<g>
	<path class="st0" d="M276.9,92.2c-4.4,0-12.2-9.6-12.2-13.9c0-4.4,3.6-7.9,7.9-7.9c4.4,0,7.9,3.6,7.9,7.9l0,1.1c0,3.7,0.1,9.9-2,12
		C278.1,92,277.5,92.2,276.9,92.2z"/>
	<path class="st1" d="M272.6,70.9c4.1,0,7.4,3.3,7.4,7.4c0,0.4,0,0.7,0,1.1c0,3.6,0.1,9.7-1.9,11.7c-0.4,0.4-0.8,0.6-1.4,0.6
		c-4.1,0-11.7-9.4-11.7-13.4C265.2,74.3,268.5,70.9,272.6,70.9 M272.6,69.9c-4.7,0-8.4,3.8-8.4,8.4s8,14.4,12.7,14.4
		s4.2-9.7,4.2-14.4S277.3,69.9,272.6,69.9L272.6,69.9z"/>
</g>
<g>
	<path class="st0" d="M309.2,125c-23.4,0-36.3-32.3-36.3-54.6c0-22.7,15.6-39.7,36.3-39.7s36.3,17.1,36.3,39.7
		c0,12.7-3.4,26.2-9.1,36.3C331.6,115,323,125,309.2,125z"/>
	<path class="st1" d="M309.2,31.1c9.7,0,18.7,3.9,25.3,10.9c6.8,7.2,10.5,17.3,10.5,28.4c0,12.6-3.4,26-9,36
		c-4.7,8.3-13.1,18.1-26.7,18.1c-10.1,0-19.4-6.4-26.2-18.1c-6-10.3-9.6-23.7-9.6-36c0-11.1,3.7-21.2,10.5-28.4
		C290.5,35,299.5,31.1,309.2,31.1 M309.2,30.1c-20.3,0-36.8,16.4-36.8,40.2s13.7,55.1,36.8,55.1c24.6,0,36.8-31.3,36.8-55.1
		S329.5,30.1,309.2,30.1L309.2,30.1z"/>
</g>
<g>
	<g>
		<polygon class="st0" points="306.9,94.7 309.2,79.7 311.4,94.7 		"/>
		<path class="st1" d="M309.2,83.1l1.7,11.1h-3.3L309.2,83.1 M309.2,76.4l-2.8,18.8h5.7L309.2,76.4L309.2,76.4z"/>
	</g>
	<g>
		<polygon class="st0" points="174.8,94.7 179.8,78.2 184.9,94.7 		"/>
		<path class="st1" d="M179.8,79.9l4.4,14.3h-8.7L179.8,79.9 M179.8,76.4l-5.7,18.8h11.4L179.8,76.4L179.8,76.4z"/>
	</g>
	<g>
		<path class="st0" d="M95.8,92.2c-0.7,0-1.2-0.2-1.7-0.7c-2.1-2.1-2-8.3-2-12l0-1.1c0-4.4,3.6-7.9,7.9-7.9s7.9,3.6,7.9,7.9
			C108,82.7,100.2,92.2,95.8,92.2z"/>
		<path class="st1" d="M100,70.9c4.1,0,7.4,3.3,7.4,7.4c0,4-7.5,13.4-11.7,13.4c-0.5,0-1-0.2-1.4-0.6c-1.9-2-1.9-8-1.9-11.7
			c0-0.4,0-0.8,0-1.1C92.6,74.3,95.9,70.9,100,70.9 M100,69.9c-4.7,0-8.4,3.8-8.4,8.4s-0.4,14.4,4.2,14.4s12.7-9.7,12.7-14.4
			S104.7,69.9,100,69.9L100,69.9z"/>
	</g>
	<g>
		<path class="st0" d="M30.7,92.2c-4.4,0-12.2-9.6-12.2-13.9c0-4.4,3.6-7.9,7.9-7.9c4.4,0,7.9,3.6,7.9,7.9l0,1.1c0,3.7,0.1,9.9-2,12
			C31.9,92,31.4,92.2,30.7,92.2z"/>
		<path class="st1" d="M26.5,70.9c4.1,0,7.4,3.3,7.4,7.4c0,0.4,0,0.7,0,1.1c0,3.6,0.1,9.7-1.9,11.7c-0.4,0.4-0.8,0.6-1.4,0.6
			c-4.1,0-11.7-9.4-11.7-13.4C19,74.3,22.4,70.9,26.5,70.9 M26.5,69.9c-4.7,0-8.4,3.8-8.4,8.4s8,14.4,12.7,14.4s4.2-9.7,4.2-14.4
			S31.1,69.9,26.5,69.9L26.5,69.9z"/>
	</g>
	<g>
		<path class="st0" d="M63,125c-23.4,0-36.3-32.3-36.3-54.6c0-22.7,15.6-39.7,36.3-39.7s36.3,17.1,36.3,39.7
			c0,12.7-3.4,26.2-9.1,36.3C85.4,115,76.9,125,63,125z"/>
		<path class="st1" d="M63,31.1c9.7,0,18.7,3.9,25.3,10.9c6.8,7.2,10.5,17.3,10.5,28.4c0,12.6-3.4,26-9,36
			c-4.7,8.3-13.1,18.1-26.7,18.1c-10.1,0-19.4-6.4-26.2-18.1c-6-10.3-9.6-23.7-9.6-36c0-11.1,3.7-21.2,10.5-28.4
			C44.3,35,53.3,31.1,63,31.1 M63,30.1c-20.3,0-36.8,16.4-36.8,40.2s13.7,55.1,36.8,55.1c24.6,0,36.8-31.3,36.8-55.1
			S83.3,30.1,63,30.1L63,30.1z"/>
	</g>
	<g>
		<g>
			<circle class="st1" cx="45.1" cy="70.9" r="6.6"/>
		</g>
		<g>
			<circle class="st1" cx="81" cy="70.9" r="6.6"/>
		</g>
	</g>
	<path class="st8" d="M76.7,108.2"/>
	<g>
		<path class="st0" d="M96.5,50.9c-2.1,0-5.1-0.6-9-1.3c-6.2-1.2-14.6-2.8-23.7-2.8c-9.1,0-17.6,1.6-23.7,2.8c-3.9,0.8-7,1.3-9,1.3
			c-0.9,0-1.6-0.1-2-0.4c-0.4-0.2-0.5-0.5-0.5-1c0-4.8,14.6-22.8,34.4-22.8c19,0,36.1,17.5,36.1,22.8C99,50.2,98.7,50.9,96.5,50.9z"
			/>
		<path class="st1" d="M62.9,27.1c19.6,0,35.6,17.9,35.6,22.3c0,0.3,0,0.9-2,0.9c-2,0-5.1-0.6-8.9-1.3c-6.2-1.2-14.7-2.8-23.8-2.8
			c-9.1,0-17.6,1.6-23.8,2.8c-3.9,0.7-6.9,1.3-8.9,1.3c-2,0-2-0.6-2-0.9C29,44.8,43.4,27.1,62.9,27.1 M62.9,26.1
			c-19.8,0-34.9,18-34.9,23.3c0,1.4,1.1,1.9,3,1.9c5.5,0,18.1-4.2,32.7-4.2c14.6,0,27.2,4.2,32.7,4.2c1.9,0,3-0.5,3-1.9
			C99.5,44.1,82.7,26.1,62.9,26.1L62.9,26.1z"/>
	</g>
	<g>
		<g>
			<path class="st1" d="M52.8,105.6c0,5.5,4.4,9.9,9.9,9.9c5.5,0,9.9-4.4,9.9-9.9H52.8z"/>
		</g>
	</g>
	<g>
		<polygon class="st0" points="57.8,94.7 62.8,78.2 67.9,94.7 		"/>
		<path class="st1" d="M62.8,79.9l4.4,14.3h-8.7L62.8,79.9 M62.8,76.4l-5.7,18.8h11.4L62.8,76.4L62.8,76.4z"/>
	</g>
</g>
<path class="st8" d="M322.8,108.2"/>
<g>
	<path class="st0" d="M342.7,50.9c-2.1,0-5.1-0.6-9-1.3c-6.2-1.2-14.6-2.8-23.7-2.8c-9.1,0-17.5,1.6-23.7,2.8c-3.9,0.8-7,1.3-9,1.3
		c-0.9,0-1.6-0.1-2-0.4c-0.4-0.2-0.5-0.5-0.5-1c0-4.8,14.6-22.8,34.4-22.8c19,0,36.1,17.5,36.1,22.8
		C345.2,50.2,344.9,50.9,342.7,50.9z"/>
	<path class="st1" d="M309.1,27.1c19.6,0,35.6,17.9,35.6,22.3c0,0.3,0,0.9-2,0.9c-2,0-5.1-0.6-8.9-1.3c-6.2-1.2-14.7-2.8-23.8-2.8
		c-9.1,0-17.6,1.6-23.8,2.8c-3.9,0.7-6.9,1.3-8.9,1.3c-2,0-2-0.6-2-0.9C275.2,44.8,289.6,27.1,309.1,27.1 M309.1,26.1
		c-19.8,0-34.9,18-34.9,23.3c0,1.4,1.1,1.9,3,1.9c5.5,0,18.1-4.2,32.7-4.2c14.6,0,27.2,4.2,32.7,4.2c1.9,0,3-0.5,3-1.9
		C345.7,44.1,328.8,26.1,309.1,26.1L309.1,26.1z"/>
</g>
<g>
	<g>
		<path class="st1" d="M299,105.6c0,5.5,4.4,9.9,9.9,9.9s9.9-4.4,9.9-9.9H299z"/>
	</g>
</g>
<g>
	<path class="st0" d="M471.1,92.2c-0.7,0-1.2-0.2-1.7-0.7c-2.1-2.1-2-8.3-2-12l0-1.1c0-4.4,3.6-7.9,7.9-7.9s7.9,3.6,7.9,7.9
		C483.3,82.7,475.5,92.2,471.1,92.2z"/>
	<path class="st1" d="M475.4,70.9c4.1,0,7.4,3.3,7.4,7.4c0,4-7.5,13.4-11.7,13.4c-0.5,0-1-0.2-1.4-0.6c-1.9-2-1.9-8-1.9-11.7
		c0-0.4,0-0.8,0-1.1C467.9,74.3,471.3,70.9,475.4,70.9 M475.4,69.9c-4.7,0-8.4,3.8-8.4,8.4s-0.4,14.4,4.2,14.4s12.7-9.7,12.7-14.4
		S480,69.9,475.4,69.9L475.4,69.9z"/>
</g>
<g>
	<path class="st0" d="M406,92.2c-4.4,0-12.2-9.6-12.2-13.9c0-4.4,3.6-7.9,7.9-7.9s7.9,3.6,7.9,7.9l0,1.1c0,3.7,0.1,9.9-2,12
		C407.3,92,406.7,92.2,406,92.2z"/>
	<path class="st1" d="M401.8,70.9c4.1,0,7.4,3.3,7.4,7.4c0,0.4,0,0.7,0,1.1c0,3.6,0.1,9.7-1.9,11.7c-0.4,0.4-0.8,0.6-1.4,0.6
		c-4.1,0-11.7-9.4-11.7-13.4C394.4,74.3,397.7,70.9,401.8,70.9 M401.8,69.9c-4.7,0-8.4,3.8-8.4,8.4s8,14.4,12.7,14.4
		s4.2-9.7,4.2-14.4S406.5,69.9,401.8,69.9L401.8,69.9z"/>
</g>
<g>
	<path class="st0" d="M438.3,125c-23.4,0-36.3-32.3-36.3-54.6c0-22.7,15.6-39.7,36.3-39.7s36.3,17.1,36.3,39.7
		c0,12.7-3.4,26.2-9.1,36.3C460.8,115,452.2,125,438.3,125z"/>
	<path class="st1" d="M438.4,31.1c9.7,0,18.7,3.9,25.3,10.9c6.8,7.2,10.5,17.3,10.5,28.4c0,12.6-3.4,26-9,36
		c-4.7,8.3-13.1,18.1-26.7,18.1c-10.1,0-19.4-6.4-26.2-18.1c-6-10.3-9.6-23.7-9.6-36c0-11.1,3.7-21.2,10.5-28.4
		C419.7,35,428.6,31.1,438.4,31.1 M438.4,30.1c-20.3,0-36.8,16.4-36.8,40.2s13.7,55.1,36.8,55.1c24.6,0,36.8-31.3,36.8-55.1
		S458.7,30.1,438.4,30.1L438.4,30.1z"/>
</g>
<g>
	<g>
		<circle class="st1" cx="424.9" cy="70.9" r="5"/>
	</g>
	<g>
		<circle class="st1" cx="451.8" cy="70.9" r="5"/>
	</g>
	<g>
		<polygon class="st0" points="433.3,94.7 438.3,78.1 443.4,94.7 		"/>
		<path class="st1" d="M438.4,79.8l4.4,14.3H434L438.4,79.8 M438.4,76.4l-5.7,18.8h11.4L438.4,76.4L438.4,76.4z"/>
	</g>
</g>
<g>
	<g>
		<ellipse class="st1" cx="194.3" cy="339.3" rx="9" ry="12.6"/>
	</g>
	<g>
		<ellipse class="st1" cx="242.7" cy="339.3" rx="9" ry="12.6"/>
	</g>
	<g>
		<polygon class="st0" points="208.8,382.7 218.5,351 228.1,382.7 		"/>
		<path class="st1" d="M218.5,352.7l9,29.5h-17.9L218.5,352.7 M218.5,349.3l-10.3,33.9h20.6L218.5,349.3L218.5,349.3z"/>
	</g>
	<g>
		<ellipse class="st1" cx="293.8" cy="71.1" rx="5.8" ry="8.1"/>
	</g>
	<g>
		<ellipse class="st1" cx="325.2" cy="71.1" rx="5.8" ry="8.1"/>
	</g>
</g>
<g>
	<path class="st0" d="M480,50.9c-2.6,0-6.5-0.9-11.5-2.1c-7.8-1.9-18.6-4.4-30.2-4.4c-11.6,0-22.3,2.6-30.2,4.4
		c-5,1.2-8.9,2.1-11.5,2.1c-1.2,0-2-0.2-2.6-0.6c-0.5-0.4-0.8-1-0.8-1.9c0-8.8,19.8-35.9,43.9-35.9c24.3,0,46.1,27.6,46.1,35.9
		C483.3,50.1,482.4,50.9,480,50.9z"/>
	<path class="st1" d="M437.3,13c14.3,0,26.2,9.3,32,14.8c8.4,7.9,13.6,16.9,13.6,20.6c0,1-0.2,2-2.8,2c-2.6,0-6.5-0.9-11.4-2.1
		c-7.9-1.9-18.6-4.4-30.3-4.4c-11.6,0-22.4,2.6-30.3,4.4c-4.9,1.2-8.8,2.1-11.4,2.1c-2.6,0-2.8-0.9-2.8-2
		C393.9,41,412.3,13,437.3,13 M437.3,12c-25.1,0-44.4,28-44.4,36.4c0,2.2,1.4,3,3.8,3c7.1,0,23-6.5,41.7-6.5
		c18.6,0,34.6,6.5,41.7,6.5c2.5,0,3.8-0.8,3.8-3C483.8,40,462.4,12,437.3,12L437.3,12z"/>
</g>
<path class="st8" d="M452,108.2"/>
<g>
	<g>
		<path class="st1" d="M428.2,105.6c0,5.5,4.4,9.9,9.9,9.9c5.5,0,9.9-4.4,9.9-9.9H428.2z"/>
	</g>
</g>
<polyline class="st8" points="285.8,258.5 295.8,258.5 295.8,304.5 285.8,304.5 "/>
<path class="st8" d="M437.3,134v25H63v-25"/>
<line class="st9" x1="309.3" y1="135" x2="309.3" y2="156"/>
<line class="st9" x1="179" y1="135" x2="179" y2="156"/>
<line class="st9" x1="248" y1="163" x2="248" y2="175"/>
<rect x="10.7" y="297" class="st10" width="131.3" height="74.7"/>
<text transform="matrix(1 0 0 1 10.6665 307.5)"><tspan x="0" y="0" class="st2 st5 st7">necessary to show </tspan><tspan x="0" y="16.8" class="st2 st5 st7">which facial features </tspan><tspan x="0" y="33.6" class="st2 st5 st7">represent values</tspan></text>
<path class="st8" d="M28,262v-31.3h444.3V248h0v195H28v-91"/>
</svg>
