<?xml version="1.0" encoding="utf-8"?>
<!-- Generator: Adobe Illustrator 19.2.0, SVG Export Plug-In . SVG Version: 6.00 Build 0)  -->
<svg version="1.1" id="Layer_1" xmlns="http://www.w3.org/2000/svg" xmlns:xlink="http://www.w3.org/1999/xlink" x="0px" y="0px"
	 width="1268px" height="558px" viewBox="0 0 1268 558" enable-background="new 0 0 1268 558" xml:space="preserve">
<path fill="#EBE0D4" d="M2601.012,47.912V2h-138.823v22.956h-68.868v22.956h-68.867v17.956l-206.603,0V1.956h-88.867v14.956h-45.912
	v15.044h-25.912l-0.152,74.823h-110.788V53.823H1778V34.956h-69.514v35.912h-45.912v22.956h-22.956v45.912H1572v-22.956h-139.147
	v68.868h22.956v22.956H1337.03v68.868h26.956v22.956h22.956v68.867h91.823v75.704H1543v24.786h23v-8.24h30v16.634h43l0.456-62.971
	h22.956v22.956h22.956v22.956l157.014,0v45.912h22.956v-22.956h22.956v45.912h22.956v-22.956h22.956v-22.956h45.912v-22.956h68.867
	v-22.956h45.912v45.912h22.956v22.956h22.956v48.912h137.735v-94.823h22.956v-22.956h22.956v-68.867h22.956v-48.867h68.867V208.603
	h-22.956v-45.809l45.912-0.103v-22.956h138.823V70.868h-22.956V47.912H2601.012z M1957.161,369.293l0,0.017L1957.161,369.293
	L1957.161,369.293z M1911.249,369.285l0,0.009h0V369.285z"/>
<path fill="#6C5F82" d="M2243,466h-47c-11.046,0-20-8.954-20-20v-47c0-11.046,8.954-20,20-20h47c11.046,0,20,8.954,20,20v47
	C2263,457.046,2254.046,466,2243,466z"/>
<path fill="#6C5F82" d="M2527.833,122.559h-56.665c-13.231,0-22.014-13.705-16.487-25.726l24.554-53.405
	c3.639-7.915,11.554-12.987,20.266-12.987l0,0c8.712,0,16.626,5.072,20.266,12.987l24.554,53.405
	C2549.847,108.855,2541.064,122.559,2527.833,122.559z"/>
<path fill="#6C5F82" d="M1788.64,163.441h-68.279c-15.943,0-26.526-16.514-19.866-30.999l29.587-64.351
	c4.385-9.538,13.922-15.649,24.419-15.649l0,0c10.497,0,20.034,6.112,24.419,15.649l29.587,64.351
	C1815.166,146.927,1804.583,163.441,1788.64,163.441z"/>
<path fill="#E0BE99" d="M1470.833,346h-56.665c-13.231,0-22.014-13.705-16.487-25.726l24.554-53.405
	c3.639-7.915,11.554-12.987,20.266-12.987l0,0c8.712,0,16.626,5.072,20.266,12.987l24.554,53.405
	C1492.847,332.295,1484.064,346,1470.833,346z"/>
<path fill="#9C96AD" d="M1958.833,231h-56.665c-13.231,0-22.014-13.705-16.487-25.726l24.554-53.405
	c3.639-7.915,11.554-12.987,20.266-12.987l0,0c8.712,0,16.626,5.072,20.266,12.987l24.554,53.405
	C1980.847,217.295,1972.064,231,1958.833,231z"/>
<path fill="#E0BE99" d="M1604,440h-47c-11.046,0-20-8.954-20-20v-47c0-11.046,8.954-20,20-20h47c11.046,0,20,8.954,20,20v47
	C1624,431.046,1615.046,440,1604,440z"/>
<path fill="#9C96AD" d="M2319.511,181.5h-54.023c-12.696,0-22.989-10.292-22.989-22.989v-54.023
	c0-12.696,10.292-22.989,22.989-22.989h54.023c12.696,0,22.989,10.292,22.989,22.989v54.023
	C2342.5,171.208,2332.208,181.5,2319.511,181.5z"/>
<polyline fill="none" stroke="#FFFFFF" stroke-width="4" stroke-miterlimit="10" points="1796,346 1865,346 1865,369 1911,369 
	1911,281 1865,281 1865,254.47 1865,183 1719,183 1719,255 1742,255 1742,277 1765,277 1765,346 1796,346 1796,471 "/>
<polyline fill="none" stroke="#FFFFFF" stroke-width="4" stroke-miterlimit="10" points="1980,484 1980,392 1957,392 1957,369 
	1911,369 "/>
<polyline fill="none" stroke="#FFFFFF" stroke-width="4" stroke-miterlimit="10" points="1911,281 1957,281 1957,301 2003,301 
	2003,133 1957.161,133 1957.161,28 "/>
<polyline fill="none" stroke="#FFFFFF" stroke-width="4" stroke-miterlimit="10" points="2003,163 2003,133 2048,133 2048,163 
	2117,163 2117,186 2209,186 2256,186 2256,232 2301,232 2301,206.918 2429.5,206.918 "/>
<polyline fill="none" stroke="#FFFFFF" stroke-width="4" stroke-miterlimit="10" points="2393,25 2393,94 2439,94 2439,163 "/>
<line fill="none" stroke="#FFFFFF" stroke-width="4" stroke-miterlimit="10" x1="2166" y1="65.75" x2="2166" y2="186"/>
<polyline fill="none" stroke="#FFFFFF" stroke-width="4" stroke-miterlimit="10" points="2003,300 2164,300 2164,254 2210,254 
	2210,277 2256,277 2256,232 "/>
<polyline fill="none" stroke="#FFFFFF" stroke-width="4" stroke-miterlimit="10" points="2256,346 2302,346 2302,369 2347,369 "/>
<path fill="none" stroke="#FFFFFF" stroke-width="4" stroke-miterlimit="10" d="M2256,346.338V277.47V346.338z"/>
<polyline fill="none" stroke="#FFFFFF" stroke-width="4" stroke-miterlimit="10" points="1337,209 1479,209 1479,278 1571,278 
	1571,301 1617,301 1617,209 1685,209 1685,183 1754,183 "/>
<polyline fill="none" stroke="#FFFFFF" stroke-width="4" stroke-miterlimit="10" points="1617,300 1617,346 1640,346 1640,493 "/>
<polyline fill="none" stroke="#FFFFFF" stroke-width="4" stroke-miterlimit="10" points="1525,277 1525,392 1449,392 "/>
<g id="Layer_2">
</g>
<circle fill="#FFFFFF" cx="2202.906" cy="412.772" r="7.305"/>
<circle fill="#FFFFFF" cx="2236.622" cy="412.772" r="7.305"/>
<path fill="none" stroke="#FFFFFF" stroke-width="7" stroke-miterlimit="10" d="M2199.315,431.863
	c3.357,7.75,11.077,13.175,20.065,13.175s16.708-5.425,20.065-13.175"/>
<g>
	<g>
		<circle fill="#9C96AD" cx="190.279" cy="198.356" r="47.5"/>
		<circle fill="#FFFFFF" cx="171.124" cy="192.604" r="8.164"/>
		<circle fill="#FFFFFF" cx="208.807" cy="192.604" r="8.164"/>
		<path fill="none" stroke="#FFFFFF" stroke-width="7" stroke-miterlimit="10" d="M167.111,213.942
			c3.752,8.661,12.38,14.725,22.425,14.725s18.673-6.064,22.425-14.725"/>
	</g>
	<g>
		<circle fill="#6C5F82" cx="443.753" cy="198.356" r="47.5"/>
		<circle fill="#FFFFFF" cx="424.598" cy="192.604" r="8.164"/>
		<circle fill="#FFFFFF" cx="462.281" cy="192.604" r="8.164"/>
		<path fill="none" stroke="#FFFFFF" stroke-width="7" stroke-miterlimit="10" d="M411.604,181.1c0,0,8.46-8.609,17.929-8.535"/>
		<path fill="none" stroke="#FFFFFF" stroke-width="7" stroke-miterlimit="10" d="M477.183,181.1c0,0-8.46-8.609-17.929-8.535"/>
		<path fill="#FFFFFF" d="M424.598,216.05c0.199,11.305,9.419,20.41,20.772,20.41c11.353,0,20.573-9.105,20.772-20.41H424.598z"/>
	</g>
	<g>
		<circle fill="#6C5F82" cx="1203.027" cy="198.356" r="47.5"/>
		<ellipse fill="#FFFFFF" cx="1183.849" cy="186.84" rx="8.539" ry="11.214"/>
		<ellipse fill="#FFFFFF" cx="1220.565" cy="186.84" rx="8.539" ry="11.214"/>
		<circle fill="#6C5F82" cx="1183.849" cy="180.391" r="5.414"/>
		<circle fill="#6C5F82" cx="1220.565" cy="180.391" r="5.414"/>
		<path fill="none" stroke="#FFFFFF" stroke-width="7" stroke-miterlimit="10" d="M1180.602,214.98
			c3.752,8.661,12.38,14.725,22.425,14.725c10.045,0,18.673-6.064,22.425-14.725"/>
	</g>
	<g>
		<circle fill="#6C5F82" cx="697.098" cy="198.356" r="47.5"/>
		<ellipse fill="#FFFFFF" cx="677.92" cy="186.84" rx="8.539" ry="11.214"/>
		<ellipse fill="#FFFFFF" cx="714.635" cy="186.84" rx="8.539" ry="11.214"/>
		<circle fill="#6C5F82" cx="677.92" cy="180.391" r="5.414"/>
		<circle fill="#6C5F82" cx="714.635" cy="180.391" r="5.414"/>
		<path fill="none" stroke="#FFFFFF" stroke-width="7" stroke-miterlimit="10" d="M677.696,211.687
			c2.603,3.738,6.124,6.919,10.446,9.168c7.163,3.728,15.163,4.188,22.293,1.913"/>
	</g>
	<g>
		<circle fill="#E0BE99" cx="569.886" cy="198.356" r="47.5"/>
		<path fill="#FFFFFF" d="M560.508,189.926c0-5.226-4.237-9.463-9.463-9.463c-5.226,0-9.463,4.237-9.463,9.463
			c0,3.181,1.571,5.993,3.978,7.709c4.487-2.682,9.452-4.645,14.739-5.729C560.435,191.267,560.508,190.605,560.508,189.926z"/>
		<path fill="#FFFFFF" d="M598.191,189.926c0-5.226-4.237-9.463-9.463-9.463c-5.226,0-9.463,4.237-9.463,9.463
			c0,0.679,0.073,1.341,0.209,1.98c5.287,1.084,10.252,3.047,14.739,5.729C596.619,195.919,598.191,193.107,598.191,189.926z"/>
		<path fill="#FFFFFF" d="M549.114,210.868c0.199,11.305,9.419,20.41,20.772,20.41c11.353,0,20.573-9.105,20.772-20.41H549.114z"/>
	</g>
	<g>
		<circle fill="#9C96AD" cx="1075.815" cy="198.356" r="47.5"/>
		<ellipse fill="#FFFFFF" cx="1056.637" cy="190.84" rx="8.539" ry="11.214"/>
		<ellipse fill="#FFFFFF" cx="1093.353" cy="190.84" rx="8.539" ry="11.214"/>
		<circle fill="#9C96AD" cx="1056.637" cy="184.391" r="5.414"/>
		<circle fill="#9C96AD" cx="1093.353" cy="184.391" r="5.414"/>
		<path fill="none" stroke="#FFFFFF" stroke-width="7" stroke-miterlimit="10" d="M1044.143,177.41c0,0,8.46-8.609,17.929-8.535"/>
		<path fill="none" stroke="#FFFFFF" stroke-width="7" stroke-miterlimit="10" d="M1109.722,177.41c0,0-8.46-8.609-17.929-8.535"/>
		<path fill="none" stroke="#FFFFFF" stroke-width="7" stroke-miterlimit="10" d="M1055.909,215.442
			c2.603,3.738,6.124,6.919,10.446,9.168c7.163,3.728,15.163,4.188,22.293,1.913"/>
	</g>
	<g>
		<circle fill="#9C96AD" cx="948.785" cy="198.356" r="47.5"/>
		<circle fill="#FFFFFF" cx="929.63" cy="192.604" r="8.164"/>
		<circle fill="#FFFFFF" cx="967.313" cy="192.604" r="8.164"/>
		<path fill="none" stroke="#FFFFFF" stroke-width="7" stroke-miterlimit="10" d="M916.636,181.1c0,0,8.46-8.609,17.929-8.535"/>
		<path fill="none" stroke="#FFFFFF" stroke-width="7" stroke-miterlimit="10" d="M982.215,181.1c0,0-8.46-8.609-17.929-8.535"/>
		
			<line fill="none" stroke="#FFFFFF" stroke-width="7" stroke-miterlimit="10" x1="932.785" y1="221.674" x2="964.785" y2="221.674"/>
	</g>
	<g>
		<circle fill="#A3B1D6" cx="316.926" cy="198.356" r="47.5"/>
		<path fill="none" stroke="#FFFFFF" stroke-width="7" stroke-miterlimit="10" d="M284.137,178.688c0,0,8.46-8.609,17.929-8.535"/>
		<path fill="none" stroke="#FFFFFF" stroke-width="7" stroke-miterlimit="10" d="M349.715,178.688c0,0-8.46-8.609-17.929-8.535"/>
		
			<line fill="none" stroke="#FFFFFF" stroke-width="7" stroke-miterlimit="10" x1="300.926" y1="219.396" x2="332.926" y2="219.396"/>
		<path fill="#FFFFFF" d="M299.781,185.363c-3.26,0-6.128,1.648-7.831,4.153l-5.025-3.379l-2.789,4.149l6.185,4.176h18.91
			C309.041,189.403,304.881,185.363,299.781,185.363z"/>
		<path fill="#FFFFFF" d="M334.25,185.363c3.26,0,6.128,1.648,7.831,4.153l5.025-3.379l2.789,4.149l-6.185,4.176H324.8
			C324.99,189.403,329.15,185.363,334.25,185.363z"/>
	</g>
	<g>
		<circle fill="#E0BE99" cx="63.242" cy="198.356" r="47.5"/>
		<path fill="#FFFFFF" d="M40.475,208.68c2.259,11.159,12.11,19.563,23.936,19.563s21.677-8.404,23.936-19.563H40.475z"/>
		<path fill="#FFFFFF" d="M46.766,185.363c-3.26,0-6.128,1.648-7.831,4.153l-5.025-3.379l-2.789,4.149l6.185,4.176h18.91
			C56.026,189.403,51.866,185.363,46.766,185.363z"/>
		<path fill="#FFFFFF" d="M81.234,185.363c3.26,0,6.128,1.648,7.831,4.153l5.025-3.379l2.789,4.149l-6.185,4.176h-18.91
			C71.974,189.403,76.134,185.363,81.234,185.363z"/>
	</g>
	<g>
		<circle fill="#9C96AD" cx="823.265" cy="198.356" r="47.5"/>
		<path fill="none" stroke="#FFFFFF" stroke-width="7" stroke-miterlimit="10" d="M800.84,211.906
			c3.752,8.661,12.38,14.725,22.425,14.725c10.045,0,18.673-6.064,22.425-14.725"/>
		<path fill="none" stroke="#FFFFFF" stroke-width="7" stroke-miterlimit="10" d="M790.476,178.688c0,0,8.46-8.609,17.929-8.535"/>
		<path fill="none" stroke="#FFFFFF" stroke-width="7" stroke-miterlimit="10" d="M856.054,178.688c0,0-8.46-8.609-17.929-8.535"/>
		<path fill="#FFFFFF" d="M806.031,185.249c-3.26,0-6.128,1.648-7.831,4.153l-5.025-3.379l-2.789,4.149l6.185,4.176h18.91
			C815.291,189.289,811.131,185.249,806.031,185.249z"/>
		<path fill="#FFFFFF" d="M840.499,185.249c3.26,0,6.128,1.648,7.831,4.153l5.025-3.379l2.789,4.149l-6.185,4.176h-18.91
			C831.239,189.289,835.399,185.249,840.499,185.249z"/>
	</g>
</g>
<g>
	<circle fill="#A3B1D6" cx="190.279" cy="58.866" r="47.5"/>
	<circle fill="#FFFFFF" cx="171.124" cy="53.114" r="8.164"/>
	<circle fill="#FFFFFF" cx="208.807" cy="53.114" r="8.164"/>
	<path fill="none" stroke="#FFFFFF" stroke-width="7" stroke-miterlimit="10" d="M158.13,41.61c0,0,8.46-8.609,17.929-8.535"/>
	<path fill="none" stroke="#FFFFFF" stroke-width="7" stroke-miterlimit="10" d="M223.709,41.61c0,0-8.46-8.609-17.929-8.535"/>
	<path fill="none" stroke="#FFFFFF" stroke-width="7" stroke-miterlimit="10" d="M167.111,74.452
		c3.752,8.661,12.38,14.725,22.425,14.725s18.673-6.064,22.425-14.725"/>
</g>
<g>
	<circle fill="#E0BE99" cx="316.926" cy="58.866" r="47.5"/>
	<circle fill="#FFFFFF" cx="298.116" cy="53.114" r="8.164"/>
	<circle fill="#FFFFFF" cx="335.798" cy="53.114" r="8.164"/>
	<path fill="#FFFFFF" d="M295.968,71.609c0.199,11.305,9.419,20.41,20.772,20.41s20.573-9.105,20.772-20.41H295.968z"/>
</g>
<g>
	<circle fill="#9C96AD" cx="823.265" cy="58.866" r="47.5"/>
	<ellipse fill="#FFFFFF" cx="804.088" cy="47.35" rx="8.539" ry="11.214"/>
	<path fill="#FFFFFF" d="M802.308,71.609c0.199,11.305,9.419,20.41,20.772,20.41c11.353,0,20.573-9.105,20.772-20.41H802.308z"/>
	<ellipse fill="#FFFFFF" cx="840.803" cy="47.35" rx="8.539" ry="11.214"/>
	<circle fill="#9C96AD" cx="804.088" cy="40.901" r="5.414"/>
	<circle fill="#9C96AD" cx="840.803" cy="40.901" r="5.414"/>
</g>
<g>
	<circle fill="#9C96AD" cx="63.242" cy="58.866" r="47.5"/>
	<path fill="#FFFFFF" d="M55.025,47.282c-2.289-4.904-8.005-7.293-13.153-5.351s-7.864,7.51-6.344,12.704L55.025,47.282z"/>
	<path fill="#FFFFFF" d="M40.475,68.68c2.259,11.159,12.11,19.563,23.936,19.563s21.677-8.404,23.936-19.563H40.475z"/>
	<path fill="#FFFFFF" d="M71.867,47.282c2.289-4.904,8.005-7.293,13.153-5.351c5.148,1.941,7.864,7.51,6.344,12.704L71.867,47.282z"
		/>
</g>
<g>
	<circle fill="#9C96AD" cx="1203.027" cy="58.866" r="47.5"/>
	<path fill="none" stroke="#FFFFFF" stroke-width="7" stroke-miterlimit="10" d="M1179.86,74.452
		c3.752,8.661,12.38,14.725,22.425,14.725c10.045,0,18.673-6.064,22.425-14.725"/>
	<path fill="#FFFFFF" d="M1193.97,48.58c-2.289-4.904-8.005-7.293-13.153-5.351c-5.148,1.941-7.864,7.51-6.344,12.704L1193.97,48.58
		z"/>
	<path fill="#FFFFFF" d="M1210.812,48.58c2.289-4.904,8.005-7.293,13.153-5.351c5.148,1.941,7.864,7.51,6.344,12.704L1210.812,48.58
		z"/>
</g>
<g>
	<circle fill="#6C5F82" cx="443.753" cy="58.866" r="47.5"/>
	<path fill="#FFFFFF" d="M423.899,74.884c3.006,8.045,10.76,13.774,19.854,13.774c9.093,0,16.848-5.729,19.854-13.774H423.899z"/>
	<path fill="#FFFFFF" d="M426.656,45.873c-3.26,0-6.128,1.648-7.831,4.153l-5.025-3.379l-2.789,4.149l6.185,4.176h18.91
		C435.916,49.913,431.756,45.873,426.656,45.873z"/>
	<path fill="#FFFFFF" d="M461.124,45.873c3.26,0,6.128,1.648,7.831,4.153l5.025-3.379l2.789,4.149l-6.185,4.176h-18.91
		C451.864,49.913,456.024,45.873,461.124,45.873z"/>
</g>
<g>
	<circle fill="#A3B1D6" cx="569.886" cy="58.866" r="47.5"/>
	<path fill="#FFFFFF" d="M559.508,50.436c0-5.226-4.237-9.463-9.463-9.463c-5.226,0-9.463,4.237-9.463,9.463
		c0,3.181,1.571,5.993,3.978,7.709c4.487-2.682,9.452-4.645,14.739-5.729C559.435,51.777,559.508,51.115,559.508,50.436z"/>
	<path fill="#FFFFFF" d="M597.191,50.436c0-5.226-4.237-9.463-9.463-9.463c-5.226,0-9.463,4.237-9.463,9.463
		c0,0.679,0.073,1.341,0.209,1.98c5.287,1.084,10.252,3.047,14.739,5.729C595.619,56.429,597.191,53.617,597.191,50.436z"/>
	<path fill="none" stroke="#FFFFFF" stroke-width="7" stroke-miterlimit="10" d="M549.845,74.953
		c2.603,3.738,6.124,6.919,10.446,9.168c7.163,3.728,15.163,4.188,22.293,1.913"/>
</g>
<g>
	<circle fill="#A3B1D6" cx="697.098" cy="57.866" r="47.5"/>
	<circle fill="#FFFFFF" cx="677.287" cy="52.114" r="8.164"/>
	<circle fill="#FFFFFF" cx="714.97" cy="52.114" r="8.164"/>
	<path fill="none" stroke="#FFFFFF" stroke-width="7" stroke-miterlimit="10" d="M678.287,76.365
		c2.603,3.738,6.124,6.919,10.446,9.168c7.163,3.728,15.163,4.188,22.293,1.913"/>
</g>
<circle fill="#E0BE99" cx="2346.268" cy="269.651" r="50"/>
<g>
	<circle fill="#6C5F82" cx="948.785" cy="58.866" r="47.5"/>
	<circle fill="#FFFFFF" cx="929.63" cy="53.114" r="8.164"/>
	<circle fill="#FFFFFF" cx="967.313" cy="53.114" r="8.164"/>
	<path fill="none" stroke="#FFFFFF" stroke-width="7" stroke-miterlimit="10" d="M916.636,41.61c0,0,8.46-8.609,17.929-8.535"/>
	<path fill="none" stroke="#FFFFFF" stroke-width="7" stroke-miterlimit="10" d="M982.215,41.61c0,0-8.46-8.609-17.929-8.535"/>
	<line fill="none" stroke="#FFFFFF" stroke-width="7" stroke-miterlimit="10" x1="931.65" y1="83.597" x2="963.65" y2="83.597"/>
</g>
<g>
	<circle fill="#9C96AD" cx="1075.815" cy="58.866" r="47.5"/>
	<path fill="none" stroke="#FFFFFF" stroke-width="7" stroke-miterlimit="10" d="M1043.025,39.198c0,0,8.46-8.609,17.929-8.535"/>
	<path fill="none" stroke="#FFFFFF" stroke-width="7" stroke-miterlimit="10" d="M1108.604,39.198c0,0-8.46-8.609-17.929-8.535"/>
	<path fill="none" stroke="#FFFFFF" stroke-width="7" stroke-miterlimit="10" d="M1055.909,75.365
		c2.603,3.738,6.124,6.919,10.446,9.168c7.163,3.728,15.163,4.188,22.293,1.913"/>
	<path fill="#FFFFFF" d="M1058.493,46.91c-3.26,0-6.128,1.648-7.831,4.153l-5.025-3.379l-2.789,4.149l6.185,4.176h18.91
		C1067.753,50.95,1063.593,46.91,1058.493,46.91z"/>
	<path fill="#FFFFFF" d="M1092.962,46.91c3.26,0,6.128,1.648,7.831,4.153l5.025-3.379l2.789,4.149l-6.185,4.176h-18.91
		C1083.702,50.95,1087.862,46.91,1092.962,46.91z"/>
</g>
<g>
	<g>
		<circle fill="#A3B1D6" cx="697.098" cy="472.479" r="47.5"/>
		<ellipse fill="#FFFFFF" cx="677.92" cy="460.963" rx="8.539" ry="11.214"/>
		<ellipse fill="#FFFFFF" cx="714.635" cy="460.963" rx="8.539" ry="11.214"/>
		<circle fill="#A3B1D6" cx="677.92" cy="454.513" r="5.414"/>
		<circle fill="#A3B1D6" cx="714.635" cy="454.513" r="5.414"/>
		<path fill="#FFFFFF" d="M677.244,492.308c3.006,8.045,10.76,13.774,19.854,13.774c9.093,0,16.848-5.729,19.854-13.774H677.244z"/>
	</g>
	<g>
		<circle fill="#E0BE99" cx="316.926" cy="472.479" r="47.5"/>
		<ellipse fill="#FFFFFF" cx="297.748" cy="464.963" rx="8.539" ry="11.214"/>
		<ellipse fill="#FFFFFF" cx="334.464" cy="464.963" rx="8.539" ry="11.214"/>
		<circle fill="#E0BE99" cx="297.748" cy="458.513" r="5.414"/>
		<circle fill="#E0BE99" cx="334.464" cy="458.513" r="5.414"/>
		<path fill="none" stroke="#FFFFFF" stroke-width="7" stroke-miterlimit="10" d="M285.254,451.532c0,0,8.46-8.609,17.929-8.535"/>
		<path fill="none" stroke="#FFFFFF" stroke-width="7" stroke-miterlimit="10" d="M350.833,451.532c0,0-8.46-8.609-17.929-8.535"/>
		<path fill="none" stroke="#FFFFFF" stroke-width="7" stroke-miterlimit="10" d="M294.501,489.946
			c3.752,8.661,12.38,14.725,22.425,14.725s18.673-6.064,22.425-14.725"/>
	</g>
	<g>
		<circle fill="#9C96AD" cx="1203.027" cy="472.479" r="47.5"/>
		<ellipse fill="#FFFFFF" cx="1183.849" cy="464.963" rx="8.539" ry="11.214"/>
		<ellipse fill="#FFFFFF" cx="1220.565" cy="464.963" rx="8.539" ry="11.214"/>
		<circle fill="#9C96AD" cx="1183.849" cy="458.513" r="5.414"/>
		<circle fill="#9C96AD" cx="1220.565" cy="458.513" r="5.414"/>
		<path fill="none" stroke="#FFFFFF" stroke-width="7" stroke-miterlimit="10" d="M1171.355,451.532c0,0,8.46-8.609,17.929-8.535"/>
		<path fill="none" stroke="#FFFFFF" stroke-width="7" stroke-miterlimit="10" d="M1236.934,451.532c0,0-8.46-8.609-17.929-8.535"/>
		<path fill="#FFFFFF" d="M1182.57,487.104c0.199,11.305,9.419,20.41,20.772,20.41c11.353,0,20.573-9.105,20.772-20.41H1182.57z"/>
	</g>
	<g>
		<circle fill="#6C5F82" cx="190.279" cy="472.479" r="47.5"/>
		<path fill="#FFFFFF" d="M182.061,460.895c-2.289-4.904-8.005-7.293-13.153-5.351c-5.148,1.941-7.864,7.51-6.344,12.704
			L182.061,460.895z"/>
		<path fill="#FFFFFF" d="M198.903,460.895c2.289-4.904,8.005-7.293,13.153-5.351c5.148,1.941,7.864,7.51,6.344,12.704
			L198.903,460.895z"/>
		
			<line fill="none" stroke="#FFFFFF" stroke-width="7" stroke-miterlimit="10" x1="173.604" y1="492.057" x2="205.604" y2="492.057"/>
	</g>
	<g>
		<circle fill="#6C5F82" cx="1075.815" cy="472.479" r="47.5"/>
		<ellipse fill="#FFFFFF" cx="1056.637" cy="464.963" rx="8.539" ry="11.214"/>
		<ellipse fill="#FFFFFF" cx="1093.353" cy="464.963" rx="8.539" ry="11.214"/>
		<circle fill="#6C5F82" cx="1056.637" cy="458.513" r="5.414"/>
		<circle fill="#6C5F82" cx="1093.353" cy="458.513" r="5.414"/>
		<path fill="none" stroke="#FFFFFF" stroke-width="7" stroke-miterlimit="10" d="M1044.143,451.532c0,0,8.46-8.609,17.929-8.535"/>
		<path fill="none" stroke="#FFFFFF" stroke-width="7" stroke-miterlimit="10" d="M1109.722,451.532c0,0-8.46-8.609-17.929-8.535"/>
		
			<line fill="none" stroke="#FFFFFF" stroke-width="7" stroke-miterlimit="10" x1="1059.902" y1="492.778" x2="1091.902" y2="492.778"/>
	</g>
	<g>
		<circle fill="#9C96AD" cx="569.886" cy="472.479" r="47.5"/>
		<path fill="#FFFFFF" d="M560.508,464.049c0-5.226-4.237-9.463-9.463-9.463c-5.226,0-9.463,4.237-9.463,9.463
			c0,3.181,1.571,5.993,3.978,7.709c4.487-2.682,9.452-4.645,14.739-5.729C560.435,465.39,560.508,464.728,560.508,464.049z"/>
		<path fill="#FFFFFF" d="M598.191,464.049c0-5.226-4.237-9.463-9.463-9.463c-5.226,0-9.463,4.237-9.463,9.463
			c0,0.679,0.073,1.341,0.209,1.98c5.287,1.084,10.252,3.047,14.739,5.729C596.619,470.042,598.191,467.23,598.191,464.049z"/>
		<path fill="none" stroke="#FFFFFF" stroke-width="7" stroke-miterlimit="10" d="M587.755,494.476
			c-4.435-4.543-10.628-7.364-17.48-7.364c-7.262,0-13.784,3.169-18.258,8.198"/>
	</g>
	<g>
		<circle fill="#9C96AD" cx="823.265" cy="472.479" r="47.5"/>
		<circle fill="#FFFFFF" cx="804.455" cy="466.727" r="8.164"/>
		<circle fill="#FFFFFF" cx="842.138" cy="466.727" r="8.164"/>
		<path fill="none" stroke="#FFFFFF" stroke-width="7" stroke-miterlimit="10" d="M841.134,496.876
			c-4.435-4.543-10.628-7.364-17.48-7.364c-7.262,0-13.784,3.169-18.258,8.198"/>
	</g>
	<g>
		<circle fill="#9C96AD" cx="63.242" cy="472.479" r="47.5"/>
		<path fill="none" stroke="#FFFFFF" stroke-width="7" stroke-miterlimit="10" d="M81.869,499.597
			c-4.435-4.543-10.628-7.364-17.48-7.364c-7.262,0-13.784,3.169-18.258,8.198"/>
		<path fill="#FFFFFF" d="M46.766,457.762c-3.26,0-6.128,1.648-7.831,4.153l-5.025-3.379l-2.789,4.149l6.185,4.176h18.91
			C56.026,461.802,51.866,457.762,46.766,457.762z"/>
		<path fill="#FFFFFF" d="M81.234,457.762c3.26,0,6.128,1.648,7.831,4.153l5.025-3.379l2.789,4.149l-6.185,4.176h-18.91
			C71.974,461.802,76.134,457.762,81.234,457.762z"/>
	</g>
	<g>
		<circle fill="#6C5F82" cx="443.753" cy="472.479" r="47.5"/>
		<line fill="none" stroke="#FFFFFF" stroke-width="7" stroke-miterlimit="10" x1="429.056" y1="495.25" x2="461.056" y2="495.25"/>
		<path fill="#FFFFFF" d="M426.518,459.725c-3.26,0-6.128,1.648-7.831,4.153l-5.025-3.379l-2.789,4.149l6.185,4.176h18.91
			C435.778,463.765,431.618,459.725,426.518,459.725z"/>
		<path fill="#FFFFFF" d="M460.987,459.725c3.26,0,6.128,1.648,7.831,4.153l5.025-3.379l2.789,4.149l-6.185,4.176h-18.91
			C451.727,463.765,455.887,459.725,460.987,459.725z"/>
	</g>
	<g>
		<circle fill="#9C96AD" cx="948.785" cy="472.479" r="47.5"/>
		<path fill="none" stroke="#FFFFFF" stroke-width="7" stroke-miterlimit="10" d="M915.995,452.81c0,0,8.46-8.609,17.929-8.535"/>
		<path fill="none" stroke="#FFFFFF" stroke-width="7" stroke-miterlimit="10" d="M981.574,452.81c0,0-8.46-8.609-17.929-8.535"/>
		<path fill="#FFFFFF" d="M928.931,489.115c3.006,8.045,10.76,13.774,19.854,13.774s16.848-5.729,19.854-13.774H928.931z"/>
		<path fill="#FFFFFF" d="M931.552,458.683c-3.26,0-6.128,1.648-7.831,4.153l-5.025-3.379l-2.789,4.149l6.185,4.176h18.91
			C940.812,462.723,936.652,458.683,931.552,458.683z"/>
		<path fill="#FFFFFF" d="M966.02,458.683c3.26,0,6.128,1.648,7.831,4.153l5.025-3.379l2.789,4.149l-6.185,4.176h-18.91
			C956.76,462.723,960.92,458.683,966.02,458.683z"/>
	</g>
</g>
<g>
	<circle fill="#A3B1D6" cx="63.242" cy="335.227" r="47.5"/>
	<path fill="#FFFFFF" d="M55.025,323.643c-2.289-4.904-8.005-7.293-13.153-5.351c-5.148,1.941-7.864,7.51-6.344,12.704
		L55.025,323.643z"/>
	<path fill="#FFFFFF" d="M71.867,323.643c2.289-4.904,8.005-7.293,13.153-5.351c5.148,1.941,7.864,7.51,6.344,12.704L71.867,323.643
		z"/>
	<path fill="none" stroke="#FFFFFF" stroke-width="7" stroke-miterlimit="10" d="M38.655,347.772
		c2.603,3.738,6.124,6.919,10.446,9.168c7.163,3.728,15.163,4.188,22.293,1.913"/>
</g>
<g>
	<circle fill="#9C96AD" cx="697.098" cy="335.227" r="47.5"/>
	<circle fill="#FFFFFF" cx="677.943" cy="329.475" r="8.164"/>
	<circle fill="#FFFFFF" cx="715.625" cy="329.475" r="8.164"/>
	<path fill="none" stroke="#FFFFFF" stroke-width="7" stroke-miterlimit="10" d="M664.949,317.971c0,0,8.46-8.609,17.929-8.535"/>
	<path fill="none" stroke="#FFFFFF" stroke-width="7" stroke-miterlimit="10" d="M730.528,317.971c0,0-8.46-8.609-17.929-8.535"/>
	<path fill="none" stroke="#FFFFFF" stroke-width="7" stroke-miterlimit="10" d="M673.932,349.907
		c2.603,3.738,6.124,6.919,10.446,9.168c7.163,3.728,15.163,4.188,22.293,1.913"/>
</g>
<g>
	<circle fill="#9C96AD" cx="190.279" cy="335.227" r="47.5"/>
	<path fill="#FFFFFF" d="M180.9,326.797c0-5.226-4.237-9.463-9.463-9.463c-5.226,0-9.463,4.237-9.463,9.463
		c0,3.181,1.571,5.993,3.978,7.709c4.487-2.682,9.452-4.645,14.739-5.729C180.827,328.138,180.9,327.476,180.9,326.797z"/>
	<path fill="#FFFFFF" d="M218.583,326.797c0-5.226-4.237-9.463-9.463-9.463c-5.226,0-9.463,4.237-9.463,9.463
		c0,0.679,0.073,1.341,0.209,1.98c5.287,1.084,10.252,3.047,14.739,5.729C217.012,332.79,218.583,329.978,218.583,326.797z"/>
	<path fill="none" stroke="#FFFFFF" stroke-width="7" stroke-miterlimit="10" d="M167.853,350.813
		c3.752,8.661,12.38,14.725,22.425,14.725s18.673-6.064,22.425-14.725"/>
</g>
<g>
	<circle fill="#A3B1D6" cx="443.753" cy="335.227" r="47.5"/>
	<ellipse fill="#FFFFFF" cx="424.575" cy="327.711" rx="8.539" ry="11.214"/>
	<ellipse fill="#FFFFFF" cx="461.291" cy="327.711" rx="8.539" ry="11.214"/>
	<circle fill="#A3B1D6" cx="424.575" cy="321.261" r="5.414"/>
	<circle fill="#A3B1D6" cx="461.291" cy="321.261" r="5.414"/>
	<path fill="#FFFFFF" d="M423.899,359.056c3.006,8.045,10.76,13.774,19.854,13.774c9.093,0,16.848-5.729,19.854-13.774H423.899z"/>
	<path fill="none" stroke="#FFFFFF" stroke-width="7" stroke-miterlimit="10" d="M412.081,314.281c0,0,8.46-8.609,17.929-8.535"/>
	<path fill="none" stroke="#FFFFFF" stroke-width="7" stroke-miterlimit="10" d="M477.66,314.281c0,0-8.46-8.609-17.929-8.535"/>
</g>
<g>
	<circle fill="#9C96AD" cx="316.926" cy="335.227" r="47.5"/>
	<path fill="#FFFFFF" d="M307.547,326.797c0-5.226-4.237-9.463-9.463-9.463s-9.463,4.237-9.463,9.463
		c0,3.181,1.571,5.993,3.978,7.709c4.487-2.682,9.452-4.645,14.739-5.729C307.474,328.138,307.547,327.476,307.547,326.797z"/>
	<path fill="#FFFFFF" d="M345.23,326.797c0-5.226-4.237-9.463-9.463-9.463c-5.226,0-9.463,4.237-9.463,9.463
		c0,0.679,0.073,1.341,0.209,1.98c5.287,1.084,10.252,3.047,14.739,5.729C343.659,332.79,345.23,329.978,345.23,326.797z"/>
	
		<line fill="none" stroke="#FFFFFF" stroke-width="7" stroke-miterlimit="10" x1="300.926" y1="354.805" x2="332.926" y2="354.805"/>
</g>
<g>
	<circle fill="#6C5F82" cx="823.265" cy="335.227" r="47.5"/>
	<ellipse fill="#FFFFFF" cx="804.088" cy="323.711" rx="8.539" ry="11.214"/>
	<ellipse fill="#FFFFFF" cx="840.803" cy="323.711" rx="8.539" ry="11.214"/>
	<circle fill="#6C5F82" cx="804.088" cy="317.261" r="5.414"/>
	<circle fill="#6C5F82" cx="840.803" cy="317.261" r="5.414"/>
	
		<line fill="none" stroke="#FFFFFF" stroke-width="7" stroke-miterlimit="10" x1="807.265" y1="358.334" x2="839.265" y2="358.334"/>
</g>
<g>
	<circle fill="#9C96AD" cx="1075.815" cy="335.227" r="47.5"/>
	<circle fill="#FFFFFF" cx="1057.004" cy="329.475" r="8.164"/>
	<circle fill="#FFFFFF" cx="1094.687" cy="329.475" r="8.164"/>
	
		<line fill="none" stroke="#FFFFFF" stroke-width="7" stroke-miterlimit="10" x1="1062.053" y1="357.266" x2="1094.053" y2="357.266"/>
</g>
<circle fill="#E0BE99" cx="2036.5" cy="375.375" r="38"/>
<circle fill="#FFFFFF" cx="2019.67" cy="370.229" r="7.305"/>
<circle fill="#FFFFFF" cx="2053.386" cy="370.229" r="7.305"/>
<line fill="none" stroke="#FFFFFF" stroke-width="7" stroke-miterlimit="10" x1="2023.187" y1="395.094" x2="2051.819" y2="395.094"/>
<g>
	<circle fill="#6C5F82" cx="569.886" cy="335.227" r="47.5"/>
	<path fill="none" stroke="#FFFFFF" stroke-width="7" stroke-miterlimit="10" d="M547.461,348.777
		c3.752,8.661,12.38,14.725,22.425,14.725c10.046,0,18.673-6.064,22.425-14.725"/>
	<path fill="#FFFFFF" d="M552.652,320.187c-3.26,0-6.128,1.648-7.831,4.153l-5.025-3.379l-2.789,4.149l6.185,4.176h18.91
		C561.912,324.227,557.752,320.187,552.652,320.187z"/>
	<path fill="#FFFFFF" d="M587.121,320.187c3.26,0,6.128,1.648,7.831,4.153l5.025-3.379l2.789,4.149l-6.185,4.176h-18.91
		C577.861,324.227,582.021,320.187,587.121,320.187z"/>
</g>
<g>
	<circle fill="#E0BE99" cx="948.785" cy="335.227" r="47.5"/>
	<path fill="none" stroke="#FFFFFF" stroke-width="7" stroke-miterlimit="10" d="M929.769,349.1
		c2.603,3.738,6.124,6.919,10.446,9.168c7.163,3.728,15.163,4.188,22.293,1.913"/>
	<path fill="#FFFFFF" d="M931.55,320.646c-3.26,0-6.128,1.648-7.831,4.153l-5.025-3.379l-2.789,4.149l6.185,4.176H941
		C940.81,324.686,936.65,320.646,931.55,320.646z"/>
	<path fill="#FFFFFF" d="M966.019,320.646c3.26,0,6.128,1.648,7.831,4.153l5.025-3.379l2.789,4.149l-6.185,4.176h-18.91
		C956.759,324.686,960.919,320.646,966.019,320.646z"/>
</g>
<g>
	<circle fill="#E0BE99" cx="1203.027" cy="335.227" r="47.5"/>
	<path fill="none" stroke="#FFFFFF" stroke-width="7" stroke-miterlimit="10" d="M1170.238,315.559c0,0,8.46-8.609,17.929-8.535"/>
	<path fill="none" stroke="#FFFFFF" stroke-width="7" stroke-miterlimit="10" d="M1235.816,315.559c0,0-8.46-8.609-17.929-8.535"/>
	<path fill="#FFFFFF" d="M1182.255,347.97c0.199,11.305,9.419,20.41,20.772,20.41c11.353,0,20.573-9.105,20.772-20.41H1182.255z"/>
	<path fill="#FFFFFF" d="M1185.623,322.05c-3.26,0-6.128,1.648-7.831,4.153l-5.025-3.379l-2.789,4.149l6.185,4.176h18.91
		C1194.883,326.09,1190.723,322.05,1185.623,322.05z"/>
	<path fill="#FFFFFF" d="M1220.092,322.05c3.26,0,6.128,1.648,7.831,4.153l5.025-3.379l2.789,4.149l-6.185,4.176h-18.91
		C1210.832,326.09,1214.992,322.05,1220.092,322.05z"/>
</g>
<g>
	
		<text transform="matrix(1 0 0 1 1147.9238 551.7871)" fill="#6C5F82" font-family="'RobotoCondensed-Regular'" font-size="22.9263px">2015</text>
</g>
<g>
	
		<text transform="matrix(1 0 0 1 1021.0488 551.7871)" fill="#6C5F82" font-family="'RobotoCondensed-Regular'" font-size="22.9263px">2014</text>
</g>
<g>
	
		<text transform="matrix(1 0 0 1 894.7988 551.7871)" fill="#6C5F82" font-family="'RobotoCondensed-Regular'" font-size="22.9263px">2013</text>
</g>
<g>
	
		<text transform="matrix(1 0 0 1 768.2987 551.7871)" fill="#6C5F82" font-family="'RobotoCondensed-Regular'" font-size="22.9263px">2012</text>
</g>
<g>
	
		<text transform="matrix(1 0 0 1 642.0638 551.7871)" fill="#6C5F82" font-family="'RobotoCondensed-Regular'" font-size="22.9263px">2011</text>
</g>
<g>
	
		<text transform="matrix(1 0 0 1 515.1889 551.7871)" fill="#6C5F82" font-family="'RobotoCondensed-Regular'" font-size="22.9263px">2010</text>
</g>
<g>
	
		<text transform="matrix(1 0 0 1 388.9389 551.7871)" fill="#6C5F82" font-family="'RobotoCondensed-Regular'" font-size="22.9263px">2009</text>
</g>
<g>
	
		<text transform="matrix(1 0 0 1 262.439 551.7871)" fill="#6C5F82" font-family="'RobotoCondensed-Regular'" font-size="22.9263px">2008</text>
</g>
<g>
	
		<text transform="matrix(1 0 0 1 135.8982 551.7871)" fill="#6C5F82" font-family="'RobotoCondensed-Regular'" font-size="22.9263px">2007</text>
</g>
<g>
	<text transform="matrix(1 0 0 1 9.3981 551.7871)" fill="#6C5F82" font-family="'RobotoCondensed-Regular'" font-size="22.9263px">2006</text>
</g>
<g>
	
		<text transform="matrix(1 0 0 1 1147.9238 411.1846)" fill="#6C5F82" font-family="'RobotoCondensed-Regular'" font-size="22.9263px">2005</text>
</g>
<g>
	
		<text transform="matrix(1 0 0 1 1021.0488 411.1846)" fill="#6C5F82" font-family="'RobotoCondensed-Regular'" font-size="22.9263px">2004</text>
</g>
<g>
	
		<text transform="matrix(1 0 0 1 894.7988 411.1846)" fill="#6C5F82" font-family="'RobotoCondensed-Regular'" font-size="22.9263px">2003</text>
</g>
<g>
	
		<text transform="matrix(1 0 0 1 768.2987 411.1846)" fill="#6C5F82" font-family="'RobotoCondensed-Regular'" font-size="22.9263px">2002</text>
</g>
<g>
	
		<text transform="matrix(1 0 0 1 642.0638 411.1846)" fill="#6C5F82" font-family="'RobotoCondensed-Regular'" font-size="22.9263px">2001</text>
</g>
<g>
	
		<text transform="matrix(1 0 0 1 515.1889 411.1846)" fill="#6C5F82" font-family="'RobotoCondensed-Regular'" font-size="22.9263px">2000</text>
</g>
<g>
	
		<text transform="matrix(1 0 0 1 388.9389 411.1846)" fill="#6C5F82" font-family="'RobotoCondensed-Regular'" font-size="22.9263px">1999</text>
</g>
<g>
	
		<text transform="matrix(1 0 0 1 262.439 411.1846)" fill="#6C5F82" font-family="'RobotoCondensed-Regular'" font-size="22.9263px">1998</text>
</g>
<g>
	
		<text transform="matrix(1 0 0 1 135.8982 411.1846)" fill="#6C5F82" font-family="'RobotoCondensed-Regular'" font-size="22.9263px">1997</text>
</g>
<g>
	<text transform="matrix(1 0 0 1 9.3981 411.1846)" fill="#6C5F82" font-family="'RobotoCondensed-Regular'" font-size="22.9263px">1996</text>
</g>
<g>
	
		<text transform="matrix(1 0 0 1 1147.9238 271.1006)" fill="#6C5F82" font-family="'RobotoCondensed-Regular'" font-size="22.9263px">1995</text>
</g>
<g>
	
		<text transform="matrix(1 0 0 1 1021.0488 271.1006)" fill="#6C5F82" font-family="'RobotoCondensed-Regular'" font-size="22.9263px">1994</text>
</g>
<g>
	
		<text transform="matrix(1 0 0 1 894.7988 271.1006)" fill="#6C5F82" font-family="'RobotoCondensed-Regular'" font-size="22.9263px">1993</text>
</g>
<g>
	
		<text transform="matrix(1 0 0 1 768.2987 271.1006)" fill="#6C5F82" font-family="'RobotoCondensed-Regular'" font-size="22.9263px">1992</text>
</g>
<g>
	
		<text transform="matrix(1 0 0 1 642.0638 271.1006)" fill="#6C5F82" font-family="'RobotoCondensed-Regular'" font-size="22.9263px">1991</text>
</g>
<g>
	
		<text transform="matrix(1 0 0 1 515.1889 271.1006)" fill="#6C5F82" font-family="'RobotoCondensed-Regular'" font-size="22.9263px">1990</text>
</g>
<g>
	
		<text transform="matrix(1 0 0 1 388.9389 271.1006)" fill="#6C5F82" font-family="'RobotoCondensed-Regular'" font-size="22.9263px">1989</text>
</g>
<g>
	
		<text transform="matrix(1 0 0 1 262.439 271.1006)" fill="#6C5F82" font-family="'RobotoCondensed-Regular'" font-size="22.9263px">1988</text>
</g>
<g>
	
		<text transform="matrix(1 0 0 1 135.8982 271.1006)" fill="#6C5F82" font-family="'RobotoCondensed-Regular'" font-size="22.9263px">1987</text>
</g>
<g>
	<text transform="matrix(1 0 0 1 9.3981 271.1006)" fill="#6C5F82" font-family="'RobotoCondensed-Regular'" font-size="22.9263px">1986</text>
</g>
<g>
	
		<text transform="matrix(1 0 0 1 1147.9238 130.498)" fill="#6C5F82" font-family="'RobotoCondensed-Regular'" font-size="22.9263px">1985</text>
</g>
<g>
	
		<text transform="matrix(1 0 0 1 1021.0488 130.498)" fill="#6C5F82" font-family="'RobotoCondensed-Regular'" font-size="22.9263px">1984</text>
</g>
<g>
	
		<text transform="matrix(1 0 0 1 894.7988 130.498)" fill="#6C5F82" font-family="'RobotoCondensed-Regular'" font-size="22.9263px">1983</text>
</g>
<g>
	
		<text transform="matrix(1 0 0 1 768.2987 130.498)" fill="#6C5F82" font-family="'RobotoCondensed-Regular'" font-size="22.9263px">1982</text>
</g>
<g>
	
		<text transform="matrix(1 0 0 1 642.0638 130.498)" fill="#6C5F82" font-family="'RobotoCondensed-Regular'" font-size="22.9263px">1981</text>
</g>
<g>
	
		<text transform="matrix(1 0 0 1 515.1889 130.498)" fill="#6C5F82" font-family="'RobotoCondensed-Regular'" font-size="22.9263px">1980</text>
</g>
<g>
	
		<text transform="matrix(1 0 0 1 388.9389 130.498)" fill="#6C5F82" font-family="'RobotoCondensed-Regular'" font-size="22.9263px">1979</text>
</g>
<g>
	<text transform="matrix(1 0 0 1 262.439 130.498)" fill="#6C5F82" font-family="'RobotoCondensed-Regular'" font-size="22.9263px">1978</text>
</g>
<g>
	
		<text transform="matrix(1 0 0 1 135.8982 130.498)" fill="#6C5F82" font-family="'RobotoCondensed-Regular'" font-size="22.9263px">1977</text>
</g>
<g>
	<line fill="none" stroke="#EBE0D4" stroke-width="3" stroke-miterlimit="10" x1="5" y1="417.5" x2="1263" y2="417.5"/>
	<line fill="none" stroke="#EBE0D4" stroke-width="3" stroke-miterlimit="10" x1="5" y1="280.5" x2="1263" y2="280.5"/>
	<line fill="none" stroke="#EBE0D4" stroke-width="3" stroke-miterlimit="10" x1="5" y1="142.501" x2="1263" y2="142.501"/>
	<rect x="4.5" y="4.5" fill="none" stroke="#EBE0D4" stroke-width="3" stroke-miterlimit="10" width="1258" height="551"/>
	<line fill="none" stroke="#EBE0D4" stroke-width="3" stroke-miterlimit="10" x1="129.5" y1="554" x2="129.5" y2="4"/>
	<line fill="none" stroke="#EBE0D4" stroke-width="3" stroke-miterlimit="10" x1="254.5" y1="555" x2="254.5" y2="4"/>
	<line fill="none" stroke="#EBE0D4" stroke-width="3" stroke-miterlimit="10" x1="381.5" y1="554" x2="381.5" y2="4"/>
	<line fill="none" stroke="#EBE0D4" stroke-width="3" stroke-miterlimit="10" x1="506.5" y1="554" x2="506.5" y2="4"/>
	<line fill="none" stroke="#EBE0D4" stroke-width="3" stroke-miterlimit="10" x1="633.5" y1="554" x2="633.5" y2="4"/>
	<line fill="none" stroke="#EBE0D4" stroke-width="3" stroke-miterlimit="10" x1="758.5" y1="554" x2="758.5" y2="4"/>
	<line fill="none" stroke="#EBE0D4" stroke-width="3" stroke-miterlimit="10" x1="884.5" y1="554" x2="884.5" y2="4"/>
	<line fill="none" stroke="#EBE0D4" stroke-width="3" stroke-miterlimit="10" x1="1010.5" y1="554" x2="1010.5" y2="4"/>
	<line fill="none" stroke="#EBE0D4" stroke-width="3" stroke-miterlimit="10" x1="1136.5" y1="554" x2="1136.5" y2="4"/>
</g>
<g>
	<text transform="matrix(1 0 0 1 9.3981 130.498)" fill="#6C5F82" font-family="'RobotoCondensed-Regular'" font-size="22.9263px">1976</text>
</g>
<line fill="none" stroke="#FFFFFF" stroke-width="4" stroke-miterlimit="10" x1="1640" y1="209" x2="1640" y2="77"/>
<line fill="none" stroke="#FFFFFF" stroke-width="4" stroke-miterlimit="10" x1="1848" y1="183" x2="1848" y2="41"/>
<polyline fill="none" stroke="#FFFFFF" stroke-width="4" stroke-miterlimit="10" points="2147.382,300 2147.382,438 2049,438 "/>
<circle fill="#6C5F82" cx="2055.268" cy="68.651" r="42.5"/>
<circle fill="#FFFFFF" cx="2038.438" cy="63.504" r="7.305"/>
<circle fill="#FFFFFF" cx="2072.154" cy="63.504" r="7.305"/>
<path fill="#FFFFFF" d="M2036.517,80.053c0.178,10.115,8.428,18.262,18.585,18.262c10.158,0,18.407-8.146,18.585-18.262H2036.517z"
	/>
<path fill="#FFFFFF" d="M2327.517,281c0.178,10.115,8.428,18.262,18.585,18.262c10.158,0,18.407-8.146,18.585-18.262H2327.517z"/>
<circle fill="#FFFFFF" cx="2329.438" cy="264.504" r="7.305"/>
<circle fill="#FFFFFF" cx="2363.154" cy="264.504" r="7.305"/>
<circle fill="#9C96AD" cx="2088.5" cy="235.375" r="50"/>
<circle fill="#FFFFFF" cx="2071.67" cy="230.229" r="7.305"/>
<circle fill="#FFFFFF" cx="2105.386" cy="230.229" r="7.305"/>
<line fill="none" stroke="#FFFFFF" stroke-width="7" stroke-miterlimit="10" x1="2075.187" y1="255.094" x2="2103.819" y2="255.094"/>
<circle fill="#FFFFFF" cx="2482.67" cy="79.229" r="7.305"/>
<circle fill="#FFFFFF" cx="2516.386" cy="79.229" r="7.305"/>
<line fill="none" stroke="#FFFFFF" stroke-width="7" stroke-miterlimit="10" x1="2486.187" y1="104.094" x2="2514.819" y2="104.094"/>
<circle fill="#FFFFFF" cx="2275.67" cy="123.229" r="7.305"/>
<circle fill="#FFFFFF" cx="2309.386" cy="123.229" r="7.305"/>
<path fill="none" stroke="#FFFFFF" stroke-width="7" stroke-miterlimit="10" d="M2313.445,156.038
	c-3.357-7.75-11.077-13.175-20.065-13.175s-16.708,5.425-20.065,13.175"/>
<circle fill="#FFFFFF" cx="1913.906" cy="187.772" r="7.305"/>
<circle fill="#FFFFFF" cx="1947.622" cy="187.772" r="7.305"/>
<path fill="none" stroke="#FFFFFF" stroke-width="7" stroke-miterlimit="10" d="M1910.315,206.863
	c3.357,7.75,11.077,13.175,20.065,13.175c8.988,0,16.708-5.425,20.065-13.175"/>
<circle fill="#9C96AD" cx="1803.268" cy="246.651" r="42.5"/>
<circle fill="#FFFFFF" cx="1786.438" cy="241.504" r="7.305"/>
<circle fill="#FFFFFF" cx="1820.154" cy="241.504" r="7.305"/>
<path fill="#FFFFFF" d="M1821.687,276.314c-0.178-10.115-8.428-18.262-18.585-18.262c-10.158,0-18.407,8.147-18.585,18.262H1821.687
	z"/>
<circle fill="#6C5F82" cx="1897.268" cy="431.651" r="42.5"/>
<circle fill="#FFFFFF" cx="1880.438" cy="426.504" r="7.305"/>
<circle fill="#FFFFFF" cx="1914.154" cy="426.504" r="7.305"/>
<path fill="#FFFFFF" d="M1915.687,461.314c-0.178-10.115-8.428-18.262-18.585-18.262c-10.158,0-18.407,8.147-18.585,18.262H1915.687
	z"/>
<circle fill="#6C5F82" cx="1704.268" cy="345.651" r="50"/>
<circle fill="#FFFFFF" cx="1687.438" cy="340.504" r="7.305"/>
<circle fill="#FFFFFF" cx="1721.154" cy="340.504" r="7.305"/>
<circle fill="#FFFFFF" cx="1563.438" cy="388.504" r="7.305"/>
<circle fill="#FFFFFF" cx="1597.154" cy="388.504" r="7.305"/>
<path fill="#FFFFFF" d="M1561.517,405.053c0.178,10.115,8.428,18.262,18.585,18.262c10.158,0,18.407-8.146,18.585-18.262H1561.517z"
	/>
<circle fill="#FFFFFF" cx="1425.438" cy="301.504" r="7.305"/>
<circle fill="#FFFFFF" cx="1459.154" cy="301.504" r="7.305"/>
<circle fill="#9C96AD" cx="1525.268" cy="182.651" r="38"/>
<circle fill="#FFFFFF" cx="1508.438" cy="177.504" r="7.305"/>
<circle fill="#FFFFFF" cx="1542.154" cy="177.504" r="7.305"/>
<path fill="#FFFFFF" d="M1506.517,194.053c0.178,10.115,8.428,18.262,18.585,18.262c10.158,0,18.407-8.146,18.585-18.262H1506.517z"
	/>
<circle fill="#FFFFFF" cx="1736.67" cy="111.229" r="7.305"/>
<circle fill="#FFFFFF" cx="1770.386" cy="111.229" r="7.305"/>
<path fill="none" stroke="#FFFFFF" stroke-width="7" stroke-miterlimit="10" d="M1774.444,144.038
	c-3.357-7.75-11.077-13.175-20.065-13.175c-8.988,0-16.708,5.425-20.065,13.175"/>
<path fill="none" stroke="#FFFFFF" stroke-width="7" stroke-miterlimit="10" d="M1421.315,321.863
	c3.357,7.75,11.077,13.175,20.065,13.175c8.988,0,16.708-5.425,20.065-13.175"/>
<line fill="none" stroke="#FFFFFF" stroke-width="7" stroke-miterlimit="10" x1="1689.187" y1="367.094" x2="1717.819" y2="367.094"/>
</svg>
