<svg enable-background="new 0 0 256 256" height="256" viewBox="0 0 256 256" width="256" xmlns="http://www.w3.org/2000/svg"><path d="m61.1 2c-32.7 0-59.1 26.4-59.1 59.1s26.4 59.1 59.1 59.1 59.1-26.4 59.1-59.1-26.5-59.1-59.1-59.1zm-23.9 39c5.6 0 10.1 4.5 10.1 10.1s-4.5 10.1-10.1 10.1-10.1-4.5-10.1-10.1 4.5-10.1 10.1-10.1zm24.7 60.5c-14 0-26.5-8.3-32.1-21.1l8.5-3.7c4.1 9.4 13.4 15.5 23.6 15.5s19.5-6.1 23.6-15.5l8.5 3.7c-5.5 12.8-18.1 21.1-32.1 21.1zm23-40.2c-5.6 0-10.1-4.5-10.1-10.1s4.5-10.2 10.1-10.2 10.1 4.5 10.1 10.1-4.5 10.2-10.1 10.2zm-23.8 74.6c-32.7 0-59.1 26.4-59.1 59s26.4 59.1 59.1 59.1 59.1-26.4 59.1-59.1-26.5-59-59.1-59zm-23.9 39c5.6 0 10.1 4.5 10.1 10.1s-4.5 10.1-10.1 10.1-10.2-4.5-10.2-10.1 4.6-10.1 10.2-10.1zm48.3 55.5c-4.1-9.4-13.4-15.5-23.6-15.5s-19.5 6.1-23.6 15.5l-8.5-3.7c5.5-12.8 18.1-21.1 32.1-21.1s26.6 8.4 32.1 21.2zm-.6-35.2c-5.6 0-10.1-4.5-10.1-10.1s4.5-10.1 10.1-10.1 10.1 4.5 10.1 10.1c.1 5.5-4.5 10.1-10.1 10.1zm110-59.3c-32.6 0-59.1 26.4-59.1 59.1s26.4 59.1 59.1 59.1 59.1-26.4 59.1-59.1-26.4-59.1-59.1-59.1zm-23.8 39c5.6 0 10.1 4.5 10.1 10.1s-4.5 10.1-10.1 10.1-10.1-4.5-10.1-10.1c-.1-5.6 4.5-10.1 10.1-10.1zm24.2 57.4c-14.8 0-27.5-8.9-33-21.7h66c-5.5 12.8-18.2 21.7-33 21.7zm23.5-37.1c-5.6 0-10.1-4.5-10.1-10.1s4.5-10.1 10.1-10.1 10.2 4.4 10.2 10-4.6 10.2-10.2 10.2zm-23.9-193.1c-32.6 0-59.1 26.4-59.1 59.1s26.4 59.1 59.1 59.1 59.1-26.5 59.1-59.1-26.4-59.1-59.1-59.1zm-34 49c0-5.6 4.5-10.1 10.1-10.1s10.1 4.5 10.1 10.1-4.5 10.1-10.1 10.1c-5.5.1-10.1-4.4-10.1-10.1zm57.9 41.2h-47.7v-9.4h47.7zm0-31c-5.6 0-10.1-4.5-10.1-10.1s4.5-10.2 10.1-10.2 10.2 4.5 10.2 10.1-4.6 10.2-10.2 10.2z"/></svg>