<svg height="420" viewBox="0 0 650 420" width="650" xmlns="http://www.w3.org/2000/svg"><g stroke="#3f3f3f" stroke-width=".89"><path d="m68.9 68.9-2.3-2.8-1.4-.6-1.2-1-1.5-.4-1.5-1.8h-.9l-.7-5.1.6 1 .5 2.9 1.8.8-1.3-1.7h.4l-.9-1.9.3-.6h.9l-.6-.7-1.6-.5-.5-.7-.2-.9-.4-1.7h.3v.5l.8 1.1-.2-1 2.5.2-2-1.2-.4-1-.8-.6-.5 1.3-.3-3.4-.4-1.7-.9-1.5v-4l-.9-2.8-1.2-1.5-.9-4.3.4-1v-2l1.5 1 5.6 5.5 6.1 3.7 2.8.9 2 1.8v.4l.9-.5.7.2-.4.6 1.3 3.1v.8l-1 .3h-.4l-.1-1.1-.5.2-.5 1.9-.9.5-1.6 1.4-.5 1.3 1.5.7 1.9-.3h-2.2l-.8-.6 1-1.6 1.2-.8 1.8.3.4-1.2 1.2-.7v-1.2l.8.8.5 2.4h-1.5l.3 1.9h.3v1l.4.4-.6 1.2v.4l-.5.3.3.9-.3.3-.3-.7v.3l-.9-.8.8-1.1h.1l-1.1.3-.3.9.5.8-.5.6-.6-1.3.6-1.2-.3-.3-.8.5h-2.5l.3 1.8h.5l1.1 1.3 1.4-.4.6.9h.3l1.1-.6.7-1.2v-.4l1.2 1.4h.3l-.5-.6h1.2v-.7l-.7-2 .2-1.2-.3-1.1.3-1.4 1.1-2h.8l.2-.5-1.5-2.4-.3-1.4-.6-.3v1.4l.9 1.4-1.5-1.8-.2-1.2.4-.4 1.1.6.3-.5-1.8-2.7-1-.5-.3-1.3h.9l.8 1.3.5.2-.2-1.5.8-.2-.6-.8-.3-1.2v-.4l-1.8-1.5-.5-1.8-.6-.9.8.3-.2-.7 19.3 9.6 21.1 12 7 5.5 8.4 8.4 4.2 5.4.9 3 2.2 9.1v6.8l-.2 4.2v.9l-.2.2.3.3.2.3.3.5v.4l.4.4-.3.3h-.2l.3.2.4.6-5.1-1.9-1.2-.4-3.8-1.4h-.1l-10.1-4h-1.6l-1.4-.7-.7-.2-.6-.2-.7-.2-1-.6h-.2l-.2.3-1.6-.6h-.3l-1.3-.4h-.6l-.9-.2-.3.2-.9-.4-1.7-.5-.7-.3-1.2-.8-.7-.3h-.6l-1.6-.4h-.2l-.6-.4h-.3l-.9-.4h-.4l-.3.2-.5-.3-.3-.2-.5-.5h-.2l-.9-.5-.7-.5-.6-.2h-.8l-1.2-.7-1.8-.9-.6-.3-.7-.4h-.8l-.2.2-.5-.2h-.9l-1.5-.5-.6-.3-.8-.5-1-.4-1.8-1-1.1-.6-.7-.5-.8-.4-.7-1-.2-.3-.5-.6-.3-.6v-.2l-.4-.5-.3-.5-1.1-1.3-.5-.7-.9-.7-.9-.9-.7-.6-.6-.4h-.3l-.2.2z" fill="#9e9e9e"/><path d="m71.8 38.2-1.3-1.2-.6-.9v-.6l.4-.7.4.4.9 1.2v.3l.2.3h-.5v.3z" fill="#9e9e9e"/><path d="m77.2 48.5-.6-.5-.2-1h-.7l-.6-1.2-.8-2.5-.7-.9.4-.6.8-1.3.6.2.7 1.6v.5l-.9-.7-1.2.4 1.2.9.6 2.1h.5l1.1 1.4.2 1.1z" fill="#9e9e9e"/><path d="m142.2 83.9 3.9 5.4 2.7 2.5 2.5 2.1 6.4 3.7 3 1.3 1.8.8 4.2 1.5 4.2 1.3 3.6.9 3.8.4 3.8.5 3.8.2-3.8 2.9-1.8 1.4-1.5 1.5-.6 1.4-.2 1.4v1.5 2.3l-2.3-.3h-.1l-1.8-.3h-.4l-3-.8-.7-.2-.7-.2-2.2-1-.4-.2-.8-.4h-.1l-1.6-.9v1.6h-1.5v.2l-.3-.2h-.8l-.2-.2h-3.8v-.2h.1v-.2h-.1l-.4-.3h-.5l-.3-.2h-.1v-.3h-.2v-.2l-.2-.2h-2.8v-6.4h1l-.3-.2h.8v-.2h.4l-.2-.2h-.4l-.2-.2-.3-.2v-.2h.1v-.2h-.5l-.2-.2h-.3l-.2-.3h.2l-.2-.2v-.2l-.2-.2h-.1v-.2l-.2-.3h-1l-.5-.5v-.2h-.1l-.3-.3h-.1l-.4-.3h-.1v-2.5l-.2-.3-.2-.2-.2-.2-.5-.5h.1l.5.4h.1l-.3-.3-.2-.3.4.2-.2-.3-.2-.3v-.3l-.2-.3v-.3l-.3-.3-.3-.3-.5-.7-.2-.4-.2-.3-.2-1.1-.7-2z" fill="#e6e6e6"/><path d="m590.4 40-.7-1-.7-1.5-1.3-.7-.3-.4-1.2-.9-.4-.4-.3-.7-.4-.4-.3-.6-.2-.2v-.1l-.2-.2h-.2l-2.1-2-4.4-2.8-3.2-1.2-5.3-1.3 1.4-.9 1.8-.2v-.4l-.2-.4h-.5v-.2l1.9-1-1.7.2.8-1.6 1.1-1.3h-.6l.7-1.3-.2-.3h-.7l-.2-.6h.2l.2-.7h-.9v-.9l.9-1-.7-.9-.6-.8 1.9-6.9 1.7.4 1 1.6 1.8.7 2.9-1.2h1l.2-.8h.9l4.7 2.4 5.5 9.2.5.3-.2.2.7.5h-.3l.7 1 .8.4h.3l1.6.9 2.3.7.7.7h-1.1l2 1.2v.6l1.5 1 2 1 .6-.2 1.6.4.4.3 2.4 1.5-.7.2 3.3 1.3v.3l-1.3.5-1.5-.5-1.5-.7-1.1.3.3.6-2.7-1.1h-.3l.5.9-1.2-.7-.3-.3 1.1 1.2-.6-.2-1.8-1.3-1.5-.7-.6.2-1.1-.7-.5.3 1.7 1.5v.3l-3-1.8h-.5l-.9-.9-.2-.7-.5-.5-1.3-.8-.5-.5v.6l.8.5.7.8h-.8l1.3 1.5h-.1l1.5 2v1l-.8-.4-1.6-1.4-.6-.3.8 1.5-.5.2-.9-.5-1.1-1.3-.2-.5v.9l.2.5 1.4 1.4v.3l-.6-.5-2.6-2.8v-.2l-.4-.3v.6l3.2 3.1v.4l-.4-.3-1-1.3-.8-.7.9 1.2h-.5l-.5-.4-.6-.8h-.4l-.7.3.3 1.1 1.4 1.7h-.9l1 1.8v1.1h-.7l2.1 5.2z" fill="#9e9e9e"/><path d="m603.4 32.2-1.5-.9-1.4-1.4h.1l-.5-.4 1.2.4 2.2 1.6h-.9z" fill="#9e9e9e"/><path d="m186 104.3 4.6-.2 3.8-.3 2.3-.3 5.6-.8 2.9-.8 2.5-.8 5.6-2 7-3.1-2.3 1.6-1 .7-1.1.6-.6.4h.1l-.3.2-.2.2-.3.2-.3.2-.5.3h-.1l-.4.3-.2.2-1.3.8h-.4l-.4.2-.5.4-.3.2h-.2l-.4.2h-.2l-.3.2h.1l-1.4.9h.2l-.4.3h-.2l-.5.3-.5.3h.2l-.3.2h-.2l-.4.2h.1l-.2.2h-.6l-.3.2h.1l-.2.2h.1l-.2.2h.1l-.5.5h.1l-.3.2h.3v.2h.3v.2h.2l-.2.2h-.1l-.2.2h-.2l-.2.2h.1v.2h-.2v.2h-.1v.2h.5l-.3.3h.1l-.3.2h.1v.2h-.2v.2h.3v.3h1.2v.4h.4l.3.3-.2.3.3.2-4.8.3-3.2.2h-16.4l-3.6.2v-1.5l.2-1.4.6-1.4 1.5-1.5 1.8-1.4z" fill="#d9d9d9"/><path d="m205.4 113.9v.5h-.1l-.3.3-1.2.4-.2.2h.1l.5.3.2.3.3.2h1.4l.5.2v.2l-.3 1.4v2.1l.3 1.6.9 1.8 1.5 2-1.1-.2h.2l.2.3.4.3.4.2.2.2.2.3h-.2l.3.2h.4l.6.2h.2l.8.6.2.3h-.2l.5.3v.2l.3.3v.2h.2l.3.4h-.1l.3.3.2.2.5.4.8.4h.4l.4.3.6.5h.1l.4.4.5.3h-.4l-.6-.3h-.3l-.3-.2-.3-.3-1-.6h-1.2l-.2-.2-.9-.4h-.4l-.2-.2h-.3l-.7-.2-.4-.2-.4-.2-.3-.2h-1.7l-.4-.2-.4-.2h-.6l.2.2.2.3h-.2l-.6-.4h-.4l-.9-.4-.7-.4-.4-.2-.6-.4-2.8-.5-1-.2-2.7-.5-4.6-.8-4.1-.7-3.5-.5-1.2-.2-2.5-.4-2.2-.5-.3-1.5v-1.9-2.4-2.3l3.6-.2h16.1l3.2-.2z" fill="#e7e7e7"/><path d="m177.7 117.1v2.4 1.9l.3 1.6.4 1.3.8 2.4 1.1 1.7.7.9 1.2 1.4 3.8 4.1-4.1-1.9-1.2-.3-3.2-1h-.4l-1.7-.5-1.4-.4-2-.3-3.5-.9h-2.8l-3.5 1.5.6-2.1.4-2.2.3-2.4.2-2.3v-7.7-1.6l1.6.9h.1l.8.4.4.2 2.2 1 .7.2.7.2 3 .8h.4l1.8.3h.1z" fill="#a6a6a6"/><path d="m261.8 98.2.9-.2 1.6-1.3 1.1.2 1.1-.3 4.9-2.2 9.6-5h1.2v.4l-2.4 3.7 2.8-1.5 2.7-.2 1.9-.4.3.2 1.1-.5h.2v.2h.6l.7-.2.7.5.2.5.4.2v.3l2.9-.4 12.4-1.6h4.1l.2-.2h.2l.8-.3h.8l.3.2h.5l.4-.3h.3l.5-.3h.8v.2l.5-.2h.7l.6-.3.6.2h.3l.7-.3h.5l.7-.3h1.2l-.3.4h.4l-1.3.8-.3.2.5.2h.6l1.1-.4v.3l1.5-.2.3.3h.6l-.8.3-.2.2.4.4v.2l-.5.5-.7.2.2.2v.5l-.6.5-.9.5-.2.5-.8.7h.1l.2-.2h.1v.2l.3-.2 1-.2 1.4-.8.5.2-.2.2-1.6 1.5-.2.3-.3.2-.2.3-.3.2v.3l.6.2v.4h1.2l-.8.6-.5.8-2.1.9-1.5.8-.2.6-2.9 2.4-.2.5-.6.6.3.4-.4-.2-.6.7.8.2.6-.2 1.1-1.2 1.6-.7.8-.7 2.3-2.2 1-.5-.2.4 2.2-1.3.4.8h.7l-1.6 1.7-2.1 2.2-1.8 2.8-.3 1.8-2 1.4-1.8 2.7-.4 2.5-1.5 1.7-.4 1.1-1.2 1.4-.3 1.9.6 1.3-.4.7 1 .6.8 1.4 1.3.6.4 1.4 1.9 2.2-5.8.8-1.7.2-7.1.8h-1l-3.1.4-7.9.8h-.8l-8.5 1-1.6.2-8.5 1.2-3.4.3.2-.2v-.3h-.3l-.2-.6h-2.7l-.9-.2-.7-.3v-1.2l-.4-.5v-.7l.2-.7h-.1l.4-.6 1.6-1.2v-.5l-1-.2h-.1l.2-.5v-.4l.4-.4v-.5l.5-.6.2-.8.3-.5.5-.7v-.5l-.4-.9-.4-.3-1-.3h-.9l-.5-.2-.9-.5-.9-.4-.2-.6-.3-.2v-.5l-.3-.2-1.2-.3h-1.8l-.4-.3v-.4h-2.2l-1.1-.2-.2-.3-1.1-.5-.7-.2.8-.9v-.6l.3-.2v-1l-.3-.3.8-.6v-.6l.2-.3.3-.8.5-.3.4-.5.5-.4.2-.4h-.4l-.4-.6h-.4l-.9.2h-.5v-.6l.5-.7.4-.3.7-.4.5-.8h.2l.4-.5.6-.3 1.5-.7.4-.4.8-.2.6-.5h1l.3-.4.5-.3v-.8l.4-2.4z" fill="#e7e7e7"/><path d="m324.6 100.5-.7-.2v-.8l1.7-1.6 1.2-.7 1.9-1.8h.6l3.3-2.4h.4l.9-.3-.3.7-.7.4-.5-.2-.7 1.3-.9.3v.5l-.7.2-.3.5h-.3l-1.5 1.3-.3.6-1 .9z" fill="#e7e7e7"/><path d="m134.2 72.4 8.1 11.5 3.2 7.6.7 2 .2 1.1.2.3.2.4.5.7.3.3.3.3v.4l.2.3v.2l.2.3.2.3-.4-.2.2.3.3.3h-.1l-.5-.4h-.1l.5.5.2.2.2.2.2.3v.2h.1l.4.3h.5l.3.3h.1v.2l.5.5h.2l.2.3v.2h.1l.2.2v.2l.2.2h-.2l.2.3h.3l.2.2h.5v.2h-.1v1.4l.3.2.2.2h.4l.2.2h.2v.2h-.8l.3.2h-1v.2h2.8l.2.2v.2h.5v.3h.1l.3.2h.5l.4.3h.1v.2h-.1v5.4h3.8l.2.2h.8l.3.2v-.2h1.5v7.7l-.2 2.3-2 .2h-3.4l-4.4-.4-5.4-.4h-1l-2.9-.4-3.4-.7-2.2-.6-2.3-.6h-.1l.6-9.6v1.3h.4v-.2h.1v-.2l.2-.2-.2-.4h.2l.3-.2v-.2l-.4-.2h-.8v-.2h-.5l-.3-.2v-.2l-.2-.3v-.4h.6l.4-.5h.1l.2-.2h.7l.3-.2h.3l.2-.2v-.2h.8l.4-.5v-.3l.8-.4h.1l.5-.2v-.2l-.3-.4v-.3l-.2-.3-.7-.4-.3-.3-.5-.2v-.2l-.5-.5-.4-.6-.2-.2-.4-.6-.3-.2h.2l.3-.3-.4-.4v-2.6l-.3-.5-.2-.3-.3-.3.2-.2v-.9l.2-4.2v-6.8l-2.2-9.1z" fill="#b3b3b3"/><path d="m538.3 30.7h3l10.1.4 9.1-.4 5-1.6-.2.3h1l-.5.5h.1l-.5.2h2.8l-.7.3h-.3l-1.3.2h-.4v.2h-.1l-1 .4-.6.2-.3.2v1.4h.4l.2.2h.4l.4.2v.2h.4l-.2.3h.1v.2h-.6l.4.5v.2h-.6l-.4.2.4.9h-.4l.2.6.4.4.3.7v1.4l.6.6v.3l.3.3v.8l.2.8.7 1 .2.6-.2.3.4.8-.2.2-.5-.2h-.2l.2.7v.9l.6 1.2.7 1 .2.5.7.7.5.5.3.6-6.4-1.7h-1l-2.3 3.8v.4l-.4.2.2-1.8-.2-3.1-2-5.6-1.4-2-.6-.3h-.5v-.2l-.3-.2h-.1l-.6.4v1.2l-.4-.3-.4-.4v-1.3l-.2-.4h-.8l-.5-.7h-.6l-.7-.5v-.4h-.7v-.7h-.4v-.4h-.3l.4-1.1h-1.7v-.7l-.2-.3-1.8-.8h-1.1l-.7-.2v-.2l-.4-.2v-.2l-.9-.2-.2-.6h-1.9l-.5-.7-1.1-.4z" fill="#a6a6a6"/><path d="m220.2 96.1 10-4 14-5.7 1.5-.6 7.8-7 2.8-.8-6.8 7.3-1.9 1.6.6.3 1.8-.7 1.8-.7v.5l4.7-1.7-1 1.2h.2l3.8-1.7.8-.5.7-.6 2.6-1.5 2.5-.9 1.9-.8h1.5l1.1-.5-.3.5-1.1.5-.6.5 2.4-.8v.3l-.8.7-.4 1.3 1.5-.8.4-.6 1-.9 2.1-1 1-.3-.7 1.2 1.9-.4.9-.3-.9 1.1 1.6-.6-.7.8 4.8-2.3 4.2-2.8 2.9-1.8-.5 1.7 2.8-1.5-.2.4 5.9-2.7 1.4-.3-.2.7h.9l2.6-1.4 2.9-1-1.5.7-.5.5-6.6 4.3-8.2 4.3-8.5 5.6-7 5.5-4.7 3.3-3.9 2.4-1.8 1.6-1.1.3h.2l-.5 2.2-.4 2.4v.8l-.5.3-.3.4h-1l-.6.5-.8.2-.4.4-1.5.7-.6.3-.4.5h-.2l-.5.8-.7.4-.4.3-.5.7v.6h.5l.9-.2h.4l.4.6h.3l-.2.4-.5.4-.4.5-.5.3-.3.8-.2.3v.6l-.8.6.3.3v1l-.3.2v.6l-.8.9.7.2 1.1.5.2.3 1.1.2h2.2v.4l.4.3h1.8l1.2.3.3.2v.5l.3.2.2.6.9.4.9.5.5.2h.9l1 .3.4.3.4.9v.9l-.5.7-.3.5-.2.8-.5.6v.4l-4.4.6-1.3.2-3.7.4-3.8.3h-1l-4.5.2h-14.7l-4.4-.3h-.7l-5.4-.6h-.8l-4.5-.6-2.1-.3-3.9-.8-1.5-2-.9-1.8-.3-1.6v-2.1l.3-1.4v-.2l-.5-.2h-1.4l-.3-.2-.2-.3-.5-.3h-.1l.2-.2 1.2-.4.3-.3h.1v-.5l-.3-.2.2-.3-.3-.3h-.4v-.4h-1.2v-.3h-.3v-.2h.2v-.2h-.1l.3-.2h-.1l.3-.3h-.5v-.2h.1v-2h.2v-.2h-.1l.2-.2h.1l.2-.2h.1l.2-.2h-.2v-.2h-.3v-.2h.2l.3-.2h-.1l.5-.5h-.1l.2-.2h-.1l.2-.2h-.1l.3-.2h.5l.2-.2h-.1l.4-.2h.2l.3-.2h-.2l.5-.3.5-.3h.2l.4-.3h-.3l1.4-.9h-.1l.3-.2h.2l.4-.2h.1l.3-.2.5-.4.4-.2h.4l1.3-.8.2-.2.4-.3h.1l.5-.3.3-.2.3-.2.2-.2.3-.2h-.1l.6-.4 1.1-.6 1-.7z" fill="#a6a6a6"/><path d="m138.3 99.6.2.2.4.6.5.5v.2l.5.2.3.3.7.4.2.3v.3l.3.4-.5.2h-.1l-.8.4v.3l-.4.5h-.8v.2l-.2.2h-.3l-.3.2h-.6l-.2.2h-.1l-.4.5h-.6v.4l.2.3v.2l.3.2h.5v.2h.6l.4.2v.2l-.3.2h-.2l.2.4-.2.2v.2h-.1v.2h-.5v.7l-.6 9.6-2.9-.8-3.1-1-3.6-1.3-4.2-1.7h-.3l-6.5-3.2-13.5-7-9.1-4.1-13.3-3.1-14.5-4.7-4.8-.9-4.8-.7-6.8-.2-.7-.8 1.2-1 2.1-1.1 2.5-.6.6-.3-1.5-1.2 2.2-.4 3.5-1.1-.3-.2 3.1-.4 1.2-.5 1.5-.9.8-1.9.8-1.9-.6-1.1.4-1.2v-1.8l-1-1.8h.5l.7.7h.3l-1.4-1.3-.4-1.2-.8-1.1-.2-.9-.8-1.1.6-.2-1.6-2.9 2.6 2.6v-.3l-.8-1.1.6.2.7.9.4.2h1.2l2 2.1.6.3.5.3.2-.2h.3l.6.4.6.6.9.9.9.7.5.7 1.1 1.3.3.5.4.5v.2l.3.6.5.6.2.4.7 1 .8.4.7.5 1.1.6 1.8 1 1 .4.8.5.6.2 1.5.3h.9l.5.2.2-.2h.8l.7.4.6.5 1.8.5 1.2.8h.8l.6.5.7.4.9.4h.2l.5.5.3.4.5.2.3-.2h.4l.9.4h.2l.7.6h.3l1.6.4h.6l.7.3 1.2.8.7.3 1.7.5.9.4.3-.2.9.2h.6l1.3.4h.3l1.6.6.2-.3h.1l.9.5.7.2.6.2.7.2 1.4.7h1.7l10.1 4h.1l3.8 1.4 1.2.4z" fill="#d9d9d9"/><path d="m565.5 29.1-.3-.2.6-.6-.2-.6h-.8l.8-.3.8-.8 2.5-.5.4-.6 5.3 1.3 3.2 1.2 4.4 2.8 2.1 2h.2l.2.2v.2l.2.2.3.6.4.4.3.7.4.4 1.2.9.3.4 1.3.7.7 1.5.7 1h-.7l.5.6v.4l.5.6.3-.8 1.2.8 2.6 5.4h-.5l-1.2-.9h-.3l-.8 1 .5 2-1.2-.9-.8.2 1.4 2.9-1.2-.8v1.8l-10.3-.3h-.5l-6.5.2-4-1.7-.3-.6-.5-.5-.7-.7-.2-.5-.7-1-.6-1.2v-.8l-.2-.7h.2l.5.2.2-.2-.4-.8.2-.3-.2-.6-.7-1-.1-.8v-.8l-.3-.3v-.3l-.6-.6v-.3l-.3-.7-.4-.4-.2-.6h.4l-.4-.9.4-.2h.6v-.4l-.4-.5h.6v-.3h-.4l.2-.3h-.4v-.8l-.4-.2h-.4l-.2-.2h-.4v-.4l.3-.2.6-.2 1-.4h.1v-.4h.6l1.3-.2h.3l.7-.3h-2.8l.5-.2h-.1l.5-.5h-1z" fill="#b3b3b3"/><path d="m264 127-.4.4v.4l-.2.5h.1l1 .2v.5l-1.6 1.2-.4.6h.1l-.2.7v.7l.4.5v1.3l.7.3.9.2h2.7l.2.6h.3v.3l-.2.2-.2.2v.2h.5l.6.3 1.1.3.8.2.2.2v.8l.2.2.7.3h.8l1.6.3.6.4h.3l.2.2v.5l.5.3.4.5v2l-1 .3-.8.3-.2.4.2.8.3.5v.2l-1.3.2v.3l-.2.2h-1.5l-.8.2-.4.6-.7.2h-2.2l-1.5.3h-1.1l-.3.3v1.6l.2.5.9.8.6.2.5.3.8.6.3.5.9 1.7v.3l-.6.5-.2.6.7 1.1.3.8.2.3-.2.3h-1.4l-1.2.3v.4l.3.4.7.4.4.4.5.9.7.8h-.5l-.3.2-.6-.4h-.2l-.3-.3-.4-.2-.3-.4h-.2v-.2l-.6-.2-.3-.4-.6-.4-.4-.5-1-.4-.2-.5-.4-.2-.5-.3-2.2-.3-2.4-.3-1.6-.2-2.4-.3h-.6l-3.1-.5-2.3-.4-1.7-.3-2-.4-2-.4-1.9-.4-2.3-.6-1.4-.4-2.4-.6-2.5-.7-1.3-.4-2.7-.7v-.5l-.9-1v-2.2l-.2-.3v-.3l-.2-.3v-.4l-.2-.5h.1l-.4-.2-.2-.7h.1v.2l-.4-.4v-1h-.1l-.4-.2h-.4l-.3-.2v-.2l-.2-.2v-.4l-.2-.3h.2l-.2-.2v-.5l-.6-.7-.3-.4v-.5l-.3-.2-.2-.2h-.7v-.2l-.3-.2-.4-.7-.6-.5-.3-.4h.1v-.3l-.2-.2-.3-.2-.3-.3-.4-.2v-.3l-.2-.3v-.2l-.2-.2-.5-.2-.5-.3-.4-.4h-.5l-.6-.5-.4-.3h-.2l-.8-.4-.5-.4-.2-.2-.3-.3h.1l-.3-.4h-.2v-.2l-.3-.3v-1l-.5-.3h.2l-.2-.3-.8-.6h-.2l-.6-.2h-.4l-.3-.2h.2l-.2-.3-.2-.2-.4-.2-.4-.3-.2-.3h-.3l1.1.2 3.9.8 2.1.3 4.5.6h.8l5.4.6h.7l4.4.3h14.3l4.5-.2h1l3.8-.3 3.7-.4 1.3-.2z" fill="#b3b3b3"/><path d="m569.5 50.5 4 1.7 6.5-.2h.5l10.3.3v-1.8l1.2.8-1.4-2.9.8-.2 1.2.9-.5-2 .8-1h.3l1.2.9h.5l7.2 8 2.6.6 1.4 2.6-1.3 2.3 1.6 3.7-.6 1.5 2.2 5.7 2.5 2.1v-1.7h1l1 .3 3.4 3.7 4.9 7.7 1.7.9 2.1 5.6 2.2 2h1.7l-.6 1 1.4-1.2.6-4-1.1-3.1-3.8-5.2-2.7-1.5.9-.9 1.8 1.4 3 4.3 2.8 4.9 1.2 3.9-2.8 6.2.4 1.8-2 3.6-.6-.2-3-8.3-.4 7.8-.9.4.4 5.6-1.3 2.7-1.2-1.3-.9-1.4-.9-1.5-1.2-1.5-1.5-.3-1.1-1-1.8-1.5-1.6-.5-.7-.4-.7-1.5-.8-2.4-.6-.9-.2-1.2-1 1-1.9-4.7-.6-2.1-2.8 1.4-1.9.9-1.9.8-1.9.9-1.9.9-.2-.8-6.8 1.7-.9.2-8.7.7h-1.5l-.2.5h-.6v-.5l-3.5-.3v1.8l-1.2.2-.3-2-4.6-.3h-1l-5.5-.6-5.7-1.3-.6-1.5 3.2-23 3.2-16.8 2.2-3.9h1.1z" fill="#e7e7e7"/><path d="m628.7 113.1-1.7-.6.5-.8.7.7-.8-2.1.7-3.9.7-1.5.3 1.6.3-1.7.5 1.5-.2.5.9-.4.6 1.8-2.7 3.5z" fill="#e7e7e7"/><path d="m635.2 107.9h-1.2l-.2-.8 1-.4.4-1.9v-.6l-.3-.2-.3 2v-2.3l-.5-1.3 1.4 2.6.3 1.5z" fill="#e7e7e7"/><path d="m217.1 133.3.5.2.2.2v.3l.2.3v.3l.4.2.3.3.3.2.2.2v.3h-.1l.3.4.6.5.4.7.3.2v.2h.2l.2.2.3.2v.5l.3.4.6.7v.5l.2.2h-.2l.2.3v.4l.2.2v.2l.3.2h.4l.4.2h.1v1l.4.4v.6h-.1l.2.7.4.2h-.1l.2.5v.4l.2.3v.3l.2.3v2.2l.9 1v.5.4l.2.2.3.2v-.4h.2v.3h-.1v.9l.7 1 .2.4.2.2v.2h.2l.5.6.7.6v.2l.2.5.4.6.3.3v.2h-.1v.3h.2l.2.2h.2l.4.4h-.1l-3-.9-1.2-.4-1.2-.3-1-.3-1.5-.4h-.4l-1.8-.4-1.7-.4h.8l-1.2-.2-.9-.2-.8-.2-1.2-.2h-.4l-1.6-.3-1.9-.2-1.8-.2h-.1l-1.9-.2h-.3l-2.5-.3-2.2-5-.7-1.3-2.3-3.7-.4-.6-2.3-3.2-3.1-1.1h-.2l-4.3-1.5-1.1-.4-2.9-1.2-3.8-4.1-1.2-1.4-.7-.9-1.1-1.7-.8-2.4-.3-1.1 2.5.6 2.5.4 1.2.2 3.5.5 4.1.7 4.6.8 2.7.5 1 .2 2.8.5.6.4.4.2.7.4.9.4h.4l.6.4h.2l-.2-.3-.2-.2h.6l.4.2.4.2h1.7l.3.2.4.2.4.2.7.2h.3l.2.2h.3l.9.4.2.2h1.2l1 .6.3.3.3.2h.3l.6.3h.4z" fill="#9e9e9e"/><path d="m559.7 52.8-3.2 16.8-3.2 23 .6 1.5.5 4.3 1.2 4.3 1.4 4 1.9 4 3.7 5.7 5.5 6.5 2.9 3 6.4 4.4-1.7.8-1.9.5 6.9 5.3.7.6v2.7l1.3 1.7h-3.3v2.7l-1.1-1.1-.7-2.1-1.5-2.9-1.3-1.7-1.1-1.5-1.9-1.7-18.7-8.6-1.7-.7-7.2-2.2-16.7-2.5v-.5l-1-.4v-.5h-.4l-1.2.2h-2.1l-.9.2v-.4l-.9-.4-1 .2-1.1-1.3-.3-.7-1.2-.8v-.2l.5-.7-.5-2 .2-.3v-1.1h-.9v-.5l.4-.5-.9-.4v-.5h-.5l-.4-.2-1.9.4-.3-2-.9-.2-.3-.8h-.7l-1.7.5-11.6 2.4h-.7l-6.7 1.6-6.4 1.4h-1.1l-10.8 1.4h-2.4l-8.3-.2h-2l-10.5-.3h-12.8l-2.5-6.5 3.1-4.6.7-2 2.6-2.4.7-3.1 2.4-2.5-2.4-3.9.6-1.2-.9-.8h-2.1v-1.4l-.8-2.3 8.4-4.6 7.2-2.1 4-.6 3.5 1.3 2.6-1.8 7.5-2.1 2.6-2.1.5.4 1.1-2.3 2.7-2.2 4.6-1.5.4-1.6-.7-1.1-1.5-2.8.7-1.5 1.4-.5-.4-1.5-1.6-.8-2 .6-1.5-.7 10-6.4 1.5-2.3 8-6.1 7-3.4 4.7-1.6 15.5-2.7 14.5-1.6.3.3 1.1.4.5.7h1.9l.2.6.9.2v.2l.4.2v.2l.7.2h1.1l1.8.8.2.3v.6h1.6l-.4 1.1h.3v.5h.4v.6h.7v.4l.7.5h.6l.5.7h.7l.2.4v1.4l.4.4.4.3v-1.2l.6-.4h.1l.3.2v.3h.5l.6.3 1.4 2 2 5.6.2 3.1-.2 1.8.4-.2v-.4z" fill="#e6e6e6"/><path d="m586.5 149.9h4l-.2-.2-.2-.2-.2-.2-.2-.2-.8-.3-.8-.3-.8-.3-.8-.3h-1.8l.6.4.6.4.6.4.6.4-1-.3-1-.2-1.2-.3-1.1-.2-.7-.5-.6-.5-.6-.5-.6-.5v-4.2l1.3.5 1.3.4 1.2.4 1.4.5-.4-.5-.4-.5-.4-.5-.3-.6h1.6l.7-.2.7-.2 1.1.4 1.1.4 1.1.4 1 .3v-1.2l3.2.8 2.9.6v-1.5l1.1-.3 1.1-.3 3.8-.5 3.5-1 .5-3 .5-3h.9l-.2.6-.2.6.6 1.1.6 1.2-.4 1.2-.4 1.1.3.9.3.9.9-.6.9-.6.3-1.9.2-1.9.6-.5.6-.5h1.4l1.3-.2.3-1.6.3-1.7h1v1.5l-2.3 5.1-2.3 4.8-5.9 4.4-7.8 2.7-3.6.4h-4l-2.4-.3z" fill="#e6e6e6"/><path d="m603.5 151.1h-1v-.2h1.1l3-1.6 2-2.2 1-1.2.3-.2v.3l-2.1 2.4-.8 1z" fill="#e6e6e6"/><path d="m575.1 149.1-.4-.3-.5-.3.4-.9v-1.1l2.1-.3 1.9-.5.8.8.8.8-.5.6-.5.6-1.1.3-1.1.3z" fill="#e6e6e6"/><path d="m427 114.6 6.7-8.3 2.5 6.5h12.8l10.5.6h2l8.3.2h2.4l10.8-1.4h.7l6.4-1.4 6.7-1.6h.7l11.6-2.4 1.7-.5h.7l.3.8.9.2.3 2 1.9-.4.4.2h.5v.3l.9.4-.4.5v.5h.9v1.1l-.2.3.5 2-.5.7v.2l1.2.8.3.7 1.1 1.3 1-.2.9.4v.4l.9-.2h2.1l1.2-.2h.4v.5l1 .4v.5l-2.7 1.5v.4l-.9.5-.5 1.8.3.6-1.2 2.2-.9 1-.7.6v.6h.6l-.7.8-.4 1.3-.9.7-1.2.5-.5.8.3.5 2.2 2v.6l.4.4.3.5-1.2.5.4.5.8 1.1-.2.7-1.6-.2-.3.9.4.8-.3 1.2 1 .7-.5.5.7.6.2.6.6 1.1v.4l.8.6 2.4.3 1.8 1v.9l1.3 2 1.3 1.3 1.5.9h.9l1 .4 2 1.8 1.2.5 1.1.6 2.4.7 2.7 1.4 7.2 1.7 2.2.6.6.5h-5.9l-.3.8-3.9.3-.3.5-1.4.7.3.6-.4.2-1.7-.2-.8.4v.5l1.7 1.2.5.5-2-.2-1.4.5.2.2-3.1-.5-.2 1.5-2.6-1.4-3.7-1.2-1.7-.4-.9.2v1l1.6 1.7-10.3-1.6-2.6-.2-9.4.2-5.2 1.1-5.5 1.2-4.4 1.9-5.4 2.1h-.2l-9.7 4.2-2.2.9-.6.2-6.1 1.4-2.1.6-6.6 2.3-.9.3-2.7.9-1 .3-2.8.5h-.3l1-8.4.3-2.6v-5.1l-.9-8.7-.4-2.5-.9-5.3-2.7-7.4-.5-1.4-3.7-7.1-5.7-9.8h-.1l-4.8-8.5z" fill="#b3b3b3"/><path d="m594.6 94.9.8 3.9 1.2 3.9 1.7 3.6 1.8 3.4 2.1 3.7 1.3 1.6 1.3 2 1.5 1.9 1.4 1.8 1.7 1.7-.5.9 2.6 1.8.6.6-.2.3-7.1 4h-1.3l-3.7-2.2 3.2 2.8-2.7 1h-8.7l-.4 3.4-9.7 2.3-.7-.6-6.9-5.3 1.9-.5 1.7-.8-6.4-4.4-2.9-3-5.5-6.5-3.7-5.7-1.9-4-1.4-4-1.2-4.3-.5-4.3 5.7 1.3 5.3.8h1l4.6.3.3 2 1.2-.2v-1.7l3.5.3v.4h.6l.2-.5h1.5l8.7-.7.9-.2 6.8-1.7z" fill="#9e9e9e"/><path d="m614.9 104.1v1.9l-3.3-1.8-1.2-.7 2.6 2.4.4 2.6.8 1.7.6 2.1 1.7 1.5.8 1.5.7 4-.8 1.3-.6 1.3-.8 1.2-1 1.1-2.9 1.9.2-.3-.6-.6-2.6-1.8.5-.9-1.7-1.7-1.4-1.8-1.5-1.9-1.3-2-1.3-1.6-2.1-3.7-1.8-3.4-1.7-3.6-1.2-3.9-.8-3.9 1.9-.9 1.9-.9 1.9-.8 1.9-.9 2.8-1.4.6 1.9 1.9 4.7 1-1 .2 1.2.6.9.8 2.4.7 1.5.7.4 1.6.5z" fill="#d9d9d9"/><path d="m621.8 111.2-.6 2.1-1.1-1.7-1.9-2-.8-2.3-1.4-2.2 1.5.3 1.2 1.5.9 1.5.9 1.4z" fill="#d9d9d9"/><path d="m619.3 115.7-.4-1.7-1.1-1.5-1.3-2.1-.2-2.2.5-1.1.5 1.7.7 1.8 1.6 1.5.8 1.3-.9.3z" fill="#d9d9d9"/><path d="m579.5 144.4-3.7 1.6-1.5-2.1-.6 1v2.4l-1.3 1.8 2.1 1 2.7.4 4.4.5 8.9 6.3 2 7.8-1.8-.8.8 1.1h1.2v1.2l-2.4-.3 1.7.7-.7 5.8.7 5.9-1.4 3.5-2.2 2.2.2 1.7-2.8-.7.7 1.5-1.6 2.6.6 1.5-6.2 3.4 1.3.4v1l-5.1 6.2-2.5 1 .4.8-3.4-.2 1-4.4-2-.4-3.9-.4h-3.7l-15.1-9.1-7.9-7.5-1.2-3.2-3-3.3-.7-4h.3l-.8-1-.3-.7.7-.3.2-.3-.7-.4.2-1.5 3.1.5-.2-.2 1.4-.5 2 .2-.5-.5-1.7-1.2v-.5l.8-.4 1.7.2.4-.2-.3-.6 1.4-.7.3-.5 3.9-.3.3-.8h5.9l-.6-.5-2.2-.6-7.2-1.7-2.7-1.4-2.4-.7-1.1-.6-1.2-.5-2-1.8-1-.4h-.9l-1.5-.9-1.3-1.3-1.3-2v-.8l-1.8-1-2.4-.3-.8-.6v-.4l-.6-1.1-.2-.6-.7-.6.5-.5-1-.7.3-1.2-.4-.8.3-.9 1.6.2.2-.7-.8-1.1-.4-.5 1.2-.5-.3-.5-.4-.4v-.6l-2.2-2-.3-.5.5-.8 1.2-.5.9-.7.4-1.3.7-.8h-.6v-.6l.7-.6.9-1 1.2-2.2-.3-.6.5-1.8.9-.5v-.4l2.7-1.5 16.7 2.5 7.2 2.2 1.7.7 18.7 8.3 1.9 1.7 1.1 1.5 1.3 1.7 1.5 2.9.7 2.1z" fill="#d9d9d9"/><path d="m341.4 140.1 3.8-.4 3.5-.4 2.1-.3 3.5-.6 1.8-.3 4.9-.9 1.5-.2 5.3-.9h.6l.6 1.1 1.8 3.1 1.1 2 1.6 3 .3.6 2.5 5.9.4 1.2 1.4 4.9.8 3.3 1.1 5.8.2.8 1.3 7.5.3 2.4.7 4.5.6 4.1.2 1.2.6 4.9v.2l.4 4.7h-.2l-.7.8v.3l.2.4.4.6v1.1l-.3.5v.4l.2.2.6.2v.7l-.5.6v.8h-1.8l-.6.3-.5.2-.6.6-.5.3h-.5l-.6-1.1h-1.7l-.4.2v3.2l-.3.5-.5.3-.7.8-1.3.3-.6 1.1-.5.8-.6.6-.9.5-.3-.2h-.7l-.4.6-1.1 1-1 1.9-.5.5-.6.3h-1.1l-.5.4-.2-.7h-1l-.5-.4v-.6l.5-1.2-.3-.5-.2-.3h-.3l-.2.5.4.3v.2l-.2.2h-.7l-.3.2-.4-.4h-.2l-.2.3.2.4v.2l-.3.3h-.9l-.4.4-.3.5-.3.7-.2.2h-1.1l-.8.9-.5.2h-.2v-.2l.5-.6v-.2h-.3l-.7.2h-.3v-1.3l-.2-.2h-.5l-.8.5-.5.2h-1.1l-.4.2-1.5 1.4-.7.3h-.3v-.7l-.7-.2-.5-.3-.3-.4-.7-.7h-.9l-.9.2-1-1-.7.7.2.5-.2.4-.4.3-.8.2h-.5l.6-.9h-1.1l-1.2.2-.4-.2-.4-.6h-.4l-.3.2-.3.4v.6l-.4.4h-.4l-.4.3-.6-.5-.3-.2-.7-.4v-.2l.7.3.2-.2-.5-.6-.3-.6v.3l.9.4h.9v-.2l-.8-.4.2-.3.2.3h.4v-.4l.4-.2v-.6l.3-.4-.3-.2h1.3l.3-.4h-.8v-.2l.9-.3h.4l.4-.3v-.2l-.7-.7v-.6h.1l1.2-.9h.2v.4l.5-.3.2-.3h.2v.6h.2l.5-1.2.9-.3.8-.7.3-.5-.3-.3v-.2h1.1l.3-.4h.4v-.3l-.2-.7.4-.5.2-.3h.3v-.9l.7-.5.7-.2.6-.9v-.9l-.2-.2.2-.4-.6-1.4v-.3l.3-.7.2-.5v-.7l-.2-.3-.7-.4h.2v-1.4l-.5-.5h-.2v-.3l-.5-.2v-.4l-.2-.3.5-.4.6-.5h.2v-1l-.4-.2-.2-.5v-.4l-.2-.2.4-.6.9-.2v-2.8l-.2-2.9-.9-6.2-1.4-6.1-2.1-6.8v-.2l-1.8-5.1-2.1-5.2-1.5-3.1-1.3-2.4-1.9-3.1-3.3-4.6 1.7.8h.6v.4l1 .4h2.3l2.5-2z" fill="#b3b3b3"/><path d="m148.4 123.6-2.9 6.2-1.4 6.8-.2 1.5-.3 2.8-.4 7.6v9.8l.2 6.3v2.2l.3 8.6v.3l-.3.8v1.3h-.3v-.2l-.2-1.4v-2.1h-.2v-.2l-.2-.8h-.2v-.2l-.3.2v1.2l-.2.9-.2 1.9v6.5l-.2.6v9.4l-.2.8v.2h-.2v1.5l-.5.9-.2 1.2-1.2-10.5-.8-9.7-.7-4.1-2.4-8.1-2.7-7.1-3.1-6.6-2.6-5.2-4-5.5-1.1-1.1-1.9-1.5-3.5-1.2h-2.1l1.1-.8.5-.4.4-.5.8-1.3.4-1.1.5-2.2.5-2.9v-2.9l-.2-2.9-.3-2.9-.4-1.7v-3.1l-.4-1.7 6.5 3.2h.3l4.2 1.7 3.6 1.3 3.1 1 2.9.8h.1l2.3.6 2.2.6 3.4.7 2.9.4h1z" fill="#a6a6a6"/><path d="m163.6 124.3-.3 2.4-.4 2.2-.6 2.1 3.5-1.5h2.8v4.1l-.3 6.3-.5 7.5v3.8l-.4 11.1v8l.2 3.4 1 8.8-4.9-3.7-2.3-1.5-.2-.3-1.3-.8-3.1-1.9-4.5-2.5-1.6-1-1.9-1.1-5.6-5.1-.2-6.3v-9.8l.4-7.6.3-2.8.2-1.5 1.4-6.8 2.9-6.2 5.4.4 4.4.4h3.4z" fill="#e7e7e7"/><path d="m115.7 113.2.4 1.7v3.1l.4 1.7.3 2.9.2 2.9v2.9l-.5 2.9-.5 2.2-.4 1.1-.8 1.3-.4.5-.5.4-1.1.8h2.1l3.5 1.2 1.9 1.5 1.1 1.1 4 5.5 2.6 5.2 3.1 6.6 2.7 7.1 2.4 8.1.7 4.1.8 9.7 1.2 10.5h-.1v1.3l-.2.6-.2 1.1.4.9v1.9h.2v3l-.2.3.2.3v1l-.3 1.4v.4h.4l.2.3v.4h.2l.6.5v1.8l-.2.2-1.2 2.2-.5.6-.5.9-1.1 1.4-.3.6-.3 1.1-1.5 2.1-.2.3.3.3-.7 1.5v.3l-.2.4v.9l-.2.6v.5l-.8.9v.2l-.2.8-.4.9v.3l-1.2 1.6-.3.5-.5.6-.3.6-.4.5-1.4 1v.8l-.9 1.2h.8l-.4.6v.2l-.4 1-.9 1.2-.2.5.4.5.4-.3h.1l.4-.2.9-.8.6-.3.5.3-.4.8-.4 1.4-1.3 1.3-.3.5v.2l-.2.2v.2l-.3.2v.2h-.2v.2l-.6.4v.2l-1.6.9-.4.3-.3.3-29.7 13-20.6 1.5-.7-2.8 1 1.9.2-1.1-1.1-1.1-1.1.8v-2.7l.7-.5v-3.9l-.3-2.3-2.1-2.9-5.9-6.5-2.2-.5-1.3 1.2-1.8-.7v-.6l1-.6.2-1.3-.8-2.9-4.4.4-2.4-.5-3.9-2.2-.2-1.7-2.6-2.8-1.8-.9-4.5-.4-2-1.4-2-.6-5.2-.9-.5-1.5-1.7-1.5 1.2-2-.2-1.1.9-1.5-.6-1.1.8-1.1 1.2-1.6.2-1.2-3.2-1.9v-1l1.4-1.7v-1l-1.7-.8-1.1-3.4-1.7-1 .2-2.5-1.2-1.7-1.4-5.8-2-2.8 1.2-4.8 1.3-.8.4.7 1.4-.5 2.7-2.6-.2-.6-.5-1.9-3.5-.2-1.4-1.2-.7-1.9-1.1-2.5 1.4-1.7.4-2-.7-.8 1.9-2.6.9-1.2 2.2-.2v1.3l-.6.3-.9 1.4 3.5 3h2.5l-2-.8.6-3.8-1.7-.8 1.4-1.7-1.1-.4.6-1 2.2-.5 7.3-.4 7 .6 2-1 2.2-.2-.3.5h.6v-.8l.8-.4-3.3.7.9-1.1-4.4 1.7h-2.9l-1.1-1.1-6.6.9.2-1.6-.4-.8-.7.2.8.6-.5 1-2-1.1-1.2.7h-1.2l-.4-.6.4 1.1-1.4 1 .9.6-1.5.7-.5 1.5h-1.2l-2-1.6h-.6l-1.3-2.1-1.5-.7-.9.4-.8-.3 2.5-2 .3-2.4-1-.2v-2.4l-1.9-2.4-1.8-4.4-1.5-3.7 1.5-1.8.8-5.7 2.8-3.1.9-2.3.5-2.5-.7-3.7v-2.1l-1.6-3.7 1-1.3.6-2.1 11.3-8.5 1.9-2.6 4.4-2.8 3-2.2 4-3.4-.6-.7 2.2-.8 3.4-1.6 6.8.2 4.8.7 4.8.9 14.5 4.6 13.2 5.4 9.1 4.1z" fill="#e7e7e7"/><path d="m39 234.6-2.1-.5-.5-.7.3-.4-.7-.6h1l2.9 1.5 1.7-.3.7.5-.4.4h-2.9z" fill="#e7e7e7"/><path d="m32.8 234.1-.8-.7-.7-1.6 3 .4.9 1.8z" fill="#e7e7e7"/><path d="m57.4 247.7-2.3-.6v-1.5l-1.1-.4-.3-.8 3.3 1.5.6 1.3z" fill="#e7e7e7"/><path d="m53.5 254.5-1.1-1.4-.8-2h.5l.2.7 2.2 2.9h-1z" fill="#e7e7e7"/><path d="m369.1 137.1 6.8-1.7h.4l8.4-1.8 1.8-.4 4.6-1.1 6.1.8 3.1 1.3 2.8-.8.5.6-3.4 2.2h2.6l2.3-1.2 3 .7 2-1.7 2.9-3.2h.8l3-.7 1.4-4.2.5-2.5 3.4-4.2 4.9-4.7 1.7 2.9 4.8 8.5h.1l5.7 9.8 3.7 7.1.5 1.4 2.7 7.4-.4.8h-.5l-.3.2-.2 1.1v.5l.7.9.5 1.1.3.8v3.1l.4.5.6 2.4v1.1l-.3 1.1v9.3l-.2 1.3v.9h-.1v2.2l-.2.5v1l-.4 1.5v2.1l-.4.8-.2.7-.4 1.4-.4.5h-.1l-.7.8-.7 1.1-.2.4-.7 1-.6.9-.8.9-.5.7-.3.2-.5.6h-.3l-.9 1h-.2l.6-2.2v-.2h-.2l-1.1 1.4-.4.5-1 2-.6-.6-.3.2-.5 1.1h-.3l-.7.7-.5 1.3-.5.7-.7.4h-.4l-.2.3-.3.6v.6l-.9 1-.5.7-.3.2v-.4l-.4.3-1 .9-.4.2h-.1l.7-.6.5-.9h-.3l.2-.6h-.4l-.6.6-.4.2-.4.4-1 .9-.8.9-.8.4-.6.3-.7 1.3-.7.6-.9 1-.7.5h-.4l-.3-.3-.6.3-2.7 1.8-.7.3h-3.9l.4-.8-.5-.4v-.5l-.6-.2h-.9l-.2-.2v-.4l.6-.8v-.5l.6-.6v-.5h-.4l-1.3.6h-.9l-.9.5-1.1.3-1.2.7h-.7l-.8-.3-.6.2-.4.2h-.3v-.2l.2-.4-.3-.4-1.2-.2-.4-.5h-.3l-1.7.2-.4.2-.5.5-.3.2h-.4l-.4-.3-.7-.3v-.7l-.5-.4v-.6l-.7-.3-.5-.4h-1.8l-1.2-.5-.7-.5v-1.5l-.3-.8-.3-.6v-1.5l-.4-.5h-.6l-.4-.2v-1.4h-.6l-.3.3-1 .4-.4-.2-.5-.4-.8-1.4-.6.7h-.3l-.4-4.7v-.2l-.6-4.9-.2-1.2-.6-4.1-.7-4.5-.3-2.4-1.3-7.5-.2-.8-1.1-5.8-.8-3.3-1.4-4.9-.4-1.2-2.5-5.9-.3-.6-1.6-3-1.1-2z" fill="#a6a6a6"/><path d="m316.8 129.9 2.3 2.6 3.5 2.3 2.9 1.4 4.1 3.5 3.2 2 3.3 4.6 1.9 3.1 1.3 2.4 1.5 3.1 2.1 5.2 1.8 5.1v.2l2.1 6.8 1.4 6.1.9 6.2.2 2.9v2.6l-.9.2-.4.6.2.2v.3l.2.5.4.2v1h-.2l-.6.5-.5.4.2.3v.4l.5.2v.3h.3l.5.5v1.4h-.2l.7.4.2.3v.7l-.2.5-.3.7v.3l.6 1.4-.2.4.2.2v.7l-.6.9-.7.2-.7.5v.9h-.3l-.2.3-.4.5.2.7v.4h-.4l-.3.4h-1.1v.2l.3.3-.3.5-.8.7-.9.3-.5 1.2h-.2v-.6h-.2l-.2.3-.5.3v-.6h-.2l-1.2.9h-.1v.6l.7.7v.2l-.4.3h-.4l-.9.3v.2h.8l-.3.4h-1.3l.3.2-.3.4v.6l-.4.2v.4h-.4l-.2-.3-.2.3.8.4v.2h-.3l-.9-.4v.2l.3.6.5.6-.2.2-.7-.3v.2l.7.4-1 .8-1.2.2-.7.5-.2.5v.7l.3 1.2-.6.4-4.1-.2-1.1.2-1-.4h-1l-1.5 1.1v.5l.7.8v1.2l-1 .6-.7.2h-.8l-.7-.3-.8-.6-1.3-.6-1-.3h-.1l-2-1-1-.6-1-.4h-1.3l-1.2.6h-.6l-.5.2-.2.4.4.4.3.2-1.1-.3-.2-.6-.5-.3-.4-.7-.3-.2h-.3l-.2.3.7.7v.2h-.4l-.5-.3-1.2-.9v-.7l-.7-.7-.3-.4-.5-.9v-.4l-.4-.2-.4-.4v-.4l.2-.2h1.2l.2-.7-.5-.7-.8-.7-.6-1.2.3-.5v-.5l.2-.4v-.2l-1.1-.5-1.6-1-.2-.6-.3-.4-.7-.7-2.3-1.6h-.2v.2h-.6l-.7-.3-.8-.7.3-.6-1-.4-.6-.5-1.4-1-.3-.4-1.3-.9-.8-.8-.6-.9-.8-.6-.5-.8-.2-1.3v-.7l.3-.3.6-.3.5-1.1v-.2l.3-.3 1.1-.4v-.7l-.3-.7v-.3l.7-.5h.6l.3-.2.2-.4-.4-.4-2-1.3-.6-.3-.7-.2-1.4-1-1-.3-1.3.7h-.7l-.9-.4-.7-1-.6-1.6v-.3l.3-.4-.4-.8v-.8l-.2-.5v-.4l-.6-.9-1.2-1.1-1.7-1.2-1.5-1.1-.5-.6-.6-1-1.1-.6-.8-.9-2.1-1.8-.9-.8-.2-.6-.3-.7-1.3-1.2v-.4l.2-.2v-.3l-.4-.5-1-1.2-.7-1.1-.8-1.2-.4-1.1-.3-.8-.4-1v-1l.3-.2h.5l-.7-.8-.5-.9-.4-.4-.7-.4-.3-.4v-.4l1.2-.3h1.4l.2-.3-.2-.3-.3-.8-.7-1.1.2-.6.6-.5v-.3l-.9-1.7-.3-.5-.8-.6-.5-.3-.6-.2-.9-.8-.2-.5v-2l.3-.3h1.1l1.5-.3h2.2l.7-.2.4-.6.8-.2h1.5l.2-.2v-.3l1.3-.2v-.2l-.3-.5-.2-.8.2-.4.8-.3 1-.3v-2l-.4-.5-.5-.3v-.5l-.2-.2h-.3l-.6-.4-1.6-.3h-.8l-.7-.3-.2-.2v-.8l-.2-.2-.8-.2-1.1-.3-.6-.3h-.5v-.7l.2-.2 3.4-.3 8.5-1.2 1.6-.2 8.5-1h.8l7.9-.8 3.1-.4h1l7.1-.8 1.7-.2z" fill="#a6a6a6"/><path d="m492.9 197.5 1-1 1.3-1.3 1.5-1.9 1.7-2 3-1.2 3.8-.7 1.3 1 1 1.4 1.5 1.8 3 4.8 1.7 5.1-1.6 1.4-1.9.7-2 .6-2.2.5-2.1.5h-4l-.2-.2v-.2l-.5-.4-.6-.4h.3l-.2-.5-.2-.7-1.8-1.3-1.4-1.1-.2-1.7v-1.5l-1.3-.5-.4-.4z" fill="#e7e7e7"/><path d="m532.8 168.3.7.4-.2.3-.7.3.3.7.8 1h-.3v3.9l2.4 2.8 2.3 4.6 5.1 5.7 6.7 5.8 4.4 5.7 3.3 2.1 1.6 1.7 5.5 3.2 3.5.3 3.5 6.9h-1.1l-7.3-.9-10.4.5-.7-2.2-.7-2.6-2.7-4.9-6.5-9.8-2.5-4-1.4-2-2.4-3.8-11-15.8h.4l-1.6-1.7v-1l.9-.2 1.7.4 3.7 1.2z" fill="#e6e6e6"/><path d="m453.8 183.1-5.7 13.2.4-.3h.1l1-1.1.7-.5.9-.3 1.1-.7 1-.6 2.4-1.3.6-.6h.2l.7-.9.5-.6v-.4h.5l.3-.5h.2l-.2 1.5.9-.7 2.5-2.2.7-1.3h.4v-.7l.6-1.2.3-.6.6-.6-.3.7h.5v.2l-.4.5-.6.3v.8l.2.2v1.4h.1v.3l.4-.2v.5l.6-.2h.1l.7-.6.6-.6h.3l.7-1.1.5-.5h.2l.9-1.3.2.2.7-.7h.2l.2-.4v.7l.8-1 .8-1 .5-.8.3-.2v-.9l1.1.4-.9 2.1-.4.9 1-.8-.6.9.3-.3.7-1 .3-.2-.3.8.4-.3.8-.8v.4l.4-.3-1.3 1.4-.5.3-.6.2-.3.2v.3l-.8 1 .8-.7.2-.2-.4.5-.6.4h.4l1.2-.5-.8.6v.4h-.4v.2l-.3.3 1.2-.2.4.3-.8.5v.3l-.2.4v.2h.5l-.5.7.7.7.5 1.1 1 1.2v.2l-5.1-1.5-4.2-.8-.6-.3-.6-.4-1.5 1.8-.6.5h.4l-2.1 1.8h.2l-.8.6v.2l.5.2-.6.4-.2.4-.7.2-.3.3-.7.6-.4.4h.4l-.8.7h-.7l-.2.4-.5.4-.7.3-.2-.2h.1l-.2.2-.8.5.5.6.2.9-3.2-.4-.6.6-.4.2v.3l-.4.6.3.4h-.7l-.4 1.7-.3.4v.4l-2.5.4-1.5-.5h-2l-.3.5v.2l-.4.3.4.5-.5.4v.4h-.5l-.2.4h.6l-.5.3-.8.8h.2v.3h.3v.3l.2.2v.4l-.6.4-.4.4v.2l-.6.2h.2l-.4.4.4.2-.3.2.5.2-.4.4h1.4l1 .2-.2.2-1 .2.4.3h1l.4.3h-1.4v.3h-1l-.5-.3h-.9l-.3.3-.5.7h-1.6l-.4-.2h-1.1v.3l1.3.3h.1l-.8.4h-1l-.3.2-1.8.2-.6.5-2.1-.3-1.5-.3-.2.2.2.3-.7.4h-.3v.2l-.3.4-1.5.3-.9-.2h-1.9v.2h-2.3l-.5-.3h-1.6v-.2l.2-.2v-.2h-.7l-.5.3h-.5l.2.2h-.6l-.9.2h-.1v-.2h-.4l-.7-.2v3h-1.4l-.7-.5h-1.4l-.3-.5-.2-.2h-.8v-.2h.2v-.2l-.5-.3-.7-.8-.4-.3.2-.2h.6l.3-.2.3-.5h.7l.2-.4h.4l.3-.7.7-.5h3.5l.7-.3 2.7-1.8.6-.3.3.3h.4l.7-.5.9-1 .7-.6.7-1.3.6-.3.8-.4.8-.9 1-.9.4-.4.4-.2.6-.6h.2l-.2.6h.3l-.5.9-.7.6h.1l.4-.2 1-.9.4-.3.3-.2.5-.7.9-1v-.6l.3-.6.2-.3h.4l.7-.4.5-.7.5-1.3.7-.7h.3l.5-1.1.3-.2.6.6 1-2 .4-.5 1.1-1.4h.2v.2l-.6 2.2h.2l.9-1h.3l.5-.6.3-.2.5-.7.8-.9.6-.9.7-1 .2-.4.7-1.1.7-.8h.1l.4-.5.4-1.4.2-.7.4-.8v-2.1l.4-1.5v-1l.2-.5v-2.2h.1v-1l.2-1.3v-9.3l.3-1.1v-1.1l-.6-2.4-.4-.5v-3.1l-.3-.8-.5-1.1-.7-.9v-.4l.2-1.1.3-.2h.5l.4-.8.9 5.3.4 2.5.9 8.7v5.1l-.3 2.6-1 8.4h.4l2.8-.5 1-.3z" fill="#e6e6e6"/><path d="m525 168.2 10.8 15.7 2.4 3.8 1.4 2 2.5 4 6.5 9.8 2.7 4.9.7 2.6.7 2.2 10.4-.5 7.3.9-1.2 1.6.3 2.1-2.7 1.8-2.5 2.7v.9l-6.7.7-.5.4-6.1-.4 1.9-2-4.4-1.2 1.2-1h-.7l1.9-.8-3 .4v-2.1l-.5-.5-1.3 2.1h-1.3l-1-.9-.9 1.3-8.4-4.6-.2-1.1 2-1.5-2.4-1.3 7.3.4-.6-1.4-.2.8-1.4-.4-3.1-2.2h-1.4l-1.8-1.8-1.1-.4-.8 2.4-.5-.6.5-3.9 2.6 2.5.5-.7.2-2.9h1.1l-.9-.3-.3-1.7-.3 1-2.6-2.4v-5.4l-2.3.2-1-2-1.1-3.1v-4l1.1-1 5.8.5-4.6-1.5-1.1-3.3-1.5-2.4-2.2-2.4-.7.9 1.6 5.9-1.8.4-4.3-1.9 2.3 6.2-4-1.6-3.1-1.2 2.2 1.3.5 1.1-.6.3 1.1 1v-1.1l6.3 4.7 2.1 9.3-.9 5.3 1.1 1.5 1.7 5.4 4.8 3.4-.3 1.1-.4.6-1.5-.5-1.9-1.8-4.7-.7 11.4 5.3 1.9 3-9.4-3.4-6.1-.5-5.2-3-.8 1.7-2.8-.6-2.5-1.7-8-.8-1.7-.8-2.5-1.9 1.9-1.7-.8-.7h1.2l2 .5h.5l-2.9-1.6h4l2.1-.5 2.2-.5 2-.6 1.9-.7 1.6-1.4-1.7-5.1-3-4.8-1.5-1.8-1-1.4-1.3-1-3.8.7-3 1.2-1.7 2-1.5 1.9-1.3 1.3-1 1-1.2-1.6-2.2-.4v-1.7l-1.9-1-.6-.2h-2.3l-.8-.4-.8-.6-1-.3-.7-1 .8-.5-.2-1-.3-.2-.9-.4-1.3-.3-.4-.5h-4.1l-1.5.3h-.5v-.2l.2-.4v-.3l.8-.5-.4-.3-1.2.2.3-.3v-.2h.4v-.4l.8-.6-1.2.5h-.7l.6-.4.4-.5-.2.2-.8.7.8-1v-.3l.3-.2.6-.2.5-.3 1.3-1.4-.4.3v-.4l-.8.8-.4.3.3-.8-.3.2-.7 1-.3.3.6-.9-1 .8.4-.9.9-2.1-1.1-.4v.9l-.3.2-.5.8-.8 1-.8 1v-.7l-.2.4h-.2l-.7.7-.2-.2-.9 1.3h-.2l-.5.5-.7 1.1h-.3l-.6.6-.7.6h-.1l-.6.2v-.5l-.4.2v-.3h-.1v-1.4l-.2-.2v-.8l.6-.3.4-.5v-.2h-.5l.3-.7-.6.6-.3.6-.6 1.2v.7h-.3l-.7 1.3-2.5 2.2-.9.7.2-1.5h-.2l-.3.5h-.5v.2l-.5.6-.7.9h-.2l-.6.6-2.4 1.3-1 .6-1.1.7-.9.3-.7.5-1 1.1h-.1l-.4.3 5.7-13.2.9-.3 6.6-2.3 2.1-.6 6.1-1.4.6-.2 2.2-.9 9.7-4.2h.2l5.4-2.1 4.4-1.9 5.5-1.2 5.2-1.1 9.4-.2 2.6.2z" fill="#9e9e9e"/><path d="m528.3 201.7-.5-3.9v-3.2l2.1 3 .6 2.2-.8-1.2v1.5l-.5-2.4-.9.2.7.8v1.2l-.5-.6.7 1.9z" fill="#9e9e9e"/><path d="m571.5 213.8-.6 2.5v-2.6h.5z" fill="#9e9e9e"/><path d="m567.5 222h-.7l.6-.3.8-1.1 1-2.4 1.5-2-1.6 3.6z" fill="#9e9e9e"/><path d="m186 134.8 2.9 1.2 1.1.4 4.3 1.5h.2l3.1 1.1 2.3 3.2.4.6 2.3 3.7.7 1.3 2.2 5 1.8 6.1.8 5.9v6.7l-.1 4.5-.6 6.6v1.2l-.5 3.2-1 4.9-7.6.3h-5.5l-5.9-.6h-.3l-2.2-.6-1.3-.4-2.4-.7-1.7-.7h-.1l-2.5-1.2-.3-.2-4.2-2.8-3.3-2.7-1-8.8-.2-3.4v-8l.4-11.1v-3.8l.5-7.5.3-6.3v-4.1l3.5.9 2 .3 1.4.4 1.7.5h.4l3.2 1 1.2.3z" fill="#b3b3b3"/><path d="m412 211.6-.7.5-.3.7h-.2l-.2.4h-.7l-.3.5-.3.2h-.6l-.2.2.4.3.7.8.5.3v.2h-.2v.2h.8l.2.2.3.5h1.1l.7.5h1.4v-.2l.7.2h.4v.2h.1l.9-.2h.6l-.2-.2h.5l.5-.3h.3l-2.7 3.3-.8.6-.9.3-2.1 1h-.3l-2 1.2v.2h.3l.2.3-1.3.5-.7.4.5.4v.4l-.9.5-1.6.3h.1l-.3.9.4.3v.2l-1.1.2-1.8.5-.8.4v.2l-.8.2h-1.1l-1.4.7-.3.2-.2.2-3.7.3h-1.1l-3.7.3-7.9.5h-3.4l-4.1.2h-.4l-2 .2h-8.3l-3.3-.2h-8.7l-4.7-.3h-.7l-3.6-.3-5 1.3h-.9l-2.7-.3-.4-.4-3.7-.6.8 1.2.3.6v.5l-7.9-1.5h-.3l-5.5-1.2h-.3l-9-2.3-1.2-.3h-.1l.6-1h.5l.3.2.8.7.7.2h.5v-.5h.4l.2-.2-.5-.6.4-.3h.9v-.3l-.6-.3v-.3h.8l.6-.8v-.3l-.4-.2-.3-.2-.4-.4.2-.4.5-.2h.7l1.2-.6h1.3l1 .4 1 .6 2 1h.1l1 .3 1.3.6.8.6.7.3h.8l.7-.2 1-.6v-.7l-.7-.8v-.7l1.5-1.1h1l1 .4 1.1-.2 4.1.2.6-.4-.3-1.2v-.7l.2-.5.7-.5 1.2-.2 1-.8.3.2.6.5.4-.3h.4l.4-.4v-.6l.3-.4.3-.2h.4l.4.6.4.2 1.2-.2h1.1l-.6.9h.5l.8-.2.4-.3.2-.4-.2-.5.7-.7 1 1 .9-.2h.9l.7.7.3.4.5.3.7.2v.7h.3l.7-.3 1.5-1.4.4-.2h1.1l.5-.2.8-.5h.4l.2.2v1.3h.3l.7-.2h.3l-.5.6v.2l.5-.2.8-.9h1.1l.2-.2.3-.7.3-.5.4-.4h.9l.3-.3v-.2l-.2-.4.2-.3h.2l.4.4.3-.2h.7l.2-.2v-.2l-.4-.3.2-.5h.3l.2.3.3.5-.5 1.2v.6l.5.4h1l.2.7.5-.4h1.1l.6-.3.5-.5 1-1.9 1.1-1 .4-.6h.7l.3.2.9-.5.6-.6.5-.8.6-1.1 1.3-.3.7-.8.5-.3.3-.5v-3.2l.4-.2h1.7l.6 1.1h.5l.5-.3.6-.6.5-.2.6-.3h1.6v-.8l.5-.6v-.7l-.6-.2-.2-.2v-.8l.3-.5v-1.1l-.4-.6-.2-.4v-.3l.7-.8h.5l.6-.7.8 1.4.5.4.4.2 1-.4.3-.3h.6v1.4l.4.2h.6l.4.5v1.5l.3.6.5.9v1.2l.7.5 1.2.5h1.8l.5.4.7.3v.6l.5.4v.7l.7.3.4.3h.4l.3-.2.5-.5.4-.2 1.7-.2h.3l.4.5 1.2.2.3.4-.2.4v.2h.2l.4-.2.6-.2.8.3h.7l1.2-.7 1.1-.3.9-.5h.9l1.3-.6h.4v.4l-.6.6v.5l-.6.8v.4l.2.2h.9l.6.2v.5l.5.4z" fill="#e7e7e7"/><path d="m306.3 227.3-.9-.3-.5-.4v-.3h.6l.6.2.2.2.2.3-.2.2h.1z" fill="#e7e7e7"/><path d="m232.4 158.2.7.8h.3l.2.4h.3l.5.6h.6v-.2h.7l.2.5v.2h.2v.4h-.2l.2.2h.5v.2h-.4l-.2-.2h-.1v.5h-.3v.4l.2.5-.3.2.2.4.6.7v.3l.5.4.3.4.3.4h.2v.7l.3.5.5.4.3.6.3.3.5.5h.4l.3.3.3.2v.5l.2.8.5 2.5.2 1.2.6 3.1.2.9.9 4v.3l1.2 4.2v1.7l1.4 3.6.2.4 1.7 3.6.5.9-3.3-1.5h-.3l-2.2-.9-.7-.3-1.6-.5-1-.4h-.3l-2.9-.8-1.3-.3-2.1-.5-1.7-.3-1.8-.3-1.6-.2h-7.4l-2.4.2h-.5l-3 .3-1.8.2h-.7l-3 .4-3.2.5h-.1l1-4.9.5-3.2v-1.2l.6-6.6.2-4.5v-6.7l-.8-5.9-1.8-6.1 2.5.3h.3l1.9.2h.1l1.8.2 1.9.2 1.6.3h.4l1.2.2.8.2.9.2 1.7.2h.4l1.7.4 1.8.4h.4l1.5.4 1 .3 1.2.3 1.2.4 3 .9h.1z" fill="#d9d9d9"/><path d="m492.9 197.5.5.3.4.4 1.3.5v1.5l.2 1.7 1.4 1.1 1.8 1.3.2.7.2.5h-.3l.6.4.5.4v.2l.2.2 2.9 1.6h-.5l-2-.5h-1.2l.8.7-2.4-.5-1-1-.9-.3 1 2.8.3 1.1 3.4 2.2h-.8l3.2 1.1 6.2.5 3.6 1.7 3.3 1.4 12.2 2 2 .8.3.7-.2.3h1.4l5.3 1.1 3.8 1.2.6.6-1.7.6 1.1 1.1h-1.2l1.2.3-.2.6-4.9-.8-3.3-1.6-1.8-.5-5.6-2-1.5-.2 4.1 1.8 1.8.4 4.7 2 8 1.7-.7.2-4.8-.7 2.5.6 2.2.2 3.6 1.7v1.4h-.7l-1.4-.8-3.4-1v.4l1.3.2.7.5-1.4-.2 2.3 1.1-1.5.3-6.5-2.3-1.5-.2 1.4.6 2.7 1.1 5.1 1.3.7.7.3-.2 1 .4.5-.3 1.6.7h-2.7l3.1.6v.6l-2.1.2-.8.2-3.3-1.4.3-.2-1.5-.4.2.4-1.9-.7v-.6l-1.4-.6-1.4-.2-1 .3-1.8-.7-1.7-.2-1.3-1 .6.7h-1.5l1.5.5h2.8l2.3.8.7-.5.8.6.9 1.1 2.5.5-.7.3h1.4l1.9.6-.4.5h.8v.3l-1.5.5.3.5.8-.8 2.1-.2h1.4l.5.6-1.1.2h1.8l.7.2-.9-1.3.5-.2 2.1.5.4.4 1.6-.2 2.8.3 3.7 4.3h-.5v-.5l-1.6-1.4-.4 1.9h-.9l-.9-.6.5.6h-1.7l-4.4-.3-3.7-.2h-1.5l-8.3-.3h-.1l-6.1-.4-3.5-.2-10.9-.8-3.3-.3-3.7-.3-6.3-.7-3.1-.4-6.3-1-1.3-.2-7.4-1.3-1.5-.3-5.8-1-4.2-.7-6-.8h-.5l-7.5-1-3.4-.5-4.3-.5h-1.2l-8-.5h-5.8v-.3l-3.1.2h-1.6v.3l-4 .5-1.1.2-1.5.2-5.7.7-4.2.5-2.4.3-3.9.4h-1.3l-3.1.4-3.5.3.3-.2 1.4-.7h1.1l.8-.2v-.7l.8-.4 1.8-.5 1.1-.2v-.2l-.4-.3.3-.9h.3l1.6-.3.9-.5v-.4l-.5-.4.7-.4 1.3-.5-.2-.3h-.3v-.2l2-1.2h.3l2.1-1 .9-.3.8-.6 2.7-3.3h.6v.2l-.2.2v.2h1.6l.5.3h2.3v-.2h1.9l.9.2 1.5-.3.3-.4v-.2h.3l.7-.4-.2-.3.2-.2 1.5.3 2.1.3.6-.5 1.8-.2.3-.2h1l.8-.4h-.1l-1.3-.3v-.3h1.1l.4.2h1.6l.5-.7.3-.3h.9l.5.3h1v-.3h1.4l-.4-.3h-1l-.4-.3 1-.2.2-.2-1-.2h-1.4l.4-.4-.5-.2.3-.2-.4-.2.4-.4h-.2l.6-.2v-1.3l.4-.4.6-.4v-.4l-.2-.2v-.3h-.3v-.3h-.1l.8-.8.5-.3h-.6l.2-.4h.5v-.4l.5-.4-.4-.5.4-.3v-.2l.3-.5h1.8l1.5.5 2.5-.4v-.4l.3-.4.4-1.7h.7l-.3-.4.4-.6v-.3l.4-.2.6-.6 3.2.4-.2-.9-.5-.6.8-.5.2-.2h.2l.2.2.7-.3.5-.4.2-.4h.7l.8-.7h-.4l.4-.4.7-.6.3-.3.7-.2.2-.4.6-.4-.5-.2v-.2l.8-.6h-.1l2.1-1.8h-.4l.6-.5 1.5-1.8.6.4.6.3 4.2.8 5.1 1.5v-.2l-1-1.2-.5-1.1-.7-.7.5-.7 1.5-.3h4.1l.4.5 1.3.3.9.4.3.2.2 1-.8.5.7 1 1 .3.8.6.8.4h2.3l.6.2 1.9 1v1.7l2.2.4z" fill="#d9d9d9"/><path d="m567.5 222-1.2 1.2-.8 1.2-1.1.3.9-.5h-.8l.7-.3 1.6-1.8h.7z" fill="#d9d9d9"/><path d="m564.4 222.7-5.1 4.7.8.2-2.3 1.1 1.3.4h-1.9l-.5.6 1.3.2-2.5.3v.5l.8.2h-.9l-1.5.5v2.5h-.9l-1.9-2.1 1.2-1.9h-.7v-.5l.4-.4 1.6.2-1.9-.2.2-.3h1.1l-.5-.2 2.1-1.3v-1l2.1-.4v-.4l-1.7-1.1h2v-.5l.5-.4z" fill="#d9d9d9"/><path d="m267.7 162.1v1l.4 1 .3.8.4 1.1.8 1.2.7 1.1 1 1.2.4.5v.3l-.2.2v.4l1.3 1.2.3.7.2.6.9.8 2.1 1.8.8.9 1.1.6.6 1 .5.6 1.5 1.1 1.7 1.2 1.2 1.1.6.9v.4l.2.5v.8l.4.8-.3.4v.3l.6 1.6.7 1 .9.4h.7l1.3-.7 1 .3 1.4 1 .7.2.6.3 2 1.3.4.4-.2.4-.3.2h-.6l-.7.5v.5l.3.7v.7l-1.1.4-.3.3v.2l-.5 1.1-.6.3-.3.3v.5l.2 1.3.5.8.8.6.6.9.8.8 1.3.9.3.4 1.4 1 .6.5 1 .4-.3.6.8.7.7.3h.6v-.2h.2l2.3 1.6.7.7.3.4.2.6 1.6 1 1.1.5v.2l-.2.4v.5l-.3.5.6 1.2.8.7.5.7-.2.7h-1.2l-.2.2v.6l.4.4.4.2v.4l.5.9.3.4.7.7v.6l1.2.9.5.3h.4v-.2l-.7-.7.2-.3h.3l.3.2.4.7.5.3.2.6 1.1.3.4.2v.3l-.6.8h-.8v.3l.6.3v.4h-.9l-.4.3.5.6-.2.2h-.4v.5h-.5l-.7-.2-.8-.7-.3-.2h-.5l-.6 1h.1l-.5.4h-.4l-.4-.3.2-.3h-.1l.2-.2-.2-.3-.2-.2-.6-.2h-.6v.3l.5.4.3.4-.5.2.4.6v.5h-.4l-1-.4h-.4l.3.4 1.1.6v.2h-.1l-1.2-.2-.8-.4h-.3l.3.3.9.7.5.5v.5h-1.4v.6h-.5l-3.4-1.2-4-1.6-1.1-.5.6-.8h.9v-.3h1.2l.2-.4h.6l.2-.2-.3-.4.2-.3v-.2l-.4-.3-.5-.3v-.5h-.2v-.4l-.9-.4-4-1.6-2.4-1-3.3-1.5-2.8-1.3-.4-.2-2.3-1.1-4.3-2h-.2l-3.7-1.8-2.5-1.2-.7-.4-4.4-2.1h-.3l-2.6-1.3-2.5-1.2-2.1-1-4.7-2.1-1.5-2.6-.7-1.3-1.8-3.3-.5-.9-1.7-3.6-.2-.4-1.4-3.6v-.4l-1.2-4.2v-.3l-.9-4-.2-.9-.6-3.1-.2-1.2-.5-2.5-.2-.8v-.5l-.3-.2-.3-.3h-.4l-.5-.5-.3-.3-.3-.6-.5-.4-.3-.5v-.7h-.2l-.3-.4-.3-.4-.5-.4v-.3l-.6-.7-.2-.4.3-.2-.2-.5v-.4h.3v-.5h.1l.2.2h.4v-.2h-.5l-.2-.2h.2v-.4h-.7v-.2l-.2-.5h-.8v.2h-.5l-.5-.6h-.3l-.2-.4h-.3l-.7-.8-.4-.4h-.2l-.2-.2h-.2v-2.2h.1v-.2l-.3-.3-.4-.6-.2-.5v-.2l-.7-.6-.5-.6h-.5v-.2l-.2-.2-.2-.4-.7-1v-.3h.1v-.3h-.2v.4l-.3-.2-.2-.2v-.4l2.7.7 1.3.4 2.5.7 2.4.6 1.4.4 2.3.6 1.9.4 2 .4 2 .4 1.7.3 2.3.4 3.1.5h.6l2.4.3 1.6.2 2.4.3 2.2.3.5.3.4.2.2.5 1 .4.4.5.6.4.3.4.6.2v.2h.2l.3.4.4.2.3.3h.2z" fill="#e6e6e6"/><path d="m168.5 182.5 2.6 11 1.3 10.6.2 3.7-.2 8.3-.6 6.1-.8 4.7-.7 3.4-5.1 17.5-11.4 6.2-5 1.3-1.8-1.1-11.7-5.3-15.3 3.9 1.4-2.1 2.5-2.7.3-.3.4-.3 1.6-.9v-.2l.6-.4v-.2h.2v-.2l.3-.2v-.3l.2-.2v-.2l.3-.5 1.3-1.3.4-1.4.4-.8-.5-.3-.6.3-.9.8-.4.2h-.1l-.4.3-.4-.5.2-.5.9-1.2.4-1v-.2l.4-.6h-.8l.9-1.2v-.8l1.4-1 .4-.5.3-.6.5-.6.3-.5 1.2-1.6v-.3l.4-.9.2-.8v-.2l.8-.9v-.5l.2-.6v-.9l.2-.4v-.3l.7-1.5-.3-.3.2-.3 1.5-2.1.3-1.1.3-.6 1.1-1.4.5-.9.5-.6 1.2-2.2.2-.2v-1.8l-.6-.5h-.2v-.4l-.2-.3h-.4v-.4l.3-1.4v-1l-.2-.3.2-.3v-3h-.2v-1.9l-.4-.9.2-1.1.2-.6v-1.3h.1l.2-1.2.5-.9v-1.5h.2v-.2l.2-.8v-9.4l.2-.6v-6.5l.2-1.9.2-.9v-2l.3-.2v.2h.2l.2.8v.2h.2v2.1l.2 1.4v.2h.3v-1.3l.3-.8v-.3l-.3-8.6v-2.2l5.6 5.1 1.9 1.1 1.6 1 4.5 2.5 3.1 1.9 1.3.8.2.3 2.3 1.5z" fill="#d9d9d9"/><path d="m205.8 192h.1l3.2-.5 3-.4h.7l1.8-.2 3-.3h.5l2.4-.2h7.4l1.6.2 1.8.3 1.7.3 2.1.5 1.3.3 2.9.8h.3l1 .4 1.6.5.7.3 2.2.9h.3l3.3 1.5 1.8 3.3.7 1.3 1.5 2.6.2.2 2.9 4.6.5.8 2.9 4.9.9 1.6 1.7 3.3 2.5 6.1 1 2.5 1.4 3 2.3 4.4 2.4 4 3.4 5.3h-.1l-.2-.2v.2l-.2-.4h-.2l-.2-.3h-.2v-.2h-.1l-.4-.4v.2h-.2l-.3-.3h-.2l-.5-.3h-.2v-.2h-.1v-.3h-.2v-.3h-.2v.2l-.2-.2h-.3l-.5-.5-.4-.3v-.2l-.2-.2h-.2l-.3-.4-.2-.2-.3-.3h-.1l-.4-.3h-.2l-.2-.3-.3-.3-.2-.4.2.5v-.2l-.2-.4h-.4l-.3-.4h-.6l-.9-.5v.4l.3.5-.3-.4.3.5h-.1l-.4-.3.3.5-.9-.2-.3-.4h-.2l-.3-.3h-.3l-.4-.6-.4-.2.2.3h-.2l-.3.3-.5-.2v.2l.4.5-.3-.3v.3h-.1l-1.1-1h-.1v.4h-.1l-.3-.3.2.3v.2l-.2-.2v.2h-.4v.2l-.4-.2h-.1v.4h.1v-.2h.1v.4l.2.5v.2h-.2l-.7-.4v.2l.4.9v.4l-.5-.7-.8-1h-.4l-.2-.2-.3-.5-.5-.2-.4-.3-.3-.4v-.6l-.7-.4.4 1v.2h-.2l-.7-.7h-.1v.2h-.2l-.3-.4-.4-.7-.3-.4-.3-.2v.4h-.2l.6 1.2v.6l-.5-.3v.4l.3.3v.3l.6 1.2v.2h-.4l-.5-.5-.7-1.2v-.8l-.5-.7h-.5v.8l-.2-.3-.5-.4.2.5v.6l-.3.2-.4-.3-.4-1v-.2h-.1l-.3-.2-.2.2h-.1l-.2-.3-.4-.9-.6-.3v.9h-.5v.9l-.2.6h-.1l-.4-.3-.4-.2-.3-.3v-.5l-.2-.3v-.4l-.4-.5-.2.3h-.2l-.3-.2-.6-1.1-.3-1.1-.2-.2v.6h-.8l-.4-.3h-.2v.9h-.1v.5l-.4-.2-.6-.6-.3-.6h-.4l-.2.2h-.2v.3h-.5l-.3-.2-.7-.2-.6-.5-.4-.2-.3.2h-.4l-.4.2h-.4l-.2-.2-.2-.5v-.8l-.2-.4-.5-.5-.2-.5-.5-.2-.4-.5-.2.3v.9h-.2l-.4-.3-.2-.3-.5-.2h-.2v.6h-.8l-.9-.9-.5-.8-.3-.2-.2-.4-.5-.4h-.1l-.2.3h-.2l-.2-2.6-.5-4.1-.4-2.2-.7-3.5-.8-2.9-1.2-4.2-.9-2.8-2.6-6.9-3.5.3h-4l-4.3-.2-3.7-.3h-1.2l-7.6-1.2 2.3-3.8z" fill="#e7e7e7"/><path d="m553.6 240.2.4.5h-1.1l2.5.9.2.3h-.6l1.1.7.3-.7.2.9 2.8 3v.5l-1.1-.4-1.4-1.7-.9-.2.2-.4-1.3-.3 1.3 1.6-.4.3-4.3-2-.7.2 2.5 1.7-.5.3-1.9-.3-1.4-.7.8 1.4-4 .3 1.3.3-1.9.6h-1.5l-1.4-.9.5.4-1.2-.2-1.3-1.6v-1.9l-2.3-1-3.6-.7 4.6 1.3 1 .7-.6.4.2 1.3 2.2 2.3-.7.8h.9l5.6-.3.9.7 2.9-.6 2.4.2 1.3.6-.5 2.3.7 1h-2.2l1.2.4h1.5v-3.1l2.9-.6 1.3.6.6 2.7-.7 1.2-1.9-.5-2.4 3.2-2.1 1.2-5.8-.8-.7-.5 1.2-.8v-.7l-1.4-.4.6.5-2.6.3.4 1.2-1.3.4-8.4-2.4 3 1.9 5.8 1.4 1.7 1.2.3-.6h1.2l.7.8-2.1 1.2.7.5-.2 1.1-.9.6-2.9.7-1.8-.7-.2-.6-2-.4h-1v.3l2.1.2 2 1.7 4.8.3-.6-.9 2.4-.2 1.4-.7.5 1h1l.5-.5.3.3-2.3 2.5-2.5 1.1-7.3.7-1.9-1 .6 1.2-.4.4-6.3 2.9-.8.5-.5-.2.2.3-2.3 1.5-1.7 1.5v1.7h-.6l-1.1-1.8.8 2.7-1.1 1-10.5-.3-1.9-1-10.6-5.8-10.3-5.3-.3-.2-5.8-2.8h-.5l-5-.6-8.6-1-5-.5-5.1-.6-.4-1.7-1.4-1-1.3-1-.8-.7-2 .7-.6-.5.6-.5-.5-.5v-.3l-5.2-.6h-.7l-7.8-.7h-9.3l-.7.2h-.8v.2h-.2l-.4-.4-.8.6h-.5l-1 .3h-.8l-1.5.5h-.8v.4h-.2l-1.4.2-2.2.6-2.2.6-1.8.5-8 .8h-.7l-7.6.7h-1l-2.5.3-4 .3 1.1-3.4 1.3-.9.8.3 1.4-.2 1.1-.5.2-.3v-.5l.4-.8v-.6l1-.9.8-.4.5-.6.9-.2.9-.6 1.8-.4 1-.2 1 .2 1-.2.7-.7 1.2-.6.7-.5h.8l.5-.6v-.5l1-.3.6-.6h.4l.9-.4h1.3l.3-.3.5-1.4-.5-.9.2-.4h.8l1 .4.3-.6-.2-.5v-.2l1.7-1.1h.3l.5.2.4.3v-.3l.4.7h.9l.7-.3.4-.4.6-1.5.4-.4.9-.5h.9l.8-.5h1l1 .7h.7l.8-.6.5-2.4.2-.5 1.1-.8h2.2l-.8-.5-.3-.5v-1.4l-.6-.8v-1.2h5.8l8 .5h1.2l4.3.5 3.4.5 7.5 1h.5l6 .8 4.2.7 5.8 1 1.5.3 7.4 1.3 1.3.2 6.3 1 3.1.4 6.3.7 3.7.3 3.3.3 10.9.8 3.5.2 6.1.4h.1l8.4.5h1.5l3.7.2 4.4.3h1.7z" fill="#9e9e9e"/><path d="m554.6 240.2 1.8.2v.8h-1v-.5l-1.2-.5h.6z" fill="#9e9e9e"/><path d="m557 240.3 2.7 4 4.6 5.2-3-3.1h-.7l-1.1-2.2-3-4.1h.5z" fill="#9e9e9e"/><path d="m561.6 257.7.9-.7 2.6-1.1.5-3.7-.3-1.3-.8-1.1 1.4 1.7-.8 5.1z" fill="#9e9e9e"/><path d="m557.6 259.9h-.2l.6-.7 1.9-1 1.4-.6-.7.5-1.5.6z" fill="#9e9e9e"/><path d="m549.5 267.4-.2-.3h.3l.7-1.2.8-.9.9-.8 1.3-1-2.7 2.8z" fill="#9e9e9e"/><path d="m433.8 227.8v1.2l.6.8v1.4l.3.5.8.5h-2.2l-1.1.8-.2.5-.5 2.4-.8.6h-.7l-1-.7h-1l-.8.5h-.9l-.9.5-.4.4-.6 1.5-.4.4-.7.3h-.9l-.4-.7v-.3l-.4-.3-.5-.2h-.1l-1.7 1.1v.2l.2.5-.3.6-1-.4h-.7l-.2.4.5.9-.5 1.4-.3.3h-1.3l-.9.4h-.8l-.6.6-1 .3v.5l-.5.6h-.9l-.7.5-1.2.6-.7.7-1 .2-1-.2-1 .2-1.8.4-.9.6-.9.2-.5.6-.8.4-1 .9v.6l-.4.8v1.2l-.2.3-1.1.5-1.4.2-.8-.3-1.3.9-1.1 3.4-5.7.4h-3.4l-3.1.2h-.1l-5.4.3h-10.2l-6.4-.6h-.2l-7.2-1h-.7l-5.8-1.1h-.2l-5.8-1.4-5.7-1.6-3.4-.9-2.4-.7-.5-.2-6.2-2h-.5l-3-1.1-3.1-1.1-2.2-.9-4.5-1.8-1-.4-7.6-3.7v-.5l1.2.7v-.3l-.3-.4v-.2h.2l.9.5v-.4l-.3-.4v-.2l-.4-.6-.2-.2-.6-.3-.3-.3v-.2l.6.2v-.3l-.2-.3h.2v-.2l-.2-.2h-.6v.3l-.4-.2-.2-.5h.4l.3-.2h.3l.2.6.2.2h.7l-.9-1.1v-.4h.6l.5.5.2.2h.3l-.6-.6v-.3h1.5l-.2-.4h-.5l-.6-.4-.4-.5v-.2h.5l.7.4h.9v-.3h.5l.4.3h.5v-.2l-1.1-.7-.2-.2h.4l.4.2 1 .6h.2v-.2l-.4-.4-.9-.6-.2-.4h.5v-.6h1.4v-.3l-.5-.5-.9-.7-.3-.3h.4l.8.4 1.2.2h.1v-.2l-1.1-.6-.3-.4h.3l1 .4h.4v-.5l-.4-.6.5-.2-.3-.4.9.3-.2.3.4.3h.4l.5-.4 1.2.3 9 2.3h.3l5.5 1.2h.3l7.9 1.5v-.5l-.3-.6-.8-1.2 3.7.6.4.4 2.7.3h.3l4.7.4 3.6.3h.7l4.7.3h8.7l3.3.2h8.3l2-.2h.4l4.1-.2h3.5l7.9-.5 3.7-.3h1.1l3.7-.3.2-.2 3.5-.3 3.1-.4h1.3l3.9-.4 2.4-.3 4.2-.5 5.7-.7 1.5-.2 1.1-.2 4-.5v-.3h1.6l3.1-.2v.3z" fill="#e6e6e6"/><path d="m274.8 244.6h.2l.2.3v.2h.3l.5.5h.1v-.3h.1l.2.3v.4l.3.3v-.4l.4.4-.3-.4h.2l.3.4v-.5l.2.2.2.4h.2l-.3-.5h.2l.4.5h.3v-.2l.3.2.4.4 3.6 5.3 2.7 4.5 1.4 2.7 1.6 3.6 2.1 5.7 1 3.4.9 3.6.3.2v.2l.4.6.2.4.4.3h.2v.3h.2l.2.4h.1v.4l.2.6.4.3.2.5v.3l.3.4v.3h.2v.9h-.1v.5h-.2v.4l.2.3v.3l.4.5h.3l.2.3h.3v.4h.1l.3.5h.3v.2l.2.2v.5l.3.2v.4h.3l-.3.7v.3l.3.5h.1l.2.3h.2v.5l.3.3v.5l.2.3.2.2.2-.3h.2v1.3h-.2v.5.2l.3.2v.3l.3.3-.4.3h-.2v.3h.1v.9h.3l.2.2v.4h-.2v.3h-.2v.9h1v.2l-.3.4v.5l-.3.4.2.2h-.1v.8l-.4.2v.5h-.1v.3h-.1l.3.3h-.5v.7l.4.4v.4h-.1l.2.3v.3h-.2l-.2.4v1.1l.4.7.4.2v1.3l.2.7h.1v.4.4h-.1v2.1l-.4.8h-1v.4l-.6 2.3 1.7 2.7-2.5-.4-2.9 1.4h-.2l-3 1.4-.7 1-.3-.4.9-1.3 1-.8.8.4.2-.6h-.4l-.3-.2-.4-.5-2.3.3.6-1.9-.2-1.6-.5-.7-.9.4-.4 1.4-.5-.3-2-2.3.7 1.6.6.6v2l1.3 1.2-.7.5h.4v.7h.4v-.1l.4.9.9.6-.9-.5v1.4l.4-.4-.9 2-1-.3.2 1.4h-.3l-.2 2-2.6 2.4-1.5 1v-.4h-1.2l-1.5.5v1.1l2.6-1.1-5 2.9 2.1-1.4v-.9l-2.6.9v-.4h.9l-1-.6.7-2-.5 1.2-.7.3v-.8l-.4 1.2-.4.2-.4-.9v-.9l-.3.2-.3-.8.3 1 .3-.3v1.3l.5.6-1.1.7.5-.6-.3-1-.2.9-.3-.2v-.7h-1.4v-.9l-.3-2 .2 2-.2-.5h-.7v.6l.7 1v1.1l.4-.2 1 1.3-.8.5.5.2.4-.6 1.1 1.3-2.7 1.6-.5-.7v-.9l-.4-.2-.7-1.3-.3.4h.3l.4.7v.3l-.9-.4.8 1v1.4l.3.7-.2.2-1.4 1.3v-2.3l-.6.6.4.5-.2 1.1-.7-.5v-1l-1 1v-.5h-.3l.2.8-1 .7.2.3-.3.3.3-.2h1.2l.9-.7.2 1.5-.8 1.6-.7 1.6-.6-.3h.4l-.8-.8-.8.4v-.5h-1.4l-.2-.4h-.2l.3.4.3.4h1v1l1 1.2h-.4l.4.5-.3.8h.1l.3-1.2.7.4-.7 2-.5 3.9-1-.2-.3-2v1.6l-.7.6-1.8-2.3 1 2.3h-1.1l2.7 1.4 1.3-.4-.5 3 .4 1.5h-1l.3 2.3.8 1 .8 3.3.4 1.5-.5.6.8 1.7.6.5.5 3 1.3 2.1v1.1h.7l.6 1-1.6-.4v.5l-.8.2v1.1h-.5l-1.9-1.8v-.3l-.4-.2-.5-1.1-2.5-1-1.9-.3-.4.4v-.5h-1.3l-1.1-.9.2-.4-.2-.2-.4.3-.3-.8h-.4l-.8-1.2-.4.3-1.3-1.2-.8.2-1.7-2.5h-1l-.4-.6-1.9-.6v-1.2l-.8-1.1v-.6l-1.6-5-1.2-1.7v-.9l-.7-.7v-2.9l-.4-1.3-.9-1 .3-2.9-.4-.3-.4-1.9-1.8-1.1-1.2-2.3-.6-.4-.9-3.5-.6-.4-1.3-2.9-1.3-1.1-.2-.7-.8-.8v-.7l-.7-1.4-.4-1.6.3-.3-.8-.9v-.8l-1.1-1.5-1.3-4.4-.6-.6-.5-2.9-1.2-1.8-.4-1.5-2.4-3-.8-2-2-1.5-.2-1.9-.4.7v-1.3l-.6-.3-.7-1.8v-.4h-.4l-.3-.6-.6.3-.2-.9-.2.7h-.5l-1.2-1h-.4l-.2-.7-.9.2-.5-.8-.8.4-2.7-2.8-.3.6v1.5l-1.1-.7-.4.6-.3-.7-.5.7-.4-.4-.8 4v2.3l-.5 1v1.6l.4.9-1.1.5-1.4 3.9-1.1-.8v.4l-.5-1.4-.4.3-.9-1-.5-1.6-1.8-1.2-.2-.8h-.4v-1l-.2.3-2.3-1.7-1-1.7-.4-1.8-1.5-1.7-1.4-3-.4-2.8-.9-2.3-.3-3.3v-2l-.3-2.1-1-2.8v-.6l-.4-.4-.7-4.4-.9-1.9-.2-1.1-.5-.2-1.4-3.4-.3.3-.3-.9-.6-1.1-.2-1.3-1.2-2.8-.5-2.5-1.2-2.7-1.7-6.8-1.2-2.8-1-7.6-.6-1.7-.3-.8v-4.4l.8.2 1.3.4 3.7 1h.3l3.1 1.6.2.2 1.2 1 2.3 2.6 2.3 3-.7-1.9-2.2-6.9-.8-4.9v-7.9l.4-3.9.7-3.4.3-1.8.4-1.6 1.3-3.1.4-.8 1.2-2.1 1.7-3.2h.2l7.6 1.2h1.2l3.7.3 4.3.2h4l3.5-.3 2.6 6.9.9 2.8 1.2 4.2.8 2.9.7 3.5.4 2.2.5 4.1.2 2.6h.2l.2-.3h.1l.5.4.2.4.3.2.5.8.9.9h.8v-.6h.2l.5.2.2.3.4.3h.2v-.9l.2-.3.4.5.5.2.2.5.5.5.2.4v.8l.2.5.2.2h.4l.4-.2h.4l.3-.2.4.2.6.5.7.2.3.2h.5v-.3h.2l.2-.2h.5l.3.6.6.6.4.2v-.5h.1v-.7h.2l.4.3h1v-.6l.2.2.3 1.1.6 1.1.3.2h.2l.2-.3.4.5v.4l.2.3v.5l.3.3.4.2.4.3h.1l.2-.6v-.7h.1v-.9l.6.3.4.9.2.3h.1l.2-.2.3.2h.1v.2l.4 1 .4.3.3-.2v-.7l-.2-.5.5.4.2.3v-.8h.2l.5.7v.8l.7 1.2.5.5h.4v-.2l-.6-1.2v-.3l-.3-.3v-.2l.5.3v-.6l-.6-1.2h.2v-.4l.3.2.3.4.4.7.3.4h.8v-.2h.1l.7.7h.2v-.2l-.4-1 .7.4v.6l.3.4.4.3.5.2.3.5.2.2h.4l.8 1 .5.7h.3v-.2l-.4-.9v-.2l.7.4h.2v-.2l-.2-.5v-.6h-.1v.2h-.1v-.2h.1l.4.2v-.2h.4v-.2l.2.2v-.2l-.2-.3.3.3h.1v-.4h.1l1.1 1h.1v-.3l.3-.1-.2-.5v-.2l.5.2.3-.3h.2l-.2-.3.4.2.4.6h.3l.3.3.3.4.9.2-.3-.5.4.3h.1l-.3-.5.3.4-.3-.5v-.4l.9.5h.2l.3.4h.4l.2.4v.2l-.2-.5.2.4.3.3.2.3h.2l.4.3h.1l.3.3.2.2.3.4h.2l.2.2v.2l.4.3.5.5h.3l.2.2v-.2h.2v.3h.2v.3h.1v.2h.6l.5.3h.2l.3.3h.1v-.2l.4.4h.1v.2h.4l.2.3h.2l.2.4v-.2l.2.2h.1z" fill="#e6e6e6"/><path d="m288.9 322.5 1.7-2.3 1.4-1.1.3.4z" fill="#e6e6e6"/><path d="m272.3 336.5v-1.7h.7l2-1.9h.7l.3-1 .4.8z" fill="#e6e6e6"/><path d="m270.4 339.9v-1.2l.7-1-.3-.3.3-.7.6-1.3.4.6v.9z" fill="#e6e6e6"/><path d="m267.9 349.9v-1.3l.1-2.6.7-2.2-.2-1.2.7.8.2-1.5.8-1.6-.4-.2h.6l-1.4 4-1 4.6v1.2z" fill="#e6e6e6"/><path d="m272.2 369.5-.7-3.1-.4-1.7-.4-1.2-.3-1-.2-1.1-.4-1.1-.8-1.9-.5-2-.3-1.7-.4-3.2v-1.5h.1v1.8l.3 2.5.5 2.5 1 3.5 1 3.2.7 2.8.6 3.1h-.1z" fill="#e6e6e6"/><path d="m198.3 192.3-2.3 3.8h-.2l-1.7 3.2-1.2 2.1-.4.8-1.3 3.1-.4 1.6-.3 1.8-.7 3.4-.4 3.9v8l.8 4.9 2.2 6.9.7 1.9-2.3-3-2.3-2.6-1.2-1-.2-.2-3.1-1.6h-.3l-3.7-1-1.3-.4-.8-.2v4.4l.3.8-2.5-1.2-3.4 2-2.5 9.6-4.5 4.7 5.1-17.5.7-3.4.8-4.7.6-6.1.2-8.3-.2-3.7-1.3-10.6-2.6-11 3.3 2.7 4.2 2.8.3.2 2.5 1.2h.1l1.7.7 2.4.7 1.3.4 2.2.6h.3l5.9.6h5.5z" fill="#9e9e9e"/><path d="m369.5 259.3-.7 1.6-.5 2.8v1.1l.4 2.6.9 2.2.6 1.4.3.6 1.5 2.7 1.1 1.8.4.7 2.1 3.3 1.9 2.8.6.7.8.4v.2h.5l.3.5.4.2v.3l.4.2v.3l.3.3 1.8.8.4.7.6.3v.3h-.2l.4.2-.5.2v.2l2 .6.8.3h-.5l.3.2h-1.1l.5.3h-1.1l-.2.4.5.4v.5l.5.4.2.4v.8l.3.6 1.1.9h.1l1.1.6.3.3.6.3 2.2.9 1.6.9.7.5.4.5.8.5 1 1 .9.5.7.4.2.4 1.2.7.4.4.7.4.8.2 1.4.6 1.5.8 1.9 1.4-10-.5-10.4-.5-2.9-.3-3.7-.3-5.7-.5h-1.4l-6.6-.7-6.5-.7.6.9v1.1l.4.5 1.6 1.4.5.7 1.4 1.1.7.4.4.5.4.8-.2.9-.2.3.8 1.1.6.9-.2 1.2-1.2.2.4.9-1.8.3-2.4-.7h2.1v-.5l-2.7-2.7-1.9-3.6-2.3-2.5 2.3 6.8-2.6-1.8h-.7l-3-5.7-2.2-4.2-1-1.9-2.4-4.7-1.8-3.8-1.2-2.6-1.8-4.6-.4-1.1-1.7-3.6-2.4-4.5-.5-.8-2.3-3.7-1.7-2.9-1.2-2.3-1.3-3.3v-.3l-.2-2.2v-1.2l.3-1 1.6-2.6h-.3l-.4-.4-.4-.9 3.4.9 5.7 1.6 5.8 1.4h.5l5.8 1.1h.7l7.2 1h.2l6.4.6h4.2z" fill="#e7e7e7"/><path d="m329.8 252.4.4.9.4.4h.3l-1.6 2.6-.3 1v1.2l.2 2.2v.3l1.3 3.3 1.2 2.3 1.7 2.9 2.3 3.7.5.8 2.4 4.5 1.7 3.6.4 1.1 1.8 4.6 1.2 2.6 1.8 3.8 2.4 4.7 1 1.9 2.2 4.2 3 5.7.4.8-.4.3-1.6-1.3-.6.5-2.4-1.9h-.4l.6.4-2.7.8-.4-1-.6-.3v.2l.7.9-.4 1 .2 1h-1.1l-.6-.9-.2-.2-.2-.6h-.1v-.9l-.2-.2h-.1l-.2-.4-.3-.3-.3-.8-.2-.3h-.1v-.2h-.2l-.2-.3h-.1l-.3-.3-.4-.6h-.7l-.7-1.2v-.4h-.1l-.2-.3h-.1v-.2h-.1v-.4h-.1v-.3h.1v-.3h.1l-.4-.7v-.4h.1v-.3h.1l-.3-.5h.1l-.3-.7h.1l-.2-.2h.1l-.3-.4v-.2h.1v-.4h-.9l-3.5-.6h-1.6l-1.7-.2h-.1l-2.3-.3-1.9-1.1h-1l-4.2-.2v-.2l.5-.4v-.4l-.2-.3-.7-.7v-.8l-.2-.5-.4-.4-.2-.5h.8l.3-.2v-.6l-.4-.3v-.5h-.3l-.2-.5v-.2h.2v.4l.2.3.3.2h.1v-.6l-.4-.5-.3-1.1h.3l.3-.3v-.4l-.2-.3h-.8l-.2-.3v-.4h.1l.5.4h.4v-.4l-.3-1v-.5h.2l.5.2h.1v-1h-.9v-1.1l.2-.3h.1l.3.5h.5v-.1l-.4-.5v-.7l-.2-1.2h.4v-.6l-.2-.2-.6-.4-.2-.3h.1l.5.5h.6l-.3-.6.2-.2v-.4l-.2-.6h-.2l-.4-.3.3.4v.4l-.3-.3v.2l-.5-.2-.3-.5-.2-.6.2-.3.2.2v-.3h.2v-.3l.7.5-.3-.8-.3-.3v-.2l.4.2-.5-1.3h-.1l.2.6-.6-.3-.2-.2-.4-.5v-.3l-.2-.4-.3-.3h-.5l-1-1-.3-.5v-.4l1 1h.4l-.2-.3-.9-.6-.3-.4v-.2h.1l-.2-.5v-.2l-.3-.3h-.1l.2.5h-.3l-.9-.9-.2-.3-.6-.8-.7-.5h-.3l-.3-.2-1-1.4v-.5l-1.1-1.3-.7-.6h-.1l.6.6.2.4h-.1l-.4-.2-.4-.4-.6-1-.2-.2v-.2l-.3-.3h.2l-.2-.3-.6-.5-.7-.5-.5-.5.8.5v-.2l-.2-.2-1-1v-.2l-.4-.5-.3-.2h-.2l.4.6-.5-.4-.9-.9-.4-.5-.3-.4v-.4l-.4-.4h-.4l.5.7v.3l-.5-.2-.5-.4h.2l-.2-.2-.4-.4-.6-.4.5.6.2.3h-.4l-.2-.2-.3-.5-.2-.2-.4-.3h-.1l-.3-.3-.4-.5.5.4h.1l-.3-.5-.3-.3-.9-.7-.3-.3-.2-.2h.3l.9.7.5.4h.2l-.3-.3-.3-.3h-.6l-.2-.2-.6-.7.3.2h.2l.4.3.3.2h.1l-.2-.2-.5-.4-.5-.5-.3-.3-.3-.8-.9-.7-.3-.3h.1l.5.4h.2l.3.3.2.2h.1l-.3-.3v-.4h.5l-.3-.7-.4-.2-.5-.4-.4-.4v-.3l1.1.8h.2l-.3-.4-1-.6-.4-.4v-.2l.9.7h.2l-.3-.6v-.2h.1l.5.4-.2-.4-.5-.6.6.2.2.2.2.5h.2l-.3-.4.2-.2v-.5l-.5-.6v-.2h.4l-.8-.8-.3-.3v-.2l-.2-.6.3.3v.4l.2.2h.3l.2-.2-.2-.4-.4-.2-.3-.2-.6-1h.2l.2.3.2.3h-.1l.2.3h.5v-.2l-.4-.6v-.2l-.4-.5v-2.1h.3l.2.2.2.4h.8l.3.2h.2v-.2h.3l.2-.2v-.4l-.8-.7-.2-.3 7.6 3.7 1 .4 4.5 1.8 2.2.9 3.1 1.1 3 1.1h.5l6.2 2 .5.2z" fill="#a6a6a6"/><path d="m393.5 258.2 4-.3 2.5-.3h1l7.6-.7h.7l8-.8v.2l-.3.4.3.2h-.3l-.2.2h-.3v.2h-.5l-.4.4h-.3l-.2.2h-.2l.2.2-.3.2h-.3v.3l-.6.2-.4.3v.5l-.5.4v.2l.3.4h.7l1.4.5h1.5l.2.3h.5l.7.4.6.2.6.3 1 .2h2l.8.2.7.5.3.5.7.4.7.6h.4l.3.6.4.3.3.4 1.8.7 1.5.9.2.3.7.5 1.4.3 1.5.6.8.2h.7l.6.2h.3l1 .4.2.3.9.3 1.1.9h.5l.8.7h.9l.7.3h.5l1.2.3.8.3h.5l.6.2.5.4 1.1.2.6.2v.2l.4.3h-.5l.5.4h-.4l.4.3h.6v.2h.4l.6.3h.4l.9.3h-.3l.2.2-.3.2 1.1.2.3.2h.7l.4.2v.3l.7.3 1 .3 2.3.5.5.2h.6l.4.2h.4l.7.4h.4l.2.5h-.1l1.1.6h.3l-.2.2h.6l.3.3h1v.3l.5.4h.3v.4l.4.2.4.4v.3l.8.4h.8l.3.2h1l.6.2.3.2.8.2 1.3.7.2.5.7.4v.2l.7.4h.3l.3.2.6.6-.4.2.3.4 1 .4.5.8.4.2 5.5 1.5-1.3.5.5.6h-3.6l-1.2-.5h-.6v1.7h-.2l-.6.2-1.4-.6 1.3.6.7-.2v.3h.9l1.2.5 2.6.5v.5l-1.3.4-1.5-.8h-.4l.9.6-3.2-.8 4.9 1.9-.8.4-1.6-.5.8.9 1.5.6v.4l-1.1 1.3h-1.3l-.7.3.9.5-.2-.4 2.3.4v.4l-.7 1h-3.4l.6.5 1.7.5-1.8-.4 2.1 1.1-.7.3 1.3.3-.2.9 2 1.4-.3.5v.2l-1.8-.3-.8-.2h-2.4l-.7-.2h-.6l-.4.2-1-.3h-1.8l-1-.4v.3h-1.2v.4l-.3.3h-1l.4.4h-.4l.6 1.7 1.3.9.4.4v2h-.2l.7 1.1-.2.3-2.4.6h-.3l-.9-1-.6-1.5h-.5l-.6-.4v-.7l-4.4.6h-.7l-2.7.4-2.5.3-9.1.9-3.3.2h-.2l-5.6.3h-22.9l-.7-.7-.7-.2-.5-.6-.4-.7-.7-1.1-1.2-1.2-1.2-.6-.8-.8-.9-.3-.5-.4-1.9-1.4-1.5-.8-1.4-.6-.8-.2-.7-.4-.4-.4-1.2-.7-.2-.4-.7-.4-.9-.5-1-1-.8-.5-.4-.5-.7-.5-1.6-.9-2.2-.9-.6-.3-.3-.3-1.1-.6h-.1l-1.1-.9-.3-.6v-.6l-.2-.4-.5-.4v-.5l-.5-.4.2-.4h1.1l-.5-.3h1.2l-.3-.2h.5l-.8-.3-2-.6v-.2l.5-.2-.4-.2h.2v-.3l-.6-.3-.4-.7-1.8-.8-.3-.3v-.3l-.4-.2v-.3l-.4-.2-.3-.5h-.5v-.2l-.8-.4-.6-.7-1.9-2.8-2.1-3.3-.4-.7-1.1-1.8-1.5-2.7-.3-.6-.6-1.4-.9-2.2-.4-2.6v-1.1l.5-2.8.7-1.6h6.2l5.4-.3h.1l3.1-.2h3.4z" fill="#b3b3b3"/><path d="m481.9 306.6-.8-.3-1.2-1.6-1.1-.3.2-.3.9-.7.7.4z" fill="#b3b3b3"/><path d="m515 277h-.8l.8.2-4.4 1.2-1.9 1.5-1.4 1.5.2 1.3-.3-.3-1.9.2 2 1.6-.2.4-2.3-.5 1.1.3.4.4-1.7.7-3.3-.5-.4.3.9.8-.2.2-2 .8-3-.5 1.1-1.3-1.6.5-.9-.7h-.6l.9 1.2 1.6 1.1.3.7-1.4.5-4-.2-1.2.4-1.2-.3-2-1.8-.6-.2 1.6 2-1.8-.3-1.8-.7.6.6-2.3-.4.2.2 3.9 1.2 1.4.8v.6h-3.2l-1.2-.3-2-1-2.1-1.4v-.3l-1.1-.2-.9-.3 2 1.6 2 1.8-1 1.7-5-.8-.4-.2-.5-.8-1-.4-.3-.4.4-.2-.6-.6-.3-.2h-.3l-.7-.4v-.2l-.7-.4-.2-.5-1.3-.7-.8-.2-.3-.2-.6-.2h-1l-.3-.2h-.8l-.8-.4v-.3l-.4-.4-.4-.2v-.4h-.3l-.5-.4v-.3h-1l-.3-.3h-.6l.2-.2h-.3l-1.1-.6h.2l-.2-.5h-.4l-.7-.4h-.4l-.4-.2h-.9l-.5-.2-2.3-.5-1-.3-.7-.3v-1.6l-.4-.2h-.7l-.3-.2-1.1-.2.3-.2-.2-.2h.3l-.9-.3h-.4l-.6-.3h-.4v-.2h-.6l-.4-.3h.4l-.5-.4h.5l-.4-.3v-.2l-.6-.2-1.1-.2-.5-.4-.6-.2h-.5l-.8-.3-1.2-.3h-.5l-.7-.3h-.6l-.8-.7h-.5l-1.1-.9-.9-.3-.2-.3-1-.4h-.3l-.6-.2h-.7l-.8-.2-1.5-.6-1.4-.3-.7-.5-.2-.3-1.5-.9-1.8-.7-.3-.4-.4-.3-.3-.6h-.4l-.7-.6-.7-.4-.3-.5-.7-.5-.8-.2h-2l-1-.2-.6-.3-.6-.2-.7-.4h-.5l-.2-.3h-1.5l-1.4-.5h-.9l-.3-.4v-1l.5-.4v-.5l.4-.3.6-.2v-.3h.3l.3-.2-.2-.2h.1l.2-.2h.3l.4-.4h.5v-.3h.3l.2-.2h.2l-.3-.2h.2l.3-.4v-.2l1.8-.5 2.2-.6 2.2-.6 1.4-.2h.2v-.4h.6l1.5-.5h.8l1-.3h.5l.8-.6.4.4h.2v-.2h.6l.7-.2h9.3l7.8.7h.7l5.2.6v.3l.5.5-.6.5.6.5 2-.7.8.7 1.3 1 1.4 1 .4 1.7 5.1.6 5 .5 8.6 1 5 .6h.5l5.8 2.8.3.2 10.3 5.3 10.6 5.8z" fill="#d9d9d9"/><path d="m482.7 291.8v-1.6h1l1.6.7z" fill="#d9d9d9"/><path d="m302.8 231.8.2.4.9.6.4.4v.2h-.2l-1-.6-.4-.2h-.4l.2.2 1.1.7v.2h-.5l-.4-.3h-.5v.6h-.9l-.7-.4h-.5v.2l.4.5.6.4h.5l.2.4h-1.5v.3l.6.6h-.3l-.2-.2-.5-.5h-.6v.4l.9 1.1h-.7l-.2-.2-.2-.6h-.1l-.3.2h-.4l.2.5.4.2v-.3h.6l.2.2v.2h-.2l.2.3v.3l-.6-.2v.2l.3.3.6.3.2.2.4.6v.2l.3.4v.4l-.9-.5h-.2v.2l.3.4v.3l-1.2-.7v.5l.2.3.8.7v.4l-.2.2h-.3v.2h-.2l-.3-.2h-.8l-.2-.4-.2-.2h-.3v.3l.4.5.4.6v.2h-.5l-.2-.3h.5l-.2-.3-.2-.3h-.2l.6 1 .3.2.4.2.2.4-.2.2h-.3l-.2-.2v-.7l-.3-.3.2.6v.2l.3.3.8.8h-.3v.4l.5.6v.5l-.2.2.3.4h-.2l-.2-.5-.2-.2-.6-.2.5.6.2.4-.5-.4h-.1v.2l.3.6h-.2l-.9-.7v.2l.4.4 1 .6.3.4h-.2l-1.1-.8v.3l.4.4.5.4.4.2.3.7h-.6v.4l.3.3h-.1l-.2-.2-.3-.3h-.2l-.5-.4.3.3.9.7.3.8.3.3.5.5.5.4.2.2-.3-.2-.4-.3h-.3l-.3-.2.6.7.2.2h.6l.3.3.3.3h-.2l-.5-.4-.9-.7h-.3l.2.2.3.3.9.7.3.3.3.5h-.1l-.5-.4.4.5.3.3h.1l.4.3.2.2.3.5.2.2h.4l-.2-.3-.5-.6.6.4.4.4.2.2h-.2l.5.4.5.2v-.3l-.5-.7h.3l.4.4v.4l.3.4.4.5.9.9.5.4-.4-.6h.2l.3.2.4.5v.2l1 1 .2.2v.2l-.8-.5.5.5.7.5.6.5.2.3h-.2l.3.3v.2l-.8-.3-1.5-.5h-.3l-5.5-1.7-5.7-1.7-2.2-.6-2.1-.6-2-.5h-.3l-2.4-.5-1.8-.4-2.7-4.5-3.6-5.3-.4-.4-.3-.2v.2h-.3l-.4-.5h-.2l.3.5h-.2l-.2-.4-.2-.2v.5l-.3-.4h-.1l.3.4-.4-.4v.4l-.3-.3v-.2l-.2-.3h-.3v.3h-.1l-.5-.5h-.3v-.2l-.2-.3h-.2l-3.4-5.3-2.4-4-2.3-4.4-1.4-3-1-2.5-2.5-6.1-1.7-3.3-.9-1.6-2.9-4.9-.5-.8-2.9-4.6-.2-.2 4.7 2.1 2.1 1 2.5 1.2 2.6 1.3h.3l4.4 2.1.7.4 2.5 1.2 3.7 1.8h.2l4.3 2 2.3 1.1.4.2 2.8 1.3 3.3 1.5 2.4 1 4 1.6.9.4v.4h.2v.5l.5.3.4.3v1.8l-.2.3.3.4-.2.2h-.6l-.2.4h-1.2v.3h-.9l-.6.8 1.1.5 4 1.6z" fill="#9e9e9e"/><path d="m309.9 263.6.2.2.6 1 .4.4.4.2h.1l-.2-.4-.6-.6h.1l.7.6 1.1 1.3v.5l1 1.4.3.2h.3l.7.6.2.9.2.3.9.9h.3l-.2-.5h.1l.3.3v.2l.2.5v.2l.3.4.9.6.2.3h-.4l-1-1v.4l.3.5 1 1h.7l.3.3.2.4v.3l.4.5.2.2.6.3-.2-.6h.1l.5 1.3-.4-.2v.2l.3.3.3.8-.7-.5v.3h-.2v.3l-.2-.2-.2.3.2.6.3.5.5.2v-.2l.3.3v-.4l-.3-.4.4.3h.2l.2.6v.4l-.2.2.3.6h-.2l-.5-.5h-.1l.2.3.6.4.2.2v.6h-.4l.2 1.2v.7l.1.4v.3h-.3l-.3-.5h-.1l-.2.3v.9h.9v.2h-.1l-.5-.2h-.2v.5l.3 1v.4h-.4l-.5-.4h-.1v.4l.2.3h.8l.2.3v.4l-.3.3h-.3l.3 1.1.4.5v1.2h-.1l-.3-.2-.2-.3v-.4h-.2v.2l.2.5h.3v.5l.4.3v.6l-.3.2h-.8l.2.5.4.4.2.5v.8l.7.7.2.3v.4l-.5.4v.2l4.2.2h1l1.9.2 2.3.3h.1l1.7.2h.7l3.5.6h.9v.4h-.1v.2l.3.4h-.1l.2.2h-.1l.3.7h-.1l.3.5h0v.3.4l.4.7h-.1v.2h-.1v.3h.1v.4h.1v.2h.1l.2.3h.1v1.7l.7 1.2h.2l.4.6.3.3h.6l.2.3h.2v.2h.1l.2.3.3.8.3.3.2.4h.1l.2.2v.9h.2l.2.6.2.2.6.9-1.3.2-.6-.9-1.9-.8-1.8-1.9-1.7-.4-.3 1.3-.6 1.9.7 1.7 1.4.7 1.8.6h1.2l.5-1.7 1.2 1 .3-.9.3.7.3-.7.4.8-.3 1.2-1.1.7.5 1.1 1-.2.4 1.3.9.5.3-.4-.4-2.1 1.1-.5.2 1.1.9.8h-.4l.8 1.8v.3l.7.7-.5.2-.9-1-.2 1.3-1.2-.4.8 1.1v.2l1.2.8.5.6-1.3-.8-1-.8h-.1l.9 1.4-1-.5h-.2l.4.6-.5-.2 3 3 .4 1.3 1.6.4.8 1.2h.7l.3 1 .5-.8 1 1.2.5 1.5h.9l-.4.9.9.5v1l-1-1.1.4 1-.3.4.3.8-1.6-2.1v1.1l-.9 1.8.4-3.5-.8-.7v1.3h-.5l-.3-.8-1.1-1.4v-.7l-.3.3-1.6-1.1v-.9l-1.9-.2.2-.9-.9-1-.2-1-1.5-.2-.2-.6h-.3l-1.4-1.3-.2.3-.4-1.1-.4.8.6.9 1.7 1.1v.3l.5 1-.2.4.4.8-.9-.4.8 2h.3l-.2.8-1.3 1.1-.7-1.6v-1.2l-.5-.4v.5l-1-1.3-.4.6-.3-1-.6-.5v.8l-1.5-.3.5.8-.3.6-.4-.6.5 1.6-.6-.4.2.7h-1.1v-.6l-.8-.5-.3.7-.6-.8 1-.5-.2-.6-.9-.3-.7-1.4-1.6-.5v.8l-1.6-1.8-.8-1.5-2.1-1.4-1.2.2-.4-1.9-1.1-.2v-2.1l-2.6.3-.3-.7.2-.7.3.4-.2-.9-1.5-.3v.6l-1.6 1v-.7h-.7l2.1 2.9-2.4.7-3.6-1.3-7.7-4.5-5.4-.4-.8.4-1.3-1.6 1.1-.5v-2.6l.4-.8v-.9h.1v-.4-.4h-.1l-.2-.7v-1.3l-.4-.2-.4-.7v-1.1l.2-.4h.2v-.3l-.2-.3h.1v-.4l-.4-.4v-.7h.5l-.3-.3h.1v-.3h.2v-.5l.4-.2v-.7h.1l-.2-.2.3-.4v-.5l.3-.4v-.2h-.1v-.9h.2v-.3h-1.7v-.4l-.2-.2h-.3v-.2h-.1v-.3h.2l.4-.3-.3-.3v-.3l-.3-.2v-.2-.5h.2v-.2h-.6l-.2.3-.2-.2-.2-.3v-.5l-.3-.3v-.5h-.2l-.2-.3h-.1l-.3-.5v-1.7l.3-.7h-.3v-.4l-.3-.2v-.5l-.2-.2v-.2h-.3l-.3-.5h.3v-.4h-.3l-.2-.3h-.3l-.4-.5v-.3l-.2-.3v-.4h.2v-.5h.1v-.9h-.2v-.3l-.3-.4v-.3l-.2-.5-.4-.3-.2-.6v-.4h-.1l-.2-.4h-.2v-.3h-.2l-.4-.3-.2-.4-.4-.6v-.9l-.3-.2-.9-3.6-1-3.4-2.1-5.7-1.6-3.6-1.4-2.7 1.8.4 2.4.5h.3l2 .5 2.1.6 2.2.6 5.7 1.7 5.5 1.7h.3l1.5.5z" fill="#d9d9d9"/><path d="m324.1 322-2.2-2.1 1.1-.7 1.7 1.5h.8l-.6.6.2.7z" fill="#d9d9d9"/><path d="m333 327.8-1.7-.7-1-1.6.5.5.6-1 .7 1.5.2-.4v.7h-.2l-.2-.4.2.6.5.2v.3l.3-.2z" fill="#d9d9d9"/><path d="m334.5 328.7v-.7h-.5v-1.1l-.3.3.4 1.1-.9-.8-.3-1.2h1.3v-.4l.9 1.2-.3.2v-.5h-.3l.2 1h.3v.7h-.4z" fill="#d9d9d9"/><g fill="#e6e6e6"><path d="m405.1 306.6.5.4.9.3.8.8 1.2.6 1.2 1.2.7 1.1.4.7.5.6.7.2.7.7h22.8l5.6-.3h.2l3.3-.2 9.1-.9 2.5-.3 2.7-.4h1.2l4.4-.6v.7l.6.4h.5l.6 1.5.9 1h.3l2.4-.6.2-.3-.7-1.1h.2v-2l-.4-.4-1.3-.9-.6-1.7h.4l-.4-.4h1l.3-.3v-.4h1.2v-.3l1 .4h1.8l1 .3.4-.2h.6l.7.2h2.4l.8.2 1.8.3v-.2l2.2 1.8v.5l2.5 1.5.3 1.4 1.1.3 1.3 2 5.3 5.5.2 1.6 2.1 1.3.6 1.3 4 3.9.6 1.4 9.7 9.6.7.9-1.9-.7h-.5l3.5 6.9 7.5 9.4-.4.9.7-.5 2.2 2.7 1.2 2.9 3 5.8 1.1 1.7-.8-.7-1.6-.5h-.9l.9.7 1.7.2 1.6 2.1 1.3 3h-.5l1.1 4-1.6 10.6-2.3 7.7-2.5 4.8-3 3.3-1.3 2.2.2 1.5-3.4 3.2-.3.9h-3l-3.6 1.5h-4l-3 .9h-3.5l-.8-.4-1.1-1.3 1-.8 3.5 1.3h1.6l1-.8-1.6-.9-4.6-.7-3.4-3.9 1.6-.8-1.6-1.2-7.5-.9h-5v-1.2l-2.6-1.7-1.2-2.8-1.1-.7-.7-1.8-2.2-.3-.8-.8 1-.4 1.1-2.2 3.2-2-3.5 2.1-1.2 2.4-1.9.6-2.3-3.1.2-.9.2-1.8-1.2-.9 2.8-1.2.4-1.5h-.4l-.6 1.2-3.6 1.2-2.9-1-.7-.4.7.5 2.2 1.4.8 2.2-3.6-.9-1.9-1.7-1.3-.8.9.9.7.8-1-.8-4.3-5-.7-.4.7.8-1.7-1.1.6-1-.9-1-3.2-1.4.9-.5-.6.2-.5-.5 5 .5-.9-.5 2.5-.5-4.1.7-1.7-.3 1.6-.4.3-.5-1.6.6 1.9-1.1-.5-.6 3.6-3.3v-2.2l-1.8-.3-.5 2.4h-.7l-1-1.9-3.2-1.4v.4l-1.4-.6.9.6-.6.7h1.5l-2 .7 4.5.7-1.4.7-.4 2.5-.8.2-3.1-2.1 2 2-.2.6-3-2.9v-5.7l1.6-4.8.6-4.8-1.3-1.7 1.3-.4v-1.6l-3.1-1.5-.4-2.4-6.1.4-.4-1.5-1.5-.5 1.1-.6-1.6-.2-.7-1.7-2.6-1.6.6-3.3-2.3-1.3-.2-4-3.6-4-1.4-.6-1.5.5-1.1-.8-2.5 1-.8 2.6-1.3-.5-.2.9 1.6.5-.7.9-1.8-.6-9.2 3.1-.8-.9-1.8.9-4.2-.7-2.7-.4-.7-2v-1.7h.4l-.3 1.5.6 2.2h.9l.4-2-1.3-2.6-3.8-4.3h1.2l1.4 1.9h1.2l-.3-.4.9.7v-.8h-1.5l-.7-1.9-3.2-1.6 1.1-1.5 1.3.2 1-1.4-3.1.8-.4-.8h-2v1.1l1.4.3v2.1l-4.3-4-7.2-3.9-1.9-.8 1.9.4 2.5.6v-.6l2.4 1.4v-1l-1.8-1.7h-3l-1.1-1.1-2.7 1.2-3.2-.6-6.9-.7 4.2-.8-1.8-1.4v-1.6h-.6l-.2 2.6-1.5-2.5h-.9l.7 1.9-1.4 1.3-2.3-.4-.5-1.5h.9l-.3-.5-1.5-1-.8-1.1.2-.3.2-.9-.4-.8-.4-.5-.7-.4-1.4-1.1-.5-.7-1.6-1.4-.4-.5v-1.1l-.6-.9 6.5.7 6.6.7h1.4l5.7.5 3.7.3 2.9.3 10.4.5z"/><path d="m368.8 317-.4-.2-.5-.4 1.4.6h2.4l2 .3h2.5l3.1.5 1.6.5-3.7-1h-1.7z"/><path d="m511.2 338.7-.7-.6-1.5-1.3-2.2-2-.8-1 .5.2 1.2 1.2z"/><path d="m515.9 345.7h-.8l.6-2.6-.7-1-1.4-.3-.7.6-2.2-.4-.3-1.3 1.1-.4-.5-.6 2.9 1.3-2.4-2.3 4 3.5 1.6 2.4z"/><path d="m516.2 350.4-3.6-4.1.3-3.8.8-.4 1.1.5-.9 2.9.3 2.3z"/><path d="m470.1 395.5-1.5-2.4-1.3-.6 1.2-.2 1.1 1.8 1.2 1.4z"/><path d="m511.4 415.7 6.1-4.4.8-1.1-.6-.3 2.8-1.4-3.2 3.6z"/><path d="m309.5 69.9h-.6l.2-.5 1.1-1 11.4-7.1-2.9 2.6-4.7 2.6-2.8 2.2z"/><path d="m318.5 75.8-1.1-1.2-2 .4v-1.2l1.5-1.1 1.1-1.1 3.6-2.4 6.3-2.6 1.1.2-.5.5-2.6 1.4-4.6 3.6z"/><path d="m287.1 91.4 6.1-3.2 2-1.7 1.5-1.1 6.4-2.5 2.7-1.8 1.4-1.3 2-.7 1-.8.7-1.1 4-2.9.2 1 1.7-.3v.9h1.2v.8l-.4 1.1.5.5 3.9-3.3v.6l2.2-1 2.1-.7 3.7-.4 5 2.8 3.7-1.3 1.3-1 2.1.6 1.4-1.2 1.9.3 1.8-2.8 3.7-3.1h.7l2.9-1.8 4.6-1.5 3.3-2.4 3.5-1.5-.6 1.3.6 1.9-.2.8.5.2 1-.6h1.8l1.9-1.4 1 .8 1.6-1.7 1.2-.6 2.5 2.7-.9 1.1.4.4 1.4-.7 1.2.2-.2.7 1.1.6 1-.2v.7l-2.4.8-3 1-1.8 1.1-1.6-.3-.9.4-.3 3h-1.6l-2.8-.9-4.2.5-1.7.6-1.8 2.8-2.8 1.1-.7.5v.6h-2l-2.7 1.2-.9.9-.7 1.3-2.2 1.7-1.2.6v.3l-1 .5-1.6 1.6-.6-.2.2-.6 2.7-2.4-2.7.7-3.2 2.4-3.7 1.3-3.6 2.8-2.6 2.2-6.6 4.6-.6.7h-1l-.6-.2v-.3l.3-.2.2-.3.3-.2.2-.3 1.5-1.2.2-.2-.5-.2-1.4.8-1 .2-.3.2v-.3h-.1l-.2.2h-.1l.8-.7.2-.5.9-.5.6-.5v-.6l-.2-.2.7-.2.5-.5v-.1l-.4-.4.2-.2.8-.3h-.2l-.3-.3-1.5.2v-.6l-1.1.4h-.6l-.5-.2.3-.2 1.3-.8h-.4l.3-.4h-1.2l-.7.3h-.5l-.7.3h-.4l-.6-.2-.6.3h-.7l-.5.2v-.3h-.8l-.5.3h-.3l-.4.4h-.5l-.3-.2h-.8l-.8.3h-.2l-.2.2h-4.1l-12.4 1.6-2.9.4v-.3l-.4-.2-.2-.5-.7-.5-.7.2h-.6v-.1h-.2l-1.1.5z"/><path d="m385.1 65.7-.7-.3-1.9 1.1-.7-.6-.3.6.2-.8h.7l.3-.8.9-.5-.2-.5h-.6l.9-.7h.7l.9.8h.8l-.3 1.1z"/><path d="m341.4 140.1.3-3-2.2-4-.2-2.2-.8-2.8-1.4-5.1-1.6-4.4-2.8-4.1-.9-2.2 1.8-1.7h.2l.2-.5-.2-1.6h.3l-1-1.1 2.6-2.2 2.6-2.7 1.4-2.4.8-2.3 2.8-1.2.8-.7.3-.9.9-.8 5.5-2.6 4.9-3.9h.6l-3.2 3.6-1 2.5 1.9-.3 1.9-1.8 2.2-2.5 1.3-2.9.7-1 1.4-1.1 3.6-1.9 1.7-.6 1.1-.9h-2.2l-.2-1.4.8-1.1 1.4-1.3.2-.9 3.4-2 3.6.5 1.8-1h1.6l1 .5.5 1 2.3-.9 1.9.5.8-.4 1.6.3 1-.7.2.5 1.3.4-.2.4.4.6 1.3 1.4-1.2.8.2.6-.4.4.5 1 1.4.4.6 2.3-.5 3.4-.6 3.1-2.6 2.1-.8 1.6-.6 1.7-1.9 1.7-2.8 1.3-.8.9-.6 3.4 4 .4.7-.3 2-2.4.6.2.5-.8 1.6-2 .7-1.7 5.4-4.3 1.7-.2 1 .5 1.5 2.4.2 1.5 1.7 8.2 1.2 2.9-.6 1.6v2.3l-.6 2.4-1.7.7.2-.7-1.3.2-1.2 1.2.3.3-1.1 2.3.2.6-.7 1.8-2.5 1.9-.8 3.3.4 1.4-2.5 6.6-4.6 1.1-1.8.4-8.4 1.8h-.4l-6.8 1.7-.6-1.1h-.6l-5.3.9-1.5.2-4.9.9-1.8.3-3.5.6-2.1.3-3.5.4z"/></g></g></svg>