<?xml version="1.0" encoding="utf-8"?>
<!-- Generator: Adobe Illustrator 22.1.0, SVG Export Plug-In . SVG Version: 6.00 Build 0)  -->
<svg version="1.1" id="Layer_1" xmlns="http://www.w3.org/2000/svg" xmlns:xlink="http://www.w3.org/1999/xlink" x="0px" y="0px"
	 viewBox="0 0 1200 1136" style="enable-background:new 0 0 1200 1136;" xml:space="preserve">
<style type="text/css">
	.st0{fill:none;stroke:#D5D5D5;stroke-width:13.9832;stroke-miterlimit:10;}
	.st1{fill:none;stroke:#9E9E9E;stroke-width:4;stroke-miterlimit:10;}
	.st2{fill:none;stroke:#A5A5A5;stroke-width:6;stroke-miterlimit:10;}
	.st3{fill:#999999;}
	.st4{fill:#514361;}
	.st5{font-family:'RobotoMono-Regular';}
	.st6{font-size:40px;}
	.st7{fill:#8C8C8C;}
	.st8{fill:#BABABA;}
	.st9{fill:none;stroke:#AFAFAF;stroke-width:4;stroke-linecap:round;stroke-miterlimit:10;stroke-dasharray:0,9.9971;}
	.st10{fill:none;stroke:#9E9E9E;stroke-width:4.6611;stroke-miterlimit:10;}
</style>
<g>
	<path class="st0" d="M306.3,852.9c-3.9-20.5-6-41.8-6-63.4c0-172,128.8-314,295.2-334.7"/>
	<path class="st0" d="M696,734.5C762,596,713.2,294,598.6,231.8"/>
	<path class="st0" d="M598.6,231.8"/>
	<path class="st0" d="M891.8,847.5"/>
	<line class="st1" x1="221.3" y1="917.5" x2="212" y2="901.4"/>
	<line class="st1" x1="121.8" y1="975" x2="112.5" y2="958.9"/>
	<g>
		<g>
			<polyline class="st2" points="1170.8,1008.3 599,678.2 599,30.7 			"/>
			<g>
				<polygon class="st3" points="1175.7,988.2 1195.6,1022.7 1155.7,1022.7 				"/>
			</g>
			<g>
				<polygon class="st3" points="618.9,36.5 599,2 579.1,36.5 				"/>
			</g>
		</g>
	</g>
	<g>
		<g>
			<line class="st2" x1="26.9" y1="1008.3" x2="598.6" y2="678.2"/>
			<g>
				<polygon class="st3" points="41.9,1022.7 2,1022.7 21.9,988.2 				"/>
			</g>
		</g>
	</g>
	<line class="st1" x1="793.1" y1="790.3" x2="783.1" y2="807.6"/>
	<line class="st1" x1="1084.8" y1="958.7" x2="1075.4" y2="975"/>
	<g>
		<g>
			<text transform="matrix(1 0 0 1 253.4779 1041.8867)" class="st4 st5 st6">node</text>
		</g>
	</g>
	<g>
		<g>
			<text transform="matrix(1 0 0 1 864.5951 302.8701)" class="st4 st5 st6">edge</text>
		</g>
	</g>
	<g>
	</g>
	<g>
		<g>
			<text transform="matrix(1 0 0 1 5.9486 1119.3164)" class="st4 st5 st6">X3 axis</text>
		</g>
	</g>
	<g>
		<g>
			<text transform="matrix(1 0 0 1 1030.2063 1119.3164)" class="st4 st5 st6">X2 axis</text>
		</g>
	</g>
	<g>
		<g>
			<text transform="matrix(1 0 0 1 647.2812 30.705)" class="st4 st5 st6">X1 axis</text>
		</g>
	</g>
	<g>
		<g>
			<text transform="matrix(1 0 0 1 531.0033 581.1992)" class="st7 st5 st6">1</text>
		</g>
	</g>
	<g>
		<g>
			<text transform="matrix(1 0 0 1 751.9094 454.741)" class="st4 st5 st6">4:1</text>
		</g>
	</g>
	<g>
		<g>
			<text transform="matrix(1 0 0 1 279.6939 565.8111)" class="st4 st5 st6">3:2</text>
		</g>
	</g>
	<g>
		<g>
			<text transform="matrix(1 0 0 1 615.7919 1005.4315)" class="st4 st5 st6">2:3</text>
		</g>
	</g>
	<circle class="st8" cx="598.6" cy="453.8" r="17.2"/>
	<circle class="st8" cx="306.9" cy="850.5" r="17.2"/>
	<circle class="st8" cx="696" cy="734.5" r="17.2"/>
	<circle class="st8" cx="987.5" cy="902.4" r="17.2"/>
	<circle class="st8" cx="598.6" cy="231" r="17.2"/>
	<line class="st9" x1="303" y1="888" x2="303" y2="995"/>
	<line class="st9" x1="858.4" y1="295" x2="669.2" y2="295"/>
	<path class="st0" d="M891.3,847.1c-56.6,57.3-135.2,92.8-222.1,92.8c-112.5,0-211.1-59.5-266-148.8"/>
	<circle class="st8" cx="892.3" cy="847.5" r="17.2"/>
	<circle class="st8" cx="403.2" cy="791" r="17.2"/>
	<line class="st10" x1="580.1" y1="565.8" x2="600" y2="565.8"/>
	<line class="st10" x1="580.1" y1="343" x2="600" y2="343"/>
	<line class="st1" x1="580" y1="117" x2="600" y2="117"/>
	<g>
		<g>
			<text transform="matrix(1 0 0 1 654.9564 805.0039)" class="st7 st5 st6">1</text>
		</g>
	</g>
	<g>
		<g>
			<text transform="matrix(1 0 0 1 751.9095 861.2188)" class="st7 st5 st6">2</text>
		</g>
	</g>
	<g>
		<g>
			<text transform="matrix(1 0 0 1 848.8549 917.4375)" class="st7 st5 st6">3</text>
		</g>
	</g>
	<g>
		<g>
			<text transform="matrix(1 0 0 1 945.8041 973.4375)" class="st7 st5 st6">4</text>
		</g>
	</g>
	<g>
		<g>
			<text transform="matrix(1 0 0 1 1040.2064 1030.2109)" class="st7 st5 st6">5</text>
		</g>
	</g>
	<g>
		<g>
			<text transform="matrix(1 0 0 1 520.2533 805.0039)" class="st7 st5 st6">1</text>
		</g>
	</g>
	<g>
		<g>
			<text transform="matrix(1 0 0 1 425.9818 861.2188)" class="st7 st5 st6">2</text>
		</g>
	</g>
	<g>
		<g>
			<text transform="matrix(1 0 0 1 327.2826 917.4375)" class="st7 st5 st6">3</text>
		</g>
	</g>
	<g>
		<g>
			<text transform="matrix(1 0 0 1 221.3002 973.4375)" class="st7 st5 st6">4</text>
		</g>
	</g>
	<g>
		<g>
			<text transform="matrix(1 0 0 1 121.7885 1030.2109)" class="st7 st5 st6">5</text>
		</g>
	</g>
	<g>
		<g>
			<text transform="matrix(1 0 0 1 531.0072 469.6367)" class="st7 st5 st6">2</text>
		</g>
	</g>
	<g>
		<g>
			<text transform="matrix(1 0 0 1 531.0033 359.0312)" class="st7 st5 st6">3</text>
		</g>
	</g>
	<g>
		<g>
			<text transform="matrix(1 0 0 1 531.0033 244.875)" class="st7 st5 st6">4</text>
		</g>
	</g>
	<g>
		<g>
			<text transform="matrix(1 0 0 1 531.0033 137.7188)" class="st7 st5 st6">5</text>
		</g>
	</g>
</g>
<line class="st1" x1="508" y1="750.5" x2="498.7" y2="734.5"/>
</svg>
