<svg enable-background="new 0 0 1268 418" viewBox="0 0 1268 418" xmlns="http://www.w3.org/2000/svg"><g transform="translate(480 400)"><circle cx="-67.4" cy="-187.7" fill="none" r="149.8" stroke="#dbdbdd" stroke-width=".6526"/><text fill="#ccc" font-family="'Helvetica'" font-size="6.5264" transform="translate(-71.0923 -339.2144)">10</text></g><circle cx="412.6" cy="212.3" fill="none" r="195.2" stroke="#dbdbdd" stroke-width=".6526"/><text fill="#ccc" font-family="'Helvetica'" font-size="6.5264" transform="translate(408.9077 15.3842)">20</text><g transform="translate(480 400)"><circle cx="-67.4" cy="-187.7" fill="none" r="173.7" stroke="#dbdbdd" stroke-width=".4711"/><text fill="#ccc" font-family="'Helvetica'" font-size="6.5264" transform="translate(-71.0923 -362.9933)">15</text></g><g fill="#b6adc7" transform="translate(480 400)"><path d="m134.4-241.4c1.8 6.7 3.3 13.6 4.3 20.4l-103 16.3c-.5-3.3-1.2-6.5-2.1-9.7z"/><path d="m85.1-211.4c.8 5 1.3 10 1.6 15l-49.8 2.6c-.1-3.3-.5-6.5-1-9.8z"/><path d="m123-197.3c.3 6.3.3 12.7 0 18.9l-86.1-4.6c.1-3.3.1-6.7 0-9.9z"/><path d="m95.7-178.7c-.3 5.3-.9 10.7-1.7 15.9l-58.3-9.3c.5-3.3.8-6.5 1-9.8z"/><path d="m120.7-157.5c-1 6.3-2.3 12.4-3.9 18.5l-83.4-22.3c.8-3.1 1.6-6.4 2.1-9.7z"/><path d="m107.8-140.2c-1.6 5.7-3.4 11.5-5.6 17.1l-72-27.7c1.2-3.1 2.2-6.3 3-9.4z"/><path d="m63.7-136.8c-1.7 4.3-3.5 8.5-5.6 12.5l-32.4-16.4c1.4-3 2.9-6 4-9z"/><path d="m73.9-115.2c-2.3 4.6-5 9.1-7.8 13.4l-45.7-29.6c1.8-2.7 3.4-5.6 5-8.6z"/><path d="m92.2-83.5c-3.4 5.2-7.2 10.5-11.1 15.3l-67.1-54.3c2.1-2.6 4-5.2 5.9-8z"/><path d="m76.9-70.2c-3.9 4.8-8 9.4-12.4 13.7l-57.8-57.8c2.3-2.3 4.6-4.8 6.7-7.3z"/><path d="m38.1-81.4c-3.5 3.4-7 6.7-10.8 9.8l-28.6-35.2c2.6-2.1 5-4.3 7.3-6.7z"/><path d="m43.6-49.8c-4.6 3.7-9.3 7-14.1 10.3l-39.5-60.9c2.7-1.8 5.5-3.8 8-5.9z"/><path d="m33.4-31.4c-5.2 3.4-10.4 6.4-15.9 9.2l-37-72.8c2.9-1.6 5.7-3.1 8.6-5z"/><path d="m16.6-21.6c-5.5 2.7-11.1 5.2-16.8 7.4l-29.2-76.3c3.1-1.2 6.1-2.5 9-4z"/><path d="m-7.8-30.8c-5.2 2-10.4 3.7-15.8 5.1l-16.4-61.4c3.1-.9 6.3-1.8 9.4-3z"/><path d="m-19.8-7.8c-6 1.6-12 2.9-18 3.8l-12.8-80.8c3.3-.5 6.5-1.2 9.7-2.1z"/><path d="m-41.7-21.8c-5.5.8-11 1.4-16.4 1.7l-3.3-63.4c3.3-.1 6.5-.5 9.8-1z"/><path d="m-58.3-1.8c-6.1.3-12.3.3-18.4 0l4.3-81.5c3.3.1 6.7.1 9.9 0z"/><path d="m-74.6-60.8c-4-.3-8.1-.7-12.1-1.3l3.5-22.4c3.3.5 6.5.8 9.8 1z"/><path d="m-98.5 5c-6.4-1-12.7-2.3-18.9-4l23.5-87.7c3.1.8 6.4 1.6 9.7 2.1z"/><path d="m-113.9-16.8c-5.6-1.6-11.2-3.4-16.6-5.3l26.1-67.8c3.1 1.2 6.3 2.2 9.4 3z"/><path d="m-115.2-65.1c-3.9-1.6-7.8-3.3-11.6-5.2l12.4-24.3c3 1.4 6 2.9 9 4z"/><path d="m-129.8-66.7c-3.9-2-7.7-4.2-11.5-6.7l17.4-26.6c2.7 1.8 5.6 3.4 8.6 5z"/><path d="m-161.9-43.3c-4.7-3.1-9.4-6.4-13.8-10l42.8-53c2.6 2.1 5.2 4 8 5.9z"/><path d="m-156.4-78.7c-3.5-2.9-6.9-6-10.2-9.1l25.7-25.7c2.3 2.3 4.8 4.6 7.3 6.7z"/><path d="m-161-95c-3-3-5.9-6.1-8.5-9.5l21.1-17.1c2.1 2.6 4.3 5 6.7 7.3z"/><path d="m-198.3-82.4c-3.5-4.3-6.7-8.7-9.8-13.4l53.4-34.6c1.8 2.7 3.8 5.5 5.9 8z"/><path d="m-204.8-99.1c-2.9-4.6-5.6-9.1-8.1-14l52.6-26.7c1.6 2.9 3.1 5.7 5 8.6z"/><path d="m-217.3-111.9c-2.5-5-4.7-9.9-6.8-15.1l59.4-22.8c1.2 3.1 2.5 6.1 4 9z"/><path d="m-216-131.2c-1.8-4.8-3.4-9.8-4.8-14.9l52.6-14.1c.9 3.1 1.8 6.3 3 9.4z"/><path d="m-207.9-150.7c-1.2-4.6-2.2-9.1-3-13.8l40.3-6.4c.5 3.3 1.2 6.5 2.1 9.7z"/><path d="m-220.1-164.1c-.8-5-1.3-10-1.6-15l49.8-2.6c.1 3.3.5 6.5 1 9.8z"/><path d="m-230.8-179.8c-.3-5.3-.3-10.7 0-16l59 3.1c-.1 3.3-.1 6.7 0 9.9z"/><path d="m-203.5-195.4c.3-4.4.7-8.7 1.4-13.2l31.4 5c-.5 3.3-.8 6.5-1 9.8z"/><path d="m-188.5-207.4c.7-3.9 1.4-7.7 2.5-11.5l17.5 4.7c-.8 3.1-1.6 6.4-2.1 9.7z"/><path d="m-216.4-228.2c1.3-4.8 2.9-9.7 4.7-14.4l46.6 17.9c-1.2 3.1-2.2 6.3-3 9.4z"/><path d="m-177.5-230.5c1.3-3.5 2.9-6.9 4.6-10.3l12.1 6.1c-1.4 3-2.9 6-4 9z"/><path d="m-196.7-254.1c2.2-4.2 4.6-8.4 7-12.3l34.3 22.3c-1.8 2.7-3.4 5.6-5 8.6z"/><path d="m-215.6-284.7c3.1-4.8 6.7-9.7 10.3-14.1l56.5 45.7c-2.1 2.6-4 5.2-5.9 8z"/><path d="m-162.4-265.4c2.5-3 5.1-6 7.8-8.7l12.8 12.8c-2.3 2.3-4.6 4.8-6.7 7.3z"/><path d="m-198.7-319.8c4.3-4.3 8.9-8.5 13.7-12.4l51.4 63.5c-2.6 2.1-5 4.3-7.3 6.7z"/><path d="m-170-315.1c4.2-3.4 8.5-6.5 13-9.4l32.1 49.5c-2.7 1.8-5.5 3.8-8 5.9z"/><path d="m-143.7-306.1c3.8-2.5 7.8-4.7 11.9-6.8l16.4 32.4c-2.9 1.6-5.7 3.1-8.6 5z"/><path d="m-145.3-341.7c5.1-2.6 10.3-4.8 15.5-6.9l24.4 63.5c-3.1 1.2-6.1 2.5-9 4z"/><path d="m-120.6-327.9c4.6-1.7 9.3-3.3 14-4.6l11.7 43.8c-3.1.9-6.3 1.8-9.4 3z"/><path d="m-104.6-328.3c4.6-1.2 9.1-2.2 13.8-3l6.4 40.3c-3.3.5-6.5 1.2-9.7 2.1z"/><path d="m-91.8-344.8c5.1-.8 10.3-1.3 15.5-1.6l2.9 54.4c-3.3.1-6.5.5-9.8 1z"/><path d="m-73.4-310.3c3.9-.1 7.8-.1 11.7 0l-.9 18.1c-3.3-.1-6.7-.1-9.9 0z"/><path d="m-56.7-382.7c6.4.4 12.9 1 19.3 2.1l-14.2 89.6c-3.3-.5-6.5-.8-9.8-1z"/><path d="m-40.7-353.6c5.5.9 10.8 2.1 16.2 3.4l-16.4 61.5c-3.1-.8-6.4-1.6-9.7-2.1z"/><path d="m-35.2-306.1c3.8 1 7.6 2.2 11.2 3.7l-6.5 17c-3.1-1.2-6.3-2.2-9.4-3z"/><path d="m-3.5-352.9c5.5 2.1 10.8 4.4 15.9 7.2l-33 64.7c-3-1.4-6-2.9-9-4z"/><path d="m21.6-361.5c5.7 3 11.4 6.1 16.8 9.7l-49.4 76.1c-2.7-1.8-5.6-3.4-8.6-5z"/><path d="m17-316.9c4.2 2.7 8.4 5.7 12.3 8.9l-31.4 38.8c-2.6-2.1-5.2-4-8-5.9z"/><path d="m27.2-303.9c3.8 3.1 7.4 6.4 10.8 9.8l-32.1 32.1c-2.3-2.3-4.8-4.6-7.3-6.7z"/><path d="m32.4-286.9c3.3 3.3 6.3 6.7 9.1 10.2l-28.2 22.8c-2.1-2.6-4.3-5-6.7-7.3z"/><path d="m74-301.6c3.8 4.7 7.3 9.5 10.6 14.5l-64.7 42c-1.8-2.7-3.8-5.5-5.9-8z"/><path d="m35.7-254.1c2.1 3.3 4 6.7 5.9 10.2l-16.2 8.2c-1.6-2.9-3.1-5.7-5-8.6z"/><path d="m42.1-242.9c1.8 3.5 3.4 7 4.8 10.8l-17 6.5c-1.2-3.1-2.5-6.1-4-9z"/><path d="m55.6-234.4c1.6 3.9 2.9 8 3.9 12.1l-26.4 7c-.9-3.1-1.8-6.3-3-9.4z"/></g><g fill="#c5c5d1" transform="translate(480 400)"><path d="m134.4-241.4c1.8 6.7 3.3 13.6 4.3 20.4-1.1-6.8-2.6-13.6-4.3-20.4z"/><path d="m85.1-211.4c.8 5 1.3 10 1.6 15-.3-5-.8-10-1.6-15z"/><path d="m123-197.3c.3 6.3.3 12.7 0 18.9.3-6.2.3-12.5 0-18.9z"/><path d="m95.7-178.7c-.3 5.3-.9 10.7-1.7 15.9.9-5.2 1.4-10.6 1.7-15.9z"/><path d="m120.7-157.5c-1 6.3-2.3 12.4-3.9 18.5 1.7-6.1 3-12.2 3.9-18.5z"/><path d="m107.8-140.2c-1.6 5.7-3.4 11.5-5.6 17.1 2.2-5.7 4.1-11.4 5.6-17.1z"/><path d="m63.7-136.8c-1.7 4.3-3.5 8.5-5.6 12.5 2.1-4.1 4.1-8.2 5.6-12.5z"/><path d="m73.9-115.2c-2.3 4.6-5 9.1-7.8 13.4 2.8-4.3 5.4-8.7 7.8-13.4z"/><path d="m92.2-83.5c-3.4 5.2-7.2 10.5-11.1 15.3 3.9-4.8 7.7-9.9 11.1-15.3z"/><path d="m76.9-70.2c-3.9 4.8-8 9.4-12.4 13.7 4.3-4.4 8.5-9 12.4-13.7z"/><path d="m38.1-81.4c-3.5 3.4-7 6.7-10.8 9.8 3.7-3.1 7.3-6.4 10.8-9.8z"/><path d="m43.6-49.8c-4.6 3.7-9.3 7-14.1 10.3 4.7-3.3 9.6-6.7 14.1-10.3z"/><path d="m33.4-31.4c-5.2 3.4-10.4 6.4-15.9 9.2 5.5-2.7 10.9-5.8 15.9-9.2z"/><path d="m16.6-21.6c-5.5 2.7-11.1 5.2-16.8 7.4 5.7-2.2 11.3-4.7 16.8-7.4z"/><path d="m-7.8-30.8c-5.2 2-10.4 3.7-15.8 5.1 5.4-1.4 10.7-3.1 15.8-5.1z"/><path d="m-19.8-7.8c-6 1.6-12 2.9-18 3.8 6-.9 12-2.2 18-3.8z"/><path d="m-41.7-21.8c-5.5.8-11 1.4-16.4 1.7 5.4-.2 10.9-.8 16.4-1.7z"/><path d="m-58.3-1.8c-6.1.3-12.3.3-18.4 0 6.2.3 12.3.3 18.4 0z"/><path d="m-74.6-60.8c-4-.3-8.1-.7-12.1-1.3 3.9.7 7.9 1.1 12.1 1.3z"/><path d="m-98.5 5c-6.4-1-12.7-2.3-18.9-4 6.1 1.6 12.5 2.9 18.9 4z"/><path d="m-113.9-16.8c-5.6-1.6-11.2-3.4-16.6-5.3 5.6 1.9 11 3.7 16.6 5.3z"/><path d="m-115.2-65.1c-3.9-1.6-7.8-3.3-11.6-5.2 3.8 2 7.7 3.8 11.6 5.2z"/><path d="m-129.8-66.7c-3.9-2-7.7-4.2-11.5-6.7 3.8 2.6 7.6 4.8 11.5 6.7z"/><path d="m-161.9-43.3c-4.7-3.1-9.4-6.4-13.8-10 4.4 3.5 9.1 6.9 13.8 10z"/><path d="m-156.4-78.7c-3.5-2.9-6.9-6-10.2-9.1 3.3 3.1 6.7 6.1 10.2 9.1z"/><path d="m-161-95c-3-3-5.9-6.1-8.5-9.5 2.7 3.3 5.5 6.4 8.5 9.5z"/><path d="m-198.3-82.4c-3.5-4.3-6.7-8.7-9.8-13.4 3 4.6 6.3 9.1 9.8 13.4z"/><path d="m-204.8-99.1c-2.9-4.6-5.6-9.1-8.1-14 2.5 4.8 5.2 9.4 8.1 14z"/><path d="m-217.3-111.9c-2.5-5-4.7-9.9-6.8-15.1 1.9 5 4.3 10.1 6.8 15.1z"/><path d="m-216-131.2c-1.8-4.8-3.4-9.8-4.8-14.9 1.4 4.9 3 9.9 4.8 14.9z"/><path d="m-207.9-150.7c-1.2-4.6-2.2-9.1-3-13.8.7 4.7 1.8 9.3 3 13.8z"/><path d="m-220.1-164.1c-.8-5-1.3-10-1.6-15 .5 4.9 1 10 1.6 15z"/><path d="m-230.8-179.8c-.3-5.3-.3-10.7 0-16-.2 5.3-.2 10.7 0 16z"/><path d="m-203.5-195.4c.3-4.4.7-8.7 1.4-13.2-.6 4.4-1.1 8.7-1.4 13.2z"/><path d="m-188.5-207.4c.7-3.9 1.4-7.7 2.5-11.5-1.1 3.8-1.8 7.5-2.5 11.5z"/><path d="m-216.4-228.2c1.3-4.8 2.9-9.7 4.7-14.4-1.8 4.8-3.4 9.5-4.7 14.4z"/><path d="m-177.5-230.5c1.3-3.5 2.9-6.9 4.6-10.3-1.6 3.2-3.2 6.7-4.6 10.3z"/><path d="m-196.7-254.1c2.2-4.2 4.6-8.4 7-12.3-2.4 3.9-4.8 8.1-7 12.3z"/><path d="m-215.6-284.7c3.1-4.8 6.7-9.7 10.3-14.1-3.8 4.6-7.2 9.3-10.3 14.1z"/><path d="m-162.4-265.4c2.5-3 5.1-6 7.8-8.7-2.7 2.9-5.3 5.7-7.8 8.7z"/><path d="m-198.7-319.8c4.3-4.3 8.9-8.5 13.7-12.4-4.8 3.9-9.4 8.1-13.7 12.4z"/><path d="m-170-315.1c4.2-3.4 8.5-6.5 13-9.4-4.4 2.9-8.8 6-13 9.4z"/><path d="m-143.7-306.1c3.8-2.5 7.8-4.7 11.9-6.8-4.1 2.1-8 4.3-11.9 6.8z"/><path d="m-145.3-341.7c5.1-2.6 10.3-4.8 15.5-6.9-5.3 2.1-10.4 4.3-15.5 6.9z"/><path d="m-120.6-327.9c4.6-1.7 9.3-3.3 14-4.6-4.9 1.4-9.5 2.9-14 4.6z"/><path d="m-104.6-328.3c4.6-1.2 9.1-2.2 13.8-3-4.5.8-9.2 1.9-13.8 3z"/><path d="m-91.8-344.8c5.1-.8 10.3-1.3 15.5-1.6-5.2.3-10.4.8-15.5 1.6z"/><path d="m-73.4-310.3c3.9-.1 7.8-.1 11.7 0-3.8-.1-7.7-.1-11.7 0z"/><path d="m-56.7-382.7c6.4.4 12.9 1 19.3 2.1-6.4-1-12.9-1.7-19.3-2.1z"/><path d="m-40.7-353.6c5.5.9 10.8 2.1 16.2 3.4-5.3-1.4-10.7-2.5-16.2-3.4z"/><path d="m-35.2-306.1c3.8 1 7.6 2.2 11.2 3.7-3.7-1.3-7.4-2.6-11.2-3.7z"/><path d="m-3.5-352.9c5.5 2.1 10.8 4.4 15.9 7.2-5.2-2.6-10.5-5.1-15.9-7.2z"/><path d="m21.6-361.5c5.7 3 11.4 6.1 16.8 9.7-5.3-3.5-11-6.7-16.8-9.7z"/><path d="m17-316.9c4.2 2.7 8.4 5.7 12.3 8.9-3.9-3.2-8-6.2-12.3-8.9z"/><path d="m27.2-303.9c3.8 3.1 7.4 6.4 10.8 9.8-3.4-3.4-7-6.6-10.8-9.8z"/><path d="m32.4-286.9c3.3 3.3 6.3 6.7 9.1 10.2-2.8-3.5-5.8-6.9-9.1-10.2z"/><path d="m74-301.6c3.8 4.7 7.3 9.5 10.6 14.5-3.3-5-6.8-9.8-10.6-14.5z"/><path d="m35.7-254.1c2.1 3.3 4 6.7 5.9 10.2-1.9-3.5-3.8-6.9-5.9-10.2z"/><path d="m42.1-242.9c1.8 3.5 3.4 7 4.8 10.8-1.6-3.8-3.1-7.3-4.8-10.8z"/><path d="m55.6-234.4c1.6 3.9 2.9 8 3.9 12.1-1-4.2-2.3-8.2-3.9-12.1z"/></g><g fill="none" stroke="#bfbfbf" stroke-width=".6526"><path d="m423.6 108.3-.5 4.6"/><path d="m434.4 110.1-.5 2.5"/><path d="m444.9 113-.9 2.5"/><path d="m455.1 116.9-1 2.4"/></g><g transform="matrix(.9781476 .20791169 -.20791169 .9781476 636.503616 433.265871)"><path d="m-232.7-268.9-1.4 4.3" fill="none" stroke="#bfbfbf" stroke-width=".6526"/><text fill="#ccc" font-family="'RobotoMono-Regular'" font-size="6.5264" transform="matrix(-.9508 -.3098 .3098 -.9508 -232.7683 -262.7676)">5</text></g><path d="m474 127.9-1.5 2.1" fill="none" stroke="#bfbfbf" stroke-width=".6526"/><path d="m482.5 134.6-1.8 2.1" fill="none" stroke="#bfbfbf" stroke-width=".6526"/><path d="m490.2 142.4-1.9 1.8" fill="none" stroke="#bfbfbf" stroke-width=".6526"/><path d="m497.1 150.9-2.1 1.5" fill="none" stroke="#bfbfbf" stroke-width=".6526"/><g transform="matrix(.74314483 .66913061 -.66913061 .74314483 598.903172 507.060897)"><path d="m-303.5-193.6-1.3 4.3" fill="none" stroke="#bfbfbf" stroke-width=".6526"/><text fill="#ccc" font-family="'RobotoMono-Regular'" font-size="6.5264" transform="matrix(-.9508 -.3098 .3098 -.9508 -301.788 -186.9677)">10</text></g><path d="m507.9 169.8-2.4 1.1" fill="none" stroke="#bfbfbf" stroke-width=".6526"/><path d="m511.9 180-2.5.8" fill="none" stroke="#bfbfbf" stroke-width=".6526"/><path d="m514.7 190.7-2.6.4" fill="none" stroke="#bfbfbf" stroke-width=".6526"/><path d="m516.4 201.4-2.6.3" fill="none" stroke="#bfbfbf" stroke-width=".6526"/><g transform="matrix(.30901699 .95105652 -.95105652 .30901699 529.442719 552.169043)"><path d="m-327.1-93.1-1.4 4.3" fill="none" stroke="#bfbfbf" stroke-width=".6526"/><text fill="#ccc" font-family="'RobotoMono-Regular'" font-size="6.5264" transform="matrix(-.9508 -.3098 .3098 -.9508 -325.4347 -86.4359)">15</text></g><path d="m516.4 223.2-2.6-.3" fill="none" stroke="#bfbfbf" stroke-width=".6526"/><path d="m514.7 234-2.5-.5" fill="none" stroke="#bfbfbf" stroke-width=".6526"/><path d="m511.9 244.6-2.5-.8" fill="none" stroke="#bfbfbf" stroke-width=".6526"/><path d="m507.9 254.8-2.4-1" fill="none" stroke="#bfbfbf" stroke-width=".6526"/><g transform="matrix(-.20791169 .9781476 -.9781476 -.20791169 446.734129 556.503616)"><path d="m-297.3 5.8-1.4 4.3" fill="none" stroke="#bfbfbf" stroke-width=".6526"/><text fill="#ccc" font-family="'RobotoMono-Regular'" font-size="6.5264" transform="matrix(-.9508 -.3098 .3098 -.9508 -295.6483 12.4524)">20</text></g><path d="m497 273.8-2.1-1.6" fill="none" stroke="#bfbfbf" stroke-width=".6526"/><path d="m490.1 282.1-1.9-1.7" fill="none" stroke="#bfbfbf" stroke-width=".6526"/><path d="m482.3 289.9-1.8-1.9" fill="none" stroke="#bfbfbf" stroke-width=".6526"/><path d="m473.9 296.8-1.5-2.1" fill="none" stroke="#bfbfbf" stroke-width=".6526"/><g transform="matrix(-.66913061 .74314483 -.74314483 -.66913061 372.939103 518.903172)"><path d="m-222 76.5-1.4 4.3" fill="none" stroke="#bfbfbf" stroke-width=".6526"/><text fill="#ccc" font-family="'RobotoMono-Regular'" font-size="6.5264" transform="matrix(-.9508 -.3098 .3098 -.9508 -220.407 83.1966)">25</text></g><path d="m454.9 307.6-1.1-2.4" fill="none" stroke="#bfbfbf" stroke-width=".6526"/><path d="m444.7 311.6-.8-2.5" fill="none" stroke="#bfbfbf" stroke-width=".6526"/><path d="m434.1 314.5-.4-2.6" fill="none" stroke="#bfbfbf" stroke-width=".6526"/><path d="m423.4 316.1-.3-2.6" fill="none" stroke="#bfbfbf" stroke-width=".6526"/><g transform="matrix(-.95105652 .30901699 -.30901699 -.95105652 327.830957 449.442719)"><path d="m-121.5 100.1-1.4 4.3" fill="none" stroke="#bfbfbf" stroke-width=".6526"/><text fill="#ccc" font-family="'RobotoMono-Regular'" font-size="6.5264" transform="matrix(-.9508 -.3098 .3098 -.9508 -119.8832 106.8376)">30</text></g><path d="m401.5 316 .3-2.6" fill="none" stroke="#bfbfbf" stroke-width=".6526"/><path d="m390.8 314.4.5-2.5" fill="none" stroke="#bfbfbf" stroke-width=".6526"/><path d="m380.2 311.6.8-2.5" fill="none" stroke="#bfbfbf" stroke-width=".6526"/><path d="m370 307.6 1-2.4" fill="none" stroke="#bfbfbf" stroke-width=".6526"/><g transform="matrix(-.9781476 -.20791169 .20791169 -.9781476 323.496384 366.734129)"><path d="m-22.6 70.3-1.4 4.3" fill="none" stroke="#bfbfbf" stroke-width=".6526"/><text fill="#ccc" font-family="'RobotoMono-Regular'" font-size="6.5264" transform="matrix(.9508 .3098 -.3098 .9508 -29.3059 79.1513)">35</text></g><path d="m351.1 296.7 1.5-2.1" fill="none" stroke="#bfbfbf" stroke-width=".6526"/><path d="m342.6 289.7 1.7-1.9" fill="none" stroke="#bfbfbf" stroke-width=".6526"/><path d="m334.8 282 1.9-1.8" fill="none" stroke="#bfbfbf" stroke-width=".6526"/><path d="m328 273.6 2.1-1.5" fill="none" stroke="#bfbfbf" stroke-width=".6526"/><g transform="matrix(-.74314483 -.66913061 .66913061 -.74314483 361.096828 292.939103)"><path d="m48.2-4.9-1.4 4.4" fill="none" stroke="#bfbfbf" stroke-width=".6526"/><text fill="#ccc" font-family="'RobotoMono-Regular'" font-size="6.5264" transform="matrix(.9508 .3098 -.3098 .9508 41.4378 3.9101)">40</text></g><path d="m317.1 254.5 2.5-1" fill="none" stroke="#bfbfbf" stroke-width=".6526"/><path d="m313.2 244.4 2.5-.7" fill="none" stroke="#bfbfbf" stroke-width=".6526"/><path d="m310.3 233.9 2.5-.6" fill="none" stroke="#bfbfbf" stroke-width=".6526"/><path d="m308.7 223.1 2.6-.3" fill="none" stroke="#bfbfbf" stroke-width=".6526"/><g transform="matrix(-.30901699 -.95105652 .95105652 -.30901699 430.557281 247.830957)"><path d="m71.8-105.5-1.4 4.4" fill="none" stroke="#bfbfbf" stroke-width=".6526"/><text fill="#ccc" font-family="'RobotoMono-Regular'" font-size="6.5264" transform="matrix(.9508 .3098 -.3098 .9508 65.0859 -96.6204)">45</text></g><path d="m308.7 201.2 2.6.4" fill="none" stroke="#bfbfbf" stroke-width=".6526"/><path d="m310.4 190.4 2.5.5" fill="none" stroke="#bfbfbf" stroke-width=".6526"/><path d="m313.3 179.9 2.5.8" fill="none" stroke="#bfbfbf" stroke-width=".6526"/><path d="m317.2 169.7 2.4 1" fill="none" stroke="#bfbfbf" stroke-width=".6526"/><g transform="matrix(.20791169 -.9781476 .9781476 .20791169 513.265871 243.496384)"><path d="m42-204.4-1.4 4.4" fill="none" stroke="#bfbfbf" stroke-width=".6526"/><text fill="#ccc" font-family="'RobotoMono-Regular'" font-size="6.5264" transform="matrix(.9508 .3098 -.3098 .9508 35.3002 -195.5061)">50</text></g><path d="m328.1 150.8 2.1 1.5" fill="none" stroke="#bfbfbf" stroke-width=".6526"/><path d="m335 142.2 1.9 1.8" fill="none" stroke="#bfbfbf" stroke-width=".6526"/><path d="m342.7 134.6 1.8 1.9" fill="none" stroke="#bfbfbf" stroke-width=".6526"/><path d="m351.2 127.7 1.5 2.1" fill="none" stroke="#bfbfbf" stroke-width=".6526"/><g transform="matrix(.66913061 -.74314483 .74314483 .66913061 587.060897 281.096828)"><path d="m-33.3-275.1-1.4 4.4" fill="none" stroke="#bfbfbf" stroke-width=".6526"/><text fill="#ccc" font-family="'RobotoMono-Regular'" font-size="6.5264" transform="matrix(.9508 .3098 -.3098 .9508 -39.9414 -266.2507)">55</text></g><path d="m370.1 116.9 1.1 2.4" fill="none" stroke="#bfbfbf" stroke-width=".6526"/><path d="m380.3 112.9.8 2.5" fill="none" stroke="#bfbfbf" stroke-width=".6526"/><path d="m390.9 110.1.6 2.5" fill="none" stroke="#bfbfbf" stroke-width=".6526"/><path d="m401.7 108.4.3 2.6" fill="none" stroke="#bfbfbf" stroke-width=".6526"/><g transform="matrix(.95105652 -.30901699 .30901699 .95105652 632.169043 350.557281)"><path d="m-133.8-298.7-1.4 4.3" fill="none" stroke="#bfbfbf" stroke-width=".6526"/><text fill="#ccc" font-family="'RobotoMono-Regular'" font-size="6.5264" transform="matrix(.9508 .3098 -.3098 .9508 -140.4652 -289.8917)">60</text></g><circle cx="845.8" cy="212.3" fill="none" r="154.1" stroke="#dbdbdd" stroke-width=".6526"/><text fill="#ccc" font-family="'Helvetica'" font-size="6.5264" transform="translate(842.167 56.663)">10</text><text fill="#ccc" font-family="'Helvetica'" font-size="6.5264" transform="translate(842.167 31.3808)">15</text><g transform="translate(480 400)"><circle cx="365.8" cy="-187.7" fill="none" r="203.9" stroke="#dbdbdd" stroke-width=".6526"/><circle cx="365.8" cy="-187.7" fill="none" r="179.3" stroke="#dbdbdd" stroke-width=".574"/><text fill="#ccc" font-family="'Helvetica'" font-size="6.5264" transform="translate(362.167 -393.0465)">20</text></g><g fill="#a59cb9" transform="translate(480 400)"><path d="m529.3-231.1c1.4 5.3 2.6 10.8 3.5 16.3l-63.8 10.2c-.5-3.3-1.2-6.5-2.1-9.7z"/><path d="m503.4-209c.7 4.4 1.2 9 1.4 13.4l-34.7 1.8c-.1-3.3-.5-6.5-1-9.8z"/><path d="m549.6-196.9c.3 6.1.3 12.1 0 18.3l-79.5-4.2c.1-3.3.1-6.7 0-9.9z"/><path d="m534.6-178.3c-.3 5.6-.9 11.1-1.7 16.6l-63.8-10.2c.5-3.3.8-6.5 1-9.8z"/><path d="m513.1-163.9c-.8 4.8-1.8 9.5-3 14.2l-43.2-11.6c.8-3.1 1.6-6.4 2.1-9.7z"/><path d="m548.2-138.4c-1.7 6-3.5 12-5.7 17.9l-78.9-30.3c1.2-3.1 2.2-6.3 3-9.4z"/><path d="m500.3-135.5c-1.7 4.3-3.7 8.6-5.7 12.8l-35.5-18c1.4-3 2.9-6 4-9z"/><path d="m476.3-130.8c-1.8 3.5-3.8 7-6 10.3l-16.7-10.8c1.8-2.7 3.4-5.6 5-8.6z"/><path d="m532.4-79c-3.7 5.5-7.4 10.8-11.6 16l-73.5-59.5c2.1-2.6 4-5.2 5.9-8z"/><path d="m504.6-74.7c-3.8 4.6-7.7 9-11.9 13.2l-52.7-52.8c2.3-2.3 4.6-4.8 6.7-7.3z"/><path d="m474.5-78.4c-3.5 3.5-7.3 6.9-11.2 10l-31.4-38.6c2.6-2.1 5-4.3 7.3-6.7z"/><path d="m449.9-83.1c-3.4 2.7-6.9 5.2-10.6 7.7l-16.3-25c2.7-1.8 5.5-3.8 8-5.9z"/><path d="m457.5-45.6c-4.7 3-9.5 5.7-14.5 8.4l-29.4-57.5c2.9-1.6 5.7-3.1 8.6-5z"/><path d="m448.9-23.6c-5.5 2.7-11 5.2-16.7 7.4l-28.6-74.2c3.1-1.2 6.1-2.5 9-4z"/><path d="m427.7-25c-5.3 2.1-10.8 3.8-16.3 5.3l-18-67.2c3.1-.9 6.3-1.8 9.4-3z"/><path d="m411.6-14.7c-5.7 1.6-11.5 2.7-17.4 3.7l-11.6-73.7c3.3-.5 6.5-1.2 9.7-2.1z"/><path d="m392.5-15.8c-5.6.9-11.4 1.4-17.1 1.8l-3.7-69.5c3.3-.1 6.5-.5 9.8-1z"/><path d="m375.4 5.9c-6.4.3-12.8.3-19.3 0l4.7-89.4c3.3.1 6.7.1 9.9 0z"/><path d="m358.5-58.7c-4.2-.3-8.4-.7-12.4-1.3l3.9-24.5c3.3.5 6.5.8 9.8 1z"/><path d="m335 3.7c-6.4-1-12.7-2.3-18.8-4l23.2-86.5c3.1.8 6.4 1.6 9.7 2.1z"/><path d="m317.6-10.2c-5.9-1.6-11.6-3.5-17.4-5.6l28.6-74.2c3.1 1.2 6.3 2.2 9.4 3z"/><path d="m317.2-62.6c-4-1.6-8-3.4-11.9-5.3l13.6-26.6c3 1.4 6 2.9 9 4z"/><path d="m302.1-63.9c-4-2.1-8-4.3-11.7-6.8l18.9-29.2c2.7 1.8 5.6 3.4 8.6 5z"/><path d="m267.9-37.9c-5-3.3-9.7-6.7-14.4-10.4l47-57.9c2.6 2.1 5.2 4 8 5.9z"/><path d="m274.7-76c-3.7-3-7.2-6.1-10.4-9.4l28.2-28.2c2.3 2.3 4.8 4.6 7.3 6.7z"/><path d="m270.5-93.1c-3-3.1-6-6.3-8.7-9.7l23.2-18.8c2.1 2.6 4.3 5 6.7 7.3z"/><path d="m230.2-78.7c-3.7-4.4-6.9-9.1-10-13.8l58.3-38c1.8 2.7 3.8 5.5 5.9 8z"/><path d="m223.7-96.1c-3-4.7-5.7-9.5-8.4-14.5l57.5-29.4c1.6 2.9 3.1 5.7 5 8.6z"/><path d="m210.5-109.2c-2.6-5.1-5-10.3-7-15.7l65-24.9c1.2 3.1 2.5 6.1 4 9z"/><path d="m212.5-129.4c-2-5.1-3.5-10.2-5-15.4l57.7-15.4c.9 3.1 1.8 6.3 3 9.4z"/><path d="m221.6-149.6c-1.3-4.7-2.2-9.4-3-14.2l44.2-7c.5 3.3 1.2 6.5 2.1 9.7z"/><path d="m208.5-163.3c-.8-5.1-1.3-10.3-1.7-15.5l54.7-2.9c.1 3.3.5 6.5 1 9.8z"/><path d="m196.9-179.4c-.3-5.6-.3-11.1 0-16.7l64.6 3.4c-.1 3.3-.1 6.7 0 9.9z"/><path d="m226.8-195.6c.3-4.6.8-9 1.4-13.4l34.3 5.5c-.5 3.3-.8 6.5-1 9.8z"/><path d="m243.1-207.7c.7-3.9 1.4-7.8 2.5-11.7l19.2 5.1c-.8 3.1-1.6 6.4-2.1 9.7z"/><path d="m212.2-229.5c1.3-5.1 3-9.9 4.8-14.9l51 19.6c-1.2 3.1-2.2 6.3-3 9.4z"/><path d="m254.6-231.1c1.4-3.5 3-7 4.7-10.4l13.3 6.8c-1.4 3-2.9 6-4 9z"/><path d="m233.1-256c2.2-4.3 4.7-8.5 7.3-12.7l37.6 24.4c-1.8 2.7-3.4 5.6-5 8.6z"/><path d="m211.8-288.5c3.3-5.1 6.9-10 10.7-14.7l61.8 50.1c-2.1 2.6-4 5.2-5.9 8z"/><path d="m269.5-266.4c2.5-3.1 5.2-6 8-8.9l14.1 14.1c-2.3 2.3-4.6 4.8-6.7 7.3z"/><path d="m229-325.3c4.6-4.6 9.4-8.9 14.4-12.9l56.4 69.5c-2.6 2.1-5 4.3-7.3 6.7z"/><path d="m259.8-319.5c4.3-3.5 8.9-6.8 13.4-9.8l35.2 54.3c-2.7 1.8-5.5 3.8-8 5.9z"/><path d="m287.7-308.9c3.9-2.5 8-4.8 12.1-7l18 35.5c-2.9 1.6-5.7 3.1-8.6 5z"/><path d="m285-347.4c5.2-2.6 10.7-5.1 16.2-7.2l26.7 69.7c-3.1 1.2-6.1 2.5-9 4z"/><path d="m311.1-331.9c4.7-1.8 9.5-3.4 14.4-4.7l12.9 48c-3.1.9-6.3 1.8-9.4 3z"/><path d="m327.7-332c4.7-1.3 9.4-2.2 14.2-3l7 44.2c-3.3.5-6.5 1.2-9.7 2.1z"/><path d="m340.6-349.9c5.3-.8 10.7-1.4 16-1.7l3.1 59.6c-3.3.1-6.5.5-9.8 1z"/><path d="m359.8-311.9c4-.1 8-.1 12 0l-1 19.8c-3.3-.1-6.7-.1-9.9 0z"/><path d="m377-391.3c6.8.4 13.4 1 20.2 2.1l-15.7 98.2c-3.3-.5-6.5-.8-9.8-1z"/><path d="m393.6-359.6c5.6.9 11.2 2.1 16.8 3.5l-18 67.2c-3.1-.8-6.4-1.6-9.7-2.1z"/><path d="m397.2-302.9c3.7 1 7.3 2.2 10.8 3.5l-5.3 14c-3.1-1.2-6.3-2.2-9.4-3z"/><path d="m432.2-359.3c5.6 2.2 11.2 4.7 16.7 7.4l-36.2 70.9c-3-1.4-6-2.9-9-4z"/><path d="m456.6-364.8c5.9 3 11.6 6.3 17.1 9.9l-51.4 79.2c-2.7-1.8-5.6-3.4-8.6-5z"/><path d="m452.9-321c4.3 2.9 8.6 5.9 12.7 9.1l-34.4 42.5c-2.6-2.1-5.2-4-8-5.9z"/><path d="m463.2-307.3c3.9 3.1 7.7 6.5 11.2 10l-35.1 35.1c-2.3-2.3-4.8-4.6-7.3-6.7z"/><path d="m468.2-289.4c3.3 3.3 6.4 6.8 9.4 10.4l-30.9 25.1c-2.1-2.6-4.3-5-6.7-7.3z"/><path d="m474.3-275c2.9 3.5 5.5 7.2 8 11l-29.2 18.9c-1.8-2.7-3.8-5.5-5.9-8z"/><path d="m470.3-255.1c2.2 3.4 4.2 6.8 6 10.3l-17.7 9c-1.6-2.9-3.1-5.7-5-8.6z"/><path d="m476.8-243.7c1.8 3.5 3.4 7.2 4.8 11l-18.5 7c-1.2-3.1-2.5-6.1-4-9z"/><path d="m491.3-235.4c1.6 4 2.9 8.2 4 12.4l-28.8 7.7c-.9-3.1-1.8-6.3-3-9.4z"/></g><g fill="#c5c5d1" transform="translate(480 400)"><path d="m558.1-238.8c1.7 6.4 3 12.8 4.2 19.3l-29.5 4.7c-.9-5.5-2.1-11-3.5-16.3z"/><path d="m557.4-217.6c1 6.4 1.7 12.8 2 19.2l-54.7 2.9c-.3-4.6-.8-9-1.4-13.4z"/><path d="m564.5-197.7c.4 6.5.4 13.2 0 19.8l-14.9-.8c.3-6.1.3-12.1 0-18.3z"/><path d="m559.4-177c-.4 6.4-1 12.8-2 19.2l-24.5-3.9c.9-5.5 1.4-11 1.7-16.6z"/><path d="m547.4-158.5c-.9 6-2.2 12-3.8 17.9l-33.7-9c1.3-4.7 2.2-9.4 3-14.2z"/><path d="m562.5-134.5c-1.8 6.5-3.9 12.9-6.3 19.3l-14-5.3c2.2-5.9 4.2-11.7 5.7-17.9z"/><path d="m528.1-124.8c-2.1 5.3-4.4 10.6-7 15.7l-26.6-13.6c2.1-4.2 4-8.5 5.7-12.8z"/><path d="m511.8-112.8c-2.5 4.8-5.1 9.4-8.1 14l-33.4-21.7c2.2-3.4 4.2-6.8 6-10.3z"/><path d="m536.4-76.3c-3.7 5.6-7.7 11.1-11.9 16.4l-3.9-3.1c4.2-5.1 8-10.4 11.6-16z"/><path d="m520-62.2c-4.2 5.1-8.6 10-13.2 14.7l-14.1-14.1c4.2-4.2 8.1-8.6 11.9-13.2z"/><path d="m499-53.7c-4.4 4.4-9.1 8.6-14 12.5l-21.9-27c3.9-3.1 7.7-6.5 11.2-10z"/><path d="m481.2-44.5c-4.7 3.8-9.7 7.4-14.7 10.7l-27.1-41.8c3.7-2.3 7.2-5 10.6-7.7z"/><path d="m468.3-28.9c-5.2 3.4-10.7 6.5-16.2 9.4l-9-17.7c5-2.5 9.8-5.3 14.5-8.4z"/><path d="m455.7-10.3c-5.9 3-11.9 5.6-18 8.1l-5.3-14c5.6-2.2 11.2-4.7 16.7-7.4z"/><path d="m431.3-15.8c-5.7 2.2-11.5 4-17.4 5.6l-2.6-9.7c5.5-1.4 11-3.3 16.3-5.3z"/><path d="m415.5-.4c-6.3 1.7-12.5 3-18.8 4l-2.3-14.7c5.9-.9 11.6-2.2 17.4-3.7z"/><path d="m392.5-15.8c-5.6.9-11.4 1.4-17.1 1.8 5.8-.3 11.5-.9 17.1-1.8z"/><path d="m375.7 10.8c-6.5.4-13.2.4-19.8 0l.3-5c6.4.3 12.8.3 19.3 0z"/><path d="m356.9-28.9c-5.2-.3-10.4-.8-15.5-1.7l4.7-29.5c4.2.7 8.2 1 12.4 1.3z"/><path d="m333.4 13.5c-6.7-1-13.3-2.5-19.8-4.2l2.6-9.7c6.3 1.7 12.5 3 18.8 4z"/><path d="m315.1-.6c-6.3-1.7-12.3-3.7-18.3-6l3.5-9.3c5.7 2.2 11.5 4 17.4 5.6z"/><path d="m301.2-20.9c-5.5-2.1-11-4.6-16.2-7.2l20.4-39.9c3.9 2 7.8 3.8 11.9 5.3z"/><path d="m290.9-41.7c-4.8-2.5-9.4-5.1-14-8.1l13.6-20.9c3.8 2.5 7.7 4.7 11.7 6.8z"/><path d="m259.7-25.4c-5.3-3.5-10.6-7.3-15.5-11.4l9.4-11.6c4.6 3.7 9.4 7.2 14.4 10.4z"/><path d="m246.5-41.2c-4.8-3.9-9.5-8.1-14-12.5l31.7-31.7c3.3 3.3 6.8 6.4 10.4 9.4z"/><path d="m228.2-51c-4.6-4.6-8.9-9.4-12.9-14.4l46.3-37.6c2.7 3.4 5.6 6.5 8.7 9.7z"/><path d="m207-59.9c-4.3-5.2-8.2-10.7-11.9-16.4l25.1-16.3c3.1 4.8 6.5 9.4 10 13.8z"/><path d="m190.4-74.5c-3.8-5.9-7.2-11.9-10.4-18l35.5-18c2.5 5 5.3 9.8 8.4 14.5z"/><path d="m188.3-98c-3-5.9-5.6-11.9-8.1-18l23.2-8.9c2.1 5.3 4.4 10.6 7 15.7z"/><path d="m184.5-118.7c-2.3-6-4.3-12.1-6-18.3l28.8-7.7c1.4 5.2 3.1 10.3 5 15.4z"/><path d="m187.9-140.6c-1.6-5.9-2.9-11.9-3.8-17.9l34.3-5.5c.8 4.8 1.8 9.5 3 14.2z"/><path d="m198.8-161.8c-.9-5.5-1.4-11-1.7-16.6l9.9-.5c.3 5.2.8 10.4 1.7 15.5z"/><path d="m182.1-178.6c-.3-6.1-.3-12.1 0-18.3l14.9.8c-.3 5.6-.3 11.1 0 16.7z"/><path d="m202-196.9c.3-5.3.9-10.7 1.7-16l24.5 3.9c-.7 4.4-1.2 9-1.4 13.4z"/><path d="m208.7-213.2c.8-5.1 2-10.2 3.3-15.3l33.7 9c-1 3.9-1.8 7.8-2.5 11.7z"/><path d="m193-234.6c1.6-5.7 3.4-11.4 5.5-16.8l18.5 7.2c-1.8 4.8-3.5 9.8-4.8 14.9z"/><path d="m212.9-247.1c2-5 4.2-9.9 6.5-14.7l39.9 20.4c-1.7 3.4-3.3 6.9-4.7 10.4z"/><path d="m206.6-269.5c2.7-5.2 5.6-10.3 8.9-15.3l25.1 16.3c-2.6 4-5.1 8.4-7.3 12.7z"/><path d="m199.3-296.6c3.7-5.5 7.4-10.8 11.6-16l11.6 9.4c-3.8 4.7-7.4 9.7-10.7 14.7z"/><path d="m234.8-294.6c3.5-4.3 7.2-8.5 11.1-12.4l31.7 31.7c-2.9 2.9-5.5 5.7-8 8.9z"/><path d="m225.5-328.8c4.7-4.7 9.5-9.1 14.7-13.2l3.1 3.9c-5 4-9.8 8.4-14.4 12.9z"/><path d="m247.3-334.9c4.8-3.9 9.9-7.6 15.1-11l10.8 16.7c-4.7 3-9.1 6.3-13.4 9.8z"/><path d="m274.2-329.8c4.7-3 9.5-5.7 14.5-8.4l11.3 22.2c-4.2 2.1-8.2 4.4-12.1 7z"/><path d="m278.2-360.7c5.7-2.9 11.6-5.5 17.6-7.8l5.3 14c-5.5 2.1-11 4.6-16.2 7.2z"/><path d="m303.9-350.4c5.3-2.1 10.8-3.8 16.3-5.3l5.1 19.2c-4.8 1.3-9.7 2.9-14.4 4.7z"/><path d="m323.9-346.4c5.2-1.4 10.4-2.5 15.8-3.4l2.3 14.8c-4.8.8-9.5 1.8-14.2 3z"/><path d="m336.8-374.4c6.1-.9 12.4-1.6 18.7-2l1.3 24.8c-5.3.3-10.7.9-16 1.7z"/><path d="m373.1-336.5-1.3 24.5c-4-.1-8-.1-12 0l-1.3-24.5z"/><path d="m377.3-396.2c6.9.4 13.8 1 20.7 2.2l-.8 5c-6.7-1-13.4-1.7-20.2-2.1z"/><path d="m396.7-379.3c6.4 1 12.7 2.3 18.8 4l-5.1 19.2c-5.5-1.4-11.1-2.6-16.8-3.5z"/><path d="m406.2-336.5c4.8 1.3 9.7 2.9 14.4 4.7l-12.6 32.5c-3.5-1.3-7.2-2.5-10.8-3.5z"/><path d="m437.5-373.3c6.1 2.3 12.1 5.1 18 8.1l-6.8 13.3c-5.5-2.7-11-5.2-16.7-7.4z"/><path d="m461-373.7c6.1 3.1 12.1 6.7 18 10.4l-5.5 8.4c-5.5-3.5-11.2-6.9-17.1-9.9z"/><path d="m471.8-350.2c5.3 3.5 10.6 7.3 15.5 11.4l-21.9 27c-4-3.3-8.2-6.3-12.7-9.1z"/><path d="m478.9-326.6c4.6 3.8 9 7.7 13.2 11.9l-17.6 17.6c-3.5-3.5-7.3-6.9-11.2-10z"/><path d="m478.6-299.9c3.7 3.7 7.2 7.6 10.4 11.6l-11.6 9.4c-3-3.7-6.1-7.2-9.4-10.4z"/><path d="m516.9-309.3c4 5 7.8 10.2 11.4 15.5l-45.9 29.7c-2.5-3.8-5.1-7.4-8-11z"/><path d="m478.6-260.4c2.3 3.7 4.6 7.4 6.5 11.2l-8.9 4.6c-1.8-3.5-3.8-7-6-10.3z"/><path d="m499-255.1c2.2 4.3 4.2 8.7 5.9 13.3l-23.2 9c-1.4-3.8-3.1-7.3-4.8-11z"/><path d="m519.2-246.1c2 5.1 3.5 10.2 5 15.4l-28.8 7.7c-1.2-4.2-2.5-8.4-4-12.4z"/></g><path d="m856.8 108.4-.5 4.5" fill="none" stroke="#bfbfbf" stroke-width=".6526"/><path d="m867.6 110.1-.5 2.5" fill="none" stroke="#bfbfbf" stroke-width=".6526"/><path d="m878.1 113-.8 2.5" fill="none" stroke="#bfbfbf" stroke-width=".6526"/><path d="m888.3 116.9-1 2.4" fill="none" stroke="#bfbfbf" stroke-width=".6526"/><g transform="matrix(.9781476 .20791169 -.20791169 .9781476 636.503616 433.265871)"><path d="m191.1-359-1.4 4.3" fill="none" stroke="#bfbfbf" stroke-width=".6526"/><text fill="#ccc" font-family="'RobotoMono-Regular'" font-size="6.5268" transform="matrix(-.9509 -.3096 .3096 -.9509 191.0065 -352.8564)">5</text></g><path d="m907.3 127.7-1.6 2.2" fill="none" stroke="#bfbfbf" stroke-width=".6526"/><path d="m915.7 134.7-1.7 1.9" fill="none" stroke="#bfbfbf" stroke-width=".6526"/><path d="m923.5 142.5-1.9 1.8" fill="none" stroke="#bfbfbf" stroke-width=".6526"/><path d="m930.3 150.9-2.1 1.5" fill="none" stroke="#bfbfbf" stroke-width=".6526"/><g transform="matrix(.74314483 .66913061 -.66913061 .74314483 598.903172 507.060897)"><path d="m18.5-483.6-1.4 4.3" fill="none" stroke="#bfbfbf" stroke-width=".6526"/><text fill="#ccc" font-family="'RobotoMono-Regular'" font-size="6.5268" transform="matrix(-.9509 -.3096 .3096 -.9509 20.1702 -476.8796)">10</text></g><path d="m941.2 169.8-2.4 1.1" fill="none" stroke="#bfbfbf" stroke-width=".6526"/><path d="m945.1 180.1-2.5.8" fill="none" stroke="#bfbfbf" stroke-width=".6526"/><path d="m948 190.6-2.5.6" fill="none" stroke="#bfbfbf" stroke-width=".6526"/><path d="m949.6 201.4-2.6.3" fill="none" stroke="#bfbfbf" stroke-width=".6526"/><g transform="matrix(.30901699 .95105652 -.95105652 .30901699 529.442719 552.169043)"><path d="m-193.2-505.1-1.4 4.3" fill="none" stroke="#bfbfbf" stroke-width=".6526"/><text fill="#ccc" font-family="'RobotoMono-Regular'" font-size="6.5268" transform="matrix(-.9509 -.3096 .3096 -.9509 -191.5666 -498.4984)">15</text></g><path d="m949.7 223.3-2.6-.4" fill="none" stroke="#bfbfbf" stroke-width=".6526"/><path d="m947.9 234-2.5-.5" fill="none" stroke="#bfbfbf" stroke-width=".6526"/><path d="m945.1 244.6-2.5-.9" fill="none" stroke="#bfbfbf" stroke-width=".6526"/><path d="m941.1 254.8-2.4-1" fill="none" stroke="#bfbfbf" stroke-width=".6526"/><g transform="matrix(-.20791169 .9781476 -.9781476 -.20791169 446.734129 556.503616)"><path d="m-387.4-418-1.3 4.3" fill="none" stroke="#bfbfbf" stroke-width=".6526"/><text fill="#ccc" font-family="'RobotoMono-Regular'" font-size="6.5268" transform="matrix(-.9509 -.3096 .3096 -.9509 -385.7444 -411.3488)">20</text></g><path d="m930.3 273.6-2.1-1.5" fill="none" stroke="#bfbfbf" stroke-width=".6526"/><path d="m923.4 282.2-1.9-1.8" fill="none" stroke="#bfbfbf" stroke-width=".6526"/><path d="m915.6 289.9-1.7-2" fill="none" stroke="#bfbfbf" stroke-width=".6526"/><path d="m907.1 296.7-1.5-2.1" fill="none" stroke="#bfbfbf" stroke-width=".6526"/><g transform="matrix(-.66913061 .74314483 -.74314483 -.66913061 372.939103 518.903172)"><path d="m-511.9-245.5-1.4 4.3" fill="none" stroke="#bfbfbf" stroke-width=".6526"/><text fill="#ccc" font-family="'RobotoMono-Regular'" font-size="6.5268" transform="matrix(-.9509 -.3096 .3096 -.9509 -510.3339 -238.7846)">25</text></g><path d="m888.1 307.7-1-2.5" fill="none" stroke="#bfbfbf" stroke-width=".6526"/><path d="m878 311.5-.8-2.5" fill="none" stroke="#bfbfbf" stroke-width=".6526"/><path d="m867.4 314.4-.4-2.6" fill="none" stroke="#bfbfbf" stroke-width=".6526"/><path d="m856.7 316.1-.3-2.6" fill="none" stroke="#bfbfbf" stroke-width=".6526"/><g transform="matrix(-.95105652 .30901699 -.30901699 -.95105652 327.830957 449.442719)"><path d="m-533.6-33.7-1.3 4.3" fill="none" stroke="#bfbfbf" stroke-width=".6526"/><text fill="#ccc" font-family="'RobotoMono-Regular'" font-size="6.5268" transform="matrix(-.9509 -.3096 .3096 -.9509 -531.9567 -27.0579)">30</text></g><path d="m834.8 316.1.3-2.6" fill="none" stroke="#bfbfbf" stroke-width=".6526"/><path d="m824 314.4.6-2.6" fill="none" stroke="#bfbfbf" stroke-width=".6526"/><path d="m813.4 311.6.9-2.5" fill="none" stroke="#bfbfbf" stroke-width=".6526"/><path d="m803.3 307.6 1-2.4" fill="none" stroke="#bfbfbf" stroke-width=".6526"/><g transform="matrix(-.9781476 -.20791169 .20791169 -.9781476 323.496384 366.734129)"><path d="m-446.5 160.4-1.3 4.4" fill="none" stroke="#bfbfbf" stroke-width=".6526"/><text fill="#ccc" font-family="'RobotoMono-Regular'" font-size="6.5268" transform="matrix(.9509 .3096 -.3096 .9509 -453.1191 169.2269)">35</text></g><path d="m784.4 296.6 1.5-2.1" fill="none" stroke="#bfbfbf" stroke-width=".6526"/><path d="m775.9 289.8 1.7-1.9" fill="none" stroke="#bfbfbf" stroke-width=".6526"/><path d="m768.1 282.1 1.9-1.8" fill="none" stroke="#bfbfbf" stroke-width=".6526"/><path d="m761.3 273.6 2.1-1.5" fill="none" stroke="#bfbfbf" stroke-width=".6526"/><g transform="matrix(-.74314483 -.66913061 .66913061 -.74314483 361.096828 292.939103)"><path d="m-273.8 285-1.4 4.4" fill="none" stroke="#bfbfbf" stroke-width=".6526"/><text fill="#ccc" font-family="'RobotoMono-Regular'" font-size="6.5268" transform="matrix(.9509 .3096 -.3096 .9509 -280.5577 293.8123)">40</text></g><path d="m750.4 254.7 2.4-1.1" fill="none" stroke="#bfbfbf" stroke-width=".6526"/><path d="m746.5 244.4 2.5-.8" fill="none" stroke="#bfbfbf" stroke-width=".6526"/><path d="m743.6 233.9 2.5-.6" fill="none" stroke="#bfbfbf" stroke-width=".6526"/><path d="m741.9 223.1 2.6-.3" fill="none" stroke="#bfbfbf" stroke-width=".6526"/><g transform="matrix(-.30901699 -.95105652 .95105652 -.30901699 430.557281 247.830957)"><path d="m-62.1 306.6-1.4 4.4" fill="none" stroke="#bfbfbf" stroke-width=".6526"/><text fill="#ccc" font-family="'RobotoMono-Regular'" font-size="6.5268" transform="matrix(.9509 .3096 -.3096 .9509 -68.8183 315.4324)">45</text></g><path d="m742 201.3 2.6.3" fill="none" stroke="#bfbfbf" stroke-width=".6526"/><path d="m743.6 190.4 2.6.6" fill="none" stroke="#bfbfbf" stroke-width=".6526"/><path d="m746.5 179.9 2.5.8" fill="none" stroke="#bfbfbf" stroke-width=".6526"/><path d="m750.4 169.7 2.4 1" fill="none" stroke="#bfbfbf" stroke-width=".6526"/><g transform="matrix(.20791169 -.9781476 .9781476 .20791169 513.265871 243.496384)"><path d="m132 219.4-1.4 4.4" fill="none" stroke="#bfbfbf" stroke-width=".6526"/><text fill="#ccc" font-family="'RobotoMono-Regular'" font-size="6.5268" transform="matrix(.9509 .3096 -.3096 .9509 125.3584 228.2835)">50</text></g><path d="m761.4 150.8 2.1 1.5" fill="none" stroke="#bfbfbf" stroke-width=".6526"/><path d="m768.3 142.3 1.9 1.7" fill="none" stroke="#bfbfbf" stroke-width=".6526"/><path d="m776 134.6 1.8 1.9" fill="none" stroke="#bfbfbf" stroke-width=".6526"/><path d="m784.5 127.7 1.5 2.2" fill="none" stroke="#bfbfbf" stroke-width=".6526"/><g transform="matrix(.66913061 -.74314483 .74314483 .66913061 587.060897 281.096828)"><path d="m256.6 46.9-1.4 4.3" fill="none" stroke="#bfbfbf" stroke-width=".6526"/><text fill="#ccc" font-family="'RobotoMono-Regular'" font-size="6.5268" transform="matrix(.9509 .3096 -.3096 .9509 249.9465 55.7188)">55</text></g><path d="m803.4 116.8 1.1 2.4" fill="none" stroke="#bfbfbf" stroke-width=".6526"/><path d="m813.6 112.9.8 2.5" fill="none" stroke="#bfbfbf" stroke-width=".6526"/><path d="m824.2 110.1.6 2.5" fill="none" stroke="#bfbfbf" stroke-width=".6526"/><path d="m835 108.4.3 2.6" fill="none" stroke="#bfbfbf" stroke-width=".6526"/><g transform="matrix(.95105652 -.30901699 .30901699 .95105652 632.169043 350.557281)"><path d="m278.2-164.8-1.4 4.3" fill="none" stroke="#bfbfbf" stroke-width=".6526"/><text fill="#ccc" font-family="'RobotoMono-Regular'" font-size="6.5268" transform="matrix(.9509 .3096 -.3096 .9509 271.5698 -156.0083)">60</text></g><ellipse cx="813.7" cy="198.3" fill="#a59cb9" rx="8.4" ry="8.4"/><text fill="#ccc" font-family="'RobotoMono-Regular'" font-size="10.438" transform="translate(829.2754 201.9721)">winter</text><ellipse cx="813.7" cy="224.4" fill="#c5c5d1" rx="8.4" ry="8.4"/><text fill="#ccc" font-family="'RobotoMono-Regular'" font-size="10.438" transform="translate(829.2754 227.9955)">summer</text></svg>