<svg height="256" viewBox="0 0 256 256" width="256" xmlns="http://www.w3.org/2000/svg"><path d="m13.7 242v-240.2h-11.8v252h252v-11.8m-143.9-94.4v-109.5a14.7 14.7 0 1 0 -9-.1v109.7a14.6 14.6 0 1 0 9-.1zm-4.3 20.6a6.7 6.7 0 0 1 0-13.3 6.7 6.7 0 0 1 0 13.3zm117.5-9.3v-54.3h-.2a14.6 14.6 0 1 0 -8.4 0h-.4v54.3a14.7 14.7 0 1 0 9 0zm-4.5 20.5a6.6 6.6 0 1 1 6.7-6.6 6.7 6.7 0 0 1 -6.7 6.6zm-51.8 9.8h.2v-66.3a14.6 14.6 0 1 0 -9 .2v65.8a14.7 14.7 0 1 0 8.8.3zm-4.8 20.4a6.7 6.7 0 1 1 6.6-6.6 6.7 6.7 0 0 1 -6.6 6.6zm-108.5-6.1v-93.5a14.6 14.6 0 1 0 -9 0v93.5a14.7 14.7 0 1 0 9 0zm-4.5 20.6a6.7 6.7 0 1 1 6.7-6.6 6.7 6.7 0 0 1 -6.7 6.6z"/></svg>