<?xml version="1.0" encoding="utf-8"?>
<!-- Generator: Adobe Illustrator 19.2.0, SVG Export Plug-In . SVG Version: 6.00 Build 0)  -->
<svg version="1.1" id="Layer_1" xmlns="http://www.w3.org/2000/svg" xmlns:xlink="http://www.w3.org/1999/xlink" x="0px" y="0px"
	 width="1268px" height="558px" viewBox="0 0 1268 558" enable-background="new 0 0 1268 558" xml:space="preserve">
<g id="Layer_2">
	<g>
		<g>
		</g>
		<g>
		</g>
		<g>
		</g>
	</g>
</g>
<g>
	<polygon fill="#EBE0D4" points="447.482,116.551 444.402,126.877 451.105,133.941 458.351,135.391 464.51,129.413 465.234,123.073 
		456.72,111.298 	"/>
	<polygon fill="#EBE0D4" points="312.891,414.898 315.427,423.774 327.745,422.325 325.209,414.717 	"/>
	<polygon fill="#EBE0D4" points="535.7,355.12 541.134,367.438 553.995,356.207 553.633,350.953 	"/>
	<polygon fill="#EBE0D4" points="1087.106,341.534 1087.106,353.671 1097.07,356.931 1095.62,344.795 	"/>
	<polygon fill="#EBE0D4" points="7.842,339.904 0,335.169 0,356.211 1.321,356.026 	"/>
	<polygon fill="#EBE0D4" points="42.078,394.609 36.825,411.094 50.592,413.087 49.324,401.855 	"/>
	<polygon fill="#EBE0D4" points="14.363,289.183 9.472,300.776 12.914,303.856 6.393,312.732 4.4,326.499 9.11,333.926 
		16.899,326.68 17.262,315.268 25.413,308.022 30.123,297.878 30.304,284.111 20.16,290.27 	"/>
	<polygon fill="#EBE0D4" points="3.313,473.77 6.03,479.205 21.065,458.735 21.065,452.938 7.842,459.641 	"/>
	<polygon fill="#EBE0D4" points="815.21,25.8 823.72,51.34 822.27,65.65 808.5,91.92 785.32,120.72 763.22,138.65 756.33,142.64 
		742.93,160.21 732.97,177.6 736.05,189.01 746.55,203.68 731.16,209.12 733.15,221.98 719.38,227.77 707.06,228.32 705.07,238.46 
		687.5,237.38 679.53,230.31 676.99,226.51 664.68,230.13 654.17,229.04 657.07,214.37 662.14,210.38 654.71,199.15 639.31,202.6 
		622.11,214.19 615.4,211.65 586.6,209.66 581.17,207.67 562.51,215.64 548.38,221.62 526.82,223.79 494.58,223.43 478.82,218.36 
		451.65,225.06 444.76,215.28 427.92,205.49 414.15,215.46 402.92,215.28 377.92,222.34 380.82,233.75 376.65,241.18 364.88,244.98 
		350.75,254.58 339.88,268.35 331.01,271.25 311.08,286.1 303.11,294.44 288.98,303.31 286.81,309.11 266.7,312.73 258.18,313.64 
		248.77,326.68 241.16,330.3 235.72,342.26 209.09,346.97 199.31,338.64 194.24,343.71 182.47,346.79 175.58,355.3 179.93,368.16 
		172.32,376.68 176.31,383.38 177.76,399.32 190.26,387 197.32,390.08 214.17,405.3 238.26,393.7 249.31,395.52 260.72,393.89 
		275.03,398.59 289.7,413.45 302.93,420.51 308.54,411.28 316.69,406.38 316.69,390.81 321.77,380.66 320.5,374.14 331.01,363.63 
		339.16,359.29 351.29,360.74 351.11,370.52 356.91,383.38 371.94,380.3 387.16,370.34 406.91,370.34 419.95,363.63 422.3,375.59 
		432.45,358.92 441.69,369.79 453.82,354.4 467.23,357.11 481.9,349.69 494.4,358.74 506.54,361.1 512.33,351.5 530.45,343.89 
		531.71,338.64 548.2,330.48 556,328.31 569.03,324.69 595.66,326.14 617.76,343.35 626.63,346.24 641.67,343.71 645.84,338.82 
		658.88,337.37 666.31,339.9 665.85,350.95 665.58,357.29 654.53,373.42 642.03,383.92 628.45,388.63 638.05,410.37 627.72,418.7 
		633.52,426.49 625,430.11 623.19,442.07 632.61,443.7 640.4,456.38 648.92,458.92 658.15,467.79 655.8,481.56 661.78,487.54 
		682.25,495.87 692.35,497.59 692.37,497.6 696.01,498.22 709.24,492.79 717.75,485 721.92,473.05 735.14,447.14 745.47,443.88 
		749.45,434.64 748.55,425.04 761.95,410.55 776.62,404.03 796.55,398.78 821.37,394.43 825.35,380.84 818.83,373.96 808.32,369.97 
		796.01,359.29 789.12,358.38 784.41,347.33 786.41,336.46 795.64,325.41 800.9,308.75 811.04,303.67 824.81,302.04 818.29,313.28 
		818.29,323.96 827.16,336.82 854.33,336.82 859.95,332.84 867.92,335.56 867.56,344.61 836.76,362.73 850.17,361.82 871.72,355.12 
		885.49,352.58 908.5,353.31 919.91,357.84 930.78,354.4 947.08,356.75 962.12,364 965.38,349.69 966.21,348.81 978.96,335.38 
		982.22,323.78 997.98,315.99 996.35,309.29 1002.51,301.14 1017.73,296.07 1029.14,298.42 1039.83,310.38 1026.97,310.74 
		1024.25,316.72 1021.71,348.96 1024.43,359.65 1030.95,366.35 1042.36,358.2 1058.67,335.19 1064.28,331.57 1063.38,319.43 
		1058.85,315.09 1059.93,299.69 1066.64,297.33 1065.73,284.47 1074.97,278.31 1094.35,274.33 1108.3,278.5 1116.27,288.46 
		1127.32,289.18 1128.05,281.76 1118.99,277.41 1122.61,259.29 1133.84,249.87 1134.39,238.1 1142.36,234.48 1151.41,229.4 
		1165,238.46 1164.09,246.25 1157.03,255.13 1145.8,261.47 1137.65,273.6 1141.81,287.19 1137.47,290.27 1140.73,317.8 
		1138.91,328.85 1147.79,328.13 1154.85,313.46 1166.63,306.57 1170.25,300.6 1181.12,301.86 1197.79,291.18 1199.78,277.77 
		1197.06,267.45 1201.05,253.32 1207.39,243.53 1226.23,227.77 1232.57,228.68 1247.06,221.8 1239.81,212.38 1224.78,185.93 
		1217.71,166.91 1216.44,151.15 1221.88,144.09 1222.78,122.35 1230.03,108.04 1235.1,88.47 1240.9,78.51 1244.88,70.54 
		1257.75,63.11 1262.64,41.38 1262.64,29.42 1266.26,10.04 1265.817,0 1014.646,0 1012.66,3.52 997.8,13.66 977.51,30.87 
		962.12,32.14 957.41,37.21 940.92,46.09 911.4,55.69 891.65,61.85 886.58,77.42 881.14,81.95 862.85,81.59 847.63,71.26 
		845.82,66.56 852.16,55.87 853.79,39.93 844.37,43.19 835.31,40.47 836.22,30.87 841.84,21.09 850.35,26.16 860.67,13.84 
		873.17,13.3 877.34,5.33 876.735,0 829.221,0 823.9,2.61 	"/>
	<polygon fill="#EBE0D4" points="402.558,536.084 421.216,515.071 424.295,498.768 445.127,491.522 446.576,486.45 462.517,479.567 
		477.009,477.755 496.753,484.82 500.92,492.609 523.382,518.513 531.171,491.341 537.149,482.828 539.323,477.393 568.668,458.011 
		569.755,454.569 588.957,446.599 577.726,443.519 583.884,431.02 573.74,418.159 580.986,393.523 558.705,396.24 539.685,383.741 
		529.178,371.242 521.208,375.589 506.897,370.88 488.421,381.024 472.48,393.342 471.393,406.928 465.596,413.811 456.358,420.695 
		436.251,415.804 416.687,422.144 410.347,419.245 405.637,405.478 396.761,393.16 393.5,402.399 376.654,410.55 369.589,421.781 
		363.793,446.055 355.098,452.576 343.685,456.199 333.179,467.068 329.013,475.763 331.368,492.066 344.591,508.188 
		330.824,510.724 334.628,524.491 332.273,529.925 336.983,538.077 333.179,545.504 351.656,550.213 349.836,558 390.659,558 
		393.682,538.439 	"/>
	<polygon fill="#EBE0D4" points="624.642,352.222 614.679,355.12 598.919,367.8 589.5,382.292 582.435,387.364 589.319,400.406 
		614.498,391.53 608.701,377.944 609.788,371.966 	"/>
	<polygon fill="#EBE0D4" points="284.27,542.61 271.59,533.91 275.21,525.76 263.08,514.17 270.68,505.29 265.79,499.31 
		254.02,494.78 242.97,496.05 232.1,492.43 231.74,483.55 242.43,483.37 254.02,477.03 259.27,467.25 259.63,454.75 253.84,442.79 
		238.08,440.26 225.76,451.49 211.27,450.04 202.57,445.15 199.63,444.44 192.07,442.61 183.55,425.95 186.09,397.33 175.04,406.02 
		166.34,398.78 150.77,398.05 144.61,404.21 128.67,406.02 123.59,412.54 124.86,420.33 115.08,427.94 114.54,437.54 106.2,437.54 
		89.72,431.56 81.57,438.99 73.96,452.58 66.71,444.42 55.48,438.08 46.79,450.04 54.94,458.37 48.06,466.34 40.81,461.27 
		24.51,457.29 19.07,479.02 27.77,481.74 36.83,500.04 51.68,502.03 58.02,508.91 55.3,519.96 49.14,526.3 39.54,525.4 
		44.07,512.17 30.3,495.51 23.24,510 31.75,533.73 36.1,533 41.35,549.31 47.51,554.2 55.3,544.05 71.24,539.34 80.48,540.43 
		83.2,548.58 74.547,558 95.974,558 99.14,556.19 101.68,542.61 98.96,534.09 88.81,530.47 78.49,533.73 73.6,528.84 85.37,521.23 
		87.73,517.25 79.58,499.86 89.9,493.33 103.85,497.14 111.09,505.65 110.37,518.88 111.09,526.48 126.31,542.06 122.87,557.28 
		121.597,558 278.479,558 279.92,557.1 	"/>
</g>
<polygon fill="#9C96AD" points="661,324.33 655.33,324.33 644,320.33 626.33,320 617,325 609.67,316.19 602,304.04 584,304.04 
	577,310.56 558.71,317.67 556,328.31 569.03,324.69 595.66,326.14 617.76,343.35 626.63,346.24 641.67,343.71 645.84,338.82 
	658.88,337.37 666.31,339.9 665.85,350.95 670.83,344.43 667,330 "/>
<polygon fill="#9C96AD" points="619.75,301.25 616.5,298.75 613.415,298.75 610.75,304.04 616.75,316.5 619.75,316 622.5,315 
	624.642,311.5 621,310.25 "/>
<polygon fill="#9C96AD" points="796.01,359.29 789.12,358.38 784.41,347.33 786.41,336.46 795.64,325.41 800.9,308.75 
	811.04,303.67 806.5,302 791.5,307.62 788.5,316.5 779.5,322 782.5,326 781.75,329 773,330.25 766.25,333.75 766.25,348 
	770.5,350.95 777.75,368.75 787,370.88 794.25,370.88 803.25,376.31 816,376.31 818.83,373.96 808.32,369.97 "/>
<polygon fill="#9C96AD" points="724,421.67 724,430 719.29,433.67 708,428.67 693.33,431.67 679,447.67 679,457.33 688.33,466.67 
	679,479 682.33,488 689.33,491.33 692.35,497.59 692.37,497.6 696.01,498.22 709.24,492.79 717.75,485 721.92,473.05 735.14,447.14 
	745.47,443.88 749.45,434.64 748.55,425.04 761.95,410.55 776.62,404.03 753.33,404.03 "/>
<polygon fill="#9C96AD" points="457,347 440.33,356 425.67,355.33 408,363 382,359.2 364.67,367.44 369.67,359.2 369,350.95 
	359,342.67 340.33,344.67 327.74,356.33 309.67,370.88 315.67,384.67 307.67,394.33 297.33,395.67 286.67,400.41 284.27,395.52 
	271.67,390.09 263.67,384.67 260.67,388.33 249.31,395.52 260.72,393.89 275.03,398.59 289.7,413.45 302.93,420.51 308.54,411.28 
	316.69,406.38 316.69,390.81 321.77,380.66 320.5,374.14 331.01,363.63 339.16,359.29 351.29,360.74 351.11,370.52 356.91,383.38 
	371.94,380.3 387.16,370.34 406.91,370.34 419.95,363.63 422.3,375.59 432.45,358.92 441.69,369.79 453.82,354.4 467.23,357.11 
	481.9,349.69 466,350.95 "/>
<polygon fill="#9C96AD" points="528.333,380 518.667,391.333 510.333,389 499,384.667 489,389 480.333,400.406 495,407.333 
	522,404.03 542,407.333 547.667,404.03 539,389.667 "/>
<polygon fill="#9C96AD" points="215.33,466.07 203.67,458.33 198,450.5 199.63,444.44 192.07,442.61 183.55,425.95 186.09,397.33 
	175.04,406.02 166.34,398.78 150.77,398.05 144.61,404.21 128.67,406.02 123.59,412.54 152.5,431.33 157,456 181.33,460 189,466.07 
	205,475.33 216.67,475.33 235.67,472.14 237.33,466.07 237.33,462 229.67,462.67 "/>
<path fill="#9C96AD" d="M488.667,324l-8.333-0.333l-19.333-5l-14,1L433.333,323c0,0-9.333,10-13.333,10.333
	s-10.667-0.667-10.667-0.667L403,342.67l17,3.997h15.333L453,337.333l28.9-1.667L490,333l10.5-1l6.5-12.333l-9.333-3.167
	L488.667,324z"/>
<polygon fill="#9C96AD" points="1112,254 1076.5,254 1069,267 1042,264.5 1013.5,257.5 993,272 970.5,287 978.5,304.04 
	964.52,318.02 964.52,346.67 966.21,348.81 978.96,335.38 982.22,323.78 997.98,315.99 996.35,309.29 1002.51,301.14 
	1017.73,296.07 1029.14,298.42 1039.83,310.38 1026.97,310.74 1024.25,316.72 1021.71,348.96 1024.43,359.65 1030.95,366.35 
	1042.36,358.2 1058.67,335.19 1064.28,331.57 1063.38,319.43 1058.85,315.09 1059.93,299.69 1066.64,297.33 1065.73,284.47 
	1074.97,278.31 1094.35,274.33 1108.3,278.5 1116.27,288.46 1127.32,289.18 1128.05,281.76 1118.99,277.41 1122.61,259.29 
	1133.84,249.87 1134.39,238.1 1120,242.5 "/>
<path fill="#9C96AD" d="M1224.78,185.93l-7.07-19.02l-1.27-15.76l5.44-7.06l0.9-21.74l7.25-14.31l5.07-19.57l5.8-9.96l3.98-7.97
	L1222.5,82.5L1210,115l-17.5,16.5l5.5,13l-5.5,22l24.75,24.75c0,0-3.25,12.75-1.25,14.75s31.06,15.8,31.06,15.8l-7.25-9.42
	L1224.78,185.93z"/>
<polygon fill="#9C96AD" points="964.52,300 964.52,307.333 952.333,319.667 947.667,332 929,339.155 922.333,330.667 
	915.333,324.667 927.667,321 927,315.333 941.667,313.333 950.667,308 956.667,299 "/>
<polygon fill="#9C96AD" points="1100.333,235.912 1104.667,232.245 1129.07,230.245 1148.25,213.25 1156.501,210 1155.667,206.245 
	1138.667,210.045 1135.667,214.578 1129,221.078 1110,218.245 1089.667,223.912 1093.333,232.245 1089.667,235.912 
	1097.333,237.355 "/>
</svg>
