<svg enable-background="new 0 0 248 256" height="256" viewBox="0 0 248 256" width="248" xmlns="http://www.w3.org/2000/svg"><path d="m239.343 154.885 6.32-28.405-6.885-18.275 3.939-41.777-29.11-33.368-7.364-20.819-14.192-10.241-26.85 19.149-46.846-3.693-39.999-15.043-30.698 26.647-36.686 21.54 2.084 34.408 8.071 7.908 3.305 32.881-17.69 15.414.929 26.24-5.333 21.484 13.545 28.586 16.984 1.278 6.174 8.361v10.55l19.435 16.29 48.101-7.041 16.174-9.198v-10.72l17.116-8.557 14.472 6.974 4.658-2.513 20.108 28.432 16.31-8.538 19.032-2.655 24.653-16.079-7.559-32.731zm-47.324-140.931 6.08 4.387 6.969 19.706 27.586 31.622-3.757 39.859 6.655 17.667-4.525 20.337-18.958-6.544-7.078-17.494-28.604.667-21.168-28.891 21.485-32.228-4.9-34.671zm-138.67 23.029 27.004-23.441 35.868 13.49 46.097 3.634 4.249 30.07-21.308 31.962-18.477 26.782-11.615 5.452-25.593-10.584-8.212-27.242-27.441-7.703-26.624 5.961-4.772-4.675-1.497-24.729zm174.757 182.694-17.151 11.186-18.552 2.589-10.274 5.379-20.17-28.521-7.868 4.245-15.032-7.244-9.889-51.055-.098-.08-.119-.616-10.503-8.095 1.4-14.002 13.436-6.306 16.127-23.376 22.135 30.21 26.958-.629 6.216 15.368 24.216 8.358-7.35 34.368z"/></svg>