<?xml version="1.0" encoding="utf-8"?>
<!-- Generator: Adobe Illustrator 24.0.1, SVG Export Plug-In . SVG Version: 6.00 Build 0)  -->
<svg version="1.1" id="Layer_1" xmlns="http://www.w3.org/2000/svg" xmlns:xlink="http://www.w3.org/1999/xlink" x="0px" y="0px"
	 viewBox="0 0 1268 418" style="enable-background:new 0 0 1268 418;" xml:space="preserve">
<style type="text/css">
	.st0{fill:none;stroke:#D1CDC9;stroke-width:1.8787;}
	.st1{fill:none;stroke:#D1CDC9;stroke-width:1.7408;}
	.st2{fill:#D1CDC9;}
	.st3{font-family:'Helvetica';}
	.st4{font-size:17.4076px;}
	.st5{fill:#B6ADC7;}
	.st6{fill:#C5C5D1;}
	.st7{fill:#958DAA;}
	.st8{font-size:20.021px;}
</style>
<g>
	<path class="st0" d="M76,381.4h1145.5"/>
	<path class="st1" d="M219.1,381.4v8.9"/>
	<path class="st1" d="M362.2,381.4v8.9"/>
	<path class="st1" d="M505.4,381.4v8.9"/>
	<path class="st1" d="M648.6,381.4v8.9"/>
	<path class="st1" d="M791.7,381.4v8.9"/>
	<path class="st1" d="M935,381.4v8.9"/>
	<path class="st1" d="M1077.9,381.8v8.9"/>
	<path class="st1" d="M1221.2,381.8v8.9"/>
</g>
<text transform="matrix(1 0 0 1 47.062 385.6836)" class="st2 st3 st4">0</text>
<text transform="matrix(1 0 0 1 37.3808 296.2969)" class="st2 st3 st4">10</text>
<text transform="matrix(1 0 0 1 37.3808 206.9121)" class="st2 st3 st4">20</text>
<text transform="matrix(1 0 0 1 37.3808 117.5254)" class="st2 st3 st4">30</text>
<text transform="matrix(1 0 0 1 37.3808 28.1401)" class="st2 st3 st4">40</text>
<path class="st1" d="M76,381.7V24.1"/>
<path class="st1" d="M65.2,292.3H76"/>
<path class="st1" d="M65.2,202.8H76"/>
<path class="st1" d="M65.2,113.5H76"/>
<path class="st1" d="M65.2,24.1H76"/>
<path class="st5" d="M168.4,300.3h34.3v80.5h-34.3V300.3z"/>
<path class="st5" d="M311.6,103.6h34.3v277.2h-34.3V103.6z"/>
<path class="st5" d="M454.8,218.8h34.3v161.9h-34.3V218.8z"/>
<path class="st5" d="M598.1,300.3h34.3v80.5h-34.3V300.3z"/>
<path class="st5" d="M741.2,327h34.3v53.7h-34.3V327z"/>
<path class="st5" d="M884.3,278.5h34.3v102.3h-34.3V278.5z"/>
<path class="st6" d="M130.3,166.1h34.3v214.5h-34.3V166.1z"/>
<path class="st6" d="M273.5,225.1h34.3v155.6h-34.3V225.1z"/>
<path class="st6" d="M416.6,288.2h34.3v92.5h-34.3V288.2z"/>
<path class="st6" d="M559.8,273.4h34.3v107.2h-34.3V273.4z"/>
<path class="st6" d="M703,219.7h34.3v160.9H703V219.7z"/>
<path class="st6" d="M846.2,308.2h34.3v72.5h-34.3L846.2,308.2z"/>
<path class="st7" d="M92.1,246.6h34.3v134.2H92.1V246.6z"/>
<path class="st7" d="M235.2,166.1h34.3v214.5h-34.3V166.1z"/>
<path class="st7" d="M378.4,149.6h34.3v231.2h-34.3V149.6z"/>
<path class="st7" d="M521.7,157.3H556v223.5h-34.3V157.3z"/>
<path class="st7" d="M664.9,28.8h34.3v351.8h-34.3V28.8z"/>
<path class="st7" d="M808,190.4h34.3v190.2H808V190.4z"/>
<text transform="matrix(1 0 0 1 857.6123 412.4209)" class="st2 st3 st8">Jun</text>
<text transform="matrix(1 0 0 1 714.4414 412.4209)" class="st2 st3 st8">May</text>
<text transform="matrix(1 0 0 1 571.2695 412.4209)" class="st2 st3 st8">Apr</text>
<path class="st5" d="M1026.7,252.6h34.3v128.2h-34.3V252.6z"/>
<path class="st5" d="M1169.9,235.8h34.3v144.9h-34.3V235.8z"/>
<path class="st6" d="M988.5,148.8h34.3v231.8h-34.3V148.8z"/>
<path class="st6" d="M1131.7,164.7h34.3v215.9h-34.3V164.7z"/>
<path class="st7" d="M950.3,183.9h34.3v196.9h-34.3V183.9z"/>
<path class="st7" d="M1093.5,101.9h34.3v278.7h-34.3V101.9z"/>
<text transform="matrix(1 0 0 1 1143.0917 412.4209)" class="st2 st3 st8">Aug</text>
<text transform="matrix(1 0 0 1 999.9198 412.4209)" class="st2 st3 st8">July</text>
<text transform="matrix(1 0 0 1 428.0957 412.4209)" class="st2 st3 st8">Mar</text>
<text transform="matrix(1 0 0 1 284.9238 412.4209)" class="st2 st3 st8">Feb</text>
<text transform="matrix(1 0 0 1 141.7505 412.4209)" class="st2 st3 st8">Jan</text>
</svg>
