<?xml version="1.0" encoding="utf-8"?>
<!-- Generator: Adobe Illustrator 22.1.0, SVG Export Plug-In . SVG Version: 6.00 Build 0)  -->
<svg version="1.1" id="Layer_1" xmlns="http://www.w3.org/2000/svg" xmlns:xlink="http://www.w3.org/1999/xlink" x="0px" y="0px"
	 viewBox="0 0 1268 418" style="enable-background:new 0 0 1268 418;" xml:space="preserve">
<style type="text/css">
	.st0{fill:#AFAFAF;stroke:#9B8AAD;stroke-width:0.5;stroke-miterlimit:10;}
	.st1{fill:none;stroke:#9B8AAD;stroke-miterlimit:10;}
	.st2{fill:#AFAFAF;}
	.st3{font-family:'RobotoMono-Regular';}
	.st4{font-size:19.9454px;}
	.st5{fill:#706F70;}
	.st6{font-size:16.6212px;}
	.st7{fill:none;stroke:#5D348C;stroke-width:2;stroke-miterlimit:10;}
	.st8{fill:none;stroke:#9B8AAD;stroke-width:2;stroke-miterlimit:10;}
	.st9{fill:#76727C;}
	.st10{fill:#5D348C;}
	.st11{fill:none;stroke:#DDAB45;stroke-width:3;stroke-miterlimit:10;}
	.st12{fill:none;stroke:#76727C;stroke-width:2;stroke-miterlimit:10;}
	.st13{fill:#DDAB45;}
	.st14{fill:none;stroke:#9B8AAD;stroke-width:0.5;stroke-miterlimit:10;}
</style>
<line class="st0" x1="745.3" y1="50.8" x2="1077" y2="50.8"/>
<line class="st1" x1="1040.7" y1="50.8" x2="1040.7" y2="418"/>
<line class="st1" x1="854.4" y1="50.8" x2="854.4" y2="418"/>
<g id="Layer_2_1_">
</g>
<g id="Layer_3">
</g>
<g>
	<text transform="matrix(1 0 0 1 118.606 79.4956)" class="st2 st3 st4">USA</text>
</g>
<g>
	<text transform="matrix(1 0 0 1 168.9331 21.9185)" class="st2 st3 st4">2019</text>
</g>
<g>
	<text transform="matrix(1 0 0 1 441.3727 21.9185)" class="st2 st3 st4">2020</text>
</g>
<g>
	<text transform="matrix(1 0 0 1 89.6802 194.7358)" class="st2 st3 st4">China</text>
</g>
<g>
	<text transform="matrix(1 0 0 1 125.5874 306.7529)" class="st2 st3 st4">EU</text>
</g>
<g>
	<text transform="matrix(1 0 0 1 486.8289 357.2578)" class="st2 st3 st4">EU</text>
</g>
<g>
	<text transform="matrix(1 0 0 1 180.8976 80.397)" class="st5 st3 st6">100</text>
</g>
<g>
	<text transform="matrix(1 0 0 1 180.8975 195.6372)" class="st5 st3 st6">98</text>
</g>
<g>
	<text transform="matrix(1 0 0 1 180.8975 307.6543)" class="st5 st3 st6">96</text>
</g>
<g>
	<g>
		<text transform="matrix(1 0 0 1 435.3391 80.397)" class="st5 st3 st6">100</text>
	</g>
</g>
<g>
	<g>
		<text transform="matrix(1 0 0 1 435.339 195.6372)" class="st5 st3 st6">98</text>
	</g>
</g>
<g>
	<g>
		<text transform="matrix(1 0 0 1 435.339 307.6543)" class="st5 st3 st6">96</text>
	</g>
</g>
<g>
	<text transform="matrix(1 0 0 1 486.8289 79.4956)" class="st2 st3 st4">China</text>
</g>
<g>
	<text transform="matrix(1 0 0 1 486.8294 194.7356)" class="st2 st3 st4">Japan</text>
</g>
<line class="st7" x1="225.8" y1="189.7" x2="411.5" y2="74.8"/>
<line class="st8" x1="225.9" y1="75.3" x2="412.1" y2="298"/>
<line class="st8" x1="225.2" y1="298.1" x2="411.4" y2="351.6"/>
<g>
	<text transform="matrix(1 0 0 1 89.6802 395.5386)" class="st2 st3 st4">Japan</text>
</g>
<g>
	<text transform="matrix(1 0 0 1 180.8975 396.439)" class="st5 st3 st6">94</text>
</g>
<g>
	<g>
		<text transform="matrix(1 0 0 1 435.339 357.6299)" class="st5 st3 st6">95</text>
	</g>
</g>
<g>
	<text transform="matrix(1 0 0 1 486.829 306.7534)" class="st2 st3 st4">USA</text>
</g>
<line class="st7" x1="224.9" y1="390.4" x2="411.1" y2="189.8"/>
<circle class="st9" cx="225.2" cy="74.8" r="5.6"/>
<circle class="st10" cx="225.2" cy="189.8" r="5.6"/>
<circle class="st9" cx="225.2" cy="298.1" r="5.6"/>
<circle class="st10" cx="224.9" cy="390.4" r="5.6"/>
<circle class="st10" cx="411.5" cy="74.8" r="5.6"/>
<circle class="st10" cx="411.5" cy="189.8" r="5.6"/>
<circle class="st9" cx="411.5" cy="298.1" r="5.6"/>
<circle class="st9" cx="411.2" cy="351.6" r="5.6"/>
<g id="Layer_2_2_">
</g>
<g id="Layer_3_1_">
</g>
<g>
	<text transform="matrix(1 0 0 1 793.0928 93.641)" class="st2 st3 st4">USA</text>
</g>
<g>
	<text transform="matrix(1 0 0 1 834.7323 20.4174)" class="st2 st3 st4">2020</text>
</g>
<g>
	<text transform="matrix(1 0 0 1 1016.5818 20.4174)" class="st2 st3 st4">2030</text>
</g>
<g>
	<text transform="matrix(1 0 0 1 774.8867 170.7355)" class="st2 st3 st4">China</text>
</g>
<g>
	<text transform="matrix(1 0 0 1 805.0615 279.7533)" class="st2 st3 st4">EU</text>
</g>
<g>
	<text transform="matrix(1 0 0 1 739.589 43.0637)" class="st2 st3 st6">100</text>
</g>
<line class="st0" x1="745.3" y1="388" x2="1077" y2="388"/>
<g>
	<text transform="matrix(1 0 0 1 742.8969 215.1985)" class="st2 st3 st6">90</text>
</g>
<g>
	<text transform="matrix(1 0 0 1 742.8965 381.1796)" class="st2 st3 st6">80</text>
</g>
<line class="st11" x1="855" y1="165.7" x2="1040.7" y2="50.8"/>
<line class="st12" x1="855" y1="88" x2="1041.3" y2="274"/>
<line class="st12" x1="854.4" y1="274.1" x2="1040.6" y2="366.4"/>
<g>
	<text transform="matrix(1 0 0 1 781.8867 372.4385)" class="st2 st3 st4">Japan</text>
</g>
<line class="st11" x1="854.1" y1="366.4" x2="1040.3" y2="165.8"/>
<circle class="st9" cx="854.4" cy="88" r="5.6"/>
<circle class="st13" cx="854.4" cy="165.8" r="5.6"/>
<circle class="st9" cx="854.4" cy="274.1" r="5.6"/>
<circle class="st13" cx="854.1" cy="366.4" r="5.6"/>
<circle class="st13" cx="1040.7" cy="50.8" r="5.6"/>
<circle class="st13" cx="1040.7" cy="165.8" r="5.6"/>
<circle class="st9" cx="1040.7" cy="274.1" r="5.6"/>
<circle class="st9" cx="1040.4" cy="366.4" r="5.6"/>
<line class="st14" x1="745.3" y1="222.4" x2="1077" y2="222.4"/>
</svg>
