<?xml version="1.0" encoding="utf-8"?>
<!-- Generator: Adobe Illustrator 22.1.0, SVG Export Plug-In . SVG Version: 6.00 Build 0)  -->
<svg version="1.1" id="Layer_1" xmlns="http://www.w3.org/2000/svg" xmlns:xlink="http://www.w3.org/1999/xlink" x="0px" y="0px"
	 viewBox="0 0 1268 418" style="enable-background:new 0 0 1268 418;" xml:space="preserve">
<style type="text/css">
	.st0{fill:#AFAFAF;}
	.st1{font-family:'RobotoMono-Regular';}
	.st2{font-size:19.9454px;}
	.st3{font-size:16.6212px;}
	.st4{fill:none;stroke:#716082;stroke-miterlimit:10;}
</style>
<g id="Layer_2_1_">
</g>
<g id="Layer_3">
</g>
<g>
	<text transform="matrix(1 0 0 1 107.5571 79.4956)" class="st0 st1 st2">USA</text>
</g>
<g>
	<text transform="matrix(1 0 0 1 168.9331 21.9185)" class="st0 st1 st2">2019</text>
</g>
<g>
	<text transform="matrix(1 0 0 1 276.3809 21.9185)" class="st0 st1 st2">2020</text>
</g>
<g>
	<text transform="matrix(1 0 0 1 387.189 21.9185)" class="st0 st1 st2">2021</text>
</g>
<g>
	<text transform="matrix(1 0 0 1 497.9966 21.9185)" class="st0 st1 st2">2022</text>
</g>
<g>
	<text transform="matrix(1 0 0 1 608.8042 21.9185)" class="st0 st1 st2">2023</text>
</g>
<g>
	<text transform="matrix(1 0 0 1 719.6113 21.9185)" class="st0 st1 st2">2024</text>
</g>
<g>
	<text transform="matrix(1 0 0 1 830.4199 21.9185)" class="st0 st1 st2">2025</text>
</g>
<g>
	<text transform="matrix(1 0 0 1 941.2285 21.9185)" class="st0 st1 st2">2026</text>
</g>
<g>
	<text transform="matrix(1 0 0 1 1052.0361 21.9185)" class="st0 st1 st2">2027</text>
</g>
<g>
	<text transform="matrix(1 0 0 1 83.6187 194.7358)" class="st0 st1 st2">China</text>
</g>
<g>
	<text transform="matrix(1 0 0 1 119.5259 301.1123)" class="st0 st1 st2">EU</text>
</g>
<g>
	<text transform="matrix(1 0 0 1 177.9097 80.397)" class="st0 st1 st3">100</text>
</g>
<g>
	<text transform="matrix(1 0 0 1 182.8975 195.6372)" class="st0 st1 st3">98</text>
</g>
<g>
	<text transform="matrix(1 0 0 1 182.8975 302.0127)" class="st0 st1 st3">96</text>
</g>
<g>
	<text transform="matrix(1 0 0 1 285.3579 80.397)" class="st0 st1 st3">100</text>
</g>
<g>
	<text transform="matrix(1 0 0 1 290.3457 195.6372)" class="st0 st1 st3">98</text>
</g>
<g>
	<text transform="matrix(1 0 0 1 290.3457 302.0127)" class="st0 st1 st3">96</text>
</g>
<g>
	<text transform="matrix(1 0 0 1 396.166 80.397)" class="st0 st1 st3">100</text>
</g>
<g>
	<text transform="matrix(1 0 0 1 401.1533 195.6372)" class="st0 st1 st3">98</text>
</g>
<g>
	<text transform="matrix(1 0 0 1 401.1533 409.4961)" class="st0 st1 st3">94</text>
</g>
<g>
	<text transform="matrix(1 0 0 1 506.9736 80.397)" class="st0 st1 st3">100</text>
</g>
<g>
	<text transform="matrix(1 0 0 1 511.9609 302.0127)" class="st0 st1 st3">96</text>
</g>
<g>
	<text transform="matrix(1 0 0 1 511.9609 409.4961)" class="st0 st1 st3">94</text>
</g>
<g>
	<text transform="matrix(1 0 0 1 617.7812 80.397)" class="st0 st1 st3">100</text>
</g>
<g>
	<text transform="matrix(1 0 0 1 622.7695 195.6372)" class="st0 st1 st3">98</text>
</g>
<g>
	<text transform="matrix(1 0 0 1 622.7695 409.4961)" class="st0 st1 st3">94</text>
</g>
<g>
	<text transform="matrix(1 0 0 1 728.5879 80.397)" class="st0 st1 st3">100</text>
</g>
<g>
	<text transform="matrix(1 0 0 1 733.5752 248.0859)" class="st0 st1 st3">97</text>
</g>
<g>
	<text transform="matrix(1 0 0 1 733.5762 302.0127)" class="st0 st1 st3">96</text>
</g>
<g>
	<text transform="matrix(1 0 0 1 839.3975 80.397)" class="st0 st1 st3">100</text>
</g>
<g>
	<text transform="matrix(1 0 0 1 844.3848 195.6372)" class="st0 st1 st3">98</text>
</g>
<g>
	<text transform="matrix(1 0 0 1 844.3848 302.0127)" class="st0 st1 st3">96</text>
</g>
<g>
	<text transform="matrix(1 0 0 1 950.2041 80.397)" class="st0 st1 st3">100</text>
</g>
<g>
	<text transform="matrix(1 0 0 1 955.1924 195.6372)" class="st0 st1 st3">98</text>
</g>
<g>
	<text transform="matrix(1 0 0 1 955.1924 302.0127)" class="st0 st1 st3">96</text>
</g>
<g>
	<text transform="matrix(1 0 0 1 1061.0117 80.397)" class="st0 st1 st3">100</text>
</g>
<g>
	<text transform="matrix(1 0 0 1 1066 195.6372)" class="st0 st1 st3">98</text>
</g>
<g>
	<text transform="matrix(1 0 0 1 1066 302.0127)" class="st0 st1 st3">96</text>
</g>
<g>
	<text transform="matrix(1 0 0 1 1133.2549 78.8442)" class="st0 st1 st2">China</text>
</g>
<g>
	<text transform="matrix(1 0 0 1 1133.2549 194.0835)" class="st0 st1 st2">EU</text>
</g>
<g>
	<text transform="matrix(1 0 0 1 1133.2549 300.459)" class="st0 st1 st2">USA</text>
</g>
<line class="st4" x1="212.8" y1="189.7" x2="286" y2="189.8"/>
<line class="st4" x1="314.7" y1="189.7" x2="397.2" y2="189.7"/>
<line class="st4" x1="424.4" y1="189.7" x2="507.5" y2="80.4"/>
<line class="st4" x1="544.1" y1="74.4" x2="617.2" y2="189.7"/>
<line class="st4" x1="650.4" y1="189.7" x2="730.2" y2="242.6"/>
<line class="st4" x1="757.9" y1="242.6" x2="839.9" y2="189.7"/>
<line class="st4" x1="867.6" y1="189.7" x2="951.8" y2="189.7"/>
<line class="st4" x1="867.6" y1="296" x2="951.8" y2="296"/>
<line class="st4" x1="979.6" y1="296" x2="1063.8" y2="296"/>
<line class="st4" x1="978.4" y1="189.7" x2="1058.2" y2="74.4"/>
<line class="st4" x1="213.9" y1="73.3" x2="280.3" y2="73.3"/>
<line class="st4" x1="321.3" y1="73.3" x2="392.3" y2="73.3"/>
<line class="st4" x1="432.2" y1="73.3" x2="505.3" y2="296"/>
<line class="st4" x1="537.4" y1="296" x2="615" y2="80.4"/>
<line class="st4" x1="652.7" y1="73.3" x2="725.8" y2="73.3"/>
<line class="st4" x1="763.5" y1="75.5" x2="838.8" y2="292.7"/>
<line class="st4" x1="873.2" y1="73.3" x2="944.1" y2="73.3"/>
<line class="st4" x1="984" y1="73.3" x2="1063.8" y2="189.7"/>
<line class="st4" x1="207.2" y1="296" x2="288.1" y2="296"/>
<line class="st4" x1="314.7" y1="296" x2="392.3" y2="401.3"/>
<line class="st4" x1="426.6" y1="403.5" x2="505.3" y2="403.5"/>
<line class="st4" x1="537.4" y1="403.5" x2="618.3" y2="403.5"/>
<line class="st4" x1="647.1" y1="403.5" x2="725.8" y2="301.1"/>
<line class="st4" x1="760.1" y1="296" x2="834.4" y2="75.5"/>
</svg>
