<svg enable-background="new 0 0 800 560" viewBox="0 0 800 560" xml:space="preserve" xmlns="http://www.w3.org/2000/svg"><text fill="#a5a5b9" font-family="'RobotoMono-Regular'" font-size="18.7619" transform="translate(28.4696 455.9955)">0</text><text fill="#a5a5b9" font-family="'RobotoMono-Regular'" font-size="18.7619" transform="translate(162.6831 483.4234)">10</text><text fill="#a5a5b9" font-family="'RobotoMono-Regular'" font-size="18.7619" transform="translate(303.812 483.4234)">20</text><text fill="#a5a5b9" font-family="'RobotoMono-Regular'" font-size="18.7619" transform="translate(444.9424 483.4234)">30</text><text fill="#a5a5b9" font-family="'RobotoMono-Regular'" font-size="18.7619" transform="translate(586.0693 483.4234)">40</text><path d="m51.3 457h721.8" fill="none" stroke="#a8a8a8" stroke-miterlimit="10" stroke-width="1.1052"/><path d="m127.5 280h82.6v176h-82.6z" fill="#efefef"/><path d="m268.5 328.6h82.6v127.4h-82.6z" fill="#efefef"/><path d="m410.3 174.8h82.6v281.2h-82.6z" fill="#efefef"/><path d="m551.5 86.6h82.6v369.4h-82.6z" fill="#efefef"/><path d="m51.3 457v-17.6" fill="none" stroke="#a8a8a8" stroke-miterlimit="10" stroke-width="1.1052"/><path d="m169.5 457v-17.6" fill="none" stroke="#a8a8a8" stroke-miterlimit="10" stroke-width="1.1052"/><path d="m310.5 457v-17.6" fill="none" stroke="#a8a8a8" stroke-miterlimit="10" stroke-width="1.1052"/><path d="m451.7 457v-17.6" fill="none" stroke="#a8a8a8" stroke-miterlimit="10" stroke-width="1.1052"/><path d="m592.9 457v-17.6" fill="none" stroke="#a8a8a8" stroke-miterlimit="10" stroke-width="1.1052"/><text fill="#a5a5b9" font-family="'RobotoMono-Regular'" font-size="18.7619" transform="translate(18.1152 321.2105)">20</text><text fill="#a5a5b9" font-family="'RobotoMono-Regular'" font-size="18.7619" transform="translate(18.1152 180.0836)">40</text><text fill="#a5a5b9" font-family="'RobotoMono-Regular'" font-size="18.7619" transform="translate(18.1152 38.9547)">60</text><g fill="none"><path d="m51.3 457v-444.9" stroke="#a8a8a8" stroke-miterlimit="10" stroke-width="1.1052"/><path d="m51.3 174.8v282.2h17.7" stroke="#a8a8a8" stroke-miterlimit="10" stroke-width="1.1052"/><path d="m51.3 315.8h17.7" stroke="#a8a8a8" stroke-miterlimit="10" stroke-width="1.1052"/><path d="m51.3 174.8h17.7" stroke="#a8a8a8" stroke-miterlimit="10" stroke-width="1.1052"/><path d="m51.3 33.5h17.7" stroke="#a8a8a8" stroke-miterlimit="10" stroke-width="1.1052"/><path d="m674.7 86.6h-70.3" style="opacity:.8;stroke:#a8a8a8;stroke-width:1.6578;stroke-linecap:round;stroke-miterlimit:10;stroke-dasharray:0 3.3156"/></g><text transform="translate(12.1619 508.6478)"><tspan fill="#514361" font-family="'RobotoMono-Regular'" font-size="32.8333" x="0" y="0">value </tspan><tspan fill="#514361" font-family="'RobotoMono-Regular'" font-size="32.8333" x="0" y="39.4">axis Y</tspan></text><text transform="translate(208.5302 123.5681)"><tspan fill="#514361" font-family="'RobotoMono-Regular'" font-size="32.8333" x="0" y="0">standard</tspan><tspan fill="#514361" font-family="'RobotoMono-Regular'" font-size="32.8333" x="-19.7" y="39.4">deviation</tspan></text><text transform="translate(680.3596 85.574)"><tspan fill="#514361" font-family="'RobotoMono-Regular'" font-size="32.8333" x="0" y="0">data</tspan><tspan fill="#514361" font-family="'RobotoMono-Regular'" font-size="32.8333" x="0" y="39.4">mean</tspan></text><path d="m54.3 83.5h175.9v64.5h-175.9z" fill="none"/><text fill="#514361" font-family="'RobotoMono-Regular'" font-size="32.8333" transform="translate(492.9698 536.8961)">value axis X</text><path d="m595.7 234v-187" fill="none" stroke="#4f4f51" stroke-miterlimit="10" stroke-width="3"/><path d="m576 47.2h39" fill="none" stroke="#4f4f51" stroke-miterlimit="10" stroke-width="3"/><path d="m576 234h39" fill="none" stroke="#4f4f51" stroke-miterlimit="10" stroke-width="3"/><text fill="#514361" font-family="'RobotoMono-Regular'" font-size="32.8333" transform="translate(676.0197 304.7899)">bar</text><path d="m663.8 298.9h-71.5" style="opacity:.8;fill:none;stroke:#a8a8a8;stroke-width:1.6578;stroke-linecap:round;stroke-miterlimit:10;stroke-dasharray:0 3.3156"/><circle cx="451.7" cy="174.8" fill="#514361" r="6.4"/><circle cx="595.9" cy="89.1" fill="#514361" r="6.4"/><path d="m451.9 290.4v-180.6" fill="none" stroke="#4f4f51" stroke-miterlimit="10" stroke-width="3"/><path d="m432.2 110h39" fill="none" stroke="#4f4f51" stroke-miterlimit="10" stroke-width="3"/><path d="m432.2 290.4h39" fill="none" stroke="#4f4f51" stroke-miterlimit="10" stroke-width="3"/><circle cx="168.8" cy="282.3" fill="#514361" r="6.4"/><path d="m169.7 347-.7-114.1" fill="none" stroke="#4f4f51" stroke-miterlimit="10" stroke-width="3"/><path d="m149.3 233.1h39" fill="none" stroke="#4f4f51" stroke-miterlimit="10" stroke-width="3"/><path d="m150 347h39" fill="none" stroke="#4f4f51" stroke-miterlimit="10" stroke-width="3"/><g style="opacity:.8;enable-background:new;fill:none;stroke:#a8a8a8;stroke-width:1.6578;stroke-linecap:round;stroke-miterlimit:10"><path d="m399.4 292h-14.3" stroke-dasharray="0 3.1833"/><path d="m383.5 288.7.8-178.1" stroke-dasharray="0 3.3355"/><path d="m387.5 108.9h14.3" stroke-dasharray="0 3.1833"/></g><path d="m305.9 324.7c6.9-5.2 14.6 2.5 9.4 9.4-6.8 5.2-14.6-2.5-9.4-9.4z" fill="#514361"/><path d="m311.6 368-.7-88" fill="none" stroke="#4f4f51" stroke-miterlimit="10" stroke-width="3"/><path d="m291.1 280.2h39" fill="none" stroke="#4f4f51" stroke-miterlimit="10" stroke-width="3"/><path d="m291.9 368h39" fill="none" stroke="#4f4f51" stroke-miterlimit="10" stroke-width="3"/><path d="m18.1 481.2v-102.3h20.5" style="opacity:.8;fill:none;stroke:#a8a8a8;stroke-width:1.6578;stroke-linecap:round;stroke-miterlimit:10;stroke-dasharray:0 3.3156"/><path d="m628.1 513.2v-46.5" style="opacity:.8;fill:none;stroke:#a8a8a8;stroke-width:1.6578;stroke-linecap:round;stroke-miterlimit:10;stroke-dasharray:0 3.3156"/></svg>