<svg xmlns="http://www.w3.org/2000/svg" width="1268" height="418" viewBox="0 0 1268 418"><defs><style>.a{fill:#f0eff4;}.b,.d{isolation:isolate;fill:#d1cdc9;font-family:RobotoCondensed-Regular, Roboto Condensed;}.b{font-size:18px;}.c,.e{fill:none;stroke-miterlimit:10;}.c{stroke:#c4c4c4;}.d{font-size:19px;}.e{stroke:#777;stroke-width:3.5px;}.f{fill:#6d6d6d;}</style></defs><title>cover</title><rect class="a" x="139.4" y="237.6" width="44.6" height="148.59"/><rect class="a" x="206.1" y="179.3" width="44.6" height="206.9"/><rect class="a" x="272.9" y="167" width="44.6" height="219.25"/><rect class="a" x="339.6" y="145.6" width="44.6" height="240.5"/><rect class="a" x="72.7" y="334.3" width="44.6" height="51.9"/><rect class="a" x="406.4" y="162.3" width="44.6" height="223.8"/><rect class="a" x="473.1" y="178.7" width="44.6" height="207.5"/><rect class="a" x="539.8" y="123.7" width="44.6" height="262.44"/><rect class="a" x="606.9" y="138.9" width="44.6" height="247.21"/><rect class="a" x="673.3" y="223.8" width="44.6" height="162.32"/><rect class="a" x="740" y="297.4" width="44.6" height="88.7"/><rect class="a" x="807.1" y="283" width="44.6" height="103.08"/><rect class="a" x="940.3" y="199.3" width="44.6" height="185.9"/><rect class="a" x="873.6" y="232.3" width="44.6" height="152.8"/><rect class="a" x="1007" y="145.3" width="44.6" height="239.84"/><rect class="a" x="1073.7" y="123.7" width="44.6" height="261.39"/><rect class="a" x="1140.5" y="153.9" width="44.6" height="231.2"/><rect class="a" x="1207.6" y="167.4" width="44.6" height="217.68"/><text class="b" transform="translate(86.4 408.1)">10</text><text class="b" transform="translate(153.1 408.1)">20</text><text class="b" transform="translate(219.8 408.1)">30</text><text class="b" transform="translate(285 408.1)">40</text><text class="b" transform="translate(353.3 408.1)">50</text><text class="b" transform="translate(420.1 408.1)">60</text><text class="b" transform="translate(486.8 408.1)">70</text><text class="b" transform="translate(552.4 408.1)">80</text><text class="b" transform="translate(620.3 408.1)">90</text><text class="b" transform="translate(682.6 408.1)">100</text><text class="b" transform="translate(749.3 408.1)">110</text><text class="b" transform="translate(815.2 408.1)">120</text><text class="b" transform="translate(882.8 408.1)">130</text><text class="b" transform="translate(950.2 408.1)">140</text><text class="b" transform="translate(1016.5 408.1)">150</text><text class="b" transform="translate(1083 408.1)">160</text><text class="b" transform="translate(1149.8 408.1)">170</text><text class="b" transform="translate(1217.3 408.1)">180</text><line class="c" x1="55.1" y1="396" x2="55.1" y2="386.5"/><polyline class="c" points="55.1 2.5 55.1 386.5 1255.6 386.5"/><line class="c" x1="45.5" y1="10.2" x2="55.5" y2="10.2"/><line class="c" x1="45.5" y1="311.3" x2="55.5" y2="311.3"/><line class="c" x1="45.5" y1="236" x2="55.5" y2="236"/><line class="c" x1="45.5" y1="160.7" x2="55.5" y2="160.7"/><line class="c" x1="45.5" y1="85.4" x2="55.5" y2="85.4"/><text class="d" transform="translate(11.6 19.8)">100</text><text class="d" transform="translate(21 244.4)">40</text><text class="d" transform="translate(21 167.4)">60</text><text class="d" transform="translate(21 91.4)">80</text><text class="d" transform="translate(21 317.8)">20</text><path class="e" d="M95.3,305.4v59.1m-10.1,0h20.2M85.2,305.4h20.2"/><circle class="f" cx="95.3" cy="335" r="4.2"/><path class="e" d="M162,168.1v139m-10.1,0h20.2m-20.2-139h20.2"/><circle class="f" cx="162" cy="237.6" r="4.2"/><path class="e" d="M228.7,125.1V233.5m-10.1,0h20.2M218.6,125.1h20.2"/><circle class="f" cx="228.7" cy="179.3" r="4.2"/><path class="e" d="M293.9,137.4v59.1m-10.1,0H304m-20.2-59.1H304"/><circle class="f" cx="293.9" cy="167" r="4.2"/><path class="e" d="M362.2,128.5v34.2m-10.1,0h20.2m-20.2-34.2h20.2"/><circle class="f" cx="362.2" cy="145.6" r="4.2"/><path class="e" d="M429,151.7v21.2m-10.1,0h20.2m-20.2-21.2h20.2"/><circle class="f" cx="429" cy="162.3" r="4.2"/><path class="e" d="M495.7,155.8v46.4m-10.1,0h20.2m-20.2-46.4h20.2"/><circle class="f" cx="495.7" cy="179" r="4.2"/><path class="e" d="M561.3,83.3V164m-10.1,0h20.2M551.2,83.3h20.2"/><circle class="f" cx="561.3" cy="123.7" r="4.2"/><path class="e" d="M629.2,47.6V230.2m-10.1,0h20.2M619.1,47.6h20.2"/><circle class="f" cx="629.2" cy="138.9" r="4.2"/><path class="e" d="M695.9,137.1V310.5m-10.1,0H706M685.8,137.1H706"/><circle class="f" cx="695.9" cy="223.8" r="4.2"/><path class="e" d="M762.6,219.7V375.9m-10.1,0h20.2M752.5,219.7h20.2"/><circle class="f" cx="762.6" cy="297.8" r="4.2"/><path class="e" d="M829.4,222.4V343.6m-10.1,0h20.2M819.3,222.4h20.2"/><circle class="f" cx="829.4" cy="283" r="4.2"/><path class="e" d="M896.1,180V284.7m-10.1,0h20.2M886,180h20.2"/><circle class="f" cx="896.1" cy="232.3" r="4.2"/><path class="e" d="M962.9,161.1v79.2m-10.1,0H973m-20.2-79.2H973"/><circle class="f" cx="962.9" cy="200.7" r="4.2"/><path class="e" d="M1029.6,122.5v45.6m-10.1,0h20.2m-20.2-45.6h20.2"/><circle class="f" cx="1029.6" cy="145.3" r="4.2"/><path class="e" d="M1096.3,102.6v42.1m-10.1,0h20.2m-20.2-42.1h20.2"/><circle class="f" cx="1096.3" cy="123.7" r="4.2"/><path class="e" d="M1163.1,108.8v93m-10.1,0h20.2m-20.2-93h20.2"/><circle class="f" cx="1163.1" cy="155.3" r="4.2"/><path class="e" d="M1229.9,96.9v141m-10.1,0H1240m-20.2-141H1240"/><path class="e" d="M95.3,305.4v59.1m-10.1,0h20.2M85.2,305.4h20.2"/><circle class="f" cx="95.3" cy="335" r="4.2"/><circle class="f" cx="1229.9" cy="167.4" r="4.2"/></svg>