<svg height="256" viewBox="0 0 256 256" width="256" xmlns="http://www.w3.org/2000/svg"><path d="m244.1 208 8.6-16.4-42.1-22 35.4 13 6.4-17.3-14.9-5.5 8.6 1.4 3-18.2-29.9-5h15.3v-18.6h-17.4a.4.4 0 0 0 -.1-.3l28.9-2-1.2-18.4-31.7 2.1c0-.2-.1-.3-.1-.4l20.5-6.2-5.3-17.7-22.4 6.7-.5-.8 7-4-8.5-15.1 5.8-4.8-11.8-14.3-13.7 11.5h-.1l7.9-7.2-11.9-13.3 6.4-7.6-14.3-11.9-13.5 16.3 1.8-3.9-16.8-7.7-.7 1.4.3-1.8-18.3-2.9-2 13.2h-.6v-24.8h-18.5v23.2l-2.5-7.5-17.5 5.8 2.7 8.4-1.4.5-9.9-20-16.6 8.2 9.9 19.9-9.4-7.4-11.4 14.6 2.5 1.9-22.6-12.4-8.9 16.2 24.6 13.6-.9 1.7-14.1-3.2-3.2 14.2-18.1-4.5-4.5 18 32.1 8c0 .9.1 1.9.1 2.9h-12.1v18.5h15.5a1.4 1.4 0 0 0 .2.6c.3.9.6 1.9 1 2.8l-10.4 4.2 7.1 17.1 5.6-2.3-4.7 3.9 11.6 14.4 8.9-7.3-16.4 19.5 14.1 12 18.3-21.7 3.6 2.2-11.2 17.5 15.6 10 12.8-20c1.7.6 3.5 1 5.2 1.5l-10.9 25.2a116 116 0 0 1 -18.9-6.2l-4.1-1.8-5.4 12.6 4.1 1.8.5.2-14.4 23.2 15.7 9.8 16.7-26.9 4.9 1.2-3.5 21 18.3 3 3.5-21.4h1.5v21h18.5v-21.2l1.8-.2 9 28.4 17.6-5.6-8.2-26.1 1.6-.5 10.3 15.6 15.4-10.2-8-12.2 3.7-1.9 16.9 17.5 13.3-12.8-13.4-14 17 13.2 11.4-14.6-16.2-12.6 1.2-1.4zm-179.6-143.3c12.7-13 32.7-20.8 53-20.8h4a87.2 87.2 0 0 1 82 77.4 77.8 77.8 0 0 1 -2.7 32.2l-36.7-8.5c0-.2.1-.3.1-.5l31.8 1 .6-18.5-24.4-.7 25.2-3.1-2.2-18.4-25.2 3.2 20.6-11-8.7-16.4-19.6 10.5 17.8-17-12.8-13.4-24.7 23.7 12.9-23.1-16.1-9-13.6 24.1v-28.8h-18.5v47.8h12.7c15 2.3 25.8 14.8 29.6 25.5a37.9 37.9 0 0 1 -4.5 33.9 32.6 32.6 0 0 1 -10.3 10c-9.1 5.3-22.5 5.6-36.8 1-22.2-7.3-40.2-23.9-46.8-43.5a57.1 57.1 0 0 1 13.3-57.6zm54.1 118 3.9-.2 7.1 20.4 17.5-6.1-6.8-19.4 1.4-.8 1-.6 18.2 18.5 13.2-13-18-18.3.4-.7h.1l35.8 8.3c-10.1 14.9-26.3 27-45.3 33.1a106.3 106.3 0 0 1 -39.8 4.7z"/></svg>