<svg xmlns="http://www.w3.org/2000/svg" width="256" height="256" viewBox="0 0 256 256"><title>icon_sketch</title><path d="M42.9,125.7a.9.9,0,0,1,.6-.9l.3-.4.4-.5.6-1,.2-.2.3-.4c.2-.1.2-.1.2-.3s.1-.1.1-.2v-.4a5.6,5.6,0,0,1,.4-1.2,2.7,2.7,0,0,1,1.2-1h.2l.2-.2a2,2,0,0,1,.9-1.1,2.6,2.6,0,0,1,1.2-.1h.3c.4-.1.4-.1.5-.7a4.2,4.2,0,0,1,.6-1.5,1,1,0,0,1,.9-.5v-.5a6.4,6.4,0,0,1,.2-.7l.9-3.4.3-1a8.5,8.5,0,0,1,.6-1.7l.5-.7.2-.3a1.1,1.1,0,0,0,.2-.8,2.8,2.8,0,0,1,.6-1.5c0-.1,0-.1.1-.2a1.3,1.3,0,0,1,.8-.3l.3-.5a4.3,4.3,0,0,1,.4-.7l.5-.4v-.2a13,13,0,0,0,.3-1.3,2,2,0,0,0,.1-.7l.3-1.4c.2-1.7.5-3.6,2.5-4.7.3-.1.5-.2.7-.1a1,1,0,0,1,.6-.5l.8-.3.5-.2c.8-.3,1.1-.6,1.6-1.7a5.4,5.4,0,0,0,.4-1.5,8.3,8.3,0,0,1,.4-1.5,3.6,3.6,0,0,1,1.1-1.7l.6-.8c.9-1.4.9-3.2.8-5.2s-.1-5.2,2-7.1l2.1-1.3a4.6,4.6,0,0,0,2.3-1.7,12.4,12.4,0,0,0,.9-4.5,15,15,0,0,0,.2-2,47.3,47.3,0,0,0,.4-5.4,56.7,56.7,0,0,1,.6-7.2c.1-.6.3-1,.4-1.5a9.3,9.3,0,0,0,.4-2.4c0-2.6.1-5.1.1-7.6.1-6.1.3-12.1.4-17.9v-.5a10.3,10.3,0,0,1,.1-1.7V17.9a.9.9,0,0,1,.9-.9h1.5a.9.9,0,0,1,.9.9v1.7c0,.6.1,1.2.1,1.9,0,5.9.2,11.7.3,17.8v.4c0,2.6.1,5.2.2,7.7a10.9,10.9,0,0,0,.4,2.5l.3,1.4a43.8,43.8,0,0,1,.7,7.1,49.3,49.3,0,0,0,.3,5.5,12.3,12.3,0,0,1,.2,2,12.4,12.4,0,0,0,1,4.5c.3.8,1.3,1.3,2.2,1.7a14.8,14.8,0,0,1,2.1,1.3c2.1,1.9,2,4.6,1.9,7.1s-.1,3.8.9,5.2l.5.7A6.3,6.3,0,0,1,94,88.2l.3,1.3c.2.6.3,1.2.5,1.7s.8,1.4,1.6,1.7l.5.2.7.2c.3.1.5.4.7.6a.6.6,0,0,1,.7.1c2,1.1,2.3,3,2.5,4.7l.3,1.4c0,.2.1.4.1.7a13,13,0,0,0,.3,1.3v.2l.5.4h.1a.8.8,0,0,0,.2.4l.4.6a1.8,1.8,0,0,1,1,.6,3.8,3.8,0,0,1,.5,1.6c0,.2.1.5.1.6l.3.4.5.6a9.7,9.7,0,0,1,.8,2.2c0,.2.1.4.1.6l.9,3.4c.1.2.1.5.2.7v.5a1,1,0,0,1,.9.5,4.6,4.6,0,0,1,.6,1.6c.1.5.1.5.5.6h.3a1.7,1.7,0,0,1,1.2.1,2,2,0,0,1,.9,1.1c.1.1.2.2.2.3h.2a3.3,3.3,0,0,1,1.2,1,2.2,2.2,0,0,1,.4,1.3c.1.1.1.2.1.4l.3.4.4.5h0v.2a1.7,1.7,0,0,1,.6.8l.4.4.5.7a.8.8,0,0,1,.3.7.9.9,0,0,1-.8.9l-.3.3a3.5,3.5,0,0,1-1.6.6l-.6.2c0,.1-.1.4-.1.6a4.2,4.2,0,0,1-.4,1c-.2.5-.7.8-1,1.1h-.3c-.2.2-.2.2-.3.6a4.3,4.3,0,0,0-.1.5,4.8,4.8,0,0,1-.5,1.7,2.5,2.5,0,0,1-.8.7,2.7,2.7,0,0,0-.7.8,4.1,4.1,0,0,0-.1,1.2,6.4,6.4,0,0,1-.5,2.3,1.3,1.3,0,0,1-.9.6v.2l-.3.6c0,.1-.1.2-.1.4l-.2.6-.3.8a7.5,7.5,0,0,1-1.1,2.8l-.9,1.5a14.6,14.6,0,0,1-2.3,3.4l-.4.6-.9.9-.7.4h0a4.2,4.2,0,0,0-.3,1.2,4.5,4.5,0,0,1-.3,1.6,10.5,10.5,0,0,1-1.2,2.1l-.7,1.1a3.8,3.8,0,0,1-1.2,1.1c-.3.2-.5.3-.6.5a1.2,1.2,0,0,0-.2.7,3.3,3.3,0,0,1-.5,1.6,2.4,2.4,0,0,1-1,.5h-.3v.6a1.7,1.7,0,0,1-.1.7c0,.8-.1,1.6-.1,2.4a21.1,21.1,0,0,0-.2,2.5c-.1.2,0,.5,0,.8a6,6,0,0,1-.4,2.9,1.5,1.5,0,0,1-.9.7h-.2l-.5.3-.4.6c-.7.7-.8.8-1,1.5a10.9,10.9,0,0,0-.1,1.8,12.6,12.6,0,0,1-.4,2.7,3.7,3.7,0,0,1-.5,1.1,3.6,3.6,0,0,0-.4.9c-.1.2-.1.5-.2.8a2.5,2.5,0,0,1-.5,1.6c-.1.3-.4.5-.6.7l-.2.2a4.3,4.3,0,0,0-.5,1.7,49.3,49.3,0,0,0-.3,5.5c0,.9-.1,1.9-.1,2.8a7.1,7.1,0,0,0-.1,1.4,7,7,0,0,1-1.1,4.6,6.1,6.1,0,0,0-1.1,3.6,15.5,15.5,0,0,1-.4,2.1,26.7,26.7,0,0,0-.7,5.3c-.1,1.9-.2,3.3-.3,4.5s-.2,3.2-.3,5.6c-.2,5.4-.4,7.5-.7,10s-.4,4.1-.7,8.3a.9.9,0,0,1-.9.8H79.4a.9.9,0,0,1-.9-.8c-.3-4.2-.5-6.4-.7-8.3s-.5-4.6-.7-10c-.1-2.5-.2-4.1-.3-5.7s-.2-2.6-.3-4.4a24.9,24.9,0,0,0-.7-5.3,7.6,7.6,0,0,1-.3-2.1,7,7,0,0,0-1.2-3.6c-1.2-1.5-1.2-3.3-1.2-4.9v-1.1a26.2,26.2,0,0,0-.1-2.8,49.3,49.3,0,0,0-.3-5.5,3.1,3.1,0,0,0-.5-1.8H72l-.7-.7a3.2,3.2,0,0,1-.4-1.6c-.1-.3-.1-.6-.2-.8l-.4-.8a6.1,6.1,0,0,1-.5-1.2,10.9,10.9,0,0,1-.3-2.6,10.8,10.8,0,0,0-.3-1.9c-.1-.7-.3-.9-.9-1.5v-.2c-.2-.1-.2-.3-.3-.4l-.4-.2v-.2h-.2a1.7,1.7,0,0,1-.8-.7c-.5-.6-.5-1.5-.5-2.8a1.4,1.4,0,0,0,0-.9c0-.8-.1-1.7-.1-2.5a19.4,19.4,0,0,1-.2-2.4v-.5c0-.6,0-.8-.2-.9h-.3a2,2,0,0,1-.8-.4,2.2,2.2,0,0,1-.6-1.7c-.1-.2-.1-.5-.2-.6a1,1,0,0,0-.5-.4,3.6,3.6,0,0,1-1.3-1.2l-.6-.9a.1.1,0,0,0-.1-.1,1,1,0,0,1-.5-.8l-.7-1.4a4.5,4.5,0,0,1-.3-1.6c-.1-.4-.1-.9-.2-1.2a1.2,1.2,0,0,1-.9-.4l-.8-.9-.4-.6a14.6,14.6,0,0,1-2.3-3.4l-.9-1.5a11.8,11.8,0,0,1-1.1-2.7l-.3-1h0c-.1-.2-.1-.4-.2-.6l-.2-.3h0a1.4,1.4,0,0,0-.2-.6.9.9,0,0,1-.9-.7,4.5,4.5,0,0,1-.4-2,5.9,5.9,0,0,0-.2-1.4l-.7-.7-.8-.8a4.8,4.8,0,0,1-.5-1.7c0-.2-.1-.4-.1-.6a.9.9,0,0,0-.3-.5h-.3a2.7,2.7,0,0,1-1-1.1,4.2,4.2,0,0,1-.4-1c0-.2-.1-.5-.1-.6l-.6-.2a2.8,2.8,0,0,1-1.6-.7l-.3-.2h0A.9.9,0,0,1,42.9,125.7Zm53.2,29.5H63.9l.7.5,1,.8A3.1,3.1,0,0,1,66,158a1.1,1.1,0,0,1,.1.5,3.4,3.4,0,0,1,1.1.5,2.9,2.9,0,0,1,.7,2.2v.4c.1.6.1,1.4.2,2.2s.1,1.6.1,2.4a3.1,3.1,0,0,1,.1,1.1,4.3,4.3,0,0,0,0,1.6h.2l.4.2a1.2,1.2,0,0,1,.8.4,2.5,2.5,0,0,1,.4.7h0a4.3,4.3,0,0,1,1.3,2.2,14.9,14.9,0,0,1,.2,2.1,11.8,11.8,0,0,0,.3,2.1,5.9,5.9,0,0,0,.4.8l.5,1.1c.1.3.1.7.2,1a2,2,0,0,0,.2.9l.2.2c.1.1.4.2.5.5a4.6,4.6,0,0,1,.8,2.5,47.5,47.5,0,0,1,.3,5.4,24.4,24.4,0,0,1,.1,2.7,4.5,4.5,0,0,1,.1,1.1c0,1.5,0,2.7.7,3.6a8,8,0,0,1,1.5,4.4,11.3,11.3,0,0,0,.3,1.8,26.7,26.7,0,0,1,.7,5.4c.1,1.7.2,3,.2,4.2s.3,3.1.4,5.6c.2,5.1.4,7.1.6,9.4s.3,2.3.4,4.1c.1-1.8.3-3,.4-4.1s.4-4.3.6-9.4c.1-2.4.2-3.9.3-5.5s.2-2.5.3-4.3a28.6,28.6,0,0,1,.7-5.4,10.8,10.8,0,0,0,.3-1.9,8,8,0,0,1,1.5-4.3,5.1,5.1,0,0,0,.7-3.3,6.1,6.1,0,0,1,.1-1.4v-2.7a52.8,52.8,0,0,1,.4-5.5,5.2,5.2,0,0,1,.7-2.4,2.2,2.2,0,0,1,.6-.5l.2-.2a2,2,0,0,0,.2-.9c.1-.3.1-.7.2-1l.6-1.2.3-.7a7.8,7.8,0,0,0,.3-2.2,15,15,0,0,1,.2-2,4.8,4.8,0,0,1,1.3-2.3l.3-.6h.1a.9.9,0,0,1,.7-.3l.5-.3h.2a8.6,8.6,0,0,0,.1-1.7,1.7,1.7,0,0,1,0-1c0-.8.1-1.6.1-2.4s.1-1.6.2-2.3V161a2.2,2.2,0,0,1,.8-2,2,2,0,0,1,.8-.4h.1a1.3,1.3,0,0,0,.1-.6,5.3,5.3,0,0,1,.5-1.5l1.1-.9a.7.7,0,0,0,.5-.4ZM111,126.7H49a3.8,3.8,0,0,1,.5,1.2c0,.2.1.4.1.6l.5.4.4.3h.1a2,2,0,0,1,.7,1.2c.1.3.1.6.2.9a1.9,1.9,0,0,0,.2.8c0,.1.2.2.4.4a3.2,3.2,0,0,1,1.2,1.5,5.7,5.7,0,0,1,.3,1.8,3.6,3.6,0,0,0,.2,1.1,1.5,1.5,0,0,1,.7.5,6.1,6.1,0,0,1,.5,1.2h.1l.3.9.3,1a7.6,7.6,0,0,0,.8,2.1l.9,1.5a17.2,17.2,0,0,0,1.9,3c.3.2.4.5.6.7s.3.5.6.6h.1a1.1,1.1,0,0,1,.7.3,3.5,3.5,0,0,1,.7,2.3,8.7,8.7,0,0,0,.2,1l.6,1.1H97.2l.6-1.1a8.7,8.7,0,0,0,.2-1,3.5,3.5,0,0,1,.6-2.2c.2-.3.7-.4.9-.5h.1l.5-.6a2,2,0,0,1,.6-.7,17.2,17.2,0,0,0,1.9-3l.9-1.5a11.2,11.2,0,0,0,.9-2.2,2.9,2.9,0,0,1,.2-.9,1.7,1.7,0,0,0,.2-.5c.1-.2.1-.4.2-.6l.2-.4.2-.6a1.2,1.2,0,0,1,.9-.6c.1-.4.1-.9.2-1.3a3.9,3.9,0,0,1,.2-1.5,3,3,0,0,1,1.3-1.7l.4-.3c0-.1.1-.6.1-.8s.1-.6.2-.8.3-1,.7-1.3h.1l.4-.3.4-.4a1.4,1.4,0,0,0,.2-.6A3.1,3.1,0,0,1,111,126.7ZM65.9,95.4H94a4.3,4.3,0,0,1-1.4-2,11.7,11.7,0,0,1-.6-2,3.6,3.6,0,0,0-.2-1,5,5,0,0,0-.8-1.2l-.6-.8c-1.3-1.8-1.2-4-1.2-6.1s.2-4.1-1.3-5.4L86.3,76a6.2,6.2,0,0,1-2.9-2.4,14.5,14.5,0,0,1-1.1-5.1,8.8,8.8,0,0,0-.2-1.7,52.1,52.1,0,0,1-.3-5.5,46.2,46.2,0,0,0-.6-6.6l-.3-1.3a16.4,16.4,0,0,1-.5-2.7c0-2.4-.1-4.9-.1-7.4v-.4l-.3-12c-.1,4.2-.2,8.2-.2,12.4h0c-.1,2.4-.2,4.8-.2,7.2a11.1,11.1,0,0,1-.4,2.8l-.3,1.3a47.6,47.6,0,0,0-.6,6.6,50.9,50.9,0,0,1-.4,5.5c-.1.5-.1,1.1-.2,1.7a14.5,14.5,0,0,1-1,5.1,7,7,0,0,1-3,2.4l-1.7.9c-1.4,1.3-1.3,3.2-1.3,5.5s.1,4.2-1.1,6a2.2,2.2,0,0,1-.7.9,3.4,3.4,0,0,0-.7,1.1,5.3,5.3,0,0,0-.3,1.2,12.1,12.1,0,0,1-.5,1.8A5,5,0,0,1,65.9,95.4ZM47.1,124.9h65.8l-.4-.5a1.3,1.3,0,0,1-.4-.6,2.6,2.6,0,0,1-.7-1.1c-.1-.2-.1-.4-.2-.6a.7.7,0,0,0-.1-.5c-.2-.2-.2-.3-.5-.4l-.6-.4a1.5,1.5,0,0,1-.4-.6l-.3-.3h-1a2.1,2.1,0,0,1-1.8-2c-.1-.2-.1-.4-.2-.6a.9.9,0,0,1-.8-.5,3.5,3.5,0,0,1-.5-1.3.7.7,0,0,0-.1-.5l-.9-3.3c0-.2-.1-.4-.1-.6a5.9,5.9,0,0,0-.6-1.6l-.3-.5a1.5,1.5,0,0,1-.4-.6,2.7,2.7,0,0,1-.3-1.2,1.1,1.1,0,0,1-.1-.5c-.3-.1-.6-.1-.8-.4l-.7-1.1-.2-.3a1.9,1.9,0,0,1-.7-.8,6.1,6.1,0,0,1-.5-1.8c0-.2-.1-.4-.1-.6l-.3-1.4c-.1-1.3-.3-2.4-1.2-3.1s0,.1-.1.1H62.2c-.8.6-.9,1.6-1.1,3l-.3,1.4c0,.2-.1.4-.1.6a6.1,6.1,0,0,1-.5,1.8,1.9,1.9,0,0,1-.7.8l-.3.5a4.1,4.1,0,0,1-.5.9,1.2,1.2,0,0,1-.8.4.9.9,0,0,0-.1.5,5.6,5.6,0,0,1-.4,1.2,1.8,1.8,0,0,1-.5.7c-.1.2-.2.3-.2.4a3.4,3.4,0,0,0-.4,1.2,3,3,0,0,1-.4,1l-.8,3.3a.7.7,0,0,0-.1.5,3.5,3.5,0,0,1-.5,1.3,1,1,0,0,1-.9.5,1.3,1.3,0,0,1-.1.6,2.2,2.2,0,0,1-1.7,2H50.7l-.3.3a1.5,1.5,0,0,1-.4.6l-.7.4c-.2.1-.3.1-.3.2a1.9,1.9,0,0,0-.2.7c-.1.2-.1.4-.2.6a2,2,0,0,1-.7,1.2h-.1l-.2.3a2.1,2.1,0,0,0-.4.6Zm93.9-2.3c-.8-2.4,1.1-3.4,2.3-4.2a3.6,3.6,0,0,0,1.2-.8,22.4,22.4,0,0,1,4.1-3.2l1.5-.6.6-.2v-1a3.9,3.9,0,0,1,.6-2.1c.6-.9,1.9-1.1,3.1-1.2l1.5-.2,1.6-1.4a4.2,4.2,0,0,0,.3-1.8,2.8,2.8,0,0,0,.1-.9c.1-.4.1-.8.2-1.3a15.7,15.7,0,0,1,.9-4.8,3.1,3.1,0,0,1,.9-1.4,1.1,1.1,0,0,1,1-.4,5.1,5.1,0,0,0,1.2-2,5,5,0,0,0,.4-1.3,6.4,6.4,0,0,1,.6-1.8,2.5,2.5,0,0,1,.7-.9,5.6,5.6,0,0,0,.4-.8c.1-.3.1-1,.2-1.7a7,7,0,0,1,.6-2.9,4.1,4.1,0,0,1,.8-1.3l.6-1c.1-.3.1-.9.2-1.5a9.2,9.2,0,0,1,1-3.4c.2-.4.6-.6.9-.9a1,1,0,0,0,.6-.5,8.1,8.1,0,0,0,.1-1.7V74.3c.1-.7.1-1.5.2-2.2a14.9,14.9,0,0,1,.2-2.1c.1-.8.1-1.6.2-2.4a19.4,19.4,0,0,1,.2-2.4,14.1,14.1,0,0,1,.1-2c.1-.7.1-1.4.2-2V61a4.4,4.4,0,0,1,.2-1.6,1,1,0,0,1,.5-.6h.1a12.8,12.8,0,0,0,.5-2.7,16.7,16.7,0,0,1,.8-3.2,6.7,6.7,0,0,1,.9-1.9,4.8,4.8,0,0,0,.8-1.6,47.1,47.1,0,0,0,.3-5.3c0-.9.1-1.8.1-2.7.2-3.7.4-7.3.5-10.9s.4-9,.5-13.4.4-8.8.5-13.3l.2-2.7a.9.9,0,0,1,.9-.9h1.4a.9.9,0,0,1,.9.9l.2,2.7c.2,8.2.6,17.5.9,26.7.2,3.6.3,7.2.6,10.9a24.4,24.4,0,0,0,.1,2.7,47.1,47.1,0,0,0,.3,5.3,4.8,4.8,0,0,0,.8,1.8,13.1,13.1,0,0,1,.9,1.7,11.4,11.4,0,0,1,.7,3.2,18.1,18.1,0,0,0,.6,2.7h.1l.4.5h.1a2.6,2.6,0,0,1,.1,1.5v.3c.1.6.1,1.3.2,2s.1,1.4.1,2a19.4,19.4,0,0,1,.2,2.4c.1.8.1,1.6.2,2.4s.1,1.4.2,2.1a16.4,16.4,0,0,0,.2,2.2v1.1a8.1,8.1,0,0,0,.1,1.7c.1.2.3.3.5.5a2.6,2.6,0,0,1,1.1,1,10.3,10.3,0,0,1,.8,3.2,6.3,6.3,0,0,0,.2,1.6,10.9,10.9,0,0,0,.6,1.1,2.8,2.8,0,0,1,.8,1.2,7.8,7.8,0,0,1,.6,2.9c.1.7.1,1.4.2,1.7s.2.6.4.7l.7,1a6.4,6.4,0,0,1,.6,1.8,10.4,10.4,0,0,0,.3,1.2,5.2,5.2,0,0,0,1.4,2.1,1,1,0,0,1,.9.4,3.2,3.2,0,0,1,.8,1.2h.1a16.9,16.9,0,0,1,.9,4.9c.1.5.1.9.2,1.3a2.8,2.8,0,0,0,.1.9,4.2,4.2,0,0,0,.3,1.8l1.7,1.4,1.3.2c1.2.1,2.6.2,3.3,1.2a5,5,0,0,1,.5,2.1,3.1,3.1,0,0,0,.1,1l.6.3,1.3.5a22.4,22.4,0,0,1,4.1,3.2,6.2,6.2,0,0,0,1.2.8c1.2.7,3.1,1.8,2.3,4.2a1.9,1.9,0,0,1-1.8,1.4h-.7c-.9.1-1,.3-1.5.9h-.1a8.5,8.5,0,0,0-1.2,2.3h0v.3a4.9,4.9,0,0,1-.5,1.6,2.1,2.1,0,0,1-.9.5h-.1l-.6.6a4.6,4.6,0,0,1-1.4,1.4l-.5.3h-.3v.3c-.2.3-.3.8-.7,1.1a4.4,4.4,0,0,1-1.5.5h-.7l-1,1.6-.4.6a12.8,12.8,0,0,1-2,2.6,4.1,4.1,0,0,0-.5.9,6.6,6.6,0,0,1-.8,1.3,5,5,0,0,1-1.9,1.2l-.6.3c-.6.2-.6.3-1,.8l-.2.3-1,1c-.3.2-.4.3-.7.9a6.9,6.9,0,0,1-.5,1.3,5.4,5.4,0,0,0-.5,1.1c-.3.8-.4,1.3-.6,1.9a7.6,7.6,0,0,1-.8,2.6,3.4,3.4,0,0,1-2.2,1.5l-.6.2c-.8.3-.9.4-1.3,1.4H185a10.6,10.6,0,0,0-1.1,5.1v1.3a10.2,10.2,0,0,1-.3,3,2.8,2.8,0,0,1-.5,1.1l-.3.6a41,41,0,0,0-1.4,5c-.4,1.6-.6,2.4-.8,3a9,9,0,0,0-.6,3.5c-.2,2.7-.3,4.2-.3,5.2s-.2,2.6-.4,8.5a.9.9,0,0,1-.9.9h-1.5a.9.9,0,0,1-.9-.9c-.2-5.6-.2-6.1-.4-8.1s-.2-2.6-.3-5.6a12.2,12.2,0,0,0-.6-3.4,18,18,0,0,1-.8-3.1,41,41,0,0,0-1.4-5l-.3-.5a3.3,3.3,0,0,1-.5-1.2,10.5,10.5,0,0,1-.3-3,3.7,3.7,0,0,0-.1-1.1v-.8a11.1,11.1,0,0,0-1.1-4.5l-.2-.3c-.4-.8-.4-.9-1.1-1.2l-.7-.2a4.1,4.1,0,0,1-2.1-1.5,8.1,8.1,0,0,1-.9-2.6,7,7,0,0,0-.5-1.8,10.4,10.4,0,0,1-.5-1.2l-.6-1.3c-.2-.6-.3-.7-.6-.9a3,3,0,0,1-1-1l-.3-.3a2,2,0,0,0-.9-.9l-.6-.2a3.6,3.6,0,0,1-1.9-1.3,3.7,3.7,0,0,1-.6-1,4.1,4.1,0,0,0-.7-1.1,12.8,12.8,0,0,1-2-2.6l-.4-.6a11.2,11.2,0,0,0-1-1.6h-.7a5.3,5.3,0,0,1-1.5-.5h-.1a2.4,2.4,0,0,1-.5-1v-.2c-.1-.1-.1-.2-.3-.3l-.5-.2a6.8,6.8,0,0,1-1.7-1.7l-.2-.2a2,2,0,0,1-1.1-.6,6.5,6.5,0,0,1-.4-1.3.7.7,0,0,0-.1-.5,5.5,5.5,0,0,0-1.2-2.4H145c-.4-.7-.6-.7-1.5-.9h-.7A1.8,1.8,0,0,1,141,122.6Zm51.2,17.9H163l.5.6.2.3.7.7a3.1,3.1,0,0,1,1.2,1.6c.1.4.3.7.4,1.1l.6,1.2a15,15,0,0,1,.6,2.2,5.2,5.2,0,0,0,.6,1.9,2.2,2.2,0,0,0,1.2.7c.2.1.5.1.7.3a3.2,3.2,0,0,1,2,1.9v.3a11.6,11.6,0,0,1,1.3,5v1.9a21.1,21.1,0,0,0,.2,2.6,2.5,2.5,0,0,0,.4.7l.3.7a29.5,29.5,0,0,1,1.5,5.3,19,19,0,0,0,.7,2.7,10.4,10.4,0,0,1,.7,3.8c.2,2.8.3,4.3.3,5.3s.2,2,.3,3.7c0-1.8.1-2.5.2-4s.1-2.5.3-5a11.4,11.4,0,0,1,.6-3.9,15.7,15.7,0,0,0,.7-2.7,44.4,44.4,0,0,1,1.5-5.2l.5-.8a1.4,1.4,0,0,0,.2-.6,9.5,9.5,0,0,0,.3-2.5v-1.2h0c.2-2.2.3-3.8,1.4-5.7h0a3.7,3.7,0,0,1,2.2-2.2l.7-.2c.6-.2.9-.3,1.1-.7a8.9,8.9,0,0,0,.7-1.9,8.2,8.2,0,0,1,.6-2.2,6.1,6.1,0,0,1,.5-1.2,5.4,5.4,0,0,0,.5-1.1,3.4,3.4,0,0,1,1.2-1.7l.6-.6.2-.2ZM209,122H146.3a4.4,4.4,0,0,1,1.1,1.2,6.2,6.2,0,0,1,1.5,2.9,6.4,6.4,0,0,1,.2.7v.4l.6.2.2.2.4.5a5,5,0,0,0,1.3,1.2l.2.2a2,2,0,0,1,.9.5,4.7,4.7,0,0,1,.5,1v.2h.5a3.5,3.5,0,0,1,1.6.6,6.9,6.9,0,0,1,1.4,2l.3.6a19.2,19.2,0,0,0,1.8,2.2,8,8,0,0,1,.9,1.4,4.3,4.3,0,0,0,.4.7h35a2.2,2.2,0,0,0,.5-.8,3.4,3.4,0,0,1,.9-1.3,18.4,18.4,0,0,0,1.7-2.2l.3-.6a9.5,9.5,0,0,1,1.4-2,3.5,3.5,0,0,1,1.6-.6h.6v-.2a2,2,0,0,1,.4-.8h.1a1.4,1.4,0,0,1,.8-.5h.2a4.7,4.7,0,0,0,1-1l.8-.9a2,2,0,0,1,.8-.4v-.5a.8.8,0,0,0,.1-.4,11.2,11.2,0,0,1,1.4-2.9h.1A4.5,4.5,0,0,1,209,122Zm-48-22h33.3a4.3,4.3,0,0,0-.1-.5h-.1l-.3-.6a1.2,1.2,0,0,1-.9-.4,5.6,5.6,0,0,1-1.8-2.7,5.7,5.7,0,0,1-.4-1.4,8.9,8.9,0,0,0-.5-1.3,1.3,1.3,0,0,0-.4-.6,2.6,2.6,0,0,1-.7-1.4,5.6,5.6,0,0,1-.3-2,12,12,0,0,0-.4-2.3l-.6-.8a5.7,5.7,0,0,1-.9-1.6c-.1-.4-.2-1.1-.3-1.8a12.2,12.2,0,0,0-.5-2.5,1.5,1.5,0,0,0-.6-.4,5.5,5.5,0,0,1-1-1.1,6.6,6.6,0,0,1-.3-2.5v-.9c-.1-.7-.1-1.4-.2-2.1a14.9,14.9,0,0,0-.2-2.1,16.4,16.4,0,0,0-.2-2.3c0-.8-.1-1.6-.1-2.3s-.1-1.4-.2-2-.1-1.4-.1-2v-1h-.1a1.4,1.4,0,0,1-.5-.7,14.6,14.6,0,0,1-.7-3,10.7,10.7,0,0,0-.6-2.7,5.4,5.4,0,0,0-.7-1.3,5.5,5.5,0,0,1-1-2.6,45.5,45.5,0,0,1-.4-5.3,23.5,23.5,0,0,0-.1-2.6c-.2-3.5-.3-7.1-.5-10.5-.4-8.7-.7-17.3-.9-25.1-.2,4-.3,8-.5,12s-.3,8.7-.4,13.1-.3,7-.6,10.6v2.5a49,49,0,0,1-.4,5.4,6.4,6.4,0,0,1-1,2.2,10.1,10.1,0,0,0-.7,1.5,8.8,8.8,0,0,0-.6,2.8,17.7,17.7,0,0,1-.8,3.1,1,1,0,0,1-.5.6h0v1c0,.8-.1,1.4-.1,2.1s-.1,1.3-.2,1.9-.1,1.6-.2,2.3a19.4,19.4,0,0,1-.2,2.4c0,.7-.1,1.4-.1,2.1s-.1,1.4-.2,2.1v.8a6.6,6.6,0,0,1-.3,2.5,3.2,3.2,0,0,1-1.1,1.2l-.6.5a10.9,10.9,0,0,0-.5,2.5c-.1.7-.2,1.3-.3,1.7a4.9,4.9,0,0,1-.9,1.5l-.6.9a10.7,10.7,0,0,0-.4,2.3,5.6,5.6,0,0,1-.3,2,2.2,2.2,0,0,1-.8,1.4,3.3,3.3,0,0,0-.3.6,8.9,8.9,0,0,0-.5,1.3,5.7,5.7,0,0,1-.4,1.4,5.1,5.1,0,0,1-1.9,2.8.9.9,0,0,1-.8.3,4.3,4.3,0,0,0-.4.7C161.1,99.7,161,99.8,161,100Zm-17.1,20.3h67.5a4.6,4.6,0,0,0-1.4-1l-1.5-1a17.6,17.6,0,0,0-3.6-2.9l-.9-.4c-.8-.2-1.2-.4-1.4-.7a3.3,3.3,0,0,1-.6-2.2,3.1,3.1,0,0,0-.1-1c-.2-.3-1.2-.4-1.9-.4l-1.9-.4a10.6,10.6,0,0,1-2.3-1.9,5.6,5.6,0,0,1-.7-2.6V105c-.1-.4-.1-.9-.2-1.3a12.3,12.3,0,0,0-.2-1.9H160.6a12.3,12.3,0,0,0-.2,1.9c-.1.4-.1.9-.2,1.3v.8a5.6,5.6,0,0,1-.7,2.6,13,13,0,0,1-2.2,1.9,7.1,7.1,0,0,1-2.1.4,6,6,0,0,0-1.8.4,3.7,3.7,0,0,0-.1,1.1,3.5,3.5,0,0,1-.6,2.2,2.8,2.8,0,0,1-1.2.5l-1.1.5a18.3,18.3,0,0,0-3.7,2.9,7.8,7.8,0,0,1-1.5,1A3.8,3.8,0,0,0,143.9,120.3Z"/></svg>