<?xml version="1.0" encoding="utf-8"?>
<!-- Generator: Adobe Illustrator 22.1.0, SVG Export Plug-In . SVG Version: 6.00 Build 0)  -->
<svg version="1.1" id="Layer_1" xmlns="http://www.w3.org/2000/svg" xmlns:xlink="http://www.w3.org/1999/xlink" x="0px" y="0px"
	 viewBox="0 0 1371.9 1224.9" style="enable-background:new 0 0 1371.9 1224.9;" xml:space="preserve">
<style type="text/css">
	.st0{fill:#D5D5D5;}
	.st1{fill:#514361;}
	.st2{font-family:'RobotoMono-Regular';}
	.st3{font-size:35px;}
	.st4{enable-background:new    ;}
	.st5{fill:none;stroke:#AFAFAF;stroke-width:4;stroke-linecap:round;stroke-miterlimit:10;stroke-dasharray:0,9.9536;}
	.st6{font-family:'Roboto-Italic';}
	.st7{font-size:29px;}
	.st8{fill:url(#SVGID_1_);}
	.st9{fill:url(#SVGID_2_);}
</style>
<g>
	<path class="st0" d="M1099.9,650l98.1-112.1l-98.1-112.1H618.7c72.1,0,130.8-58.7,130.8-130.8v-74.8H637.4V295
		c0,10.3-8.4,18.7-18.7,18.7H451h-89.3H2v485.9h373.8h74.8v112.1l149.5,0V799.5c0-82.3-66.8-149.2-149-149.5v0H1099.9z"/>
	<g>
		<g>
			<text transform="matrix(1 0 0 1 147.6682 175.026)" class="st1 st2 st3">direction of flow</text>
		</g>
	</g>
	<g>
		<g>
			<text transform="matrix(1 0 0 1 722.4301 868.1271)" class="st1 st2 st3">line weight</text>
		</g>
	</g>
	<g>
		<g>
			<text transform="matrix(1 0 0 1 40.584 1012.1798)" class="st4"><tspan x="0" y="0" class="st1 st2 st3">flow starts</tspan><tspan x="0" y="42" class="st1 st2 st3">with 100%</tspan></text>
		</g>
	</g>
	<g>
		<g>
			<text transform="matrix(1 0 0 1 1225.0002 506.2747)" class="st4"><tspan x="0" y="0" class="st1 st2 st3">sum of</tspan><tspan x="0" y="42" class="st1 st2 st3">flows</tspan><tspan x="0" y="84" class="st1 st2 st3">=100%</tspan></text>
		</g>
	</g>
	<g>
		<g>
			<text transform="matrix(1 0 0 1 264.209 748.2148)" class="st1 st2 st3">flow C = 35%</text>
		</g>
	</g>
	<g>
		<g>
			<text transform="matrix(1 0 0 1 806.1465 556.668)" class="st1 st2 st3">flow B = 40%</text>
		</g>
	</g>
	<g>
		<g>
			<text transform="matrix(1 0 0 1 399.6934 379.1367)" class="st1 st2 st3">flow A = 25%</text>
		</g>
	</g>
	<line class="st5" x1="112" y1="971" x2="112" y2="640.1"/>
	<line class="st5" x1="757.6" y1="826.1" x2="757.6" y2="550.1"/>
</g>
<g>
	<g>
		<text transform="matrix(1 0 0 1 752.3968 -269.9667)" class="st1 st2 st3">axis and scale</text>
	</g>
</g>
<polyline class="st5" points="1175.6,1087.1 1215,1087.1 1214,122.1 1156,122.1 "/>
<text transform="matrix(1 0 0 1 722.4302 916.0843)" class="st4"><tspan x="0" y="0" class="st1 st6 st7">the weight of the line</tspan><tspan x="0" y="34.8" class="st1 st6 st7">represents the amount of flow</tspan></text>
<text transform="matrix(1 0 0 1 147.6677 214.0843)" class="st1 st6 st7">shown with arrow or gradient</text>
<line class="st5" x1="610" y1="159.8" x2="516.5" y2="159.8"/>
<linearGradient id="SVGID_1_" gradientUnits="userSpaceOnUse" x1="693.6592" y1="230" x2="693.6592" y2="70">
	<stop  offset="0" style="stop-color:#D5D5D5"/>
	<stop  offset="1" style="stop-color:#FFFFFF"/>
</linearGradient>
<rect x="637.8" y="70" class="st8" width="111.7" height="160"/>
<linearGradient id="SVGID_2_" gradientUnits="userSpaceOnUse" x1="850.0518" y1="122.6689" x2="850.0518" y2="21.8203" gradientTransform="matrix(-1 0 0 -1 1375.3184 1034)">
	<stop  offset="0" style="stop-color:#D5D5D5"/>
	<stop  offset="1" style="stop-color:#FFFFFF"/>
</linearGradient>
<polygon class="st9" points="450.5,911.3 600,911.3 600,1012.2 450.5,1012.2 "/>
</svg>
