<?xml version="1.0" encoding="utf-8"?>
<!-- Generator: Adobe Illustrator 22.1.0, SVG Export Plug-In . SVG Version: 6.00 Build 0)  -->
<svg version="1.1" xmlns="http://www.w3.org/2000/svg" xmlns:xlink="http://www.w3.org/1999/xlink" x="0px" y="0px"
	 viewBox="0 0 1268 418" enable-background="new 0 0 1268 418" xml:space="preserve">
<g id="Layer_1">
	
		<rect x="558" y="27.1" transform="matrix(-1 -4.490243e-11 4.490243e-11 -1 1142.985 64)" fill="#EBE5E1" width="27" height="9.9"/>
	
		<rect x="473" y="27.1" transform="matrix(-1 -4.487889e-11 4.487889e-11 -1 1022.8675 64)" fill="#EBE5E1" width="76.9" height="9.9"/>
	
		<rect x="473" y="45.1" transform="matrix(-1 -4.487933e-11 4.487933e-11 -1 1011.9839 100.0218)" fill="#EBE5E1" width="66" height="9.9"/>
	
		<rect x="546.9" y="45.1" transform="matrix(-1 -4.487756e-11 4.487756e-11 -1 1146.8674 100.0218)" fill="#EBE5E1" width="53.1" height="9.9"/>
	
		<rect x="776" y="90.1" transform="matrix(-1 -4.491619e-11 4.491619e-11 -1 1621.985 190)" fill="#EBE5E1" width="70" height="9.9"/>
	
		<rect x="721" y="90.1" transform="matrix(-1 -4.490465e-11 4.490465e-11 -1 1488.8674 190)" fill="#EBE5E1" width="46.9" height="9.9"/>
	
		<rect x="721" y="108.1" transform="matrix(-1 -4.489488e-11 4.489488e-11 -1 1537.9839 226.0219)" fill="#EBE5E1" width="96" height="9.9"/>
	
		<rect x="577" y="353.1" transform="matrix(-1 -4.485136e-11 4.485136e-11 -1 1223.985 716)" fill="#EBE5E1" width="70" height="9.9"/>
	
		<rect x="532" y="353.1" transform="matrix(-1 -5.696167e-11 5.696167e-11 -1 1100.8674 716)" fill="#EBE5E1" width="36.9" height="9.9"/>
	
		<rect x="532" y="371.1" transform="matrix(-1 -5.012669e-11 5.012669e-11 -1 1149.9839 752.0219)" fill="#EBE5E1" width="86" height="9.9"/>
	
		<rect x="1011" y="127.1" transform="matrix(-1 -4.490553e-11 4.490553e-11 -1 2108.8674 264)" fill="#EBE5E1" width="86.9" height="9.9"/>
	
		<rect x="1011" y="145.1" transform="matrix(-1 -4.490287e-11 4.490287e-11 -1 2077.9839 300.0219)" fill="#EBE5E1" width="56" height="9.9"/>
	
		<rect x="1074.9" y="145.1" transform="matrix(-1 -4.489354e-11 4.489354e-11 -1 2205.8674 300.0219)" fill="#EBE5E1" width="56.1" height="9.9"/>
	
		<rect x="1133" y="224.1" transform="matrix(-1 -4.190882e-11 4.190882e-11 -1 2325.9839 458.0219)" fill="#EBE5E1" width="60" height="9.9"/>
	
		<rect x="1200.9" y="224.1" transform="matrix(-1 -3.868429e-11 3.868429e-11 -1 2466.875 458.0219)" fill="#EBE5E1" width="65.1" height="9.9"/>
	<linearGradient id="SVGID_1_" gradientUnits="userSpaceOnUse" x1="2.0001" y1="228.7185" x2="1116.6008" y2="228.7185">
		<stop  offset="0" style="stop-color:#C6BFCF"/>
		<stop  offset="0.2365" style="stop-color:#C3BCCD"/>
		<stop  offset="0.4264" style="stop-color:#BAB2C7"/>
		<stop  offset="0.6002" style="stop-color:#AAA1BC"/>
		<stop  offset="0.7643" style="stop-color:#9489AD"/>
		<stop  offset="0.9203" style="stop-color:#786B9A"/>
		<stop  offset="1" style="stop-color:#67588E"/>
	</linearGradient>
	<polygon fill="url(#SVGID_1_)" points="1116.6,228.7 1107.1,214.2 1107.1,222 2,222 2,235.8 1107.1,235.8 1107.1,243.2 	"/>
	<linearGradient id="SVGID_2_" gradientUnits="userSpaceOnUse" x1="2.0001" y1="289.8158" x2="881.9825" y2="289.8158">
		<stop  offset="0" style="stop-color:#C6BFCF"/>
		<stop  offset="0.2668" style="stop-color:#C3BCCD"/>
		<stop  offset="0.4811" style="stop-color:#BAB2C7"/>
		<stop  offset="0.6772" style="stop-color:#AAA1BC"/>
		<stop  offset="0.8612" style="stop-color:#9489AD"/>
		<stop  offset="1" style="stop-color:#7E729E"/>
	</linearGradient>
	<path fill="url(#SVGID_2_)" d="M872.9,312.5l-53.7-53.7c-14.9-14.9-34.6-23.1-55.7-23.1H2v32h761.5c12.5,0,24.2,4.9,33,13.7
		l53.7,53.7l-8.7,8.7l33.4-7l7-33.4L872.9,312.5z"/>
	<linearGradient id="SVGID_3_" gradientUnits="userSpaceOnUse" x1="2.0001" y1="172.5856" x2="994.6551" y2="172.5856">
		<stop  offset="0" style="stop-color:#C6BFCF"/>
		<stop  offset="0.2668" style="stop-color:#C3BCCD"/>
		<stop  offset="0.4811" style="stop-color:#BAB2C7"/>
		<stop  offset="0.6772" style="stop-color:#AAA1BC"/>
		<stop  offset="0.8612" style="stop-color:#9489AD"/>
		<stop  offset="1" style="stop-color:#7E729E"/>
	</linearGradient>
	<path fill="url(#SVGID_3_)" d="M994.7,152.2l-5-24l-24-5l6.3,6.3l-55.7,55.7c-8.1,8.1-18.9,12.6-30.4,12.6H2V222h883.7
		c18,0,34.9-7,47.6-19.7l55.7-55.7L994.7,152.2z"/>
	<linearGradient id="SVGID_4_" gradientUnits="userSpaceOnUse" x1="2" y1="138.3999" x2="705.3647" y2="138.3999">
		<stop  offset="0" style="stop-color:#C6BFCF"/>
		<stop  offset="0.2668" style="stop-color:#C3BCCD"/>
		<stop  offset="0.4811" style="stop-color:#BAB2C7"/>
		<stop  offset="0.6772" style="stop-color:#AAA1BC"/>
		<stop  offset="0.8612" style="stop-color:#9489AD"/>
		<stop  offset="1" style="stop-color:#7E729E"/>
	</linearGradient>
	<path fill="url(#SVGID_4_)" d="M705.4,131.3l-9-43.3l-43.3-9l9.1,9.1L609,141.3c-6.2,6.2-14.5,9.6-23.3,9.6H2v46.8h583.8
		c21.3,0,41.3-8.3,56.3-23.3l53.2-53.2L705.4,131.3z"/>
	<linearGradient id="SVGID_5_" gradientUnits="userSpaceOnUse" x1="2" y1="75.8739" x2="456.7986" y2="75.8739">
		<stop  offset="0" style="stop-color:#C6BFCF"/>
		<stop  offset="0.314" style="stop-color:#C3BCCD"/>
		<stop  offset="0.5662" style="stop-color:#BAB2C7"/>
		<stop  offset="0.7961" style="stop-color:#AAA1BD"/>
		<stop  offset="1" style="stop-color:#968BAF"/>
	</linearGradient>
	<path fill="url(#SVGID_5_)" d="M456.8,84.2l-14.4-69.1L373.4,0.7l13.5,13.5l-39.8,39.8C334.3,66.9,317.3,74,299.2,74H2V151h297.2
		c38.7,0,75.1-15.1,102.4-42.4l39.8-39.8L456.8,84.2z"/>
	<linearGradient id="SVGID_6_" gradientUnits="userSpaceOnUse" x1="2" y1="341.3393" x2="516.3462" y2="341.3393">
		<stop  offset="0" style="stop-color:#C6BFCF"/>
		<stop  offset="0.2668" style="stop-color:#C3BCCD"/>
		<stop  offset="0.4811" style="stop-color:#BAB2C7"/>
		<stop  offset="0.6772" style="stop-color:#AAA1BC"/>
		<stop  offset="0.8612" style="stop-color:#9489AD"/>
		<stop  offset="1" style="stop-color:#7E729E"/>
	</linearGradient>
	<path fill="url(#SVGID_6_)" d="M505.8,350.7l-48.3-48.3c-22.4-22.4-52.1-34.7-83.7-34.7H2v75.3h371.8c11.5,0,22.3,4.5,30.5,12.6
		l48.3,48.3l-10.9,10.9l61.8-12.9l12.9-61.8L505.8,350.7z"/>
	
		<rect x="943" y="310.1" transform="matrix(-1 -7.848934e-11 7.848934e-11 -1 1925.985 630)" fill="#EBE5E1" width="40" height="9.9"/>
	
		<rect x="898" y="310.1" transform="matrix(-1 -5.696167e-11 5.696167e-11 -1 1832.8674 630)" fill="#EBE5E1" width="36.9" height="9.9"/>
	
		<rect x="898" y="328.1" transform="matrix(-1 -3.716106e-11 3.716106e-11 -1 1911.9839 666.0219)" fill="#EBE5E1" width="116" height="9.9"/>
</g>
<g id="Layer_2">
</g>
<g id="Layer_3">
</g>
</svg>
