<svg enable-background="new 0 0 1268 418" viewBox="0 0 1268 418" xmlns="http://www.w3.org/2000/svg"><g stroke="#7c7c93"><g stroke-width=".9462"><path d="m351.5 103.2-13.9 7.2.7 3.6 18.2 5.7 5.2-6.2z" fill="#9999b0"/><path d="m357.4 156.1 14.1-20.9-15.5-10.2-13.9 6.2 5.7 27.5z" fill="#9999b0"/><path d="m356.7 119.7-18.2-5.7 3.6 17.3 13.9-6.2z" fill="#9999b0"/><path d="m376.2 128.2-14.3-14.5-5.2 6.2-.7 5.4 15.5 10.2z" fill="#9999b0"/><path d="m466.9 269.8-2.9-7.6-10.5 2.7-10.5 28.6 22.2-2.9z" fill="#babad1"/><path d="m418.5 266.5 19.5 27.5 5-.6 10.5-28.7-21-12.7z" fill="#babad1"/><path d="m432.5 252 20.9 12.8 10.5-2.7-11.9-30.3z" fill="#babad1"/><path d="m348.1 253.9-.6-12.8-19.5 7 4.6 16.1z" fill="#d1d1e8"/><path d="m327.9 248.2 19.6-7-.4-9-17.2-14.5-11.6 14.8 2.2 11z" fill="#d1d1e8"/><path d="m310.5 268.4 9.2 4.3 12.8-8.5-4.6-16.1-7.5-4.6-19.2 8.5v2.3z" fill="#d1d1e8"/><path d="m318.3 232.5-15.6-5.7-1.4 25.4 19.2-8.5z" fill="#d1d1e8"/><path d="m302.9 220.2-.4 6.5 15.6 5.7 11.6-14.8-8-6.9z" fill="#d1d1e8"/><path d="m319.7 272.7-9.2-4.3-14.5 8.5 7.7 14.9 7.3 2.4z" fill="#e2e2f9"/><path d="m288.6 300.5 15.3-8.7-7.7-14.9-16.3 9.6z" fill="#e2e2f9"/><path d="m311.1 294.3-7.3-2.4-15.3 8.7 12.5 19.8z" fill="#e2e2f9"/><path d="m385.1 235.7.6 14.2 32.8 16.6 12.8-13.2-10.3-25.8-31.8 1.4z" fill="#9f9fb6"/><path d="m389.2 229.1 31.8-1.4 3.7-8.3-24.2-8.6z" fill="#9f9fb6"/><path d="m450.7 228.5-26.1-9.3-3.6 8.3 10.3 25.8 20.8-21.5z" fill="#9f9fb6"/><path d="m401.4 387.5 3.9-4.9-23.5-20.9-13.8 9.2-1.7 16.6z" fill="#bfbfd6"/><path d="m381.8 361.8-.4-16.5-14.6-7.3-15.6 14.1-.3 5.3 17.3 13.5z" fill="#bfbfd6"/><path d="m340.9 323.9 19.1-.7 11.6-23.4-5.9-11.3-24.7-5.3-13.8 16.5z" fill="#bfbfd6"/><path d="m360.1 323.3 6.6 14.9 14.6 7.3 29-18.8.9-7.2-19.2-21.7-20.2 2z" fill="#bfbfd6"/><path d="m433.5 347.4 10.5-13.2-4-27.2-28.8 12.5-.9 7.2z" fill="#bfbfd6"/><path d="m333 371.4 17.6-13.9.3-5.3-16.2-16.1-18.8 8z" fill="#bfbfd6"/><path d="m340.9 323.9-6.2 12.2 16.3 16.2 15.5-14.2-6.6-14.9z" fill="#bfbfd6"/><path d="m378.3 272.4-12.5 16.1 5.9 11.3 20.2-2 3-17.8z" fill="#bfbfd6"/><path d="m385.7 249.9-10.3 1.1 2.9 21.4 16.6 7.6 19.1-15.8z" fill="#bfbfd6"/><path d="m433.5 347.4-23.2-20.9-29 18.8.4 16.5 23.5 21.1z" fill="#bfbfd6"/><path d="m332.2 264.5-12.5 8.2-9.5 24.4 17.2 2.7 13.8-16.5z" fill="#bfbfd6"/><path d="m411.2 319.4 28.8-12.5-1.9-12.9-19.5-27.5-4.6-2.3-19 15.8-3 17.8z" fill="#bfbfd6"/><path d="m343.2 387.5h23.1l1.7-16.6-17.3-13.5-17.7 13.9z" fill="#bfbfd6"/><path d="m340.9 323.9-13.6-24.2-17.2-2.7-9.2 23.4 14.9 23.8 18.8-8z" fill="#bfbfd6"/><path d="m378.3 272.4-2.9-21.4-27.4 2.9-15.9 10.5 8.9 18.6 24.7 5.4z" fill="#bfbfd6"/><path d="m247 219.5-7.6-16.5-14.2 11 10.2 13.3z" fill="#d1d1e8"/><path d="m210.7 195.7 21.5-8.5-3.6-7.6-20.9 9.5z" fill="#d1d1e8"/><path d="m239.4 203-7.3-15.8-21.5 8.5 8.5 18.9 6.2-.6z" fill="#d1d1e8"/><path d="m235.4 227.4-10.2-13.4-6.2.6 8.2 18.2z" fill="#d1d1e8"/><path d="m228.7 179.6 3 6.6 24.7 2.7 4.7-13.5-3.9-8.9z" fill="#e3e3fa"/><path d="m286.4 153.4-29.1 13.2 3.9 8.9 20.9 4.4z" fill="#e3e3fa"/><path d="m274.7 223.5 3.9-23.2-20.5-6.5-14.3 18.5 3.3 7.2z" fill="#e3e3fa"/><path d="m258.2 193.8 20.5 6.5 3.3-20.4-20.9-4.4-4.7 13.5z" fill="#e3e3fa"/><path d="m243.7 212.3 14.3-18.5-1.7-4.9-24.7-2.7z" fill="#e3e3fa"/><path d="m267.5 266.9 7.3-43.4-27.7-4-19.8 13.3 15.5 34.7z" fill="#9e9eb5"/><path d="m157.3 242.4 1.1-1.3.7-16.3-14.8-1 6.6 18.5h6.3v.1z" fill="#bebed5"/><path d="m157.3 242.4 4.3 9.9h16.2l-4.9-14.6-14.5 3.4z" fill="#bebed5"/><path d="m158.4 259.8 10.2 10.2 9.2-17.5h-16.1z" fill="#bebed5"/><path d="m117.6 222.1v31.8l15.9 4.7 9.2-3 8.2-13.2-6.6-18.5z" fill="#bebed5"/><path d="m165.6 275.8 3.2-5.9-10.2-10.2-8.3 2.4-2.2 13z" fill="#bebed5"/><path d="m157.3 242.4h-6.5l-8.2 13.2 7.5 6.5 8.3-2.4 3.3-7.3z" fill="#bebed5"/><path d="m168.9 225.5-9.7-.7-.7 16.3 14.5-3.4z" fill="#bebed5"/><path d="m117.6 273.8 14.8.6 1.1-15.9-15.9-4.7v19.9z" fill="#bebed5"/><path d="m133.5 258.6-1.1 15.9 15.8.7 2.2-13-7.5-6.5z" fill="#bebed5"/><path d="m137.3 365.3 11.6 9.6h3.6l-7.5-24.9-12.9 2.2z" fill="#d2d2e9"/><path d="m186.9 318.8-25.8-4-1.7 17.2 30.1 7z" fill="#d2d2e9"/><path d="m152.5 375 19.2.3 20.3-14.3-2.7-22.1-30.1-7-7.7 4.6-6.3 13.3z" fill="#d2d2e9"/><path d="m133.5 328-4.3 16.3 3 7.9 12.9-2.2 6.3-13.3-16.1-10.9z" fill="#d2d2e9"/><path d="m146.7 312.5-11.2 13.2 16.1 10.9 7.7-4.6 1.7-17.2z" fill="#d2d2e9"/><path d="m276 353.8.4-2.4-3.7-5.9-4.2 1-3.3 7 7 3.2z" fill="#e5e5fc"/><path d="m274.8 380.3-6.2 3 2.7 4.3h5.4v-5.7z" fill="#e5e5fc"/><path d="m277 381.8v5.7h7.5l-2.2-7.3z" fill="#e5e5fc"/><path d="m295.6 349.7-4.2 1-1.1 3.7 2.3 3.4 6.6-3.9-.3-1.3z" fill="#e5e5fc"/><path d="m291.5 350.7-4-3.3-4 2.4.7 3.9 6 .6z" fill="#e5e5fc"/><path d="m268.7 383.3 6.2-3 .3-5.9-5.9-2.3-5 4.3z" fill="#e5e5fc"/><path d="m276 353.8-3.7 2.6v6l6.2 2.2 3.7-3-.4-4.7z" fill="#e5e5fc"/><path d="m276 353.8 5.6 3 2.7-3-.7-3.9-2.4-1.3-4.7 2.7z" fill="#e5e5fc"/><path d="m293.9 380.9 7.7 6.3 4.2-8.6-7.9-4z" fill="#e5e5fc"/><path d="m310.1 369.6-8.5-2.7-3.7 7.7 7.9 4z" fill="#e5e5fc"/><path d="m282.1 380.2 2.2 7.3h7l2.6-6.7-5.6-4.9h-1.4l-4 2.4z" fill="#e5e5fc"/><path d="m303.2 360.1 7-.4-1.7-7.3-6.6 3.6z" fill="#e5e5fc"/><path d="m301.8 366.9 8.5 2.7 1.6-3.4-1.6-6.6-7 .4-2.4 4.6z" fill="#e5e5fc"/><path d="m284.4 353.8-2.7 3 .4 4.7 4.2 2.4 6.3-3.6.3-2.4-2.3-3.4z" fill="#e5e5fc"/><path d="m283.6 349.9 4-2.4-.3-5.4-7 1.6 1 5z" fill="#e5e5fc"/><path d="m261.8 360.7-1.3 2.7.7 5.6 6.6-1.1 1-3.3z" fill="#e5e5fc"/><path d="m265.2 353.2-3.6 7.5 7 4 3.3-2.2v-6z" fill="#e5e5fc"/><path d="m295.6 349.7 2.6-6.3-3.9-2.9-7 1.6.3 5.4 4 3.3z" fill="#e5e5fc"/><path d="m300.8 364.7 2.4-4.6-1.4-4.2-2.6-1.9-6.6 3.9-.3 2.4 2 3.2z" fill="#e5e5fc"/><path d="m298.2 343.3-2.6 6.3 3.4 3.2 4.6-5.3z" fill="#e5e5fc"/><path d="m308.1 350.7-4.3-3.2-4.6 5.3.3 1.3 2.6 1.9 6.6-3.6z" fill="#e5e5fc"/><path d="m286.7 367.1-.7-3.1-4.2-2.4-3.7 3 1.4 5.3h4.3z" fill="#e5e5fc"/><path d="m268.8 364.7-1 3.3 1.4 4.2 5.9 2.3 2.7-1.3 1.9-3.2-1.4-5.3-6.2-2.2z" fill="#e5e5fc"/><path d="m301.5 387.5v-.3l-7.7-6.3-2.6 6.7h10.2z" fill="#e5e5fc"/><path d="m261.6 372.3 2.7 4.2 5-4.3-1.4-4.2-6.6 1.1z" fill="#e5e5fc"/><path d="m301.8 366.9-1-2.2-6.5-1.3-3.4 5 1.1 3.6 5.7 2.6z" fill="#e5e5fc"/><path d="m281.1 348.7-1-5-7.5 1.7 3.7 5.9z" fill="#e5e5fc"/><path d="m282.9 378.5 4-2.4-2.7-6h-4.3l-1.9 3.2z" fill="#e5e5fc"/><path d="m286.9 376h1.4l3.9-3.9-1.1-3.6-4.2-1.4-2.6 2.9z" fill="#e5e5fc"/><path d="m293.9 380.9 3.9-6.2-5.7-2.6-3.9 3.9z" fill="#e5e5fc"/><path d="m286.7 367.1 4.2 1.4 3.4-5-2-3.2-6.3 3.7z" fill="#e5e5fc"/><path d="m274.8 380.3 2.2 1.4 5.2-1.6.9-1.7-5-5.4-2.7 1.3z" fill="#e5e5fc"/><path d="m176.2 110.4 2.7-1.4 6.6-25.5-21.4-19.6-19.9 6.3-2.7 18.8z" fill="#9d9db4"/><path d="m188.8 69.9-12-10.2-12.6 4 21.2 19.6z" fill="#9d9db4"/><path d="m262.6 119.8 14.8-18.5-10.2-16.3-13 6.9z" fill="#bbbbd2"/><path d="m265.9 126.1 32.7-9.9-3.9-14.2-17.2-.9-14.8 18.5 1.9 6z" fill="#bbbbd2"/><path d="m267.2 85 10.2 16.3 17.2.9-7.6-27.5z" fill="#bbbbd2"/><path d="m155.5 34.4-22.5 4.1-2.3 20.8 13.3 10.6 19.9-6.3.3-20.2z" fill="#d2d2e9"/><path d="m176.8 59.8.6-18.4-12.9 2.2-.3 20.2z" fill="#d2d2e9"/><path d="m133.2 38.5 22.5-4.2 1-8.7h-21.9z" fill="#d2d2e9"/><path d="m177.3 41.4.4-15.9h-21.2l-1 8.7 8.7 9.3z" fill="#d2d2e9"/><path d="m351.5 177-8.3 23.2 11.9-5.9z" fill="#e6e6fd"/><path d="m286.4 153.4-7.2 43.2 28.8 21.2 35.1-17.5 8.3-23.2-5.2-24.8-33-10-24.5 7.2z" fill="#e6e6fd"/><path d="m307.9 217.6-28.8-21.1-6.5 38.6z" fill="#e6e6fd"/><path d="m302.1 128.7-13 20.5 24.5-7.2-3.9-17.3z" fill="#e6e6fd"/><path d="m337.8 110.4-28.1 14.5 3.9 17.3 33 10z" fill="#e6e6fd"/><path d="m466.9 269.8-1.3 15.3 15.2-1.1.9-15.2z" fill="#9090a7"/><path d="m488.9 290.9 12-2.9 4.9-20.8-24.1 1.6-.9 15.2z" fill="#9090a7"/><path d="m502.8 312.2 17.5 2.3 4.3-11.3-17.5-4.9-6 9.3z" fill="#9090a7"/><path d="m489.9 333.7 12.9-21.5-1.7-4.6-11.8-5.9-19.8 13.3z" fill="#9090a7"/><path d="m524.6 303.2-4.3 11.3 9.9 14.2 14.9-13.2-13.9-15.2z" fill="#9090a7"/><path d="m501.1 307.6 6-9.3-6.2-10.2-12 2.9.4 10.9z" fill="#9090a7"/><path d="m465.7 285.1-2 24.5 5.9 5.4 19.8-13.3-.4-10.9-8-6.9z" fill="#9090a7"/><path d="m531 300.3 13.9 15.2 9.9-8.6v-14.8l-18.6.6z" fill="#9090a7"/><path d="m529.6 265.6 6.6 27.2 18.6-.6v-28.2z" fill="#9090a7"/><path d="m502.8 312.2-12.9 21.5 16.8 15.6 23.5-20.6-9.9-14.2z" fill="#9090a7"/><path d="m507.1 298.3 17.3 4.9 6.6-2.7 5.2-7.5-6.6-27.2-23.8 1.6-4.9 20.8z" fill="#9090a7"/><path d="m406.7 151.4-18.4 18.2-2 36 35.8 12.8 25.2-32.8-4-28.4-4.3-4z" fill="#b4b4cb"/><path d="m406.7 151.4 32.3 1.6 9.7-60.2-49-2.6-12 36.8z" fill="#b4b4cb"/><path d="m406.7 151.4-19.1-24.5-11.5 1.3-18.8 28 30.8 13.3z" fill="#b4b4cb"/><path d="m450.7 228.5 25.9-26.8-29.4-16.2-25.2 32.7z" fill="#b4b4cb"/><path d="m465.7 93.6-16.9-.9-9.8 60.3 4.3 4 46.5-.3 6.9-43.6z" fill="#b4b4cb"/><path d="m337.8 110.4 10 48.5 9.6-2.7 18.8-28-24.7-24.9z" fill="none"/><path d="m399.7 90.2-20.4-1.2-27.8 14.3 24.5 24.8 11.5-1.3z" fill="#b4b4cb"/><path d="m483.7 194.5 6-37.8-46.5.3 4 28.5 29.4 16.2z" fill="#b4b4cb"/><path d="m357.4 156.1-9.6 2.7 7.3 35.4 31 11 2-36z" fill="#b4b4cb"/><path d="m451.9 387.5-2.6-35.3-12.3-9.3-35.6 44.6z" fill="#d0d0e7"/><path d="m506.7 349.4-24.9-23.1-14.3 24.7 16.6 18.5z" fill="#d0d0e7"/><path d="m449.3 352.4 2.6 35.3h11.5l20.6-18.4-16.6-18.4z" fill="#d0d0e7"/><path d="m481.7 326.3-18.1-16.6-26.6 33.4 12.3 9.3 18.1-1.4z" fill="#d0d0e7"/><path d="m488.4 164.9 33.5 13.9 32.8-19.6v-9.5l-58.2-36.6z" fill="#e3e3fa"/><path d="m554.8 210.3v-51.2l-32.8 19.7-1.6 23.9z" fill="#e3e3fa"/><path d="m520.4 202.7 1.6-23.9-33.5-13.9-4.6 29.7z" fill="#e3e3fa"/><path d="m438.1 294 27.2-3.4 1.6-20.9-14.8-37.8-33.5 34.7z" fill="none"/><path d="m346.9 232.2-25.2-21.4-18.8 9.3-1.9 34.1 9.5 14.2 9.2 4.3 28.4-18.8z" fill="none"/><path d="m310.5 268.4-30.8 18.1 21.2 33.8 18.6-47.7z" fill="none"/><path d="m272.8 235.1-2.7 16.6 31 2.4 1.9-34.1z" fill="#9999b0"/><path d="m418.5 266.5 33.5-34.7-1.3-3.3-50.3-17.9-15.5 25.1.6 14.2z" fill="none"/><path d="m343.2 387.5h58.2l42.6-53.3-5.9-40.1-19.5-27.5-32.8-16.6-37.6 4-28.4 18.8-18.6 47.7z" fill="none"/><path d="m270.1 251.7-2.6 15.2 12.3 19.5 30.8-18.1-9.5-14.2z" fill="#9999b0"/><path d="m346.9 232.2 1.1 21.8 37.6-4-.6-14.2-22.4-13.5z" fill="#9999b0"/><path d="m355.1 194.4-33.4 16.5 25.2 21.4 15.8-10 2.9-24.1z" fill="#9999b0"/><path d="m463.6 309.5 1.6-18.9-27.2 3.4 5.9 40.1z" fill="#9999b0"/><path d="m365.6 198.1-2.9 24.1 22.4 13.5 15.5-25.1z" fill="#9999b0"/></g><path d="m207.7 189.1 19.5 43.7 19.8-13.3-18.4-39.9z" fill="none" stroke-width="2.1935"/><path d="m228.7 179.6 18.4 39.9 27.7 4 11.6-70.1z" fill="none" stroke-width="2.1935"/><path d="m267.5 266.9 7.3-43.4-27.7-4-19.8 13.3 15.5 34.7z" fill="none" stroke-width="2.1935"/><path d="m165.6 275.8-48-2v34.1l46 7.2 7.5-30z" fill="#babad1" stroke-width="2.1935"/><path d="m187.5 286.4 14.2 18.9 22.2-20.5-14.9-17.3-6.9-1.3z" fill="#babad1" stroke-width="2.1935"/><path d="m177.8 252.5-9-27-51.2-3.4v51.8l48 2z" fill="none" stroke-width="2.1935"/><path d="m174.5 219.2-5.7 6.3 9 27 15.3.7 8-15.6-5.4-14.1z" fill="#babad1" stroke-width="2.1935"/><path d="m177.8 252.5-12.2 23.5 5.4 9.5 16.5 1.1 14.6-20.4-9-13z" fill="#babad1" stroke-width="2.1935"/><path d="m186.9 318.8 14.8-13.6-14.2-18.9-16.5-1.1-7.5 30z" fill="#babad1" stroke-width="2.1935"/><path d="m117.6 201 24.9-26.5-24.8-5.6v32.1z" fill="#babad1" stroke-width="2.1935"/><path d="m229.5 237.8-14.2-31.8-19.6 17.5 5.4 14.1h28.4z" fill="#babad1" stroke-width="2.1935"/><path d="m174.8 181.6-.4 37.6 21.2 4.3 19.8-17.5-7.5-16.9z" fill="#babad1" stroke-width="2.1935"/><path d="m174.5 219.2.3-37.6-32.4-7.2-24.8 26.6v21.1l51.2 3.4z" fill="#babad1" stroke-width="2.1935"/><path d="m232.8 245.3-3.3-7.5-28.4-.3-8 15.5 9.2 13 6.9 1.3z" fill="#babad1" stroke-width="2.1935"/><path d="m242.9 267.5-9.9-22.2-23.8 22.2 14.8 17.3z" fill="#babad1" stroke-width="2.1935"/><path d="m171.9 375.3 20.2-14.3-5.2-42.2-40.3-6.3-13 15.5-4.3 16.3 8.2 21.1 11.6 9.6z" fill="none" stroke-width="2.1935"/><path d="m147.5 387.5h26.5l-2.2-12.3-22.8-.4z" fill="#b4b4cb" stroke-width="2.1935"/><path d="m117.6 344.9 11.6-.6 4.3-16.3-15.9-4.7z" fill="#b4b4cb" stroke-width="2.1935"/><path d="m174 387.5h21.2l-3.2-26.5-20.2 14.3z" fill="#b4b4cb" stroke-width="2.1935"/><path d="m117.6 387.5h30l1.4-12.8-11.6-9.6-19.8 7.7z" fill="#b4b4cb" stroke-width="2.1935"/><path d="m117.6 307.9v15.3l15.9 4.7 13-15.5z" fill="#b4b4cb" stroke-width="2.1935"/><path d="m117.6 373 19.8-7.6-8.2-21.1-11.6.6z" fill="#b4b4cb" stroke-width="2.1935"/><path d="m463.4 387.5h56.5l1.1-11-16.1-25.7z" fill="#d1d1e8" stroke-width="2.1935"/><path d="m528.7 329.7 26.1 13.9v-36.8z" fill="#d1d1e8" stroke-width="2.1935"/><path d="m519.8 387.5h35v-21.2l-33.8 10.2z" fill="#d1d1e8" stroke-width="2.1935"/><path d="m504.9 350.8 15.9 25.7 34-10.2v-22.7l-25.9-13.8z" fill="#d1d1e8" stroke-width="2.1935"/><path d="m465.7 93.6 14.3-68.1h-107l6.5 63.5z" fill="#e2e2f9" stroke-width="2.1935"/><path d="m280.3 50.3 7 25.5 24.7-19.3-11.5-11.5z" fill="#9f9fb6" stroke-width="2.1935"/><path d="m346.8 78.5-3.4 29 24.4-12.6-11.9-17.2z" fill="#9f9fb6" stroke-width="2.1935"/><path d="m312 56.5 7.6-.7 8.7-30.3h-25.5l-2.3 19.4z" fill="#9f9fb6" stroke-width="2.1935"/><path d="m312 56.5-24.5 19.4 9 32.8 26.7 9.2 20.2-10.5 3.4-29-27.2-22.7z" fill="#9f9fb6" stroke-width="2.1935"/><path d="m280.3 50.3 20.1-5.3 2.4-19.5h-29.2z" fill="#9f9fb6" stroke-width="2.1935"/><path d="m346.8 78.5 9-.7 21.1-13.5-3.9-38.8h-44.7l-8.7 30.3z" fill="#9f9fb6" stroke-width="2.1935"/><path d="m367.9 94.9 11.6-5.9-2.4-24.7-21.1 13.5z" fill="#9f9fb6" stroke-width="2.1935"/><path d="m323.1 118-26.7-9.2 5.6 20.1z" fill="#9f9fb6" stroke-width="2.1935"/><path d="m248.3 387.5v-3l-11.6-10.8-8.7 6-.9 7.7h21.2z" fill="#bfbfd6" stroke-width="2.1935"/><path d="m253 315.8-13-.9-1 5.3 13.2 6.7z" fill="#bfbfd6" stroke-width="2.1935"/><path d="m186.9 318.8 1.4 11.2 16.6 4.9 5.7-2.9 4.7-12.8-13.2-14.3z" fill="#bfbfd6" stroke-width="2.1935"/><path d="m190.5 347.8 12.5-3.4 1.9-9.6-16.6-4.9z" fill="#bfbfd6" stroke-width="2.1935"/><path d="m343.2 387.5-14.9-23.8-6.6 4v19.8z" fill="#bfbfd6" stroke-width="2.1935"/><path d="m249 290.4-5.2-22.9h-1.1l-22.9 21.1 13.3 12z" fill="#bfbfd6" stroke-width="2.1935"/><path d="m268.5 346.4-13.8-10.9-13.6 11.6 1 10.8 18.5 5.6z" fill="#bfbfd6" stroke-width="2.1935"/><path d="m204.9 334.7-1.9 9.6 7.7 8.5h3.2l8.3-13.5-11.5-7.3z" fill="#bfbfd6" stroke-width="2.1935"/><path d="m202.1 304.8 13.2 14.3 6.9-.3 11.2-12-.3-6.2-13.3-12z" fill="#bfbfd6" stroke-width="2.1935"/><path d="m228.7 325.3-6.5-6.5-6.9.3-4.7 12.6 11.5 7.3 3.6-1.3z" fill="#bfbfd6" stroke-width="2.1935"/><path d="m267.5 266.9-23.7.6 5.2 22.9 14.9 7.6 12.9-16.3z" fill="#bfbfd6" stroke-width="2.1935"/><path d="m228.7 325.3-3 12.6 15.5 9.2 13.6-11.6-2.6-8.5-13.2-6.7z" fill="#bfbfd6" stroke-width="2.1935"/><path d="m261.6 372.3-1.1-8.9-18.5-5.6-5.6 6.2v9.7l11.6 10.8z" fill="#bfbfd6" stroke-width="2.1935"/><path d="m321.9 387.5v-19.8l-9.9-1.6-10.2 21.4z" fill="#bfbfd6" stroke-width="2.1935"/><path d="m321.7 367.7 6.6-4-11.6-18.6-8.5 5.4 3.7 15.6z" fill="#bfbfd6" stroke-width="2.1935"/><path d="m227.9 379.8 8.7-6v-9.8h-14.3l-3 6.6z" fill="#bfbfd6" stroke-width="2.1935"/><path d="m241.1 347.1-15.5-9.2-3.6 1.3-8.3 13.5 8.3 11.6h14.3l5.6-6.2z" fill="#bfbfd6" stroke-width="2.1935"/><path d="m248.3 387.5h23.1l-9.7-15.2-13.3 12.3v3-.1z" fill="#bfbfd6" stroke-width="2.1935"/><path d="m261.6 372.3 9.9 15.2h30.1l10.2-21.4-3.7-15.6-13.8-10.2-25.7 5.9-8.2 17.1z" fill="none" stroke-width="2.1935"/><path d="m228.7 325.3 10.3-5 1-5.3-6.7-8.2-11.2 12z" fill="#bfbfd6" stroke-width="2.1935"/><path d="m276.7 281.7-12.9 16.3.3.7 22.9-.6z" fill="#bfbfd6" stroke-width="2.1935"/><path d="m226.9 387.5.9-7.7-8.7-8.9-8.3 2.7v13.9z" fill="#bfbfd6" stroke-width="2.1935"/><path d="m253 315.8-.9 11.2 2.6 8.5 13.8 10.9 25.7-5.9 9.5-15.9-16.7-26.6-22.9.6z" fill="#bfbfd6" stroke-width="2.1935"/><path d="m195.3 387.5h15.6v-13.9l-3-1.7-13.9 3.9z" fill="#bfbfd6" stroke-width="2.1935"/><path d="m249 290.4-15.9 10.2.3 6.2 6.7 8.2 13 .9 11-17.1-.3-.7z" fill="#bfbfd6" stroke-width="2.1935"/><path d="m210.6 352.8-7.6-8.5-12.5 3.4 1.4 11.9 12.9.4z" fill="#bfbfd6" stroke-width="2.1935"/><path d="m219.1 370.9 3-6.6-8.3-11.6h-3.2l-5.9 7.2 3 11.9 3 1.7z" fill="#bfbfd6" stroke-width="2.1935"/><path d="m193.8 375.8 13.9-3.9-3-11.9-12.9-.4z" fill="#bfbfd6" stroke-width="2.1935"/><path d="m303.6 324.6-9.5 15.9 13.8 10.2 8.5-5.4z" fill="#bfbfd6" stroke-width="2.1935"/><path d="m476.4 42.6 23.7-.7 3.7-16.3h-23.8z" fill="#d1d1e8" stroke-width="2.1935"/><path d="m521.7 90.2 10-11.8-1.7-16.6-10-6.8-7.6 1.3-9.2 16.3 7.8 15.4z" fill="#d1d1e8" stroke-width="2.1935"/><path d="m521.7 90.2 5.4 10.6 27.7.7v-18.7l-23.1-4.6z" fill="#d1d1e8" stroke-width="2.1935"/><path d="m512.2 56.3-12.2-14.5-23.7.7-5.6 26.8 32.4 3.2z" fill="#d1d1e8" stroke-width="2.1935"/><path d="m554.8 56.6-24.8 5.2 1.7 16.6 23.1 4.4z" fill="#d1d1e8" stroke-width="2.1935"/><path d="m465.7 93.6 28.2 17.8 17.1-23.4-7.7-15.3-32.4-3.2z" fill="#d1d1e8" stroke-width="2.1935"/><path d="m524.1 25.5h-20.4l-3.7 16.2 12.2 14.5 7.6-1.3z" fill="#d1d1e8" stroke-width="2.1935"/><path d="m554.8 25.5h-30.7l-4.1 29.4 10 6.7 24.8-5z" fill="#d1d1e8" stroke-width="2.1935"/><path d="m521.7 90.2-10.7-2.2-17 23.5 19.5 12.3 13.6-23.1z" fill="#d1d1e8" stroke-width="2.1935"/><path d="m554.8 149.8v-48.3l-27.7-.7-13.5 22.9z" fill="#d1d1e8" stroke-width="2.1935"/><path d="m183.5 183.6 24.2 5.4 21.2-9.6-5.2-24.1-7.5-6.3-28.2 11.3z" fill="#e3e3fa" stroke-width="2.1935"/><path d="m177.8 25.5-1.1 34.3 12.2 10.2 29.2-9.2 1.7-9.2-12.8-26.1z" fill="#e3e3fa" stroke-width="2.1935"/><path d="m216.3 149.2 7.5 6.3 26.1-4 8.5-23.1-23.4-13.2-18.4 10.5z" fill="#e3e3fa" stroke-width="2.1935"/><path d="m216.3 149.2.4-23.5-38-16.8-2.7 1.4-8.9 28.1 20.9 22.1z" fill="#e3e3fa" stroke-width="2.1935"/><path d="m207 25.5 12.8 25.9 19.1-25.9z" fill="#e3e3fa" stroke-width="2.1935"/><path d="m183.5 183.6 4.6-23.1-20.9-22.2-23.9 11.8-2.9 23.8z" fill="#e3e3fa" stroke-width="2.1935"/><path d="m176.8 59.8-32.5 10.2-2.8 19 34.7 21.4 2.7-1.4 10-39.1z" fill="none" stroke-width="2.1935"/><path d="m259.1 165.9 26.4-11.9-19.5-27.7-1.4-.3-6.2 2.6-8.5 22.9z" fill="#e3e3fa" stroke-width="2.1935"/><path d="m235 115.1 23.4 13.2 6.2-2.6-10.3-34-9.3-.4z" fill="#e3e3fa" stroke-width="2.1935"/><path d="m259.1 165.9-9.2-14.3-25.9 3.9 5.2 24.1z" fill="#e3e3fa" stroke-width="2.1935"/><path d="m287.2 74.7-33 17.2 10.3 34 1.4.3 32.7-9.9z" fill="none" stroke-width="2.1935"/><path d="m167.2 138.3 8.9-28.1-34.6-21.2-23.9 8v43.7l25.8 9.5z" fill="#e3e3fa" stroke-width="2.1935"/><path d="m286.4 153.4 15.6-24.5-3.4-12.5-32.7 9.9 19.5 27.7z" fill="#e3e3fa" stroke-width="2.1935"/><path d="m176.8 59.8 1-34.3h-43.2l-3.7 33.8 13.3 10.6z" fill="none" stroke-width="2.1935"/><path d="m134.5 25.5h-16.9v35.4l13.2-1.4z" fill="#e3e3fa" stroke-width="2.1935"/><path d="m178.9 108.9 37.8 16.8 18.4-10.6 9.7-23.8-26.7-30.7-29.1 9.2z" fill="#e3e3fa" stroke-width="2.1935"/><path d="m117.6 169 22.8 5 2.9-23.8-25.8-9.5v28.1z" fill="#e3e3fa" stroke-width="2.1935"/><path d="m117.6 60.9v36.1l23.9-8 2.7-18.9-13.3-10.6z" fill="#e3e3fa" stroke-width="2.1935"/><path d="m254 91.9 33-17.2-13.5-49.2h-34.5l-19.1 25.9-1.7 9.2 26.7 30.7z" fill="#e3e3fa" stroke-width="2.1935"/><path d="m286.4 153.4-13.6 81.7 82.3-40.7-17.5-83.9-35.6 18.4z" fill="none" stroke-width="2.1935"/><path d="m554.8 306.8v-42.7l-87.9 5.7-3.3 39.9 43 39.7z" fill="none" stroke-width="2.1935"/><path d="m483.7 194.5 12.9-81.4-31-19.5-86.3-4.6-41.7 21.5 17.5 83.9 95.6 34.1z" fill="none" stroke-width="2.1935"/><path d="m401.4 387.5h61.9l43.3-38.1-43-39.7z" fill="none" stroke-width="2.1935"/><path d="m554.8 149.8-58.2-36.7-12.9 81.4 71.1 15.8z" fill="none" stroke-width="2.1935"/><path d="m267.5 266.9 75.7 120.7h58.2l62.2-78.1 3.3-39.9-16.2-41.1-95.6-34.1-82.4 40.7z" fill="none" stroke-width="2.1935"/><path d="m554.8 210.3-71.1-15.8-33 34 16.2 41.3 87.9-5.7z" fill="#9e9eb5" stroke-width="2.1935"/><path d="m242.9 267.5 24.7-.6 18.9-113.5-78.6 35.7z" fill="none" stroke-width="3.4409"/><path d="m242.9 267.5-35-78.4-90.3-20.1v138.9l69.4 10.8z" fill="none" stroke-width="3.4409"/><path d="m117.6 387.5h77.7l-8.3-68.8-69.4-10.8z" fill="none" stroke-width="3.4409"/><path d="m554.8 387.5v-80.7l-91.5 80.7z" fill="none" stroke-width="3.4409"/><path d="m465.7 93.6 14.3-68.1h-107l6.5 63.5z" fill="none" stroke-width="3.4409"/><path d="m273.5 25.5 28.5 103.2 77.3-39.7-6.3-63.5z" fill="none" stroke-width="3.4409"/><path d="m195.3 387.5h148l-75.7-120.7-24.7.6-55.9 51.2z" fill="none" stroke-width="3.4409"/><path d="m554.8 25.5h-74.8l-14.3 68.1 89.2 56.2v-124.3z" fill="none" stroke-width="3.4409"/><path d="m302.1 128.7-28.6-103.2h-156v143.4l90.2 20.1 78.7-35.6z" fill="none" stroke-width="3.4409"/><path d="m554.8 149.8-89.2-56.2-86.3-4.6-77.3 39.9-15.6 24.7-18.9 113.5 75.7 120.6h120.1l91.5-80.9z" fill="none" stroke-width="3.4409"/><path d="m554.8 387.5v-362h-437.2v362z" fill="none" stroke-width="4.7025"/><path d="m828.4 90.4-12.2 9 2 10.7 16.9-3.2z" fill="#9999b0" stroke-width=".97"/><path d="m794 94.2-7 9.6-6.4 10.1-2 3.6 24.2-4.5-1.7-17.3-4.4-4.5z" fill="#9999b0" stroke-width=".97"/><path d="m816.2 99.3 12.2-9-9.3-22.7-.6.6-8.6 8.1-8.1 8.6-4.9 5.9 4.4 4.5z" fill="#9999b0" stroke-width=".97"/><path d="m818.1 110-2-10.7-15-3.8 1.7 17.3z" fill="#9999b0" stroke-width=".97"/><path d="m887.8 75.9-14.2-10.4-9.3 12.8 10.7 21.4 12.5-2.3z" fill="#babad1" stroke-width=".97"/><path d="m875.1 99.5-10.7-21.4-14.4 3.9 1.2 21.9z" fill="#babad1" stroke-width=".97"/><path d="m864.3 78.1 9.3-12.8-25.3-18.7-1.1.6-10.1 6.4-.6.5 6.6 24.8 6.9 3.2z" fill="#babad1" stroke-width=".97"/><path d="m835.2 106.8 16-2.9-1.3-21.9-6.9-3.2-16.7 6.8z" fill="#babad1" stroke-width=".97"/><path d="m827.5 60.7-8.5 7 7.4 17.9 16.7-6.8-6.6-24.8z" fill="#babad1" stroke-width=".97"/><path d="m888.4 29.2-9.1 2.9-11.1 4.4-10.7 5-9.3 5.2 39.5 29.1z" fill="#d1d1e8" stroke-width=".97"/><path d="m1063.9 258v5l9.6 6.8 7.2-9.2-5.9-6.5z" fill="#e2e2f9" stroke-width=".97"/><path d="m1089 243-4.9-5.5-9.2 16.5 5.9 6.5 8.3.7v-18.2z" fill="#e2e2f9" stroke-width=".97"/><path d="m1052.5 253.3-6.3 7v.6l10.7 8.5 7-6.3v-5z" fill="#e2e2f9" stroke-width=".97"/><path d="m1072.9 224.6-17.4-.4-10.6 12.6 7.7 16.5 11.4 4.7 10.9-4.1 9.3-16.5z" fill="#e2e2f9" stroke-width=".97"/><path d="m1052.5 253.3-7.7-16.5-12.2 14.6 13.6 8.8z" fill="#e2e2f9" stroke-width=".97"/><path d="m1045.4 276.6h10.9l.5-7.2-10.7-8.5-7.5 8.8z" fill="#e2e2f9" stroke-width=".97"/><path d="m1056.8 269.3-.5 7.2h18l-.9-6.8-9.6-6.8z" fill="#e2e2f9" stroke-width=".97"/><path d="m1027.3 257.9 11.4 11.9 7.5-8.8v-.5l-13.6-8.8z" fill="#e2e2f9" stroke-width=".97"/><path d="m1087.4 276.4 1.7-5.4v-9.7l-8.3-.7-7.2 9.2.9 6.8h13v-.2z" fill="#e2e2f9" stroke-width=".97"/><path d="m933.8 342-1.6-.2-21.7 13.8v6.4l14.2 3.1z" fill="#9f9fb6" stroke-width=".97"/><path d="m949.3 398.9 10.9-.7 7.6-17.9-32.4 4.5-.4 13.9h14.2z" fill="#9f9fb6" stroke-width=".97"/><path d="m969.4 376.8-2.7-18.3-10.4-12.9-22.3-3.7-9.1 22.8 3.9 13.8 6.9 6.3 32.4-4.5z" fill="#9f9fb6" stroke-width=".97"/><path d="m924.7 364.8-14.2-3.1v22.8l18.2-6.1z" fill="#9f9fb6" stroke-width=".97"/><path d="m913.9 396.7 11.8 1.5 9.5.6.4-13.9-6.9-6.3-18.2 6.1v11.3z" fill="#9f9fb6" stroke-width=".97"/><path d="m1077.3 129.5-4.5.7-.7 1.1.6 6 4.7 2 2.7-.9.9-5.2z" fill="#bfbfd6" stroke-width=".97"/><path d="m1085.1 104.2-2.7 1.1 1.8 5.6 3.8-.4 1.7-5.6z" fill="#bfbfd6" stroke-width=".97"/><path d="m1073 144.4 2.2.9 2.2-6-4.7-2-2.9 2z" fill="#bfbfd6" stroke-width=".97"/><path d="m1077.3 129.5 3.4 3.7 3.4-1.4v-4.4l-4.8-1.1z" fill="#bfbfd6" stroke-width=".97"/><path d="m1090.7 131.6-.5-5-2.9-1.1-2.9 1.8v4.4l3.1 2z" fill="#bfbfd6" stroke-width=".97"/><path d="m1090.7 131.6-3.3 2.2-.4 3.4 1.8 2.9h6l2.3-3.3-.2-2.2z" fill="#bfbfd6" stroke-width=".97"/><path d="m1084.3 127.5 2.9-1.8-1.4-7.2-1.6-.7-4.2 1.1-2 3.1 1.5 4.5z" fill="#bfbfd6" stroke-width=".97"/><path d="m1080.9 133.2-.9 5.2 1 .6 5.9-1.7.4-3.4-3.1-2z" fill="#bfbfd6" stroke-width=".97"/><path d="m1085.9 118.4 1.4 7.1 2.9 1.1 4.9-3.4-.2-4.1-4.8-3.1z" fill="#bfbfd6" stroke-width=".97"/><path d="m1106 113.8-3.9-6.4-3.4-.6-2.3 6.4 1.4 2.9 5.9 1.1 3.1-2.5z" fill="#bfbfd6" stroke-width=".97"/><path d="m1095.1 148.9 3.1-3.2-3.2-5.5h-6l-2.2 3.6 1.4 6z" fill="#bfbfd6" stroke-width=".97"/><path d="m1090.1 116.2 4.8 3.1 2.8-3.2-1.4-2.9-5.8.7z" fill="#bfbfd6" stroke-width=".97"/><path d="m1063.5 130 2.2 3.3 6.3-2 .7-1.1-2.7-6.5h-6.1z" fill="#bfbfd6" stroke-width=".97"/><path d="m1106.8 136.7 1-4.1-6.6-2.2-4.2 4.3.2 2.1 5.8 3.8z" fill="#bfbfd6" stroke-width=".97"/><path d="m1080 147.2 6.8 2.8h1.2l-1.4-6-4.1-.4z" fill="#bfbfd6" stroke-width=".97"/><path d="m1078 121.8 2-3.1-2.8-3.9-2.8.6-2 4.9z" fill="#bfbfd6" stroke-width=".97"/><path d="m1090.6 113.9 5.8-.7 2.3-6.4-8.8-1.7-1.7 5.6z" fill="#bfbfd6" stroke-width=".97"/><path d="m1101.1 130.4 6.6 2.2 2.1-9-5.5-1.2-3.9 3.3z" fill="#bfbfd6" stroke-width=".97"/><path d="m1077.3 129.5 2.2-3.2-1.5-4.5-5.6-1.4-.5.2-1.8 3.2 2.7 6.5z" fill="#bfbfd6" stroke-width=".97"/><path d="m1098.2 145.6 4.8-5-5.8-3.7-2.3 3.3z" fill="#bfbfd6" stroke-width=".97"/><path d="m1072 131.4-6.3 2 3.9 6 2.9-2z" fill="#bfbfd6" stroke-width=".97"/><path d="m1075.1 145.3 4.9 2 2.7-3.9-1.6-4.3-1-.6-2.7.9z" fill="#bfbfd6" stroke-width=".97"/><path d="m1090.7 131.6 6.4 3.1 4.1-4.3-.7-4.7-5.2-2.5-4.9 3.4z" fill="#bfbfd6" stroke-width=".97"/><path d="m1084.3 117.6 1.6.7 4.2-2.2.5-2.2-2.5-3.2-3.8.4-.9 1z" fill="#bfbfd6" stroke-width=".97"/><path d="m1082.4 105.4-5.9 2.5 2 4.5 4.9-.2.9-1z" fill="#bfbfd6" stroke-width=".97"/><path d="m1097.6 116-2.8 3.2.2 4.1 5.2 2.5 3.9-3.3-.5-5.2z" fill="#bfbfd6" stroke-width=".97"/><path d="m1110.2 121.3-3.6-6.5-3.1 2.5.7 5.3 5.5 1.2z" fill="#bfbfd6" stroke-width=".97"/><path d="m1088.8 140.2-1.8-2.9-5.9 1.7 1.6 4.3 4.1.4z" fill="#bfbfd6" stroke-width=".97"/><path d="m1076.6 107.9-4.8 2-1.5 1.8 4.1 3.7 2.8-.6 1.4-2.5z" fill="#bfbfd6" stroke-width=".97"/><path d="m1066.5 116.8 5.4 3.9.5-.2 2-4.9-4.1-3.7z" fill="#bfbfd6" stroke-width=".97"/><path d="m1084.3 117.6-.9-5.5-4.9.2-1.4 2.5 2.9 3.9z" fill="#bfbfd6" stroke-width=".97"/><path d="m1064.2 119.7-.2 4.3h6.1l1.8-3.2-5.4-3.9z" fill="#bfbfd6" stroke-width=".97"/><path d="m939.9 74.9h18.7l8.7-26.3-10.3-8.7-16.6 3.9-6.4 21.9z" fill="#d1d1e8" stroke-width=".97"/><path d="m932.8 45.7-3.8 11.8 5.2 8.1 6.4-21.7z" fill="#d1d1e8" stroke-width=".97"/><path d="m928.8 57.5-11.7 4.8 3.6 11.9 15.1 5.2 3.9-4.4z" fill="#e3e3fa" stroke-width=".97"/><path d="m904.9 82.5 6.6 3.4 9.3-11.8-3.6-11.9-13.2 5.5z" fill="#e3e3fa" stroke-width=".97"/><path d="m924.2 92.6 11.8-13.3-15.1-5.2-9.4 11.9z" fill="#e3e3fa" stroke-width=".97"/><path d="m1006.2 87.4 11.8 7.2 16.2-12.2-4.9-13.9-18.5-3.9z" fill="#9e9eb5" stroke-width=".97"/><path d="m1011.5 60.5-.9 4.3 18.5 3.9 4.7-6.4-6.8-5.3z" fill="#9e9eb5" stroke-width=".97"/><path d="m1028.7 101.3 9.7-16.9-4.2-1.7-16.2 12.1z" fill="#9e9eb5" stroke-width=".97"/><path d="m1045.7 71.5-11.8-9.1-4.7 6.4 4.9 13.9 4.2 1.7z" fill="#9e9eb5" stroke-width=".97"/><path d="m802.9 112.8 23.5 13.5-6.4-16.7z" fill="#bebed5" stroke-width=".97"/><path d="m778.7 117.4-3.7 6.8-5 10.7-4.4 11.1-3.4 10.7 22.5 23.7 28.6-1.2 22.2-29.1-9.1-23.6-23.5-13.5z" fill="#bebed5" stroke-width=".97"/><path d="m762.1 156.7v.6l-2.9 11.5-2.2 11.7v.4l25.3 7.1 2.6-7.5z" fill="#bebed5" stroke-width=".97"/><path d="m803.5 193.9 13.8-6.5-4.1-8.2-28.6 1.2-2.6 7.5z" fill="#bebed5" stroke-width=".97"/><path d="m844.7 174.4-9.3-24.4-22.2 29.2 4.1 8.2z" fill="#bebed5" stroke-width=".97"/><path d="m796.1 260.6-14.4-7.9-1.6 14.6z" fill="#d2d2e9" stroke-width=".97"/><path d="m789.5 208.7 15.2.5-1.2-15.2-11.8-3.3-5.5 13.8z" fill="#d2d2e9" stroke-width=".97"/><path d="m756.7 180.9-1.5 11.4v2.7l17.1-2 2.7-7z" fill="#d2d2e9" stroke-width=".97"/><path d="m772.2 192.9-17.1 2-.6 9.2v6.6l16.1 5.2 7.5-11.9z" fill="#d2d2e9" stroke-width=".97"/><path d="m771.2 218.1 11.5 5.6 6.8-15-3.3-4.3-8.1-.5-7.5 11.9z" fill="#d2d2e9" stroke-width=".97"/><path d="m774.7 185.9-2.7 7 5.9 10.9 8.1.5 5.5-13.9z" fill="#d2d2e9" stroke-width=".97"/><path d="m804.7 209.2-15.2-.5-6.9 15 3.2 5.8 20.5.6z" fill="#d2d2e9" stroke-width=".97"/><path d="m754.5 215.9.7 11.5 16-9.3-.6-2.2-16.1-5.2v5.3z" fill="#d2d2e9" stroke-width=".97"/><path d="m758.3 247.7.6 3.4 2.9 11.5 3.4 10.6 14.7-6.1 1.6-14.6-3.2-5.4z" fill="#d2d2e9" stroke-width=".97"/><path d="m771.2 218.1-16 9.3v.4l1.5 11.8 1.6 8.2 20.3-.5 7.2-17.7-3.2-5.8z" fill="#d2d2e9" stroke-width=".97"/><path d="m808.4 255.4-2-25.3-20.5-.6-7.2 17.7 3.2 5.4 14.4 7.9z" fill="#d2d2e9" stroke-width=".97"/><path d="m885.3 259.2-24.2-9.5-20.6 15.5-1.4 22.3 24.2 10.4 20.6-12.9z" fill="#e5e5fc" stroke-width=".97"/><path d="m939.9 319.7 9.1-35.5-32.5-12.8-15 20.5 6.5 21.4z" fill="#e5e5fc" stroke-width=".97"/><path d="m963.3 314 9.7-20.3-24.1-9.5-9.1 35.5 3.2 5z" fill="#e5e5fc" stroke-width=".97"/><path d="m863.3 298-24.2-10.4-2.1 32.7 24.6-3.7z" fill="#e5e5fc" stroke-width=".97"/><path d="m908 313.5-6.5-21.4-17.6-7-20.6 12.9-1.7 18.5 9.7 13.8 31.1-5.8z" fill="#e5e5fc" stroke-width=".97"/><path d="m885.3 259.2-1.4 25.8 17.6 7 15-20.5z" fill="none" stroke-width=".97"/><path d="m910.3 342.5 32.8-17.7-3.2-5-31.9-6.4-5.6 11.1 5 17.9h2.9z" fill="#e5e5fc" stroke-width=".97"/><path d="m869.9 342.3h37.4l-5-17.9-31.1 5.8z" fill="#e5e5fc" stroke-width=".97"/><path d="m835.5 342.2h34.4l1.4-12.2-9.7-13.8-24.6 3.8z" fill="#e5e5fc" stroke-width=".97"/><path d="m840.4 265.2-32.2-9.8-2.5 1-.9 31.3 15.7 13.8 17.4.5z" fill="#9d9db4" stroke-width=".97"/><path d="m805.1 287.8-28.5 10.9 4.2 7.5 6.4 10.1 7 9.6 4.2 5 22.3-29.5z" fill="#9d9db4" stroke-width=".97"/><path d="m765.5 274.1 4.4 11.1 5 10.7 1.6 2.9 28.5-10.9.9-31.3-40.6 16.8z" fill="#9d9db4" stroke-width=".97"/><path d="m801.6 335 6.8 7.1h27.1l2.6-40.4-17.4-.2-22.5 29.5z" fill="#9d9db4" stroke-width=".97"/><path d="m803.5 193.9 3.8 48.9 50.8-11.3-4.9-30.5-34.3-14.5z" fill="#bbbbd2" stroke-width=".97"/><path d="m844.7 174.4-25.7 12.2 34.3 14.5-4.1-25.2z" fill="#bbbbd2" stroke-width=".97"/><path d="m861.1 249.7-2.9-18.3-50.8 11.3 1 12.6 32.2 9.8z" fill="#bbbbd2" stroke-width=".97"/><path d="m918.8 117-16.9 14.5 12.3 24.7 42.5-14.9z" fill="none" stroke-width=".97"/><path d="m973 293.7 22.3-46.5-46.5 14.1-2.6 22z" fill="none" stroke-width=".97"/><path d="m853.5 202.1 3.7 23.1 33.9-2.7-2-18.5-18.3-8.2z" fill="none" stroke-width=".97"/><path d="m857.1 225.1 3.9 24.7 16.2 6.4 16.6-27.4-2.8-6.4z" fill="#d2d2e9" stroke-width=".97"/><path d="m912.9 250-8.2 16.8 41.6 16.3 2.6-22z" fill="none" stroke-width=".97"/><path d="m912.9 250 36 11.2 46.5-14.1 7.2-15v-46.4l-10.1-21.2-36.1-23.2-42.4 14.8-13.3 11.8-4.2 6.8-7.6 29.1 2 18.5 2.8 6.4z" fill="none" stroke-width=".97"/><path d="m863.6 163.8 10.2 11.1 23-.2 4.2-6.8-17.2-21.1z" fill="#d2d2e9" stroke-width=".97"/><path d="m849.3 176 4.2 26.2 17.4-6.5 2.9-20.6-10.2-11.1z" fill="#d2d2e9" stroke-width=".97"/><path d="m873.8 174.8-2.9 20.6 18.3 8.2 7.6-29.1z" fill="#d2d2e9" stroke-width=".97"/><path d="m904.7 266.8 8.2-16.8-19-21.4-16.6 27.4z" fill="#d2d2e9" stroke-width=".97"/><path d="m914.1 156.2-12.3-24.7-18 15.2 17.1 21.2z" fill="#d2d2e9" stroke-width=".97"/><path d="m835.2 106.8-16.1-39.2-.6.6-8.6 8.1-8.1 8.6-7.6 9.2-7.1 9.6-6.4 10.1-2 3.6z" fill="none" stroke-width="2.2593"/><path d="m887.6 97.1.2-21.2-39.5-29.2-1.1.6-10.1 6.4-9.6 7-8.5 7 16.1 39.2z" fill="none" stroke-width="2.2593"/><path d="m888.4 29.2-9.1 2.9-11.1 4.4-10.7 5-9.3 5.2 39.5 29.1z" fill="none" stroke-width="2.2593"/><path d="m1072.9 224.6 17.2-21v-1l-12.5-27.1-38.3 5.3-2.7 14.1 18.8 29.5z" fill="#e6e6fd" stroke-width="2.2593"/><path d="m1126.3 198.9-16.3-11.2-19.9 14.9v1l21.1 12.4z" fill="#e6e6fd" stroke-width="2.2593"/><path d="m1072.9 224.6-17.4-.4-28.1 33.5 18 18.9 42-.4 1.7-5.4v-27.8z" fill="none" stroke-width="2.2593"/><path d="m1131.6 192.2-1.5-11.8-2.2-11.7-18.8 2.6.7 16.5 16.3 11.2 5.6-.5z" fill="#e6e6fd" stroke-width="2.2593"/><path d="m1105.4 241 6.6 12.9 13.6 5.9 2.2-8.6 2.2-11.7 1.2-9.2-16.5-2.6z" fill="#e6e6fd" stroke-width="2.2593"/><path d="m1114.9 227.8 16.3 2.6.4-2.6.7-11.9v-11.9l-.4-5.6-5.6.5-15.2 17.2z" fill="#e6e6fd" stroke-width="2.2593"/><path d="m1077.5 175.5 12.5 27.1 19.9-14.9-.9-16.5z" fill="#e6e6fd" stroke-width="2.2593"/><path d="m1039.2 180.7-36.6 4.9v15.7l33.9-6.5z" fill="#e6e6fd" stroke-width="2.2593"/><path d="m1072.9 224.6 16.2 18.4 16.3-2 9.5-13.3-3.8-11.7-21.1-12.4z" fill="#e6e6fd" stroke-width="2.2593"/><path d="m1036.5 194.9-33.9 6.5v30.8l24.7 25.7 28.1-33.5z" fill="#e6e6fd" stroke-width="2.2593"/><path d="m1105.4 241-16.3 2v27.9l23-16.9z" fill="#e6e6fd" stroke-width="2.2593"/><path d="m1087.4 276.4 33-.2.9-2.1 3.7-11.3.7-2.9-13.6-5.9-23 16.9z" fill="#e6e6fd" stroke-width="2.2593"/><path d="m932.2 341.7-21.7 13.8v40.5l3.3.6 11.8 1.5 11.9.7h11.9l10.9-.7 9.1-21.5-2.7-18.3-10.4-12.6z" fill="none" stroke-width="2.2593"/><path d="m961.1 398.2 11.8-1.5 11.7-2.2 2.8-.7-2.7-16.3-15.3-.6-9.1 21.5h1z" fill="#e5e5fc" stroke-width="2.2593"/><path d="m966.7 358.5 14.2-4.4-2.9-17.9-19.8 5.3-2.1 4.2z" fill="#e5e5fc" stroke-width="2.2593"/><path d="m980.9 354.1-14.2 4.4 2.7 18.3 15.3.6z" fill="#e5e5fc" stroke-width="2.2593"/><path d="m929 332.4 3.2 9.3 23.9 3.9 2.1-4.2-7.4-20.9z" fill="#e5e5fc" stroke-width="2.2593"/><path d="m910.3 342.5v13l21.9-13.8-3.2-9.3z" fill="#e5e5fc" stroke-width="2.2593"/><path d="m978 336.1-2.1-12.5-12.5-9.6-12.5 6.8 7.4 20.9z" fill="#e5e5fc" stroke-width="2.2593"/><path d="m1099.8 316.2 6.4-10.1 5.8-10.4 5-10.7 3.6-9-49.2.4 7.2 33.6 19.5 8.3z" fill="#9090a7" stroke-width="2.2593"/><path d="m1085.1 335 7.6-9.2 5.3-7.2-19.5-8.3-12.5 12.6 11.8 20.1z" fill="#9090a7" stroke-width="2.2593"/><path d="m1063.9 355.5 4.4-3.7 8.6-8.1.7-.7-11.8-20.1-24.9 2.9z" fill="#9090a7" stroke-width="2.2593"/><path d="m1045.4 276.6-11.9 39.2 7.6 9.9 24.9-2.9 12.5-12.6-7.2-33.6z" fill="#9090a7" stroke-width="2.2593"/><path d="m975.9 323.5 11.7 70.1 8.6-2.2 11.3-3.7 11.1-4.4 10.7-5 10.4-5.8 10.1-6.4 9.6-7 4.7-3.8-30.5-39.5z" fill="#b4b4cb" stroke-width="2.2593"/><path d="m1024.9 299 11.1 8.8 6.4-21-13.4-1z" fill="#d0d0e7" stroke-width="2.2593"/><path d="m1002.6 232.1-7.9 16.2 20.6-2.9z" fill="#d0d0e7" stroke-width="2.2593"/><path d="m963.3 314 12.5 9.6 7.1-1-14.1-20.1z" fill="#d0d0e7" stroke-width="2.2593"/><path d="m968.9 302.4 14.1 20.1 25.8-3.4 5.6-19-4.2-12.2-28.2-12.9z" fill="#d0d0e7" stroke-width="2.2593"/><path d="m1033.5 315.9 2.5-8.1-11.1-8.8-10.6 1.2-5.6 19z" fill="#d0d0e7" stroke-width="2.2593"/><path d="m1031.7 262.4-16.3-16.9-20.6 2.9-12.8 26.8 28.2 12.9 14.2-7.1z" fill="#d0d0e7" stroke-width="2.2593"/><path d="m1045.4 276.6-13.8-14.2-7.2 18.5 4.5 4.8 13.4 1z" fill="#d0d0e7" stroke-width="2.2593"/><path d="m1024.9 299 4.1-13.3-4.5-4.8-14.2 7.1 4.2 12.2z" fill="#d0d0e7" stroke-width="2.2593"/><path d="m992.7 164.4 4.7 9.8 9.7-11.8-9.5-6.5z" fill="#e3e3fa" stroke-width="2.2593"/><path d="m1064.4 177.3-1-7.4-15 .5-2.2 9.3z" fill="#e3e3fa" stroke-width="2.2593"/><path d="m1062.4 154.7 2.8 12.3 16 2.3 5.5-19.2-13.9-5.6z" fill="#e3e3fa" stroke-width="2.2593"/><path d="m1118.4 138.9-1.6-3.9-5-10.7-1.6-2.8-3.4 15.2z" fill="#e3e3fa" stroke-width="2.2593"/><path d="m1127.9 168.7-2.9-11.4-2.5-7.6-15.8 9.6 4.3 11.8z" fill="#e3e3fa" stroke-width="2.2593"/><path d="m1024.2 182.7 22.1-2.9 2.2-9.3-4.3-11.1-7-3.6-9.8 1.8-6.4 8.5z" fill="#e3e3fa" stroke-width="2.2593"/><path d="m1106.5 159.1 15.8-9.6-1.2-3.7-2.8-7.1-11.5-2.1-11.7 12.3 8.1 9.5z" fill="#e3e3fa" stroke-width="2.2593"/><path d="m1110.9 171-4.3-11.8-3.4-.7-4.8 14.4z" fill="#e3e3fa" stroke-width="2.2593"/><path d="m1042.7 76.6 20.5 7.4.6-.2 7.6-12.9-2.9-2.7-9.2-7.6-5.3-3.7z" fill="#e3e3fa" stroke-width="2.2593"/><path d="m1099.8 103.8-7-9.6-2-2.3-5.8 5.1v7.2l17.1 3.2z" fill="#e3e3fa" stroke-width="2.2593"/><path d="m1063.2 84.1-20.5-7.4-6.5 11.4 6.6 13.6 12 3.6 7.4-5.6z" fill="#e3e3fa" stroke-width="2.2593"/><path d="m1003.9 144.9 9.8 7.5 9.2-1.5 5.8-8.7-12.9-18.3z" fill="#e3e3fa" stroke-width="2.2593"/><path d="m1049.1 144.4 2.9 6.8 10.4 3.4 10.4-10.3-9.5-14.4z" fill="#e3e3fa" stroke-width="2.2593"/><path d="m1062.4 154.7-10.4-3.4-7.9 8.2 4.3 11.1 15-.5 1.8-3.1z" fill="#e3e3fa" stroke-width="2.2593"/><path d="m1085.1 104.2v-7.2l-10.1-5.4-9 9 5.6 9.3z" fill="#e3e3fa" stroke-width="2.2593"/><path d="m1071.8 109.9-5.6-9.3-3.9-1-7.4 5.6 9.3 14.5z" fill="#e3e3fa" stroke-width="2.2593"/><path d="m1083.9 174.6 14.5-2 4.8-14.4-8.1-9.5-8.3 1.1-5.5 19.2z" fill="#e3e3fa" stroke-width="2.2593"/><path d="m1063.2 84.1-1.1 15.5 3.9 1 9-9-.6-3.2-10.6-4.5z" fill="#e3e3fa" stroke-width="2.2593"/><path d="m1110.2 121.3-4.2-7.6-3.9-6.3-16.8-3.2-13.5 5.6-7.6 9.8-.7 10.3 9.5 14.4 13.9 5.6 8.3-1.1 11.7-12.3z" fill="none" stroke-width="2.2593"/><path d="m1020.9 166.3 6.4-8.5-4.4-6.8-9.2 1.5-2.6 9.1z" fill="#e3e3fa" stroke-width="2.2593"/><path d="m1077 76.4-5.6-5.4-7.6 12.9 10.7 4.5 6.9-7.5z" fill="#e3e3fa" stroke-width="2.2593"/><path d="m1083.9 174.6-2.7-5.4-16-2.3-1.8 3.1 1 7.4z" fill="#e3e3fa" stroke-width="2.2593"/><path d="m1049.1 144.4 14.4-14.4.7-10.3-9.5-14.5-12-3.6-16.6 3.8-10.4 18.3 13 18.3 9.1 3.3z" fill="#e3e3fa" stroke-width="2.2593"/><path d="m1090.8 91.8-5.6-6.9-3.8-4.1-6.9 7.5.6 3.2 10.1 5.4z" fill="#e3e3fa" stroke-width="2.2593"/><path d="m1002.8 185.7 21.6-2.9-3.3-16.5-9.8-4.8-4.2 1.1-9.7 11.8z" fill="#e3e3fa" stroke-width="2.2593"/><path d="m997.5 155.9 9.5 6.5 4.2-1.1 2.6-9.1-9.8-7.5z" fill="#e3e3fa" stroke-width="2.2593"/><path d="m1049.1 144.4-11.3 1.2-.6 10.2 7 3.6 7.9-8.2z" fill="#e3e3fa" stroke-width="2.2593"/><path d="m1026.2 105.6 16.6-3.8-6.6-13.6z" fill="#e3e3fa" stroke-width="2.2593"/><path d="m1037.1 155.8.6-10.2-9.1-3.3-5.8 8.7 4.4 6.8z" fill="#e3e3fa" stroke-width="2.2593"/><path d="m872.4 351.2 1.6-8.8h-25l12.6 14z" fill="#9999b0" stroke-width="2.2593"/><path d="m910.4 368.1v-25.8h-10.7l-4.3 20.6 5.2 4.9z" fill="#9999b0" stroke-width="2.2593"/><path d="m827.5 359.3 6 4.3 14.2-21.4h-17.7l-3.6 16.3z" fill="#9999b0" stroke-width="2.2593"/><path d="m902.2 394.4 8.3 1.6v-27.9l-9.9-.4-9.2 23.8z" fill="#9999b0" stroke-width="2.2593"/><path d="m857.6 378.4 10.7 5 2.5 1 .6-14.9-9.9-4.1-9.7 9.6z" fill="#9999b0" stroke-width="2.2593"/><path d="m837.1 366.3 10.1 6.4 4.5 2.5 9.7-9.6.4-9.3-12.6-14h-1.2l-14.2 21.4z" fill="#9999b0" stroke-width="2.2593"/><path d="m872.4 351.2-10.6 5-.4 9.3 9.9 4.1 7-7.4z" fill="#9999b0" stroke-width="2.2593"/><path d="m899.7 342.3h-25.7l-1.6 8.8 6 11.1 17.1.7z" fill="#9999b0" stroke-width="2.2593"/><path d="m808.4 342.1 1.4 1.5 8.6 8.1 8.1 6.8 3.6-16.3z" fill="#9999b0" stroke-width="2.2593"/><path d="m870.8 384.4 8.6 3.4 11.3 3.7h.6l9.2-23.8-5.2-4.9-17.1-.7-7 7.4z" fill="#9999b0" stroke-width="2.2593"/><path d="m1007.4 32.2-11.3-3.7-11.5-2.9-4.8-.9-2.7 19.3 27.8 6.6 7-16.7z" fill="#babad1" stroke-width="2.2593"/><path d="m887.6 97.1 31.3 20 5.3-5.9v-18.6l-19.4-10.1-17.2 10.7z" fill="#babad1" stroke-width="2.2593"/><path d="m957 39.9 1.7-18.3-9.5-.6h-11.9l-11.9.7-2.1.2 9.2 23.7z" fill="#babad1" stroke-width="2.2593"/><path d="m986.1 119 2.2 3.6 24.3 6.9 16-28.1-22.3-13.9-17.7 9.1z" fill="#babad1" stroke-width="2.2593"/><path d="m1027.1 57.1 5.6-13.6-3.4-2-10.7-5-6.6-2.6-7.1 16.7 6.8 9.9z" fill="#babad1" stroke-width="2.2593"/><path d="m972.7 151.6 13.8-12.9 2-16.2-2.2-3.6-16.9-6.8-19.2 12.5-2.7 10.7z" fill="#babad1" stroke-width="2.2593"/><path d="m957 39.9-24.3 5.8-3.8 11.8 11.1 17.3h18.7l8.7-26.3z" fill="none" stroke-width="2.2593"/><path d="m986.4 138.7 15.6 9.2 10.6-18.5-24.3-6.9z" fill="#babad1" stroke-width="2.2593"/><path d="m1045.7 71.5 8.2-14.6-4.4-3.2-9.9-6.4-6.9-3.8-5.6 13.6z" fill="#babad1" stroke-width="2.2593"/><path d="m947.4 135.4 2.7-10.7-25.9-13.5-5.3 5.9z" fill="#babad1" stroke-width="2.2593"/><path d="m939.9 74.9-11.1-17.3-24.9 10.2.9 14.7 19.4 10.1z" fill="none" stroke-width="2.2593"/><path d="m928.8 57.5 3.8-11.8-9.2-23.6-9.7 1.2-11.7 2.2-11.4 2.9-2.2.7-.4 31.6 15.8 6.9z" fill="#babad1" stroke-width="2.2593"/><path d="m986.1 119 2.5-22.5-15.2-2.6-4.2 18.3z" fill="#babad1" stroke-width="2.2593"/><path d="m1045.7 71.5-18.7-14.4-15.5 3.4-5.4 26.9 22.5 13.9z" fill="none" stroke-width="2.2593"/><path d="m972.9 23.3-11.8-1.5h-2.5l-1.7 18 10.3 8.7 9.8-4.8 2.7-19.3z" fill="#babad1" stroke-width="2.2593"/><path d="m950.1 124.8 19-12.5 4.2-18.3-14.7-19h-18.7l-15.7 17.7v18.7z" fill="#babad1" stroke-width="2.2593"/><path d="m992.7 164.4 9.5-16.5-15.7-9.2-13.8 12.9z" fill="#babad1" stroke-width="2.2593"/><path d="m887.6 93.1 17.2-10.7-.9-14.7-15.8-6.9z" fill="#babad1" stroke-width="2.2593"/><path d="m977.1 43.8-9.8 4.8-8.7 26.3 14.7 19 15.2 2.6 17.7-9.1 5.4-26.9-6.8-9.9z" fill="#babad1" stroke-width="2.2593"/><path d="m819.8 109.6-41.1 7.6-3.7 6.8-5 10.7-4.4 11.1-3.7 11.3-2.9 11.5-2.2 11.7v.4l46.8 13.3 41.3-19.6z" fill="none" stroke-width="2.2593"/><path d="m755.2 192.2-.7 11.9v11.9l.7 11.9 1.5 11.8 2.2 11.7 2.9 11.5 3.4 10.6 43-17.9-4.8-61.6-46.9-13.1z" fill="none" stroke-width="2.2593"/><path d="m840.4 265.2-5 77 74.9.2 52.9-28.5 9.7-20.3-112-44z" fill="none" stroke-width="2.2593"/><path d="m808.4 255.4-43 17.9.2.7 4.4 11.1 5 10.7 5.8 10.4 6.4 10.1 7 9.6 7.6 9.2 6.8 7.1h27.1l5-77z" fill="none" stroke-width="2.2593"/><path d="m808.4 255.4 32.2 9.8 20.6-15.5-11.8-73.7-4.5-1.6-41.3 19.6z" fill="none" stroke-width="2.2593"/><path d="m1002.6 232.1v-46.4l-10.1-21.2-73.7-47.5-69.5 58.8 11.8 73.8 112 44z" fill="none" stroke-width="2.2593"/><path d="m887.6 97.1-67.8 12.5 24.9 64.6 4.5 1.6 69.5-58.8z" fill="#d1d1e8" stroke-width="2.2593"/><path d="m879.4 32.2-11.1 4.4-10.7 5-10.4 5.6-10.1 6.4-9.6 7-9.1 7.5-8.6 8.1-8.1 8.6-7.6 9.2-7.1 9.7-6.4 10.1-2 3.6 108.8-20.3 1-67.9z" fill="none" stroke-width="3.5485"/><path d="m1045.4 276.6 75-.6.9-2.1 3.7-11.3 2.9-11.5 2.2-11.7 1.5-11.8.7-11.9v-11.9l-.7-11.9-1.5-11.8-2.2-11.7-125.1 17.2v46.5z" fill="none" stroke-width="3.5485"/><path d="m913.9 396.7 11.8 1.5 11.9.7h11.9l11.9-.7 11.8-1.5 11.7-2.2 2.8-.7-11.8-70.2-12.5-9.6-53 28.5v53.5z" fill="none" stroke-width="3.5485"/><path d="m1068.5 351.8 8.6-8.1 8.1-8.6 7.6-9.2 7-9.6 6.4-10.1 5.8-10.4 5-10.7 3.6-9-75 .6-11.9 39.2 30.3 39.5z" fill="none" stroke-width="3.5485"/><path d="m975.9 323.5 11.7 70.1 8.6-2.2 11.3-3.7 11.1-4.4 10.7-5 10.4-5.8 10.1-6.4 9.6-7 4.7-3.8-30.5-39.5z" fill="none" stroke-width="3.5485"/><path d="m975.9 323.5 57.6-7.6 11.9-39.2-42.9-44.6-39.3 81.9z" fill="none" stroke-width="3.5485"/><path d="m1124.9 157.3-3.7-11.3-4.4-11.1-5-10.7-5.8-10.4-6.3-10.1-7-9.6-7.6-9.2-8.1-8.6-8.6-8.1-9.2-7.6-5.3-3.8-61.4 107.7 10.1 21.2 125.1-16.9z" fill="none" stroke-width="3.5485"/><path d="m809.7 343.7 8.6 8.1 9.2 7.6 9.6 7 10.1 6.4 10.4 5.8 10.7 5 11.1 4.4 11.3 3.7 11.5 2.9 8.3 1.6v-53.8l-102-.2z" fill="none" stroke-width="3.5485"/><path d="m1054 56.9-4.4-3.2-9.9-6.4-10.4-5.8-10.7-5-11.1-4.4-11.3-3.7-11.5-2.9-11.7-2.1-11.8-1.5-11.9-.7h-11.9l-11.9.7-11.8 1.5-11.7 2.1-11.3 2.9-2.2.7-1 67.9 105.1 67.4z" fill="none" stroke-width="3.5485"/><path d="m887.6 97.1-108.9 20.3-3.7 6.8-5 10.7-4.4 11.1-3.7 11.3-2.9 11.5-2.2 11.7-1.5 11.8-.7 11.9v11.8l.7 11.9 1.5 11.8 2.2 11.7 2.9 11.5 3.7 11.3 4.4 11.1 5 10.7 5.8 10.4 6.4 10.1 7 9.6 7.6 9.2 6.8 7.1 102 .2 52.9-28.5 39.3-81.9v-46.5l-10.1-21.2z" fill="none" stroke-width="3.5485"/><path d="m937.4 21.1-11.9.7-11.8 1.5-11.7 2.2-11.4 2.9-11.3 3.7-11.1 4.4-10.7 5-10.4 5.6-10.1 6.4-9.6 7-9.1 7.5-8.6 8.1-8.1 8.6-7.6 9.2-7.1 9.7-6.4 10.1-5.8 10.4-5 10.7-4.4 11.1-3.7 11.3-2.9 11.5-2.2 11.7-1.5 11.8-.7 11.9v11.9l.7 11.9 1.5 11.8 2.2 11.7 2.9 11.5 3.7 11.3 4.4 11.1 5 10.7 5.8 10.4 6.4 10.1 7 9.6 7.6 9.2 8.1 8.6 8.6 8.1 9.2 7.6 9.6 7 10.1 6.4 10.4 5.8 10.7 5 11.1 4.4 11.3 3.7 11.5 2.9 11.7 2.2 11.8 1.5 11.9.7h11.9l11.9-.7 11.8-1.5 11.7-2.2 11.5-2.9 11.3-3.7 11.1-4.4 10.7-5 10.4-5.8 10.1-6.4 9.6-7 9.2-7.6 8.6-8.1 8.1-8.6 7.6-9.2 7-9.6 6.4-10.1 5.8-10.4 5-10.7 4.4-11.1 3.7-11.3 2.9-11.5 2.2-11.7 1.5-11.8.7-11.9v-11.9l-.7-11.9-1.5-11.8-2.2-11.7-2.9-11.5-3.7-11.3-4.4-11.1-5-10.7-5.8-10.4-6.6-10.1-7-9.6-7.6-9.2-8.1-8.6-8.6-8.1-9.2-7.6-9.6-7-10.1-6.4-10.4-5.8-10.7-5-11.1-4.4-11.3-3.7-11.5-2.9-11.7-2.1-11.8-1.5-11.9-.7h-11.9.1z" fill="none" stroke-width="4.8501"/></g></svg>