<svg enable-background="new 0 0 1268 418" viewBox="0 0 1268 418" xmlns="http://www.w3.org/2000/svg"><path d="m278.8 381h749.6v-375.4h-749.6z" fill="none" stroke="#b2b2b2" stroke-linecap="round" stroke-linejoin="round" stroke-width="1.2884"/><path d="m374.6 381.9v10.9" fill="none" stroke="#b2b2b2" stroke-linecap="round" stroke-linejoin="round" stroke-width="1.2884"/><path d="m648.2 381.9v10.9" fill="none" stroke="#b2b2b2" stroke-linecap="round" stroke-linejoin="round" stroke-width="1.2884"/><path d="m921.9 381.9v10.9" fill="none" stroke="#b2b2b2" stroke-linecap="round" stroke-linejoin="round" stroke-width="1.2884"/><path d="m278.8 52.6h-12.9" fill="none" stroke="#b2b2b2" stroke-linecap="round" stroke-linejoin="round" stroke-width="1.2884"/><path d="m278.8 243h-12.9" fill="none" stroke="#b2b2b2" stroke-linecap="round" stroke-linejoin="round" stroke-width="1.2884"/><path d="m278.8 338.3h-12.9" fill="none" stroke="#b2b2b2" stroke-linecap="round" stroke-linejoin="round" stroke-width="1.2884"/><path d="m278.8 147.9h-12.9" fill="none" stroke="#b2b2b2" stroke-linecap="round" stroke-linejoin="round" stroke-width="1.2884"/><text fill="#c4c4c4" font-family="'RobotoMono-Regular'" font-size="18" transform="translate(368.7383 413.7148)">A</text><text fill="#c4c4c4" font-family="'RobotoMono-Regular'" font-size="18" transform="translate(643.8857 413.7148)">B</text><text fill="#c4c4c4" font-family="'RobotoMono-Regular'" font-size="18" transform="translate(916.4229 413.7148)">C</text><text fill="#c4c4c4" font-family="'RobotoMono-Regular'" font-size="18" transform="matrix(0 -1 1 0 255.6353 254.0674)">20</text><text fill="#c4c4c4" font-family="'RobotoMono-Regular'" font-size="18" transform="matrix(0 -1 1 0 255.6353 63.042)">40</text><text fill="#c4c4c4" font-family="'RobotoMono-Regular'" font-size="18" transform="matrix(0 -1 1 0 255.6353 158.5527)">30</text><text fill="#c4c4c4" font-family="'RobotoMono-Regular'" font-size="18" transform="matrix(0 -1 1 0 255.6353 349.5781)">10</text><g fill="#c6bfcf"><circle cx="846" cy="340.7" r="6.1"/><ellipse cx="859.8" cy="348.6" rx="6.1" ry="6.1" transform="matrix(.1602 -.9871 .9871 .1602 378.0061 1141.4697)"/><circle cx="875.8" cy="351.2" r="6.1"/><circle cx="890.5" cy="352.7" r="6.1"/><circle cx="903.8" cy="352.7" r="6.1"/><circle cx="916.4" cy="352.9" r="6.1"/><circle cx="912.4" cy="337.2" r="6.1"/><circle cx="898.5" cy="336" r="6.1"/><circle cx="885.8" cy="329.9" r="6.1"/><circle cx="896.6" cy="314.6" r="6.1"/><circle cx="905.5" cy="323.3" r="6.1"/><circle cx="913.7" cy="313.8" r="6.1"/><circle cx="909.6" cy="301.6" r="6.1"/><circle cx="906.1" cy="287.9" r="6.1"/><circle cx="929" cy="285.5" r="6.1"/><circle cx="943" cy="289.4" r="6.1"/><circle cx="917.8" cy="292.7" r="6.1"/><circle cx="917.8" cy="279.3" r="6.1"/><circle cx="906.4" cy="271.9" r="6.1"/><circle cx="927.4" cy="268.7" r="6.1"/><circle cx="914.9" cy="261" r="6.1"/><circle cx="928.3" cy="254.9" r="6.1"/><circle cx="916.8" cy="245.4" r="6.1"/><circle cx="906.4" cy="242.8" r="6.1"/><circle cx="930.7" cy="238.3" r="6.1"/><circle cx="916.5" cy="214.2" r="6.1"/><circle cx="925.2" cy="223.8" r="6.1"/><circle cx="904.6" cy="219.3" r="6.1"/><circle cx="916.8" cy="201.5" r="6.1"/><circle cx="913.8" cy="174.2" r="6.1"/><circle cx="904.6" cy="197.3" r="6.1"/><circle cx="915.2" cy="187.8" r="6.1"/><circle cx="911.6" cy="153.1" r="6.1"/><circle cx="915.8" cy="127.6" r="6.1"/><circle cx="915.8" cy="88.3" r="6.1"/><circle cx="911.6" cy="47.4" r="6.1"/><circle cx="912.4" cy="45.6" r="6.1"/><circle cx="924.3" cy="164.4" r="6.1"/><circle cx="896.6" cy="298.8" r="6.1"/><circle cx="921.9" cy="322.4" r="6.1"/><circle cx="934" cy="319.8" r="6.1"/><circle cx="925.2" cy="307.7" r="6.1"/><circle cx="929.9" cy="297.5" r="6.1"/><circle cx="939" cy="306.2" r="6.1"/><circle cx="872.3" cy="329.9" r="6.1"/><circle cx="927.9" cy="337.2" r="6.1"/><circle cx="940.6" cy="349.3" r="6.1"/><circle cx="953" cy="349.6" r="6.1"/><circle cx="951" cy="331.1" r="6.1"/><circle cx="946.4" cy="316.8" r="6.1"/><circle cx="957" cy="307.7" r="6.1"/><circle cx="960.4" cy="328.5" r="6.1"/><circle cx="965.1" cy="346.9" r="6.1"/><circle cx="976.6" cy="343.3" r="6.1"/><circle cx="939.7" cy="332.9" r="6.1"/><circle cx="928.3" cy="352.9" r="6.1"/><circle cx="885.8" cy="312.8" r="6.1"/><circle cx="374.7" cy="353.5" r="6.1"/><circle cx="380.8" cy="344.3" r="6.1"/><circle cx="365.6" cy="341.7" r="6.1"/><circle cx="383.7" cy="323.1" r="6.1"/><circle cx="395.9" cy="335.8" r="6.1"/><circle cx="397.7" cy="321.8" r="6.1"/><circle cx="371.7" cy="331.2" r="6.1"/><circle cx="363.3" cy="323.7" r="6.1"/><circle cx="374.7" cy="312.9" r="6.1"/><circle cx="365.6" cy="302.4" r="6.1"/><circle cx="371.7" cy="288.9" r="6.1"/><circle cx="386.9" cy="283.6" r="6.1"/><circle cx="368.6" cy="277.5" r="6.1"/><circle cx="396" cy="273.1" r="6.1"/><circle cx="380.8" cy="271.4" r="6.1"/><circle cx="388.1" cy="260.9" r="6.1"/><circle cx="371.7" cy="260.9" r="6.1"/><circle cx="361.1" cy="254.8" r="6.1"/><circle cx="374.7" cy="247.3" r="6.1"/><circle cx="389.9" cy="245.8" r="6.1"/><circle cx="377.9" cy="235.2" r="6.1"/><circle cx="374.7" cy="215.3" r="6.1"/><circle cx="387.9" cy="215.3" r="6.1"/><circle cx="381.9" cy="180.5" r="6.1"/><circle cx="374.7" cy="163.6" r="6.1"/><circle cx="371.7" cy="145.4" r="6.1"/><circle cx="386.9" cy="142" r="6.1"/><circle cx="374.7" cy="91.8" r="6.1"/><circle cx="374.7" cy="75.6" r="6.1"/><circle cx="362.5" cy="69.5" r="6.1"/><circle cx="374.7" cy="60.9" r="6.1"/><circle cx="379.6" cy="20.2" r="6.1"/><circle cx="371.7" cy="192.7" r="6.1"/><circle cx="368.6" cy="178" r="6.1"/><circle cx="365.6" cy="236.8" r="6.1"/><circle cx="355" cy="242.9" r="6.1"/><circle cx="398.1" cy="235.2" r="6.1"/><circle cx="355" cy="277.5" r="6.1"/><circle cx="340.1" cy="273.1" r="6.1"/><circle cx="357.1" cy="313.2" r="6.1"/><circle cx="342.7" cy="313.2" r="6.1"/><circle cx="386.9" cy="307.1" r="6.1"/><circle cx="403.9" cy="308.5" r="6.1"/><circle cx="666.5" cy="346.4" r="6.1"/><circle cx="678.7" cy="346.4" r="6.1"/><circle cx="689" cy="339.8" r="6.1"/><circle cx="672.6" cy="333.7" r="6.1"/><circle cx="703.2" cy="338.6" r="6.1"/><circle cx="715.5" cy="336" r="6.1"/><circle cx="654.2" cy="345.9" r="6.1"/><circle cx="658.1" cy="332.5" r="6.1"/><circle cx="645" cy="336" r="6.1"/><circle cx="633.7" cy="339.8" r="6.1"/><circle cx="621.5" cy="339.8" r="6.1"/><circle cx="610.9" cy="348" r="6.1"/><circle cx="610.9" cy="332.5" r="6.1"/><circle cx="598.8" cy="339.8" r="6.1"/><circle cx="584.9" cy="339.8" r="6.1"/><circle cx="572.6" cy="336" r="6.1"/><circle cx="560.5" cy="332.5" r="6.1"/><circle cx="604.9" cy="306.3" r="6.1"/><circle cx="615.4" cy="314.1" r="6.1"/><circle cx="627.5" cy="317.7" r="6.1"/><circle cx="641.8" cy="319.1" r="6.1"/><circle cx="654.2" cy="317.7" r="6.1"/><circle cx="664.2" cy="317.7" r="6.1"/><circle cx="678.7" cy="315.1" r="6.1"/><circle cx="691" cy="306.3" r="6.1"/><circle cx="705.2" cy="290.7" r="6.1"/><circle cx="689" cy="294.1" r="6.1"/><circle cx="672.7" cy="295.8" r="6.1"/><circle cx="658.1" cy="300.2" r="6.1"/><circle cx="645" cy="302" r="6.1"/><circle cx="627.5" cy="303" r="6.1"/><circle cx="615.4" cy="300.2" r="6.1"/><circle cx="617" cy="284.7" r="6.1"/><circle cx="630.2" cy="289.7" r="6.1"/><circle cx="641.8" cy="288.5" r="6.1"/><circle cx="654.2" cy="288" r="6.1"/><circle cx="666.7" cy="284.7" r="6.1"/><circle cx="654.2" cy="274.6" r="6.1"/><circle cx="666.3" cy="270" r="6.1"/><circle cx="666.7" cy="257.9" r="6.1"/><circle cx="678.9" cy="265.6" r="6.1"/><circle cx="690.3" cy="262.4" r="6.1"/><circle cx="703.6" cy="262.4" r="6.1"/><circle cx="715.5" cy="259.5" r="6.1"/><circle cx="726.5" cy="259.5" r="6.1"/><circle cx="744.2" cy="256.3" r="6.1"/><circle cx="666.3" cy="244.2" r="6.1"/><circle cx="639.8" cy="274.6" r="6.1"/><circle cx="629.4" cy="274.6" r="6.1"/><circle cx="654.2" cy="259.5" r="6.1"/><circle cx="639.8" cy="259.5" r="6.1"/><circle cx="625.4" cy="259.5" r="6.1"/><circle cx="613.2" cy="259.5" r="6.1"/><circle cx="615.4" cy="271.8" r="6.1"/><circle cx="601.4" cy="271.8" r="6.1"/><circle cx="589.2" cy="265.6" r="6.1"/><circle cx="576.6" cy="262.4" r="6.1"/><circle cx="564.1" cy="259.5" r="6.1"/><circle cx="552.3" cy="256.3" r="6.1"/><circle cx="601" cy="256.3" r="6.1"/><circle cx="654.2" cy="244.2" r="6.1"/><circle cx="639.8" cy="244.2" r="6.1"/><circle cx="627.5" cy="240.7" r="6.1"/><circle cx="654.9" cy="231.3" r="6.1"/><circle cx="667.2" cy="209.3" r="6.1"/><circle cx="678.9" cy="209.3" r="6.1"/><circle cx="689" cy="206.9" r="6.1"/><circle cx="615.4" cy="219" r="6.1"/><circle cx="614.6" cy="240.7" r="6.1"/><circle cx="642.4" cy="164.7" r="6.1"/><circle cx="648.1" cy="154.5" r="6.1"/><circle cx="661.5" cy="150.5" r="6.1"/><circle cx="634.5" cy="154.5" r="6.1"/><circle cx="640.5" cy="139" r="6.1"/><circle cx="641.8" cy="120.6" r="6.1"/><circle cx="654.2" cy="118.8" r="6.1"/><circle cx="655.4" cy="95.9" r="6.1"/><circle cx="641.8" cy="98.3" r="6.1"/><circle cx="645.9" cy="82.1" r="6.1"/><circle cx="642.4" cy="68.4" r="6.1"/><circle cx="642.4" cy="38.6" r="6.1"/><circle cx="630.2" cy="30.3" r="6.1"/><circle cx="652.1" cy="132.9" r="6.1"/><circle cx="664.2" cy="129.1" r="6.1"/><circle cx="630.2" cy="132.9" r="6.1"/><circle cx="629.4" cy="208.5" r="6.1"/><circle cx="616.4" cy="203.3" r="6.1"/><circle cx="606" cy="202.9" r="6.1"/><circle cx="629.4" cy="196.8" r="6.1"/><circle cx="642.4" cy="197.2" r="6.1"/><circle cx="655.4" cy="196.8" r="6.1"/><circle cx="641.8" cy="183" r="6.1"/><circle cx="631.5" cy="176.9" r="6.1"/><circle cx="617" cy="174.3" r="6.1"/><circle cx="652.1" cy="180.4" r="6.1"/><circle cx="667.2" cy="170.8" r="6.1"/><circle cx="654.9" cy="212.9" r="6.1"/><circle cx="666.7" cy="221.6" r="6.1"/><circle cx="640.5" cy="231.3" r="6.1"/><circle cx="627.5" cy="227.4" r="6.1"/><circle cx="678.9" cy="281.9" r="6.1"/><circle cx="591" cy="296.9" r="6.1"/><circle cx="641.8" cy="350.7" r="6.1"/><circle cx="540.1" cy="251.8" r="6.1"/><circle cx="756.7" cy="251.8" r="6.1"/></g></svg>