<?xml version="1.0" encoding="utf-8"?>
<!-- Generator: Adobe Illustrator 22.1.0, SVG Export Plug-In . SVG Version: 6.00 Build 0)  -->
<svg version="1.1" id="Layer_1" xmlns="http://www.w3.org/2000/svg" xmlns:xlink="http://www.w3.org/1999/xlink" x="0px" y="0px"
	 viewBox="0 0 500 500" style="enable-background:new 0 0 500 500;" xml:space="preserve">
<style type="text/css">
	.st0{fill:#FFFFFF;stroke:#000000;stroke-miterlimit:10;}
	.st1{fill:none;stroke:#000000;stroke-miterlimit:10;}
	.st2{fill:#A5A5B9;}
	.st3{font-family:'RobotoMono-Regular';}
	.st4{font-size:10.7579px;}
	.st5{fill:none;stroke:#A8A8A8;stroke-width:1.1052;stroke-miterlimit:10;}
	
		.st6{opacity:0.8;fill:none;stroke:#A8A8A8;stroke-width:1.6578;stroke-linecap:round;stroke-miterlimit:10;stroke-dasharray:0,3.3156;enable-background:new    ;}
	.st7{fill:#514361;}
	.st8{font-size:18.8263px;}
	.st9{enable-background:new    ;}
	.st10{font-family:'Roboto-Italic';}
	.st11{font-size:12.1026px;}
</style>
<polyline class="st0" points="62.7,482 62.7,363 152.8,363 152.8,482 "/>
<polyline class="st0" points="107.2,363 107.2,269 243,269 243,363 "/>
<polyline class="st1" points="175.2,269 175.2,174 378,174 378,364 "/>
<polyline class="st0" points="197.8,482 197.8,363 287.9,363 287.9,482 "/>
<polyline class="st0" points="332.9,482 332.9,363 423,363 423,482 "/>
<text transform="matrix(1 0 0 1 22.1055 496.9004)" class="st2 st3 st4">0</text>
<path class="st5" d="M32.6,481.7v-10.1"/>
<text transform="matrix(1 0 0 1 13.5576 403.8887)" class="st2 st3 st4">20</text>
<text transform="matrix(1 0 0 1 13.5576 322.9678)" class="st2 st3 st4">40</text>
<text transform="matrix(1 0 0 1 13.5576 242.0464)" class="st2 st3 st4">60</text>
<text transform="matrix(1 0 0 1 13.5576 161.1255)" class="st2 st3 st4">80</text>
<text transform="matrix(1 0 0 1 5.8457 80.2036)" class="st2 st3 st4">100</text>
<path class="st5" d="M32.6,481.7V77.1"/>
<path class="st5" d="M32.6,319.9v161.8h10.1"/>
<path class="st5" d="M32.6,400.8h10.1"/>
<path class="st5" d="M32.6,238.9h10.1"/>
<path class="st5" d="M32.6,319.9h10.1"/>
<path class="st5" d="M32.6,158.1h10.1"/>
<path class="st5" d="M32.6,77.1h10.1"/>
<path class="st6" d="M274.2,140.8H324"/>
<text transform="matrix(1 0 0 1 30.5156 45.0786)" class="st7 st3 st8">scale axis</text>
<text transform="matrix(1 0 0 1 328.1934 146.3403)" class="st7 st3 st8">root node</text>
<path class="st6" d="M378.2,254.8L405,255"/>
<text transform="matrix(1 0 0 1 410.1934 247.3403)" class="st9"><tspan x="0" y="0" class="st7 st3 st8">leaf </tspan><tspan x="0" y="22.6" class="st7 st3 st8">node</tspan></text>
<text transform="matrix(1 0 0 1 33.7344 61.105)" class="st7 st10 st11">shows dissimilarity</text>
<polyline class="st1" points="274.2,175 274.2,106.5 501,106.5 "/>
</svg>
