<?xml version="1.0" encoding="utf-8"?>
<!-- Generator: Adobe Illustrator 22.1.0, SVG Export Plug-In . SVG Version: 6.00 Build 0)  -->
<svg version="1.1" id="Layer_1" xmlns="http://www.w3.org/2000/svg" xmlns:xlink="http://www.w3.org/1999/xlink" x="0px" y="0px"
	 viewBox="0 0 1822.9 1167.1" style="enable-background:new 0 0 1822.9 1167.1;" xml:space="preserve">
<style type="text/css">
	.st0{fill:#FFFFFF;}
	.st1{fill:#BABABA;}
	.st2{fill:none;stroke:#909090;stroke-width:16;stroke-miterlimit:10;}
	.st3{fill:none;stroke:#AFAFAF;stroke-width:4;stroke-linecap:round;stroke-miterlimit:10;stroke-dasharray:0,9.9536;}
	.st4{fill:#514361;}
	.st5{font-family:'RobotoMono-Regular';}
	.st6{font-size:63px;}
</style>
<rect x="8.6" y="153.1" class="st0" width="1179.4" height="195.3"/>
<rect x="8.6" y="153.1" class="st1" width="293.9" height="195.3"/>
<rect x="7.5" y="153.1" class="st2" width="1180.4" height="193"/>
<polyline class="st3" points="7,119.2 7,79.2 300,79.2 300,119.2 "/>
<polyline class="st3" points="1193,380.2 1193,420.2 8,420.2 8,380.2 "/>
<line class="st2" x1="597.7" y1="153.1" x2="597.7" y2="346.1"/>
<line class="st2" x1="892.8" y1="153.1" x2="892.8" y2="346.1"/>
<line class="st2" x1="302.6" y1="153.1" x2="302.6" y2="346.1"/>
<g>
	<g>
		<text transform="matrix(0.9552 0 0 1 136.6733 55.6553)" class="st4 st5 st6">A</text>
	</g>
</g>
<g>
	<g>
		<g>
			<text transform="matrix(0.9552 0 0 1 526.2109 495.6348)" class="st4 st5 st6">A x 4</text>
		</g>
	</g>
</g>
<rect x="8.6" y="607.2" class="st0" width="884.2" height="195.3"/>
<rect x="7.5" y="607.2" class="st2" width="885.2" height="193"/>
<polyline class="st3" points="1778,834.3 1778,874.3 8,874.3 8,834.3 "/>
<line class="st2" x1="597.7" y1="607.2" x2="597.7" y2="800.2"/>
<line class="st2" x1="892.8" y1="607.2" x2="892.8" y2="800.2"/>
<line class="st2" x1="302.6" y1="607.2" x2="302.6" y2="800.2"/>
<rect x="893.9" y="607.2" class="st0" width="884.2" height="195.3"/>
<rect x="892.7" y="607.2" class="st2" width="885.2" height="193"/>
<line class="st2" x1="1482.9" y1="607.2" x2="1482.9" y2="800.2"/>
<line class="st2" x1="1778" y1="607.2" x2="1778" y2="800.2"/>
<line class="st2" x1="1187.8" y1="607.2" x2="1187.8" y2="800.2"/>
<g>
	<g>
		<g>
			<text transform="matrix(0.9552 0 0 1 801.2517 956.0293)" class="st4 st5 st6">A x 6</text>
		</g>
	</g>
</g>
</svg>
