<svg enable-background="new 0 0 1268 418" viewBox="0 0 1268 418" xmlns="http://www.w3.org/2000/svg"><text fill="#aea5bf" font-family="'RobotoCondensed-Regular'" font-size="22.4414" transform="translate(10.4741 34.3242)">janvier</text><path d="m213 50.4h-58.7v-43.4h58.7zm66.7-43.4h-58.7v43.4h58.7zm66.7 0h-58.7v43.4h58.7zm66.8 0h-58.7v43.4h58.7zm66.7 0h-58.7v43.4h58.7zm74.7.5h-58.7v43.4h58.7zm66.7 0h-58.7v43.4h58.7zm66.7 0h-58.7v43.4h58.7zm66.7 0h-58.7v43.4h58.7zm66.8 0h-58.7v43.4h58.7zm74.7 0h-58.7v43.4h58.7zm66.7 0h-58.7v43.4h58.7zm66.7 0h-58.7v43.4h58.7zm66.7 0h-58.7v43.4h58.7z" fill="#aea5bf"/><text fill="#d1cdc9" font-family="'RobotoCondensed-Regular'" font-size="22.4414" transform="translate(97.4974 34.3242)">280</text><text fill="#aea5bf" font-family="'RobotoCondensed-Regular'" font-size="22.4414" transform="translate(12.6655 110.4404)">février</text><path d="m213 121.7h-58.7v-43.4h58.7zm66.7-43.4h-58.7v43.4h58.7zm66.7 0h-58.7v43.4h58.7zm66.8 0h-58.7v43.4h58.7zm66.7 0h-58.7v43.4h58.7zm74.7.5h-58.7v43.4h58.7zm66.7 0h-58.7v43.4h58.7zm66.7 0h-58.7v43.4h58.7zm66.7 0h-58.7v43.4h58.7zm66.8 0h-58.7v43.4h58.7zm74.7 0h-58.7v43.4h58.7z" fill="#aea5bf"/><text fill="#d1cdc9" font-family="'RobotoCondensed-Regular'" font-size="22.4414" transform="translate(97.4974 110.4404)">220</text><text fill="#aea5bf" font-family="'RobotoCondensed-Regular'" font-size="22.4414" transform="translate(24.4888 177.8848)">mars</text><path d="m213 193.5h-58.7v-43.4h58.7zm66.7-43.4h-58.7v43.4h58.7zm66.7 0h-58.7v43.4h58.7zm66.8 0h-58.7v43.4h58.7zm66.7 0h-58.7v43.4h58.7zm74.7.5h-58.7v43.4h58.7z" fill="#aea5bf"/><text fill="#d1cdc9" font-family="'RobotoCondensed-Regular'" font-size="22.4414" transform="translate(97.4974 177.8848)">120</text><text fill="#aea5bf" font-family="'RobotoCondensed-Regular'" font-size="22.4414" transform="translate(31.7202 245.7871)">avril</text><path d="m213 265.8h-58.7v-43.4h58.7zm66.7-43.4h-58.7v43.4h58.7zm66.7 0h-58.7v43.4h58.7zm66.8 0h-58.7v43.4h58.7zm66.7 0h-58.7v43.4h58.7zm74.7.5h-58.7v43.4h58.7zm66.7 0h-58.7v43.4h58.7zm66.7 0h-58.7v43.4h58.7zm66.7 0h-58.7v43.4h58.7zm66.8 0h-58.7v43.4h58.7zm74.7 0h-58.7v43.4h58.7zm66.7 0h-58.7v43.4h58.7zm66.7 0h-58.7v43.4h58.7z" fill="#aea5bf"/><text fill="#d1cdc9" font-family="'RobotoCondensed-Regular'" font-size="22.4414" transform="translate(97.497 245.7871)">260</text><text fill="#aea5bf" font-family="'RobotoCondensed-Regular'" font-size="22.4414" transform="translate(36.3999 318.0957)">mai</text><path d="m213 337.6h-58.7v-43.4h58.7zm66.7-43.4h-58.7v43.4h58.7zm66.7 0h-58.7v43.4h58.7zm66.8 0h-58.7v43.4h58.7zm66.7 0h-58.7v43.4h58.7zm74.7.5h-58.7v43.4h58.7zm66.7 0h-58.7v43.4h58.7zm66.7 0h-58.7v43.4h58.7zm66.7 0h-58.7v43.4h58.7z" fill="#aea5bf"/><g font-family="'RobotoCondensed-Regular'" font-size="22.4414"><text fill="#d1cdc9" transform="translate(97.4974 318.0957)">180</text><text fill="#aea5bf" transform="translate(37.3091 391.1025)">juin</text><text fill="#d1cdc9" transform="translate(97.4974 391.1025)">320</text></g><path d="m213 410.6h-58.7v-43.4h58.7zm66.7-43.4h-58.7v43.4h58.7zm66.7 0h-58.7v43.4h58.7zm66.8 0h-58.7v43.4h58.7zm66.7 0h-58.7v43.4h58.7zm74.7.5h-58.7v43.4h58.7zm66.7 0h-58.7v43.4h58.7zm66.7 0h-58.7v43.4h58.7zm66.7 0h-58.7v43.4h58.7zm66.8 0h-58.7v43.4h58.7zm74.7 0h-58.7v43.4h58.7zm66.7 0h-58.7v43.4h58.7zm66.7 0h-58.7v43.4h58.7zm66.7 0h-58.7v43.4h58.7zm66.7 0h-58.7v43.4h58.7zm0 0h-58.7v43.4h58.7zm74.8 0h-58.8v43.4h58.7v-43.4z" fill="#aea5bf"/></svg>