<svg enable-background="new 0 0 1200 800" viewBox="0 0 1200 800" xmlns="http://www.w3.org/2000/svg"><text fill="#514361" font-family="'RobotoMono-Regular'" font-size="33.1717" transform="translate(999.9611 724.7188)">legend</text><text fill="#939393" font-family="'RobotoMono-Regular'" font-size="33.1717" transform="translate(655.9836 721.2667)">= 100 galons</text><text fill="#939393" font-family="'RobotoMono-Regular'" font-size="33.1717" transform="translate(298.9914 684.2745)">category A</text><text fill="#939393" font-family="'RobotoMono-Regular'" font-size="33.1717" transform="translate(298.9914 742.7374)">category B</text><text fill="#514361" font-family="'RobotoMono-Regular'" font-size="33.1717" transform="translate(448.1496 581.7042)">unit</text><text fill="#514361" font-family="'RobotoMono-Regular'" font-size="33.1717" transform="translate(1081.3235 261.2896)">ratio</text><path d="m929.3 638.2h13" style="fill:none;stroke:#afafaf;stroke-width:3.3172;stroke-linecap:round;stroke-miterlimit:10;stroke-dasharray:0 8.6407"/><path d="m946.6 646.3v138.5" style="fill:none;stroke:#afafaf;stroke-width:3.3172;stroke-linecap:round;stroke-miterlimit:10;stroke-dasharray:0 8.0842"/><path d="m938 788.8h-13" style="fill:none;stroke:#afafaf;stroke-width:3.3172;stroke-linecap:round;stroke-miterlimit:10;stroke-dasharray:0 8.6407"/><path d="m952.4 715h40" style="fill:none;stroke:#afafaf;stroke-width:3.3172;stroke-linecap:round;stroke-miterlimit:10;stroke-dasharray:0 8.2545"/><path d="m1022 145.2h13" style="fill:none;stroke:#afafaf;stroke-width:3.185;stroke-linecap:round;stroke-miterlimit:10;stroke-dasharray:0 8.2964"/><path d="m1039.3 152.7v320.7" style="fill:none;stroke:#afafaf;stroke-width:3.185;stroke-linecap:round;stroke-miterlimit:10;stroke-dasharray:0 7.8576"/><path d="m1030.6 477.2h-12.9" style="fill:none;stroke:#afafaf;stroke-width:3.185;stroke-linecap:round;stroke-miterlimit:10;stroke-dasharray:0 8.2964"/><path d="m1039.3 251.6h26.2" style="fill:none;stroke:#afafaf;stroke-width:3.3172;stroke-linecap:round;stroke-miterlimit:10;stroke-dasharray:0 8.2545"/><circle cx="252.6" cy="674.6" fill="#909090" r="16.6"/><circle cx="252.6" cy="734.5" fill="#bcbcbc" r="16.6"/><path d="m202.7 18h142.5v75.2h-142.5z" fill="#cecece"/><path d="m416.5 18h142.5v75.2h-142.5z" fill="#cecece"/><path d="m844.9 18h142.5v75.2h-142.5z" fill="#cecece"/><path d="m631.1 18h142.5v75.2h-142.5z" fill="#cecece"/><path d="m202.7 153.4h142.5v75.2h-142.5z" fill="#cecece"/><g fill="#909090"><path d="m416.5 153.4h142.5v75.2h-142.5z"/><path d="m844.9 153.4h142.5v75.2h-142.5z"/><path d="m631.1 153.4h142.5v75.2h-142.5z"/><path d="m202.7 288.8h142.5v75.2h-142.5z"/><path d="m416.5 288.8h142.5v75.2h-142.5z"/><path d="m844.9 288.8h142.5v75.2h-142.5z"/><path d="m631.1 288.8h142.5v75.2h-142.5z"/><path d="m202.7 424.3h142.5v75.2h-142.5z"/><path d="m416.5 424.3h142.5v75.2h-142.5z"/><path d="m844.9 424.3h142.5v75.2h-142.5z"/><path d="m631.1 424.3h142.5v75.2h-142.5z"/></g><text transform="translate(14.7497 221.2096)"><tspan fill="#514361" font-family="'RobotoMono-Regular'" font-size="33.1717" x="0" y="0">total</tspan><tspan fill="#514361" font-family="'RobotoMono-Regular'" font-size="33.1717" x="59.7" y="39.8">of</tspan><tspan fill="#514361" font-family="'RobotoMono-Regular'" font-size="33.1717" x="19.9" y="79.6">100%</tspan></text><path d="m164.7 10.1h-16.2" style="fill:none;stroke:#afafaf;stroke-width:4.3653;stroke-linecap:round;stroke-miterlimit:10;stroke-dasharray:0 11.3708"/><path d="m143.1 21.3v481.1" style="fill:none;stroke:#afafaf;stroke-width:4.3653;stroke-linecap:round;stroke-miterlimit:10;stroke-dasharray:0 10.7694"/><path d="m153.9 508.1h16.2" style="fill:none;stroke:#afafaf;stroke-width:4.3653;stroke-linecap:round;stroke-miterlimit:10;stroke-dasharray:0 11.3708"/><path d="m563.4 674.2h74.6v74.6h-74.6z" fill="#909090"/><path d="m492.1 548.1v-40" style="fill:none;stroke:#afafaf;stroke-width:3.3172;stroke-linecap:round;stroke-miterlimit:10;stroke-dasharray:0 8.2545"/></svg>