<svg height="418" viewBox="0 0 1268 418" width="1268" xmlns="http://www.w3.org/2000/svg"><path d="m211.7 43.1h36.4v26.7h-36.4zm49 0h36.4v26.7h-36.4zm49 0h36.4v26.7h-36.4zm-293.9 35.9h36.4v26.7h-36.4zm49 0h36.4v26.7h-36.4zm49 0h36.4v26.7h-36.4zm49 0h36.4v26.7h-36.4zm48.9 0h36.4v26.7h-36.4zm49 0h36.4v26.7h-36.4zm49 0h36.4v26.7h-36.4zm-293.9 35.9h36.4v26.7h-36.4zm49 0h36.4v26.7h-36.4zm49 0h36.4v26.7h-36.4zm49 0h36.4v26.7h-36.4zm48.9 0h36.4v26.7h-36.4zm49 0h36.4v26.7h-36.4zm49 0h36.4v26.7h-36.4zm-293.9 35.9h36.4v26.7h-36.4zm49 0h36.4v26.7h-36.4zm49 0h36.4v26.7h-36.4zm49 0h36.4v26.7h-36.4zm48.9 0h36.4v26.7h-36.4zm49 0h36.4v26.7h-36.4zm49 0h36.4v26.7h-36.4zm-293.9 36h36.4v26.7h-36.4zm49 0h36.4v26.7h-36.4zm49 0h36.4v26.7h-36.4zm49 0h36.4v26.7h-36.4zm48.9 0h36.4v26.7h-36.4zm49 0h36.4v26.7h-36.4zm49 0h36.4v26.7h-36.4zm-293.9 35.9h36.4v26.7h-36.4zm49 0h36.4v26.7h-36.4zm49 0h36.4v26.7h-36.4zm49 0h36.4v26.7h-36.4zm48.9 0h36.4v26.7h-36.4zm49 0h36.4v26.7h-36.4zm49 0h36.4v26.7h-36.4zm-293.9 35.9h36.4v26.7h-36.4zm49 0h36.4v26.7h-36.4zm49 0h36.4v26.7h-36.4zm49 0h36.4v26.7h-36.4zm48.9 0h36.4v26.7h-36.4zm49 0h36.4v26.7h-36.4zm49 0h36.4v26.7h-36.4zm-293.9 35.9h36.4v26.7h-36.4zm49 0h36.4v26.7h-36.4zm49 0h36.4v26.7h-36.4zm49 0h36.4v26.7h-36.4zm48.9 0h36.4v26.7h-36.4zm49 0h36.4v26.7h-36.4zm49 0h36.4v26.7h-36.4zm-293.9 35.9h36.4v26.7h-36.4zm49 0h36.4v26.7h-36.4zm49 0h36.4v26.7h-36.4zm49 0h36.4v26.7h-36.4zm48.9 0h36.4v26.7h-36.4zm49 0h36.4v26.7h-36.4zm49 0h36.4v26.7h-36.4z" fill="#b2a4c1"/><path d="m573.8 114.9h36.4v26.7h-36.4zm-98 35.9h36.4v26.7h-36.4zm49 0h36.4v26.7h-36.4zm49 0h36.4v26.7h-36.4zm-98 36h36.4v26.7h-36.4zm49 0h36.4v26.7h-36.4zm49 0h36.4v26.7h-36.4zm-98 35.9h36.4v26.7h-36.4zm49 0h36.4v26.7h-36.4zm49 0h36.4v26.7h-36.4zm-98 35.9h36.4v26.7h-36.4zm49 0h36.4v26.7h-36.4zm49 0h36.4v26.7h-36.4zm-98 35.9h36.4v26.7h-36.4zm49 0h36.4v26.7h-36.4zm49 0h36.4v26.7h-36.4zm-98 35.9h36.4v26.7h-36.4zm49 0h36.4v26.7h-36.4zm49 0h36.4v26.7h-36.4zm49-215.5h36.4v26.7h-36.4zm49 0h36.4v26.7h-36.4zm47 0h36.4v26.7h-36.4zm49 0h36.4v26.7h-36.4zm-145 35.9h36.4v26.7h-36.4zm49 0h36.4v26.7h-36.4zm47 0h36.4v26.7h-36.4zm49 0h36.4v26.7h-36.4zm-145 36h36.4v26.7h-36.4zm49 0h36.4v26.7h-36.4zm47 0h36.4v26.7h-36.4zm49 0h36.4v26.7h-36.4zm-145 35.9h36.4v26.7h-36.4zm49 0h36.4v26.7h-36.4zm47 0h36.4v26.7h-36.4zm49 0h36.4v26.7h-36.4zm-145 35.9h36.4v26.7h-36.4zm49 0h36.4v26.7h-36.4zm47 0h36.4v26.7h-36.4zm49 0h36.4v26.7h-36.4zm-145 35.9h36.4v26.7h-36.4zm49 0h36.4v26.7h-36.4zm47 0h36.4v26.7h-36.4zm49 0h36.4v26.7h-36.4zm-145 35.9h36.4v26.7h-36.4zm49 0h36.4v26.7h-36.4zm47 0h36.4v26.7h-36.4zm49 0h36.4v26.7h-36.4z" fill="#8b779d"/><path d="m1073.7 7.1h36.4v26.7h-36.4zm49 0h36.4v26.7h-36.4zm-195.9 36h36.4v26.7h-36.4zm48.9 0h36.4v26.7h-36.4zm49 0h36.4v26.7h-36.4zm49 0h36.4v26.7h-36.4zm49 0h36.4v26.7h-36.4zm-195.9 35.9h36.4v26.7h-36.4zm48.9 0h36.4v26.7h-36.4zm49 0h36.4v26.7h-36.4zm49 0h36.4v26.7h-36.4zm49 0h36.4v26.7h-36.4zm-195.9 35.9h36.4v26.7h-36.4zm48.9 0h36.4v26.7h-36.4zm49 0h36.4v26.7h-36.4zm49 0h36.4v26.7h-36.4zm49 0h36.4v26.7h-36.4zm-195.9 35.9h36.4v26.7h-36.4zm48.9 0h36.4v26.7h-36.4zm49 0h36.4v26.7h-36.4zm49 0h36.4v26.7h-36.4zm49 0h36.4v26.7h-36.4zm-195.9 36h36.4v26.7h-36.4zm48.9 0h36.4v26.7h-36.4zm49 0h36.4v26.7h-36.4zm49 0h36.4v26.7h-36.4zm49 0h36.4v26.7h-36.4zm-195.9 35.9h36.4v26.7h-36.4zm48.9 0h36.4v26.7h-36.4zm49 0h36.4v26.7h-36.4zm49 0h36.4v26.7h-36.4zm49 0h36.4v26.7h-36.4zm-195.9 35.9h36.4v26.7h-36.4zm48.9 0h36.4v26.7h-36.4zm49 0h36.4v26.7h-36.4zm49 0h36.4v26.7h-36.4zm49 0h36.4v26.7h-36.4zm-195.9 35.9h36.4v26.7h-36.4zm48.9 0h36.4v26.7h-36.4zm49 0h36.4v26.7h-36.4zm49 0h36.4v26.7h-36.4zm49 0h36.4v26.7h-36.4zm-195.9 35.9h36.4v26.7h-36.4zm48.9 0h36.4v26.7h-36.4zm49 0h36.4v26.7h-36.4zm49 0h36.4v26.7h-36.4zm49 0h36.4v26.7h-36.4zm46.1-323.3h36.4v26.7h-36.4zm49 0h36.4v26.7h-36.4zm-49 36h36.4v26.7h-36.4zm49 0h36.4v26.7h-36.4zm-49 35.9h36.4v26.7h-36.4zm49 0h36.4v26.7h-36.4zm-49 35.9h36.4v26.7h-36.4zm49 0h36.4v26.7h-36.4zm-49 35.9h36.4v26.7h-36.4zm49 0h36.4v26.7h-36.4zm-49 36h36.4v26.7h-36.4zm49 0h36.4v26.7h-36.4zm-49 35.9h36.4v26.7h-36.4zm49 0h36.4v26.7h-36.4zm-49 35.9h36.4v26.7h-36.4zm49 0h36.4v26.7h-36.4zm-49 35.9h36.4v26.7h-36.4zm49 0h36.4v26.7h-36.4zm-49 35.9h36.4v26.7h-36.4zm49 0h36.4v26.7h-36.4z" fill="#775996"/><g fill="#b3b0b7"><text font-family="Roboto-Regular, Roboto" font-size="34.9" transform="translate(175.7 407.4)">84%</text><text font-family="Roboto-Regular, Roboto" font-size="34.9" transform="translate(631 407.4)">67%</text><text font-family="Roboto-Regular, Roboto" font-size="34.9" transform="translate(1083.1 407.4)">96%</text><path d="m133 406.1v3.2a3.3 3.3 0 0 1 -6.5 0v-3.2h-3.2v-10.6a5 5 0 0 1 3.7-4.9l3.7-9a3.8 3.8 0 0 1 3.4-2.2h19.4a3.8 3.8 0 0 1 3.4 2.2l3.7 9a5.2 5.2 0 0 1 3.7 4.9v10.6h-3.3v3.2a3.3 3.3 0 0 1 -6.5 0v-3.2zm-3-5.9a3.2 3.2 0 0 0 3.2-3.2 3.2 3.2 0 0 0 -3.2-3.3 3.3 3.3 0 0 0 -3.3 3.3 3.2 3.2 0 0 0 3.3 3.2m30.7-3.2a3.3 3.3 0 1 0 -6.6 0 3.3 3.3 0 0 0 6.6 0m-3.3-6.5-3.2-7.8a1.2 1.2 0 0 0 -1-.7h-18.8a1 1 0 0 0 -.9.7l-3.3 7.8z"/><path d="m616.2 391.5h-23.8a1.3 1.3 0 0 1 -1.3-1.3c0-.2.1-.3.1-.4l1.2-9.3a1.4 1.4 0 0 1 1.3-1.1h21.2a1.3 1.3 0 0 1 1.2 1.1l1.3 9.3v.4a1.2 1.2 0 0 1 -1.2 1.3m-1 10.2a2.5 2.5 0 0 1 0-4.9 2.5 2.5 0 0 1 2.5 2.5 2.5 2.5 0 0 1 -2.5 2.4m-21.9 0a2.5 2.5 0 0 1 0-4.9 2.4 2.4 0 0 1 2.4 2.5 2.4 2.4 0 0 1 -2.4 2.4m3.8-26.5h14.4c1.4 0 1.4 2.7 0 2.7h-14.4c-1.4 0-1.4-2.7 0-2.7m21.6 3.1c-.5-2.1-1.8-3-3.9-3.9a35.9 35.9 0 0 0 -10.5-1.9 32.9 32.9 0 0 0 -10.5 1.9c-2.1.9-3.4 1.7-3.9 3.9l-1.5 11.9v16.4h2.7v2.6a2.3 2.3 0 1 0 4.6 0v-2.6h17.3v2.6a2.3 2.3 0 1 0 4.6 0v-2.6h2.6v-16.4z"/><path d="m1076.5 379.2c2.5-2.4-.9-5.5-3.3-3.2l-8.8 8.9-20.3-5.3-3.4 3.3 16.7 8.8-6.7 6.8-5.3-.7-2.7 2.7 6 3.1 3.1 6 2.7-2.7-.6-5.2 6.7-6.8 8.6 16.6 3.4-3.3-5.1-19.9z"/></g></svg>