<svg height="256" viewBox="0 0 256 256" width="256" xmlns="http://www.w3.org/2000/svg"><path d="m254 240h-251v13h251zm-100-9.5a21.3 21.3 0 0 1 -14 5.3 21.7 21.7 0 0 1 -18.1-10.1 25.6 25.6 0 0 0 4.3-5.9 21.8 21.8 0 0 0 19.4 12.4 21.4 21.4 0 0 0 8.4-1.7zm100-23.9c0 14.1-10.7 25.6-23.8 25.6a23.3 23.3 0 0 1 -18.8-9.9 24.9 24.9 0 0 0 3.8-13.3c0-11.8-7.9-21.5-18.3-23.5a31.1 31.1 0 0 0 -5.4-13l.2-.2c7.7-3.8 13.2-14 13.2-25.8 0-10.2-4-19-10-23.7a33.4 33.4 0 0 0 5.3-18.6 34.4 34.4 0 0 0 -1-8.6 32.9 32.9 0 0 0 6.2-19.8c0-12.7-6.4-23.5-15-26.5 3.5-9.7 10.8-16.3 19.2-16.3 11.8 0 21.4 13.2 21.4 29.4a38.8 38.8 0 0 1 -3.4 16 38.3 38.3 0 0 1 3.4 15.9c0 9.1-3 17.3-7.8 22.7 4.8 5.4 7.8 13.5 7.8 22.6s-3.7 19.1-9.4 24.3c4.3 4 7.4 10.1 8.7 17.1 13.1.1 23.7 11.5 23.7 25.6zm-46.3 3.4c0 13.2-10 23.9-22.2 23.9a21.7 21.7 0 0 1 -18.1-10.1 24.7 24.7 0 0 0 7-17.4c0-13.2-9.9-23.8-22.1-23.9l-.3-1.6c2.3-6.5 6.4-11.5 11.4-13.9a35 35 0 0 1 -.7-38.1c-5.9-4.8-9.9-13.6-9.9-23.7 0-7.8 2.3-14.8 6.1-19.8a39.7 39.7 0 0 1 -1-8.6c0-15.2 9-27.4 20-27.4s20 12.2 20 27.4c0 7.7-2.4 14.8-6.1 19.7a40.7 40.7 0 0 1 1 8.7 33.3 33.3 0 0 1 -5.3 18.5c5.9 4.8 9.9 13.6 9.9 23.7 0 12-5.6 22.2-13.4 25.9a32.1 32.1 0 0 1 5.4 13.1c10.4 2 18.3 11.8 18.3 23.6zm-39.8-.7c0 13.2-10 23.9-22.3 23.9a21.8 21.8 0 0 1 -19.4-12.4c-3.8 7.4-11.1 12.4-19.5 12.4a21.2 21.2 0 0 1 -5.7-.8c7.6-2.3 13.2-9.8 13.2-18.8s-5.6-16.4-13.2-18.7a28 28 0 0 0 -2.4-7.9 21.7 21.7 0 0 1 8.1-1.6h.3c1.6-8.6 6.2-15.6 12.1-18.8-4-4-6.5-10.5-6.5-17.9a27.5 27.5 0 0 1 4.3-15.2 27.1 27.1 0 0 1 -5.3-16.5c0-12.4 7.4-22.4 16.4-22.4s16.3 10 16.3 22.4a27.2 27.2 0 0 1 -4.3 15.2 27.1 27.1 0 0 1 5.2 16.5c0 8.6-3.5 16.1-8.6 19.8 4.5 3.7 7.8 9.7 9.2 16.9 12.2.1 22.1 10.7 22.1 23.9zm-59.3 3.4c0 10.8-8.2 19.5-18.2 19.5a17.4 17.4 0 0 1 -13.5-6.5 17.4 17.4 0 0 1 -13.5 6.5 20 20 0 0 1 -4.9-.7c8.6-1.2 15.2-8.1 15.2-16.3s-8-16.5-17.8-16.5a31.8 31.8 0 0 0 -1-3.3 17.3 17.3 0 0 1 8.5-2.2h.3a25.1 25.1 0 0 1 3.9-9.9 27.7 27.7 0 0 1 -4.5-15.4 26.4 26.4 0 0 1 6-17.3 26.3 26.3 0 0 1 -6-17.2 27.6 27.6 0 0 1 4.2-15 27 27 0 0 1 -4.2-14.9c0-12.3 7.4-22.4 16.4-22.4s16.3 10.1 16.3 22.4a26.9 26.9 0 0 1 -4.1 14.9 27.5 27.5 0 0 1 4.1 15c0 6.9-2.3 13.1-5.9 17.2 3.6 4.1 5.9 10.3 5.9 17.3a27 27 0 0 1 -4.5 15.4 24.3 24.3 0 0 1 4.1 10.6c7.6 2.4 13.2 9.9 13.2 18.8zm-40.5 4.4c0 9.1-8 16.5-17.9 16.5a18.2 18.2 0 0 1 -15.7-8.5 18 18 0 0 1 -15.7 8.5c-9.9 0-17.9-7.4-17.9-16.5s8-16.5 17.9-16.5h.3a21 21 0 0 1 3.9-8.4 21 21 0 0 1 -4.4-13 20.4 20.4 0 0 1 5.8-14.6 20.8 20.8 0 0 1 -5.8-14.6c0-10.5 7.2-19 16.1-19s16.1 8.5 16.1 19a20.8 20.8 0 0 1 -5.8 14.6 20.4 20.4 0 0 1 5.8 14.6 21 21 0 0 1 -4.4 13 21 21 0 0 1 3.9 8.4c9.8 0 17.8 7.4 17.8 16.5z"/></svg>