<?xml version="1.0" encoding="utf-8"?>
<!-- Generator: Adobe Illustrator 22.1.0, SVG Export Plug-In . SVG Version: 6.00 Build 0)  -->
<svg version="1.1"
	 id="svg308" inkscape:version="0.92.2 5c3e80d, 2017-08-06" sodipodi:docname="BorderdeathCauseDeathIdentAlluvial.svg" xmlns:cc="http://creativecommons.org/ns#" xmlns:dc="http://purl.org/dc/elements/1.1/" xmlns:inkscape="http://www.inkscape.org/namespaces/inkscape" xmlns:rdf="http://www.w3.org/1999/02/22-rdf-syntax-ns#" xmlns:sodipodi="http://sodipodi.sourceforge.net/DTD/sodipodi-0.dtd" xmlns:svg="http://www.w3.org/2000/svg"
	 xmlns="http://www.w3.org/2000/svg" xmlns:xlink="http://www.w3.org/1999/xlink" x="0px" y="0px" viewBox="0 0 667 495"
	 style="enable-background:new 0 0 667 495;" xml:space="preserve">
<style type="text/css">
	.st0{fill:none;stroke:#C0BFC1;stroke-width:122.5;stroke-opacity:0.4;}
	.st1{fill:none;stroke:#C0BFC1;stroke-width:109.071;stroke-opacity:0.4;}
	.st2{fill:none;stroke:#C0BFC1;stroke-width:89;stroke-opacity:0.4;}
	.st3{fill:none;stroke:#5E5E5E;stroke-width:34;stroke-opacity:0.4;}
	.st4{fill:none;stroke:#C0BFC1;stroke-width:65;stroke-opacity:0.4;}
	.st5{fill:none;stroke:#E0E0E0;stroke-width:50.9492;stroke-opacity:0.4;}
	.st6{fill:none;stroke:#5E5E5E;stroke-width:45.7553;stroke-opacity:0.4;}
	.st7{fill:none;stroke:#5E5E5E;stroke-width:22.5067;stroke-opacity:0.4;}
	.st8{fill:#AEAEAF;}
	.st9{fill:#514361;}
	.st10{font-family:'RobotoMono-Regular';}
	.st11{font-size:24px;}
	.st12{fill:#757575;}
	.st13{font-size:22px;}
	.st14{font-size:19.4968px;}
	.st15{fill:none;stroke:#AFAFAF;stroke-width:2;stroke-linecap:round;stroke-miterlimit:10;stroke-dasharray:0,7;}
	.st16{fill:none;stroke:#AFAFAF;stroke-width:2;stroke-linecap:round;stroke-miterlimit:10;}
	.st17{fill:none;stroke:#AFAFAF;stroke-width:2;stroke-linecap:round;stroke-miterlimit:10;stroke-dasharray:0,7.15;}
	.st18{fill:none;stroke:#AFAFAF;stroke-width:2;stroke-linecap:round;stroke-miterlimit:10;stroke-dasharray:0,6.1502;}
	.st19{fill:none;stroke:#5E5E5E;stroke-miterlimit:10;stroke-dasharray:2,4;}
</style>
<sodipodi:namedview  bordercolor="#666666" borderopacity="1" gridtolerance="10" guidetolerance="10" id="namedview310" inkscape:current-layer="svg308" inkscape:cx="509.01098" inkscape:cy="330.84237" inkscape:pageopacity="0" inkscape:pageshadow="2" inkscape:window-height="748" inkscape:window-maximized="1" inkscape:window-width="1280" inkscape:window-x="0" inkscape:window-y="0" inkscape:zoom="1.2014558" objecttolerance="10" pagecolor="#ffffff" showgrid="false">
	</sodipodi:namedview>
<path id="path4" onfocusin="problem" onfocusout="problem" onmousedown="problem" onmouseup="problem" onclick="problem" onmouseover="problem" onmousemove="problem" onmouseout="problem" onload="problem" inkscape:connector-curvature="0" class="st0" d="
	M371.8,131.1c208.1,0,71.1-8,279.2-8">
<desc  id="desc681">problem</desc>
	<title  id="title2">495</title>
</path>
<path id="path8" inkscape:connector-curvature="0" class="st1" d="M87.5,112.4c208.1,0,71.1,12,279.2,12">
<title  id="title6">441</title>
</path>
<path id="path12" inkscape:connector-curvature="0" class="st2" d="M371.8,289.1c208.1,0,71.1-57.9,279.2-57.9">
<title  id="title10">380</title>
</path>
<path id="path16" inkscape:connector-curvature="0" class="st3" d="M371.8,209.1c208.1,0,71.1,99,279.2,99">
<title  id="title14">324</title>
</path>
<path id="path20" inkscape:connector-curvature="0" class="st4" d="M87.5,200.7c208.1,0,71.1,75.2,279.2,75.2">
<title  id="title18">273</title>
</path>
<path id="path24" inkscape:connector-curvature="0" class="st5" d="M371.8,391.6c208.1,0,72.1-39.3,280.2-39.3">
<title  id="title22">220</title>
</path>
<path id="path28" inkscape:connector-curvature="0" class="st5" d="M87.5,348.2c208.1,0,71.1,41.7,279.2,41.7">
<title  id="title26">206</title>
</path>
<path id="path32" inkscape:connector-curvature="0" class="st6" d="M87.5,267.3c208.1,0,71.1-65.5,279.2-65.5">
<title  id="title30">185</title>
</path>
<path id="path36" inkscape:connector-curvature="0" class="st7" d="M87.5,301.5c208.1,0,71.1,19.5,279.2,19.5">
<title  id="title34">91</title>
</path>
<rect id="rect154" x="644.1" y="290.7" class="st8" width="18.8" height="87.3">
<title  id="title152">no
618</title>
</rect>
<rect id="rect162" x="644.1" y="61.9" class="st8" width="18.8" height="216.4">
<title  id="title160">yes
875</title>
</rect>
<rect id="rect170" x="360.5" y="364.3" class="st8" width="18.8" height="52.7">
<title  id="title168">Coast Guard
220</title>
</rect>
<rect id="rect178" x="360.5" y="243.7" class="st8" width="18.8" height="90.3">
<title  id="title176">identified
454</title>
</rect>
<rect id="rect186" x="360.5" y="69.9" class="st8" width="18.8" height="156.5">
<title  id="title184">unidentified
822</title>
</rect>
<rect id="rect194" x="75.6" y="323.5" class="st8" width="18.8" height="50.9">
<title  id="title192">Agrigento 27
206</title>
</rect>
<rect id="rect234" x="75.6" y="57.2" class="st8" width="18.8" height="176.6">
<title  id="title232">drowning
714</title>
</rect>
<rect id="rect242" x="75.6" y="243.7" class="st8" width="18.8" height="70.3">
<title  id="title240">empty
276</title>
</rect>
<g>
	<text transform="matrix(1 0 0 1 319.4717 483.932)" class="st9 st10 st11">cluster</text>
</g>
<g>
	<text transform="matrix(1 0 0 1 503.184 483.9316)" class="st9 st10 st11">flow line</text>
</g>
<g>
	<text transform="matrix(1 0 0 1 5.9999 483.9319)" class="st9 st10 st11">category</text>
</g>
<g>
	<text transform="matrix(1 0 0 1 5.9998 24.2251)" class="st9 st10 st11">value</text>
</g>
<text transform="matrix(1 0 0 1 26.3994 151.9113)" class="st12 st10 st13">A</text>
<text transform="matrix(1 0 0 1 54.0834 117.1934)" class="st8 st10 st14">a</text>
<text transform="matrix(1 0 0 1 54.0833 206.8601)" class="st8 st10 st14">b</text>
<text transform="matrix(1 0 0 1 54.0833 272.5267)" class="st8 st10 st14">c</text>
<text transform="matrix(1 0 0 1 54.0833 308.86)" class="st8 st10 st14">d</text>
<text transform="matrix(1 0 0 1 54.0833 354.86)" class="st8 st10 st14">e</text>
<text transform="matrix(1 0 0 1 26.3994 284.277)" class="st12 st10 st13">B</text>
<text transform="matrix(1 0 0 1 26.3994 355.3799)" class="st12 st10 st13">C</text>
<polyline class="st15" points="653.5,54.9 653.5,41.4 87.5,41.4 87.5,54.9 "/>
<line class="st15" x1="369.2" y1="46.4" x2="369.2" y2="59.2"/>
<line class="st15" x1="369.9" y1="429" x2="369.9" y2="457"/>
<line class="st15" x1="33.4" y1="364" x2="33.4" y2="462"/>
<g>
	<g>
		<line class="st16" x1="33" y1="39.8" x2="33" y2="39.8"/>
		<line class="st17" x1="33" y1="47" x2="33" y2="107.7"/>
		<line class="st16" x1="33" y1="111.3" x2="33" y2="111.3"/>
		<line class="st18" x1="39.1" y1="111.4" x2="42.2" y2="111.4"/>
		<line class="st16" x1="45.3" y1="111.4" x2="45.3" y2="111.4"/>
	</g>
</g>
<path class="st19" d="M568,457"/>
<path class="st19" d="M568,377.5"/>
<line class="st15" x1="568" y1="447.1" x2="568" y2="378.8"/>
</svg>
