<?xml version="1.0" encoding="utf-8"?>
<!-- Generator: Adobe Illustrator 22.1.0, SVG Export Plug-In . SVG Version: 6.00 Build 0)  -->
<svg version="1.1"
	 id="svg308" inkscape:version="0.92.2 5c3e80d, 2017-08-06" sodipodi:docname="BorderdeathCauseDeathIdentAlluvial.svg" xmlns:cc="http://creativecommons.org/ns#" xmlns:dc="http://purl.org/dc/elements/1.1/" xmlns:inkscape="http://www.inkscape.org/namespaces/inkscape" xmlns:rdf="http://www.w3.org/1999/02/22-rdf-syntax-ns#" xmlns:sodipodi="http://sodipodi.sourceforge.net/DTD/sodipodi-0.dtd" xmlns:svg="http://www.w3.org/2000/svg"
	 xmlns="http://www.w3.org/2000/svg" xmlns:xlink="http://www.w3.org/1999/xlink" x="0px" y="0px" viewBox="0 0 667 529.1"
	 style="enable-background:new 0 0 667 529.1;" xml:space="preserve">
<style type="text/css">
	.st0{fill:none;stroke:#C0BFC1;stroke-width:150;stroke-opacity:0.4;}
	.st1{fill:none;stroke:#C0BFC1;stroke-width:135;stroke-opacity:0.4;}
	.st2{fill:none;stroke:#C0BFC1;stroke-width:89;stroke-opacity:0.4;}
	.st3{fill:none;stroke:#5E5E5E;stroke-width:39;stroke-opacity:0.4;}
	.st4{fill:none;stroke:#C0BFC1;stroke-width:65;stroke-opacity:0.4;}
	.st5{fill:none;stroke:#E0E0E0;stroke-width:50.9492;stroke-opacity:0.4;}
	.st6{fill:none;stroke:#5E5E5E;stroke-width:45.7553;stroke-opacity:0.4;}
	.st7{fill:none;stroke:#E0E0E0;stroke-width:88;stroke-opacity:0.4;}
	.st8{fill:#939393;}
	.st9{fill:#514361;}
	.st10{font-family:'RobotoMono-Regular';}
	.st11{font-size:24px;}
	.st12{fill:#757575;}
	.st13{font-size:22.7484px;}
	.st14{fill:none;stroke:#C9C9C9;stroke-width:4;stroke-linecap:round;stroke-miterlimit:10;stroke-dasharray:0,7;}
	.st15{fill:none;stroke:#5E5E5E;stroke-miterlimit:10;stroke-dasharray:2,4;}
	.st16{fill:none;stroke:#AFAFAF;stroke-width:2;stroke-linecap:round;stroke-miterlimit:10;stroke-dasharray:0,7;}
</style>
<sodipodi:namedview  bordercolor="#666666" borderopacity="1" gridtolerance="10" guidetolerance="10" id="namedview310" inkscape:current-layer="svg308" inkscape:cx="509.01098" inkscape:cy="330.84237" inkscape:pageopacity="0" inkscape:pageshadow="2" inkscape:window-height="748" inkscape:window-maximized="1" inkscape:window-width="1280" inkscape:window-x="0" inkscape:window-y="0" inkscape:zoom="1.2014558" objecttolerance="10" pagecolor="#ffffff" showgrid="false">
	</sodipodi:namedview>
<path id="path4" onfocusin="problem" onfocusout="problem" onmousedown="problem" onmouseup="problem" onclick="problem" onmouseover="problem" onmousemove="problem" onmouseout="problem" onload="problem" inkscape:connector-curvature="0" class="st0" d="
	M142.6,259.7c0-167.2-1.6-57.1-1.6-224.4">
<desc  id="desc681">problem</desc>
	<title  id="title2">495</title>
</path>
<path id="path8" inkscape:connector-curvature="0" class="st1" d="M135.1,488.2c0-167.2-0.6-57.1-0.6-224.4">
<title  id="title6">441</title>
</path>
<path id="path12" inkscape:connector-curvature="0" class="st2" d="M328.8,259.7c0-167.2-64.2-57.1-64.2-224.4">
<title  id="title10">380</title>
</path>
<path id="path16" inkscape:connector-curvature="0" class="st3" d="M236,259.7c0-167.2,105.6-57.1,105.6-224.4">
<title  id="title14">324</title>
</path>
<path id="path20" inkscape:connector-curvature="0" class="st4" d="M240.9,488.2c0-167.2,75.1-57.1,75.1-224.4">
<title  id="title18">273</title>
</path>
<path id="path24" inkscape:connector-curvature="0" class="st5" d="M401.6,260.7c-9.3-170.7-6-58.9-6-226.1">
<title  id="title22">220</title>
</path>
<path id="path32" inkscape:connector-curvature="0" class="st6" d="M313.7,488.2c0-167.2-85.4-57.1-85.4-224.4">
<title  id="title30">185</title>
</path>
<path id="path36" inkscape:connector-curvature="0" class="st7" d="M381.7,488.2c0-167.2,1.4-57.1,1.4-224.4">
<title  id="title34">91</title>
</path>
<rect id="rect154" x="320.9" y="25.8" class="st8" width="41.5" height="15.1">
<title  id="title152">no
618</title>
</rect>
<rect id="rect154_1_" x="370.6" y="25.8" class="st8" width="52.7" height="15.1">
<title  id="title152">no
618</title>
</rect>
<rect id="rect162" x="62.5" y="25.8" class="st8" width="245.4" height="15.1">
<title  id="title160">yes
875</title>
</rect>
<rect id="rect178" x="280.6" y="253.7" class="st8" width="146.7" height="15.1">
<title  id="title176">identified
454</title>
</rect>
<rect id="rect186" x="65.6" y="253.7" class="st8" width="191.1" height="15.1">
<title  id="title184">unidentified
822</title>
</rect>
<rect id="rect234" x="65.6" y="482.6" class="st8" width="211" height="15.1">
<title  id="title232">drowning
714</title>
</rect>
<rect id="rect242" x="289.5" y="482.6" class="st8" width="137.2" height="15.1">
<title  id="title240">empty
276</title>
</rect>
<g>
	<text transform="matrix(1 0 0 1 483.5273 269.8937)" class="st9 st10 st11">cluster</text>
</g>
<g>
	<text transform="matrix(1 0 0 1 483.527 167.7556)" class="st9 st10 st11">flow line</text>
</g>
<g>
	<text transform="matrix(1 0 0 1 483.5272 524.7386)" class="st9 st10 st11">categories</text>
</g>
<text transform="matrix(1 0 0 1 180.8413 19.4609)" class="st12 st10 st13">A</text>
<text transform="matrix(1 0 0 1 329.9004 19.4609)" class="st12 st10 st13">B</text>
<text transform="matrix(1 0 0 1 180.8413 522.9121)" class="st12 st10 st13">D</text>
<text transform="matrix(1 0 0 1 349.5469 522.9121)" class="st12 st10 st13">E</text>
<text transform="matrix(1 0 0 1 387.7012 19.4609)" class="st12 st10 st13">C</text>
<line class="st14" x1="381.9" y1="517.7" x2="473.9" y2="517.7"/>
<line class="st14" x1="434.6" y1="262.1" x2="473.9" y2="262.1"/>
<line class="st14" x1="400.6" y1="160.1" x2="473.9" y2="160.1"/>
<g>
	<text transform="matrix(1 0 0 1 483.5272 19.9185)" class="st9 st10 st11">categories</text>
</g>
<line class="st14" x1="427.7" y1="12.9" x2="473.9" y2="12.9"/>
<path class="st15" d="M474.5,457"/>
<path class="st15" d="M437.8,102"/>
<path class="st16" d="M439.3,102"/>
<path class="st16" d="M474.5,420"/>
</svg>
