<?xml version="1.0" encoding="utf-8"?>
<!-- Generator: Adobe Illustrator 22.1.0, SVG Export Plug-In . SVG Version: 6.00 Build 0)  -->
<svg version="1.1"
	 id="svg308" inkscape:version="0.92.2 5c3e80d, 2017-08-06" sodipodi:docname="BorderdeathCauseDeathIdentAlluvial.svg" xmlns:cc="http://creativecommons.org/ns#" xmlns:dc="http://purl.org/dc/elements/1.1/" xmlns:inkscape="http://www.inkscape.org/namespaces/inkscape" xmlns:rdf="http://www.w3.org/1999/02/22-rdf-syntax-ns#" xmlns:sodipodi="http://sodipodi.sourceforge.net/DTD/sodipodi-0.dtd" xmlns:svg="http://www.w3.org/2000/svg"
	 xmlns="http://www.w3.org/2000/svg" xmlns:xlink="http://www.w3.org/1999/xlink" x="0px" y="0px" viewBox="0 0 751 684"
	 style="enable-background:new 0 0 751 684;" xml:space="preserve">
<style type="text/css">
	.st0{fill:none;stroke:#7C7C7C;stroke-width:122.5;stroke-opacity:0.4;}
	.st1{fill:none;stroke:#7C7C7C;stroke-width:109.071;stroke-opacity:0.4;}
	.st2{fill:none;stroke:#7C7C7C;stroke-width:94;stroke-opacity:0.4;}
	.st3{fill:none;stroke:#000000;stroke-width:34;stroke-opacity:0.4;}
	.st4{fill:none;stroke:#7C7C7C;stroke-width:67.5201;stroke-opacity:0.4;}
	.st5{fill:none;stroke:#D3D3D3;stroke-width:50.9492;stroke-opacity:0.4;}
	.st6{fill:none;stroke:#0F0F0F;stroke-width:45.7553;stroke-opacity:0.4;}
	.st7{fill:none;stroke:#0F0F0F;stroke-width:22.5067;stroke-opacity:0.4;}
	.st8{fill:#666666;}
	.st9{font-family:'RobotoMono-Bold';}
	.st10{font-size:21px;}
	.st11{font-family:'CharisSIL';}
	.st12{font-size:20px;}
	.st13{font-family:'RobotoMono-Regular';}
	.st14{font-size:19.4968px;}
	.st15{fill:none;stroke:#5E5E5E;stroke-miterlimit:10;stroke-dasharray:2,4;}
	.st16{fill:none;}
</style>
<sodipodi:namedview  bordercolor="#666666" borderopacity="1" gridtolerance="10" guidetolerance="10" id="namedview310" inkscape:current-layer="svg308" inkscape:cx="509.01098" inkscape:cy="330.84237" inkscape:pageopacity="0" inkscape:pageshadow="2" inkscape:window-height="748" inkscape:window-maximized="1" inkscape:window-width="1280" inkscape:window-x="0" inkscape:window-y="0" inkscape:zoom="1.2014558" objecttolerance="10" pagecolor="#ffffff" showgrid="false">
	</sodipodi:namedview>
<path id="path4" onfocusin="problem" onfocusout="problem" onmousedown="problem" onmouseup="problem" onclick="problem" onmouseover="problem" onmousemove="problem" onmouseout="problem" onload="problem" inkscape:connector-curvature="0" class="st0" d="
	M461.8,194.1c208.1,0,71.1,1,279.2,1">
<desc  id="desc681">problem</desc>
	<title  id="title2">495</title>
</path>
<path id="path8" inkscape:connector-curvature="0" class="st1" d="M177.5,175.4c208.1,0,71.1,12,279.2,12">
<title  id="title6">441</title>
</path>
<path id="path12" inkscape:connector-curvature="0" class="st2" d="M461.8,352.1c208.1,0,71.1-48.9,279.2-48.9">
<title  id="title10">380</title>
</path>
<path id="path16" inkscape:connector-curvature="0" class="st3" d="M461.8,272.1c208.1,0,71.1,108,279.2,108">
<title  id="title14">324</title>
</path>
<path id="path20" inkscape:connector-curvature="0" class="st4" d="M177.5,263.7c208.1,0,71.1,75.2,279.2,75.2">
<title  id="title18">273</title>
</path>
<path id="path24" inkscape:connector-curvature="0" class="st5" d="M461.8,454.6c208.1,0,72.1-30.3,280.2-30.3">
<title  id="title22">220</title>
</path>
<path id="path28" inkscape:connector-curvature="0" class="st5" d="M177.5,411.2c208.1,0,71.1,41.7,279.2,41.7">
<title  id="title26">206</title>
</path>
<path id="path32" inkscape:connector-curvature="0" class="st6" d="M177.5,330.3c208.1,0,71.1-65.5,279.2-65.5">
<title  id="title30">185</title>
</path>
<path id="path36" inkscape:connector-curvature="0" class="st7" d="M177.5,364.5c208.1,0,71.1,19.5,279.2,19.5">
<title  id="title34">91</title>
</path>
<rect id="rect154" x="741" y="360.3" class="st8" width="5" height="91.8">
<title  id="title152">no
618</title>
</rect>
<rect id="rect162" x="741" y="133.9" class="st8" width="5" height="216.4">
<title  id="title160">yes
875</title>
</rect>
<rect id="rect170" x="456.8" y="427.4" width="5" height="54.4">
<title  id="title168">Coast Guard
220</title>
</rect>
<rect id="rect178" x="456.8" y="305.2" width="5" height="92.7">
<title  id="title176">identified
454</title>
</rect>
<rect id="rect186" x="456.8" y="132.9" width="5" height="156.5">
<title  id="title184">unidentified
822</title>
</rect>
<rect id="rect194" x="172.5" y="385.7" width="5" height="50.9">
<title  id="title192">Agrigento 27
206</title>
</rect>
<rect id="rect234" x="172.5" y="120.9" width="5" height="176.6">
<title  id="title232">drowning
714</title>
</rect>
<rect id="rect242" x="172.5" y="307.4" width="5" height="68.3">
<title  id="title240">empty
276</title>
</rect>
<text transform="matrix(1 0 0 1 415.3934 541.9329)" class="st9 st10">CLUSTER</text>
<text transform="matrix(1 0 0 1 638.308 541.9329)" class="st9 st10">LINE</text>
<text transform="matrix(1 0 0 1 38.3735 541.9326)" class="st9 st10">CATEGORIES</text>
<text transform="matrix(1 0 0 1 65.9944 19.2252)" class="st9 st10">VALUE</text>
<text transform="matrix(1 0 0 1 12.5068 572.519)"><tspan x="0" y="0" class="st11 st12">Each category starts</tspan><tspan x="-1.6" y="24" class="st11 st12">with its own cluster.</tspan></text>
<text transform="matrix(1 0 0 1 126.0005 226.1934)" class="st13 st14">A</text>
<text transform="matrix(1 0 0 1 158.0834 180.1934)" class="st13 st14">a</text>
<text transform="matrix(1 0 0 1 126.0005 341.5749)" class="st13 st14">B</text>
<text transform="matrix(1 0 0 1 126.0005 415.1801)" class="st13 st14">C</text>
<text transform="matrix(1 0 0 1 420.944 18.9912)" class="st9 st10">STAGES</text>
<polyline class="st15" points="117,221 97.5,221 97.5,408.7 117,408.7 "/>
<polyline class="st15" points="743.5,117.9 743.5,104.4 177.5,104.4 177.5,117.9 "/>
<polyline class="st15" points="165.8,122.2 152.3,122.2 152.3,226.2 165.8,226.2 "/>
<line class="st15" x1="459.2" y1="104.4" x2="459.2" y2="122.2"/>
<line class="st15" x1="458.8" y1="492" x2="458.8" y2="520"/>
<line class="st15" x1="106.1" y1="416.2" x2="106.1" y2="520"/>
<polyline class="st15" points="101.4,102.7 101.4,181.2 152.3,181.4 "/>
<line class="st15" x1="658" y1="440.5" x2="658" y2="520"/>
<rect x="579.4" y="555.8" class="st16" width="157.1" height="116.8"/>
<text transform="matrix(1 0 0 1 594.8652 570.5498)"><tspan x="0" y="0" class="st11 st12">Lines can split </tspan><tspan x="0.7" y="24" class="st11 st12">and merger to </tspan><tspan x="14.5" y="48" class="st11 st12">regrouping </tspan><tspan x="35.2" y="72" class="st11 st12">values</tspan><tspan x="-7.6" y="96" class="st11 st12"> into categories. </tspan></text>
<rect x="369.5" y="555.8" class="st16" width="178.5" height="100.8"/>
<text transform="matrix(1 0 0 1 369.6536 570.5498)"><tspan x="0" y="0" class="st11 st12">Values are clustered </tspan><tspan x="31.7" y="24" class="st11 st12">at each stage</tspan><tspan x="1.7" y="48" class="st11 st12">represented geaphi</tspan><tspan x="170.1" y="48" class="st11 st12">-</tspan><tspan x="22.7" y="72" class="st11 st12">cally by bands.</tspan></text>
<rect x="6.4" y="30.3" class="st16" width="209.6" height="136.9"/>
<text transform="matrix(1 0 0 1 10.4348 45.0644)"><tspan x="0" y="0" class="st11 st12">Values are represented </tspan><tspan x="16.7" y="24" class="st11 st12">by the thinkness of </tspan><tspan x="-3" y="48" class="st11 st12">the line in each cluster.</tspan></text>
<rect x="338.9" y="30.3" class="st16" width="243.1" height="136.9"/>
<text transform="matrix(1 0 0 1 340.1295 45.0644)"><tspan x="0" y="0" class="st11 st12">Points in time or stages are</tspan><tspan x="3.4" y="24" class="st11 st12">displayed in chronological </tspan><tspan x="93.7" y="48" class="st11 st12">order.</tspan></text>
</svg>
