<?xml version="1.0" encoding="utf-8"?>
<!-- Generator: Adobe Illustrator 19.2.0, SVG Export Plug-In . SVG Version: 6.00 Build 0)  -->
<svg version="1.1" id="Layer_1" xmlns="http://www.w3.org/2000/svg" xmlns:xlink="http://www.w3.org/1999/xlink" x="0px" y="0px"
	 width="1200px" height="1012px" viewBox="0 0 1200 1012" enable-background="new 0 0 1200 1012" xml:space="preserve">
<g>
	<rect x="2" y="195" opacity="0.7" fill="#939FD5" width="181" height="653"/>
	<rect x="1105" y="195" opacity="0.4" fill="#464A90" width="93" height="653"/>
	<path opacity="0.4" fill="#A3AEE3" d="M1105,195h-93.046C1011.954,336.354,858,729.146,858,848h94
		C952,754.745,1105,312.652,1105,195z"/>
	<path opacity="0.4" fill="#464A90" d="M704,195H566.09c0,152.843,399.019,559.732,399.019,652.987L1105,848
		C1105,708.894,704,301.215,704,195z"/>
	<path opacity="0.4" fill="#A3AEE3" d="M566,195H183c0,152.843,293,526.16,293,653h382C858,684.803,566,314.594,566,195z"/>
	<path opacity="0.7" fill="#939FD5" d="M1011.954,195H733c0,180.21-550,455.61-550,653h279
		C462,694.129,1011.954,381.244,1011.954,195z"/>
	
		<rect x="334.5" y="-174.5" transform="matrix(6.123234e-17 -1 1 6.123234e-17 176.5 529.5)" fill="#7581BA" width="37" height="702"/>
	<rect x="733" y="158" fill="#7581BA" width="465" height="37"/>
	<g>
		<text transform="matrix(1 0 0 1 2.6799 45.2977)"><tspan x="0" y="0" fill="#7F7F7F" font-family="'Roboto-Regular'" font-size="65px">category A</tspan><tspan x="0" y="78" fill="#7F7F7F" font-family="'Roboto-Regular'" font-size="65px">(58%)</tspan></text>
	</g>
	<g>
		<text transform="matrix(1 0 0 1 493.8127 1010.3094)" fill="#7F7F7F" font-family="'Roboto-Regular'" font-size="65px">line-set</text>
	</g>
	<g>
		<text transform="matrix(1 0 0 1 730.1682 45.2977)"><tspan x="0" y="0" fill="#7F7F7F" font-family="'Roboto-Regular'" font-size="65px">category B</tspan><tspan x="0" y="78" fill="#7F7F7F" font-family="'Roboto-Regular'" font-size="65px">(42%)</tspan></text>
	</g>
	<rect x="1063" y="750" transform="matrix(6.123234e-17 -1 1 6.123234e-17 215 1948)" fill="#7581BA" width="37" height="233"/>
	
		<rect x="695.5" y="628.5" transform="matrix(6.123234e-17 -1 1 6.123234e-17 -152.5 1580.5)" fill="#7581BA" width="37" height="476"/>
	
		<rect x="213.5" y="636.5" transform="matrix(6.123234e-17 -1 1 6.123234e-17 -634.5 1098.5)" fill="#7581BA" width="37" height="460"/>
	<polyline fill="none" stroke="#7F7F7F" stroke-width="8" stroke-miterlimit="10" points="4,905 4,939 1196,939 1196,905 	"/>
</g>
</svg>
