<?xml version="1.0" encoding="utf-8"?>
<!-- Generator: Adobe Illustrator 19.2.0, SVG Export Plug-In . SVG Version: 6.00 Build 0)  -->
<svg version="1.1" id="Layer_3" xmlns="http://www.w3.org/2000/svg" xmlns:xlink="http://www.w3.org/1999/xlink" x="0px" y="0px"
	 width="1268px" height="558px" viewBox="0 0 1268 558" enable-background="new 0 0 1268 558" xml:space="preserve">
<circle fill="#9C96AD" cx="921.278" cy="32.879" r="30.82"/>
<circle fill="#9C96AD" cx="1132.485" cy="32.879" r="30.82"/>
<g>
	<rect x="1.352" y="512.875" fill="#4F3D6E" width="99" height="5.125"/>
	<rect x="107.352" y="512.875" fill="#4F3D6E" width="99" height="5.125"/>
	<rect x="425.352" y="512.875" fill="#4F3D6E" width="99" height="5.125"/>
	<rect x="531.352" y="512.875" fill="#4F3D6E" width="99" height="5.125"/>
	<rect x="637.352" y="512.875" fill="#4F3D6E" width="99" height="5.125"/>
	<rect x="743.352" y="512.875" fill="#4F3D6E" width="99" height="5.125"/>
	<rect x="849.352" y="512.875" fill="#4F3D6E" width="99" height="5.125"/>
	<rect x="955.352" y="512.875" fill="#4F3D6E" width="99" height="5.125"/>
	<rect x="1061.352" y="512.875" fill="#4F3D6E" width="99" height="5.125"/>
	<rect x="1167.352" y="512.875" fill="#4F3D6E" width="99" height="5.125"/>
	<rect x="320.352" y="512.875" fill="#4F3D6E" width="98" height="5.125"/>
</g>
<path opacity="0.8" fill="#F2E0CB" d="M107.953,506.53h26.797C134.75,288.265,29.235,298.265,29.235,80H2.438
	C2.438,298.265,107.953,288.265,107.953,506.53z"/>
<path opacity="0.8" fill="#F2E0CB" d="M213.906,506.53h98.515c0-218.265-182.671-208.265-182.671-426.53H29.235
	C29.235,298.265,213.906,288.265,213.906,506.53z"/>
<path opacity="0.8" fill="#F2E0CB" d="M454.139,506.53h70.189c0-218.265-322.389-208.265-322.389-426.53H129.75
	C129.75,298.265,454.139,288.265,454.139,506.53z"/>
<path opacity="0.8" fill="#F2E0CB" d="M554.151,506.53h76.13c0-218.265-350.982-208.265-350.982-426.53h-77.359
	C201.939,298.265,554.151,288.265,554.151,506.53z"/>
<path opacity="0.8" fill="#F2E0CB" d="M849.626,506.53h64.708c0-218.265-544.812-208.265-544.812-426.53h-64.708
	C304.813,298.265,849.626,288.265,849.626,506.53z"/>
<path opacity="0.8" fill="#F2E0CB" d="M743.672,506.53h23.515c0-218.265-462.416-208.265-462.416-426.53h-25.473
	C279.298,298.265,743.672,288.265,743.672,506.53z"/>
<path opacity="0.8" fill="#F2E0CB" d="M1061.532,506.53h22.885c0-218.265-642.095-208.265-642.095-426.53h-23.061
	C419.261,298.265,1061.532,288.265,1061.532,506.53z"/>
<path opacity="0.8" fill="#F2E0CB" d="M955.579,506.53h49.74c0-218.265-586.058-208.265-586.058-426.53h-49.74
	C369.521,298.265,955.579,288.265,955.579,506.53z"/>
<g>
	<text transform="matrix(1 0 0 1 32.6538 551.0115)" fill="#B3B3B3" font-family="'RobotoCondensed-Regular'" font-size="26px">Jan</text>
</g>
<g>
	<text transform="matrix(1 0 0 1 139.3085 551.0115)"><tspan x="0" y="0" fill="#B3B3B3" font-family="'RobotoCondensed-Regular'" font-size="26px">F</tspan><tspan x="12.226" y="0" fill="#B3B3B3" font-family="'RobotoCondensed-Regular'" font-size="26px">eb</tspan></text>
</g>
<g>
	<text transform="matrix(1 0 0 1 243.757 551.0115)" fill="#B3B3B3" font-family="'RobotoCondensed-Regular'" font-size="26px">Mar</text>
</g>
<g>
	<text transform="matrix(1 0 0 1 349.5108 551.0115)" fill="#B3B3B3" font-family="'RobotoCondensed-Regular'" font-size="26px">Apr</text>
</g>
<g>
	<text transform="matrix(1 0 0 1 451.3417 551.0115)"><tspan x="0" y="0" fill="#B3B3B3" font-family="'RobotoCondensed-Regular'" font-size="26px">M</tspan><tspan x="19.64" y="0" fill="#B3B3B3" font-family="'RobotoCondensed-Regular'" font-size="26px">a</tspan><tspan x="31.903" y="0" fill="#B3B3B3" font-family="'RobotoCondensed-Regular'" font-size="26px">y</tspan></text>
</g>
<g>
	<text transform="matrix(1 0 0 1 565.5972 551.0115)" fill="#B3B3B3" font-family="'RobotoCondensed-Regular'" font-size="26px">Jun</text>
</g>
<g>
	<text transform="matrix(1 0 0 1 668.2508 551.0115)" fill="#B3B3B3" font-family="'RobotoCondensed-Regular'" font-size="26px">Jul</text>
</g>
<g>
	<text transform="matrix(1 0 0 1 774.2288 551.0115)"><tspan x="0" y="0" fill="#B3B3B3" font-family="'RobotoCondensed-Regular'" font-size="26px">A</tspan><tspan x="14.841" y="0" fill="#B3B3B3" font-family="'RobotoCondensed-Regular'" font-size="26px">ug</tspan></text>
</g>
<g>
	<text transform="matrix(1 0 0 1 880.9695 551.0115)" fill="#B3B3B3" font-family="'RobotoCondensed-Regular'" font-size="26px">Sep</text>
</g>
<g>
	<text transform="matrix(1 0 0 1 989.4075 551.0115)" fill="#B3B3B3" font-family="'RobotoCondensed-Regular'" font-size="26px">Oct</text>
</g>
<g>
	<text transform="matrix(1 0 0 1 1093.9797 551.0115)"><tspan x="0" y="0" fill="#B3B3B3" font-family="'RobotoCondensed-Regular'" font-size="26px">N</tspan><tspan x="16.098" y="0" fill="#B3B3B3" font-family="'RobotoCondensed-Regular'" font-size="26px">o</tspan><tspan x="28.958" y="0" fill="#B3B3B3" font-family="'RobotoCondensed-Regular'" font-size="26px">v</tspan></text>
</g>
<g>
	<text transform="matrix(1 0 0 1 1196.3792 551.0115)" fill="#B3B3B3" font-family="'RobotoCondensed-Regular'" font-size="26px">Dec</text>
</g>
<rect x="68.352" y="506" fill="#6C5F82" width="32" height="8"/>
<rect x="1.352" y="506" fill="#9C96AD" width="67" height="8"/>
<rect x="107.352" y="506" fill="#F3D0AA" width="27" height="8"/>
<rect x="134.352" y="506" fill="#9C96AD" width="55" height="8"/>
<rect x="213.352" y="510" fill="#4F3D6E" width="99" height="8"/>
<rect x="2.352" y="72" fill="#EBC398" width="440" height="8"/>
<rect x="849.352" y="506" fill="#F3D0AA" width="65" height="8"/>
<rect x="454.352" y="506" fill="#F3D0AA" width="70" height="8"/>
<rect x="914.352" y="506" fill="#9C96AD" width="34" height="8"/>
<rect x="955.352" y="506" fill="#F3D0AA" width="50" height="8"/>
<rect x="1167.352" y="506" fill="#9C96AD" width="81" height="8"/>
<path opacity="0.4" fill="#9C96AD" d="M2,506.53h66.667c0-218.265,464.526-208.265,464.526-426.53h-66.667
	C466.526,298.265,2,288.265,2,506.53z"/>
<path opacity="0.4" fill="#9C96AD" d="M134.75,506.53h54.309c0-218.265,398.443-208.265,398.443-426.53h-54.309
	C533.193,298.265,134.75,288.265,134.75,506.53z"/>
<path opacity="0.4" fill="#9C96AD" d="M319.86,506.53h44.187c0-218.265,267.763-208.265,267.763-426.53h-44.309
	C587.501,298.265,319.86,288.265,319.86,506.53z"/>
<path opacity="0.4" fill="#9C96AD" d="M425.813,506.53h28.326c0-218.265,206.028-208.265,206.028-426.53H631.81
	C631.81,298.265,425.813,288.265,425.813,506.53z"/>
<path opacity="0.4" fill="#9C96AD" d="M531.766,506.53h22.385c0-218.265,128.401-208.265,128.401-426.53h-22.385
	C660.167,298.265,531.766,288.265,531.766,506.53z"/>
<path opacity="0.4" fill="#4F3D6E" d="M68.667,506.53h31.848c0-218.265,799.854-208.265,799.854-426.53H868.52
	C868.52,298.265,68.667,288.265,68.667,506.53z"/>
<path opacity="0.4" fill="#4F3D6E" d="M189.019,506.53h17.489c0-218.265,711.27-208.265,711.27-426.53h-17.409
	C900.369,298.265,189.019,288.265,189.019,506.53z"/>
<path opacity="0.4" fill="#4F3D6E" d="M637.719,506.53H676.5c0-218.265,280.126-208.265,280.126-426.53h-38.848
	C917.778,298.265,637.719,288.265,637.719,506.53z"/>
<path opacity="0.4" fill="#ABC1CF" d="M676.164,506.53h60.07c0-218.265,376.516-208.265,376.516-426.53h-60.07
	C1052.68,298.265,676.164,288.265,676.164,506.53z"/>
<path opacity="0.4" fill="#ABC1CF" d="M1130.538,506.53h29.509C1160.047,288.265,1266,298.265,1266,80h-29.476
	C1236.524,298.265,1130.538,288.265,1130.538,506.53z"/>
<path opacity="0.4" fill="#ABC1CF" d="M1005.319,506.53h48.774c0-218.265,182.431-208.265,182.431-426.53h-48.774
	C1187.75,298.265,1005.319,288.265,1005.319,506.53z"/>
<path opacity="0.4" fill="#ABC1CF" d="M767.187,506.53h75c0-218.265,345.563-208.265,345.563-426.53h-75
	C1112.75,298.265,767.187,288.265,767.187,506.53z"/>
<path opacity="0.4" fill="#ABC1CF" d="M364.047,506.53h54.327c0-218.265,634.305-208.265,634.305-426.53H998.97
	C998.97,298.265,364.047,288.265,364.047,506.53z"/>
<path opacity="0.4" fill="#4F3D6E" d="M1248.591,506.53H1266C1266,288.265,974.035,298.265,974.035,80h-17.409
	C956.626,298.265,1248.591,288.265,1248.591,506.53z"/>
<path opacity="0.4" fill="#9C96AD" d="M1167.485,506.53h81.106c0-218.265-405.005-208.265-405.005-426.53H762.48
	C762.48,298.265,1167.485,288.265,1167.485,506.53z"/>
<path opacity="0.4" fill="#9C96AD" d="M1084.417,506.53h46.121c0-218.265-368.058-208.265-368.058-426.53h-46.121
	C716.358,298.265,1084.417,288.265,1084.417,506.53z"/>
<path opacity="0.4" fill="#9C96AD" d="M914.333,506.53h33.807c0-218.265-231.782-208.265-231.782-426.53h-33.807
	C682.551,298.265,914.333,288.265,914.333,506.53z"/>
<rect x="189.352" y="506" fill="#6C5F82" width="17" height="8"/>
<rect x="1248.352" y="506" fill="#6C5F82" width="18" height="8"/>
<rect x="1061.352" y="506" fill="#F3D0AA" width="23" height="8"/>
<rect x="637.352" y="506" fill="#6C5F82" width="39" height="8"/>
<rect x="1130.352" y="506" fill="#C2D9E7" width="30" height="8"/>
<rect x="676.352" y="506" fill="#C2D9E7" width="60" height="8"/>
<rect x="364.352" y="506" fill="#C2D9E7" width="54" height="8"/>
<rect x="320.352" y="506" fill="#9C96AD" width="44" height="8"/>
<rect x="767.352" y="506" fill="#C2D9E7" width="75" height="8"/>
<rect x="743.352" y="506" fill="#F3D0AA" width="24" height="8"/>
<rect x="1005.352" y="506" fill="#C2D9E7" width="49" height="8"/>
<rect x="1084.352" y="506" fill="#9C96AD" width="46" height="8"/>
<rect x="531.352" y="506" fill="#9C96AD" width="23" height="8"/>
<rect x="554.352" y="506" fill="#F3D0AA" width="76" height="8"/>
<rect x="466.352" y="72" fill="#8E87A5" width="377" height="8"/>
<rect x="425.352" y="506" fill="#9C96AD" width="29" height="8"/>
<rect x="868.352" y="72" fill="#6C5F82" width="106" height="8"/>
<rect x="999.352" y="72" fill="#A9C5D6" width="267" height="8"/>
<rect x="213.352" y="506" fill="#F3D0AA" width="99" height="8"/>
<path fill="#FFFFFF" d="M1141.356,38.406v0.041c0,0-2.326,4.611-2.367,4.759c-0.064,0.236-0.156,0.554-0.156,0.871
	c0,1.337,1.117,2.423,2.5,2.423c1.383,0,2.5-1.08,2.5-2.423c-0.023-0.513-0.22-0.911-0.22-0.911L1141.356,38.406z M1123.717,43.165
	c0,0,0.197,0.398,0.22,0.911c0,1.343-1.117,2.423-2.5,2.423c-1.383,0-2.5-1.087-2.5-2.423c0-0.317,0.093-0.635,0.156-0.871
	c0.041-0.149,2.367-4.759,2.367-4.759v-0.041L1123.717,43.165z M1133.665,45.826c0,0,0.197,0.398,0.22,0.911
	c0,1.343-1.117,2.423-2.5,2.423c-1.383,0-2.5-1.087-2.5-2.423c0-0.317,0.093-0.635,0.156-0.871c0.041-0.149,2.367-4.759,2.367-4.759
	v-0.041L1133.665,45.826z M1148.453,30.818c0,2.908-2.288,5.433-5.196,5.433c-0.156,0-23.065,0-23.065,0
	c-2.064,0-3.675-1.72-3.675-3.772s1.662-3.726,3.739-3.726c0.247,0,0.493,0.026,0.727,0.065c0-0.013-0.013-0.039-0.013-0.065
	c0-2.908,2.363-5.271,5.271-5.271c0.558,0,1.09,0.104,1.61,0.273c0.506-3.726,3.7-6.595,7.568-6.595
	c4.232,0,7.659,3.427,7.659,7.659c0,0.247-0.013,0.493-0.039,0.74c0.052,0,0.104-0.013,0.156-0.013
	C1146.103,25.548,1148.466,27.91,1148.453,30.818z"/>
<path fill="#FFFFFF" d="M938.087,42.753c-0.181,0.326-0.508,0.508-0.87,0.508c-0.181,0-0.363-0.036-0.508-0.145l-4.968-2.865v5.04
	c0,0.58-0.471,1.015-1.015,1.015c-0.58,0-1.015-0.471-1.015-1.015V39.09l-7.253-4.17v8.34l5.367,3.155
	c0.471,0.29,0.653,0.907,0.363,1.378c-0.181,0.326-0.508,0.508-0.87,0.508c-0.181,0-0.363-0.036-0.508-0.145l-4.352-2.538v5.693
	c0,0.58-0.471,1.015-1.015,1.015c-0.58,0-1.015-0.471-1.015-1.015v-5.729l-4.352,2.538c-0.145,0.109-0.326,0.145-0.508,0.145
	c-0.326,0-0.689-0.181-0.87-0.508c-0.29-0.471-0.109-1.088,0.363-1.378l5.367-3.119v-8.34l-7.216,4.17v6.201
	c0,0.58-0.471,1.015-1.015,1.015c-0.58,0-1.015-0.471-1.015-1.015v-5.04l-4.968,2.865c-0.145,0.109-0.326,0.145-0.508,0.145
	c-0.326,0-0.689-0.181-0.87-0.508c-0.29-0.471-0.109-1.088,0.363-1.378l4.968-2.865l-4.352-2.538
	c-0.471-0.29-0.653-0.907-0.363-1.378c0.29-0.471,0.907-0.653,1.378-0.363l5.367,3.119l7.216-4.206l-7.216-4.17l-5.367,3.119
	c-0.145,0.109-0.326,0.145-0.508,0.145c-0.326,0-0.689-0.181-0.87-0.508c-0.29-0.471-0.109-1.088,0.363-1.378l4.352-2.538
	l-4.968-2.865c-0.471-0.29-0.653-0.907-0.363-1.378c0.29-0.471,0.907-0.653,1.378-0.363l4.968,2.865v-5.04
	c0-0.58,0.471-1.015,1.015-1.015c0.58,0,1.015,0.471,1.015,1.015v6.201l7.253,4.17v-8.34l-5.403-3.119
	c-0.471-0.29-0.653-0.907-0.363-1.378c0.29-0.471,0.907-0.653,1.378-0.363l4.352,2.538v-5.729c0-0.58,0.471-1.015,1.015-1.015
	c0.58,0,1.015,0.435,1.015,1.015v5.729l4.352-2.538c0.471-0.29,1.088-0.109,1.378,0.363c0.29,0.471,0.109,1.088-0.363,1.378
	l-5.367,3.119v8.34l7.216-4.17v-6.201c0-0.58,0.471-1.015,1.015-1.015c0.58,0,1.015,0.471,1.015,1.015v5.077l4.968-2.865
	c0.471-0.29,1.088-0.109,1.378,0.363s0.109,1.088-0.363,1.378l-4.968,2.865l4.352,2.538c0.471,0.29,0.653,0.907,0.363,1.378
	c-0.181,0.326-0.508,0.508-0.87,0.508c-0.181,0-0.363-0.036-0.508-0.145l-5.367-3.119l-7.216,4.17l7.216,4.17l5.367-3.119
	c0.471-0.29,1.088-0.109,1.378,0.363s0.109,1.088-0.363,1.378l-4.352,2.538l4.968,2.865
	C938.159,41.665,938.341,42.281,938.087,42.753z"/>
<circle fill="#9C96AD" cx="233.423" cy="32.879" r="30.82"/>
<circle fill="#9C96AD" cx="656.941" cy="32.879" r="30.82"/>
<path id="_x30__2_" fill="#FFFFFF" d="M251.439,32.879c0,0.941-0.596,1.505-1.505,1.505h-4.61c-0.345,2.321-1.035,4.265-2.415,5.895
	l3.324,3.355c0.564,0.564,0.564,1.505,0,2.07c-0.22,0.345-0.69,0.47-1.035,0.47c-0.22,0-0.69-0.125-1.035-0.47l-3.324-3.324
	c-1.725,1.254-3.575,2.07-5.895,2.415v4.578c0,0.941-0.596,1.505-1.505,1.505c-0.941,0-1.505-0.596-1.505-1.505v-4.61
	c-2.321-0.345-4.265-1.035-5.895-2.415l-3.355,3.355c-0.22,0.345-0.815,0.47-1.035,0.47s-0.69-0.125-1.035-0.47
	c-0.564-0.564-0.564-1.505,0-2.07l3.324-3.324c-1.254-1.725-2.07-3.575-2.415-5.895h-4.61c-0.941,0-1.505-0.596-1.505-1.505
	c0-0.941,0.596-1.505,1.505-1.505h4.641c0.345-2.321,1.035-4.265,2.415-5.895l-3.355-3.355c-0.564-0.564-0.564-1.505,0-2.07
	c0.564-0.564,1.505-0.564,2.07,0l3.355,3.324c1.725-1.254,3.575-2.07,5.895-2.415v-4.61c0-0.941,0.596-1.505,1.505-1.505
	c0.941,0,1.505,0.596,1.505,1.505v4.61c2.321,0.345,4.265,1.035,5.895,2.415l3.355-3.449c0.564-0.564,1.505-0.564,2.07,0
	c0.564,0.564,0.564,1.505,0,2.07l-3.355,3.355c1.254,1.725,2.07,3.575,2.415,5.895h4.61C250.875,31.28,251.439,31.97,251.439,32.879
	z M224.408,32.785c0,4.955,4.077,9,9.031,9c4.955,0,9-4.077,9-9.031s-4.045-9-9-9C228.453,23.754,224.408,27.83,224.408,32.785z"/>
<g>
	<g>
		<g>
			<g>
				<g>
					<g>
						<g>
							<path fill="#FFFFFF" d="M676.873,24.025c-0.065,0.163-0.261,0.359-0.49,0.441l-2.546,0.914
								c0.212,1.159,0.196,2.399-0.196,3.655l2.431,1.142c0.457,0.228,0.636,0.685,0.408,1.159
								c-0.228,0.457-0.685,0.636-1.159,0.408l-2.431-1.142c-0.702,1.093-1.583,1.925-2.692,2.464l0.914,2.546
								c0.098,0.228,0.065,0.49-0.016,0.653c-0.065,0.163-0.261,0.359-0.49,0.441c-0.457,0.163-0.93-0.065-1.093-0.522l-0.914-2.546
								c-1.077,0.212-2.236,0.212-3.394-0.114c0.016,0.212,0.033,0.424,0.033,0.636c0,0.261-0.016,0.522-0.033,0.767
								c0.049,0,0.114-0.016,0.163-0.016c3.035,0,5.499,2.464,5.499,5.499c0,3.035-2.464,5.499-5.499,5.499
								c-0.163,0-23.922,0.131-23.922,0.131c-2.138,0-3.884-1.73-3.884-3.884c0-2.138,1.73-3.884,3.884-3.884
								c0.261,0,0.506,0.033,0.751,0.082c0-0.033,0-0.049,0-0.082c0-3.035,2.464-5.499,5.499-5.499c0.587,0,1.142,0.114,1.681,0.294
								c0.538-3.884,3.867-6.87,7.898-6.87c1.044,0,2.023,0.196,2.937,0.555c0.016-0.653,0.114-1.322,0.326-1.991l-2.431-1.142
								c-0.457-0.228-0.636-0.685-0.408-1.159c0.228-0.457,0.685-0.636,1.159-0.408l2.431,1.142
								c0.702-1.093,1.583-1.925,2.692-2.464l-0.914-2.546c-0.163-0.457,0.065-0.93,0.522-1.093c0.457-0.163,0.93,0.065,1.093,0.522
								l0.914,2.529c1.159-0.212,2.399-0.196,3.655,0.196l1.142-2.431c0.228-0.457,0.685-0.636,1.159-0.408
								c0.457,0.228,0.636,0.685,0.408,1.159l-1.142,2.431c1.093,0.702,1.925,1.583,2.464,2.692l2.546-0.914
								c0.457-0.163,0.93,0.065,1.093,0.522C677.003,23.617,676.971,23.895,676.873,24.025z M669.318,22.198
								c-2.594-1.208-5.711-0.098-6.935,2.497c-0.457,0.995-0.587,2.056-0.424,3.051c1.305,0.946,2.317,2.284,2.856,3.851
								c0.016,0.016,0.049,0.016,0.065,0.033c2.594,1.208,5.711,0.098,6.935-2.497C673.038,26.538,671.912,23.422,669.318,22.198z"
								/>
						</g>
					</g>
				</g>
			</g>
		</g>
	</g>
</g>
</svg>
