<?xml version="1.0" encoding="utf-8"?>
<!-- Generator: Adobe Illustrator 22.1.0, SVG Export Plug-In . SVG Version: 6.00 Build 0)  -->
<svg version="1.1" id="Layer_1" xmlns="http://www.w3.org/2000/svg" xmlns:xlink="http://www.w3.org/1999/xlink" x="0px" y="0px"
	 viewBox="0 0 1268 418" style="enable-background:new 0 0 1268 418;" xml:space="preserve">
<style type="text/css">
	.st0{fill:#D1CDC9;}
	.st1{font-family:'RobotoCondensed-Regular';}
	.st2{font-size:18px;}
	.st3{opacity:0.4;fill:#AE99CE;enable-background:new    ;}
	.st4{fill:#6C5F82;}
	.st5{opacity:0.4;fill:#8069B7;enable-background:new    ;}
	.st6{opacity:0.35;fill:#968BAF;enable-background:new    ;}
	.st7{opacity:0.4;fill:#A697A6;enable-background:new    ;}
	.st8{opacity:0.45;fill:#9BAAC6;enable-background:new    ;}
	.st9{opacity:0.45;fill:#3B6FBC;enable-background:new    ;}
	.st10{fill:#968BAF;}
	.st11{fill:#756686;}
</style>
<g id="Layer_1_1_">
	<text transform="matrix(1 0 0 1 44.3723 409.9534)" class="st0 st1 st2">Jan</text>
	<path class="st3" d="M108,371.5h27c0-167-105.6-196.9-105.6-363.9H2.6C2.6,174.7,108,204.5,108,371.5z"/>
	<path class="st3" d="M214,371.5h99c0-167-183.1-196.9-183.1-363.9H29.4C29.4,174.7,214,204.5,214,371.5z"/>
	<path class="st3" d="M455,371.5h70c0-167-322.9-196.9-322.9-363.9h-72.2C129.9,174.7,455,204.5,455,371.5z"/>
	<path class="st3" d="M555,371.5h76c0-167-351.6-196.9-351.6-363.9H202C202.1,174.7,555,204.5,555,371.5z"/>
	<path class="st3" d="M850,371.5h65c0-167-545.1-196.9-545.1-363.9h-64.7C305.2,174.7,850,204.5,850,371.5z"/>
	<path class="st3" d="M744,371.5h24c0-167-463.1-196.9-463.1-363.9h-25.5C279.4,174.7,744,204.5,744,371.5z"/>
	<path class="st3" d="M1062,371.5h23c0-167-642.5-196.9-642.5-363.9h-23.1C419.4,174.7,1062,204.5,1062,371.5z"/>
	<path class="st3" d="M956,371.5h50c0-167-586.6-196.9-586.6-363.9h-49.7C369.7,174.7,956,204.5,956,371.5z"/>
	<text transform="matrix(1 0 0 1 150.7253 409.9534)" class="st0 st1 st2">Feb</text>
	<text transform="matrix(1 0 0 1 256.2139 409.9534)" class="st0 st1 st2">Mar</text>
	<text transform="matrix(1 0 0 1 360.6472 409.9534)" class="st0 st1 st2">Apr</text>
	<text transform="matrix(1 0 0 1 464.5065 409.9534)" class="st0 st1 st2">May</text>
	<text transform="matrix(1 0 0 1 577.3508 409.9534)" class="st0 st1 st2">Jun</text>
	<text transform="matrix(1 0 0 1 677.9653 409.9534)" class="st0 st1 st2">Jul</text>
	<text transform="matrix(1 0 0 1 786.6553 409.9534)" class="st0 st1 st2">Aug</text>
	<text transform="matrix(1 0 0 1 892.9536 409.9534)" class="st0 st1 st2">Sep</text>
	<text transform="matrix(1 0 0 1 1000.4189 409.9534)" class="st0 st1 st2">Oct</text>
	<text transform="matrix(1 0 0 1 1106.3281 409.9534)" class="st0 st1 st2">Nov</text>
	<text transform="matrix(1 0 0 1 1208.5352 409.9534)" class="st0 st1 st2">Dec</text>
	<rect x="69" y="371.5" class="st4" width="32" height="6.1"/>
	<rect x="2.5" y="1.5" class="st5" width="440" height="6.1"/>
	<path class="st6" d="M2,371.5h67c0-167,464.3-196.9,464.3-363.9h-66.7C466.7,174.7,2,204.5,2,371.5z"/>
	<path class="st6" d="M135,371.5h55c0-167,397.6-196.9,397.6-363.9h-54.3C533.3,174.7,135,204.5,135,371.5z"/>
	<path class="st6" d="M321,371.5h44c0-167,267-196.9,267-363.9h-44.3C587.6,174.7,321,204.5,321,371.5z"/>
	<path class="st6" d="M426,371.5h29c0-167,205.3-196.9,205.3-363.9H632C632,174.7,426,204.5,426,371.5z"/>
	<path class="st6" d="M532,371.5h23c0-167,127.7-196.9,127.7-363.9h-22.4C660.3,174.7,532,204.5,532,371.5z"/>
	<path class="st7" d="M69,371.5h32c0-167,799.5-196.9,799.5-363.9h-31.8C868.7,174.7,69,204.5,69,371.5z"/>
	<path class="st7" d="M190,371.5h17c0-167,710.9-196.9,710.9-363.9h-17.4C900.5,174.7,190,204.5,190,371.5z"/>
	<path class="st7" d="M638,371.5h39c0-167,279.8-196.9,279.8-363.9H918C917.9,174.7,638,204.5,638,371.5z"/>
	<path class="st8" d="M677,371.5h60c0-167,375.9-196.9,375.9-363.9h-60.1C1052.8,174.7,677,204.5,677,371.5z"/>
	<path class="st8" d="M1131,371.5h30c0-167,105.1-196.9,105.1-363.9h-29.5C1236.7,174.7,1131,204.5,1131,371.5z"/>
	<path class="st8" d="M1006,371.5h49c0-167,181.7-196.9,181.7-363.9h-48.8C1187.9,174.7,1006,204.5,1006,371.5z"/>
	<path class="st8" d="M768,371.5h75c0-167,344.9-196.9,344.9-363.9h-75C1112.9,174.7,768,204.5,768,371.5z"/>
	<path class="st8" d="M365,371.5h54c0-167,633.8-196.9,633.8-363.9h-53.7C999.1,174.7,365,204.5,365,371.5z"/>
	<path class="st7" d="M1249,371.5h18c0-167-292.8-196.9-292.8-363.9h-17.4C956.8,174.7,1249,204.5,1249,371.5z"/>
	<path class="st6" d="M1168,371.5h81c0-167-405.3-196.9-405.3-363.9h-81.1C762.6,174.7,1168,204.5,1168,371.5z"/>
	<path class="st6" d="M1085,371.5h46c0-167-368.4-196.9-368.4-363.9h-46.1C716.5,174.7,1085,204.5,1085,371.5z"/>
	<path class="st6" d="M915,371.5h34c0-167-232.5-196.9-232.5-363.9h-33.8C682.7,174.7,915,204.5,915,371.5z"/>
	<rect x="190" y="371.5" class="st4" width="17" height="6.1"/>
	<rect x="1249" y="371.5" class="st4" width="18" height="6.1"/>
	<rect x="638" y="371.5" class="st4" width="39" height="6.1"/>
	<g>
		<rect x="1131" y="371.5" class="st9" width="30" height="6.1"/>
		<rect x="677" y="371.5" class="st9" width="60" height="6.1"/>
		<rect x="365" y="371.5" class="st9" width="54" height="6.1"/>
		<rect x="768" y="371.5" class="st9" width="75" height="6.1"/>
		<rect x="1006" y="371.5" class="st9" width="49" height="6.1"/>
	</g>
	<rect x="466.5" y="1.5" class="st10" width="377" height="6.1"/>
	<g>
		<rect x="2" y="371.5" class="st10" width="67" height="6.1"/>
		<rect x="135" y="371.5" class="st10" width="55" height="6.1"/>
		<rect x="915" y="371.5" class="st10" width="34" height="6.1"/>
		<rect x="1168" y="371.5" class="st10" width="81" height="6.1"/>
		<rect x="321" y="371.5" class="st10" width="44" height="6.1"/>
		<rect x="1085" y="371.5" class="st10" width="46" height="6.1"/>
		<rect x="532" y="371.5" class="st10" width="23" height="6.1"/>
		<rect x="426" y="371.5" class="st10" width="29" height="6.1"/>
	</g>
	<rect x="868.5" y="1.5" class="st11" width="106" height="6.1"/>
	<rect x="999.5" y="1.5" class="st9" width="267" height="6.1"/>
	<g>
		<rect x="108" y="371.5" class="st5" width="27" height="6.1"/>
		<rect x="850" y="371.5" class="st5" width="65" height="6.1"/>
		<rect x="455" y="371.5" class="st5" width="70" height="6.1"/>
		<rect x="956" y="371.5" class="st5" width="50" height="6.1"/>
		<rect x="1062" y="371.5" class="st5" width="23" height="6.1"/>
		<rect x="744" y="371.5" class="st5" width="24" height="6.1"/>
		<rect x="555" y="371.5" class="st5" width="76" height="6.1"/>
		<rect x="214" y="371.5" class="st5" width="99" height="6.1"/>
	</g>
</g>
<g id="Layer_2_1_">
</g>
<g id="Layer_3">
</g>
</svg>
