<svg height="420" viewBox="0 0 650 420" width="650" xmlns="http://www.w3.org/2000/svg"><path d="m439.7 150.9-4.5-6.2a148 148 0 0 1 -18.6-35.3l-5.9-16.1a1.4 1.4 0 0 0 -1.4-.8 1.7 1.7 0 0 0 -1.4.8l-5.9 16.1a149.1 149.1 0 0 1 -18.6 35.3l-4.5 6.2a48.4 48.4 0 0 0 -4.9 50.1l10.2 21.4a256.4 256.4 0 0 1 17.6 49.1l6 19.5a1.3 1.3 0 0 0 1.3.8 1.3 1.3 0 0 0 1.3-.8l6-19.5a241.1 241.1 0 0 1 17.6-49.1l10.1-21.4a47.9 47.9 0 0 0 4.8-21c.4-10.1-2.9-20.2-9.2-29.1z" fill="#d9d9d9"/><path d="m183.8 212.9-9.8-32.8a104.4 104.4 0 0 1 -3.9-40.1l2.4-24.8a95.1 95.1 0 0 0 -2.9-33.8l-17.6-59.2a1.6 1.6 0 0 0 -1.4-1.1 1.4 1.4 0 0 0 -1.4 1.1l-17.5 59.3a95.1 95.1 0 0 0 -2.9 33.8l2.4 24.8a104.2 104.2 0 0 1 -3.9 40.1l-9.9 32.8a106 106 0 0 0 3.5 70.7l28.3 65.3a1.6 1.6 0 0 0 1.5 1 1.5 1.5 0 0 0 1.5-1l28.3-65.5a105.9 105.9 0 0 0 3.3-70.6z" fill="#dbdbdb"/><path d="m309.7 118.7-.2-.5-14.9-31.2-13.2-31.8a2.2 2.2 0 0 0 -1.8-1.3 1.9 1.9 0 0 0 -1.8 1.3l-13.2 31.8c-4.4 10.7-9.4 21.2-14.8 31.3l-.2.5a92.4 92.4 0 0 0 -8.8 61.4l23.6 118.8c1.8 9.2 7.1 17.6 13 24.3a2.5 2.5 0 0 0 2 .9h.1a2.9 2.9 0 0 0 2-.9c5.9-6.8 11.2-15.2 13-24.3l23.7-118.8a91.6 91.6 0 0 0 -8.5-61.5z" fill="#c3c3c3"/><path d="m538.7 38.4a43.2 43.2 0 0 1 3.2 14.5l2.3 62.3a78.5 78.5 0 0 0 26.7 56 26.7 26.7 0 0 1 8.1 27.5 55.4 55.4 0 0 0 .4 32.5l3.5 11.2a35.8 35.8 0 0 1 -9.7 36.8 87.6 87.6 0 0 0 -25.9 45.5l-8.3 38.2a.5.5 0 0 1 -.8 0l-8.2-38.1a87.6 87.6 0 0 0 -25.9-45.5 35.5 35.5 0 0 1 -9.7-36.8l3.5-11.2a55.4 55.4 0 0 0 .4-32.5 26.7 26.7 0 0 1 8.1-27.5 78 78 0 0 0 26.7-56l2.3-62.3a45.9 45.9 0 0 1 3.4-14.5z" fill="#b2b2b2"/><g fill="none" stroke="#c4c4c4" stroke-miterlimit="10" stroke-width="1.2"><path d="m150.5 392.3v-11.4"/><path d="m280 392.3v-11.4"/><path d="m538.7 392.3v-11.4"/><path d="m409.2 392.3v-11.4"/><path d="m50.3 4v377.3h589.7"/><path d="m38.8 292.1h12"/><path d="m38.8 203.1h12"/><path d="m38.8 115.3h12"/><path d="m38.8 26.3h12"/></g><text fill="#cecece" font-family="Roboto Mono" font-size="17" transform="translate(388.6 413.4)">2018</text><text fill="#cecece" font-family="Roboto Mono" font-size="17" transform="translate(521.9 413.4)">2018</text><text fill="#cecece" font-family="Roboto Mono" font-size="17" transform="translate(126.2 413.4)">2016</text><text fill="#cecece" font-family="Roboto Mono" font-size="17" transform="translate(259.2 413.4)">2017</text><text fill="#cecece" font-family="Roboto Condensed" font-size="19" transform="translate(11 210.3)">40</text><text fill="#cecece" font-family="Roboto Condensed" font-size="19" transform="translate(11 123.7)">60</text><text fill="#cecece" font-family="Roboto Condensed" font-size="19" transform="translate(11 34.7)">80</text><text fill="#cecece" font-family="Roboto Condensed" font-size="19" transform="translate(11 297.4)">20</text></svg>