<svg height="418" viewBox="0 0 650 418" width="650" xmlns="http://www.w3.org/2000/svg"><path d="m409.1 284a2.1 2.1 0 0 0 1.8-1l13.3-23.5a251.6 251.6 0 0 1 14.8-23l.2-.4c9.9-13.6 13-29.8 8.8-45.3l-23.6-87.6c-1.8-6.8-7.1-13-13-17.9a2.8 2.8 0 0 0 -2-.7h-.1" fill="#b2b2b2"/><path d="m279.7 312.9a1.3 1.3 0 0 0 1.3-.9l6-23.1c4.1-19.8 4.5-17.7 6.6-24.7s18.6-35.8 13.1-54.8c-3.1-10.8 9.5-29.1 9.5-37.5 0-12.1.1-15.6-6.3-26.2l-4.5-7.4a192.9 192.9 0 0 1 -18.6-41.9l-5.9-19.1a1.5 1.5 0 0 0 -1.4-.9" fill="#b2b2b2"/><path d="m537.9 317.9h.3a2.4 2.4 0 0 0 2-.9c5.9-6.7 11.2-15.1 13-24.3l23.6-118.8a92.2 92.2 0 0 0 -8.8-61.4l-.2-.5c-5.4-10.1-10.3-20.6-14.8-31.3l-13.3-31.9a2 2 0 0 0 -1.8-1.3" fill="#b2b2b2"/><path d="m150 101.8a35.3 35.3 0 0 1 3.2 13.8l2.3 25.3c.7 20.4 10.3 35.6 26.7 49.3 7.9 6.6 11 24.8 8.1 34.2-2.7 8.7-6.2 13.3-5 20.8a12.6 12.6 0 0 0 3.1 6.4l5.8 6.4c8.1 10.5.4 29.1-9.7 38.1-13.2 11.6-22.2 21.8-25.9 38.3l-8.2 36.4a.4.4 0 0 1 -.8 0" fill="#b2b2b2"/><path d="m409.3 92.5a1.5 1.5 0 0 0 -1.4.8l-5.9 16.1a151.4 151.4 0 0 1 -18.6 35.3l-4.5 6.2a48.6 48.6 0 0 0 -4.9 50.2l10.2 21.4a255.1 255.1 0 0 1 17.6 49.1l6 19.5a1.3 1.3 0 0 0 1.3.8" fill="#dbdbdb"/><path d="m415.3 156.4h-4.9v-9.4h-2.4v9.4h-4.8v39.6h4.8v35.2h2.4v-35.2h4.9z" fill="#828282"/><path d="m150.6 21.1a1.4 1.4 0 0 0 -1.4 1.1l-17.6 59.2a96.2 96.2 0 0 0 -2.9 33.8l2.4 24.8a104.6 104.6 0 0 1 -3.9 40.1l-9.9 32.8a106 106 0 0 0 3.5 70.7l28.3 65.5a1.6 1.6 0 0 0 1.5 1" fill="#dbdbdb"/><path d="m156.2 204.7h-4.6v-67.3h-2.3v67.3h-4.7v70.9h4.7v28.1h2.3v-28.1h4.6z" fill="#828282"/><path d="m280 53.8a2 2 0 0 0 -1.8 1.3l-13.3 31.9c-4.5 10.7-9.4 21.2-14.8 31.3l-.2.5a92.2 92.2 0 0 0 -8.8 61.4l23.5 118.8c1.8 9.2 7.1 17.6 13 24.3a2.4 2.4 0 0 0 2 .9h.1" fill="#dbdbdb"/><path d="m286 127.1h-4.8v-18.9h-2.5v18.9h-4.8v99.1h4.8v50.1h2.5v-50.1h4.8z" fill="#828282"/><path d="m538.3 362.9a.4.4 0 0 1 -.8 0l-8.2-38.2a86.4 86.4 0 0 0 -25.9-45.5 35.3 35.3 0 0 1 -9.7-36.8l3.5-11.2a55.4 55.4 0 0 0 .4-32.5c-2.9-9.9.2-16.6 8.1-23.5 16.4-14.4 26-24.6 26.7-46l2.3-35.3c.1-5 1.2-14.8 3.2-19.5" fill="#dbdbdb"/><path d="m544.2 212.1h-4.8v-52.3h-2.4v52.3h-4.8v67h4.8v13.3h2.4v-13.3h4.8z" fill="#828282"/><g fill="none" stroke="#c4c4c4" stroke-miterlimit="10" stroke-width="1.2"><path d="m150.5 392.3v-11.4"/><path d="m280 392.3v-11.4"/><path d="m538.7 392.3v-11.4"/><path d="m409.2 392.3v-11.4"/><path d="m50.3 4v377.3h589.7"/><path d="m38.8 292.1h12"/><path d="m38.8 203.1h12"/><path d="m38.8 115.3h12"/><path d="m38.8 26.3h12"/></g><g fill="#cecece" font-family="Roboto Mono"><text font-size="17" transform="translate(388.5 413.4)">2018</text><text font-size="17" transform="translate(521.8 413.4)">2018</text><text font-size="17" transform="translate(126.1 413.4)">2016</text><text font-size="17" transform="translate(259.1 413.4)">2017</text><text font-size="19" transform="translate(11 210.3)">40</text><text font-size="19" transform="translate(11 123.7)">60</text><text font-size="19" transform="translate(11 34.7)">80</text><text font-size="19" transform="translate(11 297.4)">20</text></g><circle cx="150.4" cy="238.6" fill="#444" r="3.1"/><circle cx="280" cy="166.7" fill="#444" r="3.1"/><circle cx="409.2" cy="170.1" fill="#444" r="3.1"/><circle cx="538.2" cy="245.7" fill="#444" r="3.1"/></svg>