<?xml version="1.0" encoding="utf-8"?>
<!-- Generator: Adobe Illustrator 24.0.1, SVG Export Plug-In . SVG Version: 6.00 Build 0)  -->
<svg version="1.1" id="Layer_1" xmlns="http://www.w3.org/2000/svg" xmlns:xlink="http://www.w3.org/1999/xlink" x="0px" y="0px"
	 viewBox="0 0 1268 418" style="enable-background:new 0 0 1268 418;" xml:space="preserve">
<style type="text/css">
	.st0{fill:none;stroke:#A39CB9;stroke-width:2;stroke-miterlimit:10;}
	.st1{fill:#A39CB9;}
	.st2{fill:none;stroke:#CCCCCC;stroke-width:1.2656;stroke-linecap:round;stroke-linejoin:round;}
	.st3{fill:#CCCCCC;}
	.st4{font-family:'RobotoMono-Regular';}
	.st5{font-size:18px;}
	.st6{fill:none;stroke:#A39CB9;stroke-width:2.8476;stroke-miterlimit:10;}
	.st7{font-size:22.7808px;}
	.st8{fill:none;stroke:#A39CB9;stroke-width:2.6017;stroke-miterlimit:10;}
</style>
<symbol  id="a" viewBox="-6.8 -6.8 13.6 13.6">
	<path class="st0" d="M0,6.8V-6.8"/>
	<path class="st0" d="M-6.8,0H6.8"/>
</symbol>
<symbol  id="b" viewBox="-6.9 -6.5 13.8 13">
	<path class="st1" d="M0,6.5l2.1-4.3l4.8-0.7L3.4-1.8l0.9-4.7L0-4.3l-4.3-2.2l0.9,4.7l-3.5,3.3l4.8,0.7L0,6.5z"/>
</symbol>
<path class="st2" d="M292.4,377.7h700.9V8H292.4V377.7z"/>
<path class="st2" d="M384.2,378.6v12.1"/>
<path class="st2" d="M569.6,378.6v12.1"/>
<path class="st2" d="M755.6,378.6v12.1"/>
<path class="st2" d="M941.7,378.6v12.1"/>
<path class="st2" d="M292.4,54.3h-15.1"/>
<path class="st2" d="M292.4,241.8h-15.1"/>
<path class="st2" d="M292.4,335.5h-15.1"/>
<path class="st2" d="M292.4,148.1h-15.1"/>
<text transform="matrix(1 0 0 1 372.5205 413.6885)" class="st3 st4 st5">10</text>
<text transform="matrix(1 0 0 1 557.9321 413.6885)" class="st3 st4 st5">20</text>
<text transform="matrix(1 0 0 1 743.9756 413.6885)" class="st3 st4 st5">30</text>
<text transform="matrix(1 0 0 1 930.0176 413.6885)" class="st3 st4 st5">40</text>
<text transform="matrix(0 -1 1 0 265.5796 252.6416)" class="st3 st4 st5">20</text>
<text transform="matrix(0 -1 1 0 265.5796 64.5732)" class="st3 st4 st5">40</text>
<text transform="matrix(0 -1 1 0 265.5796 158.6069)" class="st3 st4 st5">30</text>
<text transform="matrix(0 -1 1 0 265.5796 346.6748)" class="st3 st4 st5">10</text>
<g>
	<circle class="st6" cx="379.1" cy="335.2" r="7.7"/>
	<circle class="st6" cx="422.2" cy="274.4" r="7.7"/>
	<circle class="st6" cx="489" cy="261.2" r="7.7"/>
	<circle class="st6" cx="453.5" cy="222.9" r="7.7"/>
	<circle class="st6" cx="540.2" cy="297.1" r="7.7"/>
	<circle class="st6" cx="511.4" cy="214.3" r="7.7"/>
	<circle class="st6" cx="511.4" cy="171.3" r="7.7"/>
	<circle class="st6" cx="744.6" cy="265.8" r="7.7"/>
	<circle class="st6" cx="413.6" cy="129.5" r="7.7"/>
	<circle class="st6" cx="547.3" cy="192.9" r="7.7"/>
	<circle class="st6" cx="584.3" cy="276.6" r="7.7"/>
	<circle class="st6" cx="502.8" cy="291.7" r="7.7"/>
	<circle class="st6" cx="514.2" cy="326.6" r="7.7"/>
	<circle class="st6" cx="418.4" cy="317.9" r="7.7"/>
	<circle class="st6" cx="386" cy="291.7" r="7.7"/>
	<circle class="st6" cx="462.2" cy="173.8" r="7.7"/>
</g>
<text transform="matrix(1 0 0 1 1034.3291 265.0439)" class="st1 st4 st7">A</text>
<text transform="matrix(1 0 0 1 1034.3291 306.8076)" class="st1 st4 st7">B</text>
<text transform="matrix(1 0 0 1 1034.3291 347.3076)" class="st1 st4 st7">C</text>
<g>
	<defs>
		<rect id="SVGID_1_" x="456.6" y="305.6" width="17.2" height="17.2"/>
	</defs>
	<clipPath id="SVGID_2_">
		<use xlink:href="#SVGID_1_"  style="overflow:visible;"/>
	</clipPath>
	<g style="clip-path:url(#SVGID_2_);">
		
			<use xlink:href="#a"  width="13.6" height="13.6" x="-6.8" y="-6.8" transform="matrix(1.2656 0 0 -1.2656 465.1889 314.2331)" style="overflow:visible;"/>
	</g>
</g>
<g>
	<defs>
		<rect id="SVGID_3_" x="547.3" y="235.4" width="17.2" height="17.2"/>
	</defs>
	<clipPath id="SVGID_4_">
		<use xlink:href="#SVGID_3_"  style="overflow:visible;"/>
	</clipPath>
	<g transform="matrix(1 0 0 1 0 -1.525879e-05)" style="clip-path:url(#SVGID_4_);enable-background:new    ;">
		
			<use xlink:href="#a"  width="13.6" height="13.6" x="-6.8" y="-6.8" transform="matrix(1.2656 0 0 -1.2656 555.9328 244.0359)" style="overflow:visible;"/>
	</g>
</g>
<g>
	<defs>
		<rect id="SVGID_5_" x="611.3" y="300.5" width="17.2" height="17.2"/>
	</defs>
	<clipPath id="SVGID_6_">
		<use xlink:href="#SVGID_5_"  style="overflow:visible;"/>
	</clipPath>
	<g style="clip-path:url(#SVGID_6_);enable-background:new    ;">
		
			<use xlink:href="#a"  width="13.6" height="13.6" x="-6.8" y="-6.8" transform="matrix(1.2656 0 0 -1.2656 619.9089 309.1088)" style="overflow:visible;"/>
	</g>
</g>
<g>
	<defs>
		<rect id="SVGID_7_" x="587.6" y="179.9" width="17.2" height="17.2"/>
	</defs>
	<clipPath id="SVGID_8_">
		<use xlink:href="#SVGID_7_"  style="overflow:visible;"/>
	</clipPath>
	<g style="clip-path:url(#SVGID_8_);enable-background:new    ;">
		
			<use xlink:href="#a"  width="13.6" height="13.6" x="-6.8" y="-6.8" transform="matrix(1.2656 0 0 -1.2656 596.1789 188.4742)" style="overflow:visible;"/>
	</g>
</g>
<g>
	<defs>
		<rect id="SVGID_9_" x="590.6" y="151.4" width="17.2" height="17.2"/>
	</defs>
	<clipPath id="SVGID_10_">
		<use xlink:href="#SVGID_9_"  style="overflow:visible;"/>
	</clipPath>
	<g style="clip-path:url(#SVGID_10_);enable-background:new    ;">
		
			<use xlink:href="#a"  width="13.6" height="13.6" x="-6.8" y="-6.8" transform="matrix(1.2656 0 0 -1.2656 599.2156 159.9982)" style="overflow:visible;"/>
	</g>
</g>
<g>
	<defs>
		<rect id="SVGID_11_" x="561" y="133.9" width="17.2" height="17.2"/>
	</defs>
	<clipPath id="SVGID_12_">
		<use xlink:href="#SVGID_11_"  style="overflow:visible;"/>
	</clipPath>
	<g style="clip-path:url(#SVGID_12_);enable-background:new    ;">
		
			<use xlink:href="#a"  width="13.6" height="13.6" x="-6.8" y="-6.8" transform="matrix(1.2656 0 0 -1.2656 569.6013 142.5331)" style="overflow:visible;"/>
	</g>
</g>
<g>
	<defs>
		<rect id="SVGID_13_" x="569.6" y="83.3" width="17.2" height="17.2"/>
	</defs>
	<clipPath id="SVGID_14_">
		<use xlink:href="#SVGID_13_"  style="overflow:visible;"/>
	</clipPath>
	<g style="clip-path:url(#SVGID_14_);enable-background:new    ;">
		
			<use xlink:href="#a"  width="13.6" height="13.6" x="-6.8" y="-6.8" transform="matrix(1.2656 0 0 -1.2656 578.2071 91.9091)" style="overflow:visible;"/>
	</g>
</g>
<g>
	<defs>
		<rect id="SVGID_15_" x="634.3" y="133.9" width="17.2" height="17.2"/>
	</defs>
	<clipPath id="SVGID_16_">
		<use xlink:href="#SVGID_15_"  style="overflow:visible;"/>
	</clipPath>
	<g style="clip-path:url(#SVGID_16_);enable-background:new    ;">
		
			<use xlink:href="#a"  width="13.6" height="13.6" x="-6.8" y="-6.8" transform="matrix(1.2656 0 0 -1.2656 642.9007 142.5331)" style="overflow:visible;"/>
	</g>
</g>
<g>
	<defs>
		<rect id="SVGID_17_" x="678.6" y="160" width="17.2" height="17.2"/>
	</defs>
	<clipPath id="SVGID_18_">
		<use xlink:href="#SVGID_17_"  style="overflow:visible;"/>
	</clipPath>
	<g transform="matrix(1 0 0 1 6.103516e-05 0)" style="clip-path:url(#SVGID_18_);enable-background:new    ;">
		
			<use xlink:href="#a"  width="13.6" height="13.6" x="-6.8" y="-6.8" transform="matrix(1.2656 0 0 -1.2656 687.2382 168.604)" style="overflow:visible;"/>
	</g>
</g>
<g>
	<defs>
		<rect id="SVGID_19_" x="798.9" y="205.7" width="17.2" height="17.2"/>
	</defs>
	<clipPath id="SVGID_20_">
		<use xlink:href="#SVGID_19_"  style="overflow:visible;"/>
	</clipPath>
	<g style="clip-path:url(#SVGID_20_);enable-background:new    ;">
		
			<use xlink:href="#a"  width="13.6" height="13.6" x="-6.8" y="-6.8" transform="matrix(1.2656 0 0 -1.2656 807.5342 214.293)" style="overflow:visible;"/>
	</g>
</g>
<g>
	<defs>
		<rect id="SVGID_21_" x="933.1" y="291.7" width="17.2" height="17.2"/>
	</defs>
	<clipPath id="SVGID_22_">
		<use xlink:href="#SVGID_21_"  style="overflow:visible;"/>
	</clipPath>
	<g style="clip-path:url(#SVGID_22_);enable-background:new    ;">
		
			<use xlink:href="#a"  width="13.6" height="13.6" x="-6.8" y="-6.8" transform="matrix(1.2656 0 0 -1.2656 941.688 300.3538)" style="overflow:visible;"/>
	</g>
</g>
<g>
	<defs>
		<rect id="SVGID_23_" x="1007.3" y="291.7" width="17.2" height="17.2"/>
	</defs>
	<clipPath id="SVGID_24_">
		<use xlink:href="#SVGID_23_"  style="overflow:visible;"/>
	</clipPath>
	<g style="clip-path:url(#SVGID_24_);enable-background:new    ;">
		
			<use xlink:href="#a"  width="13.6" height="13.6" x="-6.8" y="-6.8" transform="matrix(1.2656 0 0 -1.2656 1015.9366 300.3538)" style="overflow:visible;"/>
	</g>
</g>
<g>
	<defs>
		<rect id="SVGID_25_" x="641" y="94.9" width="17.2" height="17.2"/>
	</defs>
	<clipPath id="SVGID_26_">
		<use xlink:href="#SVGID_25_"  style="overflow:visible;"/>
	</clipPath>
	<g style="clip-path:url(#SVGID_26_);enable-background:new    ;">
		
			<use xlink:href="#a"  width="13.6" height="13.6" x="-6.8" y="-6.8" transform="matrix(1.2656 0 0 -1.2656 649.5875 103.5529)" style="overflow:visible;"/>
	</g>
</g>
<g>
	<defs>
		<rect id="SVGID_27_" x="701.5" y="106.7" width="17.2" height="17.2"/>
	</defs>
	<clipPath id="SVGID_28_">
		<use xlink:href="#SVGID_27_"  style="overflow:visible;"/>
	</clipPath>
	<g style="clip-path:url(#SVGID_28_);enable-background:new    ;">
		
			<use xlink:href="#a"  width="13.6" height="13.6" x="-6.8" y="-6.8" transform="matrix(1.2656 0 0 -1.2656 710.083 115.3227)" style="overflow:visible;"/>
	</g>
</g>
<g>
	<defs>
		<rect id="SVGID_29_" x="661.4" y="58.6" width="17.2" height="17.2"/>
	</defs>
	<clipPath id="SVGID_30_">
		<use xlink:href="#SVGID_29_"  style="overflow:visible;"/>
	</clipPath>
	<g style="clip-path:url(#SVGID_30_);enable-background:new    ;">
		
			<use xlink:href="#a"  width="13.6" height="13.6" x="-6.8" y="-6.8" transform="matrix(1.2656 0 0 -1.2656 670.0264 67.2299)" style="overflow:visible;"/>
	</g>
</g>
<g>
	<defs>
		<rect id="SVGID_31_" x="636.4" y="171.3" width="17.2" height="17.2"/>
	</defs>
	<clipPath id="SVGID_32_">
		<use xlink:href="#SVGID_31_"  style="overflow:visible;"/>
	</clipPath>
	<g style="clip-path:url(#SVGID_32_);enable-background:new    ;">
		
			<use xlink:href="#a"  width="13.6" height="13.6" x="-6.8" y="-6.8" transform="matrix(1.2656 0 0 -1.2656 645.0308 179.8684)" style="overflow:visible;"/>
	</g>
</g>
<g>
	<defs>
		<rect id="SVGID_33_" x="649.6" y="211.8" width="17.2" height="17.2"/>
	</defs>
	<clipPath id="SVGID_34_">
		<use xlink:href="#SVGID_33_"  style="overflow:visible;"/>
	</clipPath>
	<g style="clip-path:url(#SVGID_34_);enable-background:new    ;">
		
			<use xlink:href="#a"  width="13.6" height="13.6" x="-6.8" y="-6.8" transform="matrix(1.2656 0 0 -1.2656 658.1934 220.3676)" style="overflow:visible;"/>
	</g>
</g>
<g>
	<defs>
		<rect id="SVGID_35_" x="730.6" y="171.3" width="17.2" height="17.2"/>
	</defs>
	<clipPath id="SVGID_36_">
		<use xlink:href="#SVGID_35_"  style="overflow:visible;"/>
	</clipPath>
	<g style="clip-path:url(#SVGID_36_);enable-background:new    ;">
		
			<use xlink:href="#a"  width="13.6" height="13.6" x="-6.8" y="-6.8" transform="matrix(1.2656 0 0 -1.2656 739.1918 179.8684)" style="overflow:visible;"/>
	</g>
</g>
<g>
	<defs>
		<rect id="SVGID_37_" x="611.3" y="252.6" width="17.2" height="17.2"/>
	</defs>
	<clipPath id="SVGID_38_">
		<use xlink:href="#SVGID_37_"  style="overflow:visible;"/>
	</clipPath>
	<g style="clip-path:url(#SVGID_38_);enable-background:new    ;">
		
			<use xlink:href="#a"  width="13.6" height="13.6" x="-6.8" y="-6.8" transform="matrix(1.2656 0 0 -1.2656 619.9089 261.2475)" style="overflow:visible;"/>
	</g>
</g>
<g>
	<defs>
		<rect id="SVGID_39_" x="684.3" y="257.2" width="17.2" height="17.2"/>
	</defs>
	<clipPath id="SVGID_40_">
		<use xlink:href="#SVGID_39_"  style="overflow:visible;"/>
	</clipPath>
	<g transform="matrix(1 0 0 1 6.103516e-05 0)" style="clip-path:url(#SVGID_40_);enable-background:new    ;">
		
			<use xlink:href="#a"  width="13.6" height="13.6" x="-6.8" y="-6.8" transform="matrix(1.2656 0 0 -1.2656 692.8713 265.7608)" style="overflow:visible;"/>
	</g>
</g>
<circle class="st8" cx="1016" cy="257.2" r="7.1"/>
<g>
	<defs>
		<rect id="SVGID_41_" x="611" y="36.5" width="17.5" height="16.6"/>
	</defs>
	<clipPath id="SVGID_42_">
		<use xlink:href="#SVGID_41_"  style="overflow:visible;"/>
	</clipPath>
	<g style="clip-path:url(#SVGID_42_);">
		
			<use xlink:href="#b"  width="13.8" height="13" x="-6.9" y="-6.5" transform="matrix(1.2656 0 0 -1.2656 619.7083 44.8596)" style="overflow:visible;"/>
	</g>
</g>
<g>
	<defs>
		<rect id="SVGID_43_" x="682.4" y="127.2" width="17.5" height="16.6"/>
	</defs>
	<clipPath id="SVGID_44_">
		<use xlink:href="#SVGID_43_"  style="overflow:visible;"/>
	</clipPath>
	<g transform="matrix(1 0 0 1 6.103516e-05 0)" style="clip-path:url(#SVGID_44_);enable-background:new    ;">
		
			<use xlink:href="#b"  width="13.8" height="13" x="-6.9" y="-6.5" transform="matrix(1.2656 0 0 -1.2656 691.099 135.5723)" style="overflow:visible;"/>
	</g>
</g>
<g>
	<defs>
		<rect id="SVGID_45_" x="749.3" y="134.2" width="17.5" height="16.6"/>
	</defs>
	<clipPath id="SVGID_46_">
		<use xlink:href="#SVGID_45_"  style="overflow:visible;"/>
	</clipPath>
	<g style="clip-path:url(#SVGID_46_);enable-background:new    ;">
		
			<use xlink:href="#b"  width="13.8" height="13" x="-6.9" y="-6.5" transform="matrix(1.2656 0 0 -1.2656 758.0497 142.5331)" style="overflow:visible;"/>
	</g>
</g>
<g>
	<defs>
		<rect id="SVGID_47_" x="755.5" y="82.5" width="17.5" height="16.6"/>
	</defs>
	<clipPath id="SVGID_48_">
		<use xlink:href="#SVGID_47_"  style="overflow:visible;"/>
	</clipPath>
	<g style="clip-path:url(#SVGID_48_);enable-background:new    ;">
		
			<use xlink:href="#b"  width="13.8" height="13" x="-6.9" y="-6.5" transform="matrix(1.2656 0 0 -1.2656 764.2505 90.8359)" style="overflow:visible;"/>
	</g>
</g>
<g>
	<defs>
		<rect id="SVGID_49_" x="766.5" y="46" width="17.5" height="16.6"/>
	</defs>
	<clipPath id="SVGID_50_">
		<use xlink:href="#SVGID_49_"  style="overflow:visible;"/>
	</clipPath>
	<g style="clip-path:url(#SVGID_50_);enable-background:new    ;">
		
			<use xlink:href="#b"  width="13.8" height="13" x="-6.9" y="-6.5" transform="matrix(1.2656 0 0 -1.2656 775.2614 54.321)" style="overflow:visible;"/>
	</g>
</g>
<g>
	<defs>
		<rect id="SVGID_51_" x="812.7" y="67.5" width="17.5" height="16.6"/>
	</defs>
	<clipPath id="SVGID_52_">
		<use xlink:href="#SVGID_51_"  style="overflow:visible;"/>
	</clipPath>
	<g style="clip-path:url(#SVGID_52_);enable-background:new    ;">
		
			<use xlink:href="#b"  width="13.8" height="13" x="-6.9" y="-6.5" transform="matrix(1.2656 0 0 -1.2656 821.3926 75.8357)" style="overflow:visible;"/>
	</g>
</g>
<g>
	<defs>
		<rect id="SVGID_53_" x="794.4" y="117" width="17.5" height="16.6"/>
	</defs>
	<clipPath id="SVGID_54_">
		<use xlink:href="#SVGID_53_"  style="overflow:visible;"/>
	</clipPath>
	<g style="clip-path:url(#SVGID_54_);enable-background:new    ;">
		
			<use xlink:href="#b"  width="13.8" height="13" x="-6.9" y="-6.5" transform="matrix(1.2656 0 0 -1.2656 803.1574 125.3215)" style="overflow:visible;"/>
	</g>
</g>
<g>
	<defs>
		<rect id="SVGID_55_" x="830.7" y="150.3" width="17.5" height="16.6"/>
	</defs>
	<clipPath id="SVGID_56_">
		<use xlink:href="#SVGID_55_"  style="overflow:visible;"/>
	</clipPath>
	<g style="clip-path:url(#SVGID_56_);enable-background:new    ;">
		
			<use xlink:href="#b"  width="13.8" height="13" x="-6.9" y="-6.5" transform="matrix(1.2656 0 0 -1.2656 839.4277 158.6065)" style="overflow:visible;"/>
	</g>
</g>
<g>
	<defs>
		<rect id="SVGID_57_" x="1004.9" y="328.9" width="20.4" height="19.4"/>
	</defs>
	<clipPath id="SVGID_58_">
		<use xlink:href="#SVGID_57_"  style="overflow:visible;"/>
	</clipPath>
	<g style="clip-path:url(#SVGID_58_);enable-background:new    ;">
		
			<use xlink:href="#b"  width="13.8" height="13" x="-6.9" y="-6.5" transform="matrix(1.4782 0 0 -1.4782 1015.0928 338.7013)" style="overflow:visible;"/>
	</g>
</g>
<g>
	<defs>
		<rect id="SVGID_59_" x="781.7" y="160.3" width="17.5" height="16.6"/>
	</defs>
	<clipPath id="SVGID_60_">
		<use xlink:href="#SVGID_59_"  style="overflow:visible;"/>
	</clipPath>
	<g transform="matrix(1 0 0 1 6.103516e-05 0)" style="clip-path:url(#SVGID_60_);enable-background:new    ;">
		
			<use xlink:href="#b"  width="13.8" height="13" x="-6.9" y="-6.5" transform="matrix(1.2656 0 0 -1.2656 790.46 168.604)" style="overflow:visible;"/>
	</g>
</g>
<g>
	<defs>
		<rect id="SVGID_61_" x="710" y="210.9" width="17.5" height="16.6"/>
	</defs>
	<clipPath id="SVGID_62_">
		<use xlink:href="#SVGID_61_"  style="overflow:visible;"/>
	</clipPath>
	<g style="clip-path:url(#SVGID_62_);enable-background:new    ;">
		
			<use xlink:href="#b"  width="13.8" height="13" x="-6.9" y="-6.5" transform="matrix(1.2656 0 0 -1.2656 718.6888 219.2944)" style="overflow:visible;"/>
	</g>
</g>
<g>
	<defs>
		<rect id="SVGID_63_" x="843.6" y="112.5" width="17.5" height="16.6"/>
	</defs>
	<clipPath id="SVGID_64_">
		<use xlink:href="#SVGID_63_"  style="overflow:visible;"/>
	</clipPath>
	<g style="clip-path:url(#SVGID_64_);enable-background:new    ;">
		
			<use xlink:href="#b"  width="13.8" height="13" x="-6.9" y="-6.5" transform="matrix(1.2656 0 0 -1.2656 852.3365 120.8919)" style="overflow:visible;"/>
	</g>
</g>
<g>
	<defs>
		<rect id="SVGID_65_" x="863.3" y="66.4" width="17.5" height="16.6"/>
	</defs>
	<clipPath id="SVGID_66_">
		<use xlink:href="#SVGID_65_"  style="overflow:visible;"/>
	</clipPath>
	<g style="clip-path:url(#SVGID_66_);enable-background:new    ;">
		
			<use xlink:href="#b"  width="13.8" height="13" x="-6.9" y="-6.5" transform="matrix(1.2656 0 0 -1.2656 872.0799 74.7626)" style="overflow:visible;"/>
	</g>
</g>
<g>
	<defs>
		<rect id="SVGID_67_" x="825.4" y="28.8" width="17.5" height="16.6"/>
	</defs>
	<clipPath id="SVGID_68_">
		<use xlink:href="#SVGID_67_"  style="overflow:visible;"/>
	</clipPath>
	<g style="clip-path:url(#SVGID_68_);enable-background:new    ;">
		
			<use xlink:href="#b"  width="13.8" height="13" x="-6.9" y="-6.5" transform="matrix(1.2656 0 0 -1.2656 834.1119 37.1093)" style="overflow:visible;"/>
	</g>
</g>
<g>
	<defs>
		<rect id="SVGID_69_" x="894.6" y="91.1" width="17.5" height="16.6"/>
	</defs>
	<clipPath id="SVGID_70_">
		<use xlink:href="#SVGID_69_"  style="overflow:visible;"/>
	</clipPath>
	<g style="clip-path:url(#SVGID_70_);enable-background:new    ;">
		
			<use xlink:href="#b"  width="13.8" height="13" x="-6.9" y="-6.5" transform="matrix(1.2656 0 0 -1.2656 903.3405 99.4418)" style="overflow:visible;"/>
	</g>
</g>
<g>
	<defs>
		<rect id="SVGID_71_" x="894.6" y="142.8" width="17.5" height="16.6"/>
	</defs>
	<clipPath id="SVGID_72_">
		<use xlink:href="#SVGID_71_"  style="overflow:visible;"/>
	</clipPath>
	<g style="clip-path:url(#SVGID_72_);enable-background:new    ;">
		
			<use xlink:href="#b"  width="13.8" height="13" x="-6.9" y="-6.5" transform="matrix(1.2656 0 0 -1.2656 903.3405 151.139)" style="overflow:visible;"/>
	</g>
</g>
<g>
	<defs>
		<rect id="SVGID_73_" x="941.6" y="53.5" width="17.5" height="16.6"/>
	</defs>
	<clipPath id="SVGID_74_">
		<use xlink:href="#SVGID_73_"  style="overflow:visible;"/>
	</clipPath>
	<g style="clip-path:url(#SVGID_74_);enable-background:new    ;">
		
			<use xlink:href="#b"  width="13.8" height="13" x="-6.9" y="-6.5" transform="matrix(1.2656 0 0 -1.2656 950.2938 61.8536)" style="overflow:visible;"/>
	</g>
</g>
<g>
	<defs>
		<rect id="SVGID_75_" x="587.4" y="217.5" width="17.5" height="16.6"/>
	</defs>
	<clipPath id="SVGID_76_">
		<use xlink:href="#SVGID_75_"  style="overflow:visible;"/>
	</clipPath>
	<g style="clip-path:url(#SVGID_76_);enable-background:new    ;">
		
			<use xlink:href="#b"  width="13.8" height="13" x="-6.9" y="-6.5" transform="matrix(1.2656 0 0 -1.2656 596.1789 225.8094)" style="overflow:visible;"/>
	</g>
</g>
</svg>
