<svg xmlns="http://www.w3.org/2000/svg" width="256" height="256" viewBox="0 0 256 256"><title>icon_sketch</title><path d="M185.8,114.5a13.7,13.7,0,1,1,13.7,13.7A13.7,13.7,0,0,1,185.8,114.5Zm-34-35.1a13.7,13.7,0,1,0-13.7-13.7A13.7,13.7,0,0,0,151.8,79.4ZM7.3,246.3V8.2h-3V249.3h247v-3Zm83.5-94.8a13.7,13.7,0,1,0-13.7-13.7A13.7,13.7,0,0,0,90.8,151.5ZM45.1,184a13.7,13.7,0,1,0-13.7-13.7A13.7,13.7,0,0,0,45.1,184ZM91,92.3h5.8V82.9h10V77h-10V66.4H91V77H80.9v5.9H91Zm68,45v-9.4h10V122H159V111.4h-5.8V122h-10v5.9h10v9.4Zm70.1-81.7H235V46.2h10V40.3H235V29.8h-5.9V40.3h-10v5.9h10Z"/></svg>