<?xml version="1.0" encoding="utf-8"?>
<!-- Generator: Adobe Illustrator 19.2.0, SVG Export Plug-In . SVG Version: 6.00 Build 0)  -->
<svg version="1.1" id="Layer_1" xmlns="http://www.w3.org/2000/svg" xmlns:xlink="http://www.w3.org/1999/xlink" x="0px" y="0px"
	 width="1200px" height="754px" viewBox="0 0 1200 754" enable-background="new 0 0 1200 754" xml:space="preserve">
<g>
	<polygon fill="#7581BA" points="34.068,442.144 50.476,471.976 95.968,471.976 111.629,456.314 162.342,516.722 156.376,542.825 
		167.563,562.961 204.106,559.232 221.632,529.401 248.107,524.926 272.345,549.164 295.837,483.162 335.363,489.874 
		347.296,477.942 336.109,404.856 321.939,390.686 347.296,323.566 311.498,276.582 261.531,251.971 267.497,234.072 
		235.429,202.004 142.952,228.852 62.408,145.697 17.102,162.477 17.102,185.41 34.068,234.072 15.424,263.158 2,276.582 	"/>
	<polygon fill="#7581BA" points="458.118,442.144 474.525,471.976 520.017,471.976 535.679,456.314 586.392,516.722 
		580.425,542.825 591.612,562.961 628.155,559.232 645.681,529.401 672.156,524.926 696.394,549.164 719.886,483.162 
		759.412,489.874 771.345,477.942 760.158,404.856 745.988,390.686 771.345,323.566 735.547,276.582 685.58,251.971 
		691.546,234.072 659.478,202.004 567.001,228.852 486.457,145.697 441.151,162.477 441.151,185.41 458.118,234.072 
		439.473,263.158 426.049,276.582 	"/>
	<circle fill="#464A90" cx="189.632" cy="326.38" r="24.323"/>
	<circle fill="#464A90" cx="613.682" cy="326.38" r="24.323"/>
	<circle fill="#464A90" cx="653.64" cy="423.671" r="24.323"/>
	<polygon fill="#7581BA" points="884.773,442.144 901.18,471.976 946.673,471.976 962.334,456.314 1013.047,516.722 
		1007.081,542.825 1018.267,562.961 1054.81,559.232 1072.336,529.401 1098.811,524.926 1123.049,549.164 1146.541,483.162 
		1186.068,489.874 1198,477.942 1186.813,404.856 1172.644,390.686 1198,323.566 1162.203,276.582 1112.235,251.971 
		1118.202,234.072 1086.133,202.004 993.657,228.852 913.112,145.697 867.806,162.477 867.806,185.41 884.773,234.072 
		866.128,263.158 852.704,276.582 	"/>
	<circle fill="#464A90" cx="1040.337" cy="326.636" r="24.323"/>
	<circle fill="#464A90" cx="929.147" cy="309.31" r="24.323"/>
	<circle fill="#464A90" cx="1080.295" cy="423.927" r="24.323"/>
	<g>
		<text transform="matrix(1 0 0 1 534.5742 734.2754)" fill="#7F7F7F" font-family="'Roboto-Regular'" font-size="65.4062px">time</text>
	</g>
	<g>
		<text transform="matrix(1 0 0 1 602.6851 54.5039)" fill="#7F7F7F" font-family="'Roboto-Regular'" font-size="65px">quantitative variable</text>
	</g>
	<g>
		<g>
			<line fill="none" stroke="#AFAFAF" stroke-width="8" stroke-miterlimit="10" x1="5" y1="648" x2="1161.406" y2="648"/>
			<g>
				<polygon fill="#AFAFAF" points="1154.169,672.732 1197,648 1154.169,623.268 				"/>
			</g>
		</g>
	</g>
	<line fill="none" stroke="#AFAFAF" stroke-width="8" stroke-miterlimit="10" x1="1040" y1="323" x2="1040" y2="80"/>
</g>
</svg>
