<?xml version="1.0" encoding="utf-8"?>
<!-- Generator: Adobe Illustrator 22.1.0, SVG Export Plug-In . SVG Version: 6.00 Build 0)  -->
<svg version="1.1" id="Layer_1" xmlns="http://www.w3.org/2000/svg" xmlns:xlink="http://www.w3.org/1999/xlink" x="0px" y="0px"
	 viewBox="0 0 1200 754" style="enable-background:new 0 0 1200 754;" xml:space="preserve">
<style type="text/css">
	.st0{fill:#BBBBBB;}
	.st1{fill:#E5E5E5;}
	.st2{fill:#BFBFBF;}
	.st3{fill:#514361;}
	.st4{font-family:'RobotoMono-Regular';}
	.st5{font-size:35px;}
	.st6{fill:none;stroke:#EDEDED;stroke-miterlimit:10;}
	.st7{fill:none;stroke:#AFAFAF;stroke-width:4;stroke-linecap:round;stroke-miterlimit:10;stroke-dasharray:0,9.9536;}
	.st8{fill:#AFAFAF;}
	.st9{fill:none;stroke:#AFAFAF;stroke-width:4;stroke-linecap:round;stroke-miterlimit:10;}
	.st10{fill:none;stroke:#AFAFAF;stroke-width:4;stroke-linecap:round;stroke-miterlimit:10;stroke-dasharray:0,8.9165;}
	.st11{fill:none;stroke:#AFAFAF;stroke-width:4;stroke-linecap:round;stroke-miterlimit:10;stroke-dasharray:0,9.8866;}
	.st12{font-family:'Roboto-Italic';}
	.st13{font-size:21px;}
</style>
<g id="Layer_1_1_">
	<g>
		<polygon class="st0" points="907.6,208.5 852.3,257.3 907.6,257.3 		"/>
		<polygon class="st1" points="907.6,208.5 852.3,208.5 852.3,257.3 		"/>
	</g>
	<g>
		<polygon class="st1" points="728.6,87.4 763.2,121.9 802.2,82.8 		"/>
		<polygon class="st0" points="767.7,48.3 728.6,87.4 802.2,82.8 		"/>
	</g>
	<g>
		<g>
			<path class="st2" d="M224.1,119.2H190c-5.4,0-10.5,2.1-14.4,5.9L139,161.7c-2.2,2.2-2.6,5.6-1.1,8.1l-7.2,7.2l2.6,2.6l7.2-7.2
				c2.6,1.4,5.9,1.1,8-1.1l30.2-29.9c0.5-0.5,1.3-0.8,1.9-0.8c1.4,0,2.7,1.3,2.7,2.7v48.2h42.6v-49c0-1.1,0.8-1.9,1.9-1.9
				s1.9,0.8,1.9,1.9v42c0,3.2,2.1,5.9,4.9,6.9v10.2h3.7v-10.2c2.9-0.8,4.9-3.4,4.9-6.5v-46.1C243.6,128,234.8,119.2,224.1,119.2z"/>
			<path class="st2" d="M204.5,115.4c8.6,0,15.5-7,15.5-15.5c0-8.6-7-15.5-15.5-15.5c-8.6,0-15.5,7-15.5,15.5
				C189,108.5,195.9,115.4,204.5,115.4z"/>
		</g>
		<g>
			<path class="st2" d="M502.1,138.7v56.8h42.6v-49c0-1.1,0.8-1.9,1.9-1.9s1.9,0.8,1.9,1.9v42c0,3.2,2.1,5.9,4.9,6.9v10.2h3.7v-10.2
				c2.9-0.8,4.9-3.4,4.9-6.5v-46.1c0-10.7-8.8-19.5-19.5-19.5h-89.2c-3,0-5.6,2.1-6.5,4.8h-10.2v3.7h10.2c0.8,2.9,3.4,5.1,6.5,5.1
				H500C501.3,136.8,502.1,137.8,502.1,138.7z"/>
			<path class="st2" d="M523.3,119.4c8.6,0,15.5-7,15.5-15.5c0-8.6-7-15.5-15.5-15.5c-8.6,0-15.5,7-15.5,15.5
				C507.7,112.5,514.7,119.4,523.3,119.4z"/>
		</g>
		<g>
			<path class="st2" d="M895.1,198.6v-49c0-1.1,0.8-1.9,1.9-1.9s1.9,0.8,1.9,1.9v42c0,3.2,2.1,5.9,4.9,6.9v10.2h3.7v-10.2
				c2.9-0.8,4.9-3.4,4.9-6.5v-46.1c0-10.7-8.8-19.5-19.5-19.5h-40.6l-35-35c-2.2-2.2-5.4-2.6-8-1.1l-7.3-7.3l-2.6,2.6l7.3,7.3
				c-1.4,2.6-1.1,5.9,1.1,8.1l44.4,44.4v53.3H895.1z"/>
			<path class="st2" d="M873.4,122.4c8.6,0,15.5-7,15.5-15.5c0-8.6-7-15.5-15.5-15.5c-8.6,0-15.5,7-15.5,15.5
				C857.9,115.4,864.9,122.4,873.4,122.4z"/>
		</g>
	</g>
	<g>
		<polygon class="st0" points="557.3,205.6 502.1,254.5 557.3,254.5 		"/>
		<polygon class="st1" points="557.3,205.6 502.1,205.6 502.1,254.5 		"/>
	</g>
	<g>
		<polygon class="st1" points="387.9,183.4 436.8,183.4 436.8,128.2 		"/>
		<polygon class="st0" points="387.9,128.2 387.9,183.4 436.8,128.2 		"/>
	</g>
	<g>
		<polygon class="st0" points="238.7,201.6 183.4,250.5 238.7,250.5 		"/>
		<polygon class="st1" points="238.7,201.6 183.4,201.6 183.4,250.5 		"/>
	</g>
	<g>
		<polygon class="st1" points="135.2,250.8 169.8,216.1 130.7,177.2 		"/>
		<polygon class="st0" points="96.2,211.7 135.2,250.8 130.7,177.2 		"/>
	</g>
</g>
<g id="Layer_3">
</g>
<g>
	<g>
		<text transform="matrix(1 0 0 1 35.3266 703.699)" class="st3 st4 st5">direction of comparison</text>
	</g>
</g>
<g>
	<rect x="12.8" y="33.4" class="st6" width="990" height="604"/>
	<line class="st6" x1="12.8" y1="335.4" x2="1002.8" y2="335.4"/>
	<line class="st6" x1="672.8" y1="33.4" x2="672.8" y2="637.4"/>
	<line class="st6" x1="342.8" y1="33.4" x2="342.8" y2="637.4"/>
</g>
<g>
	<g>
		<line class="st7" x1="551.7" y1="693.5" x2="672.2" y2="693.5"/>
		<g>
			<polygon class="st8" points="669.3,703.4 686.6,693.5 669.3,683.5 			"/>
		</g>
	</g>
</g>
<g>
	<g>
		<text transform="matrix(1 0 0 1 166.2022 309.009)" class="st3 st4 st5">a</text>
	</g>
</g>
<g>
	<g>
		<text transform="matrix(1 0 0 1 512.814 309.009)" class="st3 st4 st5">b</text>
	</g>
</g>
<g>
	<g>
		<text transform="matrix(1 0 0 1 841.8198 309.009)" class="st3 st4 st5">c</text>
	</g>
</g>
<g>
	<g>
		<text transform="matrix(1 0 0 1 166.2022 623.9932)" class="st3 st4 st5">d</text>
	</g>
</g>
<g>
	<g>
		<text transform="matrix(1 0 0 1 512.814 623.9932)" class="st3 st4 st5">e</text>
	</g>
</g>
<g>
	<g>
		<text transform="matrix(1 0 0 1 841.811 623.9932)" class="st3 st4 st5">f</text>
	</g>
</g>
<g>
	<g>
		<line class="st9" x1="1016.8" y1="637.4" x2="1016.8" y2="637.4"/>
		<line class="st10" x1="1025.7" y1="637.4" x2="1039.1" y2="637.4"/>
		<line class="st9" x1="1043.6" y1="637.4" x2="1043.6" y2="637.4"/>
		<line class="st11" x1="1043.6" y1="627.5" x2="1043.6" y2="39.3"/>
		<line class="st9" x1="1043.6" y1="34.3" x2="1043.6" y2="34.3"/>
		<line class="st10" x1="1034.7" y1="34.3" x2="1021.3" y2="34.3"/>
		<line class="st9" x1="1016.8" y1="34.3" x2="1016.8" y2="34.3"/>
	</g>
</g>
<g>
	<g>
		<text transform="matrix(1 0 0 1 1067.5414 340.4013)" class="st3 st4 st5">order</text>
	</g>
</g>
<polygon class="st0" points="571.4,382.5 645.7,387.2 606.2,347.7 "/>
<polygon class="st1" points="571.4,382.5 610.9,422 645.7,387.2 "/>
<polygon class="st1" points="520.7,558.8 520.7,509.4 464.9,509.4 "/>
<polygon class="st0" points="464.9,558.8 520.7,558.8 464.9,509.4 "/>
<rect x="784.4" y="515.4" width="55.8" height="49.4"/>
<polygon class="st0" points="906.3,437.4 955.6,493.2 955.6,437.4 "/>
<polygon class="st1" points="906.3,437.4 906.3,493.2 955.6,493.2 "/>
<polygon class="st1" points="840.3,564.6 840.3,515.3 784.5,515.3 "/>
<polygon class="st0" points="784.5,564.6 840.3,564.6 784.5,515.3 "/>
<polygon class="st0" points="231.6,534.4 175.8,583.8 231.6,583.8 "/>
<polygon class="st1" points="231.6,534.4 175.8,534.4 175.8,583.8 "/>
<polygon class="st1" points="115,340.4 115,389.8 170.8,389.8 "/>
<polygon class="st0" points="170.8,340.4 115,340.4 170.8,389.8 "/>
<path class="st2" d="M499.4,422.3c8.7,0,15.6-7.1,15.6-15.6c0-8.7-7.1-15.6-15.6-15.6c-8.7,0-15.6,7.1-15.6,15.6
	C483.6,415.4,490.7,422.3,499.4,422.3z"/>
<path class="st2" d="M574,385.2l-2.6-2.6l-7.3,7.3c-2.6-1.5-6-1.1-8.2,1.1l-35.3,35.3h-41c-10.8,0-19.7,8.9-19.7,19.7v46.6
	c0,3.1,2.1,5.8,5,6.6v10.3h3.7v-10.3c2.9-0.8,5-3.7,5-6.9v-42.4c0-1.1,0.8-1.9,1.9-1.9l0,0c1.1,0,1.9,0.8,1.9,1.9v49.5h43.2v-53.1
	c0-0.5,0.2-1,0.5-1.3l44.2-44.2c2.3-2.3,2.6-5.5,1.1-8.1L574,385.2z"/>
<path class="st2" d="M818.9,428.3c8.7,0,15.6-7.1,15.6-15.6c0-8.7-7.1-15.6-15.6-15.6c-8.7,0-15.6,7.1-15.6,15.6
	S810.3,428.3,818.9,428.3z"/>
<path class="st2" d="M906.3,437.4h-10.5c-0.8-2.9-3.4-5.2-6.6-5.2H799c-10.8,0-19.7,8.9-19.7,19.7v46.6c0,3.1,2.1,5.8,5,6.6v10.3
	h3.7v-10.3c2.9-0.8,5-3.7,5-6.9v-42.4c0-1.1,0.8-1.9,1.9-1.9l0,0c1.1,0,1.9,0.8,1.9,1.9v49.5H840v-57.4c0-1,0.8-1.9,1.9-1.9H889
	c3.1,0,5.6-2.1,6.6-4.8h10.5v-3.7H906.3z"/>
<path class="st2" d="M216.9,451.2h-41.1v-44.5c0-3.1-2.1-5.8-5-6.6v-10.3h-3.7v10.3c-2.9,0.8-5,3.4-5,6.6V473h11.8
	c1,0,1.9,0.8,1.9,1.9v49.5h43.1v-49.5c0-1.1,0.8-1.9,1.9-1.9l0,0c1.1,0,1.9,0.8,1.9,1.9v42.3c0,3.2,2.1,6,5,6.9v10.3h3.7v-10.3
	c2.9-0.8,5-3.4,5-6.6v-46.6C236.6,460.1,227.7,451.2,216.9,451.2z"/>
<path class="st2" d="M197.1,447.3c8.7,0,15.6-7.1,15.6-15.6c0-8.7-7.1-15.6-15.6-15.6c-8.7,0-15.6,7.1-15.6,15.6
	C181.4,440.4,188.3,447.3,197.1,447.3z"/>
<text transform="matrix(1 0 0 1 1059.1852 374.4887)"><tspan x="0" y="0" class="st3 st12 st13">by alphabet,</tspan><tspan x="30" y="25.2" class="st3 st12 st13">time, </tspan><tspan x="-5.5" y="50.4" class="st3 st12 st13">similarity, etc</tspan></text>
</svg>
