<?xml version="1.0" encoding="utf-8"?>
<!-- Generator: Adobe Illustrator 22.1.0, SVG Export Plug-In . SVG Version: 6.00 Build 0)  -->
<svg version="1.1" xmlns="http://www.w3.org/2000/svg" xmlns:xlink="http://www.w3.org/1999/xlink" x="0px" y="0px"
	 viewBox="0 0 1268 418" enable-background="new 0 0 1268 418" xml:space="preserve">
<g id="Layer_1">
	<g>
		<polygon fill="#E5CE97" points="2,327.9 32.6,327.9 32.6,293.3 		"/>
		<polygon fill="#BB837F" points="2,293.3 2,327.9 32.6,293.3 		"/>
	</g>
	<g>
		<polygon fill="#E5CE97" points="59.9,377.8 81.5,356.2 57,331.7 		"/>
		<polygon fill="#BB837F" points="35.4,353.3 59.9,377.8 57,331.7 		"/>
	</g>
	<g>
		<polygon fill="#E5CE97" points="208.1,279.7 229.8,301.4 254.2,276.9 		"/>
		<polygon fill="#BB837F" points="232.6,255.3 208.1,279.7 254.2,276.9 		"/>
	</g>
	<g>
		<polygon fill="#E5CE97" points="233.4,390.9 255.1,369.2 230.6,344.8 		"/>
		<polygon fill="#BB837F" points="209,366.4 233.4,390.9 230.6,344.8 		"/>
	</g>
	<g>
		<polygon fill="#BB837F" points="850.4,61 896.5,63.9 872,39.4 		"/>
		<polygon fill="#E5CE97" points="850.4,61 874.9,85.5 896.5,63.9 		"/>
	</g>
	<g>
		<polygon fill="#E5CE97" points="819,170.3 819,139.7 784.4,139.7 		"/>
		<polygon fill="#BB837F" points="784.4,170.3 819,170.3 784.4,139.7 		"/>
	</g>
	<g>
		<polygon fill="#BB837F" points="851.7,278.5 897.8,281.4 873.3,256.9 		"/>
		<polygon fill="#E5CE97" points="851.7,278.5 876.1,303 897.8,281.4 		"/>
	</g>
	<g>
		<polygon fill="#E5CE97" points="761.9,389.3 783.6,367.6 759.1,343.2 		"/>
		<polygon fill="#BB837F" points="737.5,364.8 761.9,389.3 759.1,343.2 		"/>
	</g>
	<rect x="978.2" y="139.6" transform="matrix(-1 -4.486912e-11 4.486912e-11 -1 1990.9247 309.8922)" width="34.6" height="30.6"/>
	<g>
		<polygon fill="#BB837F" points="1053.7,91.3 1084.3,125.9 1084.3,91.3 		"/>
		<polygon fill="#E5CE97" points="1053.7,91.3 1053.7,125.9 1084.3,125.9 		"/>
	</g>
	<g>
		<polygon fill="#E5CE97" points="1012.8,170.2 1012.8,139.6 978.2,139.6 		"/>
		<polygon fill="#BB837F" points="978.2,170.2 1012.8,170.2 978.2,139.6 		"/>
	</g>
	<g>
		<polygon fill="#BB837F" points="1053.7,296 1084.3,330.6 1084.3,296 		"/>
		<polygon fill="#E5CE97" points="1053.7,296 1053.7,330.6 1084.3,330.6 		"/>
	</g>
	<g>
		<polygon fill="#E5CE97" points="955.9,375.2 977.5,353.6 953.1,329.1 		"/>
		<polygon fill="#BB837F" points="931.4,350.7 955.9,375.2 953.1,329.1 		"/>
	</g>
	<rect x="1176.7" y="139.7" transform="matrix(-1 -4.492152e-11 4.492152e-11 -1 2387.9128 309.964)" width="34.6" height="30.6"/>
	<g>
		<polygon fill="#BB837F" points="1243.8,124.6 1240.9,170.7 1265.4,146.3 		"/>
		<polygon fill="#E5CE97" points="1243.8,124.6 1219.3,149.1 1240.9,170.7 		"/>
	</g>
	<g>
		<polygon fill="#E5CE97" points="1211.3,170.3 1211.3,139.7 1176.7,139.7 		"/>
		<polygon fill="#BB837F" points="1176.7,170.3 1211.3,170.3 1176.7,139.7 		"/>
	</g>
	<polygon fill="#E5CE97" points="1154.7,374.8 1176.4,353.2 1151.9,328.7 	"/>
	<polygon fill="#BB837F" points="1130.3,350.3 1154.7,374.8 1151.9,328.7 	"/>
	<polygon fill="#E5CE97" points="1241.5,374.8 1219.9,353.2 1244.4,328.7 	"/>
	<polygon fill="#BB837F" points="1266,350.3 1241.5,374.8 1244.4,328.7 	"/>
	<g>
		<polygon fill="#BB837F" points="652.3,278.1 686.9,247.5 652.3,247.5 		"/>
		<polygon fill="#E5CE97" points="652.3,278.1 686.9,278.1 686.9,247.5 		"/>
	</g>
	<g>
		<polygon fill="#E5CE97" points="592.3,398.6 613.9,377 589.5,352.5 		"/>
		<polygon fill="#BB837F" points="567.8,374.1 592.3,398.6 589.5,352.5 		"/>
	</g>
	<g>
		<polygon fill="#BB837F" points="657.1,139.7 622.5,170.3 657.1,170.3 		"/>
		<polygon fill="#E5CE97" points="657.1,139.7 622.5,139.7 622.5,170.3 		"/>
	</g>
	<g>
		<polygon fill="#E5CE97" points="584.8,19.4 584.8,50 619.4,50 		"/>
		<polygon fill="#BB837F" points="619.4,19.4 584.8,19.4 619.4,50 		"/>
	</g>
	<g>
		<polygon fill="#BB837F" points="461.3,139.6 426.7,170.2 461.3,170.2 		"/>
		<polygon fill="#E5CE97" points="461.3,139.6 426.7,139.6 426.7,170.2 		"/>
	</g>
	<g>
		<polygon fill="#E5CE97" points="349.2,63.8 370.9,85.4 395.3,60.9 		"/>
		<polygon fill="#BB837F" points="373.7,39.3 349.2,63.8 395.3,60.9 		"/>
	</g>
	<g>
		<g>
			<path fill="#AEA5BF" d="M99,88.1H77.6c-3.4,0-6.6,1.3-9,3.7l-22.9,22.9c-1.4,1.4-1.6,3.5-0.7,5.1l-4.5,4.5l1.6,1.6l4.5-4.5
				c1.6,0.9,3.7,0.7,5-0.7L70.5,102c0.3-0.3,0.8-0.5,1.2-0.5c0.9,0,1.7,0.8,1.7,1.7v30.2h26.7v-30.7c0-0.7,0.5-1.2,1.2-1.2
				c0.7,0,1.2,0.5,1.2,1.2V129c0,2,1.3,3.7,3.1,4.3v6.4h2.3v-6.4c1.8-0.5,3.1-2.1,3.1-4.1v-28.9C111.2,93.6,105.7,88.1,99,88.1z"/>
			<path fill="#AEA5BF" d="M86.7,85.7c5.4,0,9.7-4.4,9.7-9.7c0-5.4-4.4-9.7-9.7-9.7c-5.4,0-9.7,4.4-9.7,9.7
				C77,81.4,81.3,85.7,86.7,85.7z"/>
		</g>
		<g>
			<path fill="#AEA5BF" d="M100.2,296.5c0-3.5-2.8-6.3-6.3-6.3l-50.7,0c-1.9,0-3.6,1.3-4.1,3.1h-6.4v2.3H39c0.5,1.8,2.1,3.1,4.1,3.1
				h30.4v12.1L62.3,322c-1.4,1.4-1.6,3.5-0.7,5.1l-4.6,4.6l1.6,1.6l4.6-4.6c1.6,0.9,3.7,0.7,5-0.7l5.1-5.1v12.7h26.7L100.2,296.5z"
				/>
			<path fill="#AEA5BF" d="M86.7,287.8c5.4,0,9.7-4.4,9.7-9.7c0-5.4-4.4-9.7-9.7-9.7c-5.4,0-9.7,4.4-9.7,9.7
				C77,283.4,81.3,287.8,86.7,287.8z"/>
		</g>
		<g>
			<path fill="#AEA5BF" d="M263.7,97.8v35.6h26.7v-30.7c0-0.7,0.5-1.2,1.2-1.2s1.2,0.5,1.2,1.2V129c0,2,1.3,3.7,3.1,4.3v6.4h2.3
				v-6.4c1.8-0.5,3.1-2.1,3.1-4.1v-28.9c0-6.7-5.5-12.2-12.2-12.2h-55.9c-1.9,0-3.5,1.3-4.1,3h-6.4v2.3h6.4c0.5,1.8,2.1,3.2,4.1,3.2
				h29.2C263.2,96.6,263.7,97.2,263.7,97.8z"/>
			<path fill="#AEA5BF" d="M277,85.7c5.4,0,9.7-4.4,9.7-9.7c0-5.4-4.4-9.7-9.7-9.7c-5.4,0-9.7,4.4-9.7,9.7
				C267.2,81.4,271.6,85.7,277,85.7z"/>
		</g>
		<path fill="#AEA5BF" d="M290.5,353.9l0-41.2c0-2.6-1-5.1-2.9-7l-3.5-3.5c1.6-2,2.4-4.6,2-7.4c-0.6-4.3-4-7.7-8.3-8.3
			c-2.8-0.4-5.4,0.4-7.4,2l-6.6-6.6c-1.4-1.4-3.5-1.6-5.2-0.6l-4.5-4.5l-1.6,1.6l4.5,4.5c-0.9,1.7-0.5,3.8,0.9,5.1l8.8,8.8
			c0.4,4.8,4.2,8.6,8.9,8.9l2.7,2.7h-10.6c-3.4,0-6.6,1.3-9,3.7L236,335.3c-1.3,1.3-1.6,3.3-0.8,4.9l-4.6,4.6l1.6,1.6l4.5-4.5
			c1.6,1,3.8,0.8,5.2-0.6l18.8-18.8c0.3-0.3,0.8-0.5,1.2-0.5l0,0c0.9,0,1.7,0.8,1.7,1.7v30.2H290.5z"/>
		<g>
			<path fill="#AEA5BF" d="M805.8,85.7c5.4,0,9.7-4.4,9.7-9.7c0-5.4-4.4-9.7-9.7-9.7c-5.4,0-9.7,4.4-9.7,9.7
				C796,81.4,800.4,85.7,805.8,85.7z"/>
			<path fill="#AEA5BF" d="M852,62.7l-1.6-1.6l-4.5,4.5c-1.6-0.9-3.7-0.7-5.1,0.7l-21.9,21.9h-25.4c-6.7,0-12.2,5.5-12.2,12.2v28.9
				c0,1.9,1.3,3.6,3.1,4.1v6.4h2.3v-6.4c1.8-0.5,3.1-2.3,3.1-4.3v-26.3c0-0.7,0.5-1.2,1.2-1.2l0,0c0.7,0,1.2,0.5,1.2,1.2v30.7H819
				v-32.9c0-0.3,0.1-0.6,0.3-0.8l27.4-27.4c1.4-1.4,1.6-3.4,0.7-5L852,62.7z"/>
		</g>
		<g>
			<path fill="#AEA5BF" d="M805.5,304.5c5.4,0,9.7-4.4,9.7-9.7c0-5.4-4.4-9.7-9.7-9.7c-5.4,0-9.7,4.4-9.7,9.7
				C795.8,300.2,800.1,304.5,805.5,304.5z"/>
			<path fill="#AEA5BF" d="M853.3,280.2l-1.6-1.6l-4.6,4.6c-1.6-0.8-3.6-0.6-4.9,0.8l-23,23h-22.7c-3.4,0-6.6,1.3-9,3.7l-22.9,22.9
				c-1.3,1.3-1.6,3.4-0.7,5l-4.6,4.6l1.6,1.6l4.6-4.6c1.6,1,3.8,0.8,5.2-0.6l18.7-18.7c0.3-0.3,0.8-0.5,1.3-0.5h0
				c1,0,1.8,0.8,1.8,1.8v30.2H819l0-33.2l29.1-29.1c1.4-1.4,1.6-3.6,0.6-5.2L853.3,280.2z"/>
		</g>
		<g>
			<path fill="#AEA5BF" d="M999.5,85.7c5.4,0,9.7-4.4,9.7-9.7c0-5.4-4.4-9.7-9.7-9.7c-5.4,0-9.7,4.4-9.7,9.7
				C989.8,81.3,994.2,85.7,999.5,85.7z"/>
			<path fill="#AEA5BF" d="M1053.7,91.3h-6.5c-0.5-1.8-2.1-3.2-4.1-3.2h-55.9c-6.7,0-12.2,5.5-12.2,12.2v28.9c0,1.9,1.3,3.6,3.1,4.1
				v6.4h2.3v-6.4c1.8-0.5,3.1-2.3,3.1-4.3v-26.3c0-0.7,0.5-1.2,1.2-1.2l0,0c0.7,0,1.2,0.5,1.2,1.2v30.7h26.7V97.8
				c0-0.6,0.5-1.2,1.2-1.2h29.2c1.9,0,3.5-1.3,4.1-3h6.5V91.3z"/>
		</g>
		<g>
			<path fill="#AEA5BF" d="M1053.7,296h-6.4c-0.5-1.8-2.1-3.2-4.1-3.2h-53c-3.4,0-6.6,1.3-9,3.7l-22.9,22.9
				c-1.4,1.4-1.6,3.5-0.7,5.1l-4.5,4.5l1.6,1.6l4.6-4.6c1.6,0.9,3.6,0.6,5-0.7l18.7-18.7c0.3-0.3,0.8-0.5,1.3-0.5l0,0
				c1,0,1.8,0.8,1.8,1.8v30.2h26.7l0-36.8h30.4c1.9,0,3.5-1.3,4.1-3h6.5V296z"/>
			<path fill="#AEA5BF" d="M999.3,290.4c5.4,0,9.7-4.4,9.7-9.7c0-5.4-4.4-9.7-9.7-9.7c-5.4,0-9.7,4.4-9.7,9.7
				C989.5,286.1,993.9,290.4,999.3,290.4z"/>
		</g>
		<g>
			<path fill="#AEA5BF" d="M1198,85.7c5.4,0,9.7-4.4,9.7-9.7c0-5.4-4.4-9.7-9.7-9.7c-5.4,0-9.7,4.4-9.7,9.7
				C1188.3,81.4,1192.7,85.7,1198,85.7z"/>
			<path fill="#AEA5BF" d="M1243.8,124.6l-4.3-4.3c1.3-1.7,1.1-4-0.4-5.5l-22.9-22.9c-2.4-2.4-5.6-3.7-9-3.7h-21.4
				c-6.7,0-12.2,5.5-12.2,12.2v28.9c0,1.9,1.3,3.6,3.1,4.1v6.4h2.3v-6.4c1.8-0.5,3.1-2.3,3.1-4.3v-26.3c0-0.7,0.5-1.2,1.2-1.2h0
				c0.7,0,1.2,0.5,1.2,1.2v30.7h26.7v-30.2c0-1,0.8-1.8,1.8-1.8l0,0c0.5,0,0.9,0.2,1.3,0.5l18.7,18.7c1.2,1.2,3,1.5,4.5,1l4.6,4.6
				L1243.8,124.6z"/>
		</g>
		<path fill="#AEA5BF" d="M1207.8,280.3c0-5.4-4.4-9.7-9.7-9.7c-5.4,0-9.7,4.4-9.7,9.7c0,5.4,4.4,9.7,9.7,9.7
			C1203.6,290,1207.8,285.1,1207.8,280.3z"/>
		<path fill="#AEA5BF" d="M1239.8,324.2c0.9-1.6,0.7-3.7-0.7-5.1l-22.9-22.9c-2.4-2.4-5.6-3.7-9-3.7H1189c-3.4,0-6.6,1.3-9,3.7
			l-22.9,22.9c-1.4,1.4-1.6,3.5-0.7,5.1l-4.5,4.5l1.6,1.6l4.6-4.6c1.6,0.9,3.6,0.6,5-0.7l18.7-18.7c0.3-0.3,0.8-0.5,1.3-0.5
			c1,0,1.8,0.8,1.8,1.8v30.2h26.5v-30.2c0-1,0.8-1.8,1.8-1.8c0.5,0,0.9,0.2,1.3,0.5l18.7,18.7c1.4,1.4,3.4,1.6,5,0.7l4.6,4.6
			l1.6-1.6L1239.8,324.2z"/>
		<g>
			<path fill="#AEA5BF" d="M635.7,313.9c5.4,0,9.7-4.4,9.7-9.7c0-5.4-4.4-9.7-9.7-9.7c-5.4,0-9.7,4.4-9.7,9.7
				C625.9,309.6,630.3,313.9,635.7,313.9z"/>
			<path fill="#AEA5BF" d="M654.6,284.6v-6.4h-2.3v6.4c-1.8,0.5-3.1,2.1-3.1,4.1v27.7c-0.4,0-22.6-0.1-22.6-0.1
				c-3.4,0-6.6,1.3-9,3.7l-22.9,22.9c-1.4,1.4-1.6,3.4-0.7,5.1l-4.5,4.5l1.6,1.6l4.5-4.5c1.6,0.9,3.7,0.7,5.1-0.7l18.7-18.7
				c0.3-0.3,0.8-0.5,1.3-0.5h0c1,0,1.8,0.8,1.8,1.8v30.2h26.7v-30.7c0-0.7,0.5-1.2,1.2-1.2l7.3,0v-41.1
				C657.7,286.7,656.4,285.1,654.6,284.6z"/>
		</g>
		<g>
			<path fill="#AEA5BF" d="M648,88.1h-25.5V60.5c0-1.9-1.3-3.6-3.1-4.1V50h-2.3v6.4c-1.8,0.5-3.1,2.1-3.1,4.1v41.1h7.3
				c0.6,0,1.2,0.5,1.2,1.2v30.7h26.7v-30.7c0-0.7,0.5-1.2,1.2-1.2l0,0c0.7,0,1.2,0.5,1.2,1.2V129c0,2,1.3,3.7,3.1,4.3v6.4h2.3v-6.4
				c1.8-0.5,3.1-2.1,3.1-4.1v-28.9C660.2,93.6,654.7,88.1,648,88.1z"/>
			<path fill="#AEA5BF" d="M635.7,85.7c5.4,0,9.7-4.4,9.7-9.7c0-5.4-4.4-9.7-9.7-9.7c-5.4,0-9.7,4.4-9.7,9.7
				C626,81.4,630.3,85.7,635.7,85.7z"/>
		</g>
		<g>
			<path fill="#AEA5BF" d="M453.5,133.4v-30.7c0-0.7,0.5-1.2,1.2-1.2s1.2,0.5,1.2,1.2V129c0,2,1.3,3.7,3.1,4.3v6.4h2.3v-6.4
				c1.8-0.5,3.1-2.1,3.1-4.1v-28.9c0-6.7-5.5-12.2-12.2-12.2h-25.4l-21.9-21.9c-1.4-1.4-3.4-1.6-5-0.7l-4.6-4.6l-1.6,1.6l4.6,4.6
				c-0.9,1.6-0.7,3.7,0.7,5.1l27.8,27.8v33.4H453.5z"/>
			<path fill="#AEA5BF" d="M439.9,85.7c5.4,0,9.7-4.4,9.7-9.7c0-5.4-4.4-9.7-9.7-9.7c-5.4,0-9.7,4.4-9.7,9.7
				C430.2,81.3,434.6,85.7,439.9,85.7z"/>
		</g>
		<g>
			<path fill="#AEA5BF" d="M487.8,337.8c-0.5-1.7-2.2-3-4.1-3h-57.1v-27.7c0-1.9-1.3-3.6-3.1-4.1v-6.4h-2.3v6.4
				c-1.8,0.5-3.1,2.1-3.1,4.1v41.1h7.3c0.6,0,1.2,0.5,1.2,1.2v30.7h26.7v-35.6c0-0.6,0.5-1.2,1.2-1.2h29.2c2,0,3.7-1.4,4.1-3.2h6.5
				v-2.3H487.8z"/>
			<path fill="#AEA5BF" d="M439.9,332.4c5.4,0,9.7-4.4,9.7-9.7c0-5.4-4.4-9.7-9.7-9.7c-5.4,0-9.7,4.4-9.7,9.7
				C430.2,328,434.5,332.4,439.9,332.4z"/>
		</g>
	</g>
	<g>
		<polygon fill="#BB837F" points="494.4,337.8 525,372.4 525,337.8 		"/>
		<polygon fill="#E5CE97" points="494.4,337.8 494.4,372.4 525,372.4 		"/>
	</g>
	<g>
		<polygon fill="#E5CE97" points="389,266 389,296.6 423.6,296.6 		"/>
		<polygon fill="#BB837F" points="423.6,266 389,266 423.6,296.6 		"/>
	</g>
	<g>
		<polygon fill="#BB837F" points="298.3,139.7 263.7,170.3 298.3,170.3 		"/>
		<polygon fill="#E5CE97" points="298.3,139.7 263.7,139.7 263.7,170.3 		"/>
	</g>
	<g>
		<polygon fill="#E5CE97" points="192.2,125.8 222.8,125.8 222.8,91.2 		"/>
		<polygon fill="#BB837F" points="192.2,91.2 192.2,125.8 222.8,91.2 		"/>
	</g>
	<g>
		<polygon fill="#BB837F" points="108.1,139.7 73.5,170.3 108.1,170.3 		"/>
		<polygon fill="#E5CE97" points="108.1,139.7 73.5,139.7 73.5,170.3 		"/>
	</g>
	<g>
		<polygon fill="#E5CE97" points="43.3,170.5 65,148.8 40.5,124.4 		"/>
		<polygon fill="#BB837F" points="18.9,146 43.3,170.5 40.5,124.4 		"/>
	</g>
</g>
<g id="Layer_2">
</g>
<g id="Layer_3">
</g>
</svg>
