<svg enable-background="new 0 0 237 256" height="256" viewBox="0 0 237 256" width="237" xmlns="http://www.w3.org/2000/svg"><path d="m90.025 39.079-14.156-6.972 1.69-5.071-9.085-9.085-26.198 7.606-22.819-23.557-12.835 4.754v6.497l4.807 13.786-5.282 8.24-3.803 3.803 9.085 46.905 4.648 8.451h12.888l4.437-4.437 14.367 17.113-1.69 7.395 3.169 5.704 10.353-1.056 4.965-8.451 7.501-1.268 6.866 6.866 6.655-18.698 11.198 1.902 3.38-3.38-3.169-20.706-4.015-4.014 7.184-19.015zm-34.525 20.999c-3.806 0-6.891-3.085-6.891-6.891s3.085-6.891 6.891-6.891 6.891 3.085 6.891 6.891-3.085 6.891-6.891 6.891zm171.972 11.327 7.184-19.015-10.141-13.311-14.156-6.972 1.69-5.071-9.085-9.085-26.198 7.606-22.819-23.557-12.835 4.754v6.497l4.807 13.786-5.282 8.24-3.803 3.803 9.085 46.905 4.648 8.451h12.888l4.437-4.437 14.367 17.113-1.69 7.395 3.169 5.704 10.353-1.056 4.965-8.451 7.501-1.268 6.866 6.866 6.655-18.698 11.198 1.902 3.38-3.38-3.169-20.705zm-37.482-11.327c-3.806 0-6.891-3.085-6.891-6.891s3.085-6.891 6.891-6.891 6.891 3.085 6.891 6.891-3.085 6.891-6.891 6.891zm11.321 27.563c-3.806 0-6.891-3.085-6.891-6.891s3.085-6.891 6.891-6.891 6.891 3.085 6.891 6.891-3.086 6.891-6.891 6.891zm-111.286 85.228-14.156-6.972 1.69-5.071-9.085-9.085-26.198 7.605-22.819-23.557-12.835 4.754v6.497l4.807 13.786-5.282 8.24-3.803 3.803 9.085 46.904 4.648 8.452h12.888l4.437-4.437 14.367 17.113-1.69 7.395 3.168 5.704 10.353-1.056 4.965-8.451 7.501-1.268 6.866 6.866 6.655-18.698 11.198 1.902 3.38-3.38-3.169-20.705-4.015-4.014 7.184-19.015zm-66.025 16.162c-3.806 0-6.891-3.085-6.891-6.891s3.085-6.891 6.891-6.891 6.891 3.085 6.891 6.891-3.085 6.891-6.891 6.891zm31.5 4.908c-3.806 0-6.891-3.085-6.891-6.891s3.085-6.891 6.891-6.891 6.891 3.085 6.891 6.891-3.085 6.891-6.891 6.891zm11.32 27.563c-3.806 0-6.891-3.085-6.891-6.891s3.085-6.891 6.891-6.891 6.891 3.085 6.891 6.891-3.085 6.891-6.891 6.891zm157.695-48.633-14.156-6.972 1.69-5.071-9.085-9.085-26.198 7.605-22.819-23.557-12.835 4.754v6.497l4.807 13.786-5.282 8.24-3.803 3.803 9.085 46.904 4.648 8.452h12.888l4.437-4.437 14.367 17.113-1.69 7.395 3.169 5.704 10.353-1.056 4.965-8.451 7.501-1.268 6.866 6.866 6.655-18.698 11.198 1.902 3.38-3.38-3.169-20.705-4.015-4.014 7.184-19.015zm-66.025 16.162c-3.806 0-6.891-3.085-6.891-6.891s3.085-6.891 6.891-6.891 6.891 3.085 6.891 6.891-3.085 6.891-6.891 6.891zm23.01 25.58c-3.806 0-6.891-3.085-6.891-6.891s3.085-6.891 6.891-6.891 6.891 3.085 6.891 6.891-3.085 6.891-6.891 6.891zm8.49-20.672c-3.806 0-6.891-3.085-6.891-6.891s3.085-6.891 6.891-6.891 6.891 3.085 6.891 6.891-3.085 6.891-6.891 6.891zm11.321 27.563c-3.806 0-6.891-3.085-6.891-6.891s3.085-6.891 6.891-6.891 6.891 3.085 6.891 6.891c-.001 3.806-3.086 6.891-6.891 6.891z"/></svg>