<svg xmlns="http://www.w3.org/2000/svg" width="256" height="256" viewBox="0 0 256 256"><title>icon</title><path d="M146.2,151.5l13.9,13.9L174,151.5h60.6V141H173.2l-13.1-13.1L146.9,141H130.2V114.4h42.2V103.9H130.2v-27h11.5L154.8,90,168,76.9h51.3V66.3H168.7L154.8,52.4,140.9,66.3H130.2V50.4l11.4-11.5h17.9V28.4H139.7l-10-10V2.1h-5.2V18.6L114.2,28.8H89.9V39.3h23.2l11.9,12v15H86.4V76.9H125v27h-5.1L106.4,90.3,92.8,103.9H39.5v10.5H92.8l13.6,13.5,13.5-13.5H125V141H81v10.5h44v27.4H109.7L96.6,165.8,83.4,178.9H37.3v10.5H82.7l13.9,13.9,13.9-13.9H125v27H83.1v10.5H125v25.9h5.2V226.9h5.3L149,240.5l13.5-13.6h46.1V216.4H162.5L149,202.9l-13.5,13.5h-5.3v-27h26.7V178.9H130.2V151.5Zm8.6-88.4,8.2,8.1-8.2,8.2-8.1-8.2ZM127.2,26.5l8.1,8.1L128,41.9h-1.7L119,34.6ZM98.9,109.8v-1.4l7.5-7.4,6.6,6.6v3l-6.6,6.7Z"/></svg>