<svg enable-background="new 0 0 1268 418" viewBox="0 0 1268 418" xmlns="http://www.w3.org/2000/svg"><text fill="#ccc" font-family="'RobotoMono-Regular'" font-size="15.2347" transform="translate(902.9058 21.7715)">2018</text><text fill="#ccc" font-family="'RobotoMono-Regular'" font-size="15.2347" transform="translate(902.9058 51.7339)">2017</text><text fill="#ccc" font-family="'RobotoMono-Regular'" font-size="15.2347" transform="translate(902.9058 79.5361)">2016</text><text fill="#ccc" font-family="'RobotoMono-Regular'" font-size="15.2347" transform="translate(902.9058 110.8125)">2015</text><text fill="#ccc" font-family="'RobotoMono-Regular'" font-size="15.2347" transform="translate(902.9058 139.3662)">2014</text><path d="m606.7 76.6h14.1v27.2h-14.1z" fill="#404059"/><path d="m606.7 105.6h14.1v27.2h-14.1z" fill="#595972"/><path d="m606.7 134.6h14.1v27.2h-14.1z" fill="#6b6b84"/><path d="m606.7 163.7h14.1v27.2h-14.1z" fill="#c9c9e2"/><path d="m606.7 192.4h14.1v27.2h-14.1z" fill="#e9e9ff"/><path d="m606.7 221.5h14.1v27.2h-14.1z" fill="#e6e6ff"/><path d="m606.7 250.7h14.1v27.2h-14.1z" fill="#a8a8c1"/><path d="m606.7 279.7h14.1v27.2h-14.1z" fill="#74748d"/><path d="m606.7 308.7h14.1v27.2h-14.1z" fill="#43435c"/><text fill="#ccc" font-family="'RobotoMono-Regular'" font-size="15.028" transform="translate(630.0677 76.624)">150</text><text fill="#ccc" font-family="'RobotoMono-Regular'" font-size="15.028" transform="translate(630.0677 168.5771)">100</text><text fill="#ccc" font-family="'RobotoMono-Regular'" font-size="15.028" transform="translate(630.0677 254.6123)">50</text><text fill="#ccc" font-family="'RobotoMono-Regular'" font-size="15.028" transform="translate(630.0677 342.8086)">0</text><path d="m947.5 7.2c0-1.6 1.3-2.8 2.8-2.8h.1c76.4 1.9 144.8 47.6 175.8 117.5.6 1.4 0 3-1.3 3.6h-.1-.1l-19.3 8c-1.4.6-3 0-3.6-1.4-26.8-60.1-85.8-99.5-151.6-101.3-1.5-.1-2.7-1.3-2.7-2.8z" fill="#777790"/><path d="m1126.2 129.2c1.4-.5 3 .1 3.7 1.5 27.5 71.3 11.5 152.1-41.2 207.4-1.1 1.1-2.8 1.1-3.9.1h-.1l-14.7-14.7c-1-1.1-1.1-2.7-.1-3.9 45.3-47.8 59.2-117.3 35.6-178.8-.5-1.4.1-3 1.5-3.6z" fill="#777790"/><path d="m1081.8 340.9c1.1 1 1.1 2.8.1 3.9 0 0-.1.1-.1.1h-.1c-55.3 52.7-136.1 68.8-207.4 41.2-1.4-.6-2.1-2.1-1.6-3.6l8-19.3c.6-1.4 2.1-2.1 3.5-1.5 61.5 23.5 131 9.7 178.7-35.6 1.1-1 2.8-1 3.9.1z" fill="#e9e9ff"/><path d="m869.3 381c-.6 1.4-2.2 2.1-3.7 1.5h-.1c-69.9-30.9-115.7-99.4-117.5-175.8 0-1.5 1.2-2.8 2.7-2.8h20.9c1.5 0 2.7 1.2 2.8 2.7 1.8 65.8 41.2 124.7 101.3 151.6 1.4.6 2 2.2 1.4 3.6z" fill="#c5c5de"/><path d="m947.2 36.4c0-1.6 1.3-2.8 2.8-2.8h.1c64.8 1.7 122.9 40.5 149.2 99.7.6 1.4 0 3-1.3 3.6h-.1-.1l-19.3 8c-1.4.6-3 0-3.6-1.4-22.3-49.4-70.8-81.9-125-83.5-1.5-.1-2.7-1.3-2.7-2.8z" fill="#f2f2ff"/><path d="m1099 140.1c1.4-.5 3 .1 3.7 1.5 23.2 60.5 9.6 129-35 176-1.1 1.1-2.8 1.1-3.9.1h-.1l-14.7-14.7c-1-1.1-1.1-2.7-.1-3.9 37.2-39.5 48.6-96.8 29.3-147.5-.5-1.4.1-3 1.5-3.6z" fill="#595972"/><path d="m1061.4 320.1c1.1 1 1.1 2.8.1 3.9 0 0-.1.1-.1.1h-.1c-47 44.6-115.5 58.2-176 35-1.4-.6-2.1-2.1-1.6-3.6l8-19.3c.6-1.4 2.1-2.1 3.5-1.5 50.7 19.2 107.9 7.8 147.5-29.3 1.1-1 2.8-1 3.9.1z" fill="#b9b9d2"/><path d="m880.7 354.2c-.6 1.4-2.2 2.1-3.7 1.5-59.2-26.4-98-84.5-99.7-149.2-.1-1.5 1.1-2.8 2.6-2.8h.1 21c1.5 0 2.7 1.2 2.8 2.7 1.7 54.2 34.1 102.7 83.5 125 1.4.6 2 2.2 1.4 3.6z" fill="#43435c"/><path d="m946.9 65.6c0-1.6 1.3-2.8 2.8-2.8h.1c53.2 1.7 100.8 33.5 122.7 82 .6 1.4 0 3-1.3 3.6h-.1-.1l-19.3 8.1c-1.4.6-3 0-3.6-1.4-17.7-38.8-55.8-64.2-98.4-65.7-1.5-.1-2.7-1.3-2.7-2.8z" fill="#c5c5de"/><path d="m1072 151c1.4-.5 3 .1 3.7 1.5 18.9 49.7 7.7 105.9-28.7 144.6-1.1 1.1-2.8 1.1-3.9.1h-.1l-14.7-14.7c-1-1.1-1.1-2.7-.1-3.9 29.1-31.2 38-76.2 23.1-116.2-.5-1.4.1-3 1.5-3.6z" fill="#777790"/><path d="m1041 299.2c1.1 1 1.1 2.8.1 3.9 0 0-.1.1-.1.1h-.1c-38.8 36.5-94.9 47.6-144.6 28.7-1.4-.6-2.1-2.1-1.6-3.6l8-19.3c.6-1.4 2.1-2.1 3.5-1.5 40 14.9 84.9 5.9 116.2-23.1 1.1-1 2.8-1 3.9.1z" fill="#e9e9ff"/><path d="m892.2 327.3c-.6 1.4-2.2 2.1-3.7 1.5h-.1c-48.5-21.8-80.3-69.5-81.9-122.7 0-1.5 1.2-2.8 2.7-2.9h20.9c1.5 0 2.7 1.2 2.8 2.7 1.5 42.6 26.9 80.7 65.7 98.4 1.4.6 2 2.2 1.4 3.6z" fill="#b9b9d2"/><path d="m946.6 94.8c0-1.6 1.3-2.8 2.8-2.8h.1c41.6 1.5 78.8 26.3 96.1 64.2.6 1.4 0 3-1.3 3.6h-.1-.1l-19.3 8c-1.4.6-3 0-3.6-1.4-13.2-28.2-40.9-46.7-71.9-48.1-1.5-.1-2.6-1.3-2.6-2.8z" fill="#6f6f88"/><path d="m1044.8 161.9c1.4-.5 3 .1 3.7 1.5 14.6 39 5.8 82.8-22.5 113.3-1 1.1-2.7 1.2-3.8.2 0 0-.1-.1-.1-.1h-.1l-14.7-14.7c-1-1.1-1.1-2.7-.1-3.9 21-22.9 27.5-55.6 16.9-84.8-.5-1.4.2-2.9 1.6-3.5z" fill="#404059"/><path d="m1020.5 278.3c1.1 1 1.1 2.8.1 3.9 0 0-.1.1-.1.1h-.1c-30.4 28.4-74.3 37.1-113.3 22.5-1.4-.6-2.1-2.1-1.6-3.6l8-19.3c.6-1.4 2.1-2.1 3.5-1.6 29.2 10.6 61.9 4.1 84.8-16.9 1.1-1 2.8-.9 3.9.1z" fill="#b9b9d2"/><path d="m903.7 300.4c-.6 1.4-2.2 2.1-3.7 1.5h-.1c-37.8-17.3-62.6-54.5-64.2-96.1-.1-1.6 1.2-2.9 2.7-2.9h20.9c1.5 0 2.7 1.1 2.8 2.6 1.4 31.1 19.9 58.8 48.1 71.9 1.3.6 1.9 2.2 1.4 3.6z" fill="#777790"/><path d="m946.3 124.1c0-1.6 1.3-2.8 2.8-2.8h.1c30 1.3 56.7 19.2 69.4 46.4.7 1.4.1 3-1.3 3.6 0 0 0 0-.1 0s-.1 0-.1.1l-19.3 8c-1.4.6-2.9 0-3.6-1.3-8.6-17.5-25.9-29.1-45.4-30.3-1.5-.1-2.6-1.3-2.6-2.8z" fill="#b9b9d2"/><path d="m1017.8 172.8c1.4-.5 3 .1 3.7 1.5 10.2 28.2 4 59.7-16.2 81.9-1 1.1-2.8 1.2-3.9.2h-.1l-14.7-14.7c-1-1.1-1.1-2.7-.1-3.9 12.9-14.6 17-35.1 10.6-53.5-.5-1.4.2-2.9 1.6-3.5z" fill="#c5c5de"/><path d="m1000 257.4c1.1 1 1.1 2.8.1 3.9 0 0-.1.1-.1.1h-.1c-22.1 20.2-53.7 26.5-81.9 16.3-1.4-.6-2.1-2.1-1.7-3.6l8-19.3c.6-1.4 2.1-2.1 3.5-1.6 18.5 6.3 38.9 2.3 53.5-10.6 1.1-.9 2.8-.9 3.9.1z" fill="#6f6f88"/><path d="m915.1 273.5c-.6 1.4-2.2 2.1-3.7 1.5h-.1c-27.2-12.7-45.1-39.4-46.4-69.4-.1-1.5 1.1-2.8 2.6-2.9h20.9c1.5 0 2.7 1.1 2.8 2.6 1.2 19.5 12.8 36.8 30.3 45.4 1.3.6 1.9 2.2 1.3 3.6z" fill="#b9b9d2"/><g fill="#ccc" font-family="'RobotoMono-Regular'"><text font-size="14.5396" transform="translate(1090.6626 41.5898)">Winter</text><text font-size="14.5396" transform="translate(1126.354 311.8125)">Spring</text><text font-size="14.5396" transform="translate(978.5161 413.6611)">Summer</text><text font-size="14.5396" transform="translate(735.25 344.6865)">Autumn</text><text font-size="15.2347" transform="translate(306.2772 22.7715)">2018</text><text font-size="15.2347" transform="translate(306.2772 52.7339)">2017</text><text font-size="15.2347" transform="translate(306.2772 80.5361)">2016</text><text font-size="15.2347" transform="translate(306.2772 111.8125)">2015</text><text font-size="15.2347" transform="translate(306.2772 140.3662)">2014</text></g><path d="m290.6 8.2v20.9c0 1.5-1.2 2.8-2.7 2.8-65.9 1.7-124.8 41.1-151.7 101.2-.6 1.4-2.2 2-3.6 1.4l-19.3-8h-.1-.1c-1.4-.6-2-2.3-1.3-3.6 31.1-69.9 99.6-115.6 176-117.5h.1c1.5 0 2.8 1.3 2.7 2.8z" fill="#777790"/><path d="m131.4 138.2c1.4.6 2 2.2 1.5 3.6-23.6 61.5-9.7 131.1 35.6 178.8 1 1.1.9 2.8-.1 3.9l-14.7 14.7h-.1c-1.1 1-2.9 1-3.9-.1-52.8-55.3-68.9-136.1-41.3-207.4.6-1.4 2.2-2 3.7-1.5z" fill="#777790"/><path d="m171.3 327.3c1-1.1 2.8-1.1 3.9-.1 47.8 45.3 117.3 59.1 178.7 35.6 1.4-.6 3 .1 3.5 1.5l8 19.3c.5 1.4-.2 3-1.6 3.6-71.3 27.5-152.1 11.5-207.4-41.2h-.1s-.1-.1-.1-.1c-1-1.1-1-2.8.1-3.9z" fill="#e9e9ff"/><path d="m361 362.8c-.6-1.4 0-3 1.4-3.6 60.1-26.9 99.5-85.8 101.3-151.6.1-1.5 1.3-2.7 2.8-2.7h20.9c1.5.1 2.7 1.3 2.7 2.8-1.8 76.4-47.6 144.9-117.5 175.8h-.1c-1.4.6-3.1-.1-3.7-1.5z" fill="#c5c5de"/><path d="m290.9 37.4v20.8c0 1.5-1.2 2.8-2.7 2.8-54.2 1.6-102.7 34.1-125 83.5-.6 1.4-2.2 2-3.6 1.4l-19.3-8h-.1-.1c-1.4-.6-2-2.3-1.3-3.6 26.4-59.2 84.5-98 149.2-99.7h.1c1.6 0 2.8 1.3 2.8 2.8z" fill="#f2f2ff"/><path d="m158.5 149.1c1.4.6 2 2.2 1.5 3.6-19.3 50.7-7.9 108 29.3 147.5 1 1.1.9 2.8-.1 3.9l-14.7 14.7h-.1c-1.1 1-2.9 1-3.9-.1-44.6-47-58.2-115.5-35-176 .6-1.4 2.2-2 3.7-1.5z" fill="#595972"/><path d="m191.7 306.5c1-1.1 2.8-1.1 3.9-.1 39.5 37.1 96.7 48.5 147.5 29.3 1.4-.6 3 .1 3.5 1.5l8 19.3c.5 1.4-.2 3-1.6 3.6-60.5 23.2-129 9.6-176-35h-.1s-.1-.1-.1-.1c-1-1.1-1-2.8.1-3.9z" fill="#b9b9d2"/><path d="m349.5 335.9c-.6-1.4 0-3 1.4-3.6 49.4-22.3 81.8-70.8 83.5-125 .1-1.5 1.3-2.7 2.8-2.7h20.9.1c1.5.1 2.7 1.3 2.6 2.8-1.7 64.8-40.5 122.9-99.7 149.2h-.1c-1.4.6-3.1-.1-3.7-1.5z" fill="#43435c"/><path d="m291.2 66.6v20.9c0 1.5-1.2 2.7-2.7 2.8-42.6 1.5-80.7 27-98.4 65.7-.6 1.4-2.2 2-3.6 1.4l-19.3-8.1h-.1-.1c-1.4-.6-2-2.3-1.3-3.6 21.9-48.5 69.5-80.3 122.7-82h.1c1.6.1 2.8 1.4 2.7 2.9z" fill="#c5c5de"/><path d="m185.6 159.9c1.4.6 2 2.2 1.5 3.6-14.9 40-6 85 23.1 116.2 1 1.1.9 2.8-.1 3.9l-14.7 14.7h-.1c-1.1 1-2.9 1-3.9-.1-36.5-38.8-47.6-94.9-28.7-144.6.6-1.4 2.2-2 3.7-1.5z" fill="#777790"/><path d="m212 285.6c1-1.1 2.8-1.1 3.9-.1 31.2 29.1 76.2 38 116.2 23.1 1.4-.6 3 .1 3.5 1.5l8 19.3c.5 1.4-.2 3-1.6 3.6-49.7 18.9-105.9 7.7-144.6-28.7h-.1s-.1-.1-.1-.1c-1-1.1-1-2.8.1-3.9z" fill="#e9e9ff"/><path d="m338 309c-.6-1.4 0-3 1.4-3.6 38.8-17.7 64.3-55.8 65.7-98.4.1-1.5 1.3-2.7 2.8-2.7h20.9c1.5.1 2.7 1.4 2.7 2.9-1.6 53.2-33.4 100.8-81.9 122.7h-.1c-1.4.6-3.1-.1-3.7-1.5z" fill="#b9b9d2"/><path d="m291.5 95.8v20.7c0 1.5-1.1 2.7-2.6 2.8-31.1 1.4-58.8 19.9-71.9 48.1-.6 1.4-2.2 2-3.6 1.4l-19.3-8h-.1-.1c-1.4-.6-2-2.3-1.3-3.6 17.3-37.9 54.5-62.7 96.1-64.2h.1c1.5 0 2.8 1.3 2.7 2.8z" fill="#6f6f88"/><path d="m212.6 170.9c1.4.5 2.1 2.1 1.6 3.5-10.6 29.2-4.1 61.9 16.9 84.8 1 1.1.9 2.8-.1 3.9l-14.7 14.7h-.1s-.1.1-.1.1c-1.1 1-2.8.9-3.8-.2-28.4-30.4-37.1-74.3-22.5-113.3.6-1.4 2.2-2 3.7-1.5z" fill="#404059"/><path d="m232.5 264.5c1.1-1 2.7-1.1 3.9-.1 22.9 21 55.6 27.5 84.8 16.9 1.4-.5 2.9.2 3.5 1.6l8 19.3c.5 1.4-.2 3-1.6 3.6-39 14.6-82.8 5.8-113.3-22.5h-.1s-.1-.1-.1-.1c-1-1.1-1-2.8.1-3.9z" fill="#b9b9d2"/><path d="m326.4 282.1c-.5-1.4.1-2.9 1.4-3.6 28.2-13.2 46.7-40.9 48.1-71.9.1-1.5 1.3-2.6 2.8-2.6h20.9c1.6.1 2.8 1.4 2.7 2.9-1.5 41.6-26.3 78.7-64.2 96.1h-.1c-1.4.6-3.1-.1-3.7-1.5z" fill="#777790"/><path d="m291.9 125.1v20.9c0 1.5-1.1 2.7-2.6 2.8-19.5 1.2-36.8 12.8-45.4 30.3-.7 1.3-2.2 1.9-3.6 1.3l-19.3-8c0-.1 0-.1-.1-.1 0 0 0 0-.1 0-1.4-.7-1.9-2.3-1.3-3.6 12.7-27.2 39.4-45.1 69.4-46.4h.1c1.6-.1 2.9 1.2 2.9 2.8z" fill="#b9b9d2"/><path d="m239.7 181.8c1.4.5 2.1 2.1 1.6 3.5-6.4 18.5-2.3 38.9 10.6 53.5 1 1.1.9 2.8-.1 3.9l-14.8 14.7h-.1c-1.1 1-2.9.9-3.9-.2-20.2-22.2-26.5-53.7-16.2-81.9.6-1.4 2.2-2 3.7-1.5z" fill="#c5c5de"/><path d="m253 243.7c1.1-1 2.7-1 3.9-.1 14.6 12.9 35.1 17 53.5 10.6 1.4-.5 2.9.2 3.5 1.6l8 19.3c.5 1.4-.3 3-1.7 3.6-28.2 10.2-59.8 3.9-81.9-16.3h-.1s-.1-.1-.1-.1c-1-1.1-1-2.8.1-3.9z" fill="#6f6f88"/><path d="m315.2 255.2c-.6-1.3 0-2.9 1.3-3.6 17.6-8.5 29.2-25.9 30.3-45.4.1-1.5 1.3-2.6 2.8-2.6h20.9c1.5.1 2.7 1.4 2.6 2.9-1.3 30-19.2 56.7-46.4 69.4h-.1c-1.4.6-3.1-.1-3.7-1.5z" fill="#b9b9d2"/><text fill="#ccc" font-family="'RobotoMono-Regular'" font-size="14.5396" transform="translate(92.4979 42.5898)">Winter</text><text fill="#ccc" font-family="'RobotoMono-Regular'" font-size="14.5396" transform="translate(56.8065 312.8125)">Spring</text><text fill="#ccc" font-family="'RobotoMono-Regular'" font-size="14.5396" transform="translate(204.6443 414.6611)">Summer</text><text fill="#ccc" font-family="'RobotoMono-Regular'" font-size="14.5396" transform="translate(447.9105 345.6865)">Autumn</text></svg>