<?xml version="1.0" encoding="utf-8"?>
<!-- Generator: Adobe Illustrator 22.1.0, SVG Export Plug-In . SVG Version: 6.00 Build 0)  -->
<svg version="1.1" id="Layer_1" xmlns="http://www.w3.org/2000/svg" xmlns:xlink="http://www.w3.org/1999/xlink" x="0px" y="0px"
	 viewBox="0 0 1200 724" style="enable-background:new 0 0 1200 724;" xml:space="preserve">
<style type="text/css">
	.st0{fill:none;stroke:#BABABA;stroke-width:9.3438;stroke-miterlimit:10;}
	.st1{fill:#D5D5D5;}
	.st2{fill:#E3E3E3;}
	.st3{fill:#EBEBEB;}
	.st4{fill:#6D6D6D;}
	.st5{font-family:'RobotoMono-Regular';}
	.st6{font-size:38px;}
	.st7{font-size:46.7188px;}
	.st8{font-size:39px;}
</style>
<g>
	<line class="st0" x1="804" y1="137.9" x2="580.3" y2="336.7"/>
	<line class="st0" x1="580.3" y1="336.7" x2="416.3" y2="461.7"/>
	<line class="st0" x1="373.4" y1="476.7" x2="540.4" y2="662"/>
	<line class="st0" x1="828" y1="160" x2="1049.8" y2="282.1"/>
	<line class="st0" x1="938" y1="137.9" x2="1123" y2="63"/>
	<line class="st0" x1="344" y1="476.7" x2="132.5" y2="302.2"/>
	<line class="st0" x1="360.4" y1="501.7" x2="132.6" y2="621.1"/>
	<line class="st0" x1="152.4" y1="461.6" x2="344" y2="476.7"/>
	<path class="st1" d="M474.9,262h208c33.1,0,60,26.9,60,60v0c0,33.1-26.9,60-60,60h-208c-33.1,0-60-26.9-60-60v0
		C414.9,288.9,441.8,262,474.9,262z"/>
	<path class="st2" d="M715,85.8h180.8c28.8,0,52.2,23.4,52.2,52.2v0c0,28.8-23.4,52.2-52.2,52.2H715c-28.8,0-52.2-23.4-52.2-52.2v0
		C662.9,109.1,686.2,85.8,715,85.8z"/>
	<path class="st2" d="M270,424.6h180.8c28.8,0,52.2,23.4,52.2,52.2v0c0,28.8-23.4,52.2-52.2,52.2H270c-28.8,0-52.2-23.4-52.2-52.2v0
		C217.9,447.9,241.2,424.6,270,424.6z"/>
	<path class="st3" d="M1090,262h30c33.1,0,60,26.9,60,60v0c0,33.1-26.9,60-60,60h-30c-33.1,0-60-26.9-60-60v0
		C1030,288.9,1056.9,262,1090,262z"/>
	<path class="st3" d="M1108,3h30c33.1,0,60,26.9,60,60v0c0,33.1-26.9,60-60,60h-30c-33.1,0-60-26.9-60-60v0
		C1048,29.9,1074.9,3,1108,3z"/>
	<path class="st3" d="M62,602h30c33.1,0,60,26.9,60,60v0c0,33.1-26.9,60-60,60H62c-33.1,0-60-26.9-60-60v0C2,628.9,28.9,602,62,602z
		"/>
	<path class="st3" d="M530,602h26c33.1,0,60,26.9,60,60v0c0,33.1-26.9,60-60,60h-26c-33.1,0-60-26.9-60-60v0
		C470,628.9,496.9,602,530,602z"/>
	<path class="st3" d="M62,402h30c33.1,0,60,26.9,60,60v0c0,33.1-26.9,60-60,60H62c-33.1,0-60-26.9-60-60v0C2,428.9,28.9,402,62,402z
		"/>
	<path class="st3" d="M62,202h30c33.1,0,60,26.9,60,60v0c0,33.1-26.9,60-60,60H62c-33.1,0-60-26.9-60-60v0C2,228.9,28.9,202,62,202z
		"/>
	<g>
		<text transform="matrix(1 0 0 1 28.8208 274.1242)" class="st4 st5 st6">idea</text>
	</g>
	<g>
		<text transform="matrix(1 0 0 1 1076.7231 77.9055)" class="st4 st5 st6">idea</text>
	</g>
	<g>
		<text transform="matrix(1 0 0 1 1058.7231 336.7277)" class="st4 st5 st6">idea</text>
	</g>
	<g>
		<text transform="matrix(1 0 0 1 494.815 679.9552)" class="st4 st5 st6">idea</text>
	</g>
	<g>
		<text transform="matrix(1 0 0 1 28.8208 476.7277)" class="st4 st5 st6">idea</text>
	</g>
	<g>
		<text transform="matrix(1 0 0 1 28.8208 679.9553)" class="st4 st5 st6">idea</text>
	</g>
	<g>
		<text transform="matrix(1 0 0 1 438.7537 336.7277)" class="st4 st5 st7">main topic</text>
	</g>
	<g>
		<text transform="matrix(1 0 0 1 700.1155 149.7192)" class="st4 st5 st8">sub-topic</text>
	</g>
	<g>
		<text transform="matrix(1 0 0 1 255.1159 486.3947)" class="st4 st5 st8">sub-topic</text>
	</g>
</g>
</svg>
