<?xml version="1.0" encoding="utf-8"?>
<!-- Generator: Adobe Illustrator 19.2.0, SVG Export Plug-In . SVG Version: 6.00 Build 0)  -->
<svg version="1.1" id="Layer_1" xmlns="http://www.w3.org/2000/svg" xmlns:xlink="http://www.w3.org/1999/xlink" x="0px" y="0px"
	 width="1200px" height="724px" viewBox="0 0 1200 724" enable-background="new 0 0 1200 724" xml:space="preserve">
<g>
	
		<line fill="none" stroke="#7581BA" stroke-width="9.3438" stroke-miterlimit="10" x1="659.8" y1="302.154" x2="540.317" y2="421.637"/>
	
		<line fill="none" stroke="#7581BA" stroke-width="9.3438" stroke-miterlimit="10" x1="540.262" y1="501.581" x2="659.8" y2="620.932"/>
	
		<line fill="none" stroke="#7581BA" stroke-width="9.3438" stroke-miterlimit="10" x1="947.899" y1="302.154" x2="1067.81" y2="422.066"/>
	
		<line fill="none" stroke="#7581BA" stroke-width="9.3438" stroke-miterlimit="10" x1="947.899" y1="222.421" x2="1067.343" y2="102.977"/>
	
		<line fill="none" stroke="#7581BA" stroke-width="9.3438" stroke-miterlimit="10" x1="252.932" y1="422.585" x2="132.501" y2="302.154"/>
	
		<line fill="none" stroke="#7581BA" stroke-width="9.3438" stroke-miterlimit="10" x1="251.942" y1="501.663" x2="132.579" y2="621.088"/>
	
		<line fill="none" stroke="#7581BA" stroke-width="9.3438" stroke-miterlimit="10" x1="152.434" y1="461.621" x2="239.643" y2="461.621"/>
	<rect x="232" y="402" fill="#939FD5" width="328" height="120"/>
	<rect x="640" y="202" fill="#AFB8E3" width="328" height="120"/>
	<rect x="1048" y="402" fill="#C8CDEB" width="150" height="120"/>
	<rect x="1048" y="3" fill="#C8CDEB" width="150" height="120"/>
	<rect x="2" y="602" fill="#C8CDEB" width="150" height="120"/>
	<rect x="640" y="602" fill="#C8CDEB" width="146" height="120"/>
	<rect x="2" y="402" fill="#C8CDEB" width="150" height="120"/>
	<rect x="2" y="202" fill="#C8CDEB" width="150" height="120"/>
	<g>
		<text transform="matrix(1 0 0 1 32.4282 274.1242)" fill="#37246D" font-family="'Roboto-Medium'" font-size="46.7188px">idea</text>
	</g>
	<g>
		<text transform="matrix(1 0 0 1 1080.3306 77.9055)" fill="#37246D" font-family="'Roboto-Medium'" font-size="46.7188px">idea</text>
	</g>
	<g>
		<text transform="matrix(1 0 0 1 1080.3306 476.7277)" fill="#37246D" font-family="'Roboto-Medium'" font-size="46.7188px">idea</text>
	</g>
	<g>
		<text transform="matrix(1 0 0 1 668.4224 679.9562)" fill="#37246D" font-family="'Roboto-Medium'" font-size="46.7188px">idea</text>
	</g>
	<g>
		<text transform="matrix(1 0 0 1 32.4282 476.7277)" fill="#37246D" font-family="'Roboto-Medium'" font-size="46.7188px">idea</text>
	</g>
	<g>
		<text transform="matrix(1 0 0 1 32.4282 679.9543)" fill="#37246D" font-family="'Roboto-Medium'" font-size="46.7188px">idea</text>
	</g>
	<g>
		<text transform="matrix(1 0 0 1 325.3486 476.7277)" fill="#37246D" font-family="'Roboto-Medium'" font-size="46.7188px">theme</text>
	</g>
	<g>
		<text transform="matrix(1 0 0 1 707.8848 273.8137)" fill="#37246D" font-family="'Roboto-Medium'" font-size="46.7188px">category</text>
	</g>
</g>
</svg>
