<svg enable-background="new 0 0 256 256" viewBox="0 0 256 256" xmlns="http://www.w3.org/2000/svg"><path d="m80.7 122.6h62.9v12.9h-62.9zm138.9 86.2c-2.4-.3-4.9-.4-7.4-.4-1.4 0-2.7 0-4.1.1l-5.8-5-45.7-40c18.2-8 29.9-20.8 29.9-35.1 0-12.9-9.4-24.5-24.4-32.4l14.6-13.5c6.8 7.3 20.4 12.2 36 12.2 22.6 0 40.9-10.3 40.9-23.1s-18.3-23.1-40.9-23.1-40.9 10.3-40.9 23.1c0 1 .1 1.9.3 2.9l-18.7 17.4c-11.7-4.6-25.9-7.3-41.2-7.3-6 0-11.8.4-17.5 1.2l-10.8-39.4c8.7-2.4 15.7-6.5 19.5-11.5l2.5-4.6c.5-1.5.8-3 .8-4.6 0-12.8-18.3-23.1-40.9-23.1s-40.6 10.2-40.6 23c0 7.9 7 15 17.8 19.1l6.2 2c5.1 1.3 10.7 2 16.8 2 3.2 0 6.2-.2 9.2-.6l10.6 39.2c-28.1 6.2-48.1 22.3-48.1 41.1 0 13 9.5 24.6 24.6 32.6l-20.2 12.6c-21.5.6-38.7 10.7-38.7 23.1 0 10.3 12 19.1 28.5 22l-6.5 10.8c-.6 0-1.3 0-1.9 0-.8 0-1.5 0-2.2.1l-6.3.9c-8 1.9-13.6 6.3-13.6 11.6 0 .6.1 1.2.2 1.8 1.6 6 10.7 10.7 21.8 10.7 12.2 0 22.1-5.6 22.1-12.5 0-5.4-6.1-10.1-14.7-11.8l6.5-10.8c2.3.2 4.6.3 7 .3 11.5 0 21.9-2.7 29.3-7l.3-.2 13.4 9.1c-3.7 2.2-5.9 5.2-5.9 8.5 0 6.9 9.9 12.5 22.1 12.5s22.1-5.6 22.1-12.5-9.9-12.5-22.1-12.5c-3.9 0-7.6.6-10.7 1.6l-14.4-9.8.3-.2c4.1-3.6 6.5-7.9 6.5-12.6 0-10.2-11.6-18.9-27.8-21.9l15-9.3c11.5 4.3 25.2 6.8 39.9 6.8 12.7 0 24.5-1.9 34.9-5.1l41.2 35.9 8.1 7.1c-14.8 3.5-25.1 11.7-25.1 21.4 0 1.1.2 2.3.4 3.3 2.9 11.1 19.9 19.8 40.4 19.8 22.6 0 40.9-10.3 40.9-23.1-.1-11.3-14.5-20.8-33.5-22.8zm-28.7-140h43.4v6.4h-43.4zm-146.6-39.5v-6.4h43.4v6.4zm-9.8 210.5v3.5h-8-15.5v-3.5h20.2zm57.2-11.3h23.4v3.5h-23.4zm-25.7-34.7v6.4h-43.4v-6.4zm46.1-44.6c-33.3 0-51.4-14.8-51.4-20.9 0-6 18-20.9 51.4-20.9s51.4 14.9 51.4 20.9c0 6.1-17.9 20.9-51.4 20.9zm120.5 84.6h-14.9-28.5v-6.4h37.5 5.9z"/></svg>