<?xml version="1.0" encoding="utf-8"?>
<!-- Generator: Adobe Illustrator 22.1.0, SVG Export Plug-In . SVG Version: 6.00 Build 0)  -->
<svg version="1.1" id="Layer_1" xmlns="http://www.w3.org/2000/svg" xmlns:xlink="http://www.w3.org/1999/xlink" x="0px" y="0px"
	 viewBox="0 0 800 800" style="enable-background:new 0 0 800 800;" xml:space="preserve">
<style type="text/css">
	.st0{fill:#514361;}
	.st1{font-family:'RobotoMono-Regular';}
	.st2{font-size:28px;}
	.st3{fill:none;}
	.st4{font-family:'Roboto-Italic';}
	.st5{font-size:18px;}
	.st6{fill:#A5A5B9;}
	.st7{font-size:16px;}
	.st8{fill:none;stroke:#A8A8A8;stroke-miterlimit:10;}
	.st9{fill:none;stroke:#000000;stroke-width:2;stroke-miterlimit:10;}
	.st10{fill:#FFFFFF;stroke:#000000;stroke-width:2;stroke-miterlimit:10;}
	.st11{stroke:#000000;stroke-width:2;stroke-miterlimit:10;}
	.st12{opacity:0.8;}
	.st13{opacity:0.8;fill:none;stroke:#AAAAAA;stroke-linecap:round;stroke-miterlimit:10;stroke-dasharray:0,9;}
	.st14{fill:none;stroke:#AAAAAA;stroke-width:2;stroke-linecap:round;stroke-miterlimit:10;}
	.st15{fill:#AAAAAA;}
</style>
<g>
	<text transform="matrix(1 0 0 1 12.83 739.5917)" class="st0 st1 st2">PRICE SCALE</text>
</g>
<g>
	<text transform="matrix(1 0 0 1 370.8857 736.6002)" class="st0 st1 st2">TIME</text>
</g>
<g>
	<text transform="matrix(1 0 0 1 321.3882 143.5996)" class="st0 st1 st2">HIGH</text>
</g>
<g>
	<rect x="298.6" y="747.3" class="st3" width="136.2" height="48.3"/>
	<text transform="matrix(1 0 0 1 299.4785 760.7836)"><tspan x="0" y="0" class="st0 st4 st5">usually in days or </tspan><tspan x="75.6" y="21.6" class="st0 st4 st5">months</tspan></text>
</g>
<g>
	<rect x="281.3" y="155.9" class="st3" width="136.2" height="48.3"/>
	<text transform="matrix(1 0 0 1 298.9094 169.429)" class="st0 st4 st5">highest price </text>
</g>
<g>
	<text transform="matrix(1 0 0 1 337.6309 561.416)" class="st0 st1 st2">LOW</text>
</g>
<g>
	<rect x="293.3" y="573.7" class="st3" width="136.2" height="48.3"/>
	<text transform="matrix(1 0 0 1 313.9289 587.2454)" class="st0 st4 st5">lowest price </text>
</g>
<g>
	<rect x="471.3" y="112.4" class="st3" width="227.7" height="48.3"/>
	<text transform="matrix(1 0 0 1 490.4587 125.9493)" class="st0 st4 st5">often shown in red color</text>
</g>
<g>
	<text transform="matrix(1 0 0 1 209.7968 411.0356)" class="st0 st1 st2">OPEN</text>
</g>
<g>
	<rect x="209.8" y="423.4" class="st3" width="136.2" height="48.3"/>
	<text transform="matrix(1 0 0 1 209.797 436.865)" class="st0 st4 st5">opening price </text>
</g>
<g>
	<text transform="matrix(1 0 0 1 209.7968 261.6856)" class="st0 st1 st2">CLOSE</text>
</g>
<g>
	<text transform="matrix(1 0 0 1 96.9526 64.0002)"><tspan x="0" y="0" class="st0 st1 st2">INCREASING</tspan><tspan x="40.6" y="33.6" class="st0 st1 st2">PRICE</tspan></text>
</g>
<g>
	<text transform="matrix(1 0 0 1 457.917 64.0002)"><tspan x="0" y="0" class="st0 st1 st2">DECREASING</tspan><tspan x="40.6" y="33.6" class="st0 st1 st2">PRICE</tspan></text>
</g>
<g>
	<rect x="209.8" y="274" class="st3" width="136.2" height="48.3"/>
	<text transform="matrix(1 0 0 1 209.797 287.515)"><tspan x="0" y="0" class="st0 st4 st5">closing </tspan><tspan x="0" y="21.6" class="st0 st4 st5">price </tspan></text>
</g>
<g>
	<text transform="matrix(1 0 0 1 429.3208 411.0356)" class="st0 st1 st2">CLOSE</text>
</g>
<g>
	<rect x="374.3" y="423.4" class="st3" width="136.2" height="48.3"/>
	<text transform="matrix(1 0 0 1 453.9147 436.865)"><tspan x="0" y="0" class="st0 st4 st5">closing</tspan><tspan x="13.4" y="21.6" class="st0 st4 st5"> price </tspan></text>
</g>
<g>
	<text transform="matrix(1 0 0 1 445.5625 261.6856)" class="st0 st1 st2">OPEN</text>
</g>
<g>
	<rect x="374.3" y="274" class="st3" width="136.2" height="48.3"/>
	<text transform="matrix(1 0 0 1 447.6129 287.515)"><tspan x="0" y="0" class="st0 st4 st5">opening</tspan><tspan x="19.7" y="21.6" class="st0 st4 st5"> price</tspan></text>
</g>
<g>
	<g>
		<text transform="matrix(1 0 0 1 42.3192 652.0542)" class="st6 st1 st7">0</text>
		<text transform="matrix(1 0 0 1 164.832 652.0542)" class="st6 st1 st7">Jan</text>
		<text transform="matrix(1 0 0 1 285.1853 652.0542)" class="st6 st1 st7">Feb</text>
		<text transform="matrix(1 0 0 1 405.5388 652.0542)" class="st6 st1 st7">Mar</text>
		<text transform="matrix(1 0 0 1 525.8916 652.0542)" class="st6 st1 st7">Apr</text>
		<text transform="matrix(1 0 0 1 639.01 652.0542)" class="st6 st1 st7">May</text>
	</g>
	<line class="st8" x1="57.9" y1="629.5" x2="659.7" y2="629.5"/>
	<g>
		<g>
			<line class="st8" x1="57.9" y1="629.5" x2="57.9" y2="614.5"/>
			<line class="st8" x1="178.3" y1="629.5" x2="178.3" y2="614.5"/>
			<line class="st8" x1="298.6" y1="629.5" x2="298.6" y2="614.5"/>
			<line class="st8" x1="419" y1="629.5" x2="419" y2="614.5"/>
			<line class="st8" x1="539.4" y1="629.5" x2="539.4" y2="614.5"/>
			<line class="st8" x1="659.7" y1="629.5" x2="659.7" y2="614.5"/>
		</g>
	</g>
</g>
<g>
	<g>
		<text transform="matrix(1 0 0 1 29.6058 513.7192)" class="st6 st1 st7">20</text>
		<text transform="matrix(1 0 0 1 29.6058 393.3667)" class="st6 st1 st7">40</text>
		<text transform="matrix(1 0 0 1 29.6058 273.0132)" class="st6 st1 st7">60</text>
		<text transform="matrix(1 0 0 1 29.6058 152.6597)" class="st6 st1 st7">80</text>
		<text transform="matrix(1 0 0 1 18.1356 32.3062)" class="st6 st1 st7">100</text>
	</g>
	<line class="st8" x1="57.9" y1="629.5" x2="57.9" y2="27.7"/>
	<g>
		<g>
			<line class="st8" x1="57.9" y1="629.5" x2="73" y2="629.5"/>
			<line class="st8" x1="57.9" y1="509.1" x2="73" y2="509.1"/>
			<line class="st8" x1="57.9" y1="388.8" x2="73" y2="388.8"/>
			<line class="st8" x1="57.9" y1="268.4" x2="73" y2="268.4"/>
			<line class="st8" x1="57.9" y1="148.1" x2="73" y2="148.1"/>
			<line class="st8" x1="57.9" y1="27.7" x2="73" y2="27.7"/>
		</g>
	</g>
</g>
<line class="st9" x1="178.3" y1="152.7" x2="178.3" y2="565"/>
<line class="st9" x1="539.4" y1="152.7" x2="539.4" y2="565"/>
<rect x="164.8" y="268.2" class="st10" width="27.2" height="149.3"/>
<rect x="525.8" y="268.2" class="st11" width="27.2" height="149.3"/>
<g class="st12">
	<g>
		<line class="st13" x1="42.3" y1="702.3" x2="42.3" y2="667"/>
	</g>
</g>
<g class="st12">
	<g>
		<line class="st13" x1="400" y1="702.3" x2="400" y2="667"/>
	</g>
</g>
<line class="st13" x1="200.6" y1="152.7" x2="517.1" y2="152.7"/>
<line class="st13" x1="130.6" y1="268.2" x2="598.5" y2="268.2"/>
<line class="st13" x1="130.6" y1="417.5" x2="598.5" y2="417.5"/>
<line class="st13" x1="200.6" y1="566.9" x2="517.1" y2="566.9"/>
<g>
	<g>
		<g class="st12">
			<g>
				<line class="st14" x1="130.6" y1="417.5" x2="130.6" y2="282.6"/>
				<g>
					<polygon class="st15" points="140.5,285.5 130.6,268.2 120.6,285.5 					"/>
				</g>
			</g>
		</g>
	</g>
</g>
<g class="st12">
	<g>
		<g class="st12">
			<g>
				<line class="st14" x1="586.1" y1="403.2" x2="586.1" y2="268.2"/>
				<g>
					<polygon class="st15" points="596.1,400.3 586.1,417.5 576.2,400.3 					"/>
				</g>
			</g>
		</g>
	</g>
</g>
</svg>
