<?xml version="1.0" encoding="utf-8"?>
<!-- Generator: Adobe Illustrator 22.1.0, SVG Export Plug-In . SVG Version: 6.00 Build 0)  -->
<svg version="1.1" xmlns="http://www.w3.org/2000/svg" xmlns:xlink="http://www.w3.org/1999/xlink" x="0px" y="0px"
	 viewBox="0 0 1268 418" enable-background="new 0 0 1268 418" xml:space="preserve">
<g id="Layer_1">
	<line fill="none" stroke="#8E7F96" stroke-width="2" stroke-miterlimit="10" x1="1023" y1="21" x2="1023" y2="127"/>
	<line fill="none" stroke="#8E7F96" stroke-width="2" stroke-miterlimit="10" x1="77" y1="51" x2="77" y2="177"/>
	<line fill="none" stroke="#8E7F96" stroke-width="2" stroke-miterlimit="10" x1="98" y1="73" x2="98" y2="153"/>
	<line fill="none" stroke="#8E7F96" stroke-width="2" stroke-miterlimit="10" x1="120" y1="91" x2="120" y2="255"/>
	<line fill="none" stroke="#8E7F96" stroke-width="2" stroke-miterlimit="10" x1="141" y1="51" x2="141" y2="212"/>
	<line fill="none" stroke="#8E7F96" stroke-width="2" stroke-miterlimit="10" x1="162" y1="78" x2="162" y2="153"/>
	<line fill="none" stroke="#8E7F96" stroke-width="2" stroke-miterlimit="10" x1="184" y1="2" x2="184" y2="79"/>
	<line fill="none" stroke="#8E7F96" stroke-width="2" stroke-miterlimit="10" x1="206" y1="40" x2="206" y2="190"/>
	<line fill="none" stroke="#8E7F96" stroke-width="2" stroke-miterlimit="10" x1="227" y1="113" x2="227" y2="229"/>
	<line fill="none" stroke="#8E7F96" stroke-width="2" stroke-miterlimit="10" x1="248" y1="166" x2="248" y2="282"/>
	<line fill="none" stroke="#8E7F96" stroke-width="2" stroke-miterlimit="10" x1="270" y1="106" x2="270" y2="185"/>
	<line fill="none" stroke="#8E7F96" stroke-width="2" stroke-miterlimit="10" x1="291" y1="152" x2="291" y2="240"/>
	<line fill="none" stroke="#8E7F96" stroke-width="2" stroke-miterlimit="10" x1="313" y1="240" x2="313" y2="328"/>
	<line fill="none" stroke="#8E7F96" stroke-width="2" stroke-miterlimit="10" x1="335" y1="190" x2="335" y2="304"/>
	<line fill="none" stroke="#8E7F96" stroke-width="2" stroke-miterlimit="10" x1="356" y1="155" x2="356" y2="269"/>
	<line fill="none" stroke="#8E7F96" stroke-width="2" stroke-miterlimit="10" x1="377" y1="232" x2="377" y2="359"/>
	<line fill="none" stroke="#8E7F96" stroke-width="2" stroke-miterlimit="10" x1="399" y1="266" x2="399" y2="360"/>
	<line fill="none" stroke="#8E7F96" stroke-width="2" stroke-miterlimit="10" x1="421" y1="182" x2="421" y2="276"/>
	<line fill="none" stroke="#8E7F96" stroke-width="2" stroke-miterlimit="10" x1="443" y1="170" x2="443" y2="264"/>
	<line fill="none" stroke="#8E7F96" stroke-width="2" stroke-miterlimit="10" x1="463" y1="91" x2="463" y2="185"/>
	<line fill="none" stroke="#8E7F96" stroke-width="2" stroke-miterlimit="10" x1="485" y1="130" x2="485" y2="195"/>
	<line fill="none" stroke="#8E7F96" stroke-width="2" stroke-miterlimit="10" x1="507" y1="56" x2="507" y2="232"/>
	<line fill="none" stroke="#8E7F96" stroke-width="2" stroke-miterlimit="10" x1="528" y1="115" x2="528" y2="208"/>
	<line fill="none" stroke="#8E7F96" stroke-width="2" stroke-miterlimit="10" x1="549" y1="68" x2="549" y2="161"/>
	<line fill="none" stroke="#8E7F96" stroke-width="2" stroke-miterlimit="10" x1="571" y1="81" x2="571" y2="208"/>
	<line fill="none" stroke="#8E7F96" stroke-width="2" stroke-miterlimit="10" x1="593" y1="42" x2="593" y2="138"/>
	<line fill="none" stroke="#8E7F96" stroke-width="2" stroke-miterlimit="10" x1="614" y1="96" x2="614" y2="192"/>
	<line fill="none" stroke="#8E7F96" stroke-width="2" stroke-miterlimit="10" x1="636" y1="80" x2="636" y2="176"/>
	<line fill="none" stroke="#8E7F96" stroke-width="2" stroke-miterlimit="10" x1="657" y1="64" x2="657" y2="233"/>
	<line fill="none" stroke="#8E7F96" stroke-width="2" stroke-miterlimit="10" x1="679" y1="12" x2="679" y2="122"/>
	<line fill="none" stroke="#8E7F96" stroke-width="2" stroke-miterlimit="10" x1="700" y1="41" x2="700" y2="176"/>
	<line fill="none" stroke="#8E7F96" stroke-width="2" stroke-miterlimit="10" x1="722" y1="41" x2="722" y2="153"/>
	<line fill="none" stroke="#8E7F96" stroke-width="2" stroke-miterlimit="10" x1="743" y1="52" x2="743" y2="185"/>
	<line fill="none" stroke="#8E7F96" stroke-width="2" stroke-miterlimit="10" x1="764" y1="108" x2="764" y2="179"/>
	<line fill="none" stroke="#8E7F96" stroke-width="2" stroke-miterlimit="10" x1="786" y1="93" x2="786" y2="163"/>
	<line fill="none" stroke="#8E7F96" stroke-width="2" stroke-miterlimit="10" x1="807" y1="46" x2="807" y2="139"/>
	<line fill="none" stroke="#8E7F96" stroke-width="2" stroke-miterlimit="10" x1="830" y1="195" x2="830" y2="312"/>
	<line fill="none" stroke="#8E7F96" stroke-width="2" stroke-miterlimit="10" x1="850" y1="153" x2="850" y2="229"/>
	<line fill="none" stroke="#8E7F96" stroke-width="2" stroke-miterlimit="10" x1="872" y1="174" x2="872" y2="251"/>
	<line fill="none" stroke="#8E7F96" stroke-width="2" stroke-miterlimit="10" x1="894" y1="118" x2="894" y2="211"/>
	<line fill="none" stroke="#8E7F96" stroke-width="2" stroke-miterlimit="10" x1="916" y1="57" x2="916" y2="169"/>
	<line fill="none" stroke="#8E7F96" stroke-width="2" stroke-miterlimit="10" x1="937" y1="113" x2="937" y2="196"/>
	<line fill="none" stroke="#8E7F96" stroke-width="2" stroke-miterlimit="10" x1="958" y1="21" x2="958" y2="228"/>
	<line fill="none" stroke="#8E7F96" stroke-width="2" stroke-miterlimit="10" x1="980" y1="35" x2="980" y2="111"/>
	<line fill="none" stroke="#8E7F96" stroke-width="2" stroke-miterlimit="10" x1="1001" y1="22" x2="1001" y2="109"/>
	<line fill="none" stroke="#8E7F96" stroke-width="2" stroke-miterlimit="10" x1="1044" y1="86" x2="1044" y2="247"/>
	<line fill="none" stroke="#8E7F96" stroke-width="2" stroke-miterlimit="10" x1="1066" y1="130" x2="1066" y2="241"/>
	<line fill="none" stroke="#8E7F96" stroke-width="2" stroke-miterlimit="10" x1="1087" y1="167" x2="1087" y2="236"/>
	<line fill="none" stroke="#8E7F96" stroke-width="2" stroke-miterlimit="10" x1="1109" y1="219" x2="1109" y2="308"/>
	<line fill="none" stroke="#8E7F96" stroke-width="2" stroke-miterlimit="10" x1="1131" y1="185" x2="1131" y2="292"/>
	<line fill="none" stroke="#8E7F96" stroke-width="2" stroke-miterlimit="10" x1="1152" y1="164" x2="1152" y2="271"/>
	<line fill="none" stroke="#8E7F96" stroke-width="2" stroke-miterlimit="10" x1="1173" y1="100" x2="1173" y2="236"/>
	<line fill="none" stroke="#8E7F96" stroke-width="2" stroke-miterlimit="10" x1="1195" y1="101" x2="1195" y2="166"/>
	<line fill="none" stroke="#8E7F96" stroke-width="2" stroke-miterlimit="10" x1="1217" y1="25" x2="1217" y2="146"/>
	<line fill="none" stroke="#8E7F96" stroke-width="2" stroke-miterlimit="10" x1="155" y1="91" x2="170" y2="91"/>
	<line fill="none" stroke="#8E7F96" stroke-width="2" stroke-miterlimit="10" x1="456" y1="168" x2="471" y2="168"/>
	<line fill="none" stroke="#8E7F96" stroke-width="2" stroke-miterlimit="10" x1="628" y1="112" x2="643" y2="112"/>
	<rect x="994" y="60" transform="matrix(-1 -4.771351e-11 4.771351e-11 -1 2001 148)" fill="#968BAF" width="13" height="28"/>
	<rect x="974" y="47" transform="matrix(-1 -4.617430e-11 4.617430e-11 -1 1961 105)" fill="#968BAF" width="13" height="11"/>
	<rect x="673" y="42" transform="matrix(-1 -4.533497e-11 4.533497e-11 -1 1359 104)" fill="#968BAF" width="13" height="20"/>
	<rect x="1210" y="51" transform="matrix(-1 -4.617430e-11 4.617430e-11 -1 2433 185)" fill="#C6BFCF" width="13" height="83"/>
	<rect x="1146" y="199" transform="matrix(-1 -4.533497e-11 4.533497e-11 -1 2305 435)" fill="#C6BFCF" width="13" height="37"/>
	<rect x="1080" y="212" transform="matrix(-1 -4.617430e-11 4.617430e-11 -1 2173 448)" fill="#C6BFCF" width="13" height="24"/>
	<rect x="1038" y="104" transform="matrix(-1 -4.617430e-11 4.617430e-11 -1 2089 333)" fill="#C6BFCF" width="13" height="125"/>
	<rect x="952" y="47" transform="matrix(-1 -4.617430e-11 4.617430e-11 -1 1917 235)" fill="#C6BFCF" width="13" height="141"/>
	<rect x="930" y="112" transform="matrix(-1 -4.533497e-11 4.533497e-11 -1 1873 233)" fill="#C6BFCF" width="13" height="9"/>
	<rect x="887" y="154" transform="matrix(-1 -4.617430e-11 4.617430e-11 -1 1787 357)" fill="#C6BFCF" width="13" height="49"/>
	<rect x="844" y="179" transform="matrix(-1 -4.617430e-11 4.617430e-11 -1 1701 388)" fill="#C6BFCF" width="13" height="30"/>
	<rect x="780" y="107" transform="matrix(-1 -4.533497e-11 4.533497e-11 -1 1573 259)" fill="#C6BFCF" width="13" height="45"/>
	<rect x="737" y="64" transform="matrix(-1 -4.617430e-11 4.617430e-11 -1 1487 208)" fill="#C6BFCF" width="13" height="80"/>
	<rect x="651" y="72" transform="matrix(-1 -4.617430e-11 4.617430e-11 -1 1315 266)" fill="#C6BFCF" width="13" height="122"/>
	<rect x="565" y="88" transform="matrix(-1 -4.687418e-11 4.687418e-11 -1 1143 243)" fill="#C6BFCF" width="13" height="67"/>
	<rect x="414" y="213" transform="matrix(-1 -4.687418e-11 4.687418e-11 -1 841 481)" fill="#C6BFCF" width="13" height="55"/>
	<rect x="392" y="317" transform="matrix(-1 3.162214e-11 -3.162214e-11 -1 797 664)" fill="#C6BFCF" width="13" height="30"/>
	<rect x="328" y="211" transform="matrix(-1 -6.926161e-11 6.926161e-11 -1 669 501)" fill="#C6BFCF" width="13" height="79"/>
	<rect x="285" y="166" transform="matrix(-1 -4.617430e-11 4.617430e-11 -1 583 388)" fill="#C6BFCF" width="13" height="56"/>
	<rect x="242" y="197" transform="matrix(-1 -4.617430e-11 4.617430e-11 -1 497 441)" fill="#C6BFCF" width="13" height="47"/>
	<rect x="178" y="24" transform="matrix(-1 -2.378687e-11 2.378687e-11 -1 369 78)" fill="#C6BFCF" width="13" height="30"/>
	<rect x="134" y="71" transform="matrix(-1 -4.617430e-11 4.617430e-11 -1 281 249)" fill="#C6BFCF" width="13" height="107"/>
	<rect x="113" y="106" transform="matrix(-1 -4.687418e-11 4.687418e-11 -1 239 341)" fill="#C6BFCF" width="13" height="129"/>
	<rect x="500" y="67" transform="matrix(-1 -5.233115e-11 5.233115e-11 -1 1013 266)" fill="#C6BFCF" width="13" height="132"/>
	<rect x="479" y="143" transform="matrix(-1 -4.533497e-11 4.533497e-11 -1 971 299)" fill="#C6BFCF" width="13" height="13"/>
	<rect x="587" y="123" transform="matrix(-1 -4.533497e-11 4.533497e-11 -1 1187 261)" fill="#C6BFCF" width="13" height="15"/>
	<rect x="1188" y="112" transform="matrix(-1 -4.617430e-11 4.617430e-11 -1 2389 246)" fill="#968BAF" width="13" height="22"/>
	<rect x="1167" y="119" transform="matrix(-1 -4.533497e-11 4.533497e-11 -1 2347 329)" fill="#968BAF" width="13" height="91"/>
	<rect x="1124" y="213" transform="matrix(-1 -4.687418e-11 4.687418e-11 -1 2261 499)" fill="#968BAF" width="13" height="73"/>
	<rect x="1060" y="167" transform="matrix(-1 -4.533497e-11 4.533497e-11 -1 2133 389)" fill="#968BAF" width="13" height="55"/>
	<rect x="1016" y="32" transform="matrix(-1 -4.617430e-11 4.617430e-11 -1 2045 148)" fill="#968BAF" width="13" height="84"/>
	<rect x="909" y="119" transform="matrix(-1 -4.533497e-11 4.533497e-11 -1 1831 276)" fill="#968BAF" width="13" height="38"/>
	<rect x="866" y="179" transform="matrix(-1 -4.687418e-11 4.687418e-11 -1 1745 392)" fill="#968BAF" width="13" height="34"/>
	<rect x="823" y="222" transform="matrix(-1 -4.687418e-11 4.687418e-11 -1 1659 498)" fill="#968BAF" width="13" height="54"/>
	<rect x="801" y="76" transform="matrix(-1 -4.617430e-11 4.617430e-11 -1 1615 190)" fill="#968BAF" width="13" height="38"/>
	<rect x="715" y="69" transform="matrix(-1 -4.771351e-11 4.771351e-11 -1 1443 162)" fill="#968BAF" width="13" height="24"/>
	<rect x="693" y="75" transform="matrix(-1 -4.617430e-11 4.617430e-11 -1 1399 231)" fill="#968BAF" width="13" height="81"/>
	<line fill="none" stroke="#8E7F96" stroke-width="2" stroke-miterlimit="10" x1="1237" y1="94" x2="1237" y2="229"/>
	<line fill="none" stroke="#8E7F96" stroke-width="2" stroke-miterlimit="10" x1="1259" y1="93" x2="1259" y2="205"/>
	<rect x="1253" y="121" transform="matrix(-1 -4.771351e-11 4.771351e-11 -1 2519 266)" fill="#968BAF" width="13" height="24"/>
	<rect x="1231" y="127" transform="matrix(-1 -4.617430e-11 4.617430e-11 -1 2475 335)" fill="#968BAF" width="13" height="81"/>
	<rect x="607" y="111" transform="matrix(-1 -4.687418e-11 4.687418e-11 -1 1227 283)" fill="#968BAF" width="13" height="61"/>
	<rect x="436" y="166" transform="matrix(-1 -4.533497e-11 4.533497e-11 -1 885 404)" fill="#968BAF" width="13" height="72"/>
	<rect x="371" y="240" transform="matrix(-1 -4.617430e-11 4.617430e-11 -1 755 578)" fill="#968BAF" width="13" height="98"/>
	<rect x="350" y="199" transform="matrix(-1 -6.772240e-11 6.772240e-11 -1 713 437)" fill="#968BAF" width="13" height="39"/>
	<rect x="306" y="284" transform="matrix(-1 -4.533497e-11 4.533497e-11 -1 625 585)" fill="#968BAF" width="13" height="17"/>
	<rect x="220" y="159" transform="matrix(-1 -4.533497e-11 4.533497e-11 -1 453 365)" fill="#968BAF" width="13" height="47"/>
	<rect x="199" y="39" transform="matrix(-1 -8.073510e-11 8.073510e-11 -1 411 205)" fill="#968BAF" width="13" height="127"/>
	<rect x="91" y="122" transform="matrix(-1 -1.623114e-11 1.623114e-11 -1 195 262)" fill="#968BAF" width="13" height="18"/>
	<rect x="71" y="73" transform="matrix(-1 -1.130572e-10 1.130572e-10 -1 155 196)" fill="#968BAF" width="13" height="50"/>
	<rect x="264" y="157" transform="matrix(-1 -4.617430e-11 4.617430e-11 -1 541 327)" fill="#968BAF" width="13" height="13"/>
	<rect x="543" y="104" transform="matrix(-1 -4.617430e-11 4.617430e-11 -1 1099 254)" fill="#968BAF" width="13" height="46"/>
	<rect x="521" y="181" transform="matrix(-1 -4.463553e-11 4.463553e-11 -1 1055 380)" fill="#968BAF" width="13" height="18"/>
	<rect x="758" y="148" transform="matrix(-1 -4.617430e-11 4.617430e-11 -1 1529 303)" fill="#968BAF" width="13" height="7"/>
	<rect x="1102" y="249" transform="matrix(-1 -4.617430e-11 4.617430e-11 -1 2217 525)" fill="#968BAF" width="13" height="27"/>
	<g>
		<text transform="matrix(1 0 0 1 150.6328 410.5359)" fill="#D1CDC9" font-family="'RobotoCondensed-Regular'" font-size="18px">Feb</text>
		<text transform="matrix(1 0 0 1 367.9395 410.5359)" fill="#D1CDC9" font-family="'RobotoCondensed-Regular'" font-size="18px">Apr</text>
		<text transform="matrix(1 0 0 1 583.3384 410.5359)" fill="#D1CDC9" font-family="'RobotoCondensed-Regular'" font-size="18px">Jun</text>
		<text transform="matrix(1 0 0 1 799.5569 410.5359)" fill="#D1CDC9" font-family="'RobotoCondensed-Regular'" font-size="18px">Aug</text>
		<text transform="matrix(1 0 0 1 1015.5706 410.5359)" fill="#D1CDC9" font-family="'RobotoCondensed-Regular'" font-size="18px">Oct</text>
		<text transform="matrix(1 0 0 1 1231.5999 410.5359)" fill="#D1CDC9" font-family="'RobotoCondensed-Regular'" font-size="18px">Dec</text>
		<polyline fill="none" stroke="#C4C4C4" stroke-miterlimit="10" points="55.2,2 55.2,374.4 1266,374.4 		"/>
		<line fill="none" stroke="#C4C4C4" stroke-miterlimit="10" x1="163.2" y1="383.9" x2="163.2" y2="374.4"/>
		<line fill="none" stroke="#C4C4C4" stroke-miterlimit="10" x1="275.5" y1="383.9" x2="275.5" y2="374.4"/>
		<line fill="none" stroke="#C4C4C4" stroke-miterlimit="10" x1="380.7" y1="383.9" x2="380.7" y2="374.4"/>
		<line fill="none" stroke="#C4C4C4" stroke-miterlimit="10" x1="491" y1="383.9" x2="491" y2="374.4"/>
		<line fill="none" stroke="#C4C4C4" stroke-miterlimit="10" x1="596" y1="383.9" x2="596" y2="374.4"/>
		<line fill="none" stroke="#C4C4C4" stroke-miterlimit="10" x1="705" y1="383.9" x2="705" y2="374.4"/>
		<line fill="none" stroke="#C4C4C4" stroke-miterlimit="10" x1="811.5" y1="383.9" x2="811.5" y2="374.4"/>
		<line fill="none" stroke="#C4C4C4" stroke-miterlimit="10" x1="918.5" y1="383.9" x2="918.5" y2="374.4"/>
		<line fill="none" stroke="#C4C4C4" stroke-miterlimit="10" x1="1028.3" y1="383.9" x2="1028.3" y2="374.4"/>
		<line fill="none" stroke="#C4C4C4" stroke-miterlimit="10" x1="1136.5" y1="383.9" x2="1136.5" y2="374.4"/>
		<line fill="none" stroke="#C4C4C4" stroke-miterlimit="10" x1="1243.2" y1="383.9" x2="1243.2" y2="374.4"/>
		<g>
			<line fill="none" stroke="#C4C4C4" stroke-miterlimit="10" x1="45.6" y1="10.4" x2="55.6" y2="10.4"/>
			<line fill="none" stroke="#C4C4C4" stroke-miterlimit="10" x1="45.6" y1="301.6" x2="55.6" y2="301.6"/>
			<line fill="none" stroke="#C4C4C4" stroke-miterlimit="10" x1="45.6" y1="228.8" x2="55.6" y2="228.8"/>
			<line fill="none" stroke="#C4C4C4" stroke-miterlimit="10" x1="45.6" y1="156" x2="55.6" y2="156"/>
			<line fill="none" stroke="#C4C4C4" stroke-miterlimit="10" x1="45.6" y1="83.2" x2="55.6" y2="83.2"/>
		</g>
	</g>
	<g>
		<text transform="matrix(1 0 0 1 8.624 17.5195)" fill="#D1CDC9" font-family="'RobotoCondensed-Regular'" font-size="19px">100</text>
	</g>
	<text transform="matrix(1 0 0 1 18.0039 237.0969)" fill="#D1CDC9" font-family="'RobotoCondensed-Regular'" font-size="19px">40</text>
	<text transform="matrix(1 0 0 1 18.0039 165.0968)" fill="#D1CDC9" font-family="'RobotoCondensed-Regular'" font-size="19px">60</text>
	<text transform="matrix(1 0 0 1 18.0039 91.0968)" fill="#D1CDC9" font-family="'RobotoCondensed-Regular'" font-size="19px">80</text>
	<text transform="matrix(1 0 0 1 18.0039 309.52)" fill="#D1CDC9" font-family="'RobotoCondensed-Regular'" font-size="19px">20</text>
</g>
<g id="Layer_2">
</g>
<g id="Layer_3">
</g>
</svg>
