<svg xmlns="http://www.w3.org/2000/svg" width="650" height="432" viewBox="0 0 650 432"><defs><style>.a{fill:#7e7e7d;}.b{fill:#858584;}.c{fill:#898989;}.d{fill:#939392;}.e{fill:#949494;}.f{fill:#a4a4a4;}.g{fill:#bbbbba;}.h{fill:#bfbfbf;}.i{fill:#c4c4c4;}.j{fill:#c7c7c7;}.k{fill:#cbcbca;}.l{fill:#d1d1d1;}.m{fill:#d2d2d2;}.n{fill:#d6d6d5;}.o{fill:#dadada;}.p{fill:#dededd;}.q{fill:#e4e4e4;}.r{fill:#e7e7e7;}.s{fill:#eaeaea;}.t{fill:#ececec;}.u{fill:#efefef;}.v{fill:#f1f1f1;}.w{fill:#f2f2f2;}.x{fill:#f4f4f4;}.y{fill:#e6e6e5;}.z{fill:#e1e1e1;}.aa{fill:#d9d9d9;}.ab{fill:#d7d7d7;}.ac{fill:#b6b6b5;}.ad{fill:#b1b1b1;}.ae{fill:#7b7b7a;}.af{fill:#666665;}.ag{fill:#60605f;}</style></defs><title>dorling-map</title><path class="a" d="M523,285.9c-15.7-26.1-56.4-19.9-63.5,9.7-7.7,32.3,32.2,56.1,56.9,33.8A35,35,0,0,0,523,285.9Z"/><path class="b" d="M585.3,97.6c-26-18.7-61.8,7.2-52.4,37.6,8.7,28.3,48.4,32.1,62.4,6.2A34.4,34.4,0,0,0,585.3,97.6Z"/><path class="c" d="M512.6,142.8c25.1-16.2,17.2-55.9-12.1-61.2s-51.7,31.7-31.2,55.1A33.9,33.9,0,0,0,512.6,142.8Z"/><path class="d" d="M445.7,198.6c-7.7,28.9,25.7,52.8,50.4,35.4,27-19,10.4-62.6-22.1-59.3A33.1,33.1,0,0,0,445.7,198.6Z"/><path class="e" d="M523.7,208.6c-26.3,14.7-19.5,55.7,10.3,60.7s50.3-33,28.8-55A32.9,32.9,0,0,0,523.7,208.6Z"/><path class="f" d="M467.3,260.9c-0.7-28.2-36.6-41.4-55.3-20.3-20.4,23.1,2.8,60,32.6,51.2A31.9,31.9,0,0,0,467.3,260.9Z"/><path class="g" d="M332.7,175c-25.5-10.3-51.1,17.3-38.5,42s46.8,20.8,55.6-3.6A30.7,30.7,0,0,0,332.7,175Z"/><path class="h" d="M318.4,276.4c-26-2.6-43,28.5-26.3,48.9s52.4,8.9,53.1-18.2A30.3,30.3,0,0,0,318.4,276.4Z"/><path class="i" d="M53,120.4C27.4,107.8-.4,136.5,13.7,161.6c12.9,22.9,47.9,18.2,54.7-6.9A30,30,0,0,0,53,120.4Z"/><path class="j" d="M9.3,219.8c-1.9,26.3,30.7,42,49.9,23.6,20.9-20.1,1.8-56.3-26.7-50.1A29.8,29.8,0,0,0,9.3,219.8Z"/><path class="k" d="M267.2,137c21.8,11.6,48.2-8.4,42.4-32.6-6.6-27.9-46.7-30-56.2-3A29.6,29.6,0,0,0,267.2,137Z"/><path class="l" d="M148.9,189.2c-14.3-22.5-50.4-14.4-53.1,12.4-2.5,25,27.4,41.2,46.9,25.3A29.1,29.1,0,0,0,148.9,189.2Z"/><path class="l" d="M345.3,238c-0.5,25.4,31.1,39.3,49.2,21s2.6-52.1-23.9-48.8A29.1,29.1,0,0,0,345.3,238Z"/><path class="m" d="M318.2,118c-20,15.3-11.3,48.4,13.9,51.4s42.7-30.5,23.3-49.1A29,29,0,0,0,318.2,118Z"/><path class="n" d="M248.7,100.5c13-22.1-8.8-49.6-33.3-41.5s-26,40.9-4.1,52.2A28.7,28.7,0,0,0,248.7,100.5Z"/><path class="o" d="M209.5,250c16.1-18.6,1.3-48.6-23.6-46.4s-34.3,34.5-14.9,49.9A28.3,28.3,0,0,0,209.5,250Z"/><path class="p" d="M82.1,107.9c18.5-19.9-.8-52.7-27.1-46.1C32,67.5,26.5,99.1,46.6,112.2A28.2,28.2,0,0,0,82.1,107.9Z"/><path class="q" d="M111.5,112.4c-23.7-6.7-43.9,20.4-30.4,41.1,15.4,23.6,53,10,50-17.8A27.6,27.6,0,0,0,111.5,112.4Z"/><path class="r" d="M274.7,220.8c-13.4-20.6-45.8-13.6-49.5,10.6s27.3,41,45.5,23.5A27.3,27.3,0,0,0,274.7,220.8Z"/><path class="s" d="M431.4,406.1c24.3-.2,35.9-31.7,16.7-47.3s-47.8,2-42.9,26A26.9,26.9,0,0,0,431.4,406.1Z"/><path class="t" d="M436.9,182.4c-16.3-17.5-46.6-5.3-46.1,18.6s33,35.1,47.8,15.4A26.9,26.9,0,0,0,436.9,182.4Z"/><path class="u" d="M557.2,51.5c-15.8-18.9-47.7-6.5-46.3,18.1,1.3,23.1,30.8,33,45.9,15.7A26.4,26.4,0,0,0,557.2,51.5Z"/><path class="u" d="M204.9,202.7c12.9,15.6,39.1,10.7,45.1-8.9,7.5-24.6-23.3-44.5-42.5-26.9A26.4,26.4,0,0,0,204.9,202.7Z"/><path class="v" d="M179.2,419.7c11.4-16.8-.7-40.4-21.2-40.5-27.4-.1-35.1,38.4-10.6,49.4A26.1,26.1,0,0,0,179.2,419.7Z"/><path class="w" d="M620,84.1c17.4-31.5-34.8-54.4-46.3-20.7C563.9,92,605.2,110,620,84.1Z"/><path class="x" d="M593.8,201.9c18.6-25.7-20.4-55.7-40.1-30.1S574.3,228.3,593.8,201.9Z"/><path class="x" d="M431.6,297.7c-23.3.7-33.2,31.4-14.1,45.2s45.2-4.9,38.6-27.2A25.3,25.3,0,0,0,431.6,297.7Z"/><path class="x" d="M142.5,110.7c-0.9,21,24,34.2,40.7,20.6,18.2-14.8,6.5-45.5-17.1-44.2A25.2,25.2,0,0,0,142.5,110.7Z"/><path class="x" d="M362.9,284.6c-9.4,19.8,10.7,42.1,31.5,34s20.6-38.5-.1-46.4A25.1,25.1,0,0,0,362.9,284.6Z"/><path class="x" d="M193.5,158c-10.6-29.5-56.1-14.2-47,15.4C156.1,204.7,204.1,188.7,193.5,158Z"/><path class="x" d="M423.5,162.7c16.3-16.6,1.9-45.3-21.2-41.8s-28.4,32.6-10.1,44.9A25,25,0,0,0,423.5,162.7Z"/><path class="v" d="M517,145.8c-29,7.4-19.7,53,10.5,46.9S547.7,138.4,517,145.8Z"/><path class="v" d="M268.5,304.8c15.2-19.2-5.8-46.8-28.4-37-20.7,9.1-17.7,40.4,4.3,45.4A24.3,24.3,0,0,0,268.5,304.8Z"/><path class="u" d="M53.5,380.7c9-24.2-22.7-43.1-39.8-24.4C0.8,370.5,9.8,394.1,28.9,396A24,24,0,0,0,53.5,380.7Z"/><path class="t" d="M473.8,145.9c-9.8-20.1-40.7-15.9-44.3,6.5-3.2,20.5,21.1,34.9,37.6,22.1A23.7,23.7,0,0,0,473.8,145.9Z"/><path class="s" d="M298.2,176.5c10.4-28.6-33.9-44.5-43.9-15.8S287.7,204.4,298.2,176.5Z"/><path class="y" d="M634.9,145.3c-18-22.3-52.5,3.5-36.8,26.9C615.2,197.5,653.8,169.5,634.9,145.3Z"/><path class="q" d="M390.3,193.5c14.5-26.3-26.8-48.2-40.2-21.2S376.2,218.2,390.3,193.5Z"/><path class="z" d="M590.5,38.4c14-25.3-25.1-47.5-39.3-21.9S576.2,63.4,590.5,38.4Z"/><path class="aa" d="M304.8,276c18.2-3.2,24.6-26.8,10.3-38.5-15.9-13.1-40.2,2.4-35.1,22.4A22.1,22.1,0,0,0,304.8,276Z"/><path class="ab" d="M240.6,322.5c-17,12.8-6.9,40.3,14.1,39.2,18.5-1,27.3-24.6,13.8-37.4A22,22,0,0,0,240.6,322.5Z"/><path class="n" d="M302.3,346c-15.4,14.8-1.6,41.4,19.4,36.9,19.2-4.1,23-30.9,5.7-40.2A21.9,21.9,0,0,0,302.3,346Z"/><path class="m" d="M178.2,309.7c24.4,5.7,36.9-29.8,13.9-40.2C164.9,257.1,148.7,302.4,178.2,309.7Z"/><path class="i" d="M94.9,236.2c-19,9.7-11.8,39.8,10.2,38.7C136.8,273.3,124,222.1,94.9,236.2Z"/><path class="ac" d="M376.8,334.6c-19,20.1,15.3,47.4,30.5,24.4C420,339.7,393.1,317.9,376.8,334.6Z"/><path class="ad" d="M247.9,149.1c13.3-18.1-11-40.9-28-26.2C199,140.9,231.1,170.9,247.9,149.1Z"/><path class="d" d="M67.9,172.1c-17.9,10.6-4.6,39.2,15.1,31.3C105.2,194.7,89.1,160.5,67.9,172.1Z"/><path class="ae" d="M484.8,348.7c-3.2-19.3-32.4-16.9-32.1,2.6C453.1,373.2,487.5,370.8,484.8,348.7Z"/><path class="af" d="M369,101.1c-17.1,9.5-3.1,35.8,14.1,26.9S386.5,92.3,369,101.1Z"/><path class="af" d="M365.4,319.6c-13.5-9.9-31.2,6.7-21.7,20.6C356.4,358.6,383.2,333.9,365.4,319.6Z"/><path class="ag" d="M474.3,255.6c-2.1,18.8,26.3,22.9,29.4,4.4S477.3,236.4,474.3,255.6Z"/></svg>