<svg xmlns="http://www.w3.org/2000/svg" width="650" height="400" viewBox="0 0 650 400"><defs><style>.a{fill:#eaeaea;}.a,.b,.c,.d,.e,.f{stroke:#fff;stroke-miterlimit:10;stroke-width:2.47px;}.b{fill:#d1d1d1;}.c{fill:#a2a2a2;}.d{fill:#a1a1a1;}.e{fill:#5b5b5b;}.f{fill:#6a6a6a;}</style></defs><title>mosaic-cartogram</title><rect class="a" x="593.3" y="11" width="46.7" height="46.68"/><rect class="b" x="546.6" y="57.7" width="46.7" height="46.68"/><rect class="b" x="593.3" y="57.7" width="46.7" height="46.68"/><rect class="b" x="79.9" y="104.4" width="46.7" height="46.68"/><rect class="b" x="10" y="34.5" width="46.7" height="46.68"/><rect class="c" x="10" y="267.7" width="46.7" height="46.68"/><rect class="a" x="126.5" y="104.4" width="46.7" height="46.68"/><rect class="d" x="173.2" y="104.4" width="46.7" height="46.68"/><rect class="d" x="219.9" y="104.4" width="46.7" height="46.68"/><rect class="a" x="266.6" y="104.4" width="46.7" height="46.68"/><rect class="b" x="359.9" y="104.4" width="46.7" height="46.68"/><rect class="e" x="453.3" y="104.4" width="46.7" height="46.68"/><rect class="e" x="500" y="104.4" width="46.7" height="46.68"/><rect class="e" x="546.6" y="104.4" width="46.7" height="46.68"/><rect class="b" x="593.3" y="104.4" width="46.7" height="46.68"/><rect class="a" x="79.9" y="151" width="46.7" height="46.68"/><rect class="a" x="126.5" y="151" width="46.7" height="46.68"/><rect class="d" x="173.2" y="151" width="46.7" height="46.68"/><rect class="d" x="219.9" y="151" width="46.7" height="46.68"/><rect class="a" x="266.6" y="151" width="46.7" height="46.68"/><rect class="a" x="313.2" y="151" width="46.7" height="46.68"/><rect class="b" x="359.9" y="151" width="46.7" height="46.68"/><rect class="e" x="406.6" y="151" width="46.7" height="46.68"/><rect class="e" x="453.3" y="151" width="46.7" height="46.68"/><rect class="e" x="500" y="151" width="46.7" height="46.68"/><rect class="b" x="546.6" y="151" width="46.7" height="46.68"/><rect class="b" x="79.9" y="197.7" width="46.7" height="46.68"/><rect class="a" x="126.5" y="197.7" width="46.7" height="46.68"/><rect class="a" x="173.2" y="197.7" width="46.7" height="46.68"/><rect class="d" x="219.9" y="197.7" width="46.7" height="46.68"/><rect class="a" x="266.6" y="197.7" width="46.7" height="46.68"/><rect class="b" x="313.2" y="197.7" width="46.7" height="46.68"/><rect class="b" x="359.9" y="197.7" width="46.7" height="46.68"/><rect class="b" x="406.6" y="197.7" width="46.7" height="46.68"/><rect class="e" x="453.3" y="197.7" width="46.7" height="46.68"/><rect class="f" x="500" y="197.7" width="46.7" height="46.68"/><rect class="b" x="126.5" y="244.4" width="46.7" height="46.68"/><rect class="a" x="173.2" y="244.4" width="46.7" height="46.68"/><rect class="a" x="219.9" y="244.4" width="46.7" height="46.68"/><rect class="a" x="266.6" y="244.4" width="46.7" height="46.68"/><rect class="a" x="313.2" y="244.4" width="46.7" height="46.68"/><rect class="a" x="359.9" y="244.4" width="46.7" height="46.68"/><rect class="a" x="406.6" y="244.4" width="46.7" height="46.68"/><rect class="b" x="453.3" y="244.4" width="46.7" height="46.68"/><rect class="b" x="219.9" y="291.1" width="46.7" height="46.68"/><rect class="b" x="266.6" y="291.1" width="46.7" height="46.68"/><rect class="a" x="313.2" y="291.1" width="46.7" height="46.68"/><rect class="a" x="359.9" y="291.1" width="46.7" height="46.68"/><rect class="b" x="406.6" y="291.1" width="46.7" height="46.68"/><rect class="b" x="219.9" y="337.7" width="46.7" height="46.68"/><rect class="d" x="406.6" y="337.7" width="46.7" height="46.68"/></svg>