<?xml version="1.0" encoding="utf-8"?>
<!-- Generator: Adobe Illustrator 22.1.0, SVG Export Plug-In . SVG Version: 6.00 Build 0)  -->
<svg version="1.1" id="Layer_1" xmlns="http://www.w3.org/2000/svg" xmlns:xlink="http://www.w3.org/1999/xlink" x="0px" y="0px"
	 viewBox="0 0 1075.4 802.5" style="enable-background:new 0 0 1075.4 802.5;" xml:space="preserve">
<style type="text/css">
	.st0{fill:none;stroke:#E2E2E2;stroke-width:5;stroke-miterlimit:10;}
	.st1{fill:#514361;}
	.st2{font-family:'RobotoMono-Regular';}
	.st3{font-size:30.4327px;}
	.st4{enable-background:new    ;}
	
		.st5{opacity:0.8;fill:none;stroke:#A8A8A8;stroke-width:1.5;stroke-linecap:round;stroke-miterlimit:10;stroke-dasharray:0,3;enable-background:new    ;}
	.st6{fill:#9E9E9E;}
	.st7{fill:#D7D6D8;}
	.st8{fill:#B8B8B8;}
	.st9{fill:#D8D8D8;}
	.st10{fill:none;stroke:#9E9E9E;stroke-width:5;stroke-miterlimit:10;}
	.st11{fill:none;stroke:#B8B8B8;stroke-width:5;stroke-miterlimit:10;}
	.st12{fill:none;stroke:#D8D8D8;stroke-width:5;stroke-miterlimit:10;}
	.st13{fill:#878787;}
	.st14{font-size:22.8245px;}
	.st15{fill:none;stroke:#A8A8A8;stroke-width:1.5;stroke-linecap:round;stroke-miterlimit:10;stroke-dasharray:0,3;}
</style>
<polyline class="st0" points="251.8,326.9 400.1,178.6 696.8,178.6 845.1,475.2 "/>
<text transform="matrix(1 0 0 1 388.4103 28.0711)" class="st1 st2 st3">time or intervals</text>
<text transform="matrix(1 0 0 1 7.5812 746.5342)" class="st1 st2 st3">initial rank</text>
<text transform="matrix(1 0 0 1 417.9315 746.5349)" class="st4"><tspan x="0" y="0" class="st1 st2 st3">re-ordering</tspan><tspan x="0" y="36.5" class="st1 st2 st3">by rank</tspan></text>
<path class="st5" d="M844,66.7V46.1H246.1v20.5"/>
<circle class="st6" cx="251.8" cy="178.6" r="11.7"/>
<circle class="st7" cx="400.1" cy="178.6" r="11.7"/>
<circle class="st7" cx="548.4" cy="178.6" r="11.7"/>
<circle class="st7" cx="696.8" cy="178.6" r="11.7"/>
<circle class="st6" cx="845.1" cy="178.6" r="11.7"/>
<circle class="st7" cx="251.8" cy="326.9" r="11.7"/>
<circle class="st6" cx="400.1" cy="326.9" r="11.7"/>
<circle class="st6" cx="548.4" cy="326.9" r="11.7"/>
<circle class="st6" cx="696.8" cy="326.9" r="11.7"/>
<circle class="st8" cx="845.1" cy="326.9" r="11.7"/>
<circle class="st8" cx="251.8" cy="475.2" r="11.7"/>
<circle class="st8" cx="400.1" cy="475.2" r="11.7"/>
<circle class="st9" cx="548.4" cy="475.2" r="11.7"/>
<circle class="st8" cx="696.8" cy="475.2" r="11.7"/>
<circle class="st7" cx="845.1" cy="475.2" r="11.7"/>
<circle class="st9" cx="251.8" cy="623.6" r="11.7"/>
<circle class="st9" cx="400.1" cy="623.6" r="11.7"/>
<circle class="st8" cx="548.4" cy="623.6" r="11.7"/>
<circle class="st9" cx="696.8" cy="623.6" r="11.7"/>
<circle class="st9" cx="845.1" cy="623.6" r="11.7"/>
<polyline class="st10" points="251.8,178.6 400.1,326.9 696.8,326.9 845.1,178.6 "/>
<polyline class="st11" points="251.8,475.2 400.1,475.2 548.4,623.6 696.8,475.2 845.1,326.9 "/>
<polyline class="st12" points="251.8,623.6 400.1,623.6 548.4,475.2 696.8,623.6 844,623.6 "/>
<g>
	<text transform="matrix(1 0 0 1 54.6193 187.3368)" class="st13 st2 st14">category A</text>
</g>
<g>
	<text transform="matrix(1 0 0 1 54.6193 335.6893)" class="st13 st2 st14">category B</text>
</g>
<g>
	<text transform="matrix(1 0 0 1 54.6193 489.3714)" class="st13 st2 st14">category C</text>
</g>
<g>
	<text transform="matrix(1 0 0 1 54.6193 637.6839)" class="st13 st2 st14">category D</text>
</g>
<g>
	<text transform="matrix(1 0 0 1 913.7882 187.6375)" class="st13 st2 st14">category B</text>
</g>
<g>
	<text transform="matrix(1 0 0 1 913.7882 335.9901)" class="st13 st2 st14">category C</text>
</g>
<g>
	<text transform="matrix(1 0 0 1 913.7882 489.6722)" class="st13 st2 st14">category A</text>
</g>
<g>
	<text transform="matrix(1 0 0 1 913.7882 637.6839)" class="st13 st2 st14">category D</text>
</g>
<g>
	<text transform="matrix(1 0 0 1 220.2657 114.62)" class="st13 st2 st14">2019</text>
</g>
<g>
	<text transform="matrix(1 0 0 1 367.0958 114.62)" class="st13 st2 st14">2020</text>
</g>
<g>
	<text transform="matrix(1 0 0 1 515.4093 114.62)" class="st13 st2 st14">2021</text>
</g>
<g>
	<text transform="matrix(1 0 0 1 663.7208 114.62)" class="st13 st2 st14">2022</text>
</g>
<g>
	<text transform="matrix(1 0 0 1 812.0343 114.62)" class="st13 st2 st14">2023</text>
</g>
<path class="st5" d="M548.4,655.7v61.8"/>
<rect x="511.1" y="442" class="st15" width="71.4" height="213.6"/>
<line class="st5" x1="117.2" y1="655.7" x2="117.2" y2="709.3"/>
<text transform="matrix(1 0 0 1 877.8055 746.5342)" class="st1 st2 st3">final rank</text>
<line class="st5" x1="982.8" y1="654.3" x2="982.8" y2="716.2"/>
</svg>
