<?xml version="1.0" encoding="utf-8"?>
<!-- Generator: Adobe Illustrator 22.1.0, SVG Export Plug-In . SVG Version: 6.00 Build 0)  -->
<svg version="1.1" id="Layer_1" xmlns="http://www.w3.org/2000/svg" xmlns:xlink="http://www.w3.org/1999/xlink" x="0px" y="0px"
	 viewBox="0 0 1268 418" style="enable-background:new 0 0 1268 418;" xml:space="preserve">
<style type="text/css">
	.st0{fill:#7E729E;}
	.st1{fill:#F1C7A3;}
	.st2{fill:#A4A6B8;}
	.st3{fill:#D8BBB8;}
	.st4{fill:none;stroke:#7E729E;stroke-width:5;stroke-miterlimit:10;}
	.st5{fill:none;stroke:#F1C7A3;stroke-width:5;stroke-miterlimit:10;}
	.st6{fill:none;stroke:#A4A6B8;stroke-width:5;stroke-miterlimit:10;}
	.st7{fill:none;stroke:#D8BBB8;stroke-width:5;stroke-miterlimit:10;}
	.st8{fill:#AFAFAF;}
	.st9{font-family:'RobotoMono-Regular';}
	.st10{font-size:18px;}
</style>
<g id="Layer_2_1_">
</g>
<g id="Layer_3">
</g>
<circle class="st0" cx="206.3" cy="78.8" r="7.9"/>
<circle class="st1" cx="306.3" cy="78.8" r="7.9"/>
<circle class="st1" cx="406.3" cy="78.8" r="7.9"/>
<circle class="st1" cx="506.3" cy="78.8" r="7.9"/>
<circle class="st0" cx="606.3" cy="78.8" r="7.9"/>
<circle class="st0" cx="706.3" cy="78.8" r="7.9"/>
<circle class="st0" cx="806.3" cy="78.8" r="7.9"/>
<circle class="st0" cx="906.3" cy="78.8" r="7.9"/>
<circle class="st0" cx="1006.3" cy="78.8" r="7.9"/>
<circle class="st1" cx="1106.3" cy="78.8" r="7.9"/>
<circle class="st1" cx="206.3" cy="178.8" r="7.9"/>
<circle class="st0" cx="306.3" cy="178.8" r="7.9"/>
<circle class="st0" cx="406.3" cy="178.8" r="7.9"/>
<circle class="st0" cx="506.3" cy="178.8" r="7.9"/>
<circle class="st2" cx="606.3" cy="178.8" r="7.9"/>
<circle class="st2" cx="706.3" cy="178.8" r="7.9"/>
<circle class="st2" cx="806.3" cy="178.8" r="7.9"/>
<circle class="st2" cx="906.3" cy="178.8" r="7.9"/>
<circle class="st2" cx="1006.3" cy="178.8" r="7.9"/>
<circle class="st0" cx="1106.3" cy="178.8" r="7.9"/>
<circle class="st2" cx="206.3" cy="278.8" r="7.9"/>
<circle class="st2" cx="306.3" cy="278.8" r="7.9"/>
<circle class="st3" cx="406.3" cy="278.8" r="7.9"/>
<circle class="st2" cx="506.3" cy="278.8" r="7.9"/>
<circle class="st1" cx="606.3" cy="278.8" r="7.9"/>
<circle class="st1" cx="706.3" cy="278.8" r="7.9"/>
<circle class="st1" cx="806.3" cy="278.8" r="7.9"/>
<circle class="st1" cx="906.3" cy="278.8" r="7.9"/>
<circle class="st1" cx="1006.3" cy="278.8" r="7.9"/>
<circle class="st2" cx="1106.3" cy="278.8" r="7.9"/>
<circle class="st3" cx="206.3" cy="378.8" r="7.9"/>
<circle class="st3" cx="306.3" cy="378.8" r="7.9"/>
<circle class="st2" cx="406.3" cy="378.8" r="7.9"/>
<circle class="st3" cx="506.3" cy="378.8" r="7.9"/>
<circle class="st3" cx="606.3" cy="378.8" r="7.9"/>
<circle class="st3" cx="706.3" cy="378.8" r="7.9"/>
<circle class="st3" cx="806.3" cy="378.8" r="7.9"/>
<circle class="st3" cx="906.3" cy="378.8" r="7.9"/>
<circle class="st3" cx="1006.3" cy="378.8" r="7.9"/>
<circle class="st3" cx="1106.3" cy="378.8" r="7.9"/>
<polyline class="st4" points="206.3,78.8 306.3,178.8 506.3,178.8 606.3,78.8 1006.3,78.8 1106.3,178.8 "/>
<polyline class="st5" points="206.3,178.8 306.3,78.8 506.3,78.8 606.3,278.8 1006.3,278.8 1106.3,78.8 "/>
<polyline class="st6" points="206.3,278.8 306.3,278.8 406.3,378.8 506.3,278.8 606.3,178.8 1006.3,178.8 1106.3,278.8 "/>
<polyline class="st7" points="206.3,378.8 306.3,378.8 406.3,278.8 506.3,378.8 1106.3,378.8 "/>
<g>
	<text transform="matrix(1 0 0 1 134.0636 87.5882)" class="st8 st9 st10">USA</text>
</g>
<g>
	<text transform="matrix(1 0 0 1 185.0247 35.6271)" class="st8 st9 st10">2019</text>
</g>
<g>
	<text transform="matrix(1 0 0 1 284.0247 35.6271)" class="st8 st9 st10">2020</text>
</g>
<g>
	<text transform="matrix(1 0 0 1 384.0247 35.6271)" class="st8 st9 st10">2021</text>
</g>
<g>
	<text transform="matrix(1 0 0 1 484.0247 35.6271)" class="st8 st9 st10">2022</text>
</g>
<g>
	<text transform="matrix(1 0 0 1 584.0247 35.6271)" class="st8 st9 st10">2023</text>
</g>
<g>
	<text transform="matrix(1 0 0 1 684.0247 35.6271)" class="st8 st9 st10">2024</text>
</g>
<g>
	<text transform="matrix(1 0 0 1 784.0247 35.6271)" class="st8 st9 st10">2025</text>
</g>
<g>
	<text transform="matrix(1 0 0 1 884.0247 35.6271)" class="st8 st9 st10">2026</text>
</g>
<g>
	<text transform="matrix(1 0 0 1 984.0247 35.6271)" class="st8 st9 st10">2027</text>
</g>
<g>
	<text transform="matrix(1 0 0 1 1084.0247 35.6271)" class="st8 st9 st10">2028</text>
</g>
<g>
	<text transform="matrix(1 0 0 1 112.4601 191.5881)" class="st8 st9 st10">China</text>
</g>
<g>
	<text transform="matrix(1 0 0 1 144.8654 287.5886)" class="st8 st9 st10">EU</text>
</g>
<g>
	<text transform="matrix(1 0 0 1 112.4601 384.5885)" class="st8 st9 st10">Japan</text>
</g>
<g>
	<text transform="matrix(1 0 0 1 1141.9092 87.5882)" class="st8 st9 st10">China</text>
</g>
<g>
	<text transform="matrix(1 0 0 1 1141.9092 191.5881)" class="st8 st9 st10">USA</text>
</g>
<g>
	<text transform="matrix(1 0 0 1 1141.9092 287.5886)" class="st8 st9 st10">EU</text>
</g>
<g>
	<text transform="matrix(1 0 0 1 1141.9092 384.5885)" class="st8 st9 st10">Japan</text>
</g>
</svg>
