<?xml version="1.0" encoding="utf-8"?>
<!-- Generator: Adobe Illustrator 22.1.0, SVG Export Plug-In . SVG Version: 6.00 Build 0)  -->
<svg version="1.1" id="Layer_1" xmlns="http://www.w3.org/2000/svg" xmlns:xlink="http://www.w3.org/1999/xlink" x="0px" y="0px"
	 viewBox="0 0 256 256" style="enable-background:new 0 0 256 256;" xml:space="preserve">
<path d="M159.2,110.4c2,1.2,4.4,1.9,6.9,1.9c6.1,0,11.2-4,12.9-9.5h50.4c1.7,5.5,6.9,9.5,12.9,9.5c7.5,0,13.5-6.1,13.5-13.5
	s-6.1-13.5-13.5-13.5c-6.1,0-11.2,4-12.9,9.5h-50.4c-1.7-5.5-6.9-9.5-12.9-9.5c-7.5,0-13.5,6.1-13.5,13.5c0,2,0.5,4,1.3,5.7
	l-12.1,11l-21.5-38.8l38.9-35.2c2,1.2,4.4,1.9,6.9,1.9c6.1,0,11.2-4,12.9-9.5h50.4c1.7,5.5,6.9,9.5,12.9,9.5
	c7.5,0,13.5-6.1,13.5-13.5c0-7.5-6.1-13.5-13.5-13.5c-6.1,0-11.2,4-12.9,9.5h-50.4c-1.7-5.5-6.9-9.5-12.9-9.5
	c-7.5,0-13.5,6.1-13.5,13.5c0,2,0.5,4,1.3,5.7l-37.5,34L99.6,39.1c2.3-2.4,3.8-5.7,3.8-9.4c0-7.5-6.1-13.5-13.5-13.5
	c-6.1,0-11.2,4-12.9,9.5H26.5c-1.7-5.5-6.9-9.5-12.9-9.5C6.1,16.1,0,22.2,0,29.7c0,7.5,6.1,13.5,13.5,13.5c6.1,0,11.2-4,12.9-9.5
	h50.4c1.7,5.5,6.9,9.5,12.9,9.5c0.9,0,1.9-0.1,2.8-0.3l17.6,31.9L96.8,87.1c-2-1.2-4.4-1.9-6.9-1.9c-6.1,0-11.2,4-12.9,9.5H26.5
	c-1.7-5.5-6.9-9.5-12.9-9.5C6.1,85.2,0,91.2,0,98.7s6.1,13.5,13.5,13.5c6.1,0,11.2-4,12.9-9.5h50.4c1.7,5.5,6.9,9.5,12.9,9.5
	c7.5,0,13.5-6.1,13.5-13.5c0-2-0.5-4-1.3-5.7l12.1-11l21.5,38.8l-38.9,35.2c-2-1.2-4.4-1.9-6.9-1.9c-7.5,0-13.5,6.1-13.5,13.5
	c0,2,0.5,4,1.3,5.7l-25.9,23.4l-25.9-23.4c0.8-1.7,1.3-3.7,1.3-5.7c0-7.5-6.1-13.5-13.5-13.5c-7.5,0-13.5,6.1-13.5,13.5
	c0,7.5,6.1,13.5,13.5,13.5c2.5,0,4.9-0.7,6.9-1.9l25.3,22.9l-25.3,22.9c-2-1.2-4.4-1.9-6.9-1.9c-7.5,0-13.5,6.1-13.5,13.5
	c0,7.5,6.1,13.5,13.5,13.5c7.5,0,13.5-6.1,13.5-13.5c0-2-0.5-4-1.3-5.7l25.9-23.4l25.9,23.4c-0.8,1.7-1.3,3.7-1.3,5.7
	c0,7.5,6.1,13.5,13.5,13.5c6.1,0,11.2-4,12.9-9.5h50.4c1.7,5.5,6.9,9.5,12.9,9.5s11.2-4,12.9-9.5h50.4c1.7,5.5,6.9,9.5,12.9,9.5
	c7.5,0,13.5-6.1,13.5-13.5c0-7.5-6.1-13.5-13.5-13.5c-6.1,0-11.2,4-12.9,9.5h-50.4c-1.7-5.5-6.9-9.5-12.9-9.5
	c-6.1,0-11.2,4-12.9,9.5h-50.4c-1.7-5.5-6.9-9.5-12.9-9.5c-2.5,0-4.9,0.7-6.9,1.9l-25.3-22.9l25.3-22.9c2,1.2,4.4,1.9,6.9,1.9
	c7.5,0,13.5-6.1,13.5-13.5c0-2-0.5-4-1.3-5.7l37.5-34l16.7,30.3c-2.3,2.4-3.8,5.7-3.8,9.4c0,7.5,6.1,13.5,13.5,13.5
	c6.1,0,11.2-4,12.9-9.5h50.4c1.7,5.5,6.9,9.5,12.9,9.5c7.5,0,13.5-6.1,13.5-13.5c0-7.5-6.1-13.5-13.5-13.5c-6.1,0-11.2,4-12.9,9.5
	h-50.4c-1.7-5.5-6.9-9.5-12.9-9.5c-0.9,0-1.9,0.1-2.8,0.3l-17.6-31.9L159.2,110.4z"/>
</svg>
