<svg xmlns="http://www.w3.org/2000/svg" width="256" height="227" viewBox="0 0 256 227"><title>icon</title><path d="M153.9,156.3l14.3,22.8H138l.6,33.9H117.3l-.6-33.9H88.2l14.3-22.8h-10l13.3-21.5H96.6L109.7,113h-8.8l12.4-21.4h-8.1l23-42,23,42h-8.1L155.5,113h-8.8l13.1,21.8h-9.1l13.2,21.5Zm-77.6.2L63.1,135h9.1l-13-21.7h8.7L41,75.4,13.3,113.3h8.8L9,135h9.2L4.9,156.5h10L.6,179.4H29.2l.5,33.8H51l-.5-33.8H80.6L66.3,156.5Zm179.8,22.8-14.4-22.9h10.1l-13.3-21.5h9.2l-13.1-21.7h8.8L231,91.7h8.1L226.6,69h8.7L222.5,47.5H231L215.1,16.2,199.6,47.7h8.5L196.5,69h9L193,91.7h8.1l-12.4,21.5h8.8l-13.1,21.7h9.2l-13.3,21.5h10.1L176,179.3h28.6l.6,33.8h21.3l-.6-33.8h30.2Z"/></svg>