<?xml version="1.0" encoding="utf-8"?>
<!-- Generator: Adobe Illustrator 22.1.0, SVG Export Plug-In . SVG Version: 6.00 Build 0)  -->
<svg version="1.1" id="Layer_1" xmlns="http://www.w3.org/2000/svg" xmlns:xlink="http://www.w3.org/1999/xlink" x="0px" y="0px"
	 viewBox="0 0 688.6 418.5" style="enable-background:new 0 0 688.6 418.5;" xml:space="preserve">
<style type="text/css">
	.st0{fill:#514361;}
	.st1{font-family:'RobotoMono-Regular';}
	.st2{font-size:19.7303px;}
	.st3{font-family:'Roboto-Italic';}
	.st4{font-size:12.6838px;}
	.st5{fill:#9B9B9B;}
	.st6{font-size:17px;}
	.st7{font-size:19.785px;}
	.st8{fill:none;}
	.st9{clip-path:url(#SVGID_4_);}
	.st10{fill:none;stroke:#AAAAAA;stroke-width:0.25;}
	.st11{clip-path:url(#SVGID_6_);}
	.st12{fill:#C1C1C1;fill-opacity:0.7;stroke:#FFFFFF;}
	.st13{opacity:0.71;fill:#727272;fill-opacity:0.7;stroke:#FFFFFF;enable-background:new    ;}
	.st14{fill:#D1D1D1;fill-opacity:0.7;stroke:#FFFFFF;}
	.st15{fill:none;stroke:#ADADAD;stroke-dasharray:3,6;}
	.st16{fill:none;stroke:#ADADAD;stroke-width:2;stroke-linecap:round;stroke-dasharray:0,6;}
</style>
<text transform="matrix(1 0 0 1 557.7758 35.6462)" class="st0 st1 st2">Y axis</text>
<text transform="matrix(1 0 0 1 153.3633 32.6465)" class="st0 st1 st2">density plot</text>
<text transform="matrix(1 0 0 1 555.7641 54.4421)" class="st0 st3 st4">showing categories</text>
<text transform="matrix(1 0 0 1 199.3175 385.4254)" class="st0 st3 st4">showing time at equal intervals</text>
<text transform="matrix(1 0 0 1 251.5567 361.3791)" class="st0 st1 st2">X axis</text>
<g id="labels">
	<text transform="matrix(1 0 0 1 15.8196 308.4523)" class="st5 st1 st6">Mon</text>
	<text transform="matrix(1 0 0 1 138.9964 308.4525)" class="st5 st1 st6">Tue</text>
	<text transform="matrix(1 0 0 1 262.1731 308.4525)" class="st5 st1 st6">Wed</text>
	<text transform="matrix(1 0 0 1 380.2497 308.4525)" class="st5 st1 st6">Thur</text>
	<text transform="matrix(1 0 0 1 520.4011 308.4518)" class="st5 st1 st6">Fri</text>
	<text transform="matrix(1 0 0 1 552.7643 177.5777)" class="st5 st1 st7">category 1</text>
	<text transform="matrix(1 0 0 1 552.7643 212.6777)" class="st5 st1 st7">category 2</text>
	<text transform="matrix(1 0 0 1 552.7643 246.8208)" class="st5 st1 st7">category 3</text>
	<text transform="matrix(1 0 0 1 552.7643 279.3812)" class="st5 st1 st7">category 4</text>
</g>
<g id="density_plots">
	<g transform="translate(0,60)">
		<g>
			<g>
				<defs>
					<polyline id="SVGID_1_" points="534.6,116.6 31,116.6 31,81.9 					"/>
				</defs>
				<clipPath id="SVGID_2_">
					<use xlink:href="#SVGID_1_"  style="overflow:visible;"/>
				</clipPath>
			</g>
		</g>
	</g>
	<g transform="translate(0,80)">
		<path class="st8" d="M31,96.6h503.6v34.7H31V96.6z"/>
		<g>
			<g>
				<defs>
					<rect id="SVGID_3_" x="31" y="96.6" width="503.6" height="34.7"/>
				</defs>
				<clipPath id="SVGID_4_">
					<use xlink:href="#SVGID_3_"  style="overflow:visible;"/>
				</clipPath>
				<g class="st9">
					<line class="st10" x1="132" y1="130.5" x2="534.6" y2="130.5"/>
				</g>
			</g>
		</g>
	</g>
	<g transform="translate(0,100)">
		<path class="st8" d="M31,111.4h503.6v34.7H31V111.4z"/>
		<g>
			<g>
				<defs>
					<rect id="SVGID_5_" x="31" y="111.4" width="503.6" height="34.7"/>
				</defs>
				<clipPath id="SVGID_6_">
					<use xlink:href="#SVGID_5_"  style="overflow:visible;"/>
				</clipPath>
				<g class="st11">
					<line class="st10" x1="180" y1="145.2" x2="534.6" y2="145.2"/>
				</g>
			</g>
		</g>
	</g>
	<g>
		<g>
			<line class="st10" x1="31.9" y1="281.1" x2="534.6" y2="281.1"/>
		</g>
	</g>
</g>
<g>
	<polygon class="st12" points="534.3,173.1 531.2,171.7 527.9,169.9 524.6,167.7 521.3,165.1 518,162.2 514.8,158.9 511.5,155.4 
		508.2,151.7 504.9,147.9 501.7,144.1 498.4,140.3 495.1,136.5 491.8,132.8 488.6,129.1 485.3,125.5 482,122 478.7,118.6 
		475.5,115.3 472.2,112.2 468.9,109.3 465.6,106.6 462.4,104.2 459.1,102.2 455.8,100.7 452.5,99.7 449.2,99.3 446,99.6 
		442.7,100.5 439.4,101.9 436.1,103.6 432.9,105.3 429.6,106.7 426.3,107.5 423,107.4 419.8,106.2 416.5,103.8 413.2,100.2 
		409.9,95.6 406.7,90.3 403.4,84.7 400.1,79.4 396.8,74.9 393.6,71.6 390.3,69.9 387,70.1 383.7,72.2 380.4,76.1 377.2,81.5 
		373.9,88 370.6,95 367.3,101.9 364.1,108.2 360.8,113.3 357.5,116.8 354.2,118.6 351,118.7 347.7,117.3 344.4,114.8 341.1,111.7 
		337.9,108.5 334.6,105.8 331.3,104 328,103.3 324.8,103.8 321.5,105.3 318.2,107.4 314.9,109.8 311.7,112 308.4,113.5 305.1,114.2 
		301.8,113.9 298.5,112.7 295.3,110.9 292,108.8 288.7,106.9 285.4,105.6 282.2,105.2 278.9,106 275.6,107.9 272.3,110.9 
		269.1,114.7 265.8,119 262.5,123.4 259.2,127.5 256,131.1 250.5,133.8 247.3,136 244,137.4 240.7,138.1 237.4,138.3 234.2,138.1 
		230.9,137.6 227.6,137.1 224.3,136.6 221.1,136.3 217.8,136.3 214.5,136.7 211.2,137.5 208,138.7 204.7,140.3 201.4,142.1 
		198.1,144.1 194.8,146 191.6,147.8 188.3,149.3 185,150.3 181.7,150.9 178.5,151 175.2,150.8 171.9,150.3 168.6,149.7 165.4,149 
		162.1,148.4 158.8,148 155.5,147.9 152.3,148.1 149,148.6 145.7,149.5 142.4,150.7 139.2,152.2 135.9,153.9 132.6,155.7 
		129.3,157.4 126.1,158.9 122.8,160.1 119.5,160.9 116.2,161.2 112.9,161.1 109.7,160.6 106.4,159.9 103.1,159.1 99.8,158.5 
		96.6,158.2 93.3,158.3 90,158.9 86.7,160 83.5,161.5 80.2,163.3 76.9,165.3 73.6,167.3 70.4,169.3 67.1,171.1 63.8,172.6 
		60.5,173.9 57.3,174.9 54,175.6 50.7,176.1 47.4,176.5 46.3,176.6 47.8,176.6 51.1,176.6 54.4,176.6 57.7,176.6 60.9,176.6 
		64.2,176.6 67.5,176.6 70.8,176.6 74.6,176.6 77.8,176.6 81.1,176.6 84.4,176.6 87.7,176.6 90.9,176.6 94.2,176.6 97.5,176.6 
		100.8,176.6 104.1,176.6 107.3,176.6 110.6,176.6 113.9,176.6 117.2,176.6 120.4,176.6 123.7,176.6 127,176.6 130.3,176.6 
		133.6,176.6 137.4,176.6 140.7,176.6 144,176.6 147.2,176.6 150.5,176.6 153.8,176.6 157.1,176.6 160.3,176.6 163.6,176.6 
		166.9,176.6 170.2,176.6 173.5,176.6 176.7,176.6 180,176.6 183.3,176.6 186.6,176.6 189.8,176.6 193.1,176.6 196.5,176.6 
		200.2,176.6 203.5,176.6 206.7,176.6 210,176.6 213.3,176.6 216.6,176.6 219.9,176.6 223.1,176.6 226.4,176.6 229.7,176.6 
		233,176.6 236.2,176.6 239.5,176.6 242.8,176.6 246.1,176.6 249.3,176.6 252.6,176.6 256,176.6 259.8,176.6 263,176.6 266.3,176.6 
		269.6,176.6 272.9,176.6 276.1,176.6 279.4,176.6 282.7,176.6 286,176.6 289.3,176.6 292.5,176.6 295.8,176.6 299.1,176.6 
		302.4,176.6 305.6,176.6 308.9,176.6 312.2,176.6 315.5,176.6 318.8,176.6 322.6,176.6 325.9,176.6 329.2,176.6 332.4,176.6 
		335.7,176.6 339,176.6 342.3,176.6 345.5,176.6 348.8,176.6 352.1,176.6 355.4,176.6 358.7,176.6 361.9,176.6 365.2,176.6 
		368.5,176.6 371.8,176.6 375,176.6 378.3,176.6 381.7,176.6 385.4,176.6 388.7,176.6 391.9,176.6 395.2,176.6 398.5,176.6 
		401.8,176.6 405.1,176.6 408.3,176.6 411.6,176.6 414.9,176.6 418.2,176.6 421.4,176.6 424.7,176.6 428,176.6 431.3,176.6 
		434.5,176.6 437.8,176.6 441.2,176.6 445,176.6 448.2,176.6 451.5,176.6 454.8,176.6 458.1,176.6 461.3,176.6 464.6,176.6 
		467.9,176.6 471.2,176.6 474.5,176.6 477.7,176.6 481,176.6 484.3,176.6 487.6,176.6 490.8,176.6 494.1,176.6 497.4,176.6 
		500.7,176.6 504,176.6 507.7,176.6 511,176.6 514.3,176.6 517.6,176.6 520.9,176.6 524.1,176.6 527.4,176.6 530.7,176.6 534,176.6 
		534.3,176.6 	"/>
</g>
<polygon class="st13" points="534.3,210.1 532.9,210.2 529.6,210 526.3,209.6 523.1,208.9 519.8,207.9 516.5,206.6 513.2,205.1 
	510,203.3 506.7,201.3 503.4,199.3 500.1,197.3 496.9,195.6 493.6,194.2 490.3,193.3 487,193 483.7,193.3 480.5,194.1 477.2,195.4 
	473.9,197 470.6,198.7 467.4,200.4 464.1,201.8 460.8,202.9 457.5,203.5 454.3,203.6 451,203.1 447.7,202.1 444.4,200.7 
	441.2,199.1 437.3,197.3 434.1,195.7 430.8,194.3 427.5,193.4 424.2,193 421,193.2 417.7,194 414.4,195.3 411.1,197 407.9,198.9 
	404.6,200.9 401.3,202.9 398,204.7 394.8,206.3 391.5,207.6 388.2,208.7 384.9,209.5 381.7,210.1 375,210.1 371.8,210.4 
	368.5,210.6 365.2,210.7 361.9,210.7 358.7,210.6 355.4,210.4 352.1,210.1 348.8,209.7 345.5,209 342.3,208 339,206.7 335.7,205 
	332.4,202.8 329.2,200 325.9,196.6 322.6,192.7 319.3,188.3 316.1,183.5 312.8,178.5 309.5,173.5 306.2,168.7 303,164.4 
	299.7,160.7 296.4,157.9 293.1,156 289.9,155.2 286.6,155.5 283.3,156.8 280,158.9 276.8,161.8 273.5,165.3 270.2,169.2 
	266.9,173.3 263.6,177.6 260.4,181.9 257.1,186.1 253.8,190.1 250.5,193.8 247.3,197.2 244,200.2 240.7,202.7 237.4,204.8 
	234.2,206.5 230.9,207.8 227.6,208.8 224.3,209.5 221.1,209.9 217.8,210.1 214.5,210 211.2,209.7 208,209.2 204.7,208.4 
	201.4,207.3 198.1,206 194.8,204.4 191.6,202.6 188.3,200.6 185,198.6 181.7,196.7 178.5,195.1 175.2,193.9 171.9,193.2 
	168.6,193.1 165.4,193.6 162.1,194.6 158.8,196.1 155.5,197.9 152.3,199.9 149,201.9 145.7,203.8 142.4,205.5 139.2,207 
	135.9,208.2 132.6,209.2 129.3,209.9 126.1,210.4 122.8,210.8 119.5,211 116.2,211.2 112.9,211.3 109.7,211.4 106.4,211.4 
	103.1,211.4 99.8,211.4 96.6,211.4 93.3,211.4 90,211.4 86.7,211.4 83.5,211.4 80.2,211.4 76.9,211.4 73.6,211.4 70.4,211.4 
	67.1,211.4 63.8,211.4 60.5,211.4 57.3,211.4 54,211.4 50.7,211.4 47.4,211.4 44.1,211.4 40.9,211.4 37.6,211.4 34.3,211.4 
	31,211.4 31,211.7 34.7,211.7 38,211.7 41.3,211.7 44.5,211.7 47.8,211.7 51.1,211.7 54.4,211.7 57.7,211.7 60.9,211.7 64.2,211.7 
	67.5,211.7 70.8,211.7 74.6,211.7 77.8,211.7 81.1,211.7 84.4,211.7 87.7,211.7 90.9,211.7 94.2,211.7 97.5,211.7 100.8,211.7 
	104.1,211.7 107.3,211.7 110.6,211.7 113.9,211.7 117.2,211.7 120.4,211.7 123.7,211.7 127,211.7 130.3,211.7 133.6,211.7 
	137.4,211.7 140.7,211.7 144,211.7 147.2,211.7 150.5,211.7 153.8,211.7 157.1,211.7 160.3,211.7 163.6,211.7 166.9,211.7 
	170.2,211.7 173.5,211.7 176.7,211.7 180,211.7 183.3,211.7 186.6,211.7 189.8,211.7 193.1,211.7 196.5,211.7 200.2,211.7 
	203.5,211.7 206.7,211.7 210,211.7 213.3,211.7 216.6,211.7 219.9,211.7 223.1,211.7 226.4,211.7 229.7,211.7 233,211.7 
	236.2,211.7 239.5,211.7 242.8,211.7 246.1,211.7 249.3,211.7 252.6,211.7 256,211.7 259.8,211.7 263,211.7 266.3,211.7 
	269.6,211.7 272.9,211.7 276.1,211.7 279.4,211.7 282.7,211.7 286,211.7 289.3,211.7 292.5,211.7 295.8,211.7 299.1,211.7 
	302.4,211.7 305.6,211.7 308.9,211.7 312.2,211.7 315.5,211.7 318.8,211.7 322.6,211.7 325.9,211.7 329.2,211.7 332.4,211.7 
	335.7,211.7 339,211.7 342.3,211.7 345.5,211.7 348.8,211.7 352.1,211.7 355.4,211.7 358.7,211.7 361.9,211.7 365.2,211.7 
	368.5,211.7 371.8,211.7 375,211.7 378.3,211.7 381.7,211.7 385.4,211.7 388.7,211.7 391.9,211.7 395.2,211.7 398.5,211.7 
	401.8,211.7 405.1,211.7 408.3,211.7 411.6,211.7 414.9,211.7 418.2,211.7 421.4,211.7 424.7,211.7 428,211.7 431.3,211.7 
	434.5,211.7 437.8,211.7 441.2,211.7 445,211.7 448.2,211.7 451.5,211.7 454.8,211.7 458.1,211.7 461.3,211.7 464.6,211.7 
	467.9,211.7 471.2,211.7 474.5,211.7 477.7,211.7 481,211.7 484.3,211.7 487.6,211.7 490.8,211.7 494.1,211.7 497.4,211.7 
	500.7,211.7 504,211.7 507.7,211.7 511,211.7 514.3,211.7 517.6,211.7 520.9,211.7 524.1,211.7 527.4,211.7 530.7,211.7 534,211.7 
	534.3,211.7 "/>
<g>
	<polygon class="st13" points="534.3,231.9 533.5,231.4 530.2,229 526.9,226.6 523.7,224.4 520.4,222.3 517.1,220.4 513.8,218.7 
		510.6,217.1 507.3,215.6 504,214.1 498.3,212.8 495,211.5 491.8,210.4 488.5,209.7 485.2,209.4 481.9,209.7 478.7,210.6 475.4,212 
		472.1,213.9 468.8,216.1 465.6,218.4 462.3,220.6 459,222.4 455.7,223.5 452.5,223.8 449.2,223.2 445.9,221.8 442.6,219.6 
		439.4,216.8 436.1,213.6 432.8,210.3 429.5,207.1 426.2,204.2 423,201.7 419.7,199.7 416.4,198.1 413.1,196.8 409.9,195.8 
		406.6,194.9 403.3,194.1 400,193.5 396.8,193 393.5,192.8 390.2,193.1 386.9,193.9 383.7,195.4 380.4,197.6 377.1,200.4 
		373.8,203.9 370.6,207.8 367.3,212.1 364,216.5 360.7,220.8 357.4,224.8 354.2,228.3 350.9,231.1 347.6,233.2 344.3,234.5 
		341.1,235 337.8,234.8 334.5,234 331.2,232.8 328,231.4 324.7,229.9 321.4,228.6 318.1,227.6 314.9,227 311.6,226.9 308.3,227.2 
		305,227.8 301.8,228.6 298.5,229.4 295.2,230 291.9,230.2 288.7,230 285.4,229.4 282.1,228.4 278.8,227.1 275.5,225.5 272.3,223.7 
		269,221.8 265.7,219.8 262.4,217.6 259.2,215.1 255.9,212.3 252.6,209.1 247.3,205.8 244,202.1 240.7,198.5 237.4,195.3 
		234.2,192.8 230.9,191.4 227.6,191.2 224.3,192.4 221.1,195 217.8,198.9 214.5,203.7 211.2,209.1 208,214.8 204.7,220.4 
		201.4,225.6 198.1,230.3 194.8,234.3 191.6,237.5 188.3,240 185,241.9 181.7,243.3 178.5,244.3 175.2,245 171.9,245.4 168.6,245.7 
		165.4,245.9 166.9,245.9 170.2,245.9 173.5,245.9 176.7,245.9 180,245.9 183.3,245.9 186.6,245.9 189.8,245.9 193.1,245.9 
		196.5,245.9 200.2,245.9 203.5,245.9 206.7,245.9 210,245.9 213.3,245.9 216.6,245.9 219.9,245.9 223.1,245.9 226.4,245.9 
		229.7,245.9 233,245.9 236.2,245.9 239.5,245.9 242.8,245.9 246.1,245.9 249.3,245.9 252.6,245.9 256,245.9 259.8,245.9 263,245.9 
		266.3,245.9 269.6,245.9 272.9,245.9 276.1,245.9 279.4,245.9 282.7,245.9 286,245.9 289.3,245.9 292.5,245.9 295.8,245.9 
		299.1,245.9 302.4,245.9 305.6,245.9 308.9,245.9 312.2,245.9 315.5,245.9 318.8,245.9 322.6,245.9 325.9,245.9 329.2,245.9 
		332.4,245.9 335.7,245.9 339,245.9 342.3,245.9 345.5,245.9 348.8,245.9 352.1,245.9 355.4,245.9 358.7,245.9 361.9,245.9 
		365.2,245.9 368.5,245.9 371.8,245.9 375,245.9 378.3,245.9 381.7,245.9 385.4,245.9 388.7,245.9 391.9,245.9 395.2,245.9 
		398.5,245.9 401.8,245.9 405.1,245.9 408.3,245.9 411.6,245.9 414.9,245.9 418.2,245.9 421.4,245.9 424.7,245.9 428,245.9 
		431.3,245.9 434.5,245.9 437.8,245.9 441.2,245.9 445,245.9 448.2,245.9 451.5,245.9 454.8,245.9 458.1,245.9 461.3,245.9 
		464.6,245.9 467.9,245.9 471.2,245.9 474.5,245.9 477.7,245.9 481,245.9 484.3,245.9 487.6,245.9 490.8,245.9 494.1,245.9 
		497.4,245.9 500.7,245.9 504,245.9 507.7,245.9 511,245.9 514.3,245.9 517.6,245.9 520.9,245.9 524.1,245.9 527.4,245.9 
		530.7,245.9 534,245.9 534.3,245.9 	"/>
	<polygon class="st13" points="160.3,245.9 157.1,245.9 153.8,245.9 150.5,245.9 147.2,245.9 144,245.9 140.7,245.9 137.4,245.9 
		133.6,245.9 130.3,245.9 127,245.9 123.7,245.9 120.4,245.9 117.2,245.9 113.9,245.9 110.6,245.9 107.3,245.9 104.1,245.9 
		100.8,245.9 97.5,245.9 94.2,245.9 90.9,245.9 87.7,245.9 84.4,245.9 81.1,245.9 77.8,245.9 74.6,245.9 70.8,245.9 67.5,245.9 
		64.2,245.9 60.9,245.9 57.7,245.9 54.4,245.9 51.1,245.9 47.8,245.9 44.5,245.9 41.3,245.9 38,245.9 34.7,245.9 31,245.9 31,246.1 
		34.3,246.1 37.6,246.1 40.9,246.1 44.1,246.1 47.4,246.1 50.7,246.1 54,246.1 57.3,246.1 60.5,246.1 63.8,246.1 67.1,246.1 
		70.4,246.1 73.6,246.1 76.9,246.1 80.2,246.1 83.5,246.1 86.7,246.1 90,246.1 93.3,246.1 96.6,246.1 99.8,246.1 103.1,246.1 
		106.4,246.1 109.7,246.1 112.9,246.1 116.2,246.1 119.5,246.1 122.8,246.1 126.1,246.1 129.3,246.1 132.6,246.1 135.9,246.1 
		139.2,246.1 142.4,246.1 145.7,246.1 149,246.1 152.3,246.1 155.5,246.1 158.8,246.1 162.1,246 165.4,245.9 163.6,245.9 	"/>
	<polygon class="st13" points="528.8,245.9 530.7,245.9 528.8,245.8 	"/>
</g>
<g>
	<polygon class="st14" points="76.9,281.5 73.6,281.1 70.4,280.5 67.1,279.7 63.8,278.7 60.5,277.4 57.3,275.8 54,274 50.7,272 
		47.4,270 44.1,268 40.9,266.3 37.6,264.9 34.3,264 31.4,263.7 31.4,281.9 34.7,281.9 38,281.9 41.3,281.9 44.5,281.9 47.8,281.9 
		51.1,281.9 54.4,281.9 57.7,281.9 60.9,281.9 64.2,281.9 67.5,281.9 70.8,281.9 74.6,281.9 77.8,281.9 81.1,281.9 81.8,281.9 
		80.2,281.8 	"/>
	<polygon class="st14" points="31,263.7 31.4,263.7 31.4,263.7 	"/>
	<polygon class="st14" points="534.3,261.6 532.3,261.6 529,261.2 525.7,260.4 522.5,259.2 519.2,257.6 515.9,255.7 512.6,253.6 
		509.4,251.6 506.1,249.9 502.8,248.7 499.5,248.2 496.2,248.5 493,249.6 489.7,251.4 486.4,253.9 483.1,256.9 479.9,260.2 
		476.6,263.5 473.3,266.8 470,269.8 466.8,272.5 463.5,274.8 460.2,276.7 456.9,278.2 453.7,279.3 450.4,280.1 447.1,280.7 
		443.8,281 440.6,281.2 437.3,281.2 434,281 430.7,280.7 427.5,280.2 424.2,279.5 420.9,278.5 417.6,277.2 414.3,275.7 411.1,273.9 
		407.8,272 404.5,270 401.2,268 398,266.3 394.7,264.9 391.4,264 388.1,263.7 384.9,264 381.6,264.8 378.3,266.1 371.8,268 
		368.5,269.8 365.2,271.6 361.9,273.3 358.7,274.6 355.4,275.5 352.1,275.9 348.8,275.6 345.5,274.7 342.3,273.1 339,270.9 
		335.7,268.1 332.4,264.8 329.2,261.3 325.9,257.7 322.6,254.3 319.3,251.3 316.1,249 312.8,247.6 309.5,247.2 306.2,247.9 
		303,249.6 299.7,252.1 296.4,255.2 293.1,258.7 289.9,262.3 286.6,265.8 283.3,269.1 280,271.9 276.8,274.2 273.5,275.9 270.2,277 
		266.9,277.5 263.6,277.5 260.4,276.9 257.1,275.9 253.8,274.5 250.5,272.8 247.3,270.9 244,269 240.7,267.2 237.4,265.7 
		234.2,264.6 230.9,264 227.6,264 224.3,264.6 221.1,265.8 217.8,267.4 214.5,269.3 211.2,271.3 208,273.3 204.7,275.2 201.4,276.9 
		198.1,278.3 194.8,279.4 191.6,280.3 188.3,281 185,281.5 181.7,281.8 180.1,281.9 183.3,281.9 186.6,281.9 189.8,281.9 
		193.1,281.9 196.5,281.9 200.2,281.9 203.5,281.9 206.7,281.9 210,281.9 213.3,281.9 216.6,281.9 219.9,281.9 223.1,281.9 
		226.4,281.9 229.7,281.9 233,281.9 236.2,281.9 239.5,281.9 242.8,281.9 246.1,281.9 249.3,281.9 252.6,281.9 256,281.9 
		259.8,281.9 263,281.9 266.3,281.9 269.6,281.9 272.9,281.9 276.1,281.9 279.4,281.9 282.7,281.9 286,281.9 289.3,281.9 
		292.5,281.9 295.8,281.9 299.1,281.9 302.4,281.9 305.6,281.9 308.9,281.9 312.2,281.9 315.5,281.9 318.8,281.9 322.6,281.9 
		325.9,281.9 329.2,281.9 332.4,281.9 335.7,281.9 339,281.9 342.3,281.9 345.5,281.9 348.8,281.9 352.1,281.9 355.4,281.9 
		358.7,281.9 361.9,281.9 365.2,281.9 368.5,281.9 371.8,281.9 375,281.9 378.3,281.9 381.7,281.9 385.4,281.9 388.7,281.9 
		391.9,281.9 395.2,281.9 398.5,281.9 401.8,281.9 405.1,281.9 408.3,281.9 411.6,281.9 414.9,281.9 418.2,281.9 421.4,281.9 
		424.7,281.9 428,281.9 431.3,281.9 434.5,281.9 437.8,281.9 441.2,281.9 445,281.9 448.2,281.9 451.5,281.9 454.8,281.9 
		458.1,281.9 461.3,281.9 464.6,281.9 467.9,281.9 471.2,281.9 474.5,281.9 477.7,281.9 481,281.9 484.3,281.9 487.6,281.9 
		490.8,281.9 494.1,281.9 497.4,281.9 500.7,281.9 504,281.9 507.7,281.9 511,281.9 514.3,281.9 517.6,281.9 520.9,281.9 
		524.1,281.9 527.4,281.9 530.7,281.9 534,281.9 534.3,281.9 	"/>
	<polygon class="st14" points="176.7,281.9 173.5,281.9 170.2,281.9 166.9,281.9 163.6,281.9 160.3,281.9 157.1,281.9 153.8,281.9 
		150.5,281.9 147.2,281.9 144,281.9 140.7,281.9 137.4,281.9 133.6,281.9 130.3,281.9 127,281.9 123.7,281.9 120.4,281.9 
		117.2,281.9 113.9,281.9 110.6,281.9 107.3,281.9 104.1,281.9 100.8,281.9 97.5,281.9 94.2,281.9 90.9,281.9 87.7,281.9 
		84.4,281.9 81.8,281.9 83.5,282 86.7,282.1 90,282.2 93.3,282.2 96.6,282.2 99.8,282.2 103.1,282.2 106.4,282.2 109.7,282.2 
		112.9,282.2 116.2,282.2 119.5,282.2 122.8,282.2 126.1,282.2 129.3,282.2 132.6,282.2 135.9,282.2 139.2,282.2 142.4,282.2 
		145.7,282.2 149,282.2 152.3,282.2 155.5,282.2 158.8,282.2 162.1,282.2 165.4,282.2 168.6,282.2 171.9,282.2 175.2,282.1 
		178.5,282 180.1,281.9 180,281.9 	"/>
</g>
<line class="st15" x1="31.9" y1="60.3" x2="31.4" y2="278.9"/>
<line class="st15" x1="157.6" y1="60.3" x2="157.2" y2="278.9"/>
<line class="st15" x1="283.4" y1="60.3" x2="282.9" y2="278.9"/>
<line class="st15" x1="409.1" y1="60.3" x2="408.7" y2="278.9"/>
<line class="st15" x1="534.9" y1="64.3" x2="534.4" y2="282.8"/>
<line class="st16" x1="223.6" y1="46.4" x2="223.6" y2="155.2"/>
</svg>
