<?xml version="1.0" encoding="utf-8"?>
<!-- Generator: Adobe Illustrator 22.1.0, SVG Export Plug-In . SVG Version: 6.00 Build 0)  -->
<svg version="1.1" id="Layer_1" xmlns="http://www.w3.org/2000/svg" xmlns:xlink="http://www.w3.org/1999/xlink" x="0px" y="0px"
	 viewBox="0 0 500 500" style="enable-background:new 0 0 500 500;" xml:space="preserve">
<style type="text/css">
	.st0{fill:#E0E0E0;}
	.st1{fill:#A5A5B9;}
	.st2{font-family:'RobotoMono-Regular';}
	.st3{font-size:11.2745px;}
	.st4{fill:none;stroke:#A8A8A8;stroke-width:1.1052;stroke-miterlimit:10;}
	.st5{fill:#514361;}
	.st6{font-size:19.7303px;}
	.st7{enable-background:new    ;}
	.st8{font-family:'Roboto-Italic';}
	.st9{font-size:12.6838px;}
	.st10{opacity:0.14;fill:#E0E0E0;}
</style>
<path class="st0" d="M46.1,439.5c129.4-38.1,149-317.6,228.4-317.6c77.2,0,103.3,268.6,204.5,317.9
	C363.7,439.7,46.1,439.5,46.1,439.5z"/>
<text transform="matrix(1 0 0 1 33.7056 455.8271)" class="st1 st2 st3">0</text>
<text transform="matrix(1 0 0 1 111.6216 455.8271)" class="st1 st2 st3">1</text>
<text transform="matrix(1 0 0 1 196.4292 455.8271)" class="st1 st2 st3">2</text>
<text transform="matrix(1 0 0 1 281.2383 455.8271)" class="st1 st2 st3">3</text>
<text transform="matrix(1 0 0 1 366.0449 455.8271)" class="st1 st2 st3">4</text>
<text transform="matrix(1 0 0 1 452.3643 455.8271)" class="st1 st2 st3">5</text>
<path class="st4" d="M44.7,439.9h449.9"/>
<path class="st4" d="M44.7,439.9v-10.6"/>
<path class="st4" d="M115.7,439.9v-10.6"/>
<path class="st4" d="M200.4,439.9v-10.6"/>
<path class="st4" d="M285.3,439.9v-10.6"/>
<path class="st4" d="M370.1,439.9v-10.6"/>
<path class="st4" d="M454.9,439.9v-10.6"/>
<text transform="matrix(1 0 0 1 24.7476 358.3506)" class="st1 st2 st3">20</text>
<text transform="matrix(1 0 0 1 24.7476 273.5439)" class="st1 st2 st3">40</text>
<text transform="matrix(1 0 0 1 24.7476 188.7349)" class="st1 st2 st3">60</text>
<text transform="matrix(1 0 0 1 24.7476 103.9272)" class="st1 st2 st3">80</text>
<text transform="matrix(1 0 0 1 16.6646 19.1196)" class="st1 st2 st3">100</text>
<path class="st4" d="M44.7,439.9V15.9"/>
<path class="st4" d="M44.7,270.4v169.6h10.6"/>
<path class="st4" d="M44.7,355.1h10.6"/>
<path class="st4" d="M44.7,185.5h10.6"/>
<path class="st4" d="M44.7,270.4h10.6"/>
<path class="st4" d="M44.7,100.7h10.6"/>
<path class="st4" d="M44.7,15.9h10.6"/>
<text transform="matrix(1 0 0 1 60.3364 28.4214)" class="st5 st2 st6">Y axis</text>
<text transform="matrix(1 0 0 1 225.5527 346.8604)" class="st7"><tspan x="0" y="0" class="st5 st2 st6">shape of</tspan><tspan x="-23.7" y="23.7" class="st5 st2 st6">distribution</tspan></text>
<text transform="matrix(1 0 0 1 55.3247 45.2173)" class="st5 st8 st9">typically shows a number scale</text>
<text transform="matrix(1 0 0 1 368.5508 489.1475)" class="st5 st2 st6">X axis</text>
<path class="st10" d="M46.1,439.5"/>
</svg>
