<?xml version="1.0" encoding="utf-8"?>
<!-- Generator: Adobe Illustrator 22.1.0, SVG Export Plug-In . SVG Version: 6.00 Build 0)  -->
<svg version="1.1" id="Layer_1" xmlns="http://www.w3.org/2000/svg" xmlns:xlink="http://www.w3.org/1999/xlink" x="0px" y="0px"
	 viewBox="0 0 1268 418" style="enable-background:new 0 0 1268 418;" xml:space="preserve">
<style type="text/css">
	.st0{fill:none;stroke:#DDDDDD;stroke-dasharray:3,2;}
	.st1{fill:#9B9B9B;}
	.st2{font-family:'RobotoMono-Regular';}
	.st3{font-size:19.785px;}
	.st4{fill:#AAAAC1;fill-opacity:0.7;stroke:#FFFFFF;}
	.st5{fill:none;stroke:#AAAAAA;stroke-width:0.25;}
	.st6{fill:none;}
	.st7{opacity:0.71;}
	.st8{fill:#575472;fill-opacity:0.7;stroke:#FFFFFF;}
	.st9{clip-path:url(#SVGID_2_);}
	.st10{opacity:0.71;fill:#575472;fill-opacity:0.7;stroke:#FFFFFF;}
	.st11{clip-path:url(#SVGID_4_);}
	.st12{clip-path:url(#SVGID_6_);}
	.st13{clip-path:url(#SVGID_8_);}
	.st14{clip-path:url(#SVGID_10_);}
	.st15{fill:#B59C7C;fill-opacity:0.7;stroke:#FFFFFF;}
	.st16{clip-path:url(#SVGID_12_);}
	.st17{fill:#D1C890;fill-opacity:0.7;stroke:#FFFFFF;}
</style>
<g id="vertical">
	<line class="st0" x1="109.6" y1="0" x2="109.6" y2="389.9"/>
	<line class="st0" x1="313.4" y1="0" x2="313.4" y2="389.9"/>
	<line class="st0" x1="477.6" y1="0" x2="477.6" y2="389.9"/>
	<line class="st0" x1="639.9" y1="0" x2="639.9" y2="389.9"/>
	<line class="st0" x1="831.8" y1="0" x2="831.8" y2="389.9"/>
	<line class="st0" x1="1025.7" y1="0" x2="1025.7" y2="389.9"/>
</g>
<g id="labels">
	<text transform="matrix(1 0 0 1 90.2961 413.3737)" class="st1 st2 st3">Mon</text>
	<text transform="matrix(1 0 0 1 296.5002 413.3737)" class="st1 st2 st3">Tue</text>
	<text transform="matrix(1 0 0 1 459.5627 413.3737)" class="st1 st2 st3">Wed</text>
	<text transform="matrix(1 0 0 1 617.5837 413.3737)" class="st1 st2 st3">Thur</text>
	<text transform="matrix(1 0 0 1 812.8776 413.3737)" class="st1 st2 st3">Fri</text>
	<text transform="matrix(1 0 0 1 1011.1286 413.3737)" class="st1 st2 st3">Sat</text>
	<text transform="matrix(1 0 0 1 1111.9381 104.9265)" class="st1 st2 st3">math</text>
	<text transform="matrix(1 0 0 1 1111.9381 141.5173)" class="st1 st2 st3">physics</text>
	<text transform="matrix(1 0 0 1 1111.9381 176.2569)" class="st1 st2 st3">chemistry</text>
	<text transform="matrix(1 0 0 1 1111.9381 209.9999)" class="st1 st2 st3">biology</text>
	<text transform="matrix(1 0 0 1 1111.9381 245.7362)" class="st1 st2 st3">history</text>
	<text transform="matrix(1 0 0 1 1111.9381 280.4756)" class="st1 st2 st3">literature</text>
	<text transform="matrix(1 0 0 1 1111.9381 314.2748)" class="st1 st2 st3">music</text>
	<text transform="matrix(1 0 0 1 1111.9381 349.9543)" class="st1 st2 st3">dance</text>
	<text transform="matrix(1 0 0 1 1111.9381 389.0362)" class="st1 st2 st3">art</text>
</g>
<g id="density_plots">
	<g transform="translate(0,0)">
		<g>
			<g>
				<path class="st4" d="M108.6,107.1l4.9,0l4.9-0.1l4.9-0.1l4.9-0.2l4.9-0.3l4.9-0.4l4.9-0.5l4.9-0.7l4.9-1l4.9-1.3l4.9-1.5
					l4.9-1.8l4.9-2l4.9-2l4.9-2l4.9-1.8l4.9-1.5l4.9-1.1l4.9-0.6l4.9-0.1l4.9,0.3l4.9,0.6l4.9,0.8l4.9,0.7l4.9,0.5l4.9,0.1l4.9-0.3
					l4.9-0.8l4.9-1.2l4.9-1.5l4.9-1.7l4.9-1.8l4.9-1.7l4.9-1.5l4.9-1.2l4.9-0.9l4.9-0.5l4.9-0.2l4.9,0.1l4.9,0.4l4.9,0.6l4.9,0.7
					l4.9,0.6l4.9,0.5l4.9,0.2l4.9-0.1l4.9-0.6l4.9-1l4.9-1.5l4.9-1.8l4.9-1.9l4.9-2l4.9-1.8l4.9-1.6l4.9-1.2l4.9-0.8l4.9-0.4l4.9,0
					l4.9,0.3l4.9,0.5l4.9,0.5l4.9,0.5l4.9,0.2l4.9-0.2l4.9-0.7l4.9-1.4l4.9-2.2L445,61l4.9-3.6l4.9-4.1l4.9-4.4l4.9-4.3l4.9-3.8
					l4.9-3l4.9-1.9l4.9-0.8l4.9,0.4l4.9,1.3l4.9,1.9l4.9,2.1l4.9,1.8l4.9,1.2l4.9,0.3l4.9-0.7l4.9-1.5l4.9-2.2l4.9-2.4l4.9-2.1
					l4.9-1.5l4.9-0.5l4.9,0.7l4.9,1.8l4.9,2.7l4.9,3.2l4.9,3.1l4.9,2.5l4.9,1.4l4.9-0.1l4.9-1.8l4.9-3.5l4.9-5.1l4.9-6.3l4.9-6.9
					l4.9-7l4.9-6.5l4.9-5.4l4.9-3.9l4.9-2.1l4.9-0.2l4.9,1.7l4.9,3.3l4.9,4.5l4.9,5.3l4.9,5.6l4.9,5.3l4.9,4.6l4.9,3.6l4.9,2.4
					l4.9,1.2l4.9,0.1l4.9-0.8l4.9-1.4l4.9-1.7l4.9-1.7l4.9-1.4l4.9-0.9l4.9-0.3l4.9,0.4l4.9,1l4.9,1.5l4.9,2l4.9,2.4l4.9,2.7
					l4.9,2.9l4.9,3.1l4.9,3.3l4.9,3.4l4.9,3.5l4.9,3.6l4.9,3.7l4.9,3.7l4.9,3.8l4.9,3.8l4.9,3.8l4.9,3.8l4.9,3.7l4.9,3.5l4.9,3.3
					l4.9,2.9l4.9,2.6l4.9,2.2l4.9,1.8l4.9,1.5l4.9,1.1l4.9,0.8l4.9,0.6l4.9,0.4l4.9,0.3l4.9,0.2l4.9,0.1l4.9,0.1l4.9,0l4.9,0l4.9,0
					l4.9,0l4.9,0l4.9,0l4.9,0l4.9,0l4.9,0l4.9,0h4.9l4.9,0l4.9,0l4.9,0l4.9,0l4.9,0l4.9,0l4.9,0l4.9,0l4.9,0l4.9,0l4.9-0.1l4.9-0.1
					l4.9-0.2l4.9-0.3l4.9-0.4l4.9-0.6l4.9-0.8l4.9-1l4.9-1.3l4.9-1.6l4.9-1.8l4.9-2l4.9-2l4.9-2l4.9-1.7l4.9-1.4l4.9-0.9l4.9-0.3
					v18.3h-4.9h-4.9h-4.9h-4.9h-4.9h-4.9h-4.9h-4.9h-4.9h-4.9h-4.9h-4.9h-4.9h-4.9h-4.9h-4.9h-4.9h-4.9h-4.9H999H994h-4.9h-4.9h-4.9
					h-4.9h-4.9h-4.9h-4.9h-4.9h-4.9h-4.9h-4.9h-4.9h-4.9h-4.9h-4.9h-4.9h-4.9H905H900h-4.9h-4.9h-4.9h-4.9h-4.9h-4.9h-4.9h-4.9h-4.9
					h-4.9h-4.9h-4.9h-4.9h-4.9h-4.9h-4.9H816H811h-4.9h-4.9h-4.9h-4.9h-4.9h-4.9h-4.9h-4.9h-4.9h-4.9h-4.9h-4.9h-4.9h-4.9h-4.9h-4.9
					h-4.9H722H717h-4.9h-4.9h-4.9h-4.9h-4.9h-4.9h-4.9h-4.9h-4.9h-4.9h-4.9h-4.9h-4.9h-4.9h-4.9h-4.9H633H628h-4.9h-4.9h-4.9h-4.9
					h-4.9h-4.9h-4.9h-4.9h-4.9h-4.9h-4.9h-4.9h-4.9h-4.9h-4.9h-4.9h-4.9H539H534h-4.9h-4.9h-4.9h-4.9h-4.9h-4.9h-4.9h-4.9h-4.9h-4.9
					h-4.9h-4.9h-4.9h-4.9h-4.9h-4.9h-4.9H445H440h-4.9h-4.9h-4.9h-4.9h-4.9h-4.9h-4.9h-4.9h-4.9h-4.9h-4.9h-4.9h-4.9h-4.9h-4.9h-4.9
					H356H351h-4.9h-4.9h-4.9h-4.9h-4.9h-4.9h-4.9h-4.9h-4.9h-4.9h-4.9h-4.9h-4.9h-4.9h-4.9h-4.9h-4.9H262H257h-4.9h-4.9h-4.9h-4.9
					h-4.9h-4.9h-4.9h-4.9h-4.9h-4.9h-4.9h-4.9h-4.9h-4.9h-4.9h-4.9h-4.9H168h-4.9h-4.9h-4.9h-4.9h-4.9h-4.9h-4.9h-4.9h-4.9h-4.9
					h-4.9L108.6,107.1L108.6,107.1z"/>
			</g>
		</g>
	</g>
	<g transform="translate(0,40)">
		<g>
			<g>
				<g>
					<line class="st5" x1="331.8" y1="65.9" x2="1097.9" y2="65.9"/>
				</g>
			</g>
		</g>
	</g>
	<g transform="translate(0,60)">
		<path class="st6" d="M108.6,46.8h989.3v34.7H108.6V46.8z"/>
		<g>
			<g class="st7">
				<path class="st8" d="M108.6,81.5h4.9h4.9h4.9h4.9h4.9h4.9h4.9h4.9h4.9h4.9h4.9h4.9l4.9,0l4.9,0l4.9,0l4.9,0l4.9,0l4.9,0l4.9,0
					l4.9,0l4.9,0l4.9,0l4.9,0l4.9,0l4.9-0.1l4.9-0.1l4.9-0.2l4.9-0.2l4.9-0.4L257,80l4.9-0.7l4.9-1l4.9-1.2l4.9-1.5l4.9-1.7l4.9-1.9
					l4.9-2l4.9-2l4.9-1.8l4.9-1.5l4.9-1l4.9-0.5l4.9,0.1l4.9,0.7l4.9,1.2l4.9,1.6l4.9,1.9l4.9,2l4.9,1.9l4.9,1.8l4.9,1.5l4.9,1.1
					l4.9,0.7l4.9,0.3l4.9-0.2l4.9-0.7l4.9-1.2l4.9-1.8l4.9-2.4l4.9-3.1l4.9-3.8l4.9-4.5l4.9-5.1l4.9-5.7l4.9-6.1l4.9-6.3L440,31
					l4.9-6.2l4.9-5.7l4.9-5.1l4.9-4.3l4.9-3.3l4.9-2.3l4.9-1.3l4.9-0.4l4.9,0.5l4.9,1.2l4.9,1.8l4.9,2.3l4.9,2.8l4.9,3.2l4.9,3.6
					l4.9,4l4.9,4.4l4.9,4.8L534,36l4.9,5.4l4.9,5.5l4.9,5.4l4.9,5.2l4.9,4.7l4.9,4.2l4.9,3.6l4.9,3l4.9,2.4l4.9,1.8l4.9,1.4l4.9,1
					l4.9,0.7l4.9,0.5l4.9,0.3l4.9,0.2l4.9,0.1l4.9,0.1l4.9,0l4.9,0l4.9,0l4.9,0l4.9,0l4.9,0l4.9,0l4.9,0l4.9,0l4.9,0l4.9,0l4.9,0
					h4.9h4.9h4.9h4.9h4.9h4.9h4.9h4.9h4.9h4.9h4.9h4.9h4.9h4.9h4.9h4.9h4.9h4.9h4.9h4.9h4.9h4.9h4.9h4.9h4.9h4.9h4.9h4.9h4.9h4.9
					h4.9h4.9h4.9h4.9h4.9h4.9h4.9h4.9h4.9h4.9h4.9h4.9h4.9h4.9h4.9h4.9h4.9h4.9h4.9h4.9h4.9h4.9h4.9h4.9h4.9h4.9h4.9h4.9h4.9h4.9
					h4.9h4.9h4.9h4.9h4.9h4.9h4.9h4.9h4.9h4.9h4.9h4.9h4.9h4.9h4.9h4.9h4.9h4.9h4.9h4.9h4.9h4.9h4.9h4.9l0,0h-4.9h-4.9h-4.9h-4.9
					h-4.9h-4.9h-4.9h-4.9h-4.9h-4.9h-4.9h-4.9h-4.9h-4.9h-4.9h-4.9h-4.9h-4.9h-4.9H999H994h-4.9h-4.9h-4.9h-4.9h-4.9h-4.9h-4.9h-4.9
					h-4.9h-4.9h-4.9h-4.9h-4.9h-4.9h-4.9h-4.9h-4.9H905H900h-4.9h-4.9h-4.9h-4.9h-4.9h-4.9h-4.9h-4.9h-4.9h-4.9h-4.9h-4.9h-4.9h-4.9
					h-4.9h-4.9H816H811h-4.9h-4.9h-4.9h-4.9h-4.9h-4.9h-4.9h-4.9h-4.9h-4.9h-4.9h-4.9h-4.9h-4.9h-4.9h-4.9h-4.9H722H717h-4.9h-4.9
					h-4.9h-4.9h-4.9h-4.9h-4.9h-4.9h-4.9h-4.9h-4.9h-4.9h-4.9h-4.9h-4.9h-4.9H633H628h-4.9h-4.9h-4.9h-4.9h-4.9h-4.9h-4.9h-4.9h-4.9
					h-4.9h-4.9h-4.9h-4.9h-4.9h-4.9h-4.9h-4.9H539H534h-4.9h-4.9h-4.9h-4.9h-4.9h-4.9h-4.9h-4.9h-4.9h-4.9h-4.9h-4.9h-4.9h-4.9h-4.9
					h-4.9h-4.9H445H440h-4.9h-4.9h-4.9h-4.9h-4.9h-4.9h-4.9h-4.9h-4.9h-4.9h-4.9h-4.9h-4.9h-4.9h-4.9h-4.9H356H351h-4.9h-4.9h-4.9
					h-4.9h-4.9h-4.9h-4.9h-4.9h-4.9h-4.9h-4.9h-4.9h-4.9h-4.9h-4.9h-4.9h-4.9H262H257h-4.9h-4.9h-4.9h-4.9h-4.9h-4.9h-4.9h-4.9h-4.9
					h-4.9h-4.9h-4.9h-4.9h-4.9h-4.9h-4.9h-4.9H168h-4.9h-4.9h-4.9h-4.9h-4.9h-4.9h-4.9h-4.9h-4.9h-4.9h-4.9H108.6z"/>
			</g>
			<g>
				<defs>
					<rect id="SVGID_1_" x="108.6" y="46.8" width="989.3" height="34.7"/>
				</defs>
				<clipPath id="SVGID_2_">
					<use xlink:href="#SVGID_1_"  style="overflow:visible;"/>
				</clipPath>
				<g class="st9">
					<line class="st5" x1="259.6" y1="80.6" x2="1097.9" y2="80.6"/>
				</g>
			</g>
		</g>
	</g>
	<g transform="translate(0,80)">
		<path class="st6" d="M108.6,61.5h989.3v34.7H108.6V61.5z"/>
		<g>
			<g>
				<path class="st10" d="M108.6,96.3h4.9h4.9h4.9h4.9h4.9h4.9h4.9h4.9h4.9h4.9h4.9h4.9l4.9,0l4.9,0l4.9,0l4.9,0l4.9,0l4.9,0l4.9,0
					l4.9,0l4.9,0l4.9,0l4.9,0l4.9,0l4.9-0.1l4.9-0.1l4.9-0.2l4.9-0.2l4.9-0.4l4.9-0.5l4.9-0.7l4.9-1l4.9-1.2l4.9-1.5l4.9-1.7
					l4.9-1.9l4.9-2l4.9-2l4.9-1.8l4.9-1.5l4.9-1l4.9-0.5l4.9,0.1l4.9,0.7l4.9,1.2l4.9,1.6l4.9,1.9l4.9,2l4.9,2l4.9,1.8l4.9,1.6
					l4.9,1.3l4.9,1.1l4.9,0.8l4.9,0.5l4.9,0.3l4.9,0.1l4.9-0.2l4.9-0.4l4.9-0.7l4.9-1l4.9-1.3l4.9-1.7l4.9-2.1l4.9-2.5l4.9-3
					l4.9-3.4l4.9-3.7l4.9-4l4.9-4.2l4.9-4.3l4.9-4.3l4.9-4.1l4.9-3.9l4.9-3.5l4.9-2.9l4.9-2.1l4.9-1.3l4.9-0.3l4.9,0.8l4.9,1.9
					l4.9,2.8l4.9,3.7l4.9,4.3l4.9,4.8l4.9,5l4.9,5l4.9,4.8l4.9,4.4l4.9,3.9l4.9,3.4l4.9,2.8l4.9,2.2l4.9,1.7l4.9,1.3l4.9,1l4.9,0.7
					l4.9,0.4l4.9,0.3l4.9,0.2l4.9,0.1l4.9,0l4.9-0.1l4.9-0.2l4.9-0.3L633,95l4.9-0.6l4.9-0.8l4.9-1.1l4.9-1.3l4.9-1.6l4.9-1.8l4.9-2
					l4.9-2l4.9-1.9l4.9-1.7l4.9-1.3l4.9-0.8l4.9-0.2l4.9,0.4l4.9,0.9l4.9,1.4l4.9,1.6L722,84l4.9,1.6l4.9,1.4l4.9,1l4.9,0.5l4.9-0.1
					l4.9-0.6l4.9-1.1l4.9-1.4l4.9-1.7l4.9-1.7l4.9-1.6l4.9-1.3l4.9-0.8l4.9-0.3l4.9,0.3l4.9,0.9l4.9,1.4l4.9,1.7l4.9,2l4.9,2l4.9,2
					l4.9,1.8l4.9,1.5l4.9,1.3l4.9,1l4.9,0.7l4.9,0.4l4.9,0.2l4.9-0.1l4.9-0.4l4.9-0.6l4.9-0.9l4.9-1.2l4.9-1.5l4.9-1.8l4.9-2.1
					l4.9-2.3l4.9-2.4l4.9-2.4l4.9-2.3l4.9-2.1l4.9-1.8l4.9-1.5l4.9-1.1l4.9-0.7l4.9-0.4l4.9,0l4.9,0.4l4.9,0.7l4.9,1.1l4.9,1.5
					l4.9,1.8l4.9,2.1l4.9,2.3l4.9,2.4l4.9,2.4l4.9,2.3l4.9,2.1l4.9,1.9l4.9,1.6l4.9,1.3l4.9,1l4.9,0.7l4.9,0.5l4.9,0.4l4.9,0.2
					l4.9,0.2l4.9,0.1l4.9,0.1l4.9,0l4.9,0l4.9,0l4.9,0l4.9,0l4.9,0l4.9,0v0h-4.9h-4.9h-4.9h-4.9h-4.9h-4.9h-4.9h-4.9h-4.9h-4.9h-4.9
					h-4.9h-4.9h-4.9h-4.9h-4.9h-4.9h-4.9h-4.9H999H994h-4.9h-4.9h-4.9h-4.9h-4.9h-4.9h-4.9h-4.9h-4.9h-4.9h-4.9h-4.9h-4.9h-4.9h-4.9
					h-4.9h-4.9H905H900h-4.9h-4.9h-4.9h-4.9h-4.9h-4.9h-4.9h-4.9h-4.9h-4.9h-4.9h-4.9h-4.9h-4.9h-4.9h-4.9H816H811h-4.9h-4.9h-4.9
					h-4.9h-4.9h-4.9h-4.9h-4.9h-4.9h-4.9h-4.9h-4.9h-4.9h-4.9h-4.9h-4.9h-4.9H722H717h-4.9h-4.9h-4.9h-4.9h-4.9h-4.9h-4.9h-4.9h-4.9
					h-4.9h-4.9h-4.9h-4.9h-4.9h-4.9h-4.9H633H628h-4.9h-4.9h-4.9h-4.9h-4.9h-4.9h-4.9h-4.9h-4.9h-4.9h-4.9h-4.9h-4.9h-4.9h-4.9h-4.9
					h-4.9H539H534h-4.9h-4.9h-4.9h-4.9h-4.9h-4.9h-4.9h-4.9h-4.9h-4.9h-4.9h-4.9h-4.9h-4.9h-4.9h-4.9h-4.9H445H440h-4.9h-4.9h-4.9
					h-4.9h-4.9h-4.9h-4.9h-4.9h-4.9h-4.9h-4.9h-4.9h-4.9h-4.9h-4.9h-4.9H356H351h-4.9h-4.9h-4.9h-4.9h-4.9h-4.9h-4.9h-4.9h-4.9h-4.9
					h-4.9h-4.9h-4.9h-4.9h-4.9h-4.9h-4.9H262H257h-4.9h-4.9h-4.9h-4.9h-4.9h-4.9h-4.9h-4.9h-4.9h-4.9h-4.9h-4.9h-4.9h-4.9h-4.9h-4.9
					h-4.9H168h-4.9h-4.9h-4.9h-4.9h-4.9h-4.9h-4.9h-4.9h-4.9h-4.9h-4.9H108.6z"/>
			</g>
			<g>
				<defs>
					<rect id="SVGID_3_" x="108.6" y="61.5" width="989.3" height="34.7"/>
				</defs>
				<clipPath id="SVGID_4_">
					<use xlink:href="#SVGID_3_"  style="overflow:visible;"/>
				</clipPath>
				<g class="st11">
					<line class="st5" x1="259.6" y1="95.4" x2="1097.9" y2="95.4"/>
				</g>
			</g>
		</g>
	</g>
	<g transform="translate(0,100)">
		<path class="st6" d="M108.6,76.3h989.3V111H108.6V76.3z"/>
		<g>
			<g>
				<path class="st10" d="M108.6,111h4.9h4.9h4.9h4.9h4.9h4.9h4.9h4.9h4.9h4.9h4.9h4.9h4.9h4.9h4.9h4.9h4.9h4.9h4.9h4.9h4.9h4.9h4.9
					h4.9h4.9h4.9h4.9l4.9,0l4.9,0l4.9,0l4.9,0l4.9,0l4.9,0l4.9,0l4.9,0l4.9,0l4.9,0l4.9,0l4.9,0l4.9-0.1l4.9-0.1l4.9-0.2l4.9-0.3
					l4.9-0.4l4.9-0.7l4.9-1l4.9-1.4l4.9-1.9l4.9-2.5l4.9-3.2l4.9-4l4.9-4.7l4.9-5.2l4.9-5.6l4.9-5.7l4.9-5.4l4.9-4.8l4.9-3.9
					l4.9-2.6l4.9-1.2l4.9,0.2l4.9,1.4l4.9,2.5l4.9,3.2l4.9,3.6l4.9,3.7L440,74l4.9,3.2l4.9,2.8l4.9,2.5l4.9,2.2l4.9,2l4.9,1.9
					l4.9,1.8l4.9,1.6l4.9,1.3l4.9,1l4.9,0.6l4.9,0.2l4.9-0.2l4.9-0.6l4.9-0.8l4.9-0.8l4.9-0.6l4.9-0.3l4.9,0.1l4.9,0.6l4.9,1
					l4.9,1.3l4.9,1.5l4.9,1.4l4.9,1.2l4.9,0.8l4.9,0.2l4.9-0.5l4.9-1.3l4.9-2.1l4.9-2.8l4.9-3.5l4.9-4l4.9-4.3l4.9-4.4l4.9-4.3
					l4.9-3.9l4.9-3.5l4.9-2.8l4.9-2.2l4.9-1.5l4.9-0.8l4.9-0.3l4.9,0.2l4.9,0.5l4.9,0.6l4.9,0.8l4.9,0.9l4.9,1l4.9,1.3l4.9,1.6
					l4.9,2l4.9,2.5l4.9,2.9l4.9,3.2l4.9,3.3l4.9,3.2l4.9,2.8l4.9,2.2l4.9,1.4l4.9,0.6l4.9-0.3l4.9-1.1l4.9-1.8l4.9-2.2l4.9-2.3
					l4.9-2.2l4.9-1.9l4.9-1.4l4.9-0.9l4.9-0.3l4.9,0.3l4.9,0.7l4.9,1.1l4.9,1.3L816,79l4.9,1.5l4.9,1.5l4.9,1.6l4.9,1.7l4.9,1.9
					l4.9,2.1l4.9,2.2l4.9,2.4l4.9,2.4l4.9,2.4l4.9,2.3l4.9,2.1l4.9,1.8l4.9,1.6l4.9,1.3l4.9,1l4.9,0.7l4.9,0.5l4.9,0.3l4.9,0.2
					l4.9,0.1l4.9,0l4.9-0.1l4.9-0.2l4.9-0.4l4.9-0.5l4.9-0.7l4.9-1l4.9-1.2l4.9-1.5l4.9-1.8l4.9-1.9l4.9-2l4.9-2l4.9-1.8L994,94
					l4.9-1l4.9-0.4l4.9,0.2l4.9,0.8l4.9,1.3l4.9,1.7l4.9,1.9l4.9,2l4.9,2l4.9,1.8l4.9,1.6l4.9,1.3l4.9,1.1l4.9,0.8l4.9,0.6l4.9,0.4
					l4.9,0.3l4.9,0.2l4.9,0.1l4.9,0.1l4.9,0v0h-4.9h-4.9h-4.9h-4.9h-4.9h-4.9h-4.9h-4.9h-4.9h-4.9h-4.9h-4.9h-4.9h-4.9h-4.9h-4.9
					h-4.9h-4.9h-4.9H999H994h-4.9h-4.9h-4.9h-4.9h-4.9h-4.9h-4.9h-4.9h-4.9h-4.9h-4.9h-4.9h-4.9h-4.9h-4.9h-4.9h-4.9H905H900h-4.9
					h-4.9h-4.9h-4.9h-4.9h-4.9h-4.9h-4.9h-4.9h-4.9h-4.9h-4.9h-4.9h-4.9h-4.9h-4.9H816H811h-4.9h-4.9h-4.9h-4.9h-4.9h-4.9h-4.9h-4.9
					h-4.9h-4.9h-4.9h-4.9h-4.9h-4.9h-4.9h-4.9h-4.9H722H717h-4.9h-4.9h-4.9h-4.9h-4.9h-4.9h-4.9h-4.9h-4.9h-4.9h-4.9h-4.9h-4.9h-4.9
					h-4.9h-4.9H633H628h-4.9h-4.9h-4.9h-4.9h-4.9h-4.9h-4.9h-4.9h-4.9h-4.9h-4.9h-4.9h-4.9h-4.9h-4.9h-4.9h-4.9H539H534h-4.9h-4.9
					h-4.9h-4.9h-4.9h-4.9h-4.9h-4.9h-4.9h-4.9h-4.9h-4.9h-4.9h-4.9h-4.9h-4.9h-4.9H445H440h-4.9h-4.9h-4.9h-4.9h-4.9h-4.9h-4.9h-4.9
					h-4.9h-4.9h-4.9h-4.9h-4.9h-4.9h-4.9h-4.9H356H351h-4.9h-4.9h-4.9h-4.9h-4.9h-4.9h-4.9h-4.9h-4.9h-4.9h-4.9h-4.9h-4.9h-4.9h-4.9
					h-4.9h-4.9H262H257h-4.9h-4.9h-4.9h-4.9h-4.9h-4.9h-4.9h-4.9h-4.9h-4.9h-4.9h-4.9h-4.9h-4.9h-4.9h-4.9h-4.9H168h-4.9h-4.9h-4.9
					h-4.9h-4.9h-4.9h-4.9h-4.9h-4.9h-4.9h-4.9H108.6z"/>
			</g>
			<g>
				<defs>
					<rect id="SVGID_5_" x="108.6" y="76.3" width="989.3" height="34.7"/>
				</defs>
				<clipPath id="SVGID_6_">
					<use xlink:href="#SVGID_5_"  style="overflow:visible;"/>
				</clipPath>
				<g class="st12">
					<line class="st5" x1="331.4" y1="110.1" x2="1097.9" y2="110.1"/>
				</g>
			</g>
		</g>
	</g>
	<g transform="translate(0,120)">
		<path class="st6" d="M108.6,91h989.3v34.7H108.6V91z"/>
		<g>
			<g>
				<path class="st10" d="M108.6,125.7h4.9h4.9h4.9h4.9h4.9h4.9h4.9h4.9h4.9h4.9h4.9h4.9h4.9h4.9h4.9h4.9h4.9h4.9h4.9h4.9h4.9h4.9
					h4.9h4.9h4.9h4.9h4.9h4.9l4.9,0h4.9l4.9,0l4.9,0l4.9,0l4.9,0l4.9,0l4.9,0l4.9,0l4.9,0l4.9,0l4.9,0l4.9,0l4.9-0.1l4.9-0.1
					l4.9-0.2l4.9-0.3l4.9-0.5l4.9-0.7l4.9-1l4.9-1.4l4.9-1.9l4.9-2.5l4.9-3.1l4.9-3.7l4.9-4.3l4.9-4.8l4.9-5.2l4.9-5.3l4.9-5.3
					l4.9-5.1l4.9-4.7l4.9-4.3l4.9-3.7l4.9-3.1l4.9-2.5l4.9-1.8l4.9-1.1l4.9-0.3l4.9,0.5l4.9,1.4l4.9,2.2l4.9,3l4.9,3.6l4.9,3.9
					l4.9,4l4.9,3.8l4.9,3.3l4.9,2.6l4.9,1.9l4.9,1.1l4.9,0.3l4.9-0.3l4.9-0.7l4.9-1l4.9-1.2l4.9-1.1l4.9-1l4.9-0.6l4.9-0.2l4.9,0.3
					l4.9,0.9l4.9,1.5l4.9,1.9l4.9,2.2l4.9,2.3l4.9,2.3l4.9,2l4.9,1.5l4.9,1l4.9,0.5l4.9-0.1l4.9-0.5l4.9-0.7l4.9-0.9l4.9-0.8L628,97
					l4.9-0.4l4.9-0.1l4.9,0.3l4.9,0.7l4.9,1.2l4.9,1.6l4.9,2l4.9,2.3l4.9,2.4l4.9,2.5l4.9,2.4l4.9,2.2l4.9,1.9l4.9,1.5l4.9,0.9
					l4.9,0.4l4.9-0.2l4.9-0.8l4.9-1.3l4.9-1.7l4.9-2.1l4.9-2.3l4.9-2.3l4.9-2.3l4.9-2.1l4.9-1.8l4.9-1.5l4.9-1.1l4.9-0.7l4.9-0.3
					l4.9,0.1l4.9,0.4l4.9,0.8l4.9,1.2l4.9,1.6l4.9,1.9l4.9,2.2l4.9,2.4l4.9,2.5l4.9,2.4l4.9,2.3l4.9,2l4.9,1.7l4.9,1.3l4.9,0.9
					l4.9,0.5l4.9,0.1l4.9-0.4l4.9-0.9l4.9-1.5l4.9-2.1l4.9-2.7l4.9-3.2l4.9-3.7l4.9-4l4.9-4l4.9-3.8l4.9-3.2l4.9-2.4l4.9-1.4
					l4.9-0.2l4.9,1l4.9,2.1l4.9,3l4.9,3.6l4.9,4l4.9,4l4.9,3.8l4.9,3.4l4.9,2.9l4.9,2.4l4.9,1.9l4.9,1.4l4.9,1l4.9,0.7l4.9,0.5
					l4.9,0.3l4.9,0.2l4.9,0.1l4.9,0.1l4.9,0l4.9,0l4.9,0l4.9,0l4.9,0l4.9,0l4.9,0l4.9,0l4.9,0l4.9,0l4.9,0h4.9l4.9,0h4.9h4.9l0,0
					h-4.9h-4.9h-4.9h-4.9h-4.9h-4.9h-4.9h-4.9h-4.9h-4.9h-4.9h-4.9h-4.9h-4.9h-4.9h-4.9h-4.9h-4.9h-4.9H999H994h-4.9h-4.9h-4.9h-4.9
					h-4.9h-4.9h-4.9h-4.9h-4.9h-4.9h-4.9h-4.9h-4.9h-4.9h-4.9h-4.9h-4.9H905H900h-4.9h-4.9h-4.9h-4.9h-4.9h-4.9h-4.9h-4.9h-4.9h-4.9
					h-4.9h-4.9h-4.9h-4.9h-4.9h-4.9H816H811h-4.9h-4.9h-4.9h-4.9h-4.9h-4.9h-4.9h-4.9h-4.9h-4.9h-4.9h-4.9h-4.9h-4.9h-4.9h-4.9h-4.9
					H722H717h-4.9h-4.9h-4.9h-4.9h-4.9h-4.9h-4.9h-4.9h-4.9h-4.9h-4.9h-4.9h-4.9h-4.9h-4.9h-4.9H633H628h-4.9h-4.9h-4.9h-4.9h-4.9
					h-4.9h-4.9h-4.9h-4.9h-4.9h-4.9h-4.9h-4.9h-4.9h-4.9h-4.9h-4.9H539H534h-4.9h-4.9h-4.9h-4.9h-4.9h-4.9h-4.9h-4.9h-4.9h-4.9h-4.9
					h-4.9h-4.9h-4.9h-4.9h-4.9h-4.9H445H440h-4.9h-4.9h-4.9h-4.9h-4.9h-4.9h-4.9h-4.9h-4.9h-4.9h-4.9h-4.9h-4.9h-4.9h-4.9h-4.9H356
					H351h-4.9h-4.9h-4.9h-4.9h-4.9h-4.9h-4.9h-4.9h-4.9h-4.9h-4.9h-4.9h-4.9h-4.9h-4.9h-4.9h-4.9H262H257h-4.9h-4.9h-4.9h-4.9h-4.9
					h-4.9h-4.9h-4.9h-4.9h-4.9h-4.9h-4.9h-4.9h-4.9h-4.9h-4.9h-4.9H168h-4.9h-4.9h-4.9h-4.9h-4.9h-4.9h-4.9h-4.9h-4.9h-4.9h-4.9
					H108.6z"/>
			</g>
			<g>
				<defs>
					<rect id="SVGID_7_" x="108.6" y="91" width="989.3" height="34.7"/>
				</defs>
				<clipPath id="SVGID_8_">
					<use xlink:href="#SVGID_7_"  style="overflow:visible;"/>
				</clipPath>
				<g class="st13">
					<line class="st5" x1="340.8" y1="124.9" x2="1097.9" y2="124.9"/>
				</g>
			</g>
		</g>
	</g>
	<g transform="translate(0,140)">
		<path class="st6" d="M108.6,105.7h989.3v34.7H108.6V105.7z"/>
		<g>
			<g>
				<path class="st10" d="M108.6,140.5h4.9h4.9h4.9h4.9h4.9h4.9h4.9h4.9h4.9h4.9h4.9h4.9h4.9h4.9h4.9h4.9h4.9h4.9h4.9h4.9h4.9h4.9
					h4.9h4.9h4.9h4.9h4.9h4.9h4.9h4.9h4.9l4.9,0l4.9,0l4.9,0l4.9,0l4.9,0l4.9,0l4.9,0l4.9,0l4.9,0l4.9,0l4.9,0l4.9-0.1l4.9-0.1
					l4.9-0.2l4.9-0.4l4.9-0.6l4.9-0.9l4.9-1.3l4.9-1.8l4.9-2.3l4.9-3l4.9-3.7l4.9-4.4l4.9-5.1l4.9-5.6l4.9-6l4.9-6.2l4.9-6.1
					l4.9-5.8l4.9-5.3l4.9-4.6l4.9-3.8l4.9-2.9l4.9-2l4.9-1.1l4.9-0.3l4.9,0.6l4.9,1.4l4.9,2.2l4.9,2.9l4.9,3.6l4.9,4.3l4.9,4.8
					l4.9,5.3l4.9,5.6l4.9,5.7l4.9,5.6l4.9,5.4l4.9,5l4.9,4.5l4.9,3.9l4.9,3.3l4.9,2.6l4.9,2.1l4.9,1.6l4.9,1.1l4.9,0.8l4.9,0.5
					l4.9,0.4l4.9,0.2l4.9,0.1l4.9,0.1l4.9,0l4.9,0l4.9,0l4.9,0l4.9-0.1l4.9-0.1l4.9-0.2l4.9-0.3l4.9-0.4l4.9-0.6l4.9-0.9l4.9-1.1
					l4.9-1.4l4.9-1.6l4.9-1.9l4.9-2l4.9-2l4.9-1.9l4.9-1.6l4.9-1.2l4.9-0.7l4.9-0.1l4.9,0.5l4.9,1.1l4.9,1.5l4.9,1.8l4.9,2l4.9,2
					l4.9,1.9l4.9,1.6l4.9,1.3l4.9,1l4.9,0.6l4.9,0.2l4.9-0.2l4.9-0.5l4.9-0.9l4.9-1.3l4.9-1.6l4.9-1.8l4.9-2l4.9-2l4.9-1.9l4.9-1.6
					l4.9-1.1l4.9-0.6l4.9,0l4.9,0.6l4.9,1.1l4.9,1.6l4.9,1.9l4.9,2l4.9,2l4.9,1.9l4.9,1.6l4.9,1.3l4.9,1l4.9,0.7l4.9,0.3l4.9,0
					l4.9-0.4l4.9-0.7l4.9-1.1l4.9-1.4l4.9-1.7l4.9-2l4.9-2.1l4.9-2.2l4.9-2.1l4.9-2l4.9-1.7l4.9-1.4l4.9-1l4.9-0.7l4.9-0.4l4.9-0.2
					l4.9-0.1l4.9,0l4.9,0.1l4.9,0.2l4.9,0.4l4.9,0.7l4.9,1l4.9,1.4l4.9,1.7l4.9,2l4.9,2.1l4.9,2.2l4.9,2.1l4.9,2l4.9,1.8l4.9,1.5
					l4.9,1.2l4.9,0.9l4.9,0.7l4.9,0.5l4.9,0.4l4.9,0.2l4.9,0.2l4.9,0.1l4.9,0.1l4.9,0l4.9,0l4.9,0l4.9,0l4.9,0l4.9,0v0h-4.9h-4.9
					h-4.9h-4.9h-4.9h-4.9h-4.9h-4.9h-4.9h-4.9h-4.9h-4.9h-4.9h-4.9h-4.9h-4.9h-4.9h-4.9h-4.9H999H994h-4.9h-4.9h-4.9h-4.9h-4.9h-4.9
					h-4.9h-4.9h-4.9h-4.9h-4.9h-4.9h-4.9h-4.9h-4.9h-4.9h-4.9H905H900h-4.9h-4.9h-4.9h-4.9h-4.9h-4.9h-4.9h-4.9h-4.9h-4.9h-4.9h-4.9
					h-4.9h-4.9h-4.9h-4.9H816H811h-4.9h-4.9h-4.9h-4.9h-4.9h-4.9h-4.9h-4.9h-4.9h-4.9h-4.9h-4.9h-4.9h-4.9h-4.9h-4.9h-4.9H722H717
					h-4.9h-4.9h-4.9h-4.9h-4.9h-4.9h-4.9h-4.9h-4.9h-4.9h-4.9h-4.9h-4.9h-4.9h-4.9h-4.9H633H628h-4.9h-4.9h-4.9h-4.9h-4.9h-4.9h-4.9
					h-4.9h-4.9h-4.9h-4.9h-4.9h-4.9h-4.9h-4.9h-4.9h-4.9H539H534h-4.9h-4.9h-4.9h-4.9h-4.9h-4.9h-4.9h-4.9h-4.9h-4.9h-4.9h-4.9h-4.9
					h-4.9h-4.9h-4.9h-4.9H445H440h-4.9h-4.9h-4.9h-4.9h-4.9h-4.9h-4.9h-4.9h-4.9h-4.9h-4.9h-4.9h-4.9h-4.9h-4.9h-4.9H356H351h-4.9
					h-4.9h-4.9h-4.9h-4.9h-4.9h-4.9h-4.9h-4.9h-4.9h-4.9h-4.9h-4.9h-4.9h-4.9h-4.9h-4.9H262H257h-4.9h-4.9h-4.9h-4.9h-4.9h-4.9h-4.9
					h-4.9h-4.9h-4.9h-4.9h-4.9h-4.9h-4.9h-4.9h-4.9h-4.9H168h-4.9h-4.9h-4.9h-4.9h-4.9h-4.9h-4.9h-4.9h-4.9h-4.9h-4.9H108.6z"/>
			</g>
			<g>
				<defs>
					<rect id="SVGID_9_" x="108.6" y="105.7" width="989.3" height="34.7"/>
				</defs>
				<clipPath id="SVGID_10_">
					<use xlink:href="#SVGID_9_"  style="overflow:visible;"/>
				</clipPath>
				<g class="st14">
					<line class="st5" x1="342.2" y1="139.6" x2="1097.9" y2="139.6"/>
				</g>
			</g>
		</g>
	</g>
	<g transform="translate(0,160)">
		<path class="st6" d="M108.6,120.5h989.3v34.7H108.6V120.5z"/>
		<g>
			<g>
				<path class="st15" d="M108.6,155.2h4.9h4.9h4.9h4.9h4.9h4.9h4.9h4.9h4.9h4.9h4.9h4.9h4.9h4.9h4.9h4.9h4.9h4.9h4.9h4.9h4.9h4.9
					h4.9h4.9h4.9h4.9h4.9h4.9h4.9h4.9h4.9h4.9h4.9h4.9h4.9h4.9h4.9h4.9h4.9h4.9l4.9,0l4.9,0l4.9,0l4.9,0l4.9,0l4.9,0l4.9,0l4.9,0
					l4.9,0l4.9,0l4.9,0l4.9,0l4.9-0.1l4.9-0.1l4.9-0.1l4.9-0.2l4.9-0.3l4.9-0.5l4.9-0.7l4.9-1l4.9-1.3l4.9-1.7l4.9-2.1l4.9-2.5
					l4.9-3l4.9-3.4l4.9-3.8l4.9-4.1l4.9-4.4l4.9-4.6l4.9-4.7l4.9-4.6l4.9-4.5l4.9-4.1l4.9-3.6l4.9-2.8l4.9-1.8l4.9-0.7l4.9,0.5
					l4.9,1.6l4.9,2.6l4.9,3.4l4.9,3.9l4.9,4l4.9,3.9l4.9,3.5l4.9,3.1l4.9,2.6l4.9,2.1l4.9,1.7l4.9,1.4l4.9,1.1l4.9,1l4.9,0.8
					l4.9,0.6l4.9,0.4l4.9,0.2l4.9,0.1l4.9,0.1l4.9,0.1l4.9,0.2l4.9,0.5l4.9,0.7l4.9,0.9l4.9,0.9l4.9,0.8l4.9,0.5l4.9,0l4.9-0.6
					l4.9-1.4l4.9-2.3l4.9-3.1l4.9-3.7l4.9-4.1l4.9-4.2l4.9-3.9l4.9-3.3l4.9-2.5l4.9-1.5l4.9-0.3l4.9,0.9l4.9,1.9l4.9,2.9l4.9,3.6
					l4.9,4.1l4.9,4.3l4.9,4.4l4.9,4.2l4.9,3.8l4.9,3.3l4.9,2.7l4.9,2.1l4.9,1.3l4.9,0.6l4.9,0l4.9-0.6l4.9-1.1l4.9-1.5l4.9-1.7
					l4.9-1.7l4.9-1.5l4.9-1.2l4.9-0.7l4.9-0.2l4.9,0.4l4.9,1l4.9,1.5l4.9,1.8l4.9,2l4.9,2l4.9,1.9l4.9,1.7l4.9,1.5l4.9,1.2l4.9,1
					l4.9,0.7l4.9,0.5l4.9,0.4l4.9,0.2l4.9,0.1l4.9,0.1l4.9,0l4.9-0.1l4.9-0.1l4.9-0.2l4.9-0.4l4.9-0.5l4.9-0.7l4.9-1l4.9-1.3
					l4.9-1.5l4.9-1.8l4.9-2l4.9-2l4.9-2l4.9-1.9l4.9-1.6l4.9-1.2l4.9-0.7l4.9-0.2l4.9,0.2l4.9,0.4l4.9,0.6l4.9,0.5l4.9,0.3l4.9,0.1
					l4.9-0.2l4.9-0.4l4.9-0.5l4.9-0.5l4.9-0.3l4.9,0l4.9,0.4l4.9,0.9l4.9,1.3l4.9,1.7l4.9,1.9l4.9,2l4.9,2l4.9,1.9v7.2h-4.9h-4.9
					h-4.9h-4.9h-4.9h-4.9h-4.9h-4.9h-4.9h-4.9h-4.9h-4.9h-4.9h-4.9h-4.9h-4.9h-4.9h-4.9h-4.9H999H994h-4.9h-4.9h-4.9h-4.9h-4.9h-4.9
					h-4.9h-4.9h-4.9h-4.9h-4.9h-4.9h-4.9h-4.9h-4.9h-4.9h-4.9H905H900h-4.9h-4.9h-4.9h-4.9h-4.9h-4.9h-4.9h-4.9h-4.9h-4.9h-4.9h-4.9
					h-4.9h-4.9h-4.9h-4.9H816H811h-4.9h-4.9h-4.9h-4.9h-4.9h-4.9h-4.9h-4.9h-4.9h-4.9h-4.9h-4.9h-4.9h-4.9h-4.9h-4.9h-4.9H722H717
					h-4.9h-4.9h-4.9h-4.9h-4.9h-4.9h-4.9h-4.9h-4.9h-4.9h-4.9h-4.9h-4.9h-4.9h-4.9h-4.9H633H628h-4.9h-4.9h-4.9h-4.9h-4.9h-4.9h-4.9
					h-4.9h-4.9h-4.9h-4.9h-4.9h-4.9h-4.9h-4.9h-4.9h-4.9H539H534h-4.9h-4.9h-4.9h-4.9h-4.9h-4.9h-4.9h-4.9h-4.9h-4.9h-4.9h-4.9h-4.9
					h-4.9h-4.9h-4.9h-4.9H445H440h-4.9h-4.9h-4.9h-4.9h-4.9h-4.9h-4.9h-4.9h-4.9h-4.9h-4.9h-4.9h-4.9h-4.9h-4.9h-4.9H356H351h-4.9
					h-4.9h-4.9h-4.9h-4.9h-4.9h-4.9h-4.9h-4.9h-4.9h-4.9h-4.9h-4.9h-4.9h-4.9h-4.9h-4.9H262H257h-4.9h-4.9h-4.9h-4.9h-4.9h-4.9h-4.9
					h-4.9h-4.9h-4.9h-4.9h-4.9h-4.9h-4.9h-4.9h-4.9h-4.9H168h-4.9h-4.9h-4.9h-4.9h-4.9h-4.9h-4.9h-4.9h-4.9h-4.9h-4.9H108.6z"/>
			</g>
			<g>
				<defs>
					<rect id="SVGID_11_" x="108.6" y="120.5" width="989.3" height="34.7"/>
				</defs>
				<clipPath id="SVGID_12_">
					<use xlink:href="#SVGID_11_"  style="overflow:visible;"/>
				</clipPath>
				<g class="st16">
					<line class="st5" x1="393.4" y1="154.3" x2="1097.9" y2="154.3"/>
				</g>
			</g>
		</g>
	</g>
	<g transform="translate(0,180)">
		<path class="st6" d="M108.6,135.2h989.3V170H108.6V135.2z"/>
		<g>
			<g>
				<path class="st15" d="M108.6,170h4.9h4.9h4.9h4.9h4.9h4.9h4.9h4.9h4.9h4.9h4.9h4.9h4.9h4.9h4.9h4.9h4.9h4.9h4.9h4.9h4.9h4.9h4.9
					h4.9h4.9h4.9h4.9h4.9h4.9h4.9h4.9h4.9h4.9h4.9h4.9h4.9h4.9h4.9h4.9h4.9h4.9h4.9h4.9h4.9h4.9h4.9h4.9h4.9h4.9l4.9,0l4.9,0l4.9,0
					l4.9,0l4.9,0l4.9,0l4.9,0l4.9,0l4.9,0l4.9,0l4.9,0l4.9-0.1l4.9-0.1l4.9-0.2l4.9-0.3l4.9-0.5l4.9-0.7l4.9-1l4.9-1.4l4.9-1.8
					l4.9-2.3l4.9-2.8l4.9-3.3l4.9-3.6l4.9-3.8l4.9-3.8l4.9-3.6l4.9-3l4.9-2.2l4.9-1.2l4.9-0.1l4.9,1.1l4.9,2.1l4.9,2.9l4.9,3.5
					l4.9,3.8l4.9,3.9l4.9,3.7l4.9,3.3l4.9,2.9l4.9,2.4l4.9,1.9l4.9,1.4l4.9,1l4.9,0.7l4.9,0.5l4.9,0.3l4.9,0.2l4.9,0.1l4.9,0l4.9,0
					l4.9-0.1l4.9-0.1l4.9-0.2l4.9-0.3l4.9-0.5l4.9-0.6l4.9-0.9l4.9-1.1l4.9-1.4l4.9-1.6l4.9-1.9l4.9-2l4.9-2l4.9-1.9l4.9-1.6
					l4.9-1.2l4.9-0.7l4.9-0.1l4.9,0.5l4.9,1l4.9,1.4l4.9,1.6l4.9,1.7l4.9,1.6l4.9,1.3l4.9,0.8l4.9,0.3l4.9-0.3l4.9-0.9l4.9-1.4
					l4.9-1.9l4.9-2.3l4.9-2.5l4.9-2.6l4.9-2.5l4.9-2.3l4.9-2l4.9-1.5l4.9-1l4.9-0.5l4.9,0.1l4.9,0.7l4.9,1.3l4.9,1.8l4.9,2.2
					l4.9,2.5l4.9,2.7l4.9,2.8l4.9,2.7l4.9,2.5l4.9,2.3l4.9,2l4.9,1.7l4.9,1.3l4.9,1l4.9,0.8l4.9,0.5l4.9,0.4l4.9,0.2l4.9,0.2
					l4.9,0.1l4.9,0.1l4.9,0l4.9,0l4.9,0l4.9,0l4.9,0l4.9,0l4.9,0l4.9,0l4.9,0l4.9,0l4.9,0l4.9-0.1l4.9-0.1l4.9-0.1l4.9-0.2l4.9-0.3
					l4.9-0.5l4.9-0.7l4.9-0.9l4.9-1.2l4.9-1.5l4.9-1.7l4.9-1.9l4.9-2l4.9-2l4.9-1.8l4.9-1.5l4.9-1.1l4.9-0.5l4.9,0.1l4.9,0.7
					l4.9,1.2l4.9,1.6l4.9,1.9l4.9,2l4.9,2l4.9,1.9l4.9,1.6v5.3h-4.9h-4.9h-4.9h-4.9h-4.9h-4.9h-4.9h-4.9h-4.9h-4.9h-4.9h-4.9h-4.9
					h-4.9h-4.9h-4.9h-4.9h-4.9h-4.9H999H994h-4.9h-4.9h-4.9h-4.9h-4.9h-4.9h-4.9h-4.9h-4.9h-4.9h-4.9h-4.9h-4.9h-4.9h-4.9h-4.9h-4.9
					H905H900h-4.9h-4.9h-4.9h-4.9h-4.9h-4.9h-4.9h-4.9h-4.9h-4.9h-4.9h-4.9h-4.9h-4.9h-4.9h-4.9H816H811h-4.9h-4.9h-4.9h-4.9h-4.9
					h-4.9h-4.9h-4.9h-4.9h-4.9h-4.9h-4.9h-4.9h-4.9h-4.9h-4.9h-4.9H722H717h-4.9h-4.9h-4.9h-4.9h-4.9h-4.9h-4.9h-4.9h-4.9h-4.9h-4.9
					h-4.9h-4.9h-4.9h-4.9h-4.9H633H628h-4.9h-4.9h-4.9h-4.9h-4.9h-4.9h-4.9h-4.9h-4.9h-4.9h-4.9h-4.9h-4.9h-4.9h-4.9h-4.9h-4.9H539
					H534h-4.9h-4.9h-4.9h-4.9h-4.9h-4.9h-4.9h-4.9h-4.9h-4.9h-4.9h-4.9h-4.9h-4.9h-4.9h-4.9h-4.9H445H440h-4.9h-4.9h-4.9h-4.9h-4.9
					h-4.9h-4.9h-4.9h-4.9h-4.9h-4.9h-4.9h-4.9h-4.9h-4.9h-4.9H356H351h-4.9h-4.9h-4.9h-4.9h-4.9h-4.9h-4.9h-4.9h-4.9h-4.9h-4.9h-4.9
					h-4.9h-4.9h-4.9h-4.9h-4.9H262H257h-4.9h-4.9h-4.9h-4.9h-4.9h-4.9h-4.9h-4.9h-4.9h-4.9h-4.9h-4.9h-4.9h-4.9h-4.9h-4.9h-4.9H168
					h-4.9h-4.9h-4.9h-4.9h-4.9h-4.9h-4.9h-4.9h-4.9h-4.9h-4.9H108.6z"/>
			</g>
			<g>
				<g>
					<line class="st5" x1="434.4" y1="169.1" x2="1097.9" y2="169.1"/>
				</g>
			</g>
		</g>
	</g>
	<g transform="translate(0,360)">
		<g>
			<g>
				<path class="st17" d="M108.6,11.6l4.9,0.3l4.9,0.9l4.9,1.4l4.9,1.7l4.9,2l4.9,2l4.9,2l4.9,1.8l4.9,1.6l4.9,1.3l4.9,1l4.9,0.8
					l4.9,0.6l4.9,0.4l4.9,0.3l4.9,0.2l4.9,0.1l4.9,0.1l4.9,0l4.9,0l4.9,0l4.9,0l4.9,0l4.9,0l4.9,0l4.9,0l4.9,0l4.9,0l4.9,0l4.9,0
					h4.9l4.9,0l4.9,0l4.9,0l4.9,0l4.9,0l4.9,0l4.9,0l4.9,0l4.9,0l4.9,0l4.9,0l4.9,0l4.9-0.1l4.9-0.1l4.9-0.2l4.9-0.3l4.9-0.5
					l4.9-0.7l4.9-0.9l4.9-1.1l4.9-1.4l4.9-1.7l4.9-1.9l4.9-2l4.9-2l4.9-1.9l4.9-1.6l4.9-1.2l4.9-0.6l4.9,0l4.9,0.6l4.9,1.1l4.9,1.5
					l4.9,1.8l4.9,1.9l4.9,1.9l4.9,1.7l4.9,1.4l4.9,1l4.9,0.6l4.9,0l4.9-0.5l4.9-1.1l4.9-1.7l4.9-2.3l4.9-2.8l4.9-3.3l4.9-3.5
					l4.9-3.6l4.9-3.5l4.9-3.1l4.9-2.5l4.9-1.7l4.9-0.7l4.9,0.4l4.9,1.4l4.9,2.3l4.9,3l4.9,3.4l4.9,3.6l4.9,3.5l4.9,3.3l4.9,2.8
					l4.9,2.2l4.9,1.6l4.9,0.9l4.9,0.3l4.9-0.4l4.9-0.9l4.9-1.3l4.9-1.7l4.9-1.8l4.9-1.8L628,14l4.9-1.3l4.9-0.8l4.9-0.3l4.9,0.3
					l4.9,0.9l4.9,1.4l4.9,1.7l4.9,2l4.9,2l4.9,1.9l4.9,1.8l4.9,1.5l4.9,1.3l4.9,1l4.9,0.7l4.9,0.5l4.9,0.3l4.9,0.2l4.9,0l4.9-0.2
					l4.9-0.3l4.9-0.6l4.9-0.8l4.9-1.1l4.9-1.5l4.9-1.9l4.9-2.3l4.9-2.7l4.9-3l4.9-3.3l4.9-3.3l4.9-3.3l4.9-3l4.9-2.5l4.9-1.8
					l4.9-1.1l4.9-0.3l4.9,0.5l4.9,1.2l4.9,1.7l4.9,2l4.9,2.1l4.9,1.9l4.9,1.6l4.9,1.2l4.9,0.8l4.9,0.4l4.9,0.1l4.9,0l4.9,0l4.9,0.2
					l4.9,0.6l4.9,1l4.9,1.4l4.9,1.7l4.9,2l4.9,2.1l4.9,2l4.9,1.9l4.9,1.7l4.9,1.5l4.9,1.2l4.9,0.9l4.9,0.7l4.9,0.5l4.9,0.3l4.9,0.2
					l4.9,0.1l4.9,0.1l4.9,0.1l4.9,0l4.9,0l4.9,0l4.9,0l4.9,0l4.9,0l4.9,0l4.9,0l4.9,0l4.9,0l4.9,0l4.9,0l4.9,0h4.9h4.9h4.9h4.9h4.9
					h4.9h4.9h4.9h4.9h4.9h4.9h4.9l0,0h-4.9h-4.9h-4.9h-4.9h-4.9h-4.9h-4.9h-4.9h-4.9h-4.9h-4.9h-4.9h-4.9h-4.9h-4.9h-4.9h-4.9h-4.9
					h-4.9H999H994h-4.9h-4.9h-4.9h-4.9h-4.9h-4.9h-4.9h-4.9h-4.9h-4.9h-4.9h-4.9h-4.9h-4.9h-4.9h-4.9h-4.9H905H900h-4.9h-4.9h-4.9
					h-4.9h-4.9h-4.9h-4.9h-4.9h-4.9h-4.9h-4.9h-4.9h-4.9h-4.9h-4.9h-4.9H816H811h-4.9h-4.9h-4.9h-4.9h-4.9h-4.9h-4.9h-4.9h-4.9h-4.9
					h-4.9h-4.9h-4.9h-4.9h-4.9h-4.9h-4.9H722H717h-4.9h-4.9h-4.9h-4.9h-4.9h-4.9h-4.9h-4.9h-4.9h-4.9h-4.9h-4.9h-4.9h-4.9h-4.9h-4.9
					H633H628h-4.9h-4.9h-4.9h-4.9h-4.9h-4.9h-4.9h-4.9h-4.9h-4.9h-4.9h-4.9h-4.9h-4.9h-4.9h-4.9h-4.9H539H534h-4.9h-4.9h-4.9h-4.9
					h-4.9h-4.9h-4.9h-4.9h-4.9h-4.9h-4.9h-4.9h-4.9h-4.9h-4.9h-4.9h-4.9H445H440h-4.9h-4.9h-4.9h-4.9h-4.9h-4.9h-4.9h-4.9h-4.9h-4.9
					h-4.9h-4.9h-4.9h-4.9h-4.9h-4.9H356H351h-4.9h-4.9h-4.9h-4.9h-4.9h-4.9h-4.9h-4.9h-4.9h-4.9h-4.9h-4.9h-4.9h-4.9h-4.9h-4.9h-4.9
					H262H257h-4.9h-4.9h-4.9h-4.9h-4.9h-4.9h-4.9h-4.9h-4.9h-4.9h-4.9h-4.9h-4.9h-4.9h-4.9h-4.9h-4.9H168h-4.9h-4.9h-4.9h-4.9h-4.9
					h-4.9h-4.9h-4.9h-4.9h-4.9h-4.9h-4.9V11.6z"/>
			</g>
			<g>
				<g>
					<line class="st5" x1="109.9" y1="29" x2="1097.9" y2="29"/>
				</g>
			</g>
		</g>
	</g>
</g>
</svg>
