<?xml version="1.0" encoding="utf-8"?>
<!-- Generator: Adobe Illustrator 22.1.0, SVG Export Plug-In . SVG Version: 6.00 Build 0)  -->
<svg version="1.1" id="Layer_1" xmlns="http://www.w3.org/2000/svg" xmlns:xlink="http://www.w3.org/1999/xlink" x="0px" y="0px"
	 viewBox="0 0 256 256" style="enable-background:new 0 0 256 256;" xml:space="preserve">
<path d="M197.7,136.7c15,0,22.5,13,41.3,33.6c6.7,7.4,15,10.3,15,10.3H43.3c0,0,9.4-2.8,15.9-10.3c34.8-39.7,33.6-60.9,54.3-60.9
	c21.7,0,27.9,38.6,57.9,38.6C185.5,147.9,186.5,136.7,197.7,136.7z M113.6,103.7c11.6,0,19.3,8.8,27.5,18.2c1.4,1.6,2.8,3.2,4.2,4.8
	h61.2c0,0-8.3-2.9-15-10.3c-18.8-20.6-26.3-33.6-41.3-33.6C139,82.7,138,94,124,94c-30,0-22.5-84-56.3-84
	c-33.8,0-16,66.6-50.8,106.3c-6.6,7.5-15.9,10.3-15.9,10.3h82.8C93.3,112.3,99.6,103.7,113.6,103.7z M191.5,222.2
	c-5.2-5.8-14.4-21.6-29.4-21.6c-11.3,0-27.8,22.2-41.8,22.2c-30,0-42.3-21.7-58.3-21.7s-14.8,10-32.9,21.7
	c-10.5,6.4-28.1,9.8-28.1,9.8H222C222,232.5,198.2,229.6,191.5,222.2z"/>
</svg>
