<svg height="256" viewBox="0 0 256 256" width="256" xmlns="http://www.w3.org/2000/svg"><path d="m244.9 81.4 9.1-9.4-5.1-3.7-2.6-7.9-6.5-.6-1.6 11.3-2.1 3.3-1.3 2.2-7.6 2.1-6.3 1.5-4.7 6.1c-6.9-34.5-38-60.2-74.6-60.2a77.8 77.8 0 0 0 -39.2 10.8 97.4 97.4 0 0 0 -49.3 21.5l5 1a80.5 80.5 0 0 1 36.7-17.4 79.7 79.7 0 0 0 -19.1 20.2l4.4.6a71.4 71.4 0 0 1 22.8-22 92.8 92.8 0 0 1 10.6-.6c40.2 0 75.1 26.8 84.5 64.2l3.6-2.3c-9.9-39.2-46-65.9-88.1-65.9h-1.9a73.9 73.9 0 0 1 30-6.2c36 0 66.5 28 71.5 62.4l3.7-2.4a8.8 8.8 0 0 0 -.2-1.6l.6 1.4-.4.2a1.3 1.3 0 0 1 .1.6 65.4 65.4 0 0 1 .8 8.8 5.9 5.9 0 0 1 4.3 5.7 6 6 0 0 1 -5.9 5.9 5.9 5.9 0 0 1 -2.4-11.3c-.1-2.4-.3-4.9-.6-7.3l-6.6 4.2-3.3 4.2-1.6 1.2c0 .2.1.5.1.7a83.7 83.7 0 0 1 2.6 20.6h-.2a5.9 5.9 0 1 1 -3.6 0h-.2a81 81 0 0 0 -2.3-19l-6.2 3.7-4.6-1.4 3.5-8.3-5.2-7.3-1.5-6-3.9-2.1-6.7 6.1-1.4 5.2 2 6.6-2 7.5-3 .5-1.7-4.5-.9-4.6 1.6-9.5-1.3-1.7 2.1-5.1 12.5-1.8-4.5-4.5-9.8 2.9-4.8-3.3-8 3.9-7.2-.7 2.5-7.9-5.1-2.8-4.5.3-5.8-2.8h-8.2l-27.5-1.4-18.3-2.5-.6.9-.6.9a69.7 69.7 0 0 0 -10.3 30.5 6 6 0 0 1 3.4 5.4 5.9 5.9 0 0 1 -5.9 5.9 5.9 5.9 0 0 1 -1.5-11.6 73.1 73.1 0 0 1 10.9-32.3l.2-.3-11.3-1.5-6.3-1.3-1.5 1.2a82.1 82.1 0 0 0 -28.9 51 5.9 5.9 0 0 1 3.7 5.5 6 6 0 0 1 -5.9 5.9 5.8 5.8 0 0 1 -5.9-5.9 5.9 5.9 0 0 1 4.1-5.6 85.6 85.6 0 0 1 29.4-53.1l-2.5-.5-3.9-.9-22.3-6-1.6 5-8 .5-1.2 13.1-7.7 14.6v5.3l-3.9 8.6.2 9.7 7.5 30.3 8.7 4.9 4 5.4.8 5.2 12.2 1.6-.8 1.2 18.3 10.6 10.1 1.6 4.6-2.1 8.8 1.2 7.1 7.4 1.9 6.3 7 4.8 2.8-4.4 6.8.2 9.6 14 2.1 7.2 9.8 2-1.3-5.5 3-6.3 7.7-4.4 9.5-7.6 8.2 2.5 2.2-1.9 5.3 4 5.9-2 .9-4.9 5.8-1.7 5.1-1 7.2.3 6.3 3.5 4.6-3.6 8.4 6.4v6.6l5.2 7.8 9.9 5.7.6-10.9-4-8.6-7.5-12.6 1.8-8.4 7.4-8.4 2.2-4.7 11.5-14.4-2.4-3.9h.8l-3.9-3.5.3-4-1.3-1.3 4.1.3 1.2-.6.7-2.9h.1l-3.6-7.5 1.5-1.6 4.5.7-.9-7.6 1.2-.3 7.4-3.9 2-3h.2l.6.9 2.1-2.5-3-5.8v-1.3zm-127.5 53.2a5.9 5.9 0 1 1 5.9-5.9 5.9 5.9 0 0 1 -5.9 5.9zm56.2 23.4a5.8 5.8 0 0 1 -5.9-5.9 6.1 6.1 0 0 1 3.7-5.5c-.1-1.3-.2-2.6-.4-3.9-4.1-26.8-26-46.3-52.2-46.3-21.8 0-41 13.5-49.1 34.5a39.3 39.3 0 0 0 -1.9 5.8 5.9 5.9 0 0 1 -3.2 10.9 5.9 5.9 0 0 1 -.7-11.8 66 66 0 0 1 2-6.3c8.7-22.6 29.5-37.1 52.9-37.1a55.8 55.8 0 0 1 37.1 14.3 59 59 0 0 1 19 35.4 31.2 31.2 0 0 1 .5 4.4 5.7 5.7 0 0 1 4.1 5.6 5.9 5.9 0 0 1 -5.9 5.9z"/></svg>