<svg height="256" viewBox="0 0 256 256" width="256" xmlns="http://www.w3.org/2000/svg"><path d="m241.3 253h-235.8a3 3 0 0 1 -3.8-3v-1.6-240.3c0-3.9 6.2-3.9 6.2 0v238.7h233.4c4 0 4 6.2 0 6.2zm-201.6-99.4h13.2v85.6a4.7 4.7 0 0 0 4.6 4.7 4.8 4.8 0 0 0 4.7-4.7v-101.2h10.6a4.6 4.6 0 0 0 3.2-1.3 4.2 4.2 0 0 0 1.4-3.3 4.7 4.7 0 0 0 -4.6-4.6h-10.6v-57.5a4.8 4.8 0 0 0 -4.7-4.7 4.7 4.7 0 0 0 -4.6 4.7v73h-13.2c-2.4 0-4.8 2.1-4.6 4.6a4.7 4.7 0 0 0 4.6 4.7zm54.5-17.3h9.4v71.9a4.7 4.7 0 1 0 9.3 0v-110.4h10.4a4.5 4.5 0 0 0 3.3-1.4 5 5 0 0 0 1.4-3.3 4.7 4.7 0 0 0 -1.4-3.2 4.5 4.5 0 0 0 -3.3-1.4h-10.4v-66.4a4.7 4.7 0 1 0 -9.3 0v104.9h-9.4a4.8 4.8 0 0 0 -4.7 4.7 4.7 4.7 0 0 0 4.7 4.6zm54.4-39.7h11.4v48.8a4.7 4.7 0 1 0 9.3 0v-77h9.2c2.4 0 4.8-2.1 4.6-4.6a4.7 4.7 0 0 0 -4.6-4.6h-9.2v-43.1a4.7 4.7 0 0 0 -4.6-4.7 4.8 4.8 0 0 0 -4.7 4.7v71.2h-11.4a5.2 5.2 0 0 0 -3.3 1.4 4.4 4.4 0 0 0 -1.3 3.3 4.7 4.7 0 0 0 4.6 4.6zm62.2-9.1h12.2v51.1a4.7 4.7 0 0 0 4.7 4.6 4.7 4.7 0 0 0 4.6-4.6v-21.5h12.1a4.7 4.7 0 0 0 4.6-4.6 4.7 4.7 0 0 0 -4.6-4.7h-12.1v-96.6a4.7 4.7 0 0 0 -4.6-4.7 4.9 4.9 0 0 0 -4.7 4.7v67h-12.2a4.7 4.7 0 0 0 -4.7 4.6 4.8 4.8 0 0 0 4.7 4.7z"/></svg>