<svg xmlns="http://www.w3.org/2000/svg" width="650" height="430" viewBox="0 0 650 430"><defs><style>.a{fill:#c8c8c8;}.a,.b,.c,.d,.e,.f,.g,.h,.i,.j,.k,.l,.m,.n,.o,.p,.q,.r,.s,.t,.u,.v,.w,.x{stroke:#fff;stroke-miterlimit:10;stroke-width:1.07px;}.b{fill:#a4a4a4;}.c{fill:#e5e5e5;}.d{fill:#ccc;}.e{fill:#c1c1c1;}.f{fill:#cacaca;}.g{fill:#b5b5b5;}.h{fill:#c7c7c7;}.i{fill:#aaa;}.j{fill:#d0d0d0;}.k{fill:#9c9c9c;}.l{fill:#bfbfbf;}.m{fill:#e8e8e8;}.n{fill:silver;}.o{fill:#c9c9c9;}.p{fill:#cecece;}.q{fill:#bebebe;}.r{fill:#c6c6c6;}.s{fill:#a5a5a5;}.t{fill:#dfdfdf;}.u{fill:#c4c4c4;}.v{fill:#e6e6e6;}.w{fill:#c3c3c3;}.x{fill:#9e9e9e;}</style></defs><title>hexbin-map</title><polygon class="a" points="11.1 86.3 30.7 75 50.4 86.3 50.4 109 30.7 120.3 11.1 109 11.1 86.3"/><polygon class="a" points="11.1 154.3 30.7 142.9 50.4 154.3 50.4 176.9 30.7 188.3 11.1 176.9 11.1 154.3"/><polygon class="a" points="50.4 86.3 70 75 89.6 86.3 89.6 109 70 120.3 50.4 109 50.4 86.3"/><polygon class="a" points="30.7 120.3 50.4 109 70 120.3 70 142.9 50.4 154.3 30.7 142.9 30.7 120.3"/><polygon class="a" points="50.4 154.3 70 142.9 89.6 154.3 89.6 176.9 70 188.3 50.4 176.9 50.4 154.3"/><polygon class="a" points="30.7 188.3 50.4 176.9 70 188.3 70 210.9 50.4 222.2 30.7 210.9 30.7 188.3"/><polygon class="a" points="50.4 222.2 70 210.9 89.6 222.2 89.6 244.9 70 256.2 50.4 244.9 50.4 222.2"/><polygon class="a" points="70 120.3 89.6 109 109.2 120.3 109.2 142.9 89.6 154.3 70 142.9 70 120.3"/><polygon class="a" points="89.6 154.3 109.2 142.9 128.8 154.3 128.8 176.9 109.2 188.3 89.6 176.9 89.6 154.3"/><polygon class="a" points="70 188.3 89.6 176.9 109.2 188.3 109.2 210.9 89.6 222.2 70 210.9 70 188.3"/><polygon class="a" points="89.6 222.2 109.2 210.9 128.8 222.2 128.8 244.9 109.2 256.2 89.6 244.9 89.6 222.2"/><polygon class="a" points="109.2 120.3 128.8 109 148.5 120.3 148.5 142.9 128.8 154.3 109.2 142.9 109.2 120.3"/><polygon class="a" points="109.2 188.3 128.8 176.9 148.5 188.3 148.5 210.9 128.8 222.2 109.2 210.9 109.2 188.3"/><polygon class="b" points="70 52.3 89.6 41 109.2 52.3 109.2 75 89.6 86.3 70 75 70 52.3"/><polygon class="b" points="109.2 52.3 128.8 41 148.5 52.3 148.5 75 128.8 86.3 109.2 75 109.2 52.3"/><polygon class="c" points="89.6 86.3 109.2 75 128.8 86.3 128.8 109 109.2 120.3 89.6 109 89.6 86.3"/><polygon class="c" points="128.8 154.3 148.5 142.9 168.1 154.3 168.1 176.9 148.5 188.3 128.8 176.9 128.8 154.3"/><polygon class="d" points="70 324.2 89.6 312.9 109.2 324.2 109.2 346.8 89.6 358.2 70 346.8 70 324.2"/><polygon class="e" points="128.8 86.3 148.5 75 168.1 86.3 168.1 109 148.5 120.3 128.8 109 128.8 86.3"/><polygon class="f" points="128.8 222.2 148.5 210.9 168.1 222.2 168.1 244.9 148.5 256.2 128.8 244.9 128.8 222.2"/><polygon class="f" points="148.5 188.3 168.1 176.9 187.7 188.3 187.7 210.9 168.1 222.2 148.5 210.9 148.5 188.3"/><polygon class="c" points="168.1 86.3 187.7 75 207.3 86.3 207.3 109 187.7 120.3 168.1 109 168.1 86.3"/><polygon class="g" points="148.5 120.3 168.1 109 187.7 120.3 187.7 142.9 168.1 154.3 148.5 142.9 148.5 120.3"/><polygon class="h" points="168.1 154.3 187.7 142.9 207.3 154.3 207.3 176.9 187.7 188.3 168.1 176.9 168.1 154.3"/><polygon class="h" points="187.7 120.3 207.3 109 227 120.3 227 142.9 207.3 154.3 187.7 142.9 187.7 120.3"/><polygon class="i" points="168.1 222.2 187.7 210.9 207.3 222.2 207.3 244.9 187.7 256.2 168.1 244.9 168.1 222.2"/><polygon class="i" points="187.7 188.3 207.3 176.9 227 188.3 227 210.9 207.3 222.2 187.7 210.9 187.7 188.3"/><polygon class="i" points="207.3 222.2 227 210.9 246.6 222.2 246.6 244.9 227 256.2 207.3 244.9 207.3 222.2"/><polygon class="i" points="187.7 256.2 207.3 244.9 227 256.2 227 278.9 207.3 290.2 187.7 278.9 187.7 256.2"/><polygon class="i" points="246.6 222.2 266.2 210.9 285.8 222.2 285.8 244.9 266.2 256.2 246.6 244.9 246.6 222.2"/><polygon class="i" points="227 256.2 246.6 244.9 266.2 256.2 266.2 278.9 246.6 290.2 227 278.9 227 256.2"/><polygon class="i" points="246.6 290.2 266.2 278.9 285.8 290.2 285.8 312.9 266.2 324.2 246.6 312.9 246.6 290.2"/><polygon class="i" points="266.2 256.2 285.8 244.9 305.4 256.2 305.4 278.9 285.8 290.2 266.2 278.9 266.2 256.2"/><polygon class="i" points="285.8 290.2 305.4 278.9 325.1 290.2 325.1 312.9 305.4 324.2 285.8 312.9 285.8 290.2"/><polygon class="c" points="207.3 86.3 227 75 246.6 86.3 246.6 109 227 120.3 207.3 109 207.3 86.3"/><polygon class="j" points="266.2 52.3 285.8 41 305.4 52.3 305.4 75 285.8 86.3 266.2 75 266.2 52.3"/><polygon class="e" points="207.3 154.3 227 142.9 246.6 154.3 246.6 176.9 227 188.3 207.3 176.9 207.3 154.3"/><polygon class="k" points="246.6 86.3 266.2 75 285.8 86.3 285.8 109 266.2 120.3 246.6 109 246.6 86.3"/><polygon class="k" points="285.8 86.3 305.4 75 325.1 86.3 325.1 109 305.4 120.3 285.8 109 285.8 86.3"/><polygon class="l" points="227 120.3 246.6 109 266.2 120.3 266.2 142.9 246.6 154.3 227 142.9 227 120.3"/><polygon class="m" points="246.6 154.3 266.2 142.9 285.8 154.3 285.8 176.9 266.2 188.3 246.6 176.9 246.6 154.3"/><polygon class="m" points="266.2 188.3 285.8 176.9 305.4 188.3 305.4 210.9 285.8 222.2 266.2 210.9 266.2 188.3"/><polygon class="m" points="227 188.3 246.6 176.9 266.2 188.3 266.2 210.9 246.6 222.2 227 210.9 227 188.3"/><polygon class="n" points="266.2 120.3 285.8 109 305.4 120.3 305.4 142.9 285.8 154.3 266.2 142.9 266.2 120.3"/><polygon class="n" points="285.8 154.3 305.4 142.9 325.1 154.3 325.1 176.9 305.4 188.3 285.8 176.9 285.8 154.3"/><polygon class="n" points="305.4 120.3 325.1 109 344.7 120.3 344.7 142.9 325.1 154.3 305.4 142.9 305.4 120.3"/><polygon class="n" points="325.1 154.3 344.7 142.9 364.3 154.3 364.3 176.9 344.7 188.3 325.1 176.9 325.1 154.3"/><polygon class="n" points="305.4 188.3 325.1 176.9 344.7 188.3 344.7 210.9 325.1 222.2 305.4 210.9 305.4 188.3"/><polygon class="o" points="285.8 222.2 305.4 210.9 325.1 222.2 325.1 244.9 305.4 256.2 285.8 244.9 285.8 222.2"/><polygon class="p" points="305.4 52.3 325.1 41 344.7 52.3 344.7 75 325.1 86.3 305.4 75 305.4 52.3"/><polygon class="p" points="364.3 86.3 383.9 75 403.5 86.3 403.5 109 383.9 120.3 364.3 109 364.3 86.3"/><polygon class="p" points="383.9 52.3 403.5 41 423.2 52.3 423.2 75 403.5 86.3 383.9 75 383.9 52.3"/><polygon class="q" points="325.1 222.2 344.7 210.9 364.3 222.2 364.3 244.9 344.7 256.2 325.1 244.9 325.1 222.2"/><polygon class="q" points="364.3 222.2 383.9 210.9 403.5 222.2 403.5 244.9 383.9 256.2 364.3 244.9 364.3 222.2"/><polygon class="r" points="305.4 256.2 325.1 244.9 344.7 256.2 344.7 278.9 325.1 290.2 305.4 278.9 305.4 256.2"/><polygon class="r" points="325.1 290.2 344.7 278.9 364.3 290.2 364.3 312.9 344.7 324.2 325.1 312.9 325.1 290.2"/><polygon class="l" points="344.7 120.3 364.3 109 383.9 120.3 383.9 142.9 364.3 154.3 344.7 142.9 344.7 120.3"/><polygon class="l" points="364.3 154.3 383.9 142.9 403.5 154.3 403.5 176.9 383.9 188.3 364.3 176.9 364.3 154.3"/><polygon class="l" points="344.7 188.3 364.3 176.9 383.9 188.3 383.9 210.9 364.3 222.2 344.7 210.9 344.7 188.3"/><polygon class="d" points="344.7 256.2 364.3 244.9 383.9 256.2 383.9 278.9 364.3 290.2 344.7 278.9 344.7 256.2"/><polygon class="s" points="364.3 290.2 383.9 278.9 403.5 290.2 403.5 312.9 383.9 324.2 364.3 312.9 364.3 290.2"/><polygon class="s" points="442.8 290.2 462.4 278.9 482 290.2 482 312.9 462.4 324.2 442.8 312.9 442.8 290.2"/><polygon class="s" points="482 290.2 501.7 278.9 521.3 290.2 521.3 312.9 501.7 324.2 482 312.9 482 290.2"/><polygon class="s" points="462.4 324.2 482 312.9 501.7 324.2 501.7 346.8 482 358.2 462.4 346.8 462.4 324.2"/><polygon class="s" points="482 358.2 501.7 346.8 521.3 358.2 521.3 380.8 501.7 392.2 482 380.8 482 358.2"/><polygon class="s" points="501.7 324.2 521.3 312.9 540.9 324.2 540.9 346.8 521.3 358.2 501.7 346.8 501.7 324.2"/><polygon class="s" points="521.3 358.2 540.9 346.8 560.5 358.2 560.5 380.8 540.9 392.2 521.3 380.8 521.3 358.2"/><polygon class="s" points="501.7 392.2 521.3 380.8 540.9 392.2 540.9 414.8 521.3 426.1 501.7 414.8 501.7 392.2"/><polygon class="t" points="383.9 120.3 403.5 109 423.2 120.3 423.2 142.9 403.5 154.3 383.9 142.9 383.9 120.3"/><polygon class="t" points="403.5 154.3 423.2 142.9 442.8 154.3 442.8 176.9 423.2 188.3 403.5 176.9 403.5 154.3"/><polygon class="t" points="423.2 120.3 442.8 109 462.4 120.3 462.4 142.9 442.8 154.3 423.2 142.9 423.2 120.3"/><polygon class="u" points="383.9 188.3 403.5 176.9 423.2 188.3 423.2 210.9 403.5 222.2 383.9 210.9 383.9 188.3"/><polygon class="u" points="423.2 188.3 442.8 176.9 462.4 188.3 462.4 210.9 442.8 222.2 423.2 210.9 423.2 188.3"/><polygon class="v" points="403.5 222.2 423.2 210.9 442.8 222.2 442.8 244.9 423.2 256.2 403.5 244.9 403.5 222.2"/><polygon class="v" points="442.8 222.2 462.4 210.9 482 222.2 482 244.9 462.4 256.2 442.8 244.9 442.8 222.2"/><polygon class="v" points="482 222.2 501.7 210.9 521.3 222.2 521.3 244.9 501.7 256.2 482 244.9 482 222.2"/><polygon class="v" points="521.3 222.2 540.9 210.9 560.5 222.2 560.5 244.9 540.9 256.2 521.3 244.9 521.3 222.2"/><polygon class="v" points="560.5 222.2 580.1 210.9 599.8 222.2 599.8 244.9 580.1 256.2 560.5 244.9 560.5 222.2"/><polygon class="w" points="383.9 256.2 403.5 244.9 423.2 256.2 423.2 278.9 403.5 290.2 383.9 278.9 383.9 256.2"/><polygon class="w" points="403.5 290.2 423.2 278.9 442.8 290.2 442.8 312.9 423.2 324.2 403.5 312.9 403.5 290.2"/><polygon class="w" points="423.2 256.2 442.8 244.9 462.4 256.2 462.4 278.9 442.8 290.2 423.2 278.9 423.2 256.2"/><polygon class="w" points="462.4 256.2 482 244.9 501.7 256.2 501.7 278.9 482 290.2 462.4 278.9 462.4 256.2"/><polygon class="m" points="442.8 86.3 462.4 75 482 86.3 482 109 462.4 120.3 442.8 109 442.8 86.3"/><polygon class="m" points="482 18.3 501.7 7 521.3 18.3 521.3 41 501.7 52.3 482 41 482 18.3"/><polygon class="m" points="462.4 52.3 482 41 501.7 52.3 501.7 75 482 86.3 462.4 75 462.4 52.3"/><polygon class="m" points="482 86.3 501.7 75 521.3 86.3 521.3 109 501.7 120.3 482 109 482 86.3"/><polygon class="m" points="521.3 18.3 540.9 7 560.5 18.3 560.5 41 540.9 52.3 521.3 41 521.3 18.3"/><polygon class="m" points="501.7 52.3 521.3 41 540.9 52.3 540.9 75 521.3 86.3 501.7 75 501.7 52.3"/><polygon class="m" points="560.5 18.3 580.1 7 599.8 18.3 599.8 41 580.1 52.3 560.5 41 560.5 18.3"/><polygon class="m" points="540.9 52.3 560.5 41 580.1 52.3 580.1 75 560.5 86.3 540.9 75 540.9 52.3"/><polygon class="m" points="560.5 86.3 580.1 75 599.8 86.3 599.8 109 580.1 120.3 560.5 109 560.5 86.3"/><polygon class="d" points="442.8 154.3 462.4 142.9 482 154.3 482 176.9 462.4 188.3 442.8 176.9 442.8 154.3"/><polygon class="d" points="462.4 120.3 482 109 501.7 120.3 501.7 142.9 482 154.3 462.4 142.9 462.4 120.3"/><polygon class="d" points="521.3 86.3 540.9 75 560.5 86.3 560.5 109 540.9 120.3 521.3 109 521.3 86.3"/><polygon class="d" points="501.7 120.3 521.3 109 540.9 120.3 540.9 142.9 521.3 154.3 501.7 142.9 501.7 120.3"/><polygon class="d" points="540.9 120.3 560.5 109 580.1 120.3 580.1 142.9 560.5 154.3 540.9 142.9 540.9 120.3"/><polygon class="f" points="482 154.3 501.7 142.9 521.3 154.3 521.3 176.9 501.7 188.3 482 176.9 482 154.3"/><polygon class="f" points="521.3 154.3 540.9 142.9 560.5 154.3 560.5 176.9 540.9 188.3 521.3 176.9 521.3 154.3"/><polygon class="f" points="540.9 188.3 560.5 176.9 580.1 188.3 580.1 210.9 560.5 222.2 540.9 210.9 540.9 188.3"/><polygon class="x" points="462.4 188.3 482 176.9 501.7 188.3 501.7 210.9 482 222.2 462.4 210.9 462.4 188.3"/><polygon class="x" points="501.7 188.3 521.3 176.9 540.9 188.3 540.9 210.9 521.3 222.2 501.7 210.9 501.7 188.3"/><polygon class="r" points="501.7 256.2 521.3 244.9 540.9 256.2 540.9 278.9 521.3 290.2 501.7 278.9 501.7 256.2"/><polygon class="t" points="560.5 154.3 580.1 142.9 599.8 154.3 599.8 176.9 580.1 188.3 560.5 176.9 560.5 154.3"/><polygon class="t" points="580.1 120.3 599.8 109 619.4 120.3 619.4 142.9 599.8 154.3 580.1 142.9 580.1 120.3"/><polyline class="d" points="639 41 619.4 52.3 599.8 41 599.8 18.3 619.4 7 639 18.3"/><polygon class="d" points="580.1 52.3 599.8 41 619.4 52.3 619.4 75 599.8 86.3 580.1 75 580.1 52.3"/><polyline class="r" points="639 109 619.4 120.3 599.8 109 599.8 86.3 619.4 75 639 86.3"/></svg>