<svg enable-background="new 0 0 1268 418" viewBox="0 0 1268 418" xmlns="http://www.w3.org/2000/svg"><g stroke="#fff" stroke-miterlimit="10" stroke-width="1.07"><g fill="#c8c8da"><path d="m320.1 80.3 19.6-11.3 19.7 11.3v22.7l-19.7 11.3-19.6-11.3z"/><path d="m320.1 148.3 19.6-11.4 19.7 11.4v22.6l-19.7 11.4-19.6-11.4z"/><path d="m359.4 80.3 19.6-11.3 19.6 11.3v22.7l-19.6 11.3-19.6-11.3z"/><path d="m339.7 114.3 19.7-11.3 19.6 11.3v22.6l-19.6 11.4-19.7-11.4z"/><path d="m359.4 148.3 19.6-11.4 19.6 11.4v22.6l-19.6 11.4-19.6-11.4z"/><path d="m339.7 182.3 19.7-11.4 19.6 11.4v22.6l-19.6 11.3-19.7-11.3z"/><path d="m359.4 216.2 19.6-11.3 19.6 11.3v22.7l-19.6 11.3-19.6-11.3z"/><path d="m379 114.3 19.6-11.3 19.6 11.3v22.6l-19.6 11.4-19.6-11.4z"/><path d="m398.6 148.3 19.6-11.4 19.6 11.4v22.6l-19.6 11.4-19.6-11.4z"/><path d="m379 182.3 19.6-11.4 19.6 11.4v22.6l-19.6 11.3-19.6-11.3z"/><path d="m398.6 216.2 19.6-11.3 19.6 11.3v22.7l-19.6 11.3-19.6-11.3z"/><path d="m418.2 114.3 19.6-11.3 19.7 11.3v22.6l-19.7 11.4-19.6-11.4z"/><path d="m418.2 182.3 19.6-11.4 19.7 11.4v22.6l-19.7 11.3-19.6-11.3z"/></g><path d="m379 46.3 19.6-11.3 19.6 11.3v22.7l-19.6 11.3-19.6-11.3z" fill="#a4a4b6"/><path d="m418.2 46.3 19.6-11.3 19.7 11.3v22.7l-19.7 11.3-19.6-11.3z" fill="#a4a4b6"/><path d="m398.6 80.3 19.6-11.3 19.6 11.3v22.7l-19.6 11.3-19.6-11.3z" fill="#e5e5f7"/><path d="m437.8 148.3 19.7-11.4 19.6 11.4v22.6l-19.6 11.4-19.7-11.4z" fill="#e5e5f7"/><path d="m379 318.2 19.6-11.3 19.6 11.3v22.6l-19.6 11.4-19.6-11.4z" fill="#ccccde"/><path d="m437.8 80.3 19.7-11.3 19.6 11.3v22.7l-19.6 11.3-19.7-11.3z" fill="#c1c1d3"/><path d="m437.8 216.2 19.7-11.3 19.6 11.3v22.7l-19.6 11.3-19.7-11.3z" fill="#cacadc"/><path d="m457.5 182.3 19.6-11.4 19.6 11.4v22.6l-19.6 11.3-19.6-11.3z" fill="#cacadc"/><path d="m477.1 80.3 19.6-11.3 19.6 11.3v22.7l-19.6 11.3-19.6-11.3z" fill="#e5e5f7"/><path d="m457.5 114.3 19.6-11.3 19.6 11.3v22.6l-19.6 11.4-19.6-11.4z" fill="#b5b5c7"/><path d="m477.1 148.3 19.6-11.4 19.6 11.4v22.6l-19.6 11.4-19.6-11.4z" fill="#c7c7d9"/><path d="m496.7 114.3 19.6-11.3 19.7 11.3v22.6l-19.7 11.4-19.6-11.4z" fill="#c7c7d9"/><path d="m477.1 216.2 19.6-11.3 19.6 11.3v22.7l-19.6 11.3-19.6-11.3z" fill="#aaaabc"/><path d="m496.7 182.3 19.6-11.4 19.7 11.4v22.6l-19.7 11.3-19.6-11.3z" fill="#aaaabc"/><path d="m516.3 216.2 19.7-11.3 19.6 11.3v22.7l-19.6 11.3-19.7-11.3z" fill="#aaaabc"/><path d="m496.7 250.2 19.6-11.3 19.7 11.3v22.7l-19.7 11.3-19.6-11.3z" fill="#aaaabc"/><path d="m555.6 216.2 19.6-11.3 19.6 11.3v22.7l-19.6 11.3-19.6-11.3z" fill="#aaaabc"/><path d="m536 250.2 19.6-11.3 19.6 11.3v22.7l-19.6 11.3-19.6-11.3z" fill="#aaaabc"/><path d="m555.6 284.2 19.6-11.3 19.6 11.3v22.7l-19.6 11.3-19.6-11.3z" fill="#aaaabc"/><path d="m575.2 250.2 19.6-11.3 19.6 11.3v22.7l-19.6 11.3-19.6-11.3z" fill="#aaaabc"/><path d="m594.8 284.2 19.6-11.3 19.7 11.3v22.7l-19.7 11.3-19.6-11.3z" fill="#aaaabc"/><path d="m516.3 80.3 19.7-11.3 19.6 11.3v22.7l-19.6 11.3-19.7-11.3z" fill="#e5e5f7"/><path d="m575.2 46.3 19.6-11.3 19.6 11.3v22.7l-19.6 11.3-19.6-11.3z" fill="#d0d0e2"/><path d="m516.3 148.3 19.7-11.4 19.6 11.4v22.6l-19.6 11.4-19.7-11.4z" fill="#c1c1d3"/><path d="m555.6 80.3 19.6-11.3 19.6 11.3v22.7l-19.6 11.3-19.6-11.3z" fill="#9c9cae"/><path d="m594.8 80.3 19.6-11.3 19.7 11.3v22.7l-19.7 11.3-19.6-11.3z" fill="#9c9cae"/><path d="m536 114.3 19.6-11.3 19.6 11.3v22.6l-19.6 11.4-19.6-11.4z" fill="#bfbfd1"/><path d="m555.6 148.3 19.6-11.4 19.6 11.4v22.6l-19.6 11.4-19.6-11.4z" fill="#e8e8fa"/><path d="m575.2 182.3 19.6-11.4 19.6 11.4v22.6l-19.6 11.3-19.6-11.3z" fill="#e8e8fa"/><path d="m536 182.3 19.6-11.4 19.6 11.4v22.6l-19.6 11.3-19.6-11.3z" fill="#e8e8fa"/><path d="m575.2 114.3 19.6-11.3 19.6 11.3v22.6l-19.6 11.4-19.6-11.4z" fill="#c0c0d2"/><path d="m594.8 148.3 19.6-11.4 19.7 11.4v22.6l-19.7 11.4-19.6-11.4z" fill="#c0c0d2"/><path d="m614.4 114.3 19.7-11.3 19.6 11.3v22.6l-19.6 11.4-19.7-11.4z" fill="#c0c0d2"/><path d="m634.1 148.3 19.6-11.4 19.6 11.4v22.6l-19.6 11.4-19.6-11.4z" fill="#c0c0d2"/><path d="m614.4 182.3 19.7-11.4 19.6 11.4v22.6l-19.6 11.3-19.7-11.3z" fill="#c0c0d2"/><path d="m594.8 216.2 19.6-11.3 19.7 11.3v22.7l-19.7 11.3-19.6-11.3z" fill="#c9c9db"/><path d="m614.4 46.3 19.7-11.3 19.6 11.3v22.7l-19.6 11.3-19.7-11.3z" fill="#cecee0"/><path d="m673.3 80.3 19.6-11.3 19.6 11.3v22.7l-19.6 11.3-19.6-11.3z" fill="#cecee0"/><path d="m692.9 46.3 19.6-11.3 19.7 11.3v22.7l-19.7 11.3-19.6-11.3z" fill="#cecee0"/><path d="m634.1 216.2 19.6-11.3 19.6 11.3v22.7l-19.6 11.3-19.6-11.3z" fill="#bebed0"/><path d="m673.3 216.2 19.6-11.3 19.6 11.3v22.7l-19.6 11.3-19.6-11.3z" fill="#bebed0"/><path d="m614.4 250.2 19.7-11.3 19.6 11.3v22.7l-19.6 11.3-19.7-11.3z" fill="#c6c6d8"/><path d="m634.1 284.2 19.6-11.3 19.6 11.3v22.7l-19.6 11.3-19.6-11.3z" fill="#c6c6d8"/><path d="m653.7 114.3 19.6-11.3 19.6 11.3v22.6l-19.6 11.4-19.6-11.4z" fill="#bfbfd1"/><path d="m673.3 148.3 19.6-11.4 19.6 11.4v22.6l-19.6 11.4-19.6-11.4z" fill="#bfbfd1"/><path d="m653.7 182.3 19.6-11.4 19.6 11.4v22.6l-19.6 11.3-19.6-11.3z" fill="#bfbfd1"/><path d="m653.7 250.2 19.6-11.3 19.6 11.3v22.7l-19.6 11.3-19.6-11.3z" fill="#ccccde"/><path d="m673.3 284.2 19.6-11.3 19.6 11.3v22.7l-19.6 11.3-19.6-11.3z" fill="#a5a5b7"/><path d="m751.8 284.2 19.6-11.3 19.6 11.3v22.7l-19.6 11.3-19.6-11.3z" fill="#a5a5b7"/><path d="m791 284.2 19.7-11.3 19.6 11.3v22.7l-19.6 11.3-19.7-11.3z" fill="#a5a5b7"/><path d="m771.4 318.2 19.6-11.3 19.7 11.3v22.6l-19.7 11.4-19.6-11.4z" fill="#a5a5b7"/><path d="m791 352.2 19.7-11.4 19.6 11.4v22.6l-19.6 11.4-19.7-11.4z" fill="#a5a5b7"/><path d="m810.7 318.2 19.6-11.3 19.6 11.3v22.6l-19.6 11.4-19.6-11.4z" fill="#a5a5b7"/><path d="m830.3 352.2 19.6-11.4 19.6 11.4v22.6l-19.6 11.4-19.6-11.4z" fill="#a5a5b7"/><path d="m810.7 386.2 19.6-11.4 19.6 11.4v22.6l-19.6 11.3-19.6-11.3z" fill="#a5a5b7"/><path d="m692.9 114.3 19.6-11.3 19.7 11.3v22.6l-19.7 11.4-19.6-11.4z" fill="#dfdff1"/><path d="m712.5 148.3 19.7-11.4 19.6 11.4v22.6l-19.6 11.4-19.7-11.4z" fill="#dfdff1"/><path d="m732.2 114.3 19.6-11.3 19.6 11.3v22.6l-19.6 11.4-19.6-11.4z" fill="#dfdff1"/><path d="m692.9 182.3 19.6-11.4 19.7 11.4v22.6l-19.7 11.3-19.6-11.3z" fill="#c4c4d6"/><path d="m732.2 182.3 19.6-11.4 19.6 11.4v22.6l-19.6 11.3-19.6-11.3z" fill="#c4c4d6"/><path d="m712.5 216.2 19.7-11.3 19.6 11.3v22.7l-19.6 11.3-19.7-11.3z" fill="#e6e6f8"/><path d="m751.8 216.2 19.6-11.3 19.6 11.3v22.7l-19.6 11.3-19.6-11.3z" fill="#e6e6f8"/><path d="m791 216.2 19.7-11.3 19.6 11.3v22.7l-19.6 11.3-19.7-11.3z" fill="#e6e6f8"/><path d="m830.3 216.2 19.6-11.3 19.6 11.3v22.7l-19.6 11.3-19.6-11.3z" fill="#e6e6f8"/><path d="m869.5 216.2 19.6-11.3 19.7 11.3v22.7l-19.7 11.3-19.6-11.3z" fill="#e6e6f8"/><path d="m692.9 250.2 19.6-11.3 19.7 11.3v22.7l-19.7 11.3-19.6-11.3z" fill="#c3c3d5"/><path d="m712.5 284.2 19.7-11.3 19.6 11.3v22.7l-19.6 11.3-19.7-11.3z" fill="#c3c3d5"/><path d="m732.2 250.2 19.6-11.3 19.6 11.3v22.7l-19.6 11.3-19.6-11.3z" fill="#c3c3d5"/><path d="m771.4 250.2 19.6-11.3 19.7 11.3v22.7l-19.7 11.3-19.6-11.3z" fill="#c3c3d5"/><path d="m751.8 80.3 19.6-11.3 19.6 11.3v22.7l-19.6 11.3-19.6-11.3z" fill="#e8e8fa"/><path d="m791 12.3 19.7-11.3 19.6 11.3v22.7l-19.6 11.3-19.7-11.3z" fill="#e8e8fa"/><path d="m771.4 46.3 19.6-11.3 19.7 11.3v22.7l-19.7 11.3-19.6-11.3z" fill="#e8e8fa"/><path d="m791 80.3 19.7-11.3 19.6 11.3v22.7l-19.6 11.3-19.7-11.3z" fill="#e8e8fa"/><path d="m830.3 12.3 19.6-11.3 19.6 11.3v22.7l-19.6 11.3-19.6-11.3z" fill="#e8e8fa"/><path d="m810.7 46.3 19.6-11.3 19.6 11.3v22.7l-19.6 11.3-19.6-11.3z" fill="#e8e8fa"/><path d="m869.5 12.3 19.6-11.3 19.7 11.3v22.7l-19.7 11.3-19.6-11.3z" fill="#e8e8fa"/><path d="m849.9 46.3 19.6-11.3 19.6 11.3v22.7l-19.6 11.3-19.6-11.3z" fill="#e8e8fa"/><path d="m869.5 80.3 19.6-11.3 19.7 11.3v22.7l-19.7 11.3-19.6-11.3z" fill="#e8e8fa"/><path d="m751.8 148.3 19.6-11.4 19.6 11.4v22.6l-19.6 11.4-19.6-11.4z" fill="#ccccde"/><path d="m771.4 114.3 19.6-11.3 19.7 11.3v22.6l-19.7 11.4-19.6-11.4z" fill="#ccccde"/><path d="m830.3 80.3 19.6-11.3 19.6 11.3v22.7l-19.6 11.3-19.6-11.3z" fill="#ccccde"/><path d="m810.7 114.3 19.6-11.3 19.6 11.3v22.6l-19.6 11.4-19.6-11.4z" fill="#ccccde"/><path d="m849.9 114.3 19.6-11.3 19.6 11.3v22.6l-19.6 11.4-19.6-11.4z" fill="#ccccde"/><path d="m791 148.3 19.7-11.4 19.6 11.4v22.6l-19.6 11.4-19.7-11.4z" fill="#cacadc"/><path d="m830.3 148.3 19.6-11.4 19.6 11.4v22.6l-19.6 11.4-19.6-11.4z" fill="#cacadc"/><path d="m849.9 182.3 19.6-11.4 19.6 11.4v22.6l-19.6 11.3-19.6-11.3z" fill="#cacadc"/><path d="m771.4 182.3 19.6-11.4 19.7 11.4v22.6l-19.7 11.3-19.6-11.3z" fill="#9e9eb0"/><path d="m810.7 182.3 19.6-11.4 19.6 11.4v22.6l-19.6 11.3-19.6-11.3z" fill="#9e9eb0"/><path d="m810.7 250.2 19.6-11.3 19.6 11.3v22.7l-19.6 11.3-19.6-11.3z" fill="#c6c6d8"/><path d="m869.5 148.3 19.6-11.4 19.7 11.4v22.6l-19.7 11.4-19.6-11.4z" fill="#dfdff1"/><path d="m889.1 114.3 19.7-11.3 19.6 11.3v22.6l-19.6 11.4-19.7-11.4z" fill="#dfdff1"/><path d="m948 35-19.6 11.3-19.6-11.3v-22.7l19.6-11.3 19.6 11.3" fill="#ccccde"/><path d="m889.1 46.3 19.7-11.3 19.6 11.3v22.7l-19.6 11.3-19.7-11.3z" fill="#ccccde"/><path d="m948 103-19.6 11.3-19.6-11.3v-22.7l19.6-11.3 19.6 11.3" fill="#c6c6d8"/></g></svg>