<?xml version="1.0" encoding="utf-8"?>
<!-- Generator: Adobe Illustrator 22.1.0, SVG Export Plug-In . SVG Version: 6.00 Build 0)  -->
<svg version="1.1" id="Layer_1" xmlns="http://www.w3.org/2000/svg" xmlns:xlink="http://www.w3.org/1999/xlink" x="0px" y="0px"
	 viewBox="0 0 1200 907" style="enable-background:new 0 0 1200 907;" xml:space="preserve">
<style type="text/css">
	.st0{fill:#E3E3E3;}
	.st1{fill:#D5D5D5;}
	.st2{fill:#514361;}
	.st3{font-family:'RobotoMono-Regular';}
	.st4{font-size:36.6428px;}
	.st5{fill:none;stroke:#AFAFAF;stroke-width:4;stroke-linecap:round;stroke-miterlimit:10;stroke-dasharray:0,9.9536;}
	.st6{fill:#AFAFAF;}
	.st7{fill:#909090;}
</style>
<g>
	<rect x="2" y="849.1" class="st0" width="57.9" height="57.9"/>
	<rect x="435.1" y="849.1" class="st1" width="57.9" height="57.9"/>
	<g>
		<g>
			<text transform="matrix(0.9552 0 0 1 90.4424 888.7656)" class="st2 st3 st4">category A</text>
		</g>
	</g>
	<g>
		<g>
			<text transform="matrix(0.9552 0 0 1 533.0753 888.7656)" class="st2 st3 st4">category B</text>
		</g>
	</g>
	<g>
		<g>
			<text transform="matrix(0.9552 0 0 1 493.0227 96.7009)" class="st2 st3 st4">time</text>
		</g>
	</g>
	<g>
		<g>
			<g>
				<g>
					<line class="st5" x1="493" y1="55.9" x2="1136.3" y2="55.9"/>
					<g>
						<polygon class="st6" points="1133.4,65.9 1150.6,55.9 1133.4,46 						"/>
					</g>
				</g>
			</g>
		</g>
	</g>
	<path class="st0" d="M1198,292.6v387l-16.4-5.8c-70.8-25.3-149.8-11-207.2,37.5l-45.5,38.4c-41.4,34.9-102.1,34.5-143.1-1
		l-79.7-69.2c-16.5-14.4-39.5-19-60.3-12l-18.8,6.3c-28.9,9.6-60.5,5.4-85.9-11.5L479.5,621c-39.3-26.2-91.1-23.2-127.1,7.4
		l-28.2,23.9c-55.1,46.9-137.2,43-187.6-8.9l-27.5-28.3c-26.7-27.5-63.4-43-101.7-43H2V437h5.5c38.3,0,75-52.5,101.7-80l27.5-28.3
		c50.4-51.9,132.4-55.8,187.6-8.9l28.2,23.9c35.9,30.6,87.8,33.6,127.1,7.4l61.7-41.1c25.3-16.9,57-21.2,85.9-11.5l18.8,6.3
		c20.8,7,43.8,2.4,60.3-12l79.7-69.2c40.9-35.6,101.7-36,143.1-1l45.5,38.4c57.5,48.5,136.4,62.8,207.2,37.5L1198,292.6z"/>
	<path class="st1" d="M1198,390.9v288.6l-16.4-5.8c-70.8-25.3-149.8-11-207.2,37.5l-45.5,38.4c-41.4,34.9-102.1,34.5-143.1-1
		l-79.7-69.2c-16.5-14.4-39.5-19-60.3-12l-18.8,6.3c-28.9,9.6-60.5,5.4-85.9-11.5L479.5,621c-39.3-26.2-91.1-23.2-127.1,7.4
		l-28.2,23.9c-55.1,46.9-137.2,43-187.6-8.9l-27.5-28.3c-26.7-27.5-63.4-43-101.7-43H2v-31.9l81.2-47.7
		c25.1-13.9,55.5-14.2,80.8-0.6l20.3,10.9c43.8,23.5,96.3,23.8,140.4,1.1l103-53.3c63-32.6,140.1-18.7,187.9,33.7l105.1,115.2
		c31.3,34.3,84.5,36.6,118.6,5l156.1-144.2C1050.3,409.6,1123.9,384.5,1198,390.9z"/>
	<g>
		<g>
			<line class="st5" x1="778" y1="172.6" x2="778" y2="609.6"/>
			<g>
				<polygon class="st7" points="768,249.3 778,232 788,249.3 				"/>
			</g>
			<g>
				<polygon class="st7" points="768,606.7 778,624 788,606.7 				"/>
			</g>
		</g>
	</g>
	<g>
		<g>
			<text transform="matrix(0.9552 0 0 1 733.2063 160.9458)" class="st2 st3 st4">value</text>
		</g>
	</g>
</g>
<g>
	<g>
		<text transform="matrix(0.9552 0 0 1 28.359 224.8378)" class="st2 st3 st4">X axis</text>
	</g>
</g>
<g>
	<g>
		<line class="st5" x1="2" y1="488.8" x2="281.7" y2="488.8"/>
		<g>
			<polygon class="st6" points="278.8,498.8 296.1,488.8 278.8,478.9 			"/>
		</g>
	</g>
</g>
<line class="st5" x1="83.1" y1="478.6" x2="83.1" y2="232"/>
</svg>
