<svg xmlns="http://www.w3.org/2000/svg" width="1268" height="418" viewBox="0 0 1268 418"><title>cover</title><circle cx="59.2" cy="59.2" r="59.2" fill="#8a85b6"/><circle cx="59.2" cy="209" r="59.2" fill="#8a85b6"/><circle cx="59.2" cy="358.8" r="59.2" fill="#8a85b6"/><circle cx="223.4" cy="59.2" r="59.2" fill="#8a85b6"/><circle cx="223.4" cy="209" r="59.2" fill="#8a85b6"/><circle cx="223.4" cy="358.8" r="59.2" fill="#8a85b6"/><circle cx="387.7" cy="59.2" r="59.2" fill="#8a85b6"/><circle cx="387.7" cy="209" r="59.2" fill="#8a85b6"/><circle cx="387.7" cy="358.8" r="59.2" fill="#8a85b6"/><circle cx="551.9" cy="59.2" r="59.2" fill="#8a85b6"/><circle cx="551.9" cy="209" r="59.2" fill="#8a85b6"/><circle cx="551.9" cy="358.8" r="59.2" fill="#8a85b6"/><circle cx="711.6" cy="59.2" r="59.2" fill="#8a85b6"/><circle cx="711.6" cy="209" r="59.2" fill="#8a85b6"/><circle cx="711.6" cy="358.8" r="59.2" fill="#8a85b6"/><circle cx="880.3" cy="59.2" r="59.2" fill="#8a85b6"/><circle cx="880.3" cy="209" r="59.2" fill="#8a85b6"/><circle cx="880.3" cy="358.8" r="59.2" fill="#8a85b6"/><circle cx="1044.6" cy="59.2" r="59.2" fill="#8a85b6"/><circle cx="1044.6" cy="209" r="59.2" fill="#8a85b6"/><circle cx="1044.6" cy="358.8" r="59.2" fill="#8a85b6"/><circle cx="1208.8" cy="59.2" r="59.2" fill="#8a85b6"/><circle cx="1208.8" cy="209" r="59.2" fill="#8a85b6"/><circle cx="1208.8" cy="358.8" r="59.2" fill="#8a85b6"/><path d="M208.3,321.1a8.1,8.1,0,0,1,8.1-8.1,8.2,8.2,0,0,1,8.2,8.1,8.2,8.2,0,0,1-8.2,8.2A8.2,8.2,0,0,1,208.3,321.1Zm14.3,15.6a3.5,3.5,0,0,0-3.4-3.4H196.4a3.4,3.4,0,0,0,0,6.8h22.7A3.5,3.5,0,0,0,222.6,336.7Zm34.5-2.2a37.4,37.4,0,0,1-9.2,24.5l-1.5,1.6-18.1-18v26.9l6.5,33.9a4.6,4.6,0,0,1-3.6,5.4,4.6,4.6,0,0,1-5.4-3.6l-6.7-34.7h-2.8l-6.5,34.7a4.6,4.6,0,0,1-9-1.8l6.3-33.6h0v-28h12.1a5.1,5.1,0,0,0,5.1-5.2,5.4,5.4,0,0,0-1.5-3.7,10.2,10.2,0,0,0,.3-1.1l.4-.3,23-23a20,20,0,0,1,1.4,1.6A36.9,36.9,0,0,1,257.1,334.5Zm-4.2-3.2a32.7,32.7,0,0,0-7.8-18.5c-4.6,4.6-13.6,13.7-18.5,18.5Zm0,6.4H228.3v1.8c5.2,5,12.7,12.6,16.8,16.6A33.1,33.1,0,0,0,252.9,337.7Z" fill="#fff"/><path d="M548.6,79.5a10.1,10.1,0,0,1-3.1.5,12.4,12.4,0,0,1-3.3-.4l-11.8,27.2c-1.1,2.5-4.1,3.3-6.7,1.9a5.9,5.9,0,0,1-2.7-7.2l14.5-33.3H554V65.1l9.4-4.3c2.4-1.2,5.6.8,6.3,3.4l4.6,18.4a4.9,4.9,0,0,1-3.6,5.9,5,5,0,0,1-5.9-3.5l-2.9-11.8Zm8.5-19.1c20.3-10.1,28.1-44.5,28.1-47.4h-2.7c-1.1,7.2-9.8,35.9-25.4,44.3v3.1Zm-37.4-7.6a4.1,4.1,0,0,0,5.1,1.6l10.7-4.1V65.1h18.6V47.9l16.6-26.5a4.3,4.3,0,0,0-1.3-5.8,4,4,0,0,0-5.6,1.3L549.7,39.4h-8.5a2.9,2.9,0,0,0-1.6.3l-14.7,5.7L517.3,34a4.1,4.1,0,0,0-5.7-1.2,4,4,0,0,0-1.3,5.7Zm23.8-14.9a7.4,7.4,0,1,0-7.4-7.4A7.4,7.4,0,0,0,543.5,37.9ZM554,113.2V80l-3.1,1.4v31.8Z" fill="#fff"/><path d="M1198,24.7a7.4,7.4,0,0,0,6.7,4.7,7.2,7.2,0,0,0,7.2-7.2,7.5,7.5,0,0,0-.5-2.6h2.5a10,10,0,0,0-9.7-7.5,10.1,10.1,0,0,0-10.2,10,11.7,11.7,0,0,0,.4,2.7h3.6Zm26.7,30.7-15.2,4.3v22a5.7,5.7,0,0,0,4.1-1.9l14.8-16.9Zm-20.3-9.8a3,3,0,0,0,2.8,1.7h10c4.1,0,4.1-5.3,0-5.3h-8.1l-8.2-12.5a5.4,5.4,0,0,0-4.1-1.8,5.3,5.3,0,0,0-4.2,2l-12.1,18.4a5.7,5.7,0,0,0-.8,2.8,5.6,5.6,0,0,0,2.5,4.6l16.1,8.9V79.7a3.9,3.9,0,0,0,3.9,3.9,3.8,3.8,0,0,0,3.9-3.9v-19a4.6,4.6,0,0,0-2.9-4.7l-10.1-5.3,7.4-11.2Zm35,9.2a11.8,11.8,0,0,1,4.9,1.2h.3a1,1,0,0,0,.9-.9.6.6,0,0,0-.3-.6,8,8,0,0,0-6.5-2.5,19.7,19.7,0,0,0-5.9,1.3l1.8,3.4A7.8,7.8,0,0,1,1239.4,54.8ZM1178,57.3a11.5,11.5,0,0,0-5.8-1.5c-3,0-5,.6-7,2.5a.8.8,0,0,0-.2.6.9.9,0,0,0,.9.9h.3a9.8,9.8,0,0,1,4.8-1.3,11.7,11.7,0,0,1,4.6,1.2L1195,70.3V66.6Zm1.6,9.9A14.5,14.5,0,1,0,1194,81.6,14.5,14.5,0,0,0,1179.6,67.2Zm0,24.5a10,10,0,1,1,10-10A10,10,0,0,1,1179.6,91.7Zm59.7-24.5a14.5,14.5,0,1,0,14.4,14.4A14.4,14.4,0,0,0,1239.3,67.2Zm0,24.5a10,10,0,1,1,10-10A10,10,0,0,1,1239.3,91.7Zm-21.2-41.8a1.6,1.6,0,0,0,1.6,1.6h4.6a2.3,2.3,0,0,1,2,1.3l6.6,13.5,3.2-1.1-7-14.1a5.5,5.5,0,0,0-4.8-2.8h-4.5A1.6,1.6,0,0,0,1218.1,49.9Z" fill="#fff"/><path d="M670.8,27.2,684.2,41l5.2-4.7-4.7-9.1Zm60.6,38.5a4.8,4.8,0,1,0,2.7-9.2l-2-.6-2.6,9.2Zm-1.5-10.4-16.2-4.5a1.9,1.9,0,0,0-2.4,1.4l-1.5,5.4a2.1,2.1,0,0,0,1.3,2.5l16.2,4.5Zm2.5,15.4a9.3,9.3,0,0,0-4.5-2.6l-19.6-5.5-12-21.3a4.5,4.5,0,0,0-3-2.3,4.9,4.9,0,0,0-6.1,3.4,4.6,4.6,0,0,0,.5,3.6l15,26.4a8,8,0,0,0,4.3,3L734.3,83l12.6,12.9a3.1,3.1,0,0,0,1.7.9,3.5,3.5,0,0,0,4.4-2.5,3.6,3.6,0,0,0-1-3.6ZM747,76l2.8,3.7,5.7-6.3-4.8-2.7a6.9,6.9,0,0,0-5.1-7.7,7,7,0,0,0-3.8,13.5A7.7,7.7,0,0,0,747,76" fill="#fff"/><path d="M1074.3,351.6a20.7,20.7,0,1,0,20.6,20.7A20.7,20.7,0,0,0,1074.3,351.6Zm15.9,20.7a15.9,15.9,0,1,1-15.9-16A15.9,15.9,0,0,1,1090.2,372.3Zm-36.1-49.4a7.9,7.9,0,1,0-7.9-7.8A7.9,7.9,0,0,0,1054.1,322.9Zm15.3,19.1c4.7,0,4.7-6.1,0-6.1h-13.1l-8.4-13.1a6.8,6.8,0,0,0-5.4-3.1,5.8,5.8,0,0,0-4.9,2L1021,338.3a6.6,6.6,0,0,0-1.7,4.4,6.5,6.5,0,0,0,3.4,5.8l16.9,9.4v17.7a4.6,4.6,0,1,0,9.1,0V353.5s.6-3.5-3.4-5.5l-9.8-5.1,10.5-10.4,4.9,7.6a3.7,3.7,0,0,0,3.3,1.9Zm-55.5,9.6a20.7,20.7,0,1,0,20.6,20.7A20.7,20.7,0,0,0,1013.9,351.6Zm15.9,20.7a16,16,0,0,1-31.9,0,16,16,0,1,1,31.9,0Zm-16.2,2.1H1005l14.7-14.7-5.6,10.5h8.6L1008,384.8Z" fill="#fff"/><path d="M1231,163.1a8,8,0,0,0-4.7-1.5,8.5,8.5,0,0,0-7,3.6,8.6,8.6,0,0,0,2.1,11.8,8.5,8.5,0,0,0,11.7-2.1A8.4,8.4,0,0,0,1231,163.1Zm20.3,16a3.7,3.7,0,0,0-5.2.9l-7.9,11.3-13.5-9.5-5.5-3.9a12.3,12.3,0,0,0-7.3-2.4h-17a3.6,3.6,0,0,0-3.3,1.6l-9.9,14.2a3.7,3.7,0,0,0,1,5.1,3.6,3.6,0,0,0,5.1-.9l8.8-12.6h10.3l-26.7,38.7-16.7-4.4a5.2,5.2,0,0,0-6.4,3.6,5.3,5.3,0,0,0,3.6,6.5l20.4,5.4a5.1,5.1,0,0,0,4-.5,6.6,6.6,0,0,0,2.1-2.3c.6-.7,9.3-13.2,9.3-13.2l16.3,11.6,3.3,18.7a5.4,5.4,0,0,0,6.1,4.3,5.3,5.3,0,0,0,4.3-6.1l-3.6-20.8a4.9,4.9,0,0,0-2.3-3.3l-12.9-9.1,15.2-22.5,14.2,9.9a3.8,3.8,0,0,0,5.2-1l9.9-14.2A3.6,3.6,0,0,0,1251.3,179.1Zm-5.9,44.5a9.7,9.7,0,1,1-9.6,9.6A9.6,9.6,0,0,1,1245.4,223.6Z" fill="#fff"/><path d="M1053.6,64.7a5,5,0,1,0-3.5-6.2A5.1,5.1,0,0,0,1053.6,64.7Zm37.5-35.1s-15.5-1.1-50.7,1.1c-25.9,1.6-47,4.9-47,4.9s9,3.4,8.2,15.5c0,0,12.5-2.3,18.5,8.2l23.3-8.6-.6,15.9-9.9,3.1a5,5,0,0,0-2.1,1.3L1010,93.6a3.3,3.3,0,1,0,4.8,4.4l15.6-17,20-6.2h-.1l3.3-1,3.3,3.3a2.3,2.3,0,0,0,1.9.7l10.9-.6a2.6,2.6,0,0,0,2.4-2.7h0a2.6,2.6,0,0,0-2.1-2.3l-9.9-27.8,31.7-12.3C1093.3,31.3,1093.1,29.6,1091.1,29.6Zm-23.6,42.7-7.9.5-6.2-6.3-.3-.2A5,5,0,0,0,1048,65l-2.9.9.6-16.1,12.2-4.5Z" fill="#fff"/><path d="M876.3,173.1a7.7,7.7,0,1,0,7.7,7.6A7.7,7.7,0,0,0,876.3,173.1Zm39.3,15.1a4.5,4.5,0,0,0-1.7-2.7l-45.6-30-4.2,6.1a2.5,2.5,0,0,0,.8,3.6,2.6,2.6,0,0,0,3.6-.7l2.4-3.5,37,24.4-30.3,5.5a3.9,3.9,0,0,0-3.2,4.6L881,221l-21.4,32a4.6,4.6,0,0,0,8.1,4.5S890,224.1,890,223.8l1.2,4.7-3.3,25.1a4.6,4.6,0,0,0,9.1,1.5l3.4-25.9a8.2,8.2,0,0,0-.1-2.7l-7.6-30.3,19.8-3.6A3.7,3.7,0,0,0,915.6,188.2Z" fill="#fff"/><path d="M59.1,174.3a8.6,8.6,0,1,0-8.6-8.6A8.5,8.5,0,0,0,59.1,174.3Zm38.8,27.8v7.3H96.8V194.7H87.3v14.7H80.7V190.8l-7.3-10.6c-2.2-3.1-4.8-4.6-8.4-4.6H53.3c-3.7,0-6.3,1.5-8.5,4.6l-7.3,10.6v18.6h-6V194.7H22v14.7H20.9v-7.3H13.8v17.8h7.1v-7.3H22v14.7h9.5V212.6h5.9a3.8,3.8,0,1,0,7.5,0h3.5v41.9a4.7,4.7,0,0,0,4.5,4.9,4.8,4.8,0,0,0,5.1-5V216.2h1.6v38.2a4.8,4.8,0,1,0,9.6.1V212.6H73a3.8,3.8,0,0,0,7.5,0h6.7v14.7h9.5V212.6h1.1v7.3H105V202.1ZM45,209.4V193.9l3.5-5v20.5Zm24.6,0V188.9l3.5,5v15.5Z" fill="#fff"/><path d="M518.7,349.8a8.5,8.5,0,0,0-.8,2.4c0,.5-.1.9-.1,1.3l.3,20.3-6.9,15.1a2.5,2.5,0,0,0-.5,1.5,4.5,4.5,0,0,0,8.4,2.8l7.7-16.4a2.7,2.7,0,0,0,.3-1.2,1.5,1.5,0,0,0,.1-.6V362.5l11.8,5.1,2,12.3a4.5,4.5,0,0,0,3.7,3.5,4.7,4.7,0,0,0,5.2-3.8,2.8,2.8,0,0,0,0-1.3l-2.3-14.8a4.4,4.4,0,0,0-2.6-3.2l-10.5-4.7,6.7-11.7,3.3,4.2a3.8,3.8,0,0,0,1.3.9l12.7,3.7a3.6,3.6,0,0,0,2.1-6.8h-.2l-11-3.2-8.3-10a8.7,8.7,0,0,0-4.8-2.6,8.3,8.3,0,0,0-8.3,3.9Zm36.4,29-.8,6-21.8,5.4.2,3.7H586a3.5,3.5,0,0,0,3.5-3.4V318.6l-7.3-1.7-4.2,18.9-7.1,3-6.2,17.4,6,13.3-1.7,5.2Zm-14.8-49.7a6.8,6.8,0,1,0,0-13.6,6.9,6.9,0,0,0-6.8,6.8A6.7,6.7,0,0,0,540.3,329.1Zm-13.5,1.1a2,2,0,0,0-.8-2.7l-3.3-1.9a1.9,1.9,0,0,0-2.6.7l-10.2,17.5a2,2,0,0,0,.8,2.7l3.3,1.9a1.8,1.8,0,0,0,2.6-.7Z" fill="#fff"/><path d="M225.2,21.5a7.5,7.5,0,1,0-7.5-7.5A7.6,7.6,0,0,0,225.2,21.5ZM207.3,44.4l5.3-21.7a2.2,2.2,0,0,0-1.6-2.6l-6.2-1.5a2.2,2.2,0,0,0-2.7,1.6l-5.2,21.7a2.2,2.2,0,0,0,1.5,2.6l6.3,1.5A2.1,2.1,0,0,0,207.3,44.4Zm48.3-14.2a1.9,1.9,0,0,0-1.7,1.5L241.3,100v.2a1.8,1.8,0,0,0,1.8,1.7,1.8,1.8,0,0,0,1.7-1.5l12.5-68.2V32A1.8,1.8,0,0,0,255.6,30.2ZM225.9,45.9l.9-4.3.8,3.4a3.4,3.4,0,0,0,2.8,2.5l12.1,3.1h.8a3.6,3.6,0,0,0,3.6-3.6,3.7,3.7,0,0,0-2.8-3.6l-10.6-2.6L230.7,29a7.8,7.8,0,0,0-7.7-6.4c-6.1-.2-7.6,6.2-7.6,6.2L199.5,95.4a4.1,4.1,0,0,0-.1,1.1,5.2,5.2,0,0,0,5.3,5.2,5.1,5.1,0,0,0,5-3.7l9.1-37.4,8.6,37.2a5.3,5.3,0,0,0,5.2,4,5.2,5.2,0,0,0,5.2-5.2c0-.4-.1-.8-.1-1.2Z" fill="#fff"/><path d="M567.2,169.3a7.3,7.3,0,0,1,7.3-7.3,7.3,7.3,0,1,1-7.3,7.3Zm-13.4,72.5h19.9c3.8-.5,3.1-5.6,3.1-5.6h-2.7v1.5a1.3,1.3,0,0,1-1.5,1.3H553.8Zm-49.1-15.4,14.1,14.1c3,2.3,6.2-1.8,6.2-1.8l-2-1.9-1.1,1a1.2,1.2,0,0,1-1.9,0l-13.4-13.4Zm53.5-6.6V233a4.5,4.5,0,0,0,4.5,4.5c2.3,0,4.5-2.6,4.5-4.5V214.6a4.4,4.4,0,0,0-1.4-3.3L555,200.5l14.4-14.4a8.3,8.3,0,0,0,1.3-7.4c-1.5-4.4-6.6-4.6-6.6-4.6h-37a3.6,3.6,0,0,0,0,7.2h25.5L541.9,192a7.9,7.9,0,0,0-2.3,5.7,7.5,7.5,0,0,0,2.3,5.6Zm-18.6-14.5-.9-1-21.3,21.3a4.3,4.3,0,0,0-1.2,5.5,4.3,4.3,0,0,0,5.9,1.9l.9-.5,21.9-21.9Z" fill="#fff"/><path d="M356.5,389.6a16.8,16.8,0,1,0-16.8-16.8,16.8,16.8,0,0,0,16.8,16.8M336,372.8a20.5,20.5,0,1,1,20.5,20.7A20.4,20.4,0,0,1,336,372.8m80.9,17a16.8,16.8,0,1,0,0-33.5,16.8,16.8,0,0,0,0,33.5m-20.6-16.7a20.5,20.5,0,1,1,20.5,20.5,20.5,20.5,0,0,1-20.5-20.5m.1-50a7.9,7.9,0,0,0,7.8-7.8,7.7,7.7,0,0,0-7.8-7.7,7.8,7.8,0,1,0,0,15.5m.4,18.6a3.7,3.7,0,0,1-3.2-1.9l-5.1-7.8-10.3,10.2,9.6,5.1a5.3,5.3,0,0,1,3.4,5.3v21.8a4.3,4.3,0,0,1-4.4,4.4,4.4,4.4,0,0,1-4.4-4.4V357.1l-16.7-9.4a6.6,6.6,0,0,1-3.3-5.6,6.4,6.4,0,0,1,1.7-4.4l16.3-16.3a5.6,5.6,0,0,1,4.8-2c3.4,0,5.3,3.1,5.3,3.1l8.4,13.2h12.9c4.6,0,4.6,6,0,6Z" fill="#fff"/><path d="M238.3,161.4a7.4,7.4,0,1,0,7.4,7.4A7.6,7.6,0,0,0,238.3,161.4Zm-55.6,50.8a2.2,2.2,0,1,0-.7,3A2.1,2.1,0,0,0,182.7,212.2Zm1.6,6a2.2,2.2,0,0,0-3-.7,2.1,2.1,0,0,0-.7,3,2.1,2.1,0,0,0,2.9.7A2.2,2.2,0,0,0,184.3,218.2Zm1.5,6a2.2,2.2,0,0,0-3-.7,2.1,2.1,0,0,0-.7,3,2.2,2.2,0,0,0,3,.7A2.2,2.2,0,0,0,185.8,224.2Zm1.4,6a2.1,2.1,0,0,0-2.9-.7,2.2,2.2,0,0,0-.7,3,2.2,2.2,0,0,0,3,.7A2.1,2.1,0,0,0,187.2,230.2Zm35.3,12.2a2.2,2.2,0,0,0-1.4,2.8,2.3,2.3,0,0,0,2.7,1.4,2.2,2.2,0,0,0,1.5-2.7A2.3,2.3,0,0,0,222.5,242.4Zm6.2.1a2.2,2.2,0,0,0-1.4,2.7,2.3,2.3,0,0,0,2.8,1.5,2.3,2.3,0,0,0,1.4-2.8A2.2,2.2,0,0,0,228.7,242.5Zm6.2,0a2.2,2.2,0,0,0-1.4,2.7,2.2,2.2,0,1,0,1.4-2.7Zm6.2,0a2.2,2.2,0,0,0-1.4,2.8,2.3,2.3,0,0,0,2.7,1.4,2.2,2.2,0,0,0-1.3-4.2ZM255.9,194H243l-5.9-13.3a4.9,4.9,0,0,0-.3-.7h0v-.2h0a7,7,0,0,0-6.1-4,3.7,3.7,0,0,0-1.5.1l-32.3,7.5a3.6,3.6,0,0,0-2.7,4.4,3.5,3.5,0,0,0,4.3,2.7l21.5-5.1-16.3,27H186.1l3.8,15.3a4.1,4.1,0,0,1,.3.8,1.8,1.8,0,0,0,2.6.6,2,2,0,0,0,.9-1.2l2.3-7.1v-.3h10.8c2.1,0,4-.6,5.1-2.4l4.9-8.3,11.1,11-4.7,18.5h16.3a1.9,1.9,0,0,0,1.9-1.9,1.8,1.8,0,0,0-1.2-1.7l-7-3.9,3.4-13.3a5.5,5.5,0,0,0-1.8-5.4l-9.1-9s4.9-7.9,8-13.1l3.6,8.2a4.2,4.2,0,0,0,1.3,1.6h0a3.6,3.6,0,0,0,2,.6h15.1a3.6,3.6,0,0,0,3.7-3.6A3.7,3.7,0,0,0,255.9,194Z" fill="#fff"/><path d="M724.5,330.1a8.1,8.1,0,1,0-8.1-8.1,8.1,8.1,0,0,0,8.1,8.1m31.8,58.3a12.2,12.2,0,0,1-5.4-1.2,13.1,13.1,0,0,0-5.6-1.2,12.6,12.6,0,0,0-5.5,1.2,12.7,12.7,0,0,1-10.8,0,13.7,13.7,0,0,0-11.2,0,11.9,11.9,0,0,1-5.4,1.2,11.8,11.8,0,0,1-5.3-1.2,13.1,13.1,0,0,0-5.6-1.2,13.4,13.4,0,0,0-5.6,1.2,11.8,11.8,0,0,1-5.3,1.2,12.2,12.2,0,0,1-5.4-1.2,13.4,13.4,0,0,0-11.1,0,12.5,12.5,0,0,1-5.4,1.2v-8.1a12.5,12.5,0,0,0,5.4-1.2,13.1,13.1,0,0,1,5.6-1.2,12.6,12.6,0,0,1,5.5,1.2,12.2,12.2,0,0,0,5.4,1.2,11.8,11.8,0,0,0,5.3-1.2,13.4,13.4,0,0,1,5.6-1.2,13.1,13.1,0,0,1,5.6,1.2,11.8,11.8,0,0,0,5.3,1.2,11.9,11.9,0,0,0,5.4-1.2,13.7,13.7,0,0,1,11.2,0,12.8,12.8,0,0,0,10.8,0,13.4,13.4,0,0,1,11.1,0,12.2,12.2,0,0,0,5.4,1.2Zm-82.1-16.1a12.2,12.2,0,0,1,5.4-1.2,11.4,11.4,0,0,1,5.5,1.3,13.7,13.7,0,0,0,5.4,1.1,14.1,14.1,0,0,0,5.4-1.1,11.8,11.8,0,0,1,5.6-1.3,11.4,11.4,0,0,1,5.5,1.3,13.7,13.7,0,0,0,5.4,1.1,14.1,14.1,0,0,0,5.4-1.1,10.7,10.7,0,0,1,3.3-1.1l14-16H717.2l7.5-12.9,16.3,9c5.4,3.1,9.5-3.9,4-7l-23.4-13c-8.6-4.8-12.2,3.2-12.2,3.2L697.2,355H665.4c.9,5.8,6.2,13.6,8.8,17.3m51.2-1a11.5,11.5,0,0,1,3.6,1.1,13.2,13.2,0,0,0,5.3,1.1,13.7,13.7,0,0,0,5.4-1.1,12.5,12.5,0,0,1,11.1,0,14.2,14.2,0,0,0,5.5,1.1V355.3H739.3Z" fill="#fff"/><path d="M739.8,179.6a8.3,8.3,0,0,1-11.5,2,8.2,8.2,0,1,1,11.5-2Zm18.5,9.1-9.7,13.8a3.5,3.5,0,0,1-5,1l-13.8-9.6L715,215.8l12.6,8.8a5.3,5.3,0,0,1,2.2,3.3l3.5,20.2a5.2,5.2,0,0,1-4.2,6,5.5,5.5,0,0,1-6-4.3l-3.2-18.1-15.8-11.3s-8.4,12.1-9,12.8a7.4,7.4,0,0,1-2,2.3,5.6,5.6,0,0,1-4,.5l-19.8-5.3a5.1,5.1,0,1,1,2.7-9.9l16.3,4.3,25.9-37.6h-10l-8.5,12.2a3.6,3.6,0,1,1-6-4.1l9.6-13.7a3.6,3.6,0,0,1,3.2-1.6h16.6a12.3,12.3,0,0,1,7.1,2.3l5.3,3.8,13.1,9.2,7.8-10.9a3.5,3.5,0,0,1,5-.9A3.4,3.4,0,0,1,758.3,188.7Z" fill="#fff"/><path d="M871.8,410.7a2.9,2.9,0,0,0,3-3,3.1,3.1,0,0,0-3-3,3,3,0,0,0-3,3A2.9,2.9,0,0,0,871.8,410.7Zm24.4,0a3.1,3.1,0,1,0-3-3.1A3,3,0,0,0,896.2,410.7Zm-30.4-8.9a1.9,1.9,0,0,1-1.7-2h0a2,2,0,0,1,1.7-2H902a2,2,0,0,1,1.8,2h0a2,2,0,0,1-1.8,2ZM891,322.9a8,8,0,0,0,0-16,8,8,0,0,0-8.1,8A8.2,8.2,0,0,0,891,322.9ZM847.5,393a4.8,4.8,0,0,0-.6,2.4,5.1,5.1,0,0,0,5.1,5.1,5,5,0,0,0,4.6-2.9l17.5-30.1-7.2-7.2Zm37.9-1.3a5.2,5.2,0,0,1-4.6,2.8,5.1,5.1,0,0,1-5.1-5.1,5,5,0,0,1,.6-2.4l7.6-13.3L869,358.9a9.5,9.5,0,0,1-1.6-11.9l8-14.1H854.2a4.2,4.2,0,0,1,0-8.4h64.2a4.2,4.2,0,1,1,0,8.4H893.9l-11.7,20.4,11.9,11.8a7.1,7.1,0,0,1,1.5,8.5Z" fill="#fff"/><path d="M89.1,344.4a7.8,7.8,0,1,0-7.8-7.8A7.8,7.8,0,0,0,89.1,344.4Zm-3.9,56.9c3.8,2.2,8.6,0,10.9-3.7L93.4,396a4.8,4.8,0,0,1-6.5,1.6L7.1,350.5l-1.7,3.7ZM55.7,314.7a10.3,10.3,0,0,0-14.3,2.8,9.9,9.9,0,0,0-1.4,8.6l5.4,17.7L29.1,349a6.1,6.1,0,0,0-3.9,5.1c-.5,3.5,2.1,5.8,5.6,6.2a4.4,4.4,0,0,0,2-.3l22.4-7.4c1.6-.6,3.4-2.2,3.6-3.6s.5-1.9.2-2.5l-3.4-12.2,13.5,8,1.6,11.6a5,5,0,0,0,2.6,4.4l17.6,10.3a4,4,0,0,0,3.8-7.1l-13.9-8.1-1.6-20.8a8.8,8.8,0,0,0-3.6-6.1Z" fill="#fff"/><path d="M858.9,60l23.5-27.2h-6.2L865.6,45a3.4,3.4,0,0,1-6.1-2.1,3.2,3.2,0,0,1,1.2-2.6l11.4-13.2a3.4,3.4,0,0,1,2.7-1.2h16.6a4.8,4.8,0,0,1,3.1,1.2l10.6,10.6,8.8-8.7a3.6,3.6,0,0,1,2.3-.9,3.6,3.6,0,0,1,3.5,3.6,3.3,3.3,0,0,1-.8,2.2l-4.3,4.3-18.3,53h-2.9L910,42.8l-1.7,1.7c-3.2,3.3-5.7.5-5.7.5l-6.5-6.5L885.9,50.2l9.3,9.3s2,1.8.8,5.4l-5.2,23.3a4.4,4.4,0,0,1-8.7-.9,3.7,3.7,0,0,1,.1-1.1l4.3-19.1L875.9,56.8,866.8,67s-1.4,1.8-5.3,1.6H843a4.2,4.2,0,0,1-4.3-3.4A4.4,4.4,0,0,1,842,60h16.9Zm40.9-32.3a6.9,6.9,0,1,0-6.9-6.9A6.9,6.9,0,0,0,899.8,27.7ZM861.4,88.6l-1.9-2.1s-2,1.3-3,.2h-.1L833.7,63.7v4L854.9,89C857.3,91.6,861.4,88.6,861.4,88.6Zm59.1,2.5a4.2,4.2,0,0,1-4.2,4.1H848.2v2.9h68.1a7,7,0,0,0,7-7ZM857.3,43.4H833.7v2.9h23.6Z" fill="#fff"/><path d="M398.9,23.4a7.5,7.5,0,0,1,15,0,7.5,7.5,0,0,1-15,0Zm25.9,30.8a3.6,3.6,0,0,1-3.6,3.6,3.7,3.7,0,0,1-2.5-1L403.9,43.2,388.1,51l10.5,9.4a4.4,4.4,0,0,1,1.5,3.5.4.4,0,0,1-.1.3L397.6,84a4.6,4.6,0,0,1-3.1,3.7l15.5,6a5.1,5.1,0,0,0,4.2-.3,4.7,4.7,0,0,1,6.4,1.7,4.6,4.6,0,0,1-1.8,6.4,13.9,13.9,0,0,1-12.1,1L344,78.6a13.9,13.9,0,0,1-8.4-8.8,4.7,4.7,0,0,1,2.9-6,4.8,4.8,0,0,1,6,3,4.7,4.7,0,0,0,2.8,3l7.2,2.7a5.4,5.4,0,0,1-.8-2.8,4.7,4.7,0,0,1,2.7-4l13.4-6V46.4a8,8,0,0,1,3.8-5.6L388,33.4l-8.8-3.5a2.6,2.6,0,0,1-1.3-1l-7.6-11a3.4,3.4,0,0,1-.5-2.3,3.6,3.6,0,0,1,3.9-3.1,3.7,3.7,0,0,1,2.5,1.4l7.5,10.8,16.4,5.9a7.8,7.8,0,0,1,2.4,1.6l21.1,19.4A3.6,3.6,0,0,1,424.8,54.2Zm-45.7,1.1v8.2a4.8,4.8,0,0,1-2.3,3.2l-16.4,7.4-1,.3L389,85.6a4.8,4.8,0,0,1-.6-2.4v-.3l2.1-17.4Z" fill="#fff"/><path d="M429.3,236.4a12.3,12.3,0,0,1-5.5-1.2,13.3,13.3,0,0,0-5.7-1.3,13.6,13.6,0,0,0-5.7,1.3,12.6,12.6,0,0,1-5.5,1.2,13,13,0,0,1-5.5-1.2,13.1,13.1,0,0,0-11.4,0,12.3,12.3,0,0,1-5.5,1.2,13.1,13.1,0,0,1-5.6-1.2,13.3,13.3,0,0,0-5.7-1.3,13.6,13.6,0,0,0-5.7,1.3,13,13,0,0,1-5.5,1.2,12.3,12.3,0,0,1-5.5-1.2,14,14,0,0,0-5.7-1.3,13.3,13.3,0,0,0-5.7,1.3,13.1,13.1,0,0,1-5.6,1.2v-8.3a14.7,14.7,0,0,0,5.6-1.1,13.3,13.3,0,0,1,5.7-1.3,14,14,0,0,1,5.7,1.3,14.3,14.3,0,0,0,11,0,13.1,13.1,0,0,1,11.4,0,14.7,14.7,0,0,0,5.6,1.1A13.8,13.8,0,0,0,390,227a13.1,13.1,0,0,1,11.4,0,14.6,14.6,0,0,0,5.5,1.1,13.8,13.8,0,0,0,5.5-1.1,14,14,0,0,1,5.7-1.3,13.3,13.3,0,0,1,5.7,1.3,14.2,14.2,0,0,0,5.5,1.1Zm-13-23.5a10.7,10.7,0,1,0-10.7-10.6,10.4,10.4,0,0,0,10.7,10.6M354.1,219l2.3.8a13.4,13.4,0,0,0,11.1,0,14.5,14.5,0,0,1,5.7-1.2,15.7,15.7,0,0,1,5.7,1.2,12.3,12.3,0,0,0,5.5,1.2,13.1,13.1,0,0,0,5.6-1.2,14.9,14.9,0,0,1,5.7-1.2,15.7,15.7,0,0,1,5.7,1.2,12.6,12.6,0,0,0,5.5,1.2,14,14,0,0,0,4.1-.6l-17.9-32.2,20.7-3.8a6.1,6.1,0,0,0-.8-12.1h-.7l-32,5.9a5.8,5.8,0,0,0-3.6,7.8c.1.2.3.4.3.6l8.4,15.1Z" fill="#fff"/><path d="M61.2,23.6A7.8,7.8,0,0,0,62.4,8,8,8,0,0,0,54,15.3a7.9,7.9,0,0,0,7.2,8.3m-6.6,3.2A8.4,8.4,0,0,1,60,25.2,8.7,8.7,0,0,1,66.2,29L74,44.5l10.6,7.4a4.1,4.1,0,0,1,1.4,3A3.3,3.3,0,0,1,82.2,58a3.7,3.7,0,0,1-1.7-.5L69.1,49.7a4.8,4.8,0,0,1-.9-1.1l-2.9-5.7L61.8,58.3,75.6,74.6a5.2,5.2,0,0,1,.6,1.6L80,95.9V97a5.5,5.5,0,0,1-5.7,4.9,5.4,5.4,0,0,1-4.7-4.2L66.1,79.4,54.9,67,52.3,78.9a22.6,22.6,0,0,1-1.1,2.2L40.5,99.3a5.3,5.3,0,0,1-4.9,2.5,5.4,5.4,0,0,1-4.9-5.7,7.8,7.8,0,0,1,.8-2.3l10-16.7,8.3-36.9-5.4,4.4-3,13.1a3.7,3.7,0,0,1-3.7,3,3.6,3.6,0,0,1-3.2-3.8v-.5l3.4-15.3A3.3,3.3,0,0,1,39,39.5Z" fill="#fff"/><path d="M1083.1,246.6a10.6,10.6,0,0,1-4.8-1.1,11.7,11.7,0,0,0-9.9,0,11,11,0,0,1-4.9,1.1,11.3,11.3,0,0,1-4.8-1.1,11.5,11.5,0,0,0-5-1.1,11.7,11.7,0,0,0-4.9,1.1,11.2,11.2,0,0,1-9.7,0,11.8,11.8,0,0,0-5-1.1,11.4,11.4,0,0,0-4.9,1.1,11.2,11.2,0,0,1-9.7,0,11.7,11.7,0,0,0-4.9-1.1,11,11,0,0,0-4.9,1.1,11.7,11.7,0,0,1-4.9,1.1v-7.3a13.8,13.8,0,0,0,4.9-1,11.7,11.7,0,0,1,4.9-1.1,11.4,11.4,0,0,1,4.9,1.1,13.3,13.3,0,0,0,4.8,1,13,13,0,0,0,4.9-1,11.7,11.7,0,0,1,9.9,0,13.3,13.3,0,0,0,4.8,1,13,13,0,0,0,4.9-1,11.7,11.7,0,0,1,9.9,0,13.3,13.3,0,0,0,4.8,1,13,13,0,0,0,4.9-1,11.7,11.7,0,0,1,9.9,0,12.5,12.5,0,0,0,4.8,1Zm-70-41.9a4.7,4.7,0,1,0-4.8-4.7,4.8,4.8,0,0,0,4.8,4.7m20.9,21.5h-13.6a5.1,5.1,0,0,1-4.6-2.9l-5-11.4c0-.4-.1-.8-.1-1.2a4.9,4.9,0,0,1,4.9-5h11.1l7.6-3.4.7-.2a2.4,2.4,0,0,1,2.4,2.4,2.6,2.6,0,0,1-1,2l-8.2,3.6a2.9,2.9,0,0,1-1.6.5h-5l4.2,9.3h9.2a3.5,3.5,0,0,1,2.1.7l8.9,8.6a3.1,3.1,0,0,1,.2,4.4,3.3,3.3,0,0,1-4.5.1Zm42.3-15.5a1.1,1.1,0,0,0,.9.4,1.4,1.4,0,0,0,1.4-1.4,3.8,3.8,0,0,0-.3-1c-8.5-16.2-31.4-11.4-34.2-10.3a1.3,1.3,0,0,0-.8,1.2,1.4,1.4,0,0,0,1.4,1.4h.6c22.5-5.2,29.8,7.6,31,9.7m3.9,1.5-28.8,18.1-26.1-66.9c23.4,3.1,53.2,21.4,54.9,48.8" fill="#fff"/><path d="M1167.1,356.2a3.4,3.4,0,1,0,3.4,3.4A3.4,3.4,0,0,0,1167.1,356.2Zm47.7-28.7a7.5,7.5,0,0,0,7.5-7.4,7.5,7.5,0,0,0-15,0A7.5,7.5,0,0,0,1214.8,327.5Zm32,66.5-12.1-14.3s-3.8-22.1-3.8-22.2l-.5-2.5c0,.1-1.5-6.9-2.7-12.4l3.7,2.1c0,.2,6.4,12.2,6.4,12.2a4.1,4.1,0,0,0,2.2,1.9,3.7,3.7,0,0,0,2.9-.3,3.3,3.3,0,0,0,1.8-2.2,3.6,3.6,0,0,0-.2-2.9l-7-13.2a3,3,0,0,0-.6-.9,9.1,9.1,0,0,0-1.6-1.1l-13.5-7.7a8.7,8.7,0,0,0-5.5-.7,6.1,6.1,0,0,0-2.3.9,10.6,10.6,0,0,0-4.8,5.4l-6.9,13.9-10.9,2.2h-.3l-9.8-6.9c-2.3-1.6-2.5-6.2-2.5-6.4a12.5,12.5,0,0,0-13.8-10.4,8.7,8.7,0,0,0-5.5,3.3,8.4,8.4,0,0,0-1.4,4.7V338a12.3,12.3,0,0,0,13.7,9.8l.7-.2c.1,0,4.4-1.4,6.6.1l9.3,6.6a3.4,3.4,0,0,0-.6,1.8c0,.2.1.4.1.7a3.8,3.8,0,0,0,4.4,3l13.1-2.6a5.7,5.7,0,0,0,1.6-.7,4.4,4.4,0,0,0,1.1-1.3l3.4-7s2.3,11.2,2.4,11.4L1203.2,371v.2a4.4,4.4,0,0,0-1.6,3.5v23.5a4.5,4.5,0,0,0,4.5,4.5,4.6,4.6,0,0,0,4.6-4.5V378.6c.9-1,8.9-9.5,11.1-11.7l2.2,13.2a5.1,5.1,0,0,0,1.5,2.8l14.4,17a4.7,4.7,0,0,0,3.1,1.6,4.6,4.6,0,0,0,3.3-1.1,4.8,4.8,0,0,0,1.6-3.5A3.6,3.6,0,0,0,1246.8,394ZM1175,342.7a5.1,5.1,0,0,1-3.6,2.1,9.4,9.4,0,0,1-10.2-7.3v-1.1a5.3,5.3,0,0,1,.9-3c2-2.7,6.5-2.9,10.1-.4S1177,339.9,1175,342.7Z" fill="#fff"/></svg>