<svg enable-background="new 0 0 256 256" height="256" viewBox="0 0 256 256" width="256" xmlns="http://www.w3.org/2000/svg"><path d="m93 142.4c-.8 10.7-4.7 19.1-11.8 25.2s-16.5 9.2-28.1 9.2c-12.7 0-22.8-4.3-30.1-12.9s-11-20.3-11-35.3v-6.1c0-9.6 1.7-18 5-25.2 3.4-7.3 8.2-12.9 14.4-16.8 6.3-3.9 13.5-5.8 21.8-5.8 11.6.1 20.8 3.2 27.8 9.3s11.1 14.8 12.1 25.9h-20.4c-.5-6.4-2.3-11.1-5.4-14s-7.7-4.3-14-4.3c-6.8 0-11.9 2.4-15.3 7.3s-5.1 12.5-5.2 22.8v7.5c0 10.7 1.6 18.6 4.9 23.5 3.3 5 8.4 7.4 15.4 7.4 6.3 0 11-1.4 14.2-4.3 3.1-2.9 4.9-7.4 5.4-13.4zm78.7-3.1c0 11.8-2.5 21.1-7.6 27.7s-12.1 9.9-21.2 9.9c-8 0-14.4-3.1-19.2-9.2l-.9 7.8h-17.7v-104.8h19.7v37.6c4.5-5.3 10.5-8 17.9-8 9 0 16.1 3.3 21.2 9.9s7.7 15.9 7.7 27.9v1.2zm-19.7-1.5c0-7.5-1.2-12.9-3.5-16.4-2.4-3.4-5.9-5.2-10.6-5.2-6.3 0-10.6 2.6-13 7.7v29.2c2.4 5.2 6.8 7.8 13.1 7.8 6.4 0 10.6-3.1 12.6-9.4.9-3 1.4-7.6 1.4-13.7zm62.5 23.2c3.6 0 6.6-1 8.9-3s3.5-4.7 3.5-8h18.5c0 5-1.4 9.6-4.1 13.8s-6.4 7.4-11 9.7c-4.7 2.3-9.8 3.4-15.5 3.4-10.6 0-18.9-3.4-25-10.1s-9.1-16-9.1-27.8v-1.3c0-11.4 3-20.4 9.1-27.2 6-6.8 14.4-10.2 24.9-10.2 9.2 0 16.6 2.6 22.2 7.9s8.4 12.2 8.5 21h-18.4c-.1-3.8-1.3-7-3.5-9.4-2.3-2.4-5.3-3.6-9-3.6-4.6 0-8.1 1.7-10.4 5s-3.5 8.8-3.5 16.3v2.1c0 7.6 1.2 13.1 3.5 16.4 2.2 3.3 5.7 5 10.4 5z"/></svg>