<svg height="256" viewBox="0 0 256 256" width="256" xmlns="http://www.w3.org/2000/svg"><path d="m57.2 175.5v-99.3h30.5a46.4 46.4 0 0 1 23.4 5.9 41.2 41.2 0 0 1 16.1 16.8 51.8 51.8 0 0 1 5.8 24.7v4.6a51.9 51.9 0 0 1 -5.7 24.6 40.8 40.8 0 0 1 -16.1 16.7 46.8 46.8 0 0 1 -23.4 6zm20.4-82.8v66.3h9.9q12 0 18.4-7.8t6.5-22.4v-5.3q0-15.1-6.3-23t-18.4-7.8zm99.8 68.3a12.9 12.9 0 0 0 8.9-3 10.5 10.5 0 0 0 3.5-8h18.5a25.3 25.3 0 0 1 -4.1 13.8 27 27 0 0 1 -11 9.7 34.5 34.5 0 0 1 -15.5 3.4q-15.8 0-25-10.1t-9.1-27.8v-1.3q0-17.1 9.1-27.2t24.9-10.2q13.9 0 22.2 7.9t8.5 21h-18.5a13.6 13.6 0 0 0 -3.5-9.4 11.8 11.8 0 0 0 -9-3.6q-6.9 0-10.4 5t-3.5 16.3v2.1q0 11.4 3.5 16.4t10.5 5z"/></svg>