<svg xmlns="http://www.w3.org/2000/svg" width="256" height="256" viewBox="0 0 256 256"><title>icon_sketch_bar_chart</title><path d="M7.7,232.2,6,179.6c-.7-19.5-1.4-39.6,0-59.4v-.9l28.4-3.2c4.1-.5,6.8.6,7.6,2.9v.7c-2,5.8-.9,12.2.2,18.4.1.9.3,1.7.4,2.5,1.8,11,2.2,22.4,2.6,33.4l1.9,54.8h-2l-1.9-54.7c-.4-11-.8-22.3-2.6-33.2-.1-.8-.3-1.6-.4-2.4-1.1-6.4-2.3-12.9-.2-19.1-.8-1.6-3.7-1.5-5.4-1.3L8,121.1c-1.3,19.5-.7,39.3,0,58.4l1.7,52.6Zm70.5-4.3c-4.1-30.4-4-61.6-3.8-91.8.1-23.9.3-48.7-1.7-72.9v-1h-1a160.8,160.8,0,0,0-31.5,5.3l-.8.2v.9c1.1,15.5,1.9,31.4,2.3,47h2c-.4-15.4-1.1-31-2.2-46.4a160.1,160.1,0,0,1,29.3-4.9c1.9,23.8,1.7,48.1,1.6,71.7-.2,30.2-.3,61.5,3.8,92Zm10.4,6.7,23.5-1.4h.9v-.9a574.1,574.1,0,0,0-.3-77.6l-.9-11c-1-13-2.1-26.4-1.5-39.6.1-3.7.4-7.5.7-11.1s.8-10.1.9-15.2c.1-7.4-.5-15-1.1-22.3l-1-13.5c-.2-1.8-.4-3.6-1.8-4.8s-4.2-1.2-6-1a61.5,61.5,0,0,1-23.8-1.1,7,7,0,0,0-4.3,0c-2.9,1.3-2.7,5.3-2.7,6.6l.7,18.8h2l-.7-18.7q-.2-4.1,1.5-4.8a5.3,5.3,0,0,1,3,.2,65.8,65.8,0,0,0,24.6,1.1c1.8-.2,3.4-.4,4.3.5s1,2,1.2,3.5l1,13.5c.6,7.2,1.2,14.7,1.1,22.1-.1,5-.5,10.1-.9,15s-.6,7.4-.7,11.2c-.6,13.3.5,26.8,1.5,39.9l.9,10.9a574.4,574.4,0,0,1,.4,76.5l-22.6,1.3c-27.7,1.6-53.9,3.1-82,2.7v2h9.8C40.8,237.4,64.1,236,88.6,234.6Zm55.3-4.4c-2.5-35.1-3.9-70.8-4.2-106.1a173.7,173.7,0,0,0,30.5,3.4h.2a2.1,2.1,0,0,0,.3,1.5,1.5,1.5,0,0,0,.6.5c.8,2.7,1.5,5.4,2.1,8.2,2.7,11.5,3.8,23.5,4.6,34.8,1.2,16.8,1.8,33.8,1.9,50.6h0v4.4h2c0-18.3-.6-36.9-1.9-55.1-.8-11.4-1.9-23.5-4.6-35.2-.6-2.8-1.4-5.6-2.2-8.4l.2-.5a2.3,2.3,0,0,0-.6-2.1,3.6,3.6,0,0,0-2.5-.7,166.1,166.1,0,0,1-31.4-3.6l-1.2-.2v1.2c.2,35.7,1.6,71.9,4.2,107.5ZM168.7,63.3c-.6,4.9.4,9.9,1.4,14.7.4,2.3.9,4.8,1.2,7.2a90.9,90.9,0,0,1,.4,11.7,105.3,105.3,0,0,0,.5,12.5c.1.9.3,1.8.4,2.7.7,4.4,1.4,8.8-.6,12.4l-.8,1.5h1.7a3.1,3.1,0,0,0,3-2.4l-1.2-.2c1.2-3.7.5-7.7-.1-11.6-.1-.9-.3-1.8-.4-2.7a99.6,99.6,0,0,1-.5-12.2,96.9,96.9,0,0,0-.4-12c-.3-2.4-.8-4.9-1.3-7.3-1-5-1.9-9.8-1.3-14.5l6.8-.7h.1v-.3c3.3.1,6.5.5,9.6.9l25.7,3.3c-1.7,15.4-1.6,31.1-1.5,46.4,0,9.6.1,19.6-.3,29.3s-1,16.7-1.6,24.9c-.4,5.3-.9,10.8-1.2,16.2-1,15.5-1.2,31.3-.7,46.8.1,2.4,1.4,2.8,1.9,2.9h.2a1.5,1.5,0,0,0,1.4-1,1.8,1.8,0,0,0-.8-2h-.7c-.5-15.4-.3-31.1.7-46.5.3-5.4.8-10.9,1.2-16.2.6-8.1,1.3-16.6,1.6-24.9s.3-19.8.3-29.4c-.1-15.5-.2-31.5,1.6-47.2v-.9L187.5,61a83,83,0,0,0-13.4-.9c-1.9-.3-3.8-.4-4.8.5h0a25.4,25.4,0,0,0-3.7,1m44.8,169.8a1.1,1.1,0,0,1-.7.3,1.1,1.1,0,0,1-.6-.4c0-.1.1-.2.2-.3l.3-.2Zm-73.5,1.9c10.1,3,21.4,4.3,35.5,4l13.1-.5c10.3-.5,21-1,31.4.4a34,34,0,0,0,4.5.3c7.8,0,14.8-2.8,21.4-5.6l.8-.3-.2-.8c-1.1-6.2-.1-12.6.9-18.8s1.9-12.1,1.1-18.2a66,66,0,0,0-1.7-7.7,56.3,56.3,0,0,1-1.4-5.9c-1.8-9.4.2-19.1,2.1-28.5.6-2.6,1.1-5.4,1.6-8a137.5,137.5,0,0,0,.9-40.5v-.5l-.3-.2A40.2,40.2,0,0,0,216,96.2l.4,2a38,38,0,0,1,28.6,5.7,133.5,133.5,0,0,1-1,39.4c-.4,2.7-1,5.4-1.5,8-2,9.6-4,19.5-2.2,29.2a62.3,62.3,0,0,0,1.5,6.2,63.6,63.6,0,0,1,1.6,7.3c.8,5.9-.1,11.9-1.1,17.7s-1.9,12.4-1,18.7c-7.3,3.1-15.3,6-24.2,4.8-10.5-1.4-21.3-.9-31.7-.4l-13,.5c-11.8.2-21.6-.6-30.4-2.7V231M47.9,82l-1-1.1a47.1,47.1,0,0,1,9.7-11.2l-1.3-1.5A50.6,50.6,0,0,0,44.5,80.9l-.5.9.9.5a2.8,2.8,0,0,0,1.3.3A2.7,2.7,0,0,0,47.9,82ZM69.5,69.7l-1.2-1.6a71.4,71.4,0,0,0-23.7,28l1.8.8A69.9,69.9,0,0,1,69.5,69.7ZM44.3,112.3c-.5-2.4,1.1-4.9,2.7-7,5-6.6,11.1-12.4,17-18a82.4,82.4,0,0,1,6.2-5.6L69,80.1c-2.3,1.8-4.4,3.8-6.4,5.7-5.9,5.7-12,11.6-17.2,18.2-1.8,2.4-3.7,5.5-3,8.8Zm3.5,8.5a192.9,192.9,0,0,1,15.1-16.2H63c1.5-1.5,3.2-3.1,4-5.2l-1.8-.7a13.7,13.7,0,0,1-3.6,4.4h-.1a179.9,179.9,0,0,0-15.2,16.3c-1.6,1.9-3.2,4-3.5,6.5l2,.2C45,124.3,46.4,122.5,47.8,120.8Zm20.1-6.7a3.7,3.7,0,0,1,1.4-.9l-.7-1.9a7.7,7.7,0,0,0-2,1.3,188.7,188.7,0,0,0-24.5,26.8l1.6,1.2A184.3,184.3,0,0,1,67.9,114.1Zm.2,12-1.4-1.4a218.4,218.4,0,0,0-26.2,29.8l1.6,1.2A221.3,221.3,0,0,1,68.1,126.1ZM46.4,162.8c-.1-1.1.7-2.1,1.7-3.2,6.2-7.1,12.7-14.2,19.4-20.9l-1.4-1.4c-6.7,6.7-13.3,13.8-19.6,21-1.1,1.3-2.2,2.7-2.1,4.6Zm16.1-8.7c2.1-2.2,4.4-4.2,6.8-3.9l.3-1.9c-3.3-.4-6.1,1.9-8.5,4.5-5.1,5.3-10.8,11.3-14,18.6l1.8.8C52,165.3,57.3,159.6,62.5,154.1Zm8.7,6.2-.9-1.7a59.6,59.6,0,0,0-23,20.4l1.7,1.1A58.1,58.1,0,0,1,71.2,160.3ZM57.6,186.4c2.9-.9,6-1.7,8.3-3.3l-1.1-1.6a33.4,33.4,0,0,1-7.8,3,45.1,45.1,0,0,0-6.5,2.2,42.2,42.2,0,0,1,16.2-13.1l-.9-1.8A43.6,43.6,0,0,0,46,190l1.6,1.1C49.7,188.6,53.7,187.5,57.6,186.4ZM68,189.9l-1.5-1.4L47.2,208.1l1.4,1.4Zm-20.2,29a135.7,135.7,0,0,1,20-18.6l-1.2-1.6a139.9,139.9,0,0,0-20.3,18.9,10.4,10.4,0,0,0-2.9,4.8l1.9.4C45.6,221.4,46.7,220.2,47.8,218.9Zm21.1-3.1a6.4,6.4,0,0,0,2.4-2.5l-1.8-.9a5.1,5.1,0,0,1-1.8,1.8,84.6,84.6,0,0,0-18.9,18.4l1.6,1.2A83.2,83.2,0,0,1,68.9,215.8Zm3,4.5-1.2-1.6a39.2,39.2,0,0,0-10.5,12.4l1.7.9A37.5,37.5,0,0,1,71.9,220.3ZM179,74.3c2.3-1.8,4.8-3.4,7.3-5l-1-1.7q-3.9,2.4-7.5,5.1c-3.4,2.5-7.3,6-7.5,10.8h2C172.4,79.6,175.9,76.6,179,74.3Zm-.6,13.8a188.1,188.1,0,0,0,28.5-22.5l-1.4-1.4a194.6,194.6,0,0,1-28.1,22.2c-2.6,1.6-5.1,3.4-5.4,6.4l2,.2C174.2,90.9,176.3,89.4,178.4,88.1Zm18.1-2.5a95.2,95.2,0,0,1,17.9-13.1l-1-1.8C208,74,201,78.4,195.1,84.1s-10.3,12.3-12.4,19.1l1.9.6C186.6,97.3,190.6,91.2,196.5,85.6Zm-13.4,46.3c-.7-1-.2-2.6.3-3.9a118.6,118.6,0,0,1,28.3-41.3l-1.4-1.5a120.7,120.7,0,0,0-28.8,42.1c-.7,1.7-1.3,4-.1,5.7Zm-.3,14.6c-.1-3.9,2.1-7.7,4.4-11.2,5.9-8.8,12.2-17.4,18.8-25.6,1.8-2.2,3.6-4.2,5.9-4.9l-.6-1.9c-2.8.8-4.8,3.1-6.8,5.5-6.7,8.3-13.1,17-18.9,25.8-2.5,3.8-4.9,7.8-4.8,12.3Zm1.8,1.1A159.1,159.1,0,0,1,207,127.4l-1.2-1.6a163.6,163.6,0,0,0-22.7,20.5c-3,3.2-5.7,6.8-5.8,11h2C179.4,153.6,182.1,150.4,184.6,147.6Zm-1.2,22.3-1.9-.8c0,.1-.2.1-.5-.1a.7.7,0,0,1-.5-.6c-.1-1,.8-2,1.7-2.8L206.4,142l-7.9,4,.3.6-18,17.6c-.9.8-2.5,2.4-2.3,4.4a3,3,0,0,0,2.5,2.5h.5A2.2,2.2,0,0,0,183.4,169.9Zm3.1,10.4-1.2-1.5a10.9,10.9,0,0,1,1.8-3.1,92.3,92.3,0,0,1,21-19.9l-1.1-1.7a94.3,94.3,0,0,0-21.4,20.4c-1.2,1.5-2.5,3.3-2.5,5.5v.8l.9.2h.6A3.1,3.1,0,0,0,186.5,180.3Zm-.1,10.6h-.5A99.1,99.1,0,0,1,196,178.6a89.6,89.6,0,0,0,9.3-11.1,2.4,2.4,0,0,0,.6-1.7,1.5,1.5,0,0,0-1.2-1.2,1.4,1.4,0,0,0-1.4.3l1.5,1.4c-.1.2-.4.2-.6.2a.5.5,0,0,1-.3-.4l-.2.3a118.1,118.1,0,0,1-9.1,10.8c-4,4.3-8.1,8.7-11.2,13.9l-.8,1.3,3.6.5Zm4.1,11.6v-1.3a164.7,164.7,0,0,1,20.2-23.1l-1.4-1.5A176.6,176.6,0,0,0,188,201.1l-1.3,1.8Zm-.9,14.2-1-1.6a113.9,113.9,0,0,1,11.9-17.4l-1.6-1.3a128.8,128.8,0,0,0-13.7,20.8l-1.7,3.4ZM185.7,230c4.1-2.2,7.3-5.4,10.5-8.5a50.4,50.4,0,0,1,8.3-7.2,55.1,55.1,0,0,1-5.9,9.9l1.6,1.2a62.3,62.3,0,0,0,7.4-13.1l1-2.4-2.4,1.2c-4.4,2.1-8,5.6-11.4,8.9-1.7,1.7-3.4,3.4-5.2,4.9,5-6.7,10.4-13.2,15.9-19.4l-1.5-1.3a306.1,306.1,0,0,0-19.6,24.3l-2.5,3.5Z"/></svg>