<svg xmlns="http://www.w3.org/2000/svg" width="256" height="256" viewBox="0 0 256 256"><path d="M242.6,78.8l-.7-1.8-1.9.2a42.8,42.8,0,0,0-13.9,4.1l-.5.3c-.3-14.3-9.2-28.2-22.2-34.2a2.5,2.5,0,0,0-2.5.2l17.7-18.9-.7-1.6c-4.2-8.6-9.6-15.3-15.9-19.9S185.2-.6,176.9,1a5.6,5.6,0,0,0-2.6,1,6.4,6.4,0,0,0-2.2,3.1l-3,7.2a2.5,2.5,0,0,0,1.4,3.2,2.6,2.6,0,0,0,3.3-1.3L176.7,7c.1-.2.3-.8.5-.9l.6-.2c7-1.3,14.7.7,21.2,5.4s9.9,9.4,13.6,16.5L160.5,83.2a55.1,55.1,0,0,0-12.8-9.1l16.5-39.2A77.7,77.7,0,0,1,171.9,20l1.2-1.7-1.5-1.5c-9.2-9.5-24-13.7-39.6-11.2l-2.7.6-2.1.2c-1.2.1-4.1.3-5.4,2.1l-2,.5,1.2,2.4-.2,31.3-.5.2a3.6,3.6,0,0,1-1.4-.1,28.4,28.4,0,0,0-13.4.8,19.8,19.8,0,0,0-10.1,7.2L90,38.8H88.6c-2.9-.4-5.3,1-7.4,2.4A58.1,58.1,0,0,0,63.5,60.3l-9.4-8.8a4.1,4.1,0,0,0-2.3-1.3,4.9,4.9,0,0,0-4.1,1.7A68.6,68.6,0,0,0,31,81.3c-3.5-1.8-7.2-3.5-11.4-3.2H18.4l-.7.9a45,45,0,0,0-5.6,44.7,6.3,6.3,0,0,0,1.9,2.5,4.8,4.8,0,0,0,2.7.7h.6l9.3-.5c-6.1,10-5.4,23.7,1.8,32.8l-5.5,2.8-1.7.9.4,1.9c1.7,8.2,4.3,14.8,7.8,20.2s10.3,11.2,16.9,13.3c-4.8,5.7-9.4,11.5-13.7,17.5l-1.1,1.4,1.1,1.5A56.5,56.5,0,0,0,57,237.4a110.5,110.5,0,0,0,17.5,4.7l2,.4L91.1,208h0a45.8,45.8,0,0,1,4.8,3.3,46.5,46.5,0,0,0,4.9,3.3,27.1,27.1,0,0,0,13.8,3.8,27.3,27.3,0,0,0,5-.5c0,7.8.2,15.5.7,23.2a4.5,4.5,0,0,0,3.5,4.7,17.9,17.9,0,0,0,5.1.7,36.5,36.5,0,0,0,7.4-.9A122.8,122.8,0,0,0,170,232.7h0c3.4,6.7,6.7,13.4,10.1,20l1.2,2.3,13.9-7.7c3.6-2,7.4-4.1,10.9-6.4A80.5,80.5,0,0,0,219,230.5a4.8,4.8,0,0,0,1.5-2.6,4.9,4.9,0,0,0-.7-3,113.3,113.3,0,0,0-22.9-29.1l-.4-.3a148.9,148.9,0,0,0,9.7-19.1c.4-.7.8-1.6,1.3-2.7,2.3-4.7,5.5-11.3,3.8-15.9s-5.1-5.5-9.2-7.3a27.3,27.3,0,0,0,5-13.1,50.2,50.2,0,0,0-.2-12.9,2.6,2.6,0,0,0,.3-.8,331,331,0,0,1,34.5,2.1l2.1.2.6-2A72.8,72.8,0,0,0,242.6,78.8ZM201.3,51.9a34.5,34.5,0,0,1,19.3,29.7,44.9,44.9,0,0,0-9.7,2.7L207,85.7l-5.1,1.5-4.2,1.1c-9,2.7-17.2,7.2-25.1,11.7A54.5,54.5,0,0,0,164,86.8l36.2-38.5-.2.3A2.6,2.6,0,0,0,201.3,51.9Zm-30.5,71.4a48.5,48.5,0,1,1-96.9,0,47,47,0,0,1,3.8-18.7h0a47,47,0,0,1,9.2-14.1h.4a2.7,2.7,0,0,0,1.7-.6,2.4,2.4,0,0,0,.7-2.2,45.9,45.9,0,0,1,13.7-8.8h.7l1-.2a4,4,0,0,0,1.2-1,47.2,47.2,0,0,1,16-2.8A48.5,48.5,0,0,1,170.8,123.3Zm-5.9-105L143,71.9a54.3,54.3,0,0,0-16.7-3.8V14.8a6.3,6.3,0,0,0,.2-2.4l1.5-.5,2.2-.7C145.2,10.3,156.6,12.6,164.9,18.3ZM99.4,53.7a16.3,16.3,0,0,1,7.6-5.4,24,24,0,0,1,11.1-.6,10.2,10.2,0,0,0,2.6.2L120.5,68a53.9,53.9,0,0,0-16.1,2.9L97.8,56.2A2.5,2.5,0,0,0,99.4,53.7ZM67.3,63.8A53.3,53.3,0,0,1,84,45.2a8.7,8.7,0,0,1,2.7-1.4l13,28.9a53.7,53.7,0,0,0-14.4,9.5C79.4,76,73.4,69.9,67.2,63.9A.1.1,0,0,0,67.3,63.8ZM51.2,55.5c10.4,9.7,20.7,19.8,30.5,30.2A56.9,56.9,0,0,0,72,100.1a76.2,76.2,0,0,1-12-6.2c-3.9-2.2-7.8-4.6-12.2-6.2a42.3,42.3,0,0,0-5.7-1.9,64,64,0,0,1-6.6-2.3l.2-.3A64.1,64.1,0,0,1,51.2,55.5ZM17.1,121.8h-.3v-.2A40,40,0,0,1,20.9,83c2.9.2,5.7,1.7,8.6,3.2l3.9,1.9a70,70,0,0,0,7.3,2.5l5.4,1.7a88.4,88.4,0,0,1,11.4,5.9,78.9,78.9,0,0,0,12.6,6.5A54.1,54.1,0,0,0,67,120.8c-10.3-.8-20.6-1-30.9-.8a9.3,9.3,0,0,0-3.8.6,7.8,7.8,0,0,0-2.6,1.7,2.7,2.7,0,0,0-2.2-1.1Zm15.9,35c-7-8-7.4-21.3-.9-29.7a5.2,5.2,0,0,1,2-1.9,7.1,7.1,0,0,1,2.1-.2c10.2-.2,20.6,0,30.8.8a51.9,51.9,0,0,0,3.2,16.3A331,331,0,0,0,33,156.9Zm15.3,36.8c-5.6-1.6-10.9-5.7-14.7-11.5a51.8,51.8,0,0,1-6.7-16.6,307.2,307.2,0,0,1,45.2-18.7,54.8,54.8,0,0,0,9.8,14.4,375.9,375.9,0,0,0-32.4,33.2A3.6,3.6,0,0,0,48.3,193.6ZM86.5,206l-13,30.7a89.9,89.9,0,0,1-14.6-4,51.3,51.3,0,0,1-21.2-15.6,370.7,370.7,0,0,1,47.8-52.4,57.4,57.4,0,0,0,13.6,9A163.5,163.5,0,0,0,88,204.2v.4A2.7,2.7,0,0,0,86.5,206Zm16.8,4.2a38.2,38.2,0,0,1-4.4-3,40.7,40.7,0,0,0-5.5-3.7,153,153,0,0,1,10.3-27.9,55.8,55.8,0,0,0,17.4,3.1c-.9,11.3-1.4,22.7-1.5,34h-.1A21.8,21.8,0,0,1,103.3,210.2Zm64.3,18.2a121.4,121.4,0,0,1-32.3,12.2c-3.2.6-6.9,1.3-10,.3h0a445.2,445.2,0,0,1,.8-62.2,52.5,52.5,0,0,0,15.8-3.4l4.4,9.2c7,14.4,14.2,29.2,21.5,43.9Zm47.7-1.3a83.4,83.4,0,0,1-11.9,9.6c-3.4,2.3-7.1,4.3-10.7,6.3l-9.3,5.1c-11.2-21.8-22.1-44.2-32.6-65.9l-4.3-9a55.6,55.6,0,0,0,13.9-9.6A199.6,199.6,0,0,1,192.3,196l.6.8a2.5,2.5,0,0,0,.6,2.7A107.6,107.6,0,0,1,215.3,227.1Zm-8.7-67.5c1,2.6-1.9,8.4-3.6,11.9-.5,1.1-1,2.1-1.3,2.9a152.8,152.8,0,0,1-7.8,15.7,198.6,198.6,0,0,0-30-30.1,55.6,55.6,0,0,0,9.5-15.2c6.2,2.1,12.3,4.5,18.2,7l3.5,1.4C198.8,154.5,205.6,157,206.6,159.6Zm-4.4-22.8c-.5,3.3-1.7,8.1-5,11.8h-.4l-3.2-1.2c-6-2.7-12.2-5.1-18.4-7.2a56.4,56.4,0,0,0,2.5-15.4c8-.6,16.1-1,24.1-1A56.6,56.6,0,0,1,202.2,136.8Zm38-16.2a353.9,353.9,0,0,0-62.6-1,52.7,52.7,0,0,0-3.1-14.9c7.9-4.5,16-9,24.7-11.6l4-1.1,5.3-1.5,4.1-1.5c3.7-1.3,7.1-2.6,10.6-2.6h2.3v-.9a2.4,2.4,0,0,0,2.8.4,37.6,37.6,0,0,1,10.3-3.3A67.7,67.7,0,0,1,240.2,120.6Z" /></svg>