<svg xmlns="http://www.w3.org/2000/svg" width="256" height="256" viewBox="0 0 256 256"><path d="M209.1,171.1l45.6,23.8-4.6,8.9-46.5-24.3a88.1,88.1,0,0,1-6.9,8.2L214,201.1l-6.1,7.9-17.6-13.6,4.3-5.6a97.9,97.9,0,0,1-12,10.2l15.6,16.3-7.2,6.9-16.3-17,2.9-2.8a102.4,102.4,0,0,1-15.4,8.1l8.9,13.5-8.3,5.5-10.2-15.4c-3.2,1-6.4,1.9-9.7,2.6l8.8,27.8-9.6,3-9.1-29c-3.3.4-6.7.8-10,.9v22.1H113V220.6q-5.1-.2-10.2-.6l-3.7,22.1-9.9-1.6,3.7-22a112.7,112.7,0,0,1-12.8-2.9L63.2,242.8l-8.5-5.2,15.7-25.2-5.7-2.3,2-4.6c27.1,11.6,58.1,13.4,84.8,4.7s50.3-29.5,58.8-53.6c4.1-11.6,5.4-24.4,3.8-38.1A96.3,96.3,0,0,0,123.4,33c-24-1.2-48.4,7.6-63.5,23.2a64.8,64.8,0,0,0-15.1,65.4c7.5,21.9,27.5,40.6,52.3,48.7,16.2,5.3,31.7,4.7,42.5-1.5A40,40,0,0,0,152,156.9a45,45,0,0,0,5.2-39.9c-4.6-13-17.4-27.4-35.2-29.9h-9V46.2h10v36a25.7,25.7,0,0,1,4,.8h-.1l16.9-30,8.7,4.9L136.4,86.5a53,53,0,0,1,5.7,3.3L171.2,62l6.9,7.2L149.8,96.3c1.1,1.1,2.1,2.2,3.1,3.4l31.8-17,4.7,8.8L158.6,108l1.8,3.4,36.1-4.3,1.2,9.9-34.1,4.1a47.9,47.9,0,0,1,1,7.6l32.7,1-.3,10-32.8-1.1a46,46,0,0,1-2.1,8.9l41.2,9.6-2.3,9.7-43.1-10-1.8,2.9c-.9,1.3-1.8,2.5-2.8,3.7l18.5,18.8-7.1,7.1-18.6-18.9a35.1,35.1,0,0,1-4,2.7,45.9,45.9,0,0,1-5,2.4l7,19.9-9.5,3.3-7.2-20.6a50.5,50.5,0,0,1-10.4.7l-13.2,30.5-9.2-4,12-27.5A75.2,75.2,0,0,1,95.5,175l-3.1-1L79.5,194.1l-8.4-5.4,12-18.7a102.1,102.1,0,0,1-11.5-6.8L52.8,185.6l-7.7-6.5,18.6-22c-2.1-1.8-4.1-3.7-6-5.6l-10.6,8.6-6.3-7.7,10.4-8.5c-1.2-1.6-2.4-3.3-3.4-4.9l-12,4.9L32,134.6l10.9-4.5a58.6,58.6,0,0,1-2.8-6.9c-.5-1.3-.8-2.6-1.2-3.9H23.8v-10H37a63.2,63.2,0,0,1-.4-11.5L3.8,89.7l2.4-9.8,31.7,7.9c.3-1.8.8-3.6,1.3-5.5L26.5,79.5l2.2-9.8,13.9,3.2a61.2,61.2,0,0,1,4.9-9.1L21.4,49.5l4.8-8.8,27.3,15,2.8-3L59.1,50l-7-5.5,6.2-7.9,8.8,7a70.6,70.6,0,0,1,6.5-4L63.3,19l9-4.5L82.6,35.2a94.2,94.2,0,0,1,9.8-3.5l-3-8.8,9.5-3.2,3.2,9.7c2.4-.4,4.8-.8,7.1-1V2h10V27.9h4.5l4.8.4,2.2-13.6,9.8,1.6-2.1,13.5,4.8,1.1,5.4-11.8,9.1,4.2L152.8,34a64.4,64.4,0,0,1,6.1,2.4L177,14.7l7.6,6.4L168.1,41l5.1,3.1,10.5-9.5,6.7,7.4-8.9,8q3.8,3,7.2,6.3l14-11.6,6.4,7.7L195.6,63.6c1.2,1.4,2.3,2.9,3.5,4.4l8.1-4.6,4.9,8.7-7.4,4.2c1.9,3.2,3.7,6.5,5.3,9.9l-.5-1.6,22.6-6.9,2.9,9.6-21.8,6.6c1,2.8,2,5.6,2.8,8.5l32.3-2.2.6,10-30.7,2.1c.3,1.8.6,3.7.8,5.6a90.6,90.6,0,0,1,.7,10.3v-6.4h17.6v10H219.7v-.4a84.9,84.9,0,0,1-.5,8.8l32.7,5.5-1.6,9.8L217.4,150c-.3,1.3-.6,2.7-1,4l38.3,14-3.4,9.4-38.3-14A79.4,79.4,0,0,1,209.1,171.1Z" /></svg>