<svg height="256" viewBox="0 0 256 256" width="256" xmlns="http://www.w3.org/2000/svg"><path d="m88.6 149.4a10.5 10.5 0 0 0 -4.1-8.9q-4.1-3.1-14.7-6.6a104.4 104.4 0 0 1 -16.9-6.8q-16.9-9-16.9-24.5a24 24 0 0 1 4.5-14.4 29.6 29.6 0 0 1 13-9.9 49.1 49.1 0 0 1 19.1-3.5 44.7 44.7 0 0 1 19 3.9 30.2 30.2 0 0 1 12.9 10.9 28.5 28.5 0 0 1 4.6 16h-20.4q0-6.8-4.3-10.6t-12.1-3.9q-7.5 0-11.7 3.2a10 10 0 0 0 -4.2 8.4q0 4.8 4.9 8.1t14.4 6.1q17.5 5.3 25.5 13a26 26 0 0 1 8 19.4q0 12.9-9.8 20.2t-26.3 7.3a50.7 50.7 0 0 1 -20.9-4.2 33.1 33.1 0 0 1 -14.4-11.5 29.4 29.4 0 0 1 -4.9-16.9h20.6q0 16.4 19.7 16.4 7.3 0 11.4-3a9.7 9.7 0 0 0 4-8.2zm53.9 26.1h-19.8v-104.8h19.8zm47-14.5a12.9 12.9 0 0 0 8.9-3 10.5 10.5 0 0 0 3.5-8h18.5a25.3 25.3 0 0 1 -4.1 13.8 27 27 0 0 1 -11 9.7 34.5 34.5 0 0 1 -15.5 3.4q-15.8 0-25-10.1t-9.1-27.8v-1.3q0-17.1 9.1-27.2t24.9-10.2q13.9 0 22.2 7.9t8.5 21h-18.5a13.6 13.6 0 0 0 -3.5-9.4 11.8 11.8 0 0 0 -9-3.6q-6.9 0-10.4 5t-3.5 16.3v2.1q0 11.4 3.5 16.4t10.5 5z"/></svg>