<svg height="256" viewBox="0 0 256 256" width="256" xmlns="http://www.w3.org/2000/svg"><path d="m238.9 246.3v-83.1-69.7h-39.2v152.8h-18.7l.5-59.4.4-.4-.4-.4.4-58.6h-39.2v118.8h-16.8v-57.6l.3-.3-.3-.4v-25.5h-39.2v83.8h-16.8v-189.6h-39.2v189.6h-23.4v-238.1h-3v241.1h247v-3zm-33.4-102.2 14.4-19.2-2.2-1.7h18.2v24.3l-19.3 25.8 1.3.9-15.2-.2v-50.8h14.7l-14.3 19.1zm14.1 30.2 16.3-21.8v9.7l-9.1 12.2zm16.3 2.7h-.3v-2.5h-5.1l5.4-7.2zm0-80.5v23.7h-33.2v-23.7zm-72.8 97.8 15.4-15.5v6.9l-8.7 8.6zm15.5-19.7-18.9 18.8.8.8-14.8-.2v-40l33 .2zm-.2 19.9h-4.4l4.4-4.4zm.5-64-.2 20.7-33-.2v-20.5zm-56 69.5h-8.3l8.3-8.3zm0-24.8-20 20 2.1 2.1 17.9-17.9v8.1l-10.8 10.7 1.8 1.8h-24.2v-23.5l1.5 1.2a72.9 72.9 0 0 1 9.1-10.1h.1a1.6 1.6 0 0 0 1.4-1.3 1.1 1.1 0 0 0 0-.8h21.1zm-24-9.5v-.2h1.1v.6l-1.2.5a1.4 1.4 0 0 1 .1-.9zm-.7-.2a68.5 68.5 0 0 0 -8.5 9.3v-9.3zm-31.3-.3-9.1 9.1h-6.7l15.8-15.9zm-4.9 9.2 4.9-4.9v7.5h-.3v-2.5zm4.9-114.7v71.5h-32.2v3h32.2v20l-19.2 19.2.8.8-14.8-.2v-114.3zm-30.6 92.5-2.1-2.1 14.4-14.4 2.1 2.1zm0 10.4-2.1-2.1 24.6-24.5 2.1 2.1zm-.6 8.7 28.4-28.4 2.2 2.1-28.4 28.4zm112.6.9-2.1-2.1 14.4-14.4 2.1 2.1zm-2.1 8.3 24.6-24.5 2.1 2.1-24.6 24.5zm1.5 10.8 28.4-28.4 2.2 2.1-28.4 28.4zm55.4-35.2 24.5-32.6 2.4 1.8-24.5 32.6zm1.5 14.3 28.4-37.8 2.4 1.8-28.4 37.8zm-114.9 15.6 19.4-19.4 2.1 2.2-19.3 19.3zm5.3 6.1 24.6-24.7 2.2 2.1-24.7 24.7z"/></svg>