<?xml version="1.0" encoding="utf-8"?>
<!-- Generator: Adobe Illustrator 22.1.0, SVG Export Plug-In . SVG Version: 6.00 Build 0)  -->
<svg version="1.1" xmlns="http://www.w3.org/2000/svg" xmlns:xlink="http://www.w3.org/1999/xlink" x="0px" y="0px"
	 viewBox="0 0 1268 418" enable-background="new 0 0 1268 418" xml:space="preserve">
<g id="Layer_1">
	<polyline fill="none" stroke="#DDB997" stroke-width="2" stroke-miterlimit="10" points="427.3,307.1 392.8,307.1 392.8,370.6 	"/>
	<polyline fill="none" stroke="#DDB997" stroke-width="2" stroke-miterlimit="10" points="154.3,307.1 118.8,307.1 118.8,370.6 	"/>
	<polyline fill="none" stroke="#DDB997" stroke-width="2" stroke-miterlimit="10" points="975.3,307.1 941,307.1 941,370.6 	"/>
	<polyline fill="none" stroke="#DDB997" stroke-width="2" stroke-miterlimit="10" points="701.2,307.1 666.9,307.1 666.9,370.6 	"/>
	<g>
		<polyline fill="none" stroke="#6C5F82" stroke-width="2" stroke-miterlimit="10" points="255.7,370.6 255.7,307.1 290.1,307.1 		
			"/>
		<polyline fill="none" stroke="#6C5F82" stroke-width="2" stroke-miterlimit="10" points="529.8,370.6 529.8,307.1 564.2,307.1 		
			"/>
		<polyline fill="none" stroke="#6C5F82" stroke-width="2" stroke-miterlimit="10" points="461.5,370.6 461.5,307.1 427.1,307.1 
			427.1,233.1 495.3,233.1 		"/>
		<polyline fill="none" stroke="#6C5F82" stroke-width="2" stroke-miterlimit="10" points="804,370.6 804,307.1 838.2,307.1 		"/>
		<polyline fill="none" stroke="#6C5F82" stroke-width="2" stroke-miterlimit="10" points="735.4,369.6 735.4,307.1 701.2,307.1 
			701.2,233.1 769.7,233.1 769.7,142.1 906.2,142.1 		"/>
		<polyline fill="none" stroke="#6C5F82" stroke-width="2" stroke-miterlimit="10" points="1078,370.6 1078,307.1 1112.3,307.1 		
			"/>
		<polyline fill="none" stroke="#6C5F82" stroke-width="2" stroke-miterlimit="10" points="1009.5,370.6 1009.5,307.1 975.3,307.1 
			975.3,233.1 1043.3,233.1 		"/>
		<polyline fill="none" stroke="#6C5F82" stroke-width="2" stroke-miterlimit="10" points="187.3,369.6 187.3,307.1 153.1,307.1 
			153.1,233.1 221.6,233.1 221.6,142.1 358.6,142.1 358.6,55.1 632.7,55.1 632.7,39.6 		"/>
	</g>
	<polyline fill="none" stroke="#DDB997" stroke-width="2" stroke-miterlimit="10" points="222.6,233.1 290.1,233.1 290.1,307.1 
		324.3,307.1 324.3,370.6 	"/>
	<polyline fill="none" stroke="#DDB997" stroke-width="2" stroke-miterlimit="10" points="359.6,142.1 495.6,142.1 495.6,233.1 
		564.2,233.1 564.2,307.1 598.4,307.1 598.4,370.6 	"/>
	<polyline fill="none" stroke="#DDB997" stroke-width="2" stroke-miterlimit="10" points="770.7,233.1 838.2,233.1 838.2,307.1 
		872.5,307.1 872.5,370.6 	"/>
	<polyline fill="none" stroke="#DDB997" stroke-width="2" stroke-miterlimit="10" points="633.7,55.1 906.7,55.1 906.7,142.1 
		1043.8,142.1 1043.8,233.1 1112.3,233.1 1112.3,307.1 1146.5,307.1 1146.5,370.6 	"/>
	<path opacity="0.8" fill="#B8B0BF" d="M815.4,413.2h-22.8v-3.3c0-4.7,3.8-8.4,8.4-8.4h6c4.7,0,8.4,3.8,8.4,8.4V413.2z M804,387.8
		c-3.1,0-5.5,2.5-5.5,5.5s2.5,5.5,5.5,5.5s5.5-2.5,5.5-5.5S807,387.8,804,387.8z"/>
	<path opacity="0.8" fill="#B8B0BF" d="M883.9,413.2h-22.8v-3.3c0-4.7,3.8-8.4,8.4-8.4h6c4.7,0,8.4,3.8,8.4,8.4V413.2z M872.5,387.8
		c-3.1,0-5.5,2.5-5.5,5.5s2.5,5.5,5.5,5.5s5.5-2.5,5.5-5.5S875.5,387.8,872.5,387.8z"/>
	<path opacity="0.8" fill="#B8B0BF" d="M952.4,413.2h-22.8v-3.3c0-4.7,3.8-8.4,8.4-8.4h6c4.7,0,8.4,3.8,8.4,8.4V413.2z M941,387.8
		c-3.1,0-5.5,2.5-5.5,5.5s2.5,5.5,5.5,5.5s5.5-2.5,5.5-5.5S944,387.8,941,387.8z"/>
	<path opacity="0.8" fill="#B8B0BF" d="M1020.9,413.2h-22.8v-3.3c0-4.7,3.8-8.4,8.4-8.4h6c4.7,0,8.4,3.8,8.4,8.4V413.2z
		 M1009.5,387.8c-3.1,0-5.5,2.5-5.5,5.5s2.5,5.5,5.5,5.5s5.5-2.5,5.5-5.5S1012.6,387.8,1009.5,387.8z"/>
	<path opacity="0.8" fill="#B8B0BF" d="M1089.4,413.2h-22.8v-3.3c0-4.7,3.8-8.4,8.4-8.4h6c4.7,0,8.4,3.8,8.4,8.4V413.2z M1078,387.8
		c-3.1,0-5.5,2.5-5.5,5.5s2.5,5.5,5.5,5.5s5.5-2.5,5.5-5.5S1081.1,387.8,1078,387.8z"/>
	<path opacity="0.8" fill="#B8B0BF" d="M1158,413.2h-22.8v-3.3c0-4.7,3.8-8.4,8.4-8.4h6c4.7,0,8.4,3.8,8.4,8.4V413.2z M1146.5,387.8
		c-3.1,0-5.5,2.5-5.5,5.5s2.5,5.5,5.5,5.5c3.1,0,5.5-2.5,5.5-5.5S1149.6,387.8,1146.5,387.8z"/>
	<path opacity="0.8" fill="#B8B0BF" d="M404.3,413.2h-22.8v-3.3c0-4.7,3.8-8.4,8.4-8.4h6c4.7,0,8.4,3.8,8.4,8.4V413.2z M392.9,387.8
		c-3.1,0-5.5,2.5-5.5,5.5s2.5,5.5,5.5,5.5c3.1,0,5.5-2.5,5.5-5.5S395.9,387.8,392.9,387.8z"/>
	<path opacity="0.8" fill="#B8B0BF" d="M335.8,413.2h-22.8v-3.3c0-4.7,3.8-8.4,8.4-8.4h6c4.7,0,8.4,3.8,8.4,8.4V413.2z M324.3,387.8
		c-3.1,0-5.5,2.5-5.5,5.5s2.5,5.5,5.5,5.5c3.1,0,5.5-2.5,5.5-5.5S327.4,387.8,324.3,387.8z"/>
	<path opacity="0.8" fill="#B8B0BF" d="M267.2,413.2h-22.8v-3.3c0-4.7,3.8-8.4,8.4-8.4h6c4.7,0,8.4,3.8,8.4,8.4V413.2z M255.8,387.8
		c-3.1,0-5.5,2.5-5.5,5.5s2.5,5.5,5.5,5.5c3.1,0,5.5-2.5,5.5-5.5S258.9,387.8,255.8,387.8z"/>
	<path opacity="0.8" fill="#B8B0BF" d="M198.7,413.2h-22.8v-3.3c0-4.7,3.8-8.4,8.4-8.4h6c4.7,0,8.4,3.8,8.4,8.4V413.2z M187.3,387.8
		c-3.1,0-5.5,2.5-5.5,5.5s2.5,5.5,5.5,5.5c3.1,0,5.5-2.5,5.5-5.5S190.4,387.8,187.3,387.8z"/>
	<path opacity="0.8" fill="#B8B0BF" d="M130.2,413.2h-22.8v-3.3c0-4.7,3.8-8.4,8.4-8.4h6c4.7,0,8.4,3.8,8.4,8.4V413.2z M118.8,387.8
		c-3.1,0-5.5,2.5-5.5,5.5s2.5,5.5,5.5,5.5s5.5-2.5,5.5-5.5S121.8,387.8,118.8,387.8z"/>
	<path opacity="0.8" fill="#B8B0BF" d="M472.8,413.2H450v-3.3c0-4.7,3.8-8.4,8.4-8.4h6c4.7,0,8.4,3.8,8.4,8.4V413.2z M461.4,387.8
		c-3.1,0-5.5,2.5-5.5,5.5s2.5,5.5,5.5,5.5c3.1,0,5.5-2.5,5.5-5.5S464.4,387.8,461.4,387.8z"/>
	<path opacity="0.8" fill="#B8B0BF" d="M541.3,413.2h-22.8v-3.3c0-4.7,3.8-8.4,8.4-8.4h6c4.7,0,8.4,3.8,8.4,8.4V413.2z M529.9,387.8
		c-3.1,0-5.5,2.5-5.5,5.5s2.5,5.5,5.5,5.5c3.1,0,5.5-2.5,5.5-5.5S532.9,387.8,529.9,387.8z"/>
	<path opacity="0.8" fill="#B8B0BF" d="M609.8,413.2H587v-3.3c0-4.7,3.8-8.4,8.4-8.4h6c4.7,0,8.4,3.8,8.4,8.4V413.2z M598.4,387.8
		c-3.1,0-5.5,2.5-5.5,5.5s2.5,5.5,5.5,5.5c3.1,0,5.5-2.5,5.5-5.5S601.5,387.8,598.4,387.8z"/>
	<path opacity="0.8" fill="#B8B0BF" d="M646.1,33.7h-28.5v-6.2c0-4.7,3.8-8.4,8.4-8.4h11.7c4.7,0,8.4,3.8,8.4,8.4V33.7z M631.8,2.1
		c-3.8,0-6.9,3.1-6.9,6.9s3.1,6.9,6.9,6.9s6.9-3.1,6.9-6.9S635.6,2.1,631.8,2.1z"/>
	<path opacity="0.8" fill="#B8B0BF" d="M678.3,413.2h-22.8v-3.3c0-4.7,3.8-8.4,8.4-8.4h6c4.7,0,8.4,3.8,8.4,8.4V413.2z M666.9,387.8
		c-3.1,0-5.5,2.5-5.5,5.5s2.5,5.5,5.5,5.5c3.1,0,5.5-2.5,5.5-5.5S670,387.8,666.9,387.8z"/>
	<path opacity="0.8" fill="#B8B0BF" d="M746.9,413.2H724v-3.3c0-4.7,3.8-8.4,8.4-8.4h6c4.7,0,8.4,3.8,8.4,8.4V413.2z M735.4,387.8
		c-3.1,0-5.5,2.5-5.5,5.5s2.5,5.5,5.5,5.5c3.1,0,5.5-2.5,5.5-5.5S738.5,387.8,735.4,387.8z"/>
</g>
<g id="Layer_2">
</g>
<g id="Layer_3">
</g>
</svg>
