<?xml version="1.0" encoding="utf-8"?>
<!-- Generator: Adobe Illustrator 24.0.1, SVG Export Plug-In . SVG Version: 6.00 Build 0)  -->
<svg version="1.1" id="Layer_1" xmlns="http://www.w3.org/2000/svg" xmlns:xlink="http://www.w3.org/1999/xlink" x="0px" y="0px"
	 viewBox="0 0 1268 418" style="enable-background:new 0 0 1268 418;" xml:space="preserve">
<style type="text/css">
	.st0{fill:#A59CB9;}
	.st1{fill:#C5C5D1;}
	.st2{fill:none;stroke:#CCCCCC;stroke-width:1.6016;}
	.st3{fill:#CCCCCC;}
	.st4{font-family:'RobotoMono-Regular';}
	.st5{font-size:16px;}
</style>
<path class="st0" d="M549.1,60h603.2v47.6H549.1L549.1,60z"/>
<path class="st1" d="M270.4,60H549v47.6H270.4L270.4,60z"/>
<path class="st0" d="M549.1,112.5h473.7V160H549.1L549.1,112.5z"/>
<path class="st1" d="M342.3,112.5h206.8V160H342.3V112.5z"/>
<path class="st0" d="M549.1,164.7h379.9v47.6H549.1L549.1,164.7z"/>
<path class="st1" d="M400.8,164.7H549v47.6H400.8V164.7z"/>
<path class="st0" d="M549.1,217h185.6v47.6H549.1V217z"/>
<path class="st1" d="M443.9,217h105.3v47.6H443.9V217z"/>
<path class="st0" d="M549.1,269.5h68.2v47.6h-68.2V269.5z"/>
<path class="st1" d="M494.8,269.5h54.4v47.6h-54.4V269.5z"/>
<path class="st0" d="M549.1,321.8h27.8v47.6h-27.8V321.8z"/>
<path class="st1" d="M514.3,321.8h34.8v47.6h-34.8V321.8z"/>
<g transform="translate(100 160)">
	<g transform="translate(68.571429)">
		<path class="st2" d="M245.5,218.2v10.4"/>
		<text transform="matrix(1 0 0 1 229.0506 252.0518)" class="st3 st4 st5">-10</text>
	</g>
	<g transform="translate(125.714286)">
		<path class="st2" d="M324.3,218.2v10.4"/>
		<text transform="matrix(1 0 0 1 318.6348 252.0518)" class="st3 st4 st5">0</text>
	</g>
	<g transform="translate(182.857143)">
		<path class="st2" d="M403.1,218.2v10.4"/>
		<text transform="matrix(1 0 0 1 393.9387 252.0518)" class="st3 st4 st5">10</text>
	</g>
	<g transform="translate(240)">
		<path class="st2" d="M482,218.2v10.4"/>
		<text transform="matrix(1 0 0 1 472.7646 252.0518)" class="st3 st4 st5">20</text>
	</g>
	<g transform="translate(297.142857)">
		<path class="st2" d="M560.8,218.2v10.4"/>
		<text transform="matrix(1 0 0 1 549.5915 252.0518)" class="st3 st4 st5">30</text>
	</g>
	<path class="st2" d="M0.9,218.4h1145.3"/>
	<path class="st2" d="M41.7,218.2v10.4"/>
	<text transform="matrix(1 0 0 1 24.2505 252.0518)" class="st3 st4 st5">-30</text>
	<path class="st2" d="M177.6,218.2v10.4"/>
	<text transform="matrix(1 0 0 1 160.9078 252.0518)" class="st3 st4 st5">-20</text>
	<path class="st2" d="M722.2,218.2v10.4"/>
	<path class="st2" d="M994.1,218.2v10.4"/>
	<text transform="matrix(1 0 0 1 982.9201 252.0518)" class="st3 st4 st5">40</text>
	<path class="st2" d="M1129.2,218.2v10.4"/>
	<text transform="matrix(1 0 0 1 1117.9896 252.0518)" class="st3 st4 st5">50</text>
</g>
<g>
	<text transform="matrix(1 0 0 1 55.566 92.9863)" class="st3 st4 st5">F</text>
	<text transform="matrix(1 0 0 1 55.566 145.3345)" class="st3 st4 st5">E</text>
	<path class="st0" d="M549.1,7h655.1v47.6H549.1L549.1,7z"/>
	<path class="st1" d="M99.9,7h449v47.6h-449L99.9,7z"/>
	<text transform="matrix(1 0 0 1 55.566 39.9863)" class="st3 st4 st5">G</text>
	<text transform="matrix(1 0 0 1 55.566 197.6831)" class="st3 st4 st5">D</text>
	<text transform="matrix(1 0 0 1 55.566 250.0312)" class="st3 st4 st5">C</text>
	<text transform="matrix(1 0 0 1 55.566 302.3779)" class="st3 st4 st5">B</text>
	<text transform="matrix(1 0 0 1 53.9366 354.7256)" class="st3 st4 st5">A</text>
</g>
</svg>
