<svg xmlns="http://www.w3.org/2000/svg" width="650" height="320" viewBox="0 0 650 320"><defs><style>.a,.b,.f{fill:none;}.a,.b{stroke:#888;}.a{stroke-width:1.22px;}.b{stroke-width:1.31px;}.c{isolation:isolate;}.d{fill:#b4b4b5;}.e{fill:#d6d6d6;}.f{stroke:#868687;stroke-width:4px;}.f,.g{stroke-miterlimit:10;}.g{fill:#5d5d5e;stroke:#fff;stroke-width:1.88px;}</style></defs><title>spline-area-chart</title><path class="a" d="M38.2,4.6V290.8l605.1-.5"/><path class="b" d="M44.9,291.3v6.5"/><path class="b" d="M110.5,291.3v6.5"/><path class="b" d="M176,291.3v6.5"/><path class="b" d="M241.6,291.3v6.5"/><path class="b" d="M307.3,291.3v6.5"/><path class="b" d="M372.7,291.3v6.5"/><path class="b" d="M438.3,291.3v6.5"/><path class="b" d="M503.8,291.3v6.5"/><path class="b" d="M569.4,291.3v6.5"/><path class="b" d="M635,291.3v6.5"/><g class="c"><path class="d" d="M48.8,311a6,6,0,0,1-.2,1.7,3.6,3.6,0,0,1-.6,1.3,2.7,2.7,0,0,1-1,.8l-1.4.3-1.4-.3a2.8,2.8,0,0,1-1-.8,3.6,3.6,0,0,1-.7-1.3,5.9,5.9,0,0,1-.2-1.7v-2.4a6,6,0,0,1,.2-1.7,3.6,3.6,0,0,1,.6-1.3,2.7,2.7,0,0,1,1-.8,3.7,3.7,0,0,1,2.8,0,2.7,2.7,0,0,1,1,.8,3.6,3.6,0,0,1,.6,1.3,6,6,0,0,1,.2,1.7V311Zm-5.3-.3,4-3a2.7,2.7,0,0,0-.6-1.5,1.8,1.8,0,0,0-1.4-.5,1.7,1.7,0,0,0-1.5.7,3.5,3.5,0,0,0-.5,2v2.4Zm4-1.8-3.9,3a2.6,2.6,0,0,0,.6,1.5,1.8,1.8,0,0,0,1.4.5,1.7,1.7,0,0,0,1.5-.7,3.5,3.5,0,0,0,.5-2V309Z"/></g><g class="c"><path class="d" d="M112.2,314.9h-1.3v-8.5l-2.7,1v-1.2l3.8-1.5h0.1v10.1Z"/></g><g class="c"><path class="d" d="M179.8,314.9h-6.6V314l3.3-3.7,0.7-.9,0.5-.7,0.3-.6a2.3,2.3,0,0,0,.1-0.6,2,2,0,0,0-.1-0.7l-0.4-.6-0.6-.4h-1.6l-0.6.4a1.7,1.7,0,0,0-.4.7,2.8,2.8,0,0,0-.1.9h-1.3a3.3,3.3,0,0,1,.2-1.2,2.9,2.9,0,0,1,.6-1l1-.7,1.4-.3,1.3,0.2,1,0.6a2.5,2.5,0,0,1,.6.9,2.9,2.9,0,0,1,.2,1.1,2.7,2.7,0,0,1-.2.9l-0.4.9-0.6.9-0.7.8-2.7,3h5.1v1.1Z"/></g><g class="c"><path class="d" d="M240.6,309.2h1.8l0.6-.4,0.4-.5a1.8,1.8,0,0,0,.1-0.7,1.6,1.6,0,0,0-1.8-1.8H241l-0.6.4-0.4.5a1.9,1.9,0,0,0-.1.7h-1.3a2.7,2.7,0,0,1,.9-2l1-.6,1.3-.2,1.2,0.2,1,0.5a2.5,2.5,0,0,1,.6.9,3.2,3.2,0,0,1,.2,1.2,2.2,2.2,0,0,1-.1.6l-0.3.6-0.5.6-0.7.4,0.8,0.4,0.5,0.6a2.2,2.2,0,0,1,.3.7,3.2,3.2,0,0,1,.1.7,3.1,3.1,0,0,1-.2,1.3,2.7,2.7,0,0,1-.7.9l-1,.6-1.3.2-1.3-.2-1-.6a2.6,2.6,0,0,1-.7-0.9,2.7,2.7,0,0,1-.3-1.2h1.3a1.9,1.9,0,0,0,.1.7l0.4,0.6,0.6,0.4h1.6l0.6-.4,0.4-.6a2.3,2.3,0,0,0,.1-0.8,2,2,0,0,0-.2-0.8l-0.4-.6-0.7-.3h-1.8v-1Z"/></g><g class="c"><path class="d" d="M309.9,311.5h1.4v1.1h-1.4v2.4h-1.3v-2.4H304v-0.8l4.5-7h1.4v6.7Zm-4.5,0h3.2v-5l-0.2.4Z"/></g><g class="c"><path class="d" d="M370.8,309.8l0.5-5.1h5.2V306h-4.1l-0.3,2.7,0.7-.3h1l1.3,0.2a2.7,2.7,0,0,1,.9.7,3.1,3.1,0,0,1,.6,1.1,4.4,4.4,0,0,1,.2,1.4,4.5,4.5,0,0,1-.2,1.3,2.9,2.9,0,0,1-.6,1.1,2.7,2.7,0,0,1-1,.7l-1.4.3-1.2-.2-1-.5a2.7,2.7,0,0,1-.7-0.9,3.4,3.4,0,0,1-.3-1.2h1.2a2,2,0,0,0,.6,1.3,2,2,0,0,0,1.3.4l0.8-.2,0.6-.5a2.1,2.1,0,0,0,.4-0.7,3.4,3.4,0,0,0,.1-0.9,2.8,2.8,0,0,0-.1-0.9,2.1,2.1,0,0,0-.4-0.7l-0.6-.5-0.9-.2h-1l-0.4.2-0.3.3Z"/></g><g class="c"><path class="d" d="M440.6,304.8v1.2h-1.3l-0.9.4-0.7.5-0.5.7-0.3.8a5,5,0,0,0-.1.8l0.4-.4,0.5-.3,0.6-.2h0.7a2.8,2.8,0,0,1,1.3.3,2.7,2.7,0,0,1,.9.8,3.2,3.2,0,0,1,.5,1.1,4.5,4.5,0,0,1,.2,1.2,4.4,4.4,0,0,1-.2,1.3,3.2,3.2,0,0,1-.6,1.1,2.8,2.8,0,0,1-1,.7,3.2,3.2,0,0,1-1.4.3l-1-.2-0.8-.4-0.6-.7L436,313a4.8,4.8,0,0,1-.3-0.9,4.9,4.9,0,0,1-.1-0.9v-0.6a11.4,11.4,0,0,1,.1-1.4,7.3,7.3,0,0,1,.3-1.3,5.3,5.3,0,0,1,.6-1.2,3.7,3.7,0,0,1,.9-1l1.3-.6,1.7-.2h0.1Zm-1.7,4.6h-0.6l-0.6.3-0.5.5-0.3.6v0.4a4,4,0,0,0,.2,1.2,2.8,2.8,0,0,0,.4.9l0.6,0.5,0.7,0.2,0.8-.2,0.6-.5a2.1,2.1,0,0,0,.4-0.7,3.5,3.5,0,0,0,0-1.8,2.3,2.3,0,0,0-.3-0.7l-0.6-.5Z"/></g><g class="c"><path class="d" d="M507.9,305.5l-4.2,9.4h-1.4l4.2-9H501v-1.1h6.9v0.7Z"/></g><g class="c"><path class="d" d="M573.3,307.4a2.4,2.4,0,0,1-.4,1.4,2.8,2.8,0,0,1-1.1.9l0.7,0.4,0.5,0.6,0.3,0.7a2.6,2.6,0,0,1,.1.8,2.8,2.8,0,0,1-.3,1.2,2.6,2.6,0,0,1-.7.9l-1,.6-1.3.2-1.3-.2-1-.6a2.6,2.6,0,0,1-.7-0.9,2.9,2.9,0,0,1-.3-1.2,2.7,2.7,0,0,1,.1-0.8l0.3-.7,0.5-.6,0.7-.4-0.6-.4-0.5-.5-0.3-.6a2.4,2.4,0,0,1-.1-0.7,2.9,2.9,0,0,1,.2-1.2,2.5,2.5,0,0,1,.6-0.9l0.9-.5,1.2-.2,1.2,0.2,1,0.5a2.5,2.5,0,0,1,.6.9A2.9,2.9,0,0,1,573.3,307.4Zm-1.1,4.7a2.1,2.1,0,0,0-.1-0.8l-0.4-.6-0.6-.4h-1.6l-0.6.4-0.4.6a2.2,2.2,0,0,0-.1.8,2.1,2.1,0,0,0,.1.8l0.4,0.6,0.6,0.4h1.6l0.6-.4,0.4-.6A2,2,0,0,0,572.2,312.2Zm-0.2-4.7a1.9,1.9,0,0,0-.1-0.7l-0.4-.6-0.5-.4h-1.4l-0.5.4-0.3.6a2,2,0,0,0-.1.7,2,2,0,0,0,.1.7l0.3,0.5,0.5,0.3H571l0.5-.3,0.4-.5A1.9,1.9,0,0,0,572,307.5Z"/></g><g class="c"><path class="d" d="M634,313.8h1.2l0.9-.3,0.6-.5,0.4-.7a3.4,3.4,0,0,0,.2-0.8,6.1,6.1,0,0,0,.1-0.8l-0.4.4-0.5.3-0.6.2h-0.7a2.6,2.6,0,0,1-2.2-1.1,3.3,3.3,0,0,1-.5-1.1,4.6,4.6,0,0,1,0-2.6,3.3,3.3,0,0,1,.6-1.1,2.9,2.9,0,0,1,1-.8,3.1,3.1,0,0,1,1.4-.3l1.1,0.2,0.8,0.5,0.6,0.7,0.4,0.8a5.1,5.1,0,0,1,.2,1,6.6,6.6,0,0,1,.1,1v0.5q0,0.6-.1,1.3a7,7,0,0,1-.2,1.3,5.1,5.1,0,0,1-.5,1.2,3.5,3.5,0,0,1-.9,1l-1.3.7-1.8.2h-0.1v-1.1H634Zm1.5-3.3h0.6l0.6-.3,0.5-.5,0.3-.6v-0.4a4.2,4.2,0,0,0-.2-1.2,2.9,2.9,0,0,0-.4-0.9l-0.6-.6-0.7-.2-0.8.2-0.6.5a2.3,2.3,0,0,0-.4.8,3.4,3.4,0,0,0-.1.9,3.5,3.5,0,0,0,.1.9,2.4,2.4,0,0,0,.3.8l0.6,0.5Z"/></g><path class="b" d="M36.8,36.8H30.3"/><path class="b" d="M36.8,102.4H30.3"/><path class="b" d="M36.8,167.8H30.3"/><path class="b" d="M36.8,233.5H30.3"/><g class="c"><path class="d" d="M12.9,239H11.6v-8.5l-2.7,1v-1.2l3.8-1.5h0.1V239Z"/><path class="d" d="M23.7,235.1a6,6,0,0,1-.2,1.7,3.6,3.6,0,0,1-.6,1.3,2.7,2.7,0,0,1-1,.8l-1.4.3-1.4-.3a2.8,2.8,0,0,1-1-.8,3.6,3.6,0,0,1-.7-1.3,5.9,5.9,0,0,1-.2-1.7v-2.4a6,6,0,0,1,.2-1.7,3.6,3.6,0,0,1,.6-1.3,2.7,2.7,0,0,1,1-.8,3.7,3.7,0,0,1,2.8,0,2.7,2.7,0,0,1,1,.8,3.6,3.6,0,0,1,.6,1.3,6,6,0,0,1,.2,1.7v2.4Zm-5.3-.3,4-3a2.7,2.7,0,0,0-.6-1.5,1.8,1.8,0,0,0-1.4-.5,1.7,1.7,0,0,0-1.5.7,3.5,3.5,0,0,0-.5,2v2.4Zm4-1.8-3.9,3a2.6,2.6,0,0,0,.6,1.5,1.8,1.8,0,0,0,1.4.5,1.7,1.7,0,0,0,1.5-.7,3.5,3.5,0,0,0,.5-2v-2.3Z"/></g><g class="c"><path class="d" d="M15,172.3H8.3v-0.9l3.3-3.7,0.7-.9,0.5-.7,0.3-.6a2.3,2.3,0,0,0,.1-0.6,2,2,0,0,0-.1-0.7l-0.4-.6-0.6-.4H10.5l-0.6.4a1.7,1.7,0,0,0-.4.7,2.8,2.8,0,0,0-.1.9H8.1a3.3,3.3,0,0,1,.2-1.2,2.9,2.9,0,0,1,.6-1l1-.7,1.4-.3,1.3,0.2,1,0.6a2.5,2.5,0,0,1,.6.9,2.9,2.9,0,0,1,.2,1.1,2.7,2.7,0,0,1-.2.9l-0.4.9-0.6.9-0.7.8-2.7,3H15v1.1Z"/><path class="d" d="M23.7,168.4a6,6,0,0,1-.2,1.7,3.6,3.6,0,0,1-.6,1.3,2.7,2.7,0,0,1-1,.8l-1.4.3-1.4-.3a2.8,2.8,0,0,1-1-.8,3.6,3.6,0,0,1-.7-1.3,5.9,5.9,0,0,1-.2-1.7V166a6,6,0,0,1,.2-1.7A3.6,3.6,0,0,1,18,163a2.7,2.7,0,0,1,1-.8l1.4-.3a3.4,3.4,0,0,1,1.4.3,2.8,2.8,0,0,1,1,.8,3.6,3.6,0,0,1,.6,1.3,6,6,0,0,1,.2,1.7v2.4Zm-5.3-.3,4-3a2.7,2.7,0,0,0-.6-1.5,1.8,1.8,0,0,0-1.4-.5,1.7,1.7,0,0,0-1.5.7,3.5,3.5,0,0,0-.5,2v2.4Zm4-1.8-3.9,3a2.6,2.6,0,0,0,.6,1.5,1.8,1.8,0,0,0,1.4.5,1.7,1.7,0,0,0,1.5-.7,3.5,3.5,0,0,0,.5-2v-2.3Z"/></g><g class="c"><path class="d" d="M10.3,100.8H12l0.6-.4,0.4-.6a1.8,1.8,0,0,0,.1-0.7,1.8,1.8,0,0,0-.5-1.3,1.8,1.8,0,0,0-1.3-.4H10.7l-0.6.4-0.4.5a1.9,1.9,0,0,0-.1.7H8.3a2.7,2.7,0,0,1,.9-2l1-.6,1.3-.2,1.2,0.2,1,0.5a2.5,2.5,0,0,1,.6.9,3.2,3.2,0,0,1,.2,1.2,2.2,2.2,0,0,1-.1.6l-0.3.6-0.5.6-0.7.4,0.8,0.4,0.5,0.6a2.2,2.2,0,0,1,.3.7,3.2,3.2,0,0,1,.1.7,3.1,3.1,0,0,1-.2,1.3,2.7,2.7,0,0,1-.7.9l-1,.6-1.3.2-1.3-.2-1-.5a2.6,2.6,0,0,1-.7-0.9,2.7,2.7,0,0,1-.3-1.2H9.5a1.9,1.9,0,0,0,.1.7l0.4,0.6,0.6,0.4h1.6l0.6-.4,0.4-.6a2.3,2.3,0,0,0,.1-0.8,2,2,0,0,0-.2-0.8l-0.4-.6-0.7-.3H10.3v-1Z"/><path class="d" d="M23.7,102.6a6,6,0,0,1-.2,1.7,3.6,3.6,0,0,1-.6,1.3,2.7,2.7,0,0,1-1,.8l-1.4.3-1.4-.3a2.7,2.7,0,0,1-1-.8,3.6,3.6,0,0,1-.7-1.3,5.9,5.9,0,0,1-.2-1.7v-2.4a6,6,0,0,1,.2-1.7,3.6,3.6,0,0,1,.6-1.3,2.7,2.7,0,0,1,1-.8,3.7,3.7,0,0,1,2.8,0,2.7,2.7,0,0,1,1,.8,3.6,3.6,0,0,1,.6,1.3,6,6,0,0,1,.2,1.7v2.4Zm-5.3-.3,4-3a2.7,2.7,0,0,0-.6-1.5,1.8,1.8,0,0,0-1.4-.5,1.7,1.7,0,0,0-1.5.7,3.5,3.5,0,0,0-.5,2v2.4Zm4-1.8-3.9,3a2.6,2.6,0,0,0,.6,1.5,1.8,1.8,0,0,0,1.4.5,1.7,1.7,0,0,0,1.5-.7,3.5,3.5,0,0,0,.5-2v-2.3Z"/></g><g class="c"><path class="d" d="M14,37.4h1.4v1.1H14v2.4H12.7V38.4H8.1V37.7l4.5-7H14v6.7Zm-4.5,0h3.2v-5l-0.2.4Z"/><path class="d" d="M23.7,36.9a6,6,0,0,1-.2,1.7,3.6,3.6,0,0,1-.6,1.3,2.7,2.7,0,0,1-1,.8,3.4,3.4,0,0,1-1.4.3L19,40.6a2.7,2.7,0,0,1-1-.8,3.6,3.6,0,0,1-.7-1.3,5.9,5.9,0,0,1-.2-1.7V34.5a6,6,0,0,1,.2-1.7,3.6,3.6,0,0,1,.6-1.3,2.7,2.7,0,0,1,1-.8,3.7,3.7,0,0,1,2.8,0,2.7,2.7,0,0,1,1,.8,3.6,3.6,0,0,1,.6,1.3,6,6,0,0,1,.2,1.7v2.4Zm-5.3-.3,4-3a2.7,2.7,0,0,0-.6-1.5,1.8,1.8,0,0,0-1.4-.5,1.7,1.7,0,0,0-1.5.7,3.5,3.5,0,0,0-.5,2v2.4Zm4-1.8-3.9,3a2.6,2.6,0,0,0,.6,1.5,1.8,1.8,0,0,0,1.4.5,1.7,1.7,0,0,0,1.5-.7,3.5,3.5,0,0,0,.5-2V34.8Z"/></g><path class="e" d="M44.9,281.7H635V120.5c-33,0-42.7-37.8-69.2-37.8s-37,56.9-62,71c-22.4,12.7-38.1,13.7-65.3-.6C402.9,134.4,401.4,31.7,373,31.7s-39.4,103-65.8,97.3c-29.3-6.3-28.3-47.7-65.4-47.7s-39.8,100-65.8,100-31-76-65.5-74.8c-22.2.7-65.6,58-65.6,58V281.7Z"/><path class="f" d="M47.7,164.5s40.6-57.2,62.8-58c34.5-1.2,39.5,74.8,65.5,74.8s28.6-100,65.8-100,36.1,41.4,65.4,47.7c26.4,5.7,37.4-97.3,65.8-97.3s29.9,102.8,65.5,121.4c27.2,14.3,42.8,13.3,65.3.6,25.1-14.1,35.5-71,62-71s36.2,37.8,69.2,37.8"/><rect class="g" x="106.5" y="102.2" width="8" height="7.99" rx="4" ry="4"/><rect class="g" x="172" y="177.5" width="8" height="7.99" rx="4" ry="4"/><rect class="g" x="43.7" y="160" width="8" height="7.99" rx="4" ry="4"/><rect class="g" x="237.6" y="77.5" width="8" height="7.99" rx="4" ry="4"/><rect class="g" x="303.3" y="124.5" width="8" height="7.99" rx="4" ry="4"/><rect class="g" x="368.7" y="27.7" width="8" height="7.99" rx="4" ry="4"/><rect class="g" x="434.3" y="148.9" width="8" height="7.99" rx="4" ry="4"/><rect class="g" x="499.8" y="149.7" width="8" height="7.99" rx="4" ry="4"/><rect class="g" x="565.4" y="78.5" width="8" height="7.99" rx="4" ry="4"/><rect class="g" x="631" y="116.5" width="8" height="7.99" rx="4" ry="4"/></svg>