<svg xmlns="http://www.w3.org/2000/svg" width="256" height="256" viewBox="0 0 256 256"><title>icon</title><path d="M238.8,137.7a10.9,10.9,0,1,0-10.7-10.9,9.9,9.9,0,0,0,.2,1.7l-22.4,9a10.4,10.4,0,0,0-15.6,3l-53.9-7a14.5,14.5,0,0,0-1.5-5.4l47-45.2A10.4,10.4,0,0,0,194,81.7l33.5,4.1a10.7,10.7,0,1,0,10.6-11.4,10.6,10.6,0,0,0-9.7,6.5l-31.2-3.8a11.5,11.5,0,0,0,.6-3.7,10.7,10.7,0,0,0-.3-2.5L223,57.6a10.3,10.3,0,0,0,7.7,3.4A10.9,10.9,0,1,0,220,50.1a11.3,11.3,0,0,0,.5,3.2L195.3,66.4a10.4,10.4,0,0,0-5.6-3.5L191.5,38a10.9,10.9,0,0,0-1.6-21.7,10.7,10.7,0,0,0-10.6,10.9,10.8,10.8,0,0,0,7.2,10.3l-1.8,25.3a11,11,0,0,0-8.2,10.6,10.4,10.4,0,0,0,1.8,6.1l-46.5,44.7a13,13,0,0,0-8.3-3,13.2,13.2,0,0,0-4.4.8L89.7,75.7A11.2,11.2,0,0,0,92.9,68a11,11,0,0,0-6.2-9.9l7.5-28.9h.3a10.7,10.7,0,0,0,10.6-10.9,10.7,10.7,0,1,0-21.3,0,11.1,11.1,0,0,0,5.6,9.6L81.8,57.1a10.7,10.7,0,0,0-9.5,6.8l-40-11.2v-.4A10.8,10.8,0,0,0,21.6,41.4,10.9,10.9,0,0,0,21,63.2l9.1,62.2a10.9,10.9,0,0,0-8.2,10.7,10.6,10.6,0,0,0,10.6,10.8,10.8,10.8,0,0,0,10.6-9.5l67.5-3.8v.8a13.3,13.3,0,0,0,2,7.1l-31.4,43a11,11,0,0,0-5.1-1.3,10.8,10.8,0,0,0-10.7,10.9,6.6,6.6,0,0,0,.1,1.4l-24.1,9.3a10.8,10.8,0,0,0-8.9-4.8,10.9,10.9,0,0,0,0,21.7,10.3,10.3,0,0,0,7.4-3l10.5,6.9a11.5,11.5,0,0,0-.6,3.7,10.7,10.7,0,1,0,10.6-10.9,10.3,10.3,0,0,0-7.3,3l-10.5-6.9a11.5,11.5,0,0,0,.6-3.7c0-.4-.1-.9-.1-1.3l24.1-9.3a10.6,10.6,0,0,0,8.9,4.8,10.8,10.8,0,0,0,10.6-10.9,11.2,11.2,0,0,0-1.8-6.1l31.2-42.8a12.6,12.6,0,0,0,7.4,2.4,12.8,12.8,0,0,0,6.4-1.8l49.9,46.8a11.3,11.3,0,0,0-1.1,4.8,11.1,11.1,0,0,0,1.3,5.2l-8.7,14.8a9.4,9.4,0,0,0-3.7-.7,10.7,10.7,0,1,0,7.8,3.5l8-13.7a11.1,11.1,0,0,0,9,1.4l5.2,10.2A10.5,10.5,0,1,0,205,215a10.6,10.6,0,0,0-3.1.5l-5.2-10.2a11.2,11.2,0,0,0,1.9-2.4l19.3,7.3a5.3,5.3,0,0,0-.1,1.3,10.7,10.7,0,1,0,10.6-10.9,10.6,10.6,0,0,0-8.9,4.9L200,198.1v-.7a10.7,10.7,0,0,0-10.6-10.8,10.9,10.9,0,0,0-6.4,2.1l-49.3-46.2a13.9,13.9,0,0,0,2.1-4l53,6.8c0,.3-.1.5-.1.8A10.8,10.8,0,0,0,199.4,157a10.1,10.1,0,0,0,4.8-1.2l14.3,15.8a10.7,10.7,0,0,0-2.4,6.9,10.7,10.7,0,1,0,10.7-10.9,10,10,0,0,0-4.3.9L208,152.6a10.9,10.9,0,0,0,1.1-11l21-8.5A10.5,10.5,0,0,0,238.8,137.7Zm-126.9-9.2-69.3,4a10.8,10.8,0,0,0-7.4-7L25.9,62.3A10.8,10.8,0,0,0,31,57.5L71.6,68.9a10.6,10.6,0,0,0,10.6,9.9,8.6,8.6,0,0,0,3.2-.5l29.4,46.3A14.2,14.2,0,0,0,111.9,128.5Z"/></svg>