<?xml version="1.0" encoding="utf-8"?>
<!-- Generator: Adobe Illustrator 22.1.0, SVG Export Plug-In . SVG Version: 6.00 Build 0)  -->
<svg version="1.1" id="Layer_1" xmlns="http://www.w3.org/2000/svg" xmlns:xlink="http://www.w3.org/1999/xlink" x="0px" y="0px"
	 viewBox="0 0 1268 418" style="enable-background:new 0 0 1268 418;" xml:space="preserve">
<style type="text/css">
	.st0{fill:#D4CAE2;}
	.st1{fill:#C6BCDA;}
	.st2{fill:#F5D2B4;}
	.st3{fill:#ACA1C6;}
	.st4{fill:#A395B9;}
	.st5{fill:#8B779D;}
	.st6{fill:#7C6190;}
	.st7{opacity:0.2;}
	.st8{fill:#0A0000;}
	.st9{font-family:'RobotoCondensed-Regular';}
	.st10{font-size:26px;}
	.st11{opacity:0.5;}
	.st12{fill:#FFFFFC;}
	.st13{fill:#F5E0D1;}
	.st14{opacity:0.4;fill:#F5E0D1;enable-background:new    ;}
	.st15{opacity:0.25;}
	.st16{opacity:0.28;}
	.st17{fill:none;stroke:#CEC4C1;stroke-miterlimit:10;}
	.st18{fill:#DBCDC6;}
	.st19{font-size:18px;}
</style>
<g id="Layer_1_1_">
	<path class="st0" d="M1266,98v7.2c0,0-53.5,2.4-98.5-6.5s-62,25.9-102,28.3c-40,2.4-56-60.7-101-61.5S920,158.1,840,162.2
		c-80,4-108-93.8-160-94.6c-32-0.5-57,25.9-100,20.2c-28.4-3.7-72.7-33.8-122.8-57c41,16.9,105.2,40.4,143.9,35.4
		c48.8-6.3,85-43.3,143.3-0.3C802.7,108.9,861,105,897,75c44.5-37,82.2-33.9,128,13.1c40.5,41.6,93.5-21.9,134-6.1
		C1198.3,97.3,1266,98,1266,98z"/>
	<path class="st1" d="M2,108.2c0,0,91.7,0.9,131.5-12.7c90-30.7,112.7-71.6,190.5-89.2C421-15.5,527.7,81,580,87.9
		c43,5.7,68-20.7,100-20.2c52,0.8,80,98.7,160,94.6c80-4,79.5-97.5,124.5-96.7s61,63.9,101,61.5c40-2.4,57-37.2,102-28.3
		s98.5,6.5,98.5,6.5v214.4c0,0-22.5,18.4-48.5,18.6c-60.5,0.4-80.2-17.7-122.2-22.6c-31.9-3.7-79.8,24.4-119.8,24.7
		c-55.5,0.4-101-45.8-137.5-67.2c-36.6-21.5-76-31.5-121,5.7c-36.8,30.4-99,85.7-192,85.7c-69.6,0-128-28.3-176.5-57.8
		c-30.1-18.3-92.5-39.3-156,9.7C150,349.1,120,333.8,89,313.6c-45.7-29.8-87,3.6-87,3.6V108.2z"/>
	<path class="st2" d="M457.2,30.8c-10.7-4.4-19.9-8.4-26.6-11.3C439.7,23,448.5,26.8,457.2,30.8z"/>
	<path class="st3" d="M2,128.3c0,0,114,30.7,222-22.7s156-92.2,268-34.8s146,14.6,188,18.6s71,72.8,144,80.1s90-17,140-19.4
		s63,0.8,137-12.9s165,15.4,165,15.4v124.6c0,0-30,25.1-82,23.5c-64-2-82-37.2-135.5-33.6c-33.9,2.3-66.5,27.1-122,21
		c-54.5-6-95.8-60.7-174-55c-72.5,5.3-147.5,117.7-254,112.4c-94.8-4.7-149.5-65.1-213-82.5c-47.9-13.1-92,10.5-141,13.8
		C95.5,280,40,239.5,2,238.7C2,178.1,2,128.3,2,128.3z"/>
	<path class="st4" d="M2,221.3v-63.1c0,0,101,8.9,158-12.1c82.4-30.4,130-92.8,217.5-94.6C455,49.8,503.4,82.6,537,100
		c183,94.6,201.4,65.9,271,82.2c156,36.7,216.1-20.4,288-28.3c71-7.8,170,20.2,170,20.2v47.2c0,0-177.7,33-238,32.4
		c-85-0.9-260.1-41.2-337.6-32.4c-73.1,8.3-121.6,72.6-254.4,66.3c-85-4-119-53.2-212-49.3c-47.1,1.9-88,9.3-158-11.3
		C19.5,213.3,2,221.3,2,221.3L2,221.3z"/>
	<path class="st5" d="M1266,201.1v20.2c0,0-177.7,33-238,32.4c-85-0.9-260.1-41.2-337.6-32.4c-73.1,8.3-121.6,72.7-254.4,66.3
		c-85-4-111.7-49.5-212-49.3c-47.2,0.1-74.6,18.3-144-3.7C15,214,2,221.3,2,221.3v-20.1c40-23.5,114,28.2,153,29.8
		s65.9-8.8,114-23.5c45-13.8,76.3-29,120-11.3c44,17.8,76,51,153,23.5s143-30.7,195-21.8c-0.9-0.2-1.8-0.4-2.6-0.5
		c34.1,5.6,70.1,13.9,104.6,16.7c60,4.9,180,22.7,277,0S1266,201.1,1266,201.1z"/>
	<path class="st6" d="M2,189.7c0,0,23-15.3,85,3.2c80.8,24.1,160.1-9.7,245-41.9c104-39.5,177,22.6,224,38.7s52-17.7,181,8.9
		c-52-8.9-118-5.6-195,21.7s-98,11.3-150-16.1c-40.9-21.5-78-9.7-123,4c-48.1,14.6-77.4,31.1-130,23.4c-66-9.7-87-49.1-137-29.7
		C2,196.9,2,189.7,2,189.7z M1089,197c-80.2,20.4-169,25.8-186.7,23.6l0.7,0.1l0,0c62.5,5.6,143.6,10.1,212.9-6
		c97-22.6,150-12.9,150-12.9V197C1266,197,1184,172.8,1089,197z"/>
	<g class="st7">
		<text transform="matrix(1 0 0 1 789.5737 134.3198)" class="st8 st9 st10">Mercury</text>
	</g>
	<g class="st7">
		<text transform="matrix(1 0 0 1 935.8945 124.6313)" class="st8 st9 st10">Venus</text>
	</g>
	<g class="st11">
		<text transform="matrix(1 0 0 1 651.4854 138.1395)" class="st12 st9 st10">Earth</text>
	</g>
	<g class="st11">
		<text transform="matrix(1 0 0 1 349.7441 105.5933)" class="st13 st9 st10">Mars</text>
	</g>
	<text transform="matrix(1 0 0 1 422.1194 194.0632)" class="st14 st9 st10">Jupiter</text>
	<g class="st15">
		<text transform="matrix(1 0 0 1 486.5276 321.2009)" class="st8 st9 st10">Uranus</text>
	</g>
	<g class="st7">
		<text transform="matrix(1 0 0 1 938.5615 319.2014)" class="st8 st9 st10">Neptune</text>
	</g>
	<g class="st16">
		<text transform="matrix(1 0 0 1 334.9287 238.1915)" class="st12 st9 st10">Saturn</text>
	</g>
	<line class="st17" x1="2.1" y1="379.4" x2="1266" y2="379.4"/>
	<g>
		<text transform="matrix(1 0 0 1 496.2317 416.0717)" class="st18 st9 st19">2014</text>
	</g>
	<g>
		<text transform="matrix(1 0 0 1 739.24 416.0717)" class="st18 st9 st19">2016</text>
	</g>
	<g>
		<text transform="matrix(1 0 0 1 253.2227 416.0717)" class="st18 st9 st19">2012</text>
	</g>
	<g>
		<text transform="matrix(1 0 0 1 982.249 416.0717)" class="st18 st9 st19">2018</text>
	</g>
	<g>
		<text transform="matrix(1 0 0 1 1225.2573 416.0717)" class="st18 st9 st19">2020</text>
	</g>
	<g>
		<text transform="matrix(1 0 0 1 10.2139 416.0717)" class="st18 st9 st19">2010</text>
	</g>
	<g>
		<line class="st17" x1="391.4" y1="388.9" x2="391.4" y2="379.4"/>
		<line class="st17" x1="634.4" y1="388.9" x2="634.4" y2="379.4"/>
		<line class="st17" x1="877.5" y1="388.9" x2="877.5" y2="379.4"/>
		<line class="st17" x1="1120.6" y1="388.9" x2="1120.6" y2="379.4"/>
		<line class="st17" x1="26.8" y1="388.9" x2="26.8" y2="379.4"/>
		<line class="st17" x1="148.3" y1="388.9" x2="148.3" y2="379.4"/>
		<line class="st17" x1="269.8" y1="388.9" x2="269.8" y2="379.4"/>
		<line class="st17" x1="512.9" y1="388.9" x2="512.9" y2="379.4"/>
		<line class="st17" x1="756" y1="388.9" x2="756" y2="379.4"/>
		<line class="st17" x1="999" y1="388.9" x2="999" y2="379.4"/>
		<line class="st17" x1="1242.1" y1="388.9" x2="1242.1" y2="379.4"/>
	</g>
</g>
<g id="Layer_2_1_">
</g>
<g id="Layer_3">
</g>
</svg>
