<?xml version="1.0" encoding="utf-8"?>
<!-- Generator: Adobe Illustrator 19.2.0, SVG Export Plug-In . SVG Version: 6.00 Build 0)  -->
<svg version="1.1" id="Layer_1" xmlns="http://www.w3.org/2000/svg" xmlns:xlink="http://www.w3.org/1999/xlink" x="0px" y="0px"
	 width="1200px" height="453px" viewBox="0 0 1200 453" enable-background="new 0 0 1200 453" xml:space="preserve">
<text transform="matrix(1 0 0 1 4.3843 271.8877)" fill="#7581BA" font-family="'Montserrat-Bold'" font-size="196.3403px">Word</text>
<g>
	<text transform="matrix(1 0 0 1 264.6309 437.8105)" fill="#7F7F7F" font-family="'Roboto-Regular'" font-size="65px">word size = word frequency</text>
</g>
<polyline fill="none" stroke="#AFAFAF" stroke-width="8" stroke-miterlimit="10" points="9.327,303.773 9.327,325 689.723,325 
	689.723,303.773 "/>
<text transform="matrix(1 0 0 1 771.4648 271.6504)" fill="#7581BA" font-family="'Montserrat-Bold'" font-size="119.5891px">Word</text>
<polyline fill="none" stroke="#AFAFAF" stroke-width="8" stroke-miterlimit="10" points="778.475,303.071 778.475,325 1192.898,325 
	1192.898,303.071 "/>
<text transform="matrix(1 0 0 1 620.4648 48.1348)" fill="#7581BA" font-family="'Montserrat-Bold'" font-size="66.0413px">Word</text>
<polyline fill="none" stroke="#AFAFAF" stroke-width="8" stroke-miterlimit="10" points="622.127,57.86 622.127,84 850.986,84 
	850.986,57.86 "/>
<line fill="none" stroke="#AFAFAF" stroke-width="8" stroke-miterlimit="10" x1="350" y1="325" x2="350" y2="362"/>
<line fill="none" stroke="#AFAFAF" stroke-width="8" stroke-miterlimit="10" x1="986" y1="325" x2="986" y2="362"/>
<line fill="none" stroke="#AFAFAF" stroke-width="8" stroke-miterlimit="10" x1="737" y1="84" x2="737" y2="362"/>
</svg>
