<?xml version="1.0" encoding="utf-8"?>
<!-- Generator: Adobe Illustrator 19.2.0, SVG Export Plug-In . SVG Version: 6.00 Build 0)  -->
<svg version="1.1" id="Layer_1" xmlns="http://www.w3.org/2000/svg" xmlns:xlink="http://www.w3.org/1999/xlink" x="0px" y="0px"
	 width="1200px" height="933px" viewBox="0 0 1200 933" enable-background="new 0 0 1200 933" xml:space="preserve">
<g>
	<path fill="#7F7F7F" d="M173.259,44.231l-3.206-0.19c-1.65,0-3.042,0.392-4.174,1.174c-1.132,0.783-2.005,1.883-2.618,3.301V73.05
		h-6.252V38.709h5.586l0.603,5.015c0.973-1.777,2.174-3.163,3.603-4.158c1.428-0.994,3.073-1.492,4.935-1.492
		c0.465,0,0.91,0.037,1.333,0.111c0.423,0.074,0.772,0.153,1.047,0.238L173.259,44.231z"/>
	<path fill="#7F7F7F" d="M192.937,73.716c-4.782,0-8.585-1.592-11.41-4.777c-2.824-3.184-4.237-7.315-4.237-12.394v-1.396
		c0-4.888,1.455-8.955,4.364-12.203s6.353-4.872,10.331-4.872c4.634,0,8.135,1.396,10.505,4.189
		c2.37,2.793,3.555,6.517,3.555,11.172v3.904h-22.28l-0.095,0.158c0.063,3.292,0.899,5.998,2.507,8.119
		c1.608,2.121,3.861,3.181,6.76,3.181c2.116,0,3.972-0.302,5.57-0.904c1.597-0.604,2.978-1.434,4.142-2.492l2.444,4.067
		c-1.228,1.214-2.846,2.225-4.856,3.035C198.227,73.312,195.793,73.716,192.937,73.716z M191.985,42.994
		c-2.095,0-3.883,0.881-5.364,2.641c-1.481,1.761-2.391,3.97-2.729,6.627l0.063,0.158h15.837v-0.822
		c0-2.446-0.656-4.492-1.968-6.137C196.513,43.816,194.566,42.994,191.985,42.994z"/>
	<path fill="#7F7F7F" d="M211.694,56.514c0-5.522,1.206-9.976,3.618-13.362c2.412-3.385,5.745-5.078,9.998-5.078
		c2.179,0,4.094,0.439,5.745,1.317s3.025,2.142,4.126,3.792l0.762-4.475h4.983V73.24c0,4.401-1.28,7.781-3.84,10.141
		c-2.561,2.359-6.252,3.539-11.077,3.539c-1.65,0-3.433-0.228-5.348-0.682c-1.915-0.456-3.602-1.074-5.062-1.857l1.587-4.856
		c1.121,0.635,2.476,1.147,4.062,1.539s3.152,0.587,4.697,0.587c3.047,0,5.263-0.693,6.649-2.079
		c1.386-1.386,2.079-3.497,2.079-6.332v-3.872c-1.122,1.439-2.465,2.523-4.031,3.253c-1.566,0.73-3.364,1.095-5.396,1.095
		c-4.211,0-7.522-1.523-9.934-4.57s-3.618-7.035-3.618-11.965V56.514z M217.947,57.181c0,3.449,0.73,6.221,2.19,8.315
		s3.682,3.142,6.665,3.142c1.883,0,3.459-0.428,4.729-1.286c1.27-0.856,2.317-2.068,3.142-3.634V47.913
		c-0.804-1.46-1.852-2.618-3.142-3.476c-1.291-0.856-2.846-1.285-4.666-1.285c-2.983,0-5.216,1.249-6.697,3.745
		c-1.481,2.497-2.222,5.703-2.222,9.617V57.181z"/>
	<path fill="#7F7F7F" d="M256.763,29.917h-6.252v-6.379h6.252V29.917z M256.763,73.05h-6.252V38.709h6.252V73.05z"/>
	<path fill="#7F7F7F" d="M264.919,55.562c0-5.078,1.375-9.262,4.126-12.552c2.75-3.29,6.485-4.936,11.204-4.936
		c4.761,0,8.521,1.64,11.283,4.919c2.761,3.28,4.142,7.469,4.142,12.568v0.698c0,5.121-1.375,9.31-4.126,12.568
		c-2.751,3.259-6.496,4.888-11.235,4.888c-4.74,0-8.49-1.634-11.251-4.904c-2.762-3.269-4.142-7.453-4.142-12.552V55.562z
		 M271.172,56.244c0,3.635,0.767,6.637,2.301,9.003c1.534,2.367,3.814,3.55,6.84,3.55c2.983,0,5.247-1.183,6.792-3.55
		c1.544-2.366,2.317-5.368,2.317-9.003v-0.697c0-3.593-0.778-6.583-2.333-8.971c-1.556-2.388-3.835-3.582-6.84-3.582
		c-2.983,0-5.242,1.194-6.776,3.582c-1.534,2.388-2.301,5.378-2.301,8.971V56.244z"/>
	<path fill="#7F7F7F" d="M308.909,38.709l0.444,5.11c1.143-1.819,2.576-3.232,4.3-4.237s3.687-1.508,5.888-1.508
		c3.703,0,6.57,1.084,8.601,3.253c2.031,2.169,3.047,5.518,3.047,10.045V73.05h-6.252V51.5c0-3.025-0.598-5.173-1.793-6.443
		c-1.196-1.27-3.021-1.904-5.475-1.904c-1.799,0-3.391,0.434-4.777,1.301c-1.386,0.868-2.491,2.053-3.316,3.555V73.05h-6.252V38.709
		H308.909z"/>
</g>
<g>
	<path fill="#7F7F7F" d="M596.182,902.224l0.54,2.412h0.19l0.603-2.412l7.903-24.216h6.379l-12.632,34.341h-4.729l-12.791-34.341
		h6.411L596.182,902.224z"/>
	<path fill="#7F7F7F" d="M638.044,912.349c-0.212-1.037-0.376-1.952-0.492-2.745c-0.116-0.794-0.185-1.592-0.206-2.396
		c-1.164,1.65-2.682,3.031-4.555,4.142c-1.872,1.111-3.888,1.667-6.046,1.667c-3.576,0-6.3-0.915-8.173-2.746
		c-1.872-1.83-2.809-4.353-2.809-7.569c0-3.279,1.328-5.845,3.983-7.696c2.655-1.852,6.257-2.777,10.807-2.777h6.792v-3.396
		c0-2.01-0.614-3.602-1.841-4.777c-1.228-1.174-2.962-1.761-5.205-1.761c-2.01,0-3.645,0.513-4.903,1.54
		c-1.259,1.026-1.889,2.259-1.889,3.697h-5.967l-0.063-0.19c-0.127-2.497,1.052-4.782,3.539-6.855
		c2.486-2.073,5.697-3.11,9.632-3.11c3.893,0,7.024,0.989,9.395,2.968c2.37,1.979,3.555,4.83,3.555,8.553v16.536
		c0,1.228,0.063,2.412,0.19,3.555s0.359,2.264,0.698,3.364H638.044z M627.666,907.747c2.264,0,4.306-0.58,6.125-1.741
		c1.819-1.16,3.004-2.489,3.555-3.988v-5.57h-7.014c-2.518,0-4.534,0.633-6.046,1.899c-1.513,1.266-2.269,2.754-2.269,4.462
		c0,1.52,0.476,2.722,1.428,3.608S625.804,907.747,627.666,907.747z"/>
	<path fill="#7F7F7F" d="M659.436,912.349h-6.252v-49.512h6.252V912.349z"/>
	<path fill="#7F7F7F" d="M690.857,907.271c-1.079,1.841-2.465,3.259-4.158,4.253c-1.693,0.994-3.65,1.492-5.872,1.492
		c-3.745,0-6.665-1.195-8.76-3.586c-2.095-2.391-3.142-6.115-3.142-11.172v-20.249h6.252v20.312c0,3.661,0.54,6.179,1.619,7.554
		c1.079,1.375,2.761,2.063,5.046,2.063c2.222,0,4.057-0.449,5.507-1.349c1.449-0.899,2.544-2.174,3.285-3.824v-24.756h6.252v34.341
		h-5.618L690.857,907.271z"/>
	<path fill="#7F7F7F" d="M720.247,913.015c-4.782,0-8.585-1.592-11.41-4.777c-2.824-3.184-4.237-7.315-4.237-12.394v-1.396
		c0-4.888,1.455-8.955,4.364-12.203s6.353-4.872,10.331-4.872c4.634,0,8.135,1.396,10.505,4.189
		c2.37,2.793,3.555,6.517,3.555,11.172v3.904h-22.28l-0.095,0.158c0.063,3.292,0.899,5.998,2.507,8.119
		c1.608,2.121,3.861,3.181,6.76,3.181c2.116,0,3.972-0.302,5.57-0.904c1.597-0.604,2.978-1.434,4.142-2.492l2.444,4.067
		c-1.228,1.214-2.846,2.225-4.856,3.035C725.536,912.61,723.103,913.015,720.247,913.015z M719.294,882.292
		c-2.095,0-3.883,0.881-5.364,2.641c-1.481,1.761-2.391,3.97-2.729,6.627l0.063,0.158h15.837v-0.822
		c0-2.446-0.656-4.492-1.968-6.137C723.822,883.115,721.875,882.292,719.294,882.292z"/>
	<path fill="#7F7F7F" d="M763.284,912.349h-6.252v-49.512h6.252V912.349z"/>
	<path fill="#7F7F7F" d="M787.151,913.015c-4.782,0-8.585-1.592-11.41-4.777c-2.824-3.184-4.237-7.315-4.237-12.394v-1.396
		c0-4.888,1.455-8.955,4.364-12.203s6.353-4.872,10.331-4.872c4.634,0,8.135,1.396,10.505,4.189
		c2.37,2.793,3.555,6.517,3.555,11.172v3.904h-22.28l-0.095,0.158c0.063,3.292,0.899,5.998,2.507,8.119
		c1.608,2.121,3.861,3.181,6.76,3.181c2.116,0,3.972-0.302,5.57-0.904c1.597-0.604,2.978-1.434,4.142-2.492l2.444,4.067
		c-1.228,1.214-2.846,2.225-4.856,3.035C792.44,912.61,790.007,913.015,787.151,913.015z M786.199,882.292
		c-2.095,0-3.883,0.881-5.364,2.641c-1.481,1.761-2.391,3.97-2.729,6.627l0.063,0.158h15.837v-0.822
		c0-2.446-0.656-4.492-1.968-6.137C790.727,883.115,788.78,882.292,786.199,882.292z"/>
	<path fill="#7F7F7F" d="M805.908,895.813c0-5.522,1.206-9.976,3.618-13.362c2.412-3.385,5.745-5.078,9.998-5.078
		c2.179,0,4.094,0.439,5.745,1.317s3.025,2.142,4.126,3.792l0.762-4.475h4.983v34.531c0,4.401-1.28,7.781-3.84,10.141
		c-2.561,2.359-6.252,3.539-11.077,3.539c-1.65,0-3.433-0.228-5.348-0.682c-1.915-0.456-3.602-1.074-5.062-1.857l1.587-4.856
		c1.121,0.635,2.476,1.147,4.062,1.539s3.152,0.587,4.697,0.587c3.047,0,5.263-0.693,6.649-2.079
		c1.386-1.386,2.079-3.497,2.079-6.332v-3.872c-1.122,1.439-2.465,2.523-4.031,3.253c-1.566,0.73-3.364,1.095-5.396,1.095
		c-4.211,0-7.522-1.523-9.934-4.57s-3.618-7.035-3.618-11.965V895.813z M812.161,896.479c0,3.449,0.73,6.221,2.19,8.315
		s3.682,3.142,6.665,3.142c1.883,0,3.459-0.428,4.729-1.286c1.27-0.856,2.317-2.068,3.142-3.634v-15.806
		c-0.804-1.46-1.852-2.618-3.142-3.476c-1.291-0.856-2.846-1.285-4.666-1.285c-2.983,0-5.216,1.249-6.697,3.745
		c-1.481,2.497-2.222,5.703-2.222,9.617V896.479z"/>
	<path fill="#7F7F7F" d="M858.467,913.015c-4.782,0-8.585-1.592-11.41-4.777c-2.824-3.184-4.237-7.315-4.237-12.394v-1.396
		c0-4.888,1.455-8.955,4.364-12.203s6.353-4.872,10.331-4.872c4.634,0,8.135,1.396,10.505,4.189
		c2.37,2.793,3.555,6.517,3.555,11.172v3.904h-22.28l-0.095,0.158c0.063,3.292,0.899,5.998,2.507,8.119
		c1.608,2.121,3.861,3.181,6.76,3.181c2.116,0,3.972-0.302,5.57-0.904c1.597-0.604,2.978-1.434,4.142-2.492l2.444,4.067
		c-1.228,1.214-2.846,2.225-4.856,3.035C863.756,912.61,861.323,913.015,858.467,913.015z M857.515,882.292
		c-2.095,0-3.883,0.881-5.364,2.641c-1.481,1.761-2.391,3.97-2.729,6.627l0.063,0.158h15.837v-0.822
		c0-2.446-0.656-4.492-1.968-6.137C862.042,883.115,860.096,882.292,857.515,882.292z"/>
	<path fill="#7F7F7F" d="M884.175,878.008l0.444,5.11c1.143-1.819,2.576-3.232,4.3-4.237s3.687-1.508,5.888-1.508
		c3.703,0,6.57,1.084,8.601,3.253c2.031,2.169,3.047,5.518,3.047,10.045v21.677h-6.252v-21.55c0-3.025-0.598-5.173-1.793-6.443
		c-1.196-1.27-3.021-1.904-5.475-1.904c-1.799,0-3.391,0.434-4.777,1.301c-1.386,0.868-2.491,2.053-3.316,3.555v25.042h-6.252
		v-34.341H884.175z"/>
	<path fill="#7F7F7F" d="M914.104,895.813c0-5.522,1.179-9.976,3.539-13.362c2.359-3.385,5.665-5.078,9.918-5.078
		c2.01,0,3.793,0.371,5.348,1.111c1.556,0.741,2.883,1.82,3.983,3.237v-18.884h6.252v49.512h-5.11l-0.73-4.221
		c-1.122,1.608-2.497,2.825-4.126,3.65c-1.629,0.825-3.523,1.238-5.681,1.238c-4.189,0-7.469-1.518-9.839-4.554
		c-2.37-3.036-3.555-7.03-3.555-11.981V895.813z M920.356,896.479c0,3.47,0.708,6.248,2.126,8.331
		c1.417,2.084,3.618,3.126,6.602,3.126c1.862,0,3.428-0.423,4.697-1.27c1.27-0.846,2.306-2.031,3.11-3.555v-16.028
		c-0.804-1.417-1.846-2.544-3.126-3.38c-1.281-0.836-2.82-1.254-4.618-1.254c-3.005,0-5.221,1.238-6.649,3.713
		c-1.428,2.476-2.142,5.692-2.142,9.648V896.479z"/>
</g>
<g>
	<rect x="2" y="856" transform="matrix(6.123234e-17 -1 1 6.123234e-17 -854 933)" fill="#C8CDEB" width="75" height="75"/>
</g>
<g>
	<rect x="114" y="856" transform="matrix(6.123234e-17 -1 1 6.123234e-17 -742 1045)" fill="#AFB8E3" width="75" height="75"/>
</g>
<g>
	<rect x="226" y="856" transform="matrix(6.123234e-17 -1 1 6.123234e-17 -630 1157)" fill="#939FD5" width="75" height="75"/>
</g>
<g>
	<rect x="338" y="856" transform="matrix(6.123234e-17 -1 1 6.123234e-17 -518 1269)" fill="#7581BA" width="75" height="75"/>
</g>
<polygon fill="#C8CDEB" points="203,444 203,357 173,357 173,328 144,328 144,235 89,235 89,264 2,264 2,439 31,439 31,526 60,526 
	60,555 89,555 89,584 232,584 232,444 "/>
<polygon fill="#C8CDEB" points="785,590 756,590 756,560 698,560 698,502 649,502 649,560 615,560 615,613 644,613 644,642 673,642 
	673,700 848,700 848,648 785,648 "/>
<polygon fill="#AFB8E3" points="639,502 639,550 556,550 556,584 475,584 475,502 533,502 533,473 581,473 581,502 "/>
<polygon fill="#7581BA" points="824,288 873,288 873,211 873,206 873,147.314 763.292,147.314 763.292,230 824,230 "/>
<polygon fill="#939FD5" points="1047,201 1047,124 989,124 989,60 906,60 906,118 883,118 883,201 "/>
<polygon fill="#AFB8E3" points="883,298 824,298 824,351.111 824,357 824,434 882,434 882,463 935,463 935,380 1022,380 1022,264 
	993,264 993,211 883,211 "/>
<polygon fill="#AFB8E3" points="872,444 766,444 766,502 708,502 708,550 766,550 766,580 795,580 795,638 848,638 848,584 877,584 
	877,555 906,555 906,473 872,473 "/>
<polygon fill="#C8CDEB" points="494,163 563,163 563,201 650,201 650,230 702,230 702,89 644,89 644,31 556,31 556,60 498,60 
	498,31 440,31 440,201 494,201 "/>
<polygon fill="#939FD5" points="552,386 551,386 504,386 499,386 436,386 436,361 387,361 387,463 446,463 446,492 469,492 475,492 
	523,492 523,463 552,463 "/>
<polygon fill="#7581BA" points="814,357 756,357 756,328 708,328 708,386 562,386 562,463 591,463 591,492 644,492 649,492 756,492 
	756,434 814,434 "/>
<polygon fill="#939FD5" points="640,211 553,211 553,173 504,173 504,201 504,206 504,376 551,376 562,376 698,376 698,318 766,318 
	766,347 814,347 814,298 814,293 814,240 640,240 "/>
<polygon fill="#939FD5" points="352.251,351 380,351 382,351 387,351 446,351 446,376 494,376 494,211 440,211 440,235 411,235 
	382,235 353,235 329,235 329,351 "/>
<polygon fill="#7581BA" points="1169,2 1138,2 1109,2 1080,2 1080,31 1051,31 1022,31 999,31 999,114 1057,114 1057,176 1081,176 
	1110,176 1139,176 1169,176 1169,147 1169,118 1169,89 1139,89 1139,60 1169,60 1198,60 1198,31 1198,2 "/>
<polygon fill="#AFB8E3" points="436,502 436,473 387,473 384,473 319,473 319,444 242,444 242,584 295,584 295,642 324,642 324,613 
	353,613 353,671 382,671 382,642 411,642 411,613 465,613 465,502 "/>
<polygon fill="#AFB8E3" points="183,318 183,347 213,347 213,434 236,434 242,434 329,434 329,463 377,463 377,361 319,361 319,235 
	154,235 154,318 "/>
<rect x="240" y="110" fill="#AFAFAF" width="8" height="94"/>
<rect x="450" y="890" fill="#AFAFAF" width="93" height="8"/>
</svg>
