<?xml version="1.0" encoding="utf-8"?>
<!-- Generator: Adobe Illustrator 19.2.0, SVG Export Plug-In . SVG Version: 6.00 Build 0)  -->
<svg version="1.1" id="Layer_1" xmlns="http://www.w3.org/2000/svg" xmlns:xlink="http://www.w3.org/1999/xlink" x="0px" y="0px"
	 width="1268px" height="558px" viewBox="0 0 1268 558" enable-background="new 0 0 1268 558" xml:space="preserve">
<polygon fill="#B3A4AE" stroke="#FFFFFF" stroke-width="2" stroke-miterlimit="10" points="572.11,11.506 572.11,15.214 
	540.779,23.69 535.13,30.047 528.627,34.105 532.736,36.934 523.83,39.763 520.41,43.291 526.573,43.291 520.41,57.064 
	513.219,64.661 518.694,71.188 521.437,69.1 522.978,72.957 522.978,82.143 513.219,93.087 486.511,106.511 453.64,113.218 
	428.987,111.099 408.781,108.63 405.699,100.589 405.699,88.15 408.781,86.73 439.937,52.646 443.491,43.037 476.064,28.988 
	539.239,17.863 "/>
<polygon fill="#908199" stroke="#FFFFFF" stroke-width="2" stroke-miterlimit="10" points="669.696,43.291 661.992,55.475 
	663.019,69.778 672.264,79.844 670.138,95.588 594.74,95.588 586.491,104.096 523.83,113.218 516.424,124.713 511.842,120.634 
	511.503,113.218 507.734,110.039 518.694,95.556 526.83,86.116 522.978,82.143 522.978,72.957 521.437,69.1 518.694,71.188 
	513.219,64.661 520.41,57.064 526.573,43.291 520.41,43.291 523.83,39.763 532.736,36.934 528.627,34.105 535.13,30.047 
	583.923,25.279 626.039,10.976 676.887,12.036 676.887,25.809 "/>
<path fill="#908199" stroke="#FFFFFF" stroke-width="2" stroke-miterlimit="10" d="M680.307,138.296l4.109,12.714l-7.191,28.246
	l-10.95,11.919l-9.42,9.716v18.626l9.42,7.067l-4.109,14.303l4.294,10.976l-4.643,1.208c0,0-0.339,7.067-1.705,7.766
	c-1.377,0.71,0,3.178,0,3.178l-3.256,4.598l-9.07-4.598l-8.814,6.219L634,267.195l2.26-7.766l-4.571-6.357h-13.693l-0.062-0.042
	l-21.859-16.56l3.77-15.532l-3.77-3.539v-4.238l-15.408-7.056h-14.032l-7.879-5.658l-9.933-9.175l-16.086-4.948l-4.736-10.87
	l1.654-0.434v-7.417l-9.245-12.004l4.448-1.059l2.743-6.007l-4.797-13.064l-3.421-8.126l-2.958-2.628l7.406-11.496l62.661-9.122
	l8.249-8.508h75.398l-0.955,7.035l7.704,14.833l9.471,17.333L680.307,138.296z"/>
<polygon fill="#908199" stroke="#FFFFFF" stroke-width="2" stroke-miterlimit="10" points="617.934,253.03 610.456,273.912 
	534.441,255.541 523.142,255.541 509.788,240.358 503.625,226.934 500.543,217.399 490.959,193.03 466.645,179.257 470.24,170.431 
	455.818,170.431 456.3,162.506 473.496,164.074 502.597,172.9 518.355,172.9 522.289,176.968 527.99,175.453 528.001,175.453 
	532.736,186.323 548.823,191.271 558.756,200.447 566.635,206.104 580.667,206.104 596.075,213.161 596.075,217.399 
	599.845,220.937 596.075,236.47 "/>
<polygon fill="#B3A4AE" stroke="#FFFFFF" stroke-width="2" stroke-miterlimit="10" points="693.322,434.247 689.213,434.247 
	693.836,443.782 680.996,443.782 674.832,445.901 647.611,415.176 642.475,418.354 645.043,423.652 623.471,409.878 
	623.214,410.164 607.035,360.431 598.818,356.024 579.218,318.846 585.125,314.173 610.456,328.826 624.498,339.241 
	629.973,335.957 636.26,353.375 640.934,354.784 634,370.327 638.191,373.145 681.684,383.391 681.684,389.398 694.01,402.112 
	697.411,412.919 695.89,416.235 699.999,422.592 705.649,421.533 708.217,425.771 701.026,429.479 704.108,437.425 709.244,441.133 
	710.785,446.431 701.026,443.252 "/>
<polygon fill="#B3A4AE" stroke="#FFFFFF" stroke-width="2" stroke-miterlimit="10" points="724.139,411.467 700.513,406.17 
	697.411,412.919 694.01,402.112 681.684,389.398 681.684,383.391 638.191,373.145 634,370.327 640.934,354.784 636.26,353.375 
	629.973,335.957 629.634,335.003 632.377,326.887 627.919,321.759 625.525,313.813 628.268,313.813 631.001,311.694 
	627.241,305.697 630.323,305.697 650.179,310.995 674.832,315.233 678.397,315.233 682.711,324.408 685.793,356.903 
	704.961,375.974 711.812,388.338 720.811,402.716 718.746,404.845 "/>
<path fill="#B3A4AE" stroke="#FFFFFF" stroke-width="2" stroke-miterlimit="10" d="M757.698,371.736l-10.272,5.298l-1.716,11.305
	l-3.441,1.24l-10.252,3.698l10.211,17.545l-4.222,4.355l-7.704-9.006l-6.163-6.887l-3.328,3.433l-8.999-14.377l-6.852-12.364
	l-19.168-19.071l-3.082-32.495l-4.314-9.175h44.027v-2.479l21.099,0.763c0.719,4.429,1.849,26.435,1.849,26.435l7.191,19.071
	L757.698,371.736z"/>
<polygon fill="#908199" stroke="#FFFFFF" stroke-width="2" stroke-miterlimit="10" points="835.079,60.773 835.079,71.368 
	830.457,73.487 803.954,127.097 781.664,134.758 763.513,138.296 751.535,138.296 712.932,130.827 723.112,70.838 716.435,28.458 
	729.275,20.512 733.384,23.69 740.575,21.571 744.17,12.036 785.259,17.863 793.99,30.047 783.718,33.226 785.259,39.583 
	800.667,40.112 804.776,34.815 818.644,38.523 "/>
<path fill="#B3A4AE" stroke="#FFFFFF" stroke-width="2" stroke-miterlimit="10" d="M916.384,398.033l-20.699,12.375l-22.26-7.236
	l-74.638-8.126l-7.191,10.245l-28.084-2.479l-21.243-13.233l3.441-1.24l1.716-11.305l10.272-5.298l-5.136-12.714l-7.191-19.071
	c0,0-1.13-22.006-1.849-26.435l43.205,1.558h0.01l4.51,0.159l27.191,4.439l0.894,0.148v8.826l21.911,9.896l14.72,15.183
	l30.139,17.302l7.191,12.714l16.775,8.836L916.384,398.033z"/>
<polygon fill="#908199" stroke="#FFFFFF" stroke-width="2" stroke-miterlimit="10" points="974.268,522.185 961.428,544.964 
	941.911,554.5 929.584,554.5 924.961,548.143 914.689,537.548 895.685,532.78 896.199,517.947 871.546,502.055 867.437,494.638 
	876.682,482.984 869.491,474.508 855.624,467.091 853.056,470.799 860.246,479.805 857.165,481.924 848.947,474.508 
	850.488,456.496 854.083,452.788 854.596,442.193 845.352,435.836 830.457,431.068 820.184,418.884 805.803,418.884 
	789.881,428.419 781.407,419.678 744.17,408.819 742.228,410.821 732.018,393.276 742.27,389.578 763.513,402.811 791.597,405.29 
	798.787,395.045 873.426,403.171 895.685,410.408 948.074,446.961 966.564,480.335 966.05,492.519 973.755,496.227 "/>
<polygon fill="#908199" stroke="#FFFFFF" stroke-width="2" stroke-miterlimit="10" points="1082.64,315.583 1069.286,335.713 
	1019.466,366.968 999.949,366.968 996.117,368.685 953.898,350.896 918.623,345.598 918.623,339.601 901.161,329.006 
	875.829,321.759 843.985,314.173 818.438,319.672 791.248,315.233 786.738,315.074 795.356,306.757 795.356,302.869 799.815,300.4 
	809.399,302.159 824.119,289.805 824.119,284.857 839.876,284.857 846.718,278.5 846.718,274.241 885.074,278.5 962.794,293.333 
	997.042,306.757 1026.482,306.757 1064.664,308.696 1080.586,310.815 "/>
<polygon fill="#B3A4AE" stroke="#FFFFFF" stroke-width="2" stroke-miterlimit="10" points="956.292,386.569 917.257,386.569 
	921.366,395.045 916.384,398.033 910.067,392.576 893.292,383.74 886.102,371.026 855.963,353.725 841.243,338.542 819.332,328.646 
	819.332,319.821 818.438,319.672 843.985,314.173 875.829,321.759 901.161,329.006 918.623,339.601 918.623,345.598 
	953.898,350.896 996.117,368.685 "/>
<polygon fill="#908199" stroke="#FFFFFF" stroke-width="2" stroke-miterlimit="10" points="1063.123,302.869 1064.664,308.696 
	1026.482,306.757 997.042,306.757 962.794,293.333 885.074,278.5 846.718,274.241 821.386,271.433 796.733,278.5 796.589,278.489 
	798.87,269.494 833.056,256.865 833.282,256.78 844.581,259.694 852.974,257.84 860.76,261.283 867.827,254.004 881.048,254.004 
	884.129,236.915 892.604,236.915 896.199,230.822 911.946,222.346 917.771,207.513 917.771,200.892 948.331,204.335 
	959.373,208.573 960.914,217.049 984.54,225.79 1014.073,238.239 1009.194,249.364 1004.571,256.25 997.894,254.926 
	994.299,261.018 1006.369,269.759 1027.17,269.759 1029.995,275.586 1071.968,290.388 "/>
<polygon fill="#908199" stroke="#FFFFFF" stroke-width="2" stroke-miterlimit="10" points="1112.43,270.55 1111.4,281.15 
	1102.61,287.51 1095.48,282.74 1079.86,277.68 1086.24,272.14 1058,250.25 1052.75,254.79 1071.8,278.33 1072.88,289.1 
	1071.97,290.39 1030,275.59 1027.17,269.76 1006.37,269.76 994.3,261.02 997.89,254.93 1004.57,256.25 1009.19,249.36 
	1014.07,238.24 984.54,225.79 960.91,217.05 959.37,208.57 948.33,204.33 917.77,200.89 912.07,193.41 916.49,189.77 942.94,183.94 
	976.07,188.97 1004.31,200.89 1047.46,216.78 1049.77,211.49 1064.66,217.05 1074.94,240.89 "/>
<polygon fill="#DACEC9" stroke="#FFFFFF" stroke-width="2" stroke-miterlimit="10" points="917.77,200.89 917.77,207.51 
	911.95,222.35 896.2,230.82 892.6,236.91 884.13,236.91 881.05,254 867.83,254 860.76,261.28 852.97,257.84 844.58,259.69 
	833.28,256.78 833.06,256.87 829.94,247.12 832,240.62 833.21,239.34 856.91,214.4 861.02,190.83 875.65,158.51 875.65,158.48 
	879.76,160.37 876.29,183.41 887.72,196.39 895.94,206.72 912.07,193.41 "/>
<polygon fill="#B3A4AE" stroke="#FFFFFF" stroke-width="2" stroke-miterlimit="10" points="1157.114,238.239 1124.757,263.667 
	1121.675,260.488 1091.885,249.364 1080.586,240.358 1074.936,240.888 1064.664,217.049 1071.341,215.195 1080.329,215.195 
	1084.438,211.487 1107.037,205.659 1087.263,192.416 1079.045,186.059 1070.827,177.583 1064.664,177.583 1056.96,170.431 
	1054.258,163.682 1048.999,158.247 1041.551,155.863 1035.388,143.678 1036.158,132.819 1029.225,121.429 1036.415,114.012 
	1035.388,106.066 1040.658,100.642 1127.325,154.274 1135.255,173.737 1129.893,177.318 1125.784,195.329 1144.274,206.984 
	1156.601,222.346 1153.519,231.882 "/>
<polygon fill="#B3A4AE" stroke="#FFFFFF" stroke-width="2" stroke-miterlimit="10" points="1229.02,170.431 1224.397,179.437 
	1218.748,179.966 1173.036,156.657 1146.842,159.836 1145.373,161.923 1135.286,147.917 1139.395,144.473 1097.021,83.552 
	1097.021,83.16 1192.04,114.542 1213.868,118.515 1221.059,123.813 1225.353,137.65 1224.397,145.533 1223.884,153.479 "/>
<polygon fill="#B3A4AE" stroke="#FFFFFF" stroke-width="2" stroke-miterlimit="10" points="1265,148.711 1255.769,152.949 
	1246.483,169.371 1238.779,154.009 1225.425,137.057 1225.353,137.65 1221.059,123.813 1213.868,118.515 1192.04,114.542 
	1097.021,83.16 1097.021,56.789 1125.013,58.918 1205.907,77.989 1227.572,75.415 1227.479,76.135 1236.724,94.677 
	1232.102,106.861 1249.564,114.277 1258.296,128.051 1255.769,133.348 1264.486,140.235 "/>
<polygon fill="#DACEC9" stroke="#FFFFFF" stroke-width="2" stroke-miterlimit="10" points="1228.239,70.043 1227.572,75.415 
	1205.907,77.989 1125.013,58.918 1125.013,55.475 1118.85,52.297 1121.932,37.464 1141.449,30.842 1143.503,26.869 1160.453,26.869 
	1164.603,22.588 1181.85,22.302 1179.713,26.869 1179.713,34.55 1205.137,57.064 1211.3,55.74 1220.545,68.719 "/>
<polygon fill="#F3D0AA" stroke="#FFFFFF" stroke-width="2" stroke-miterlimit="10" points="1164.603,22.588 1160.453,26.869 
	1143.503,26.869 1141.449,30.842 1121.932,37.464 1118.85,52.297 1125.013,55.475 1125.013,58.918 1097.021,56.789 1097.021,55.74 
	1090.345,36.934 1087.263,33.755 1087.263,28.458 1095.738,25.014 1098.141,18.816 1119.62,18.393 1162.25,22.631 "/>
<polygon fill="#B3A4AE" stroke="#FFFFFF" stroke-width="2" stroke-miterlimit="10" points="769.676,231.172 739.208,231.172 
	736.805,240.888 726.193,243.536 726.193,253.072 713.179,250.953 707.703,247.118 699.825,247.118 693.661,253.072 
	688.525,253.072 684.416,256.6 674.062,249.893 666.46,251.864 662.167,240.888 666.275,226.584 656.856,219.518 656.856,200.892 
	666.275,191.176 677.226,179.257 684.416,151.01 680.307,138.296 686.358,134.789 692.809,146.592 712.932,130.827 712.932,130.827 
	751.535,138.296 751.72,138.296 757.698,176.968 759.753,202.566 761.807,220.227 763.728,220.439 761.633,222.876 "/>
<polygon fill="#908199" stroke="#FFFFFF" stroke-width="2" stroke-miterlimit="10" points="879.763,121.694 879.763,135.732 
	875.655,158.48 875.655,158.512 861.017,190.826 856.908,214.4 833.21,239.341 823.184,232.327 817.103,238.589 808.371,238.589 
	806.656,234.351 793.99,231.882 781.664,219.878 774.473,221.637 763.728,220.439 761.807,220.227 759.753,202.566 757.698,176.968 
	751.72,138.296 763.513,138.296 781.664,134.758 803.954,127.097 803.749,127.521 813.508,138.116 827.375,134.938 838.161,121.164 
	847.92,121.164 862.814,103.682 873.128,102.093 "/>
<path fill="#B3A4AE" stroke="#FFFFFF" stroke-width="2" stroke-miterlimit="10" d="M829.943,247.118l3.112,9.747l-34.186,12.629
	l-2.28,8.995l-49.512-4.577l-47.252,9.175h-38.007l-22.455-10.034l1.572-1.621l-1.962-1.197l8.814-6.219l9.07,4.598l3.256-4.598
	c0,0-1.377-2.469,0-3.178c1.366-0.699,1.705-7.766,1.705-7.766l4.643-1.208l7.601-1.971l10.354,6.707l4.109-3.528h5.136l6.163-5.954
	h7.879l5.475,3.835l13.015,2.119v-9.536l10.611-2.649l2.404-9.716h30.467l-8.043-8.296l2.096-2.437l10.745,1.197l7.191-1.759
	l12.327,12.004l12.666,2.469l1.715,4.238h8.731l6.081-6.262l10.026,7.014l-1.212,1.282L829.943,247.118z"/>
<polygon fill="#908199" stroke="#FFFFFF" stroke-width="2" stroke-miterlimit="10" points="1107.04,205.66 1084.44,211.49 
	1080.33,215.19 1071.34,215.19 1064.66,217.05 1049.77,211.49 1047.46,216.78 1004.31,200.89 976.07,188.97 942.94,183.94 
	916.49,189.77 912.07,193.41 895.94,206.72 887.72,196.39 876.29,183.41 879.76,160.37 875.65,158.48 879.76,135.73 879.76,121.69 
	873.13,102.09 886.95,99.97 889.45,97.94 907.76,111.1 928.81,111.1 958.09,103.42 1013.82,80.37 1023.57,83.55 1023.57,90.17 
	1037.44,98.65 1040.66,100.64 1035.39,106.07 1036.42,114.01 1029.22,121.43 1036.16,132.82 1035.39,143.68 1041.55,155.86 
	1049,158.25 1054.26,163.68 1056.96,170.43 1064.66,177.58 1070.83,177.58 1079.05,186.06 1087.26,192.42 "/>
<polygon fill="#908199" stroke="#FFFFFF" stroke-width="2" stroke-miterlimit="10" points="1145.373,161.923 1138.624,171.49 
	1135.255,173.737 1127.325,154.274 1040.658,100.642 1037.443,98.65 1023.575,90.174 1023.575,83.552 1013.816,80.373 
	958.089,103.417 928.813,111.099 907.755,111.099 889.45,97.94 918.798,74.016 918.798,56.535 911.607,53.356 912.121,49.118 
	931.638,42.231 971.7,43.291 998.922,46.999 1040.011,19.982 1098.141,18.816 1095.738,25.014 1087.263,28.458 1087.263,33.755 
	1090.345,36.934 1097.021,55.74 1097.021,83.552 1139.395,144.473 1135.286,147.917 "/>
<polygon fill="#DACEC9" stroke="#FFFFFF" stroke-width="2" stroke-miterlimit="10" points="1255.769,49.118 1240.319,41.702 
	1243.401,50.707 1235.697,53.356 1226.965,50.707 1225.425,57.064 1229.534,59.713 1228.239,70.043 1220.545,68.719 1211.3,55.74 
	1205.137,57.064 1179.713,34.55 1179.713,26.869 1181.85,22.302 1193.581,22.101 1202.312,18.393 1202.312,3.5 1207.962,3.5 
	1213.612,7.738 1223.884,3.5 1234.156,13.095 1237.238,25.809 1264,46.999 "/>
<g id="Layer_2">
	<g>
		<g>
		</g>
		<g>
		</g>
		<g>
		</g>
	</g>
</g>
<polygon fill="#776788" stroke="#FFFFFF" stroke-width="2" stroke-miterlimit="10" points="287.671,211.963 281.919,214.93 
	285.514,243.007 261.374,315.583 263.942,324.588 253.763,333.668 253.67,333.594 195.632,364.32 190.496,357.963 194.091,338.892 
	166.87,309.755 151.975,316.112 151.975,302.869 119.104,308.696 116.022,295.982 90.341,301.279 62.093,257.84 62.093,232.941 
	72.879,208.043 52.848,196.918 52.848,186.323 45.143,174.669 79.555,142.354 77.367,140.807 110.886,138.116 186.9,135.467 
	218.231,141.824 225.103,143.583 240.778,147.599 248.02,141.538 245.452,162.485 275.755,197.448 288.082,211.751 "/>
<polygon fill="#908199" stroke="#FFFFFF" stroke-width="2" stroke-miterlimit="10" points="244.086,103.682 223.192,100.154 
	217.378,101.913 210.527,101.913 176.371,89.559 136.227,87.79 87.599,76.485 76.299,63.771 61.579,59.183 17.768,53.939 
	18.949,52.826 18.436,43.821 7.393,32.431 7.393,26.339 2,20.512 2,13.095 17.922,13.095 55.416,20.512 54.388,27.398 
	36.926,36.404 44.116,44.35 87.26,42.761 85.719,26.869 95.991,23.16 93.937,18.922 71.338,2.5 104.722,7.798 201.138,44.085 
	208.133,66.25 223.542,88.14 "/>
<polygon fill="#DACEC9" stroke="#FFFFFF" stroke-width="2" stroke-miterlimit="10" points="271.472,102.623 264.281,106.511 
	244.086,103.682 223.542,88.14 208.133,66.25 201.138,44.085 218.744,50.707 238.344,57.34 251.955,69.778 263.603,87.79 "/>
<polygon fill="#DACEC9" stroke="#FFFFFF" stroke-width="2" stroke-miterlimit="10" points="355.622,80.924 351.595,92.028 
	349.89,104.096 349.562,106.395 349.541,106.511 319.751,113.218 303.316,108.98 298.098,111.671 295.098,113.218 272.848,113.218 
	271.472,102.623 263.603,87.79 251.955,69.778 238.344,57.34 315.817,83.552 350.743,83.022 "/>
<polygon fill="#B3A4AE" stroke="#FFFFFF" stroke-width="2" stroke-miterlimit="10" points="340.645,302.159 342.145,307.975 
	339.443,311.874 318.385,332.005 285,343.659 269.078,345.249 253.763,333.668 263.942,324.588 261.374,315.583 285.514,243.007 
	281.919,214.93 287.671,211.963 317.861,225.525 345.781,285.917 "/>
<polygon fill="#776788" stroke="#FFFFFF" stroke-width="2" stroke-miterlimit="10" points="623.214,410.164 614.226,419.943 
	608.063,411.997 603.697,416.5 603.697,425.771 607.549,432.128 598.818,445.901 593.681,455.437 575.705,460.734 543.347,457.026 
	524.857,476.627 534.616,495.168 540.779,501.525 537.954,504.439 520.748,495.168 495.581,482.984 482.741,462.323 
	440.625,418.354 403.131,350.016 394.913,346.308 392.345,355.314 384.128,328.826 366.12,308.961 368.38,306.757 380.358,315.932 
	385.494,312.754 376.937,288.036 375.222,251.663 378.724,245.783 392.684,249.893 399.536,271.433 423.85,271.433 489.932,278.5 
	523.142,293.333 537.184,300.04 558.068,308.696 565.135,309.819 569.716,315.932 578.612,317.702 579.218,318.846 598.818,356.024 
	607.035,360.431 "/>
<polygon fill="#B3A4AE" stroke="#FFFFFF" stroke-width="2" stroke-miterlimit="10" points="388.576,218.108 382.761,227.994 
	384.169,234.7 364.271,246.365 317.861,225.525 314.276,217.759 314.276,165.843 317.738,144.738 318.385,140.765 332.766,129.555 
	364.271,129.99 377.964,145.003 385.843,170.081 385.925,170.664 388.576,190.561 "/>
<polygon fill="#908199" stroke="#FFFFFF" stroke-width="2" stroke-miterlimit="10" points="235.519,119.225 223.192,135.467 
	225.103,143.583 218.231,141.824 186.9,135.467 110.886,138.116 77.367,140.807 28.708,106.331 12.786,83.022 12.786,58.654 
	17.768,53.939 61.579,59.183 76.299,63.771 87.599,76.485 136.227,87.79 176.371,89.559 210.527,101.913 217.378,101.913 
	223.192,100.154 244.086,103.682 "/>
<polygon fill="#DACEC9" stroke="#FFFFFF" stroke-width="2" stroke-miterlimit="10" points="443.491,43.037 439.937,52.646 
	408.781,86.73 405.699,88.15 371.113,104.096 349.89,104.096 351.595,92.028 355.622,80.924 "/>
<polygon fill="#F3D0AA" stroke="#FFFFFF" stroke-width="2" stroke-miterlimit="10" points="412.808,119.289 398.334,117.806 
	388.576,122.404 368.38,119.925 361,119.925 349.562,106.395 349.89,104.096 371.113,104.096 405.699,88.15 405.699,100.589 
	408.781,108.63 "/>
<polygon fill="#B3A4AE" stroke="#FFFFFF" stroke-width="2" stroke-miterlimit="10" points="529.655,167.602 529.655,175.019 
	528.001,175.453 527.99,175.453 522.289,176.968 518.355,172.9 502.597,172.9 473.496,164.074 456.3,162.506 450.209,161.955 
	443.707,146.062 433.434,132.289 414.256,123.103 412.808,119.289 408.781,108.63 428.987,111.099 453.64,113.218 486.511,106.511 
	513.219,93.087 522.978,82.143 526.83,86.116 518.694,95.556 507.734,110.039 511.503,113.218 511.842,120.634 516.424,124.713 
	519.382,127.341 522.803,135.467 527.6,148.531 524.857,154.538 520.41,155.598 "/>
<polygon fill="#B3A4AE" stroke="#FFFFFF" stroke-width="2" stroke-miterlimit="10" points="640.934,271.433 639.362,273.054 
	632.377,280.269 623.81,290.864 629.634,296.861 630.323,305.697 627.241,305.697 631.001,311.694 628.268,313.813 625.525,313.813 
	627.919,321.759 632.377,326.887 629.634,335.003 629.973,335.957 624.498,339.241 610.456,328.826 585.125,314.173 
	579.218,318.846 578.612,317.702 569.716,315.932 565.135,309.819 546.429,284.857 523.142,255.541 534.441,255.541 
	610.456,273.912 617.934,253.03 617.996,253.072 631.689,253.072 636.26,259.429 634,267.195 638.972,270.236 "/>
<line fill="#DA1C5C" stroke="#FFFFFF" stroke-width="2" stroke-miterlimit="10" x1="527.99" y1="175.453" x2="526.727" y2="172.55"/>
<line fill="#DA1C5C" stroke="#FFFFFF" stroke-width="2" stroke-miterlimit="10" x1="678.397" y1="315.233" x2="677.226" y2="312.754"/>
<path fill="#DA1C5C" stroke="#FFFFFF" stroke-width="2" stroke-miterlimit="10" d="M743.523,313.517
	c-0.072-0.456-0.144-0.731-0.205-0.763"/>
<line fill="#DA1C5C" stroke="#FFFFFF" stroke-width="2" stroke-miterlimit="10" x1="846.718" y1="274.241" x2="846.718" y2="273.912"/>
<polygon fill="#B3A4AE" stroke="#FFFFFF" stroke-width="2" stroke-miterlimit="10" points="846.718,274.241 846.718,278.5 
	839.876,284.857 824.119,284.857 824.119,289.805 809.399,302.159 799.815,300.4 795.356,302.869 795.356,306.757 786.738,315.074 
	786.728,315.074 743.523,313.516 722.424,312.754 722.424,315.233 674.832,315.233 650.179,310.995 630.323,305.697 
	629.634,296.861 623.81,290.864 632.377,280.269 639.362,273.054 661.817,283.088 699.825,283.088 747.077,273.912 796.589,278.489 
	796.733,278.5 821.386,271.433 "/>
<line fill="#DA1C5C" stroke="#FFFFFF" stroke-width="2" stroke-miterlimit="10" x1="833.538" y1="258.369" x2="833.056" y2="256.865"/>
<path fill="#DACEC9" stroke="#FFFFFF" stroke-width="2" stroke-miterlimit="10" d="M308.791,129.492l-27.386-1.791l-33.385,13.837
	l-7.242,6.06l-15.675-4.016l-1.911-8.116l12.327-16.242l8.567-15.543l20.195,2.829l7.191-3.888l1.377,10.595h22.25l2.999-1.547
	c3.431,4.132,10.354,13.911,10.354,13.911L308.791,129.492z"/>
<line fill="#DA1C5C" stroke="#FFFFFF" stroke-width="2" stroke-miterlimit="10" x1="309.828" y1="129.555" x2="308.791" y2="129.492"/>
<polygon fill="#B3A4AE" stroke="#FFFFFF" stroke-width="2" stroke-miterlimit="10" points="287.671,211.963 288.082,211.751 
	275.755,197.448 245.452,162.485 248.02,141.538 281.405,127.701 308.791,129.492 309.828,141.475 317.738,144.738 314.276,165.843 
	314.276,217.759 317.861,225.525 "/>
<polygon fill="#DACEC9" stroke="#FFFFFF" stroke-width="2" stroke-miterlimit="10" points="385.494,312.754 380.358,315.932 
	368.38,306.757 366.12,308.961 362.042,304.458 344.579,304.458 342.145,307.975 340.645,302.159 345.781,285.917 317.861,225.525 
	364.271,246.365 384.169,234.7 384.467,236.12 378.724,245.783 375.222,251.663 376.937,288.036 "/>
<polygon fill="#B3A4AE" stroke="#FFFFFF" stroke-width="2" stroke-miterlimit="10" points="509.788,240.358 482.741,231.532 
	439.598,226.235 396.793,227.294 384.169,234.7 382.761,227.994 388.576,218.108 388.576,190.561 385.925,170.664 416.311,176.968 
	453.64,170.431 470.24,170.431 466.645,179.257 490.959,193.03 500.543,217.399 503.625,226.934 "/>
<path fill="#F3D0AA" stroke="#FFFFFF" stroke-width="2" stroke-miterlimit="10" d="M364.271,125.582v4.408l-31.505-0.435
	l-14.381,11.21l-0.647,3.973l-7.91-3.263l-1.038-11.983l-0.339-3.91c0,0-6.923-9.779-10.354-13.911l5.218-2.691l16.436,4.238
	l29.79-6.707l0.021-0.116L361,119.925L364.271,125.582z"/>
<polygon fill="#B3A4AE" stroke="#FFFFFF" stroke-width="2" stroke-miterlimit="10" points="565.135,309.819 558.068,308.696 
	537.184,300.04 523.142,293.333 489.932,278.5 423.85,271.433 399.536,271.433 392.684,249.893 378.724,245.783 384.467,236.12 
	384.169,234.7 396.793,227.294 439.598,226.235 482.741,231.532 509.788,240.358 523.142,255.541 546.429,284.857 "/>
<polygon fill="#DACEC9" stroke="#FFFFFF" stroke-width="2" stroke-miterlimit="10" points="456.3,162.506 455.818,170.431 
	453.64,170.431 416.311,176.968 385.925,170.664 385.843,170.081 377.964,145.003 364.271,129.99 364.271,125.582 361,119.925 
	368.38,119.925 388.576,122.404 398.334,117.806 412.808,119.289 414.256,123.103 433.434,132.289 443.707,146.062 450.209,161.955 
	"/>
</svg>
