<svg enable-background="new 0 0 256 221" height="221" viewBox="0 0 256 221" width="256" xmlns="http://www.w3.org/2000/svg"><path d="m88.625 218.781h-47.25v-15.75h-35.437v-15.75h15.75v-23.625h-19.688v-19.688h59.063v-35.438h15.75v-15.75h29.531v88.594h-17.719zm27.563-112.218v-37.407h39.375v-19.687h43.313v33.469h-63v23.625zm0 17.718v-7.875h29.531v-23.625h53.156v15.75h31.5v-15.75h23.625v31.5zm19.687 57.094h-19.688v-47.25h49.219v33.469h-29.531zm39.375-47.25h35.438v33.469h-35.438zm-59.062 57.094h39.375v11.813h-39.375zm59.062-161.438h13.781v9.844h-13.781zm0-27.562v17.719h23.625v19.688h15.75v-37.407z"/></svg>