<svg height="256" viewBox="0 0 256 256" width="256" xmlns="http://www.w3.org/2000/svg"><path d="m253.8 253.9h-252v-252h11.8v240.2h240.2z"/><path d="m253.7 236.1-.3-34.4-10.7-31.3-38-37.7-17 8-17.3-6.9-35.9 45.2-39 20.6-35.1-28.8-41.1 14.1v51.2z" opacity=".75"/><path d="m254 195.8-11.3-29.9-36.5-37.4-18.5 7.6-17.7-6.9-36 45.2-39 20.6-35-28.8-41.2 14 .5-25 21.2-1 19.8-8.6 34.9-23.1 20.2 2 20 13.3 18.4-42.7 16.2-19.6 18 4.6 16.2 16.1 19.7 4.2 17.8 14.8 12 40.2" opacity=".5"/><path d="m254 107.1-11.3-40-18.8-17-19.4 1.6-12.6-21-19.6-3.7-18.5 32-18.9 17.4-19.5-9.9-20.2 5.8-17 13.4-17.9 28.6-19.8 12-21.1 3.8v20.9l21.2-.9 19.8-8.6 34.9-23.2 20.2 2.8 18.5 11.1 19.8-45.4 16.2-16.9 17.9 5.8 16.3 16.3 19.7 5.3 18.8 13.5 11 35.3"/></svg>