<?xml version="1.0" encoding="utf-8"?>
<!-- Generator: Adobe Illustrator 19.2.0, SVG Export Plug-In . SVG Version: 6.00 Build 0)  -->
<svg version="1.1" id="Layer_1" xmlns="http://www.w3.org/2000/svg" xmlns:xlink="http://www.w3.org/1999/xlink" x="0px" y="0px"
	 width="1200px" height="1364px" viewBox="0 0 1200 1364" enable-background="new 0 0 1200 1364" xml:space="preserve">
<polygon fill="#FFFFFF" stroke="#AFB8E3" stroke-width="22.6392" stroke-miterlimit="10" points="464.703,549.355 454.772,627.045 
	386.967,645.243 363.272,703.672 290.525,711.386 264.058,668.384 191.311,676.097 173.667,637.53 138.379,612.172 94.314,479.887 
	117.039,434.23 146.566,431.262 189.094,414.853 239.809,421.458 281.703,447.924 370.662,401.32 444.056,428.387 440.731,525.337 
	"/>
<polygon fill="#FFFFFF" stroke="#AFB8E3" stroke-width="22.6392" stroke-miterlimit="10" points="1160.307,787.459 1127.236,820.53 
	1127.236,854.71 1085.342,942.884 1035.735,979.281 1035.735,1027.779 938.739,1172.166 885.807,1174.383 842.805,1141.311 
	851.627,1017.294 823.498,989.165 861.558,919.744 849.964,822.193 921.972,728.614 922.019,728.614 950.84,691.109 
	1028.576,696.513 1099.661,724.596 "/>
<polygon fill="#FFFFFF" stroke="#AFB8E3" stroke-width="22.6392" stroke-miterlimit="10" points="921.972,728.614 849.964,822.193 
	823.498,810.599 802.02,822.193 749.088,799.006 749.088,772.586 699.481,713.049 663.13,719.654 650.874,739.891 570.752,764.087 
	497.774,691.109 497.774,666.721 454.772,627.045 464.703,549.355 440.731,525.337 444.056,428.387 472.416,372.96 535.787,328.573 
	538.559,303.492 577.127,183.355 621.237,181.138 651.675,175.364 677.449,213.1 758.5,274.5 714.4,407.14 732.552,455.084 
	714.4,496.423 820.218,597.299 861.558,681.64 "/>
<polygon fill="#FFFFFF" stroke="#AFB8E3" stroke-width="22.6392" stroke-miterlimit="10" points="861.558,919.744 823.498,989.165 
	851.627,1017.294 842.805,1141.311 776.662,1132.49 748.025,1208.562 680.774,1199.74 653.199,1239.417 577.127,1223.99 
	581.56,1153.413 548.489,1135.815 520.915,1090.596 490.06,1106.023 406.274,1090.596 389.738,967.133 365.489,929.674 
	362.163,872.308 378.699,854.71 346.737,812.816 387.521,749.953 363.272,703.672 386.967,645.243 454.772,627.045 497.774,666.721 
	497.774,691.109 570.752,764.087 650.874,739.891 663.13,719.654 699.481,713.049 749.088,772.586 749.088,799.006 802.02,822.193 
	823.498,810.599 849.964,822.193 "/>
<polygon fill="#FFFFFF" stroke="#AFB8E3" stroke-width="22.6392" stroke-miterlimit="10" points="1149.822,505.799 
	1118.414,537.208 1145.942,592.311 1099.661,724.596 1028.576,696.513 950.84,691.109 922.019,728.614 921.972,728.614 
	861.558,681.64 820.218,597.299 714.4,496.423 732.552,455.084 714.4,407.14 758.5,274.5 800.912,291.391 828.486,280.351 
	926.591,280.351 969.593,291.391 1035.735,363.029 1058.876,351.99 1159.198,353.099 1183.658,388.387 1144.88,456.747 "/>
<g>
	<text transform="matrix(1 0 0 1 237.418 65.4766)" fill="#7F7F7F" font-family="'Roboto-Regular'" font-size="65px">map / geographic region</text>
</g>
<g>
	<text transform="matrix(1 0 0 1 0.6562 817.7773)" fill="#7F7F7F" font-family="'Roboto-Regular'" font-size="65px">origin</text>
</g>
<g>
	<text transform="matrix(1 0 0 1 0.6562 1362.043)" fill="#7F7F7F" font-family="'Roboto-Regular'" font-size="65px">arrow thickness = amount</text>
</g>
<g>
	<text transform="matrix(1 0 0 1 0.6562 998.4727)" fill="#7F7F7F" font-family="'Roboto-Regular'" font-size="65px">flow line</text>
</g>
<polyline fill="none" stroke="#AFAFAF" stroke-width="8" stroke-miterlimit="10" points="88,175 88,101 1172,101 1172,174 "/>
<g>
	<g>
		
			<line fill="none" stroke="#7581BA" stroke-width="45.2783" stroke-miterlimit="10" x1="518.088" y1="797.965" x2="937.719" y2="868.464"/>
		<g>
			<polygon fill="#7581BA" points="905.927,934.094 1037.055,885.153 929.119,796.049 			"/>
		</g>
	</g>
</g>
<g>
	<g>
		
			<line fill="none" stroke="#7581BA" stroke-width="67.9175" stroke-miterlimit="10" x1="799.232" y1="485.893" x2="531.138" y2="797.202"/>
		<g>
			<polygon fill="#7581BA" points="709.274,445.039 888.286,382.485 852.979,568.796 			"/>
		</g>
	</g>
</g>
<g>
	<g>
		<path fill="none" stroke="#7581BA" stroke-width="28.299" stroke-miterlimit="10" d="M534,801
			c0,0-119.078-146.296-178.075-218.334"/>
		<g>
			<polygon fill="#7581BA" points="389.677,568.2 323.585,543.53 335.257,613.104 			"/>
		</g>
	</g>
</g>
<circle fill="#464A90" cx="531.137" cy="797.202" r="37.854"/>
<line fill="none" stroke="#AFAFAF" stroke-width="8" stroke-miterlimit="10" x1="179" y1="801" x2="467" y2="801"/>
<polyline fill="none" stroke="#AFAFAF" stroke-width="8" stroke-miterlimit="10" points="640.214,863.924 521.138,983 263,983 "/>
</svg>
