<?xml version="1.0" encoding="utf-8"?>
<!-- Generator: Adobe Illustrator 19.2.0, SVG Export Plug-In . SVG Version: 6.00 Build 0)  -->
<svg version="1.1" id="Layer_1" xmlns="http://www.w3.org/2000/svg" xmlns:xlink="http://www.w3.org/1999/xlink" x="0px" y="0px"
	 width="1268px" height="558px" viewBox="0 0 1268 558" enable-background="new 0 0 1268 558" xml:space="preserve">
<g id="Layer_2">
</g>
<g>
	<polygon fill="#EBE0D4" points="547.525,31.893 551.138,29.922 549.824,29.101 544.733,30.579 	"/>
	<polygon fill="#EBE0D4" points="518.618,89.05 517.304,90.857 526.009,89.543 524.859,87.079 	"/>
	<polygon fill="#EBE0D4" points="441.586,96.113 441.915,94.306 437.973,92.171 432.717,91.185 432.553,94.963 437.645,96.441 	"/>
	<polygon fill="#EBE0D4" points="532.578,95.127 535.206,92.664 531.593,92.664 526.009,90.857 519.767,93.32 517.796,92.664 
		521.574,90.528 516.811,91.185 517.796,88.229 525.187,86.422 524.202,84.287 529.294,87.079 532.25,90.693 537.998,90.2 
		537.013,85.929 533.071,83.466 534.878,82.316 528.472,79.195 526.994,75.582 528.472,76.403 531.1,76.732 528.637,76.732 
		529.458,78.538 535.699,81.002 536.52,79.36 533.4,77.06 536.685,77.717 533.564,75.582 528.637,73.118 524.695,74.596 
		525.023,74.761 523.381,74.268 530.115,72.133 535.371,74.268 537.834,72.79 540.955,72.954 538.655,69.176 544.733,68.027 
		547.689,63.428 550.974,63.264 544.733,60.8 542.926,55.38 537.342,55.38 537.342,52.752 541.119,50.781 545.718,51.602 
		546.704,53.737 548.018,49.138 541.283,47.824 540.134,46.018 544.733,47.003 549.331,46.182 544.733,45.525 544.733,44.375 
		537.834,44.375 541.283,37.806 544.568,38.791 542.926,36.656 546.047,35.835 544.076,34.028 545.225,31.728 541.612,30.579 
		546.539,28.936 553.93,28.115 555.901,26.801 551.959,24.83 557.215,24.994 560.664,24.009 559.843,22.531 563.621,22.202 
		569.862,18.917 567.891,17.603 561.814,16.289 555.901,16.125 551.959,18.096 547.032,16.289 536.52,22.202 532.907,23.023 
		538.82,18.589 538.327,14.154 532.743,14.647 530.936,16.782 522.559,19.246 522.888,17.768 527.979,16.454 528.144,14.975 
		518.289,14.318 505.971,16.125 502.521,16.125 511.719,13.826 535.042,12.183 538.491,10.048 534.385,8.57 528.637,7.913 
		526.337,5.778 519.439,6.599 510.898,6.106 505.478,7.092 495.623,7.749 508.927,5.942 523.545,5.449 524.859,4.628 509.256,2.328 
		503.343,2 490.039,2.821 483.962,3.642 483.469,5.613 478.213,4.135 479.856,5.778 473.122,5.121 465.074,5.613 463.595,7.092 
		460.803,6.27 458.175,7.256 461.953,8.077 476.735,8.898 461.624,8.898 468.03,11.69 464.909,13.99 465.895,11.855 459.818,9.555 
		455.547,9.884 453.576,8.734 458.175,12.019 464.745,13.99 464.252,14.483 466.388,15.961 463.595,16.454 460.803,14.483 
		451.441,11.362 444.871,10.869 446.514,13.661 449.963,15.304 445.036,15.14 447.335,16.946 441.586,14.811 444.379,14.811 
		437.809,12.84 439.123,15.797 436.331,18.26 437.152,13.99 434.36,12.019 421.22,13.99 412.186,16.782 414.322,18.589 
		411.858,21.874 407.423,20.724 401.675,22.531 399.375,24.83 396.09,25.159 393.298,27.294 394.612,29.265 400.854,29.593 
		401.51,33.207 398.061,36.163 391.492,36.327 387.385,38.134 377.202,40.105 376.217,42.733 381.144,45.361 386.893,45.854 
		382.458,47.332 381.144,50.452 387.385,52.423 385.25,53.409 390.178,56.529 396.419,57.351 397.24,55.216 404.138,56.201 
		405.781,54.559 413.993,56.037 421.713,58.829 421.056,60.964 422.534,62.935 425.983,63.921 428.94,67.37 428.118,69.176 
		430.253,70.655 429.104,72.297 431.732,73.447 430.418,75.418 431.075,80.838 429.761,83.63 431.567,85.272 435.838,84.944 
		440.108,83.466 437.645,86.586 442.572,87.079 442.408,89.214 445.528,89.543 443.393,90.857 440.601,89.214 433.867,89.214 
		436.166,91.021 443.722,93.485 445.693,95.291 444.707,101.204 438.137,102.026 442.243,103.996 438.302,103.175 435.838,109.252 
		441.094,110.074 436.823,112.373 438.137,116.643 439.78,116.315 441.915,120.257 441.751,124.527 444.214,121.406 
		443.393,126.827 445.2,129.29 447.828,130.44 447.335,132.739 450.456,134.382 451.605,138.652 455.547,139.802 453.905,140.623 
		460.967,141.28 462.774,143.744 467.044,145.551 469.837,144.565 469.015,142.43 470.822,141.773 472.629,133.561 470.165,131.59 
		473.286,131.754 478.213,126.498 478.213,120.914 481.334,118.45 479.363,117.793 484.454,116.643 486.097,113.687 
		486.425,117.136 491.189,115.822 496.609,113.03 500.879,108.103 500.715,106.624 504.985,103.996 513.197,103.175 
		517.468,101.204 522.888,100.547 529.786,95.948 	"/>
	<polygon fill="#EBE0D4" points="857.456,329.505 856.635,334.597 857.127,338.375 859.427,341.167 862.876,339.524 
		863.205,335.911 859.92,330.327 	"/>
	<polygon fill="#EBE0D4" points="645.579,164.603 644.265,162.304 640.159,164.11 642.623,167.888 643.937,167.559 	"/>
	<polygon fill="#EBE0D4" points="394.448,303.062 397.24,303.062 400.197,301.912 394.448,301.091 	"/>
	<polygon fill="#EBE0D4" points="186.677,158.526 182.571,159.183 183.557,162.139 184.706,160.168 188.484,160.168 	"/>
	<polygon fill="#EBE0D4" points="189.798,166.081 186.349,161.482 185.035,163.289 185.035,165.26 187.499,168.709 	"/>
	<polygon fill="#EBE0D4" points="179.615,156.062 180.929,153.763 178.137,152.613 175.837,153.763 177.644,155.57 181.75,162.139 
		180.929,156.883 	"/>
	<polygon fill="#EBE0D4" points="118.68,156.555 120.158,158.854 126.071,156.555 126.071,150.971 123.279,153.599 	"/>
	<polygon fill="#EBE0D4" points="79.425,173.965 82.217,172.98 82.71,171.173 79.918,171.83 	"/>
	<polygon fill="#EBE0D4" points="64.643,127.648 69.735,128.797 71.377,130.276 74.498,128.633 66.285,126.991 	"/>
	<polygon fill="#EBE0D4" points="401.51,303.883 402.496,303.555 401.839,303.555 401.51,303.555 	"/>
	<polygon fill="#EBE0D4" points="315.939,64.742 322.508,66.384 348.295,66.877 353.387,65.727 354.044,64.578 355.029,60.471 
		350.266,58.5 342.054,58.172 333.677,60.636 330.721,59.486 325.793,60.636 324.972,58.336 318.402,56.037 324.315,55.872 
		317.91,52.423 312.654,52.916 310.683,50.945 304.277,49.96 300.992,50.617 304.113,54.394 309.533,55.38 312.49,54.559 
		316.103,59.65 314.625,62.114 	"/>
	<polygon fill="#EBE0D4" points="323.33,47.332 321.359,46.182 318.567,47.66 322.016,49.138 	"/>
	<polygon fill="#EBE0D4" points="276.355,73.94 274.549,71.147 270.114,71.476 270.443,73.283 274.22,76.567 	"/>
	<polygon fill="#EBE0D4" points="312.325,45.689 305.427,45.197 303.456,47.332 311.34,47.332 	"/>
	<polygon fill="#EBE0D4" points="405.124,202.708 407.752,204.022 410.544,202.708 410.38,199.587 410.216,202.708 	"/>
	<polygon fill="#EBE0D4" points="311.011,65.563 311.34,61.785 307.726,58.665 301.978,62.114 305.591,66.548 	"/>
	<polygon fill="#EBE0D4" points="288.838,98.905 294.094,99.069 301.814,101.861 305.92,99.562 303.949,99.398 302.47,96.605 
		298.857,93.813 296.558,94.306 294.094,98.084 	"/>
	<polygon fill="#EBE0D4" points="403.81,188.747 405.452,191.047 409.723,192.361 410.872,191.211 	"/>
	<polygon fill="#EBE0D4" points="414.979,200.409 412.679,203.529 412.679,206.321 417.442,204.515 	"/>
	<polygon fill="#EBE0D4" points="302.47,79.195 300.992,74.596 299.514,75.91 296.065,75.418 299.843,73.283 299.514,70.49 
		297.215,69.998 297.872,66.548 296.558,69.012 290.809,71.147 288.017,70.655 285.717,72.79 290.809,75.91 286.867,77.389 
		284.404,75.253 282.597,77.717 291.302,82.48 294.915,85.929 301.649,82.645 	"/>
	<polygon fill="#EBE0D4" points="287.196,96.113 287.524,92.171 286.046,92.664 278.326,89.05 276.191,86.915 277.341,85.437 
		275.042,81.002 274.056,77.06 265.68,72.461 265.187,73.94 266.501,83.794 263.709,78.374 259.11,75.746 257.139,75.746 
		260.095,78.703 257.139,78.374 254.182,80.017 255.496,77.389 249.912,75.582 247.612,78.046 246.956,75.089 244.985,73.447 
		236.28,76.239 232.338,79.195 233.816,80.345 230.859,82.152 230.859,83.958 233.98,83.63 235.623,85.437 240.221,85.437 
		232.995,87.408 236.608,90.2 248.434,89.379 252.704,90.364 251.226,92.171 246.299,91.514 237.429,92.499 235.951,93.32 
		240.55,97.098 247.777,97.755 247.941,99.89 250.733,101.861 254.511,101.369 254.675,102.518 258.617,100.876 267.815,98.741 
		270.114,96.113 270.771,97.755 279.969,100.055 285.389,98.084 284.404,96.113 281.94,96.605 284.075,93.813 	"/>
	<polygon fill="#EBE0D4" points="430.746,184.805 431.239,182.013 427.133,182.999 425.162,185.626 420.891,194.167 
		418.756,197.124 419.578,198.438 423.027,197.781 431.239,198.766 429.596,201.066 436.002,199.095 437.152,202.051 
		438.958,201.394 440.108,198.602 439.123,196.302 436.166,197.781 437.645,195.153 436.002,194.331 437.48,191.539 
		434.031,189.897 433.046,191.539 429.104,189.733 429.104,185.462 	"/>
	<polygon fill="#EBE0D4" points="225.111,57.351 228.396,58.008 232.502,54.723 231.188,53.737 235.13,51.931 234.144,54.394 
		240.878,52.423 239.4,49.631 242.357,48.481 239.236,46.675 231.681,47.989 222.976,54.23 219.034,55.544 220.348,57.515 	"/>
	<polygon fill="#EBE0D4" points="261.573,56.365 259.274,57.679 262.887,60.307 255.496,60.143 254.839,58.008 249.912,55.216 
		246.956,55.708 245.477,52.259 243.999,51.931 243.999,53.573 240.714,54.723 235.787,62.114 243.835,63.592 246.627,61.128 
		246.956,62.935 256.482,61.785 254.511,63.264 250.569,63.592 245.477,65.399 249.912,67.205 254.182,66.548 263.052,62.935 
		264.366,63.921 271.921,63.099 273.071,61.128 277.505,63.264 278.819,61.128 273.563,59.814 273.563,57.679 270.114,56.694 
		268.636,57.679 264.201,56.694 265.515,55.216 263.216,51.438 258.124,55.051 	"/>
	<polygon fill="#EBE0D4" points="255.825,41.09 258.288,41.747 261.245,41.583 260.916,39.612 258.124,38.463 249.255,40.926 
		249.419,41.912 	"/>
	<polygon fill="#EBE0D4" points="232.338,60.143 234.473,58.665 235.294,56.201 229.71,59.65 	"/>
	<polygon fill="#EBE0D4" points="320.866,19.574 327.436,17.932 321.194,21.052 322.837,22.366 333.349,21.381 332.692,22.366 
		324.315,23.352 330.885,25.159 334.663,22.366 332.527,25.323 340.083,25.98 343.532,24.666 344.682,25.816 355.029,23.68 
		364.555,23.188 353.879,25.323 360.121,25.323 343.696,27.458 348.623,30.414 346.981,30.579 341.889,27.951 333.513,27.458 
		333.349,31.4 338.112,32.385 340.411,37.149 333.02,38.134 330.228,40.598 330.228,42.897 336.634,42.897 336.469,46.839 
		341.561,47.167 345.996,44.047 342.875,48.153 335.648,47.167 334.334,45.197 328.093,45.032 329.735,48.153 327.764,49.631 
		320.537,52.423 322.18,53.902 330.556,54.066 339.918,55.051 341.561,53.902 351.416,54.23 350.43,56.201 355.85,55.051 
		354.701,57.843 357.328,58.008 356.179,54.887 360.942,52.752 360.449,50.617 355.85,50.945 357,49.795 351.416,48.153 
		356.507,48.481 360.942,46.51 359.628,43.883 363.734,44.375 367.676,42.897 369.318,41.09 364.884,39.941 370.14,39.612 
		370.797,38.298 367.183,36.984 360.449,36.492 366.034,35.999 371.125,36.492 371.289,35.178 362.256,34.849 362.092,33.535 
		366.69,34.356 375.395,33.042 374.739,31.236 380.651,31.564 383.279,28.608 390.67,24.173 402.496,18.26 385.086,21.217 
		395.926,18.589 399.868,16.618 402.989,16.946 412.679,13.333 411.858,11.034 407.916,10.869 402.003,7.749 393.298,9.72 
		389.685,10.048 396.747,7.913 386.564,7.092 386.236,6.106 375.888,6.435 373.26,8.077 372.111,7.092 366.034,6.599 362.913,8.077 
		353.387,7.584 354.208,8.898 348.952,8.734 351.908,10.541 347.31,9.555 345.339,11.855 353.715,15.14 344.517,12.512 
		335.648,11.198 336.962,12.676 332.692,13.826 338.933,14.975 328.586,13.99 324.315,16.289 319.224,16.125 316.267,17.603 
		323.658,17.603 	"/>
	<polygon fill="#EBE0D4" points="248.105,45.032 249.255,47.003 252.704,48.317 258.617,47.167 260.424,43.883 257.139,43.061 
		249.255,44.375 245.806,43.226 243.342,44.047 246.299,45.689 	"/>
	<polygon fill="#EBE0D4" points="275.863,49.795 275.042,47.66 271.757,45.525 273.399,48.481 	"/>
	<polygon fill="#EBE0D4" points="304.277,34.028 310.026,35.013 314.132,33.699 316.431,35.67 312.161,35.67 308.876,36.984 
		316.103,42.24 325.301,42.404 327.929,40.598 327.929,37.149 330.064,39.12 333.349,36.327 338.44,34.685 336.305,32.714 
		331.378,32.714 331.87,30.414 329.571,26.637 327.107,26.473 325.465,28.279 324.479,25.816 320.045,25.651 316.596,21.217 
		312.161,19.574 308.548,20.396 312.49,21.709 307.069,21.874 305.098,23.845 306.084,25.323 303.456,25.487 301.649,27.622 
		307.069,29.429 301.321,28.608 	"/>
	<polygon fill="#EBE0D4" points="301.156,44.54 306.412,43.883 307.234,41.255 300.664,38.955 296.722,38.134 295.901,40.269 
		297.872,43.39 	"/>
	<polygon fill="#EBE0D4" points="290.152,52.259 287.196,53.245 291.466,57.351 285.225,54.066 283.911,57.022 280.462,58.665 
		284.239,58.336 282.597,60.307 291.466,59.157 288.674,60.636 289.824,63.264 297.05,63.264 296.722,61.293 299.186,59.157 
		298.2,53.902 294.258,52.916 293.601,54.066 	"/>
	<polygon fill="#EBE0D4" points="282.268,54.887 278.162,52.588 277.177,54.887 279.312,57.679 283.418,56.858 	"/>
	<polygon fill="#EBE0D4" points="279.805,40.269 275.042,40.269 276.848,41.912 282.268,41.09 282.104,42.24 287.524,42.24 
		287.031,44.868 293.93,44.375 291.302,40.762 292.287,39.612 285.717,36.163 283.254,36.656 279.148,34.192 273.892,34.521 
		273.399,36.656 277.998,36.984 	"/>
	<polygon fill="#EBE0D4" points="218.377,193.346 213.121,190.718 211.15,187.926 210.822,187.269 201.46,185.298 208.358,191.539 
		213.285,194.331 216.734,195.317 	"/>
	<polygon fill="#EBE0D4" points="369.318,106.789 369.154,103.011 367.676,102.682 364.227,102.847 362.256,105.803 
		363.406,108.431 366.855,108.267 	"/>
	<polygon fill="#EBE0D4" points="383.772,87.9 380.323,84.615 375.888,84.287 370.797,83.794 371.946,81.331 368.661,81.002 
		368.99,78.703 361.435,77.224 357.164,80.017 354.372,78.703 352.401,80.674 353.058,77.389 348.952,71.476 345.01,71.312 
		337.455,74.432 335.812,77.881 337.948,80.181 334.991,81.495 339.59,84.78 338.604,85.929 334.498,82.973 332.692,76.896 
		337.783,70.819 332.692,70.655 329.407,71.476 325.301,74.268 322.016,82.152 323.001,85.601 328.421,86.258 330.885,87.408 
		323.822,87.079 326.45,90.528 333.184,91.185 334.17,92.664 342.218,93.485 345.831,94.634 348.788,93.32 353.551,95.948 
		354.865,94.142 357.985,93.156 356.672,90.2 361.106,92.171 361.106,94.306 357.493,95.948 355.686,99.233 357.493,99.233 
		358.478,96.113 361.599,94.634 365.048,96.277 362.256,96.441 364.391,100.547 368.004,98.741 372.111,101.533 371.454,105.475 
		374.574,105.475 371.782,103.832 372.932,102.026 375.888,103.011 377.859,109.088 371.289,114.18 374.41,117.793 372.603,117.3 
		367.183,118.943 361.927,117.793 359.628,120.257 361.599,123.542 361.106,127.976 358.642,127.648 360.285,129.783 
		362.42,127.319 364.72,127.812 361.599,125.02 364.884,124.199 367.019,122.063 370.632,123.213 372.603,121.571 378.352,126.827 
		381.308,127.319 379.994,129.29 382.951,132.411 386.564,131.918 389.849,133.889 393.627,134.382 399.704,136.681 
		398.061,134.053 388.535,126.498 393.134,127.976 396.09,130.604 402.167,130.604 403.646,126.17 400.525,125.02 400.361,122.063 
		394.941,119.6 394.941,118.286 390.999,115.986 394.612,115.001 391.984,112.537 395.269,112.044 399.868,115.001 399.704,116.643 
		402.496,119.6 406.274,118.943 405.288,117.629 410.051,116.643 408.737,113.687 412.186,113.03 410.544,109.417 406.274,110.238 
		406.766,107.938 402.003,104.325 398.061,104.161 395.105,102.026 390.506,101.04 392.641,97.919 395.762,97.755 391.656,94.47 
		394.448,94.799 391.492,91.35 390.999,92.499 386.4,92.499 390.506,89.871 	"/>
	<polygon fill="#EBE0D4" points="351.416,74.104 354.044,76.732 365.377,76.896 365.705,75.253 360.613,72.133 351.251,71.312 	"/>
	<polygon fill="#EBE0D4" points="341.561,132.739 344.025,134.218 347.802,131.59 347.145,130.276 343.532,130.44 	"/>
	<polygon fill="#EBE0D4" points="353.222,126.17 349.445,124.856 346.324,121.242 340.904,119.107 337.783,116.151 335.155,116.151 
		333.677,122.228 334.334,124.691 331.213,127.319 335.648,126.662 336.141,128.962 339.426,128.633 344.353,124.199 
		345.996,126.827 350.594,127.976 	"/>
	<polygon fill="#EBE0D4" points="218.213,87.079 225.932,84.615 226.589,81.988 230.531,78.046 242.685,72.79 237.758,69.176 
		233.98,67.862 227.41,67.862 222.976,66.22 212.957,67.534 216.077,71.147 211.971,76.403 209.343,81.988 215.092,83.466 	"/>
	<polygon fill="#EBE0D4" points="191.276,171.009 187.006,170.844 187.17,173.801 192.919,180.206 189.962,175.279 	"/>
	<polygon fill="#EBE0D4" points="626.034,359.07 626.527,359.562 627.02,358.905 626.527,358.413 	"/>
	<polygon fill="#EBE0D4" points="1014.311,251.325 1012.339,248.697 1013.161,251.817 1015.46,253.296 1015.624,258.716 
		1019.073,258.223 1021.373,252.803 1020.387,250.503 1016.446,249.518 	"/>
	<polygon fill="#EBE0D4" points="1041.575,235.064 1040.918,237.692 1036.976,238.842 1033.199,243.605 1024.658,243.441 
		1017.595,248.697 1021.537,249.518 1024.159,248.541 1022.358,250.996 1023.015,253.46 1025.151,251.325 1028.107,251.653 
		1029.585,248.04 1024.188,248.53 1029.914,246.397 1031.72,246.562 1030.899,249.518 1033.691,250.503 1036.648,248.04 
		1036.484,246.397 1040.754,246.562 1045.681,244.426 1046.174,245.905 1049.13,242.948 1048.145,240.977 1049.623,237.035 
		1049.787,233.422 1052.908,229.151 1050.937,224.881 1047.324,224.224 1046.01,225.21 1046.503,229.151 1044.531,234.079 	"/>
	<polygon fill="#EBE0D4" points="1046.01,217.49 1046.995,222.253 1048.638,220.611 1047.324,218.968 1051.758,217.654 
		1056.521,220.118 1057.835,217.49 1063.256,215.026 1061.613,212.563 1058.164,211.906 1052.58,206.486 1050.609,207.8 
		1052.087,210.099 1050.116,215.683 	"/>
	<polygon fill="#EBE0D4" points="412.186,310.946 412.515,311.767 412.843,310.781 412.351,310.617 	"/>
	<polygon fill="#EBE0D4" points="362.584,303.719 365.869,303.062 361.927,301.255 358.971,301.912 	"/>
	<polygon fill="#EBE0D4" points="413.172,318.173 413.172,317.68 412.843,317.844 413.008,318.665 	"/>
	<polygon fill="#EBE0D4" points="1101.525,382.885 1098.24,380.422 1096.926,381.571 1099.718,382.228 1098.733,384.363 
		1103.167,387.156 1101.853,385.02 1103.989,383.542 	"/>
	<polygon fill="#EBE0D4" points="1112.529,386.663 1108.095,388.798 1111.38,390.933 1110.558,388.47 1114.336,390.441 	"/>
	<polygon fill="#EBE0D4" points="413.829,315.38 413.336,316.202 413.829,316.53 413.993,315.38 	"/>
	<polygon fill="#EBE0D4" points="635.396,217.49 633.097,217.819 633.425,221.596 634.739,222.253 	"/>
	<polygon fill="#EBE0D4" points="1131.91,426.575 1129.447,428.546 1123.534,424.111 1123.041,425.589 1128.954,430.188 
		1130.925,429.695 	"/>
	<polygon fill="#EBE0D4" points="679.25,47.989 682.535,44.868 680.071,44.54 677.936,41.912 671.366,43.226 673.83,44.211 
		671.53,47.496 677.443,46.675 676.293,48.646 	"/>
	<polygon fill="#EBE0D4" points="653.792,101.861 653.627,101.697 653.135,101.861 	"/>
	<polygon fill="#EBE0D4" points="644.758,36.82 642.951,37.806 642.623,40.598 639.831,37.641 640.652,40.762 643.937,42.24 
		643.444,39.448 646.565,42.404 651.821,41.09 652.313,38.627 655.434,41.419 652.97,42.897 648.536,43.39 648.864,45.361 
		658.555,44.54 649.521,46.839 650.999,49.138 658.555,53.245 661.511,47.332 662.989,47.167 665.453,40.598 673.501,37.806 
		667.917,35.67 665.289,35.67 664.632,33.042 661.018,30.414 656.912,29.265 655.106,30.579 657.076,37.477 653.792,32.385 
		651.492,31.071 649.357,33.042 649.193,30.579 644.594,32.057 642.951,30.743 640.323,31.893 639.338,32.878 641.145,36.163 	"/>
	<polygon fill="#EBE0D4" points="673.337,39.776 669.231,40.269 672.023,42.404 675.8,41.912 	"/>
	<polygon fill="#EBE0D4" points="656.419,97.098 654.284,99.398 650.999,100.547 653.627,101.697 655.434,101.04 	"/>
	<polygon fill="#EBE0D4" points="647.879,103.996 653.135,101.861 649.685,102.518 	"/>
	<polygon fill="#EBE0D4" points="674.651,30.907 674.487,31.728 667.424,32.55 667.752,34.521 677.771,33.864 677.771,35.178 
		686.969,33.699 686.969,32.385 691.075,30.743 690.09,28.444 682.37,27.622 678.1,28.444 677.279,25.98 676.129,29.593 
		674.487,27.787 671.366,28.115 670.216,24.83 663.975,27.951 662.989,30.414 664.796,31.728 	"/>
	<polygon fill="#EBE0D4" points="408.409,305.197 408.573,305.361 408.245,304.869 407.752,304.869 	"/>
	<polygon fill="#EBE0D4" points="954.854,296.328 951.076,296.328 947.627,298.627 947.791,301.255 950.583,302.241 
		953.211,300.598 	"/>
	<polygon fill="#EBE0D4" points="764.822,277.275 764.986,275.961 764.657,275.797 764.493,276.618 	"/>
	<polygon fill="#EBE0D4" points="1024.658,377.301 1028.928,379.436 1029.914,377.465 1024.986,376.315 	"/>
	<polygon fill="#EBE0D4" points="1007.248,354.307 1006.755,358.577 1007.905,362.519 1010.04,362.519 1007.905,357.263 
		1009.055,352.5 	"/>
	<polygon fill="#EBE0D4" points="943.521,368.76 941.221,368.924 939.579,364.654 936.787,365.804 941.057,369.417 	"/>
	<polygon fill="#EBE0D4" points="1002.156,367.282 1002.813,371.06 1004.62,371.881 1009.055,369.417 1010.204,370.567 
		1013.489,370.074 1017.595,371.881 1016.774,369.417 1013.161,368.432 1007.741,369.581 1002.649,369.417 	"/>
	<polygon fill="#EBE0D4" points="972.099,385.513 970.785,387.648 974.07,388.305 978.669,387.484 980.312,385.842 975.713,386.006 
			"/>
	<polygon fill="#EBE0D4" points="939.579,369.91 938.265,367.282 934.816,365.475 933.83,361.205 931.366,360.712 932.352,358.905 
		928.41,356.606 925.618,352.993 922.169,352.993 919.705,349.708 915.106,346.916 912.642,343.302 908.208,343.138 
		906.073,341.988 906.073,344.616 912.971,350.693 911.164,355.292 913.3,357.92 913.956,356.606 911.985,353.321 915.927,353.65 
		917.734,358.905 915.106,359.727 916.913,364.982 918.062,365.311 915.435,359.727 919.705,359.891 923.975,367.775 
		929.724,373.852 935.308,378.286 938.758,377.958 	"/>
	<polygon fill="#EBE0D4" points="995.258,385.677 996.572,386.499 1001.664,384.856 992.794,385.513 990.659,386.827 
		984.089,385.677 982.283,388.962 980.147,389.784 984.91,392.083 986.06,391.426 983.268,387.484 989.017,387.648 	"/>
	<polygon fill="#EBE0D4" points="997.065,358.413 999.693,354.307 995.422,357.099 986.224,355.456 983.597,357.427 
		981.297,365.968 979.655,368.76 982.283,373.195 981.461,376.48 984.418,376.972 984.582,369.746 986.881,368.432 986.224,370.731 
		988.524,372.538 989.674,376.808 990.002,373.852 991.809,377.465 993.451,372.209 990.495,371.224 990.659,368.924 
		988.688,365.639 994.272,362.026 988.688,361.205 985.568,364.161 983.432,360.384 984.582,358.248 	"/>
	<polygon fill="#EBE0D4" points="999.364,389.455 1006.427,386.17 999.693,386.827 998.871,387.813 997.886,388.47 997.393,388.47 
		996.572,388.798 996.079,388.962 994.437,392.247 997.393,391.59 	"/>
	<polygon fill="#EBE0D4" points="950.255,363.833 951.404,363.176 952.718,369.089 957.481,368.596 957.646,370.895 
		961.588,368.924 966.022,370.567 966.515,372.702 970.95,371.224 972.756,366.625 972.099,365.311 975.384,361.369 
		976.534,357.263 980.312,356.77 976.698,353.814 975.713,346.751 976.206,346.587 976.206,346.751 976.041,347.244 
		976.862,346.751 976.534,346.587 979.49,345.766 977.519,344.452 981.133,343.466 976.37,341.167 974.07,336.732 969.636,343.466 
		968.157,344.288 968.157,344.616 967.829,344.616 968.814,346.259 967.829,345.273 967.829,344.616 967.829,344.288 
		967.665,344.452 966.187,345.109 964.544,345.273 961.423,349.872 956.167,351.022 955.182,354.799 950.912,353.157 
		948.284,357.099 	"/>
	<polygon fill="#EBE0D4" points="969.964,386.006 962.409,384.199 960.602,382.228 966.515,382.228 968.814,381.079 
		958.467,381.243 954.854,379.765 953.375,381.407 947.627,380.914 942.699,378.286 939.579,378.122 937.608,381.079 
		941.057,381.571 941.057,382.885 946.641,384.199 948.448,383.542 953.54,385.185 960.438,386.17 962.08,385.677 966.351,387.32 	
		"/>
	<polygon fill="#EBE0D4" points="413.665,327.863 413.993,325.728 411.529,326.056 412.186,327.37 	"/>
	<polygon fill="#EBE0D4" points="365.048,278.754 365.869,281.053 368.333,282.531 367.676,281.053 	"/>
	<polygon fill="#EBE0D4" points="362.584,276.947 362.256,279.575 358.807,281.053 361.435,284.01 360.942,280.889 364.227,277.932 
			"/>
	<polygon fill="#EBE0D4" points="370.14,286.473 368.333,282.531 366.526,284.174 	"/>
	<polygon fill="#EBE0D4" points="391.82,551.73 385.579,552.222 394.284,556 389.685,552.879 396.09,553.372 	"/>
	<polygon fill="#EBE0D4" points="373.917,500.978 372.603,498.843 371.946,503.441 370.304,505.905 373.589,504.755 	"/>
	<polygon fill="#EBE0D4" points="387.221,541.218 383.936,543.517 384.593,545.488 382.622,547.131 382.294,549.759 378.845,550.58 
		389.521,551.565 389.849,551.565 389.521,551.237 389.685,542.039 	"/>
	<polygon fill="#EBE0D4" points="382.13,548.28 374.41,544.831 374.41,548.116 381.637,549.43 	"/>
	<polygon fill="#EBE0D4" points="372.275,510.175 372.768,514.282 373.917,509.683 373.425,507.055 370.304,509.683 	"/>
	<polygon fill="#EBE0D4" points="974.727,333.447 982.611,326.713 981.954,325.235 984.582,321.786 983.104,320.965 
		982.775,323.921 	"/>
	<polygon fill="#EBE0D4" points="993.451,323.757 989.509,321.129 989.509,327.042 991.645,326.221 990.988,328.849 
		992.958,331.476 997.886,328.356 994.929,328.192 	"/>
	<polygon fill="#EBE0D4" points="996.9,320.308 999.364,322.771 997.065,323.1 997.229,325.399 1000.185,328.52 999.364,324.414 
		1001.007,324.414 999.693,320.143 	"/>
	<polygon fill="#EBE0D4" points="1000.678,328.027 1000.842,331.476 998.543,331.312 995.586,334.104 995.258,332.79 
		990.166,335.254 989.674,339.689 991.316,335.583 992.302,336.897 995.094,335.254 996.736,340.346 1000.35,342.317 
		1001.664,336.732 1002.978,340.017 1004.292,336.897 1003.799,333.94 	"/>
	<polygon fill="#EBE0D4" points="983.761,313.081 986.553,314.066 984.582,317.187 987.374,321.293 988.852,315.709 
		991.645,318.337 991.48,315.709 993.78,318.83 994.272,321.457 996.243,322.936 996.572,317.187 991.152,314.559 988.852,315.052 
		989.181,312.26 987.703,311.438 991.48,305.69 989.674,301.912 985.403,301.091 984.418,309.139 982.775,308.154 	"/>
	<polygon fill="#EBE0D4" points="411.694,321.457 411.529,321.293 411.365,321.95 411.694,321.95 	"/>
	<polygon fill="#EBE0D4" points="411.201,305.69 410.872,305.69 411.037,306.018 411.529,305.854 	"/>
	<polygon fill="#EBE0D4" points="418.428,318.665 418.592,318.501 418.099,317.68 418.099,318.501 	"/>
	<polygon fill="#EBE0D4" points="632.275,226.195 632.768,231.451 635.725,230.63 636.546,225.538 634.739,222.746 631.454,224.224 
			"/>
	<polygon fill="#EBE0D4" points="653.463,237.692 654.449,233.586 649.028,234.9 645.908,234.079 644.758,235.393 653.135,239.663 	
		"/>
	<polygon fill="#EBE0D4" points="650.835,242.455 651.492,242.62 651.328,242.291 650.835,241.798 	"/>
	<polygon fill="#EBE0D4" points="1072.618,377.465 1076.724,379.436 1079.352,379.436 1084.443,376.808 1085.429,373.195 
		1082.801,372.866 1083.294,374.837 1079.844,377.137 1068.84,376.808 	"/>
	<polygon fill="#EBE0D4" points="1049.459,367.939 1046.01,367.118 1039.44,364.326 1037.469,365.311 1033.527,364.818 
		1034.677,367.775 1030.571,370.074 1027.943,366.953 1027.45,362.026 1023.508,360.876 1018.909,362.355 1016.774,361.041 
		1017.595,363.833 1020.552,364.49 1021.373,366.296 1027.45,367.282 1021.866,368.103 1024.165,370.895 1026.136,370.895 
		1031.392,373.688 1033.691,373.852 1040.261,376.644 1042.889,382.721 1040.261,383.542 1038.947,386.17 1046.174,385.185 
		1049.459,388.305 1054.715,388.962 1057.178,387.813 1058.164,383.542 1065.555,385.02 1068.676,389.455 1071.468,391.59 
		1079.023,392.247 1081.815,391.755 1078.53,388.634 1077.873,389.948 1073.275,387.977 1071.961,385.02 1069.004,383.049 
		1068.347,380.914 1071.139,380.75 1069.825,378.451 1064.405,376.644 1064.734,375.001 1060.628,371.717 	"/>
	<polygon fill="#EBE0D4" points="1087.071,374.837 1087.728,373.031 1084.279,369.91 1078.53,367.118 1076.888,364.654 
		1077.709,367.446 1085.1,370.895 	"/>
	<polygon fill="#EBE0D4" points="933.009,355.456 932.68,355.292 932.023,355.621 932.516,355.785 	"/>
	<polygon fill="#EBE0D4" points="418.099,536.455 415.307,537.276 414.979,540.232 419.085,536.948 417.607,540.725 
		424.012,537.933 423.355,536.619 	"/>
	<polygon fill="#EBE0D4" points="587.112,157.341 587.059,157.325 587.108,157.376 	"/>
	<polygon fill="#EBE0D4" points="587.272,159.511 584.973,160.004 587.765,161.975 585.301,163.618 587.436,165.917 
		589.243,163.289 591.214,165.096 589.572,168.052 592.035,169.859 592.035,168.216 594.992,167.888 594.17,169.53 596.963,171.173 
		595.649,174.294 592.692,174.951 592.528,179.057 589.079,180.535 596.141,183.491 592.692,183.491 588.586,187.762 
		594.17,187.597 594.663,186.283 601.562,185.134 606.489,185.462 609.938,183.82 608.46,182.013 611.252,178.071 609.774,176.264 
		606.653,175.607 605.503,171.173 602.219,169.038 600.576,164.767 595.649,162.632 600.083,156.391 599.591,155.405 
		594.663,155.241 592.857,154.256 595.484,152.449 597.784,148.835 595.156,148.671 594.992,150.971 589.9,150.971 587.436,154.584 
		587.112,157.341 587.765,157.54 	"/>
	<polygon fill="#EBE0D4" points="584.316,154.42 585.958,151.628 583.495,152.777 581.852,155.734 587.059,157.325 	"/>
	<polygon fill="#EBE0D4" points="690.911,243.934 682.042,244.262 683.52,245.74 688.283,245.412 	"/>
	<polygon fill="#EBE0D4" points="1166.895,412.942 1164.431,415.077 1163.445,413.763 1163.938,417.048 1166.402,417.541 
		1167.552,419.841 1167.223,415.077 1170.015,412.449 1172.807,412.778 1171.658,410.807 	"/>
	<polygon fill="#EBE0D4" points="784.859,24.83 790.28,22.038 782.396,21.709 775.662,23.68 781.41,25.159 	"/>
	<polygon fill="#EBE0D4" points="777.304,26.473 776.976,27.622 772.048,26.801 771.391,28.444 776.976,28.115 	"/>
	<polygon fill="#EBE0D4" points="789.458,18.917 787.98,17.111 781.41,21.052 787.323,21.381 	"/>
	<polygon fill="#EBE0D4" points="811.631,23.023 809.332,20.888 807.197,22.531 802.598,23.516 804.405,24.666 	"/>
	<polygon fill="#EBE0D4" points="781.903,27.294 781.082,28.936 785.681,28.279 790.772,30.579 789.623,26.308 	"/>
	<polygon fill="#EBE0D4" points="801.12,25.159 799.642,22.202 802.434,17.439 800.299,18.096 799.806,21.545 794.714,22.366 
		792.25,25.816 797.835,26.801 	"/>
	<polygon fill="#EBE0D4" points="757.759,97.262 758.58,100.383 763.343,99.069 763.672,97.427 760.715,95.948 	"/>
	<polygon fill="#EBE0D4" points="757.595,23.68 755.295,23.516 747.576,24.994 750.696,26.473 	"/>
	<polygon fill="#EBE0D4" points="752.503,27.458 761.537,28.608 763.836,29.758 762.194,26.144 768.435,24.83 764.329,22.202 
		759.894,24.009 761.865,24.994 	"/>
	<polygon fill="#EBE0D4" points="772.541,87.736 772.213,85.437 774.348,86.422 773.526,88.393 780.096,89.05 785.516,90.364 
		787.159,89.05 782.232,86.094 779.932,79.852 783.381,74.432 778.618,73.118 773.034,74.925 770.734,81.166 768.928,80.838 
		767.942,84.287 	"/>
	<polygon fill="#EBE0D4" points="1036.484,61.128 1039.769,64.413 1043.382,65.563 1052.251,63.428 1053.894,64.578 
		1059.971,63.099 1063.42,60.143 1058.821,58.008 1054.386,57.843 1050.773,55.872 1049.459,59.486 1042.889,55.544 1038.29,57.351 
		1038.783,58.5 1034.348,59.486 1032.87,58.008 1032.049,60.964 1033.856,60.636 	"/>
	<polygon fill="#EBE0D4" points="960.766,69.176 962.573,67.534 958.303,66.384 956.66,67.534 	"/>
	<polygon fill="#EBE0D4" points="904.759,28.936 902.131,31.4 896.382,33.864 900.817,33.042 904.759,36.492 910.343,36.82 
		913.464,38.134 918.555,38.134 920.691,31.893 917.898,29.265 915.435,30.579 912.971,28.444 	"/>
	<polygon fill="#EBE0D4" points="1048.309,69.998 1047.981,72.79 1056.357,74.761 1057.178,72.461 1052.908,70.162 	"/>
	<polygon fill="#EBE0D4" points="1079.844,64.085 1080.501,62.607 1073.439,62.114 1072.946,60.8 1065.555,61.95 1072.125,64.578 	
		"/>
	<polygon fill="#EBE0D4" points="793.236,94.799 796.028,93.649 792.579,91.185 790.115,92.828 	"/>
	<polygon fill="#EBE0D4" points="1177.57,87.408 1180.363,86.094 1177.406,84.451 1173.136,84.123 1168.865,86.094 1168.701,88.722 
		1172.314,87.572 	"/>
	<polygon fill="#EBE0D4" points="829.698,73.611 825.921,73.283 825.592,75.582 831.341,74.432 	"/>
	<polygon fill="#EBE0D4" points="897.696,25.98 893.754,27.622 900.653,29.758 903.281,28.772 911.657,27.951 911.657,24.994 
		913.956,24.666 907.222,20.231 898.682,22.366 896.875,24.009 893.261,21.709 897.039,24.173 	"/>
	<polygon fill="#EBE0D4" points="802.105,55.708 797.999,55.216 797.999,56.529 790.608,57.679 788.801,59.65 785.188,60.964 
		780.425,65.563 778.125,69.669 774.512,71.147 778.947,73.118 784.367,74.268 789.13,68.519 788.801,66.056 791.922,66.877 
		798.985,61.293 817.052,56.365 822.636,53.245 821.158,50.617 816.395,50.781 807.197,55.051 	"/>
	<polygon fill="#EBE0D4" points="900.653,30.25 894.575,29.265 892.933,30.086 897.203,32.057 	"/>
	<polygon fill="#EBE0D4" points="920.526,44.047 924.304,42.404 932.188,41.912 936.951,40.433 939.579,41.912 936.787,38.134 
		932.516,35.67 926.275,34.192 918.227,43.39 	"/>
	<polygon fill="#EBE0D4" points="1068.019,210.428 1069.168,209.442 1067.69,210.428 	"/>
	<polygon fill="#EBE0D4" points="1055.208,172.98 1051.923,174.294 1051.758,181.192 1053.565,183.984 1053.237,188.09 
		1052.251,193.51 1053.237,196.795 1052.087,202.215 1053.072,205.007 1054.058,202.051 1057.014,202.38 1054.386,196.467 
		1056.686,191.047 1059.806,191.539 1056.357,180.699 1056.686,175.279 	"/>
	<polygon fill="#EBE0D4" points="1069.168,209.442 1070.647,208.457 1074.096,207.143 1071.304,207.635 	"/>
	<path fill="#EBE0D4" d="M1198.43,109.909h-7.391l-1.15,2.299l-2.792-6.077l-3.778-1.15l-7.391-4.763l-8.705-4.106l-9.033-2.135
		l-15.439-1.314l0.985,6.241l-4.106,1.15l-4.106-2.628l-0.657-2.464l3.449,0.657l0.657-1.642l-3.613-0.821l-4.106,2.956
		l-6.734-0.493l-2.464-1.15l-6.734,0.821l-2.628,1.15l-4.27-2.628l1.314-2.135l-1.314-2.299l-3.778-1.642l-8.048-0.821l-7.227,1.478
		l-4.599-0.164l-1.807-2.464l-5.256-2.135l0.328-1.478l-5.256-2.299l-10.347,0.328l0.985-1.807l-12.154-1.314l-6.241,1.642
		l-1.15,1.971l2.628,4.106l-3.942-0.985l-5.584,0.657l-3.285-0.657l-4.599,1.642l-2.628-0.493l-3.614-2.464l-3.121,5.749
		l-1.971,0.657l-3.613-2.135l-5.913-7.555l3.285,2.135l1.971-1.15l-2.957-1.314l2.628-3.285l-7.555-3.121l-1.971,0.821l-5.256-1.807
		l-0.493-1.314l-4.271,3.285l-0.821,2.956l-8.705-0.493l-5.42-1.478l-0.164-2.299l-7.062-0.493l-0.821-4.27l-1.642,4.106
		l-6.077,1.15l-1.15-2.299l-2.3,1.15l-7.391-1.971l-1.642,1.478l4.435,0.657l-10.019,3.121l-4.27-0.164l2.464-2.628h2.792
		l5.913-4.435l11.497-5.913l-3.285-3.613l3.614,1.642l-0.985-3.942l-2.464-0.164l-0.164-2.464l-4.435-0.985l-10.019,0.164
		l-0.328,1.314l-4.435,0.164l3.285-2.628l-7.227-1.971l2.135-2.464l-3.449-0.985l-4.763,0.328l-7.391,4.599l-0.164,2.956h-6.241
		l2.792,3.121l-3.285-0.985l-7.063,2.135l-1.807-1.642l1.642-1.478l-0.657-4.106l-2.792,2.135l1.478,2.299l-3.778,1.478h-4.927
		l1.643,1.478l-13.961,2.464l-6.734,3.942v1.478l-5.092-0.985l5.913,5.584l-20.202,1.807l-1.643,1.642l1.314,4.599l4.599,1.478
		l4.599,3.942l-1.478,2.135l1.971,4.435l-1.807,0.985l-0.985-3.942l-1.971-1.642l2.464-0.821l-0.657-2.135l-3.449,0.493
		l-7.391-4.106l-0.821-4.106l-3.942,4.763l0.657,2.464l-3.614-0.985l-2.956,0.821l0.985,1.971l6.077,1.807h-7.062l-2.3-4.106
		l0.821-4.599l3.778-4.435l-3.613-0.493l-2.3,2.792l-2.464,0.328l2.956,2.299l-0.328,3.285l-4.435,1.642l-1.478,2.464l3.942,5.092
		l-2.464,4.27l0.821,3.121l5.42-0.328l6.898,1.971l1.478,3.449l-3.285,2.792l0.657-4.27l-2.956-2.464l-6.077,1.642l0.821,5.42
		l-3.778,4.599l-4.763,3.121l-5.092-0.493l3.778-1.642l4.763-8.377l1.807-1.642l-3.449-2.299l-0.493-7.555l0.821-4.763l-2.628-2.464
		l3.285-4.27l-0.164-2.628l-3.942-1.314l-6.241,0.328l-1.971,0.985l-1.478,5.092l-4.927,3.121l-1.478,3.613l2.792-0.164
		l-1.807,6.241l3.942,0.657l1.478,2.956l1.807,0.164l-2.628,3.285l-3.942-2.956l-9.033-3.778l-10.512-1.642l-1.971,1.478
		l2.299,3.613l-5.584,2.792l-0.657-3.285l-4.927,2.464l-4.27-0.493l-6.241,1.642l-1.807-3.121l-7.062,2.299l-7.555,4.27
		l-2.956,0.821l-0.328,3.121l-5.913,0.493l-2.792-2.299l1.15-2.135l4.435-0.657l-2.464-3.285l-8.376-0.821l2.956,1.807l-1.314,5.913
		l2.135,2.628l-0.985,4.106l-5.092-4.599l-3.942,3.778l-4.763,2.299l1.807,3.613l-2.628,1.807l-8.048-3.121h-3.942l-2.464,1.642
		l-1.642-2.792l1.478-1.642l-1.314-2.135l-4.927-2.135l-2.135-3.121l3.942,1.971l13.961,3.449l4.435-0.328l3.449-1.314l2.956-3.285
		l-1.15-3.613l-8.048-3.613l-7.884-4.435l-4.106-0.493l-11.99-3.121l-7.063-1.807l4.927,0.328l2.956-1.15l-3.449-2.464l-7.72-2.299
		l-3.285,4.27l0.657-3.449l-4.927,5.092l-0.164-2.464l3.449-2.792l-4.435,0.164l-2.135,2.464l-2.956,0.164l0.657-1.642l-3.121,0.493
		l1.478,1.807l-6.734,0.821l-7.063,4.599l-1.971-0.821l-3.121,2.956h1.642l-8.048,6.734l2.464,0.328l-3.778,1.642l-2.464,2.792
		l-0.985,3.285l-5.42,7.884l-6.406,5.092l1.15,1.314l4.927-1.478l-4.27,2.464l-4.106-2.464l-3.285,1.971l3.121,0.328l-6.241,2.464
		l0.493,0.657l-6.077,3.285v8.705l1.478,2.299l-0.985,2.464l2.956-0.821l-1.971,2.956l3.285,2.956l3.285,0.328l2.956-0.985
		l6.241-4.599l2.956,1.15l-0.985,0.164l1.314,4.599l2.628,4.763l0.493,2.792l2.464,4.106l3.285-0.657l1.15-2.792l5.42-0.328
		l1.971-4.599l4.106,0.493l1.807-1.314l-0.657-2.299l-1.971,2.956l-3.285-0.328l-1.15,1.971l-0.821-4.435l1.15-3.285l5.092-2.464
		l2.135-3.613l-6.077-5.092l0.821-7.555l0.821,0.493l5.092-5.092l4.599-1.971l2.299-2.956l-1.478-1.807l4.27-5.42l5.584,0.164
		l3.778,1.807l-0.493,1.807l-3.942,4.435l-5.584,4.106l-3.285,1.15l-0.164,2.628l1.642,6.077l-1.15,4.435l7.555,2.628l7.063-1.15
		l6.077-1.642l2.792-0.985l1.478,3.449l-3.614,2.464l-7.227-0.821l-7.063,2.135l0.164,2.135l-2.956-1.642v2.135l-2.299,1.807
		l4.27-1.314l3.449,3.121l0.164,2.792l-2.135,1.15l-3.449-3.449l-2.792,0.821l-1.971,3.285v3.449v1.478l0.657,2.135l-2.299,1.314
		l1.314-1.478l0.328-0.985l-0.493,0.985l-2.792,1.478l-1.314,2.135l2.464-0.985l-1.971,1.15l-1.15,0.657l0.657-0.821l-3.285,0.164
		l-0.821-1.807l-5.42,1.15l-1.478,1.15l-6.077,1.642l-5.256-2.299l-5.092,2.135l-0.328-1.478l-4.27-2.135l1.478-1.971l2.956,0.821
		l-1.478-6.57l0.657-5.42l-2.464,2.956l-5.256,2.464l1.642,7.227l1.15,4.435l-1.478,1.478l-3.942-0.657l-0.329,1.971l-2.299-1.314
		l-4.927,1.314l-2.628,6.406l0.657,1.478l0.164,0.328l-0.328-0.328l-1.15,0.164l-1.642-0.164l-0.657,0.164l-1.971,0.985l0.328,0.493
		l-0.328-0.493l-2.956,0.985l-1.15,3.613l-4.435,2.792l-5.42-1.807l1.807,4.435l-4.106,0.493l-1.314-1.314l-5.256,1.478l2.628,2.464
		l6.077,3.285l2.792,3.121l-1.15,10.347l-0.985,0.821l-5.584-0.493l-11.497-0.164l-2.135-0.821l-4.435,3.285l1.642,3.613
		l0.328,3.613l-2.628,8.377l2.299,1.314l-0.657,4.927l4.927-0.657l2.956,0.821l0.985,2.299l2.464,0.657l0.164,0.164v-0.164
		l2.792-2.135h7.227l1.478-2.299l3.121-0.985l0.493-2.464l5.913-1.971l3.285-2.464l2.135,0.985l0.328-2.628l-5.092,3.121
		l-4.599,0.985l-1.314-2.464l4.106-5.584l3.449-0.985l3.613-2.464l-0.164-1.807l-0.164-2.628l2.628-1.642l3.778,0.493l2.135,1.478
		l4.763-2.628h0.164h0.164v-0.164l0.164-0.164l3.778-2.299l4.435,1.478l1.314,4.27l7.884,6.406l2.135-0.164l5.913,4.435l1.807,4.763
		l-0.328,2.956l3.449-5.256l-1.971-1.15l1.642-2.956l4.599,1.478l-1.642-1.971l-6.241-2.956v-1.971h-2.792l-3.285-2.464
		l-1.478-3.613l-3.942-2.628l-0.493-4.106l4.763-1.15l-0.328,0.164v0.164l1.15,2.628l1.15-1.971l2.792,3.942l-1.15,0.493
		l3.449,2.628l5.092,2.135l0.164,0.164l0.493,0.328l2.299,1.478l0.493-0.164l2.135,2.299l0.328,6.241l1.642,1.807l0.493,1.642
		l3.285,0.985l-1.971,1.15l0.821,3.778l2.299,0.328l0.493,2.956l4.763,1.15l-1.478-4.106l1.478-1.478l3.285,1.478l1.314,2.299
		l4.27-0.164l1.971-2.956l-1.478-1.971l-1.15,4.27l-3.449,0.328l-2.464-4.435l1.807-1.971l-2.956,0.164l-3.121-4.763l3.449-2.299
		l5.913-0.657l-1.642,3.778l3.121-3.285l2.464,0.493l2.299-1.478h4.599l-3.121-3.778l-1.15-1.807l2.956-4.763l0.164-2.299
		l3.285-3.449l0.164-1.642l3.942-3.778h4.763l-2.135,0.985l6.077,1.642l-2.792,1.15l3.449,4.927l8.212-4.106l-3.942,0.164
		l-1.642-3.121l3.449-1.807l7.391-1.807l3.285,0.328l-4.927,1.314v5.42l-3.613,0.328l7.555,4.106l3.121,2.956l4.927,2.792v4.27
		l-4.435,2.299h-5.584l-7.555-3.121l-8.212-1.15l-6.57,3.613l-6.406-0.657l-0.164,3.121h-7.555l-2.135,3.449l2.956,1.971
		l-2.464,2.464l3.121,0.985l0.164,3.778l3.285-0.328l4.27,3.285l2.3-0.328l0.821-2.464l4.27,1.314l2.464,1.807l2.792-0.328
		l2.628-2.299l2.628,0.821l1.971-1.314l-0.329,3.613l0.164,1.807l0.164,2.628l-1.314,2.628l-1.478,2.956l-0.821,2.792l-1.15,2.464
		l-0.164,0.164l-0.657,0.657l-6.734,0.821l-0.493-1.478h-4.927l-4.27,2.464l-5.256-1.971l-6.898-0.985l-0.493-0.985l-5.913-1.314
		v-1.15l-4.763-0.985l-3.285,1.314l-1.971,2.956l0.328,3.121l-3.285,1.807l-5.092-2.792l-4.106-0.657l-2.792-3.778l-5.749-1.807
		l-3.121,0.164l-2.628-1.15l0.164,2.464l-0.328-1.478l0.164-0.985l-1.478-2.135l-2.299,0.328l-0.657-2.299l3.285-3.121l-2.299-5.42
		l-1.807-2.135l-3.942,1.314l-3.778-0.493l-6.898,1.642l-1.314-0.985l-5.913,0.328l-5.913,1.15l-10.347,5.092l-2.135-0.328v-0.328
		v-0.164l-4.599,0.493l-2.956-2.464l0.164-0.164h-0.328l-1.642,0.328l-2.956,6.241l-5.256,2.792l-2.299,2.464l-1.971,3.942
		l0.657,4.435l-2.956,3.942l-2.792,2.299l-4.599,1.314l-2.135,4.106l-2.464,1.478l-1.642,5.256l-2.628,2.792l-3.942,8.048
		l-0.328,1.807l0.164,0.328l2.792,1.807l-1.15,2.628l1.642,4.599l-1.642,6.898l-1.971,3.778l1.971,3.449l4.599-0.821l-2.299,2.135
		l0.985-1.314h-3.285l-0.821,0.821l0.164,0.821v1.478v0.821l2.299,1.807l-0.657,2.299l3.778,0.164l4.599,3.778l0.821,2.299
		l1.15,4.763l4.599,1.971l6.898,5.584l5.425,2.393l-0.005,0.07h0.164l6.241-2.299h8.048l2.792,1.15l10.347-4.27l0.657-0.328h0.657
		l0.821-0.328l2.628-0.164h5.42l4.763,6.241l8.377-1.478v-0.164l0.821-2.956l-0.821,3.121l3.121,2.792l0.657,4.927l-1.478,3.778
		l1.478,0.493l-1.478,1.15l-0.164,3.285l-1.807,0.493l1.807,4.106l5.749,6.406l2.299,2.135l0.493,1.314l0.821,1.314l-0.164,0.985
		l0.821,0.821l2.299-0.493l-2.956,0.821l3.449,6.898l-1.15,2.464l2.464,4.763l-0.328,5.092l-3.613,3.778l-2.464,7.555l0.164,4.763
		l0.164,2.792l8.048,13.468l0.328,6.241l2.464,10.676l3.778,4.106l2.464,6.077l2.792,4.599l0.328,3.449l-1.314,0.493l1.971,3.778
		l4.763,3.285l8.212-2.792l7.227,0.657l5.092-1.478l4.435-2.628l7.884-7.555l2.464-4.435l3.778-3.449l1.643-5.749l-1.314-2.956
		l1.15-1.478l7.062-3.121l1.15-1.642v-6.57l-2.299-7.227l7.391-6.57l8.869-4.763l2.135-2.956l0.821-3.285l-0.985-2.628
		l-0.328-10.019l-2.299-1.642l-1.314-5.092l0.493-4.599l-2.135-2.628l1.314-4.27l0.657-0.164l4.763-8.212l1.971-0.986l1.807-2.628
		l7.72-7.555l4.599-2.628l6.077-6.406l3.449-5.256l2.464-5.749l3.285-4.763l1.314-7.391l-7.391,1.807l-4.927,0.164l-2.956,1.642
		l-1.971-0.657l-4.763,1.314l-3.285-3.285l0.329-1.642l-0.657-2.135l-6.241-6.241l-2.792-0.821l-0.657-3.121l-1.15,1.971
		l-3.449-8.869l-3.942-3.613l-1.478-9.362l-3.778-2.956l-0.493-3.449l-4.763-8.869l-1.642-4.599L707.5,264.3l0.657-1.15l2.135,4.763
		l2.628,2.628l2.628-5.749l0.164-0.328l0.164,0.164l-0.164,0.493l-0.985,4.27l1.807,0.164l7.227,12.811l2.956,1.478l1.971,4.106
		v4.106l1.807,2.792l4.106,3.121l0.821,2.628l4.927,7.555l-0.328,1.971l1.807,8.048l2.135,1.971l2.956-0.493l2.464-1.971
		l3.285-0.164l7.555-3.449l9.855-3.613l0.164-1.971l2.628-1.314l6.077-1.15l1.314-2.628l2.792-0.328l1.807-2.792l2.956-0.657
		l-0.493-2.464l6.57-8.048l-3.121-4.27l-5.256-1.478l-2.299-3.449l-0.164-1.807l-0.164-0.328l0.164-2.464l-0.821,0.985l-5.092,5.584
		l-2.792,1.15l-5.584,0.164l-0.821-0.821l-0.821-0.164l-0.164-1.15l1.15-0.985l-1.15-4.106l-1.314,4.763l-2.135-3.285v-3.121
		l-3.942-3.285l-1.478-3.121l-0.985-2.792l-0.493-2.135l0.821-0.164l0.986,0.328l1.15-1.314l3.778,0.493l4.106,7.555l3.285,1.15
		l3.778,3.285l3.614,0.493l4.927-2.299l2.135,1.15l0.985,3.613l8.048,1.478l5.42,0.493l12.811-0.493l2.3-0.821l3.778,5.913
		l1.807-0.164l1.643-1.478l-0.821,1.15l-0.821,0.328l1.314,2.135l4.927,2.135l-3.778,0.821l3.449,3.778l2.957,1.478l3.449-1.642
		l1.314-3.121l1.15,5.42l-0.657,2.135l2.464,12.154l2.464,4.435l1.807,5.913l2.299,3.613l3.121,8.869l3.121,2.628l7.391-6.898
		v-5.584l1.478-4.27l-0.985-5.256l0.657-2.135l6.57-2.956l-0.164-1.314l5.749-4.106l4.27-4.435l2.957-1.15l1.314-3.778l4.435-2.956
		l2.628,0.821v-0.493v-0.493l0.164,0.493l-0.164,0.493l6.734-1.314l0.821-1.807l2.464,5.584l2.464,3.449l2.957,1.807l2.135,6.077
		l-1.314,4.927l3.778,0.985l3.778-2.464l0.821-2.792l2.628,4.763l1.314,7.063l1.314,1.478l0.657,9.034l-1.643,4.106l0.657,2.299
		l5.256,5.913l1.971,8.048l1.642,3.285l6.57,4.106l2.956,0.164l-2.628-4.599v-5.749l-4.435-4.599l-5.913-3.942l-0.985-5.584
		l-1.971,0.164l-0.164-2.792l2.628-6.57v-3.942l2.956-0.164l-0.328,2.464h3.121l3.449,3.285l2.135,3.613l2.628,0.328l1.15,0.657
		l-0.164,4.435l5.42-2.299l2.464-2.628l5.584-3.121l0.821-8.048l-1.643-4.763l-6.734-6.734l-3.285-4.927l1.314-3.285l5.584-3.285
		l0.657-1.478l1.478-1.314l3.942,1.314l0.657,3.942l2.464-3.613l8.869-2.628l0.328-2.956l1.478,2.956l2.135-2.135l5.42-0.493
		l1.478-2.135l6.406-4.435l1.807-2.464l0.328-3.449l2.628-1.642l1.971-3.449l1.642-0.493l-0.164-3.121l2.299-2.299l-4.27-1.971
		l3.121-1.314l-0.493-3.613l-2.957-2.464l-1.971-5.749l-3.285-2.628l4.763-5.092l6.241-3.449h-3.449l-2.792-1.478l-4.106,2.464
		l-1.807-3.613h-2.464l-0.986-3.613l3.942-0.164l1.642-2.628l2.792-1.15l2.464-2.792l3.449,1.642l-3.449,3.613l1.807,0.493
		l-1.971,2.464l4.106-2.628l6.077-2.464l3.285,2.956l-2.299,4.27l6.241,1.15l0.821,3.285l-1.807,0.493l1.478,3.285l-2.464,2.792
		l1.971,3.121l1.642-1.807l3.778-0.164l2.464-1.478l1.15-3.285l-0.657-4.27l-3.121-4.927l-2.792-1.971l0.164-2.135l6.898-4.106
		l-0.164-2.628l3.285-2.792l3.285-3.285l4.435,1.807l6.241-3.121l2.464-3.449l6.898-7.062l1.314-2.956l5.256-5.913l1.478-6.57
		l-0.657-1.971l1.478-4.435l1.643-1.478v-5.092l-5.256-4.927h-3.285l-2.628,3.121l-1.807-1.971l2.464-4.27l-4.435,5.256l0.657-3.449
		l-5.256-1.314l4.927-3.285l5.913-5.913l5.749-3.942l1.314-2.464l4.27-3.449l5.092-1.314l15.932,0.821l1.971-2.464l3.778,1.314
		l1.807,2.956l6.406-1.807l5.749,0.328l-3.613-1.642l2.792-3.942l7.884-6.734l9.033-0.821l-1.642,4.927l1.15,1.642l7.063-5.256
		l1.971,0.657l0.657-4.763l4.27-0.821l1.971,1.314l-3.449,0.657l-0.329,4.435l-6.57,4.435l-0.164,1.15l-6.406,4.927l-2.628,3.285
		l-4.927,2.792l-4.435,4.763l-1.642,6.57l1.807,10.183l2.135,8.212l3.121-2.299l2.792-5.749l3.121-1.642l1.314-3.942l6.57-2.792
		l-1.15-3.449l1.15-2.299l3.778-0.164l-1.807-2.628l1.807-4.27l-4.27-1.642l3.449-4.106l1.314,2.464l3.449-1.971h-2.628
		l-1.971-3.121l1.478-2.464l4.763-0.164l3.942-1.807l-0.821,2.956l2.956-2.299l6.898-1.15l3.614,2.792l1.314-2.464l3.778-1.642
		l6.241-4.599l10.348-3.778l5.256,0.985l2.135-1.642l-3.285-3.449l-0.985-4.763l-4.927-1.15l-2.135-1.642l6.898,1.314l6.57-2.464
		l1.314-2.628l-1.642-2.464l2.628,0.328l1.314,2.792l4.927-0.493l3.285,0.985l0.164,2.135l7.227,3.449l4.27-0.493l-1.314-1.314
		l1.478-4.27l5.092-0.493l1.314-2.792L1198.43,109.909z M650.507,172.98l-1.15-0.657l0.985-0.164l1.478,0.164L650.507,172.98z
		 M693.375,148.014l0.493-0.164l-0.164,0.164l-0.328,0.493V148.014z M692.718,153.927l-2.135-3.613l2.299-0.985l1.314,5.256
		L692.718,153.927z M699.123,360.055l0.657,0.164l-0.821,0.985h-0.985L699.123,360.055z M696.66,365.968l0.985-0.986l0.493,1.15
		l-1.478,1.314V365.968z M694.196,412.942l-3.449,3.613l2.299-3.613l3.121-0.985L694.196,412.942z M695.51,389.127l-0.657-0.985
		l1.807-1.807l0.821,0.657L695.51,389.127z M701.587,386.334l0.328-0.821l-3.449-4.763l-1.15-5.092l0.328-5.42l0.328,1.314
		l0.985,2.135l0.328,5.749l2.628,2.135l1.807,5.092L701.587,386.334z M701.587,355.785v-0.657l2.464-2.135l0.493,0.986
		L701.587,355.785z M715.055,395.039l0.164,0.328l0.328,0.164l0.164,0.328v0.164l-0.821,1.971l0.493,4.27l-1.642-0.328l-0.986-3.942
		l0.821-5.42l-1.15-2.299l0.164-0.657h0.328l0.329,0.164l0.328,0.328l0.657,0.821L715.055,395.039z M708.485,358.741l4.27,0.164
		l0.821,1.642l-0.657,2.464l-0.657,3.613l-1.971,0.986l-5.092-0.657l0.657-4.106l-0.164,0.164v-0.164L708.485,358.741z
		 M717.19,259.208l-0.164-0.328l0.164-0.164l0.328,0.164L717.19,259.208z M717.519,258.387h-0.328v-0.493v-0.493l0.493-0.493
		L717.519,258.387z M764.986,181.685l-0.821,1.314l-0.493,0.328l-0.657,0.164l-0.657,0.164L764.986,181.685z M774.348,227.509
		l1.314,3.942l-0.328,5.749l0.328,1.807l-6.57,0.821l-2.628-0.493l-2.956-2.464l-3.121-0.821l-0.821-2.956l1.807-5.913l1.314-1.15
		l-4.106-5.584l-3.449-4.435l0.328-2.792l-2.792-2.628l2.956-4.927l5.092-2.464l6.241-3.121l6.241,1.642l-1.971,5.092l-3.778,0.329
		L764,209.771l5.092,7.063l2.464,0.328l-0.821,3.778l1.15,1.314l0.986-2.135l1.15-0.493h1.314l2.628,3.613l-3.121,1.807
		l-2.464-1.314l-0.657,3.449L774.348,227.509z"/>
	<polygon fill="#EBE0D4" points="1064.57,212.563 1067.69,210.428 1065.719,210.428 	"/>
	<polygon fill="#EBE0D4" points="987.867,285.98 989.181,280.56 986.717,279.739 983.925,285.323 986.06,290.087 	"/>
	<polygon fill="#EBE0D4" points="390.178,544.831 389.685,542.039 389.685,543.025 389.521,551.237 396.255,552.387 402.003,551.73 
		393.791,547.952 	"/>
	<polygon fill="#EBE0D4" points="407.259,302.733 407.259,302.405 407.095,302.569 407.095,302.733 	"/>
	<path fill="#EBE0D4" d="M488.561,375.166l-3.942-3.942l-4.763-2.628h-7.063l-4.599-1.807l-1.15,1.642l-2.956-4.435l-1.15,1.15
		l-2.628-2.464l-4.927-1.314l-4.763,4.435h-3.778l-0.493-0.493l5.584-1.15l1.314-3.613l-4.106-0.328l-1.971-0.164l1.642-0.328
		l-1.971-1.971l1.807-3.285l-2.464-1.478l-2.628-7.227l-0.493,1.314l-4.27-4.435l-3.613,0.329l0.328-1.478l-9.198-0.657
		l-0.821,1.642l0.164-1.807l-6.241-6.241l-2.628-1.478l-2.956-1.15l0.493-1.314l-6.241-3.613l-3.121-0.657l-0.328-1.642
		l-2.792,3.449l-4.763-1.642l-5.256,0.493l-2.956-3.121l-3.449-0.164l-5.092,2.135l1.642,3.449l-1.478,2.135l-1.807-2.464
		l1.642-2.792l-1.15-2.792l1.971-0.821l-1.15-1.971l-5.092,3.778l-4.763,0.657l-2.135,1.642l-0.328,3.613l-4.27,2.792l-1.314-0.328
		l-1.971-1.807l-4.763-1.314l-4.106,2.299l-4.435-0.328l-1.15-1.807l-2.792-2.956l-0.493-1.314l-0.657-1.314l2.299-11.661
		l-3.778-2.628l-5.092-0.493l-7.227,0.821l-1.15-0.657l-0.985,0.164l2.135-3.449l-0.164-4.927l1.314,0.985l1.314-4.27l-0.985-0.328
		l3.285-5.256l-4.435-1.314l-6.898,1.971l-1.314,5.256l-3.778,2.299l-7.884,1.807l-4.27-1.971l-4.27-6.241l-2.135-6.734l0.493-5.913
		l1.642-4.927l-0.821-4.435l2.792-3.613l7.719-4.435l2.792-0.328l9.362,2.299l0.493-1.478l2.792,1.642l-1.642-3.942l10.019-0.821
		l4.927,2.792l3.942-0.985l3.285,3.449l-0.493,3.613l5.42,9.033h1.971l1.15-6.077l-4.106-11.333l-0.164-3.121l1.807-3.121
		l5.256-3.778l1.314-2.135l8.541-4.599l1.642-2.956l-2.299-3.942l-0.821-6.898l0.657-1.807l2.135,5.256l1.971-1.807l-1.642-3.778
		l2.135,1.971l2.464-2.956l-0.657-2.792l5.913-1.314l-3.942-0.493l11.826-2.628l-3.449-2.299l3.285-5.913l3.121-2.135l6.57-1.642
		l-0.821-1.314l8.869-0.657l-5.256,2.956l0.821,4.106l2.792-1.15l1.807-2.956l2.299,0.329l8.048-3.285l-2.956-2.135l-1.642,0.985
		l-6.406-2.464l-1.971-3.778l1.807-2.628l-3.449,0.821l4.106-2.956l-0.657-2.792l-6.57-0.164l-7.555,3.613l-4.763,4.927l4.599-7.063
		l5.42-2.299l2.956-3.778l8.212-0.164l11.661,0.328l3.613-3.285l3.942-1.971l2.299,0.328l4.106-2.956l-0.164-4.435l-5.42-4.435
		l-4.435,1.15l-4.599,2.792l0.821-2.135l4.599-1.15l3.613-2.628l-4.599-0.985l-2.792-1.971l-2.792,1.314l1.15-3.285l-2.299-0.328
		l-0.985-5.749l-4.106-4.763l0.328-1.478l-6.57-9.362l-2.792,3.613l0.493,2.135l-6.57,4.599l-6.734-4.763v-4.27l5.584-1.15
		l-4.927-1.642l-0.493-1.314l-6.57-0.493v-2.135l-7.063-4.106l-2.792,1.642l-6.898-1.971l-3.778,1.807l-5.256-1.15l-1.15,3.121
		l2.792-0.985l3.778,0.493l1.807,1.807l-2.135,3.121l3.121,3.942l-4.106,5.256l5.42,5.584l0.821,6.241l-2.135,3.121L357,167.559
		l-0.328-3.778l1.314-1.642l-3.449-3.449l0.985,9.198l-0.985,0.985l2.464,2.792l-0.328,2.135l-3.121,0.821l3.449,1.15l1.314,3.942
		l-2.299,0.657l-1.314,3.449l-5.092-4.106l-1.971-3.613l3.942,1.15l-1.314-2.135l-3.121-0.328l-0.985-4.106l0.657-3.942
		l-7.555-0.493l-9.198-3.613l-4.106-3.613l-6.898-1.807l-5.256,1.478l0.985-1.807l-2.299-6.406l-5.256-1.314v-4.27l2.628-7.227
		l2.299-1.478l3.449-5.42l4.763-0.985l-3.613-3.121l3.285,0.985l2.956-3.778l2.299,1.642l3.449-1.314l3.285-4.763l-6.57-0.985
		l-2.135-3.285l5.584,3.285h1.642l4.927-4.435l-2.956-1.314l4.27-0.657l3.942,4.106l2.464,0.821l-3.942-3.778l2.956,0.821
		l-2.299-3.778l3.285,2.792l6.734-5.749l-3.942-4.763l3.942-1.642l-1.807-1.642l0.985-2.628l-3.449-1.314l-8.541-1.15l-0.164,3.613
		l2.628,0.985l-3.613,1.642l-0.657,3.613h-3.449l1.478,3.613l-2.792,0.821l-2.628-2.956l-0.493-2.628l1.807-0.328l-0.657-2.628
		l-2.956-2.299l-2.299,0.985l-1.807,4.435l-0.493-3.449l-2.135-3.613l-5.749-7.391l-0.164-3.121l-4.927-3.778l1.314-0.164
		l2.135-2.464l-2.299-1.971l5.584,0.493l1.807-0.821l5.092-6.406l-6.406-0.657l-4.435-1.15l-4.927,1.15v1.478l-1.642,0.657
		l0.164,4.927l1.642,1.807l0.163,3.419l-0.327,0.03l-3.778,3.778l-0.493,5.749l1.15,2.464l5.913,2.299l-0.986,3.942l2.956,0.821
		l-6.241,4.763l1.642,2.299l-4.106-0.985l1.807-4.435l-4.27-0.985l-4.599,0.657l2.135,2.464l2.956,0.657l-11.333-0.328l-5.092,0.657
		l-3.778-1.807l-2.956,0.164l-0.657-2.956l-1.314,1.642l-1.15-2.464l-2.628-0.985l-6.241,1.478l-1.642,1.971l3.613,0.493
		l6.241-2.464l-3.449,2.792l-3.613,0.164l-1.15,3.778l-5.256-3.778l-5.092,1.971l-7.227,0.164l-5.256-1.314l1.807-1.807l3.285-0.657
		l-3.613-2.628l-2.956,0.328l-6.406-1.15l-7.063-2.135l-3.613-1.971l-4.763-0.493l-0.821,1.971l-3.942,0.657l0.164-4.435
		l-4.927,4.27l-3.778-4.763l-3.449-2.299l0.657,1.971l-2.956,3.613l-4.27-0.164l-1.971,2.464l-2.135-1.15l-5.42,3.449l4.27-3.942
		l7.555-2.464l-3.285-0.821l-1.642,1.807l-5.42,0.821l-0.985,1.478l-7.884-0.657l-1.15,2.135l2.135,2.464l-8.541-2.464l-3.285-2.135
		l-5.749-0.657l-7.227-2.628l-4.106,0.657l-8.048-0.985l-7.391-2.135l-7.884,0.493l-0.657-2.135l-6.077,0.164l-3.121-1.971
		l-5.42-0.985l-3.778,2.792l-5.092,0.164l-3.778,2.628h-3.285l-3.942,3.778l0.164,1.478l-3.942,2.628l-5.913,0.328l-0.985,2.792
		l7.555,3.942l1.478,2.792l5.749,0.328l0.821,3.121l1.807,1.15l-8.377,0.821l-0.164-2.792l-5.256,0.985l-8.541,3.942l6.241,1.971
		l-2.628,0.657l2.464,2.956l9.526,0.821l6.241-2.628l-0.821,2.628l1.971,3.449l-8.048,3.449l-2.464-1.15l-6.406,8.212l4.763,3.778
		l-3.121,2.464l-5.584,0.493l2.628,1.642l3.285-0.493l0.985-2.628l5.092,3.285l4.106-1.478l1.971,2.956v3.449l2.464,0.821
		l1.807-2.299l6.898,2.135l3.285-1.314l-1.807,6.077l-9.198,7.063l-3.942,0.493l-2.464,2.299l-6.077,2.135l-1.314,1.314l5.749-0.821
		l1.807-2.299l2.628,0.985l6.077-3.449l3.613-0.493l0.493-1.807l6.241-2.792l1.642-2.628l4.435-2.135l4.106-3.778l-2.792-0.821
		l0.164-1.642l3.449-1.478l4.599-6.077l3.285-1.807l4.435,2.299l-4.27-0.657l-2.956,1.478l-1.478,7.391l2.956-0.493l5.584-3.613
		l4.435-1.15l-1.478-2.464l4.599-0.821l2.135,2.299l6.898,2.299l3.449-0.657l7.884,1.971l6.406,2.956l4.927,3.942l1.971-1.314
		l3.449,0.493l1.642,4.599l1.642,0.328l-0.985-3.449l6.077,6.406l-1.971,0.821l1.971,2.464l1.15-1.15l0.985,5.092l2.299,0.985
		l2.299-1.642l-1.15,7.063l4.27,2.299l2.135,3.613l2.299-0.493l0.821,5.256l7.227,2.956l6.734,5.42h0.164l0.328-0.493l0.493,0.493
		l-0.329,3.449l-5.42-0.985l2.135,11.169l-0.657,6.406l-1.314,3.942l1.478,5.42l-0.986,3.613l1.642,2.299l0.493,3.449l3.778,3.942
		l0.328,2.299l5.584,9.362l2.299,0.493l-0.657,1.971l4.927-0.657l3.285,2.464l1.15,2.956l3.449,5.913l1.15,3.613l5.092,4.435
		l-2.956,2.464l4.27,3.449l4.599,2.464l0.164,3.613l5.749,4.435l1.314,2.299l1.314-2.299l-3.942-3.285l-2.628-7.227l-3.778-3.942
		l-0.328-1.971l-5.749-5.913v-5.42l5.092,2.135l-0.164,1.15l2.956,6.077l5.256,5.913l4.106,3.285l-0.657,1.807l3.613,2.299
		l7.72,8.048l0.657,2.299l-2.464,1.642l3.778-0.164l-1.642,3.613l2.135,3.449l4.763,3.285l5.42,1.478l2.299,1.971l14.125,5.092
		l5.42-2.464l2.956,1.15l5.256,4.927l2.956,1.971l3.778,0.657l4.106,1.478l3.121-0.493l0.985,0.493l0.657,0.821l-1.15,0.493
		l6.241,5.584l-0.657,2.299l2.464,2.628l1.15-1.314l4.927,4.106l0.821,1.971l3.942-0.164l0.164,2.299l5.092-0.493l-1.478-2.299
		l4.27-2.464l3.121,1.642l-0.985,1.314l1.642,2.628l1.807,2.135l0.493,8.705l-4.763,4.927l-0.493,2.464l-3.778,1.807v2.464
		l-2.792,3.449v3.942l3.121,2.792l-1.314,0.657l-2.792,2.628l0.493,5.749l3.121,1.807l3.449,4.927l5.913,12.154l2.792,4.106
		l-0.164,2.628l3.449,3.778l11.497,6.077l3.613,3.449l0.986,10.019l-1.642,5.584l0.493,7.391l-1.478,7.719l-1.971,4.435l0.821,3.285
		l-1.15,1.15l0.657,7.391l-2.464,9.69l-1.314,1.642l-1.807,5.584l-1.478,2.135l1.314,6.406l-2.135,5.584l0.493,2.792l2.792,0.657
		l0.493,4.106l-2.299,6.406l0.493,0.985l-1.971,4.435l-1.642-0.985l-3.942,3.285l5.092,1.971l-0.493,2.628l-0.521,7.713
		l-1.286-7.713l-1.314,0.328l-1.15,0.821v6.241l1.807,1.15l-1.314,3.613l3.241-4.213l-0.285,4.213l2.135,3.121l-3.449,0.328
		l5.42,6.898l6.898,2.464l0.985-4.599l4.927-2.299l2.135,0.657l-2.299-5.749l0.986-2.628l3.285-1.642l0.821-3.778l5.092-3.942
		v-3.942l-2.628-0.164l-2.628-3.285l0.986-2.135l3.449-2.464l1.971,0.164l0.821-5.256l2.792-2.628v-1.807l2.628,0.821l-0.657-2.464
		l-3.942-0.328l0.493-4.763l3.613,1.642l4.435-1.15l0.985-7.062l3.778,0.164l5.584-1.15l4.599-1.971l2.956-4.599l-1.807-2.464
		l0.328-2.464l-4.435-4.27l1.15-6.406l-0.657,5.256l1.642,1.807l4.927,1.478l4.27,0.328l3.778-2.135l1.15-2.299l2.464-2.135
		l2.135-6.241l2.135-3.942l1.807,0.493l-1.478,3.942l4.106-7.063l3.121-2.792l0.657-8.705l5.256-5.749l7.062-3.942l8.377-0.493
		l3.449-3.285l-0.329-1.478l4.27-6.898v-2.792l1.807-2.792l0.821-5.913l-0.328-8.212l2.956-1.971l3.613-5.913l4.927-4.927
		l1.642-6.406l-2.299-6.406L488.561,375.166z M392.641,205.829l0.821,0.328l-0.657-0.164l-0.657-0.493L392.641,205.829z
		 M363.241,212.398l3.778-1.971l-2.792,4.435l-7.391,0.164l-0.164-1.971L363.241,212.398z M356.672,216.505l-0.164,1.15
		l-7.884,4.106l-5.749-0.821l1.314-2.135l0.821-1.314l0.493,0.328l0.657,0.821l-1.971,0.164l1.478,0.986l3.942-2.299
		L356.672,216.505z M348.459,204.186l-3.285,0.985l2.956,1.15l0.328-1.807l2.956,0.328l3.285,4.435l-1.15,1.15l-3.613-1.971
		l-1.478,6.241l-2.299,1.314l-0.821-3.449l-3.613-0.164l1.642-1.314l-0.164-3.778l-1.807-0.821l-0.493-3.285L348.459,204.186z
		 M327.6,193.839l6.077-0.328l1.478,4.27l3.121-0.985l1.478,5.913l-1.478-1.314l-7.555,1.15l-2.792-1.642l-2.299-4.106l-1.971-0.164
		L327.6,193.839z M311.34,125.02l5.256,1.642l-5.749-0.821L311.34,125.02z M437.152,468.786l-0.328-1.478l1.478-1.642l0.164,0.493
		L437.152,468.786z M444.214,363.012l0.493-2.464l2.464-0.493l-2.299,2.299l1.478,2.792L444.214,363.012z"/>
	<path fill="#EBE0D4" d="M372.275,300.763l1.642,1.15l5.749,0.821l1.15,1.314l2.299-2.628h5.584l1.807-0.657l-3.942-1.478
		l-0.985-1.807l-3.449-0.985l-2.299,0.821l-4.435-0.821l1.478,1.642l-0.164,3.285L372.275,300.763z M379.173,300.927v0.164v0.164
		l-0.164-0.328H379.173z"/>
	<polygon fill="#EBE0D4" points="574.789,182.506 578.239,182.013 582.345,179.714 585.63,179.385 586.779,176.1 585.958,171.173 
		588.258,168.873 586.451,166.41 582.838,167.067 579.553,166.574 579.06,170.516 574.625,170.187 575.611,172.487 573.64,173.637 
		576.432,175.279 572.819,179.714 	"/>
	<polygon fill="#EBE0D4" points="708.65,244.919 708.485,244.919 708.321,244.919 707.336,245.248 708.814,246.726 709.307,246.726 
		709.635,246.89 711.442,246.233 711.77,245.576 711.934,245.576 712.099,245.576 712.263,245.74 712.427,245.74 713.084,245.576 
		712.756,245.248 714.562,243.277 	"/>
	<polygon fill="#EBE0D4" points="1136.838,416.72 1135.852,414.42 1135.524,414.913 	"/>
	<polygon fill="#EBE0D4" points="1138.809,419.512 1136.838,416.72 1139.137,421.976 	"/>
	<polygon fill="#EBE0D4" points="1135.031,406.865 1132.567,404.73 1130.268,408.179 1135.031,412.778 1135.852,414.42 
		1136.345,413.106 	"/>
	<polygon fill="#EBE0D4" points="1150.634,496.872 1149.156,493.915 1145.542,498.843 1144.393,501.799 1139.958,505.412 
		1135.852,507.383 1130.76,512.311 1129.775,514.939 1133.553,515.596 1134.374,517.567 1139.63,517.238 1143.079,514.61 
		1145.05,508.205 1148.499,506.069 1154.412,498.514 1152.769,495.558 	"/>
	<polygon fill="#EBE0D4" points="1159.668,483.404 1159.339,480.119 1157.04,478.312 1153.098,473.877 1149.32,472.071 
		1154.576,479.79 1156.054,483.896 1155.233,487.838 1152.769,489.809 1157.368,493.094 1155.397,496.872 1157.697,498.021 
		1162.296,492.766 1162.624,489.973 1165.581,488.659 1167.88,483.732 1164.267,484.553 	"/>
	<polygon fill="#EBE0D4" points="370.304,294.357 364.391,292.058 358.971,287.951 357.821,288.116 354.372,286.637 
		346.817,285.816 341.068,287.623 339.59,290.579 343.039,289.265 344.189,291.565 345.831,291.072 343.86,288.608 347.966,287.623 
		348.131,289.101 352.401,289.594 356.179,291.236 358.15,294.193 363.077,294.85 360.942,296.821 371.946,296.164 	"/>
	<polygon fill="#EBE0D4" points="1066.541,496.379 1061.449,494.572 1060.956,495.722 1062.927,501.799 1065.391,505.412 
		1068.019,505.741 1070.154,503.277 1071.468,504.098 1072.618,499.992 1072.125,494.244 	"/>
	<polygon fill="#EBE0D4" points="1061.285,494.572 1061.449,494.572 1061.777,493.422 	"/>
	<polygon fill="#EBE0D4" points="1087.564,442.178 1088.549,439.55 1086.25,440.371 1083.458,436.265 1080.337,433.473 
		1080.501,431.995 1076.724,430.516 1073.275,423.29 1070.647,422.633 1066.212,419.512 1065.719,415.406 1063.42,411.628 
		1063.256,406.865 1060.463,404.237 1058.821,405.387 1057.178,399.31 1053.565,391.919 1051.43,399.146 1050.937,410.314 
		1048.966,414.913 1046.338,415.734 1043.382,413.106 1035.498,409.329 1031.885,406.044 1036.648,398.489 1033.363,397.01 
		1030.899,398.324 1024.986,396.518 1023.015,394.382 1019.73,395.696 1016.117,395.039 1015.132,396.846 1018.252,398.489 
		1015.296,400.46 1012.832,405.058 1014.311,406.537 1009.219,406.044 1004.62,403.087 997.393,408.015 997.229,411.3 
		995.258,410.971 994.601,415.077 992.794,412.121 990.331,414.256 990.823,417.048 986.389,421.976 975.056,425.425 
		973.413,424.932 963.394,431.502 962.737,436.429 965.365,442.342 964.873,444.477 962.409,444.313 967.665,454.661 
		967.665,457.289 969.8,462.216 969.8,467.964 967.665,468.786 967.993,471.742 972.921,474.042 978.341,473.549 983.432,470.1 
		994.601,470.1 996.408,467.307 1002.978,464.187 1006.427,464.351 1011.682,462.38 1018.581,461.559 1022.03,463.53 
		1026.465,463.694 1031.228,469.935 1031.885,472.728 1033.691,472.235 1040.261,467.472 1038.454,470.921 1039.112,474.534 
		1040.425,470.921 1041.739,473.056 1039.604,476.834 1043.218,475.848 1046.01,479.79 1045.517,481.761 1047.488,484.225 
		1051.594,486.196 1053.894,486.031 1057.507,487.838 1062.106,484.389 1061.942,486.524 1066.869,487.51 1072.618,484.06 
		1077.873,482.911 1078.366,477.162 1083.622,466.486 1085.921,465.008 1089.206,452.69 1089.042,447.762 	"/>
	<polygon fill="#EBE0D4" points="762.851,400.788 760.715,397.175 759.073,401.938 757.43,401.773 756.938,404.073 751.189,409.329 
		745.605,410.807 743.962,414.913 745.769,422.797 742.648,427.396 741.827,430.352 743.47,434.458 744.291,439.55 747.74,441.521 
		753.981,439.386 755.459,435.772 760.223,420.005 761.372,414.256 762.686,411.957 761.865,408.672 764.657,408.343 	"/>
	<polygon fill="#EBE0D4" points="559.843,123.213 562.8,120.257 562.8,117.465 559.022,116.315 555.244,112.044 553.766,114.015 
		550.317,115.165 546.375,113.851 543.747,116.151 542.433,114.18 539.148,118.779 538.491,115.001 534.549,112.537 
		532.907,112.701 534.878,115.001 531.757,113.851 530.936,116.151 528.472,117.465 532.743,117.136 536.849,117.957 
		534.714,119.271 537.013,119.928 529.951,120.585 535.371,121.406 537.342,124.034 534.221,126.005 538.984,125.348 
		542.105,127.484 546.704,128.141 555.409,124.527 	"/>
</g>
<path fill="#6C5F82" d="M1016.52,105.209c-49.525-3.323-69.611,28.421-87.827,86.976c-8.331,26.78-18.813,43.984-32.259,56.512
	c-40.933,38.137-114.683,36.216-140.776,33.178l-4.201-16.117c0,0,82.901,17.149,139.544-27.206
	c19.133-14.983,28.836-41.439,42.553-77.696s42.784-63.715,83.052-56.633L1016.52,105.209z"/>
<path fill="#6C5F82" d="M845.717,270.803c3.329-1.531,10.913-7.4,14.203-9.021c10.333-21.529,16.331-57.615-11.628-94.823
	l-1.545,1.162C874.651,211.758,859.824,249.468,845.717,270.803z"/>
<path fill="#6C5F82" d="M585.396,178.66c29.892,23.028,53.495,31.09,109.69,42.769c52.775,10.968,42.784,42.775,42.784,42.775
	l12.916,3.891c0,0,10.151-46.352-55.08-55.149C611.443,201.582,586.829,177.4,586.829,177.4L585.396,178.66z"/>
<path fill="#9C96AD" d="M686.579,107.969c-108.211-28.613-138.684,74.035-251.289,114.267
	c-82.528,29.486-135.898,2.271-154.138-9.969c-4.635-3.111,2.007-16.564,10.058-11.656c23.583,14.377,78.68,38.891,147.584,9.591
	c94.636-40.242,117.637-91.517,183.546-107.654c35.915-8.793,65.397,2.778,65.397,2.778L686.579,107.969z"/>
<path fill="#9C96AD" d="M384.037,227.501c67.174,66.161,162.121-30.928,225.481,38.347l1.102-1.423c0,0-13.938-20.752-41.212-26.971
	c-43.426-9.902-107.378,13.67-136.944,7.653c-26.658-5.426-34.636-17.867-34.636-17.867L384.037,227.501z"/>
<path fill="#9C96AD" d="M286.292,196.189c-15.792-80.806-97.808-58.814-127.959-82.522l-0.935,1.716
	c28.13,23.951,108.852,5.198,121.421,85.867C281.825,200.382,286.292,196.189,286.292,196.189z"/>
<path fill="#6C5F82" d="M730.802,226.738c0,0,1.932-45.516,40.874-60.218l0.376,0.742c0,0-37.47,14.956-35.073,62.199
	C732.893,228.193,730.802,226.738,730.802,226.738z"/>
<path fill="#6C5F82" d="M953.53,128.425c0,0,3.78-8.953-2.481-17.492c-6.261-8.539-6.278-15.775-5.261-19.286
	c0.996,0.217,0.996,0.217,0.996,0.217s-2.098,7.135,5.799,17.552c7.662,10.107,5.542,16.042,5.542,16.042L953.53,128.425z"/>
<path fill="#6C5F82" d="M931.026,176.119c0,0,17.849-11.759,43.663-6.194c22.227,4.792,32.767-4.648,32.767-4.648l1.764,1.326
	c0,0-9.771,11.929-33.495,7.647s-45.225,11-45.225,11L931.026,176.119z"/>
<path fill="#6C5F82" d="M808.771,188.696c0,0,3.894,16.778,23.342,22.936c25.489,8.07,30.714,17.265,30.714,17.265l-3.139,11.978
	c0,0-2.557-17.062-27.165-25.665c-21.755-7.605-24.759-26.012-24.759-26.012L808.771,188.696z"/>
<path fill="#6C5F82" d="M831.917,211.979c0,0,1.919-7.224-1.148-12.958c0.607-0.111,0.523-0.206,0.523-0.206
	s4.309,5.345,2.708,13.685C833.532,212.803,831.917,211.979,831.917,211.979z"/>
<path fill="#6C5F82" d="M1003.907,194.007c0,0-19.675-2.383-25.888-20.886c-4.677-3.507-5.644-0.687-5.644-0.687
	s10.902,22.992,31.706,23.691C1003.874,194.661,1003.907,194.007,1003.907,194.007z"/>
<path fill="#6C5F82" d="M1004.081,183.37c0,0-8.225,2.022-11.061,7.468c-3.372-0.707-3.302-1.775-3.302-1.775
	s6.327-5.971,14.257-7.031C1003.764,181.725,1004.081,183.37,1004.081,183.37z"/>
<path fill="#6C5F82" d="M988.817,172.48c0,0,3.048-17.677,19.344-25.039c-0.083-1.167-0.083-1.167-0.083-1.167
	s-15.914,4.109-22.819,26.635C986.602,172.888,988.817,172.48,988.817,172.48z"/>
<path fill="#6C5F82" d="M991.505,106.575c0,0,6.705,14.754,30.135,10.168c18.408-3.603,30.128,2.006,33.572,4.612l-0.429,0.534
	c0,0-12.549-7.058-32.862-3.166c-20.313,3.891-28.243-3.922-33.512-11.709C992.147,104.206,991.505,106.575,991.505,106.575z"/>
<path fill="#6C5F82" d="M1034.771,115.593c0,0,11.278-12.177,32.575-5.711l0.584-0.777c0,0-20.128-8.12-35.115,6.469
	C1033.681,115.575,1034.771,115.593,1034.771,115.593z"/>
<path fill="#6C5F82" d="M739.208,197.736c0,0,2.367-18.706-16.752-30.1l0.181-0.955c0,0,19.555,9.416,18.858,30.32
	C740.911,196.36,739.208,197.736,739.208,197.736z"/>
<path fill="#6C5F82" d="M925.948,188.325c0,0-3.662-13.335-16.311-33.95c-9.914-16.157-16.625-36.31-14.481-50.75l-1.361-0.2
	c0,0-6.154,20.133,12.586,55.649c13.333,25.268,11.975,42.355,11.975,42.355L925.948,188.325z"/>
<path fill="#6C5F82" d="M901.808,148.805c0,0-4.049-3.547-16.341-4.16c-11.28-0.563-20.198-11.258-20.198-11.258l-0.941,0.84
	c0,0,8.279,11.857,22.598,12.988c14.319,1.132,19.456,11.858,19.456,11.858L901.808,148.805z"/>
<path fill="#6C5F82" d="M655.718,179.346c0,0,9.443,23.992,27.723,32.849c10.526,1.934,14.638,1.092,14.638,1.092
	s-27.77-8.022-40.985-34.463L655.718,179.346z"/>
<path fill="#9C96AD" d="M225.948,125.163c0,0,19.54-3.311,30.758,12.662c5.481,2.033,2.176-2.16,2.176-2.16
	s-11.287-16.16-33.55-11.846C225.948,125.163,225.948,125.163,225.948,125.163z"/>
<path fill="#9C96AD" d="M220.071,98.204c0,0,40.032,14.796,45.377,55.848c-2.135,2.198-5.539,2.293-5.539,2.293
	s1.774-38.494-40.509-56.615L220.071,98.204z"/>
<path fill="#9C96AD" d="M179.762,125.285c-2.207,0.741-4.483,1.643-6.822,2.753c-23.021,10.924-42.004-2.628-50.943-11.587
	c-0.109,0.432-1.021,1.134-1.021,1.134s21.069,25.302,52.562,12.927c4.511-1.772,8.577-2.935,12.228-3.664
	C183.725,126.497,181.716,126.025,179.762,125.285z"/>
<path fill="#9C96AD" d="M512.257,241.853c0,0,25.446,36.575,70.302,47.036l-0.051,0.884c0,0-45.958-3.459-76.698-47.102
	C507.731,238.047,512.257,241.853,512.257,241.853z"/>
<path fill="#9C96AD" d="M547.489,275.658c0,0,10.235,33.883,41.55,52.808l-0.256,0.655c0,0-33.868-13.906-46.367-54.43
	C545.005,271.671,547.489,275.658,547.489,275.658z"/>
<path fill="#9C96AD" d="M593.124,249.522c0,0,24.408-4.862,47.274,9.177c-0.224,0.223,0.664-0.878,0.664-0.878
	s-21.536-16.71-50.925-10.954C591.471,248.472,593.124,249.522,593.124,249.522z"/>
<path fill="#9C96AD" d="M563.385,137.846c0,0,33.368-13.863,68.757-4.411c-0.25-0.193-0.902,2.161-0.902,2.161
	s-32.788-8.888-80.416,12.992C554.924,141.221,563.385,137.846,563.385,137.846z"/>
<polygon fill="#9C96AD" points="219.179,100.824 220.645,97.302 217.066,97.735 "/>
<polygon fill="#9C96AD" points="226.34,126.275 225.613,122.53 222.87,124.87 "/>
<polygon fill="#9C96AD" points="156.694,116.867 159.75,112.876 155.046,112.219 "/>
<polygon fill="#9C96AD" points="120.215,119.178 123.743,115.597 119.157,114.361 "/>
<g>
	<path fill="#9C96AD" d="M427.332,420.756c0,0,22.175-44.038-16.096-85.408c-46.646-50.423-112.4-46.481-112.4-113.042l-12.755-8.5
		c0,0-16.155,51.859,66.766,88.667c106.989,47.492,72.186,118.282,72.186,118.282H427.332z"/>
	<path fill="#9C96AD" d="M364.985,307.56c0,0,0.56,12.897,11.141,34.645c8.293,17.045,13.257,41.323,9.716,55.485l0.723,0.494
		c0,0,8.085-19.438-7.107-56.61c-5.628-13.77-7.508-24.945-8.017-32.494C370.973,302.132,364.985,307.56,364.985,307.56z"/>
	<path fill="#9C96AD" d="M449.623,421.924c0,0,8.078-38.725-22.904-62.673c-1.687,0.241-1.261,4.84-1.261,4.84
		s27.842,15.111,22.508,57.656L449.623,421.924z"/>
	<path fill="#9C96AD" d="M376.127,342.206c0,0-0.643,18.749-11.141,28.416c0.169,0.167,1.086,1.083,1.086,1.083
		s9.979-9.083,12.438-26.229C377.352,343.122,376.127,342.206,376.127,342.206z"/>
	<polygon fill="#9C96AD" points="363.14,373.353 367.99,372.034 364.649,368.658 	"/>
	<polygon fill="#9C96AD" points="385.451,401.141 388.91,397.495 384.301,396.345 	"/>
	<g>
		<path fill="#9C96AD" d="M290.4,249.143c0,0,7.638,16.231-1.494,31.605c0.737,0.908,0.737,0.908,0.737,0.908
			s10.683-12.49,3.426-34.906C291.981,247.539,290.4,249.143,290.4,249.143z"/>
		<polygon fill="#9C96AD" points="288.532,282.276 292.89,279.77 288.801,277.352 		"/>
	</g>
	<polygon fill="#9C96AD" points="424.829,424.05 429.597,420.196 424.209,418.067 	"/>
	<polygon fill="#9C96AD" points="448.63,425.5 451.855,420.287 446.066,420.058 	"/>
</g>
<polygon fill="#9C96AD" points="589.794,329.54 587.142,324.837 584.508,329.206 "/>
<polygon fill="#9C96AD" points="585.971,289.845 581.716,286.522 580.963,291.568 "/>
<polygon fill="#9C96AD" points="612.346,268.095 611.536,262.757 607.522,265.907 "/>
<polygon fill="#9C96AD" points="644.124,260.864 641.975,255.912 638.901,259.983 "/>
<polygon fill="#6C5F82" points="583.191,175.032 584.773,180.193 588.283,176.491 "/>
<polygon fill="#6C5F82" points="654.775,175.181 654.342,180.563 658.97,178.416 "/>
<polygon fill="#6C5F82" points="718.698,164.933 721.531,169.529 723.994,165.061 "/>
<path fill="#6C5F82" d="M674.968,385.274c0,0,5.068,22.125-12.495,35.795l0.298,0.925c0,0,17.923-11.224,15.241-30.807
	C677.512,391.895,674.968,385.274,674.968,385.274z"/>
<polygon fill="#6C5F82" points="659.078,424.216 661.321,419.305 664.318,423.435 "/>
<polygon fill="#6C5F82" points="772.246,169.661 775.375,165.262 770.301,164.734 "/>
<path fill="#6C5F82" d="M686.063,310.622c0,0-40.183,21.465-72.634-4.602l0.448-0.7c0,0,31.922,24.671,71.392-1.4
	C686.254,308.082,686.063,310.622,686.063,310.622z"/>
<polygon fill="#6C5F82" points="615.845,303.933 610.466,303.473 612.589,308.112 "/>
<polygon fill="#6C5F82" points="867.111,132.418 862,130.897 863.187,135.975 "/>
<polygon fill="#6C5F82" points="896.902,105.832 894.662,101.017 891.627,105.351 "/>
<polygon fill="#6C5F82" points="948.174,94.067 946.421,90.099 943.873,93.59 "/>
<polygon fill="#6C5F82" points="1015.868,107.647 1021.572,105.415 1016.801,101.608 "/>
<polygon fill="#6C5F82" points="1065.487,111.236 1070.089,110.05 1066.771,106.672 "/>
<polygon fill="#6C5F82" points="1052.087,122.807 1057.029,122.913 1054.655,118.597 "/>
<polygon fill="#6C5F82" points="1008.774,149.375 1012.169,145.292 1006.954,144.4 "/>
<polygon fill="#6C5F82" points="1009.94,168.513 1011.459,162.588 1005.59,164.233 "/>
<polygon fill="#6C5F82" points="1004.347,185.25 1008.247,181.647 1003.194,180.08 "/>
<polygon fill="#6C5F82" points="845.131,163.838 850.293,166.612 845.615,169.818 "/>
<polygon fill="#6C5F82" points="807.43,185.451 811.139,189.251 806.011,190.555 "/>
<polygon fill="#6C5F82" points="830.868,198 834.533,200.689 829.99,202.404 "/>
<polygon fill="#6C5F82" points="1003.298,197.717 1008.66,195.012 1003.652,191.736 "/>
<polygon fill="#9C96AD" points="693.765,109.625 688.003,102.277 684.64,110.435 "/>
<polygon fill="#9C96AD" points="637.432,136.374 631.894,130.765 629.855,137.93 "/>
<path fill="#6C5F82" d="M893.833,250.044c0,0,38.465-3.263,69.415,16.329c-0.181-0.259-1.507,1.793-1.507,1.793
	s-43.436-17.287-84.247-5.859C883.608,256.501,893.833,250.044,893.833,250.044z"/>
<polygon fill="#6C5F82" points="967.418,270.759 963.809,263.751 959.723,269.98 "/>
<g>
	<path fill="#6C5F82" d="M741.125,273.25c-39.637,21.426-90.116,35.548-89.368,98.68l2.728,0.412c0,0-3.485-50.672,57.072-76.255
		c14.033-5.928,43.498-22.103,34.094-17.087C745.138,279.274,741.125,273.25,741.125,273.25z"/>
	<path fill="#6C5F82" d="M709.854,345.049c0,0-17.385-9.515-16.287-29.002c-3.041-4.993-3.047,0.346-3.047,0.346
		s-1.161,19.677,18.983,30.092C709.854,345.049,709.854,345.049,709.854,345.049z"/>
	<path fill="#6C5F82" d="M714.901,337.003c0,0-8.388-1.175-13.042,2.829c-2.869-1.908-1.621-1.996-1.621-1.996
		s7.085-3.52,14.842-1.561C714.996,335.911,714.901,337.003,714.901,337.003z"/>
	<path fill="#6C5F82" d="M697.755,369.847c0,0-21.902-32.942-2.05-66.695c9.848-5.215,6.83-3.622,6.83-3.622
		s-25.254,29.107-3.308,69.536L697.755,369.847z"/>
	<path fill="#6C5F82" d="M661.473,336.682c0,0,11.096,9.032,14.812,40.283c3.082,25.918,18.797,36.67,30.613,41.204
		c-0.351,0.275-0.622,1.394-0.622,1.394s-28.361-9.295-33.147-42.792c-4.004-28.021-14.05-34.083-14.05-34.083L661.473,336.682z"/>
	<polygon fill="#6C5F82" points="713.772,347.471 710.495,343.181 708.49,347.872 	"/>
	<polygon fill="#6C5F82" points="718.836,337.502 714.774,333.946 713.739,338.942 	"/>
	<polygon fill="#6C5F82" points="700.844,372.76 700.379,367.382 696.171,370.266 	"/>
	<polygon fill="#6C5F82" points="653.198,378.476 656.897,371.204 649.194,371.544 	"/>
	<polygon fill="#6C5F82" points="710.7,420.287 706.585,415.615 704.656,421.173 	"/>
</g>
<circle fill="#FFFFFF" stroke="#9C96AD" stroke-width="3" stroke-miterlimit="10" cx="291.337" cy="210.317" r="15"/>
<path fill="#9C96AD" d="M300.337,207.828c0,0.432-0.353,0.785-0.785,0.785h-1.138l0.273,0.917c0.071,0.238,0.106,0.476,0.106,0.723
	v5.909c0,0.432-0.353,0.785-0.785,0.785h-0.785c-0.432,0-0.785-0.353-0.785-0.785v-1.57h-10.204v1.57
	c0,0.432-0.353,0.785-0.785,0.785h-0.785c-0.432,0-0.785-0.353-0.785-0.785v-5.909c0-0.247,0.035-0.485,0.106-0.723l0.273-0.917
	h-1.138c-0.432,0-0.785-0.353-0.785-0.785c0-0.432,0.353-0.785,0.785-0.785h1.596l0.723-2.434c0.247-0.829,1.014-1.402,1.879-1.402
	h8.034c0.864,0,1.632,0.573,1.878,1.402l0.714,2.434h1.596C299.984,207.043,300.328,207.396,300.337,207.828z M287.663,211.144
	c0-0.6-0.485-1.085-1.085-1.085s-1.085,0.485-1.085,1.085c0,0.6,0.485,1.085,1.085,1.085S287.663,211.744,287.663,211.144z
	 M297.223,211.144c0-0.6-0.485-1.085-1.085-1.085c-0.6,0-1.085,0.485-1.085,1.085c0,0.6,0.485,1.085,1.085,1.085
	C296.738,212.229,297.223,211.744,297.223,211.144z M297.223,208.613l-1.094-3.695c-0.097-0.335-0.406-0.564-0.75-0.564h-8.052
	c-0.344,0-0.653,0.229-0.75,0.564l-1.094,3.695H297.223z"/>
<circle fill="#FFFFFF" stroke="#6C5F82" stroke-width="3" stroke-miterlimit="10" cx="742.767" cy="274.204" r="15"/>
<path fill="#6C5F82" d="M747.448,276.287c0,2.585-2.096,4.681-4.681,4.681c-2.585,0-4.681-2.096-4.681-4.681
	s4.681-9.681,4.681-9.681S747.448,273.702,747.448,276.287z"/>
</svg>
