<?xml version="1.0" encoding="utf-8"?>
<!-- Generator: Adobe Illustrator 22.1.0, SVG Export Plug-In . SVG Version: 6.00 Build 0)  -->
<svg version="1.1" xmlns="http://www.w3.org/2000/svg" xmlns:xlink="http://www.w3.org/1999/xlink" x="0px" y="0px"
	 viewBox="0 0 1268 418" enable-background="new 0 0 1268 418" xml:space="preserve">
<g id="Layer_1">
	<g>
		<g>
			<polygon fill="#DDD9E0" points="569.4,24.3 572.1,22.9 571.1,22.3 567.3,23.4 			"/>
			<polygon fill="#DDD9E0" points="547.8,67.1 546.8,68.4 553.3,67.4 552.4,65.6 			"/>
			<polygon fill="#DDD9E0" points="490.2,72.3 490.5,71 487.5,69.4 483.6,68.6 483.5,71.5 487.3,72.6 			"/>
			<polygon fill="#DDD9E0" points="558.2,71.6 560.2,69.8 557.5,69.8 553.3,68.4 548.6,70.2 547.2,69.8 550,68.2 546.4,68.6 
				547.2,66.4 552.7,65.1 551.9,63.5 555.8,65.6 558,68.3 562.3,67.9 561.5,64.7 558.6,62.9 559.9,62 555.1,59.7 554,57 555.1,57.6 
				557.1,57.8 555.3,57.8 555.9,59.2 560.5,61 561.2,59.8 558.8,58.1 561.3,58.6 558.9,57 555.3,55.1 552.3,56.3 552.6,56.4 
				551.3,56 556.4,54.4 560.3,56 562.1,54.9 564.5,55 562.7,52.2 567.3,51.3 569.5,47.9 572,47.8 567.3,45.9 565.9,41.9 561.8,41.9 
				561.8,39.9 564.6,38.5 568,39.1 568.8,40.7 569.7,37.2 564.7,36.2 563.9,34.9 567.3,35.6 570.7,35 567.3,34.5 567.3,33.7 
				562.1,33.7 564.7,28.8 567.2,29.5 565.9,27.9 568.3,27.3 566.8,25.9 567.7,24.2 565,23.4 568.6,22.1 574.2,21.5 575.6,20.5 
				572.7,19.1 576.6,19.2 579.2,18.4 578.6,17.3 581.4,17.1 586.1,14.6 584.6,13.7 580.1,12.7 575.6,12.6 572.7,14 569,12.7 
				561.2,17.1 558.5,17.7 562.9,14.4 562.5,11.1 558.3,11.5 557,13 550.7,14.9 551,13.8 554.8,12.8 554.9,11.7 547.5,11.2 
				538.3,12.6 535.7,12.6 542.6,10.8 560,9.6 562.6,8 559.6,6.9 555.3,6.4 553.5,4.8 548.4,5.4 542,5.1 538,5.8 530.6,6.3 
				540.5,4.9 551.5,4.6 552.4,4 540.8,2.2 536.4,2 526.4,2.6 521.9,3.2 521.5,4.7 517.6,3.6 518.8,4.8 513.8,4.3 507.8,4.7 
				506.7,5.8 504.6,5.2 502.6,5.9 505.4,6.5 516.5,7.2 505.2,7.2 510,9.2 507.6,11 508.4,9.4 503.8,7.6 500.6,7.9 499.2,7 
				502.6,9.5 507.5,11 507.1,11.3 508.7,12.4 506.7,12.8 504.6,11.3 497.6,9 492.7,8.6 493.9,10.7 496.5,11.9 492.8,11.8 
				494.5,13.2 490.2,11.6 492.3,11.6 487.4,10.1 488.4,12.3 486.3,14.2 486.9,11 484.8,9.5 475,11 468.2,13 469.8,14.4 468,16.9 
				464.7,16 460.4,17.3 458.7,19.1 456.2,19.3 454.1,20.9 455.1,22.4 459.8,22.6 460.3,25.3 457.7,27.5 452.8,27.7 449.7,29 
				442.1,30.5 441.4,32.4 445,34.4 449.3,34.8 446,35.9 445,38.2 449.7,39.7 448.1,40.4 451.8,42.7 456.5,43.4 457.1,41.8 
				462.2,42.5 463.5,41.3 469.6,42.4 475.4,44.5 474.9,46.1 476,47.5 478.6,48.3 480.8,50.9 480.1,52.2 481.7,53.3 480.9,54.5 
				482.8,55.4 481.9,56.9 482.4,60.9 481.4,63 482.7,64.2 485.9,64 489.1,62.9 487.3,65.2 490.9,65.6 490.8,67.2 493.2,67.4 
				491.6,68.4 489.5,67.2 484.4,67.2 486.2,68.5 491.8,70.4 493.3,71.7 492.5,76.1 487.6,76.7 490.7,78.2 487.8,77.6 485.9,82.1 
				489.8,82.8 486.7,84.5 487.6,87.7 488.9,87.4 490.5,90.4 490.3,93.6 492.2,91.2 491.6,95.3 492.9,97.1 494.9,98 494.5,99.7 
				496.8,100.9 497.7,104.1 500.6,105 499.4,105.6 504.7,106.1 506,107.9 509.2,109.3 511.3,108.5 510.7,106.9 512.1,106.5 
				513.4,100.3 511.6,98.8 513.9,99 517.6,95 517.6,90.9 519.9,89 518.4,88.5 522.2,87.7 523.5,85.5 523.7,88 527.3,87.1 531.3,85 
				534.5,81.3 534.4,80.2 537.6,78.2 543.7,77.6 546.9,76.1 551,75.6 556.1,72.2 			"/>
			<polygon fill="#DDD9E0" points="801,246.7 800.4,250.5 800.7,253.4 802.5,255.5 805,254.2 805.3,251.5 802.8,247.4 			"/>
			<polygon fill="#DDD9E0" points="642.7,123.5 641.7,121.8 638.6,123.1 640.4,126 641.4,125.7 			"/>
			<polygon fill="#DDD9E0" points="455,227 457.1,227 459.3,226.1 455,225.5 			"/>
			<polygon fill="#DDD9E0" points="299.7,119 296.7,119.5 297.4,121.7 298.2,120.2 301.1,120.2 			"/>
			<polygon fill="#DDD9E0" points="302.1,124.6 299.5,121.2 298.5,122.5 298.5,124 300.3,126.6 			"/>
			<polygon fill="#DDD9E0" points="294.4,117.1 295.4,115.4 293.3,114.6 291.6,115.4 293,116.8 296,121.7 295.4,117.7 			"/>
			<polygon fill="#DDD9E0" points="248.9,117.5 250,119.2 254.4,117.5 254.4,113.3 252.3,115.3 			"/>
			<polygon fill="#DDD9E0" points="219.6,130.5 221.7,129.8 222,128.4 219.9,128.9 			"/>
			<polygon fill="#DDD9E0" points="208.5,95.9 212.3,96.8 213.6,97.9 215.9,96.6 209.8,95.4 			"/>
			<polygon fill="#DDD9E0" points="460.3,227.6 461,227.3 460.5,227.3 460.3,227.3 			"/>
			<polygon fill="#DDD9E0" points="396.3,48.9 401.2,50.1 420.5,50.5 424.3,49.6 424.8,48.8 425.5,45.7 422,44.2 415.8,44 
				409.6,45.8 407.4,45 403.7,45.8 403.1,44.1 398.2,42.4 402.6,42.3 397.8,39.7 393.9,40 392.4,38.6 387.6,37.8 385.1,38.3 
				387.5,41.2 391.5,41.9 393.7,41.3 396.4,45.1 395.3,46.9 			"/>
			<polygon fill="#DDD9E0" points="401.8,35.9 400.4,35 398.3,36.1 400.9,37.2 			"/>
			<polygon fill="#DDD9E0" points="366.7,55.8 365.4,53.7 362.1,53.9 362.3,55.3 365.1,57.7 			"/>
			<polygon fill="#DDD9E0" points="393.6,34.6 388.5,34.3 387,35.9 392.9,35.9 			"/>
			<polygon fill="#DDD9E0" points="463,152 464.9,153 467,152 466.9,149.7 466.8,152 			"/>
			<polygon fill="#DDD9E0" points="392.6,49.5 392.9,46.7 390.2,44.3 385.9,46.9 388.6,50.2 			"/>
			<polygon fill="#DDD9E0" points="376.1,74.4 380,74.5 385.8,76.6 388.8,74.9 387.4,74.8 386.3,72.7 383.6,70.6 381.8,71 380,73.8 
							"/>
			<polygon fill="#DDD9E0" points="462,141.6 463.2,143.3 466.4,144.3 467.3,143.4 			"/>
			<polygon fill="#DDD9E0" points="470.3,150.3 468.6,152.6 468.6,154.7 472.2,153.3 			"/>
			<polygon fill="#DDD9E0" points="386.3,59.7 385.1,56.3 384,57.2 381.5,56.9 384.3,55.3 384,53.2 382.3,52.8 382.8,50.2 
				381.8,52.1 377.5,53.7 375.4,53.3 373.7,54.9 377.5,57.2 374.6,58.3 372.7,56.7 371.4,58.6 377.9,62.1 380.6,64.7 385.6,62.3 			
				"/>
			<polygon fill="#DDD9E0" points="374.8,72.3 375.1,69.4 374,69.8 368.2,67.1 366.6,65.5 367.5,64.4 365.8,61 365,58.1 358.8,54.7 
				358.4,55.8 359.4,63.1 357.3,59.1 353.8,57.1 352.4,57.1 354.6,59.3 352.4,59.1 350.2,60.3 351.1,58.3 347,57 345.3,58.8 
				344.8,56.6 343.3,55.4 336.8,57.5 333.8,59.7 334.9,60.5 332.7,61.9 332.7,63.2 335.1,63 336.3,64.4 339.7,64.4 334.3,65.8 
				337,67.9 345.9,67.3 349.1,68 348,69.4 344.3,68.9 337.6,69.6 336.5,70.2 340,73.1 345.4,73.6 345.5,75.2 347.6,76.6 350.4,76.3 
				350.5,77.1 353.5,75.9 360.4,74.3 362.1,72.3 362.6,73.6 369.4,75.3 373.5,73.8 372.7,72.3 370.9,72.7 372.5,70.6 			"/>
			<polygon fill="#DDD9E0" points="482.1,138.6 482.5,136.5 479.4,137.3 477.9,139.2 474.7,145.6 473.2,147.8 473.8,148.8 
				476.3,148.3 482.5,149 481.3,150.8 486,149.3 486.9,151.5 488.2,151 489.1,148.9 488.4,147.2 486.2,148.3 487.3,146.3 486,145.7 
				487.1,143.6 484.6,142.4 483.8,143.6 480.9,142.3 480.9,139.1 			"/>
			<polygon fill="#DDD9E0" points="328.4,43.4 330.9,43.9 334,41.4 333,40.7 335.9,39.3 335.2,41.2 340.2,39.7 339.1,37.6 
				341.3,36.7 339,35.4 333.3,36.4 326.8,41 323.9,42 324.9,43.5 			"/>
			<polygon fill="#DDD9E0" points="355.7,42.6 354,43.6 356.7,45.6 351.1,45.4 350.7,43.9 347,41.8 344.8,42.1 343.7,39.6 
				342.6,39.3 342.6,40.5 340.1,41.4 336.4,46.9 342.4,48 344.5,46.2 344.8,47.5 351.9,46.7 350.4,47.8 347.5,48 343.7,49.4 
				347,50.7 350.2,50.2 356.8,47.5 357.8,48.3 363.4,47.7 364.3,46.2 367.6,47.8 368.6,46.2 364.6,45.2 364.6,43.6 362.1,42.9 
				361,43.6 357.7,42.9 358.6,41.8 356.9,38.9 353.1,41.6 			"/>
			<polygon fill="#DDD9E0" points="351.4,31.2 353.2,31.7 355.4,31.6 355.2,30.1 353.1,29.2 346.5,31.1 346.6,31.8 			"/>
			<polygon fill="#DDD9E0" points="333.8,45.4 335.4,44.3 336.1,42.5 331.9,45.1 			"/>
			<polygon fill="#DDD9E0" points="400,15.1 404.9,13.9 400.2,16.2 401.5,17.2 409.3,16.5 408.8,17.2 402.6,18 407.5,19.3 
				410.3,17.2 408.7,19.4 414.4,19.9 416.9,18.9 417.8,19.8 425.5,18.2 432.6,17.8 424.7,19.4 429.3,19.4 417.1,21 420.7,23.2 
				419.5,23.4 415.7,21.4 409.4,21 409.3,24 412.9,24.7 414.6,28.3 409.1,29 407,30.8 407,32.6 411.8,32.6 411.7,35.5 415.5,35.8 
				418.8,33.4 416.4,36.5 411,35.8 410.1,34.3 405.4,34.2 406.6,36.5 405.2,37.6 399.8,39.7 401,40.8 407.2,40.9 414.2,41.6 
				415.5,40.8 422.8,41 422.1,42.5 426.1,41.6 425.3,43.7 427.2,43.9 426.4,41.5 429.9,39.9 429.6,38.3 426.1,38.6 427,37.7 
				422.8,36.5 426.6,36.7 429.9,35.3 429,33.3 432,33.7 435,32.6 436.2,31.2 432.9,30.4 436.8,30.1 437.3,29.1 434.6,28.1 
				429.6,27.8 433.8,27.4 437.6,27.8 437.7,26.8 430.9,26.5 430.8,25.6 434.2,26.2 440.7,25.2 440.3,23.8 444.7,24.1 446.6,21.9 
				452.2,18.6 461,14.2 448,16.4 456.1,14.4 459,12.9 461.4,13.2 468.6,10.5 468,8.8 465,8.6 460.6,6.3 454.1,7.8 451.4,8 
				456.7,6.4 449.1,5.8 448.8,5.1 441.1,5.3 439.2,6.5 438.3,5.8 433.8,5.4 431.4,6.5 424.3,6.2 424.9,7.2 421,7 423.2,8.4 
				419.8,7.6 418.3,9.4 424.5,11.8 417.7,9.9 411,8.9 412,10 408.8,10.8 413.5,11.7 405.8,11 402.6,12.7 398.8,12.6 396.6,13.7 
				402.1,13.7 			"/>
			<polygon fill="#DDD9E0" points="345.6,34.2 346.5,35.6 349.1,36.6 353.5,35.8 354.8,33.3 352.4,32.7 346.5,33.7 343.9,32.8 
				342.1,33.4 344.3,34.6 			"/>
			<polygon fill="#DDD9E0" points="366.4,37.7 365.8,36.1 363.3,34.5 364.5,36.7 			"/>
			<polygon fill="#DDD9E0" points="387.6,25.9 391.9,26.7 395,25.7 396.7,27.2 393.5,27.2 391,28.1 396.4,32.1 403.3,32.2 
				405.3,30.8 405.3,28.3 406.9,29.7 409.3,27.7 413.1,26.4 411.5,25 407.9,25 408.2,23.2 406.5,20.4 404.7,20.3 403.4,21.6 
				402.7,19.8 399.4,19.7 396.8,16.4 393.5,15.1 390.8,15.7 393.7,16.7 389.7,16.9 388.2,18.3 389,19.4 387,19.6 385.6,21.1 
				389.7,22.5 385.4,21.9 			"/>
			<polygon fill="#DDD9E0" points="385.3,33.8 389.2,33.3 389.8,31.3 384.9,29.6 382,29 381.3,30.6 382.8,32.9 			"/>
			<polygon fill="#DDD9E0" points="377,39.6 374.8,40.3 378,43.4 373.4,40.9 372.4,43.1 369.8,44.3 372.6,44.1 371.4,45.6 378,44.7 
				375.9,45.8 376.8,47.8 382.2,47.8 382,46.3 383.8,44.7 383.1,40.8 380.1,40 379.6,40.9 			"/>
			<polygon fill="#DDD9E0" points="371.2,41.5 368.1,39.8 367.3,41.5 368.9,43.6 372,43 			"/>
			<polygon fill="#DDD9E0" points="369.3,30.6 365.8,30.6 367.1,31.8 371.2,31.2 371,32.1 375.1,32.1 374.7,34 379.9,33.7 377.9,31 
				378.6,30.1 373.7,27.5 371.9,27.9 368.8,26.1 364.9,26.3 364.5,27.9 368,28.1 			"/>
			<polygon fill="#DDD9E0" points="323.4,145 319.5,143 318,140.9 317.8,140.5 310.8,139 315.9,143.6 319.6,145.7 322.2,146.5 			
				"/>
			<polygon fill="#DDD9E0" points="436.2,80.3 436.1,77.5 435,77.2 432.4,77.4 430.9,79.6 431.8,81.5 434.4,81.4 			"/>
			<polygon fill="#DDD9E0" points="447,66.2 444.4,63.7 441.1,63.5 437.3,63.1 438.2,61.3 435.7,61 436,59.3 430.3,58.2 427.1,60.3 
				425,59.3 423.6,60.8 424.1,58.3 421,53.9 418,53.8 412.4,56.1 411.2,58.7 412.8,60.4 410.6,61.4 414,63.9 413.3,64.7 410.2,62.5 
				408.8,58 412.6,53.4 408.8,53.3 406.4,53.9 403.3,56 400.9,61.9 401.6,64.5 405.6,65 407.5,65.8 402.2,65.6 404.2,68.2 
				409.2,68.6 409.9,69.8 416,70.4 418.7,71.2 420.9,70.2 424.4,72.2 425.4,70.9 427.7,70.1 426.8,67.9 430.1,69.4 430.1,71 
				427.4,72.2 426,74.7 427.4,74.7 428.1,72.3 430.4,71.2 433,72.5 430.9,72.6 432.5,75.6 435.2,74.3 438.3,76.4 437.8,79.3 
				440.1,79.3 438,78.1 438.9,76.7 441.1,77.5 442.6,82 437.7,85.8 440,88.5 438.7,88.2 434.6,89.4 430.7,88.5 429,90.4 430.4,92.8 
				430.1,96.1 428.2,95.9 429.5,97.5 431.1,95.7 432.8,96 430.4,93.9 432.9,93.3 434.5,91.7 437.2,92.6 438.7,91.4 443,95.3 
				445.2,95.7 444.2,97.1 446.4,99.5 449.1,99.1 451.5,100.6 454.4,100.9 458.9,102.6 457.7,100.7 450.6,95 454,96.1 456.2,98.1 
				460.8,98.1 461.9,94.8 459.5,93.9 459.4,91.7 455.4,89.9 455.4,88.9 452.4,87.2 455.1,86.4 453.1,84.6 455.6,84.2 459,86.4 
				458.9,87.7 461,89.9 463.8,89.4 463.1,88.4 466.6,87.7 465.7,85.5 468.2,85 467,82.3 463.8,82.9 464.2,81.2 460.6,78.5 
				457.7,78.3 455.5,76.7 452,76 453.6,73.7 456,73.6 452.9,71.1 455,71.3 452.8,68.8 452.4,69.6 449,69.6 452,67.7 			"/>
			<polygon fill="#DDD9E0" points="422.8,55.9 424.8,57.8 433.3,58 433.5,56.7 429.7,54.4 422.7,53.8 			"/>
			<polygon fill="#DDD9E0" points="415.5,99.7 417.3,100.8 420.1,98.8 419.6,97.9 416.9,98 			"/>
			<polygon fill="#DDD9E0" points="424.2,94.8 421.4,93.8 419,91.1 415,89.5 412.6,87.3 410.7,87.3 409.6,91.8 410.1,93.7 
				407.7,95.7 411,95.2 411.4,96.9 413.9,96.6 417.5,93.3 418.8,95.3 422.2,96.1 			"/>
			<polygon fill="#DDD9E0" points="323.3,65.6 329.1,63.7 329.5,61.8 332.5,58.8 341.6,54.9 337.9,52.2 335.1,51.2 330.2,51.2 
				326.8,50 319.4,51 321.7,53.7 318.6,57.6 316.7,61.8 321,62.9 			"/>
			<polygon fill="#DDD9E0" points="303.2,128.3 300,128.2 300.1,130.4 304.4,135.2 302.2,131.5 			"/>
			<polygon fill="#DDD9E0" points="628,268.8 628.4,269.2 628.8,268.7 628.4,268.3 			"/>
			<polygon fill="#DDD9E0" points="918.2,188.3 916.7,186.4 917.3,188.7 919.1,189.8 919.2,193.8 921.8,193.5 923.5,189.4 
				922.7,187.7 919.8,187 			"/>
			<polygon fill="#DDD9E0" points="938.6,176.2 938.1,178.1 935.1,179 932.3,182.5 925.9,182.4 920.7,186.4 923.6,187 925.6,186.2 
				924.2,188.1 924.7,189.9 926.3,188.3 928.5,188.6 929.6,185.9 925.6,186.2 929.9,184.6 931.2,184.8 930.6,187 932.7,187.7 
				934.9,185.9 934.8,184.6 938,184.8 941.6,183.2 942,184.3 944.2,182.1 943.5,180.6 944.6,177.6 944.7,174.9 947,171.7 
				945.6,168.6 942.9,168.1 941.9,168.8 942.3,171.7 940.8,175.4 			"/>
			<polygon fill="#DDD9E0" points="941.9,163 942.6,166.6 943.9,165.4 942.9,164.1 946.2,163.2 949.7,165 950.7,163 954.8,161.2 
				953.6,159.4 951,158.9 946.8,154.8 945.3,155.8 946.4,157.5 945,161.7 			"/>
			<polygon fill="#DDD9E0" points="468.2,232.9 468.5,233.5 468.7,232.8 468.4,232.6 			"/>
			<polygon fill="#DDD9E0" points="431.2,227.5 433.6,227 430.7,225.6 428.5,226.1 			"/>
			<polygon fill="#DDD9E0" points="469,238.3 469,237.9 468.7,238 468.9,238.6 			"/>
			<polygon fill="#DDD9E0" points="983.4,286.6 980.9,284.8 979.9,285.7 982,286.1 981.3,287.7 984.6,289.8 983.6,288.2 
				985.2,287.1 			"/>
			<polygon fill="#DDD9E0" points="991.6,289.5 988.3,291.1 990.7,292.6 990.1,290.8 993,292.3 			"/>
			<polygon fill="#DDD9E0" points="469.5,236.2 469.1,236.8 469.5,237 469.6,236.2 			"/>
			<polygon fill="#DDD9E0" points="635,163 633.3,163.3 633.6,166.1 634.6,166.6 			"/>
			<polygon fill="#DDD9E0" points="1006.1,319.3 1004.2,320.8 999.8,317.4 999.5,318.5 1003.9,322 1005.3,321.6 			"/>
			<polygon fill="#DDD9E0" points="667.8,36.4 670.3,34 668.4,33.8 666.8,31.8 661.9,32.8 663.8,33.5 662,36 666.5,35.4 665.6,36.9 
							"/>
			<polygon fill="#DDD9E0" points="648.8,76.6 648.7,76.5 648.3,76.6 			"/>
			<polygon fill="#DDD9E0" points="642,28 640.7,28.8 640.4,30.8 638.4,28.6 639,31 641.4,32.1 641.1,30 643.4,32.2 647.3,31.2 
				647.7,29.4 650,31.5 648.2,32.6 644.9,32.9 645.1,34.4 652.3,33.8 645.6,35.5 646.7,37.2 652.3,40.3 654.6,35.9 655.7,35.8 
				657.5,30.8 663.5,28.8 659.3,27.2 657.4,27.2 656.9,25.2 654.2,23.2 651.1,22.4 649.8,23.4 651.2,28.5 648.8,24.7 647.1,23.7 
				645.5,25.2 645.4,23.4 641.9,24.5 640.7,23.5 638.7,24.3 638,25.1 639.3,27.5 			"/>
			<polygon fill="#DDD9E0" points="663.4,30.2 660.3,30.6 662.4,32.2 665.2,31.8 			"/>
			<polygon fill="#DDD9E0" points="650.8,73.1 649.2,74.8 646.7,75.6 648.7,76.5 650,76 			"/>
			<polygon fill="#DDD9E0" points="644.4,78.2 648.3,76.6 645.7,77.1 			"/>
			<polygon fill="#DDD9E0" points="664.4,23.6 664.3,24.2 659,24.8 659.2,26.3 666.7,25.8 666.7,26.8 673.6,25.7 673.6,24.7 
				676.7,23.5 675.9,21.8 670.1,21.1 667,21.8 666.3,19.9 665.5,22.6 664.3,21.3 661.9,21.5 661.1,19.1 656.4,21.4 655.7,23.2 
				657,24.2 			"/>
			<polygon fill="#DDD9E0" points="465.4,228.6 465.5,228.7 465.3,228.3 464.9,228.3 			"/>
			<polygon fill="#DDD9E0" points="873.8,221.9 870.9,221.9 868.4,223.7 868.5,225.6 870.6,226.4 872.5,225.1 			"/>
			<polygon fill="#DDD9E0" points="731.8,207.7 731.9,206.7 731.6,206.6 731.5,207.2 			"/>
			<polygon fill="#DDD9E0" points="925.9,282.5 929.1,284.1 929.9,282.6 926.2,281.7 			"/>
			<polygon fill="#DDD9E0" points="912.9,265.3 912.6,268.5 913.4,271.4 915,271.4 913.4,267.5 914.3,263.9 			"/>
			<polygon fill="#DDD9E0" points="865.3,276.1 863.6,276.2 862.4,273 860.3,273.9 863.5,276.6 			"/>
			<polygon fill="#DDD9E0" points="909.1,275 909.6,277.8 911,278.4 914.3,276.6 915.1,277.4 917.6,277.1 920.7,278.4 920,276.6 
				917.3,275.8 913.3,276.7 909.5,276.6 			"/>
			<polygon fill="#DDD9E0" points="886.7,288.6 885.7,290.2 888.1,290.7 891.6,290.1 892.8,288.8 889.4,289 			"/>
			<polygon fill="#DDD9E0" points="862.4,276.9 861.4,275 858.8,273.6 858.1,270.4 856.2,270.1 857,268.7 854,267 851.9,264.3 
				849.3,264.3 847.5,261.8 844.1,259.8 842.2,257.1 838.9,256.9 837.3,256.1 837.3,258 842.5,262.6 841.1,266 842.7,268 843.2,267 
				841.7,264.5 844.7,264.8 846,268.7 844.1,269.3 845.4,273.3 846.3,273.5 844.3,269.3 847.5,269.4 850.7,275.3 855,279.9 
				859.2,283.2 861.7,283 			"/>
			<polygon fill="#DDD9E0" points="904,288.7 904.9,289.3 908.8,288.1 902.1,288.6 900.5,289.6 895.6,288.7 894.3,291.2 
				892.7,291.8 896.2,293.5 897.1,293 895,290.1 899.3,290.2 			"/>
			<polygon fill="#DDD9E0" points="905.3,268.3 907.3,265.3 904.1,267.4 897.2,266.1 895.3,267.6 893.5,274 892.3,276.1 
				894.3,279.4 893.7,281.8 895.9,282.2 896,276.8 897.7,275.8 897.2,277.5 898.9,278.9 899.8,282.1 900,279.9 901.4,282.6 
				902.6,278.7 900.4,277.9 900.5,276.2 899.1,273.7 903.2,271 899.1,270.4 896.7,272.6 895.1,269.8 896,268.2 			"/>
			<polygon fill="#DDD9E0" points="907,291.5 912.3,289.1 907.3,289.6 906.7,290.3 905.9,290.8 905.6,290.8 904.9,291.1 
				904.6,291.2 903.4,293.6 905.6,293.1 			"/>
			<polygon fill="#DDD9E0" points="870.3,272.4 871.2,271.9 872.2,276.3 875.7,276 875.9,277.7 878.8,276.2 882.1,277.4 882.5,279 
				885.8,277.9 887.2,274.5 886.7,273.5 889.1,270.6 890,267.5 892.8,267.1 890.1,264.9 889.4,259.6 889.7,259.5 889.7,259.6 
				889.6,260 890.2,259.6 890,259.5 892.2,258.9 890.7,257.9 893.4,257.2 889.9,255.5 888.1,252.1 884.8,257.2 883.7,257.8 
				883.7,258 883.5,258 884.2,259.3 883.5,258.5 883.5,258 883.5,257.8 883.3,257.9 882.2,258.4 881,258.5 878.7,262 874.8,262.8 
				874,265.6 870.8,264.4 868.9,267.4 			"/>
			<polygon fill="#DDD9E0" points="885.1,289 879.4,287.6 878.1,286.1 882.5,286.1 884.2,285.3 876.5,285.4 873.8,284.3 
				872.7,285.5 868.4,285.2 864.7,283.2 862.4,283.1 860.9,285.3 863.5,285.7 863.5,286.6 867.6,287.6 869,287.1 872.8,288.4 
				877.9,289.1 879.2,288.7 882.4,289.9 			"/>
			<polygon fill="#DDD9E0" points="469.3,245.5 469.6,243.9 467.7,244.2 468.2,245.1 			"/>
			<polygon fill="#DDD9E0" points="433,208.8 433.6,210.5 435.5,211.6 435,210.5 			"/>
			<polygon fill="#DDD9E0" points="431.2,207.5 430.9,209.4 428.4,210.5 430.3,212.7 429.9,210.4 432.4,208.2 			"/>
			<polygon fill="#DDD9E0" points="436.8,214.6 435.5,211.6 434.1,212.9 			"/>
			<polygon fill="#DDD9E0" points="453,412.8 448.4,413.2 454.9,416 451.4,413.7 456.2,414 			"/>
			<polygon fill="#DDD9E0" points="439.6,374.9 438.7,373.3 438.2,376.7 436.9,378.6 439.4,377.7 			"/>
			<polygon fill="#DDD9E0" points="449.6,405 447.1,406.7 447.6,408.1 446.1,409.4 445.9,411.3 443.3,411.9 451.3,412.7 
				451.5,412.7 451.3,412.4 451.4,405.6 			"/>
			<polygon fill="#DDD9E0" points="445.8,410.2 440,407.7 440,410.1 445.4,411.1 			"/>
			<polygon fill="#DDD9E0" points="438.4,381.8 438.8,384.8 439.6,381.4 439.3,379.4 436.9,381.4 			"/>
			<polygon fill="#DDD9E0" points="888.6,249.7 894.5,244.7 894,243.6 896,241 894.9,240.4 894.6,242.6 			"/>
			<polygon fill="#DDD9E0" points="902.6,242.4 899.7,240.5 899.7,244.9 901.3,244.3 900.8,246.3 902.2,248.2 905.9,245.9 
				903.7,245.8 			"/>
			<polygon fill="#DDD9E0" points="905.2,239.9 907,241.7 905.3,242 905.4,243.7 907.6,246 907,242.9 908.3,242.9 907.3,239.7 			
				"/>
			<polygon fill="#DDD9E0" points="908,245.6 908.1,248.2 906.4,248.1 904.2,250.2 904,249.2 900.2,251 899.8,254.4 901,251.3 
				901.8,252.3 903.8,251 905.1,254.8 907.8,256.3 908.8,252.1 909.7,254.6 910.7,252.3 910.3,250.1 			"/>
			<polygon fill="#DDD9E0" points="895.4,234.5 897.5,235.2 896,237.5 898.1,240.6 899.2,236.4 901.3,238.4 901.1,236.4 
				902.9,238.8 903.2,240.7 904.7,241.8 904.9,237.5 900.9,235.6 899.2,235.9 899.4,233.9 898.3,233.2 901.1,228.9 899.8,226.1 
				896.6,225.5 895.9,231.5 894.6,230.8 			"/>
			<polygon fill="#DDD9E0" points="467.9,240.7 467.7,240.6 467.6,241.1 467.9,241.1 			"/>
			<polygon fill="#DDD9E0" points="467.5,228.9 467.3,228.9 467.4,229.2 467.7,229.1 			"/>
			<polygon fill="#DDD9E0" points="472.9,238.6 473,238.5 472.7,237.9 472.7,238.5 			"/>
			<polygon fill="#DDD9E0" points="632.7,169.5 633.1,173.5 635.3,172.9 635.9,169 634.6,167 632.1,168.1 			"/>
			<polygon fill="#DDD9E0" points="648.5,178.1 649.3,175.1 645.2,176 642.9,175.4 642,176.4 648.3,179.6 			"/>
			<polygon fill="#DDD9E0" points="646.6,181.7 647.1,181.8 646.9,181.6 646.6,181.2 			"/>
			<polygon fill="#DDD9E0" points="961.8,282.6 964.8,284.1 966.8,284.1 970.6,282.1 971.3,279.4 969.4,279.1 969.8,280.6 
				967.2,282.3 959,282.1 			"/>
			<polygon fill="#DDD9E0" points="944.5,275.5 941.9,274.8 937,272.8 935.5,273.5 932.6,273.1 933.4,275.3 930.4,277.1 
				928.4,274.7 928,271 925.1,270.2 921.6,271.3 920,270.3 920.7,272.4 922.9,272.9 923.5,274.2 928,275 923.8,275.6 925.6,277.7 
				927,277.7 931,279.8 932.7,279.9 937.6,282 939.6,286.5 937.6,287.1 936.6,289.1 942,288.4 944.5,290.7 948.4,291.2 950.2,290.3 
				951,287.1 956.5,288.2 958.8,291.5 960.9,293.1 966.6,293.6 968.6,293.3 966.2,290.9 965.7,291.9 962.3,290.4 961.3,288.2 
				959.1,286.8 958.6,285.2 960.7,285 959.7,283.3 955.6,282 955.9,280.7 952.8,278.3 			"/>
			<polygon fill="#DDD9E0" points="972.6,280.6 973.1,279.3 970.5,276.9 966.2,274.8 965,273 965.6,275.1 971.1,277.7 			"/>
			<polygon fill="#DDD9E0" points="857.4,266.1 857.2,266 856.7,266.3 857.1,266.4 			"/>
			<polygon fill="#DDD9E0" points="472.7,401.4 470.6,402 470.3,404.2 473.4,401.8 472.3,404.6 477.1,402.5 476.6,401.5 			"/>
			<polygon fill="#DDD9E0" points="599,118.1 598.9,118.1 599,118.1 			"/>
			<polygon fill="#DDD9E0" points="599.1,119.7 597.4,120.1 599.4,121.5 597.6,122.8 599.2,124.5 600.6,122.5 602,123.9 
				600.8,126.1 602.6,127.4 602.6,126.2 604.8,126 604.2,127.2 606.3,128.4 605.3,130.8 603.1,131.2 603,134.3 600.4,135.4 
				605.7,137.6 603.1,137.6 600.1,140.8 604.2,140.7 604.6,139.7 609.8,138.9 613.4,139.1 616,137.9 614.9,136.5 617,133.6 
				615.9,132.2 613.6,131.7 612.7,128.4 610.2,126.8 609,123.6 605.3,122 608.7,117.4 608.3,116.6 604.6,116.5 603.3,115.8 
				605.2,114.4 606.9,111.7 605,111.6 604.8,113.3 601,113.3 599.2,116 599,118.1 599.4,118.2 			"/>
			<polygon fill="#DDD9E0" points="596.9,115.9 598.1,113.8 596.3,114.7 595,116.9 598.9,118.1 			"/>
			<polygon fill="#DDD9E0" points="676.5,182.8 669.9,183 671,184.1 674.6,183.9 			"/>
			<polygon fill="#DDD9E0" points="1032.2,309.1 1030.4,310.7 1029.7,309.7 1030,312.2 1031.9,312.5 1032.7,314.2 1032.5,310.7 
				1034.6,308.7 1036.6,309 1035.8,307.5 			"/>
			<polygon fill="#DDD9E0" points="746.7,19.1 750.8,17 744.9,16.7 739.9,18.2 744.2,19.3 			"/>
			<polygon fill="#DDD9E0" points="741.1,20.3 740.8,21.1 737.2,20.5 736.7,21.8 740.8,21.5 			"/>
			<polygon fill="#DDD9E0" points="750.2,14.6 749.1,13.3 744.2,16.2 748.6,16.5 			"/>
			<polygon fill="#DDD9E0" points="766.7,17.7 765,16.1 763.4,17.3 760,18.1 761.3,18.9 			"/>
			<polygon fill="#DDD9E0" points="744.5,20.9 743.9,22.1 747.3,21.6 751.2,23.4 750.3,20.2 			"/>
			<polygon fill="#DDD9E0" points="758.9,19.3 757.8,17.1 759.9,13.5 758.3,14 757.9,16.6 754.1,17.2 752.3,19.8 756.4,20.5 			"/>
			<polygon fill="#DDD9E0" points="726.5,73.2 727.1,75.5 730.7,74.5 730.9,73.3 728.7,72.2 			"/>
			<polygon fill="#DDD9E0" points="726.4,18.2 724.6,18.1 718.9,19.2 721.2,20.3 			"/>
			<polygon fill="#DDD9E0" points="722.6,21 729.3,21.9 731,22.7 729.8,20 734.5,19.1 731.4,17.1 728.1,18.4 729.6,19.2 			"/>
			<polygon fill="#DDD9E0" points="737.5,66.1 737.3,64.4 738.9,65.1 738.3,66.6 743.2,67.1 747.2,68 748.5,67.1 744.8,64.8 
				743.1,60.2 745.6,56.1 742.1,55.1 737.9,56.5 736.2,61.2 734.8,60.9 734.1,63.5 			"/>
			<polygon fill="#DDD9E0" points="934.8,46.2 937.2,48.6 939.9,49.5 946.6,47.9 947.8,48.8 952.3,47.7 954.9,45.4 951.5,43.9 
				948.2,43.7 945.5,42.3 944.5,45 939.6,42 936.1,43.4 936.5,44.2 933.2,45 932.1,43.9 931.5,46.1 932.8,45.8 			"/>
			<polygon fill="#DDD9E0" points="878.2,52.2 879.5,51 876.3,50.1 875.1,51 			"/>
			<polygon fill="#DDD9E0" points="836.3,22.1 834.4,24 830.1,25.8 833.4,25.2 836.3,27.8 840.5,28 842.8,29 846.6,29 848.2,24.3 
				846.2,22.4 844.3,23.4 842.5,21.8 			"/>
			<polygon fill="#DDD9E0" points="943.6,52.8 943.4,54.9 949.6,56.4 950.2,54.7 947,52.9 			"/>
			<polygon fill="#DDD9E0" points="967.2,48.4 967.7,47.3 962.4,46.9 962,45.9 956.5,46.8 961.4,48.8 			"/>
			<polygon fill="#DDD9E0" points="753,71.3 755.1,70.5 752.5,68.6 750.7,69.9 			"/>
			<polygon fill="#DDD9E0" points="1040.2,65.8 1042.3,64.8 1040.1,63.6 1036.9,63.4 1033.7,64.8 1033.6,66.8 1036.3,65.9 			"/>
			<polygon fill="#DDD9E0" points="780.2,55.5 777.4,55.3 777.2,57 781.5,56.1 			"/>
			<polygon fill="#DDD9E0" points="831.1,19.9 828.1,21.1 833.3,22.7 835.2,22 841.5,21.4 841.5,19.2 843.2,18.9 838.2,15.6 
				831.8,17.2 830.4,18.4 827.7,16.7 830.6,18.6 			"/>
			<polygon fill="#DDD9E0" points="759.6,42.1 756.6,41.8 756.6,42.7 751,43.6 749.7,45.1 747,46.1 743.4,49.5 741.7,52.6 739,53.7 
				742.3,55.1 746.4,56 749.9,51.7 749.7,49.9 752,50.5 757.3,46.3 770.8,42.6 775,40.3 773.9,38.3 770.3,38.5 763.4,41.6 			"/>
			<polygon fill="#DDD9E0" points="833.3,23.1 828.7,22.4 827.5,23 830.7,24.5 			"/>
			<polygon fill="#DDD9E0" points="848.1,33.4 850.9,32.2 856.8,31.8 860.4,30.7 862.4,31.8 860.3,29 857.1,27.2 852.4,26.1 
				846.4,32.9 			"/>
			<polygon fill="#DDD9E0" points="958.3,157.8 959.2,157 958.1,157.8 			"/>
			<polygon fill="#DDD9E0" points="948.8,129.8 946.3,130.8 946.2,135.9 947.5,138 947.3,141.1 946.6,145.1 947.3,147.6 
				946.4,151.6 947.2,153.7 947.9,151.5 950.1,151.7 948.2,147.3 949.9,143.3 952.2,143.6 949.6,135.5 949.9,131.5 			"/>
			<polygon fill="#DDD9E0" points="959.2,157 960.3,156.3 962.9,155.3 960.8,155.7 			"/>
			<path fill="#DDD9E0" d="M1055.8,82.6h-5.5l-0.9,1.7l-2.1-4.5l-2.8-0.9l-5.5-3.6l-6.5-3.1l-6.8-1.6l-11.5-1l0.7,4.7l-3.1,0.9
				l-3.1-2l-0.5-1.8l2.6,0.5l0.5-1.2l-2.7-0.6l-3.1,2.2l-5-0.4l-1.8-0.9l-5,0.6l-2,0.9l-3.2-2l1-1.6l-1-1.7l-2.8-1.2l-6-0.6
				l-5.4,1.1l-3.4-0.1l-1.4-1.8l-3.9-1.6l0.2-1.1l-3.9-1.7l-7.7,0.2l0.7-1.4l-9.1-1l-4.7,1.2l-0.9,1.5l2,3.1l-2.9-0.7l-4.2,0.5
				l-2.5-0.5l-3.4,1.2l-2-0.4l-2.7-1.8l-2.3,4.3l-1.5,0.5l-2.7-1.6l-4.4-5.6l2.5,1.6l1.5-0.9l-2.2-1l2-2.5l-5.6-2.3l-1.5,0.6
				l-3.9-1.4l-0.4-1l-3.2,2.5l-0.6,2.2l-6.5-0.4l-4.1-1.1l-0.1-1.7l-5.3-0.4l-0.6-3.2l-1.2,3.1l-4.5,0.9l-0.9-1.7l-1.7,0.9l-5.5-1.5
				l-1.2,1.1l3.3,0.5l-7.5,2.3l-3.2-0.1l1.8-2h2.1l4.4-3.3l8.6-4.4l-2.5-2.7l2.7,1.2l-0.7-2.9l-1.8-0.1l-0.1-1.8l-3.3-0.7l-7.5,0.1
				l-0.2,1l-3.3,0.1l2.5-2l-5.4-1.5l1.6-1.8l-2.6-0.7l-3.6,0.2l-5.5,3.4l-0.1,2.2h-4.7l2.1,2.3l-2.5-0.7l-5.3,1.6l-1.4-1.2l1.2-1.1
				l-0.5-3.1l-2.1,1.6l1.1,1.7l-2.8,1.1h-3.7l1.2,1.1l-10.4,1.8l-5,2.9v1.1l-3.8-0.7l4.4,4.2L803,54.5l-1.2,1.2l1,3.4l3.4,1.1
				l3.4,2.9l-1.1,1.6l1.5,3.3l-1.4,0.7l-0.7-2.9l-1.5-1.2l1.8-0.6l-0.5-1.6l-2.6,0.4l-5.5-3.1l-0.6-3.1l-2.9,3.6l0.5,1.8l-2.7-0.7
				l-2.2,0.6l0.7,1.5l4.5,1.4h-5.3l-1.7-3.1l0.6-3.4l2.8-3.3l-2.7-0.4l-1.7,2.1l-1.8,0.2l2.2,1.7l-0.2,2.5l-3.3,1.2l-1.1,1.8
				l2.9,3.8l-1.8,3.2l0.6,2.3l4.1-0.2l5.2,1.5l1.1,2.6l-2.5,2.1l0.5-3.2l-2.2-1.8l-4.5,1.2l0.6,4.1l-2.8,3.4l-3.6,2.3l-3.8-0.4
				l2.8-1.2l3.6-6.3l1.4-1.2l-2.6-1.7l-0.4-5.6l0.6-3.6l-2-1.8l2.5-3.2l-0.1-2l-2.9-1l-4.7,0.2l-1.5,0.7l-1.1,3.8l-3.7,2.3l-1.1,2.7
				l2.1-0.1l-1.4,4.7l2.9,0.5l1.1,2.2l1.4,0.1l-2,2.5l-2.9-2.2l-6.8-2.8l-7.9-1.2l-1.5,1.1l1.7,2.7l-4.2,2.1l-0.5-2.5l-3.7,1.8
				l-3.2-0.4l-4.7,1.2l-1.4-2.3l-5.3,1.7l-5.6,3.2l-2.2,0.6l-0.2,2.3l-4.4,0.4l-2.1-1.7l0.9-1.6l3.3-0.5l-1.8-2.5l-6.3-0.6l2.2,1.4
				l-1,4.4l1.6,2l-0.7,3.1l-3.8-3.4l-2.9,2.8l-3.6,1.7l1.4,2.7l-2,1.4l-6-2.3h-2.9l-1.8,1.2l-1.2-2.1l1.1-1.2l-1-1.6l-3.7-1.6
				l-1.6-2.3l2.9,1.5l10.4,2.6l3.3-0.2l2.6-1l2.2-2.5l-0.9-2.7l-6-2.7l-5.9-3.3l-3.1-0.4l-9-2.3l-5.3-1.4l3.7,0.2L686,69l-2.6-1.8
				l-5.8-1.7l-2.5,3.2l0.5-2.6l-3.7,3.8l-0.1-1.8l2.6-2.1l-3.3,0.1l-1.6,1.8l-2.2,0.1l0.5-1.2l-2.3,0.4l1.1,1.4l-5,0.6l-5.3,3.4
				l-1.5-0.6l-2.3,2.2h1.2l-6,5l1.8,0.2l-2.8,1.2l-1.8,2.1l-0.7,2.5l-4.1,5.9l-4.8,3.8l0.9,1l3.7-1.1l-3.2,1.8l-3.1-1.8l-2.5,1.5
				l2.3,0.2l-4.7,1.8l0.4,0.5l-4.5,2.5v6.5l1.1,1.7l-0.7,1.8l2.2-0.6l-1.5,2.2l2.5,2.2l2.5,0.2l2.2-0.7l4.7-3.4l2.2,0.9l-0.7,0.1
				l1,3.4l2,3.6l0.4,2.1l1.8,3.1l2.5-0.5l0.9-2.1l4.1-0.2l1.5-3.4l3.1,0.4l1.4-1l-0.5-1.7l-1.5,2.2l-2.5-0.2l-0.9,1.5l-0.6-3.3
				l0.9-2.5l3.8-1.8l1.6-2.7l-4.5-3.8l0.6-5.6l0.6,0.4l3.8-3.8l3.4-1.5l1.7-2.2l-1.1-1.4l3.2-4.1l4.2,0.1l2.8,1.4l-0.4,1.4l-2.9,3.3
				l-4.2,3.1l-2.5,0.9l-0.1,2l1.2,4.5l-0.9,3.3l5.6,2l5.3-0.9l4.5-1.2l2.1-0.7l1.1,2.6l-2.7,1.8l-5.4-0.6l-5.3,1.6l0.1,1.6l-2.2-1.2
				v1.6l-1.7,1.4l3.2-1l2.6,2.3l0.1,2.1l-1.6,0.9l-2.6-2.6l-2.1,0.6l-1.5,2.5v2.6v1.1l0.5,1.6l-1.7,1l1-1.1l0.2-0.7l-0.4,0.7
				l-2.1,1.1l-1,1.6l1.8-0.7l-1.5,0.9l-0.9,0.5l0.5-0.6l-2.5,0.1l-0.6-1.4l-4.1,0.9l-1.1,0.9l-4.5,1.2l-3.9-1.7l-3.8,1.6l-0.2-1.1
				l-3.2-1.6l1.1-1.5l2.2,0.6l-1.1-4.9l0.5-4.1l-1.8,2.2l-3.9,1.8l1.2,5.4l0.9,3.3l-1.1,1.1l-2.9-0.5l-0.2,1.5l-1.7-1l-3.7,1l-2,4.8
				l0.5,1.1l0.1,0.2l-0.2-0.2l-0.9,0.1l-1.2-0.1l-0.5,0.1l-1.5,0.7l0.2,0.4l-0.2-0.4l-2.2,0.7l-0.9,2.7l-3.3,2.1l-4.1-1.4l1.4,3.3
				l-3.1,0.4l-1-1l-3.9,1.1l2,1.8l4.5,2.5l2.1,2.3l-0.9,7.7l-0.7,0.6l-4.2-0.4l-8.6-0.1l-1.6-0.6l-3.3,2.5l1.2,2.7l0.2,2.7l-2,6.3
				l1.7,1l-0.5,3.7l3.7-0.5l2.2,0.6l0.7,1.7l1.8,0.5l0.1,0.1V181l2.1-1.6h5.4l1.1-1.7l2.3-0.7l0.4-1.8l4.4-1.5l2.5-1.8l1.6,0.7
				l0.2-2l-3.8,2.3l-3.4,0.7l-1-1.8l3.1-4.2l2.6-0.7l2.7-1.8l-0.1-1.4l-0.1-2l2-1.2l2.8,0.4l1.6,1.1l3.6-2h0.1h0.1v-0.1l0.1-0.1
				l2.8-1.7l3.3,1.1l1,3.2l5.9,4.8l1.6-0.1l4.4,3.3l1.4,3.6l-0.2,2.2l2.6-3.9l-1.5-0.9l1.2-2.2l3.4,1.1l-1.2-1.5l-4.7-2.2V165h-2.1
				l-2.5-1.8l-1.1-2.7l-2.9-2l-0.4-3.1l3.6-0.9l-0.2,0.1v0.1l0.9,2l0.9-1.5l2.1,2.9l-0.9,0.4l2.6,2l3.8,1.6l0.1,0.1l0.4,0.2l1.7,1.1
				l0.4-0.1l1.6,1.7l0.2,4.7l1.2,1.4l0.4,1.2l2.5,0.7l-1.5,0.9l0.6,2.8l1.7,0.2l0.4,2.2l3.6,0.9l-1.1-3.1l1.1-1.1l2.5,1.1l1,1.7
				l3.2-0.1l1.5-2.2l-1.1-1.5l-0.9,3.2l-2.6,0.2l-1.8-3.3l1.4-1.5l-2.2,0.1l-2.3-3.6l2.6-1.7l4.4-0.5l-1.2,2.8l2.3-2.5l1.8,0.4
				l1.7-1.1h3.4l-2.3-2.8l-0.9-1.4l2.2-3.6l0.1-1.7l2.5-2.6l0.1-1.2l2.9-2.8h3.6l-1.6,0.7l4.5,1.2l-2.1,0.9l2.6,3.7l6.1-3.1
				l-2.9,0.1l-1.2-2.3l2.6-1.4l5.5-1.4l2.5,0.2l-3.7,1v4.1l-2.7,0.2l5.6,3.1l2.3,2.2l3.7,2.1v3.2l-3.3,1.7H703l-5.6-2.3l-6.1-0.9
				l-4.9,2.7l-4.8-0.5l-0.1,2.3h-5.6l-1.6,2.6l2.2,1.5l-1.8,1.8l2.3,0.7l0.1,2.8l2.5-0.2l3.2,2.5l1.7-0.2l0.6-1.8l3.2,1l1.8,1.4
				l2.1-0.2l2-1.7l2,0.6l1.5-1l-0.2,2.7l0.1,1.4l0.1,2l-1,2l-1.1,2.2l-0.6,2.1L694,193l-0.1,0.1l-0.5,0.5l-5,0.6l-0.4-1.1h-3.7
				l-3.2,1.8l-3.9-1.5l-5.2-0.7l-0.4-0.7l-4.4-1v-0.9l-3.6-0.7l-2.5,1l-1.5,2.2l0.2,2.3l-2.5,1.4l-3.8-2.1l-3.1-0.5l-2.1-2.8
				l-4.3-1.4l-2.3,0.1l-2-0.9l0.1,1.8l-0.2-1.1l0.1-0.7l-1.1-1.6l-1.7,0.2l-0.5-1.7l2.5-2.3l-1.7-4.1l-1.4-1.6l-2.9,1l-2.8-0.4
				l-5.2,1.2l-1-0.7l-4.4,0.2l-4.4,0.9l-7.7,3.8l-1.6-0.2v-0.2v-0.1l-3.4,0.4l-2.2-1.8l0.1-0.1h-0.2l-1.2,0.2l-2.2,4.7l-3.9,2.1
				l-1.7,1.8l-1.5,2.9l0.5,3.3l-2.2,2.9l-2.1,1.7l-3.4,1l-1.6,3.1l-1.8,1.1l-1.2,3.9l-2,2.1l-2.9,6l-0.2,1.4l0.1,0.2l2.1,1.4l-0.9,2
				l1.2,3.4l-1.2,5.2l-1.5,2.8l1.5,2.6l3.4-0.6l-1.7,1.6l0.7-1h-2.5l-0.6,0.6l0.1,0.6v1.1v0.6l1.7,1.4l-0.5,1.7l2.8,0.1l3.4,2.8
				l0.6,1.7l0.9,3.6l3.4,1.5l5.2,4.2l4.1,1.8l0,0.1h0.1l4.7-1.7h6l2.1,0.9l7.7-3.2l0.5-0.2h0.5l0.6-0.2l2-0.1h4.1l3.6,4.7l6.3-1.1
				v-0.1l0.6-2.2l-0.6,2.3l2.3,2.1l0.5,3.7l-1.1,2.8l1.1,0.4l-1.1,0.9l-0.1,2.5l-1.4,0.4l1.4,3.1l4.3,4.8l1.7,1.6l0.4,1l0.6,1
				l-0.1,0.7l0.6,0.6l1.7-0.4l-2.2,0.6l2.6,5.2l-0.9,1.8l1.8,3.6L645,298l-2.7,2.8l-1.8,5.6l0.1,3.6l0.1,2.1l6,10.1l0.2,4.7l1.8,8
				l2.8,3.1l1.8,4.5l2.1,3.4l0.2,2.6l-1,0.4l1.5,2.8l3.6,2.5l6.1-2.1l5.4,0.5l3.8-1.1l3.3-2l5.9-5.6l1.8-3.3l2.8-2.6l1.2-4.3l-1-2.2
				l0.9-1.1l5.3-2.3l0.9-1.2v-4.9l-1.7-5.4l5.5-4.9l6.6-3.6l1.6-2.2l0.6-2.5l-0.7-2l-0.2-7.5l-1.7-1.2l-1-3.8l0.4-3.4l-1.6-2l1-3.2
				l0.5-0.1l3.6-6.1l1.5-0.7l1.4-2l5.8-5.6l3.4-2l4.5-4.8l2.6-3.9l1.8-4.3l2.5-3.6l1-5.5l-5.5,1.4l-3.7,0.1l-2.2,1.2l-1.5-0.5
				l-3.6,1l-2.5-2.5l0.2-1.2l-0.5-1.6l-4.7-4.7l-2.1-0.6l-0.5-2.3l-0.9,1.5l-2.6-6.6l-2.9-2.7l-1.1-7l-2.8-2.2l-0.4-2.6l-3.6-6.6
				l-1.2-3.4l-2.7-4.2l0.5-0.9l1.6,3.6l2,2l2-4.3l0.1-0.2l0.1,0.1l-0.1,0.4l-0.7,3.2l1.4,0.1l5.4,9.6l2.2,1.1l1.5,3.1v3.1l1.4,2.1
				l3.1,2.3l0.6,2l3.7,5.6l-0.2,1.5l1.4,6l1.6,1.5l2.2-0.4l1.8-1.5l2.5-0.1l5.6-2.6l7.4-2.7l0.1-1.5l2-1l4.5-0.9l1-2l2.1-0.2
				l1.4-2.1l2.2-0.5l-0.4-1.8l4.9-6l-2.3-3.2l-3.9-1.1l-1.7-2.6l-0.1-1.4l-0.1-0.2l0.1-1.8l-0.6,0.7l-3.8,4.2l-2.1,0.9l-4.2,0.1
				l-0.6-0.6l-0.6-0.1l-0.1-0.9l0.9-0.7l-0.9-3.1l-1,3.6l-1.6-2.5v-2.3l-2.9-2.5l-1.1-2.3l-0.7-2.1l-0.4-1.6l0.6-0.1l0.7,0.2l0.9-1
				l2.8,0.4l3.1,5.6l2.5,0.9l2.8,2.5l2.7,0.4l3.7-1.7l1.6,0.9l0.7,2.7l6,1.1l4.1,0.4l9.6-0.4l1.7-0.6l2.8,4.4l1.4-0.1l1.2-1.1
				l-0.6,0.9l-0.6,0.2l1,1.6l3.7,1.6l-2.8,0.6l2.6,2.8l2.2,1.1l2.6-1.2l1-2.3l0.9,4.1l-0.5,1.6l1.8,9.1l1.8,3.3l1.4,4.4l1.7,2.7
				l2.3,6.6l2.3,2l5.5-5.2v-4.2l1.1-3.2l-0.7-3.9l0.5-1.6l4.9-2.2l-0.1-1l4.3-3.1l3.2-3.3l2.2-0.9l1-2.8l3.3-2.2l2,0.6v-0.4v-0.4
				l0.1,0.4l-0.1,0.4l5-1l0.6-1.4l1.8,4.2l1.8,2.6l2.2,1.4l1.6,4.5l-1,3.7l2.8,0.7l2.8-1.8l0.6-2.1l2,3.6l1,5.3l1,1.1l0.5,6.8
				l-1.2,3.1l0.5,1.7l3.9,4.4l1.5,6l1.2,2.5l4.9,3.1l2.2,0.1l-2-3.4v-4.3l-3.3-3.4l-4.4-2.9l-0.7-4.2l-1.5,0.1l-0.1-2.1l2-4.9v-2.9
				l2.2-0.1l-0.2,1.8h2.3l2.6,2.5l1.6,2.7l2,0.2l0.9,0.5l-0.1,3.3l4.1-1.7l1.8-2l4.2-2.3l0.6-6l-1.2-3.6l-5-5l-2.5-3.7l1-2.5
				l4.2-2.5l0.5-1.1l1.1-1l2.9,1l0.5,2.9l1.8-2.7l6.6-2l0.2-2.2l1.1,2.2l1.6-1.6l4.1-0.4l1.1-1.6l4.8-3.3l1.4-1.8l0.2-2.6l2-1.2
				l1.5-2.6l1.2-0.4l-0.1-2.3l1.7-1.7l-3.2-1.5l2.3-1l-0.4-2.7l-2.2-1.8l-1.5-4.3l-2.5-2l3.6-3.8l4.7-2.6h-2.6l-2.1-1.1l-3.1,1.8
				l-1.4-2.7h-1.8l-0.7-2.7l2.9-0.1l1.2-2l2.1-0.9l1.8-2.1l2.6,1.2l-2.6,2.7l1.4,0.4l-1.5,1.8l3.1-2l4.5-1.8l2.5,2.2l-1.7,3.2
				l4.7,0.9l0.6,2.5l-1.4,0.4l1.1,2.5l-1.8,2.1l1.5,2.3l1.2-1.4l2.8-0.1l1.8-1.1l0.9-2.5l-0.5-3.2l-2.3-3.7l-2.1-1.5l0.1-1.6
				l5.2-3.1l-0.1-2l2.5-2.1l2.5-2.5l3.3,1.4l4.7-2.3l1.8-2.6l5.2-5.3l1-2.2l3.9-4.4l1.1-4.9l-0.5-1.5l1.1-3.3l1.2-1.1v-3.8l-3.9-3.7
				h-2.5l-2,2.3l-1.4-1.5l1.8-3.2l-3.3,3.9l0.5-2.6l-3.9-1l3.7-2.5l4.4-4.4l4.3-2.9l1-1.8l3.2-2.6l3.8-1l11.9,0.6l1.5-1.8l2.8,1
				l1.4,2.2l4.8-1.4l4.3,0.2l-2.7-1.2l2.1-2.9l5.9-5l6.8-0.6l-1.2,3.7l0.9,1.2l5.3-3.9l1.5,0.5l0.5-3.6l3.2-0.6l1.5,1l-2.6,0.5
				l-0.2,3.3l-4.9,3.3l-0.1,0.9l-4.8,3.7l-2,2.5l-3.7,2.1l-3.3,3.6l-1.2,4.9l1.4,7.6l1.6,6.1l2.3-1.7l2.1-4.3l2.3-1.2l1-2.9l4.9-2.1
				l-0.9-2.6l0.9-1.7l2.8-0.1l-1.4-2l1.4-3.2l-3.2-1.2l2.6-3.1l1,1.8l2.6-1.5h-2l-1.5-2.3l1.1-1.8l3.6-0.1l2.9-1.4l-0.6,2.2l2.2-1.7
				l5.2-0.9l2.7,2.1l1-1.8l2.8-1.2l4.7-3.4l7.7-2.8l3.9,0.7l1.6-1.2l-2.5-2.6l-0.7-3.6l-3.7-0.9l-1.6-1.2l5.2,1l4.9-1.8l1-2
				l-1.2-1.8l2,0.2l1,2.1l3.7-0.4l2.5,0.7l0.1,1.6l5.4,2.6l3.2-0.4l-1-1l1.1-3.2l3.8-0.4l1-2.1L1055.8,82.6z M646.3,129.8l-0.9-0.5
				l0.7-0.1l1.1,0.1L646.3,129.8z M678.4,111.1l0.4-0.1l-0.1,0.1l-0.2,0.4V111.1z M677.9,115.5l-1.6-2.7l1.7-0.7l1,3.9L677.9,115.5z
				 M682.7,269.6l0.5,0.1l-0.6,0.7h-0.7L682.7,269.6z M680.8,274l0.7-0.7l0.4,0.9l-1.1,1V274z M679,309.1l-2.6,2.7l1.7-2.7l2.3-0.7
				L679,309.1z M680,291.3l-0.5-0.7l1.4-1.4l0.6,0.5L680,291.3z M684.5,289.2l0.2-0.6l-2.6-3.6l-0.9-3.8l0.2-4.1l0.2,1l0.7,1.6
				l0.2,4.3l2,1.6l1.4,3.8L684.5,289.2z M684.5,266.4v-0.5l1.8-1.6l0.4,0.7L684.5,266.4z M694.6,295.7l0.1,0.2l0.2,0.1l0.1,0.2v0.1
				l-0.6,1.5l0.4,3.2l-1.2-0.2l-0.7-2.9l0.6-4.1l-0.9-1.7l0.1-0.5h0.2l0.2,0.1l0.2,0.2l0.5,0.6L694.6,295.7z M689.7,268.6l3.2,0.1
				l0.6,1.2l-0.5,1.8l-0.5,2.7l-1.5,0.7l-3.8-0.5l0.5-3.1l-0.1,0.1v-0.1L689.7,268.6z M696.2,194.2L696,194l0.1-0.1l0.2,0.1
				L696.2,194.2z M696.4,193.6h-0.2v-0.4v-0.4l0.4-0.4L696.4,193.6z M731.9,136.3l-0.6,1l-0.4,0.2l-0.5,0.1l-0.5,0.1L731.9,136.3z
				 M738.9,170.5l1,2.9l-0.2,4.3l0.2,1.4l-4.9,0.6l-2-0.4l-2.2-1.8l-2.3-0.6l-0.6-2.2l1.4-4.4l1-0.9l-3.1-4.2l-2.6-3.3l0.2-2.1
				l-2.1-2l2.2-3.7l3.8-1.8l4.7-2.3l4.7,1.2l-1.5,3.8l-2.8,0.2l-2.6,2l3.8,5.3l1.8,0.2l-0.6,2.8l0.9,1l0.7-1.6l0.9-0.4h1l2,2.7
				l-2.3,1.4l-1.8-1l-0.5,2.6L738.9,170.5z"/>
			<polygon fill="#DDD9E0" points="955.8,159.4 958.1,157.8 956.6,157.8 			"/>
			<polygon fill="#DDD9E0" points="898.4,214.2 899.4,210.2 897.6,209.6 895.5,213.7 897.1,217.3 			"/>
			<polygon fill="#DDD9E0" points="451.8,407.7 451.4,405.6 451.4,406.3 451.3,412.4 456.3,413.3 460.6,412.8 454.5,410 			"/>
			<polygon fill="#DDD9E0" points="464.6,226.7 464.6,226.5 464.4,226.6 464.4,226.7 			"/>
			<path fill="#DDD9E0" d="M525.3,280.9l-2.9-2.9l-3.6-2h-5.3l-3.4-1.4l-0.9,1.2l-2.2-3.3l-0.9,0.9l-2-1.8l-3.7-1l-3.6,3.3h-2.8
				l-0.4-0.4l4.2-0.9l1-2.7l-3.1-0.2l-1.5-0.1l1.2-0.2l-1.5-1.5l1.4-2.5l-1.8-1.1l-2-5.4l-0.4,1l-3.2-3.3l-2.7,0.2l0.2-1.1l-6.9-0.5
				l-0.6,1.2l0.1-1.4l-4.7-4.7l-2-1.1l-2.2-0.9l0.4-1l-4.7-2.7l-2.3-0.5l-0.2-1.2l-2.1,2.6l-3.6-1.2l-3.9,0.4l-2.2-2.3l-2.6-0.1
				l-3.8,1.6l1.2,2.6l-1.1,1.6l-1.4-1.8l1.2-2.1l-0.9-2.1l1.5-0.6l-0.9-1.5l-3.8,2.8l-3.6,0.5l-1.6,1.2l-0.2,2.7l-3.2,2.1l-1-0.2
				l-1.5-1.4l-3.6-1l-3.1,1.7l-3.3-0.2l-0.9-1.4l-2.1-2.2l-0.4-1l-0.5-1l1.7-8.7l-2.8-2l-3.8-0.4l-5.4,0.6l-0.9-0.5l-0.7,0.1
				l1.6-2.6l-0.1-3.7l1,0.7l1-3.2l-0.7-0.2l2.5-3.9l-3.3-1l-5.2,1.5l-1,3.9l-2.8,1.7l-5.9,1.4l-3.2-1.5l-3.2-4.7l-1.6-5l0.4-4.4
				l1.2-3.7l-0.6-3.3l2.1-2.7l5.8-3.3l2.1-0.2l7,1.7l0.4-1.1l2.1,1.2l-1.2-2.9l7.5-0.6l3.7,2.1l2.9-0.7l2.5,2.6l-0.4,2.7l4.1,6.8
				h1.5l0.9-4.5l-3.1-8.5l-0.1-2.3l1.4-2.3l3.9-2.8l1-1.6l6.4-3.4l1.2-2.2l-1.7-2.9l-0.6-5.2l0.5-1.4l1.6,3.9l1.5-1.4l-1.2-2.8
				l1.6,1.5l1.8-2.2L438,169l4.4-1l-2.9-0.4l8.8-2l-2.6-1.7l2.5-4.4l2.3-1.6l4.9-1.2l-0.6-1l6.6-0.5l-3.9,2.2l0.6,3.1l2.1-0.9
				l1.4-2.2l1.7,0.2l6-2.5l-2.2-1.6l-1.2,0.7l-4.8-1.8l-1.5-2.8l1.4-2l-2.6,0.6l3.1-2.2l-0.5-2.1l-4.9-0.1l-5.6,2.7l-3.6,3.7
				l3.4-5.3l4.1-1.7l2.2-2.8l6.1-0.1l8.7,0.2l2.7-2.5l2.9-1.5l1.7,0.2l3.1-2.2l-0.1-3.3l-4.1-3.3l-3.3,0.9l-3.4,2.1l0.6-1.6l3.4-0.9
				l2.7-2l-3.4-0.7l-2.1-1.5l-2.1,1l0.9-2.5l-1.7-0.2l-0.7-4.3l-3.1-3.6l0.2-1.1l-4.9-7l-2.1,2.7l0.4,1.6l-4.9,3.4l-5-3.6v-3.2
				l4.2-0.9l-3.7-1.2l-0.4-1l-4.9-0.4v-1.6l-5.3-3.1l-2.1,1.2l-5.2-1.5l-2.8,1.4l-3.9-0.9l-0.9,2.3l2.1-0.7l2.8,0.4l1.4,1.4
				l-1.6,2.3l2.3,2.9l-3.1,3.9l4.1,4.2l0.6,4.7l-1.6,2.3l-4.2,2.1l-0.2-2.8l1-1.2l-2.6-2.6l0.7,6.9l-0.7,0.7l1.8,2.1l-0.2,1.6
				l-2.3,0.6l2.6,0.9l1,2.9l-1.7,0.5l-1,2.6l-3.8-3.1l-1.5-2.7l2.9,0.9l-1-1.6l-2.3-0.2l-0.7-3.1l0.5-2.9l-5.6-0.4l-6.9-2.7
				l-3.1-2.7l-5.2-1.4l-3.9,1.1l0.7-1.4l-1.7-4.8l-3.9-1v-3.2l2-5.4l1.7-1.1l2.6-4.1l3.6-0.7l-2.7-2.3l2.5,0.7l2.2-2.8l1.7,1.2
				l2.6-1l2.5-3.6l-4.9-0.7l-1.6-2.5L406,89h1.2l3.7-3.3l-2.2-1l3.2-0.5l2.9,3.1l1.8,0.6l-2.9-2.8l2.2,0.6l-1.7-2.8l2.5,2.1l5-4.3
				l-2.9-3.6l2.9-1.2l-1.4-1.2l0.7-2l-2.6-1l-6.4-0.9l-0.1,2.7l2,0.7l-2.7,1.2l-0.5,2.7h-2.6l1.1,2.7l-2.1,0.6l-2-2.2l-0.4-2
				l1.4-0.2l-0.5-2l-2.2-1.7l-1.7,0.7l-1.4,3.3l-0.4-2.6l-1.6-2.7l-4.3-5.5l-0.1-2.3l-3.7-2.8l1-0.1l1.6-1.8l-1.7-1.5l4.2,0.4
				l1.4-0.6l3.8-4.8l-4.8-0.5l-3.3-0.9l-3.7,0.9v1.1l-1.2,0.5l0.1,3.7l1.2,1.4l0.1,2.6l-0.2,0l-2.8,2.8l-0.4,4.3l0.9,1.8l4.4,1.7
				l-0.7,2.9l2.2,0.6l-4.7,3.6l1.2,1.7l-3.1-0.7l1.4-3.3l-3.2-0.7l-3.4,0.5l1.6,1.8l2.2,0.5l-8.5-0.2l-3.8,0.5l-2.8-1.4l-2.2,0.1
				l-0.5-2.2l-1,1.2l-0.9-1.8l-2-0.7l-4.7,1.1l-1.2,1.5l2.7,0.4l4.7-1.8l-2.6,2.1l-2.7,0.1l-0.9,2.8l-3.9-2.8l-3.8,1.5l-5.4,0.1
				l-3.9-1l1.4-1.4l2.5-0.5l-2.7-2l-2.2,0.2l-4.8-0.9l-5.3-1.6l-2.7-1.5l-3.6-0.4l-0.6,1.5l-2.9,0.5l0.1-3.3l-3.7,3.2l-2.8-3.6
				l-2.6-1.7l0.5,1.5l-2.2,2.7l-3.2-0.1l-1.5,1.8l-1.6-0.9l-4.1,2.6l3.2-2.9l5.6-1.8l-2.5-0.6l-1.2,1.4l-4.1,0.6l-0.7,1.1l-5.9-0.5
				l-0.9,1.6l1.6,1.8l-6.4-1.8l-2.5-1.6l-4.3-0.5l-5.4-2l-3.1,0.5l-6-0.7l-5.5-1.6l-5.9,0.4l-0.5-1.6l-4.5,0.1l-2.3-1.5l-4.1-0.7
				l-2.8,2.1l-3.8,0.1l-2.8,2H232l-2.9,2.8l0.1,1.1l-2.9,2l-4.4,0.2L221,77l5.6,2.9l1.1,2.1l4.3,0.2l0.6,2.3l1.4,0.9l-6.3,0.6
				l-0.1-2.1l-3.9,0.7l-6.4,2.9l4.7,1.5l-2,0.5l1.8,2.2l7.1,0.6l4.7-2l-0.6,2l1.5,2.6l-6,2.6l-1.8-0.9l-4.8,6.1l3.6,2.8l-2.3,1.8
				l-4.2,0.4l2,1.2l2.5-0.4l0.7-2l3.8,2.5l3.1-1.1l1.5,2.2v2.6l1.8,0.6l1.4-1.7l5.2,1.6l2.5-1l-1.4,4.5l-6.9,5.3l-2.9,0.4l-1.8,1.7
				l-4.5,1.6l-1,1l4.3-0.6l1.4-1.7l2,0.7l4.5-2.6l2.7-0.4l0.4-1.4l4.7-2.1l1.2-2l3.3-1.6l3.1-2.8l-2.1-0.6l0.1-1.2l2.6-1.1l3.4-4.5
				l2.5-1.4l3.3,1.7l-3.2-0.5l-2.2,1.1l-1.1,5.5l2.2-0.4l4.2-2.7l3.3-0.9l-1.1-1.8l3.4-0.6l1.6,1.7l5.2,1.7l2.6-0.5l5.9,1.5l4.8,2.2
				l3.7,2.9l1.5-1l2.6,0.4l1.2,3.4l1.2,0.2l-0.7-2.6l4.5,4.8l-1.5,0.6l1.5,1.8l0.9-0.9l0.7,3.8l1.7,0.7l1.7-1.2l-0.9,5.3l3.2,1.7
				l1.6,2.7l1.7-0.4l0.6,3.9l5.4,2.2l5,4.1h0.1l0.2-0.4l0.4,0.4l-0.2,2.6l-4.1-0.7l1.6,8.3l-0.5,4.8l-1,2.9l1.1,4.1l-0.7,2.7
				l1.2,1.7l0.4,2.6l2.8,2.9l0.2,1.7l4.2,7l1.7,0.4l-0.5,1.5l3.7-0.5l2.5,1.8l0.9,2.2l2.6,4.4l0.9,2.7l3.8,3.3l-2.2,1.8l3.2,2.6
				l3.4,1.8l0.1,2.7l4.3,3.3l1,1.7l1-1.7l-2.9-2.5l-2-5.4l-2.8-2.9l-0.2-1.5l-4.3-4.4v-4.1l3.8,1.6l-0.1,0.9l2.2,4.5l3.9,4.4
				l3.1,2.5l-0.5,1.4l2.7,1.7l5.8,6l0.5,1.7l-1.8,1.2l2.8-0.1l-1.2,2.7l1.6,2.6l3.6,2.5l4.1,1.1l1.7,1.5l10.6,3.8l4.1-1.8l2.2,0.9
				l3.9,3.7l2.2,1.5l2.8,0.5l3.1,1.1l2.3-0.4l0.7,0.4l0.5,0.6l-0.9,0.4l4.7,4.2l-0.5,1.7l1.8,2l0.9-1l3.7,3.1l0.6,1.5l2.9-0.1
				l0.1,1.7l3.8-0.4l-1.1-1.7l3.2-1.8l2.3,1.2l-0.7,1l1.2,2l1.4,1.6l0.4,6.5l-3.6,3.7l-0.4,1.8l-2.8,1.4v1.8l-2.1,2.6v2.9l2.3,2.1
				l-1,0.5l-2.1,2l0.4,4.3l2.3,1.4l2.6,3.7l4.4,9.1l2.1,3.1l-0.1,2l2.6,2.8l8.6,4.5l2.7,2.6l0.7,7.5l-1.2,4.2l0.4,5.5l-1.1,5.8
				l-1.5,3.3l0.6,2.5l-0.9,0.9l0.5,5.5L443,355l-1,1.2l-1.4,4.2l-1.1,1.6l1,4.8l-1.6,4.2l0.4,2.1l2.1,0.5l0.4,3.1l-1.7,4.8l0.4,0.7
				l-1.5,3.3l-1.2-0.7l-2.9,2.5l3.8,1.5l-0.4,2l-0.4,5.8l-1-5.8l-1,0.2l-0.9,0.6v4.7l1.4,0.9l-1,2.7l2.4-3.1l-0.2,3.1l1.6,2.3
				l-2.6,0.2l4.1,5.2l5.2,1.8l0.7-3.4l3.7-1.7l1.6,0.5l-1.7-4.3l0.7-2l2.5-1.2l0.6-2.8l3.8-2.9v-2.9l-2-0.1l-2-2.5l0.7-1.6l2.6-1.8
				l1.5,0.1l0.6-3.9l2.1-2v-1.4l2,0.6l-0.5-1.8l-2.9-0.2l0.4-3.6l2.7,1.2l3.3-0.9l0.7-5.3l2.8,0.1l4.2-0.9l3.4-1.5l2.2-3.4l-1.4-1.8
				l0.2-1.8l-3.3-3.2l0.9-4.8l-0.5,3.9l1.2,1.4l3.7,1.1l3.2,0.2l2.8-1.6l0.9-1.7l1.8-1.6l1.6-4.7l1.6-2.9l1.4,0.4l-1.1,2.9l3.1-5.3
				l2.3-2.1l0.5-6.5l3.9-4.3l5.3-2.9l6.3-0.4l2.6-2.5l-0.2-1.1l3.2-5.2v-2.1l1.4-2.1l0.6-4.4l-0.2-6.1l2.2-1.5l2.7-4.4l3.7-3.7
				l1.2-4.8l-1.7-4.8L525.3,280.9z M453.6,154.3l0.6,0.2l-0.5-0.1l-0.5-0.4L453.6,154.3z M431.7,159.2l2.8-1.5l-2.1,3.3l-5.5,0.1
				l-0.1-1.5L431.7,159.2z M426.8,162.3l-0.1,0.9l-5.9,3.1l-4.3-0.6l1-1.6l0.6-1l0.4,0.2l0.5,0.6l-1.5,0.1l1.1,0.7l2.9-1.7
				L426.8,162.3z M420.6,153.1l-2.5,0.7l2.2,0.9l0.2-1.4l2.2,0.2l2.5,3.3l-0.9,0.9l-2.7-1.5l-1.1,4.7l-1.7,1l-0.6-2.6l-2.7-0.1
				l1.2-1l-0.1-2.8l-1.4-0.6l-0.4-2.5L420.6,153.1z M405,145.4l4.5-0.2l1.1,3.2l2.3-0.7l1.1,4.4l-1.1-1l-5.6,0.9l-2.1-1.2l-1.7-3.1
				l-1.5-0.1L405,145.4z M392.9,93.9l3.9,1.2l-4.3-0.6L392.9,93.9z M486.9,350.8l-0.2-1.1l1.1-1.2l0.1,0.4L486.9,350.8z
				 M492.2,271.8l0.4-1.8l1.8-0.4l-1.7,1.7l1.1,2.1L492.2,271.8z"/>
			<path fill="#DDD9E0" d="M438.4,225.3l1.2,0.9l4.3,0.6l0.9,1l1.7-2h4.2l1.4-0.5l-2.9-1.1l-0.7-1.4l-2.6-0.7l-1.7,0.6l-3.3-0.6
				l1.1,1.2l-0.1,2.5L438.4,225.3z M443.6,225.4v0.1v0.1l-0.1-0.2H443.6z"/>
			<polygon fill="#DDD9E0" points="589.8,136.9 592.3,136.5 595.4,134.8 597.9,134.6 598.7,132.1 598.1,128.4 599.8,126.7 
				598.5,124.9 595.8,125.4 593.3,125 592.9,127.9 589.6,127.7 590.4,129.4 588.9,130.3 591,131.5 588.3,134.8 			"/>
			<polygon fill="#DDD9E0" points="689.8,183.5 689.7,183.5 689.5,183.5 688.8,183.8 689.9,184.9 690.3,184.9 690.5,185 
				691.9,184.5 692.1,184 692.2,184 692.4,184 692.5,184.1 692.6,184.1 693.1,184 692.9,183.8 694.2,182.3 			"/>
			<polygon fill="#DDD9E0" points="1009.8,311.9 1009,310.2 1008.8,310.6 			"/>
			<polygon fill="#DDD9E0" points="1011.2,314 1009.8,311.9 1011.5,315.8 			"/>
			<polygon fill="#DDD9E0" points="1008.4,304.6 1006.6,303 1004.9,305.5 1008.4,309 1009,310.2 1009.4,309.2 			"/>
			<polygon fill="#DDD9E0" points="1020.1,371.8 1019,369.6 1016.3,373.3 1015.4,375.5 1012.1,378.2 1009,379.7 1005.2,383.4 
				1004.5,385.3 1007.3,385.8 1007.9,387.3 1011.9,387 1014.4,385.1 1015.9,380.3 1018.5,378.7 1022.9,373 1021.7,370.8 			"/>
			<polygon fill="#DDD9E0" points="1026.8,361.7 1026.6,359.3 1024.9,357.9 1021.9,354.6 1019.1,353.3 1023,359 1024.1,362.1 
				1023.5,365.1 1021.7,366.5 1025.1,369 1023.6,371.8 1025.4,372.7 1028.8,368.7 1029,366.7 1031.2,365.7 1033,362 1030.3,362.6 
							"/>
			<polygon fill="#DDD9E0" points="436.9,220.5 432.5,218.8 428.5,215.7 427.6,215.8 425,214.7 419.4,214.1 415.1,215.4 414,217.7 
				416.6,216.7 417.4,218.4 418.7,218 417.2,216.2 420.2,215.4 420.4,216.5 423.6,216.9 426.4,218.1 427.9,220.4 431.5,220.8 
				429.9,222.3 438.2,221.8 			"/>
			<polygon fill="#DDD9E0" points="957.2,371.4 953.4,370.1 953.1,371 954.5,375.5 956.4,378.2 958.3,378.4 959.9,376.6 
				960.9,377.2 961.8,374.1 961.4,369.9 			"/>
			<polygon fill="#DDD9E0" points="953.3,370.1 953.4,370.1 953.7,369.2 			"/>
			<polygon fill="#DDD9E0" points="972.9,330.9 973.7,329 972,329.6 969.9,326.5 967.5,324.4 967.7,323.3 964.8,322.2 962.3,316.8 
				960.3,316.3 957,314 956.6,310.9 954.9,308.1 954.8,304.6 952.7,302.6 951.5,303.4 950.2,298.9 947.5,293.4 945.9,298.8 
				945.6,307.1 944.1,310.6 942.1,311.2 939.9,309.2 934,306.4 931.3,303.9 934.9,298.3 932.4,297.2 930.6,298.2 926.2,296.8 
				924.7,295.2 922.3,296.2 919.6,295.7 918.8,297.1 921.1,298.3 918.9,299.8 917.1,303.2 918.2,304.3 914.4,303.9 911,301.7 
				905.6,305.4 905.4,307.9 904,307.6 903.5,310.7 902.1,308.5 900.3,310.1 900.7,312.2 897.3,315.8 888.9,318.4 887.6,318.1 
				880.2,323 879.7,326.6 881.6,331.1 881.3,332.7 879.4,332.5 883.3,340.3 883.3,342.2 884.9,345.9 884.9,350.2 883.3,350.8 
				883.6,353 887.3,354.8 891.3,354.4 895.1,351.8 903.5,351.8 904.8,349.7 909.7,347.4 912.3,347.5 916.2,346 921.4,345.4 
				924,346.9 927.3,347 930.8,351.7 931.3,353.8 932.7,353.4 937.6,349.8 936.2,352.4 936.7,355.1 937.7,352.4 938.7,354 
				937.1,356.8 939.8,356.1 941.9,359 941.5,360.5 943,362.4 946.1,363.8 947.8,363.7 950.5,365.1 953.9,362.5 953.8,364.1 
				957.5,364.8 961.8,362.2 965.7,361.4 966.1,357.1 970,349.1 971.7,348 974.2,338.8 974,335.1 			"/>
			<polygon fill="#DDD9E0" points="730.3,300 728.7,297.3 727.5,300.9 726.2,300.7 725.9,302.5 721.6,306.4 717.4,307.5 
				716.2,310.6 717.5,316.5 715.2,319.9 714.6,322.1 715.8,325.2 716.4,329 719,330.5 723.7,328.9 724.8,326.2 728.3,314.4 
				729.2,310.1 730.2,308.4 729.6,305.9 731.6,305.7 			"/>
			<polygon fill="#DDD9E0" points="578.6,92.6 580.8,90.4 580.8,88.3 578,87.4 575.1,84.2 574,85.7 571.5,86.6 568.5,85.6 
				566.6,87.3 565.6,85.8 563.1,89.3 562.6,86.4 559.7,84.6 558.5,84.7 559.9,86.4 557.6,85.6 557,87.3 555.1,88.3 558.3,88 
				561.4,88.7 559.8,89.6 561.5,90.1 556.2,90.6 560.3,91.2 561.8,93.2 559.4,94.7 563,94.2 565.3,95.8 568.8,96.3 575.3,93.6 			
				"/>
		</g>
		<path fill="#9C96AD" d="M919.9,79.1c-37-2.5-52,21.2-65.6,65c-6.2,20-14.1,32.9-24.1,42.2c-30.6,28.5-85.7,27.1-105.2,24.8
			l-3.1-12c0,0,62,12.8,104.3-20.3c14.3-11.2,21.5-31,31.8-58.1c10.3-27.1,32-47.6,62.1-42.3L919.9,79.1z"/>
		<path fill="#9C96AD" d="M792.2,202.9c2.5-1.1,8.2-5.5,10.6-6.7c7.7-16.1,12.2-43.1-8.7-70.9l-1.2,0.9
			C813.8,158.8,802.8,186.9,792.2,202.9z"/>
		<path fill="#9C96AD" d="M597.7,134c22.3,17.2,40,23.2,82,32c39.4,8.2,32,32,32,32l9.7,2.9c0,0,7.6-34.6-41.2-41.2
			c-63-8.5-81.4-26.6-81.4-26.6L597.7,134z"/>
		<path fill="#6C5F82" d="M673.3,81.2c-80.9-21.4-103.6,55.3-187.8,85.4c-61.7,22-101.6,1.7-115.2-7.4c-3.5-2.3,1.5-12.4,7.5-8.7
			c17.6,10.7,58.8,29.1,110.3,7.2c70.7-30.1,87.9-68.4,137.2-80.4c26.8-6.6,48.9,2.1,48.9,2.1L673.3,81.2z"/>
		<path fill="#6C5F82" d="M447.2,170.5c50.2,49.4,121.2-23.1,168.5,28.7l0.8-1.1c0,0-10.4-15.5-30.8-20.2
			c-32.5-7.4-80.2,10.2-102.3,5.7c-19.9-4.1-25.9-13.4-25.9-13.4L447.2,170.5z"/>
		<path fill="#6C5F82" d="M374.2,147.1c-11.8-60.4-73.1-44-95.6-61.7l-0.7,1.3c21,17.9,81.3,3.9,90.7,64.2
			C370.8,150.2,374.2,147.1,374.2,147.1z"/>
		<path fill="#9C96AD" d="M706.3,169.9c0,0,1.4-34,30.5-45l0.3,0.6c0,0-28,11.2-26.2,46.5C707.9,171,706.3,169.9,706.3,169.9z"/>
		<path fill="#9C96AD" d="M872.8,96.5c0,0,2.8-6.7-1.9-13.1c-4.7-6.4-4.7-11.8-3.9-14.4c0.7,0.2,0.7,0.2,0.7,0.2s-1.6,5.3,4.3,13.1
			c5.7,7.6,4.1,12,4.1,12L872.8,96.5z"/>
		<path fill="#9C96AD" d="M856,132.1c0,0,13.3-8.8,32.6-4.6c16.6,3.6,24.5-3.5,24.5-3.5l1.3,1c0,0-7.3,8.9-25,5.7
			s-33.8,8.2-33.8,8.2L856,132.1z"/>
		<path fill="#9C96AD" d="M764.6,141.5c0,0,2.9,12.5,17.4,17.1c19,6,23,12.9,23,12.9l-2.3,9c0,0-1.9-12.8-20.3-19.2
			c-16.3-5.7-18.5-19.4-18.5-19.4L764.6,141.5z"/>
		<path fill="#9C96AD" d="M781.9,158.9c0,0,1.4-5.4-0.9-9.7c0.5-0.1,0.4-0.2,0.4-0.2s3.2,4,2,10.2
			C783.1,159.5,781.9,158.9,781.9,158.9z"/>
		<path fill="#9C96AD" d="M910.4,145.5c0,0-14.7-1.8-19.3-15.6c-3.5-2.6-4.2-0.5-4.2-0.5s8.1,17.2,23.7,17.7
			C910.4,146,910.4,145.5,910.4,145.5z"/>
		<path fill="#9C96AD" d="M910.6,137.5c0,0-6.1,1.5-8.3,5.6c-2.5-0.5-2.5-1.3-2.5-1.3s4.7-4.5,10.7-5.3
			C910.3,136.3,910.6,137.5,910.6,137.5z"/>
		<path fill="#9C96AD" d="M899.2,129.4c0,0,2.3-13.2,14.5-18.7c-0.1-0.9-0.1-0.9-0.1-0.9s-11.9,3.1-17.1,19.9
			C897.5,129.7,899.2,129.4,899.2,129.4z"/>
		<path fill="#9C96AD" d="M901.2,80.1c0,0,5,11,22.5,7.6c13.8-2.7,22.5,1.5,25.1,3.4l-0.3,0.4c0,0-9.4-5.3-24.6-2.4
			c-15.2,2.9-21.1-2.9-25-8.8C901.6,78.4,901.2,80.1,901.2,80.1z"/>
		<path fill="#9C96AD" d="M933.5,86.9c0,0,8.4-9.1,24.3-4.3l0.4-0.6c0,0-15-6.1-26.2,4.8C932.7,86.9,933.5,86.9,933.5,86.9z"/>
		<path fill="#9C96AD" d="M712.6,148.3c0,0,1.8-14-12.5-22.5l0.1-0.7c0,0,14.6,7,14.1,22.7C713.9,147.2,712.6,148.3,712.6,148.3z"/>
		<path fill="#9C96AD" d="M852.2,141.2c0,0-2.7-10-12.2-25.4c-7.4-12.1-12.4-27.1-10.8-37.9l-1-0.1c0,0-4.6,15,9.4,41.6
			c10,18.9,8.9,31.7,8.9,31.7L852.2,141.2z"/>
		<path fill="#9C96AD" d="M834.1,111.7c0,0-3-2.7-12.2-3.1c-8.4-0.4-15.1-8.4-15.1-8.4l-0.7,0.6c0,0,6.2,8.9,16.9,9.7
			c10.7,0.8,14.5,8.9,14.5,8.9L834.1,111.7z"/>
		<path fill="#9C96AD" d="M650.2,134.5c0,0,7.1,17.9,20.7,24.5c7.9,1.4,10.9,0.8,10.9,0.8s-20.8-6-30.6-25.8L650.2,134.5z"/>
		<path fill="#6C5F82" d="M329.1,94c0,0,14.6-2.5,23,9.5c4.1,1.5,1.6-1.6,1.6-1.6s-8.4-12.1-25.1-8.9C329.1,94,329.1,94,329.1,94z"
			/>
		<path fill="#6C5F82" d="M324.7,73.9c0,0,29.9,11.1,33.9,41.7c-1.6,1.6-4.1,1.7-4.1,1.7s1.3-28.8-30.3-42.3L324.7,73.9z"/>
		<path fill="#6C5F82" d="M294.6,94.1c-1.6,0.6-3.3,1.2-5.1,2.1c-17.2,8.2-31.4-2-38.1-8.7c-0.1,0.3-0.8,0.8-0.8,0.8
			s15.7,18.9,39.3,9.7c3.4-1.3,6.4-2.2,9.1-2.7C297.5,95,296,94.7,294.6,94.1z"/>
		<path fill="#6C5F82" d="M543,181.2c0,0,19,27.3,52.5,35.1l0,0.7c0,0-34.3-2.6-57.3-35.2C539.6,178.4,543,181.2,543,181.2z"/>
		<path fill="#6C5F82" d="M569.4,206.5c0,0,7.6,25.3,31.1,39.5l-0.2,0.5c0,0-25.3-10.4-34.6-40.7
			C567.5,203.5,569.4,206.5,569.4,206.5z"/>
		<path fill="#6C5F82" d="M603.5,187c0,0,18.2-3.6,35.3,6.9c-0.2,0.2,0.5-0.7,0.5-0.7s-16.1-12.5-38.1-8.2
			C602.2,186.2,603.5,187,603.5,187z"/>
		<path fill="#6C5F82" d="M581.2,103.5c0,0,24.9-10.4,51.4-3.3c-0.2-0.1-0.7,1.6-0.7,1.6s-24.5-6.6-60.1,9.7
			C574.9,106,581.2,103.5,581.2,103.5z"/>
		<polygon fill="#6C5F82" points="324,75.9 325.1,73.2 322.4,73.5 		"/>
		<polygon fill="#6C5F82" points="329.4,94.9 328.8,92.1 326.8,93.8 		"/>
		<polygon fill="#6C5F82" points="277.3,87.8 279.6,84.9 276.1,84.4 		"/>
		<polygon fill="#6C5F82" points="250.1,89.6 252.7,86.9 249.3,86 		"/>
		<g>
			<path fill="#6C5F82" d="M479.6,314.9c0,0,16.6-32.9-12-63.8c-34.9-37.7-84-34.7-84-84.5l-9.5-6.4c0,0-12.1,38.8,49.9,66.3
				c80,35.5,53.9,88.4,53.9,88.4H479.6z"/>
			<path fill="#6C5F82" d="M433,230.3c0,0,0.4,9.6,8.3,25.9c6.2,12.7,9.9,30.9,7.3,41.5l0.5,0.4c0,0,6-14.5-5.3-42.3
				c-4.2-10.3-5.6-18.6-6-24.3C437.4,226.3,433,230.3,433,230.3z"/>
			<path fill="#6C5F82" d="M496.2,315.8c0,0,6-28.9-17.1-46.8c-1.3,0.2-0.9,3.6-0.9,3.6s20.8,11.3,16.8,43.1L496.2,315.8z"/>
			<path fill="#6C5F82" d="M441.3,256.2c0,0-0.5,14-8.3,21.2c0.1,0.1,0.8,0.8,0.8,0.8s7.5-6.8,9.3-19.6
				C442.2,256.9,441.3,256.2,441.3,256.2z"/>
			<polygon fill="#6C5F82" points="431.6,279.5 435.2,278.5 432.7,276 			"/>
			<polygon fill="#6C5F82" points="448.3,300.3 450.8,297.6 447.4,296.7 			"/>
			<g>
				<path fill="#6C5F82" d="M377.2,186.7c0,0,5.7,12.1-1.1,23.6c0.6,0.7,0.6,0.7,0.6,0.7s8-9.3,2.6-26.1
					C378.4,185.5,377.2,186.7,377.2,186.7z"/>
				<polygon fill="#6C5F82" points="375.8,211.4 379.1,209.6 376,207.8 				"/>
			</g>
			<polygon fill="#6C5F82" points="477.7,317.4 481.3,314.5 477.2,312.9 			"/>
			<polygon fill="#6C5F82" points="495.5,318.5 497.9,314.6 493.6,314.4 			"/>
		</g>
		<polygon fill="#6C5F82" points="601,246.8 599,243.3 597,246.5 		"/>
		<polygon fill="#6C5F82" points="598.1,217.1 594.9,214.6 594.4,218.4 		"/>
		<polygon fill="#6C5F82" points="617.8,200.9 617.2,196.9 614.2,199.2 		"/>
		<polygon fill="#6C5F82" points="641.6,195.4 640,191.7 637.7,194.8 		"/>
		<polygon fill="#9C96AD" points="596,131.3 597.2,135.2 599.8,132.4 		"/>
		<polygon fill="#9C96AD" points="649.5,131.4 649.2,135.4 652.7,133.8 		"/>
		<polygon fill="#9C96AD" points="697.3,123.8 699.4,127.2 701.3,123.9 		"/>
		<path fill="#9C96AD" d="M664.6,288.4c0,0,3.8,16.5-9.3,26.7l0.2,0.7c0,0,13.4-8.4,11.4-23C666.5,293.4,664.6,288.4,664.6,288.4z"
			/>
		<polygon fill="#9C96AD" points="652.7,317.5 654.4,313.8 656.7,316.9 		"/>
		<polygon fill="#9C96AD" points="737.3,127.3 739.6,124 735.9,123.6 		"/>
		<path fill="#9C96AD" d="M672.9,232.6c0,0-30,16-54.3-3.4l0.3-0.5c0,0,23.9,18.4,53.4-1C673,230.7,672.9,232.6,672.9,232.6z"/>
		<polygon fill="#9C96AD" points="620.4,227.6 616.4,227.3 618,230.8 		"/>
		<polygon fill="#9C96AD" points="808.2,99.5 804.4,98.3 805.3,102.1 		"/>
		<polygon fill="#9C96AD" points="830.5,79.6 828.8,76 826.5,79.2 		"/>
		<polygon fill="#9C96AD" points="868.8,70.8 867.5,67.8 865.6,70.4 		"/>
		<polygon fill="#9C96AD" points="919.4,80.9 923.6,79.3 920.1,76.4 		"/>
		<polygon fill="#9C96AD" points="956.4,83.6 959.9,82.7 957.4,80.2 		"/>
		<polygon fill="#9C96AD" points="946.4,92.3 950.1,92.4 948.4,89.1 		"/>
		<polygon fill="#9C96AD" points="914.1,112.1 916.6,109.1 912.7,108.4 		"/>
		<polygon fill="#9C96AD" points="914.9,126.4 916.1,122 911.7,123.2 		"/>
		<polygon fill="#9C96AD" points="910.8,138.9 913.7,136.2 909.9,135.1 		"/>
		<polygon fill="#9C96AD" points="791.8,122.9 795.6,125 792.1,127.4 		"/>
		<polygon fill="#9C96AD" points="763.6,139.1 766.4,141.9 762.5,142.9 		"/>
		<polygon fill="#9C96AD" points="781.1,148.5 783.9,150.5 780.5,151.8 		"/>
		<polygon fill="#9C96AD" points="910,148.3 914,146.2 910.2,143.8 		"/>
		<polygon fill="#6C5F82" points="678.7,82.4 674.4,76.9 671.8,83 		"/>
		<polygon fill="#6C5F82" points="636.6,102.4 632.4,98.2 630.9,103.6 		"/>
		<path fill="#9C96AD" d="M828.2,187.4c0,0,28.7-2.4,51.9,12.2c-0.1-0.2-1.1,1.3-1.1,1.3s-32.5-12.9-63-4.4
			C820.5,192.2,828.2,187.4,828.2,187.4z"/>
		<polygon fill="#9C96AD" points="883.2,202.8 880.5,197.6 877.4,202.3 		"/>
		<g>
			<path fill="#9C96AD" d="M714.1,204.7c-29.6,16-67.3,26.6-66.8,73.7l2,0.3c0,0-2.6-37.9,42.6-57c10.5-4.4,32.5-16.5,25.5-12.8
				C717.1,209.2,714.1,204.7,714.1,204.7z"/>
			<path fill="#9C96AD" d="M690.7,258.4c0,0-13-7.1-12.2-21.7c-2.3-3.7-2.3,0.3-2.3,0.3s-0.9,14.7,14.2,22.5
				C690.7,258.4,690.7,258.4,690.7,258.4z"/>
			<path fill="#9C96AD" d="M694.5,252.3c0,0-6.3-0.9-9.7,2.1c-2.1-1.4-1.2-1.5-1.2-1.5s5.3-2.6,11.1-1.2
				C694.5,251.5,694.5,252.3,694.5,252.3z"/>
			<path fill="#9C96AD" d="M681.6,276.9c0,0-16.4-24.6-1.5-49.8c7.4-3.9,5.1-2.7,5.1-2.7s-18.9,21.8-2.5,52L681.6,276.9z"/>
			<path fill="#9C96AD" d="M654.5,252.1c0,0,8.3,6.7,11.1,30.1c2.3,19.4,14,27.4,22.9,30.8c-0.3,0.2-0.5,1-0.5,1s-21.2-6.9-24.8-32
				c-3-20.9-10.5-25.5-10.5-25.5L654.5,252.1z"/>
			<polygon fill="#9C96AD" points="693.6,260.2 691.2,257 689.7,260.5 			"/>
			<polygon fill="#9C96AD" points="697.4,252.7 694.4,250.1 693.6,253.8 			"/>
			<polygon fill="#9C96AD" points="684,279.1 683.6,275 680.5,277.2 			"/>
			<polygon fill="#9C96AD" points="648.3,283.3 651.1,277.9 645.4,278.2 			"/>
			<polygon fill="#9C96AD" points="691.3,314.6 688.2,311.1 686.8,315.2 			"/>
		</g>
		<circle fill="#FFFFFF" stroke="#6C5F82" stroke-width="3" stroke-miterlimit="10" cx="377.9" cy="157.7" r="11.2"/>
		<path fill="#6C5F82" d="M384.7,155.8c0,0.3-0.3,0.6-0.6,0.6h-0.9l0.2,0.7c0.1,0.2,0.1,0.4,0.1,0.5v4.4c0,0.3-0.3,0.6-0.6,0.6h-0.6
			c-0.3,0-0.6-0.3-0.6-0.6v-1.2h-7.6v1.2c0,0.3-0.3,0.6-0.6,0.6h-0.6c-0.3,0-0.6-0.3-0.6-0.6v-4.4c0-0.2,0-0.4,0.1-0.5l0.2-0.7h-0.9
			c-0.3,0-0.6-0.3-0.6-0.6s0.3-0.6,0.6-0.6h1.2l0.5-1.8c0.2-0.6,0.8-1,1.4-1h6c0.6,0,1.2,0.4,1.4,1l0.5,1.8h1.2
			C384.4,155.2,384.6,155.5,384.7,155.8z M375.2,158.3c0-0.4-0.4-0.8-0.8-0.8c-0.4,0-0.8,0.4-0.8,0.8c0,0.4,0.4,0.8,0.8,0.8
			C374.8,159.1,375.2,158.7,375.2,158.3z M382.3,158.3c0-0.4-0.4-0.8-0.8-0.8c-0.4,0-0.8,0.4-0.8,0.8c0,0.4,0.4,0.8,0.8,0.8
			C382,159.1,382.3,158.7,382.3,158.3z M382.3,156.4l-0.8-2.8c-0.1-0.3-0.3-0.4-0.6-0.4h-6c-0.3,0-0.5,0.2-0.6,0.4l-0.8,2.8H382.3z"
			/>
		<circle fill="#FFFFFF" stroke="#9C96AD" stroke-width="3" stroke-miterlimit="10" cx="715.3" cy="205.4" r="11.2"/>
		<path fill="#9C96AD" d="M718.8,207c0,1.9-1.6,3.5-3.5,3.5c-1.9,0-3.5-1.6-3.5-3.5s3.5-7.2,3.5-7.2S718.8,205,718.8,207z"/>
	</g>
</g>
<g id="Layer_2">
</g>
<g id="Layer_3">
</g>
</svg>
