<svg enable-background="new 0 0 256 159" height="159" viewBox="0 0 256 159" width="256" xmlns="http://www.w3.org/2000/svg"><path d="m254 23.483-5.136-3.672-2.579-7.854-6.53-.558-1.626 11.341-2.068 3.276-1.279 2.184-7.646 2.092-6.343 1.511-5.113 6.623 1.441 3.067-10.713 6.785-3.277 4.16-3.067 2.278-8.296 4.926-4.578-1.394 3.532-8.343-5.228-7.274-1.534-6.089-3.904-2.091-6.693 6.112-1.371 5.228 2.022 6.6-1.999 7.506-3.044.488-1.697-4.462-.859-4.625 1.65-9.504-1.325-1.697 2.069-5.112 12.502-1.79-4.507-4.462-9.807 2.719-4.811-3.3-8.04 3.858-7.181-.721 2.464-7.854-5.089-2.835-4.508.255-5.81-2.811-8.25-.024-27.491-1.394-33.952-4.625-13.85-2.835-3.88-.883-22.266-5.993-1.581 4.973-7.955.5-1.201 13.117-7.738 14.78-.14 5.322-3.718 8.668.232 9.714 7.529 30.303 8.714 4.881 4.044 5.391.79 5.182 12.247 1.604-.767 1.163 18.08 10.619 10.085 1.581 4.648-2.115 8.784 1.163 7.065 7.436 1.929 6.344 6.994 4.787 2.836-4.415 6.785.232 9.551 13.966 2.068 7.227 9.806 1.998-1.255-5.484 2.975-6.274 7.716-4.392 9.504-7.599 8.18 2.487 2.208-1.906 5.345 3.998 5.949-1.952.86-4.95 5.809-1.65 5.113-1.022 7.227.325 6.251 3.532 4.602-3.624 8.389 6.413-.093 6.623 5.205 7.809 9.922 5.716.558-10.875-3.998-8.645-7.366-12.619 1.836-8.412 7.412-8.389 2.232-4.741 11.456-14.408-2.417-3.904.07-.024.232-.046.418-.093.116-.024-3.928-3.532.302-4.02-1.333-1.334 4.052.334 1.185-.581.744-2.881.139-.024.046-.023-3.578-7.529 1.534-1.65 4.531.673-.929-7.598 1.163-.348 7.436-3.881 2.045-3.044.233.139.581.86 2.068-2.487-2.975-5.833-.046-1.278 3.927-5.88zm-98.893 89.303 1.364-8.122-90.313-15.173c-.125-.225-12.021-21.94-25.957-37.212l-3.011 3.186-4.209-14.109 14.324 3.408-3.034 3.21c9.154 9.941 17.373 22.303 22.342 30.342l18.17-22.714-8.955-7.164 33.279-13.002-5.375 35.322-8.956-7.164-16.02 20.028 79.02 13.275 1.364-8.122 18.773 15.498z"/></svg>