<svg xmlns="http://www.w3.org/2000/svg" width="650" height="420" viewBox="0 0 650 420"><defs><style>.a{fill:#ababab;}.b{fill:#7a7a7a;}.c{fill:#444;}.d{fill:#dbdbdb;}.e{fill:none;stroke:#c4c4c4;stroke-miterlimit:10;stroke-width:1.2px;}.f{isolation:isolate;font-size:17px;}.f,.g{fill:#cecece;font-family:Roboto Mono;}.g{font-size:18px;}</style></defs><title>grouped-violin-plot</title><path class="a" d="M114.3,200.5l6.5,27.8a111.5,111.5,0,0,1,2.6,34l-1.6,21a102.3,102.3,0,0,0,1.9,28.6l11.6,50.2a0.9,0.9,0,0,0,1.9,0l11.6-50.2a102.3,102.3,0,0,0,1.9-28.6l-1.6-21a111.7,111.7,0,0,1,2.6-34l6.5-27.8a114.4,114.4,0,0,0-2.3-59.9L137.3,85a1,1,0,0,0-2.1,0l-18.7,55.5a112.9,112.9,0,0,0-2.3,59.9h0Z"/><path class="b" d="M140.3,161.8h-3.2V127.1h-1.6v34.7h-3.2v49h3.2v81.7h1.6V210.8h3.2v-49Z"/><circle class="c" cx="136.3" cy="176.3" r="2.4"/><path class="d" d="M100.5,284.4c5.2-14.4,6.9-31.4,4.7-47.7L92.6,144.1a52,52,0,0,0-6.9-18.9,1.4,1.4,0,0,0-1.1-.7H84.6a1.4,1.4,0,0,0-1.1.7,52,52,0,0,0-6.9,18.9L64.2,236.6c-2.2,16.2-.6,33.4,4.7,47.7l0.2,0.4q4.3,11.8,7.8,24.4l6.9,24.8a0.9,0.9,0,1,0,1.9,0L92.6,309l7.8-24.4,0.2-.3h0Z"/><path class="b" d="M88.6,219.1H85.5V155.2H83.9v63.9H80.7v65.5h3.2v11.8h1.6V284.5h3.2V219.1Z"/><circle class="c" cx="84.7" cy="254.9" r="2.4"/><path class="d" d="M376.4,303l0.2,0.4,9.7,26.1,8.7,26.6a1.5,1.5,0,0,0,1.2,1.1,1.3,1.3,0,0,0,1.2-1.1l8.7-26.6c2.9-8.9,6.2-17.7,9.7-26.1l0.2-.4c6.5-15.4,8.5-33.8,5.8-51.3l-15.5-99.2a49.9,49.9,0,0,0-8.5-20.3,1.5,1.5,0,0,0-1.3-.8h-0.1a1.7,1.7,0,0,0-1.3.8c-3.9,5.7-7.3,12.7-8.5,20.3l-15.5,99.3c-2.8,17.5-.7,35.8,5.7,51.2h0Z"/><path class="b" d="M399.9,212.8h-3.2V171h-1.6v41.8H392v82.8h3.2v16.6h1.6V295.6h3.2V212.8Z"/><circle class="c" cx="396.2" cy="262.3" r="2.4"/><path class="a" d="M466.4,121.1l-0.2-.3-7.8-24.4-6.9-24.8a0.9,0.9,0,1,0-1.9,0l-6.9,24.8q-3.5,12.5-7.8,24.4l-0.2.4c-5.2,14.4-6.9,31.5-4.7,47.7l12.5,92.5a52,52,0,0,0,6.9,18.9,1.4,1.4,0,0,0,1.1.7h0.1a1.4,1.4,0,0,0,1.1-.7,52,52,0,0,0,6.9-18.9l12.5-92.5C473.1,152.5,471.5,135.4,466.4,121.1Z"/><path class="b" d="M454.4,120.9h-3.2V109.1h-1.6v11.8h-3.2v65.5h3.2v63.9h1.6V186.4h3.2V120.9Z"/><circle class="c" cx="450.5" cy="150.6" r="2.4"/><path class="a" d="M309.9,77.8l-2.4-6.4a224.6,224.6,0,0,1-10.2-36.4l-3.2-16.6a0.9,0.9,0,0,0-.8-0.9,1,1,0,0,0-.8.9l-3.2,16.6a224.6,224.6,0,0,1-10.2,36.4l-2.4,6.4a88.6,88.6,0,0,0-2.6,51.8l5.6,22.1a425.7,425.7,0,0,1,9.5,50.7l3.3,20.1a0.9,0.9,0,0,0,.7.9,0.9,0.9,0,0,0,.7-0.9l3.3-20.1a425.7,425.7,0,0,1,9.5-50.7l5.6-22.1a89.5,89.5,0,0,0,2.7-21.7A86.3,86.3,0,0,0,309.9,77.8Z"/><path class="b" d="M297.6,106.7h-3.2V72h-1.6v34.7h-3.2v41.8h3.2v38.6h1.6V148.5h3.2V106.7Z"/><circle class="c" cx="293.3" cy="116.9" r="2.4"/><path class="d" d="M239.1,311.3l-1.7-5.8L236,267.4c-0.6-16.5-5.9-32.1-14.9-43.3-11.4-14.4-14.4-37.5-6.9-56.2a59.5,59.5,0,0,0,4-19.9l0.4-12.5a82.6,82.6,0,0,1,7.3-31.6,97,97,0,0,0,8.1-29.7l4.4-40c0.2-1.1,1.3-1.1,1.3,0l4.4,40a97,97,0,0,0,8.1,29.7,82.6,82.6,0,0,1,7.3,31.6l0.4,12.5a59.1,59.1,0,0,0,4,19.9c7.3,18.7,4.5,41.7-6.9,56.2-9,11.3-14.3,26.8-14.9,43.3l-1.3,38.2Z"/><path class="b" d="M242.8,160.4h-3.2V114.7H238v45.7h-3.2v51.3H238v31.5h1.6V211.7h3.2V160.4Z"/><circle class="c" cx="239.1" cy="184.6" r="2.4"/><path class="d" d="M536.8,234.1l2.4,7.8a319.6,319.6,0,0,1,10.2,44.3l4.9,20.1a1.1,1.1,0,0,0,.8,1.1,1.2,1.2,0,0,0,.8-1.1l1.4-20.1a319.6,319.6,0,0,1,10.2-44.3l2.4-7.8a129.6,129.6,0,0,0,2.6-62.9l-5.6-26.9a617.3,617.3,0,0,1-9.5-61.6L554,58.4a1.1,1.1,0,0,0-.7-1.1,1,1,0,0,0-.7,1.1l-3.3,24.4a617.3,617.3,0,0,1-9.5,61.6l-5.6,26.9a130.9,130.9,0,0,0-2.7,26.3,124.8,124.8,0,0,0,5.3,36.6h0Z"/><path class="b" d="M556.9,151.7h-3.2v-9.5h-1.6v9.5h-3.2v58.4h3.2v47.3h1.6V210.1h3.2V151.7Z"/><circle class="c" cx="553.2" cy="182.8" r="2.4"/><path class="a" d="M611.9,42.3l1.7,5.1,1.3,29.4c0.6,14.6,5.9,25.8,14.9,35.7,11.4,12.8,14.4,26.9,6.9,43.5-2.4,5.5-5.6,17.8-5.8,23.9l1.4,15.6c-0.4,9.9-2.8,12.4-7.3,20.9s-6.9,12.5-8.1,21.9l-4.4,35.5c-0.2,1-1.3,1-1.3,0l-4.4-35.5c-1.2-9.4-3.9-13.8-8.1-21.9s-6.9-10.9-7.3-20.9l1.4-15.6c-0.2-6.2-3.4-18.5-5.8-23.9-7.3-16.6-4.5-30.7,6.9-43.5,9-10,14.3-21.1,14.9-35.7l1.3-29.4Z"/><path class="b" d="M608.1,186h3.2v45.7h1.6V186H616V134.7h-3.2V103.2h-1.6v31.5h-3.2V186Z"/><circle class="c" cx="611.9" cy="161.9" r="2.4"/><path class="e" d="M112.9,392.3v-9.4"/><path class="e" d="M263.6,392.3v-9.4"/><path class="e" d="M586.3,392.3v-9.4"/><path class="e" d="M420.4,392.3v-9.4"/><path class="e" d="M38.3,6V383.3H628"/><path class="e" d="M28.8,294.1h10"/><path class="e" d="M28.8,205.1h10"/><path class="e" d="M28.8,117.3h10"/><path class="e" d="M28.8,28.3h10"/><text class="f" transform="translate(399.9 413.4)">2018</text><text class="f" transform="translate(569.5 413.4)">2018</text><text class="f" transform="translate(88.6 413.4)">2016</text><text class="f" transform="translate(242.7 413.4)">2017</text><text class="g" transform="translate(2 212.3)">40</text><text class="g" transform="translate(2 125.7)">60</text><text class="g" transform="translate(2 36.7)">80</text><text class="g" transform="translate(2 299.4)">20</text></svg>