<svg enable-background="new 0 0 1268 418" viewBox="0 0 1268 418" xmlns="http://www.w3.org/2000/svg"><path d="m58.3 5v377.3h1199.7" fill="none" stroke="#ccc" stroke-miterlimit="10" stroke-width="1.2"/><path d="m432.2 302 .2.4 9.7 26.1 8.7 26.6c.1.6.6 1 1.2 1.1.6 0 1.1-.5 1.2-1.1l8.7-26.6c2.9-8.9 6.2-17.7 9.7-26.1l.2-.4c6.5-15.4 8.5-33.8 5.8-51.3l-15.5-99.2c-1.3-7.3-4.2-14.3-8.5-20.3-.3-.5-.8-.8-1.3-.8h-.1c-.5 0-1 .3-1.3.8-3.9 5.7-7.3 12.7-8.5 20.3l-15.5 99.3c-2.8 17.5-.7 35.8 5.7 51.2z" fill="#c4c5d1"/><path d="m455.7 211.8h-3.2v-41.8h-1.6v41.8h-3.1v82.8h3.2v16.6h1.6v-16.6h3.2v-82.8z" fill="#807b9b"/><circle cx="452" cy="261.3" fill="#fff" r="2.4"/><path d="m522.2 120.1-.2-.3-7.8-24.4-6.9-24.8c0-.5-.4-.9-1-.9-.5 0-.9.4-.9.9l-6.9 24.8c-2.3 8.3-4.9 16.5-7.8 24.4l-.2.4c-5.2 14.4-6.9 31.5-4.7 47.7l12.5 92.5c1 6.7 3.4 13.1 6.9 18.9.2.4.6.7 1.1.7h.1c.5 0 .9-.3 1.1-.7 3.5-5.8 5.9-12.2 6.9-18.9l12.5-92.5c2-16.4.4-33.5-4.7-47.8z" fill="#b5aec7"/><path d="m510.2 119.9h-3.2v-11.8h-1.6v11.8h-3.2v65.5h3.2v63.9h1.6v-63.9h3.2z" fill="#807b9b"/><circle cx="506.3" cy="149.6" fill="#fff" r="2.4"/><path d="m476.2 391.3v-9.4" fill="none" stroke="#ccc" stroke-miterlimit="10" stroke-width="1.2"/><text fill="#ccc" font-family="'RobotoMono-Regular'" font-size="17" transform="translate(455.7409 412.4)">2013</text><path d="m777.2 85.9c-6.4 15.4-8.5 33.7-5.7 51.2l15.5 99.3c1.2 7.6 4.6 14.6 8.5 20.3.3.5.8.8 1.3.8h.1c.5 0 1-.3 1.3-.8 4.3-6 7.2-13 8.5-20.3l15.5-99.2c2.7-17.5.7-35.9-5.8-51.3l-.2-.4c-3.5-8.4-6.8-17.2-9.7-26.1l-8.7-26.6c-.1-.6-.6-1.1-1.2-1.1-.6.1-1.1.5-1.2 1.1l-8.7 26.6-9.7 26.1-.2.4z" fill="#c4c5d1"/><path d="m800.4 176.1v-82.9h-3.2v-16.6h-1.6v16.6h-3.2v82.8h3.1v41.8h1.6v-41.8h3.2.1z" fill="#807b9b"/><circle cx="796.6" cy="126.6" fill="#fff" r="2.4"/><path d="m871.5 220-12.5-92.5c-1-6.7-3.4-13.1-6.9-18.9-.2-.4-.6-.7-1.1-.7h-.1c-.5 0-.9.3-1.1.7-3.5 5.8-5.9 12.2-6.9 18.9l-12.5 92.5c-2.2 16.2-.5 33.3 4.7 47.7l.2.4c2.9 7.9 5.5 16.1 7.8 24.4l6.9 24.8c0 .5.4 1 .9 1s1-.4 1-1l6.9-24.8 7.8-24.4.2-.3c5.1-14.3 6.7-31.4 4.7-47.8z" fill="#b5aec7"/><path d="m854.8 202.5h-3.2v-63.9h-1.6v63.9h-3.2v65.5h3.2v11.8h1.6v-11.8h3.2z" fill="#807b9b"/><circle cx="850.9" cy="238.2" fill="#fff" r="2.4"/><path d="m820.8 391.3v-9.4" fill="none" stroke="#ccc" stroke-miterlimit="10" stroke-width="1.2"/><text fill="#ccc" font-family="'RobotoMono-Regular'" font-size="17" transform="translate(800.3075 412.4)">2015</text><path d="m599.7 233.1 2.4 7.8c4.4 14.5 7.9 29.3 10.2 44.3l4.9 20.1c0 .5.3 1 .8 1.1.5-.2.8-.6.8-1.1l1.4-20.1c2.3-15 5.8-29.8 10.2-44.3l2.4-7.8c6-20.4 6.9-42 2.6-62.9l-5.6-26.9c-4.2-20.4-7.4-40.9-9.5-61.6l-3.4-24.3c0-.5-.3-.9-.7-1.1-.5.1-.8.6-.7 1.1l-3.3 24.4c-2.1 20.7-5.3 41.2-9.5 61.6l-5.6 26.9c-1.8 8.7-2.7 17.5-2.7 26.3-.1 12.4 1.7 24.7 5.3 36.5z" fill="#c4c5d1"/><path d="m619.8 150.7h-3.2v-9.5h-1.6v9.5h-3.2v58.4h3.2v47.3h1.6v-47.3h3.2z" fill="#807b9b"/><circle cx="616.1" cy="181.8" fill="#fff" r="2.4"/><path d="m674.8 41.3 1.7 5.1 1.3 29.4c.6 14.6 5.9 25.8 14.9 35.7 11.4 12.8 14.4 26.9 6.9 43.5-2.4 5.5-5.6 17.8-5.8 23.9l1.4 15.6c-.4 9.9-2.8 12.4-7.3 20.9s-6.9 12.5-8.1 21.9l-4.4 35.5c-.2 1-1.3 1-1.3 0l-4.4-35.5c-1.2-9.4-3.9-13.8-8.1-21.9s-6.9-10.9-7.3-20.9l1.4-15.6c-.2-6.2-3.4-18.5-5.8-23.9-7.3-16.6-4.5-30.7 6.9-43.5 9-10 14.3-21.1 14.9-35.7l1.3-29.4z" fill="#b5aec7"/><path d="m671 185h3.2v45.7h1.6v-45.7h3.1v-51.3h-3.2v-31.5h-1.6v31.5h-3.2z" fill="#807b9b"/><circle cx="674.8" cy="160.9" fill="#fff" r="2.4"/><path d="m649.2 391.3v-9.4" fill="none" stroke="#ccc" stroke-miterlimit="10" stroke-width="1.2"/><text fill="#ccc" font-family="'RobotoMono-Regular'" font-size="17" transform="translate(632.376 412.4)">2014</text><path d="m134.3 199.5 6.5 27.8c2.6 11.1 3.5 22.6 2.6 34l-1.6 21c-.7 9.6-.1 19.2 1.9 28.6l11.6 50.2c0 .5.4.9.9.9s.9-.4.9-.9l11.6-50.2c2-9.4 2.6-19 1.9-28.6l-1.6-21c-.9-11.4 0-22.9 2.6-34l6.5-27.8c4.6-19.8 3.8-40.5-2.3-59.9l-18.5-55.6c0-.6-.5-1.1-1.1-1.1s-1.1.5-1.1 1.1l-18.7 55.5c-6.2 19.4-6.9 40.1-2.3 59.9z" fill="#b5aec7"/><path d="m160.3 160.8h-3.2v-34.7h-1.6v34.7h-3.2v49h3.2v81.7h1.6v-81.7h3.2z" fill="#807b9b"/><circle cx="156.3" cy="175.3" fill="#fff" r="2.4"/><path d="m120.5 283.4c5.2-14.4 6.9-31.4 4.7-47.7l-12.6-92.6c-1-6.7-3.4-13.1-6.9-18.9-.2-.4-.6-.7-1.1-.7-.5 0-.9.3-1.1.7-3.5 5.8-5.9 12.2-6.9 18.9l-12.4 92.5c-2.2 16.2-.6 33.4 4.7 47.7l.2.4c2.9 7.9 5.5 16 7.8 24.4l6.9 24.8c0 .5.4 1 1 1 .5 0 .9-.4.9-1l6.9-24.9 7.8-24.4z" fill="#c4c5d1"/><path d="m108.6 218.1h-3.1v-63.9h-1.6v63.9h-3.2v65.5h3.2v11.8h1.6v-11.9h3.2z" fill="#807b9b"/><circle cx="104.7" cy="253.9" fill="#fff" r="2.4"/><path d="m132.9 391.3v-9.4" fill="none" stroke="#ccc" stroke-miterlimit="10" stroke-width="1.2"/><text fill="#ccc" font-family="'RobotoMono-Regular'" font-size="17" transform="translate(108.6 412.4)">2011</text><path d="m1167.9 243.7c-4.6 19.8-3.9 40.5 2.3 59.9l18.7 55.5c0 .6.5 1 1 1 .6 0 1.1-.5 1.1-1l18.6-55.6c6.1-19.4 6.9-40.1 2.3-59.9l-6.5-27.8c-2.6-11.1-3.5-22.6-2.6-34l1.6-21c.7-9.6.1-19.2-1.9-28.6l-11.6-50.2c0-.5-.4-.9-1-.9s-.9.4-.9.9l-11.6 50.2c-2 9.4-2.6 19-1.9 28.6l1.6 21c.9 11.4 0 22.9-2.6 34l-6.5 27.8z" fill="#b5aec7"/><path d="m1194 233.3h-3.2v-81.7h-1.6v81.7h-3.2v49h3.2v34.7h1.6v-34.7h3.2z" fill="#807b9b"/><circle cx="1190" cy="267.8" fill="#fff" r="2.4"/><path d="m1154.3 159.8-.2-.3-7.8-24.4-6.9-24.9c0-.5-.4-1-1-1s-.9.4-.9 1l-6.9 24.8c-2.3 8.4-4.9 16.5-7.8 24.4l-.2.4c-5.3 14.3-6.9 31.5-4.7 47.7l12.4 92.5c1 6.7 3.4 13.1 6.9 18.9.2.4.6.7 1.1.7.5 0 .9-.3 1.1-.7 3.5-5.8 5.9-12.2 6.9-18.9l12.6-92.6c2.2-16.3.5-33.3-4.7-47.7z" fill="#c4c5d1"/><path d="m1142.4 225v-65.4h-3.2v-11.9h-1.6v11.8h-3.2v65.5h3.2v63.9h1.6v-63.9z" fill="#807b9b"/><circle cx="1138.4" cy="189.2" fill="#fff" r="2.4"/><path d="m1166.6 389.4v-9.4" fill="none" stroke="#ccc" stroke-miterlimit="10" stroke-width="1.2"/><text fill="#ccc" font-family="'RobotoMono-Regular'" font-size="17" transform="translate(1142.3 410.5)">2017</text><path d="m351.8 76.8-2.4-6.4c-4.4-11.8-7.8-24-10.2-36.4l-3.2-16.6c0-.5-.3-.8-.8-.9-.4.1-.8.5-.8.9l-3.2 16.6c-2.4 12.4-5.8 24.6-10.2 36.4l-2.4 6.4c-6 16.6-6.9 34.7-2.6 51.8l5.6 22.1c4.2 16.7 7.4 33.6 9.5 50.7l3.3 20.1c0 .4.3.8.7.9.4-.1.7-.5.7-.9l3.3-20.1c2.1-17.1 5.3-34 9.5-50.7l5.6-22.1c1.8-7.1 2.7-14.4 2.7-21.7.1-10.3-1.6-20.4-5.1-30.1z" fill="#b5aec7"/><path d="m339.5 105.7h-3.2v-34.7h-1.6v34.7h-3.2v41.8h3.2v38.6h1.6v-38.6h3.2z" fill="#807b9b"/><circle cx="335.2" cy="115.9" fill="#fff" r="2.4"/><path d="m281 310.3-1.7-5.8-1.4-38.1c-.6-16.5-5.9-32.1-14.9-43.3-11.4-14.4-14.4-37.5-6.9-56.2 2.5-6.4 3.8-13.1 4-19.9l.4-12.5c.3-10.9 2.8-21.7 7.3-31.6 4.3-9.4 7-19.4 8.1-29.7l4.4-40c.2-1.1 1.3-1.1 1.3 0l4.4 40c1.1 10.3 3.8 20.3 8.1 29.7 4.5 9.9 7 20.7 7.3 31.6l.4 12.5c.2 6.8 1.5 13.5 4 19.9 7.3 18.7 4.5 41.7-6.9 56.2-9 11.3-14.3 26.8-14.9 43.3l-1.3 38.2z" fill="#c4c5d1"/><path d="m284.7 159.4h-3.2v-45.7h-1.6v45.7h-3.2v51.3h3.2v31.5h1.6v-31.5h3.2z" fill="#807b9b"/><circle cx="281" cy="183.6" fill="#fff" r="2.4"/><path d="m305.5 391.3v-9.4" fill="none" stroke="#ccc" stroke-miterlimit="10" stroke-width="1.2"/><text fill="#ccc" font-family="'RobotoMono-Regular'" font-size="17" transform="translate(284.6255 412.4)">2012</text><path d="m1046.1 219.9c0-7.3-.9-14.6-2.7-21.7l-5.6-22.1c-4.2-16.7-7.4-33.6-9.5-50.7l-3.3-20.1c0-.4-.3-.8-.7-.9-.4.1-.7.5-.7.9l-3.3 20.1c-2.1 17.1-5.3 34-9.5 50.7l-5.6 22.1c-4.3 17.1-3.4 35.2 2.6 51.8l2.4 6.4c4.4 11.8 7.8 24 10.2 36.4l3.2 16.6c0 .4.4.8.8.9.5-.1.8-.4.8-.9l3.2-16.6c2.4-12.4 5.8-24.6 10.2-36.4l2.4-6.4c3.4-9.7 5.2-19.8 5.1-30.1z" fill="#b5aec7"/><path d="m1028.7 179.3h-3.2v-38.6h-1.6v38.6h-3.2v41.8h3.2v34.7h1.6v-34.7h3.2z" fill="#807b9b"/><circle cx="1024.4" cy="210.9" fill="#fff" r="2.4"/><path d="m971.9 22.2 1.3 38.2c.6 16.5 5.9 32 14.9 43.3 11.4 14.5 14.2 37.5 6.9 56.2-2.5 6.4-3.8 13.1-4 19.9l-.4 12.5c-.3 10.9-2.8 21.7-7.3 31.6-4.3 9.4-7 19.4-8.1 29.7l-4.4 40c0 1.1-1.1 1.1-1.3 0l-4.4-40c-1.1-10.3-3.8-20.3-8.1-29.7-4.5-9.9-7-20.7-7.3-31.6l-.4-12.5c-.2-6.8-1.5-13.5-4-19.9-7.5-18.7-4.5-41.8 6.9-56.2 9-11.2 14.3-26.8 14.9-43.3l1.4-38.1 1.7-5.8z" fill="#c4c5d1"/><path d="m973.9 116.1h-3.2v-31.5h-1.6v31.5h-3.2v51.3h3.2v45.7h1.6v-45.7h3.2z" fill="#807b9b"/><circle cx="970.2" cy="143.2" fill="#fff" r="2.4"/><path d="m994.7 391.3v-9.4" fill="none" stroke="#ccc" stroke-miterlimit="10" stroke-width="1.2"/><text fill="#ccc" font-family="'RobotoMono-Regular'" font-size="17" transform="translate(973.7589 412.4)">2016</text><g fill="none" stroke="#ccc" stroke-miterlimit="10" stroke-width="1.2"><path d="m48.8 293.1h10"/><path d="m48.8 204.1h10"/><path d="m48.8 116.3h10"/><path d="m48.8 27.3h10"/></g><text fill="#ccc" font-family="'RobotoMono-Regular'" font-size="18" transform="translate(22 211.3)">40</text><text fill="#ccc" font-family="'RobotoMono-Regular'" font-size="18" transform="translate(22 124.7)">60</text><text fill="#ccc" font-family="'RobotoMono-Regular'" font-size="18" transform="translate(22 35.7)">80</text><text fill="#ccc" font-family="'RobotoMono-Regular'" font-size="18" transform="translate(22 298.4)">20</text></svg>