<svg enable-background="new 0 0 256 256" viewBox="0 0 256 256" xmlns="http://www.w3.org/2000/svg"><path d="m252.3 66.4h-249.2v-52.8h249.2zm-175.7 6.8h-73.9v52.7h73.9zm64.8 0h-57v52.7h57zm56 0h-49.2v52.7h49.2zm54.2 0h-47.2v52.7h47.2zm-205.5 59.9h-43.4v52.7h43.3v-52.7zm30.7 0h-22.9v52.7h22.9zm0 58.8h-22.9v52.7h22.9zm63.6 0h-22.9v52.7h22.9zm-33.1-58.8h-22.9v52.7h22.9zm34.7 0h-26.9v52.7h26.9zm33.8 0h-26.9v52.7h26.9zm51 0h-21.8v52.7h21.7v-52.7zm0 60.4h-21.8v52.7h21.7v-52.7zm25.2-60.4h-18.4v52.7h18.4z"/></svg>