<?xml version="1.0" encoding="utf-8"?>
<!-- Generator: Adobe Illustrator 19.2.0, SVG Export Plug-In . SVG Version: 6.00 Build 0)  -->
<svg version="1.1" id="Layer_1" xmlns="http://www.w3.org/2000/svg" xmlns:xlink="http://www.w3.org/1999/xlink" x="0px" y="0px"
	 width="1268px" height="558px" viewBox="0 0 1268 558" enable-background="new 0 0 1268 558" xml:space="preserve">

<path fill="none" stroke="#9791A9" stroke-width="3" stroke-miterlimit="10" d="M472.06,2c1.19,3.38,3.19,7.5,6.44,10.5
	c6.5,6,21,13.5,39.5,15.5s42-6,51-10s21.5,0,51.1-2c29.6-2,44.4,6,55.4,11.5s34,6,35.5,14.5s-1.5,7,10.5,12s8,8,7,20.5
	s3,16.5,11,23.5s26.5,16.5,37,27.5s25,14.5,40.5,21.5s15,10.5,15,28.5s0,22.5,8,30.5s3,17,6.5,35s10,16.5,20.5,23.5s15,18,27,27
	s26.5,11.5,37,9.5s30,11,49,12.5s36,2.5,68.5,5s48.5,9,62,20s37.5,24,39,31.5s-15.5,10.5-7,19.5s0,13.5-19,19.5s-18,10.5-48.5,12.5
	s-68.5-8.5-84.5-16.5s-57-22-71-24.5s-40,23-45.5,35.5s-24,31-43.5,47.5s-24.5,13-31.5,24s-37.5,21-55,33s-40.5,17-48.5,24
	s-41.5,4.5-61.5,10c-2,0.55-4.66,1.05-7.85,1.5"/>
<path fill="none" stroke="#9791A9" stroke-width="3" stroke-miterlimit="10" d="M232.44,2c1.62,7.83,6.93,36.57-0.44,48
	c-13,20.17-124.39,3-155.39,33S80,144.33,77,186.03c-2.37,32.9,5.5,76.08,35,113.58c7.43,9.44,29,53.89,35.5,58.89
	s24.17,55.17,84.5,77c15.51,5.61,50.5,21,57.5,29.5s17,18.5,29.5,27s14,17.5,35.5,26.5s37.5,6,55.5,15.5s41,14.5,80,20.5
	c3.61,0.55,7.6,1.05,11.91,1.5"/>
<path fill="none" stroke="#8E86A2" stroke-width="3" stroke-miterlimit="10" d="M439.5,25.5c-34.5-7-43-20.5-84-6.5
	c-26.098,8.911-34,14-51.5,19s-26.5,32.5-43,38s-114.105-6.056-149,10.333C74.917,103.75,95.938,155.64,97.438,185.64
	S112.5,239.5,129,267.5s11,34.5,29,54s16.5,33.5,29.5,50s32,49,67.5,60.5s47,13,63,37s52,33.5,85,46s76.5,26.5,148.5,28.5
	s114-8.5,135-15s48-30.5,68.5-37.5s46.25-32.75,59.5-46s30-14.5,39.5-35.5s39-35,45.5-42.5s21-16,33.5-7.5s19.5,12.5,41.5,17
	s30,23,63,28s75-0.5,78-19.5s-12-28-26-36.5s-33-18.5-59.5-16s-23.5,7.5-46.5,2.5s-27.5,1-50.5-4.5s-60.5-32-70.5-47.5
	s-30.25-10.75-29.5-22.5s1.5-32.5-12-41.5s-10.5-14.5-12-31s-3-22.5-30-34.5s-27-6.5-42.5-27.5s-31-40-48.5-47s-36-12-54-19.5
	s-22.167-19.167-4.167-17.667s33.834,14.633,54.833,9.833c17.5-4-23-24.026-47.167-25.167c-36.545-1.724-53.167,5.57-71.167,9.57
	S523.5,38.5,506,34S455.926,28.833,439.5,25.5z"/>
<path fill="none" stroke="#857C9A" stroke-width="3" stroke-miterlimit="10" d="M414,44.5c-11.322,4.563-27,10.5-38,6.5
	s-23.5-21-47-11s-32,23.5-48,36s-26.5,16.5-43,18.5s-114-13.733-126,25.767S133,228.5,142,248.5s24,50.5,40.5,67.5s30,31.5,31,44
	s6.5,22.5,18.5,35s17.531,20,44.265,31c26.735,11,69.605,27.787,91.235,46.5c44.5,38.5,71.874,19.042,152.75,49.25
	c47.5,17.742,91.25,9.201,128.25,0.25c36.29-8.779,74-18.5,82-28.5s13-13,25-21s35.5-28.5,51.5-41s19.5-13,30-35s30.5-32.5,41.5-40
	s12.5-22.5-5-37.5s-31-19-36.5-34.5s-18-11-22-24.5s-9.5-30.5-23.5-45s-13-27.5-31.5-32s-30.5-7-31-25.5s-5.5-25.5-25-40.5
	s-22-30.5-62-42.5s-78.5-11-98-18.5s-73-9.5-89-16.5S432,37.246,414,44.5z"/>
<path fill="none" stroke="#7C7193" stroke-width="3" stroke-miterlimit="10" d="M234.014,109c-15.886,1.967-77.563-11.191-90.014,48
	c-5.469,26,7.697,78,42.5,118c13.468,15.479,29.75,23.917,42.5,36.667s14.12,26.417,15.583,40.417
	c1.463,14,5.917,26.417,37.917,44.917s65.5,29.5,85,34.5s81.924,35.167,107.424,54.167s85.743,22.489,106.743,17.989
	s88.667,6.677,125.333-19.989c12.278-8.93,37.5-40.167,50.5-48.667s46-50.5,55-65.5s18.5-25.5,9-41.5s-32-37-32-54.5s0-29.5-15-43.5
	s-34-17-49-27s-29.5-22.5-34-39.5s-5.5-43-42-61S525,69.5,524,84.5s26,15.5,53.5,26.5s30,20.5,34.5,43s-5.534,20.966-37.534,4.966
	S492,130.333,460,107.667c-14.852-10.52-62-32.307-103.5-29.307S300.333,100.787,234.014,109z"/>
<path fill="none" stroke="#7C7193" stroke-width="3" stroke-miterlimit="10" d="M613.5,193c-14.5-1-32.5-12.5-48.5-22.5
	S485.5,140,453,134s-60-21-105-18s-93.486,9.833-113.986,32.333s-38.198,19.857-40.198,37.306S194.5,246.5,208,264.5s37,29.5,48,44
	s9.5,56,26,69s60.463,29.628,94.5,37.5c77.833,18,87.833,82,178.5,74c43.569-3.844,59-9,85.5-10.5s68.417-8.917,99.917-45.583
	C807.88,354.388,819.5,344,800,320.5S775,305,776,279s-7.5-46.5-29.5-56.5s-27-5-42-21.5s-30-12.5-28.5-26.5s3-34-15-49.5
	s-59-30.5-61-21.5s22.814,22.384,29,31C643,154,628,194,613.5,193z"/>
<path fill="none" stroke="#73678C" stroke-width="3" stroke-miterlimit="10" d="M641.097,173.394
	c2.972-7.451,8.445-10.633,13.444,3.127s6.308,19.906,24.429,29.726c18.12,9.82,4.612,9.515,31.405,20.002
	c26.793,10.486,44.669,31.124,42.968,42.379c-1.702,11.255-15.099,27.423,9.06,47.732s15.941,42.24,5.598,51.418
	s-34.462,29.968-53.692,47.887s-43.373,39.803-95.603,44.272s-99.762,7.821-117.852,3.499
	c-27.377-6.541-67.003-46.726-84.577-59.357s-104.051-30.581-118.274-63.371s-5.39-39.225-24.375-53.512
	s-39.901-60.639-28.479-85.557c5.907-12.887,20.912-20.073,31.565-29.875c41.144-37.859,66.355-31.522,107.748-26.353
	c31.263,3.904,40.229-7.328,98.748,8.894c32.848,9.106,77.634,24.809,91.423,34.061c13.789,9.252,39.983,24.901,51.901,10.111
	C638.451,183.687,637.004,183.654,641.097,173.394z"/>
<path fill="none" stroke="#73678C" stroke-width="3" stroke-miterlimit="10" d="M630.135,225.314
	c46.866,2.914,70.697,17.406,66.164,43.302c-3.676,20.998,23.108,25.108,46.406,50.198c8.746,9.418,16.541,20.113-2.297,40.818
	c-11.204,12.315-68.92,63.407-100.164,72.137s-75.353,15.469-102.002,8.577c-26.649-6.892-31.682-8.117-36.277-19.604
	c-4.595-11.487-9.222-14.691-23.925-14.691s-15.131-7.383-35.348-19.329c-20.217-11.946-51.48-22.342-66.183-26.018
	c-14.703-3.676-36.498-8.27-44.769-33.082c-8.27-24.811-20.629-27.218-21.089-39.416c-0.459-12.198-29.406-43.288-25.73-65.956
	c1.791-11.045,19.757-38.595,62.182-45.28c19.773-3.115,26.19-9.703,44.109-6.181s68.461-9.189,90.975-3.676
	c22.514,5.514,42.731,14.703,70.758,31.244S585.521,222.54,630.135,225.314z"/>
<path fill="none" stroke="#6A5C84" stroke-width="3" stroke-miterlimit="10" d="M620.454,267.071
	c12.96,16.8,23.679,35.635-2.729,42.994c-15.976,4.452,23.563,51.452,14.249,79.407c-6.717,20.16-35.52,28.8-57.6,30.72
	c-22.08,1.92-37.92,0.48-57.6-17.76c-19.68-18.24-36.96-25.44-64.32-35.04c-27.36-9.6-56.16-9.12-73.92-29.28
	c-17.76-20.16-23.52-42.418-36.96-55.769c-13.44-13.351-39.36-35.911-15.36-60.391c24-24.48,50.88-29.28,86.88-32.16
	s58.724-9.96,77.902-0.84c19.178,9.12,52.898,26.52,67.298,34.2C572.694,230.831,609.46,252.82,620.454,267.071z"/>
<path fill="none" stroke="#61527D" stroke-width="3" stroke-miterlimit="10" d="M547.908,331.938
	c14.808,17.656,23.012,52.77-12.3,45.936c-8.646-1.673-35.842-14.862-41.415-20.842s-24.795-15.378-45.298-16.659
	c-20.504-1.281-29.047-2.99-45.706-21.358s-18.368-30.634-25.63-39.024c-7.262-8.39-26.911-14.371-29.474-28.04
	s-1.709-25.63,26.057-37.59c27.765-11.96,46.108-9.969,58.094-11.96c46.56-7.737,82.869,14.951,95.684,21.358
	c12.815,6.407,42.361,23.865,38.783,37.87c-2.764,10.821-40.234,20.578-42.265,28.848
	C520.954,304.653,540.227,322.78,547.908,331.938z"/>
<path fill="none" stroke="#584775" stroke-width="3" stroke-miterlimit="10" d="M484.824,292.512
	c-2.656,9.501,16.073,25.973,9.746,32.3s-39.893-5.211-57.758-11.538c-17.865-6.327-28.658-10.443-36.474-27.367
	c-7.816-16.923-15.259-16.923-25.308-24.367c-10.049-7.444-15.632-22.331,4.838-33.869c20.47-11.538,31.263-10.049,46.151-9.305
	c14.887,0.744,33.124-2.86,47.639-0.5c14.515,2.361,22.703,4.594,30.891,14.27c8.188,9.677,29.948,18.862,13.399,30.643
	C504.677,272.229,490.384,272.624,484.824,292.512z"/>
<path fill="none" stroke="#4F3D6E" stroke-width="3" stroke-miterlimit="10" d="M457.652,286.29
	c-3.562,9.732-14.413,17.322-26.881,8.781c-12.468-8.541-21.924-21.962-26.805-30.198s-20.206-6.406-20.742-17.692
	c-0.537-11.286,21.657-14.337,40.569-14.947c18.912-0.61,41.922,1.22,52.379,11.896s7.611,16.061-6.014,23.293
	C459.459,273.103,461.312,276.289,457.652,286.29z"/>
<path fill="none" stroke="#A99EA9" stroke-width="3" stroke-miterlimit="10" d="M711.86,2c9.36,3.78,21.03,3.41,32.14,10.89
	C759,23,742.81,24,752.9,45C763,66,763,68,773,86s11,15,45,32s33,23.45,38,47.73C861,190,869.46,232,886.73,239
	c17.27,7,29.77,27.2,49.27,42.85s70,14.32,97,12.74c27-1.59,15-11.38,50,5.02c35,16.39,54,21.64,80,39.52c26,17.87,72,41.87,8,70.87
	s-81,30-133,22s-97-43-116-23c-18.58,19.56-84,104.73-210.3,147"/>
<path fill="none" stroke="#BCAAA9" stroke-width="3" stroke-miterlimit="10" d="M906.96,2c-1.62,5.33-4.62,12-9.96,20
	c-16,24-11,26,0,41s-23.47,10,0.76,42C922,137,958,148.1,978,156.55s27,5.54,12,21C975,193,999,200,990,222s-29,28.66,38,34.83
	c67,6.17,77,26.38,116,42.78c36.21,15.22,108.61,29.23,122,78.37"/>
<path fill="none" stroke="#BCAAA9" stroke-width="3" stroke-miterlimit="10" d="M873.71,556c15.02-7.48,55.36-28.29,68.29-42.14
	c16-17.14,57-23.86,90-15.86s40,8,45.48-7.34C1082.97,475.33,1132,475,1170,459c32.74-13.79,84.78-11.24,96-48.01"/>
<path fill="none" stroke="#A99EA9" stroke-width="3" stroke-miterlimit="10" d="M24.951,17.229
	C2.128,23.844,0.53,41.058,31.526,49.807s31.219,14.385,73.844,4.992s92.406-16.776,60.471-27.173S89.76-1.556,24.951,17.229z"/>
<path fill="none" stroke="#A99EA9" stroke-width="3" stroke-miterlimit="10" d="M2,253.46c7.39-12.23,11.13-23.81,30-27.19
	C64,220.53,80,328,81,366s28,53,79,79.7c51,26.71,79,51.3,104,81.93c12.59,15.43,19.85,24.04,28.49,28.37"/>
<path fill="none" stroke="#BCAAA9" stroke-width="3" stroke-miterlimit="10" d="M2,456.97c3.61,3.52,9.74,6.25,20,8.03
	c46,8,58,21,74,48c9,15.18,20.21,31,37.91,43"/>
<path fill="none" stroke="#E1C3AA" stroke-width="3" stroke-miterlimit="10" d="M1266,19.55c-40.43,18.56-141.21,24.66-150.11,50.62
	C1106,99,1063,105,1109,138c42.88,30.76,105.74,15.47,157,31.08"/>
<path fill="none" stroke="#F3D0AA" stroke-width="3" stroke-miterlimit="10" d="M1266,50.35c-35.23,11.16-96.18,19.12-92,42.6
	c4.21,23.63,57.41,11.03,92,23.22"/>
<path fill="none" stroke="#CEB7AA" stroke-width="3" stroke-miterlimit="10" d="M1266,245.8c-37.61-28.3-127-33.03-177.86-34.97
	c-56.85-2.17-45.14-49.83-35.14-66.77c10-16.93-38-39.06-42-59.4s59-38.66,122-48.59c45.74-7.21,77.24-22.43,94.52-34.07"/>
<rect x="421" y="282.539" fill="#FFFFFF" width="41.333" height="21.907"/>
<g>
	<text transform="matrix(1 0 0 1 427.4504 300.6406)" fill="#B3B3B3" font-family="'RobotoCondensed-Regular'" font-size="20px">250</text>
</g>
<rect x="441.709" y="308.569" transform="matrix(0.9483 0.3174 -0.3174 0.9483 125.3086 -130.2235)" fill="#FFFFFF" width="41.333" height="21.907"/>
<g>
	
		<text transform="matrix(0.9483 0.3174 -0.3174 0.9483 446.6393 321.7174)" fill="#B3B3B3" font-family="'RobotoCondensed-Regular'" font-size="20px">240</text>
</g>
<rect x="494.86" y="356.943" transform="matrix(0.8683 0.496 -0.496 0.8683 250.3549 -207.2554)" fill="#FFFFFF" width="41.333" height="21.907"/>
<g>
	
		<text transform="matrix(0.8683 0.496 -0.496 0.8683 499.688 367.0576)" fill="#B3B3B3" font-family="'RobotoCondensed-Regular'" font-size="20px">230</text>
</g>
<rect x="564.184" y="403.07" transform="matrix(0.9787 -0.2052 0.2052 0.9787 -72.5206 128.8413)" fill="#FFFFFF" width="41.333" height="21.907"/>
<g>
	
		<text transform="matrix(0.9787 -0.2052 0.2052 0.9787 572.3779 423.8951)" fill="#B3B3B3" font-family="'RobotoCondensed-Regular'" font-size="20px">220</text>
</g>
<rect x="685.641" y="380.071" transform="matrix(0.735 -0.6781 0.6781 0.735 -77.9639 582.5672)" fill="#FFFFFF" width="41.333" height="21.907"/>
<g>
	
		<text transform="matrix(0.735 -0.6781 0.6781 0.735 700.7169 405.8854)" fill="#B3B3B3" font-family="'RobotoCondensed-Regular'" font-size="20px">210</text>
</g>
<rect x="519.333" y="453.148" transform="matrix(0.9997 -0.0259 0.0259 0.9997 -11.8237 14.1229)" fill="#FFFFFF" width="41.333" height="21.907"/>
<g>
	
		<text transform="matrix(0.9997 -0.0259 0.0259 0.9997 526.0475 471.619)" fill="#B3B3B3" font-family="'RobotoCondensed-Regular'" font-size="20px">200</text>
</g>
<rect x="567.333" y="472.154" transform="matrix(0.9913 -0.1315 0.1315 0.9913 -58.4259 81.5225)" fill="#FFFFFF" width="41.333" height="21.907"/>
<g>
	
		<text transform="matrix(0.9913 -0.1315 0.1315 0.9913 574.906 492.0887)" fill="#B3B3B3" font-family="'RobotoCondensed-Regular'" font-size="20px">190</text>
</g>
<rect x="766.221" y="397.776" transform="matrix(0.6389 -0.7693 0.7693 0.6389 -30.2864 752.938)" fill="#FFFFFF" width="41.333" height="21.907"/>
<g>
	
		<text transform="matrix(0.6389 -0.7693 0.7693 0.6389 783.306 424.2449)" fill="#B3B3B3" font-family="'RobotoCondensed-Regular'" font-size="20px">180</text>
</g>
<rect x="329.431" y="446.167" transform="matrix(0.8096 0.587 -0.587 0.8096 334.9662 -118.4649)" fill="#FFFFFF" width="41.333" height="21.907"/>
<g>
	
		<text transform="matrix(0.8096 0.587 -0.587 0.8096 334.3777 454.5062)" fill="#B3B3B3" font-family="'RobotoCondensed-Regular'" font-size="20px">170</text>
</g>
<rect x="510.462" y="530.799" transform="matrix(0.9992 0.0411 -0.0411 0.9992 22.7259 -21.3816)" fill="#FFFFFF" width="41.333" height="21.907"/>
<g>
	
		<text transform="matrix(0.9992 0.0411 -0.0411 0.9992 516.5925 548.2762)" fill="#B3B3B3" font-family="'RobotoCondensed-Regular'" font-size="20px">160</text>
</g>
<rect x="413.273" y="529.709" transform="matrix(0.965 0.2622 -0.2622 0.965 156.9236 -94.8542)" fill="#FFFFFF" width="41.333" height="21.907"/>
<g>
	
		<text transform="matrix(0.965 0.2622 -0.2622 0.965 418.3239 543.8232)" fill="#B3B3B3" font-family="'RobotoCondensed-Regular'" font-size="20px">150</text>
</g>
<rect x="818.575" y="446.201" transform="matrix(0.7359 -0.6771 0.6771 0.7359 -87.8784 689.0295)" fill="#FFFFFF" width="41.333" height="21.907"/>
<g>
	
		<text transform="matrix(0.7359 -0.6771 0.6771 0.7359 833.59 472.0433)" fill="#B3B3B3" font-family="'RobotoCondensed-Regular'" font-size="20px">150</text>
</g>
<rect x="778.393" y="509.105" transform="matrix(0.7926 -0.6098 0.6098 0.7926 -151.3739 595.113)" fill="#FFFFFF" width="41.333" height="21.907"/>
<g>
	
		<text transform="matrix(0.7926 -0.6098 0.6098 0.7926 792.1644 534.3975)" fill="#B3B3B3" font-family="'RobotoCondensed-Regular'" font-size="20px">140</text>
</g>
<rect x="1136.923" y="449.358" transform="matrix(0.9565 -0.2916 0.2916 0.9565 -83.9192 357.5687)" fill="#FFFFFF" width="41.333" height="21.907"/>
<g>
	
		<text transform="matrix(0.9565 -0.2916 0.2916 0.9565 1146.1106 471.2961)" fill="#B3B3B3" font-family="'RobotoCondensed-Regular'" font-size="20px">130</text>
</g>
<rect x="1149.292" y="206.077" transform="matrix(0.9863 0.165 -0.165 0.9863 51.8331 -190.0327)" fill="#FFFFFF" width="41.333" height="21.907"/>
<g>
	
		<text transform="matrix(0.9863 0.165 -0.165 0.9863 1154.7529 221.7588)" fill="#B3B3B3" font-family="'RobotoCondensed-Regular'" font-size="20px">120</text>
</g>
<rect x="21.143" y="39.396" transform="matrix(0.9863 0.165 -0.165 0.9863 8.879 -6.2074)" fill="#FFFFFF" width="41.333" height="21.907"/>
<g>
	
		<text transform="matrix(0.9863 0.165 -0.165 0.9863 26.6036 55.0776)" fill="#B3B3B3" font-family="'RobotoCondensed-Regular'" font-size="20px">140</text>
</g>
<rect x="130.119" y="430.225" transform="matrix(0.8546 0.5193 -0.5193 0.8546 251.0417 -14.1496)" fill="#FFFFFF" width="41.333" height="21.907"/>
<g>
	
		<text transform="matrix(0.8546 0.5193 -0.5193 0.8546 134.9627 439.8973)" fill="#B3B3B3" font-family="'RobotoCondensed-Regular'" font-size="20px">140</text>
</g>
<rect x="27.333" y="459.816" transform="matrix(0.9516 0.3072 -0.3072 0.9516 146.9401 8.0182)" fill="#FFFFFF" width="41.333" height="21.907"/>
<g>
	
		<text transform="matrix(0.9516 0.3072 -0.3072 0.9516 32.2832 473.2649)" fill="#B3B3B3" font-family="'RobotoCondensed-Regular'" font-size="20px">130</text>
</g>
<rect x="326.184" y="105.178" transform="matrix(0.9987 -0.0503 0.0503 0.9987 -5.4001 17.5855)" fill="#FFFFFF" width="41.333" height="21.907"/>
<g>
	
		<text transform="matrix(0.9987 -0.0503 0.0503 0.9987 333.0758 124.0021)" fill="#B3B3B3" font-family="'RobotoCondensed-Regular'" font-size="20px">190</text>
</g>
<rect x="400.333" y="158.126" transform="matrix(0.9987 -0.0503 0.0503 0.9987 -7.9684 21.3805)" fill="#FFFFFF" width="41.333" height="21.907"/>
<g>
	
		<text transform="matrix(0.9987 -0.0503 0.0503 0.9987 407.2256 176.9501)" fill="#B3B3B3" font-family="'RobotoCondensed-Regular'" font-size="20px">210</text>
</g>
<rect x="439.333" y="206.101" transform="matrix(0.9987 -0.0503 0.0503 0.9987 -10.3311 23.402)" fill="#FFFFFF" width="41.333" height="21.907"/>
<g>
	
		<text transform="matrix(0.9987 -0.0503 0.0503 0.9987 446.2256 224.9252)" fill="#B3B3B3" font-family="'RobotoCondensed-Regular'" font-size="20px">240</text>
</g>
<rect x="1178.554" y="148.738" transform="matrix(0.9935 0.1135 -0.1135 0.9935 25.8805 -135.1039)" fill="#FFFFFF" width="41.333" height="21.907"/>
<g>
	
		<text transform="matrix(0.9935 0.1135 -0.1135 0.9935 1184.3268 165.2132)" fill="#B3B3B3" font-family="'RobotoCondensed-Regular'" font-size="20px">110</text>
</g>
<rect x="1204.462" y="98.712" transform="matrix(1 -0.0081 0.0081 1 -0.8519 9.9734)" fill="#FFFFFF" width="41.333" height="21.907"/>
<g>
	
		<text transform="matrix(1 -0.0081 0.0081 1 1211.0157 116.937)" fill="#B3B3B3" font-family="'RobotoCondensed-Regular'" font-size="20px">100</text>
</g>
</svg>
