<svg height="367" viewBox="0 0 650 367" width="650" xmlns="http://www.w3.org/2000/svg" xmlns:xlink="http://www.w3.org/1999/xlink"><clipPath id="a"><path d="m31.3 7.5h611.7v327.41h-611.7z"/></clipPath><path d="m31.3 7.5h611.7v327.41h-611.7z" fill="#fff"/><text fill="#9b9b9b" font-family="Roboto Mono" font-size="11" transform="translate(25.1 354)">1975</text><text fill="#9b9b9b" font-family="Roboto Mono" font-size="11" transform="translate(104.5 354)">1980</text><text fill="#9b9b9b" font-family="Roboto Mono" font-size="11" transform="translate(184 354)">1985</text><text fill="#9b9b9b" font-family="Roboto Mono" font-size="11" transform="translate(263.4 354)">1990</text><text fill="#9b9b9b" font-family="Roboto Mono" font-size="11" transform="translate(342.9 354)">1995</text><text fill="#9b9b9b" font-family="Roboto Mono" font-size="11" transform="translate(422.3 354)">2000</text><text fill="#9b9b9b" font-family="Roboto Mono" font-size="11" transform="translate(501.8 354)">2005</text><text fill="#9b9b9b" font-family="Roboto Mono" font-size="11" transform="translate(581.3 354)">2010</text><path d="m26.3 340.1v-1.2h616.7v1.2" fill="#a0a0a0"/><g fill="#9b9b9b" font-family="Roboto Mono" font-size="11"><text transform="translate(13.1 340.2)">0</text><text transform="translate(6.5 302.6)">10</text><text transform="translate(6.5 264.9)">20</text><text transform="translate(6.5 227.3)">30</text><text transform="translate(6.5 189.7)">40</text><text transform="translate(6.5 152)">50</text><text transform="translate(6.5 114.4)">60</text><text transform="translate(6.5 76.8)">70</text><text transform="translate(6.5 39.1)">80</text></g><path d="m26 7.5h1.3v332.4h-1.3" fill="#a0a0a0"/><g clip-path="url(#a)"><path d="m31.3 316.1.2-2.5c.2-2.5.7-7.5 9-6.9s24.7 6.9 34.9 9.4 14.1 1.3 17.4 0l7.7-3.1c1.8-.6 2.6-.6 5.3 0s7.1 1.9 9.7 1.3 3.5-3.1 10.4-5.6 19.6-5 26.3-5 7.1 2.5 7.5 4.4.9 3.1 2 1.9 2.8-5 3.9-6.9 1.5-1.9 2.2-1.9a2.1 2.1 0 0 1 2.2 1.3c.7 1.3 1.1 3.8 1.5 4.4s.9-.6 1.3-1.9l1.3-3.8 1.8-5c.9-2.5 2.2-6.3 3.1-6.9s1.3 1.9 1.8 1.9.9-2.5 1.3-5 .9-5 1.6-8.2 1.6-6.9 2.4-11.3 1.8-9.4 2.4-8.2 1.1 8.8 1.6 15.1.9 11.3 1.3 12.5.9-1.3 1.3-3.1.9-3.1 1.3-5 .9-4.4 1.3-5 .9.6 1.3 3.8.8 8.2 1.3 7.5.9-6.9 1.3-8.8.9.6 1.3 3.8.9 6.9 1.3 9.4a11.9 11.9 0 0 0 1.3 4.4c.4.6.9.6 1.3-1.3a92.2 92.2 0 0 0 1.3-10.7c.4-5 .9-11.3 1.3-18.2s.9-14.4 1.3-11.9.9 15.1 1.3 20.1.9 2.5 1.3-.6.9-6.9 1.3-2.5.8 16.9 1.3 25.1.9 11.9 1.3 12.5.9-1.9 1.3-3.8a38.2 38.2 0 0 1 1.3-4.4 38.5 38.5 0 0 0 1.3-4.4c.4-1.9.9-4.4 1.3-5.6s.9-1.3 1.3.6.9 5.6 1.3 6.3.9-1.9 1.3-5 .9-6.9 1.3-8.8.9-1.9 1.3-5 .9-9.4 1.3-8.2.8 10 1.3 10 .9-8.8 1.8-11.3 2.2 1.3 3.1 3.8 1.3 3.8 1.8 1.9.9-6.9 1.3-10 .9-4.4 1.3-4.4.9 1.3 1.3.6.9-3.1 1.3-6.3a164.2 164.2 0 0 0 1.3-17.6c.4-10.7.9-28.2 1.3-29.5s.9 13.8 1.3 21.3.9 7.5 1.3 7.5.9 0 1.3-5.6.9-16.9 1.3-22 .9-3.8 1.3-6.3.9-8.8 1.3-10 .9 2.5 1.3 3.8.9 0 1.3.6.9 3.1 1.3 11.3.9 22 1.3 27.6.9 3.1 1.3 4.4.9 6.3 1.3 5 .8-8.8 1.3-15.7.9-13.2 1.3-11.3.9 11.9 1.3 7.5.9-23.2 1.3-26.3.9 9.4 1.3 6.3.9-22 1.3-37.6.9-28.2 1.3-35.8.9-10 1.3 15.1.9 77.8 1.3 105.4.9 30.1 1.3 25.1.9-17.6 1.3-24.5.9-8.2 1.3-14.4.8-17.6 1.3-27 .9-16.9 1.3-25.1.9-16.9 1.3-21.3.9-4.4 1.3 2.5.9 20.7 1.3 26.3.9 3.1 1.3 4.4.9 6.3 1.3 8.2.9.6 1.3-7.5.9-23.2 1.3-30.7.9-7.5 1.3-3.8.9 11.3 1.3 23.2.9 28.2 1.3 37.6.8 11.9 1.3 13.2.9 1.3 1.3-7.5.9-26.3 1.3-23.2.9 27 1.3 28.9.9-18.2 1.3-17.6.9 22 1.3 30.1.9 3.1 1.3 2.5.9 3.1 1.3 3.1.9-3.8 1.3-6.9.9-5.6 1.3-30.7.9-72.8 1.3-99.7.9-33.2 1.6-33.2 1.5 6.3 2.2 27.6 1.1 57.7 1.5 72.8.9 8.8 1.3 8.8.9 6.3 1.3 10 .9 5 1.3 20.7.9 45.8 1.3 59 .9 9.4 1.3 7.5.9-1.9 1.3-5.6.9-11.3 1.3-14.4.9-1.9 1.3 3.1.9 13.8 1.3 16.9.8.6 1.3-17.6.9-52.1 1.3-79.7.9-48.9 1.3-61.5.9-16.3 1.3 18.2.9 107.3 1.3 143.6.9 36.4 1.3 36.4a1.4 1.4 0 0 0 1.3-.6c.4-.6.9-1.9 1.3-1.3s.9 3.1 1.3 1.9.9-6.3 1.3-7.5.9 1.3 1.3 2.5.9 1.3 1.3-.6.8-5.6 1.3-6.3.9 1.9 1.3 4.4a51.9 51.9 0 0 0 1.3 6.3c.4 1.3.9 1.3 1.3 1.3a1.3 1.3 0 0 0 1.3-.6 15.9 15.9 0 0 0 1.3-3.1c.4-1.3.9-2.5 1.3-2.5s.9 1.3 1.3 2.5.9 2.5 1.3 2.5.9-1.3 1.3-2.5a15.1 15.1 0 0 1 1.3-3.1c.4-.6.9-.6 1.3-1.3s.8-1.9 1.3-2.5a1.3 1.3 0 0 1 1.3-.6h1.3c.4 0 .9 0 1.3-1.3s.9-3.8 1.3-10.7.9-18.2 1.3-31.4.9-28.2 1.3-35.8.9-7.5 1.3 7.5.9 45.2 1.3 57.7.9 7.5 1.3 5.6.9-.6 1.3 1.3.9 4.4 1.3 3.8.9-4.4 1.3-3.8.9 5.6 1.3 8.8.9 4.4 1.3 2.5.9-6.9 1.3-6.9.9 5 1.3 6.3.9-1.3 1.3-1.9.9.6 1.3.6.9-1.3 1.3-1.3.9 1.3 1.3-11.9.9-40.8 1.3-40.8.9 27.6 1.3 42.7.9 17.6 1.3 17.6.8-2.5 1.3-2.5.9 2.5 1.5 3.8a2.1 2.1 0 0 0 2.2 1.3h4.2a1.3 1.3 0 0 1 1.3.6c.4.6.9 1.9 1.3 1.9s.9-1.3 1.3-1.9a1.4 1.4 0 0 1 1.3-.6 1.3 1.3 0 0 0 1.3-.6c.4-.6.8-1.9 1.3-1.9s.9 1.3 1.3 1.3.9-1.3 1.3-1.3.9 1.3 1.3 1.9.9.6 1.3 1.3.9 1.9 1.3 1.9.9-1.3 1.3-1.9.9-.6 1.3-1.3.9-1.9 1.3-1.9.9 1.3 1.3 1.3.9-1.3 1.3-1.3.9 1.3 1.3 1.3.8-1.3 1.3-1.3.9 1.3 1.3 1.3.9-1.3 1.3-1.9a4.3 4.3 0 0 0 1.3-2.5c.4-1.9.9-5.6 1.3-6.3s.9 1.9 1.3 4.4a52.7 52.7 0 0 0 1.3 6.3c.4 1.3.9 1.3 1.3 1.3h1.3a1.3 1.3 0 0 0 1.3-.6c.4-.6.9-1.9 1.3-1.9s.9 1.3 1.3 1.9.9.6 1.3 0 .9-1.9 1.3-2.5a4.8 4.8 0 0 0 1.3-1.9 51.5 51.5 0 0 0 1.3-6.3c.4-2.5.9-5 1.3-3.1s.9 8.2 1.3 10.7.9 1.3 1.3-1.9.9-8.2 1.3-9.4.9 1.3 1.3 0 .9-6.3 1.3-6.9.9 3.1 1.3 6.3a47.4 47.4 0 0 0 1.3 6.9c.4 1.3.8 1.3 1.3 0s.9-3.8 1.5-3.8 1.6 2.5 2.2 2.5 1.1-2.5 1.5-2.5.9 2.5 1.3 2.5.9-2.5 1.3-3.1.9.6 1.3-.6.9-5 1.6-3.8 1.6 7.5 2.2 10.7 1.1 3.1 1.5-.6.8-11.3 1.3-11.3.9 7.5 1.3 11.9.9 5.6 1.3 6.3.9.6 1.3 0 .9-1.9 1.5-5 1.6-8.2 2.2-8.2 1.1 5 1.5 7.5.9 2.5 1.3 1.9.9-1.9 1.3-1.9.9 1.3 1.3 1.3.9-1.3 1.3-3.1.8-4.4 1.3-5.6.9-1.3 1.3 0 .9 3.8 1.3 2.5.9-6.3 1.3-7.5.9 1.3 1.3.6.9-4.4 1.3-4.4.9 3.8 1.3 6.9a44.7 44.7 0 0 0 1.3 6.9c.4 1.3.9 1.3 1.3-2.5s.9-11.3 1.3-12.5.9 3.8 1.3-22 .9-82.2 1.3-119.2.9-54.6 1.3-40.8.9 59 1.3 79 .9 15.1 1.3 17.6.9 12.5 1.3 11.3.9-13.8 1.3-17.6.9 1.3 1.3 20.7.9 53.3 1.3 69.6.9 15.1 1.3 15.7.9 3.1 1.3 3.8.9-.6 1.3-.6.9 1.3 1.3 1.3.9-1.3 1.3-1.3.8 1.3 1.5-.6 1.5-6.9 2.2-9.4 1.1-2.5 1.6-1.3.9 3.8 1.3 5a4.8 4.8 0 0 0 1.3 1.9 15.1 15.1 0 0 1 1.3 3.1c.4 1.3.9 2.5 1.3 1.9s.9-3.1 1.6-5 1.6-3.1 2.2-3.1 1.1 1.3 1.5 1.3.8-1.3 1.3-1.9.9-.6 1.3 0 .9 1.9 1.3 1.3.9-3.1 1.3-4.4.9-1.3 1.3-.6.9 1.9 1.6 3.1 1.6 2.5 2.2 1.9 1.1-3.1 1.6-4.4.9-1.3 1.3-1.3a2.6 2.6 0 0 1 1.8.6l3.1 2.5c.9.6 1.3.6 1.7 1.3s.9 1.9 1.3 2.5.9.6 1.3-.6a52.7 52.7 0 0 0 1.3-6.3c.4-2.5.9-5 1.3-5.6s.9.6 1.5 0 1.5-3.1 2.2-3.8 1.1.6 1.6.6.9-1.3 1.3-3.8.9-6.3 1.3-5.6.9 5.6 1.3 8.2.9 2.5 1.3 2.5a1.4 1.4 0 0 0 1.3-.6c.4-.6.9-1.9 1.3-8.2s.9-17.6 1.3-15.7.9 16.9 1.3 23.8.9 5.6 1.3 5.6.9 1.3 1.3 1.9a1.3 1.3 0 0 0 1.3.6c.4 0 .9 0 1.3-1.3s.9-3.8 1.6-3.8 1.5 2.5 2.2-4.4 1.1-23.2 1.5-21.3.9 22 1.3 32 .9 10 1.3 8.2.9-5.6 1.6-6.3 1.6 1.9 2.2 3.8 1.1 3.1 2 2.5 2.2-3.1 3.1-5 1.3-3.1 1.7-3.1.9 1.3 1.3 1.3.9-1.3 1.3-1.9a1.4 1.4 0 0 1 1.3-.6 1.3 1.3 0 0 1 1.3.6 15.9 15.9 0 0 1 1.3 3.1c.4 1.3.9 2.5 1.3.6s.9-6.9 1.3-8.2.9 1.3 1.3 2.5a4.8 4.8 0 0 0 1.3 1.9c.4.6.9 1.9 1.3 1.9s.9-1.3 1.3-1.9a4.8 4.8 0 0 0 1.3-1.9c.4-1.3.9-3.8 1.3-4.4s.9.6 1.3-.6.9-5 1.3-6.9.9-1.9 1.3-3.1.9-3.8 1.3-5a4.9 4.9 0 0 1 1.3-1.9c.4-.6.9-1.9 1.3-2.5s.9-.6 1.3 1.3.9 5.6 1.3 6.3.9-1.9 1.3-4.4.9-5 1.3-3.1.9 8.2 1.3 12.5.9 6.9 1.3 4.4.9-10 1.3-13.2.9-1.9 1.3 0 .9 4.4 1.1 5.6l.2 1.3" fill="none" stroke="#ababab" stroke-width="1.29"/></g><g clip-path="url(#a)"><path d="m31.3 297.3.2-.6c.2-.6.7-1.9 9-1.9a238.2 238.2 0 0 1 34.9 3.1c10.2 1.9 14.1 4.4 17.4 5s6-.6 7.7-1.3 2.6-.6 5.3 0l9.7 2.5c2.7.6 3.5.6 10.4-.6s19.6-3.8 26.3-3.1 7.1 4.4 7.5 5 .9-1.9 2-2.5 2.8.6 3.9 1.9 1.5 2.5 2.2 2.5 1.6-1.3 2.2-1.3 1.1 1.3 1.5 0 .9-5 1.3-5.6.9 1.9 1.3 3.8.9 3.1 1.8 3.1 2.2-1.3 3.1-2.5a14 14 0 0 0 1.8-3.8c.4-1.3.9-2.5 1.3-1.9s.9 3.1 1.6 5 1.6 3.1 2.4 2.5 1.8-3.1 2.4-2.5 1.1 4.4 1.6 6.3.9 1.9 1.3 1.3a12.1 12.1 0 0 0 1.3-3.8c.4-1.9.9-4.4 1.3-6.9s.9-5 1.3-5.6.9.6 1.3 1.9.8 2.5 1.3 2.5.9-1.3 1.3 0a73.6 73.6 0 0 1 1.3 8.2c.4 3.1.9 5.6 1.3 3.8s.9-8.2 1.3-9.4.9 2.5 1.3 4.4.9 1.9 1.3 3.1.9 3.8 1.3 5 .9 1.3 1.3.6.9-1.9 1.3-.6.9 5 1.3 6.3.9 0 1.3-1.3.8-2.5 1.3-1.9.9 3.1 1.3 3.8.9-.6 1.3-.6.9 1.3 1.3 1.9.9.6 1.3 0 .9-1.9 1.3-2.5a1.4 1.4 0 0 1 1.3-.6 1.3 1.3 0 0 0 1.3-.6c.4-.6.9-1.9 1.3-1.9s.9 1.3 1.3 1.9.9.6 1.3-1.3.9-5.6 1.3-7.5.8-1.9 1.3-1.3a8.4 8.4 0 0 0 1.8 2.5 5.5 5.5 0 0 0 3.1.6c.9 0 1.3 0 1.8.6s.9 1.9 1.3 1.9.9-1.3 1.3-1.9a1.4 1.4 0 0 1 1.3-.6 1.3 1.3 0 0 1 1.3.6c.4.6.9 1.9 1.3 1.9s.9-1.3 1.3-3.1.9-4.4 1.3-5 .9.6 1.3.6.9-1.3 1.3-1.9a4.8 4.8 0 0 0 1.3-1.9c.4-1.3.9-3.8 1.3-3.1s.9 4.4 1.3 6.3.9 1.9 1.3 1.9.9 0 1.3-1.9.9-5.6 1.3-7.5.9-1.9 1.3-8.2.9-18.8 1.3-20.1.9 8.8 1.3 13.2.8 3.1 1.3 2.5.9-.6 1.3.6.9 3.8 1.3 3.1.9-4.4 1.3-5 .9 1.9 1.3 4.4l1.3 7.5a52.6 52.6 0 0 0 1.3 6.3c.4 1.3.9 1.3 1.3-.6s.9-5.6 1.3-9.4a67.5 67.5 0 0 1 1.3-8.8c.4-1.3.9 0 1.3 0s.9-1.3 1.3 0 .8 5 1.3 5.6.9-1.9 1.3-2.5.9.6 1.3-3.8.9-14.4 1.3-16.3.9 4.4 1.3 11.9.9 16.3 1.3 18.2.9-3.1 1.3-4.4.9 1.3 1.3 3.1.9 3.1 1.3 3.1.9-1.3 1.3-3.1.9-4.4 1.3-6.3a12.8 12.8 0 0 1 1.3-3.8c.4-.6.8-.6 1.3.6s.9 3.8 1.3 5.6.9 3.1 1.3 3.1.9-1.3 1.3-2.5.9-2.5 1.3-1.9.9 3.1 1.3 3.8.9-.6 1.3 0 .9 3.1 1.3 3.8.9-.6 1.3-.6.9 1.3 1.3 1.9.9.6 1.3-.6.9-3.8 1.6-1.9 1.5 8.2 2.2 6.9 1.1-10 1.5-13.8.9-2.5 1.3 0 .9 6.3 1.3 8.2.9 1.9 1.3.6.9-3.8 1.3-5 .9-1.3 1.3 0 .9 3.8 1.3 5 .9 1.3 1.3.6.9-1.9 1.3-2.5.9-.6 1.3 1.9.8 7.5 1.3 8.8.9-1.3 1.3-1.9.9.6 1.3 1.3.9.6 1.3 0a12.2 12.2 0 0 0 1.3-3.8c.4-1.9.9-4.4 1.3-6.3s.9-3.1 1.3-1.9.9 5 1.3 6.9.9 1.9 1.3 0 .9-5.6 1.3-5.6.9 3.8 1.3 5 .9 0 1.3-3.8.8-10 1.3-16.3.9-12.5 1.3-18.2.9-10.7 1.3-8.2.9 12.5 1.3 18.2a42.5 42.5 0 0 0 1.3 8.8c.4 1.9.9 4.4 1.3 3.8s.9-4.4 1.3-5.6.9 0 1.3 1.9.9 4.4 1.3 5 .9-.6 1.3-.6.9 1.3 1.3 1.3.9-1.3 1.3-2.5.8-2.5 1.3-1.9.9 3.1 1.3 3.1.9-2.5 1.3-1.9.9 4.4 1.3 8.8.9 9.4 1.3 10 .9-3.1 1.3-5.6.9-3.8 1.3-1.9.9 6.9 1.3 7.5.9-3.1 1.3-5.6.9-3.8 1.3-3.8.9 1.3 1.3 1.9.9.6 1.3 0a15.8 15.8 0 0 0 1.3-3.1c.4-1.3.9-2.5 1.3-1.3s.9 5 1.3 5 .9-3.8 1.3-6.3.9-3.8 1.3-2.5.9 5 1.3 5.6.9-1.9 1.3-3.8a52 52 0 0 0 1.3-6.3c.4-3.1.9-8.2 1.3-11.9s.9-6.3 1.3-10 .9-8.8 1.3-9.4.9 3.1 1.3 9.4.8 15.1 1.3 20.1.9 6.3 1.5 6.9a1.5 1.5 0 0 0 2.2 0 15.6 15.6 0 0 0 1.5-2.5c.4-.6.9-.6 1.3.6s.9 3.8 1.3 1.3.9-10 1.3-12.5.9 0 1.3 2.5.9 5 1.3 6.9.9 3.1 1.3 2.5.9-3.1 1.3-3.8.8.6 1.3 2.5.9 4.4 1.3 5.6a4.8 4.8 0 0 0 1.3 1.9 15.6 15.6 0 0 1 1.3 3.1l1.3 3.8c.4 1.3.9 2.5 1.3 2.5s.9-1.3 1.3-1.3.9 1.3 1.3 1.9.9.6 1.3-.6.9-3.8 1.3-3.8.9 2.5 1.3 2.5.9-2.5 1.3-4.4.8-3.1 1.3-3.1.9 1.3 1.3 2.5l1.3 3.8c.4 1.3.9 2.5 1.3 2.5s.9-1.3 1.3-1.9a1.4 1.4 0 0 1 1.3-.6h1.3a1.3 1.3 0 0 1 1.3.6c.4.6.9 1.9 1.3 1.9s.9-1.3 1.3-2.5a39.5 39.5 0 0 0 1.3-4.4c.4-1.9.9-4.4 1.3-5s.9.6 1.3 2.5.9 4.4 1.3 5.6.9 1.3 1.3 2.5.9 3.8 1.3 5 .9 1.3 1.3 0 .9-3.8 1.3-5.6.9-3.1 1.3-3.1.9 1.3 1.3 1.9a1.4 1.4 0 0 0 1.3.6h1.3c.4 0 .9 0 1.3-3.8s.9-11.3 1.3-13.8.8 0 1.3 1.3.9 1.3 1.5 2.5a34.3 34.3 0 0 1 2.2 6.3c.7 2.5 1.1 5 1.5 5s.9-2.5 1.3-3.1.9.6 1.3 0 .9-3.1 1.3-3.1.9 2.5 1.6 4.4 1.6 3.1 2.2 5 1.1 4.4 1.5 5.6.8 1.3 1.3 1.3h2.6a1.4 1.4 0 0 1 1.3.6c.4.6.9 1.9 1.5 1.9s1.6-1.3 2.2-1.9a3.5 3.5 0 0 0 1.5-1.9c.4-1.3.9-3.8 1.3-4.4s.9.6 1.3 1.3.9.6 1.3-.6.9-3.8 1.3-4.4.8.6 1.3 1.9.9 2.5 1.3 1.9.9-3.1 1.3-4.4.9-1.3 1.3-.6a15.7 15.7 0 0 1 1.3 3.1l1.3 3.8a15.9 15.9 0 0 0 1.3 3.1 1.3 1.3 0 0 0 1.3.6c.4 0 .9 0 1.3-1.9s.9-5.6 1.3-6.9.9 0 1.3 1.3.9 2.5 1.3 1.9.9-3.1 1.3-4.4.9-1.3 1.3-1.3h1.3a1.4 1.4 0 0 0 1.3-.6c.4-.6.9-1.9 1.3-1.9s.9 1.3 1.3 1.3.9-1.3 1.3.6.9 6.9 1.3 7.5.9-3.1 1.3-5.6.9-3.8 1.3-3.1.9 3.1 1.3 3.8.9-.6 1.3-2.5a30.7 30.7 0 0 1 1.5-5.6 2.1 2.1 0 0 1 2.2-1.3h2.9a1.4 1.4 0 0 1 1.3.6c.4.6.9 1.9 1.3 2.5a1.2 1.2 0 0 0 1.1.6h.2l4-7.5.2-.6c.2-.6.7-1.9 1.1.6s.8 8.8 1.3 9.4.9-4.4 1.3-6.9.9-2.5 1.3-3.8a41.5 41.5 0 0 0 1.3-8.2c.4-4.4.9-10.7 1.3-11.3s.9 4.4 1.6 7.5 1.6 4.4 2.2 6.3 1.1 4.4 1.6 5.6a4.8 4.8 0 0 0 1.3 1.9c.4.6.9 1.9 1.8 1.9s2.2-1.3 3.1-4.4 1.3-8.2 1.7-6.9.9 8.8 1.3 15.1.9 11.3 1.3 14.4.9 4.4 1.3 3.8.9-3.1 1.3-3.8.9.6 1.5.6 1.5-1.3 2.2-.6 1.1 3.1 1.6 4.4.9 1.3 1.3.6a15.8 15.8 0 0 0 1.3-3.1l1.3-3.8c.4-1.3.9-2.5 1.3-2.5s.9 1.3 1.3.6.9-3.1 1.3-3.8.9.6 1.3 3.1.9 6.3 1.3 8.8a27.3 27.3 0 0 0 1.3 5l1.1 3.1.2.6h2.7l.2-.6a7.2 7.2 0 0 1 1.3-2.5 1.5 1.5 0 0 1 2.2 0c.6.6 1.1 1.9 1.5 1.3s.9-3.1 1.3-3.8.9.6 1.3.6.9-1.3 1.1-1.9l.2-.6h10.6l2.7-18.8.2 3.1c.2 3.1.7 9.4 1.1 12.5s.9 3.1 1.3.6.9-7.5 1.3-8.8.9 1.3 1.3 3.1a32.6 32.6 0 0 0 1.1 3.8l.2.6 2.9 3.1c.2-.6.7-1.9 1.1-1.3s.8 3.1 1.3 4.4.9 1.3 1.3 0 .9-3.8 1.3-3.8.9 2.5 1.3 2.5.9-2.5 1.3-3.8.9-1.3 1.3-1.3h1.3c.4 0 .9 0 1.3 1.3s.9 3.8 1.3 4.4.9-.6 1.3-1.3a4.9 4.9 0 0 0 1.3-1.9c.4-1.3.9-3.8 1.3-3.8s.9 2.5 1.3 2.5.9-2.5 1.3-1.9.9 4.4 1.1 6.3l.2 1.9 10.7-7.5.2-.6a30.6 30.6 0 0 0 1.1-3.8c.4-1.9.8-4.4 1-5.6l.2-1.3" fill="none" stroke="#606060" stroke-width="1.29"/></g><g clip-path="url(#a)"><path d="m31.3 229.5.2.6c.2.6.7 1.9 9 5s24.7 8.2 34.9 6.3 14.1-10.7 17.4-16.9 6-10 7.7-11.3 2.6 0 5.3-.6 7.1-3.1 9.7-5 3.5-3.1 10.4-3.1 19.6 1.3 26.3 0 7.1-5 7.5-5 .9 3.8 2 1.9 2.8-9.4 3.9-10.7 1.5 3.8 2.2 5 1.6-1.3 2.2.6 1.1 8.2 1.5 11.3.9 3.1 1.3 3.8a11.9 11.9 0 0 1 1.3 3.8c.4 1.9.9 4.4 1.8 5.6s2.2 1.3 3.1 3.8 1.3 7.5 1.8 8.2.9-3.1 1.3-4.4.9 0 1.6 1.3a28.7 28.7 0 0 1 2.4 5c.9 2.5 1.8 6.3 2.4 7.5s1.1 0 1.6-2.5.9-6.3 1.3-7.5.9 0 1.3.6.9.6 1.3 0a15.9 15.9 0 0 0 1.3-3.1c.4-1.3.9-2.5 1.3-1.3a76.6 76.6 0 0 1 1.3 8.2c.4 3.1.9 5.6 1.3 5.6s.9-2.5 1.3-.6.9 8.2 1.3 10.7.9 1.3 1.3-.6.9-4.4 1.3-3.8.9 4.4 1.3 6.9.9 3.8 1.3 0 .9-12.5 1.3-13.8.9 5 1.3 3.1.9-11.9 1.3-13.8.9 4.4 1.3 5.6.8-2.5 1.3.6.9 13.2 1.3 16.3.9-.6 1.3-2.5a4.3 4.3 0 0 1 1.3-2.5c.4-.6.9-1.9 1.3 3.1s.9 16.3 1.3 22 .9 5.6 1.3 6.3a11.9 11.9 0 0 1 1.3 4.4c.4 2.5.9 6.3 1.3 10.7s.9 9.4 1.3 10.7.9-1.3 1.3-.6.9 4.4 1.3 6.3.8 1.9 1.3 1.9h4.8c.9 0 1.3 0 1.8-1.9s.9-5.6 1.3-6.3.9 1.9 1.3 3.8.9 3.1 1.3 2.5.9-3.1 1.3-3.8.9.6 1.3 1.3.9.6 1.3 0 .9-1.9 1.3-1.9.9 1.3 1.3 1.3.9-1.3 1.3-.6.9 3.1 1.3 4.4.9 1.3 1.3 1.3h1.3a1.4 1.4 0 0 1 1.3.6c.4.6.9 1.9 1.3 1.9s.9-1.3 1.3-1.9a1.3 1.3 0 0 1 1.3-.6 1.4 1.4 0 0 0 1.3-.6c.4-.6.9-1.9 1.3-1.3s.8 3.1 1.3 1.9.9-6.3 1.3-7.5.9 1.3 1.3 2.5a4.8 4.8 0 0 0 1.3 1.9c.4.6.9 1.9 1.3 1.9s.9-1.3 1.3-1.9.9-.6 1.3-1.3.9-1.9 1.3-2.5.9-.6 1.3 0 .9 1.9 1.3 1.9.9-1.3 1.3-1.9.9-.6 1.3 0a16 16 0 0 1 1.3 3.1 14.9 14.9 0 0 0 1.3 3.1c.4.6.9.6 1.3 0a15.6 15.6 0 0 0 1.3-3.1c.4-1.3.9-2.5 1.3-2.5s.9 1.3 1.3 1.9.9.6 1.3 1.3.9 1.9 1.3 1.9.9-1.3 1.3-1.9.9-.6 1.3-1.3.9-1.9 1.3-2.5a1.4 1.4 0 0 1 1.3-.6 1.3 1.3 0 0 1 1.3.6c.4.6.9 1.9 1.3 1.9s.9-1.3 1.3-1.3.9 1.3 1.3.6.9-3.1 1.3-5a11.9 11.9 0 0 1 1.3-3.8c.4-.6.9-.6 1.3 1.3s.9 5.6 1.3 6.9.9 0 1.3-1.9.9-4.4 1.3-4.4.9 2.5 1.3 3.1.9-.6 1.6.6 1.5 5 2.2 5 1.1-3.8 1.5-5.6a4.3 4.3 0 0 1 1.3-2.5c.4-.6.9-1.9 1.3-1.3s.9 3.1 1.3 3.1.9-2.5 1.3-3.8.9-1.3 1.3 1.3.9 7.5 1.3 8.8.9-1.3 1.3-2.5.9-1.3 1.3-2.5.9-3.8 1.3-4.4.8.6 1.3-1.9.9-8.8 1.3-10.7.9.6 1.3 2.5.9 3.1 1.3 2.5.9-3.1 1.3-3.1.9 2.5 1.3 4.4.9 3.1 1.3 2.5.9-3.1 1.3-3.1.9 2.5 1.3 2.5.9-2.5 1.3-3.8.9-1.3 1.3 1.9.9 9.4 1.3 10.7.8-2.5 1.3-4.4.9-1.9 1.3-1.9.9 0 1.3-3.8.9-11.3 1.3-15.7.9-5.6 1.3-6.3.9-.6 1.3-4.4.9-11.3 1.3-13.8.9 0 1.3 3.1a72.9 72.9 0 0 0 1.3 8.2c.4 1.3.9 0 1.3-1.3s.9-2.5 1.3-1.9.9 3.1 1.3 2.5.8-4.4 1.3-3.8.9 5.6 1.3 5 .9-6.9 1.3-11.3.9-6.9 1.3-6.3.9 4.4 1.3 7.5.9 5.6 1.3 4.4.9-6.3 1.3-11.3.9-10 1.3-11.3.9 1.3 1.3 1.9.9-.6 1.3-1.3.9-.6 1.3-3.1.9-7.5 1.3-13.2.9-11.9 1.3-20.1.9-18.2 1.3-23.8.9-6.9 1.3-2.5.9 14.4 1.3 24.5.9 20.1 1.3 22 .9-4.4 1.3-5.6.9 2.5 1.3 3.8.9 0 1.3-2.5.9-6.3 1.3-6.3.9 3.8 1.3 5 .9 0 1.3 0 .9 1.3 1.3 0 .8-5 1.3-5.6.9 1.9 1.5 1.3 1.6-4.4 2.2-6.3 1.1-1.9 1.5-1.3.9 1.9 1.3-.6.9-8.8 1.3-5 .9 17.6 1.3 17.6.9-13.8 1.3-20.1.9-5 1.3-3.1.9 4.4 1.3 6.3.9 3.1 1.3 0 .8-10.7 1.3-11.9.9 3.8 1.3 2.5.9-8.8 1.3-13.2.9-5.6 1.3-5.6.9 1.3 1.3 1.3.9-1.3 1.3-.6.9 3.1 1.3 1.9.9-6.3 1.3-7.5.9 1.3 1.3 0 .9-6.3 1.3-9.4a49.9 49.9 0 0 1 1.3-6.3c.4-1.9.9-4.4 1.3-6.3s.8-3.1 1.3-3.1.9 1.3 1.3 3.8.9 6.3 1.3 5.6.9-5.6 1.3-7.5.9-.6 1.3 2.5.9 8.2 1.3 6.9.9-8.8 1.3-11.3.9 0 1.3 1.3.9 1.3 1.3.6.9-1.9 1.3-2.5a4.3 4.3 0 0 0 1.3-2.5c.4-1.9.9-5.6 1.3-9.4s.9-7.5 1.3-11.9.9-9.4 1.3-10 .9 3.1 1.3 3.1.9-3.8 1.3-7.5.9-7.5 1.3-10 .9-3.8 1.3-.6.9 10.7 1.3 14.4.9 3.8 1.3 4.4.9 1.9 1.3 1.3.9-3.1 1.3-4.4a11.9 11.9 0 0 0 1.3-4.4c.4-3.1.9-9.4 1.3-9.4s.8 6.3 1.3 9.4.9 3.1 1.5 3.1a2.1 2.1 0 0 0 2.2-1.3c.7-1.3 1.1-3.8 1.5-6.9s.9-6.9 1.3-10.7a67.7 67.7 0 0 1 1.3-8.8c.4-1.3.9 0 1.3-2.5s.9-8.8 1.6-15.1 1.6-12.5 2.2-17.6 1.1-8.8 1.5-9.4.8 1.9 1.3 7.5.9 14.4 1.3 19.4.9 6.3 1.3 5 .9-5 1.3 1.3.9 22.6 1.5 28.9 1.6 2.5 2.2 2.5 1.1 3.8 1.5 8.2.9 9.4 1.3 11.9.9 2.5 1.3 5 .9 7.5 1.3 8.2.9-3.1 1.3-3.8.8 1.9 1.3 11.3.9 25.7 1.3 29.5.9-5 1.3-13.2.9-15.7 1.3-19.4.9-3.8 1.3-3.8a1.4 1.4 0 0 1 1.3.6 15.1 15.1 0 0 1 1.3 3.1c.4 1.3.9 2.5 1.3 7.5s.9 13.8 1.3 16.3.9-1.3 1.3 3.1.9 16.9 1.3 23.8a65.9 65.9 0 0 0 1.3 10.7c.4 2.5.9 6.3 1.3 15.7s.9 24.5 1.3 32 .9 7.5 1.3 5 .9-7.5 1.3-8.8.9 1.3 1.3 1.3.9-2.5 1.3 0 .9 10 1.3 14.4.9 5.6 1.3 1.9.9-12.5 1.3-13.2.9 6.9 1.3 11.9.9 7.5 1.3 7.5.9-2.5 1.3-7.5.8-12.5 1.5-15.1 1.5 0 2.2 1.3a8.5 8.5 0 0 0 1.6 1.9c.4.6.9 1.9 1.3 1.3s.9-3.1 1.3-5.6.9-5 1.3-4.4.9 4.4 1.3 2.5.9-9.4 1.6-13.8a16.7 16.7 0 0 1 2.2-6.9 25 25 0 0 0 1.5-3.8 39.7 39.7 0 0 0 1.3-4.4c.4-1.9.9-4.4 1.3-7.5s.9-6.9 1.3-10.7.9-7.5 1.3-6.3.9 7.5 1.3 6.9.9-8.2 1.6-13.2 1.6-7.5 2.2-11.3 1.1-8.8 1.6-11.3.9-2.5 1.3-3.1.9-1.9 1.8-5 2.2-8.2 3.1-10.7 1.3-2.5 1.7-4.4.9-5.6 1.3-3.1.9 11.3 1.3 18.2.9 11.9 1.3 6.9.9-20.1 1.3-28.2.9-9.4 1.5-11.3a58.4 58.4 0 0 0 2.2-7.5c.7-3.1 1.1-6.9 1.6-10s.9-5.6 1.3-8.8.9-6.9 1.3-13.2.9-15.1 1.3-20.1.9-6.3 1.3-7.5.9-2.5 1.3-1.9.9 3.1 1.3 2.5.9-4.4 1.3-3.1.9 7.5 1.3 8.2.9-4.4 1.3-7.5a51.4 51.4 0 0 1 1.3-6.3c.4-1.9.9-4.4 1.3-4.4s.9 2.5 1.3.6.9-8.2 1.6-11.9 1.5-5 2.2-2.5 1.1 8.8 1.5 7.5.9-10 1.3-11.9.9 3.1 1.3 4.4.9-1.3 1.6-1.3 1.6 2.5 2.2 3.8 1.1 1.3 2-.6 2.2-5.6 3.1-6.3 1.3 1.9 1.7 3.1.9 1.3 1.3 3.1.9 5.6 1.3 8.8.9 5.6 1.3 2.5.9-11.9 1.3-16.3 7.2-4.6 7.7-4.6.9 0 1.3 3.8.9 11.3 1.3 13.2.9-1.9 1.3-1.9.9 3.8 1.3 9.4.9 13.2 1.3 15.7.9 0 1.3 1.9.8 8.2 1.3 10.7.9 1.3 1.3-.6.9-4.4 1.3-7.5.9-6.9 1.3-11.9.9-11.3 1.3-13.8.9-1.3 1.3 0l1.3 3.8c.4 1.3.9 2.5 1.3 1.9s.9-3.1 1.3-5.6.9-5 1.3-4.4.9 4.4 1.3 1.9.9-11.3 1.3-13.8.9 1.3 1.3 3.1.9 1.9 1.3-.6.9-7.5 1.3-8.8.9 1.3 1.3 1.3.9-2.5 1.3 18.8.9 66.5 1.3 95.3.9 41.4 1.3 40.1.9-16.3 1.3-10 .9 33.9 1.3 32.6.9-31.4 1.3-43.3.9-5.6 1.3 23.8.9 82.2 1.3 107.9.8 24.5 1 23.8l.2-.6" fill="none" stroke="#dbdbdb" stroke-width=".86"/></g></svg>