<svg height="378.3" viewBox="0 0 623.1 378.3" width="623.1" xmlns="http://www.w3.org/2000/svg"><path d="m540.9 126.7h-23.3l-23.6 1.5-23.2 1.7-23.7 2.8-23.2-4-23.6.3-23.3-8-23.6 23.4-23.3 16.1-23.6-3.4-23.6 12.9-23.3-11.2 23.3 36.8 23.6-1.7 23.6 13.1 23.3-9.1 23.6-20.7 23.3 9.2 23.6.8 23.2 5.2 23.7-.3 23.2-1.5 23.6-.7 23.3.5 23.6-1v-63.9z" fill="#7a7a7a"/><path d="m540.9 126.7h-23.3l-23.6 1.5-23.2 1.7-23.7 2.8-23.2-4-23.6.3-23.3-8-23.6 23.4-23.3 16.1-23.6-3.4-23.6 12.9-23.3-11.2 23.3 36.8 23.6-1.7 23.6 13.1 23.3-9.1 23.6-20.7 23.3 9.2 23.6.8 23.2 5.2 23.7-.3 23.2-1.5 23.6-.7 23.3.5 23.6-1v-63.9z" fill="none" stroke="#7a7a7a" stroke-width=".04"/><path d="m322 224.4 23.6 18.6 23.3-5 23.6-18.9 23.3 9.9 23.6 1.5 23.3 6 23.6 1 23.3-1.2 23.6-.5 23.3 1 23.6-1v-37.8l-23.6 1-23.3-.5-23.6.7-23.3 1.5-23.6.2-23.3-5.2-23.6-.8-23.3-9.2-23.6 20.7-23.3 9.2-23.6-13.1-23.6 1.7-23.3-36.8 23.3 52zm0-58.7 23.6 3.5 23.3-16.2 23.6-23.4 23.3 8 23.6-.2 23.3 4 23.6-2.7 23.3-1.7 23.6-1.5h23.3l23.6-1.2v-38l-23.6 1.2-23.3.5-23.6 1.7-23.3 2-23.6 4-23.3-3.2-23.6 1-23.3-7.3-23.6 25-23.3 20.4-23.6 2.2-23.6 19.7-23.3 4 23.3 11.2z" fill="#a4a4a4" transform="translate(-15.5 -8.6)"/><path d="m322 224.4 23.6 18.6 23.3-5 23.6-18.9 23.3 9.9 23.6 1.5 23.3 6 23.6 1 23.3-1.2 23.6-.5 23.3 1 23.6-1v-37.8l-23.6 1-23.3-.5-23.6.7-23.3 1.5-23.6.2-23.3-5.2-23.6-.8-23.3-9.2-23.6 20.7-23.3 9.2-23.6-13.1-23.6 1.7-23.3-36.8 23.3 52zm0-58.7 23.6 3.5 23.3-16.2 23.6-23.4 23.3 8 23.6-.2 23.3 4 23.6-2.7 23.3-1.7 23.6-1.5h23.3l23.6-1.2v-38l-23.6 1.2-23.3.5-23.6 1.7-23.3 2-23.6 4-23.3-3.2-23.6 1-23.3-7.3-23.6 25-23.3 20.4-23.6 2.2-23.6 19.7-23.3 4 23.3 11.2z" fill="none" stroke="#a4a4a4" stroke-width=".04" transform="translate(-15.5 -8.6)"/><path d="m322 262.9 23.6 28.6 23.3 2.2 23.6-15.9 23.3 10.9 23.6 3 23.3 7 23.6 3.7 23.3-1h23.6l23.3 1.8 23.6-1v-66.4l-23.6 1-23.3-1-23.6.5-23.3 1.2-23.6-1-23.3-6-23.6-1.5-23.3-9.9-23.6 18.9-23.3 5-23.6-18.7-23.6-5-23.3-52 23.3 78.7zm258-233.1-23.6 1.3-23.3 1.3-23.6 2.2-23.3 2.5-23.6 6.5-23.3-2.2-23.6 2.2-23.3-6-23.6 27.8-23.3 27.6-23.6 12.2-23.6 31.3-23.3 30.9 23.3-4 23.6-19.7 23.6-2.2 23.3-20.4 23.6-24.9 23.3 7.2 23.6-1 23.3 3.2 23.6-4 23.3-2 23.6-1.6 23.3-.5 23.6-1.2v-16.1l-23.6 1.4 23.6-1.5z" fill="#cecece" transform="translate(-15.5 -8.6)"/><g fill="none"><path d="m322 262.9 23.6 28.6 23.3 2.2 23.6-15.9 23.3 10.9 23.6 3 23.3 7 23.6 3.7 23.3-1h23.6l23.3 1.8 23.6-1v-66.4l-23.6 1-23.3-1-23.6.5-23.3 1.2-23.6-1-23.3-6-23.6-1.5-23.3-9.9-23.6 18.9-23.3 5-23.6-18.7-23.6-5-23.3-52 23.3 78.7zm258-233.1-23.6 1.3-23.3 1.3-23.6 2.2-23.3 2.5-23.6 6.5-23.3-2.2-23.6 2.2-23.3-6-23.6 27.8-23.3 27.6-23.6 12.2-23.6 31.3-23.3 30.9 23.3-4 23.6-19.7 23.6-2.2 23.3-20.4 23.6-24.9 23.3 7.2 23.6-1 23.3 3.2 23.6-4 23.3-2 23.6-1.6 23.3-.5 23.6-1.2v-16.1l-23.6 1.4 23.6-1.5z" stroke="#cecece" stroke-width=".04" transform="translate(-15.5 -8.6)"/><path d="m580.3 0h21.8"/><path d="m576.3 64.3h21.8" stroke="#aeaeae" stroke-linejoin="round" stroke-width="1.92"/><path d="m576.3 118.7h21.8" stroke="#aeaeae" stroke-linejoin="round" stroke-width="1.92"/><path d="m576.3 173.2h21.8" stroke="#aeaeae" stroke-linejoin="round" stroke-width="1.92"/><path d="m576.3 227.9h21.8" stroke="#aeaeae" stroke-linejoin="round" stroke-width="1.92"/><path d="m576.3 282.4h21.8" stroke="#aeaeae" stroke-linejoin="round" stroke-width="1.92"/><path d="m564.5 317.9v21.8" stroke="#aeaeae" stroke-linejoin="round" stroke-width="1.92"/><path d="m470.8 317.9v21.8" stroke="#aeaeae" stroke-linejoin="round" stroke-width="1.92"/><path d="m377 317.9v21.8" stroke="#aeaeae" stroke-linejoin="round" stroke-width="1.92"/><path d="m282.9 317.9v21.8" stroke="#aeaeae" stroke-linejoin="round" stroke-width="1.92"/><path d="m189.1 317.9v21.8" stroke="#aeaeae" stroke-linejoin="round" stroke-width="1.92"/><path d="m95.4 317.9v21.8" stroke="#aeaeae" stroke-linejoin="round" stroke-width="1.92"/><path d="m1.6 317.9v21.8" stroke="#aeaeae" stroke-linejoin="round" stroke-width="1.92"/><path d="m540.9 328.8v10.9" stroke="#aeaeae" stroke-linejoin="round" stroke-width="1.92"/><path d="m517.6 328.8v10.9" stroke="#aeaeae" stroke-linejoin="round" stroke-width="1.92"/><path d="m494 328.8v10.9" stroke="#aeaeae" stroke-linejoin="round" stroke-width="1.92"/><path d="m447.1 328.8v10.9" stroke="#aeaeae" stroke-linejoin="round" stroke-width="1.92"/><path d="m423.9 328.8v10.9" stroke="#aeaeae" stroke-linejoin="round" stroke-width="1.92"/><path d="m400.3 328.8v10.9" stroke="#aeaeae" stroke-linejoin="round" stroke-width="1.92"/><path d="m353.4 328.8v10.9" stroke="#aeaeae" stroke-linejoin="round" stroke-width="1.92"/><path d="m330.1 328.8v10.9" stroke="#aeaeae" stroke-linejoin="round" stroke-width="1.92"/><path d="m306.5 328.8v10.9" stroke="#aeaeae" stroke-linejoin="round" stroke-width="1.92"/><path d="m259.6 328.8v10.9" stroke="#aeaeae" stroke-linejoin="round" stroke-width="1.92"/><path d="m236 328.8v10.9" stroke="#aeaeae" stroke-linejoin="round" stroke-width="1.92"/><path d="m212.7 328.8v10.9" stroke="#aeaeae" stroke-linejoin="round" stroke-width="1.92"/><path d="m165.8 328.8v10.9" stroke="#aeaeae" stroke-linejoin="round" stroke-width="1.92"/><path d="m142.2 328.8v10.9" stroke="#aeaeae" stroke-linejoin="round" stroke-width="1.92"/><path d="m118.9 328.8v10.9" stroke="#aeaeae" stroke-linejoin="round" stroke-width="1.92"/><path d="m72.1 328.8v10.9" stroke="#aeaeae" stroke-linejoin="round" stroke-width="1.92"/><path d="m48.5 328.8v10.9" stroke="#aeaeae" stroke-linejoin="round" stroke-width="1.92"/><path d="m25.2 328.8v10.9" stroke="#aeaeae" stroke-linejoin="round" stroke-width="1.92"/><path d="m2 173.2h562.5" stroke="#aeaeae" stroke-linejoin="round" stroke-width="1.92"/><path d="m259.6 158.8 23.3 23.9 23.6-7.2 23.6 8.2 23.3-12.7 23.6-21.9 23.3 8.5 23.6.5 23.2 4.4 23.7-1.5 23.2-1.5 23.6-1.2 23.3.2 23.6-.9"/><path d="m1.6 192.3 23.6 30.7 23.3 19.9 23.6-26.4 23.3-51 23.5-32.8 23.3-4 23.6-11.1 23.3 16.6 23.6 16.4 23.3-5.5 23.6 13.7" stroke="#7a7a7a" stroke-miterlimit="10" stroke-width="4"/><path d="m1.6 7h595.6v331.83h-595.6z" stroke="#aeaeae" stroke-width="1.53"/></g><text fill="#6b6b6b" font-family="Roboto Mono" font-size="23.37" transform="translate(34.5 372)">16</text><text fill="#6b6b6b" font-family="Roboto Mono" font-size="23.37" transform="translate(128.9 372)">17</text><text fill="#6b6b6b" font-family="Roboto Mono" font-size="23.37" transform="translate(222 372)">18</text><text fill="#6b6b6b" font-family="Roboto Mono" font-size="23.37" transform="translate(316.9 372)">19</text><text fill="#6b6b6b" font-family="Roboto Mono" font-size="23.37" transform="translate(409.8 372)">20</text><text fill="#6b6b6b" font-family="Roboto Mono" font-size="23.37" transform="translate(503.6 372)">21</text><text fill="#6b6b6b" font-family="Roboto Mono" font-size="23.37" transform="translate(609.1 288.1)">1</text><text fill="#6b6b6b" font-family="Roboto Mono" font-size="23.37" transform="translate(609.1 234.4)">2</text><text fill="#6b6b6b" font-family="Roboto Mono" font-size="23.37" transform="translate(609.1 180.2)">3</text><text fill="#6b6b6b" font-family="Roboto Mono" font-size="23.37" transform="translate(609.1 125)">4</text><text fill="#6b6b6b" font-family="Roboto Mono" font-size="23.37" transform="translate(609.1 70.8)">5</text></svg>