<svg enable-background="new 0 0 650 279.3" height="279.3" viewBox="0 0 650 279.3" width="650" xmlns="http://www.w3.org/2000/svg"><g transform="translate(0 540)"><path d="m55.8-292.7v-9.3h581.5v9.3" fill="none" stroke="#505050" stroke-width="1.5913"/><g transform="translate(.5)"><path d="m55.3-302.9v10.2" fill="none" stroke="#505050" stroke-width="1.6982"/><text fill="#8b8b8b" font-family="'RobotoMono-Regular'" font-size="13.8452" transform="translate(33.646 -275.5807)">03 AM</text></g><g transform="translate(49.419861)"><path d="m89.4-302.9v10.2" fill="none" stroke="#505050" stroke-width="1.6982"/><text fill="#8b8b8b" font-family="'RobotoMono-Regular'" font-size="13.8452" transform="translate(67.7999 -275.5807)">06 AM</text></g><g transform="translate(98.339721)"><path d="m123.6-302.9v10.2" fill="none" stroke="#505050" stroke-width="1.6982"/><text fill="#8b8b8b" font-family="'RobotoMono-Regular'" font-size="13.8452" transform="translate(101.9542 -275.5807)">09 AM</text></g><g transform="translate(147.259582)"><path d="m157.7-302.9v10.2" fill="none" stroke="#505050" stroke-width="1.6982"/><text fill="#8b8b8b" font-family="'RobotoMono-Regular'" font-size="13.8452" transform="translate(135.6447 -275.5807)">12 PM</text></g><g transform="translate(196.179443)"><path d="m191.9-302.9v10.2" fill="none" stroke="#505050" stroke-width="1.6982"/><text fill="#8b8b8b" font-family="'RobotoMono-Regular'" font-size="13.8452" transform="translate(169.7981 -275.5807)">03 PM</text></g><g transform="translate(245.099303)"><path d="m226-302.9v10.2" fill="none" stroke="#505050" stroke-width="1.6982"/><text fill="#8b8b8b" font-family="'RobotoMono-Regular'" font-size="13.8452" transform="translate(203.9505 -275.5807)">06 PM</text></g><g transform="translate(294.019164)"><path d="m260.2-302.9v10.2" fill="none" stroke="#505050" stroke-width="1.6982"/><text fill="#8b8b8b" font-family="'RobotoMono-Regular'" font-size="13.8452" transform="translate(238.1049 -275.5807)">09 PM</text></g><g transform="translate(342.939024)"><path d="m294.3-302.9v10.2" fill="none" stroke="#505050" stroke-width="1.6982"/><text fill="#8b8b8b" font-family="'RobotoMono-Regular'" font-size="13.8452" transform="translate(262.7241 -275.5807)">12 AM</text></g></g><g transform="translate(0 39.465241)"><path d="m636.4-.2c-75.8 0-151.5 0-227.3 0-75.4 0-150.8 0-226.1 0-42.7 0-85.4 0-128.1 0h57.7c10 0 19.9.7 29.4-1.6 9.2-2.2 19.3-1.1 28.8-1.8 5.5-.4 9.2-2.5 14.4-3.8 4.7-1.2 9.7-1 14.4-2.3 4.9-1.3 9.4-2.4 14.4-3.2 5.6-.9 9.3-4.3 14.4-6.3 8.2-3.2 20.4-3.6 29.4-3.5 5.2 0 9.7 3 14.4 2.4 2.3-.3 4.5-2.3 6.9-2.8 2.5-.5 5 .5 7.5-.3 4.7-1.5 8.9-7.3 14.4-7.6 4.7-.3 9.3 3.6 14.4 3.9 6.1.4 8.9-3.3 14.4-4.2 4.5-.8 9.8 0 14.4 0h58.3 116c19.1 0 38.7-1.3 57.7.3 3.1.3 3.7-.8 6.3 1.3 2.3 1.9 2.4 5.1 5.2 6.8 3.1 1.9 3.4-.4 6.3 2.8 1.7 1.9 2.1 4.8 3.7 6.7 3.6 4.5 7.3 3.4 13.1 3.4 6.5 0 8.8-.6 12.7 4.8 4.2 5.6 6.4 5 12.9 5" fill="#e8e8e8"/><path d="m636.4-.2c-75.8 0-151.5 0-227.3 0-75.4 0-150.8 0-226.1 0-42.7 0-85.4 0-128.1 0h117.7 118.3 29.4c2 0 5 .5 6.9 0 3-.8 4.9-4 8.1-4.1 4.3-.2 9.9 3 14.4 3 9.8 0 17.6-13.6 26-18.1 1-.5 1.8.4 2.9-.3 1.2-.8 1.7-2.7 2.9-3.5 3.8-2.6 1.9-2.8 5.8-.4 2.6 1.6 2.4 4.2 5.8 3.9s3.9-3.2 5.6-5.5c4.4-6.1 6.1-6 13.4-6h15 29.4 58.8 29.4c1.8 0 5.3-.7 6.9 0 3 1.2 3.2 4.1 4.8 7.3 2.7 5.6 6.5 7.6 10.2 11.8 4.7 5.3 3.6 10.3 11 11.5 4.4.7 9.7.4 14.4.4h29.4c5 0 10 0 15 0" fill="#bfbfbf"/><path d="m636.4-.2c-75.8 0-151.5 0-227.3 0-75.4 0-150.8 0-226.1 0-42.7 0-85.4 0-128.1 0h169.6 169c5.4 0 7.6.1 11.5-3.8 3.2-3.3 4.9-7.9 8.7-10.4 4.2-2.9 5.4-1.3 10.4.7 2.2.9 1.9-.6 4.6 1.4 2 1.4 2.6 4.8 4.3 6 2 1.4 3.5.6 5.5 1.4 1.3.5 4.5 3.1 5.7 3.4 5.4 1.3 5.1-2.1 7.3-7.2.6-1.4 1.4-4.6 2.5-5.2 3-1.6 3.5 2.1 5.8 1.5 3.8-1 6.4-8.3 8.1-12.5 1.9 3.7 4.4 6.9 6.9 10.1 1.1-3.5 1.9-7.3 3.5-10.7 2.2-5 1.7-4.9 6.1-3.9 1.8.4 1.3 2.9 3.7 2.7 1.7-.1 1.2-3.2 2.5-3.7 2.3-.9 5.5-.7 8.4-.7h18.5c2.4 0 5.8-.7 8.1 0 4 1.1 4.5 3.6 6.7 7.4 3.2 5.4 7.5 8.9 12.9 12.8 3.4 2.4 4 3.3 6.5 6.9 2.9 4.1 2.5 4 7.9 4 11.9.2 23.8 0 35.8 0 13.7-.2 27.4-.2 41-.2" fill="#979797"/><path d="m636.4-.2c-75.8 0-151.5 0-227.3 0-75.4 0-150.8 0-226.1 0-42.7 0-85.4 0-128.1 0h184.6s123.1 0 184.6 0h51.9c1.8-.2 4.4-1.5 5.8-1.5 2.1 0 4.2 2.7 6.9 1.5 3.7-1.6 5.6-9.3 7.5-12.7 2.2-4.1 3.9-10.3 6.9-13.7 4.5-5 8.1-1 13.2-3.5 3 6.4 6.1 12.6 9.2 19 1.1 2.2 2.4 6.9 3.8 8.6 2.3 2.7 2.5 2.4 6.6 2.4h33.5c22.4-.1 44.7-.1 67-.1" fill="#6f6f6f"/></g><g transform="translate(0 58.716578)"><path d="m636.4 13.2c-75.8 0-151.5 0-227.3 0s-151.5 0-227.3 0c-21.2 0-42.3 0-63.5 0-10.8 0-21.5 0-32.3 0-7.3 0-26 2.9-31.2-.8 10.4 2.3 22.3.8 32.9.8 10.9 0 22 .6 32.9 0 21.7-1.1 43.4-.9 65.2-.9 5.3 0 10.9 1.1 16.2.6 6.9-.6 10.2-5.4 15-9.9 4.6-4.2 10-6.6 15.6-9.8 2.7-1.6 5.4-2.8 8.1-4.2s5.4-4.4 8.1-5.5c4.4-1.8 11.9-1.3 16.7-1.4 5.4-.2 10.8 0 16.2 0h32.9 32.3c10.2 0 22.9-2 32.9 0 6.3 1.3 10.1 7.3 16.2 9.1 5.8 1.7 11.1 1.5 16.7 4 12.6 5.7 19.9-5.5 31.2-9.5 2.2-.8 5.6-.6 8.1-1 3.3-.5 5.5-1.7 8.7-2.4 5-1 11-.3 16.2-.3h32.9 65.2 16.2c4.6 0 12.4-1.6 16.7 0 2.7 1 3.1 3.8 5.5 5.4 2.1 1.5 5.7 1.2 7.8 2.5 5.3 3.4 8.7 8.2 14.4 10.8" fill="#e8e8e8"/><path d="m636.4 13.2c-75.8 0-151.5 0-227.3 0-75.4 0-150.8 0-226.1 0-42.7 0-85.4 0-128.1 0h118.8 59.4c10 0 20.9 1.2 30-1.9 5.7-1.9 8.6-1 14.4-.9 5.5.1 9.3-3.2 15-3.3 4.7-.1 10.6 3 15 1.2 2.5-1 3.1-4 5.2-5.8 3.6-3.2 2.1-1.7 6.4-1.2 1.1.1 2.2 1.6 3.5 1.7 1.1.1 2.3-1.4 3.5-1.5 4.4-.2 3.2-.6 7.5 1.7 3.7 2 2.7 1 6.3 1.6 2.9.5 4.6 1.4 7.5 2.1 5.4 1.3 9.4-2 15-1.8 4.7.2 10.5 3.1 15 5 9.4 4 18.9 3.1 29.4 3.1h30c9.6 0 26.4-.6 28.3-5.7 2.1-5.9 4.8-11.8 6.1-17.9 1.8-8.2 3.1-7.4 11.2-7.4h29.4 30c8.9 0 20.8-.2 29.4 0 6.2.1 9.1 6.3 11.9 11.3 3.2 5.6 6.2 7 11.1 10.9 9.1 7.1 15.4 8.9 27.1 8.9 5.1-.1 10.1-.1 15.1-.1" fill="#bfbfbf"/><path d="m636.4 13.2c-75.8 0-151.5 0-227.3 0-75.4 0-150.8 0-226.1 0-42.7 0-85.4 0-128.1 0h119.4s79.6 0 119.4 0h120 30c5.6 0 28.9-.3 28.9-.3 2.5-2.1 3.5-16.3 4.5-19.8 2-7 2.7-10.7 9.9-11 10-.4 20 0 30 0h30c5.2 0 10.7-.8 15 2.6 4.8 3.7 5.5 11.2 7.1 16.9 1.6 5.5 1.7 10.2 7.3 11.6 4.3 1.1 10.5 0 15 0h30z" fill="#979797"/><path d="m636.4 13.2c-75.8 0-151.5 0-227.3 0-75.4 0-150.8 0-226.1 0-42.7 0-85.4 0-128.1 0h117.1 117.7 117.1 58.8c4 0 14.4-.4 14.4-.4 4.4-2.1 7-9.4 9-13.5 2.4-4.8 5.5-12.5 11.2-14.2 1.4-.4 5.2.1 6.9-.1 2.4-.3 4.8-1.7 7.2-.9 4.5 1.5 8.1 6.8 13 7.5 5.2.8 8.9-2.9 14.4 0 4.8 2.6 9.4 6.5 11.5 11.4.9 2.1 1.9 5.8 3.5 7.6 2.5 2.9 2.2 2.3 6.3 2.5 19.4 1.3 39.4 0 58.8 0 5 .1 9.8.1 14.6.1" fill="#6f6f6f"/></g><g transform="translate(0 77.967914)"><path d="m636.4 26.6c-75.8 0-151.5 0-227.3 0-75.4 0-150.8 0-226.1 0-42.7 0-85.4 0-128.1 0h14.4c6.4 0 8.7-1.2 14.4-3.5 9-3.5 19.9-3.9 29.4-2 9.6 2 19.2 3.2 28.8 4.5 8 1.1 22.4 2.2 29.4-1.6 5.2-2.8 8.2-6.1 14.4-7 4.6-.7 10-2.6 14.4-2.3 6 .4 8.2 2.4 14.4-.4 5.7-2.6 9-3.7 15-4 4.1-.2 10.5 1.8 14.4 1.3 2-.3 4.6-4.2 6.9-4.1 2.7.2 5 5 7.5 5.7 3.8 1.2 9.6-1.5 14.4-1.3 5.8.2 9.6-3.4 15-3.7 2.5-.1 4.6 1.8 6.9 1.9 2.6.2 5.1-1.5 7.5-1.2 5.7.7 7.4 6.9 12.1 9.2 4.5 2.2 9.6.6 14.4 1 4.9.4 9.4 1.7 14.4 1.2 6-.5 9.4-2.4 15 .9s7.7 4.4 14.4 4.1c3.6-.2 11.2.7 14.4-.7 4.8-2 7.3-9.4 12.1-12.4s9.7-2.3 14.4-5.2c3.1-1.9 4-4.8 7.5-4.1 2.4.5 5.2 4.5 7.5 5.8 6.3 3.5 9.3 1.5 12.7-4.4 3.6-6.2 3.9-8.8 11.5-8.8h58.3 28.8c5 0 10-.3 15 0 6.5.3 7.9 3.4 13.3 7 3.2 2.1 3.3 2.3 6.9 2.5 4.5.2 2.1-2.7 6.1 1.3 1.7 1.7 2.3 6 4.1 7.2s5-.4 7.1.3c2.7 1 4.2 5.2 6.9 6.3 1.8.8 5.9.7 8.1 1.1 4.7.9 10.1.5 14.4 2.1 6.1 2.4 8.7 3.3 14.9 3.3" fill="#e8e8e8"/><path d="m636.4 26.6c-75.8 0-151.5 0-227.3 0-75.4 0-150.8 0-226.1 0-42.7 0-85.4 0-128.1 0h118.8s79.2 0 118.8 0 79.2 0 118.8 0h30c5.7 0 9.9-.2 13.8-3.6 4.4-3.8 6.9-10.1 10.1-14.9 2.5-3.8 5.4-11.1 9-12.5 3.7-1.4 11 0 15 0h29.4c9 0 21.8-2.2 28.8 3.1 7.6 5.7 5.5 24.3 14.4 27.9 0 0 22.1.1 30 .1h29.4c5.2-.1 10.2-.1 15.2-.1" fill="#bfbfbf"/><path d="m636.4 26.6c-75.8 0-151.5 0-227.3 0-75.4 0-150.8 0-226.1 0-42.7 0-85.4 0-128.1 0h197.9s131.9 0 197.9 0c10.1 0 18.9 1.7 26.5-5.3.4-.4 1.9.5 2.3.1 1-1 1.4-4.8 1.7-6.1.7-2.8 1.3-5.6 2-8.4.6-2.4.9-6.8 2.4-8.7 2.2-2.9 1.3-2 5.4-2.5 8.4-1.1 18.6-.5 27.1 0 6.4.4 6.4 2.1 7.9 8.5 1.5 6.2 2.4 12.2 4.2 18.3 1.4-.8 5.1-4 6.9-3.5 2.2.6 2.6 6.6 4.6 7.4 1.1.5 9.9.4 13.3.4h27.1c18.2-.2 36.3-.2 54.3-.2" fill="#979797"/><path d="m636.4 26.6c-75.8 0-151.5 0-227.3 0-75.4 0-150.8 0-226.1 0-42.7 0-85.4 0-128.1 0h182.3 181.1 51.3 12.7c2.5-.8 2.5-1.3 4.4-3.2.8-.8.7-2.9 1.6-3.7 1-.9 2.2-.2 3.2-1.1 5-4.2 5.1-6.8 7.8-12.7 1.2-2.6 1.4-4.3 4.3-5.6 2.7-1.2 3.1 3.6 5.8-.4 4.6 5.3 4.7 12.7 9.2 17.4.9.9 2.6.9 4 2.4 1.1 1.3 1 3.6 2.1 4.7 2.3 2.3 2.6 2.1 6.6 2.1h35.2c23.4.1 46.7.1 69.9.1" fill="#6f6f6f"/></g><g transform="translate(0 97.219251)"><path d="m636.4 40.1c-75.8 0-151.5 0-227.3 0-75.4 0-150.8 0-226.1 0-42.7 0-85.4 0-128.1 0h28.8c8.4 0 20.8 2.4 28.8 0 2.5-.7 4.4-3.9 6.9-4.6 2.1-.6 5.3 0 7.5 0 4.7 0 9.8.5 14.4-.4 9-1.7 20.2-6.3 29.4-5.1 5.6.7 8.8 1.6 14.4 1.1 5.7-.5 9.3 2.9 14.4 2.5 9.5-.8 19.9-2.4 28.8-7.2 4.7-2.5 6.7-9.4 11-11.3 4.2-1.9 10.2 2 14.4 2.3 9.2.7 19.5 2.9 28.8 2.4 1.8-.1 5.3-1.3 6.9-1 3 .6 3.8 3.5 6.3 4.7 3.7 1.8 10.4 2.8 14.4 1.8 5.2-1.3 8.7-2.9 14.4-2.3 5.3.6 9.1 1.6 14.4.8 6.6-1 7.5-4.3 12.7-7.5 6.3-3.8 8.7 2.6 14.4.8 5.4-1.7 7-7 13.3-7.9 4.6-.7 9.7-.1 14.4-.1h115.4c18.3 0 40.6-3.3 58.3.9 4.9 1.2 9.6 1.9 13.3 5.3 4.1 3.8 7.8 7.9 12.1 11.5 5.1 4.2 8.9 4.7 14.4 7.1 5 2.1 8.9 5.2 14.4 6.2 5 .6 10.2 0 14.8 0" fill="#e8e8e8"/><path d="m636.4 40.1c-75.8 0-151.5 0-227.3 0-75.4 0-150.8 0-226.1 0-42.7 0-85.4 0-128.1 0h118.8s79.2 0 118.8 0h59.4 15c6.6 0 9.7.4 15-3.7 8.3-6.4 16.8-12.9 24.8-19 5.4-4.1 5.4-8 12.7-8.4 5-.3 10.2-.1 15 .5 2.8.3 4.1.1 6.4 1.8 2 1.4 2.8 5.8 5.2 6.9 3.6 1.6 2.8-1 6.4-2.8 4.5-2.3 2.5.3 6.9.2 4.8-.1 2.7-2.2 6-4.6 2.5-1.8 3.6-1.7 6.7-1.9 4.9-.4 10.1 0 15 0h29.4c9.7 0 20.4-1.3 30 0 4.1.5 3.2-.6 5.4 2.6 1.7 2.5 2.7 8.2 3.6 11.1 1.6 5.5 2 11 6.9 14.8 7 5.3 21.2 2.7 29.7 2.7h29.4c5-.2 10-.2 15-.2" fill="#bfbfbf"/><path d="m636.4 40.1c-75.8 0-151.5 0-227.3 0-75.4 0-150.8 0-226.1 0-42.7 0-85.4 0-128.1 0h118.8s79.2 0 118.8 0h59.4 30 29.4c4.6-1 9-5.7 13.8-5.8 5.1-.1 7.8 5.5 13.8 5.8 4.8.2 9.6 0 14.4 0 6.1 0 10.4 1.4 13.7-3.4 3.6-5.3 3.7-11.4 8-16.4 3.1-3.6 6.4-11.1 10.7-11.3 7.8-.2 21 0 29.4 0h15c7.8 0 8.6 2 10.9 9.6 1.9 6.1 3.6 12.1 7.5 17.3s6.9 4.2 13.3 4.2h59.4z" fill="#979797"/><path d="m636.4 40.1c-75.8 0-151.5 0-227.3 0-75.4 0-150.8 0-226.1 0-42.7 0-85.4 0-128.1 0h178.8 177.7 49.6c7.3 0 19.1 2.6 23.4-3.6 3-4.2 3.8-10.1 6.6-14.6 2.8-4.7 6-5.7 9.2-9.3 1.8 4 5.6 2 6.9 6.8 3-11.8 10 1.7 13.2 4.3 1.6 1.2 4.2.9 6.4 3.1s3.3 5.2 5.8 7.3c5.4 4.7 7.6 6 15 6h17.9z" fill="#6f6f6f"/></g><g transform="translate(0 116.470588)"><path d="m636.4 53.5c-75.8 0-151.5 0-227.3 0-75.4 0-150.8 0-226.1 0-42.7 0-85.4 0-128.1 0 18.7 0 39.8 2.8 58.3 0 9.5-1.4 19-7.4 28.8-8 6.7-.4 7.2.8 13.3-2.7 5-2.9 9.5-6.2 14.4-9.2 5.3-3.2 8.3-6.6 13.8-8.8 4.6-1.8 7.5-2.4 13.3-2.4h28.8 58.3 116s77.3 0 116 0h29.4c4.7 0 9.9-.6 14.4.6 6.1 1.7 7.1 6.2 9.8 11.4 3.3 6.3 6 4.1 11.2 7.9 1.7 1.2 2.8 3.6 4.6 4.6s5.1.8 7.2 1.6c9.2 3.2 19.4 5 29.4 5z" fill="#e8e8e8"/><path d="m636.4 53.5c-75.8 0-151.5 0-227.3 0-75.4 0-150.8 0-226.1 0-42.7 0-85.4 0-128.1 0h119.4c5.8 0 9.7 1.2 12.9-4.1 3.3-5.4 3.6-12.6 6-18.4 4.6-10.9 16.4-8.6 26.7-8.6h60 29.4c7.8 0 7.7 1.1 13 5.8 7.4 6.6 6.1-3.1 12.4-4.6 2.1-.5 5 1.4 7.5 1 2.7-.4 4.5-1.9 7.5-2.2 4.9-.5 10.1 0 15 0h30 118.8c9.2 0 22.6-3 28.6 4.8 6.6 8.6 7.6 24 19.9 26.3 9.1 1.7 20.1 0 29.4 0h30z" fill="#bfbfbf"/><path d="m636.4 53.5c-75.8 0-151.5 0-227.3 0-75.4 0-150.8 0-226.1 0-42.7 0-85.4 0-128.1 0h72.7 36.9 17.9c5 0 18.5-.2 18.5-.2 4.1-1.7 10.3-11.9 13.3-15.8 4.6-6 3.7-15.3 12.7-15.1 3.2.1 5.6 1.5 8.7 1.6 3.5.1 6.4-1.2 9.8-1.6 5.8-.7 12.1 0 17.9 0h18.5c1.9 0 7.1-1 8.7 0 1.8 1.2 3.8 8.2 4.6 10.1 3.2 7 5 15.1 12.7 17.8 5.7 2 12.1 3.1 18.5 3.1 6 0 14.7 1.5 20.2-.5 2.9-1 6.7-4.5 9-6.3 2.8-2.1.1-4.3 4.3-3.6 2.3.4 2.1 3.1 3.5 4 2.8 1.7-.3 3.1 3.8 1.6 1.6-.6 2.6-4.2 3.7-5.4 4-4.3 3.6-2.3 8.7-2.4 3.9 0 6-.1 9.8.5 4.3.7 8.3 3.1 9.8-3.1 5.2 2.2 4.9 9.7 9.2 8.8 3.1-.7 2.8-4 4.6-5.9 2-2.1 5.1-3 6.9-5.2 2.3-2.8 3.2-12 6.9-13.2 2.3-.8 4.1 1.8 5.8 2.2 3.6.7 3.2-.1 6.4-.8 2-.4.6-1.6 2.9-1.7 1.9-.1 1.3 1.6 2.9 1.8 2.1.3 2.6 1.3 5.2.9 2.1-.3 4.2-2.3 6.3-2.8 2.3-.5 5.1-.1 7.5-.1h25.4 26.5c3.7 0 8.9-1 12.1.8 4.8 2.7 4.9 9.6 6.3 14.7 1.2 4.2 1.6 12.2 5.2 14.9 2.6 1.9 10 .7 13.3.7h25.4c19.3.2 38.9.2 58.5.2" fill="#979797"/><path d="m636.4 53.5c-75.8 0-151.5 0-227.3 0-75.4 0-150.8 0-226.1 0-42.7 0-85.4 0-128.1 0h81.9 41 41c4-1 5.6-6 9.2-5 4.4 1.2 3.4 5.4 9.2 5 5.1-.3 6-2.7 7.6-7.2 1.9-5.3 3.7-8.6 6.2-13.6.8.6 1.5 1.2 2.3 1.8 1.9-4.6 6-5.4 9.2-3.6 1.3.7 1.8 2.5 2.9 3.3 2.4 1.8 2.6 1.5 5.2 2.5 1.4.6 2.7-.3 4.1.4 1 .5 2.6 2.9 3.4 3.7 1.3 1.3 2.1 2.8 3.5 3.7 1.5.9 4.1.2 5.8 1.6 3.6 2.9 1.3 6 6.3 7.5 2.9.8 7.4 0 10.4 0h20.8 80.8 41c4.7 0 5.9.5 8.7-2.5 2.7-2.9 2.4-8.1 5.8-10.8-.2.2 4.5-1.5 4.9-1.7 3.7-1.8-.3-3.8 4.3-3 1.3.2 2 3.2 3.5 3.4 2.8.4 1.4-1.3 4.1-2.1 1.8-.5 1.6-1.9 4-1.4 1.6.3 3.2 4 4.3 4.1 4 .3 4.7-7.1 7-9.3 3.5-3.2 4-1.7 7.1 1.7 1 1.1 1.1 4 2.3 4.7 1.3.7 4.2-1.1 5.8-.6 6.9 2.2 9.5 13.4 16.2 16.4 5.6 2.5 14.1 1 20.2 1z" fill="#6f6f6f"/></g><g transform="translate(0 135.721925)"><path d="m636.4 67c-75.8 0-151.5 0-227.3 0-75.4 0-150.8 0-226.1 0-42.7 0-85.4 0-128.1 0 11.1 0 22.3.3 33.5 0 5.1-.1 11.6-.7 16.2-3.2 2.4-1.3 3.6-3.7 5.8-5.6 3.3-3 3.6-1.7 7.5-3 2.8-1 3.7-2.6 6.6-4.5s4.3-1.2 7.8-2.5c4.6-1.8 1.5-3.5 6.9-2 4.8 1.3 2 3.4 7.5 1.3 3-1.2 3-3.8 6.9-3.6 3.2.1 4.7 3.7 7.9 1.7 2.4-1.5 1.8-8 4.3-9.5 1.5-.9 6.3 0 8.1 0h133.3 132.7 66.3 33.5c15.7 0 16.6 15 28.3 21.7 2.8 1.6 5.1.7 8.1 1.6 3.2 1 5.4 3.8 8.7 4.7 4.9 1.4 11.7.5 16.7.2 11.2-.7 21.8 1.1 32.9 1.8" fill="#e8e8e8"/><path d="m636.4 67c-75.8 0-151.5 0-227.3 0-75.4 0-150.8 0-226.1 0-42.7 0-85.4 0-128.1 0h59.4 30c4.8 0 9.6.3 14.4 0 7.5-.4 7.2-3.3 10.9-9.1 4.8-7.2 11.1-25.1 22.5-21.9 6 1.7 4 8.8 12.1 6.1 3.1-1 4.8-1.6 7.5-2.1 1-.2 2.7.7 3.5.5 1.9-.5 1-2.1 2.7-3 7.1-3.4 20.1-1.6 29-1.6h29.4 118.8 59.4 30 14.4c3.3 0 12.2-1.6 15 0 1.5.9 2.8 5.6 4.3 7.1 3.4 3.4 2.9 1.3 6.1 2.9 2.2 1.1 3.4 3.1 5.8 4.2 4.3 1.9 3.5-.2 6.9 4.2 2.9 3.7 6.5 10 10.9 12.1 3.5 1.6 9.8.6 13.9.6h59.4z" fill="#bfbfbf"/><path d="m636.4 67c-75.8 0-151.5 0-227.3 0-75.4 0-150.8 0-226.1 0-42.7 0-85.4 0-128.1 0h75 37.5c6.2 0 12.9.7 19 0 1.4-.2 3.7-1.8 4.6-1.8 1.1 0 2.5 1.7 4 1.8 3.2.3 6.6 0 9.8 0 3 0 7.5.8 10.4 0 5.2-1.5 4.1-4.9 6.9-9 2-2.9 4.9-4.7 8.4-6.9 3.9-2.5-.1-2.9 4.3-1.9 1.8.4 3.6 2.1 4.6 3.5 2.3-2.5 3.7-5.7 4.8-8.8 2-5.7.5-6.7 5.6-8 1.2-.3 3.5.7 4.6.7s3.3-.5 4.6-.7c2.8-.3 5.8 0 8.7 0 7.7 0 11.2 1.3 17.9 3.8 1.6.6 2.9.6 4.6 1.5.7.4 3.2 1.5 4 1.9 2.9 1.2 6 3.1 7.5-1.5 2.6 1.6 6 5.9 8.1 5.7 3.7-.3 4.6-5.7 8.1-6.7 4.6-1.4 10.6 5 16.2 4.6 3.5-.2 4.3-2.5 8.1-3.3 2.5-.5 4.8 2 8.1 1.6 7.4-.8 8.6-14.4 13.8-2.3 1.9-.7 4.7-3 6.3-3.3 2.4-.5 4.3.9 6.4 1 3.8.2 3-.8 6.9-2.2 4.8-1.7 4 .9 7.5 2 2.8.9 3 .7 5.8-.3 1.4-.5 1.3-2 2.9-2.5 1-.3 2.4.1 3.5 0 4.3-.6 10.5-.5 14.4.5 2 .5 3.7 2.7 6.3 2.4.9-.1 1.4-2.7 2.3-3 1.1-.3 2.4.2 3.5 0 2.4-.4 4.9.7 6.9.7 2.3 0 5.2-.5 8.1-.7 9.5-.7 19.3 0 28.8 0 8.4 0 20-1.9 27.7.9 6.3 2.3 8.3 7.8 9.8 13.8 1 3.8 1.6 14.1 5.2 16.4 2.3 1.4 10 0 12.7 0h15 28.8c21.2.1 42.4.1 63.5.1" fill="#979797"/><path d="m636.4 67c-75.8 0-151.5 0-227.3 0-75.4 0-150.8 0-226.1 0-42.7 0-85.4 0-128.1 0h174.2c4.2 0 8.5.2 12.7 0 1.9-.1 4-.6 5.8-.7.7 0 1.5-1 2.3-1.1 1.1 0 2.2 1.3 2.9 1.2 2.7-.2 3.1.2 5.8-1.2 2-1 2.4-3 5.2-3.7 3.9-1 8.8 4.4 10.4-2.8.9 1.7 2.3 2.1 3.5 3.1 1 .9 2.1 3.8 3.1 4.4 2 1.3 5.7.8 8.4.8h17.3 36.3c11.6 0 24.3 1.6 35.8 0 2.7-.4 5.4-2.2 7.5-2.2 3 0 5.3 2.5 9.2 2.2 6.8-.5 14.4 0 17.3-7.4 6.1 4.5 7 9.2 15 6.4 4.5-1.6 1.4-2.6 6.4-1.3 2.5.6 3.2 3.3 6.6 2 9-3.4 13.7-24.3 25.1-17.2 1.3-3.2 4.5-7.5 7.5-7.7.4 0 3.6 1.6 4.6 1.8 2.6.4 3-1.7 5.2-.7 3.8 1.7 7.6 19.6 12.7 14.1 1.2 2.1 4.4 7.7 6.3 9 2.3 1.5 5.6 1 8.7 1h17.3 36.3z" fill="#6f6f6f"/></g><g transform="translate(0 154.973262)"><path d="m636.4 80.4c-76.2 0-152.3 0-228.5 0-75.8 0-151.5 0-227.3 0-21.2 0-42.3 0-63.5 0-10.8 0-21.5 0-32.3 0-6 0-27 2.6-30-1.1 6.1 1.8 13.3 1.3 19.6 1.1 7.5-.3 12-5.6 19-6.8 3-.5 6.2.9 9.2-.1 2.5-.8 1.7.3 3.6-1.2 1.2-1 2.1-3.9 3.3-5.2.8-.9 1.8-3.3 2.9-3.7.8-.3 2.9 2.3 4.6 1.6 4.1-1.6 3.1-5.8 5.8-9 4.3-5 3.5.2 7.5-1.3 4.3-1.6 4.1-4.5 8.7-5.5 6-1.2 13.5 0 19.6 0h38.1 76.7 38.7c6.2 0 12.5.7 18.5.4s13.4-1.3 19.6-.4c2.9.4 6.5 1 9.2 1.8 3.5 1 4.7 3.3 8.1 5 5.5 2.7 12.4 1.8 17.9 6.2 7.2 5.8 9.6 9.7 15.9.4 3.5-5.3 7.7-12.1 14.1-13.4 11.6-2.3 26.2 0 38.1 0h38.7 38.1 19c5.7 0 4.2.1 7.5 3.4 2.1 2.1-.2 3 2.9 3.6 1.8.4 3.9-2.4 5.2-2.1 4.3 1 9.2 15.2 12.1 18.7 4.7 5.5 10.3 6.6 15.9 2.5 3.6-2.6 3-3.7 7.2-4.4 4-.6 5.5 1.7 8.7 3 6.4 2.6 12.8 1.2 19.6 3.6" fill="#e8e8e8"/><path d="m636.4 80.4c-75.8 0-151.5 0-227.3 0-75.4 0-150.8 0-226.1 0-42.7 0-85.4 0-128.1 0h50.8 25.4c8.5-2.8 5.8-19.2 13.8-24.9.5 1.1 1.8 1.9 2.3 3.1 2.6-6.5 3.2-9.3 10.4-9.3 4.2 0 11-1.7 12.7 3.2 7.7-9.9 12.2 1.9 13.8 8.3 2.4-7.1 2.5-11.5 10.4-11.5h15 31.7 31.2c2.4 0 5.2-.4 7.5 0 4.3.8 3.4 1.8 6.9 4.1 3.4 2.3 11.6 8.9 15 6.3 1.6 3 3.4 6.7 5.4 9.3 3.5 4.7 2.5 2.6 7.9 4.9 6.3 2.7 8.6 7.8 16.7 6.5 7.6-1.3 8.3-5.6 16.7-2.3 6.1 2.5 11.2 2.3 17.9 2.3h35.8c2.5 0 6.4.6 8.4-.5 2.1-1.2 4.7-6.9 5.9-9 3.1-5.6 4.7-15.2 9.4-19.5 3.7-3.4 4.3-.6 8.1-.6 3.3 0 5.9-1.1 9.2-1.5 5.8-.7 12.1 0 17.9 0h35.8 17.9c3.8 0 14.2-.5 17.3 1.5 2.3 1.5 3.2 6.3 5 8.4.8 1 3 1.6 3.6 2.4 1.1 1.4 2 3.6 3.3 5.4 1.7 2.5 4.6 4.7 5.9 5.9.6.6 4.3 7.4 5.8 7.4 6 .1 15.6.1 20.2.1h20.2z" fill="#bfbfbf"/><path d="m636.4 80.4c-75.8 0-151.5 0-227.3 0-75.4 0-150.8 0-226.1 0-42.7 0-85.4 0-128.1 0h56 27.7c2.9 0 12.5 0 13.4-.4 2.1-1 3.6-15 9.1-8.2.5-1.4 1.9-2.5 2.3-3.9 3.2 7.8 8.4 18.7 13.8 6.3 1.6 3.8 5.5 7.8 9.8 5.6 4.1-2.1 2.8-11 3.4-15.1.5-3.5.5-10.9 2.6-13.5 3.9-4.8 5.6 1 9.5 2.9.5-1.3 1.9-2.4 2.3-3.7 4.9 6.8 6.1 14.8 11.5 21.2.5-1.1 1.8-1.8 2.3-2.9 3.2 3.2 5.2 5.6 6.9 9.9 3-7 4.9-12.9 6.9-20.2 2.3-8.2 4.1-9 12.1-9 8.2 0 7.8 3.6 11.3 10.6 3.5 7.1 8 8.6 14.6 12.2 2.6 1.4 5.7 1.7 8.1 3.2 3.6 2.3 3.5 4.1 7.5 5.1 4.9 1.2 11.7 0 16.7 0h34 67.5c5.7 0 11.6.3 17.3 0 2.8-.2 5.6-1.1 8.1-1.1 3.2 0 5.5 1.9 8.7.6 6.5-2.7 6.4-13 8.7-19 2.4-6.5 7-11.1 13.8-11.6 6.1-.4 12.4 0 18.5 0 8.2 0 11.9-1.3 14.5 7.1.8 2.6 1.3 10.1 5.1 9.4 3.4-.6 3.3-6.9 5-9.2 3.2-4.3 3.1-3.1 6.2.3 2.3 2.5-.2 3.6 3.2 4.1 1.3.2 4-1.9 5.2-2.7 1.2 2.8 5.7 13.9 9.2 7 4.5 3.4 2.4 12.3 6.9 15 2.6 1.5 10.7 0 13.8 0h29.4z" fill="#979797"/><path d="m636.4 80.4c-75.8 0-151.5 0-227.3 0-75.4 0-150.8 0-226.1 0-42.7 0-85.4 0-128.1 0h72.1 35.8 17.9 9.2c4.7-1.1 4-1.8 5.8-7.1 2 6.2 1.8 7 8.1 7.1 3.8.1 7.7 0 11.5 0h11.5c1.6 0 3.7.4 5.2 0 4.4-1.3 1.6-1.4 4.8-4.4 1.9-1.8 8.1-6.3 10.2-5.5 3.8 1.3 3.4 8.4 7.5 9.9h23.1 92.3 46.2 22.5c3.5 0 7.5.5 11 0 5.7-.8 5.4-2.2 8.1-7.8 3.5-7.3 7.6-20.5 16.2-17.2 1.3.5 3.2 2.6 4.6 3.3 1.8.8 3.9.1 5.8 1.5 3 2.3 4.5 8.9 5.8 12.1 2.2 5.7 1.8 7.5 8.1 8.1 3.8.3 7.7 0 11.5 0h23.1z" fill="#6f6f6f"/></g><g transform="translate(0 48.609626)"><path d="m54.9-24.9h-10.2" fill="none" stroke="#505050" stroke-width="1.6982"/><text fill="#9a9a9a" font-family="'RobotoMono-Regular'" font-size="13.8452" transform="translate(9.2109 -19.4775)">mar</text></g><g transform="translate(0 67.860963)"><path d="m54.9-11.5h-10.2" fill="none" stroke="#505050" stroke-width="1.6982"/><text fill="#9a9a9a" font-family="'RobotoMono-Regular'" font-size="13.8452" transform="translate(9.2109 -6.0364)">apr</text></g><g transform="translate(0 87.112299)"><path d="m54.9 2h-10.2" fill="none" stroke="#505050" stroke-width="1.6982"/><text fill="#9a9a9a" font-family="'RobotoMono-Regular'" font-size="13.8452" transform="translate(9.2109 7.4046)">may</text></g><g transform="translate(0 106.363636)"><path d="m54.9 15.4h-10.2" fill="none" stroke="#505050" stroke-width="1.6982"/><text fill="#9a9a9a" font-family="'RobotoMono-Regular'" font-size="13.8452" transform="translate(9.2109 20.8447)">jun</text></g><g transform="translate(0 125.614973)"><path d="m54.9 28.9h-10.2" fill="none" stroke="#505050" stroke-width="1.6982"/><text fill="#9a9a9a" font-family="'RobotoMono-Regular'" font-size="13.8452" transform="translate(9.2109 34.2857)">jul</text></g><g transform="translate(0 144.86631)"><path d="m54.9 42.3h-10.2" fill="none" stroke="#505050" stroke-width="1.6982"/><text fill="#9a9a9a" font-family="'RobotoMono-Regular'" font-size="13.8452" transform="translate(9.2109 47.7258)">aug</text></g><g transform="translate(0 164.117647)"><path d="m54.9 55.7h-10.2" fill="none" stroke="#505050" stroke-width="1.6982"/><text fill="#9a9a9a" font-family="'RobotoMono-Regular'" font-size="13.8452" transform="translate(9.2109 61.1669)">sep</text></g><path d="m45.3 4.3h9.9v231.9h-9.9" fill="none" stroke="#505050" stroke-width=".8081"/></svg>