<svg id="Layer_1" data-name="Layer 1" xmlns="http://www.w3.org/2000/svg" width="650" height="600" viewBox="0 0 650 600"><title>radial-time-series</title><path d="M323.6,70.1l-4,2-4,.7-11.7,5-3.4,5-3.7,1.4-2.6,9.5-2.3,9.2-10.2,2.9-3.1,2.3-3,2.4-5.9,4.5-10.9-.3-2.1,4.5-4.9-3.4-4.3-1.2-4.3-1.1-11.2,1.5-0.8,6.5-0.4,6.9,4,14.5-4.1-.7-4.6,10.8-4.2-.7-1.9,2.8-4.7-1.2-3.3.9-6.1,7.9-10.1-6.9-0.9,4.1-4,.7-9.8-5.4-8.5,6.7-5,.3V167l-3.7,1.6-6.5,13.2,1.5,5.5-2.4,2.6-4.2,1.4-5.6.6-4.5,10-3.9,2,1.5,4.9-17.9-4.9,1.7,5.1,3.9,14.1,1.8,4.7-3.5,2.6,1.2,4.3-0.3,3.7-8.8,8.7,2.1,4.4-2.2,3.2,4.2,4.7,10.3,5.8L148.5,278l-2.8,2.7,14.4,4.8,24.4,5.3-1.4,2.3,1.4,7.4-0.5,2.4,2.6,2.4,2.4,2.3,1,2.3,3.1,9-2.7,2.6,3,1.9-0.9,2.4,3,6.4-1.9,2.8-2.7,3.1-3,3.3-2.6,3.3v7.9l1.5,2.2-1.6,3.3,3,1.6v2.8l0.2,8.3,5.3,0.2,0.2,2.8,10-2.6-9.7,8.3,4.2,6.5-0.6,3.5,4.3,0.2-3.6,5.7L202,396l6.4,4.9v3.4l1.4,2.3,2.7,1.1-3.9,7.4,3.3,8.6,1.5,2.5,2.1,1.9,2.4,1.5-1.4,6.2,7.9,4.1,1.8,2.5,1.9,2.5-1.1,7,8.6,9.5,5.1-2.9-0.6,7.7,4.6-2.1,8.5-10.9,9.6-.8-3.3,16L249,505.6l5.8-5.4,5-3.8,11.4-2,2.6,3.6,5.4-7.9,1.8,7,5.6-10.6,10.5-4.9,2.5,4.7,3.3-1,3.5-3.5,2.9,1.9h9.3l3.1,3.8,3.2,5.6,3.2-2.7,13.3,4.2,3.5,1.8,3.1-1.7,3.5,0.7,3.7,1.6,8.7-7.4,2.9-2.1,2.2-4.7,1.1-8.1,10.8-6.1,3.4,0.6,2.8-1.1,4.3,2.6,10.4-6.9,2-2.9,8.4,9.1,9.7,10.7,5.6,2.7,12.4-.6h4.4l4.3-.4,6.9,3-0.8-7.5,15.6,1,2.9-2.7,1.4-4.3-10-16.4,2.6-2.5,4-10.9,3.6-1.5,7.8,2.1-1.2-5.8,3.6-1.7,3.5-10.8,6.2-4.4,7.3,0.5,1.6-3.4,7.3-8.5-0.6-4.6,2.8-2.7,6.4-1,3.8-2.4-3.6-13.8-1.2-4.4,12.1,0.6-9.4-7.3,1.6-3.3-2.8-12-6-5.2,1.3-3.2-1.2-3.7L522,344l-2.9-11.2-3.8-3.9-1.5-3.5-0.2-3.3,12.9-2.4,1.5-10.5-19.8-3.6,3-3.2-4.3-3.1L505,296l2-9.7,15-5,3.7-4-1.3-3.4-7.6-2.3,32.1-17.6-0.6-4,59-19.5-16.1-.8,4-6.2-15-10.3-2.1-4.3-2.2-4.2,6.5-7.8-5.7-2.8-14.1-9-50,20.9-3.6-2.2-3.1-2.4-2.2-2.9,3.7-15.5-12.3,3.8-4.9-.9-6.2.2,2.9-6.6-7.2-7.9,4.5-8.7,10.1-14.3-2.1-3.5L477,138l-3.4-2.1-5.7.6L457,143.7l-1.9-3.4-10.2-4.5-2.8-2.3-3.6-1.1,0.7-7.7-4.3-.2-6.4-11.2-3.2-2.1,4.2-16.7L427.3,90l-1.1-7.4L407.7,94.5l-2.4-4.6-7.4,8.7-5.3,3.9-5.8,5.9-10-3.9-4,1.1-5.3,7.4-7.6,19.6-2.2-4.5-9.2-1.5-3.8,5.6-4.1,10,1.2-46.7L338.3,92l-11.1,3.8-3.6-.3" fill="none" stroke="#8a8a8a" stroke-width="2.62" stroke-dasharray="2079.23 2079.23"/><circle cx="323.6" cy="304.7" r="168.1" fill="none" stroke="#ccc" stroke-width="1.31" style="isolation:isolate"/><text transform="translate(310.5 142.1)" font-size="15.7" fill="none" stroke="#fff" stroke-linejoin="round" stroke-width="6.54" font-family="Arial" style="isolation:isolate">$16</text><text transform="translate(311.8 140.8)" font-size="13.09" fill="#767676" font-family="Roboto Mono" style="isolation:isolate">$16</text><circle cx="323.6" cy="304.7" r="203.1" fill="none" stroke="#ccc" stroke-width="1.31" style="isolation:isolate"/><text transform="translate(310.5 107.1)" font-size="15.7" fill="none" stroke="#fff" stroke-linejoin="round" stroke-width="6.54" font-family="Arial" style="isolation:isolate">$18</text><text transform="translate(311.8 105.8)" font-size="13.09" fill="#767676" font-family="Roboto Mono" style="isolation:isolate">$18</text><circle cx="323.6" cy="304.7" r="232.9" fill="none" stroke="#ccc" stroke-width="1.31" style="isolation:isolate"/><text transform="translate(310.5 77.3)" font-size="15.7" fill="none" stroke="#fff" stroke-linejoin="round" stroke-width="6.54" font-family="Arial" style="isolation:isolate">$20</text><text transform="translate(311.8 76)" font-size="13.09" fill="#767676" font-family="Roboto Mono" style="isolation:isolate">$20</text><circle cx="323.6" cy="304.7" r="259.3" fill="none" stroke="#ccc" stroke-width="1.31" style="isolation:isolate"/><text transform="translate(310.5 50.8)" font-size="15.7" fill="none" stroke="#fff" stroke-linejoin="round" stroke-width="6.54" font-family="Arial" style="isolation:isolate">$22</text><text transform="translate(311.8 49.5)" font-size="13.09" fill="#767676" font-family="Roboto Mono" style="isolation:isolate">$22</text><circle cx="323.6" cy="304.7" r="283.3" fill="none" stroke="#ccc" stroke-width="1.31" style="isolation:isolate"/><text transform="translate(310.5 26.9)" font-size="15.7" fill="none" stroke="#fff" stroke-linejoin="round" stroke-width="6.54" font-family="Arial" style="isolation:isolate">$24</text><text transform="translate(311.8 25.6)" font-size="13.09" fill="#767676" font-family="Roboto Mono" style="isolation:isolate">$24</text><circle cx="323.6" cy="304.7" r="130.9" fill="none" stroke="#000" stroke-width="1.31" opacity="0.2" style="isolation:isolate"/><line x1="348.3" y1="176.2" x2="347.1" y2="182.6" fill="none" stroke="#000" stroke-width="1.31"/><text transform="translate(331.4 202.3) rotate(10.9)" font-size="13.09" fill="#989898" font-family="Roboto Mono" style="isolation:isolate">Aug</text><line x1="410.5" y1="206.9" x2="406.2" y2="211.8" fill="none" stroke="#000" stroke-width="1.31"/><text transform="translate(382.7 220.7) rotate(41.7)" font-size="13.09" fill="#989898" font-family="Roboto Mono" style="isolation:isolate">Sep</text><line x1="447.6" y1="263" x2="441.4" y2="265" fill="none" stroke="#000" stroke-width="1.31"/><text transform="matrix(0.32, 0.95, -0.95, 0.32, 417.05, 262.49)" font-size="13.09" fill="#989898" font-family="Roboto Mono" style="isolation:isolate">Oct</text><line x1="451.5" y1="332.3" x2="445.1" y2="330.9" fill="none" stroke="#000" stroke-width="1.31"/><text transform="translate(429.8 339.6) rotate(-77.8)" font-size="13.09" fill="#989898" font-family="Roboto Mono" style="isolation:isolate">Nov</text><line x1="420.9" y1="392.2" x2="416" y2="387.8" fill="none" stroke="#000" stroke-width="1.31"/><text transform="matrix(0.67, -0.74, 0.74, 0.67, 398.51, 387.69)" font-size="13.09" fill="#989898" font-family="Roboto Mono" style="isolation:isolate">Dec</text><line x1="362.5" y1="429.6" x2="360.6" y2="423.4" fill="none" stroke="#000" stroke-width="1.31"/><text transform="translate(346.6 414) rotate(-17.3)" font-size="13.09" fill="#989898" font-family="Roboto Mono" style="isolation:isolate">Jan</text><line x1="293.2" y1="432" x2="294.7" y2="425.6" fill="none" stroke="#000" stroke-width="1.31"/><text transform="matrix(0.97, 0.23, -0.23, 0.97, 286.75, 410.26)" font-size="13.09" fill="#989898" font-family="Roboto Mono" style="isolation:isolate">Feb</text><line x1="237.4" y1="403.2" x2="241.7" y2="398.2" fill="none" stroke="#000" stroke-width="1.31"/><text transform="translate(241.8 381) rotate(41.2)" font-size="13.09" fill="#989898" font-family="Roboto Mono" style="isolation:isolate">Mar</text><line x1="199.2" y1="345.3" x2="205.4" y2="343.3" fill="none" stroke="#000" stroke-width="1.31"/><text transform="matrix(0.31, 0.95, -0.95, 0.31, 214.67, 329.57)" font-size="13.09" fill="#989898" font-family="Roboto Mono" style="isolation:isolate">Apr</text><line x1="195.4" y1="278.3" x2="201.8" y2="279.6" fill="none" stroke="#000" stroke-width="1.31"/><text transform="translate(221.1 296.2) rotate(-78.3)" font-size="13.09" fill="#989898" font-family="Roboto Mono" style="isolation:isolate">May</text><line x1="226.9" y1="216.5" x2="231.8" y2="220.9" fill="none" stroke="#000" stroke-width="1.31"/><text transform="translate(241.1 243.7) rotate(-47.6)" font-size="13.09" fill="#989898" font-family="Roboto Mono" style="isolation:isolate">Jun</text><line x1="283.4" y1="180.1" x2="285.4" y2="186.4" fill="none" stroke="#000" stroke-width="1.31"/><text transform="translate(284.3 210.1) rotate(-17.9)" font-size="13.09" fill="#989898" font-family="Roboto Mono" style="isolation:isolate">Jul</text></svg>