<svg height="650" viewBox="0 0 650 650" width="650" xmlns="http://www.w3.org/2000/svg"><g fill="none"><g stroke="#d1d1d1" stroke-miterlimit="10"><path d="m324.3 633.5c-169 0-305.8-136.8-305.8-305.8s136.8-305.8 305.8-305.8 305.8 136.8 305.8 305.8-136.8 305.8-305.8 305.8z"/><path d="m324.3 610c-156 0-282.3-126.3-282.3-282.3s126.3-282.2 282.3-282.2 282.2 126.2 282.2 282.2-126.2 282.3-282.2 282.3z"/><path d="m324.3 586.4c-143 0-258.7-115.7-258.7-258.7s115.7-258.7 258.7-258.7 258.7 115.7 258.7 258.7-115.7 258.7-258.7 258.7z"/><path d="m324.3 562.9c-130 0-235.2-105.2-235.2-235.2s105.2-235.2 235.2-235.2 235.2 105.2 235.2 235.2-105.2 235.2-235.2 235.2z"/><path d="m324.3 539.4a211.7 211.7 0 1 1 211.7-211.7 211.6 211.6 0 0 1 -211.7 211.7z"/><path d="m324.3 515.9a188.2 188.2 0 1 1 188.2-188.2 188.1 188.1 0 0 1 -188.2 188.2z"/><path d="m324.3 492.4a164.6 164.6 0 1 1 164.6-164.7 164.6 164.6 0 0 1 -164.6 164.7z"/><path d="m324.3 468.8a141.1 141.1 0 1 1 141.1-141.1 141 141 0 0 1 -141.1 141.1z"/><path d="m324.3 468.8v164.7"/><path d="m415 435.8 105.8 126.2"/><path d="m463.3 352.2 162.1 28.6"/><path d="m446.6 257.1 142.5-82.3"/><path d="m372.6 195.1 56.3-154.7"/><path d="m276 195-56.3-154.6"/><path d="m202 257.1-142.5-82.3"/><path d="m185.3 352.2-162.1 28.6"/><path d="m233.6 435.8-105.8 126.2"/></g><path d="m349.7 46.6-31.7-1.1-4.8 1.4c-.2-.3-11-5.6-11.2-5.9l-14.9 8.6c-.2-.4-13.9-5.6-14.2-6l-3.2 7.2-10.6 1.6c-.2-.4-7 3.9-5.5 4.1s-13.7-7.9-15.7-7.2-1.9 14.6-4.5 15.5c0 0-17.6.8-17.8.4s-8.8 5.4-9 5.2l-5.5 8.8c.3.5-24.8 8.1-24.8 8.1s-22-3.2-21.7-2.8.3 22.4.3 22.4l-9.5 3c-3.6 1.2-6.4 7.9-8.4 7.9-5.9 0-12.9-.5-12.6 0s-.2 11.7-.1 11.7-23.8 14.4-23.4 15.2l3.8 8.5c.3.6-16.1 20.5-15.8 21l1.8-1c.3.4-17.9 2.7-17.6 3.2l9.4 13.1c.3.4-12.6 19-12.3 19.5l1.4-.8c.3.5-24.5 7.4-24.3 7.9l21.5 10.9c.3.5-11.4 14.7-11.1 15.2l1.2-.7c.2.4-5.6 15.4-5.4 15.8l1.2-.7c.2.3-4.3 13.4-4.1 13.7l1.1-.6c.3.5-21.4 5.1-21.1 5.7l20.6 7.6c.2.4-4.8 14.4-4.6 14.7l1-.6 5.3 8.8 2.7-1.6c.2.4-10.6 17.4-10.3 18l1-.6c.2.3-1 12.3-.8 12.5l.9-.5c.2.4-16 7.7-15.8 8l22.1-.2c.2.4-5.6 15.8-5.4 16.1l.9-.5c.2.3 9.7 7.1 9.8 7.4.4.7-16.4 12.4-16 13.1l11.8 3.3c.2.3.2 13.1.3 13.3l.9-.5c.2.3-6.9 11.2-6.6 11.6l17.1-3.8c.2.3-4.9 14.5-4.6 14.9l.8-.5c.2.3 2.9 10.8 3.1 11l.8-.5 6.1 8.6 3.3-2c.2.3-2.1 12.4-2 12.7l.8-.5c.2.3.2 13.2.4 13.5l5.8-3.4c.1.2 3.5 9.9 3.6 10.2l.8-.5c.2.3-1.3 13.8-1.2 14.1l6.7-3.8 5.2 10.1 7.2-4.1 4.7 10.3 5.5-3.2c.2.3-3.2 13.7-3 14l.8-.5c.2.3 9.5 7 9.6 7.2l5-2.9c.3.5-8 17.7-7.7 18.2l3.1-1.8c.3.5 20.2.6 20.4 1l2.4-1.4c.2.4-7.7 17.1-7.4 17.5l9.8-5.7 5.4 8.4.9-.5c.2.3.2 11.5.3 11.8l7.5-4.3 4.9 8.8 4.9-2.8 5.8 9.1.5-.3 4.2 9 8.4-4.8c.2.3 12 5 12.2 5.3l1-.6 5.3 9.2 4.8-2.8c.2.3 14 4.6 14.2 5l1.1-.6c.2.3 7.8 6.8 7.9 7l11.3-6.5c.1.2 1.8 11.7 2 12l10.1-5.9c.2.3 10.1 5.6 10.3 5.8l1.3-.7c.2.3 13.6 5.5 13.8 5.7l6.2-3.6c.2.4 17.4 2.8 17.6 3.2l1.6-.9c.2.3 14.7 4.6 14.9 4.9l10.5-6c.3.5 21 1.2 21.2 1.6l14.6-8.4c.4.7 26-2.6 26.4-1.9s3.7-2.2 3.7-2.2l8.3-7.3 10.1 4.1 2.2-13.4 8.6 4.4 11.8-1.3-.8-9.5 16.9 5.5 8.2-9.8c-.1-.2 3.5-6.2 3.3-6.4s16.4-6.9 18.6-21.1c.3-2.2 12.7 7.4 14.5 6s-2.5-9.6-1.2-10.6 10.6 3.3 11.8.9c4-8.7 10.6-18.1 10.3-18.5l-2.1 1.2c-.4-.6 22.2-24.7 21.8-25.4l-8.7 5c-.4-.6 18.6-23.2 18.3-23.8l-1.7 1c-.3-.6 12.4-18.6 12.1-19.1l-7.9 4.6c-.3-.5 14.9-17 14.6-17.5l-1.7-2.3c-.2-.4 6.4-15.4 6.2-15.7l-1.8 1c-.2-.3 7.3-16.2 7.1-16.6l-1.2.7c-.4-.6 13.8-20.3 13.5-20.9l-3 1.7c-.2-.3 4.2-11.6 4-12l-1.8-1.5c-.2-.3-3.6-10.8-3.7-11l-1 .6c-.2-.3-.5-11.7-.6-11.9-.2-.3 3.1-13.4 2.9-13.7l-1 .6c-.2-.4 4.1-14.7 3.9-15.1l-5.8 3.4c-.2-.4 9.1-16.4 8.8-16.8l-10.6 6.1c-.2-.3 2.4-13.9 2.2-14.2l-.9.5c-.3-.5 8.4-17.4 8.2-17.8l-3.1 1.8c-.2-.3-8.5-8.4-8.6-8.7l-.9.5c-.2-.3 4.6-14.6 4.4-15l-4.6 2.7c-.2-.3 3.6-13.1 3.5-13.4l-14.7 8.5c-.3-.4 11.1-17.3 10.9-17.8l-10.3 6c-.2-.3-1.1-11.8-1.3-12.1l-.8.5c-.2-.3 2-14.2 1.8-14.5l-4.2 2.4-6.3-8.6-.8.5-4-9.3-.8.5-5.5-10.1-.8.5-8-7.7-2.4 1.4c-.2-.3-.4-11.1-.6-11.3l-.8.5c-.2-.3 1.2-12.9 1-13.2l-3.6 2.1c-.2-.3-1.8-12.3-1.9-12.6l-6.9 4c-.2-.3-10-6.4-10.1-6.7l-.9.5c-.2-.3-1.3-11.2-1.4-11.4l-3.1 1.8c-.1-.2-2.3-11-2.5-11.2l-15.6 9c-.2-.3-.8-12.9-1-13.2l-2.6 1.5c-.1-.2-.9-11.2-1.1-11.4l-15.7 9.1c-.2-.4 3.1-14.3 2.9-14.6l-13.2 7.6c-.2-.4 2.5-14.9 2.4-15.2l-2.4 1.4c-.2-.3-13.8-3.5-14-3.7l-7.7 4.4c-.2-.3-.6-12.1-.8-12.4l-13.5 7.8c-.2-.3.8-14 .6-14.2l-5.7 3.3c-.2-.3-14.5-5-14.6-5.3l-1.1.7c-.3-.5-19-2.1-19.3-2.6l-4.4 2.5-6.7-7.8-1.3.8c-.2-.4-18.2-1.5-18.4-1.9l-6.7 3.9c-.1-.3-11.1-5.8-11.2-6.1l-1.6.7c-.2-.3-13.6-4.7-13.7-5l-13.1 7.6c-.3-.5-23.5 1.7-23.9 1.1s-2.6 1.6-2.6 1.5-8.3 2-17.7 4.8c-1.2.4-5.5-6.7-6.7-6.4s-1.8 12.7-1.8 12.7-19.1 1.9-19.4 1.4-10.7 6.4-10.8 6.2l-7-8.6c.5.8-1.4 11.1-.9 12s-9 7.5-21.3 16.2c-2.3 1.6-11 1.8-11 1.8s-2.4 7.5-5.6 9.8c-19.2 13.4-41.1 15.9-40.6 16.8l3.8 10.2c.4.6-16.7 15.1-16.5 15.5s2.4 13.2 2.5 13.3-13.7 6.2-13.3 6.9l1.2 5.6c.2.4-14.1 13.5-13.8 13.9l4.8 3.1c.3.5-13.5 17.5-13.2 18l5.2.4c.3.5-13.8 19.4-13.5 19.9l12.7 11.6c.4.8-24.3-2.4-23.9-1.7l13.1 8.4c.2.3-1.7 5-1.6 5.3l1.5 5.8c.2.3-3.9 7.6-3.7 8l1.1-.6c.2.3-2.6 13.7-2.4 14.1l1-.6c.2.3-3.5 13.3-3.3 13.6l6-3.5c.2.4-4.5 14.4-4.3 14.8l1-.6c.3.4-6.9 15.6-6.7 16l20.1 1.4c.3.5-16.2 7.8-15.9 8.3l.3-.2 4.7 9.6.9-.5c.1.3 1.4 12.6 1.5 12.8l.9-.5c.2.3 1.8 11.8 2 12l.9-.5c.1.2 2.1 10.5 2.2 10.7l.9-.5c.1.2 3 11.6 3.1 11.9l.8-.5c.2.4-5.2 14.5-5 14.8l1.3-.7c.2.3 10.8 6 11 6.3l1.1-.6 4.2 9.6 6.1-3.5c.2.4-3.9 14.3-3.7 14.6l2.6-1.5 6.2 9.4.8-.5c.2.3 10.4 5.1 10.5 5.4l3.3-1.9c.1.2 1.1 10.7 1.2 10.9l.7-.4c.2.4-6.5 17-6.3 17.4l2.7-1.6c.2.3 14.2 4.6 14.4 4.9l.9-.5c.1.2 9.1 7.6 9.3 7.8l4.2-2.4c.2.3-2.6 14.7-2.3 15.1l7-4 7.5 8.5 2.2-1.3 7.3 7.3.9-.5c.1.2 1.9 11.6 2.1 11.9l5.3-3c.2.3 13.7 5 13.9 5.4l1-.6c.2.3 11.3 6.6 11.4 6.9l1-.6c.2.3 3.9 10.7 4.1 10.9l15.3-8.8c.1.2.1 11 .2 11.2l15-8.7c.2.3-3.8 14-3.6 14.3l3.9-2.3c.2.4 14.3 3.8 14.5 4.2l.4-.2c.2.3 11.3 5.4 11.4 5.6l11.9-6.8c.2.4 16.2 2.6 16.5 3.1l.5-.3c.2.4 20.6.2 21 .7l7.9-5.5c.2.3 9.7 6.4 9.9 6.7l6.8-4c.2.3 4.2-.8 9.7-2.5 1.7-.5 5 4.5 6.9 3.9s2.5-6.9 4.5-7.5 6.1 8.2 7.7 7.7.4-10.3 1.9-10.7c5.4-1.7 9.3-2.8 9.5-2.5s1.8-1.2 1.9-1.1l9.8 4.1 4.9-11.3 12.8 2.2 6.9-12 15.6.7 2.3-9.6 18.3-9c-.1-.1 2.3-4.2 2.2-4.3s5-4.8 10.6-9.4 13.1-10.7 12.9-11.1 1.6-10.4 1.6-10.4 1.5 1.5 8-3.2 13.5-9.6 13.3-9.9l-3-5.1c-.4-.7 13.1-13.7 12.9-14.2l-2.1-10.5c-.3-.5 14.9-6.3 10.1-11.6l-4.2-5.6c-.3-.4 10.9-10.7 10.6-11.1l-1.3.7c-.1-.3 1.5-12.6 1.4-12.8l-4.9-6.5c-.3-.6 17.3-11.3 16.9-12l-2 1.1c-.2-.3 5.5-15.3 5.3-15.7-.2-.4 4.9-4.4 4.6-4.8l-5.8-7.7c-.2-.3-9.7-6.6-9.8-6.8l-1.3.8c-.2-.4 9.3-16.9 9.1-17.2l-1 .6c-.2-.3 4.2-14.5 4-14.9l-3.8 2.2c-.2-.3-1.1-11.4-1.2-11.7l-.9.5c-.2-.3-.8-11.6-1-11.9l-.9.5-5.9-8.8-1.6.9c-.2-.3 3.4-13.8 3.2-14.1l-.9.5c-.1-.2-2.6-11.4-2.7-11.7l-.8.5c-.1-.3-2.7-9.9-2.8-10.1l-.8.5-5.8-8.5-7.4 4.4c-.2-.4 5.4-14.5 5.2-14.8l-.8.5-4.8-10.9-.8.5-5.5-10.7-.8.5c-.2-.3-3.3-11.4-3.5-11.7l-7.6 4.4c-.1-.2-.8-10.5-1-10.8l-.8.5-5.6-8.2-.8.5-6.6-8.5-.9.5c-.2-.3 1.4-13.9 1.2-14.2l-16.9 9.6c-.1-.2-.3-11.5-.4-11.7l-.9.5c-.2-.3-8.2-8.8-8.3-9.1l-4.8 2.8-5.8-9.9-9.5 5.5c-.2-.3-2.5-9.8-2.6-10.1l-3.3 1.9-6.1-9-1 .6c-.2-.3-2.8-11.7-3-12.1l-12.1 7c-.1-.2-10.4-6-10.5-6.2l-7.9 4.6c-.2-.3-1-11.4-1.2-11.7l-11.9 6.9c-.2-.3-15.5-3.2-15.6-3.4l-1.8 1-6.4-8.8-1.4.8c-.2-.4-18.9-2.1-19.1-2.5l-1.6.9c-.2-.4-19.1.3-19.4-.2l-9.8 5.7c-.2-.3-9.6-7-9.8-7.4l-5.6 3.2c-.2-.4-10.1 8.1-10.1 8.1l-20-3.8c-1.3 1.8-6.2 12.5-6.4 12.2s-16.5 2.1-16.6 1.9l-9.8-4c.4.7.2 7.4.7 8.2s-25.1 19.1-42.2 29.2c-8.4 5-21.6-.8-21.2-.1l7.5 16c.6 1.1-27.6 15.8-27.1 16.7l7.2 7.9c.4.7-18.3 13.4-18 13.9l3.5 6.3c.3.4-13.1 10.8-12.9 11.2l4.6 6.4c.4.6-20.1 13.8-19.7 14.4l7.1 6.7c.2.4-6.1 16-5.9 16.3l6.2-3.6c.2.4-9.1 17.6-8.8 18l5.8-3.3c.2.4-4.4 14.8-4.1 15.2l5.8-3.4c.2.4-3.7 14.2-3.5 14.5l1-.6c.2.3-1.1 12.8-1 13l1-.5c.1.2-.4 11.4-.3 11.7l.9-.5c.1.2-.6 11.8-.5 12.1l10.1-5.8c.2.4-7.6 16.8-7.3 17.3l.9-.5c.1.2 1.4 10.9 1.5 11.1l.9-.5c.1.2 1.9 10.7 2.1 11l.9-.5 5.6 10.1 4.6-2.7c.2.3-3.5 14-3.3 14.2l.8-.5c.1.3 3.9 10.7 4 11l.8-.5 4.8 11 .8-.5 5.1 10.3.8-.5 5.1 9.2.8-.5 6.3 7.9 8.1-4.7c.2.3-1.8 14.2-1.6 14.5l8.4-4.8 6.9 9.1 1.4-.8c.2.4-7.1 16.1-6.9 16.4l1.7-1c.3.4 18.3 1.8 18.5 2.2l2.4-1.4c.2.4-1.8 13.8-1.7 14.1l6.5-3.7c.1.2 7.6 7 7.8 7.2l.9-.5c.1.2 9 6.1 9.1 6.3l3.4-2c.1.3 9.8 5.4 10 5.6l6.7-3.9 7.3 9.5.5-.3c.2.3 3.3 11.2 3.4 11.5l16-9.2 7.6 8.9 1.2-.7c.2.3 14.5 3.1 14.7 3.4l1.4-.8c.2.4 16.9 1.9 17.2 2.3l1.6-.9c.2.4 20.3 1 20.6 1.5l8.7-5c.3.5 23.3-2 23.6-1.6s4.4-2.6 4.4-2.6l12.1 8.3 3.5-5.6 9.6 5.5-1.9-10.6 1.7-4.3.4-11.8 3.8 2.5 12 6 5.5-10.9 11.3.9 8.1-4.8c-.1-.2 5.9-8.6 5.8-8.7s2.5-2.8 6.3-6.4c2.2-2 8.9-2.2 11.6-4.6s1.4-7.2 4.1-9.7c7.6-6.9 13.7-9.3 13.4-9.8s1.3-7.1 1.3-7.1 17.4-19.7 16.9-20.6l-1.7-5.8c-.3-.5 4.9-7.3 4.6-7.8l-1.5.9c-.2-.4 8.7-17.2 8.4-17.7l-1.3.7c-.2-.4 7.5-16.6 7.3-16.9l-3.2 1.8c-.2-.4 5.7-16 5.4-16.4l-1.1.6c-.2-.4 3.4-15 3.2-15.3l-1 .6c-.1-.2-.3-11.1-.5-11.3l-3.3 1.9c-.2-.4 2.7-14.6 2.5-14.9l-1 .6c-.2-.3 3.8-13.4 3.6-13.8l-.9.5-7.8-7.4-1.8 1.1c-.2-.3 7.7-16.8 7.5-17.2l-9.2 5.3c-.4-.7 14.8-21.6 14.5-22.2l-17.7 3.2c-.2-.4 5.6-9 5.4-9.3l-.8.5-5.4-9.5-7 4c-.2-.3 4.6-15.9 4.4-16.2l-.8.5c-.1-.2-4.1-9.9-4.3-10.2l-.8.5-5.1-10.2-.8.5-5.1-9-.8.5-6.3-9.7-.8.5c-.1-.2-9.8-6-10-6.2h-.2c-.2-.3-3.5-9.9-3.6-10.1l-.9.5c-.1-.2-7.6-8-7.8-8.3l-.9.5c-.1-.2-7.2-6.9-7.4-7.1l-.9.5c-.1-.2-8.5-7-8.7-7.3l-.9.5c-.1-.2-10.4-7.3-10.6-7.6l-1 .6c-.2-.4-13.8-4.9-14.1-5.2l-3.6 2.1c-.2-.3-14.2-5-14.3-5.3l-.4.3c-.2-.3-10.6-6.8-10.8-7.1l-5.5 3.2c-.2-.3 2.4-13.6 2.2-13.9l-8.1 4.7c-.2-.4-15.9-2.3-16.1-2.7l-.5.3c-.2-.3-11.3-5.5-11.4-5.8l-6.4 3.7c-.4-.6-28.8 4-29.1 3.4l-2.3 1.3c-.3-.5-21.5-2.4-21.5-2.4s-2.6 9.1-5.1 9.9c-9.3 2.8-25.8 0-26-.4s-16.1 20.3-16.6 19.6l-4.9-1.2c0 .1-3 5.5-3 5.5s-5.2 2.7-11.9 5.5c0 0-3.4 10.5-6.3 11.6 0 0-18.4-1.5-18.2-1l4 15.2c.3.6-16 11.1-15.6 11.7l2 8.5c.3.5-11.1 17.8-10.9 18.2l1.5-.9c.2.4-10.1 16.9-9.9 17.3l5.7-3.3c.2.4-8.4 16.7-8.1 17.1l1.2-.7c.3.4-12.1 19.8-11.9 20.3l14.7-.2c.2.4-9.2 9-8.9 9.4l1-.6c.2.3-1.8 13.3-1.7 13.6l1-.6c.2.3-.9 11.5-.7 11.8l.9-.5c.3.4-9.1 17.6-8.8 18.1l11.9-6.9c.2.3-1.3 12.5-1.2 12.7l.9-.5c.1.2 8.6 6.6 8.7 6.8l2.6-1.5c.2.3-7.1 15.5-6.9 16l.9-.5c.2.3 2.6 10.3 2.7 10.5l.8-.5c.2.3-6.2 14.6-6 14.9l15.6-9c.2.3-1.7 13.6-1.5 13.8l.8-.5 4.9 10.3.8-.5c.2.4-2.4 14.7-2.2 15l6.2-3.6c.2.3 9.2 8.1 9.3 8.3l.8-.5c.2.3.6 13 .8 13.4l14.5-8.4c.1.3-.2 12-.1 12.2l.9-.5c.2.3 8 7.9 8.1 8.1l.9-.5c.1.2 11.1 5.4 11.2 5.7l3.4-2c.1.3 3.1 9.4 3.3 9.7l1-.6 7.2 9.6 6-3.5c.1.2 10.1 6 10.3 6.3l1.1-.6 7.2 9.3 7-4c.2.4 14.4 4.3 14.6 4.6l7.6-4.4c.2.4 15.9 3.3 16.1 3.7l6.1-3.5c.2.3 10.5 5.9 10.7 6.1l1.9-1.1c.2.4 7.9-1.1 15.6-2.6s15.4-3 15.6-2.6 7.1-7.2 7.1-7.2l15.8 3.8 5.2-11.7 24.4-9.6 10.8-4.9c-.1-.1 6.3-7.9 6.3-8s26.2-26.8 25.7-27.7l-6.1 3.5c-.4-.7 15-20.8 14.6-21.4l-1.5.9c-.2-.4 9.2-17.6 8.9-18l-1.3.8c-.2-.4 8.4-15.7 8.2-16.1l-4.4 2.5c-.1-.2-.8-11.7-1-12l-4 2.3c-.4-.8 18-13.5 17.7-14.1l-7.9-4.8c-.2-.3 2.2-14.1 2-14.4l-7.5-6.2c-.2-.4 7.2-6.8 7-7.2l-.9.5c-.3-.5 8.4-17.4 8.1-17.9l-.9.5c-.2-.3-10-5.3-10.1-5.6l-.9.5c-.2-.4 5.5-14.2 5.3-14.6l-15.6 9c-.3-.6 12.8-19.4 12.5-19.8l-4.9 2.8c-.1-.2-1.5-10.8-1.6-11.1l-14.8 8.5c-.2-.4 4-15.6 3.8-15.9l-.8.5c-.2-.3 3.7-14.5 3.4-14.8l-17.7 10.2c-.2-.3 4.3-14 4.2-14.3h-.2c-.1-.2-10.3-6.6-10.4-6.9l-5.6 3.3c-.2-.3.2-12.4.1-12.7l-.9.5c-.1-.2-8-8.2-8.2-8.5l-.9.5-7.5-8.8-9.7 5.6c-.2-.3-3.1-11.6-3.2-11.9l-1 .6c-.2-.3-11.5-6.7-11.7-7l-1 .6c-.2-.4-19.2-1.8-19.4-2.1l-2.5 1.4c-.2-.3-1.7-11-1.8-11.3l-14 8.1-6.1-8.9-1.4.8c-.2-.4-19.7-1.3-19.9-1.6l-1.6.9" stroke="#939393" stroke-linecap="round" stroke-linejoin="round" stroke-width="2"/></g></svg>