<svg enable-background="new 0 0 650 306" height="306" viewBox="0 0 650 306" width="650" xml:space="preserve" xmlns="http://www.w3.org/2000/svg" xmlns:xlink="http://www.w3.org/1999/xlink"><g transform="translate(50 61)"><path d="m-6.6 195.1 25.9 6.2 25.9-4.6 25.9 5.2 25.9 8.8 25.9-1.3 25.9-1.6 25.9-1.6 25.9-3.6 25.9-1.3 25.9-3.6 25.9 1.6 25.9-1.3 25.9-3.6 25.9 3.6 25.9 1.3 25.9-2 25.9-1.3 25.9 1 25.9-8.2 25.9 5.6 25.9 4.2 25.9-2.3 25.9-1.6v19.9h-25.9-25.9-25.9-25.9-25.9-25.9-25.9-25.8-25.9-25.9-25.9-25.9-25.9-25.9-25.9-25.9-25.9-25.9-26-25.9-25.9-25.9-25.9z" fill="#c4c4c4"/><text font-family="'Avenir-Book'" font-size="11.6052" transform="translate(375.6289 194.4961)">assault</text><path d="m-6.6 190.2 25.9 4.2 25.9-2.6 25.9 4.6 25.9 4.9 25.9 2.6 25.9-.7 25.9-1 25.9-5.6 25.9-2.9 25.9-1.3 25.9 1.3 25.9-3.3 25.9-1.3 25.9 1.6 25.9-2 25.9 1.6 25.9-6.2 25.9 2.6 25.9-8.5 25.9 9.2 25.9 2.6 25.9-1.6h25.9v6.2l-25.9 1.6-25.9 2.3-25.9-4.2-25.9-5.6-25.9 8.2-25.9-1-25.9 1.3-25.9 2-25.9-1.3-25.9-3.6-25.9 3.6-25.9 1.3-25.9-1.6-25.9 3.6-25.9 1.3-25.9 3.6-25.9 1.6-25.9 1.6-25.9 1.5-25.9-8.8-25.9-5.2-25.9 4.6-25.9-6.2z" fill="#a9a9a9"/><path d="m-6.6 149.7 25.9 20.3 25.9 5.9 25.9 9.5 25.9 7.2 25.9 3.6 25.9-8.2 25.9-.7 25.9-21.9 25.9-11.4 25.9-11.1 25.9-8.5 25.9-5.2 25.9-6.9 25.9 1.3 25.9.7 25.9-9.2 25.9-27.1 25.9-13.7 25.9-12.4 25.9 33 25.9 23.5 25.9 19 25.9 1v50.3h-25.9l-25.9 1.6-25.9-2.6-25.9-9.2-25.9 8.5-25.9-2.6-25.9 6.2-25.9-1.6-25.9 2-25.9-1.6-25.9 1.3-25.9 3.3-25.9-1.3-25.9 1.3-25.9 2.9-25.9 5.6-25.9 1-25.9.7-25.9-2.9-25.9-4.9-25.9-4.6-25.9 2.6-25.9-4.2z" fill="#d1d1d1"/><path d="m563.3 107.2-25.9-7.2-25.9-31.4-25.9-36.6-25.9 12.4-25.9 6.5-25.9 32.7-25.9 8.5-25.9 1h-25.9l-26-9.5-25.9 17-25.9 11.5-25.9 12.4-25.9 11.1-25.9 36.3-25.9 2.3-25.9 16.6-25.9-2.6-25.9-11.1-25.9-5.2-25.9-14.7-25.9-26.2v14.7 4l25.9 20.2 25.9 5.9 25.9 9.5 25.9 7.2 25.9 3.6 25.9-8.2 25.9-.7 25.9-21.9 25.9-11.4 25.9-11.1 25.9-8.5 25.9-5.2 26-6.9 25.9 1.3 25.9.7 25.9-9.2 25.9-27.1 25.9-13.8 25.9-12.4 25.9 33 25.9 23.6 25.9 18.9 25.9 1v-3.9-23.9z" fill="#b7b7b7"/><path d="m-6.6 96.7 25.9 44.1 25.9 18.3 25.9 5.6 25.9 18 25.9 2.9 25.9-19.9 25.9-7.5 25.9-44.5 25.9-11.4 25.9-15.4 25.9-6.9 25.9-29.1 25.9 15 25.9-2.6 25.9-3.3 25.9-14.7 25.9-27.1 25.9 5.9 25.9-22.9 25.9 47.1 25.9 25.8 25.9 6.2 25.9 4.6v25.5l-25.9-3.3-25.9-7.2-25.9-31.4-25.8-36.5-25.9 12.4-25.9 6.5-25.9 32.7-25.9 8.5-25.9 1h-25.9l-25.9-9.5-25.9 17-25.9 11.4-25.9 12.4-25.9 11.1-25.9 36.3-25.9 2.3-25.9 16.7-26-2.6-25.9-11.1-25.9-5.2-25.9-14.7-25.9-26.2z" fill="#777"/><path d="m-6.6 89.2 25.9 45.8 25.9 19 25.9 7.8 25.9 18.6 25.9 3.9 25.9-20.9 25.9-9.5 25.9-45.4 25.9-14.7 25.9-15.7 25.9-9.5 25.9-29.7 25.9 18.3 25.9-1.3 25.9-5.2 25.9-14.1 25.9-27.5 25.9 6.2 25.9-23.5 25.9 48.4 25.9 29.7 25.9 5.2 25.9 2v7.8l-25.9-4.6-25.9-6.2-25.9-25.8-25.8-47.1-25.9 22.9-25.9-5.9-25.9 27.1-25.9 14.8-25.9 3.3-25.9 2.6-25.9-15-26 29-25.9 6.9-25.9 15.4-25.9 11.4-25.9 44.5-25.9 7.5-25.9 19.9-25.9-2.9-25.9-18-25.9-5.6-25.9-18.3-25.9-44.1z" fill="#c9c9c9"/><path d="m-6.6 81 25.9 43.5 25.9 21.6 25.9 8.8 25.9 19.6 25.9 4.6 25.9-20.9 25.9-9.5 25.9-46.4 25.9-14.4 25.9-17 25.9-9.2 25.9-36.3 25.9 18.3 25.9 1.3 25.9-6.5 25.9-14.1 25.9-31.4 25.9-.7 25.9-19.3 25.9 50.3 25.9 30.1 25.9 2 25.9 5.9v15.7l-25.9-2-25.9-5.2-25.9-29.7-25.8-48.3-25.9 23.5-25.9-6.2-25.9 27.5-25.9 14-25.9 5.2-25.9 1.3-25.9-18.3-25.9 29.7-25.9 9.5-25.9 15.7-25.9 14.7-25.9 45.4-25.9 9.5-25.9 20.9-26-3.8-25.9-18.6-25.9-7.8-25.9-19-25.9-45.8z" fill="#979797"/><path d="m-6.6 75.1 25.9 46.1 25.9 19.9 25.9 11.4 25.9 20 25.9 3.9 25.9-22.9 25.9-11.8 25.9-45.4 25.9-16 25.9-18.3 25.9-5.9 25.9-41.5 25.9 22.6 25.9 1 26-9.2 25.9-17.7 25.9-34 25.9-2.3 25.9-13 25.9 45.8 25.9 31.4 25.9.3 25.9 9.2v12.7l-25.9-5.9-25.9-2-25.9-30.1-25.9-50.3-25.9 19.3-25.9.7-25.9 31.4-25.9 14-25.9 6.5-25.9-1.3-25.9-18.3-25.9 36.3-25.9 9.2-25.9 17-25.9 14.4-25.9 46.4-25.9 9.5-25.9 20.9-26-4.6-25.9-19.6-25.9-8.8-25.9-21.6-25.9-43.5z" fill="#bdbdbd"/><path d="m-6.6 69.9 25.9 47.4 25.9 20.6 25.9 11.4 25.9 22.6 25.9 3.3 25.9-24.8 25.9-14.1 25.9-44.8 25.9-16 25.9-19 25.9-5.2 25.9-46.4 26 25.1 25.9.3 25.9-10.7 25.9-18.3 25.9-33.7 25.9.3 25.9-11.8 25.9 44.8 25.9 35 25.9-2.9 25.9 8.5v7.2l-25.9-9.2-25.9-.3-25.9-31.4-25.9-45.8-25.9 13.1-25.9 2.3-25.9 34-25.9 17.6-25.9 9.2-25.9-1-25.9-22.6-25.9 41.5-26 5.9-25.9 18.3-25.9 16-25.9 45.4-25.9 11.8-25.9 22.9-25.9-3.9-25.9-19.9-25.9-11.4-25.9-19.9-25.9-46.2z" fill="#d8d8d8"/><g transform="translate(0 338)"><path d="m-6.6-123.3v4.6" fill="none"/><text fill="#a3a3a3" font-family="'RobotoMono-Regular'" font-size="12" transform="translate(-9.1499 -102.7441)">0</text><path d="m19.378261-123.3v4.6" fill="none"/><g transform="translate(66.956522)"><path d="m-21.7-123.3v4.6" fill="none"/><text fill="#a3a3a3" font-family="'RobotoMono-Regular'" font-size="12" transform="translate(-24.3032 -102.7441)">1</text></g><path d="m71.134783-123.3v4.6" fill="none"/><g transform="translate(133.913043)"><path d="m-36.9-123.3v4.6" fill="none"/><text fill="#a3a3a3" font-family="'RobotoMono-Regular'" font-size="12" transform="translate(-39.457 -102.7441)">2</text></g><path d="m122.891304-123.3v4.6" fill="none"/><g transform="translate(200.869565)"><path d="m-52-123.3v4.6" fill="none"/><text fill="#a3a3a3" font-family="'RobotoMono-Regular'" font-size="12" transform="translate(-54.6108 -102.7441)">3</text></g><path d="m174.747826-123.3v4.6" fill="none"/><g transform="translate(267.826087)"><path id="a" d="m-67.2-123.3v4.6" fill="none"/><text>   <textPath startOffset="98.4375%" xlink:href="#a"/> </text><text fill="#a3a3a3" font-family="'RobotoMono-Regular'" font-size="12" transform="translate(-69.7646 -102.7441)">4</text></g><path d="m226.504348-123.3v4.6" fill="none"/><g transform="translate(334.782609)"><path d="m-82.3-123.3v4.6" fill="none"/><text fill="#a3a3a3" font-family="'RobotoMono-Regular'" font-size="12" transform="translate(-87.4999 -102.7441)">5</text></g><path d="m278.36087-123.3v4.6" fill="none"/><g transform="translate(401.73913)"><path d="m-97.5-123.3v4.6" fill="none"/><text fill="#a3a3a3" font-family="'RobotoMono-Regular'" font-size="12" transform="translate(-102.6537 -102.7441)">6</text></g><path d="m330.117391-123.3v4.6" fill="none"/><g transform="translate(468.695652)"><path d="m-112.6-123.3v4.6" fill="none"/><text fill="#a3a3a3" font-family="'RobotoMono-Regular'" font-size="12" transform="translate(-117.8075 -102.7441)">7</text></g><path d="m381.973913-123.3v4.6" fill="none"/><g transform="translate(535.652174)"><path d="m-127.8-123.3v4.6" fill="none"/><text fill="#a3a3a3" font-family="'RobotoMono-Regular'" font-size="12" transform="translate(-132.9608 -102.7441)">8</text></g><path d="m433.730435-123.3v4.6" fill="none"/><g transform="translate(602.608696)"><path d="m-143-123.3v4.6" fill="none"/><text fill="#a3a3a3" font-family="'RobotoMono-Regular'" font-size="12" transform="translate(-148.1146 -102.7441)">9</text></g><path d="m485.586957-123.3v4.6" fill="none"/><g transform="translate(669.565217)"><path d="m-158.1-123.3v4.6" fill="none"/><text fill="#a3a3a3" font-family="'RobotoMono-Regular'" font-size="12" transform="translate(-163.2684 -102.7441)">10</text></g><path d="m537.343478-123.3v4.6" fill="none"/><g transform="translate(736.521739)"><path d="m-173.3-123.3v4.6" fill="none"/><text fill="#a3a3a3" font-family="'RobotoMono-Regular'" font-size="12" transform="translate(-178.4221 -102.7441)">11</text></g><path d="m589.2-123.3v4.6" fill="none"/><path d="m-6.6-119.8v-1.7h595.7v1.7" fill="#7f7f7f"/></g><g transform="translate(0 338)"><path d="m-6.6-123.3h-4.6" fill="none"/><text fill="#8e8e8e" font-family="'RobotoMono-Regular'" font-size="12" transform="translate(-25.8955 -120.3281)">0</text></g><g transform="translate(0 253.5)"><path d="m-6.6-104.2h-4.6" fill="none"/><text fill="#8e8e8e" font-family="'RobotoMono-Regular'" font-size="12" transform="translate(-40.2979 -101.2031)">200</text></g><g transform="translate(0 169)"><path d="m-6.6-85.1h-4.6" fill="none"/><text fill="#8e8e8e" font-family="'RobotoMono-Regular'" font-size="12" transform="translate(-40.2979 -82.0791)">400</text></g><g transform="translate(0 84.5)"><path d="m-6.6-65.9h-4.6" fill="none"/><text fill="#8e8e8e" font-family="'RobotoMono-Regular'" font-size="12" transform="translate(-40.2979 -62.9551)">600</text></g><path d="m-6.6-46.8h-4.6" fill="none"/><text fill="#8e8e8e" font-family="'RobotoMono-Regular'" font-size="12" transform="translate(-40.2979 -43.8311)">800</text><path d="m-10.2-46.8h1.6v261.5h-1.6" fill="#7f7f7f"/></g></svg>