<?xml version="1.0" encoding="utf-8"?>
<!-- Generator: Adobe Illustrator 24.0.1, SVG Export Plug-In . SVG Version: 6.00 Build 0)  -->
<svg version="1.1" id="Layer_1" xmlns="http://www.w3.org/2000/svg" xmlns:xlink="http://www.w3.org/1999/xlink" x="0px" y="0px"
	 viewBox="0 0 256 256" style="enable-background:new 0 0 256 256;" xml:space="preserve">
<g>
	<path d="M127.7,30.4L127.7,30.4C57.3,30.4,0,87.7,0,158.1v13.5h47.1v-16.1h-21c1.3-52,41.8-94.7,93.6-98.8V76h16.1V56.7
		c51.8,4.2,92.2,46.9,93.6,98.8h-21v16.1h47.1v-13.5C255.3,87.7,198.1,30.5,127.7,30.4z"/>
	<path d="M110.4,178.8l-0.1,0.2c-3.4,9.6,1.7,20.1,11.2,23.5c2,0.7,4.1,1.1,6.2,1.1c4.8,0,9.6-1.9,13.1-5.3l0.4-0.4l0.1-0.2
		c1-1.2,1.9-2.4,2.6-3.8l58.5-85.4l-84.7,61.2C114.4,171.8,111.8,175.1,110.4,178.8z"/>
</g>
</svg>
