<?xml version="1.0" encoding="utf-8"?>
<!-- Generator: Adobe Illustrator 22.1.0, SVG Export Plug-In . SVG Version: 6.00 Build 0)  -->
<svg version="1.1" id="Layer_1" xmlns="http://www.w3.org/2000/svg" xmlns:xlink="http://www.w3.org/1999/xlink" x="0px" y="0px"
	 viewBox="0 0 1200 1113" style="enable-background:new 0 0 1200 1113;" xml:space="preserve">
<style type="text/css">
	.st0{fill:none;stroke:#C2C2C4;stroke-width:13;stroke-miterlimit:10;}
	.st1{fill:#514361;}
	.st2{font-family:'RobotoMono-Regular';}
	.st3{font-size:40px;}
	.st4{fill:none;stroke:#C6C6C6;stroke-width:6;stroke-miterlimit:10;}
	.st5{fill:#C6C6C6;}
	.st6{fill:#BCBCBC;}
	.st7{font-size:30px;}
	.st8{fill:none;stroke:#C6C6C6;stroke-width:4;stroke-miterlimit:10;}
	.st9{fill:none;stroke:#DBDBDB;stroke-width:4;stroke-miterlimit:10;stroke-dasharray:24.4687,18.3515;}
	.st10{fill:#909090;}
</style>
<path class="st0" d="M94,924l176.3-346.1l169.9,170L608.8,241c0.4-1.3,170.8,167.1,170.8,167.1L949,293.6"/>
<text transform="matrix(1 0 0 1 862.9999 1049.0986)" class="st1 st2 st3">interval axis</text>
<text transform="matrix(1 0 0 1 2.9999 1043.0986)" class="st1 st2 st3">baseline</text>
<text transform="matrix(1 0 0 1 105.957 42.187)" class="st1 st2 st3">value axis</text>
<path class="st4" d="M91,63.7V927h1046.3"/>
<path class="st5" d="M76,68.1l15-25.9l15,25.9H76z"/>
<path class="st5" d="M1132.9,942l25.9-15l-25.9-15V942z"/>
<text transform="matrix(1 0 0 1 258.7148 986.7393)" class="st6 st2 st7">1</text>
<text transform="matrix(1 0 0 1 58.7148 986.7393)" class="st6 st2 st7">0</text>
<text transform="matrix(1 0 0 1 41.125 760.499)" class="st6 st2 st7">1</text>
<text transform="matrix(1 0 0 1 424.3359 986.7393)" class="st6 st2 st7">2</text>
<text transform="matrix(1 0 0 1 600.5664 986.7393)" class="st6 st2 st7">3</text>
<text transform="matrix(1 0 0 1 937.5742 986.7393)" class="st6 st2 st7">5</text>
<text transform="matrix(1 0 0 1 761.8984 986.7393)" class="st6 st2 st7">4</text>
<g>
	<path class="st4" d="M67,578h23"/>
	<path class="st4" d="M67,408h23"/>
	<path class="st4" d="M67,238h23"/>
	<path class="st4" d="M67,748h23"/>
	<path class="st4" d="M270,947v-20"/>
	<path class="st4" d="M440,949v-21"/>
	<path class="st4" d="M610,949v-21"/>
	<path class="st4" d="M780,947v-20"/>
	<path class="st4" d="M949,947v-20"/>
</g>
<text transform="matrix(1 0 0 1 35.582 591.2803)" class="st6 st2 st7">2</text>
<text transform="matrix(1 0 0 1 489.8805 182.333)" class="st1 st2 st3">data point</text>
<text transform="matrix(0.83 -0.5578 0.5578 0.83 809.7669 460.5989)" class="st1 st2 st3">data line</text>
<text transform="matrix(1 0 0 1 34.6367 422.1631)" class="st6 st2 st7">3</text>
<text transform="matrix(1 0 0 1 34 248.9795)" class="st6 st2 st7">4</text>
<path class="st8" d="M609.8,928v-12.9"/>
<path class="st9" d="M609.8,895.4V260.9"/>
<path class="st8" d="M608.8,251.1v-12.9"/>
<circle class="st10" cx="779.6" cy="408.1" r="15.9"/>
<circle class="st10" cx="949" cy="293.6" r="15.9"/>
<circle class="st10" cx="608.9" cy="239.2" r="15.9"/>
<circle class="st10" cx="439.9" cy="747.8" r="15.9"/>
<circle class="st10" cx="270.1" cy="577.9" r="15.9"/>
<path class="st8" d="M582.2,238h-9.1"/>
<path class="st9" d="M559.2,238H115.3"/>
<path class="st8" d="M108.3,238h-9"/>
</svg>
