<?xml version="1.0" encoding="utf-8"?>
<!-- Generator: Adobe Illustrator 22.1.0, SVG Export Plug-In . SVG Version: 6.00 Build 0)  -->
<svg version="1.1" id="Layer_1" xmlns="http://www.w3.org/2000/svg" xmlns:xlink="http://www.w3.org/1999/xlink" x="0px" y="0px"
	 viewBox="0 0 774 516" style="enable-background:new 0 0 774 516;" xml:space="preserve">
<style type="text/css">
	.st0{fill:#A5A5B9;}
	.st1{font-family:'RobotoMono-Regular';}
	.st2{font-size:16px;}
	.st3{fill:none;stroke:#A8A8A8;stroke-miterlimit:10;}
	.st4{fill:#514361;}
	.st5{font-size:28px;}
	.st6{fill:none;}
	.st7{font-family:'Roboto-Italic';}
	.st8{font-size:18px;}
	.st9{fill:#DBDBDB;}
	.st10{fill:#CCCCCC;}
	.st11{fill:#B2B2B2;}
	.st12{fill:#4C4C4C;}
	.st13{fill:#666666;}
	.st14{opacity:0.8;fill:none;stroke:#919191;stroke-width:1.5;stroke-linecap:round;stroke-miterlimit:10;stroke-dasharray:0,3;}
	.st15{opacity:0.8;fill:none;stroke:#7C7C7C;stroke-width:1.5;stroke-linecap:round;stroke-miterlimit:10;stroke-dasharray:0,3;}
	.st16{font-family:'MyriadPro-Regular';}
</style>
<g>
	<g>
		<text transform="matrix(1 0 0 1 125.6396 265.4918)" class="st0 st1 st2">0</text>
		<text transform="matrix(1 0 0 1 248.1524 265.4918)" class="st0 st1 st2">20</text>
		<text transform="matrix(1 0 0 1 368.5057 265.4918)" class="st0 st1 st2">40</text>
		<text transform="matrix(1 0 0 1 488.8592 265.4918)" class="st0 st1 st2">60</text>
		<text transform="matrix(1 0 0 1 609.212 265.4918)" class="st0 st1 st2">80</text>
		<text transform="matrix(1 0 0 1 722.3304 265.4918)" class="st0 st1 st2">100</text>
	</g>
	<g>
		<g>
			<line class="st3" x1="141.2" y1="242.9" x2="141.2" y2="227.9"/>
			<line class="st3" x1="261.6" y1="242.9" x2="261.6" y2="227.9"/>
			<line class="st3" x1="381.9" y1="242.9" x2="381.9" y2="227.9"/>
			<line class="st3" x1="502.3" y1="242.9" x2="502.3" y2="227.9"/>
			<line class="st3" x1="622.7" y1="242.9" x2="622.7" y2="227.9"/>
			<line class="st3" x1="743" y1="242.9" x2="743" y2="227.9"/>
		</g>
	</g>
</g>
<g>
	<text transform="matrix(1 0 0 1 137.9297 70.5381)" class="st4 st1 st5">QUALITATIVE RANGES</text>
</g>
<g>
	<text transform="matrix(1 0 0 1 547.644 350.5384)" class="st4 st1 st5">TARGET MARKER</text>
</g>
<g>
	<text transform="matrix(1 0 0 1 320.1581 350.2787)" class="st4 st1 st5">PROGRESS BAR</text>
</g>
<g>
	<rect x="141.2" y="85.9" class="st6" width="427.1" height="48.3"/>
	<text transform="matrix(1 0 0 1 141.2316 99.4377)" class="st4 st7 st8">from “bad”  and “satisfactory”  to “good” or “excellent”</text>
</g>
<g>
	<rect x="553.2" y="365.4" class="st6" width="213.5" height="67.1"/>
	<text transform="matrix(1 0 0 1 553.2311 378.8788)"><tspan x="0" y="0" class="st4 st7 st8">the value against which the </tspan><tspan x="0" y="21.6" class="st4 st7 st8">progress bar is compared </tspan></text>
</g>
<g>
	<rect x="325.3" y="358.1" class="st6" width="171.8" height="67.1"/>
	<text transform="matrix(1 0 0 1 325.2706 371.6196)"><tspan x="0" y="0" class="st4 st7 st8">value reflecting </tspan><tspan x="0" y="21.6" class="st4 st7 st8">actual performance </tspan></text>
</g>
<g>
	<text transform="matrix(1 0 0 1 83 350.5382)"><tspan x="0" y="0" class="st4 st1 st5">QUANTITATIVE</tspan><tspan x="0" y="33.6" class="st4 st1 st5">SCALE</tspan></text>
</g>
<rect x="141.2" y="159.1" class="st9" width="601.8" height="69.7"/>
<rect x="141.2" y="158.2" class="st10" width="481.5" height="69.7"/>
<rect x="141.2" y="158.2" class="st11" width="361.1" height="69.7"/>
<rect x="651.3" y="171.5" class="st12" width="10.9" height="45"/>
<rect x="141.2" y="184.5" class="st13" width="553.5" height="19"/>
<polyline class="st14" points="141.2,145.9 141.2,120.9 743,120.9 743,145.9 "/>
<line class="st14" x1="656.3" y1="216.5" x2="656.3" y2="318.1"/>
<line class="st15" x1="422.1" y1="200.5" x2="422.1" y2="318.1"/>
<line class="st14" x1="190.7" y1="267.3" x2="190.7" y2="321.6"/>
<g>
	<text transform="matrix(1 0 0 1 0 448.6424)"><tspan x="0" y="0" class="st4 st1 st5">TEXT</tspan><tspan x="0" y="33.6" class="st4 st1 st5">LABEL</tspan></text>
</g>
<line class="st14" x1="37.2" y1="224.3" x2="37.2" y2="408.9"/>
<line class="st14" x1="164.6" y1="267.3" x2="218.9" y2="267.3"/>
<text transform="matrix(1 0 0 1 73.7825 189.0876)"><tspan x="0" y="0" class="st11 st16 st8">Profit</tspan><tspan x="-59.8" y="21.6" class="st11 st16 st8">in mil. of USD</tspan></text>
</svg>
