<?xml version="1.0" encoding="utf-8"?>
<!-- Generator: Adobe Illustrator 19.2.0, SVG Export Plug-In . SVG Version: 6.00 Build 0)  -->
<svg version="1.1" id="Layer_1" xmlns="http://www.w3.org/2000/svg" xmlns:xlink="http://www.w3.org/1999/xlink" x="0px" y="0px"
	 width="1200px" height="932px" viewBox="0 0 1200 932" enable-background="new 0 0 1200 932" xml:space="preserve">
<g>
	<g>
		<text transform="matrix(1 0 0 1 1042.4111 428.6143)" fill="#7F7F7F" font-family="'Roboto-Regular'" font-size="65px">scale</text>
	</g>
	<g>
		<text transform="matrix(1 0 0 1 271.001 440.6357)" fill="#37246D" font-family="'Roboto-Medium'" font-size="46.6116px">1</text>
	</g>
	<g>
		<text transform="matrix(1 0 0 1 437.415 441.4131)" fill="#37246D" font-family="'Roboto-Medium'" font-size="46.6116px">2</text>
	</g>
	<g>
		<text transform="matrix(1 0 0 1 603.9502 441.4092)" fill="#37246D" font-family="'Roboto-Medium'" font-size="46.6116px">3</text>
	</g>
	<g>
		<text transform="matrix(1 0 0 1 939.6963 440.7451)" fill="#37246D" font-family="'Roboto-Medium'" font-size="46.6116px">5</text>
	</g>
	<g>
		<text transform="matrix(1 0 0 1 771.6416 440.7451)" fill="#37246D" font-family="'Roboto-Medium'" font-size="46.6116px">4</text>
	</g>
	<line fill="none" stroke="#464A90" stroke-width="4" stroke-miterlimit="10" x1="284" y1="389" x2="284" y2="324"/>
	<line fill="none" stroke="#464A90" stroke-width="4" stroke-miterlimit="10" x1="449" y1="389" x2="449" y2="324"/>
	<line fill="none" stroke="#464A90" stroke-width="4" stroke-miterlimit="10" x1="617" y1="389" x2="617" y2="314"/>
	<line fill="none" stroke="#464A90" stroke-width="4" stroke-miterlimit="10" x1="785" y1="389" x2="785" y2="324"/>
	<line fill="none" stroke="#464A90" stroke-width="4" stroke-miterlimit="10" x1="953" y1="389" x2="953" y2="324"/>
	<rect x="281" y="240" fill="#C8CDEB" width="917" height="112"/>
	<rect x="2" y="240" fill="#AFAFAF" width="224" height="112"/>
	<rect x="282" y="240" fill="#AFB8E3" width="671" height="112"/>
	<rect x="282" y="240" fill="#939FD5" width="503" height="112"/>
	<rect x="282" y="277" fill="#464A90" width="783" height="37"/>
	<rect x="832" y="277" transform="matrix(6.123234e-17 -1 1 6.123234e-17 583 1174)" fill="#464A90" width="93" height="37"/>
	<g>
		<text transform="matrix(1 0 0 1 56.7666 704.2686)"><tspan x="0" y="0" fill="#7F7F7F" font-family="'Roboto-Regular'" font-size="65px">text</tspan><tspan x="0" y="78" fill="#7F7F7F" font-family="'Roboto-Regular'" font-size="65px">label</tspan></text>
	</g>
	<g>
		<text transform="matrix(1 0 0 1 742.7197 704.2686)"><tspan x="0" y="0" fill="#7F7F7F" font-family="'Roboto-Regular'" font-size="65px">comparative</tspan><tspan x="0" y="78" fill="#7F7F7F" font-family="'Roboto-Regular'" font-size="65px">measure</tspan></text>
	</g>
	<g>
		<text transform="matrix(1 0 0 1 280.2158 704.2686)"><tspan x="0" y="0" fill="#7F7F7F" font-family="'Roboto-Regular'" font-size="65px">feature</tspan><tspan x="0" y="78" fill="#7F7F7F" font-family="'Roboto-Regular'" font-size="65px">measure</tspan></text>
	</g>
	<g>
		<text transform="matrix(1 0 0 1 280.2158 864.4346)"><tspan x="0" y="0" fill="#464A90" font-family="'Roboto-Regular'" font-size="46.6116px">bar length =</tspan><tspan x="0" y="55.934" fill="#464A90" font-family="'Roboto-Regular'" font-size="46.6116px">performance score</tspan></text>
	</g>
	<g>
		<text transform="matrix(1 0 0 1 742.7197 864.4346)"><tspan x="0" y="0" fill="#464A90" font-family="'Roboto-Regular'" font-size="46.6116px">target marker for</tspan><tspan x="0" y="55.934" fill="#464A90" font-family="'Roboto-Regular'" font-size="46.6116px">comparative measure</tspan></text>
	</g>
	<g>
		<text transform="matrix(1 0 0 1 96.7744 51.8389)" fill="#7F7F7F" font-family="'Roboto-Regular'" font-size="65px">each shade is a qualitative range</text>
	</g>
	<line fill="none" stroke="#AFAFAF" stroke-width="8" stroke-miterlimit="10" x1="114" y1="633" x2="114" y2="377"/>
	<line fill="none" stroke="#AFAFAF" stroke-width="8" stroke-miterlimit="10" x1="878" y1="636" x2="878" y2="324"/>
	<line fill="none" stroke="#AFAFAF" stroke-width="8" stroke-miterlimit="10" x1="395" y1="636" x2="395" y2="324"/>
	<line fill="none" stroke="#FFFFFF" stroke-width="8" stroke-miterlimit="10" x1="395" y1="352" x2="395" y2="296"/>
	<line fill="none" stroke="#FFFFFF" stroke-width="8" stroke-miterlimit="10" x1="878" y1="352" x2="878" y2="305"/>
	<polyline fill="none" stroke="#AFAFAF" stroke-width="8" stroke-miterlimit="10" points="720,193 720,86 1056,86 1056,193 	"/>
	<line fill="none" stroke="#AFAFAF" stroke-width="8" stroke-miterlimit="10" x1="897" y1="196" x2="897" y2="88"/>
	<line fill="none" stroke="#AFAFAF" stroke-width="8" stroke-miterlimit="10" x1="720" y1="86" x2="100" y2="86"/>
	<circle fill="#FFFFFF" cx="395.464" cy="295.77" r="10.502"/>
	<circle fill="#FFFFFF" cx="878.102" cy="295.187" r="10.502"/>
</g>
</svg>
