<?xml version="1.0" encoding="utf-8"?>
<!-- Generator: Adobe Illustrator 22.1.0, SVG Export Plug-In . SVG Version: 6.00 Build 0)  -->
<svg version="1.1" id="Layer_1" xmlns="http://www.w3.org/2000/svg" xmlns:xlink="http://www.w3.org/1999/xlink" x="0px" y="0px"
	 viewBox="0 0 789 516" style="enable-background:new 0 0 789 516;" xml:space="preserve">
<style type="text/css">
	.st0{fill:#A5A5B9;}
	.st1{font-family:'RobotoMono-Regular';}
	.st2{font-size:16px;}
	.st3{fill:none;stroke:#A8A8A8;stroke-miterlimit:10;}
	.st4{fill:#514361;}
	.st5{font-size:28px;}
	.st6{font-family:'Roboto-Italic';}
	.st7{font-size:18px;}
	.st8{fill:none;}
	.st9{fill:#DBDBDB;}
	.st10{fill:#CCCCCC;}
	.st11{fill:#B2B2B2;}
	.st12{fill:#4C4C4C;}
	.st13{fill:#666666;}
	.st14{opacity:0.8;enable-background:new    ;}
	.st15{fill:none;stroke:#919191;stroke-width:1.5;stroke-linecap:round;stroke-miterlimit:10;}
	.st16{fill:none;stroke:#919191;stroke-width:1.5;stroke-linecap:round;stroke-miterlimit:10;stroke-dasharray:0,2.9167;}
	.st17{fill:none;stroke:#919191;stroke-width:1.5;stroke-linecap:round;stroke-miterlimit:10;stroke-dasharray:0,2.994;}
	
		.st18{opacity:0.8;fill:none;stroke:#919191;stroke-width:1.5;stroke-linecap:round;stroke-miterlimit:10;stroke-dasharray:0,3;enable-background:new    ;}
	
		.st19{opacity:0.8;fill:none;stroke:#7C7C7C;stroke-width:1.5;stroke-linecap:round;stroke-miterlimit:10;stroke-dasharray:0,3;enable-background:new    ;}
	.st20{font-family:'ArialMT';}
</style>
<g>
	<g>
		<text transform="matrix(1 0 0 1 149.6396 265.4918)" class="st0 st1 st2">0</text>
		<text transform="matrix(1 0 0 1 272.1524 265.4918)" class="st0 st1 st2">20</text>
		<text transform="matrix(1 0 0 1 392.5057 265.4918)" class="st0 st1 st2">40</text>
		<text transform="matrix(1 0 0 1 512.8592 265.4918)" class="st0 st1 st2">60</text>
		<text transform="matrix(1 0 0 1 633.212 265.4918)" class="st0 st1 st2">80</text>
		<text transform="matrix(1 0 0 1 746.3304 265.4918)" class="st0 st1 st2">100</text>
	</g>
	<g>
		<g>
			<line class="st3" x1="165.2" y1="242.9" x2="165.2" y2="227.9"/>
			<line class="st3" x1="285.6" y1="242.9" x2="285.6" y2="227.9"/>
			<line class="st3" x1="405.9" y1="242.9" x2="405.9" y2="227.9"/>
			<line class="st3" x1="526.3" y1="242.9" x2="526.3" y2="227.9"/>
			<line class="st3" x1="646.7" y1="242.9" x2="646.7" y2="227.9"/>
			<line class="st3" x1="767" y1="242.9" x2="767" y2="227.9"/>
		</g>
	</g>
</g>
<g>
	<text transform="matrix(1 0 0 1 314.678 61.5381)" class="st4 st1 st5">qualitative ranges</text>
</g>
<g>
	<text transform="matrix(1 0 0 1 571.4262 442.6429)" class="st4 st1 st5">target marker</text>
</g>
<g>
	<text transform="matrix(1 0 0 1 346.3417 350.2787)" class="st4 st1 st5">progress bar</text>
</g>
<g>
	<text transform="matrix(1 0 0 1 254.991 90.7451)" class="st4 st6 st7">from “bad”  and “satisfactory”  to “good” or “excellent”</text>
</g>
<g>
	<rect x="349.3" y="358.1" class="st8" width="171.8" height="67.1"/>
	<text transform="matrix(1 0 0 1 348.2706 380.6196)" class="st4 st6 st7">reflects </text>
	<text transform="matrix(1 0 0 1 348.2706 406.2196)" class="st4 st6 st7">actual performance </text>
</g>
<g>
	<rect x="28.3" y="442.6" class="st8" width="171.8" height="67.1"/>
	<text transform="matrix(1 0 0 1 5.1212 482.1625)" class="st4 st6 st7">showing units</text>
</g>
<g>
	<text transform="matrix(1 0 0 1 171.9932 358.0995)" class="st4 st1 st5">scale</text>
</g>
<rect x="165.2" y="159.1" class="st9" width="601.8" height="69.7"/>
<rect x="165.2" y="158.2" class="st10" width="481.5" height="69.7"/>
<rect x="165.2" y="158.2" class="st11" width="361.1" height="69.7"/>
<rect x="675.1" y="171.5" class="st12" width="10.9" height="45"/>
<rect x="165.2" y="184.5" class="st13" width="435.6" height="19"/>
<g class="st14">
	<g>
		<line class="st15" x1="165" y1="145.9" x2="165" y2="145.9"/>
		<line class="st16" x1="165" y1="143" x2="165" y2="112.4"/>
		<line class="st15" x1="165" y1="110.9" x2="165" y2="110.9"/>
		<line class="st17" x1="168" y1="110.9" x2="765.3" y2="110.9"/>
		<line class="st15" x1="766.8" y1="110.9" x2="766.8" y2="110.9"/>
		<line class="st16" x1="766.8" y1="113.8" x2="766.8" y2="144.4"/>
		<line class="st15" x1="766.8" y1="145.9" x2="766.8" y2="145.9"/>
	</g>
</g>
<line class="st18" x1="680.5" y1="216.5" x2="680.5" y2="414"/>
<line class="st19" x1="446.1" y1="200.5" x2="446.1" y2="318.1"/>
<line class="st18" x1="214.7" y1="267.3" x2="214.7" y2="321.6"/>
<g>
	<text transform="matrix(1 0 0 1 17.6284 450.6424)" class="st4 st1 st5">label</text>
</g>
<line class="st18" x1="61.2" y1="224.3" x2="61.2" y2="414"/>
<line class="st18" x1="188.6" y1="267.3" x2="242.9" y2="267.3"/>
<text transform="matrix(1 0 0 1 97.7825 189.0876)" class="st11 st20 st7">Profit</text>
<text transform="matrix(1 0 0 1 37.9825 210.6876)" class="st11 st20 st7">in mil. of USD</text>
</svg>
