<?xml version="1.0" encoding="utf-8"?>
<!-- Generator: Adobe Illustrator 22.1.0, SVG Export Plug-In . SVG Version: 6.00 Build 0)  -->
<svg version="1.1" xmlns="http://www.w3.org/2000/svg" xmlns:xlink="http://www.w3.org/1999/xlink" x="0px" y="0px"
	 viewBox="0 0 1268 418" enable-background="new 0 0 1268 418" xml:space="preserve">
<g id="Layer_1">
	<g>
		<g>
			<line fill="none" stroke="#C4C4C4" stroke-miterlimit="10" x1="6" y1="69" x2="6" y2="59.8"/>
			<line fill="none" stroke="#C4C4C4" stroke-miterlimit="10" x1="240.3" y1="69" x2="240.3" y2="59.8"/>
			<line fill="none" stroke="#C4C4C4" stroke-miterlimit="10" x1="474.7" y1="69" x2="474.7" y2="59.8"/>
			<line fill="none" stroke="#C4C4C4" stroke-miterlimit="10" x1="709" y1="69" x2="709" y2="59.8"/>
			<line fill="none" stroke="#C4C4C4" stroke-miterlimit="10" x1="943.4" y1="69" x2="943.4" y2="59.8"/>
			<line fill="none" stroke="#C4C4C4" stroke-miterlimit="10" x1="1177.7" y1="69" x2="1177.7" y2="59.8"/>
		</g>
		<rect x="5.5" y="2" fill="#F7D2AD" width="1260" height="57.8"/>
		<rect x="5.5" y="2" opacity="0.8" fill="#D7C8C5" width="1172.2" height="57.8"/>
		<rect x="5.5" y="2" opacity="0.6" fill="#AEA5BF" width="803.7" height="57.8"/>
		<rect x="5.5" y="2" opacity="0.7" fill="#968BAF" width="434.3" height="57.8"/>
		<rect x="5.5" y="23.9" fill="#57597E" width="1172.2" height="14"/>
		<g>
			<rect x="1044" y="11.1" fill="#57597E" width="5" height="39.5"/>
		</g>
		<g>
			<text transform="matrix(1 0 0 1 231.7706 96.2119)" fill="#D1CDC9" font-family="'RobotoCondensed-Regular'" font-size="18px">20</text>
		</g>
		<g>
			<text transform="matrix(1 0 0 1 3.9653 96.2119)" fill="#D1CDC9" font-family="'RobotoCondensed-Regular'" font-size="18px">0</text>
		</g>
		<g>
			<text transform="matrix(1 0 0 1 465.2734 96.2119)" fill="#D1CDC9" font-family="'RobotoCondensed-Regular'" font-size="18px">40</text>
		</g>
		<g>
			<text transform="matrix(1 0 0 1 700.4823 96.2119)" fill="#D1CDC9" font-family="'RobotoCondensed-Regular'" font-size="18px">60</text>
		</g>
		<g>
			<text transform="matrix(1 0 0 1 934.9697 96.2119)" fill="#D1CDC9" font-family="'RobotoCondensed-Regular'" font-size="18px">80</text>
		</g>
		<g>
			<text transform="matrix(1 0 0 1 1164.0217 96.2119)" fill="#D1CDC9" font-family="'RobotoCondensed-Regular'" font-size="18px">100</text>
		</g>
	</g>
	<g>
		<rect x="5.5" y="158.4" fill="#F7D2AD" width="1260" height="57.8"/>
		<rect x="5.5" y="158.4" opacity="0.8" fill="#D7C8C5" width="1172.2" height="57.8"/>
		<rect x="5.5" y="158.4" opacity="0.6" fill="#AEA5BF" width="803.6" height="57.8"/>
		<rect x="5.5" y="158.4" opacity="0.7" fill="#968BAF" width="434.3" height="57.8"/>
		<rect x="5.5" y="180.2" fill="#57597E" width="856.3" height="14"/>
		<g>
			<rect x="907" y="167.5" fill="#57597E" width="5" height="39.5"/>
		</g>
		<g>
			<line fill="none" stroke="#C4C4C4" stroke-miterlimit="10" x1="6" y1="225.4" x2="6" y2="216.1"/>
			<line fill="none" stroke="#C4C4C4" stroke-miterlimit="10" x1="240.3" y1="225.4" x2="240.3" y2="216.1"/>
			<line fill="none" stroke="#C4C4C4" stroke-miterlimit="10" x1="474.7" y1="225.4" x2="474.7" y2="216.1"/>
			<line fill="none" stroke="#C4C4C4" stroke-miterlimit="10" x1="709" y1="225.4" x2="709" y2="216.1"/>
			<line fill="none" stroke="#C4C4C4" stroke-miterlimit="10" x1="943.4" y1="225.4" x2="943.4" y2="216.1"/>
			<line fill="none" stroke="#C4C4C4" stroke-miterlimit="10" x1="1177.7" y1="225.4" x2="1177.7" y2="216.1"/>
		</g>
		<g>
			<text transform="matrix(1 0 0 1 231.7706 252.5848)" fill="#D1CDC9" font-family="'RobotoCondensed-Regular'" font-size="18px">20</text>
		</g>
		<g>
			<text transform="matrix(1 0 0 1 3.9653 252.5848)" fill="#D1CDC9" font-family="'RobotoCondensed-Regular'" font-size="18px">0</text>
		</g>
		<g>
			<text transform="matrix(1 0 0 1 465.2734 252.5848)" fill="#D1CDC9" font-family="'RobotoCondensed-Regular'" font-size="18px">40</text>
		</g>
		<g>
			<text transform="matrix(1 0 0 1 700.4823 252.5848)" fill="#D1CDC9" font-family="'RobotoCondensed-Regular'" font-size="18px">60</text>
		</g>
		<g>
			<text transform="matrix(1 0 0 1 934.9697 252.5848)" fill="#D1CDC9" font-family="'RobotoCondensed-Regular'" font-size="18px">80</text>
		</g>
		<g>
			<text transform="matrix(1 0 0 1 1164.0217 252.5848)" fill="#D1CDC9" font-family="'RobotoCondensed-Regular'" font-size="18px">100</text>
		</g>
	</g>
	<g>
		<rect x="5.5" y="321.8" fill="#F7D2AD" width="1260" height="57.8"/>
		<rect x="5.5" y="321.8" opacity="0.8" fill="#D7C8C5" width="1172.2" height="57.8"/>
		<rect x="5.5" y="321.8" opacity="0.6" fill="#AEA5BF" width="803.7" height="57.8"/>
		<rect x="5.5" y="321.8" opacity="0.7" fill="#968BAF" width="434.3" height="57.8"/>
		<rect x="5.5" y="343.7" fill="#57597E" width="1089.3" height="14"/>
		<g>
			<rect x="1044" y="330.9" fill="#57597E" width="5" height="39.5"/>
		</g>
		<g>
			<line fill="none" stroke="#C4C4C4" stroke-miterlimit="10" x1="6" y1="388.8" x2="6" y2="379.5"/>
			<line fill="none" stroke="#C4C4C4" stroke-miterlimit="10" x1="240.3" y1="388.8" x2="240.3" y2="379.5"/>
			<line fill="none" stroke="#C4C4C4" stroke-miterlimit="10" x1="474.7" y1="388.8" x2="474.7" y2="379.5"/>
			<line fill="none" stroke="#C4C4C4" stroke-miterlimit="10" x1="709" y1="388.8" x2="709" y2="379.5"/>
			<line fill="none" stroke="#C4C4C4" stroke-miterlimit="10" x1="943.4" y1="388.8" x2="943.4" y2="379.5"/>
			<line fill="none" stroke="#C4C4C4" stroke-miterlimit="10" x1="1177.7" y1="388.8" x2="1177.7" y2="379.5"/>
		</g>
		<g>
			<text transform="matrix(1 0 0 1 231.7706 416.0002)" fill="#D1CDC9" font-family="'RobotoCondensed-Regular'" font-size="18px">20</text>
		</g>
		<g>
			<text transform="matrix(1 0 0 1 3.9653 416.0002)" fill="#D1CDC9" font-family="'RobotoCondensed-Regular'" font-size="18px">0</text>
		</g>
		<g>
			<text transform="matrix(1 0 0 1 465.2734 416.0002)" fill="#D1CDC9" font-family="'RobotoCondensed-Regular'" font-size="18px">40</text>
		</g>
		<g>
			<text transform="matrix(1 0 0 1 700.4823 416.0002)" fill="#D1CDC9" font-family="'RobotoCondensed-Regular'" font-size="18px">60</text>
		</g>
		<g>
			<text transform="matrix(1 0 0 1 934.9697 416.0002)" fill="#D1CDC9" font-family="'RobotoCondensed-Regular'" font-size="18px">80</text>
		</g>
		<g>
			<text transform="matrix(1 0 0 1 1164.0217 416.0002)" fill="#D1CDC9" font-family="'RobotoCondensed-Regular'" font-size="18px">100</text>
		</g>
	</g>
</g>
<g id="Layer_2">
</g>
<g id="Layer_3">
</g>
</svg>
