<?xml version="1.0" encoding="utf-8"?>
<!-- Generator: Adobe Illustrator 19.2.0, SVG Export Plug-In . SVG Version: 6.00 Build 0)  -->
<svg version="1.1" id="Layer_1" xmlns="http://www.w3.org/2000/svg" xmlns:xlink="http://www.w3.org/1999/xlink" x="0px" y="0px"
	 width="1268px" height="558px" viewBox="0 0 1268 558" enable-background="new 0 0 1268 558" xml:space="preserve">
<g>

	<g>
		<text transform="matrix(1 0 0 1 -5.3506 35.8098)"><tspan x="0" y="0" fill="#B3B3B3" font-family="'RobotoCondensed-Regular'" font-size="26px">D</tspan><tspan x="0.102" y="150" fill="#B3B3B3" font-family="'RobotoCondensed-Regular'" font-size="26px">C</tspan><tspan x="0.66" y="300" fill="#B3B3B3" font-family="'RobotoCondensed-Regular'" font-size="26px">B</tspan><tspan x="-0.14" y="450" fill="#B3B3B3" font-family="'RobotoCondensed-Regular'" font-size="26px">A</tspan></text>
	</g>
	<g>
		
			<line fill="none" stroke="#9C96AD" stroke-width="2.5774" stroke-miterlimit="10" x1="79.803" y1="520.909" x2="79.803" y2="506.663"/>
		
			<line fill="none" stroke="#9C96AD" stroke-width="2.5774" stroke-miterlimit="10" x1="264.123" y1="520.909" x2="264.123" y2="506.663"/>
		
			<line fill="none" stroke="#9C96AD" stroke-width="2.5774" stroke-miterlimit="10" x1="448.443" y1="520.909" x2="448.443" y2="506.663"/>
		
			<line fill="none" stroke="#9C96AD" stroke-width="2.5774" stroke-miterlimit="10" x1="632.763" y1="520.909" x2="632.763" y2="506.663"/>
		
			<line fill="none" stroke="#9C96AD" stroke-width="2.5774" stroke-miterlimit="10" x1="817.083" y1="520.909" x2="817.083" y2="506.663"/>
		
			<line fill="none" stroke="#9C96AD" stroke-width="2.5774" stroke-miterlimit="10" x1="1001.403" y1="520.909" x2="1001.403" y2="506.663"/>
		
			<line fill="none" stroke="#9C96AD" stroke-width="2.5774" stroke-miterlimit="10" x1="1185.723" y1="520.909" x2="1185.723" y2="506.663"/>
	</g>
	<rect x="78.49" y="448.909" opacity="0.75" fill="#F3D0AA" width="1195" height="57.755"/>
	<rect x="78.49" y="448.909" opacity="0.66" fill="#C4C4C4" width="1107.233" height="57.755"/>
	<rect x="78.49" y="448.909" opacity="0.8" fill="#9C96AD" width="738.667" height="57.755"/>
	<rect x="78.49" y="448.909" opacity="0.7" fill="#77688F" width="369.333" height="57.755"/>
	<rect x="78.49" y="469.494" fill="#4F3D6E" width="1024.286" height="16.585"/>
	<g>
		<text transform="matrix(1 0 0 1 50.1682 551.954)" fill="#B3B3B3" font-family="'RobotoCondensed-Regular'" font-size="26px">35.00</text>
	</g>
	<g>
		<text transform="matrix(1 0 0 1 234.1682 551.954)" fill="#B3B3B3" font-family="'RobotoCondensed-Regular'" font-size="26px">40.00</text>
	</g>
	<g>
		<text transform="matrix(1 0 0 1 418.1682 551.954)" fill="#B3B3B3" font-family="'RobotoCondensed-Regular'" font-size="26px">45.00</text>
	</g>
	<g>
		<text transform="matrix(1 0 0 1 602.1682 551.954)" fill="#B3B3B3" font-family="'RobotoCondensed-Regular'" font-size="26px">50.00</text>
	</g>
	<g>
		<text transform="matrix(1 0 0 1 786.1682 551.954)" fill="#B3B3B3" font-family="'RobotoCondensed-Regular'" font-size="26px">55.00</text>
	</g>
	<g>
		<text transform="matrix(1 0 0 1 970.1682 551.954)" fill="#B3B3B3" font-family="'RobotoCondensed-Regular'" font-size="26px">60.00</text>
	</g>
	<g>
		<text transform="matrix(1 0 0 1 1154.1682 551.954)" fill="#B3B3B3" font-family="'RobotoCondensed-Regular'" font-size="26px">65.00</text>
	</g>
	
		<line fill="none" stroke="#4F3D6E" stroke-width="4.9225" stroke-miterlimit="10" x1="1054.49" y1="497.538" x2="1054.49" y2="458.034"/>
	<g>
		
			<line fill="none" stroke="#9C96AD" stroke-width="2.5774" stroke-miterlimit="10" x1="79.803" y1="370.939" x2="79.803" y2="356.694"/>
		
			<line fill="none" stroke="#9C96AD" stroke-width="2.5774" stroke-miterlimit="10" x1="264.123" y1="370.939" x2="264.123" y2="356.694"/>
		
			<line fill="none" stroke="#9C96AD" stroke-width="2.5774" stroke-miterlimit="10" x1="448.443" y1="370.939" x2="448.443" y2="356.694"/>
		
			<line fill="none" stroke="#9C96AD" stroke-width="2.5774" stroke-miterlimit="10" x1="632.763" y1="370.939" x2="632.763" y2="356.694"/>
		
			<line fill="none" stroke="#9C96AD" stroke-width="2.5774" stroke-miterlimit="10" x1="817.083" y1="370.939" x2="817.083" y2="356.694"/>
		
			<line fill="none" stroke="#9C96AD" stroke-width="2.5774" stroke-miterlimit="10" x1="1001.403" y1="370.939" x2="1001.403" y2="356.694"/>
		
			<line fill="none" stroke="#9C96AD" stroke-width="2.5774" stroke-miterlimit="10" x1="1185.723" y1="370.939" x2="1185.723" y2="356.694"/>
	</g>
	<rect x="78.49" y="298.939" opacity="0.75" fill="#F3D0AA" width="1195" height="57.755"/>
	<rect x="78.49" y="298.939" opacity="0.66" fill="#C4C4C4" width="1107.233" height="57.755"/>
	<rect x="78.49" y="298.939" opacity="0.8" fill="#9C96AD" width="738.667" height="57.755"/>
	<rect x="78.49" y="298.939" opacity="0.7" fill="#77688F" width="369.333" height="57.755"/>
	<rect x="78.49" y="319.524" fill="#4F3D6E" width="791.333" height="16.585"/>
	<g>
		<text transform="matrix(1 0 0 1 50.1682 401.9845)" fill="#B3B3B3" font-family="'RobotoCondensed-Regular'" font-size="26px">35.00</text>
	</g>
	<g>
		<text transform="matrix(1 0 0 1 234.1682 401.9845)" fill="#B3B3B3" font-family="'RobotoCondensed-Regular'" font-size="26px">40.00</text>
	</g>
	<g>
		<text transform="matrix(1 0 0 1 418.1682 401.9845)" fill="#B3B3B3" font-family="'RobotoCondensed-Regular'" font-size="26px">45.00</text>
	</g>
	<g>
		<text transform="matrix(1 0 0 1 602.1682 401.9845)" fill="#B3B3B3" font-family="'RobotoCondensed-Regular'" font-size="26px">50.00</text>
	</g>
	<g>
		<text transform="matrix(1 0 0 1 786.1682 401.9845)" fill="#B3B3B3" font-family="'RobotoCondensed-Regular'" font-size="26px">55.00</text>
	</g>
	<g>
		<text transform="matrix(1 0 0 1 970.1682 401.9845)" fill="#B3B3B3" font-family="'RobotoCondensed-Regular'" font-size="26px">60.00</text>
	</g>
	<g>
		<text transform="matrix(1 0 0 1 1154.1682 401.9845)" fill="#B3B3B3" font-family="'RobotoCondensed-Regular'" font-size="26px">65.00</text>
	</g>
	
		<line fill="none" stroke="#4F3D6E" stroke-width="4.9225" stroke-miterlimit="10" x1="917.49" y1="347.569" x2="917.49" y2="308.064"/>
	<g>
		
			<line fill="#6C5F82" stroke="#9C96AD" stroke-width="2.5774" stroke-miterlimit="10" x1="79.803" y1="220.97" x2="79.803" y2="206.725"/>
		
			<line fill="#6C5F82" stroke="#9C96AD" stroke-width="2.5774" stroke-miterlimit="10" x1="264.123" y1="220.97" x2="264.123" y2="206.725"/>
		
			<line fill="#6C5F82" stroke="#9C96AD" stroke-width="2.5774" stroke-miterlimit="10" x1="448.443" y1="220.97" x2="448.443" y2="206.725"/>
		
			<line fill="#6C5F82" stroke="#9C96AD" stroke-width="2.5774" stroke-miterlimit="10" x1="632.763" y1="220.97" x2="632.763" y2="206.725"/>
		
			<line fill="#6C5F82" stroke="#9C96AD" stroke-width="2.5774" stroke-miterlimit="10" x1="817.083" y1="220.97" x2="817.083" y2="206.725"/>
		
			<line fill="#6C5F82" stroke="#9C96AD" stroke-width="2.5774" stroke-miterlimit="10" x1="1001.403" y1="220.97" x2="1001.403" y2="206.725"/>
		
			<line fill="#6C5F82" stroke="#9C96AD" stroke-width="2.5774" stroke-miterlimit="10" x1="1185.723" y1="220.97" x2="1185.723" y2="206.725"/>
	</g>
	<rect x="78.49" y="148.97" opacity="0.75" fill="#F3D0AA" width="1195" height="57.755"/>
	<rect x="78.49" y="148.97" opacity="0.66" fill="#C4C4C4" width="1107.233" height="57.755"/>
	<rect x="78.49" y="148.97" opacity="0.8" fill="#9C96AD" width="738.667" height="57.755"/>
	<rect x="78.49" y="148.97" opacity="0.7" fill="#77688F" width="369.333" height="57.755"/>
	<rect x="78.49" y="169.555" fill="#4F3D6E" width="1107.233" height="16.585"/>
	<g>
		<text transform="matrix(1 0 0 1 50.1682 252.015)" fill="#B3B3B3" font-family="'RobotoCondensed-Regular'" font-size="26px">35.00</text>
	</g>
	<g>
		<text transform="matrix(1 0 0 1 234.1682 252.015)" fill="#B3B3B3" font-family="'RobotoCondensed-Regular'" font-size="26px">40.00</text>
	</g>
	<g>
		<text transform="matrix(1 0 0 1 418.1682 252.015)" fill="#B3B3B3" font-family="'RobotoCondensed-Regular'" font-size="26px">45.00</text>
	</g>
	<g>
		<text transform="matrix(1 0 0 1 602.1682 252.015)" fill="#B3B3B3" font-family="'RobotoCondensed-Regular'" font-size="26px">50.00</text>
	</g>
	<g>
		<text transform="matrix(1 0 0 1 786.1682 252.015)" fill="#B3B3B3" font-family="'RobotoCondensed-Regular'" font-size="26px">55.00</text>
	</g>
	<g>
		<text transform="matrix(1 0 0 1 970.1682 252.015)" fill="#B3B3B3" font-family="'RobotoCondensed-Regular'" font-size="26px">60.00</text>
	</g>
	<g>
		<text transform="matrix(1 0 0 1 1154.1682 252.015)" fill="#B3B3B3" font-family="'RobotoCondensed-Regular'" font-size="26px">65.00</text>
	</g>
	
		<line fill="none" stroke="#4F3D6E" stroke-width="4.9225" stroke-miterlimit="10" x1="1054.49" y1="197.6" x2="1054.49" y2="158.095"/>
	<g>
		<line fill="none" stroke="#9C96AD" stroke-width="2.5774" stroke-miterlimit="10" x1="79.803" y1="71" x2="79.803" y2="56.755"/>
		<line fill="none" stroke="#9C96AD" stroke-width="2.5774" stroke-miterlimit="10" x1="264.123" y1="71" x2="264.123" y2="56.77"/>
		
			<line fill="none" stroke="#9C96AD" stroke-width="2.5774" stroke-miterlimit="10" x1="448.443" y1="71" x2="448.443" y2="56.785"/>
		<line fill="none" stroke="#9C96AD" stroke-width="2.5774" stroke-miterlimit="10" x1="632.763" y1="71" x2="632.763" y2="56.8"/>
		
			<line fill="none" stroke="#9C96AD" stroke-width="2.5774" stroke-miterlimit="10" x1="817.083" y1="71" x2="817.083" y2="56.815"/>
		
			<line fill="none" stroke="#9C96AD" stroke-width="2.5774" stroke-miterlimit="10" x1="1001.403" y1="71" x2="1001.403" y2="56.83"/>
		
			<line fill="none" stroke="#9C96AD" stroke-width="2.5774" stroke-miterlimit="10" x1="1185.723" y1="71" x2="1185.723" y2="56.845"/>
	</g>
	<rect x="78.49" y="-1" opacity="0.75" fill="#F3D0AA" width="1195" height="57.755"/>
	<rect x="78.49" y="-1" opacity="0.66" fill="#C4C4C4" width="1107.233" height="57.755"/>
	<rect x="78.49" y="-1" opacity="0.8" fill="#9C96AD" width="738.667" height="57.755"/>
	<rect x="78.49" y="-1" opacity="0.7" fill="#77688F" width="369.333" height="57.755"/>
	<rect x="78.49" y="19.585" fill="#4F3D6E" width="738.667" height="16.585"/>
	<g>
		<text transform="matrix(1 0 0 1 50.1682 102.0453)" fill="#B3B3B3" font-family="'RobotoCondensed-Regular'" font-size="26px">35.00</text>
	</g>
	<g>
		<text transform="matrix(1 0 0 1 234.1682 102.0453)" fill="#B3B3B3" font-family="'RobotoCondensed-Regular'" font-size="26px">40.00</text>
	</g>
	<g>
		<text transform="matrix(1 0 0 1 418.1682 102.0453)" fill="#B3B3B3" font-family="'RobotoCondensed-Regular'" font-size="26px">45.00</text>
	</g>
	<g>
		<text transform="matrix(1 0 0 1 602.1682 102.0453)" fill="#B3B3B3" font-family="'RobotoCondensed-Regular'" font-size="26px">50.00</text>
	</g>
	<g>
		<text transform="matrix(1 0 0 1 786.1682 102.0453)" fill="#B3B3B3" font-family="'RobotoCondensed-Regular'" font-size="26px">55.00</text>
	</g>
	<g>
		<text transform="matrix(1 0 0 1 970.1682 102.0453)" fill="#B3B3B3" font-family="'RobotoCondensed-Regular'" font-size="26px">60.00</text>
	</g>
	<g>
		<text transform="matrix(1 0 0 1 1154.1682 102.0453)" fill="#B3B3B3" font-family="'RobotoCondensed-Regular'" font-size="26px">65.00</text>
	</g>
	
		<line fill="none" stroke="#4F3D6E" stroke-width="4.9225" stroke-miterlimit="10" x1="817.157" y1="47.63" x2="817.157" y2="8.125"/>
</g>
</svg>
