<?xml version="1.0" encoding="utf-8"?>
<!-- Generator: Adobe Illustrator 22.1.0, SVG Export Plug-In . SVG Version: 6.00 Build 0)  -->
<svg version="1.1" id="Layer_1" xmlns="http://www.w3.org/2000/svg" xmlns:xlink="http://www.w3.org/1999/xlink" x="0px" y="0px"
	 viewBox="0 0 1268 418" style="enable-background:new 0 0 1268 418;" xml:space="preserve">
<style type="text/css">
	.st0{fill:none;stroke:#C4C4C4;stroke-miterlimit:10;}
	.st1{opacity:0.8;fill:#D7C8C5;enable-background:new    ;}
	.st2{opacity:0.6;fill:#AEA5BF;enable-background:new    ;}
	.st3{opacity:0.7;fill:#968BAF;enable-background:new    ;}
	.st4{fill:#57597E;}
	.st5{fill:#D1CDC9;}
	.st6{font-family:'RobotoCondensed-Regular';}
	.st7{font-size:18px;}
</style>
<g id="Layer_1_1_">
	<g>
		<g>
			<line class="st0" x1="6" y1="69" x2="6" y2="59.8"/>
			<line class="st0" x1="240.3" y1="69" x2="240.3" y2="59.8"/>
			<line class="st0" x1="474.7" y1="69" x2="474.7" y2="59.8"/>
			<line class="st0" x1="709" y1="69" x2="709" y2="59.8"/>
			<line class="st0" x1="943.4" y1="69" x2="943.4" y2="59.8"/>
			<line class="st0" x1="1177.7" y1="69" x2="1177.7" y2="59.8"/>
		</g>
		<rect x="5.5" y="2" class="st1" width="1172.2" height="57.8"/>
		<rect x="5.5" y="2" class="st2" width="803.7" height="57.8"/>
		<rect x="5.5" y="2" class="st3" width="434.3" height="57.8"/>
		<rect x="5.5" y="23.9" class="st4" width="666" height="14"/>
		<g>
			<rect x="884" y="11.1" class="st4" width="5" height="39.5"/>
		</g>
		<g>
			<text transform="matrix(1 0 0 1 231.7706 96.2119)" class="st5 st6 st7">20</text>
		</g>
		<g>
			<text transform="matrix(1 0 0 1 3.9653 96.2119)" class="st5 st6 st7">0</text>
		</g>
		<g>
			<text transform="matrix(1 0 0 1 465.2734 96.2119)" class="st5 st6 st7">40</text>
		</g>
		<g>
			<text transform="matrix(1 0 0 1 700.4823 96.2119)" class="st5 st6 st7">60</text>
		</g>
		<g>
			<text transform="matrix(1 0 0 1 934.9697 96.2119)" class="st5 st6 st7">80</text>
		</g>
		<g>
			<text transform="matrix(1 0 0 1 1164.0217 96.2119)" class="st5 st6 st7">100</text>
		</g>
	</g>
	<g>
		<rect x="5.5" y="158.4" class="st1" width="1172.2" height="57.8"/>
		<rect x="5.5" y="158.4" class="st2" width="803.6" height="57.8"/>
		<rect x="5.5" y="158.4" class="st3" width="434.3" height="57.8"/>
		<rect x="5.5" y="180.2" class="st4" width="856.3" height="14"/>
		<g>
			<rect x="907" y="167.5" class="st4" width="5" height="39.5"/>
		</g>
		<g>
			<line class="st0" x1="6" y1="225.4" x2="6" y2="216.1"/>
			<line class="st0" x1="240.3" y1="225.4" x2="240.3" y2="216.1"/>
			<line class="st0" x1="474.7" y1="225.4" x2="474.7" y2="216.1"/>
			<line class="st0" x1="709" y1="225.4" x2="709" y2="216.1"/>
			<line class="st0" x1="943.4" y1="225.4" x2="943.4" y2="216.1"/>
			<line class="st0" x1="1177.7" y1="225.4" x2="1177.7" y2="216.1"/>
		</g>
		<g>
			<text transform="matrix(1 0 0 1 231.7706 252.5848)" class="st5 st6 st7">20</text>
		</g>
		<g>
			<text transform="matrix(1 0 0 1 3.9653 252.5848)" class="st5 st6 st7">0</text>
		</g>
		<g>
			<text transform="matrix(1 0 0 1 465.2734 252.5848)" class="st5 st6 st7">40</text>
		</g>
		<g>
			<text transform="matrix(1 0 0 1 700.4823 252.5848)" class="st5 st6 st7">60</text>
		</g>
		<g>
			<text transform="matrix(1 0 0 1 934.9697 252.5848)" class="st5 st6 st7">80</text>
		</g>
		<g>
			<text transform="matrix(1 0 0 1 1164.0217 252.5848)" class="st5 st6 st7">100</text>
		</g>
	</g>
	<g>
		<rect x="5.5" y="321.8" class="st1" width="1172.2" height="57.8"/>
		<rect x="5.5" y="321.8" class="st2" width="803.7" height="57.8"/>
		<rect x="5.5" y="321.8" class="st3" width="434.3" height="57.8"/>
		<rect x="5.5" y="343.7" class="st4" width="1089.3" height="14"/>
		<g>
			<rect x="1044" y="330.9" class="st4" width="5" height="39.5"/>
		</g>
		<g>
			<line class="st0" x1="6" y1="388.8" x2="6" y2="379.5"/>
			<line class="st0" x1="240.3" y1="388.8" x2="240.3" y2="379.5"/>
			<line class="st0" x1="474.7" y1="388.8" x2="474.7" y2="379.5"/>
			<line class="st0" x1="709" y1="388.8" x2="709" y2="379.5"/>
			<line class="st0" x1="943.4" y1="388.8" x2="943.4" y2="379.5"/>
			<line class="st0" x1="1177.7" y1="388.8" x2="1177.7" y2="379.5"/>
		</g>
		<g>
			<text transform="matrix(1 0 0 1 231.7706 416.0002)" class="st5 st6 st7">20</text>
		</g>
		<g>
			<text transform="matrix(1 0 0 1 3.9653 416.0002)" class="st5 st6 st7">0</text>
		</g>
		<g>
			<text transform="matrix(1 0 0 1 465.2734 416.0002)" class="st5 st6 st7">40</text>
		</g>
		<g>
			<text transform="matrix(1 0 0 1 700.4823 416.0002)" class="st5 st6 st7">60</text>
		</g>
		<g>
			<text transform="matrix(1 0 0 1 934.9697 416.0002)" class="st5 st6 st7">80</text>
		</g>
		<g>
			<text transform="matrix(1 0 0 1 1164.0217 416.0002)" class="st5 st6 st7">100</text>
		</g>
	</g>
</g>
<g id="Layer_2_1_">
</g>
<g id="Layer_3">
</g>
</svg>
