<svg enable-background="new 0 0 1268 418" viewBox="0 0 1268 418" xmlns="http://www.w3.org/2000/svg"><path d="m894.8 216.4h-.3l1 2.2 1.8 1.7 1.7 3.1-2.6-2.7-1.1-1.1 1.9 2.6h-1.4l-3.3-2.4.4 1.2 2.5 1.9-1.2.8-1.8-1.2 1.5 1.5-.8.2-2.9-1 2.3 1.3-2.3.6h1.1l-1.1 1.3-2.5-.5-.6-1.2v-2.5l-1.4-.8-2.2-.2 2 .3 1.2 1.7v1.5l1.4 2.4v1.1l3.7-1.7.5.8 2.3-1.5 1.4-.2 1.3 4.7-1.5.2h1.9l-.4-3.6 2-1.1 1 .4 1.1 4.1-1.4 1-.6-.8.3 1-1.4 3-1.3 1.5h-1.4l-2-1-.9 1.1-1.9-1.8h1.2l-.3-1.1-1.6 1.3 1.2 1.8-5.4-.4-1.6-.9h-.1l2 1.5 4.6.5.3 1 1.3-1 .4 1.5-1.9 1.3h1.4l-.4 1.3-2.3 2.3-2-.9v-.6l-1.3-.5-1.1 1.3h.5l.9-.6 2.3 1.9 2.9.3v-1.2l3.1-1.2-.3 1 2.4-.8-1.7 2.7-.4 1.6-.9.2-.9-1.3-.6 1.7-2.6.4-2.5 1.4-1-1.3.8.9-2.4 3.4-1.9 1.8-2.4 2.9h.3l-1.4 2.6-.4 1.7-1-2.2.8 3.4-.6 1.5h-1.8l-3.3.9-1.6.9h-.2l.2.4-2.9 2.4-1.9 3.1-1.3 3.4v2l-1.4-.8 1.5 2-.9.6-1.9-.3 1.8.6-1.6 2-1.9.4-2 3-1.2 1.5-.6-.2 1.1-2.6-1.4 1.9-.5-1.2.6 2.5-1.2 2.4-3.2 1.9-1.2.8-1.3-1.5.3 1.5-2.3-.5.3 1-2.7-.3-.6 1-.5-1.2.3 1.8v.8h.1v.2l-.2.4 1.5 1.2-.5 2.4-1.5.6v.9l-2.2-.3 1.1.4.6 1.8 1.3.1-.6 1-2.3-.9-1 .9 1.3.4v2l-2.4-1 1.5 1 .3.9-1.8.6h1.8l.4.8-1.7.8.4 2.9.8.5h-2.2l.9.6-.8 1.8.6 2.2-1.7-.4 1.8 1.9-.2 3.6-1.4.4h2.5l.3 2.9-.9-.6-1.4.3 1.9.3.4 1.8-2.4.8.2 1.2-1.2 1 .6 1.2-.9 1.3 1.1-.2v1.3l1.4 1.1.4 1.9.9 1-1.1 1.7v3.9l.5 1.1.6 1.4 1.4 1.2v-1.8l-.8-.6-1.6-1.2-.4-2.4 1.2-.5-.6-1.4 1.2-1.2-1.2-1.9.3-1.3-1.8-1.2 1-1.3h-1.1l.2-1.7-.6-.6.4-1.8 2.4.2.4 1.6 2.6 5.2v1l1.7 2.6h-.1l-.3.2 2.5 3.3.5 1.2 5.5 8.2 2.4 1.7-1.7-1.8h.3l2.7 2.9 1.1 1.9-.8.9-.5-2.6-1 3.3h-.3l-.5-3.2-1-.3.5-1.4-1.7-1.2 1.4 3.7 2.8 5.4 3.1 4.8v.4l2.2 2.5.5 1.5 2.5 4.3-.6.6v.3l2.2 1 1.3 2.3h-.6l1 .3 1.3 6 .3 3.8.3 5.5v1.2l-.5 2.4-1.2 2.4-.2 2.6.6 1.5-1.4 2.4h-.1l-.8.5-1.1-.3-1.8 1.6h-2.4l-.5.6-2.6.8-1.5-1.5.2-1.9 1.2 1.2 1.7.5.8-.9-1.5-1.3-1.8.2-1.7-2.2-1.2-2.3 1.2-.6-1.2-.5-.2 1.2-1-1.6-2.6-1.2-1.2.3-2.3-1.3-1.2-1.4-1.2-3.7-.6-2-2.6-.6-1-2.3v-1.5l-.9-2.2 1.4-1.1-1.8.3-.4.8-1.6-1.1 1.2.9.9 2.2-2.3-.4-1-1.5-1.5-1.6-2.5-5-1.9-1.2 1.2-.8.4-2.2 1.9-3.1-1.7-1.4.4 1.5h-1v-1.5l-1.8-1.1-1.1 1.4 1.9.9-.2 2.6-1.5-.5-1.7-1.5.4-2.2-.2-2.9 1-4.3v-4.2l-.9-.5-.4-2.8-1.1-1.3v-1l-1.4-1.4h-3.2l-1-2.3h-.9l-1.1-1.5-2.6-1.4v-2l-2-.5-1.7-2.4-2.3-1.4-3.1-1.4h-1.2l-3.9 1.1.2 1.5h-1.3l1.5 1-2.5.2-4.7 3.8-2-.4.9 1-3 .6-1.3.2v-1.7l-1.4-1.9-4.4-2.7.9-.2 1.7 1.3h1.6l-1.3.2-.8-1.4-1 .2-2-.9v1l-3.9-1.9-5.7-1.2v-.3l4-.3-2.3-1.3-1.8.8-.9-.9-1.8 1.9-2.7.2-5.1 1.4 3.1-1.9-1.2-.8-.5 1-1.4-1.9-.2.6.2 1.8-1.2 1.5-2.6.8.4-1.5 1.1-.5-1.4-.8.6.5-2 3-3.8 1.1h-1.8l3-1.1-2.4-1.7v-2.2l-.8-2.7-1.2-.4v-.3l.2-.3-1 4.7v1.9l-4 .2-1.1 1.2-1-1.1-2.8.9-1.9-1.1-5.5 2.4-.8-1.1.2 1.1-2.6 2.2-1.4.4-1.3 1.6-1.7 1.1 1 1.1.9-.4.4 1.3h1.4l.2-1.9 1.8-1.2.4 1.9.3.5 1.1.4-1.2.8 1 .5-1.7-.2.4.9-2.9.2 1.6 1.5h-.2l-1.1.2v.4l-1.3.3 1.1 1.5 1.8.9-.5.8h2.7l1.9 1.3.6-.8 1.7 2.5v1.4l-1.2 1.1-.9-.4-2 2.3 1.9-3.4-.8-1.3-1.8.6-.9-2.2-1.6-.9-2.6.2-.3-.5-.9-.4h-1.5l-2.2-1.3v-1.6l-.9-.4.3 1.7-.9.9 2.6 1.3v1.7l-.4.4.3 1.5-.3.6-1.7 1.4-.6-.9-1.5-2.7-.6 1.5v-.2-.3h.1l-2.7-.6.2 1.1-.4.5-.4-.2-1 1.5h-1.8l-1.5-.3 1.8-1.3-1.7-.6-.4-1-1.2 2.5-1.2-.6v-1.9l-1.8-1.6.5-2.3-1.3 1.7-1.3-1-1.9.6v-1.8h-1l-.2-1.8-3.1.2.3-1.5h-2v.6l-2.5 1.6h.9v1.4l-2.6 1.4-4.4-.6-4.6-1.8-3.2-1h-4.3l-3.6.6-1.3.8-2.5.2-4.7 1.9h-.2l-5.4 2.7 2.7-2.3 1.3-.4-1.1-.2-2.7.8.5-3.7-1.5-.5-1 2-.8-.2-1.3-.4-1.7-1.8-.3 1 1.7 1.4-.4 2 1.5.9-.5.4 1 1.4.2 1.3-.5-.2-1.6 1.8-1.3.3-1.2 3.1-2.3 2-1.5.6-2.6 1.6-1.4-.3-2 .9-.3 1.2 3.7-1.5-8.9 4.5 4.1-2.4 1-1.2-2.7.9-2.3-.6-1-.5-.5-.5v1.6l-1.6-.5-.3-1.1-1.2-.2h-.1v.3l.6 1.7 3 2.5-3.6 1.9-1.9-2-1.1.5 1 1.5v1.5h-.2l-.4.5-1.7 1-.9-1.3-3.2 2.2 1.2.2-.4 1.2 2.3-2.3v1.3l-1.6 2-.6 1.2-1.2-1-3.1.6h1.5l.8 1.9 1.1.3-1.1 2.2-1.3 3.8-1.3.8.6-2-2.2 1.4-1.7-1.6 1 2h.2l1.4.8 1.7-.5-.4 2.4-.3 1.6-1.2.6v2.4l1.1 1.1.3 2.5.2 1.4v1.2l-.3.4h.9l1.3 3.4-.2 1.2 1.5 1-.6 1.5-1.8.9v1.1l-2.2-.8-2.7-2.5-2.3-.5-4.8.2-2.8-1.7-.9-1.1-2-.5-1.3.2-1.8-2-4.4-1.1.3-.8-1.1-1.5-1.3-4.4-2.3-2.5.3-2.5-.3-1.4-.6-1.2.4-2.3-1.5-2.6-1.6-.4-2.3-2.4-.6-2.9-.8-.2-1.3-2.6-1.7-.9-1.1-1.5-1.3-5-1.3-1.2-.5-2.7-1.4-1.9v-2.1l-1.4-1.5-.2-1.1-2.8-2.2-.6-1.5-2.7-1.4-.4-1.7-2-2.5-1.2.4-3.1-.5-5-.5-2.8-1.6-1.1 1.8-1.7-.5-2.2.4-2.3 3.4-1.2 2.6-.3 2.3-1.5.3-2.5 3.2-3.9-1.5-1.8-1.9-2.3-.5-1-1.4-2.5-.8-1.5-1-2.3-2.9-1.1-.2-2.3-2.2-1.9-4.5.2-4.3-2-3.6v-1.9l-1.3-2-2.9-3.1-2.4-1.1-2-2.3-.5-1.6-2.2-1.5-1.1-2-1.6-1.7-2.8-1.8-1.7-4.3-1.8-1.1-10.3-1.2-12.5-1.3-1 7.2-11.4-1.5-19.1-2.8-8.3-1.3-3.7-2.2-24.6-14.3-18.2-11 .4-1.9 1.5-1.4-18.5-2.2-13.7-1.6.5-2.2-1.3-1.1-.2-1.8.5-.8v-4l-1.6-4.1-.9-1-1.9-3-2.4-2.5-1.1-1.7-1.3-.8-1.1.9-1.4-1 .6-1.5-.3-2.2-.9-1.4-2.5-.5-1.1.3-1.6-1.2-3-2.5-.3-2.2-2.2-2.4-1-1-4-.9-1.4-1.3-3.7-1.1-2.4-.2-.2-1.3-1.5-1.3 1.1-1.8.4-2.2-.5-1.2.5-1.1.6-2.7-1.3-.5-1.4-1.9 1.2-1.1-.3-1.7-1.4-.9-1.3-3.2-1.4-.9-.1-2-1.1-1.8v-1.5l-.9-1-1.1-3.1-1.7-2.4.2-4.5 2.4-.9 1-2.8-1.2-2.4-2.2-.2-1.6-3-1-1.8.8-2.6-.6-2.9 1-2.9.2-1.2h1.5l-.2 1.6v1.9l1.1.6 1.3 2.2 1.5.5-1.3-1.1v-2.8l-1.4-2.6.6-1.5-.6-1.3 1.9-1 1.2.9h1.7l3.2 1.5 1.9-.9v.9l.4-1h-1.4l.8-1.4-2.3 1.3-1.6-.3-1.2-1.7-1.3 1.2-1.1-.8-.3-1.5h-.1l.3 1.4-1.5-1.7-1.2.4-.4-.9.4 1-1 2.7.5 1-1.4.6-1.2-1.9h-.6l-1.5-2.6-1.7-.2 1.4-2.2 1 1.6-1.1-3.9-.9-2.8-1.9-2.5-1.4-3.9-1.6-3 1.2-1.6v-5.4l1.5-2.7.4-1.9v-3l-1.2-3.2-.5-1.9-2.2-3.3.3-3 2.8-3.4.4.4 2.9-5-.3-.9 2.9-5.7.2-4.5-.9-1 1.5-3.2-1.1-2.2.2-3.9 1.5-3.4v-1.5l-.8-1.4v-1.8l1.5-1.5 2.6-4.5 3.4-4.6 1.8-3.8 2.4-6.2 1-2 2-6.2 1.1-1.1.6-2 2.6-5.3 1.4-5.9.5-2.6 1-.8v-3.7l1 1.1h1.6l1.8.9 1.2-.4 1 1.8h1.7l-.9.2-1.4-2.4-2.8-1.2-1.8.3-1.2-1.6-.9.5 2-4.6-.9 3.2h.9l1.4-2.5-.3-1.1 1.7-1.2-1.7-.3-.6-1.7v-1.8l.9.4 2.7-.2-3.1-2 .3-4.2-.5-1.4.4-2.8.2-3.6-1.2-2.6v-4.1l2-3 2.2 2.3 1.4.8 2.3 2.4 2.8.9 3 1.8 3.1.2 1.6 1.9 1.3-.8 1.1 4.4h-.9l-1.7 2.3.2-2.2-1.7 2.4-1.1.6-.6 1.2 1.5-1.2 1.9-.2 1.3-1.8 2.2-1.3-.3 2.7-.8-.3-1.3 2.7.9 1.3-1.1 1.5-1 2.2-.8-.8 1-1.7-1.3.8-1.2 2.5-.4-1.4.9-1.7-1.6.9-.5 1.1-1.8 1.2 1.7-.8-1.1 1.3 1.1.3 1.4-1.3.9 1.6 1.6-1 1.1-1.8 1.2.3h1.1v-4l1-.2-.8-1.2 1-1.6 1.7-2.4 1.5-1-1.3-1.4v-2.2l-1.1.5 1.5 1.7-1.2-1.1.3-1.8 1.3.3.4-.6-2.3-2.6-.2-1.4 1.1-.2 1.1 1.4.8-2.9.4-1.5-1.5-1-1.1-3 1-.6 10.2 3 9.4 2.4 8.2 2.2 12.6 3.2 6.7 1.6 8 1.8 4.1 1 10.2 2.3 13.8 2.9 6.9 1.4 19.7 3.6 9.7 1.6 5.6.9 13.2 1.9 13.2 1.8 11.2 1.4 11.3 1.3 11.2 1.2 10.8 1 11.8 1 9.8.6 5.6.3 14 .8 7 .3 5.6.2 11.2.3h29.8v-6.2l2 .2 1.4 1.2 1.6 6.5v1.7l1.1 1 1.7.2 1.3-.2 1 1 4.1.2.6 1.8 3.4-.5v-.8l2.7-.9 1.3.2 3.9 1.3h1l-.8 1.3h2.3l1.6 3.6 1.1-.4v-1.7h2.3l.5 1.5 2.3.9 1 1.3h1.6v1.1l3.4-.8 2.3-1.8 1.5-1 1.7 2.4 6.6-.6 2.9 1.8 1.1-.6 2.3.3-4.3 2.9-5 1.8-3.1 1.8-3 2.7-4.7 5.7-3.7 2.9-3.2 2.6-1.1 2 1-1.4 1.2 1 2-.2 2.9-1.2 3.2-1.5 1.6-.3 2.6-1.8 1.3 1-1.4 2 .4.9-.8 1.8 2.5-1.4 1.7 1.2 1.5.2 4.2-2 1.4-1.5 1.1-1 4.1-.6 1.8-1.2 1.2-1.5 1.9-.8.4-1.2 2.7-2.3.2 1.5 1.3.2.9 2.7v3l2.3-3h4.7l2.2 1.1.8 1.4 3 3.3 2.4-.2 1-.8 2.4 1.3.6-.8 1.4 1 1.7-2.5 3.3-2.3 3-.5 4.2-.3 2.6-1.5 3.1-.5-.6 1.4.3 3.2 2.4.4 2.2-.9.5 1.2 2.6-1.7 1.1 1 1.2 2.8-.2 1.4 1.1-.4.8 1.3 2.2 1.5-2.7.8h-1.3l-4.8-.5-.8 1.8v1.7l-3.1-2.4-4.8-1-1 .2-1.3 2.2-2.4.2-.4.9-1.7-.5-2.7 1-.4 2.2-1 .5-2.6 1.9 1.6-3.3h-2.8l-.6 2.9-1.9-.3-1.3 1.4-1 1.9-1.5 4.3-1.7 3.2v1.8l-1.5.4-1.4 2.4-.8 2.5h-.1l-.4 1.8 1.4.3 1.7-1.9.2-.5 1.2-2.7 2.3-1.3 1.5-4.3 1.3-.5.4-1.7h1l-1.8 5.5v1.5l-1.2 1.5-.4 1.8-1 2.8-.4 3 .3 2.7-1.1 1-.8 3.6.6 3.2-.9 2.5-1 4.7.3 1 1.3 5.6.9.9-.3 1.9.2 2.8v3.1l1.1 2.4 1.1 1.2 1.2 3.7 1.2 2 1.2.8 2.6.2 3.3-1.7 1.2-1 2.3-2.5 1.2-3.6 1.3-2.3.8-2.9.2-5.7-.5-3.6-.8-2-2.8-5.5-1.2-2.8 1-2.8-1.3-3.4 1.2-2.4 1.2-3.2v-2.4l-.3-3 1.7-1.4v-1.8l1.4-1.3h1.5l1.7-4 .8 1.9-1.2 3 .2 1.7h.5l1-3.7-.2 3.9.8-1.9.4-4.1-.4-1.5v-1.1l1.7-1.6 1.2-.2 1.8-1.1h-1.3l-1.2-2 1.7-2.8 2.2-1.3 3.2 1.8h2.9l1.3 1.7h2.3l1.7 1.1 2.4.6.9-.2 1.5 1.2v1l1.2 2.4h-1.3l.2 2.2 1.4 1 .9 2.3v6.2l-1.8 1.2-.4 1.8v1.8l-1 1.1-1.9.2-.5 1.4.4 3.8 2.6 1.1 1.8-2.6h.5l1.8-4.3 2.3-.9 1.3-1.2 2.3 1 1.6 2.4.6 2.3 1.4 4 1.1 4.2 1.4 2.9-.4 1.5v4.3h-1.5l-.9-.8-1.2 1.3-.2 2.7-.2 1.1-1.9 1.4-.8 2.5v2.3l-2.6 4.4v.9h.3l3.7 1.3 2.6 1.3 1.5-1.3 1.4 1.2-3.6 1.2 1.9.2 2.3-.9 2.5 1 1.7-1 3.8-2h3.2l2.7-2.8 2-2.5 3.1-1.9 5.4-2.9 2-1.3 6-4.8 2.3-1.9 2.3-2.7 1.9-1.4.6-2.2 1.9-1.9-1.2-2.6v-1.2l-2.3-.6-.4-2.8 2.8-1.5 3.8-1.5 5.4-1h2.8l2.5 1.2 2.2-1 2.6-.8h1.8l2.8-1.9 1-1.5 2-2.2 1.9-.5v-1.9h-.2l-.9-2.2h-1.1l1.7-1.3-1.2-1.1.4-1.6-1.4 1.3-1.6-1.3.6-1.6 4.5-4.8.6-1.9 4.2-6.4 3-2.9 2.7-.8 7.7-1.8 7.5-2 1.6-.4 7-1.6 7.2-1.8 4.3-1.2.4-4.3.8-.8 1.7.5.4-1.2.6-.9 2.2.5-.4-1.9 2-.2-1.3-2 1.2-2.9 1.5-1.5-.5-.9 1.3-1.9-1.2-1.8.3-2.2-.8-.5.4-2.8 1.2-1.4-.3-2.5-.2-1.9 4.6-14.2h2l.9 2.8 1.8.6 2.8-1.9v-.9l2.2-.6v-1.1l1.3-.4 3.7 1.5 2.4 1.5 5.4 17.1 1 4.1 2.5.5 2-.2-.4 1.6 1.2 1.3v1.8l2.4 1.9.3-1.1h1.5l2.4 2.7 1.3 2-1.5 3.2-3.4 1.2v2l-1.2-.2-.2 1.3-1.3-1.5-.5.9.2 2.7-1.5-1.3v2.9l-1.2-2-2.7-.2.9.8-1.5 1.6-.3-1.5-1.2 1.8 1.3 2.6-4.1-1.8.2-1.8-1.4-1.5v-.9l-.2 1.5.9.3.2 1.6-1.9 1.1 1.1 1-.4 1.9v2.7l.4.4-1.1 2.3h-1.9v-1l-.6-.9-.2 4.1-.9-.8-1 1-.6-2.6-.4 1.4-.3.9 1.1.9-.3 1.1h-.1l-1.5-3.2v-2.4 2.3l-.6 1.6.5-.6.3-.4 1.6 3.3-.6.9-1.1-2.9.3 1.7-.9-1.1-1.9 1.6-1.2 2.4 1.2 1.5-1.6 1-.2 3.1-1.1.8-.3 4.3-2-.5-.4 1 .6-.8 1.5.9-.4 3 1.2 2.4 2.4.5-.5 1-2.5 1.6.2 1.2-.9.8-.5.9h-.2l.2.3.6 1.3 1.4.2 1.1-.5.5.2 2.3 1.9-.4 1.5 2.3.8.5 1.8 1.6.6h1.7l2.8-2.2-2.5-3.8 2.2 1.3 1.2 2.6-.4 1.7-4.2 1.9-.8 1.4-1.9.9-.3-3.6-1.1.5v1.4l-.9.6-.6 1.6-2 1.3-.6.9-1-3.4-.5-.5v1.2l-1.5-1.4h-.5v1.9l.9 2.8-.3 1.7-4.1 2.2v-.4l-1.7.9-2 .3-1.5 1.2-1.8-1.9 1.5 2.3-2.2.6h.1l-4.6 1.1-1.6 1.8-.2-1-.5 1.2-2.5 2.5-2.4 1.6v.2l-1.2 1.8.2 1.1-1.3.6-.8 1.8.3-3v-3.2l-1-1.7-1.7-1.8h-.1l1.6 2.6.5 2.3-.3 3.3-.4 2.4-.9.5v-1.5l-.3.9-.2 1.6-.4 1.8.8.4h2.8l.6 1.6v3.3h-.8l.9.2.4 4.7-.6-1.8-.4 3.2.5.5-1.6 2.7-.9.3.8 3-2.7 1.8.4.5-1 4.4-.8 1.2-1.3.3.3-2.6-.4-1.3-3.2-.2-2.7-1.2-.6-.4h-.1l-1.9-1.4-.6-1.7v-.8l1.1-2.8 3.1-2.4.5-1.9h-.1l-.6 1.8-.9.5-2.3 1.5-1.6 3.6.9.8v1.6l1.2 1.3 1.7 1.4.8 3.1 1.4 1.5 2 1.9 1.2-.2.5 2.8 1.2 2.6h-.4v3.4l-1.2 1-.8 3.3-.6 2h.9l-1.6 3.4.2 2.2-1.8 1.5-.9 3.3v3.6l-1.2-2.2.2-4.8 1.1-.3h-1.4l1.1-3.7 1.1-1.3.3-2.7-3.1 1.9v-2.5l-.3-1.6-1 1 1.4-2.6-1.1.9-.3-1 .5-2.3-1 3.1-2.8-.5-.9-.2-1.6-1.7.8-1.3-.4-1 1.3-.5 1.6.6.9-2.2-1-1.1.6-.9-.8 1.3.9.6-.5 1.7-2.2-1.3-2.3-.5.6-1.8 1.4 1.3-.6-1.4.8-1.5-.9.9-.3-1.4.3-2 1.4-2.9-1.2 2.5-.9-.3-.3 1.5-.9-1.4 1.3-4 3.3-.8-2.6.3.3-2.9-1.2.5v1.8l-1.6 1.5v-1.6l-1.4 1.5.4.9-.6 2.4-1.4-.3-.5.6h.6l1.7 1.6-1.2.5 1.7.6-.9.6.3 1.1-.5 2.5.5.9.8 2.8 2.2 2-.2 1.2-3.6-1.3-1.4-3 .3 1.9v.8l3.2 2.3 2.6 2.5.2 1.4-1.8-1.4-3.6-1.4-.3 1-2-2.3.8 1.8h-1.1l-1.9-2.2-1.7 1.7-1.2-1.8 1.7-3.8.3-2-1.3-1.4.8 1v.9l.3 1.1-1.2 1.5-1.1-.2-.2 2.8.2 2.7h1.1l2.2-1.5.6 2 2.7 1.2 2.8-.3 1.5 1.4-.6.6 1.3-.2 3.3 1.5-.8 3.2.2 1.3h-2.2l-1.5-2.2h-1.1l-2.9-2.2-.8-1.4-1.8-1 .3.9 1.7.3.4 1.5 1.8 1 1.7 1.7 2.4 2.2 3 .2-1.4 1.1-1.7-.5 1.5.6.9-.3 1.6 1.1v2l-2.5-1.8 1.3 2.8-1.4.5-3.1-2.7-1.6-1.9-2 .5 1.9.2 1.1 1.3 1.3 1.2.9.9 3.2 1.2v1l.5-.5v.9h1.5l-1.2 1.8-3.4-1.6v-.6l-.5-.6-2.9.2-.5-1.9.3 1.7-1.8-.4-3 .5v-1h-.9l.2 1.2h.9l1.9-.6 1.3 1h2.7l1.8.8.6 1.5 2.4.9-.3.9v1.1l1.4-1.2.4.9v.4l1.3-.5h1.1l-1.6-.3-.3-1.4 1.9.3 2.4-.3 2.8 5.4 2.3 4.8 3.9 5.3-2.7-2.4-1.1-2.9-.8-.9-1.8-3.9-1.2-2.5zm0 0 1.2-.2zm-567.3 27.5.6 1.7-2.2.2-1-2.2h2.5v.3zm2.1-.1 4.2 2.4h-2.3l-1.6-.5zm1.6 13.5 1.1 1.2-1.4-.3zm11.3 7.1 2.2 3.7-1.6-.6zm1.5-7.1 2.8 1.8v1.8l-1.6-.8-.3-1.9zm424.5 79.3-1.6.4zm73.9-7.1-.3-2.3 1.1 2.2 1.8 4.6zm6.5 12.3-2.2-3.7h.1l2.2 3.7zm-56 3.5.3.9-1.8-.5zm47.7 41.8 1.9 3.1-.5.2zm30.5 17-1.5 4.1-1.6 2 2.2-3.6zm-28.7-100.7 1.3.3-1 1.7-.9-1.4zm1-3.7 1.3.8-.9 1zm-.8 6.2-.3 2.3-.4-1.7zm-1.7 6.5h.1l.8 1.4-1.2 1.5-.6-1 .3-1.8h.8zm1.3-3.9-.6 2.7-1-1.5zm-1.4 10-.5 3.3-.8-2.3zm-108.7 33.2-.5-.4h.2zm-.1 0-.2-.2zm-33.2 2 2.6 1.2-1.8 1.3-2.6-1.3zm30.6 2.3.6 1.1h-2zm-21.3 1.4 1.1.8-.4 1.6-1.6-1.3zm242.3-283.8.8 1.6-1.3-.6zm3.2-3.7 1.6.6-1 2.8-1.4-1.1zm-70.1 108.7-.8 2.4.2-3.1zm6.7 15.6-.2-.3h.1l.2.4h-.1zm-.3.1h-.1zm51.1-70.7 1.9 1.2-3.1 1.1v-1.7zm7.2-.4 1 1.4-1.7.6zm-224.8-56.4.9-1.4 2.2-1.4 4-.8 1.6 1-2.7.4.2.6-3 2.6-1.7 3.7-.4-1.8-2-.3-.1-1.6zm-2.6-13.3 2.4-1.1-2.7 3.1-3.2 1.7.5.4-2.2 1.1-.8-1.3zm59.2 29.3-3.2-.2 1.8-1.4-.6-1h1.5l1.4 1.5zm-8.2-8.9h.8l-.4 1.9-1.2-1.1zm-2.6 12 2.4.4-1.5.8zm-10.6 2.2.8 2.3-1.4.5zm-3.6 11.6-1.2-.5.6-.9zm83.8 20.4 1.3.4-.3 1.2zm68.7 25.8.2-.3h-1.4v1.1h-2l.4-2.3.4-1 1.9-.3v-1.5l1.5-1.2 1.4.6-.6-.9 3.3-.5.5-1.2 4.5-1.1 1.5-.6 3.1-3.4-1.2 2.9-1.3 1.5h1.4l1.2-2 2-1.3 1.1.6 1.9-2 .4.4-5.7 4.7-.9-.2-1.4 1.8h-.7l-1.5 1.6-1.6.3-1.3 1.2h-1.1l-2 1.5-3.4 1.8zm-3.8.5v1.6l-1.5 1.3.2-2.5zm-1 90.8 2.7-1.8-.4-5.1-.5-1.4.5 1.2.4 6-2.7 1.2zm30.5-114.6.3 2.5-1-.2zm-69.9 156.2.4.2zm-16.6 17.1.9.8-1.6 1.9zm.4-3.8h1.3l1.5 1.1-1.3 1.1-.6 1.7-1-1.6v-2.2-.1zm-1.3-.4h.9l.8 3.6-1.5-1-.9-1.5zm-186.5 67.8-.9.9-4.5 3.1 3.7-3.3zm-29.5 19.7.5-1.3h1.2l1.6-1.4 2.8-1-6.2 4.1v-.3zm-.7.5-1.7 2.4.2-1.3zm-7.3 18.6-.2-4.1.3-1.4.2-.5v-1.5l1.6-3.3h.3l-1.8 4.7-.4 2.8v3.2zm3-13.1 1.3-1.6-1.8 3.3zm-1.5 19.4h-.1l-1-.8.3-.6-.3-1.2.4.4.2.8zm-.8-2.3-.8-1.2-.3-2.6h.2zm-265.6-392.9v2l-1.1-1zm-2.5-2 1.1 1.4-.6 1.5-.9-1zm3.1-.6 1.4 1.3-2.4.3-.4-1.1zm1.7 5.8.4 1.7-1.6-.2-1.1.6 1.2.6v3.1l.5-1.2 1.3 1.4-.5 1.9-1.8-2.6.4-1.9-1.3-1.5 1.9-2.4zm-2.5 10.9v1.9l-1-.5zm-.2 4.7-1.2.6 1.3-2.4v1.7h-.1zm344.4 46.7.5.4-2.3 1.6z" fill="#fff" stroke="#ccc" stroke-width=".861"/><g fill="#b5aec7" stroke="#666"><path d="m745.2 266.8-1.4-1.5 2.7-.4 4.7-.3 4.8-.3h.2l4.7-.3h.6l5.8-.5h.1l5.6-.5 3.2-.3.5 1.9 1.1 3.7v.5l.3 1 1.1 3.7.9 3.1.5 1.8.2 1 1.1 3.8.8 2.6.2.9 1.3 4.5v.3l1.1 3.7.9 1.8 1 2 1.2 1.4.6 2-.3.9 1.6.9-.4.5-1.6 1.7.2 1.1v1.1l-.8 2.2v1.2l.2.2 1.5 3.7-.2 3.3v2.3l1.1 1.3.4 1.1-6.4.8h-.1l-7.1.9-2 .2-2.7.3-4 .4h-1.3l-5 .4-5.7.5-.3 2 1.6 1.8 1.7.9v3l.6.5-2 2.9-3.7 1h-1.7l2.9-1.1-2.3-1.7v-2l-.8-2.7-1.1-.3v-.3l.2-.3-1 4.5v1.9l-3.9.2.4-5.4-.5-4.1-.3-1.6-.8-5-.6-3.5-.3-3v-47.2z" stroke-width=".8933"/><path d="m469.2 231.7-1.8 13-1.8 13.7-.6 5-1.4 10.4-1.1 7.4-.8 5.6-.6 4.6-2 14.2-15.5-2.3-6.8-1.1-3-1.7-20.3-11.5-14.9-8.9.3-1.6 1.2-1.1h2.2l1.1-1.8-.2-1.6-1.6-.5-.2-.6.8-2.3-.5-.5.3-1.3 1.1-.2 1.4-1.3.6-1.8.2-3 1.3-1.1.2-.8 2-.8 1.5-1.4-1.7-2.4-.6-2v-1.6l-1.3-2.4.3-1.7v-1.3l1-.6v-2.2l-.3-2.6.5-4.4v-3.2l1.4-.4 2.7.5 1.1 1.9h.9l1.5-1.9 1.5-8.4.4-2 11.7 2.2 3.7.6 11.5 1.9 6.8 1.1 7.6 1.3z" stroke-width="1.0548"/><path d="m673.5 245.3h12.6l4.5-.2h.3l5.4-.2h3.1l3.3-.2 4.1-.2h2.5l4.2-.2h.8l1 1.4.3 1.5-1.4 1.6-2 3.2h1.1l4-.3 3-.2.9 1.4h-1.2l.5 1.1-1.4 1.2-1.6.4 1.3 1.5-1.2.8.6.8h-1.6v1.6h-.1l-.2-1.1-.9.4.9.8-.9 2 1 .4.2 1.3-1.3.4-.4 1.4-1.2.5.9 1-.6 1.1-1.3.4-1-.4.5 1.7-1.4.4 1.3.6-1.4.5.2 1.7v1.7l-2.2.9.2 1-1.2 1.5-1.2-.2 1.4 1.3-1.6.4.9 1.3-2.5 1.2 1 3-1.4-.2.2 1.2-1.2.8 1.1 1-1.2.5.2.4-.2 1.4 1.3-.6v2.7l.8 2.4-1.4.5 1.1.8-.5.6h-3.7l-7.6.3-8.2.2h-16v-8.1l-1.4-.5-2.8.8-1.3-1.4v-26l-.5-3.7-.3-1.8-.8-5.2v-.9l-.8-5.1h12.4z" stroke-width=".9148"/><path d="m350 127.2 8.7 2.3-2.9 11-5.2 19.9-.9 3.8-.5 1.8-.5 2-.2.8v.6l-.2 1 .8 1.2 2.6 3.9 2 3 1.4 2.2 5.9 8.9 5 7.4 5.6 8.4 10.9 16.4 2.2 3.1 8.9 13.5-.3 1.8 1.4 2.5v1.7l.6 2.3 1.8 2.5-1.6 1.5-2.3.8-.2.9-1.4 1.2-.2 3.2-.6 1.8-1.5 1.4h-1.3l-.3 1.4.5.5-.9 2.5.2.8 1.7.5.3 1.7-1.2 1.9h-2.3l-16.1-1.9-11.8-1.4.5-1.8-1.2-.9-.2-1.5.5-.6v-3.4l-1.6-3.7-.8-.9-1.6-2.6-2-2.2-1-1.5-1.1-.6-1 .8-1.3-.9.5-1.3-.4-1.8-.6-1.3-2.2-.4-1 .2-1.4-1-2.6-2.2-.3-1.8-1.8-2-.9-.8-3.4-.8-1.2-1.1-3.1-1-2-.2-.2-1.2-1.3-1.2 1-1.6.4-1.8-.4-1 .5-1 .6-2.4-1.1-.4-1.2-1.7 1.1-.9-.3-1.5-1.2-.8-1.1-2.8-1.2-.8-.2-1.9-1.1-1.5v-1.4l-.8-.8-.9-2.7-1.5-2 .2-4 2-.8.9-2.5-1-2-1.8-.2-1.4-2.6-.9-1.5.6-2.2-.6-2.7.9-2.5v-1h1.2l-.2 1.4v1.5l1 .5 1.2 1.8 1.4.4-1.2-.9v-2.4l-1.3-2.3.5-1.3-.5-1.1 1.6-.9 1.1.8h1.5l2.8 1.3 1.6-.8v.9l.3-.9h-1l.6-1.2-1.5 1.9-1.4-.2-1-1.6-1.2 1-1-.6-.2-1.3h-.1l.2 1.2-1.3-1.5-1.1.3-.4-.8.4.9-.9 2.4.5.9-1.2.5-1.1-1.6h-.5l-1.3-2.3-1.4-.1 1.2-1.9.9 1.4-.9-3.3-.8-2.5-1.6-2.2-1.3-3.3-1.4-2.6.9-1.4v-4.7l1.3-2.4.3-1.6v-2.7l-1.1-2.8-.4-1.6-1.9-2.9.3-2.6 2.5-3 .4.3 2.5-4.3-.3-.8 2.6-5 .1-4-.8-.9 1.3-2.8 3.9 1.2 3 .9 2.8.8 9.4 2.6 8.3 2.5zm-19.8 110.6.5 1.5-1.8.2-.9-1.9h2.2zm1.9-.2 3.7 2h-2l-1.4-.4zm1.4 11.9 1 1-1.2-.3zm9.8 6.1 1.8 3.2-1.4-.5zm1.1-6.2 2.5 1.6v1.6l-1.4-.6-.2-1.6z" stroke-width=".9902"/><path d="m531.3 175.3 7.5.6 4.1.3h1.6l6.1.4h.3l4.8.3-.2 2.9v.6l-.2 2.9v1.1l-.2 4-.3 5-.3 5v1l-.2 4v1l-.2 4-.3 6v1.1l-.2 2.9-.3 4.5-8.6-.6h-1.1l-8.3-.6-10.2-1h-.5l-4.4-.4-2.6-.2-4.2-.4-8.4-1.1h-.5l-8-1-5.9-.8.8-5.5.6-4.5.4-3.1.4-4 1.4-9.8.2-1.5.2-1.8.9-6.4.6-4.8.5-4 9.6 1.3 5.1.6 3.9.4 4.5.5h1.1l7.7.9z" stroke-width="1.2162"/><path d="m916.5 121.7 3.4-.9h.3l2.8-.4 1 3.4.3 1.1v.5l.5 2.3-.2 1.2-1.4.6-1.6.2-1.2.9-1.4-1.6 1.2 1.7-1.7.5h.1l-3.7.9-1.3 1.4-.2-.8-.4 1-1.9 1.9-1.8 1.3-1-1.2 1.9-1.9-1.1-1.7-.3-2-.3-1.7-.9-4.8 4-.9h.4z" stroke-width="1.087"/><path d="m890.8 179.4-1.3-4.5-.4-1.5-.2-.8-.3-1.2-1.3-5 1.8-2.2h1.9l-1.5 3.2.8.6v1.5l1.1 1.3 1.6 1.3.8 2.9 1.3 1.4 1.8 1.8 1.1-.2.5 2.6 1.1 2.4h-.6l-2.9.6-4 .8-.4-1.5-.3-1.1z" stroke-width=".9256"/><path d="m875 183.2-1.3-1.4-.3-.3 1.3-.8 1.4 1z" stroke-width=".861"/><path d="m803.4 330.2h1.3l2.6-.2h1l3.3-.2h1.7l3.2-.2h2.8l5.7-.4h3.4l2.6-.2.4 2.3.6.8 1.5-.3v-3.7l-.8-1.3v-1.5l1.5-1.3 4 1.1h2.3l.2 2.7-.7-.8-1.3.3 1.8.3.3 1.5-2.2.6.2 1.2-1.1 1 .5 1.1-.8 1.2h1v1.2l1.4 1 .3 1.8.8.9-1 1.6v3.6l.5 1 .5 1.3 1.3 1.1v-1.6l-.6-.6-1.5-1.1-.3-2.3 1.1-.5-.6-1.3 1.2-1.1-1.1-1.8.3-1.2-1.7-1.1.9-1.2h-.9l.2-1.6-.6-.6.4-1.7 2.3.2.3 1.5 2.4 4.8v.9l1.6 2.5h-.1l-.2.2 2.3 3.1.5 1.1 5.1 7.6 2.3 1.6-1.6-1.7h.1l2.5 2.7 1 1.8-.6.8-.4-2.4-.9 3.1h-.3l-.5-3-.9-.3.5-1.3-1.6-1.1h-.2l1.3 3.3 2.7 5 2.9 4.4v.4l2 2.3.5 1.4 2.4 4-.6.5v.3l1.9 1 1.2 2.2h-.6l.9.2 1.2 5.6.2 3.6.2 5.2v1.1l-.5 2.2-1.2 2.2-.2 2.4.6 1.4-1.3 2.3h-.1l-.6.4-1.1-.3-1.7 1.4h-2.2l-.4.6-2.4.8-1.4-1.4.2-1.8 1.1 1.2 1.5.5.6-.9-1.4-1.2h-1.7l-1.6-2-1.3-2.6 1.1-.6-1.1-.5-.2 1.1-.9-1.5-2.5-1.1-1.1.3-2.2-1.2-1.1-1.3-1.1-3.3-.6-1.9-2.4-.6-.9-2.2v-2l-.8-2 1.3-1.1-1.7.2-.3.6-1.5-1 1.1.8.8 1.9-2.2-.4-.9-1.4-1.4-1.5-2.3-4.6-1.8-1.1 1.1-.8.4-1.9 1.8-2.9-1.3-.1.4 1.4h-.9v-1.4l-1.7-1-.8 1.3 1.7.9-.2 2.4-1.4-.5-1.6-1.4.4-1.9-.2-2.7 1-4.1v-3.9l-.8-.4-.4-2.6-1.1-1.2v-1l-1.3-1.3h-3l-.9-2h-.9l-1.1-1.4-2.4-1.3v-1.9l-1.9-.5-1.6-2.2-2-1.3-2.9-1.3h-1.1l-3.6 1 .2 1.4h-.9l1.4.9-2.4.2-4.4 3.1-1.9-.4.9.9-2.8.6-1.2.2v-1.6l-1.3-1.7-4.1-2.5h.9l1.6 1.2h1.5l-1.2.2-.6-1.3-.9.2-1.8-.9v.9l-3.6-1.8-5.3-1.1v-.3l3.8-.3-2-1.2-1.7.6-.9-.8-1.7 1.8-2.5.2-4.7 1.3 2.9-1.8-1.1-.6-.5.9-1.3-1.8-.2.5.2 1.6-1.1 1.4-2.5.8.3-1.4 1.1-.5-1.3-.6v-2.9l-1.6-.9-1.5-1.7.3-2 5.5-.5 4.7-.4h1.2l3.8-.3 2.6-.2 1.9-.2 6.8-.8h.1l6.1-.8 2.3 4.1zm-30.3 7.9-1.5.4zm68.6-6.6-.3-2.2 1 2 1.7 4.3zm6 11.5-1.9-3.3h.1l1.9 3.3zm-51.9 3.1.3.8-1.7-.5zm44.3 38.8 1.7 2.8-.4.2zm28.3 15.8-1.4 3.8-1.5 1.8 2-3.3z" stroke-width=".9256"/><path d="m807.2 268.4 2.8 1.6.6.4h2l1.3 2 .5 1 1.9 2.4.4.8 2.6 1.2 1.5 1.7 1.4 1.1 1.1.5h.2l1.1.8v1.2l1.2 1.5 1.1.5.2.8 1.5.4.9.5 2 3.7.4 1.9 1.3.3 2.2 2.6v1.5l.5 1.4.9.3.5 1.5 1 .5-.5.8-1.8-.8-.9.8 1.1.3v1.6l-1.9-.8 1.2.9.3.8-1.5.5h1.5l.3.6-1.4.6.3 2.4.6.4h-1.6l.8.5-.5 1.5.5 1.7-1.4-.3 1.5 1.5-.2 2.9-1.2.3-3.6-1-1.3 1.2v1.3l.6 1.1v2.7l-1.3.2-.5-.6-.3-2h-5.4l-5.1.3h-2.5l-2.9.2h-1.5l-3 .2h-4.2l-5.4.3-1.9-3.6-.4-1-1-1.1v-4.6l-1.3-3.1-.2-.2v-1l.6-1.8v-1l-.2-.9 1.4-1.5.3-.4-1.4-.8.3-.6-.5-1.7-1-1.2-.8-1.7-.8-1.5-.9-3v1.2l-1.1-3.9-.2-.8-.6-2.2-.9-3.2-.2-.8-.4-1.5-.8-2.7-.9-3-.2-.9v-.4l-.9-3-.4-1.6h3.6l3-.4 1.7-.2h.4l1.6-.2 3.1-.4 2-.2 1.3-.2h.8l4.1-.6h.8l4-.6v.9l-1.1 1-.9 2.3zm29.2 33.5 1 .3-.9 1.4-.6-1.2zm.9-3 1 .6-.8.9zm-.7 5-.2 1.8-.3-1.4zm-1.4 5.4h.1l.5 1.1-1 1.3-.5-.9.2-1.5zm1-3.2-.5 2.2-.8-1.2zm-1.1 8.2-.4 2.7-.6-1.8z" stroke-width="1.0548"/><path d="m433.7 61.5v1l2.2 2.2.4 1.5h2.5l-.4 1.8-1.5 3-.6 2.4-.6.8.8.9-.3 1.7h-.9l-.9.9.3 1.5-.9 1.4h.9l.9 1.6h.8l3.7-2.3v1.1l.9.4-.2 2.6.4 2 .9 2.3.9.9-.5 2.6.9 1.3 1-.3 1 .9.5 3.6v1l1.6 1.3.5-1.4 2.9.5.8.5 1.2-1.4 1.7.9 2.3-.2.3.9 2-.2 1 .3.8-2.3 1-.4 1.2 1.9-.2.6 1.5 1.6-1.1 6.6-1 6.5-.4 2.5-.6 4-1.1 6.8-1.1 6.9-4.4-.6-5.9-1h-.5l-8.2-1.5-10.2-1.8-2.4-.4-7.4-1.5-10.8-2.3-8.5-1.8h-.1l5.1-22.3.4-2.2.5-.4.8-1.3v-2.1l1-.6-.4-1.4-2.2-1.3.5-2.5 1-.6 1.6-2.5 1.6-1 .9-1.1v-1l.8-.6 1.5-2.3 1.9-2.9 1.2-1.3-.5-1.9-1.9-1.8-.8-2v-1.5l.5-.9-.8-2.6.4-1.1.3-1.5 1.7-7.6.4-1.7.3-1.4 1.8-8 .2-.9 2.5-10.4.4-1.9 8.6 1.8-1.4 6.6-1 3.6-.6 3.1 1.4 3.4.8 1v1.3l-.8.4 1 1.2-1 .5 1.3 1.3v.8l1.6.9 1.4 2.5.5 1.9z" stroke-width="1.0225"/><path d="m719.5 147.6h.4l4.5-.2h2.5l4.3-.3h1.2l4.2-.3v2.8l1 2.2 1 1.1 1.1 3.3 1.1 1.9.3 3.6.2 2.5.2 1.9.2 2.3.3 4 .3 3.7v.2l.4 4.8.3 3.9.3 4.1.2 1.9.2 1.9-.6 1.4v1.5l1.5 3.7v.8l.5 1.6-1.5 2.7v.8l-1.2.9.2.8-1.7 2.4-.9.2v.4l1 1-1.7 4.2.9 1.3-1.3 2.2.4 1.3.9 1-.2.5-2.3.4-.9.8-.6-.2-.6.5-.2 1.9 1.1 1.5-.6 1.3h-.9l-4.3-1.8h-.1l-1.7 1.1-.9 1.5.4 1.2-1.5-1.2-.5.9-.8-.4-1.5-3v-1.3l.6-1-1.3-2.4v-1.7l-1.8-1v-1.2l-2-1.4-1.1.5-.8-1.3-2.5-1.7-.5-.5-1.3-1.4v-2.4l.8-2h.1l.8-1.9v-1.6l.5-.5v-.6l-1.8-1-2-.5-1 1.5-1.4-.9-.9-4.2-.5-1.6-1.9-1.4-1.1-.5-1.8-2.3-1.5-1.2-.8-1.1-.9-1.2v-1.5l-.8-1.3-.2-2.4v-.8l.8-1.9.5-.3-.5-2.3.5-.9 1.8-.5.8-.9v-1.9l1.3-1.6v-2.2l-.5-1.2-1.4-1.2.4-1.4.3-1.3 2.7-.6 1.4-.2 3.3-2 .2-2 .8-.9.9-2.3v-1.5l-.2-1.3-1.7-1.1-.9-.4-1-2.3-2-1.3v-.4h2.3l5.4-.3h1z" stroke-width=".9364"/><path d="m769.7 151.5 4.4-.5.3 1 .3 2.7.2 1.7.3 2.5v.3l.5 4.2v1.1l.4 3.1.3 2.5.4 3.6v.6l.5 5v1.4l.3 3.1.3 2.6v.8l.3 3.6.3 3.2-.5 1.3.3 2 1 .6v1.2l-2.5.6-2 1.4-1.7-.5-1.4.5.5 1.9v1l-2.3 2.6-1.1 1.9-.6-.2-1.2 1.9v2.8l-.6.2h-2.3l-1.2-.6-1-1.9-1.5 1.2-.2 1.3v1.9l-1.7 1.5v-.9h-1.3l-1-1.3-1.9 1.3-1.1 2.4-2.5-1.2-.4-.3-1.9-.5-.8.6-1.2-1v2.3l-1.2-1-2.8.2.4 1.5-1.5.2-1-1.4 1.9-4.6-1-1v-.4l1-.2 1.8-2.6-.2-.8 1.3-1v-.9l1.7-3-.6-1.7v-.9l-1.7-4v-1.7l.8-1.5-.2-2-.2-2.2-.4-4.4-.3-4.3-.4-5.3v-.2l-.3-4-.4-4.4-.2-2.5-.2-2.2-.2-2.7-.3-3.9 1.2.8 2.6.2 3.3-1.7 1.2-1 3.6-.3 3.6-.3 1.9-.2 3.3-.3h1.5l4.3-.5h1.1z" stroke-width=".861"/><path d="m675.7 131.7 5.1-.2h5.2l3.8-.2h1.3l4.3-.2.2 1.2v1.1l1.6 1.3-1.2 2.7.3 1.4 1.2 3.6 1.9 1.1 2.2.5.8 1.8v.4l2 1.4 1.1 2.3.9.4 1.8 1.1.2 1.3v1.5l-.9 2.3-.8.9-.2 2.2-3.3 2.2-1.4.2-2.8.6-.3 1.3-.4 1.4 1.4 1.2.5 1.2v2.2l-1.4 1.6v1.9l-.8 1-1.8.5-.5.9.5 2.3-.6.3-3.6-3.4h-2.6l-2.7.2h-1.9l-3.2.2h-.9l-4.3.2h-30.1l-1.3-2.5.5-.5.2-1.8-.8-2.3v-1l-.4-.4.3-1.9-.5-1.1-.6-1.7-1.1-.3-.4-2.3.6-1.7-.9-1.1v-1.6l-1.5-1.1v-1l-1-1.6v-1l-.6-1 .2-2.2h-.5l-.5-1.1v-1.1l-1.3-1.2v-.9l1-2.2.3-2.2.6-.5-.2-2-.9-.6.3-2-.8-1.6h38.7z" stroke-width=".9148"/><path d="m586.7 188.6h.2l5.9.3h.2l5.9.2 4.8.2h42l2.5 1.9 1-.5 1.3 1.1v1.4l-.8-.2-1.1 1.7-.5 1.3 1.5 1.6 1 .6-.2 1.1 1.4 1.4 1.9.5v31.2h-49.3l-5.2-.2h-1l-5.2-.2h-1l-6.1-.2h-5l-5.5-.3-5.4-.3h-.1l.3-5.7.2-3.7v-1.4l.4-7.5.3-5v-1.2l.3-5.1v-1.3l.3-6.2.3-6.1 7 .4h1z" stroke-width=".9687"/><path d="m782.4 195.6 2.3.9 1.3 2v.6l2.2.5 1.7-.2 2.5 1.6h.6l1.4-1.2 2.9.9 1.3-.2 1.2-1.7 1.5-.6 1.2 2.6 1.8.8 1 1.1.3 2.6v1.6l1.1.9.9 1.7 1.2 1.2 1.2 1.5 2.8 2.5h1.8l-3.4 4.1-2.6 1.8h-.1l-1.7 1.5.2 1.1-1.5 1.3v1.4l-2.2.9-.5 1.7-3.7 1.6-2.4 1.3-2.9.5h-1l-2.5.3h-.4l-6 .5h-2.4l-3.6.2h-.2l-1.6.3-4.1.4h-7.3l-1.7.4h-2.4l-3.4.4h-.6l-2.6.2-3.6.3h-.6l-4.4-.2.4 2.7-5.1.3h-.3l-3.6.2h-.2l-6 .4h-.9l1-2 1 1 .8-1.4-.3-1 .9-1.1v-2.4l-.4-.5-.4-1.2.9-1.5 1.7-1.1h.1l4.4 1.8h.9l.6-1.3-1.1-1.5.2-1.9.6-.5.6.2.9-.8 2.3-.4.2-.5-1-1-.6-1.2 1.3-2.2 1.4-.2-.3-1.4 2.6-.2 1.1.9v-2.2l1.1.9.6-.5 1.7.4.4.2 2.3 1.1 1-2.2 1.8-1.2.9 1.2h1.2v.9l1.5-1.4v-1.8l.2-1.2 1.4-1.1.9 1.7 1.1.5h2l.5-.2.3-2.6 1.1-1.7.6.2 1-1.8 2.2-2.4v-1l-.4-1.8 1.3-.5 1.6.5 1.9-1.3 2.3-.6v-1.1l-1-.5-.3-1.9.5-1.2.8-.8 1.5 1z" stroke-width=".9364"/><path d="m669.7 314.4v-12.5h16.6l8.3-.2 7.6-.3h3.7v1.6l1-1.4.3 1.5-.8.8v1.5h1.1l-1.1 1.2 1.4 1-.3.2v1.6h1.4l-.2 1.3.6.1-1.1 1.8-1.5.2-.4 1.2h1.7l-.5 1.5-1.4.9-.6 1.4-1.2.4.4 1.4-.8.3-.2 1.7-1.2-.3 1.1 1.2-1.3.5.2 2.6-1-.5.9 1.9-1.7.5.9.9-.4 1.2.9.8-.9 1.1 5.9-.3h1.5l3-.2 3.3-.2h.2l2.6-.2h1.1l5.5-.3h1.4l-1.2 5.2.4 1.2 1.7 1.8 1.2 3.4 1.3.6-1.3.4-1.3 1.5-1.6 1 .9 1 .9-.4.3 1.3h1.3l.2-1.8 1.7-1.2.4 1.8.3.5 1.1.4-1.1.8.9.5-1.6-.2.4.9-2.7.2 1.5 1.4h-.2l-1 .2v.4l-1.2.3 1.1 1.4 1.7.9-.4.6h2.5l1.8 1.3.6-.8 1.6 2.4v1.4l-1.2 1.1-.9-.4-1.9 2.2 1.8-3.2-.8-1.2-1.7.6-.8-2-1.5-.9-2.4.2-.3-.4-.8-.4h-1.4l-2-1.3v-1.5l-.9-.4.2 1.6-.8.9 2.5 1.2v1.6l-.4.4.3 1.4-.3.6-1.6 1.3-.6-.8-1.4-2.5-.6 1.4v-.2-.2h.1l-2.5-.6.2 1.1-.3.5-.4-.2-.9 1.4h-1.7l-1.4-.3 1.7-1.2-1.6-.5-.4-.9-1.1 2.3-1.2-.6v-1.6l-1.7-1.5.4-2.2-1.3 1.6-1.3-1-1.8.6v-1.7h-1l-.2-1.7-2.9.2.3-1.4h-2.2v.6l-2.4 1.5h.9v1.3l-2.5 1.4-4.2-.5-4.4-1.7-3-1h-4.1l-3.3.5-1.2.6-1.2-1.6 1-1 1.7-2.9v-2.9l-.8-1.5.3-.9.5-.6-.5-1.4 1.4-2.2.9-2.9.5-2.5-.6-2.4h-.6l-1.1-1.8-.4-3.2-1.5-1.1.4-1.7-1.1-2.2-1.8-2zm60.3 36.1h-.1l-.2-.2zm0 0-.5-.3zm-31.4 1.8 2.5 1.1-1.7 1.2-2.5-1.2zm28.9 2.2.6 1h-1.9zm-20 1.3 1.1.8-.4 1.5-1.5-1.2z" stroke-width=".9148"/><path d="m953.8 66.4v2.4l-1-1.7-2.3-.2.8.6-1.3 1.4-.2-1.3-1 1.6 1.1 2.2-3.4-1.5.2-1.5-1.2-1.3v-.8 1.2l.8.2.2 1.4-1.6 1 .9.9-.3 1.6v2.4l.4.3-.9 1.9h-1.5v-.8l-.5-.8-.2 3.4-.8-.6-.9.9-.5-2.2-.3 1.2-.3.8.9.8-.3 1h-.1l-1.3-2.7v-2.3 1.9l-.5 1.3.4-.5.2-.4 1.3 2.8-.5.8-1.3-2.4.2 1.4-.8-.9-1.6 1.4-.5 1.9 1 1.3-1.4.8v2.6l-1 .6-.3 3.7-1.7-.4v-1.2l-2.3-1.6-.3-2.2-1.1-3.2-2.2-6.4-2.2-6.7-2.2-6.5.5-.8 1.8.4-.2-1.5 1.7-.2-1.2-1.5 1-2.5 1.3-1.3-.5-.6 1.1-1.6-1-1.5.2-1.8-.6-.4.3-2.3 1-1.2-.3-2.2-.2-1.6 4.1-11.8h1.8l.8 2.4 1.5.5 2.4-1.6v-.9l1.8-.5v-.9l1.1-.3 3.1 1.3 1.9 1.2 4.5 14.4.9 3.4 2 .4h1.5l-.3 1.4 1.1 1.1v1.6l1.9 1.6.2-1h1.3l1.9 2.3 1.1 1.7-1.3 2.7-2.9 1v1.6l-1-.2-.2 1.1-1.1-1.3-.4.8.2 2.3zm-5.2 4.9.6 1.4-1.1-.5zm2.6-3.2 1.3.4-.9 2.4-1.2-1z" stroke-width="1.0225"/><path d="m875 169.2 2.4-.5 3.6-.8h.1l1.1-.2 3.8-.9 1.3 4.8.3 1.2.2.8.4 1.4 1.3 4.4.8 2.7.3 1.1.4 1.4 3.9-.8 2.8-.6v3.1l-1.1.9-.6 3-2.6.9-2.8 1.7v-2.2l-.3-1.4-.9.9 1.3-2.4-1 .8-.3-.9.4-2-.9 2.8-2.5-.5-.9-.2-1.4-1.6.6-1.1-.4-1 1.2-.4 1.5.5.9-1.9-.9-1 .5-.8-.6 1.2.9.5-.4 1.5-1.9-1.2-2-.5.5-1.6 1.3 1.2-.5-1.3.6-1.3-.8.9-.3-1.3.3-1.8 1.2-2.6-1.1 2.3-.7-.4-.3 1.4-.9-1.2 1.1-3.6 3-.6-2.3.2.2-2.6-1.1.4v1.6l-1.4 1.3v-1.5l-1.3 1.4.4.8-.5 2-1.3-.2-.5.6h.2l1.5 1.4-1.1.4 1.6.6-.8.6.3 1-.5 2.3.4.8.6 2.6 1.9 1.8-.2 1.1-2.8-1.6-1.2-2.7.3 1.7v.6l2.9 2 2.3 2.3.2 1.3-1.7-1.3-3.2-1.2-.3.9-1.8-2 .6 1.7h-1l-1.7-1.9-1.6 1.6-1.1-1.6 1.6-3.4.3-1.8 1-1.4-1.2-.9-1.2.8-2.6-1.3h-1.5l-1-.9.5-1.3-1.4-1h-1.4l-1.6-2.3-.9-.8.3-.9-2 .2-1.9-.8-.8 1.3h-.8l-1.1.4v1.6h-2.2l-1.7-.8-1.4 2.8-1.2-.4-1.8 2.6-2 2.2-1.2-7.4.9-.2 5.1-1 1.3-.2 4.6-.9h.4l2.7-.5 6.9-1.3h.1l2.6-.5 2.4-.4zm7.8 9.5-.6 2v-2.8zm5.9 13.7.2.3h-.1l-.2-.2h.1zm-.1.1v.3h-.1v-.3z" stroke-width=".9471"/><path d="m929.9 111.3h-.2v.3l.5 1h1.1l.9-.4.4.2 1.7 1.5-.3 1.1 1.7.5.4 1.4 1.2.4h1.4l2.2-1.6-1.9-2.6 1.6 1 1 1.9-.3 1.3-3.1 1.5-.6 1.1-1.5.6-.2-2.7-.9.3v1.1l-.6.5-.4 1.3-1.5 1-.6-1.9h-.9l-.4-.4-1-.5-1.2-2.4h-1.1l-2.6.8-2.7.4h-.3l-3.3.8-4.4 1.1h-.4l-3.9.9h-.1l-.2-.4v-8.4l2.2-.4.9-.2 4.1-.9 1.5-.3 3.1-.6h.2l5.3-1.2.2-.5h.1l1.4-1.2v-.8l1.8-.6 1 1.8 2 .4-.3.8-1.8 1.2.2 1-.6.5zm7 10.1 1.5 1-2.4.9v-1.3zm5.5-.2.8 1.1-1.3.5z" stroke-width="1.1193"/><path d="m721.6 87.3-1.1-.5-9-1.8v.2l-2-.6-1.3-2.6-2-.8 4-1.9 1.4-1.5 1-.9 3.9-.6 1.8-1.1 1.2-1.4 1.9-.8.4-1.1 2.6-2.2v1.5l1.2.2.9 2.6v3l2.2-2.9h4.5l2 1 .8 1.4 2.8 3.2 2.3-.2 1-.6 2.3 1.3.6-.6 1.3.9 1.6-2.4 3.2-2.2 2.8-.5 4.1-.2 2.5-1.4 2.9-.5-.6 1.3.3 3 2.3.4 2-.9.5 1 2.5-1.6 1 1 1.2 2.6-.2 1.4 1.1-.3.6 1.2 2 1.4-2.3.3h-1.3l-4.6-.5-.9 1.4v1.8l-3-2.2-4.6-1-1 .2-1.2 2-2.3.2-.4.8-1.6-.5-2.6 1-.4 2-1 .5-2.5 1.9 1.6-3.2h-2.7l-.8 2.4-1.8-.3-1.3 1.5-.9 1.8-1.5 4.1-1.7 3.1-1.5-1.4.9-2.3h-2.6l.9-2.4-.5-.9.4-1.7-.8-.6-2.4-.6-.9-.5v-1.6l-3.2-.5-1.3-.6-1.6.2-2.7-.8zm61 7.3 1.1 2.3h-1.2l.2 2 1.3.9.9 2.2v5.9l-1.7 1.1-.4 1.7v1.7l-1 1-1.8.2-.5 1.4.4 3.6 2.5 1 1.7-2.5h.5l1.7-4.1 2.2-.9 1.2-1.1 2.2.9 1.5 2.3.6 2.2 1.3 3.8 1 4 1.4 2.8-.4 1.4v4.1h-1.4l-.8-.8-1.1 1.3-.2 2.6-.2 1.1-1.8 1.4-.6 2.4v2.2l-2.5 4.2v.9l-3.1.5-1.3.2-5.4.9h-.4l-4.5.8-.3-1-4.2.5h-1.1l-4.1.4h-1.4l-3.1.3-1.8.2-3.3.3-3.3.3 2.2-2.4 1.1-3.4 1.2-2.2.8-2.8.2-5.4-.5-3.3-.8-1.9-2.6-5.2-1.2-2.7 1-2.7-1.2-3.2 1.2-2.3 1.1-3v-2.3l-.3-2.8 1.6-1.3v-1.4l1.3-1.2h1.5l1.6-3.8.8 1.8-.5 2.8.2 1.6h.5l1-3.6-.2 3.8.8-1.8.4-4-.4-1.4v-1.1l1.6-1.5 1.1-.2 1.7-1.1h-1.2l-1.1-1.9 1.6-2.6 2.2-1.2 3.1 1.7h2.8l1.2 1.7h2.2l1.6 1 2.3.6.9-.2 1.4 1.2v1zm-57.4-25.8.9-1.3 2-1.4 3.8-.8 1.5 1-2.5.4.2.6-2.8 2.5-1.6 3.6-.4-1.7-1.9-.3-.2-1.5zm-2.4-12.7 2.2-1.1-2.5 3-3.1 1.7.5.4-2 1-.8-1.2zm56.5 28-3-.2 1.7-1.3-.5-1h1.4l1.4 1.4zm-7.9-8.4h.8l-.4 1.8-1.2-1zm-2.5 11.4 2.3.4-1.4.8zm-10.2 2.1.8 2.2-1.3.5zm-3.4 11-1.1-.4.6-.9z" stroke-width=".9041"/><path d="m650.2 48.2h1.6v-5.4l1.8.2 1.2 1.1 1.4 5.7v1.5l1 .9 1.5.2h1.1l.8.9 3.6.2.5 1.6 3-.5v-1.1l2.4-.8 1.1.2 3.4 1.1h.9l-.5 1.1h1.9l1.4 3.1 1-.4v-1.3h1.9l.5 1.3 2 .8.9 1.2h1.4v.9l3-.8 1.9-1.6 1.3-.9 1.5 2 5.7-.5 2.6 1.6 1-.5 1.9.3-3.8 2.5-4.3 1.6-2.7 1.6-2.7 2.4-4.1 5-2.9 2.7-2.8 2.3-1 1.8h-.9v7.1l-.4 2-3.4 1.8-1.1 2.3-.4 1.2v1h1.1l1.3 1.7-.9 2v1.2l-.3 1.8.3 3-.3 1.6.8.4 1.9 1.9 2.4.3.8 1.2 1.6.6 1.3.6 1.1 2.3 3.1 2.3 1.4.5 1.5 1.8.3 1.6v1.8l.6 1.6-4 .2h-9.6l-4.7.2h-34.8v-9.8-14.8l-.2-.9-2.3-1.3-1.4-2.4v-.1l1.8-1.4.9-2.7v-1.2l.2-1.3-.4-3-1.3-2.3-.4-1.9h-.1v-2.4l.4-1.9-.8-1.1v-6.7l-.4-2.5-1.2-2.8-1.2-4.2v-.2l.2-1.8-.4-3 .6-2-.5-1-.4-3.3z" stroke-width=".9794"/><path d="m734.9 265.3h.4l5.2-.4h.2l1-.2 1.4 1.5v48.1l.3 3.1.5 4.1.6 5.1.2 1.8.5 4.2.6 5.5v1.2l-1-1-2.8.9-1.9-1.1-5.4 2.4-.8-1.1.2 1.1-2.5 2.2-1.3-.6-1.3-3.7-1.8-1.9-.4-1.3 1.2-6.5-7 .3h-1.2l-2.7.2-3.7.2-3.1.2h-1.6l-6.2.3 1-1.1-.9-.8.4-.1-1-.9 1.8-.5-1-1.9 1 .6-.2-2.7 1.3-.5-1.2-1.2 1.3.3.2-1.8.9-.3-.4-1.5 1.3-.4.8-1.5 1.5-1 .5-1.6h-2.7l.5-1.3 1.6-.3 1.1-1.9-1.3-.3.2-1.4h-1.5l.2-1.7.3-.2-1.5-1 1.2-1.3-1.1-.2v-1.6l.9-.9-.4-1.6-1 1.4v-1.6l.5-.8-1.1-.8 1.5-.5-.9-2.5v-3.2l-1.3.6.2-1.4-.2-.5 1.2-.5-1.2-1.1 1.3-.8-.2-1.2 1.4.2-1.1-3.1 2.6-1.2-1-1.4 1.7-.4-1.5-1.4 1.2.3 1.3-1.5-.2-1 2.3-.9v-1.7l-.3-1.8 1.5-.6-1.4-.8 1.5-.4-.5-1.8 1 .4 1.3-.5.8-1.1-1-1.1 7.5-.4h1.1l3.8-.2h1.9l2.4-.2z" stroke-width=".8718"/><path d="m696.8 187.6v1.6l.9 1.3.8 1.2 1.6 1.3 1.9 2.4 1.1.6 2 1.5.6 1.1 1 4.5 1.5.9 1.1-1.5 2.2.5 2 1v.8l-.5.5v1.7l-.8 2h-.1l-.8 2.2v2.7l1.4 1.5.5.5 2.7 1.8.9 1.3 1.1-.5 2.2 1.5v.6l1.9 1v1.9l1.4 2.6-.6 1.1v1.3l1.6 3.2.9.4.6-.9 1.6 1.2.4.5v2.5l-.9 1.1.3 1-.8 1.5-1.1-1-1 2.2h-1.5v2.6l-.9.4 1.1.9-2 .2.9 1 .5.9-1 .8-.2 1.3-3.1.2-4.1.3h-1.1l2.2-3.3 1.5-1.7-.3-1.5-1.1-1.5h-.9l-4.4.2h-2.6l-4.2.2-3.4.2h-3.3l-5.6.2h-.3l-4.7.2h-4l-5.5.2h-16.4v-40.8l-2-.5-1.5-1.6.2-1.2-1.1-.6-1.6-1.8.5-1.4 1.2-1.9.9.3v-1.5l-1.4-1.2-1.1.5-2.7-2.2-1.3-.9.3-1.1-1.8-2.2-.6-.8-1.2-3.3-.6-1h31.3l4.5-.2h.9l3.3-.2h2l2.8-.2h2.7l3.7 3.3-.9 2v.8l.2 2.6z" stroke-width=".8826"/><path d="m535.6 42.7 8.7.8-.4 4.7-.2 3.1-.4 5.1-.6 7.9v.9l-.8 8.9v1.3l-.4 3.6-.3 4.4v.9l-.8 8.7-.4 2.8-9-.9h-.4l-8.6-.8-2.2-.2-15.3-1.9-3.1-.3-3.4-.4-10.8-1.5-8.3-1.1-3.1-.6-.8 4.3-.3 2.5-1.4-1.6v-.9l-1.2-1.9-1 .4-.6 2.2-1-.3-1.9.2-.3-.8-2.2.2-1.6-.9-1.2 1.4-.8-.5-2.8-.5-.5 1.4-1.8-1.4v-1l-.5-3.4-1-.9-1 .3-.8-1.2.5-2.5-.9-.9-.9-2.2-.4-2 .2-2.6-.9-.4v-1l-3.6 2.2h-.6l-.9-1.6h-.6l.9-1.3-.3-1.5.8-.9h.9l.3-1.6-.8-.9.5-.8.6-2.3 1.5-3 .4-1.8h-2.4l-.4-1.5-2.2-2v-.8l-.6-.6-.5-1.8-1.3-2.4-1.5-.9v-.6l-1.3-1.3 1-.5-1.1-1.2.6-.4v-1.3l-.8-1-1.3-3.2.6-3 .8-3.7 1.4-6.4 11.3 2.4 5.7 1.2 16 2.9 8 1.3 4.5.8 10.8 1.6 10.9 1.4 9.1 1.1 9.3 1.1z" stroke-width="1.0548"/><path d="m551.2 152 .8-8.8.4-5.7 5.8.5 5.3.4 2.2.2 7.4.5 8.9.5 10.9.5 7 .3h2.9l8 .2 1.9 1.7 1.6.6 1.2 1.1h.9l1-1.3 2.5.2h1.6l1.8-.2 1.5 1 1.5.5 2.3.9 1.2.8.6 1.8 1.9.5h.5v2l.5 1v1.1l1 1.5v1l1.5 1.1v1.6l.8 1-.6 1.7.3 2.3 1 .3.6 1.7.5 1.1-.3 1.9.4.4v1.5l.8 2.3-.2 1.7-.5.5 1.3 2.4.6.9 1.1 3 .6.8 1.7 1.9-.2 1 1.1.8h-42.5l-5-.2-6-.2h-.3l-6-.3h-.2l-6.2-.3h-1l-7-.4.3-5.1v-1.3l.2-3.8v-.8l.2-3.7-6.1-.4h-.1l-7.9-.5h-2l-5.2-1.3.5-5.7.2-2.5v-1.9z" stroke-width=".9471"/><path d="m372.2 130.4 10.5 2.6 11 2.5h.1l8.2 1.8 10.4 2.3 7.2 1.4 2.3.4-2.5 12.9-2.3 11.4-.5 2.7-.9 4.7-2.2 11.2-.2 1.4-1.1 5.5-1.4 7-1.5 7.9-.4 2-1.5 8.4-1.5 1.9h-.9l-1.1-1.9-2.7-.5-1.4.4v3.1l-.5 4.4.3 2.6v2.2l-1 .6v1.3l-8.4-12.6-1.9-3-10.5-15-5.3-7.9-4.6-7-5.6-8.4-1.3-1.9-1.8-2.9-2.5-3.7-.8-1.1.2-.9v-.5l.2-.6.4-1.9.4-1.7 1.2-3.6 4.8-18.7 2.7-10.3 6 1.5h.3z" stroke-width="1.0548"/><path d="m927.1 92.1.3 2.3 2.3 1.6v1.3l-.4.9.5-.6 1.3.8-.4 2.6-2 .8v.8l-1.5 1.3h-.2l-.2.6-6 1.4h-.3l-3.6.8-1.7.3-1.4-1.5.5-2.4-.5-2v-1.1l-.6-4.7.4-.5v-1.1l.6-1.3.2-5.6-.5-2.3 1.8-.9.5-1 1.4-1.8v-1.2l-1.5-1.9.8-2.6-.4-1.4.4-3.8.6-.6 1.6.5.3-1.1 2.3 6.7 2.2 6.9 2 6.7z" stroke-width=".9902"/><path d="m900.1 141.5 3.6 1.1-.2 2.9-.3 2-.6.4v-1.3l-.3.8-.2 1.3-.3 1.6.6.4h2.4l.5 1.4v2.8l.3 4-.5-1.6-.3 2.7.5.4-1.4 2.3-.9.3.6 2.6-2.3 1.6.3.4-.9 3.8-.6 1-1.1.2.2-2.2-.4-1.1-2.8-.2-2.4-1.1-.5-.4h.1l-1.6-1.2-.5-1.4v-.3l.9-2.4 2.7-2 .4-1.6h-.1l.6-1 2.3-1.9-2.8-2.2-1.4-.9-.4-1.3-1.4-.4v-.2l-.2-2.4 1-1.5-1-1.2 1.2-2h-.2l1-2.8 1.2-1.4 3.8 1.3 1.5.4h.2z" stroke-width="1.0117"/><path d="m521.7 238.2h.6l11.7 1.1 9.4.6h.9l-.4 6.5h-.4l-.4 5.8-.3 4.1v1.7l-.4 5.7-.2 3-.2 2.7-.4 5.7-.5 6.2-.3 3.3-.2 2.4-.5 5.6-.4 5.7-.4 5.6v1.1l-2.9-.2-4.3-.3-2.8-.2h-.4l-8.9-.8h-.8l-11.8-1.4-4.1-.4-2.6-.3-.4 1.7 1.1 1.2-8.4-1-9.9-1.2-.8 5.8-9.1-1.2 1.9-14.1.6-4.5.8-5.6 1-7.3 1.4-10.3.6-5 1.8-13.5 1.8-12.9 6.8.9 9.1 1.2h.6l9.6 1.2 4.7.5 2.9.3z" stroke-width="1.0655"/><path d="m895.6 92-.4 1.1v2l1.3 2.9.3.6-.2 1.6h1.2l.8.9.8 3.1 1 4.8.8 2.6v9.1l-.1.4h.1l.9 5.1.3 1.8.3 2.2 1.1 1.8-2 2 1 1.3v.2l-1.1 1.5.2.9-1.1.5-.6 1.5.3-2.6v-2.7l-.4-1.4-1.4-1.5h-.1l1.3 2.2.5 1.8-3.4-1.1h-.1l-1.5-.4-3.8-1.3-.8-.8-2.4-.2-1.2-1.4-.3-2-1.2-1.1h-1.2l-1.4-1.6-1.2.3-6 1.3h-.4l-4 .9-3.6.8h-.4l-6.2 1.3-1.4.3-4.4.9-1 .2-5.9 1.2-1.4.2-5.3 1-1.5.2-.6-3.6 1.8-1.6 1.8-2.3 1.6-1.2.5-1.7 1.6-1.6-1-2.2v-1l-1.9-.5-.4-2.4 2.4-1.3 3.1-1.2 4.5-.8h2.3l2 1 1.7-.9 2.2-.6h1.5l2.4-1.6.8-1.2 1.6-1.8 1.6-.4v-2h-.2l.2-1.7h-.9l1.4-1.1-1-1 .4-1.4-1.2 1.1-1.4-1.1.5-1.3 3.7-3.6.5-1.6 3.6-5.4 2.5-2.4 2.3-.6 6.5-1.5 6.2-1.7.2 2.4.5.3v2.6l.4.6.2.2.8 1.4zm-50.3 27.1 1.1.3-.2 1zm57.4 21.7.2-.3h-1.2v1h-1.7l.3-1.8.3-.9 1.6-.2v-1.3l1.3-1 1.2.5-.5-.8 2.7-.4.4-1 3.8-.9 1.3-.5 2.6-2.9-1.1 2.4-1.1 1.3h1.1l1-1.7 1.7-1.1.9.5 1.6-1.7.4.3-4.7 4-.8-.2-1.2 1.5h-.8l-1.3 1.3-1.4.2-1.1 1h-.9l-1.7 1.2-2.9 1.6zm-3.1.4v1.3l-1.3 1.1.2-2z" stroke-width="1.0332"/><path d="m835.2 228.8h.8l2.6-.4 2-.2 4.5-.6h.3l3.7-.6 2.4-.4h.4l1.5-.2 1.4-.2 1-.2 4-.8h.8l3.2-.6 1.5-.3 3.2-.6 1.7-.3 1.5-.3 5.4-1.1 1.5-.3 2.9-.5 4.3-.9h.5l2-.4 2.2-.4 1-.2.9 1.9 1.7 1.6 1.6 2.9-2.4-2.5-1-1 1.7 2.4h-1.3l-3-2.2.4 1.1 2.3 1.7-1.2.6-1.7-1.1 1.4 1.4-.6.2-2.6-.9 2 1.2-2.2.5h1l-1 1.2-2.3-.4-.5-1.1v-2.3l-1.3-.6-2-.2 1.9.3 1.1 1.5v1.4l1.3 2.2v1l3.3-1.6.5.6 2.2-1.4 1.3-.2 1.2 4.4-1.4.2h1.5l-.3-3.2 1.9-1 .9.4 1 3.8-1.3.9-.5-1 .3.9-1.2 2.8-1.2 1.4h-1.3l-1.8-.9-.8 1-1.7-1.7h1.2l-.2-1-1.5 1.2 1.1 1.6-5-.4-1.5-.9h-.1l1.9 1.4 4.3.5.3 1 1.2-.9.4 1.4-1.7 1.2h1.3l-.3 1.2-2 2-1.9-.9v-.6l-1.2-.4-1 1.2h.2l.8-.5 2.2 1.8 2.7.3v-1.1l2.8-1.1-.3 1 2.2-.8-1.6 2.5-.4 1.5-.8.2-.9-1.2-.5 1.6-2.4.3-2.3 1.3-1-1.2.6.8-2.2 3.1-1.8 1.6-2.2 2.7h.3l-1.3 2.4-.4 1.6-.9-1.9.6 3.2-.5 1.4h-1.7l-3.1.9-1.5.8h-.2l-1.1-.8-5.9-4.3-5.3-3.9h-.1l-3.1-2-2.8.4-4.6.6-2.9.4-2.8.4v-1.7l-.9-.9-1-1-1.5.8v-1.3l-3.6.3h-1.5l-4.7.5h-2.2l-2.9.3-1.6.3-2.6 1.1-2 1.4-1.5.4-1.4.7-1.1.5-4.4.8h-.8l-4.6.6h-.9l-1.5.2-2.3.3v-3.2l.9-1 1.1.2 1.1-.9v-1.6l.6-1h-.3l1.9-1.7 1.3-.3 1.9-.2 2.6-2.4v-.3l1.9-1.4 1.4-.2.4-2.4 1 .2.3-1.1 1.6-1.4.4.3v1.1l1.2-.3.9-1.5 2-1.6 1.7.5 1.4-2.7v-.3l1.9-1.8v-3l3.8-.4zm60.2-6.3-.6-.8-1.6-3.7h.2l2 4.5 3.6 4.8-2.5-2.2zm-3.8-4.1 1.1-.2h-1.1zm7.3 19.1 2.5-1.7-.3-4.6-.4-1.3.5 1.1.3 5.6-2.5 1.1z" stroke-width=".9364"/><path d="m596.6 44.1 6.4.2 5.1.2 10.1.2h7l.6 3.4.5 1-.6 2 .4 3.1-.3 1.9v.3l1.2 4.3 1.2 2.9.4 2.5v7.1l.8 1.1-.4 1.9v2.5h.1l.4 2 1.4 2.3.4 3.1-.1 1.6v1.3h-14.5l-7.2-.2h-2.8l-7.2-.3h-1.6l-6.4-.3-15-.9-9.5-.6h-.5l-10.6-.7.4-4.8.3-3.8v-1.8l.9-9.9v-1l.8-8.6.4-5.6.3-3.6.4-5.3 10.7.9 8.8.6 5.1.3z" stroke-width=".9471"/><path d="m824.7 155.1.5 3.3v.8l.5 3.2-1.5 1.1 1.1 1.6-.2 1.1.5 1.1-.6 2.2-.2.4v3.8l-.6 1.1.2 1.9-1 1.9-.9 1.2-.8 1.4-2.6 2.2-1-.9-1.1 1.2v1.2h-1l-.4 1-.3.5.3 1.2v2.7l-1.3.9v-.9l-1.4-1.2-1 1.2-.2 1.9-.8.9.9 2.7-.4.2-.9.2v2l-2 .9h-1.1l-1-1.2-1.8-.8-1.2-2.6-1.6.6-1.2 1.8-1.3.2-3-.9-1.4 1.2h-.6l-2.6-1.6-1.7.2-2.2-.5v-.8l-1.3-2-2.3-.9-1.3.4-1.5-1-.8.8-.3-3-.3-3.2v-.6l-.3-2.4-.3-2.9v-1.3l-.4-4.6v-.6l-.3-3.3-.3-2.4-.3-2.9v-1l-.4-4v-.3l-.3-2.4-.2-1.6-.3-2.5 4.5-.6h.4l5.3-.9 1.3-.2 3.1-.5h.3l3.4 1.2 2.4 1.3 1.4-1.2 1.3 1.1-3.3 1.2h1.6l2.2-.9 2.4 1 1.6-1 3.6-1.8h3l2.5-2.6 1.9-2.4 2.9-1.8 5-2.7.3 1.9.9 5.2z" stroke-width=".9148"/><path d="m647.7 239.9h4.7v6.7l.6 4.5v.8l.6 4.5.2 1.6.5 3.2v23.4l-2.8-.9-.3-.8-1 .2-1.2-1.5-2-1-.6-.3-1 1.1h-2.4l-.5-.6-1.7.9-1 .4-1-.6-1.7.4-1 1.3-2.2.4-.5-.6-2.3-.9.4-.6-.8-.2-1.3 1.1-1.1-.3-.8-1.3h-.1l-1.6 2v1l-1.1-1.1.2-1.3h-1.3l-.8.9-1-.3-.2-1-.9.2-1.4-1.2-1.8 1.7-1.2-.5.4-1.3-1.5-.2-.5-1.9-.3.4-2.2-.6-.6 1-.6.2-1.3-1.3-1.7.2-2-1.1h-2.6l-.2-1.6-1.7-1.7-.2 1.1-.9-.3-1.1-.3-1.3.4-1.5-1.7-.9-1h-.8v-19.7l.2-5.9-5.7-.2-4.3-.2h-1.4l-5.6-.3-4.3-.3h-1.4l-8.8-.6.5-6.7 10 .8h.1l5 .3 5.1.2h5.4l5.7.2h.9l4.8.2h46.6z" stroke-width="1.044"/><path d="m348 55.8-.3 1.7-.2 1.1 1 .9 3.3 1.8 3.4-.5 1.3-.4 2.8.5.6.5 2 1v.8l2.7.4 2.8-.6 1.5 1 2.6.2 2.4-.6h1.3l1.9.2 1.2-.6 1.3.4 2.9.5 1.5-.5 9.4 2.3h.2l3.6.9 1.2.3 5.4 1.3.8 2.2 2 1.9.4 2-1.2 1.1-1.9 3-1.5 2.4-.8.6v1.2l-1 1.2-1.6 1-1.8 2.6-1 .6-.5 2.5 2.2 1.3.4 1.4-1 .8v1.5l-.8 1.4-.5.4-.5 2.2-5 23-11.7-2.7-11.4-2.7h-.4l-6.4-1.6-8.8-2.3-5.6-1.6-8.2-2.8-9.4-2.7-2.9-.8-3-.9-3.9-1.2-1-1.8.2-3.3 1.4-3.1v-1.2l-.6-1.3v-1.6l1.2-1.3 2.4-4 3-4.1 1.6-3.2 2.2-5.4.9-1.8 1.8-5.5 1-1 .5-1.6 2.2-4.6 1.2-5.2.4-2.3.9-.6v-3.2l.9 1h1.4l1.6.8 1.1-.4.8 1.7h2.5l1.6 1.9z" stroke-width=".9902"/><path d="m844 138.1 6.6-1.3 1.1-.2 4.8-.9 1.5-.3 6.9-1.4h.4l4-.8 4.4-1h.4l6.7-1.4 1.3-.3 1.5 1.7h1.3l1.3 1.3.3 2.3 1.3 1.6 2.6.2.9.9-1.2 1.5-1.1 3h.2l-1.3 2.2 1.1 1.3-1 1.6.3 2.5v.2l1.5.4.4 1.7 1.5.9 3 2.3-2.4 2-.8 1-.5 1.7-.8.4-2 1.4h-1.9l-1.7 2.2-3.8.9-1.1.2h-.1l-3.7.8-2.4.5-2.4.5-2.4.5-2.7.5h-.1l-7 1.3-2.7.5h-.4l-4.7.9-1.4.2-5.1 1-1 .2-3.2.5-1.7.3-5.6 1-1.1.2-.5-3.6v-.8l-.3-2.2-.5-3.6-.2-1.2-.4-2.4-.5-3.1v-.8l-.5-3.3-.9-5.2-.9-5.2-.3-1.8 1.9-1.2 5.5-4.4.6 4 1.6-.2 5.9-1.1z" stroke-width=".9364"/><path d="m932 121.7v1l-1.2-1.2h-.4v1.5l.6 2.3-.3 1.4-3.3 1.7v-.3l.2-1.2-.5-2.3v-.5l-.3-1.1-1.1-3.6 2.8-.9h1.2l1.3 2.5zm.3 1 .2 1.9h-.8zm1.4 1.5-.5.6-.8-2.8h.6z" stroke-width="1.0548"/><path d="m825.9 253.3h1.3l4.7-.5h.4l3.6-.3v1.5l1.5-.8 1 1 .9.9v1.7l2.8-.4 2.9-.4 4.6-.6 2.8-.4 3.1 2h.1l5.3 3.9 5.9 4.2 1.1.8v.3l-2.6 2.2-1.8 2.9-1.2 3.1v1.9l-1.3-.6 1.4 1.8-.9.6-1.7-.3 1.7.5-1.5 1.7-1.7.3-1.8 2.8-1.1 1.4-.6-.2 1-2.4-1.3 1.8-.5-1.1.6 2.3h.6l-1.1 2.2-2.9 1.8-1.1.6-1.2-1.4.3 1.4-2.2-.5.3.9-2.5-.2-.5.9-.4-1.1.3 1.6v.6l-.2.3 1.3 1.1-.4 2.2-1.4.5v.9l-1.9-.3-.5-1.5v-1.6l-2.4-2.9-1.4-.3-.5-2.2-2.4-4.1-1-.5-1.7-.4-.3-.8-1.3-.5-1.4-1.6v-1.4l-1.2-.9h-.2l-1.2-.6-1.6-1.2-1.7-1.8-2.9-1.4-.4-.8-2.2-2.6-.5-1.1-1.4-2.3h-2.3l-.8-.5-3.1-1.8-.2-.4 1-2.6 1.3-1.1v-1.5l1.1-.5 1.3-.6 1.5-.4 2-1.4 2.5-1.1 1.6-.3 2.9-.3h1.1zm20.3 40.2.8.6-1.5 1.8zm.3-3.4h1.2l1.4 1-1.2 1-.5 1.5-.9-1.4zm-1.2-.5h.8l.8 3.2-1.4-1-.8-1.4z" stroke-width=".9364"/><path d="m591.6 94.3 5.9.3h1.5l6.7.2h2.5l6.7.2h13.5l-.9 2.5-1.7 1.3v.9l1.3 2.3 2.2 1.3.2.8v14.3 9.4h-1.4l.8 1.4-.3 1.8.8.5.2 1.8-.5.4-.3 1.9-.9 1.9v.8l1.1 1.1v1.3l.5 1-1.8-.4-.6-1.7-1.1-.8-2-.8-1.4-.5-1.4-1-1.7.2h-3.8l-.9 1.2h-.8l-1.2-1.1-1.5-.6-1.8-1.6-7.3-.2h-2.7l-6.5-.3-10-.5-8.3-.5-6.9-.4h-2l-4.8-.3-5.3-.5.5-6.4v-.5l.4-4.7.3-3.9v-.5l.4-5.3.4-5.7.4-2.9.8-8.9v-.9l9.8.8h.5l8.7.6z" stroke-width="1.0332"/><path d="m755.1 236.9h.6l3.7-.4h2.5l1.8-.4h7.6l4.3-.4 1.7-.3h.2l3.7-.2h2.4l6.4-.5h.4l2.6-.3h1l3.1-.6 2.5-.3 5.9-.8 1.8-.2 2.7-.4 3.8-.5h1.8l3.9-.9 2.2-.3-.3.4v3.1l-2 1.9v.3l-1.4 2.8-1.8-.5-2.2 1.6-.9 1.6-1.3.3v-1.1l-.4-.3-1.6 1.4-.3 1.1-1-.2-.4 2.5-1.4.2-2 1.4v-.5l-2.7 2.5-2 .2-1.3.3-2 1.8h-.1l-.6 1v1.7l-1.1 1-1.1-.2-.9 1.1v3.4l-3.8.4-1.9.2h-.4l-2 .2-3.6.4-1.2.2h-3l-3.2.3-5.6.5h-.5l-5.8.5h-.9l-4.7.3h-.3l-4.7.3-4.7.3-2.7.4-2 .2h-.2l-5.1.4h-.3l-2.4.2-2.3.2h-1.9l-3.7.2h-1l-7.3.4 1.2-.5.4-1.5 1.3-.4-.2-1.3-1-.4.9-2-.9-.8 1-.4.2 1.1h.1v-2.4h1.5l-.6-.8 1.2-.8-1.3-1.5 1.6-.4 1.4-1.3-.5-1.1h1.2l-.9-1.5.2-1.3 1-.8-.5-.9-.9-1 1.9-.2-1-.8.8-.4v-2.5h2.4l6.2-.4h.2l3.7-.2h.3l5.3-.4-.4-2.8 4.6.2h.6l3.8-.4z" stroke-width=".8933"/><path d="m557 249.8 9.6.6h1.5l4.6.3 6.1.3h1.5l4.6.2 6.1.3-.2 6.5v14.7l-.2 4.1v2.7l.9-.2.9 1.1 1.6 1.9 1.4-.5 1.2.3.9.3.3-1.2 1.9 1.8.2 1.8h2.8l2.2 1.2 1.8-.2 1.4 1.4.8-.2.8-1.1 2.3.6.3-.4.6 2 1.6.2-.5 1.7 1.3.6 2.2-1.9 1.5 1.3.9-.2.2 1.1 1.1.3.8-1 1.4-.2-.2 1.4 1.2 1.2v-1.1l1.8-2.3h.1l.8 1.4 1.2.3 1.4-1.2.8.3-.4.8 2.4 1 .5.8 2.4-.5 1.1-1.4 1.8-.4 1.1.6 1-.5 1.9-1 .5.8h2.2l1.1-1.2.8.3 2.2 1.1 1.4 2.2 1-.3.3.9 3.1.9 1.2 1.3 2.7-.6 1.4.5v19.5l.4 3.1 1.7 1.9 1.1 2-.4 1.7 1.5 1 .4 3 1.1 1.8h.5l.5 2.3-.5 2.3-.9 2.8-1.3 2 .5 1.4-.5.6-.3.9.8 1.4v2.4l-1.6 2.7-.9.9 1.2 1.5-2.2.2-4.2 1.7h-.2l-4.8 2.4 2.4-1.9 1.2-.4-1-.2-2.4.6.5-3.3-1.4-.5-.9 1.8h-.6l-1.1-.4-.8-1.6-.3.9 1.5 1.3-.4 1.8 1.4.8-.5.4.9 1.3-.6.6-.4-.2-1.4 1.6-1.2.3-1.1 2.7-2 1.8-1.3.5-2.3 1.4-1.2-.2-1.8.8-.3 1 3.2-1.4-8 4 3.7-2 .9-1.1-2.4.8-2-.5-.9-.4-.4-.4v1.4l-1.4-.5-.3-1-1.1-.2v.3l.6 1.5 2.7 2.3-3.2 1.7-1.7-1.8-1 .4.9 1.4v1.3h-.1l-.4.4-1.5.9-.8-1.2-2.9 1.9 1.1.2-.3 1.1 2-2v1.2l-1.4 1.8h-.1l-.6 1-1.1-.9-2.8.5h1.3l.6 1.7 1 .3-1 1.9-1.2 3.4-1.2.6.5-1.8-1.9 1.2-1.5-1.4.9 1.8h.2l1.3.6 1.6-.4-.3 2-.3 1.4-1.1.5v2.2l1 1 .3 2.3.2 1.2v1.1l-.3.4h.8l1.2 3.1-.2 1 1.3.9-.5 1.4-1.6.9v1.8l-1.9-.6-2.4-2.2-2-.5h-4.3l-2.5-1.5-.8-1-1.8-.5-1.2.2-1.6-1.8-4-1 .3-.8-1-1.4-1.2-3.9-2.2-2.6.3-2.2-.3-1.3-.6-1.1.4-1.9-1.4-2.4-1.5-.3-2-2-.6-2.6-.6-.2-1.2-2.3-1.5-.8-1-1.3-1.2-4.4-1.2-1.1-.5-2.4-1.2-1.7v-2l-1.3-1.4-.2-1-2.6-1.9-.6-1.4-2.5-1.3-.4-1.5-1.8-2.2-1.1.3-2.8-.5-4.4-.4-2.5-1.4-1 1.6-1.5-.4-1.9.4-1.9 3.1-1 2.3-.2 2-1.3.3-2.3 2.9-3.4-1.3-1.4-1.7-2-.5-.9-1.2-2.2-.6-1.3-.9-2-2.6-1-.2-1.9-1.9-1.7-4 .2-3.8-1.8-3.2v-1.7l-1.2-1.8-2.6-2.8-2.2-1-1.8-2-.4-1.4-1.9-1.4-1-1.8-1.4-1.6-2.6-1.6-1.6-3.9-1.7-1-1.2-1.3.4-1.9 2.9.3 4.5.4 12.9 1.3h.9l9.9.9h.5l3.1.2 4.7.3 3.1.2v-1.3l.4-6.2.4-6.2.5-6.1.2-2.6.3-3.7.5-6.9.4-6.2.2-3 .2-3.3.4-6.4v-1.7l.3-4.5.4-6.5h.4zm95.5 105.9-.8.8-4 2.8 3.2-3zm-26.3 17.6.5-1.1h1.1l1.4-1.3 2.5-.9-5.5 3.7v-.3zm-.5.6-1.5 2 .2-1.1zm-6.6 16.7-.2-3.7.2-1.3v-1.8l1.4-2.9h.5l-1.6 4.2-.4 2.5v2.9zm2.7-11.7 1.2-1.5-1.6 3zm-1.4 17.2h-.1l-.9-.6.3-.5-.3-1.1.3.3.2.8zm-.6-2.1-.6-1.1-.2-2.3h.1z" stroke-width=".9687"/><path d="m461.9 147.7-.9 5.6-.8 4.4-.5 3.4 9.9 1.5h.4l9.5 1.3-.6 4.6-.9 5.8-1.1 7.5-.3 2.2-.2 1.7-1.7 11.6-.4 4.7-.5 3.7-.8 5.3-1 6.6-10-1.4-7.9-1.3-7-1.1-11.8-2-3.8-.6-11.7-2 1.5-8.1 1.4-7.2 1.1-5.6.2-1.4 2.3-11.5 1-4.8.5-2.8 2.2-11.8 2.6-13.2 10.1 1.8 8.2 1.4h.5l5.9 1z" stroke-width="1.0225"/><path d="m911 74.5 3.7-1.1.4 1.3-.8 2.5 1.5 1.9v1.3l-1.4 1.8-.5 1-1.7.9.5 2.3-.2 5.5-.9 1.2v1.3l-.4.5.6 4.6v1l.5 1.9-.5 2.4 1.4 1.5-4.6 1-.9.2-2.4.5-.8-2.6-1.1-5.1-.8-3.2-.8-.9h-1.3l.2-1.6-.3-.8-1.3-3v-1.9l.5-1.2-.1-2.2-.8-1.5-.3-.2-.4-.6v-2.6l-.5-.3-.2-2.4 1.4-.4 6-1.4z" stroke-width="1.0009"/><path d="m863.3 183.2.6-2.9h1.7l1.4 1-.5 1.2.9.9h1.5l2.6 1.3.3.2.8.9v.8l.3 1-1 1.4-1-.2-.2 2.5.2 2.4h1l1.9-1.4.5 1.8 2.4 1.1 2.5-.3 1.3 1.3-.5.5 1.1-.2 2.9 1.3-.6 2.8.2 1.1h-2.2l-1.3-1.8h-1l-2.6-1.9-.6-1.2-1.6-.9.2.8 1.5.2.3 1.3 1.6.9 1.6 1.5 2.2 1.9 2.7.2-1.2 1-1.5-.5 1.4.5.8-.3 1.5 1v1.8l-2.3-1.6 1.2 2.5-1.2.5-2.8-2.4-1.4-1.7-1.8.4h1.7l1 1.2 1.2 1.1.8.8 2.8 1.1v.9l.5-.4v.4h1.3l-1 1.6-3-1.4v-1.2l-.5-.6h-2.6l-.4-1.7.3 1.5-1.6-.4-2.7.4v-.9h-.8l.2 1.1h.8l1.7-.5 1.2.9h2.4l1.6.6.5 1.4 2 .8-.3.8v1l1.2-1.1.4.8v.4l1.2-.5h1l-1.4-.3-.2-1.3 1.7.2 2.2-.3 2.5 4.7h-.3l-1.1-2.3v2.5h-.6l-1 .2-2.2.4-1.9.4h-.5l-4.2.9-2.8.5-1.5.3-5.3 1-1.5.3-1.6.3-3.3.5-1.5.3-3.1.5h-.6l-3.8.6-.9.2-1.4.2-1.4.2h-.4l-2.3.4-3.4.5h-.3l-4.3.6-1.9.2-2.5.4h-.8l-5.1.6-3.7.3.3-.4-2 .3-3.6.8h-1.6l-3.6.5-2.5.3-1.7.2-5.5.6-2.3.2 2.3-1.2 3.4-1.6.5-1.7 2-.9v-1.2l1.5-1.2-.2-1 1.6-1.4h.1l2.5-1.7 3.3-4 .5.3-.6.5 1.9 2.6 1.4.5h2l1.9-2.2 1.7 1.2 2.6-1.3 1.3-1-.3-1.2 1.1.6 2.6-2 .5.8 1.7-1.5-.4-.8 1.1-1.1-1-.8 1.1-2.8 1-1.3.8-1.7v-1.7l1.2-1.4-.2-.5 1-1.9v-1.1l1.3.3.9 1.2 1.8.3.9-1.1 1.1-4.3.4-1.4 1.6 1 .5-1.9.6-.4 1.5-2.5.3-.5.9-1.3-.4-1.2.5-1.5-.3-1.6 1.5.9 2.5 1.4zm26.1 17.7h-1.1l1-3.2 1-1.2.2-2.4 2.6-.9-.5 1.8h.5l-1.5 3 .2 1.8-1.6 1.4-.8 3v2.8l-1-1.8.2-4.3z" stroke-width=".9687"/><path d="m396.6 17.1 5.5 1.3 6.7 1.5 3.4.8-.4 1.9-2.4 10.4-.2.9-1.7 8-.3 1.4-.4 1.7-1.7 7.6-.3 1.5-.4 1 .6 2.6-.5.9v1.4l-5.1-1.2-1.1-.3-3.3-.9h-.2l-8.9-2.2-1.5.5-2.8-.5-1.3-.4-1.1.6h-1.7-1.3l-2.3.6-2.5-.3-1.4-1-2.7.6-2.6-.3v-.8l-1.9-1-.6-.5-2.6-.4-1.2.4-3.3.4-3.2-1.7-.9-.9.2-1.1.2-1.6-.4-3.2-1.5-1.8h-1.5l-1.2-1.9-2.3-1.1-1.5.2-1-1.4-.8.5 1.7-3.9-.6 2.7h.5l1.2-2-.3-1 1.5-1-1.6-.2-.5-1.4v-1.5l.8.4 2.3-.2-2.6-1.7.3-3.6-.4-1.2.4-2.4.2-2.9-1.1-2.2v-4l1.7-2.5 1.7 1.9 1.1.6 1.9 1.9 2.4.6 2.5 1.5 2.6.2 1.3 1.6 1.1-.6.9 3.7h-.6l-1.4 1.8v-1.7l-1.4 1.9-.9.5-.6 1 1.3-1 1.4.4 1.1-1.5 1.8-1.1-.3 2.3-.6-.3-1.1 2.3.8 1.1-.9 1.2-.9 1.8-.6-.6.9-1.4h.1l-1.1.6-.9 2.2-.3-1.2.6-1.4-1.4.6-.4 1-1.5 1 1.4-.6-.9 1.1.9.2 1.2-1.1.8 1.3 1.3-.9 1-1.5 1.1.2h1v-3l.9-.2-.6-1 .5-1.4 1.4-1.9 1.3-.9-1.1-1.2v-1.7l-1 .4.5 1.4-1-1 .2-1.5 1.1.3.3-.5-1.9-2.2v-1.1l.9-.2.9 1.2.6-2.5.3-1.2-1.2-.8-.9-2.5.8-.6 8.5 2.5 7.7 2 6.8 1.8zm-36.2-3.5v1.7l-.9-.8zm-2.1-1.7.9 1.1-.5 1.3-.6-.8zm2.5-.5 1.2 1.1-2 .3-.3-.9zm1.5 4.9.4 1.4h-1.5l-.9.5 1 .5v2.5l.4-1 1.1 1.2-.4 1.6-1.5-2.2.4-1.6-1.1-1.3 1.4-2zm-2 9v1.6l-.8-.4zm-.3 4-1 .5 1.1-1.9v1.4z" stroke-width="1.0332"/><path d="m837.1 176.1 1.7-.3 3.3-.5 1.3 7.9 2.2-2.3 1.9-2.7 1.3.4 1.5-2.9 1.8.9h2.3v-1.6l1.1-.4h.9l.8-1.3 2 .9 2.2-.2-.4 1 .9.8 1.7 2.4-.8 3.1-2.8-1.5-2.6-1.5-1.6-.9.4 1.7-.6 1.6.4 1.3-1 1.4-.3.5-1.6 2.7-.8.4-.6 2-1.7-1.1-.5 1.5-1.2 4.7-.9 1.2-2-.3-1-1.3-1.4-.4v2.5l-1.1 2.2.3.6-1.3 1.5-.2 1.8-.9 1.9-1.1 1.4-1.1 3.1 1.1.9-1.1 1.2.4.8-1.8 1.6-.5-.9-2.8 2.2-1.2-.6.3 1.3-1.4 1.1-2.8 1.4-1.9-1.3-2 2.4h-2.3l-1.5-.5-2-2.8.6-.5-.5-.3h-1.9l-2.9-2.6-1.2-1.6-1.2-1.3-.9-1.8-1.2-.9v-1.7l-.3-2.7h1.1l2-.9v-2l.9-.2.4-.2-1-2.7.8-.9.2-1.9 1-1.2 1.4 1.2v.9l1.4-1v-2.7l-.3-1.3.3-.6.4-1h1.3v-1.2l1.7-1.9 1 .9 2.6-2.3.8-1.4 1-1.2 1-1.9-.2-1.9.6-1.1v-3.9l.2-.4.6-2.3-.5-1.1.2-1.1-1.1-1.7 1.5-1.2.4 2.5.2 1.2.5 3.7.3 2.2v.9l.6 3.7 1.2-.2z" stroke-width=".8933"/><path d="m719.2 89 2.6.6 1.5-.2 1.2.5 3 .5v1.4l.9.5 2.2.6.8.6-.5 1.7.5.9-.8 2.2h2.4l-.8 2.2 1.4 1.3v1.7l-1.3.4-1.2 2.2-.6 2.3h-.1l-.4 1.6 1.3.3 1.5-1.7.2-.5 1.1-2.4 1.9-1.2 1.4-3.9 1.2-.5.4-1.5h.9l-1.6 4.8v1.4l-1.1 1.4-.4 1.6-.9 2.5-.4 2.7.2 2.4-1 .9-.6 3.2.5 2.9-.8 2.2-.9 4.2.2.9 1.1 5 .8.8-.3 1.7.2 2.5-4.1.3h-1.1l-4.2.3h-2.5l-4.5.2h-.3l-4.6.2h-1l-5.3.3h-2.3l-.8-1.7-2-.5-1.8-1-1.2-3.3-.3-1.3 1.1-2.6-1.6-1.3v-1.1l-.2-1.1-.6-1.6v-1.6l-.3-1.7-1.5-1.9-1.4-.5-3.2-2.3-1.1-2.4-1.3-.6-1.6-.6-.8-1.2-2.4-.3-1.9-2-.8-.4.3-1.6-.3-3.1.3-1.9v-.9l1-2.2-1.3-1.7h-1.1v-1.1l.4-1.3 1.3-2.4 3.6-1.8.5-2v-7.3h.9l.9-1.2 1.1.9 1.8-.2 2.6-1.1 2.9-1.3 1.4-.3 2.3-1.6 1.2.9-1.2 2 .3.8-.6 1.6 2.2-1.3 1.6 1.1 1.3.2 1.9.6 1.3 2.4 1.9.5v.1l8.5 1.7 1.1.5zm-17.3-10.3.4.3-2 1.5z" stroke-width=".9579"/><path d="m507 103.2 15.7 1.9 2.3.2 8.9.9h.5l9.4.9-.4 5.8-.4 5.3v.5l-.3 3.9-.4 4.7v.4l-.5 6.5-.4 5.4-.8 8.3-.3 4.1v1.8l-.2 2.4-.4 5.4-9-.8-3.3-.3-9.3-1h-1.3l-5.4-.6-4.6-.5-6-.8-11.8-1.7-9.6-1.3h-.4l-10-1.5.5-3.4.8-4.4.9-5.7 1.1-6.9 1.1-6.8.6-4 .4-2.5 1-6.5 1.1-6.6.3-2.6.9-4.5 3.2.6 8.6 1.2 11.2 1.6 3.6.4z" stroke-width="1.0117"/></g></svg>