<svg xmlns="http://www.w3.org/2000/svg" width="650" height="350" viewBox="0 0 650 350"><defs><style>.a{fill:#a3a3a3;}.a,.b,.c,.d{opacity:0.8;}.a,.b,.c,.d,.f{isolation:isolate;}.b{fill:#9f9f9f;}.c{fill:#6d6d6d;}.d{fill:#aaa;}.e{fill:none;stroke:#cdcdcd;stroke-width:1.45px;}.f,.g{font-size:17.51px;fill:#afaeae;font-family:Roboto Mono;}</style></defs><title>radial-scatterplot</title><path class="a" d="M330.4,191.9a6.6,6.6,0,0,1,0-13.1h0a6.6,6.6,0,0,1,0,13.1h0Z"/><path class="a" d="M255.7,80.1a6.6,6.6,0,0,1,0-13.1h0a6.6,6.6,0,0,1,0,13.1h0Z"/><path class="a" d="M174.4,274.1a6.6,6.6,0,0,1,0-13.1h0a6.6,6.6,0,0,1,0,13.1h0Z"/><path class="a" d="M219.2,95.8a6.6,6.6,0,0,1,0-13.1h0a6.6,6.6,0,0,1,0,13.1h0Z"/><path class="b" d="M476.7,161.3a6.6,6.6,0,0,1,0-13.1h0a6.6,6.6,0,0,1,0,13.1h0Z"/><path class="b" d="M306.2,73.9a6.6,6.6,0,0,1,0-13.1h0a6.6,6.6,0,0,1,0,13.1h0Z"/><path class="b" d="M459.7,184.4a6.6,6.6,0,0,1,0-13.1h0a6.6,6.6,0,0,1,0,13.1h0Z"/><path class="b" d="M188.1,185.9a6.6,6.6,0,0,1,0-13.1h0a6.6,6.6,0,0,1,0,13.1h0Z"/><path class="b" d="M349.2,91.1a6.6,6.6,0,0,1,0-13.1h0a6.6,6.6,0,0,1,0,13.1h0Z"/><path class="b" d="M133.3,169a6.6,6.6,0,0,1,0-13.1h0a6.6,6.6,0,0,1,0,13.1h0Z"/><path class="b" d="M439.3,75.1a6.6,6.6,0,0,1,0-13.1h0a6.6,6.6,0,0,1,0,13.1h0Z"/><path class="b" d="M460.4,153.7a6.6,6.6,0,0,1,0-13.1h0a6.6,6.6,0,0,1,0,13.1h0Z"/><path class="b" d="M270.5,132.4a6.6,6.6,0,0,1,0-13.1h0a6.6,6.6,0,0,1,0,13.1h0Z"/><path class="b" d="M332.7,120.9a6.6,6.6,0,0,1,0-13.1h0a6.6,6.6,0,0,1,0,13.1h0Z"/><path class="b" d="M71.6,299.7a6.6,6.6,0,0,1,0-13.1h0a6.6,6.6,0,0,1,0,13.1h0Z"/><path class="b" d="M486.5,135.3a6.6,6.6,0,0,1,0-13.1h0a6.6,6.6,0,0,1,0,13.1h0Z"/><path class="b" d="M307,55.2a6.6,6.6,0,0,1,0-13.1h0a6.6,6.6,0,0,1,0,13.1h0Z"/><path class="b" d="M189.3,210.9a6.6,6.6,0,0,1,0-13.1h0a6.6,6.6,0,0,1,0,13.1h0Z"/><path class="b" d="M483.6,194.6a6.6,6.6,0,0,1,0-13.1h0a6.6,6.6,0,0,1,0,13.1h0Z"/><path class="b" d="M530.4,122.7a6.6,6.6,0,0,1,0-13.1h0a6.6,6.6,0,0,1,0,13.1h0Z"/><path class="b" d="M436.9,209.4a6.6,6.6,0,0,1,0-13.1h0a6.6,6.6,0,0,1,0,13.1h0Z"/><path class="b" d="M195.1,202.8a6.6,6.6,0,0,1,0-13.1h0a6.6,6.6,0,0,1,0,13.1h0Z"/><path class="b" d="M346.2,113.5a6.6,6.6,0,0,1,0-13.1h0a6.6,6.6,0,0,1,0,13.1h0Z"/><path class="b" d="M158.1,119.3a6.6,6.6,0,0,1,0-13.1h0a6.6,6.6,0,0,1,0,13.1h0Z"/><path class="b" d="M228,219a6.6,6.6,0,0,1,0-13.1h0a6.6,6.6,0,0,1,0,13.1h0Z"/><path class="b" d="M411.1,106.2a6.6,6.6,0,0,1,0-13.1h0a6.6,6.6,0,0,1,0,13.1h0Z"/><path class="b" d="M516.2,128.6a6.6,6.6,0,0,1,0-13.1h0a6.6,6.6,0,0,1,0,13.1h0Z"/><path class="b" d="M309.5,108.1a6.6,6.6,0,0,1,0-13.1h0a6.6,6.6,0,0,1,0,13.1h0Z"/><path class="b" d="M496.1,183.5a6.6,6.6,0,0,1,0-13.1h0a6.6,6.6,0,0,1,0,13.1h0Z"/><path class="b" d="M86.1,306.1a6.6,6.6,0,0,1,0-13.1h0a6.6,6.6,0,0,1,0,13.1h0Z"/><path class="b" d="M497.1,116.2a6.6,6.6,0,0,1,0-13.1h0a6.6,6.6,0,0,1,0,13.1h0Z"/><path class="b" d="M64.3,245.2a6.6,6.6,0,0,1,0-13.1h0a6.6,6.6,0,0,1,0,13.1h0Z"/><path class="b" d="M508,156.8a6.6,6.6,0,0,1,0-13.1h0a6.6,6.6,0,0,1,0,13.1h0Z"/><path class="b" d="M91.7,256.3a6.6,6.6,0,0,1,0-13.1h0a6.6,6.6,0,0,1,0,13.1h0Z"/><path class="b" d="M136.1,167.6a6.6,6.6,0,0,1,0-13.1h0a6.6,6.6,0,0,1,0,13.1h0Z"/><path class="b" d="M566.4,314.3a6.6,6.6,0,0,1,0-13.1h0a6.6,6.6,0,0,1,0,13.1h0Z"/><path class="b" d="M503.3,163.3a6.6,6.6,0,0,1,0-13.1h0a6.6,6.6,0,0,1,0,13.1h0Z"/><path class="b" d="M585.8,309.6a6.6,6.6,0,0,1,0-13.1h0a6.6,6.6,0,0,1,0,13.1h0Z"/><path class="b" d="M216.1,126a6.6,6.6,0,0,1,0-13.1h0a6.6,6.6,0,0,1,0,13.1h0Z"/><path class="b" d="M235.2,148a6.6,6.6,0,0,1,0-13.1h0a6.6,6.6,0,0,1,0,13.1h0Z"/><path class="b" d="M339.9,132.6a6.6,6.6,0,0,1,0-13.1h0a6.6,6.6,0,0,1,0,13.1h0Z"/><path class="b" d="M151.7,236.5a6.6,6.6,0,0,1,0-13.1h0a6.6,6.6,0,0,1,0,13.1h0Z"/><path class="b" d="M411.4,46.1a6.6,6.6,0,0,1,0-13.1h0a6.6,6.6,0,0,1,0,13.1h0Z"/><path class="b" d="M336.2,121.5a6.6,6.6,0,0,1,0-13.1h0a6.6,6.6,0,0,1,0,13.1h0Z"/><path class="b" d="M348.9,117.7a6.6,6.6,0,0,1,0-13.1h0a6.6,6.6,0,0,1,0,13.1h0Z"/><path class="b" d="M115.6,143.2a6.6,6.6,0,0,1,0-13.1h0a6.6,6.6,0,0,1,0,13.1h0Z"/><path class="b" d="M412.9,129.3a6.6,6.6,0,0,1,0-13.1h0a6.6,6.6,0,0,1,0,13.1h0Z"/><path class="b" d="M267.6,135.8a6.6,6.6,0,0,1,0-13.1h0a6.6,6.6,0,0,1,0,13.1h0Z"/><path class="b" d="M386.2,134.7a6.6,6.6,0,0,1,0-13.1h0a6.6,6.6,0,0,1,0,13.1h0Z"/><path class="b" d="M296.5,45.3a6.6,6.6,0,0,1,0-13.1h0a6.6,6.6,0,0,1,0,13.1h0Z"/><path class="b" d="M148.1,257.2a6.6,6.6,0,0,1,0-13.1h0a6.6,6.6,0,0,1,0,13.1h0Z"/><path class="b" d="M172.8,153.9a6.6,6.6,0,0,1,0-13.1h0a6.6,6.6,0,0,1,0,13.1h0Z"/><path class="b" d="M178,176.7a6.6,6.6,0,0,1,0-13.1h0a6.6,6.6,0,0,1,0,13.1h0Z"/><path class="b" d="M327.7,58.5a6.6,6.6,0,0,1,0-13.1h0a6.6,6.6,0,0,1,0,13.1h0Z"/><path class="b" d="M459.3,164.3a6.6,6.6,0,0,1,0-13.1h0a6.6,6.6,0,0,1,0,13.1h0Z"/><path class="b" d="M163.5,171.9a6.6,6.6,0,0,1,0-13.1h0a6.6,6.6,0,0,1,0,13.1h0Z"/><path class="b" d="M392.3,141a6.6,6.6,0,0,1,0-13.1h0a6.6,6.6,0,0,1,0,13.1h0Z"/><path class="b" d="M444.4,173.6a6.6,6.6,0,0,1,0-13.1h0a6.6,6.6,0,0,1,0,13.1h0Z"/><path class="b" d="M471.9,141.6a6.6,6.6,0,0,1,0-13.1h0a6.6,6.6,0,0,1,0,13.1h0Z"/><path class="b" d="M412.4,123.7a6.6,6.6,0,0,1,0-13.1h0a6.6,6.6,0,0,1,0,13.1h0Z"/><path class="b" d="M406.6,155.6a6.6,6.6,0,0,1,0-13.1h0a6.6,6.6,0,0,1,0,13.1h0Z"/><path class="b" d="M316.8,107.7a6.6,6.6,0,0,1,0-13.1h0a6.6,6.6,0,0,1,0,13.1h0Z"/><path class="b" d="M564.6,302.4a6.6,6.6,0,0,1,0-13.1h0a6.6,6.6,0,0,1,0,13.1h0Z"/><path class="b" d="M143.6,158.8a6.6,6.6,0,0,1,0-13.1h0a6.6,6.6,0,0,1,0,13.1h0Z"/><path class="b" d="M544.2,305.2a6.6,6.6,0,0,1,0-13.1h0a6.6,6.6,0,0,1,0,13.1h0Z"/><path class="b" d="M450.3,89.9a6.6,6.6,0,0,1,0-13.1h0a6.6,6.6,0,0,1,0,13.1h0Z"/><path class="b" d="M303.5,90.9a6.6,6.6,0,0,1,0-13.1h0a6.6,6.6,0,0,1,0,13.1h0Z"/><path class="b" d="M335.1,160.7a6.6,6.6,0,0,1,0-13.1h0a6.6,6.6,0,0,1,0,13.1h0Z"/><path class="b" d="M233.2,126a6.6,6.6,0,0,1,0-13.1h0a6.6,6.6,0,0,1,0,13.1h0Z"/><path class="b" d="M334.6,109.7a6.6,6.6,0,0,1,0-13.1h0a6.6,6.6,0,0,1,0,13.1h0Z"/><path class="b" d="M86.3,247a6.6,6.6,0,0,1,0-13.1h0a6.6,6.6,0,0,1,0,13.1h0Z"/><path class="b" d="M310.4,37.3a6.6,6.6,0,0,1,0-13.1h0a6.6,6.6,0,0,1,0,13.1h0Z"/><path class="b" d="M71,210a6.6,6.6,0,0,1,0-13.1h0A6.6,6.6,0,0,1,71,210h0Z"/><path class="b" d="M156.6,190.6a6.6,6.6,0,0,1,0-13.1h0a6.6,6.6,0,0,1,0,13.1h0Z"/><path class="b" d="M487.6,124.7a6.6,6.6,0,0,1,0-13.1h0a6.6,6.6,0,0,1,0,13.1h0Z"/><path class="b" d="M335.3,147a6.6,6.6,0,0,1,0-13.1h0a6.6,6.6,0,0,1,0,13.1h0Z"/><path class="b" d="M421.3,55.6a6.6,6.6,0,0,1,0-13.1h0a6.6,6.6,0,0,1,0,13.1h0Z"/><path class="b" d="M115.8,245.5a6.6,6.6,0,0,1,0-13.1h0a6.6,6.6,0,0,1,0,13.1h0Z"/><path class="b" d="M307.5,104.3a6.6,6.6,0,0,1,0-13.1h0a6.6,6.6,0,0,1,0,13.1h0Z"/><path class="b" d="M328,187.9a6.6,6.6,0,0,1,0-13.1h0a6.6,6.6,0,0,1,0,13.1h0Z"/><path class="b" d="M137.3,239.5a6.6,6.6,0,0,1,0-13.1h0a6.6,6.6,0,0,1,0,13.1h0Z"/><path class="b" d="M330.6,88a6.6,6.6,0,0,1,0-13.1h0a6.6,6.6,0,0,1,0,13.1h0Z"/><path class="b" d="M251.8,101.8a6.6,6.6,0,0,1,0-13.1h0a6.6,6.6,0,0,1,0,13.1h0Z"/><path class="b" d="M471.3,167.1a6.6,6.6,0,0,1,0-13.1h0a6.6,6.6,0,0,1,0,13.1h0Z"/><path class="b" d="M191.2,163.2a6.6,6.6,0,0,1,0-13.1h0a6.6,6.6,0,0,1,0,13.1h0Z"/><path class="b" d="M422.3,139.3a6.6,6.6,0,0,1,0-13.1h0a6.6,6.6,0,0,1,0,13.1h0Z"/><path class="b" d="M401.1,140.2a6.6,6.6,0,0,1,0-13.1h0a6.6,6.6,0,0,1,0,13.1h0Z"/><path class="b" d="M176.8,180.7a6.6,6.6,0,0,1,0-13.1h0a6.6,6.6,0,0,1,0,13.1h0Z"/><path class="b" d="M130.8,299.3a6.6,6.6,0,0,1,0-13.1h0a6.6,6.6,0,0,1,0,13.1h0Z"/><path class="b" d="M523.2,313.6a6.6,6.6,0,0,1,0-13.1h0a6.6,6.6,0,0,1,0,13.1h0Z"/><path class="b" d="M304.4,112.5a6.6,6.6,0,0,1,0-13.1h0a6.6,6.6,0,0,1,0,13.1h0Z"/><path class="b" d="M280.7,174.9a6.6,6.6,0,0,1,0-13.1h0a6.6,6.6,0,0,1,0,13.1h0Z"/><path class="b" d="M333.6,107.7a6.6,6.6,0,0,1,0-13.1h0a6.6,6.6,0,0,1,0,13.1h0Z"/><path class="c" d="M115.1,309.8a6.6,6.6,0,0,1,0-13.1h0a6.6,6.6,0,0,1,0,13.1h0Z"/><path class="d" d="M508.8,142a6.6,6.6,0,0,1,0-13.1h0a6.6,6.6,0,0,1,0,13.1h0Z"/><path class="d" d="M490,163.4a6.6,6.6,0,0,1,0-13.1h0a6.6,6.6,0,0,1,0,13.1h0Z"/><path class="d" d="M350.3,79.4a6.6,6.6,0,0,1,0-13.1h0a6.6,6.6,0,0,1,0,13.1h0Z"/><path class="d" d="M309.3,96.3a6.6,6.6,0,0,1,0-13.1h0a6.6,6.6,0,0,1,0,13.1h0Z"/><path class="d" d="M208.1,184.9a6.6,6.6,0,0,1,0-13.1h0a6.6,6.6,0,0,1,0,13.1h0Z"/><path class="d" d="M389,103.8a6.6,6.6,0,0,1,0-13.1h0a6.6,6.6,0,0,1,0,13.1h0Z"/><path class="d" d="M76.2,240.1a6.6,6.6,0,0,1,0-13.1h0a6.6,6.6,0,0,1,0,13.1h0Z"/><path class="d" d="M439.6,118.6a6.6,6.6,0,0,1,0-13.1h0a6.6,6.6,0,0,1,0,13.1h0Z"/><path class="d" d="M341.6,64.9a6.6,6.6,0,0,1,0-13.1h0a6.6,6.6,0,0,1,0,13.1h0Z"/><path class="d" d="M551.1,207a6.6,6.6,0,0,1,0-13.1h0a6.6,6.6,0,0,1,0,13.1h0Z"/><path class="d" d="M450.5,163.1a6.6,6.6,0,0,1,0-13.1h0a6.6,6.6,0,0,1,0,13.1h0Z"/><path class="d" d="M252.3,136a6.6,6.6,0,0,1,0-13.1h0a6.6,6.6,0,0,1,0,13.1h0Z"/><path class="d" d="M341.1,155.3a6.6,6.6,0,0,1,0-13.1h0a6.6,6.6,0,0,1,0,13.1h0Z"/><path class="d" d="M383.9,119.7a6.6,6.6,0,0,1,0-13.1h0a6.6,6.6,0,0,1,0,13.1h0Z"/><path class="d" d="M325.4,151.6a6.6,6.6,0,0,1,0-13.1h0a6.6,6.6,0,0,1,0,13.1h0Z"/><path class="d" d="M544.8,300.8a6.6,6.6,0,0,1,0-13.1h0a6.6,6.6,0,0,1,0,13.1h0Z"/><path class="d" d="M397.1,113.6a6.6,6.6,0,0,1,0-13.1h0a6.6,6.6,0,0,1,0,13.1h0Z"/><path class="d" d="M255,129.7a6.6,6.6,0,0,1,0-13.1h0a6.6,6.6,0,0,1,0,13.1h0Z"/><path class="d" d="M570.2,314.9a6.6,6.6,0,0,1,0-13.1h0a6.6,6.6,0,0,1,0,13.1h0Z"/><path class="d" d="M425.1,121a6.6,6.6,0,0,1,0-13.1h0a6.6,6.6,0,0,1,0,13.1h0Z"/><path class="d" d="M203.9,176.8a6.6,6.6,0,0,1,0-13.1h0a6.6,6.6,0,0,1,0,13.1h0Z"/><path class="d" d="M500.5,109.3a6.6,6.6,0,0,1,0-13.1h0a6.6,6.6,0,0,1,0,13.1h0Z"/><path class="d" d="M617.5,293.8a6.6,6.6,0,0,1,0-13.1h0a6.6,6.6,0,0,1,0,13.1h0Z"/><path class="d" d="M505.9,131a6.6,6.6,0,0,1,0-13.1h0a6.6,6.6,0,0,1,0,13.1h0Z"/><path class="d" d="M536.7,122.9a6.6,6.6,0,0,1,0-13.1h0a6.6,6.6,0,0,1,0,13.1h0Z"/><path class="d" d="M151,108.7a6.6,6.6,0,0,1,0-13.1h0a6.6,6.6,0,0,1,0,13.1h0Z"/><path class="d" d="M87.2,224.5a6.6,6.6,0,0,1,0-13.1h0a6.6,6.6,0,0,1,0,13.1h0Z"/><path class="d" d="M55.2,296.3a6.6,6.6,0,0,1,0-13.1h0a6.6,6.6,0,0,1,0,13.1h0Z"/><path class="d" d="M476.7,180.7a6.6,6.6,0,0,1,0-13.1h0a6.6,6.6,0,0,1,0,13.1h0Z"/><path class="d" d="M167.1,166.8a6.6,6.6,0,0,1,0-13.1h0a6.6,6.6,0,0,1,0,13.1h0Z"/><path class="d" d="M388.5,171.1a6.6,6.6,0,0,1,0-13.1h0a6.6,6.6,0,0,1,0,13.1h0Z"/><path class="d" d="M491.1,305.8a6.6,6.6,0,0,1,0-13.1h0a6.6,6.6,0,0,1,0,13.1h0Z"/><path class="d" d="M346.8,77.1a6.6,6.6,0,0,1,0-13.1h0a6.6,6.6,0,0,1,0,13.1h0Z"/><path class="d" d="M417,125.2a6.6,6.6,0,0,1,0-13.1h0a6.6,6.6,0,0,1,0,13.1h0Z"/><path class="d" d="M413.3,62.1a6.6,6.6,0,0,1,0-13.1h0a6.6,6.6,0,0,1,0,13.1h0Z"/><path class="d" d="M174.4,147.9a6.6,6.6,0,0,1,0-13.1h0a6.6,6.6,0,0,1,0,13.1h0Z"/><path class="d" d="M111.7,209.3a6.6,6.6,0,0,1,0-13.1h0a6.6,6.6,0,0,1,0,13.1h0Z"/><path class="d" d="M141.3,231a6.6,6.6,0,0,1,0-13.1h0a6.6,6.6,0,0,1,0,13.1h0Z"/><path class="d" d="M167.3,180.8a6.6,6.6,0,0,1,0-13.1h0a6.6,6.6,0,0,1,0,13.1h0Z"/><path class="d" d="M349.4,111.8a6.6,6.6,0,0,1,0-13.1h0a6.6,6.6,0,0,1,0,13.1h0Z"/><path class="d" d="M433,198.5a6.6,6.6,0,0,1,0-13.1h0a6.6,6.6,0,0,1,0,13.1h0Z"/><path class="d" d="M163.5,163.4a6.6,6.6,0,0,1,0-13.1h0a6.6,6.6,0,0,1,0,13.1h0Z"/><path class="d" d="M195.9,221.4a6.6,6.6,0,0,1,0-13.1h0a6.6,6.6,0,0,1,0,13.1h0Z"/><path class="d" d="M319.3,186.1a6.6,6.6,0,0,1,0-13.1h0a6.6,6.6,0,0,1,0,13.1h0Z"/><path class="d" d="M92.2,317.1a6.6,6.6,0,0,1,0-13.1h0a6.6,6.6,0,0,1,0,13.1h0Z"/><path class="d" d="M106.8,302.5a6.6,6.6,0,0,1,0-13.1h0a6.6,6.6,0,0,1,0,13.1h0Z"/><path class="d" d="M596.5,183.8a6.6,6.6,0,0,1,0-13.1h0a6.6,6.6,0,0,1,0,13.1h0Z"/><path class="d" d="M399.4,120.6a6.6,6.6,0,0,1,0-13.1h0a6.6,6.6,0,0,1,0,13.1h0Z"/><path class="d" d="M335.3,130.3a6.6,6.6,0,0,1,0-13.1h0a6.6,6.6,0,0,1,0,13.1h0Z"/><path class="d" d="M294.2,68.3a6.6,6.6,0,0,1,0-13.1h0a6.6,6.6,0,0,1,0,13.1h0Z"/><path class="d" d="M115.3,155.8a6.6,6.6,0,0,1,0-13.1h0a6.6,6.6,0,0,1,0,13.1h0Z"/><path class="d" d="M241.8,61.7a6.6,6.6,0,0,1,0-13.1h0a6.6,6.6,0,0,1,0,13.1h0Z"/><path class="d" d="M504.9,224.5a6.6,6.6,0,0,1,0-13.1h0a6.6,6.6,0,0,1,0,13.1h0Z"/><path class="d" d="M130.2,305.2a6.6,6.6,0,0,1,0-13.1h0a6.6,6.6,0,0,1,0,13.1h0Z"/><path class="d" d="M428.1,86.2a6.6,6.6,0,0,1,0-13.1h0a6.6,6.6,0,0,1,0,13.1h0Z"/><path class="d" d="M137.1,240a6.6,6.6,0,0,1,0-13.1h0a6.6,6.6,0,0,1,0,13.1h0Z"/><path class="d" d="M90.3,314.3a6.6,6.6,0,0,1,0-13.1h0a6.6,6.6,0,0,1,0,13.1h0Z"/><path class="d" d="M252.6,141.1a6.6,6.6,0,0,1,0-13.1h0a6.6,6.6,0,0,1,0,13.1h0Z"/><path class="d" d="M487.8,190.4a6.6,6.6,0,0,1,0-13.1h0a6.6,6.6,0,0,1,0,13.1h0Z"/><path class="d" d="M270.2,152a6.6,6.6,0,0,1,0-13.1h0a6.6,6.6,0,0,1,0,13.1h0Z"/><path class="d" d="M462.6,57.6a6.6,6.6,0,0,1,0-13.1h0a6.6,6.6,0,0,1,0,13.1h0Z"/><path class="d" d="M213.5,189.3a6.6,6.6,0,0,1,0-13.1h0a6.6,6.6,0,0,1,0,13.1h0Z"/><path class="d" d="M234.2,227.3a6.6,6.6,0,0,1,0-13.1h0a6.6,6.6,0,0,1,0,13.1h0Z"/><path class="d" d="M190.7,274.7a6.6,6.6,0,0,1,0-13.1h0a6.6,6.6,0,0,1,0,13.1h0Z"/><path class="d" d="M394.2,145.9a6.6,6.6,0,0,1,0-13.1h0a6.6,6.6,0,0,1,0,13.1h0Z"/><path class="d" d="M555.3,247.4a6.6,6.6,0,0,1,0-13.1h0a6.6,6.6,0,0,1,0,13.1h0Z"/><path class="d" d="M221.2,127.7a6.6,6.6,0,0,1,0-13.1h0a6.6,6.6,0,0,1,0,13.1h0Z"/><path class="d" d="M416.8,84.2a6.6,6.6,0,0,1,0-13.1h0a6.6,6.6,0,0,1,0,13.1h0Z"/><path class="d" d="M306.3,116.2a6.6,6.6,0,0,1,0-13.1h0a6.6,6.6,0,0,1,0,13.1h0Z"/><path class="d" d="M233.3,132.5a6.6,6.6,0,0,1,0-13.1h0a6.6,6.6,0,0,1,0,13.1h0Z"/><path class="d" d="M579.7,240a6.6,6.6,0,0,1,0-13.1h0a6.6,6.6,0,0,1,0,13.1h0Z"/><path class="d" d="M504.3,162.9a6.6,6.6,0,0,1,0-13.1h0a6.6,6.6,0,0,1,0,13.1h0Z"/><path class="d" d="M214,60.6a6.6,6.6,0,0,1,0-13.1h0a6.6,6.6,0,0,1,0,13.1h0Z"/><path class="d" d="M66.3,189.3a6.6,6.6,0,0,1,0-13.1h0a6.6,6.6,0,0,1,0,13.1h0Z"/><path class="d" d="M252.7,103.5a6.6,6.6,0,0,1,0-13.1h0a6.6,6.6,0,0,1,0,13.1h0Z"/><path class="d" d="M134.6,134.1a6.6,6.6,0,0,1,0-13.1h0a6.6,6.6,0,0,1,0,13.1h0Z"/><path class="d" d="M327.4,129.1a6.6,6.6,0,0,1,0-13.1h0a6.6,6.6,0,0,1,0,13.1h0Z"/><path class="d" d="M498.5,149.7a6.6,6.6,0,0,1,0-13.1h0a6.6,6.6,0,0,1,0,13.1h0Z"/><path class="d" d="M312.8,127.5a6.6,6.6,0,0,1,0-13.1h0a6.6,6.6,0,0,1,0,13.1h0Z"/><path class="d" d="M247.2,99.7a6.6,6.6,0,0,1,0-13.1h0a6.6,6.6,0,0,1,0,13.1h0Z"/><path class="d" d="M514.7,305.1a6.6,6.6,0,0,1,0-13.1h0a6.6,6.6,0,0,1,0,13.1h0Z"/><path class="d" d="M120.4,256.1a6.6,6.6,0,0,1,0-13.1h0a6.6,6.6,0,0,1,0,13.1h0Z"/><path class="d" d="M478.4,171.2a6.6,6.6,0,0,1,0-13.1h0a6.6,6.6,0,0,1,0,13.1h0Z"/><path class="d" d="M601.6,237.6a6.6,6.6,0,0,1,0-13.1h0a6.6,6.6,0,0,1,0,13.1h0Z"/><path class="d" d="M501.9,162.5a6.6,6.6,0,0,1,0-13.1h0a6.6,6.6,0,0,1,0,13.1h0Z"/><path class="d" d="M453.9,192.5a6.6,6.6,0,0,1,0-13.1h0a6.6,6.6,0,0,1,0,13.1h0Z"/><path class="d" d="M541,317.3a6.6,6.6,0,0,1,0-13.1h0a6.6,6.6,0,0,1,0,13.1h0Z"/><path class="d" d="M488.5,151.6h0a6.6,6.6,0,0,1,0,13.1h0a6.6,6.6,0,0,1-6.6-6.6"/><path class="d" d="M183.7,167.1a6.6,6.6,0,0,1,0-13.1h0a6.6,6.6,0,0,1,0,13.1h0Z"/><path class="d" d="M228.3,70.6a6.6,6.6,0,0,1,0-13.1h0a6.6,6.6,0,0,1,0,13.1h0Z"/><path class="d" d="M209,182.9a6.6,6.6,0,0,1,0-13.1h0a6.6,6.6,0,0,1,0,13.1h0Z"/><path class="d" d="M321.9,166.4a6.6,6.6,0,0,1,0-13.1h0a6.6,6.6,0,0,1,0,13.1h0Z"/><path class="d" d="M536.1,153.5a6.6,6.6,0,0,1,0-13.1h0a6.6,6.6,0,0,1,0,13.1h0Z"/><path class="d" d="M175.1,148.6a6.6,6.6,0,0,1,0-13.1h0a6.6,6.6,0,0,1,0,13.1h0Z"/><path class="d" d="M140.7,152.6a6.6,6.6,0,0,1,0-13.1h0a6.6,6.6,0,0,1,0,13.1h0Z"/><path class="e" d="M227.4,317.3a98,98,0,1,1,196,0"/><path class="e" d="M129.3,318.3a195.6,195.6,0,0,1,70-151.9c82.9-69.6,206.6-58.8,276.2,24.2a195.3,195.3,0,0,1,45.9,126"/><path class="e" d="M31.3,315.2a293.4,293.4,0,0,1,105-223.8C260.8-13,446.3,3.2,550.7,127.6a292.9,292.9,0,0,1,68.8,189"/><text class="f" transform="translate(320.1 338.9)">0</text><path class="e" d="M325.4,316.6L556.2,122.9"/><line class="e" x1="325.4" y1="316.6" x2="325.4" y2="12.3"/><line class="e" x1="325.4" y1="316.6" x2="630.4" y2="316.6"/><text class="g" transform="translate(405.2 338.9)">10</text><text class="g" transform="translate(502 338.9)">20</text><text class="g" transform="translate(600.4 338.9)">30</text><polyline class="e" points="325.4 316.6 21.1 316.6 21.1 316.6"/><text/><polyline class="e" points="115.1 88.7 325.4 316.6 453.5 39.4"/><polyline class="e" points="55.2 177.4 325.4 316.6 210.5 33"/></svg>