<?xml version="1.0" encoding="utf-8"?>
<!-- Generator: Adobe Illustrator 24.0.1, SVG Export Plug-In . SVG Version: 6.00 Build 0)  -->
<svg version="1.1" id="Layer_1" xmlns="http://www.w3.org/2000/svg" xmlns:xlink="http://www.w3.org/1999/xlink" x="0px" y="0px"
	 viewBox="0 0 1268 418" style="enable-background:new 0 0 1268 418;" xml:space="preserve">
<style type="text/css">
	.st0{fill:#C4C5D1;}
	.st1{fill:#A39CB9;}
	.st2{opacity:0.8;fill:#6D6D6D;enable-background:new    ;}
	.st3{fill:#B5AEC7;}
	.st4{fill:none;stroke:#CCCCCC;stroke-width:1.8336;}
	.st5{fill:#CCCCCC;}
	.st6{font-family:'RobotoMono-Regular';}
	.st7{font-size:18px;}
</style>
<title>radial-scatterplot</title>
<path class="st0" d="M640.6,229.6c-4.6-0.6-7.8-4.7-7.3-9.3c0.5-3.8,3.5-6.8,7.3-7.3l0,0c4.6,0.6,7.8,4.7,7.3,9.3
	C647.4,226.1,644.4,229.1,640.6,229.6L640.6,229.6z"/>
<path class="st0" d="M546.2,88.2c-4.6-0.6-7.8-4.7-7.3-9.3c0.5-3.8,3.5-6.8,7.3-7.3l0,0c4.6,0.6,7.8,4.7,7.3,9.3
	C553,84.7,550,87.7,546.2,88.2L546.2,88.2z"/>
<path class="st0" d="M443.4,333.5c-4.6-0.6-7.8-4.7-7.3-9.3c0.5-3.8,3.5-6.8,7.3-7.3l0,0c4.6,0.6,7.8,4.7,7.3,9.3
	C450.1,330.1,447.2,333.1,443.4,333.5L443.4,333.5z"/>
<path class="st0" d="M500,108.1c-4.6-0.6-7.8-4.7-7.3-9.3c0.5-3.8,3.5-6.8,7.3-7.3l0,0c4.6,0.6,7.8,4.7,7.3,9.3
	C506.8,104.6,503.8,107.6,500,108.1L500,108.1z"/>
<path class="st1" d="M825.6,190.9c-4.6-0.6-7.8-4.7-7.3-9.3c0.5-3.8,3.5-6.8,7.3-7.3l0,0c4.6,0.6,7.8,4.7,7.3,9.3
	C832.4,187.4,829.4,190.4,825.6,190.9L825.6,190.9z"/>
<path class="st1" d="M610,80.4c-4.6-0.6-7.8-4.7-7.3-9.3c0.5-3.8,3.5-6.8,7.3-7.3l0,0c4.6,0.6,7.8,4.7,7.3,9.3
	C616.8,76.9,613.8,79.9,610,80.4L610,80.4z"/>
<path class="st1" d="M804.1,220.1c-4.6-0.6-7.8-4.7-7.3-9.3c0.5-3.8,3.5-6.8,7.3-7.3l0,0c4.6,0.6,7.8,4.7,7.3,9.3
	C810.9,216.6,807.9,219.6,804.1,220.1L804.1,220.1z"/>
<path class="st1" d="M460.7,222c-4.6-0.6-7.8-4.7-7.3-9.3c0.5-3.8,3.5-6.8,7.3-7.3l0,0c4.6,0.6,7.8,4.7,7.3,9.3
	C467.5,218.5,464.5,221.5,460.7,222L460.7,222z"/>
<path class="st1" d="M664.4,102.1c-4.6-0.6-7.8-4.7-7.3-9.3c0.5-3.8,3.5-6.8,7.3-7.3l0,0c4.6,0.6,7.8,4.7,7.3,9.3
	C671.2,98.7,668.2,101.6,664.4,102.1L664.4,102.1z"/>
<path class="st1" d="M391.4,200.6c-4.6-0.6-7.8-4.7-7.3-9.3c0.5-3.8,3.5-6.8,7.3-7.3l0,0c4.6,0.6,7.8,4.7,7.3,9.3
	C398.2,197.2,395.2,200.2,391.4,200.6L391.4,200.6z"/>
<path class="st1" d="M778.3,81.9c-4.6-0.6-7.8-4.7-7.3-9.3c0.5-3.8,3.5-6.8,7.3-7.3l0,0c4.6,0.6,7.8,4.7,7.3,9.3
	C785.1,78.4,782.1,81.4,778.3,81.9L778.3,81.9z"/>
<path class="st1" d="M805,181.3c-4.6-0.6-7.8-4.7-7.3-9.3c0.5-3.8,3.5-6.8,7.3-7.3l0,0c4.6,0.6,7.8,4.7,7.3,9.3
	C811.8,177.8,808.8,180.8,805,181.3L805,181.3z"/>
<path class="st1" d="M564.9,154.3c-4.6-0.6-7.8-4.7-7.3-9.3c0.5-3.8,3.5-6.8,7.3-7.3l0,0c4.6,0.6,7.8,4.7,7.3,9.3
	C571.7,150.9,568.7,153.9,564.9,154.3L564.9,154.3z"/>
<path class="st1" d="M643.5,139.8c-4.6-0.6-7.8-4.7-7.3-9.3c0.5-3.8,3.5-6.8,7.3-7.3l0,0c4.6,0.6,7.8,4.7,7.3,9.3
	C650.3,136.3,647.3,139.3,643.5,139.8L643.5,139.8z"/>
<path class="st1" d="M313.4,365.9c-4.6-0.6-7.8-4.7-7.3-9.3c0.5-3.8,3.5-6.8,7.3-7.3l0,0c4.6,0.6,7.8,4.7,7.3,9.3
	C320.1,362.4,317.2,365.4,313.4,365.9L313.4,365.9z"/>
<path class="st1" d="M838,158c-4.6-0.6-7.8-4.7-7.3-9.3c0.5-3.8,3.5-6.8,7.3-7.3l0,0c4.6,0.6,7.8,4.7,7.3,9.3
	C844.8,154.5,841.8,157.5,838,158L838,158z"/>
<path class="st1" d="M611,56.7c-4.6-0.6-7.8-4.7-7.3-9.3c0.5-3.8,3.5-6.8,7.3-7.3l0,0c4.6,0.6,7.8,4.7,7.3,9.3
	C617.8,53.3,614.8,56.2,611,56.7C611,56.7,611,56.7,611,56.7z"/>
<path class="st1" d="M462.2,253.6c-4.6-0.6-7.8-4.7-7.3-9.3c0.5-3.8,3.5-6.8,7.3-7.3l0,0c4.6,0.6,7.8,4.7,7.3,9.3
	C469,250.2,466,253.1,462.2,253.6L462.2,253.6z"/>
<path class="st1" d="M834.4,233c-4.6-0.6-7.8-4.7-7.3-9.3c0.5-3.8,3.5-6.8,7.3-7.3l0,0c4.6,0.6,7.8,4.7,7.3,9.3
	C841.1,229.5,838.2,232.5,834.4,233L834.4,233z"/>
<path class="st1" d="M893.5,142.1c-4.6-0.6-7.8-4.7-7.3-9.3c0.5-3.8,3.5-6.8,7.3-7.3l0,0c4.6,0.6,7.8,4.7,7.3,9.3
	C900.3,138.6,897.3,141.6,893.5,142.1L893.5,142.1z"/>
<path class="st1" d="M775.3,251.7c-4.6-0.6-7.8-4.7-7.3-9.3c0.5-3.8,3.5-6.8,7.3-7.3l0,0c4.6,0.6,7.8,4.7,7.3,9.3
	C782.1,248.3,779.1,251.2,775.3,251.7L775.3,251.7z"/>
<path class="st1" d="M469.5,243.4c-4.6-0.6-7.8-4.7-7.3-9.3c0.5-3.8,3.5-6.8,7.3-7.3l0,0c4.6,0.6,7.8,4.7,7.3,9.3
	C476.3,239.9,473.3,242.9,469.5,243.4L469.5,243.4z"/>
<path class="st1" d="M660.6,130.4c-4.6-0.6-7.8-4.7-7.3-9.3c0.5-3.8,3.5-6.8,7.3-7.3l0,0c4.6,0.6,7.8,4.7,7.3,9.3
	C667.4,127,664.4,130,660.6,130.4L660.6,130.4z"/>
<path class="st1" d="M422.7,137.8c-4.6-0.6-7.8-4.7-7.3-9.3c0.5-3.8,3.5-6.8,7.3-7.3l0,0c4.6,0.6,7.8,4.7,7.3,9.3
	C429.5,134.3,426.5,137.3,422.7,137.8L422.7,137.8z"/>
<path class="st1" d="M511.1,263.9c-4.6-0.6-7.8-4.7-7.3-9.3c0.5-3.8,3.5-6.8,7.3-7.3l0,0c4.6,0.6,7.8,4.7,7.3,9.3
	C517.9,260.4,514.9,263.4,511.1,263.9L511.1,263.9z"/>
<path class="st1" d="M742.7,121.2c-4.6-0.6-7.8-4.7-7.3-9.3c0.5-3.8,3.5-6.8,7.3-7.3l0,0c4.6,0.6,7.8,4.7,7.3,9.3
	C749.5,117.8,746.5,120.7,742.7,121.2L742.7,121.2z"/>
<path class="st1" d="M875.6,149.5c-4.6-0.6-7.8-4.7-7.3-9.3c0.5-3.8,3.5-6.8,7.3-7.3l0,0c4.6,0.6,7.8,4.7,7.3,9.3
	C882.4,146.1,879.4,149.1,875.6,149.5L875.6,149.5z"/>
<path class="st1" d="M614.2,123.6c-4.6-0.6-7.8-4.7-7.3-9.3c0.5-3.8,3.5-6.8,7.3-7.3l0,0c4.6,0.6,7.8,4.7,7.3,9.3
	C621,120.2,618,123.1,614.2,123.6L614.2,123.6z"/>
<path class="st1" d="M850.2,219c-4.6-0.6-7.8-4.7-7.3-9.3c0.5-3.8,3.5-6.8,7.3-7.3l0,0c4.6,0.6,7.8,4.7,7.3,9.3
	C857,215.5,854,218.5,850.2,219L850.2,219z"/>
<path class="st1" d="M331.7,374c-4.6-0.6-7.8-4.7-7.3-9.3c0.5-3.8,3.5-6.8,7.3-7.3l0,0c4.6,0.6,7.8,4.7,7.3,9.3
	C338.5,370.5,335.5,373.5,331.7,374L331.7,374z"/>
<path class="st1" d="M851.4,133.9c-4.6-0.6-7.8-4.7-7.3-9.3c0.5-3.8,3.5-6.8,7.3-7.3l0,0c4.6,0.6,7.8,4.7,7.3,9.3
	C858.2,130.4,855.2,133.4,851.4,133.9L851.4,133.9z"/>
<path class="st1" d="M304.1,297c-4.6-0.6-7.8-4.7-7.3-9.3c0.5-3.8,3.5-6.8,7.3-7.3l0,0c4.6,0.6,7.8,4.7,7.3,9.3
	C310.9,293.5,307.9,296.5,304.1,297L304.1,297z"/>
<path class="st1" d="M865.2,185.2c-4.6-0.6-7.8-4.7-7.3-9.3c0.5-3.8,3.5-6.8,7.3-7.3l0,0c4.6,0.6,7.8,4.7,7.3,9.3
	C872,181.7,869,184.7,865.2,185.2L865.2,185.2z"/>
<path class="st1" d="M338.8,311c-4.6-0.6-7.8-4.7-7.3-9.3c0.5-3.8,3.5-6.8,7.3-7.3l0,0c4.6,0.6,7.8,4.7,7.3,9.3
	C345.6,307.6,342.6,310.6,338.8,311L338.8,311z"/>
<path class="st1" d="M394.9,198.9c-4.6-0.6-7.8-4.7-7.3-9.3c0.5-3.8,3.5-6.8,7.3-7.3l0,0c4.6,0.6,7.8,4.7,7.3,9.3
	C401.7,195.4,398.7,198.4,394.9,198.9L394.9,198.9z"/>
<path class="st1" d="M939.1,384.4c-4.6-0.6-7.8-4.7-7.3-9.3c0.5-3.8,3.5-6.8,7.3-7.3l0,0c4.6,0.6,7.8,4.7,7.3,9.3
	C945.9,380.9,942.9,383.9,939.1,384.4L939.1,384.4z"/>
<path class="st1" d="M859.3,193.4c-4.6-0.6-7.8-4.7-7.3-9.3c0.5-3.8,3.5-6.8,7.3-7.3l0,0c4.6,0.6,7.8,4.7,7.3,9.3
	C866.1,190,863.1,192.9,859.3,193.4L859.3,193.4z"/>
<path class="st1" d="M963.6,378.4c-4.6-0.6-7.8-4.7-7.3-9.3c0.5-3.8,3.5-6.8,7.3-7.3l0,0c4.6,0.6,7.8,4.7,7.3,9.3
	C970.4,375,967.4,378,963.6,378.4L963.6,378.4z"/>
<path class="st1" d="M496.1,146.2c-4.6-0.6-7.8-4.7-7.3-9.3c0.5-3.8,3.5-6.8,7.3-7.3l0,0c4.6,0.6,7.8,4.7,7.3,9.3
	C502.9,142.8,499.9,145.8,496.1,146.2L496.1,146.2z"/>
<path class="st1" d="M520.2,174.1c-4.6-0.6-7.8-4.7-7.3-9.3c0.5-3.8,3.5-6.8,7.3-7.3l0,0c4.6,0.6,7.8,4.7,7.3,9.3
	C527,170.6,524,173.6,520.2,174.1L520.2,174.1z"/>
<path class="st1" d="M652.6,154.6c-4.6-0.6-7.8-4.7-7.3-9.3c0.5-3.8,3.5-6.8,7.3-7.3l0,0c4.6,0.6,7.8,4.7,7.3,9.3
	C659.4,151.1,656.4,154.1,652.6,154.6L652.6,154.6z"/>
<path class="st1" d="M414.7,286c-4.6-0.6-7.8-4.7-7.3-9.3c0.5-3.8,3.5-6.8,7.3-7.3l0,0c4.6,0.6,7.8,4.7,7.3,9.3
	C421.4,282.5,418.4,285.5,414.7,286L414.7,286z"/>
<path class="st1" d="M743.1,45.2c-4.6-0.6-7.8-4.7-7.3-9.3c0.5-3.8,3.5-6.8,7.3-7.3l0,0c4.6,0.6,7.8,4.7,7.3,9.3
	C749.8,41.8,746.9,44.7,743.1,45.2L743.1,45.2z"/>
<path class="st1" d="M648,140.6c-4.6-0.6-7.8-4.7-7.3-9.3c0.5-3.8,3.5-6.8,7.3-7.3l0,0c4.6,0.6,7.8,4.7,7.3,9.3
	C654.8,137.1,651.8,140.1,648,140.6L648,140.6z"/>
<path class="st1" d="M664,135.8c-4.6-0.6-7.8-4.7-7.3-9.3c0.5-3.8,3.5-6.8,7.3-7.3l0,0c4.6,0.6,7.8,4.7,7.3,9.3
	C670.8,132.3,667.8,135.3,664,135.8L664,135.8z"/>
<path class="st1" d="M369,168c-4.6-0.6-7.8-4.7-7.3-9.3c0.5-3.8,3.5-6.8,7.3-7.3l0,0c4.6,0.6,7.8,4.7,7.3,9.3
	C375.8,164.5,372.8,167.5,369,168L369,168z"/>
<path class="st1" d="M745,150.4c-4.6-0.6-7.8-4.7-7.3-9.3c0.5-3.8,3.5-6.8,7.3-7.3l0,0c4.6,0.6,7.8,4.7,7.3,9.3
	C751.7,147,748.8,150,745,150.4L745,150.4z"/>
<path class="st1" d="M561.2,158.6c-4.6-0.6-7.8-4.7-7.3-9.3c0.5-3.8,3.5-6.8,7.3-7.3l0,0c4.6,0.6,7.8,4.7,7.3,9.3
	C568,155.2,565,158.2,561.2,158.6L561.2,158.6z"/>
<path class="st1" d="M711.2,157.3c-4.6-0.6-7.8-4.7-7.3-9.3c0.5-3.8,3.5-6.8,7.3-7.3l0,0c4.6,0.6,7.8,4.7,7.3,9.3
	C718,153.8,715,156.8,711.2,157.3L711.2,157.3z"/>
<path class="st1" d="M597.8,44.2c-4.6-0.6-7.8-4.7-7.3-9.3c0.5-3.8,3.5-6.8,7.3-7.3l0,0c4.6,0.6,7.8,4.7,7.3,9.3
	C604.5,40.7,601.6,43.7,597.8,44.2C597.8,44.2,597.8,44.2,597.8,44.2z"/>
<path class="st1" d="M410.1,312.2c-4.6-0.6-7.8-4.7-7.3-9.3c0.5-3.8,3.5-6.8,7.3-7.3l0,0c4.6,0.6,7.8,4.7,7.3,9.3
	C416.9,308.7,413.9,311.7,410.1,312.2L410.1,312.2z"/>
<path class="st1" d="M441.3,181.5c-4.6-0.6-7.8-4.7-7.3-9.3c0.5-3.8,3.5-6.8,7.3-7.3l0,0c4.6,0.6,7.8,4.7,7.3,9.3
	C448.1,178.1,445.1,181.1,441.3,181.5L441.3,181.5z"/>
<path class="st1" d="M447.9,210.4c-4.6-0.6-7.8-4.7-7.3-9.3c0.5-3.8,3.5-6.8,7.3-7.3l0,0c4.6,0.6,7.8,4.7,7.3,9.3
	C454.7,206.9,451.7,209.9,447.9,210.4L447.9,210.4z"/>
<path class="st1" d="M637.2,60.9c-4.6-0.6-7.8-4.7-7.3-9.3c0.5-3.8,3.5-6.8,7.3-7.3l0,0c4.6,0.6,7.8,4.7,7.3,9.3
	C644,57.4,641,60.4,637.2,60.9L637.2,60.9z"/>
<path class="st1" d="M803.6,194.7c-4.6-0.6-7.8-4.7-7.3-9.3c0.5-3.8,3.5-6.8,7.3-7.3l0,0c4.6,0.6,7.8,4.7,7.3,9.3
	C810.4,191.2,807.4,194.2,803.6,194.7L803.6,194.7z"/>
<path class="st1" d="M429.6,204.3c-4.6-0.6-7.8-4.7-7.3-9.3c0.5-3.8,3.5-6.8,7.3-7.3l0,0c4.6,0.6,7.8,4.7,7.3,9.3
	C436.4,200.8,433.4,203.8,429.6,204.3L429.6,204.3z"/>
<path class="st1" d="M718.9,165.2c-4.6-0.6-7.8-4.7-7.3-9.3c0.5-3.8,3.5-6.8,7.3-7.3l0,0c4.6,0.6,7.8,4.7,7.3,9.3
	C725.7,161.8,722.7,164.7,718.9,165.2L718.9,165.2z"/>
<path class="st1" d="M784.8,206.4c-4.6-0.6-7.8-4.7-7.3-9.3c0.5-3.8,3.5-6.8,7.3-7.3l0,0c4.6,0.6,7.8,4.7,7.3,9.3
	C791.6,203,788.6,206,784.8,206.4L784.8,206.4z"/>
<path class="st1" d="M819.6,166c-4.6-0.6-7.8-4.7-7.3-9.3c0.5-3.8,3.5-6.8,7.3-7.3l0,0c4.6,0.6,7.8,4.7,7.3,9.3
	C826.4,162.5,823.4,165.5,819.6,166L819.6,166z"/>
<path class="st1" d="M744.3,143.3c-4.6-0.6-7.8-4.7-7.3-9.3c0.5-3.8,3.5-6.8,7.3-7.3l0,0c4.6,0.6,7.8,4.7,7.3,9.3
	C751.1,139.9,748.1,142.9,744.3,143.3L744.3,143.3z"/>
<path class="st1" d="M737,183.7c-4.6-0.6-7.8-4.7-7.3-9.3c0.5-3.8,3.5-6.8,7.3-7.3l0,0c4.6,0.6,7.8,4.7,7.3,9.3
	C743.8,180.2,740.8,183.2,737,183.7L737,183.7z"/>
<path class="st1" d="M623.4,123.1c-4.6-0.6-7.8-4.7-7.3-9.3c0.5-3.8,3.5-6.8,7.3-7.3l0,0c4.6,0.6,7.8,4.7,7.3,9.3
	C630.2,119.6,627.2,122.6,623.4,123.1L623.4,123.1z"/>
<path class="st1" d="M936.8,369.3c-4.6-0.6-7.8-4.7-7.3-9.3c0.5-3.8,3.5-6.8,7.3-7.3l0,0c4.6,0.6,7.8,4.7,7.3,9.3
	C943.6,365.9,940.6,368.8,936.8,369.3L936.8,369.3z"/>
<path class="st1" d="M404.4,187.7c-4.6-0.6-7.8-4.7-7.3-9.3c0.5-3.8,3.5-6.8,7.3-7.3l0,0c4.6,0.6,7.8,4.7,7.3,9.3
	C411.2,184.3,408.2,187.3,404.4,187.7L404.4,187.7z"/>
<path class="st1" d="M911,372.9c-4.6-0.6-7.8-4.7-7.3-9.3c0.5-3.8,3.5-6.8,7.3-7.3l0,0c4.6,0.6,7.8,4.7,7.3,9.3
	C917.8,369.4,914.8,372.4,911,372.9L911,372.9z"/>
<path class="st1" d="M792.3,100.6c-4.6-0.6-7.8-4.7-7.3-9.3c0.5-3.8,3.5-6.8,7.3-7.3l0,0c4.6,0.6,7.8,4.7,7.3,9.3
	C799,97.1,796,100.1,792.3,100.6L792.3,100.6z"/>
<path class="st1" d="M606.6,101.9c-4.6-0.6-7.8-4.7-7.3-9.3c0.5-3.8,3.5-6.8,7.3-7.3l0,0c4.6,0.6,7.8,4.7,7.3,9.3
	C613.4,98.4,610.4,101.4,606.6,101.9L606.6,101.9z"/>
<path class="st1" d="M646.6,190.1c-4.6-0.6-7.8-4.7-7.3-9.3c0.5-3.8,3.5-6.8,7.3-7.3l0,0c4.6,0.6,7.8,4.7,7.3,9.3
	C653.4,186.7,650.4,189.7,646.6,190.1L646.6,190.1z"/>
<path class="st1" d="M517.7,146.2c-4.6-0.6-7.8-4.7-7.3-9.3c0.5-3.8,3.5-6.8,7.3-7.3l0,0c4.6,0.6,7.8,4.7,7.3,9.3
	C524.5,142.8,521.5,145.8,517.7,146.2L517.7,146.2z"/>
<path class="st1" d="M645.9,125.6c-4.6-0.6-7.8-4.7-7.3-9.3c0.5-3.8,3.5-6.8,7.3-7.3l0,0c4.6,0.6,7.8,4.7,7.3,9.3
	C652.7,122.2,649.7,125.2,645.9,125.6L645.9,125.6z"/>
<path class="st1" d="M331.9,299.3c-4.6-0.6-7.8-4.7-7.3-9.3c0.5-3.8,3.5-6.8,7.3-7.3l0,0c4.6,0.6,7.8,4.7,7.3,9.3
	C338.7,295.8,335.7,298.8,331.9,299.3L331.9,299.3z"/>
<path class="st1" d="M615.3,34.1c-4.6-0.6-7.8-4.7-7.3-9.3c0.5-3.8,3.5-6.8,7.3-7.3l0,0c4.6,0.6,7.8,4.7,7.3,9.3
	C622.1,30.6,619.1,33.6,615.3,34.1L615.3,34.1z"/>
<path class="st1" d="M312.6,252.5c-4.6-0.6-7.8-4.7-7.3-9.3c0.5-3.8,3.5-6.8,7.3-7.3l0,0c4.6,0.6,7.8,4.7,7.3,9.3
	C319.4,249,316.4,252,312.6,252.5L312.6,252.5z"/>
<path class="st1" d="M420.8,227.9c-4.6-0.6-7.8-4.7-7.3-9.3c0.5-3.8,3.5-6.8,7.3-7.3l0,0c4.6,0.6,7.8,4.7,7.3,9.3
	C427.6,224.5,424.6,227.5,420.8,227.9L420.8,227.9z"/>
<path class="st1" d="M839.4,144.6c-4.6-0.6-7.8-4.7-7.3-9.3c0.5-3.8,3.5-6.8,7.3-7.3l0,0c4.6,0.6,7.8,4.7,7.3,9.3
	C846.2,141.1,843.2,144.1,839.4,144.6L839.4,144.6z"/>
<path class="st1" d="M646.8,172.8c-4.6-0.6-7.8-4.7-7.3-9.3c0.5-3.8,3.5-6.8,7.3-7.3l0,0c4.6,0.6,7.8,4.7,7.3,9.3
	C653.6,169.3,650.6,172.3,646.8,172.8L646.8,172.8z"/>
<path class="st1" d="M755.6,57.2c-4.6-0.6-7.8-4.7-7.3-9.3c0.5-3.8,3.5-6.8,7.3-7.3l0,0c4.6,0.6,7.8,4.7,7.3,9.3
	C762.4,53.8,759.4,56.8,755.6,57.2L755.6,57.2z"/>
<path class="st1" d="M369.3,297.4c-4.6-0.6-7.8-4.7-7.3-9.3c0.5-3.8,3.5-6.8,7.3-7.3l0,0c4.6,0.6,7.8,4.7,7.3,9.3
	C376,293.9,373.1,296.9,369.3,297.4L369.3,297.4z"/>
<path class="st1" d="M611.7,118.8c-4.6-0.6-7.8-4.7-7.3-9.3c0.5-3.8,3.5-6.8,7.3-7.3l0,0c4.6,0.6,7.8,4.7,7.3,9.3
	C618.5,115.3,615.5,118.3,611.7,118.8L611.7,118.8z"/>
<path class="st1" d="M637.6,224.5c-4.6-0.6-7.8-4.7-7.3-9.3c0.5-3.8,3.5-6.8,7.3-7.3l0,0c4.6,0.6,7.8,4.7,7.3,9.3
	C644.4,221.1,641.4,224.1,637.6,224.5L637.6,224.5z"/>
<path class="st1" d="M396.4,289.8c-4.6-0.6-7.8-4.7-7.3-9.3c0.5-3.8,3.5-6.8,7.3-7.3l0,0c4.6,0.6,7.8,4.7,7.3,9.3
	C403.2,286.3,400.2,289.3,396.4,289.8L396.4,289.8z"/>
<path class="st1" d="M640.9,98.2c-4.6-0.6-7.8-4.7-7.3-9.3c0.5-3.8,3.5-6.8,7.3-7.3l0,0c4.6,0.6,7.8,4.7,7.3,9.3
	C647.7,94.7,644.7,97.7,640.9,98.2L640.9,98.2z"/>
<path class="st1" d="M541.2,115.6c-4.6-0.6-7.8-4.7-7.3-9.3c0.5-3.8,3.5-6.8,7.3-7.3l0,0c4.6,0.6,7.8,4.7,7.3,9.3
	C548,112.2,545,115.2,541.2,115.6L541.2,115.6z"/>
<path class="st1" d="M818.8,198.2c-4.6-0.6-7.8-4.7-7.3-9.3c0.5-3.8,3.5-6.8,7.3-7.3l0,0c4.6,0.6,7.8,4.7,7.3,9.3
	C825.6,194.8,822.6,197.8,818.8,198.2L818.8,198.2z"/>
<path class="st1" d="M464.6,193.3c-4.6-0.6-7.8-4.7-7.3-9.3c0.5-3.8,3.5-6.8,7.3-7.3l0,0c4.6,0.6,7.8,4.7,7.3,9.3
	C471.4,189.8,468.4,192.8,464.6,193.3L464.6,193.3z"/>
<path class="st1" d="M756.8,163.1c-4.6-0.6-7.8-4.7-7.3-9.3c0.5-3.8,3.5-6.8,7.3-7.3l0,0c4.6,0.6,7.8,4.7,7.3,9.3
	C763.6,159.6,760.6,162.6,756.8,163.1L756.8,163.1z"/>
<path class="st1" d="M730,164.2c-4.6-0.6-7.8-4.7-7.3-9.3c0.5-3.8,3.5-6.8,7.3-7.3l0,0c4.6,0.6,7.8,4.7,7.3,9.3
	C736.8,160.7,733.8,163.7,730,164.2L730,164.2z"/>
<path class="st1" d="M446.4,215.4c-4.6-0.6-7.8-4.7-7.3-9.3c0.5-3.8,3.5-6.8,7.3-7.3l0,0c4.6,0.6,7.8,4.7,7.3,9.3
	C453.2,212,450.2,215,446.4,215.4L446.4,215.4z"/>
<path class="st1" d="M388.2,365.4c-4.6-0.6-7.8-4.7-7.3-9.3c0.5-3.8,3.5-6.8,7.3-7.3l0,0c4.6,0.6,7.8,4.7,7.3,9.3
	C395,361.9,392,364.9,388.2,365.4L388.2,365.4z"/>
<path class="st1" d="M884.4,383.5c-4.6-0.6-7.8-4.7-7.3-9.3c0.5-3.8,3.5-6.8,7.3-7.3l0,0c4.6,0.6,7.8,4.7,7.3,9.3
	C891.2,380,888.2,383,884.4,383.5L884.4,383.5z"/>
<path class="st1" d="M607.8,129.2c-4.6-0.6-7.8-4.7-7.3-9.3c0.5-3.8,3.5-6.8,7.3-7.3l0,0c4.6,0.6,7.8,4.7,7.3,9.3
	C614.5,125.7,611.5,128.7,607.8,129.2L607.8,129.2z"/>
<path class="st1" d="M577.8,208.1c-4.6-0.6-7.8-4.7-7.3-9.3c0.5-3.8,3.5-6.8,7.3-7.3l0,0c4.6,0.6,7.8,4.7,7.3,9.3
	C584.6,204.6,581.6,207.6,577.8,208.1L577.8,208.1z"/>
<path class="st1" d="M644.7,123.1c-4.6-0.6-7.8-4.7-7.3-9.3c0.5-3.8,3.5-6.8,7.3-7.3l0,0c4.6,0.6,7.8,4.7,7.3,9.3
	C651.5,119.6,648.5,122.6,644.7,123.1L644.7,123.1z"/>
<path class="st2" d="M368.4,378.7c-4.6-0.6-7.8-4.7-7.3-9.3c0.5-3.8,3.5-6.8,7.3-7.3l0,0c4.6,0.6,7.8,4.7,7.3,9.3
	C375.2,375.2,372.2,378.2,368.4,378.7L368.4,378.7z"/>
<path class="st3" d="M866.2,166.5c-4.6-0.6-7.8-4.7-7.3-9.3c0.5-3.8,3.5-6.8,7.3-7.3l0,0c4.6,0.6,7.8,4.7,7.3,9.3
	C873,163,870,166,866.2,166.5L866.2,166.5z"/>
<path class="st3" d="M842.5,193.5c-4.6-0.6-7.8-4.7-7.3-9.3c0.5-3.8,3.5-6.8,7.3-7.3l0,0c4.6,0.6,7.8,4.7,7.3,9.3
	C849.2,190.1,846.3,193.1,842.5,193.5L842.5,193.5z"/>
<path class="st3" d="M665.8,87.3c-4.6-0.6-7.8-4.7-7.3-9.3c0.5-3.8,3.5-6.8,7.3-7.3l0,0c4.6,0.6,7.8,4.7,7.3,9.3
	C672.6,83.9,669.6,86.9,665.8,87.3L665.8,87.3z"/>
<path class="st3" d="M613.9,108.7c-4.6-0.6-7.8-4.7-7.3-9.3c0.5-3.8,3.5-6.8,7.3-7.3l0,0c4.6,0.6,7.8,4.7,7.3,9.3
	C620.7,105.2,617.7,108.2,613.9,108.7L613.9,108.7z"/>
<path class="st3" d="M486,220.7c-4.6-0.6-7.8-4.7-7.3-9.3c0.5-3.8,3.5-6.8,7.3-7.3l0,0c4.6,0.6,7.8,4.7,7.3,9.3
	C492.8,217.3,489.8,220.3,486,220.7L486,220.7z"/>
<path class="st3" d="M714.7,118.2c-4.6-0.6-7.8-4.7-7.3-9.3c0.5-3.8,3.5-6.8,7.3-7.3l0,0c4.6,0.6,7.8,4.7,7.3,9.3
	C721.5,114.7,718.5,117.7,714.7,118.2L714.7,118.2z"/>
<path class="st3" d="M319.2,290.5c-4.6-0.6-7.8-4.7-7.3-9.3c0.5-3.8,3.5-6.8,7.3-7.3l0,0c4.6,0.6,7.8,4.7,7.3,9.3
	C326,287.1,323,290.1,319.2,290.5L319.2,290.5z"/>
<path class="st3" d="M778.7,136.9c-4.6-0.6-7.8-4.7-7.3-9.3c0.5-3.8,3.5-6.8,7.3-7.3l0,0c4.6,0.6,7.8,4.7,7.3,9.3
	C785.5,133.4,782.5,136.4,778.7,136.9L778.7,136.9z"/>
<path class="st3" d="M654.8,69c-4.6-0.6-7.8-4.7-7.3-9.3c0.5-3.8,3.5-6.8,7.3-7.3l0,0c4.6,0.6,7.8,4.7,7.3,9.3
	C661.6,65.5,658.6,68.5,654.8,69L654.8,69z"/>
<path class="st3" d="M919.7,248.7c-4.6-0.6-7.8-4.7-7.3-9.3c0.5-3.8,3.5-6.8,7.3-7.3l0,0c4.6,0.6,7.8,4.7,7.3,9.3
	C926.5,245.2,923.5,248.2,919.7,248.7L919.7,248.7z"/>
<path class="st3" d="M792.5,193.2c-4.6-0.6-7.8-4.7-7.3-9.3c0.5-3.8,3.5-6.8,7.3-7.3l0,0c4.6,0.6,7.8,4.7,7.3,9.3
	C799.3,189.7,796.3,192.7,792.5,193.2L792.5,193.2z"/>
<path class="st3" d="M541.9,158.9c-4.6-0.6-7.8-4.7-7.3-9.3c0.5-3.8,3.5-6.8,7.3-7.3l0,0c4.6,0.6,7.8,4.7,7.3,9.3
	C548.7,155.4,545.7,158.4,541.9,158.9L541.9,158.9z"/>
<path class="st3" d="M654.2,183.3c-4.6-0.6-7.8-4.7-7.3-9.3c0.5-3.8,3.5-6.8,7.3-7.3l0,0c4.6,0.6,7.8,4.7,7.3,9.3
	C660.9,179.8,658,182.8,654.2,183.3L654.2,183.3z"/>
<path class="st3" d="M708.3,138.3c-4.6-0.6-7.8-4.7-7.3-9.3c0.5-3.8,3.5-6.8,7.3-7.3l0,0c4.6,0.6,7.8,4.7,7.3,9.3
	C715.1,134.8,712.1,137.8,708.3,138.3L708.3,138.3z"/>
<path class="st3" d="M634.3,178.6c-4.6-0.6-7.8-4.7-7.3-9.3c0.5-3.8,3.5-6.8,7.3-7.3l0,0c4.6,0.6,7.8,4.7,7.3,9.3
	C641.1,175.2,638.1,178.2,634.3,178.6L634.3,178.6z"/>
<path class="st3" d="M911.8,367.3c-4.6-0.6-7.8-4.7-7.3-9.3c0.5-3.8,3.5-6.8,7.3-7.3l0,0c4.6,0.6,7.8,4.7,7.3,9.3
	C918.5,363.8,915.5,366.8,911.8,367.3L911.8,367.3z"/>
<path class="st3" d="M725,130.6c-4.6-0.6-7.8-4.7-7.3-9.3c0.5-3.8,3.5-6.8,7.3-7.3l0,0c4.6,0.6,7.8,4.7,7.3,9.3
	C731.8,127.1,728.8,130.1,725,130.6L725,130.6z"/>
<path class="st3" d="M545.3,150.9c-4.6-0.6-7.8-4.7-7.3-9.3c0.5-3.8,3.5-6.8,7.3-7.3l0,0c4.6,0.6,7.8,4.7,7.3,9.3
	C552.1,147.5,549.1,150.5,545.3,150.9L545.3,150.9z"/>
<path class="st3" d="M943.9,385.1c-4.6-0.6-7.8-4.7-7.3-9.3c0.5-3.8,3.5-6.8,7.3-7.3l0,0c4.6,0.6,7.8,4.7,7.3,9.3
	C950.7,381.7,947.7,384.7,943.9,385.1L943.9,385.1z"/>
<path class="st3" d="M760.4,139.9c-4.6-0.6-7.8-4.7-7.3-9.3c0.5-3.8,3.5-6.8,7.3-7.3l0,0c4.6,0.6,7.8,4.7,7.3,9.3
	C767.2,136.5,764.2,139.5,760.4,139.9L760.4,139.9z"/>
<path class="st3" d="M480.7,210.5c-4.6-0.6-7.8-4.7-7.3-9.3c0.5-3.8,3.5-6.8,7.3-7.3l0,0c4.6,0.6,7.8,4.7,7.3,9.3
	C487.5,207,484.5,210,480.7,210.5L480.7,210.5z"/>
<path class="st3" d="M855.7,125.1c-4.6-0.6-7.8-4.7-7.3-9.3c0.5-3.8,3.5-6.8,7.3-7.3l0,0c4.6,0.6,7.8,4.7,7.3,9.3
	C862.5,121.7,859.5,124.7,855.7,125.1L855.7,125.1z"/>
<path class="st3" d="M1003.7,358.4c-4.6-0.6-7.8-4.7-7.3-9.3c0.5-3.8,3.5-6.8,7.3-7.3l0,0c4.6,0.6,7.8,4.7,7.3,9.3
	C1010.5,355,1007.5,358,1003.7,358.4L1003.7,358.4z"/>
<path class="st3" d="M862.6,152.6c-4.6-0.6-7.8-4.7-7.3-9.3c0.5-3.8,3.5-6.8,7.3-7.3l0,0c4.6,0.6,7.8,4.7,7.3,9.3
	C869.3,149.1,866.4,152.1,862.6,152.6L862.6,152.6z"/>
<path class="st3" d="M901.5,142.3c-4.6-0.6-7.8-4.7-7.3-9.3c0.5-3.8,3.5-6.8,7.3-7.3l0,0c4.6,0.6,7.8,4.7,7.3,9.3
	C908.3,138.9,905.3,141.9,901.5,142.3L901.5,142.3z"/>
<path class="st3" d="M413.8,124.4c-4.6-0.6-7.8-4.7-7.3-9.3c0.5-3.8,3.5-6.8,7.3-7.3l0,0c4.6,0.6,7.8,4.7,7.3,9.3
	C420.6,120.9,417.6,123.9,413.8,124.4L413.8,124.4z"/>
<path class="st3" d="M333.1,270.8c-4.6-0.6-7.8-4.7-7.3-9.3c0.5-3.8,3.5-6.8,7.3-7.3l0,0c4.6,0.6,7.8,4.7,7.3,9.3
	C339.9,267.3,336.9,270.3,333.1,270.8L333.1,270.8z"/>
<path class="st3" d="M292.6,361.6c-4.6-0.6-7.8-4.7-7.3-9.3c0.5-3.8,3.5-6.8,7.3-7.3l0,0c4.6,0.6,7.8,4.7,7.3,9.3
	C299.4,358.1,296.4,361.1,292.6,361.6L292.6,361.6z"/>
<path class="st3" d="M825.6,215.4c-4.6-0.6-7.8-4.7-7.3-9.3c0.5-3.8,3.5-6.8,7.3-7.3l0,0c4.6,0.6,7.8,4.7,7.3,9.3
	C832.4,212,829.4,215,825.6,215.4L825.6,215.4z"/>
<path class="st3" d="M434.1,197.8c-4.6-0.6-7.8-4.7-7.3-9.3c0.5-3.8,3.5-6.8,7.3-7.3l0,0c4.6,0.6,7.8,4.7,7.3,9.3
	C440.9,194.4,437.9,197.4,434.1,197.8L434.1,197.8z"/>
<path class="st3" d="M714.1,203.3c-4.6-0.6-7.8-4.7-7.3-9.3c0.5-3.8,3.5-6.8,7.3-7.3l0,0c4.6,0.6,7.8,4.7,7.3,9.3
	C720.9,199.8,717.9,202.8,714.1,203.3L714.1,203.3z"/>
<path class="st3" d="M843.8,373.6c-4.6-0.6-7.8-4.7-7.3-9.3c0.5-3.8,3.5-6.8,7.3-7.3l0,0c4.6,0.6,7.8,4.7,7.3,9.3
	C850.6,370.2,847.6,373.1,843.8,373.6L843.8,373.6z"/>
<path class="st3" d="M661.4,84.4c-4.6-0.6-7.8-4.7-7.3-9.3c0.5-3.8,3.5-6.8,7.3-7.3l0,0c4.6,0.6,7.8,4.7,7.3,9.3
	C668.2,81,665.2,83.9,661.4,84.4L661.4,84.4z"/>
<path class="st3" d="M750.1,145.2c-4.6-0.6-7.8-4.7-7.3-9.3c0.5-3.8,3.5-6.8,7.3-7.3l0,0c4.6,0.6,7.8,4.7,7.3,9.3
	C756.9,141.8,753.9,144.8,750.1,145.2L750.1,145.2z"/>
<path class="st3" d="M745.5,65.4c-4.6-0.6-7.8-4.7-7.3-9.3c0.5-3.8,3.5-6.8,7.3-7.3l0,0c4.6,0.6,7.8,4.7,7.3,9.3
	C752.3,62,749.3,65,745.5,65.4L745.5,65.4z"/>
<path class="st3" d="M443.4,173.9c-4.6-0.6-7.8-4.7-7.3-9.3c0.5-3.8,3.5-6.8,7.3-7.3l0,0c4.6,0.6,7.8,4.7,7.3,9.3
	C450.1,170.5,447.2,173.5,443.4,173.9L443.4,173.9z"/>
<path class="st3" d="M364.1,251.6c-4.6-0.6-7.8-4.7-7.3-9.3c0.5-3.8,3.5-6.8,7.3-7.3l0,0c4.6,0.6,7.8,4.7,7.3,9.3
	C370.9,248.1,367.9,251.1,364.1,251.6L364.1,251.6z"/>
<path class="st3" d="M401.5,279c-4.6-0.6-7.8-4.7-7.3-9.3c0.5-3.8,3.5-6.8,7.3-7.3l0,0c4.6,0.6,7.8,4.7,7.3,9.3
	C408.3,275.6,405.3,278.6,401.5,279L401.5,279z"/>
<path class="st3" d="M434.4,215.5c-4.6-0.6-7.8-4.7-7.3-9.3c0.5-3.8,3.5-6.8,7.3-7.3l0,0c4.6,0.6,7.8,4.7,7.3,9.3
	C441.2,212.1,438.2,215.1,434.4,215.5L434.4,215.5z"/>
<path class="st3" d="M664.7,128.3c-4.6-0.6-7.8-4.7-7.3-9.3c0.5-3.8,3.5-6.8,7.3-7.3l0,0c4.6,0.6,7.8,4.7,7.3,9.3
	C671.4,124.8,668.5,127.8,664.7,128.3L664.7,128.3z"/>
<path class="st3" d="M770.4,237.9c-4.6-0.6-7.8-4.7-7.3-9.3c0.5-3.8,3.5-6.8,7.3-7.3l0,0c4.6,0.6,7.8,4.7,7.3,9.3
	C777.2,234.5,774.2,237.5,770.4,237.9L770.4,237.9z"/>
<path class="st3" d="M429.6,193.5c-4.6-0.6-7.8-4.7-7.3-9.3c0.5-3.8,3.5-6.8,7.3-7.3l0,0c4.6,0.6,7.8,4.7,7.3,9.3
	C436.4,190.1,433.4,193.1,429.6,193.5L429.6,193.5z"/>
<path class="st3" d="M470.5,266.9c-4.6-0.6-7.8-4.7-7.3-9.3c0.5-3.8,3.5-6.8,7.3-7.3l0,0c4.6,0.6,7.8,4.7,7.3,9.3
	C477.3,263.4,474.3,266.4,470.5,266.9L470.5,266.9z"/>
<path class="st3" d="M626.6,222.3c-4.6-0.6-7.8-4.7-7.3-9.3c0.5-3.8,3.5-6.8,7.3-7.3l0,0c4.6,0.6,7.8,4.7,7.3,9.3
	C633.4,218.8,630.4,221.8,626.6,222.3L626.6,222.3z"/>
<path class="st3" d="M339.4,387.9c-4.6-0.6-7.8-4.7-7.3-9.3c0.5-3.8,3.5-6.8,7.3-7.3l0,0c4.6,0.6,7.8,4.7,7.3,9.3
	C346.2,384.4,343.2,387.4,339.4,387.9L339.4,387.9z"/>
<path class="st3" d="M357.9,369.4c-4.6-0.6-7.8-4.7-7.3-9.3c0.5-3.8,3.5-6.8,7.3-7.3l0,0c4.6,0.6,7.8,4.7,7.3,9.3
	C364.7,366,361.7,369,357.9,369.4L357.9,369.4z"/>
<path class="st3" d="M977.1,219.3c-4.6-0.6-7.8-4.7-7.3-9.3c0.5-3.8,3.5-6.8,7.3-7.3l0,0c4.6,0.6,7.8,4.7,7.3,9.3
	C983.9,215.9,980.9,218.9,977.1,219.3L977.1,219.3z"/>
<path class="st3" d="M727.9,139.4c-4.6-0.6-7.8-4.7-7.3-9.3c0.5-3.8,3.5-6.8,7.3-7.3l0,0c4.6,0.6,7.8,4.7,7.3,9.3
	C734.7,136,731.7,139,727.9,139.4L727.9,139.4z"/>
<path class="st3" d="M646.8,151.7c-4.6-0.6-7.8-4.7-7.3-9.3c0.5-3.8,3.5-6.8,7.3-7.3l0,0c4.6,0.6,7.8,4.7,7.3,9.3
	C653.6,148.2,650.6,151.2,646.8,151.7L646.8,151.7z"/>
<path class="st3" d="M594.9,73.3c-4.6-0.6-7.8-4.7-7.3-9.3c0.5-3.8,3.5-6.8,7.3-7.3l0,0c4.6,0.6,7.8,4.7,7.3,9.3
	C601.6,69.8,598.6,72.8,594.9,73.3L594.9,73.3z"/>
<path class="st3" d="M368.6,183.9c-4.6-0.6-7.8-4.7-7.3-9.3c0.5-3.8,3.5-6.8,7.3-7.3l0,0c4.6,0.6,7.8,4.7,7.3,9.3
	C375.4,180.5,372.4,183.5,368.6,183.9L368.6,183.9z"/>
<path class="st3" d="M528.6,64.9c-4.6-0.6-7.8-4.7-7.3-9.3c0.5-3.8,3.5-6.8,7.3-7.3l0,0c4.6,0.6,7.8,4.7,7.3,9.3
	C535.4,61.5,532.4,64.5,528.6,64.9C528.6,64.9,528.6,64.9,528.6,64.9z"/>
<path class="st3" d="M861.3,270.8c-4.6-0.6-7.8-4.7-7.3-9.3c0.5-3.8,3.5-6.8,7.3-7.3l0,0c4.6,0.6,7.8,4.7,7.3,9.3
	C868.1,267.3,865.1,270.3,861.3,270.8L861.3,270.8z"/>
<path class="st3" d="M387.5,372.9c-4.6-0.6-7.8-4.7-7.3-9.3c0.5-3.8,3.5-6.8,7.3-7.3l0,0c4.6,0.6,7.8,4.7,7.3,9.3
	C394.3,369.4,391.3,372.4,387.5,372.9L387.5,372.9z"/>
<path class="st3" d="M764.2,95.9c-4.6-0.6-7.8-4.7-7.3-9.3c0.5-3.8,3.5-6.8,7.3-7.3l0,0c4.6,0.6,7.8,4.7,7.3,9.3
	C771,92.5,768,95.5,764.2,95.9L764.2,95.9z"/>
<path class="st3" d="M396.2,290.4c-4.6-0.6-7.8-4.7-7.3-9.3c0.5-3.8,3.5-6.8,7.3-7.3l0,0c4.6,0.6,7.8,4.7,7.3,9.3
	C403,286.9,400,289.9,396.2,290.4L396.2,290.4z"/>
<path class="st3" d="M337,384.4c-4.6-0.6-7.8-4.7-7.3-9.3c0.5-3.8,3.5-6.8,7.3-7.3l0,0c4.6,0.6,7.8,4.7,7.3,9.3
	C343.8,380.9,340.8,383.9,337,384.4L337,384.4z"/>
<path class="st3" d="M542.2,165.3c-4.6-0.6-7.8-4.7-7.3-9.3c0.5-3.8,3.5-6.8,7.3-7.3l0,0c4.6,0.6,7.8,4.7,7.3,9.3
	C549,161.9,546,164.9,542.2,165.3L542.2,165.3z"/>
<path class="st3" d="M839.7,227.7c-4.6-0.6-7.8-4.7-7.3-9.3c0.5-3.8,3.5-6.8,7.3-7.3l0,0c4.6,0.6,7.8,4.7,7.3,9.3
	C846.5,224.2,843.5,227.2,839.7,227.7L839.7,227.7z"/>
<path class="st3" d="M564.5,179.1c-4.6-0.6-7.8-4.7-7.3-9.3c0.5-3.8,3.5-6.8,7.3-7.3l0,0c4.6,0.6,7.8,4.7,7.3,9.3
	C571.3,175.7,568.3,178.7,564.5,179.1L564.5,179.1z"/>
<path class="st3" d="M807.8,59.8c-4.6-0.6-7.8-4.7-7.3-9.3c0.5-3.8,3.5-6.8,7.3-7.3l0,0c4.6,0.6,7.8,4.7,7.3,9.3
	C814.6,56.3,811.6,59.3,807.8,59.8L807.8,59.8z"/>
<path class="st3" d="M492.8,226.3c-4.6-0.6-7.8-4.7-7.3-9.3c0.5-3.8,3.5-6.8,7.3-7.3l0,0c4.6,0.6,7.8,4.7,7.3,9.3
	C499.6,222.8,496.6,225.8,492.8,226.3L492.8,226.3z"/>
<path class="st3" d="M519,274.4c-4.6-0.6-7.8-4.7-7.3-9.3c0.5-3.8,3.5-6.8,7.3-7.3l0,0c4.6,0.6,7.8,4.7,7.3,9.3
	C525.8,270.9,522.8,273.9,519,274.4L519,274.4z"/>
<path class="st3" d="M464,334.3c-4.6-0.6-7.8-4.7-7.3-9.3c0.5-3.8,3.5-6.8,7.3-7.3l0,0c4.6,0.6,7.8,4.7,7.3,9.3
	C470.8,330.8,467.8,333.8,464,334.3L464,334.3z"/>
<path class="st3" d="M721.3,171.4c-4.6-0.6-7.8-4.7-7.3-9.3c0.5-3.8,3.5-6.8,7.3-7.3l0,0c4.6,0.6,7.8,4.7,7.3,9.3
	C728.1,168,725.1,170.9,721.3,171.4L721.3,171.4z"/>
<path class="st3" d="M925,299.8c-4.6-0.6-7.8-4.7-7.3-9.3c0.5-3.8,3.5-6.8,7.3-7.3l0,0c4.6,0.6,7.8,4.7,7.3,9.3
	C931.8,296.3,928.8,299.3,925,299.8L925,299.8z"/>
<path class="st3" d="M502.5,148.4c-4.6-0.6-7.8-4.7-7.3-9.3c0.5-3.8,3.5-6.8,7.3-7.3l0,0c4.6,0.6,7.8,4.7,7.3,9.3
	C509.3,144.9,506.3,147.9,502.5,148.4L502.5,148.4z"/>
<path class="st3" d="M749.9,93.4c-4.6-0.6-7.8-4.7-7.3-9.3c0.5-3.8,3.5-6.8,7.3-7.3l0,0c4.6,0.6,7.8,4.7,7.3,9.3
	C756.7,89.9,753.7,92.9,749.9,93.4L749.9,93.4z"/>
<path class="st3" d="M610.2,133.9c-4.6-0.6-7.8-4.7-7.3-9.3c0.5-3.8,3.5-6.8,7.3-7.3l0,0c4.6,0.6,7.8,4.7,7.3,9.3
	C616.9,130.4,614,133.4,610.2,133.9L610.2,133.9z"/>
<path class="st3" d="M517.8,154.5c-4.6-0.6-7.8-4.7-7.3-9.3c0.5-3.8,3.5-6.8,7.3-7.3l0,0c4.6,0.6,7.8,4.7,7.3,9.3
	C524.6,151,521.6,154,517.8,154.5L517.8,154.5z"/>
<path class="st3" d="M955.9,290.4c-4.6-0.6-7.8-4.7-7.3-9.3c0.5-3.8,3.5-6.8,7.3-7.3l0,0c4.6,0.6,7.8,4.7,7.3,9.3
	C962.7,286.9,959.7,289.9,955.9,290.4L955.9,290.4z"/>
<path class="st3" d="M860.5,192.9c-4.6-0.6-7.8-4.7-7.3-9.3c0.5-3.8,3.5-6.8,7.3-7.3l0,0c4.6,0.6,7.8,4.7,7.3,9.3
	C867.3,189.5,864.3,192.4,860.5,192.9L860.5,192.9z"/>
<path class="st3" d="M493.4,63.5c-4.6-0.6-7.8-4.7-7.3-9.3c0.5-3.8,3.5-6.8,7.3-7.3l0,0c4.6,0.6,7.8,4.7,7.3,9.3
	C500.2,60.1,497.2,63.1,493.4,63.5L493.4,63.5z"/>
<path class="st3" d="M306.7,226.3c-4.6-0.6-7.8-4.7-7.3-9.3c0.5-3.8,3.5-6.8,7.3-7.3l0,0c4.6,0.6,7.8,4.7,7.3,9.3
	C313.4,222.8,310.5,225.8,306.7,226.3L306.7,226.3z"/>
<path class="st3" d="M542.4,117.8c-4.6-0.6-7.8-4.7-7.3-9.3c0.5-3.8,3.5-6.8,7.3-7.3l0,0c4.6,0.6,7.8,4.7,7.3,9.3
	C549.2,114.3,546.2,117.3,542.4,117.8L542.4,117.8z"/>
<path class="st3" d="M393,156.5c-4.6-0.6-7.8-4.7-7.3-9.3c0.5-3.8,3.5-6.8,7.3-7.3l0,0c4.6,0.6,7.8,4.7,7.3,9.3
	C399.8,153,396.8,156,393,156.5L393,156.5z"/>
<path class="st3" d="M636.8,150.2c-4.6-0.6-7.8-4.7-7.3-9.3c0.5-3.8,3.5-6.8,7.3-7.3l0,0c4.6,0.6,7.8,4.7,7.3,9.3
	C643.6,146.7,640.6,149.7,636.8,150.2L636.8,150.2z"/>
<path class="st3" d="M853.2,176.2c-4.6-0.6-7.8-4.7-7.3-9.3c0.5-3.8,3.5-6.8,7.3-7.3l0,0c4.6,0.6,7.8,4.7,7.3,9.3
	C860,172.8,857,175.8,853.2,176.2L853.2,176.2z"/>
<path class="st3" d="M618.4,148.1c-4.6-0.6-7.8-4.7-7.3-9.3c0.5-3.8,3.5-6.8,7.3-7.3l0,0c4.6,0.6,7.8,4.7,7.3,9.3
	C625.2,144.7,622.2,147.7,618.4,148.1L618.4,148.1z"/>
<path class="st3" d="M535.4,113c-4.6-0.6-7.8-4.7-7.3-9.3c0.5-3.8,3.5-6.8,7.3-7.3l0,0c4.6,0.6,7.8,4.7,7.3,9.3
	C542.2,109.5,539.2,112.5,535.4,113L535.4,113z"/>
<path class="st3" d="M873.7,372.7c-4.6-0.6-7.8-4.7-7.3-9.3c0.5-3.8,3.5-6.8,7.3-7.3l0,0c4.6,0.6,7.8,4.7,7.3,9.3
	C880.5,369.3,877.5,372.3,873.7,372.7L873.7,372.7z"/>
<path class="st3" d="M375.1,310.8c-4.6-0.6-7.8-4.7-7.3-9.3c0.5-3.8,3.5-6.8,7.3-7.3l0,0c4.6,0.6,7.8,4.7,7.3,9.3
	C381.9,307.3,378.9,310.3,375.1,310.8L375.1,310.8z"/>
<path class="st3" d="M827.8,203.4c-4.6-0.6-7.8-4.7-7.3-9.3c0.5-3.8,3.5-6.8,7.3-7.3l0,0c4.6,0.6,7.8,4.7,7.3,9.3
	C834.6,199.9,831.6,202.9,827.8,203.4L827.8,203.4z"/>
<path class="st3" d="M983.6,287.4c-4.6-0.6-7.8-4.7-7.3-9.3c0.5-3.8,3.5-6.8,7.3-7.3l0,0c4.6,0.6,7.8,4.7,7.3,9.3
	C990.4,283.9,987.4,286.9,983.6,287.4L983.6,287.4z"/>
<path class="st3" d="M857.5,192.4c-4.6-0.6-7.8-4.7-7.3-9.3c0.5-3.8,3.5-6.8,7.3-7.3l0,0c4.6,0.6,7.8,4.7,7.3,9.3
	C864.3,188.9,861.3,191.9,857.5,192.4L857.5,192.4z"/>
<path class="st3" d="M796.8,230.3c-4.6-0.6-7.8-4.7-7.3-9.3c0.5-3.8,3.5-6.8,7.3-7.3l0,0c4.6,0.6,7.8,4.7,7.3,9.3
	C803.6,226.9,800.6,229.9,796.8,230.3L796.8,230.3z"/>
<path class="st3" d="M906.9,388.2c-4.6-0.6-7.8-4.7-7.3-9.3c0.5-3.8,3.5-6.8,7.3-7.3l0,0c4.6,0.6,7.8,4.7,7.3,9.3
	C913.7,384.7,910.7,387.7,906.9,388.2L906.9,388.2z"/>
<path class="st3" d="M840.6,178.6L840.6,178.6c4.6,0.6,7.8,4.7,7.3,9.3c-0.5,3.8-3.5,6.8-7.3,7.3l0,0c-4.6,0-8.3-3.7-8.3-8.3v0"/>
<path class="st3" d="M455.1,198.2c-4.6-0.6-7.8-4.7-7.3-9.3c0.5-3.8,3.5-6.8,7.3-7.3l0,0c4.6,0.6,7.8,4.7,7.3,9.3
	C461.9,194.8,458.9,197.8,455.1,198.2L455.1,198.2z"/>
<path class="st3" d="M511.5,76.2c-4.6-0.6-7.8-4.7-7.3-9.3c0.5-3.8,3.5-6.8,7.3-7.3l0,0c4.6,0.6,7.8,4.7,7.3,9.3
	C518.3,72.7,515.3,75.7,511.5,76.2L511.5,76.2z"/>
<path class="st3" d="M487.1,218.2c-4.6-0.6-7.8-4.7-7.3-9.3c0.5-3.8,3.5-6.8,7.3-7.3l0,0c4.6,0.6,7.8,4.7,7.3,9.3
	C493.9,214.7,490.9,217.7,487.1,218.2L487.1,218.2z"/>
<path class="st3" d="M629.9,197.3c-4.6-0.6-7.8-4.7-7.3-9.3c0.5-3.8,3.5-6.8,7.3-7.3l0,0c4.6,0.6,7.8,4.7,7.3,9.3
	C636.7,193.9,633.7,196.9,629.9,197.3L629.9,197.3z"/>
<path class="st3" d="M900.8,181c-4.6-0.6-7.8-4.7-7.3-9.3c0.5-3.8,3.5-6.8,7.3-7.3l0,0c4.6,0.6,7.8,4.7,7.3,9.3
	C907.5,177.6,904.5,180.6,900.8,181L900.8,181z"/>
<path class="st3" d="M444.2,174.8c-4.6-0.6-7.8-4.7-7.3-9.3c0.5-3.8,3.5-6.8,7.3-7.3l0,0c4.6,0.6,7.8,4.7,7.3,9.3
	C451,171.4,448,174.4,444.2,174.8L444.2,174.8z"/>
<path class="st3" d="M400.7,179.9c-4.6-0.6-7.8-4.7-7.3-9.3c0.5-3.8,3.5-6.8,7.3-7.3l0,0c4.6,0.6,7.8,4.7,7.3,9.3
	C407.5,176.4,404.5,179.4,400.7,179.9L400.7,179.9z"/>
<path class="st4" d="M510.4,388.2c0-68.4,55.5-123.9,123.9-123.9s123.9,55.5,123.9,123.9"/>
<path class="st4" d="M386.3,389.4c-0.7-74.1,31.7-144.5,88.5-192.1c104.8-88,261.3-74.4,349.3,30.6c37.5,44.6,58.1,101,58,159.3"/>
<path class="st4" d="M262.4,385.5c0.4-109.3,49-212.8,132.8-283c157.4-132,392-111.5,524,45.8c56.3,66.9,87.1,151.6,87,239"/>
<text transform="matrix(1 -4.982344e-03 4.982344e-03 1 627.6346 410.4135)" class="st5 st6 st7">0</text>
<path class="st4" d="M634.3,387.3l291.9-244.9"/>
<line class="st4" x1="634.3" y1="387.3" x2="634.3" y2="2.5"/>
<line class="st4" x1="634.3" y1="387.3" x2="1020" y2="387.3"/>
<text transform="matrix(1 -4.982344e-03 4.982344e-03 1 747.2471 409.8773)" class="st5 st6 st7">10</text>
<text transform="matrix(1 -4.982344e-03 4.982344e-03 1 869.6557 409.2674)" class="st5 st6 st7">20</text>
<text transform="matrix(1 -4.982344e-03 4.982344e-03 1 994.0878 408.6474)" class="st5 st6 st7">30</text>
<polyline class="st4" points="634.3,387.3 249.5,387.3 249.5,387.3 "/>
<polyline class="st4" points="368.4,99.1 634.3,387.3 796.3,36.7 "/>
<polyline class="st4" points="292.6,211.2 634.3,387.3 489,28.6 "/>
</svg>
