<svg xmlns="http://www.w3.org/2000/svg" width="256" height="256" viewBox="0 0 256 256"><title>icon_sketch</title><path d="M160.9,101.1c-6.2-14.9-4.9-30.3,3.8-44.7l3.2-5.3a127.4,127.4,0,0,0,13.5-28.8L185.7,9a4.2,4.2,0,0,1,3.7-3h.5a4.1,4.1,0,0,1,3.9,3.1l4.3,13.2a123.2,123.2,0,0,0,13.5,28.8l3.2,5.3a48.3,48.3,0,0,1,3.5,44.7l-7.6,18A223.2,223.2,0,0,0,198,159.6v.2l-4.4,16A4.1,4.1,0,0,1,190,179h-.8a4.1,4.1,0,0,1-3.6-3.2l-4.4-16.2A226.7,226.7,0,0,0,168.5,119Zm5.7-2.4,7.6,18a228.8,228.8,0,0,1,13,41.5l2.4,8.8,2.4-8.8a228.8,228.8,0,0,1,13-41.5l7.6-18A40.9,40.9,0,0,0,216,82.3a42.6,42.6,0,0,0-6.4-22.7l-3.3-5.2a135.2,135.2,0,0,1-14.1-30.2l-2.5-7.7-2.4,7.7a139.8,139.8,0,0,1-14.1,30.2l-3.3,5.2C162.3,72.2,161.1,85.8,166.6,98.7Zm22.5,36.8h2.1V104.2h4.4V70.3h-4.4V42.2h-2.1V70.3h-4.4v33.9h4.4Zm-150-12.4A28.9,28.9,0,0,0,44,108.6l.6-10.2c.4-9.5,4-18.7,10.5-27.3A53.7,53.7,0,0,0,65.4,48.3l6.1-32.7A4.1,4.1,0,0,1,76,12.8a3.5,3.5,0,0,1,3.2,3.3l6,32.2A53.7,53.7,0,0,0,95.5,71.1c6.5,8.6,10.1,17.8,10.5,27.3l.6,10.1a28.6,28.6,0,0,0,4.9,14.7c10.8,16.5,6.6,36.9-10.1,49.6-11.4,8.6-18.1,20.3-18.9,32.9l-1.8,31.5L75.3,248,70,237.1l-1.9-31.4c-.8-12.7-7.5-24.3-18.9-32.9C32.2,160,28.1,139.6,39.1,123.1Zm13.8,44.8c12.9,9.6,20.5,22.9,21.3,37.4l1.1,17.8,1.1-17.8c.8-14.4,8.4-27.7,21.3-37.4s17.6-27.7,8.6-41.4a35.9,35.9,0,0,1-5.9-17.7l-.5-10.1c-.4-8.2-3.5-16.3-9.3-23.9A60.5,60.5,0,0,1,79.1,49.4L75.3,28.7,71.5,49.4A60.5,60.5,0,0,1,60,74.8c-5.8,7.6-8.9,15.7-9.3,23.9l-.5,10.2a35.9,35.9,0,0,1-5.9,17.6C35.1,140.2,38.7,157.2,52.9,167.9Zm21,9.3H76V151.7h4.4V110.1H76v-37H73.9v37H69.6v41.6h4.3Z"/></svg>