<svg xmlns="http://www.w3.org/2000/svg" viewBox="0 0 650 210"><path d="M7.2,5H26V18.7H7.2ZM32.5,5H51.2V18.7H32.5ZM57.7,5H76.4V18.7H57.7ZM82.9,5h18.8V18.7H82.9Zm25.2,0h18.7V18.7H108.1Zm25.2,0h18.8V18.7H133.3Zm25.3,0h18.7V18.7H158.6ZM7.2,23.5H26V37.2H7.2Zm25.3,0H51.2V37.2H32.5Zm25.2,0H76.4V37.2H57.7Zm25.2,0h18.8V37.2H82.9Z" fill="#e2e2e2"/><path d="M7.2,41.9H26V55.7H7.2Zm25.3,0H51.2V55.7H32.5Zm25.2,0H76.4V55.7H57.7Zm25.2,0h18.8V55.7H82.9Zm25.2,0h18.7V55.7H108.1Zm25.2,0h18.8V55.7H133.3Zm25.3,0h18.7V55.7H158.6ZM7.2,60.4H26V74.2H7.2Zm25.3,0H51.2V74.2H32.5Zm25.2,0H76.4V74.2H57.7Zm25.2,0h18.8V74.2H82.9Zm25.2,0h18.7V74.2H108.1Zm25.2,0h18.8V74.2H133.3Zm25.3,0h18.7V74.2H158.6ZM108.1,23.5h18.7V37.2H108.1Zm25.2,0h18.8V37.2H133.3Zm25.3,0h18.7V37.2H158.6ZM7.2,78.9H26V92.7H7.2Zm25.3,0H51.2V92.7H32.5Zm25.2,0H76.4V92.7H57.7Zm25.2,0h18.8V92.7H82.9Zm25.2,0h18.7V92.7H108.1Zm25.2,0h18.8V92.7H133.3Zm25.3,0h18.7V92.7H158.6ZM7.2,97.5H26v13.7H7.2Zm25.3,0H51.2v13.7H32.5Zm25.2,0H76.4v13.7H57.7Zm25.2,0h18.8v13.7H82.9Zm25.2,0h18.7v13.7H108.1Zm25.2,0h18.8v13.7H133.3Zm25.3,0h18.7v13.7H158.6ZM7.2,116H26v13.7H7.2Zm25.3,0H51.2v13.7H32.5Zm25.2,0H76.4v13.7H57.7Zm25.2,0h18.8v13.7H82.9Zm25.2,0h18.7v13.7H108.1Zm25.2,0h18.8v13.7H133.3Zm25.3,0h18.7v13.7H158.6ZM7.2,134.4H26v13.8H7.2Zm25.3,0H51.2v13.8H32.5Zm25.2,0H76.4v13.8H57.7Zm25.2,0h18.8v13.8H82.9Zm25.2,0h18.7v13.8H108.1Zm25.2,0h18.8v13.8H133.3Zm25.3,0h18.7v13.8H158.6ZM7.2,152.9H26v13.8H7.2Zm25.3,0H51.2v13.8H32.5Zm25.2,0H76.4v13.8H57.7Zm25.2,0h18.8v13.8H82.9Zm25.2,0h18.7v13.8H108.1Zm25.2,0h18.8v13.8H133.3Zm25.3,0h18.7v13.8H158.6ZM7.2,171.4H26v13.8H7.2Zm25.3,0H51.2v13.8H32.5Zm25.2,0H76.4v13.8H57.7Zm25.2,0h18.8v13.8H82.9Zm25.2,0h18.7v13.8H108.1Zm25.2,0h18.8v13.8H133.3Zm25.3,0h18.7v13.8H158.6Z" fill="#ababab"/><text transform="translate(66.7 204.4)" font-size="17.97" fill="#b7b7b7" font-family="Roboto-Regular, Roboto">lorem</text><path d="M244.1,78.9h18.8V92.7H244.1Zm25.2,0h18.8V92.7H269.3Zm-25.2-74h18.8V18.6H244.1Zm25.2,0h18.8V18.6H269.3Zm25.3,0h18.7V18.6H294.6ZM244.1,23.4h18.8V37.2H244.1Zm25.2,0h18.8V37.2H269.3Zm25.3,0h18.7V37.2H294.6ZM244.1,41.9h18.8V55.6H244.1Zm25.2,0h18.8V55.6H269.3Zm25.3,0h18.7V55.6H294.6ZM244.1,60.4h18.8V74.1H244.1Zm25.2,0h18.8V74.1H269.3Zm25.3,0h18.7V74.1H294.6ZM319.8,4.9h18.8V18.6H319.8Zm25.3,0h18.7V18.6H345.1Zm24.2,0H388V18.6H369.3Zm25.2,0h18.7V18.6H394.5ZM319.8,23.4h18.8V37.2H319.8Zm25.3,0h18.7V37.2H345.1Zm24.2,0H388V37.2H369.3Zm25.2,0h18.7V37.2H394.5ZM319.8,41.9h18.8V55.6H319.8Zm25.3,0h18.7V55.6H345.1Zm24.2,0H388V55.6H369.3Zm25.2,0h18.7V55.6H394.5ZM319.8,60.4h18.8V74.1H319.8Zm25.3,0h18.7V74.1H345.1Zm24.2,0H388V74.1H369.3Zm25.2,0h18.7V74.1H394.5Z" fill="#e2e2e2"/><path d="M294.6,78.9h18.7V92.7H294.6ZM244.1,97.5h18.8v13.7H244.1Zm25.2,0h18.8v13.7H269.3Zm25.3,0h18.7v13.7H294.6ZM244.1,116h18.8v13.7H244.1Zm25.2,0h18.8v13.7H269.3Zm25.3,0h18.7v13.7H294.6Zm-50.5,18.4h18.8v13.8H244.1Zm25.2,0h18.8v13.8H269.3Zm25.3,0h18.7v13.8H294.6Zm-50.5,18.5h18.8v13.8H244.1Zm25.2,0h18.8v13.8H269.3Zm25.3,0h18.7v13.8H294.6Zm-50.5,18.5h18.8v13.8H244.1Zm25.2,0h18.8v13.8H269.3Zm25.3,0h18.7v13.8H294.6Zm25.2-92.5h18.8V92.7H319.8Zm25.3,0h18.7V92.7H345.1Zm24.2,0H388V92.7H369.3Zm25.2,0h18.7V92.7H394.5ZM319.8,97.5h18.8v13.7H319.8Zm25.3,0h18.7v13.7H345.1Zm24.2,0H388v13.7H369.3Zm25.2,0h18.7v13.7H394.5ZM319.8,116h18.8v13.7H319.8Zm25.3,0h18.7v13.7H345.1Zm24.2,0H388v13.7H369.3Zm25.2,0h18.7v13.7H394.5Zm-74.7,18.4h18.8v13.8H319.8Zm25.3,0h18.7v13.8H345.1Zm24.2,0H388v13.8H369.3Zm25.2,0h18.7v13.8H394.5Zm-74.7,18.5h18.8v13.8H319.8Zm25.3,0h18.7v13.8H345.1Zm24.2,0H388v13.8H369.3Zm25.2,0h18.7v13.8H394.5Zm-74.7,18.5h18.8v13.8H319.8Zm25.3,0h18.7v13.8H345.1Zm24.2,0H388v13.8H369.3Zm25.2,0h18.7v13.8H394.5Z" fill="#535353"/><text transform="translate(304.5 204.4)" font-size="17.97" fill="#b7b7b7" font-family="Roboto-Regular, Roboto">ipsum</text><path d="M552,4.9h18.8V18.7H552Zm25.3,0H596V18.7H577.3ZM476.4,23.5h18.7V37.2H476.4Zm25.2,0h18.7V37.2H501.6Zm25.2,0h18.7V37.2H526.8Zm25.2,0h18.8V37.2H552Zm25.3,0H596V37.2H577.3ZM476.4,41.9h18.7V55.7H476.4Zm25.2,0h18.7V55.7H501.6Zm25.2,0h18.7V55.7H526.8ZM601,4.9h18.7V18.7H601Zm25.2,0H645V18.7H626.2Zm-149.9,0H495V18.7H476.3Zm25.3,0h18.7V18.7H501.6Zm25.2,0h18.7V18.7H526.8ZM601,23.5h18.7V37.2H601Zm25.2,0H645V37.2H626.2Z" fill="#e2e2e2"/><path d="M552,41.9h18.8V55.7H552Zm25.3,0H596V55.7H577.3ZM476.4,60.4h18.7V74.2H476.4Zm25.2,0h18.7V74.2H501.6Zm25.2,0h18.7V74.2H526.8Zm25.2,0h18.8V74.2H552Zm25.3,0H596V74.2H577.3ZM476.4,78.9h18.7V92.7H476.4Zm25.2,0h18.7V92.7H501.6Zm25.2,0h18.7V92.7H526.8Zm25.2,0h18.8V92.7H552Zm25.3,0H596V92.7H577.3ZM476.4,97.5h18.7v13.7H476.4Zm25.2,0h18.7v13.7H501.6Zm25.2,0h18.7v13.7H526.8Zm25.2,0h18.8v13.7H552Zm25.3,0H596v13.7H577.3ZM476.4,116h18.7v13.7H476.4Zm25.2,0h18.7v13.7H501.6Zm25.2,0h18.7v13.7H526.8Zm25.2,0h18.8v13.7H552Zm25.3,0H596v13.7H577.3ZM476.4,134.4h18.7v13.8H476.4Zm25.2,0h18.7v13.8H501.6Zm25.2,0h18.7v13.8H526.8Zm25.2,0h18.8v13.8H552Zm25.3,0H596v13.8H577.3ZM476.4,152.9h18.7v13.8H476.4Zm25.2,0h18.7v13.8H501.6Zm25.2,0h18.7v13.8H526.8Zm25.2,0h18.8v13.8H552Zm25.3,0H596v13.8H577.3ZM476.4,171.4h18.7v13.8H476.4Zm25.2,0h18.7v13.8H501.6Zm25.2,0h18.7v13.8H526.8Zm25.2,0h18.8v13.8H552Zm25.3,0H596v13.8H577.3ZM601,41.9h18.7V55.7H601Zm25.2,0H645V55.7H626.2ZM601,60.4h18.7V74.2H601Zm25.2,0H645V74.2H626.2ZM601,78.9h18.7V92.7H601Zm25.2,0H645V92.7H626.2ZM601,97.5h18.7v13.7H601Zm25.2,0H645v13.7H626.2ZM601,116h18.7v13.7H601Zm25.2,0H645v13.7H626.2ZM601,134.4h18.7v13.8H601Zm25.2,0H645v13.8H626.2ZM601,152.9h18.7v13.8H601Zm25.2,0H645v13.8H626.2ZM601,171.4h18.7v13.8H601Zm25.2,0H645v13.8H626.2Z" fill="#898989"/><text transform="translate(540.9 204.4)" font-size="17.97" fill="#b7b7b7" font-family="Roboto-Regular, Roboto">dolor</text></svg>
