<?xml version="1.0" encoding="utf-8"?>
<!-- Generator: Adobe Illustrator 24.0.1, SVG Export Plug-In . SVG Version: 6.00 Build 0)  -->
<svg version="1.1" id="Layer_1" xmlns="http://www.w3.org/2000/svg" xmlns:xlink="http://www.w3.org/1999/xlink" x="0px" y="0px"
	 viewBox="0 0 1268 418" style="enable-background:new 0 0 1268 418;" xml:space="preserve">
<style type="text/css">
	.st0{fill:#C6BFCF;}
	.st1{fill:#D1CDC9;}
	.st2{font-family:'RobotoCondensed-Regular';}
	.st3{font-size:18px;}
	.st4{fill:none;stroke:#C4C4C4;stroke-miterlimit:10;}
	.st5{display:none;}
	.st6{display:inline;fill:none;stroke:#C4C4C4;stroke-miterlimit:10;}
	.st7{font-size:19px;}
</style>
<g id="Layer_1_1_">
	<rect x="187.1" y="264.6" class="st0" width="66.7" height="122"/>
	<rect x="275.9" y="155.3" class="st0" width="44.6" height="231.3"/>
	<rect x="342.7" y="179.1" class="st0" width="25.6" height="207.5"/>
	<rect x="390.4" y="141.6" class="st0" width="74.6" height="244.9"/>
	<rect x="73" y="227" class="st0" width="92" height="159.6"/>
	<rect x="487.2" y="155.3" class="st0" width="54.6" height="231.2"/>
	<rect x="563.9" y="179.1" class="st0" width="13.6" height="207.5"/>
	<rect x="599.6" y="90.5" class="st0" width="53.6" height="296"/>
	<rect x="675.4" y="252.6" class="st0" width="34.6" height="133.9"/>
	<rect x="732.1" y="209" class="st0" width="102.6" height="177.5"/>
	<rect x="856.8" y="297.8" class="st0" width="37.6" height="88.7"/>
	<rect x="983.3" y="194.5" class="st0" width="31.6" height="192.1"/>
	<rect x="1037.1" y="200.7" class="st0" width="20.6" height="185.9"/>
	<rect x="1079.8" y="179.1" class="st0" width="10.6" height="207.5"/>
	<rect x="1112.5" y="78.2" class="st0" width="87.7" height="308.3"/>
	<rect x="916.6" y="348.6" class="st0" width="44.6" height="38"/>
	<rect x="1222.4" y="155.3" class="st0" width="33.6" height="231.2"/>
	<g>
		<g>
			<text transform="matrix(1 0 0 1 91.4628 411.5862)" class="st1 st2 st3">a</text>
		</g>
	</g>
	<g>
		<g>
			<text transform="matrix(1 0 0 1 206.3554 411.5865)" class="st1 st2 st3">b</text>
		</g>
	</g>
	<g>
		<g>
			<text transform="matrix(1 0 0 1 296.2025 411.5865)" class="st1 st2 st3">c</text>
		</g>
	</g>
	<g>
		<g>
			<text transform="matrix(1 0 0 1 351.1552 411.5865)" class="st1 st2 st3">d</text>
		</g>
	</g>
	<g>
		<g>
			<text transform="matrix(1 0 0 1 423.9372 411.5865)" class="st1 st2 st3">e</text>
		</g>
	</g>
	<g>
		<g>
			<text transform="matrix(1 0 0 1 509.4867 411.5865)" class="st1 st2 st3">f</text>
		</g>
	</g>
	<g>
		<g>
			<text transform="matrix(1 0 0 1 566.2626 411.5865)" class="st1 st2 st3">g</text>
		</g>
	</g>
	<g>
		<g>
			<text transform="matrix(1 0 0 1 620.7906 411.5865)" class="st1 st2 st3">h</text>
		</g>
	</g>
	<g>
		<g>
			<text transform="matrix(1 0 0 1 697.3533 411.5865)" class="st1 st2 st3">i</text>
		</g>
	</g>
	<g>
		<g>
			<text transform="matrix(1 0 0 1 783.0999 411.5865)" class="st1 st2 st3">j</text>
		</g>
	</g>
	<g>
		<g>
			<text transform="matrix(1 0 0 1 871.4398 411.5865)" class="st1 st2 st3">k</text>
		</g>
	</g>
	<g>
		<g>
			<text transform="matrix(1 0 0 1 937.983 411.5865)" class="st1 st2 st3">l</text>
		</g>
	</g>
	<g>
		<g>
			<text transform="matrix(1 0 0 1 994.4154 411.5865)" class="st1 st2 st3">m</text>
		</g>
	</g>
	<g>
		<g>
			<text transform="matrix(1 0 0 1 1043.4711 411.5865)" class="st1 st2 st3">n</text>
		</g>
	</g>
	<g>
		<g>
			<text transform="matrix(1 0 0 1 1081.1454 411.5865)" class="st1 st2 st3">o</text>
		</g>
	</g>
	<g>
		<g>
			<text transform="matrix(1 0 0 1 1153.9821 411.5865)" class="st1 st2 st3">p</text>
		</g>
	</g>
	<g>
		<g>
			<text transform="matrix(1 0 0 1 1236.1625 411.5859)" class="st1 st2 st3">q</text>
		</g>
	</g>
	<g>
		<polyline class="st4" points="55.1,2.5 55.1,386.5 1255.6,386.5 		"/>
		<g>
			<line class="st4" x1="45.5" y1="10.2" x2="55.5" y2="10.2"/>
			<line class="st4" x1="45.5" y1="311.3" x2="55.5" y2="311.3"/>
			<line class="st4" x1="45.5" y1="236" x2="55.5" y2="236"/>
			<line class="st4" x1="45.5" y1="160.7" x2="55.5" y2="160.7"/>
			<line class="st4" x1="45.5" y1="85.4" x2="55.5" y2="85.4"/>
		</g>
		<g class="st5">
			<line class="st6" x1="332.4" y1="396" x2="332.4" y2="386.5"/>
			<line class="st6" x1="558.5" y1="396" x2="558.5" y2="386.5"/>
			<line class="st6" x1="892.6" y1="396" x2="892.6" y2="386.5"/>
			<line class="st6" x1="780.5" y1="396" x2="780.5" y2="386.5"/>
			<line class="st6" x1="1116.6" y1="396" x2="1116.6" y2="386.5"/>
			<line class="st6" x1="55.1" y1="396" x2="55.1" y2="386.5"/>
			<line class="st6" x1="111.4" y1="396" x2="111.4" y2="386.5"/>
			<line class="st6" x1="220.4" y1="396" x2="220.4" y2="386.5"/>
			<line class="st6" x1="446.2" y1="396" x2="446.2" y2="386.5"/>
			<line class="st6" x1="668.5" y1="396" x2="668.5" y2="386.5"/>
			<line class="st6" x1="1005.5" y1="396" x2="1005.5" y2="386.5"/>
			<line class="st6" x1="1228.7" y1="396" x2="1228.7" y2="386.5"/>
		</g>
	</g>
	<g>
		<text transform="matrix(1 0 0 1 11.5713 19.7955)" class="st1 st2 st7">100</text>
	</g>
	<text transform="matrix(1 0 0 1 20.9512 244.3729)" class="st1 st2 st7">40</text>
	<text transform="matrix(1 0 0 1 20.9512 167.3727)" class="st1 st2 st7">60</text>
	<text transform="matrix(1 0 0 1 20.9512 91.3728)" class="st1 st2 st7">80</text>
	<text transform="matrix(1 0 0 1 20.9512 317.796)" class="st1 st2 st7">20</text>
</g>
<g id="Layer_2_1_">
</g>
<g id="Layer_3">
</g>
</svg>
