<svg enable-background="new 0 0 256 256" height="256" viewBox="0 0 256 256" width="256" xmlns="http://www.w3.org/2000/svg"><path d="m93.8 2.5h-68.5c-12.6 0-22.8 10.2-22.8 22.8v68.5c0 12.6 10.3 22.8 22.8 22.8h68.5c12.6 0 22.8-10.3 22.8-22.8v-68.5c0-12.6-10.3-22.8-22.8-22.8zm-63.3 93.9c-4.7 0-8.6-3.8-8.6-8.6 0-4.7 3.8-8.6 8.6-8.6s8.6 3.8 8.6 8.6c0 4.7-3.8 8.6-8.6 8.6zm57.3-56.8c-4.7 0-8.6-3.8-8.6-8.6s3.8-8.6 8.6-8.6 8.6 3.8 8.6 8.6-3.8 8.6-8.6 8.6zm142.9-37.1h-68.5c-12.6 0-22.8 10.3-22.8 22.8v68.5c0 12.6 10.3 22.8 22.8 22.8h68.5c12.6 0 22.8-10.3 22.8-22.8v-68.5c0-12.6-10.2-22.8-22.8-22.8zm-62.6 93.9c-4.7 0-8.6-3.8-8.6-8.6 0-4.7 3.8-8.6 8.6-8.6 4.7 0 8.6 3.8 8.6 8.6-.1 4.7-3.9 8.6-8.6 8.6zm28.6-28.3c-4.7 0-8.6-3.8-8.6-8.6s3.8-8.6 8.6-8.6c4.7 0 8.6 3.8 8.6 8.6s-3.9 8.6-8.6 8.6zm28.3-28.5c-4.7 0-8.6-3.8-8.6-8.6s3.8-8.6 8.6-8.6c4.7 0 8.6 3.8 8.6 8.6s-3.9 8.6-8.6 8.6zm-131.2 99.8h-68.5c-12.6 0-22.8 10.3-22.8 22.8v68.5c0 12.6 10.3 22.8 22.8 22.8h68.5c12.6 0 22.8-10.3 22.8-22.8v-68.5c0-12.5-10.3-22.8-22.8-22.8zm-63.3 20.2c4.7 0 8.6 3.8 8.6 8.6 0 4.7-3.8 8.6-8.6 8.6s-8.6-3.8-8.6-8.6c.1-4.8 3.9-8.6 8.6-8.6zm.4 73.9c-4.7 0-8.6-3.8-8.6-8.6 0-4.7 3.8-8.6 8.6-8.6 4.7 0 8.6 3.8 8.6 8.6s-3.9 8.6-8.6 8.6zm56.9 0c-4.7 0-8.6-3.8-8.6-8.6 0-4.7 3.8-8.6 8.6-8.6 4.7 0 8.6 3.8 8.6 8.6s-3.8 8.6-8.6 8.6zm0-56.8c-4.7 0-8.6-3.8-8.6-8.6 0-4.7 3.8-8.6 8.6-8.6 4.7 0 8.6 3.8 8.6 8.6s-3.8 8.6-8.6 8.6zm142.9-37.3h-68.5c-12.6 0-22.8 10.3-22.8 22.8v68.5c0 12.6 10.3 22.8 22.8 22.8h68.5c12.6 0 22.8-10.3 22.8-22.8v-68.5c0-12.5-10.2-22.8-22.8-22.8zm-62.9 20.2c4.7 0 8.6 3.8 8.6 8.6 0 4.7-3.8 8.6-8.6 8.6-4.7 0-8.6-3.8-8.6-8.6.1-4.8 3.9-8.6 8.6-8.6zm.4 73.9c-4.7 0-8.6-3.8-8.6-8.6 0-4.7 3.8-8.6 8.6-8.6 4.7 0 8.6 3.8 8.6 8.6-.1 4.8-3.9 8.6-8.6 8.6zm28.5-28.5c-4.7 0-8.6-3.8-8.6-8.6 0-4.7 3.8-8.6 8.6-8.6 4.7 0 8.6 3.8 8.6 8.6s-3.9 8.6-8.6 8.6zm28.4 28.5c-4.7 0-8.6-3.8-8.6-8.6 0-4.7 3.8-8.6 8.6-8.6 4.7 0 8.6 3.8 8.6 8.6s-3.8 8.6-8.6 8.6zm0-56.8c-4.7 0-8.6-3.8-8.6-8.6 0-4.7 3.8-8.6 8.6-8.6 4.7 0 8.6 3.8 8.6 8.6s-3.8 8.6-8.6 8.6z"/></svg>