<svg enable-background="new 0 0 1268 418" viewBox="0 0 1268 418" xmlns="http://www.w3.org/2000/svg"><g fill="none"><g stroke="#ccc" stroke-miterlimit="10" stroke-width=".6759"><path d="m364.7 415.4c-114.2 0-206.7-92.5-206.7-206.7s92.5-206.7 206.7-206.7 206.7 92.5 206.7 206.7-92.5 206.7-206.7 206.7z"/><path d="m364.7 399.5c-105.4 0-190.8-85.4-190.8-190.8s85.3-190.7 190.8-190.7 190.7 85.3 190.7 190.7-85.3 190.8-190.7 190.8z"/><path d="m364.7 383.6c-96.7 0-174.9-78.2-174.9-174.9s78.2-174.9 174.9-174.9 174.9 78.2 174.9 174.9-78.3 174.9-174.9 174.9z"/><path d="m364.7 367.7c-87.9 0-159-71.1-159-159s71.1-159 159-159 159 71.1 159 159-71.1 159-159 159z"/><path d="m364.7 351.8c-79 0-143.1-64.1-143.1-143.1s64.1-143.1 143.1-143.1 143.1 64.1 143.1 143.1-64 143.1-143 143.1z"/><path d="m364.7 335.9c-70.3 0-127.2-57-127.2-127.2s57-127.2 127.2-127.2c70.3 0 127.2 57 127.2 127.2s-56.9 127.2-127.1 127.2z"/><path d="m364.7 320c-61.4 0-111.3-49.8-111.3-111.3 0-61.4 49.8-111.3 111.3-111.3 61.4 0 111.2 49.8 111.3 111.2 0 61.5-49.8 111.4-111.3 111.4z"/><path d="m364.7 304.1c-52.7 0-95.4-42.7-95.4-95.4s42.7-95.4 95.4-95.4 95.4 42.7 95.4 95.4c0 52.6-42.6 95.3-95.2 95.4-.1 0-.2 0-.2 0z"/><path d="m364.7 304.1v111.3"/><path d="m426 281.8 71.5 85.3"/><path d="m458.6 225.3 109.6 19.3"/><path d="m447.4 161 96.3-55.6"/><path d="m397.3 119.1 38.1-104.6"/><path d="m332 119-38-104.5"/><path d="m282 161-96.3-55.6"/><path d="m270.7 225.3-109.6 19.3"/><path d="m303.4 281.8-71.5 85.3"/></g><path d="m381.9 18.7-21.5-.7-3.2.9c-.1-.2-7.4-3.8-7.6-4l-10.1 5.8c-.1-.3-9.4-3.8-9.6-4.1l-2.2 4.9-7.2 1.1c-.1-.3-4.7 2.6-3.7 2.8 1 .1-9.3-5.3-10.6-4.9-1.4.5-1.3 9.9-3 10.5 0 0-11.9.5-12 .3s-5.9 3.7-6.1 3.5l-3.7 5.9c.2.3-16.8 5.5-16.8 5.5s-14.8-2.2-14.6-1.9.2 15.1.2 15.1l-6.4 2c-2.4.8-4.3 5.3-5.7 5.3-4 0-8.7-.3-8.5 0s-.1 7.9-.1 7.9c.1 0-16.1 9.7-15.8 10.3l2.6 5.7c.2.4-10.9 13.9-10.7 14.2l1.2-.7c.2.3-12.1 1.8-11.9 2.2l6.4 8.9c.2.3-8.5 12.8-8.3 13.2l.9-.5c.2.3-16.6 5-16.4 5.3l14.5 7.4c.2.3-7.7 9.9-7.5 10.3l.8-.5c.1.3-3.8 10.4-3.7 10.7l.8-.5c.1.2-2.9 9.1-2.8 9.3l.7-.4c.2.3-14.5 3.4-14.3 3.9l13.9 5.1c.1.3-3.2 9.7-3.1 9.9l.7-.4 3.6 5.9 1.8-1.1c.1.3-7.2 11.8-7 12.2l.7-.4c.1.2-.7 8.3-.5 8.4l.6-.3c.1.3-10.8 5.2-10.7 5.4l14.9-.1c.1.3-3.8 10.7-3.7 10.9l.6-.3c.1.2 6.6 4.8 6.6 5 .3.5-11.1 8.4-10.8 8.9l8 2.2c.1.2.1 8.9.2 9l.6-.3c.1.2-4.7 7.6-4.5 7.8l11.6-2.6c.1.2-3.3 9.8-3.1 10.1l.5-.3c.1.2 2 7.3 2.1 7.4l.5-.3 4.1 5.8 2.2-1.4c.1.2-1.4 8.4-1.4 8.6l.5-.3c.1.2.1 8.9.3 9.1l3.9-2.3c.1.1 2.4 6.7 2.4 6.9l.5-.3c.1.2-.9 9.3-.8 9.5l4.5-2.6 3.5 6.8 4.9-2.8 3.2 7 3.7-2.2c.1.2-2.2 9.3-2 9.5l.5-.3c.1.2 6.4 4.7 6.5 4.9l3.4-2c.2.3-5.4 12-5.2 12.3l2.1-1.2c.2.3 13.7.4 13.8.7l1.6-.9c.1.3-5.2 11.6-5 11.8l6.6-3.9 3.7 5.7.6-.3c.1.2.1 7.8.2 8l5.1-2.9 3.3 5.9 3.3-1.9 3.9 6.2.3-.2 2.8 6.1 5.7-3.2c.1.2 8.1 3.4 8.2 3.6l.7-.4 3.6 6.2 3.2-1.9c.1.2 9.5 3.1 9.6 3.4l.7-.4c.1.2 5.3 4.6 5.3 4.7l7.6-4.4c.1.1 1.2 7.9 1.4 8.1l6.8-4c.1.2 6.8 3.8 7 3.9l.9-.5c.1.2 9.2 3.7 9.3 3.9l4.2-2.4c.1.3 11.8 1.9 11.9 2.2l1.1-.6c.1.2 9.9 3.1 10.1 3.3l7.1-4.1c.2.3 14.2.8 14.3 1.1l9.9-5.7c.3.5 17.6-1.8 17.8-1.3.3.5 2.5-1.5 2.5-1.5l5.6-4.9 6.8 2.8 1.5-9.1 5.8 3 8-.9-.5-6.4 11.4 3.7 5.5-6.6c-.1-.1 2.4-4.2 2.2-4.3-.1-.1 11.1-4.7 12.6-14.3.2-1.5 8.6 5 9.8 4.1s-1.7-6.5-.8-7.2 7.2 2.2 8 .6c2.7-5.9 7.2-12.2 7-12.5l-1.4.8c-.3-.4 15-16.7 14.7-17.2l-5.9 3.4c-.3-.4 12.6-15.7 12.4-16.1l-1.1.7c-.2-.4 8.4-12.6 8.2-12.9l-5.3 3.1c-.2-.3 10.1-11.5 9.9-11.8l-1.1-1.6c-.1-.3 4.3-10.4 4.2-10.6l-1.2.7c-.1-.2 4.9-11 4.8-11.2l-.8.5c-.3-.4 9.3-13.7 9.1-14.1l-2 1.1c-.1-.2 2.8-7.8 2.7-8.1l-1.2-1c-.1-.2-2.4-7.3-2.5-7.4l-.7.4c-.1-.2-.3-7.9-.4-8-.1-.2 2.1-9.1 2-9.3l-.7.4c-.1-.3 2.8-9.9 2.6-10.2l-3.9 2.3c-.1-.3 6.2-11.1 5.9-11.4l-7.2 4.1c-.1-.2 1.6-9.4 1.5-9.6l-.6.3c-.2-.3 5.7-11.8 5.5-12l-2.1 1.2c-.1-.2-5.7-5.7-5.8-5.9l-.6.3c-.1-.2 3.1-9.9 3-10.1l-3.1 1.8c-.1-.2 2.4-8.9 2.4-9.1l-9.9 5.7c-.2-.3 7.5-11.7 7.4-12l-7 4.1c-.1-.2-.7-8-.9-8.2l-.5.3c-.1-.2 1.4-9.6 1.2-9.8l-2.8 1.6-4.3-5.8-.5.3-2.7-6.3-.5.3-3.7-6.8-.5.3-5.4-5.2-1.6.9c-.1-.2-.3-7.5-.4-7.6l-.5.3c-.1-.2.8-8.7.7-8.9l-2.4 1.4c-.1-.2-1.2-8.3-1.3-8.5l-4.7 2.7c-.1-.2-6.8-4.3-6.8-4.5l-.5.4c-.1-.2-.9-7.6-.9-7.7l-2.1 1.2c-.1-.1-1.6-7.4-1.7-7.6l-10.5 6.1c-.1-.2-.5-8.7-.7-8.9l-1.8 1c-.1-.1-.6-7.6-.7-7.7l-10.6 6.1c-.1-.3 2.1-9.7 2-9.9l-8.9 5.1c-.1-.3 1.7-10.1 1.6-10.3l-1.6.9c-.1-.2-9.3-2.4-9.5-2.5l-5.2 3c-.1-.2-.4-8.2-.5-8.4l-9.1 5.3c-.1-.2.5-9.5.4-9.6l-3.9 2.2c-.1-.2-9.8-3.4-9.9-3.6l-.7.5c-.2-.3-12.8-1.4-13-1.8l-3 1.7-4.5-5.3-.9.5c-.1-.3-12.3-1-12.4-1.3l-4.5 2.6c-.1-.2-7.5-3.9-7.6-4.1l-1.1.5c-.1-.2-9.2-3.2-9.3-3.4l-8.9 5.1c-.2-.3-15.9 1.1-16.2.7s-1.8 1.1-1.8 1-5.6 1.4-12 3.2c-.8.3-3.7-4.5-4.5-4.3s-1.2 8.6-1.2 8.6-12.9 1.3-13.1.9c-.2-.3-7.2 4.3-7.3 4.2l-4.7-5.8c.3.5-.9 7.5-.6 8.1s-6.1 5.1-14.4 11c-1.6 1.1-7.4 1.2-7.4 1.2s-1.6 5.1-3.8 6.6c-13 9.1-27.8 10.7-27.4 11.4l2.6 6.9c.3.4-11.3 10.2-11.2 10.5s1.6 8.9 1.7 9-9.3 4.2-9 4.7l.8 3.8c.1.3-9.5 9.1-9.3 9.4l3.2 2.1c.2.3-9.1 11.8-8.9 12.2l3.5.3c.2.3-9.3 13.1-9.1 13.5l8.6 7.8c.3.5-16.4-1.6-16.2-1.1l8.9 5.7c.1.2-1.1 3.4-1.1 3.6l1 3.9c.1.2-2.6 5.1-2.5 5.4l.7-.4c.1.2-1.8 9.3-1.6 9.5l.7-.4c.1.2-2.4 9-2.2 9.2l4.1-2.4c.1.3-3 9.7-2.9 10l.7-.4c.2.3-4.7 10.5-4.5 10.8l13.6.9c.2.3-11 5.3-10.7 5.6l.2-.1 3.2 6.5.6-.3c.1.2.9 8.5 1 8.7l.6-.3c.1.2 1.2 8 1.4 8.1l.6-.3c.1.1 1.4 7.1 1.5 7.2l.6-.3c.1.1 2 7.8 2.1 8l.5-.3c.1.3-3.5 9.8-3.4 10l.9-.5c.1.2 7.3 4.1 7.4 4.3l.7-.4 2.8 6.5 4.1-2.4c.1.3-2.6 9.7-2.5 9.9l1.8-1 4.2 6.4.5-.3c.1.2 7 3.4 7.1 3.7l2.2-1.3c.1.1.7 7.2.8 7.4l.5-.3c.1.3-4.4 11.5-4.3 11.8l1.8-1.1c.1.2 9.6 3.1 9.7 3.3l.6-.3c.1.1 6.2 5.1 6.3 5.3l2.8-1.6c.1.2-1.8 9.9-1.6 10.2l4.7-2.7 5.1 5.7 1.5-.9 4.9 4.9.6-.3c.1.1 1.3 7.8 1.4 8l3.6-2c.1.2 9.3 3.4 9.4 3.7l.7-.4c.1.2 7.6 4.5 7.7 4.7l.7-.4c.1.2 2.6 7.2 2.8 7.4l10.3-5.9c.1.1.1 7.4.1 7.6l10.1-5.9c.1.2-2.6 9.5-2.4 9.7l2.6-1.6c.1.3 9.7 2.6 9.8 2.8l.3-.1c.1.2 7.6 3.7 7.7 3.8l8-4.6c.1.3 11 1.8 11.2 2.1l.3-.2c.1.3 13.9.1 14.2.5l5.3-3.7c.1.2 6.6 4.3 6.7 4.5l4.6-2.7c.1.2 2.8-.5 6.6-1.7 1.1-.3 3.4 3 4.7 2.6s1.7-4.7 3-5.1c1.4-.4 4.1 5.5 5.2 5.2s.3-7 1.3-7.2c3.7-1.1 6.3-1.9 6.4-1.7s1.2-.8 1.3-.7l6.6 2.8 3.3-7.6 8.7 1.5 4.7-8.1 10.5.5 1.6-6.5 12.4-6.1c-.1-.1 1.6-2.8 1.5-2.9s3.4-3.2 7.2-6.4c3.8-3.1 8.9-7.2 8.7-7.5-.1-.3 1.1-7 1.1-7s1 1 5.4-2.2 9.1-6.5 9-6.7l-2-3.4c-.3-.5 8.9-9.3 8.7-9.6l-1.4-7.1c-.2-.3 10.1-4.3 6.8-7.8l-2.8-3.8c-.2-.3 7.4-7.2 7.2-7.5l-.9.5c-.1-.2 1-8.5.9-8.7l-3.3-4.4c-.2-.4 11.7-7.6 11.4-8.1l-1.4.7c-.1-.2 3.7-10.3 3.6-10.6s3.3-3 3.1-3.2l-3.9-5.2c-.1-.2-6.6-4.5-6.6-4.6l-.9.5c-.1-.3 6.3-11.4 6.2-11.6l-.7.4c-.1-.2 2.8-9.8 2.7-10.1l-2.6 1.5c-.1-.2-.7-7.7-.8-7.9l-.6.3c-.1-.2-.5-7.8-.7-8l-.6.3-4-5.9-1.1.6c-.1-.2 2.3-9.3 2.2-9.5l-.6.3c-.1-.1-1.8-7.7-1.8-7.9l-.5.3c-.1-.2-1.8-6.7-1.9-6.8l-.5.3-3.9-5.7-5 3c-.1-.3 3.7-9.8 3.5-10l-.5.3-3.2-7.4-.5.3-3.7-7.2-.5.3c-.1-.2-2.2-7.7-2.4-7.9l-5.1 3c-.1-.1-.5-7.1-.7-7.3l-.5.3-3.8-5.5-.5.3-4.5-5.7-.6.3c-.1-.2.9-9.4.8-9.6l-11.4 6.5c-.1-.1-.2-7.8-.3-7.9l-.6.3c-.1-.2-5.5-5.9-5.6-6.2l-3.2 1.9-3.9-6.7-6.4 3.7c-.1-.2-1.7-6.6-1.8-6.8l-2.2 1.3-4.1-6.1-.7.4c-.1-.2-1.9-7.9-2-8.2l-8.2 4.7c-.1-.1-7-4.1-7.1-4.2l-5.3 3.1c-.1-.2-.7-7.7-.8-7.9l-8 4.7c-.1-.2-10.5-2.2-10.5-2.3l-1.2.7-4.3-5.9-.9.5c-.1-.3-12.8-1.4-12.9-1.7l-1.1.6c-.1-.3-12.9.2-13.1-.1l-6.6 3.9c-.1-.2-6.5-4.7-6.6-5l-3.8 2.2c-.1-.3-6.8 5.5-6.8 5.5l-13.5-2.6c-.9 1.2-4.2 8.4-4.3 8.2s-11.2 1.4-11.2 1.3l-6.6-2.7c.3.5.1 5 .5 5.5.3.5-17 12.9-28.5 19.7-5.7 3.4-14.6-.5-14.3-.1l5.1 10.8c.4.7-18.7 10.7-18.3 11.3l4.9 5.3c.3.5-12.4 9.1-12.2 9.4l2.4 4.3c.2.3-8.9 7.3-8.7 7.6l3.1 4.3c.3.4-13.6 9.3-13.3 9.7l4.8 4.5c.1.3-4.1 10.8-4 11l4.2-2.4c.1.3-6.2 11.9-5.9 12.2l3.9-2.2c.1.3-3 10-2.8 10.3l3.9-2.3c.1.3-2.5 9.6-2.4 9.8l.7-.4c.1.2-.7 8.7-.7 8.8l.7-.3c.1.1-.3 7.7-.2 7.9l.6-.3c.1.1-.4 8-.3 8.2l6.8-3.9c.1.3-5.1 11.4-4.9 11.7l.6-.3c.1.1.9 7.4 1 7.5l.6-.3c.1.1 1.3 7.2 1.4 7.4l.6-.3 3.8 6.8 3.1-1.8c.1.2-2.4 9.5-2.2 9.6l.5-.3c.1.2 2.6 7.2 2.7 7.4l.5-.3 3.2 7.4.5-.3 3.4 7 .5-.3 3.4 6.2.5-.3 4.3 5.3 5.5-3.2c.1.2-1.2 9.6-1.1 9.8l5.7-3.2 4.7 6.2.9-.5c.1.3-4.8 10.9-4.7 11.1l1.1-.7c.2.3 12.4 1.2 12.5 1.5l1.6-.9c.1.3-1.2 9.3-1.1 9.5l4.4-2.5c.1.1 5.1 4.7 5.3 4.9l.6-.3c.1.1 6.1 4.1 6.2 4.3l2.3-1.4c.1.2 6.6 3.7 6.8 3.8l4.5-2.6 4.9 6.4.3-.2c.1.2 2.2 7.6 2.3 7.8l10.8-6.2 5.1 6 .8-.5c.1.2 9.8 2.1 9.9 2.3l.9-.5c.1.3 11.4 1.3 11.6 1.6l1.1-.6c.1.3 13.7.7 13.9 1l5.9-3.4c.2.3 15.7-1.4 16-1.1.2.3 3-1.8 3-1.8l8.2 5.6 2.4-3.8 6.5 3.7-1.3-7.2 1.1-2.9.3-8 2.6 1.7 8.1 4.1 3.7-7.4 7.6.6 5.5-3.2c-.1-.1 4-5.8 3.9-5.9s1.7-1.9 4.3-4.3c1.5-1.4 6-1.5 7.8-3.1s.9-4.9 2.8-6.6c5.1-4.7 9.3-6.3 9.1-6.6s.9-4.8.9-4.8 11.8-13.3 11.4-13.9l-1.1-3.9c-.2-.3 3.3-4.9 3.1-5.3l-1 .6c-.1-.3 5.9-11.6 5.7-12l-.9.5c-.1-.3 5.1-11.2 4.9-11.4l-2.2 1.2c-.1-.3 3.9-10.8 3.7-11.1l-.7.4c-.1-.3 2.3-10.1 2.2-10.3l-.7.4c-.1-.1-.2-7.5-.3-7.6l-2.2 1.3c-.1-.3 1.8-9.9 1.7-10.1l-.7.4c-.1-.2 2.6-9.1 2.4-9.3l-.6.3-5.3-5-1.2.7c-.1-.2 5.2-11.4 5.1-11.6l-6.2 3.6c-.3-.5 10-14.6 9.8-15l-12 2.2c-.1-.3 3.8-6.1 3.7-6.3l-.5.3-3.7-6.4-4.7 2.7c-.1-.2 3.1-10.7 3-11l-.5.3c-.1-.1-2.8-6.7-2.9-6.9l-.5.3-3.4-6.9-.5.3-3.4-6.1-.5.3-4.3-6.6-.5.3c-.1-.1-6.6-4.1-6.8-4.2h-.1c-.1-.2-2.4-6.7-2.4-6.8l-.6.3c-.1-.1-5.1-5.4-5.3-5.6l-.6.3c-.1-.1-4.9-4.7-5-4.8l-.6.3c-.1-.1-5.7-4.7-5.9-4.9l-.6.3c-.1-.1-7-4.9-7.2-5.1l-.7.4c-.1-.3-9.3-3.3-9.5-3.5l-2.4 1.4c-.1-.2-9.6-3.4-9.7-3.6l-.3.2c-.1-.2-7.2-4.6-7.3-4.8l-3.7 2.2c-.1-.2 1.6-9.2 1.5-9.4l-5.5 3.2c-.1-.3-10.7-1.6-10.9-1.8l-.3.2c-.1-.2-7.6-3.7-7.7-3.9l-4.3 2.5c-.3-.4-19.5 2.7-19.7 2.3l-1.6.9c-.2-.3-14.5-1.6-14.5-1.6s-1.8 6.2-3.4 6.7c-6.3 1.9-17.4 0-17.6-.3-.1-.3-10.9 13.7-11.2 13.2l-3.3-.8c0 .1-2 3.7-2 3.7s-3.5 1.8-8 3.7c0 0-2.3 7.1-4.3 7.8 0 0-12.4-1-12.3-.7l2.7 10.3c.2.4-10.8 7.5-10.5 7.9l1.4 5.7c.2.3-7.5 12-7.4 12.3l1-.6c.1.3-6.8 11.4-6.7 11.7l3.9-2.2c.1.3-5.7 11.3-5.5 11.6l.8-.5c.2.3-8.2 13.4-8 13.7l9.9-.1c.1.3-6.2 6.1-6 6.4l.7-.4c.1.2-1.2 9-1.1 9.2l.7-.4c.1.2-.6 7.8-.5 8l.6-.3c.2.3-6.2 11.9-5.9 12.2l8-4.7c.1.2-.9 8.4-.8 8.6l.6-.3c.1.1 5.8 4.5 5.9 4.6l1.8-1c.1.2-4.8 10.5-4.7 10.8l.6-.3c.1.2 1.8 7 1.8 7.1l.5-.3c.1.2-4.2 9.9-4.1 10.1l10.5-6.1c.1.2-1.1 9.2-1 9.3l.5-.3 3.3 7 .5-.3c.1.3-1.6 9.9-1.5 10.1l4.2-2.4c.1.2 6.2 5.5 6.3 5.6l.5-.3c.1.2.4 8.8.5 9.1l9.8-5.7c.1.2-.1 8.1-.1 8.2l.6-.3c.1.2 5.4 5.3 5.5 5.5l.6-.3c.1.1 7.5 3.7 7.6 3.9l2.3-1.4c.1.2 2.1 6.4 2.2 6.6l.7-.4 4.9 6.5 4.1-2.4c.1.1 6.8 4.1 7 4.3l.7-.4 4.9 6.3 4.7-2.7c.1.3 9.7 2.9 9.9 3.1l5.1-3c.1.3 10.7 2.2 10.9 2.5l4.1-2.4c.1.2 7.1 4 7.2 4.1l1.3-.7c.1.3 5.3-.7 10.5-1.8s10.4-2 10.5-1.8c.1.3 4.8-4.9 4.8-4.9l10.7 2.6 3.5-7.9 16.5-6.5 7.3-3.3c-.1-.1 4.3-5.3 4.3-5.4s17.7-18.1 17.4-18.7l-4.1 2.4c-.3-.5 10.1-14.1 9.9-14.5l-1 .6c-.1-.3 6.2-11.9 6-12.2l-.9.5c-.1-.3 5.7-10.6 5.5-10.9l-3 1.7c-.1-.1-.5-7.9-.7-8.1l-2.7 1.6c-.3-.5 12.2-9.1 12-9.5l-5.3-3.2c-.1-.2 1.5-9.5 1.4-9.7l-5.1-4.2c-.1-.3 4.9-4.6 4.7-4.9l-.6.3c-.2-.3 5.7-11.8 5.5-12.1l-.6.3c-.1-.2-6.8-3.6-6.8-3.8l-.6.3c-.1-.3 3.7-9.6 3.6-9.9l-10.5 6.1c-.2-.4 8.7-13.1 8.4-13.4l-3.3 1.9c-.1-.1-1-7.3-1.1-7.5l-10 5.7c-.1-.3 2.7-10.5 2.6-10.7l-.5.3c-.1-.2 2.5-9.8 2.3-10l-12 6.9c-.1-.2 2.9-9.5 2.8-9.7h-.1c-.1-.1-7-4.5-7-4.7l-3.8 2.2c-.1-.2.1-8.4.1-8.6l-.6.3c-.1-.1-5.4-5.5-5.5-5.7l-.6.3-5.1-5.9-6.6 3.8c-.1-.2-2.1-7.8-2.2-8l-.7.4c-.1-.2-7.8-4.5-7.9-4.7l-.7.4c-.1-.3-13-1.2-13.1-1.4l-1.7.9c-.1-.2-1.1-7.4-1.2-7.6l-9.5 5.5-4.1-6-.9.5c-.1-.3-13.3-.9-13.5-1.1l-1.1.6" stroke="#a39cb9" stroke-linecap="round" stroke-linejoin="round" stroke-width="1.3519"/><path d="m903.3 415.4c-114.2 0-206.7-92.5-206.7-206.7s92.5-206.7 206.7-206.7 206.7 92.5 206.7 206.7-92.5 206.7-206.7 206.7z" stroke="#ccc" stroke-miterlimit="10" stroke-width=".6759"/><path d="m903.3 399.5c-105.4 0-190.8-85.4-190.8-190.8s85.4-190.7 190.8-190.7 190.7 85.3 190.7 190.7-85.2 190.8-190.7 190.8z" stroke="#ccc" stroke-miterlimit="10" stroke-width=".6759"/><path d="m903.3 383.6c-96.7 0-174.9-78.2-174.9-174.9s78.3-174.9 174.9-174.9 174.9 78.2 174.9 174.9-78.2 174.9-174.9 174.9z" stroke="#ccc" stroke-miterlimit="10" stroke-width=".6759"/><path d="m903.3 367.7c-87.9 0-159-71.1-159-159s71.1-159 159-159 159 71.1 159 159-71.1 159-159 159z" stroke="#ccc" stroke-miterlimit="10" stroke-width=".6759"/><path d="m903.3 351.8c-79 0-143.1-64.1-143.1-143.1s64.1-143.1 143.1-143.1 143.1 64.1 143.1 143.1-64 143.1-143 143.1c0 0 0 0-.1 0z" stroke="#ccc" stroke-miterlimit="10" stroke-width=".6759"/><path d="m903.3 335.9c-70.3 0-127.2-57-127.2-127.2s57-127.2 127.2-127.2c70.3 0 127.2 57 127.2 127.2s-56.9 127.2-127.1 127.2c0 0 0 0-.1 0z" stroke="#ccc" stroke-miterlimit="10" stroke-width=".6759"/><path d="m903.3 320c-61.4 0-111.3-49.8-111.3-111.3s49.9-111.2 111.3-111.2 111.2 49.8 111.3 111.2c0 61.4-49.8 111.3-111.3 111.3z" stroke="#ccc" stroke-miterlimit="10" stroke-width=".6759"/><path d="m903.3 304.1c-52.7 0-95.4-42.7-95.4-95.4s42.7-95.4 95.4-95.4 95.4 42.7 95.4 95.4c0 52.6-42.6 95.3-95.2 95.4-.1 0-.1 0-.2 0z" stroke="#ccc" stroke-miterlimit="10" stroke-width=".6759"/><path d="m903.3 304.1v111.3" stroke="#ccc" stroke-miterlimit="10" stroke-width=".6759"/><path d="m964.6 281.8 71.5 85.3" stroke="#ccc" stroke-miterlimit="10" stroke-width=".6759"/><path d="m997.3 225.3 109.6 19.3" stroke="#ccc" stroke-miterlimit="10" stroke-width=".6759"/><path d="m986 161 96.3-55.6" stroke="#ccc" stroke-miterlimit="10" stroke-width=".6759"/><path d="m936 119.1 38-104.6" stroke="#ccc" stroke-miterlimit="10" stroke-width=".6759"/><path d="m870.7 119-38.1-104.5" stroke="#ccc" stroke-miterlimit="10" stroke-width=".6759"/><path d="m820.6 161-96.3-55.6" stroke="#ccc" stroke-miterlimit="10" stroke-width=".6759"/><path d="m809.4 225.3-109.6 19.3" stroke="#ccc" stroke-miterlimit="10" stroke-width=".6759"/><path d="m842 281.8-71.5 85.3" stroke="#ccc" stroke-miterlimit="10" stroke-width=".6759"/><path d="m920.5 18.7-21.4-.7-3.2.9c-.1-.2-7.4-3.8-7.6-4l-10.1 5.8c-.1-.3-9.4-3.8-9.6-4.1l-2.2 4.9-7.2 1.1c-.1-.3-4.7 2.6-3.7 2.8 1 .1-9.3-5.3-10.6-4.9-1.4.5-1.3 9.9-3 10.5 0 0-11.9.5-12 .3s-5.9 3.7-6.1 3.5l-3.7 5.9c.2.3-16.8 5.5-16.8 5.5s-14.9-2.2-14.7-1.9.2 15.1.2 15.1l-6.4 2c-2.4.8-4.3 5.3-5.7 5.3-4 0-8.7-.3-8.5 0s-.1 7.9-.1 7.9c.1 0-16.1 9.7-15.8 10.3l2.6 5.7c.2.4-10.9 13.9-10.7 14.2l1.2-.7c.2.3-12.1 1.8-11.9 2.2l6.4 8.9c.2.3-8.5 12.8-8.3 13.2l.9-.5c.2.3-16.6 5-16.4 5.3l14.5 7.4c.2.3-7.7 9.9-7.5 10.3l.8-.5c.1.3-3.8 10.4-3.7 10.7l.8-.5c.1.2-2.9 9.1-2.8 9.3l.7-.4c.2.3-14.5 3.4-14.3 3.9l13.9 5.1c.1.3-3.2 9.7-3.1 9.9l.7-.4 3.6 5.9 1.8-1.1c.1.3-7.2 11.8-7 12.2l.7-.4c.1.2-.7 8.3-.5 8.4l.6-.3c.1.3-10.8 5.2-10.7 5.4l14.9-.1c.1.3-3.8 10.7-3.7 10.9l.6-.3c.1.2 6.6 4.8 6.6 5 .3.5-11.1 8.4-10.8 8.9l8 2.2c.1.2.1 8.9.2 9l.6-.3c.1.2-4.7 7.6-4.5 7.8l11.6-2.6c.1.2-3.3 9.8-3.1 10.1l.5-.3c.1.2 2 7.3 2.1 7.4l.5-.3 4.1 5.8 2.2-1.4c.1.2-1.4 8.4-1.4 8.6l.5-.3c.1.2.1 8.9.3 9.1l3.9-2.3c.1.1 2.4 6.7 2.4 6.9l.5-.3c.1.2-.9 9.3-.8 9.5l4.5-2.6 3.5 6.8 4.9-2.8 3.2 7 3.7-2.2c.1.2-2.2 9.3-2 9.5l.5-.3c.1.2 6.4 4.7 6.5 4.9l3.4-2c.2.3-5.4 12-5.2 12.3l2.1-1.2c.2.3 13.7.4 13.8.7l1.6-.9c.1.3-5.2 11.6-5 11.8l6.6-3.9 3.7 5.7.6-.3c.1.2.1 7.8.2 8l5.1-2.9 3.3 5.9 3.3-1.9 3.9 6.2.3-.2 2.8 6.1 5.7-3.2c.1.2 8.1 3.4 8.2 3.6l.7-.4 3.6 6.2 3.2-1.9c.1.2 9.5 3.1 9.6 3.4l.7-.4c.1.2 5.3 4.6 5.3 4.7l7.6-4.4c.1.1 1.2 7.9 1.4 8.1l6.8-4c.1.2 6.8 3.8 7 3.9l.9-.5c.1.2 9.2 3.7 9.3 3.9l4.2-2.4c.1.3 11.8 1.9 11.9 2.2l1.1-.6c.1.2 9.9 3.1 10.1 3.3l7.1-4.1c.2.3 14.2.8 14.3 1.1l9.9-5.7c.3.5 17.6-1.8 17.8-1.3.3.5 2.5-1.5 2.5-1.5l5.6-4.9 6.8 2.8 1.5-9.1 5.8 3 8-.9-.5-6.4 11.4 3.7 5.5-6.6c-.1-.1 2.4-4.2 2.2-4.3s11.1-4.7 12.6-14.3c.2-1.5 8.6 5 9.8 4.1s-1.7-6.5-.8-7.2 7.2 2.2 8 .6c2.7-5.9 7.2-12.2 7-12.5l-1.4.8c-.3-.4 15-16.7 14.7-17.2l-5.9 3.4c-.3-.4 12.6-15.7 12.4-16.1l-1.1.7c-.2-.4 8.4-12.6 8.2-12.9l-5.3 3.1c-.2-.3 10.1-11.5 9.9-11.8l-1.1-1.6c-.1-.3 4.3-10.4 4.2-10.6l-1.2.7c-.1-.2 4.9-11 4.8-11.2l-.8.5c-.3-.4 9.3-13.7 9.1-14.1l-2 1.1c-.1-.2 2.8-7.8 2.7-8.1l-1.2-1c-.1-.2-2.4-7.3-2.5-7.4l-.7.4c-.1-.2-.3-7.9-.4-8-.1-.2 2.1-9.1 2-9.3l-.7.4c-.1-.3 2.8-9.9 2.6-10.2l-3.9 2.3c-.1-.3 6.2-11.1 5.9-11.4l-7.2 4.1c-.1-.2 1.6-9.4 1.5-9.6l-.6.3c-.2-.3 5.7-11.8 5.5-12l-2.1 1.2c-.1-.2-5.7-5.7-5.8-5.9l-.6.3c-.1-.2 3.1-9.9 3-10.1l-3.1 1.8c-.1-.2 2.4-8.9 2.4-9.1l-9.9 5.7c-.2-.3 7.5-11.7 7.4-12l-7 4.1c-.1-.2-.7-8-.9-8.2l-.5.3c-.1-.2 1.4-9.6 1.2-9.8l-2.8 1.6-4.3-5.8-.5.3-2.7-6.3-.5.3-3.7-6.8-.5.3-5.4-5.2-1.6.9c-.1-.2-.3-7.5-.4-7.6l-.5.3c-.1-.2.8-8.7.7-8.9l-2.4 1.4c-.1-.2-1.2-8.3-1.3-8.5l-4.7 2.7c-.1-.2-6.8-4.3-6.8-4.5l-.6.3c-.1-.2-.9-7.6-.9-7.7l-2.1 1.2c-.1-.1-1.6-7.4-1.7-7.6l-10.5 6.1c-.1-.2-.5-8.7-.7-8.9l-1.8 1c-.1-.1-.6-7.6-.7-7.7l-10.6 6.2c-.1-.3 2.1-9.7 2-9.9l-8.9 5.1c-.1-.3 1.7-10.1 1.6-10.3l-1.6.9c-.1-.2-9.3-2.4-9.5-2.5l-5.2 3c-.1-.2-.4-8.2-.5-8.4l-9.1 5.3c-.1-.2.5-9.5.4-9.6l-3.9 2.2c-.1-.2-9.8-3.4-9.9-3.6l-.7.5c-.2-.3-12.8-1.4-13-1.8l-3 1.7-4.5-5.3-.9.5c-.1-.3-12.3-1-12.4-1.3l-4.5 2.6c-.1-.2-7.5-3.9-7.6-4.1l-1.1.5c-.1-.2-9.2-3.2-9.3-3.4l-8.9 5.1c-.2-.3-15.9 1.1-16.2.7s-1.8 1.1-1.8 1-5.6 1.4-12 3.2c-.8.3-3.7-4.5-4.5-4.3s-1.2 8.6-1.2 8.6-12.9 1.3-13.1.9-7.2 4.3-7.3 4.2l-4.7-5.8c.3.5-.9 7.5-.6 8.1s-6.1 5.1-14.4 11c-1.6 1.1-7.4 1.2-7.4 1.2s-1.6 5.1-3.8 6.6c-13 9.1-27.8 10.7-27.4 11.4l2.6 6.9c.3.4-11.3 10.2-11.2 10.5s1.6 8.9 1.7 9-9.3 4.2-9 4.7l.8 3.8c.1.3-9.5 9.1-9.3 9.4l3.2 2.1c.2.3-9.1 11.8-8.9 12.2l3.5.3c.2.3-9.3 13.1-9.1 13.5l8.6 7.8c.3.5-16.4-1.6-16.2-1.1l8.9 5.7c.1.2-1.1 3.4-1.1 3.6l1 3.9c.1.2-2.6 5.1-2.5 5.4l.7-.4c.1.2-1.8 9.3-1.6 9.5l.7-.4c.1.2-2.4 9-2.2 9.2l4.1-2.4c.1.3-3 9.7-2.9 10l.7-.4c.2.3-4.7 10.5-4.5 10.8l13.6.9c.2.3-11 5.3-10.7 5.6l.2-.1 3.2 6.5.6-.3c.1.2.9 8.5 1 8.7l.6-.3c.1.2 1.2 8 1.4 8.1l.6-.3c.1.1 1.4 7.1 1.5 7.2l.6-.3c.1.1 2 7.8 2.1 8l.5-.3c.1.3-3.5 9.8-3.4 10l.9-.5c.1.2 7.3 4.1 7.4 4.3l.7-.4 2.8 6.5 4.1-2.4c.1.3-2.6 9.7-2.5 9.9l1.8-1 4.2 6.4.5-.3c.1.2 7 3.4 7.1 3.7l2.2-1.3c.1.1.7 7.2.8 7.4l.5-.3c.1.3-4.4 11.5-4.3 11.8l1.8-1.1c.1.2 9.6 3.1 9.7 3.3l.6-.3c.1.1 6.2 5.1 6.3 5.3l2.8-1.6c.1.2-1.8 9.9-1.6 10.2l4.7-2.7 5.1 5.7 1.5-.9 4.9 4.9.6-.3c.1.1 1.3 7.8 1.4 8l3.6-2c.1.2 9.3 3.4 9.4 3.7l.7-.4c.1.2 7.6 4.5 7.7 4.7l.7-.4c.1.2 2.6 7.2 2.8 7.4l10.3-5.9c.1.1.1 7.4.1 7.6l10.1-5.9c.1.2-2.6 9.5-2.4 9.7l2.6-1.6c.1.3 9.7 2.6 9.8 2.8l.3-.1c.1.2 7.6 3.7 7.7 3.8l8-4.6c.1.3 11 1.8 11.2 2.1l.3-.2c.1.3 13.9.1 14.2.5l5.3-3.7c.1.2 6.6 4.3 6.7 4.5l4.6-2.7c.1.2 2.8-.5 6.6-1.7 1.1-.3 3.4 3 4.7 2.6s1.7-4.7 3-5.1c1.4-.4 4.1 5.5 5.2 5.2s.3-7 1.3-7.2c3.7-1.1 6.3-1.9 6.4-1.7s1.2-.8 1.3-.7l6.6 2.8 3.3-7.6 8.7 1.5 4.7-8.1 10.5.5 1.6-6.5 12.4-6.1c-.1-.1 1.6-2.8 1.5-2.9s3.4-3.2 7.2-6.4c3.8-3.1 8.9-7.2 8.7-7.5-.1-.3 1.1-7 1.1-7s1 1 5.4-2.2 9.1-6.5 9-6.7l-2-3.4c-.3-.5 8.9-9.3 8.7-9.6l-1.4-7.1c-.2-.3 10.1-4.3 6.8-7.8l-2.8-3.8c-.2-.3 7.4-7.2 7.2-7.5l-.9.5c-.1-.2 1-8.5.9-8.7l-3.3-4.4c-.2-.4 11.7-7.6 11.4-8.1l-1.4.7c-.1-.2 3.7-10.3 3.6-10.6s3.3-3 3.1-3.2l-3.9-5.2c-.1-.2-6.6-4.5-6.6-4.6l-.9.5c-.1-.3 6.3-11.4 6.2-11.6l-.7.4c-.1-.2 2.8-9.8 2.7-10.1l-2.6 1.5c-.1-.2-.7-7.7-.8-7.9l-.6.3c-.1-.2-.5-7.8-.7-8l-.6.3-4-5.9-1.1.6c-.1-.2 2.3-9.3 2.2-9.5l-.6.3c-.1-.1-1.8-7.7-1.8-7.9l-.5.3c-.1-.2-1.8-6.7-1.9-6.8l-.5.3-3.9-5.7-5 3c-.1-.3 3.7-9.8 3.5-10l-.5.3-3.2-7.4-.5.3-3.7-7.2-.5.3c-.1-.2-2.2-7.7-2.4-7.9l-5.1 3c-.1-.1-.5-7.1-.7-7.3l-.5.3-3.8-5.5-.5.3-4.5-5.7-.6.3c-.1-.2.9-9.4.8-9.6l-11.4 6.5c-.1-.1-.2-7.8-.3-7.9l-.6.3c-.1-.2-5.5-5.9-5.6-6.2l-3.2 1.9-3.9-6.7-6.4 3.7c-.1-.2-1.7-6.6-1.8-6.8l-2.2 1.3-4.1-6.1-.7.4c-.1-.2-1.9-7.9-2-8.2l-8.2 4.7c-.1-.1-7-4.1-7.1-4.2l-5.3 3.1c-.1-.2-.7-7.7-.8-7.9l-8 4.7c-.1-.2-10.5-2.2-10.5-2.3l-1.2.7-4.3-5.9-.9.5c-.1-.3-12.8-1.4-12.9-1.7l-1.1.6c-.1-.3-12.9.2-13.1-.1l-6.6 3.9c-.1-.2-6.5-4.7-6.6-5l-3.8 2.2c-.1-.3-6.8 5.5-6.8 5.5l-13.5-2.6c-.9 1.2-4.2 8.4-4.3 8.2s-11.2 1.4-11.2 1.3l-6.6-2.7c.3.5.1 5 .5 5.5.3.5-17 12.9-28.5 19.7-5.7 3.4-14.6-.5-14.3-.1l5.1 10.8c.4.7-18.7 10.7-18.3 11.3l4.9 5.3c.3.5-12.4 9.1-12.2 9.4l2.4 4.3c.2.3-8.9 7.3-8.7 7.6l3.1 4.3c.3.4-13.6 9.3-13.3 9.7l4.8 4.5c.1.3-4.1 10.8-4 11l4.2-2.4c.1.3-6.2 11.9-5.9 12.2l3.9-2.2c.1.3-3 10-2.8 10.3l3.9-2.3c.1.3-2.5 9.6-2.4 9.8l.7-.4c.1.2-.7 8.7-.7 8.8l.7-.3c.1.1-.3 7.7-.2 7.9l.6-.3c.1.1-.4 8-.3 8.2l6.8-3.9c.1.3-5.1 11.4-4.9 11.7l.6-.3c.1.1.9 7.4 1 7.5l.6-.3c.1.1 1.3 7.2 1.4 7.4l.6-.3 3.8 6.8 3.1-1.8c.1.2-2.4 9.5-2.2 9.6l.5-.3c.1.2 2.6 7.2 2.7 7.4l.5-.3 3.2 7.4.5-.3 3.4 7 .5-.3 3.4 6.2.5-.3 4.3 5.3 5.5-3.2c.1.2-1.2 9.6-1.1 9.8l5.7-3.2 4.7 6.2.9-.5c.1.3-4.8 10.9-4.7 11.1l1.1-.7c.2.3 12.4 1.2 12.5 1.5l1.6-.9c.1.3-1.2 9.3-1.1 9.5l4.4-2.5c.1.1 5.1 4.7 5.3 4.9l.6-.3c.1.1 6.1 4.1 6.2 4.3l2.3-1.4c.1.2 6.6 3.7 6.8 3.8l4.5-2.6 4.9 6.4.3-.2c.1.2 2.2 7.6 2.3 7.8l10.8-6.2 5.1 6 .8-.5c.1.2 9.8 2.1 9.9 2.3l.9-.5c.1.3 11.4 1.3 11.6 1.6l1.1-.6c.1.3 13.7.7 13.9 1l5.9-3.4c.2.3 15.7-1.4 16-1.1.2.3 3-1.8 3-1.8l8.2 5.6 2.4-3.8 6.5 3.7-1.7-7.9 1.1-2.9.3-8 2.6 1.7 8.1 4.1 3.7-7.4 7.6.6 5.5-3.2c-.1-.1 4-5.8 3.9-5.9s1.7-1.9 4.3-4.3c1.5-1.4 6-1.5 7.8-3.1s.9-4.9 2.8-6.6c5.1-4.7 9.3-6.3 9.1-6.6s.9-4.8.9-4.8 11.8-13.3 11.4-13.9l-1.1-3.9c-.2-.3 3.3-4.9 3.1-5.3l-1 .6c-.1-.3 5.9-11.6 5.7-12l-.9.5c-.1-.3 5.1-11.2 4.9-11.4l-2.2 1.2c-.1-.3 3.9-10.8 3.7-11.1l-.7.4c-.1-.3 2.3-10.1 2.2-10.3l-.7.4c-.1-.1-.2-7.5-.3-7.6l-2.2 1.3c-.1-.3 1.8-9.9 1.7-10.1l-.7.4c-.1-.2 2.6-9.1 2.4-9.3l-.6.3-5.3-5-1.2.7c-.1-.2 5.2-11.4 5.1-11.6l-6.2 3.6c-.3-.5 10-14.6 9.8-15l-12 2.2c-.1-.3 3.8-6.1 3.7-6.3l-.5.3-3.7-6.4-4.7 2.7c-.1-.2 3.1-10.7 3-11l-.5.3c-.1-.1-2.8-6.7-2.9-6.9l-.5.3-3.4-6.9-.5.3-3.4-6.1-.5.3-4.3-6.6-.5.3c-.1-.1-6.6-4.1-6.8-4.2h-.1c-.1-.2-2.4-6.7-2.4-6.8l-.6.3c-.1-.1-5.1-5.4-5.3-5.6l-.6.3c-.1-.1-4.9-4.7-5-4.8l-.6.3c-.1-.1-5.7-4.7-5.9-4.9l-.6.3c-.1-.1-7-4.9-7.2-5.1l-.7.4c-.1-.3-9.3-3.3-9.5-3.5l-2.4 1.4c-.1-.2-9.6-3.4-9.7-3.6l-.3.2c-.1-.2-7.2-4.6-7.3-4.8l-3.7 2.2c-.1-.2 1.6-9.2 1.5-9.4l-5.5 3.2c-.1-.3-10.7-1.6-10.9-1.8l-.3.2c-.1-.2-7.6-3.7-7.7-3.9l-4.3 2.5c-.3-.4-19.5 2.7-19.7 2.3l-1.6.9c-.2-.3-14.5-1.6-14.5-1.6s-1.8 6.2-3.4 6.7c-6.3 1.9-17.4 0-17.6-.3-.1-.3-10.9 13.7-11.2 13.2l-3.3-.8c0 .1-2 3.7-2 3.7s-3.5 1.8-8 3.7c0 0-2.3 7.1-4.3 7.8 0 0-12.4-1-12.3-.7l2.7 10.3c.2.4-10.8 7.5-10.5 7.9l1.4 5.7c.2.3-7.5 12-7.4 12.3l1-.6c.1.3-6.8 11.4-6.7 11.7l3.9-2.2c.1.3-5.7 11.3-5.5 11.6l.8-.5c.2.3-8.2 13.4-8 13.7l9.9-.1c.1.3-6.2 6.1-6 6.4l.7-.4c.1.2-1.2 9-1.1 9.2l.7-.4c.1.2-.6 7.8-.5 8l.6-.3c.2.3-6.2 11.9-5.9 12.2l8-4.7c.1.2-.9 8.4-.8 8.6l.6-.3c.1.1 5.8 4.5 5.9 4.6l1.8-1c.1.2-4.8 10.5-4.7 10.8l.6-.3c.1.2 1.8 7 1.8 7.1l.5-.3c.1.2-4.2 9.9-4.1 10.1l10.5-6.1c.1.2-1.1 9.2-1 9.3l.5-.3 3.3 7 .5-.3c.1.3-1.6 9.9-1.5 10.1l4.2-2.4c.1.2 6.2 5.5 6.3 5.6l.5-.3c.1.2.4 8.8.5 9.1l9.8-5.7c.1.2-.1 8.1-.1 8.2l.6-.3c.1.2 5.4 5.3 5.5 5.5l.6-.3c.1.1 7.5 3.7 7.6 3.9l2.3-1.4c.1.2 2.1 6.4 2.2 6.6l.7-.4 4.9 6.5 4.1-2.4c.1.1 6.8 4.1 7 4.3l.7-.4 4.9 6.3 4.7-2.7c.1.3 9.7 2.9 9.9 3.1l5.1-3c.1.3 10.7 2.2 10.9 2.5l4.1-2.4c.1.2 7.1 4 7.2 4.1l1.3-.7c.1.3 5.3-.7 10.5-1.8 5.2-1 10.4-2 10.5-1.8.1.3 4.8-4.9 4.8-4.9l10.7 2.6 3.5-7.9 16.5-6.5 7.3-3.3c-.1-.1 4.3-5.3 4.3-5.4s17.7-18.1 17.4-18.7l-4.1 2.4c-.3-.5 10.1-14.1 9.9-14.5l-1 .6c-.1-.3 6.2-11.9 6-12.2l-.9.5c-.1-.3 5.7-10.6 5.5-10.9l-3 1.7c-.1-.1-.5-7.9-.7-8.1l-2.7 1.6c-.3-.5 12.2-9.1 12-9.5l-5.3-3.2c-.1-.2 1.5-9.5 1.4-9.7l-5.1-4.2c-.1-.3 4.9-4.6 4.7-4.9l-.6.3c-.2-.3 5.7-11.8 5.5-12.1l-.6.3c-.1-.2-6.8-3.6-6.8-3.8l-.6.3c-.1-.3 3.7-9.6 3.6-9.9l-10.5 6.1c-.2-.4 8.7-13.1 8.4-13.4l-3.3 1.9c-.1-.1-1-7.3-1.1-7.5l-10 5.7c-.1-.3 2.7-10.5 2.6-10.7l-.5.3c-.1-.2 2.5-9.8 2.3-10l-12 6.9c-.1-.2 2.9-9.5 2.8-9.7h-.1c-.1-.1-7-4.5-7-4.7l-3.8 2.2c-.1-.2.1-8.4.1-8.6l-.6.3c-.1-.1-5.4-5.5-5.5-5.7l-.6.3-5.1-5.9-6.6 3.8c-.1-.2-2.1-7.8-2.2-8l-.7.4c-.1-.2-7.8-4.5-7.9-4.7l-.7.4c-.1-.3-13-1.2-13.1-1.4l-1.7.9c-.1-.2-1.1-7.4-1.2-7.6l-9.5 5.5-4.1-6-.9.5c-.1-.3-13.3-.9-13.5-1.1l-1.1.6" stroke="#a39cb9" stroke-linecap="round" stroke-linejoin="round" stroke-width="1.3519"/></g></svg>