<svg height="300" viewBox="0 0 650 300" width="650" xmlns="http://www.w3.org/2000/svg"><g fill="#5e5d5d"><path d="m21.5 129v112.3h7.5v-220.9h-7.5z"/><path d="m34.3 129v112.3h3.2v-220.9h-3.2z"/><path d="m46.6 129v112.3h3.2v-220.9h-3.2z"/><path d="m67.9 129v112.3h24.4v-220.9h-24.4z"/><path d="m97.1 129v112.3h11.7v-220.9h-11.7z"/><path d="m114.2 129v112.3h11.2v-220.9h-11.2z"/><path d="m130.7 129v112.3h3.2v-220.9h-3.2z"/><path d="m147.2 129v112.3h7.5v-220.9h-7.5z"/><path d="m160 129v112.3h3.2v-220.9h-3.2z"/><path d="m180.7 129v112.3h7.5v-220.9h-7.5z"/><path d="m193.5 129v112.3h3.2v-220.9h-3.2z"/><path d="m206.3 129v112.3h6.9v-220.9h-6.9z"/><path d="m231.3 129v112.3h3.2v-220.9h-3.2z"/><path d="m244.1 129v112.3h3.2v-220.9h-3.2z"/><path d="m252.6 129v112.3h2.7v-220.9h-2.7z"/><path d="m273.4 129v112.3h7.5v-220.9h-7.5z"/><path d="m285.6 129v112.3h3.2v-220.9h-3.2z"/><path d="m298.4 129v112.3h3.2v-220.9h-3.2z"/><path d="m306.9 129v112.3h3.2v-220.9h-3.2z"/><path d="m319.1 129v112.3h16v-220.9h-16z"/><path d="m344.7 129v112.3h3.2v-220.9h-3.2z"/><path d="m353.2 129v112.3h6.9v-220.9h-6.9z"/><path d="m369.7 129v112.3h3.2v-220.9h-3.2z"/><path d="m390.5 129v112.3h3.2v-220.9h-3.2z"/><path d="m411.2 129v112.3h3.2v-220.9h-3.2z"/><path d="m424 129v112.3h7.5v-220.9h-7.5z"/><path d="m436.8 129v112.3h3.2v-220.9h-3.2z"/><path d="m457.6 129v112.3h7.4v-220.9h-7.5v108.6z"/><path d="m470.3 129v112.3h3.2v-220.9h-3.2z"/><path d="m482.9 129v112.3h2.9v-220.9h-2.9z"/><path d="m495.4 129v112.3h3.2v-220.9h-3.2z"/><path d="m503.9 129v112.3h7.5v-220.9h-7.5z"/><path d="m528.9 129v112.3h3.2v-220.9h-3.2z"/><path d="m537.4 129v112.3h15.4v-220.9h-15.4z"/><path d="m558.2 129v112.3h11.7v-220.9h-11.7z"/><path d="m575.2 129v112.3h7.5v-220.9h-7.5z"/><path d="m596 129v112.3h11.7v-220.9h-11.7z"/><path d="m612.5 129v112.3h3.2v-220.9h-3.2z"/><path d="m621 129v112.3h7.5v-220.9h-7.5z"/></g><text fill="#9e9e9e" font-family="Roboto Mono" font-size="18" transform="translate(16.8 290.5)">0</text><path d="m126.6 258.6v8" fill="none" stroke="#888" stroke-width="1.5"/><text fill="#9e9e9e" font-family="Roboto Mono" font-size="18" transform="translate(115.7 290.5)">10</text><path d="m230.9 258.6v8" fill="none" stroke="#888" stroke-width="1.5"/><text fill="#9e9e9e" font-family="Roboto Mono" font-size="18" transform="translate(220.1 290.5)">20</text><path d="m335.2 258.6v8" fill="none" stroke="#888" stroke-width="1.5"/><text fill="#9e9e9e" font-family="Roboto Mono" font-size="18" transform="translate(324.4 290.5)">30</text><path d="m439.4 258.6v8" fill="none" stroke="#888" stroke-width="1.5"/><text fill="#9e9e9e" font-family="Roboto Mono" font-size="18" transform="translate(428.6 290.5)">40</text><path d="m543.7 258.6v8" fill="none" stroke="#888" stroke-width="1.5"/><text fill="#9e9e9e" font-family="Roboto Mono" font-size="18" transform="translate(532.9 290.5)">50</text><path d="m22.2 266.6v-7.9h603.9" fill="none" stroke="#888" stroke-width="1.5"/></svg>