<?xml version="1.0" encoding="utf-8"?>
<!-- Generator: Adobe Illustrator 24.0.1, SVG Export Plug-In . SVG Version: 6.00 Build 0)  -->
<svg version="1.1" id="Layer_1" xmlns="http://www.w3.org/2000/svg" xmlns:xlink="http://www.w3.org/1999/xlink" x="0px" y="0px"
	 viewBox="0 0 1268 418" style="enable-background:new 0 0 1268 418;" xml:space="preserve">
<style type="text/css">
	.st0{fill:none;stroke:#D6D4D4;stroke-width:1.3452;}
	.st1{fill:#CCCCCC;}
	.st2{font-family:'RobotoMono-Regular';}
	.st3{font-size:16.1421px;}
	.st4{fill:#B5AEC7;}
	.st5{fill:#59595B;}
	.st6{fill:none;stroke:#000000;stroke-width:1.3452;stroke-miterlimit:10;}
</style>
<path class="st0" d="M383.4,395.5V9"/>
<path class="st0" d="M481.3,395.5V9"/>
<path class="st0" d="M579.4,395.5V9"/>
<path class="st0" d="M677.3,395.5V9"/>
<path class="st0" d="M775.2,395.5V9"/>
<path class="st0" d="M873.2,395.5V9"/>
<path class="st0" d="M971.1,395.5V9"/>
<path class="st0" d="M285.4,395.5V9"/>
<text transform="matrix(1 0 0 1 279.5347 412.2773)" class="st1 st2 st3">0</text>
<text transform="matrix(1 0 0 1 372.8887 412.2773)" class="st1 st2 st3">10</text>
<text transform="matrix(1 0 0 1 471.0864 412.2773)" class="st1 st2 st3">20</text>
<text transform="matrix(1 0 0 1 569.2842 412.2773)" class="st1 st2 st3">30</text>
<text transform="matrix(1 0 0 1 667.4814 412.2773)" class="st1 st2 st3">40</text>
<text transform="matrix(1 0 0 1 765.6787 412.2773)" class="st1 st2 st3">50</text>
<text transform="matrix(1 0 0 1 863.877 412.2773)" class="st1 st2 st3">60</text>
<text transform="matrix(1 0 0 1 962.0742 412.2773)" class="st1 st2 st3">70</text>
<circle class="st4" cx="345" cy="302.8" r="59.6"/>
<circle class="st4" cx="363.1" cy="196.9" r="41.7"/>
<ellipse transform="matrix(0.1602 -0.9871 0.9871 0.1602 223.6758 505.5432)" class="st4" cx="408.9" cy="121.3" rx="29.5" ry="29.5"/>
<circle class="st4" cx="475.3" cy="249.8" r="52.9"/>
<circle class="st4" cx="492.1" cy="138.1" r="36.1"/>
<circle class="st4" cx="550.6" cy="333.6" r="28.8"/>
<ellipse transform="matrix(0.1602 -0.9871 0.9871 0.1602 241.9937 790.7269)" class="st4" cx="585.7" cy="253.1" rx="39.7" ry="39.7"/>
<circle class="st4" cx="616" cy="136.9" r="58"/>
<circle class="st4" cx="541" cy="186.7" r="31.6"/>
<circle class="st4" cx="664.2" cy="241.8" r="28.4"/>
<circle class="st4" cx="820.2" cy="242.7" r="24.3"/>
<circle class="st4" cx="874.4" cy="313" r="23.1"/>
<circle class="st4" cx="948.1" cy="179.3" r="25.7"/>
<circle class="st4" cx="885.4" cy="188.3" r="14.1"/>
<circle class="st4" cx="723.6" cy="188.7" r="19.8"/>
<text transform="matrix(1 0 0 1 320.8779 298.6602)" class="st5 st2 st3">South</text>
<text transform="matrix(1 0 0 1 320.8779 318.0303)" class="st5 st2 st3">Korea</text>
<text transform="matrix(1 0 0 1 449.1401 256.3662)" class="st5 st2 st3">Japan</text>
<text transform="matrix(1 0 0 1 338.8359 201.3599)" class="st5 st2 st3">China</text>
<text transform="matrix(1 0 0 1 591.7729 143.0688)" class="st5 st2 st3">India</text>
<text transform="matrix(1 0 0 1 556.6182 257.7109)" class="st5 st2 st3">Mexico</text>
<text transform="matrix(1 0 0 1 516.793 191.6885)" class="st5 st2 st3">Egypt</text>
<text transform="matrix(1 0 0 1 472.6885 143.0693)" class="st5 st2 st3">Iran</text>
<text transform="matrix(1 0 0 1 531.2114 339.4639)" class="st5 st2 st3">Cuba</text>
<text transform="matrix(1 0 0 1 641.3223 247.0957)" class="st5 st2 st3">Qatar</text>
<text transform="matrix(1 0 0 1 709.0371 194.9023)" class="st5 st2 st3">USA</text>
<text transform="matrix(1 0 0 1 864.6562 318.7764)" class="st5 st2 st3">UK</text>
<text transform="matrix(1 0 0 1 795.8994 248.4746)" class="st5 st2 st3">Italy</text>
<text transform="matrix(1 0 0 1 923.8311 185.0625)" class="st5 st2 st3">Spain</text>
<text transform="matrix(1 0 0 1 798.3711 168.8945)" class="st5 st2 st3">Norway</text>
<text transform="matrix(1 0 0 1 384.6821 126.2842)" class="st5 st2 st3">Chile</text>
<line class="st6" x1="861.5" y1="169.6" x2="885.4" y2="189"/>
</svg>
