<?xml version="1.0" encoding="utf-8"?>
<!-- Generator: Adobe Illustrator 22.1.0, SVG Export Plug-In . SVG Version: 6.00 Build 0)  -->
<svg version="1.1" id="Layer_1" xmlns="http://www.w3.org/2000/svg" xmlns:xlink="http://www.w3.org/1999/xlink" x="0px" y="0px"
	 viewBox="0 0 500 361" style="enable-background:new 0 0 500 361;" xml:space="preserve">
<style type="text/css">
	.st0{fill:#727272;}
	.st1{font-family:'RobotoMono-Regular';}
	.st2{font-size:26px;}
	.st3{fill:none;stroke:#B2B2B2;stroke-width:2;stroke-miterlimit:10;}
	.st4{fill:#B2B2B2;}
	.st5{fill:none;stroke:#B2B2B2;stroke-width:6;stroke-miterlimit:10;}
	
		.st6{opacity:0.8;fill:none;stroke:#A8A8A8;stroke-width:1.5;stroke-linecap:round;stroke-miterlimit:10;stroke-dasharray:0,3;enable-background:new    ;}
	.st7{fill:#514361;}
	.st8{font-size:18px;}
</style>
<g>
	<text transform="matrix(1 0 0 1 304.0581 30.9004)" class="st0 st1 st2">B</text>
</g>
<g>
	<text transform="matrix(1 0 0 1 455.7046 325.8887)" class="st0 st1 st2">C</text>
</g>
<g>
	<text transform="matrix(1 0 0 1 29.6924 288.707)" class="st0 st1 st2">D</text>
</g>
<g>
	<text transform="matrix(1 0 0 1 43.9219 63.2217)" class="st0 st1 st2">E</text>
</g>
<path class="st3" d="M68.3,250.7l146.5-55.5"/>
<path class="st3" d="M214.6,193.2L82.4,76.3"/>
<path class="st3" d="M214.6,193.2l70.7-149.6"/>
<ellipse class="st4" cx="212.9" cy="193.3" rx="28.9" ry="30.2"/>
<path class="st3" d="M214.6,193.2l228.7,95.1"/>
<path class="st5" d="M61.6,250.3l381.7,38"/>
<g>
	<text transform="matrix(1 0 0 1 205.4644 201.2441)" class="st0 st1 st2">A</text>
</g>
<ellipse class="st4" cx="82.6" cy="76.7" rx="12.9" ry="13.5"/>
<ellipse class="st4" cx="284.9" cy="44.1" rx="12.9" ry="13.5"/>
<ellipse class="st4" cx="437.5" cy="287.6" rx="12.9" ry="13.5"/>
<ellipse class="st4" cx="68.9" cy="249.9" rx="12.9" ry="13.5"/>
<path class="st6" d="M82.2,36.6V74"/>
<text transform="matrix(1 0 0 1 344.1802 185.9463)" class="st7 st1 st8">weighted</text>
<g>
	<text transform="matrix(1 0 0 1 344.1802 210.875)" class="st7 st1 st8">node</text>
</g>
<path class="st6" d="M242.1,193.5h95.6"/>
<text transform="matrix(1 0 0 1 78.2778 326.168)" class="st7 st1 st8">weighted</text>
<g>
	<text transform="matrix(1 0 0 1 78.2778 351.0967)" class="st7 st1 st8">link</text>
</g>
<path class="st6" d="M120.6,301.5v-43.6"/>
<text transform="matrix(1 0 0 1 57.5 23.9121)" class="st7 st1 st8">node</text>
<path class="st6" d="M148.7,88.6V126"/>
<text transform="matrix(1 0 0 1 123.9897 75.8457)" class="st7 st1 st8">link</text>
<g>
	<text transform="matrix(1 0 0 1 306.7876 113.2383)" class="st7 st1 st8">node </text>
</g>
<text transform="matrix(1 0 0 1 306.7876 138.167)" class="st7 st1 st8">distance</text>
<path class="st6" d="M283.7,122.1l13.5-0.3"/>
<line class="st6" x1="303.8" y1="66.9" x2="254" y2="176.5"/>
<path class="st6" d="M68.7,250.6"/>
</svg>
