<svg enable-background="new 0 0 1268 418" viewBox="0 0 1268 418" xmlns="http://www.w3.org/2000/svg"><g fill="none"><path d="m228.9 2.2v380l854.1-.7" stroke="#ccc" stroke-width="1.7221"/><path d="m1071.8 257.2h-92.5v-96.4h-92.6v180.9h-92.8v-231h-92.6v50.1h-92.6v80h-92.6v-209.8h-92.6v129.8h-92.6v47h-92.6" stroke="#a39cb9" stroke-miterlimit="10" stroke-width="7.9328"/><path d="m238.3 382.9v9.2" stroke="#ccc" stroke-width="1.8491"/><path d="m330.9 382.9v9.2" stroke="#ccc" stroke-width="1.8491"/><path d="m423.4 382.9v9.2" stroke="#ccc" stroke-width="1.8491"/><path d="m516 382.9v9.2" stroke="#ccc" stroke-width="1.8491"/><path d="m608.7 382.9v9.2" stroke="#ccc" stroke-width="1.8491"/><path d="m701 382.9v9.2" stroke="#ccc" stroke-width="1.8491"/><path d="m793.6 382.9v9.2" stroke="#ccc" stroke-width="1.8491"/><path d="m886.1 382.9v9.2" stroke="#ccc" stroke-width="1.8491"/><path d="m978.7 382.9v9.2" stroke="#ccc" stroke-width="1.8491"/><path d="m1071.3 382.9v9.2" stroke="#ccc" stroke-width="1.8491"/></g><path d="m243.8 410.7c0 .8-.1 1.6-.3 2.4-.2.7-.4 1.3-.8 1.8s-.9.9-1.4 1.1l-2 .4-2-.4c-.6-.3-1-.6-1.4-1.1-.5-.5-.8-1.2-1-1.8-.2-.8-.3-1.6-.3-2.4v-3.4c0-.8.1-1.6.3-2.4.2-.7.4-1.3.8-1.8s.9-.9 1.4-1.1c1.3-.5 2.7-.5 4 0 .6.3 1 .6 1.4 1.1s.7 1.2.8 1.8c.2.8.3 1.6.3 2.4v3.4zm-7.4-.5 5.6-4.2c-.1-.8-.4-1.5-.8-2.1-.5-.5-1.2-.8-2-.7-.8-.1-1.6.3-2.1 1-.5.8-.8 1.8-.7 2.8v3.4zm5.6-2.5-5.5 4.2c.1.8.3 1.5.8 2.1.5.5 1.2.8 2 .7.8.1 1.6-.3 2.1-1 .5-.8.8-1.8.7-2.8v-3.1z" fill="#ccc"/><path d="m333.3 416.2h-1.8v-12l-3.8 1.4v-1.7l5.4-2.1h.1v14.2z" fill="#ccc"/><path d="m428.8 416.2h-9.3v-1.3l4.7-5.2 1-1.3.7-1 .4-.8c.1-.3.1-.6.1-.8 0-.3 0-.7-.1-1l-.6-.8-.8-.6h-2.3l-.8.6c-.3.3-.5.6-.6 1s-.2.8-.1 1.3h-1.8c0-.6.1-1.2.3-1.7s.5-1 .8-1.4l1.4-1 2-.4 1.8.3 1.4.8c.4.4.7.8.8 1.3.2.5.3 1 .3 1.6 0 .4-.1.9-.3 1.3l-.6 1.3-.8 1.3-1 1.1-3.8 4.2h7.2v1.6z" fill="#ccc"/><path d="m514.6 408.1h2.5l.8-.6.6-.7c.1-.3.2-.7.1-1 .2-1.2-.7-2.4-1.9-2.5-.2 0-.4 0-.6 0h-1l-.8.6-.6.7c-.1.3-.2.7-.1 1h-1.8c0-1.1.5-2.1 1.3-2.8l1.4-.8 1.8-.3 1.7.3 1.4.7c.4.4.7.8.8 1.3.2.5.3 1.1.3 1.7 0 .3-.1.6-.1.8l-.4.8-.7.8-1 .6 1.1.6.7.8c.2.3.3.6.4 1 .1.3.1.7.1 1 0 .6-.1 1.3-.3 1.8s-.6.9-1 1.3l-1.3.8-1.8.3-1.8-.3-1.4-.8c-.4-.3-.8-.8-1-1.3-.3-.5-.4-1.1-.4-1.7h1.8c0 .3 0 .7.1 1l.6.8.8.6h2.3l.8-.6.6-.8c.1-.4.2-.7.1-1.1 0-.4-.1-.8-.3-1.1l-.6-.8-1-.4h-2.5v-1.4z" fill="#ccc"/><path d="m612.4 411.4h2v1.6h-2v3.4h-1.8v-3.4h-6.5v-1.1l6.4-9.9h2v9.4zm-6.4 0h4.5v-7.1l-.3.6z" fill="#ccc"/><path d="m698.4 409 .7-7.2h7.3v1.8h-5.8l-.4 3.8 1-.4h1.4l1.8.3c.5.2.9.6 1.3 1 .4.5.7 1 .8 1.6.2.6.3 1.3.3 2 0 .6-.1 1.2-.3 1.8s-.5 1.1-.8 1.6c-.4.4-.9.8-1.4 1l-2 .4-1.7-.3-1.4-.7c-.4-.3-.8-.8-1-1.3s-.4-1.1-.4-1.7h1.7c0 .7.3 1.3.8 1.8.5.4 1.2.6 1.8.6l1.1-.3.8-.7c.3-.3.4-.6.6-1 .1-.4.2-.8.1-1.3 0-.4 0-.9-.1-1.3s-.3-.7-.6-1l-.8-.7-1.3-.3h-1.4l-.6.3-.4.4z" fill="#ccc"/><path d="m796.9 401.9v1.7h-1.9l-1.3.6-1 .7-.7 1-.4 1.1c-.1.4-.1.7-.1 1.1l.6-.6.7-.4.8-.3h1c.6 0 1.3.1 1.8.4s.9.7 1.3 1.1c.3.5.6 1 .7 1.6.2.5.3 1.1.3 1.7s-.1 1.2-.3 1.8-.5 1.1-.8 1.6c-.4.4-.9.8-1.4 1-.6.3-1.3.4-2 .4l-1.4-.3-1.1-.6-.8-1-.4-1.1c-.2-.4-.3-.8-.4-1.3-.1-.4-.1-.8-.1-1.3v-.8c0-.7.1-1.3.1-2 .1-.6.2-1.2.4-1.8s.5-1.2.8-1.7.8-1 1.3-1.4l1.8-.8 2.4-.3h.1zm-2.4 6.5h-.8l-.8.4-.7.7-.4.8v.6c0 .6.1 1.1.3 1.7.1.5.3.9.6 1.3l.8.7 1 .3 1.1-.3.8-.7c.3-.3.4-.6.6-1 .2-.8.2-1.7 0-2.5-.1-.4-.2-.7-.4-1l-.8-.7z" fill="#ccc"/><path d="m891.9 402.9-5.9 13.3h-2l5.9-12.7h-7.8v-1.6h9.7v1z" fill="#ccc"/><path d="m984.2 405.6c0 .7-.2 1.4-.6 2-.4.5-.9 1-1.6 1.3l1 .6.7.8.4 1c.1.4.2.7.1 1.1 0 .6-.2 1.2-.4 1.7s-.6.9-1 1.3l-1.4.8-1.8.3-1.8-.3-1.4-.8c-.4-.3-.8-.8-1-1.3-.3-.5-.4-1.1-.4-1.7 0-.4 0-.8.1-1.1l.4-1 .7-.8 1-.6-.8-.6-.7-.7-.4-.8c-.1-.3-.1-.7-.1-1 0-.6.1-1.2.3-1.7s.5-.9.8-1.3l1.3-.7 1.7-.3 1.7.3 1.4.7c.4.4.7.8.8 1.3.4.4.8.9 1 1.5zm-1.6 6.6c0-.4 0-.8-.1-1.1l-.6-.8-.8-.6h-2.3l-.8.6-.6.8c-.1.4-.2.7-.1 1.1 0 .4 0 .8.1 1.1l.6.8.8.6h2.3l.8-.6.6-.8c.1-.3.2-.7.1-1zm-.2-6.6c0-.3 0-.7-.1-1l-.6-.8-.7-.6h-2l-.7.6-.4.8c-.1.3-.2.7-.1 1 0 .3 0 .7.1 1l.4.7.7.4h2l.7-.4.6-.7c.1-.3.1-.6.1-.8z" fill="#ccc"/><path d="m1069.9 414.6h1.7l1.3-.4.8-.7.6-1c.1-.4.2-.7.3-1.1s.1-.8.1-1.1l-.6.6-.7.4-.8.3h-1c-1.2 0-2.4-.5-3.1-1.6-.3-.5-.6-1-.7-1.6-.4-1.2-.4-2.5 0-3.7.2-.6.5-1.1.8-1.6.4-.5.9-.9 1.4-1.1.6-.3 1.3-.4 2-.4l1.6.3 1.1.7.8 1 .6 1.1c.1.5.2.9.3 1.4s.1.9.1 1.4v.7c0 .6 0 1.2-.1 1.8 0 .6-.1 1.2-.3 1.8s-.4 1.2-.7 1.7-.8 1-1.3 1.4l-1.8 1-2.5.3h-.1v-1.6h.3zm2.1-4.6h.8l.8-.4.7-.7.4-.8v-.6c0-.6-.1-1.1-.3-1.7-.1-.5-.3-.9-.6-1.3l-.8-.8-1-.3-1.1.3-.8.7c-.3.3-.5.7-.6 1.1s-.2.8-.1 1.3c0 .4 0 .9.1 1.3s.2.8.4 1.1l.8.7z" fill="#ccc"/><path d="m226.9 23.6h-9.2" fill="none" stroke="#ccc" stroke-width="1.8491"/><path d="m226.9 116.2h-9.2" fill="none" stroke="#ccc" stroke-width="1.8491"/><path d="m226.9 208.5h-9.2" fill="none" stroke="#ccc" stroke-width="1.8491"/><path d="m226.9 301.3h-9.2" fill="none" stroke="#ccc" stroke-width="1.8491"/><path d="m193.2 309h-1.8v-12l-3.8 1.4v-1.7l5.4-2.1h.1v14.4z" fill="#ccc"/><path d="m208.4 303.5c0 .8-.1 1.6-.3 2.4-.2.7-.4 1.3-.8 1.8s-.9.9-1.4 1.1l-2 .4-2-.4c-.6-.3-1-.6-1.4-1.1-.5-.5-.8-1.2-1-1.8-.2-.8-.3-1.6-.3-2.4v-3.4c0-.8.1-1.6.3-2.4.2-.7.4-1.3.8-1.8s.9-.9 1.4-1.1c1.3-.5 2.7-.5 4 0 .6.3 1 .6 1.4 1.1s.7 1.2.8 1.8c.2.8.3 1.6.3 2.4v3.4zm-7.5-.4 5.6-4.2c-.1-.8-.4-1.5-.8-2.1-.5-.5-1.2-.8-2-.7-.8-.1-1.6.3-2.1 1-.5.8-.8 1.8-.7 2.8v3.4zm5.7-2.5-5.5 4.2c.1.8.3 1.5.8 2.1.5.5 1.2.8 2 .7.8.1 1.6-.3 2.1-1 .5-.8.8-1.8.7-2.8v-3.2z" fill="#ccc"/><path d="m196.1 214.9h-9.5v-1.3l4.7-5.2 1-1.3.7-1 .4-.8c.1-.3.1-.6.1-.8 0-.3 0-.7-.1-1l-.6-.8-.8-.7h-2.3l-.8.6c-.3.3-.5.6-.6 1s-.2.8-.1 1.3h-1.8c0-.6.1-1.2.3-1.7s.5-1 .8-1.4l1.4-1 2-.4 1.8.3 1.4.8c.4.4.7.8.8 1.3.2.5.3 1 .3 1.6 0 .4-.1.9-.3 1.3l-.6 1.3-.8 1.3-1 1.1-3.8 4.2h7.3v1.6-.3z" fill="#ccc"/><path d="m208.4 209.4c0 .8-.1 1.6-.3 2.4-.2.7-.4 1.3-.8 1.8s-.9.9-1.4 1.1l-2 .4-2-.4c-.6-.3-1-.6-1.4-1.1-.5-.5-.8-1.2-1-1.8-.2-.8-.3-1.6-.3-2.4v-3.4c0-.8.1-1.6.3-2.4.2-.7.4-1.3.8-1.8s.9-.9 1.4-1.1l2-.4c.7 0 1.4.1 2 .4s1 .6 1.4 1.1.7 1.2.8 1.8c.2.8.3 1.6.3 2.4v3.4zm-7.5-.4 5.6-4.2c-.1-.8-.4-1.5-.8-2.1-.5-.5-1.2-.8-2-.7-.8-.1-1.6.3-2.1 1-.5.8-.8 1.8-.7 2.8v3.4zm5.7-2.6-5.5 4.2c.1.8.3 1.5.8 2.1.5.5 1.2.8 2 .7.8.1 1.6-.3 2.1-1 .5-.8.8-1.8.7-2.8v-3.2z" fill="#ccc"/><path d="m189.5 114h2.4l.8-.6.6-.8c.1-.3.2-.7.1-1 0-.7-.2-1.3-.7-1.8-.5-.4-1.2-.6-1.8-.6h-.8l-.8.6-.6.8c-.1.3-.2.7-.1 1h-1.8c0-1.1.5-2.1 1.3-2.8l1.4-.8 1.8-.3 1.7.3 1.4.7c.4.4.7.8.8 1.3.2.5.3 1.1.3 1.7 0 .3-.1.6-.1.8l-.4.8-.7.8-1 .6 1.1.6.7.8c.2.3.3.6.4 1 .1.3.1.7.1 1 0 .6-.1 1.3-.3 1.8s-.6.9-1 1.3l-1.4.8-1.8.3-1.8-.3-1.4-.8c-.4-.3-.8-.8-1-1.3-.3-.5-.4-1.1-.4-1.7h2c0 .3 0 .7.1 1l.6.8.8.6h2.3l.8-.6.6-.8c.1-.4.2-.7.1-1.1 0-.4-.1-.8-.3-1.1l-.6-.8-1-.4h-2.4v-1.4z" fill="#ccc"/><path d="m208.4 116.5c0 .8-.1 1.6-.3 2.4-.2.7-.4 1.3-.8 1.8s-.9.9-1.4 1.1l-2 .4-2-.4c-.6-.3-1-.6-1.4-1.1-.5-.5-.8-1.2-1-1.8-.2-.8-.3-1.6-.3-2.4v-3.4c0-.8.1-1.6.3-2.4.2-.7.4-1.3.8-1.8s.9-.9 1.4-1.1l2-.4c.7 0 1.4.1 2 .4s1 .6 1.4 1.1.7 1.2.8 1.8c.2.8.3 1.6.3 2.4v3.4zm-7.5-.4 5.6-4.2c-.1-.8-.4-1.5-.8-2.1-.5-.5-1.2-.8-2-.7-.8-.1-1.6.3-2.1 1-.5.8-.8 1.8-.7 2.8v3.4zm5.7-2.6-5.5 4.2c.1.8.3 1.5.8 2.1.5.5 1.2.8 2 .7.8.1 1.6-.3 2.1-1 .5-.8.8-1.8.7-2.8v-3.2z" fill="#ccc"/><path d="m194.7 24.5h2v1.5h-2v3.4h-1.8v-3.5h-6.5v-1l6.4-9.9h2v9.5zm-6.3 0h4.5v-7.1l-.3.6z" fill="#ccc"/><path d="m208.4 23.8c0 .8-.1 1.6-.3 2.4-.2.7-.4 1.3-.8 1.8s-.9.9-1.4 1.1l-2 .4-2.1-.6c-.6-.3-1-.6-1.4-1.1-.5-.5-.8-1.2-1-1.8-.2-.8-.3-1.6-.3-2.4v-3.2c0-.8.1-1.6.3-2.4.2-.7.4-1.3.8-1.8s.9-.9 1.4-1.1l2-.4c.7 0 1.4.1 2 .4s1 .6 1.4 1.1.7 1.2.8 1.8c.2.8.3 1.6.3 2.4v3.4zm-7.5-.4 5.6-4.2c-.1-.8-.4-1.5-.8-2.1-.5-.5-1.2-.8-2-.7-.8-.1-1.6.3-2.1 1-.5.8-.8 1.8-.7 2.8v3.4zm5.7-2.6-5.5 4.2c.1.8.3 1.5.8 2.1.5.5 1.2.8 2 .7.8.1 1.6-.3 2.1-1 .5-.8.8-1.8.7-2.8v-3.2z" fill="#ccc"/></svg>