<?xml version="1.0" encoding="utf-8"?>
<!-- Generator: Adobe Illustrator 22.1.0, SVG Export Plug-In . SVG Version: 6.00 Build 0)  -->
<svg version="1.1" id="Layer_1" xmlns="http://www.w3.org/2000/svg" xmlns:xlink="http://www.w3.org/1999/xlink" x="0px" y="0px"
	 viewBox="0 0 808.7 731.6" style="enable-background:new 0 0 808.7 731.6;" xml:space="preserve">
<style type="text/css">
	.st0{fill:none;stroke:#D8D8D8;stroke-width:4;stroke-miterlimit:10;}
	.st1{fill:#FFFFFF;stroke:#D5D5D5;stroke-width:7;stroke-miterlimit:10;}
	.st2{fill:#6D6D6D;}
	.st3{font-family:'RobotoMono-Regular';}
	.st4{font-size:28px;}
	.st5{font-size:36px;}
	.st6{font-size:30px;}
</style>
<line class="st0" x1="419.5" y1="333.1" x2="602.8" y2="522.7"/>
<line class="st0" x1="414.6" y1="165" x2="414.6" y2="336.7"/>
<g>
	<line class="st0" x1="602.8" y1="536.5" x2="751.2" y2="637.4"/>
	<line class="st0" x1="602.8" y1="522.7" x2="602.8" y2="640"/>
	<line class="st0" x1="419.5" y1="333.1" x2="249.7" y2="522.7"/>
	<line class="st0" x1="249.7" y1="522.7" x2="249.8" y2="637"/>
	<line class="st0" x1="411" y1="118.1" x2="698" y2="226.2"/>
	<line class="st0" x1="537.6" y1="118.1" x2="642.6" y2="116.2"/>
	<line class="st0" x1="252.1" y1="536.5" x2="110.8" y2="676"/>
	<line class="st0" x1="110.8" y1="523" x2="249.7" y2="522.7"/>
	<path class="st1" d="M325.8,272.6h177.5c28.2,0,51.2,22.9,51.2,51.2l0,0c0,28.2-22.9,51.2-51.2,51.2H325.8
		c-28.2,0-51.2-22.9-51.2-51.2l0,0C274.7,295.6,297.6,272.6,325.8,272.6z"/>
	<path class="st1" d="M341.6,75H491c23.8,0,43.1,19.3,43.1,43.1l0,0c0,23.8-19.3,43.1-43.1,43.1H341.6c-23.8,0-43.1-19.3-43.1-43.1
		l0,0C298.6,94.3,317.8,75,341.6,75z"/>
	<path class="st1" d="M528.4,478.5h149.4c23.8,0,43.1,19.3,43.1,43.1l0,0c0,23.8-19.3,43.1-43.1,43.1H528.4
		c-23.8,0-43.1-19.3-43.1-43.1l0,0C485.3,497.7,504.6,478.5,528.4,478.5z"/>
	<path class="st1" d="M175.1,478.5h149.4c23.8,0,43.1,19.3,43.1,43.1l0,0c0,23.8-19.3,43.1-43.1,43.1H175.1
		c-23.8,0-43.1-19.3-43.1-43.1l0,0C132,497.7,151.3,478.5,175.1,478.5z"/>
	<path class="st1" d="M687.5,228.2h21c23.2,0,42,18.8,42,42l0,0c0,23.2-18.8,42-42,42h-21c-23.2,0-42-18.8-42-42l0,0
		C645.5,247,664.3,228.2,687.5,228.2z"/>
	<path class="st1" d="M685.1,74.2h21c23.2,0,42,18.8,42,42l0,0c0,23.2-18.8,42-42,42h-21c-23.2,0-42-18.8-42-42l0,0
		C643.1,93.1,662,74.2,685.1,74.2z"/>
	<path class="st1" d="M47.8,637.7h21c23.2,0,42,18.8,42,42l0,0c0,23.2-18.8,42-42,42h-21c-23.2,0-42-18.8-42-42l0,0
		C5.8,656.6,24.6,637.7,47.8,637.7z"/>
	<path class="st1" d="M240.6,637.7h18.2c23.2,0,42,18.8,42,42l0,0c0,23.2-18.8,42-42,42h-18.2c-23.2,0-42-18.8-42-42l0,0
		C198.6,656.6,217.4,637.7,240.6,637.7z"/>
	<path class="st1" d="M47.8,481h21c23.2,0,42,18.8,42,42l0,0c0,23.2-18.8,42-42,42h-21c-23.2,0-42-18.8-42-42l0,0
		C5.8,499.8,24.6,481,47.8,481z"/>
	<g>
		<text transform="matrix(1 0 0 1 664.3495 126.1372)" class="st2 st3 st4">idea</text>
	</g>
	<g>
		<text transform="matrix(1 0 0 1 666.6957 279.9224)" class="st2 st3 st4">idea</text>
	</g>
	<path class="st1" d="M740.7,637.7h21c23.2,0,42,18.8,42,42l0,0c0,23.2-18.8,42-42,42h-21c-23.2,0-42-18.8-42-42l0,0
		C698.7,656.6,717.5,637.7,740.7,637.7z"/>
	<g>
		<text transform="matrix(1 0 0 1 719.9088 689.0997)" class="st2 st3 st4">idea</text>
	</g>
	<g>
		<text transform="matrix(1 0 0 1 216.4862 689.0997)" class="st2 st3 st4">idea</text>
	</g>
	<path class="st1" d="M593.7,637.7h18.2c23.2,0,42,18.8,42,42l0,0c0,23.2-18.8,42-42,42h-18.2c-23.2,0-42-18.8-42-42l0,0
		C551.7,656.6,570.5,637.7,593.7,637.7z"/>
	<g>
		<text transform="matrix(1 0 0 1 569.6232 689.0997)" class="st2 st3 st4">idea</text>
	</g>
	<g>
		<text transform="matrix(1 0 0 1 25.0921 532.7277)" class="st2 st3 st4">idea</text>
	</g>
	<g>
		<text transform="matrix(1 0 0 1 25.0921 689.0998)" class="st2 st3 st4">idea</text>
	</g>
	<g>
		<text transform="matrix(1 0 0 1 306.5492 336.9488)" class="st2 st3 st5">main topic</text>
	</g>
	<g>
		<text transform="matrix(1 0 0 1 332.8241 131.8509)" class="st2 st3 st6">sub-topic</text>
	</g>
	<g>
		<text transform="matrix(1 0 0 1 168.0987 536.4958)" class="st2 st3 st6">sub-topic</text>
	</g>
	<g>
		<text transform="matrix(1 0 0 1 522.0283 536.4958)" class="st2 st3 st6">sub-topic</text>
	</g>
</g>
</svg>
