<?xml version="1.0" encoding="utf-8"?>
<!-- Generator: Adobe Illustrator 22.1.0, SVG Export Plug-In . SVG Version: 6.00 Build 0)  -->
<svg version="1.1" xmlns="http://www.w3.org/2000/svg" xmlns:xlink="http://www.w3.org/1999/xlink" x="0px" y="0px"
	 viewBox="0 0 1268 418" enable-background="new 0 0 1268 418" xml:space="preserve">
<g id="Layer_1">
	<g>
		<line fill="none" stroke="#C4C4C4" stroke-miterlimit="10" x1="966.5" y1="319" x2="1158.5" y2="322.9"/>
		<line fill="none" stroke="#C4C4C4" stroke-miterlimit="10" x1="634" y1="216" x2="558.5" y2="126"/>
		<line fill="none" stroke="#C4C4C4" stroke-miterlimit="10" x1="558.5" y1="126" x2="483.7" y2="22.4"/>
		<line fill="none" stroke="#C4C4C4" stroke-miterlimit="10" x1="428.9" y1="209" x2="328" y2="118.7"/>
		<line fill="none" stroke="#C4C4C4" stroke-miterlimit="10" x1="328" y1="118.7" x2="99.9" y2="111.4"/>
		<line fill="none" stroke="#C4C4C4" stroke-miterlimit="10" x1="328" y1="118.7" x2="242.8" y2="19.4"/>
		<line fill="none" stroke="#C4C4C4" stroke-miterlimit="10" x1="428.9" y1="209" x2="224.8" y2="194.9"/>
		<line fill="none" stroke="#C4C4C4" stroke-miterlimit="10" x1="428.9" y1="209" x2="264.6" y2="295.5"/>
		<line fill="none" stroke="#C4C4C4" stroke-miterlimit="10" x1="264.6" y1="295.5" x2="58.4" y2="266.3"/>
		<line fill="none" stroke="#C4C4C4" stroke-miterlimit="10" x1="264.6" y1="295.5" x2="235" y2="372"/>
		<line fill="none" stroke="#C4C4C4" stroke-miterlimit="10" x1="480.9" y1="280.2" x2="603.3" y2="351.2"/>
		<line fill="none" stroke="#C4C4C4" stroke-miterlimit="10" x1="446.7" y1="397.2" x2="603.3" y2="351.2"/>
		<line fill="none" stroke="#C4C4C4" stroke-miterlimit="10" x1="762.7" y1="395.4" x2="601.8" y2="352.7"/>
		<line fill="none" stroke="#C4C4C4" stroke-miterlimit="10" x1="558.5" y1="126" x2="695" y2="34.8"/>
		<line fill="none" stroke="#C4C4C4" stroke-miterlimit="10" x1="762.9" y1="144.6" x2="861.2" y2="62.1"/>
		<line fill="none" stroke="#C4C4C4" stroke-miterlimit="10" x1="856.7" y1="63.4" x2="1003.6" y2="21.7"/>
		<line fill="none" stroke="#C4C4C4" stroke-miterlimit="10" x1="861.2" y1="62.1" x2="1158.5" y2="81"/>
		<line fill="none" stroke="#C4C4C4" stroke-miterlimit="10" x1="762.9" y1="144.6" x2="999.3" y2="115.4"/>
		<line fill="none" stroke="#C4C4C4" stroke-miterlimit="10" x1="762.9" y1="144.6" x2="983.4" y2="200.5"/>
		<line fill="none" stroke="#C4C4C4" stroke-miterlimit="10" x1="982.7" y1="200.5" x2="1210.5" y2="211.9"/>
		<line fill="none" stroke="#C4C4C4" stroke-miterlimit="10" x1="966.5" y1="319" x2="1063" y2="388.9"/>
		<line fill="none" stroke="#C4C4C4" stroke-miterlimit="10" x1="634" y1="216" x2="762.9" y2="144.6"/>
		<line fill="none" stroke="#C4C4C4" stroke-miterlimit="10" x1="638.7" y1="216" x2="838.1" y2="253.1"/>
		<line fill="none" stroke="#C4C4C4" stroke-miterlimit="10" x1="838.1" y1="253.1" x2="966.5" y2="318.7"/>
		<line fill="none" stroke="#C4C4C4" stroke-miterlimit="10" x1="838.1" y1="253.1" x2="754.8" y2="318.7"/>
		<line fill="none" stroke="#C4C4C4" stroke-miterlimit="10" x1="634" y1="216" x2="428.9" y2="209"/>
		<line fill="none" stroke="#C4C4C4" stroke-miterlimit="10" x1="664.3" y1="221.8" x2="480.9" y2="280.2"/>
	</g>
	<ellipse fill="#968BAF" cx="634" cy="216" rx="98.6" ry="33.3"/>
	<g>
		<ellipse fill="#AD9CAE" cx="762.9" cy="144.8" rx="77.5" ry="26.2"/>
		<ellipse fill="#AD9CAE" cx="838.1" cy="253.1" rx="77.5" ry="26.2"/>
		<ellipse fill="#AD9CAE" cx="428.9" cy="209" rx="77.5" ry="26.2"/>
		<ellipse fill="#AD9CAE" cx="480.9" cy="280.2" rx="77.5" ry="26.2"/>
		<ellipse fill="#AD9CAE" cx="558.5" cy="126" rx="77.5" ry="26.2"/>
	</g>
	<g>
		<ellipse fill="#D7C8C5" cx="328" cy="118.7" rx="65" ry="21.9"/>
		<ellipse fill="#D7C8C5" cx="224.8" cy="194.9" rx="65" ry="21.9"/>
		<ellipse fill="#D7C8C5" cx="264.6" cy="295.5" rx="65" ry="21.9"/>
		<ellipse fill="#D7C8C5" cx="601.8" cy="352.7" rx="65" ry="21.9"/>
		<ellipse fill="#D7C8C5" cx="754.8" cy="318.7" rx="65" ry="21.9"/>
		<ellipse fill="#D7C8C5" cx="966.5" cy="319" rx="65" ry="21.9"/>
		<ellipse fill="#D7C8C5" cx="982.7" cy="200.5" rx="65" ry="21.9"/>
		<ellipse fill="#D7C8C5" cx="999.3" cy="115.4" rx="65" ry="21.9"/>
		<ellipse fill="#D7C8C5" cx="861.2" cy="62.1" rx="65" ry="21.9"/>
		<ellipse fill="#D7C8C5" cx="695" cy="34.8" rx="65" ry="21.9"/>
		<ellipse fill="#D7C8C5" cx="483.7" cy="22.4" rx="65" ry="21.9"/>
	</g>
	<g>
		<g>
			<ellipse fill="#F5D9BB" cx="242.8" cy="19.4" rx="55" ry="18.6"/>
			<ellipse fill="#F5D9BB" cx="99.9" cy="111.4" rx="55" ry="18.6"/>
			<ellipse fill="#F5D9BB" cx="58.4" cy="266.3" rx="55" ry="18.6"/>
			<ellipse fill="#F5D9BB" cx="235" cy="372" rx="55" ry="18.6"/>
			<ellipse fill="#F5D9BB" cx="446.7" cy="397.2" rx="55" ry="18.6"/>
			<ellipse fill="#F5D9BB" cx="762.7" cy="397.2" rx="55" ry="18.6"/>
			<ellipse fill="#F5D9BB" cx="1158.5" cy="81" rx="55" ry="18.6"/>
			<ellipse fill="#F5D9BB" cx="1003.6" cy="21.7" rx="55" ry="18.6"/>
			<ellipse fill="#F5D9BB" cx="1210.5" cy="211.9" rx="55" ry="18.6"/>
			<ellipse fill="#F5D9BB" cx="1063" cy="388.9" rx="55" ry="18.6"/>
			<ellipse fill="#F5D9BB" cx="1158.5" cy="322.9" rx="55" ry="18.6"/>
		</g>
	</g>
</g>
<g id="Layer_2">
</g>
<g id="Layer_3">
</g>
</svg>
