<svg xmlns="http://www.w3.org/2000/svg" width="256" height="256" viewBox="0 0 256 256"><title>icon</title><path d="M121.4,138.2h9.9V149h-9.9Zm0-18.9h9.9V108.5h-9.9ZM57.9,196.5h0L43.1,178.8,28.2,196.5h0v20.9h9.4V204.8H48.8v12.6h9.1V196.6h0ZM244.4,65.8l4.3,6.4-1.6,2.7-.8-1h-.2l-1.4,3.4-6.8,4.4-1.1.3,2.4,8.8-4.8-.8-1.2,1.9,5.3,9h-.1l-.2,3.5-1.1.8-4.4-.4,1.6,1.6.5,5,4.9,4.4h-.8l3.5,5-9.7,19.3-1.5,6.5-6.7,12-.4,12.5,11.5,19.5,7,14,2.1,18.6-13.9-9.8-8.1-13.1-1.2-10.6-11.3-10.1-4.9,5.6-8.1-5.4-8.6-.5-6,1.5-6.7,2.7-.6,7.7-7,3.3-6.7-6.4-2.6,3-10-4-11.4,12.2-9.4,7.3-3.9,10.7,1.5,9.6-12.3-3.5L111.2,211l-10.9-22.9-8.2-.4-3.8,7.1-7.9-7.7-1.6-9.8-7.4-11.2-10.1-1.8-5.7,1L44.1,163,25.3,149.7l1.2-1.7L13,145.8l.4-7.2-3.1-7.3L2,124.8V87.3l2.2-11L10,66.8l1.3-5.7L22,46l3.6-12.9,7.6-.5,2.4-4.8,19.9,5.8,3.6.8,12.7,2.8,31.9,4.5L130,43.1h7.8l5.6,2.8,4.3-.3,5,2.8-2.2,8.2,7.1.7,7.7-4.1,4.9,3.5,9.3-3,4.8,4.7-12.1,1.9-1.8,5.4,1.5,1.9-1,10.5,1.3,5.2,2.1,5.2,3-.6,1.5-8.6-2.6-7.4.9-5.6,6.2-6.6,4,2.3,2.1,6.5,6.1,8.1-2.6,9.5,4.9,1.6,7.9-5.7,2.8-2.6,2.8-4.7,9.6-7.5L219,63.9l4-7,5.9-1.6,7-2.2.9-2.2,1.4-3.4-.6-11.2,6.3.6,4,7.8,5.7,3.7-6.8,9.7-2.6,6.3ZM70.3,97.2h0L55.5,79.4,40.6,97.2h0v20.9H50V105.5H61.2v12.6h9.1V97.2Zm70.9,4.1h0L126.3,83.5l-14.9,17.7h0v56.5h29.8V101.3Zm72,22.7h0l-14.9-17.8L183.4,124h0v20.9h9.5V132.2h11.2v12.7h9.1V124Z"/></svg>