<?xml version="1.0" encoding="utf-8"?>
<!-- Generator: Adobe Illustrator 22.1.0, SVG Export Plug-In . SVG Version: 6.00 Build 0)  -->
<svg version="1.1" id="Layer_1" xmlns="http://www.w3.org/2000/svg" xmlns:xlink="http://www.w3.org/1999/xlink" x="0px" y="0px"
	 viewBox="0 0 1200 1200" style="enable-background:new 0 0 1200 1200;" xml:space="preserve">
<style type="text/css">
	.st0{fill:none;stroke:#DDDDDD;stroke-width:4.677;stroke-miterlimit:10;}
	.st1{fill:none;stroke:#C9C9C9;stroke-width:4.677;stroke-miterlimit:10;}
	.st2{opacity:0.69;fill:#BABABA;enable-background:new    ;}
	.st3{fill:#514361;}
	.st4{font-family:'RobotoMono-Regular';}
	.st5{font-size:35px;}
	.st6{fill:none;stroke:#AFAFAF;stroke-width:4;stroke-linecap:round;stroke-miterlimit:10;stroke-dasharray:0,9.9536;}
	.st7{fill:none;stroke:#6D6D6D;stroke-width:5;stroke-miterlimit:10;}
	.st8{fill:#6D6D6D;}
	.st9{fill:none;stroke:#6D6D6D;stroke-width:4.677;stroke-miterlimit:10;}
	.st10{opacity:0.69;fill:#848484;enable-background:new    ;}
	.st11{fill:#6D6D6D;stroke:#FFFFFF;stroke-miterlimit:10;}
	.st12{font-size:38px;}
	.st13{font-family:'Roboto-Italic';}
	.st14{font-size:29px;}
</style>
<g>
	<circle class="st0" cx="599.3" cy="594" r="432.6"/>
	<circle class="st0" cx="599.3" cy="594" r="345.3"/>
	<circle class="st0" cx="599.3" cy="594" r="260"/>
	<circle class="st1" cx="599.3" cy="594" r="173.5"/>
	<circle class="st1" cx="599.3" cy="594" r="87.2"/>
	<polygon class="st2" points="599.3,420.5 846.6,513.3 752.3,804.2 344.9,943.9 269.2,486.4 	"/>
	<g>
		<g>
			<text transform="matrix(1 0 0 1 750.3233 86.1138)" class="st3 st4 st5">axis and scale</text>
		</g>
	</g>
	<g>
		<g>
			<text transform="matrix(1 0 0 1 659.8718 1098.7582)" class="st3 st4 st5">data point</text>
		</g>
	</g>
	<g>
		<g>
			<text transform="matrix(1 0 0 1 425.879 1098.7576)" class="st3 st4 st5">polygon</text>
		</g>
	</g>
	<g>
		<g>
			<text transform="matrix(1 0 0 1 494.9829 76.0007)" class="st3 st4 st5">variable A</text>
		</g>
	</g>
	<g>
		<g>
			<text transform="matrix(1 0 0 1 994.2267 394.8501)" class="st3 st4 st5">variable B</text>
		</g>
	</g>
	<g>
		<g>
			<text transform="matrix(1 0 0 1 5.2427 394.8501)" class="st3 st4 st5">variable E</text>
		</g>
	</g>
	<g>
		<g>
			<text transform="matrix(1 0 0 1 918.0708 1021.6973)" class="st3 st4 st5">variable C</text>
		</g>
	</g>
	<g>
		<g>
			<text transform="matrix(1 0 0 1 66.6313 1021.6973)" class="st3 st4 st5">variable D</text>
		</g>
	</g>
	<line class="st6" x1="752.1" y1="1062.6" x2="752.3" y2="804.2"/>
	<g>
		<g>
			<line class="st7" x1="599.3" y1="593.6" x2="599.3" y2="134.4"/>
			<g>
				<polygon class="st8" points="618,139.9 599.3,107.6 580.7,139.9 				"/>
			</g>
		</g>
	</g>
	<g>
		<g>
			<line class="st7" x1="599.3" y1="593.6" x2="162.6" y2="451.7"/>
			<g>
				<polygon class="st8" points="173.6,435.7 137.1,443.4 162.1,471.2 				"/>
			</g>
		</g>
	</g>
	<g>
		<g>
			<line class="st7" x1="599.3" y1="593.6" x2="329.4" y2="965.1"/>
			<g>
				<polygon class="st8" points="317.6,949.7 313.7,986.8 347.7,971.7 				"/>
			</g>
		</g>
	</g>
	<g>
		<g>
			<line class="st7" x1="599.3" y1="593.6" x2="869.3" y2="965.1"/>
			<g>
				<polygon class="st8" points="851,971.7 885,986.8 881.1,949.7 				"/>
			</g>
		</g>
	</g>
	<g>
		<g>
			<line class="st7" x1="599.3" y1="593.6" x2="1036.1" y2="451.7"/>
			<g>
				<polygon class="st8" points="1036.6,471.2 1061.6,443.4 1025.1,435.7 				"/>
			</g>
		</g>
	</g>
	<line class="st9" x1="584.5" y1="334" x2="614.2" y2="334"/>
	<line class="st9" x1="584.5" y1="248.7" x2="614.2" y2="248.7"/>
	<line class="st9" x1="584.5" y1="159.9" x2="614.2" y2="159.9"/>
	<line class="st9" x1="584.5" y1="506.8" x2="614.2" y2="506.8"/>
	<circle class="st8" cx="846.6" cy="513.3" r="10.7"/>
	<circle class="st8" cx="599.3" cy="421" r="10.7"/>
	<circle class="st8" cx="272" cy="488.8" r="10.7"/>
	<circle class="st8" cx="345.8" cy="942.3" r="10.7"/>
	<circle class="st8" cx="752.9" cy="804.3" r="10.7"/>
	<line class="st6" x1="494.1" y1="1062.6" x2="494.1" y2="881.7"/>
	<polyline class="st6" points="614,207 938.1,207 938.1,149 	"/>
</g>
<polygon class="st10" points="599.3,334 765.6,539.1 752.3,804.2 492.6,735.6 187.9,459.9 "/>
<g>
	<text transform="matrix(1 0 0 1 634.2227 431.709)" class="st11 st4 st12">4</text>
</g>
<g>
	<text transform="matrix(1 0 0 1 634.2227 348.0508)" class="st11 st4 st12">6</text>
</g>
<g>
	<text transform="matrix(1 0 0 1 634.2227 261.5547)" class="st11 st4 st12">8</text>
</g>
<g>
	<text transform="matrix(1 0 0 1 634.2227 177.3691)" class="st11 st4 st12">10</text>
</g>
<g>
	<text transform="matrix(1 0 0 1 634.2227 525.4766)" class="st11 st4 st12">2</text>
</g>
<text transform="matrix(1 0 0 1 755.5184 129.0504)" class="st3 st13 st14">all axes positioned at equal angles   </text>
<circle class="st8" cx="599.9" cy="334.3" r="10.7"/>
<circle class="st8" cx="186.6" cy="458.4" r="10.7"/>
<circle class="st8" cx="764.1" cy="539.4" r="10.7"/>
<circle class="st8" cx="493.7" cy="736" r="10.7"/>
</svg>
