<?xml version="1.0" encoding="utf-8"?>
<!-- Generator: Adobe Illustrator 19.2.0, SVG Export Plug-In . SVG Version: 6.00 Build 0)  -->
<svg version="1.1" id="Layer_1" xmlns="http://www.w3.org/2000/svg" xmlns:xlink="http://www.w3.org/1999/xlink" x="0px" y="0px"
	 width="1200px" height="1200px" viewBox="0 0 1200 1200" enable-background="new 0 0 1200 1200" xml:space="preserve">
<g>
	<circle fill="none" stroke="#C9C9C9" stroke-width="4.677" stroke-miterlimit="10" cx="599.35" cy="593.987" r="432.62"/>
	<circle fill="none" stroke="#C9C9C9" stroke-width="4.677" stroke-miterlimit="10" cx="599.35" cy="593.987" r="345.264"/>
	<circle fill="none" stroke="#C9C9C9" stroke-width="4.677" stroke-miterlimit="10" cx="599.35" cy="593.987" r="259.988"/>
	<circle fill="none" stroke="#C9C9C9" stroke-width="4.677" stroke-miterlimit="10" cx="599.35" cy="593.987" r="173.471"/>
	<circle fill="none" stroke="#C9C9C9" stroke-width="4.677" stroke-miterlimit="10" cx="599.35" cy="593.987" r="87.155"/>
	<polygon opacity="0.69" fill="#7581BA" points="599.35,420.516 846.556,513.307 752.337,804.198 344.881,943.875 269.187,486.352 	
		"/>
	<g>
		<text transform="matrix(1 0 0 1 685.4692 52.4238)" fill="#7F7F7F" font-family="'Roboto-Regular'" font-size="65px">axis and scale</text>
	</g>
	<g>
		<text transform="matrix(1 0 0 1 611.418 1184.2539)" fill="#7F7F7F" font-family="'Roboto-Regular'" font-size="65px">data point</text>
	</g>
	<g>
		<text transform="matrix(1 0 0 1 272.2432 1184.2559)" fill="#7F7F7F" font-family="'Roboto-Regular'" font-size="65px">polygon</text>
	</g>
	<g>
		<text transform="matrix(1 0 0 1 336.6602 132.2012)" fill="#37246D" font-family="'Roboto-Regular'" font-size="46.7698px">variable A</text>
	</g>
	<g>
		<text transform="matrix(1 0 0 1 994.2271 364.8516)" fill="#37246D" font-family="'Roboto-Regular'" font-size="46.7698px">variable B</text>
	</g>
	<g>
		<text transform="matrix(1 0 0 1 5.2427 364.8516)" fill="#37246D" font-family="'Roboto-Regular'" font-size="46.7698px">variable E</text>
	</g>
	<g>
		<text transform="matrix(1 0 0 1 918.0708 974.6973)" fill="#37246D" font-family="'Roboto-Regular'" font-size="46.7698px">variable C</text>
	</g>
	<g>
		<text transform="matrix(1 0 0 1 66.6313 974.6973)" fill="#37246D" font-family="'Roboto-Regular'" font-size="46.7698px">variable D</text>
	</g>
	<line fill="none" stroke="#AFAFAF" stroke-width="8" stroke-miterlimit="10" x1="752" y1="1114" x2="752" y2="841"/>
	<g>
		<g>
			
				<line fill="none" stroke="#37246D" stroke-width="9.354" stroke-miterlimit="10" x1="599.35" y1="593.629" x2="599.35" y2="134.432"/>
			<g>
				<polygon fill="#37246D" points="618.007,139.891 599.35,107.582 580.693,139.891 				"/>
			</g>
		</g>
	</g>
	<g>
		<g>
			
				<line fill="none" stroke="#37246D" stroke-width="9.354" stroke-miterlimit="10" x1="599.35" y1="593.629" x2="162.627" y2="451.729"/>
			<g>
				<polygon fill="#37246D" points="173.584,435.672 137.091,443.432 162.054,471.16 				"/>
			</g>
		</g>
	</g>
	<g>
		<g>
			
				<line fill="none" stroke="#37246D" stroke-width="9.354" stroke-miterlimit="10" x1="599.35" y1="593.629" x2="329.441" y2="965.127"/>
			<g>
				<polygon fill="#37246D" points="317.556,949.745 313.658,986.85 347.743,971.677 				"/>
			</g>
		</g>
	</g>
	<g>
		<g>
			
				<line fill="none" stroke="#37246D" stroke-width="9.354" stroke-miterlimit="10" x1="599.35" y1="593.629" x2="869.259" y2="965.127"/>
			<g>
				<polygon fill="#37246D" points="850.957,971.677 885.041,986.85 881.144,949.745 				"/>
			</g>
		</g>
	</g>
	<g>
		<g>
			
				<line fill="none" stroke="#37246D" stroke-width="9.354" stroke-miterlimit="10" x1="599.35" y1="593.629" x2="1036.072" y2="451.729"/>
			<g>
				<polygon fill="#37246D" points="1036.646,471.16 1061.608,443.432 1025.115,435.672 				"/>
			</g>
		</g>
	</g>
	
		<line fill="none" stroke="#37246D" stroke-width="4.677" stroke-miterlimit="10" x1="584.525" y1="333.999" x2="614.174" y2="333.999"/>
	
		<line fill="none" stroke="#37246D" stroke-width="4.677" stroke-miterlimit="10" x1="584.525" y1="248.723" x2="614.174" y2="248.723"/>
	
		<line fill="none" stroke="#37246D" stroke-width="4.677" stroke-miterlimit="10" x1="584.525" y1="159.86" x2="614.174" y2="159.86"/>
	<g>
		<text transform="matrix(1 0 0 1 634.2227 431.709)" fill="#37246D" font-family="'Roboto-Medium'" font-size="46.7698px">4</text>
	</g>
	<g>
		<text transform="matrix(1 0 0 1 634.2227 348.0508)" fill="#37246D" font-family="'Roboto-Medium'" font-size="46.7698px">6</text>
	</g>
	<g>
		<text transform="matrix(1 0 0 1 634.2227 261.5547)" fill="#37246D" font-family="'Roboto-Medium'" font-size="46.7698px">8</text>
	</g>
	<g>
		<text transform="matrix(1 0 0 1 634.2227 177.3691)" fill="#37246D" font-family="'Roboto-Medium'" font-size="46.7698px">10</text>
	</g>
	<g>
		<text transform="matrix(1 0 0 1 634.2227 525.4766)" fill="#37246D" font-family="'Roboto-Medium'" font-size="46.7698px">2</text>
	</g>
	
		<line fill="none" stroke="#37246D" stroke-width="4.677" stroke-miterlimit="10" x1="584.525" y1="506.832" x2="614.174" y2="506.832"/>
	<circle fill="#37246D" cx="846.556" cy="513.307" r="10.725"/>
	<circle fill="#37246D" cx="599.35" cy="420.983" r="10.725"/>
	<circle fill="#37246D" cx="271.96" cy="488.799" r="10.725"/>
	<circle fill="#37246D" cx="345.824" cy="942.319" r="10.725"/>
	<circle fill="#37246D" cx="752.921" cy="804.349" r="10.725"/>
	<line fill="none" stroke="#AFAFAF" stroke-width="8" stroke-miterlimit="10" x1="457" y1="1114" x2="457" y2="841"/>
	<circle fill="#FFFFFF" cx="456.504" cy="840.928" r="10.725"/>
	<polyline fill="none" stroke="#AFAFAF" stroke-width="8" stroke-miterlimit="10" points="614,207 885,207 885,91 	"/>
	<g>
		<polygon fill="#FFFFFF" points="461,904 453,907 453,841 461,841 		"/>
	</g>
</g>
</svg>
