<?xml version="1.0" encoding="utf-8"?>
<!-- Generator: Adobe Illustrator 24.0.1, SVG Export Plug-In . SVG Version: 6.00 Build 0)  -->
<svg version="1.1" id="Layer_1" xmlns="http://www.w3.org/2000/svg" xmlns:xlink="http://www.w3.org/1999/xlink" x="0px" y="0px"
	 viewBox="0 0 1268 418" style="enable-background:new 0 0 1268 418;" xml:space="preserve">
<style type="text/css">
	.st0{fill:none;stroke:#CCCCCC;stroke-width:1.2569;stroke-linecap:round;stroke-linejoin:round;}
	.st1{fill:#CCCCCC;}
	.st2{font-family:'RobotoMono-Regular';}
	.st3{font-size:18px;}
	.st4{fill:#C4C5D1;stroke:#A39CB9;stroke-width:3;stroke-linecap:round;stroke-linejoin:round;}
	.st5{fill:#B5AEC7;stroke:#A39CB9;stroke-width:3;stroke-linecap:round;stroke-linejoin:round;}
	.st6{fill:#B5AEC7;stroke:#A39CB9;stroke-width:2.792;stroke-linecap:round;stroke-linejoin:round;}
	.st7{fill:none;stroke:#A39CB9;stroke-width:3;stroke-linecap:round;stroke-linejoin:round;}
	.st8{fill:#FFFFFF;stroke:#A39CB9;stroke-width:3;stroke-linecap:round;stroke-linejoin:round;}
	.st9{fill:#C4C5D1;}
</style>
<title>hdr-box-plot-01</title>
<path class="st0" d="M54.2,373.1H1261V6H54.2V373.1z"/>
<g>
	<path class="st0" d="M54.2,52h-13"/>
	<path class="st0" d="M54.2,238.2h-13"/>
	<path class="st0" d="M54.2,331.3h-13"/>
	<path class="st0" d="M54.2,145.1h-13"/>
	<text transform="matrix(6.123234e-17 -1 1 6.123234e-17 33.3545 248.9648)" class="st1 st2 st3">20</text>
	<text transform="matrix(6.123234e-17 -1 1 6.123234e-17 33.3545 62.1909)" class="st1 st2 st3">40</text>
	<text transform="matrix(6.123234e-17 -1 1 6.123234e-17 33.3545 155.5781)" class="st1 st2 st3">30</text>
	<text transform="matrix(6.123234e-17 -1 1 6.123234e-17 33.3545 342.3496)" class="st1 st2 st3">10</text>
</g>
<g>
	<path class="st0" d="M140,374v13"/>
	<text transform="matrix(1 0 0 1 119.6279 408.8691)" class="st1 st2 st3">jun</text>
	<rect x="94.4" y="323.5" class="st4" width="88.1" height="26.8"/>
	<rect x="94.4" y="99" class="st4" width="88.1" height="203.7"/>
	<rect x="94.4" y="263" class="st5" width="88.1" height="21.5"/>
	<rect x="94.4" y="179.5" class="st6" width="88.1" height="67.5"/>
	<line class="st7" x1="76.8" y1="216.4" x2="200.2" y2="216.4"/>
	<circle class="st8" cx="134.2" cy="41.3" r="7.7"/>
</g>
<g>
	<path class="st0" d="M1180,374v13"/>
	<text transform="matrix(1 0 0 1 1159.6279 408.8691)" class="st1 st2 st3">dec</text>
	<rect x="1134.4" y="224.5" class="st4" width="88.1" height="10.8"/>
	<rect x="1134.4" y="99" class="st4" width="88.1" height="113.7"/>
	<rect x="1134.4" y="182" class="st5" width="88.1" height="21.5"/>
	<rect x="1134.4" y="124.5" class="st5" width="88.1" height="39"/>
	<line class="st7" x1="1116.8" y1="145.4" x2="1240.2" y2="145.4"/>
	<circle class="st8" cx="1174.2" cy="75.3" r="7.7"/>
</g>
<g>
	<path class="st0" d="M657.6,374v13"/>
	<text transform="matrix(1 0 0 1 637.2372 408.8691)" class="st1 st2 st3">sep</text>
	<rect x="614.5" y="245.2" class="st9" width="88.1" height="103.3"/>
	<rect x="614.5" y="245.2" class="st7" width="88.1" height="103.3"/>
	<rect x="614.5" y="108.3" class="st9" width="88.1" height="104.5"/>
	<rect x="614.5" y="108.3" class="st7" width="88.1" height="104.5"/>
	<rect x="614.5" y="280.6" class="st5" width="88.1" height="34.3"/>
	<rect x="614.5" y="142.6" class="st5" width="88.1" height="34.1"/>
	<line class="st7" x1="596.8" y1="161" x2="720.2" y2="161"/>
	<circle class="st8" cx="659" cy="76.6" r="7.7"/>
</g>
<g>
	<path class="st0" d="M312.4,374v13"/>
	<text transform="matrix(1 0 0 1 292.0814 408.8691)" class="st1 st2 st3">jul</text>
	<rect x="267.7" y="162.1" class="st9" width="88.2" height="147.9"/>
	<rect x="267.7" y="162.1" class="st7" width="88.2" height="147.9"/>
	<rect x="267.7" y="91.2" class="st9" width="88.2" height="40.7"/>
	<rect x="267.7" y="91.2" class="st7" width="88.2" height="40.7"/>
	<rect x="267.7" y="22.1" class="st9" width="88.2" height="33.3"/>
	<rect x="267.7" y="22.1" class="st7" width="88.2" height="33.3"/>
	<rect x="267.7" y="202.2" class="st5" width="88.2" height="59.3"/>
	<line class="st7" x1="250.1" y1="238.4" x2="373.5" y2="238.4"/>
	<circle class="st8" cx="311.8" cy="21" r="7.7"/>
</g>
<g>
	<path class="st0" d="M1005.8,374v13"/>
	<text transform="matrix(1 0 0 1 985.4147 408.8691)" class="st1 st2 st3">npv</text>
	<rect x="961" y="162.1" class="st9" width="88.2" height="147.9"/>
	<rect x="961" y="162.1" class="st7" width="88.2" height="147.9"/>
	<rect x="961" y="91.2" class="st9" width="88.2" height="40.7"/>
	<rect x="961" y="91.2" class="st7" width="88.2" height="40.7"/>
	<rect x="961" y="33.1" class="st9" width="88.2" height="33.3"/>
	<rect x="961" y="33.1" class="st7" width="88.2" height="33.3"/>
	<rect x="961" y="202.2" class="st5" width="88.2" height="59.3"/>
	<line class="st7" x1="943.4" y1="238.4" x2="1066.9" y2="238.4"/>
	<circle class="st8" cx="1005.1" cy="32" r="7.7"/>
</g>
<g>
	<path class="st0" d="M485.1,374v13"/>
	<text transform="matrix(1 0 0 1 464.7856 408.8691)" class="st1 st2 st3">aug</text>
	<rect x="441.2" y="79.6" class="st4" width="88.2" height="243.4"/>
	<rect x="441.2" y="45.8" class="st9" width="88.2" height="7.9"/>
	<rect x="441.2" y="45.8" class="st7" width="88.2" height="7.9"/>
	<rect x="441.2" y="204" class="st5" width="88.2" height="74.4"/>
	<line class="st7" x1="423.4" y1="231.2" x2="546.9" y2="231.2"/>
	<circle class="st8" cx="483.8" cy="349.1" r="7.7"/>
</g>
<g>
	<path class="st0" d="M831.8,374v13"/>
	<text transform="matrix(1 0 0 1 811.4523 408.8691)" class="st1 st2 st3">aug</text>
	<rect x="787.8" y="137" class="st4" width="88.2" height="186"/>
	<rect x="787.8" y="105" class="st9" width="88.2" height="12.7"/>
	<rect x="787.8" y="105" class="st7" width="88.2" height="12.7"/>
	<rect x="787.8" y="187" class="st5" width="88.2" height="91.4"/>
	<line class="st7" x1="770.1" y1="231.2" x2="893.5" y2="231.2"/>
	<circle class="st8" cx="830.4" cy="349.1" r="7.7"/>
</g>
</svg>
