<svg height="256" viewBox="0 0 256 256" width="256" xmlns="http://www.w3.org/2000/svg"><path d="m108.9 216h-45.7a1.9 1.9 0 0 1 -1.9-1.9v-13.9a1.8 1.8 0 0 1 1.9-1.9h45.7a1.8 1.8 0 0 1 1.8 1.9v13.9a1.9 1.9 0 0 1 -1.8 1.9zm-43.9-3.7h42v-10.3h-42zm43.9-21.1h-45.7a1.9 1.9 0 0 1 -1.9-1.9v-106.1a1.8 1.8 0 0 1 1.9-1.9h45.7a1.8 1.8 0 0 1 1.8 1.9v106.1a1.9 1.9 0 0 1 -1.8 1.9zm-43.9-3.7h42v-102.5h-42zm43.9-6.8h-45.7a.9.9 0 0 1 -.9-.9v-11.2a.9.9 0 0 1 .9-.8h45.7a.9.9 0 0 1 .8.8v11.2a.9.9 0 0 1 -.8.9zm-44.9-1.7h44.1v-9.5h-44.1zm44.9-12.5h-45.7a.8.8 0 0 1 -.9-.8v-40.6a.8.8 0 0 1 .9-.8h45.7a.8.8 0 0 1 .8.8v40.6a.8.8 0 0 1 -.8.8zm-44.9-1.6h44.1v-39h-44.1zm54.9-20.6a.9.9 0 0 0 -.8-.8h-64.1a.9.9 0 0 0 -.8.8.9.9 0 0 0 .8.9h64.1a.9.9 0 0 0 .8-.9zm82 49.3h-46.7v-78h46.7zm-45.8-.9h44.9v-76.2h-44.9zm45.4 2.3h-45.8a2 2 0 0 1 -1.9-1.9v-77.1a1.9 1.9 0 0 1 1.9-1.8h45.8a1.8 1.8 0 0 1 1.8 1.8v77.1a1.9 1.9 0 0 1 -1.8 1.9zm-44-3.7h42.1v-73.4h-42.1zm44.4-90.5h-46.7v-22.2h46.7zm-45.8-.9h44.9v-20.3h-44.9zm45.4 2.3h-45.8a2 2 0 0 1 -1.9-1.9v-21.2a1.9 1.9 0 0 1 1.9-1.8h45.8a1.8 1.8 0 0 1 1.8 1.8v21.2a1.9 1.9 0 0 1 -1.8 1.9zm-44-3.7h42.1v-17.6h-42.1zm44.4-37.6h-46.7v-18.3h46.7zm-45.8-.9h44.9v-16.5h-44.9zm45.4 2.3h-45.8a1.9 1.9 0 0 1 -1.9-1.9v-17.3a1.9 1.9 0 0 1 1.9-1.9h45.8a1.8 1.8 0 0 1 1.8 1.9v17.3a1.8 1.8 0 0 1 -1.8 1.9zm-44-3.7h42.1v-13.7h-42.1zm44 110.1h-45.8a.8.8 0 0 1 -.8-.8v-31a.8.8 0 0 1 .8-.8h45.8a.9.9 0 0 1 .8.8v31a.9.9 0 0 1 -.8.8zm-45-1.7h44.1v-29.2h-44.1zm54.9-11.2a.9.9 0 0 0 -.8-.8h-64.1a.9.9 0 0 0 -.8.8.8.8 0 0 0 .8.8h64.1a.8.8 0 0 0 .8-.8zm-123.8-98a4.7 4.7 0 1 1 4.7-4.7 4.7 4.7 0 0 1 -4.7 4.7zm91-24.4a4.8 4.8 0 0 1 -4.7-4.8 4.7 4.7 0 0 1 9.4 0 4.8 4.8 0 0 1 -4.7 4.8zm60.4 199h-202.4v-211.4h-4.6v216h207z"/></svg>