<svg height="256" viewBox="0 0 256 256" width="256" xmlns="http://www.w3.org/2000/svg"><path d="m106.9 70.7-3.5-8.6a71 71 0 0 1 22.8-4.4v21.1c-4.8-.3-9.1.4-14.9 2.3zm-11.6 20.3h.1a49.7 49.7 0 0 1 11.9-7.5h.1c-5.4-13.6-17-42.2-22.4-55.5a109.2 109.2 0 0 0 -30.4 19.4zm-11.6 14.3a.5.5 0 0 0 .2-.4 57.1 57.1 0 0 1 8.2-10.9h.1c-6.2-6.7-24.9-26.9-30.7-33a94.4 94.4 0 0 0 -18.3 24.7l40.5 19.7zm-5.7 17.6a50.2 50.2 0 0 1 3.8-13.6l-68.8-33.6a127.3 127.3 0 0 0 -11.3 40.6l76.3 6.7zm-.4 5.2v-.8l-21-1.9a75.3 75.3 0 0 0 2.1 21.9l20.3-5.8a49.7 49.7 0 0 1 -1.4-13.4zm9.5 31h-.1a51.6 51.6 0 0 1 -6.8-13.3c-10.6 3.1-32.7 9.3-43.3 12.2a94.6 94.6 0 0 0 14.7 28.8zm13.3 12.9h-.1a54.4 54.4 0 0 1 -10.5-9.3h-.1c-8.4 6.3-39.6 30.8-47 36.5a108.1 108.1 0 0 0 27 23.9c7.1-12 23.5-39.2 30.7-51.1zm16.9 7.1a50 50 0 0 1 -13.3-4.8l-16.6 27.5a82.3 82.3 0 0 0 24.5 9.1c1.4-7.9 4.1-23.7 5.5-31.7zm18.5.7a82.9 82.9 0 0 1 -14.2.2l-2 11.3a63.7 63.7 0 0 0 18.5-.2l-2.2-11.2zm51.5 48.1-33.9-54.2c-3.7 1.8-8 4.2-13.3 5 2 10.5 12.4 63.8 14.6 75.1a123 123 0 0 0 39.3-15.2zm-19.7-66.1h-.1a51.2 51.2 0 0 1 -10.4 9.5h-.1l31.7 50.6a113.9 113.9 0 0 0 26.5-24.4zm9.2-16.9a53.8 53.8 0 0 1 -6.5 13.3v.2l25.7 19.4a84.4 84.4 0 0 0 12-24.7l-31.1-8.4zm2.2-18.5a.4.4 0 0 0 .1.3c-.1.4.2 4.7-.1 5.8s-.3 3.5-.5 5.4h-.1a17.8 17.8 0 0 0 -.4 2.6l57.7 15.5a114.4 114.4 0 0 0 2.8-36zm-4.4-17.9a.5.5 0 0 0 .2.4 53.8 53.8 0 0 1 3.8 13c3-.2 71.4-7.5 76.1-8a127.1 127.1 0 0 0 -11.9-40.4l-68.3 34.7zm19.4-48.7-30.1 33.5h.1a50.6 50.6 0 0 1 8.5 11.1l40.2-20.4a95.7 95.7 0 0 0 -18.7-24.2zm-45.5 23.1a43.8 43.8 0 0 1 12.1 7.3h.1l39.9-44.3a109.2 109.2 0 0 0 -30.7-18.9zm-6.7-2.3c.5 0 1.3.7 2.7.7 3.1-8.2 25.2-65.3 27.5-71.4a127.5 127.5 0 0 0 -41.5-7.6v76.5c3.1.3 7.4.3 11.3 1.8z"/></svg>