<?xml version="1.0" encoding="utf-8"?>
<!-- Generator: Adobe Illustrator 22.1.0, SVG Export Plug-In . SVG Version: 6.00 Build 0)  -->
<svg version="1.1" id="Layer_1" xmlns="http://www.w3.org/2000/svg" xmlns:xlink="http://www.w3.org/1999/xlink" x="0px" y="0px"
	 viewBox="0 0 1000 333" style="enable-background:new 0 0 1000 333;" xml:space="preserve">
<style type="text/css">
	.st0{fill:none;stroke:#A1A0AF;stroke-miterlimit:10;}
	.st1{fill:#6B657F;}
</style>
<g id="Layer_2_1_">
	<path class="st0" d="M426.1,194.9"/>
	<path class="st0" d="M412.6,121.5"/>
	<line class="st0" x1="362.4" y1="188.2" x2="426.1" y2="194.9"/>
	<line class="st0" x1="467.3" y1="155.2" x2="426.8" y2="195.7"/>
	<line class="st0" x1="426.1" y1="194.9" x2="414.1" y2="248.9"/>
</g>
<g id="Layer_1_1_">
	<line class="st0" x1="334.8" y1="308.4" x2="414.8" y2="249.3"/>
	<path class="st0" d="M413.3,20.4"/>
	<path class="st0" d="M413.3,123"/>
	<line class="st0" x1="413.3" y1="122.3" x2="467.3" y2="155.2"/>
	<line class="st0" x1="548.2" y1="98.3" x2="467.3" y2="155.2"/>
	<line class="st0" x1="467.3" y1="155.2" x2="413.3" y2="20.4"/>
	<line class="st0" x1="414.1" y1="248.8" x2="360.1" y2="242.9"/>
	<line class="st0" x1="362.4" y1="188.2" x2="359.4" y2="243.6"/>
	<line class="st0" x1="362.4" y1="188.2" x2="290.5" y2="131.2"/>
	<g>
		<circle class="st1" cx="426.8" cy="195.7" r="12.7"/>
	</g>
	<g>
		<circle class="st1" cx="362.4" cy="188.2" r="12.7"/>
	</g>
	<g>
		<circle class="st1" cx="414.8" cy="249.6" r="12.7"/>
	</g>
	<g>
		<circle class="st1" cx="467.3" cy="155.2" r="12.7"/>
	</g>
	<g>
		<circle class="st1" cx="413.3" cy="122.3" r="12.7"/>
	</g>
	<g>
		<circle class="st1" cx="413.3" cy="20.4" r="12.7"/>
	</g>
	<line class="st0" x1="274.7" y1="25.6" x2="288.2" y2="130.5"/>
	<line class="st0" x1="224.6" y1="123.8" x2="288.2" y2="130.5"/>
	<line class="st0" x1="329.4" y1="90.8" x2="289" y2="131.2"/>
	<line class="st0" x1="365.4" y1="131.2" x2="289.7" y2="131.2"/>
	<g>
		<circle class="st1" cx="289" cy="131.2" r="12.7"/>
	</g>
	<g>
		<circle class="st1" cx="224.6" cy="123.8" r="12.7"/>
	</g>
	<g>
		<circle class="st1" cx="365.4" cy="131.2" r="12.7"/>
	</g>
	<g>
		<circle class="st1" cx="329.4" cy="90.8" r="12.7"/>
	</g>
	<g>
		<circle class="st1" cx="275.5" cy="26.4" r="12.7"/>
	</g>
	<line class="st0" x1="177.8" y1="291" x2="146.9" y2="223.1"/>
	<line class="st0" x1="210.3" y1="214.1" x2="146.9" y2="223.1"/>
	<line class="st0" x1="116.6" y1="271.6" x2="145.9" y2="222.5"/>
	<line class="st0" x1="146.9" y1="223.1" x2="145.4" y2="167.8"/>
	<line class="st0" x1="71.8" y1="241.1" x2="145.2" y2="222.7"/>
	<line class="st0" x1="210.3" y1="214.1" x2="293.9" y2="251.8"/>
	<g>
		<circle class="st1" cx="145.9" cy="222.5" r="12.7"/>
	</g>
	<g>
		<circle class="st1" cx="210.3" cy="214.1" r="12.7"/>
	</g>
	<g>
		<circle class="st1" cx="144.4" cy="167.3" r="12.7"/>
	</g>
	<g>
		<circle class="st1" cx="71.8" cy="241.1" r="12.7"/>
	</g>
	<g>
		
			<ellipse transform="matrix(0.9951 -9.853765e-02 9.853765e-02 0.9951 -26.1954 12.8113)" class="st1" cx="116.6" cy="271.6" rx="12.7" ry="12.7"/>
	</g>
	<g>
		<circle class="st1" cx="176.9" cy="290.5" r="12.7"/>
	</g>
	<line class="st0" x1="359.6" y1="243.1" x2="296.2" y2="252"/>
	<line class="st0" x1="265.9" y1="300.6" x2="295.3" y2="251.5"/>
	<line class="st0" x1="221.2" y1="270.1" x2="294.6" y2="251.7"/>
	<g>
		<circle class="st1" cx="295.3" cy="251.5" r="12.7"/>
	</g>
	<g>
		<circle class="st1" cx="359.6" cy="243.1" r="12.7"/>
	</g>
	<g>
		<circle class="st1" cx="221.2" cy="270.1" r="12.7"/>
	</g>
	<g>
		<circle class="st1" cx="265.9" cy="300.6" r="12.7"/>
	</g>
	<g>
		<circle class="st1" cx="333.9" cy="307.9" r="12.7"/>
	</g>
	<line class="st0" x1="688" y1="90.9" x2="605.4" y2="90.6"/>
	<line class="st0" x1="548.7" y1="98.3" x2="605.3" y2="89.6"/>
	<line class="st0" x1="605.4" y1="90.6" x2="647" y2="24.3"/>
	<line class="st0" x1="543.7" y1="44.4" x2="604.7" y2="89.2"/>
	<path class="st0" d="M688,90.9"/>
	<line class="st0" x1="743.9" y1="121.5" x2="677" y2="222.2"/>
	<g>
		<circle class="st1" cx="605.3" cy="89.6" r="12.7"/>
	</g>
	<g>
		<circle class="st1" cx="646.9" cy="23.2" r="12.7"/>
	</g>
	<g>
		<circle class="st1" cx="543.7" cy="44.4" r="12.7"/>
	</g>
	<g>
		<circle class="st1" cx="548.7" cy="98.3" r="12.7"/>
	</g>
	<line class="st0" x1="627.2" y1="316.7" x2="678.4" y2="224.2"/>
	<line class="st0" x1="725.7" y1="267.3" x2="678.4" y2="224.2"/>
	<line class="st0" x1="621.7" y1="231.8" x2="678.2" y2="223.1"/>
	<line class="st0" x1="616.6" y1="177.9" x2="677.6" y2="222.7"/>
	<g>
		<circle class="st1" cx="678.2" cy="223.1" r="12.7"/>
	</g>
	<g>
		<circle class="st1" cx="725.7" cy="267.3" r="12.7"/>
	</g>
	<g>
		<circle class="st1" cx="616.6" cy="177.9" r="12.7"/>
	</g>
	<g>
		<circle class="st1" cx="621.7" cy="231.8" r="12.7"/>
	</g>
	<g>
		<circle class="st1" cx="627" cy="315.6" r="12.7"/>
	</g>
	<line class="st0" x1="862.4" y1="160.2" x2="847.1" y2="233.2"/>
	<line class="st0" x1="790.7" y1="202.9" x2="847.1" y2="233.3"/>
	<line class="st0" x1="900.3" y1="212.1" x2="847.5" y2="234.2"/>
	<line class="st0" x1="847.1" y1="233.2" x2="815.6" y2="278.6"/>
	<line class="st0" x1="932.3" y1="296.1" x2="848.2" y2="234.5"/>
	<line class="st0" x1="790.7" y1="202.9" x2="745.7" y2="123"/>
	<g>
		<circle class="st1" cx="847.5" cy="234.2" r="12.7"/>
	</g>
	<g>
		<circle class="st1" cx="790.7" cy="202.9" r="12.7"/>
	</g>
	<g>
		<circle class="st1" cx="816" cy="279.6" r="12.7"/>
	</g>
	<g>
		<circle class="st1" cx="932.3" cy="296.1" r="12.7"/>
	</g>
	<g>
		<circle class="st1" cx="900.3" cy="212.1" r="12.7"/>
	</g>
	<g>
		<circle class="st1" cx="862.8" cy="161.2" r="12.7"/>
	</g>
	<line class="st0" x1="771.1" y1="19.3" x2="743.9" y2="121.5"/>
	<line class="st0" x1="687.5" y1="91.2" x2="743.9" y2="121.5"/>
	<line class="st0" x1="797" y1="100.3" x2="744.3" y2="122.5"/>
	<line class="st0" x1="815" y1="151.4" x2="745" y2="122.8"/>
	<g>
		<circle class="st1" cx="744.3" cy="122.5" r="12.7"/>
	</g>
	<g>
		<circle class="st1" cx="687.5" cy="91.2" r="12.7"/>
	</g>
	<g>
		<circle class="st1" cx="815" cy="151.4" r="12.7"/>
	</g>
	<g>
		<circle class="st1" cx="797" cy="100.3" r="12.7"/>
	</g>
	<g>
		<circle class="st1" cx="771.5" cy="20.3" r="12.7"/>
	</g>
</g>
</svg>
