<?xml version="1.0" encoding="utf-8"?>
<!-- Generator: Adobe Illustrator 22.1.0, SVG Export Plug-In . SVG Version: 6.00 Build 0)  -->
<svg version="1.1" id="Layer_1" xmlns="http://www.w3.org/2000/svg" xmlns:xlink="http://www.w3.org/1999/xlink" x="0px" y="0px"
	 viewBox="0 0 256 256" style="enable-background:new 0 0 256 256;" xml:space="preserve">
<path d="M228.6,195.4l-2.3-64c12-2.1,21.1-12.5,21.1-25.1c0-14.1-11.4-25.5-25.5-25.5c-14.1,0-25.5,11.4-25.5,25.5
	c0,4.1,1,8,2.7,11.4l-16,11l-41.3-81.3c6.6-4.6,11-12.3,11-20.9c0-14.1-11.4-25.5-25.5-25.5c-14.1,0-25.5,11.4-25.5,25.5
	c0,2.9,0.5,5.8,1.4,8.4l-54.7,28C43.8,56.4,36.2,52,27.5,52C13.4,52,2,63.5,2,77.6c0,14.1,11.4,25.5,25.5,25.5
	c8.2,0,15.4-3.8,20.1-9.8l51,26.7c-1,2.7-1.5,5.6-1.5,8.6c0,6.8,2.7,13,7.1,17.6l-48.6,61.3c-3.8-2.2-8.2-3.5-13-3.5
	c-14.1,0-25.5,11.4-25.5,25.5c0,14.1,11.4,25.5,25.5,25.5c13.3,0,24.3-10.2,25.4-23.2l132.9-6.3c2.2,11.9,12.6,20.8,25.1,20.8
	c14.1,0,25.5-11.4,25.5-25.5C251.5,207.6,241.5,196.7,228.6,195.4z M65.4,218.1l115.1-79l30.9,60.8c-6,4.2-10.2,10.9-10.8,18.7
	l-132.9,6.3C67.3,222.4,66.5,220.2,65.4,218.1z M203.1,123.5c4.1,4.5,9.8,7.5,16.3,8.2l2.3,64c-1.4,0.2-2.7,0.6-3.9,1L186.3,135
	L203.1,123.5z M177.3,132.8L61.5,212.3c-0.1-0.1-0.3-0.3-0.4-0.4l48.6-61.3c3.8,2.2,8.2,3.5,13,3.5c14.1,0,25.5-11.4,25.5-25.5
	c0-12.5-9-22.9-20.9-25.1l2.3-51.6c2.1-0.2,4.1-0.6,6-1.3L177.3,132.8z M51.2,87.2c1.2-3,1.9-6.2,1.9-9.6c0-2.9-0.5-5.8-1.4-8.4
	l54.7-28c3.8,5.4,9.6,9.2,16.3,10.5l-2.3,51.6c-7.6,0.7-14.2,4.7-18.4,10.6L51.2,87.2z"/>
</svg>
