<svg xmlns="http://www.w3.org/2000/svg" width="256" height="256" viewBox="0 0 256 256"><title>icon</title><path d="M243,32.1a17.8,17.8,0,0,1,8.8,11.3c16.1,64.1-12.2,95.9-59.6,107.7-67,19.8-79.4-2.3-96-45.7C80.8,67.4,80.6,57.9,90.1,25,105.4-28.3,213.5,15.9,243,32.1Z" fill-opacity="0.25"/><path d="M118.8,253.3s73.6-3.9,35.7-54.7c-3.3-4.5-45.7-35.3-49.7-40.8C82.5,127.1,77.4,84.7,38.7,74.7c-30.9-8.1-32.9,5-34,11.7C2,102.5.2,189.2.5,230a20.2,20.2,0,0,0,21.2,19.9l44,3.4" fill-opacity="0.4"/><path d="M229.3,52a25.9,25.9,0,0,0-21,10.9l-54.7-28a26,26,0,0,0,1.4-8.4,25.5,25.5,0,1,0-40,20.9L70.5,135,57.7,117.7a25.5,25.5,0,1,0-27.2,13.7l-2.3,64a25.5,25.5,0,1,0,27.7,30.1l45.5-13.2a27.2,27.2,0,0,0-1.6,9.1A26.8,26.8,0,0,0,114,245a25.6,25.6,0,0,0,39-19,34.2,34.2,0,0,0,.4-4.6,26.7,26.7,0,0,0-20.7-26l17.8-46.3a26.8,26.8,0,0,0,19.8-25.9,27.8,27.8,0,0,0-1.4-8.7l40.3-21.2A25.5,25.5,0,1,0,229.3,52ZM121.2,50.6a23.8,23.8,0,0,0,6,1.3L138.4,97a26.8,26.8,0,0,0,4.8,53l-17.5,44.7h-1.9L76.3,139.1ZM35.1,195.7l2.3-64a25.6,25.6,0,0,0,16.3-8.2l13.6,17.8L39,196.7A22.2,22.2,0,0,0,35.1,195.7Zm21.1,22.9a25.2,25.2,0,0,0-10.8-18.7l27.7-54.5,44,51a26.8,26.8,0,0,0-11.2,8.1ZM165.8,108.2a27,27,0,0,0-20.5-11.7L134.1,51.7a25.9,25.9,0,0,0,16.3-10.5l54.7,28a26,26,0,0,0-1.4,8.4,25.7,25.7,0,0,0,1.9,9.6Z"/></svg>