<?xml version="1.0" encoding="utf-8"?>
<!-- Generator: Adobe Illustrator 22.1.0, SVG Export Plug-In . SVG Version: 6.00 Build 0)  -->
<svg version="1.1" id="Layer_1" xmlns="http://www.w3.org/2000/svg" xmlns:xlink="http://www.w3.org/1999/xlink" x="0px" y="0px"
	 viewBox="0 0 688.6 418.5" style="enable-background:new 0 0 688.6 418.5;" xml:space="preserve">
<style type="text/css">
	.st0{fill:#514361;}
	.st1{font-family:'RobotoMono-Regular';}
	.st2{font-size:19.7303px;}
	.st3{fill:#9B9B9B;}
	.st4{font-size:17px;}
	.st5{font-size:19.785px;}
	.st6{fill:none;}
	.st7{clip-path:url(#SVGID_2_);}
	.st8{fill:none;stroke:#AAAAAA;stroke-width:0.25;}
	.st9{clip-path:url(#SVGID_4_);}
	.st10{fill:#C1C1C1;fill-opacity:0.7;stroke:#FFFFFF;}
	.st11{opacity:0.71;fill:#727272;fill-opacity:0.7;stroke:#FFFFFF;enable-background:new    ;}
	.st12{fill:#D1D1D1;fill-opacity:0.7;stroke:#FFFFFF;}
	.st13{fill:none;stroke:#ADADAD;stroke-dasharray:3,6;}
	.st14{fill:none;stroke:#ADADAD;stroke-width:2;stroke-linecap:round;stroke-dasharray:0,6;}
	.st15{fill:none;stroke:#848484;stroke-miterlimit:10;}
	.st16{fill:none;stroke:#ADADAD;stroke-width:2;stroke-linecap:round;}
	.st17{fill:none;stroke:#ADADAD;stroke-width:2;stroke-linecap:round;stroke-dasharray:0,3.2153;}
	.st18{fill:none;stroke:#ADADAD;stroke-width:2;stroke-linecap:round;stroke-dasharray:0,5.8708;}
</style>
<text transform="matrix(1 0 0 1 136.3633 51.3131)" class="st0 st1 st2">density plot</text>
<text transform="matrix(1 0 0 1 141.3287 392.3793)" class="st0 st1 st2">time or interval axis</text>
<g id="labels">
	<text transform="matrix(1 0 0 1 -0.4831 350.4523)" class="st3 st1 st4">Mon</text>
	<text transform="matrix(1 0 0 1 126.6937 350.4525)" class="st3 st1 st4">Tue</text>
	<text transform="matrix(1 0 0 1 249.8704 350.4525)" class="st3 st1 st4">Wed</text>
	<text transform="matrix(1 0 0 1 362.8464 350.4525)" class="st3 st1 st4">Thur</text>
	<text transform="matrix(1 0 0 1 508.0984 350.4518)" class="st3 st1 st4">Fri</text>
	<text transform="matrix(1 0 0 1 566.7639 254.5808)" class="st3 st1 st5">categories</text>
</g>
<g id="density_plots">
	<g transform="translate(0,80)">
		<path class="st6" d="M14,111.6h503.6v38.7H14V111.6z"/>
		<g>
			<g>
				<g>
					<defs>
						<rect id="SVGID_1_" x="14" y="111.6" width="503.6" height="38.7"/>
					</defs>
					<clipPath id="SVGID_2_">
						<use xlink:href="#SVGID_1_"  style="overflow:visible;"/>
					</clipPath>
					<g class="st7">
						<line class="st8" x1="115" y1="149.4" x2="517.6" y2="149.4"/>
					</g>
				</g>
			</g>
		</g>
	</g>
	<g transform="translate(0,100)">
		<path class="st6" d="M14,130.4h503.6v38.7H14V130.4z"/>
		<g>
			<g>
				<g>
					<defs>
						<rect id="SVGID_3_" x="14" y="130.4" width="503.6" height="38.7"/>
					</defs>
					<clipPath id="SVGID_4_">
						<use xlink:href="#SVGID_3_"  style="overflow:visible;"/>
					</clipPath>
					<g class="st9">
						<line class="st8" x1="163" y1="168.1" x2="517.6" y2="168.1"/>
					</g>
				</g>
			</g>
		</g>
	</g>
	<g>
		<g>
			<line class="st8" x1="14.9" y1="308.1" x2="517.6" y2="308.1"/>
		</g>
	</g>
</g>
<g>
	<polygon class="st10" points="517.3,187.7 514.2,186.1 510.9,184.1 507.6,181.7 504.3,178.8 501,175.5 497.8,171.8 494.5,167.9 
		491.2,163.8 487.9,159.6 484.7,155.3 481.4,151.1 478.1,146.9 474.8,142.7 471.6,138.6 468.3,134.6 465,130.7 461.7,126.9 
		458.5,123.2 455.2,119.8 451.9,116.5 448.6,113.5 445.4,110.9 442.1,108.6 438.8,106.9 435.5,105.8 432.2,105.4 429,105.7 
		425.7,106.7 422.4,108.3 419.1,110.2 415.9,112.1 412.6,113.6 409.3,114.5 406,114.4 402.8,113.1 399.5,110.4 396.2,106.4 
		392.9,101.3 389.7,95.4 386.4,89.1 383.1,83.2 379.8,78.2 376.6,74.5 373.3,72.6 370,72.8 366.7,75.2 363.4,79.5 360.2,85.5 
		356.9,92.8 353.6,100.6 350.3,108.3 347.1,115.3 343.8,121 340.5,124.9 337.2,126.9 334,127 330.7,125.5 327.4,122.7 324.1,119.2 
		320.9,115.6 317.6,112.6 314.3,110.6 311,109.8 307.8,110.4 304.5,112.1 301.2,114.4 297.9,117.1 294.7,119.5 291.4,121.2 
		288.1,122 284.8,121.7 281.5,120.3 278.3,118.3 275,116 271.7,113.9 268.4,112.4 265.2,112 261.9,112.9 258.6,115 255.3,118.3 
		252.1,122.6 248.8,127.4 245.5,132.3 242.2,136.8 239,140.8 233.5,143.9 230.3,146.3 227,147.9 223.7,148.7 220.4,148.9 
		217.2,148.7 213.9,148.1 210.6,147.5 207.3,147 204.1,146.6 200.8,146.6 197.5,147.1 194.2,148 191,149.3 187.7,151.1 184.4,153.1 
		181.1,155.3 177.8,157.5 174.6,159.5 171.3,161.1 168,162.3 164.7,162.9 161.5,163 158.2,162.8 154.9,162.3 151.6,161.6 
		148.4,160.8 145.1,160.1 141.8,159.7 138.5,159.6 135.3,159.8 132,160.4 128.7,161.4 125.4,162.7 122.2,164.4 118.9,166.3 
		115.6,168.3 112.3,170.2 109.1,171.8 105.8,173.2 102.5,174.1 99.2,174.4 95.9,174.3 92.7,173.7 89.4,173 86.1,172.1 82.8,171.4 
		79.6,171.1 76.3,171.2 73,171.8 69.7,173.1 66.5,174.7 63.2,176.8 59.9,179 56.6,181.2 53.4,183.4 50.1,185.4 46.8,187.1 
		43.5,188.6 40.3,189.7 37,190.5 33.7,191 30.4,191.5 29.3,191.6 30.8,191.6 34.1,191.6 37.4,191.6 40.7,191.6 43.9,191.6 
		47.2,191.6 50.5,191.6 53.8,191.6 57.6,191.6 60.8,191.6 64.1,191.6 67.4,191.6 70.7,191.6 73.9,191.6 77.2,191.6 80.5,191.6 
		83.8,191.6 87.1,191.6 90.3,191.6 93.6,191.6 96.9,191.6 100.2,191.6 103.4,191.6 106.7,191.6 110,191.6 113.3,191.6 116.6,191.6 
		120.4,191.6 123.7,191.6 127,191.6 130.2,191.6 133.5,191.6 136.8,191.6 140.1,191.6 143.3,191.6 146.6,191.6 149.9,191.6 
		153.2,191.6 156.5,191.6 159.7,191.6 163,191.6 166.3,191.6 169.6,191.6 172.8,191.6 176.1,191.6 179.5,191.6 183.2,191.6 
		186.5,191.6 189.7,191.6 193,191.6 196.3,191.6 199.6,191.6 202.9,191.6 206.1,191.6 209.4,191.6 212.7,191.6 216,191.6 
		219.2,191.6 222.5,191.6 225.8,191.6 229.1,191.6 232.3,191.6 235.6,191.6 239,191.6 242.8,191.6 246,191.6 249.3,191.6 
		252.6,191.6 255.9,191.6 259.1,191.6 262.4,191.6 265.7,191.6 269,191.6 272.3,191.6 275.5,191.6 278.8,191.6 282.1,191.6 
		285.4,191.6 288.6,191.6 291.9,191.6 295.2,191.6 298.5,191.6 301.8,191.6 305.6,191.6 308.9,191.6 312.2,191.6 315.4,191.6 
		318.7,191.6 322,191.6 325.3,191.6 328.5,191.6 331.8,191.6 335.1,191.6 338.4,191.6 341.7,191.6 344.9,191.6 348.2,191.6 
		351.5,191.6 354.8,191.6 358,191.6 361.3,191.6 364.7,191.6 368.4,191.6 371.7,191.6 374.9,191.6 378.2,191.6 381.5,191.6 
		384.8,191.6 388.1,191.6 391.3,191.6 394.6,191.6 397.9,191.6 401.2,191.6 404.4,191.6 407.7,191.6 411,191.6 414.3,191.6 
		417.5,191.6 420.8,191.6 424.2,191.6 428,191.6 431.2,191.6 434.5,191.6 437.8,191.6 441.1,191.6 444.3,191.6 447.6,191.6 
		450.9,191.6 454.2,191.6 457.5,191.6 460.7,191.6 464,191.6 467.3,191.6 470.6,191.6 473.8,191.6 477.1,191.6 480.4,191.6 
		483.7,191.6 487,191.6 490.7,191.6 494,191.6 497.3,191.6 500.6,191.6 503.9,191.6 507.1,191.6 510.4,191.6 513.7,191.6 517,191.6 
		517.3,191.6 	"/>
</g>
<polygon class="st11" points="517.3,228.9 515.9,229 512.6,228.8 509.3,228.4 506.1,227.6 502.8,226.5 499.5,225 496.2,223.4 
	493,221.4 489.7,219.1 486.4,216.9 483.1,214.7 479.9,212.8 476.6,211.2 473.3,210.2 470,209.9 466.7,210.2 463.5,211.1 
	460.2,212.5 456.9,214.3 453.6,216.2 450.4,218.1 447.1,219.7 443.8,220.9 440.5,221.6 437.3,221.7 434,221.1 430.7,220 
	427.4,218.5 424.2,216.7 420.3,214.7 417.1,212.9 413.8,211.3 410.5,210.3 407.2,209.9 404,210.1 400.7,211 397.4,212.4 
	394.1,214.3 390.9,216.4 387.6,218.7 384.3,220.9 381,222.9 377.8,224.7 374.5,226.1 371.2,227.4 367.9,228.3 364.7,228.9 
	358,228.9 354.8,229.3 351.5,229.5 348.2,229.6 344.9,229.6 341.7,229.5 338.4,229.3 335.1,228.9 331.8,228.5 328.5,227.7 
	325.3,226.6 322,225.1 318.7,223.2 315.4,220.8 312.2,217.7 308.9,213.9 305.6,209.5 302.3,204.6 299.1,199.3 295.8,193.7 
	292.5,188.1 289.2,182.8 286,178 282.7,173.9 279.4,170.7 276.1,168.6 272.9,167.7 269.6,168.1 266.3,169.5 263,171.8 259.8,175.1 
	256.5,179 253.2,183.3 249.9,187.9 246.6,192.7 243.4,197.5 240.1,202.2 236.8,206.6 233.5,210.8 230.3,214.6 227,217.9 
	223.7,220.7 220.4,223 217.2,224.9 213.9,226.4 210.6,227.5 207.3,228.3 204.1,228.7 200.8,228.9 197.5,228.8 194.2,228.5 
	191,227.9 187.7,227 184.4,225.8 181.1,224.4 177.8,222.6 174.6,220.6 171.3,218.3 168,216.1 164.7,214 161.5,212.2 158.2,210.9 
	154.9,210.1 151.6,210 148.4,210.5 145.1,211.7 141.8,213.3 138.5,215.3 135.3,217.6 132,219.8 128.7,221.9 125.4,223.8 
	122.2,225.5 118.9,226.8 115.6,227.9 112.3,228.7 109.1,229.3 105.8,229.7 102.5,229.9 99.2,230.2 95.9,230.3 92.7,230.4 
	89.4,230.4 86.1,230.4 82.8,230.4 79.6,230.4 76.3,230.4 73,230.4 69.7,230.4 66.5,230.4 63.2,230.4 59.9,230.4 56.6,230.4 
	53.4,230.4 50.1,230.4 46.8,230.4 43.5,230.4 40.3,230.4 37,230.4 33.7,230.4 30.4,230.4 27.1,230.4 23.9,230.4 20.6,230.4 
	17.3,230.4 14,230.4 14,230.7 17.7,230.7 21,230.7 24.3,230.7 27.5,230.7 30.8,230.7 34.1,230.7 37.4,230.7 40.7,230.7 43.9,230.7 
	47.2,230.7 50.5,230.7 53.8,230.7 57.6,230.7 60.8,230.7 64.1,230.7 67.4,230.7 70.7,230.7 73.9,230.7 77.2,230.7 80.5,230.7 
	83.8,230.7 87.1,230.7 90.3,230.7 93.6,230.7 96.9,230.7 100.2,230.7 103.4,230.7 106.7,230.7 110,230.7 113.3,230.7 116.6,230.7 
	120.4,230.7 123.7,230.7 127,230.7 130.2,230.7 133.5,230.7 136.8,230.7 140.1,230.7 143.3,230.7 146.6,230.7 149.9,230.7 
	153.2,230.7 156.5,230.7 159.7,230.7 163,230.7 166.3,230.7 169.6,230.7 172.8,230.7 176.1,230.7 179.5,230.7 183.2,230.7 
	186.5,230.7 189.7,230.7 193,230.7 196.3,230.7 199.6,230.7 202.9,230.7 206.1,230.7 209.4,230.7 212.7,230.7 216,230.7 
	219.2,230.7 222.5,230.7 225.8,230.7 229.1,230.7 232.3,230.7 235.6,230.7 239,230.7 242.8,230.7 246,230.7 249.3,230.7 
	252.6,230.7 255.9,230.7 259.1,230.7 262.4,230.7 265.7,230.7 269,230.7 272.3,230.7 275.5,230.7 278.8,230.7 282.1,230.7 
	285.4,230.7 288.6,230.7 291.9,230.7 295.2,230.7 298.5,230.7 301.8,230.7 305.6,230.7 308.9,230.7 312.2,230.7 315.4,230.7 
	318.7,230.7 322,230.7 325.3,230.7 328.5,230.7 331.8,230.7 335.1,230.7 338.4,230.7 341.7,230.7 344.9,230.7 348.2,230.7 
	351.5,230.7 354.8,230.7 358,230.7 361.3,230.7 364.7,230.7 368.4,230.7 371.7,230.7 374.9,230.7 378.2,230.7 381.5,230.7 
	384.8,230.7 388.1,230.7 391.3,230.7 394.6,230.7 397.9,230.7 401.2,230.7 404.4,230.7 407.7,230.7 411,230.7 414.3,230.7 
	417.5,230.7 420.8,230.7 424.2,230.7 428,230.7 431.2,230.7 434.5,230.7 437.8,230.7 441.1,230.7 444.3,230.7 447.6,230.7 
	450.9,230.7 454.2,230.7 457.5,230.7 460.7,230.7 464,230.7 467.3,230.7 470.6,230.7 473.8,230.7 477.1,230.7 480.4,230.7 
	483.7,230.7 487,230.7 490.7,230.7 494,230.7 497.3,230.7 500.6,230.7 503.9,230.7 507.1,230.7 510.4,230.7 513.7,230.7 517,230.7 
	517.3,230.7 "/>
<g>
	<polygon class="st11" points="517.3,253.2 516.5,252.7 513.2,250 509.9,247.3 506.7,244.9 503.4,242.5 500.1,240.4 496.8,238.5 
		493.6,236.7 490.3,235.1 487,233.4 481.3,231.9 478,230.5 474.8,229.3 471.5,228.5 468.2,228.2 464.9,228.5 461.7,229.5 
		458.4,231.1 455.1,233.2 451.8,235.6 448.6,238.2 445.3,240.6 442,242.7 438.7,243.9 435.5,244.2 432.2,243.5 428.9,242 
		425.6,239.5 422.4,236.4 419.1,232.8 415.8,229.2 412.5,225.6 409.2,222.4 406,219.6 402.7,217.3 399.4,215.6 396.1,214.1 
		392.9,213 389.6,212 386.3,211.1 383,210.4 379.8,209.9 376.5,209.6 373.2,210 369.9,210.9 366.7,212.5 363.4,215 360.1,218.1 
		356.8,222 353.6,226.4 350.3,231.2 347,236.1 343.7,240.9 340.4,245.3 337.2,249.2 333.9,252.4 330.6,254.7 327.3,256.1 
		324.1,256.7 320.8,256.5 317.5,255.6 314.2,254.2 311,252.7 307.7,251 304.4,249.6 301.1,248.4 297.9,247.8 294.6,247.7 291.3,248 
		288,248.7 284.8,249.6 281.5,250.5 278.2,251.1 274.9,251.3 271.7,251.1 268.4,250.5 265.1,249.3 261.8,247.9 258.5,246.1 
		255.3,244.1 252,242 248.7,239.8 245.4,237.3 242.2,234.5 238.9,231.4 235.6,227.8 230.3,224.1 227,220 223.7,216 220.4,212.4 
		217.2,209.6 213.9,208.1 210.6,207.9 207.3,209.2 204.1,212.1 200.8,216.4 197.5,221.8 194.2,227.8 191,234.2 187.7,240.4 
		184.4,246.2 181.1,251.5 177.8,255.9 174.6,259.5 171.3,262.3 168,264.4 164.7,266 161.5,267.1 158.2,267.9 154.9,268.3 
		151.6,268.6 148.4,268.9 149.9,268.9 153.2,268.9 156.5,268.9 159.7,268.9 163,268.9 166.3,268.9 169.6,268.9 172.8,268.9 
		176.1,268.9 179.5,268.9 183.2,268.9 186.5,268.9 189.7,268.9 193,268.9 196.3,268.9 199.6,268.9 202.9,268.9 206.1,268.9 
		209.4,268.9 212.7,268.9 216,268.9 219.2,268.9 222.5,268.9 225.8,268.9 229.1,268.9 232.3,268.9 235.6,268.9 239,268.9 
		242.8,268.9 246,268.9 249.3,268.9 252.6,268.9 255.9,268.9 259.1,268.9 262.4,268.9 265.7,268.9 269,268.9 272.3,268.9 
		275.5,268.9 278.8,268.9 282.1,268.9 285.4,268.9 288.6,268.9 291.9,268.9 295.2,268.9 298.5,268.9 301.8,268.9 305.6,268.9 
		308.9,268.9 312.2,268.9 315.4,268.9 318.7,268.9 322,268.9 325.3,268.9 328.5,268.9 331.8,268.9 335.1,268.9 338.4,268.9 
		341.7,268.9 344.9,268.9 348.2,268.9 351.5,268.9 354.8,268.9 358,268.9 361.3,268.9 364.7,268.9 368.4,268.9 371.7,268.9 
		374.9,268.9 378.2,268.9 381.5,268.9 384.8,268.9 388.1,268.9 391.3,268.9 394.6,268.9 397.9,268.9 401.2,268.9 404.4,268.9 
		407.7,268.9 411,268.9 414.3,268.9 417.5,268.9 420.8,268.9 424.2,268.9 428,268.9 431.2,268.9 434.5,268.9 437.8,268.9 
		441.1,268.9 444.3,268.9 447.6,268.9 450.9,268.9 454.2,268.9 457.5,268.9 460.7,268.9 464,268.9 467.3,268.9 470.6,268.9 
		473.8,268.9 477.1,268.9 480.4,268.9 483.7,268.9 487,268.9 490.7,268.9 494,268.9 497.3,268.9 500.6,268.9 503.9,268.9 
		507.1,268.9 510.4,268.9 513.7,268.9 517,268.9 517.3,268.9 	"/>
	<polygon class="st11" points="143.3,268.9 140.1,268.9 136.8,268.9 133.5,268.9 130.2,268.9 127,268.9 123.7,268.9 120.4,268.9 
		116.6,268.9 113.3,268.9 110,268.9 106.7,268.9 103.4,268.9 100.2,268.9 96.9,268.9 93.6,268.9 90.3,268.9 87.1,268.9 83.8,268.9 
		80.5,268.9 77.2,268.9 73.9,268.9 70.7,268.9 67.4,268.9 64.1,268.9 60.8,268.9 57.6,268.9 53.8,268.9 50.5,268.9 47.2,268.9 
		43.9,268.9 40.7,268.9 37.4,268.9 34.1,268.9 30.8,268.9 27.5,268.9 24.3,268.9 21,268.9 17.7,268.9 14,268.9 14,269.1 17.3,269.1 
		20.6,269.1 23.9,269.1 27.1,269.1 30.4,269.1 33.7,269.1 37,269.1 40.3,269.1 43.5,269.1 46.8,269.1 50.1,269.1 53.4,269.1 
		56.6,269.1 59.9,269.1 63.2,269.1 66.5,269.1 69.7,269.1 73,269.1 76.3,269.1 79.6,269.1 82.8,269.1 86.1,269.1 89.4,269.1 
		92.7,269.1 95.9,269.1 99.2,269.1 102.5,269.1 105.8,269.1 109.1,269.1 112.3,269.1 115.6,269.1 118.9,269.1 122.2,269.1 
		125.4,269.1 128.7,269.1 132,269.1 135.3,269.1 138.5,269.1 141.8,269.1 145.1,269 148.4,268.9 146.6,268.9 	"/>
	<polygon class="st11" points="511.8,268.9 513.7,268.9 511.8,268.7 	"/>
</g>
<g>
	<polygon class="st12" points="59.9,308.6 56.6,308.1 53.4,307.4 50.1,306.5 46.8,305.4 43.5,304 40.3,302.2 37,300.2 33.7,298 
		30.4,295.7 27.1,293.5 23.9,291.6 20.6,290 17.3,289 14.4,288.7 14.4,309 17.7,309 21,309 24.3,309 27.5,309 30.8,309 34.1,309 
		37.4,309 40.7,309 43.9,309 47.2,309 50.5,309 53.8,309 57.6,309 60.8,309 64.1,309 64.8,309 63.2,308.9 	"/>
	<polygon class="st12" points="14,288.7 14.4,288.7 14.4,288.7 	"/>
	<polygon class="st12" points="517.3,286.4 515.3,286.4 512,285.9 508.7,285 505.5,283.7 502.2,281.9 498.9,279.8 495.6,277.4 
		492.4,275.2 489.1,273.3 485.8,272 482.5,271.4 479.2,271.8 476,273 472.7,275 469.4,277.8 466.1,281.1 462.9,284.8 459.6,288.5 
		456.3,292.2 453,295.5 449.8,298.5 446.5,301.1 443.2,303.2 439.9,304.9 436.7,306.1 433.4,307 430.1,307.7 426.8,308 423.6,308.2 
		420.3,308.2 417,308 413.7,307.7 410.5,307.1 407.2,306.3 403.9,305.2 400.6,303.8 397.3,302.1 394.1,300.1 390.8,298 387.5,295.7 
		384.2,293.5 381,291.6 377.7,290 374.4,289 371.1,288.7 367.9,289 364.6,289.9 361.3,291.4 354.8,293.5 351.5,295.5 348.2,297.5 
		344.9,299.4 341.7,300.9 338.4,301.9 335.1,302.3 331.8,302 328.5,301 325.3,299.2 322,296.7 318.7,293.6 315.4,289.9 312.2,286 
		308.9,282 305.6,278.2 302.3,274.9 299.1,272.3 295.8,270.7 292.5,270.3 289.2,271.1 286,273 282.7,275.8 279.4,279.2 276.1,283.1 
		272.9,287.1 269.6,291 266.3,294.7 263,297.8 259.8,300.4 256.5,302.3 253.2,303.5 249.9,304.1 246.6,304.1 243.4,303.4 
		240.1,302.3 236.8,300.7 233.5,298.8 230.3,296.7 227,294.6 223.7,292.6 220.4,290.9 217.2,289.7 213.9,289 210.6,289 207.3,289.7 
		204.1,291 200.8,292.8 197.5,294.9 194.2,297.2 191,299.4 187.7,301.5 184.4,303.4 181.1,305 177.8,306.2 174.6,307.2 171.3,308 
		168,308.6 164.7,308.9 163.1,309 166.3,309 169.6,309 172.8,309 176.1,309 179.5,309 183.2,309 186.5,309 189.7,309 193,309 
		196.3,309 199.6,309 202.9,309 206.1,309 209.4,309 212.7,309 216,309 219.2,309 222.5,309 225.8,309 229.1,309 232.3,309 
		235.6,309 239,309 242.8,309 246,309 249.3,309 252.6,309 255.9,309 259.1,309 262.4,309 265.7,309 269,309 272.3,309 275.5,309 
		278.8,309 282.1,309 285.4,309 288.6,309 291.9,309 295.2,309 298.5,309 301.8,309 305.6,309 308.9,309 312.2,309 315.4,309 
		318.7,309 322,309 325.3,309 328.5,309 331.8,309 335.1,309 338.4,309 341.7,309 344.9,309 348.2,309 351.5,309 354.8,309 358,309 
		361.3,309 364.7,309 368.4,309 371.7,309 374.9,309 378.2,309 381.5,309 384.8,309 388.1,309 391.3,309 394.6,309 397.9,309 
		401.2,309 404.4,309 407.7,309 411,309 414.3,309 417.5,309 420.8,309 424.2,309 428,309 431.2,309 434.5,309 437.8,309 441.1,309 
		444.3,309 447.6,309 450.9,309 454.2,309 457.5,309 460.7,309 464,309 467.3,309 470.6,309 473.8,309 477.1,309 480.4,309 
		483.7,309 487,309 490.7,309 494,309 497.3,309 500.6,309 503.9,309 507.1,309 510.4,309 513.7,309 517,309 517.3,309 	"/>
	<polygon class="st12" points="159.7,309 156.5,309 153.2,309 149.9,309 146.6,309 143.3,309 140.1,309 136.8,309 133.5,309 
		130.2,309 127,309 123.7,309 120.4,309 116.6,309 113.3,309 110,309 106.7,309 103.4,309 100.2,309 96.9,309 93.6,309 90.3,309 
		87.1,309 83.8,309 80.5,309 77.2,309 73.9,309 70.7,309 67.4,309 64.8,309 66.5,309.1 69.7,309.2 73,309.3 76.3,309.3 79.6,309.3 
		82.8,309.3 86.1,309.3 89.4,309.3 92.7,309.3 95.9,309.3 99.2,309.3 102.5,309.3 105.8,309.3 109.1,309.3 112.3,309.3 115.6,309.3 
		118.9,309.3 122.2,309.3 125.4,309.3 128.7,309.3 132,309.3 135.3,309.3 138.5,309.3 141.8,309.3 145.1,309.3 148.4,309.3 
		151.6,309.3 154.9,309.3 158.2,309.2 161.5,309.1 163.1,309 163,309 	"/>
</g>
<line class="st13" x1="14.9" y1="73.9" x2="14.4" y2="305.7"/>
<line class="st13" x1="140.6" y1="73.9" x2="140.2" y2="305.7"/>
<line class="st13" x1="266.4" y1="73.9" x2="265.9" y2="305.7"/>
<line class="st13" x1="392.1" y1="73.9" x2="391.7" y2="305.7"/>
<line class="st13" x1="517.9" y1="78.4" x2="517.4" y2="310"/>
<line class="st14" x1="206.6" y1="66.4" x2="206.6" y2="154.7"/>
<line class="st15" x1="14" y1="191.6" x2="535.8" y2="191.6"/>
<line class="st15" x1="14" y1="230.9" x2="535.8" y2="230.9"/>
<line class="st15" x1="14" y1="268.7" x2="535.8" y2="268.7"/>
<line class="st15" x1="14" y1="307.8" x2="535.8" y2="307.8"/>
<g>
	<g>
		<line class="st16" x1="543.3" y1="191.6" x2="543.3" y2="191.6"/>
		<line class="st17" x1="546.5" y1="191.6" x2="548.2" y2="191.6"/>
		<line class="st16" x1="549.8" y1="191.6" x2="549.8" y2="191.6"/>
		<line class="st18" x1="549.8" y1="197.5" x2="549.8" y2="306.1"/>
		<line class="st16" x1="549.8" y1="309" x2="549.8" y2="309"/>
		<line class="st17" x1="546.5" y1="309" x2="544.9" y2="309"/>
		<line class="st16" x1="543.3" y1="309" x2="543.3" y2="309"/>
	</g>
</g>
<line class="st14" x1="549.8" y1="250.3" x2="561.8" y2="250.3"/>
</svg>
