<svg xmlns="http://www.w3.org/2000/svg" width="650" height="306" viewBox="0 0 650 306"><defs><style>.a,.c,.i{fill:none;}.a,.c,.e,.f,.g,.i{stroke:#afafaf;}.b,.d{font-size:16px;fill:#c4c2c2;font-family:Roboto Mono;}.c{stroke-width:2px;}.d{isolation:isolate;}.e,.g,.h{fill:#cacaca;}.e,.f{stroke-width:2.01px;}.e,.f,.g,.h{fill-rule:evenodd;}.f{fill:#efefef;}.g{stroke-width:2.15px;}.i{stroke-width:2.74px;}</style></defs><title>braided-time-series</title><path class="a" d="M62,279.9v4.7"/><path class="a" d="M88.3,279.9v4.7"/><path class="a" d="M114.6,279.9v4.7"/><path class="a" d="M140.9,279.9v4.7"/><text class="b" transform="translate(128.7 300.8)">2</text><path class="a" d="M167.3,279.9v4.7"/><path class="a" d="M193.7,279.9v4.7"/><path class="a" d="M220,279.9v4.7"/><path class="a" d="M246.3,279.9v4.7"/><text class="b" transform="translate(234.1 300.8)">4</text><path class="a" d="M272.7,279.9v4.7"/><path class="a" d="M299.1,279.9v4.7"/><path class="a" d="M325.4,279.9v4.7"/><path class="a" d="M351.7,279.9v4.7"/><text class="b" transform="translate(336.9 300.8)">6</text><path class="a" d="M378,279.9v4.7"/><path class="a" d="M404.5,279.9v4.7"/><path class="a" d="M430.8,279.9v4.7"/><path class="a" d="M457.1,279.9v4.7"/><text class="b" transform="translate(442.3 300.8)">8</text><path class="a" d="M483.4,279.9v4.7"/><path class="a" d="M509.8,279.9v4.7"/><path class="a" d="M536.2,279.9v4.7"/><path class="a" d="M562.5,279.9v4.7"/><text class="b" transform="translate(538 300.8)">10</text><path class="a" d="M588.8,279.9v4.7"/><path class="a" d="M615.1,279.9v4.7"/><path class="a" d="M641.6,279.9v4.7"/><path class="c" d="M35.5,282.2H641.5"/><text class="d" transform="translate(14.4 294.1)">0</text><path class="a" d="M37.5,214.3H32.9"/><text class="d" transform="translate(4.8 227.6)">20</text><path class="a" d="M37.5,147.8H32.9"/><text class="d" transform="translate(4.8 161.1)">40</text><path class="a" d="M37.5,81.4H32.9"/><text class="d" transform="translate(4.8 94.6)">60</text><path class="a" d="M37.5,14.9H32.9"/><text class="d" transform="translate(4.8 28.1)">80</text><path class="c" d="M35.5,14.9v266"/><path class="e" d="M48.8,268.7V114.3c4.7,0,42,22,51.8,34.3,6.8,8.6,27.5,6.2,37,6.2,3.8,0,20.2,17.6,37,21.8,13.6,3.4,37,0,46.9-3.1,13.4-4.2,21.9-57.6,24.7-71.7,4-20.2,26.3-22.8,39.5-31.2,10.2-6.5,3-39.3,19.7-49.9S339.9,13,352.2,5.2C357.6,1.8,362.5,40.6,367,52c5.1,12.9,19.3,30.6,27.1,40.5,15.6,19.8,33.4,29.7,46.9,46.8,7,8.9,4.9,43.1,4.9,56.1,0,5,33.9,14.6,37,15.6l9.9,3.1c12.3,3.9,29.4,0,41.9,0,24.2,0,39.4-21,61.7-28.1,3.6-1.1,36.9-42,41.9-46.8"/><path class="f" d="M643.1,84.5a44.8,44.8,0,0,0-13.8-2.3c-24.7,0-34.6,2.6-50,21.8-17.3,21.5-38,59.2-65.1,59.2H446.6c-29.3,0-26.8-33.3-50-40.5-11.2-3.5-47.9-1-52.5-12.5-2.3-5.7-14.7-41.9-17.5-40.5-8.2,4.1-48,21.2-57.5,9.4-11.3-14-10.2-14.8-20-31.2-21.9-36.4-5.8-18.2-30-3.1-15.2,9.5-36.5,39.3-50,56.1-18.7,23.3-32.7,37.6-52.5,56.1-10.7,9.9-65.6,52.4-67.6,49.9v61.7H642.9Z"/><path class="g" d="M268.4,78.9c-10.1,4.6-19.8,10.3-22.3,23s-11.2,67.5-24.6,71.8c-9.9,3.1-33.3,6.5-46.9,3.1-16.8-4.3-33.2-21.8-37-21.8s-11.3.5-18.1,0.2V268.7H268.4V78.9Z"/><path class="h" d="M643.3,136.6c-1.3-.1-2.9.6-5,2.6-5.1,4.8-38.2,45.6-41.9,46.8-22.3,7.1-37.5,28.1-61.7,28.1-12.6,0-29.7,3.9-41.9,0l-9.8-3.1c-2.5-.8-33.9,5.2-33.9-47.3v105H642.9"/><path class="i" d="M643.3,136.6c-1.3-.1-2.9.6-5,2.6-5.1,4.8-38.2,45.6-41.9,46.8-22.3,7.1-37.5,28.1-61.7,28.1-12.6,0-29.7,3.9-41.9,0l-9.8-3.1c-2.5-.8-33.9,5.2-33.9-47.3v105"/></svg>