<?xml version="1.0" encoding="utf-8"?>
<!-- Generator: Adobe Illustrator 24.0.1, SVG Export Plug-In . SVG Version: 6.00 Build 0)  -->
<svg version="1.1" id="Layer_1" xmlns="http://www.w3.org/2000/svg" xmlns:xlink="http://www.w3.org/1999/xlink" x="0px" y="0px"
	 viewBox="0 0 1268 418" style="enable-background:new 0 0 1268 418;" xml:space="preserve">
<style type="text/css">
	.st0{fill:none;stroke:#CCCCCC;stroke-width:1.3791;}
	.st1{fill:#CCCCCC;}
	.st2{font-family:'RobotoMono-Regular';}
	.st3{font-size:18px;}
	.st4{fill:none;stroke:#CCCCCC;stroke-width:2.7582;}
	.st5{fill-rule:evenodd;clip-rule:evenodd;fill:#C4C5D1;stroke:#AFAFAF;stroke-width:2.5;}
	.st6{fill-rule:evenodd;clip-rule:evenodd;fill:#EFEFEF;stroke:#AFAFAF;stroke-width:2.5;}
	.st7{fill-rule:evenodd;clip-rule:evenodd;fill:#C4C5D1;}
	.st8{fill:none;stroke:#AFAFAF;stroke-width:3.7787;}
</style>
<title>braided-time-series</title>
<path class="st0" d="M286.3,384.1v6.5"/>
<path class="st0" d="M322.6,384.1v6.5"/>
<path class="st0" d="M358.9,384.1v6.5"/>
<path class="st0" d="M395.1,384.1v6.5"/>
<text transform="matrix(1 0 0 1 388.3252 412.9473)" class="st1 st2 st3">2</text>
<path class="st0" d="M431.6,384.1v6.5"/>
<path class="st0" d="M468,384.1v6.5"/>
<path class="st0" d="M504.2,384.1v6.5"/>
<path class="st0" d="M540.5,384.1v6.5"/>
<text transform="matrix(1 0 0 1 533.6802 412.9473)" class="st1 st2 st3">4</text>
<path class="st0" d="M576.9,384.1v6.5"/>
<path class="st0" d="M613.3,384.1v6.5"/>
<path class="st0" d="M649.6,384.1v6.5"/>
<path class="st0" d="M685.9,384.1v6.5"/>
<text transform="matrix(1 0 0 1 681.4482 412.9473)" class="st1 st2 st3">6</text>
<path class="st0" d="M722.1,384.1v6.5"/>
<path class="st0" d="M758.7,384.1v6.5"/>
<path class="st0" d="M794.9,384.1v6.5"/>
<path class="st0" d="M831.2,384.1v6.5"/>
<text transform="matrix(1 0 0 1 823.8047 412.9473)" class="st1 st2 st3">8</text>
<path class="st0" d="M867.5,384.1v6.5"/>
<path class="st0" d="M903.9,384.1v6.5"/>
<path class="st0" d="M940.3,384.1v6.5"/>
<path class="st0" d="M976.6,384.1v6.5"/>
<text transform="matrix(1 0 0 1 964.7822 412.9473)" class="st1 st2 st3">10</text>
<path class="st0" d="M1012.8,384.1v6.5"/>
<path class="st0" d="M1049.1,384.1v6.5"/>
<path class="st0" d="M1085.7,384.1v6.5"/>
<path class="st4" d="M249.8,387.3h835.7"/>
<text transform="matrix(1 0 0 1 220.6958 392.707)" class="st1 st2 st3">0</text>
<path class="st0" d="M252.6,293.7h-6.3"/>
<text transform="matrix(1 0 0 1 207.4575 301.998)" class="st1 st2 st3">20</text>
<path class="st0" d="M252.6,201.9h-6.3"/>
<text transform="matrix(1 0 0 1 207.4575 210.29)" class="st1 st2 st3">40</text>
<path class="st0" d="M252.6,110.4h-6.3"/>
<text transform="matrix(1 0 0 1 207.4575 118.5796)" class="st1 st2 st3">60</text>
<path class="st0" d="M252.6,18.7h-6.3"/>
<text transform="matrix(1 0 0 1 207.4575 26.8716)" class="st1 st2 st3">80</text>
<path class="st4" d="M249.8,18.7v366.8"/>
<path class="st5" d="M268.1,368.7V155.7c6.5,0,57.9,30.3,71.4,47.3c9.4,11.9,37.9,8.6,51,8.6c5.2,0,27.9,24.3,51,30.1
	c18.8,4.7,51,0,64.7-4.3c18.5-5.8,30.2-79.4,34.1-98.9c5.5-27.9,36.3-31.4,54.5-43c14.1-9,4.1-54.2,27.2-68.8
	C645,12,669.6,16,686.5,5.3c7.4-4.7,14.2,48.8,20.4,64.5c7,17.8,26.6,42.2,37.4,55.9c21.5,27.3,46.1,41,64.7,64.5
	c9.7,12.3,6.8,59.4,6.8,77.4c0,6.9,46.8,20.1,51,21.5l13.7,4.3c17,5.4,40.5,0,57.8,0c33.4,0,54.3-29,85.1-38.8
	c5-1.5,50.9-57.9,57.8-64.5"/>
<path class="st6" d="M1087.7,114.7c-6.1-2-12.6-3.1-19-3.2c-34.1,0-47.7,3.6-69,30.1c-23.9,29.7-52.4,81.6-89.8,81.6h-93.2
	c-40.4,0-37-45.9-69-55.9c-15.4-4.8-66.1-1.4-72.4-17.2c-3.2-7.9-20.3-57.8-24.1-55.9c-11.3,5.7-66.2,29.2-79.3,13
	c-15.6-19.3-14.1-20.4-27.6-43c-30.2-50.2-8-25.1-41.4-4.3c-21,13.1-50.3,54.2-69,77.4c-25.8,32.1-45.1,51.9-72.4,77.4
	c-14.8,13.7-90.5,72.3-93.2,68.8v85.1h819L1087.7,114.7z"/>
<path class="st5" d="M571,106.9c-13.9,6.3-27.3,14.2-30.8,31.7c-3.4,17.5-15.4,93.1-33.9,99c-13.7,4.3-45.9,9-64.7,4.3
	c-23.2-5.9-45.8-30.1-51-30.1s-15.6,0.7-25,0.3v156.5H571V106.9z"/>
<path class="st7" d="M1088,186.5c-1.8-0.1-4,0.8-6.9,3.6c-7,6.6-52.7,62.9-57.8,64.5c-30.8,9.8-51.7,38.8-85.1,38.8
	c-17.4,0-41,5.4-57.8,0l-13.5-4.3c-3.4-1.1-46.8,7.2-46.8-65.2v144.8h267.3"/>
<path class="st8" d="M1088,186.5c-1.8-0.1-4,0.8-6.9,3.6c-7,6.6-52.7,62.9-57.8,64.5c-30.8,9.8-51.7,38.8-85.1,38.8
	c-17.4,0-41,5.4-57.8,0l-13.5-4.3c-3.4-1.1-46.8,7.2-46.8-65.2v144.8"/>
</svg>
