<svg xmlns="http://www.w3.org/2000/svg" width="256" height="256" viewBox="0 0 256 256"><title>new-chart-icons-aim-160</title><path d="M1.8,82.5Zm35-83.7h0ZM22.2,30.2Zm234.6,48c0,.1-.5,19.1-1.9,20.5s-1.2.8-1.3,1.1a6.7,6.7,0,0,1-.6,1.2,6,6,0,0,1-2.5,1.3,22,22,0,0,0-3,1.9l-1,.5h-.2c-.1.2-.3.2-.5.2l-1,.5a41.8,41.8,0,0,1-6.4,3.1c-2.3.9-4.5,2.3-6.8,2.8l-7.3,1.8a25.1,25.1,0,0,0-6.1,3.1,11.4,11.4,0,0,0-2.8,2.1l-2,2.2a39.5,39.5,0,0,0-5.2,4.8c-.8.9-1.4,1.8-2.1,2.7s-1.6,1.8-2.4,2.7-3.4,3.7-5,5.7l-.3.4a40.2,40.2,0,0,1,5.9-1.8,63.7,63.7,0,0,1,12.9-2.4c2.3-.2,4.6-.2,6.9-.2h6.3c.4-.1.8-.6,1.2-.8l1.1-.9a15.5,15.5,0,0,1,2.7-2.4,11.4,11.4,0,0,1,2.9-1.5,26.8,26.8,0,0,0,2.8-1.8,37.3,37.3,0,0,1,13.7-5.7c1.9-.4,2.7,2.5.8,2.8a36.5,36.5,0,0,0-13.3,5.7,13.8,13.8,0,0,1-2.9,1.7,9.7,9.7,0,0,0-2.8,1.6l-2.2,2.1,2.7.7c1.9.3,3.8,1.3,5.8,1.3s1.9,3.1,0,3-3.8-.9-5.7-1.3l-2.7-.5a12.5,12.5,0,0,0-3.2-.8c-2-.2-4.1-.1-6.2-.1h-6.5a51.1,51.1,0,0,0-12.3,2.1l-5.9,1.6L188,144.7a56.3,56.3,0,0,1-6.9,2.4c-2.3.7-4.5,1.8-6.8,2.7l-7.4,3c-2.1.8-4,1.5-5.6,3.2a6.7,6.7,0,0,0-1.8,5.6,8,8,0,0,1,.3,1.5,6.8,6.8,0,0,0,.2,1.5,14.5,14.5,0,0,1,.4,3c.1,2.1-1.2,4-2.4,5.5s-1,1.7-1.6,2.5a6.8,6.8,0,0,0-1.1,3.1c-.5,2.3-1.7,4.6-1.4,7s1.7,4.3,3.3,5.9a28.5,28.5,0,0,1,4.2,4.9,18.8,18.8,0,0,1,2.4,5.9c.6,2,1,4.4,2.4,6.1a7.6,7.6,0,0,1,1.7,2.3,8.4,8.4,0,0,1,.4,2.7,12.1,12.1,0,0,1-.9,3.1,8.3,8.3,0,0,0-.4,1.5l-.7,1.5a5.1,5.1,0,0,0,.3,3.2,16,16,0,0,0,1.3,3c1.3,1.9,2,3.7,1.3,6a4,4,0,0,0-.3,1.5c.4.9.7,1.8,1,2.6a17.5,17.5,0,0,0,1.1,2.4l2.5,1.7a22.7,22.7,0,0,0,8.2,3.4,22.5,22.5,0,0,1,3.5.9h.3a16.3,16.3,0,0,1,3.1.3c.9.2,1.8,0,2.6.2s4.3.8,6.4,1,4.3.2,6.5.5,4.2-.1,6.3.2l2.7.3a20,20,0,0,1,2.4.4,14.3,14.3,0,0,1,2.8.7,14.3,14.3,0,0,1,2.8.7,13.5,13.5,0,0,1,4.2,2.4l.5.4h1.8l3.2.2H236a6.4,6.4,0,0,1,3.9,1.1c1.1.7,2.1.8,2.9,1.9a1.5,1.5,0,0,1-.2,1.8c-1.1,1.2-2.5.8-3.9.8s-3.4.5-5.1.5a104.8,104.8,0,0,1-11.2-.4,45.5,45.5,0,0,1-5.2-.4,45.6,45.6,0,0,0-6.4,0,28,28,0,0,0-2.9,0l-2.7.4a30.3,30.3,0,0,1-6-.4c-3.3-.4-6.7.3-10-.1a23,23,0,0,0-2.6-.3H179l-131.3.4a56.1,56.1,0,0,0-5.8,0l-2.1.3c-.5.1-1.4-.2-1.9.2a1.5,1.5,0,0,1-2.5-1,.9.9,0,0,1-.3-.6c-.5-1.9,1.6-2.7,3.1-3.2a16.9,16.9,0,0,1,2.4-.8,29.2,29.2,0,0,0,3.6-1.1l1.7-.7,1.5-.2c1.1-.1,2.1-.5,3.2-.6s2.3,0,3.4-.2l3.3-.3,6.7-.8a27.4,27.4,0,0,0,6.7-2.1,13,13,0,0,0,5.2-3.8l2.3-2.3c.7-.8.7-2,1-3s1.8-4.4,2.8-6.5v-.3c.2-1.1.3-2.1.4-3.2a31.8,31.8,0,0,1,.7-6.2c.5-2.4.6-4.9,1.1-7.3a69.6,69.6,0,0,1,1.7-6.9c.4-1.2.9-2.4,1.2-3.6a13.1,13.1,0,0,1,.9-2.8c.4-1.1.6-2.2,1-3.3l1.2-3c1-2.1,2.4-3.9,3.5-6l1.6-3.2a19.6,19.6,0,0,0,1.5-3.3,15.1,15.1,0,0,1,1-3A13.1,13.1,0,0,0,99,175a58.8,58.8,0,0,0,1.6-7c.4-2.3.8-4.6,1.1-6.9s0-2.3.2-3.5.2-2,.2-3,.3-4.4.4-6.6a19.3,19.3,0,0,0-.6-6.3,18.1,18.1,0,0,0-2.7-5.8c-1.2-1.7-3.2-2.3-5.1-2.9s-4.5-1.1-6.7-1.9a56.8,56.8,0,0,0-7.1-1.8,30.3,30.3,0,0,0-6.6-1.1c-1.1,0-2.1-.4-3.2-.5a12.4,12.4,0,0,1-3.1-1,44.7,44.7,0,0,1-5.9-2.7c-4-2.4-7-5.7-10-9.2a24.3,24.3,0,0,1-2.4-3.2,42.5,42.5,0,0,1-6-3.1,31.1,31.1,0,0,0-12.6-4,64.2,64.2,0,0,1-7.5-1,50.1,50.1,0,0,0-11.7,7.1l-2.6,2.1a15,15,0,0,0-1.8,2.4,17.5,17.5,0,0,1-2.4,2.3l-2.4,2c-1.5,1.3-3.6-.8-2.1-2.1s3.7-2.7,4.8-4.6,3-3.1,4.7-4.5a43.9,43.9,0,0,1,7.6-5.1h-.8c-2.5.1-5-.1-7.5-.1l-3.4.4H4a4.4,4.4,0,0,1-2,.8H1.8a2.9,2.9,0,0,1-2.9-2.2A3.2,3.2,0,0,1,.3,98.7a6.2,6.2,0,0,1,3.5-1.2L7,97.3a60.9,60.9,0,0,1,7.4-.1l5.8-.2c2.2.1,4.3.8,6.5,1.1,4.1.6,8.1.6,12,2l4.9,1.9c-2.4-2.8-5.2-5.1-7.9-7.7-.7-.7-1.7-1-2.5-1.7a8.6,8.6,0,0,0-2.6-2c-1.9-1.1-14.6-6.5-19.3-7-2.3-.3-4.6-.6-7-1.1H1.8v0c-.2,0-2.2,1.3-1.8-.5S-.6,58.8,0,59l10.3,2.2,3.9,1a81.5,81.5,0,0,1,8.5,2.2c1.2.3,9.3,3.6,10.4,4.2a37.8,37.8,0,0,1,3.5,1.7l2.7,2,2.5,1.9a20.1,20.1,0,0,1,2.9,2.2c.7.7,1.2,1.5,1.9,2.2s3.3,3,4.8,4.6a58,58,0,0,0,5.2,4.7,29.6,29.6,0,0,0,2.6,2.4l2.9,2c1,.8,15,7.7,16.2,7.9a21.2,21.2,0,0,1,3.6,1,35.8,35.8,0,0,1,3.5,1.1,35.9,35.9,0,0,0,3.4,1.7c2.3.9,4.5,1.7,6.7,2.7s4.4,1.3,6.5,2.1a38.3,38.3,0,0,1,6.7,3.4,75.2,75.2,0,0,1,6.4,4.7,8.1,8.1,0,0,1,1.6,1.6v-.2a23.7,23.7,0,0,1-.3-4.6v-5.1c0-1.6.3-3.1.4-4.7a51.1,51.1,0,0,0-.5-9.6c-.4-3-1.2-6.1-3.1-8.4a67.6,67.6,0,0,0-5.7-6.2c-2-1.9-4.4-3.3-6.2-5.3s-2.1-2-3.1-3l-3-2.9c-1.1-1-2.4-1.7-3.5-2.7A16.1,16.1,0,0,1,89.3,63c-1.4-2.1-3-4.4-3.1-7s-1.3-5.3-1.4-8,.6-2.5-.3-3.7a5.3,5.3,0,0,0-3.1-1.5,36.9,36.9,0,0,0-4.5-1.1c-1.5-.1-3,0-4.5,0-5.9,0-11.9.2-17.7-1.3A30.4,30.4,0,0,1,51,38.7a20.5,20.5,0,0,1-3.1-2l-1.7-1.6h-.7a42.5,42.5,0,0,1-6-1.2A51,51,0,0,0,34,31.9l-3.1-.7-1.3-.3H28.3l-5-1.1a1.5,1.5,0,0,1-1.3.3h0l-.4.5-.7.9A13.7,13.7,0,0,1,18.4,34c-1.9,1.8-3.7,3.8-5.6,5.7s-3.7,3.7-5.7,5.4-1.7,1.7-2.6,2.4l-1.3.9-.6.3c-.2.1-.4.4-.2,0-.6,1.8-3.5,1-2.9-.8s1.4-1.6,2.4-2.2a32.2,32.2,0,0,0,2.8-2.4c2.3-2,4.4-4.2,6.5-6.3s4.2-4.3,6.5-6.3l1.2-1.4h-.2l-2.3-.2a10.5,10.5,0,0,0-2.5.1l-.9.2H11.2c-1.6.2-2.6,1.6-4,2.3l-1.7.8H5.1l-.8.4c-.2.1-.3.2-.3.1A2.8,2.8,0,0,1,.9,34.5a3,3,0,0,1-2.1-3.7c.8-2.2,2.7-3,4.7-3.8a10.6,10.6,0,0,0,2-1.2A10.8,10.8,0,0,1,9,23.9l1.6-.3c-1.2-2-1-4.4-1.4-6.6a6.1,6.1,0,0,1,.1-4,30.1,30.1,0,0,1,1.9-3.5,10.4,10.4,0,0,1,2.1-2.6,5.8,5.8,0,0,0,1-1.2,3.2,3.2,0,0,1,1.1-1.2c1.7-.9,3.2,1.7,1.6,2.6h0l-.2.3-.3.4A4.3,4.3,0,0,1,15.4,9a6.6,6.6,0,0,0-1.5,1.9c-.6.9-1.1,1.8-1.6,2.7a3.3,3.3,0,0,0-.2,2.6c.3,1.8.1,3.8.9,5.5a2.7,2.7,0,0,0,1.4,1.4h.7c2.1,0,4.1.3,6.1.4a42.3,42.3,0,0,1,7.1,1.3l3.3.4c1,.3,2,.4,3,.6a54.4,54.4,0,0,1,5.7,1.9c-.9-1.4-1.7-2.9-2.5-4.4S32.5,10,32,7c-.1-.8-.1-1.6-.2-2.4a2.5,2.5,0,0,1,.1-1.5,11.5,11.5,0,0,1,.6-1.7c.1-.6.1-1.3.2-2a1.6,1.6,0,0,1,1.1-1H34a9.6,9.6,0,0,1,2.5.7h0l2.2-.9c.9-.3,5.3.5,4.9,1.7a6,6,0,0,0-.1,3.5c.2,1.1.1,2.2.4,3.3s.2,2.3.4,3.5.7,2.4,1,3.6a10,10,0,0,0,3.6,5.4,53.9,53.9,0,0,0,5.4,4,28.2,28.2,0,0,0,6.1,2.3,29.2,29.2,0,0,0,5.9.3,9.9,9.9,0,0,0,3-.3H70a15.9,15.9,0,0,1-2.2-3.5,28.8,28.8,0,0,1-1.5-5,46,46,0,0,1-1.3-5,36.3,36.3,0,0,1-.3-5.7,22.6,22.6,0,0,1,0-2.6,7.8,7.8,0,0,1,.2-1.4h0A4.4,4.4,0,0,1,65.1.6a3.1,3.1,0,0,1,2.8-1.8h.2a3.1,3.1,0,0,1,3,3V2A4.5,4.5,0,0,1,71,3.1l-.3.8h0a38.4,38.4,0,0,1,0,4.8c.1,2.9,1.2,5.8,1.9,8.6s2.1,4.4,3.8,6.4c.3.4.2.3.6.4a20.4,20.4,0,0,1,2.2.9h.1a11,11,0,0,1,2.6.6h.8a2.4,2.4,0,0,1,1.1.6l5.1,2.3A9.1,9.1,0,0,1,93.3,32a12.8,12.8,0,0,1,2.2,4.9c.5,1.9,1.6,3.6,2,5.5a29.9,29.9,0,0,0,.8,3.2l1.2,2.5c.4.9.5,1.9,1,2.8a32.9,32.9,0,0,0,3.3,4.1,7.6,7.6,0,0,0,1.9,1.2,6.1,6.1,0,0,1,1.7,1.9,6.5,6.5,0,0,0,1.9,1.8,15.8,15.8,0,0,1,3.4,4.3c.5.8,1.1,1.4,1.7,2.2l1.7,2.4.4.6a35.3,35.3,0,0,1,0-4.6,47.2,47.2,0,0,0,.3-8.4,22,22,0,0,1-.4-3.6,94.7,94.7,0,0,0-1-10.7,45,45,0,0,1-.7-7.2,20.6,20.6,0,0,0-.2-3.5,16.9,16.9,0,0,1-.1-3.2c0-2.5-.2-5.1,0-7.6s.3-2.4.3-3.7,0-2.2.2-3.3-.2-12.4-.4-13.4a1.6,1.6,0,0,1,.4-1.4,1.6,1.6,0,0,1,.4-.7,4.2,4.2,0,0,1,1.2-.8,1.3,1.3,0,0,1,1.4.3h2.4a21.6,21.6,0,0,0,3.6,0,35.7,35.7,0,0,1,7.3-.3c1.4,0,2.7.3,4.1.3a24.3,24.3,0,0,0,3.8.3,21.7,21.7,0,0,1,3.6-.2,5.3,5.3,0,0,1,1.2.3,5.5,5.5,0,0,0,1.8-.1l.6.2c1.2-.8,2.8,1.1,1.8,2.4s-.3,1.5-.4,2a15,15,0,0,0-.2,2.2,40.2,40.2,0,0,1-.6,5c-.2,1.6-.1,3.3-.3,4.9s0,1.5-.1,2.3a16.6,16.6,0,0,0-.3,2.2,45.1,45.1,0,0,0,0,5.2,11.4,11.4,0,0,0,.5,4.5c.4,1.3.9,2.6,1.2,3.9a21.2,21.2,0,0,0,1.1-2.1c.8-1.9,1.9-3.8,2.8-5.6a16.4,16.4,0,0,1,4-4.7c1.6-1.5,3.1-3.1,4.7-4.5,3.4-2.8,7.5-4.6,11.3-6.6,1.9-1,7-4.9,7.6-5.8s1.5-1.7,1.5-2.6,3.9-.6,4.4-.5,7-.4,7.4-.3l.8.2h1.4a1.6,1.6,0,0,1,.8.5c1.3.1,1.7,2.4.1,3,.6-.3.2,0,0,.3l-.3.6c-.4.5-3.4,2.7-4.3,3.6a21.3,21.3,0,0,0-2.9,3.1c-.8,1-4,4.7-4.7,5.8s-1.6,2.2-2.2,3.4a19.4,19.4,0,0,1-2.3,3.3,40.8,40.8,0,0,1-2.5,3.3,7,7,0,0,0-1.6,1.4l-1,1.2-2.5,2.2a34.8,34.8,0,0,1-3,2.6,6.4,6.4,0,0,1-1.4.8l-1.1,1c-.9.8-2,1.5-3.1,2.3a24,24,0,0,0-2.7,2.8c-.8.9-1.7,1.6-2.5,2.4a37.1,37.1,0,0,1-2.7,2.9,13.7,13.7,0,0,0-3.2,5.3c-.4,1.2-.9,2.4-1.3,3.7a110.1,110.1,0,0,0-.3,12.1c0,1.4.3,2.9.3,4.3s0,2.5.1,3.8a29.5,29.5,0,0,1,.2,4.2,25.2,25.2,0,0,0,.5,3.7c.2,1.1.3,2.3.5,3.4a25.4,25.4,0,0,1,0,3.9c0,2.8.1,5.5,0,8.3s.3,2.5.4,3.9a25.4,25.4,0,0,1,0,3.9c0,2.7-.2,5.4,0,8.1.1,1.1.3,2.2.4,3.3l1.5-3.8a18.4,18.4,0,0,1,1.9-4,28,28,0,0,0,2.5-4.1,41,41,0,0,0,2.3-4,48.8,48.8,0,0,1,4.8-6.2l2.9-3.6a19.3,19.3,0,0,1,3-2.7,37.4,37.4,0,0,1,6.6-5.3,34.5,34.5,0,0,0,4.1-2.5l1.6-1.3,1.7-.9a14.9,14.9,0,0,0,1.4-1.2c.6-.4,5.5-5.7,6-6.3a11.1,11.1,0,0,0,.7-1.6,4.1,4.1,0,0,0,.3-1.6,12.9,12.9,0,0,1,.4-1.9c.1-1.3-.8-2.7-1.2-3.9a17,17,0,0,1-1.1-4.3c-.1-1.5-.4-2.9-.4-4.4V50.5a25.3,25.3,0,0,0-.3-4.8,18.4,18.4,0,0,1-.4-4.1c0-2.8,1.4-5.9,2.6-8.3a17.6,17.6,0,0,1,5-6.4,23.5,23.5,0,0,1,4.2-2.1l4.2-1.7c5.9-2.1,11.9-4.1,18-5.8l4.6-1,4.1-1.1,4.6-.8,4.1-1.7A66.7,66.7,0,0,0,248.7,9l3-1.7a7.9,7.9,0,0,1,3-1.2c1.5-.1,1.3,13,.8,13.6L254,21.3v.5a1.5,1.5,0,0,1-1.1,1.4H252l-2.4,1c-1.7.8-3.5,1.1-5.4,1.8a31.7,31.7,0,0,1-8.7,1.5h-.4a7.5,7.5,0,0,0-1.6.4l-1.8.4-3.4.8a54.1,54.1,0,0,0-6.9,1.9c-1.9.7-3.6,1.9-5.4,2.7a5.2,5.2,0,0,0-1.8,1l-.9.9c-.6.5-1.1,1.1-1.7,1.7a12.5,12.5,0,0,0-3.4,4.5c-.7,1.8-1.3,3.7-1.8,5.5a7.6,7.6,0,0,0-.2,3,8.2,8.2,0,0,1,.2,2.7,19.1,19.1,0,0,0,1,5.3c.2,1.2.4,2.5.5,3.9a15.9,15.9,0,0,1,1.3-2.2,53.3,53.3,0,0,1,4-4.2,14.5,14.5,0,0,1,4.8-3.4c1.9-.8,3.4-2.2,5.3-2.9a51.7,51.7,0,0,1,5.9-2.3l6.2-2.1,6.1-1.7c4.1-1.1,8-2.8,12.4-2.9a1.5,1.5,0,0,1,0,3c-4.4.1-8.3,2-12.4,3.1s-6.3,1.7-9.4,2.7H236a19.4,19.4,0,0,1,5.9.3c1.6.5,3.4.6,5,1.4l2.1,1a3.8,3.8,0,0,1,1.1,1.1l3.1,1a1.6,1.6,0,0,1,1.1,1v.2l.7.5c.7.6,1.6,5.2,1.8,5.5s-.9,3.6-2.1,2.1a5.8,5.8,0,0,0-1-1.2,3.3,3.3,0,0,0-1.7-.7,14.5,14.5,0,0,1-3.5-1.2c-1-.6-2.2-.9-3.2-1.4l-.7-.2-1.4-.4-1.8-.4c-2.6-.5-5.1-.5-7.6-.8a22.2,22.2,0,0,0-7.7.3,16.2,16.2,0,0,0-6.4,2.9,56.8,56.8,0,0,0-4.7,5.1c-1.5,1.9-2.5,4-3.8,6s-1,2-1.6,2.9a14.5,14.5,0,0,1-1.9,2.3,17.3,17.3,0,0,1-2.4,2.3l-.2.2-1.2,1.1c-1.1.8-2.4,1.6-3.4,2.5s-2,1.9-3.1,2.7l-6.9,5.1c-2.3,1.8-4.8,3.3-7,5.3a47.1,47.1,0,0,0-6,5.8c-1.8,2.3-3.6,4.7-5.3,7.1s-3,5-4.4,7.6-1.5,2.4-2.1,3.7a32.4,32.4,0,0,0-1.3,4.1,46.3,46.3,0,0,0-2.3,8.3,5,5,0,0,1-.2,1.2l1.6-1,1.4-.5,1.5-.9a20.2,20.2,0,0,1,3-1.4c2.2-1,4.6-1.7,6.9-2.5s3.9-1.6,5.8-2.2a45,45,0,0,0,5.5-2.2c3.6-1.9,6.5-4.5,9.6-7.1,1.5-1.3,2.5-2.9,4-4.2s2.8-2.8,4.3-4.2l1.7-1.3a15.7,15.7,0,0,1,2-2.5c1.3-1.5,2.3-3.3,3.5-4.9a13.7,13.7,0,0,0,1.9-2.3A20.1,20.1,0,0,1,216,94a52.9,52.9,0,0,0,2.9-5.2,19.2,19.2,0,0,1,3.6-4.4c1.4-1.3,3-2.5,4.3-3.8a24.1,24.1,0,0,1,2.4-2.1c.7-.5,1.4-1.2,2.2-1.7l2.7-1.3c.8-.4,1.4-.9,2.2-1.4a6.4,6.4,0,0,1,4.4-1.1,1.6,1.6,0,0,1,.7,2.6c-1.4,1.2-3.5,1.6-5.2,2.5a44.2,44.2,0,0,0-5.4,3.4,14.2,14.2,0,0,0-2.6,2.9,1.5,1.5,0,0,1,.3,2.3,85.3,85.3,0,0,0-8.2,10.8l-.3.5.3-.2c2.1-.9,4.3-1.6,6.4-2.3a60.1,60.1,0,0,1,6.1-1.4,44,44,0,0,0,6.2-1.8,14.5,14.5,0,0,0,4.7-3,17.5,17.5,0,0,0,2-1.9c.7-.6,1.5-1.1,2.2-1.8a11.2,11.2,0,0,0,1.7-2.1,7.6,7.6,0,0,1,1.7-2.3c1-1,1.5-2.5,2.3-3.7a1.4,1.4,0,0,1,.9-.8A1.5,1.5,0,0,1,256.8,78.2Zm-4.7-60.1.5-.7h0a3.6,3.6,0,0,1-.7,1ZM65.2,1.5Z"/></svg>