<svg xmlns="http://www.w3.org/2000/svg" width="256" height="256" viewBox="0 0 256 256"><title>icon_sketch</title><path d="M173.9,135.7Zm8.7,94.7ZM73.3,25.8h-.2a.1.1,0,0,1,.1.1ZM67.7,85.3h0ZM178.8,44.6c.2-.3.1-.2,0,0Zm-43.4,77.1h-.1l-.3.2h-.1a.1.1,0,0,0-.1.1l-.6,1.1-.3.7h3.7a36.8,36.8,0,0,1,5.7.6l2.3.4,1.3.2h.1c2.9.3,5.8-.1,8.8.3-.9-.2,2.4.3,1.3.1h3.3a32.5,32.5,0,0,1,5.4.2l1.8.5h1.2l2.7.2h1.2a34.7,34.7,0,0,1,4.5.6h1.2a19,19,0,0,1,2.5.3c2.7.6,5.3,1.6,8,2.2h3.2l2.6.4,1,.2c1.3.1,2.7-.1,4,0a29.3,29.3,0,0,1,4.1.7h.8l1.5.2,2.2.4,1.7.4h1.2c5.7.2,11.4-.4,17.1,1.1l3.5,1.1a12.1,12.1,0,0,1,3.5-4.2,8.1,8.1,0,0,1,6.6-1.1h.3a5.3,5.3,0,0,1,4.9,2.5l.2.3a4.4,4.4,0,0,1,2.4,3.9,8.6,8.6,0,0,1-2.5,5.7,8,8,0,0,1-3.2,3.8,6.2,6.2,0,0,1-5.9.3,6.4,6.4,0,0,1-4-.7,7.4,7.4,0,0,1-1.9-1.5l-.9-.2c-2.3-.6-4.5-1.6-7-2.1h-6.7a69.4,69.4,0,0,1-7.9-.1,34,34,0,0,1-4.6-.9l-1.1-.2-2.4-.3-1.5-.3H195a10.9,10.9,0,0,1-2.6-.5h-.9a17.9,17.9,0,0,1-4-.1c-2.6-.3-5.1-1.3-7.7-1.9l-1-.3h-1.2l-1.6-.2-1.4-.3-.8-.2h-.1c-1.4-.1-2.8-.5-4.2-.5h-1.6l-2.4-.4-1.1-.2h-5.6l-2.2-.2-1.4-.2h-.3a21.7,21.7,0,0,0-3.6-.1,35.5,35.5,0,0,1-8-.6L141,133h-1.1l-2.1-.2,3,3.4c1.4,1.5,2.8,3.1,4.3,4.6l2.4,2.2,1.1.9.8.6v.2l.4.3.7.5,1,.7,2.4,1.5,5.1,2.7a61.2,61.2,0,0,1,10.6,6.7c6,4.7,10.4,11,16.1,16l1.3,1,.3.3.3.2,2.1,1.6a35.7,35.7,0,0,1,5,4.5l2.3,2.2.5.6h.3l.6.4,1.1.6h0l.5.2,2.2.8a22.2,22.2,0,0,1,3.2,1.4l.9.5.7.4,5.3,1.7,1.7.5h.9l3.5.5H221l.7-.2,1.4-.5a4.3,4.3,0,0,1,4.6,1.6,4.1,4.1,0,0,1,.6,4,9.6,9.6,0,0,1,5.9,2.8c3.9,3.8,3,10.6-1.5,13.6a7.8,7.8,0,0,1-6.8.7,7.1,7.1,0,0,1-7.8-1.8,7.5,7.5,0,0,1,0-9.5l.6-.8v-1.4l-1.8-.2h-1.1l-1.7-.2a26.1,26.1,0,0,1-4.2-.8,58.3,58.3,0,0,1-7-2.5l-2.4-1.3h-.2l-.5-.2-1.3-.6a24.2,24.2,0,0,1-5.4-2.5,34.1,34.1,0,0,1-4.8-4.5l-2.4-2.3-.6-.5h0l-1.2-.8a64,64,0,0,1-5-4.1c-2.9-2.7-5.6-5.7-8.3-8.6l-4.2-4.2-2.1-1.8-.6-.5h-.2l-.4-.3-.4-.4a87.5,87.5,0,0,0-10.7-6.2,46.9,46.9,0,0,1-10.2-6.9l-1.9-1.7c.7,1.4,1.3,2.9,2.1,4.3s2.8,5.3,4,8,2.2,4.9,3.4,7.3,3,4.6,3.9,7.3l.6,1.7c.1.1.1.3.2.3s-.4-.4.1.1a13.9,13.9,0,0,1,2.3,3.1,22.7,22.7,0,0,0,1.9,3.4c.7,1.1,1.4,2.1,2,3.2s2.5,4.5,4,6.6c0,.1.4.6.4.7l.4.4,1.1,1.2a29.7,29.7,0,0,1,2.7,3.5c3,4.2,4.9,9.1,7.1,13.8,1.3,2.9,2.5,5.7,3.7,8.6a6.5,6.5,0,0,1,1.9.2c2.6.6,4.4,3,5,5.6a4.6,4.6,0,0,1,1.8,1.3c2.2,2.3,1.7,5.4-.1,7.6a9.2,9.2,0,0,1-4.2,2.8,7.9,7.9,0,0,1-7.5-1.8,10,10,0,0,1-3.1-8.2,40.7,40.7,0,0,1-1.8-4.4l-.8-2h0l-.3-.7c-.3-.7-.7-1.5-1-2.3l-4.5-9.7c-.7-1.5-1.5-2.9-2.3-4.3l-1.4-2.1-.4-.6-.2-.2-.2-.2c-1.2-1.5-2.6-2.9-3.7-4.5s-1.5-2.7-2.3-4a49.2,49.2,0,0,0-2.8-4.5c-.8-1.3-1.7-2.5-2.4-3.9s-.5-.9-.7-1.4v-.2h-.2c-.5-.5-.9-1.1-1.4-1.7s-.1,1-.2,1.4a36.1,36.1,0,0,1-2.5,7.2l-1.5,3.5a1,1,0,0,0-.1.3c-.1.2-.2.3-.2.5l-.6,1.5a67.4,67.4,0,0,1-3,7.4l-1.6,3.3a5.4,5.4,0,0,0-.7,1.3v.4l-.3.8a63.3,63.3,0,0,0-1.9,7.5c-.3,1.4-.8,2.7-1.1,4.1a10.5,10.5,0,0,0-.5,1.9c0,.2-.1.5-.1.8h-.1c-.2,2.5-.2,5.1-.2,7.6a8.8,8.8,0,0,1,5.7,6,6.4,6.4,0,0,1-.7,4.3,12.5,12.5,0,0,1-3.3,5.2,7.3,7.3,0,0,1-5.5,2.5,6.4,6.4,0,0,1-5.7-4.6c-.8-2.9,0-6.2,1.3-8.8v-.2a49,49,0,0,1-.4-9.4,37.4,37.4,0,0,1,1.7-10c.9-3.2,1.3-6.4,2.4-9.5s2.7-5.8,4.1-8.8l.4-.8.3-.8.6-1.9c.5-1.5,1.2-3,1.8-4.5l1-2.4.4-.7a3.9,3.9,0,0,1,.2-.6c.5-1.2.9-2.3,1.3-3.5l.6-2.5h0v-1.5a16.2,16.2,0,0,0-.1-2.2v-.9a1.5,1.5,0,0,0-.1-.7c-.5-3.3-1.6-6.4-2.4-9.7-.5-1.5-.8-3.1-1.3-4.6a20.2,20.2,0,0,0-.7-2.3h-.1a6.1,6.1,0,0,0-.5-1.2c-.8-1.6-1.5-3.3-2.2-4.9a10.4,10.4,0,0,0-.4-1l-.3-.8-1.2-2.6c-.4-1.2-.9-2.3-1.3-3.4a19.8,19.8,0,0,1-2.3-4c-.5-1.3-.9-2.7-1.5-4.1l-.5.2h-.3l-1,.5a.1.1,0,0,1-.1.1l-1.7,1.9c-1,1.2-2,2.5-3.2,3.7l-1.6,1.7-1,1.1c0,.1-.1.2-.1.3s-2.1,2.8-3.2,4.1a28.2,28.2,0,0,1-3.6,3.3l-4.2,3.4-1.7,1.3-.6.4h0l-.8.7c-2.4,2.1-4.6,4.3-7.1,6.2L92,166.7l-.3.2-.2.2-.7.5-3.3,2.8a28,28,0,0,1-4,2.7l-.5.2-.6.5a18.5,18.5,0,0,1-1.4,1.4c-1.9,2.1-4.2,3.7-6.2,5.6l-.9.9a.4.4,0,0,0-.1.3,9.5,9.5,0,0,0-1,1.7,14.2,14.2,0,0,1-2.1,3.3,28.5,28.5,0,0,0-2.3,3.7l-.8,1.7c-.1.1-.2.5-.3.6s-.1.3-.2.5c-2.2,5.4-3.6,11.1-6,16.5-1.2,2.7-2.6,5.4-4,8s-1.3,2.7-1.9,4.1a18.3,18.3,0,0,1-2.6,3.6l-.5.6-.5.8-1.6,2a34.5,34.5,0,0,1-2.8,2.6l-1,.8c-.2,3.3-2.5,6.7-5.6,7.6s-7.3-1.2-9-4.4-1.4-7.4,2-9.5a5.8,5.8,0,0,1,2.2-.8l.6-.4a5.3,5.3,0,0,1,5.3.1l.3-.3.9-.8,1.2-1.3.5-.6,1.1-1.5.8-1,.4-.5a9.9,9.9,0,0,0,1.1-2,38.6,38.6,0,0,1,2-4.1c.8-1.5,1.6-3,2.3-4.5l1.2-2.5.5-1v-.2c.1,0,.1-.1.1-.2,1.2-3,2.1-6.1,3.1-9.1a65.4,65.4,0,0,1,3.9-9.5,38.3,38.3,0,0,1,2.8-4.2,32.5,32.5,0,0,0,2.1-3.7c1.6-3,4.5-4.8,6.9-7l3.7-3.7a23.9,23.9,0,0,1,4.3-2.7,1.8,1.8,0,0,1,.7-.5V164l.7-.5,2-1.7c1.4-1.2,2.9-2.3,4.3-3.3l.3-.2c0-.1.1-.1.2-.2l1.1-.9,2-1.7a4.6,4.6,0,0,1,.7-.7c-2.6,1.4-5.1,2.8-7.8,4l-2.2.9-.4.2-.4.2-2.7,1.2c-1.9.9-3.7,2-5.5,2.8-4.2,2-8.6,3.4-12.9,5.1l-12.7,5.2-1.5.6-.9.4-2.9,1.3a61.2,61.2,0,0,0-5.6,3.1l-3,1.9-1.2.8-.7.6a41.9,41.9,0,0,0-4.5,3.9,25.5,25.5,0,0,1-3,2.6,8.6,8.6,0,0,1,0,3.2,4.6,4.6,0,0,1-3.9,3.2l-1.9,1.6a5.6,5.6,0,0,1-6.2-.3,4.5,4.5,0,0,1-1.5-1.9h-.9a5.6,5.6,0,0,1-3.7-7,14.4,14.4,0,0,1,2.9-5.1l.9-.9c0-.1.1-.1.2-.2a9.1,9.1,0,0,1,10.6-1.5l.4.3a20.9,20.9,0,0,1,2.2-2,53.4,53.4,0,0,1,6.5-5c8.2-5.5,17.7-8.8,26.8-12.5l7-2.7,3.4-1.3h.4l.3-.2,1.6-.7c2-1,4-2.2,6.1-3.1l2.2-1-3.2-.4c-2.8-.4-5.5-1.2-8.2-1.7l-.8-.2h-.9l-2-.2a39.7,39.7,0,0,1-4.8-.7,78.1,78.1,0,0,1-8.4-1.7l-8-1.9L34,143.1l-4.4-1H21.8a9.8,9.8,0,0,1-3.9,5.6c-3.4,2.4-8.5,1.5-10.3-2.4a3.5,3.5,0,0,1-.5-1.3H6.2a4.3,4.3,0,0,1-4.3-4.3,9.1,9.1,0,0,1,2.9-6.4,9.4,9.4,0,0,1,6-2.4h1.3a7.5,7.5,0,0,1,2.6-.5,6.9,6.9,0,0,1,5.6,3.1h3.4c7.7-.3,14.7,2.4,22.1,4.2l5.1,1.1a40.5,40.5,0,0,0,5,1.2l5.9,1.2h1.7l2.6.3c3.7.3,7.3,1.5,11,2.1l.8.2h8.9l5.2-1.1,2.4-.8.7-.3.9-.4c2.9-1.4,5.6-3.2,8.4-4.7s4.9-2.3,7.3-3.5l.3-.2a6.7,6.7,0,0,0,1.1-.7c0-.1.1-.1.1-.2l1.7-1.4a19.3,19.3,0,0,1-4.9-3.1c-2-1.9-3.7-4-5.8-5.8l-.8-.7-.3-.2-1.7-1.2-3.5-2.3c-2.3-1.5-4.8-2.8-7.3-4.1-4.6-2.2-8.8-5.4-13.4-7.6L74,103.9l-3.5-1.4-2.7-1.1h-.3l-.7-.3-4.2-1.6c-4.5-1.9-8.7-4.6-13-7l-1.7-.9-.8-.4H47a20.1,20.1,0,0,0-3.5-1L36,88.7H28.4a2.1,2.1,0,0,0-.4.6c-1.9,3.1-4.3,6.2-8.3,6A7,7,0,0,1,15,93.3a4.4,4.4,0,0,1-3.6-1.5,3.1,3.1,0,0,1-.9-1.1h-.1a4.4,4.4,0,0,1-5.3-3,4.2,4.2,0,0,1,1.2-4.2l.6-1.3a10.3,10.3,0,0,1,2.7-2.8,10.4,10.4,0,0,1,6.3-2.1l2,.4c3.3-1.3,6.9-1.3,9.6,1.3l.9,1.1a30.6,30.6,0,0,1,6.8-.2A50.5,50.5,0,0,1,41.6,81l5.3,1a35.8,35.8,0,0,1,9.9,4.6c3,1.8,6.2,3.4,9.4,5h.2l.7.3,1.2.4,3,1.2,1.1.5.8.3,2.5,1a50.2,50.2,0,0,1,7.5,3.3c-1.8-1.5-3.3-2.7-5.3-4.1a51.5,51.5,0,0,1-8.1-6.7l-2.1-2.6-.2-.3-.8-.9a42.7,42.7,0,0,0-3.6-3.8,75.1,75.1,0,0,1-6.9-7.9L55.3,71l-.2-.3a.1.1,0,0,1-.1-.1l-1.7-1.5L52,67.8l-1.1-1.5c0-.1-.1-.1-.1-.2l-.2-.2A18.8,18.8,0,0,1,49,63.6a6.1,6.1,0,0,1-3.7-2.7,7.1,7.1,0,0,1-6.5.8,6.7,6.7,0,0,1-3.7-7.4V54a9.1,9.1,0,0,1,4.5-8.5,7.1,7.1,0,0,1,9,2.1c3.7.9,6.9,3.3,8,7.1a8,8,0,0,1-.2,4.6h.1l.4.6H57l1.1,1.5.3.3.2.3.9.8a25.4,25.4,0,0,1,3.7,4.3l1,1.4.4.6,1.6,1.8c1.1,1.2,2.2,2.3,3.4,3.4s2.5,2.7,3.7,4.1l.8,1a8.9,8.9,0,0,1,.9,1.2l1.2,1.3,2.1,2,1,.8a2.3,2.3,0,0,1,.5.5l3.6,2.5L88.6,92c-.9-1.8-2.3-3.6-2.8-5.7a26.1,26.1,0,0,0-.6-2.7l-.3-.8-.6-1.2c-.8-1.8-1.7-3.6-2.6-5.4s-1-2.3-1.4-3.4v-.3A1.1,1.1,0,0,1,80,72l-.6-1.1a24.1,24.1,0,0,1-2.3-6,50.9,50.9,0,0,1-1.2-6.8,32.2,32.2,0,0,1-.2-6.2v-2h0a8.7,8.7,0,0,1-.7-3.1v-.4a1.5,1.5,0,0,1-.1-.7l-.3-1.2a26.8,26.8,0,0,0-.7-2.7c-.6-1.9-1.3-3.7-1.9-5.5l-.4-.8h0l-.9-.8-.2-.2h-.1a13.3,13.3,0,0,1-1.9-1.4l-.8-.6a5.8,5.8,0,0,1-4.3-.3,4.1,4.1,0,0,1-1.6.3,6,6,0,0,1-3.9,1.4,6.6,6.6,0,0,1-5.8-3.6,7.1,7.1,0,0,1-.4-6.2,8,8,0,0,1,4-6c3.2-1.6,6.8-.1,8.7,2.7a6.8,6.8,0,0,1,6.1,2,4.7,4.7,0,0,1,1.2,2l1.2.9c.1,0,.1.1.2.2a.1.1,0,0,1,.1.1h.2c2.1,1.5,4.4,3,5.7,5.3a20,20,0,0,1,1.7,4c.4,1.2.9,2.5,1.2,3.7A31.1,31.1,0,0,1,83.1,43l.3,1.7c-.2-1.1.1.9.2,1.5v.3a13.4,13.4,0,0,1,.6,4.4v4c0,.7.1,1.5.1,2.3s.1.7.1,1.1v.2a.4.4,0,0,1,.1.3c.3,1.2.6,2.4.8,3.6l.6,2.3v.4l.3.5c.6,1.4,1.3,2.7,1.9,4.1l.5,1.2c.3.8.1.3,0,.2l.9,1.8c.5,1.2,1.1,2.3,1.7,3.5s1.4,3,2,4.5.5,2.2.8,3.3.3.6.3.7l.5.7.9,1.7c.6,1.1,1.2,2.3,1.9,3.4l3.8,6.7a17.4,17.4,0,0,0,1.1,1.8l.4.6.4.6.5.5.5.6,1.2,1.2a41.2,41.2,0,0,0,2.8,3.1l.6.6c0-.1.3.2.5.4l.4.3.8.5a22.4,22.4,0,0,1,3.4,2.7c.5.6,1,1.3,1.6,1.9l.2.2.8.2,1.2.4v-.7c-.1-1.9.1-3.7.1-5.6V78.8a57.6,57.6,0,0,1,.1-5.9,31.3,31.3,0,0,0,.5-4.9c0-3.6.6-7.1.8-10.6.6-7.4.4-14.7.4-22.1V24.5A7.6,7.6,0,0,1,120,23a5.6,5.6,0,0,1-4.4-7,1.4,1.4,0,0,1-.2-.6c-1.4-4.8,3.7-9.2,8.4-8.1l1.4.6a5,5,0,0,1,2.9,1.2,5.9,5.9,0,0,1,5.9,2.5c2.2,3.6-.7,7.9-3.9,9.7l-.3.2a5.3,5.3,0,0,1-1.2,1.4V34.6c0,7.3.2,14.6-.3,21.8-.3,3.6-.9,7.1-1,10.7a31.4,31.4,0,0,1-.5,6.1v.5a2.8,2.8,0,0,0-.1.9V98.9c0,3.5.1,6.9,0,10.4,0,.9-.1,1.7-.1,2.6l.6-.4,3.2-2.1.2-.2.6-.5a6.9,6.9,0,0,0,1.3-1.1c3.7-3.1,7.6-6.1,11.4-9s7.2-5.2,10.4-8c1.6-1.5,3.4-2.9,4.9-4.4l.7-.9a6.1,6.1,0,0,0,.7-1l1.7-2.5.6-1.3c.1-.1.3-.7.4-.8s.5-2,.7-3a.1.1,0,0,0,.1-.1h0v-.6a9.2,9.2,0,0,0,.1-1.6,30.3,30.3,0,0,1,.2-3.1c.3-2.4.7-4.8,1.2-7.1l.3-2a3.6,3.6,0,0,1,.2-1c.1-.8.1-1.7.2-2.6a55.2,55.2,0,0,1,1.1-7.1,17.1,17.1,0,0,1,.9-3l.9-2.1.3-.8a29.3,29.3,0,0,1,2.5-6.4,15.6,15.6,0,0,0,1.6-2.8l.4-.7.6-1.5a11.8,11.8,0,0,1,4.4-5.4l.4-.3-.4-.2a4.5,4.5,0,0,1,0-6.2,7,7,0,0,1,4.8-2,7.2,7.2,0,0,1,2.9-.6,6,6,0,0,1,6.5,5.6,5,5,0,0,1-.2,1.8,8.6,8.6,0,0,1-.8,7.2,5.1,5.1,0,0,1-7.7,1.5,3.1,3.1,0,0,1-1,.5h-.1c-.1.2-.4.4-.4.5l-.4.6-.4,1a12.2,12.2,0,0,0-.7,1.7c-.5.9-.9,1.8-1.5,2.7a6.4,6.4,0,0,0-.8,1.4,4.3,4.3,0,0,0-.4.7h0v.2a29.9,29.9,0,0,0-1,3.2l-.9,2.2-.3.7a.3.3,0,0,0-.1.2,17.1,17.1,0,0,0-.9,3l-.3,1.4a1.9,1.9,0,0,1-.1.8v.2a3.5,3.5,0,0,1-.1.7,1.7,1.7,0,0,1-.1.7c0,.4-.1.9-.1,1.4s-.3,2.4-.4,3.6-.8,4.2-1.1,6.2l-.3,1.7h0a1.7,1.7,0,0,0-.1.7c-.1,1-.1,2-.2,3.1a22.8,22.8,0,0,1-2.1,9.6l1.4-1.1,4.9-3.9,9.3-7.8c3-2.7,5.8-5.4,8.7-8.3a36.5,36.5,0,0,1,4.9-3.9l.6-.5.6-.4,1.4-1.2.7-.7c-2.4-3.8,0-8.2,3.7-9.7a7.5,7.5,0,0,1,6.5-1.3,6.6,6.6,0,0,1,5.1,5.9,6.2,6.2,0,0,1-.8,3.5,7.5,7.5,0,0,1-.9,2.9c-1.4,2.1-4,4.2-6.6,4.1h-.1l-.7.6a44.7,44.7,0,0,1-4,3.4l-2.6,1.9h-.3l-.5.4-1.2,1.2A236.9,236.9,0,0,1,182.4,86c-5.8,4.6-11.8,9.1-17.4,13.4l5.4-1.1c5.1-1.2,10.1-2.7,15.2-3.6s10.7-2.2,16.2-2.6h1.4l1.7-.4a30.3,30.3,0,0,1,4.2-.6h.6l.8-.2,1.7-.4,3.4-1.1c2.3-.9,4.5-1.9,6.9-2.6l3.5-1.2.7-.2h.3l1.3-.7a51.3,51.3,0,0,0,5.7-3.8l2.7-1.9.8-.7a5.7,5.7,0,0,0,1.1-1.1l.5-.6v-.3l-.3-.9a4.7,4.7,0,0,1,.4-5.6,11.4,11.4,0,0,1,3.6-2.6c2.1-1,4.2-1.5,6.4-.5a5.4,5.4,0,0,1,3.4,4.8c1.4,3.5-.8,7.1-3.8,9a8.5,8.5,0,0,1-2.6,1.1l-.4.4a27.8,27.8,0,0,1-6.3,5.6,57.1,57.1,0,0,1-9.7,5.9c-1.7.7-3.5,1.2-5.2,1.8l-5.3,2a36.5,36.5,0,0,1-5.6,1.8,24.1,24.1,0,0,1-3.7.7h-.8l-1.3.2c-2.1.4-4.2.9-6.4,1.1h-3.7l-1.6.3c-4,.8-8.1,1.4-12.2,2.3s-7.8,2.1-11.7,3c-2,.4-4,.7-5.9,1.2a52.2,52.2,0,0,0-5.6,1.8c-3.5,1.3-7,2.1-10.5,3.3l-1.6.5h-.5l-2.3,1.3c-1.6,1.1-3.1,2.3-4.7,3.3s-3,1.6-4.5,2.5ZM68.2,23.2ZM43.4,55.9h0ZM47.5,61Zm-.1,0h0C47.1,60.7,46.8,60.6,47.4,61ZM8.1,82.4l-.3.2Zm13.1,8.4c-.1.1,0,.2,0,0Zm25.8.3ZM39.4,231.8h0Zm93.6-8Zm49.8,6.9h0Zm-.1-.2Zm-.2-3.9h.1C182.8,226.8,183,226.8,182.5,226.6Zm-1.7-3.3h0C181,223.7,181.4,224.3,180.8,223.3ZM207,187.7Zm-59.8-62.3Zm-16.6-16.2Zm-7.9,28Zm11.5,21.1c-.1-.4,0-.2,0,0Z"/></svg>