<svg enable-background="new 0 0 256 245" height="245" viewBox="0 0 256 245" width="256" xmlns="http://www.w3.org/2000/svg"><path d="m253.543 121.141c-1.584-4.874-6.819-7.542-11.693-5.958-1.128.366-2.13.935-2.997 1.642l-42.395-12.109 30.483-9.904c2.372 2.005 5.689 2.782 8.86 1.752 4.874-1.583 7.542-6.818 5.958-11.693-1.584-4.874-6.818-7.542-11.693-5.958-3.163 1.028-5.387 3.596-6.133 6.602l-30.882 10.034 26.727-34.912c1.378.207 2.823.116 4.238-.344 4.874-1.584 7.542-6.818 5.958-11.693s-6.818-7.542-11.693-5.958c-4.866 1.581-7.531 6.801-5.965 11.668l-29.772 38.889c-1.181-.01-2.383.158-3.569.543-4.127 1.341-6.94 4.846-7.606 8.851l-33.456 10.87c-1.347-1.597-3.071-2.861-5.037-3.661v-35.172c3.755-1.819 6.351-5.655 6.351-10.107 0-1.359-.254-2.656-.696-3.862l26.783-39.927c.268.023.537.041.811.041 5.126 0 9.282-4.156 9.282-9.282s-4.156-9.282-9.282-9.282-9.282 4.156-9.282 9.282c0 1.192.233 2.327.642 3.373l-24.609 36.686v-32.177c2.636-1.637 4.397-4.55 4.397-7.882 0-5.126-4.156-9.282-9.282-9.282s-9.282 4.156-9.282 9.282c0 3.331 1.761 6.244 4.397 7.882v32.51l-24.945-36.259c.621-1.246.98-2.646.98-4.132 0-5.126-4.156-9.282-9.282-9.282s-9.282 4.156-9.282 9.282c0 5.121 4.148 9.273 9.268 9.281l27.551 40.044c-.406 1.161-.638 2.404-.638 3.704 0 4.452 2.596 8.288 6.351 10.107v35.174c-1.965.8-3.69 2.064-5.037 3.661l-33.444-10.867c-.661-4.011-3.475-7.524-7.608-8.867-1.246-.405-2.509-.567-3.748-.537l-29.89-38.104c.106-.249.206-.501.291-.764 1.584-4.874-1.084-10.109-5.958-11.693s-10.109 1.084-11.693 5.958c-1.583 4.874 1.084 10.109 5.958 11.693 1.13.367 2.278.497 3.397.432l27.243 34.73-30.551-9.927c-.742-3.013-2.968-5.589-6.137-6.618-4.874-1.584-10.109 1.084-11.693 5.958s1.084 10.109 5.958 11.693c3.165 1.028 6.476.256 8.847-1.741l30.799 10.007-42.073 12.555c-.991-.973-2.21-1.744-3.621-2.202-4.874-1.584-10.109 1.084-11.693 5.958s1.084 10.109 5.958 11.693c4.871 1.582 10.101-1.081 11.689-5.948l46.284-13.81c1.062.88 2.298 1.585 3.689 2.037 4.333 1.408 8.895.033 11.775-3.13l33.208 10.79c.154 2.162.836 4.173 1.92 5.913l-20.788 28.613c-4.013-.601-8.213.991-10.763 4.5-.737 1.014-1.27 2.112-1.625 3.246l-45.431 16.644c-.202-.176-.409-.348-.63-.508-4.147-3.013-9.951-2.094-12.964 2.053s-2.094 9.951 2.053 12.964 9.951 2.094 12.964-2.053c.7-.964 1.179-2.019 1.464-3.106l41.455-15.188-18.896 26.008c-3.094-.224-6.23 1.097-8.188 3.792-3.013 4.147-2.094 9.951 2.053 12.964s9.951 2.094 12.964-2.053c1.958-2.695 2.246-6.086 1.076-8.96l19.063-26.238-1.086 43.934c-1.233.642-2.345 1.564-3.218 2.765-3.013 4.147-2.094 9.951 2.053 12.964s9.951 2.094 12.964-2.053c3.01-4.143 2.095-9.941-2.043-12.956l1.192-48.211c1.118-.728 2.13-1.658 2.961-2.801 2.684-3.694 2.782-8.469.651-12.19l20.625-28.388c.998.246 2.035.39 3.109.39s2.111-.145 3.109-.39l20.691 28.48c-2.072 3.706-1.954 8.429.705 12.089.695.957 1.514 1.769 2.417 2.436l2.26 48.15c-.215.131-.43.265-.638.416-4.147 3.013-5.066 8.817-2.053 12.964s8.817 5.066 12.964 2.053 5.066-8.817 2.053-12.964c-.71-.977-1.579-1.768-2.541-2.378l-2.102-44.781 19.399 26.701c-1.167 2.873-.879 6.262 1.078 8.955 3.013 4.147 8.817 5.066 12.964 2.053s5.066-8.817 2.053-12.964c-1.959-2.696-5.098-4.018-8.194-3.791l-18.91-26.028 41.306 14.426c.232 1.363.764 2.695 1.631 3.889 3.013 4.147 8.817 5.066 12.964 2.053s5.066-8.817 2.053-12.964-8.817-5.066-12.964-2.053c-.003.003-.006.005-.01.008l-45.895-16.029c-.354-1.174-.896-2.312-1.658-3.36-2.574-3.542-6.829-5.128-10.875-4.48l-20.796-28.624c1.084-1.74 1.766-3.751 1.92-5.913l33.206-10.789c2.88 3.171 7.448 4.551 11.787 3.141 1.453-.472 2.742-1.214 3.834-2.15l45.925 13.117c.061.266.129.532.215.797 1.584 4.874 6.818 7.542 11.693 5.958 4.874-1.584 7.542-6.818 5.958-11.693z"/></svg>