<?xml version="1.0" encoding="utf-8"?>
<!-- Generator: Adobe Illustrator 24.0.1, SVG Export Plug-In . SVG Version: 6.00 Build 0)  -->
<svg version="1.1" id="Layer_1" xmlns="http://www.w3.org/2000/svg" xmlns:xlink="http://www.w3.org/1999/xlink" x="0px" y="0px"
	 viewBox="0 0 1268 418" style="enable-background:new 0 0 1268 418;" xml:space="preserve">
<style type="text/css">
	.st0{fill:#E2E2FB;}
	.st1{fill:#9D9DB6;}
	.st2{fill:#B1B1CA;}
	.st3{fill:#CCCCE5;}
	.st4{fill:#BCBCD5;}
	.st5{fill:#D2D2EB;}
	.st6{fill:#9191AA;}
	.st7{font-family:'RobotoMono-Regular';}
	.st8{font-size:21.7361px;}
</style>
<g>
	<path class="st0" d="M353.4,4.5c-33.9,0.2-63.7,7.6-93.7,23.3l50,94.1c13.5-7,28.5-10.7,43.7-10.9L353.4,4.5L353.4,4.5z"/>
	<path class="st1" d="M307.5,123l-14.3-27l-35.7-67c-37.9,20.4-64.8,47.8-84.6,86.1l94.8,48.3C276.8,146.4,290.6,132.3,307.5,123z"
		/>
	<path class="st2" d="M266.7,165.6l-94.8-48.3c-29.1,57.9-29.6,121.8-1.6,180.3L266,251c-6.2-13-9.4-27.4-9.4-41.9
		C256.4,194,259.9,179.2,266.7,165.6z"/>
	<path class="st3" d="M267,253.1l-95.7,46.6c34.4,69.5,101,111.9,178.4,113.7l1.9-106.5C315.6,305.9,283.1,285.2,267,253.1
		L267,253.1z"/>
	<path class="st4" d="M354.5,307H354l-1.9,106.5h2.5c93.5,0.3,175.2-63.1,198-153.8l-103.2-25.8C438,277,399.1,307,354.5,307
		L354.5,307z"/>
	<path class="st5" d="M452.7,209c0,7.6-0.9,15.1-2.6,22.5l103.3,25.8c4.1-15.8,5.9-32,5.7-48.3C559.1,96.7,468,5.2,355.9,4.5V111
		C409.5,111.7,452.6,155.4,452.7,209L452.7,209z"/>
	<g>
		<text transform="matrix(1 0 0 1 232.8032 117.6489)" class="st6 st7 st8">11</text>
		<text transform="matrix(1 0 0 1 195.249 221.3896)" class="st6 st7 st8">15</text>
		<text transform="matrix(1 0 0 1 266.8794 343.4082)" class="st6 st7 st8">18</text>
		<text transform="matrix(1 0 0 1 427.9341 332.5498)" class="st6 st7 st8">22</text>
		<text transform="matrix(1 0 0 1 452.6343 133.457)" class="st6 st7 st8">30</text>
		<text transform="matrix(1 0 0 1 311.8438 76.647)" class="st6 st7 st8">8</text>
	</g>
</g>
<g>
	<path class="st0" d="M912.6,4.5c-33.9,0.2-63.7,7.6-93.7,23.3l50,94.1c13.5-7,28.5-10.7,43.7-10.9V4.5z"/>
	<path class="st1" d="M866.7,123l-14.3-27l-35.7-67c-37.9,20.4-64.8,47.8-84.6,86.1l94.8,48.3C836,146.4,849.8,132.3,866.7,123z"/>
	<path class="st2" d="M825.9,165.6l-94.8-48.3c-29.1,57.9-29.6,121.8-1.6,180.3l95.7-46.6c-6.2-13-9.4-27.4-9.4-41.9
		C815.6,194,819.1,179.2,825.9,165.6z"/>
	<path class="st3" d="M826.2,253.1l-95.7,46.6c34.4,69.5,101,111.9,178.4,113.7l1.9-106.5C874.8,305.9,842.3,285.2,826.2,253.1
		L826.2,253.1z"/>
	<path class="st4" d="M913.8,307h-0.5l-1.9,106.5h2.5c93.5,0.3,175.2-63.1,198-153.8l-103.2-25.8C997.2,277,958.3,307,913.8,307
		L913.8,307z"/>
	<path class="st5" d="M1011.9,209c0,7.6-0.9,15.1-2.6,22.5l103.3,25.8c4.1-15.8,5.9-32,5.7-48.3c0-112.3-91.1-203.8-203.2-204.5V111
		C968.7,111.7,1011.8,155.4,1011.9,209L1011.9,209z"/>
	<g>
		<text transform="matrix(1 0 0 1 792.0137 117.6489)" class="st6 st7 st8">11</text>
		<text transform="matrix(1 0 0 1 754.46 221.3896)" class="st6 st7 st8">15</text>
		<text transform="matrix(1 0 0 1 826.0898 343.4082)" class="st6 st7 st8">18</text>
		<text transform="matrix(1 0 0 1 987.1445 332.5498)" class="st6 st7 st8">22</text>
		<text transform="matrix(1 0 0 1 1011.8447 133.457)" class="st6 st7 st8">30</text>
		<text transform="matrix(1 0 0 1 871.0537 76.647)" class="st6 st7 st8">8</text>
	</g>
</g>
</svg>
