<?xml version="1.0" encoding="utf-8"?>
<!-- Generator: Adobe Illustrator 22.1.0, SVG Export Plug-In . SVG Version: 6.00 Build 0)  -->
<svg version="1.1" id="Layer_1" xmlns="http://www.w3.org/2000/svg" xmlns:xlink="http://www.w3.org/1999/xlink" x="0px" y="0px"
	 viewBox="0 0 1268 418" style="enable-background:new 0 0 1268 418;" xml:space="preserve">
<style type="text/css">
	.st0{fill:none;stroke:#C4C4C4;stroke-miterlimit:10;}
	.st1{fill:#D1CDC9;}
	.st2{font-family:'RobotoCondensed-Regular';}
	.st3{font-size:20px;}
	.st4{fill:none;stroke:#A4A6C9;stroke-width:2;stroke-miterlimit:10;}
	.st5{fill:none;stroke:#DDB997;stroke-width:2;stroke-miterlimit:10;}
	.st6{fill:none;stroke:#C4B7BD;stroke-width:2;stroke-miterlimit:10;}
	.st7{fill:none;stroke:#B4AEC3;stroke-width:2;stroke-miterlimit:10;}
	.st8{fill:none;stroke:#F3D0AA;stroke-width:2;stroke-miterlimit:10;}
	.st9{fill:none;stroke:#E3C8B0;stroke-width:2;stroke-miterlimit:10;}
	.st10{fill:none;stroke:#D3BFB6;stroke-width:2;stroke-miterlimit:10;}
	.st11{fill:#FFFFFF;}
	.st12{fill:#F3D0AA;}
	.st13{fill:#B4AEC3;}
	.st14{fill:#EBE0D4;}
	.st15{fill:#D3BFB6;}
	.st16{fill:#E3C8B0;}
	.st17{fill:#C4B7BD;}
	.st18{fill:#A4A6C9;}
	.st19{font-size:26px;}
</style>
<g id="Layer_1_1_">
	<g>
		<line class="st0" x1="831" y1="118.8" x2="846" y2="118.8"/>
		<line class="st0" x1="831" y1="46.1" x2="846" y2="46.1"/>
		<line class="st0" x1="831" y1="191.4" x2="846" y2="191.4"/>
		<line class="st0" x1="831" y1="264.1" x2="846" y2="264.1"/>
		<line class="st0" x1="831" y1="336.7" x2="846" y2="336.7"/>
		<line class="st0" x1="831" y1="409.1" x2="846" y2="409.1"/>
		<line class="st0" x1="838.5" y1="409.1" x2="838.5" y2="46.1"/>
	</g>
	<g>
		<line class="st0" x1="426.7" y1="118.8" x2="441.7" y2="118.8"/>
		<line class="st0" x1="426.7" y1="46.1" x2="441.7" y2="46.1"/>
		<line class="st0" x1="426.7" y1="191.4" x2="441.7" y2="191.4"/>
		<line class="st0" x1="426.7" y1="264.1" x2="441.7" y2="264.1"/>
		<line class="st0" x1="426.7" y1="336.7" x2="441.7" y2="336.7"/>
		<line class="st0" x1="426.7" y1="409.1" x2="441.7" y2="409.1"/>
		<line class="st0" x1="434.2" y1="409.1" x2="434.2" y2="46.1"/>
	</g>
	<g>
		<line class="st0" x1="1225.6" y1="118.8" x2="1233.6" y2="118.8"/>
		<line class="st0" x1="1233.6" y1="191.4" x2="1225.6" y2="191.4"/>
		<line class="st0" x1="1233.6" y1="264.1" x2="1225.6" y2="264.1"/>
		<line class="st0" x1="1233.6" y1="336.7" x2="1225.6" y2="336.7"/>
		<polyline class="st0" points="1233.1,409.1 1225.6,409.1 1225.6,46.1 1233.1,46.1 		"/>
		<text transform="matrix(1 0 0 1 1236.3334 52.9336)" class="st1 st2 st3">100</text>
		<text transform="matrix(1 0 0 1 1236.3334 124.9336)" class="st1 st2 st3">80</text>
		<text transform="matrix(1 0 0 1 1236.3334 196.9336)" class="st1 st2 st3">60</text>
		<text transform="matrix(1 0 0 1 1236.3334 268.9336)" class="st1 st2 st3">40</text>
		<text transform="matrix(1 0 0 1 1236.3334 340.9336)" class="st1 st2 st3">20</text>
		<text transform="matrix(1 0 0 1 1236.3334 412.9336)" class="st1 st2 st3">0</text>
	</g>
	<g>
		<line class="st0" x1="35.7" y1="118.8" x2="43.7" y2="118.8"/>
		<line class="st0" x1="43.7" y1="191.4" x2="35.7" y2="191.4"/>
		<line class="st0" x1="43.7" y1="264.1" x2="35.7" y2="264.1"/>
		<line class="st0" x1="43.7" y1="336.7" x2="35.7" y2="336.7"/>
		<polyline class="st0" points="35.7,409.1 43.2,409.1 43.2,46.1 35.7,46.1 		"/>
		<text transform="matrix(1 0 0 1 2.0479 52.9336)" class="st1 st2 st3">100</text>
		<text transform="matrix(1 0 0 1 11.9479 124.9336)" class="st1 st2 st3">80</text>
		<text transform="matrix(1 0 0 1 11.9479 196.9336)" class="st1 st2 st3">60</text>
		<text transform="matrix(1 0 0 1 11.9479 268.9336)" class="st1 st2 st3">40</text>
		<text transform="matrix(1 0 0 1 11.9479 340.9336)" class="st1 st2 st3">20</text>
		<text transform="matrix(1 0 0 1 21.7479 412.9336)" class="st1 st2 st3">0</text>
	</g>
	<polyline class="st4" points="43.2,81.5 434.2,233.3 838.5,118.8 1225.6,191.4 	"/>
	<polyline class="st5" points="43.7,336.7 434.2,395.7 838.5,228.3 1225.6,312.4 	"/>
	<polyline class="st6" points="43.7,191.4 434.2,90.3 838.5,315.7 1225.6,377.2 	"/>
	<polyline class="st7" points="43.7,264.1 434.2,336.7 838.5,191.4 1225.6,118.8 	"/>
	<polyline class="st8" points="43.7,153 434.2,46.1 838.5,85.7 1225.6,46.1 	"/>
	<polyline class="st9" points="43.2,219.8 434.2,191.4 838.5,363.7 1225.6,264.1 	"/>
	<polyline class="st10" points="41.7,220.5 434.2,263.6 838.5,172.3 1225.6,284.3 	"/>
	<rect x="901.3" y="380.3" class="st11" width="35.2" height="23.7"/>
	<circle class="st12" cx="434.2" cy="46.1" r="3.5"/>
	<circle class="st12" cx="838.5" cy="85.8" r="3.5"/>
	<circle class="st12" cx="1225.6" cy="46.1" r="3.5"/>
	<circle class="st13" cx="1225.6" cy="118.6" r="3.5"/>
	<circle class="st13" cx="838.5" cy="191.4" r="3.5"/>
	<circle class="st13" cx="434.2" cy="336.7" r="3.5"/>
	<circle class="st13" cx="43.7" cy="264.1" r="3.5"/>
	<circle class="st14" cx="43.2" cy="336.7" r="3.5"/>
	<circle class="st14" cx="434.2" cy="395.7" r="3.5"/>
	<circle class="st14" cx="838.5" cy="228.3" r="3.5"/>
	<circle class="st14" cx="1225.6" cy="312.4" r="3.5"/>
	<circle class="st15" cx="1225.6" cy="284.3" r="3.5"/>
	<circle class="st16" cx="1225.6" cy="264.1" r="3.5"/>
	<circle class="st16" cx="838.5" cy="363.7" r="3.5"/>
	<circle class="st16" cx="434.2" cy="191.4" r="3.5"/>
	<circle class="st15" cx="838.5" cy="172.3" r="3.5"/>
	<circle class="st15" cx="434.2" cy="264.1" r="3.5"/>
	<circle class="st15" cx="43.7" cy="220.5" r="3.5"/>
	<circle class="st17" cx="43.7" cy="191.4" r="3.5"/>
	<circle class="st17" cx="434.2" cy="90.3" r="3.5"/>
	<circle class="st17" cx="838.5" cy="315.5" r="3.5"/>
	<circle class="st17" cx="1225.6" cy="377.2" r="3.5"/>
	<circle class="st12" cx="43.2" cy="153" r="3.5"/>
	<circle class="st18" cx="43.2" cy="81.3" r="3.5"/>
	<circle class="st18" cx="434.2" cy="233.2" r="3.5"/>
	<circle class="st18" cx="838.5" cy="118.8" r="3.5"/>
	<circle class="st18" cx="1225.6" cy="191.4" r="3.5"/>
	<g>
		<text transform="matrix(1 0 0 1 1190.189 22.293)" class="st1 st2 st19">weight</text>
	</g>
	<g>
		<text transform="matrix(1 0 0 1 806.2263 22.293)" class="st1 st2 st19">safety</text>
	</g>
	<g>
		<text transform="matrix(1 0 0 1 410.8097 22.293)" class="st1 st2 st19">cost</text>
	</g>
	<g>
		<text transform="matrix(1 0 0 1 8.169 22.293)" class="st1 st2 st19">speed</text>
	</g>
</g>
<g id="Layer_2_1_">
</g>
<g id="Layer_3">
</g>
</svg>
