<svg enable-background="new 0 0 650 420" height="420" viewBox="0 0 650 420" width="650" xmlns="http://www.w3.org/2000/svg"><path d="m324 3c-34.3.2-64.5 7.7-94.8 23.6l50.6 95.2c13.7-7.1 28.8-10.8 44.2-11z" fill="#e2e2e2"/><path d="m277.6 123-14.5-27.3-36.1-67.8c-38.4 20.6-65.6 48.4-85.6 87.1l96 48.9c9.1-17.3 23.1-31.5 40.2-40.9z" fill="#9d9d9d"/><path d="m236.3 166.1-96-48.9c-29.5 58.6-30 123.3-1.6 182.5l96.9-47.2c-6.3-13.2-9.5-27.7-9.5-42.4-.2-15.3 3.3-30.3 10.2-44z" fill="#b1b1b1"/><path d="m236.6 254.6-96.9 47.2c34.8 70.3 102.2 113.3 180.6 115.1l1.9-107.8c-36.4-1-69.3-22-85.6-54.5z" fill="#ccc"/><path d="m325.2 309.2h-.5l-1.9 107.8h2.5c94.6.3 177.3-63.9 200.4-155.7l-104.5-26.1c-11.5 43.6-50.9 74-96 74z" fill="#bcbcbc"/><path d="m424.5 210c0 7.7-.9 15.3-2.6 22.8l104.6 26.1c4.1-16 6-32.4 5.8-48.9 0-113.7-92.2-206.3-205.7-207v107.8c54.2.7 97.8 44.9 97.9 99.2z" fill="#d2d2d2"/><g fill="#919191" font-family="'RobotoMono-Regular'" font-size="22"><text transform="translate(201.98 117.54)">11</text><text transform="translate(163.97 222.54)">15</text><text transform="translate(236.47 346.04)">18</text><text transform="translate(399.48 335.05)">22</text><text transform="translate(424.48 133.54)">30</text><text transform="translate(281.98 76.04)">8</text></g></svg>