<?xml version="1.0" encoding="utf-8"?>
<!-- Generator: Adobe Illustrator 22.1.0, SVG Export Plug-In . SVG Version: 6.00 Build 0)  -->
<svg version="1.1" id="Layer_1" xmlns="http://www.w3.org/2000/svg" xmlns:xlink="http://www.w3.org/1999/xlink" x="0px" y="0px"
	 viewBox="0 0 500 500" style="enable-background:new 0 0 500 500;" xml:space="preserve">
<style type="text/css">
	.st0{fill:#BABABA;stroke:#909090;stroke-width:4;stroke-miterlimit:10;}
	.st1{fill:none;stroke:#AFAFAF;stroke-width:2;stroke-linecap:round;stroke-miterlimit:10;stroke-dasharray:0,6;}
	.st2{fill:#514361;}
	.st3{font-family:'RobotoMono-Regular';}
	.st4{font-size:21.9023px;}
	.st5{fill:#898989;}
	.st6{font-size:17.0838px;}
	.st7{fill:none;stroke:#909090;stroke-width:2;stroke-miterlimit:10;}
	.st8{enable-background:new    ;}
	.st9{font-family:'Roboto-Italic';}
	.st10{font-size:12.7034px;}
</style>
<g>
	<rect x="46.7" y="356.6" class="st0" width="49.1" height="37.7"/>
	<rect x="94.9" y="331.6" class="st0" width="49.1" height="62.6"/>
	<rect x="143.9" y="279.9" class="st0" width="49.1" height="114.3"/>
	<rect x="193" y="175.7" class="st0" width="49.1" height="218.6"/>
	<rect x="242.1" y="110" class="st0" width="49.1" height="284.3"/>
	<rect x="291.1" y="200.2" class="st0" width="49.1" height="194"/>
	<rect x="340.2" y="274.5" class="st0" width="98.1" height="119.8"/>
	<line class="st1" x1="315.6" y1="469.4" x2="315.6" y2="450.3"/>
	<line class="st1" x1="266.6" y1="109.5" x2="266.6" y2="76"/>
	<g>
		<g>
			<text transform="matrix(1 0 0 1 211.3037 493.2451)" class="st2 st3 st4">time or interval</text>
		</g>
	</g>
	<g>
		<g>
			<text transform="matrix(1 0 0 1 3.2666 35.7373)" class="st2 st3 st4">frequency</text>
		</g>
	</g>
	<g>
		<g>
			<text transform="matrix(1 0 0 1 235.7344 37.293)" class="st2 st3 st4">bar height</text>
		</g>
	</g>
	<g>
		<g>
			<text transform="matrix(1 0 0 1 89.8359 434.4023)" class="st5 st3 st6">1</text>
		</g>
	</g>
	<g>
		<g>
			<text transform="matrix(1 0 0 1 20.8359 434.4023)" class="st5 st3 st6">0</text>
		</g>
	</g>
	<g>
		<g>
			<text transform="matrix(1 0 0 1 138.8696 434.4023)" class="st5 st3 st6">2</text>
		</g>
	</g>
	<g>
		<g>
			<text transform="matrix(1 0 0 1 12.9033 306.5693)" class="st5 st3 st6">4</text>
		</g>
	</g>
	<g>
		<g>
			<text transform="matrix(1 0 0 1 12.9033 356.5908)" class="st5 st3 st6">2</text>
		</g>
	</g>
	<g>
		<g>
			<text transform="matrix(1 0 0 1 12.9033 251.4971)" class="st5 st3 st6">6</text>
		</g>
	</g>
	<g>
		<g>
			<text transform="matrix(1 0 0 1 3.2666 150.4434)" class="st5 st3 st6">10</text>
		</g>
	</g>
	<g>
		<g>
			<text transform="matrix(1 0 0 1 3.2666 97.002)" class="st5 st3 st6">12</text>
		</g>
	</g>
	<g>
		<g>
			<text transform="matrix(1 0 0 1 12.9033 202.8232)" class="st5 st3 st6">8</text>
		</g>
	</g>
	<g>
		<g>
			<text transform="matrix(1 0 0 1 187.9707 434.4023)" class="st5 st3 st6">3</text>
		</g>
	</g>
	<g>
		<g>
			<text transform="matrix(1 0 0 1 433.1646 434.4023)" class="st5 st3 st6">7</text>
		</g>
	</g>
	<g>
		<g>
			<text transform="matrix(1 0 0 1 333.4189 434.4023)" class="st5 st3 st6">6</text>
		</g>
	</g>
	<g>
		<g>
			<text transform="matrix(1 0 0 1 235.7344 434.4023)" class="st5 st3 st6">4</text>
		</g>
	</g>
	<g>
		<g>
			<text transform="matrix(1 0 0 1 285.6724 434.4023)" class="st5 st3 st6">5</text>
		</g>
	</g>
	<line class="st7" x1="143.9" y1="410.9" x2="143.9" y2="382"/>
	<line class="st7" x1="193" y1="410.9" x2="193" y2="382"/>
	<line class="st7" x1="143.9" y1="410.9" x2="143.9" y2="382"/>
	<line class="st7" x1="94.9" y1="410.9" x2="94.9" y2="382"/>
	<line class="st7" x1="242.1" y1="410.9" x2="242.1" y2="382"/>
	<line class="st7" x1="291.1" y1="410.9" x2="291.1" y2="382"/>
	<line class="st7" x1="340.2" y1="410.9" x2="340.2" y2="382"/>
	<line class="st7" x1="438.3" y1="410.9" x2="438.3" y2="396"/>
	<polyline class="st1" points="340.2,443.3 340.2,450.3 291.1,450.3 291.1,443.3 	"/>
	<line class="st7" x1="45.8" y1="348.7" x2="31.8" y2="348.7"/>
	<line class="st7" x1="45.8" y1="297.4" x2="31.8" y2="297.4"/>
	<line class="st7" x1="45.8" y1="245.7" x2="31.8" y2="245.7"/>
	<line class="st7" x1="45.8" y1="195.8" x2="31.8" y2="195.8"/>
	<line class="st7" x1="45.8" y1="142.8" x2="31.8" y2="142.8"/>
	<path class="st7" d="M31.8,90.7"/>
	<line class="st7" x1="45.8" y1="90.7" x2="31.8" y2="90.7"/>
	<g>
		<g>
			<polyline class="st7" points="45.7,52 45.7,396.4 490,396.4 			"/>
		</g>
	</g>
</g>
<g>
	<text transform="matrix(1 0 0 1 235.7344 55.2861)" class="st8"><tspan x="0" y="0" class="st2 st9 st10">shows frequency of data points in that bin</tspan><tspan x="0" y="15.2" class="st2 st9 st10">(if all bins are equal width, otherwise bar area)</tspan></text>
</g>
<g>
	<g>
		<text transform="matrix(1 0 0 1 330.0913 166.2256)" class="st2 st3 st4">bar width</text>
	</g>
</g>
<g>
	<text transform="matrix(1 0 0 1 321.6948 182.9053)" class="st2 st9 st10">shows the size of the bin</text>
</g>
<line class="st1" x1="389.8" y1="196.1" x2="389.8" y2="256"/>
<polyline class="st1" points="344.4,269 344.4,256 435.1,256 435.1,269 "/>
</svg>
