<?xml version="1.0" encoding="utf-8"?>
<!-- Generator: Adobe Illustrator 19.2.0, SVG Export Plug-In . SVG Version: 6.00 Build 0)  -->
<svg version="1.1" id="Layer_1" xmlns="http://www.w3.org/2000/svg" xmlns:xlink="http://www.w3.org/1999/xlink" x="0px" y="0px"
	 width="1200px" height="1200px" viewBox="0 0 1200 1200" enable-background="new 0 0 1200 1200" xml:space="preserve">
<g>
	
		<rect x="178.5" y="809.5" transform="matrix(-1.836970e-16 1 -1 -1.836970e-16 1115.5 615.5)" fill="#7581BA" stroke="#464A90" stroke-width="4" stroke-miterlimit="10" width="143" height="112"/>
	
		<rect x="231.5" y="750.5" transform="matrix(-1.836970e-16 1 -1 -1.836970e-16 1168.5 444.5)" fill="#7581BA" stroke="#464A90" stroke-width="4" stroke-miterlimit="10" width="261" height="112"/>
	
		<rect x="224.5" y="631.5" transform="matrix(-1.836970e-16 1 -1 -1.836970e-16 1161.5 213.5)" fill="#7581BA" stroke="#464A90" stroke-width="4" stroke-miterlimit="10" width="499" height="112"/>
	
		<rect x="261.5" y="556.5" transform="matrix(-1.836970e-16 1 -1 -1.836970e-16 1198.5 26.5)" fill="#7581BA" stroke="#464A90" stroke-width="4" stroke-miterlimit="10" width="649" height="112"/>
	
		<rect x="408.5" y="591.5" transform="matrix(-1.836970e-16 1 -1 -1.836970e-16 1345.5 -50.5)" fill="#7581BA" stroke="#464A90" stroke-width="4" stroke-miterlimit="10" width="579" height="112"/>
	
		<rect x="964.5" y="811.5" transform="matrix(-1.836970e-16 1 -1 -1.836970e-16 1901.5 -166.5)" fill="#7581BA" stroke="#464A90" stroke-width="4" stroke-miterlimit="10" width="139" height="112"/>
	<line fill="none" stroke="#AFAFAF" stroke-width="8" stroke-miterlimit="10" x1="586" y1="276" x2="586" y2="164"/>
	<line fill="none" stroke="#AFAFAF" stroke-width="8" stroke-miterlimit="10" x1="1034" y1="789" x2="1034" y2="677"/>
	<line fill="none" stroke="#AFAFAF" stroke-width="8" stroke-miterlimit="10" x1="194" y1="781" x2="194" y2="677"/>
	<line fill="none" stroke="#AFAFAF" stroke-width="8" stroke-miterlimit="10" x1="866" y1="893.999" x2="866" y2="801"/>
	<line fill="none" stroke="#AFAFAF" stroke-width="8" stroke-miterlimit="10" x1="922" y1="1148" x2="922" y2="1065"/>
	<line fill="none" stroke="#AFAFAF" stroke-width="8" stroke-miterlimit="10" x1="132" y1="1125" x2="132" y2="962"/>
	<line fill="none" stroke="#AFAFAF" stroke-width="8" stroke-miterlimit="10" x1="965" y1="893.999" x2="767" y2="893.999"/>
	<g>
		<text transform="matrix(1 0 0 1 81.8054 1182.4946)" fill="#7F7F7F" font-family="'Roboto-Regular'" font-size="65px">age</text>
	</g>
	<g>
		<text transform="matrix(1 0 0 1 616.8054 1193.4946)" fill="#7F7F7F" font-family="'Roboto-Regular'" font-size="65px">boundaries or limits</text>
	</g>
	<g>
		<text transform="matrix(1 0 0 1 2.0002 57.2607)" fill="#7F7F7F" font-family="'Roboto-Regular'" font-size="65px">frequencies</text>
	</g>
	<g>
		<text transform="matrix(1 0 0 1 506.9124 150.0063)" fill="#7F7F7F" font-family="'Roboto-Regular'" font-size="65px">mode</text>
	</g>
	<g>
		<text transform="matrix(1 0 0 1 933.9124 659.0063)" fill="#7F7F7F" font-family="'Roboto-Regular'" font-size="65px">outliers</text>
	</g>
	<g>
		<text transform="matrix(1 0 0 1 146.9124 659.0063)" fill="#7F7F7F" font-family="'Roboto-Regular'" font-size="65px">tail</text>
	</g>
	<g>
		<text transform="matrix(1 0 0 1 811.9124 782.0063)" fill="#7F7F7F" font-family="'Roboto-Regular'" font-size="65px">gap</text>
	</g>
	<g>
		<text transform="matrix(1 0 0 1 182.511 1028.6685)" fill="#37246D" font-family="'Roboto-Medium'" font-size="46.1409px">1</text>
	</g>
	<g>
		<text transform="matrix(1 0 0 1 294.4485 1028.6685)" fill="#37246D" font-family="'Roboto-Medium'" font-size="46.1409px">2</text>
	</g>
	<g>
		<text transform="matrix(1 0 0 1 6.886 736.8481)" fill="#37246D" font-family="'Roboto-Medium'" font-size="46.1409px">2</text>
	</g>
	<g>
		<text transform="matrix(1 0 0 1 6.886 851.0376)" fill="#37246D" font-family="'Roboto-Medium'" font-size="46.1409px">1</text>
	</g>
	<g>
		<text transform="matrix(1 0 0 1 6.886 611.1216)" fill="#37246D" font-family="'Roboto-Medium'" font-size="46.1409px">3</text>
	</g>
	<g>
		<text transform="matrix(1 0 0 1 6.886 380.4321)" fill="#37246D" font-family="'Roboto-Medium'" font-size="46.1409px">5</text>
	</g>
	<g>
		<text transform="matrix(1 0 0 1 6.886 264.4321)" fill="#37246D" font-family="'Roboto-Medium'" font-size="46.1409px">6</text>
	</g>
	<g>
		<text transform="matrix(1 0 0 1 6.886 500.0083)" fill="#37246D" font-family="'Roboto-Medium'" font-size="46.1409px">4</text>
	</g>
	<g>
		<text transform="matrix(1 0 0 1 406.5383 1028.6685)" fill="#37246D" font-family="'Roboto-Medium'" font-size="46.1409px">3</text>
	</g>
	<g>
		<text transform="matrix(1 0 0 1 856.2844 1028.6685)" fill="#37246D" font-family="'Roboto-Medium'" font-size="46.1409px">7</text>
	</g>
	<g>
		<text transform="matrix(1 0 0 1 966.2844 1028.6685)" fill="#37246D" font-family="'Roboto-Medium'" font-size="46.1409px">8</text>
	</g>
	<g>
		<text transform="matrix(1 0 0 1 1080.2844 1028.6685)" fill="#37246D" font-family="'Roboto-Medium'" font-size="46.1409px">9</text>
	</g>
	<g>
		<text transform="matrix(1 0 0 1 738.5774 1028.6685)" fill="#37246D" font-family="'Roboto-Medium'" font-size="46.1409px">6</text>
	</g>
	<g>
		<text transform="matrix(1 0 0 1 515.5774 1028.6685)" fill="#37246D" font-family="'Roboto-Medium'" font-size="46.1409px">4</text>
	</g>
	<g>
		<text transform="matrix(1 0 0 1 629.5774 1028.6685)" fill="#37246D" font-family="'Roboto-Medium'" font-size="46.1409px">5</text>
	</g>
	<line fill="none" stroke="#464A90" stroke-width="4" stroke-miterlimit="10" x1="306" y1="975" x2="306" y2="909"/>
	<line fill="none" stroke="#464A90" stroke-width="4" stroke-miterlimit="10" x1="418" y1="975" x2="418" y2="909"/>
	<line fill="none" stroke="#464A90" stroke-width="4" stroke-miterlimit="10" x1="306" y1="975" x2="306" y2="909"/>
	<line fill="none" stroke="#464A90" stroke-width="4" stroke-miterlimit="10" x1="194" y1="975" x2="194" y2="909"/>
	<line fill="none" stroke="#464A90" stroke-width="4" stroke-miterlimit="10" x1="530" y1="975" x2="530" y2="909"/>
	<line fill="none" stroke="#464A90" stroke-width="4" stroke-miterlimit="10" x1="642" y1="975" x2="642" y2="909"/>
	<line fill="none" stroke="#464A90" stroke-width="4" stroke-miterlimit="10" x1="754" y1="975" x2="754" y2="909"/>
	<line fill="none" stroke="#464A90" stroke-width="4" stroke-miterlimit="10" x1="866" y1="975" x2="866" y2="943"/>
	<line fill="none" stroke="#464A90" stroke-width="4" stroke-miterlimit="10" x1="1090" y1="975" x2="1090" y2="909"/>
	<line fill="none" stroke="#464A90" stroke-width="4" stroke-miterlimit="10" x1="978" y1="975" x2="978" y2="909"/>
	<polyline fill="none" stroke="#AFAFAF" stroke-width="8" stroke-miterlimit="10" points="978,1049 978,1065 866,1065 866,1049 	"/>
	<line fill="none" stroke="#464A90" stroke-width="4" stroke-miterlimit="10" x1="114" y1="481" x2="50" y2="481"/>
	<line fill="none" stroke="#464A90" stroke-width="4" stroke-miterlimit="10" x1="114" y1="833" x2="50" y2="833"/>
	<line fill="none" stroke="#464A90" stroke-width="4" stroke-miterlimit="10" x1="114" y1="716" x2="50" y2="716"/>
	<line fill="none" stroke="#464A90" stroke-width="4" stroke-miterlimit="10" x1="114" y1="598" x2="50" y2="598"/>
	<line fill="none" stroke="#464A90" stroke-width="4" stroke-miterlimit="10" x1="114" y1="481" x2="50" y2="481"/>
	<line fill="none" stroke="#464A90" stroke-width="4" stroke-miterlimit="10" x1="114" y1="363" x2="50" y2="363"/>
	<line fill="none" stroke="#464A90" stroke-width="4" stroke-miterlimit="10" x1="114" y1="244" x2="50" y2="244"/>
	<line fill="none" stroke="#464A90" stroke-width="4" stroke-miterlimit="10" x1="114" y1="244" x2="50" y2="244"/>
	<g>
		<g>
			<polyline fill="none" stroke="#464A90" stroke-width="16" stroke-miterlimit="10" points="81.67,139.256 81.67,941.887 
				1156.724,941.887 			"/>
			<g>
				<polygon fill="#464A90" points="53.746,147.426 81.67,99.069 109.593,147.426 				"/>
			</g>
			<g>
				<polygon fill="#464A90" points="1148.553,969.81 1196.91,941.887 1148.553,913.963 				"/>
			</g>
		</g>
	</g>
</g>
</svg>
