<?xml version="1.0" encoding="utf-8"?>
<!-- Generator: Adobe Illustrator 19.2.0, SVG Export Plug-In . SVG Version: 6.00 Build 0)  -->
<svg version="1.1" xmlns="http://www.w3.org/2000/svg" xmlns:xlink="http://www.w3.org/1999/xlink" x="0px" y="0px" width="1268px"
	 height="558px" viewBox="0 0 1268 558" enable-background="new 0 0 1268 558" xml:space="preserve">
<g id="Layer_1">
	<g>
		<line fill="none" stroke="#C4C4C4" stroke-miterlimit="10" x1="48" y1="437.5" x2="1266" y2="437.5"/>
		<line fill="none" stroke="#C4C4C4" stroke-miterlimit="10" x1="48" y1="351.5" x2="1266" y2="351.5"/>
		<line fill="none" stroke="#C4C4C4" stroke-miterlimit="10" x1="48" y1="265.5" x2="1266" y2="265.5"/>
		<line fill="none" stroke="#C4C4C4" stroke-miterlimit="10" x1="48" y1="179.5" x2="1266" y2="179.5"/>
		<line fill="none" stroke="#C4C4C4" stroke-miterlimit="10" x1="48" y1="93.5" x2="1266" y2="93.5"/>
		<line fill="none" stroke="#C4C4C4" stroke-miterlimit="10" x1="48" y1="8.5" x2="1266" y2="8.5"/>
	</g>
	<line fill="none" stroke="#C4C4C4" stroke-miterlimit="10" x1="1265.5" y1="532" x2="1265.5" y2="523"/>
	<line fill="none" stroke="#C4C4C4" stroke-miterlimit="10" x1="1130.5" y1="532" x2="1130.5" y2="523"/>
	<line fill="none" stroke="#C4C4C4" stroke-miterlimit="10" x1="994.5" y1="532" x2="994.5" y2="523"/>
	<line fill="none" stroke="#C4C4C4" stroke-miterlimit="10" x1="858.5" y1="532" x2="858.5" y2="523"/>
	<line fill="none" stroke="#C4C4C4" stroke-miterlimit="10" x1="722.5" y1="532" x2="722.5" y2="523"/>
	<line fill="none" stroke="#C4C4C4" stroke-miterlimit="10" x1="586.5" y1="532" x2="586.5" y2="523"/>
	<line fill="none" stroke="#C4C4C4" stroke-miterlimit="10" x1="450.5" y1="532" x2="450.5" y2="523"/>
	<line fill="none" stroke="#C4C4C4" stroke-miterlimit="10" x1="314.5" y1="532" x2="314.5" y2="523"/>
	<line fill="none" stroke="#C4C4C4" stroke-miterlimit="10" x1="178.5" y1="532" x2="178.5" y2="523"/>
	<line fill="none" stroke="#C4C4C4" stroke-miterlimit="10" x1="43.5" y1="532" x2="43.5" y2="523"/>
	<g opacity="0.5">
		<rect x="42.5" y="510.5" fill="#4F3D6E" stroke="#FFFFFF" stroke-miterlimit="10" width="34" height="12"/>
		<rect x="76.5" y="457.5" fill="#4F3D6E" stroke="#FFFFFF" stroke-miterlimit="10" width="34" height="65"/>
		<rect x="110.5" y="488.5" fill="#4F3D6E" stroke="#FFFFFF" stroke-miterlimit="10" width="34" height="34"/>
		<rect x="144.5" y="467.5" fill="#4F3D6E" stroke="#FFFFFF" stroke-miterlimit="10" width="34" height="55"/>
		<rect x="178.5" y="451.5" fill="#4F3D6E" stroke="#FFFFFF" stroke-miterlimit="10" width="34" height="71"/>
		<rect x="212.5" y="426.5" fill="#4F3D6E" stroke="#FFFFFF" stroke-miterlimit="10" width="34" height="96"/>
		<rect x="246.5" y="351.5" fill="#4F3D6E" stroke="#FFFFFF" stroke-miterlimit="10" width="34" height="171"/>
		<rect x="280.5" y="338.5" fill="#4F3D6E" stroke="#FFFFFF" stroke-miterlimit="10" width="34" height="184"/>
		<rect x="314.5" y="255.5" fill="#4F3D6E" stroke="#FFFFFF" stroke-miterlimit="10" width="34" height="267"/>
		<rect x="348.5" y="225.5" fill="#4F3D6E" stroke="#FFFFFF" stroke-miterlimit="10" width="34" height="297"/>
		<rect x="382.5" y="198.5" fill="#4F3D6E" stroke="#FFFFFF" stroke-miterlimit="10" width="34" height="324"/>
		<rect x="416.5" y="131.5" fill="#4F3D6E" stroke="#FFFFFF" stroke-miterlimit="10" width="34" height="391"/>
		<rect x="450.5" y="179.5" fill="#4F3D6E" stroke="#FFFFFF" stroke-miterlimit="10" width="34" height="343"/>
		<rect x="484.5" y="51.5" fill="#4F3D6E" stroke="#FFFFFF" stroke-miterlimit="10" width="34" height="471"/>
		<rect x="518.5" y="8.5" fill="#4F3D6E" stroke="#FFFFFF" stroke-miterlimit="10" width="34" height="514"/>
		<rect x="552.5" y="93.5" fill="#4F3D6E" stroke="#FFFFFF" stroke-miterlimit="10" width="34" height="429"/>
		<rect x="586.5" y="154.5" fill="#4F3D6E" stroke="#FFFFFF" stroke-miterlimit="10" width="34" height="368"/>
		<rect x="620.5" y="294.5" fill="#4F3D6E" stroke="#FFFFFF" stroke-miterlimit="10" width="34" height="228"/>
		<rect x="654.5" y="332.5" fill="#4F3D6E" stroke="#FFFFFF" stroke-miterlimit="10" width="34" height="190"/>
		<rect x="688.5" y="351.5" fill="#4F3D6E" stroke="#FFFFFF" stroke-miterlimit="10" width="34" height="171"/>
		<rect x="722.5" y="312.5" fill="#4F3D6E" stroke="#FFFFFF" stroke-miterlimit="10" width="34" height="210"/>
		<rect x="756.5" y="393.5" fill="#4F3D6E" stroke="#FFFFFF" stroke-miterlimit="10" width="34" height="129"/>
		<rect x="790.5" y="437.5" fill="#4F3D6E" stroke="#FFFFFF" stroke-miterlimit="10" width="34" height="85"/>
		<rect x="824.5" y="486.5" fill="#4F3D6E" stroke="#FFFFFF" stroke-miterlimit="10" width="34" height="36"/>
		<rect x="858.5" y="467.5" fill="#4F3D6E" stroke="#FFFFFF" stroke-miterlimit="10" width="34" height="55"/>
		<rect x="892.5" y="504.5" fill="#4F3D6E" stroke="#FFFFFF" stroke-miterlimit="10" width="34" height="18"/>
	</g>
	<g opacity="0.7">
		<rect x="484.5" y="488.5" fill="#C8CDEB" stroke="#FFFFFF" stroke-miterlimit="10" width="34" height="34"/>
		<rect x="518.5" y="457.5" fill="#C8CDEB" stroke="#FFFFFF" stroke-miterlimit="10" width="34" height="65"/>
		<rect x="552.5" y="427.5" fill="#C8CDEB" stroke="#FFFFFF" stroke-miterlimit="10" width="34" height="95"/>
		<rect x="586.5" y="469.5" fill="#C8CDEB" stroke="#FFFFFF" stroke-miterlimit="10" width="34" height="53"/>
		<rect x="620.5" y="451.5" fill="#C8CDEB" stroke="#FFFFFF" stroke-miterlimit="10" width="34" height="71"/>
		<rect x="654.5" y="417.5" fill="#C8CDEB" stroke="#FFFFFF" stroke-miterlimit="10" width="34" height="105"/>
		<rect x="688.5" y="286.5" fill="#C8CDEB" stroke="#FFFFFF" stroke-miterlimit="10" width="34" height="236"/>
		<rect x="722.5" y="223.5" fill="#C8CDEB" stroke="#FFFFFF" stroke-miterlimit="10" width="34" height="299"/>
		<rect x="756.5" y="265.5" fill="#C8CDEB" stroke="#FFFFFF" stroke-miterlimit="10" width="34" height="257"/>
		<rect x="790.5" y="179.5" fill="#C8CDEB" stroke="#FFFFFF" stroke-miterlimit="10" width="34" height="343"/>
		<rect x="824.5" y="138.5" fill="#C8CDEB" stroke="#FFFFFF" stroke-miterlimit="10" width="34" height="384"/>
		<rect x="858.5" y="51.5" fill="#C8CDEB" stroke="#FFFFFF" stroke-miterlimit="10" width="34" height="471"/>
		<rect x="892.5" y="93.5" fill="#C8CDEB" stroke="#FFFFFF" stroke-miterlimit="10" width="34" height="429"/>
		<rect x="926.5" y="213.5" fill="#C8CDEB" stroke="#FFFFFF" stroke-miterlimit="10" width="34" height="309"/>
		<rect x="960.5" y="234.5" fill="#C8CDEB" stroke="#FFFFFF" stroke-miterlimit="10" width="34" height="288"/>
		<rect x="994.5" y="338.5" fill="#C8CDEB" stroke="#FFFFFF" stroke-miterlimit="10" width="34" height="184"/>
		<rect x="1028.5" y="288.5" fill="#C8CDEB" stroke="#FFFFFF" stroke-miterlimit="10" width="34" height="234"/>
		<rect x="1062.5" y="319.5" fill="#C8CDEB" stroke="#FFFFFF" stroke-miterlimit="10" width="34" height="203"/>
		<rect x="1096.5" y="372.5" fill="#C8CDEB" stroke="#FFFFFF" stroke-miterlimit="10" width="34" height="150"/>
		<rect x="1130.5" y="437.5" fill="#C8CDEB" stroke="#FFFFFF" stroke-miterlimit="10" width="34" height="85"/>
		<rect x="1164.5" y="488.5" fill="#C8CDEB" stroke="#FFFFFF" stroke-miterlimit="10" width="34" height="34"/>
		<rect x="1198.5" y="451.5" fill="#C8CDEB" stroke="#FFFFFF" stroke-miterlimit="10" width="34" height="71"/>
		<rect x="1232.5" y="467.5" fill="#C8CDEB" stroke="#FFFFFF" stroke-miterlimit="10" width="34" height="55"/>
	</g>
	<g id="Layer_2">
	</g>
	<g>
		<text transform="matrix(1 0 0 1 3 22.3033)"><tspan x="0" y="0" fill="#B3B3B3" font-family="'RobotoCondensed-Regular'" font-size="26px">60</tspan><tspan x="0" y="83" fill="#B3B3B3" font-family="'RobotoCondensed-Regular'" font-size="26px">50</tspan><tspan x="0" y="166" fill="#B3B3B3" font-family="'RobotoCondensed-Regular'" font-size="26px">40</tspan><tspan x="0" y="249" fill="#B3B3B3" font-family="'RobotoCondensed-Regular'" font-size="26px">30</tspan><tspan x="0" y="332" fill="#B3B3B3" font-family="'RobotoCondensed-Regular'" font-size="26px">20</tspan><tspan x="0" y="415" fill="#B3B3B3" font-family="'RobotoCondensed-Regular'" font-size="26px">10</tspan><tspan x="12.835" y="498" fill="#B3B3B3" font-family="'RobotoCondensed-Regular'" font-size="26px">0</tspan></text>
	</g>
	<line fill="none" stroke="#9C96AD" stroke-width="2" stroke-miterlimit="10" x1="43" y1="523" x2="1266" y2="523"/>
	<g>
		<text transform="matrix(1 0 0 1 40.3318 555.954)" fill="#B3B3B3" font-family="'RobotoCondensed-Regular'" font-size="26px">0</text>
	</g>
	<g>
		<text transform="matrix(1 0 0 1 173.1652 555.9539)" fill="#B3B3B3" font-family="'RobotoCondensed-Regular'" font-size="26px">1</text>
	</g>
	<g>
		<text transform="matrix(1 0 0 1 307.6652 555.9539)" fill="#B3B3B3" font-family="'RobotoCondensed-Regular'" font-size="26px">2</text>
	</g>
	<g>
		<text transform="matrix(1 0 0 1 444.1603 555.9539)" fill="#B3B3B3" font-family="'RobotoCondensed-Regular'" font-size="26px">3</text>
	</g>
	<g>
		<text transform="matrix(1 0 0 1 580.1652 555.9539)" fill="#B3B3B3" font-family="'RobotoCondensed-Regular'" font-size="26px">4</text>
	</g>
	<g>
		<text transform="matrix(1 0 0 1 716.1652 555.9539)" fill="#B3B3B3" font-family="'RobotoCondensed-Regular'" font-size="26px">5</text>
	</g>
	<g>
		<text transform="matrix(1 0 0 1 852.1599 555.9539)" fill="#B3B3B3" font-family="'RobotoCondensed-Regular'" font-size="26px">6</text>
	</g>
	<g>
		<text transform="matrix(1 0 0 1 987.155 555.9539)" fill="#B3B3B3" font-family="'RobotoCondensed-Regular'" font-size="26px">7</text>
	</g>
	<g>
		<text transform="matrix(1 0 0 1 1124.155 555.9539)" fill="#B3B3B3" font-family="'RobotoCondensed-Regular'" font-size="26px">8</text>
	</g>
	<g>
		<text transform="matrix(1 0 0 1 1255.155 555.9539)" fill="#B3B3B3" font-family="'RobotoCondensed-Regular'" font-size="26px">9</text>
	</g>
</g>
<g id="Layer_3">
</g>
</svg>
