<?xml version="1.0" encoding="utf-8"?>
<!-- Generator: Adobe Illustrator 22.1.0, SVG Export Plug-In . SVG Version: 6.00 Build 0)  -->
<svg version="1.1" xmlns="http://www.w3.org/2000/svg" xmlns:xlink="http://www.w3.org/1999/xlink" x="0px" y="0px"
	 viewBox="0 0 1268 418" enable-background="new 0 0 1268 418" xml:space="preserve">
<g id="Layer_1">
	<g opacity="0.5">
		<rect x="54.5" y="367.8" fill="#8B8CA4" stroke="#FFFFFF" stroke-miterlimit="10" width="27" height="12"/>
		<rect x="81.5" y="314.8" fill="#8B8CA4" stroke="#FFFFFF" stroke-miterlimit="10" width="27" height="65"/>
		<rect x="108.5" y="345.8" fill="#8B8CA4" stroke="#FFFFFF" stroke-miterlimit="10" width="27" height="34"/>
		<rect x="135.5" y="339.9" fill="#8B8CA4" stroke="#FFFFFF" stroke-miterlimit="10" width="27" height="39.9"/>
		<rect x="162.5" y="326.8" fill="#8B8CA4" stroke="#FFFFFF" stroke-miterlimit="10" width="27" height="53.1"/>
		<rect x="189.5" y="303" fill="#8B8CA4" stroke="#FFFFFF" stroke-miterlimit="10" width="27" height="76.8"/>
		<rect x="216.5" y="256.8" fill="#8B8CA4" stroke="#FFFFFF" stroke-miterlimit="10" width="27" height="123"/>
		<rect x="243.6" y="213.5" fill="#8B8CA4" stroke="#FFFFFF" stroke-miterlimit="10" width="27" height="166.3"/>
		<rect x="270.6" y="186.8" fill="#8B8CA4" stroke="#FFFFFF" stroke-miterlimit="10" width="27" height="193"/>
		<rect x="297.6" y="134.2" fill="#8B8CA4" stroke="#FFFFFF" stroke-miterlimit="10" width="27" height="245.6"/>
		<rect x="324.6" y="95" fill="#8B8CA4" stroke="#FFFFFF" stroke-miterlimit="10" width="27" height="284.8"/>
		<rect x="351.6" y="114.8" fill="#8B8CA4" stroke="#FFFFFF" stroke-miterlimit="10" width="27" height="265"/>
		<rect x="378.6" y="90.8" fill="#8B8CA4" stroke="#FFFFFF" stroke-miterlimit="10" width="27" height="289"/>
		<rect x="405.6" y="41.7" fill="#8B8CA4" stroke="#FFFFFF" stroke-miterlimit="10" width="27" height="338.1"/>
		<rect x="432.6" y="3.3" fill="#8B8CA4" stroke="#FFFFFF" stroke-miterlimit="10" width="27" height="377.5"/>
		<rect x="459.6" y="35.8" fill="#8B8CA4" stroke="#FFFFFF" stroke-miterlimit="10" width="27" height="344"/>
		<rect x="486.6" y="83.6" fill="#8B8CA4" stroke="#FFFFFF" stroke-miterlimit="10" width="27" height="296.3"/>
		<rect x="513.6" y="151.8" fill="#8B8CA4" stroke="#FFFFFF" stroke-miterlimit="10" width="27" height="228"/>
		<rect x="540.7" y="189.8" fill="#8B8CA4" stroke="#FFFFFF" stroke-miterlimit="10" width="27" height="190"/>
		<rect x="567.7" y="208.8" fill="#8B8CA4" stroke="#FFFFFF" stroke-miterlimit="10" width="27" height="171"/>
		<rect x="594.7" y="169.8" fill="#8B8CA4" stroke="#FFFFFF" stroke-miterlimit="10" width="27" height="210"/>
		<rect x="621.7" y="250.8" fill="#8B8CA4" stroke="#FFFFFF" stroke-miterlimit="10" width="27" height="129"/>
		<rect x="648.7" y="294.8" fill="#8B8CA4" stroke="#FFFFFF" stroke-miterlimit="10" width="27" height="85"/>
		<rect x="675.7" y="343.8" fill="#8B8CA4" stroke="#FFFFFF" stroke-miterlimit="10" width="27" height="36"/>
		<rect x="702.7" y="324.8" fill="#8B8CA4" stroke="#FFFFFF" stroke-miterlimit="10" width="27" height="55"/>
		<rect x="729.7" y="361.8" fill="#8B8CA4" stroke="#FFFFFF" stroke-miterlimit="10" width="27" height="18"/>
	</g>
	<g opacity="0.7">
		<rect x="405.6" y="345.8" fill="#968BAF" stroke="#FFFFFF" stroke-miterlimit="10" width="27" height="34"/>
		<rect x="432.6" y="314.8" fill="#968BAF" stroke="#FFFFFF" stroke-miterlimit="10" width="27" height="65"/>
		<rect x="459.6" y="284.8" fill="#968BAF" stroke="#FFFFFF" stroke-miterlimit="10" width="27" height="95"/>
		<rect x="486.6" y="326.8" fill="#968BAF" stroke="#FFFFFF" stroke-miterlimit="10" width="27" height="53"/>
		<rect x="513.6" y="308.8" fill="#968BAF" stroke="#FFFFFF" stroke-miterlimit="10" width="27" height="71"/>
		<rect x="540.7" y="274.8" fill="#968BAF" stroke="#FFFFFF" stroke-miterlimit="10" width="27" height="105"/>
		<rect x="567.7" y="204" fill="#968BAF" stroke="#FFFFFF" stroke-miterlimit="10" width="27" height="175.8"/>
		<rect x="594.7" y="116" fill="#968BAF" stroke="#FFFFFF" stroke-miterlimit="10" width="27" height="263.8"/>
		<rect x="621.7" y="162.1" fill="#968BAF" stroke="#FFFFFF" stroke-miterlimit="10" width="27" height="217.8"/>
		<rect x="648.7" y="83.6" fill="#968BAF" stroke="#FFFFFF" stroke-miterlimit="10" width="27" height="296.3"/>
		<rect x="675.7" y="36.8" fill="#968BAF" stroke="#FFFFFF" stroke-miterlimit="10" width="27" height="343"/>
		<rect x="702.7" y="16" fill="#968BAF" stroke="#FFFFFF" stroke-miterlimit="10" width="27" height="363.8"/>
		<rect x="729.7" y="29" fill="#968BAF" stroke="#FFFFFF" stroke-miterlimit="10" width="27" height="350.8"/>
		<rect x="756.7" y="70.8" fill="#968BAF" stroke="#FFFFFF" stroke-miterlimit="10" width="27" height="309"/>
		<rect x="783.7" y="91.8" fill="#968BAF" stroke="#FFFFFF" stroke-miterlimit="10" width="27" height="288"/>
		<rect x="810.7" y="195.8" fill="#968BAF" stroke="#FFFFFF" stroke-miterlimit="10" width="27" height="184"/>
		<rect x="837.8" y="145.8" fill="#968BAF" stroke="#FFFFFF" stroke-miterlimit="10" width="27" height="234"/>
		<rect x="864.8" y="118.7" fill="#968BAF" stroke="#FFFFFF" stroke-miterlimit="10" width="27" height="261.1"/>
		<rect x="891.8" y="178.6" fill="#968BAF" stroke="#FFFFFF" stroke-miterlimit="10" width="27" height="201.2"/>
		<rect x="918.8" y="235.3" fill="#968BAF" stroke="#FFFFFF" stroke-miterlimit="10" width="27" height="144.5"/>
		<rect x="945.8" y="261.3" fill="#968BAF" stroke="#FFFFFF" stroke-miterlimit="10" width="27" height="118.5"/>
		<rect x="972.8" y="303" fill="#968BAF" stroke="#FFFFFF" stroke-miterlimit="10" width="27" height="76.8"/>
		<rect x="999.8" y="278.3" fill="#968BAF" stroke="#FFFFFF" stroke-miterlimit="10" width="27" height="101.5"/>
		<rect x="1026.8" y="261.8" fill="#968BAF" stroke="#FFFFFF" stroke-miterlimit="10" width="27" height="118"/>
		<rect x="1053.8" y="215.5" fill="#968BAF" stroke="#FFFFFF" stroke-miterlimit="10" width="27" height="164.3"/>
		<rect x="1080.8" y="182.7" fill="#968BAF" stroke="#FFFFFF" stroke-miterlimit="10" width="27" height="197.1"/>
		<rect x="1107.9" y="235.8" fill="#968BAF" stroke="#FFFFFF" stroke-miterlimit="10" width="27" height="144"/>
		<rect x="1134.9" y="261.8" fill="#968BAF" stroke="#FFFFFF" stroke-miterlimit="10" width="27" height="118"/>
		<rect x="1161.9" y="322.9" fill="#968BAF" stroke="#FFFFFF" stroke-miterlimit="10" width="27" height="56.9"/>
		<rect x="1188.9" y="308.8" fill="#968BAF" stroke="#FFFFFF" stroke-miterlimit="10" width="27" height="71"/>
		<rect x="1215.9" y="324.8" fill="#968BAF" stroke="#FFFFFF" stroke-miterlimit="10" width="27" height="55"/>
	</g>
	<g>
		<g>
			<line fill="none" stroke="#C4C4C4" stroke-miterlimit="10" x1="162.9" y1="388.3" x2="162.9" y2="378.9"/>
			<line fill="none" stroke="#C4C4C4" stroke-miterlimit="10" x1="270.9" y1="388.3" x2="270.9" y2="378.9"/>
			<line fill="none" stroke="#C4C4C4" stroke-miterlimit="10" x1="486.9" y1="388.3" x2="486.9" y2="378.9"/>
			<line fill="none" stroke="#C4C4C4" stroke-miterlimit="10" x1="810.9" y1="388.3" x2="810.9" y2="378.9"/>
			<line fill="none" stroke="#C4C4C4" stroke-miterlimit="10" x1="1026.9" y1="388.3" x2="1026.9" y2="378.9"/>
			<line fill="none" stroke="#C4C4C4" stroke-miterlimit="10" x1="378.9" y1="388.3" x2="378.9" y2="378.9"/>
			<line fill="none" stroke="#C4C4C4" stroke-miterlimit="10" x1="594.9" y1="388.3" x2="594.9" y2="378.9"/>
			<line fill="none" stroke="#C4C4C4" stroke-miterlimit="10" x1="702.9" y1="388.3" x2="702.9" y2="378.9"/>
			<line fill="none" stroke="#C4C4C4" stroke-miterlimit="10" x1="918.9" y1="388.3" x2="918.9" y2="378.9"/>
			<line fill="none" stroke="#C4C4C4" stroke-miterlimit="10" x1="1134.9" y1="388.3" x2="1134.9" y2="378.9"/>
			<line fill="none" stroke="#C4C4C4" stroke-miterlimit="10" x1="1242.8" y1="388.3" x2="1242.8" y2="378.9"/>
		</g>
		<g>
			<polyline fill="none" stroke="#C4C4C4" stroke-miterlimit="10" points="55,2 55,379.1 1265.8,379.1 			"/>
			<g>
				<line fill="none" stroke="#C4C4C4" stroke-miterlimit="10" x1="45.3" y1="10" x2="55.3" y2="10"/>
				<line fill="none" stroke="#C4C4C4" stroke-miterlimit="10" x1="45.3" y1="305" x2="55.3" y2="305"/>
				<line fill="none" stroke="#C4C4C4" stroke-miterlimit="10" x1="45.3" y1="231" x2="55.3" y2="231"/>
				<line fill="none" stroke="#C4C4C4" stroke-miterlimit="10" x1="45.3" y1="158" x2="55.3" y2="158"/>
				<line fill="none" stroke="#C4C4C4" stroke-miterlimit="10" x1="45.3" y1="84" x2="55.3" y2="84"/>
			</g>
		</g>
	</g>
	<g>
		<g>
			<text transform="matrix(1 0 0 1 576.2087 413.9653)" fill="#D1CDC9" font-family="'RobotoCondensed-Regular'" font-size="19px">2014</text>
		</g>
		<g>
			<text transform="matrix(1 0 0 1 791.3481 413.9653)" fill="#D1CDC9" font-family="'RobotoCondensed-Regular'" font-size="19px">2016</text>
		</g>
		<g>
			<text transform="matrix(1 0 0 1 1007.3481 413.9653)" fill="#D1CDC9" font-family="'RobotoCondensed-Regular'" font-size="19px">2018</text>
		</g>
		<g>
			<text transform="matrix(1 0 0 1 360.1404 413.9653)" fill="#D1CDC9" font-family="'RobotoCondensed-Regular'" font-size="19px">2012</text>
		</g>
		<g>
			<text transform="matrix(1 0 0 1 144.1401 413.9653)" fill="#D1CDC9" font-family="'RobotoCondensed-Regular'" font-size="19px">2010</text>
		</g>
		<g>
			<text transform="matrix(1 0 0 1 1222.8684 413.9653)" fill="#D1CDC9" font-family="'RobotoCondensed-Regular'" font-size="19px">2020</text>
		</g>
	</g>
	<g>
		<text transform="matrix(1 0 0 1 8.3037 19.05)" fill="#D1CDC9" font-family="'RobotoCondensed-Regular'" font-size="19px">100</text>
	</g>
	<text transform="matrix(1 0 0 1 17.6835 238.6274)" fill="#D1CDC9" font-family="'RobotoCondensed-Regular'" font-size="19px">40</text>
	<text transform="matrix(1 0 0 1 17.6835 166.6274)" fill="#D1CDC9" font-family="'RobotoCondensed-Regular'" font-size="19px">60</text>
	<text transform="matrix(1 0 0 1 17.6836 92.6274)" fill="#D1CDC9" font-family="'RobotoCondensed-Regular'" font-size="19px">80</text>
	<text transform="matrix(1 0 0 1 17.6835 311.0505)" fill="#D1CDC9" font-family="'RobotoCondensed-Regular'" font-size="19px">20</text>
</g>
<g id="Layer_2">
</g>
<g id="Layer_3">
</g>
</svg>
