<svg enable-background="new 0 0 256 251" height="251" viewBox="0 0 256 251" width="256" xmlns="http://www.w3.org/2000/svg"><path d="m241.962 101.81-5.698-11.405 6.434-6.433-1.122-11.131 12.424-16.403-11.195-10.545-24.169-.267-3.733 1.781-13.752-14.894-10.794-2.772h-22.745l-4.785 1.916-7.76-7.76-18.102-8.343-6.768-13.548-8.944 5.768-11.087.557-9.525 29.669 1.883 5.271-15.587 7.79-5.511 10.767-15.006-5.534-19.375 10.15-8.369-5.287-12.645-1.647-9.68 3.39-6.362-1.228-7.989 15.135 10.505 31.539 7.974 5.73 4.495 9.826 16.412-1.741 5.871 9.54 15.987-1.697 3.576 6.825-9.248 14.254 6.823 8.944-2.789 2.968.861 14.857 5.446 8.414 3.872 28.919 21.793 4.012 5.238-2.618 5.083 8.336 6.332 3.369-1.028 16.355 21.483 4.356 6.203-8.927 15.482 2.03 6.351-16.871 11.43 1.525 9.778 7.52 14.414-.605 22.908-34.1v-10.139l10.375-7.612 9.924-20.887v-7.003l8.572-8.571-14.235-14.755zm-80.616-62.94 7.449-2.983h20.784l8.285 2.127 15.596 16.891 6.534-3.117 20.343.225 5.427 5.113-10.549 13.926 1.072 10.633-7.503 7.503 6.516 13.044-8.781 25.101-6.541-2.584-6.696-2.646-19.364-1.346h-.001l-5.524 7.178-10.403-8.088-9.1-18.566-22.312-21.27 3.664-8.347-4.102-10.835 8.606-28.561zm-19.194 45.419 8.068 7.691-41.497 41.497-7.88-7.879zm-30.252 52.365-.279-.279 41.566-41.566 8.068 7.691-23.517 23.517-9.291 1.688v.003 3.948zm52.19-31.192 5.184 10.575-19.816 19.816-7.163-8.597zm-11.997 33.553 19.088-19.088 1.913 3.902 5.596 4.351-19.922 19.922-5.103-2.235v-4.962-.003zm19.906 10.224-5.042-2.209-2.873 1.551 17.866-17.866 2.692 2.093-11.784 15.313zm-83.451-40.696 2.018-15.78 56.579-56.579-6.796 22.556-50.762 50.762zm-.102-19.457-3.146-3.151.336-9.8 53.026-53.026 10.789 4.971zm4.156 23.197 48.196-48.197 2.804 7.407-4.344 9.893-41.313 41.313-.033-.033v-5.481-.003zm42.092-91.003-24.682 24.682-2.882-8.065 2.276-7.088 18.876-18.876 4.148 8.303zm-14.249-7.306-8.297 8.297 2.572-8.01zm-28.956 41.686 17.643-8.816-23.29 23.289.126-3.685zm63.203 162.827-6.355 16.882-14.358-1.882-6.032 8.679-12.27-2.489.943-14.959-8.343-4.44-7.151-11.725-8.453 4.227-15.383-2.833-3.464-25.862-5.313-8.208-.615-10.596 4.548-4.839-7.358-9.644 8.848-13.638-5.553-10.597 4.146-10.224 11.929-3.202 7.305 6.74v5.338l18.391 18.391 24.441-7.381v-.001-3.385l3.777-.686 9.144 10.975v6.757.001l14.957 6.553 4.765-2.572 2.886 1.264 1.258 10.583.99 8.334-9.078 16.558 6.878 6.88-1.625 22.851z"/></svg>