<svg enable-background="new 0 0 1268 418" viewBox="0 0 1268 418" xmlns="http://www.w3.org/2000/svg"><g transform="translate(0 540)"><path d="m203.1-150.8v-14.8h924.5v14.8" fill="none" stroke="#ccc" stroke-width="1.5"/><g transform="translate(.5)"><path d="m202.6-167.1v16.2" fill="none" stroke="#ccc" stroke-width="1.5"/><text fill="#ccc" font-family="'RobotoMono-Regular'" font-size="18" transform="translate(176.1821 -130.6148)">03 AM</text></g><g transform="translate(49.419861)"><path d="m285.7-167.1v16.2" fill="none" stroke="#ccc" stroke-width="1.5"/><text fill="#ccc" font-family="'RobotoMono-Regular'" font-size="18" transform="translate(259.3404 -130.6148)">06 AM</text></g><g transform="translate(98.339721)"><path d="m368.9-167.1v16.2" fill="none" stroke="#ccc" stroke-width="1.5"/><text fill="#ccc" font-family="'RobotoMono-Regular'" font-size="18" transform="translate(342.4991 -130.6148)">09 AM</text></g><g transform="translate(147.259582)"><path d="m452-167.1v16.2" fill="none" stroke="#ccc" stroke-width="1.5"/><text fill="#ccc" font-family="'RobotoMono-Regular'" font-size="18" transform="translate(424.9206 -130.6148)">12 PM</text></g><g transform="translate(196.179443)"><path d="m535.2-167.1v16.2" fill="none" stroke="#ccc" stroke-width="1.5"/><text fill="#ccc" font-family="'RobotoMono-Regular'" font-size="18" transform="translate(508.0784 -130.6148)">03 PM</text></g><g transform="translate(245.099303)"><path d="m618.3-167.1v16.2" fill="none" stroke="#ccc" stroke-width="1.5"/><text fill="#ccc" font-family="'RobotoMono-Regular'" font-size="18" transform="translate(591.2347 -130.6148)">06 PM</text></g><g transform="translate(294.019164)"><path d="m701.5-167.1v16.2" fill="none" stroke="#ccc" stroke-width="1.5"/><text fill="#ccc" font-family="'RobotoMono-Regular'" font-size="18" transform="translate(674.3939 -130.6148)">09 PM</text></g><g transform="translate(342.939024)"><path d="m784.6-167.1v16.2" fill="none" stroke="#ccc" stroke-width="1.5"/><text fill="#ccc" font-family="'RobotoMono-Regular'" font-size="18" transform="translate(758.392 -130.6148)">12 AM</text></g></g><g transform="translate(0 39.465241)"><path d="m1126.2 18.9c-120.5 0-240.9 0-361.4 0-119.9 0-239.8 0-359.5 0-67.9 0-135.8 0-203.7 0h91.7c15.9 0 31.6 1.1 46.7-2.5 14.6-3.5 30.7-1.7 45.8-2.9 8.7-.6 14.6-4 22.9-6 7.5-1.9 15.4-1.6 22.9-3.7 7.8-2.1 14.9-3.8 22.9-5.1 8.9-1.4 14.8-6.8 22.9-10 13-5.1 32.4-5.7 46.7-5.6 8.3 0 15.4 4.8 22.9 3.8 3.7-.5 7.2-3.7 11-4.5 4-.8 7.9.8 11.9-.5 7.5-2.4 14.2-11.6 22.9-12.1 7.5-.5 14.8 5.7 22.9 6.2 9.7.6 14.2-5.2 22.9-6.7 7.2-1.3 15.6 0 22.9 0h92.7 184.4c30.4 0 61.5-2.1 91.7.5 4.9.5 5.9-1.3 10 2.1 3.7 3 3.8 8.1 8.3 10.8 4.9 3 5.4-.6 10 4.5 2.7 3 3.3 7.6 5.9 10.7 5.7 7.2 11.6 5.4 20.8 5.4 10.3 0 14-1 20.2 7.6 6.9 9 10.4 8 20.7 8" fill="#e8e8e8"/><path d="m1126.2 18.9c-120.5 0-240.9 0-361.4 0-119.9 0-239.8 0-359.5 0-67.9 0-135.8 0-203.7 0h187.1 188.1 46.7c3.2 0 7.9.8 11 0 4.8-1.3 7.8-6.4 12.9-6.5 6.8-.3 15.7 4.8 22.9 4.8 15.6 0 28-21.6 41.3-28.8 1.6-.8 2.9.6 4.6-.5 1.9-1.3 2.7-4.3 4.6-5.6 6-4.1 3-4.5 9.2-.6 4.1 2.5 3.8 6.7 9.2 6.2s6.2-5.1 8.9-8.7c7-9.7 9.7-9.5 21.3-9.5h23.8 46.7 93.5 46.7c2.9 0 8.4-1.1 11 0 4.8 1.9 5.1 6.5 7.6 11.6 4.3 8.9 10.3 12.1 16.2 18.8 7.5 8.4 5.7 16.4 17.5 18.3 7 1.1 15.4.6 22.9.6h46.7c8.3-.1 16.3-.1 24.2-.1" fill="#c4c5d1"/><path d="m1126.2 18.9c-120.5 0-240.9 0-361.4 0-119.9 0-239.8 0-359.5 0-67.9 0-135.8 0-203.7 0h269.6 268.8c8.6 0 12.1.2 18.3-6 5.1-5.2 7.8-12.6 13.8-16.5 6.7-4.6 8.6-2.1 16.5 1.1 3.5 1.4 3-1 7.3 2.2 3.2 2.2 4.1 7.6 6.8 9.5 3.2 2.2 5.6 1 8.7 2.2 2.1.8 7.2 4.9 9.1 5.4 8.6 2.1 8.1-3.3 11.6-11.4 1-2.2 2.2-7.3 4-8.3 4.8-2.5 5.6 3.3 9.2 2.4 6-1.6 10.2-13.2 12.9-19.9 3 5.9 7 11 11 16.1 1.7-5.6 3-11.6 5.6-17 3.5-7.9 2.7-7.8 9.7-6.2 2.9.6 2.1 4.6 5.9 4.3 2.7-.2 1.9-5.1 4-5.9 3.7-1.4 8.7-1.1 13.4-1.1h29.4c3.8 0 9.2-1.1 12.9 0 6.4 1.7 7.2 5.7 10.7 11.8 5.1 8.6 11.9 14.2 20.5 20.4 5.4 3.8 6.4 5.2 10.3 11 4.6 6.5 4 6.4 12.6 6.4 18.9.3 37.8 0 56.9 0 21.7-.5 43.5-.5 65.1-.5" fill="#b5aec7"/><path d="m1126.2 18.9c-120.5 0-240.9 0-361.4 0-119.9 0-239.8 0-359.5 0-67.9 0-135.8 0-203.7 0h293.5 293.5 82.5c2.9-.3 7-2.4 9.2-2.4 3.3 0 6.7 4.3 11 2.4 5.9-2.5 8.9-14.8 11.9-20.2 3.5-6.5 6.2-16.4 11-21.8 7.2-7.9 12.9-1.6 21-5.6 4.8 10.2 9.7 20 14.6 30.2 1.7 3.5 3.8 11 6 13.7 3.7 4.3 4 3.8 10.5 3.8h53.3c35.7-.1 71.1-.1 106.6-.1" fill="#a39cb9"/></g><g transform="translate(0 58.716578)"><path d="m1126.2 51.6c-120.5 0-240.9 0-361.4 0s-240.9 0-361.4 0c-33.7 0-67.3 0-101 0-17.2 0-34.2 0-51.4 0-11.6 0-41.3 4.6-49.6-1.3 16.5 3.7 35.5 1.3 52.3 1.3 17.3 0 35 1 52.3 0 34.5-1.7 69-1.4 103.7-1.4 8.4 0 17.3 1.7 25.8 1 11-1 16.2-8.6 23.8-15.7 7.3-6.7 15.9-10.5 24.8-15.6 4.3-2.5 8.6-4.5 12.9-6.7s8.6-7 12.9-8.7c7-2.9 18.9-2.1 26.6-2.2 8.6-.3 17.2 0 25.8 0h52.3 51.4c16.2 0 36.4-3.2 52.3 0 10 2.1 16.1 11.6 25.8 14.5 9.2 2.7 17.6 2.4 26.6 6.4 20 9.1 31.6-8.7 49.6-15.1 3.5-1.3 8.9-1 12.9-1.6 5.2-.8 8.7-2.7 13.8-3.8 7.9-1.6 17.5-.5 25.8-.5h52.3 103.7 25.8c7.3 0 19.7-2.5 26.6 0 4.3 1.6 4.9 6 8.7 8.6 3.3 2.4 9.1 1.9 12.4 4 8.4 5.4 13.8 13 22.9 17.2" fill="#e8e8e8"/><path d="m1126.2 51.6c-120.5 0-240.9 0-361.4 0-119.9 0-239.8 0-359.5 0-67.9 0-135.8 0-203.7 0h188.9 94.5c15.9 0 33.2 1.9 47.7-3 9.1-3 13.7-1.6 22.9-1.4 8.7.2 14.8-5.1 23.8-5.2 7.5-.2 16.9 4.8 23.8 1.9 4-1.6 4.9-6.4 8.3-9.2 5.7-5.1 3.3-2.7 10.2-1.9 1.7.2 3.5 2.5 5.6 2.7 1.7.2 3.7-2.2 5.6-2.4 7-.3 5.1-1 11.9 2.7 5.9 3.2 4.3 1.6 10 2.5 4.6.8 7.3 2.2 11.9 3.3 8.6 2.1 14.9-3.2 23.8-2.9 7.5.3 16.7 4.9 23.8 7.9 14.9 6.4 30 4.9 46.7 4.9h47.7c15.3 0 42-1 45-9.1 3.3-9.4 7.6-18.8 9.7-28.5 2.9-13 4.9-11.8 17.8-11.8h46.7 47.7c14.2 0 33.1-.3 46.7 0 9.9.2 14.5 10 18.9 18 5.1 8.9 9.9 11.1 17.6 17.3 14.5 11.3 24.5 14.2 43.1 14.2z" fill="#c4c5d1"/><path d="m1126.2 51.6c-120.5 0-240.9 0-361.4 0-119.9 0-239.8 0-359.5 0-67.9 0-135.8 0-203.7 0h189.8 189.8 190.8 47.7c8.9 0 45.9-.5 45.9-.5 4-3.3 5.6-25.9 7.2-31.5 3.2-11.1 4.3-17 15.7-17.5 15.9-.6 31.8 0 47.7 0h47.7c8.3 0 17-1.3 23.8 4.1 7.6 5.9 8.7 17.8 11.3 26.9 2.5 8.7 2.7 16.2 11.6 18.4 6.8 1.7 16.7 0 23.8 0h47.7z" fill="#b5aec7"/><path d="m1126.2 51.6c-120.5 0-240.9 0-361.4 0-119.9 0-239.8 0-359.5 0-67.9 0-135.8 0-203.7 0h186.2 187.2 186.2 93.5c6.4 0 22.9-.6 22.9-.6 7-3.3 11.1-14.9 14.3-21.5 3.8-7.6 8.7-19.9 17.8-22.6 2.2-.6 8.3.2 11-.2 3.8-.5 7.6-2.7 11.4-1.4 7.2 2.4 12.9 10.8 20.7 11.9 8.3 1.3 14.2-4.6 22.9 0 7.6 4.1 14.9 10.3 18.3 18.1 1.4 3.3 3 9.2 5.6 12.1 4 4.6 3.5 3.7 10 4 30.8 2.1 62.6 0 93.5 0 7.8.2 15.5.2 23.1.2" fill="#a39cb9"/></g><g transform="translate(0 77.967914)"><path d="m1126.2 84.3c-120.5 0-240.9 0-361.4 0-119.9 0-239.8 0-359.5 0-67.9 0-135.8 0-203.7 0h22.9c10.2 0 13.8-1.9 22.9-5.6 14.3-5.6 31.6-6.2 46.7-3.2 15.3 3.2 30.5 5.1 45.8 7.2 12.7 1.7 35.6 3.5 46.7-2.5 8.3-4.5 13-9.7 22.9-11.1 7.3-1.1 15.9-4.1 22.9-3.7 9.5.6 13 3.8 22.9-.6 9.1-4.1 14.3-5.9 23.8-6.4 6.5-.3 16.7 2.9 22.9 2.1 3.2-.5 7.3-6.7 11-6.5 4.3.3 7.9 7.9 11.9 9.1 6 1.9 15.3-2.4 22.9-2.1 9.2.3 15.3-5.4 23.8-5.9 4-.2 7.3 2.9 11 3 4.1.3 8.1-2.4 11.9-1.9 9.1 1.1 11.8 11 19.2 14.6 7.2 3.5 15.3 1 22.9 1.6 7.8.6 14.9 2.7 22.9 1.9 9.5-.8 14.9-3.8 23.8 1.4s12.2 7 22.9 6.5c5.7-.3 17.8 1.1 22.9-1.1 7.6-3.2 11.6-14.9 19.2-19.7s15.4-3.7 22.9-8.3c4.9-3 6.4-7.6 11.9-6.5 3.8.8 8.3 7.2 11.9 9.2 10 5.6 14.8 2.4 20.2-7 5.7-9.9 6.2-14 18.3-14h92.7 45.8c7.9 0 15.9-.5 23.8 0 10.3.5 12.6 5.4 21.1 11.1 5.1 3.3 5.2 3.7 11 4 7.2.3 3.3-4.3 9.7 2.1 2.7 2.7 3.7 9.5 6.5 11.4s7.9-.6 11.3.5c4.3 1.6 6.7 8.3 11 10 2.9 1.3 9.4 1.1 12.9 1.7 7.5 1.4 16.1.8 22.9 3.3 10 3.9 14.1 5.4 24 5.4" fill="#e8e8e8"/><path d="m1126.2 84.3c-120.5 0-240.9 0-361.4 0-119.9 0-239.8 0-359.5 0-67.9 0-135.8 0-203.7 0h188.9 188.9s125.9 0 188.9 0h47.7c9.1 0 15.7-.3 21.9-5.7 7-6 11-16.1 16.1-23.7 4-6 8.6-17.6 14.3-19.9 5.9-2.2 17.5 0 23.8 0h46.7c14.3 0 34.7-3.5 45.8 4.9 12.1 9.1 8.7 38.6 22.9 44.4 0 0 35.1.2 47.7.2h46.7c8.4-.2 16.4-.2 24.3-.2" fill="#c4c5d1"/><path d="m1126.2 84.3c-120.5 0-240.9 0-361.4 0-119.9 0-239.8 0-359.5 0-67.9 0-135.8 0-203.7 0h314.6 314.6c16.1 0 30 2.7 42.1-8.4.6-.6 3 .8 3.7.2 1.6-1.6 2.2-7.6 2.7-9.7 1.1-4.5 2.1-8.9 3.2-13.4 1-3.8 1.4-10.8 3.8-13.8 3.5-4.6 2.1-3.2 8.6-4 13.4-1.7 29.6-.8 43.1 0 10.2.6 10.2 3.3 12.6 13.5 2.4 9.9 3.8 19.4 6.7 29.1 2.2-1.3 8.1-6.4 11-5.6 3.5 1 4.1 10.5 7.3 11.8 1.7.8 15.7.6 21.1.6h43.1c29-.3 57.8-.3 86.4-.3" fill="#b5aec7"/><path d="m1126.2 84.3c-120.5 0-240.9 0-361.4 0-119.9 0-239.8 0-359.5 0-67.9 0-135.8 0-203.7 0h289.8 287.9 81.7 20.2c4-1.3 4-2.1 7-5.1 1.3-1.3 1.1-4.6 2.5-5.9 1.6-1.4 3.5-.3 5.1-1.7 7.9-6.7 8.1-10.8 12.4-20.2 1.9-4.1 2.2-6.8 6.8-8.9 4.3-1.9 4.9 5.7 9.2-.6 7.3 8.4 7.5 20.2 14.6 27.7 1.4 1.4 4.1 1.4 6.4 3.8 1.7 2.1 1.6 5.7 3.3 7.5 3.7 3.7 4.1 3.3 10.5 3.3h56c37.3.1 74.3.1 111.2.1" fill="#a39cb9"/></g><g transform="translate(0 97.219251)"><path d="m1126.2 117.1c-120.5 0-240.9 0-361.4 0-119.9 0-239.8 0-359.5 0-67.9 0-135.8 0-203.7 0h45.8c13.4 0 33.1 3.8 45.8 0 4-1.1 7-6.2 11-7.3 3.3-1 8.4 0 11.9 0 7.5 0 15.6.8 22.9-.6 14.3-2.7 32.1-10 46.7-8.1 8.9 1.1 14 2.5 22.9 1.7 9.1-.8 14.8 4.6 22.9 4 15.1-1.3 31.6-3.8 45.8-11.4 7.5-4 10.7-14.9 17.5-18 6.7-3 16.2 3.2 22.9 3.7 14.6 1.1 31 4.6 45.8 3.8 2.9-.2 8.4-2.1 11-1.6 4.8 1 6 5.6 10 7.5 5.9 2.9 16.5 4.5 22.9 2.9 8.3-2.1 13.8-4.6 22.9-3.7 8.4 1 14.5 2.5 22.9 1.3 10.5-1.6 11.9-6.8 20.2-11.9 10-6 13.8 4.1 22.9 1.3 8.6-2.7 11.1-11.1 21.1-12.6 7.3-1.1 15.4-.2 22.9-.2h183.5c29.1 0 64.5-5.2 92.7 1.4 7.8 1.9 15.3 3 21.1 8.4 6.5 6 12.4 12.6 19.2 18.3 8.1 6.7 14.2 7.5 22.9 11.3 7.9 3.3 14.2 8.3 22.9 9.9 8 .8 16.3-.1 23.6-.1" fill="#e8e8e8"/><path d="m1126.2 117.1c-120.5 0-240.9 0-361.4 0-119.9 0-239.8 0-359.5 0-67.9 0-135.8 0-203.7 0h188.9 188.9 94.4 23.8c10.5 0 15.4.6 23.8-5.9 13.4-10.2 26.9-20.5 39.6-30.2 8.6-6.5 8.6-12.7 20.2-13.4 7.9-.5 16.2-.2 23.8.8 4.5.5 6.5.2 10.2 2.9 3.2 2.2 4.5 9.2 8.3 11 5.7 2.5 4.5-1.6 10.2-4.5 7.2-3.7 4 .5 11 .3 7.6-.2 4.3-3.5 9.5-7.3 4-2.9 5.7-2.7 10.7-3 7.8-.6 16.1 0 23.8 0h46.7c15.4 0 32.4-2.1 47.7 0 6.5.8 5.1-1 8.6 4.1 2.7 4 4.3 13 5.7 17.6 2.5 8.7 3.2 17.5 11 23.5 11.1 8.4 33.7 4.3 47.2 4.3h46.7c8-.2 16-.2 23.9-.2" fill="#c4c5d1"/><path d="m1126.2 117.1c-120.5 0-240.9 0-361.4 0-119.9 0-239.8 0-359.5 0-67.9 0-135.8 0-203.7 0h188.9 188.9 94.4 47.7 46.7c7.3-1.6 14.3-9.1 21.9-9.2 8.1-.2 12.4 8.7 21.9 9.2 7.6.3 15.3 0 22.9 0 9.7 0 16.5 2.2 21.8-5.4 5.7-8.4 5.9-18.1 12.7-26.1 4.9-5.7 10.2-17.6 17-18 12.4-.3 33.4 0 46.7 0h23.8c12.4 0 13.7 3.2 17.3 15.3 3 9.7 5.7 19.2 11.9 27.5s11 6.7 21.1 6.7h94.4z" fill="#b5aec7"/><path d="m1126.2 117.1c-120.5 0-240.9 0-361.4 0-119.9 0-239.8 0-359.5 0-67.9 0-135.8 0-203.7 0h284.4 282.5 78.9c11.6 0 30.4 4.1 37.2-5.7 4.8-6.7 6-16.1 10.5-23.2 4.5-7.5 9.5-9.1 14.6-14.8 2.9 6.4 8.9 3.2 11 10.8 4.8-18.8 15.9 2.7 21 6.8 2.5 1.9 6.7 1.4 10.2 4.9s5.2 8.3 9.2 11.6c8.6 7.5 12.1 9.5 23.8 9.5h28.5z" fill="#a39cb9"/></g><g transform="translate(0 116.470588)"><path d="m1126.2 149.8c-120.5 0-240.9 0-361.4 0-119.9 0-239.8 0-359.5 0-67.9 0-135.8 0-203.7 0 29.7 0 63.3 4.5 92.7 0 15.1-2.2 30.2-11.8 45.8-12.7 10.7-.6 11.4 1.3 21.1-4.3 7.9-4.6 15.1-9.9 22.9-14.6 8.4-5.1 13.2-10.5 21.9-14 7.3-2.9 11.9-3.8 21.1-3.8h45.8 92.7 184.4 184.4 46.7c7.5 0 15.7-1 22.9 1 9.7 2.7 11.3 9.9 15.6 18.1 5.2 10 9.5 6.5 17.8 12.6 2.7 1.9 4.5 5.7 7.3 7.3 2.9 1.6 8.1 1.3 11.4 2.5 14.6 5.1 30.8 7.9 46.7 7.9z" fill="#e8e8e8"/><path d="m1126.2 149.8c-120.5 0-240.9 0-361.4 0-119.9 0-239.8 0-359.5 0-67.9 0-135.8 0-203.7 0h189.8c9.2 0 15.4 1.9 20.5-6.5 5.2-8.6 5.7-20 9.5-29.3 7.3-17.3 26.1-13.7 42.5-13.7h95.4 46.7c12.4 0 12.2 1.7 20.7 9.2 11.8 10.5 9.7-4.9 19.7-7.3 3.3-.8 7.9 2.2 11.9 1.6 4.3-.6 7.2-3 11.9-3.5 7.8-.8 16.1 0 23.8 0h47.7 188.9c14.6 0 35.9-4.8 45.5 7.6 10.5 13.7 12.1 38.2 31.6 41.8 14.5 2.7 32 0 46.7 0h47.7 24.1z" fill="#c4c5d1"/><path d="m1126.2 149.8c-120.5 0-240.9 0-361.4 0-119.9 0-239.8 0-359.5 0-67.9 0-135.8 0-203.7 0h115.6 58.7 28.5c7.9 0 29.4-.3 29.4-.3 6.5-2.7 16.4-18.9 21.1-25.1 7.3-9.5 5.9-24.3 20.2-24 5.1.2 8.9 2.4 13.8 2.5 5.6.2 10.2-1.9 15.6-2.5 9.2-1.1 19.2 0 28.5 0h29.4c3 0 11.3-1.6 13.8 0 2.9 1.9 6 13 7.3 16.1 5.1 11.1 7.9 24 20.2 28.3 9.1 3.2 19.2 4.9 29.4 4.9 9.5 0 23.4 2.4 32.1-.8 4.6-1.6 10.7-7.2 14.3-10 4.5-3.3.2-6.8 6.8-5.7 3.7.6 3.3 4.9 5.6 6.4 4.5 2.7-.5 4.9 6 2.5 2.5-1 4.1-6.7 5.9-8.6 6.4-6.8 5.7-3.7 13.8-3.8 6.2 0 9.5-.2 15.6.8 6.8 1.1 13.2 4.9 15.6-4.9 8.3 3.5 7.8 15.4 14.6 14 4.9-1.1 4.5-6.4 7.3-9.4 3.2-3.3 8.1-4.8 11-8.3 3.7-4.5 5.1-19.1 11-21 3.7-1.3 6.5 2.9 9.2 3.5 5.7 1.1 5.1-.2 10.2-1.3 3.2-.6 1-2.5 4.6-2.7 3-.2 2.1 2.5 4.6 2.9 3.3.5 4.1 2.1 8.3 1.4 3.3-.5 6.7-3.7 10-4.5 3.7-.8 8.1-.2 11.9-.2h40.5 42.1c5.9 0 14.2-1.6 19.2 1.3 7.6 4.3 7.8 15.3 10 23.4 1.9 6.7 2.5 19.4 8.3 23.7 4.1 3 15.9 1.1 21.1 1.1h40.4c30.8.3 61.9.3 93.1.3" fill="#b5aec7"/><path d="m1126.2 149.8c-120.5 0-240.9 0-361.4 0-119.9 0-239.8 0-359.5 0-67.9 0-135.8 0-203.7 0h130.2 65.2 65.2c6.4-1.6 8.9-9.5 14.6-7.9 7 1.9 5.4 8.6 14.6 7.9 8.1-.5 9.5-4.3 12.1-11.4 3-8.4 5.9-13.7 9.9-21.6 1.3 1 2.4 1.9 3.7 2.9 3-7.3 9.5-8.6 14.6-5.7 2.1 1.1 2.9 4 4.6 5.2 3.8 2.9 4.1 2.4 8.3 4 2.2 1 4.3-.5 6.5.6 1.6.8 4.1 4.6 5.4 5.9 2.1 2.1 3.3 4.5 5.6 5.9 2.4 1.4 6.5.3 9.2 2.5 5.7 4.6 2.1 9.5 10 11.9 4.6 1.3 11.8 0 16.5 0h33.1 128.5 65.2c7.5 0 9.4.8 13.8-4 4.3-4.6 3.8-12.9 9.2-17.2-.3.3 7.2-2.4 7.8-2.7 5.9-2.9-.5-6 6.8-4.8 2.1.3 3.2 5.1 5.6 5.4 4.5.6 2.2-2.1 6.5-3.3 2.9-.8 2.5-3 6.4-2.2 2.5.5 5.1 6.4 6.8 6.5 6.4.5 7.5-11.3 11.1-14.8 5.6-5.1 6.4-2.7 11.3 2.7 1.6 1.7 1.7 6.4 3.7 7.5 2.1 1.1 6.7-1.7 9.2-1 11 3.5 15.1 21.3 25.8 26.1 8.9 4 22.4 1.6 32.1 1.6z" fill="#a39cb9"/></g><g transform="translate(0 135.721925)"><path d="m1126.2 182.6c-120.5 0-240.9 0-361.4 0-119.9 0-239.8 0-359.5 0-67.9 0-135.8 0-203.7 0 17.6 0 35.5.5 53.3 0 8.1-.2 18.4-1.1 25.8-5.1 3.8-2.1 5.7-5.9 9.2-8.9 5.2-4.8 5.7-2.7 11.9-4.8 4.5-1.6 5.9-4.1 10.5-7.2s6.8-1.9 12.4-4c7.3-2.9 2.4-5.6 11-3.2 7.6 2.1 3.2 5.4 11.9 2.1 4.8-1.9 4.8-6 11-5.7 5.1.2 7.5 5.9 12.6 2.7 3.8-2.4 2.9-12.7 6.8-15.1 2.4-1.4 10 0 12.9 0h211.9 211 105.4 53.3c25 0 26.4 23.8 45 34.5 4.5 2.5 8.1 1.1 12.9 2.5 5.1 1.6 8.6 6 13.8 7.5 7.8 2.2 18.6.8 26.6.3 17.8-1.1 34.7 1.7 52.3 2.9" fill="#e8e8e8"/><path d="m1126.2 182.6c-120.5 0-240.9 0-361.4 0-119.9 0-239.8 0-359.5 0-67.9 0-135.8 0-203.7 0h94.4 47.7c7.6 0 15.3.5 22.9 0 11.9-.6 11.4-5.2 17.3-14.5 7.6-11.4 17.6-39.9 35.8-34.8 9.5 2.7 6.4 14 19.2 9.7 4.9-1.6 7.6-2.5 11.9-3.3 1.6-.3 4.3 1.1 5.6.8 3-.8 1.6-3.3 4.3-4.8 11.3-5.4 32-2.5 46.1-2.5h46.7 188.9 94.6 47.7 22.9c5.2 0 19.4-2.5 23.8 0 2.4 1.4 4.5 8.9 6.8 11.3 5.4 5.4 4.6 2.1 9.7 4.6 3.5 1.7 5.4 4.9 9.2 6.7 6.8 3 5.6-.3 11 6.7 4.6 5.9 10.3 15.9 17.3 19.2 5.6 2.5 15.6 1 22.1 1h94.4 24.3z" fill="#c4c5d1"/><path d="m1126.2 182.6c-120.5 0-240.9 0-361.4 0-119.9 0-239.8 0-359.5 0-67.9 0-135.8 0-203.7 0h119.2 59.6c9.9 0 20.5 1.1 30.2 0 2.2-.3 5.9-2.9 7.3-2.9 1.7 0 4 2.7 6.4 2.9 5.1.5 10.5 0 15.6 0 4.8 0 11.9 1.3 16.5 0 8.3-2.4 6.5-7.8 11-14.3 3.2-4.6 7.8-7.5 13.4-11 6.2-4-.2-4.6 6.8-3 2.9.6 5.7 3.3 7.3 5.6 3.7-4 5.9-9.1 7.6-14 3.2-9.1.8-10.7 8.9-12.7 1.9-.5 5.6 1.1 7.3 1.1s5.2-.8 7.3-1.1c4.5-.5 9.2 0 13.8 0 12.2 0 17.8 2.1 28.5 6 2.5 1 4.6 1 7.3 2.4 1.1.6 5.1 2.4 6.4 3 4.6 1.9 9.5 4.9 11.9-2.4 4.1 2.5 9.5 9.4 12.9 9.1 5.9-.5 7.3-9.1 12.9-10.7 7.3-2.2 16.9 7.9 25.8 7.3 5.6-.3 6.8-4 12.9-5.2 4-.8 7.6 3.2 12.9 2.5 11.8-1.3 13.7-22.9 21.9-3.7 3-1.1 7.5-4.8 10-5.2 3.8-.8 6.8 1.4 10.2 1.6 6 .3 4.8-1.3 11-3.5 7.6-2.7 6.4 1.4 11.9 3.2 4.5 1.4 4.8 1.1 9.2-.5 2.2-.8 2.1-3.2 4.6-4 1.6-.5 3.8.2 5.6 0 6.8-1 16.7-.8 22.9.8 3.2.8 5.9 4.3 10 3.8 1.4-.2 2.2-4.3 3.7-4.8 1.7-.5 3.8.3 5.6 0 3.8-.6 7.8 1.1 11 1.1 3.7 0 8.3-.8 12.9-1.1 15.1-1.1 30.7 0 45.8 0 13.4 0 31.8-3 44 1.4 10 3.7 13.2 12.4 15.6 21.9 1.6 6 2.5 22.4 8.3 26.1 3.7 2.2 15.9 0 20.2 0h23.8 45.8c33.6.3 67.4.3 100.9.3" fill="#b5aec7"/><path d="m1126.2 182.6c-120.5 0-240.9 0-361.4 0-119.9 0-239.8 0-359.5 0-67.9 0-135.8 0-203.7 0h277c6.7 0 13.5.3 20.2 0 3-.2 6.4-1 9.2-1.1 1.1 0 2.4-1.6 3.7-1.7 1.7 0 3.5 2.1 4.6 1.9 4.3-.3 4.9.3 9.2-1.9 3.2-1.6 3.8-4.8 8.3-5.9 6.2-1.6 14 7 16.5-4.5 1.4 2.7 3.7 3.3 5.6 4.9 1.6 1.4 3.3 6 4.9 7 3.2 2.1 9.1 1.3 13.4 1.3h27.5 57.7c18.4 0 38.6 2.5 56.9 0 4.3-.6 8.6-3.5 11.9-3.5 4.8 0 8.4 4 14.6 3.5 10.8-.8 22.9 0 27.5-11.8 9.7 7.2 11.1 14.6 23.8 10.2 7.2-2.5 2.2-4.1 10.2-2.1 4 1 5.1 5.2 10.5 3.2 14.3-5.4 21.8-38.6 39.9-27.3 2.1-5.1 7.2-11.9 11.9-12.2.6 0 5.7 2.5 7.3 2.9 4.1.6 4.8-2.7 8.3-1.1 6 2.7 12.1 31.2 20.2 22.4 1.9 3.3 7 12.2 10 14.3 3.7 2.4 8.9 1.6 13.8 1.6h27.5 57.7 114.8z" fill="#a39cb9"/></g><g transform="translate(0 154.973262)"><path d="m1126.2 215.2c-121.1 0-242.1 0-363.3 0-120.5 0-240.9 0-361.4 0-33.7 0-67.3 0-101 0-17.2 0-34.2 0-51.4 0-9.5 0-42.9 4.1-47.7-1.7 9.7 2.9 21.1 2.1 31.2 1.7 11.9-.5 19.1-8.9 30.2-10.8 4.8-.8 9.9 1.4 14.6-.2 4-1.3 2.7.5 5.7-1.9 1.9-1.6 3.3-6.2 5.2-8.3 1.3-1.4 2.9-5.2 4.6-5.9 1.3-.5 4.6 3.7 7.3 2.5 6.5-2.5 4.9-9.2 9.2-14.3 6.8-7.9 5.6.3 11.9-2.1 6.8-2.5 6.5-7.2 13.8-8.7 9.5-1.9 21.5 0 31.2 0h60.6 121.9 61.5c9.9 0 19.9 1.1 29.4.6s21.3-2.1 31.2-.6c4.6.6 10.3 1.6 14.6 2.9 5.6 1.6 7.5 5.2 12.9 7.9 8.7 4.3 19.7 2.9 28.5 9.9 11.4 9.2 15.3 15.4 25.3.6 5.6-8.4 12.2-19.2 22.4-21.3 18.4-3.7 41.7 0 60.6 0h61.5 60.6 30.2c9.1 0 6.7.2 11.9 5.4 3.3 3.3-.3 4.8 4.6 5.7 2.9.6 6.2-3.8 8.3-3.3 6.8 1.6 14.6 24.2 19.2 29.7 7.5 8.7 16.4 10.5 25.3 4 5.7-4.1 4.8-5.9 11.4-7 6.4-1 8.7 2.7 13.8 4.8 10.2 4.1 20.4 1.9 31.2 5.7" fill="#e8e8e8"/><path d="m1126.2 215.2c-120.5 0-240.9 0-361.4 0-119.9 0-239.8 0-359.5 0-67.9 0-135.8 0-203.7 0h80.8 40.4c13.5-4.5 9.2-30.5 21.9-39.6.8 1.7 2.9 3 3.7 4.9 4.1-10.3 5.1-14.8 16.5-14.8 6.7 0 17.5-2.7 20.2 5.1 12.2-15.7 19.4 3 21.9 13.2 3.8-11.3 4-18.3 16.5-18.3h23.8 50.4 49.6c3.8 0 8.3-.6 11.9 0 6.8 1.3 5.4 2.9 11 6.5 5.4 3.7 18.4 14.2 23.8 10 2.5 4.8 5.4 10.7 8.6 14.8 5.6 7.5 4 4.1 12.6 7.8 10 4.3 13.7 12.4 26.6 10.3 12.1-2.1 13.2-8.9 26.6-3.7 9.7 4 17.8 3.7 28.5 3.7h56.9c4 0 10.2 1 13.4-.8 3.3-1.9 7.5-11 9.4-14.3 4.9-8.9 7.5-24.2 14.9-31 5.9-5.4 6.8-1 12.9-1 5.2 0 9.4-1.7 14.6-2.4 9.2-1.1 19.2 0 28.5 0h56.9 28.5c6 0 22.6-.8 27.5 2.4 3.7 2.4 5.1 10 7.9 13.4 1.3 1.6 4.8 2.5 5.7 3.8 1.7 2.2 3.2 5.7 5.2 8.6 2.7 4 7.3 7.5 9.4 9.4 1 1 6.8 11.8 9.2 11.8 9.5.2 24.8.2 32.1.2h32.1z" fill="#c4c5d1"/><path d="m1126.2 215.2c-120.5 0-240.9 0-361.4 0-119.9 0-239.8 0-359.5 0-67.9 0-135.8 0-203.7 0h89 44c4.6 0 19.9 0 21.3-.6 3.3-1.6 5.7-23.8 14.5-13 .8-2.2 3-4 3.7-6.2 5.1 12.4 13.4 29.7 21.9 10 2.5 6 8.7 12.4 15.6 8.9 6.5-3.3 4.5-17.5 5.4-24 .8-5.6.8-17.3 4.1-21.5 6.2-7.6 8.9 1.6 15.1 4.6.8-2.1 3-3.8 3.7-5.9 7.8 10.8 9.7 23.5 18.3 33.7.8-1.7 2.9-2.9 3.7-4.6 5.1 5.1 8.3 8.9 11 15.7 4.8-11.1 7.8-20.5 11-32.1 3.7-13 6.5-14.3 19.2-14.3 13 0 12.4 5.7 18 16.9 5.6 11.3 12.7 13.7 23.2 19.4 4.1 2.2 9.1 2.7 12.9 5.1 5.7 3.7 5.6 6.5 11.9 8.1 7.8 1.9 18.6 0 26.6 0h54.1 107.2c9.1 0 18.4.5 27.5 0 4.5-.3 8.9-1.7 12.9-1.7 5.1 0 8.7 3 13.8 1 10.3-4.3 10.2-20.7 13.8-30.2 3.8-10.3 11.1-17.6 21.9-18.4 9.7-.6 19.7 0 29.4 0 13 0 18.9-2.1 23.1 11.3 1.3 4.1 2.1 16.1 8.1 14.9 5.4-1 5.2-11 7.9-14.6 5.1-6.8 4.9-4.9 9.9.5 3.7 4-.3 5.7 5.1 6.5 2.1.3 6.4-3 8.3-4.3 1.9 4.5 9.1 22.1 14.6 11.1 7.2 5.4 3.8 19.6 11 23.8 4.1 2.4 17 0 21.9 0h46.7 93.3z" fill="#b5aec7"/><path d="m1126.2 215.2c-120.5 0-240.9 0-361.4 0-119.9 0-239.8 0-359.5 0-67.9 0-135.8 0-203.7 0h114.6 56.9 28.5 14.6c7.5-1.7 6.4-2.9 9.2-11.3 3.2 9.9 2.9 11.1 12.9 11.3 6 .2 12.2 0 18.3 0h18.4c2.5 0 5.9.6 8.3 0 7-2.1 2.5-2.2 7.6-7 3-2.9 12.9-10 16.2-8.7 6 2.1 5.4 13.4 11.9 15.7h36.7 146.7 73.5 35.8c5.6 0 11.9.8 17.5 0 9.1-1.3 8.6-3.5 12.9-12.4 5.6-11.6 12.1-32.6 25.8-27.3 2.1.8 5.1 4.1 7.3 5.2 2.9 1.3 6.2.2 9.2 2.4 4.8 3.7 7.2 14.2 9.2 19.2 3.5 9.1 2.9 11.9 12.9 12.9 6 .5 12.2 0 18.3 0h36.7z" fill="#a39cb9"/></g><g transform="translate(0 48.609626)"><path d="m201.7-14.9h-16.2" fill="none" stroke="#ccc" stroke-width="1.5"/><text fill="#ccc" font-family="'RobotoMono-Regular'" font-size="18" transform="translate(131.0376 -10.306)">mar</text></g><g transform="translate(0 67.860963)"><path d="m201.7 17.7h-16.2" fill="none" stroke="#ccc" stroke-width="1.5"/><text fill="#ccc" font-family="'RobotoMono-Regular'" font-size="18" transform="translate(131.0376 22.4202)">apr</text></g><g transform="translate(0 87.112299)"><path d="m201.7 50.6h-16.2" fill="none" stroke="#ccc" stroke-width="1.5"/><text fill="#ccc" font-family="'RobotoMono-Regular'" font-size="18" transform="translate(131.0376 55.1459)">may</text></g><g transform="translate(0 106.363636)"><path d="m201.7 83.2h-16.2" fill="none" stroke="#ccc" stroke-width="1.5"/><text fill="#ccc" font-family="'RobotoMono-Regular'" font-size="18" transform="translate(131.0376 87.8711)">jun</text></g><g transform="translate(0 125.614973)"><path d="m201.7 116h-16.2" fill="none" stroke="#ccc" stroke-width="1.5"/><text fill="#ccc" font-family="'RobotoMono-Regular'" font-size="18" transform="translate(131.0376 120.5964)">jul</text></g><g transform="translate(0 144.86631)"><path d="m201.7 148.7h-16.2" fill="none" stroke="#ccc" stroke-width="1.5"/><text fill="#ccc" font-family="'RobotoMono-Regular'" font-size="18" transform="translate(131.0376 153.3216)">aug</text></g><g transform="translate(0 164.117647)"><path d="m201.7 181.4h-16.2" fill="none" stroke="#ccc" stroke-width="1.5"/><text fill="#ccc" font-family="'RobotoMono-Regular'" font-size="18" transform="translate(131.0376 186.0478)">sep</text></g><path d="m202.2 2.8v370.7" fill="none" stroke="#ccc" stroke-width="1.5"/></svg>