<?xml version="1.0" encoding="utf-8"?>
<!-- Generator: Adobe Illustrator 24.0.1, SVG Export Plug-In . SVG Version: 6.00 Build 0)  -->
<svg version="1.1" id="Layer_1" xmlns="http://www.w3.org/2000/svg" xmlns:xlink="http://www.w3.org/1999/xlink" x="0px" y="0px"
	 viewBox="0 0 1268 418" style="enable-background:new 0 0 1268 418;" xml:space="preserve">
<style type="text/css">
	.st0{fill:none;stroke:#DBDBDD;stroke-width:0.6526;}
	.st1{fill:#CCCCCC;}
	.st2{font-family:'RobotoMono-Regular';}
	.st3{font-size:16.8977px;}
	.st4{font-size:12.5168px;}
	.st5{font-size:12.5169px;}
	.st6{font-size:12.5166px;}
	.st7{font-size:12.5158px;}
	.st8{font-size:12.5176px;}
	.st9{fill:#B6ADC7;}
	.st10{fill:#C5C5D1;}
	.st11{fill:#E4E3E8;}
	.st12{fill:#A59CB9;}
	.st13{fill:#CBCBCB;}
</style>
<g transform="translate(480 250)">
	<g>
		<path class="st0" d="M-45.9-228.4c104,0,188.3,84.2,188.3,188.3S58,148.4-45.9,148.4S-234.3,63.9-234.3-40.1
			c0-57.5,25.8-108.9,66.2-143.4"/>
		<text transform="matrix(1 0 0 1 -80.23 -204.4985)" class="st1 st2 st3">Feb</text>
	</g>
	<g>
		<path class="st0" d="M-45.9-198.7c87.7,0,158.7,71.1,158.7,158.7S41.6,118.6-45.9,118.6S-204.6,47.5-204.6-40.1
			c0-48.4,21.7-91.7,55.8-120.9"/>
		<text transform="matrix(1 0 0 1 -80.23 -174.8384)" class="st1 st2 st3">Mar</text>
	</g>
	<g>
		<path class="st0" d="M-45.9-168.9c71.2,0,129,57.8,129,129s-57.8,129-129,129s-129-57.8-129-129c0-39.4,17.6-74.5,45.3-98.3"/>
		<text transform="matrix(1 0 0 1 -80.23 -145.1782)" class="st1 st2 st3">Apr</text>
	</g>
	<g>
		<path class="st0" d="M-45.9-139.4C8.9-139.4,53.5-95,53.5-40S9.1,59.5-45.9,59.5s-99.4-44.4-99.4-99.4c0-30.2,13.5-57.3,34.8-75.6
			"/>
		<text transform="matrix(1 0 0 1 -80.23 -115.52)" class="st1 st2 st3">May</text>
	</g>
	<g>
		<path class="st0" d="M-45.9-109.7c38.6,0,69.6,31.3,69.6,69.6S-7.6,29.5-45.9,29.5s-69.6-31.3-69.6-69.6
			c0-21.3,9.5-40.3,24.5-53.1"/>
		<text transform="matrix(1 0 0 1 -80.23 -85.8589)" class="st1 st2 st3">Jun</text>
	</g>
</g>
<path class="st0" d="M434.1,169.9c22,0,40.1,17.9,40.1,40.1s-17.9,40-40.1,40S394,232.1,394,209.9c0-12.1,5.5-23.2,14-30.5"/>
<g transform="matrix(0 -1 1 0 480 250)">
	<path class="st0" d="M80.1-45.9h148.3"/>
	<text transform="matrix(0 1 -1 0 234.1567 -49.6357)" class="st1 st2 st4">0</text>
</g>
<path class="st0" d="M455.3,176.1l78.6-125.9"/>
<g transform="matrix(.89818458 -.43961855 .43961855 .89818458 480 250)">
	<path class="st0" d="M16.3-56.1l148.3,0"/>
	<text transform="matrix(0.8982 0.4396 -0.4396 0.8982 169.022 -53.9712)" class="st1 st2 st5">10</text>
</g>
<path class="st0" d="M473.9,214.1l147.4,15.1"/>
<g transform="matrix(.7897172 .61347107 -.61347107 .7897172 480 250)">
	<path class="st0" d="M-20.7-3.4l148.2,0"/>
	<text transform="matrix(0.7897 -0.6135 0.6135 0.7897 140.2817 4.9913)" class="st1 st2 st4">20</text>
</g>
<path class="st0" d="M447.9,247.5l51.2,139.3"/>
<g transform="matrix(-.20383592 .97900506 -.97900506 -.20383592 480 250)">
	<path class="st0" d="M10.2,53.1l148.4,0"/>
	<text transform="matrix(-0.2038 -0.979 0.979 -0.2038 176.842 56.6693)" class="st1 st2 st6">30</text>
</g>
<path class="st0" d="M406.3,238.9l-103,107.8"/>
<g transform="matrix(-.9689373 .2473065 -.2473065 -.9689373 480 250)">
	<path class="st0" d="M74.7,50.3l148.3,0"/>
	<text transform="matrix(-0.9689 -0.2473 0.2473 -0.9689 242.8954 49.2306)" class="st1 st2 st7">40</text>
</g>
<path class="st0" d="M395.9,197.8l-141.4-44.9"/>
<g transform="matrix(-.64808969 -.76156402 .76156402 -.64808969 480 250)">
	<path class="st0" d="M100.3-9l148.3,0"/>
	<text transform="matrix(-0.6481 0.7616 -0.7616 -0.6481 261.8081 -18.2351)" class="st1 st2 st8">50</text>
</g>
<g transform="translate(480 250)">
	<g>
		<path class="st9" d="M-45.9-218c98.3,0,178,79.7,178,178s-79.9,178-178,178s-178-79.7-178-178.1c0-45.9,17.8-90.1,49.7-123.3
			l13.9,13.4C-221-86.8-219,13.7-155.8,74.3S7.8,133,68.4,69.9s58.7-163.7-4.5-224.3C34.4-182.8-4.9-198.7-46-198.7L-45.9-218z"/>
		<path class="st9" d="M-45.9-188.3c82,0,148.3,66.3,148.3,148.3S36.1,108.3-45.9,108.3c-75.2,0-138.6-56.5-147.3-131.1l19.2-2.3
			c8.2,71,72.3,121.6,143,113.3S90.6,15.8,82.2-54.9c-7.5-65.1-62.7-114-128.2-114L-45.9-188.3L-45.9-188.3L-45.9-188.3z"/>
		<path class="st9" d="M-45.9-158.5c65.5,0,118.7,53.2,118.7,118.7S19.6,78.8-45.9,78.8c-19.3,0-38.2-4.8-55.2-13.6l9-17
			C-43.5,73.6,16.6,54.9,42.1,6.4s6.8-108.6-41.7-134.2c-14.3-7.5-30-11.4-46.2-11.4L-45.9-158.5L-45.9-158.5L-45.9-158.5z"/>
		<path class="st9" d="M-45.9-129c49.2,0,89,39.8,89,89c0,48.6-38.8,88.1-87.4,89l-0.3-19.3C-6,29,24.7-2.7,24-41.3
			c-0.8-38.1-31.7-68.5-69.6-68.5v-19.4L-45.9-129z"/>
		<path class="st9" d="M-45.9-99.3c32.8,0,59.2,26.5,59.2,59.2s-26.5,59.2-59.2,59.2c-13,0-25.7-4.3-36-12.1l11.8-15.3
			c17.6,13.5,42.7,10,56.2-7.5c13.5-17.6,10-42.7-7.5-56.2c-7-5.4-15.5-8.1-24.3-8.1v-19.2H-45.9z"/>
	</g>
	<path class="st0" d="M365.2-228.4c104,0,188.3,84.2,188.3,188.3s-84.1,188.5-188.3,188.5S176.8,63.9,176.8-40.1
		c0-57.5,25.8-108.9,66.2-143.4"/>
	<text transform="matrix(1 0 0 1 330.8809 -204.4985)" class="st1 st2 st3">Feb</text>
	<path class="st0" d="M365.2-198.7c87.7,0,158.7,71.1,158.7,158.7s-71.1,158.6-158.7,158.6s-158.7-71-158.7-158.7
		c0-48.4,21.7-91.7,55.8-120.9"/>
	<text transform="matrix(1 0 0 1 330.8818 -174.8384)" class="st1 st2 st3">Mar</text>
	<path class="st0" d="M365.2-168.9c71.2,0,129,57.8,129,129S436.4,89,365.2,89s-129-57.8-129-129.2c0-39.4,17.6-74.5,45.3-98.3"/>
	<text transform="matrix(1 0 0 1 330.8818 -145.1782)" class="st1 st2 st3">Apr</text>
	<path class="st0" d="M365.2-139.4c54.8,0,99.4,44.4,99.4,99.4s-44.4,99.5-99.4,99.5s-99.5-44.4-99.5-99.4
		c0-30.2,13.5-57.3,34.8-75.6"/>
	<text transform="matrix(1 0 0 1 330.8809 -115.52)" class="st1 st2 st3">May</text>
	<path class="st0" d="M365.2-109.7c38.6,0,69.6,31.3,69.6,69.6s-31.3,69.6-69.6,69.6s-69.6-31.3-69.6-69.6
		c0-21.3,9.5-40.3,24.5-53.1"/>
	<text transform="matrix(1 0 0 1 330.8809 -85.8589)" class="st1 st2 st3">Jun</text>
	<path class="st0" d="M365.2-80.1c22,0,40.1,17.9,40.1,40.1s-18,40-40.1,40c-22.2,0-40.1-17.9-40.1-40c0-12.1,5.5-23.2,14-30.5"/>
</g>
<g transform="matrix(0 -1 1 0 480 250)">
	<path class="st0" d="M80.1,365.2h148.3"/>
	<text transform="matrix(0 1 -1 0 234.1567 361.4531)" class="st1 st2 st4">0</text>
</g>
<path class="st0" d="M866.3,176.1l78.5-125.9"/>
<g transform="matrix(.89818458 -.43961855 .43961855 .89818458 480 250)">
	<path class="st0" d="M385.6,124.6l148.3,0"/>
	<text transform="matrix(0.8982 0.4396 -0.4396 0.8982 537.4523 126.3441)" class="st1 st2 st5">10</text>
</g>
<path class="st0" d="M885.1,214l147.3,15.1"/>
<g transform="matrix(.7897172 .61347107 -.61347107 .7897172 480 250)">
	<path class="st0" d="M303.8-255.6h148.3"/>
	<text transform="matrix(0.7897 -0.6135 0.6135 0.7897 464.6689 -248.3163)" class="st1 st2 st4">20</text>
</g>
<path class="st0" d="M859.1,247.5l51.2,139.2"/>
<g transform="matrix(-.20383592 .97900506 -.97900506 -.20383592 480 250)">
	<path class="st0" d="M-73.7-349.4H74.8"/>
	<text transform="matrix(-0.2038 -0.979 0.979 -0.2038 93.2797 -344.6686)" class="st1 st2 st6">30</text>
</g>
<path class="st0" d="M817.5,238.9L715,346"/>
<g transform="matrix(-.9689373 .2473065 -.2473065 -.9689373 480 250)">
	<path class="st0" d="M-323.8-51.5l148.2,0"/>
	<text transform="matrix(-0.9689 -0.2473 0.2473 -0.9689 -154.9027 -52.3012)" class="st1 st2 st7">40</text>
</g>
<path class="st0" d="M807,197.7l-141.3-44.9"/>
<g transform="matrix(-.64808969 -.76156402 .76156402 -.64808969 480 250)">
	<path class="st0" d="M-166.1,304l148.3,0"/>
	<text transform="matrix(-0.6481 0.7616 -0.7616 -0.6481 -3.8352 295.1681)" class="st1 st2 st8">50</text>
</g>
<g transform="translate(480 250)">
	<path class="st10" d="M525.1-118.2c4,8.1,7.4,16.6,10,25.3c5.1,16.8,8,34.5,8,52.9c0,91.5-69.2,167-158.1,176.9
		c-6.5,0.8-13.1,1-19.9,1c-12.8,0-41.3,0-65.8-12.6l7.1-17.9c24.3,9.6,50.3,13,76,10.3c35.7-3.8,70.2-19.7,97-47.7
		c41.2-42.8,53.4-102.6,37.4-155.7c-3.1-10.3-6.6-18.4-9.4-24"/>
	<path class="st11" d="M299.5,125.5C233.6,99.3,187.3,35.1,187.3-40c0-45.9,17.8-90.1,49.7-123.3l13.9,13.4
		c-60.7,63.2-58.7,163.7,4.5,224.3c15.3,14.8,32.8,25.8,51.3,33.2"/>
	<path class="st12" d="M507.7-109.9c-8-16.3-18.8-31.4-32.5-44.6c-29.5-28.4-68.8-44.3-109.9-44.3V-218
		c70.2,0,130.9,40.6,159.8,99.8"/>
	<path class="st10" d="M510.5-69.8c-1.6-8.1-4-16-6.8-23.4L486-85.7c2.4,6.1,4.1,12.4,5.6,19c0.9,4,1.5,8,1.9,12
		c5.5,46.8-15,90.9-49.8,117.5l-0.1,0.1l10.8,15.6c36-27.2,59.2-70.1,59.2-118.5C513.4-50.3,512.4-60.2,510.5-69.8L510.5-69.8z"/>
	<path class="st11" d="M454.3,78.7c-24.9,18.7-55.7,29.5-89.1,29.5c-75.2,0-138.6-56.5-147.3-131.1l19.2-2.3
		c8.2,70.9,72.1,121.6,143,113.2c24-2.6,45.7-11.9,63.5-25.7"/>
	<path class="st12" d="M485.8-85.8c-18.7-49.1-66.1-83.1-120.5-83.1v-19.3c63.1,0,117,39.4,138.3,95"/>
	<path class="st13" d="M476.2-81.7c4.9,12.9,7.5,26.9,7.5,41.7c0,45.1-25,84.2-62.1,104.4c-16.6,9-35.9,14.3-56.5,14.3
		c-19.3,0-38.2-4.8-55.2-13.6l9-17c20.8,11,43.6,13.8,65.1,9.6c9.9-1.9,19.4-5.4,28.3-10c16.9-9,31.3-23.2,40.9-41.2
		c13.6-25.9,14.6-55.1,5.4-80.5"/>
	<path class="st10" d="M476.2-81.7c4.9,12.9,7.5,26.9,7.5,41.7c0,45.1-25,84.2-62.1,104.4l-9.5-16.8C429,38.5,443.4,24.3,453,6.3
		c13.6-25.9,14.6-55.1,5.4-80.5"/>
	<path class="st11" d="M421.7,64.4c-16.8,9-36,14.3-56.6,14.3c-19.3,0-38.2-4.8-55.2-13.6l9-17c20.8,11,43.6,13.8,65.1,9.6
		c9.9-1.9,19.4-5.4,28.3-10"/>
	<path class="st12" d="M458.4-74.3c-0.1-0.6-0.5-1.1-0.8-1.8c-8.4-21.7-24.3-40.3-46.3-51.8c-14.3-7.5-30-11.4-46.2-11.4v-19.3
		c50.8,0,94.3,32,111.1,77"/>
	<path class="st10" d="M428.6,22.3c15.9-16,25.5-38.1,25.5-62.3c0-16.9-4.8-32.8-13-46.2l-16.8,9.6c6.4,10.4,10,22.4,10.4,35.4
		c0.3,19-7,36.4-19.2,49.2"/>
	<path class="st11" d="M415.7,7.9c-12.4,13-29.9,21.3-49.3,21.8l0.3,19.3c24.3-0.5,46.1-10.5,62-26.7"/>
	<path class="st12" d="M424.5-76.7c-12.3-19.9-34.2-33-59.2-33V-129c32.2,0,60.5,17,76,42.7"/>
	<path class="st12" d="M365.2-99.3V-80c8.8,0,17.3,2.8,24.3,8.1c2.8,2.3,5.4,4.8,7.4,7.4c0.1,0.1,0.1,0.3,0.3,0.5
		c4.6-3,10.5-7.5,15.1-12C401.3-90.2,384.3-99.3,365.2-99.3z"/>
	<path class="st10" d="M416.4-10c5.1-8.8,8.1-19,8.1-29.9c0-13.5-4.6-26-12.1-36c-4.6,4.5-10.5,9-15.1,12c9.5,12.6,10.6,30,2.6,44.1
		"/>
	<path class="st11" d="M400-20.1c-0.9,1.5-1.8,2.8-2.8,4.3c-13.5,17.6-38.7,21-56.2,7.5L329.2,6.9c10.4,7.9,22.9,12.1,36,12.1
		c21.8,0,40.9-11.9,51.3-29.3"/>
</g>
</svg>
