<?xml version="1.0" encoding="utf-8"?>
<!-- Generator: Adobe Illustrator 19.2.0, SVG Export Plug-In . SVG Version: 6.00 Build 0)  -->
<svg version="1.1" id="Layer_1" xmlns="http://www.w3.org/2000/svg" xmlns:xlink="http://www.w3.org/1999/xlink" x="0px" y="0px"
	 width="1200px" height="1200px" viewBox="0 0 1200 1200" enable-background="new 0 0 1200 1200" xml:space="preserve">
<g>
	<polyline fill="none" stroke="#A3AEE3" stroke-width="24" stroke-miterlimit="10" points="804,550 804,420 897,420 897,867 
		990,867 	"/>
	<polyline fill="none" stroke="#7581BA" stroke-width="24" stroke-miterlimit="10" points="711,290 711,681 804,681 804,550 	"/>
	<polyline fill="none" stroke="#A3AEE3" stroke-width="24" stroke-miterlimit="10" points="432,458 432,383 525,383 525,513 
		618,513 618,14 711,14 711,290 	"/>
	<polyline fill="none" stroke="#7581BA" stroke-width="24" stroke-miterlimit="10" points="339,458 339,588 432,588 432,458 	"/>
	<polyline fill="none" stroke="#A3AEE3" stroke-width="24" stroke-miterlimit="10" points="3,868 59,868 59,532 152,532 152,812 
		245,812 245,297 338,297 338,458 	"/>
	<g>
		<text transform="matrix(1 0 0 1 410.3801 1184.3237)" fill="#7F7F7F" font-family="'Roboto-Regular'" font-size="65px">key dates</text>
	</g>
	<g>
		<text transform="matrix(1 0 0 1 878.9114 177.9585)"><tspan x="0" y="0" fill="#7F7F7F" font-family="'Roboto-Regular'" font-size="65px">value</tspan><tspan x="0" y="78" fill="#7F7F7F" font-family="'Roboto-Regular'" font-size="65px">scale</tspan></text>
	</g>
	<g>
		<text transform="matrix(1 0 0 1 673.9114 848.8687)" fill="#7F7F7F" font-family="'Roboto-Regular'" font-size="65px">waist</text>
	</g>
	<g>
		<text transform="matrix(1 0 0 1 385.0461 681.1421)" fill="#7F7F7F" font-family="'Roboto-Regular'" font-size="65px">yin line</text>
	</g>
	<g>
		<text transform="matrix(1 0 0 1 263.9094 51.8452)" fill="#7F7F7F" font-family="'Roboto-Regular'" font-size="65px">yang line</text>
	</g>
	<g>
		<text transform="matrix(1 0 0 1 170.7278 205.9136)" fill="#7F7F7F" font-family="'Roboto-Regular'" font-size="65px">shoulder</text>
	</g>
	<polyline fill="none" stroke="#464A90" stroke-width="16" stroke-miterlimit="10" points="1093,3 1093,928 3,928 	"/>
	<g>
		<text transform="matrix(1 0 0 1 1145.0383 784.4761)" fill="#37246D" font-family="'Roboto-Medium'" font-size="46.591px">10</text>
	</g>
	<g>
		<text transform="matrix(1 0 0 1 30.9622 1012.7729)" fill="#37246D" font-family="'Roboto-Medium'" font-size="46.591px">10</text>
	</g>
	<g>
		<text transform="matrix(1 0 0 1 122.5911 1012.7729)" fill="#37246D" font-family="'Roboto-Medium'" font-size="46.591px">23</text>
	</g>
	<g>
		<text transform="matrix(1 0 0 1 30.9622 1066.3511)" fill="#7F7F7F" font-family="'Roboto-Medium'" font-size="46.591px">jul</text>
	</g>
	<g>
		<text transform="matrix(1 0 0 1 301.1829 1066.3511)" fill="#7F7F7F" font-family="'Roboto-Medium'" font-size="46.591px">aug</text>
	</g>
	<g>
		<text transform="matrix(1 0 0 1 664.2102 1067.7319)" fill="#7F7F7F" font-family="'Roboto-Medium'" font-size="51.297px">sept</text>
	</g>
	<g>
		<text transform="matrix(1 0 0 1 216.9387 1012.7729)" fill="#37246D" font-family="'Roboto-Medium'" font-size="46.591px">29</text>
	</g>
	<g>
		<text transform="matrix(1 0 0 1 312.4504 1012.7729)" fill="#37246D" font-family="'Roboto-Medium'" font-size="46.591px">05</text>
	</g>
	<g>
		<text transform="matrix(1 0 0 1 403.302 1012.7729)" fill="#37246D" font-family="'Roboto-Medium'" font-size="46.591px">09</text>
	</g>
	<g>
		<text transform="matrix(1 0 0 1 498.8137 1012.7729)" fill="#37246D" font-family="'Roboto-Medium'" font-size="46.591px">20</text>
	</g>
	<g>
		<text transform="matrix(1 0 0 1 589.6672 1012.7729)" fill="#37246D" font-family="'Roboto-Medium'" font-size="46.591px">24</text>
	</g>
	<g>
		<text transform="matrix(1 0 0 1 685.177 1012.7729)" fill="#37246D" font-family="'Roboto-Medium'" font-size="46.591px">07</text>
	</g>
	<g>
		<text transform="matrix(1 0 0 1 776.0305 1012.7729)" fill="#37246D" font-family="'Roboto-Medium'" font-size="46.591px">14</text>
	</g>
	<g>
		<text transform="matrix(1 0 0 1 871.5422 1012.7729)" fill="#37246D" font-family="'Roboto-Medium'" font-size="46.591px">19</text>
	</g>
	<g>
		<text transform="matrix(1 0 0 1 962.3938 1012.7729)" fill="#37246D" font-family="'Roboto-Medium'" font-size="46.591px">24</text>
	</g>
	<line fill="none" stroke="#464A90" stroke-width="4" stroke-miterlimit="10" x1="1066" y1="566" x2="1121" y2="566"/>
	<line fill="none" stroke="#464A90" stroke-width="4" stroke-miterlimit="10" x1="1066" y1="368" x2="1121" y2="368"/>
	<line fill="none" stroke="#464A90" stroke-width="4" stroke-miterlimit="10" x1="1066" y1="169" x2="1121" y2="169"/>
	<line fill="none" stroke="#464A90" stroke-width="4" stroke-miterlimit="10" x1="1066" y1="765" x2="1121" y2="765"/>
	<line fill="none" stroke="#464A90" stroke-width="4" stroke-miterlimit="10" x1="991" y1="956" x2="991" y2="900"/>
	<line fill="none" stroke="#464A90" stroke-width="4" stroke-miterlimit="10" x1="898" y1="956" x2="898" y2="900"/>
	<line fill="none" stroke="#464A90" stroke-width="4" stroke-miterlimit="10" x1="804" y1="956" x2="804" y2="900"/>
	<line fill="none" stroke="#464A90" stroke-width="4" stroke-miterlimit="10" x1="711" y1="956" x2="711" y2="900"/>
	<line fill="none" stroke="#464A90" stroke-width="4" stroke-miterlimit="10" x1="618" y1="956" x2="618" y2="900"/>
	<line fill="none" stroke="#464A90" stroke-width="4" stroke-miterlimit="10" x1="525" y1="956" x2="525" y2="900"/>
	<line fill="none" stroke="#464A90" stroke-width="4" stroke-miterlimit="10" x1="432" y1="956" x2="432" y2="900"/>
	<line fill="none" stroke="#464A90" stroke-width="4" stroke-miterlimit="10" x1="338" y1="956" x2="338" y2="900"/>
	<line fill="none" stroke="#464A90" stroke-width="4" stroke-miterlimit="10" x1="245" y1="956" x2="245" y2="900"/>
	<line fill="none" stroke="#464A90" stroke-width="4" stroke-miterlimit="10" x1="152" y1="956" x2="152" y2="900"/>
	<line fill="none" stroke="#464A90" stroke-width="4" stroke-miterlimit="10" x1="59" y1="956" x2="59" y2="900"/>
	<g>
		<text transform="matrix(1 0 0 1 1145.554 585.6362)" fill="#37246D" font-family="'Roboto-Medium'" font-size="46.591px">20</text>
	</g>
	<g>
		<text transform="matrix(1 0 0 1 1145.6243 387.6753)" fill="#37246D" font-family="'Roboto-Medium'" font-size="46.591px">30</text>
	</g>
	<g>
		<text transform="matrix(1 0 0 1 1136.5305 189.7183)" fill="#37246D" font-family="'Roboto-Medium'" font-size="46.591px">40</text>
	</g>
	<polyline fill="none" stroke="#AFAFAF" stroke-width="8" stroke-miterlimit="10" points="1094,1063 1094,1112 8,1112 8,1063 	"/>
	<polyline fill="none" stroke="#AFAFAF" stroke-width="8" stroke-miterlimit="10" points="1163,334 1163,290 879,290 	"/>
	
		<line fill="none" stroke="#AFAFAF" stroke-width="9.3182" stroke-miterlimit="10" x1="291.088" y1="273.858" x2="291.088" y2="220.278"/>
	<line fill="none" stroke="#AFAFAF" stroke-width="8" stroke-miterlimit="10" x1="581" y1="82" x2="264" y2="82"/>
	<line fill="none" stroke="#AFAFAF" stroke-width="8" stroke-miterlimit="10" x1="753" y1="774" x2="753" y2="711"/>
	<line fill="none" stroke="#AFAFAF" stroke-width="8" stroke-miterlimit="10" x1="618" y1="663" x2="681" y2="663"/>
</g>
</svg>
