<?xml version="1.0" encoding="utf-8"?>
<!-- Generator: Adobe Illustrator 19.2.0, SVG Export Plug-In . SVG Version: 6.00 Build 0)  -->
<svg version="1.1" id="Layer_1" xmlns="http://www.w3.org/2000/svg" xmlns:xlink="http://www.w3.org/1999/xlink" x="0px" y="0px"
	 width="1268px" height="558px" viewBox="0 0 1268 558" enable-background="new 0 0 1268 558" xml:space="preserve">
<g id="Layer_2">
</g>
<g>
	<g>
		<line fill="none" stroke="#C4C4C4" stroke-miterlimit="10" x1="57.495" y1="490" x2="1253.495" y2="490"/>
		<line fill="none" stroke="#C4C4C4" stroke-miterlimit="10" x1="57.495" y1="410.667" x2="1253.495" y2="410.667"/>
		<line fill="none" stroke="#C4C4C4" stroke-miterlimit="10" x1="57.495" y1="331.333" x2="1253.495" y2="331.333"/>
		<line fill="none" stroke="#C4C4C4" stroke-miterlimit="10" x1="57.495" y1="252" x2="1253.495" y2="252"/>
		<line fill="none" stroke="#C4C4C4" stroke-miterlimit="10" x1="57.495" y1="172.667" x2="1253.495" y2="172.667"/>
		<line fill="none" stroke="#C4C4C4" stroke-miterlimit="10" x1="57.495" y1="93.333" x2="1253.495" y2="93.333"/>
		<line fill="none" stroke="#C4C4C4" stroke-miterlimit="10" x1="67" y1="14" x2="1253.495" y2="14"/>
	</g>
</g>
<g>
	<line fill="none" stroke="#C4C4C4" stroke-miterlimit="10" x1="1253.642" y1="499" x2="1253.642" y2="490"/>
	<line fill="none" stroke="#C4C4C4" stroke-miterlimit="10" x1="1178.883" y1="499" x2="1178.883" y2="490"/>
	<line fill="none" stroke="#C4C4C4" stroke-miterlimit="10" x1="1104.124" y1="499" x2="1104.124" y2="490"/>
	<line fill="none" stroke="#C4C4C4" stroke-miterlimit="10" x1="1029.365" y1="499" x2="1029.365" y2="490"/>
	<line fill="none" stroke="#C4C4C4" stroke-miterlimit="10" x1="954.605" y1="499" x2="954.605" y2="490"/>
	<line fill="none" stroke="#C4C4C4" stroke-miterlimit="10" x1="879.846" y1="499" x2="879.846" y2="490"/>
	<line fill="none" stroke="#C4C4C4" stroke-miterlimit="10" x1="805.087" y1="499" x2="805.087" y2="490"/>
	<line fill="none" stroke="#C4C4C4" stroke-miterlimit="10" x1="730.328" y1="499" x2="730.328" y2="490"/>
	<line fill="none" stroke="#C4C4C4" stroke-miterlimit="10" x1="655.569" y1="499" x2="655.569" y2="490"/>
	<line fill="none" stroke="#C4C4C4" stroke-miterlimit="10" x1="580.81" y1="499" x2="580.81" y2="490"/>
	<line fill="none" stroke="#C4C4C4" stroke-miterlimit="10" x1="506.05" y1="499" x2="506.05" y2="490"/>
	<line fill="none" stroke="#C4C4C4" stroke-miterlimit="10" x1="431.291" y1="499" x2="431.291" y2="490"/>
	<line fill="none" stroke="#C4C4C4" stroke-miterlimit="10" x1="356.532" y1="499" x2="356.532" y2="490"/>
	<line fill="none" stroke="#C4C4C4" stroke-miterlimit="10" x1="281.773" y1="499" x2="281.773" y2="490"/>
	<line fill="none" stroke="#C4C4C4" stroke-miterlimit="10" x1="207.013" y1="499" x2="207.013" y2="490"/>
	<line fill="none" stroke="#C4C4C4" stroke-miterlimit="10" x1="132.254" y1="499" x2="132.254" y2="490"/>
	<line fill="none" stroke="#C4C4C4" stroke-miterlimit="10" x1="57.495" y1="499" x2="57.495" y2="490"/>
</g>
<g>
	<text transform="matrix(1 0 0 1 2.165 25.3033)"><tspan x="0" y="0" fill="#B3B3B3" font-family="'RobotoCondensed-Regular'" font-size="26px">600</tspan><tspan x="0" y="79" fill="#B3B3B3" font-family="'RobotoCondensed-Regular'" font-size="26px">500</tspan><tspan x="0" y="158" fill="#B3B3B3" font-family="'RobotoCondensed-Regular'" font-size="26px">400</tspan><tspan x="0" y="237" fill="#B3B3B3" font-family="'RobotoCondensed-Regular'" font-size="26px">300</tspan><tspan x="0" y="316" fill="#B3B3B3" font-family="'RobotoCondensed-Regular'" font-size="26px">200</tspan><tspan x="0" y="395" fill="#B3B3B3" font-family="'RobotoCondensed-Regular'" font-size="26px">100</tspan><tspan x="25.67" y="474" fill="#B3B3B3" font-family="'RobotoCondensed-Regular'" font-size="26px">0</tspan></text>
</g>
<g>
	<text transform="matrix(1 0 0 1 44.6599 23.3033)" fill="#B3B3B3" font-family="'RobotoCondensed-Regular'" font-size="26px">$</text>
</g>
<line fill="none" stroke="#9C96AD" stroke-width="2" stroke-miterlimit="10" x1="57" y1="490" x2="1253.642" y2="490"/>
<g>
	<text transform="matrix(1 0 0 1 51.3318 524.9541)" fill="#B3B3B3" font-family="'RobotoCondensed-Regular'" font-size="26px">3</text>
</g>
<g>
	<text transform="matrix(1 0 0 1 118.7469 524.9541)" fill="#B3B3B3" font-family="'RobotoCondensed-Regular'" font-size="26px">10</text>
</g>
<g>
	<text transform="matrix(1 0 0 1 193.3299 524.9541)" fill="#B3B3B3" font-family="'RobotoCondensed-Regular'" font-size="26px">17</text>
</g>
<g>
	<text transform="matrix(1 0 0 1 269.0799 524.9541)" fill="#B3B3B3" font-family="'RobotoCondensed-Regular'" font-size="26px">24</text>
</g>
<g>
	<text transform="matrix(1 0 0 1 343.3299 524.9541)" fill="#B3B3B3" font-family="'RobotoCondensed-Regular'" font-size="26px">31</text>
</g>
<g>
	<text transform="matrix(1 0 0 1 424.6648 524.9541)" fill="#B3B3B3" font-family="'RobotoCondensed-Regular'" font-size="26px">7</text>
</g>
<g>
	<text transform="matrix(1 0 0 1 492.8299 524.9541)" fill="#B3B3B3" font-family="'RobotoCondensed-Regular'" font-size="26px">14</text>
</g>
<g>
	<text transform="matrix(1 0 0 1 567.8298 524.9541)" fill="#B3B3B3" font-family="'RobotoCondensed-Regular'" font-size="26px">21</text>
</g>
<g>
	<text transform="matrix(1 0 0 1 642.8298 524.9541)" fill="#B3B3B3" font-family="'RobotoCondensed-Regular'" font-size="26px">28</text>
</g>
<g>
	<text transform="matrix(1 0 0 1 791.8298 524.9541)" fill="#B3B3B3" font-family="'RobotoCondensed-Regular'" font-size="26px">11</text>
</g>
<g>
	<text transform="matrix(1 0 0 1 1090.8298 524.9541)" fill="#B3B3B3" font-family="'RobotoCondensed-Regular'" font-size="26px">11</text>
</g>
<g>
	<text transform="matrix(1 0 0 1 866.0798 524.9541)" fill="#B3B3B3" font-family="'RobotoCondensed-Regular'" font-size="26px">18</text>
</g>
<g>
	<text transform="matrix(1 0 0 1 1166.0798 524.9541)" fill="#B3B3B3" font-family="'RobotoCondensed-Regular'" font-size="26px">18</text>
</g>
<g>
	<text transform="matrix(1 0 0 1 940.8298 524.9541)" fill="#B3B3B3" font-family="'RobotoCondensed-Regular'" font-size="26px">25</text>
</g>
<g>
	<text transform="matrix(1 0 0 1 1241.0798 524.9541)" fill="#B3B3B3" font-family="'RobotoCondensed-Regular'" font-size="26px">25</text>
</g>
<g>
	<text transform="matrix(1 0 0 1 723.9148 524.9541)" fill="#B3B3B3" font-family="'RobotoCondensed-Regular'" font-size="26px">4</text>
</g>
<g>
	<text transform="matrix(1 0 0 1 1022.9148 524.9541)" fill="#B3B3B3" font-family="'RobotoCondensed-Regular'" font-size="26px">4</text>
</g>
<g>
	<text transform="matrix(1 0 0 1 52.1664 551)" fill="#9C96AD" font-family="'RobotoCondensed-Regular'" font-size="26px">Aug</text>
</g>
<g>
	<text transform="matrix(1 0 0 1 425.1664 551)" fill="#9C96AD" font-family="'RobotoCondensed-Regular'" font-size="26px">Sep</text>
</g>
<g>
	<text transform="matrix(1 0 0 1 723.3331 551)" fill="#9C96AD" font-family="'RobotoCondensed-Regular'" font-size="26px">Oct</text>
</g>
<g>
	<text transform="matrix(1 0 0 1 1021.8331 551)" fill="#9C96AD" font-family="'RobotoCondensed-Regular'" font-size="26px">Nov</text>
</g>
<polyline fill="none" stroke="#E6C097" stroke-width="4" stroke-miterlimit="10" points="1104.75,419.5 1104.75,433.582 
	1129.708,433.582 1129.708,271.942 1154.667,271.942 1154.667,367.942 1179.625,367.942 1179.625,315.942 1204.5,315.942 
	1204.5,408.222 1229.542,408.222 1229.542,333 "/>
<polyline fill="none" stroke="#E6C097" stroke-width="4" stroke-miterlimit="10" points="855.167,315 855.167,360.019 
	880.125,360.019 880.125,341.115 905.083,341.115 905.083,428.78 930.042,428.78 930.042,384.025 955,384.025 955,467.875 
	979.958,467.875 979.958,380 "/>
<polyline fill="none" stroke="#E6C097" stroke-width="4" stroke-miterlimit="10" points="755.333,284 755.333,373.717 
	780.292,373.717 780.292,338.5 "/>
<polyline fill="none" stroke="#E6C097" stroke-width="4" stroke-miterlimit="10" points="605.583,253.667 605.583,375.063 
	630.542,375.063 630.542,205 655.321,205 655.321,279 "/>
<polyline fill="none" stroke="#E6C097" stroke-width="4" stroke-miterlimit="10" points="455.833,108.75 455.833,131 480.792,131 
	480.792,85.5 505.75,85.5 505.75,236.754 "/>
<polyline fill="none" stroke="#E6C097" stroke-width="4" stroke-miterlimit="10" points="331.042,121 331.042,62.5 356,62.5 
	356,155 "/>
<polyline fill="none" stroke="#E6C097" stroke-width="4" stroke-miterlimit="10" points="256.167,298 256.167,338.5 281.125,338.5 
	281.125,126.5 306,126.5 306,158.78 331.042,158.78 331.042,121 "/>
<polyline fill="none" stroke="#E6C097" stroke-width="4" stroke-miterlimit="10" points="106.417,375 106.417,388.146 
	131.375,388.146 131.375,298.78 156.333,298.78 156.333,438.434 181.292,438.434 181.292,388.146 "/>
<g>
	<polyline fill="none" stroke="#9C96AD" stroke-width="4" stroke-miterlimit="10" points="1229.542,333 1229.542,291.942 
		1254.5,291.942 	"/>
	<polyline fill="none" stroke="#9C96AD" stroke-width="4" stroke-miterlimit="10" points="1079.792,419 1079.792,404.442 
		1104.75,404.442 1104.75,419.5 	"/>
	<polyline fill="none" stroke="#9C96AD" stroke-width="4" stroke-miterlimit="10" points="979.958,380 979.958,279 1004.917,279 
		1004.917,427.588 1029.875,427.588 1029.875,348.222 1054.833,348.222 1054.833,447.875 1079.792,447.875 1079.792,419 	"/>
	<polyline fill="none" stroke="#9C96AD" stroke-width="4" stroke-miterlimit="10" points="780.292,338.5 780.292,313.5 
		805.25,313.5 805.25,431.115 830.208,431.115 830.208,258 855.167,258 855.167,315 	"/>
	<polyline fill="none" stroke="#9C96AD" stroke-width="4" stroke-miterlimit="10" points="655.321,279 655.321,315.5 680,315.5 
		680,219 705.417,219 705.417,270.683 730.375,270.683 730.375,54.5 755.333,54.5 755.333,284 	"/>
	<polyline fill="none" stroke="#9C96AD" stroke-width="4" stroke-miterlimit="10" points="580.625,265.063 580.625,244.286 
		605.583,244.286 605.583,253.667 	"/>
	<polyline fill="none" stroke="#9C96AD" stroke-width="4" stroke-miterlimit="10" points="505.75,236.754 505.75,344.372 
		530.708,344.372 530.708,142.5 555.667,142.5 555.667,295 580.625,295 580.625,265.063 	"/>
	<polyline fill="none" stroke="#9C96AD" stroke-width="4" stroke-miterlimit="10" points="405.917,138 405.917,181.807 
		429.438,181.807 429.438,36 455.833,36 455.833,108.75 	"/>
	<polyline fill="none" stroke="#9C96AD" stroke-width="4" stroke-miterlimit="10" points="356,155 356,252 380.958,252 380.958,14 
		405.917,14 405.917,138 	"/>
	<polyline fill="none" stroke="#9C96AD" stroke-width="4" stroke-miterlimit="10" points="181.292,388.146 181.292,255 206.25,255 
		206.25,284.14 231.208,284.14 231.208,202.5 256.167,202.5 256.167,298 	"/>
	<polyline fill="none" stroke="#9C96AD" stroke-width="4" stroke-miterlimit="10" points="56.5,438.434 81.458,438.434 
		81.458,359.558 106.417,359.558 106.417,375 	"/>
</g>
</svg>
