<svg enable-background="new 0 0 1268 418" viewBox="0 0 1268 418" xmlns="http://www.w3.org/2000/svg"><path d="m818.9 274.8c-15.3-25.4-55-19.4-61.9 9.5-7.5 31.5 31.4 54.7 55.5 32.9 11.9-10.9 14.6-28.5 6.4-42.4z" fill="#7e7e8f"/><path d="m879.7 91.3c-25.3-18.2-60.2 7-51.1 36.6 8.5 27.6 47.2 31.3 60.8 6 7.8-14.6 3.6-32.8-9.7-42.6z" fill="#858596"/><path d="m808.8 135.3c24.5-15.8 16.8-54.5-11.8-59.6-28.6-5.2-50.4 30.9-30.4 53.7 10.7 12 28.6 14.5 42.2 5.9z" fill="#89899b"/><path d="m743.6 189.7c-7.5 28.2 25 51.5 49.1 34.5 26.3-18.5 10.1-61-21.5-57.8-13.1 1.4-24 10.6-27.6 23.3z" fill="#9393a4"/><path d="m819.6 199.4c-25.6 14.3-19 54.3 10 59.2s49-32.2 28.1-53.6c-10-10.1-25.6-12.4-38.1-5.6z" fill="#9494a6"/><path d="m764.7 250.4c-.7-27.5-35.7-40.4-53.9-19.8-19.9 22.5 2.7 58.5 31.8 49.9 13.2-4 22.2-16.2 22.1-30.1z" fill="#a4a4b6"/><path d="m633.5 166.7c-24.9-10-49.8 16.9-37.5 40.9s45.6 20.3 54.2-3.5c5.1-14.9-2.2-31.3-16.7-37.4z" fill="#bbc"/><path d="m619.5 265.5c-25.3-2.5-41.9 27.8-25.6 47.7s51.1 8.7 51.8-17.7c.2-15.3-11.1-28.2-26.2-30z" fill="#bfbfd1"/><path d="m360.9 113.5c-25-12.3-52 15.7-38.3 40.2 12.6 22.3 46.7 17.7 53.3-6.7 3.4-13.4-2.8-27.3-15-33.5z" fill="#c4c4d6"/><path d="m318.3 210.4c-1.9 25.6 29.9 40.9 48.6 23 20.4-19.6 1.8-54.9-26-48.8-12.4 2.7-21.5 13.1-22.6 25.8z" fill="#c7c7d9"/><path d="m569.6 129.7c21.2 11.3 47-8.2 41.3-31.8-6.4-27.2-45.5-29.2-54.8-2.9-4.5 13.3 1.2 27.9 13.5 34.7z" fill="#cbcbdc"/><path d="m454.3 180.5c-13.9-21.9-49.1-14-51.8 12.1-2.4 24.4 26.7 40.2 45.7 24.7 11-9 13.6-24.7 6.1-36.8z" fill="#d1d1e3"/><path d="m645.7 228.1c-.5 24.8 30.3 38.3 48 20.5 17.6-17.8 2.5-50.8-23.3-47.6-13.7 1.8-24.2 13.3-24.7 27.1z" fill="#d1d1e3"/><path d="m619.3 111.1c-19.5 14.9-11 47.2 13.5 50.1 24.6 2.9 41.6-29.7 22.7-47.9-9.9-9.4-25.1-10.3-36.2-2.2z" fill="#d2d2e4"/><path d="m551.6 94.1c12.7-21.5-8.6-48.3-32.5-40.4s-25.3 39.9-4 50.9c13.1 6.5 28.9 1.9 36.5-10.5z" fill="#d6d6e7"/><path d="m513.4 239.8c15.7-18.1 1.3-47.4-23-45.2s-33.4 33.6-14.5 48.6c11.4 8.9 27.8 7.4 37.5-3.4z" fill="#dadaec"/><path d="m389.2 101.3c18-19.4-.8-51.4-26.4-44.9-22.4 5.6-27.8 36.4-8.2 49.1 11.1 7 25.6 5.3 34.6-4.2z" fill="#dedeef"/><path d="m417.9 105.7c-23.1-6.5-42.8 19.9-29.6 40.1 15 23 51.7 9.7 48.7-17.3-1.3-10.8-8.8-19.8-19.1-22.8z" fill="#e4e4f6"/><path d="m576.9 211.3c-13.1-20.1-44.6-13.3-48.2 10.3s26.6 40 44.3 22.9c9-8.7 10.6-22.6 3.9-33.2z" fill="#e7e7f9"/><path d="m729.7 391.9c23.7-.2 35-30.9 16.3-46.1s-46.6 1.9-41.8 25.3c2.5 12.1 13.1 20.8 25.5 20.8z" fill="#eaeafc"/><path d="m735 173.9c-15.9-17.1-45.4-5.2-44.9 18.1s32.2 34.2 46.6 15c7.4-10 6.7-23.8-1.7-33.1z" fill="#ececfe"/><path d="m852.3 46.3c-15.4-18.4-46.5-6.3-45.2 17.7 1.3 22.5 30 32.2 44.7 15.3 8.1-9.5 8.3-23.3.5-33z" fill="#efefff"/><path d="m508.9 193.7c12.6 15.2 38.1 10.4 44-8.7 7.3-24-22.7-43.4-41.4-26.2-9.9 9.2-11 24.4-2.6 34.9z" fill="#efefff"/><path d="m483.9 405.2c11.1-16.4-.7-39.4-20.7-39.5-26.7-.1-34.2 37.4-10.3 48.1 11 4.9 24 1.3 31-8.6z" fill="#f1f1ff"/><path d="m913.5 78.1c17-30.7-33.9-53-45.1-20.2-9.6 27.9 30.7 45.4 45.1 20.2z" fill="#f2f2ff"/><g fill="#f4f4ff"><path d="m887.9 192.9c18.1-25-19.9-54.3-39.1-29.3-19.1 24.9 20.1 55 39.1 29.3z"/><path d="m729.9 286.3c-22.7.7-32.4 30.6-13.7 44.1 18.6 13.5 44.1-4.8 37.6-26.5-3.2-10.6-13-17.7-23.9-17.6z"/><path d="m448.1 104c-.9 20.5 23.4 33.3 39.7 20.1 17.7-14.4 6.3-44.3-16.7-43.1-12.4.8-22.3 10.7-23 23z"/><path d="m662.9 273.5c-9.2 19.3 10.4 41 30.7 33.1s20.1-37.5-.1-45.2c-11.8-4.4-25 .8-30.6 12.1z"/><path d="m497.8 150.1c-10.3-28.8-54.7-13.8-45.8 15 9.3 30.5 56.1 14.9 45.8-15z"/><path d="m722 154.7c15.9-16.2 1.9-44.2-20.7-40.7-22.5 3.4-27.7 31.8-9.8 43.8 9.6 6.2 22.3 5 30.5-3.1z"/></g><path d="m813.1 138.2c-28.3 7.2-19.2 51.7 10.2 45.7 29.5-5.9 19.7-52.9-10.2-45.7z" fill="#f1f1ff"/><path d="m570.9 293.2c14.8-18.7-5.7-45.6-27.7-36.1-20.2 8.9-17.3 39.4 4.2 44.2 8.7 2 17.8-1.1 23.5-8.1z" fill="#f1f1ff"/><path d="m361.3 367.2c8.8-23.6-22.1-42-38.8-23.8-12.6 13.8-3.8 36.8 14.8 38.7 10.5 1 20.3-5.1 24-14.9z" fill="#efefff"/><path d="m771 138.3c-9.6-19.6-39.7-15.5-43.2 6.3-3.1 20 20.6 34 36.6 21.5 8.4-6.6 11.1-18.1 6.6-27.8z" fill="#ececfe"/><path d="m599.8 168.2c10.1-27.9-33-43.4-42.8-15.4s32.6 42.6 42.8 15.4z" fill="#eaeafc"/><path d="m928 137.7c-17.5-21.7-51.2 3.4-35.9 26.2 16.7 24.7 54.3-2.6 35.9-26.2z" fill="#e6e6f7"/><path d="m689.6 184.7c14.1-25.6-26.1-47-39.2-20.7s25.5 44.8 39.2 20.7z" fill="#e4e4f6"/><path d="m884.7 33.6c13.6-24.7-24.5-46.3-38.3-21.3-13.8 24.9 24.4 45.6 38.3 21.3z" fill="#e1e1f3"/><path d="m606.3 265.1c17.7-3.1 24-26.1 10-37.5-15.5-12.8-39.2 2.3-34.2 21.8 2.9 10.7 13.3 17.5 24.2 15.7z" fill="#d9d9eb"/><path d="m543.7 310.5c-16.6 12.5-6.7 39.3 13.7 38.2 18-1 26.6-24 13.5-36.5-7.5-7-18.9-7.7-27.2-1.7z" fill="#d7d7e9"/><path d="m603.8 333.4c-15 14.4-1.6 40.4 18.9 36 18.7-4 22.4-30.1 5.6-39.2-8-4.3-17.8-3-24.5 3.2z" fill="#d6d6e7"/><path d="m482.9 298c23.8 5.6 36-29 13.5-39.2-26.5-12.1-42.3 32.1-13.5 39.2z" fill="#d2d2e4"/><path d="m401.7 226.3c-18.5 9.5-11.5 38.8 9.9 37.7 30.9-1.5 18.5-51.4-9.9-37.7z" fill="#c4c4d6"/><path d="m676.4 322.3c-18.5 19.6 14.9 46.2 29.7 23.8 12.5-18.9-13.8-40.1-29.7-23.8z" fill="#b6b6c7"/><path d="m550.8 141.5c13-17.6-10.7-39.9-27.3-25.5-20.3 17.5 10.9 46.7 27.3 25.5z" fill="#b1b1c3"/><path d="m375.4 163.9c-17.4 10.3-4.5 38.2 14.7 30.5 21.6-8.5 5.9-41.8-14.7-30.5z" fill="#9393a4"/><path d="m781.7 336c-3.1-18.8-31.6-16.5-31.3 2.5.4 21.4 33.9 19 31.3-2.5z" fill="#7b7b8c"/><path d="m668.8 94.7c-16.7 9.3-3 34.9 13.7 26.2 16.8-8.7 3.4-34.8-13.7-26.2z" fill="#667"/><path d="m665.3 307.6c-13.2-9.6-30.4 6.5-21.2 20.1 12.5 17.9 38.6-6.1 21.2-20.1z" fill="#667"/><path d="m771.5 245.3c-2 18.3 25.6 22.3 28.7 4.3s-25.8-23.1-28.7-4.3z" fill="#606071"/></svg>