<svg enable-background="new 0 0 650 430" height="430" viewBox="0 0 650 430" width="650" xmlns="http://www.w3.org/2000/svg"><path d="m43.4 335h-11.9" fill="none" stroke="#7f7f7f" stroke-linecap="round" stroke-linejoin="round"/><path d="m43.4 230.7h-11.9" fill="none" stroke="#7f7f7f" stroke-linecap="round" stroke-linejoin="round"/><path d="m43.4 126.5h-11.9" fill="none" stroke="#7f7f7f" stroke-linecap="round" stroke-linejoin="round"/><path d="m43.4 22.3h-11.9" fill="none" stroke="#7f7f7f" stroke-linecap="round" stroke-linejoin="round"/><text fill="#a8a8a8" font-family="'RobotoMono-Regular'" font-size="19" transform="matrix(0 -1 1 0 17.8237 351.6836)">−2</text><text fill="#a8a8a8" font-family="'RobotoMono-Regular'" font-size="19" transform="matrix(0 -1 1 0 17.8237 235.9688)">0</text><text fill="#a8a8a8" font-family="'RobotoMono-Regular'" font-size="19" transform="matrix(0 -1 1 0 17.8257 131.7539)">2</text><text fill="#a8a8a8" font-family="'RobotoMono-Regular'" font-size="19" transform="matrix(0 -1 1 0 17.8257 27.5352)">4</text><g stroke-linecap="round" stroke-linejoin="round"><path d="m43.4 383.2h603.7v-377.8h-603.7z" fill="none" stroke="#7f7f7f"/><path d="m107.8 373.3c.8-12.5 1.3-11.3 1.8-23.8.2-5.7.5-7.5.8-13.3.1-2.5.3-4.7.9-7.1.7-2.7.4-5.7 2.2-8 1.6-2 1.1-4.6 1.3-7.1.2-3.6.1-7.4.6-11 .1-.9.3-2 .8-2.8.3-.4.9-.6 1.1-1 .5-.8.4-2 .7-2.9.3-1 .9-1.7 1.2-2.6.6-1.9.3-3.9.7-5.8.3-1.2.6-1.6 1.6-2.6.2-.2.2-.6.4-.9.2-.2.5 0 .8-.3s1-.4 1.2-.8c.6-.8.2-3.4.3-4.3.2-2.1.3-4.3.5-6.4.1-1-.2-1.9.6-2.6.4-.3 1.2-.3 1.4-.6.6-.7.3-2.1.9-2.9.7-1 1.7-.9 2.3-2 .8-1.4 1.8-2.5 2.4-4 .5-1.2.2-3.1 1-4.1.2-.3.8-.3 1.1-.5.7-.6 1-1.3 1.6-1.9 1.7-1.8 2.7-4.2 4-6.3.9-1.3 1.2-3 1.7-4.5.2-.5.3-.9.5-1.4.2-.4.3-.9.5-1.3.2-.3.9-.3 1-.5.7-1.3.4-3 .8-4.4.5-1.4 1.5-1.5 2.1-2.3.4-.6.4-1.9.6-2.6.3-.9.4-.9.8-1.3.3-.3 1.1-.7 1.4-1.3.4-.7.3-1.7.8-2.3.7-.8 2-.5 3-1.3 1.4-1.1.4-1.1-.4-2.4-.3-.6-.9-1.1-1-1.4-.2-.4-.6-.5-.9-1.4-.2-.6-.2-1.4-.6-1.9-.5-.8-1.2-.8-1.6-1.2-.3-.3-.8-1.3-1.2-1.5s-1.2 0-1.7-.1c-2.1-.6-1.1-1.8-2.1-3.4-.2-.3-.8 0-1-.3-.4-.6-.4-1.5-.6-2.2-.4-1.5-.8-3-1.2-4.5-.3-1.1-.5-2.3-1.1-3.3-.3-.5-.7-.9-1-1.4-.4-.8-.2-2.1-.8-2.8-.2-.3-.8-.1-1-.3-.4-.5-.8-1.3-1.1-1.8-.4-.5-.5-.2-.9-1s-.5-2-.7-2.9c-.6-2.6-.3-5.7-3-7.2-.2-.1-.6.1-.8 0-.4-.1-.6-.7-.9-.8-.5-.2-1.1-.3-1.6-.5-1.5-.6-2.1-1.4-2.7-2.9-.6-1.3-.7-2.7-1.1-4-.5-1.3-1.3-1.9-2.1-3-3.3-4.6 1-12-3.5-15.9-1.8-1.5-4.9-2.1-5.9-4.2-1.3-2.5-1.2-6.2-1.6-8.9-.7-5.5-.3-11.1-1.3-16.5-.4-2-.9-3.3-1-5.3-.1-3.3-.2-6.6-.2-10-.2-8-.4-15.9-.5-23.9 0-1.6-.1-3.2-.1-4.7h-1.9c0 1.6-.1 3.2-.1 4.7-.2 8-.4 15.9-.5 23.9-.1 3.3-.2 6.6-.2 10 0 2-.6 3.3-1 5.3-1 5.4-.6 11.1-1.3 16.5-.4 2.7-.3 6.4-1.6 8.9-1.1 2.1-4.2 2.7-6 4.2-4.4 3.9-.4 11.2-3.5 15.9-.7 1.1-1.7 1.7-2.1 3-.5 1.3-.5 2.7-1.1 4-.7 1.5-1.2 2.3-2.7 2.9-.5.2-1.2.3-1.6.5s-.6.7-.9.8c-.2.1-.6-.1-.8 0-2.7 1.5-2.4 4.5-3 7.2-.2.9-.3 2.1-.7 2.9s-.5.5-.9 1c-.3.4-.7 1.3-1.1 1.8-.3.3-.8.1-1 .3-.5.7-.4 2-.8 2.8-.2.5-.7.9-1 1.4-.5 1-.7 2.2-1.1 3.3-.4 1.5-.8 3-1.2 4.5-.2.6-.2 1.6-.6 2.2-.2.3-.8 0-1 .3-1 1.5 0 2.8-2.1 3.4-.4.1-1.3-.1-1.7.1s-.9 1.2-1.2 1.5c-.5.4-1.2.4-1.6 1.2-.3.5-.4 1.4-.6 1.9-.2.9-.6 1-.9 1.4-.2.3-.7.8-1 1.4-.7 1.3-1.7 1.3-.4 2.4 1 .8 2.3.5 3 1.3.5.6.4 1.6.8 2.3s1.1 1 1.4 1.3c.4.4.5.4.8 1.3.2.7.2 2 .6 2.6.6.8 1.6 1 2.1 2.3.5 1.4.2 3.1.8 4.4.1.3.8.2 1 .5.2.4.4.9.5 1.3.2.5.4.9.5 1.4.5 1.4.8 3.1 1.7 4.5 1.3 2.1 2.3 4.5 4 6.3.6.6.9 1.3 1.6 1.9.3.3.9.3 1.1.5.8 1 .5 2.9 1 4.1.6 1.5 1.6 2.7 2.4 4 .6 1.1 1.6 1.1 2.3 2 .6.8.2 2.2.9 2.9.2.2 1 .2 1.4.6.8.7.6 1.6.6 2.6.2 2.1.3 4.3.5 6.4.1 1-.2 3.5.3 4.3.3.4.9.5 1.2.8.3.2.5 0 .8.3.2.2.2.6.4.9.9.9 1.3 1.4 1.6 2.6.4 1.9.2 4 .7 5.8.3.9.9 1.7 1.2 2.6s.2 2.1.7 2.9c.2.4.8.6 1.1 1 .5.7.7 1.9.8 2.8.5 3.6.4 7.4.6 11 .1 2.5-.3 5.1 1.3 7.1 1.8 2.3 1.5 5.3 2.2 8 .6 2.5.8 4.6.9 7.1.3 5.7.6 7.5.8 13.3.5 12.5 1 11.3 1.8 23.8z" fill="#e6e6e6" stroke="#282828" stroke-miterlimit="10" stroke-width="1.5"/><path d="m82.7 262.7h48.3" fill="none" stroke="#282828" stroke-miterlimit="10" stroke-width="1.5"/><path d="m82.7 183.7h48.3" fill="none" stroke="#282828" stroke-miterlimit="10" stroke-width="1.5"/><path d="m59.6 223.9h94.6" fill="none" stroke="#282828" stroke-miterlimit="10" stroke-width="1.5"/><path d="m337 22.1c.1 2.2.2 4.3.3 6.5.6 11.3 1 12.8 1.3 24.1.3 8.7 1.3 11.3 1.5 20 .3 10.7-.4 12.9 1.6 23.5.4 2.3.7 5.2 2 7.2.1.2.7.2.9.5.2.2.2.6.3.9.2.4.5 1.1.6 1.6.1.6 0 1.2.1 1.8.3 6.5.5 12.9.8 19.4.1 1.9 1.1 3 1.9 4.8 1 2.2 1 4.8 1.7 7.1.7 2.2.6 4.6 1.6 6.7 1 2.2 1.6 4 1.8 6.5.3 2.8.5 5.5 1.3 8.2.4 1.2.6 2.4.9 3.7.3 1.6.4 1.2 1.5 2.3 2.2 2.1 2.5 4.5 3.5 7.2.3 1 .9 2.4 1.6 3.2.7.7 1.6 1.1 2.5 1.7s2.1 1 2.6 1.8c.8 1.2.2 3.1.8 4.3.5 1 1 1.4 1.2 2.5.3 1.2.2 2.8.7 4s1.7 1.7 2.2 2.8c.3.5.2 1.6.6 2 .3.3.9.4 1.2.6.4.3.5 0 .8.4.2.3.3.9.4 1.2.2.5.2 1.2.6 1.6 1.2 1 1.4.2 2 1.8.4 1.1.1 3.3 1 4 .8.7 1.9.4 2.7 1.4.2.3 1.3 1.5 1.3 1.6.1.2.8.2.5 1s-2.2 1-2.9 1.5c-.8.5-2.2 1.2-2.9 1.9-.8.7-1.2 1.9-2 2.6-1.9 1.6-3.5 2.5-4.5 4.7-.2.5-.4 1.4-.8 1.9-.5.6-.3.1-1 .6-.8.5-2 .8-2.7 1.3-1.2.9-1.3 1-2.8 1.5-1.1.3-1.6.6-2.2 1.5-1.4 2-3.5 3.7-4.9 5.8-.4.6-.5 1.2-.9 1.7-.3.3-1.4.6-1.6.9-.6.8-.5 2.3-.9 3.3-.7 1.7-1 1.2-2.6 1.6s-1.4.9-1.7 2.4c-.4 1.7-.6 1.5-2.2 2.3-.9.5-2 1.5-3 1.7-.8.3-2.3 0-2.8.5-.7.7-.5 3.1-.8 4-.2.6-.3 1.2-.7 1.7-.2.3-1.1.7-1.2.8-.6.9-.8 2.3-1.1 3.4h-1.9c-.3-1.1-.5-2.5-1.1-3.4-.1-.1-.9-.5-1.2-.8-.5-.5-.6-1.1-.7-1.7-.3-.9-.1-3.4-.8-4-.6-.6-2.1-.3-2.8-.5-.9-.3-2.1-1.3-3-1.7-1.6-.8-1.7-.6-2.2-2.3-.4-1.5-.1-2.1-1.7-2.4-1.6-.4-1.8.1-2.6-1.6-.4-.9-.3-2.5-.9-3.3-.2-.3-1.3-.6-1.6-.9-.5-.5-.6-1.1-.9-1.7-1.4-2.1-3.4-3.8-4.9-5.8-.6-.9-1.2-1.2-2.2-1.5-1.5-.4-1.6-.6-2.8-1.5-.7-.5-2-.8-2.7-1.3s-.5 0-1-.6c-.4-.4-.6-1.3-.8-1.9-1-2.3-2.5-3.1-4.4-4.7-.8-.7-1.2-1.8-2-2.6-.7-.6-2-1.3-2.9-1.9-.7-.5-2.6-.7-2.9-1.5s.4-.8.5-1c.1-.1 1.1-1.4 1.3-1.6.8-1 1.9-.7 2.7-1.4.9-.7.6-2.9 1-4 .6-1.6.8-.7 2-1.8.4-.3.4-1.1.6-1.6.1-.3.2-1 .4-1.2.3-.4.4 0 .8-.4.2-.2.9-.3 1.2-.6.4-.4.4-1.5.6-2 .5-1.1 1.7-1.6 2.2-2.8s.4-2.7.7-4c.3-1.2.7-1.5 1.2-2.5.6-1.3.1-3.1.8-4.3.5-.8 1.7-1.3 2.6-1.8.9-.6 1.8-1 2.5-1.7.8-.8 1.3-2.2 1.6-3.2.9-2.8 1.2-5.1 3.5-7.2 1.1-1 1.2-.7 1.5-2.3.3-1.2.5-2.5.9-3.7.8-2.7 1-5.4 1.3-8.2.3-2.4.9-4.2 1.8-6.5.9-2.1.8-4.5 1.6-6.7.7-2.3.8-5 1.7-7.1.8-1.7 1.8-2.9 1.9-4.8.3-6.5.5-12.9.8-19.4 0-.6 0-1.2.1-1.8.1-.5.4-1.2.6-1.6.1-.2.2-.6.3-.9.2-.3.7-.2.9-.5 1.3-2 1.6-4.9 2-7.2 2-10.6 1.3-12.8 1.6-23.5.2-8.7 1.2-11.3 1.5-20 .4-11.3.8-12.9 1.3-24.1.1-2.2.2-4.3.3-6.5z" fill="#e6e6e6" stroke="#282828" stroke-miterlimit="10" stroke-width="1.5"/><path d="m311.9 229h48.3" fill="none" stroke="#282828" stroke-miterlimit="10" stroke-width="1.5"/><path d="m311.9 172.2h48.3" fill="none" stroke="#282828" stroke-miterlimit="10" stroke-width="1.5"/><path d="m288.8 209.3h94.5" fill="none" stroke="#282828" stroke-miterlimit="10" stroke-width="1.5"/><path d="m451.6 344.8c.3-10.6.2-21.3.9-31.9.3-4.7.8-9.9 1.8-14.5.4-2 1.2-4.6 2-6.5.3-.7.8-1.2 1-2 .4-1.5.3-3.3.4-4.8.2-2.8.3-4.6 1.7-7 .7-1.3.9-1.7 2.4-2.3 1.1-.4 2.4-.5 3.1-1.6 1.2-2 .8-5.2 1.8-7.5.4-1 1-2 1.4-3 .7-1.8 1.2-1.3 2.3-2.7.8-1 .9-1.3 2.1-1.8 1-.5 2.1-.7 2.9-1.6s.9-1.8 1.8-2.7c1-1 1.7-1.7 2.5-2.9.5-.8 1.4-2.4 2.1-3 .8-.7 2.1-.2 2.9-.8.4-.3.5-1.1.8-1.5.4-.4.9-.5 1.3-.8 1.2-.8 1.5-1.5 2.5-2.5.3-.3.9-.2 1.1-.4.4-.5.4-1.4.5-2 .4-1.3 1.1-2.2 1.9-3.3s1.3-1.3 2.7-1.6c1.5-.3 1.9.2 2.4-1 1.1-3-2.6-3.5-4.3-5-1.6-1.5-3.3-2.7-5.2-3.8-.6-.3-2.6-.9-2.8-1.1-.9-.9-.1-3.1-.9-4-1-1.2-4.2-.8-5.7-1.4-.4-.2-2.3-1.7-2.6-2.1-.7-.9-.6-2.7-.8-3.9-.3-2.3-.4-5.1-1.3-7.2-.2-.4-.5-1-.9-1.4-.3-.3-.8 0-1.1-.3-1-.8-1.8-2-2.2-3.1-.5-1.1-.6-2.6-1.2-3.6-.7-1.2-1.1-.8-1.5-2.3-.4-1.2-.4-2.4-1-3.6-.7-1.3-1.5-1.6-1.9-3-.4-1.1-.6-2.7-1.3-3.7-.5-.7-1.7-1.1-2.1-1.8-.5-.9-.2-2.8-.3-3.9-.2-1.8-.3-3.6-.5-5.3-.2-1.9-.3-3.9-.5-5.8-.1-1.7-.3-3.3-.4-5 0-.5.1-1.3-.1-1.8-.2-.3-.6-.5-.7-.8-1-2.2-.8-5-1.8-7.4-.8-1.8-2.1-2.9-2.3-4.6-.5-3.3-.4-6.7-.6-10-.3-4.5-.5-9-.7-13.5-.5-11-.9-22-1.3-32.9-.1-1.8-.1-3.6-.2-5.3h-1.9c-.1 1.8-.1 3.6-.2 5.3-.4 11-.9 22-1.3 32.9-.2 4.5-.4 9-.7 13.5-.2 3.3-.1 6.7-.6 10-.3 1.7-1.6 2.7-2.3 4.6-1 2.4-.8 5.2-1.8 7.4-.1.3-.6.5-.7.8-.2.5-.1 1.3-.1 1.8-.1 1.7-.3 3.3-.4 5-.2 1.9-.3 3.9-.5 5.8-.2 1.8-.3 3.6-.5 5.3-.1 1 .2 2.9-.3 3.9-.4.8-1.5 1.1-2.1 1.8-.8 1-1 2.5-1.4 3.7-.5 1.4-1.3 1.7-1.9 3-.6 1.2-.6 2.4-1 3.6-.5 1.5-.8 1.1-1.5 2.3-.6 1-.7 2.5-1.2 3.6-.4 1.1-1.2 2.3-2.2 3.1-.3.3-.8 0-1.1.3s-.7.9-.9 1.4c-.9 2.2-1 4.9-1.3 7.2-.2 1.2-.1 2.9-.8 3.9-.3.4-2.2 1.9-2.6 2.1-1.5.6-4.7.2-5.7 1.4-.8 1 0 3.1-.9 4-.2.2-2.3.7-2.9 1.1-1.9 1.2-3.6 2.4-5.2 3.8-1.6 1.5-5.4 2.1-4.3 5 .4 1.2.8.8 2.4 1 1.4.2 1.9.5 2.7 1.6.9 1.1 1.6 2 1.9 3.3.2.6.2 1.5.5 2 .2.2.8.1 1.1.4.9 1 1.3 1.7 2.5 2.5.5.3.9.4 1.3.8s.4 1.2.8 1.5c.8.6 2.1.2 2.9.8.7.6 1.6 2.2 2.1 3 .8 1.2 1.5 1.9 2.5 2.9.9.9 1.1 1.8 1.8 2.7.8.9 1.9 1.1 2.9 1.6 1.1.5 1.2.8 2 1.8 1.1 1.4 1.6.9 2.3 2.7.4 1 1 2 1.4 3 1 2.2.6 5.5 1.8 7.5.7 1.1 2 1.2 3.1 1.6 1.5.6 1.6 1 2.3 2.3 1.4 2.4 1.4 4.2 1.7 7 .1 1.5 0 3.3.4 4.8.2.8.7 1.3 1 2 .8 1.9 1.6 4.5 2 6.5.9 4.7 1.5 9.8 1.8 14.5.7 10.6.6 21.3 1 31.9z" fill="#e6e6e6" stroke="#282828" stroke-miterlimit="10" stroke-width="1.5"/><path d="m426.6 258h48.2" fill="none" stroke="#282828" stroke-miterlimit="10" stroke-width="1.5"/><path d="m426.6 208.9h48.2" fill="none" stroke="#282828" stroke-miterlimit="10" stroke-width="1.5"/><path d="m403.4 234.6h94.6" fill="none" stroke="#282828" stroke-miterlimit="10" stroke-width="1.5"/><path d="m566.2 315.4c1.8-.9 1.2-3.3 1.9-4.8.8-1.8 1.3-3.1 1.6-5.2.3-2 1.3-1.9 2.9-2.9 1.7-1.1 1.5-2.7 1.9-4.5s.7-2.5 2.4-3.3c1.5-.7 2.8-1.8 3.7-3.1.5-.7.7-1.5 1.3-2.2.5-.7 1.3-1.2 1.9-1.8 1.2-1.3 2.1-2.2 2.9-3.7.9-1.5 1.9-1.1 3.7-1.4 2.4-.4 2-1 3.3-2.6 1.3-1.5 2.8-1.4 3.6-3.1.6-1.4 1-3 1.7-4.4.6-1.2.5-.6 1.4-1.3s1-1.1 1.8-2c.4-.5.8-.3 1.2-.9.6-.9.2-2.4.8-3.4.7-1.2 2.3-1.6 3.6-2.2.9-.5.8-.2 1.3-.9.6-.9.5-2.5.8-3.6 1.7-5.8 2.9-12.2 2.9-18.2 0-5 0-9.9 0-14.9 0-1 .4-3 0-3.9-.2-.3-.9-.7-1.2-1-.5-.6-1.2-1.6-1.5-2.4-1.2-3-.8-6.8-1.4-10-.2-.9-.2-2.5-.7-3.2-.3-.5-1.1-.7-1.6-1.3-1.2-1.4-1.3-3.4-2.1-5-.7-1.5-1.7-2.4-2.9-3.4s-2.9-1.3-3.9-2.4c-1.1-1.1-1.6-2.9-2.8-3.9-.2-.2-.8.1-1 0-.4-.3-.5-.9-.9-1.2-.6-.5-1.4-.9-2.1-1.3-.8-.4-1.1-.2-1.8-1.2s-.7-1.4-1.6-2c-1.3-.7-2.6-.9-4-1.4-1.9-.7-2-2.3-2.7-4-.6-1.4-1.7-2.6-2.2-4.1-.8-2.1-.9-2.9-2.5-4.6-.6-.6-1.2-1-1.8-1.4-.5-.5-1.5-.8-1.9-1.2-1.1-.9-2-2.4-2.4-3.7-.3-.9-.1-2.3-.6-3.2-.3-.5-.8-.7-1.1-1.2-1-1.7-.4-3.4-1.8-5h-1.9c-1.5 1.5-.9 3.3-1.8 5-.3.5-.8.7-1.1 1.2-.5.9-.4 2.2-.6 3.2-.4 1.3-1.3 2.8-2.4 3.7-.4.3-1.4.7-1.9 1.2-.6.5-1.2.9-1.8 1.4-1.6 1.6-1.7 2.5-2.5 4.6-.5 1.5-1.6 2.8-2.3 4.3-.7 1.7-.9 3.2-2.8 3.9-1.4.5-2.7.7-3.9 1.4-1 .5-1 1-1.6 2-.7 1.1-.9.7-1.8 1.2-.7.4-1.5.7-2.1 1.3-.3.3-.4.8-.8 1.1-.2.2-.7 0-.9.2-1.2 1-1.8 2.7-2.9 3.8-.4.4-1.4 1-2 1.3-.7.4-1.1.5-1.8 1.1-1.2.9-2.2 1.8-2.9 3.2-.8 1.6-.9 3.6-2 5.1-.5.7-1.4.9-1.8 1.3-.5.7-.5 2.2-.6 3.1-.7 3.2-.2 7-1.3 10.1-.3.7-.9 1.8-1.5 2.4-.3.3-1.1.9-1.3 1.1-.4.9 0 2.8 0 3.7v14.7c0 6.3 1.1 12.7 2.9 18.7.3 1 .2 2.4.7 3.4s.2.4 1.2 1c1.2.7 3 1 3.7 2.2.6.9.2 2.3.7 3.3.5.8.6.4 1.2 1 .8.9.9 1.3 1.8 2.1.9.7.7 0 1.4 1.3.7 1.4 1 3 1.7 4.4.7 1.7 2.2 1.6 3.4 3.1 1.3 1.5.9 2.2 3.2 2.7 1.8.4 3-.2 3.9 1.4 1.5 2.6 4.2 4.8 6 7.4.9 1.4 2.2 2.5 3.8 3.3 1.7.9 2 1.5 2.4 3.3.4 1.9.2 3.4 1.9 4.5.5.4 1.3.6 1.9 1.1.7.7.6.3.9 1.5s.2 2.6.7 3.8c.2.6.7 1.1 1 1.7.7 1.5.1 3.9 1.9 4.8h1.9z" fill="#e6e6e6" stroke="#282828" stroke-miterlimit="10" stroke-width="1.5"/><path d="m541.2 282.8h48.2" fill="none" stroke="#282828" stroke-miterlimit="10" stroke-width="1.5"/><path d="m541.2 185.4h48.2" fill="none" stroke="#282828" stroke-miterlimit="10" stroke-width="1.5"/><path d="m518 232.4h94.6" fill="none" stroke="#282828" stroke-miterlimit="10" stroke-width="1.5"/><path d="m106.9 383.2v10.5" fill="none" stroke="#7f7f7f"/><path d="m221.5 383.2v10.5" fill="none" stroke="#7f7f7f"/><path d="m336.1 383.2v10.5" fill="none" stroke="#7f7f7f"/></g><text fill="#a8a8a8" font-family="'RobotoMono-Regular'" font-size="19" transform="translate(100.8857 422.8338)">n</text><text fill="#a8a8a8" font-family="'RobotoMono-Regular'" font-size="19" transform="translate(215.7812 422.8338)">s</text><text fill="#a8a8a8" font-family="'RobotoMono-Regular'" font-size="19" transform="translate(330.5234 422.8338)">k</text><text fill="#a8a8a8" font-family="'RobotoMono-Regular'" font-size="19" transform="translate(445.2637 422.8338)">l</text><path d="m451 383.2v10.5" fill="none" stroke="#7f7f7f" stroke-linecap="round" stroke-linejoin="round"/><path d="m565.6 383.2v10.5" fill="none" stroke="#7f7f7f" stroke-linecap="round" stroke-linejoin="round"/><text fill="#a8a8a8" font-family="'RobotoMono-Regular'" font-size="19" transform="translate(559.5879 422.8338)">m</text><path d="m216.2 308.9c.3-11.4.2-6.8.9-18.2.3-5.1.8-3.7 1.8-8.7.4-2.1 1.2-4.9 2-6.9.3-.8.8-1.3 1-2.1.4-1.6.3-3.5.4-5.2.2-3 .3-5 1.7-7.5.7-1.4.9-1.9 2.4-2.5 1.1-.5 2.4-.5 3.1-1.8 1.2-2.1.8-3.3 1.8-5.7.4-1.1 1-2.1 1.4-3.2.7-1.9 1.2-1.4 2.3-2.8.8-1.1.9-1.4 2.1-1.9 1-.5 2.1-.7 2.9-1.7.8-.9.9-2 1.8-2.9 1-1.1 1.7-1.9 2.5-3.2.5-.8 1.4-2.6 2.1-3.2.8-.7 2.1-.3 2.9-.9.4-.3.5-1.2.8-1.6.4-.4.9-.5 1.3-.8 1.2-.8 1.5-1.6 2.5-2.6.3-.3.9-.2 1.1-.4.4-.5.4-1.5.5-2.1.4-1.4 1.1-2.4 1.9-3.6.8-1.1 1.3-1.4 2.7-1.7 1.5-.3 1.9.2 2.4-1.1 1.1-3.2-2.6-3.8-4.3-5.4-1.6-1.6-3.3-2.9-5.2-4.1-.6-.4-2.6-.9-2.8-1.2-.9-1-.1-3.3-.9-4.3-1-1.3-4.2-.9-5.7-1.5-.4-.2-2.3-1.8-2.6-2.2-.7-1-.6-2.9-.8-4.1-.3-2.5-.4-5.4-1.3-7.8-.2-.4-.5-1.1-.9-1.5-.3-.3-.8 0-1.1-.3-1-.9-1.8-2.2-2.2-3.3-.5-1.2-.6-2.8-1.2-3.9-.7-1.3-1.1-.9-1.5-2.4-.4-1.3-.4-4.7-1-6-.7-1.4-1.5-1.7-1.9-3.2-.4-1.2-.6-5-1.3-6.1-.5-.8-1.7-1.2-2.1-2-.5-1-.2-3-.3-4.2-.2-1.9-.3-3.8-.5-5.7-.2-2.1-.3-4.2-.5-6.3-.1-1.8-.3-3.6-.4-5.4 0-.5.1-1.4-.1-1.9-.2-.3-.6-.5-.7-.8-1-2.4-.8-5.4-1.8-7.9-.8-1.9-2.1-3.1-2.3-4.9-.5-3.5-.4-7.2-.6-10.7-.3-4.8-.5-9.6-.7-14.4-.5-11.8-.9-23.5-1.3-35.3-.1-1.9-.1-1.7-.2-3.6h-1.9c-.1 1.9-.1 1.7-.2 3.6-.4 11.8-.9 23.5-1.3 35.3-.2 4.8-.4 9.6-.7 14.4-.2 3.5-.1 7.2-.6 10.7-.3 1.8-1.6 2.9-2.3 4.9-1 2.5-.8 5.5-1.8 7.9-.1.3-.6.5-.7.8-.2.5-.1 1.4-.1 1.9-.1 1.8-.3 3.6-.4 5.4-.2 2.1-.3 4.2-.5 6.3-.2 1.9-.3 3.8-.5 5.7-.1 1.1.2 3.1-.3 4.2-.4.8-1.5 1.2-2.1 2-.8 1.1-1 4.8-1.4 6.1-.5 1.5-1.3 1.8-1.9 3.2-.6 1.2-.6 4.7-1 6-.5 1.6-.8 1.1-1.5 2.4-.6 1.1-.7 2.7-1.2 3.9-.4 1.2-1.2 2.5-2.2 3.3-.3.3-.8 0-1.1.3s-.7 1-.9 1.5c-.9 2.3-1 5.3-1.3 7.8-.2 1.3-.1 3.1-.8 4.1-.3.4-2.2 2-2.6 2.2-1.5.7-4.7.2-5.7 1.5-.8 1 0 3.4-.9 4.3-.2.2-2.3.8-2.9 1.2-1.9 1.2-3.6 2.5-5.2 4.1s-5.4 2.2-4.3 5.4c.4 1.3.8.8 2.4 1.1 1.4.3 1.9.5 2.7 1.7.9 1.2 1.6 2.1 1.9 3.6.2.6.2 1.6.5 2.1.2.3.8.2 1.1.4.9 1.1 1.3 1.8 2.5 2.6.5.3.9.4 1.3.8s.4 1.2.8 1.6c.8.6 2.1.2 2.9.9.7.6 1.6 2.4 2.1 3.2.8 1.3 1.5 2.1 2.5 3.2.9.9 1.1 1.9 1.8 2.9.8 1 1.9 1.2 2.9 1.7 1.1.6 1.2.9 2 1.9 1.1 1.5 1.6.9 2.3 2.8.4 1.1 1 2.1 1.4 3.2 1 2.4.6 3.6 1.8 5.7.7 1.2 2 1.3 3.1 1.8 1.5.6 1.6 1.1 2.3 2.5 1.4 2.6 1.4 4.5 1.7 7.5.1 1.6 0 3.5.4 5.2.2.8.7 1.4 1 2.1.8 2 1.6 4.8 2 6.9.9 5 1.5 3.7 1.8 8.7.7 11.3.6 6.8 1 18.2z" style="fill:#e6e6e6;stroke:#282828;stroke-width:1.5;stroke-linecap:round;stroke-linejoin:round;stroke-miterlimit:10"/><path d="m191.2 241.1h48.2" style="fill:none;stroke:#282828;stroke-width:1.5;stroke-linecap:round;stroke-linejoin:round;stroke-miterlimit:10"/><path d="m191.2 188.4h48.2" style="fill:none;stroke:#282828;stroke-width:1.5;stroke-linecap:round;stroke-linejoin:round;stroke-miterlimit:10"/><path d="m168 216h94.6" style="fill:none;stroke:#282828;stroke-width:1.5;stroke-linecap:round;stroke-linejoin:round;stroke-miterlimit:10"/></svg>