<svg xmlns="http://www.w3.org/2000/svg" width="650" height="340" viewBox="0 0 650 340"><defs><style>.cls-1,.cls-6,.cls-8{fill:none;}.cls-1{stroke:#6d6c6c;}.cls-1,.cls-3,.cls-4,.cls-5,.cls-6,.cls-8,.cls-9{stroke-linecap:round;stroke-linejoin:round;}.cls-2{isolation:isolate;font-size:18px;fill:#999;font-family:Roboto Mono;}.cls-3,.cls-4,.cls-7{fill:#e6e6e6;}.cls-3,.cls-4,.cls-5,.cls-6,.cls-8,.cls-9{stroke:#333;}.cls-3{stroke-width:1.63px;}.cls-4,.cls-5,.cls-6{stroke-width:1.77px;}.cls-5{fill:#ccc;}.cls-8{stroke-width:1.6px;}.cls-9{fill:#fff;stroke-width:1.59px;}</style></defs><title>hdr-box-plot-01</title><path class="cls-1" d="M37.9,299.1H643V7H37.9V299.1Z"/><path class="cls-1" d="M130,299.8v11.9"/><path class="cls-1" d="M269.6,299.8v11.9"/><path class="cls-1" d="M409.3,299.8v11.9"/><path class="cls-1" d="M548.9,299.8v11.9"/><path class="cls-1" d="M37.9,43.6H26"/><path class="cls-1" d="M37.9,191.7H26"/><path class="cls-1" d="M37.9,265.8H26"/><path class="cls-1" d="M37.9,117.7H26"/><text class="cls-2" transform="translate(113.8 331.5)">jun</text><text class="cls-2" transform="translate(253.4 331.5)">jul</text><text class="cls-2" transform="translate(393.1 331.5)">aug</text><text class="cls-2" transform="translate(532.7 331.5)">sep</text><text class="cls-2" transform="translate(19.7 200.3) rotate(-90)">20</text><text class="cls-2" transform="translate(19.7 51.7) rotate(-90)">40</text><text class="cls-2" transform="translate(19.7 126) rotate(-90)">30</text><text class="cls-2" transform="translate(19.7 274.6) rotate(-90)">10</text><rect class="cls-3" x="93.7" y="259.6" width="70.1" height="21.32"/><rect class="cls-4" x="93.7" y="81" width="70.1" height="162.07"/><rect class="cls-5" x="93.7" y="211.5" width="70.1" height="17.09"/><rect class="cls-5" x="93.7" y="145" width="70.1" height="62.04"/><line class="cls-6" x1="79.7" y1="174.4" x2="177.9" y2="174.4"/><rect class="cls-7" x="234" y="131.2" width="70.2" height="117.65"/><rect class="cls-6" x="234" y="131.2" width="70.2" height="117.65"/><rect class="cls-7" x="234" y="74.8" width="70.2" height="32.39"/><rect class="cls-6" x="234" y="74.8" width="70.2" height="32.39"/><rect class="cls-7" x="234" y="19.8" width="70.2" height="26.53"/><rect class="cls-6" x="234" y="19.8" width="70.2" height="26.53"/><rect class="cls-5" x="234" y="163.1" width="70.2" height="47.19"/><line class="cls-6" x1="220" y1="191.9" x2="318.2" y2="191.9"/><rect class="cls-4" x="374.3" y="79.1" width="70.2" height="180.12"/><rect class="cls-7" x="374.3" y="52.2" width="70.2" height="6.27"/><rect class="cls-6" x="374.3" y="52.2" width="70.2" height="6.27"/><rect class="cls-5" x="374.3" y="164.5" width="70.2" height="59.23"/><line class="cls-6" x1="360.2" y1="186.2" x2="458.4" y2="186.2"/><rect class="cls-7" x="514.6" y="197.3" width="70.1" height="82.2"/><rect class="cls-8" x="514.6" y="197.3" width="70.1" height="82.2"/><rect class="cls-7" x="514.6" y="88.4" width="70.1" height="83.11"/><rect class="cls-8" x="514.6" y="88.4" width="70.1" height="83.11"/><rect class="cls-5" x="514.6" y="225.5" width="70.1" height="27.29"/><rect class="cls-5" x="514.6" y="115.7" width="70.1" height="27.17"/><line class="cls-8" x1="500.5" y1="130.3" x2="598.7" y2="130.3"/><circle class="cls-9" cx="125.4" cy="35.1" r="6.1"/><circle class="cls-9" cx="408.2" cy="280" r="6.1"/><circle class="cls-9" cx="550" cy="63.2" r="6.1"/><circle class="cls-9" cx="269.1" cy="18.9" r="6.1"/></svg>