<svg height="340" viewBox="0 0 650 340" width="650" xmlns="http://www.w3.org/2000/svg"><path d="m37.9 299.1h605.1v-292.1h-605.1z" fill="none" stroke="#6d6c6c" stroke-linecap="round" stroke-linejoin="round"/><path d="m130 299.8v11.9" fill="none" stroke="#6d6c6c" stroke-linecap="round" stroke-linejoin="round"/><path d="m269.6 299.8v11.9" fill="none" stroke="#6d6c6c" stroke-linecap="round" stroke-linejoin="round"/><path d="m409.3 299.8v11.9" fill="none" stroke="#6d6c6c" stroke-linecap="round" stroke-linejoin="round"/><path d="m548.9 299.8v11.9" fill="none" stroke="#6d6c6c" stroke-linecap="round" stroke-linejoin="round"/><path d="m37.9 43.6h-11.9" fill="none" stroke="#6d6c6c" stroke-linecap="round" stroke-linejoin="round"/><path d="m37.9 191.7h-11.9" fill="none" stroke="#6d6c6c" stroke-linecap="round" stroke-linejoin="round"/><path d="m37.9 265.8h-11.9" fill="none" stroke="#6d6c6c" stroke-linecap="round" stroke-linejoin="round"/><path d="m37.9 117.7h-11.9" fill="none" stroke="#6d6c6c" stroke-linecap="round" stroke-linejoin="round"/><text fill="#999" font-family="Roboto Mono" font-size="18" transform="translate(113.8 331.5)">jun</text><text fill="#999" font-family="Roboto Mono" font-size="18" transform="translate(253.4 331.5)">jul</text><text fill="#999" font-family="Roboto Mono" font-size="18" transform="translate(393.1 331.5)">aug</text><text fill="#999" font-family="Roboto Mono" font-size="18" transform="translate(532.7 331.5)">sep</text><text fill="#999" font-family="Roboto Mono" font-size="18" transform="matrix(0 -1 1 0 19.7 200.3)">20</text><text fill="#999" font-family="Roboto Mono" font-size="18" transform="matrix(0 -1 1 0 19.7 51.7)">40</text><text fill="#999" font-family="Roboto Mono" font-size="18" transform="matrix(0 -1 1 0 19.7 126)">30</text><text fill="#999" font-family="Roboto Mono" font-size="18" transform="matrix(0 -1 1 0 19.7 274.6)">10</text><g stroke="#6d6c6c"><path d="m271 267.5v-55.5" fill="none" stroke-width="3.52"/><path d="m289.6 267.6-36.5-.1" fill="none" stroke-width="3.52"/><path d="m225.5 139.5v72.5h88.2v-72.5l-20.7-13.5h-47.5z" fill="#aaa5a5" stroke-linecap="round" stroke-linejoin="round" stroke-width="2.38"/><path d="m225.5 113.1v-70.5h88.2v70.5l-20.7 12.4h-47.5z" fill="#cecccc" stroke-linecap="round" stroke-linejoin="round" stroke-width="2.28"/><path d="m270.3 17v25.6" fill="none" stroke-width="3.52"/><path d="m251.7 17h36.5" fill="none" stroke-width="3.52"/><path d="m410.7 270.5v-31.5" fill="none" stroke-width="3.52"/><path d="m429.3 270.6-36.5-.1" fill="none" stroke-width="3.52"/><path d="m365.2 145.5v93.5h88.2v-93.5l-20.7-24.5h-47.5z" fill="#aaa5a5" stroke-linecap="round" stroke-linejoin="round" stroke-width="2.38"/><path d="m365.2 97.1v-45.5h88.2v45.5l-20.7 23.4h-47.5z" fill="#cecccc" stroke-linecap="round" stroke-linejoin="round" stroke-width="2.28"/><path d="m410 29v22.6" fill="none" stroke-width="3.52"/><path d="m391.4 29h36.5" fill="none" stroke-width="3.52"/><path d="m131.4 290.5v-31.5" fill="none" stroke-width="3.52"/><path d="m150 290.6-36.5-.1" fill="none" stroke-width="3.52"/><path d="m85.9 205.5v53.5h88.2v-53.5l-20.7-13.5h-47.5z" fill="#aaa5a5" stroke-linecap="round" stroke-linejoin="round" stroke-width="2.38"/><path d="m85.9 179.1v-19.5h88.2v19.5l-20.7 12.5h-47.5z" fill="#cecccc" stroke-linecap="round" stroke-linejoin="round" stroke-width="2.28"/><path d="m130.7 92v67.6" fill="none" stroke-width="3.52"/><path d="m112.1 92h36.5" fill="none" stroke-width="3.52"/><path d="m550.3 263.5v-68.5" fill="none" stroke-width="3.52"/><path d="m568.9 263.6-36.5-.1" fill="none" stroke-width="3.52"/><path d="m504.8 176.5v18.5h88.2v-18.5l-20.7-38.5h-47.5z" fill="#aaa5a5" stroke-linecap="round" stroke-linejoin="round" stroke-width="2.38"/><path d="m504.8 101.1v-21.5h88.2v21.5l-20.7 36.5h-47.5z" fill="#cecccc" stroke-linecap="round" stroke-linejoin="round" stroke-width="2.28"/><path d="m549.6 45v34.6" fill="none" stroke-width="3.52"/><path d="m531 45h36.5" fill="none" stroke-width="3.52"/></g></svg>