<svg enable-background="new 0 0 650 340" height="340" viewBox="0 0 650 340" width="650" xmlns="http://www.w3.org/2000/svg"><path d="m37.9 299.1h605.1v-292.1h-605.1z" fill="none" stroke="#6d6c6c" stroke-linecap="round" stroke-linejoin="round"/><path d="m130 299.8v11.9" fill="none" stroke="#6d6c6c" stroke-linecap="round" stroke-linejoin="round"/><path d="m269.6 299.8v11.9" fill="none" stroke="#6d6c6c" stroke-linecap="round" stroke-linejoin="round"/><path d="m409.3 299.8v11.9" fill="none" stroke="#6d6c6c" stroke-linecap="round" stroke-linejoin="round"/><path d="m548.9 299.8v11.9" fill="none" stroke="#6d6c6c" stroke-linecap="round" stroke-linejoin="round"/><path d="m37.9 43.6h-11.9" fill="none" stroke="#6d6c6c" stroke-linecap="round" stroke-linejoin="round"/><path d="m37.9 191.7h-11.9" fill="none" stroke="#6d6c6c" stroke-linecap="round" stroke-linejoin="round"/><path d="m37.9 265.8h-11.9" fill="none" stroke="#6d6c6c" stroke-linecap="round" stroke-linejoin="round"/><path d="m37.9 117.7h-11.9" fill="none" stroke="#6d6c6c" stroke-linecap="round" stroke-linejoin="round"/><text fill="#999" font-family="'RobotoMono-Regular'" font-size="18" transform="translate(113.7973 331.5)">jun</text><text fill="#999" font-family="'RobotoMono-Regular'" font-size="18" transform="translate(253.3975 331.5)">jul</text><text fill="#999" font-family="'RobotoMono-Regular'" font-size="18" transform="translate(393.0972 331.5)">aug</text><text fill="#999" font-family="'RobotoMono-Regular'" font-size="18" transform="translate(532.6978 331.5)">sep</text><text fill="#999" font-family="'RobotoMono-Regular'" font-size="18" transform="matrix(0 -1 1 0 19.7 200.3008)">20</text><text fill="#999" font-family="'RobotoMono-Regular'" font-size="18" transform="matrix(0 -1 1 0 19.7 51.6992)">40</text><text fill="#999" font-family="'RobotoMono-Regular'" font-size="18" transform="matrix(0 -1 1 0 19.7 126)">30</text><text fill="#999" font-family="'RobotoMono-Regular'" font-size="18" transform="matrix(0 -1 1 0 19.7 274.5996)">10</text><g stroke="#6d6c6c"><path d="m271 267.5v-55.5" fill="none" stroke-width="3.5205"/><path d="m289.6 267.6-36.5-.1" fill="none" stroke-width="3.5205"/><path d="m238.2 212h62.8v-66.8h-62.8z" fill="#aaa5a5" stroke-linecap="round" stroke-linejoin="round" stroke-width="2.0101"/><path d="m238.2 42.6h62.8v102.1h-62.8z" fill="#cecccc" stroke-linecap="round" stroke-linejoin="round" stroke-width="1.9265"/><path d="m270.3 17v25.6" fill="none" stroke-width="3.5205"/><path d="m251.7 17h36.5" fill="none" stroke-width="3.5205"/><path d="m410.7 270.5v-31.5" fill="none" stroke-width="3.5205"/><path d="m429.3 270.6-36.5-.1" fill="none" stroke-width="3.5205"/><path d="m390.7 239h37.2v-125.8h-37.2z" fill="#aaa5a5" stroke-linecap="round" stroke-linejoin="round" stroke-width="1.5471"/><path d="m390.7 51.6h37.2v61.1h-37.2z" fill="#cecccc" stroke-linecap="round" stroke-linejoin="round" stroke-width="1.4827"/><path d="m410 29v22.6" fill="none" stroke-width="3.5205"/><path d="m391.4 29h36.5" fill="none" stroke-width="3.5205"/><path d="m131.4 290.5v-31.5" fill="none" stroke-width="3.5205"/><path d="m150 290.6-36.5-.1" fill="none" stroke-width="3.5205"/><path d="m85.9 191.6v67.4h88.2v-67.4z" fill="#aaa5a5" stroke-linecap="round" stroke-linejoin="round" stroke-width="2.3822"/><path d="m85.9 191.6v-32h88.2v32z" fill="#cecccc" stroke-linecap="round" stroke-linejoin="round" stroke-width="2.2831"/><path d="m130.7 92v67.6" fill="none" stroke-width="3.5205"/><path d="m112.1 92h36.5" fill="none" stroke-width="3.5205"/><path d="m550.3 263.5v-68.5" fill="none" stroke-width="3.5205"/><path d="m568.9 263.6-36.5-.1" fill="none" stroke-width="3.5205"/><path d="m493.5 195h110.8v-57h-110.8z" fill="#aaa5a5" stroke-linecap="round" stroke-linejoin="round" stroke-width="2.6708"/><path d="m493.5 79.6h110.8v58h-110.8z" fill="#cecccc" stroke-linecap="round" stroke-linejoin="round" stroke-width="2.5597"/><path d="m549.6 45v34.6" fill="none" stroke-width="3.5205"/><path d="m531 45h36.5" fill="none" stroke-width="3.5205"/></g></svg>