<?xml version="1.0" encoding="utf-8"?>
<!-- Generator: Adobe Illustrator 22.1.0, SVG Export Plug-In . SVG Version: 6.00 Build 0)  -->
<svg version="1.1" id="Layer_1" xmlns="http://www.w3.org/2000/svg" xmlns:xlink="http://www.w3.org/1999/xlink" x="0px" y="0px"
	 viewBox="0 0 505 489" style="enable-background:new 0 0 505 489;" xml:space="preserve">
<style type="text/css">
	.st0{fill:#FFFFFF;stroke:#000000;stroke-miterlimit:10;}
	.st1{fill:none;stroke:#000000;stroke-miterlimit:10;}
	.st2{fill:#A5A5B9;}
	.st3{font-family:'RobotoMono-Regular';}
	.st4{font-size:10.7579px;}
	.st5{fill:none;stroke:#A8A8A8;stroke-width:1.1052;stroke-miterlimit:10;}
	
		.st6{opacity:0.8;fill:none;stroke:#A8A8A8;stroke-width:1.6578;stroke-linecap:round;stroke-miterlimit:10;stroke-dasharray:0,3.3156;enable-background:new    ;}
	.st7{fill:#514361;}
	.st8{font-size:18.8263px;}
	.st9{font-family:'Roboto-Italic';}
	.st10{font-size:12.1026px;}
</style>
<polyline class="st0" points="62.7,460 62.7,341 152.8,341 152.8,460 "/>
<polyline class="st0" points="107.2,341 107.2,247 243,247 243,341 "/>
<polyline class="st1" points="175.2,247 175.2,152 378,152 378,342 "/>
<polyline class="st0" points="197.8,460 197.8,341 287.9,341 287.9,460 "/>
<polyline class="st0" points="332.9,460 332.9,341 423,341 423,460 "/>
<text transform="matrix(1 0 0 1 22.1055 474.9004)" class="st2 st3 st4">0</text>
<path class="st5" d="M32.6,459.7v-10.1"/>
<text transform="matrix(1 0 0 1 13.5576 381.8887)" class="st2 st3 st4">20</text>
<text transform="matrix(1 0 0 1 13.5576 300.9678)" class="st2 st3 st4">40</text>
<text transform="matrix(1 0 0 1 13.5576 220.0464)" class="st2 st3 st4">60</text>
<text transform="matrix(1 0 0 1 13.5576 139.1255)" class="st2 st3 st4">80</text>
<text transform="matrix(1 0 0 1 5.8457 58.2036)" class="st2 st3 st4">100</text>
<path class="st5" d="M32.6,459.7V55.1"/>
<path class="st5" d="M32.6,297.9v161.8h10.1"/>
<path class="st5" d="M32.6,378.8h10.1"/>
<path class="st5" d="M32.6,216.9h10.1"/>
<path class="st5" d="M32.6,297.9h10.1"/>
<path class="st5" d="M32.6,136.1h10.1"/>
<path class="st5" d="M32.6,55.1h10.1"/>
<path class="st6" d="M274.2,100.8H324"/>
<text transform="matrix(1 0 0 1 30.5156 23.0786)" class="st7 st3 st8">scale axis</text>
<text transform="matrix(1 0 0 1 328.1934 106.3403)" class="st7 st3 st8">root node</text>
<path class="st6" d="M378.2,232.8L405,233"/>
<text transform="matrix(1 0 0 1 410.1934 225.3403)" class="st7 st3 st8">internal</text>
<text transform="matrix(1 0 0 1 410.1934 247.9403)" class="st7 st3 st8">node</text>
<path class="st6" d="M423,462.1l26.8,0.2"/>
<text transform="matrix(1 0 0 1 454.9934 454.65)" class="st7 st3 st8">leaf </text>
<text transform="matrix(1 0 0 1 454.9934 477.25)" class="st7 st3 st8">node</text>
<text transform="matrix(1 0 0 1 33.7344 39.105)" class="st7 st9 st10">shows dissimilarity</text>
<line class="st1" x1="274.2" y1="153" x2="274.2" y2="84.5"/>
</svg>
