<?xml version="1.0" encoding="utf-8"?>
<!-- Generator: Adobe Illustrator 19.2.0, SVG Export Plug-In . SVG Version: 6.00 Build 0)  -->
<svg version="1.1" id="Layer_1" xmlns="http://www.w3.org/2000/svg" xmlns:xlink="http://www.w3.org/1999/xlink" x="0px" y="0px"
	 width="1268px" height="558px" viewBox="0 0 1268 558" enable-background="new 0 0 1268 558" xml:space="preserve">
<g id="Layer_2">
</g>
<polyline fill="none" stroke="#EBE0D4" stroke-width="3" stroke-miterlimit="10" points="372.783,159.5 508.283,159.5 508.283,262 
	"/>
<polyline fill="none" stroke="#EBE0D4" stroke-width="3" stroke-miterlimit="10" points="235.783,260.5 304.283,260.5 
	304.283,354.5 339.283,354.5 339.283,426 "/>
<polyline fill="none" stroke="#EBE0D4" stroke-width="3" stroke-miterlimit="10" points="165.783,354.5 130.283,354.5 130.283,426 
	"/>
<polyline fill="none" stroke="#EBE0D4" stroke-width="3" stroke-miterlimit="10" points="508.783,260.5 577.283,260.5 
	577.283,354.5 612.283,354.5 612.283,426 "/>
<polyline fill="none" stroke="#EBE0D4" stroke-width="3" stroke-miterlimit="10" points="438.783,354.5 403.283,354.5 403.283,426 
	"/>
<polyline fill="none" stroke="#EBE0D4" stroke-width="3" stroke-miterlimit="10" points="779.783,260.5 848.283,260.5 
	848.283,354.5 884.283,354.5 884.283,426 "/>
<polyline fill="none" stroke="#EBE0D4" stroke-width="3" stroke-miterlimit="10" points="710.783,354.5 675.283,354.5 675.283,426 
	"/>
<polyline fill="none" stroke="#EBE0D4" stroke-width="3" stroke-miterlimit="10" points="1052.783,260.5 1121.283,260.5 
	1121.283,354.5 1157.283,354.5 1157.283,426 "/>
<polyline fill="none" stroke="#EBE0D4" stroke-width="3" stroke-miterlimit="10" points="983.783,354.5 948.283,354.5 948.283,426 
	"/>
<g>
	<text transform="matrix(0 -1 1 0 207.7083 527.7998)" fill="#6C5F82" font-family="'RobotoCondensed-Regular'" font-size="26px">Australia</text>
</g>
<g>
	<text transform="matrix(0 -1 1 0 684.2996 555.3867)"><tspan x="0" y="0" fill="#6C5F82" font-family="'RobotoCondensed-Regular'" font-size="26px">Switzerland</tspan><tspan x="39.19" y="69" fill="#6C5F82" font-family="'RobotoCondensed-Regular'" font-size="26px">Sweden</tspan><tspan x="68.009" y="138" fill="#6C5F82" font-family="'RobotoCondensed-Regular'" font-size="26px">Chile</tspan><tspan x="21.798" y="207" fill="#6C5F82" font-family="'RobotoCondensed-Regular'" font-size="26px">Colombia</tspan><tspan x="75.969" y="276" fill="#6C5F82" font-family="'RobotoCondensed-Regular'" font-size="26px">Italy</tspan><tspan x="50.921" y="345" fill="#6C5F82" font-family="'RobotoCondensed-Regular'" font-size="26px">Russia</tspan><tspan x="35.648" y="414" fill="#6C5F82" font-family="'RobotoCondensed-Regular'" font-size="26px">Uruguay</tspan><tspan x="76.337" y="483" fill="#6C5F82" font-family="'RobotoCondensed-Regular'" font-size="26px">USA</tspan></text>
</g>
<g>
	<text transform="matrix(0 -1 1 0 277.3751 510.2422)" fill="#6C5F82" font-family="'RobotoCondensed-Regular'" font-size="26px">Mexico</text>
</g>
<g>
	<text transform="matrix(0 -1 1 0 138.8751 518.1895)" fill="#6C5F82" font-family="'RobotoCondensed-Regular'" font-size="26px">England</text>
</g>
<g>
	<text transform="matrix(0 -1 1 0 346.8748 507.8047)" fill="#6C5F82" font-family="'RobotoCondensed-Regular'" font-size="26px">Greece</text>
</g>
<g>
	<text transform="matrix(0 -1 1 0 410.3748 535.125)" fill="#6C5F82" font-family="'RobotoCondensed-Regular'" font-size="26px">Argentina</text>
</g>
<g>
	<text transform="matrix(0 -1 1 0 478.8748 505.6211)" fill="#6C5F82" font-family="'RobotoCondensed-Regular'" font-size="26px">France</text>
</g>
<g>
	<text transform="matrix(0 -1 1 0 546.2503 519.2051)" fill="#6C5F82" font-family="'RobotoCondensed-Regular'" font-size="26px">Belgium</text>
</g>
<g>
	<text transform="matrix(0 -1 1 0 615.9998 526.873)" fill="#6C5F82" font-family="'RobotoCondensed-Regular'" font-size="26px">Germany</text>
</g>
<g>
	<text transform="matrix(1 0 0 1 562.277 21.8857)" fill="#6C5F82" font-family="'RobotoCondensed-Regular'" font-size="26px">Champion 2019</text>
</g>
<g>
	<polyline fill="none" stroke="#6C5F82" stroke-width="3" stroke-miterlimit="10" points="268.283,426 268.283,354.5 302.783,354.5 
			"/>
	<polyline fill="none" stroke="#6C5F82" stroke-width="3" stroke-miterlimit="10" points="541.283,426 541.283,354.5 575.658,354.5 
			"/>
	<polyline fill="none" stroke="#6C5F82" stroke-width="3" stroke-miterlimit="10" points="473.283,426 473.283,354.5 438.283,354.5 
		438.283,260.5 506.783,260.5 	"/>
	<polyline fill="none" stroke="#6C5F82" stroke-width="3" stroke-miterlimit="10" points="812.283,426 812.283,354.5 846.689,354.5 
			"/>
	<polyline fill="none" stroke="#6C5F82" stroke-width="3" stroke-miterlimit="10" points="745.283,425 745.283,354.5 710.283,354.5 
		710.283,260.5 779.283,260.5 779.283,159.5 915.783,159.5 	"/>
	<polyline fill="none" stroke="#6C5F82" stroke-width="3" stroke-miterlimit="10" points="1085.283,426 1085.283,354.5 
		1119.658,354.5 	"/>
	<polyline fill="none" stroke="#6C5F82" stroke-width="3" stroke-miterlimit="10" points="1018.283,426 1018.283,354.5 
		983.283,354.5 983.283,260.5 1051.783,260.5 	"/>
	<polyline fill="none" stroke="#6C5F82" stroke-width="3" stroke-miterlimit="10" points="200.283,425 200.283,354.5 165.283,354.5 
		165.283,260.5 234.283,260.5 234.283,159.5 371.283,159.5 371.283,52.5 643.283,52.5 643.283,36 	"/>
</g>
<polyline fill="none" stroke="#EBE0D4" stroke-width="3" stroke-miterlimit="10" points="644.783,52.5 916.283,52.5 916.283,159.5 
	1052.283,159.5 1052.283,262 "/>
</svg>
