<?xml version="1.0" encoding="utf-8"?>
<!-- Generator: Adobe Illustrator 24.0.1, SVG Export Plug-In . SVG Version: 6.00 Build 0)  -->
<svg version="1.1" id="Layer_1" xmlns="http://www.w3.org/2000/svg" xmlns:xlink="http://www.w3.org/1999/xlink" x="0px" y="0px"
	 viewBox="0 0 1268 418" style="enable-background:new 0 0 1268 418;" xml:space="preserve">
<style type="text/css">
	.st0{fill:#E5E5E5;}
	.st1{fill:none;stroke:#A39CB9;stroke-width:2.2522;stroke-linecap:round;stroke-linejoin:round;}
	.st2{fill:#706F70;}
	.st3{font-family:'RobotoCondensed-Regular';}
	.st4{font-size:8.0327px;}
	.st5{fill:#A39CB9;stroke:#FFFFFF;stroke-width:1.9669;stroke-miterlimit:10;}
	.st6{font-size:8.0556px;}
	.st7{font-size:8.0251px;}
	.st8{font-size:7.9848px;}
	.st9{font-size:8.0399px;}
	.st10{font-size:8.0508px;}
	.st11{font-size:8.0331px;}
	.st12{font-size:8.0174px;}
	.st13{font-size:8.0343px;}
	.st14{font-size:8.0427px;}
	.st15{font-size:8.0041px;}
	.st16{font-size:8.068px;}
</style>
<symbol  id="a" viewBox="-43.1 -23.1 86.2 46.3">
	<path class="st0" d="M-43.1-23.1h86.2v9.1h-86.2V-23.1z M-43.1-4.5h86.2v9.2h-86.2V-4.5z M-43.1,13.9h86.2v9.2h-86.2V13.9z"/>
</symbol>
<g>
	<title>spiral-timeline</title>
	<path class="st1" d="M272.7,233.9c-12.5-24.7,3.5-53.5,27.5-63.3c33.9-13.9,71.4,7.7,83.3,40.8c15.5,43-11.9,89.3-54,103.2
		c-52.1,17.3-107.4-16.1-123.2-67.2c-19-61.2,20.3-125.4,80.4-143.2c70.3-20.8,143.5,24.5,163.1,93.5
		C472.4,277.1,421.1,359.4,343,381c-88.4,24.4-179.7-32.9-203.1-120C113.7,163.6,177,63.1,273.1,37.8
		c106.5-27.9,215.9,41.3,243,146.4c11.8,45.8,7.5,95-11.5,138.4"/>
	
		<use xlink:href="#a"  width="86.2" height="46.3" x="-43.1" y="-23.1" transform="matrix(0.4279 0 0 0.4279 211.4901 120.0956)" style="overflow:visible;"/>
	<text transform="matrix(0.6959 -0.7181 0.7181 0.6959 243.2711 143.747)" class="st2 st3 st4">f</text>
	<text transform="matrix(0.6959 -0.7181 0.7181 0.6959 244.9951 141.968)" class="st2 st3 st4">eb</text>
	<circle class="st5" cx="239" cy="131.7" r="4.2"/>
	
		<use xlink:href="#a"  width="86.2" height="46.3" x="-43.1" y="-23.1" transform="matrix(0.4279 0 0 0.4279 247.2243 237.8837)" style="overflow:visible;"/>
	<circle class="st5" cx="272.7" cy="233.9" r="4.2"/>
	<text transform="matrix(0.4099 0.9121 -0.9121 0.4099 277.3528 226.926)" class="st2 st3 st4">jan</text>
	
		<use xlink:href="#a"  width="86.2" height="46.3" x="-43.1" y="-23.1" transform="matrix(0.4279 0 0 0.4279 312.3869 147.9474)" style="overflow:visible;"/>
	<circle class="st5" cx="313.7" cy="167.2" r="4.2"/>
	<text transform="matrix(0.9898 -0.1426 0.1426 0.9898 308.6595 179.4076)" class="st2 st3 st4">mar</text>
	
		<use xlink:href="#a"  width="86.2" height="46.3" x="-43.1" y="-23.1" transform="matrix(0.4279 0 0 0.4279 385.5821 172.4209)" style="overflow:visible;"/>
	<circle class="st5" cx="357" cy="177.3" r="4.2"/>
	<text transform="matrix(0.8161 0.5779 -0.5779 0.8161 346.9456 183.1599)" class="st2 st3 st4">apr</text>
	
		<use xlink:href="#a"  width="86.2" height="46.3" x="-43.1" y="-23.1" transform="matrix(0.4279 0 0 0.4279 410.8814 217.3139)" style="overflow:visible;"/>
	<circle class="st5" cx="384.2" cy="213.2" r="4.2"/>
	<text transform="matrix(0.2892 0.9573 -0.9573 0.2892 371.7112 210.5829)" class="st2 st3 st6">m</text>
	<text transform="matrix(0.2892 0.9573 -0.9573 0.2892 373.4524 216.3502)" class="st2 st3 st6">a</text>
	<text transform="matrix(0.2892 0.9573 -0.9573 0.2892 374.5625 220.025)" class="st2 st3 st6">y</text>
	
		<use xlink:href="#a"  width="86.2" height="46.3" x="-43.1" y="-23.1" transform="matrix(0.4279 0 0 0.4279 410.8814 258.6786)" style="overflow:visible;"/>
	<circle class="st5" cx="384.8" cy="258" r="4.2"/>
	<text transform="matrix(0.3355 -0.9421 0.9421 0.3355 377.2004 260.7848)" class="st2 st3 st4">jun</text>
	
		<use xlink:href="#a"  width="86.2" height="46.3" x="-43.1" y="-23.1" transform="matrix(0.4279 0 0 0.4279 387.9844 305.1482)" style="overflow:visible;"/>
	<circle class="st5" cx="360.8" cy="296.1" r="4.2"/>
	<text transform="matrix(0.7385 -0.6743 0.6743 0.7385 353.5504 294.7905)" class="st2 st3 st4">jul</text>
	
		<use xlink:href="#a"  width="86.2" height="46.3" x="-43.1" y="-23.1" transform="matrix(0.4279 0 0 0.4279 330.8546 336.8286)" style="overflow:visible;"/>
	<circle class="st5" cx="320.7" cy="317.2" r="4.2"/>
	<text transform="matrix(0.96 -0.28 0.28 0.96 313.2756 313.1087)" class="st2 st3 st4">aug</text>
	
		<use xlink:href="#a"  width="86.2" height="46.3" x="-43.1" y="-23.1" transform="matrix(0.4279 0 0 0.4279 270.6468 336.228)" style="overflow:visible;"/>
	<circle class="st5" cx="275.7" cy="315.7" r="4.2"/>
	<text transform="matrix(0.9573 0.2892 -0.2892 0.9573 271.8574 307.2905)" class="st2 st3 st6">sep</text>
	
		<use xlink:href="#a"  width="86.2" height="46.3" x="-43.1" y="-23.1" transform="matrix(0.4279 0 0 0.4279 221.0242 312.6554)" style="overflow:visible;"/>
	<circle class="st5" cx="236.1" cy="293.6" r="4.2"/>
	<text transform="matrix(0.7507 0.6606 -0.6606 0.7507 236.7387 285.5877)" class="st2 st3 st7">oct</text>
	
		<use xlink:href="#a"  width="86.2" height="46.3" x="-43.1" y="-23.1" transform="matrix(0.4279 0 0 0.4279 184.1638 265.9606)" style="overflow:visible;"/>
	<circle class="st5" cx="209.6" cy="256.9" r="4.2"/>
	<text transform="matrix(0.3074 0.9516 -0.9516 0.3074 213.917 249.6729)" class="st2 st3 st4">n</text>
	<text transform="matrix(0.3074 0.9516 -0.9516 0.3074 215.1173 253.3891)" class="st2 st3 st4">o</text>
	<text transform="matrix(0.3074 0.9516 -0.9516 0.3074 216.3401 257.1751)" class="st2 st3 st4">v</text>
	
		<use xlink:href="#a"  width="86.2" height="46.3" x="-43.1" y="-23.1" transform="matrix(0.4279 0 0 0.4279 172.0022 213.6354)" style="overflow:visible;"/>
	<circle class="st5" cx="201.3" cy="212.3" r="4.2"/>
	<text transform="matrix(0.1097 -0.994 0.994 0.1097 212.1172 218.5193)" class="st2 st3 st4">dec</text>
	
		<use xlink:href="#a"  width="86.2" height="46.3" x="-43.1" y="-23.1" transform="matrix(0.4279 0 0 0.4279 185.2899 167.0157)" style="overflow:visible;"/>
	<circle class="st5" cx="212.3" cy="168.3" r="4.2"/>
	<text transform="matrix(0.4586 -0.8886 0.8886 0.4586 219.9238 177.3797)" class="st2 st3 st4">jan</text>
	
		<use xlink:href="#a"  width="86.2" height="46.3" x="-43.1" y="-23.1" transform="matrix(0.4279 0 0 0.4279 249.8519 182.3304)" style="overflow:visible;"/>
	<circle class="st5" cx="276.8" cy="190.7" r="4.2"/>
	<text transform="matrix(0.4586 -0.8886 0.8886 0.4586 284.4106 200.0508)" class="st2 st3 st4">f</text>
	<text transform="matrix(0.4586 -0.8886 0.8886 0.4586 285.547 197.849)" class="st2 st3 st4">eb</text>
	
		<use xlink:href="#a"  width="86.2" height="46.3" x="-43.1" y="-23.1" transform="matrix(0.4279 0 0 0.4279 265.6921 87.4393)" style="overflow:visible;"/>
	<circle class="st5" cx="277.4" cy="107.5" r="4.2"/>
	<text transform="matrix(0.9155 -0.4024 0.4024 0.9155 276.5203 121.1514)" class="st2 st3 st8">mar</text>
	
		<use xlink:href="#a"  width="86.2" height="46.3" x="-43.1" y="-23.1" transform="matrix(0.4279 0 0 0.4279 321.6207 81.1333)" style="overflow:visible;"/>
	<circle class="st5" cx="322" cy="99.2" r="4.2"/>
	<text transform="matrix(0.9998 -1.745240e-02 1.745240e-02 0.9998 316.9162 110.4918)" class="st2 st3 st4">apr</text>
	
		<use xlink:href="#a"  width="86.2" height="46.3" x="-43.1" y="-23.1" transform="matrix(0.4279 0 0 0.4279 379.5764 88.9408)" style="overflow:visible;"/>
	<circle class="st5" cx="366.6" cy="107.5" r="4.2"/>
	<text transform="matrix(0.9292 0.3697 -0.3697 0.9292 356.2915 116.0521)" class="st2 st3 st9">m</text>
	<text transform="matrix(0.9292 0.3697 -0.3697 0.9292 361.8764 118.2741)" class="st2 st3 st9">a</text>
	<text transform="matrix(0.9292 0.3697 -0.3697 0.9292 365.437 119.6907)" class="st2 st3 st9">y</text>
	
		<use xlink:href="#a"  width="86.2" height="46.3" x="-43.1" y="-23.1" transform="matrix(0.4279 0 0 0.4279 429.274 112.5134)" style="overflow:visible;"/>
	<circle class="st5" cx="405.6" cy="130.5" r="4.2"/>
	<text transform="matrix(0.7627 0.6468 -0.6468 0.7627 394.9154 135.7142)" class="st2 st3 st4">jun</text>
	
		<use xlink:href="#a"  width="86.2" height="46.3" x="-43.1" y="-23.1" transform="matrix(0.4279 0 0 0.4279 460.504 152.8271)" style="overflow:visible;"/>
	<circle class="st5" cx="435.5" cy="164.9" r="4.2"/>
	<text transform="matrix(0.497 0.8678 -0.8678 0.497 424.5688 167.5442)" class="st2 st3 st4">jul</text>
	
		<use xlink:href="#a"  width="86.2" height="46.3" x="-43.1" y="-23.1" transform="matrix(0.4279 0 0 0.4279 478.9717 203.7259)" style="overflow:visible;"/>
	<circle class="st5" cx="451.9" cy="206.8" r="4.2"/>
	<text transform="matrix(0.2095 0.9778 -0.9778 0.2095 440.8447 205.2697)" class="st2 st3 st10">aug</text>
	
		<use xlink:href="#a"  width="86.2" height="46.3" x="-43.1" y="-23.1" transform="matrix(0.4279 0 0 0.4279 478.9717 254.6998)" style="overflow:visible;"/>
	<circle class="st5" cx="454.1" cy="252.4" r="4.2"/>
	<text transform="matrix(-8.541695e-02 0.9963 -0.9963 -8.541695e-02 443.4873 246.6703)" class="st2 st3 st4">sep</text>
	
		<use xlink:href="#a"  width="86.2" height="46.3" x="-43.1" y="-23.1" transform="matrix(0.4279 0 0 0.4279 469.2874 298.3167)" style="overflow:visible;"/>
	<circle class="st5" cx="442.1" cy="296.1" r="4.2"/>
	<text transform="matrix(0.4115 -0.9114 0.9114 0.4115 435.7539 297.5694)" class="st2 st3 st4">oct</text>
	
		<use xlink:href="#a"  width="86.2" height="46.3" x="-43.1" y="-23.1" transform="matrix(0.4279 0 0 0.4279 442.0363 341.9335)" style="overflow:visible;"/>
	<circle class="st5" cx="417.2" cy="334.4" r="4.2"/>
	<text transform="matrix(0.65 -0.76 0.76 0.65 408.9687 335.06)" class="st2 st3 st11">n</text>
	<text transform="matrix(0.65 -0.76 0.76 0.65 411.5061 332.0933)" class="st2 st3 st11">o</text>
	<text transform="matrix(0.65 -0.76 0.76 0.65 414.0926 329.069)" class="st2 st3 st11">v</text>
	
		<use xlink:href="#a"  width="86.2" height="46.3" x="-43.1" y="-23.1" transform="matrix(0.4279 0 0 0.4279 406.4521 379.6947)" style="overflow:visible;"/>
	<circle class="st5" cx="382.5" cy="363.9" r="4.2"/>
	<text transform="matrix(0.7915 -0.6112 0.6112 0.7915 374.2405 361.8001)" class="st2 st3 st12">dec</text>
	
		<use xlink:href="#a"  width="86.2" height="46.3" x="-43.1" y="-23.1" transform="matrix(0.4279 0 0 0.4279 349.2472 399.5138)" style="overflow:visible;"/>
	<circle class="st5" cx="340.9" cy="381.8" r="4.2"/>
	<text transform="matrix(0.9798 -0.2 0.2 0.9798 333.7835 376.2668)" class="st2 st3 st13">jan</text>
	
		<use xlink:href="#a"  width="86.2" height="46.3" x="-43.1" y="-23.1" transform="matrix(0.4279 0 0 0.4279 293.9942 404.8439)" style="overflow:visible;"/>
	<circle class="st5" cx="295.6" cy="386.6" r="4.2"/>
	<text transform="matrix(0.9988 4.993761e-02 -4.993761e-02 0.9988 291.3027 379.4888)" class="st2 st3 st14">f</text>
	<text transform="matrix(0.9988 4.993761e-02 -4.993761e-02 0.9988 293.7801 379.6127)" class="st2 st3 st14">eb</text>
	
		<use xlink:href="#a"  width="86.2" height="46.3" x="-43.1" y="-23.1" transform="matrix(0.4279 0 0 0.4279 241.4438 397.2616)" style="overflow:visible;"/>
	<circle class="st5" cx="251" cy="378.3" r="4.2"/>
	<text transform="matrix(0.9348 0.3551 -0.3551 0.9348 247.6987 370.1635)" class="st2 st3 st4">mar</text>
	
		<use xlink:href="#a"  width="86.2" height="46.3" x="-43.1" y="-23.1" transform="matrix(0.4279 0 0 0.4279 187.7673 376.0162)" style="overflow:visible;"/>
	<circle class="st5" cx="209.9" cy="358.4" r="4.2"/>
	<text transform="matrix(0.8261 0.5635 -0.5635 0.8261 209.3386 349.4443)" class="st2 st3 st4">apr</text>
	
		<use xlink:href="#a"  width="86.2" height="46.3" x="-43.1" y="-23.1" transform="matrix(0.4279 0 0 0.4279 148.8049 336.8286)" style="overflow:visible;"/>
	<circle class="st5" cx="175.9" cy="328.3" r="4.2"/>
	<text transform="matrix(0.6441 0.7649 -0.7649 0.6441 176.5312 318.364)" class="st2 st3 st4">m</text>
	<text transform="matrix(0.6441 0.7649 -0.7649 0.6441 180.3997 322.9581)" class="st2 st3 st4">a</text>
	<text transform="matrix(0.6441 0.7649 -0.7649 0.6441 182.8642 325.8848)" class="st2 st3 st4">y</text>
	
		<use xlink:href="#a"  width="86.2" height="46.3" x="-43.1" y="-23.1" transform="matrix(0.4279 0 0 0.4279 123.9561 296.8152)" style="overflow:visible;"/>
	<circle class="st5" cx="150.9" cy="290.4" r="4.2"/>
	<text transform="matrix(0.3697 0.9292 -0.9292 0.3697 155.2563 284.145)" class="st2 st3 st9">jun</text>
	
		<use xlink:href="#a"  width="86.2" height="46.3" x="-43.1" y="-23.1" transform="matrix(0.4279 0 0 0.4279 109.7675 252.7479)" style="overflow:visible;"/>
	<circle class="st5" cx="136.8" cy="247" r="4.2"/>
	<text transform="matrix(9.410834e-02 0.9956 -0.9956 9.410834e-02 143.4242 243.3678)" class="st2 st3 st4">jul</text>
	
		<use xlink:href="#a"  width="86.2" height="46.3" x="-43.1" y="-23.1" transform="matrix(0.4279 0 0 0.4279 106.3141 203.7259)" style="overflow:visible;"/>
	<circle class="st5" cx="134.5" cy="201.8" r="4.2"/>
	<text transform="matrix(0.1184 -0.993 0.993 0.1184 144.925 208.3087)" class="st2 st3 st4">aug</text>
	
		<use xlink:href="#a"  width="86.2" height="46.3" x="-43.1" y="-23.1" transform="matrix(0.4279 0 0 0.4279 115.548 152.8271)" style="overflow:visible;"/>
	<circle class="st5" cx="144" cy="157.1" r="4.2"/>
	<text transform="matrix(0.3453 -0.9385 0.9385 0.3453 151.4566 165.8925)" class="st2 st3 st4">sep</text>
	
		<use xlink:href="#a"  width="86.2" height="46.3" x="-43.1" y="-23.1" transform="matrix(0.4279 0 0 0.4279 133.9407 112.5134)" style="overflow:visible;"/>
	<circle class="st5" cx="164.4" cy="116.6" r="4.2"/>
	<text transform="matrix(0.5606 -0.8281 0.8281 0.5606 169.7752 127.0825)" class="st2 st3 st4">oct</text>
	
		<use xlink:href="#a"  width="86.2" height="46.3" x="-43.1" y="-23.1" transform="matrix(0.4279 0 0 0.4279 165.7712 71.2237)" style="overflow:visible;"/>
	<circle class="st5" cx="193.7" cy="81.7" r="4.2"/>
	<text transform="matrix(0.6972 -0.7169 0.7169 0.6972 196.4265 93.2997)" class="st2 st3 st4">n</text>
	<text transform="matrix(0.6972 -0.7169 0.7169 0.6972 199.1483 90.5008)" class="st2 st3 st4">o</text>
	<text transform="matrix(0.6972 -0.7169 0.7169 0.6972 201.9216 87.6475)" class="st2 st3 st4">v</text>
	
		<use xlink:href="#a"  width="86.2" height="46.3" x="-43.1" y="-23.1" transform="matrix(0.4279 0 0 0.4279 209.9886 35.8648)" style="overflow:visible;"/>
	<circle class="st5" cx="230.4" cy="55" r="4.2"/>
	<text transform="matrix(0.853 -0.5219 0.5219 0.853 231.1678 66.939)" class="st2 st3 st15">dec</text>
	
		<use xlink:href="#a"  width="86.2" height="46.3" x="-43.1" y="-23.1" transform="matrix(0.4279 0 0 0.4279 263.4399 18.7484)" style="overflow:visible;"/>
	<circle class="st5" cx="272.5" cy="38" r="4.2"/>
	<text transform="matrix(0.9673 -0.2538 0.2538 0.9673 271.723 49.9075)" class="st2 st3 st4">j</text>
	<text transform="matrix(0.9673 -0.2538 0.2538 0.9673 273.4657 49.4503)" class="st2 st3 st4">a</text>
	<text transform="matrix(0.9673 -0.2538 0.2538 0.9673 277.0958 48.498)" class="st2 st3 st4">v</text>
	
		<use xlink:href="#a"  width="86.2" height="46.3" x="-43.1" y="-23.1" transform="matrix(0.4279 0 0 0.4279 317.1164 13.4183)" style="overflow:visible;"/>
	<circle class="st5" cx="317.8" cy="31.7" r="4.2"/>
	<text transform="matrix(0.9998 -1.999600e-02 1.999600e-02 0.9998 312.9673 43.1582)" class="st2 st3 st13">f</text>
	<text transform="matrix(0.9998 -1.999600e-02 1.999600e-02 0.9998 315.4458 43.1086)" class="st2 st3 st13">eb</text>
	
		<use xlink:href="#a"  width="86.2" height="46.3" x="-43.1" y="-23.1" transform="matrix(0.4279 0 0 0.4279 371.8439 17.6223)" style="overflow:visible;"/>
	<circle class="st5" cx="362.9" cy="36.3" r="4.2"/>
	<text transform="matrix(0.9757 0.219 -0.219 0.9757 354.3372 46.1588)" class="st2 st3 st16">mar</text>
	
		<use xlink:href="#a"  width="86.2" height="46.3" x="-43.1" y="-23.1" transform="matrix(0.4279 0 0 0.4279 420.1903 33.8379)" style="overflow:visible;"/>
	<circle class="st5" cx="405.9" cy="51" r="4.2"/>
	<text transform="matrix(0.8829 0.4695 -0.4695 0.8829 397.5437 58.6916)" class="st2 st3 st4">apr</text>
	
		<use xlink:href="#a"  width="86.2" height="46.3" x="-43.1" y="-23.1" transform="matrix(0.4279 0 0 0.4279 469.2874 61.3142)" style="overflow:visible;"/>
	<circle class="st5" cx="444.8" cy="74.8" r="4.2"/>
	<text transform="matrix(0.8111 0.585 -0.585 0.8111 433.2775 79.1094)" class="st2 st3 st4">m</text>
	<text transform="matrix(0.8111 0.585 -0.585 0.8111 438.1486 82.6226)" class="st2 st3 st4">a</text>
	<text transform="matrix(0.8111 0.585 -0.585 0.8111 441.255 84.8631)" class="st2 st3 st4">y</text>
	
		<use xlink:href="#a"  width="86.2" height="46.3" x="-43.1" y="-23.1" transform="matrix(0.4279 0 0 0.4279 506.1478 98.8503)" style="overflow:visible;"/>
	<circle class="st5" cx="477" cy="107" r="4.2"/>
	<text transform="matrix(0.6606 0.7507 -0.7507 0.6606 465.829 108.9819)" class="st2 st3 st7">jun</text>
	
		<use xlink:href="#a"  width="86.2" height="46.3" x="-43.1" y="-23.1" transform="matrix(0.4279 0 0 0.4279 533.3989 142.9175)" style="overflow:visible;"/>
	<circle class="st5" cx="501.5" cy="145.3" r="4.2"/>
	<text transform="matrix(0.4571 0.8894 -0.8894 0.4571 490.483 146.1501)" class="st2 st3 st4">jul</text>
	
		<use xlink:href="#a"  width="86.2" height="46.3" x="-43.1" y="-23.1" transform="matrix(0.4279 0 0 0.4279 546.9119 182.3304)" style="overflow:visible;"/>
	<circle class="st5" cx="517.1" cy="188" r="4.2"/>
	<text transform="matrix(0.3173 0.9483 -0.9483 0.3173 505.1216 185.7884)" class="st2 st3 st4">aug</text>
	
		<use xlink:href="#a"  width="86.2" height="46.3" x="-43.1" y="-23.1" transform="matrix(0.4279 0 0 0.4279 548.8638 233.4544)" style="overflow:visible;"/>
	<circle class="st5" cx="522.7" cy="233.8" r="4.2"/>
	<text transform="matrix(0 1 -1 0 512.5003 227.3164)" class="st2 st3 st4">sep</text>
	
		<use xlink:href="#a"  width="86.2" height="46.3" x="-43.1" y="-23.1" transform="matrix(0.4279 0 0 0.4279 546.9119 278.4977)" style="overflow:visible;"/>
	<circle class="st5" cx="518.6" cy="279.3" r="4.2"/>
	<text transform="matrix(0.2723 -0.9622 0.9622 0.2723 511.5042 282.3297)" class="st2 st3 st4">oct</text>
	
		<use xlink:href="#a"  width="86.2" height="46.3" x="-43.1" y="-23.1" transform="matrix(0.4279 0 0 0.4279 533.3989 323.5409)" style="overflow:visible;"/>
	<circle class="st5" cx="504.7" cy="322.5" r="4.2"/>
	<text transform="matrix(0.3875 -0.9219 0.9219 0.3875 497.5395 325.1196)" class="st2 st3 st4">n</text>
	<text transform="matrix(0.3875 -0.9219 0.9219 0.3875 499.0517 321.5222)" class="st2 st3 st4">o</text>
	<text transform="matrix(0.3875 -0.9219 0.9219 0.3875 500.5942 317.8528)" class="st2 st3 st4">v</text>
</g>
<g>
	<title>spiral-timeline</title>
	<path class="st1" d="M899.4,233.9c-12.5-24.7,3.5-53.5,27.5-63.3c33.9-13.9,71.4,7.7,83.3,40.8c15.5,43-11.9,89.3-54,103.2
		c-52.1,17.3-107.4-16.1-123.2-67.2c-19-61.2,20.3-125.4,80.4-143.2c70.3-20.8,143.5,24.5,163.1,93.5
		c22.6,79.4-28.7,161.6-106.8,183.2c-88.4,24.4-179.7-32.9-203.1-120c-26.2-97.4,37.1-197.8,133.3-223.1
		c106.5-27.9,215.9,41.3,243,146.4c11.8,45.8,7.5,95-11.5,138.4"/>
	
		<use xlink:href="#a"  width="86.2" height="46.3" x="-43.1" y="-23.1" transform="matrix(0.4279 0 0 0.4279 838.1644 120.0956)" style="overflow:visible;"/>
	<text transform="matrix(0.6959 -0.7181 0.7181 0.6959 869.9454 143.747)" class="st2 st3 st4">f</text>
	<text transform="matrix(0.6959 -0.7181 0.7181 0.6959 871.6694 141.968)" class="st2 st3 st4">eb</text>
	<circle class="st5" cx="865.7" cy="131.7" r="4.2"/>
	
		<use xlink:href="#a"  width="86.2" height="46.3" x="-43.1" y="-23.1" transform="matrix(0.4279 0 0 0.4279 873.8987 237.8837)" style="overflow:visible;"/>
	<circle class="st5" cx="899.4" cy="233.9" r="4.2"/>
	<text transform="matrix(0.4099 0.9121 -0.9121 0.4099 904.0271 226.926)" class="st2 st3 st4">jan</text>
	
		<use xlink:href="#a"  width="86.2" height="46.3" x="-43.1" y="-23.1" transform="matrix(0.4279 0 0 0.4279 939.0613 147.9474)" style="overflow:visible;"/>
	<circle class="st5" cx="940.4" cy="167.2" r="4.2"/>
	<text transform="matrix(0.9898 -0.1426 0.1426 0.9898 935.3339 179.4076)" class="st2 st3 st4">mar</text>
	
		<use xlink:href="#a"  width="86.2" height="46.3" x="-43.1" y="-23.1" transform="matrix(0.4279 0 0 0.4279 1012.2565 172.4209)" style="overflow:visible;"/>
	<circle class="st5" cx="983.7" cy="177.3" r="4.2"/>
	<text transform="matrix(0.8161 0.5779 -0.5779 0.8161 973.62 183.1599)" class="st2 st3 st4">apr</text>
	
		<use xlink:href="#a"  width="86.2" height="46.3" x="-43.1" y="-23.1" transform="matrix(0.4279 0 0 0.4279 1037.5558 217.3139)" style="overflow:visible;"/>
	<circle class="st5" cx="1010.9" cy="213.2" r="4.2"/>
	<text transform="matrix(0.2892 0.9573 -0.9573 0.2892 998.3856 210.5829)" class="st2 st3 st6">m</text>
	<text transform="matrix(0.2892 0.9573 -0.9573 0.2892 1000.1268 216.3502)" class="st2 st3 st6">a</text>
	<text transform="matrix(0.2892 0.9573 -0.9573 0.2892 1001.2369 220.025)" class="st2 st3 st6">y</text>
	
		<use xlink:href="#a"  width="86.2" height="46.3" x="-43.1" y="-23.1" transform="matrix(0.4279 0 0 0.4279 1037.5558 258.6786)" style="overflow:visible;"/>
	<circle class="st5" cx="1011.5" cy="258" r="4.2"/>
	<text transform="matrix(0.3355 -0.9421 0.9421 0.3355 1003.8748 260.7848)" class="st2 st3 st4">jun</text>
	
		<use xlink:href="#a"  width="86.2" height="46.3" x="-43.1" y="-23.1" transform="matrix(0.4279 0 0 0.4279 1014.6588 305.1482)" style="overflow:visible;"/>
	<circle class="st5" cx="987.4" cy="296.1" r="4.2"/>
	<text transform="matrix(0.7385 -0.6743 0.6743 0.7385 980.2247 294.7905)" class="st2 st3 st4">jul</text>
	
		<use xlink:href="#a"  width="86.2" height="46.3" x="-43.1" y="-23.1" transform="matrix(0.4279 0 0 0.4279 957.5289 336.8286)" style="overflow:visible;"/>
	<circle class="st5" cx="947.3" cy="317.2" r="4.2"/>
	<text transform="matrix(0.96 -0.28 0.28 0.96 939.95 313.1087)" class="st2 st3 st4">aug</text>
	
		<use xlink:href="#a"  width="86.2" height="46.3" x="-43.1" y="-23.1" transform="matrix(0.4279 0 0 0.4279 897.3212 336.228)" style="overflow:visible;"/>
	<circle class="st5" cx="902.4" cy="315.7" r="4.2"/>
	<text transform="matrix(0.9573 0.2892 -0.2892 0.9573 898.5317 307.2905)" class="st2 st3 st6">sep</text>
	
		<use xlink:href="#a"  width="86.2" height="46.3" x="-43.1" y="-23.1" transform="matrix(0.4279 0 0 0.4279 847.6986 312.6554)" style="overflow:visible;"/>
	<circle class="st5" cx="862.7" cy="293.6" r="4.2"/>
	<text transform="matrix(0.7507 0.6606 -0.6606 0.7507 863.413 285.5877)" class="st2 st3 st7">oct</text>
	
		<use xlink:href="#a"  width="86.2" height="46.3" x="-43.1" y="-23.1" transform="matrix(0.4279 0 0 0.4279 810.8382 265.9606)" style="overflow:visible;"/>
	<circle class="st5" cx="836.3" cy="256.9" r="4.2"/>
	<text transform="matrix(0.3074 0.9516 -0.9516 0.3074 840.5914 249.6729)" class="st2 st3 st4">n</text>
	<text transform="matrix(0.3074 0.9516 -0.9516 0.3074 841.7917 253.3891)" class="st2 st3 st4">o</text>
	<text transform="matrix(0.3074 0.9516 -0.9516 0.3074 843.0145 257.1751)" class="st2 st3 st4">v</text>
	
		<use xlink:href="#a"  width="86.2" height="46.3" x="-43.1" y="-23.1" transform="matrix(0.4279 0 0 0.4279 798.6765 213.6354)" style="overflow:visible;"/>
	<circle class="st5" cx="828" cy="212.3" r="4.2"/>
	<text transform="matrix(0.1097 -0.994 0.994 0.1097 838.7916 218.5193)" class="st2 st3 st4">dec</text>
	
		<use xlink:href="#a"  width="86.2" height="46.3" x="-43.1" y="-23.1" transform="matrix(0.4279 0 0 0.4279 811.9643 167.0157)" style="overflow:visible;"/>
	<circle class="st5" cx="839" cy="168.3" r="4.2"/>
	<text transform="matrix(0.4586 -0.8886 0.8886 0.4586 846.5981 177.3797)" class="st2 st3 st4">jan</text>
	
		<use xlink:href="#a"  width="86.2" height="46.3" x="-43.1" y="-23.1" transform="matrix(0.4279 0 0 0.4279 876.5262 182.3304)" style="overflow:visible;"/>
	<circle class="st5" cx="903.4" cy="190.7" r="4.2"/>
	<text transform="matrix(0.4586 -0.8886 0.8886 0.4586 911.0849 200.0508)" class="st2 st3 st4">f</text>
	<text transform="matrix(0.4586 -0.8886 0.8886 0.4586 912.2214 197.849)" class="st2 st3 st4">eb</text>
	
		<use xlink:href="#a"  width="86.2" height="46.3" x="-43.1" y="-23.1" transform="matrix(0.4279 0 0 0.4279 892.3665 87.4393)" style="overflow:visible;"/>
	<circle class="st5" cx="904.1" cy="107.5" r="4.2"/>
	<text transform="matrix(0.9155 -0.4024 0.4024 0.9155 903.1947 121.1514)" class="st2 st3 st8">mar</text>
	
		<use xlink:href="#a"  width="86.2" height="46.3" x="-43.1" y="-23.1" transform="matrix(0.4279 0 0 0.4279 948.2951 81.1333)" style="overflow:visible;"/>
	<circle class="st5" cx="948.7" cy="99.2" r="4.2"/>
	<text transform="matrix(0.9998 -1.745240e-02 1.745240e-02 0.9998 943.5906 110.4918)" class="st2 st3 st4">apr</text>
	
		<use xlink:href="#a"  width="86.2" height="46.3" x="-43.1" y="-23.1" transform="matrix(0.4279 0 0 0.4279 1006.2507 88.9408)" style="overflow:visible;"/>
	<circle class="st5" cx="993.3" cy="107.5" r="4.2"/>
	<text transform="matrix(0.9292 0.3697 -0.3697 0.9292 982.9659 116.0521)" class="st2 st3 st9">m</text>
	<text transform="matrix(0.9292 0.3697 -0.3697 0.9292 988.5508 118.2741)" class="st2 st3 st9">a</text>
	<text transform="matrix(0.9292 0.3697 -0.3697 0.9292 992.1114 119.6907)" class="st2 st3 st9">y</text>
	
		<use xlink:href="#a"  width="86.2" height="46.3" x="-43.1" y="-23.1" transform="matrix(0.4279 0 0 0.4279 1055.9484 112.5134)" style="overflow:visible;"/>
	<circle class="st5" cx="1032.3" cy="130.5" r="4.2"/>
	<text transform="matrix(0.7627 0.6468 -0.6468 0.7627 1021.5898 135.7142)" class="st2 st3 st4">jun</text>
	
		<use xlink:href="#a"  width="86.2" height="46.3" x="-43.1" y="-23.1" transform="matrix(0.4279 0 0 0.4279 1087.1783 152.8271)" style="overflow:visible;"/>
	<circle class="st5" cx="1062.1" cy="164.9" r="4.2"/>
	<text transform="matrix(0.497 0.8678 -0.8678 0.497 1051.2433 167.5442)" class="st2 st3 st4">jul</text>
	
		<use xlink:href="#a"  width="86.2" height="46.3" x="-43.1" y="-23.1" transform="matrix(0.4279 0 0 0.4279 1105.6461 203.7259)" style="overflow:visible;"/>
	<circle class="st5" cx="1078.6" cy="206.8" r="4.2"/>
	<text transform="matrix(0.2095 0.9778 -0.9778 0.2095 1067.519 205.2697)" class="st2 st3 st10">aug</text>
	
		<use xlink:href="#a"  width="86.2" height="46.3" x="-43.1" y="-23.1" transform="matrix(0.4279 0 0 0.4279 1105.6461 254.6998)" style="overflow:visible;"/>
	<circle class="st5" cx="1080.8" cy="252.4" r="4.2"/>
	<text transform="matrix(-8.541695e-02 0.9963 -0.9963 -8.541695e-02 1070.1617 246.6703)" class="st2 st3 st4">sep</text>
	
		<use xlink:href="#a"  width="86.2" height="46.3" x="-43.1" y="-23.1" transform="matrix(0.4279 0 0 0.4279 1095.9618 298.3167)" style="overflow:visible;"/>
	<circle class="st5" cx="1068.7" cy="296.1" r="4.2"/>
	<text transform="matrix(0.4115 -0.9114 0.9114 0.4115 1062.4282 297.5694)" class="st2 st3 st4">oct</text>
	
		<use xlink:href="#a"  width="86.2" height="46.3" x="-43.1" y="-23.1" transform="matrix(0.4279 0 0 0.4279 1068.7107 341.9335)" style="overflow:visible;"/>
	<circle class="st5" cx="1043.9" cy="334.4" r="4.2"/>
	<text transform="matrix(0.65 -0.76 0.76 0.65 1035.6431 335.06)" class="st2 st3 st11">n</text>
	<text transform="matrix(0.65 -0.76 0.76 0.65 1038.1804 332.0933)" class="st2 st3 st11">o</text>
	<text transform="matrix(0.65 -0.76 0.76 0.65 1040.767 329.069)" class="st2 st3 st11">v</text>
	
		<use xlink:href="#a"  width="86.2" height="46.3" x="-43.1" y="-23.1" transform="matrix(0.4279 0 0 0.4279 1033.1265 379.6947)" style="overflow:visible;"/>
	<circle class="st5" cx="1009.2" cy="363.9" r="4.2"/>
	<text transform="matrix(0.7915 -0.6112 0.6112 0.7915 1000.9149 361.8001)" class="st2 st3 st12">dec</text>
	
		<use xlink:href="#a"  width="86.2" height="46.3" x="-43.1" y="-23.1" transform="matrix(0.4279 0 0 0.4279 975.9216 399.5138)" style="overflow:visible;"/>
	<circle class="st5" cx="967.6" cy="381.8" r="4.2"/>
	<text transform="matrix(0.9798 -0.2 0.2 0.9798 960.4579 376.2668)" class="st2 st3 st13">jan</text>
	
		<use xlink:href="#a"  width="86.2" height="46.3" x="-43.1" y="-23.1" transform="matrix(0.4279 0 0 0.4279 920.6686 404.8439)" style="overflow:visible;"/>
	<circle class="st5" cx="922.3" cy="386.6" r="4.2"/>
	<text transform="matrix(0.9988 4.993761e-02 -4.993761e-02 0.9988 917.9771 379.4888)" class="st2 st3 st14">f</text>
	<text transform="matrix(0.9988 4.993761e-02 -4.993761e-02 0.9988 920.4545 379.6127)" class="st2 st3 st14">eb</text>
	
		<use xlink:href="#a"  width="86.2" height="46.3" x="-43.1" y="-23.1" transform="matrix(0.4279 0 0 0.4279 868.1182 397.2616)" style="overflow:visible;"/>
	<circle class="st5" cx="877.7" cy="378.3" r="4.2"/>
	<text transform="matrix(0.9348 0.3551 -0.3551 0.9348 874.373 370.1635)" class="st2 st3 st4">mar</text>
	
		<use xlink:href="#a"  width="86.2" height="46.3" x="-43.1" y="-23.1" transform="matrix(0.4279 0 0 0.4279 814.4417 376.0162)" style="overflow:visible;"/>
	<circle class="st5" cx="836.5" cy="358.4" r="4.2"/>
	<text transform="matrix(0.8261 0.5635 -0.5635 0.8261 836.0129 349.4443)" class="st2 st3 st4">apr</text>
	
		<use xlink:href="#a"  width="86.2" height="46.3" x="-43.1" y="-23.1" transform="matrix(0.4279 0 0 0.4279 775.4793 336.8286)" style="overflow:visible;"/>
	<circle class="st5" cx="802.5" cy="328.3" r="4.2"/>
	<text transform="matrix(0.6441 0.7649 -0.7649 0.6441 803.2056 318.364)" class="st2 st3 st4">m</text>
	<text transform="matrix(0.6441 0.7649 -0.7649 0.6441 807.0741 322.9581)" class="st2 st3 st4">a</text>
	<text transform="matrix(0.6441 0.7649 -0.7649 0.6441 809.5386 325.8848)" class="st2 st3 st4">y</text>
	
		<use xlink:href="#a"  width="86.2" height="46.3" x="-43.1" y="-23.1" transform="matrix(0.4279 0 0 0.4279 750.6304 296.8152)" style="overflow:visible;"/>
	<circle class="st5" cx="777.5" cy="290.4" r="4.2"/>
	<text transform="matrix(0.3697 0.9292 -0.9292 0.3697 781.9306 284.145)" class="st2 st3 st9">jun</text>
	
		<use xlink:href="#a"  width="86.2" height="46.3" x="-43.1" y="-23.1" transform="matrix(0.4279 0 0 0.4279 736.4418 252.7479)" style="overflow:visible;"/>
	<circle class="st5" cx="763.5" cy="247" r="4.2"/>
	<text transform="matrix(9.410834e-02 0.9956 -0.9956 9.410834e-02 770.0986 243.3678)" class="st2 st3 st4">jul</text>
	
		<use xlink:href="#a"  width="86.2" height="46.3" x="-43.1" y="-23.1" transform="matrix(0.4279 0 0 0.4279 732.9885 203.7259)" style="overflow:visible;"/>
	<circle class="st5" cx="761.2" cy="201.8" r="4.2"/>
	<text transform="matrix(0.1184 -0.993 0.993 0.1184 771.5994 208.3087)" class="st2 st3 st4">aug</text>
	
		<use xlink:href="#a"  width="86.2" height="46.3" x="-43.1" y="-23.1" transform="matrix(0.4279 0 0 0.4279 742.2224 152.8271)" style="overflow:visible;"/>
	<circle class="st5" cx="770.7" cy="157.1" r="4.2"/>
	<text transform="matrix(0.3453 -0.9385 0.9385 0.3453 778.131 165.8925)" class="st2 st3 st4">sep</text>
	
		<use xlink:href="#a"  width="86.2" height="46.3" x="-43.1" y="-23.1" transform="matrix(0.4279 0 0 0.4279 760.615 112.5134)" style="overflow:visible;"/>
	<circle class="st5" cx="791" cy="116.6" r="4.2"/>
	<text transform="matrix(0.5606 -0.8281 0.8281 0.5606 796.4496 127.0825)" class="st2 st3 st4">oct</text>
	
		<use xlink:href="#a"  width="86.2" height="46.3" x="-43.1" y="-23.1" transform="matrix(0.4279 0 0 0.4279 792.4456 71.2237)" style="overflow:visible;"/>
	<circle class="st5" cx="820.4" cy="81.7" r="4.2"/>
	<text transform="matrix(0.6972 -0.7169 0.7169 0.6972 823.1008 93.2997)" class="st2 st3 st4">n</text>
	<text transform="matrix(0.6972 -0.7169 0.7169 0.6972 825.8227 90.5008)" class="st2 st3 st4">o</text>
	<text transform="matrix(0.6972 -0.7169 0.7169 0.6972 828.596 87.6475)" class="st2 st3 st4">v</text>
	
		<use xlink:href="#a"  width="86.2" height="46.3" x="-43.1" y="-23.1" transform="matrix(0.4279 0 0 0.4279 836.663 35.8648)" style="overflow:visible;"/>
	<circle class="st5" cx="857.1" cy="55" r="4.2"/>
	<text transform="matrix(0.853 -0.5219 0.5219 0.853 857.8422 66.939)" class="st2 st3 st15">dec</text>
	
		<use xlink:href="#a"  width="86.2" height="46.3" x="-43.1" y="-23.1" transform="matrix(0.4279 0 0 0.4279 890.1143 18.7484)" style="overflow:visible;"/>
	<circle class="st5" cx="899.2" cy="38" r="4.2"/>
	<text transform="matrix(0.9673 -0.2538 0.2538 0.9673 898.3973 49.9075)" class="st2 st3 st4">j</text>
	<text transform="matrix(0.9673 -0.2538 0.2538 0.9673 900.1401 49.4503)" class="st2 st3 st4">a</text>
	<text transform="matrix(0.9673 -0.2538 0.2538 0.9673 903.7702 48.498)" class="st2 st3 st4">v</text>
	
		<use xlink:href="#a"  width="86.2" height="46.3" x="-43.1" y="-23.1" transform="matrix(0.4279 0 0 0.4279 943.7908 13.4183)" style="overflow:visible;"/>
	<circle class="st5" cx="944.5" cy="31.7" r="4.2"/>
	<text transform="matrix(0.9998 -1.999600e-02 1.999600e-02 0.9998 939.6417 43.1582)" class="st2 st3 st13">f</text>
	<text transform="matrix(0.9998 -1.999600e-02 1.999600e-02 0.9998 942.1202 43.1086)" class="st2 st3 st13">eb</text>
	
		<use xlink:href="#a"  width="86.2" height="46.3" x="-43.1" y="-23.1" transform="matrix(0.4279 0 0 0.4279 998.5183 17.6223)" style="overflow:visible;"/>
	<circle class="st5" cx="989.6" cy="36.3" r="4.2"/>
	<text transform="matrix(0.9757 0.219 -0.219 0.9757 981.0115 46.1588)" class="st2 st3 st16">mar</text>
	
		<use xlink:href="#a"  width="86.2" height="46.3" x="-43.1" y="-23.1" transform="matrix(0.4279 0 0 0.4279 1046.8646 33.8379)" style="overflow:visible;"/>
	<circle class="st5" cx="1032.6" cy="51" r="4.2"/>
	<text transform="matrix(0.8829 0.4695 -0.4695 0.8829 1024.218 58.6916)" class="st2 st3 st4">apr</text>
	
		<use xlink:href="#a"  width="86.2" height="46.3" x="-43.1" y="-23.1" transform="matrix(0.4279 0 0 0.4279 1095.9618 61.3142)" style="overflow:visible;"/>
	<circle class="st5" cx="1071.4" cy="74.8" r="4.2"/>
	<text transform="matrix(0.8111 0.585 -0.585 0.8111 1059.9518 79.1094)" class="st2 st3 st4">m</text>
	<text transform="matrix(0.8111 0.585 -0.585 0.8111 1064.823 82.6226)" class="st2 st3 st4">a</text>
	<text transform="matrix(0.8111 0.585 -0.585 0.8111 1067.9294 84.8631)" class="st2 st3 st4">y</text>
	
		<use xlink:href="#a"  width="86.2" height="46.3" x="-43.1" y="-23.1" transform="matrix(0.4279 0 0 0.4279 1132.8221 98.8503)" style="overflow:visible;"/>
	<circle class="st5" cx="1103.7" cy="107" r="4.2"/>
	<text transform="matrix(0.6606 0.7507 -0.7507 0.6606 1092.5034 108.9819)" class="st2 st3 st7">jun</text>
	
		<use xlink:href="#a"  width="86.2" height="46.3" x="-43.1" y="-23.1" transform="matrix(0.4279 0 0 0.4279 1160.0732 142.9175)" style="overflow:visible;"/>
	<circle class="st5" cx="1128.2" cy="145.3" r="4.2"/>
	<text transform="matrix(0.4571 0.8894 -0.8894 0.4571 1117.1573 146.1501)" class="st2 st3 st4">jul</text>
	
		<use xlink:href="#a"  width="86.2" height="46.3" x="-43.1" y="-23.1" transform="matrix(0.4279 0 0 0.4279 1173.5863 182.3304)" style="overflow:visible;"/>
	<circle class="st5" cx="1143.7" cy="188" r="4.2"/>
	<text transform="matrix(0.3173 0.9483 -0.9483 0.3173 1131.796 185.7884)" class="st2 st3 st4">aug</text>
	
		<use xlink:href="#a"  width="86.2" height="46.3" x="-43.1" y="-23.1" transform="matrix(0.4279 0 0 0.4279 1175.5382 233.4544)" style="overflow:visible;"/>
	<circle class="st5" cx="1149.4" cy="233.8" r="4.2"/>
	<text transform="matrix(0 1 -1 0 1139.1747 227.3164)" class="st2 st3 st4">sep</text>
	
		<use xlink:href="#a"  width="86.2" height="46.3" x="-43.1" y="-23.1" transform="matrix(0.4279 0 0 0.4279 1173.5863 278.4977)" style="overflow:visible;"/>
	<circle class="st5" cx="1145.2" cy="279.3" r="4.2"/>
	<text transform="matrix(0.2723 -0.9622 0.9622 0.2723 1138.1786 282.3297)" class="st2 st3 st4">oct</text>
	
		<use xlink:href="#a"  width="86.2" height="46.3" x="-43.1" y="-23.1" transform="matrix(0.4279 0 0 0.4279 1160.0732 323.5409)" style="overflow:visible;"/>
	<circle class="st5" cx="1131.4" cy="322.5" r="4.2"/>
	<text transform="matrix(0.3875 -0.9219 0.9219 0.3875 1124.2139 325.1196)" class="st2 st3 st4">n</text>
	<text transform="matrix(0.3875 -0.9219 0.9219 0.3875 1125.7261 321.5222)" class="st2 st3 st4">o</text>
	<text transform="matrix(0.3875 -0.9219 0.9219 0.3875 1127.2686 317.8528)" class="st2 st3 st4">v</text>
</g>
</svg>
