<?xml version="1.0" encoding="utf-8"?>
<!-- Generator: Adobe Illustrator 19.2.0, SVG Export Plug-In . SVG Version: 6.00 Build 0)  -->
<svg version="1.1" id="Layer_1" xmlns="http://www.w3.org/2000/svg" xmlns:xlink="http://www.w3.org/1999/xlink" x="0px" y="0px"
	 width="1200px" height="1832px" viewBox="0 0 1200 1832" enable-background="new 0 0 1200 1832" xml:space="preserve">
<path opacity="0.55" fill="#93ADD5" d="M599.579,755.891v117.832c-198.417,0-359.243,160.826-359.243,359.243
	c0,65.296,17.416,126.511,47.88,179.277l-102.025,58.916c-40.523-70.067-63.687-151.399-63.687-238.192
	C122.504,969.482,336.095,755.891,599.579,755.891z"/>
<path fill="none" stroke="#E8E8E8" stroke-width="5.7479" stroke-miterlimit="10" d="M910.942,1412.3
	c-62.135,107.543-178.3,179.909-311.363,179.909c-133.121,0-249.343-72.423-311.363-179.966l103.519-59.72
	c41.442,71.791,118.981,120.131,207.844,120.131c88.862,0,166.401-48.34,207.843-120.131L910.942,1412.3z"/>
<path fill="none" stroke="#E8E8E8" stroke-width="5.7479" stroke-miterlimit="10" d="M839.266,1232.965
	c0,43.569-11.611,84.379-31.844,119.556l-103.404-59.721c10.174-17.589,15.979-38.051,15.979-59.836
	c0-66.503-53.915-120.476-120.418-120.476V993.221C731.952,993.221,839.266,1100.592,839.266,1232.965z"/>
<path fill="#7581BA" d="M599.579,1232.506l-207.844,120.016c41.442,71.791,118.981,120.131,207.844,120.131
	c88.862,0,166.401-48.34,207.843-120.131L599.579,1232.506z"/>
<path fill="#93ADD5" d="M240.336,1232.965c0,65.296,17.416,126.511,47.88,179.277l311.363-179.736V873.722
	C401.162,873.722,240.336,1034.549,240.336,1232.965z"/>
<path fill="#7067B5" d="M719.997,1232.965c0,21.785-5.805,42.247-15.979,59.836l-104.439-60.295V1112.49
	C666.082,1112.49,719.997,1166.463,719.997,1232.965z"/>
<circle fill="none" stroke="#E8E8E8" stroke-width="5.7479" stroke-miterlimit="10" cx="599.56" cy="1232.946" r="593.5"/>
<path fill="none" stroke="#E8E8E8" stroke-width="5.7479" stroke-miterlimit="10" d="M186.136,1471.183
	c-40.485-70.104-63.651-151.465-63.651-238.237C122.485,969.465,336.519,755,600,755"/>
<path fill="none" stroke="#E8E8E8" stroke-width="5.7479" stroke-miterlimit="10" d="M599.56,755.871
	c263.481,0,477.075,213.594,477.075,477.075s-213.594,477.075-477.075,477.075c-176.709,0-330.978-96.074-413.424-238.837"/>
<path fill="none" stroke="#E8E8E8" stroke-width="5.7479" stroke-miterlimit="10" d="M910.909,1412.28
	c-62.074,107.536-178.259,179.909-311.349,179.909c-133.1,0-249.294-72.384-311.364-179.935"/>
<path fill="none" stroke="#E8E8E8" stroke-width="5.7479" stroke-miterlimit="10" d="M599.56,873.703
	c198.404,0,359.243,160.839,359.243,359.243c0,65.315-17.431,126.559-47.894,179.334"/>
<path fill="none" stroke="#E8E8E8" stroke-width="5.7479" stroke-miterlimit="10" d="M288.196,1412.254
	c-30.454-52.769-47.879-114.003-47.879-179.307c0-198.404,160.839-359.243,359.243-359.243"/>
<path fill="none" stroke="#E8E8E8" stroke-width="5.7479" stroke-miterlimit="10" d="M807.365,1352.489
	c-41.401,71.814-118.958,120.153-207.805,120.153c-88.84,0-166.392-48.332-207.795-120.136"/>
<path fill="none" stroke="#E8E8E8" stroke-width="5.7479" stroke-miterlimit="10" d="M599.56,993.25
	c132.38,0,239.696,107.316,239.696,239.696c0,43.533-11.605,84.356-31.891,119.543"/>
<path fill="none" stroke="#E8E8E8" stroke-width="5.7479" stroke-miterlimit="10" d="M391.765,1352.506
	c-20.292-35.191-31.901-76.02-31.901-119.56c0-132.38,107.316-239.696,239.696-239.696"/>
<path fill="none" stroke="#E8E8E8" stroke-width="5.7479" stroke-miterlimit="10" d="M704.067,1292.829
	c-20.775,36.178-59.795,60.544-104.507,60.544c-44.703,0-83.717-24.357-104.495-60.523"/>
<path fill="none" stroke="#E8E8E8" stroke-width="5.7479" stroke-miterlimit="10" d="M599.56,1112.519
	c66.51,0,120.427,53.917,120.427,120.427c0,21.799-5.792,42.245-15.921,59.883"/>
<path fill="none" stroke="#E8E8E8" stroke-width="5.7479" stroke-miterlimit="10" d="M495.065,1292.85
	c-10.136-17.643-15.933-38.097-15.933-59.904c0-66.51,53.917-120.427,120.427-120.427"/>
<rect x="174" y="234" opacity="0.55" fill="#7067B5" width="241" height="106"/>
<rect x="174" y="339" fill="#7067B5" width="241" height="106"/>
<rect x="531" y="127" opacity="0.55" fill="#7581BA" width="241" height="107"/>
<rect x="531" y="234" fill="#7581BA" width="241" height="211"/>
<rect x="887" y="22" opacity="0.55" fill="#93ADD5" width="241" height="108"/>
<rect x="887" y="127" fill="#93ADD5" width="241" height="318"/>
<polyline fill="none" stroke="#37246D" stroke-width="10" stroke-miterlimit="10" points="1197.081,445.14 72.156,445.14 
	72.391,18.708 "/>
<g>
	<text transform="matrix(1 0 0 1 1.3398 146.1367)" fill="#37246D" font-family="'Roboto-Medium'" font-size="57.4789px">3</text>
</g>
<g>
	<text transform="matrix(1 0 0 1 1.3398 43.2734)" fill="#37246D" font-family="'Roboto-Medium'" font-size="57.4789px">4</text>
</g>
<g>
	<text transform="matrix(1 0 0 1 1.3398 254.5137)" fill="#37246D" font-family="'Roboto-Medium'" font-size="57.4789px">2</text>
</g>
<g>
	<text transform="matrix(1 0 0 1 1.3398 467.627)" fill="#37246D" font-family="'Roboto-Medium'" font-size="57.4789px">0</text>
</g>
<g>
	<text transform="matrix(1 0 0 1 1.3398 357.7246)" fill="#37246D" font-family="'Roboto-Medium'" font-size="57.4789px">1</text>
</g>
<line fill="none" stroke="#37246D" stroke-width="4" stroke-miterlimit="10" x1="54" y1="339" x2="90" y2="339"/>
<line fill="none" stroke="#37246D" stroke-width="4" stroke-miterlimit="10" x1="54" y1="234" x2="90" y2="234"/>
<line fill="none" stroke="#37246D" stroke-width="4" stroke-miterlimit="10" x1="54" y1="126" x2="90" y2="126"/>
<line fill="none" stroke="#37246D" stroke-width="4" stroke-miterlimit="10" x1="54" y1="20" x2="90" y2="20"/>
<g>
	<g>
		
			<line fill="none" stroke="#37246D" stroke-width="10" stroke-miterlimit="10" x1="599.561" y1="1232.506" x2="599.561" y2="670.871"/>
		<g>
			<polygon fill="#37246D" points="619.506,676.707 599.561,642.166 579.615,676.707 			"/>
		</g>
	</g>
</g>
<polyline fill="none" stroke="#E8E8E8" stroke-width="5.7479" stroke-miterlimit="10" points="85,1529 599.56,1232.506 1114,1529 
	"/>
<g>
	<text transform="matrix(1 0 0 1 533.2031 1131.5059)" fill="#37246D" font-family="'Roboto-Medium'" font-size="57.4789px">1</text>
</g>
<g>
	<text transform="matrix(1 0 0 1 279.0781 514.0234)" fill="#37246D" font-family="'Roboto-Medium'" font-size="58px">A</text>
</g>
<g>
	<text transform="matrix(1 0 0 1 849.3164 1112.4902)" fill="#37246D" font-family="'Roboto-Medium'" font-size="57.4789px">A</text>
</g>
<g>
	<text transform="matrix(1 0 0 1 96.0039 1010.4668)" fill="#37246D" font-family="'Roboto-Medium'" font-size="57.4789px">C</text>
</g>
<g>
	<text transform="matrix(1 0 0 1 635.5664 514.0234)" fill="#37246D" font-family="'Roboto-Medium'" font-size="58px">B</text>
</g>
<g>
	<text transform="matrix(1 0 0 1 565.1523 1669.8281)" fill="#37246D" font-family="'Roboto-Medium'" font-size="57.4789px">B</text>
</g>
<g>
	<text transform="matrix(1 0 0 1 995.9062 514.0234)" fill="#37246D" font-family="'Roboto-Medium'" font-size="58px">C</text>
</g>
<g>
	
		<line fill="none" stroke="#37246D" stroke-width="5.7479" stroke-miterlimit="10" x1="581.341" y1="1113.038" x2="617.779" y2="1113.038"/>
	
		<line fill="none" stroke="#37246D" stroke-width="5.7479" stroke-miterlimit="10" x1="581.341" y1="993.57" x2="617.779" y2="993.57"/>
	
		<line fill="none" stroke="#37246D" stroke-width="5.7479" stroke-miterlimit="10" x1="581.341" y1="874.102" x2="617.779" y2="874.102"/>
	
		<line fill="none" stroke="#37246D" stroke-width="5.7479" stroke-miterlimit="10" x1="581.341" y1="754.634" x2="617.779" y2="754.634"/>
</g>
<g>
	<text transform="matrix(1 0 0 1 533.2031 1010.5195)" fill="#37246D" font-family="'Roboto-Medium'" font-size="57.4789px">2</text>
</g>
<g>
	<text transform="matrix(1 0 0 1 533.2031 890.459)" fill="#37246D" font-family="'Roboto-Medium'" font-size="57.4789px">3</text>
</g>
<g>
	<text transform="matrix(1 0 0 1 533.2031 772.666)" fill="#37246D" font-family="'Roboto-Medium'" font-size="57.4789px">4</text>
</g>
</svg>
