<?xml version="1.0" encoding="utf-8"?>
<!-- Generator: Adobe Illustrator 19.2.0, SVG Export Plug-In . SVG Version: 6.00 Build 0)  -->
<svg version="1.1" id="Layer_1" xmlns="http://www.w3.org/2000/svg" xmlns:xlink="http://www.w3.org/1999/xlink" x="0px" y="0px"
	 width="1268px" height="558px" viewBox="0 0 1268 558" enable-background="new 0 0 1268 558" xml:space="preserve">
<g id="Layer_2">
</g>
<g>
	<g>
		<g>
			<path fill="#DFDAE3" stroke="#FFFFFF" stroke-width="2" stroke-miterlimit="10" d="M663.629,224.686v311.042
				c-57.204,0-105.981-13.07-155.521-41.672L663.629,224.686z"/>
		</g>
	</g>
	<g>
		<g>
			<path fill="#DFDAE3" stroke="#FFFFFF" stroke-width="2" stroke-miterlimit="10" d="M663.629,224.686L418.747,366.068
				c-26.002-45.036-37.883-89.379-37.883-141.383H663.629z"/>
		</g>
	</g>
	<g>
		<g>
			<path fill="#DFDAE3" stroke="#FFFFFF" stroke-width="2" stroke-miterlimit="10" d="M663.629,224.686L522.246,469.567
				c-45.036-26.002-77.497-58.463-103.499-103.499L663.629,224.686z"/>
		</g>
	</g>
	<g>
		<g>
			<path fill="#DFDAE3" stroke="#FFFFFF" stroke-width="2" stroke-miterlimit="10" d="M663.629,224.686l113.106,195.905
				c-36.029,20.801-71.503,30.307-113.106,30.307V224.686z"/>
		</g>
	</g>
	<g>
		<g>
			<path fill="#DFDAE3" stroke="#FFFFFF" stroke-width="2" stroke-miterlimit="10" d="M663.629,224.686L776.735,28.78
				c36.029,20.801,61.998,46.77,82.799,82.799L663.629,224.686z"/>
		</g>
	</g>
	<g>
		<g>
			<path fill="#DFDAE3" stroke="#FFFFFF" stroke-width="2" stroke-miterlimit="10" d="M663.629,224.686l171.417,98.968
				c-18.201,31.525-40.924,54.248-72.449,72.449L663.629,224.686z"/>
		</g>
	</g>
	<g>
		<g>
			<path fill="#DFDAE3" stroke="#FFFFFF" stroke-width="2" stroke-miterlimit="10" d="M663.629,224.686l171.417-98.968
				c18.201,31.525,26.518,62.565,26.518,98.968H663.629z"/>
		</g>
	</g>
	<g>
		<g>
			<path fill="#DFDAE3" stroke="#FFFFFF" stroke-width="2" stroke-miterlimit="10" d="M663.629,224.686V26.75
				c36.403,0,67.442,8.317,98.968,26.518L663.629,224.686z"/>
		</g>
	</g>
	<g>
		<g>
			<path fill="#DFDAE3" stroke="#FFFFFF" stroke-width="2" stroke-miterlimit="10" d="M663.629,224.686l-122.441-70.691
				c13.001-22.518,29.231-38.749,51.75-51.75L663.629,224.686z"/>
		</g>
	</g>
</g>
<g>
	<g>
		<g>
			<path fill="#C3B2D1" stroke="#FFFFFF" stroke-width="2" stroke-miterlimit="10" d="M663.629,224.686l-98.968,171.417
				c-31.525-18.201-54.248-40.924-72.449-72.449L663.629,224.686z"/>
		</g>
	</g>
	<g>
		<g>
			<path fill="#C3B2D1" stroke="#FFFFFF" stroke-width="2" stroke-miterlimit="10" d="M663.629,224.686L516.7,309.515
				c-15.601-27.022-22.73-53.627-22.73-84.83H663.629z"/>
		</g>
	</g>
	<g>
		<g>
			<path fill="#C3B2D1" stroke="#FFFFFF" stroke-width="2" stroke-miterlimit="10" d="M663.629,224.686v169.659
				c-31.202,0-57.808-7.129-84.83-22.73L663.629,224.686z"/>
		</g>
	</g>
	<g>
		<g>
			<path fill="#C3B2D1" stroke="#FFFFFF" stroke-width="2" stroke-miterlimit="10" d="M663.629,224.686l70.691,122.441
				c-22.518,13.001-44.689,18.942-70.691,18.942V224.686z"/>
		</g>
	</g>
	<g>
		<g>
			<path fill="#C3B2D1" stroke="#FFFFFF" stroke-width="2" stroke-miterlimit="10" d="M663.629,224.686h141.383
				c0,26.002-5.941,48.173-18.942,70.691L663.629,224.686z"/>
		</g>
	</g>
	<g>
		<g>
			<path fill="#C3B2D1" stroke="#FFFFFF" stroke-width="2" stroke-miterlimit="10" d="M663.629,224.686l97.953,56.553
				c-10.401,18.015-23.385,30.999-41.4,41.4L663.629,224.686z"/>
		</g>
	</g>
	<g>
		<g>
			<path fill="#C3B2D1" stroke="#FFFFFF" stroke-width="2" stroke-miterlimit="10" d="M663.629,224.686l97.953-56.553
				c10.401,18.015,15.153,35.752,15.153,56.553H663.629z"/>
		</g>
	</g>
	<g>
		<g>
			<path fill="#C3B2D1" stroke="#FFFFFF" stroke-width="2" stroke-miterlimit="10" d="M663.629,224.686l56.553-97.953
				c18.015,10.401,30.999,23.385,41.4,41.4L663.629,224.686z"/>
		</g>
	</g>
	<g>
		<g>
			<path fill="#C3B2D1" stroke="#FFFFFF" stroke-width="2" stroke-miterlimit="10" d="M663.629,224.686l-42.415-73.465
				c13.511-7.801,26.814-11.365,42.415-11.365V224.686z"/>
		</g>
	</g>
	<g>
		<g>
			<path fill="#C3B2D1" stroke="#FFFFFF" stroke-width="2" stroke-miterlimit="10" d="M663.629,224.686l-73.465-42.415
				c7.801-13.511,17.539-23.249,31.05-31.05L663.629,224.686z"/>
		</g>
	</g>
	<g>
		<g>
			<path fill="#C3B2D1" stroke="#FFFFFF" stroke-width="2" stroke-miterlimit="10" d="M663.629,224.686v-84.83
				c15.601,0,28.904,3.564,42.415,11.365L663.629,224.686z"/>
		</g>
	</g>
	<g>
		<g>
			<path fill="#C3B2D1" stroke="#FFFFFF" stroke-width="2" stroke-miterlimit="10" d="M663.629,224.686h-56.553
				c0-10.401,2.376-19.269,7.577-28.277L663.629,224.686z"/>
		</g>
	</g>
</g>
<g>
	<g>
		<path fill="#6C5F82" stroke="#FFFFFF" stroke-width="2" stroke-miterlimit="10" d="M663.629,224.686l-70.691,122.441
			c-22.518-13.001-38.749-29.231-51.75-51.75L663.629,224.686z"/>
	</g>
</g>
<g>
	<g>
		<path fill="#DFDAE3" stroke="#FFFFFF" stroke-width="2" stroke-miterlimit="10" d="M663.629,224.686l-56.553-97.953
			c18.015-10.401,35.752-15.153,56.553-15.153V224.686z"/>
	</g>
</g>
<g>
	<g>
		<path fill="#6C5F82" stroke="#FFFFFF" stroke-width="2" stroke-miterlimit="10" d="M663.629,224.686v113.106
			c-20.801,0-38.538-4.753-56.553-15.153L663.629,224.686z"/>
	</g>
</g>
<g>
	<g>
		<path fill="#DFDAE3" stroke="#FFFFFF" stroke-width="2" stroke-miterlimit="10" d="M663.629,224.686h-84.83
			c0-15.601,3.565-28.904,11.365-42.415L663.629,224.686z"/>
	</g>
</g>
<g>
	<g>
		<path fill="#6C5F82" stroke="#FFFFFF" stroke-width="2" stroke-miterlimit="10" d="M663.629,224.686L590.164,267.1
			c-7.8-13.511-11.365-26.814-11.365-42.415H663.629z"/>
	</g>
</g>
<g>
	<g>
		<path fill="#6C5F82" stroke="#FFFFFF" stroke-width="2" stroke-miterlimit="10" d="M663.629,224.686l42.415,73.465
			c-13.511,7.801-26.814,11.365-42.415,11.365V224.686z"/>
	</g>
</g>
<g>
	<g>
		<path fill="#6C5F82" stroke="#FFFFFF" stroke-width="2" stroke-miterlimit="10" d="M663.629,224.686h84.83
			c0,15.601-3.564,28.904-11.365,42.415L663.629,224.686z"/>
	</g>
</g>
<g>
	<g>
		<path fill="#6C5F82" stroke="#FFFFFF" stroke-width="2" stroke-miterlimit="10" d="M663.629,224.686l73.465-42.415
			c7.801,13.511,11.365,26.814,11.365,42.415H663.629z"/>
	</g>
</g>
<g>
	<g>
		<path fill="#6C5F82" stroke="#FFFFFF" stroke-width="2" stroke-miterlimit="10" d="M663.629,224.686l-48.976-28.277
			c5.2-9.007,11.693-15.499,20.7-20.7L663.629,224.686z"/>
	</g>
</g>
<g>
	<g>
		<path fill="#6C5F82" stroke="#FFFFFF" stroke-width="2" stroke-miterlimit="10" d="M663.629,224.686l48.976,28.277
			c-5.2,9.007-11.693,15.499-20.7,20.7L663.629,224.686z"/>
	</g>
</g>
<g>
	<g>
		<path fill="#6C5F82" stroke="#FFFFFF" stroke-width="2" stroke-miterlimit="10" d="M663.629,224.686l28.277-48.976
			c9.007,5.2,15.499,11.693,20.7,20.7L663.629,224.686z"/>
	</g>
</g>
<g>
	<g>
		<path fill="#6C5F82" stroke="#FFFFFF" stroke-width="2" stroke-miterlimit="10" d="M663.629,224.686v-56.553
			c10.401,0,19.269,2.376,28.277,7.577L663.629,224.686z"/>
	</g>
</g>
<g>
	<text transform="matrix(1 0 0 1 700.717 21.9219)" fill="#B3B3B3" font-family="'RobotoCondensed-Regular'" font-size="26px">Jan</text>
</g>
<g>
	<text transform="matrix(1 0 0 1 830.7952 58.9116)" fill="#B3B3B3" font-family="'RobotoCondensed-Regular'" font-size="26px">Feb</text>
</g>
<g>
	<text transform="matrix(1 0 0 1 865.1337 172.7599)" fill="#B3B3B3" font-family="'RobotoCondensed-Regular'" font-size="26px">Mar</text>
</g>
<g>
	<text transform="matrix(1 0 0 1 810.5194 274.6619)" fill="#B3B3B3" font-family="'RobotoCondensed-Regular'" font-size="26px">Apr</text>
</g>
<g>
	<text transform="matrix(1 0 0 1 812.6115 388.7118)" fill="#B3B3B3" font-family="'RobotoCondensed-Regular'" font-size="26px">May</text>
</g>
<g>
	<text transform="matrix(1 0 0 1 712.6213 475.1738)" fill="#B3B3B3" font-family="'RobotoCondensed-Regular'" font-size="26px">Jun</text>
</g>
<g>
	<text transform="matrix(1 0 0 1 556.8792 555)" fill="#B3B3B3" font-family="'RobotoCondensed-Regular'" font-size="26px">Jul</text>
</g>
<g>
	<text transform="matrix(1 0 0 1 422.6233 446.0786)" fill="#B3B3B3" font-family="'RobotoCondensed-Regular'" font-size="26px">Aug</text>
</g>
<g>
	<text transform="matrix(1 0 0 1 527.9915 207.5474)" fill="#B3B3B3" font-family="'RobotoCondensed-Regular'" font-size="26px">Oct</text>
</g>
<g>
	<text transform="matrix(1 0 0 1 513.303 112.8599)" fill="#B3B3B3" font-family="'RobotoCondensed-Regular'" font-size="26px">Nov</text>
</g>
<g>
	<text transform="matrix(1 0 0 1 609.0315 97.085)" fill="#B3B3B3" font-family="'RobotoCondensed-Regular'" font-size="26px">Dec</text>
</g>
</svg>
