<?xml version="1.0" encoding="utf-8"?>
<!-- Generator: Adobe Illustrator 22.1.0, SVG Export Plug-In . SVG Version: 6.00 Build 0)  -->
<svg version="1.1" xmlns="http://www.w3.org/2000/svg" xmlns:xlink="http://www.w3.org/1999/xlink" x="0px" y="0px"
	 viewBox="0 0 1268 418" enable-background="new 0 0 1268 418" xml:space="preserve">
<g id="Layer_1">
	<g>
		<polygon fill="#DFDAE3" points="560,350.6 560,350.6 590.8,297.2 590.8,297.2 		"/>
		<polygon fill="#DFDAE3" points="484.2,274.9 484.2,274.9 535.1,245.5 		"/>
		<polygon fill="#DFDAE3" points="708.5,242.5 719,260.8 719,260.8 739.3,295.9 739.3,295.9 708.5,242.5 		"/>
		<polygon fill="#DFDAE3" points="792.7,96.8 792.7,96.8 739.3,127.6 739.3,127.6 		"/>
		<polygon fill="#C3B2D1" points="611.8,260.8 591.5,295.9 591.5,295.9 611.8,260.8 		"/>
		<polygon fill="#C3B2D1" points="555.8,233.5 538.9,243.3 555.8,233.5 		"/>
		<polygon fill="#C3B2D1" points="591.5,295.9 591.5,295.9 611.8,260.8 611.8,260.8 		"/>
		<polygon fill="#C3B2D1" points="538.9,243.3 538.9,243.3 555.8,233.5 		"/>
		<polygon fill="#C3B2D1" points="573.3,221.7 573.3,221.7 609.8,200.7 556.4,231.5 556.4,231.5 		"/>
		<polygon fill="#C3B2D1" points="573.3,221.7 573.3,221.7 556.4,231.5 556.4,231.5 		"/>
		<polygon fill="#C3B2D1" points="556.4,231.5 556.4,231.5 573.3,221.7 573.3,221.7 		"/>
		<polygon fill="#C3B2D1" points="721.1,200.7 739.3,211.2 739.3,211.2 756.3,221 756.3,221 721.1,200.7 		"/>
		<polygon fill="#C3B2D1" points="698,224.3 706.3,238.6 707.8,241.3 707.8,241.3 698,224.3 		"/>
		<polygon fill="#C3B2D1" points="698,224.3 706.3,238.6 698,224.3 		"/>
		<polygon fill="#C3B2D1" points="705.4,145.4 736.8,127.3 702.1,147.3 702.1,147.3 		"/>
		<polygon fill="#C3B2D1" points="705.4,145.4 730.9,130.8 737.3,127 737.3,127 736.8,127.3 		"/>
		<polygon fill="#C3B2D1" points="611.8,137.6 611.8,137.6 625.1,145.2 628.7,147.3 628.7,147.3 		"/>
		<polygon fill="#C3B2D1" points="643.4,132.7 633.6,115.7 633.6,115.7 643.4,132.7 		"/>
		<g>
			<path fill="#C6BFCF" d="M574.1,223l-18.2,10.5l0,0l-16.9,9.8c13.2,22.7,30,39.4,52.6,52.6l20.3-35.2
				C595.6,251.3,583.6,239.2,574.1,223z"/>
			<path fill="#C6BFCF" d="M609.8,200.7c-5.5-9.7-8.1-19.4-8.2-30.5h0h-61.6c0.1,22.4,5.3,41.9,16.4,61.4L609.8,200.7z"/>
			<path fill="#C6BFCF" d="M613.1,261.5L613.1,261.5l-9.8,16.9c19.4,11.1,39,16.3,61.4,16.4v-19.5v-21.1c-15-0.1-28-3.6-41.1-11
				L613.1,261.5z"/>
			<path fill="#C6BFCF" d="M666.2,254.3v19.5c18.5-0.1,34.7-4.5,50.8-13.6l-20.3-35.2c-9.7,5.5-19.4,8.1-30.5,8.2V254.3z"/>
			<path fill="#C6BFCF" d="M729.3,170.1c-0.1,11.1-2.7,20.9-8.2,30.5l35.2,20.3c9.2-16.1,13.5-32.3,13.6-50.8h-19.5H729.3
				L729.3,170.1z"/>
			<path fill="#C6BFCF" d="M687.5,206.1l10.5,18.2l9.8,16.9c12.7-7.4,22.1-16.8,29.5-29.5l-35.2-20.3
				C698.4,197.7,693.7,202.4,687.5,206.1z"/>
			<path fill="#C6BFCF" d="M721.1,138.1c5.5,9.7,8.1,19.4,8.2,30.5h0h19.5c-0.1-14.7-3.6-27.5-10.8-40.3l-4.1,2.4l-8.3,4.8
				L721.1,138.1z"/>
			<path fill="#C6BFCF" d="M687.5,132.7L687.5,132.7L687.5,132.7c6.2,3.7,10.9,8.4,14.6,14.7l34.7-20l0.5-0.3
				c-7.4-12.7-16.8-22.1-29.5-29.5l-9.8,16.9h0L687.5,132.7z"/>
			<path fill="#C6BFCF" d="M628.7,147.3c3.7-6.2,8.4-10.9,14.7-14.7l-9.8-16.9c-9.3,5.5-16.3,12.5-21.8,21.8L628.7,147.3
				L628.7,147.3L628.7,147.3z"/>
			<path fill="#C6BFCF" d="M696,115c-9.4-5.3-19-7.9-29.8-8v19.6c7.3,0.1,13.7,1.8,20,5.4L696,115z"/>
		</g>
		<polygon fill="#C3B2D1" points="686.2,131.9 689.9,125.4 690.8,123.9 690.8,123.9 696,115 696,115 686.2,131.9 		"/>
		<polygon fill="#C3B2D1" points="696,115 696,115 690.8,123.9 		"/>
		<polygon fill="#C3B2D1" points="690.8,123.9 696,115 696,115 690.8,123.9 		"/>
		<polygon fill="#C3B2D1" points="690.8,123.9 690.8,123.9 690.8,123.9 		"/>
		<polygon fill="#6C5F82" points="663.4,171.4 612.6,259.5 612.6,259.5 635.4,220 663.4,171.4 		"/>
		<polygon fill="#6C5F82" points="617.9,197.7 613.8,200.1 663.4,171.4 618.2,197.5 		"/>
		<polygon fill="#6C5F82" points="618.4,197.4 618.2,197.5 663.4,171.4 633.7,188.6 		"/>
		<polygon fill="#6C5F82" points="575.3,222.3 575.3,222.3 606.8,204.1 		"/>
		<polygon fill="#6C5F82" points="610.5,202 610.5,202 575.3,222.3 575.3,222.3 606.8,204.1 		"/>
		<polygon fill="#6C5F82" points="610.5,202 575.3,222.3 610.5,202 		"/>
		<polygon fill="#6C5F82" points="610.5,202 575.3,222.3 575.3,222.3 610.5,202 		"/>
		<polygon fill="#6C5F82" points="663.4,171.4 635.4,220 636.7,217.6 		"/>
		<polygon fill="#DFDAE3" points="628,148.6 628,148.6 628,148.6 611,138.8 611,138.8 628,148.6 		"/>
		<polygon fill="#DFDAE3" points="630.7,150.2 629.3,149.4 629.3,149.4 662.6,168.6 662.6,168.6 		"/>
		<polygon fill="#DFDAE3" points="628,148.6 628,148.6 628.6,149 628.6,149 		"/>
		<g>
			<path fill="#FEDEB8" d="M550.7,369.6c36.1,20.7,72.3,30.4,114,30.5V296.4c-22.6-0.1-42.4-5.4-62.1-16.6L550.7,369.6z"/>
			<path fill="#FEDEB8" d="M555.1,232.2c-11.2-19.7-16.5-39.4-16.6-62.1h-82.7c0.1,37.8,8.9,70.7,27.7,103.4L555.1,232.2z"/>
			<path fill="#FEDEB8" d="M537.6,244l-53.4,30.8c19,32.7,43.1,56.7,75.7,75.7l30.8-53.4C567.9,283.9,551,266.9,537.6,244z"/>
			<path fill="#FEDEB8" d="M666.2,337c30.1-0.1,56.3-7.1,82.4-22.1l-30.8-53.4c-16.3,9.3-32.8,13.7-51.6,13.8V337z"/>
			<path fill="#FEDEB8" d="M738.6,126.3L810.2,85c-15.1-26-34.3-45.2-60.3-60.3l-41.3,71.6C721.4,103.8,731,113.4,738.6,126.3z"/>
			<path fill="#FEDEB8" d="M708.5,242.5l30.8,53.4c22.7-13.2,39.4-30,52.6-52.6l-53.4-30.8C731,225.4,721.4,235,708.5,242.5z"/>
			<path fill="#FEDEB8" d="M739.3,127.6c7.4,13,10.9,26.1,11,41.1H812c-0.1-26.2-6.2-49.1-19.3-71.9L739.3,127.6L739.3,127.6z"/>
			<path fill="#FEDEB8" d="M696.7,113.7l41.3-71.6c-22.8-13-45.7-19.1-71.9-19.3v82.7v0C677.3,105.6,687,108.3,696.7,113.7z"/>
			<path fill="#FEDEB8" d="M632.9,114.5L632.9,114.5L632.9,114.5l-20.3-35.2c-16,9.4-27.9,21.2-37.2,37.2l35.2,20.3
				C616.2,127.2,623.3,120.1,632.9,114.5z"/>
			<path fill="#FEDEB8" d="M624.4,96.8l40.3,69.8V86C650,86.1,637.1,89.5,624.4,96.8z"/>
			<path fill="#FEDEB8" d="M611,138.8c-5.3,9.4-7.9,19-8,29.8h59.6L611,138.8z"/>
		</g>
		<polygon fill="#DFDAE3" points="629.3,149.4 628.6,149 628.6,149 629.3,149.4 		"/>
		<polygon fill="#6C5F82" points="662.7,170.1 662.6,170.1 611,199.9 611,199.9 		"/>
		<polygon fill="#6C5F82" points="662.7,170.1 611,199.9 611,199.9 		"/>
		<polygon fill="#6C5F82" points="611,199.9 662.7,170.1 611,199.9 		"/>
		<polygon fill="#6C5F82" points="696,223.8 696,223.8 666.2,172.2 		"/>
		<polygon fill="#6C5F82" points="696,223.8 696,223.8 693.3,219.2 666.2,172.2 		"/>
		<polygon fill="#6C5F82" points="719.8,199.9 719.8,199.9 668.2,170.1 668.2,170.1 		"/>
		<polygon fill="#6C5F82" points="668.2,170.1 691.5,183.6 719.8,199.9 719.8,199.9 668.2,170.1 		"/>
		<polygon fill="#6C5F82" points="702.9,190.2 719.8,199.9 719.8,199.9 691.5,183.6 		"/>
		<polygon fill="#6C5F82" points="708.3,145.5 719.8,138.8 719.8,138.8 		"/>
		<polygon fill="#6C5F82" points="702.9,148.6 702.9,148.6 719.8,138.8 708.3,145.5 		"/>
		<polygon fill="#6C5F82" points="644.1,134 663.4,167.4 644.1,134 		"/>
		<polygon fill="#6C5F82" points="644.1,134 644.1,134 663.4,167.4 663.4,167.4 		"/>
		<polygon fill="#6C5F82" points="686.7,204.8 667.5,171.4 686.7,204.8 		"/>
		<polygon fill="#6C5F82" points="686.7,204.8 686.7,204.8 667.5,171.4 667.5,171.4 		"/>
		<polygon fill="#6C5F82" points="693.5,152.3 699.2,149 700.8,148.1 700.8,148.1 667.5,167.4 		"/>
		<polygon fill="#6C5F82" points="699.2,149 693.5,152.3 698.7,149.3 		"/>
		<g>
			<path fill="#A79FB4" d="M613.8,200.1l-3.3,1.9l-3.7,2.1l-31.5,18.2c9.4,16,21.2,27.9,37.2,37.2l50.8-88.1L613.8,200.1z"/>
			<path fill="#A79FB4" d="M664.7,252.8v-19.5v-61.1L624.4,242C637.1,249.2,650,252.7,664.7,252.8z"/>
			<path fill="#A79FB4" d="M662.6,170.1h-40h-19.5c0.1,10.8,2.7,20.4,8,29.8L662.6,170.1z"/>
			<path fill="#A79FB4" d="M666.2,231.8c10.8-0.1,20.4-2.7,29.8-8l-29.8-51.6V231.8z"/>
			<path fill="#A79FB4" d="M727.8,170.1h-59.6l51.6,29.8C725.1,190.5,727.7,181,727.8,170.1z"/>
			<path fill="#A79FB4" d="M702.9,148.6l-34.7,20h59.6c-0.1-10.8-2.7-20.4-8-29.8L702.9,148.6L702.9,148.6z"/>
			<path fill="#A79FB4" d="M630,148.1l1.4,0.8l32,18.4L644.1,134C638,137.6,633.6,142,630,148.1z"/>
			<path fill="#A79FB4" d="M700.8,190.7l-33.4-19.3l19.3,33.4C692.8,201.2,697.2,196.8,700.8,190.7z"/>
			<path fill="#A79FB4" d="M686.7,134l-19.3,33.4l33.4-19.3C697.2,142,692.8,137.6,686.7,134z"/>
			<path fill="#A79FB4" d="M666.2,128.1v38.6l19.3-33.4C679.3,129.8,673.3,128.2,666.2,128.1z"/>
		</g>
		<polygon fill="#6C5F82" points="685.4,133.2 666.2,166.6 685.4,133.2 		"/>
		<polygon fill="#6C5F82" points="677.5,147 685.4,133.2 685.4,133.2 666.2,166.6 677.2,147.5 		"/>
		<polygon fill="#6C5F82" points="680.7,141.4 685.4,133.2 685.4,133.2 678.5,145.3 		"/>
		<polygon fill="#6C5F82" points="678.5,145.3 685.4,133.2 677.5,147 		"/>
		<polygon fill="#6C5F82" points="685.4,133.2 685.4,133.2 680.7,141.4 		"/>
		<g>
			
				<text transform="matrix(1 0 0 1 692.2217 19.0132)" fill="#D1CDC9" font-family="'RobotoCondensed-Regular'" font-size="26.0849px">Jan</text>
		</g>
		<g>
			
				<text transform="matrix(1 0 0 1 786.9246 48.37)" fill="#D1CDC9" font-family="'RobotoCondensed-Regular'" font-size="26.0849px">Feb</text>
		</g>
		<g>
			
				<text transform="matrix(1 0 0 1 813.3314 130.7495)" fill="#D1CDC9" font-family="'RobotoCondensed-Regular'" font-size="26.0849px">Mar</text>
		</g>
		<g>
			
				<text transform="matrix(1 0 0 1 772.394 208.5737)" fill="#D1CDC9" font-family="'RobotoCondensed-Regular'" font-size="26.0849px">Apr</text>
		</g>
		<g>
			
				<text transform="matrix(1 0 0 1 770.8264 300.7723)" fill="#D1CDC9" font-family="'RobotoCondensed-Regular'" font-size="26.0849px">May</text>
		</g>
		<g>
			
				<text transform="matrix(1 0 0 1 692.1074 358.7749)" fill="#D1CDC9" font-family="'RobotoCondensed-Regular'" font-size="26.0849px">Jun</text>
		</g>
		<g>
			
				<text transform="matrix(1 0 0 1 563.938 414.2319)" fill="#D1CDC9" font-family="'RobotoCondensed-Regular'" font-size="26.0849px">Jul</text>
		</g>
		<g>
			
				<text transform="matrix(1 0 0 1 470.1367 336.9652)" fill="#D1CDC9" font-family="'RobotoCondensed-Regular'" font-size="26.0849px">Aug</text>
		</g>
		<g>
			
				<text transform="matrix(1 0 0 1 415.5347 244.5061)" fill="#D1CDC9" font-family="'RobotoCondensed-Regular'" font-size="26.0849px">Sep</text>
		</g>
		<g>
			
				<text transform="matrix(1 0 0 1 555.3506 156.6362)" fill="#D1CDC9" font-family="'RobotoCondensed-Regular'" font-size="26.0849px">Oct</text>
		</g>
		<g>
			
				<text transform="matrix(1 0 0 1 542.6632 88.6792)" fill="#D1CDC9" font-family="'RobotoCondensed-Regular'" font-size="26.0849px">Nov</text>
		</g>
		<g>
			
				<text transform="matrix(1 0 0 1 614.688 74.4409)" fill="#D1CDC9" font-family="'RobotoCondensed-Regular'" font-size="26.0849px">Dec</text>
		</g>
	</g>
</g>
<g id="Layer_2">
</g>
<g id="Layer_3">
</g>
</svg>
