<?xml version="1.0" encoding="utf-8"?>
<!-- Generator: Adobe Illustrator 19.2.0, SVG Export Plug-In . SVG Version: 6.00 Build 0)  -->
<svg version="1.1" id="Layer_1" xmlns="http://www.w3.org/2000/svg" xmlns:xlink="http://www.w3.org/1999/xlink" x="0px" y="0px"
	 width="1200px" height="1104px" viewBox="0 0 1200 1104" enable-background="new 0 0 1200 1104" xml:space="preserve">
<g>
	<path fill="#A3AEE3" d="M136.36,917.969c277.251-81.544,319.188-680.313,489.267-680.313c165.419,0,221.335,575.471,438.01,680.936
		C816.674,918.592,136.36,917.969,136.36,917.969z"/>
	<g>
		<text transform="matrix(1 0 0 1 943.7559 1100.3213)" fill="#7F7F7F" font-family="'Roboto-Regular'" font-size="65px">intervals</text>
	</g>
	<g>
		<text transform="matrix(1 0 0 1 501.2446 699.5889)"><tspan x="0" y="0" fill="#37246D" font-family="'Roboto-Regular'" font-size="65px">shape of</tspan><tspan x="-37.943" y="78" fill="#37246D" font-family="'Roboto-Regular'" font-size="65px">distribution</tspan></text>
	</g>
	<g>
		<text transform="matrix(1 0 0 1 205.4395 61.2803)" fill="#7F7F7F" font-family="'Roboto-Regular'" font-size="65px">density</text>
	</g>
	<g>
		<g>
			<polyline fill="none" stroke="#464A90" stroke-width="16" stroke-miterlimit="10" points="135,46.187 135,919 1156.813,919 			
				"/>
			<g>
				<polygon fill="#464A90" points="107.077,54.357 135,6 162.923,54.357 				"/>
			</g>
			<g>
				<polygon fill="#464A90" points="1148.643,946.923 1197,919 1148.643,891.077 				"/>
			</g>
		</g>
	</g>
	<g>
		<text transform="matrix(1 0 0 1 308.3457 1011.7002)" fill="#37246D" font-family="'Roboto-Regular'" font-size="55.9162px">1</text>
	</g>
	<g>
		<text transform="matrix(1 0 0 1 103.3184 1011.7002)" fill="#37246D" font-family="'Roboto-Regular'" font-size="55.9162px">0</text>
	</g>
	<g>
		<text transform="matrix(1 0 0 1 5.0215 759.0107)" fill="#37246D" font-family="'Roboto-Medium'" font-size="55.9162px">0.1</text>
	</g>
	<g>
		<text transform="matrix(1 0 0 1 476.5684 1011.7002)" fill="#37246D" font-family="'Roboto-Regular'" font-size="55.9162px">2</text>
	</g>
	<g>
		<text transform="matrix(1 0 0 1 647.6465 1011.7002)" fill="#37246D" font-family="'Roboto-Regular'" font-size="55.9162px">3</text>
	</g>
	<g>
		<text transform="matrix(1 0 0 1 988.0879 1011.7002)" fill="#37246D" font-family="'Roboto-Regular'" font-size="55.9162px">5</text>
	</g>
	<g>
		<text transform="matrix(1 0 0 1 814.5957 1011.7002)" fill="#37246D" font-family="'Roboto-Regular'" font-size="55.9162px">4</text>
	</g>
	<line fill="none" stroke="#464A90" stroke-width="4" stroke-miterlimit="10" x1="103" y1="574" x2="168" y2="574"/>
	<line fill="none" stroke="#464A90" stroke-width="4" stroke-miterlimit="10" x1="103" y1="406" x2="168" y2="406"/>
	<line fill="none" stroke="#464A90" stroke-width="4" stroke-miterlimit="10" x1="103" y1="238" x2="168" y2="238"/>
	<line fill="none" stroke="#464A90" stroke-width="4" stroke-miterlimit="10" x1="103" y1="742" x2="168" y2="742"/>
	<line fill="none" stroke="#464A90" stroke-width="4" stroke-miterlimit="10" x1="312" y1="950" x2="312" y2="885"/>
	<line fill="none" stroke="#464A90" stroke-width="4" stroke-miterlimit="10" x1="480" y1="951" x2="480" y2="886"/>
	<line fill="none" stroke="#464A90" stroke-width="4" stroke-miterlimit="10" x1="648" y1="951" x2="648" y2="886"/>
	<line fill="none" stroke="#464A90" stroke-width="4" stroke-miterlimit="10" x1="815" y1="950" x2="815" y2="885"/>
	<line fill="none" stroke="#464A90" stroke-width="4" stroke-miterlimit="10" x1="983" y1="950" x2="983" y2="885"/>
	<g>
		<text transform="matrix(1 0 0 1 0.5488 587.2373)" fill="#37246D" font-family="'Roboto-Medium'" font-size="55.9162px">0.2</text>
	</g>
	<g>
		<text transform="matrix(1 0 0 1 1.6035 424.8818)" fill="#37246D" font-family="'Roboto-Medium'" font-size="55.9162px">0.3</text>
	</g>
	<g>
		<text transform="matrix(1 0 0 1 -0.002 253.8467)" fill="#37246D" font-family="'Roboto-Medium'" font-size="55.9162px">0.4</text>
	</g>
</g>
</svg>
