<?xml version="1.0" encoding="utf-8"?>
<!-- Generator: Adobe Illustrator 19.2.0, SVG Export Plug-In . SVG Version: 6.00 Build 0)  -->
<svg version="1.1" id="Layer_1" xmlns="http://www.w3.org/2000/svg" xmlns:xlink="http://www.w3.org/1999/xlink" x="0px" y="0px"
	 width="1268px" height="558px" viewBox="0 0 1268 558" enable-background="new 0 0 1268 558" xml:space="preserve">
<g>
	<line fill="none" stroke="#C4C4C4" stroke-miterlimit="10" x1="50" y1="438.633" x2="1264" y2="438.633"/>
	<line fill="none" stroke="#C4C4C4" stroke-miterlimit="10" x1="50" y1="353.633" x2="1264" y2="353.633"/>
	<line fill="none" stroke="#C4C4C4" stroke-miterlimit="10" x1="50" y1="268.633" x2="1264" y2="268.633"/>
	<line fill="none" stroke="#C4C4C4" stroke-miterlimit="10" x1="50" y1="183.633" x2="1264" y2="183.633"/>
	<line fill="none" stroke="#C4C4C4" stroke-miterlimit="10" x1="50" y1="98.633" x2="1264" y2="98.633"/>
	<line fill="none" stroke="#C4C4C4" stroke-miterlimit="10" x1="50" y1="13.633" x2="1264" y2="13.633"/>
</g>
<g>
	<text transform="matrix(1 0 0 1 2.1245 23.4427)"><tspan x="0" y="0" fill="#B3B3B3" font-family="'RobotoCondensed-Regular'" font-size="26px">120</tspan><tspan x="0" y="83" fill="#B3B3B3" font-family="'RobotoCondensed-Regular'" font-size="26px">100</tspan><tspan x="12.835" y="166" fill="#B3B3B3" font-family="'RobotoCondensed-Regular'" font-size="26px">80</tspan><tspan x="12.835" y="249" fill="#B3B3B3" font-family="'RobotoCondensed-Regular'" font-size="26px">60</tspan><tspan x="12.835" y="332" fill="#B3B3B3" font-family="'RobotoCondensed-Regular'" font-size="26px">40</tspan><tspan x="12.835" y="415" fill="#B3B3B3" font-family="'RobotoCondensed-Regular'" font-size="26px">20</tspan><tspan x="25.67" y="498" fill="#B3B3B3" font-family="'RobotoCondensed-Regular'" font-size="26px">0</tspan></text>
</g>
<g>
	<text transform="matrix(1 0 0 1 103.1907 554.6782)" fill="#B3B3B3" font-family="'RobotoCondensed-Regular'" font-size="26px">20</text>
</g>
<g>
	<text transform="matrix(1 0 0 1 210.1907 554.6782)" fill="#B3B3B3" font-family="'RobotoCondensed-Regular'" font-size="26px">40</text>
</g>
<g>
	<text transform="matrix(1 0 0 1 317.1907 554.6782)" fill="#B3B3B3" font-family="'RobotoCondensed-Regular'" font-size="26px">60</text>
</g>
<g>
	<text transform="matrix(1 0 0 1 424.1907 554.6782)" fill="#B3B3B3" font-family="'RobotoCondensed-Regular'" font-size="26px">80</text>
</g>
<g>
	<text transform="matrix(1 0 0 1 518.3557 554.6782)" fill="#B3B3B3" font-family="'RobotoCondensed-Regular'" font-size="26px">100</text>
</g>
<g>
	<text transform="matrix(1 0 0 1 625.3557 554.6782)" fill="#B3B3B3" font-family="'RobotoCondensed-Regular'" font-size="26px">120</text>
</g>
<g>
	<text transform="matrix(1 0 0 1 732.3557 554.6782)" fill="#B3B3B3" font-family="'RobotoCondensed-Regular'" font-size="26px">140</text>
</g>
<g>
	<text transform="matrix(1 0 0 1 839.3557 554.6782)" fill="#B3B3B3" font-family="'RobotoCondensed-Regular'" font-size="26px">160</text>
</g>
<g>
	<text transform="matrix(1 0 0 1 946.3557 554.6782)" fill="#B3B3B3" font-family="'RobotoCondensed-Regular'" font-size="26px">180</text>
</g>
<g>
	<text transform="matrix(1 0 0 1 1053.3557 554.6782)" fill="#B3B3B3" font-family="'RobotoCondensed-Regular'" font-size="26px">200</text>
</g>
<g>
	<text transform="matrix(1 0 0 1 1160.3557 554.6782)" fill="#B3B3B3" font-family="'RobotoCondensed-Regular'" font-size="26px">220</text>
</g>
<line fill="none" stroke="#6C5F82" stroke-width="2" stroke-miterlimit="10" x1="50" y1="523.633" x2="1264" y2="523.633"/>
<path opacity="0.7" fill="#A3B1D6" d="M64,523.633c59,0,83-255,160-255c76,0,84,170.367,137.861,170.367
	C439,439,450,13.633,560,13.633s138,510,255,510C511,523.633,64,523.633,64,523.633z"/>
<path opacity="0.5" fill="#4F3D6E" d="M470,524c199.464,0,248.607-303.532,404.709-303.532C1025.029,220.468,1075.136,524,1264,524
	C971.068,524,470,524,470,524z"/>
<path opacity="0.38" fill="#6C5F82" d="M157.529,524C265,524,280,183.633,396,183.633c96,0,99.29,216.954,174,239.367
	c50,15,71-34.547,134.607-34.547C802.002,388.453,860.101,524,951.05,524C759.95,524,157.529,524,157.529,524z"/>
</svg>
