<svg height="256" viewBox="0 0 256 256" width="256" xmlns="http://www.w3.org/2000/svg"><path d="m30.6 73.2a5.5 5.5 0 1 1 5.4 5.4 5.5 5.5 0 0 1 -5.4-5.4zm21.3-49.6a5.4 5.4 0 1 0 -5.4-5.4 5.4 5.4 0 0 0 5.4 5.4zm45.4 6.3a5.4 5.4 0 1 0 0-10.8 5.4 5.4 0 1 0 0 10.8zm-29.9 23.6a5.5 5.5 0 0 0 5.5-5.5 5.5 5.5 0 0 0 -10.9 0 5.5 5.5 0 0 0 5.4 5.5zm-45.5 45.5a5.4 5.4 0 0 0 5.4-5.4 5.4 5.4 0 1 0 -10.8 0 5.4 5.4 0 0 0 5.4 5.4zm46.4-24.3a5.4 5.4 0 1 0 5.4-5.4 5.4 5.4 0 0 0 -5.4 5.4zm-55.1-68.2h-7.7v103.5h103.5v-7.7h-95.8zm77.8 47a5.5 5.5 0 0 0 5.4-5.5 5.4 5.4 0 0 0 -10.8 0 5.5 5.5 0 0 0 5.4 5.5zm-77.8 91.5h-7.7v103.5h103.5v-7.7h-95.8zm14.1 87.1a5.4 5.4 0 1 0 -5.4 5.4 5.4 5.4 0 0 0 5.4-5.4zm58.3-45.5a5.4 5.4 0 1 0 5.4-5.5 5.4 5.4 0 0 0 -5.4 5.5zm.9-25.3a5.4 5.4 0 0 0 -10.8 0 5.4 5.4 0 1 0 10.8 0zm-18.2 51.9a5.4 5.4 0 1 0 5.4-5.4 5.4 5.4 0 0 0 -5.4 5.4zm-21.5 9.1a5.4 5.4 0 0 0 5.4 5.4 5.4 5.4 0 1 0 0-10.8 5.4 5.4 0 0 0 -5.4 5.4zm-1.1-38.4a5.5 5.5 0 1 0 5.4 5.4 5.4 5.4 0 0 0 -5.4-5.4zm14.6-27.2a5.4 5.4 0 0 0 -10.8 0 5.4 5.4 0 1 0 10.8 0zm147 35.3a5.5 5.5 0 1 0 -5.4-5.4 5.4 5.4 0 0 0 5.4 5.4zm-12.2 29.3a5.4 5.4 0 1 0 5.4-5.4 5.4 5.4 0 0 0 -5.4 5.4zm42-52.9a5.4 5.4 0 1 0 -5.4-5.4 5.5 5.5 0 0 0 5.4 5.4zm-15.2 37.3a5.5 5.5 0 0 0 5.5-5.5 5.5 5.5 0 0 0 -5.5-5.4 5.4 5.4 0 0 0 -5.4 5.4 5.5 5.5 0 0 0 5.4 5.5zm-60.1 31.8a5.4 5.4 0 1 0 -5.4-5.4 5.4 5.4 0 0 0 5.4 5.4zm28.8-66.4a5.5 5.5 0 0 0 0-10.9 5.5 5.5 0 1 0 0 10.9zm-37.5 69.7v-95.8h-7.7v103.5h103.5v-7.7zm22.8-23.7a5.4 5.4 0 1 0 0-10.8 5.5 5.5 0 0 0 -5.4 5.5 5.4 5.4 0 0 0 5.4 5.3z"/></svg>