<svg height="256" viewBox="0 0 256 256" width="256" xmlns="http://www.w3.org/2000/svg"><path d="m67.8 240.1h113v-48.1h-113zm86-3 24-28.3v14.4l-1.4-1.2-12.9 15.1zm13.7 0 10.3-12.2v12.2zm10.3-30-1.4-1.2-25.1 29.5 2 1.7h-15.7l35.4-41.6-.6-.5h5.4zm-107-12.1h86.9l-25.7 30.2v-26.1h-3v35.9h3v-7.7l1.2 1.1 27-31.7-1.9-1.7h11.2l-34.4 40.4 1.9 1.7h-66.2zm-19.4-15.1h163.6v-48.1h-163.6zm131.3-3 29.3-34.4v16.6l-1.6-1.4-16.3 19.2zm15.3 0 14-16.4v16.4zm14-36.2-1.4-1.2-31.8 37.4h-13.2l35-41.1-1.1-1h12.5zm-157.6-5.9h103.7l-26.8 31.4v-13.6l2.2 1.9 14-16.5-2.3-1.9-13.9 16.3v-16.1h-3v34.9h3v-4.8l2.2 1.9 27.9-32.8-.8-.7h7.7l-33.6 39.4 2.3 1.9 34.5-40.5-.9-.8h26.9l-34.5 40.5 2 1.6h-13.1l32.8-38.5-2.3-1.9-34.4 40.4h-93.6zm-14.9-15h134.8l.9.7.6-.7h57.7v-48.1h-194zm173.5-3 17.5-20.6v11.4l-.4-.3-7.6 9 .5.5zm13 0 4.5-5.3v5.3zm4.5-20.6-2.3-1.9-18.8 22 .6.5h-13.2l31.8-37.4-2.3-2-33.4 39.3h-14.6l32.5-38.1-2.3-2-34.1 40.1h-17l32.4-38.1-2.3-2-34 40h-13.9l34.5-40.6-1.8-1.5h58.2zm-188-21.5h115.9l-27.4 32.2v-11.2l1.6 1.3 15.2-17.9-2.2-2-14.6 17.1v-17.2h-3v34h3v-.4h.8l30.6-35.9h9.1l-35.9 42.1h-93.1zm-41-63.2v48.1h197.7l.4.4.4-.4h12.3l1.3 1.2 1-1.2h37.9v-48.1zm3 3h148.6l-23.3 27.4v-8.9l.6.5 13-15.3-2.3-2-11.3 13.4v-11.6h-3v34.7h3v-7.4l.6.5 25.6-30.1-1.4-1.2h44.6l-35.2 41.3.9.8h-14.2l31.3-36.7-2.3-2-32.2 37.9.9.8h-15.8l33.8-39.7-2.2-2-34.2 40.2 1.8 1.5h-127.3zm229.4.6-35.3 41.5h-13.9l31.2-36.6-2.3-1.9-32.4 38.1.4.4h-14.3l35.5-41.8-.4-.3h47.1v3.7l-2.1-1.8-34.2 40.2h-10.7l33.7-39.5zm15.6 3.5v24.2l-10.8 12.7 1.4 1.1h-13.1l22.1-25.9-2.3-1.9-23.7 27.8h-5.9zm-7.9 38 7.9-9.2v9.2zm-106.2 155-2.2-1.9 11.6-13.7 2.2 2z"/></svg>