<?xml version="1.0" encoding="utf-8"?>
<!-- Generator: Adobe Illustrator 22.1.0, SVG Export Plug-In . SVG Version: 6.00 Build 0)  -->
<svg version="1.1" id="Layer_1" xmlns="http://www.w3.org/2000/svg" xmlns:xlink="http://www.w3.org/1999/xlink" x="0px" y="0px"
	 viewBox="0 0 1069.9 393.6" style="enable-background:new 0 0 1069.9 393.6;" xml:space="preserve">
<style type="text/css">
	.st0{fill:#C3C3DD;stroke:#FFFFFF;stroke-width:2;stroke-miterlimit:10;}
	.st1{fill:#ACACCC;stroke:#FFFFFF;stroke-width:2;stroke-miterlimit:10;}
</style>
<g>
	<rect x="425.3" y="367.5" class="st0" width="112.3" height="18.6"/>
	<rect x="417.1" y="348.9" class="st0" width="120.4" height="18.6"/>
	<rect x="409.9" y="330.2" class="st0" width="127.6" height="18.6"/>
	<rect x="398.4" y="311.6" class="st0" width="139.2" height="18.6"/>
	<rect x="392" y="293" class="st0" width="145.5" height="18.6"/>
	<rect x="388.7" y="274.4" class="st0" width="148.9" height="18.6"/>
	<rect x="395.2" y="255.8" class="st0" width="142.4" height="18.6"/>
	<rect x="428.9" y="237.2" class="st0" width="108.7" height="18.6"/>
	<rect x="445.8" y="218.6" class="st0" width="91.7" height="18.6"/>
	<rect x="452.8" y="200" class="st0" width="84.6" height="18.6"/>
	<rect x="459.1" y="181.4" class="st0" width="78.5" height="18.6"/>
	<rect x="470.9" y="162.8" class="st0" width="66.7" height="18.6"/>
	<rect x="482.6" y="144.2" class="st0" width="55" height="18.6"/>
	<rect x="487" y="125.6" class="st0" width="50.5" height="18.6"/>
	<rect x="497" y="107" class="st0" width="40.6" height="18.6"/>
	<rect x="501.6" y="88.4" class="st0" width="36" height="18.6"/>
	<rect x="506.2" y="69.8" class="st0" width="31.4" height="18.6"/>
	<rect x="515.7" y="51.1" class="st0" width="21.8" height="18.6"/>
	<rect x="525" y="32.5" class="st0" width="12.5" height="18.6"/>
	<rect x="528.7" y="13.9" class="st0" width="8.8" height="18.6"/>
	<rect x="537.5" y="367.5" class="st1" width="112.3" height="18.6"/>
	<rect x="537.6" y="348.9" class="st1" width="120.4" height="18.6"/>
	<rect x="537.6" y="330.2" class="st1" width="127.6" height="18.6"/>
	<rect x="537.5" y="311.6" class="st1" width="139.2" height="18.6"/>
	<rect x="537.6" y="293" class="st1" width="145.5" height="18.6"/>
	<rect x="537.5" y="274.4" class="st1" width="148.9" height="18.6"/>
	<rect x="537.5" y="255.8" class="st1" width="142.4" height="18.6"/>
	<rect x="537.5" y="237.2" class="st1" width="108.7" height="18.6"/>
	<rect x="537.5" y="218.6" class="st1" width="91.7" height="18.6"/>
	<rect x="537.6" y="200" class="st1" width="84.6" height="18.6"/>
	<rect x="537.5" y="181.4" class="st1" width="78.5" height="18.6"/>
	<rect x="537.5" y="162.8" class="st1" width="66.7" height="18.6"/>
	<rect x="537.5" y="144.2" class="st1" width="55" height="18.6"/>
	<rect x="537.6" y="125.6" class="st1" width="50.5" height="18.6"/>
	<rect x="537.5" y="107" class="st1" width="40.6" height="18.6"/>
	<rect x="537.5" y="88.4" class="st1" width="36" height="18.6"/>
	<rect x="537.5" y="69.8" class="st1" width="31.4" height="18.6"/>
	<rect x="537.6" y="51.1" class="st1" width="21.8" height="18.6"/>
	<rect x="537.6" y="32.5" class="st1" width="12.5" height="18.6"/>
	<rect x="537.5" y="13.9" class="st1" width="8.8" height="18.6"/>
</g>
<g>
	<rect x="841.2" y="367.5" class="st0" width="84.8" height="18.6"/>
	<rect x="815.8" y="348.9" class="st0" width="110.1" height="18.6"/>
	<rect x="802.2" y="330.2" class="st0" width="123.7" height="18.6"/>
	<rect x="793.1" y="311.6" class="st0" width="132.7" height="18.6"/>
	<rect x="793.1" y="293" class="st0" width="132.7" height="18.6"/>
	<rect x="783" y="274.4" class="st0" width="142.8" height="18.6"/>
	<rect x="802.2" y="255.8" class="st0" width="123.7" height="18.6"/>
	<rect x="818.1" y="237.2" class="st0" width="107.9" height="18.6"/>
	<rect x="810.6" y="218.6" class="st0" width="115.2" height="18.6"/>
	<rect x="802.2" y="200" class="st0" width="123.6" height="18.6"/>
	<rect x="818.1" y="181.4" class="st0" width="107.8" height="18.6"/>
	<rect x="825.3" y="162.8" class="st0" width="100.5" height="18.6"/>
	<rect x="840.3" y="144.2" class="st0" width="85.6" height="18.6"/>
	<rect x="846" y="125.6" class="st0" width="79.8" height="18.6"/>
	<rect x="858.8" y="107" class="st0" width="67.1" height="18.6"/>
	<rect x="864.8" y="88.4" class="st0" width="61.1" height="18.6"/>
	<rect x="870.6" y="69.8" class="st0" width="55.2" height="18.6"/>
	<rect x="882.9" y="51.1" class="st0" width="42.9" height="18.6"/>
	<rect x="894.8" y="32.5" class="st0" width="31" height="18.6"/>
	<rect x="899.7" y="13.9" class="st0" width="26.3" height="18.6"/>
	<rect x="925.9" y="367.5" class="st1" width="77" height="18.6"/>
	<rect x="925.9" y="348.9" class="st1" width="100.7" height="18.6"/>
	<rect x="925.9" y="330.2" class="st1" width="107.7" height="18.6"/>
	<rect x="925.9" y="311.6" class="st1" width="119.6" height="18.6"/>
	<rect x="926" y="293" class="st1" width="130.9" height="18.6"/>
	<rect x="925.9" y="274.4" class="st1" width="139.7" height="18.6"/>
	<rect x="925.9" y="255.8" class="st1" width="122.2" height="18.6"/>
	<rect x="925.9" y="237.2" class="st1" width="104.4" height="18.6"/>
	<rect x="926" y="218.6" class="st1" width="114.4" height="18.6"/>
	<rect x="925.9" y="200" class="st1" width="122.2" height="18.6"/>
	<rect x="925.9" y="181.4" class="st1" width="110.4" height="18.6"/>
	<rect x="925.9" y="162.8" class="st1" width="100.7" height="18.6"/>
	<rect x="925.9" y="144.2" class="st1" width="97.3" height="18.6"/>
	<rect x="925.9" y="125.6" class="st1" width="90.2" height="18.6"/>
	<rect x="925.9" y="107" class="st1" width="74.2" height="18.6"/>
	<rect x="925.9" y="88.4" class="st1" width="66.8" height="18.6"/>
	<rect x="925.9" y="69.8" class="st1" width="59.4" height="18.6"/>
	<rect x="925.9" y="51.1" class="st1" width="44" height="18.6"/>
	<rect x="925.9" y="32.5" class="st1" width="29" height="18.6"/>
	<rect x="925.9" y="13.9" class="st1" width="23.1" height="18.6"/>
</g>
<g>
	<rect x="38" y="367.5" class="st0" width="112.3" height="18.6"/>
	<rect x="29.7" y="348.9" class="st0" width="120.4" height="18.6"/>
	<rect x="22.6" y="330.2" class="st0" width="127.6" height="18.6"/>
	<rect x="11" y="311.6" class="st0" width="139.2" height="18.6"/>
	<rect x="4.7" y="293" class="st0" width="145.5" height="18.6"/>
	<rect x="1.3" y="274.4" class="st0" width="148.9" height="18.6"/>
	<rect x="7.9" y="255.8" class="st0" width="142.4" height="18.6"/>
	<rect x="15.8" y="237.2" class="st0" width="134.4" height="18.6"/>
	<rect x="36.8" y="218.6" class="st0" width="113.5" height="18.6"/>
	<rect x="65.5" y="200" class="st0" width="84.6" height="18.6"/>
	<rect x="75.8" y="181.4" class="st0" width="74.4" height="18.6"/>
	<rect x="80.7" y="162.8" class="st0" width="69.6" height="18.6"/>
	<rect x="95.2" y="144.2" class="st0" width="55" height="18.6"/>
	<rect x="99.7" y="125.6" class="st0" width="50.5" height="18.6"/>
	<rect x="109.6" y="107" class="st0" width="40.6" height="18.6"/>
	<rect x="114.3" y="88.4" class="st0" width="36" height="18.6"/>
	<rect x="118.8" y="69.8" class="st0" width="31.4" height="18.6"/>
	<rect x="128.4" y="51.1" class="st0" width="21.8" height="18.6"/>
	<rect x="137.7" y="32.5" class="st0" width="12.5" height="18.6"/>
	<rect x="141.4" y="13.9" class="st0" width="8.8" height="18.6"/>
	<rect x="150.2" y="367.5" class="st1" width="102.9" height="18.6"/>
	<rect x="150.3" y="348.9" class="st1" width="110.4" height="18.6"/>
	<rect x="150.2" y="330.2" class="st1" width="117.1" height="18.6"/>
	<rect x="150.3" y="311.6" class="st1" width="127.6" height="18.6"/>
	<rect x="150.3" y="293" class="st1" width="136.2" height="18.6"/>
	<rect x="150.2" y="274.4" class="st1" width="139.5" height="18.6"/>
	<rect x="150.2" y="255.8" class="st1" width="133.1" height="18.6"/>
	<rect x="150.3" y="237.2" class="st1" width="121.9" height="18.6"/>
	<rect x="150.2" y="218.6" class="st1" width="113.2" height="18.6"/>
	<rect x="150.2" y="200" class="st1" width="106.3" height="18.6"/>
	<rect x="150.2" y="181.4" class="st1" width="98.6" height="18.6"/>
	<rect x="150.2" y="162.8" class="st1" width="83.7" height="18.6"/>
	<rect x="150.2" y="144.2" class="st1" width="69.1" height="18.6"/>
	<rect x="150.2" y="125.6" class="st1" width="63.5" height="18.6"/>
	<rect x="150.2" y="107" class="st1" width="51" height="18.6"/>
	<rect x="150.2" y="88.4" class="st1" width="45.2" height="18.6"/>
	<rect x="150.3" y="69.8" class="st1" width="31.4" height="18.6"/>
	<rect x="150.3" y="51.1" class="st1" width="21.8" height="18.6"/>
	<rect x="150.3" y="32.5" class="st1" width="12.5" height="18.6"/>
	<rect x="150.3" y="13.9" class="st1" width="8.8" height="18.6"/>
</g>
</svg>
