<?xml version="1.0" encoding="utf-8"?>
<!-- Generator: Adobe Illustrator 22.1.0, SVG Export Plug-In . SVG Version: 6.00 Build 0)  -->
<svg version="1.1" id="Layer_1" xmlns="http://www.w3.org/2000/svg" xmlns:xlink="http://www.w3.org/1999/xlink" x="0px" y="0px"
	 viewBox="0 0 1069.9 393.6" style="enable-background:new 0 0 1069.9 393.6;" xml:space="preserve">
<style type="text/css">
	.st0{fill:#B7A795;}
	.st1{fill:#66627A;}
</style>
<g>
	<rect x="434.6" y="363.8" class="st0" width="109.8" height="18.2"/>
	<rect x="426.5" y="345.6" class="st0" width="117.8" height="18.2"/>
	<rect x="419.5" y="327.4" class="st0" width="124.8" height="18.2"/>
	<rect x="408.2" y="309.2" class="st0" width="136.2" height="18.2"/>
	<rect x="402" y="291" class="st0" width="142.3" height="18.2"/>
	<rect x="398.8" y="272.8" class="st0" width="145.6" height="18.2"/>
	<rect x="405.1" y="254.6" class="st0" width="139.3" height="18.2"/>
	<rect x="438.1" y="236.4" class="st0" width="106.3" height="18.2"/>
	<rect x="454.6" y="218.2" class="st0" width="89.7" height="18.2"/>
	<rect x="461.5" y="200" class="st0" width="82.8" height="18.2"/>
	<rect x="467.6" y="181.8" class="st0" width="76.8" height="18.2"/>
	<rect x="479.2" y="163.6" class="st0" width="65.2" height="18.2"/>
	<rect x="490.6" y="145.4" class="st0" width="53.8" height="18.2"/>
	<rect x="494.9" y="127.2" class="st0" width="49.4" height="18.2"/>
	<rect x="504.7" y="109" class="st0" width="39.7" height="18.2"/>
	<rect x="509.2" y="90.8" class="st0" width="35.2" height="18.2"/>
	<rect x="513.7" y="72.6" class="st0" width="30.7" height="18.2"/>
	<rect x="523" y="54.4" class="st0" width="21.3" height="18.2"/>
	<rect x="532.1" y="36.2" class="st0" width="12.2" height="18.2"/>
	<rect x="535.7" y="18" class="st0" width="8.6" height="18.2"/>
	
		<rect x="544.4" y="363.8" transform="matrix(-1 -4.488955e-11 4.488955e-11 -1 1198.507 745.8)" class="st1" width="109.8" height="18.2"/>
	
		<rect x="544.4" y="345.6" transform="matrix(-1 -4.490953e-11 4.490953e-11 -1 1206.5591 709.4)" class="st1" width="117.8" height="18.2"/>
	
		<rect x="544.4" y="327.4" transform="matrix(-1 -4.490420e-11 4.490420e-11 -1 1213.5818 673)" class="st1" width="124.8" height="18.2"/>
	
		<rect x="544.4" y="309.2" transform="matrix(-1 -4.490021e-11 4.490021e-11 -1 1224.8945 636.6)" class="st1" width="136.2" height="18.2"/>
	
		<rect x="544.4" y="291" transform="matrix(-1 -4.491220e-11 4.491220e-11 -1 1231.0553 600.2)" class="st1" width="142.3" height="18.2"/>
	
		<rect x="544.4" y="272.8" transform="matrix(-1 -4.490021e-11 4.490021e-11 -1 1234.3345 563.8)" class="st1" width="145.6" height="18.2"/>
	
		<rect x="544.4" y="254.6" transform="matrix(-1 -4.492197e-11 4.492197e-11 -1 1227.9872 527.4)" class="st1" width="139.3" height="18.2"/>
	
		<rect x="544.4" y="236.4" transform="matrix(-1 -4.489488e-11 4.489488e-11 -1 1195.0508 491)" class="st1" width="106.3" height="18.2"/>
	
		<rect x="544.4" y="218.2" transform="matrix(-1 -4.488777e-11 4.488777e-11 -1 1178.4526 454.6)" class="st1" width="89.7" height="18.2"/>
	
		<rect x="544.4" y="200" transform="matrix(-1 -4.491264e-11 4.491264e-11 -1 1171.5587 418.2)" class="st1" width="82.8" height="18.2"/>
	
		<rect x="544.4" y="181.8" transform="matrix(-1 -4.489354e-11 4.489354e-11 -1 1165.5157 381.8)" class="st1" width="76.8" height="18.2"/>
	
		<rect x="544.4" y="163.6" transform="matrix(-1 -4.489754e-11 4.489754e-11 -1 1153.9426 345.4)" class="st1" width="65.2" height="18.2"/>
	
		<rect x="544.4" y="145.4" transform="matrix(-1 -4.487622e-11 4.487622e-11 -1 1142.5428 309)" class="st1" width="53.8" height="18.2"/>
	
		<rect x="544.4" y="127.2" transform="matrix(-1 -4.488821e-11 4.488821e-11 -1 1138.1721 272.6)" class="st1" width="49.4" height="18.2"/>
	
		<rect x="544.4" y="109" transform="matrix(-1 -4.489266e-11 4.489266e-11 -1 1128.443 236.2)" class="st1" width="39.7" height="18.2"/>
	
		<rect x="544.4" y="90.8" transform="matrix(-1 -4.486246e-11 4.486246e-11 -1 1123.9081 199.8)" class="st1" width="35.2" height="18.2"/>
	
		<rect x="544.4" y="72.6" transform="matrix(-1 -4.489354e-11 4.489354e-11 -1 1119.447 163.4)" class="st1" width="30.7" height="18.2"/>
	
		<rect x="544.4" y="54.4" transform="matrix(-1 -4.490331e-11 4.490331e-11 -1 1110.0626 127)" class="st1" width="21.3" height="18.2"/>
	
		<rect x="544.4" y="36.2" transform="matrix(-1 -4.499835e-11 4.499835e-11 -1 1100.9626 90.6)" class="st1" width="12.2" height="18.2"/>
	
		<rect x="544.4" y="18" transform="matrix(-1 -4.484114e-11 4.484114e-11 -1 1097.3546 54.2)" class="st1" width="8.6" height="18.2"/>
</g>
<g>
	<rect x="834.5" y="363.8" class="st0" width="82.9" height="18.2"/>
	<rect x="809.7" y="345.6" class="st0" width="107.7" height="18.2"/>
	<rect x="796.4" y="327.4" class="st0" width="121" height="18.2"/>
	<rect x="787.5" y="309.2" class="st0" width="129.8" height="18.2"/>
	<rect x="777.6" y="291" class="st0" width="139.7" height="18.2"/>
	<rect x="770.3" y="272.8" class="st0" width="147" height="18.2"/>
	<rect x="796.4" y="254.6" class="st0" width="121" height="18.2"/>
	<rect x="811.9" y="236.4" class="st0" width="105.5" height="18.2"/>
	<rect x="804.6" y="218.2" class="st0" width="112.7" height="18.2"/>
	<rect x="787.5" y="200" class="st0" width="129.8" height="18.2"/>
	<rect x="804.1" y="181.8" class="st0" width="113.2" height="18.2"/>
	<rect x="819" y="163.6" class="st0" width="98.3" height="18.2"/>
	<rect x="833.6" y="145.4" class="st0" width="83.7" height="18.2"/>
	<rect x="839.2" y="127.2" class="st0" width="78.1" height="18.2"/>
	<rect x="851.7" y="109" class="st0" width="65.6" height="18.2"/>
	<rect x="857.6" y="90.8" class="st0" width="59.8" height="18.2"/>
	<rect x="863.3" y="72.6" class="st0" width="54" height="18.2"/>
	<rect x="875.3" y="54.4" class="st0" width="42" height="18.2"/>
	<rect x="887" y="36.2" class="st0" width="30.3" height="18.2"/>
	<rect x="891.7" y="18" class="st0" width="25.7" height="18.2"/>
	
		<rect x="917.3" y="363.8" transform="matrix(-1 -6.546820e-11 6.546820e-11 -1 1909.9423 745.7997)" class="st1" width="75.3" height="18.2"/>
	
		<rect x="917.3" y="345.6" transform="matrix(-1 -5.371760e-11 5.371760e-11 -1 1933.1788 709.3997)" class="st1" width="98.5" height="18.2"/>
	
		<rect x="917.3" y="327.4" transform="matrix(-1 -5.323798e-11 5.323798e-11 -1 1939.9771 672.9998)" class="st1" width="105.3" height="18.2"/>
	
		<rect x="917.3" y="309.2" transform="matrix(-1 -5.224544e-11 5.224544e-11 -1 1951.692 636.5997)" class="st1" width="117" height="18.2"/>
	
		<rect x="917.3" y="291" transform="matrix(-1 -4.990465e-11 4.990465e-11 -1 1962.7214 600.1997)" class="st1" width="128" height="18.2"/>
	
		<rect x="917.3" y="272.8" transform="matrix(-1 -4.787249e-11 4.787249e-11 -1 1971.2347 563.7997)" class="st1" width="136.6" height="18.2"/>
	
		<rect x="917.3" y="254.6" transform="matrix(-1 -5.232316e-11 5.232316e-11 -1 1954.1949 527.3999)" class="st1" width="119.5" height="18.2"/>
	
		<rect x="917.3" y="236.4" transform="matrix(-1 -4.419766e-11 4.419766e-11 -1 1942.6671 490.9999)" class="st1" width="108" height="18.2"/>
	
		<rect x="917.3" y="218.2" transform="matrix(-1 -3.291601e-11 3.291601e-11 -1 1957.0229 454.6002)" class="st1" width="122.3" height="18.2"/>
	
		<rect x="917.3" y="200" transform="matrix(-1 -2.642254e-11 2.642254e-11 -1 1975.5251 418.2002)" class="st1" width="140.9" height="18.2"/>
	
		<rect x="917.3" y="181.8" transform="matrix(-1 -2.627022e-11 2.627022e-11 -1 1965.8879 381.8002)" class="st1" width="131.2" height="18.2"/>
	
		<rect x="917.3" y="163.6" transform="matrix(-1 -2.578039e-11 2.578039e-11 -1 1948.2363 345.4002)" class="st1" width="113.6" height="18.2"/>
	
		<rect x="917.3" y="145.4" transform="matrix(-1 -2.538249e-11 2.538249e-11 -1 1929.9154 309.0002)" class="st1" width="95.2" height="18.2"/>
	
		<rect x="917.3" y="127.2" transform="matrix(-1 -2.515600e-11 2.515600e-11 -1 1922.8911 272.6002)" class="st1" width="88.2" height="18.2"/>
	
		<rect x="917.3" y="109" transform="matrix(-1 -2.457291e-11 2.457291e-11 -1 1907.255 236.2002)" class="st1" width="72.6" height="18.2"/>
	
		<rect x="917.3" y="90.8" transform="matrix(-1 -2.418167e-11 2.418167e-11 -1 1899.9668 199.8002)" class="st1" width="65.3" height="18.2"/>
	
		<rect x="917.3" y="72.6" transform="matrix(-1 -2.372204e-11 2.372204e-11 -1 1892.7974 163.4002)" class="st1" width="58.1" height="18.2"/>
	
		<rect x="917.3" y="54.4" transform="matrix(-1 -2.225077e-11 2.225077e-11 -1 1877.7155 127.0002)" class="st1" width="43" height="18.2"/>
	
		<rect x="917.3" y="36.2" transform="matrix(-1 -1.936374e-11 1.936374e-11 -1 1863.0906 90.6002)" class="st1" width="28.4" height="18.2"/>
	
		<rect x="917.3" y="18" transform="matrix(-1 -1.712998e-11 1.712998e-11 -1 1857.292 54.2002)" class="st1" width="22.6" height="18.2"/>
</g>
<g>
	<rect x="48.9" y="363.8" class="st0" width="109.8" height="18.2"/>
	<rect x="40.8" y="345.6" class="st0" width="117.8" height="18.2"/>
	<rect x="33.8" y="327.4" class="st0" width="124.8" height="18.2"/>
	<rect x="22.5" y="309.2" class="st0" width="136.2" height="18.2"/>
	<rect x="16.3" y="291" class="st0" width="142.3" height="18.2"/>
	<rect x="13" y="272.8" class="st0" width="145.6" height="18.2"/>
	<rect x="19.4" y="254.6" class="st0" width="139.3" height="18.2"/>
	<rect x="27.2" y="236.4" class="st0" width="131.5" height="18.2"/>
	<rect x="47.7" y="218.2" class="st0" width="111" height="18.2"/>
	<rect x="75.8" y="200" class="st0" width="82.8" height="18.2"/>
	<rect x="85.8" y="181.8" class="st0" width="72.8" height="18.2"/>
	<rect x="90.6" y="163.6" class="st0" width="68.1" height="18.2"/>
	<rect x="104.8" y="145.4" class="st0" width="53.8" height="18.2"/>
	<rect x="109.2" y="127.2" class="st0" width="49.4" height="18.2"/>
	<rect x="118.9" y="109" class="st0" width="39.7" height="18.2"/>
	<rect x="123.5" y="90.8" class="st0" width="35.2" height="18.2"/>
	<rect x="127.9" y="72.6" class="st0" width="30.7" height="18.2"/>
	<rect x="137.3" y="54.4" class="st0" width="21.3" height="18.2"/>
	<rect x="146.4" y="36.2" class="st0" width="12.2" height="18.2"/>
	<rect x="150" y="18" class="st0" width="8.6" height="18.2"/>
	
		<rect x="158.6" y="363.8" transform="matrix(-1 -4.897517e-11 4.897517e-11 -1 417.9193 745.8)" class="st1" width="100.7" height="18.2"/>
	
		<rect x="158.6" y="345.6" transform="matrix(-1 -4.897916e-11 4.897916e-11 -1 425.3024 709.4)" class="st1" width="108" height="18.2"/>
	
		<rect x="158.6" y="327.4" transform="matrix(-1 -4.897295e-11 4.897295e-11 -1 431.7417 672.9999)" class="st1" width="114.5" height="18.2"/>
	
		<rect x="158.6" y="309.2" transform="matrix(-1 -4.896895e-11 4.896895e-11 -1 442.1145 636.6)" class="st1" width="124.8" height="18.2"/>
	
		<rect x="158.6" y="291" transform="matrix(-1 -4.797996e-11 4.797996e-11 -1 450.4881 600.2)" class="st1" width="133.2" height="18.2"/>
	
		<rect x="158.6" y="272.8" transform="matrix(-1 -4.790669e-11 4.790669e-11 -1 453.7673 563.8)" class="st1" width="136.5" height="18.2"/>
	
		<rect x="158.6" y="254.6" transform="matrix(-1 -4.804880e-11 4.804880e-11 -1 447.4199 527.4)" class="st1" width="130.2" height="18.2"/>
	
		<rect x="158.6" y="236.4" transform="matrix(-1 -4.002766e-11 4.002766e-11 -1 436.5114 491)" class="st1" width="119.2" height="18.2"/>
	
		<rect x="158.6" y="218.2" transform="matrix(-1 -3.638302e-11 3.638302e-11 -1 427.9579 454.6)" class="st1" width="110.7" height="18.2"/>
	
		<rect x="158.6" y="200" transform="matrix(-1 -3.577328e-11 3.577328e-11 -1 421.2506 418.2001)" class="st1" width="104" height="18.2"/>
	
		<rect x="158.6" y="181.8" transform="matrix(-1 -3.575863e-11 3.575863e-11 -1 413.6639 381.8001)" class="st1" width="96.4" height="18.2"/>
	
		<rect x="158.6" y="163.6" transform="matrix(-1 -3.576129e-11 3.576129e-11 -1 399.1341 345.4001)" class="st1" width="81.9" height="18.2"/>
	
		<rect x="158.6" y="145.4" transform="matrix(-1 -3.577151e-11 3.577151e-11 -1 384.8221 309.0001)" class="st1" width="67.6" height="18.2"/>
	
		<rect x="158.6" y="127.2" transform="matrix(-1 -3.573953e-11 3.573953e-11 -1 379.3348 272.6001)" class="st1" width="62.1" height="18.2"/>
	
		<rect x="158.6" y="109" transform="matrix(-1 -3.575774e-11 3.575774e-11 -1 367.1201 236.2001)" class="st1" width="49.9" height="18.2"/>
	
		<rect x="158.6" y="90.8" transform="matrix(-1 -3.575419e-11 3.575419e-11 -1 361.4266 199.8001)" class="st1" width="44.2" height="18.2"/>
	
		<rect x="158.6" y="72.6" transform="matrix(-1 -4.489354e-11 4.489354e-11 -1 347.9798 163.4)" class="st1" width="30.7" height="18.2"/>
	
		<rect x="158.6" y="54.4" transform="matrix(-1 -4.490331e-11 4.490331e-11 -1 338.5954 127)" class="st1" width="21.3" height="18.2"/>
	
		<rect x="158.6" y="36.2" transform="matrix(-1 -4.492419e-11 4.492419e-11 -1 329.4954 90.6)" class="st1" width="12.2" height="18.2"/>
	
		<rect x="158.6" y="18" transform="matrix(-1 -4.484114e-11 4.484114e-11 -1 325.8874 54.2)" class="st1" width="8.6" height="18.2"/>
</g>
</svg>
