<svg enable-background="new 0 0 256 256" viewBox="0 0 256 256" xmlns="http://www.w3.org/2000/svg"><path d="m3 222.2h123.8v30.3h-123.8z"/><path d="m41.8 183.8h85v30.3h-85z"/><path d="m64.5 145.4h62.3v30.3h-62.3z"/><path d="m93.5 107h33.3v30.3h-33.3z"/><path d="m105.5 68.7h21.3v30.3h-21.3z"/><path d="m124 30.3h2.8v30.3h-2.8z"/><path d="m132 222.2h120v30.3h-120z" transform="matrix(-1 0 0 -1 384 474.664)"/><path d="m132 183.8h90.5v30.3h-90.5z" transform="matrix(-1 0 0 -1 354.5 397.914)"/><path d="m132 145.4h74v30.3h-74z" transform="matrix(-1 0 0 -1 338 321.164)"/><path d="m132 107h62.5v30.3h-62.5z" transform="matrix(-1 -.00000018 .00000018 -1 326.5 244.4141)"/><path d="m132 68.7h41.5v30.3h-41.5z" transform="matrix(-1 0 0 -1 305.5 167.664)"/><path d="m132 30.3h27.5v30.3h-27.5z" transform="matrix(-1 0 0 -1 291.5 90.914)"/></svg>