<?xml version="1.0" encoding="utf-8"?>
<!-- Generator: Adobe Illustrator 22.1.0, SVG Export Plug-In . SVG Version: 6.00 Build 0)  -->
<svg version="1.1" id="Layer_1" xmlns="http://www.w3.org/2000/svg" xmlns:xlink="http://www.w3.org/1999/xlink" x="0px" y="0px"
	 viewBox="0 0 500 500" style="enable-background:new 0 0 500 500;" xml:space="preserve">
<style type="text/css">
	.st0{fill:#EDEDED;stroke:#B2B2B2;stroke-width:2;stroke-miterlimit:10;}
	.st1{fill:none;stroke:#AFAFAF;stroke-width:2;stroke-linecap:round;stroke-miterlimit:10;stroke-dasharray:0,6;}
	.st2{fill:#514361;}
	.st3{font-family:'RobotoMono-Regular';}
	.st4{font-size:23.1927px;}
	.st5{fill:#898989;}
	.st6{font-size:18.0903px;}
	.st7{fill:none;stroke:#BFBFBF;stroke-width:2;stroke-miterlimit:10;}
	.st8{fill:none;stroke:#AFAFAF;stroke-width:2;stroke-linecap:round;stroke-miterlimit:10;}
	.st9{fill:none;stroke:#AFAFAF;stroke-width:2;stroke-linecap:round;stroke-miterlimit:10;stroke-dasharray:0,3.7062;}
	.st10{fill:none;stroke:#AFAFAF;stroke-width:2;stroke-linecap:round;stroke-miterlimit:10;stroke-dasharray:0,5.777;}
	.st11{fill:none;stroke:#BABABA;stroke-width:2;stroke-miterlimit:10;}
	.st12{font-family:'Roboto-Italic';}
	.st13{font-size:13.4519px;}
</style>
<g>
	<rect x="49.3" y="359.6" class="st0" width="52" height="39.9"/>
	<rect x="100.3" y="333.1" class="st0" width="52" height="66.3"/>
	<rect x="152.2" y="278.4" class="st0" width="52" height="121"/>
	<rect x="204.2" y="168" class="st0" width="52" height="231.5"/>
	<rect x="256.2" y="98.5" class="st0" width="52" height="301.1"/>
	<rect x="308.1" y="194" class="st0" width="52" height="205.4"/>
	<line class="st1" x1="334" y1="467.4" x2="334" y2="457.8"/>
	<line class="st1" x1="282.1" y1="97.9" x2="282.1" y2="79.8"/>
	<g>
		<g>
			<text transform="matrix(1 0 0 1 277.5654 493.7148)" class="st2 st3 st4">interval</text>
		</g>
	</g>
	<g>
		<g>
			<text transform="matrix(1 0 0 1 3.2666 19.8403)" class="st2 st3 st4">frequency</text>
		</g>
	</g>
	<g>
		<g>
			<text transform="matrix(1 0 0 1 213.7271 51.4878)" class="st2 st3 st4">bar height</text>
		</g>
	</g>
	<g>
		<g>
			<text transform="matrix(1 0 0 1 94.9365 441.9941)" class="st5 st3 st6">1</text>
		</g>
	</g>
	<g>
		<g>
			<text transform="matrix(1 0 0 1 21.8711 441.9941)" class="st5 st3 st6">0</text>
		</g>
	</g>
	<g>
		<g>
			<text transform="matrix(1 0 0 1 146.8594 441.9941)" class="st5 st3 st6">2</text>
		</g>
	</g>
	<g>
		<g>
			<text transform="matrix(1 0 0 1 13.4707 306.6289)" class="st5 st3 st6">4</text>
		</g>
	</g>
	<g>
		<g>
			<text transform="matrix(1 0 0 1 13.4707 359.5977)" class="st5 st3 st6">2</text>
		</g>
	</g>
	<g>
		<g>
			<text transform="matrix(1 0 0 1 13.4707 248.313)" class="st5 st3 st6">6</text>
		</g>
	</g>
	<g>
		<g>
			<text transform="matrix(1 0 0 1 3.2666 141.3052)" class="st5 st3 st6">10</text>
		</g>
	</g>
	<g>
		<g>
			<text transform="matrix(1 0 0 1 3.2666 84.7153)" class="st5 st3 st6">12</text>
		</g>
	</g>
	<g>
		<g>
			<text transform="matrix(1 0 0 1 13.4707 196.771)" class="st5 st3 st6">8</text>
		</g>
	</g>
	<g>
		<g>
			<text transform="matrix(1 0 0 1 198.8525 441.9941)" class="st5 st3 st6">3</text>
		</g>
	</g>
	<g>
		<g>
			<text transform="matrix(1 0 0 1 352.8701 441.9941)" class="st5 st3 st6">6</text>
		</g>
	</g>
	<g>
		<g>
			<text transform="matrix(1 0 0 1 249.4307 441.9941)" class="st5 st3 st6">4</text>
		</g>
	</g>
	<g>
		<g>
			<text transform="matrix(1 0 0 1 302.3105 441.9941)" class="st5 st3 st6">5</text>
		</g>
	</g>
	<line class="st7" x1="152.2" y1="413.1" x2="152.2" y2="382.5"/>
	<line class="st7" x1="204.2" y1="413.1" x2="204.2" y2="396.3"/>
	<line class="st7" x1="152.2" y1="413.1" x2="152.2" y2="396.3"/>
	<line class="st7" x1="100.3" y1="413.1" x2="100.3" y2="396.3"/>
	<line class="st7" x1="256.2" y1="413.1" x2="256.2" y2="396.3"/>
	<line class="st7" x1="308.1" y1="413.1" x2="308.1" y2="396.3"/>
	<line class="st7" x1="360.1" y1="413.1" x2="360.1" y2="395.2"/>
	<g>
		<g>
			<line class="st8" x1="360.1" y1="451.4" x2="360.1" y2="451.4"/>
			<line class="st9" x1="360.1" y1="455.1" x2="360.1" y2="457"/>
			<line class="st8" x1="360.1" y1="458.8" x2="360.1" y2="458.8"/>
			<line class="st10" x1="354.3" y1="458.8" x2="310.9" y2="458.8"/>
			<line class="st8" x1="308.1" y1="458.8" x2="308.1" y2="458.8"/>
			<line class="st9" x1="308.1" y1="455.1" x2="308.1" y2="453.3"/>
			<line class="st8" x1="308.1" y1="451.4" x2="308.1" y2="451.4"/>
		</g>
	</g>
	<line class="st7" x1="48.3" y1="351.2" x2="37.5" y2="351.2"/>
	<line class="st7" x1="48.3" y1="296.9" x2="37.5" y2="296.9"/>
	<line class="st7" x1="48.3" y1="242.2" x2="37.5" y2="242.2"/>
	<line class="st7" x1="48.3" y1="189.3" x2="37.5" y2="189.3"/>
	<line class="st7" x1="48.3" y1="133.2" x2="37.5" y2="133.2"/>
	<path class="st7" d="M37.5,78"/>
	<line class="st7" x1="48.3" y1="78" x2="37.5" y2="78"/>
	<g>
		<g>
			<polyline class="st11" points="48.2,37.1 48.2,401.8 413.8,401.8 			"/>
		</g>
	</g>
</g>
<g>
	<text transform="matrix(1 0 0 1 181.9976 70.5415)" class="st2 st12 st13">frequency of data points in this bin</text>
</g>
</svg>
