<svg height="600" viewBox="0 0 650 600" width="650" xmlns="http://www.w3.org/2000/svg"><g fill="none"><path d="m323.6 70.1-4 2-4 .7-11.7 5-3.4 5-3.7 1.4-2.6 9.5-2.3 9.2-10.2 2.9-3.1 2.3-3 2.4-5.9 4.5-10.9-.3-2.1 4.5-4.9-3.4-4.3-1.2-4.3-1.1-11.2 1.5-.8 6.5-.4 6.9 4 14.5-4.1-.7-4.6 10.8-4.2-.7-1.9 2.8-4.7-1.2-3.3.9-6.1 7.9-10.1-6.9-.9 4.1-4 .7-9.8-5.4-8.5 6.7-5 .3v4.8l-3.7 1.6-6.5 13.2 1.5 5.5-2.4 2.6-4.2 1.4-5.6.6-4.5 10-3.9 2 1.5 4.9-17.9-4.9 1.7 5.1 3.9 14.1 1.8 4.7-3.5 2.6 1.2 4.3-.3 3.7-8.8 8.7 2.1 4.4-2.2 3.2 4.2 4.7 10.3 5.8 16.2 12.8-2.8 2.7 14.4 4.8 24.4 5.3-1.4 2.3 1.4 7.4-.5 2.4 2.6 2.4 2.4 2.3 1 2.3 3.1 9-2.7 2.6 3 1.9-.9 2.4 3 6.4-1.9 2.8-2.7 3.1-3 3.3-2.6 3.3v7.9l1.5 2.2-1.6 3.3 3 1.6v2.8l.2 8.3 5.3.2.2 2.8 10-2.6-9.7 8.3 4.2 6.5-.6 3.5 4.3.2-3.6 5.7 3.5.6 6.4 4.9v3.4l1.4 2.3 2.7 1.1-3.9 7.4 3.3 8.6 1.5 2.5 2.1 1.9 2.4 1.5-1.4 6.2 7.9 4.1 1.8 2.5 1.9 2.5-1.1 7 8.6 9.5 5.1-2.9-.6 7.7 4.6-2.1 8.5-10.9 9.6-.8-3.3 16-10.5 37.2 5.8-5.4 5-3.8 11.4-2 2.6 3.6 5.4-7.9 1.8 7 5.6-10.6 10.5-4.9 2.5 4.7 3.3-1 3.5-3.5 2.9 1.9h9.3l3.1 3.8 3.2 5.6 3.2-2.7 13.3 4.2 3.5 1.8 3.1-1.7 3.5.7 3.7 1.6 8.7-7.4 2.9-2.1 2.2-4.7 1.1-8.1 10.8-6.1 3.4.6 2.8-1.1 4.3 2.6 10.4-6.9 2-2.9 8.4 9.1 9.7 10.7 5.6 2.7 12.4-.6h4.4l4.3-.4 6.9 3-.8-7.5 15.6 1 2.9-2.7 1.4-4.3-10-16.4 2.6-2.5 4-10.9 3.6-1.5 7.8 2.1-1.2-5.8 3.6-1.7 3.5-10.8 6.2-4.4 7.3.5 1.6-3.4 7.3-8.5-.6-4.6 2.8-2.7 6.4-1 3.8-2.4-3.6-13.8-1.2-4.4 12.1.6-9.4-7.3 1.6-3.3-2.8-12-6-5.2 1.3-3.2-1.2-3.7 7.9-1.6-2.9-11.2-3.8-3.9-1.5-3.5-.2-3.3 12.9-2.4 1.5-10.5-19.8-3.6 3-3.2-4.3-3.1-1.9-3.3 2-9.7 15-5 3.7-4-1.3-3.4-7.6-2.3 32.1-17.6-.6-4 59-19.5-16.1-.8 4-6.2-15-10.3-2.1-4.3-2.2-4.2 6.5-7.8-5.7-2.8-14.1-9-50 20.9-3.6-2.2-3.1-2.4-2.2-2.9 3.7-15.5-12.3 3.8-4.9-.9-6.2.2 2.9-6.6-7.2-7.9 4.5-8.7 10.1-14.3-2.1-3.5-15.2-7.1-3.4-2.1-5.7.6-10.9 7.2-1.9-3.4-10.2-4.5-2.8-2.3-3.6-1.1.7-7.7-4.3-.2-6.4-11.2-3.2-2.1 4.2-16.7-2.2-4.5-1.1-7.4-18.5 11.9-2.4-4.6-7.4 8.7-5.3 3.9-5.8 5.9-10-3.9-4 1.1-5.3 7.4-7.6 19.6-2.2-4.5-9.2-1.5-3.8 5.6-4.1 10 1.2-46.7-3.5-3.5-11.1 3.8-3.6-.3" stroke="#8a8a8a" stroke-dasharray="2079.23 2079.23" stroke-width="2.62"/><circle cx="323.6" cy="304.7" r="168.1" stroke="#ccc" stroke-width="1.31"/><text font-family="Arial" font-size="15.7" stroke="#fff" stroke-linejoin="round" stroke-width="6.54" transform="translate(310.5 142.1)">$16</text></g><text fill="#767676" font-family="Roboto Mono" font-size="13.09" transform="translate(311.8 140.8)">$16</text><circle cx="323.6" cy="304.7" fill="none" r="203.1" stroke="#ccc" stroke-width="1.31"/><text style="font-size:15.7;fill:none;stroke:#fff;stroke-linejoin:round;stroke-width:6.54;font-family:Arial" transform="translate(310.5 107.1)">$18</text><text fill="#767676" font-family="Roboto Mono" font-size="13.09" transform="translate(311.8 105.8)">$18</text><circle cx="323.6" cy="304.7" fill="none" r="232.9" stroke="#ccc" stroke-width="1.31"/><text style="font-size:15.7;fill:none;stroke:#fff;stroke-linejoin:round;stroke-width:6.54;font-family:Arial" transform="translate(310.5 77.3)">$20</text><text fill="#767676" font-family="Roboto Mono" font-size="13.09" transform="translate(311.8 76)">$20</text><circle cx="323.6" cy="304.7" fill="none" r="259.3" stroke="#ccc" stroke-width="1.31"/><text style="font-size:15.7;fill:none;stroke:#fff;stroke-linejoin:round;stroke-width:6.54;font-family:Arial" transform="translate(310.5 50.8)">$22</text><text fill="#767676" font-family="Roboto Mono" font-size="13.09" transform="translate(311.8 49.5)">$22</text><circle cx="323.6" cy="304.7" fill="none" r="283.3" stroke="#ccc" stroke-width="1.31"/><text style="font-size:15.7;fill:none;stroke:#fff;stroke-linejoin:round;stroke-width:6.54;font-family:Arial" transform="translate(310.5 26.9)">$24</text><text fill="#767676" font-family="Roboto Mono" font-size="13.09" transform="translate(311.8 25.6)">$24</text><circle cx="323.6" cy="304.7" fill="none" opacity=".2" r="130.9" stroke="#000" stroke-width="1.31"/><path d="m348.3 176.2-1.2 6.4" fill="none" stroke="#000" stroke-width="1.31"/><text fill="#989898" font-family="Roboto Mono" font-size="13.09" transform="matrix(.98195871 .18909544 -.18909544 .98195871 331.4 202.3)">Aug</text><path d="m410.5 206.9-4.3 4.9" fill="none" stroke="#000" stroke-width="1.31"/><text fill="#989898" font-family="Roboto Mono" font-size="13.09" transform="matrix(.74663818 .66523035 -.66523035 .74663818 382.7 220.7)">Sep</text><path d="m447.6 263-6.2 2" fill="none" stroke="#000" stroke-width="1.31"/><text fill="#989898" font-family="Roboto Mono" font-size="13.09" transform="matrix(.32 .95 -.95 .32 417.05 262.49)">Oct</text><path d="m451.5 332.3-6.4-1.4" fill="none" stroke="#000" stroke-width="1.31"/><text fill="#989898" font-family="Roboto Mono" font-size="13.09" transform="matrix(.2113248 -.97741589 .97741589 .2113248 429.8 339.6)">Nov</text><path d="m420.9 392.2-4.9-4.4" fill="none" stroke="#000" stroke-width="1.31"/><text fill="#989898" font-family="Roboto Mono" font-size="13.09" transform="matrix(.67 -.74 .74 .67 398.51 387.69)">Dec</text><path d="m362.5 429.6-1.9-6.2" fill="none" stroke="#000" stroke-width="1.31"/><text fill="#989898" font-family="Roboto Mono" font-size="13.09" transform="matrix(.9547608 -.29737487 .29737487 .9547608 346.6 414)">Jan</text><path d="m293.2 432 1.5-6.4" fill="none" stroke="#000" stroke-width="1.31"/><text fill="#989898" font-family="Roboto Mono" font-size="13.09" transform="matrix(.97 .23 -.23 .97 286.75 410.26)">Feb</text><path d="m237.4 403.2 4.3-5" fill="none" stroke="#000" stroke-width="1.31"/><text fill="#989898" font-family="Roboto Mono" font-size="13.09" transform="matrix(.75241491 .65868946 -.65868946 .75241491 241.8 381)">Mar</text><path d="m199.2 345.3 6.2-2" fill="none" stroke="#000" stroke-width="1.31"/><text fill="#989898" font-family="Roboto Mono" font-size="13.09" transform="matrix(.31 .95 -.95 .31 214.67 329.57)">Apr</text><path d="m195.4 278.3 6.4 1.3" fill="none" stroke="#000" stroke-width="1.31"/><text fill="#989898" font-family="Roboto Mono" font-size="13.09" transform="matrix(.2027873 -.97922281 .97922281 .2027873 221.1 296.2)">May</text><path d="m226.9 216.5 4.9 4.4" fill="none" stroke="#000" stroke-width="1.31"/><text fill="#989898" font-family="Roboto Mono" font-size="13.09" transform="matrix(.67430239 -.73845534 .73845534 .67430239 241.1 243.7)">Jun</text><path d="m283.4 180.1 2 6.3" fill="none" stroke="#000" stroke-width="1.31"/><text fill="#989898" font-family="Roboto Mono" font-size="13.09" transform="matrix(.9515944 -.30735662 .30735662 .9515944 284.3 210.1)">Jul</text></svg>