<?xml version="1.0" encoding="utf-8"?>
<!-- Generator: Adobe Illustrator 24.0.1, SVG Export Plug-In . SVG Version: 6.00 Build 0)  -->
<svg version="1.1" id="Layer_1" xmlns="http://www.w3.org/2000/svg" xmlns:xlink="http://www.w3.org/1999/xlink" x="0px" y="0px"
	 viewBox="0 0 1268 418" style="enable-background:new 0 0 1268 418;" xml:space="preserve">
<style type="text/css">
	.st0{fill:none;stroke:#A39CB9;stroke-width:2.0449;stroke-dasharray:1493.7959,1493.7959;}
	.st1{fill:none;stroke:#CCCCCC;stroke-width:0.9412;}
	.st2{fill:none;stroke:#FFFFFF;stroke-width:4.6986;stroke-linejoin:round;}
	.st3{font-family:'ArialMT';}
	.st4{font-size:11.2795px;}
	.st5{fill:#CCCCCC;}
	.st6{font-family:'RobotoMono-Regular';}
	.st7{font-size:9.4043px;}
	.st8{opacity:0.2;fill:none;stroke:#000000;stroke-width:0.9412;enable-background:new    ;}
	.st9{font-size:9.4274px;}
	.st10{font-size:9.3879px;}
	.st11{font-size:9.3751px;}
	.st12{font-size:9.3978px;}
</style>
<g>
	<g>
		<path class="st0" d="M367.2,42.8l-2.9,1.4l-2.9,0.5l-8.4,3.6l-2.4,3.6l-2.7,1l-1.9,6.8l-1.7,6.6l-7.3,2.1l-2.2,1.7l-2.2,1.7
			l-4.2,3.2l-7.8-0.2l-1.5,3.2l-3.5-2.4l-3.1-0.9l-3.1-0.8l-8,1.1l-0.6,4.7l-0.3,5l2.9,10.4l-2.9-0.5l-3.3,7.8l-3-0.5l-1.4,2
			l-3.4-0.9l-2.4,0.6l-4.4,5.7l-7.3-5l-0.6,2.9l-2.9,0.5l-7-3.9l-6.1,4.8l-3.6,0.2v3.4l-2.7,1.1l-4.7,9.5l1.1,4l-1.7,1.9l-3,1
			l-4,0.4l-3.2,7.2l-2.8,1.4l1.1,3.5l-12.9-3.5l1.2,3.7l2.8,10.1l1.3,3.4l-2.5,1.9l0.9,3.1l-0.2,2.7l-6.3,6.3l1.5,3.2l-1.6,2.3
			l3,3.4l7.4,4.2l11.6,9.2l-2,1.9l10.3,3.4l17.5,3.8l-1,1.7l1,5.3l-0.4,1.7l1.9,1.7l1.7,1.7l0.7,1.7l2.2,6.5l-1.9,1.9l2.2,1.4
			l-0.6,1.7l2.2,4.6l-1.4,2l-1.9,2.2l-2.2,2.4l-1.9,2.4v5.7l1.1,1.6l-1.1,2.4l2.2,1.1v2l0.1,6l3.8,0.1l0.1,2l7.2-1.9l-7,6l3,4.7
			l-0.4,2.5l3.1,0.1l-2.6,4.1l2.5,0.4l4.6,3.5v2.4l1,1.7l1.9,0.8l-2.8,5.3l2.4,6.2l1.1,1.8l1.5,1.4l1.7,1.1l-1,4.5l5.7,2.9l1.3,1.8
			l1.4,1.8l-0.8,5l6.2,6.8l3.7-2.1l-0.4,5.5l3.3-1.5l6.1-7.8l6.9-0.6l-2.4,11.5l-7.5,26.7l4.2-3.9l3.6-2.7l8.2-1.4l1.9,2.6l3.9-5.7
			l1.3,5l4-7.6l7.5-3.5l1.8,3.4l2.4-0.7l2.5-2.5l2.1,1.4h6.7l2.2,2.7l2.3,4l2.3-1.9l9.6,3l2.5,1.3l2.2-1.2l2.5,0.5l2.7,1.1l6.3-5.3
			l2.1-1.5l1.6-3.4l0.8-5.8l7.8-4.4l2.4,0.4l2-0.8l3.1,1.9l7.5-5l1.4-2.1l6,6.5l7,7.7l4,1.9l8.9-0.4h3.2l3.1-0.3l5,2.2l-0.6-5.4
			l11.2,0.7l2.1-1.9l1-3.1l-7.2-11.8l1.9-1.8l2.9-7.8l2.6-1.1l5.6,1.5l-0.9-4.2l2.6-1.2l2.5-7.8l4.5-3.2l5.2,0.4l1.1-2.4l5.2-6.1
			l-0.4-3.3l2-1.9l4.6-0.7l2.7-1.7l-2.6-9.9l-0.9-3.2l8.7,0.4l-6.8-5.2l1.1-2.4l-2-8.6l-4.3-3.7l0.9-2.3l-0.9-2.7l5.7-1.1l-2.1-8
			l-2.7-2.8l-1.1-2.5l-0.1-2.4l9.3-1.7l1.1-7.5l-14.2-2.6l2.2-2.3l-3.1-2.2l-1.4-2.4l1.4-7l10.8-3.6l2.7-2.9l-0.9-2.4l-5.5-1.7
			l23.1-12.6l-0.4-2.9l42.4-14l-11.6-0.6l2.9-4.5l-10.8-7.4l-1.5-3.1l-1.6-3l4.7-5.6l-4.1-2l-10.1-6.5l-35.9,15l-2.6-1.6l-2.2-1.7
			l-1.6-2.1l2.7-11.1l-8.8,2.7l-3.5-0.6l-4.5,0.1l2.1-4.7l-5.2-5.7l3.2-6.3l7.3-10.3l-1.5-2.5l-10.9-5.1l-2.4-1.5l-4.1,0.4l-7.8,5.2
			l-1.4-2.4l-7.3-3.2l-2-1.7l-2.6-0.8l0.5-5.5l-3.1-0.1l-4.6-8l-2.3-1.5l3-12l-1.6-3.2l-0.8-5.3l-13.3,8.5l-1.7-3.3l-5.3,6.3
			l-3.8,2.8l-4.2,4.2l-7.2-2.8l-2.9,0.8l-3.8,5.3l-5.5,14.1l-1.6-3.2l-6.6-1.1l-2.7,4l-2.9,7.2l0.9-33.6l-2.5-2.5l-8,2.7l-2.6-0.2"
			/>
		<circle class="st1" cx="367.2" cy="211.4" r="120.8"/>
		<text transform="matrix(1 0 0 1 357.813 94.5415)" class="st2 st3 st4">$16</text>
	</g>
	<text transform="matrix(1 0 0 1 358.7461 93.6084)" class="st5 st6 st7">$16</text>
	<circle class="st1" cx="367.2" cy="211.4" r="145.9"/>
	<text transform="matrix(1 0 0 1 357.813 69.396)" class="st2 st3 st4">$18</text>
	<text transform="matrix(1 0 0 1 358.7461 68.4624)" class="st5 st6 st7">$18</text>
	<circle class="st1" cx="367.2" cy="211.4" r="167.3"/>
	<text transform="matrix(1 0 0 1 357.813 47.9868)" class="st2 st3 st4">$20</text>
	<text transform="matrix(1 0 0 1 358.7461 47.0527)" class="st5 st6 st7">$20</text>
	<circle class="st1" cx="367.2" cy="211.4" r="186.3"/>
	<text transform="matrix(1 0 0 1 357.813 28.9482)" class="st2 st3 st4">$22</text>
	<text transform="matrix(1 0 0 1 358.7461 28.0142)" class="st5 st6 st7">$22</text>
	<circle class="st1" cx="367.2" cy="211.4" r="203.5"/>
	<text transform="matrix(1 0 0 1 357.813 11.7783)" class="st2 st3 st4">$24</text>
	<text transform="matrix(1 0 0 1 358.7461 10.8438)" class="st5 st6 st7">$24</text>
	<circle class="st8" cx="367.2" cy="211.4" r="94"/>
	<path class="st1" d="M385,119l-0.9,4.6"/>
	<text transform="matrix(0.982 0.1891 -0.1891 0.982 372.8279 137.7916)" class="st5 st6 st7">Aug</text>
	<path class="st1" d="M429.7,141.1l-3.1,3.5"/>
	<text transform="matrix(0.7466 0.6652 -0.6652 0.7466 409.6866 151.0131)" class="st5 st6 st7">Sep</text>
	<path class="st1" d="M456.3,181.4l-4.5,1.4"/>
	<text transform="matrix(0.3192 0.9477 -0.9477 0.3192 434.3631 181.0345)" class="st5 st6 st9">Oct</text>
	<path class="st1" d="M459.1,231.2l-4.6-1"/>
	<text transform="matrix(0.2113 -0.9774 0.9774 0.2113 443.5237 236.434)" class="st5 st6 st7">Nov</text>
	<path class="st1" d="M437.1,274.2l-3.5-3.2"/>
	<text transform="matrix(0.6712 -0.7413 0.7413 0.6712 421.042 270.9821)" class="st5 st6 st10">Dec</text>
	<path class="st1" d="M395.2,301.1l-1.4-4.5"/>
	<text transform="matrix(0.9548 -0.2974 0.2974 0.9548 383.7477 289.8851)" class="st5 st6 st7">Jan</text>
	<path class="st1" d="M345.4,302.8l1.1-4.6"/>
	<text transform="matrix(0.973 0.2307 -0.2307 0.973 340.7507 287.1976)" class="st5 st6 st11">Feb</text>
	<path class="st1" d="M305.3,282.1l3.1-3.6"/>
	<text transform="matrix(0.7524 0.6587 -0.6587 0.7524 308.4566 266.1772)" class="st5 st6 st7">Mar</text>
	<path class="st1" d="M277.9,240.5l4.5-1.4"/>
	<text transform="matrix(0.3102 0.9507 -0.9507 0.3102 288.9667 229.2271)" class="st5 st6 st12">Apr</text>
	<path class="st1" d="M275.1,192.4l4.6,0.9"/>
	<text transform="matrix(0.2028 -0.9792 0.9792 0.2028 293.5852 205.2538)" class="st5 st6 st7">May</text>
	<path class="st1" d="M297.8,148l3.5,3.2"/>
	<text transform="matrix(0.6743 -0.7385 0.7385 0.6743 307.9544 167.5365)" class="st5 st6 st7">Jun</text>
	<path class="st1" d="M338.3,121.8l1.4,4.5"/>
	<text transform="matrix(0.9516 -0.3074 0.3074 0.9516 338.99 143.3976)" class="st5 st6 st7">Jul</text>
</g>
<g>
	<g>
		<path class="st0" d="M906.1,42.8l-2.9,1.4l-2.9,0.5l-8.4,3.6l-2.4,3.6l-2.7,1l-1.9,6.8l-1.7,6.6l-7.3,2.1l-2.2,1.7l-2.2,1.7
			l-4.2,3.2l-7.8-0.2l-1.5,3.2l-3.5-2.4l-3.1-0.9l-3.1-0.8l-8,1.1l-0.6,4.7l-0.3,5l2.9,10.4l-2.9-0.5l-3.3,7.8l-3-0.5l-1.4,2
			l-3.4-0.9l-2.4,0.6l-4.4,5.7l-7.3-5l-0.6,2.9l-2.9,0.5l-7-3.9l-6.1,4.8L794,109v3.4l-2.7,1.1l-4.7,9.5l1.1,4l-1.7,1.9l-3,1l-4,0.4
			l-3.2,7.2l-2.8,1.4l1.1,3.5l-12.9-3.5l1.2,3.7l2.8,10.1l1.3,3.4L764,158l0.9,3.1l-0.2,2.7l-6.3,6.3l1.5,3.2l-1.6,2.3l3,3.4
			l7.4,4.2l11.6,9.2l-2,1.9l10.3,3.4l17.5,3.8l-1,1.7l1,5.3l-0.4,1.7l1.9,1.7l1.7,1.7l0.7,1.7l2.2,6.5l-1.9,1.9l2.2,1.4l-0.6,1.7
			l2.2,4.6l-1.4,2l-1.9,2.2l-2.2,2.4l-1.9,2.4v5.7l1.1,1.6l-1.1,2.4l2.2,1.1v2l0.1,6l3.8,0.1l0.1,2l7.2-1.9l-7,6l3,4.7l-0.4,2.5
			l3.1,0.1l-2.6,4.1l2.5,0.4l4.6,3.5v2.4l1,1.7l1.9,0.8l-2.8,5.3l2.4,6.2l1.1,1.8l1.5,1.4l1.7,1.1l-1,4.5l5.7,2.9l1.3,1.8l1.4,1.8
			l-0.8,5l6.2,6.8l3.7-2.1l-0.4,5.5l3.3-1.5l6.1-7.8l6.9-0.6L860,329l-7.5,26.7l4.2-3.9l3.6-2.7l8.2-1.4l1.9,2.6l3.9-5.7l1.3,5
			l4-7.6l7.5-3.5l1.8,3.4l2.4-0.7l2.5-2.5l2.1,1.4h6.7l2.2,2.7l2.3,4l2.3-1.9l9.6,3l2.5,1.3l2.2-1.2l2.5,0.5l2.7,1.1l6.3-5.3
			l2.1-1.5l1.6-3.4l0.8-5.8l7.8-4.4l2.4,0.4l2-0.8l3.1,1.9l7.5-5l1.4-2.1l6,6.5l7,7.7l4,1.9l8.9-0.4h3.2l3.1-0.3l5,2.2l-0.6-5.4
			l11.2,0.7l2.1-1.9l1-3.1l-7.2-11.8l1.9-1.8l2.9-7.8l2.6-1.1l5.6,1.5l-0.9-4.2l2.6-1.2l2.5-7.8l4.5-3.2l5.2,0.4l1.1-2.4l5.2-6.1
			l-0.4-3.3l2-1.9l4.6-0.7l2.7-1.7l-2.6-9.9l-0.9-3.2l8.7,0.4l-6.8-5.2l1.1-2.4l-2-8.6l-4.3-3.7l0.9-2.3l-0.9-2.7l5.7-1.1l-2.1-8
			l-2.7-2.8l-1.1-2.5l-0.1-2.4l9.3-1.7l1.1-7.5l-14.2-2.6l2.2-2.3l-3.1-2.2l-1.4-2.4l1.4-7l10.8-3.6l2.7-2.9l-0.9-2.4l-5.5-1.7
			l23.1-12.6l-0.4-2.9l42.4-14l-11.6-0.6l2.9-4.5l-10.8-7.4l-1.5-3.1l-1.6-3l4.7-5.6l-4.1-2l-10.1-6.5l-35.9,15l-2.6-1.6l-2.2-1.7
			l-1.6-2.1l2.7-11.1l-8.8,2.7l-3.5-0.6l-4.5,0.1l2.1-4.7l-5.2-5.7l3.2-6.3l7.3-10.3l-1.5-2.5l-10.9-5.1l-2.4-1.5l-4.1,0.4l-7.8,5.2
			l-1.4-2.4l-7.3-3.2l-2-1.7l-2.6-0.8l0.5-5.5l-3.1-0.1l-4.6-8l-2.3-1.5l3-12l-1.6-3.2l-0.8-5.3l-13.3,8.5l-1.7-3.3l-5.3,6.3
			l-3.8,2.8l-4.2,4.2l-7.2-2.8l-2.9,0.8l-3.8,5.3l-5.5,14.1l-1.6-3.2l-6.6-1.1l-2.7,4l-2.9,7.2l0.9-33.6l-2.5-2.5l-8,2.7l-2.6-0.2"
			/>
		<circle class="st1" cx="906.1" cy="211.4" r="120.8"/>
		<text transform="matrix(1 0 0 1 896.6572 94.5415)" class="st2 st3 st4">$16</text>
	</g>
	<text transform="matrix(1 0 0 1 897.5898 93.6084)" class="st5 st6 st7">$16</text>
	<circle class="st1" cx="906.1" cy="211.4" r="145.9"/>
	<text transform="matrix(1 0 0 1 896.6572 69.396)" class="st2 st3 st4">$18</text>
	<text transform="matrix(1 0 0 1 897.5898 68.4624)" class="st5 st6 st7">$18</text>
	<circle class="st1" cx="906.1" cy="211.4" r="167.3"/>
	<text transform="matrix(1 0 0 1 896.6572 47.9868)" class="st2 st3 st4">$20</text>
	<text transform="matrix(1 0 0 1 897.5898 47.0527)" class="st5 st6 st7">$20</text>
	<circle class="st1" cx="906.1" cy="211.4" r="186.3"/>
	<text transform="matrix(1 0 0 1 896.6572 28.9482)" class="st2 st3 st4">$22</text>
	<text transform="matrix(1 0 0 1 897.5898 28.0142)" class="st5 st6 st7">$22</text>
	<circle class="st1" cx="906.1" cy="211.4" r="203.5"/>
	<text transform="matrix(1 0 0 1 896.6572 11.7783)" class="st2 st3 st4">$24</text>
	<text transform="matrix(1 0 0 1 897.5898 10.8438)" class="st5 st6 st7">$24</text>
	<circle class="st8" cx="906.1" cy="211.4" r="94"/>
	<path class="st1" d="M923.8,119l-0.9,4.6"/>
	<text transform="matrix(0.982 0.1891 -0.1891 0.982 911.6724 137.7915)" class="st5 st6 st7">Aug</text>
	<path class="st1" d="M968.5,141.1l-3.1,3.5"/>
	<text transform="matrix(0.7466 0.6652 -0.6652 0.7466 948.5304 151.013)" class="st5 st6 st7">Sep</text>
	<path class="st1" d="M995.2,181.4l-4.5,1.4"/>
	<text transform="matrix(0.3192 0.9477 -0.9477 0.3192 973.2074 181.035)" class="st5 st6 st9">Oct</text>
	<path class="st1" d="M998,231.2l-4.6-1"/>
	<text transform="matrix(0.2113 -0.9774 0.9774 0.2113 982.3679 236.434)" class="st5 st6 st7">Nov</text>
	<path class="st1" d="M976,274.2l-3.5-3.2"/>
	<text transform="matrix(0.6712 -0.7413 0.7413 0.6712 959.886 270.9823)" class="st5 st6 st10">Dec</text>
	<path class="st1" d="M934,301.1l-1.4-4.5"/>
	<text transform="matrix(0.9548 -0.2974 0.2974 0.9548 922.5913 289.8848)" class="st5 st6 st7">Jan</text>
	<path class="st1" d="M884.2,302.8l1.1-4.6"/>
	<text transform="matrix(0.973 0.2307 -0.2307 0.973 879.5938 287.1972)" class="st5 st6 st11">Feb</text>
	<path class="st1" d="M844.1,282.1l3.1-3.6"/>
	<text transform="matrix(0.7524 0.6587 -0.6587 0.7524 847.3008 266.1775)" class="st5 st6 st7">Mar</text>
	<path class="st1" d="M816.7,240.5l4.5-1.4"/>
	<text transform="matrix(0.3102 0.9507 -0.9507 0.3102 827.8107 229.2276)" class="st5 st6 st12">Apr</text>
	<path class="st1" d="M814,192.4l4.6,0.9"/>
	<text transform="matrix(0.2028 -0.9792 0.9792 0.2028 832.4304 205.2537)" class="st5 st6 st7">May</text>
	<path class="st1" d="M836.6,148l3.5,3.2"/>
	<text transform="matrix(0.6743 -0.7385 0.7385 0.6743 846.7983 167.5365)" class="st5 st6 st7">Jun</text>
	<path class="st1" d="M877.2,121.8l1.4,4.5"/>
	<text transform="matrix(0.9516 -0.3074 0.3074 0.9516 877.8338 143.3976)" class="st5 st6 st7">Jul</text>
</g>
</svg>
