<svg height="256" viewBox="0 0 256 256" width="256" xmlns="http://www.w3.org/2000/svg"><path d="m128.5 65.8a59.7 59.7 0 1 0 59.7 59.7 59.8 59.8 0 0 0 -59.7-59.7zm0 118.4a58.7 58.7 0 1 1 58.7-58.7 58.7 58.7 0 0 1 -58.7 58.7zm0-177.7a119 119 0 1 0 119 119 119.2 119.2 0 0 0 -119-119zm0 237a118 118 0 1 1 118-118 118.1 118.1 0 0 1 -118 118zm107.5-133.2-3-1.6a52.6 52.6 0 0 0 -20.1-5.6l-.6-2.1 1.4-.5-1.9-1.3-.9-2.4a6.2 6.2 0 0 0 .8-5.1 6.1 6.1 0 0 0 -4.5-4l-.3-.7 2.5-5.5-5.6-.2-.2-.3 2.3-4.1-3.3-.8a3.7 3.7 0 0 0 .1-1.1 2.7 2.7 0 0 0 -.5-1.5l1.6-1.3-1.2-1.6a8.1 8.1 0 0 1 -2.7 1.5l.6-1.2-1.3-.3a12.7 12.7 0 0 1 -4.5-1.9l-4.1-4.5a12.1 12.1 0 0 1 -1.5-4.4l-.2-1.1-3.5.7-.3-.3a41.1 41.1 0 0 0 6.3-14.4l.5-2-18 8.3-2.7-1.6.5-4.6-4.8 2.3-4.2-1.9a6.6 6.6 0 0 1 -.1-1.4v-1.7l-3.4 1.7-4.5-1.6-.5-3.8-1.3.9-2.9 1.6q-3.6-.9-7.2-1.5a1.4 1.4 0 0 1 -.1-.9l.2-3-2 2.2a6.5 6.5 0 0 1 -1.1 1.2l-4.8-.5v-2.2l-2 2.1h-2.9l-6.5-13.9-.8 2.6c-.3 1.1-.6 2.5-.9 4a51.2 51.2 0 0 1 -2 7.7h-1.3c-2.3-4.4-6.7-8-12.4-7.2l-1.3.2a5.8 5.8 0 0 1 -3.7 0l-.4-.3-.5.2a36.7 36.7 0 0 0 -17.9 16.9 3 3 0 0 0 -.4.8 15.2 15.2 0 0 1 -2 3.3c-1.9 2-4.7 2.7-7.7 3.4l-2 .5c-4 1.1-8.3 3.7-8.4 8a15.7 15.7 0 0 0 .5 3c.1.3.1.5.2.8a89.2 89.2 0 0 0 -7 9.2l-.7.3-2.3.7c-3.7 1.1-7.6 2.3-10 5.5a16.1 16.1 0 0 0 -1.9 3.1l-4.7 9.3v.2a33.4 33.4 0 0 1 -4.3 15.2l-2.1 3.9 3.4-2.4a1.8 1.8 0 0 1 .2 1.3l-2.2 13.5a6.8 6.8 0 0 0 .3 4.8 14.7 14.7 0 0 0 1 1.3 4.2 4.2 0 0 1 .8 1.2 4.7 4.7 0 0 1 -.4 3c-.5 1.5-1 3.2 0 4.8a4.7 4.7 0 0 0 1.8 1.4l1.1.8a4.3 4.3 0 0 1 .6 2.1c.1.3.1.6.2.9.9 4.3 4.8 7 8.6 9.1a12.1 12.1 0 0 1 -5 11.1l-.8.5.5.8c2.1 3.8 6.5 4.8 10.5 5.6l2.2.5c2.9.8 5.7 2.8 6.7 5a3.4 3.4 0 0 1 0 3.1l-.9 1.8 1.9-.4a6.5 6.5 0 0 1 2.4.2 8.1 8.1 0 0 1 -.1 2.2l-.2.6.5.4a47.3 47.3 0 0 0 8.8 5.4 44.4 44.4 0 0 1 6.7 3.8c6.8 4.6 10.9 12.3 10.5 19.6v.9h1c4.9.5 9.6-1.3 14.2-3s9.9-3.7 14.7-2.5l1.1.3a7.3 7.3 0 0 0 4.2.5l1.4-.4a4.4 4.4 0 0 1 1.5-.5c.3 0 .7.4.7.4l-3.5 4.9 4.9-3.5 3.7-2.2h1.9l1.3 3 1-.5a27.6 27.6 0 0 0 3.9-2.8l1 9 1.1-7.6a3.3 3.3 0 0 1 1.7-2.3l6.1-1.4a20.9 20.9 0 0 0 4.3-.4 15.1 15.1 0 0 0 5.5-2.8 78.4 78.4 0 0 0 13.3-6.6h.5c2.2.1 4.5.2 6.5-1.2a10.5 10.5 0 0 0 2.3-2.4 6.8 6.8 0 0 1 2.3-2.2 7.5 7.5 0 0 1 3.7-.3c2.2.1 4.6.3 5.8-1.9s.3-3.5-.3-5a8.6 8.6 0 0 1 -.7-2.5 4 4 0 0 1 .3-1.5l3-3.6c1.5-1.5 3.1-3 3.6-5a82.4 82.4 0 0 0 5.4-9 5.6 5.6 0 0 0 1.9-3.6v-.2c1.1-2.4 2-4.7 2.9-7.2a15 15 0 0 1 3.9-.8h1.4c3.5-.1 7.4-.2 9.8-3.1s1.8-6.5 1.2-10.1c-.2-1.2-.4-2.5-.5-3.8a13.9 13.9 0 0 1 1.2-6.3l1.5-2.7c1.3-2.1 2.6-4.3 2.7-6.9v-1h-1.1c-5.5.4-12.3-1.5-15.9-6.4a117.5 117.5 0 0 1 17.6-2.9zm-23.5 3a14.6 14.6 0 0 0 1.7 2.4 79.3 79.3 0 0 1 .6 9.8 83.7 83.7 0 0 1 -4.4 27.1c-2.8 1.1-5 3.1-5 6l.3 1.7a10 10 0 0 1 .2 1.6c-.1 1.5-1.4 2.5-3 3.7s-3.3 2.5-3.8 4.6a7.1 7.1 0 0 0 -.2 2 6.1 6.1 0 0 1 -.1 1.4c-.2 1.7-1.7 3.1-3.3 4.6s-3.6 3.5-3.8 6a87.9 87.9 0 0 1 -16.9 14.1h-4.2c-3.5.5-6.3 2.8-8.9 4.9s-4.7 3.8-7.4 4.4a16.1 16.1 0 0 1 -3.9.4l-3.4.2a9 9 0 0 0 -4.6 2.2l-.2-2.5-1.5 1.6-1.9 1.7-2.7.3-.9-2.1-.9.3a27.4 27.4 0 0 0 -4.2 2.1h-1.7a3.1 3.1 0 0 0 -1.8-.7 10.5 10.5 0 0 0 -2.1.6l-5.7-.4a12.6 12.6 0 0 0 -3.3-.5 86.4 86.4 0 0 1 -73.3-85.3 85.4 85.4 0 0 1 13.2-45.8h.2c4.7-1.6 9.5-5.1 9.2-10.2a6.8 6.8 0 0 0 -.3-1.9 94.6 94.6 0 0 1 11.4-10.5 11.6 11.6 0 0 0 5.5-3.1l1.1-1.5a85.1 85.1 0 0 1 34.7-12.5 18.6 18.6 0 0 1 1 2.5l.4 1.5 1.2-1.1a9.5 9.5 0 0 0 2.2-3.4c2.1-.2 4.3-.3 6.5-.3h.1l2.2 4.7 2.9-3.1a1 1 0 0 0 .5.6 4.2 4.2 0 0 0 3.7.9 6.7 6.7 0 0 0 3.3-1.8l.8 1.3a6.9 6.9 0 0 0 4.7 2 11.6 11.6 0 0 0 4.9-1.4l1.2.3.8 6.3 7-3.6h.1a11.2 11.2 0 0 0 1.8 5l.5.8 5-2.4 1.2.6-.8 6.3 6.4-3a81.3 81.3 0 0 1 8.2 5.9l-1.3 1.7-1.7 2.1 6.1-1.1 1.7 1.6a15.9 15.9 0 0 0 8 8.7l1.2 1.5-.9 1.7 1.9-.2h.1l1.3 1.8-1.8.7 2.7.7 1.5 2.3-1.7 3.2h3.6l1.5 2.6-1.8 4.1 1.9-.4a3.3 3.3 0 0 1 1.7.1q1.4 2.8 2.4 5.7a4.6 4.6 0 0 1 -1.7 1.7l-1.7.7 3.7 2.4a6.5 6.5 0 0 0 -2.2 3.6l-.3 1.2h5.1c.6 2.2 1 4.4 1.4 6.6l-.6.2-1.3.3zm-8.5 53.9c-1 1.8-2 3.5-3.1 5.2v-.2a8.6 8.6 0 0 1 .1-1.6c.3-1.3 1.6-2.3 3-3.4zm-32.5 33.1a76.8 76.8 0 0 1 -8.1 4.1c2.4-1.9 4.7-3.7 7.5-4.1zm38.4-97.3a5.4 5.4 0 0 1 1.5-1.5c.1.5.3 1 .4 1.6zm.5-4.7-.5-.3.3-.3c.1.2.1.4.2.6zm-.6-6a2.9 2.9 0 0 1 .1 1.6c-.5-1.1-.9-2.3-1.5-3.5a3.3 3.3 0 0 1 1.4 1.9zm-3.5-8.9-.6 1.4-.8-1.5zm-3.5-5.2-.4.8-.7-1zm-3.1-4 .6.2a.7.7 0 0 1 .4.7.8.8 0 0 1 -.3.7h-.1l-1.1-1.5zm-10.7-27.9a38.1 38.1 0 0 1 -5.5 11.5 70.9 70.9 0 0 0 -7.6-5.6zm-16.2 5.2-2 .9.3-1.9zm-3.5-3.4v.2zm-3.6-.5-2 1a9.7 9.7 0 0 1 -.8-2.2zm-7.6-3.2-2.9 1.5-.3-2.6zm-11.4-2.6a4.7 4.7 0 0 1 -3-1.2c1.6.2 3.1.6 4.7.9a5.1 5.1 0 0 1 -1.7.3zm-9.2-1.4a2.9 2.9 0 0 1 -2-.5l-.3-.4 3.6.3a3.1 3.1 0 0 1 -1.3.6zm-5.1-1.1-1.1 1.1-.5-1.1zm-8.3-8c.1-.4.1-.7.2-1.1l3.8 8-5.8.2a52.7 52.7 0 0 0 1.8-7.1zm-4.4 8.3-.3.5c0-.1-.1-.3-.1-.4zm-35.5 9.8a35.1 35.1 0 0 1 16.7-15.8 7.2 7.2 0 0 0 4.6.1l1.1-.2c4.5-.6 8 2.1 10 5.5a86.2 86.2 0 0 0 -33.1 11.7l.3-.5zm-20.3 15.1c.1-3.1 3.8-5.2 6.9-6.1l2-.5h.7a95.7 95.7 0 0 0 -9.3 8.7 6.9 6.9 0 0 1 -.3-2.1zm-1.1 5.1c.2 3.1-2.5 5.5-5.5 7.1 1.7-2.4 3.6-4.8 5.5-7.1zm-24.4 78.4a2.4 2.4 0 0 1 -.2-.8 6.5 6.5 0 0 0 -1.1-3.1 8.3 8.3 0 0 0 -1.6-1.2c-.5-.3-.9-.5-1.1-.9s-.2-1.6.2-3a5.8 5.8 0 0 0 .4-4.3 8.1 8.1 0 0 0 -1.2-1.8 3 3 0 0 1 -.7-1 5.7 5.7 0 0 1 -.2-3.5l2.3-13.5a3.7 3.7 0 0 0 -1.1-3.3 34.6 34.6 0 0 0 3.9-14.7l4.5-8.9a13.1 13.1 0 0 1 1.7-2.8c2-2.7 5.6-3.7 9-4.8l.7-.2a86.2 86.2 0 0 0 -12.7 45.3 87.6 87.6 0 0 0 5.6 30.8l-.4-.3c-3.6-2-7.3-4.3-8-8zm14.5 26.1-2.3-.5c-3.4-.8-6.9-1.5-8.7-3.9a14 14 0 0 0 5-13v-.4a85.4 85.4 0 0 0 10.7 20 12.3 12.3 0 0 0 -4.7-2.2zm8.5 9.4a6.5 6.5 0 0 0 -.1-2.4l2.5 3a5.3 5.3 0 0 0 -2.4-.6zm3 4.3a7.6 7.6 0 0 0 0-3v-.2a82.4 82.4 0 0 0 8.6 8.1l-.5-.2a48.1 48.1 0 0 1 -8.1-4.7zm38.7 26.1c-4.1 1.5-8.3 3.1-12.4 2.9a24.6 24.6 0 0 0 -6.5-16.1 90 90 0 0 0 27.4 10.5 44.1 44.1 0 0 0 -8.5 2.7zm33.6-1.1-.2-.4h.7a1 1 0 0 0 -.5.4zm42.7-15.4a5.7 5.7 0 0 1 -2.7.8c1.9-1.2 3.7-2.5 5.5-3.9l-.9 1.1a9.1 9.1 0 0 1 -1.9 2zm13.1-9.5c.6 1.5.9 2.5.5 3.3s-1.9 1-4 .9a9.9 9.9 0 0 0 -4.5.4h-.2a98.7 98.7 0 0 0 7.5-7 8.8 8.8 0 0 0 .7 2.4zm15.2-28-.3-1.4a3.8 3.8 0 0 1 2.1-3.2zm22.2-37.9a16.1 16.1 0 0 1 -2.3 4.8c-.5.9-1.1 1.8-1.6 2.8a14.4 14.4 0 0 0 -1.4 7.4c.1 1.3.3 2.6.5 4 .6 3.2 1.1 6.3-.7 8.5s-5.1 2.2-8.4 2.3h-1.3a10.6 10.6 0 0 0 -3.1.5 88.4 88.4 0 0 0 4.2-26.8 81.2 81.2 0 0 0 -.4-8.6 20.9 20.9 0 0 0 14.5 5.1zm-15.2-10.5c-.4-2.1-.8-4.3-1.3-6.3a48.4 48.4 0 0 1 15.4 3.8 112.5 112.5 0 0 0 -14.1 2.5z"/></svg>