<svg height="256" viewBox="0 0 256 256" width="256" xmlns="http://www.w3.org/2000/svg"><path d="m75 234.6c0 9.5-8.6 17.2-19.2 17.2a19.7 19.7 0 0 1 -16.8-8.9 19.7 19.7 0 0 1 -16.8 8.9c-10.6 0-19.2-7.7-19.2-17.2s8.6-17.2 19.2-17.2h.3a20.2 20.2 0 0 1 4.2-8.7 21.3 21.3 0 0 1 -4.7-13.5 20.9 20.9 0 0 1 6.2-15.2 20.9 20.9 0 0 1 -6.2-15.2c0-10.9 7.7-19.7 17.2-19.7s17.3 8.8 17.3 19.7a21 21 0 0 1 -6.3 15.2 21 21 0 0 1 6.3 15.2 20.8 20.8 0 0 1 -4.8 13.5 20.2 20.2 0 0 1 4.2 8.7c10.6.1 19.1 7.7 19.1 17.2zm33-29.8a19.5 19.5 0 0 0 17.1 10.5c10.7 0 19.5-9.1 19.5-20.3s-8.7-20.2-19.4-20.3a25.1 25.1 0 0 0 -4.3-10.3 27.4 27.4 0 0 0 4.9-16c0-7.2-2.5-13.7-6.4-17.9 3.9-4.3 6.4-10.7 6.4-18a27.8 27.8 0 0 0 -4.5-15.5 27.5 27.5 0 0 0 4.5-15.5c0-12.8-7.9-23.3-17.6-23.3s-17.5 10.5-17.5 23.3a27.5 27.5 0 0 0 4.5 15.5 27.8 27.8 0 0 0 -4.5 15.5c0 7.3 2.5 13.7 6.4 18-3.9 4.2-6.4 10.7-6.4 17.9a28.1 28.1 0 0 0 4.8 16 26.4 26.4 0 0 0 -4.2 10.3h-.3c-10.8 0-19.5 9.1-19.5 20.3s8.7 20.3 19.5 20.3a19.4 19.4 0 0 0 17-10.5zm-98.6-83.4c5.5 5.9 14.7 6.5 22.2 2.1l.2.3c7.2 7.8 18.7 8.8 25.7 2.4s6.8-18-.4-25.8c-5-5.3-11.9-7.5-18-6.3 1.7-6 0-13-4.9-18.3-7.2-7.8-18.7-8.9-25.7-2.5s-6.7 17.9.4 25.7c-4.9 7.2-5 16.5.5 22.4zm40.1-70.2a20.6 20.6 0 0 0 4.6 8.5 21.1 21.1 0 0 0 -4.2 13.7c.5 10.9 8.6 19.4 18.1 19s16.9-9.6 16.4-20.5a20.9 20.9 0 0 0 -5.3-13.3 20.4 20.4 0 0 0 3.8-8.9h.3c10.6-.4 18.9-8.5 18.5-18s-9.3-16.7-19.9-16.3a19.5 19.5 0 0 0 -16.4 9.6 19.9 19.9 0 0 0 -17.2-8.2c-10.6.5-18.9 8.6-18.5 18s9.3 16.8 19.8 16.4zm192 69.8a36.1 36.1 0 0 0 -3.9-16.4 36.8 36.8 0 0 0 2.4-13.1c0-15.7-9.6-28.5-21.5-28.5s-21.4 12.8-21.4 28.5a34.6 34.6 0 0 0 3.9 16.4 36.8 36.8 0 0 0 -2.4 13.1c0 8.8 3 16.7 7.8 22h27.3c4.8-5.3 7.8-13.2 7.8-22zm-3.6 84.5a30.1 30.1 0 0 0 -7.5-15.6c6.6-4.9 11.1-14.2 11.1-25 0-8.8-2.7-16.7-7.5-21.9h-27.6c-4.8 5.2-7.8 13.1-7.8 21.9s3.2 17.1 8.1 22.3c-5.2 3.8-9.1 10.4-10.5 18.3a20.2 20.2 0 0 0 -4.3-.4c-13.2 0-23.8 11.1-23.8 24.8s10.6 24.9 23.8 24.9a23.7 23.7 0 0 0 20.9-12.9 23.6 23.6 0 0 0 20.9 12.9c13.1 0 23.8-11.1 23.8-24.9 0-12.2-8.5-22.3-19.6-24.4zm-112.7 16c-16.1-.9-29.6 6.1-30.1 15.6s12.1 17.9 28.3 18.7 29.6-6.1 30.1-15.6-12.2-17.8-28.3-18.7zm61.9-62.8a36 36 0 0 0 -2.1-12.5 38.6 38.6 0 0 0 2.3-12.5c0-8.9-3-16.8-7.7-22 4.8-5.2 7.8-13.1 7.9-22s-3.7-18.5-9.3-23.6a29.7 29.7 0 0 0 8.8-16.5h.4c13.1 0 23.9-11 23.9-24.7s-10.5-24.9-23.7-25a23.6 23.6 0 0 0 -20.9 12.7 23.7 23.7 0 0 0 -20.8-12.9c-13.2-.1-23.9 11-24 24.7s10.5 24.8 23.6 25a29.8 29.8 0 0 0 8.6 16.6c-5.7 5.1-9.5 13.7-9.5 23.5s2.9 16.8 7.7 22c-4.8 5.2-7.9 13.1-7.9 22a33.3 33.3 0 0 0 2.1 12.4 34.4 34.4 0 0 0 -2.3 12.6c-.1 15.7 9.5 28.5 21.3 28.6s21.5-12.7 21.6-28.4z"/></svg>