<?xml version="1.0" encoding="utf-8"?>
<!-- Generator: Adobe Illustrator 22.1.0, SVG Export Plug-In . SVG Version: 6.00 Build 0)  -->
<svg version="1.1" id="Layer_1" xmlns="http://www.w3.org/2000/svg" xmlns:xlink="http://www.w3.org/1999/xlink" x="0px" y="0px"
	 viewBox="0 0 1200 1200" style="enable-background:new 0 0 1200 1200;" xml:space="preserve">
<style type="text/css">
	.st0{fill:#514361;}
	.st1{font-family:'RobotoMono-Regular';}
	.st2{font-size:60.7828px;}
	.st3{fill:#E3E3E3;}
	.st4{fill:#D5D5D5;}
	.st5{fill:#BABABA;}
	.st6{fill:none;stroke:#AFAFAF;stroke-width:4;stroke-linecap:round;stroke-miterlimit:10;}
	.st7{fill:none;stroke:#AFAFAF;stroke-width:4;stroke-linecap:round;stroke-miterlimit:10;stroke-dasharray:0,10.0618;}
	.st8{fill:none;stroke:#AFAFAF;stroke-width:4;stroke-linecap:round;stroke-miterlimit:10;stroke-dasharray:0,9.4281;}
	.st9{fill:none;stroke:#AFAFAF;stroke-width:4;stroke-linecap:round;stroke-miterlimit:10;stroke-dasharray:0,9.9699;}
	.st10{fill:none;stroke:#AFAFAF;stroke-width:4;stroke-linecap:round;stroke-miterlimit:10;stroke-dasharray:0,9.2735;}
	.st11{fill:none;stroke:#AFAFAF;stroke-width:4;stroke-linecap:round;stroke-miterlimit:10;stroke-dasharray:0,9.4667;}
	.st12{fill:#F2F2F2;}
	.st13{fill:none;stroke:#AFAFAF;stroke-width:4;stroke-linecap:round;stroke-miterlimit:10;stroke-dasharray:0,9.9536;}
</style>
<g>
	<g>
		<text transform="matrix(1 0 0 1 129.7367 73.8223)" class="st0 st1 st2">symbol</text>
	</g>
</g>
<g>
	<g>
		<text transform="matrix(1 0 0 1 1073.4004 589.6069)" class="st0 st1 st2">map</text>
	</g>
</g>
<g>
	<g>
		<text transform="matrix(1 0 0 1 496.1053 1164.4857)" class="st0 st1 st2">legend</text>
	</g>
</g>
<rect x="14.7" y="1103.4" class="st3" width="80.1" height="80.1"/>
<rect x="134.8" y="1103.4" class="st4" width="80.1" height="80.1"/>
<rect x="255.9" y="1103.4" class="st5" width="80.1" height="80.1"/>
<g>
	<g>
		<line class="st6" x1="376" y1="1145.6" x2="376" y2="1145.6"/>
		<line class="st7" x1="386.1" y1="1145.6" x2="471.6" y2="1145.6"/>
		<line class="st6" x1="476.6" y1="1145.6" x2="476.6" y2="1145.6"/>
	</g>
</g>
<g>
	<g>
		<line class="st6" x1="953.8" y1="95.7" x2="953.8" y2="95.7"/>
		<line class="st8" x1="963.3" y1="95.7" x2="1015.1" y2="95.7"/>
		<line class="st6" x1="1019.8" y1="95.7" x2="1019.8" y2="95.7"/>
		<line class="st9" x1="1019.8" y1="105.7" x2="1019.8" y2="1017.9"/>
		<line class="st6" x1="1019.8" y1="1022.9" x2="1019.8" y2="1022.9"/>
		<line class="st10" x1="1010.6" y1="1022.9" x2="959.6" y2="1022.9"/>
		<line class="st6" x1="954.9" y1="1022.9" x2="954.9" y2="1022.9"/>
	</g>
</g>
<g>
	<g>
		<line class="st6" x1="1019.8" y1="573.9" x2="1019.8" y2="573.9"/>
		<line class="st11" x1="1029.3" y1="573.9" x2="1053" y2="573.9"/>
		<line class="st6" x1="1057.7" y1="573.9" x2="1057.7" y2="573.9"/>
	</g>
</g>
<g>
	<polygon class="st12" points="304.1,399.5 307,314.9 247.4,292.9 167.8,334.6 129.1,310.1 86.5,304.6 49.3,318.9 25.2,321.3 
		7.2,357.5 45.1,471.4 76.2,493.7 90.9,525.9 155,519.1 178.5,557.3 236.9,551.1 257.8,499.7 317.1,483.8 325.2,420.6 	"/>
	<polygon class="st12" points="677.6,662.4 687.9,748.5 655.1,808.2 679,832.2 671.2,941.8 705.8,968.4 748.4,966.6 832.2,841.9 
		832.2,797.8 877.3,764.7 913.4,688.7 913.4,657.4 940.8,630 891.1,578.6 829.8,554.4 764.3,549.8 738.8,582.9 738.8,582.9 
		705.9,625.7 	"/>
	<polygon class="st12" points="364.8,542.5 426,603.7 492.4,583.6 503.4,565.4 540.8,558.6 587.9,615.1 587.9,637.1 629.6,655.4 
		648.7,645.1 670.8,654.8 680.5,642.1 729.3,578.8 678.7,539.4 641.9,464.4 546.1,373 562.8,335 546.8,292.8 587.6,157.4 
		515.9,124.4 494.1,92.4 469.6,97 434,98.8 401,201.6 398.3,225.7 341.2,265.6 317.1,312.7 314.3,395.5 335.8,417 327,485.8 
		364.8,520.8 	"/>
	<polygon class="st12" points="630.1,666.5 577.8,643.6 577.8,618.7 536.8,569.5 509.7,574.5 499,592.1 423.2,615 354.8,546.7 
		354.8,525.2 320.3,493.3 265.2,508.1 246,555.5 267.8,597.1 231.9,652.4 260.7,690.1 244.6,707.3 247.4,754.7 268.8,787.8 
		283.1,894.9 352.2,907.6 382.2,892.6 408.4,935.5 439.4,952 435.5,1013.5 495.5,1025.6 519.9,990.6 578.6,998.3 604,930.8 
		661.4,938.5 668.7,836 642.7,810 677.5,746.5 667.7,664.4 649.1,656.2 	"/>
	<polygon class="st12" points="759.6,539.4 832,544.4 891,567.7 929.6,457.3 904.5,407 933.3,378.3 928.9,335.1 973.3,276.5 
		944.8,249.6 858.9,248.7 836.1,259.6 775.9,194.4 739.8,185.1 654.3,185.1 627.6,195.7 596,164.1 557.4,292.4 573.6,335.3 
		558.1,370.6 650.1,458.3 686.7,532.9 735.4,570.8 	"/>
</g>
<circle class="st5" cx="239.5" cy="358" r="16"/>
<circle class="st5" cx="471.5" cy="342" r="16"/>
<circle class="st5" cx="351.4" cy="671.4" r="16"/>
<circle class="st5" cx="789.5" cy="671.4" r="16"/>
<circle class="st5" cx="838.1" cy="373.9" r="16"/>
<circle class="st5" cx="713.3" cy="292.4" r="16"/>
<circle class="st5" cx="521.8" cy="800.7" r="16"/>
<circle class="st4" cx="367.4" cy="816.6" r="16"/>
<circle class="st4" cx="454.7" cy="687.3" r="16"/>
<circle class="st4" cx="470.6" cy="858.6" r="16"/>
<circle class="st4" cx="588.1" cy="858.6" r="16"/>
<circle class="st4" cx="524.4" cy="471.4" r="16"/>
<circle class="st3" cx="713.3" cy="351.5" r="16"/>
<circle class="st3" cx="805.5" cy="455.4" r="16"/>
<circle class="st3" cx="719.7" cy="487.3" r="16"/>
<circle class="st3" cx="797.9" cy="800.7" r="16"/>
<circle class="st3" cx="729.3" cy="425.1" r="16"/>
<g>
	<g>
		<line class="st6" x1="239.2" y1="365.3" x2="239.2" y2="365.3"/>
		<line class="st13" x1="239.2" y1="355.3" x2="239.2" y2="105.7"/>
	</g>
</g>
</svg>
