<svg enable-background="new 0 0 256 256" height="256" viewBox="0 0 256 256" width="256" xmlns="http://www.w3.org/2000/svg"><path d="m254 72-5.1-3.7-2.6-7.9-6.5-.6-1.6 11.3-2.1 3.3-1.3 2.2-7.6 2.1-6.3 1.5-5.1 6.6 1.4 3.1-10.7 6.8-3.3 4.2-3.1 2.3-8.3 4.9-4.6-1.4 3.5-8.3-5.2-7.3-1.5-6.1-3.9-2.1-6.7 6.1-1.4 5.2 2 6.6-2 7.5-3 .5-1.7-4.5-.9-4.6 1.6-9.5-1.3-1.7 2.1-5.1 12.5-1.8-4.5-4.5-9.8 2.9-4.8-3.3-8 3.9-7.2-.7 2.5-7.9-5.1-2.8-4.5.3-5.8-2.8h-8.2l-27.5-1.4-34-4.6-13.8-2.8-3.9-.9-22.3-6-1.6 5-8 .5-1.2 13.1-7.7 14.6-.1 5.3-3.8 8.6.2 9.7 7.5 30.3 8.7 4.9 4 5.4.8 5.2 12.2 1.6-.8 1.2 18.3 10.6 10.1 1.6 4.6-2.1 8.8 1.2 7.1 7.4 1.9 6.3 7 4.8 2.8-4.4 6.8.2 9.6 14 2.1 7.2 9.8 2-1.3-5.5 3-6.3 7.7-4.4 9.5-7.6 8.2 2.5 2.2-1.9 5.3 4 5.9-2 .9-4.9 5.8-1.7 5.1-1 7.2.3 6.3 3.5 4.6-3.6 8.4 6.4-.1 6.6 5.2 7.8 9.9 5.7.6-10.9-4-8.6-7.4-12.6 1.8-8.4 7.4-8.4 2.2-4.7 11.5-14.4-2.4-3.9h.1.2l.4-.1h.1l-3.9-3.5.3-4-1.3-1.3 4.1.3 1.2-.6.7-2.9h.1l-3.6-7.5 1.5-1.6 4.5.7-.9-7.6 1.2-.3 7.4-3.9 2-3 .2.1.6.9 2.1-2.5-3-5.8v-1.3l3.9-5.9zm-217.5 70.9c-3.3 0-5.9-2.6-5.9-5.9s2.6-5.9 5.9-5.9 5.9 2.6 5.9 5.9c0 3.2-2.7 5.9-5.9 5.9zm6.8-64.5c-3.5 0-6.4-2.9-6.4-6.4s2.9-6.4 6.4-6.4 6.4 2.9 6.4 6.4-2.8 6.4-6.4 6.4zm26.6 28.1c-3.3 0-5.9-2.6-5.9-5.9s2.6-5.9 5.9-5.9 5.9 2.6 5.9 5.9c0 3.2-2.6 5.9-5.9 5.9zm14.8 18.7c-3.3 0-5.9-2.6-5.9-5.9s2.6-5.9 5.9-5.9 5.9 2.6 5.9 5.9c0 3.2-2.7 5.9-5.9 5.9zm16.2-13.3c-3.3 0-5.9-2.6-5.9-5.9s2.6-5.9 5.9-5.9 5.9 2.6 5.9 5.9c0 3.2-2.6 5.9-5.9 5.9zm24.1 60.5c-3.3 0-5.9-2.6-5.9-5.9s2.6-5.9 5.9-5.9 5.9 2.6 5.9 5.9c.1 3.3-2.6 5.9-5.9 5.9zm33.5-40.3c-3.3 0-5.9-2.6-5.9-5.9s2.6-5.9 5.9-5.9 5.9 2.6 5.9 5.9c0 3.2-2.6 5.9-5.9 5.9zm33.5 16.7c-3.3 0-5.9-2.6-5.9-5.9s2.6-5.9 5.9-5.9 5.9 2.6 5.9 5.9c0 3.2-2.7 5.9-5.9 5.9z"/></svg>