<svg xmlns="http://www.w3.org/2000/svg" width="1268" height="418" viewBox="0 0 1268 418"><defs><style>.a,.g{isolation:isolate;}.a,.d,.f{font-size:23.6px;}.a{fill:#b9b9ba;}.a,.d,.f,.g{font-family:Roboto Mono;}.b{fill:#9c8fa8;}.c{opacity:0.65;}.d{fill:#fff;}.e{fill:#c6c2cc;}.f{fill:#a0a0a0;}.g{font-size:18px;fill:#ddd;}</style></defs><title>cover</title><text class="a" transform="translate(300.4 239.7)">Ares</text><rect class="b" x="249.3" y="44.1" width="158.9" height="158.94"/><g class="c"><text class="d" transform="translate(297.7 127.4)">2000</text></g><rect class="e" x="914.6" y="256.1" width="158.9" height="158.94"/><g class="c"><text class="d" transform="translate(963 342.4)">2000</text></g><text class="a" transform="translate(64.5 239.7)">Appolo</text><rect class="b" x="9.6" y="8.4" width="194.7" height="194.66"/><g class="c"><text class="d" transform="translate(75.9 111.4)">3000</text></g><rect class="e" x="57.5" y="256.1" width="98.9" height="98.9"/><g class="c"><text class="d" transform="translate(75.9 311.6)">1000</text></g><text class="a" transform="translate(515.1 239.7)">Hades</text><rect class="b" x="501" y="104.4" width="98.9" height="98.9"/><g class="c"><text class="d" transform="translate(519.4 159.9)">1000</text></g><rect class="e" x="508.3" y="256.1" width="84.3" height="84.29"/><g class="c"><text class="d" transform="translate(526.5 303.6)">750</text></g><text class="a" transform="translate(965.7 239.7)">Zeus</text><rect class="e" x="269.1" y="256.1" width="119.2" height="119.2"/><g class="c"><text class="d" transform="translate(297.7 316)">1500</text></g><rect class="b" x="965" y="146.9" width="56.2" height="56.16"/><g class="c"><text class="d" transform="translate(971.1 181.7)">250</text></g><text class="a" transform="translate(729.8 239.7)">Hermes</text><rect class="b" x="732.3" y="118.7" width="84.3" height="84.29"/><g class="c"><text class="d" transform="translate(750.4 166.2)">750</text></g><rect class="e" x="746.3" y="256.1" width="56.2" height="56.16"/><g class="c"><text class="d" transform="translate(751.3 292.9)">250</text></g><text class="a" transform="translate(1187.5 239.7)">Hera</text><rect class="b" x="1210.2" y="191.8" width="11.3" height="11.26"/><g class="c"><text class="f" transform="translate(1198.9 177.7)">10</text></g><rect class="e" x="1176.1" y="256.1" width="79.4" height="79.42"/><g class="c"><text class="d" transform="translate(1192.7 298.5)">500</text></g><text class="g" transform="translate(1170.1 35.2)">Power</text><text class="g" transform="translate(1177.5 66.2)">Fame</text><rect class="b" x="1228.4" y="16.5" width="20.8" height="22.66"/><rect class="e" x="1228.4" y="46.5" width="20.8" height="22.66"/></svg>