<?xml version="1.0" encoding="utf-8"?>
<!-- Generator: Adobe Illustrator 24.0.1, SVG Export Plug-In . SVG Version: 6.00 Build 0)  -->
<svg version="1.1" id="Layer_1" xmlns="http://www.w3.org/2000/svg" xmlns:xlink="http://www.w3.org/1999/xlink" x="0px" y="0px"
	 viewBox="0 0 1268 418" style="enable-background:new 0 0 1268 418;" xml:space="preserve">
<style type="text/css">
	.st0{fill:#8B779D;}
	.st1{fill:#B2A4C1;}
	.st2{fill:#775996;}
	.st3{fill:#B3B0B7;}
	.st4{font-family:'Roboto-Regular';}
	.st5{font-size:34.8993px;}
</style>
<g id="Layer_2_1_">
</g>
<g id="Layer_3">
</g>
<rect x="49.8" y="13.1" class="st0" width="36.4" height="26.7"/>
<rect x="98.8" y="13.1" class="st0" width="36.4" height="26.7"/>
<rect x="147.8" y="13.1" class="st0" width="36.4" height="26.7"/>
<rect x="196.8" y="13.1" class="st0" width="36.4" height="26.7"/>
<rect x="245.7" y="13.1" class="st0" width="36.4" height="26.7"/>
<rect x="294.7" y="13.1" class="st0" width="36.4" height="26.7"/>
<rect x="343.7" y="13.1" class="st0" width="36.4" height="26.7"/>
<rect x="392.7" y="13.1" class="st0" width="36.4" height="26.7"/>
<rect x="441.7" y="13.1" class="st0" width="36.4" height="26.7"/>
<rect x="490.7" y="13.1" class="st0" width="36.4" height="26.7"/>
<rect x="49.8" y="49.1" class="st0" width="36.4" height="26.7"/>
<rect x="98.8" y="49.1" class="st0" width="36.4" height="26.7"/>
<rect x="147.8" y="49.1" class="st0" width="36.4" height="26.7"/>
<rect x="196.8" y="49.1" class="st0" width="36.4" height="26.7"/>
<rect x="245.7" y="49.1" class="st0" width="36.4" height="26.7"/>
<rect x="294.7" y="49.1" class="st0" width="36.4" height="26.7"/>
<rect x="343.7" y="49.1" class="st0" width="36.4" height="26.7"/>
<rect x="392.7" y="49.1" class="st0" width="36.4" height="26.7"/>
<rect x="441.7" y="49.1" class="st0" width="36.4" height="26.7"/>
<rect x="490.7" y="49.1" class="st0" width="36.4" height="26.7"/>
<rect x="49.8" y="85" class="st0" width="36.4" height="26.7"/>
<rect x="98.8" y="85" class="st0" width="36.4" height="26.7"/>
<rect x="147.8" y="85" class="st0" width="36.4" height="26.7"/>
<rect x="196.8" y="85" class="st0" width="36.4" height="26.7"/>
<rect x="245.7" y="85" class="st0" width="36.4" height="26.7"/>
<rect x="294.7" y="85" class="st0" width="36.4" height="26.7"/>
<rect x="343.7" y="85" class="st0" width="36.4" height="26.7"/>
<rect x="392.7" y="85" class="st0" width="36.4" height="26.7"/>
<rect x="441.7" y="85" class="st0" width="36.4" height="26.7"/>
<rect x="490.7" y="85" class="st0" width="36.4" height="26.7"/>
<rect x="49.8" y="120.9" class="st0" width="36.4" height="26.7"/>
<rect x="98.8" y="120.9" class="st0" width="36.4" height="26.7"/>
<rect x="147.8" y="120.9" class="st0" width="36.4" height="26.7"/>
<rect x="196.8" y="120.9" class="st0" width="36.4" height="26.7"/>
<rect x="245.7" y="120.9" class="st0" width="36.4" height="26.7"/>
<rect x="294.7" y="120.9" class="st0" width="36.4" height="26.7"/>
<rect x="343.7" y="120.9" class="st0" width="36.4" height="26.7"/>
<rect x="392.7" y="120.9" class="st0" width="36.4" height="26.7"/>
<rect x="441.7" y="120.9" class="st0" width="36.4" height="26.7"/>
<rect x="490.7" y="120.9" class="st0" width="36.4" height="26.7"/>
<rect x="49.8" y="156.8" class="st0" width="36.4" height="26.7"/>
<rect x="98.8" y="156.8" class="st0" width="36.4" height="26.7"/>
<rect x="147.8" y="156.8" class="st0" width="36.4" height="26.7"/>
<rect x="196.8" y="156.8" class="st0" width="36.4" height="26.7"/>
<rect x="245.7" y="156.8" class="st0" width="36.4" height="26.7"/>
<rect x="294.7" y="156.8" class="st0" width="36.4" height="26.7"/>
<rect x="343.7" y="156.8" class="st0" width="36.4" height="26.7"/>
<rect x="392.7" y="156.8" class="st0" width="36.4" height="26.7"/>
<rect x="441.7" y="156.8" class="st0" width="36.4" height="26.7"/>
<rect x="490.7" y="156.8" class="st0" width="36.4" height="26.7"/>
<rect x="49.8" y="192.8" class="st0" width="36.4" height="26.7"/>
<rect x="98.8" y="192.8" class="st0" width="36.4" height="26.7"/>
<rect x="147.8" y="192.8" class="st1" width="36.4" height="26.7"/>
<rect x="196.8" y="192.8" class="st1" width="36.4" height="26.7"/>
<rect x="245.7" y="192.8" class="st1" width="36.4" height="26.7"/>
<rect x="294.7" y="192.8" class="st1" width="36.4" height="26.7"/>
<rect x="343.7" y="192.8" class="st1" width="36.4" height="26.7"/>
<rect x="392.7" y="192.8" class="st1" width="36.4" height="26.7"/>
<rect x="441.7" y="192.8" class="st1" width="36.4" height="26.7"/>
<rect x="490.7" y="192.8" class="st1" width="36.4" height="26.7"/>
<rect x="49.8" y="228.7" class="st1" width="36.4" height="26.7"/>
<rect x="98.8" y="228.7" class="st1" width="36.4" height="26.7"/>
<rect x="147.8" y="228.7" class="st1" width="36.4" height="26.7"/>
<rect x="196.8" y="228.7" class="st1" width="36.4" height="26.7"/>
<rect x="245.7" y="228.7" class="st1" width="36.4" height="26.7"/>
<rect x="294.7" y="228.7" class="st1" width="36.4" height="26.7"/>
<rect x="343.7" y="228.7" class="st1" width="36.4" height="26.7"/>
<rect x="392.7" y="228.7" class="st1" width="36.4" height="26.7"/>
<rect x="441.7" y="228.7" class="st1" width="36.4" height="26.7"/>
<rect x="490.7" y="228.7" class="st1" width="36.4" height="26.7"/>
<rect x="49.8" y="264.6" class="st1" width="36.4" height="26.7"/>
<rect x="98.8" y="264.6" class="st1" width="36.4" height="26.7"/>
<rect x="147.8" y="264.6" class="st1" width="36.4" height="26.7"/>
<rect x="196.8" y="264.6" class="st1" width="36.4" height="26.7"/>
<rect x="245.7" y="264.6" class="st1" width="36.4" height="26.7"/>
<rect x="294.7" y="264.6" class="st1" width="36.4" height="26.7"/>
<rect x="343.7" y="264.6" class="st1" width="36.4" height="26.7"/>
<rect x="392.7" y="264.6" class="st1" width="36.4" height="26.7"/>
<rect x="441.7" y="264.6" class="st1" width="36.4" height="26.7"/>
<rect x="490.7" y="264.6" class="st1" width="36.4" height="26.7"/>
<rect x="49.8" y="300.5" class="st1" width="36.4" height="26.7"/>
<rect x="98.8" y="300.5" class="st1" width="36.4" height="26.7"/>
<rect x="147.8" y="300.5" class="st1" width="36.4" height="26.7"/>
<rect x="196.8" y="300.5" class="st1" width="36.4" height="26.7"/>
<rect x="245.7" y="300.5" class="st1" width="36.4" height="26.7"/>
<rect x="294.7" y="300.5" class="st1" width="36.4" height="26.7"/>
<rect x="343.7" y="300.5" class="st1" width="36.4" height="26.7"/>
<rect x="392.7" y="300.5" class="st1" width="36.4" height="26.7"/>
<rect x="441.7" y="300.5" class="st1" width="36.4" height="26.7"/>
<rect x="490.7" y="300.5" class="st1" width="36.4" height="26.7"/>
<rect x="49.8" y="336.4" class="st1" width="36.4" height="26.7"/>
<rect x="98.8" y="336.4" class="st1" width="36.4" height="26.7"/>
<rect x="147.8" y="336.4" class="st1" width="36.4" height="26.7"/>
<rect x="196.8" y="336.4" class="st1" width="36.4" height="26.7"/>
<rect x="245.7" y="336.4" class="st1" width="36.4" height="26.7"/>
<rect x="294.7" y="336.4" class="st1" width="36.4" height="26.7"/>
<rect x="343.7" y="336.4" class="st1" width="36.4" height="26.7"/>
<rect x="392.7" y="336.4" class="st1" width="36.4" height="26.7"/>
<rect x="441.7" y="336.4" class="st1" width="36.4" height="26.7"/>
<rect x="490.7" y="336.4" class="st1" width="36.4" height="26.7"/>
<rect x="733.8" y="13.1" class="st2" width="36.4" height="26.7"/>
<rect x="782.8" y="13.1" class="st2" width="36.4" height="26.7"/>
<rect x="831.8" y="13.1" class="st2" width="36.4" height="26.7"/>
<rect x="880.8" y="13.1" class="st2" width="36.4" height="26.7"/>
<rect x="929.8" y="13.1" class="st2" width="36.4" height="26.7"/>
<rect x="978.8" y="13.1" class="st2" width="36.4" height="26.7"/>
<rect x="1027.7" y="13.1" class="st2" width="36.4" height="26.7"/>
<rect x="1076.7" y="13.1" class="st2" width="36.4" height="26.7"/>
<rect x="1125.7" y="13.1" class="st2" width="36.4" height="26.7"/>
<rect x="1174.7" y="13.1" class="st2" width="36.4" height="26.7"/>
<rect x="733.8" y="49.1" class="st2" width="36.4" height="26.7"/>
<rect x="782.8" y="49.1" class="st2" width="36.4" height="26.7"/>
<rect x="831.8" y="49.1" class="st2" width="36.4" height="26.7"/>
<rect x="880.8" y="49.1" class="st2" width="36.4" height="26.7"/>
<rect x="929.8" y="49.1" class="st2" width="36.4" height="26.7"/>
<rect x="978.8" y="49.1" class="st2" width="36.4" height="26.7"/>
<rect x="1027.7" y="49.1" class="st2" width="36.4" height="26.7"/>
<rect x="1076.7" y="49.1" class="st2" width="36.4" height="26.7"/>
<rect x="1125.7" y="49.1" class="st2" width="36.4" height="26.7"/>
<rect x="1174.7" y="49.1" class="st2" width="36.4" height="26.7"/>
<rect x="733.8" y="85" class="st2" width="36.4" height="26.7"/>
<rect x="782.8" y="85" class="st2" width="36.4" height="26.7"/>
<rect x="831.8" y="85" class="st2" width="36.4" height="26.7"/>
<rect x="880.8" y="85" class="st2" width="36.4" height="26.7"/>
<rect x="929.8" y="85" class="st2" width="36.4" height="26.7"/>
<rect x="978.8" y="85" class="st2" width="36.4" height="26.7"/>
<rect x="1027.7" y="85" class="st2" width="36.4" height="26.7"/>
<rect x="1076.7" y="85" class="st2" width="36.4" height="26.7"/>
<rect x="1125.7" y="85" class="st2" width="36.4" height="26.7"/>
<rect x="1174.7" y="85" class="st2" width="36.4" height="26.7"/>
<rect x="733.8" y="120.9" class="st2" width="36.4" height="26.7"/>
<rect x="782.8" y="120.9" class="st2" width="36.4" height="26.7"/>
<rect x="831.8" y="120.9" class="st2" width="36.4" height="26.7"/>
<rect x="880.8" y="120.9" class="st2" width="36.4" height="26.7"/>
<rect x="929.8" y="120.9" class="st2" width="36.4" height="26.7"/>
<rect x="978.8" y="120.9" class="st2" width="36.4" height="26.7"/>
<rect x="1027.7" y="120.9" class="st2" width="36.4" height="26.7"/>
<rect x="1076.7" y="120.9" class="st2" width="36.4" height="26.7"/>
<rect x="1125.7" y="120.9" class="st2" width="36.4" height="26.7"/>
<rect x="1174.7" y="120.9" class="st2" width="36.4" height="26.7"/>
<rect x="733.8" y="156.8" class="st2" width="36.4" height="26.7"/>
<rect x="782.8" y="156.8" class="st2" width="36.4" height="26.7"/>
<rect x="831.8" y="156.8" class="st2" width="36.4" height="26.7"/>
<rect x="880.8" y="156.8" class="st2" width="36.4" height="26.7"/>
<rect x="929.8" y="156.8" class="st2" width="36.4" height="26.7"/>
<rect x="978.8" y="156.8" class="st2" width="36.4" height="26.7"/>
<rect x="1027.7" y="156.8" class="st2" width="36.4" height="26.7"/>
<rect x="1076.7" y="156.8" class="st2" width="36.4" height="26.7"/>
<rect x="1125.7" y="156.8" class="st2" width="36.4" height="26.7"/>
<rect x="1174.7" y="156.8" class="st2" width="36.4" height="26.7"/>
<rect x="733.8" y="192.8" class="st2" width="36.4" height="26.7"/>
<rect x="782.8" y="192.8" class="st2" width="36.4" height="26.7"/>
<rect x="831.8" y="192.8" class="st2" width="36.4" height="26.7"/>
<rect x="880.8" y="192.8" class="st2" width="36.4" height="26.7"/>
<rect x="929.8" y="192.8" class="st2" width="36.4" height="26.7"/>
<rect x="978.8" y="192.8" class="st2" width="36.4" height="26.7"/>
<rect x="1027.7" y="192.8" class="st2" width="36.4" height="26.7"/>
<rect x="1076.7" y="192.8" class="st2" width="36.4" height="26.7"/>
<rect x="1125.7" y="192.8" class="st2" width="36.4" height="26.7"/>
<rect x="1174.7" y="192.8" class="st2" width="36.4" height="26.7"/>
<rect x="733.8" y="228.7" class="st2" width="36.4" height="26.7"/>
<rect x="782.8" y="228.7" class="st1" width="36.4" height="26.7"/>
<rect x="831.8" y="228.7" class="st1" width="36.4" height="26.7"/>
<rect x="880.8" y="228.7" class="st1" width="36.4" height="26.7"/>
<rect x="929.8" y="228.7" class="st1" width="36.4" height="26.7"/>
<rect x="978.8" y="228.7" class="st1" width="36.4" height="26.7"/>
<rect x="1027.7" y="228.7" class="st1" width="36.4" height="26.7"/>
<rect x="1076.7" y="228.7" class="st1" width="36.4" height="26.7"/>
<rect x="1125.7" y="228.7" class="st1" width="36.4" height="26.7"/>
<rect x="1174.7" y="228.7" class="st1" width="36.4" height="26.7"/>
<rect x="733.8" y="264.6" class="st1" width="36.4" height="26.7"/>
<rect x="782.8" y="264.6" class="st1" width="36.4" height="26.7"/>
<rect x="831.8" y="264.6" class="st1" width="36.4" height="26.7"/>
<rect x="880.8" y="264.6" class="st1" width="36.4" height="26.7"/>
<rect x="929.8" y="264.6" class="st1" width="36.4" height="26.7"/>
<rect x="978.8" y="264.6" class="st1" width="36.4" height="26.7"/>
<rect x="1027.7" y="264.6" class="st1" width="36.4" height="26.7"/>
<rect x="1076.7" y="264.6" class="st1" width="36.4" height="26.7"/>
<rect x="1125.7" y="264.6" class="st1" width="36.4" height="26.7"/>
<rect x="1174.7" y="264.6" class="st1" width="36.4" height="26.7"/>
<rect x="733.8" y="300.5" class="st1" width="36.4" height="26.7"/>
<rect x="782.8" y="300.5" class="st1" width="36.4" height="26.7"/>
<rect x="831.8" y="300.5" class="st1" width="36.4" height="26.7"/>
<rect x="880.8" y="300.5" class="st1" width="36.4" height="26.7"/>
<rect x="929.8" y="300.5" class="st1" width="36.4" height="26.7"/>
<rect x="978.8" y="300.5" class="st1" width="36.4" height="26.7"/>
<rect x="1027.7" y="300.5" class="st1" width="36.4" height="26.7"/>
<rect x="1076.7" y="300.5" class="st1" width="36.4" height="26.7"/>
<rect x="1125.7" y="300.5" class="st1" width="36.4" height="26.7"/>
<rect x="1174.7" y="300.5" class="st1" width="36.4" height="26.7"/>
<rect x="733.8" y="336.4" class="st1" width="36.4" height="26.7"/>
<rect x="782.8" y="336.4" class="st1" width="36.4" height="26.7"/>
<rect x="831.8" y="336.4" class="st1" width="36.4" height="26.7"/>
<rect x="880.8" y="336.4" class="st1" width="36.4" height="26.7"/>
<rect x="929.8" y="336.4" class="st1" width="36.4" height="26.7"/>
<rect x="978.8" y="336.4" class="st1" width="36.4" height="26.7"/>
<rect x="1027.7" y="336.4" class="st1" width="36.4" height="26.7"/>
<rect x="1076.7" y="336.4" class="st1" width="36.4" height="26.7"/>
<rect x="1125.7" y="336.4" class="st1" width="36.4" height="26.7"/>
<rect x="1174.7" y="336.4" class="st1" width="36.4" height="26.7"/>
<text transform="matrix(1 0 0 1 256.5922 407.3514)" class="st3 st4 st5">52%</text>
<text transform="matrix(1 0 0 1 939.9763 407.3514)" class="st3 st4 st5">61%</text>
</svg>
