<svg height="256" viewBox="0 0 256 256" width="256" xmlns="http://www.w3.org/2000/svg"><path d="m213.8 178.3h-33.9v-47.5h33.9zm0 5.4h-33.9v47.6h33.9zm-38.2-52.9h-33.9v47.5h33.9zm0 52.9h-33.9v47.6h33.9zm38.2-105.9h-33.9v47.5h33.9zm38.2 0h-33.9v47.5h33.9zm0-53h-33.9v47.6h33.9zm-76.4 53h-33.9v47.5h33.9zm76.4 53h-33.9v47.5h33.9zm0 52.9h-33.9v47.6h33.9zm-215.9-52.9h-33.9v47.5h33.9zm38.2 52.9h-33.9v47.6h33.9zm-38.2 47.6v-47.6h-33.9v47.6zm38.2-100.5h-33.9v47.5h33.9zm0-53h-33.9v47.5h33.9zm38.2 53h-33.9v47.5h33.9zm0 52.9h-33.9v47.6h33.9zm0-105.9h-33.9v47.5h33.9zm101.2-53h-34v47.5h34z"/></svg>