<svg enable-background="new 0 0 650 339" height="339" viewBox="0 0 650 339" width="650" xmlns="http://www.w3.org/2000/svg"><g transform="translate(30 20)"><g><path d="m580.4 29.1v226.8" fill="none" stroke="#cbcbcb" stroke-width="4.7452"/><circle cx="580.4" cy="29.1" fill="#7f7f7f" r="12.5"/><circle cx="580.4" cy="256" fill="#aaa" r="12.5"/></g><g><path d="m520.7 16.6v209.2" fill="none" stroke="#cbcbcb" stroke-width="4.7452"/><circle cx="520.7" cy="16.6" fill="#7f7f7f" r="12.5"/><circle cx="520.7" cy="225.9" fill="#aaa" r="12.5"/></g><g><path d="m460.9 58.3v183.1" fill="none" stroke="#cbcbcb" stroke-width="4.7452"/><circle cx="460.9" cy="58.3" fill="#7f7f7f" r="12.5"/><circle cx="460.9" cy="241.5" fill="#aaa" r="12.5"/></g><g><path d="m401.1 58.3v178.9" fill="none" stroke="#cbcbcb" stroke-width="4.7452"/><circle cx="401.1" cy="58.3" fill="#7f7f7f" r="12.5"/><circle cx="401.1" cy="237.2" fill="#aaa" r="12.5"/></g><g><path d="m341.4 70.8v156.2" fill="none" stroke="#cbcbcb" stroke-width="4.7452"/><circle cx="341.4" cy="70.8" fill="#7f7f7f" r="12.5"/><circle cx="341.4" cy="226.9" fill="#aaa" r="12.5"/></g><g><path d="m281.6 10.9v119.2" fill="none" stroke="#cbcbcb" stroke-width="4.7452"/><circle cx="281.6" cy="10.9" fill="#7f7f7f" r="12.5"/><circle cx="281.6" cy="130.1" fill="#aaa" r="12.5"/></g><g><path d="m221.9 108.7v120.4" fill="none" stroke="#cbcbcb" stroke-width="4.7452"/><circle cx="221.9" cy="108.7" fill="#989898" r="12.5"/><circle cx="221.9" cy="229" fill="#aaa" r="12.5"/></g><g><path d="m162.1 153.7v102.3" fill="none" stroke="#cbcbcb" stroke-width="4.7452"/><circle cx="162.1" cy="153.7" fill="#989898" r="12.5"/><circle cx="162.1" cy="255.8" fill="#aaa" r="12.5"/></g><g><path d="m102.4 70.5v126.2" fill="none" stroke="#cbcbcb" stroke-width="4.7452"/><circle cx="102.4" cy="70.5" fill="#7f7f7f" r="12.5"/><circle cx="102.4" cy="196.7" fill="#aaa" r="12.5"/></g><g><path d="m42.6 153.7v81" fill="none" stroke="#cbcbcb" stroke-width="4.7452"/><circle cx="42.6" cy="153.7" fill="#7f7f7f" r="12.5"/><circle cx="42.6" cy="234.7" fill="#aaa" r="12.5"/></g></g><g transform="translate(30 480)"><path d="m12-470v292.1h-8.6" fill="none" stroke="#888" stroke-width="1.4247"/><path d="m3.9-177.3h8.8" fill="none" stroke="#888" stroke-width="1.344"/><text fill="#9e9e9e" font-family="'RobotoMono-Regular'" font-size="14" transform="translate(-13.0674 -174.5385)">0</text><path d="m3.9-243.5h8.8" fill="none" stroke="#888" stroke-width="1.344"/><text fill="#9e9e9e" font-family="'RobotoMono-Regular'" font-size="14" transform="translate(-21.4688 -240.7153)">10</text><path d="m3.9-309.7h8.8" fill="none" stroke="#888" stroke-width="1.344"/><text fill="#9e9e9e" font-family="'RobotoMono-Regular'" font-size="14" transform="translate(-21.4688 -306.8921)">20</text><path d="m3.9-375.8h8.8" fill="none" stroke="#888" stroke-width="1.344"/><text fill="#9e9e9e" font-family="'RobotoMono-Regular'" font-size="14" transform="translate(-21.4688 -373.0669)">30</text><path d="m3.9-442h8.8" fill="none" stroke="#888" stroke-width="1.344"/><text fill="#9e9e9e" font-family="'RobotoMono-Regular'" font-size="14" transform="translate(-21.4688 -439.2436)">40</text></g><g transform="translate(30 20)"><path d="m12 282.1h592.5" fill="none" stroke="#888" stroke-width="1.4441"/><g fill="#9e9e9e" font-family="'RobotoMono-Regular'" font-size="15"><text transform="translate(38.3496 305.8941)">A</text><text transform="translate(98.0423 305.8941)">B</text><text transform="translate(157.7354 305.894)">C</text><text transform="translate(217.4279 305.8941)">D</text><text transform="translate(277.1205 305.8941)">E</text><text transform="translate(336.8131 305.8941)">F</text><text transform="translate(396.5057 305.8941)">G</text><text transform="translate(456.1988 305.8941)">H</text><text transform="translate(515.8914 305.894)">I</text><text transform="translate(575.584 305.8941)">J</text></g></g></svg>