<?xml version="1.0" encoding="utf-8"?>
<!-- Generator: Adobe Illustrator 24.0.1, SVG Export Plug-In . SVG Version: 6.00 Build 0)  -->
<svg version="1.1" id="Layer_1" xmlns="http://www.w3.org/2000/svg" xmlns:xlink="http://www.w3.org/1999/xlink" x="0px" y="0px"
	 viewBox="0 0 1268 418" style="enable-background:new 0 0 1268 418;" xml:space="preserve">
<style type="text/css">
	.st0{fill:none;stroke:#C5C5D1;stroke-width:6.1689;}
	.st1{fill:#A59CB9;}
	.st2{fill:#B6ADC7;}
	.st3{fill:none;stroke:#CCCCCC;stroke-width:1.8522;}
	.st4{fill:none;stroke:#CCCCCC;stroke-width:1.7473;}
	.st5{fill:#CCCCCC;}
	.st6{font-family:'RobotoMono-Regular';}
	.st7{font-size:16px;}
	.st8{fill:none;stroke:#CCCCCC;stroke-width:1.8774;}
</style>
<g transform="translate(30 20)">
	<g>
		<path class="st0" d="M1173.7,47.3v213.5"/>
		<circle class="st1" cx="1173.7" cy="47.3" r="16.3"/>
		<circle class="st2" cx="1173.7" cy="261" r="16.3"/>
	</g>
	<g>
		<path class="st0" d="M1096.1,17.1v178"/>
		<circle class="st1" cx="1096.1" cy="17.1" r="16.3"/>
		<circle class="st2" cx="1096.1" cy="195.2" r="16.3"/>
	</g>
	<g>
		<path class="st0" d="M1018.3,25.3v214"/>
		<circle class="st1" cx="1018.3" cy="25.3" r="16.3"/>
		<circle class="st2" cx="1018.3" cy="239.5" r="16.3"/>
	</g>
	<g>
		<path class="st0" d="M940.6,71.3v211.6"/>
		<circle class="st1" cx="940.6" cy="71.3" r="16.3"/>
		<circle class="st2" cx="940.6" cy="282.9" r="16.3"/>
	</g>
	<g>
		<path class="st0" d="M863,112.5v194.1"/>
		<circle class="st1" cx="863" cy="112.5" r="16.3"/>
		<circle class="st2" cx="863" cy="306.5" r="16.3"/>
	</g>
	<g>
		<path class="st0" d="M784.1,33.3v294.8"/>
		<circle class="st1" cx="784.1" cy="33.3" r="16.3"/>
		<circle class="st2" cx="784.1" cy="328.3" r="16.3"/>
	</g>
	<g>
		<path class="st0" d="M706.5,17.1v272"/>
		<circle class="st1" cx="706.5" cy="17.1" r="16.3"/>
		<circle class="st2" cx="706.5" cy="289.2" r="16.3"/>
	</g>
	<g>
		<path class="st0" d="M628.7,71.3v238"/>
		<circle class="st1" cx="628.7" cy="71.3" r="16.3"/>
		<circle class="st2" cx="628.7" cy="309.5" r="16.3"/>
	</g>
	<g>
		<path class="st0" d="M551,71.3v232.6"/>
		<circle class="st1" cx="551" cy="71.3" r="16.3"/>
		<circle class="st2" cx="551" cy="303.9" r="16.3"/>
	</g>
	<g>
		<path class="st0" d="M473.4,87.5v203.1"/>
		<circle class="st1" cx="473.4" cy="87.5" r="16.3"/>
		<circle class="st2" cx="473.4" cy="290.5" r="16.3"/>
	</g>
	<g>
		<path class="st0" d="M395.6,9.7v155"/>
		<circle class="st1" cx="395.6" cy="9.7" r="16.3"/>
		<circle class="st2" cx="395.6" cy="164.6" r="16.3"/>
	</g>
	<g>
		<path class="st0" d="M318,136.8v156.5"/>
		<circle class="st1" cx="318" cy="136.8" r="16.3"/>
		<circle class="st2" cx="318" cy="293.2" r="16.3"/>
	</g>
	<g>
		<path class="st0" d="M240.3,195.3v133"/>
		<circle class="st1" cx="240.3" cy="195.3" r="16.3"/>
		<circle class="st2" cx="240.3" cy="328.1" r="16.3"/>
	</g>
	<g>
		<path class="st0" d="M162.7,87.2v164.1"/>
		<circle class="st1" cx="162.7" cy="87.2" r="16.3"/>
		<circle class="st2" cx="162.7" cy="251.2" r="16.3"/>
	</g>
	<g>
		<path class="st0" d="M84.9,195.3v105.3"/>
		<circle class="st1" cx="84.9" cy="195.3" r="16.3"/>
		<circle class="st2" cx="84.9" cy="300.6" r="16.3"/>
	</g>
</g>
<g transform="translate(30 480)">
	<path class="st3" d="M45.1-468.5v370.7H34"/>
	<path class="st4" d="M34.6-97H46"/>
	<text transform="matrix(1 0 0 1 12.5459 -93.3877)" class="st5 st6 st7">0</text>
	<path class="st4" d="M34.6-183H46"/>
	<text transform="matrix(1 0 0 1 1.6235 -179.4209)" class="st5 st6 st7">10</text>
	<path class="st4" d="M34.6-269.1H46"/>
	<text transform="matrix(1 0 0 1 1.6235 -265.4521)" class="st5 st6 st7">20</text>
	<path class="st4" d="M34.6-355H46"/>
	<text transform="matrix(1 0 0 1 1.6235 -351.4829)" class="st5 st6 st7">30</text>
	<path class="st4" d="M34.6-441.1H46"/>
	<text transform="matrix(1 0 0 1 1.6235 -437.5151)" class="st5 st6 st7">40</text>
</g>
<g>
	<path class="st8" d="M75.1,382.2h1165.4"/>
	<text transform="matrix(1 0 0 1 109.3901 411.1758)" class="st5 st6 st7">A</text>
	<text transform="matrix(1 0 0 1 186.9927 411.1758)" class="st5 st6 st7">B</text>
	<text transform="matrix(1 0 0 1 264.5962 411.1758)" class="st5 st6 st7">C</text>
	<text transform="matrix(1 0 0 1 342.1982 411.1758)" class="st5 st6 st7">D</text>
	<text transform="matrix(1 0 0 1 419.8018 411.1758)" class="st5 st6 st7">E</text>
	<text transform="matrix(1 0 0 1 497.4033 411.1758)" class="st5 st6 st7">F</text>
	<text transform="matrix(1 0 0 1 575.0068 411.1758)" class="st5 st6 st7">G</text>
	<text transform="matrix(1 0 0 1 652.6104 411.1758)" class="st5 st6 st7">H</text>
	<text transform="matrix(1 0 0 1 730.2129 411.1758)" class="st5 st6 st7">I</text>
	<text transform="matrix(1 0 0 1 807.8154 411.1758)" class="st5 st6 st7">J</text>
	<text transform="matrix(1 0 0 1 887.0033 411.1758)" class="st5 st6 st7">K</text>
	<text transform="matrix(1 0 0 1 964.6068 411.1758)" class="st5 st6 st7">L</text>
	<text transform="matrix(1 0 0 1 1042.2104 411.1758)" class="st5 st6 st7">M</text>
	<text transform="matrix(1 0 0 1 1119.8129 411.176)" class="st5 st6 st7">N</text>
	<text transform="matrix(1 0 0 1 1197.4154 411.1758)" class="st5 st6 st7">O</text>
</g>
</svg>
