<svg height="256" viewBox="0 0 256 256" width="256" xmlns="http://www.w3.org/2000/svg"><path d="m251.3 245.3v3h-247v-241.1h3v238.1zm-110.5-45.2v-68.2a12.7 12.7 0 1 1 3 0v68.2a14.5 14.5 0 1 1 -15.8 14.4 14.6 14.6 0 0 1 12.8-14.4zm1.7 2.9a11.5 11.5 0 1 0 11.5 11.5 11.6 11.6 0 0 0 -11.5-11.5zm-52.7-55v-110.1a12.7 12.7 0 1 1 3 0v110.3a14.4 14.4 0 1 1 -3-.2zm.7 3a11.5 11.5 0 1 0 11.5 11.5 11.6 11.6 0 0 0 -11.5-11.5zm-52.7 52v-101.1a12.7 12.7 0 1 1 3 0v101.3a14.4 14.4 0 1 1 -3-.2zm2.5 3.2h-2.5v-.2a11.5 11.5 0 1 0 12.2 11.5 11.4 11.4 0 0 0 -9.7-11.3zm166.5-49.1v-52.2a12.7 12.7 0 1 1 3 0v52.2a14.5 14.5 0 1 1 -15.8 14.4 14.6 14.6 0 0 1 12.8-14.4zm1.7 2.9a11.5 11.5 0 1 0 11.5 11.5 11.6 11.6 0 0 0 -11.5-11.5z"/></svg>