<svg height="256" viewBox="0 0 256 256" width="256" xmlns="http://www.w3.org/2000/svg"><path d="m254 254h-252v-252h11.8v240.2h240.2zm-191-236.2a33.5 33.5 0 0 0 -30 48.3 38.2 38.2 0 0 0 2.9 4.8c14.8 20.2 44.2 17.3 55.9-2.4 13.5-22.5-3.4-50.8-28.8-50.7zm0 72a37.9 37.9 0 0 1 -18.6-4.9l26.4 43.7c2.7 5.9 12.4 4.3 12.8-2.7l9-50a38.8 38.8 0 0 1 -29.6 13.9zm139.2-82.5a44.8 44.8 0 1 0 44.8 44.8 44.8 44.8 0 0 0 -44.8-44.8zm-46.2 63.1 4 72.8a17.2 17.2 0 0 0 33.4 5.7h.1l38.4-56.9a49.8 49.8 0 0 1 -75.9-21.6zm-102.3 107.4h-.2c-22.9 14.7-4.9 52 22.5 39.2 27-15.7 4.5-54.4-22.3-39.2zm75.8-43.1a8.2 8.2 0 0 0 -3.5.8l-58.2 34a27.7 27.7 0 0 1 25.4 27.5v1.8l41.2-51.8a7.1 7.1 0 0 0 -4.9-12.3zm3-126.7a8.7 8.7 0 0 0 -7.4 7.4l-9.9 27c7.9-4.5 19.9-2.4 25.8 5.4l1.1-30.2a8.6 8.6 0 0 0 -9.6-9.6zm-7.7 37c-4.7-.2-10.6 3-13.2 7.3-7.6 10.7 2.8 29.3 19.6 22.9 15.2-6.5 10.6-30.1-6.4-30.2zm90.1 125.7h-.5a25 25 0 0 0 -6.8 1.5l-57.3 12.6c11.6 6.9 11.9 23.9 1.7 31.5l58.7 6.7c39.8 6.4 44.1-50.8 6-52.4m-76.4 16.4c-20.2 1-17.8 30 2 28.2 18-3.4 14.7-27.8-2-28.1z"/></svg>