<?xml version="1.0" encoding="utf-8"?>
<!-- Generator: Adobe Illustrator 19.2.0, SVG Export Plug-In . SVG Version: 6.00 Build 0)  -->
<svg version="1.1" id="Layer_1" xmlns="http://www.w3.org/2000/svg" xmlns:xlink="http://www.w3.org/1999/xlink" x="0px" y="0px"
	 width="1200px" height="1200px" viewBox="0 0 1200 1200" enable-background="new 0 0 1200 1200" xml:space="preserve">
<g>
	<text transform="matrix(1 0 0 1 116.2484 181.7781)" fill="#7F7F7F" font-family="'Roboto-Regular'" font-size="64.9981px">region</text>
</g>
<g>
	<text transform="matrix(1 0 0 1 1068.5121 635.5203)" fill="#7F7F7F" font-family="'Roboto-Regular'" font-size="64.9981px">map</text>
</g>
<line fill="none" stroke="#AFAFAF" stroke-width="8" stroke-miterlimit="10" x1="207" y1="346" x2="207" y2="208"/>
<g>
	<text transform="matrix(1 0 0 1 580.9867 1179.4285)" fill="#7F7F7F" font-family="'Roboto-Regular'" font-size="64.9981px">value legend</text>
</g>
<rect x="5" y="1122" transform="matrix(6.123234e-17 -1 1 6.123234e-17 -1117 1201)" fill="#C8CDEB" width="74" height="74"/>
<rect x="117" y="1122" transform="matrix(6.123234e-17 -1 1 6.123234e-17 -1005 1313)" fill="#AFB8E3" width="74" height="74"/>
<rect x="228" y="1122" transform="matrix(6.123234e-17 -1 1 6.123234e-17 -894 1424)" fill="#939FD5" width="74" height="74"/>
<rect x="340" y="1122" transform="matrix(6.123234e-17 -1 1 6.123234e-17 -782 1536)" fill="#7581BA" width="74" height="74"/>
<line fill="none" stroke="#AFAFAF" stroke-width="8" stroke-miterlimit="10" x1="451" y1="1161" x2="544" y2="1161"/>
<polyline fill="none" stroke="#AFAFAF" stroke-width="8" stroke-miterlimit="10" points="882,179 943,179 943,1036 883,1036 "/>
<line fill="none" stroke="#AFAFAF" stroke-width="8" stroke-miterlimit="10" x1="943" y1="621" x2="1033" y2="621"/>
<g>
	<polygon fill="#7581BA" points="281.455,459.791 284.138,381.604 229.016,361.275 155.497,399.79 119.734,377.197 80.317,372.063 
		45.947,385.324 23.655,387.565 7.01,421.007 42.075,526.274 70.801,546.917 84.397,576.636 143.66,570.353 165.37,605.627 
		219.368,599.902 238.627,552.411 293.472,537.691 300.935,479.308 	"/>
	<polygon fill="#7581BA" points="626.691,702.779 636.154,782.396 605.893,837.594 628.003,859.705 620.792,961.061 
		652.751,985.639 692.137,983.989 769.604,868.675 769.604,827.955 811.248,797.4 844.66,727.074 844.66,698.161 869.924,672.896 
		824.041,625.337 767.335,602.934 706.77,598.724 683.251,629.328 683.212,629.328 652.799,668.85 	"/>
	<polygon fill="#939FD5" points="337.6,591.997 394.139,648.535 455.496,630.006 465.71,613.141 500.25,606.865 543.751,659.074 
		543.751,679.393 582.317,696.286 599.936,686.775 620.393,695.737 629.364,684.079 674.429,625.515 627.672,589.159 
		593.653,519.755 505.095,435.333 520.531,400.179 505.754,361.15 543.463,236.011 477.234,205.488 457.082,175.982 
		434.467,180.228 401.489,181.885 370.976,276.932 368.522,299.129 315.765,336.083 293.497,379.602 290.873,456.083 
		310.722,475.97 302.592,539.58 337.6,571.881 	"/>
	<polygon fill="#AFB8E3" points="582.741,706.609 534.466,685.462 534.466,662.436 496.582,616.968 471.485,621.528 
		461.592,637.864 391.502,659.031 328.314,595.842 328.314,575.947 296.415,546.515 245.496,560.181 227.736,603.976 
		247.889,642.439 214.735,693.54 241.356,728.433 226.466,744.281 229.008,788.121 248.798,818.693 262.054,917.662 
		325.942,929.426 353.68,915.557 377.861,955.209 406.508,970.453 402.937,1027.294 458.382,1038.539 480.872,1006.178 
		535.189,1013.304 558.684,950.894 611.704,957.965 618.44,863.273 594.402,839.235 626.582,780.54 617.561,704.634 
		600.359,697.099 	"/>
	<polygon fill="#AFB8E3" points="702.443,589.115 769.411,593.771 823.896,615.295 859.617,513.195 836.418,466.757 
		862.991,440.185 858.975,400.323 900.031,346.118 873.657,321.273 794.254,320.395 773.156,330.46 717.508,270.188 
		684.129,261.618 605.134,261.618 580.503,271.479 551.279,242.256 515.555,360.81 530.559,400.438 516.214,433.104 
		601.261,514.179 635.064,583.146 680.094,618.157 	"/>
</g>
</svg>
