<?xml version="1.0" encoding="utf-8"?>
<!-- Generator: Adobe Illustrator 24.0.1, SVG Export Plug-In . SVG Version: 6.00 Build 0)  -->
<svg version="1.1" id="Layer_1" xmlns="http://www.w3.org/2000/svg" xmlns:xlink="http://www.w3.org/1999/xlink" x="0px" y="0px"
	 viewBox="0 0 1268 418" style="enable-background:new 0 0 1268 418;" xml:space="preserve">
<style type="text/css">
	.st0{fill:#E5C6A9;}
	.st1{fill:#968BAF;}
	.st2{fill:#C6BFCF;}
	.st3{fill:none;stroke:#C4C4C4;stroke-miterlimit:10;}
	.st4{fill:#D1CDC9;}
	.st5{font-family:'RobotoCondensed-Regular';}
	.st6{font-size:26px;}
</style>
<g id="Layer_1_1_">
	<g>
		<circle class="st0" cx="688.5" cy="14.1" r="6"/>
		<circle class="st0" cx="723.4" cy="17.5" r="6"/>
		<circle class="st0" cx="740.7" cy="8" r="6"/>
		<circle class="st0" cx="759.4" cy="27.5" r="6"/>
		<circle class="st0" cx="780.8" cy="36.4" r="6"/>
		<circle class="st0" cx="707.4" cy="47.5" r="6"/>
		<circle class="st0" cx="770.4" cy="62.1" r="6"/>
		<circle class="st0" cx="782.4" cy="74.1" r="6"/>
		<circle class="st0" cx="745.4" cy="80.1" r="6"/>
		<circle class="st0" cx="620.1" cy="33.5" r="6"/>
		<circle class="st0" cx="620.1" cy="77" r="6"/>
		<circle class="st0" cx="658.8" cy="83" r="6"/>
		<circle class="st0" cx="563.4" cy="36.4" r="6"/>
		<circle class="st0" cx="545.4" cy="60.3" r="6"/>
		<circle class="st0" cx="537.4" cy="99.5" r="6"/>
		<circle class="st0" cx="569.4" cy="71" r="6"/>
		<circle class="st0" cx="597.9" cy="60.3" r="6"/>
		<circle class="st0" cx="650.9" cy="27.5" r="6"/>
		<circle class="st0" cx="666.4" cy="35.6" r="6"/>
		<circle class="st0" cx="431.9" cy="124.7" r="6"/>
		<circle class="st0" cx="361.9" cy="144.7" r="6"/>
		<circle class="st0" cx="321.9" cy="152.7" r="6"/>
		<circle class="st0" cx="295.9" cy="164.7" r="6"/>
		<circle class="st0" cx="496.9" cy="77" r="6"/>
		<circle class="st0" cx="431.9" cy="81.7" r="6"/>
		<circle class="st0" cx="478.5" cy="121.3" r="6"/>
		<circle class="st0" cx="429.4" cy="97.1" r="6"/>
		<circle class="st0" cx="346.4" cy="121.3" r="6"/>
		<circle class="st0" cx="387.4" cy="149.1" r="6"/>
		<circle class="st0" cx="375.4" cy="178.6" r="6"/>
		<circle class="st0" cx="243.9" cy="170.9" r="6"/>
		<circle class="st0" cx="279.4" cy="191.5" r="6"/>
		<circle class="st0" cx="164.9" cy="182.4" r="6"/>
		<circle class="st0" cx="270.9" cy="133.3" r="6"/>
	</g>
	<g>
		<circle class="st1" cx="850.7" cy="37.5" r="6"/>
		<circle class="st1" cx="830.1" cy="63.5" r="6"/>
		<circle class="st1" cx="809.4" cy="99.5" r="6"/>
		<circle class="st1" cx="937.8" cy="51.2" r="6"/>
		<circle class="st1" cx="923.1" cy="71.5" r="6"/>
		<circle class="st1" cx="951.7" cy="62.1" r="6"/>
		<circle class="st1" cx="723.4" cy="91.5" r="6"/>
		<circle class="st1" cx="746.7" cy="120.6" r="6"/>
		<circle class="st1" cx="729.4" cy="142.7" r="6"/>
		<circle class="st1" cx="515.4" cy="149.1" r="6"/>
		<circle class="st1" cx="540.2" cy="197.5" r="6"/>
		<circle class="st1" cx="484.5" cy="189.6" r="6"/>
		<circle class="st1" cx="437.9" cy="194.8" r="6"/>
		<circle class="st1" cx="443.9" cy="245.5" r="6"/>
		<circle class="st1" cx="416" cy="182.4" r="6"/>
		<circle class="st1" cx="455.9" cy="230.1" r="6"/>
		<circle class="st1" cx="375.4" cy="223.2" r="6"/>
		<circle class="st1" cx="317.4" cy="274.2" r="6"/>
		<circle class="st1" cx="387.6" cy="255.4" r="6"/>
		<circle class="st1" cx="415.6" cy="226.4" r="6"/>
		<circle class="st1" cx="249.9" cy="257.4" r="6"/>
		<circle class="st1" cx="219.4" cy="284.4" r="6"/>
		<circle class="st1" cx="244.8" cy="308.6" r="6"/>
		<circle class="st1" cx="225.4" cy="239.2" r="6"/>
		<circle class="st1" cx="694.5" cy="105.5" r="6"/>
		<circle class="st1" cx="691.1" cy="81.7" r="6"/>
		<circle class="st1" cx="681.4" cy="143.1" r="6"/>
		<circle class="st1" cx="614.1" cy="115.3" r="6"/>
		<circle class="st1" cx="628.9" cy="172.6" r="6"/>
		<circle class="st1" cx="581.9" cy="144.5" r="6"/>
		<circle class="st1" cx="608.1" cy="155.1" r="6"/>
		<circle class="st1" cx="563.4" cy="172.6" r="6"/>
		<circle class="st1" cx="632.9" cy="130.7" r="6"/>
		<circle class="st1" cx="679.1" cy="115.3" r="6"/>
		<circle class="st1" cx="893.7" cy="47.5" r="6"/>
		<circle class="st1" cx="1043.7" cy="77.5" r="6"/>
	</g>
	<g>
		<circle class="st2" cx="726.4" cy="184.6" r="6"/>
		<circle class="st2" cx="669.3" cy="170.9" r="6"/>
		<circle class="st2" cx="688.5" cy="205.4" r="6"/>
		<circle class="st2" cx="620.1" cy="196.3" r="6"/>
		<circle class="st2" cx="675.3" cy="217.2" r="6"/>
		<circle class="st2" cx="541.4" cy="223.2" r="6"/>
		<circle class="st2" cx="638.9" cy="230.1" r="6"/>
		<circle class="st2" cx="864.7" cy="133.3" r="6"/>
		<circle class="st2" cx="899.7" cy="97.5" r="6"/>
		<circle class="st2" cx="741.4" cy="169.5" r="6"/>
		<circle class="st2" cx="739.4" cy="189.9" r="6"/>
		<circle class="st2" cx="528.2" cy="242.1" r="6"/>
		<circle class="st2" cx="445.1" cy="278.1" r="6"/>
		<circle class="st2" cx="522.2" cy="274.2" r="6"/>
		<circle class="st2" cx="593.9" cy="243.4" r="6"/>
		<circle class="st2" cx="569.4" cy="290.4" r="6"/>
		<circle class="st2" cx="488.1" cy="291.7" r="6"/>
		<circle class="st2" cx="439.1" cy="319.6" r="6"/>
		<circle class="st2" cx="393.4" cy="300" r="6"/>
		<circle class="st2" cx="313.7" cy="358" r="6"/>
		<circle class="st2" cx="697.1" cy="166.5" r="6"/>
		<circle class="st2" cx="786.8" cy="117.6" r="6"/>
		<circle class="st2" cx="799.1" cy="150.7" r="6"/>
		<circle class="st2" cx="913.7" cy="99.5" r="6"/>
		<circle class="st2" cx="988.5" cy="66.3" r="6"/>
		<circle class="st2" cx="1044.5" cy="105.5" r="6"/>
		<circle class="st2" cx="1069" cy="80.5" r="6"/>
		<circle class="st2" cx="1081.7" cy="131.6" r="6"/>
		<circle class="st2" cx="1102.1" cy="91.5" r="6"/>
		<circle class="st2" cx="1121.1" cy="123.8" r="6"/>
		<circle class="st2" cx="1151.1" cy="143.8" r="6"/>
		<circle class="st2" cx="1159.1" cy="123.8" r="6"/>
		<circle class="st2" cx="1179.1" cy="143.8" r="6"/>
		<circle class="st2" cx="880.7" cy="27.5" r="6"/>
		<circle class="st2" cx="883.7" cy="57.5" r="6"/>
		<circle class="st2" cx="963.7" cy="93.5" r="6"/>
		<circle class="st2" cx="1123.7" cy="86.5" r="6"/>
	</g>
	<g>
		<g>
			<line class="st3" x1="163.1" y1="388.3" x2="163.1" y2="378.8"/>
			<line class="st3" x1="271.1" y1="388.3" x2="271.1" y2="378.8"/>
			<line class="st3" x1="487.1" y1="388.3" x2="487.1" y2="378.8"/>
			<line class="st3" x1="811.1" y1="388.3" x2="811.1" y2="378.8"/>
			<line class="st3" x1="1027.1" y1="388.3" x2="1027.1" y2="378.8"/>
			<line class="st3" x1="379.1" y1="388.3" x2="379.1" y2="378.8"/>
			<line class="st3" x1="595.1" y1="388.3" x2="595.1" y2="378.8"/>
			<line class="st3" x1="703.1" y1="388.3" x2="703.1" y2="378.8"/>
			<line class="st3" x1="919.1" y1="388.3" x2="919.1" y2="378.8"/>
			<line class="st3" x1="1135.1" y1="388.3" x2="1135.1" y2="378.8"/>
			<line class="st3" x1="1243" y1="388.3" x2="1243" y2="378.8"/>
		</g>
		<g>
			<g>
				<text transform="matrix(1 0 0 1 4.736328e-02 20.7388)" class="st4 st5 st6">100</text>
				<text transform="matrix(1 0 0 1 12.8474 93.7388)" class="st4 st5 st6">80</text>
				<text transform="matrix(1 0 0 1 12.8474 166.7388)" class="st4 st5 st6">60</text>
				<text transform="matrix(1 0 0 1 12.8474 239.7388)" class="st4 st5 st6">40</text>
				<text transform="matrix(1 0 0 1 12.8474 312.7388)" class="st4 st5 st6">20</text>
			</g>
			<polyline class="st3" points="55.2,1.6 55.2,379 1266,379 			"/>
			<g>
				<line class="st3" x1="45.5" y1="10" x2="55.5" y2="10"/>
				<line class="st3" x1="45.5" y1="305" x2="55.5" y2="305"/>
				<line class="st3" x1="45.5" y1="231" x2="55.5" y2="231"/>
				<line class="st3" x1="45.5" y1="158" x2="55.5" y2="158"/>
				<line class="st3" x1="45.5" y1="84" x2="55.5" y2="84"/>
			</g>
			<g>
				<g>
					<text transform="matrix(1 0 0 1 689.0517 415.6859)" class="st4 st5 st6">60</text>
				</g>
				<g>
					<text transform="matrix(1 0 0 1 904.1911 415.6859)" class="st4 st5 st6">80</text>
				</g>
				<g>
					<text transform="matrix(1 0 0 1 1120.1912 415.6859)" class="st4 st5 st6">100</text>
				</g>
				<g>
					<text transform="matrix(1 0 0 1 472.9833 415.6859)" class="st4 st5 st6">40</text>
				</g>
				<g>
					<text transform="matrix(1 0 0 1 256.9833 415.6859)" class="st4 st5 st6">20</text>
				</g>
				<g>
					<text transform="matrix(1 0 0 1 1326.7114 415.6859)" class="st4 st5 st6">2020</text>
				</g>
			</g>
		</g>
	</g>
</g>
<g id="Layer_2_1_">
</g>
<g id="Layer_3">
</g>
</svg>
