<svg xmlns="http://www.w3.org/2000/svg" width="252" height="252" viewBox="0 0 252 252"><title>icon</title><path d="M39.4,206.8a9.8,9.8,0,1,1-9.8,9.8A9.8,9.8,0,0,1,39.4,206.8Zm118.9-51.4a9.9,9.9,0,1,1-9.8,9.8A9.8,9.8,0,0,1,158.3,155.4ZM122.1,17.8a9.8,9.8,0,1,1-9.9,9.8A9.8,9.8,0,0,1,122.1,17.8Zm90.6,74.8a9.9,9.9,0,0,1,0,19.7,9.9,9.9,0,1,1,0-19.7Zm15.7-59.1a9.9,9.9,0,1,1-9.8,9.8A9.8,9.8,0,0,1,228.4,33.5ZM254,242.2H13.8V2H2V254H254ZM178.7,52.9a9.9,9.9,0,1,1-9.9,9.9,9.8,9.8,0,0,1,9.9-9.9Zm5.7,138.9a9.9,9.9,0,0,1,11.4,11.4,9.8,9.8,0,0,1-19.4-3.3A10,10,0,0,1,184.4,191.8Z" transform="translate(-2 -2)"/><path d="M87.1,90.9a9.8,9.8,0,1,1-9.8,9.8,9.8,9.8,0,0,1,9.8-9.8ZM105.7,198a9.9,9.9,0,1,1-9.8,9.9,9.9,9.9,0,0,1,9.8-9.9Zm110-55.7a9.9,9.9,0,1,1-8.1,8.1A9.9,9.9,0,0,1,215.7,142.3Zm-72-32.5a9.9,9.9,0,1,1-9.9,9.9A9.8,9.8,0,0,1,143.7,109.8ZM75.2,148.2a9.9,9.9,0,1,1-9.8,9.8,9.8,9.8,0,0,1,9.8-9.8ZM193.5,5.3a9.8,9.8,0,0,1,9.9,10.1,10.1,10.1,0,0,1-9.6,9.6,9.9,9.9,0,1,1-.3-19.7Z" transform="translate(-2 -2)" opacity="0.5"/></svg>