<?xml version="1.0" encoding="utf-8"?>
<!-- Generator: Adobe Illustrator 24.0.1, SVG Export Plug-In . SVG Version: 6.00 Build 0)  -->
<svg version="1.1" id="Layer_1" xmlns="http://www.w3.org/2000/svg" xmlns:xlink="http://www.w3.org/1999/xlink" x="0px" y="0px"
	 viewBox="0 0 1268 418" style="enable-background:new 0 0 1268 418;" xml:space="preserve">
<style type="text/css">
	.st0{fill:none;}
	.st1{fill:none;stroke:#CCCCCC;stroke-width:1.4836;}
	.st2{fill:#CCCCCC;}
	.st3{font-family:'RobotoMono-Regular';}
	.st4{font-size:16px;}
	.st5{fill:none;stroke:#E8E8E8;stroke-width:1.5504;stroke-miterlimit:10;}
	.st6{fill:#C6BFCF;}
	.st7{fill:none;stroke:#CCCCCC;stroke-width:1.6786;}
</style>
<g>
	<path class="st0" d="M70.4,6.6H1014v377.5H70.4V6.6z"/>
	<g transform="translate(.5 .5)">
		<g>
			<path class="st1" d="M54,385.9h0.2"/>
			<path class="st1" d="M54,311.6"/>
			<path class="st1" d="M54,237.5"/>
			<path class="st1" d="M54,163.4"/>
			<path class="st1" d="M54,89.2"/>
		</g>
		<text transform="matrix(1 0 0 1 34.6348 390.2836)" class="st2 st3 st4">0</text>
		<text transform="matrix(1 0 0 1 25.3306 316.1049)" class="st2 st3 st4">10</text>
		<text transform="matrix(1 0 0 1 25.3306 241.9272)" class="st2 st3 st4">20</text>
		<text transform="matrix(1 0 0 1 25.3306 167.7523)" class="st2 st3 st4">30</text>
		<text transform="matrix(1 0 0 1 25.3306 93.5751)" class="st2 st3 st4">40</text>
		<path class="st1" d="M54,14.3"/>
		<path class="st5" d="M1244.5,311.6H54"/>
		<path class="st5" d="M1244.5,237.5H54"/>
		<path class="st5" d="M1244.5,163.4H54"/>
		<path class="st5" d="M1244.5,89.2H54"/>
		<path class="st5" d="M1244.5,14.3H54"/>
		<text transform="matrix(1 0 0 1 25.3306 18.7558)" class="st2 st3 st4">50</text>
	</g>
</g>
<path class="st6" d="M71.8,206.4h51.8V325H71.8V206.4z"/>
<path class="st6" d="M144.9,86.2l51.8-0.2l0.5,181.1l-51.8,0.2L144.9,86.2z"/>
<path class="st6" d="M220.2,57.1H272v290.4h-51.8V57.1z"/>
<path class="st6" d="M294.3,20.7h51.8v137.7h-51.8V20.7z"/>
<path class="st6" d="M368.6,121.1h51.8v140.5h-51.8L368.6,121.1L368.6,121.1z"/>
<path class="st6" d="M442.8,6.6h51.8v95.2h-51.8V6.6z"/>
<path class="st6" d="M516.9,76.8h51.9v232.4h-51.9V76.8L516.9,76.8z"/>
<path class="st6" d="M591.1,175.1h51.8v179.1h-51.8V175.1z"/>
<path class="st6" d="M665.3,136.3h51.6v159.5h-51.8L665.3,136.3L665.3,136.3z"/>
<path class="st6" d="M739.4,37.3h51.8v216h-51.8V37.3z"/>
<path class="st6" d="M813.7,94.5h51.8v201.9h-51.8V94.5z"/>
<path class="st6" d="M887.8,186.4h51.6v156.3h-51.8L887.8,186.4L887.8,186.4z"/>
<path class="st6" d="M961.9,59.7h51.8V232h-51.8V59.7z"/>
<g transform="translate(.5 200.5)">
	<g>
		<path class="st1" d="M97.4,185.9v7.3"/>
		<path class="st1" d="M171.5,185.9v7.3"/>
		<path class="st1" d="M245.6,185.9v7.3"/>
		<path class="st1" d="M319.9,185.9v7.3"/>
		<path class="st1" d="M394.1,185.9v7.3"/>
		<path class="st1" d="M468.1,185.9v7.3"/>
		<path class="st1" d="M542.3,185.9v7.3"/>
		<path class="st1" d="M616.4,185.9v7.3"/>
		<path class="st1" d="M690.7,185.9v7.3"/>
		<path class="st1" d="M764.8,185.9v7.3"/>
	</g>
	<text transform="matrix(1 0 0 1 93.166 213.7553)" class="st2 st3 st4">A</text>
	<text transform="matrix(1 0 0 1 167.3438 213.7553)" class="st2 st3 st4">B</text>
	<text transform="matrix(1 0 0 1 241.521 213.7553)" class="st2 st3 st4">C</text>
	<text transform="matrix(1 0 0 1 315.6987 213.7553)" class="st2 st3 st4">D</text>
	<text transform="matrix(1 0 0 1 389.876 213.7553)" class="st2 st3 st4">E</text>
	<text transform="matrix(1 0 0 1 464.0532 213.7553)" class="st2 st3 st4">F</text>
	<text transform="matrix(1 0 0 1 538.2305 213.7553)" class="st2 st3 st4">G</text>
	<text transform="matrix(1 0 0 1 612.4062 213.7553)" class="st2 st3 st4">H</text>
	<text transform="matrix(1 0 0 1 685.5869 213.7553)" class="st2 st3 st4">I</text>
	<text transform="matrix(1 0 0 1 758.7637 213.7553)" class="st2 st3 st4">J</text>
	<path class="st1" d="M838.9,185.9v7.3"/>
	<path class="st1" d="M913.2,185.9v7.3"/>
	<path class="st1" d="M987.5,185.9v7.3"/>
	<text transform="matrix(1 0 0 1 834.9404 213.7553)" class="st2 st3 st4">K</text>
	<text transform="matrix(1 0 0 1 909.1172 213.7553)" class="st2 st3 st4">L</text>
	<text transform="matrix(1 0 0 1 983.2959 213.7553)" class="st2 st3 st4">M</text>
	<path class="st7" d="M54,185.9h1190.5"/>
</g>
<path class="st6" d="M1035.4,151h51.8v111.3h-51.8V151z"/>
<path class="st6" d="M1110.7,124h51.8v176h-51.8V124z"/>
<path class="st6" d="M1184.8,59h51.6v280h-51.8L1184.8,59L1184.8,59z"/>
<path class="st1" d="M1061.7,386.4v7.3"/>
<text transform="matrix(1 0 0 1 1055.6353 414.2553)" class="st2 st3 st4">N</text>
<path class="st1" d="M1135.8,386.4v7.3"/>
<path class="st1" d="M1210.1,386.4v7.3"/>
<text transform="matrix(1 0 0 1 1131.812 414.2553)" class="st2 st3 st4">O</text>
<text transform="matrix(1 0 0 1 1205.9888 414.2553)" class="st2 st3 st4">P</text>
</svg>
