<?xml version="1.0" encoding="utf-8"?>
<!-- Generator: Adobe Illustrator 24.0.1, SVG Export Plug-In . SVG Version: 6.00 Build 0)  -->
<svg version="1.1" id="Layer_1" xmlns="http://www.w3.org/2000/svg" xmlns:xlink="http://www.w3.org/1999/xlink" x="0px" y="0px"
	 viewBox="0 0 1268 418" enable-background="new 0 0 1268 418" xml:space="preserve">
<g id="Layer_2_1_">
</g>
<g id="Layer_3">
</g>
<g>
	<rect x="97.1" y="1.5" fill="#D9D3E2" width="56.4" height="42.3"/>
	<rect x="97.1" y="46.6" fill="#C8BAD8" width="56.4" height="42.3"/>
	<rect x="97.1" y="91.7" fill="#C8BAD8" width="56.4" height="42.3"/>
	<rect x="97.1" y="136.7" fill="#C8BAD8" width="56.4" height="42.3"/>
	<rect x="97.1" y="181.3" fill="#C8BAD8" width="56.4" height="42.3"/>
	<rect x="97.1" y="226.3" fill="#C8BAD8" width="56.4" height="42.3"/>
	<rect x="97.1" y="271.5" fill="#C8BAD8" width="56.4" height="42.3"/>
</g>
<g>
	<rect x="157" y="46.6" fill="#B9ACCC" width="56.4" height="42.3"/>
	<rect x="157" y="91.7" fill="#B9ACCC" width="56.4" height="42.3"/>
	<rect x="157" y="136.7" fill="#B9ACCC" width="56.4" height="42.3"/>
	<rect x="157" y="181.3" fill="#B9ACCC" width="56.4" height="42.3"/>
	<rect x="157" y="226.3" fill="#B9ACCC" width="56.4" height="42.3"/>
	<rect x="157" y="271.5" fill="#B9ACCC" width="56.4" height="42.3"/>
</g>
<g>
	<g>
		<rect x="216.8" y="136.7" fill="#8B77AA" width="56.4" height="42.3"/>
		<rect x="216.8" y="181.3" fill="#8B77AA" width="56.4" height="42.3"/>
		<rect x="216.8" y="226.3" fill="#A198AF" width="56.4" height="42.3"/>
		<rect x="216.8" y="271.5" fill="#E2E2E2" width="56.4" height="42.3"/>
	</g>
</g>
<g>
	<g>
		<rect x="276.7" y="136.7" fill="#8B77AA" width="56.4" height="42.3"/>
		<rect x="276.7" y="181.3" fill="#8B77AA" width="56.4" height="42.3"/>
		<rect x="276.7" y="226.3" fill="#8B77AA" width="56.4" height="42.3"/>
		<rect x="276.7" y="271.5" fill="#8B77AA" width="56.4" height="42.3"/>
	</g>
	<rect x="276.7" y="329.1" fill="#A198AF" width="56.4" height="42.3"/>
	<rect x="276.7" y="374.2" fill="#E2E2E2" width="56.4" height="42.3"/>
</g>
<g>
	<g>
		<rect x="336.6" y="136.7" fill="#8B77AA" width="56.4" height="42.3"/>
		<rect x="336.6" y="181.3" fill="#8B77AA" width="56.4" height="42.3"/>
		<rect x="336.6" y="226.3" fill="#8B77AA" width="56.4" height="42.3"/>
		<rect x="336.6" y="271.5" fill="#8B77AA" width="56.4" height="42.3"/>
	</g>
	<rect x="336.6" y="329.1" fill="#A198AF" width="56.4" height="42.3"/>
	<rect x="336.6" y="374.2" fill="#E2E2E2" width="56.4" height="42.3"/>
</g>
<g>
	<rect x="396.6" y="136.7" fill="#8B77AA" width="56.4" height="42.3"/>
	<rect x="396.6" y="181.3" fill="#8B77AA" width="56.4" height="42.3"/>
	<rect x="396.6" y="226.3" fill="#8B77AA" width="56.4" height="42.3"/>
	<rect x="396.6" y="271.5" fill="#8B77AA" width="56.4" height="42.3"/>
	<rect x="396.6" y="329.1" fill="#A198AF" width="56.4" height="42.3"/>
	<rect x="396.6" y="374.2" fill="#E2E2E2" width="56.4" height="42.3"/>
</g>
<g>
	<rect x="456.5" y="136.7" fill="#8B77AA" width="56.4" height="42.3"/>
	<rect x="456.5" y="181.3" fill="#8B77AA" width="56.4" height="42.3"/>
	<rect x="456.5" y="226.3" fill="#8B77AA" width="56.4" height="42.3"/>
	<rect x="456.5" y="271.5" fill="#8B77AA" width="56.4" height="42.3"/>
	<rect x="456.5" y="329.1" fill="#A198AF" width="56.4" height="42.3"/>
	<rect x="456.5" y="374.2" fill="#E2E2E2" width="56.4" height="42.3"/>
</g>
<g>
	<rect x="516.4" y="136.7" fill="#8B77AA" width="56.4" height="42.3"/>
	<rect x="516.4" y="181.3" fill="#8B77AA" width="56.4" height="42.3"/>
	<rect x="516.4" y="226.3" fill="#8B77AA" width="56.4" height="42.3"/>
	<rect x="516.4" y="271.5" fill="#8B77AA" width="56.4" height="42.3"/>
	<rect x="516.4" y="329.1" fill="#A198AF" width="56.4" height="42.3"/>
	<rect x="516.4" y="374.2" fill="#E2E2E2" width="56.4" height="42.3"/>
</g>
<g>
	<rect x="576.3" y="136.7" fill="#8B77AA" width="56.4" height="42.3"/>
	<rect x="576.3" y="181.3" fill="#8B77AA" width="56.4" height="42.3"/>
	<rect x="576.3" y="226.3" fill="#8B77AA" width="56.4" height="42.3"/>
	<rect x="576.3" y="271.5" fill="#B0A4E0" width="56.4" height="42.3"/>
	<rect x="576.3" y="329.1" fill="#A198AF" width="56.4" height="42.3"/>
	<rect x="576.3" y="374.2" fill="#E2E2E2" width="56.4" height="42.3"/>
</g>
<g>
	<rect x="636.2" y="136.7" fill="#8B77AA" width="56.4" height="42.3"/>
	<rect x="636.2" y="181.3" fill="#8B77AA" width="56.4" height="42.3"/>
	<rect x="636.2" y="226.3" fill="#8B77AA" width="56.4" height="42.3"/>
	<rect x="636.2" y="271.5" fill="#B0A4E0" width="56.4" height="42.3"/>
	<rect x="636.2" y="329.1" fill="#A198AF" width="56.4" height="42.3"/>
	<rect x="636.2" y="374.2" fill="#E2E2E2" width="56.4" height="42.3"/>
</g>
<g>
	<rect x="696.2" y="136.7" fill="#8B77AA" width="56.4" height="42.3"/>
	<rect x="696.2" y="181.3" fill="#8B77AA" width="56.4" height="42.3"/>
	<rect x="696.2" y="226.3" fill="#8B77AA" width="56.4" height="42.3"/>
	<rect x="696.2" y="271.5" fill="#B0A4E0" width="56.4" height="42.3"/>
	<rect x="696.2" y="329.1" fill="#A198AF" width="56.4" height="42.3"/>
	<rect x="696.2" y="374.2" fill="#E2E2E2" width="56.4" height="42.3"/>
</g>
<g>
	<rect x="756.1" y="136.7" fill="#8B77AA" width="56.4" height="42.3"/>
	<rect x="756.1" y="181.3" fill="#8B77AA" width="56.4" height="42.3"/>
	<rect x="756.1" y="226.3" fill="#8B77AA" width="56.4" height="42.3"/>
	<rect x="756.1" y="271.5" fill="#8B77AA" width="56.4" height="42.3"/>
	<rect x="756.1" y="329.1" fill="#A198AF" width="56.4" height="42.3"/>
	<rect x="756.1" y="374.2" fill="#E2E2E2" width="56.4" height="42.3"/>
</g>
<g>
	<rect x="816" y="46.6" fill="#5B5087" width="56.4" height="42.3"/>
	<rect x="816" y="91.7" fill="#6E56A8" width="56.4" height="42.3"/>
	<rect x="816" y="136.7" fill="#6E56A8" width="56.4" height="42.3"/>
	<rect x="816" y="181.3" fill="#6E56A8" width="56.4" height="42.3"/>
	<rect x="816" y="226.3" fill="#6E56A8" width="56.4" height="42.3"/>
	<rect x="816" y="271.5" fill="#B0A4E0" width="56.4" height="42.3"/>
	<rect x="816" y="329.1" fill="#A198AF" width="56.4" height="42.3"/>
	<rect x="816" y="374.2" fill="#E2E2E2" width="56.4" height="42.3"/>
</g>
<g>
	<rect x="875.9" y="46.6" fill="#9582C4" width="56.4" height="42.3"/>
	<rect x="875.9" y="91.7" fill="#5B5087" width="56.4" height="42.3"/>
	<rect x="875.9" y="136.7" fill="#5B5087" width="56.4" height="42.3"/>
	<rect x="875.9" y="181.3" fill="#6E56A8" width="56.4" height="42.3"/>
	<rect x="875.9" y="226.3" fill="#6E56A8" width="56.4" height="42.3"/>
	<rect x="875.9" y="271.5" fill="#B0A4E0" width="56.4" height="42.3"/>
	<rect x="875.9" y="329.1" fill="#A198AF" width="56.4" height="42.3"/>
	<rect x="875.9" y="374.2" fill="#E2E2E2" width="56.4" height="42.3"/>
</g>
<g>
	<rect x="935.8" y="46.6" fill="#9582C4" width="56.4" height="42.3"/>
	<rect x="935.8" y="91.7" fill="#9582C4" width="56.4" height="42.3"/>
	<rect x="935.8" y="136.7" fill="#5B5087" width="56.4" height="42.3"/>
	<rect x="935.8" y="181.3" fill="#5B5087" width="56.4" height="42.3"/>
	<rect x="935.8" y="226.3" fill="#6E56A8" width="56.4" height="42.3"/>
	<rect x="935.8" y="271.5" fill="#B0A4E0" width="56.4" height="42.3"/>
	<rect x="935.8" y="329.1" fill="#A198AF" width="56.4" height="42.3"/>
	<rect x="935.8" y="374.2" fill="#E2E2E2" width="56.4" height="42.3"/>
</g>
<g>
	<rect x="995.8" y="46.6" fill="#9582C4" width="56.4" height="42.3"/>
	<rect x="995.8" y="91.7" fill="#9582C4" width="56.4" height="42.3"/>
	<rect x="995.8" y="136.7" fill="#9582C4" width="56.4" height="42.3"/>
	<rect x="995.8" y="181.3" fill="#5B5087" width="56.4" height="42.3"/>
	<rect x="995.8" y="226.3" fill="#6E56A8" width="56.4" height="42.3"/>
	<rect x="995.8" y="271.5" fill="#B0A4E0" width="56.4" height="42.3"/>
	<rect x="995.8" y="329.1" fill="#A198AF" width="56.4" height="42.3"/>
	<rect x="995.8" y="374.2" fill="#E2E2E2" width="56.4" height="42.3"/>
</g>
<g>
	<rect x="1055.7" y="46.6" fill="#6042B2" width="56.4" height="42.3"/>
	<rect x="1055.7" y="91.7" fill="#6042B2" width="56.4" height="42.3"/>
	<rect x="1055.7" y="136.7" fill="#6042B2" width="56.4" height="42.3"/>
	<rect x="1055.7" y="181.3" fill="#6042B2" width="56.4" height="42.3"/>
	<rect x="1055.7" y="226.3" fill="#6042B2" width="56.4" height="42.3"/>
	<rect x="1055.7" y="271.5" fill="#B0A4E0" width="56.4" height="42.3"/>
	<rect x="1055.7" y="329.1" fill="#A198AF" width="56.4" height="42.3"/>
	<rect x="1055.7" y="374.2" fill="#E2E2E2" width="56.4" height="42.3"/>
</g>
<g>
	<rect x="1115.6" y="1.5" fill="#A98BD6" width="56.4" height="42.3"/>
	<rect x="1115.6" y="46.6" fill="#A98BD6" width="56.4" height="42.3"/>
	<rect x="1115.6" y="91.7" fill="#A98BD6" width="56.4" height="42.3"/>
	<rect x="1115.6" y="136.7" fill="#A98BD6" width="56.4" height="42.3"/>
	<rect x="1115.6" y="181.3" fill="#A98BD6" width="56.4" height="42.3"/>
	<rect x="1115.6" y="226.3" fill="#A98BD6" width="56.4" height="42.3"/>
	<rect x="1115.6" y="271.5" fill="#A98BD6" width="56.4" height="42.3"/>
</g>
<text transform="matrix(1 0 0 1 112.6374 75.8328)" fill="#FFFFFF" font-family="'RobotoMono-Regular'" font-size="18px">Li</text>
<text transform="matrix(1 0 0 1 118.0383 30.8117)" fill="#FFFFFF" font-family="'RobotoMono-Regular'" font-size="18px">H</text>
<text transform="matrix(1 0 0 1 118.0383 165.9807)" fill="#FFFFFF" font-family="'RobotoMono-Regular'" font-size="18px">K</text>
<text transform="matrix(1 0 0 1 112.6374 120.9596)" fill="#FFFFFF" font-family="'RobotoMono-Regular'" font-size="18px">Na</text>
<text transform="matrix(1 0 0 1 112.6374 255.5998)" fill="#FFFFFF" font-family="'RobotoMono-Regular'" font-size="18px">Cs</text>
<text transform="matrix(1 0 0 1 112.6374 300.7263)" fill="#FFFFFF" font-family="'RobotoMono-Regular'" font-size="18px">Fr</text>
<text transform="matrix(1 0 0 1 112.6374 210.5787)" fill="#FFFFFF" font-family="'RobotoMono-Regular'" font-size="18px">Rb</text>
<text transform="matrix(1 0 0 1 172.7633 75.8328)" fill="#FFFFFF" font-family="'RobotoMono-Regular'" font-size="18px">Be</text>
<text transform="matrix(1 0 0 1 172.7633 165.9807)" fill="#FFFFFF" font-family="'RobotoMono-Regular'" font-size="18px">Ca</text>
<text transform="matrix(1 0 0 1 172.7633 120.9596)" fill="#FFFFFF" font-family="'RobotoMono-Regular'" font-size="18px">Mg</text>
<text transform="matrix(1 0 0 1 172.7633 255.5998)" fill="#FFFFFF" font-family="'RobotoMono-Regular'" font-size="18px">Ba</text>
<text transform="matrix(1 0 0 1 172.7633 300.7263)" fill="#FFFFFF" font-family="'RobotoMono-Regular'" font-size="18px">Ra</text>
<text transform="matrix(1 0 0 1 172.7633 210.5787)" fill="#FFFFFF" font-family="'RobotoMono-Regular'" font-size="18px">Sr</text>
<text transform="matrix(1 0 0 1 232.4115 165.9807)" fill="#FFFFFF" font-family="'RobotoMono-Regular'" font-size="18px">Sc</text>
<text transform="matrix(1 0 0 1 232.4115 255.5998)" fill="#FFFFFF" font-family="'RobotoMono-Regular'" font-size="18px">La</text>
<text transform="matrix(1 0 0 1 232.4115 300.7263)" fill="#FFFFFF" font-family="'RobotoMono-Regular'" font-size="18px">Ac</text>
<text transform="matrix(1 0 0 1 237.8124 210.5787)" fill="#FFFFFF" font-family="'RobotoMono-Regular'" font-size="18px">Y</text>
<text transform="matrix(1 0 0 1 293.2983 165.9807)" fill="#FFFFFF" font-family="'RobotoMono-Regular'" font-size="18px">Ti</text>
<text transform="matrix(1 0 0 1 293.2939 255.5998)" fill="#FFFFFF" font-family="'RobotoMono-Regular'" font-size="18px">Hf</text>
<text transform="matrix(1 0 0 1 293.2939 300.7263)" fill="#FFFFFF" font-family="'RobotoMono-Regular'" font-size="18px">Rf</text>
<text transform="matrix(1 0 0 1 293.2983 210.5787)" fill="#FFFFFF" font-family="'RobotoMono-Regular'" font-size="18px">Zr</text>
<text transform="matrix(1 0 0 1 358.5862 165.9807)" fill="#FFFFFF" font-family="'RobotoMono-Regular'" font-size="18px">V</text>
<text transform="matrix(1 0 0 1 353.1854 255.5998)" fill="#FFFFFF" font-family="'RobotoMono-Regular'" font-size="18px">Ta</text>
<text transform="matrix(1 0 0 1 353.1854 300.7263)" fill="#FFFFFF" font-family="'RobotoMono-Regular'" font-size="18px">Db</text>
<text transform="matrix(1 0 0 1 353.1854 210.5787)" fill="#FFFFFF" font-family="'RobotoMono-Regular'" font-size="18px">Nb</text>
<text transform="matrix(1 0 0 1 413.2131 165.9807)" fill="#FFFFFF" font-family="'RobotoMono-Regular'" font-size="18px">Cr</text>
<text transform="matrix(1 0 0 1 418.614 255.5998)" fill="#FFFFFF" font-family="'RobotoMono-Regular'" font-size="18px">W</text>
<text transform="matrix(1 0 0 1 413.2131 300.7263)" fill="#FFFFFF" font-family="'RobotoMono-Regular'" font-size="18px">Sg</text>
<text transform="matrix(1 0 0 1 413.2131 210.5787)" fill="#FFFFFF" font-family="'RobotoMono-Regular'" font-size="18px">Mo</text>
<text transform="matrix(1 0 0 1 473.1005 165.9807)" fill="#FFFFFF" font-family="'RobotoMono-Regular'" font-size="18px">Mn</text>
<text transform="matrix(1 0 0 1 473.1005 255.5998)" fill="#FFFFFF" font-family="'RobotoMono-Regular'" font-size="18px">Re</text>
<text transform="matrix(1 0 0 1 473.1005 300.7263)" fill="#FFFFFF" font-family="'RobotoMono-Regular'" font-size="18px">Bh</text>
<text transform="matrix(1 0 0 1 473.1005 210.5787)" fill="#FFFFFF" font-family="'RobotoMono-Regular'" font-size="18px">Tc</text>
<text transform="matrix(1 0 0 1 532.9872 165.9807)" fill="#FFFFFF" font-family="'RobotoMono-Regular'" font-size="18px">Fe</text>
<text transform="matrix(1 0 0 1 532.9872 255.5998)" fill="#FFFFFF" font-family="'RobotoMono-Regular'" font-size="18px">Os</text>
<text transform="matrix(1 0 0 1 532.9872 300.7263)" fill="#FFFFFF" font-family="'RobotoMono-Regular'" font-size="18px">Hs</text>
<text transform="matrix(1 0 0 1 532.9872 210.5787)" fill="#FFFFFF" font-family="'RobotoMono-Regular'" font-size="18px">Ru</text>
<text transform="matrix(1 0 0 1 592.8741 165.9807)" fill="#FFFFFF" font-family="'RobotoMono-Regular'" font-size="18px">Co</text>
<text transform="matrix(1 0 0 1 592.8741 255.5998)" fill="#FFFFFF" font-family="'RobotoMono-Regular'" font-size="18px">Ir</text>
<text transform="matrix(1 0 0 1 592.8741 300.7263)" fill="#FFFFFF" font-family="'RobotoMono-Regular'" font-size="18px">Mt</text>
<text transform="matrix(1 0 0 1 592.8741 210.5787)" fill="#FFFFFF" font-family="'RobotoMono-Regular'" font-size="18px">Rh</text>
<text transform="matrix(1 0 0 1 652.7614 165.9807)" fill="#FFFFFF" font-family="'RobotoMono-Regular'" font-size="18px">Ni</text>
<text transform="matrix(1 0 0 1 652.7614 255.5998)" fill="#FFFFFF" font-family="'RobotoMono-Regular'" font-size="18px">Pt</text>
<text transform="matrix(1 0 0 1 652.7614 300.7263)" fill="#FFFFFF" font-family="'RobotoMono-Regular'" font-size="18px">Ds</text>
<text transform="matrix(1 0 0 1 652.7614 210.5787)" fill="#FFFFFF" font-family="'RobotoMono-Regular'" font-size="18px">Pd</text>
<text transform="matrix(1 0 0 1 712.7888 165.9807)" fill="#FFFFFF" font-family="'RobotoMono-Regular'" font-size="18px">Cu</text>
<text transform="matrix(1 0 0 1 712.7888 255.5998)" fill="#FFFFFF" font-family="'RobotoMono-Regular'" font-size="18px">Au</text>
<text transform="matrix(1 0 0 1 712.7888 300.7263)" fill="#FFFFFF" font-family="'RobotoMono-Regular'" font-size="18px">Rg</text>
<text transform="matrix(1 0 0 1 712.7888 210.5787)" fill="#FFFFFF" font-family="'RobotoMono-Regular'" font-size="18px">Ag</text>
<text transform="matrix(1 0 0 1 772.6758 165.9807)" fill="#FFFFFF" font-family="'RobotoMono-Regular'" font-size="18px">Zn</text>
<text transform="matrix(1 0 0 1 772.6758 255.5998)" fill="#FFFFFF" font-family="'RobotoMono-Regular'" font-size="18px">Hg</text>
<text transform="matrix(1 0 0 1 772.6758 300.7263)" fill="#FFFFFF" font-family="'RobotoMono-Regular'" font-size="18px">Cn</text>
<text transform="matrix(1 0 0 1 772.6758 210.5787)" fill="#FFFFFF" font-family="'RobotoMono-Regular'" font-size="18px">Cd</text>
<text transform="matrix(1 0 0 1 832.5631 165.9807)" fill="#FFFFFF" font-family="'RobotoMono-Regular'" font-size="18px">Ga</text>
<text transform="matrix(1 0 0 1 832.5631 255.5998)" fill="#FFFFFF" font-family="'RobotoMono-Regular'" font-size="18px">Tl</text>
<text transform="matrix(1 0 0 1 832.5631 300.7263)" fill="#FFFFFF" font-family="'RobotoMono-Regular'" font-size="18px">Nh</text>
<text transform="matrix(1 0 0 1 832.5631 210.5787)" fill="#FFFFFF" font-family="'RobotoMono-Regular'" font-size="18px">In</text>
<text transform="matrix(1 0 0 1 892.4497 165.9807)" fill="#FFFFFF" font-family="'RobotoMono-Regular'" font-size="18px">Ge</text>
<text transform="matrix(1 0 0 1 892.4497 255.5998)" fill="#FFFFFF" font-family="'RobotoMono-Regular'" font-size="18px">Pb</text>
<text transform="matrix(1 0 0 1 892.4497 300.7263)" fill="#FFFFFF" font-family="'RobotoMono-Regular'" font-size="18px">Fl</text>
<text transform="matrix(1 0 0 1 892.4497 210.5787)" fill="#FFFFFF" font-family="'RobotoMono-Regular'" font-size="18px">Sn</text>
<text transform="matrix(1 0 0 1 952.3375 165.9807)" fill="#FFFFFF" font-family="'RobotoMono-Regular'" font-size="18px">As</text>
<text transform="matrix(1 0 0 1 957.7384 120.4312)" fill="#FFFFFF" font-family="'RobotoMono-Regular'" font-size="18px">P</text>
<text transform="matrix(1 0 0 1 952.3375 255.5998)" fill="#FFFFFF" font-family="'RobotoMono-Regular'" font-size="18px">Bi</text>
<text transform="matrix(1 0 0 1 952.3375 300.7263)" fill="#FFFFFF" font-family="'RobotoMono-Regular'" font-size="18px">Mc</text>
<text transform="matrix(1 0 0 1 952.3375 210.5787)" fill="#FFFFFF" font-family="'RobotoMono-Regular'" font-size="18px">Sb</text>
<text transform="matrix(1 0 0 1 1012.3646 165.9807)" fill="#FFFFFF" font-family="'RobotoMono-Regular'" font-size="18px">Se</text>
<text transform="matrix(1 0 0 1 1012.3646 255.5998)" fill="#FFFFFF" font-family="'RobotoMono-Regular'" font-size="18px">Po</text>
<text transform="matrix(1 0 0 1 1012.3646 300.7263)" fill="#FFFFFF" font-family="'RobotoMono-Regular'" font-size="18px">Lv</text>
<text transform="matrix(1 0 0 1 1012.3646 210.5787)" fill="#FFFFFF" font-family="'RobotoMono-Regular'" font-size="18px">Te</text>
<text transform="matrix(1 0 0 1 1072.2524 165.9807)" fill="#FFFFFF" font-family="'RobotoMono-Regular'" font-size="18px">Br</text>
<text transform="matrix(1 0 0 1 1072.2524 255.5998)" fill="#FFFFFF" font-family="'RobotoMono-Regular'" font-size="18px">At</text>
<text transform="matrix(1 0 0 1 1072.2524 300.7263)" fill="#FFFFFF" font-family="'RobotoMono-Regular'" font-size="18px">Ts</text>
<text transform="matrix(1 0 0 1 293.2983 358.3344)" fill="#FFFFFF" font-family="'RobotoMono-Regular'" font-size="18px">Ce</text>
<text transform="matrix(1 0 0 1 353.1854 358.3344)" fill="#FFFFFF" font-family="'RobotoMono-Regular'" font-size="18px">Pr</text>
<text transform="matrix(1 0 0 1 413.2131 358.3344)" fill="#FFFFFF" font-family="'RobotoMono-Regular'" font-size="18px">Nd</text>
<text transform="matrix(1 0 0 1 473.1005 358.3344)" fill="#FFFFFF" font-family="'RobotoMono-Regular'" font-size="18px">Pm</text>
<text transform="matrix(1 0 0 1 532.9872 358.3344)" fill="#FFFFFF" font-family="'RobotoMono-Regular'" font-size="18px">Sm</text>
<text transform="matrix(1 0 0 1 592.8741 358.3344)" fill="#FFFFFF" font-family="'RobotoMono-Regular'" font-size="18px">Eu</text>
<text transform="matrix(1 0 0 1 652.7614 358.3344)" fill="#FFFFFF" font-family="'RobotoMono-Regular'" font-size="18px">Gd</text>
<text transform="matrix(1 0 0 1 712.7888 358.3344)" fill="#FFFFFF" font-family="'RobotoMono-Regular'" font-size="18px">Tb</text>
<text transform="matrix(1 0 0 1 772.6758 358.3344)" fill="#FFFFFF" font-family="'RobotoMono-Regular'" font-size="18px">Dy</text>
<text transform="matrix(1 0 0 1 832.5631 358.3344)" fill="#FFFFFF" font-family="'RobotoMono-Regular'" font-size="18px">Ho</text>
<text transform="matrix(1 0 0 1 892.4497 358.3344)" fill="#FFFFFF" font-family="'RobotoMono-Regular'" font-size="18px">Er</text>
<text transform="matrix(1 0 0 1 952.3375 358.3344)" fill="#FFFFFF" font-family="'RobotoMono-Regular'" font-size="18px">Tm</text>
<text transform="matrix(1 0 0 1 1012.3646 358.3344)" fill="#FFFFFF" font-family="'RobotoMono-Regular'" font-size="18px">Yb</text>
<text transform="matrix(1 0 0 1 1072.2524 358.3344)" fill="#FFFFFF" font-family="'RobotoMono-Regular'" font-size="18px">Lu</text>
<text transform="matrix(1 0 0 1 293.2983 403.4616)" fill="#FFFFFF" font-family="'RobotoMono-Regular'" font-size="18px">Th</text>
<text transform="matrix(1 0 0 1 353.1854 403.4616)" fill="#FFFFFF" font-family="'RobotoMono-Regular'" font-size="18px">Pa</text>
<text transform="matrix(1 0 0 1 418.614 403.4616)" fill="#FFFFFF" font-family="'RobotoMono-Regular'" font-size="18px">U</text>
<text transform="matrix(1 0 0 1 473.1005 403.4616)" fill="#FFFFFF" font-family="'RobotoMono-Regular'" font-size="18px">Np</text>
<text transform="matrix(1 0 0 1 532.9872 403.4616)" fill="#FFFFFF" font-family="'RobotoMono-Regular'" font-size="18px">Pu</text>
<text transform="matrix(1 0 0 1 592.8741 403.4616)" fill="#FFFFFF" font-family="'RobotoMono-Regular'" font-size="18px">Am</text>
<text transform="matrix(1 0 0 1 652.7614 403.4616)" fill="#FFFFFF" font-family="'RobotoMono-Regular'" font-size="18px">Cm</text>
<text transform="matrix(1 0 0 1 712.7888 403.4616)" fill="#FFFFFF" font-family="'RobotoMono-Regular'" font-size="18px">Bk</text>
<text transform="matrix(1 0 0 1 772.6714 403.4616)" fill="#FFFFFF" font-family="'RobotoMono-Regular'" font-size="18px">Cf</text>
<text transform="matrix(1 0 0 1 832.5631 403.4616)" fill="#FFFFFF" font-family="'RobotoMono-Regular'" font-size="18px">Es</text>
<text transform="matrix(1 0 0 1 892.4497 403.4616)" fill="#FFFFFF" font-family="'RobotoMono-Regular'" font-size="18px">Fm</text>
<text transform="matrix(1 0 0 1 952.3375 403.4616)" fill="#FFFFFF" font-family="'RobotoMono-Regular'" font-size="18px">Md</text>
<text transform="matrix(1 0 0 1 1012.3646 403.4616)" fill="#FFFFFF" font-family="'RobotoMono-Regular'" font-size="18px">No</text>
<text transform="matrix(1 0 0 1 1072.2524 403.4616)" fill="#FFFFFF" font-family="'RobotoMono-Regular'" font-size="18px">Lr</text>
<text transform="matrix(1 0 0 1 1077.6533 210.5787)" fill="#FFFFFF" font-family="'RobotoMono-Regular'" font-size="18px">I</text>
<text transform="matrix(1 0 0 1 1132.1394 165.9807)" fill="#FFFFFF" font-family="'RobotoMono-Regular'" font-size="18px">Kr</text>
<text transform="matrix(1 0 0 1 1132.1394 255.5998)" fill="#FFFFFF" font-family="'RobotoMono-Regular'" font-size="18px">Rb</text>
<text transform="matrix(1 0 0 1 1132.1394 300.7263)" fill="#FFFFFF" font-family="'RobotoMono-Regular'" font-size="18px">Og</text>
<text transform="matrix(1 0 0 1 1132.1394 210.5787)" fill="#FFFFFF" font-family="'RobotoMono-Regular'" font-size="18px">Xe</text>
<text transform="matrix(1 0 0 1 837.964 75.833)" fill="#FFFFFF" font-family="'RobotoMono-Regular'" font-size="18px">B</text>
<text transform="matrix(1 0 0 1 832.5631 120.431)" fill="#FFFFFF" font-family="'RobotoMono-Regular'" font-size="18px">Al</text>
<text transform="matrix(1 0 0 1 897.8506 75.833)" fill="#FFFFFF" font-family="'RobotoMono-Regular'" font-size="18px">C</text>
<text transform="matrix(1 0 0 1 892.4497 120.431)" fill="#FFFFFF" font-family="'RobotoMono-Regular'" font-size="18px">Si</text>
<text transform="matrix(1 0 0 1 957.7384 75.833)" fill="#FFFFFF" font-family="'RobotoMono-Regular'" font-size="18px">N</text>
<text transform="matrix(1 0 0 1 1017.7655 75.833)" fill="#FFFFFF" font-family="'RobotoMono-Regular'" font-size="18px">O</text>
<text transform="matrix(1 0 0 1 1017.7655 120.431)" fill="#FFFFFF" font-family="'RobotoMono-Regular'" font-size="18px">S</text>
<text transform="matrix(1 0 0 1 1077.6533 75.833)" fill="#FFFFFF" font-family="'RobotoMono-Regular'" font-size="18px">F</text>
<text transform="matrix(1 0 0 1 1072.2524 120.431)" fill="#FFFFFF" font-family="'RobotoMono-Regular'" font-size="18px">Cl</text>
<text transform="matrix(1 0 0 1 1132.1394 75.833)" fill="#FFFFFF" font-family="'RobotoMono-Regular'" font-size="18px">Ne</text>
<text transform="matrix(1 0 0 1 1132.1394 30.8117)" fill="#FFFFFF" font-family="'RobotoMono-Regular'" font-size="18px">He</text>
<text transform="matrix(1 0 0 1 1132.1394 120.431)" fill="#FFFFFF" font-family="'RobotoMono-Regular'" font-size="18px">Ar</text>
</svg>
