<svg xmlns="http://www.w3.org/2000/svg" width="256" height="256" viewBox="0 0 256 256"><title>icon_sketch</title><path d="M4,4V253H253V4ZM205.4,194.2h0l-44.5,44.5.8.8,43.7-43.7v15.7l-35.2,35.2h-9.6V224.3l44.8-44.8Zm0,19v33.5H171.9Zm0-35.3-44.8,44.7V205.1l44.8-44.7Zm0-19.1-44.8,44.7V177.2l44.8-44.8Zm-44.8,16.7V153.1l44.8-44.8v22.5Zm0-24V125.1h.1L203.8,82l-.8-.9-42.4,42.4V103.9l44.8-44.8v47.6Zm44.8-93.2-.4-.4-44.4,44.3V98.7H147L192.7,53h12.7ZM146.6,98.7H125.8l44.9-45-.5-.5,20.9-.2L146,98.1Zm-22.4,0H91.8l44.6-44.6-.5-.5,33.7-.4Zm-34,0H56.4L99.9,55.1l-.8-.8L54.8,98.7H30.2L74.1,54.8l-.5-.5,61.6-.7Zm-61.1,0H11.5V92.9L49.1,55.3l-.7-.7,24.5-.3L28.8,98.4ZM11.5,91.3V73.5L30.1,54.8l18.1-.2Zm0-19.5V55l17-.2ZM247.3,247.3H211.1V126.7l.6-.6-.6-.5V47L9.7,49.3V9.7H247.3Z"/></svg>