<svg enable-background="new 0 0 650 339" height="339" viewBox="0 0 650 339" width="650" xmlns="http://www.w3.org/2000/svg"><g transform="translate(30 20)"><g><path d="m580.4 16.5v266.4" fill="none" stroke="#cbcbcb" stroke-width="4.7452"/><circle cx="580.4" cy="16.5" fill="#989898" r="12.5"/></g><g><path d="m520.7 52.4v230.5" fill="none" stroke="#cbcbcb" stroke-width="4.7452"/><circle cx="520.7" cy="52.4" fill="#989898" r="12.5"/></g><g><path d="m460.9 52.4v230.5" fill="none" stroke="#cbcbcb" stroke-width="4.7452"/><circle cx="460.9" cy="52.4" fill="#989898" r="12.5"/></g><g><path d="m401.1 85.3v197.6" fill="none" stroke="#cbcbcb" stroke-width="4.7452"/><circle cx="401.1" cy="85.3" fill="#989898" r="12.5"/></g><g><path d="m341.4 85.3v197.6" fill="none" stroke="#cbcbcb" stroke-width="4.7452"/><circle cx="341.4" cy="85.3" fill="#989898" r="12.5"/></g><g><path d="m281.6 116.5v166.3" fill="none" stroke="#cbcbcb" stroke-width="4.7452"/><circle cx="281.6" cy="116.5" fill="#989898" r="12.5"/></g><g><path d="m221.9 110.7v172.2" fill="none" stroke="#cbcbcb" stroke-width="4.7452"/><circle cx="221.9" cy="110.7" fill="#989898" r="12.5"/></g><g><path d="m162.1 146.6v136.3" fill="none" stroke="#cbcbcb" stroke-width="4.7452"/><circle cx="162.1" cy="146.6" fill="#989898" r="12.5"/></g><g><path d="m102.4 176.2v106.7" fill="none" stroke="#cbcbcb" stroke-width="4.7452"/><circle cx="102.4" cy="176.2" fill="#989898" r="12.5"/></g><g><path d="m42.6 201.9v81" fill="none" stroke="#cbcbcb" stroke-width="4.7452"/><circle cx="42.6" cy="201.9" fill="#989898" r="12.5"/></g></g><g transform="translate(30 480)"><path d="m12-470v292.1h-8.6" fill="none" stroke="#888" stroke-width="1.4247"/><path d="m3.9-177.3h8.8" fill="none" stroke="#888" stroke-width="1.344"/><text fill="#9e9e9e" font-family="'Roboto Mono'" font-size="14" transform="translate(-13.0674 -174.5385)">0</text><path d="m3.9-243.5h8.8" fill="none" stroke="#888" stroke-width="1.344"/><text fill="#9e9e9e" font-family="'Roboto Mono'" font-size="14" transform="translate(-21.4688 -240.7153)">10</text><path d="m3.9-309.7h8.8" fill="none" stroke="#888" stroke-width="1.344"/><text fill="#9e9e9e" font-family="'Roboto Mono'" font-size="14" transform="translate(-21.4688 -306.8921)">20</text><path d="m3.9-375.8h8.8" fill="none" stroke="#888" stroke-width="1.344"/><text fill="#9e9e9e" font-family="'Roboto Mono'" font-size="14" transform="translate(-21.4688 -373.0669)">30</text><path d="m3.9-442h8.8" fill="none" stroke="#888" stroke-width="1.344"/><text fill="#9e9e9e" font-family="'Roboto Mono'" font-size="14" transform="translate(-21.4688 -439.2436)">40</text></g><g transform="translate(30 20)"><path d="m12 282.1h592.5" fill="none" stroke="#888" stroke-width="1.4441"/><g fill="#9e9e9e" font-family="'Roboto Mono'" font-size="14"><text transform="translate(30.8506 305.894067)">1st</text><text transform="translate(88.2227 305.8941)">2nd</text><text transform="translate(149.5684 305.894033)">3rd</text><text transform="translate(209.7168 305.894067)">4th</text><text transform="translate(269.4707 305.8941)">5th</text><text transform="translate(329.2246 305.894133)">6th</text><text transform="translate(388.9805 305.894067)">7th</text><text transform="translate(448.7363 305.8941)">8th</text><text transform="translate(508.4902 305.894033)">9th</text><text transform="translate(564.085 305.894067)">10th</text></g></g></svg>