<?xml version="1.0" encoding="utf-8"?>
<!-- Generator: Adobe Illustrator 24.0.1, SVG Export Plug-In . SVG Version: 6.00 Build 0)  -->
<svg version="1.1" id="Layer_1" xmlns="http://www.w3.org/2000/svg" xmlns:xlink="http://www.w3.org/1999/xlink" x="0px" y="0px"
	 viewBox="0 0 1268 418" style="enable-background:new 0 0 1268 418;" xml:space="preserve">
<style type="text/css">
	.st0{fill:none;stroke:#C5C5D1;stroke-width:6.328;}
	.st1{fill:#A59CB9;}
	.st2{fill:none;stroke:#CCCCCC;stroke-width:1.75;}
	.st3{fill:#CCCCCC;}
	.st4{font-family:'RobotoMono-Regular';}
	.st5{font-size:16px;}
</style>
<g transform="translate(30 20)">
	<g>
		<path class="st0" d="M788.8,15.3v349.2"/>
		<circle class="st1" cx="788.8" cy="15.3" r="16.7"/>
	</g>
	<g>
		<path class="st0" d="M709.1,57.2v307.3"/>
		<circle class="st1" cx="709.1" cy="57.2" r="16.7"/>
	</g>
	<g>
		<path class="st0" d="M629.4,57.2v307.3"/>
		<circle class="st1" cx="629.4" cy="57.2" r="16.7"/>
	</g>
	<g>
		<path class="st0" d="M549.6,101.1v263.5"/>
		<circle class="st1" cx="549.6" cy="101.1" r="16.7"/>
	</g>
	<g>
		<path class="st0" d="M470,101.1v263.5"/>
		<circle class="st1" cx="470" cy="101.1" r="16.7"/>
	</g>
	<g>
		<path class="st0" d="M390.3,142.8v221.8"/>
		<circle class="st1" cx="390.3" cy="142.8" r="16.7"/>
	</g>
	<g>
		<path class="st0" d="M310.7,135v229.6"/>
		
			<ellipse transform="matrix(0.3827 -0.9239 0.9239 0.3827 67.1434 370.4037)" class="st1" cx="310.7" cy="135" rx="16.7" ry="16.7"/>
	</g>
	<g>
		<path class="st0" d="M230.9,182.8v181.7"/>
		<circle class="st1" cx="230.9" cy="182.8" r="16.7"/>
	</g>
	<g>
		<path class="st0" d="M151.4,222.4v142.3"/>
		<circle class="st1" cx="151.4" cy="222.4" r="16.7"/>
	</g>
	<g>
		<path class="st0" d="M71.6,256.7v108"/>
		<circle class="st1" cx="71.6" cy="256.7" r="16.7"/>
	</g>
</g>
<g transform="translate(30 480)">
	<path class="st2" d="M30.8-468.8v374.3H19.4"/>
	<path class="st2" d="M31.7-93.6"/>
	<text transform="matrix(1 0 0 1 6.3564 -87.9424)" class="st3 st4 st5">0</text>
	<path class="st2" d="M20-181.9h11.7"/>
	<text transform="matrix(1 0 0 1 -4.8472 -176.1914)" class="st3 st4 st5">10</text>
	<path class="st2" d="M20-270.2h11.7"/>
	<text transform="matrix(1 0 0 1 -4.8472 -264.4419)" class="st3 st4 st5">20</text>
	<path class="st2" d="M20-358.4h11.7"/>
	<text transform="matrix(1 0 0 1 -4.8472 -352.6885)" class="st3 st4 st5">30</text>
	<path class="st2" d="M20-446.6h11.7"/>
	<text transform="matrix(1 0 0 1 -4.8472 -440.9385)" class="st3 st4 st5">40</text>
</g>
<g transform="translate(30 20)">
	<path class="st2" d="M30.5,365.6l1184.5-1"/>
	<g>
		<text transform="matrix(1 0 0 1 67.2495 391.3066)" class="st3 st4 st5">A</text>
		<text transform="matrix(1 0 0 1 143.7583 391.3066)" class="st3 st4 st5">B</text>
		<text transform="matrix(1 0 0 1 225.5654 391.3066)" class="st3 st4 st5">C</text>
		<text transform="matrix(1 0 0 1 305.7759 391.3066)" class="st3 st4 st5">D</text>
		<text transform="matrix(1 0 0 1 385.4604 391.3066)" class="st3 st4 st5">E</text>
		<text transform="matrix(1 0 0 1 465.1455 391.3066)" class="st3 st4 st5">F</text>
		<text transform="matrix(1 0 0 1 544.8325 391.3066)" class="st3 st4 st5">G</text>
		<text transform="matrix(1 0 0 1 624.5205 391.3066)" class="st3 st4 st5">H</text>
		<text transform="matrix(1 0 0 1 704.2041 391.3066)" class="st3 st4 st5">I</text>
		<text transform="matrix(1 0 0 1 778.3428 391.3066)" class="st3 st4 st5">J</text>
		<g>
			<path class="st0" d="M1187.1,204.4v160.2"/>
			<circle class="st1" cx="1187.1" cy="204.4" r="16.7"/>
		</g>
		<g>
			<path class="st0" d="M1107.4,251.3v113.3"/>
			<circle class="st1" cx="1107.4" cy="251.3" r="16.7"/>
		</g>
		<g>
			<path class="st0" d="M1027.7,153.1v211.5"/>
			<circle class="st1" cx="1027.7" cy="153.1" r="16.7"/>
		</g>
		<g>
			<path class="st0" d="M947.9,83.1v281.5"/>
			<circle class="st1" cx="947.9" cy="83.1" r="16.7"/>
		</g>
		<g>
			<path class="st0" d="M868.3,62.1v302.5"/>
			<circle class="st1" cx="868.3" cy="62.1" r="16.7"/>
		</g>
		<g>
			<path class="st0" d="M800.1,364.6"/>
			<path class="st0" d="M800.1,142.8"/>
		</g>
		<text transform="matrix(1 0 0 1 863.4512 391.3066)" class="st3 st4 st5">K</text>
		<text transform="matrix(1 0 0 1 943.1377 391.3066)" class="st3 st4 st5">L</text>
		<text transform="matrix(1 0 0 1 1022.8262 391.3066)" class="st3 st4 st5">M</text>
		<text transform="matrix(1 0 0 1 1102.5098 391.3066)" class="st3 st4 st5">N</text>
		<text transform="matrix(1 0 0 1 1180.7666 391.3066)" class="st3 st4 st5">O</text>
	</g>
</g>
</svg>
