<svg height="340" viewBox="0 0 650 340" width="650" xmlns="http://www.w3.org/2000/svg"><path d="m38.2 306.9h605.1v-303.1h-605.1z" fill="none" stroke="#b2b2b2" stroke-linecap="round" stroke-linejoin="round" stroke-width="1.04"/><path d="m115.5 307.6v10.4" fill="none" stroke="#b2b2b2" stroke-linecap="round" stroke-linejoin="round" stroke-width="1.04"/><path d="m336.4 307.6v10.4" fill="none" stroke="#b2b2b2" stroke-linecap="round" stroke-linejoin="round" stroke-width="1.04"/><path d="m557.3 307.6v10.4" fill="none" stroke="#b2b2b2" stroke-linecap="round" stroke-linejoin="round" stroke-width="1.04"/><path d="m38.2 41.8h-10.4" fill="none" stroke="#b2b2b2" stroke-linecap="round" stroke-linejoin="round" stroke-width="1.04"/><path d="m38.2 195.5h-10.4" fill="none" stroke="#b2b2b2" stroke-linecap="round" stroke-linejoin="round" stroke-width="1.04"/><path d="m38.2 272.4h-10.4" fill="none" stroke="#b2b2b2" stroke-linecap="round" stroke-linejoin="round" stroke-width="1.04"/><path d="m38.2 118.7h-10.4" fill="none" stroke="#b2b2b2" stroke-linecap="round" stroke-linejoin="round" stroke-width="1.04"/><text fill="#c4c4c4" font-family="Roboto Mono" font-size="16" transform="translate(110.8 336.5)">A</text><text fill="#c4c4c4" font-family="Roboto Mono" font-size="16" transform="translate(332.1 336.5)">B</text><text fill="#c4c4c4" font-family="Roboto Mono" font-size="16" transform="translate(552.1 336.5)">C</text><text fill="#c4c4c4" font-family="Roboto Mono" font-size="16" transform="matrix(0 -1 1 0 19.5 204.4)">20</text><text fill="#c4c4c4" font-family="Roboto Mono" font-size="16" transform="matrix(0 -1 1 0 19.5 50.2)">40</text><text fill="#c4c4c4" font-family="Roboto Mono" font-size="16" transform="matrix(0 -1 1 0 19.5 127.3)">30</text><text fill="#c4c4c4" font-family="Roboto Mono" font-size="16" transform="matrix(0 -1 1 0 19.5 281.5)">10</text><g fill="#777"><circle cx="496.1" cy="274.3" r="4.9"/><circle cx="507.2" cy="280.7" r="4.9"/><circle cx="520.1" cy="282.8" r="4.9"/><circle cx="532" cy="284" r="4.9"/><circle cx="542.7" cy="284" r="4.9"/><circle cx="552.9" cy="284.2" r="4.9"/><circle cx="549.7" cy="271.5" r="4.9"/><circle cx="538.4" cy="270.5" r="4.9"/><circle cx="528.2" cy="265.6" r="4.9"/><circle cx="536.9" cy="253.3" r="4.9"/><circle cx="544.1" cy="260.3" r="4.9"/><circle cx="550.7" cy="252.6" r="4.9"/><circle cx="547.4" cy="242.8" r="4.9"/><circle cx="544.6" cy="231.7" r="4.9"/><circle cx="563.1" cy="229.8" r="4.9"/><circle cx="574.4" cy="232.9" r="4.9"/><circle cx="554" cy="235.6" r="4.9"/><circle cx="554" cy="224.8" r="4.9"/><circle cx="544.8" cy="218.8" r="4.9"/><circle cx="561.8" cy="216.2" r="4.9"/><circle cx="551.7" cy="210" r="4.9"/><circle cx="562.5" cy="205.1" r="4.9"/><circle cx="553.2" cy="197.4" r="4.9"/><circle cx="544.8" cy="195.3" r="4.9"/><circle cx="564.4" cy="191.7" r="4.9"/><circle cx="553" cy="172.2" r="4.9"/><circle cx="560" cy="180" r="4.9"/><circle cx="543.4" cy="176.3" r="4.9"/><circle cx="553.2" cy="162" r="4.9"/><circle cx="550.8" cy="139.9" r="4.9"/><circle cx="543.4" cy="158.6" r="4.9"/><circle cx="551.9" cy="150.9" r="4.9"/><circle cx="549" cy="122.9" r="4.9"/><circle cx="552.4" cy="102.3" r="4.9"/><circle cx="552.4" cy="70.6" r="4.9"/><circle cx="549" cy="37.6" r="4.9"/><circle cx="549.7" cy="36.1" r="4.9"/><circle cx="559.3" cy="132" r="4.9"/><circle cx="536.9" cy="240.5" r="4.9"/><circle cx="557.3" cy="259.6" r="4.9"/><circle cx="567.1" cy="257.5" r="4.9"/><circle cx="560" cy="247.7" r="4.9"/><circle cx="563.8" cy="239.5" r="4.9"/><circle cx="571.1" cy="246.5" r="4.9"/><circle cx="517.3" cy="265.6" r="4.9"/><circle cx="562.2" cy="271.5" r="4.9"/><circle cx="572.4" cy="281.3" r="4.9"/><circle cx="582.4" cy="281.5" r="4.9"/><circle cx="580.8" cy="266.6" r="4.9"/><circle cx="577.1" cy="255" r="4.9"/><circle cx="585.7" cy="247.7" r="4.9"/><circle cx="588.4" cy="264.5" r="4.9"/><circle cx="592.2" cy="279.3" r="4.9"/><circle cx="601.5" cy="276.4" r="4.9"/><circle cx="571.7" cy="268" r="4.9"/><circle cx="562.5" cy="284.2" r="4.9"/><circle cx="528.2" cy="251.8" r="4.9"/><circle cx="115.6" cy="284.7" r="4.9"/><circle cx="120.5" cy="277.2" r="4.9"/><circle cx="108.3" cy="275.1" r="4.9"/><circle cx="122.9" cy="260.1" r="4.9"/><circle cx="132.7" cy="270.4" r="4.9"/><circle cx="134.2" cy="259.1" r="4.9"/><circle cx="113.2" cy="266.7" r="4.9"/><circle cx="106.4" cy="260.6" r="4.9"/><circle cx="115.6" cy="251.9" r="4.9"/><circle cx="108.3" cy="243.4" r="4.9"/><circle cx="113.2" cy="232.5" r="4.9"/><circle cx="125.5" cy="228.2" r="4.9"/><circle cx="110.7" cy="223.3" r="4.9"/><circle cx="132.8" cy="219.8" r="4.9"/><circle cx="120.5" cy="218.4" r="4.9"/><circle cx="126.4" cy="209.9" r="4.9"/><circle cx="113.2" cy="209.9" r="4.9"/><circle cx="104.6" cy="205" r="4.9"/><circle cx="115.6" cy="198.9" r="4.9"/><circle cx="127.9" cy="197.7" r="4.9"/><circle cx="118.2" cy="189.2" r="4.9"/><circle cx="115.6" cy="173.1" r="4.9"/><circle cx="126.3" cy="173.1" r="4.9"/><circle cx="121.4" cy="145" r="4.9"/><circle cx="115.6" cy="131.4" r="4.9"/><circle cx="113.2" cy="116.7" r="4.9"/><circle cx="125.5" cy="113.9" r="4.9"/><circle cx="115.6" cy="73.4" r="4.9"/><circle cx="115.6" cy="60.3" r="4.9"/><circle cx="105.8" cy="55.4" r="4.9"/><circle cx="115.6" cy="48.5" r="4.9"/><circle cx="119.6" cy="15.6" r="4.9"/><circle cx="113.2" cy="154.9" r="4.9"/><circle cx="110.7" cy="143" r="4.9"/><circle cx="108.3" cy="190.5" r="4.9"/><circle cx="99.7" cy="195.4" r="4.9"/><circle cx="134.5" cy="189.2" r="4.9"/><circle cx="99.7" cy="223.3" r="4.9"/><circle cx="87.7" cy="219.8" r="4.9"/><circle cx="101.4" cy="252.1" r="4.9"/><circle cx="89.8" cy="252.1" r="4.9"/><circle cx="125.5" cy="247.2" r="4.9"/><circle cx="139.2" cy="248.3" r="4.9"/><circle cx="351.2" cy="278.9" r="4.9"/><circle cx="361" cy="278.9" r="4.9"/><circle cx="369.3" cy="273.6" r="4.9"/><circle cx="356.1" cy="268.7" r="4.9"/><circle cx="380.8" cy="272.6" r="4.9"/><circle cx="390.7" cy="270.5" r="4.9"/><circle cx="341.2" cy="278.5" r="4.9"/><circle cx="344.4" cy="267.7" r="4.9"/><circle cx="333.8" cy="270.5" r="4.9"/><circle cx="324.7" cy="273.6" r="4.9"/><circle cx="314.8" cy="273.6" r="4.9"/><circle cx="306.3" cy="280.2" r="4.9"/><circle cx="306.3" cy="267.7" r="4.9"/><circle cx="296.5" cy="273.6" r="4.9"/><circle cx="285.3" cy="273.6" r="4.9"/><circle cx="275.4" cy="270.5" r="4.9"/><circle cx="265.6" cy="267.7" r="4.9"/><circle cx="301.4" cy="246.6" r="4.9"/><circle cx="309.9" cy="252.9" r="4.9"/><circle cx="319.7" cy="255.8" r="4.9"/><circle cx="331.2" cy="256.9" r="4.9"/><circle cx="341.2" cy="255.8" r="4.9"/><circle cx="349.3" cy="255.8" r="4.9"/><circle cx="361" cy="253.7" r="4.9"/><circle cx="370.9" cy="246.6" r="4.9"/><circle cx="382.4" cy="234" r="4.9"/><circle cx="369.3" cy="236.7" r="4.9"/><circle cx="356.2" cy="238.1" r="4.9"/><circle cx="344.4" cy="241.6" r="4.9"/><circle cx="333.8" cy="243.1" r="4.9"/><circle cx="319.7" cy="243.9" r="4.9"/><circle cx="309.9" cy="241.6" r="4.9"/><circle cx="311.2" cy="229.1" r="4.9"/><circle cx="321.9" cy="233.2" r="4.9"/><circle cx="331.2" cy="232.2" r="4.9"/><circle cx="341.2" cy="231.8" r="4.9"/><circle cx="351.3" cy="229.1" r="4.9"/><circle cx="341.2" cy="221" r="4.9"/><circle cx="351" cy="217.3" r="4.9"/><circle cx="351.3" cy="207.5" r="4.9"/><circle cx="361.2" cy="213.7" r="4.9"/><circle cx="370.4" cy="211.1" r="4.9"/><circle cx="381.1" cy="211.1" r="4.9"/><circle cx="390.7" cy="208.8" r="4.9"/><circle cx="399.6" cy="208.8" r="4.9"/><circle cx="413.9" cy="206.2" r="4.9"/><circle cx="351" cy="196.4" r="4.9"/><circle cx="329.6" cy="221" r="4.9"/><circle cx="321.2" cy="221" r="4.9"/><circle cx="341.2" cy="208.8" r="4.9"/><circle cx="329.6" cy="208.8" r="4.9"/><circle cx="318" cy="208.8" r="4.9"/><circle cx="308.1" cy="208.8" r="4.9"/><circle cx="309.9" cy="218.7" r="4.9"/><circle cx="298.6" cy="218.7" r="4.9"/><circle cx="288.8" cy="213.7" r="4.9"/><circle cx="278.6" cy="211.1" r="4.9"/><circle cx="268.5" cy="208.8" r="4.9"/><circle cx="259" cy="206.2" r="4.9"/><circle cx="298.3" cy="206.2" r="4.9"/><circle cx="341.2" cy="196.4" r="4.9"/><circle cx="329.6" cy="196.4" r="4.9"/><circle cx="319.7" cy="193.6" r="4.9"/><circle cx="341.8" cy="186" r="4.9"/><circle cx="351.7" cy="168.3" r="4.9"/><circle cx="361.2" cy="168.3" r="4.9"/><circle cx="369.3" cy="166.3" r="4.9"/><circle cx="309.9" cy="176.1" r="4.9"/><circle cx="309.3" cy="193.6" r="4.9"/><circle cx="331.7" cy="132.3" r="4.9"/><circle cx="336.3" cy="124" r="4.9"/><circle cx="347.1" cy="120.8" r="4.9"/><circle cx="325.3" cy="124" r="4.9"/><circle cx="330.2" cy="111.5" r="4.9"/><circle cx="331.2" cy="96.7" r="4.9"/><circle cx="341.2" cy="95.2" r="4.9"/><circle cx="342.2" cy="76.7" r="4.9"/><circle cx="331.2" cy="78.7" r="4.9"/><circle cx="334.5" cy="65.6" r="4.9"/><circle cx="331.7" cy="54.5" r="4.9"/><circle cx="331.7" cy="30.5" r="4.9"/><circle cx="321.9" cy="23.8" r="4.9"/><circle cx="339.5" cy="106.6" r="4.9"/><circle cx="349.3" cy="103.5" r="4.9"/><circle cx="321.9" cy="106.6" r="4.9"/><circle cx="321.2" cy="167.6" r="4.9"/><circle cx="310.7" cy="163.4" r="4.9"/><circle cx="302.3" cy="163.1" r="4.9"/><circle cx="321.2" cy="158.2" r="4.9"/><circle cx="331.7" cy="158.5" r="4.9"/><circle cx="342.2" cy="158.2" r="4.9"/><circle cx="331.2" cy="147" r="4.9"/><circle cx="322.9" cy="142.1" r="4.9"/><circle cx="311.2" cy="140" r="4.9"/><circle cx="339.5" cy="144.9" r="4.9"/><circle cx="351.7" cy="137.2" r="4.9"/><circle cx="341.8" cy="171.2" r="4.9"/><circle cx="351.3" cy="178.2" r="4.9"/><circle cx="330.2" cy="186" r="4.9"/><circle cx="319.7" cy="182.9" r="4.9"/><circle cx="361.2" cy="226.9" r="4.9"/><circle cx="290.2" cy="239" r="4.9"/><circle cx="331.2" cy="282.4" r="4.9"/><circle cx="249.1" cy="202.6" r="4.9"/><circle cx="424" cy="202.6" r="4.9"/></g></svg>