<svg enable-background="new 0 0 1268 418" viewBox="0 0 1268 418" xmlns="http://www.w3.org/2000/svg"><g fill="#ebe5e1"><path d="m609.7 406.3h38.9v9.7h-38.9z"/><path d="m656.8 406.3h20.2v9.7h-20.2z"/><path d="m378.8 194.6h38.9v9.7h-38.9z"/><path d="m425.9 194.6h20.2v9.7h-20.2z"/><path d="m364.6 212.5h81.5v9.7h-81.5z"/><path d="m602.6 2h81.5v9.7h-81.5z"/><g opacity=".92"><path d="m790.2 49.9h62.8v9.7h-62.8z"/><path d="m790.2 67.8h46.3v9.7h-46.3z"/></g><path d="m785.2 345.5h32.9v9.7h-32.9z"/><path d="m826.3 345.5h41.8v9.7h-41.8z"/><path d="m417.9 63h32.9v9.7h-32.9z"/><path d="m459 63h41.8v9.7h-41.8z"/><path d="m840.6 203.6h62.8v9.7h-62.8z"/><path d="m438.6 345h62.8v9.7h-62.8z"/></g><circle cx="538.5" cy="313.4" fill="#a79fc2" r="3.7"/><path d="m458.4 208.4h369.9" fill="none" stroke="#c4c4c4" stroke-miterlimit="10"/><path d="m512.3 339.5 261.5-261.6" fill="none" stroke="#c4c4c4" stroke-miterlimit="10"/><path d="m774.4 339.5-261.5-261.6" fill="none" stroke="#c4c4c4" stroke-miterlimit="10"/><path d="m667.8 180.1c7.9 6.8 13 17 13 28.3s-5 21.4-13 28.3c-6.5 5.7-15.1 9.1-24.4 9.1-20.6 0-37.4-16.7-37.4-37.4 0-20.6 16.7-37.4 37.4-37.4" fill="none" stroke="#c4c4c4" stroke-miterlimit="10"/><circle cx="643.3" cy="208.4" fill="none" r="73.8" stroke="#c4c4c4" stroke-miterlimit="10"/><path d="m667.8 100.8c49.2 11.1 86 55.1 86 107.7s-36.8 96.6-86 107.7c-7.8 1.8-16 2.7-24.4 2.7-61 0-110.4-49.4-110.4-110.4s49.4-110.4 110.4-110.4" fill="none" stroke="#c4c4c4" stroke-miterlimit="10"/><circle cx="643.3" cy="208.4" fill="none" r="147.8" stroke="#c4c4c4" stroke-miterlimit="10"/><path d="m667.8 25.3c90.5 11.9 160.3 89.4 160.3 183.1s-69.8 171.2-160.3 183.1c-8 1.1-16.1 1.6-24.4 1.6-102 0-184.7-82.7-184.7-184.7s82.7-184.8 184.7-184.8v370.4" fill="none" stroke="#c4c4c4" stroke-miterlimit="10"/><path d="m539.5 104.3c15-21.2 81.1-18.8 103.9-6.2 17.1 9.4 39 43.4 52.1 57.9 13.2 14.7 95.6 33.3 95.9 53.1.3 19.7-80.8 39.2-95.9 51.9-12.7 10.7-35.5 43.4-52.1 41.4-14.5-1.7-14.1-38.8-35.7-58.2-22.5-20.2-66.8-23-75.3-35.7-15-22.6-8.6-82.1 7.1-104.2z" fill="#e3af8d" opacity=".3"/><circle cx="791.3" cy="208.7" fill="#f1c7a3" r="3.7"/><circle cx="695.4" cy="155.9" fill="#f1c7a3" r="3.7"/><circle cx="643.3" cy="98" fill="#f1c7a3" r="3.7"/><circle cx="539.5" cy="104.3" fill="#f1c7a3" r="3.7"/><circle cx="532.4" cy="208.4" fill="#f1c7a3" r="3.7"/><circle cx="607.7" cy="244.1" fill="#f1c7a3" r="3.7"/><circle cx="643.3" cy="302.3" fill="#f1c7a3" r="3.7"/><circle cx="695.4" cy="260.9" fill="#f1c7a3" r="3.7"/><path d="m580 145.1c11-22 37.1-65.1 63-66.9 31.7-2.2 37.3 35.6 66.8 63.2 16.1 15-7.3 47.3-7 67s22.7 55.6 10.7 70.4c-9.4 11.6-33.3-7.5-70.2 4.2-23.8 7.5-88.8 51.9-104.8 30.5-18.1-24.2 60.3-92.3 58.5-105-3.9-26.9-26.3-44.7-17-63.4z" fill="#717291" opacity=".2"/><circle cx="709.9" cy="141.4" fill="#8b8ca4" r="3.7"/><circle cx="643" cy="78.1" fill="#8b8ca4" r="3.7"/><circle cx="580" cy="145.1" fill="#8b8ca4" r="3.7"/><circle cx="597" cy="208.4" fill="#8b8ca4" r="3.7"/><circle cx="643" cy="283" fill="#8b8ca4" r="3.7"/><circle cx="713.6" cy="278.8" fill="#8b8ca4" r="3.7"/><circle cx="702.9" cy="208.4" fill="#8b8ca4" r="3.7"/><g font-family="'RobotoCondensed-Regular'" font-size="15.6931" opacity=".2"><text transform="translate(648.4141 29.7847)">50</text><text transform="translate(648.1982 104.2627)">30</text><text transform="translate(648.1982 178.7432)">10</text></g></svg>