<?xml version="1.0" encoding="utf-8"?>
<!-- Generator: Adobe Illustrator 24.0.1, SVG Export Plug-In . SVG Version: 6.00 Build 0)  -->
<svg version="1.1" id="Layer_1" xmlns="http://www.w3.org/2000/svg" xmlns:xlink="http://www.w3.org/1999/xlink" x="0px" y="0px"
	 viewBox="0 0 1268 418" style="enable-background:new 0 0 1268 418;" xml:space="preserve">
<style type="text/css">
	.st0{fill:#E5E5E5;}
	.st1{fill:none;stroke:#646464;stroke-width:4.1121;stroke-miterlimit:10;}
	.st2{fill:#A39CB9;}
	.st3{font-family:'RobotoCondensed-Regular';}
	.st4{font-size:7.5388px;}
	.st5{fill:#B0B0B0;}
	.st6{font-size:11.2123px;}
	.st7{fill:#A39CB9;stroke:#FFFFFF;stroke-width:2.7414;stroke-miterlimit:10;}
	.st8{fill:none;stroke:#A39CB9;stroke-width:4.1121;stroke-miterlimit:10;}
</style>
<symbol  id="a" viewBox="-43.1 -23.1 86.2 46.3">
	<path class="st0" d="M-43.1-23.1h86.2v9.1h-86.2V-23.1z M-43.1-4.5h86.2v9.2h-86.2V-4.5z M-43.1,13.9h86.2v9.2h-86.2V13.9z"/>
</symbol>
<title>cyclic-timeline</title>
<circle class="st1" cx="320.4" cy="207.4" r="146.7"/>
<text transform="matrix(6.123234e-17 -1 1 6.123234e-17 190.0762 213.5859)" class="st2 st3 st4">9:00</text>
<text transform="matrix(1 0 0 1 119.5542 192.6133)" class="st5 st3 st6">b</text>
<text transform="matrix(1 0 0 1 125.1055 192.6133)" class="st5 st3 st6">r</text>
<text transform="matrix(1 0 0 1 128.395 192.6133)" class="st5 st3 st6">own</text>
<circle class="st7" cx="173.7" cy="207.5" r="5.8"/>
<use xlink:href="#a"  width="86.2" height="46.3" x="-43.1" y="-23.1" transform="matrix(0.6853 0 0 0.6853 132.4384 215.0581)" style="overflow:visible;"/>
<text transform="matrix(6.123234e-17 1 -1 6.123234e-17 450.7129 201.1797)" class="st2 st3 st4">3:00</text>
<circle class="st7" cx="467" cy="207.3" r="5.8"/>
<text transform="matrix(1 0 0 1 503.21 192.6133)" class="st5 st3 st6">r</text>
<text transform="matrix(1 0 0 1 506.5 192.6133)" class="st5 st3 st6">ed</text>
<use xlink:href="#a"  width="86.2" height="46.3" x="-43.1" y="-23.1" transform="matrix(0.6853 0 0 0.6853 509.5843 215.0581)" style="overflow:visible;"/>
<text transform="matrix(1 0 0 1 312.3413 77.1323)" class="st2 st3 st4">12:00</text>
<circle class="st7" cx="320.3" cy="60.8" r="5.8"/>
<text transform="matrix(1 0 0 1 308.2983 9.626)" class="st5 st3 st6">g</text>
<text transform="matrix(1 0 0 1 313.8496 9.626)" class="st5 st3 st6">r</text>
<text transform="matrix(1 0 0 1 317.1392 9.626)" class="st5 st3 st6">een</text>
<use xlink:href="#a"  width="86.2" height="46.3" x="-43.1" y="-23.1" transform="matrix(0.6853 0 0 0.6853 320.0176 32.0707)" style="overflow:visible;"/>
<text transform="matrix(1 0 0 1 313.6436 342.0869)" class="st2 st3 st4">6:00</text>
<circle class="st7" cx="320.5" cy="354.1" r="5.8"/>
<text transform="matrix(1 0 0 1 308.6406 375.2588)" class="st5 st3 st6">violet</text>
<use xlink:href="#a"  width="86.2" height="46.3" x="-43.1" y="-23.1" transform="matrix(0.6853 0 0 0.6853 320.0176 397.6342)" style="overflow:visible;"/>
<text transform="matrix(0.7071 -0.7071 0.7071 0.7071 410.8938 307.4082)" class="st2 st3 st4">4:30</text>
<circle class="st7" cx="424.2" cy="311" r="5.8"/>
<text transform="matrix(1 0 0 1 442.4893 329.1348)" class="st5 st3 st6">y</text>
<text transform="matrix(1 0 0 1 447.0811 329.1348)" class="st5 st3 st6">ellow</text>
<use xlink:href="#a"  width="86.2" height="46.3" x="-43.1" y="-23.1" transform="matrix(0.6853 0 0 0.6853 455.7846 351.5104)" style="overflow:visible;"/>
<text transform="matrix(0.7071 -0.7071 0.7071 0.7071 222.5608 120.994)" class="st2 st3 st4">11:30</text>
<circle class="st7" cx="216.6" cy="103.8" r="5.8"/>
<text transform="matrix(1 0 0 1 170.1323 54.9272)" class="st5 st3 st6">white</text>
<use xlink:href="#a"  width="86.2" height="46.3" x="-43.1" y="-23.1" transform="matrix(0.6853 0 0 0.6853 181.3721 77.3035)" style="overflow:visible;"/>
<text transform="matrix(0.7071 0.7071 -0.7071 0.7071 408.1525 110.8504)" class="st2 st3 st4">1:30</text>
<circle class="st7" cx="424.1" cy="103.7" r="5.8"/>
<text transform="matrix(1 0 0 1 455.2363 57.9429)" class="st5 st3 st6">blue</text>
<use xlink:href="#a"  width="86.2" height="46.3" x="-43.1" y="-23.1" transform="matrix(0.6853 0 0 0.6853 463.9402 80.3876)" style="overflow:visible;"/>
<text transform="matrix(0.7071 0.7071 -0.7071 0.7071 220.3673 297.8814)" class="st2 st3 st4">7:30</text>
<circle class="st7" cx="216.7" cy="311.2" r="5.8"/>
<text transform="matrix(1 0 0 1 170.9551 321.8008)" class="st5 st3 st6">pink</text>
<use xlink:href="#a"  width="86.2" height="46.3" x="-43.1" y="-23.1" transform="matrix(0.6853 0 0 0.6853 179.5217 344.2458)" style="overflow:visible;"/>
<title>cyclic-timeline</title>
<circle class="st8" cx="320.4" cy="207.4" r="146.7"/>
<text transform="matrix(6.123234e-17 -1 1 6.123234e-17 190.0762 213.5859)" class="st2 st3 st4">9:00</text>
<text transform="matrix(1 0 0 1 119.5542 192.6133)" class="st5 st3 st6">b</text>
<text transform="matrix(1 0 0 1 125.1055 192.6133)" class="st5 st3 st6">r</text>
<text transform="matrix(1 0 0 1 128.395 192.6133)" class="st5 st3 st6">own</text>
<circle class="st7" cx="173.7" cy="207.5" r="5.8"/>
<use xlink:href="#a"  width="86.2" height="46.3" x="-43.1" y="-23.1" transform="matrix(0.6853 0 0 0.6853 132.4384 215.0581)" style="overflow:visible;"/>
<text transform="matrix(6.123234e-17 1 -1 6.123234e-17 450.7129 201.1797)" class="st2 st3 st4">3:00</text>
<circle class="st7" cx="467" cy="207.3" r="5.8"/>
<text transform="matrix(1 0 0 1 503.21 192.6133)" class="st5 st3 st6">r</text>
<text transform="matrix(1 0 0 1 506.5 192.6133)" class="st5 st3 st6">ed</text>
<use xlink:href="#a"  width="86.2" height="46.3" x="-43.1" y="-23.1" transform="matrix(0.6853 0 0 0.6853 509.5843 215.0581)" style="overflow:visible;"/>
<text transform="matrix(1 0 0 1 312.3413 77.1323)" class="st2 st3 st4">12:00</text>
<circle class="st7" cx="320.3" cy="60.8" r="5.8"/>
<text transform="matrix(1 0 0 1 308.2983 9.626)" class="st5 st3 st6">g</text>
<text transform="matrix(1 0 0 1 313.8496 9.626)" class="st5 st3 st6">r</text>
<text transform="matrix(1 0 0 1 317.1392 9.626)" class="st5 st3 st6">een</text>
<use xlink:href="#a"  width="86.2" height="46.3" x="-43.1" y="-23.1" transform="matrix(0.6853 0 0 0.6853 320.0176 32.0707)" style="overflow:visible;"/>
<text transform="matrix(1 0 0 1 313.6436 342.0869)" class="st2 st3 st4">6:00</text>
<circle class="st7" cx="320.5" cy="354.1" r="5.8"/>
<text transform="matrix(1 0 0 1 308.6406 375.2588)" class="st5 st3 st6">violet</text>
<use xlink:href="#a"  width="86.2" height="46.3" x="-43.1" y="-23.1" transform="matrix(0.6853 0 0 0.6853 320.0176 397.6342)" style="overflow:visible;"/>
<text transform="matrix(0.7071 -0.7071 0.7071 0.7071 410.8938 307.4082)" class="st2 st3 st4">4:30</text>
<circle class="st7" cx="424.2" cy="311" r="5.8"/>
<text transform="matrix(1 0 0 1 442.4893 329.1348)" class="st5 st3 st6">y</text>
<text transform="matrix(1 0 0 1 447.0811 329.1348)" class="st5 st3 st6">ellow</text>
<use xlink:href="#a"  width="86.2" height="46.3" x="-43.1" y="-23.1" transform="matrix(0.6853 0 0 0.6853 455.7846 351.5104)" style="overflow:visible;"/>
<text transform="matrix(0.7071 -0.7071 0.7071 0.7071 222.5608 120.994)" class="st2 st3 st4">11:30</text>
<circle class="st7" cx="216.6" cy="103.8" r="5.8"/>
<text transform="matrix(1 0 0 1 170.1323 54.9272)" class="st5 st3 st6">white</text>
<use xlink:href="#a"  width="86.2" height="46.3" x="-43.1" y="-23.1" transform="matrix(0.6853 0 0 0.6853 181.3721 77.3035)" style="overflow:visible;"/>
<text transform="matrix(0.7071 0.7071 -0.7071 0.7071 408.1525 110.8504)" class="st2 st3 st4">1:30</text>
<circle class="st7" cx="424.1" cy="103.7" r="5.8"/>
<text transform="matrix(1 0 0 1 455.2363 57.9429)" class="st5 st3 st6">blue</text>
<use xlink:href="#a"  width="86.2" height="46.3" x="-43.1" y="-23.1" transform="matrix(0.6853 0 0 0.6853 463.9402 80.3876)" style="overflow:visible;"/>
<text transform="matrix(0.7071 0.7071 -0.7071 0.7071 220.3673 297.8814)" class="st2 st3 st4">7:30</text>
<circle class="st7" cx="216.7" cy="311.2" r="5.8"/>
<text transform="matrix(1 0 0 1 170.9551 321.8008)" class="st5 st3 st6">pink</text>
<use xlink:href="#a"  width="86.2" height="46.3" x="-43.1" y="-23.1" transform="matrix(0.6853 0 0 0.6853 179.5217 344.2458)" style="overflow:visible;"/>
<title>cyclic-timeline</title>
<circle class="st8" cx="944.4" cy="207.4" r="146.7"/>
<text transform="matrix(6.123234e-17 -1 1 6.123234e-17 814.0762 213.5859)" class="st2 st3 st4">9:00</text>
<text transform="matrix(1 0 0 1 743.5542 192.6133)" class="st5 st3 st6">b</text>
<text transform="matrix(1 0 0 1 749.1055 192.6133)" class="st5 st3 st6">r</text>
<text transform="matrix(1 0 0 1 752.395 192.6133)" class="st5 st3 st6">own</text>
<circle class="st7" cx="797.7" cy="207.5" r="5.8"/>
<use xlink:href="#a"  width="86.2" height="46.3" x="-43.1" y="-23.1" transform="matrix(0.6853 0 0 0.6853 756.4384 215.0581)" style="overflow:visible;"/>
<text transform="matrix(6.123234e-17 1 -1 6.123234e-17 1074.7129 201.1797)" class="st2 st3 st4">3:00</text>
<circle class="st7" cx="1091" cy="207.3" r="5.8"/>
<text transform="matrix(1 0 0 1 1127.21 192.6133)" class="st5 st3 st6">r</text>
<text transform="matrix(1 0 0 1 1130.5 192.6133)" class="st5 st3 st6">ed</text>
<use xlink:href="#a"  width="86.2" height="46.3" x="-43.1" y="-23.1" transform="matrix(0.6853 0 0 0.6853 1133.5842 215.0581)" style="overflow:visible;"/>
<text transform="matrix(1 0 0 1 936.3413 77.1323)" class="st2 st3 st4">12:00</text>
<circle class="st7" cx="944.3" cy="60.8" r="5.8"/>
<text transform="matrix(1 0 0 1 932.2983 9.626)" class="st5 st3 st6">g</text>
<text transform="matrix(1 0 0 1 937.8496 9.626)" class="st5 st3 st6">r</text>
<text transform="matrix(1 0 0 1 941.1392 9.626)" class="st5 st3 st6">een</text>
<use xlink:href="#a"  width="86.2" height="46.3" x="-43.1" y="-23.1" transform="matrix(0.6853 0 0 0.6853 944.0176 32.0707)" style="overflow:visible;"/>
<text transform="matrix(1 0 0 1 937.6436 342.0869)" class="st2 st3 st4">6:00</text>
<circle class="st7" cx="944.5" cy="354.1" r="5.8"/>
<text transform="matrix(1 0 0 1 932.6406 375.2588)" class="st5 st3 st6">violet</text>
<use xlink:href="#a"  width="86.2" height="46.3" x="-43.1" y="-23.1" transform="matrix(0.6853 0 0 0.6853 944.0176 397.6342)" style="overflow:visible;"/>
<text transform="matrix(0.7071 -0.7071 0.7071 0.7071 1034.8938 307.4082)" class="st2 st3 st4">4:30</text>
<circle class="st7" cx="1048.2" cy="311" r="5.8"/>
<text transform="matrix(1 0 0 1 1066.4893 329.1348)" class="st5 st3 st6">y</text>
<text transform="matrix(1 0 0 1 1071.0811 329.1348)" class="st5 st3 st6">ellow</text>
<use xlink:href="#a"  width="86.2" height="46.3" x="-43.1" y="-23.1" transform="matrix(0.6853 0 0 0.6853 1079.7845 351.5104)" style="overflow:visible;"/>
<text transform="matrix(0.7071 -0.7071 0.7071 0.7071 846.5608 120.994)" class="st2 st3 st4">11:30</text>
<circle class="st7" cx="840.6" cy="103.8" r="5.8"/>
<text transform="matrix(1 0 0 1 794.1323 54.9272)" class="st5 st3 st6">white</text>
<use xlink:href="#a"  width="86.2" height="46.3" x="-43.1" y="-23.1" transform="matrix(0.6853 0 0 0.6853 805.3721 77.3035)" style="overflow:visible;"/>
<text transform="matrix(0.7071 0.7071 -0.7071 0.7071 1032.1525 110.8504)" class="st2 st3 st4">1:30</text>
<circle class="st7" cx="1048.1" cy="103.7" r="5.8"/>
<text transform="matrix(1 0 0 1 1079.2363 57.9429)" class="st5 st3 st6">blue</text>
<use xlink:href="#a"  width="86.2" height="46.3" x="-43.1" y="-23.1" transform="matrix(0.6853 0 0 0.6853 1087.9402 80.3876)" style="overflow:visible;"/>
<text transform="matrix(0.7071 0.7071 -0.7071 0.7071 844.3674 297.8814)" class="st2 st3 st4">7:30</text>
<circle class="st7" cx="840.7" cy="311.2" r="5.8"/>
<text transform="matrix(1 0 0 1 794.9551 321.8008)" class="st5 st3 st6">pink</text>
<use xlink:href="#a"  width="86.2" height="46.3" x="-43.1" y="-23.1" transform="matrix(0.6853 0 0 0.6853 803.5217 344.2458)" style="overflow:visible;"/>
</svg>
