<?xml version="1.0" encoding="utf-8"?>
<!-- Generator: Adobe Illustrator 24.0.1, SVG Export Plug-In . SVG Version: 6.00 Build 0)  -->
<svg version="1.1" id="Layer_1" xmlns="http://www.w3.org/2000/svg" xmlns:xlink="http://www.w3.org/1999/xlink" x="0px" y="0px"
	 viewBox="0 0 1268 418" style="enable-background:new 0 0 1268 418;" xml:space="preserve">
<style type="text/css">
	.st0{fill:none;stroke:#CCCCCC;stroke-width:1.2933;stroke-linecap:round;stroke-linejoin:round;}
	.st1{fill:#CCCCCC;}
	.st2{font-family:'RobotoMono-Regular';}
	.st3{font-size:18px;}
	.st4{fill:none;stroke:#817B9B;stroke-width:4;}
	.st5{fill:#B5AEC7;stroke:#817B9B;stroke-width:4;stroke-linecap:round;stroke-linejoin:round;}
	.st6{fill:#C4C5D1;stroke:#817B9B;stroke-width:4;stroke-linecap:round;stroke-linejoin:round;}
</style>
<path class="st0" d="M51.6,381.6H1262V4.8H51.6L51.6,381.6z"/>
<path class="st0" d="M51.6,50.2H39.3"/>
<path class="st0" d="M51.6,242.3H39.3"/>
<path class="st0" d="M51.6,338.5H39.3"/>
<path class="st0" d="M51.6,146.4H39.3"/>
<text transform="matrix(0 -1.0058 1 0 28.1689 253.4971)" class="st1 st2 st3">20</text>
<text transform="matrix(0 -1.0058 1 0 28.1689 60.7554)" class="st1 st2 st3">40</text>
<text transform="matrix(0 -1.0058 1 0 28.1689 157.1265)" class="st1 st2 st3">30</text>
<text transform="matrix(0 -1.0058 1 0 28.1689 349.8682)" class="st1 st2 st3">10</text>
<g>
	<path class="st0" d="M316.5,382.6V395"/>
	<text transform="matrix(0.9943 0 0 1 299.589 411.6729)" class="st1 st2 st3">jul</text>
	<path class="st4" d="M318.3,340.7v-72"/>
	<path class="st4" d="M342.3,340.8l-47.1-0.1"/>
	<path class="st5" d="M259.6,174.6v94h113.7v-94l-26.7-17.5h-61.3L259.6,174.6z"/>
	<path class="st6" d="M259.6,140.4V49h113.7v91.4l-26.7,16.1h-61.3L259.6,140.4z"/>
	<path class="st4" d="M317.4,15.7V49"/>
	<path class="st4" d="M293.4,15.7h47.1"/>
</g>
<g>
	<path class="st0" d="M1007.9,382.6V395"/>
	<text transform="matrix(0.9943 0 0 1 991.0139 411.6729)" class="st1 st2 st3">nov</text>
	<path class="st4" d="M1009.7,354.7v-57"/>
	<path class="st4" d="M1033.7,354.8l-47.1-0.1"/>
	<path class="st5" d="M951,174.6v123.1h113.7V174.6l-26.7-17.5h-61.3L951,174.6z"/>
	<path class="st6" d="M951,140.4V49h113.7v91.4l-26.7,16.1h-61.3L951,140.4z"/>
	<path class="st4" d="M1008.8,15.7V49"/>
	<path class="st4" d="M984.8,15.7h47.1"/>
</g>
<g>
	<path class="st0" d="M489.3,382.6V395"/>
	<text transform="matrix(0.9943 0 0 1 472.446 411.6729)" class="st1 st2 st3">aug</text>
	<path class="st4" d="M491.1,344.6v-40.9"/>
	<path class="st4" d="M515.1,344.7l-47.1-0.1"/>
	<path class="st5" d="M432.5,182.4v121.3h113.7V182.4l-26.7-31.8h-61.3L432.5,182.4z"/>
	<path class="st6" d="M432.5,119.6v-59h113.7v59L519.5,150h-61.3L432.5,119.6z"/>
	<path class="st4" d="M490.2,31.3v29.3"/>
	<path class="st4" d="M466.3,31.3h47.1"/>
</g>
<g>
	<path class="st0" d="M835.1,382.6V395"/>
	<text transform="matrix(0.9943 0 0 1 818.1585 411.6729)" class="st1 st2 st3">oct</text>
	<path class="st4" d="M836.9,362.6v-40.9"/>
	<path class="st4" d="M860.8,362.7l-47.1-0.1"/>
	<path class="st5" d="M778.2,235.4v86.3h113.7v-86.3l-26.7-31.8H804L778.2,235.4z"/>
	<path class="st6" d="M778.2,172.6v-59h113.7v59L865.2,203H804L778.2,172.6z"/>
	<path class="st4" d="M836,68.3v45.3"/>
	<path class="st4" d="M812,68.3H859"/>
</g>
<g>
	<path class="st0" d="M143.6,382.6V395"/>
	<text transform="matrix(0.9943 0 0 1 126.7333 411.6729)" class="st1 st2 st3">jun</text>
	<path class="st4" d="M145.4,370.5v-40.9"/>
	<path class="st4" d="M169.4,370.6l-47.1-0.1"/>
	<path class="st5" d="M86.8,260.2v69.4h113.7v-69.4l-26.7-17.5h-61.3L86.8,260.2z"/>
	<path class="st6" d="M86.8,226v-25.3h113.7V226l-26.7,16.2h-61.3L86.8,226z"/>
	<path class="st4" d="M144.5,113v87.7"/>
	<path class="st4" d="M120.5,113h47.1"/>
</g>
<g>
	<path class="st0" d="M1180.8,382.6V395"/>
	<text transform="matrix(0.9943 0 0 1 1163.8707 411.6729)" class="st1 st2 st3">dec</text>
	<path class="st4" d="M1182.6,328.2v-87.9"/>
	<path class="st4" d="M1206.6,328.3l-47.1-0.1"/>
	<path class="st5" d="M1123.9,170.9v69.4h113.7v-69.4l-26.7-17.5h-61.3L1123.9,170.9z"/>
	<path class="st6" d="M1123.9,123.7V98.4h113.7v25.3l-26.7,29.2h-61.3L1123.9,123.7z"/>
	<path class="st4" d="M1181.7,23.7v74.7"/>
	<path class="st4" d="M1157.7,23.7h47.1"/>
</g>
<g>
	<path class="st0" d="M662.2,382.6V395"/>
	<text transform="matrix(0.9943 0 0 1 645.3022 411.6729)" class="st1 st2 st3">sep</text>
	<path class="st4" d="M664,335.5v-88.8"/>
	<path class="st4" d="M688,335.6l-47.1-0.1"/>
	<path class="st5" d="M605.3,222.6v24h113.7v-24l-26.7-49.9h-61.3L605.3,222.6z"/>
	<path class="st6" d="M605.3,124.8V96.9h113.7v27.9l-26.7,47.3h-61.3L605.3,124.8z"/>
	<path class="st4" d="M663.1,52.1v44.9"/>
	<path class="st4" d="M639.1,52.1h47.1"/>
</g>
</svg>
