<svg enable-background="new 0 0 1268 418" viewBox="0 0 1268 418" xmlns="http://www.w3.org/2000/svg"><g fill="none" stroke="#ccc" stroke-miterlimit="10" stroke-width="1.2"><path d="m63.3 4v377.3h1190.7"/><path d="m51.8 292.1h12"/><path d="m51.8 203.1h12"/><path d="m51.8 115.3h12"/><path d="m51.8 26.3h12"/></g><text fill="#ccc" font-family="'RobotoMono-Regular'" font-size="18" transform="translate(24 210.3)">40</text><text fill="#ccc" font-family="'RobotoMono-Regular'" font-size="18" transform="translate(24 123.7)">60</text><text fill="#ccc" font-family="'RobotoMono-Regular'" font-size="18" transform="translate(24 34.7)">80</text><text fill="#ccc" font-family="'RobotoMono-Regular'" font-size="18" transform="translate(24 297.4)">20</text><path d="m138 101.8c2 4.3 3.1 9 3.2 13.8l2.3 25.3c.7 20.4 10.3 35.6 26.7 49.3 7.9 6.6 11 24.8 8.1 34.2-2.7 8.7-6.2 13.3-5 20.8.4 2.4 1.5 4.6 3.1 6.4l5.8 6.4c8.1 10.5.4 29.1-9.7 38.1-13.2 11.6-22.2 21.8-25.9 38.3l-8.2 36.4c0 .2-.2.4-.4.4s-.4-.2-.4-.4" fill="#b5aec7"/><path d="m138.6 21.1c-.7 0-1.3.4-1.4 1.1l-17.6 59.2c-3 11-3.9 22.5-2.9 33.8l2.4 24.8c1.3 13.5 0 27.1-3.9 40.1l-9.9 32.8c-7 23.3-5.7 48.2 3.5 70.7l28.3 65.5c.2.6.8 1 1.5 1" fill="#c4c5d1"/><path d="m144.2 204.7h-4.6v-67.3h-2.3v67.3h-4.7v70.9h4.7v28.1h2.3v-28.1h4.6z" fill="#807b9b"/><path d="m138.5 392.3v-11.4" fill="none" stroke="#ccc" stroke-miterlimit="10" stroke-width="1.2"/><text fill="#ccc" font-family="'RobotoMono-Regular'" font-size="18" transform="translate(114.1 413.4)">2011</text><circle cx="138.4" cy="238.6" fill="#fff" r="3.1"/><path d="m1178.9 21.5c0-.2.2-.4.4-.4s.4.2.4.4l8.2 36.4c3.7 16.5 12.7 26.7 25.9 38.3 10.1 9 17.8 27.6 9.7 38.1l-5.8 6.4c-1.6 1.8-2.7 4-3.1 6.4-1.2 7.5 2.3 12.1 5 20.8 2.9 9.4-.2 27.6-8.1 34.2-16.4 13.7-26 28.9-26.7 49.3l-2.3 25.3c-.1 4.8-1.2 9.5-3.2 13.8" fill="#b5aec7"/><path d="m1179.9 42.2c-.7 0-1.3.4-1.5 1l-28.3 65.5c-9.2 22.5-10.5 47.4-3.5 70.7l9.9 32.8c3.9 13 5.2 26.6 3.9 40.1l-2.4 24.8c-1 11.3-.1 22.8 2.9 33.8l17.6 59.2c.1.7.7 1.1 1.4 1.1" fill="#c4c5d1"/><path d="m1185.5 116.7h-4.6v-28.1h-2.3v28.1h-4.7v70.9h4.7v67.3h2.3v-67.3h4.6z" fill="#807b9b"/><path d="m1179.8 392.3v-11.4" fill="none" stroke="#ccc" stroke-miterlimit="10" stroke-width="1.2"/><text fill="#ccc" font-family="'RobotoMono-Regular'" font-size="18" transform="translate(1155.3999 413.4)">2016</text><circle cx="1179.7" cy="153.7" fill="#fff" r="3.1"/><path d="m318.7 312.9c.6 0 1.1-.3 1.3-.9l6-23.1c4.1-19.8 4.5-17.7 6.6-24.7s18.6-35.8 13.1-54.8c-3.1-10.8 9.5-29.1 9.5-37.5 0-12.1.1-15.6-6.3-26.2l-4.5-7.4c-7.8-13.2-14.1-27.2-18.6-41.9l-5.9-19.1c-.2-.6-.8-.9-1.4-.9" fill="#b5aec7"/><path d="m319 53.8c-.8 0-1.5.5-1.8 1.3l-13.3 31.9c-4.5 10.7-9.4 21.2-14.8 31.3l-.2.5c-9.9 18.8-13 40.5-8.8 61.4l23.5 118.8c1.8 9.2 7.1 17.6 13 24.3.5.6 1.2.9 2 .9h.1" fill="#c4c5d1"/><path d="m325 127.1h-4.8v-18.9h-2.5v18.9h-4.8v99.1h4.8v50.1h2.5v-50.1h4.8z" fill="#807b9b"/><path d="m319 392.3v-11.4" fill="none" stroke="#ccc" stroke-miterlimit="10" stroke-width="1.2"/><text fill="#ccc" font-family="'RobotoMono-Regular'" font-size="18" transform="translate(298.1415 413.4)">2012</text><circle cx="319" cy="166.7" fill="#fff" r="3.1"/><path d="m1012.7 342.9c.6 0 1.2-.3 1.4-.9l5.9-19.1c4.5-14.7 10.8-28.7 18.6-41.9l4.5-7.4c6.4-10.6 6.3-14.1 6.3-26.2 0-8.4-12.6-26.7-9.5-37.5 5.5-19-11-47.8-13.1-54.8s-2.5-4.9-6.6-24.7l-6-23.1c-.2-.6-.7-.9-1.3-.9" fill="#b5aec7"/><path d="m1012.9 95.1h-.1c-.8 0-1.5.3-2 .9-5.9 6.7-11.2 15.1-13 24.3l-23.5 118.8c-4.2 20.9-1.1 42.6 8.8 61.4l.2.5c5.4 10.1 10.3 20.6 14.8 31.3l13.3 31.9c.3.8 1 1.3 1.8 1.3" fill="#c4c5d1"/><path d="m1019.2 193.1h-4.8v-50.1h-2.5v50.1h-4.8v99.1h4.8v18.9h2.5v-18.9h4.8z" fill="#807b9b"/><path d="m1013.2 392.3v-11.4" fill="none" stroke="#ccc" stroke-miterlimit="10" stroke-width="1.2"/><text fill="#ccc" font-family="'RobotoMono-Regular'" font-size="18" transform="translate(992.3415 413.4)">2016</text><circle cx="1013.2" cy="252.6" fill="#fff" r="3.1"/><path d="m489.9 271c.7 0 1.4.6 1.8 0l13.3-23.5c4.5-7.9 9.5-15.6 14.8-23l.2-.4c9.9-13.6 13-29.8 8.8-45.3l-23.6-87.6c-1.8-6.8-7.1-13-13-17.9-.5-.5-1.3-.7-2-.7h-.1" fill="#b5aec7"/><path d="m490.1 80.5c-.6 0-1.1.3-1.4.8l-5.9 16.1c-4.6 12.5-10.9 24.4-18.6 35.3l-4.5 6.2c-10.9 14.5-12.8 33.9-4.9 50.2l10.2 21.4c7.5 15.7 13.4 32.2 17.6 49.1l6 19.5c.2.5.7.8 1.3.8" fill="#c4c5d1"/><path d="m496.1 144.4h-4.9v-9.4h-2.4v9.4h-4.8v39.6h4.8v35.2h2.4v-35.2h4.9z" fill="#807b9b"/><path d="m490 392.3v-11.4" fill="none" stroke="#ccc" stroke-miterlimit="10" stroke-width="1.2"/><text fill="#ccc" font-family="'RobotoMono-Regular'" font-size="18" transform="translate(469.305 413.4)">2013</text><circle cx="490" cy="158.1" fill="#fff" r="3.1"/><path d="m837.2 327.6h.1c.7 0 1.5-.2 2-.7 5.9-4.9 11.2-11.1 13-17.9l23.6-87.6c4.2-15.5 1.1-31.7-8.8-45.3l-.2-.4c-5.3-7.4-10.3-15.1-14.8-23l-13.3-23.5c-.4-.6-1.1-1-1.8-1" fill="#b5aec7"/><path d="m837 120.3c-.6 0-1.1.3-1.3.8l-6 19.5c-4.2 16.9-10.1 33.4-17.6 49.1l-10.2 21.4c-7.9 16.3-6 35.7 4.9 50.2l4.5 6.2c7.7 10.9 14 22.8 18.6 35.3l5.9 16.1c.3.5.8.8 1.4.8" fill="#c4c5d1"/><path d="m843.2 216.2h-4.9v-35.2h-2.4v35.2h-4.8v39.6h4.8v9.4h2.4v-9.4h4.9z" fill="#807b9b"/><path d="m837.1 392.3v-11.4" fill="none" stroke="#ccc" stroke-miterlimit="10" stroke-width="1.2"/><text fill="#ccc" font-family="'RobotoMono-Regular'" font-size="18" transform="translate(816.405 413.4)">2015</text><circle cx="837.1" cy="242.1" fill="#fff" r="3.1"/><path d="m666.4 304.9h.3c.8 0 1.5-.3 2-.9 5.9-6.7 11.2-15.1 13-24.3l23.6-118.8c4.2-20.9 1.1-42.6-8.8-61.4l-.2-.5c-5.4-10.1-10.3-20.6-14.8-31.3l-13.3-18.9c-.3-.8-1-1.3-1.8-1.3" fill="#b5aec7"/><path d="m666.8 349.9c0 .2-.2.4-.4.4s-.4-.2-.4-.4l-8.2-38.2c-3.7-17.5-12.8-33.4-25.9-45.5-10.1-9.3-13.9-23.7-9.7-36.8l3.5-11.2c3.4-10.5 3.5-21.9.4-32.5-2.9-9.9.2-16.6 8.1-23.5 16.4-14.4 26-24.6 26.7-46l2.3-35.3c.1-5 1.2-14.8 3.2-19.5" fill="#c4c5d1"/><path d="m672.7 199.1h-4.8v-52.3h-2.4v52.3h-4.8v67h4.8v13.3h2.4v-13.3h4.8z" fill="#807b9b"/><path d="m667.2 392.3v-11.4" fill="none" stroke="#ccc" stroke-miterlimit="10" stroke-width="1.2"/><text fill="#ccc" font-family="'RobotoMono-Regular'" font-size="18" transform="translate(650.3409 413.4)">2014</text><circle cx="666.7" cy="232.7" fill="#fff" r="3.1"/></svg>