<?xml version="1.0" encoding="utf-8"?>
<!-- Generator: Adobe Illustrator 22.1.0, SVG Export Plug-In . SVG Version: 6.00 Build 0)  -->
<svg version="1.1" id="Layer_1" xmlns="http://www.w3.org/2000/svg" xmlns:xlink="http://www.w3.org/1999/xlink" x="0px" y="0px"
	 viewBox="0 0 1268 418" style="enable-background:new 0 0 1268 418;" xml:space="preserve">
<style type="text/css">
	.st0{fill:#9C8FA8;}
	.st1{fill:#A0A0A0;}
	.st2{font-family:'RobotoMono-Regular';}
	.st3{font-size:34.7908px;}
	.st4{stroke:#000000;stroke-width:0.5;stroke-miterlimit:10;}
	.st5{fill:#E8C69E;}
</style>
<g id="Layer_2_1_">
</g>
<rect x="89.7" y="15.9" class="st0" width="331.3" height="331.3"/>
<g id="Layer_2_2_">
</g>
<rect x="574.5" y="181.6" class="st0" width="165.7" height="165.7"/>
<g id="Layer_2_3_">
</g>
<rect x="904.1" y="264.4" class="st0" width="82.8" height="82.8"/>
<g id="Layer_2_4_">
</g>
<rect x="1150" y="330.7" class="st0" width="16.6" height="16.6"/>
<text transform="matrix(1 0 0 1 205.6621 401.3926)" class="st1 st2 st3">40000</text>
<text transform="matrix(1 0 0 1 607.6411 401.3926)" class="st1 st2 st3">10000</text>
<text transform="matrix(1 0 0 1 903.7158 401.3926)" class="st1 st2 st3">2500</text>
<text transform="matrix(1 0 0 1 1126.9277 401.3926)" class="st1 st2 st3">100</text>
<g>
	<g>
	</g>
</g>
<g>
	<g>
		<g>
			<g>
				<path class="st4" d="M411,552v-85.8c47.4,0,85.8,38.4,85.8,85.8c0,47.4-38.4,85.8-85.8,85.8s-85.8-38.4-85.8-85.8
					c0-47.4,38.4-85.8,85.8-85.8l0,0V552z"/>
				<path class="st4" d="M607,552v-42.9c23.7,0,42.9,19.2,42.9,42.9s-19.2,42.9-42.9,42.9s-42.9-19.2-42.9-42.9s19.2-42.9,42.9-42.9
					l0,0V552z"/>
				<path class="st4" d="M803,552v-21.4c11.8,0,21.4,9.6,21.4,21.4s-9.6,21.4-21.4,21.4s-21.4-9.6-21.4-21.4s9.6-21.4,21.4-21.4l0,0
					V552z"/>
				<path class="st4" d="M999,552v-4.3c2.4,0,4.3,1.9,4.3,4.3s-1.9,4.3-4.3,4.3s-4.3-1.9-4.3-4.3s1.9-4.3,4.3-4.3l0,0V552z"/>
			</g>
		</g>
	</g>
	<g>
		<g>
		</g>
	</g>
</g>
<text transform="matrix(1 0 0 1 398.1979 868.5493)" class="st1 st2" style="font-size:18.8251px;">40000</text>
<text transform="matrix(1 0 0 1 615.7057 868.5493)" class="st1 st2" style="font-size:18.8251px;">10000</text>
<text transform="matrix(1 0 0 1 775.9103 868.5493)" class="st1 st2" style="font-size:18.8251px;">2500</text>
<text transform="matrix(1 0 0 1 896.6877 868.5493)" class="st1 st2" style="font-size:18.8251px;">100</text>
<g>
	<path class="st5" d="M427.4,766.4v-76.9c42.5,0,76.9,34.4,76.9,76.9c0,42.5-34.4,76.9-76.9,76.9s-76.9-34.4-76.9-76.9
		c0-42.5,34.4-76.9,76.9-76.9l0,0V766.4z"/>
	<path class="st5" d="M644.3,804.1v-38.4c21.2,0,38.4,17.2,38.4,38.4s-17.2,38.4-38.4,38.4c-21.2,0-38.4-17.2-38.4-38.4
		s17.2-38.4,38.4-38.4l0,0V804.1z"/>
	<path class="st5" d="M798.5,823.8v-19.2c10.6,0,19.2,8.6,19.2,19.2c0,10.6-8.6,19.2-19.2,19.2s-19.2-8.6-19.2-19.2
		c0-10.6,8.6-19.2,19.2-19.2l0,0V823.8z"/>
	<path class="st5" d="M913.6,835.5v-3.8c2.1,0,3.8,1.7,3.8,3.8s-1.7,3.8-3.8,3.8s-3.8-1.7-3.8-3.8s1.7-3.8,3.8-3.8l0,0V835.5z"/>
</g>
</svg>
