<svg enable-background="new 0 0 650 420" height="420" viewBox="0 0 650 420" width="650" xmlns="http://www.w3.org/2000/svg"><path d="m346.7 3c-44.7.3-82.6 12.6-119 38.7l119 163.7z" fill="#a6a6a6"/><path d="m179.3 32.4c-72.6 53.5-101.8 143.2-74.5 229.2l109.3-35.5 85.6-27.8-18.4-25.5z" fill="#c8c8c8"/><path d="m306.5 225.2-154.7 50.3c6.5 20.2 16.3 39.2 28.9 56.3 66.8 92 195.7 112.7 288 46.7l-28.5-39.3-92.5-127.3z" fill="#bfbfbf"/><path d="m471.1 376.6c55-40.5 84.1-98.1 84.1-166.6.1-113.6-92-206.2-205.5-207v206.5l45.5 62.6z" fill="#dcdcdc"/><g fill="#919191" font-family="'RobotoMono-Regular'" font-size="23"><text transform="translate(437.9 196.53)">40</text><text transform="translate(293.98 334.54)">30</text><text transform="translate(164.25 173.07)">20</text><text transform="translate(284.45 92.71)">10</text></g></svg>