<?xml version="1.0" encoding="utf-8"?>
<!-- Generator: Adobe Illustrator 24.0.1, SVG Export Plug-In . SVG Version: 6.00 Build 0)  -->
<svg version="1.1" id="Layer_1" xmlns="http://www.w3.org/2000/svg" xmlns:xlink="http://www.w3.org/1999/xlink" x="0px" y="0px"
	 viewBox="0 0 1268 418" style="enable-background:new 0 0 1268 418;" xml:space="preserve">
<style type="text/css">
	.st0{fill:#A6A6BF;}
	.st1{fill:#C8C8E1;}
	.st2{fill:#BFBFD8;}
	.st3{fill:#DCDCF5;}
	.st4{fill:#9191AA;}
	.st5{font-family:'RobotoMono-Regular';}
	.st6{font-size:22.8397px;}
</style>
<g>
	<path class="st0" d="M365,3.4C320.7,3.7,283,16,246.9,41.9L365,204.4V3.4z"/>
	<path class="st1" d="M198.8,32.6c-72.1,53.1-101.1,142.2-74,227.6L233.4,225l85-27.6l-18.3-25.3L198.8,32.6z"/>
	<path class="st2" d="M325.1,224.1L171.5,274c6.5,20.1,16.2,38.9,28.7,55.9c66.3,91.4,194.3,111.9,286,46.4l-28.3-39L366,210.9
		L325.1,224.1z"/>
	<path class="st3" d="M488.6,374.4c54.6-40.2,83.5-97.4,83.5-165.4C572.2,96.2,480.7,4.2,368,3.4v205.1l45.2,62.2L488.6,374.4z"/>
	<g>
		<text transform="matrix(1 0 0 1 455.6138 195.624)" class="st4 st5 st6">40</text>
		<text transform="matrix(1 0 0 1 312.6968 332.6729)" class="st4 st5 st6">30</text>
		<text transform="matrix(1 0 0 1 183.8706 172.3276)" class="st4 st5 st6">20</text>
		<text transform="matrix(1 0 0 1 303.2329 92.5278)" class="st4 st5 st6">10</text>
	</g>
</g>
<g>
	<path class="st0" d="M946.1,3.4C901.7,3.7,864.1,16,828,41.9l118.2,162.6V3.4H946.1z"/>
	<path class="st1" d="M779.9,32.6c-72.1,53.1-101.1,142.2-74,227.6L814.5,225l85-27.6l-18.3-25.3L779.9,32.6z"/>
	<path class="st2" d="M906.2,224.1L752.6,274c6.5,20.1,16.2,38.9,28.7,55.9c66.3,91.4,194.3,111.9,286,46.4l-28.3-39l-91.9-126.4
		L906.2,224.1z"/>
	<path class="st3" d="M1069.7,374.4c54.6-40.2,83.5-97.4,83.5-165.4c0.1-112.8-91.4-204.8-204.1-205.6v205.1l45.2,62.2L1069.7,374.4
		z"/>
	<g>
		<text transform="matrix(1 0 0 1 1036.6982 195.624)" class="st4 st5 st6">40</text>
		<text transform="matrix(1 0 0 1 893.7812 332.6729)" class="st4 st5 st6">30</text>
		<text transform="matrix(1 0 0 1 764.9551 172.3276)" class="st4 st5 st6">20</text>
		<text transform="matrix(1 0 0 1 884.3174 92.5278)" class="st4 st5 st6">10</text>
	</g>
</g>
</svg>
