<svg xmlns="http://www.w3.org/2000/svg" width="256" height="256" viewBox="0 0 256 256"><title>icon</title><path d="M29.5,125.3a11,11,0,1,0-10.9-11A11,11,0,0,0,29.5,125.3Zm25.8,35.2V142.3A13.8,13.8,0,0,0,41.8,129H17.1A13.3,13.3,0,0,0,3.8,142.3v18.2ZM29.6,199.7a11,11,0,1,0-11-10.9A11,11,0,0,0,29.6,199.7Zm25.7,35.2V216.7a13.8,13.8,0,0,0-13.6-13.3H17A13.3,13.3,0,0,0,3.7,216.7v18.2ZM95.4,125.3a11,11,0,1,0-11-11A11,11,0,0,0,95.4,125.3Zm25.7,35.2V142.3A13.7,13.7,0,0,0,107.6,129H82.9a13.2,13.2,0,0,0-13.3,13.3v18.2Zm40.1-35.2a11,11,0,1,0-10.9-11A11,11,0,0,0,161.2,125.3ZM148.7,129a13.3,13.3,0,0,0-13.3,13.3v18.2H187V142.3A13.8,13.8,0,0,0,173.4,129M30.2,51.1a11,11,0,1,0-11-11A11,11,0,0,0,30.2,51.1ZM55.9,86.3V68.1A13.7,13.7,0,0,0,42.5,54.8H17.7A13.3,13.3,0,0,0,4.4,68.1V86.3ZM96,51.1a11,11,0,1,0-11-11A11.1,11.1,0,0,0,96,51.1Zm25.7,35.2V68.1a13.7,13.7,0,0,0-13.5-13.3H83.5A13.3,13.3,0,0,0,70.2,68.1V86.3ZM227,124.8a11,11,0,1,0-11-10.9A11,11,0,0,0,227,124.8ZM252.7,160V141.9a13.6,13.6,0,0,0-13.5-13.3H214.5a13.2,13.2,0,0,0-13.3,13.3V160ZM161.2,50.8a11,11,0,1,0-10.9-10.9A10.9,10.9,0,0,0,161.2,50.8Zm-12.5,3.7a13.3,13.3,0,0,0-13.3,13.3V86H187V67.8a13.8,13.8,0,0,0-13.6-13.3m-78,145.3a11,11,0,1,0-11-11A11,11,0,0,0,95.4,199.8ZM121.1,235V216.8a13.7,13.7,0,0,0-13.5-13.3H82.9a13.2,13.2,0,0,0-13.3,13.3V235Z"/></svg>