<?xml version="1.0" encoding="utf-8"?>
<!-- Generator: Adobe Illustrator 19.2.0, SVG Export Plug-In . SVG Version: 6.00 Build 0)  -->
<svg version="1.1" id="Layer_1" xmlns="http://www.w3.org/2000/svg" xmlns:xlink="http://www.w3.org/1999/xlink" x="0px" y="0px"
	 width="1268px" height="558px" viewBox="0 0 1268 558" enable-background="new 0 0 1268 558" xml:space="preserve">
<g id="Layer_2">
</g>
<polygon fill="#C4B7BD" points="651.238,271.533 994.153,271.533 1037.74,189.645 607.651,189.645 "/>
<polygon fill="#F3D0AA" points="751.119,553 817.72,553 827.671,553 894.272,553 894.272,471.112 751.119,471.112 "/>
<polygon fill="#A4A6C9" points="827.671,2 817.72,2 507.77,2 551.358,83.887 1094.033,83.887 1137.621,2 "/>
<polygon fill="#E3C8B0" points="751.119,459.177 894.272,459.177 937.86,377.29 707.531,377.29 "/>
<polygon fill="#D3BFB6" points="701.178,365.355 944.213,365.355 987.8,283.467 657.591,283.467 "/>
<polygon fill="#B4AEC3" points="601.298,177.71 1044.093,177.71 1087.681,95.822 557.71,95.822 "/>
<g>
	<text transform="matrix(1 0 0 1 151.106 51.8098)"><tspan x="0" y="0" fill="#6C5F82" font-family="'RobotoCondensed-Regular'" font-size="26px">Engagement</tspan><tspan x="0" y="94" fill="#6C5F82" font-family="'RobotoCondensed-Regular'" font-size="26px">Education</tspan><tspan x="0" y="188" fill="#6C5F82" font-family="'RobotoCondensed-Regular'" font-size="26px">Research</tspan><tspan x="0" y="282" fill="#6C5F82" font-family="'RobotoCondensed-Regular'" font-size="26px">Evaluation</tspan><tspan x="0" y="376" fill="#6C5F82" font-family="'RobotoCondensed-Regular'" font-size="26px">Justification</tspan><tspan x="0" y="470" fill="#6C5F82" font-family="'RobotoCondensed-Regular'" font-size="26px">Purchase</tspan></text>
</g>
<rect x="326" y="26" fill="#EBE0D4" width="52" height="13"/>
<rect x="389" y="26" fill="#EBE0D4" width="27" height="13"/>
<rect x="326" y="50" fill="#EBE0D4" width="109" height="13"/>
<g opacity="0.92">
	<rect x="326" y="214" fill="#EBE0D4" width="84" height="13"/>
	<rect x="326" y="238" fill="#EBE0D4" width="62" height="13"/>
	<rect x="399" y="238" fill="#EBE0D4" width="53" height="13"/>
</g>
<g opacity="0.8">
	<rect x="326.024" y="496.948" transform="matrix(1 0.002 -0.002 1 0.9989 -0.7475)" fill="#EBE0D4" width="103" height="13"/>
	<rect x="325.976" y="520.934" transform="matrix(1 0.002 -0.002 1 1.0465 -0.7325)" fill="#EBE0D4" width="88" height="13"/>
	<rect x="424.976" y="521.121" transform="matrix(1 0.002 -0.002 1 1.047 -0.9199)" fill="#EBE0D4" width="79.023" height="13"/>
	<rect x="440.024" y="497.108" transform="matrix(1 0.002 -0.002 1 0.9994 -0.9071)" fill="#EBE0D4" width="35.973" height="13"/>
</g>
<g opacity="0.85">
	<rect x="326" y="401" fill="#EBE0D4" width="54" height="13"/>
	<rect x="326" y="424" fill="#EBE0D4" width="44" height="13"/>
	<rect x="381" y="424" fill="#EBE0D4" width="56" height="13"/>
	<rect x="448" y="424" fill="#EBE0D4" width="73" height="13"/>
	<rect x="391" y="401" fill="#EBE0D4" width="73" height="13"/>
</g>
<g opacity="0.87">
	<rect x="326" y="307" fill="#EBE0D4" width="54" height="13"/>
	<rect x="326" y="331" fill="#EBE0D4" width="71" height="13"/>
	<rect x="408" y="331" fill="#EBE0D4" width="104" height="13"/>
	<rect x="391" y="307" fill="#EBE0D4" width="91" height="13"/>
</g>
<rect x="326" y="119" fill="#EBE0D4" width="84" height="13"/>
<rect x="326" y="143" fill="#EBE0D4" width="36" height="13"/>
<rect x="373" y="143" fill="#EBE0D4" width="67" height="13"/>
<g>
	<line fill="none" stroke="#B3B3B3" stroke-miterlimit="10" x1="130" y1="84.5" x2="491" y2="84.5"/>
	<circle fill="#A4A6C9" cx="130" cy="84" r="4"/>
</g>
<g>
	<line fill="none" stroke="#B3B3B3" stroke-miterlimit="10" x1="130" y1="178.1" x2="542" y2="178.1"/>
	<circle fill="#B4AEC3" cx="130" cy="177.6" r="4"/>
</g>
<g>
	<line fill="none" stroke="#B3B3B3" stroke-miterlimit="10" x1="130" y1="271.7" x2="592" y2="271.7"/>
	<circle fill="#C4B7BD" cx="130" cy="271.2" r="4"/>
</g>
<g>
	<line fill="none" stroke="#B3B3B3" stroke-miterlimit="10" x1="130" y1="364.3" x2="641" y2="364.3"/>
	<circle fill="#D3BFB6" cx="130" cy="364.8" r="4"/>
</g>
<g>
	<line fill="none" stroke="#B3B3B3" stroke-miterlimit="10" x1="130" y1="457.9" x2="691" y2="457.9"/>
	<circle fill="#E3C8B0" cx="130" cy="458.4" r="4"/>
</g>
<g>
	<line fill="none" stroke="#B3B3B3" stroke-miterlimit="10" x1="130" y1="551.5" x2="692" y2="551.5"/>
	<circle fill="#F3D0AA" cx="130" cy="552" r="4"/>
</g>
</svg>
