<?xml version="1.0" encoding="utf-8"?>
<!-- Generator: Adobe Illustrator 22.1.0, SVG Export Plug-In . SVG Version: 6.00 Build 0)  -->
<svg version="1.1" xmlns="http://www.w3.org/2000/svg" xmlns:xlink="http://www.w3.org/1999/xlink" x="0px" y="0px"
	 viewBox="0 0 1268 418" enable-background="new 0 0 1268 418" xml:space="preserve">
<g id="Layer_1">
	<polygon fill="#C4B7BD" points="398.3,204.5 656,204.5 688.7,143 365.6,143 	"/>
	<rect x="473.4" y="354.5" fill="#F3D0AA" width="107.6" height="61.5"/>
	<polygon fill="#A4A6C9" points="530.9,2 523.4,2 290.5,2 323.3,63.5 731,63.5 763.8,2 	"/>
	<polygon fill="#E3C8B0" points="473.4,345.5 580.9,345.5 613.7,284 440.6,284 	"/>
	<polygon fill="#D3BFB6" points="435.8,275 618.5,275 651.2,213.5 403.1,213.5 	"/>
	<polygon fill="#B4AEC3" points="360.8,134 693.5,134 726.3,72.5 328.1,72.5 	"/>
	<line fill="none" stroke="#B3B3B3" stroke-miterlimit="10" x1="879.5" y1="173.2" x2="712.7" y2="173.2"/>
	<circle fill="#DCBFAB" cx="879.2" cy="173.2" r="3"/>
	<line fill="none" stroke="#B3B3B3" stroke-miterlimit="10" x1="879.2" y1="244.2" x2="674.9" y2="244.2"/>
	<circle fill="#C4AEAD" cx="879.2" cy="244.2" r="3"/>
	<line fill="none" stroke="#B3B3B3" stroke-miterlimit="10" x1="879.2" y1="314.1" x2="637.6" y2="314.1"/>
	<circle fill="#AD9CAE" cx="879.2" cy="314.8" r="3"/>
	<line fill="none" stroke="#B3B3B3" stroke-miterlimit="10" x1="879.2" y1="384.9" x2="621.3" y2="384.9"/>
	<circle fill="#968BAF" cx="879.2" cy="384.9" r="3"/>
	
		<rect x="986.5" y="371.5" transform="matrix(-1 -4.486867e-11 4.486867e-11 -1 1999.913 752.9)" fill="#EBE5E1" width="27" height="9.9"/>
	
		<rect x="901.5" y="371.5" transform="matrix(-1 -4.474877e-11 4.474877e-11 -1 1879.7954 752.9)" fill="#EBE5E1" width="76.9" height="9.9"/>
	
		<rect x="901.5" y="389.5" transform="matrix(-1 -4.487933e-11 4.487933e-11 -1 1868.9119 788.9218)" fill="#EBE5E1" width="66" height="9.9"/>
	
		<rect x="975.3" y="389.5" transform="matrix(-1 -4.499746e-11 4.499746e-11 -1 2003.7954 788.9218)" fill="#EBE5E1" width="53.1" height="9.9"/>
	
		<rect x="956.5" y="300.7" transform="matrix(-1 -4.485136e-11 4.485136e-11 -1 1982.913 611.3143)" fill="#EBE5E1" width="70" height="9.9"/>
	
		<rect x="901.5" y="300.7" transform="matrix(-1 -4.478829e-11 4.478829e-11 -1 1849.7954 611.3143)" fill="#EBE5E1" width="46.9" height="9.9"/>
	
		<rect x="901.5" y="318.7" transform="matrix(-1 -4.480561e-11 4.480561e-11 -1 1858.9119 647.3361)" fill="#EBE5E1" width="56" height="9.9"/>
	
		<rect x="965.3" y="318.7" transform="matrix(-1 -4.487356e-11 4.487356e-11 -1 1966.7954 647.3361)" fill="#EBE5E1" width="36.1" height="9.9"/>
	<line fill="none" stroke="#B3B3B3" stroke-miterlimit="10" x1="879.2" y1="32" x2="787.8" y2="32"/>
	<circle fill="#AD9CAE" cx="879.2" cy="32.7" r="3"/>
	<line fill="none" stroke="#B3B3B3" stroke-miterlimit="10" x1="879.2" y1="103.9" x2="749.5" y2="103.9"/>
	<circle fill="#968BAF" cx="879.2" cy="103.9" r="3"/>
	
		<rect x="986.5" y="90.6" transform="matrix(-1 -4.513779e-11 4.513779e-11 -1 1999.913 191.0432)" fill="#EBE5E1" width="27" height="9.9"/>
	
		<rect x="901.5" y="90.6" transform="matrix(-1 -4.489088e-11 4.489088e-11 -1 1879.7954 191.0432)" fill="#EBE5E1" width="76.9" height="9.9"/>
	
		<rect x="901.5" y="108.6" transform="matrix(-1 -4.485180e-11 4.485180e-11 -1 1868.9119 227.065)" fill="#EBE5E1" width="66" height="9.9"/>
	
		<rect x="975.3" y="108.6" transform="matrix(-1 -4.482649e-11 4.482649e-11 -1 2003.7954 227.065)" fill="#EBE5E1" width="53.1" height="9.9"/>
	
		<rect x="956.5" y="18.6" transform="matrix(-1 -4.485136e-11 4.485136e-11 -1 1982.913 47.0432)" fill="#EBE5E1" width="70" height="9.9"/>
	
		<rect x="901.5" y="18.6" transform="matrix(-1 -4.482737e-11 4.482737e-11 -1 1849.7954 47.0432)" fill="#EBE5E1" width="46.9" height="9.9"/>
	
		<rect x="901.5" y="36.6" transform="matrix(-1 -4.483803e-11 4.483803e-11 -1 1858.9119 83.065)" fill="#EBE5E1" width="56" height="9.9"/>
	
		<rect x="965.3" y="36.6" transform="matrix(-1 -4.482338e-11 4.482338e-11 -1 1966.7954 83.065)" fill="#EBE5E1" width="36.1" height="9.9"/>
	
		<rect x="986.5" y="158.7" transform="matrix(-1 -4.520529e-11 4.520529e-11 -1 1999.913 327.3143)" fill="#EBE5E1" width="27" height="9.9"/>
	
		<rect x="901.5" y="158.7" transform="matrix(-1 -4.486690e-11 4.486690e-11 -1 1879.7954 327.3143)" fill="#EBE5E1" width="76.9" height="9.9"/>
	
		<rect x="901.5" y="176.7" transform="matrix(-1 -4.485180e-11 4.485180e-11 -1 1868.9119 363.3362)" fill="#EBE5E1" width="66" height="9.9"/>
	
		<rect x="975.3" y="176.7" transform="matrix(-1 -4.479229e-11 4.479229e-11 -1 2003.7954 363.3362)" fill="#EBE5E1" width="53.1" height="9.9"/>
	
		<rect x="901.5" y="230.7" transform="matrix(-1 -4.489488e-11 4.489488e-11 -1 1889.7954 471.3143)" fill="#EBE5E1" width="86.9" height="9.9"/>
	
		<rect x="901.5" y="248.7" transform="matrix(-1 -4.480561e-11 4.480561e-11 -1 1858.9119 507.3362)" fill="#EBE5E1" width="56" height="9.9"/>
	
		<rect x="965.3" y="248.7" transform="matrix(-1 -4.492596e-11 4.492596e-11 -1 1986.7954 507.3362)" fill="#EBE5E1" width="56.1" height="9.9"/>
</g>
<g id="Layer_2">
</g>
<g id="Layer_3">
</g>
</svg>
