<svg enable-background="new 0 0 1268 418" viewBox="0 0 1268 418" xmlns="http://www.w3.org/2000/svg"><path d="m804.9 92.8h129.3v60h-129.3z" fill="#c4c5d1"/><path d="m804.9 354.4h129.3v60.2h-129.3z" fill="#c4c5d1"/><path d="m943.2 92.8h129.3v60h-129.3z" fill="#c4c5d1"/><path d="m666.5 354.4h129.3v60.2h-129.3z" fill="#c4c5d1"/><path d="m943.2 223.5h129.3v60.2h-129.3z" fill="#c4c5d1"/><path d="m666.5 158h129.3v60.2h-129.3z" fill="#c4c5d1"/><path d="m528.1 354.4h129.3v60.2h-129.3z" fill="#c4c5d1"/><path d="m666.5 288.9h129.3v60.2h-129.3z" fill="#c4c5d1"/><path d="m528.1 288.9h129.3v60.2h-129.3z" fill="#c4c5d1"/><path d="m528.1 158h129.3v60.2h-129.3z" fill="#908aaa"/><path d="m804.9 288.9h129.3v60.2h-129.3z" fill="#908aaa"/><path d="m804.9 158h129.3v60.2h-129.3z" fill="#c4c5d1"/><path d="m666.5 92.8h129.3v60h-129.3z" fill="#c4c5d1"/><path d="m804.9 223.5h129.3v60.2h-129.3z" fill="#c4c5d1"/><path d="m528.1 223.5h129.3v60.2h-129.3z" fill="#c4c5d1"/><path d="m528.1 92.8h129.3v60h-129.3z" fill="#c4c5d1"/><path d="m943.2 158h129.3v60.2h-129.3z" fill="#c4c5d1"/><path d="m666.5 223.5h129.3v60.2h-129.3z" fill="#908aaa"/><path d="m251.2 27h129.3v60.2h-129.3z" fill="#908aaa"/><path d="m251.2 158h129.3v60.2h-129.3z" fill="#b5aec7"/><path d="m251.2 92.8h129.3v60h-129.3z" fill="#b5aec7"/><path d="m251.2 354.4h129.3v60.2h-129.3z" fill="#b5aec7"/><path d="m251.2 223.5h129.3v60.2h-129.3z" fill="#b5aec7"/><path d="m251.2 288.9h129.3v60.2h-129.3z" fill="#b5aec7"/><path d="m389.6 223.5h129.3v60.2h-129.3z" fill="#c4c5d1"/><path d="m389.6 158h129.3v60.2h-129.3z" fill="#c4c5d1"/><path d="m389.6 354.4h129.3v60.2h-129.3z" fill="#c4c5d1"/><path d="m389.6 92.5h129.3v60.2h-129.3z" fill="#908aaa"/><path d="m389.6 288.9h129.3v60.2h-129.3z" fill="#c4c5d1"/><path d="m389.6 27h129.3v60.2h-129.3z" fill="#b5aec7"/><path d="m666.5 27h129.3v60.2h-129.3z" fill="#b5aec7"/><path d="m528.1 27h129.3v60.2h-129.3z" fill="#b5aec7"/><path d="m943.2 27h129.3v60.2h-129.3z" fill="#b5aec7"/><path d="m804.9 27h129.3v60.2h-129.3z" fill="#b5aec7"/><path d="m943.2 354.4h129.3v60.2h-129.3z" fill="#908aaa"/><path d="m943.2 288.9h129.3v60.2h-129.3z" fill="#c4c5d1"/><g fill="#cecece" font-family="'RobotoMono-Regular'" font-size="20"><text transform="translate(309.3037 20.5166)">A</text><text transform="translate(447.6074 20.5166)">B</text><text transform="translate(585.1172 20.5166)">C</text><text transform="translate(723.0244 20.5166)">D</text><text transform="translate(861.9873 20.5166)">E</text><text transform="translate(1000.0273 20.5166)">F</text><text transform="translate(224.1035 68.3965)">A</text><text transform="translate(224.1035 133.6514)">B</text><text transform="translate(224.1035 198.9062)">C</text><text transform="translate(224.1035 264.1602)">D</text><text transform="translate(224.1035 329.415)">E</text><text transform="translate(224.1035 394.6719)">F</text></g></svg>