<?xml version="1.0" encoding="utf-8"?>
<!-- Generator: Adobe Illustrator 22.1.0, SVG Export Plug-In . SVG Version: 6.00 Build 0)  -->
<svg version="1.1" id="Layer_1" xmlns="http://www.w3.org/2000/svg" xmlns:xlink="http://www.w3.org/1999/xlink" x="0px" y="0px"
	 viewBox="0 0 1217.3 1272" style="enable-background:new 0 0 1217.3 1272;" xml:space="preserve">
<style type="text/css">
	.st0{fill:#DDDDDD;}
	.st1{fill:#C9C9C9;}
	.st2{fill:#A8A8A8;}
	.st3{fill:#909091;}
	.st4{fill:#514361;}
	.st5{font-family:'RobotoMono-Regular';}
	.st6{font-size:40px;}
	.st7{fill:none;stroke:#C6C6C6;stroke-width:6;stroke-miterlimit:10;}
	.st8{fill:#C6C6C6;}
	.st9{fill:#ADADAD;}
	.st10{font-size:30px;}
	.st11{fill:none;stroke:#C6C6C6;stroke-width:4;stroke-miterlimit:10;}
	.st12{fill:none;stroke:#AFAFAF;stroke-width:4;stroke-linecap:round;stroke-miterlimit:10;}
	.st13{fill:none;stroke:#AFAFAF;stroke-width:4;stroke-linecap:round;stroke-miterlimit:10;stroke-dasharray:0,11.1474;}
	.st14{fill:none;stroke:#AFAFAF;stroke-width:4;stroke-linecap:round;stroke-miterlimit:10;stroke-dasharray:0,10.0016;}
	.st15{fill:none;stroke:#AFAFAF;stroke-width:4;stroke-linecap:round;stroke-miterlimit:10;stroke-dasharray:0,9.9643;}
</style>
<rect x="142.3" y="583" class="st0" width="662" height="567"/>
<rect x="142.3" y="211" class="st1" width="662" height="372"/>
<rect x="804.3" y="211" class="st2" width="279" height="745"/>
<rect x="804.3" y="956" class="st3" width="279" height="194"/>
<g>
	<g>
		<text transform="matrix(1 0 0 1 439.2444 881)" class="st4 st5 st6">60%</text>
	</g>
</g>
<g>
	<g>
		<text transform="matrix(1 0 0 1 439.2444 410.5489)" class="st4 st5 st6">40%</text>
	</g>
</g>
<g>
	<g>
		<text transform="matrix(1 0 0 1 909.0416 410.5489)" class="st4 st5 st6">80%</text>
	</g>
</g>
<g>
	<g>
		<text transform="matrix(1 0 0 1 909.0416 1090.5488)" class="st4 st5 st6">20%</text>
	</g>
</g>
<g>
	<g>
		<text transform="matrix(1 0 0 1 353.2367 96.5894)" class="st4 st5 st6">category A</text>
		<text transform="matrix(1 0 0 1 439.2444 186.5894)" class="st4 st5 st6">70%</text>
	</g>
</g>
<g>
	<g>
		<text transform="matrix(1 0 0 1 22.1863 38.5894)" class="st4 st5 st6">value axis</text>
	</g>
</g>
<g>
	<g>
		<text transform="matrix(1 0 0 1 964.2366 1262.5889)" class="st4 st5 st6">value axis</text>
	</g>
</g>
<g>
	<g>
		<text transform="matrix(1 0 0 1 823.0338 90.5894)" class="st4 st5 st6">category B</text>
		<text transform="matrix(1 0 0 1 909.0416 180.5894)" class="st4 st5 st6">30%</text>
	</g>
</g>
<g>
	<g>
		<g>
			<g>
				<polyline class="st7" points="142.3,95.4 142.3,1151.6 1146.6,1151.6 				"/>
				<g>
					<polygon class="st8" points="127.3,99.7 142.3,73.8 157.2,99.7 					"/>
				</g>
				<g>
					<polygon class="st8" points="1142.2,1166.5 1168.1,1151.6 1142.2,1136.6 					"/>
				</g>
			</g>
		</g>
	</g>
</g>
<g>
	<g>
		<text transform="matrix(1 0 0 1 319.6742 1215.6396)" class="st9 st5 st10">20</text>
	</g>
</g>
<g>
	<g>
		<text transform="matrix(1 0 0 1 39.512 224.1826)" class="st9 st5 st10">100</text>
	</g>
</g>
<g>
	<g>
		<text transform="matrix(1 0 0 1 75.5179 96.5894)" class="st9 st5 st10">%</text>
	</g>
</g>
<g>
	<g>
		<text transform="matrix(1 0 0 1 57.515 413.4111)" class="st9 st5 st10">80</text>
	</g>
</g>
<g>
	<g>
		<text transform="matrix(1 0 0 1 57.515 596.8174)" class="st9 st5 st10">60</text>
	</g>
</g>
<g>
	<g>
		<text transform="matrix(1 0 0 1 57.515 783.7178)" class="st9 st5 st10">40</text>
	</g>
</g>
<g>
	<g>
		<text transform="matrix(1 0 0 1 57.515 968.8701)" class="st9 st5 st10">20</text>
	</g>
</g>
<g>
	<g>
		<text transform="matrix(1 0 0 1 75.5179 1205.2686)" class="st9 st5 st10">0</text>
	</g>
</g>
<g>
	<g>
		<text transform="matrix(1 0 0 1 503.9066 1215.6396)" class="st9 st5 st10">40</text>
	</g>
</g>
<g>
	<g>
		<text transform="matrix(1 0 0 1 691.801 1215.6396)" class="st9 st5 st10">60</text>
	</g>
</g>
<g>
	<g>
		<text transform="matrix(1 0 0 1 879.5414 1215.6396)" class="st9 st5 st10">80</text>
	</g>
</g>
<g>
	<g>
		<text transform="matrix(1 0 0 1 1056.6259 1215.6396)" class="st9 st5 st10">100</text>
	</g>
</g>
<g>
	<g>
		<text transform="matrix(1 0 0 1 1159.0667 1215.6396)" class="st9 st5 st10">%</text>
	</g>
</g>
<line class="st11" x1="121.3" y1="1049" x2="142.3" y2="1049"/>
<line class="st11" x1="121.3" y1="956" x2="142.3" y2="956"/>
<line class="st11" x1="121.3" y1="863" x2="142.3" y2="863"/>
<line class="st11" x1="121.3" y1="770" x2="142.3" y2="770"/>
<line class="st11" x1="121.3" y1="676" x2="142.3" y2="676"/>
<line class="st11" x1="121.3" y1="583" x2="142.3" y2="583"/>
<line class="st11" x1="121.3" y1="490" x2="142.3" y2="490"/>
<line class="st11" x1="121.3" y1="397" x2="142.3" y2="397"/>
<line class="st11" x1="121.3" y1="304" x2="142.3" y2="304"/>
<line class="st11" x1="121.3" y1="211" x2="142.3" y2="211"/>
<line class="st11" x1="245.3" y1="1165" x2="245.3" y2="1150"/>
<line class="st11" x1="338.3" y1="1167" x2="338.3" y2="1152"/>
<line class="st11" x1="431.3" y1="1167" x2="431.3" y2="1152"/>
<line class="st11" x1="524.3" y1="1165" x2="524.3" y2="1150"/>
<line class="st11" x1="618.3" y1="1165" x2="618.3" y2="1150"/>
<line class="st11" x1="711.3" y1="1165" x2="711.3" y2="1150"/>
<line class="st11" x1="804.3" y1="1165" x2="804.3" y2="1150"/>
<line class="st11" x1="897.3" y1="1165" x2="897.3" y2="1150"/>
<line class="st11" x1="990.3" y1="1165" x2="990.3" y2="1150"/>
<line class="st11" x1="1084.3" y1="1165" x2="1084.3" y2="1150"/>
<g>
	<g>
		<line class="st12" x1="157.2" y1="168.6" x2="157.2" y2="168.6"/>
		<line class="st13" x1="157.2" y1="157.4" x2="157.2" y2="129.6"/>
		<line class="st12" x1="157.2" y1="124" x2="157.2" y2="124"/>
		<line class="st14" x1="167.2" y1="124" x2="792.3" y2="124"/>
		<line class="st12" x1="797.3" y1="124" x2="797.3" y2="124"/>
		<line class="st13" x1="797.3" y1="135.1" x2="797.3" y2="163"/>
		<line class="st12" x1="797.3" y1="168.6" x2="797.3" y2="168.6"/>
	</g>
</g>
<g>
	<g>
		<line class="st12" x1="804.3" y1="168.6" x2="804.3" y2="168.6"/>
		<line class="st13" x1="804.3" y1="157.4" x2="804.3" y2="129.6"/>
		<line class="st12" x1="804.3" y1="124" x2="804.3" y2="124"/>
		<line class="st15" x1="814.2" y1="124" x2="1078.3" y2="124"/>
		<line class="st12" x1="1083.3" y1="124" x2="1083.3" y2="124"/>
		<line class="st13" x1="1083.3" y1="135.1" x2="1083.3" y2="163"/>
		<line class="st12" x1="1083.3" y1="168.6" x2="1083.3" y2="168.6"/>
	</g>
</g>
</svg>
