<?xml version="1.0" encoding="utf-8"?>
<!-- Generator: Adobe Illustrator 22.1.0, SVG Export Plug-In . SVG Version: 6.00 Build 0)  -->
<svg version="1.1" id="Layer_1" xmlns="http://www.w3.org/2000/svg" xmlns:xlink="http://www.w3.org/1999/xlink" x="0px" y="0px"
	 viewBox="0 0 1268 418" style="enable-background:new 0 0 1268 418;" xml:space="preserve">
<style type="text/css">
	.st0{fill:#C6BFCF;}
	.st1{fill:#E8D8CD;}
	.st2{fill:#A79FB4;}
	.st3{fill:#D1CDC9;}
	.st4{font-family:'RobotoCondensed-Regular';}
	.st5{font-size:26px;}
	.st6{fill:none;stroke:#C4C4C4;stroke-miterlimit:10;}
</style>
<path class="st0" d="M54.6,136.6h397.6v173.7H54.6L54.6,136.6z"/>
<path class="st0" d="M454.2,102.3h331.9v136.9H454.2L454.2,102.3z"/>
<path class="st0" d="M788,118.9h261v155H788V118.9z"/>
<path class="st0" d="M1051,196.6h199.5v119.5H1051V196.6z"/>
<path class="st1" d="M54.6,35h397.6v101.6H54.6L54.6,35z"/>
<path class="st1" d="M454.2,35h331.9v67.3H454.2L454.2,35z"/>
<path class="st1" d="M788,35h261v83.9H788V35z"/>
<path class="st1" d="M1051,35h199.5v161.6H1051V35z"/>
<path class="st2" d="M54.6,310.3h397.6v68.6H54.6L54.6,310.3z"/>
<path class="st2" d="M788,273.9h261V379H788V273.9z"/>
<path class="st2" d="M1051,316.1h199.5v62.8H1051V316.1z"/>
<path class="st2" d="M786,239.3H454.2v139.1v0.6H786V239.3z"/>
<text transform="matrix(1 0 0 1 247.1772 20.7949)" class="st3 st4 st5">A</text>
<text transform="matrix(1 0 0 1 614.9771 20.7949)" class="st3 st4 st5">B</text>
<text transform="matrix(1 0 0 1 911.9185 20.7949)" class="st3 st4 st5">C</text>
<text transform="matrix(1 0 0 1 1143.3459 20.7949)" class="st3 st4 st5">D</text>
<text transform="matrix(1 0 0 1 3.955078e-02 44.0786)" class="st3 st4 st5">100</text>
<text transform="matrix(1 0 0 1 12.8395 113.0786)" class="st3 st4 st5">80</text>
<text transform="matrix(1 0 0 1 12.8395 182.0786)" class="st3 st4 st5">60</text>
<text transform="matrix(1 0 0 1 12.8395 251.0786)" class="st3 st4 st5">40</text>
<text transform="matrix(1 0 0 1 12.8395 320.0786)" class="st3 st4 st5">20</text>
<path class="st6" d="M55.1,35.8V379h1195.4"/>
<path class="st6" d="M45.5,35.8h10"/>
<path class="st6" d="M45.5,310.3h10"/>
<path class="st6" d="M45.5,241.7h10"/>
<path class="st6" d="M45.5,173.1h10"/>
<path class="st6" d="M45.5,104.4h10"/>
<text transform="matrix(1 0 0 1 174.2397 415.6079)" class="st3 st4 st5">20</text>
<text transform="matrix(1 0 0 1 440.4475 415.6079)" class="st3 st4 st5">40</text>
<text transform="matrix(1 0 0 1 706.0889 415.6079)" class="st3 st4 st5">60</text>
<text transform="matrix(1 0 0 1 971.0889 415.6079)" class="st3 st4 st5">80</text>
<text transform="matrix(1 0 0 1 1229.0056 415.6079)" class="st3 st4 st5">100</text>
<g>
	<path class="st6" d="M453.3,388.4V379"/>
	<path class="st6" d="M718.8,388.4V379"/>
	<path class="st6" d="M984.3,388.4V379"/>
	<path class="st6" d="M1249.9,388.4V379"/>
	<path class="st6" d="M187.7,388.4V379"/>
	<path class="st6" d="M320.5,388.4V379"/>
	<path class="st6" d="M586,388.4V379"/>
	<path class="st6" d="M851.6,388.4V379"/>
	<path class="st6" d="M1117.1,388.4V379"/>
</g>
</svg>
