<svg xmlns="http://www.w3.org/2000/svg" width="256" height="256" viewBox="0 0 256 256"><title>icon_sketch</title><path d="M253,46h-3v.3L187.2,63.7,153.9,33.5,129.3,58.2,106.8,40.7,67.5,80,34.1,46.6,7.3,66.1V7.2h-3V68.3l-.3.2.3.4V248.3h247V248H253Zm-4.8,107.5-3.7.7V114.8h-1.9l5.6-4.7Zm-6.7,1.2-2.4.5V118.7h-1.2l3.6-3.1Zm-5.4,1-6.3,1.2V125.4l6.3-5.2Zm-9.3,1.8-3.6.6V131h-.1l3.7-3.1Zm-6.6,1.2-2.5.4V134.2l.8.7,1.7-1.4Zm-5.5,1-5.4,1v-35l5.4,5.4Zm-8.4,1.6-4.5.8v-44l4.5,4.6Zm-7.5,1.3-4.3.8V114.2h-1.6l3.6-1.3,2.3,2.2Zm-7.3,1.4-5.5,1-1.4-1.4V117.5h-1.1l8-2.8Zm-9.9-3.4-7.2-7.2V120.7l7.2-2.5Zm-10.2-5.4-5.5,4.4V123.7l5.5-1.9Zm-8.5,6.9-6.9,5.7V124.7l2.9,1.5,4-1.4Zm-9.9,8.2-3.9,3.2V121.1l3.9,2.1Zm-6.9,5.6-2.8,2.3V118.1l2.8,1.5Zm-5.8-59.3v64l-3.3,2.8V114.8l3.4,1.8ZM134,185.8l-4.5,3.7-2.4-1.5V111.9l2.2-1.1,4.7,2.5Zm-9.9.4-7.3-4.5V117.2l7.3-3.7Zm-10.3-6.3-6.6-4V122.2l6.6-3.4Zm-9.6-4.1-3,1.5v-52h-.1l3.1-1.6Zm-6,2.9-4.9,2.4V129.3l4.9-2.5Zm-7.9,3.9-2.4,1.2v-50h-3v51.5l-3.3,1.6V135.4l8.7-4.5Zm-11.7,5.8-3.9,1.9V139l3.9-2.1Zm-6.9,3.4-3.4,1.6V142.2l3.4-1.7Zm-6.4-50.5v52.4l-2.7-2.6V139.6l3.5,1.7Zm-5.7-3v50l-4.8-4.6V135.9l4.9,2.4Zm-7.8,42.6-4.9-4.6V132.2l4.9,2.3Zm-7.9-7.4L40,169.8V129l3.9,1.8Zm-6.9-46v39.4l-6.4-6-.5.5v-35l2.7-.9Zm-9.9,36.7L25.3,166V127.9l1.8-.6Zm-4.8,4.6-2.5,2.3V129.6l2.5-.8Zm-5.5,5.1-4.5,4.3V131.9l4.5-1.4Zm-7.5,7.2-2,1.8V133.4l1.9-.6Zm24.3-128L67.5,87l39.7-39.7,22.5,17.5,24.4-24.3,31.7,28.8L250,51.5v51.8l-.6-.7-30.6,25.5-21-21-38.6,13.7-29.9-15.6L68.1,136.7,33.2,120.2l-25.9,8V72.3Z"/></svg>