<?xml version="1.0" encoding="utf-8"?>
<!-- Generator: Adobe Illustrator 24.0.1, SVG Export Plug-In . SVG Version: 6.00 Build 0)  -->
<svg version="1.1" id="Layer_1" xmlns="http://www.w3.org/2000/svg" xmlns:xlink="http://www.w3.org/1999/xlink" x="0px" y="0px"
	 viewBox="0 0 1268 418" style="enable-background:new 0 0 1268 418;" xml:space="preserve">
<style type="text/css">
	.st0{fill:none;stroke:#CCCCCC;stroke-width:1.5897;stroke-linecap:round;stroke-linejoin:round;}
	.st1{fill:none;stroke:#BEBEBE;stroke-width:5;stroke-linecap:round;stroke-linejoin:round;}
	.st2{fill:#B5AEC7;stroke:#817B9B;stroke-width:4;stroke-linecap:round;stroke-linejoin:round;}
	.st3{fill:#C4C5D1;stroke:#817B9B;stroke-width:4;stroke-linecap:round;stroke-linejoin:round;}
	.st4{fill:none;stroke:#817B9B;stroke-width:5;}
	.st5{fill:none;stroke:#CCCCCC;stroke-width:1.255;stroke-linecap:round;stroke-linejoin:round;}
	.st6{fill:#CCCCCC;}
	.st7{font-family:'RobotoMono-Regular';}
	.st8{font-size:18px;}
</style>
<path class="st0" d="M35.6,381.3H1263V5.9H35.6L35.6,381.3z"/>
<g>
	<path class="st1" d="M122.5,365.1v-54.1"/>
	<path class="st1" d="M122.2,29.4v95"/>
	<path class="st2" d="M52.4,210.5c-0.3,2.7-0.2,5.4,0.3,8c1.9,10.2,8.4,18.2,12.9,26.5c4.7,8,7.2,17.2,7.3,26.5
		c0,9-14.7,35.8-12.9,37.1c1.8,1.4,51.3,1,62.2,1.4c10.9,0.4,59.2,0.9,62.2-1.4c3-2.3-12.9-28.1-12.9-37.1
		c0.1-9.3,2.6-18.4,7.3-26.5c4.5-8.3,11.2-16.2,12.9-26.5c0.5-2.7,0.6-5.5,0.3-8.3"/>
	<path class="st3" d="M184.6,192c-4.9-8.3-11-16.3-12.9-26.9c-1.9-10.5,0.6-17.6,2.1-26.5c0.4-2.4,2.4-11.2,0.9-12.8
		c-1.5-1.6-103-2.3-105,0c-2,2.3,0.5,10.4,0.9,12.8c1.5,8.8,3.9,17.3,2.1,26.5c-1.8,9.2-8,18.6-12.9,26.9c-3,5.1-6.1,10.7-7.2,16.8
		c-0.1,0.5,73.5,0.6,73.5,0.6s65.6,0.3,65.6,0C190.9,203,187.7,197.3,184.6,192L184.6,192z"/>
	<path class="st4" d="M122.2,353l-0.1-42.7"/>
	<path class="st4" d="M122.2,83.2v40.7"/>
	<path class="st5" d="M122.2,382.1v9.9"/>
	<text transform="matrix(1 0 0 1 105.176 408.6465)" class="st6 st7 st8">jun</text>
</g>
<g>
	<path class="st1" d="M1184.6,365.1v-54.1"/>
	<path class="st1" d="M1184.3,21.4v103"/>
	<path class="st2" d="M1114.6,204.5c-0.3,3.2-0.2,12.5,0.3,15.7c1.9,12.3,8.4,22,12.9,31.9c4.7,9.7,7.2,20.7,7.3,31.9
		c0,10.9-14.7,43.1-12.9,44.8c1.8,1.7,51.3,1.2,62.2,1.7c10.9,0.5,59.2,1.1,62.2-1.7c3-2.7-12.9-33.9-12.9-44.8
		c0.1-11.2,2.6-22.2,7.3-31.9c4.5-10,11.2-19.5,12.9-31.9c0.5-3.3,0.6-12.7,0.3-16"/>
	<path class="st3" d="M1246.7,189.6c-4.9-9.4-11-18.5-12.9-30.5c-1.9-12,0.6-20,2.1-30.1c0.4-2.7,2.4-12.7,0.9-14.5s-103-2.6-105,0
		c-2,2.6,0.5,11.8,0.9,14.5c1.5,10,3.9,19.7,2.1,30.1c-1.8,10.4-8,21.1-12.9,30.5c-3,5.8-6.1,6.1-7.2,13.1
		c-0.1,0.6,73.5,0.7,73.5,0.7s65.6,0.3,65.6,0C1253,196.2,1249.9,195.6,1246.7,189.6L1246.7,189.6z"/>
	<path class="st4" d="M1184.3,353l-0.1-22.7"/>
	<path class="st4" d="M1184.3,75.2v37.7"/>
	<path class="st5" d="M1184.3,382.1v9.9"/>
	<text transform="matrix(1 0 0 1 1167.2902 408.6465)" class="st6 st7 st8">dec</text>
</g>
<g>
	<path class="st1" d="M299.7,42.3v118.6"/>
	<path class="st1" d="M299.2,331.6v-68.1"/>
	<path class="st2" d="M248.1,213.1c-4.4,4.9-8.6,10.1-12.4,15.4c-3.8,5.6-6.5,11.9-6.5,18.8c0,3.4,0.5,6.7,1.4,9.9
		c0.4,1.6,0.9,3.1,1.4,4.8c0.5,1.6,0.1,1.1,1.1,1.1h132.4c0.9,0,0.8-0.1,1.1-1.1c0.4-1,1-3.1,1.4-4.8c0.9-3.2,1.3-6.6,1.4-9.9
		c0-6.9-2.8-13.3-6.5-18.8c-3.8-5.5-8.3-10.4-12.6-15.4"/>
	<path class="st3" d="M350.3,213.1c-4.1-4.9-8.3-10.2-10.8-16.3c-1.3-3.2-2.2-6.5-2.6-9.9c-0.5-3.3-0.6-6.7-0.9-9.9
		c-0.3-3.3-0.8-6.6-1.5-9.9c-0.1-0.6-0.2-1.2-0.5-1.8h-5.4l-27.2-0.9h-4.1l-27.2,0.9h-5.3c-0.3,0.6-0.4,1.1-0.5,1.8
		c-0.8,3.3-1.3,6.6-1.5,9.9c-0.5,6.8-0.9,13.4-3.6,19.7s-6.7,11.3-10.8,16.3h102.2L350.3,213.1z"/>
	<path class="st4" d="M299.2,295.9v-31.5"/>
	<path class="st4" d="M299.8,74.5v88.9"/>
	<path class="st5" d="M299.2,382.1v9.9"/>
	<text transform="matrix(1 0 0 1 283.6477 408.6465)" class="st6 st7 st8">jul</text>
</g>
<g>
	<path class="st1" d="M1007.8,42.3v118.6"/>
	<path class="st1" d="M1007.3,331.6v-68.1"/>
	<path class="st3" d="M1058.3,219.6c4.3-5.5,8.8-10.9,12.6-17s6.5-13.1,6.5-20.7c-0.1-3.7-0.5-7.4-1.4-10.9c-0.4-1.8-1-4.1-1.4-5.2
		c-0.4-1.1-0.3-1.2-1.1-1.2H941.1c-1,0-0.6-0.6-1.1,1.2s-1,3.5-1.4,5.2c-0.9,3.6-1.4,7.2-1.4,10.9c0,7.6,2.8,14.5,6.5,20.7
		c3.9,5.9,8,11.6,12.4,17"/>
	<path class="st2" d="M1058.5,219.7H956.3c4.1,5.5,8,11.1,10.8,18c2.8,6.9,3.1,14.2,3.6,21.7c0.2,3.7,0.7,7.3,1.5,10.9
		c0.1,0.7,0.2,1.3,0.5,1.9h5.3l27.2,1h4.1l27.2-1h5.4c0.3-0.6,0.4-1.3,0.5-1.9c0.7-3.6,1.2-7.2,1.5-10.9c0.3-3.6,0.4-7.3,0.9-10.9
		c0.5-3.7,1.4-7.4,2.6-10.9c2.5-6.8,6.7-12.6,10.8-18L1058.5,219.7z"/>
	<path class="st4" d="M1007.3,295.9v-22.5"/>
	<path class="st4" d="M1007.9,122.5v40.9"/>
	<path class="st5" d="M1007.3,382.1v9.9"/>
	<text transform="matrix(1 0 0 1 991.7238 408.6465)" class="st6 st7 st8">nov</text>
</g>
<g>
	<path class="st1" d="M476.3,72.9v127.9"/>
	<path class="st1" d="M476.3,343.5v-57.4"/>
	<path class="st2" d="M406.3,243.2c0.1,1.6,0.2,3.3,0.5,4.9c1.2,6.3,2.9,12.5,5,18.6c1.8,5.8,4.3,11.3,7.3,16.6
		c0.4,0.8,1.1,2.5,1.8,2.8c0.6,0.1,1.3,0.1,1.9,0h106.4c0.6,0.1,1.3,0.1,1.9,0c0.8-0.3,1.4-2,1.9-2.8c3.1-5.2,5.5-10.8,7.4-16.6
		c2.1-6,3.8-12.2,5-18.4c0.3-1.5,0.4-3,0.5-4.5"/>
	<path class="st3" d="M546.2,243.6c0.4-4.6-0.5-9.3-2.6-13.4c-2.8-5.4-7.3-9.9-11.7-14.1c-4.4-4.1-8.8-8.3-12.8-12.9
		c-0.6-0.6-1.1-1.9-2-2c-1-0.1-1.9-0.1-2.9,0h-75.8c-1-0.1-2-0.1-3,0c-0.9,0.1-1.4,1.4-2,2c-4,4.5-8.4,8.7-12.8,12.9
		c-4.4,4.3-8.8,8.7-11.7,14.2c-2,4-2.9,8.5-2.6,13.1L546.2,243.6z"/>
	<path class="st4" d="M476.3,336.2v-50"/>
	<path class="st4" d="M476.3,111.9v87.7"/>
	<path class="st5" d="M476.3,382.1v9.9"/>
	<text transform="matrix(1 0 0 1 462.1625 408.6465)" class="st6 st7 st8">aug</text>
</g>
<g>
	<path class="st1" d="M830.4,31v127.9"/>
	<path class="st1" d="M830.4,301.7v-57.4"/>
	<path class="st2" d="M760.3,201.3c0.1,1.5,0.2,3,0.5,4.5c1.2,5.8,2.9,11.4,5,17c1.8,5.3,4.3,10.3,7.3,15.1c0.4,0.7,1.1,2.3,1.8,2.5
		c0.6,0.1,1.3,0.1,1.9,0h106.4c0.6,0.1,1.3,0.1,1.9,0c0.8-0.2,1.4-1.8,1.9-2.5c3.1-4.8,5.5-9.9,7.4-15.1c2.1-5.5,3.8-11.1,5-16.9
		c0.3-1.4,0.4-2.7,0.5-4.1"/>
	<path class="st3" d="M900.3,201.7c0.4-6-0.5-12-2.6-17.4c-2.8-7-7.3-12.8-11.7-18.2s-8.8-10.7-12.8-16.7c-0.6-0.8-1.1-2.4-2-2.6
		c-1-0.1-1.9-0.1-2.9,0h-75.8c-1-0.1-2-0.1-3,0c-0.9,0.2-1.4,1.8-2,2.6c-4,5.8-8.4,11.2-12.8,16.7s-8.8,11.2-11.7,18.3
		c-2,5.2-2.9,11.1-2.6,16.9L900.3,201.7z"/>
	<path class="st4" d="M830.4,294.3v-50"/>
	<path class="st4" d="M830.4,70.1v74.7"/>
	<path class="st5" d="M830.4,382.1v9.9"/>
	<text transform="matrix(1 0 0 1 814.2006 408.6465)" class="st6 st7 st8">oct</text>
</g>
<g>
	<path class="st2" d="M645.5,230.2c-0.1,7.1-2.1,13.9-6,19.8c-3.9,5.9-8.5,11.3-13.7,16.2c-5.1,5.1-10.7,10.2-16.1,15.2
		c-5.2,4.8-10.1,10-14.7,15.4c-4.4,5.3-8.5,11.2-9.7,18.2h8.4l36.5,0.3h45.9l36.5-0.3h8.4c-1-6.9-5.3-12.9-9.7-18.2
		c-4.6-5.4-9.5-10.6-14.7-15.4c-5.4-5-10.9-9.9-16.1-15.2c-5.1-4.9-9.7-10.3-13.6-16.2c-3.9-5.9-6-12.8-6-19.8"/>
	<path class="st4" d="M653.3,352.8v-35.6"/>
	<path class="st4" d="M653.3,104.6v37.9"/>
	<path class="st3" d="M661.1,230.2c0.1-7,2.6-13.9,5.5-20.2c2.7-6.2,6-12.2,9.8-17.8c4.2-5.7,9.1-10.9,14.6-15.3
		c5.6-4.6,11.5-8.8,17.2-13.3s11.4-9,14.2-15.6c0.6-1.6,1-3.2,1.1-4.9l-23.8-0.3l-37.7-0.4h-17.3l-37.7,0.4l-23.8,0.3
		c0.1,1.7,0.5,3.3,1.1,4.9c2.8,6.5,8.8,11.3,14.2,15.6c5.4,4.3,11.5,8.7,17.2,13.3c5.5,4.5,10.4,9.6,14.6,15.3
		c3.8,5.6,7.1,11.6,9.8,17.8c2.9,6.4,5.4,13.2,5.5,20.2H661.1z"/>
	<path class="st5" d="M653.3,382.1v9.9"/>
	<text transform="matrix(1 0 0 1 640.7607 408.6465)" class="st6 st7 st8">sep</text>
</g>
<g>
	<path class="st5" d="M35.6,237.7h-9.9"/>
	<path class="st5" d="M35.6,51.8h-9.9"/>
	<text transform="matrix(0 -1 1 0 18.7539 248.4785)" class="st6 st7 st8">20</text>
	<text transform="matrix(0 -1 1 0 18.7539 61.9844)" class="st6 st7 st8">40</text>
	<text transform="matrix(0 -1 1 0 18.7539 155.2324)" class="st6 st7 st8">30</text>
	<text transform="matrix(0 -1 1 0 18.7539 341.7266)" class="st6 st7 st8">10</text>
	<path class="st5" d="M35.6,330.7h-9.9"/>
	<path class="st5" d="M35.6,144.8h-9.9"/>
</g>
</svg>
