<svg height="256" viewBox="0 0 256 256" width="256" xmlns="http://www.w3.org/2000/svg"><path d="m21.7 153.6c.9 1.6 1.9 3.1 2.7 4.7a36.1 36.1 0 0 1 4.9 17.6c0 3.2-3.4 10.9-5.8 16.5-3.6 8.2-4.4 10.1-2.5 11.6s2.8 1.2 31.4 1.3h11.8v33.4a2.2 2.2 0 0 0 2.2 2.2 2.2 2.2 0 0 0 2.2-2.2v-33.2l16.7.2h5.4c19.3-.2 20.4-1 21.3-1.6 2.5-1.9.7-5.7-3.1-14-2.3-5.1-5.2-11.4-5.2-14.1a35.8 35.8 0 0 1 4.9-17.8c.8-1.5 1.8-3 2.8-4.6 2.7-4.5 5.6-9.1 6.6-14.8a20.9 20.9 0 0 0 .2-6.6 1.4 1.4 0 0 0 -.2-.6c-.7-5-3.1-9.4-5.4-13.1a40.5 40.5 0 0 0 -2.1-3.5c-2.8-4.6-5.8-9.3-6.8-14.9s-.1-9.4.8-14c.3-1.3.5-2.6.8-4a6.5 6.5 0 0 1 .2-1.1c1-5.5 1.2-8.3-.2-9.8s-1.1-1.3-19.9-1.6l-16.7-.2v-27a2.2 2.2 0 0 0 -4.4 0v27h-13.2c-22.2.2-22.7.7-23.6 1.7s-1.1 5.5-.2 9.6a3.9 3.9 0 0 1 .3 1.3l.6 3.4c1 5 1.9 9.7.9 14.6s-4.4 11-7.4 16l-1.5 2.5c-2.5 4.2-4.6 8.1-5.3 12.7-.1.2 0 .5 0 .7a.9.9 0 0 0 -.1.5 19.7 19.7 0 0 0 .2 6.4c1 5.7 3.9 10.3 6.7 14.8zm2.4-32.9c.4-.8.9-1.6 1.4-2.4 3.2-5.3 6.9-11.4 8-17.3s.1-11.2-.9-16.3l-.6-3.3a15.7 15.7 0 0 1 -.3-1.6 21 21 0 0 1 -.8-5.2c7.9-1 61.7-1 71 0a37.8 37.8 0 0 1 -.8 5.6 7.4 7.4 0 0 0 -.2 1.2c-.2 1.3-.5 2.6-.8 3.8-.9 4.9-1.9 9.4-.7 15.7s4.3 11.5 7.3 16.4l2.1 3.4a38.1 38.1 0 0 1 4.3 9.1h-43.9c-16.9 0-41.5-.1-49.3-.3a41.3 41.3 0 0 1 4.2-8.8zm125.9-70 5 3.8c2.4 1.8 4.9 3.7 7.2 5.6a54.2 54.2 0 0 1 9.9 10.4 66.3 66.3 0 0 1 6.7 12.3c1.8 3.9 3.7 8.6 3.8 13.4a24.1 24.1 0 0 1 -3.9 12.8 59.3 59.3 0 0 1 -9.5 11.1c-2.9 3-6 5.9-9 8.7l-2.3 2.1a123.9 123.9 0 0 0 -10.6 11.1c-3.1 3.8-6.4 8.4-7.4 14a2.4 2.4 0 0 0 2.2 2.6h6l25.9.2h14.1v24.3h4.4v-24.3h14.1l25.9-.2h6a2.1 2.1 0 0 0 1.6-.8 2 2 0 0 0 .6-1.8c-.8-5.5-4.2-10.2-7.4-14a123.9 123.9 0 0 0 -10.6-11.1l-2.9-2.7c-2.8-2.6-5.7-5.3-8.5-8.1a62.2 62.2 0 0 1 -9.3-11.1 24.3 24.3 0 0 1 -3.9-12.8v-.5c.2-4.8 2-9.4 3.7-13a68.7 68.7 0 0 1 6.7-12.2 54.2 54.2 0 0 1 9.9-10.4l6.7-5.2 5.5-4.3.3-.2c4-3.2 8.3-6.6 10.4-11.7a11.8 11.8 0 0 0 1-4.2 2.3 2.3 0 0 0 -.6-1.6 2 2 0 0 0 -1.6-.7l-43.7-.5h-3.9v-24.6h-4.4v24.6h-4l-43.6.5a2 2 0 0 0 -1.6.7 2.3 2.3 0 0 0 -.6 1.6 11.8 11.8 0 0 0 1 4.2c2.2 5.2 6.7 8.8 10.7 12zm34.2-14.5h12.2l41 .4c-.1.1-.1.3-.2.4-1.7 4-5.3 6.9-9.1 10l-.3.2-5.4 4.2c-2.3 1.6-4.6 3.4-6.8 5.2a65 65 0 0 0 -10.8 11.4 76.9 76.9 0 0 0 -7.1 12.9c-1.6 3.6-3.5 8.1-4 13.1h-6.8a42.2 42.2 0 0 0 -4-13 66.9 66.9 0 0 0 -7.2-13.1 63.7 63.7 0 0 0 -10.7-11.3l-7.3-5.7-4.9-3.7c-3.6-2.9-7.7-6.1-9.4-10.2-.1-.1-.1-.3-.2-.4z"/></svg>