<?xml version="1.0" encoding="utf-8"?>
<!-- Generator: Adobe Illustrator 22.1.0, SVG Export Plug-In . SVG Version: 6.00 Build 0)  -->
<svg version="1.1" id="Layer_1" xmlns="http://www.w3.org/2000/svg" xmlns:xlink="http://www.w3.org/1999/xlink" x="0px" y="0px"
	 viewBox="0 0 1228 1266" style="enable-background:new 0 0 1228 1266;" xml:space="preserve">
<style type="text/css">
	.st0{fill:url(#SVGID_1_);}
	.st1{fill:url(#SVGID_2_);}
	.st2{fill:#514361;}
	.st3{font-family:'RobotoMono-Regular';}
	.st4{font-size:42.6685px;}
	.st5{fill:#E0E0E0;}
	.st6{fill:none;stroke:#CCCCCC;stroke-width:4;stroke-miterlimit:10;}
	.st7{fill:#6B6A6A;}
	.st8{font-size:24.9315px;}
	.st9{font-size:20.7091px;}
	.st10{font-size:24.5442px;}
	.st11{fill:none;stroke:#AFAFAF;stroke-width:8;stroke-miterlimit:10;}
	.st12{fill:#AFAFAF;}
	.st13{fill:none;stroke:#AFAFAF;stroke-width:16;stroke-miterlimit:10;}
	.st14{fill:none;stroke:#AFAFAF;stroke-width:32;stroke-miterlimit:10;}
	.st15{font-size:32.505px;}
	.st16{fill:#E3E3E3;}
	.st17{opacity:0.75;fill:url(#SVGID_3_);enable-background:new    ;}
	.st18{fill:none;stroke:#727171;stroke-width:2;stroke-linecap:round;stroke-miterlimit:10;stroke-dasharray:0,8;}
	.st19{fill:none;stroke:#AFAFAF;stroke-width:2;stroke-linecap:round;stroke-miterlimit:10;stroke-dasharray:0,8;}
	.st20{fill:#C4C4C4;}
	.st21{fill:#6B6A6A;enable-background:new    ;}
	.st22{font-size:30.4721px;}
	.st23{enable-background:new    ;}
	.st24{font-family:'Roboto-Italic';}
	.st25{font-size:28px;}
</style>
<g>
	<linearGradient id="SVGID_1_" gradientUnits="userSpaceOnUse" x1="447.0164" y1="669.9296" x2="902.2491" y2="214.697">
		<stop  offset="0" style="stop-color:#FFFFFF"/>
		<stop  offset="0.1558" style="stop-color:#FBFBFB"/>
		<stop  offset="0.3098" style="stop-color:#EFEFEF"/>
		<stop  offset="0.4633" style="stop-color:#DBDBDB"/>
		<stop  offset="0.6164" style="stop-color:#BFBFBF"/>
		<stop  offset="0.7694" style="stop-color:#9B9B9B"/>
		<stop  offset="0.9202" style="stop-color:#707070"/>
		<stop  offset="1" style="stop-color:#565656"/>
	</linearGradient>
	<path class="st0" d="M881.3,616.9c0,0-180.9-137.8-167.2-178.2c12.5-36.9,207,7.5,207,7.5l22.8-62.5l-36.2-153.2l-91.2-101.6
		L682.3,71.2l-36.2,18.4c0,0,6.7,351.1-263.7,481.4c-13.1,37.2,12.9,43.3,12.9,43.3L512,702.9l162.3,6.7L777.5,672L881.3,616.9z"/>
	<linearGradient id="SVGID_2_" gradientUnits="userSpaceOnUse" x1="506.7022" y1="499.0292" x2="332.7597" y2="197.7519">
		<stop  offset="0" style="stop-color:#D9D9D9"/>
		<stop  offset="0.235" style="stop-color:#C6C6C6"/>
		<stop  offset="0.7315" style="stop-color:#A4A4A4"/>
		<stop  offset="0.9998" style="stop-color:#969696"/>
	</linearGradient>
	<path class="st1" d="M485.9,121.7c0,0,78.4,176.1,55.6,257.9c-36,129.3-182.6,204.5-182.6,204.5l-56.1-126.7l24.6-114.7
		c0,0,156.8,37.4,158.8,12.8c1.7-20.1-149.6-55-149.6-55l19.7-116.4L485.9,121.7z"/>
	<g>
		<g>
			<text transform="matrix(1 0 0 1 317.5571 112.8001)" class="st2 st3 st4">A</text>
		</g>
	</g>
	<g>
		<g>
			<text transform="matrix(1 0 0 1 410.2196 759.6381)" class="st2 st3 st4">B</text>
		</g>
	</g>
	<g>
		<g>
			<text transform="matrix(1 0 0 1 989.2955 225.8721)" class="st2 st3 st4">C</text>
		</g>
	</g>
	<rect x="292.2" y="1043.1" class="st5" width="55.3" height="55.3"/>
	<rect x="347.5" y="1098.9" class="st5" width="55.3" height="55.3"/>
	<rect x="403.3" y="1154.7" class="st5" width="55.3" height="55.3"/>
	<line class="st6" x1="292.2" y1="1210" x2="292.2" y2="987.8"/>
	<line class="st6" x1="348" y1="1210" x2="348" y2="987.8"/>
	<line class="st6" x1="458.6" y1="1098.9" x2="236.4" y2="1098.9"/>
	<line class="st6" x1="458.6" y1="1154.2" x2="236.4" y2="1154.2"/>
	<line class="st6" x1="403.3" y1="1210" x2="403.3" y2="987.8"/>
	<line class="st6" x1="458.6" y1="1043.1" x2="236.4" y2="1043.1"/>
	<polygon class="st6" points="459.3,1209.1 236.9,1209.1 236.9,987.3 459.1,987.3 	"/>
	<text transform="matrix(1 0 0 1 308.459 1027.5439)" class="st7 st3 st8">a</text>
	<text transform="matrix(1 0 0 1 255.146 1079.958)" class="st7 st3 st8">a</text>
	<text transform="matrix(1 0 0 1 255.146 1137.7637)" class="st7 st3 st8">b</text>
	<text transform="matrix(1 0 0 1 255.146 1193.2588)" class="st7 st3 st8">c</text>
	<text transform="matrix(1 0 0 1 366.2651 1027.5439)" class="st7 st3 st8">b</text>
	<g>
		<text transform="matrix(1 0 0 1 362.605 1079.958)" class="st7 st3 st9">10</text>
	</g>
	<g>
		<text transform="matrix(1 0 0 1 417.3286 1079.958)" class="st7 st3 st9">40</text>
	</g>
	<g>
		<text transform="matrix(1 0 0 1 417.3286 1134.2959)" class="st7 st3 st9">20</text>
	</g>
	<g>
		<text transform="matrix(1 0 0 1 306.1455 1134.2959)" class="st7 st3 st9">10</text>
	</g>
	<g>
		<text transform="matrix(1 0 0 1 308.458 1190.9443)" class="st7 st3 st9">40</text>
	</g>
	<g>
		<text transform="matrix(1 0 0 1 362.6035 1190.9443)" class="st7 st3 st9">20</text>
	</g>
	<text transform="matrix(1 0 0 1 421.7603 1027.5439)" class="st7 st3 st8">c</text>
	<g>
		<text transform="matrix(1 0 0 1 694.3604 1020.4092)" class="st7 st3 st10">a</text>
	</g>
	<g>
		<text transform="matrix(1 0 0 1 767.1982 1000.0537)" class="st7 st3 st10">10</text>
	</g>
	<g>
		<text transform="matrix(1 0 0 1 865.4697 1020.4092)" class="st7 st3 st10">b</text>
	</g>
	<g>
		<g>
			<line class="st11" x1="837.2" y1="1009.1" x2="731.3" y2="1009.1"/>
			<g>
				<polygon class="st12" points="834.3,999.1 851.5,1009.1 834.3,1019.1 				"/>
			</g>
		</g>
	</g>
	<g>
		<text transform="matrix(1 0 0 1 694.3604 1100.4814)" class="st7 st3 st10">b</text>
	</g>
	<g>
		<text transform="matrix(1 0 0 1 767.1982 1079.9834)" class="st7 st3 st10">20</text>
	</g>
	<g>
		<text transform="matrix(1 0 0 1 865.4697 1100.4814)" class="st7 st3 st10">c</text>
	</g>
	<g>
		<g>
			<line class="st13" x1="837.2" y1="1089.3" x2="731.3" y2="1089.3"/>
			<g>
				<polygon class="st12" points="834.3,1079.3 851.5,1089.3 834.3,1099.2 				"/>
			</g>
		</g>
	</g>
	<g>
		<text transform="matrix(1 0 0 1 694.3604 1188.9902)" class="st7 st3 st10">c</text>
	</g>
	<g>
		<text transform="matrix(1 0 0 1 767.1982 1154.6875)" class="st7 st3 st10">40</text>
	</g>
	<g>
		<text transform="matrix(1 0 0 1 865.4697 1188.9902)" class="st7 st3 st10">a</text>
	</g>
	<g>
		<g>
			<line class="st14" x1="837.2" y1="1177.9" x2="731.3" y2="1177.9"/>
			<g>
				<polygon class="st12" points="834.3,1158.6 851.5,1177.9 834.3,1197.2 				"/>
			</g>
		</g>
	</g>
	<g>
		<g>
			<text transform="matrix(1 0 0 1 59.8422 181.5005)" class="st2 st3 st15">ARC</text>
		</g>
	</g>
	<path class="st16" d="M624.7,689.6c-165.6,0-300.4-134.8-300.4-300.4c0-15.8,1.2-31.3,3.6-46.5L286,333c-3,18.3-4.7,37-4.7,56.2
		c0,189.3,154,343.3,343.3,343.3c102,0,193.7-44.8,256.6-115.6l-33.8-26.4C792.4,651.3,712.9,689.6,624.7,689.6z"/>
	<linearGradient id="SVGID_3_" gradientUnits="userSpaceOnUse" x1="932.5549" y1="314.7352" x2="471.1245" y2="314.7352">
		<stop  offset="1.400090e-05" style="stop-color:#030303"/>
		<stop  offset="5.655554e-02" style="stop-color:#141414"/>
		<stop  offset="0.2112" style="stop-color:#404040"/>
		<stop  offset="0.368" style="stop-color:#646464"/>
		<stop  offset="0.525" style="stop-color:#7F7F7F"/>
		<stop  offset="0.6823" style="stop-color:#939393"/>
		<stop  offset="0.8403" style="stop-color:#9F9F9F"/>
		<stop  offset="1" style="stop-color:#A3A3A3"/>
	</linearGradient>
	<path class="st17" d="M908.3,583.1C617.3,364.2,471.1,96.7,471.1,96.7L603,46.4c-0.2,4.2,0,20.6,0,24.7
		c0,192.9,136.6,339.4,329.4,377.4C934.2,450.8,908.3,583.1,908.3,583.1z"/>
	<line class="st18" x1="410.2" y1="192.2" x2="59.8" y2="192.2"/>
	<line class="st19" x1="1077.1" y1="209.1" x2="1027.5" y2="209.1"/>
	<g>
		<g>
			<text transform="matrix(1 0 0 1 990.2954 642.4836)" class="st2 st3 st15">SEGMENT</text>
		</g>
	</g>
	<line class="st19" x1="1124" y1="651" x2="815.8" y2="651"/>
	<path class="st20" d="M603.2,89.6v-43c-145.8,9-267.2,109.5-307.5,244.6l41.9,9.7C373.3,184.7,477.7,98.5,603.2,89.6z"/>
	<path class="st21" d="M925.1,389.2c0,62-18.9,119.6-51.2,167.5l33.8,26.4c38-55.2,60.2-122,60.2-194
		c0-182.1-142.5-331.5-321.9-342.6v43C801.8,100.7,925.1,230.7,925.1,389.2z"/>
</g>
<text transform="matrix(1 0 0 1 59.8423 886.4804)" class="st2 st3 st22">DATA SERIES</text>
<text transform="matrix(1 0 0 1 1093.5677 204.1126)" class="st23"><tspan x="0" y="0" class="st2 st3 st22">SEGMENT</tspan><tspan x="0" y="36.6" class="st2 st3 st22">LABEL</tspan></text>
<g>
	<text transform="matrix(1 0 0 1 59.8423 922.8535)" class="st2 st24 st25">same data represented as a matrix and a diagram</text>
</g>
<g>
	<text transform="matrix(1 0 0 1 989.2955 677.8653)" class="st23"><tspan x="0" y="0" class="st2 st24 st25">unites a group </tspan><tspan x="0" y="33.6" class="st2 st24 st25">of nodes</tspan></text>
</g>
<g>
	<g>
		<text transform="matrix(1 0 0 1 59.8422 623.4846)" class="st2 st3 st15">ARC DIRECTION</text>
	</g>
</g>
<line class="st19" x1="617.7" y1="634.5" x2="59.8" y2="634.5"/>
<g>
	<text transform="matrix(1 0 0 1 59.8423 665.8659)" class="st23"><tspan x="0" y="0" class="st2 st24 st25">here shown with </tspan><tspan x="0" y="33.6" class="st2 st24 st25">gradient</tspan></text>
</g>
<g>
	<text transform="matrix(1 0 0 1 59.8423 225.8719)" class="st23"><tspan x="0" y="0" class="st2 st24 st25">represents </tspan><tspan x="0" y="33.6" class="st2 st24 st25">strength of</tspan><tspan x="0" y="67.2" class="st2 st24 st25">relationships</tspan></text>
</g>
</svg>
