<?xml version="1.0" encoding="utf-8"?>
<!-- Generator: Adobe Illustrator 22.1.0, SVG Export Plug-In . SVG Version: 6.00 Build 0)  -->
<svg version="1.1" xmlns="http://www.w3.org/2000/svg" xmlns:xlink="http://www.w3.org/1999/xlink" x="0px" y="0px"
	 viewBox="0 0 1268 418" enable-background="new 0 0 1268 418" xml:space="preserve">
<g id="Layer_1">
	<path fill="#D8D9DF" d="M300,165.3c-37.4,29.9-103.3,15.5-136.4,11.4c-2.3,12.4-3.3,25.2-2.9,38.2c1,30.5,9.6,58.9,24,83.6
		c4.6-2.6,60.5-35.2,137.7-102.1c48.4-42,116.6-124.3,121-129.6C412.8,44.1,374.7,31,333.7,32C335.1,74,342,131.8,300,165.3z"/>
	<path opacity="0.8" fill="#BEAFB6" d="M208.8,330.7c20.2,21.5,45.7,37.9,74.3,47.3c11.3-44.3,23.1-110.3,3.9-165.8
		c-16.1-46.5-53.2-85.2-85.1-116.3c-18.5,22.2-31.7,48.9-37.6,78.1C268.7,194.9,303.9,230.5,208.8,330.7z"/>
	<path opacity="0.8" fill="#AEA5BF" d="M330.9,32.1C297,33.5,265.7,44.3,239.4,62c56.4,82.7,136.6,182.8,234.7,260.9
		c20-24,33.8-53.3,39-85.3C364.3,215.1,335.2,164.6,330.9,32.1z"/>
	<path fill="#E7D7D4" d="M438.4,153.9c11.8,18,59.9,3.4,68.3,0.7c-3.7-11.3-8.4-22-14.1-32.2c-13.5,7.2-44.4,25.5-45.1,24.3
		c-0.7-1.3,30.3-18.6,43.7-26.7c-6-10.2-12.9-19.7-20.7-28.4C468.7,93.2,424.6,132.9,438.4,153.9z"/>
	<path opacity="0.6" fill="#F3D0AA" d="M443.3,66.7c-97,103.9-98.1,186.5-76.1,317.5c13.9-2.3,27.3-6.2,39.9-11.6
		c-47.1-101.9-57.7-189.4,63.4-281.1C462.3,82.4,453.2,74,443.3,66.7z"/>
	<path fill="#D8BBB8" d="M308.7,203.7c-16-69.7-69-141.3-69.3-141.7c-13.3,8.9-25.3,19.5-35.6,31.6c30.1,29.7,76.1,54,90.9,108.8
		c22.9,84.8-3.6,156.8-11.6,175.6c14.9,4.9,30.5,7.8,46.8,8.5C333.3,330.1,319.2,249.1,308.7,203.7z"/>
	<g>
		<text transform="matrix(1 0 0 1 452.1284 31.9761)" fill="#B3B3B3" font-family="'RobotoCondensed-Regular'" font-size="18px">A</text>
	</g>
	<g>
		<text transform="matrix(1 0 0 1 549.1431 234.903)" fill="#B3B3B3" font-family="'RobotoCondensed-Regular'" font-size="18px">B</text>
	</g>
	<g>
		<text transform="matrix(1 0 0 1 428.6812 416)" fill="#B3B3B3" font-family="'RobotoCondensed-Regular'" font-size="18px">C</text>
	</g>
	<g>
		<text transform="matrix(1 0 0 1 239.9443 416.1688)" fill="#B3B3B3" font-family="'RobotoCondensed-Regular'" font-size="18px">D</text>
	</g>
	<g>
		<text transform="matrix(1 0 0 1 121.5601 271.3848)" fill="#B3B3B3" font-family="'RobotoCondensed-Regular'" font-size="18px">E</text>
	</g>
	<g>
		<text transform="matrix(1 0 0 1 142.6538 120.0226)" fill="#B3B3B3" font-family="'RobotoCondensed-Regular'" font-size="18px">F</text>
	</g>
	<g>
		<text transform="matrix(1 0 0 1 230.084 24.4747)" fill="#B3B3B3" font-family="'RobotoCondensed-Regular'" font-size="18px">G</text>
	</g>
	<path opacity="0.8" fill="#F3D0AA" d="M472,335.1c-33.6,35.8-79.1,56.4-128.2,58c-3.9,0.1-7.7,0.1-11.5,0l-0.5,12.8
		c4.1,0.1,8.3,0.1,12.4,0c52.5-1.7,101.2-23.7,137.2-62c1.9-2.1,3.8-4.2,5.7-6.3l-9.8-8.3C475.6,331.2,473.8,333.2,472,335.1z"/>
	<path fill="#E7D7D4" d="M463.8,75.3c13.2,12.3,24.2,26.3,33.1,41.4l11.2-6.4c-9.5-16.2-21.4-31.2-35.5-44.4
		c-38-35.6-87.4-54.5-139.4-53.2l0.4,12.8C382.1,24.4,428.3,42,463.8,75.3z"/>
	<path opacity="0.5" fill="#5D4E77" d="M509.4,112.8l-11.2,6.4c14.4,25.5,22.5,54.2,23.4,84.3c1.5,45.5-13.6,89-42.6,123.6l9.8,8.3
		c31-37.1,47.2-83.6,45.6-132.3C533.5,170.8,524.8,140,509.4,112.8z"/>
	<path fill="#D8D9DF" d="M154.2,215.2c-0.4-13.5,0.6-26.8,3-39.7l-12.6-2.5c-2.6,13.9-3.7,28.2-3.2,42.6
		c1.5,47.4,19.6,91.7,51.2,126.3l9.4-8.7C172.5,300.8,155.6,259.4,154.2,215.2z"/>
	<path fill="#D8BBB8" d="M212.2,343.4c-2.8-2.7-5.5-5.4-8.2-8.2l-9.4,8.7c2.8,3,5.8,6,8.8,8.8c34.6,32.4,78.7,51,125.6,53.1
		l0.5-12.8C285.7,391,244.5,373.7,212.2,343.4z"/>
	<path opacity="0.8" fill="#AEA5BF" d="M203.9,83.5c33.3-35.5,78.2-56,126.8-57.9l-0.4-12.8c-52,2-100.1,24-135.8,62
		c-2,2.1-3.9,4.2-5.7,6.4l9.8,8.3C200.3,87.4,202.1,85.5,203.9,83.5z"/>
	<path opacity="0.8" fill="#BEAFB6" d="M196.8,91.6l-9.8-8.3c-21.2,25.3-35.4,55-41.8,86.9l12.6,2.5C163.8,143,177,115.2,196.8,91.6
		z"/>
	<path opacity="0.5" fill="#5D4E77" d="M513.1,237.5c1.8-11,2.5-22.3,2.2-33.9c-0.5-17.1-3.5-33.6-8.6-49.1
		C374.6,198,359.1,265.3,407.1,372.7c25.3-10.7,47.5-27.2,65.2-47.6C388.3,256.2,415.2,220.3,513.1,237.5z"/>
	<path opacity="0.6" fill="#F3D0AA" d="M367.5,384.2C349.1,282,284.2,254,184.7,298.5c6.3,10.8,13.8,20.9,22.1,30.1
		c70.6-57.8,128.2-43.5,125.7,58l0,0c3.7,0.1,7.3,0.1,11,0C351.7,386.4,359.7,385.5,367.5,384.2z"/>
	<g>
		<text transform="matrix(1 0 0 1 1014.5461 19.5879)" fill="#B3B3B3" font-family="'RobotoCondensed-Regular'" font-size="18px">A</text>
	</g>
	<g>
		<text transform="matrix(1 0 0 1 1137.517 184.8618)" fill="#B3B3B3" font-family="'RobotoCondensed-Regular'" font-size="18px">B</text>
	</g>
	<g>
		<text transform="matrix(1 0 0 1 1057.7924 392.9541)" fill="#B3B3B3" font-family="'RobotoCondensed-Regular'" font-size="18px">C</text>
	</g>
	<g>
		<text transform="matrix(1 0 0 1 821.0766 412.4316)" fill="#B3B3B3" font-family="'RobotoCondensed-Regular'" font-size="18px">D</text>
	</g>
	<g>
		<text transform="matrix(1 0 0 1 704.9814 216.0625)" fill="#B3B3B3" font-family="'RobotoCondensed-Regular'" font-size="18px">E</text>
	</g>
	<g>
		<text transform="matrix(1 0 0 1 815.6699 26.9746)" fill="#B3B3B3" font-family="'RobotoCondensed-Regular'" font-size="18px">F</text>
	</g>
	<path opacity="0.2" fill="#756686" d="M783,73.2l9.3,8.9c24.6-26,56.1-44.1,91.1-52.3c0,0,0,0,0,0l-3-12.5
		C843,26,809.4,45.3,783,73.2z"/>
	<path opacity="0.4" fill="#CA9F9B" d="M1087.9,97.6l-10.5,7.4c15.6,22.7,25.9,48.9,30,76.9c4.3,29.4,1.6,58.8-7.8,86.1l12.2,4.1
		c10-29.3,13-60.7,8.3-92.2C1115.7,149.9,1104.7,121.9,1087.9,97.6z"/>
	<path opacity="0.9" fill="#BEBFCB" d="M1087.9,97.5c-12.2-17.7-27.3-33.5-45-46.7c-42.2-31.3-94-44.4-146-36.7
		c-5.5,0.8-11,1.9-16.3,3.1c0,0,0,0,0,0l3,12.5c5-1.2,10.1-2.1,15.2-2.9c48.6-7.2,97,5,136.5,34.3c16.6,12.3,30.8,27.1,42.1,43.6
		c0,0.1,0.1,0.1,0.1,0.2L1087.9,97.5C1087.9,97.5,1087.9,97.5,1087.9,97.5z"/>
	<path opacity="0.5" fill="#756686" d="M816,356.3c-11-8.2-20.9-17.4-29.6-27.5l-9.7,8.4c9.4,10.8,20,20.7,31.7,29.4
		c32.7,24.3,71.2,37.6,111,38.7l0.4-12.9C882.5,391.4,846.5,379,816,356.3z"/>
	<path opacity="0.6" fill="#FEDEB8" d="M1083.5,326c12.4-16.6,21.9-34.8,28.4-53.8l-12.2-4.1c-6.1,17.8-15,34.8-26.5,50.3
		c-29.3,39.4-72.2,65.1-120.7,72.2c-10.9,1.6-21.9,2.2-32.7,1.9l-0.4,12.9c11.6,0.3,23.3-0.3,35-2.1
		C1006.3,395.6,1052.1,368.2,1083.5,326z"/>
	<path fill="#D7C8C5" d="M743.7,235.6c-7.2-48.6,5-97,34.3-136.5c4.5-6,9.3-11.7,14.3-17.1l-9.3-8.9c-5.4,5.7-10.6,11.8-15.3,18.3
		c-31.3,42.2-44.4,94-36.7,146c5.5,37.5,21.4,71.8,45.6,99.8l9.7-8.4C763.7,302.7,748.9,270.6,743.7,235.6z"/>
	<g>
		<path fill="#FFFFFF" d="M952.5,390.9c-48.7,7.2-97.2-5-136.7-34.4c-39.5-29.3-65.2-72.3-72.4-121c-7.2-48.7,5-97.2,34.4-136.7
			c29.3-39.5,72.3-65.2,121-72.4c48.7-7.2,97.2,5,136.7,34.4c39.5,29.3,65.2,72.3,72.4,121c7.2,48.7-5,97.2-34.4,136.7
			C1044.1,358.1,1001.1,383.8,952.5,390.9z M899.7,33.3c-96.7,14.3-163.8,104.6-149.6,201.3s104.6,163.8,201.3,149.6
			s163.8-104.6,149.6-201.3S996.4,19,899.7,33.3z"/>
	</g>
	<path fill="#D7C8C5" d="M750.1,234.6c0.5,3.4,1.1,6.9,1.8,10.2l0.5,0.7c38.7-7.1,81.5-24.9,91.9-57.1
		c10.3-32.2-10.6-74.5-43.2-98.9l-4-3l-0.1,0C760.8,124.9,741.9,178.7,750.1,234.6z"/>
	<path opacity="0.6" fill="#F3D0AA" d="M795.5,278l-27.2,12.6c6.4,12.3,14.2,23.6,23.1,33.9l33.4-24.6c40.8-30,98.2,0.3,96.5,50.9
		l-1.2,35.2c0,0,0,0,0,0l39-3.1c0,0,0.1,0,0.1,0l-3.4-20.4C943.2,288.4,863.7,246.5,795.5,278z"/>
	<path opacity="0.4" fill="#756686" d="M929,289.2c-36.6,4.2-74.2,63.3-84.1,77.3c0,0,0.1,0,0.1,0.1l1.4,0.7
		c19.8,9.9,41.5,16.2,64.2,18.1l9.4,0.6c0,0,0,0,0.1,0c0,0,0-76,12.1-77.3c13.2-1.4,25.6,66.3,27,74.1c24.8-4.7,47.4-14.5,67.1-28.1
		C1002.1,324.9,966,284.9,929,289.2z"/>
	<path fill="#D7C8C5" d="M793.7,236.7l-41.6,8.9c3.4,16,8.9,31.1,16.1,45l52.2-24.2c66.2-30.7,143.4-25.8,205.2,13
		c21.1,13.2,39.3,24.6,46.6,28.9c9.8-14.4,16.3-26.7,21.6-43.4l-33.5-12.3C974.9,222.3,883,217.6,793.7,236.7z"/>
	<path opacity="0.6" fill="#F3D0AA" d="M1102.9,211.1c0.1-9.3-0.5-18.8-1.9-28.3c-2.3-15.6-6.6-30.4-12.5-44.2
		c-129,67.9-127.9,128.3-62.4,216.1c18.2-12.6,33.8-28.4,46.1-46.5C981.4,249.8,999.6,207.1,1102.9,211.1z"/>
	<path opacity="0.4" fill="#CA9F9B" d="M1102.8,211.1c0,0-57.5-0.6-76.6-2.3c-39.7-3.6-49.3-29.8-16.9-54.1
		c15.5-11.7,62.5-46.1,62.5-46.1c-9.5-13.8-20.8-26.1-33.6-36.6c-0.9-0.6-2.2-1.8-2.2-1.8s-33.1,42.4-44.2,56.5
		c-37.9,48.3-21.7,92.1,34.7,113.8c30.9,11.9,59.2,21.5,67.2,24.5C1098.8,248.8,1102.7,228.4,1102.8,211.1
		C1102.9,211.1,1102.8,211.1,1102.8,211.1z"/>
	<path opacity="0.9" fill="#BEBFCB" d="M899.7,33.3c-4.8,0.7-9.5,1.6-14.2,2.7l1.8,6.2c19.3,68.9,101.6,86.5,145.6,32l3.1-4l0,0
		C999,40.6,950.2,25.8,899.7,33.3z"/>
	<path opacity="0.2" fill="#756686" d="M1070.1,147.5c8.9-3.9,15.5-6.9,18.6-8.4c-4.7-10.9-10.3-21.2-16.9-30.7l-34.1,20.1
		c-54.2,31.9-124,4.2-141.6-56.2L885.4,36c-11.9,2.8-23.2,6.7-33.9,11.6c2.9,5.3,6.9,13.4,11.6,23.1
		C900.1,147.9,991.6,181.9,1070.1,147.5z"/>
	<path opacity="0.4" fill="#756686" d="M851.9,47.4c-20.8,9.5-39.2,22.8-54.6,38.9c13.5,10.2,74.7,59.7,76.4,115.5
		c1.8,58-63.3,106.2-82.5,122.7c14.9,17.2,33,31.5,53.3,41.9c12.5-20.2,54.8-93.9,53.4-164.4C896.8,138.1,874.6,95.9,851.9,47.4z"/>
	<circle display="none" opacity="0.2" fill="#BEBFCB" cx="925.6" cy="209" r="211.7"/>
	<circle display="none" opacity="0.2" fill="#BEBFCB" cx="336.6" cy="209" r="211.7"/>
</g>
<g id="Layer_2">
</g>
<g id="Layer_3">
</g>
</svg>
