<svg enable-background="new 0 0 256 256" height="256" viewBox="0 0 256 256" width="256" xmlns="http://www.w3.org/2000/svg"><path d="m179.888 167.986c16.999 5.904 40.666 17.807 54.094 28.097.144-.206.293-.468.293-.468 12.482-19.549 19.725-42.753 19.725-67.618 0-18.324-3.936-35.745-11-51.468l-.009-.072s-37.381 22.17-60.96 24.637c15.278-22.723 46.903-39.587 51.485-41.9l-.027-.022c-22.448-34.29-61.145-57.023-105.068-57.168 0 0 2.476 46.814-4.709 74.252-12.905-24.284-15.584-67.687-15.889-72.636-31.969 5.168-59.946 22.407-79.093 46.872 0 0 50.634 33.385 78.444 49.956-22.272 9.443-84.687-31.468-88.954-34.238-10.323 18.266-16.22 39.35-16.22 61.787 0 23.577 6.515 45.658 17.831 64.549l.341.571s60.749-34.967 104.581-34.967c13.33 0 26.1 1.852 37.91 4.737 6.053 25.916 19.525 44.101 28.282 53.707-12.362-12.509-39.246-35.488-70.177-38.52-34.703-3.401-87.424 28.539-89.951 30.026.052.063.1.128.152.19-.003.002-.014.009-.014.009l.051.035c18.642 22.468 44.923 38.38 74.823 43.709 0 0 0 0 .166.028.101.018.208.035.313.053 0 0 8.03-55.934 12.799-55.934 4.872 0 6.046 54.857 6.031 57.712 1.254.061 2.254.095 2.861.095 37.224 0 70.551-16.061 93.581-41.756.001-.001-29.086-22.297-41.692-44.255zm-20.171-25.748c-11.939-1.128-23.774-1.854-34.467-1.854-36.567-.001-87.715 7.345-107.639 10.439 18.352-5.256 69.321-20.722 100.478-38.747 1.504-.87 3.001-1.758 4.491-2.66 3.063 1.735 6.082 3.415 9.031 5.016 8.323 4.52 18.036 8.928 28.204 13.076-.086 1.014-.157 2.025-.196 3.033-.154 4.021-.11 7.918.098 11.697zm-17.83-45.599c28.418-20.324 51.685-43.425 61.075-53.185.043.039.087.077.13.116-8.482 9.842-27.275 33.363-37.159 59.018-8.662-.08-16.917-1.799-24.046-5.949zm28.284 34.953s0-.001 0-.002c27.342 10.436 55.672 18.72 67.918 22.154-.003.012-.006.024-.009.036-11.99-2.299-39.272-7.243-67.724-10.44-.577-3.892-.681-7.82-.185-11.748z"/></svg>