<svg xmlns="http://www.w3.org/2000/svg" width="650" height="470" viewBox="0 0 650 470"><defs><style>.a{fill:silver;}.a,.b,.c,.d,.f,.g,.h,.i,.j,.l,.m,.n,.o,.p{opacity:0.7;}.a,.b,.c,.d,.f,.g,.h,.i,.j,.l,.m,.n,.o,.p,.t{isolation:isolate;}.b{fill:#949494;}.c{fill:#b2b2b2;}.d{fill:#888;}.e{fill:#6b6b6b;}.f{fill:#5b5b5b;}.g{fill:#727272;}.h{fill:#8c8c8c;}.i{fill:#666;}.j{fill:#9f9f9f;}.k{fill:#dbdbdb;}.l{fill:#7d7d7d;}.m{fill:#b5b5b5;}.n{fill:#ababab;}.o{fill:#b6b6b6;}.p{fill:#8e8e8e;}.q{fill:#e6e6e6;}.r{fill:#a8a8a8;}.s{fill:none;stroke:#898888;stroke-width:3px;}.t,.w{font-size:22.12px;fill:#a9a9a9;font-family:Roboto Mono;}.u{fill:#8c8b8b;}.v{fill:#c9c9c9;}</style></defs><title>spiral-heatmap copy</title><rect class="a" x="263.6" y="84.7" width="84.7" height="48.38"/><rect class="b" x="348.2" y="84.7" width="84.7" height="48.38"/><rect class="c" x="432.9" y="84.7" width="84.7" height="48.38"/><rect class="d" x="517.6" y="84.7" width="84.7" height="48.38"/><rect class="d" x="263.6" y="133.1" width="84.7" height="48.38"/><rect class="e" x="348.2" y="133.1" width="84.7" height="48.38"/><rect class="d" x="432.9" y="133.1" width="84.7" height="48.38"/><rect class="f" x="517.6" y="133.1" width="84.7" height="48.38"/><rect class="g" x="263.6" y="181.5" width="84.7" height="48.38"/><rect class="h" x="348.2" y="181.5" width="84.7" height="48.38"/><rect class="i" x="432.9" y="181.5" width="84.7" height="48.38"/><rect class="g" x="517.6" y="181.5" width="84.7" height="48.38"/><rect class="b" x="263.6" y="229.9" width="84.7" height="48.38"/><rect class="a" x="348.2" y="229.9" width="84.7" height="48.38"/><rect class="j" x="432.9" y="229.9" width="84.7" height="48.38"/><rect class="b" x="517.6" y="229.9" width="84.7" height="48.38"/><rect class="k" x="263.6" y="278.2" width="84.7" height="48.38"/><rect class="j" x="348.2" y="278.2" width="84.7" height="48.38"/><rect class="a" x="432.9" y="278.2" width="84.7" height="48.38"/><rect class="l" x="517.6" y="278.2" width="84.7" height="48.38"/><rect class="m" x="263.6" y="326.6" width="84.7" height="48.38"/><rect class="n" x="348.2" y="326.6" width="84.7" height="48.38"/><rect class="o" x="432.9" y="326.6" width="84.7" height="48.38"/><rect class="p" x="517.6" y="326.6" width="84.7" height="48.38"/><rect class="j" x="263.6" y="375" width="84.7" height="48.38"/><rect class="q" x="348.2" y="375" width="84.7" height="48.38"/><rect class="r" x="432.9" y="375" width="84.7" height="48.38"/><rect class="i" x="517.6" y="375" width="84.7" height="48.38"/><path class="s" d="M169.7,145.2H159.3v75.6"/><path class="s" d="M201.6,296.4H159.3V220.8"/><path class="s" d="M256.6,108.9H169.7v36.3"/><path class="s" d="M213.1,181.5H169.7V145.2"/><path class="s" d="M256.6,254H201.6v42.3"/><path class="s" d="M228.5,338.7H201.6V296.4"/><path class="s" d="M256.6,157.3H213.1v24.2"/><path class="s" d="M256.6,205.7H213.1V181.5"/><path class="s" d="M256.6,302.4H228.5v36.3"/><path class="s" d="M241.3,375H228.5V338.7"/><path class="s" d="M256.6,350.8H241.3V375"/><path class="s" d="M256.6,399.2H241.3V375"/><text class="t" transform="translate(616 114.4)">a</text><text class="t" transform="translate(616 259.6)">e</text><text class="t" transform="translate(616 162.8)">f</text><text class="t" transform="translate(616 211.2)">g</text><text class="t" transform="translate(616 308)">b</text><text class="t" transform="translate(616 356.3)">c</text><text class="t" transform="translate(616 404.7)">d</text><path class="s" d="M348.2,43.2V8.7h84.7"/><path class="s" d="M517.6,60.5V8.7H432.9"/><path class="s" d="M305.9,77.8V43.2h42.3"/><path class="s" d="M390.6,77.8V43.2H348.2"/><path class="s" d="M475.2,77.8V60.5h42.3"/><path class="s" d="M559.9,77.8V60.5H517.6"/><text class="t" transform="translate(297 451)">c1</text><text class="t" transform="translate(379.6 451)">c2</text><text class="t" transform="translate(466.3 451)">c3</text><text class="t" transform="translate(548 451)">c4</text><rect class="e" x="34.9" y="125.4" width="20.7" height="40.09"/><rect class="u" x="34.9" y="167.9" width="20.7" height="40.09"/><rect class="v" x="34.9" y="210.7" width="20.7" height="40.09"/><rect class="q" x="34.9" y="253.6" width="20.7" height="40.09"/><rect class="u" x="34.9" y="295.9" width="20.7" height="40.09"/><rect class="e" x="34.9" y="339.1" width="20.7" height="40.09"/><text class="w" transform="translate(69 134.8)">150</text><text class="w" transform="translate(69 218)">100</text><text class="w" transform="translate(69 301.9)">50</text><text class="w" transform="translate(69 387.1)">0</text></svg>