<svg enable-background="new 0 0 1268 418" viewBox="0 0 1268 418" xmlns="http://www.w3.org/2000/svg"><text fill="#ccc" font-family="'RobotoMono-Regular'" font-size="18" transform="translate(74.062 410.3916)">Jul</text><text fill="#ccc" font-family="'RobotoMono-Regular'" font-size="18" transform="translate(74.062 198.7734)">Jan</text><path d="m89.4 390.6c-38.7 1.4-71.3-28.8-72.7-67.6-1.4-38.7 28.8-71.3 67.6-72.7 1.7-.1 3.4-.1 5.1 0" fill="#c4c5d1"/><path d="m89.4 177.6c-42.9 0-77.7-34.8-77.7-77.7s34.8-77.7 77.7-77.7" fill="#c4c5d1"/><path d="m89.4 318.8c19.9 0 35.9 16.1 35.9 35.9 0 19.9-16.1 35.9-35.9 35.9" fill="#a39cb9"/><path d="m89.4 51c35 0 63.3 28.3 63.3 63.3s-28.3 63.3-63.3 63.3" fill="#a39cb9"/><text fill="#ccc" font-family="'RobotoMono-Regular'" font-size="18" transform="translate(279.4365 410.3916)">Aug</text><text fill="#ccc" font-family="'RobotoMono-Regular'" font-size="18" transform="translate(279.4365 198.7734)">Feb</text><path d="m294.7 390.6c-34 1.3-62.6-25.1-64-59.1-1.3-34 25.1-62.6 59.1-64 1.6-.1 3.2-.1 4.8 0" fill="#c4c5d1"/><path d="m294.7 177.6c-38.7-1.4-69-34-67.6-72.7 1.3-36.7 30.8-66.2 67.6-67.6" fill="#c4c5d1"/><path d="m294.7 241.9c41.1 0 74.4 33.3 74.4 74.4s-33.3 74.4-74.4 74.4" fill="#a39cb9"/><path d="m294.7 9c46.6 0 84.3 37.7 84.3 84.2s-37.7 84.3-84.3 84.3" fill="#a39cb9"/><text fill="#ccc" font-family="'RobotoMono-Regular'" font-size="18" transform="translate(724.7708 410.3916)">Oct</text><text fill="#ccc" font-family="'RobotoMono-Regular'" font-size="18" transform="translate(724.7708 198.7734)">Apr</text><path d="m737.7 250.4c1.7-.1 3.4-.1 5.1 0 38.7 1.4 69 34 67.6 72.7s-34 69-72.7 67.6" fill="#a39cb9"/><path d="m737.7 22.2c42.9 0 77.7 34.8 77.7 77.7s-34.8 77.7-77.7 77.7" fill="#a39cb9"/><path d="m737.7 390.6c-19.9 0-35.9-16.1-35.9-35.9 0-19.9 16.1-35.9 35.9-35.9" fill="#c4c5d1"/><path d="m737.7 177.6c-35 0-63.3-28.3-63.3-63.3s28.3-63.3 63.3-63.3" fill="#c4c5d1"/><text fill="#ccc" font-family="'RobotoMono-Regular'" font-size="18" transform="translate(522.7982 410.3916)">Sep</text><text fill="#ccc" font-family="'RobotoMono-Regular'" font-size="18" transform="translate(522.7982 198.7734)">Mar</text><path d="m538.1 390.6c-45 0-81.4-36.5-81.4-81.4s36.5-81.4 81.4-81.4" fill="#c4c5d1"/><path d="m538.1 177.6c-38.8 0-70.2-31.4-70.2-70.2s31.4-70.2 70.2-70.2" fill="#c4c5d1"/><path d="m538.1 302.1c24.4 0 44.3 19.8 44.3 44.3 0 24.4-19.8 44.3-44.3 44.3" fill="#a39cb9"/><path d="m538.1 66.7c30.6 1.3 54.4 27.1 53.1 57.7-1.2 28.8-24.3 51.9-53.1 53.1" fill="#a39cb9"/><text fill="#ccc" font-family="'RobotoMono-Regular'" font-size="18" transform="translate(952.1453 410.3916)">Nov</text><text fill="#ccc" font-family="'RobotoMono-Regular'" font-size="18" transform="translate(952.1453 198.7734)">May</text><path d="m974.1 267.5c1.6-.1 3.2-.1 4.8 0 34 1.3 60.5 30 59.1 64-1.3 34-30 60.5-64 59.1" fill="#a39cb9"/><path d="m974.1 37.3c36.7 1.3 66.2 30.8 67.6 67.6 1.4 38.7-28.8 71.3-67.6 72.7" fill="#a39cb9"/><path d="m974.1 390.6c-41.1 0-74.4-33.3-74.4-74.4s33.3-74.4 74.4-74.4" fill="#c4c5d1"/><path d="m974.1 177.5c-46.5 0-84.3-37.7-84.3-84.3s37.8-84.2 84.3-84.2" fill="#c4c5d1"/><path d="m959.1-77v42" fill="#a39cb9"/><text fill="#ccc" font-family="'RobotoMono-Regular'" font-size="18" transform="translate(1166.5767 410.3916)">Dec</text><text fill="#ccc" font-family="'RobotoMono-Regular'" font-size="18" transform="translate(1166.5767 198.7734)">Jun</text><path d="m1179.5 303.2h3.2c24.2.9 43 21.2 42.1 45.4s-21.2 43-45.4 42.1" fill="#a39cb9"/><path d="m1179.5 22.2c42.9 0 77.7 34.8 77.7 77.7s-34.8 77.7-77.7 77.7" fill="#a39cb9"/><g fill="#c4c5d1"><path d="m1179.5 390.6c-35 0-63.4-28.4-63.4-63.4s28.4-63.4 63.4-63.4"/><path d="m1179.5 177.6c-25.5 0-46.1-20.7-46.1-46.1s20.7-46.1 46.1-46.1"/></g></svg>