<svg xmlns="http://www.w3.org/2000/svg" width="256" height="256" viewBox="0 0 256 256"><title>icon_sketch</title><path d="M49.2,131.3a47.1,47.1,0,0,1,0-94.1v5a42.1,42.1,0,0,0,0,84.1ZM49.2,8V128.8A60.4,60.4,0,0,0,49.2,8Zm93.7,63.3a60,60,0,0,1,59.9-59.9h2.5V22.2a53.3,53.3,0,0,1,0,106.4v2.7h-2.5A60,60,0,0,1,142.9,71.3Zm5,0a55,55,0,0,0,52.4,54.9V16.4A55,55,0,0,0,147.9,71.3Zm26,136.6a38.1,38.1,0,0,1-34.6,37.9v2.7h-2.5a50.6,50.6,0,0,1,0-101.1h2.5V170A38.1,38.1,0,0,1,173.9,207.9Zm-39.6-55.5a45.6,45.6,0,0,0,0,91Z"/></svg>