<?xml version="1.0" encoding="utf-8"?>
<!-- Generator: Adobe Illustrator 24.0.1, SVG Export Plug-In . SVG Version: 6.00 Build 0)  -->
<svg version="1.1" id="Layer_1" xmlns="http://www.w3.org/2000/svg" xmlns:xlink="http://www.w3.org/1999/xlink" x="0px" y="0px"
	 viewBox="0 0 1268 418" style="enable-background:new 0 0 1268 418;" xml:space="preserve">
<style type="text/css">
	.st0{fill:#969696;fill-opacity:0.3;stroke:#999999;stroke-width:0.3207;stroke-linecap:round;stroke-linejoin:round;}
	.st1{fill:#8D8D8D;fill-opacity:0.3;stroke:#999999;stroke-width:0.4136;stroke-linecap:round;stroke-linejoin:round;}
	.st2{fill:#C9C9C9;fill-opacity:0.3;}
	.st3{fill:#969696;fill-opacity:0.3;stroke:#999999;stroke-width:0.4101;stroke-linecap:round;stroke-linejoin:round;}
	.st4{fill:#8C8C8C;}
	.st5{font-family:'RobotoMono-Regular';}
	.st6{font-size:31.8972px;}
	.st7{fill:#969696;fill-opacity:0.3;stroke:#999999;stroke-width:0.3144;stroke-linecap:round;stroke-linejoin:round;}
</style>
<circle class="st0" cx="1105.7" cy="78.8" r="63.8"/>
<g>
	<circle class="st1" cx="421.3" cy="235.8" r="81.7"/>
	<circle class="st2" cx="172" cy="200.9" r="150.7"/>
	<circle class="st3" cx="172" cy="237.3" r="81.6"/>
</g>
<text transform="matrix(1 0 0 1 166.645 252.5195)" class="st4 st5 st6">B</text>
<text transform="matrix(1 0 0 1 162.1792 118.2778)" class="st4 st5 st6">A</text>
<text transform="matrix(1 0 0 1 405.8188 249.3389)" class="st4 st5 st6">C</text>
<g>
	<circle class="st1" cx="814.8" cy="99.9" r="81.7"/>
	<ellipse class="st2" cx="983.6" cy="258.9" rx="134.6" ry="140.9"/>
	<circle class="st7" cx="967.5" cy="285.4" r="62.5"/>
</g>
<text transform="matrix(1 0 0 1 961.0885 297.5826)" class="st4 st5 st6">B</text>
<text transform="matrix(1 0 0 1 1027.6227 191.3409)" class="st4 st5 st6">A</text>
<text transform="matrix(1 0 0 1 1102.2623 89.402)" class="st4 st5 st6">D</text>
<text transform="matrix(1 0 0 1 808.3585 116.3214)" class="st4 st5 st6">C</text>
</svg>
