<svg enable-background="new 0 0 1268 400" viewBox="0 0 1268 400" xmlns="http://www.w3.org/2000/svg"><g stroke="#fff" stroke-miterlimit="10" stroke-width="2.6033"><path d="m916.8 2.9h49.2v49.2h-49.2z" fill="#eaeafc"/><path d="m867.6 52.1h49.2v49.2h-49.2z" fill="#d1d1e3"/><path d="m916.8 52.1h49.2v49.2h-49.2z" fill="#d1d1e3"/><path d="m375.7 101.4h49.2v49.2h-49.2z" fill="#d1d1e3"/><path d="m302 27.7h49.2v49.2h-49.2z" fill="#d1d1e3"/><path d="m302 273.5h49.2v49.2h-49.2z" fill="#a2a2b4"/><path d="m424.8 101.4h49.2v49.2h-49.2z" fill="#eaeafc"/><path d="m474 101.4h49.2v49.2h-49.2z" fill="#a1a1b3"/><path d="m523.2 101.4h49.2v49.2h-49.2z" fill="#a1a1b3"/><path d="m572.4 101.4h49.2v49.2h-49.2z" fill="#eaeafc"/><path d="m670.8 101.4h49.2v49.2h-49.2z" fill="#d1d1e3"/><path d="m769.2 101.4h49.2v49.2h-49.2z" fill="#5b5b6d"/><path d="m818.4 101.4h49.2v49.2h-49.2z" fill="#5b5b6d"/><path d="m867.6 101.4h49.2v49.2h-49.2z" fill="#5b5b6d"/><path d="m916.8 101.4h49.2v49.2h-49.2z" fill="#d1d1e3"/><path d="m375.7 150.5h49.2v49.2h-49.2z" fill="#eaeafc"/><path d="m424.8 150.5h49.2v49.2h-49.2z" fill="#eaeafc"/><path d="m474 150.5h49.2v49.2h-49.2z" fill="#a1a1b3"/><path d="m523.2 150.5h49.2v49.2h-49.2z" fill="#a1a1b3"/><path d="m572.4 150.5h49.2v49.2h-49.2z" fill="#eaeafc"/><path d="m621.6 150.5h49.2v49.2h-49.2z" fill="#eaeafc"/><path d="m670.8 150.5h49.2v49.2h-49.2z" fill="#d1d1e3"/><path d="m720 150.5h49.2v49.2h-49.2z" fill="#5b5b6d"/><path d="m769.2 150.5h49.2v49.2h-49.2z" fill="#5b5b6d"/><path d="m818.4 150.5h49.2v49.2h-49.2z" fill="#5b5b6d"/><path d="m867.6 150.5h49.2v49.2h-49.2z" fill="#d1d1e3"/><path d="m375.7 199.7h49.2v49.2h-49.2z" fill="#d1d1e3"/><path d="m424.8 199.7h49.2v49.2h-49.2z" fill="#eaeafc"/><path d="m474 199.7h49.2v49.2h-49.2z" fill="#eaeafc"/><path d="m523.2 199.7h49.2v49.2h-49.2z" fill="#a1a1b3"/><path d="m572.4 199.7h49.2v49.2h-49.2z" fill="#eaeafc"/><path d="m621.6 199.7h49.2v49.2h-49.2z" fill="#d1d1e3"/><path d="m670.8 199.7h49.2v49.2h-49.2z" fill="#d1d1e3"/><path d="m720 199.7h49.2v49.2h-49.2z" fill="#d1d1e3"/><path d="m769.2 199.7h49.2v49.2h-49.2z" fill="#5b5b6d"/><path d="m818.4 199.7h49.2v49.2h-49.2z" fill="#6a6a7c"/><path d="m424.8 248.9h49.2v49.2h-49.2z" fill="#d1d1e3"/><g fill="#eaeafc"><path d="m474 248.9h49.2v49.2h-49.2z"/><path d="m523.2 248.9h49.2v49.2h-49.2z"/><path d="m572.4 248.9h49.2v49.2h-49.2z"/><path d="m621.6 248.9h49.2v49.2h-49.2z"/><path d="m670.8 248.9h49.2v49.2h-49.2z"/><path d="m720 248.9h49.2v49.2h-49.2z"/></g><path d="m769.2 248.9h49.2v49.2h-49.2z" fill="#d1d1e3"/><path d="m523.2 298.1h49.2v49.2h-49.2z" fill="#d1d1e3"/><path d="m572.4 298.1h49.2v49.2h-49.2z" fill="#d1d1e3"/><path d="m621.6 298.1h49.2v49.2h-49.2z" fill="#eaeafc"/><path d="m670.8 298.1h49.2v49.2h-49.2z" fill="#eaeafc"/><path d="m720 298.1h49.2v49.2h-49.2z" fill="#d1d1e3"/><path d="m523.2 347.3h49.2v49.2h-49.2z" fill="#d1d1e3"/><path d="m720 347.3h49.2v49.2h-49.2z" fill="#a1a1b3"/></g></svg>