<svg xmlns="http://www.w3.org/2000/svg" width="256" height="256" viewBox="0 0 256 256"><title>mosaic-cartogram</title><path d="M46.1,99.7H74.5v28.4H46.1Zm35.2,28.4h28.4V99.7H81.3Zm35.2,0h28.4V99.7H116.5ZM4.5,238H32.9V209.6H4.5Zm0-145H32.9V64.5H4.5Zm41.6,71.2H74.5V135.8H46.1Zm35.2,0h28.4V135.8H81.3Zm35.2,0h28.4V135.8H116.5Zm35.1,0h28.5V135.8H151.6ZM81.3,202h28.4V173.5H81.3Zm35.2,0h28.4V173.5H116.5Zm35.1-73.9h28.5V99.7H151.6Zm35.2,0h28.5V99.7H186.8Zm0-35.7h28.5V64H186.8Zm35.8,0H251V64H222.6Zm0-64.2V56.7H251V28.2Zm-.6,99.9h28.4V99.7H222Z"/></svg>