<svg enable-background="new 0 0 1268 418" viewBox="0 0 1268 418" xmlns="http://www.w3.org/2000/svg"><path d="m776.8 257.1c-4.3 5.6-10.6 9.8-16.2 14.4-1.6 1.1-3.6 1.6-5.5 1.3-16.3-4.2-31 .3-45.4 7.8-3.5 1.8-7.2 3.4-11.8 5.5-.3.1-.7-.1-.8-.4 0-.2 0-.3.1-.5 4.8-6 8.7-11.1 12.6-16 8.7-10.6 18.5-20.5 25.9-31.9 5.8-8.9 12.9-15.5 22.5-16.7 16.6-2.2 31.4-8.1 45.6-16.4 1.7-.8 3.5-1.5 5.3-1.9 5.5-1.4 11-3.2 16.6-3.9 5.6-.6 11.2-.2 16.9-.2-16.7-2.9-33.3-1.3-47.3 7.9s-30.6 7.9-45.8 11.9c-.3.1-.7-.2-.7-.5 0-.2 0-.4.1-.5 1.2-1.6 2.6-3.1 4.2-4.2 4.3-3 9.2-5.1 13-8.6 5.6-5.2 12.7-8.4 20.2-9.4 8.3-1.2 15.7-4.9 22.5-10.7.2-.3.1-.7-.1-.9-.1-.1-.3-.1-.5-.1-6 3.1-11.3 6.2-17 7.6-10.7 2.5-20.1 6.8-29.9 12-14.2 7.8-21.8 20.1-30.9 32.1-13.4 17.5-28.7 33.7-43.1 50.4-.2.2-.5.2-.8.1l-2.3-1.5c-.3-.2-.3-.5-.2-.8 4.7-9.7 8.4-20.2 14.6-28.8 13.5-18.6 27.4-36.6 37.1-57.7 12.8-27.8 24.1-55.5 49-76.2 3-2.3-7 2.3-15.4 8.8-.2.2-.6.2-.8 0-.1-.1-.2-.4-.1-.5.7-5.1 1.7-9.2 1.4-13.1-.4-3.9-1.7-7.5-2.9-11.3-.2-.3-.5-.4-.8-.3-.2.1-.3.2-.3.4-.2 1-.1 1.9.1 2.9 2.2 11.6 1.4 22.6-4.7 33.3-9.7 17.3-19 35-27.8 52.7-11 22-25.4 41.4-43 60.1-.2.3-.5.3-.7.2s-.3-.3-.2-.5c-.5-9-.9-16.1 6.5-22.7 10-9.1 18.6-20 27.2-30.6 3.6-4.7 5.5-10.4 5.4-16.3 0-.6-1-.8-1.2-.3-2.5 6.2-4.5 12.8-8.4 17.9-7.4 9.2-15.5 17.8-24.4 25.5-6.2 5.4-10.2 11.7-10.1 19.4.1 14.3-5.4 26.5-10 39.4s-16.1 19.1-28 23.4c-7.9 2.8-11.4-.5-11.4-9.3s1.3-19.4.7-29.1c-.3-5.5 1.8-8.9 5.6-12.1s8.8-6.5 12.3-10.5c9.4-10.7 20.3-20.9 20.9-36.2.7-16.9 10.5-26.6 24.3-32.8 10.3-4.4 18.4-12.9 22.2-23.5 3.5-8.9 5.9-18.4 14.2-24.5.2-.1.3-.3.4-.5.1-.3 0-.7-.3-.8-.2-.1-.5-.1-.6.1-1.7 1.4-5.8 6-7.2 5.1 1.2-5.2 2.2-13.4 3.4-18.6 0-.3-.2-.6-.6-.7-.2 0-.5.1-.6.3-1.4 3.7-2.5 7.6-3.2 11.5-4.6 23.8-10.1 46.9-39.7 53.2-.3 0-.7-.2-.7-.5v-.1c.5-4.6.9-9.1 1.4-13.7 0-.3-.2-.7-.5-.7s-.7.2-.7.5c-1.1 4-1.8 8.1-2.8 12.2-1 3.4-2.2 6.7-3.7 9.9-2.5 6.2-6.9 12.2-7.5 18.6-.9 8.3-2 16.2-7.4 22.5-8.6 10-18.1 19.4-27.7 29.5-.3.2-.7.2-.9 0 0 0-.1-.1-.1-.1-5.2-12.1-4-21.8 1.9-31.4s12.4-20.2 17.3-31c3.1-6.4 5.5-14.1 5.1-20.9-.7-11.1 3.7-17.7 12.2-23.6 4.2-3 7.6-7.7 9.9-12.3 2.5-4.9 3.9-10.2 4.2-15.6.5-9.7 6.3-15.4 13.4-20.7.2-.3.1-.7-.1-.9-.1-.1-.3-.1-.5-.1-7.6 3.8-14 8.8-14.9 19-1.3 15.6-8.8 27.1-24.9 34.7-.3.1-.7 0-.8-.4-.1-.1-.1-.3 0-.4 3.7-10.4 7-19.4 10.2-28.5s7.7-19.9 9.7-30.1c1.4-6.7 4.1-11.5 9.2-15.2s8.4-5.6 12.5-8.4c.3-.2.3-.6 0-.9-.1-.2-.4-.2-.6-.2-11.6 4.9-21.7 11.3-25 25.8-2.6 11.5-7 22.6-11.4 33.5-5.7 14.1-10.7 28-10.3 43.8.3 13.4-5 25.5-15.5 35.8-.3.2-.7.2-.9 0 0 0-.1-.1-.1-.1-2.5-7.7-5-14.3-7-20.9-5.1-16.4-6.3-32.9-1.7-49.6 2-7 5.1-12.6 11.4-17.2 15.3-11.2 24.3-26.3 20.6-45.9-2.4-12.8-6-25.5-9.4-38.1-.2-.3-.6-.4-.9-.2-.2.1-.3.2-.3.4 1 9 2.7 18 5.1 26.7 5.9 20 1.6 37.3-13.9 50.8-7 6.2-12.7 12.8-16.1 22.3 0 .3-.2.5-.5.5s-.5-.2-.5-.5c-3.5-8.9-6.4-17.3-4.6-25.6 1.1-5 1.7-10.7.3-15.4-2.6-8.1-1.6-15.3.2-23.4 4.7-21.3-4.6-37.6-17.1-52.7-.5-.6-1.4.1-.9.7 12 18.4 21.8 37.4 12.2 61.2-.1.3-.4.4-.7.4-16.2-4.7-22.2-12.2-23-28.6-.4-7.6-1.7-14.8-5.4-21.1-.2-.2-.6-.3-.9 0-.1.1-.2.3-.2.5 1.7 6.4 4.1 12.9 3.9 19.3-.5 16.6 7.8 25.9 21.7 32.4 2.2 1.1 4.7 4.2 4.9 6.5.7 7.2.3 14.5.4 21.8 0 2.8-.8 6 .1 8.5 4.8 13.9 6.4 28.2 7.2 42.7-.2 6.3-.2 12.5.5 16.4 1.2 6.2 2.6 12.5 4.2 18.7 2.6 10.5-7.1 14.6-3.1 30 5.5 20.6-.1 42.2-.7 56.3-.3 6.4-1.6 12.6-3.9 18.6 0 .3-.2.5-.5.5s-.5-.2-.5-.5c-2.3-5.9-3.6-12.2-3.9-18.6-.6-14.1.2-28.2 0-42.3-.1-4.4-.4-9.4-2.3-13.1-5.7-10.3-4-20.4-1.4-30.9 1.5-6.2 3-12.5 4.2-18.7 2.1-11.1-1.1-37.4-1.2-38.4-3.1-12.3-9.4-20-17.6-27.3h-.6c-.9-.5-16.1-10-18.8-33 0-.3-.3-.6-.6-.6s-.6.3-.6.6c-.7 16.5 7.9 29.4 21.5 39.4 6.2 4.6 9.4 10.2 11.3 17.2 4.6 16.7 3.4 33.2-1.7 49.6-2.1 6.7-4.4 13.3-7 20.9-.2.3-.5.4-.8.3-.1 0-.1-.1-.1-.1-10.6-10.3-15.8-22.4-15.4-35.8.3-15.8-4.7-29.7-10.4-43.8-4.3-10.9-8.8-22-11.4-33.5-3.3-14.5-13.4-20.9-25-25.8-.6-.3-1.2.7-.5 1.1 4.2 2.8 8.4 5.5 12.5 8.4 4.2 2.9 7.9 8.5 9.2 15.2 2.1 10.3 6.3 20.1 9.7 30.1s6.5 18.1 10.2 28.5c.1.3 0 .7-.4.8-.1.1-.3.1-.4 0-16.2-7.7-23.6-19.1-24.9-34.7-.8-10.2-7.3-15.2-14.9-19-.3-.1-.7.2-.7.5 0 .2 0 .4.1.5h.1c6.9 5.2 12.7 10.9 13.3 20.7.4 5.4 1.8 10.7 4.2 15.6 2.3 4.6 5.8 9.3 9.9 12.3 8.5 5.9 13 12.5 12.2 23.6-.5 6.9 2.1 14.5 5.1 20.9 5 10.7 11.2 20.8 17.3 31 6.1 10.1 7.1 19.3 1.9 31.4-.2.3-.5.4-.8.3-.1 0-.1-.1-.1-.1-9.7-10.1-19.1-19.5-27.7-29.5-5.3-6.2-6.5-14.2-7.4-22.5-.6-6.4-4.9-12.4-7.5-18.6-1.5-3.2-2.7-6.5-3.7-9.9-.9-4.1-1.7-8.2-2.8-12.2-.2-.3-.6-.4-.9-.2-.2.1-.3.2-.3.4l1.4 13.7c0 .3-.3.6-.6.6h-.1c-29.6-6.2-35.1-29.3-39.7-53.2-.7-3.9-1.7-7.7-3.2-11.5-.2-.3-.6-.4-.9-.2-.2.1-.3.3-.3.6l3.8 15.7-2.9 1.8-4.7-4c-.3-.2-.7-.2-.9.1-.2.2-.2.4-.1.6s.2.4.4.5c8.4 6 10.7 15.5 14.2 24.5 3.8 10.6 11.9 19.1 22.2 23.5 13.9 6.1 23.6 15.9 24.3 32.8.6 15.3 11.6 25.5 20.9 36.2 3.5 4 8.1 6.9 12.3 10.5 4.2 3.5 5.9 6.6 5.6 12.1-.5 9.7.6 19.4.7 29.1s-3.4 12.1-11.4 9.3c-11.8-4.2-22.9-9.4-28-23.4s-10.1-25.2-9.9-39.4c.1-7.7-4-14-10.1-19.4-8.9-7.8-17.1-16.3-24.5-25.5-3.9-5.1-5.9-11.6-8.4-17.9-.2-.5-1.1-.4-1.1.3-.2 5.9 1.7 11.7 5.3 16.3 8.7 10.6 17.1 21.5 27.2 30.6 7.4 6.7 7 13.7 6.6 22.7 0 .3-.4.6-.7.6-.1 0-.3-.1-.4-.2-17.6-18.7-32-38.1-43-60.1-8.8-17.7-18.1-35.4-27.8-52.7-6-10.7-6.9-21.7-4.7-33.3.3-.9.3-1.9.1-2.9-.1-.3-.5-.5-.8-.4-.2.1-.3.2-.4.3-1.1 3.8-2.6 7.5-2.9 11.3s.6 7.9 1.4 13.1c.1.3-.1.6-.4.7-.2.1-.4 0-.5-.1l-14-10.8c24.9 20.7 34.7 50.5 47.6 78.3 9.7 21 23.6 39.1 37.1 57.7 6.2 8.6 9.9 19.1 14.6 28.8.2.3.1.6-.2.8l-2.3 1.5c-.2.2-.5.1-.7-.1-14.5-16.7-29.8-32.9-43.1-50.4-9.2-12-16.7-24.4-31-32.1-9.7-5.2-19.1-9.5-29.9-12-5.7-1.4-11-4.5-17-7.6-.3-.1-.7.2-.7.5 0 .2 0 .4.1.5 6.8 5.9 14.2 9.6 22.6 10.7 7.5 1 14.6 4.2 20.1 9.4 3.8 3.4 8.8 5.6 13 8.6 1.6 1.2 3.1 2.6 4.2 4.2.2.3.1.7-.1.9-.1.1-.3.1-.5.1-15.3-4-31.6-2.5-45.8-11.9s-30.6-10.8-47.3-7.9c5.7 0 11.4-.5 17 .2s11 2.5 16.5 3.9c1.8.4 3.6 1.1 5.3 1.9 14.2 8.3 29 14.3 45.6 16.4 9.6 1.2 16.8 7.8 22.5 16.7 7.4 11.4 17.2 21.3 25.9 31.9 4 4.9 7.9 9.9 12.6 16 .5.5-.1 1.2-.7.9-4.6-2.1-8.3-3.7-11.8-5.5-14.4-7.5-29.1-12-45.4-7.8-1.9.3-3.9-.1-5.5-1.3-5.6-4.6-11.8-8.8-16.2-14.4-8.9-11.5-20.1-14-33.5-11.1l-18.1 4c-.3.2-.4.5-.3.8.1.2.2.3.4.3 3.4 0 6.5.1 9.6-.1 8.4-.5 16.8-2.2 25.2-1.6 4.1.4 8.7 3.7 11.8 6.9 6.5 6.7 12.2 14.2 19.2 22.5.1.2.2.4.1.6-3.2 8.2-10.2 10.8-25.1 6.9-.3 0-.6.3-.6.6 0 .2.1.3.2.5 8.5 5.4 19.7 4.9 25.4-3.1 8.2-11.5 19.7-11.5 29.7-7.7 18.1 6.9 35.1 16.3 52.3 24.6.3.2.4.5.3.8 0 .1-.1.2-.2.2-10.5 5.4-19.4 10.4-28.8 14.5-5.4 2.4-11.6 3.4-17.5 4.8-5 1.2-10.1 2.1-15.3 2.6-3.1.3-6 .3-9.1.4-.3 0-.6.3-.6.6s.3.6.6.6c3 .2 6.1.3 9.1.2 7.3-.4 14.6-1.4 21.8-3.1 6.5-1.6 12.6-5 19.1-6.9 8.8-2.6 17.6-4.8 26.5-6.8 1.6-.4 3.9 1 5.8 1.9 4 2 7.8 5.2 12 6 10.5 1.9 13.8 9.2 17.3 18h.1c10.6 31-5 10.9-3.3 44.3.5 10.6-9.3 7.2-13.6 17.6-.1.3 0 .7.3.8.1 0 .2.1.2.1h76c.4 0 .7-.4.7-.8v-.1c-4.4-10.4-14.2-7-13.6-17.6 1.5-33.4-14-13.3-3.3-44.3 3.5-8.8 6.9-16.1 17.3-18 4.2-.7 8-4 12.1-6 1.8-.9 4.1-2.3 5.8-1.9 8.8 2 17.8 4.2 26.4 6.8 6.5 2 12.6 5.3 19.2 6.9s14.4 2.5 21.7 3.1c3 .1 6.1.1 9.1-.2.3 0 .6-.3.6-.6s-.3-.6-.6-.6c-3.1-.1-6-.1-9-.4-5.2-.5-10.3-1.4-15.3-2.6-6-1.4-12.1-2.3-17.5-4.8-9.4-4.2-18.3-9.1-28.7-14.5-.3-.2-.4-.6-.2-.9.1-.1.1-.2.2-.2 17.3-8.3 34.3-17.8 52.3-24.6 10-3.8 21.5-3.8 29.7 7.7 5.7 7.9 16.9 8.5 25.4 3.1.2-.2.3-.6 0-.9-.1-.1-.3-.2-.5-.2-14.9 3.9-21.9 1.3-25.1-6.9 0-.2 0-.5.2-.6 6.9-8.3 12.6-15.8 19.1-22.5 3.2-3.2 7.8-6.5 11.9-6.9 8.3-.5 16.7 1.1 25.1 1.6 3.1.2 6.1.1 9.6.1.7 0 .8-1.1.2-1.2l-18.2-4c-13.8-3.5-25-1-34 10.5z" fill="#a39cb9"/><g font-family="'MyriadPro-Regular'"><text fill="#ccc" font-size="18.9897" transform="matrix(.9164 .4003 -.4003 .9164 462.4841 42.7465)">P</text><text fill="#ccc" font-size="18.9897" transform="matrix(.9164 .4003 -.4003 .9164 471.3332 46.6137)">oseidon</text><text fill="#ccc" font-size="18.9897" transform="translate(345.7827 202.7681)">He</text><text fill="#ccc" font-size="18.9897" transform="translate(367.7144 202.7681)">r</text><text fill="#ccc" font-size="18.9897" transform="translate(373.7612 202.7681)">a</text><text fill="#ccc" font-size="18.9897" transform="matrix(.8788 .4772 -.4772 .8788 363.3827 73.5237)">Hephaestus</text><text fill="#ccc" font-size="18.9897" transform="translate(391.271 289.5938)">A</text><text fill="#ccc" font-size="18.9897" transform="translate(402.8237 289.5938)">pollo</text><text fill="#ccc" font-size="18.9897" transform="translate(400.0259 331.834)">A</text><text fill="#ccc" font-size="18.9897" transform="translate(411.5786 331.834)">ph</text><text fill="#ccc" font-size="18.9897" transform="translate(432.9692 331.834)">r</text><text fill="#ccc" font-size="18.9897" transform="translate(438.9263 331.834)">odi</text><text fill="#ccc" font-size="18.9897" transform="translate(464.5591 331.834)">t</text><text fill="#ccc" font-size="18.9897" transform="translate(470.6958 331.834)">e</text><text fill="#ccc" font-size="18.9897" transform="translate(765.8301 331.834)">Hades</text><text fill="#ccc" font-size="18.9897" transform="translate(790.5605 289.5938)">A</text><text fill="#ccc" font-size="18.9897" transform="translate(802.1113 289.5938)">r</text><text fill="#ccc" font-size="18.9897" transform="translate(808.791 289.5938)">t</text><text fill="#ccc" font-size="18.9897" transform="translate(814.9277 289.5938)">emis</text><text fill="#ccc" font-size="18.9897" transform="translate(833.8828 256.6504)">A</text><text fill="#ccc" font-size="18.9897" transform="translate(845.3438 256.6504)">thena</text><text fill="#ccc" font-size="18.9897" transform="translate(577.4673 414.7236)">pa</text><text fill="#ccc" font-size="18.9897" transform="translate(597.4136 414.7236)">n</text><text fill="#ccc" font-size="18.9897" transform="translate(607.8833 414.7236)">theon</text><text fill="#ccc" font-size="18.9897" transform="matrix(.974 -.2267 .2267 .974 792.3636 117.8376)">O</text><text fill="#ccc" font-size="18.9897" transform="matrix(.974 -.2267 .2267 .974 805.1105 114.8714)">r</text><text fill="#ccc" font-size="18.9897" transform="matrix(.974 -.2267 .2267 .974 811.2639 113.4394)">ion</text><text fill="#ccc" font-size="18.9307" transform="matrix(.2307 -.973 .973 .2307 701.1158 164.4456)">E</text><text fill="#ccc" font-size="18.9307" transform="matrix(.2307 -.973 .973 .2307 703.254 155.428)">os</text><text fill="#ccc" font-size="18.9897" transform="matrix(.8788 .4772 -.4772 .8788 351.1978 141.034)">D</text><text fill="#ccc" font-size="18.9897" transform="matrix(.8788 .4772 -.4772 .8788 362.3811 147.1065)">eme</text><text fill="#ccc" font-size="18.9897" transform="matrix(.8788 .4772 -.4772 .8788 392.9982 163.73)">t</text><text fill="#ccc" font-size="18.9897" transform="matrix(.8788 .4772 -.4772 .8788 398.4719 166.702)">er</text><text fill="#ccc" font-size="18.9897" transform="matrix(.4571 .8894 -.8894 .4571 539.9205 16.7523)">O</text><text fill="#ccc" font-size="18.9897" transform="matrix(.4571 .8894 -.8894 .4571 545.9427 28.4735)">c</text><text fill="#ccc" font-size="18.9897" transform="matrix(.4571 .8894 -.8894 .4571 549.7807 35.9382)">eanus</text><text fill="#ccc" font-size="18.9897" transform="matrix(.4571 .8894 -.8894 .4571 522.5904 127.4955)">A</text><text fill="#ccc" font-size="18.9897" transform="matrix(.4571 .8894 -.8894 .4571 527.8309 137.6903)">tlas</text><text fill="#fff" font-size="18.9897" transform="matrix(.02094242 -.9998 .9998 .02094242 622.5936 363.2398)">Z</text><text fill="#fff" font-size="18.9897" transform="matrix(.02094242 -.9998 .9998 .02094242 622.8091 352.953)">eus</text><text fill="#ccc" font-size="19.0844" transform="matrix(.8557 -.5174 .5174 .8557 817.5361 185.0672)">Hestia</text><text fill="#ccc" font-size="18.8926" transform="matrix(.6332 .774 -.774 .6332 459.3319 75.9871)">C</text><text fill="#ccc" font-size="18.8926" transform="matrix(.6332 .774 -.774 .6332 466.2122 84.3964)">r</text><text fill="#ccc" font-size="18.8926" transform="matrix(.6332 .774 -.774 .6332 470.0215 89.0522)">onus</text><text fill="#ccc" font-size="18.9897" transform="matrix(.373 .9278 -.9278 .373 631.6187 8.4489)">E</text><text fill="#ccc" font-size="18.9897" transform="matrix(.373 .9278 -.9278 .373 635.0856 17.0731)">r</text><text fill="#ccc" font-size="18.9897" transform="matrix(.373 .9278 -.9278 .373 637.4423 22.9355)">is</text><text fill="#ccc" font-size="18.9897" transform="matrix(.8241 -.5664 .5664 .8241 705.9904 105.5634)">A</text><text fill="#ccc" font-size="18.9897" transform="matrix(.8241 -.5664 .5664 .8241 715.5113 99.0199)">idos</text><text fill="#ccc" font-size="18.9897" transform="matrix(.1236 .9923 -.9923 .1236 754.5464 51.1391)">Helios</text><text fill="#ccc" font-size="18.9897" transform="translate(847.5117 202.0464)">Dio</text><text fill="#ccc" font-size="18.9897" transform="translate(875.0391 202.0464)">n</text><text fill="#ccc" font-size="18.9897" transform="translate(885.3281 202.0464)">y</text><text fill="#ccc" font-size="18.9897" transform="translate(894.1719 202.0464)">sus</text><text fill="#ccc" font-size="18.9897" transform="translate(363.3823 256.3789)">A</text><text fill="#ccc" font-size="18.9897" transform="translate(374.9351 256.3789)">r</text><text fill="#ccc" font-size="18.9897" transform="translate(380.9819 256.3789)">es</text><text fill="#ccc" font-size="18.9897" transform="matrix(.7716 -.6361 .6361 .7716 706.0812 73.5228)">A</text><text fill="#ccc" font-size="18.9897" transform="matrix(.7716 -.6361 .6361 .7716 714.8561 66.2894)">gon</text><text fill="#ccc" font-size="18.9897" transform="matrix(.4664 .8846 -.8846 .4664 487.2112 149.8773)">N</text><text fill="#ccc" font-size="18.9897" transform="matrix(.4664 .8846 -.8846 .4664 493.1462 161.1341)">ike</text><text fill="#ccc" font-size="18.9897" transform="matrix(.3404 -.9403 .9403 .3404 734.8707 179.1204)">Elpis</text></g></svg>