<?xml version="1.0" encoding="utf-8"?>
<!-- Generator: Adobe Illustrator 24.0.1, SVG Export Plug-In . SVG Version: 6.00 Build 0)  -->
<svg version="1.1" id="Layer_1" xmlns="http://www.w3.org/2000/svg" xmlns:xlink="http://www.w3.org/1999/xlink" x="0px" y="0px"
	 viewBox="0 0 256 256" style="enable-background:new 0 0 256 256;" xml:space="preserve">
<title>new-chart-icons-aim-160</title>
<path d="M252.1,121.5c-4.8,0.9-9.4,2.8-13.4,5.6c-0.9,0.6-1.8,1.2-2.7,1.8c-1,0.4-2,0.8-2.8,1.5c-1,0.7-1.9,1.5-2.6,2.3l-1.1,0.9
	c-0.4,0.2-0.8,0.7-1.2,0.8H222c-2.3,0-4.5,0-6.8,0.2c-4.3,0.3-8.5,1.1-12.6,2.3c-2,0.4-3.9,1-5.8,1.8l0.3-0.4c1.6-2,4.1-4.7,4.9-5.6
	c0.8-0.9,1.7-1.8,2.3-2.6c0.7-0.9,1.3-1.8,2.1-2.6c1.6-1.7,3.3-3.3,5.1-4.7l2-2.2c0.8-0.8,1.7-1.5,2.7-2.1c1.8-1.3,3.9-2.3,6-3
	l7.1-1.8c2.3-0.5,4.4-1.9,6.7-2.7c2.2-0.8,4.3-1.8,6.3-3l1-0.5c0.2,0,0.4,0,0.5-0.2h0.2l1-0.5c0.8-0.6,1.7-1.1,2.5-1.6
	c0-0.2,0.1-0.4,0.2-0.7c1.1-3,1.2-5.6-0.4-8.4c-1.2-2-3.2-3.6-5.7-3.2c-0.4,0.1-0.8,0.1-1.2,0.1c-1.1,0.9-2.4,1.6-3.7,2.2
	c-2,0.7-4,1.3-6.1,1.8c-2,0.4-4,0.8-6,1.4c-2.1,0.7-4.2,1.4-6.3,2.3l-0.3,0.2l0.3-0.5c2.4-3.7,5.1-7.3,8-10.6
	c0.1-0.1,0.1-0.1,0.2-0.2c0.4-0.7,0.2-1.6-0.5-2c0.7-1.1,1.6-2,2.5-2.8c1.7-1.2,3.4-2.3,5.3-3.3c1.7-0.9,3.7-1.3,5.1-2.4
	c0.2-0.2,0.3-0.4,0.3-0.6c0.3-0.8-0.2-1.7-1-2c-1.5-0.2-3.1,0.2-4.3,1.1c-0.8,0.5-1.4,1-2.2,1.4l-2.6,1.3c-0.8,0.5-1.5,1.2-2.2,1.7
	c-0.8,0.6-1.6,1.3-2.3,2.1c-1.3,1.3-2.8,2.4-4.2,3.7c-1.4,1.3-2.6,2.7-3.5,4.3c-0.8,1.7-1.8,3.4-2.8,5.1c-0.5,0.8-1,1.5-1.4,2.3
	c-0.5,0.8-1.2,1.6-1.9,2.3c-1.2,1.6-2.2,3.3-3.4,4.8c-0.7,0.7-1.4,1.6-2,2.4l-1.7,1.3c-1.5,1.4-2.7,2.8-4.2,4.1
	c-1.5,1.3-2.4,2.8-3.9,4.1c-3,2.5-5.9,5.1-9.4,6.9c-1.7,0.8-3.5,1.6-5.4,2.2c-1.9,0.6-3.4,1.4-5.7,2.2c-2.3,0.8-4.6,1.5-6.8,2.4
	c-1,0.4-2,0.8-2.9,1.4l-1.5,0.9l-1.4,0.5l-1.6,1c0.1-0.4,0.2-0.8,0.2-1.2c0.5-2.8,1.2-5.5,2.3-8.1c0.3-1.4,0.8-2.7,1.3-4
	c0.6-1.3,0.7-1.1,2.1-3.6c1.4-2.5,2.6-5.1,4.3-7.4c1.7-2.3,3.4-4.7,5.2-6.9c1.8-2.1,3.8-4,5.9-5.7c2.2-2,4.6-3.4,6.9-5.2l6.8-5
	c1.1-0.8,2.1-1.8,3-2.6c1-0.9,2.3-1.7,3.3-2.4l1.2-1.1l0.2-0.2c0.9-0.7,1.6-1.4,2.3-2.3c0.7-0.7,1.3-1.4,1.9-2.3
	c0.6-0.9,0.3-0.9,1.6-2.8c1.3-2,2.3-4,3.7-5.9c1.4-1.8,3-3.4,4.6-5c1.9-1.4,4-2.4,6.3-2.8c2.5-0.5,5-0.6,7.5-0.3
	c2.4,0.3,4.9,0.3,7.4,0.8l1.8,0.4l1.4,0.4l0.7,0.2c1,0.5,2.2,0.8,3.1,1.4c1.1,0.5,2.2,0.9,3.4,1.2c0.6,0.1,1.2,0.3,1.7,0.7
	c0.1,0.1,0.1,0.1,0.2,0.2c0.1-0.3,0.1-0.6,0.1-0.9c-0.1-0.3-0.2-0.6-0.3-0.9c-0.2-1.5-0.5-3-1-4.4c0,0,0,0,0,0
	c-0.3-0.2-0.6-0.4-0.8-0.6c-0.1,0-0.1-0.1-0.2-0.1c0,0,0,0,0,0c-0.4-0.3-0.7-0.5-1-0.8c-0.8-0.7-1.3-1.4-1.5-2.3
	c-0.1-0.1-0.1-0.1-0.2-0.2l-2.1-1c-1.6-0.8-3.3-0.9-4.9-1.4c-1.9-0.4-3.8-0.5-5.8-0.3h-3.8c3-1,5.2-1.6,9.2-2.6
	c4-1.1,7.8-2.9,12.1-3c0.8,0,1.5-0.7,1.5-1.5c0-0.8-0.7-1.5-1.5-1.5c-4.3,0.1-8.1,1.8-12.1,2.8l-6,1.7l-6.1,2.1
	c-2,0.6-3.9,1.4-5.8,2.3c-1.9,0.7-3.3,2.1-5.2,2.8c-1.8,0.8-3.4,1.9-4.7,3.3c-1.4,1.3-2.7,2.7-3.9,4.1c-0.5,0.7-0.9,1.4-1.3,2.2
	c-0.1-1.4-0.3-2.6-0.5-3.8c-0.6-1.7-0.9-3.4-1-5.2c0.1-0.9,0-1.8-0.2-2.6c-0.1-1-0.1-2,0.2-2.9c0.5-1.8,1.1-3.6,1.8-5.4
	c0.8-1.7,1.9-3.2,3.3-4.4c0.6-0.6,1.1-1.2,1.7-1.7l0.9-0.9c0.5-0.4,1.1-0.8,1.8-1c1.8-0.8,3.4-2,5.3-2.6c2.2-0.8,4.5-1.4,6.8-1.9
	l3.3-0.8l1.8-0.4c0.5-0.2,1-0.3,1.6-0.4h0.4c2.9-0.1,5.8-0.6,8.5-1.5c1.9-0.7,3.6-1,5.3-1.8l2.3-1h0.9c0.6-0.2,1.1-0.7,1.1-1.4v-0.5
	l1.5-1.6c0.5-0.6,0.7-13.4-0.8-13.3c-1,0.2-2,0.6-2.9,1.2l-2.9,1.7c-2,1.3-4.1,2.5-6.3,3.6l-4,1.7l-4.5,0.8l-4,1.1l-4.5,1
	c-6,1.7-11.8,3.6-17.6,5.7l-4.1,1.7c-1.4,0.5-2.8,1.2-4.1,2.1c-2.1,1.7-3.8,3.8-4.9,6.3c-1.2,2.3-2.5,5.4-2.5,8.1
	c0,1.3,0.1,2.7,0.4,4c0.2,1.6,0.3,3.1,0.3,4.7v4.4c0,1.5,0.3,2.8,0.4,4.3c0.2,1.4,0.5,2.9,1.1,4.2c0.4,1.2,1.3,2.5,1.2,3.8
	c-0.2,0.6-0.3,1.2-0.4,1.9c0,0.5-0.1,1.1-0.3,1.6c-0.2,0.5-0.4,1.1-0.7,1.6c-0.5,0.6-5.3,5.8-5.9,6.2c-0.4,0.4-0.9,0.8-1.4,1.2
	l-1.7,0.9l-1.6,1.3c-1.3,0.9-2.6,1.7-4,2.4c-2.3,1.5-4.5,3.2-6.5,5.2c-1.1,0.8-2.1,1.7-2.9,2.6l-2.8,3.5c-1.7,1.9-3.3,3.9-4.7,6.1
	c-0.7,1.3-1.4,2.7-2.3,3.9c-0.7,1.4-1.5,2.7-2.4,4c-0.8,1.2-1.4,2.5-1.9,3.9l-1.5,3.7c-0.1-1.1-0.3-2.2-0.4-3.2
	c-0.2-2.6,0-5.3,0-7.9c0.1-1.3,0.1-2.5,0-3.8c-0.1-1.4-0.5-1.1-0.4-3.8c0.1-2.7,0-5.4,0-8.1c0.1-1.3,0.1-2.5,0-3.8
	c-0.2-1.1-0.3-2.3-0.5-3.3c-0.3-1.2-0.4-2.4-0.5-3.6c0-1.4,0-2.7-0.2-4.1c-0.1-1.3-0.1-2.3-0.1-3.7c0-1.4-0.3-2.8-0.3-4.2
	c-0.1-3.9,0-7.9,0.3-11.8c0.4-1.3,0.9-2.4,1.3-3.6c0.6-1.9,1.7-3.7,3.1-5.2c0.9-0.9,1.8-1.8,2.6-2.8c0.8-0.8,1.7-1.5,2.4-2.3
	c0.8-1,1.7-1.9,2.6-2.7c1.1-0.8,2.2-1.5,3-2.3l1.1-1c0.5-0.2,0.9-0.5,1.4-0.8c1-0.8,2-1.6,2.9-2.5l2.4-2.2l1-1.2
	c0.4-0.5,1-1,1.6-1.4c0.9-1,1.7-2.1,2.4-3.2c0.9-1,1.6-2.1,2.3-3.2c0.6-1.2,1.5-2.3,2.2-3.3c0.7-1.1,3.8-4.7,4.6-5.7
	c0.8-1.1,1.8-2.1,2.8-3c0.9-0.9,3.8-3,4.2-3.5l0.3-0.6c0.2-0.3,0.6-0.6,0-0.3c1.6-0.6,1.2-2.8-0.1-2.9c-0.2-0.2-0.5-0.4-0.8-0.5
	h-1.4l-0.8-0.2c-0.4-0.1-6.8,0.4-7.2,0.3c-0.5-0.1-4.3-0.4-4.3,0.5c0,0.9-0.9,1.7-1.5,2.5c-0.6,0.9-5.6,4.7-7.4,5.7
	c-3.7,2-7.7,3.7-11.1,6.5c-1.6,1.4-3,2.9-4.6,4.4c-1.6,1.3-2.9,2.8-3.9,4.6c-0.9,1.8-2,3.6-2.7,5.5c-0.3,0.7-0.7,1.4-1.1,2.1
	c-0.3-1.3-0.8-2.5-1.2-3.8c-0.5-1.4-0.6-2.9-0.5-4.4c-0.1-1.7-0.1-3.4,0-5.1c0-0.7,0.1-1.4,0.3-2.2c0.1-0.8-0.1-0.7,0.1-2.3
	c0.2-1.6,0.1-3.2,0.3-4.8c0.3-1.6,0.5-3.3,0.6-4.9c0-0.7,0.1-1.4,0.2-2.2c0.1-0.5-0.6-0.7,0.4-2c1-1.3-0.6-3.1-1.8-2.3l-0.6-0.2
	c-0.6,0.1-1.2,0.2-1.8,0.1c-0.4-0.1-0.8-0.2-1.2-0.3c-1.2,0-2.4,0-3.5,0.2c-1.2,0-2.5-0.1-3.7-0.3c-1.4,0-2.6-0.3-4-0.3
	c-2.4-0.1-4.8,0-7.1,0.3c-1.2,0.1-2.4,0.1-3.5,0h-2.3c-0.4-0.4-0.9-0.5-1.4-0.3c-0.4,0.2-0.8,0.5-1.2,0.8c-0.2,0.2-0.3,0.4-0.4,0.7
	c-0.3,0.4-0.5,0.9-0.4,1.4c0.2,1,0.6,12,0.4,13.1c-0.2,1.1-0.2,2-0.2,3.2c0,1.3-0.1,1.2-0.3,3.6c-0.2,2.4,0,5,0,7.4
	c-0.1,1,0,2.1,0.1,3.1c0.2,1.1,0.2,2.3,0.2,3.4c0,2.4,0.3,4.7,0.7,7c0.5,3.5,0.9,7,1,10.5c0,1.2,0.2,2.4,0.4,3.5
	c0.1,2.7,0,5.5-0.3,8.2c-0.1,1.5-0.1,3,0,4.5l-0.4-0.6l-1.7-2.3c-0.6-0.8-1.2-1.4-1.7-2.2c-0.9-1.6-2-3-3.3-4.2
	c-0.7-0.5-1.4-1.1-1.9-1.8c-0.4-0.7-1-1.4-1.7-1.9c-0.7-0.3-1.3-0.7-1.9-1.2c-1.2-1.2-2.3-2.6-3.2-4c-0.5-0.9-0.6-1.9-1-2.7
	l-1.2-2.4c-0.3-1-0.6-2.1-0.8-3.1c-0.4-1.9-1.5-3.5-2-5.4c-0.4-1.7-1.1-3.4-2.2-4.8c-1-1.6-2.5-2.8-4.3-3.4l-5-2.3
	c-0.3-0.3-0.7-0.5-1.1-0.6h-0.8c-0.8-0.3-1.7-0.5-2.5-0.6h-0.1c-0.7-0.3-1.4-0.6-2.2-0.9c-0.4-0.1-0.3,0-0.6-0.4
	c-1.7-2-3-3.5-3.7-6.3c-0.7-2.7-1.8-5.6-1.9-8.4c0.1-1.6,0.1-3.1,0-4.7l0.3-0.8c0.1-0.4,0.1-0.7,0.1-1.1V6.5
	c-0.1-1.6-1.3-2.9-2.9-2.9h-0.2c-1.2,0-2.2,0.7-2.7,1.8c-0.2,0.5-0.2,1.1-0.2,1.7c-0.1,0.4-0.2,0.9-0.2,1.4c0,0.8,0,1.7,0,2.5
	c0,1.9,0,3.7,0.3,5.6c0.3,1.7,0.8,3.3,1.3,4.9c0.3,1.7,0.8,3.3,1.5,4.9c0.6,1.2,1.3,2.4,2.2,3.4h-0.7c-1,0.2-1.9,0.3-2.9,0.3
	c-1.9,0.1-3.9,0-5.8-0.3c-2.1-0.5-4.1-1.3-6-2.3c-1.8-1.2-3.6-2.5-5.3-3.9c-1.7-1.3-3-3.2-3.5-5.3c-0.3-1.2-0.8-2.3-1-3.5
	c-0.2-1.2-0.1-2.3-0.4-3.4c-0.2-0.9-0.2-1.7-0.3-2.6c-3-1.4-6.3-0.8-9.1,1.2c-0.6,0.4-1.2,0.6-1.9,0.7c-0.1,0.1-0.3,0.2-0.5,0.3
	c0,0.2,0,0.5,0.1,0.7c0.5,2.9,4.9,14.5,5.7,16c0.8,1.5,1.6,2.9,2.4,4.3c-1.8-0.7-3.7-1.3-5.6-1.9c-1-0.2-2-0.3-2.9-0.6L30.4,29
	c-2.3-0.6-4.6-1-6.9-1.3c-2-0.1-3.9-0.4-6-0.4h-0.7c-0.6-0.3-1.1-0.8-1.4-1.4c-0.8-1.7-0.6-3.6-0.9-5.4c-0.3-0.8-0.2-1.8,0.2-2.5
	c0.5-0.9,1-1.8,1.6-2.6c0.4-0.7,0.9-1.3,1.5-1.9c0.4-0.3,0.8-0.7,1.1-1.2l0.3-0.4l0.2-0.3c1.6-0.9,0.1-3.4-1.6-2.5
	c-0.5,0.3-0.8,0.7-1.1,1.2c-0.3,0.4-0.6,0.8-1,1.2c-0.8,0.7-1.5,1.6-2.1,2.5c-0.7,1.1-1.3,2.2-1.9,3.4c-0.5,1.3-0.5,2.6-0.1,3.9
	c0.4,2.2,0.2,4.5,1.4,6.5l-1.6,0.3c-1.2,0.4-2.4,1-3.4,1.9c-0.6,0.5-1.3,0.9-2,1.2c-2,0.8-3.8,1.6-4.6,3.7c0,0,0,0,0,0
	c-0.4,1.6,0.5,3.2,2.1,3.6c1.2,0.3,2.5-0.3,3-1.5c0,0.1,0.1,0,0.3-0.1l0.8-0.4h0.4l1.7-0.8c1.4-0.7,2.3-2.1,3.9-2.3h1.8l0.9-0.2
	c0.8-0.1,1.6-0.2,2.4-0.1l2.3,0.2h0.2l-1.2,1.4c-2.3,2-4.3,4.1-6.4,6.2c-1.6,1.6-3.3,3.3-5,5c0.1,0.4,0.2,0.9,0.3,1.3
	c0.1,0.8,0.5,1.2,1,1.4c1.8-1.6,3.5-3.3,5.3-5c1.9-1.9,3.6-3.8,5.5-5.6c0.9-0.7,1.7-1.5,2.4-2.4l0.7-0.9l0.4-0.5
	c0.4,0.1,0.9,0,1.3-0.3l4.9,1.1h1.3l1.3,0.3l3,0.7c1.8,0.5,3.6,1.2,5.4,2c1.9,0.5,3.9,0.9,5.9,1.2h0.7l1.7,1.6c1,0.7,2,1.4,3,2
	c1.2,0.6,2.4,1.2,3.6,1.7c5.7,1.5,11.5,1.3,17.3,1.3c1.5,0,2.9-0.1,4.4,0c1.5,0.3,3,0.6,4.4,1.1c1.1,0.1,2.2,0.7,3,1.5
	c0.9,1.2,0.2,1,0.3,3.6c0.1,2.6,1.3,5.3,1.4,7.8c0.1,2.5,1.7,4.8,3,6.9c0.7,1,1.5,1.9,2.3,2.7c1.1,1,2.3,1.7,3.4,2.6l2.9,2.8
	c1,1,1.3,1,3,2.9c1.8,2,4.1,3.3,6.1,5.2c2,1.9,3.8,3.9,5.6,6.1c1.9,2.3,2.6,5.3,3,8.2c0.5,3.1,0.6,6.3,0.5,9.4
	c-0.1,1.6-0.4,3-0.4,4.6v5c0,1.5,0,3,0.3,4.5v0.2c-0.4-0.6-1-1.1-1.6-1.6c-2-1.6-4.1-3.2-6.3-4.6c-2.1-1.3-4.3-2.4-6.6-3.3
	c-2.1-0.8-4.2-1.1-6.4-2.1c-2.2-1-4.3-1.8-6.6-2.6c-1.1-0.5-2.2-1.1-3.3-1.7c-1.1-0.4-2.3-0.8-3.4-1.1c-1.1-0.4-2.3-0.8-3.5-1
	c-1.2-0.2-14.9-6.9-15.9-7.7l-2.8-2c-0.9-0.7-1.7-1.5-2.5-2.3c-1.8-1.4-3.5-3-5.1-4.6c-1.5-1.6-4-3.8-4.7-4.5
	c-0.7-0.7-1.2-1.5-1.9-2.2c-0.9-0.8-1.8-1.5-2.8-2.2l-2.4-1.9l-2.6-2c-1.1-0.6-2.3-1.2-3.4-1.7c-1.1-0.6-9-3.8-10.2-4.1
	c-2.1-0.7-4.3-1.3-6.5-1.8c-3.5,1-7.4,2-9,5.1c-2.3,4.3-1.2,10.2,0.5,14.5C10,85.7,10,85.9,10,86c1.3,0.2,2.5,0.4,3.8,0.5
	c4.6,0.5,17,5.8,18.9,6.9c1,0.5,1.8,1.1,2.5,2c0.8,0.7,1.8,1,2.4,1.7c2.6,2.5,5.4,4.8,7.7,7.5l-4.8-1.9c-3.8-1.4-7.7-1.4-11.7-2
	c-2.2-0.3-4.2-1-6.4-1.1l-5.7,0.2c-2.4-0.1-4.8-0.1-7.2,0.1l-3.1,0.2c-1.2,0-2.4,0.4-3.4,1.2c-1.1,0.7-1.6,2-1.4,3.2
	c0.3,1.3,1.5,2.2,2.8,2.2h0.2c0.7-0.1,1.4-0.4,2-0.8H8l3.3-0.4c2.4,0,4.9,0.2,7.3,0.1h0.8c-2.6,1.4-5.1,3.1-7.4,5
	c-1.7,1.4-3.5,2.5-4.6,4.4c-1.1,1.9-3.2,3.2-4.7,4.5c-1.5,1.3,0.6,3.3,2.1,2.1l2.3-2c0.9-0.7,1.6-1.4,2.3-2.3
	c0.5-0.8,1.1-1.6,1.8-2.3l2.5-2.1c3.5-2.8,7.3-5.2,11.4-6.9c2.4,0.5,4.9,0.8,7.3,1c4.3,0.4,8.5,1.7,12.3,3.9c1.9,1.2,3.8,2.2,5.9,3
	c0.7,1.1,1.5,2.2,2.3,3.1c2.9,3.4,5.9,6.7,9.8,9c1.9,1,3.8,1.9,5.8,2.6c1,0.5,2,0.8,3,1c1.1,0.1,2.1,0.5,3.1,0.5
	c2.2,0.1,4.4,0.5,6.5,1.1c2.4,0.4,4.7,1,6.9,1.8c2.2,0.8,4.7,1.3,6.6,1.9c1.9,0.6,3.8,1.2,5,2.8c1.2,1.7,2.1,3.6,2.6,5.7
	c0.5,2,0.7,4.1,0.6,6.2c-0.1,2.2-0.4,5.5-0.4,6.5s0,1.8-0.2,2.9c-0.2,1.2,0.1,1.2-0.2,3.4c-0.3,2.3-0.7,4.5-1.1,6.8
	c-0.4,2.3-0.9,4.6-1.6,6.9c-0.3,1.1-0.7,2.1-1.2,3c-0.4,0.9-0.8,1.9-1,2.9c-0.4,1.1-0.9,2.2-1.5,3.2l-1.6,3.1
	c-1.1,2.1-2.4,3.8-3.4,5.9l-1.2,2.9c-0.4,1.1-0.6,2.2-1,3.2c-0.4,0.9-0.7,1.8-0.9,2.7c-0.3,1.2-0.8,2.3-1.2,3.5
	c-0.7,2.2-1.2,4.5-1.7,6.8c-0.5,2.3-0.6,4.8-1.1,7.1c-0.4,2-0.7,4-0.7,6.1c-0.1,1.1-0.2,2.1-0.4,3.1v0.3c-1,2.1-2.4,5.4-2.7,6.4
	s-0.3,2.2-1,2.9l-2.3,2.3c-1.4,1.6-3.1,2.9-5.1,3.7c-2.1,1-4.3,1.7-6.6,2.1l-6.6,0.8l-3.2,0.3c-1.1,0.2-2.3,0.1-3.3,0.2
	c-1.1,0.1-2.1,0.5-3.1,0.6l-1.5,0.2l-1.7,0.7c-1.1,0.4-2.3,0.8-3.5,1.1c-0.8,0.2-1.6,0.5-2.3,0.8c-1.5,0.5-3.5,1.3-3,3.1
	c0,0.2,0.1,0.4,0.3,0.6c0,0.3,0.2,0.6,0.4,0.9c0.5,0.6,1.5,0.7,2.1,0.1c0.5-0.4,1.4-0.1,1.9-0.2l2.1-0.3c1.9-0.1,3.8-0.1,5.7,0
	l128.5-0.4h7.4c0.9,0,1.7,0.1,2.5,0.3c3.2,0.4,6.6-0.3,9.8,0.1c1.9,0.3,3.9,0.5,5.9,0.4l2.6-0.4c0.9,0,1.9,0,2.8,0
	c2.1-0.1,4.2-0.1,6.3,0c1.7,0.2,3.4,0.4,5.1,0.4c3.6,0.3,7.3,0.5,11,0.4c1.7,0,3.6-0.5,5-0.5c1.4,0,2.7,0.4,3.8-0.8
	c0.5-0.5,0.5-1.2,0.2-1.8c-0.8-1.1-1.8-1.2-2.8-1.9c-1.1-0.8-2.5-1.1-3.8-1.1h-5.1l-3.1-0.2h-1.8l-0.5-0.4c-1.2-1-2.6-1.8-4.1-2.3
	c-0.9-0.3-1.8-0.5-2.7-0.7c-0.9-0.3-1.8-0.5-2.7-0.7c-0.8-0.2-1.6-0.3-2.3-0.4l-2.6-0.3c-2.1-0.3-4,0.1-6.2-0.2
	c-2.2-0.3-4.3-0.3-6.4-0.5c-2.1-0.2-5.5-0.8-6.3-1c-0.8-0.2-1.7,0-2.5-0.2c-1-0.2-2-0.3-3-0.3H184c-1.1-0.4-2.3-0.7-3.4-0.9
	c-2.9-0.6-5.6-1.7-8-3.3l-2.4-1.7c-0.4-0.8-0.8-1.5-1.1-2.3c-0.3-0.8-0.6-1.7-1-2.5c0-0.5,0.1-1,0.3-1.5c0.7-2.3,0-4-1.3-5.9
	c-0.5-0.9-0.9-1.9-1.3-2.9c-0.4-1-0.5-2.1-0.3-3.1l0.7-1.5c0.1-0.5,0.2-1,0.4-1.5c0.4-1,0.7-2,0.9-3c0-0.9-0.1-1.8-0.4-2.6
	c-0.4-0.8-1-1.6-1.7-2.3c-1.4-1.7-1.8-4-2.3-6c-0.4-2-1.2-4-2.3-5.8c-1.2-1.7-2.6-3.4-4.1-4.8c-1.6-1.6-2.9-3.4-3.2-5.8
	c-0.3-2.3,0.9-4.6,1.4-6.9c0.1-1.1,0.5-2.1,1.1-3c0.6-0.8,0.4-1,1.6-2.4c1.2-1.5,2.4-3.3,2.3-5.4c0-1-0.2-2-0.4-2.9
	c-0.1-0.5-0.2-1-0.2-1.5c-0.1-0.5-0.1-1-0.3-1.5c-0.3-2,0.4-4,1.8-5.5c1.6-1.7,3.4-2.3,5.5-3.1l7.2-2.9c2.3-0.9,4.4-2,6.7-2.6
	c2.3-0.6,4.6-1.4,6.8-2.3l12.1-5.4l5.8-1.6c3.9-1.2,8-1.9,12-2.1h6.4c2.1,0,4.1-0.1,6.1,0.1c1.1,0.1,2.1,0.4,3.1,0.8l2.6,0.5
	c1.9,0.4,3.7,1.2,5.6,1.3c1.9,0.1,2-2.9,0-2.9c-2,0-3.8-1-5.7-1.3l-2.6-0.7l2.2-2.1c0.8-0.7,1.7-1.2,2.7-1.6c1-0.4,2-1,2.8-1.7
	c3.9-2.7,8.3-4.6,13-5.6C254.7,123.9,253.9,121.1,252.1,121.5z"/>
</svg>
