<?xml version="1.0" encoding="utf-8"?>
<!-- Generator: Adobe Illustrator 22.1.0, SVG Export Plug-In . SVG Version: 6.00 Build 0)  -->
<svg version="1.1" id="Layer_1" xmlns="http://www.w3.org/2000/svg" xmlns:xlink="http://www.w3.org/1999/xlink" x="0px" y="0px"
	 viewBox="0 0 1200 1107.1" style="enable-background:new 0 0 1200 1107.1;" xml:space="preserve">
<style type="text/css">
	.st0{fill:#514361;}
	.st1{font-family:'RobotoMono-Regular';}
	.st2{font-size:50px;}
	.st3{fill:none;stroke:#AFAFAF;stroke-width:4;stroke-linecap:round;stroke-miterlimit:10;stroke-dasharray:0,9.4281;}
	.st4{fill:none;stroke:#AFAFAF;stroke-width:4;stroke-linecap:round;stroke-miterlimit:10;stroke-dasharray:0,9.9699;}
	.st5{fill:none;stroke:#AFAFAF;stroke-width:4;stroke-linecap:round;stroke-miterlimit:10;stroke-dasharray:0,9.2735;}
	.st6{fill:none;stroke:#AFAFAF;stroke-width:4;stroke-linecap:round;stroke-miterlimit:10;stroke-dasharray:0,9.4667;}
	.st7{fill:#EAEAEA;}
	.st8{fill:none;stroke:#B2B1B1;stroke-width:2;stroke-miterlimit:10;}
	.st9{fill:none;stroke:#AFAFAF;stroke-width:4;stroke-linecap:round;stroke-miterlimit:10;stroke-dasharray:0,9.9536;}
	.st10{fill:#7F7F7F;}
	.st11{font-size:31.4177px;}
</style>
<text transform="matrix(1 0 0 1 177.1634 998.0544)" class="st0 st1 st2">isopleth</text>
<text transform="matrix(1 0 0 1 346.3022 55.1938)" class="st0 st1 st2">data label</text>
<text transform="matrix(1 0 0 1 1072.7617 547.1855)" class="st0 st1 st2">map</text>
<g>
	<path class="st3" d="M961.2,46.6h52.5"/>
	<path class="st4" d="M1018.4,56.8v924.5"/>
	<path class="st5" d="M1009.1,986.3h-51.7"/>
	<path class="st6" d="M1028.1,531.3h24"/>
</g>
<path class="st7" d="M922.4,439.2l-26.3-52.7c-0.6-1.1-0.3-2.4,0.5-3.3l29.4-29.3c0.6-0.6,0.9-1.5,0.8-2.3l-4.6-45.3
	c-0.1-0.7,0.1-1.4,0.6-2l46.9-61.9c0.9-1.2,0.7-2.8-0.3-3.8l-28.8-27.2c-0.5-0.5-1.2-0.8-1.9-0.8l-93.2-1c-0.4,0-0.9,0.1-1.3,0.3
	l-22.7,10.9c-1.1,0.5-2.5,0.3-3.3-0.6l-64.6-69.9c-0.4-0.4-0.9-0.7-1.4-0.8l-38.8-10c-0.2-0.1-0.5-0.1-0.7-0.1H619
	c-0.4,0-0.7,0.1-1.1,0.2l-27.7,11c-0.9,0.3-1.8,0.2-2.6-0.2l-18.5-11.7c-0.3-0.2-0.7-0.3-1-0.4l-56.5-9.8c-0.7-0.1-1.4-0.5-1.8-1.1
	l-26.9-36.6c-0.7-0.9-1.9-1.4-3-1.1L448,97.4c-0.6,0.2-1.2,0.5-1.6,1.1L417,137.7c-0.2,0.3-0.5,0.5-0.8,0.7l-23.7,14.8
	c-0.7,0.5-1.2,1.2-1.3,2.1l-2.4,21.8c-0.1,0.8-0.5,1.6-1.2,2l-56.2,39.3c-0.4,0.3-0.7,0.6-0.9,1l-19.3,37.7
	c-0.7,1.3-2.2,1.9-3.6,1.4l-31.4-11.6c-0.8-0.3-1.6-0.2-2.3,0.2l-91.1,47.7c-0.9,0.5-2,0.4-2.9-0.1l-43.6-27.6
	c-0.4-0.2-0.8-0.4-1.2-0.4l-48.8-6.3c-0.5-0.1-1,0-1.4,0.2l-41.5,15.9c-1,0.4-1.7,1.3-1.8,2.3l-9.1,77.7c0,0.3-0.1,0.6-0.3,0.9
	l-20.4,40.9c-0.4,0.8-0.4,1.7,0,2.5l24.7,55c0.2,0.5,0.5,0.9,0.9,1.2l35.4,25.4c0.4,0.3,0.7,0.7,0.9,1.1l16.1,35.3
	c0.5,1.1,1.7,1.8,2.9,1.7l71.6-7.6c1.1-0.1,2.2,0.4,2.7,1.4l25.8,41.9c0.6,0.9,1.6,1.5,2.7,1.4h0c2.4-0.3,4,2.4,2.7,4.4l-3.3,5
	c-0.7,1-0.6,2.3,0.1,3.3l29.7,38.9c0.9,1.1,0.8,2.7-0.2,3.7l-15.6,16.7c-0.5,0.6-0.8,1.3-0.8,2.1l3,51.4c0,0.5,0.2,1,0.5,1.4
	l23.3,36.1c0.2,0.4,0.4,0.8,0.4,1.2l15.7,117.9c0.2,1.2,1.1,2.2,2.3,2.4l74.8,13.8c0.6,0.1,1.2,0,1.8-0.3l30.6-15.3
	c1.3-0.7,3-0.2,3.7,1.1l27.7,45.4c0.3,0.4,0.6,0.8,1.1,1l32.6,17.3c1,0.5,1.6,1.6,1.5,2.7l-4.1,64.9c-0.1,1.4,0.9,2.7,2.3,3
	l63.3,12.8c1.1,0.2,2.3-0.2,2.9-1.2l25.4-36.4c0.6-0.9,1.7-1.3,2.7-1.2l62.1,8.1c1.3,0.2,2.6-0.6,3.1-1.8l27-71.8
	c0.5-1.3,1.7-2,3.1-1.8L648,887c1.5,0.2,2.6,1.5,2.5,3.1l-2.7,37.9c-0.1,1,0.4,1.9,1.1,2.5l36.5,28c0.5,0.4,1.2,0.6,1.9,0.6
	l44.9-1.9c0.9,0,1.8-0.5,2.3-1.3l92-136.8c0.3-0.5,0.5-1,0.5-1.6v-46.8c0-0.9,0.4-1.8,1.2-2.3l48.4-35.5c0.4-0.3,0.7-0.7,0.9-1.1
	l39.6-83.3c0.2-0.4,0.3-0.8,0.3-1.2v-33c0-0.8,0.3-1.5,0.8-2l27.7-27.7c1.1-1.1,1.1-2.9,0-4l-51.5-53.2c-0.8-0.8-1-1.9-0.6-2.9
	l29-82.8C922.8,440.7,922.8,439.9,922.4,439.2z"/>
<path class="st8" d="M234.5,417.9c0-63.8,82.9-65.2,131.4-105.4c57.4-47.5,86.9-127.5,161.3-115.2c304.9,50.3,315,199.3,225.7,379.1
	c-61.9,124.7-81.2,283.3-220.5,283.3S234.5,557.1,234.5,417.9z"/>
<rect x="475.8" y="176.7" class="st7" width="69.3" height="43"/>
<path class="st8" d="M376.1,547.2c0-47.1-14.1-107.8,21.7-137.4c42.3-35.1,72.2-134.7,127.1-125.6c224.8,37.1,204,276.7,173.5,302
	c-122.5,101.3-66.9,186.5-169.6,186.5S376.1,649.9,376.1,547.2z"/>
<rect x="475.8" y="262" class="st7" width="69.3" height="43"/>
<path class="st8" d="M434.5,540.7c0-30.9,12.3-50.3,35.8-69.8c27.8-23,58.2-38.7,94.3-32.7c147.8,24.4,101.8,111.5,81.7,128.1
	c-80.5,66.6-44,122.6-111.5,122.6S434.5,608.1,434.5,540.7z"/>
<rect x="475.8" y="423.2" class="st7" width="69.3" height="43"/>
<path class="st9" d="M298,939.1V751.6"/>
<text transform="matrix(1 0 0 1 432.8931 1076.7769)" class="st0 st1 st2">isopleth interval</text>
<path class="st9" d="M683.9,1034.2v-204"/>
<path class="st9" d="M510.5,162.5V77.3"/>
<g>
	<text transform="matrix(1 0 0 1 481.7539 205.4604)" class="st10 st1 st11">300</text>
</g>
<g>
	<text transform="matrix(0.9708 -0.2399 0.2399 0.9708 486.8084 309.2704)" class="st10 st1 st11">200</text>
</g>
<g>
	<text transform="matrix(0.9102 -0.4142 0.4142 0.9102 486.0702 467.6927)" class="st10 st1 st11">100</text>
</g>
<path class="st8" d="M753,576.4c-61.9,124.7-81.2,283.3-220.5,283.3s-298-302.6-298-441.9"/>
<path class="st8" d="M115.7,519c-12.1-66.9,75.7-108.6,111.5-175.8c15.2-28.5,24.9-59.8,34.5-89.6"/>
<path class="st8" d="M595,928.5C471,906.2,214.6,678.9,210.9,674.7"/>
<path class="st8" d="M641.6,140.5c188.2,42.1,254.8,233.2,240.8,430c-2.9,41.4-77.6,82.1-101.8,152
	c-39.4,113.6-20.1,159.8-80.2,199.3c-17.3,11.3-28.5,9.2-51.5,8.6"/>
<path class="st8" d="M436.1,113.1c32.2,2,39.9,2.2,67.3,5.3"/>
<rect x="145.4" y="383.5" transform="matrix(0.7071 -0.7071 0.7071 0.7071 -233.6083 245.9578)" class="st7" width="69.3" height="43"/>
<g>
	<text transform="matrix(0.7071 -0.7071 0.7071 0.7071 164.9373 430.4815)" class="st10 st1 st11">400</text>
</g>
<path class="st9" d="M753,830.2h-135"/>
</svg>
