<?xml version="1.0" encoding="utf-8"?>
<!-- Generator: Adobe Illustrator 22.1.0, SVG Export Plug-In . SVG Version: 6.00 Build 0)  -->
<svg version="1.1" xmlns="http://www.w3.org/2000/svg" xmlns:xlink="http://www.w3.org/1999/xlink" x="0px" y="0px"
	 viewBox="0 0 1268 418" enable-background="new 0 0 1268 418" xml:space="preserve">
<g id="Layer_1">
	<g>
		<path fill="none" stroke="#9791A9" stroke-miterlimit="10" d="M821.6,352.4c-4.9,2.7-8.6,4.2-11.6,5.4c-5.2,2.2-8.6,3.6-12.5,8.2
			c-4,4.7-16.5,9.3-29.7,14.2c-8.9,3.3-18.2,6.7-25.3,10.3c-9.3,4.7-20,8-29.5,10.9c-8.3,2.5-15.5,4.7-19.5,7.3
			c-4.1,2.7-16.6,3.4-29.8,4.2c-11,0.6-23.4,0.8-32.4,2.6c-0.8,0.2-1.8,0.3-2.9,0.5"/>
		<path fill="none" stroke="#9791A9" stroke-miterlimit="10" d="M468.5,2.5c1.6,3.1,3.8,5.6,6.4,7.4c6.6,4.5,21.2,10.4,40.7,12
			c18.6,1.5,42.2-4.3,52.1-7.6c4.6-1.5,10.6-1.4,19.5-1.2c7.9,0.2,17.8,0.4,31.4-0.2c28.4-1.4,43.2,4.1,53.9,8.1l1.1,0.4
			c4.3,1.6,10.3,2.7,16.1,3.7c8.9,1.6,18.1,3.2,18.8,6.4c0.3,1.2,0.4,2.2,0.5,2.9c0.5,3.7,1.2,3.9,9.9,6.6l1.1,0.3
			c8.4,2.6,8.1,3.8,7,9c-0.3,1.5-0.7,3.2-0.9,5.3c-1.1,9.9,3.3,13.2,11.6,18.6c3.3,2.1,8.2,4.6,13.5,7.2c8.1,4,17.4,8.6,23.7,13.5
			c8.1,6.4,18.6,9.5,29.7,12.8c3.8,1.1,7.7,2.3,11.6,3.6c14.2,4.8,14.2,6.7,14.2,19.2v1.2c0,13.7,0,17.4,8.5,23.8
			c4.5,3.3,4.5,6.9,4.6,12.4c0.1,3.5,0.1,8,1.5,13.4c2.9,10.9,7.8,12.9,14.7,15.6c2,0.8,4.2,1.6,6.6,2.8c5.2,2.6,8.9,5.9,12.8,9.5
			c4,3.6,8.2,7.4,14.3,10.8c13.5,7.5,28.7,8.7,38.5,7.4c4.9-0.7,12.4,1.4,21,3.8c8.6,2.4,18.3,5.1,27.9,5.7c8.9,0.5,17.4,1,27.2,1.5
			c11.4,0.6,24.3,1.3,41.8,2.3c34.2,2,49.4,7.3,61.6,14.8c4.7,2.9,10.7,5.9,16.5,8.9c10,5.1,21.4,10.9,22.2,14.2
			c0.5,1.8-1.8,3.3-4.2,4.9c-2.5,1.7-5.1,3.4-5.2,5.8c-0.1,1.5,0.8,3,2.8,4.6c2.3,1.8,3.2,3.3,2.8,4.6c-1,2.9-9.2,5.4-21.3,8.3
			c-5.9,1.4-10,2.7-13.6,3.9c-8.1,2.6-13.9,4.5-34.9,5.5c-31,1.5-68.7-6.4-84.3-12.3c-15.7-5.9-57.3-16.6-71.9-18.5
			c-15-2-41.7,17.6-47.5,27.4c-2.9,4.9-9.9,11.6-20.2,19.4"/>
	</g>
	<g>
		<path fill="none" stroke="#9791A9" stroke-miterlimit="10" d="M226.9,1.5c1.9,7.3,6.1,26.5-0.5,34.2c-5.5,6.4-32.5,7.5-61,8.7
			c-36.5,1.5-77.9,3.3-95.3,15.9C50.2,74.7,56.3,89.9,62.7,106c4.1,10.2,8.4,20.8,7.3,32.7c-1.4,14.5-0.7,51.8,35.6,86.3
			c3.2,3,9.1,11,15.3,19.5c8.6,11.7,16.8,22.8,20.7,25c1.2,0.7,3.2,3.1,5.7,6.2c10.2,12.6,31.5,38.9,79.9,51.9
			c16.5,4.5,50.7,15.9,57.3,21.9c6,5.5,16.1,13.5,30,20.5c4.5,2.3,7.5,4.6,10.6,7c5.6,4.3,11.3,8.7,25.4,13.1
			c10.5,3.3,19.5,4.5,28.3,5.6c9.3,1.2,18.2,2.4,27.5,6c1.3,0.5,2.7,1,4.1,1.5"/>
		<path fill="none" stroke="#9791A9" stroke-miterlimit="10" d="M492.8,415.5c-1.8-0.2-3.5-0.3-5.1-0.5c-14-1.6-26.1-3.1-36.8-4.8"
			/>
	</g>
	<g>
		<path fill="none" stroke="#8E86A2" stroke-miterlimit="10" d="M549.6,409.9c5.9,0.1,11.7,0.2,17.5,0.2c45.8,0,85.7-3.9,118.8-11.5
			c11.1-2.6,23.9-8.7,36.2-14.6c11.3-5.4,23-11.1,32.9-13.6c21-5.4,46.7-24.6,60.5-34.9c4.8-3.6,10.2-6,15.4-8.4
			c9.1-4.1,18.5-8.4,24.7-18.7c6.4-10.6,22.2-18.8,33.7-24.8c5.4-2.8,9.7-5.1,11.9-6.9c6.3-5.5,20-11.4,31.7-5.4
			c13,6.6,20.5,9.6,42.4,13c9.4,1.4,16.3,4.9,23.7,8.6c9.8,4.9,20.8,10.4,39.9,12.5c31.5,3.6,77,0.1,80.3-15.6
			c3.2-15-12.7-22.2-26.7-28.5l-0.2-0.1c-16.3-7.4-35-14-60.8-12.2c-9.8,0.7-15.5,1.6-20.1,2.4c-7.8,1.3-11.8,1.9-26.2-0.5
			c-11.5-1.9-18.5-1.7-25.4-1.6c-7.1,0.1-13.8,0.3-25.5-1.8c-23.3-4.2-60.4-24-70.1-35.3c-5.3-6.1-13.3-8.3-19.7-10
			c-6.7-1.8-10.1-2.9-9.8-6.3c0.6-7.4,2.1-24.8-12.8-32.3c-10.3-5.1-10.5-8.3-10.9-16c-0.1-1.9-0.2-4.1-0.5-6.5
			c-1.6-12.8-3.5-17.7-31.1-26.9c-7.3-2.4-12.5-3.9-16.8-5.1c-11.5-3.2-14.2-3.9-25.4-15.3c-14.9-15-30.9-30.2-49.5-35.8
			c-8.3-2.5-16.9-4.7-25.3-6.8c-9.6-2.4-19.5-4.9-29.1-7.9C622,40,617.7,35.8,618.2,34c0.4-1.1,3.2-2.2,10-1.7
			c6.8,0.4,13.2,2.1,20.1,3.9c10.9,2.8,22.2,5.8,35.6,3.5c4.8-0.8,5.6-2.5,5.4-3.8c-0.8-6.7-34.2-16.7-53.2-17.4
			c-29.5-1-46.3,2.3-61,5.2c-3.8,0.8-7.4,1.5-11,2.1c-16.4,2.7-41.1,2.1-60.1-1.5c-9.9-1.9-24.4-2.9-38.4-3.9
			c-11-0.8-21.4-1.5-28.7-2.6c-9.7-1.5-17.5-3.4-24.3-5c-18-4.4-31-7.5-61.1,0.2c-12.4,3.2-20.7,5.7-28,7.9
			c-8.1,2.5-14.6,4.4-23.8,6.4c-9.5,2-16.5,8.6-23.3,15c-6.4,6-12.4,11.7-20,13.6c-5.9,1.5-23.5,1.2-43.9,1
			c-37.4-0.5-83.8-1.1-106.4,6.8c-29.7,10.4-23.7,36.9-18.8,58.1c1.5,6.4,2.9,12.5,3.2,17.7c1.6,23.6,16.3,42.3,32,62.1
			c7,8.9,10,14.8,12.6,20c3.5,6.8,6.2,12.3,16.8,20.8c10,8.1,13.9,14.9,17.7,21.5c3.1,5.4,6,10.5,11.9,16c2,1.9,4.1,4.1,6.4,6.4
			c13.3,13.5,31.5,32.1,62.3,39.5c3.6,0.9,7,1.7,10.2,2.4c27.9,6.6,38.3,9.1,52.5,25c13.8,15.5,41.3,22.9,70.4,30.7
			c5.2,1.4,10.6,2.9,15.9,4.3c28.7,8.1,61.7,15.9,108.7,19.5"/>
	</g>
	<g>
		<path fill="none" stroke="#857C9A" stroke-miterlimit="10" d="M361.3,355.1c0.6,0.4,1.2,0.7,1.8,1.1c26,16.8,46.1,19.1,74,22.3
			c20.3,2.3,45.5,5.3,80.3,14.9c20.5,5.7,40.4,7.8,59.5,7.8c25.2,0,49-3.7,70.6-7.6c37.7-6.8,75.1-14.1,83.4-21.8
			c7.4-6.9,12.1-9.3,22.6-14.5l2.3-1.1c7.6-3.8,19.8-11.3,31.6-18.6c7-4.3,14.3-8.8,20.3-12.3c2.1-1.2,4.1-2.3,5.8-3.3
			c11.3-6.4,15.5-8.8,24.8-23.4c8.9-14,24.7-21.6,36.2-27.2c1.8-0.9,3.5-1.7,5.1-2.5c5.4-2.8,8.6-6.8,8.9-11.2
			c0.3-4.3-1.8-11.1-13.8-18.8c-5.7-3.7-11.1-6.5-15.8-9c-9.8-5.2-16.9-8.9-20.5-16.5c-3-6.4-8.1-8.6-12.6-10.5
			c-4.1-1.8-7.7-3.3-9.5-7.9c-3.4-8.5-9-22.7-24-34.3c-5-3.9-8.1-7.7-10.8-11c-4.9-6-9.1-11.1-21.6-13.4l-1.2-0.2
			c-17.7-3.2-28.4-5.1-28.8-17.9c-0.5-14.7-6.3-20.1-25.8-31.4c-5.8-3.3-10.1-6.8-14.4-10.1c-10.3-8.1-20-15.7-48.6-22.1
			c-21.9-4.9-42.9-6.9-61.4-8.7c-15.2-1.4-28.3-2.7-37.2-5.2c-10-2.9-28.6-4.7-46.6-6.4c-17.3-1.7-35.1-3.4-43-6
			c-14.8-4.8-22.5-2.4-36.5,1.9c-1.9,0.6-3.8,1.2-6,1.8c-9.1,2.8-26.2,7.9-37.2,4.9c-2.7-0.7-5.7-2.2-8.8-3.7
			c-9.5-4.6-21.4-10.4-39.6-4.6c-16.5,5.2-26,11.9-35.2,18.3c-4.2,2.9-8.5,6-13.5,8.9c-15.1,8.8-25.4,12.1-42.6,13.7
			c-3.4,0.3-10.5,0-19.5-0.3c-34.5-1.3-98.8-3.8-108.7,20.5c-11.6,28.5,17.6,76.5,28.6,94.5c0.6,1,1.2,2,1.7,2.8
			c14.5,24.1,28.3,41.3,41.1,51.1c17.4,13.4,29.9,23.6,30.8,32.4c1,9.5,6.5,17.3,19,27c1.1,0.8,2.1,1.6,3.1,2.4
			c10.4,8.2,17.2,13.5,42,21.2c1.9,0.6,3.9,1.2,6,1.8c14.5,4.4,31.9,9.7,48,15.7"/>
	</g>
	<g>
		<path fill="none" stroke="#7C7193" stroke-miterlimit="10" d="M798.4,294.5c6.6-6.5,12.2-12.4,15.2-16.1c1.2-1.4,2.3-2.8,3.5-4.2
			c7.7-9.2,14.4-17.1,5.6-28.2c-3.1-3.9-7.4-8-12-12.4c-9.4-9.1-20.1-19.4-20.1-28c0-13.2,0-22.7-15.6-33.6
			c-9.2-6.4-19.7-9.8-29.9-13.1c-7-2.3-13.6-4.4-19.7-7.4c-12.2-6.1-28.9-15.7-33.6-29.1c-0.6-1.6-1.1-3.4-1.7-5.2
			c-3.7-12.4-8.8-29.4-41.4-41.4c-32.5-12-109-23.1-125.2-16.2c-2.6,1.1-3.3,2.6-3.3,3.6c-0.8,8.6,12.7,11.4,29.7,15
			c7.7,1.6,16.4,3.4,25.1,6c27.6,8.2,29.6,15.6,33.8,31.5c1.6,5.9,1.3,9.4-1,10.7c-4.2,2.4-16.9-1.6-34.7-8.2
			c-12.3-4.6-27-8.7-42.7-13.2c-25.8-7.3-52.5-14.8-72.4-25.4c-16.7-8.8-64.7-24.4-105.2-22.3c-19.7,1.1-33.4,4.8-49.2,9.2
			c-18.2,5-38.7,10.6-74.3,13.9c-2.5,0.2-6.5,0.2-11,0.1c-24.5-0.4-70.2-1.2-80.9,36.9c-5.9,20.9,8.7,60.2,43.1,89.8
			c7.8,6.7,16.5,11.7,24.9,16.4c6.4,3.7,12.5,7.1,18,11.2c12.4,9.3,13.8,19.1,15.2,29.6l0,0.2c1.5,10.4,5.4,20.2,38.9,34.7
			c36.1,15.6,72.2,23.4,86,26.1c18.6,3.6,81.1,25.8,107.7,40.6c20,11.1,59,15.1,86,15.1c9.5,0,17.6-0.5,22.8-1.3
			c6-1,16.3-0.9,28.3-0.9c30.4,0,72,0.1,98.5-14.3c5.9-3.2,14.5-10,23.5-17.1c10.1-7.9,20.5-16.2,27.3-19.5c3.5-1.7,8.4-5.2,14-9.7"
			/>
	</g>
	<g>
		<path fill="none" stroke="#7C7193" stroke-miterlimit="10" d="M607.3,363.7c10.6-1.2,20.3-2.3,31.9-2.7
			c43.1-1.8,77.3-13.5,101.7-34.7c4.3-3.7,8.3-7.2,12.2-10.6c56.8-49.3,67.1-58.2,47.9-75.5c-6.4-5.8-11.4-9.1-15.1-11.5
			c-7.4-4.9-9.4-6.2-8.8-18.9c1.1-21.7-9.2-36.3-30.6-43.6c-7.8-2.7-13.7-3.9-18.3-5c-8.7-1.9-14-3.1-23.5-10.9
			c-6.8-5.6-13.5-8.1-18.9-10.1c-6.5-2.4-10.1-3.8-9.4-8.9c1.4-9.7,3.7-25.8-15.6-38.2c-16-10.3-50.5-20.6-60.5-18.1
			c-2.3,0.6-3.1,1.7-3.4,2.5c-1.5,4.9,8.1,10.6,17.4,16.1c5.1,3,9.9,5.9,12.1,8.1c8.5,8.8,5.9,24.4-1.5,34.3
			c-3.9,5.2-8.7,8.2-12.8,8c-13.8-0.7-31.3-8.9-46.7-16.1l-1.4-0.7c-16-7.5-79.6-23-113.3-27.6c-10.1-1.4-19.7-3.4-29.7-5.6
			c-17.2-3.7-34.9-7.4-56.7-8.2 M322.5,87.2c-37,2.7-75.8,8.5-93.9,23.4c-9,7.4-17.5,11.1-24.4,14.2c-8.9,3.9-15.3,6.7-16.5,14.6
			c-2.1,13.8,1,46.7,14.6,60.2c7.3,7.3,17.3,13.1,27,18.7c8.4,4.9,16.3,9.4,21.4,14.5c4.6,4.5,7,12.8,9.5,21.7
			c3.5,12.1,7.1,24.7,17,30.5c17.6,10.4,63.5,22.9,95.8,28.4c32.8,5.7,53.5,17.4,73.5,28.8c24.7,14.1,48.2,27.4,91.4,27.4
			c4.9,0,10-0.2,15.3-0.5c4.6-0.3,8.9-0.6,12.9-0.9"/>
	</g>
	<g>
		<path fill="none" stroke="#73678C" stroke-miterlimit="10" d="M558.7,350.3c18.2-0.8,38.4-2,58.5-3.3
			c53.9-3.4,78.9-20.9,97.2-33.6c14.6-10.2,31.6-21.3,44.1-29.5c4-2.6,7.4-4.8,9.9-6.5c6.8-4.5,10.9-11.3,10.7-18.1
			c-0.1-7.9-5.8-15.6-16.4-22.3c-18.6-11.7-14.2-21.3-10.8-29c0.9-2.1,1.8-4,2.2-5.9c1.8-9-16.7-25.1-44.2-33.1
			c-15.2-4.4-17.2-6.2-19.5-8.2c-1.9-1.6-4-3.5-12-6.8c-16.7-6.8-18.7-10.9-23.1-20l-0.8-1.7c-2.5-5.2-5.5-7.9-8.9-7.9h-0.1
			c-2.9,0-5.5,2-7.4,5.5c-0.8,1.4-1.3,2.6-1.8,3.6c-2.1,4.4-3,6-12.6,15c-8.1,7.5-25,4.8-50.3-7.8c-13.9-7-58.9-18.8-92.5-25.8
			c-38.5-8-56.3-7.2-72-6.5c-8.6,0.4-16.8,0.8-27.7-0.3c-2.7-0.3-5.4-0.5-8-0.8c-37.6-3.7-62.5-6.1-101.7,20.9
			c-3.4,2.3-7.3,4.5-11.1,6.6c-8.3,4.6-16.9,9.4-21.1,16.2c-12,19.6,9.7,54.8,29.2,65.8c11.1,6.3,12.3,10.2,14.7,18.1
			c1.6,5.3,3.6,11.9,9.4,21.8c10,17.2,53.9,29,85.9,37.6c15.1,4.1,28.2,7.6,33.7,10.6c4.8,2.6,11.2,6.7,18.7,11.4
			c19.7,12.6,46.6,29.8,67,33.4c4.6,0.8,11.1,1.3,19,1.5"/>
	</g>
	<g>
		<path fill="none" stroke="#73678C" stroke-miterlimit="10" d="M438.8,126.9c15.3-1.2,30.8-2.1,40.4-0.3
			c21.9,4,41.8,10.6,70.9,23.4c4.5,2,8.5,3.9,12,5.5c18.8,8.8,28.3,13.2,66.4,14.9c31,1.4,51.3,6.5,60.4,15.2
			c4.7,4.4,6.3,9.8,4.8,16.1c-2.5,10.5,7.9,15.8,20.9,22.6c8.1,4.2,17.4,9,26.2,16.1c9.2,7.4,15.4,14.7-2.3,29.2
			c-3,2.5-9.8,7.3-18.7,13.2 M687.5,302.5c-17.4,9.7-35.7,18.3-49.1,21.1c-30,6.3-74.7,11.7-102,6.5l-0.6-0.1
			c-25.9-5-30.6-5.9-34.9-14c-4.9-9.2-10.4-11.8-25.5-11.8c-8.7,0-11.9-1.9-18.4-5.8c-3.9-2.3-8.8-5.2-16.5-8.6
			c-20.5-9.1-52-16.9-67.1-19.7l-1.6-0.3c-14.6-2.7-34.7-6.4-42.5-23.9c-4.5-10-10-15.2-14.5-19.4c-3.7-3.5-6.5-6-6.6-10
			c-0.2-3.8-4.8-9.6-10-16.3c-8.1-10.3-18.1-23-15.9-33.1c1.8-8.3,19.8-28.2,61.4-33.2c7.1-0.8,12.6-2,17.3-3
			c6.1-1.3,11-2.4,17.1-2.4c2.8,0,5.9,0.2,9.4,0.7c2.6,0.4,5.9,0.5,9.6,0.5"/>
	</g>
	<g>
		<path fill="none" stroke="#6A5C84" stroke-miterlimit="10" d="M562.9,315.3c-18,0.4-31.4-2.4-47.4-13.5
			c-20.5-14.2-39.2-19.8-65.3-26.6c-8.6-2.3-17.4-3.8-25.8-5.3c-18.5-3.2-36-6.3-48-16.5c-9-7.7-15.1-15.9-20.4-23.2
			c-5.2-7.1-10.1-13.8-16.9-18.8c-0.8-0.6-1.6-1.2-2.4-1.8c-13.9-10.2-34.8-25.5-13.1-42.1c24.7-18.8,52.6-21.8,86.6-23.9
			c9.8-0.6,18.8-1.4,26.8-2.2c10.8-1,20.2-1.9,28.5-1.9c8.3,0,15.6,0.9,22.4,3.3c19.6,7,54,20.2,67.7,25.7
			c15.7,6.3,51.5,22.5,62.1,32.8c7.4,7.2,15.6,16.3,12.7,22.7c-1.6,3.5-6.5,6.2-14.7,7.9c-2,0.4-3.4,1.3-4.2,2.5
			c-2.6,4,1.7,11.4,7,20.7c6.8,11.9,15.2,26.7,10.5,37.2c-3.5,7.8-13.3,13.3-25.3,17"/>
	</g>
	<g>
		<path fill="none" stroke="#61527D" stroke-miterlimit="10" d="M495,269.1c-0.9-0.5-1.6-1-2.2-1.4c-6-4.8-25.5-11.9-46.6-12.9
			c-20.8-1-28.9-2.4-45-15.7c-10.1-8.3-14.7-15-18.4-20.3c-2.4-3.5-4.5-6.5-7.4-9c-2.8-2.4-7-4.4-11.6-6.6
			c-8-3.8-16.2-7.8-17.8-13.9c-2.4-9.6-2.2-18.2,25.4-27c20.7-6.7,36.3-7.5,47.7-8.1c4-0.2,7.4-0.4,10.5-0.8
			c6.7-0.8,13.1-1.2,19.3-1.2c32.7,0,58.3,10.1,71.7,15.4c1.7,0.7,3.2,1.3,4.4,1.7c15.7,5.9,41.4,18.2,38.3,27.2
			c-1.3,3.8-12.7,7.9-22.7,11.5c-10,3.6-18.7,6.8-19.8,10.2c-3.2,9.6,10.6,21,19.7,28.6c1.6,1.3,3.1,2.6,4.3,3.6
			c9.4,8.4,15.8,22,10.4,28.8c-3.3,4.2-10.5,5.5-21.4,3.9c-0.4-0.1-0.8-0.1-1.3-0.2"/>
	</g>
	<g>
		<path fill="none" stroke="#584775" stroke-miterlimit="10" d="M478.3,165.8c10,1.5,16.3,3.7,22.7,9.3c2.2,1.9,5.3,3.8,8.3,5.7
			c5.4,3.3,11.1,6.8,10.9,10.2c-0.1,1.8-1.9,3.7-5.5,5.6c-3.7,2-7.6,3.4-11.3,4.8c-4.8,1.8-9.4,3.5-13.3,6.2
			c-4,2.7-7.2,6.3-9.3,11.9c-1.5,3.9,2.3,8.6,5.9,13.2c3.4,4.3,6.8,8.7,4.3,10.6c-1.7,1.2-5.8,1.3-11.2,0.8 M439.7,235.8
			c-2-0.5-3.8-1-5.3-1.4c-18.5-4.9-28.4-8-35.9-20c-6-9.7-11.9-12.3-18.6-15.3c-2.3-1-4.7-2.1-7.3-3.5c-5.6-3.1-8.8-7.4-8.5-11.5
			c0.4-4.5,4.9-8.7,13.2-12.1c14.3-6,23.8-7.2,33.4-7.2c3.1,0,6.1,0.1,9.4,0.3c1,0,2,0.1,3,0.1c4.3,0.2,8.9,0.1,13.6-0.1"/>
	</g>
	<g>
		<path fill="none" stroke="#4F3D6E" stroke-miterlimit="10" d="M418,214.1c-7.8-5.9-13.4-12.4-15.9-15.6c-2.4-3-6.6-4.3-10.8-5.6
			c-5.2-1.6-9.6-3-9.9-7.2c-0.1-1.3,0.5-2.5,1.9-3.6c4.6-3.8,17.6-6,37.6-6.5c2,0,4.2-0.1,6.3-0.1c16.7,0,36.1,1.7,45.3,8.7
			c4.4,3.4,6.3,5.9,5.9,8c-0.5,2.4-4,4.7-11.6,7.7c-8.8,3.5-9.8,6.1-11.4,10.4c-0.2,0.6-0.5,1.3-0.8,2"/>
	</g>
	<g>
		<path fill="none" stroke="#A99EA9" stroke-miterlimit="10" d="M777.2,395.6c-19.4,7.7-40.6,14.4-64.1,20.4"/>
		<path fill="none" stroke="#A99EA9" stroke-miterlimit="10" d="M711.3,2.5c3.3,0.9,6.8,1.5,10.6,2.1c6.8,1.1,13.8,2.3,20.6,5.7
			c7,3.5,6.5,5.1,5.6,8.2c-1,3.2-2.3,7.6,2.9,15.5c3.5,5.4,5.8,9.2,7.7,12.3c3.7,6.1,6,9.7,12.6,18.7c8.2,11,10.9,12,28.6,18.3
			c4.6,1.6,10.3,3.6,17.4,6.3c31.2,11.7,32.4,16.3,36.5,31.5c0.3,1.1,0.6,2.3,1,3.6l0.2,0.7c5.1,18.7,13.7,49.9,31.7,55.3
			c10.2,3.1,19.1,10,28.4,17.3c6.4,5,13,10.1,20.8,14.8c14.6,8.8,47.8,12.1,98.7,9.8c9.2-0.4,14.1-1.5,17.6-2.3c6.7-1.5,9-2.1,32,6
			c10.8,3.8,20.2,6.8,28.6,9.5c18.9,6.1,33.8,10.9,51.8,20.2c2.2,1.1,4.6,2.3,7,3.5c15.2,7.5,34.2,17,33.1,26.9
			c-0.8,7-11.4,14.1-31.7,21c-64,21.7-81.2,22.4-133.1,16.5c-20.6-2.4-40.2-7.9-57.5-12.8c-27.1-7.7-48.4-13.8-60.7-4.1
			c-2,1.5-4.4,3.6-7.4,6.1c-15.9,13.4-48.9,41.1-100.9,66.7"/>
	</g>
	<g>
		<path fill="none" stroke="#BCAAA9" stroke-miterlimit="10" d="M905.3,2.5c-1.9,4.1-5,8.5-9.1,13.1c-14.6,16.3-12.5,19.8-2.9,29.3
			c0.9,0.9,1.9,1.9,2.9,2.9c3.7,3.8,1.7,5.1-1.9,7.7c-5.3,3.7-12.7,8.8,2.7,24c21.6,21.3,52.5,30.5,73.1,36.6c3,0.9,5.8,1.7,8.4,2.5
			c4.2,1.3,7.8,2.3,10.8,3.1c4.6,1.2,8.2,2.2,8.5,3.2c0.4,1.3-3.4,4.5-7.7,7.8c-8.5,6.6-5.5,11.5-2.2,16.7c3,4.7,6,9.6,1.9,17.2
			c-1.6,3-3.7,5.7-5.5,8c-3.3,4.3-6,7.7-3.9,10.8c3,4.4,15.8,6.7,48.9,9c46.6,3.2,65.7,11.5,86,20.4c9,3.9,18.3,8,30.4,11.8
			c7.3,2.3,16,4.5,25.3,6.9c36.2,9.3,80.7,20.8,94.6,46.6"/>
	</g>
	<g>
		<path fill="none" stroke="#BCAAA9" stroke-miterlimit="10" d="M1140.4,351.6c-6.4,1.2-12.8,2.2-18.8,3.2
			c-22.5,3.7-40.3,6.6-43.8,13.8c-4.9,10.3-10.3,10.9-44,4.8c-34.5-6.3-75.8-0.8-92.1,12.3c-12.5,10-51.9,25.3-66.5,30.8"/>
		<path fill="none" stroke="#BCAAA9" stroke-miterlimit="10" d="M1265.5,312.9c-9.8,15.4-35.4,19.8-60.2,24.1
			c-8.5,1.5-17.3,3-25.3,4.9"/>
	</g>
	<g>
		<path fill="none" stroke="#A99EA9" stroke-miterlimit="10" d="M57.5,44.9c3.4,0.5,6.9,0.8,11,0.8c8,0,18.2-1.1,33.9-3.7
			c6.4-1,13-2.1,19.3-3.1c33.6-5.2,52.6-8.4,53-13.4c0.2-2.3-3.3-4.2-11.3-6.1c-2.8-0.7-5.7-1.4-8.7-2.2
			C123.5,9.4,80.7-1.4,20.7,11.6C9.3,14,2.5,18.6,2.5,23.7c0,4.6,5.3,8.7,14.9,11.9"/>
	</g>
	<g>
		<path fill="none" stroke="#A99EA9" stroke-miterlimit="10" d="M128.5,323.2c-34-14.4-50.6-25.9-51.4-48
			C76.2,251,64.2,186.9,39.7,172c-4.4-2.7-9.1-3.7-13.8-3.1c-13.2,1.8-19,6.5-23.8,12.1"/>
		<path fill="none" stroke="#A99EA9" stroke-miterlimit="10" d="M288,416c-7.7-3.3-15.1-9-26.9-19.9c-26.2-24-54.5-41.2-95.9-58.2"
			/>
	</g>
	<g>
		<path fill="none" stroke="#BCAAA9" stroke-miterlimit="10" d="M22.4,349.4c-2-0.3-4-0.6-6.1-0.8c-6.2-0.8-10.7-2.2-14.3-3.6"/>
		<path fill="none" stroke="#BCAAA9" stroke-miterlimit="10" d="M128.2,416c-17.3-9.1-28-20.4-36.2-30.7
			c-9-11.3-16.9-19.5-30.2-25.6"/>
	</g>
	<g>
		<path fill="none" stroke="#E1C3AA" stroke-miterlimit="10" d="M1223.8,122.9c14.7,0.8,25.7,1.7,39.4,4.6"/>
		<path fill="none" stroke="#E1C3AA" stroke-miterlimit="10" d="M1265.5,15.9c-15.9,4.9-29.9,6-53.2,9.8
			c-41.2,6.6-80.1,12.8-85.8,25.3c-3.1,6.8-9.8,12-15.7,16.5c-7,5.4-13.1,10.2-12.3,16.3c0.7,5.8,7.6,12,21.6,19.5
			c20.3,10.9,45.2,14.2,70.7,15.8"/>
	</g>
	<g>
		<path fill="none" stroke="#F3D0AA" stroke-miterlimit="10" d="M1265.5,37.2c-7.4,1.7-15.8,3.2-24.6,4.9
			c-34.1,6.5-69.4,13.1-66,27.7c2.1,9,15.2,11.5,32.2,12.7"/>
		<path fill="none" stroke="#F3D0AA" stroke-miterlimit="10" d="M1248.8,84.9c5.8,0.6,11.5,1.4,16.7,2.6"/>
	</g>
	<g>
		<path fill="none" stroke="#CEB7AA" stroke-miterlimit="10" d="M1224.9,2.5c-15.5,7.2-44.9,17.9-90,23.2
			c-24.5,2.9-105.8,13.6-121.7,30.6c-2.3,2.4-3.1,4.9-2.4,7.3c1.9,7.2,12.7,14.4,23.2,21.4c12.5,8.3,24.2,16.2,19.3,22.5
			c-6.6,8.3-13.1,25.1-4.2,37.3c6.7,9.1,20.4,14,40.9,14.6c15,0.4,37.3,1.1,61.5,2.7"/>
		<path fill="none" stroke="#CEB7AA" stroke-miterlimit="10" d="M1192.8,166.2c28.4,3.6,55.3,9.1,72.7,18"/>
	</g>
	<g>
		<path fill="#B3B3B3" d="M452,246l-7.7-2.2l0.4-1.3l5.4-4.1c0.8-0.6,1.4-1.2,1.8-1.6c0.4-0.4,0.7-1,0.8-1.5c0.2-0.7,0.2-1.4,0-1.9
			c-0.2-0.6-0.6-0.9-1.1-1.1c-0.7-0.2-1.3-0.1-1.8,0.3c-0.5,0.4-0.9,1-1.2,1.9l-1.7-0.5c0.4-1.3,1-2.2,1.9-2.8
			c0.9-0.6,2-0.7,3.2-0.4c1.1,0.3,1.9,0.9,2.3,1.8c0.4,0.9,0.5,1.8,0.2,3c-0.4,1.4-1.6,2.8-3.5,4.2l-4.2,3.1l5.7,1.6L452,246z"/>
		<path fill="#B3B3B3" d="M461.5,243.8l1.5,0.4l-0.4,1.4l-1.5-0.4l-0.9,3.2l-1.7-0.5l0.9-3.2l-5.2-1.5l0.3-1l7.9-8.1l1.8,0.5
			L461.5,243.8z M456.5,242.3l3.3,1l1.9-6.5L456.5,242.3z"/>
		<path fill="#B3B3B3" d="M472.4,245.6c-0.6,2-1.3,3.5-2.2,4.3c-0.9,0.8-2,1.1-3.2,0.7c-1.2-0.4-2-1.1-2.3-2.2
			c-0.3-1.1-0.2-2.7,0.3-4.6l0.7-2.4c0.6-2,1.3-3.4,2.2-4.2c0.9-0.8,2-1,3.2-0.7c1.2,0.4,2,1.1,2.3,2.2c0.3,1.1,0.2,2.6-0.3,4.5
			L472.4,245.6z M471.4,242.7c0.4-1.5,0.6-2.6,0.4-3.4c-0.1-0.8-0.5-1.3-1.2-1.5c-0.7-0.2-1.3,0-1.8,0.6s-1,1.6-1.4,2.9l-0.8,2.8
			c-0.4,1.4-0.6,2.6-0.4,3.4c0.1,0.8,0.5,1.3,1.2,1.5c0.7,0.2,1.3,0,1.8-0.6c0.5-0.6,1-1.6,1.4-3L471.4,242.7z"/>
	</g>
	<g>
		<path fill="#B3B3B3" d="M504.8,280.6l-7.2-3.6l0.6-1.2l6.1-3c0.9-0.5,1.6-0.9,2.1-1.3c0.5-0.4,0.8-0.8,1.1-1.4
			c0.3-0.7,0.5-1.3,0.4-1.9s-0.4-1-0.9-1.3c-0.7-0.3-1.3-0.4-1.8-0.1c-0.6,0.3-1.1,0.8-1.5,1.7l-1.6-0.8c0.6-1.2,1.4-2,2.4-2.4
			c1-0.4,2.1-0.3,3.2,0.2c1,0.5,1.7,1.2,1.9,2.1c0.3,0.9,0.1,1.9-0.4,2.9c-0.6,1.3-2,2.4-4.2,3.5l-4.7,2.3l5.3,2.7L504.8,280.6z"/>
		<path fill="#B3B3B3" d="M512.1,275.3l1,0.5c0.6,0.3,1.2,0.4,1.8,0.2c0.5-0.2,1-0.7,1.3-1.3c0.8-1.5,0.5-2.5-0.6-3.1
			c-0.6-0.3-1.1-0.3-1.6-0.1c-0.5,0.2-0.9,0.7-1.3,1.4l-1.5-0.8c0.5-1,1.3-1.7,2.2-2.1c1-0.4,1.9-0.3,2.9,0.2c1,0.5,1.7,1.2,1.9,2.1
			s0.1,2-0.5,3.1c-0.3,0.6-0.7,1.1-1.3,1.4c-0.6,0.4-1.2,0.5-1.8,0.5c1,1.1,1.1,2.4,0.3,3.9c-0.6,1.1-1.3,1.9-2.3,2.3
			c-1,0.4-2,0.3-3-0.2c-1-0.5-1.7-1.2-2-2.2c-0.3-1-0.2-2,0.4-3.1l1.6,0.8c-0.3,0.7-0.4,1.3-0.3,1.9c0.1,0.6,0.5,1,1,1.3
			c0.6,0.3,1.1,0.3,1.7,0.1c0.5-0.2,1-0.7,1.4-1.5c0.8-1.6,0.4-2.7-1-3.4l-0.9-0.5L512.1,275.3z"/>
		<path fill="#B3B3B3" d="M525,283.9c-0.9,1.9-1.9,3.2-3,3.8c-1,0.7-2.1,0.7-3.3,0.1c-1.1-0.6-1.8-1.5-1.9-2.6
			c-0.1-1.2,0.3-2.7,1.1-4.5l1.1-2.2c0.9-1.9,1.9-3.1,2.9-3.8c1-0.6,2.1-0.7,3.3-0.1c1.2,0.6,1.8,1.4,1.9,2.6
			c0.1,1.2-0.3,2.6-1.1,4.4L525,283.9z M524.6,280.9c0.7-1.4,1-2.4,1.1-3.2c0-0.8-0.3-1.4-0.9-1.7c-0.6-0.3-1.3-0.2-1.9,0.2
			c-0.6,0.5-1.2,1.4-1.9,2.6l-1.3,2.6c-0.7,1.3-1,2.4-1.1,3.3c0,0.8,0.3,1.4,0.9,1.7c0.6,0.3,1.3,0.2,1.9-0.3
			c0.6-0.5,1.3-1.4,1.9-2.7L524.6,280.9z"/>
	</g>
	<g>
		<path fill="#B3B3B3" d="M579.7,319.2l-7.9,1.3l-0.2-1.3l3.2-6c0.5-0.9,0.8-1.7,0.9-2.2c0.2-0.6,0.2-1.1,0.1-1.7
			c-0.1-0.8-0.4-1.3-0.8-1.7c-0.4-0.4-0.9-0.6-1.5-0.5c-0.7,0.1-1.2,0.5-1.5,1c-0.3,0.6-0.4,1.3-0.2,2.2l-1.7,0.3
			c-0.2-1.3,0-2.4,0.6-3.3c0.6-0.9,1.5-1.5,2.7-1.7c1.1-0.2,2.1,0,2.8,0.6c0.8,0.6,1.2,1.4,1.4,2.6c0.2,1.4-0.2,3.2-1.4,5.3
			l-2.5,4.6l5.9-1L579.7,319.2z"/>
		<path fill="#B3B3B3" d="M589.5,317.6l-7.9,1.3l-0.2-1.3l3.2-6c0.5-0.9,0.8-1.7,0.9-2.2c0.1-0.6,0.2-1.1,0.1-1.7
			c-0.1-0.8-0.4-1.3-0.8-1.7c-0.4-0.4-0.9-0.6-1.5-0.5c-0.7,0.1-1.2,0.5-1.5,1c-0.3,0.6-0.4,1.3-0.2,2.2l-1.7,0.3
			c-0.2-1.3,0-2.4,0.6-3.3c0.6-0.9,1.5-1.5,2.7-1.7c1.1-0.2,2.1,0,2.8,0.6c0.8,0.6,1.2,1.4,1.4,2.6c0.2,1.4-0.2,3.2-1.4,5.3
			l-2.5,4.6l5.9-1L589.5,317.6z"/>
		<path fill="#B3B3B3" d="M598,310.1c0.3,2.1,0.3,3.7-0.2,4.8c-0.4,1.1-1.3,1.8-2.6,2c-1.3,0.2-2.3-0.1-3.1-1
			c-0.8-0.9-1.3-2.3-1.7-4.3l-0.4-2.4c-0.3-2.1-0.3-3.7,0.2-4.8c0.4-1.1,1.3-1.8,2.6-2c1.3-0.2,2.3,0.1,3.1,1
			c0.8,0.9,1.3,2.3,1.7,4.2L598,310.1z M595.9,307.9c-0.2-1.5-0.6-2.6-1-3.2c-0.4-0.7-1-0.9-1.8-0.8c-0.7,0.1-1.2,0.5-1.4,1.3
			c-0.2,0.8-0.2,1.8,0,3.2l0.5,2.9c0.2,1.5,0.6,2.6,1.1,3.3c0.5,0.7,1,1,1.8,0.9c0.7-0.1,1.2-0.6,1.4-1.3c0.2-0.8,0.2-1.9,0-3.3
			L595.9,307.9z"/>
	</g>
	<g>
		<path fill="#B3B3B3" d="M430.7,223.3h-8V222l4.1-5.4c0.6-0.8,1-1.5,1.3-2.1c0.2-0.5,0.4-1.1,0.4-1.7c0-0.8-0.2-1.4-0.5-1.8
			c-0.4-0.5-0.8-0.7-1.4-0.7c-0.7,0-1.3,0.3-1.7,0.8c-0.4,0.5-0.6,1.2-0.6,2.2h-1.7c0-1.3,0.4-2.4,1.1-3.2s1.7-1.2,2.9-1.2
			c1.1,0,2,0.3,2.7,1c0.7,0.7,1,1.6,1,2.8c0,1.4-0.7,3.1-2.2,5l-3.2,4.2h5.9V223.3z"/>
		<path fill="#B3B3B3" d="M433.3,216.1l0.6-7.1h6.2v1.7h-4.8l-0.3,3.9c0.6-0.4,1.2-0.6,1.9-0.6c1.1,0,2,0.4,2.6,1.3
			c0.6,0.9,1,2,1,3.5c0,1.5-0.3,2.6-1,3.5c-0.7,0.8-1.6,1.3-2.8,1.3c-1.1,0-2-0.4-2.6-1.1s-1.1-1.7-1.2-2.9h1.6
			c0.1,0.8,0.3,1.4,0.7,1.9c0.4,0.4,0.9,0.6,1.5,0.6c0.7,0,1.2-0.3,1.6-0.9s0.6-1.4,0.6-2.4c0-0.9-0.2-1.7-0.6-2.3s-1-0.9-1.7-0.9
			c-0.6,0-1,0.2-1.4,0.5l-0.5,0.5L433.3,216.1z"/>
		<path fill="#B3B3B3" d="M450.2,217.2c0,2.1-0.3,3.7-0.9,4.7s-1.6,1.6-2.9,1.6c-1.3,0-2.2-0.5-2.9-1.5s-1-2.5-1-4.5V215
			c0-2.1,0.3-3.7,0.9-4.7c0.6-1,1.6-1.5,2.9-1.5c1.3,0,2.2,0.5,2.9,1.5c0.6,1,0.9,2.5,1,4.4V217.2z M448.5,214.7
			c0-1.5-0.2-2.6-0.5-3.3s-0.9-1.1-1.6-1.1c-0.7,0-1.2,0.4-1.6,1.1c-0.3,0.7-0.5,1.8-0.5,3.2v3c0,1.5,0.2,2.6,0.5,3.4
			c0.3,0.8,0.9,1.1,1.6,1.1c0.7,0,1.2-0.4,1.6-1.1s0.5-1.8,0.5-3.3V214.7z"/>
	</g>
	<g>
		<path fill="#B3B3B3" d="M702.7,301l-7,3.8l-0.6-1.1l1-6.7c0.1-1,0.2-1.8,0.1-2.4c0-0.6-0.2-1.1-0.5-1.7c-0.4-0.7-0.8-1.1-1.4-1.4
			c-0.5-0.2-1.1-0.2-1.6,0c-0.6,0.3-1,0.8-1.1,1.5c-0.1,0.6,0.1,1.4,0.5,2.2l-1.5,0.8c-0.6-1.2-0.8-2.3-0.6-3.3s0.9-1.9,2-2.5
			c1-0.5,2-0.7,2.9-0.4c0.9,0.3,1.6,1,2.2,2c0.7,1.2,0.8,3.1,0.5,5.5l-0.8,5.2l5.2-2.8L702.7,301z"/>
		<path fill="#B3B3B3" d="M709,297.6l-1.5,0.8l-5.8-10.7l-2,2.6l-0.8-1.5l3-3.9l0.2-0.1L709,297.6z"/>
		<path fill="#B3B3B3" d="M717,286.3c1,1.9,1.5,3.4,1.5,4.6s-0.6,2.1-1.8,2.8c-1.1,0.6-2.2,0.6-3.2,0c-1-0.6-2-1.7-3-3.5l-1.2-2.2
			c-1-1.8-1.5-3.4-1.4-4.6c0.1-1.2,0.7-2.1,1.8-2.7c1.1-0.6,2.2-0.6,3.2-0.1c1,0.6,2,1.7,3,3.4L717,286.3z M714.2,284.9
			c-0.7-1.3-1.4-2.2-2-2.7c-0.6-0.5-1.3-0.5-1.9-0.2c-0.6,0.3-0.9,0.9-0.9,1.7c0,0.8,0.4,1.8,1.1,3.1l1.4,2.6
			c0.7,1.3,1.4,2.2,2.1,2.7c0.7,0.5,1.3,0.6,1.9,0.2c0.6-0.3,0.9-0.9,0.9-1.7c0-0.8-0.4-1.8-1.1-3.1L714.2,284.9z"/>
	</g>
	<g>
		<path fill="#B3B3B3" d="M532,357.7l-8,0.2l0-1.3l3.9-5.5c0.6-0.8,1-1.5,1.2-2.1c0.2-0.5,0.3-1.1,0.3-1.7c0-0.8-0.2-1.4-0.6-1.8
			c-0.4-0.5-0.8-0.7-1.4-0.7c-0.7,0-1.3,0.3-1.7,0.8s-0.6,1.2-0.5,2.2l-1.7,0c0-1.3,0.3-2.4,1-3.2c0.7-0.8,1.7-1.3,2.9-1.3
			c1.1,0,2,0.3,2.7,1c0.7,0.7,1,1.6,1.1,2.8c0,1.4-0.7,3.1-2.1,5.1l-3.1,4.3l5.9-0.2L532,357.7z"/>
		<path fill="#B3B3B3" d="M541.4,351.3c0.1,2.1-0.2,3.7-0.8,4.8c-0.6,1.1-1.5,1.6-2.9,1.6c-1.3,0-2.2-0.4-2.9-1.4
			c-0.7-1-1-2.5-1.1-4.5l-0.1-2.5c-0.1-2.1,0.2-3.7,0.8-4.7c0.6-1,1.5-1.6,2.9-1.6c1.3,0,2.3,0.4,2.9,1.4c0.6,1,1,2.4,1.1,4.4
			L541.4,351.3z M539.6,348.9c0-1.5-0.2-2.6-0.6-3.3c-0.4-0.7-0.9-1.1-1.6-1c-0.7,0-1.2,0.4-1.5,1.1c-0.3,0.7-0.5,1.8-0.4,3.2l0.1,3
			c0,1.5,0.2,2.6,0.6,3.4c0.4,0.7,0.9,1.1,1.6,1.1c0.7,0,1.2-0.4,1.5-1.1c0.3-0.7,0.5-1.8,0.4-3.3L539.6,348.9z"/>
		<path fill="#B3B3B3" d="M551.4,351.1c0.1,2.1-0.2,3.7-0.8,4.8c-0.6,1.1-1.5,1.6-2.9,1.6c-1.3,0-2.2-0.4-2.9-1.4
			c-0.7-1-1-2.5-1.1-4.5l-0.1-2.5c-0.1-2.1,0.2-3.7,0.8-4.7c0.6-1,1.5-1.6,2.9-1.6c1.3,0,2.3,0.4,2.9,1.4c0.6,1,1,2.4,1.1,4.4
			L551.4,351.1z M549.6,348.6c0-1.5-0.2-2.6-0.6-3.3c-0.4-0.7-0.9-1.1-1.6-1c-0.7,0-1.2,0.4-1.5,1.1c-0.3,0.7-0.5,1.8-0.4,3.2l0.1,3
			c0,1.5,0.2,2.6,0.6,3.4c0.4,0.7,0.9,1.1,1.6,1.1c0.7,0,1.2-0.4,1.5-1.1c0.3-0.7,0.5-1.8,0.4-3.3L549.6,348.6z"/>
	</g>
	<g>
		<path fill="#B3B3B3" d="M579,372.6l-1.7,0.2l-1.6-12l-2.8,1.7l-0.2-1.6l4.2-2.5l0.3,0L579,372.6z"/>
		<path fill="#B3B3B3" d="M588.6,365.1c-0.6,1-1.3,1.5-2.2,1.6c-1,0.1-1.9-0.2-2.6-1c-0.7-0.8-1.2-1.9-1.4-3.3
			c-0.2-1.5,0-2.7,0.5-3.7c0.5-1,1.4-1.6,2.5-1.7c1.2-0.2,2.2,0.2,3,1.2c0.8,0.9,1.3,2.3,1.6,4.2l0.1,0.5c0.2,1.6,0.3,2.9,0.2,3.9
			c-0.1,1-0.4,1.8-0.7,2.5c-0.4,0.7-0.9,1.2-1.6,1.6c-0.7,0.4-1.5,0.7-2.6,0.8l-0.2-1.5l0.3,0c1.2-0.2,2.1-0.7,2.6-1.5
			C588.5,367.9,588.7,366.7,588.6,365.1z M586.4,365.2c0.4-0.1,0.8-0.3,1.2-0.7c0.4-0.4,0.6-0.9,0.7-1.5l-0.1-0.8
			c-0.2-1.2-0.5-2.1-1-2.8c-0.5-0.7-1.1-1-1.6-0.9c-0.6,0.1-1.1,0.5-1.4,1.1c-0.3,0.7-0.4,1.5-0.2,2.5c0.1,1,0.4,1.8,0.9,2.3
			C585.3,365.1,585.8,365.3,586.4,365.2z"/>
		<path fill="#B3B3B3" d="M600.4,363.6c0.3,2.1,0.2,3.7-0.3,4.8c-0.5,1.1-1.4,1.8-2.7,1.9c-1.3,0.2-2.3-0.2-3-1.1
			c-0.8-0.9-1.3-2.4-1.6-4.4l-0.3-2.4c-0.3-2.1-0.2-3.7,0.3-4.8c0.5-1.1,1.4-1.7,2.7-1.9c1.3-0.2,2.3,0.2,3,1.1
			c0.7,0.9,1.3,2.3,1.6,4.3L600.4,363.6z M598.3,361.3c-0.2-1.5-0.5-2.6-0.9-3.3c-0.4-0.7-1-1-1.7-0.9c-0.7,0.1-1.2,0.5-1.4,1.3
			c-0.2,0.7-0.3,1.8-0.1,3.2l0.4,2.9c0.2,1.5,0.5,2.6,1,3.3c0.4,0.7,1,1,1.7,0.9c0.7-0.1,1.2-0.5,1.4-1.3c0.2-0.8,0.3-1.9,0.1-3.3
			L598.3,361.3z"/>
	</g>
	<g>
		<path fill="#B3B3B3" d="M784.4,318.7l-1.3,1.2l-8.2-9l-1.3,3l-1.1-1.2l2-4.5l0.2-0.2L784.4,318.7z"/>
		<path fill="#B3B3B3" d="M786.2,302.7c0.5,0.5,0.8,1.1,0.9,1.7c0.1,0.6,0.1,1.2-0.1,1.8c0.7-0.2,1.4-0.2,2.1,0
			c0.7,0.2,1.3,0.6,1.8,1.2c0.8,0.9,1.2,1.9,1.2,2.9c0,1-0.5,1.9-1.3,2.7c-0.9,0.8-1.8,1.1-2.8,1.1c-1-0.1-1.9-0.6-2.8-1.5
			c-0.5-0.6-0.9-1.2-1-1.9c-0.2-0.7-0.1-1.4,0.1-2c-0.6,0.1-1.2,0.1-1.8-0.1c-0.6-0.2-1.1-0.6-1.6-1.1c-0.8-0.9-1.2-1.8-1.2-2.8
			c0-1,0.4-1.8,1.2-2.5c0.8-0.7,1.7-1,2.6-1C784.5,301.3,785.4,301.8,786.2,302.7z M785,303.9c-0.5-0.5-1-0.9-1.6-1s-1,0-1.4,0.4
			c-0.4,0.4-0.6,0.8-0.5,1.4c0.1,0.6,0.3,1.1,0.8,1.7c0.5,0.6,1,0.9,1.6,1c0.5,0.1,1,0,1.4-0.4c0.4-0.4,0.6-0.8,0.5-1.4
			C785.8,305,785.5,304.4,785,303.9z M789.7,308.6c-0.6-0.6-1.1-1-1.8-1.1s-1.2,0.1-1.6,0.5c-0.5,0.4-0.7,1-0.6,1.6
			c0.1,0.6,0.4,1.2,0.9,1.8c0.6,0.6,1.1,1,1.7,1.1c0.6,0.1,1.1-0.1,1.6-0.5c0.5-0.5,0.7-1,0.7-1.5
			C790.5,309.8,790.2,309.2,789.7,308.6z"/>
		<path fill="#B3B3B3" d="M796.8,299.1c1.4,1.6,2.3,2.9,2.5,4.1c0.2,1.2-0.1,2.2-1.1,3.1c-0.9,0.9-2,1.1-3.1,0.8
			c-1.1-0.3-2.4-1.2-3.8-2.7l-1.7-1.8c-1.4-1.5-2.2-2.9-2.5-4.1c-0.2-1.2,0.1-2.2,1.1-3.1c1-0.9,2-1.2,3.1-0.8
			c1.1,0.3,2.4,1.2,3.7,2.6L796.8,299.1z M793.9,298.4c-1-1.1-1.9-1.8-2.6-2.1c-0.7-0.3-1.4-0.2-1.9,0.3c-0.5,0.5-0.7,1.1-0.5,1.8
			c0.2,0.7,0.8,1.6,1.8,2.7l2,2.2c1,1.1,1.9,1.8,2.7,2.2c0.8,0.3,1.4,0.2,1.9-0.2c0.5-0.5,0.7-1.1,0.4-1.8c-0.2-0.8-0.8-1.7-1.8-2.8
			L793.9,298.4z"/>
	</g>
	<g>
		<path fill="#B3B3B3" d="M332.6,347.4l-1.5-0.9l6.2-10.4l-3.3-0.4l0.8-1.4l4.9,0.6l0.2,0.1L332.6,347.4z"/>
		<path fill="#B3B3B3" d="M350.3,342.4l-11,8.9l-1.6-0.9l10.8-8.5l-5.5-3.3l0.8-1.3l7.1,4.2L350.3,342.4z"/>
		<path fill="#B3B3B3" d="M355,353.6c-1.1,1.8-2.2,3-3.2,3.6c-1.1,0.6-2.2,0.5-3.3-0.1c-1.1-0.7-1.7-1.6-1.7-2.8
			c0-1.2,0.5-2.6,1.5-4.4l1.3-2.1c1.1-1.8,2.1-3,3.2-3.5c1.1-0.6,2.2-0.5,3.3,0.2c1.1,0.7,1.7,1.6,1.7,2.7c0,1.2-0.4,2.6-1.4,4.3
			L355,353.6z M354.8,350.6c0.8-1.3,1.2-2.3,1.3-3.1c0.1-0.8-0.2-1.4-0.8-1.7c-0.6-0.4-1.2-0.3-1.9,0.1c-0.6,0.4-1.3,1.3-2.1,2.5
			l-1.5,2.5c-0.8,1.3-1.2,2.4-1.3,3.2c-0.1,0.8,0.2,1.4,0.8,1.8c0.6,0.4,1.2,0.3,1.9-0.1c0.7-0.4,1.4-1.3,2.1-2.5L354.8,350.6z"/>
	</g>
	<g>
		<path fill="#B3B3B3" d="M520.6,415.4l-1.7-0.1l0.5-12.1l-3.1,1.2l0.1-1.7l4.6-1.8l0.3,0L520.6,415.4z"/>
		<path fill="#B3B3B3" d="M532,401.6l-0.1,1.5l-0.3,0c-1.2,0-2.1,0.3-2.8,1.1c-0.7,0.7-1.1,1.9-1.3,3.4c0.7-0.8,1.5-1.1,2.5-1.1
			c1.1,0,1.9,0.5,2.5,1.4c0.6,0.9,0.8,2,0.8,3.5c-0.1,1.5-0.5,2.7-1.2,3.5c-0.7,0.8-1.7,1.2-2.8,1.2c-1.2,0-2.1-0.6-2.7-1.7
			c-0.7-1.1-1-2.4-0.9-4.1l0-0.7c0.1-2,0.4-3.5,0.8-4.7c0.5-1.1,1.1-2,2-2.5c0.9-0.5,1.9-0.8,3.1-0.8L532,401.6z M529.8,407.9
			c-0.5,0-0.9,0.1-1.3,0.5c-0.4,0.3-0.7,0.8-0.9,1.3l0,0.7c0,1.2,0.1,2.1,0.5,2.9c0.4,0.7,0.9,1.1,1.5,1.2c0.6,0,1.2-0.3,1.6-0.8
			c0.4-0.6,0.6-1.4,0.6-2.4c0-1-0.1-1.8-0.5-2.4C530.9,408.3,530.4,408,529.8,407.9z"/>
		<path fill="#B3B3B3" d="M543.2,410.3c-0.1,2.1-0.5,3.7-1.1,4.7c-0.7,1-1.6,1.5-3,1.4c-1.3-0.1-2.2-0.6-2.8-1.6
			c-0.6-1-0.9-2.5-0.8-4.6l0.1-2.5c0.1-2.1,0.5-3.6,1.1-4.6c0.7-1,1.6-1.5,3-1.4c1.3,0.1,2.2,0.6,2.8,1.6c0.6,1,0.8,2.5,0.8,4.5
			L543.2,410.3z M541.6,407.7c0.1-1.5-0.1-2.6-0.4-3.4c-0.3-0.7-0.8-1.1-1.6-1.1c-0.7,0-1.3,0.3-1.6,1c-0.4,0.7-0.6,1.7-0.7,3.2
			l-0.1,2.9c-0.1,1.5,0.1,2.6,0.4,3.4c0.3,0.8,0.8,1.2,1.5,1.2c0.7,0,1.2-0.3,1.6-1c0.4-0.7,0.6-1.8,0.7-3.3L541.6,407.7z"/>
	</g>
	<g>
		<path fill="#B3B3B3" d="M420.2,410.7l-1.7-0.5l3.2-11.7l-3.3,0.5l0.4-1.6l4.8-0.7l0.3,0.1L420.2,410.7z"/>
		<path fill="#B3B3B3" d="M427.4,405.2l2.5-6.7l6,1.6l-0.4,1.6l-4.6-1.2l-1.3,3.7c0.7-0.2,1.3-0.3,2-0.1c1.1,0.3,1.8,0.9,2.2,1.9
			c0.4,1,0.4,2.2,0,3.6c-0.4,1.4-1,2.5-1.9,3.1c-0.9,0.6-1.9,0.8-3.1,0.5c-1-0.3-1.8-0.9-2.3-1.7c-0.5-0.9-0.6-1.9-0.4-3.1l1.6,0.4
			c-0.1,0.8-0.1,1.5,0.2,2c0.2,0.5,0.7,0.8,1.2,1c0.7,0.2,1.2,0,1.8-0.4c0.5-0.5,0.9-1.2,1.2-2.1c0.2-0.9,0.2-1.7,0-2.4
			c-0.2-0.7-0.7-1.1-1.4-1.3c-0.6-0.2-1-0.1-1.5,0.1l-0.6,0.3L427.4,405.2z"/>
		<path fill="#B3B3B3" d="M443.4,410.7c-0.6,2-1.3,3.5-2.1,4.3c-0.9,0.8-1.9,1.1-3.2,0.8c-1.2-0.3-2-1.1-2.4-2.2
			c-0.3-1.1-0.3-2.7,0.2-4.6l0.6-2.4c0.5-2,1.3-3.4,2.1-4.3c0.9-0.8,1.9-1.1,3.2-0.7c1.2,0.3,2,1.1,2.4,2.2c0.3,1.1,0.3,2.6-0.2,4.5
			L443.4,410.7z M442.3,407.8c0.4-1.5,0.5-2.6,0.4-3.4c-0.1-0.8-0.6-1.3-1.3-1.5c-0.7-0.2-1.3,0-1.8,0.6c-0.5,0.6-1,1.6-1.3,2.9
			l-0.8,2.8c-0.4,1.5-0.5,2.6-0.4,3.4c0.1,0.8,0.5,1.3,1.2,1.5c0.7,0.2,1.3,0,1.8-0.6c0.5-0.6,1-1.6,1.4-3L442.3,407.8z"/>
	</g>
	<g>
		<path fill="#B3B3B3" d="M831.7,353.2l-1.5,0.9l-6.1-10.5l-1.9,2.7l-0.8-1.4l2.9-4l0.2-0.1L831.7,353.2z"/>
		<path fill="#B3B3B3" d="M832.8,344.2l-3.1-6.5l5.4-3.1l0.8,1.5l-4.1,2.4l1.7,3.5c0.3-0.7,0.7-1.2,1.3-1.5c1-0.6,1.9-0.6,2.9-0.2
			c1,0.4,1.8,1.3,2.6,2.5c0.7,1.3,1,2.5,0.9,3.5c-0.2,1.1-0.8,1.9-1.8,2.5c-0.9,0.5-1.9,0.7-2.8,0.4c-0.9-0.3-1.8-0.9-2.5-1.9
			l1.4-0.8c0.5,0.7,1,1.1,1.5,1.2c0.5,0.2,1.1,0.1,1.6-0.2c0.6-0.3,0.9-0.9,0.9-1.6c0-0.7-0.2-1.5-0.7-2.3c-0.5-0.8-1-1.4-1.7-1.7
			c-0.7-0.3-1.3-0.3-1.9,0.1c-0.5,0.3-0.8,0.7-1,1.1l-0.2,0.6L832.8,344.2z"/>
		<path fill="#B3B3B3" d="M848,336.6c1.1,1.8,1.6,3.3,1.6,4.6c0,1.2-0.6,2.2-1.7,2.8c-1.1,0.6-2.2,0.7-3.2,0.1
			c-1-0.5-2.1-1.7-3.1-3.4l-1.2-2.1c-1.1-1.8-1.6-3.3-1.6-4.5c0-1.2,0.6-2.1,1.7-2.8c1.1-0.7,2.2-0.7,3.2-0.2c1,0.5,2.1,1.6,3.1,3.3
			L848,336.6z M845.2,335.4c-0.8-1.3-1.5-2.2-2.1-2.6c-0.7-0.5-1.3-0.5-1.9-0.1c-0.6,0.4-0.9,0.9-0.8,1.7c0.1,0.8,0.5,1.8,1.2,3
			l1.5,2.5c0.8,1.3,1.5,2.2,2.2,2.7c0.7,0.5,1.3,0.5,1.9,0.2c0.6-0.4,0.9-0.9,0.8-1.7c-0.1-0.8-0.5-1.8-1.2-3.1L845.2,335.4z"/>
	</g>
	<g>
		<path fill="#B3B3B3" d="M790.8,397.3l-1.6,0.7l-4.9-11.1l-2.2,2.4l-0.7-1.5l3.3-3.6l0.3-0.1L790.8,397.3z"/>
		<path fill="#B3B3B3" d="M799.3,388.3l1.5-0.6l0.6,1.4l-1.5,0.6l1.3,3l-1.6,0.7l-1.3-3l-5,2.2l-0.4-1l0.9-11.2l1.7-0.7L799.3,388.3
			z M794.5,390.4l3.2-1.4l-2.7-6.2L794.5,390.4z"/>
		<path fill="#B3B3B3" d="M808.8,382.7c0.9,1.9,1.2,3.5,1.1,4.7c-0.1,1.2-0.8,2.1-2,2.6c-1.2,0.5-2.2,0.4-3.2-0.2
			c-1-0.7-1.9-1.9-2.7-3.7l-1-2.3c-0.8-1.9-1.2-3.5-1-4.7c0.2-1.2,0.8-2.1,2-2.6c1.2-0.5,2.3-0.5,3.2,0.2c1,0.6,1.9,1.9,2.7,3.7
			L808.8,382.7z M806.2,381.1c-0.6-1.4-1.2-2.3-1.8-2.9c-0.6-0.5-1.2-0.6-1.9-0.3c-0.7,0.3-1,0.8-1,1.6c0,0.8,0.2,1.8,0.8,3.1
			l1.2,2.7c0.6,1.4,1.2,2.3,1.8,2.9c0.6,0.6,1.3,0.7,1.9,0.4c0.6-0.3,1-0.8,1-1.6c0-0.8-0.3-1.9-0.8-3.2L806.2,381.1z"/>
	</g>
	<g>
		<path fill="#B3B3B3" d="M1153.5,355l-1.7,0.4l-2.5-11.9l-2.7,1.9l-0.3-1.6l4-2.8l0.3-0.1L1153.5,355z"/>
		<path fill="#B3B3B3" d="M1158.7,345.7l1.1-0.2c0.7-0.1,1.2-0.5,1.5-1c0.3-0.5,0.4-1.1,0.2-1.9c-0.3-1.6-1.1-2.3-2.4-2.1
			c-0.6,0.1-1,0.4-1.3,1c-0.3,0.5-0.3,1.1-0.2,1.9l-1.7,0.4c-0.2-1.1-0.1-2.1,0.4-3c0.5-0.9,1.3-1.4,2.4-1.6
			c1.1-0.2,2.1-0.1,2.8,0.5c0.8,0.6,1.3,1.5,1.6,2.7c0.1,0.6,0.1,1.3-0.1,1.9c-0.2,0.6-0.6,1.1-1.1,1.5c1.4,0.2,2.3,1.2,2.7,2.9
			c0.3,1.3,0.1,2.3-0.4,3.2c-0.5,0.9-1.4,1.4-2.5,1.7c-1.1,0.2-2.1,0.1-2.9-0.5s-1.4-1.4-1.6-2.6l1.7-0.4c0.2,0.7,0.5,1.3,0.9,1.7
			s1,0.5,1.6,0.4c0.6-0.1,1.1-0.5,1.4-1c0.3-0.5,0.3-1.2,0.2-2.1c-0.4-1.7-1.3-2.4-2.9-2l-1,0.2L1158.7,345.7z"/>
		<path fill="#B3B3B3" d="M1174.2,344.5c0.4,2.1,0.4,3.7,0.1,4.8s-1.2,1.9-2.5,2.1c-1.3,0.3-2.3,0-3.1-0.9c-0.8-0.9-1.4-2.3-1.9-4.2
			l-0.5-2.4c-0.4-2-0.4-3.6,0-4.8c0.4-1.1,1.2-1.8,2.5-2.1c1.3-0.3,2.3,0,3.1,0.9c0.8,0.8,1.4,2.2,1.9,4.1L1174.2,344.5z
			 M1172,342.4c-0.3-1.5-0.7-2.5-1.2-3.2s-1.1-0.9-1.8-0.7c-0.7,0.1-1.1,0.6-1.3,1.4c-0.2,0.8-0.1,1.8,0.1,3.2l0.6,2.9
			c0.3,1.5,0.7,2.6,1.2,3.2c0.5,0.7,1.1,0.9,1.8,0.8c0.7-0.1,1.1-0.6,1.3-1.4c0.2-0.8,0.1-1.9-0.2-3.3L1172,342.4z"/>
	</g>
	<g>
		<path fill="#B3B3B3" d="M1162.3,168.8l-1.7-0.3l2-12l-3.2,0.8l0.3-1.6l4.7-1.2l0.3,0L1162.3,168.8z"/>
		<path fill="#B3B3B3" d="M1174.9,170.9l-7.9-1.3l0.2-1.3l4.9-4.7c0.7-0.7,1.3-1.3,1.6-1.8c0.3-0.5,0.5-1,0.6-1.6
			c0.1-0.7,0.1-1.4-0.2-1.9c-0.3-0.5-0.7-0.8-1.3-0.9c-0.7-0.1-1.3,0-1.8,0.5c-0.5,0.4-0.8,1.1-0.9,2l-1.7-0.3
			c0.2-1.3,0.7-2.3,1.6-3c0.8-0.7,1.9-0.9,3.1-0.7c1.1,0.2,2,0.7,2.5,1.5c0.5,0.8,0.7,1.8,0.5,2.9c-0.2,1.4-1.2,2.9-3,4.6l-3.8,3.6
			l5.8,1L1174.9,170.9z"/>
		<path fill="#B3B3B3" d="M1185.3,166.5c-0.3,2.1-0.9,3.6-1.7,4.5c-0.8,0.9-1.8,1.3-3.1,1.1c-1.3-0.2-2.1-0.9-2.6-2
			c-0.5-1.1-0.5-2.6-0.2-4.6l0.4-2.4c0.3-2.1,0.9-3.6,1.7-4.5c0.8-0.9,1.8-1.3,3.1-1c1.3,0.2,2.1,0.9,2.6,1.9
			c0.5,1.1,0.5,2.6,0.2,4.5L1185.3,166.5z M1184,163.7c0.2-1.5,0.3-2.6,0.1-3.4c-0.2-0.8-0.7-1.2-1.4-1.3c-0.7-0.1-1.3,0.1-1.7,0.8
			c-0.4,0.6-0.8,1.7-1,3.1l-0.5,2.9c-0.2,1.5-0.3,2.6,0,3.4s0.7,1.3,1.4,1.4c0.7,0.1,1.3-0.1,1.7-0.8c0.4-0.7,0.8-1.7,1.1-3.1
			L1184,163.7z"/>
	</g>
	<g>
		<path fill="#B3B3B3" d="M28.2,43.4l-1.7-0.3l2-12L25.3,32l0.3-1.6l4.7-1.2l0.3,0L28.2,43.4z"/>
		<path fill="#B3B3B3" d="M40.2,40.5l1.6,0.3l-0.2,1.5L40,42l-0.5,3.3L37.7,45l0.5-3.3l-5.3-0.9l0.2-1.1l6.9-8.9l1.8,0.3L40.2,40.5z
			 M35,39.7l3.4,0.6l1.1-6.7L35,39.7z"/>
		<path fill="#B3B3B3" d="M51.3,41.1c-0.3,2.1-0.9,3.6-1.7,4.5c-0.8,0.9-1.8,1.3-3.1,1.1c-1.3-0.2-2.1-0.9-2.6-2
			c-0.5-1.1-0.5-2.6-0.2-4.6l0.4-2.4c0.3-2.1,0.9-3.6,1.7-4.5c0.8-0.9,1.8-1.3,3.1-1c1.3,0.2,2.1,0.9,2.6,1.9
			c0.5,1.1,0.5,2.6,0.2,4.5L51.3,41.1z M50,38.3c0.3-1.5,0.3-2.6,0.1-3.4c-0.2-0.8-0.7-1.2-1.4-1.3c-0.7-0.1-1.3,0.1-1.7,0.8
			c-0.4,0.6-0.8,1.7-1,3.1l-0.5,2.9c-0.2,1.5-0.3,2.6,0,3.4c0.2,0.8,0.7,1.3,1.4,1.4c0.7,0.1,1.3-0.1,1.7-0.8
			c0.4-0.7,0.8-1.7,1.1-3.1L50,38.3z"/>
	</g>
	<g>
		<path fill="#B3B3B3" d="M134.8,332.8l-1.6-0.8l5.6-10.8l-3.3-0.2l0.8-1.5l4.9,0.3l0.2,0.1L134.8,332.8z"/>
		<path fill="#B3B3B3" d="M147.1,333.8l1.4,0.7l-0.7,1.3l-1.4-0.7l-1.5,2.9l-1.5-0.8l1.5-2.9l-4.8-2.5l0.5-1l9.3-6.3l1.6,0.8
			L147.1,333.8z M142.5,331.4l3.1,1.6l3.2-6L142.5,331.4z"/>
		<path fill="#B3B3B3" d="M157.4,337.7c-1,1.9-2,3.1-3,3.8c-1,0.6-2.1,0.7-3.3,0c-1.1-0.6-1.7-1.5-1.8-2.7c-0.1-1.2,0.3-2.7,1.2-4.5
			l1.1-2.2c1-1.9,2-3.1,3-3.7c1-0.6,2.1-0.6,3.3,0c1.1,0.6,1.8,1.5,1.9,2.6c0.1,1.2-0.3,2.6-1.2,4.4L157.4,337.7z M157.1,334.7
			c0.7-1.3,1.1-2.4,1.1-3.2c0-0.8-0.3-1.4-0.9-1.7c-0.6-0.3-1.3-0.3-1.9,0.2c-0.6,0.5-1.3,1.3-1.9,2.6l-1.4,2.6
			c-0.7,1.3-1.1,2.4-1.1,3.3c0,0.8,0.3,1.4,0.9,1.7c0.6,0.3,1.3,0.3,1.9-0.2c0.6-0.5,1.3-1.4,2-2.7L157.1,334.7z"/>
	</g>
	<g>
		<path fill="#B3B3B3" d="M31.2,356.1l-1.7-0.5l3.7-11.5l-3.3,0.4l0.5-1.6l4.9-0.5l0.3,0.1L31.2,356.1z"/>
		<path fill="#B3B3B3" d="M40.3,350.6l1.1,0.3c0.7,0.2,1.3,0.2,1.8-0.1c0.5-0.3,0.9-0.8,1.1-1.5c0.5-1.6,0.2-2.6-1.1-3
			c-0.6-0.2-1.1-0.1-1.6,0.2c-0.5,0.3-0.8,0.8-1.1,1.5l-1.6-0.5c0.4-1.1,1-1.9,1.9-2.4c0.9-0.5,1.9-0.6,2.9-0.2
			c1.1,0.3,1.8,1,2.2,1.8c0.4,0.9,0.4,1.9,0,3.2c-0.2,0.6-0.6,1.2-1.1,1.6c-0.5,0.4-1.1,0.7-1.7,0.8c1.1,0.9,1.4,2.2,0.9,3.8
			c-0.4,1.2-1,2.1-2,2.6c-0.9,0.5-1.9,0.6-3,0.2c-1.1-0.3-1.8-1-2.3-1.9c-0.4-0.9-0.5-1.9-0.1-3.1l1.7,0.5c-0.2,0.7-0.2,1.4,0,1.9
			c0.2,0.5,0.6,0.9,1.2,1.1c0.6,0.2,1.2,0.1,1.7-0.2c0.5-0.3,0.9-0.9,1.2-1.7c0.5-1.7,0-2.7-1.5-3.2l-1-0.3L40.3,350.6z"/>
		<path fill="#B3B3B3" d="M54.3,357.1c-0.6,2-1.4,3.4-2.3,4.2c-0.9,0.8-2,1-3.2,0.6c-1.2-0.4-2-1.2-2.3-2.3
			c-0.3-1.1-0.1-2.7,0.5-4.6l0.8-2.3c0.6-2,1.4-3.4,2.3-4.2c0.9-0.8,2-1,3.2-0.6c1.2,0.4,2,1.2,2.3,2.3c0.3,1.1,0.1,2.6-0.4,4.5
			L54.3,357.1z M53.5,354.2c0.5-1.4,0.6-2.6,0.6-3.3c-0.1-0.8-0.5-1.3-1.2-1.5c-0.7-0.2-1.3,0-1.8,0.5c-0.5,0.6-1,1.5-1.5,2.9
			l-0.9,2.8c-0.5,1.4-0.6,2.6-0.5,3.4c0.1,0.8,0.5,1.4,1.2,1.6c0.7,0.2,1.3,0,1.8-0.5c0.5-0.6,1-1.6,1.5-3L53.5,354.2z"/>
	</g>
	<g>
		<path fill="#B3B3B3" d="M333.2,95.4l-1.7,0.1l-0.6-12.1l-2.9,1.5l-0.1-1.7l4.4-2.2l0.3,0L333.2,95.4z"/>
		<path fill="#B3B3B3" d="M343.4,88.8c-0.7,0.9-1.4,1.4-2.4,1.4c-1,0.1-1.9-0.3-2.6-1.2c-0.7-0.8-1-2-1.1-3.4
			c-0.1-1.5,0.2-2.7,0.8-3.6c0.6-0.9,1.5-1.4,2.7-1.5c1.2-0.1,2.2,0.4,2.9,1.4c0.7,1,1.1,2.4,1.2,4.3l0,0.5c0.1,1.6,0,2.9-0.2,3.9
			c-0.2,1-0.5,1.8-0.9,2.4c-0.4,0.6-1,1.1-1.7,1.5c-0.7,0.3-1.6,0.5-2.7,0.6l-0.1-1.5l0.3,0c1.2-0.1,2.1-0.5,2.7-1.3
			C343.1,91.6,343.4,90.4,343.4,88.8z M341.2,88.7c0.4,0,0.8-0.2,1.2-0.6c0.4-0.4,0.7-0.8,0.9-1.4l0-0.8c-0.1-1.2-0.3-2.1-0.8-2.9
			c-0.4-0.7-1-1.1-1.5-1c-0.6,0-1.1,0.4-1.5,1c-0.3,0.6-0.5,1.4-0.4,2.4c0,1,0.3,1.8,0.7,2.4C340.1,88.5,340.6,88.8,341.2,88.7z"/>
		<path fill="#B3B3B3" d="M355.2,88.2c0.1,2.1-0.1,3.7-0.7,4.8c-0.6,1.1-1.5,1.6-2.8,1.7c-1.3,0.1-2.3-0.4-2.9-1.4
			c-0.7-1-1.1-2.5-1.2-4.5l-0.1-2.5c-0.1-2.1,0.1-3.7,0.7-4.7c0.6-1.1,1.5-1.6,2.8-1.7c1.3-0.1,2.3,0.4,2.9,1.3
			c0.7,0.9,1.1,2.4,1.2,4.4L355.2,88.2z M353.4,85.8c-0.1-1.5-0.3-2.6-0.7-3.3c-0.4-0.7-0.9-1-1.7-1c-0.7,0-1.2,0.4-1.5,1.1
			c-0.3,0.7-0.4,1.8-0.4,3.2l0.1,2.9c0.1,1.5,0.3,2.6,0.7,3.4c0.4,0.7,0.9,1.1,1.6,1.1c0.7,0,1.2-0.4,1.5-1.1
			c0.3-0.7,0.4-1.8,0.4-3.3L353.4,85.8z"/>
	</g>
	<g>
		<path fill="#B3B3B3" d="M413.3,134.8l-8,0.4l-0.1-1.3l3.8-5.6c0.6-0.9,1-1.6,1.2-2.1c0.2-0.5,0.3-1.1,0.3-1.7
			c0-0.8-0.2-1.4-0.6-1.8c-0.4-0.5-0.9-0.7-1.4-0.6c-0.7,0-1.3,0.3-1.6,0.8c-0.4,0.5-0.5,1.3-0.5,2.2l-1.7,0.1
			c-0.1-1.3,0.2-2.4,0.9-3.2c0.7-0.8,1.6-1.3,2.9-1.4c1.1-0.1,2.1,0.2,2.7,0.9c0.7,0.7,1.1,1.6,1.1,2.7c0.1,1.4-0.6,3.1-2,5.1
			l-3,4.3l5.9-0.3L413.3,134.8z"/>
		<path fill="#B3B3B3" d="M420.4,134.4l-1.7,0.1l-0.6-12.1l-2.9,1.5l-0.1-1.7l4.4-2.2l0.3,0L420.4,134.4z"/>
		<path fill="#B3B3B3" d="M432.5,127.7c0.1,2.1-0.1,3.7-0.7,4.8c-0.6,1.1-1.5,1.6-2.8,1.7c-1.3,0.1-2.3-0.4-2.9-1.4
			c-0.7-1-1.1-2.5-1.2-4.5l-0.1-2.5c-0.1-2.1,0.1-3.7,0.7-4.7c0.6-1.1,1.5-1.6,2.8-1.7c1.3-0.1,2.3,0.4,2.9,1.3
			c0.7,0.9,1.1,2.4,1.2,4.4L432.5,127.7z M430.6,125.3c-0.1-1.5-0.3-2.6-0.7-3.3c-0.4-0.7-0.9-1-1.7-1c-0.7,0-1.2,0.4-1.5,1.1
			c-0.3,0.7-0.4,1.8-0.4,3.2l0.1,2.9c0.1,1.5,0.3,2.6,0.7,3.4c0.4,0.7,0.9,1.1,1.6,1.1c0.7,0,1.2-0.4,1.5-1.1
			c0.3-0.7,0.4-1.8,0.4-3.3L430.6,125.3z"/>
	</g>
	<g>
		<path fill="#B3B3B3" d="M451.8,170.1l-8-0.7l0.1-1.3l4.5-5c0.7-0.8,1.2-1.4,1.5-1.9c0.3-0.5,0.5-1.1,0.5-1.7
			c0.1-0.8-0.1-1.4-0.4-1.9c-0.3-0.5-0.8-0.8-1.3-0.8c-0.7-0.1-1.3,0.1-1.7,0.6c-0.4,0.5-0.7,1.2-0.8,2.1l-1.7-0.2
			c0.1-1.3,0.6-2.3,1.4-3.1c0.8-0.7,1.8-1.1,3-1c1.1,0.1,2,0.5,2.6,1.3c0.6,0.8,0.8,1.7,0.7,2.9c-0.1,1.4-1,3-2.6,4.8l-3.5,3.9
			l5.9,0.5L451.8,170.1z"/>
		<path fill="#B3B3B3" d="M460.7,166.1l1.6,0.1l-0.1,1.5l-1.6-0.1l-0.3,3.3l-1.7-0.2l0.3-3.3l-5.4-0.5l0.1-1.1l6.2-9.4l1.8,0.2
			L460.7,166.1z M455.5,165.6l3.5,0.3l0.6-6.8L455.5,165.6z"/>
		<path fill="#B3B3B3" d="M471.8,165.7c-0.2,2.1-0.6,3.6-1.3,4.6c-0.7,1-1.7,1.4-3,1.3c-1.3-0.1-2.2-0.7-2.7-1.8
			c-0.5-1.1-0.7-2.6-0.6-4.6l0.2-2.5c0.2-2.1,0.6-3.6,1.3-4.6c0.7-1,1.7-1.4,3-1.3c1.3,0.1,2.2,0.7,2.7,1.7c0.5,1,0.7,2.5,0.6,4.5
			L471.8,165.7z M470.3,163.1c0.1-1.5,0.1-2.6-0.2-3.4c-0.3-0.7-0.8-1.1-1.5-1.2c-0.7-0.1-1.3,0.2-1.7,0.9c-0.4,0.7-0.7,1.7-0.8,3.1
			l-0.3,2.9c-0.1,1.5-0.1,2.6,0.2,3.4c0.3,0.8,0.8,1.2,1.5,1.3c0.7,0.1,1.3-0.2,1.7-0.9c0.4-0.7,0.7-1.8,0.8-3.2L470.3,163.1z"/>
	</g>
	<g>
		<path fill="#B3B3B3" d="M1196.4,126.1l-1.7-0.2l1.4-12l-3.1,1l0.2-1.6l4.7-1.4l0.3,0L1196.4,126.1z"/>
		<path fill="#B3B3B3" d="M1206.3,127.2l-1.7-0.2l1.4-12l-3.1,1l0.2-1.6l4.7-1.4l0.3,0L1206.3,127.2z"/>
		<path fill="#B3B3B3" d="M1219.3,122.5c-0.2,2.1-0.7,3.6-1.5,4.6c-0.7,1-1.8,1.4-3.1,1.2c-1.3-0.1-2.2-0.8-2.7-1.8
			c-0.5-1.1-0.7-2.6-0.5-4.6l0.3-2.4c0.2-2.1,0.7-3.6,1.5-4.5c0.7-1,1.8-1.4,3.1-1.2c1.3,0.1,2.2,0.7,2.7,1.8c0.5,1,0.7,2.5,0.5,4.5
			L1219.3,122.5z M1217.9,119.9c0.2-1.5,0.1-2.6-0.1-3.4c-0.3-0.8-0.7-1.2-1.5-1.3c-0.7-0.1-1.3,0.2-1.7,0.9
			c-0.4,0.7-0.7,1.7-0.9,3.1l-0.3,2.9c-0.2,1.5-0.1,2.6,0.1,3.4c0.3,0.8,0.7,1.2,1.5,1.3c0.7,0.1,1.3-0.2,1.7-0.9
			c0.4-0.7,0.7-1.7,0.9-3.2L1217.9,119.9z"/>
	</g>
	<g>
		<path fill="#B3B3B3" d="M1218.2,88.6l-1.7-0.1l1-12.1l-3.1,1.1l0.1-1.6l4.6-1.6l0.3,0L1218.2,88.6z"/>
		<path fill="#B3B3B3" d="M1231.1,83.6c-0.2,2.1-0.6,3.7-1.3,4.6s-1.7,1.4-3,1.3c-1.3-0.1-2.2-0.7-2.7-1.7c-0.5-1.1-0.7-2.6-0.6-4.6
			l0.2-2.5c0.2-2.1,0.6-3.6,1.3-4.6c0.7-1,1.7-1.4,3-1.3c1.3,0.1,2.2,0.7,2.7,1.7c0.5,1,0.7,2.5,0.6,4.5L1231.1,83.6z M1229.6,81
			c0.1-1.5,0.1-2.6-0.2-3.4c-0.3-0.7-0.8-1.1-1.5-1.2c-0.7-0.1-1.3,0.2-1.7,0.9c-0.4,0.7-0.7,1.7-0.8,3.1l-0.3,2.9
			c-0.1,1.5-0.1,2.6,0.2,3.4c0.3,0.8,0.8,1.2,1.5,1.3c0.7,0.1,1.3-0.3,1.6-0.9c0.4-0.7,0.7-1.8,0.8-3.2L1229.6,81z"/>
		<path fill="#B3B3B3" d="M1241,84.5c-0.2,2.1-0.6,3.7-1.3,4.6c-0.7,1-1.7,1.4-3,1.3c-1.3-0.1-2.2-0.7-2.7-1.7
			c-0.5-1.1-0.7-2.6-0.6-4.6l0.2-2.5c0.2-2.1,0.6-3.6,1.3-4.6c0.7-1,1.7-1.4,3-1.3c1.3,0.1,2.2,0.7,2.7,1.7c0.5,1,0.7,2.5,0.6,4.5
			L1241,84.5z M1239.5,81.8c0.1-1.5,0.1-2.6-0.2-3.4c-0.3-0.7-0.8-1.1-1.5-1.2c-0.7-0.1-1.3,0.2-1.7,0.9c-0.4,0.7-0.7,1.7-0.8,3.1
			l-0.3,2.9c-0.1,1.5-0.1,2.6,0.2,3.4c0.3,0.8,0.8,1.2,1.5,1.3c0.7,0.1,1.3-0.3,1.6-0.9c0.4-0.7,0.7-1.8,0.8-3.2L1239.5,81.8z"/>
	</g>
</g>
<g id="Layer_2">
</g>
<g id="Layer_3">
</g>
</svg>
