<svg enable-background="new 0 0 256 237" height="237" viewBox="0 0 256 237" width="256" xmlns="http://www.w3.org/2000/svg"><path d="m147.168 116.933c-2.426 0-4.824-.321-7.135-.977-6.414-1.821-11.207-6.017-13.15-11.512-2.63-7.438-1.053-14.841 4.441-20.843 10.235-11.184 31.384-15.373 43.969-12.138 4.273 1.099 7.118 3.975 8.01 8.098 2.047 9.462-6.628 22.26-16.256 30.011-5.966 4.803-13.033 7.361-19.879 7.361zm18.804-38.27c-9.91 0-22.319 3.725-28.544 10.525-3.475 3.798-4.372 7.885-2.742 12.496 1.036 2.932 3.809 5.231 7.606 6.309 6.258 1.775 13.571-.043 19.564-4.868 9.073-7.305 14.321-17.359 13.358-21.815-.187-.865-.584-1.473-1.982-1.833-2.129-.547-4.605-.814-7.26-.814zm-46.296 78.727c-1.548 0-3.056-.107-4.522-.334-7.318-1.132-12.851-5.041-16.446-11.618-7.454-13.64-5.504-45.74 8.263-68.282 9.851-16.131 23.703-24.446 40.048-24.01 27.726.718 47.757 1.237 59.169 17.067 10.343 14.346-2.23 35.023-17.445 49.591-11.437 10.947-44.767 37.584-69.067 37.586zm26.185-95.984c-16.149 0-26.203 10.855-31.827 20.063-12.142 19.881-14.305 48.579-8.063 60 2.326 4.256 5.744 6.68 10.448 7.407 1.081.168 2.208.248 3.371.248 19.82.002 50.66-23.265 63.229-35.299 13.079-12.521 23.238-29.365 16.455-38.773-8.593-11.922-24.787-12.911-52.669-13.633-.317-.008-.633-.013-.944-.013zm-49.031 139.999c-12.858 0-29.581-3.962-41.015-15.265-8.901-8.8-13.157-20.375-12.648-34.404 1.294-35.705 15.012-85.3 34.92-103.164 21.022-18.865 53.197-23.898 90.594-14.174 27.711 7.205 47.084 19.711 56.022 36.167 6.154 11.329 7.03 23.815 2.604 37.112-7.671 23.05-26.008 38.572-49.225 58.222-28.557 24.173-50.535 34.108-78.389 35.438-.928.045-1.886.068-2.863.068zm2.468-8.334.198 4.133-.198-4.133c25.834-1.234 46.425-10.623 73.438-33.488 23.095-19.549 39.781-33.673 46.72-54.52 3.672-11.036 2.991-21.315-2.025-30.549-7.705-14.186-25.758-25.588-50.833-32.108-34.625-9.004-64.096-4.625-82.983 12.324-17.452 15.661-30.964 63.85-32.176 97.303-.421 11.621 3.009 21.114 10.195 28.22 10.397 10.281 26.278 13.364 37.664 12.818zm.901 41.654c-8.567 0-17.805-.748-27.832-2.392-27.949-4.586-47.988-16.372-59.562-35.034-17.434-28.112-9.234-61.407-6.306-70.941 4.814-15.679 9.308-32.045 13.271-46.483 2.459-8.958 4.584-16.695 6.443-23.037v-.001c8.66-29.523 30.636-47.881 63.552-53.088 25.604-4.051 57.788.343 88.302 12.055 28.772 11.044 52.454 27.162 63.348 43.115 12.926 18.932 15.965 41.462 8.789 65.153-6.527 21.549-21.221 42.392-41.371 58.688-3.684 2.979-7.419 6.138-11.031 9.192-23.938 20.244-50.582 42.773-97.603 42.773zm-66.044-175.559c-1.84 6.274-3.955 13.978-6.404 22.899-3.979 14.495-8.49 30.925-13.341 46.721-2.669 8.692-10.166 39.004 5.428 64.151 10.258 16.54 28.381 27.047 53.868 31.228 9.641 1.582 18.495 2.303 26.67 2.304 43.797.002 68.278-20.705 92.082-40.836 3.646-3.083 7.415-6.272 11.17-9.309 34.554-27.944 56.281-75.642 30.951-112.739-9.981-14.617-32.216-29.592-59.478-40.056-29.199-11.207-59.834-15.439-84.044-11.607-29.952 4.74-49.097 20.635-56.902 47.244z"/></svg>