<svg enable-background="new 0 0 800 400" viewBox="0 0 800 400" xmlns="http://www.w3.org/2000/svg" xmlns:xlink="http://www.w3.org/1999/xlink"><symbol id="a" viewBox="-24.6 -21 49.2 41.9"><path d="m24.6 16.8-1.8 1.6c-2.1-2.4-4.2-4.6-6.4-6.6-.1 3-.2 6.1-.4 9.1l-2.4-.1c.2-3.7.3-7.3.5-11-2.6-2.2-5.3-4.2-8-6.1.2 5.9.1 11.6-.8 17.3l-2.5-.4c1-6.1.9-12.2.7-18.6-2.9-2-5.9-3.8-9-5.7-.1 7.7-.7 15.7-1.7 23.4l-2.4-.3c1.1-8 1.7-16.4 1.7-24.6-2.4-1.5-4.9-3.1-7.4-4.7l-1.4 29.5-2.4-.1 1.5-31c-2.3-1.6-4.7-3.3-7-5.1l1.5-1.9c1.9 1.5 3.8 2.8 5.7 4.1l.3-6.5 2.4.1-.4 8c2.4 1.6 4.8 3.2 7.2 4.7 0-3.8-.2-7.6-.4-11.3l2.4-.2c.3 4.3.4 8.6.5 13 .2 0 .4.2.6.4 2.8 1.6 5.5 3.3 8.2 5.1 0-.4 0-.8 0-1.3-.2-5.5-.4-11-.2-16.7l2.4.1c-.3 5.5-.1 11.1.2 16.4 0 1 .1 2 .1 3 2.8 1.9 5.5 3.9 8.2 6 .3-9 .4-18 .3-26.9h2.4c.1 9.6-.1 19.3-.4 28.9 2.8 2.6 5.5 5.3 8.2 8.4z" fill="#a2a2a3"/></symbol><text fill="#514361" font-family="'RobotoMono-Regular'" font-size="28" transform="translate(572.9858 258.8665)">line</text><path d="m573 252.7-68.9.3" style="opacity:.8;fill:none;stroke:#a8a8a8;stroke-width:2.0889;stroke-linecap:round;stroke-miterlimit:10;stroke-dasharray:0 3.4675"/><text fill="#514361" font-family="'RobotoMono-Regular'" font-size="31.46" transform="translate(205.2321 384.8189)">set of 5</text><g style="opacity:.8;enable-background:new;fill:none;stroke:#a8a8a8;stroke-width:1.7372;stroke-linecap:round;stroke-miterlimit:10"><path d="m207 330.6v-20.6" stroke-dasharray="0 3.0472"/><path d="m342.6 333h-133.6" stroke-dasharray="0 2.903"/><path d="m343.6 307.7v20.7" stroke-dasharray="0 3.0472"/></g><path d="m275.8 353.2v-20.2" style="fill:none;stroke:#a8a8a8;stroke-width:1.5667;stroke-linecap:round;stroke-miterlimit:10;stroke-dasharray:0 2.6008"/><use height="41.9" transform="matrix(2.7699 0 0 -2.7699 88.4595 75.4594)" width="49.2" x="-24.6" xlink:href="#a" y="-21"/><use height="41.9" transform="matrix(2.7699 0 0 -2.7699 285.6995 75.4594)" width="49.2" x="-24.6" xlink:href="#a" y="-21"/><use height="41.9" transform="matrix(2.7699 0 0 -2.7699 482.9396 75.4594)" width="49.2" x="-24.6" xlink:href="#a" y="-21"/><use height="41.9" transform="matrix(2.7699 0 0 -2.7699 88.4595 250.3628)" width="49.2" x="-24.6" xlink:href="#a" y="-21"/><use height="41.9" transform="matrix(2.7699 0 0 -2.7699 285.6995 250.3628)" width="49.2" x="-24.6" xlink:href="#a" y="-21"/><path d="m442.5 308.1-6.7.3-5.6-111.8 6.7-.3m24.7 76.6c0 10.6-.6 21-1.1 31.3l6.7.6c.8-12 1.1-43.9 1.1-43.9-.3-21.8-2-43.6-4.8-64.6l-6.7.8c3.1 22.1 4.8 45.3 4.8 67.9m31-11.7v3.6c-.6 14.8-1.1 30.5-.6 45.8l6.7-.3c-.8-15.1-.3-30.7.6-45.3 0-2.8.3-5.6.3-8.4l.3-8.7c.6-16.2.3-32.1-2.2-47.8l-6.7 1.1c2.8 16.8 2.5 33.8 2 51.4" fill="#a2a2a3"/><path d="m689.7 63.9v-37.7l-128.6.3" style="opacity:.8;fill:none;stroke:#a8a8a8;stroke-width:1.6561;stroke-linecap:round;stroke-miterlimit:10;stroke-dasharray:0 2.7491"/><text transform="translate(577.0992 91.4596)"><tspan fill="#514361" font-family="'RobotoMono-Regular'" font-size="28" x="0" y="0">strikethrough</tspan><tspan fill="#514361" font-family="'RobotoMono-Regular'" font-size="28" x="0" y="33.6">line</tspan></text></svg>