<?xml version="1.0" encoding="utf-8"?>
<!-- Generator: Adobe Illustrator 19.2.0, SVG Export Plug-In . SVG Version: 6.00 Build 0)  -->
<svg version="1.1" id="Layer_1" xmlns="http://www.w3.org/2000/svg" xmlns:xlink="http://www.w3.org/1999/xlink" x="0px" y="0px"
	 width="1200px" height="1200px" viewBox="0 0 1200 1200" enable-background="new 0 0 1200 1200" xml:space="preserve">
<rect x="150" y="461" fill="#939FD5" width="567" height="660"/>
<rect x="150" y="182" fill="#C9C9C9" width="567" height="279"/>
<rect x="721" y="182" fill="#C9C9C9" width="370" height="466"/>
<rect x="721" y="647" fill="#939FD5" width="370" height="474"/>
<g>
	<text transform="matrix(1 0 0 1 229.5685 815.1279)" fill="#37246D" font-family="'Roboto-Regular'" font-size="65px">purple (70%)</text>
</g>
<g>
	<text transform="matrix(1 0 0 1 787.2346 815.126)"><tspan x="0" y="0" fill="#37246D" font-family="'Roboto-Regular'" font-size="65px">block</tspan><tspan x="-4.57" y="78" fill="#37246D" font-family="'Roboto-Regular'" font-size="65px">(50%)</tspan></text>
</g>
<g>
	<text transform="matrix(1 0 0 1 790.8469 344.6768)"><tspan x="0" y="0" fill="#37246D" font-family="'Roboto-Regular'" font-size="65px">gray</tspan><tspan x="0" y="78" fill="#37246D" font-family="'Roboto-Regular'" font-size="65px">(50%)</tspan></text>
</g>
<g>
	<text transform="matrix(1 0 0 1 229.5685 344.6768)" fill="#37246D" font-family="'Roboto-Regular'" font-size="65px">purple (30%)</text>
</g>
<g>
	<text transform="matrix(1 0 0 1 227.2336 47.1533)"><tspan x="0" y="0" fill="#7F7F7F" font-family="'Roboto-Regular'" font-size="65px">category A</tspan><tspan x="0" y="78" fill="#7F7F7F" font-family="'Roboto-Regular'" font-size="65px">(60%)</tspan></text>
</g>
<g>
	<text transform="matrix(1 0 0 1 789.8117 47.1533)"><tspan x="0" y="0" fill="#7F7F7F" font-family="'Roboto-Regular'" font-size="65px">category B</tspan><tspan x="0" y="78" fill="#7F7F7F" font-family="'Roboto-Regular'" font-size="65px">(40%)</tspan></text>
</g>
<g>
	<g>
		<polyline fill="none" stroke="#464A90" stroke-width="16" stroke-miterlimit="10" points="149.962,44.836 149.962,1122.555 
			1157.812,1122.555 		"/>
		<g>
			<polygon fill="#464A90" points="122.039,53.006 149.962,4.649 177.886,53.006 			"/>
		</g>
		<g>
			<polygon fill="#464A90" points="1149.642,1150.478 1197.999,1122.555 1149.642,1094.631 			"/>
		</g>
	</g>
</g>
<g>
	<text transform="matrix(1 0 0 1 116.5129 1196.6396)" fill="#37246D" font-family="'Roboto-Regular'" font-size="41.9215px">0%</text>
</g>
<g>
	<text transform="matrix(1 0 0 1 306.4211 1196.6396)" fill="#37246D" font-family="'Roboto-Regular'" font-size="41.9215px">20%</text>
</g>
<g>
	<text transform="matrix(1 0 0 1 2.1852 195.1826)" fill="#37246D" font-family="'Roboto-Regular'" font-size="41.9215px">100%</text>
</g>
<g>
	<text transform="matrix(1 0 0 1 25.7248 384.4111)" fill="#37246D" font-family="'Roboto-Regular'" font-size="41.9215px">80%</text>
</g>
<g>
	<text transform="matrix(1 0 0 1 25.7248 567.8174)" fill="#37246D" font-family="'Roboto-Regular'" font-size="41.9215px">60%</text>
</g>
<g>
	<text transform="matrix(1 0 0 1 25.7248 754.7178)" fill="#37246D" font-family="'Roboto-Regular'" font-size="41.9215px">40%</text>
</g>
<g>
	<text transform="matrix(1 0 0 1 25.7248 939.8701)" fill="#37246D" font-family="'Roboto-Regular'" font-size="41.9215px">20%</text>
</g>
<g>
	<text transform="matrix(1 0 0 1 49.2648 1143.2686)" fill="#37246D" font-family="'Roboto-Regular'" font-size="41.9215px">0%</text>
</g>
<g>
	<text transform="matrix(1 0 0 1 494.6535 1196.6396)" fill="#37246D" font-family="'Roboto-Regular'" font-size="41.9215px">40%</text>
</g>
<g>
	<text transform="matrix(1 0 0 1 682.548 1196.6396)" fill="#37246D" font-family="'Roboto-Regular'" font-size="41.9215px">60%</text>
</g>
<g>
	<text transform="matrix(1 0 0 1 867.2883 1196.6396)" fill="#37246D" font-family="'Roboto-Regular'" font-size="41.9215px">80%</text>
</g>
<g>
	<text transform="matrix(1 0 0 1 1042.3741 1196.6396)" fill="#37246D" font-family="'Roboto-Regular'" font-size="41.9215px">100%</text>
</g>
<line fill="none" stroke="#464A90" stroke-width="4" stroke-miterlimit="10" x1="118" y1="1020" x2="150" y2="1020"/>
<line fill="none" stroke="#464A90" stroke-width="4" stroke-miterlimit="10" x1="118" y1="1129" x2="150" y2="1129"/>
<line fill="none" stroke="#464A90" stroke-width="4" stroke-miterlimit="10" x1="118" y1="927" x2="150" y2="927"/>
<line fill="none" stroke="#464A90" stroke-width="4" stroke-miterlimit="10" x1="118" y1="834" x2="150" y2="834"/>
<line fill="none" stroke="#464A90" stroke-width="4" stroke-miterlimit="10" x1="118" y1="741" x2="150" y2="741"/>
<line fill="none" stroke="#464A90" stroke-width="4" stroke-miterlimit="10" x1="118" y1="647" x2="150" y2="647"/>
<line fill="none" stroke="#464A90" stroke-width="4" stroke-miterlimit="10" x1="118" y1="554" x2="150" y2="554"/>
<line fill="none" stroke="#464A90" stroke-width="4" stroke-miterlimit="10" x1="118" y1="461" x2="150" y2="461"/>
<line fill="none" stroke="#464A90" stroke-width="4" stroke-miterlimit="10" x1="118" y1="368" x2="150" y2="368"/>
<line fill="none" stroke="#464A90" stroke-width="4" stroke-miterlimit="10" x1="118" y1="275" x2="150" y2="275"/>
<line fill="none" stroke="#464A90" stroke-width="4" stroke-miterlimit="10" x1="118" y1="182" x2="150" y2="182"/>
<line fill="none" stroke="#464A90" stroke-width="4" stroke-miterlimit="10" x1="253" y1="1149" x2="253" y2="1121"/>
<line fill="none" stroke="#464A90" stroke-width="4" stroke-miterlimit="10" x1="144" y1="1149" x2="144" y2="1121"/>
<line fill="none" stroke="#464A90" stroke-width="4" stroke-miterlimit="10" x1="346" y1="1151" x2="346" y2="1123"/>
<line fill="none" stroke="#464A90" stroke-width="4" stroke-miterlimit="10" x1="439" y1="1151" x2="439" y2="1123"/>
<line fill="none" stroke="#464A90" stroke-width="4" stroke-miterlimit="10" x1="532" y1="1149" x2="532" y2="1121"/>
<line fill="none" stroke="#464A90" stroke-width="4" stroke-miterlimit="10" x1="626" y1="1149" x2="626" y2="1121"/>
<line fill="none" stroke="#464A90" stroke-width="4" stroke-miterlimit="10" x1="812" y1="1149" x2="812" y2="1121"/>
<line fill="none" stroke="#464A90" stroke-width="4" stroke-miterlimit="10" x1="905" y1="1149" x2="905" y2="1121"/>
<line fill="none" stroke="#464A90" stroke-width="4" stroke-miterlimit="10" x1="998" y1="1149" x2="998" y2="1121"/>
<line fill="none" stroke="#464A90" stroke-width="4" stroke-miterlimit="10" x1="1092" y1="1149" x2="1092" y2="1121"/>
</svg>
