<?xml version="1.0" encoding="utf-8"?>
<!-- Generator: Adobe Illustrator 22.1.0, SVG Export Plug-In . SVG Version: 6.00 Build 0)  -->
<svg version="1.1" id="Layer_1" xmlns="http://www.w3.org/2000/svg" xmlns:xlink="http://www.w3.org/1999/xlink" x="0px" y="0px"
	 viewBox="0 0 1154 1178" style="enable-background:new 0 0 1154 1178;" xml:space="preserve">
<style type="text/css">
	.st0{fill:#DDDDDD;}
	.st1{fill:#C9C9C9;}
	.st2{fill:#A8A8A8;}
	.st3{fill:#909091;}
	.st4{fill:#514361;}
	.st5{font-family:'RobotoMono-Regular';}
	.st6{font-size:40px;}
	.st7{fill:none;stroke:#C6C6C6;stroke-width:6;stroke-miterlimit:10;}
	.st8{fill:#C6C6C6;}
	.st9{fill:#ADADAD;}
	.st10{font-size:30px;}
	.st11{fill:none;stroke:#C6C6C6;stroke-width:4;stroke-miterlimit:10;}
</style>
<rect x="104" y="532" class="st0" width="662" height="567"/>
<rect x="104" y="160" class="st1" width="662" height="372"/>
<rect x="766" y="160" class="st2" width="279" height="745"/>
<rect x="766" y="905" class="st3" width="279" height="194"/>
<g>
	<g>
		<text transform="matrix(1 0 0 1 398.9943 818)" class="st4 st5 st6">60%</text>
	</g>
</g>
<g>
	<g>
		<text transform="matrix(1 0 0 1 398.9943 347.5489)" class="st4 st5 st6">40%</text>
	</g>
</g>
<g>
	<g>
		<text transform="matrix(1 0 0 1 868.7915 347.5489)" class="st4 st5 st6">80%</text>
	</g>
</g>
<g>
	<g>
		<text transform="matrix(1 0 0 1 868.7915 1027.5488)" class="st4 st5 st6">20%</text>
	</g>
</g>
<g>
	<g>
		<text transform="matrix(1 0 0 1 314.9807 45.5894)" class="st4 st5 st6">category A</text>
		<text transform="matrix(1 0 0 1 398.9943 123.5894)" class="st4 st5 st6">70%</text>
	</g>
</g>
<g>
	<g>
		<text transform="matrix(1 0 0 1 784.7778 39.5894)" class="st4 st5 st6">category B</text>
		<text transform="matrix(1 0 0 1 868.7915 117.5894)" class="st4 st5 st6">30%</text>
	</g>
</g>
<g>
	<g>
		<g>
			<g>
				<polyline class="st7" points="104,44.4 104,1100.6 1108.3,1100.6 				"/>
				<g>
					<polygon class="st8" points="89,48.7 104,22.8 118.9,48.7 					"/>
				</g>
				<g>
					<polygon class="st8" points="1103.9,1115.5 1129.8,1100.6 1103.9,1085.6 					"/>
				</g>
			</g>
		</g>
	</g>
</g>
<g>
	<g>
		<text transform="matrix(1 0 0 1 281.4182 1164.6396)" class="st9 st5 st10">20</text>
	</g>
</g>
<g>
	<g>
		<text transform="matrix(1 0 0 1 1.256 173.1826)" class="st9 st5 st10">100</text>
	</g>
</g>
<g>
	<g>
		<text transform="matrix(1 0 0 1 37.2619 45.5894)" class="st9 st5 st10">%</text>
	</g>
</g>
<g>
	<g>
		<text transform="matrix(1 0 0 1 19.259 362.4111)" class="st9 st5 st10">80</text>
	</g>
</g>
<g>
	<g>
		<text transform="matrix(1 0 0 1 19.259 545.8174)" class="st9 st5 st10">60</text>
	</g>
</g>
<g>
	<g>
		<text transform="matrix(1 0 0 1 19.259 732.7178)" class="st9 st5 st10">40</text>
	</g>
</g>
<g>
	<g>
		<text transform="matrix(1 0 0 1 19.259 917.8701)" class="st9 st5 st10">20</text>
	</g>
</g>
<g>
	<g>
		<text transform="matrix(1 0 0 1 37.2619 1154.2686)" class="st9 st5 st10">0</text>
	</g>
</g>
<g>
	<g>
		<text transform="matrix(1 0 0 1 465.6506 1164.6396)" class="st9 st5 st10">40</text>
	</g>
</g>
<g>
	<g>
		<text transform="matrix(1 0 0 1 653.545 1164.6396)" class="st9 st5 st10">60</text>
	</g>
</g>
<g>
	<g>
		<text transform="matrix(1 0 0 1 841.2854 1164.6396)" class="st9 st5 st10">80</text>
	</g>
</g>
<g>
	<g>
		<text transform="matrix(1 0 0 1 1018.3698 1164.6396)" class="st9 st5 st10">100</text>
	</g>
</g>
<g>
	<g>
		<text transform="matrix(1 0 0 1 1120.8107 1164.6396)" class="st9 st5 st10">%</text>
	</g>
</g>
<line class="st11" x1="83" y1="998" x2="104" y2="998"/>
<line class="st11" x1="83" y1="905" x2="104" y2="905"/>
<line class="st11" x1="83" y1="812" x2="104" y2="812"/>
<line class="st11" x1="83" y1="719" x2="104" y2="719"/>
<line class="st11" x1="83" y1="625" x2="104" y2="625"/>
<line class="st11" x1="83" y1="532" x2="104" y2="532"/>
<line class="st11" x1="83" y1="439" x2="104" y2="439"/>
<line class="st11" x1="83" y1="346" x2="104" y2="346"/>
<line class="st11" x1="83" y1="253" x2="104" y2="253"/>
<line class="st11" x1="83" y1="160" x2="104" y2="160"/>
<line class="st11" x1="207" y1="1114" x2="207" y2="1099"/>
<line class="st11" x1="300" y1="1116" x2="300" y2="1101"/>
<line class="st11" x1="393" y1="1116" x2="393" y2="1101"/>
<line class="st11" x1="486" y1="1114" x2="486" y2="1099"/>
<line class="st11" x1="580" y1="1114" x2="580" y2="1099"/>
<line class="st11" x1="673" y1="1114" x2="673" y2="1099"/>
<line class="st11" x1="766" y1="1114" x2="766" y2="1099"/>
<line class="st11" x1="859" y1="1114" x2="859" y2="1099"/>
<line class="st11" x1="952" y1="1114" x2="952" y2="1099"/>
<line class="st11" x1="1046" y1="1114" x2="1046" y2="1099"/>
</svg>
