<svg enable-background="new 0 0 1268 418" viewBox="0 0 1268 418" xmlns="http://www.w3.org/2000/svg"><path d="m54.6 136.6h397.6v173.7h-397.6z" fill="#c6bfcf"/><path d="m454.2 102.3h331.9v136.9h-331.9z" fill="#c6bfcf"/><path d="m788 118.9h261v155h-261z" fill="#c6bfcf"/><path d="m1051 196.6h199.5v119.5h-199.5z" fill="#c6bfcf"/><path d="m54.6 35h397.6v101.6h-397.6z" fill="#fedeb8"/><path d="m454.2 35h331.9v67.3h-331.9z" fill="#fedeb8"/><path d="m788 35h261v83.9h-261z" fill="#fedeb8"/><path d="m1051 35h199.5v161.6h-199.5z" fill="#fedeb8"/><path d="m54.6 310.3h397.6v68.6h-397.6z" fill="#a79fb4"/><path d="m788 273.9h261v105.1h-261z" fill="#a79fb4"/><path d="m1051 316.1h199.5v62.8h-199.5z" fill="#a79fb4"/><path d="m786 239.3h-331.8v139.1.6h331.8z" fill="#a79fb4"/><text fill="#d1cdc9" font-family="'RobotoCondensed-Regular'" font-size="26" transform="translate(247.1772 20.7949)">A</text><text fill="#d1cdc9" font-family="'RobotoCondensed-Regular'" font-size="26" transform="translate(614.9771 20.7949)">B</text><text fill="#d1cdc9" font-family="'RobotoCondensed-Regular'" font-size="26" transform="translate(911.9185 20.7949)">C</text><text fill="#d1cdc9" font-family="'RobotoCondensed-Regular'" font-size="26" transform="translate(1143.3459 20.7949)">D</text><text transform="translate(.039551 44.0786)"><tspan fill="#d1cdc9" font-family="'RobotoCondensed-Regular'" font-size="26" x="0" y="0">100</tspan><tspan fill="#d1cdc9" font-family="'RobotoCondensed-Regular'" font-size="26" x="12.8" y="69">80</tspan><tspan fill="#d1cdc9" font-family="'RobotoCondensed-Regular'" font-size="26" x="12.8" y="138">60</tspan><tspan fill="#d1cdc9" font-family="'RobotoCondensed-Regular'" font-size="26" x="12.8" y="207">40</tspan><tspan fill="#d1cdc9" font-family="'RobotoCondensed-Regular'" font-size="26" x="12.8" y="276">20</tspan></text><path d="m55.1 35.8v343.2h1195.4" fill="none" stroke="#c4c4c4" stroke-miterlimit="10"/><path d="m45.5 35.8h10" fill="none" stroke="#c4c4c4" stroke-miterlimit="10"/><path d="m45.5 310.3h10" fill="none" stroke="#c4c4c4" stroke-miterlimit="10"/><path d="m45.5 241.7h10" fill="none" stroke="#c4c4c4" stroke-miterlimit="10"/><path d="m45.5 173.1h10" fill="none" stroke="#c4c4c4" stroke-miterlimit="10"/><path d="m45.5 104.4h10" fill="none" stroke="#c4c4c4" stroke-miterlimit="10"/><text fill="#d1cdc9" font-family="'RobotoCondensed-Regular'" font-size="26" transform="translate(174.2397 415.6079)">20</text><text fill="#d1cdc9" font-family="'RobotoCondensed-Regular'" font-size="26" transform="translate(440.4475 415.6079)">40</text><text fill="#d1cdc9" font-family="'RobotoCondensed-Regular'" font-size="26" transform="translate(706.0889 415.6079)">60</text><text fill="#d1cdc9" font-family="'RobotoCondensed-Regular'" font-size="26" transform="translate(971.0889 415.6079)">80</text><text fill="#d1cdc9" font-family="'RobotoCondensed-Regular'" font-size="26" transform="translate(1229.0056 415.6079)">100</text><g fill="none" stroke="#c4c4c4" stroke-miterlimit="10"><path d="m453.3 388.4v-9.4"/><path d="m718.8 388.4v-9.4"/><path d="m984.3 388.4v-9.4"/><path d="m1249.9 388.4v-9.4"/><path d="m187.7 388.4v-9.4"/><path d="m320.5 388.4v-9.4"/><path d="m586 388.4v-9.4"/><path d="m851.6 388.4v-9.4"/><path d="m1117.1 388.4v-9.4"/></g></svg>