<?xml version="1.0" encoding="utf-8"?>
<!-- Generator: Adobe Illustrator 19.2.0, SVG Export Plug-In . SVG Version: 6.00 Build 0)  -->
<svg version="1.1" id="Layer_1" xmlns="http://www.w3.org/2000/svg" xmlns:xlink="http://www.w3.org/1999/xlink" x="0px" y="0px"
	 width="1268px" height="558px" viewBox="0 0 1268 558" enable-background="new 0 0 1268 558" xml:space="preserve">
<g>
	<text transform="matrix(1 0 0 1 2.6714 42.8103)"><tspan x="0" y="0" fill="#B3B3B3" font-family="'RobotoCondensed-Regular'" font-size="26px">100%</tspan><tspan x="29.288" y="98" fill="#B3B3B3" font-family="'RobotoCondensed-Regular'" font-size="26px">80</tspan><tspan x="29.288" y="196" fill="#B3B3B3" font-family="'RobotoCondensed-Regular'" font-size="26px">60</tspan><tspan x="29.288" y="294" fill="#B3B3B3" font-family="'RobotoCondensed-Regular'" font-size="26px">40</tspan><tspan x="29.288" y="392" fill="#B3B3B3" font-family="'RobotoCondensed-Regular'" font-size="26px">20</tspan><tspan x="42.123" y="490" fill="#B3B3B3" font-family="'RobotoCondensed-Regular'" font-size="26px">0</tspan></text>
</g>
<g>
	<rect x="71" y="177" fill="#C8D0E6" stroke="#FFFFFF" stroke-width="2" stroke-miterlimit="10" width="408" height="252"/>
	<rect x="71" y="429" fill="#A79FB4" stroke="#FFFFFF" stroke-width="2" stroke-miterlimit="10" width="408" height="96"/>
	<rect x="71" y="33" fill="#FFDFBD" stroke="#FFFFFF" stroke-width="2" stroke-miterlimit="10" width="408" height="144"/>
	
		<rect x="479" y="130" fill="#C8D0E6" stroke="#FFFFFF" stroke-width="2" stroke-miterlimit="10" width="328.733" height="195.547"/>
	
		<rect x="479" y="325.547" fill="#A79FB4" stroke="#FFFFFF" stroke-width="2" stroke-miterlimit="10" width="328.733" height="199.453"/>
	<rect x="479" y="33" fill="#FFDFBD" stroke="#FFFFFF" stroke-width="2" stroke-miterlimit="10" width="328.733" height="97"/>
	
		<rect x="807.733" y="151.658" transform="matrix(-1 -1.224647e-16 1.224647e-16 -1 1834.1227 524.658)" fill="#C8D0E6" stroke="#FFFFFF" stroke-width="2" stroke-miterlimit="10" width="218.656" height="221.342"/>
	
		<rect x="807.733" y="373" transform="matrix(-1 -1.224647e-16 1.224647e-16 -1 1834.1227 898)" fill="#A79FB4" stroke="#FFFFFF" stroke-width="2" stroke-miterlimit="10" width="218.656" height="152"/>
	
		<rect x="807.733" y="33" transform="matrix(-1 -1.224647e-16 1.224647e-16 -1 1834.1227 184.6581)" fill="#FFDFBD" stroke="#FFFFFF" stroke-width="2" stroke-miterlimit="10" width="218.656" height="118.659"/>
	
		<rect x="1026.389" y="191.211" fill="#C8D0E6" stroke="#FFFFFF" stroke-width="2" stroke-miterlimit="10" width="221.611" height="268.671"/>
	
		<rect x="1026.389" y="459.882" fill="#A79FB4" stroke="#FFFFFF" stroke-width="2" stroke-miterlimit="10" width="221.611" height="65.118"/>
	
		<rect x="1026.389" y="33" fill="#FFDFBD" stroke="#FFFFFF" stroke-width="2" stroke-miterlimit="10" width="221.611" height="158.211"/>
</g>
<g>
	<text transform="matrix(1 0 0 1 138.3301 554.0004)" fill="#B3B3B3" font-family="'RobotoCondensed-Regular'" font-size="26px">20</text>
</g>
<g>
	<text transform="matrix(1 0 0 1 247.9747 554.0004)" fill="#B3B3B3" font-family="'RobotoCondensed-Regular'" font-size="26px">40</text>
</g>
<g>
	<text transform="matrix(1 0 0 1 250.1125 24.0005)" fill="#B3B3B3" font-family="'RobotoCondensed-Regular'" font-size="26px">India</text>
</g>
<g>
	<text transform="matrix(1 0 0 1 612.2161 24.0005)" fill="#B3B3B3" font-family="'RobotoCondensed-Regular'" font-size="26px">China</text>
</g>
<g>
	<text transform="matrix(1 0 0 1 887.1349 24.0005)" fill="#B3B3B3" font-family="'RobotoCondensed-Regular'" font-size="26px">Brazil</text>
</g>
<g>
	<text transform="matrix(1 0 0 1 1108.594 24.0005)" fill="#B3B3B3" font-family="'RobotoCondensed-Regular'" font-size="26px">Other</text>
</g>
<g>
	<text transform="matrix(1 0 0 1 357.6183 554.0004)" fill="#B3B3B3" font-family="'RobotoCondensed-Regular'" font-size="26px">60</text>
</g>
<g>
	<text transform="matrix(1 0 0 1 467.2628 554.0004)" fill="#B3B3B3" font-family="'RobotoCondensed-Regular'" font-size="26px">80</text>
</g>
<g>
	<text transform="matrix(1 0 0 1 570.4899 554.0004)" fill="#B3B3B3" font-family="'RobotoCondensed-Regular'" font-size="26px">100</text>
</g>
<g>
	<text transform="matrix(1 0 0 1 680.1345 554.0004)" fill="#B3B3B3" font-family="'RobotoCondensed-Regular'" font-size="26px">120</text>
</g>
<g>
	<text transform="matrix(1 0 0 1 789.7786 554.0004)" fill="#B3B3B3" font-family="'RobotoCondensed-Regular'" font-size="26px">140</text>
</g>
<g>
	<text transform="matrix(1 0 0 1 899.4227 554.0004)" fill="#B3B3B3" font-family="'RobotoCondensed-Regular'" font-size="26px">160</text>
</g>
<g>
	<text transform="matrix(1 0 0 1 1009.0673 554.0004)" fill="#B3B3B3" font-family="'RobotoCondensed-Regular'" font-size="26px">180</text>
</g>
<g>
	<text transform="matrix(1 0 0 1 1118.7119 554.0004)" fill="#B3B3B3" font-family="'RobotoCondensed-Regular'" font-size="26px">200</text>
</g>
<g>
	<text transform="matrix(1 0 0 1 1216.521 554.0004)" fill="#B3B3B3" font-family="'RobotoCondensed-Regular'" font-size="26px">220$</text>
</g>
</svg>
