<?xml version="1.0" encoding="utf-8"?>
<!-- Generator: Adobe Illustrator 22.1.0, SVG Export Plug-In . SVG Version: 6.00 Build 0)  -->
<svg version="1.1" id="Layer_1" xmlns="http://www.w3.org/2000/svg" xmlns:xlink="http://www.w3.org/1999/xlink" x="0px" y="0px"
	 viewBox="0 0 1020.1 1000.4" style="enable-background:new 0 0 1020.1 1000.4;" xml:space="preserve">
<style type="text/css">
	.st0{fill:none;stroke:#F7F7F7;stroke-width:2;stroke-miterlimit:10;}
	.st1{fill:none;stroke:#E8E8E8;stroke-width:5.7479;stroke-miterlimit:10;}
	.st2{opacity:0.74;fill:#B6B6B7;enable-background:new    ;}
	.st3{opacity:0.74;fill:#959596;enable-background:new    ;}
	.st4{opacity:0.74;fill:#7A797A;enable-background:new    ;}
	.st5{opacity:0.74;fill:#686868;enable-background:new    ;}
	.st6{fill:#514361;}
	.st7{font-family:'RobotoMono-Regular';}
	.st8{font-size:39px;}
	.st9{font-family:'Roboto-Italic';}
	.st10{font-size:26.6846px;}
	.st11{fill:none;stroke:#AFAFAF;stroke-width:4;stroke-linecap:round;stroke-miterlimit:10;stroke-dasharray:0,9.9536;}
</style>
<path class="st0" d="M779.9,589.5C734,669,648,722.5,549.6,722.5S365.2,669,319.3,589.4l76.6-44.2c30.6,53.1,88,88.8,153.7,88.8
	s123.1-35.7,153.7-88.8L779.9,589.5z"/>
<path class="st0" d="M726.9,456.9c0,32.2-8.6,62.4-23.5,88.4l-76.5-44.2c7.5-13,11.8-28.2,11.8-44.2c0-49.2-39.9-89.1-89-89.1v-88.2
	C647.6,279.5,726.9,359,726.9,456.9z"/>
<circle class="st0" cx="549.7" cy="456.8" r="438.9"/>
<path class="st1" d="M243.9,633c-30-51.8-47.1-112-47.1-176.2c0-194.9,158.3-353.4,353.1-353.4"/>
<path class="st0" d="M549.7,104.1c194.9,0,352.8,158,352.8,352.8s-158,352.8-352.8,352.8c-130.7,0-244.8-71.1-305.7-176.6"/>
<path class="st0" d="M549.7,191.2c146.7,0,265.6,118.9,265.6,265.6c0,48.3-12.9,93.6-35.4,132.6"/>
<path class="st1" d="M319.4,589.5c-22.6-39-35.4-84.3-35.4-132.6c0-146.7,118.9-265.6,265.6-265.6"/>
<path class="st1" d="M703.3,545.3c-30.6,53.1-88,88.9-153.7,88.9s-123-35.8-153.6-88.9"/>
<path class="st0" d="M549.7,279.6c97.9,0,177.3,79.4,177.3,177.3c0,32.2-8.6,62.4-23.6,88.4"/>
<path class="st1" d="M396,545.3c-15-26-23.6-56.2-23.6-88.4c0-97.9,79.4-177.3,177.3-177.3"/>
<path class="st1" d="M626.9,501.1c-15.3,26.8-44.2,44.8-77.2,44.8s-61.9-18-77.3-44.7"/>
<path class="st1" d="M549.7,367.8c49.2,0,89,39.9,89,89c0,16.1-4.3,31.2-11.8,44.3"/>
<path class="st1" d="M472.4,501.1c-7.5-13-11.8-28.2-11.8-44.3c0-49.2,39.9-89,89-89"/>
<polyline class="st0" points="169.1,675.8 549.7,456.5 930.1,675.8 "/>
<path class="st2" d="M549.7,104.1v87.1C402.9,191.2,284,310.1,284,456.8c0,48.3,12.9,93.6,35.4,132.6L244,633
	c-30-51.8-47.1-112-47.1-176.2C196.8,262,354.8,104.1,549.7,104.1z"/>
<path class="st3" d="M549.7,456.5L396,545.2c30.6,53.1,88,88.8,153.7,88.8s123.1-35.7,153.7-88.8L549.7,456.5z"/>
<path class="st4" d="M283.9,456.9c0,48.3,12.9,93.6,35.4,132.6l230.3-133V191.2C402.9,191.2,283.9,310.1,283.9,456.9z"/>
<path class="st5" d="M638.7,456.9c0,16.1-4.3,31.2-11.8,44.2l-77.2-44.6v-88.7C598.8,367.8,638.7,407.7,638.7,456.9z"/>
<g>
	<g>
		<text transform="matrix(1 0 0 1 466.4594 950.8005)" class="st6 st7 st8">segment</text>
	</g>
</g>
<text transform="matrix(1 0 0 1 352.6491 985.6091)" class="st6 st9 st10">value is shown as area, not radius</text>
<g>
	<g>
		<text transform="matrix(1 0 0 1 4.9734 895.6846)" class="st6 st7 st8">stacked segment</text>
	</g>
</g>
<line class="st11" x1="549.6" y1="913.2" x2="549.6" y2="590.4"/>
<line class="st11" x1="180.5" y1="851.9" x2="244" y2="573"/>
</svg>
