<?xml version="1.0" encoding="utf-8"?>
<!-- Generator: Adobe Illustrator 22.1.0, SVG Export Plug-In . SVG Version: 6.00 Build 0)  -->
<svg version="1.1" id="Layer_1" xmlns="http://www.w3.org/2000/svg" xmlns:xlink="http://www.w3.org/1999/xlink" x="0px" y="0px"
	 viewBox="0 0 1268 418" style="enable-background:new 0 0 1268 418;" xml:space="preserve">
<style type="text/css">
	.st0{fill:#DFDAE3;}
	.st1{fill:#C3B2D1;}
	.st2{fill:#B6ACCC;}
	.st3{fill:#6C5F82;}
	.st4{fill:#DEDAEA;}
	.st5{fill:#8986B2;}
</style>
<g id="Layer_1_1_">
	<g>
		<polygon class="st0" points="988.9,367.7 988.9,367.7 1022.1,310.2 1022.1,310.2 		"/>
		<polygon class="st0" points="907.2,286.2 907.2,286.2 962.1,254.5 		"/>
		<polygon class="st0" points="1148.9,251.3 1160.2,271 1160.2,271 1182,308.8 1182,308.8 		"/>
		<polygon class="st0" points="1239.5,94.3 1239.5,94.3 1182,127.5 1182,127.5 		"/>
		<polygon class="st1" points="1044.7,271 1022.8,308.8 1022.8,308.8 		"/>
		<path class="st1" d="M984.4,241.6l-18.2,10.6L984.4,241.6z"/>
		<polygon class="st1" points="1022.8,308.8 1022.8,308.8 1044.7,271 1044.7,271 		"/>
		<polygon class="st1" points="966.2,252.1 966.2,252.1 984.4,241.6 		"/>
		<polygon class="st1" points="1003.2,228.9 1003.2,228.9 1042.5,206.2 985,239.4 985,239.4 		"/>
		<polygon class="st1" points="1003.2,228.9 1003.2,228.9 985,239.4 985,239.4 		"/>
		<polygon class="st1" points="985,239.4 985,239.4 1003.2,228.9 1003.2,228.9 		"/>
		<polygon class="st1" points="1162.4,206.2 1182,217.6 1182,217.6 1200.3,228.1 1200.3,228.1 		"/>
		<polygon class="st1" points="1137.5,231.7 1146.5,247.1 1148.1,250 1148.1,250 		"/>
		<path class="st1" d="M1137.5,231.7l8.9,15.4L1137.5,231.7z"/>
		<polygon class="st1" points="1145.5,146.7 1179.3,127.2 1142,148.7 1142,148.7 		"/>
		<polygon class="st1" points="1145.5,146.7 1173,131 1179.9,126.9 1179.9,126.9 1179.3,127.2 		"/>
		<polygon class="st1" points="1044.7,138.3 1044.7,138.3 1059,146.5 1062.9,148.7 1062.9,148.7 		"/>
		<polygon class="st1" points="1078.7,133 1068.2,114.7 1068.2,114.7 		"/>
		<g>
			<path class="st2" d="M1004.1,230.3l-19.6,11.3l0,0l-18.2,10.6c14.2,24.5,32.3,42.4,56.7,56.7l21.9-37.9
				C1027.2,260.8,1014.3,247.7,1004.1,230.3z"/>
			<path class="st2" d="M1042.5,206.2c-5.9-10.4-8.7-20.9-8.8-32.9l0,0h-66.4c0.1,24.1,5.7,45.1,17.7,66.1L1042.5,206.2z"/>
			<path class="st2" d="M1046.1,271.7L1046.1,271.7l-10.6,18.2c20.9,12,42,17.6,66.1,17.7v-21v-22.7c-16.2-0.1-30.2-3.9-44.3-11.8
				L1046.1,271.7z"/>
			<path class="st2" d="M1103.3,264v21c19.9-0.1,37.4-4.8,54.7-14.6l-21.9-37.9c-10.4,5.9-20.9,8.7-32.9,8.8V264H1103.3z"/>
			<path class="st2" d="M1171.3,173.3c-0.1,12-2.9,22.5-8.8,32.9l37.9,21.9c9.9-17.3,14.5-34.8,14.6-54.7h-21h-22.7V173.3z"/>
			<path class="st2" d="M1126.2,212.1l11.3,19.6l10.6,18.2c13.7-8,23.8-18.1,31.8-31.8l-37.9-21.9
				C1138,203,1132.9,208.1,1126.2,212.1z"/>
			<path class="st2" d="M1162.4,138.8c5.9,10.4,8.7,20.9,8.8,32.9l0,0h21c-0.1-15.8-3.9-29.6-11.6-43.4l-4.4,2.6l-8.9,5.2
				L1162.4,138.8z"/>
			<path class="st2" d="M1126.2,133L1126.2,133L1126.2,133c6.7,4,11.7,9,15.7,15.8l37.4-21.5l0.5-0.3c-8-13.7-18.1-23.8-31.8-31.8
				l-10.6,18.2l0,0L1126.2,133z"/>
			<path class="st2" d="M1062.9,148.7c4-6.7,9-11.7,15.8-15.8l-10.6-18.2c-10,5.9-17.6,13.5-23.5,23.5L1062.9,148.7L1062.9,148.7
				L1062.9,148.7z"/>
			<path class="st2" d="M1135.4,113.9c-10.1-5.7-20.5-8.5-32.1-8.6v21.1c7.9,0.1,14.8,1.9,21.5,5.8L1135.4,113.9z"/>
		</g>
		<polygon class="st1" points="1124.8,132.1 1128.8,125.1 1129.8,123.5 1129.8,123.5 1135.4,113.9 1135.4,113.9 		"/>
		<polygon class="st1" points="1135.4,113.9 1135.4,113.9 1129.8,123.5 		"/>
		<polygon class="st1" points="1129.8,123.5 1135.4,113.9 1135.4,113.9 		"/>
		<path class="st1" d="M1129.8,123.5L1129.8,123.5L1129.8,123.5z"/>
		<polygon class="st3" points="1100.3,174.7 1045.6,269.6 1045.6,269.6 1070.1,227 		"/>
		<polygon class="st3" points="1051.3,203 1046.8,205.6 1100.3,174.7 1051.6,202.8 		"/>
		<polygon class="st3" points="1051.8,202.7 1051.6,202.8 1100.3,174.7 1068.3,193.2 		"/>
		<polygon class="st3" points="1005.4,229.5 1005.4,229.5 1039.3,209.9 		"/>
		<polygon class="st3" points="1043.3,207.6 1043.3,207.6 1005.4,229.5 1005.4,229.5 1039.3,209.9 		"/>
		<path class="st3" d="M1043.3,207.6l-37.9,21.9L1043.3,207.6z"/>
		<polygon class="st3" points="1043.3,207.6 1005.4,229.5 1005.4,229.5 		"/>
		<polygon class="st3" points="1100.3,174.7 1070.1,227 1071.5,224.5 		"/>
		<polygon class="st0" points="1062.1,150.1 1062.1,150.1 1062.1,150.1 1043.8,139.6 1043.8,139.6 		"/>
		<polygon class="st0" points="1065,151.9 1063.5,151 1063.5,151 1099.4,171.7 1099.4,171.7 		"/>
		<polygon class="st0" points="1062.1,150.1 1062.1,150.1 1062.8,150.6 1062.8,150.6 		"/>
		<g>
			<path class="st4" d="M964.8,252.9l-57.5,33.2c20.5,35.2,46.4,61.1,81.5,81.5l33.2-57.5C997.4,295.9,979.2,277.6,964.8,252.9z"/>
			<path class="st4" d="M1103.3,353.1c32.4-0.1,60.6-7.6,88.8-23.8l-33.2-57.5c-17.6,10-35.3,14.8-55.6,14.9L1103.3,353.1
				L1103.3,353.1z"/>
			<path class="st4" d="M1148.9,251.3l33.2,57.5c24.5-14.2,42.4-32.3,56.7-56.7l-57.5-33.2C1173.1,232.9,1162.7,243.2,1148.9,251.3z
				"/>
			<path class="st4" d="M1182,127.5c8,14,11.7,28.1,11.8,44.3h66.5c-0.1-28.2-6.7-52.9-20.8-77.4L1182,127.5L1182,127.5z"/>
			<path class="st4" d="M1136.1,112.5l44.5-77.1c-24.6-14-49.2-20.6-77.4-20.8v89.1l0,0C1115.2,103.8,1125.7,106.7,1136.1,112.5z"/>
			<path class="st4" d="M1067.4,113.4L1067.4,113.4L1067.4,113.4l-21.9-37.9c-17.2,10.1-30.1,22.8-40.1,40.1l37.9,21.9
				C1049.4,127.1,1057.1,119.4,1067.4,113.4z"/>
			<path class="st5" d="M1058.3,94.3l43.4,75.2V82.7C1085.8,82.8,1071.9,86.5,1058.3,94.3z"/>
			<path class="st2" d="M1043.8,139.6c-5.7,10.1-8.5,20.5-8.6,32.1h64.2L1043.8,139.6z"/>
		</g>
		<polygon class="st0" points="1063.5,151 1062.8,150.6 1062.8,150.6 		"/>
		<polygon class="st3" points="1099.5,173.3 1099.4,173.3 1043.8,205.4 1043.8,205.4 		"/>
		<polygon class="st3" points="1099.5,173.3 1043.8,205.4 1043.8,205.4 		"/>
		<path class="st3" d="M1043.8,205.4l55.7-32.1L1043.8,205.4z"/>
		<polygon class="st3" points="1135.4,231.1 1135.4,231.1 1103.3,175.5 		"/>
		<polygon class="st3" points="1135.4,231.1 1135.4,231.1 1132.5,226.2 1103.3,175.5 		"/>
		<polygon class="st3" points="1161,205.4 1161,205.4 1105.4,173.3 1105.4,173.3 		"/>
		<polygon class="st3" points="1105.4,173.3 1130.5,187.8 1161,205.4 1161,205.4 		"/>
		<polygon class="st3" points="1142.8,194.9 1161,205.4 1161,205.4 1130.5,187.8 		"/>
		<polygon class="st3" points="1148.6,146.8 1161,139.6 1161,139.6 		"/>
		<polygon class="st3" points="1142.8,150.1 1142.8,150.1 1161,139.6 1148.6,146.8 		"/>
		<path class="st3" d="M1079.5,134.4l20.8,36L1079.5,134.4z"/>
		<polygon class="st3" points="1079.5,134.4 1079.5,134.4 1100.3,170.4 1100.3,170.4 		"/>
		<path class="st3" d="M1125.4,210.7l-20.7-36L1125.4,210.7z"/>
		<polygon class="st3" points="1125.4,210.7 1125.4,210.7 1104.7,174.7 1104.7,174.7 		"/>
		<polygon class="st3" points="1132.7,154.1 1138.8,150.6 1140.6,149.6 1140.6,149.6 1104.7,170.4 		"/>
		<polygon class="st3" points="1138.8,150.6 1132.7,154.1 1138.3,150.9 		"/>
		<g>
			<path class="st5" d="M1046.8,205.6l-3.6,2l-4,2.3l-33.9,19.6c10.1,17.2,22.8,30.1,40.1,40.1l54.7-94.9L1046.8,205.6z"/>
			<path class="st5" d="M1101.7,262.4v-21v-65.8l-43.4,75.2C1071.9,258.5,1085.8,262.3,1101.7,262.4z"/>
			<path class="st5" d="M1099.4,173.3h-43.1h-21c0.1,11.6,2.9,22,8.6,32.1L1099.4,173.3z"/>
			<path class="st5" d="M1103.3,239.7c11.6-0.1,22-2.9,32.1-8.6l-32.1-55.6V239.7z"/>
			<path class="st5" d="M1169.6,173.3h-64.2l55.6,32.1C1166.7,195.3,1169.5,185,1169.6,173.3z"/>
			<path class="st5" d="M1142.8,150.1l-37.4,21.5h64.2c-0.1-11.6-2.9-22-8.6-32.1L1142.8,150.1L1142.8,150.1z"/>
			<path class="st5" d="M1064.3,149.6l1.5,0.9l34.5,19.8l-20.8-35.9C1072.9,138.3,1068.2,143,1064.3,149.6z"/>
			<path class="st5" d="M1140.6,195.5l-36-20.8l20.8,36C1131.9,206.8,1136.7,202,1140.6,195.5z"/>
			<path class="st5" d="M1125.4,134.4l-20.8,36l36-20.8C1136.7,143,1131.9,138.3,1125.4,134.4z"/>
			<path class="st5" d="M1103.3,128v41.6l20.8-36C1117.4,129.9,1110.9,128.2,1103.3,128z"/>
		</g>
		<path class="st3" d="M1124,133.5l-20.7,36L1124,133.5z"/>
		<polygon class="st3" points="1115.5,148.4 1124,133.5 1124,133.5 1103.3,169.5 1115.1,148.9 		"/>
		<polygon class="st3" points="1118.9,142.4 1124,133.5 1124,133.5 1116.5,146.6 		"/>
		<polygon class="st3" points="1116.5,146.6 1124,133.5 1115.5,148.4 		"/>
		<polygon class="st3" points="1124,133.5 1124,133.5 1118.9,142.4 		"/>
	</g>
</g>
<g id="Layer_2_1_">
</g>
<g id="Layer_3">
</g>
<g id="Layer_1_2_">
	<g>
		<polygon class="st0" points="793.4,289.3 793.4,289.3 735.8,256.1 735.8,256.1 		"/>
		<polygon class="st0" points="711.9,371 711.9,371 680.2,316.2 		"/>
		<polygon class="st0" points="676.8,129.4 696.5,118.1 696.5,118.1 734.2,96.2 734.2,96.2 		"/>
		<polygon class="st0" points="519.7,38.9 519.7,38.9 553,96.4 553,96.4 		"/>
		<polygon class="st1" points="696.6,233.6 734.4,255.4 734.4,255.4 		"/>
		<path class="st1" d="M667.3,293.9l10.6,18.2L667.3,293.9z"/>
		<polygon class="st1" points="734.4,255.4 734.4,255.4 696.6,233.6 696.6,233.6 		"/>
		<polygon class="st1" points="677.8,312.1 677.8,312.1 667.3,293.9 		"/>
		<polygon class="st1" points="654.5,275.1 654.5,275.1 631.9,235.8 665.1,293.3 665.1,293.3 		"/>
		<polygon class="st1" points="654.5,275.1 654.5,275.1 665.1,293.3 665.1,293.3 		"/>
		<polygon class="st1" points="665.1,293.3 665.1,293.3 654.5,275.1 654.5,275.1 		"/>
		<polygon class="st1" points="631.7,115.9 643,96.3 643,96.3 653.5,78 653.5,78 		"/>
		<polygon class="st1" points="657.2,140.8 672.6,131.8 675.5,130.2 675.5,130.2 		"/>
		<path class="st1" d="M657.2,140.8l15.4-9L657.2,140.8z"/>
		<polygon class="st1" points="572.2,132.9 552.6,99.1 574.2,136.4 574.2,136.4 		"/>
		<polygon class="st1" points="572.2,132.9 556.4,105.4 552.3,98.6 552.3,98.6 552.6,99.1 		"/>
		<polygon class="st1" points="563.9,233.7 563.9,233.7 572.1,219.4 574.3,215.5 574.3,215.5 		"/>
		<polygon class="st1" points="558.6,199.7 540.3,210.3 540.3,210.3 		"/>
		<g>
			<path class="st2" d="M655.9,274.2l11.3,19.6l0,0l10.6,18.2c24.4-14.2,42.4-32.4,56.6-56.7l-37.9-21.8
				C686.4,251,673.4,264,655.9,274.2z"/>
			<path class="st2" d="M631.9,235.8c-10.4,5.9-20.9,8.7-32.8,8.9l0,0l0.1,66.4c24.1-0.1,45.1-5.8,66.1-17.7L631.9,235.8z"/>
			<path class="st2" d="M697.3,232.2L697.3,232.2l18.2,10.5c11.9-20.9,17.5-42,17.6-66.2h-21h-22.7c-0.1,16.2-3.8,30.2-11.8,44.3
				L697.3,232.2z"/>
			<path class="st2" d="M689.5,175h21c-0.1-19.9-4.9-37.4-14.7-54.7l-37.9,21.9c5.9,10.4,8.7,20.9,8.9,32.8H689.5z"/>
			<path class="st2" d="M598.7,107.1c12,0.1,22.5,2.9,32.9,8.8L653.4,78c-17.4-9.9-34.8-14.5-54.7-14.6v21V107.1L598.7,107.1z"/>
			<path class="st2" d="M637.6,152.1l19.6-11.3l18.2-10.6c-8-13.7-18.1-23.8-31.8-31.7l-21.8,37.9
				C628.5,140.4,633.6,145.4,637.6,152.1z"/>
			<path class="st2" d="M564.3,116c10.4-5.9,20.9-8.7,32.8-8.9l0,0v-21c-15.8,0.1-29.6,3.9-43.4,11.7l2.6,4.4l5.2,8.9L564.3,116z"/>
			<path class="st2" d="M558.5,152.2L558.5,152.2L558.5,152.2c4-6.7,9-11.8,15.8-15.7l-21.6-37.4l-0.3-0.5
				c-13.7,8-23.8,18.1-31.7,31.8l18.2,10.5l0,0L558.5,152.2z"/>
			<path class="st2" d="M574.3,215.5c-6.7-4-11.8-9-15.9-15.8l-18.2,10.6c5.9,10,13.5,17.5,23.5,23.5L574.3,215.5L574.3,215.5
				L574.3,215.5z"/>
			<path class="st2" d="M539.4,143.1c-5.7,10.1-8.5,20.5-8.6,32.1h21.1c0.1-7.9,1.9-14.8,5.8-21.5L539.4,143.1z"/>
		</g>
		<polygon class="st1" points="557.6,153.6 550.6,149.6 549,148.6 549,148.6 539.4,143.1 539.4,143.1 		"/>
		<polygon class="st1" points="539.4,143.1 539.4,143.1 549,148.6 		"/>
		<polygon class="st1" points="549,148.6 539.4,143.1 539.4,143.1 		"/>
		<path class="st1" d="M549,148.6L549,148.6L549,148.6z"/>
		<polygon class="st3" points="600.2,178.1 695.2,232.7 695.2,232.7 652.6,208.2 		"/>
		<polygon class="st3" points="628.6,227.1 631.2,231.5 600.2,178.1 628.4,226.8 		"/>
		<polygon class="st3" points="628.3,226.5 628.4,226.8 600.2,178.1 618.8,210.1 		"/>
		<polygon class="st3" points="655.2,272.9 655.2,272.9 635.5,239 		"/>
		<polygon class="st3" points="633.3,235 633.3,235 655.2,272.9 655.2,272.9 635.5,239 		"/>
		<path class="st3" d="M633.3,235l21.9,37.9L633.3,235z"/>
		<polygon class="st3" points="633.3,235 655.2,272.9 655.2,272.9 		"/>
		<polygon class="st3" points="600.2,178.1 652.6,208.2 650,206.8 		"/>
		<polygon class="st0" points="575.7,216.3 575.7,216.3 575.7,216.3 565.2,234.6 565.2,234.6 		"/>
		<polygon class="st0" points="577.4,213.4 576.6,214.9 576.6,214.9 597.2,179 597.2,179 		"/>
		<polygon class="st0" points="575.7,216.3 575.7,216.3 576.1,215.6 576.1,215.6 		"/>
		<g>
			<path class="st4" d="M813.9,299.2c22.3-38.9,32.7-77.9,32.7-122.8l-111.7,0.1c-0.1,24.3-5.8,45.7-17.8,66.9L813.9,299.2z"/>
			<path class="st4" d="M665.9,294.7c-21.2,12.1-42.4,17.8-66.9,18l0.1,89.1c40.7-0.2,76.1-9.7,111.3-30L665.9,294.7z"/>
			<path class="st4" d="M678.6,313.5l33.2,57.5c35.2-20.5,61-46.5,81.4-81.6l-57.6-33.1C721.5,280.8,703.2,299.1,678.6,313.5z"/>
			<path class="st4" d="M778.6,174.9c-0.1-32.4-7.7-60.6-23.9-88.7l-57.5,33.2c10,17.5,14.8,35.3,14.9,55.6L778.6,174.9L778.6,174.9
				z"/>
			<path class="st4" d="M551.6,97.2L507,20.1c-28,16.3-48.6,37-64.9,65l77.2,44.4C527.3,115.7,537.7,105.4,551.6,97.2z"/>
			<path class="st4" d="M676.8,129.4l57.5-33.2c-14.2-24.4-32.4-42.4-56.7-56.6l-33.1,57.6C658.3,105.2,668.7,115.5,676.8,129.4z"/>
			<path class="st4" d="M553,96.4c14-8,28.1-11.8,44.3-11.9L597.1,18c-28.2,0.1-52.9,6.7-77.4,20.9L553,96.4L553,96.4z"/>
			<path class="st4" d="M538,142.3l-77.2-44.4c-14,24.6-20.5,49.3-20.7,77.5l89.1-0.1l0,0C529.3,163.2,532.2,152.8,538,142.3z"/>
			<path class="st4" d="M539,211L539,211L539,211l-37.9,21.9c10.1,17.2,22.9,30,40.1,40L563,235C552.7,229,545,221.4,539,211z"/>
			<path class="st4" d="M519.9,220.2l75.1-43.5l-86.8,0.1C508.4,192.6,512,206.5,519.9,220.2z"/>
			<path class="st4" d="M565.2,234.6c10.1,5.7,20.5,8.5,32.1,8.6l-0.1-64.2L565.2,234.6z"/>
		</g>
		<polygon class="st0" points="576.6,214.9 576.1,215.6 576.1,215.6 		"/>
		<polygon class="st3" points="598.8,178.9 598.8,179 631,234.5 631,234.5 		"/>
		<polygon class="st3" points="598.8,178.9 631,234.5 631,234.5 		"/>
		<path class="st3" d="M631,234.5l-32.2-55.7L631,234.5z"/>
		<polygon class="st3" points="656.6,142.9 656.6,142.9 601.1,175.1 		"/>
		<polygon class="st3" points="656.6,142.9 656.6,142.9 651.7,145.8 601.1,175.1 		"/>
		<polygon class="st3" points="630.9,117.3 630.9,117.3 598.8,172.9 598.8,172.9 		"/>
		<polygon class="st3" points="598.8,172.9 613.3,147.8 630.9,117.3 630.9,117.3 		"/>
		<polygon class="st3" points="620.4,135.5 630.9,117.3 630.9,117.3 613.3,147.8 		"/>
		<polygon class="st3" points="572.3,129.8 565,117.4 565,117.4 		"/>
		<polygon class="st3" points="575.6,135.6 575.6,135.6 565,117.4 572.3,129.8 		"/>
		<path class="st3" d="M560,198.9l36-20.8L560,198.9z"/>
		<polygon class="st3" points="560,198.9 560,198.9 595.9,178.1 595.9,178.1 		"/>
		<path class="st3" d="M636.2,153l-36,20.7L636.2,153z"/>
		<polygon class="st3" points="636.2,153 636.2,153 600.2,173.7 600.2,173.7 		"/>
		<polygon class="st3" points="579.6,145.7 576.1,139.6 575.1,137.8 575.1,137.8 595.9,173.7 		"/>
		<polygon class="st3" points="576.1,139.6 579.6,145.7 576.4,140.1 		"/>
		<g>
			<path class="st5" d="M631.2,231.5l2.1,3.6l2.3,4l19.6,33.9c17.2-10.1,30-22.9,40-40.1l-95-54.6L631.2,231.5z"/>
			<path class="st5" d="M687.9,176.6h-21l-65.8,0.1l75.2,43.3C684.1,206.3,687.8,192.4,687.9,176.6z"/>
			<path class="st5" d="M598.8,179l0.1,43.1v21c11.6-0.1,22-2.9,32.1-8.7L598.8,179z"/>
			<path class="st5" d="M665.3,175c-0.1-11.6-2.9-22-8.7-32.1l-55.5,32.2L665.3,175z"/>
			<path class="st5" d="M598.7,108.7l0.1,64.2l32-55.6C620.7,111.6,610.5,108.8,598.7,108.7z"/>
			<path class="st5" d="M575.6,135.6l21.6,37.4l-0.1-64.2c-11.6,0.1-22,2.9-32.1,8.7L575.6,135.6L575.6,135.6z"/>
			<path class="st5" d="M575.2,214.1l0.9-1.5l19.8-34.5L560,198.9C563.9,205.5,568.6,210.2,575.2,214.1z"/>
			<path class="st5" d="M621,137.8l-20.7,36l36-20.8C632.3,146.4,627.5,141.7,621,137.8z"/>
			<path class="st5" d="M559.9,153.1l36,20.7l-20.8-36C568.5,141.7,563.8,146.5,559.9,153.1z"/>
			<path class="st5" d="M553.6,175.1h41.6l-36-20.7C555.4,161,553.7,167.5,553.6,175.1z"/>
		</g>
		<path class="st3" d="M559.1,154.5l36,20.6L559.1,154.5z"/>
		<polygon class="st3" points="573.9,162.9 559.1,154.5 559.1,154.5 595.1,175.1 574.5,163.3 		"/>
		<polygon class="st3" points="567.9,159.5 559.1,154.5 559.1,154.5 572.1,161.9 		"/>
		<polygon class="st3" points="572.1,161.9 559.1,154.5 573.9,162.9 		"/>
		<polygon class="st3" points="559.1,154.5 559.1,154.5 567.9,159.5 		"/>
	</g>
</g>
<g id="Layer_3_1_">
</g>
<g id="Layer_1_3_">
	<g>
		<polygon class="st0" points="57,63.5 57,63.5 114.5,96.7 114.5,96.7 		"/>
		<polygon class="st0" points="173.4,223.5 153.7,234.8 153.7,234.8 115.9,256.6 115.9,256.6 		"/>
		<polygon class="st0" points="330.3,314.2 330.3,314.2 297.2,256.6 297.2,256.6 		"/>
		<polygon class="st1" points="153.7,119.3 115.9,97.4 115.9,97.4 		"/>
		<path class="st1" d="M183.1,59l-10.6-18.2L183.1,59z"/>
		<polygon class="st1" points="115.9,97.4 115.9,97.4 153.7,119.3 153.7,119.3 		"/>
		<polygon class="st1" points="172.5,40.8 172.5,40.8 183.1,59 		"/>
		<polygon class="st1" points="195.8,77.8 195.8,77.8 218.4,117.1 185.3,59.6 185.3,59.6 		"/>
		<polygon class="st1" points="195.8,77.8 195.8,77.8 185.3,59.6 185.3,59.6 		"/>
		<polygon class="st1" points="185.3,59.6 185.3,59.6 195.8,77.8 195.8,77.8 		"/>
		<polygon class="st1" points="218.4,237 207.1,256.6 207.1,256.6 196.6,274.9 196.6,274.9 		"/>
		<polygon class="st1" points="193,212.1 177.6,221.1 174.7,222.7 174.7,222.7 		"/>
		<path class="st1" d="M193,212.1l-15.4,8.9L193,212.1z"/>
		<polygon class="st1" points="278,220.1 297.5,253.9 276,216.6 276,216.6 		"/>
		<polygon class="st1" points="278,220.1 293.7,247.6 297.8,254.5 297.8,254.5 297.5,253.9 		"/>
		<polygon class="st1" points="286.4,119.3 286.4,119.3 278.2,133.6 276,137.5 276,137.5 		"/>
		<polygon class="st1" points="291.7,153.3 310,142.8 310,142.8 		"/>
		<g>
			<path class="st2" d="M194.4,78.7l-11.3-19.6l0,0l-10.6-18.2c-24.5,14.2-42.4,32.3-56.7,56.7l37.9,21.9
				C163.9,101.8,177,88.9,194.4,78.7z"/>
			<path class="st2" d="M218.4,117.1c10.4-5.9,20.9-8.7,32.9-8.8l0,0V42c-24.1,0.1-45.1,5.7-66.1,17.7L218.4,117.1z"/>
			<path class="st2" d="M152.9,120.7L152.9,120.7l-18.2-10.6c-12,20.9-17.6,42-17.7,66.1h21h22.7c0.1-16.2,3.9-30.2,11.8-44.3
				L152.9,120.7z"/>
			<path class="st2" d="M160.7,177.9h-21c0.1,19.9,4.8,37.4,14.6,54.7l37.9-21.9c-5.9-10.4-8.7-20.9-8.8-32.9h-22.7L160.7,177.9
				L160.7,177.9z"/>
			<path class="st2" d="M251.4,245.9c-12-0.1-22.5-2.9-32.9-8.8L196.6,275c17.3,9.9,34.8,14.5,54.7,14.6v-21L251.4,245.9
				L251.4,245.9z"/>
			<path class="st2" d="M212.6,200.8L193,212.1l-18.2,10.6c8,13.7,18.1,23.8,31.8,31.8l21.9-37.9
				C221.7,212.6,216.6,207.5,212.6,200.8z"/>
			<path class="st2" d="M285.9,237c-10.4,5.9-20.9,8.7-32.9,8.8l0,0v21c15.8-0.1,29.6-3.9,43.4-11.6l-2.6-4.4l-5.2-8.9L285.9,237z"
				/>
			<path class="st2" d="M291.7,200.8L291.7,200.8L291.7,200.8c-4,6.7-9,11.7-15.8,15.7l21.5,37.4l0.3,0.5
				c13.7-8,23.8-18.1,31.8-31.8L311.3,212l0,0L291.7,200.8z"/>
			<path class="st2" d="M276,137.5c6.7,4,11.7,9,15.8,15.8l18.2-10.6c-5.9-10-13.5-17.6-23.5-23.5L276,137.5L276,137.5L276,137.5z"
				/>
			<path class="st2" d="M310.7,210c5.7-10.1,8.5-20.5,8.6-32.1h-21.1c-0.1,7.9-1.9,14.8-5.8,21.5L310.7,210z"/>
		</g>
		<polygon class="st1" points="292.5,199.4 299.5,203.4 301.2,204.4 301.2,204.4 310.7,210 310.7,210 		"/>
		<polygon class="st1" points="310.7,210 310.7,210 301.2,204.4 		"/>
		<polygon class="st1" points="301.2,204.4 310.7,210 310.7,210 		"/>
		<path class="st1" d="M301.2,204.4L301.2,204.4L301.2,204.4z"/>
		<polygon class="st3" points="250,174.9 155.1,120.2 155.1,120.2 197.6,144.7 		"/>
		<polygon class="st3" points="221.7,125.9 219.1,121.4 250,174.9 221.9,126.2 		"/>
		<polygon class="st3" points="222,126.4 221.9,126.2 250,174.9 231.5,142.9 		"/>
		<polygon class="st3" points="195.2,80 195.2,80 214.8,113.9 		"/>
		<polygon class="st3" points="217,117.9 217,117.9 195.2,80 195.2,80 214.8,113.9 		"/>
		<path class="st3" d="M217,117.9L195.2,80L217,117.9z"/>
		<polygon class="st3" points="217,117.9 195.2,80 195.2,80 		"/>
		<polygon class="st3" points="250,174.9 197.6,144.7 200.2,146.1 		"/>
		<polygon class="st0" points="274.6,136.7 274.6,136.7 274.6,136.7 285.1,118.4 285.1,118.4 		"/>
		<polygon class="st0" points="272.8,139.7 273.7,138.1 273.7,138.1 253,174 253,174 		"/>
		<polygon class="st0" points="274.6,136.7 274.6,136.7 274.1,137.4 274.1,137.4 		"/>
		<g>
			<path class="st4" d="M36.5,53.5C14.2,92.4,3.8,131.4,3.6,176.3h111.7c0.1-24.3,5.8-45.7,17.9-66.9L36.5,53.5z"/>
			<path class="st4" d="M71.6,177.9c0.1,32.4,7.6,60.6,23.8,88.8l57.5-33.2c-10-17.6-14.8-35.3-14.9-55.6L71.6,177.9L71.6,177.9z"/>
			<path class="st4" d="M298.6,255.9l44.5,77.1c28-16.3,48.7-36.9,65-65L331,223.5C322.8,237.4,312.5,247.7,298.6,255.9z"/>
			<path class="st4" d="M173.4,223.5l-57.5,33.2c14.2,24.5,32.3,42.4,56.7,56.7l33.2-57.5C191.8,247.7,181.5,237.4,173.4,223.5z"/>
			<path class="st4" d="M297.2,256.6c-14,8-28.1,11.7-44.3,11.8v66.5c28.2-0.1,52.9-6.7,77.4-20.8L297.2,256.6L297.2,256.6z"/>
			<path class="st4" d="M312.1,210.7l77.1,44.5c14-24.6,20.6-49.2,20.8-77.4h-89l0,0C320.9,189.8,318,200.3,312.1,210.7z"/>
			<path class="st4" d="M311.3,142L311.3,142L311.3,142l37.9-21.9C339.1,102.9,326.4,90,309.1,80l-21.8,38
				C297.6,124,305.2,131.7,311.3,142z"/>
			<path class="st4" d="M330.3,132.9l-75.2,43.4H342C341.9,160.4,338.2,146.5,330.3,132.9z"/>
			<path class="st4" d="M285.1,118.4c-10.1-5.7-20.5-8.5-32.1-8.6V174L285.1,118.4z"/>
		</g>
		<polygon class="st0" points="273.7,138.1 274.1,137.4 274.1,137.4 		"/>
		<polygon class="st3" points="251.4,174.1 251.4,174 219.3,118.4 219.3,118.4 		"/>
		<polygon class="st3" points="251.4,174.1 219.3,118.4 219.3,118.4 		"/>
		<path class="st3" d="M219.3,118.4l32.1,55.7L219.3,118.4z"/>
		<polygon class="st3" points="193.5,210 193.5,210 249.1,177.9 		"/>
		<polygon class="st3" points="193.5,210 193.5,210 198.5,207.1 249.1,177.9 		"/>
		<polygon class="st3" points="219.3,235.6 219.3,235.6 251.4,180 251.4,180 		"/>
		<polygon class="st3" points="251.4,180 236.9,205.1 219.3,235.6 219.3,235.6 		"/>
		<polygon class="st3" points="229.7,217.4 219.3,235.6 219.3,235.6 236.9,205.1 		"/>
		<polygon class="st3" points="277.9,223.2 285.1,235.6 285.1,235.6 		"/>
		<polygon class="st3" points="274.6,217.4 274.6,217.4 285.1,235.6 277.9,223.2 		"/>
		<path class="st3" d="M290.3,154.1l-36,20.8L290.3,154.1z"/>
		<polygon class="st3" points="290.3,154.1 290.3,154.1 254.3,174.9 254.3,174.9 		"/>
		<path class="st3" d="M214,200l36-20.7L214,200z"/>
		<polygon class="st3" points="214,200 214,200 250,179.3 250,179.3 		"/>
		<polygon class="st3" points="270.6,207.3 274.1,213.4 275.1,215.2 275.1,215.2 254.3,179.3 		"/>
		<polygon class="st3" points="274.1,213.4 270.6,207.3 273.8,212.9 		"/>
		<g>
			<path class="st5" d="M219.1,121.4l-2-3.6l-2.3-4L195.2,80c-17.2,10.1-30.1,22.8-40.1,40.1l94.9,54.7L219.1,121.4z"/>
			<path class="st5" d="M162.3,176.3h21h65.8l-75.2-43.4C166.2,146.5,162.4,160.4,162.3,176.3z"/>
			<path class="st5" d="M251.4,174v-43.1v-21c-11.6,0.1-22,2.9-32.1,8.6L251.4,174z"/>
			<path class="st5" d="M184.9,177.9c0.1,11.6,2.9,22,8.6,32.1l55.6-32.1H184.9z"/>
			<path class="st5" d="M251.4,244.2V180l-32.1,55.6C229.4,241.3,239.7,244.1,251.4,244.2z"/>
			<path class="st5" d="M274.6,217.4L253,180v64.2c11.6-0.1,22-2.9,32.1-8.6L274.6,217.4L274.6,217.4z"/>
			<path class="st5" d="M275.1,138.9l-0.9,1.5l-19.8,34.5l35.9-20.8C286.4,147.5,281.7,142.8,275.1,138.9z"/>
			<path class="st5" d="M229.2,215.2l20.8-36L214,200C217.9,206.5,222.6,211.3,229.2,215.2z"/>
			<path class="st5" d="M290.3,200l-36-20.8l20.8,36C281.7,211.3,286.4,206.5,290.3,200z"/>
			<path class="st5" d="M296.6,177.9H255l36,20.8C294.8,192,296.5,185.5,296.6,177.9z"/>
		</g>
		<path class="st3" d="M291.1,198.6l-36-20.7L291.1,198.6z"/>
		<polygon class="st3" points="276.3,190.1 291.1,198.6 291.1,198.6 255.2,177.9 275.7,189.7 		"/>
		<polygon class="st3" points="282.3,193.5 291.1,198.6 291.1,198.6 278.1,191.1 		"/>
		<polygon class="st3" points="278.1,191.1 291.1,198.6 276.3,190.1 		"/>
		<polygon class="st3" points="291.1,198.6 291.1,198.6 282.3,193.5 		"/>
	</g>
</g>
</svg>
