<svg enable-background="new 0 0 238 256" height="256" viewBox="0 0 238 256" width="238" xmlns="http://www.w3.org/2000/svg"><path d="m91.93 129.082v-74.015c-20.024 1.14-38.234 9.148-52.309 21.707zm9.884-101.048v101.049l71.222-71.222c-18.921-17.528-43.814-28.629-71.222-29.827zm-9.884 172.848v-47.937l-33.88 33.879c9.299 7.894 21.021 13.005 33.88 14.058zm-59.31-131.11c15.881-14.34 36.562-23.457 59.31-24.616v-43.156c-34.634 1.216-66.083 15.149-89.816 37.268zm-11.912 154.394c18.921 17.53 43.812 28.636 71.221 29.834v-43.208c-15.579-1.093-29.762-7.304-40.881-16.966zm64.233-78.21h-47.938c1.053 12.859 6.165 24.58 14.058 33.88zm-52.299-62.184c-12.556 14.076-20.573 32.277-21.712 52.3h74.012zm134.001 52.3h69.243c-1.216-34.633-15.15-66.082-37.269-89.816l-48.941 48.941c9.658 11.12 15.874 25.298 16.967 40.875zm24.082 91.808c20.87-22.499 32.774-51.236 33.931-81.923h-115.853zm-88.911-.922c20.023-1.14 38.231-9.15 52.305-21.709l-52.305-52.305zm40.853-124.751-33.864 33.864h47.922c-1.054-12.853-6.168-24.566-14.058-33.864z"/></svg>