<?xml version="1.0" encoding="utf-8"?>
<!-- Generator: Adobe Illustrator 19.2.0, SVG Export Plug-In . SVG Version: 6.00 Build 0)  -->
<svg version="1.1" id="Layer_1" xmlns="http://www.w3.org/2000/svg" xmlns:xlink="http://www.w3.org/1999/xlink" x="0px" y="0px"
	 width="1200px" height="919px" viewBox="0 0 1200 919" enable-background="new 0 0 1200 919" xml:space="preserve">
<g>
	<g>
		<text transform="matrix(1 0 0 1 786.4067 90.0104)" fill="#7F7F7F" font-family="'Roboto-Regular'" font-size="65px">decision node</text>
	</g>
	<g>
		<text transform="matrix(1 0 0 1 821.5337 473.2936)" fill="#7F7F7F" font-family="'Roboto-Regular'" font-size="65px">chance node</text>
	</g>
	<g>
		<text transform="matrix(1 0 0 1 941.6938 818.9694)"><tspan x="0" y="0" fill="#7F7F7F" font-family="'Roboto-Regular'" font-size="65px">endpoint</tspan><tspan x="109.339" y="78" fill="#7F7F7F" font-family="'Roboto-Regular'" font-size="65px">node</tspan></text>
	</g>
	<line fill="none" stroke="#AFAFAF" stroke-width="8" stroke-miterlimit="10" x1="527.38" y1="72.887" x2="749.107" y2="72.887"/>
	
		<line fill="none" stroke="#AFAFAF" stroke-width="8" stroke-miterlimit="10" x1="747.708" y1="454.615" x2="796.679" y2="454.615"/>
	
		<line fill="none" stroke="#AFAFAF" stroke-width="8" stroke-miterlimit="10" x1="847.266" y1="858.099" x2="970.942" y2="858.099"/>
	<polyline fill="none" stroke="#AFB8E3" stroke-width="18.6763" stroke-miterlimit="10" points="305.489,809.465 305.489,666.732 
		200.809,491.968 	"/>
	<polyline fill="none" stroke="#AFB8E3" stroke-width="18.6763" stroke-miterlimit="10" points="176.518,492.75 71.837,667.514 
		71.837,810.247 	"/>
	<polyline fill="none" stroke="#AFB8E3" stroke-width="18.6763" stroke-miterlimit="10" points="772.496,809.465 772.496,666.732 
		667.816,491.968 	"/>
	
		<line fill="none" stroke="#AFB8E3" stroke-width="18.6763" stroke-miterlimit="10" x1="659.622" y1="473.292" x2="439.914" y2="113.773"/>
	
		<line fill="none" stroke="#AFB8E3" stroke-width="18.6763" stroke-miterlimit="10" x1="405.095" y1="113.773" x2="159.193" y2="516.154"/>
	<polyline fill="none" stroke="#AFB8E3" stroke-width="18.6763" stroke-miterlimit="10" points="643.525,492.75 538.844,667.514 
		538.844,810.247 	"/>
	<circle fill="#7581BA" cx="188.762" cy="454.615" r="65.367"/>
	<circle fill="#7581BA" cx="655.67" cy="454.615" r="65.367"/>
	<rect x="357" y="3" fill="#7581BA" width="131" height="131"/>
	<polygon fill="#7581BA" points="142.072,916.854 1.999,916.854 72.035,786.12 	"/>
	<polygon fill="#7581BA" points="375.525,916.854 235.453,916.854 305.489,786.12 	"/>
	<polygon fill="#7581BA" points="609.344,916.854 469.272,916.854 539.308,786.12 	"/>
	<polygon fill="#7581BA" points="842.069,917 701.996,917 772.032,786.266 	"/>
</g>
</svg>
