<?xml version="1.0" encoding="utf-8"?>
<!-- Generator: Adobe Illustrator 19.2.0, SVG Export Plug-In . SVG Version: 6.00 Build 0)  -->
<svg version="1.1" id="Layer_1" xmlns="http://www.w3.org/2000/svg" xmlns:xlink="http://www.w3.org/1999/xlink" x="0px" y="0px"
	 width="1268px" height="558px" viewBox="0 0 1268 558" enable-background="new 0 0 1268 558" xml:space="preserve">
<g>
	<line fill="none" stroke="#C4C4C4" stroke-miterlimit="10" x1="119" y1="528.5" x2="1266" y2="528.5"/>
	<line fill="none" stroke="#C4C4C4" stroke-miterlimit="10" x1="119" y1="461.5" x2="1266" y2="461.5"/>
	<line fill="none" stroke="#C4C4C4" stroke-miterlimit="10" x1="119" y1="392.5" x2="1266" y2="392.5"/>
	<line fill="none" stroke="#C4C4C4" stroke-miterlimit="10" x1="119" y1="324.5" x2="1266" y2="324.5"/>
	<line fill="none" stroke="#C4C4C4" stroke-miterlimit="10" x1="119" y1="254.5" x2="1266" y2="254.5"/>
	<line fill="none" stroke="#C4C4C4" stroke-miterlimit="10" x1="119" y1="187.5" x2="1266" y2="187.5"/>
</g>
<g>
	<g>
		<path fill="none" stroke="#9C96AD" stroke-width="3" stroke-miterlimit="10" d="M820.267,395.524v0.208
			c0,7.827-2.814,15.394-7.928,21.32l-16.531,19.153c-5.114,5.926-7.928,13.492-7.928,21.32v0.527"/>
		<g>
			<polygon fill="#9C96AD" points="782.673,456.503 787.88,465.586 793.144,456.536 			"/>
		</g>
	</g>
</g>
<g>
	<g>
		<path fill="none" stroke="#9C96AD" stroke-width="3" stroke-miterlimit="10" d="M601.528,321.106L601.528,321.106
			c0,11.072-5.242,21.49-14.133,28.088l-19.578,14.53c-8.478,6.292-13.638,16.057-14.099,26.55"/>
		<g>
			<polygon fill="#9C96AD" points="548.615,388.651 553.685,397.812 559.084,388.841 			"/>
		</g>
	</g>
</g>
<path fill="none" stroke="#F3D0AA" stroke-width="3" stroke-miterlimit="10" d="M1009.842,254.785v8.736
	c0,9.59,5.471,18.34,14.093,22.538l11.663,5.679c8.622,4.199,14.093,12.948,14.093,22.538v9.174"/>
<path fill="none" stroke="#F3D0AA" stroke-width="3" stroke-miterlimit="10" d="M969.999,321.106v4.07
	c0,8.632,3.571,16.88,9.866,22.787l18.11,16.992c6.295,5.907,9.866,14.155,9.866,22.787v10.069"/>
<path fill="none" stroke="#F3D0AA" stroke-width="3" stroke-miterlimit="10" d="M932.156,395.524v0.208
	c0,7.827,2.814,15.394,7.928,21.32l16.531,19.153c5.114,5.926,7.928,13.492,7.928,21.32v8.062"/>
<path fill="none" stroke="#F3D0AA" stroke-width="3" stroke-miterlimit="10" d="M1134.022,395.519v0.208
	c0,7.827,2.814,15.394,7.928,21.32l16.531,19.153c5.114,5.926,7.928,13.492,7.928,21.32v8.062"/>
<path fill="none" stroke="#F3D0AA" stroke-width="3" stroke-miterlimit="10" d="M1262,462.988v5.464
	c0,9.01-2.91,17.779-8.297,25.001l-7.666,10.277c-5.387,7.222-8.297,15.991-8.297,25.001v6.319"/>
<path fill="none" stroke="#F3D0AA" stroke-width="3" stroke-miterlimit="10" d="M681.758,462.988v5.464
	c0,9.01-2.91,17.779-8.297,25.001l-7.666,10.277c-5.387,7.222-8.297,15.991-8.297,25.001v6.319"/>
<path fill="none" stroke="#F3D0AA" stroke-width="3" stroke-miterlimit="10" d="M553.713,395.524v0.208
	c0,7.827,2.814,15.394,7.928,21.32l16.531,19.153c5.114,5.926,7.928,13.492,7.928,21.32v8.062"/>
<g>
	<text transform="matrix(1 0 0 1 4.9998 192.8101)"><tspan x="0" y="0" fill="#B3B3B3" font-family="'RobotoCondensed-Regular'" font-size="26px">Florida</tspan><tspan x="0" y="69" fill="#B3B3B3" font-family="'RobotoCondensed-Regular'" font-size="26px">Ohio</tspan><tspan x="0" y="138" fill="#B3B3B3" font-family="'RobotoCondensed-Regular'" font-size="26px">Vi</tspan><tspan x="20.516" y="138" fill="#B3B3B3" font-family="'RobotoCondensed-Regular'" font-size="26px">r</tspan><tspan x="28.184" y="138" fill="#B3B3B3" font-family="'RobotoCondensed-Regular'" font-size="26px">ginia</tspan><tspan x="0" y="207" fill="#B3B3B3" font-family="'RobotoCondensed-Regular'" font-size="26px">Wisconsin</tspan><tspan x="0" y="276" fill="#B3B3B3" font-family="'RobotoCondensed-Regular'" font-size="26px">Colo</tspan><tspan x="46.795" y="276" fill="#B3B3B3" font-family="'RobotoCondensed-Regular'" font-size="26px">r</tspan><tspan x="54.196" y="276" fill="#B3B3B3" font-family="'RobotoCondensed-Regular'" font-size="26px">ado</tspan><tspan x="0" y="345" fill="#B3B3B3" font-family="'RobotoCondensed-Regular'" font-size="26px">N</tspan><tspan x="16.098" y="345" fill="#B3B3B3" font-family="'RobotoCondensed-Regular'" font-size="26px">e</tspan><tspan x="28.107" y="345" fill="#B3B3B3" font-family="'RobotoCondensed-Regular'" font-size="26px">v</tspan><tspan x="39.038" y="345" fill="#B3B3B3" font-family="'RobotoCondensed-Regular'" font-size="26px">ada</tspan></text>
</g>
<g>
	<text transform="matrix(1 0 0 1 439.6446 62.0039)" fill="#B3B3B3" font-family="'RobotoCondensed-Regular'" font-size="26px">candidate A</text>
</g>
<g>
	<text transform="matrix(1 0 0 1 784.5282 62.0039)" fill="#B3B3B3" font-family="'RobotoCondensed-Regular'" font-size="26px">candidate B</text>
</g>
<g id="Layer_2">
</g>
<circle fill="#9C96AD" cx="156.212" cy="544.233" r="11.5"/>
<circle fill="#9C96AD" cx="343.786" cy="544.233" r="11.5"/>
<circle fill="#F3D0AA" cx="281.875" cy="337" r="16"/>
<circle fill="#F3D0AA" cx="240.025" cy="406.089" r="14.5"/>
<circle fill="#F3D0AA" cx="196.52" cy="476.062" r="13"/>
<g>
	<g>
		<path fill="none" stroke="#9C96AD" stroke-width="3" stroke-miterlimit="10" d="M389.05,95.706
			c0.793-12.109,10.866-21.686,23.175-21.686H626.57c25.726,0,46.58-20.855,46.58-46.58v-0.292"/>
		<g>
			<polygon fill="#9C96AD" points="399.823,92.852 389,110.778 378.885,92.443 			"/>
		</g>
	</g>
</g>
<g>
	<g>
		<path fill="none" stroke="#F3D0AA" stroke-width="3" stroke-miterlimit="10" d="M969.192,95.706
			c-0.793-12.109-10.866-21.686-23.175-21.686H733.08c-25.726,0-46.58-20.855-46.58-46.58v-0.292"/>
		<g>
			<polygon fill="#F3D0AA" points="979.357,92.443 969.242,110.778 958.418,92.852 			"/>
		</g>
	</g>
</g>
<g>
	<g>
		<path fill="none" stroke="#F3D0AA" stroke-width="3" stroke-miterlimit="10" d="M496.15,179.234v-1.691
			c0-12.827-10.399-23.226-23.226-23.226H435.58c-25.726,0-46.58-20.855-46.58-46.58v-0.292"/>
		<g>
			<polygon fill="#F3D0AA" points="504.373,176.824 496.15,191.075 487.918,176.83 			"/>
		</g>
	</g>
</g>
<path fill="none" stroke="#F3D0AA" stroke-width="3" stroke-miterlimit="10" d="M281.875,188.118v2.545
	c0,9.678,5.004,18.668,13.229,23.768l13.391,8.302c8.225,5.1,13.229,14.09,13.229,23.768v9.284"/>
<g>
	<g>
		<path fill="none" stroke="#9C96AD" stroke-width="3" stroke-miterlimit="10" d="M281.875,188.118v2.545
			c0,9.678-5.004,18.668-13.229,23.768l-13.391,8.302c-7.804,4.838-12.708,13.178-13.19,22.285"/>
		<g>
			<polygon fill="#9C96AD" points="234.755,242.713 242.025,255.785 249.713,242.954 			"/>
		</g>
	</g>
</g>
<path fill="none" stroke="#F3D0AA" stroke-width="3" stroke-miterlimit="10" d="M242.025,254.785v8.736
	c0,9.59,5.471,18.34,14.093,22.538l11.663,5.679c8.622,4.199,14.093,12.948,14.093,22.538v9.174"/>
<path fill="none" stroke="#F3D0AA" stroke-width="3" stroke-miterlimit="10" d="M202.182,321.106v4.07
	c0,8.632,3.571,16.88,9.866,22.787l18.11,16.992c6.295,5.907,9.866,14.155,9.866,22.787v10.069"/>
<path fill="none" stroke="#F3D0AA" stroke-width="3" stroke-miterlimit="10" d="M164.339,395.524v0.208
	c0,7.827,2.814,15.394,7.928,21.32l16.531,19.153c5.114,5.926,7.928,13.492,7.928,21.32v8.062"/>
<path fill="none" stroke="#9C96AD" stroke-width="3" stroke-miterlimit="10" d="M131.952,462.988v5.464
	c0,9.01,2.91,17.779,8.297,25.001l7.666,10.277c5.387,7.222,8.297,15.991,8.297,25.001v6.319"/>
<g>
	<g>
		<path fill="none" stroke="#9C96AD" stroke-width="3" stroke-miterlimit="10" d="M164.339,391.524v4.208
			c0,7.827-2.814,15.394-7.928,21.32l-16.531,19.153c-5.114,5.926-7.928,13.492-7.928,21.32v0.527"/>
		<g>
			<polygon fill="#9C96AD" points="126.745,456.503 131.952,465.586 137.216,456.536 			"/>
		</g>
	</g>
</g>
<g>
	<g>
		<path fill="none" stroke="#9C96AD" stroke-width="3" stroke-miterlimit="10" d="M202.182,318.106v7.07
			c0,8.632-3.571,16.88-9.866,22.787l-18.11,16.992c-6.295,5.907-9.866,14.155-9.866,22.787v1.457"/>
		<g>
			<polygon fill="#9C96AD" points="158.356,387.449 164.339,397.812 170.323,387.449 			"/>
		</g>
	</g>
</g>
<circle fill="#F3D0AA" cx="321.725" cy="269.504" r="17.5"/>
<circle fill="#F3D0AA" cx="469.45" cy="337" r="16"/>
<circle fill="#F3D0AA" cx="427.6" cy="406.089" r="14.5"/>
<circle fill="#F3D0AA" cx="384.094" cy="476.062" r="13"/>
<g>
	<g>
		<path fill="none" stroke="#9C96AD" stroke-width="3" stroke-miterlimit="10" d="M496.15,188.25L496.15,188.25
			c0,10.883-6.78,20.614-16.989,24.384l-33.12,12.23c-8.789,3.246-14.952,11.057-16.205,20.157"/>
		<g>
			<polygon fill="#9C96AD" points="422.68,242.525 429.6,255.785 437.626,243.164 			"/>
		</g>
	</g>
</g>
<path fill="none" stroke="#F3D0AA" stroke-width="3" stroke-miterlimit="10" d="M429.6,254.785v8.736
	c0,9.59,5.471,18.34,14.093,22.538l11.663,5.679c8.622,4.199,14.093,12.948,14.093,22.538v9.174"/>
<g>
	<g>
		<path fill="none" stroke="#9C96AD" stroke-width="3" stroke-miterlimit="10" d="M429.6,249.785v13.736
			c0,9.59-5.471,18.34-14.093,22.538l-11.663,5.679c-8.468,4.123-13.897,12.637-14.088,22.024"/>
		<g>
			<polygon fill="#9C96AD" points="383.106,311.744 389.75,323.452 396.569,311.845 			"/>
		</g>
	</g>
</g>
<path fill="none" stroke="#F3D0AA" stroke-width="3" stroke-miterlimit="10" d="M389.757,321.106v4.07
	c0,8.632,3.571,16.88,9.866,22.787l18.11,16.992c6.295,5.907,9.866,14.155,9.866,22.787v10.069"/>
<path fill="none" stroke="#F3D0AA" stroke-width="3" stroke-miterlimit="10" d="M351.914,395.524v0.208
	c0,7.827,2.814,15.394,7.928,21.32l16.531,19.153c5.114,5.926,7.928,13.492,7.928,21.32v8.062"/>
<path fill="none" stroke="#9C96AD" stroke-width="3" stroke-miterlimit="10" d="M319.527,462.988v5.464
	c0,9.01,2.91,17.779,8.297,25.001l7.666,10.277c5.387,7.222,8.297,15.991,8.297,25.001v6.319"/>
<g>
	<g>
		<path fill="none" stroke="#9C96AD" stroke-width="3" stroke-miterlimit="10" d="M351.914,391.524v4.208
			c0,7.827-2.814,15.394-7.928,21.32l-16.531,19.153c-5.114,5.926-7.928,13.492-7.928,21.32v0.527"/>
		<g>
			<polygon fill="#9C96AD" points="314.319,456.503 319.527,465.586 324.791,456.536 			"/>
		</g>
	</g>
</g>
<g>
	<g>
		<path fill="none" stroke="#9C96AD" stroke-width="3" stroke-miterlimit="10" d="M389.757,317.106v8.07
			c0,8.632-3.571,16.88-9.866,22.787l-18.11,16.992c-6.295,5.907-9.866,14.155-9.866,22.787v1.457"/>
		<g>
			<polygon fill="#9C96AD" points="345.93,387.449 351.914,397.812 357.897,387.449 			"/>
		</g>
	</g>
</g>
<circle fill="#F3D0AA" cx="657.498" cy="544.233" r="11.5"/>
<circle fill="#9C96AD" cx="521.835" cy="337" r="16"/>
<circle fill="#9C96AD" cx="617.19" cy="476.062" r="13"/>
<path fill="none" stroke="#9C96AD" stroke-width="3" stroke-miterlimit="10" d="M649.371,395.524v0.208
	c0,7.827-2.814,15.394-7.928,21.32l-16.531,19.153c-5.114,5.926-7.928,13.492-7.928,21.32v8.062"/>
<circle fill="#9C96AD" cx="545.586" cy="544.233" r="11.5"/>
<circle fill="#F3D0AA" cx="585.894" cy="476.062" r="13"/>
<path fill="none" stroke="#9C96AD" stroke-width="3" stroke-miterlimit="10" d="M521.326,462.988v5.464
	c0,9.01,2.91,17.779,8.297,25.001l7.666,10.277c5.387,7.222,8.297,15.991,8.297,25.001v6.319"/>
<g>
	<g>
		<path fill="none" stroke="#9C96AD" stroke-width="3" stroke-miterlimit="10" d="M553.713,395.524v0.208
			c0,7.827-2.814,15.394-7.928,21.32l-16.531,19.153c-5.114,5.926-7.928,13.492-7.928,21.32v0.527"/>
		<g>
			<polygon fill="#9C96AD" points="516.119,456.503 521.326,465.586 526.59,456.536 			"/>
		</g>
	</g>
</g>
<g>
	<g>
		<path fill="none" stroke="#F3D0AA" stroke-width="3" stroke-miterlimit="10" d="M601.528,318.106v3
			c0,11.072,5.242,21.49,14.133,28.088l19.578,14.53c8.187,6.076,13.28,15.392,14.035,25.474"/>
		<g>
			<polygon fill="#F3D0AA" points="643.148,387.591 649.371,397.812 655.112,387.313 			"/>
		</g>
	</g>
</g>
<circle fill="#9C96AD" cx="924.028" cy="544.233" r="11.5"/>
<circle fill="#F3D0AA" cx="862.117" cy="337" r="16"/>
<circle fill="#9C96AD" cx="712.194" cy="476.062" r="13"/>
<g>
	<g>
		<path fill="none" stroke="#9C96AD" stroke-width="3" stroke-miterlimit="10" d="M969.242,107.445v0.292
			c0,25.726-20.855,46.58-46.58,46.58h-37.344c-12.827,0-23.226,10.399-23.226,23.226l0,0v1.691"/>
		<g>
			<polygon fill="#9C96AD" points="853.869,176.824 862.091,191.075 870.324,176.83 			"/>
		</g>
	</g>
</g>
<path fill="none" stroke="#F3D0AA" stroke-width="3" stroke-miterlimit="10" d="M862.117,188.118v2.545
	c0,9.678,5.004,18.668,13.229,23.768l13.391,8.302c8.225,5.1,13.229,14.09,13.229,23.768v9.284"/>
<g>
	<g>
		<path fill="none" stroke="#9C96AD" stroke-width="3" stroke-miterlimit="10" d="M862.117,188.118v2.545
			c0,9.678-5.004,18.668-13.229,23.768l-13.391,8.302c-7.804,4.838-12.708,13.178-13.19,22.285"/>
		<g>
			<polygon fill="#9C96AD" points="814.997,242.713 822.267,255.785 829.954,242.954 			"/>
		</g>
	</g>
</g>
<path fill="none" stroke="#F3D0AA" stroke-width="3" stroke-miterlimit="10" d="M822.267,254.785v8.736
	c0,9.59,5.471,18.34,14.093,22.538l11.663,5.679c8.622,4.199,14.093,12.948,14.093,22.538v9.174"/>
<g>
	<g>
		<path fill="none" stroke="#9C96AD" stroke-width="3" stroke-miterlimit="10" d="M822.267,250.785v12.736
			c0,9.59-5.471,18.34-14.093,22.538l-11.663,5.679c-8.468,4.123-13.897,12.637-14.088,22.024"/>
		<g>
			<polygon fill="#9C96AD" points="775.773,311.744 782.417,323.452 789.236,311.845 			"/>
		</g>
	</g>
</g>
<g>
	<g>
		<path fill="none" stroke="#F3D0AA" stroke-width="3" stroke-miterlimit="10" d="M782.424,321.106v4.07
			c0,8.632,3.571,16.88,9.866,22.787l18.11,16.992c6.295,5.907,9.866,14.155,9.866,22.787v1.457"/>
		<g>
			<polygon fill="#F3D0AA" points="814.284,387.449 820.267,397.812 826.251,387.449 			"/>
		</g>
	</g>
</g>
<path fill="none" stroke="#9C96AD" stroke-width="3" stroke-miterlimit="10" d="M744.581,395.524v0.208
	c0,7.827-2.814,15.394-7.928,21.32l-16.531,19.153c-5.114,5.926-7.928,13.492-7.928,21.32v8.062"/>
<g>
	<g>
		<path fill="none" stroke="#9C96AD" stroke-width="3" stroke-miterlimit="10" d="M782.424,318.106v7.07
			c0,8.632-3.571,16.88-9.867,22.787l-18.11,16.992c-6.295,5.907-9.867,14.155-9.867,22.787v1.457"/>
		<g>
			<polygon fill="#9C96AD" points="738.597,387.449 744.581,397.812 750.565,387.449 			"/>
		</g>
	</g>
</g>
<circle fill="#F3D0AA" cx="901.966" cy="269.504" r="17.5"/>
<circle fill="#F3D0AA" cx="1049.691" cy="337" r="16"/>
<circle fill="#F3D0AA" cx="1007.842" cy="406.089" r="14.5"/>
<circle fill="#F3D0AA" cx="964.336" cy="476.062" r="13"/>
<g>
	<g>
		<path fill="none" stroke="#9C96AD" stroke-width="3" stroke-miterlimit="10" d="M1076.392,188.118v0.296
			c0,10.709-6.661,20.288-16.701,24.015l-33.149,12.306c-8.857,3.288-15.086,11.132-16.429,20.287"/>
		<g>
			<polygon fill="#9C96AD" points="1002.973,242.498 1009.842,255.785 1017.916,243.194 			"/>
		</g>
	</g>
</g>
<g>
	<g>
		<path fill="none" stroke="#9C96AD" stroke-width="3" stroke-miterlimit="10" d="M1009.842,249.785v13.736
			c0,9.59-5.471,18.34-14.093,22.538l-11.663,5.679c-8.468,4.123-13.897,12.637-14.088,22.024"/>
		<g>
			<polygon fill="#9C96AD" points="963.348,311.744 969.992,323.452 976.811,311.845 			"/>
		</g>
	</g>
</g>
<path fill="none" stroke="#9C96AD" stroke-width="3" stroke-miterlimit="10" d="M899.768,462.988v5.464
	c0,9.01,2.91,17.779,8.297,25.001l7.666,10.277c5.387,7.222,8.297,15.991,8.297,25.001v6.319"/>
<g>
	<g>
		<path fill="none" stroke="#9C96AD" stroke-width="3" stroke-miterlimit="10" d="M932.156,392.524v3.208
			c0,7.827-2.814,15.394-7.928,21.32l-16.531,19.153c-5.114,5.926-7.928,13.492-7.928,21.32v0.527"/>
		<g>
			<polygon fill="#9C96AD" points="894.561,456.503 899.768,465.586 905.033,456.536 			"/>
		</g>
	</g>
</g>
<circle fill="#9C96AD" cx="812.14" cy="544.233" r="11.5"/>
<circle fill="#F3D0AA" cx="852.448" cy="476.062" r="13"/>
<path fill="none" stroke="#F3D0AA" stroke-width="3" stroke-miterlimit="10" d="M820.267,395.524v0.208
	c0,7.827,2.814,15.394,7.928,21.32l16.531,19.153c5.114,5.926,7.928,13.492,7.928,21.32v8.062"/>
<path fill="none" stroke="#9C96AD" stroke-width="3" stroke-miterlimit="10" d="M787.88,462.988v5.464
	c0,9.01,2.91,17.779,8.297,25.001l7.666,10.277c5.387,7.222,8.297,15.991,8.297,25.001v6.319"/>
<circle fill="#9C96AD" cx="1125.894" cy="544.228" r="11.5"/>
<circle fill="#F3D0AA" cx="1166.202" cy="476.057" r="13"/>
<path fill="none" stroke="#9C96AD" stroke-width="3" stroke-miterlimit="10" d="M1101.634,462.983v5.464
	c0,9.01,2.91,17.779,8.297,25.001l7.666,10.277c5.387,7.222,8.297,15.991,8.297,25.001v6.319"/>
<g>
	<g>
		<path fill="none" stroke="#9C96AD" stroke-width="3" stroke-miterlimit="10" d="M1134.022,391.519v4.208
			c0,7.827-2.814,15.394-7.928,21.32l-16.531,19.153c-5.114,5.926-7.928,13.492-7.928,21.32v0.527"/>
		<g>
			<polygon fill="#9C96AD" points="1096.427,456.498 1101.634,465.581 1106.898,456.531 			"/>
		</g>
	</g>
</g>
<g>
	<g>
		<path fill="none" stroke="#9C96AD" stroke-width="3" stroke-miterlimit="10" d="M969.999,318.106v7.07
			c0,8.632-3.571,16.88-9.867,22.787l-18.11,16.992c-6.295,5.907-9.867,14.155-9.867,22.787v1.457"/>
		<g>
			<polygon fill="#9C96AD" points="926.172,387.449 932.156,397.812 938.139,387.449 			"/>
		</g>
	</g>
</g>
<circle fill="#F3D0AA" cx="1237.74" cy="544.233" r="11.5"/>
<circle fill="#9C96AD" cx="1102.077" cy="337" r="16"/>
<circle fill="#9C96AD" cx="1197.432" cy="476.062" r="13"/>
<path fill="none" stroke="#9C96AD" stroke-width="3" stroke-miterlimit="10" d="M1141.927,254.785v8.736
	c0,9.59-5.471,18.34-14.093,22.538l-11.663,5.679c-8.622,4.199-14.093,12.948-14.093,22.538v9.174"/>
<g>
	<g>
		<path fill="none" stroke="#9C96AD" stroke-width="3" stroke-miterlimit="10" d="M1181.77,321.106L1181.77,321.106
			c0,11.072-5.242,21.49-14.133,28.088l-19.578,14.53c-8.478,6.292-13.638,16.057-14.099,26.55"/>
		<g>
			<polygon fill="#9C96AD" points="1128.857,388.651 1133.927,397.812 1139.326,388.841 			"/>
		</g>
	</g>
</g>
<path fill="none" stroke="#9C96AD" stroke-width="3" stroke-miterlimit="10" d="M1229.613,395.524v0.208
	c0,7.827-2.814,15.394-7.928,21.32l-16.531,19.153c-5.114,5.926-7.928,13.492-7.928,21.32v8.062"/>
<polyline fill="none" stroke="#FFFFFF" stroke-width="4" stroke-miterlimit="10" points="315.725,268.787 321,274.75 
	329.112,263.33 "/>
<polyline fill="none" stroke="#FFFFFF" stroke-width="4" stroke-miterlimit="10" points="895.273,268.787 900.548,274.75 
	908.66,263.33 "/>
<polyline fill="none" stroke="#FFFFFF" stroke-width="4" stroke-miterlimit="10" points="275.428,336.756 280.509,342.5 
	288.322,331.5 "/>
<polyline fill="none" stroke="#FFFFFF" stroke-width="4" stroke-miterlimit="10" points="463.002,336.756 468.083,342.5 
	475.897,331.5 "/>
<polyline fill="none" stroke="#FFFFFF" stroke-width="4" stroke-miterlimit="10" points="515.388,336.756 520.469,342.5 
	528.282,331.5 "/>
<polyline fill="none" stroke="#FFFFFF" stroke-width="4" stroke-miterlimit="10" points="855.669,336.756 860.751,342.5 
	868.564,331.5 "/>
<polyline fill="none" stroke="#FFFFFF" stroke-width="4" stroke-miterlimit="10" points="1043.244,336.756 1048.325,342.5 
	1056.139,331.5 "/>
<polyline fill="none" stroke="#FFFFFF" stroke-width="4" stroke-miterlimit="10" points="1095.63,336.756 1100.711,342.5 
	1108.524,331.5 "/>
<polyline fill="none" stroke="#FFFFFF" stroke-width="3" stroke-miterlimit="10" points="234.164,405.868 238.783,411.089 
	245.887,401.089 "/>
<polyline fill="none" stroke="#FFFFFF" stroke-width="3" stroke-miterlimit="10" points="421.739,405.868 426.358,411.089 
	433.461,401.089 "/>
<polyline fill="none" stroke="#FFFFFF" stroke-width="3" stroke-miterlimit="10" points="1001.981,405.868 1006.6,411.089 
	1013.703,401.089 "/>
<polyline fill="none" stroke="#FFFFFF" stroke-width="3" stroke-miterlimit="10" points="191.451,475.863 195.609,480.562 
	202.002,471.562 "/>
<polyline fill="none" stroke="#FFFFFF" stroke-width="3" stroke-miterlimit="10" points="379.026,475.863 383.183,480.562 
	389.576,471.562 "/>
<polyline fill="none" stroke="#FFFFFF" stroke-width="3" stroke-miterlimit="10" points="580.825,475.863 584.983,480.562 
	591.376,471.562 "/>
<polyline fill="none" stroke="#FFFFFF" stroke-width="3" stroke-miterlimit="10" points="611.915,475.863 616.073,480.562 
	622.466,471.562 "/>
<polyline fill="none" stroke="#FFFFFF" stroke-width="3" stroke-miterlimit="10" points="706.919,475.863 711.076,480.562 
	717.469,471.562 "/>
<polyline fill="none" stroke="#FFFFFF" stroke-width="3" stroke-miterlimit="10" points="846.04,475.863 850.198,480.562 
	856.591,471.562 "/>
<polyline fill="none" stroke="#FFFFFF" stroke-width="3" stroke-miterlimit="10" points="959.061,475.863 963.218,480.562 
	969.611,471.562 "/>
<polyline fill="none" stroke="#FFFFFF" stroke-width="3" stroke-miterlimit="10" points="1161.134,475.858 1165.291,480.557 
	1171.684,471.557 "/>
<polyline fill="none" stroke="#FFFFFF" stroke-width="3" stroke-miterlimit="10" points="1192.157,475.863 1196.314,480.562 
	1202.707,471.562 "/>
<polyline fill="none" stroke="#FFFFFF" stroke-width="2" stroke-miterlimit="10" points="152.086,544.056 155.781,548.233 
	161.464,540.233 "/>
<polyline fill="none" stroke="#FFFFFF" stroke-width="2" stroke-miterlimit="10" points="339.098,544.056 342.793,548.233 
	348.475,540.233 "/>
<polyline fill="none" stroke="#FFFFFF" stroke-width="2" stroke-miterlimit="10" points="540.897,544.056 544.592,548.233 
	550.275,540.233 "/>
<polyline fill="none" stroke="#FFFFFF" stroke-width="2" stroke-miterlimit="10" points="652.809,544.056 656.505,548.233 
	662.187,540.233 "/>
<polyline fill="none" stroke="#FFFFFF" stroke-width="2" stroke-miterlimit="10" points="807.451,544.056 811.146,548.233 
	816.829,540.233 "/>
<polyline fill="none" stroke="#FFFFFF" stroke-width="2" stroke-miterlimit="10" points="919.339,544.056 923.035,548.233 
	928.717,540.233 "/>
<polyline fill="none" stroke="#FFFFFF" stroke-width="2" stroke-miterlimit="10" points="1121.205,544.051 1124.901,548.228 
	1130.583,540.228 "/>
<polyline fill="none" stroke="#FFFFFF" stroke-width="2" stroke-miterlimit="10" points="1233.051,544.056 1236.746,548.233 
	1242.429,540.233 "/>
<circle fill="#9C96AD" cx="678.5" cy="32.504" r="29.5"/>
<path fill="none" stroke="#9C96AD" stroke-width="3" stroke-miterlimit="10" d="M561.685,254.785v8.736
	c0,9.59-5.471,18.34-14.093,22.538l-11.663,5.679c-8.622,4.199-14.093,12.948-14.093,22.538v9.174"/>
<path fill="#FFFFFF" d="M674.854,15.196c0,2.015,1.633,3.647,3.648,3.647s3.647-1.633,3.647-3.647s-1.633-3.647-3.647-3.647
	C676.487,11.548,674.854,13.181,674.854,15.196z M672.525,27.259h-3.21v-2.962c0-2.523,2.06-4.593,4.593-4.593h1.084l2.607,4.207
	l0.409-3.307l-0.409-0.909l1.8-0.002l-0.409,0.911l0.409,3.307l2.768-4.206h0.927c2.523,0,4.593,2.06,4.593,4.593v2.962h-3.213
	v-2.035c0-0.286-0.187-0.463-0.463-0.463c-0.286,0-0.463,0.187-0.463,0.463v2.035h-10.103v-2.03c0-0.254-0.203-0.466-0.457-0.468
	c-0.29-0.003-0.47,0.185-0.47,0.463L672.525,27.259z M667.373,28.241h23.564v3.598h-3.273l-1.866,21.62h-14.593l-1.869-21.62h-3.273
	V20.072l1.529-1.529c-0.07-0.374,0.039-0.774,0.327-1.063l0.992-0.992c0.225-0.225,0.524-0.349,0.842-0.349
	c0.318,0,0.617,0.124,0.842,0.349c0.464,0.464,0.464,1.219,0,1.683l-0.992,0.991c-0.225,0.225-0.524,0.349-0.842,0.349
	c-0.088,0-0.174-0.01-0.257-0.029l-1.131,1.131V28.241z"/>
<g>
	<g>
		<path fill="none" stroke="#F3D0AA" stroke-width="3" stroke-miterlimit="10" d="M649.371,395.524v0.208
			c0,7.827,2.814,15.394,7.928,21.32l16.531,19.153c5.114,5.926,7.928,13.492,7.928,21.32v0.527"/>
		<g>
			<polygon fill="#F3D0AA" points="676.494,456.536 681.758,465.586 686.965,456.503 			"/>
		</g>
	</g>
</g>
<g>
	<g>
		<path fill="none" stroke="#9C96AD" stroke-width="3" stroke-miterlimit="10" d="M389,107.445v0.292
			c0,25.726-20.855,46.58-46.58,46.58h-37.344c-12.827,0-23.226,10.399-23.226,23.226l0,0v1.691"/>
		<g>
			<polygon fill="#9C96AD" points="273.627,176.824 281.85,191.075 290.082,176.83 			"/>
		</g>
	</g>
</g>
<g>
	<g>
		<path fill="none" stroke="#9C96AD" stroke-width="3" stroke-miterlimit="10" d="M242.025,250.785v12.736
			c0,9.59-5.471,18.34-14.093,22.538l-11.663,5.679c-8.468,4.123-13.897,12.637-14.088,22.024"/>
		<g>
			<polygon fill="#9C96AD" points="195.532,311.744 202.176,323.452 208.994,311.845 			"/>
		</g>
	</g>
</g>
<g>
	<g>
		<path fill="none" stroke="#F3D0AA" stroke-width="3" stroke-miterlimit="10" d="M496.15,187.596v0.118
			c0,10.825,6.709,20.517,16.841,24.329l32.534,12.24c8.753,3.293,14.867,11.122,16.077,20.217"/>
		<g>
			<polygon fill="#F3D0AA" points="553.819,242.627 561.822,255.263 568.765,242.015 			"/>
		</g>
	</g>
</g>
<g>
	<g>
		<path fill="none" stroke="#F3D0AA" stroke-width="3" stroke-miterlimit="10" d="M561.685,250.785v12.736
			c0,9.59,5.471,18.34,14.093,22.538l11.663,5.679c8.468,4.123,13.897,12.637,14.088,22.024"/>
		<g>
			<polygon fill="#F3D0AA" points="594.716,311.845 601.535,323.452 608.179,311.744 			"/>
		</g>
	</g>
</g>
<g>
	<g>
		<path fill="none" stroke="#F3D0AA" stroke-width="3" stroke-miterlimit="10" d="M1076.392,179.234v-1.691
			c0-12.827-10.399-23.226-23.226-23.226h-37.344c-25.726,0-46.58-20.855-46.58-46.58v-0.292"/>
		<g>
			<polygon fill="#F3D0AA" points="1084.615,176.824 1076.392,191.075 1068.16,176.83 			"/>
		</g>
	</g>
</g>
<g>
	<g>
		<path fill="none" stroke="#F3D0AA" stroke-width="3" stroke-miterlimit="10" d="M1076.392,188.118L1076.392,188.118
			c0,10.894,6.757,20.646,16.956,24.472l31.937,11.983c8.925,3.349,15.214,11.234,16.646,20.451"/>
		<g>
			<polygon fill="#F3D0AA" points="1134.12,243.225 1142.242,255.785 1149.059,242.472 			"/>
		</g>
	</g>
</g>
<g>
	<g>
		<path fill="none" stroke="#F3D0AA" stroke-width="3" stroke-miterlimit="10" d="M1141.927,249.785v13.736
			c0,9.59,5.471,18.34,14.093,22.538l11.663,5.679c8.468,4.123,13.896,12.637,14.088,22.024"/>
		<g>
			<polygon fill="#F3D0AA" points="1174.958,311.845 1181.776,323.452 1188.42,311.744 			"/>
		</g>
	</g>
</g>
<g>
	<g>
		<path fill="none" stroke="#F3D0AA" stroke-width="3" stroke-miterlimit="10" d="M1181.77,318.106v4
			c0,11.072,5.242,20.49,14.133,27.088l19.578,14.53c8.187,6.076,13.28,15.392,14.035,25.474"/>
		<g>
			<polygon fill="#F3D0AA" points="1223.39,387.591 1229.613,397.812 1235.354,387.313 			"/>
		</g>
	</g>
</g>
<g>
	<g>
		<path fill="none" stroke="#F3D0AA" stroke-width="3" stroke-miterlimit="10" d="M1229.613,392.524v3.208
			c0,7.827,2.814,15.394,7.928,21.32l16.531,19.153c5.114,5.926,7.928,13.492,7.928,21.32v0.527"/>
		<g>
			<polygon fill="#F3D0AA" points="1256.736,456.536 1262,465.586 1267.207,456.503 			"/>
		</g>
	</g>
</g>
</svg>
