<svg enable-background="new 0 0 256 224" height="224" viewBox="0 0 256 224" width="256" xmlns="http://www.w3.org/2000/svg"><path d="m219.542 143.225v-90.575h-40.896l-50.716-50.716-50.717 50.716h-40.79v90.966c-19.374 2.404-34.423 18.959-34.423 38.973v.191c0 21.662 17.623 39.285 39.285 39.285h.191c21.662 0 39.285-17.623 39.285-39.285v-.191c0-20.038-15.084-36.609-34.492-38.981v-81.113h31.051l50.716 50.716 50.716-50.716h30.945v80.73h-34.458v78.761h78.761v-78.761zm-148.626 39.364v.191c0 16.233-13.207 29.44-29.44 29.44h-.191c-16.233 0-29.44-13.207-29.44-29.44v-.191c0-16.233 13.207-29.439 29.44-29.439h.191c16.233 0 29.44 13.207 29.44 29.439zm173.239 29.552h-59.071v-59.071h59.071z"/></svg>