<?xml version="1.0" encoding="utf-8"?>
<!-- Generator: Adobe Illustrator 19.2.0, SVG Export Plug-In . SVG Version: 6.00 Build 0)  -->
<svg version="1.1" id="Layer_1" xmlns="http://www.w3.org/2000/svg" xmlns:xlink="http://www.w3.org/1999/xlink" x="0px" y="0px"
	 width="1200px" height="1064px" viewBox="0 0 1200 1064" enable-background="new 0 0 1200 1064" xml:space="preserve">
<g>
	<g>
		<text transform="matrix(1 0 0 1 565.8909 930.3684)" fill="#7F7F7F" font-family="'Roboto-Regular'" font-size="65px">space in general</text>
	</g>
	<g>
		<text transform="matrix(1 0 0 1 187.9925 275.0598)"><tspan x="0" y="0" fill="#7F7F7F" font-family="'Roboto-Regular'" font-size="65px">relative </tspan><tspan x="0" y="78" fill="#7F7F7F" font-family="'Roboto-Regular'" font-size="65px">space</tspan></text>
	</g>
	<g>
		<text transform="matrix(1 0 0 1 849.5393 351.5637)" fill="#7F7F7F" font-family="'Roboto-Regular'" font-size="65px">space</text>
	</g>
	<line fill="none" stroke="#AFAFAF" stroke-width="8" stroke-miterlimit="10" x1="690" y1="860" x2="690" y2="676"/>
	<line fill="none" stroke="#AFAFAF" stroke-width="8" stroke-miterlimit="10" x1="937" y1="472" x2="937" y2="390"/>
	<line fill="none" stroke="#AFAFAF" stroke-width="8" stroke-miterlimit="10" x1="264" y1="472" x2="264" y2="390"/>
	<line fill="none" stroke="#939FD5" stroke-width="28" stroke-miterlimit="10" x1="1181" y1="556" x2="36" y2="556"/>
	<polyline fill="none" stroke="#939FD5" stroke-width="28.0312" stroke-miterlimit="10" points="60.869,758.73 263.857,555.742 
		60.687,357.067 	"/>
	<polyline fill="none" stroke="#939FD5" stroke-width="28.0312" stroke-miterlimit="10" points="443.995,1000.856 688.197,553.079 
		443.588,64.047 	"/>
	<circle fill="#7581BA" cx="46.941" cy="766.033" r="44.941"/>
	<circle fill="#7581BA" cx="46.941" cy="555.742" r="44.941"/>
	<circle fill="#7581BA" cx="46.941" cy="345.452" r="44.941"/>
	
		<line fill="none" stroke="#939FD5" stroke-width="28.0312" stroke-miterlimit="10" x1="944.556" y1="555.742" x2="1164.292" y2="555.742"/>
	<polyline fill="none" stroke="#939FD5" stroke-width="28.0312" stroke-miterlimit="10" points="1139.131,352.755 936.143,555.742 
		1139.313,754.418 	"/>
	<circle fill="#7581BA" cx="1153.059" cy="345.452" r="44.941"/>
	<circle fill="#7581BA" cx="1153.059" cy="555.742" r="44.941"/>
	<circle fill="#7581BA" cx="1153.059" cy="766.033" r="44.941"/>
	<circle fill="#6573B5" cx="443.598" cy="64.047" r="61.144"/>
	<circle fill="#6573B5" cx="680.783" cy="555.742" r="84.659"/>
	<circle fill="#4C5A9C" cx="944.556" cy="555.742" r="59.863"/>
	<circle fill="#6573B5" cx="251.943" cy="555.742" r="61.144"/>
	<circle fill="#6573B5" cx="443.588" cy="1000.856" r="61.144"/>
</g>
</svg>
