<svg id="Layer_1" data-name="Layer 1" xmlns="http://www.w3.org/2000/svg" width="650" height="595" viewBox="0 0 650 595"><title>circle-packing</title><circle cx="326.28" cy="297.82" r="289.88" fill="#828282" opacity="0.15" style="isolation:isolate"/><circle cx="182.21" cy="297.82" r="143.94" fill="#828282" opacity="0.25" style="isolation:isolate"/><circle cx="446.03" cy="395.27" r="134" fill="#828282" opacity="0.25" style="isolation:isolate"/><path d="M182.21,297.83a71.75,71.75,0,1,1-71.75-71.75A71.74,71.74,0,0,1,182.21,297.83Z" fill="#828282" opacity="0.45" style="isolation:isolate"/><path d="M325.71,297.83A71.75,71.75,0,1,1,254,226.08,71.74,71.74,0,0,1,325.71,297.83Z" fill="#828282" opacity="0.45" style="isolation:isolate"/><path d="M445.59,431.39A61.61,61.61,0,1,1,384,369.78,61.61,61.61,0,0,1,445.59,431.39Z" fill="#828282" opacity="0.45" style="isolation:isolate"/><path d="M571,433.22a61.61,61.61,0,1,1-61.61-61.61A61.6,61.6,0,0,1,571,433.22Z" fill="#828282" opacity="0.45" style="isolation:isolate"/><circle cx="445.97" cy="323.08" r="61.61" fill="#828282" opacity="0.45" style="isolation:isolate"/><g opacity="0.5"><g style="isolation:isolate"><path d="M239.21,92.1l-10.27.42,0.44,10.9-3.17.13-1-24.67,15.15-.61,0.11,2.68-12,.49,0.34,8.44,10.27-.42Z" fill="#494949"/></g></g><g opacity="0.5"><g style="isolation:isolate"><path d="M262.62,311.71h-3.19l-9.58-18.45-0.05,18.45h-3.17V287h3.19l9.58,18.42L259.44,287h3.17v24.69Z" fill="#494949"/></g></g><g opacity="0.5"><g style="isolation:isolate"><path d="M186,396.27H175.69V405h12v2.66H172.55V383h15v2.68H175.69v7.94H186v2.66Z" fill="#494949"/></g></g><g opacity="0.5"><g style="isolation:isolate"><path d="M446.47,322.71l-2.75,3.12v8.34h-3.21V309.48h3.21v12.06l2.39-3,7.24-9.07h3.82l-8.63,10.8,9.21,13.89h-3.82Z" fill="#494949"/></g></g><g opacity="0.5"><g style="isolation:isolate"><path d="M377,440.42h12.08v2.66H373.84V418.39H377v22Z" fill="#494949"/></g></g><g opacity="0.5"><g style="isolation:isolate"><path d="M480.59,453.43l4,12.35,4.34-12.35h3.9v24.69H489.8v-9.85L490.05,458l-4.56,13.3h-1.8l-4.19-12.94,0.25,10v9.85H476.7V453.43h3.88Z" fill="#494949"/></g></g><g opacity="0.5"><g style="isolation:isolate"><path d="M456.38,506.29a10.76,10.76,0,0,1-.88,3.15,8.11,8.11,0,0,1-1.72,2.46,7.49,7.49,0,0,1-2.51,1.59,8.81,8.81,0,0,1-3.23.57,8.4,8.4,0,0,1-2.77-.43,7.62,7.62,0,0,1-2.22-1.2,7.93,7.93,0,0,1-1.68-1.8,10.91,10.91,0,0,1-1.17-2.26,13.54,13.54,0,0,1-.7-2.56,17.45,17.45,0,0,1-.25-2.71v-3.44a17.45,17.45,0,0,1,.25-2.71,13.56,13.56,0,0,1,.7-2.56,11.13,11.13,0,0,1,1.17-2.26,7.87,7.87,0,0,1,1.68-1.81,7.64,7.64,0,0,1,2.21-1.2,8.41,8.41,0,0,1,2.78-.43,9.06,9.06,0,0,1,3.31.57,7.26,7.26,0,0,1,2.51,1.61,8,8,0,0,1,1.69,2.5,11.24,11.24,0,0,1,.84,3.22h-3.14a9.27,9.27,0,0,0-.53-2.09,5.76,5.76,0,0,0-1-1.7,4.44,4.44,0,0,0-1.54-1.14,5.12,5.12,0,0,0-2.15-.42,5,5,0,0,0-2,.36,4.56,4.56,0,0,0-1.48,1,5.64,5.64,0,0,0-1,1.46,9.47,9.47,0,0,0-.67,1.76,12.69,12.69,0,0,0-.37,1.91,16.89,16.89,0,0,0-.11,1.89v3.48a16.91,16.91,0,0,0,.11,1.89,12.91,12.91,0,0,0,.37,1.92,9.8,9.8,0,0,0,.66,1.77,5.54,5.54,0,0,0,1,1.47,4.6,4.6,0,0,0,1.47,1,5,5,0,0,0,2,.36,5.41,5.41,0,0,0,2.15-.39,4.3,4.3,0,0,0,1.54-1.09,5.45,5.45,0,0,0,1-1.66,9.12,9.12,0,0,0,.53-2.08h3.14Z" fill="#494949"/></g></g><g opacity="0.5" style="isolation:isolate"><path d="M560.57,255.07h-8.24l-2,6.39h-3.14l8-24.69h2.63l7.84,24.69h-3.12Zm-7.39-2.73h6.56l-3.26-10.72Z" fill="#494949"/></g><circle cx="405.1" cy="147.38" r="114.08" fill="#828282" opacity="0.25" style="isolation:isolate"/><path d="M299,94.4a65.89,65.89,0,1,1-65.88-65.89A65.88,65.88,0,0,1,299,94.4Z" fill="#828282" opacity="0.25" style="isolation:isolate"/><path d="M487.54,205.69a43.45,43.45,0,1,1-43.45-43.45A43.44,43.44,0,0,1,487.54,205.69Z" fill="#828282" opacity="0.45" style="isolation:isolate"/><circle cx="387.65" cy="83.25" r="46.87" fill="#828282" opacity="0.45" style="isolation:isolate"/><g opacity="0.5"><g style="isolation:isolate"><path d="M400.74,95.36h-3V83.95H387.65V95.36h-3V70.67h3V81.28h10.13V70.67h3V95.36Z" fill="#494949"/></g></g><g opacity="0.5"><g style="isolation:isolate"><path d="M359.71,184.85a9.89,9.89,0,0,1-3.58,2.71,10.75,10.75,0,0,1-4.43.86,8.72,8.72,0,0,1-2.81-.47,8.12,8.12,0,0,1-2.3-1.24,8.79,8.79,0,0,1-1.78-1.86,11.63,11.63,0,0,1-1.28-2.31,13.46,13.46,0,0,1-.78-2.61,15.54,15.54,0,0,1-.28-2.76v-2.87a17.72,17.72,0,0,1,.25-2.74,13.86,13.86,0,0,1,.7-2.62,11.74,11.74,0,0,1,1.19-2.33,7.9,7.9,0,0,1,4-3.11,8.19,8.19,0,0,1,2.82-.46,9.22,9.22,0,0,1,3.19.53,7.47,7.47,0,0,1,4.29,3.92,9.13,9.13,0,0,1,.81,3.13h-3.1a8.89,8.89,0,0,0-.58-2,5,5,0,0,0-1-1.55,4.56,4.56,0,0,0-1.52-1,5.34,5.34,0,0,0-2.05-.37,4.76,4.76,0,0,0-3.49,1.41,5.63,5.63,0,0,0-1.07,1.5,10.58,10.58,0,0,0-.7,1.81,12.4,12.4,0,0,0-.39,1.93,15.68,15.68,0,0,0-.12,1.9v2.9a15.11,15.11,0,0,0,.16,1.92,12,12,0,0,0,.45,1.94,9.88,9.88,0,0,0,.78,1.8,6.38,6.38,0,0,0,1.14,1.49,5.06,5.06,0,0,0,3.55,1.42,11.2,11.2,0,0,0,1.35-.05,6.9,6.9,0,0,0,1.37-.27,5.52,5.52,0,0,0,1.24-.55,3.14,3.14,0,0,0,1-.91l0-5.55h-5v-2.65h8Z" fill="#494949"/></g></g><g opacity="0.5"><g style="isolation:isolate"><path d="M452.14,191h3.21v17.18a8.33,8.33,0,0,1-.65,3.16,7.55,7.55,0,0,1-4.21,4.11,8.36,8.36,0,0,1-3.16.58,9,9,0,0,1-3.15-.53,7.15,7.15,0,0,1-4.13-3.86,9.45,9.45,0,0,1-.78-3.1h3.19a5.72,5.72,0,0,0,.42,1.92,4.89,4.89,0,0,0,1,1.54,4.31,4.31,0,0,0,1.5,1,5.15,5.15,0,0,0,2,.36,4.64,4.64,0,0,0,2-.42,4.51,4.51,0,0,0,1.5-1.13,5,5,0,0,0,.95-1.65,6.64,6.64,0,0,0,.37-2V191Z" fill="#494949"/></g></g><path d="M128.06,269.44a36.25,36.25,0,1,1-36.25-36.25A36.25,36.25,0,0,1,128.06,269.44Z" fill="#828282" opacity="0.55" style="isolation:isolate"/><path d="M177.42,317.15a33.48,33.48,0,1,1-33.48-33.48A33.47,33.47,0,0,1,177.42,317.15Z" fill="#828282" opacity="0.55" style="isolation:isolate"/><path d="M514.56,121.59a44.42,44.42,0,1,1-44.41-44.42A44.41,44.41,0,0,1,514.56,121.59Z" fill="#828282" opacity="0.45" style="isolation:isolate"/><path d="M405,176.45a52.39,52.39,0,1,1-52.39-52.4A52.39,52.39,0,0,1,405,176.45Z" fill="#828282" opacity="0.45" style="isolation:isolate"/><circle cx="265.1" cy="501.86" r="76.14" fill="#828282" opacity="0.25" style="isolation:isolate"/><path d="M112.75,333.33a27.65,27.65,0,1,1-27.65-27.65A27.64,27.64,0,0,1,112.75,333.33Z" fill="#828282" opacity="0.55" style="isolation:isolate"/><path d="M521.71,413a33.48,33.48,0,1,1-33.48-33.48A33.47,33.47,0,0,1,521.71,413Z" fill="#828282" opacity="0.55" style="isolation:isolate"/><path d="M561.63,453.44a27.73,27.73,0,1,1-27.73-27.73A27.72,27.72,0,0,1,561.63,453.44Z" fill="#828282" opacity="0.55" style="isolation:isolate"/><g opacity="0.5"><g style="isolation:isolate"><path d="M257.59,514.71V490h5.72a12.37,12.37,0,0,1,4.6.87,9.67,9.67,0,0,1,3.43,2.34,10.14,10.14,0,0,1,2.14,3.59,14.18,14.18,0,0,1,.75,4.64v1.82a14.18,14.18,0,0,1-.75,4.64,10.13,10.13,0,0,1-2.14,3.59,9.67,9.67,0,0,1-3.43,2.34,12.14,12.14,0,0,1-4.6.86h-5.72Zm3.19-22.12v19.56h2.53a8.23,8.23,0,0,0,3.46-.7,6.75,6.75,0,0,0,2.42-1.87,7.89,7.89,0,0,0,1.42-2.8,12.93,12.93,0,0,0,.48-3.49v-1.85a12.63,12.63,0,0,0-.49-3.49,8,8,0,0,0-1.42-2.78,6.63,6.63,0,0,0-2.41-1.86,8.51,8.51,0,0,0-3.46-.71h-2.53Z" fill="#494949"/></g></g><g opacity="0.5"><g style="isolation:isolate"><path d="M464,109.15H478.9v2.73H473v19.25h5.92v2.71H464v-2.71h5.78V111.88H464v-2.73Z" fill="#494949"/></g></g><g opacity="0.5"><g style="isolation:isolate"><path d="M150.38,323.75a3.4,3.4,0,0,0-.52-1.92,4.61,4.61,0,0,0-1.33-1.31,8.64,8.64,0,0,0-1.79-.89q-1-.36-1.87-0.64a28.17,28.17,0,0,1-2.65-1,11.55,11.55,0,0,1-2.46-1.46,7.33,7.33,0,0,1-1.81-2,5.3,5.3,0,0,1-.7-2.77,5.72,5.72,0,0,1,.7-2.85,6.85,6.85,0,0,1,1.84-2.12,8.28,8.28,0,0,1,2.58-1.31,9.69,9.69,0,0,1,2.9-.45,9.16,9.16,0,0,1,3.1.53A8.59,8.59,0,0,1,151,307a7.35,7.35,0,0,1,1.85,2.34,7,7,0,0,1,.73,3.07h-3.22a6.86,6.86,0,0,0-.53-1.94,4.8,4.8,0,0,0-1-1.5,4.56,4.56,0,0,0-1.54-1,5.49,5.49,0,0,0-2-.35,6.12,6.12,0,0,0-1.76.25,4.72,4.72,0,0,0-1.53.76,3.82,3.82,0,0,0-1.07,1.25,3.62,3.62,0,0,0-.4,1.73,3.12,3.12,0,0,0,.54,1.81,4.68,4.68,0,0,0,1.33,1.25,8.9,8.9,0,0,0,1.75.85q0.94,0.34,1.77.59t1.85,0.65a15.38,15.38,0,0,1,1.8.84,11.39,11.39,0,0,1,1.61,1.07,7.18,7.18,0,0,1,1.31,1.35,6,6,0,0,1,1.19,3.67,5.56,5.56,0,0,1-.74,2.9,6.65,6.65,0,0,1-1.91,2.06,8.63,8.63,0,0,1-2.65,1.24,10.87,10.87,0,0,1-3,.42,10.41,10.41,0,0,1-3.22-.51,9.25,9.25,0,0,1-2.82-1.47,7.67,7.67,0,0,1-2-2.34,6.68,6.68,0,0,1-.83-3.15h3.21a6,6,0,0,0,.63,2,5,5,0,0,0,1.22,1.51,5.11,5.11,0,0,0,1.72.93,6.89,6.89,0,0,0,2.13.31,7.2,7.2,0,0,0,1.81-.23,4.88,4.88,0,0,0,1.59-.71,3.91,3.91,0,0,0,1.14-1.22A3.35,3.35,0,0,0,150.38,323.75Z" fill="#494949"/></g></g><g opacity="0.5"><g style="isolation:isolate"><path d="M96.49,325.34H88.86v22H85.8v-22H78.17v-2.68H96.49v2.68Z" fill="#494949"/></g></g><g opacity="0.5"><g style="isolation:isolate"><path d="M91.67,269.64H86.73v10.07H83.61V255h7.24a12.13,12.13,0,0,1,3.26.49,7.84,7.84,0,0,1,2.67,1.37,6.4,6.4,0,0,1,1.8,2.3,7.54,7.54,0,0,1,.65,3.25,6.53,6.53,0,0,1-1.31,4,7,7,0,0,1-1.46,1.44A9.39,9.39,0,0,1,94.6,269l5.24,10.55,0,0.2H96.52Zm-4.94-2.58h4.21a6.51,6.51,0,0,0,2-.33,5,5,0,0,0,1.64-.91,4.28,4.28,0,0,0,1.11-1.45,4.56,4.56,0,0,0,.41-2,5.14,5.14,0,0,0-.39-2.08,4.14,4.14,0,0,0-1.08-1.49,4.66,4.66,0,0,0-1.65-.91,7.26,7.26,0,0,0-2.09-.32H86.73v9.46Z" fill="#494949"/></g></g><g opacity="0.5"><g style="isolation:isolate"><path d="M540.95,454.53a19.13,19.13,0,0,1-.24,2.76A15.48,15.48,0,0,1,540,460a12,12,0,0,1-1.15,2.42,8.28,8.28,0,0,1-1.69,2l4.26,3.54-2.15,2.05-4.88-4.14a8.14,8.14,0,0,1-2.27.3,7.83,7.83,0,0,1-2.83-.48,7.61,7.61,0,0,1-2.23-1.31,8.53,8.53,0,0,1-1.69-2,12.07,12.07,0,0,1-1.17-2.42,15,15,0,0,1-.68-2.67,18.85,18.85,0,0,1-.24-2.74v-2.17a19.06,19.06,0,0,1,.24-2.75,15,15,0,0,1,.68-2.68,12.74,12.74,0,0,1,1.15-2.42,8.39,8.39,0,0,1,1.67-2,7.53,7.53,0,0,1,2.24-1.32,8.59,8.59,0,0,1,5.68,0,7.62,7.62,0,0,1,2.24,1.31,8.4,8.4,0,0,1,1.68,2,12.07,12.07,0,0,1,1.15,2.42,15.47,15.47,0,0,1,.67,2.69,19.23,19.23,0,0,1,.24,2.76v2.17Zm-3.12-2.21q0-.93-0.11-1.94a13,13,0,0,0-.34-2,10.19,10.19,0,0,0-.66-1.86,6,6,0,0,0-1-1.55,4.6,4.6,0,0,0-1.5-1.06,5,5,0,0,0-2-.39,4.6,4.6,0,0,0-3.51,1.47,6,6,0,0,0-1,1.55,10.65,10.65,0,0,0-.67,1.86,13.84,13.84,0,0,0-.36,2,17.57,17.57,0,0,0-.11,1.92v2.21a17.57,17.57,0,0,0,.11,1.92,14.07,14.07,0,0,0,.36,2,10.57,10.57,0,0,0,.67,1.87,6.14,6.14,0,0,0,1,1.56,4.66,4.66,0,0,0,1.5,1.08,5.38,5.38,0,0,0,4.07,0,4.69,4.69,0,0,0,1.5-1.07,5.8,5.8,0,0,0,1-1.55,10.55,10.55,0,0,0,.65-1.87,13.26,13.26,0,0,0,.34-2q0.09-1,.11-1.94v-2.21Z" fill="#494949"/></g></g><g opacity="0.5"><g style="isolation:isolate"><path d="M484.53,415.15v9.9h-3.14V400.36h8a10.62,10.62,0,0,1,3.15.53,7.91,7.91,0,0,1,2.6,1.42,6.71,6.71,0,0,1,1.77,2.31,7.93,7.93,0,0,1,0,6.3,6.73,6.73,0,0,1-1.77,2.3,7.91,7.91,0,0,1-2.6,1.42,10.28,10.28,0,0,1-3.15.51h-4.87Zm0-2.58h4.87a6.15,6.15,0,0,0,2-.35,4.78,4.78,0,0,0,1.59-.94,4.27,4.27,0,0,0,1.06-1.48,4.94,4.94,0,0,0,.38-2,5.13,5.13,0,0,0-.38-2,4.46,4.46,0,0,0-1.05-1.53,4.66,4.66,0,0,0-1.59-1,6.09,6.09,0,0,0-2-.36h-4.87v9.63Z" fill="#494949"/></g></g><g opacity="0.5" style="isolation:isolate"><path d="M315,118V93.26h7.34a12.24,12.24,0,0,1,3,.4,8,8,0,0,1,2.6,1.18,5.73,5.73,0,0,1,2.48,5,5.3,5.3,0,0,1-.31,1.76,5,5,0,0,1-.81,1.43,5.69,5.69,0,0,1-1.21,1.11,8.89,8.89,0,0,1-1.48.81,6.89,6.89,0,0,1,1.81.82,5.77,5.77,0,0,1,2.34,3,6.19,6.19,0,0,1,.33,2.05,6.46,6.46,0,0,1-.66,3.05,6.62,6.62,0,0,1-1.81,2.21,8.3,8.3,0,0,1-2.62,1.37,10.37,10.37,0,0,1-3.06.49H315Zm3.15-14.16h4.38a6.25,6.25,0,0,0,1.73-.28,4.87,4.87,0,0,0,1.51-.76,3.93,3.93,0,0,0,1.07-1.23,3.43,3.43,0,0,0,.41-1.7,3.63,3.63,0,0,0-.4-1.76,3.45,3.45,0,0,0-1.07-1.2,4.7,4.7,0,0,0-1.54-.69,7.94,7.94,0,0,0-1.79-.24h-4.29v7.85Zm0,2.61v8.89h4.83a5.82,5.82,0,0,0,1.87-.33,5.13,5.13,0,0,0,1.56-.87,4.08,4.08,0,0,0,1.08-1.37,4.15,4.15,0,0,0,.4-1.85,4.34,4.34,0,0,0-.35-1.87,4,4,0,0,0-1-1.38,4.53,4.53,0,0,0-1.51-.87,6.25,6.25,0,0,0-1.87-.34h-5Z" fill="#494949"/></g><g opacity="0.5"><g style="isolation:isolate"><path d="M153.52,260.57a18.75,18.75,0,0,1-.23,2.67,14.79,14.79,0,0,1-.65,2.6,11.45,11.45,0,0,1-1.13,2.34,8.39,8.39,0,0,1-1.64,1.9,7.32,7.32,0,0,1-2.18,1.28,8.39,8.39,0,0,1-5.51,0,7.31,7.31,0,0,1-2.18-1.28,8.49,8.49,0,0,1-1.65-1.91,11.72,11.72,0,0,1-1.15-2.35,14.77,14.77,0,0,1-.67-2.59,17.76,17.76,0,0,1-.24-2.66v-2.82a18.69,18.69,0,0,1,.23-2.67,14.3,14.3,0,0,1,.66-2.6,12,12,0,0,1,1.14-2.35,8.46,8.46,0,0,1,1.64-1.92,7.18,7.18,0,0,1,2.18-1.29,8.39,8.39,0,0,1,5.52,0,7.25,7.25,0,0,1,2.19,1.28,8.33,8.33,0,0,1,1.64,1.91,12.05,12.05,0,0,1,1.14,2.35,14.28,14.28,0,0,1,.66,2.61,18.93,18.93,0,0,1,.23,2.68v2.82Zm-3.1-2.85q0-.88-0.12-1.84A12.87,12.87,0,0,0,150,254a10.13,10.13,0,0,0-.65-1.8,5.9,5.9,0,0,0-1-1.51,4.41,4.41,0,0,0-3.37-1.42,4.47,4.47,0,0,0-1.92.39,4.69,4.69,0,0,0-1.44,1,5.9,5.9,0,0,0-1,1.51,10.16,10.16,0,0,0-.65,1.8,13.66,13.66,0,0,0-.36,1.9q-0.11,1-.13,1.82v2.85q0,0.86.13,1.83a12.85,12.85,0,0,0,.36,1.91,11,11,0,0,0,.66,1.81,5.87,5.87,0,0,0,1,1.52,4.66,4.66,0,0,0,1.44,1,4.49,4.49,0,0,0,1.93.39,4.43,4.43,0,0,0,3.38-1.43,5.85,5.85,0,0,0,1-1.51,10.59,10.59,0,0,0,.64-1.8,12.21,12.21,0,0,0,.34-1.91q0.09-1,.11-1.85v-2.85Z" fill="#494949"/></g></g></svg>