<?xml version="1.0" encoding="utf-8"?>
<!-- Generator: Adobe Illustrator 22.1.0, SVG Export Plug-In . SVG Version: 6.00 Build 0)  -->
<svg version="1.1" id="Layer_1" xmlns="http://www.w3.org/2000/svg" xmlns:xlink="http://www.w3.org/1999/xlink" x="0px" y="0px"
	 viewBox="0 0 500 353" style="enable-background:new 0 0 500 353;" xml:space="preserve">
<style type="text/css">
	.st0{fill:#514361;}
	.st1{font-family:'Roboto-Italic';}
	.st2{font-size:10.3458px;}
	.st3{fill:#B2B2B2;}
	.st4{fill:none;stroke:#B2B2B2;stroke-miterlimit:10;}
	.st5{fill:none;stroke:#B2B2B2;stroke-width:4;stroke-miterlimit:10;}
	.st6{font-family:'RobotoMono-Regular';}
	.st7{font-size:16.0935px;}
	
		.st8{opacity:0.8;fill:none;stroke:#A8A8A8;stroke-width:1.5;stroke-linecap:round;stroke-miterlimit:10;stroke-dasharray:0,3;enable-background:new    ;}
	.st9{fill:none;stroke:#B2B2B2;stroke-width:2;stroke-miterlimit:10;}
</style>
<text transform="matrix(1 0 0 1 379.5156 49.5142)" class="st0 st1 st2">can be weighted</text>
<text transform="matrix(1 0 0 1 379.5156 61.9292)" class="st0 st1 st2">and unweighted</text>
<text transform="matrix(1 0 0 1 172.021 310.9199)" class="st0 st1 st2">can be equal or weighted</text>
<g>
	<ellipse class="st3" cx="26.2" cy="217" rx="22.2" ry="23.3"/>
	<ellipse class="st3" cx="106.7" cy="217" rx="9.9" ry="10.4"/>
	<ellipse class="st3" cx="187.2" cy="217" rx="9.9" ry="10.4"/>
	<ellipse class="st3" cx="267.6" cy="217" rx="9.9" ry="10.4"/>
	<ellipse class="st3" cx="428.6" cy="217" rx="9.9" ry="10.4"/>
</g>
<path class="st4" d="M25.1,217.2c0-111.6,90.5-202,202-202s202,90.5,202,202"/>
<path class="st5" d="M106.1,217.2c0-89.2,72.3-161.5,161.5-161.5S429.1,128,429.1,217.2"/>
<path class="st4" d="M25.1,217.2c0-67,54.3-121.3,121.3-121.3s121.3,54.3,121.3,121.3"/>
<path class="st4" d="M25.1,217.2c0-44.8,36.3-81,81-81s81,36.3,81,81"/>
<text transform="matrix(1 0 0 1 165.583 296.8076)" class="st0 st6 st7">node distance</text>
<text transform="matrix(1 0 0 1 442.0459 240.2793)" class="st0 st6 st7">X-axis</text>
<path class="st8" d="M26.2,269v11.4"/>
<text transform="matrix(1 0 0 1 6.7695 299.6816)" class="st0 st6 st7">node</text>
<path class="st8" d="M377.7,82.5l39-15.9"/>
<text transform="matrix(1 0 0 1 401.916 33.0405)" class="st0 st6 st7">arcs</text>
<path class="st8" d="M416.1,66.6l-34.2,31.8"/>
<text transform="matrix(1 0 0 1 22.4121 259.0684)" class="st0 st6 st7">A</text>
<text transform="matrix(1 0 0 1 101.7261 259.0684)" class="st0 st6 st7">B</text>
<text transform="matrix(1 0 0 1 183.3433 259.0684)" class="st0 st6 st7">C</text>
<text transform="matrix(1 0 0 1 262.6611 259.0684)" class="st0 st6 st7">D</text>
<text transform="matrix(1 0 0 1 424.7461 259.0684)" class="st0 st6 st7">E</text>
<path class="st8" d="M187.6,265.4v10.9h81.4v-10.9"/>
<line class="st9" x1="25.1" y1="217.2" x2="455.5" y2="217.2"/>
</svg>
