<?xml version="1.0" encoding="utf-8"?>
<!-- Generator: Adobe Illustrator 22.1.0, SVG Export Plug-In . SVG Version: 6.00 Build 0)  -->
<svg version="1.1" xmlns="http://www.w3.org/2000/svg" xmlns:xlink="http://www.w3.org/1999/xlink" x="0px" y="0px"
	 viewBox="0 0 1268 418" enable-background="new 0 0 1268 418" xml:space="preserve">
<g id="Layer_1">
	<line fill="none" stroke="#C4C4C4" stroke-miterlimit="10" x1="14.6" y1="372.8" x2="1257" y2="372.8"/>
	<path fill="none" stroke="#968BAF" stroke-width="2" stroke-miterlimit="10" d="M9.9,373.3C68,160,263.1,3.2,494.8,3.2
		c231.7,0,426.8,156.8,485,370.1"/>
	<path fill="none" stroke="#7E729E" stroke-width="2" stroke-miterlimit="10" d="M145.7,373.3C203.2,236.6,338.4,140.7,496,140.7
		s292.8,95.9,350.4,232.6"/>
	<path fill="none" stroke="#4F3D6E" stroke-width="2" stroke-miterlimit="10" d="M424.8,373.3C462.9,177.4,635.4,29.5,842.5,29.5
		s379.6,147.9,417.7,343.8"/>
	<path fill="none" stroke="#F1C7A3" stroke-width="2" stroke-miterlimit="10" d="M561.9,373.3c32.5-162.4,176-284.8,348-284.8
		c172,0,315.4,122.4,348,284.8"/>
	<path fill="none" stroke="#D8BBB8" stroke-width="2" stroke-miterlimit="10" d="M699.3,373.3c36.5-119.3,147.5-206,278.8-206
		s242.2,86.7,278.8,206"/>
	<path fill="none" stroke="#D8BBB8" stroke-width="2" stroke-miterlimit="10" d="M697.4,373.3c36.7-80.1,117.6-135.8,211.5-135.8
		c93.9,0,174.8,55.7,211.5,135.8"/>
	<path fill="none" stroke="#80656E" stroke-width="2" stroke-miterlimit="10" d="M838.5,373.3c32.7-83.2,113.6-142.1,208.4-142.1
		s175.8,58.9,208.4,142.1"/>
	<path fill="none" stroke="#A4A6B8" stroke-width="2" stroke-miterlimit="10" d="M840.2,373.3c22.8-54.2,76.4-92.2,138.9-92.2
		s116,38,138.9,92.2"/>
	<path fill="none" stroke="#CA9F9B" stroke-width="2" stroke-miterlimit="10" d="M976.6,373.3c11.4-27.1,38.3-46.2,69.6-46.2
		c31.3,0,58.1,19,69.6,46.2"/>
	<path fill="none" stroke="#A4A6B8" stroke-width="2" stroke-miterlimit="10" d="M700.2,373.3c9.8-29.8,37.9-51.3,71-51.3
		c33.1,0,61.2,21.5,71,51.3"/>
	<path fill="none" stroke="#F1C7A3" stroke-width="2" stroke-miterlimit="10" d="M563.8,373.3c20.5-57.5,75.5-98.6,140-98.6
		s119.5,41.1,140,98.6"/>
	<path fill="none" stroke="#F1C7A3" stroke-width="2" stroke-miterlimit="10" d="M563.3,373.3c22.8-93.4,107-162.8,207.4-162.8
		s184.7,69.3,207.4,162.8"/>
	<path fill="none" stroke="#7E729E" stroke-width="2" stroke-miterlimit="10" d="M147.1,373.3c28.2-48.3,80.5-80.8,140.5-80.8
		S399.9,325,428,373.3"/>
	<path fill="none" stroke="#443567" stroke-width="2" stroke-miterlimit="10" d="M285.3,373.3c23.6-53.5,77.1-90.8,139.3-90.8
		s115.7,37.3,139.3,90.8"/>
	<path fill="none" stroke="#443567" stroke-width="2" stroke-miterlimit="10" d="M287.4,373.3c13-24.8,39.1-41.7,69-41.7
		c30,0,56,16.9,69.1,41.7"/>
	<path fill="none" stroke="#968BAF" stroke-width="2" stroke-miterlimit="10" d="M11.3,373.3c52-140.9,187.5-241.5,346.5-241.5
		s294.5,100.5,346.5,241.5"/>
	<path fill="none" stroke="#968BAF" stroke-width="2" stroke-miterlimit="10" d="M13.5,373.3c41.6-111.6,149.2-191.1,275.3-191.1
		c126.1,0,233.7,79.5,275.3,191.1"/>
	<path fill="none" stroke="#968BAF" stroke-width="2" stroke-miterlimit="10" d="M14.2,373.3c37.3-77,116.2-130,207.5-130
		s170.2,53.1,207.5,130"/>
	<g>
		<g>
			<text transform="matrix(1 0 0 1 10.1748 412.3511)" fill="#D1CDC9" font-family="'RobotoCondensed-Regular'" font-size="18px">A</text>
		</g>
		<g>
			<text transform="matrix(1 0 0 1 141.6562 412.3511)" fill="#D1CDC9" font-family="'RobotoCondensed-Regular'" font-size="18px">B</text>
		</g>
		<g>
			<text transform="matrix(1 0 0 1 282.3911 412.3511)" fill="#D1CDC9" font-family="'RobotoCondensed-Regular'" font-size="18px">C</text>
		</g>
		<g>
			<text transform="matrix(1 0 0 1 422.0493 412.3511)" fill="#D1CDC9" font-family="'RobotoCondensed-Regular'" font-size="18px">D</text>
		</g>
		<g>
			<text transform="matrix(1 0 0 1 559.3818 412.3511)" fill="#D1CDC9" font-family="'RobotoCondensed-Regular'" font-size="18px">E</text>
		</g>
		<g>
			<text transform="matrix(1 0 0 1 697.9551 412.3511)" fill="#D1CDC9" font-family="'RobotoCondensed-Regular'" font-size="18px">F</text>
		</g>
		<g>
			<text transform="matrix(1 0 0 1 837.041 412.3511)" fill="#D1CDC9" font-family="'RobotoCondensed-Regular'" font-size="18px">G</text>
		</g>
		<g>
			<text transform="matrix(1 0 0 1 972.7842 412.3511)" fill="#D1CDC9" font-family="'RobotoCondensed-Regular'" font-size="18px">H</text>
		</g>
		<g>
			<text transform="matrix(1 0 0 1 1111.9297 412.3511)" fill="#D1CDC9" font-family="'RobotoCondensed-Regular'" font-size="18px">I</text>
		</g>
		<g>
			<text transform="matrix(1 0 0 1 1250.5107 412.3511)" fill="#D1CDC9" font-family="'RobotoCondensed-Regular'" font-size="18px">J</text>
		</g>
	</g>
	<path fill="#968BAF" d="M14.8,360.8c-6.6,0-12.1,5.4-12.1,12.1s5.4,12.1,12.1,12.1c6.6,0,12.1-5.4,12.1-12.1S21.4,360.8,14.8,360.8
		z"/>
	<circle fill="#7E729E" cx="146.9" cy="372.8" r="9.5"/>
	<circle fill="#443567" cx="287.6" cy="372.8" r="4.5"/>
	<circle fill="#8E7F96" cx="426.2" cy="372.8" r="9.5"/>
	<circle fill="#F1C7A3" cx="563.8" cy="372.8" r="14.5"/>
	<circle fill="#D8BBB8" cx="702.4" cy="372.8" r="9.5"/>
	<circle fill="#A4A6B8" cx="843.1" cy="372.8" r="12.1"/>
	<circle fill="#CA9F9B" cx="977.7" cy="372.8" r="7"/>
	<circle fill="#717291" cx="1117.3" cy="372.8" r="7"/>
	<circle fill="#80656E" cx="1256" cy="372.8" r="9.5"/>
</g>
<g id="Layer_2">
</g>
<g id="Layer_3">
</g>
</svg>
