<?xml version="1.0" encoding="utf-8"?>
<!-- Generator: Adobe Illustrator 24.0.1, SVG Export Plug-In . SVG Version: 6.00 Build 0)  -->
<svg version="1.1" id="Layer_1" xmlns="http://www.w3.org/2000/svg" xmlns:xlink="http://www.w3.org/1999/xlink" x="0px" y="0px"
	 viewBox="0 0 256 256" style="enable-background:new 0 0 256 256;" xml:space="preserve">
<path d="M254.5,122.6H0c-0.6-10.5,13.1,7.5,43.2-43.2C69,36.2,76,30.4,93.3,23.3c4.5-1.9,19.6-8.6,63.2,30.6
	c22.4,20.1,26.6,13,47.7,31.8c34.6,30.9,21.1,20,35.5,25C254.1,115.7,254.4,120.9,254.5,122.6z M40.2,138.2c0-2.4-1.8-4.4-4.1-4.4
	c-2.3,0-4.1,2-4.1,4.4s1.8,4.4,4.1,4.4C38.4,142.5,40.2,140.6,40.2,138.2z M6.5,144.7c-2.3,0-4.1,2-4.1,4.4s1.8,4.4,4.1,4.4
	c2.3,0,4.1-2,4.1-4.4S8.8,144.7,6.5,144.7z M5.5,173c-2.3,0-4.1,2-4.1,4.4s1.8,4.4,4.1,4.4c2.3,0,4.1-2,4.1-4.4S7.8,173,5.5,173z
	 M40.2,145.6c-2.3,0-4.1,2-4.1,4.4s1.8,4.4,4.1,4.4c2.3,0,4.1-2,4.1-4.4S42.5,145.6,40.2,145.6z M39.2,173.9c-2.3,0-4.1,2-4.1,4.4
	c0,2.4,1.8,4.4,4.1,4.4c2.3,0,4.1-2,4.1-4.4C43.3,175.9,41.4,173.9,39.2,173.9z M74.3,138.6c0-2.4-1.8-4.4-4.1-4.4
	c-2.3,0-4.1,2-4.1,4.4s1.8,4.4,4.1,4.4C72.5,143,74.3,141,74.3,138.6z M73.2,160.3c-2.3,0-4.1,2-4.1,4.4s1.8,4.4,4.1,4.4
	c2.3,0,4.1-2,4.1-4.4S75.5,160.3,73.2,160.3z M74.3,146.1c-2.3,0-4.1,2-4.1,4.4c0,2.4,1.8,4.4,4.1,4.4c2.3,0,4.1-2,4.1-4.4
	C78.4,148.1,76.6,146.1,74.3,146.1z M73.2,174.4c-2.3,0-4.1,2-4.1,4.4s1.8,4.4,4.1,4.4c2.3,0,4.1-2,4.1-4.4S75.5,174.4,73.2,174.4z
	 M110.7,138.6c0-2.4-1.8-4.4-4.1-4.4c-2.3,0-4.1,2-4.1,4.4s1.8,4.4,4.1,4.4C108.9,143,110.7,141,110.7,138.6z M98.4,159.2
	c0,2.4,1.8,4.4,4.1,4.4c2.3,0,4.1-2,4.1-4.4c0-2.4-1.8-4.4-4.1-4.4C100.2,154.8,98.4,156.8,98.4,159.2z M110.7,146.1
	c-2.3,0-4.1,2-4.1,4.4c0,2.4,1.8,4.4,4.1,4.4c2.3,0,4.1-2,4.1-4.4C114.9,148.1,113,146.1,110.7,146.1z M109.7,183.2
	c2.3,0,4.1-2,4.1-4.4s-1.8-4.4-4.1-4.4c-2.3,0-4.1,2-4.1,4.4S107.4,183.2,109.7,183.2z M143.8,143c2.3,0,4.1-2,4.1-4.4
	s-1.8-4.4-4.1-4.4c-2.3,0-4.1,2-4.1,4.4S141.5,143,143.8,143z M143.8,152.7c2.3,0,4.1-2,4.1-4.4s-1.8-4.4-4.1-4.4
	c-2.3,0-4.1,2-4.1,4.4S141.5,152.7,143.8,152.7z M155,154.8c2.3,0,4.1-2,4.1-4.4c0-2.4-1.8-4.4-4.1-4.4c-2.3,0-4.1,2-4.1,4.4
	C150.9,152.9,152.7,154.8,155,154.8z M146.8,183.2c2.3,0,4.1-2,4.1-4.4s-1.8-4.4-4.1-4.4c-2.3,0-4.1,2-4.1,4.4
	S144.5,183.2,146.8,183.2z M180.7,149c0,2.4,1.8,4.4,4.1,4.4c2.3,0,4.1-2,4.1-4.4s-1.8-4.4-4.1-4.4
	C182.5,144.7,180.7,146.6,180.7,149z M145.9,168c2.3,0,4.1-2,4.1-4.4s-1.8-4.4-4.1-4.4c-2.3,0-4.1,2-4.1,4.4S143.6,168,145.9,168z
	 M210.1,163.6c0,2.4,1.8,4.4,4.1,4.4c2.3,0,4.1-2,4.1-4.4s-1.8-4.4-4.1-4.4C212,159.2,210.1,161.2,210.1,163.6z M214.3,182.7
	c0.5,0,0.9-0.1,1.3-0.3c0.8,0.9,1.8,1.5,3.1,1.5c2.3,0,4.1-2,4.1-4.4s-1.8-4.4-4.1-4.4c-0.5,0-0.9,0.1-1.3,0.3
	c-0.8-0.9-1.8-1.5-3.1-1.5c-2.3,0-4.1,2-4.1,4.4C210.1,180.7,212,182.7,214.3,182.7z M244.2,143c2.3,0,4.1-2,4.1-4.4
	c0-0.2,0-0.3,0-0.4c0-0.1,0-0.3,0-0.4c0-2.4-1.8-4.4-4.1-4.4c-2.3,0-4.1,2-4.1,4.4c0,0.2,0,0.3,0,0.4c0,0.1,0,0.3,0,0.4
	C240.1,141,241.9,143,244.2,143z M247.1,160.3c-2.3,0-4.1,2-4.1,4.4s1.8,4.4,4.1,4.4c2.3,0,4.1-2,4.1-4.4S249.3,160.3,247.1,160.3z
	 M247.1,175.9c-2.3,0-4.1,2-4.1,4.4s1.8,4.4,4.1,4.4c2.3,0,4.1-2,4.1-4.4S249.3,175.9,247.1,175.9z M184.3,136
	c-0.7-1.3-2-2.3-3.6-2.3c-2.3,0-4.1,2-4.1,4.4c0,1.1,0.4,2.2,1.1,2.9c0.5,1.9,2.1,3.3,4,3.3c2.3,0,4.1-2,4.1-4.4c0-0.1,0-0.2,0-0.3
	c0-0.1,0-0.2,0-0.3C185.8,138,185.2,136.8,184.3,136z M185.8,160c-2.3,0-4.1,2-4.1,4.4s1.8,4.4,4.1,4.4c2.3,0,4.1-2,4.1-4.4
	S188,160,185.8,160z M184.7,183.9c2.3,0,4.1-2,4.1-4.4c0-1.1-0.4-2.1-1-2.8c-0.3-2.1-2-3.7-4.1-3.7c-2.3,0-4.1,2-4.1,4.4
	c0,1.1,0.4,2.1,1,2.8C180.9,182.3,182.6,183.9,184.7,183.9z M215.6,134.1c-0.7,0-1.4,0.2-1.9,0.5c-0.7-0.5-1.5-0.9-2.4-0.9
	c-2.3,0-4.1,2-4.1,4.4s1.8,4.4,4.1,4.4c0.5,0,0.9-0.1,1.3-0.3c0.8,0.9,1.8,1.5,3.1,1.5c2.3,0,4.1-2,4.1-4.4c0-0.2,0-0.3,0-0.4
	c0-0.1,0-0.3,0-0.4C219.7,136.1,217.9,134.1,215.6,134.1z M256,199.2v30h-7.2V218h-64v15H54.5v-15H7.8v11.2H0.7v-30h7.2v11.2h46.7
	v-15h130.3v15h64v-11.2H256z M177.7,203h-116v7.4v7.6v7.4h116V218v-7.6V203z"/>
</svg>
