<svg enable-background="new 0 0 222 256" height="256" viewBox="0 0 222 256" width="222" xmlns="http://www.w3.org/2000/svg"><path d="m69.796 128.876-26.165 2.453c-.013-.507-.039-1.011-.039-1.521 0-31.403 24.496-57.176 55.38-59.256v26.281c-16.125 1.958-28.717 15.506-29.176 32.043zm66.432.932c0 7.92-2.79 15.199-7.432 20.914l18.254 18.902c9.539-10.543 15.358-24.512 15.358-39.817 0-31.403-24.495-57.176-55.38-59.256v26.281c16.428 1.996 29.2 16.018 29.2 32.976zm-33.228 33.228c-3.983 0-7.804-.706-11.346-1.997l-11.903 23.434c7.145 3.05 15.002 4.742 23.249 4.742 14.561 0 27.907-5.274 38.25-14.001l-18.247-18.895c-5.568 4.213-12.498 6.717-20.003 6.717zm-32.459-26.14-26.172 2.454c2.855 17.603 13.467 32.633 28.208 41.46l11.9-23.429c-6.983-4.707-12.084-11.996-13.936-20.485zm-5.747-62.648-13.379-22.553c-8.243 5.462-15.575 12.19-21.716 19.908l21.186 15.414c4.012-4.877 8.699-9.176 13.909-12.769zm105.669 55.56c0 17.576-6.762 33.598-17.813 45.617l18.205 18.852c15.972-16.803 25.788-39.511 25.788-64.468 0-10.932-1.89-21.43-5.348-31.192l-24.29 9.912c2.231 6.694 3.458 13.844 3.458 21.279zm-134.926 0c0-13.344 3.911-25.785 10.623-36.268l-21.202-15.424c-9.852 14.824-15.601 32.598-15.601 51.693 0 1.584.041 3.158.119 4.723l26.119-2.449c-.026-.757-.058-1.512-.058-2.275zm85.045 65.125 5.603 25.612c14.636-3.742 27.9-10.944 38.874-20.675l-18.209-18.856c-7.512 6.442-16.446 11.264-26.268 13.919zm-21.61-132.457v-26.219c-14.671.624-28.48 4.634-40.659 11.276l13.375 22.547c8.243-4.339 17.483-7.024 27.284-7.604zm65.038 38.573 24.272-9.905c-14.221-31.243-45.12-53.349-81.254-54.887v26.218c25.196 1.493 46.71 16.87 56.982 38.574zm-61.01 96.222c-9.559 0-18.652-2.01-26.899-5.611l-11.875 23.378c11.821 5.399 24.952 8.412 38.774 8.412 5.21 0 10.32-.435 15.301-1.257l-5.607-25.629c-3.167.459-6.402.707-9.694.707zm24.907 31.145 5.596 25.584c20.936-5.143 39.866-15.449 55.346-29.495l-18.193-18.839c-12.035 10.745-26.631 18.677-42.749 22.75zm-80.605-183.654-10.726-18.082-2.755-4.375c-12.178 7.863-22.938 17.739-31.812 29.152l21.172 15.403c6.792-8.594 14.943-16.066 24.121-22.098zm123.525 9.34 18.035-18.979c-21.785-19.773-50.399-32.145-81.834-33.123v26.197c24.457.958 46.723 10.591 63.799 25.905zm24.919 33.996 24.245-9.894c-6.192-13.984-14.819-26.656-25.342-37.479l-18.037 18.982c7.876 8.267 14.377 17.854 19.134 28.391z"/></svg>