<svg xmlns="http://www.w3.org/2000/svg" width="650" height="360" viewBox="0 0 650 360"><defs><style>.a,.c,.d,.e{fill:none;stroke-linecap:round;stroke-linejoin:round;}.a{stroke:#5b5959;stroke-width:1.5px;stroke-dasharray:0 4.98;}.b{fill:#aaa5a5;}.c{stroke:#aaa5a5;stroke-width:3px;}.d{stroke:#fff;stroke-width:2px;}.e{stroke:#7f7f7f;}.f{isolation:isolate;font-size:19px;fill:#a8a8a8;font-family:Roboto Mono;}</style></defs><title>bean-plot</title><path class="a" d="M52.3,164.9H645"/><path class="b" d="M119.3,221.9c0.4,0.5.7,0.1,0.7-.1,0.5-12.2.3-24.3,4.3-36,4.7-13.8,14.2-24.4,22-36.4s11.5-23.5,3.2-36.6c-3.9-6.2-8.7-11.7-12.2-18.2s-4.9-12.1-7.4-18.2c-5-12.3-9.6-21.3-10.2-34.8a57,57,0,0,0-.6-5.8s-0.5-.4-0.5.3a113.6,113.6,0,0,1-1.3,17.5c-1.1,6.5-4.3,12.3-7,18.2S106,84,103.4,90s-7.1,12.3-11.3,18.2c-8.9,12.6-10.7,23.1-2.7,36.6s17.6,23,23.2,36.4c4.8,11.7,6.4,23.9,6.7,36.4a30.8,30.8,0,0,0,0,4.3h0Z"/><path class="b" d="M232.8,221.9c0.3,0.5.8,0.2,0.8-.7,0.7-15.5.3-34.1,10.7-46.7,8.4-10.2,21.6-15,30-25,11.2-13.4-5.8-26.2-15.4-34C247.2,106,237,96.7,236.5,80.4c-0.3-8.4.1-16.6-1.1-24.9a209.4,209.4,0,0,1-2.4-25V28.4c0-1.4,0-2.7-.1-4.1s-0.4-.1-0.4,0c-0.3,16.8-3.6,33.2-3.4,49.9,0.1,9-.4,17.4-5.6,25.1-3.5,5.1-8.2,9.2-12.9,13-8.5,7.1-27.5,19-22.2,32.4s21.4,17.9,30.1,26.7c11.7,11.8,13.9,28.8,14.3,44.7a56.1,56.1,0,0,0,0,5.8h0Z"/><path class="b" d="M346.3,244.5a0.6,0.6,0,0,0,.7.2l0.2-.3c0.7-7.2-.1-16.3,2.5-23.4a89.9,89.9,0,0,1,7.4-14.9c5.8-10.1,12.4-20.8,14.2-32.5,1.3-8.3-.9-15.9-2.7-23.9s-1.6-15.8-1.9-23.9C366,108.8,356,94.4,352.8,78s-6.1-31.7-6.5-47.6c-0.1-2-.1-4-0.1-6a0.5,0.5,0,0,0-.6-0.1c-0.1,0-.1.1-0.1,0.2-0.1,16.2-2.4,31.6-4.9,47.5s-11.9,31.2-14.3,47.6c-1.2,7.9-.1,15.8-1.2,23.7s-4.2,15.7-4.4,23.9c-0.2,13.1,6.7,25.2,13,36.2S345.3,225.5,346,239C346.2,240.8,346.2,242.8,346.3,244.5Z"/><path class="b" d="M459.1,255.8a0.8,0.8,0,0,0,.8.8h0.2a0.8,0.8,0,0,0,.8-0.8h0c0.4-5.1-.1-11.4,1.5-16.5,2.1-6.9,6.2-12.5,11.4-17.4,7.8-7.4,18.1-13.6,23.6-23.1,8.4-14.5-8.2-24.2-16.7-33.5-4.6-5.1-6.9-10.3-5.8-17.1s2.6-11.3.2-17.3-7.3-11.2-10.3-17.1-3.8-11.2-4.2-17.2c-0.1-1.4-.1-2.9-0.1-4.3a0.6,0.6,0,0,0-.6-0.6h0a0.6,0.6,0,0,0-.6.6h0c-0.2,5.8-.1,11.7-2.2,17.2s-6.7,11.4-10,17.1a22.8,22.8,0,0,0-2.9,17.1c1.2,6.2,2.2,11.4-1.3,17.1-6.4,10.3-25.7,18.5-22.3,33,2.5,10.8,14.6,18.2,22.5,25.1,10.5,9.3,15.3,18.8,16.1,32.9a19,19,0,0,0-.1,4.1h0Z"/><path class="b" d="M544.5,172.9c-4.7,9.3-.5,17.7,2.3,26.7s2.8,18.4,5.3,27.4c3.4,11.9,12.3,20.8,17.1,32.1,3.6,8.6,3.6,21.4,3.6,30.5a0.7,0.7,0,0,0,1.4,0c0.1-16,1.3-29.2,10-42.8a107.2,107.2,0,0,0,8.1-13.9c3.7-8.5,3.9-17.6,5.7-26.5s7.2-17.4,6.3-26.3c-0.6-6.4-4.7-11.7-8.5-16.6-8.5-10.9-15.3-21-17.8-34.9-3.1-17.1-4.1-35.4-4.4-52.8,0-2.2,0-4.3-.1-6.5a0.3,0.3,0,0,0-.2-0.4H573a0.3,0.3,0,0,0-.3.3h0c-0.2,16.8-1.5,33.4-3.2,50.2-1.5,14.3-5.6,26.7-14.4,38.1-3.6,4.6-7.6,9.1-10.4,14.2"/><path class="c" d="M62.5,126.3H176.1"/><path class="c" d="M176.1,135.5H289.6"/><path class="c" d="M289.6,146.8H403.1"/><path class="c" d="M403.1,179.2H516.6"/><path class="c" d="M516.6,192.2H630.2"/><path class="d" d="M114.8,179.6h9"/><path class="d" d="M105.7,157h27.2"/><path class="d" d="M112.5,145.7h13.6"/><path class="d" d="M101.1,134.4h36.4"/><path class="d" d="M105.7,123.1h27.2"/><path class="d" d="M105.7,111.8h27.2"/><path class="d" d="M112.5,100.5h13.6"/><path class="d" d="M117,89.2h4.6"/><path class="d" d="M110.2,77.9h18.2"/><path class="d" d="M230.5,179.6h4.6"/><path class="d" d="M226,157h13.6"/><path class="d" d="M216.9,145.7h31.8"/><path class="d" d="M228.3,134.4h9.1"/><path class="d" d="M219.2,123.1h27.2"/><path class="d" d="M230.5,100.5h4.6"/><path class="d" d="M230.5,66.6h4.6"/><path class="d" d="M341.8,202.2h9.1"/><path class="d" d="M344.1,190.9h4.5"/><path class="d" d="M339.5,179.6h13.7"/><path class="d" d="M341.8,168.3h9.1"/><path class="d" d="M339.5,157h13.7"/><path class="d" d="M344.1,145.7h4.5"/><path class="d" d="M341.8,134.4h9.1"/><path class="d" d="M341.8,123.1h9.1"/><path class="d" d="M341.8,111.8h9.1"/><path class="d" d="M344.1,100.5h4.5"/><path class="d" d="M344.1,89.2h4.5"/><path class="d" d="M344.1,66.6h4.5"/><path class="d" d="M453.1,213.5h13.6"/><path class="d" d="M448.5,202.2h22.7"/><path class="d" d="M448.5,190.9h22.7"/><path class="d" d="M446.3,179.6h27.2"/><path class="d" d="M455.3,168.3h9.1"/><path class="d" d="M457.6,145.7h4.5"/><path class="d" d="M448.5,134.4h22.7"/><path class="d" d="M571.1,247.4h4.6"/><path class="d" d="M564.3,236.1h18.2"/><path class="d" d="M566.6,224.8h13.6"/><path class="d" d="M564.3,213.5h18.2"/><path class="d" d="M566.6,202.2h13.6"/><path class="d" d="M564.3,190.9h18.2"/><path class="d" d="M557.5,179.6h31.8"/><path class="d" d="M564.3,168.3h18.2"/><path class="d" d="M568.9,157h9"/><path class="d" d="M571.1,145.7h4.6"/><path class="d" d="M571.1,134.4h4.6"/><path class="d" d="M571.7,111.8h2.9"/><path class="e" d="M52.3,315.2H644.1V10.2H52.3v305Z"/><path class="e" d="M52.3,303.9H40.4"/><path class="e" d="M52.3,247.4H40.4"/><path class="e" d="M52.3,190.9H40.4"/><path class="e" d="M52.3,134.4H40.4"/><path class="e" d="M52.3,77.9H40.4"/><path class="e" d="M52.3,21.5H40.4"/><text class="f" transform="translate(23.6 315.3) rotate(-90)">55</text><text class="f" transform="translate(23.6 258.8) rotate(-90)">60</text><text class="f" transform="translate(23.6 202.3) rotate(-90)">65</text><text class="f" transform="translate(23.6 145.8) rotate(-90)">70</text><text class="f" transform="translate(23.6 89.3) rotate(-90)">75</text><text class="f" transform="translate(23.6 32.9) rotate(-90)">80</text><path class="e" d="M119.3,315.2v11.9"/><path class="e" d="M232.8,315.2v11.9"/><path class="e" d="M346.3,315.2v11.9"/><path class="e" d="M459.9,315.2v11.9"/><path class="e" d="M573.4,315.2v11.9"/><text class="f" transform="translate(102.2 350.7)">mar</text><text class="f" transform="translate(218.8 350.7)">apr</text><text class="f" transform="translate(327.4 350.7)">may</text><text class="f" transform="translate(443 350.7)">jun</text><text class="f" transform="translate(556.6 350.7)">jul</text></svg>