<?xml version="1.0" encoding="utf-8"?>
<!-- Generator: Adobe Illustrator 24.0.1, SVG Export Plug-In . SVG Version: 6.00 Build 0)  -->
<svg version="1.1" id="Layer_1" xmlns="http://www.w3.org/2000/svg" xmlns:xlink="http://www.w3.org/1999/xlink" x="0px" y="0px"
	 viewBox="0 0 1268 418" style="enable-background:new 0 0 1268 418;" xml:space="preserve">
<style type="text/css">
	.st0{fill:none;stroke:#B5AEC7;stroke-width:4;stroke-linecap:round;stroke-linejoin:round;stroke-dasharray:0,8;}
	.st1{fill:none;stroke:#CCCCCC;stroke-width:1.583;stroke-linecap:round;stroke-linejoin:round;}
	.st2{fill:none;stroke:#CCCCCC;stroke-width:1.2171;stroke-linecap:round;stroke-linejoin:round;}
	.st3{fill:#CCCCCC;}
	.st4{font-family:'RobotoMono-Regular';}
	.st5{font-size:18px;}
	.st6{fill:#817B9B;}
	.st7{fill:none;stroke:#817B9B;stroke-width:4;stroke-linecap:round;stroke-linejoin:round;}
	.st8{fill:none;stroke:#FFFFFF;stroke-width:2.4341;stroke-linecap:round;stroke-linejoin:round;}
	.st9{fill:none;stroke:#817B9B;stroke-width:3.6512;stroke-linecap:round;stroke-linejoin:round;}
</style>
<title>bean-plot</title>
<path class="st0" d="M44.5,192.6H1261"/>
<path class="st1" d="M43.5,375.5H1262V4.3H43.5V375.5z"/>
<g>
	<path class="st2" d="M43.5,361.8H29"/>
	<path class="st2" d="M43.5,293H29"/>
	<path class="st2" d="M43.5,224.2H29"/>
	<path class="st2" d="M43.5,155.5H29"/>
	<path class="st2" d="M43.5,86.7H29"/>
	<path class="st2" d="M43.5,18.1H29"/>
	<text transform="matrix(6.123234e-17 -1 1 6.123234e-17 21.5288 375.6475)" class="st3 st4 st5">55</text>
	<text transform="matrix(6.123234e-17 -1 1 6.123234e-17 21.5288 306.8848)" class="st3 st4 st5">60</text>
	<text transform="matrix(6.123234e-17 -1 1 6.123234e-17 21.5288 238.1201)" class="st3 st4 st5">65</text>
	<text transform="matrix(6.123234e-17 -1 1 6.123234e-17 21.5288 169.3555)" class="st3 st4 st5">70</text>
	<text transform="matrix(6.123234e-17 -1 1 6.123234e-17 21.5288 100.5928)" class="st3 st4 st5">75</text>
	<text transform="matrix(6.123234e-17 -1 1 6.123234e-17 21.5288 31.9512)" class="st3 st4 st5">80</text>
</g>
<g>
	<path class="st6" d="M125,262c0.5,0.6,0.9,0.1,0.9-0.1c0.6-14.8,0.4-29.6,5.2-43.8c5.7-16.8,17.3-29.7,26.8-44.3
		c9.5-14.6,14-28.6,3.9-44.5c-4.7-7.5-10.6-14.2-14.8-22.2s-6-14.7-9-22.2c-6.1-15-11.7-25.9-12.4-42.4c-0.1-2.4-0.4-4.7-0.7-7.1
		c0,0-0.6-0.5-0.6,0.4c0,7.1-0.5,14.3-1.6,21.3c-1.3,7.9-5.2,15-8.5,22.2c-3.3,7.2-5.2,14.8-8.4,22.2c-3.2,7.3-8.6,15-13.8,22.2
		c-10.8,15.3-13,28.1-3.3,44.5s21.4,28,28.2,44.3c5.8,14.2,7.8,29.1,8.2,44.3C124.9,258.5,124.9,260.2,125,262L125,262L125,262z"/>
	<path class="st7" d="M55.9,145.6h138.3"/>
	<path class="st8" d="M119.5,210.5h11"/>
	<path class="st8" d="M108.4,183h33.1"/>
	<path class="st8" d="M116.7,169.2h16.6"/>
	<path class="st8" d="M102.9,155.5h44.3"/>
	<path class="st8" d="M108.4,141.7h33.1"/>
	<path class="st8" d="M108.4,128h33.1"/>
	<path class="st8" d="M116.7,114.2h16.6"/>
	<path class="st8" d="M122.2,100.5h5.6"/>
	<path class="st8" d="M113.9,86.7h22.2"/>
	<path class="st2" d="M125,375.5V388"/>
	<text transform="matrix(1 0 0 1 108.1895 410.7334)" class="st3 st4 st5">mar</text>
</g>
<g>
	<path class="st6" d="M275,262c0.4,0.6,1,0.2,1-0.9c0.9-18.9,0.4-41.5,13-56.8c10.2-12.4,26.3-18.3,36.5-30.4
		c13.6-16.3-7.1-31.9-18.7-41.4c-14.2-11.6-26.7-22.9-27.3-42.7c-0.4-10.2,0.1-20.2-1.3-30.3c-1.6-10.1-2.6-20.2-2.9-30.4v-2.6
		c0-1.7,0-3.3-0.1-5c-0.1-1.7-0.5-0.1-0.5,0c-0.4,20.4-4.4,40.4-4.1,60.7c0.1,11-0.5,21.2-6.8,30.5c-4.3,6.2-10,11.2-15.7,15.8
		c-10.3,8.6-33.5,23.1-27,39.4c6.5,16.3,26,21.8,36.6,32.5c14.2,14.4,16.9,35.1,17.4,54.4C274.9,257.3,274.9,259.6,275,262L275,262
		L275,262z"/>
	<path class="st7" d="M206,156.8h138.1"/>
	<path class="st8" d="M272.2,210.5h5.6"/>
	<path class="st8" d="M266.7,183h16.6"/>
	<path class="st8" d="M255.7,169.2h38.7"/>
	<path class="st8" d="M269.5,155.5h11.1"/>
	<path class="st8" d="M258.5,141.7h33.1"/>
	<path class="st8" d="M272.2,114.2h5.6"/>
	<path class="st8" d="M272.2,73h5.6"/>
	<path class="st2" d="M275,375.5V388"/>
	<text transform="matrix(1 0 0 1 261.9743 410.7334)" class="st3 st4 st5">apr</text>
</g>
<g>
	<path class="st6" d="M1175.4,360.8c0.3,0.6,0.8,0.3,0.8-0.9c0.7-20.1,0.3-44.2,10.4-60.6c8.2-13.2,21-19.5,29.1-32.4
		c10.9-17.4-5.6-34-14.9-44.1c-11.4-12.3-21.3-24.4-21.7-45.5c-0.3-10.9,0.1-21.5-1.1-32.3c-1.3-10.7-2-21.6-2.3-32.4v-2.7
		c0-1.8,0-3.5-0.1-5.3s-0.4-0.1-0.4,0c-0.3,21.8-3.5,43.1-3.3,64.7c0.1,11.7-0.4,22.6-5.4,32.6c-3.4,6.6-8,11.9-12.5,16.9
		c-8.2,9.2-26.7,24.6-21.5,42c5.1,17.4,20.8,23.2,29.2,34.6c11.4,15.3,13.5,37.4,13.9,58C1175.3,355.7,1175.3,358.2,1175.4,360.8
		L1175.4,360.8L1175.4,360.8z"/>
	<path class="st7" d="M1106.4,245.6h138.1"/>
	<path class="st8" d="M1172.6,293.4h5.6"/>
	<path class="st8" d="M1167.2,265.9h16.6"/>
	<path class="st8" d="M1156.1,252.1h38.7"/>
	<path class="st8" d="M1170,238.4h11.1"/>
	<path class="st8" d="M1158.9,224.6h33.1"/>
	<path class="st8" d="M1172.6,197.1h5.6"/>
	<path class="st8" d="M1174.6,155.8h1.6"/>
	<path class="st2" d="M1175.4,375.5V388"/>
	<text transform="matrix(1 0 0 1 1162.4097 410.7334)" class="st3 st4 st5">oct</text>
</g>
<g>
	<path class="st6" d="M425.1,289.5c0.2,0.3,0.5,0.4,0.9,0.2l0.2-0.4c0.9-8.8-0.1-19.8,3-28.5c2.4-6.3,5.5-12.4,9-18.1
		c7.1-12.3,15.1-25.3,17.3-39.6c1.6-10.1-1.1-19.4-3.3-29.1s-1.9-19.2-2.3-29.1c-0.9-20.7-13-38.2-16.9-58.2s-7.4-38.6-7.9-57.9
		c-0.1-2.4-0.1-4.9-0.1-7.3c-0.2-0.2-0.5-0.3-0.7-0.1c-0.1,0-0.1,0.1-0.1,0.2c-0.1,19.7-2.9,38.5-6,57.8s-14.5,38-17.4,57.9
		c-1.5,9.6-0.1,19.2-1.5,28.8s-5.1,19.1-5.4,29.1c-0.2,15.9,8.2,30.7,15.8,44.1s14.1,26.9,15,43.3C425,285,425,287.4,425.1,289.5z"
		/>
	<path class="st9" d="M356.1,170.6h138.1"/>
	<path class="st8" d="M419.6,238h11.1"/>
	<path class="st8" d="M422.4,224.2h5.5"/>
	<path class="st8" d="M416.8,210.5h16.7"/>
	<path class="st8" d="M419.6,196.7h11.1"/>
	<path class="st8" d="M416.8,183h16.7"/>
	<path class="st8" d="M422.4,169.2h5.5"/>
	<path class="st8" d="M419.6,155.5h11.1"/>
	<path class="st8" d="M419.6,141.7h11.1"/>
	<path class="st8" d="M419.6,128h11.1"/>
	<path class="st8" d="M422.4,114.2h5.5"/>
	<path class="st8" d="M422.4,100.5h5.5"/>
	<path class="st8" d="M422.4,73h5.5"/>
	<path class="st2" d="M425.1,375.5V388"/>
	<text transform="matrix(1 0 0 1 410.0832 410.7334)" class="st3 st4 st5">may</text>
</g>
<g>
	<path class="st6" d="M1025,29.1c-0.9,18.1-7.3,32.9-15,47.6s-16.1,30.9-15.8,48.4c0.2,11,4,21.4,5.4,32c1.3,10.6,0,21.1,1.5,31.7
		c2.9,21.9,14.4,42.4,17.4,63.7c3,21.3,5.8,41.9,6,63.5c0,0.1,0,0.3,0.1,0.3c0.2,0.1,0.5,0.1,0.7-0.1c0-2.7,0-5.4,0.1-8
		c0.5-21.3,4-41.7,7.9-63.7c3.9-21.9,16.1-41.2,16.9-63.9c0.4-10.8,0.1-21.3,2.3-32c2.2-10.7,4.9-20.9,3.3-32
		c-2.2-15.7-10.2-30-17.3-43.5c-3.6-6.3-6.6-13-9-19.9c-3.2-9.5-2.2-21.7-3-31.3l-0.2-0.4c-0.3-0.1-0.7,0-0.9,0.3
		C1025.3,24,1025.3,26.7,1025,29.1z"/>
	<path class="st9" d="M956.4,170.6h138.1"/>
	<path class="st8" d="M1019.9,238h11.1"/>
	<path class="st8" d="M1022.7,224.2h5.5"/>
	<path class="st8" d="M1017.1,210.5h16.7"/>
	<path class="st8" d="M1019.9,196.7h11.1"/>
	<path class="st8" d="M1017.1,183h16.7"/>
	<path class="st8" d="M1022.7,169.2h5.5"/>
	<path class="st8" d="M1019.9,155.5h11.1"/>
	<path class="st8" d="M1019.9,141.7h11.1"/>
	<path class="st8" d="M1019.9,128h11.1"/>
	<path class="st8" d="M1022.7,114.2h5.5"/>
	<path class="st8" d="M1022.7,100.5h5.5"/>
	<path class="st8" d="M1022.7,73h5.5"/>
	<path class="st2" d="M1025.4,375.5V388"/>
	<text transform="matrix(1 0 0 1 1010.3734 410.7334)" class="st3 st4 st5">sep</text>
</g>
<g>
	<path class="st6" d="M574.3,303.2c0,0.5,0.4,1,1,1h0.2c0.5,0,1-0.4,1-1l0,0c0.5-6.2-0.1-13.9,1.8-20.1c2.6-8.4,7.5-15.2,13.9-21.2
		c9.5-9,22-16.6,28.7-28.1c10.2-17.6-10-29.5-20.3-40.8c-5.6-6.2-8.4-12.5-7.1-20.8c1.3-8.3,3.2-13.8,0.2-21.1
		c-2.9-7.3-8.9-13.6-12.5-20.8c-3.7-7.2-4.6-13.6-5.1-20.9c-0.1-1.7-0.1-3.5-0.1-5.2c0-0.4-0.3-0.7-0.7-0.7l0,0l0,0
		c-0.4,0-0.7,0.3-0.7,0.7c0,0,0,0,0,0l0,0c-0.2,7.1-0.1,14.2-2.7,20.9c-2.6,6.7-8.2,13.9-12.2,20.8c-3.9,6.2-5.1,13.7-3.5,20.8
		c1.5,7.5,2.7,13.9-1.6,20.8c-7.8,12.5-31.3,22.5-27.1,40.2c3,13.1,17.8,22.2,27.4,30.5c12.8,11.3,18.6,22.9,19.6,40
		c-0.2,1.7-0.3,3.3-0.1,5l0,0V303.2z"/>
	<path class="st7" d="M506.2,210h138.1"/>
	<path class="st8" d="M567,251.8h16.6"/>
	<path class="st8" d="M561.4,238H589"/>
	<path class="st8" d="M561.4,224.2H589"/>
	<path class="st8" d="M558.7,210.5h33.1"/>
	<path class="st8" d="M569.7,196.7h11.1"/>
	<path class="st8" d="M572.5,169.2h5.5"/>
	<path class="st8" d="M561.4,155.5H589"/>
	<path class="st2" d="M575.3,375.5V388"/>
	<text transform="matrix(1 0 0 1 558.7116 410.7334)" class="st3 st4 st5">jun</text>
</g>
<g>
	<path class="st6" d="M874.5,77.4L874.5,77.4c-0.1,1.7-0.1,3.3,0.1,5c-1,17.2-6.8,28.7-19.6,40c-9.6,8.4-24.3,17.4-27.4,30.5
		c-4.1,17.6,19.4,27.6,27.1,40.2c4.3,6.9,3,13.3,1.6,20.8c-1.6,7.1-0.3,14.6,3.5,20.8c4,6.9,9.6,14.1,12.2,20.8s2.4,13.9,2.7,20.9
		l0,0c0,0,0,0,0,0c0,0.4,0.3,0.7,0.7,0.7l0,0l0,0c0.4,0,0.7-0.3,0.7-0.7c0-1.7,0-3.5,0.1-5.2c0.5-7.3,1.5-13.8,5.1-20.9
		c3.7-7.2,9.6-13.5,12.5-20.8c2.9-7.3,1.1-12.8-0.2-21.1c-1.3-8.3,1.5-14.6,7.1-20.8c10.3-11.3,30.5-23.1,20.3-40.8
		c-6.7-11.6-19.2-19.1-28.7-28.1c-6.3-6-11.3-12.8-13.9-21.2c-1.9-6.2-1.3-13.9-1.8-20.1l0,0c0-0.5-0.4-1-1-1h-0.2c-0.5,0-1,0.4-1,1
		V77.4z"/>
	<path class="st7" d="M806.3,202h138.1"/>
	<path class="st8" d="M867.1,224.8h16.6"/>
	<path class="st8" d="M861.6,211h27.6"/>
	<path class="st8" d="M861.6,197.2h27.6"/>
	<path class="st8" d="M858.9,183.5H892"/>
	<path class="st8" d="M869.8,169.7h11.1"/>
	<path class="st8" d="M872.6,142.2h5.5"/>
	<path class="st8" d="M861.6,128.5h27.6"/>
	<path class="st2" d="M875.4,375.5V388"/>
	<text transform="matrix(1 0 0 1 858.8567 410.7334)" class="st3 st4 st5">aug</text>
</g>
<g>
	<path class="st6" d="M690.1,202.3c-5.7,11.3-0.6,21.5,2.8,32.5c3.4,11,3.4,22.4,6.5,33.3c4.1,14.5,15,25.3,20.8,39.1
		c4.4,10.5,4.4,26,4.4,37.1c0,0.5,0.4,0.9,0.9,0.9s0.9-0.4,0.9-0.9c0.1-19.5,1.6-35.5,12.2-52.1c3.7-5.4,7-11,9.9-16.9
		c4.5-10.3,4.7-21.4,6.9-32.3c2.2-10.8,8.8-21.2,7.7-32c-0.7-7.8-5.7-14.2-10.3-20.2c-10.3-13.3-18.6-25.6-21.7-42.5
		c-3.8-20.8-5-43.1-5.4-64.3c0-2.7,0-5.2-0.1-7.9c0.1-0.2,0-0.4-0.2-0.5c0,0,0,0,0,0h-0.4c-0.2,0-0.4,0.2-0.4,0.4l0,0
		c-0.2,20.4-1.8,40.6-3.9,61.1c-1.8,17.4-6.8,32.5-17.5,46.4c-4.4,5.6-9.2,11.1-12.7,17.3"/>
	<path class="st7" d="M656.2,225.8h138.3"/>
	<path class="st8" d="M722.5,293h5.6"/>
	<path class="st8" d="M714.2,279.3h22.2"/>
	<path class="st8" d="M717,265.5h16.6"/>
	<path class="st8" d="M714.2,251.8h22.2"/>
	<path class="st8" d="M717,238h16.6"/>
	<path class="st8" d="M714.2,224.2h22.2"/>
	<path class="st8" d="M705.9,210.5h38.7"/>
	<path class="st8" d="M714.2,196.7h22.2"/>
	<path class="st8" d="M719.8,183h11"/>
	<path class="st8" d="M722.5,169.2h5.6"/>
	<path class="st8" d="M722.5,155.5h5.6"/>
	<path class="st8" d="M723.2,128h3.5"/>
	<path class="st2" d="M725.3,375.5V388"/>
	<text transform="matrix(1 0 0 1 708.8441 410.7334)" class="st3 st4 st5">jul</text>
</g>
</svg>
