<svg height="256" viewBox="0 0 256 256" width="256" xmlns="http://www.w3.org/2000/svg"><path d="m19.2 123.8a1.5 1.5 0 0 1 1.5-1.5h22.1c.8-5.7 3.4-11.3 7.5-17.3s8.7-12.7 11.3-19 4.2-12.8 6.9-18.9 5.9-12.2 7-18.9a125.1 125.1 0 0 0 1.3-18.3c0-.7.5-.3.5-.3a60 60 0 0 1 .6 6.1c.6 14 5.2 23.4 10.2 36.2 2.5 6.3 3.9 12.1 7.4 18.9s8.3 12.5 12.2 18.9a30.5 30.5 0 0 1 4.5 12.6h22.1a1.5 1.5 0 0 1 0 3h-21.9c0 7.6-3.2 15-7.9 22.5-7.8 12.5-17.3 23.5-22 37.9-4 12.2-3.8 24.7-4.3 37.4 0 .2-.3.7-.7.1a32.3 32.3 0 0 1 0-4.4c-.3-13-1.9-25.7-6.7-37.9-5.6-13.9-15.2-23.8-23.2-37.9-3.6-6.4-5.2-12.1-5.1-17.7h-21.8a1.5 1.5 0 0 1 -1.5-1.5zm55-38.6a1 1 0 0 0 1 1h4.6a1 1 0 0 0 1-1 .9.9 0 0 0 -1-1h-4.6a.9.9 0 0 0 -1 1zm-4.5 11.7a.9.9 0 0 0 1 1h13.6a.9.9 0 0 0 1-1 1 1 0 0 0 -1-1h-13.6a1 1 0 0 0 -1 1zm-6.8 23.6a1 1 0 0 0 1 1h27.2a1 1 0 0 0 1-1 .9.9 0 0 0 -1-1h-27.2a.9.9 0 0 0 -1 1zm21.4 22.5h-13.6a.9.9 0 0 0 -1 1 1 1 0 0 0 1 1h13.6a1 1 0 0 0 1-1 .9.9 0 0 0 -1-1zm-21.4 12.7a.9.9 0 0 0 1 1h27.2a.9.9 0 0 0 1-1 1 1 0 0 0 -1-1h-27.2a1 1 0 0 0 -1 1zm186.4-22.3a1.5 1.5 0 0 1 -1.5 1.5h-12.1c1.1 4.1.4 8.6-3.2 13-8.4 10.4-21.6 15.4-30 26-10.4 13.1-10 32.5-10.7 48.6 0 .9-.5 1.3-.8.7s-.1-4 0-6c-.4-16.5-2.6-34.2-14.3-46.5-8.7-9.2-24.8-13.8-30.1-27.8a13.8 13.8 0 0 1 -.5-8h-11.8a1.5 1.5 0 0 1 -1.5-1.5 1.5 1.5 0 0 1 1.5-1.5h12.7c4-9.3 15.6-17.3 21.8-22.7 4.7-3.9 9.4-8.2 12.9-13.5 5.2-8 5.7-16.8 5.6-26.1-.2-17.4 3.1-34.5 3.4-51.9 0-.1.3-1.5.4 0s.1 2.8.1 4.2v2.2a226.3 226.3 0 0 0 2.4 26c1.2 8.7.8 17.2 1.1 25.9.5 17 10.7 26.7 22.4 36.5 5.8 4.9 14.2 11.7 17.6 19.4h13.1a1.5 1.5 0 0 1 1.5 1.5zm-72.9-12.9a1 1 0 0 0 1 1h27.2a1 1 0 0 0 1-1 .9.9 0 0 0 -1-1h-27.2a.9.9 0 0 0 -1 1zm19.2 10.7h-9.1a1 1 0 0 0 -1 1 .9.9 0 0 0 1 1h9.1a.9.9 0 0 0 1-1 1 1 0 0 0 -1-1zm3.2 24.5a1 1 0 0 0 -1-1h-13.6a1 1 0 0 0 -1 1 .9.9 0 0 0 1 1h13.6a.9.9 0 0 0 1-1zm9.1-11.7a.9.9 0 0 0 -1-1h-31.8a.9.9 0 0 0 -1 1 1 1 0 0 0 1 1h31.8a1 1 0 0 0 1-1z"/></svg>