<svg enable-background="new 0 0 800 800" viewBox="0 0 800 800" xml:space="preserve" xmlns="http://www.w3.org/2000/svg" xmlns:xlink="http://www.w3.org/1999/xlink"><clipPath id="a"><circle cx="675.2" cy="115.3" r="43.3"/></clipPath><clipPath id="b"><circle cx="445.5" cy="84" r="28.7"/></clipPath><text fill="#a5a5b9" font-family="'RobotoMono-Regular'" font-size="16" transform="translate(68.3192 652.0542)">0</text><text fill="#a5a5b9" font-family="'RobotoMono-Regular'" font-size="16" transform="translate(190.832 652.0542)">20</text><text fill="#a5a5b9" font-family="'RobotoMono-Regular'" font-size="16" transform="translate(311.1853 652.0542)">40</text><text fill="#a5a5b9" font-family="'RobotoMono-Regular'" font-size="16" transform="translate(431.5388 652.0542)">60</text><text fill="#a5a5b9" font-family="'RobotoMono-Regular'" font-size="16" transform="translate(551.8916 652.0542)">80</text><text fill="#a5a5b9" font-family="'RobotoMono-Regular'" font-size="16" transform="translate(665.01 652.0542)">100</text><path d="m83.9 629.5h601.8" fill="none" stroke="#a8a8a8" stroke-miterlimit="10"/><path d="m83.9 629.5v-15" fill="none" stroke="#a8a8a8" stroke-miterlimit="10"/><path d="m204.3 629.5v-15" fill="none" stroke="#a8a8a8" stroke-miterlimit="10"/><path d="m324.6 629.5v-15" fill="none" stroke="#a8a8a8" stroke-miterlimit="10"/><path d="m445 629.5v-15" fill="none" stroke="#a8a8a8" stroke-miterlimit="10"/><path d="m565.4 629.5v-15" fill="none" stroke="#a8a8a8" stroke-miterlimit="10"/><path d="m685.7 629.5v-15" fill="none" stroke="#a8a8a8" stroke-miterlimit="10"/><text fill="#a5a5b9" font-family="'RobotoMono-Regular'" font-size="16" transform="translate(55.6058 513.7192)">20</text><text fill="#a5a5b9" font-family="'RobotoMono-Regular'" font-size="16" transform="translate(55.6058 393.3667)">40</text><text fill="#a5a5b9" font-family="'RobotoMono-Regular'" font-size="16" transform="translate(55.6058 273.0132)">60</text><text fill="#a5a5b9" font-family="'RobotoMono-Regular'" font-size="16" transform="translate(55.6058 152.6597)">80</text><text fill="#a5a5b9" font-family="'RobotoMono-Regular'" font-size="16" transform="translate(44.1356 32.3062)">100</text><path d="m83.9 629.5v-601.8" fill="none" stroke="#a8a8a8" stroke-miterlimit="10"/><path d="m83.9 629.5h15.1" fill="none" stroke="#a8a8a8" stroke-miterlimit="10"/><path d="m83.9 509.1h15.1" fill="none" stroke="#a8a8a8" stroke-miterlimit="10"/><path d="m83.9 388.8h15.1" fill="none" stroke="#a8a8a8" stroke-miterlimit="10"/><path d="m83.9 268.4h15.1" fill="none" stroke="#a8a8a8" stroke-miterlimit="10"/><path d="m83.9 148.1h15.1" fill="none" stroke="#a8a8a8" stroke-miterlimit="10"/><path d="m83.9 27.7h15.1" fill="none" stroke="#a8a8a8" stroke-miterlimit="10"/><circle cx="204" cy="514.4" fill="#c6c6c6" r="30.4"/><ellipse cx="533.2" cy="457.1" fill="#c6c6c6" rx="37.8" ry="39.6"/><circle cx="599.2" cy="316.4" fill="#ddd" opacity=".53" r="72.5"/><path d="m325 609.5v-340.3" style="opacity:.8;fill:none;stroke:#a8a8a8;stroke-width:1.5;stroke-linecap:round;stroke-miterlimit:10;stroke-dasharray:0 3"/><path d="m325 268.2h-211.3" style="fill:none;stroke:#a8a8a8;stroke-width:1.5;stroke-linecap:round;stroke-miterlimit:10;stroke-dasharray:0 3;opacity:.8"/><text fill="#514361" font-family="'RobotoMono-Regular'" font-size="28" transform="translate(106.1108 299.7591)">value Y</text><text fill="#514361" font-family="'RobotoMono-Regular'" font-size="28" transform="translate(338.6682 448.9727)">value X</text><circle cx="324.6" cy="268.2" fill="#ddd" opacity=".53" r="71.5"/><circle cx="396.7" cy="702.3" fill="#c6c6c6" r="15.5"/><circle cx="396.7" cy="755.1" fill="#ddd" opacity=".53" r="15.5"/><text fill="#a5a5b9" font-family="'RobotoMono-Regular'" font-size="16" transform="translate(423.8476 707.5503)">category 1</text><text fill="#a5a5b9" font-family="'RobotoMono-Regular'" font-size="16" transform="translate(422.8476 761.3335)">category 2</text><circle cx="637.4" cy="728.6" fill="#ddd" opacity=".7" r="50"/><circle cx="637.4" cy="746.2" fill="#bebebe" opacity=".7" r="32.5"/><circle cx="637.4" cy="756.2" fill="#7a7a7a" opacity=".7" r="22.5"/><text fill="#a5a5b9" font-family="'RobotoMono-Regular'" font-size="12" transform="translate(551.9106 762.695)">100</text><text fill="#a5a5b9" font-family="'RobotoMono-Regular'" font-size="12" transform="translate(551.9106 696.4416)">500</text><text fill="#a5a5b9" font-family="'RobotoMono-Regular'" font-size="12" transform="translate(551.9106 728.4416)">200</text><path d="m576.9 759.1h60" fill="none" stroke="#ddd" stroke-miterlimit="10"/><path d="m576.9 724.9h60" fill="none" stroke="#ddd" stroke-miterlimit="10"/><path d="m576.9 692.9h60" fill="none" stroke="#ddd" stroke-miterlimit="10"/><text fill="#514361" font-family="'RobotoMono-Regular'" font-size="28" transform="translate(622.3523 495.624)">color</text><path d="m368.9 774.2h-25v-91h25" style="opacity:.8;fill:none;stroke:#a8a8a8;stroke-width:1.5;stroke-linecap:round;stroke-miterlimit:10;stroke-dasharray:0 3"/><text transform="translate(609.3518 519.9759)"><tspan fill="#514361" font-family="'Roboto-Italic'" font-size="18" x="0" y="0">each color showing</tspan><tspan fill="#514361" font-family="'Roboto-Italic'" font-size="18" x="0" y="21.6">a separate group</tspan></text><path d="m338.8 460h133.3v68h-133.3z" fill="none"/><text transform="translate(338.8108 473.5)"><tspan fill="#514361" font-family="'Roboto-Italic'" font-size="18" x="0" y="0">shown by X-axis </tspan><tspan fill="#514361" font-family="'Roboto-Italic'" font-size="18" x="0" y="21.6">coordinate</tspan></text><path d="m106.1 311h150v55h-150z" fill="none"/><text transform="translate(106.1107 324.5)"><tspan fill="#514361" font-family="'Roboto-Italic'" font-size="18" x="0" y="0">shown by Y-axis </tspan><tspan fill="#514361" font-family="'Roboto-Italic'" font-size="18" x="0" y="21.6">coordinate</tspan></text><text fill="#514361" font-family="'RobotoMono-Regular'" font-size="28" transform="translate(209.4968 712.0083)">legend</text><text fill="#514361" font-family="'RobotoMono-Regular'" font-size="28" transform="translate(420.3394 169.5516)">bubble size</text><path d="m420.5 180.1h186.4v54.6h-186.4z" fill="none"/><text transform="translate(420.4813 193.5789)"><tspan fill="#514361" font-family="'Roboto-Italic'" font-size="18" x="0" y="0">shown by circle area </tspan><tspan fill="#514361" font-family="'Roboto-Italic'" font-size="18" x="0" y="21.6">(not radius)</tspan></text><path d="m169.7 722.7h136.2v48.3h-136.2z" fill="none"/><text transform="translate(186.3077 736.1917)"><tspan fill="#514361" font-family="'Roboto-Italic'" font-size="18" x="0" y="0">lists categories </tspan><tspan fill="#514361" font-family="'Roboto-Italic'" font-size="18" x="-6.9" y="21.6">and data ranges</tspan></text><circle cx="739.8" cy="383.3" fill="#e8e8e8" opacity=".53" r="19.6"/><g stroke-miterlimit="10"><circle cx="675.2" cy="115.3" fill="#efefef" r="43.3" stroke="#9e9e9e" stroke-width=".5"/><g clip-path="url(#a)" fill="none" stroke="#c1c1c1" stroke-width=".3572"><path d="m631.8 72.2h86.8v86.8h-86.8z" transform="matrix(.7071 -.7071 .7071 .7071 116.0322 511.295)"/><path d="m732.7 111.7-61.3 61.4"/><path d="m728.9 107.9-61.4 61.4"/><path d="m725.1 104.1-61.4 61.3"/><path d="m721.2 100.2-61.3 61.4"/><path d="m717.4 96.4-61.4 61.4"/><path d="m713.6 92.6-61.4 61.3"/><path d="m709.7 88.7-61.3 61.4"/><path d="m705.9 84.9-61.4 61.4"/><path d="m702.1 81.1-61.4 61.3"/><path d="m698.2 77.2-61.3 61.4"/><path d="m694.4 73.4-61.4 61.4"/><path d="m690.5 69.6-61.3 61.3"/><path d="m686.7 65.7-61.4 61.4"/><path d="m682.9 61.9-61.4 61.4"/><path d="m679 58.1-61.3 61.3"/></g><circle cx="445.5" cy="84" fill="#efefef" r="28.7" stroke="#9e9e9e" stroke-width=".5"/><g clip-path="url(#b)" fill="none" stroke="#c1c1c1" stroke-width=".5"><path d="m457.4 31.2 42.2 42.2"/><path d="m438.2 134.8-42.2-42.2"/><path d="m499.6 73.4-61.4 61.4"/><path d="m495.8 69.6-61.4 61.3"/><path d="m491.9 65.7-61.3 61.4"/><path d="m488.1 61.9-61.4 61.4"/><path d="m484.2 58.1-61.3 61.3"/><path d="m480.4 54.2-61.4 61.4"/><path d="m476.6 50.4-61.4 61.3"/><path d="m472.7 46.6-61.3 61.3"/><path d="m468.9 42.7-61.4 61.4"/><path d="m465.1 38.9-61.4 61.3"/><path d="m461.2 35-61.3 61.4"/><path d="m457.4 31.2-61.4 61.4"/></g><path d="m671.5 71.4-216.6-15.7" fill="none" stroke="#a8a8a8" stroke-dasharray="0 3" stroke-linecap="round" stroke-width="1.5"/><path d="m656.3 155.6-212.1-42.1" fill="none" stroke="#a8a8a8" stroke-dasharray="0 3" stroke-linecap="round" stroke-width="1.5"/><path d="m636.6 388.9 18 73.1" style="opacity:.8;fill:none;stroke:#a8a8a8;stroke-width:1.5;stroke-linecap:round;stroke-dasharray:0 3"/><path d="m720.2 400-64.5 60.9" style="opacity:.8;fill:none;stroke:#a8a8a8;stroke-width:1.5;stroke-linecap:round;stroke-dasharray:0 3"/><path d="m582.2 457.1 68.9 4.6" style="opacity:.8;fill:none;stroke:#a8a8a8;stroke-width:1.5;stroke-linecap:round;stroke-dasharray:0 3"/></g><circle cx="454.9" cy="341.4" fill="#c9c9c9" opacity=".53" r="44.4"/><ellipse cx="280.1" cy="430.5" fill="#c6c6c6" rx="20.6" ry="21.6"/><circle cx="494.4" cy="256.1" fill="#e8e8e8" opacity=".53" r="25.4"/><circle cx="325.6" cy="112.7" fill="#c9c9c9" opacity=".53" r="43.3"/></svg>