<svg enable-background="new 0 0 800 847" height="847" viewBox="0 0 800 847" width="800" xml:space="preserve" xmlns="http://www.w3.org/2000/svg" xmlns:xlink="http://www.w3.org/1999/xlink"><clipPath id="a"><circle cx="701.1" cy="110.6" r="47.9"/></clipPath><clipPath id="b"><circle cx="447.3" cy="76" r="31.7"/></clipPath><text fill="#a5a5b9" font-family="'RobotoMono-Regular'" font-size="17.6832" transform="translate(30.3926 703.8242)">0</text><text fill="#a5a5b9" font-family="'RobotoMono-Regular'" font-size="17.6832" transform="translate(165.7935 703.8242)">20</text><text fill="#a5a5b9" font-family="'RobotoMono-Regular'" font-size="17.6832" transform="translate(298.8081 703.8242)">40</text><text fill="#a5a5b9" font-family="'RobotoMono-Regular'" font-size="17.6832" transform="translate(431.8232 703.8242)">60</text><text fill="#a5a5b9" font-family="'RobotoMono-Regular'" font-size="17.6832" transform="translate(564.8369 703.8242)">80</text><text fill="#a5a5b9" font-family="'RobotoMono-Regular'" font-size="17.6832" transform="translate(689.8555 703.8242)">100</text><path d="m47.6 678.9h665.1" fill="none" stroke="#a8a8a8" stroke-miterlimit="10" stroke-width="1.1052"/><path d="m47.6 678.9v-16.6" fill="none" stroke="#a8a8a8" stroke-miterlimit="10" stroke-width="1.1052"/><path d="m180.7 678.9v-16.6" fill="none" stroke="#a8a8a8" stroke-miterlimit="10" stroke-width="1.1052"/><path d="m313.6 678.9v-16.6" fill="none" stroke="#a8a8a8" stroke-miterlimit="10" stroke-width="1.1052"/><path d="m446.7 678.9v-16.6" fill="none" stroke="#a8a8a8" stroke-miterlimit="10" stroke-width="1.1052"/><path d="m579.8 678.9v-16.6" fill="none" stroke="#a8a8a8" stroke-miterlimit="10" stroke-width="1.1052"/><path d="m712.7 678.9v-16.6" fill="none" stroke="#a8a8a8" stroke-miterlimit="10" stroke-width="1.1052"/><text fill="#a5a5b9" font-family="'RobotoMono-Regular'" font-size="17.6832" transform="translate(16.3418 550.9375)">20</text><text fill="#a5a5b9" font-family="'RobotoMono-Regular'" font-size="17.6832" transform="translate(16.3418 417.9238)">40</text><text fill="#a5a5b9" font-family="'RobotoMono-Regular'" font-size="17.6832" transform="translate(16.3418 284.9097)">60</text><text fill="#a5a5b9" font-family="'RobotoMono-Regular'" font-size="17.6832" transform="translate(16.3418 151.8945)">80</text><text fill="#a5a5b9" font-family="'RobotoMono-Regular'" font-size="17.6832" transform="translate(3.665 18.8804)">100</text><path d="m47.6 678.9v-665.1" fill="none" stroke="#a8a8a8" stroke-miterlimit="10" stroke-width="1.1052"/><path d="m47.6 678.9h16.7" fill="none" stroke="#a8a8a8" stroke-miterlimit="10" stroke-width="1.1052"/><path d="m47.6 545.8h16.7" fill="none" stroke="#a8a8a8" stroke-miterlimit="10" stroke-width="1.1052"/><path d="m47.6 412.9h16.7" fill="none" stroke="#a8a8a8" stroke-miterlimit="10" stroke-width="1.1052"/><path d="m47.6 279.8h16.7" fill="none" stroke="#a8a8a8" stroke-miterlimit="10" stroke-width="1.1052"/><path d="m47.6 146.9h16.7" fill="none" stroke="#a8a8a8" stroke-miterlimit="10" stroke-width="1.1052"/><path d="m47.6 13.8h16.7" fill="none" stroke="#a8a8a8" stroke-miterlimit="10" stroke-width="1.1052"/><circle cx="180.3" cy="551.7" fill="#c6c6c6" r="33.6"/><ellipse cx="544.2" cy="488.4" fill="#c6c6c6" rx="41.8" ry="43.8"/><circle cx="617.1" cy="332.9" fill="#ddd" opacity=".53" r="80.1"/><path d="m314.1 656.8v-376.1" style="opacity:.8;fill:none;stroke:#a8a8a8;stroke-width:1.6578;stroke-linecap:round;stroke-miterlimit:10;stroke-dasharray:0 3.3156"/><path d="m314.1 279.6h-233.6" style="opacity:.8;fill:none;stroke:#a8a8a8;stroke-width:1.6578;stroke-linecap:round;stroke-miterlimit:10;stroke-dasharray:0 3.3156"/><text fill="#514361" font-family="'RobotoMono-Regular'" font-size="30.9456" transform="translate(72.1602 314.4692)">value Y</text><text fill="#514361" font-family="'RobotoMono-Regular'" font-size="30.9456" transform="translate(329.1821 479.3789)">value X</text><circle cx="313.6" cy="279.6" fill="#ddd" opacity=".53" r="79"/><circle cx="393.3" cy="759.4" fill="#c6c6c6" r="17.1"/><circle cx="393.3" cy="817.7" fill="#ddd" opacity=".53" r="17.1"/><text fill="#a5a5b9" font-family="'RobotoMono-Regular'" font-size="17.6832" transform="translate(423.3223 765.1592)">category 1</text><text fill="#a5a5b9" font-family="'RobotoMono-Regular'" font-size="17.6832" transform="translate(422.2168 824.6006)">category 2</text><circle cx="659.3" cy="788.4" fill="#ddd" opacity=".7" r="55.3"/><circle cx="659.3" cy="807.9" fill="#bebebe" opacity=".7" r="35.9"/><circle cx="659.3" cy="818.9" fill="#7a7a7a" opacity=".7" r="24.9"/><text fill="#a5a5b9" font-family="'RobotoMono-Regular'" font-size="13.2624" transform="translate(564.8574 826.1045)">100</text><text fill="#a5a5b9" font-family="'RobotoMono-Regular'" font-size="13.2624" transform="translate(564.8574 752.8828)">500</text><text fill="#a5a5b9" font-family="'RobotoMono-Regular'" font-size="13.2624" transform="translate(564.8574 788.248)">200</text><path d="m592.5 822.1h66.3" fill="none" stroke="#ddd" stroke-miterlimit="10" stroke-width="1.1052"/><path d="m592.5 784.3h66.3" fill="none" stroke="#ddd" stroke-miterlimit="10" stroke-width="1.1052"/><path d="m592.5 749h66.3" fill="none" stroke="#ddd" stroke-miterlimit="10" stroke-width="1.1052"/><text fill="#514361" font-family="'RobotoMono-Regular'" font-size="30.9456" transform="translate(642.71 530.9385)">color</text><path d="m362.6 838.8h-27.6v-100.6h27.6" style="opacity:.8;fill:none;stroke:#a8a8a8;stroke-width:1.6578;stroke-linecap:round;stroke-miterlimit:10;stroke-dasharray:0 3.3156"/><text fill="#514361" font-family="'Roboto-Italic'" font-size="19.8936" transform="translate(628.3418 557.8525)">each color showing</text><text fill="#514361" font-family="'Roboto-Italic'" font-size="19.8936" transform="translate(628.3418 581.7236)">a separate group</text><path d="m329.3 491.6h147.3v75.2h-147.3z" fill="none"/><text fill="#514361" font-family="'Roboto-Italic'" font-size="19.8936" transform="translate(329.3398 506.4863)">shown by X-axis </text><text fill="#514361" font-family="'Roboto-Italic'" font-size="19.8936" transform="translate(329.3398 530.3594)">coordinate</text><path d="m72.1 326.9h165.8v60.8h-165.8z" fill="none"/><text fill="#514361" font-family="'Roboto-Italic'" font-size="19.8936" transform="translate(72.1602 341.8125)">shown by Y-axis </text><text fill="#514361" font-family="'Roboto-Italic'" font-size="19.8936" transform="translate(72.1602 365.6855)">coordinate</text><text fill="#514361" font-family="'RobotoMono-Regular'" font-size="30.9456" transform="translate(186.4224 770.0869)">legend</text><text fill="#514361" font-family="'RobotoMono-Regular'" font-size="30.9456" transform="translate(419.4443 170.564)">bubble size</text><path d="m419.6 182.2h206v60.3h-206z" fill="none"/><text fill="#514361" font-family="'Roboto-Italic'" font-size="19.8936" transform="translate(419.6016 197.1187)">shown by circle area </text><text fill="#514361" font-family="'Roboto-Italic'" font-size="19.8936" transform="translate(419.6016 220.9912)">(not radius)</text><path d="m142.4 781.9h150.6v53.4h-150.6z" fill="none"/><text fill="#514361" font-family="'Roboto-Italic'" font-size="19.8936" transform="translate(160.7935 796.8145)">lists categories </text><text fill="#514361" font-family="'Roboto-Italic'" font-size="19.8936" transform="translate(153.1675 820.6865)">and data ranges</text><circle cx="772.5" cy="406.8" fill="#e8e8e8" opacity=".53" r="21.7"/><g stroke-miterlimit="10"><circle cx="701.1" cy="110.6" fill="#efefef" r="47.9" stroke="#9e9e9e" stroke-width=".5526"/><g clip-path="url(#a)" fill="none" stroke="#c1c1c1" stroke-width=".3948"><path d="m633.3 110.9 67.8-67.8 67.8 67.8-67.8 67.8z"/><path d="m764.7 106.6-67.7 67.9"/><path d="m760.5 102.4-67.9 67.9"/><path d="m756.3 98.2-67.9 67.8"/><path d="m752 93.9-67.7 67.9"/><path d="m747.8 89.7-67.9 67.9"/><path d="m743.6 85.5-67.9 67.7"/><path d="m739.2 81.2-67.7 67.9"/><path d="m735 77-67.9 67.9"/><path d="m730.8 72.8-67.8 67.8"/><path d="m726.5 68.5-67.7 67.9"/><path d="m722.3 64.3-67.9 67.9"/><path d="m718 60.1-67.7 67.7"/><path d="m713.8 55.8-67.8 67.8"/><path d="m709.6 51.6-67.9 67.9"/><path d="m705.3 47.4-67.7 67.7"/></g><circle cx="447.3" cy="76" fill="#efefef" r="31.7" stroke="#9e9e9e" stroke-width=".5526"/><g clip-path="url(#b)" fill="none" stroke="#c1c1c1" stroke-width=".5526"><path d="m460.4 17.7 46.6 46.6"/><path d="m439.2 132.2-46.6-46.6"/><path d="m507 64.3-67.9 67.9"/><path d="m502.8 60.1-67.8 67.7"/><path d="m498.5 55.8-67.7 67.9"/><path d="m494.3 51.6-67.9 67.9"/><path d="m490 47.4-67.7 67.7"/><path d="m485.8 43.1-67.8 67.8"/><path d="m481.6 38.9-67.9 67.7"/><path d="m477.3 34.7-67.7 67.7"/><path d="m473.1 30.4-67.9 67.9"/><path d="m468.9 26.2-67.9 67.7"/><path d="m464.6 21.9-67.7 67.9"/><path d="m460.4 17.7-67.9 67.9"/></g><path d="m697 62.1-239.4-17.4" fill="none" stroke="#a8a8a8" stroke-dasharray="0 3.3156" stroke-linecap="round" stroke-width="1.6578"/><path d="m680.2 155.1-234.4-46.5" fill="none" stroke="#a8a8a8" stroke-dasharray="0 3.3156" stroke-linecap="round" stroke-width="1.6578"/><path d="m658.5 413 19.9 80.8" style="opacity:.8;fill:none;stroke:#a8a8a8;stroke-width:1.6578;stroke-linecap:round;stroke-dasharray:0 3.3156"/><path d="m750.9 425.3-71.3 67.3" style="opacity:.8;fill:none;stroke:#a8a8a8;stroke-width:1.6578;stroke-linecap:round;stroke-dasharray:0 3.3156"/><path d="m598.3 488.4 76.1 5.1" style="opacity:.8;fill:none;stroke:#a8a8a8;stroke-width:1.6578;stroke-linecap:round;stroke-dasharray:0 3.3156"/></g><circle cx="457.6" cy="360.5" fill="#c9c9c9" opacity=".53" r="49.1"/><ellipse cx="264.5" cy="459" fill="#c6c6c6" rx="22.8" ry="23.9"/><circle cx="501.3" cy="266.2" fill="#e8e8e8" opacity=".53" r="28.1"/><circle cx="314.7" cy="107.7" fill="#c9c9c9" opacity=".53" r="47.9"/></svg>