<?xml version="1.0" encoding="utf-8"?>
<!-- Generator: Adobe Illustrator 19.2.0, SVG Export Plug-In . SVG Version: 6.00 Build 0)  -->
<svg version="1.1" id="Layer_4" xmlns="http://www.w3.org/2000/svg" xmlns:xlink="http://www.w3.org/1999/xlink" x="0px" y="0px"
	 width="1268px" height="558px" viewBox="0 0 1268 558" enable-background="new 0 0 1268 558" xml:space="preserve">
<g>

	<g>
		<line fill="none" stroke="#C4C4C4" stroke-miterlimit="10" x1="72.141" y1="436.171" x2="1266.141" y2="436.171"/>
		<line fill="none" stroke="#C4C4C4" stroke-miterlimit="10" x1="72.141" y1="351.171" x2="1266.141" y2="351.171"/>
		<line fill="none" stroke="#C4C4C4" stroke-miterlimit="10" x1="72.141" y1="266.171" x2="1266.141" y2="266.171"/>
		<line fill="none" stroke="#C4C4C4" stroke-miterlimit="10" x1="72.141" y1="181.171" x2="1266.141" y2="181.171"/>
		<line fill="none" stroke="#C4C4C4" stroke-miterlimit="10" x1="72.141" y1="96.171" x2="1266.141" y2="96.171"/>
		<line fill="none" stroke="#C4C4C4" stroke-miterlimit="10" x1="72.141" y1="11.171" x2="1266.141" y2="11.171"/>
	</g>
	<g>
		<text transform="matrix(1 0 0 1 1.8586 20.9805)"><tspan x="0" y="0" fill="#6C5F82" font-family="'RobotoCondensed-Regular'" font-size="26px">600 %</tspan><tspan x="0" y="85" fill="#6C5F82" font-family="'RobotoCondensed-Regular'" font-size="26px">500 %</tspan><tspan x="5.954" y="170" fill="#6C5F82" font-family="'RobotoCondensed-Regular'" font-size="26px">400%</tspan><tspan x="0" y="255" fill="#6C5F82" font-family="'RobotoCondensed-Regular'" font-size="26px">300 %</tspan><tspan x="0" y="340" fill="#6C5F82" font-family="'RobotoCondensed-Regular'" font-size="26px">200 %</tspan><tspan x="0" y="425" fill="#6C5F82" font-family="'RobotoCondensed-Regular'" font-size="26px">100 %</tspan><tspan x="48.077" y="510" fill="#6C5F82" font-family="'RobotoCondensed-Regular'" font-size="26px">0</tspan></text>
	</g>
	<g>
		<text transform="matrix(1 0 0 1 337.6621 552.2159)" fill="#6C5F82" font-family="'RobotoCondensed-Regular'" font-size="26px">1930</text>
	</g>
	<g>
		<text transform="matrix(1 0 0 1 444.6621 552.2159)" fill="#6C5F82" font-family="'RobotoCondensed-Regular'" font-size="26px">1940</text>
	</g>
	<g>
		<text transform="matrix(1 0 0 1 551.6621 552.2159)" fill="#6C5F82" font-family="'RobotoCondensed-Regular'" font-size="26px">1950</text>
	</g>
	<g>
		<text transform="matrix(1 0 0 1 658.6621 552.2159)" fill="#6C5F82" font-family="'RobotoCondensed-Regular'" font-size="26px">1960</text>
	</g>
	<g>
		<text transform="matrix(1 0 0 1 765.6621 552.2159)" fill="#6C5F82" font-family="'RobotoCondensed-Regular'" font-size="26px">1970</text>
	</g>
	<g>
		<text transform="matrix(1 0 0 1 872.6621 552.2159)" fill="#6C5F82" font-family="'RobotoCondensed-Regular'" font-size="26px">1980</text>
	</g>
	<g>
		<text transform="matrix(1 0 0 1 979.6621 552.2159)" fill="#6C5F82" font-family="'RobotoCondensed-Regular'" font-size="26px">1990</text>
	</g>
	<g>
		<text transform="matrix(1 0 0 1 1086.6621 552.2159)" fill="#6C5F82" font-family="'RobotoCondensed-Regular'" font-size="26px">2000</text>
	</g>
	<g>
		<text transform="matrix(1 0 0 1 1193.6621 552.2159)" fill="#6C5F82" font-family="'RobotoCondensed-Regular'" font-size="26px">2010</text>
	</g>
	<g>
		<text transform="matrix(1 0 0 1 229.6621 552.2159)" fill="#6C5F82" font-family="'RobotoCondensed-Regular'" font-size="26px">1920</text>
	</g>
	<g>
		<text transform="matrix(1 0 0 1 119.3018 552.2159)" fill="#6C5F82" font-family="'RobotoCondensed-Regular'" font-size="26px">1910</text>
	</g>
	
		<line fill="none" stroke="#6C5F82" stroke-width="2" stroke-miterlimit="10" x1="72.141" y1="521.171" x2="1266.141" y2="521.171"/>
	<circle opacity="0.6" fill="#F3D0AA" cx="327.727" cy="370.777" r="62.5"/>
	<circle opacity="0.6" fill="#F3D0AA" cx="811.129" cy="214.671" r="62.5"/>
	<circle fill="none" stroke="#F3D0AA" stroke-width="2" stroke-miterlimit="10" cx="327.727" cy="370.777" r="62.5"/>
	<circle fill="none" stroke="#F3D0AA" stroke-width="2" stroke-miterlimit="10" cx="811.129" cy="214.671" r="62.5"/>
	<circle opacity="0.6" fill="#A3B1D6" cx="441.727" cy="449.777" r="40"/>
	<circle opacity="0.6" fill="#A3B1D6" cx="456.002" cy="332.777" r="40"/>
	<circle opacity="0.6" fill="#A3B1D6" cx="1025.141" cy="281.171" r="40"/>
	<circle opacity="0.6" fill="#A3B1D6" cx="236.002" cy="192.171" r="40"/>
	<circle opacity="0.6" fill="#A3B1D6" cx="659.141" cy="231.171" r="40"/>
	<circle opacity="0.6" fill="#6C5F82" cx="621.727" cy="436.171" r="25"/>
	<circle opacity="0.6" fill="#6C5F82" cx="659.141" cy="58.171" r="25"/>
	<circle opacity="0.6" fill="#6C5F82" cx="202.141" cy="266.171" r="25"/>
	<circle opacity="0.6" fill="#6C5F82" cx="1143.141" cy="426.171" r="25"/>
	<circle opacity="0.6" fill="#6C5F82" cx="1138.002" cy="96.171" r="25"/>
	<circle fill="none" stroke="#A3B1D6" stroke-width="2" stroke-miterlimit="10" cx="236.002" cy="192.171" r="40"/>
	<circle fill="none" stroke="#A3B1D6" stroke-width="2" stroke-miterlimit="10" cx="456.002" cy="332.777" r="40"/>
	<circle fill="none" stroke="#A3B1D6" stroke-width="2" stroke-miterlimit="10" cx="441.727" cy="449.777" r="40"/>
	<circle fill="none" stroke="#A3B1D6" stroke-width="2" stroke-miterlimit="10" cx="659.141" cy="231.171" r="40"/>
	<circle fill="none" stroke="#A3B1D6" stroke-width="2" stroke-miterlimit="10" cx="1025.141" cy="281.171" r="40"/>
	<circle opacity="0.6" fill="#A3B1D6" cx="1196.641" cy="175.171" r="40"/>
	<circle fill="none" stroke="#A3B1D6" stroke-width="2" stroke-miterlimit="10" cx="1196.641" cy="175.171" r="40"/>
	<circle opacity="0.6" fill="#4F3D6E" cx="769.658" cy="253.671" r="12.5"/>
	<circle opacity="0.6" fill="#4F3D6E" cx="710.002" cy="88.671" r="12.5"/>
	<circle opacity="0.6" fill="#4F3D6E" cx="1048.129" cy="351.171" r="12.5"/>
	<circle opacity="0.6" fill="#4F3D6E" cx="559.227" cy="308.671" r="12.5"/>
	<circle opacity="0.6" fill="#4F3D6E" cx="147.227" cy="383.277" r="12.5"/>
	<circle opacity="0.6" fill="#4F3D6E" cx="362.727" cy="218.671" r="12.5"/>
	<circle opacity="0.6" fill="#4F3D6E" cx="463.227" cy="296.171" r="12.5"/>
	<circle opacity="0.6" fill="#4F3D6E" cx="1065.141" cy="135.171" r="12.5"/>
	<circle fill="none" stroke="#4F3D6E" stroke-width="2" stroke-miterlimit="10" cx="769.658" cy="253.671" r="12.5"/>
	<circle fill="none" stroke="#4F3D6E" stroke-width="2" stroke-miterlimit="10" cx="710.002" cy="88.671" r="12.5"/>
	<circle opacity="0.6" fill="#4F3D6E" cx="979.69" cy="29.171" r="12.5"/>
	<circle fill="none" stroke="#4F3D6E" stroke-width="2" stroke-miterlimit="10" cx="979.69" cy="29.171" r="12.5"/>
	<circle fill="none" stroke="#4F3D6E" stroke-width="2" stroke-miterlimit="10" cx="1048.129" cy="351.171" r="12.5"/>
	<circle fill="none" stroke="#4F3D6E" stroke-width="2" stroke-miterlimit="10" cx="559.227" cy="308.671" r="12.5"/>
	<circle fill="none" stroke="#4F3D6E" stroke-width="2" stroke-miterlimit="10" cx="147.227" cy="383.277" r="12.5"/>
	<circle fill="none" stroke="#4F3D6E" stroke-width="2" stroke-miterlimit="10" cx="362.727" cy="218.671" r="12.5"/>
	<circle fill="none" stroke="#4F3D6E" stroke-width="2" stroke-miterlimit="10" cx="463.227" cy="296.171" r="12.5"/>
	<circle fill="none" stroke="#4F3D6E" stroke-width="2" stroke-miterlimit="10" cx="1065.141" cy="135.171" r="12.5"/>
	<circle opacity="0.6" fill="#6C5F82" cx="803.678" cy="338.671" r="25"/>
	<circle fill="none" stroke="#6C5F82" stroke-width="2" stroke-miterlimit="10" cx="803.678" cy="338.671" r="25"/>
	<circle opacity="0.6" fill="#6C5F82" cx="960.141" cy="376.171" r="25"/>
	<circle fill="none" stroke="#6C5F82" stroke-width="2" stroke-miterlimit="10" cx="960.141" cy="376.171" r="25"/>
	<circle opacity="0.6" fill="#6C5F82" cx="496.002" cy="181.171" r="25"/>
	<circle fill="none" stroke="#6C5F82" stroke-width="2" stroke-miterlimit="10" cx="496.002" cy="181.171" r="25"/>
	<circle opacity="0.6" fill="#4F3D6E" cx="828.002" cy="332.777" r="12.5"/>
	<circle fill="none" stroke="#4F3D6E" stroke-width="2" stroke-miterlimit="10" cx="828.002" cy="332.777" r="12.5"/>
	<circle fill="none" stroke="#6C5F82" stroke-width="2" stroke-miterlimit="10" cx="202.141" cy="266.171" r="25"/>
	<circle fill="none" stroke="#6C5F82" stroke-width="2" stroke-miterlimit="10" cx="659.141" cy="58.171" r="25"/>
	<circle fill="none" stroke="#6C5F82" stroke-width="2" stroke-miterlimit="10" cx="1138.002" cy="96.171" r="25"/>
	<circle fill="none" stroke="#6C5F82" stroke-width="2" stroke-miterlimit="10" cx="1143.141" cy="426.171" r="25"/>
	<circle fill="none" stroke="#6C5F82" stroke-width="2" stroke-miterlimit="10" cx="621.727" cy="436.171" r="25"/>
</g>
</svg>
