<?xml version="1.0" encoding="utf-8"?>
<!-- Generator: Adobe Illustrator 22.1.0, SVG Export Plug-In . SVG Version: 6.00 Build 0)  -->
<svg version="1.1" xmlns="http://www.w3.org/2000/svg" xmlns:xlink="http://www.w3.org/1999/xlink" x="0px" y="0px"
	 viewBox="0 0 1268 418" enable-background="new 0 0 1268 418" xml:space="preserve">
<g id="Layer_1">
	<circle opacity="0.6" fill="#7E729E" cx="891.3" cy="185.1" r="59.9"/>
	<circle opacity="0.4" fill="#A4A6B8" cx="603.7" cy="166.5" r="51.9"/>
	<circle opacity="0.6" fill="#7E729E" cx="578.3" cy="329.9" r="36.8"/>
	<circle opacity="0.4" fill="#A4A6B8" cx="957" cy="48.4" r="34.6"/>
	<circle opacity="0.4" fill="#A4A6B8" cx="1151.7" cy="182.7" r="30"/>
	<circle opacity="0.6" fill="#7E729E" cx="713.9" cy="245.1" r="30"/>
	<circle opacity="0.6" fill="#7E729E" cx="504.7" cy="239.9" r="45.4"/>
	<circle opacity="0.4" fill="#A4A6B8" cx="376.2" cy="243.5" r="32.8"/>
	<circle opacity="0.6" fill="#7E729E" cx="82.8" cy="351.5" r="12.5"/>
	<circle opacity="0.4" fill="#A4A6B8" cx="130.5" cy="339" r="15"/>
	<circle opacity="0.4" fill="#A4A6B8" cx="145.5" cy="268.9" r="21.5"/>
	<circle opacity="0.4" fill="#A4A6B8" cx="230.6" cy="231.4" r="26.2"/>
	<circle opacity="0.4" fill="#A4A6B8" cx="335.2" cy="166.5" r="31.2"/>
	<circle opacity="0.4" fill="#A4A6B8" cx="1043.1" cy="219.7" r="38"/>
	<circle opacity="0.6" fill="#7E729E" cx="1170.3" cy="36.9" r="23"/>
	<circle opacity="0.6" fill="#7E729E" cx="181.4" cy="299.2" r="12.5"/>
	<g opacity="0.7">
		<circle fill="#FEDEB8" cx="287.4" cy="307.8" r="39.6"/>
		<circle fill="#FEDEB8" cx="1068" cy="101.6" r="53.1"/>
		<circle fill="#FEDEB8" cx="425" cy="152.7" r="51.4"/>
		<circle fill="#FEDEB8" cx="715.2" cy="122.9" r="59.5"/>
		<circle fill="#FEDEB8" cx="84.9" cy="317.9" r="12.5"/>
		<circle fill="#FEDEB8" cx="130.5" cy="299.2" r="17.9"/>
		<circle fill="#FEDEB8" cx="1244.4" cy="71.4" r="23"/>
		<circle fill="#FEDEB8" cx="801.3" cy="255.5" r="70.4"/>
	</g>
	<g>
		<g>
			<line fill="none" stroke="#C4C4C4" stroke-miterlimit="10" x1="163.3" y1="388.3" x2="163.3" y2="378.9"/>
			<line fill="none" stroke="#C4C4C4" stroke-miterlimit="10" x1="271.2" y1="388.3" x2="271.2" y2="378.9"/>
			<line fill="none" stroke="#C4C4C4" stroke-miterlimit="10" x1="487.2" y1="388.3" x2="487.2" y2="378.9"/>
			<line fill="none" stroke="#C4C4C4" stroke-miterlimit="10" x1="811.2" y1="388.3" x2="811.2" y2="378.9"/>
			<line fill="none" stroke="#C4C4C4" stroke-miterlimit="10" x1="1027.2" y1="388.3" x2="1027.2" y2="378.9"/>
			<line fill="none" stroke="#C4C4C4" stroke-miterlimit="10" x1="379.2" y1="388.3" x2="379.2" y2="378.9"/>
			<line fill="none" stroke="#C4C4C4" stroke-miterlimit="10" x1="595.2" y1="388.3" x2="595.2" y2="378.9"/>
			<line fill="none" stroke="#C4C4C4" stroke-miterlimit="10" x1="703.2" y1="388.3" x2="703.2" y2="378.9"/>
			<line fill="none" stroke="#C4C4C4" stroke-miterlimit="10" x1="919.2" y1="388.3" x2="919.2" y2="378.9"/>
			<line fill="none" stroke="#C4C4C4" stroke-miterlimit="10" x1="1135.2" y1="388.3" x2="1135.2" y2="378.9"/>
			<line fill="none" stroke="#C4C4C4" stroke-miterlimit="10" x1="1243.2" y1="388.3" x2="1243.2" y2="378.9"/>
		</g>
		<g>
			<polyline fill="none" stroke="#C4C4C4" stroke-miterlimit="10" points="55.3,2 55.3,379.1 1266.1,379.1 			"/>
			<g>
				<line fill="none" stroke="#C4C4C4" stroke-miterlimit="10" x1="45.7" y1="10" x2="55.7" y2="10"/>
				<line fill="none" stroke="#C4C4C4" stroke-miterlimit="10" x1="45.7" y1="305" x2="55.7" y2="305"/>
				<line fill="none" stroke="#C4C4C4" stroke-miterlimit="10" x1="45.7" y1="231" x2="55.7" y2="231"/>
				<line fill="none" stroke="#C4C4C4" stroke-miterlimit="10" x1="45.7" y1="158" x2="55.7" y2="158"/>
				<line fill="none" stroke="#C4C4C4" stroke-miterlimit="10" x1="45.7" y1="84" x2="55.7" y2="84"/>
			</g>
		</g>
	</g>
	<g>
		<g>
			<text transform="matrix(1 0 0 1 574.4128 415.8708)" fill="#D1CDC9" font-family="'RobotoCondensed-Regular'" font-size="19px">2014</text>
		</g>
		<g>
			<text transform="matrix(1 0 0 1 789.5522 415.8708)" fill="#D1CDC9" font-family="'RobotoCondensed-Regular'" font-size="19px">2016</text>
		</g>
		<g>
			<text transform="matrix(1 0 0 1 1005.5522 415.8708)" fill="#D1CDC9" font-family="'RobotoCondensed-Regular'" font-size="19px">2018</text>
		</g>
		<g>
			<text transform="matrix(1 0 0 1 358.3445 415.8708)" fill="#D1CDC9" font-family="'RobotoCondensed-Regular'" font-size="19px">2012</text>
		</g>
		<g>
			<text transform="matrix(1 0 0 1 142.3442 415.8708)" fill="#D1CDC9" font-family="'RobotoCondensed-Regular'" font-size="19px">2010</text>
		</g>
		<g>
			<text transform="matrix(1 0 0 1 1221.0725 415.8708)" fill="#D1CDC9" font-family="'RobotoCondensed-Regular'" font-size="19px">2020</text>
		</g>
	</g>
	<g>
		<text transform="matrix(1 0 0 1 6.5078 20.9556)" fill="#D1CDC9" font-family="'RobotoCondensed-Regular'" font-size="19px">100</text>
	</g>
	<text transform="matrix(1 0 0 1 15.8876 240.533)" fill="#D1CDC9" font-family="'RobotoCondensed-Regular'" font-size="19px">40</text>
	<text transform="matrix(1 0 0 1 15.8876 168.5328)" fill="#D1CDC9" font-family="'RobotoCondensed-Regular'" font-size="19px">60</text>
	<text transform="matrix(1 0 0 1 15.8877 94.5328)" fill="#D1CDC9" font-family="'RobotoCondensed-Regular'" font-size="19px">80</text>
	<text transform="matrix(1 0 0 1 15.8876 312.9561)" fill="#D1CDC9" font-family="'RobotoCondensed-Regular'" font-size="19px">20</text>
</g>
<g id="Layer_2">
</g>
<g id="Layer_3">
</g>
</svg>
