<svg enable-background="new 0 0 256 256" height="256" viewBox="0 0 256 256" width="256" xmlns="http://www.w3.org/2000/svg"><path d="m254 254h-252v-252h11.813v240.188h240.187zm-224.437-202.719c0 18.484 14.984 33.469 33.469 33.469s33.468-14.985 33.468-33.469-14.984-33.469-33.469-33.469-33.468 14.984-33.468 33.469zm51.187 76.719c0 26.095 21.155 47.25 47.25 47.25s47.25-21.155 47.25-47.25-21.155-47.25-47.25-47.25-47.25 21.155-47.25 47.25zm104.344 49.158c0 14.679 11.899 26.578 26.578 26.578s26.578-11.899 26.578-26.578-11.899-26.578-26.578-26.578-26.578 11.899-26.578 26.578zm-122.063 26.578c0 12.504 10.137 22.641 22.641 22.641s22.641-10.137 22.641-22.641-10.137-22.641-22.641-22.641-22.641 10.137-22.641 22.641zm106.313-152.455c0 8.698 7.052 15.75 15.75 15.75s15.75-7.052 15.75-15.75-7.052-15.75-15.75-15.75-15.75 7.051-15.75 15.75z"/></svg>