<?xml version="1.0" encoding="utf-8"?>
<!-- Generator: Adobe Illustrator 24.0.1, SVG Export Plug-In . SVG Version: 6.00 Build 0)  -->
<svg version="1.1" id="Layer_1" xmlns="http://www.w3.org/2000/svg" xmlns:xlink="http://www.w3.org/1999/xlink" x="0px" y="0px"
	 viewBox="0 0 1268 418" style="enable-background:new 0 0 1268 418;" xml:space="preserve">
<style type="text/css">
	.st0{fill:none;stroke:#A39CB9;stroke-width:10.0797;stroke-miterlimit:10;}
	.st1{fill:#B0B0B0;}
	.st2{font-family:'RobotoCondensed-Regular';}
	.st3{font-size:21.6108px;}
	.st4{fill:#E5E5E5;}
	.st5{font-size:32.9807px;}
	.st6{fill:#A39CB9;stroke:#FFFFFF;stroke-width:8.0637;stroke-miterlimit:10;}
</style>
<path class="st0" d="M1258.4,123.9H7.5"/>
<text transform="matrix(1 0 0 1 346.3784 170.2285)" class="st1 st2 st3">2002</text>
<text transform="matrix(1 0 0 1 75.6387 170.2285)" class="st1 st2 st3">2001</text>
<path class="st4" d="M7.9,194.4h173.8v18.3H7.9L7.9,194.4z"/>
<path class="st4" d="M7.9,231.9h173.8v18.5H7.9L7.9,231.9z"/>
<text transform="matrix(1 0 0 1 610.8691 170.2285)" class="st1 st2 st3">2005</text>
<path class="st4" d="M546.2,194.4h173.6v18.3H546.2V194.4z"/>
<path class="st4" d="M546.2,231.9h173.6v18.5H546.2V231.9z"/>
<text transform="matrix(1 0 0 1 890.6807 170.2285)" class="st1 st2 st3">2010</text>
<path class="st4" d="M815.3,194.4h173.6v18.3H815.3V194.4z"/>
<path class="st4" d="M815.3,231.9h173.6v18.5H815.3V231.9z"/>
<text transform="matrix(1 0 0 1 1150.9375 170.2285)" class="st1 st2 st3">2015</text>
<text transform="matrix(1 0 0 1 336.9038 87.1719)" class="st1 st2 st5">MVP</text>
<text transform="matrix(1 0 0 1 40.3594 87.1719)" class="st1 st2 st5">founded</text>
<text transform="matrix(1 0 0 1 588.8955 87.1719)" class="st1 st2 st5">launch</text>
<text transform="matrix(1 0 0 1 867.0938 87.1719)" class="st1 st2 st5">g</text>
<text transform="matrix(1 0 0 1 883.4238 87.1719)" class="st1 st2 st5">r</text>
<text transform="matrix(1 0 0 1 893.0996 87.1719)" class="st1 st2 st5">owth</text>
<text transform="matrix(1 0 0 1 1149.123 87.1719)" class="st1 st2 st5">IPO</text>
<g>
	<path class="st4" d="M1086.4,194.4H1260v18.3h-173.6V194.4z"/>
	<path class="st4" d="M1086.4,231.9H1260v18.5h-173.6V231.9z"/>
	<path class="st4" d="M7.9,269.2h173.8v18.5H7.9L7.9,269.2z"/>
	<path class="st4" d="M546.2,269.2h173.6v18.5H546.2V269.2z"/>
	<path class="st4" d="M815.3,269.2h173.6v18.5H815.3V269.2z"/>
	<path class="st4" d="M1086.4,269.2H1260v18.5h-173.6V269.2z"/>
	<path class="st4" d="M7.9,306.5h173.8v18.5H7.9L7.9,306.5z"/>
	<path class="st4" d="M546.2,306.5h173.6v18.5H546.2V306.5z"/>
	<path class="st4" d="M815.3,306.5h173.6v18.5H815.3V306.5z"/>
	<path class="st4" d="M1086.4,306.5H1260v18.5h-173.6V306.5z"/>
	<path class="st4" d="M7.9,343.8h173.8v18.5H7.9L7.9,343.8z"/>
	<path class="st4" d="M275.4,194.4H449v18.3H275.4V194.4z"/>
	<path class="st4" d="M275.4,231.9H449v18.5H275.4V231.9z"/>
	<path class="st4" d="M275.4,269.2H449v18.5H275.4V269.2z"/>
	<path class="st4" d="M275.4,306.5H449v18.5H275.4V306.5z"/>
	<path class="st4" d="M275.4,343.8H449v18.5H275.4V343.8z"/>
	<path class="st4" d="M546.2,343.8h173.6v18.5H546.2V343.8z"/>
	<path class="st4" d="M815.3,343.8h173.6v18.5H815.3V343.8z"/>
	<path class="st4" d="M1086.4,343.8H1260v18.5h-173.6V343.8z"/>
</g>
<circle class="st6" cx="96.8" cy="124.3" r="17.1"/>
<circle class="st6" cx="362.3" cy="124.3" r="17.1"/>
<circle class="st6" cx="636.3" cy="124.3" r="17.1"/>
<circle class="st6" cx="912" cy="124.3" r="17.1"/>
<circle class="st6" cx="1175.7" cy="124.3" r="17.1"/>
</svg>
