<?xml version="1.0" encoding="utf-8"?>
<!-- Generator: Adobe Illustrator 19.2.0, SVG Export Plug-In . SVG Version: 6.00 Build 0)  -->
<svg version="1.1" id="Layer_1" xmlns="http://www.w3.org/2000/svg" xmlns:xlink="http://www.w3.org/1999/xlink" x="0px" y="0px"
	 width="1200px" height="993px" viewBox="0 0 1200 993" enable-background="new 0 0 1200 993" xml:space="preserve">
<g>
	
		<line fill="none" stroke="#AFAFAF" stroke-width="4" stroke-miterlimit="10" stroke-dasharray="24,18" x1="980" y1="844" x2="980" y2="429"/>
	
		<line fill="none" stroke="#AFAFAF" stroke-width="4" stroke-miterlimit="10" stroke-dasharray="24,18" x1="605" y1="841" x2="605" y2="769"/>
	<g>
		<text transform="matrix(1 0 0 1 164.3828 62.1328)" fill="#7F7F7F" font-family="'Roboto-Regular'" font-size="65px">bar length = value amount</text>
	</g>
	<rect x="211" y="359" transform="matrix(-1.836970e-16 1 -1 -1.836970e-16 964 318)" fill="#7581BA" width="224" height="564"/>
	<rect x="399" y="-168" transform="matrix(-1.836970e-16 1 -1 -1.836970e-16 814 -209)" fill="#A3AEE3" width="225" height="941"/>
	<g>
		<text transform="matrix(1 0 0 1 193.4805 660.6055)" fill="#37246D" font-family="'Roboto-Medium'" font-size="65.6768px">a</text>
	</g>
	<g>
		<text transform="matrix(1 0 0 1 216.3145 990.875)" fill="#37246D" font-family="'Roboto-Medium'" font-size="46.912px">1</text>
	</g>
	<g>
		<text transform="matrix(1 0 0 1 404.3438 990.8711)" fill="#37246D" font-family="'Roboto-Medium'" font-size="46.912px">2</text>
	</g>
	<g>
		<text transform="matrix(1 0 0 1 591.5117 990.875)" fill="#37246D" font-family="'Roboto-Medium'" font-size="46.912px">3</text>
	</g>
	<g>
		<text transform="matrix(1 0 0 1 966.416 990.875)" fill="#37246D" font-family="'Roboto-Medium'" font-size="46.912px">5</text>
	</g>
	<g>
		<text transform="matrix(1 0 0 1 775.5723 990.875)" fill="#37246D" font-family="'Roboto-Medium'" font-size="46.912px">4</text>
	</g>
	<g>
		<text transform="matrix(1 0 0 1 195.3359 328.0039)" fill="#37246D" font-family="'Roboto-Medium'" font-size="65.6768px">b</text>
	</g>
	<line fill="none" stroke="#464A90" stroke-width="4" stroke-miterlimit="10" x1="231" y1="927" x2="231" y2="860"/>
	<line fill="none" stroke="#464A90" stroke-width="4" stroke-miterlimit="10" x1="418" y1="927" x2="418" y2="860"/>
	<line fill="none" stroke="#464A90" stroke-width="4" stroke-miterlimit="10" x1="605" y1="927" x2="605" y2="860"/>
	<line fill="none" stroke="#464A90" stroke-width="4" stroke-miterlimit="10" x1="792" y1="927" x2="792" y2="860"/>
	<line fill="none" stroke="#464A90" stroke-width="4" stroke-miterlimit="10" x1="980" y1="927" x2="980" y2="860"/>
	<line fill="none" stroke="#464A90" stroke-width="4" stroke-miterlimit="10" x1="67" y1="303" x2="2" y2="303"/>
	<line fill="none" stroke="#464A90" stroke-width="4" stroke-miterlimit="10" x1="67" y1="641" x2="2" y2="641"/>
	<g>
		<g>
			<polyline fill="none" stroke="#464A90" stroke-width="16" stroke-miterlimit="10" points="34,42.187 34,893 1156.813,893 			"/>
			<g>
				<polygon fill="#464A90" points="6.077,50.357 34,2 61.923,50.357 				"/>
			</g>
			<g>
				<polygon fill="#464A90" points="1148.643,920.923 1197,893 1148.643,865.077 				"/>
			</g>
		</g>
	</g>
</g>
</svg>
