<?xml version="1.0" encoding="utf-8"?>
<!-- Generator: Adobe Illustrator 19.2.0, SVG Export Plug-In . SVG Version: 6.00 Build 0)  -->
<svg version="1.1" id="Layer_1" xmlns="http://www.w3.org/2000/svg" xmlns:xlink="http://www.w3.org/1999/xlink" x="0px" y="0px"
	 width="1268px" height="558px" viewBox="0 0 1268 558" enable-background="new 0 0 1268 558" xml:space="preserve">
<g id="Layer_2">
</g>
<g display="none">
	<rect x="216" y="111.367" display="inline" fill="#B7FFE6" width="35.706" height="340"/>
	<rect x="323.118" y="111.367" display="inline" fill="#B7FFE6" width="35.706" height="340"/>
	<rect x="430.235" y="111.367" display="inline" fill="#B7FFE6" width="35.706" height="340"/>
	<rect x="537.353" y="111.367" display="inline" fill="#B7FFE6" width="35.706" height="340"/>
	<rect x="644.471" y="111.367" display="inline" fill="#B7FFE6" width="35.706" height="340"/>
	<rect x="751.588" y="111.367" display="inline" fill="#B7FFE6" width="35.706" height="340"/>
	<rect x="858.706" y="111.367" display="inline" fill="#B7FFE6" width="35.706" height="340"/>
	<rect x="965.824" y="111.367" display="inline" fill="#B7FFE6" width="35.706" height="340"/>
	<rect x="1072.941" y="111.367" display="inline" fill="#B7FFE6" width="35.706" height="340"/>
	<rect x="1180.059" y="111.367" display="inline" fill="#B7FFE6" width="35.706" height="340"/>
	<rect x="1287.177" y="111.367" display="inline" fill="#B7FFE6" width="35.706" height="340"/>
	<rect x="1394.294" y="111.367" display="inline" fill="#B7FFE6" width="35.706" height="340"/>
</g>
<g display="none">
	
		<line display="inline" fill="none" stroke="#C4C4C4" stroke-miterlimit="10" x1="287.412" y1="476.367" x2="287.412" y2="-173.133"/>
	
		<line display="inline" fill="none" stroke="#C4C4C4" stroke-miterlimit="10" x1="394.529" y1="476.367" x2="394.529" y2="-173.133"/>
	
		<line display="inline" fill="none" stroke="#C4C4C4" stroke-miterlimit="10" x1="501.647" y1="476.367" x2="501.647" y2="-173.133"/>
	
		<line display="inline" fill="none" stroke="#C4C4C4" stroke-miterlimit="10" x1="608.765" y1="476.367" x2="608.765" y2="-173.133"/>
	
		<line display="inline" fill="none" stroke="#C4C4C4" stroke-miterlimit="10" x1="715.882" y1="476.367" x2="715.882" y2="-173.133"/>
	<line display="inline" fill="none" stroke="#C4C4C4" stroke-miterlimit="10" x1="823" y1="476.367" x2="823" y2="-173.133"/>
	
		<line display="inline" fill="none" stroke="#C4C4C4" stroke-miterlimit="10" x1="930.118" y1="476.367" x2="930.118" y2="-173.133"/>
	
		<line display="inline" fill="none" stroke="#C4C4C4" stroke-miterlimit="10" x1="1037.235" y1="476.367" x2="1037.235" y2="-173.133"/>
	
		<line display="inline" fill="none" stroke="#C4C4C4" stroke-miterlimit="10" x1="1144.353" y1="476.367" x2="1144.353" y2="-173.133"/>
	
		<line display="inline" fill="none" stroke="#C4C4C4" stroke-miterlimit="10" x1="1251.471" y1="476.367" x2="1251.471" y2="-173.133"/>
	
		<line display="inline" fill="none" stroke="#C4C4C4" stroke-miterlimit="10" x1="1358.588" y1="476.367" x2="1358.588" y2="-173.133"/>
</g>
<g>
	<g>
		<line fill="none" stroke="#C4C4C4" stroke-miterlimit="10" x1="50" y1="436.171" x2="1264" y2="436.171"/>
		<line fill="none" stroke="#C4C4C4" stroke-miterlimit="10" x1="50" y1="351.171" x2="1264" y2="351.171"/>
		<line fill="none" stroke="#C4C4C4" stroke-miterlimit="10" x1="50" y1="266.171" x2="1264" y2="266.171"/>
		<line fill="none" stroke="#C4C4C4" stroke-miterlimit="10" x1="50" y1="181.171" x2="1264" y2="181.171"/>
		<line fill="none" stroke="#C4C4C4" stroke-miterlimit="10" x1="50" y1="96.171" x2="1264" y2="96.171"/>
		<line fill="none" stroke="#C4C4C4" stroke-miterlimit="10" x1="50" y1="11.171" x2="1264" y2="11.171"/>
	</g>
	<g>
		<text transform="matrix(1 0 0 1 2.1245 20.9805)"><tspan x="0" y="0" fill="#B3B3B3" font-family="'RobotoCondensed-Regular'" font-size="26px">120</tspan><tspan x="0" y="83" fill="#B3B3B3" font-family="'RobotoCondensed-Regular'" font-size="26px">100</tspan><tspan x="12.835" y="166" fill="#B3B3B3" font-family="'RobotoCondensed-Regular'" font-size="26px">80</tspan><tspan x="12.835" y="249" fill="#B3B3B3" font-family="'RobotoCondensed-Regular'" font-size="26px">60</tspan><tspan x="12.835" y="332" fill="#B3B3B3" font-family="'RobotoCondensed-Regular'" font-size="26px">40</tspan><tspan x="12.835" y="415" fill="#B3B3B3" font-family="'RobotoCondensed-Regular'" font-size="26px">20</tspan><tspan x="25.67" y="498" fill="#B3B3B3" font-family="'RobotoCondensed-Regular'" font-size="26px">0</tspan></text>
	</g>
	<g>
		<text transform="matrix(1 0 0 1 113.8801 552.2159)" fill="#B3B3B3" font-family="'RobotoCondensed-Regular'" font-size="26px">A</text>
	</g>
	<g>
		<text transform="matrix(1 0 0 1 221.6799 552.2159)" fill="#B3B3B3" font-family="'RobotoCondensed-Regular'" font-size="26px">B</text>
	</g>
	<g>
		<text transform="matrix(1 0 0 1 328.1213 552.2159)" fill="#B3B3B3" font-family="'RobotoCondensed-Regular'" font-size="26px">C</text>
	</g>
	<g>
		<text transform="matrix(1 0 0 1 435.0198 552.2159)" fill="#B3B3B3" font-family="'RobotoCondensed-Regular'" font-size="26px">D</text>
	</g>
	<g>
		<text transform="matrix(1 0 0 1 543.9495 552.2159)" fill="#B3B3B3" font-family="'RobotoCondensed-Regular'" font-size="26px">E</text>
	</g>
	<g>
		<text transform="matrix(1 0 0 1 651.3684 552.2159)" fill="#B3B3B3" font-family="'RobotoCondensed-Regular'" font-size="26px">F</text>
	</g>
	<g>
		<text transform="matrix(1 0 0 1 755.4993 552.2159)" fill="#B3B3B3" font-family="'RobotoCondensed-Regular'" font-size="26px">G</text>
	</g>
	<g>
		<text transform="matrix(1 0 0 1 861.7375 552.2159)" fill="#B3B3B3" font-family="'RobotoCondensed-Regular'" font-size="26px">H</text>
	</g>
	<g>
		<text transform="matrix(1 0 0 1 978.3606 552.2159)" fill="#B3B3B3" font-family="'RobotoCondensed-Regular'" font-size="26px">I</text>
	</g>
	<g>
		<text transform="matrix(1 0 0 1 1079.2922 552.2159)" fill="#B3B3B3" font-family="'RobotoCondensed-Regular'" font-size="26px">J</text>
	</g>
	<g>
		<text transform="matrix(1 0 0 1 1184.6926 552.2159)" fill="#B3B3B3" font-family="'RobotoCondensed-Regular'" font-size="26px">K</text>
	</g>
	<rect x="85.706" y="436.171" opacity="0.7" fill="#4F3D6E" width="71.412" height="85"/>
	<rect x="192.824" y="96.171" opacity="0.7" fill="#4F3D6E" width="71.412" height="425"/>
	<rect x="299.941" y="11.171" opacity="0.7" fill="#9C96AD" width="71.412" height="510"/>
	<rect x="407.059" y="226.945" opacity="0.7" fill="#4F3D6E" width="71.412" height="294.226"/>
	<rect x="514.176" y="181.171" opacity="0.7" fill="#4F3D6E" width="71.412" height="340"/>
	<rect x="621.294" y="266.171" opacity="0.7" fill="#4F3D6E" width="71.412" height="255"/>
	<rect x="728.412" y="351.171" opacity="0.7" fill="#4F3D6E" width="71.412" height="170"/>
	<rect x="835.529" y="181.171" opacity="0.7" fill="#4F3D6E" width="71.412" height="340"/>
	<rect x="942.647" y="51.171" opacity="0.7" fill="#4F3D6E" width="71.412" height="470"/>
	<rect x="1049.765" y="266.171" opacity="0.7" fill="#4F3D6E" width="71.412" height="255"/>
	<rect x="1156.882" y="181.171" opacity="0.7" fill="#4F3D6E" width="71.412" height="340"/>
	<line fill="none" stroke="#6C5F82" stroke-width="2" stroke-miterlimit="10" x1="50" y1="521.171" x2="1264" y2="521.171"/>
</g>
</svg>
