<?xml version="1.0" encoding="utf-8"?>
<!-- Generator: Adobe Illustrator 22.1.0, SVG Export Plug-In . SVG Version: 6.00 Build 0)  -->
<svg version="1.1" xmlns="http://www.w3.org/2000/svg" xmlns:xlink="http://www.w3.org/1999/xlink" x="0px" y="0px"
	 viewBox="0 0 1268 418" enable-background="new 0 0 1268 418" xml:space="preserve">
<g id="Layer_1">
	<rect x="183.1" y="9.1" fill="#C6BFCF" width="74.7" height="377.5"/>
	<rect x="295.1" y="32.8" fill="#968BAF" width="74.7" height="353.8"/>
	<rect x="407.1" y="91.4" fill="#C6BFCF" width="74.7" height="295.2"/>
	<rect x="519.1" y="45.4" fill="#C6BFCF" width="74.7" height="341.1"/>
	<rect x="71" y="91.4" fill="#C6BFCF" width="74.7" height="295.2"/>
	<rect x="631.2" y="130.7" fill="#C6BFCF" width="74.7" height="255.8"/>
	<rect x="743.2" y="216" fill="#C6BFCF" width="74.7" height="170.6"/>
	<rect x="855.2" y="59" fill="#C6BFCF" width="74.7" height="327.5"/>
	<rect x="967.3" y="17.5" fill="#C6BFCF" width="74.7" height="369"/>
	<rect x="1079.3" y="130.7" fill="#C6BFCF" width="74.7" height="255.8"/>
	<rect x="1191.3" y="45.4" fill="#C6BFCF" width="74.7" height="341.1"/>
	<g>
		<g>
			<text transform="matrix(1 0 0 1 102.0386 412.0645)" fill="#D1CDC9" font-family="'RobotoCondensed-Regular'" font-size="18px">A</text>
		</g>
		<g>
			<text transform="matrix(1 0 0 1 210.8533 412.0645)" fill="#D1CDC9" font-family="'RobotoCondensed-Regular'" font-size="18px">B</text>
		</g>
		<g>
			<text transform="matrix(1 0 0 1 322.5881 412.0645)" fill="#D1CDC9" font-family="'RobotoCondensed-Regular'" font-size="18px">C</text>
		</g>
		<g>
			<text transform="matrix(1 0 0 1 437.9131 412.0645)" fill="#D1CDC9" font-family="'RobotoCondensed-Regular'" font-size="18px">D</text>
		</g>
		<g>
			<text transform="matrix(1 0 0 1 548.5789 412.0645)" fill="#D1CDC9" font-family="'RobotoCondensed-Regular'" font-size="18px">E</text>
		</g>
		<g>
			<text transform="matrix(1 0 0 1 658.3188 412.0645)" fill="#D1CDC9" font-family="'RobotoCondensed-Regular'" font-size="18px">F</text>
		</g>
		<g>
			<text transform="matrix(1 0 0 1 771.4048 412.0645)" fill="#D1CDC9" font-family="'RobotoCondensed-Regular'" font-size="18px">G</text>
		</g>
		<g>
			<text transform="matrix(1 0 0 1 884.1479 412.0645)" fill="#D1CDC9" font-family="'RobotoCondensed-Regular'" font-size="18px">H</text>
		</g>
		<g>
			<text transform="matrix(1 0 0 1 994.7935 412.0645)" fill="#D1CDC9" font-family="'RobotoCondensed-Regular'" font-size="18px">I</text>
		</g>
		<g>
			<text transform="matrix(1 0 0 1 1103.3745 412.0645)" fill="#D1CDC9" font-family="'RobotoCondensed-Regular'" font-size="18px">J</text>
		</g>
		<g>
			<text transform="matrix(1 0 0 1 1219.8208 412.0645)" fill="#D1CDC9" font-family="'RobotoCondensed-Regular'" font-size="18px">K</text>
		</g>
	</g>
	<g>
		<polyline fill="none" stroke="#C4C4C4" stroke-miterlimit="10" points="55.1,2.5 55.1,386.5 1266,386.5 		"/>
		<g>
			<line fill="none" stroke="#C4C4C4" stroke-miterlimit="10" x1="45.5" y1="10.2" x2="55.5" y2="10.2"/>
			<line fill="none" stroke="#C4C4C4" stroke-miterlimit="10" x1="45.5" y1="311.3" x2="55.5" y2="311.3"/>
			<line fill="none" stroke="#C4C4C4" stroke-miterlimit="10" x1="45.5" y1="236" x2="55.5" y2="236"/>
			<line fill="none" stroke="#C4C4C4" stroke-miterlimit="10" x1="45.5" y1="160.7" x2="55.5" y2="160.7"/>
			<line fill="none" stroke="#C4C4C4" stroke-miterlimit="10" x1="45.5" y1="85.4" x2="55.5" y2="85.4"/>
		</g>
		<g display="none">
			<line display="inline" fill="none" stroke="#C4C4C4" stroke-miterlimit="10" x1="332.4" y1="396" x2="332.4" y2="386.5"/>
			<line display="inline" fill="none" stroke="#C4C4C4" stroke-miterlimit="10" x1="558.5" y1="396" x2="558.5" y2="386.5"/>
			<line display="inline" fill="none" stroke="#C4C4C4" stroke-miterlimit="10" x1="892.6" y1="396" x2="892.6" y2="386.5"/>
			<line display="inline" fill="none" stroke="#C4C4C4" stroke-miterlimit="10" x1="780.5" y1="396" x2="780.5" y2="386.5"/>
			<line display="inline" fill="none" stroke="#C4C4C4" stroke-miterlimit="10" x1="1116.6" y1="396" x2="1116.6" y2="386.5"/>
			<line display="inline" fill="none" stroke="#C4C4C4" stroke-miterlimit="10" x1="55.1" y1="396" x2="55.1" y2="386.5"/>
			<line display="inline" fill="none" stroke="#C4C4C4" stroke-miterlimit="10" x1="111.4" y1="396" x2="111.4" y2="386.5"/>
			<line display="inline" fill="none" stroke="#C4C4C4" stroke-miterlimit="10" x1="220.4" y1="396" x2="220.4" y2="386.5"/>
			<line display="inline" fill="none" stroke="#C4C4C4" stroke-miterlimit="10" x1="446.2" y1="396" x2="446.2" y2="386.5"/>
			<line display="inline" fill="none" stroke="#C4C4C4" stroke-miterlimit="10" x1="668.5" y1="396" x2="668.5" y2="386.5"/>
			<line display="inline" fill="none" stroke="#C4C4C4" stroke-miterlimit="10" x1="1005.5" y1="396" x2="1005.5" y2="386.5"/>
			<line display="inline" fill="none" stroke="#C4C4C4" stroke-miterlimit="10" x1="1228.7" y1="396" x2="1228.7" y2="386.5"/>
		</g>
	</g>
	<g>
		<text transform="matrix(1 0 0 1 11.5713 19.7955)" fill="#D1CDC9" font-family="'RobotoCondensed-Regular'" font-size="19px">100</text>
	</g>
	<text transform="matrix(1 0 0 1 20.9512 244.3729)" fill="#D1CDC9" font-family="'RobotoCondensed-Regular'" font-size="19px">40</text>
	<text transform="matrix(1 0 0 1 20.9512 167.3727)" fill="#D1CDC9" font-family="'RobotoCondensed-Regular'" font-size="19px">60</text>
	<text transform="matrix(1 0 0 1 20.9512 91.3728)" fill="#D1CDC9" font-family="'RobotoCondensed-Regular'" font-size="19px">80</text>
	<text transform="matrix(1 0 0 1 20.9512 317.796)" fill="#D1CDC9" font-family="'RobotoCondensed-Regular'" font-size="19px">20</text>
</g>
<g id="Layer_2">
</g>
<g id="Layer_3">
</g>
</svg>
