<?xml version="1.0" encoding="utf-8"?>
<!-- Generator: Adobe Illustrator 22.1.0, SVG Export Plug-In . SVG Version: 6.00 Build 0)  -->
<svg version="1.1" xmlns="http://www.w3.org/2000/svg" xmlns:xlink="http://www.w3.org/1999/xlink" x="0px" y="0px"
	 viewBox="0 0 1268 418" enable-background="new 0 0 1268 418" xml:space="preserve">
<g id="Layer_1">
	<g>
		<g>
			<path fill="#F3D0AA" d="M715.3,402.8h-2.6v-0.5c0-7.2,2.6-14.2,7.3-19.6l14.5-16.8c4.3-5,6.6-11.3,6.6-17.9v-0.2h2.6v0.2
				c0,7.2-2.6,14.2-7.3,19.6L722,384.5c-4.3,5-6.6,11.3-6.6,17.9V402.8z"/>
		</g>
		<g>
			<g>
				<polygon fill="#F3D0AA" points="709.4,401.4 714,409.4 718.6,401.5 				"/>
			</g>
		</g>
	</g>
	<g>
		<g>
			<path fill="#9C96AD" d="M509.5,343.3l-2.6-0.1c0.4-9.7,5.1-18.6,12.9-24.3l17.2-12.8c7.4-5.5,11.9-14.4,11.9-23.6h2.6
				c0,10.1-4.8,19.7-13,25.7L521.4,321C514.2,326.3,509.9,334.4,509.5,343.3z"/>
		</g>
		<g>
			<g>
				<polygon fill="#9C96AD" points="503.7,341.8 508.2,349.9 512.9,342 				"/>
			</g>
		</g>
	</g>
	<g>
		<path fill="#F3D0AA" d="M945.4,284.5h-2.6v-8.1c0-7.9-4.6-15.2-11.6-18.6l-10.3-5c-8-3.9-13.1-12.1-13.1-21v-7.7h2.6v7.7
			c0,7.9,4.6,15.2,11.6,18.6l10.3,5c8,3.9,13.1,12.1,13.1,21V284.5z"/>
	</g>
	<g>
		<path fill="#F3D0AA" d="M908.6,349.9H906V341c0-7.2-3-14.1-8.3-19.1L881.8,307c-5.8-5.4-9.1-13.1-9.1-21v-3.6h2.6v3.6
			c0,7.2,3,14.1,8.3,19.1l15.9,14.9c5.8,5.4,9.1,13.1,9.1,21V349.9z"/>
	</g>
	<g>
		<circle fill="#F3D0AA" cx="269.3" cy="282.4" r="14.1"/>
	</g>
	<g>
		<circle fill="#F3D0AA" cx="232.5" cy="343.1" r="12.7"/>
	</g>
	<g>
		<circle fill="#9C96AD" cx="194.3" cy="404.6" r="11.4"/>
	</g>
	<g>
		<g>
			<path fill="#9C96AD" d="M364.8,84.4l-2.6-0.2c0.7-11.4,10.3-20.3,21.7-20.3h188.4c21.8,0,39.6-17.8,39.6-39.6v-0.3h2.6v0.3
				c0,23.3-19,42.3-42.3,42.3H383.8C373.8,66.6,365.4,74.4,364.8,84.4z"/>
		</g>
		<g>
			<g>
				<polygon fill="#9C96AD" points="372.9,81.8 363.4,97.6 354.5,81.5 				"/>
			</g>
		</g>
	</g>
	<g>
		<g>
			<path fill="#F3D0AA" d="M872,84.4c-0.7-10-9-17.8-19.1-17.8H665.8c-23.3,0-42.3-19-42.3-42.3v-0.3h2.6v0.3
				c0,21.8,17.8,39.6,39.6,39.6H853c11.4,0,20.9,8.9,21.7,20.3L872,84.4z"/>
		</g>
		<g>
			<g>
				<polygon fill="#F3D0AA" points="882.3,81.5 873.4,97.6 863.9,81.8 				"/>
			</g>
		</g>
	</g>
	<g>
		<g>
			<path fill="#F3D0AA" d="M458.9,157.8h-2.6v-1.5c0-10.5-8.6-19.1-19.1-19.1h-32.8c-23.3,0-42.3-19-42.3-42.3v-0.3h2.6v0.3
				c0,21.8,17.8,39.6,39.6,39.6h32.8c12,0,21.7,9.7,21.7,21.7V157.8z"/>
		</g>
		<g>
			<g>
				<polygon fill="#F3D0AA" points="464.8,155.6 457.6,168.2 450.4,155.6 				"/>
			</g>
		</g>
	</g>
	<g>
		<path fill="#F3D0AA" d="M305.6,225H303v-8.2c0-8.1-4.1-15.5-11-19.8l-11.8-7.3c-7.7-4.8-12.3-13-12.3-22v-2.2h2.6v2.2
			c0,8.1,4.1,15.5,11,19.8l11.8,7.3c7.7,4.8,12.3,13,12.3,22V225z"/>
	</g>
	<g>
		<g>
			<path fill="#9C96AD" d="M235.6,215.6l-2.6-0.1c0.4-8.5,5-16.2,12.2-20.6l11.8-7.3c6.9-4.3,11-11.7,11-19.8v-2.2h2.6v2.2
				c0,9-4.6,17.3-12.3,22l-11.8,7.3C240.1,201.1,236,208.1,235.6,215.6z"/>
		</g>
		<g>
			<g>
				<polygon fill="#9C96AD" points="227.9,213.6 234.3,225 241,213.8 				"/>
			</g>
		</g>
	</g>
	<g>
		<path fill="#F3D0AA" d="M270.6,284.5H268v-8.1c0-7.9-4.6-15.2-11.6-18.6l-10.3-5c-8-3.9-13.1-12.1-13.1-21v-7.7h2.6v7.7
			c0,7.9,4.6,15.2,11.6,18.6l10.3,5c8,3.9,13.1,12.1,13.1,21V284.5z"/>
	</g>
	<g>
		<path fill="#F3D0AA" d="M233.8,349.9h-2.6V341c0-7.2-3-14.1-8.3-19.1L207,307c-5.8-5.4-9.1-13.1-9.1-21v-3.6h2.6v3.6
			c0,7.2,3,14.1,8.3,19.1l15.9,14.9c5.8,5.4,9.1,13.1,9.1,21V349.9z"/>
	</g>
	<g>
		<path fill="#9C96AD" d="M195.8,409.4h-2.6v-7.1c0-6.6-2.4-12.9-6.6-17.9L172,367.6c-4.7-5.4-7.3-12.4-7.3-19.6v-0.2h2.6v0.2
			c0,6.6,2.4,12.9,6.6,17.9l14.5,16.8c4.7,5.4,7.3,12.4,7.3,19.6V409.4z"/>
	</g>
	<g>
		<g>
			<path fill="#9C96AD" d="M167.3,342.3h-2.6V341c0-7.9,3.3-15.6,9.1-21l15.9-14.9c5.2-4.9,8.3-11.9,8.3-19.1v-6.2h2.6v6.2
				c0,7.9-3.3,15.6-9.1,21l-15.9,14.9c-5.2,4.9-8.3,11.9-8.3,19.1V342.3z"/>
		</g>
		<g>
			<g>
				<polygon fill="#9C96AD" points="160.7,340.8 166,349.9 171.2,340.8 				"/>
			</g>
		</g>
	</g>
	<g>
		<circle fill="#F3D0AA" cx="304.3" cy="223" r="15.4"/>
	</g>
	<g>
		<circle fill="#F3D0AA" cx="434.1" cy="282.4" r="14.1"/>
	</g>
	<g>
		<circle fill="#F3D0AA" cx="397.4" cy="343.1" r="12.7"/>
	</g>
	<g>
		<circle fill="#9C96AD" cx="359.1" cy="404.6" r="11.4"/>
	</g>
	<g>
		<g>
			<path fill="#9C96AD" d="M400.6,215.8l-2.6-0.4c1.2-8.6,7-15.8,15.1-18.8l29.1-10.7c8.4-3.1,14.1-11.2,14.1-20.2h2.6
				c0,10.1-6.3,19.2-15.8,22.7L414,199.1C406.8,201.8,401.7,208.1,400.6,215.8z"/>
		</g>
		<g>
			<g>
				<polygon fill="#9C96AD" points="393,213.4 399.1,225 406.2,213.9 				"/>
			</g>
		</g>
	</g>
	<g>
		<path fill="#F3D0AA" d="M435.5,284.5h-2.6v-8.1c0-7.9-4.6-15.2-11.6-18.6l-10.3-5c-8-3.9-13.1-12.1-13.1-21v-7.7h2.6v7.7
			c0,7.9,4.6,15.2,11.6,18.6l10.3,5c8,3.9,13.1,12.1,13.1,21V284.5z"/>
	</g>
	<g>
		<g>
			<path fill="#9C96AD" d="M365.4,276l-2.6-0.1c0.2-8.8,5.2-16.7,13.1-20.5l10.3-5c7.1-3.4,11.6-10.8,11.6-18.6v-12.1h2.6v12.1
				c0,8.9-5.2,17.1-13.1,21l-10.3,5C370,261.2,365.6,268.2,365.4,276z"/>
		</g>
		<g>
			<g>
				<polygon fill="#9C96AD" points="358.3,274.2 364.1,284.5 370.1,274.3 				"/>
			</g>
		</g>
	</g>
	<g>
		<path fill="#F3D0AA" d="M398.7,349.9H396V341c0-7.2-3-14.1-8.3-19.1L371.9,307c-5.8-5.4-9.1-13.1-9.1-21v-3.6h2.6v3.6
			c0,7.2,3,14.1,8.3,19.1l15.9,14.9c5.8,5.4,9.1,13.1,9.1,21V349.9z"/>
	</g>
	<g>
		<path fill="#9C96AD" d="M360.6,409.4H358v-7.1c0-6.6-2.4-12.9-6.6-17.9l-14.5-16.8c-4.7-5.4-7.3-12.4-7.3-19.6v-0.2h2.6v0.2
			c0,6.6,2.4,12.9,6.6,17.9l14.5,16.8c4.7,5.4,7.3,12.4,7.3,19.6V409.4z"/>
	</g>
	<g>
		<g>
			<path fill="#9C96AD" d="M332.2,342.3h-2.6V341c0-7.9,3.3-15.6,9.1-21l15.9-14.9c5.2-4.9,8.3-11.9,8.3-19.1v-7.1h2.6v7.1
				c0,7.9-3.3,15.6-9.1,21l-15.9,14.9c-5.2,4.9-8.3,11.9-8.3,19.1V342.3z"/>
		</g>
		<g>
			<g>
				<polygon fill="#9C96AD" points="325.6,340.8 330.8,349.9 336.1,340.8 				"/>
			</g>
		</g>
	</g>
	<g>
		<circle fill="#9C96AD" cx="480.2" cy="282.4" r="14.1"/>
	</g>
	<g>
		<circle fill="#F3D0AA" cx="564" cy="404.6" r="11.4"/>
	</g>
	<g>
		<path fill="#F3D0AA" d="M565.1,409.4h-2.6v-7.1c0-7.2,2.6-14.2,7.3-19.6l14.5-16.8c4.3-5,6.6-11.3,6.6-17.9v-0.2h2.6v0.2
			c0,7.2-2.6,14.2-7.3,19.6l-14.5,16.8c-4.3,5-6.6,11.3-6.6,17.9V409.4z"/>
	</g>
	<g>
		<g>
			<path fill="#F3D0AA" d="M590.9,342.4c-0.6-8.5-4.9-16.3-11.8-21.4l-17.2-12.8c-8.1-6-13-15.6-13-25.7v-2.6h2.6v2.6
				c0,9.3,4.4,18.1,11.9,23.6l17.2,12.8c7.5,5.6,12.2,14.1,12.9,23.3L590.9,342.4z"/>
		</g>
		<g>
			<g>
				<polygon fill="#F3D0AA" points="586.8,340.9 592.3,349.9 597.3,340.6 				"/>
			</g>
		</g>
	</g>
	<g>
		<circle fill="#F3D0AA" cx="779.2" cy="282.4" r="14.1"/>
	</g>
	<g>
		<g>
			<path fill="#9C96AD" d="M780.5,157.8h-2.6v-1.5c0-12,9.7-21.7,21.7-21.7h32.8c21.8,0,39.6-17.8,39.6-39.6v-0.3h2.6v0.3
				c0,23.3-19,42.3-42.3,42.3h-32.8c-10.5,0-19.1,8.6-19.1,19.1V157.8z"/>
		</g>
		<g>
			<g>
				<polygon fill="#9C96AD" points="772,155.6 779.2,168.2 786.5,155.6 				"/>
			</g>
		</g>
	</g>
	<g>
		<path fill="#F3D0AA" d="M815.6,225h-2.6v-8.2c0-8.1-4.1-15.5-11-19.8l-11.8-7.3c-7.7-4.8-12.3-13-12.3-22v-2.2h2.6v2.2
			c0,8.1,4.1,15.5,11,19.8l11.8,7.3c7.7,4.8,12.3,13,12.3,22V225z"/>
	</g>
	<g>
		<g>
			<path fill="#9C96AD" d="M745.6,215.6l-2.6-0.1c0.4-8.5,5-16.2,12.2-20.6l11.8-7.3c6.9-4.3,11-11.7,11-19.8v-2.2h2.6v2.2
				c0,9-4.6,17.3-12.3,22l-11.8,7.3C750.1,201.1,746,208.1,745.6,215.6z"/>
		</g>
		<g>
			<g>
				<polygon fill="#9C96AD" points="737.8,213.6 744.2,225 751,213.8 				"/>
			</g>
		</g>
	</g>
	<g>
		<path fill="#F3D0AA" d="M780.6,284.5h-2.6v-8.1c0-7.9-4.6-15.2-11.6-18.6l-10.3-5c-8-3.9-13.1-12.1-13.1-21v-7.7h2.6v7.7
			c0,7.9,4.6,15.2,11.6,18.6l10.3,5c8,3.9,13.1,12.1,13.1,21V284.5z"/>
	</g>
	<g>
		<g>
			<path fill="#9C96AD" d="M710.5,276l-2.6-0.1c0.2-8.8,5.2-16.7,13.1-20.5l10.3-5c7.1-3.4,11.6-10.8,11.6-18.6v-11.2h2.6v11.2
				c0,8.9-5.2,17.1-13.1,21l-10.3,5C715.1,261.2,710.7,268.2,710.5,276z"/>
		</g>
		<g>
			<g>
				<polygon fill="#9C96AD" points="703.4,274.2 709.2,284.5 715.2,274.3 				"/>
			</g>
		</g>
	</g>
	<g>
		<g>
			<path fill="#F3D0AA" d="M743.8,342.3h-2.6V341c0-7.2-3-14.1-8.3-19.1L717,307c-5.8-5.4-9.1-13.1-9.1-21v-3.6h2.6v3.6
				c0,7.2,3,14.1,8.3,19.1l15.9,14.9c5.8,5.4,9.1,13.1,9.1,21V342.3z"/>
		</g>
		<g>
			<g>
				<polygon fill="#F3D0AA" points="737.2,340.8 742.5,349.9 747.7,340.8 				"/>
			</g>
		</g>
	</g>
	<g>
		<g>
			<path fill="#9C96AD" d="M677.3,342.3h-2.6V341c0-7.9,3.3-15.6,9.1-21l15.9-14.9c5.2-4.9,8.3-11.9,8.3-19.1v-6.2h2.6v6.2
				c0,7.9-3.3,15.6-9.1,21l-15.9,14.9c-5.2,4.9-8.3,11.9-8.3,19.1V342.3z"/>
		</g>
		<g>
			<g>
				<polygon fill="#9C96AD" points="670.7,340.8 675.9,349.9 681.2,340.8 				"/>
			</g>
		</g>
	</g>
	<g>
		<circle fill="#F3D0AA" cx="814.3" cy="223" r="15.4"/>
	</g>
	<g>
		<circle fill="#F3D0AA" cx="944.1" cy="282.4" r="14.1"/>
	</g>
	<g>
		<circle fill="#F3D0AA" cx="907.3" cy="343.1" r="12.7"/>
	</g>
	<g>
		<g>
			<path fill="#9C96AD" d="M910.6,215.8l-2.6-0.4c1.3-8.6,7.1-15.8,15.3-18.9l29.1-10.8c8.3-3.1,13.8-11.1,13.8-19.9v-0.3h2.6v0.3
				c0,9.9-6.2,18.9-15.5,22.3L924.2,199C917,201.7,911.7,208.1,910.6,215.8z"/>
		</g>
		<g>
			<g>
				<polygon fill="#9C96AD" points="903,213.4 909.1,225 916.2,214 				"/>
			</g>
		</g>
	</g>
	<g>
		<g>
			<path fill="#9C96AD" d="M875.4,276l-2.6-0.1c0.2-8.8,5.2-16.7,13.1-20.5l10.2-5c7.1-3.4,11.6-10.8,11.6-18.6v-12.1h2.6v12.1
				c0,8.9-5.2,17.1-13.1,21l-10.2,5C880,261.2,875.5,268.2,875.4,276z"/>
		</g>
		<g>
			<g>
				<polygon fill="#9C96AD" points="868.2,274.2 874.1,284.5 880,274.3 				"/>
			</g>
		</g>
	</g>
	<g>
		<g>
			<path fill="#9C96AD" d="M813.7,402.8H811v-0.5c0-7.2,2.6-14.2,7.3-19.6l14.5-16.8c4.3-5,6.6-11.3,6.6-17.9v-2.8h2.6v2.8
				c0,7.2-2.6,14.2-7.3,19.6l-14.5,16.8c-4.3,5-6.6,11.3-6.6,17.9V402.8z"/>
		</g>
		<g>
			<g>
				<polygon fill="#9C96AD" points="807.8,401.4 812.3,409.4 817,401.5 				"/>
			</g>
		</g>
	</g>
	<g>
		<circle fill="#F3D0AA" cx="714.9" cy="404.6" r="11.4"/>
	</g>
	<g>
		<circle fill="#F3D0AA" cx="1074.6" cy="404.6" r="11.4"/>
	</g>
	<g>
		<g>
			<path fill="#9C96AD" d="M842.1,342.3h-2.6V341c0-7.9,3.3-15.6,9.1-21l15.9-14.9c5.2-4.9,8.3-11.9,8.3-19.1v-6.2h2.6v6.2
				c0,7.9-3.3,15.6-9.1,21l-15.9,14.9c-5.2,4.9-8.3,11.9-8.3,19.1V342.3z"/>
		</g>
		<g>
			<g>
				<polygon fill="#9C96AD" points="835.5,340.8 840.8,349.9 846.1,340.8 				"/>
			</g>
		</g>
	</g>
	<g>
		<circle fill="#9C96AD" cx="990.1" cy="282.4" r="14.1"/>
	</g>
	<g>
		<path fill="#9C96AD" d="M991.5,284.5h-2.6v-8.1c0-8.9,5.2-17.1,13.1-21l10.2-5c7.1-3.4,11.6-10.8,11.6-18.6v-7.7h2.6v7.7
			c0,8.9-5.2,17.1-13.1,21l-10.3,5c-7.1,3.4-11.6,10.8-11.6,18.6V284.5z"/>
	</g>
	<g>
		<g>
			<path fill="#9C96AD" d="M1019.5,343.3l-2.6-0.1c0.4-9.7,5.1-18.6,12.9-24.3l17.2-12.8c7.4-5.5,11.9-14.4,11.9-23.6h2.6
				c0,10.1-4.8,19.7-13,25.7l-17.2,12.8C1024.2,326.3,1019.9,334.4,1019.5,343.3z"/>
		</g>
		<g>
			<g>
				<polygon fill="#9C96AD" points="1013.7,341.8 1018.1,349.9 1022.9,342 				"/>
			</g>
		</g>
	</g>
	<g>
		<path fill="#F3D0AA" d="M1075.1,409.4h-2.6v-7.1c0-7.2,2.6-14.2,7.3-19.6l14.5-16.8c4.3-5,6.6-11.3,6.6-17.9v-0.2h2.6v0.2
			c0,7.2-2.6,14.2-7.3,19.6l-14.5,16.8c-4.3,5-6.6,11.3-6.6,17.9V409.4z"/>
	</g>
	<g>
		<polygon fill="#FFFFFF" points="303.8,230.5 297.7,223.6 300.4,221.2 303.5,224.8 309.4,216.6 312.2,218.6 		"/>
	</g>
	<g>
		<polygon fill="#FFFFFF" points="813.2,230.5 807.1,223.6 809.7,221.2 812.9,224.8 818.7,216.6 821.6,218.6 		"/>
	</g>
	<g>
		<polygon fill="#FFFFFF" points="268.2,290 262.3,283.3 264.9,281 267.9,284.4 273.5,276.5 276.4,278.5 		"/>
	</g>
	<g>
		<polygon fill="#FFFFFF" points="433.1,290 427.2,283.3 429.8,281 432.8,284.4 438.4,276.5 441.2,278.5 		"/>
	</g>
	<g>
		<polygon fill="#FFFFFF" points="479.1,290 473.2,283.3 475.8,281 478.8,284.4 484.4,276.5 487.3,278.5 		"/>
	</g>
	<g>
		<polygon fill="#FFFFFF" points="778.2,290 772.3,283.3 774.9,281 777.9,284.4 783.5,276.5 786.3,278.5 		"/>
	</g>
	<g>
		<polygon fill="#FFFFFF" points="943,290 937.1,283.3 939.7,281 942.7,284.4 948.3,276.5 951.2,278.5 		"/>
	</g>
	<g>
		<polygon fill="#FFFFFF" points="989.1,290 983.2,283.3 985.8,281 988.8,284.4 994.4,276.5 997.2,278.5 		"/>
	</g>
	<g>
		<polygon fill="#FFFFFF" points="231.5,349.6 226.4,343.8 228.3,342 231.3,345.4 236.6,337.9 238.7,339.4 		"/>
	</g>
	<g>
		<polygon fill="#FFFFFF" points="396.4,349.6 391.2,343.8 393.2,342 396.2,345.4 401.4,337.9 403.6,339.4 		"/>
	</g>
	<g>
		<circle fill="#9C96AD" cx="509.1" cy="343.1" r="12.7"/>
	</g>
	<g>
		<polygon fill="#FFFFFF" points="508.1,349.6 502.9,343.8 504.9,342 507.9,345.4 513.1,337.9 515.3,339.4 		"/>
	</g>
	<g>
		<circle fill="#9C96AD" cx="676.1" cy="343.1" r="12.7"/>
	</g>
	<g>
		<polygon fill="#FFFFFF" points="675.1,349.6 670,343.8 672,342 674.9,345.4 680.2,337.9 682.3,339.4 		"/>
	</g>
	<g>
		<circle fill="#9C96AD" cx="1018.1" cy="343.1" r="12.7"/>
	</g>
	<g>
		<polygon fill="#FFFFFF" points="1017.2,349.6 1012,343.8 1014,342 1016.9,345.4 1022.2,337.9 1024.4,339.4 		"/>
	</g>
	<g>
		<polygon fill="#FFFFFF" points="906.3,349.6 901.2,343.8 903.2,342 906.1,345.4 911.4,337.9 913.5,339.4 		"/>
	</g>
	<g>
		<polygon fill="#FFFFFF" points="193.6,410.6 188.8,405.3 190.8,403.5 193.4,406.4 198,399.9 200.2,401.4 		"/>
	</g>
	<g>
		<polygon fill="#FFFFFF" points="358.4,410.6 353.7,405.3 355.7,403.5 358.2,406.4 362.9,399.9 365,401.4 		"/>
	</g>
	<g>
		<circle fill="#9C96AD" cx="813.2" cy="404.6" r="11.4"/>
	</g>
	<g>
		<polygon fill="#FFFFFF" points="812.5,410.6 807.8,405.3 809.7,403.5 812.3,406.4 817,399.9 819.1,401.4 		"/>
	</g>
	<g>
		<polygon fill="#FFFFFF" points="563.1,410.6 558.4,405.3 560.3,403.5 562.9,406.4 567.5,399.9 569.7,401.4 		"/>
	</g>
	<g>
		<polygon fill="#FFFFFF" points="713,410.6 708.3,405.3 710.2,403.5 712.8,406.4 717.4,399.9 719.6,401.4 		"/>
	</g>
	<g>
		<polygon fill="#FFFFFF" points="1073.9,410.6 1069.2,405.3 1071.2,403.5 1073.7,406.4 1078.4,399.9 1080.5,401.4 		"/>
	</g>
	<g>
		<circle fill="#9C96AD" cx="617.9" cy="27.9" r="25.9"/>
	</g>
	<g>
		<path fill="#9C96AD" d="M481.5,284.5h-2.6v-8.1c0-8.9,5.2-17.1,13.1-21l10.2-5c7.1-3.4,11.6-10.8,11.6-18.6v-7.7h2.6v7.7
			c0,8.9-5.2,17.1-13.1,21l-10.2,5c-7.1,3.4-11.6,10.8-11.6,18.6V284.5z"/>
	</g>
	<g>
		<g>
			<path fill="#9C96AD" d="M270.6,157.8h-2.6v-1.5c0-12,9.7-21.7,21.7-21.7h32.8c21.8,0,39.6-17.8,39.6-39.6v-0.3h2.6v0.3
				c0,23.3-19,42.3-42.3,42.3h-32.8c-10.5,0-19.1,8.6-19.1,19.1V157.8z"/>
		</g>
		<g>
			<g>
				<polygon fill="#9C96AD" points="262,155.6 269.3,168.2 276.5,155.6 				"/>
			</g>
		</g>
	</g>
	<g>
		<g>
			<path fill="#9C96AD" d="M200.6,276l-2.6-0.1c0.2-8.8,5.2-16.7,13.1-20.5l10.2-5c7.1-3.4,11.6-10.8,11.6-18.6v-11.2h2.6v11.2
				c0,8.9-5.2,17.1-13.1,21l-10.2,5C205.2,261.2,200.7,268.2,200.6,276z"/>
		</g>
		<g>
			<g>
				<polygon fill="#9C96AD" points="193.4,274.2 199.2,284.5 205.2,274.3 				"/>
			</g>
		</g>
	</g>
	<g>
		<g>
			<path fill="#F3D0AA" d="M513.8,215.3c-1-7.6-6.1-14-13.3-16.7l-28.6-10.8c-9.4-3.5-15.7-12.6-15.7-22.6v-0.1h2.6v0.1
				c0,8.9,5.6,17,13.9,20.1l28.6,10.8c8.1,3,13.8,10.3,15,18.8L513.8,215.3z"/>
		</g>
		<g>
			<g>
				<polygon fill="#F3D0AA" points="508.3,213.5 515.3,224.6 521.4,212.9 				"/>
			</g>
		</g>
	</g>
	<g>
		<g>
			<path fill="#F3D0AA" d="M548.9,276c-0.2-7.8-4.6-14.8-11.6-18.2l-10.3-5c-8-3.9-13.1-12.1-13.1-21v-11.2h2.6v11.2
				c0,7.9,4.6,15.2,11.6,18.6l10.3,5c7.9,3.9,12.9,11.7,13.1,20.5L548.9,276z"/>
		</g>
		<g>
			<g>
				<polygon fill="#F3D0AA" points="544.2,274.3 550.2,284.5 556.1,274.2 				"/>
			</g>
		</g>
	</g>
	<g>
		<g>
			<path fill="#F3D0AA" d="M968.9,157.8h-2.6v-1.5c0-10.5-8.6-19.1-19.1-19.1h-32.8c-23.3,0-42.3-19-42.3-42.3v-0.3h2.6v0.3
				c0,21.8,17.8,39.6,39.6,39.6h32.8c12,0,21.7,9.7,21.7,21.7V157.8z"/>
		</g>
		<g>
			<g>
				<polygon fill="#F3D0AA" points="974.8,155.6 967.6,168.2 960.3,155.6 				"/>
			</g>
		</g>
	</g>
	<g>
		<g>
			<path fill="#F3D0AA" d="M1023.9,215.8c-1.2-7.7-6.5-14.2-13.8-16.9L982,188.3c-9.4-3.5-15.8-12.7-15.8-22.7h2.6
				c0,9,5.6,17.1,14,20.3l28.1,10.5c8.2,3.1,14.1,10.4,15.5,19L1023.9,215.8z"/>
		</g>
		<g>
			<g>
				<polygon fill="#F3D0AA" points="1018.3,214 1025.4,225 1031.4,213.3 				"/>
			</g>
		</g>
	</g>
	<g>
		<g>
			<path fill="#F3D0AA" d="M1058.9,276c-0.2-7.8-4.6-14.8-11.6-18.2l-10.2-5c-8-3.9-13.1-12.1-13.1-21v-12.1h2.6v12.1
				c0,7.9,4.6,15.2,11.6,18.6l10.2,5c7.9,3.9,12.9,11.7,13.1,20.5L1058.9,276z"/>
		</g>
		<g>
			<g>
				<polygon fill="#F3D0AA" points="1054.2,274.3 1060.2,284.5 1066,274.2 				"/>
			</g>
		</g>
	</g>
	<g>
		<g>
			<path fill="#F3D0AA" d="M1100.8,342.4c-0.6-8.5-4.9-16.3-11.8-21.4l-17.2-12.8c-8.4-6.2-13-15-13-24.9v-3.5h2.6v3.5
				c0,9,4.2,17.1,11.9,22.7l17.2,12.8c7.5,5.6,12.2,14.1,12.9,23.3L1100.8,342.4z"/>
		</g>
		<g>
			<g>
				<polygon fill="#F3D0AA" points="1096.8,340.9 1102.2,349.9 1107.3,340.6 				"/>
			</g>
		</g>
	</g>
	<g>
		<path fill="#FFFFFF" d="M632.1,30.9l-2.5-6.6c0,0-0.3-2.6-0.5-3.6C628,16.1,623,12,617.5,12c-6.7,0-12.1,5.4-12.1,12.1
			c0,3.9,1.8,7.3,4.6,9.5v10.2h12.9v-3.4h1.9c2.6,0,4.8-2.1,4.8-4.8v-3.4h1.6c0.5,0,1-0.5,1-1C632.2,31.1,632.1,31,632.1,30.9z
			 M625,26.4c-0.9,0-1.6-0.7-1.6-1.6c0-0.9,0.7-1.6,1.6-1.6c0.9,0,1.6,0.7,1.6,1.6C626.6,25.7,625.9,26.4,625,26.4z"/>
	</g>
</g>
<g id="Layer_2">
</g>
<g id="Layer_3">
</g>
</svg>
