<?xml version="1.0" encoding="utf-8"?>
<!-- Generator: Adobe Illustrator 22.1.0, SVG Export Plug-In . SVG Version: 6.00 Build 0)  -->
<svg version="1.1" xmlns="http://www.w3.org/2000/svg" xmlns:xlink="http://www.w3.org/1999/xlink" x="0px" y="0px"
	 viewBox="0 0 1268 418" enable-background="new 0 0 1268 418" xml:space="preserve">
<g id="Layer_1">
	<path opacity="0.8" fill="#DDD9E0" d="M64.9,379.2c59,0,83-188.5,160-188.5c76,0,84,125.9,137.9,125.9
		c77.1,0,88.1-314.4,198.1-314.4s138,377,255,377C511.9,379.2,64.9,379.2,64.9,379.2z"/>
	<path opacity="0.6" fill="#A697A6" d="M470.9,379.5c199.5,0,248.6-253.3,404.7-253.3c150.3,0,200.4,253.3,389.3,253.3
		C972,379.5,470.9,379.5,470.9,379.5z"/>
	<path opacity="0.45" fill="#B1A7B5" d="M158.5,379.5C265.9,379.5,280.9,68,396.9,68c96,0,99.3,198.6,174,219.1
		c50,13.7,71-31.6,134.6-31.6c97.4,0,155.5,124.1,246.4,124.1C760.9,379.5,158.5,379.5,158.5,379.5z"/>
	<g>
		<g>
			<line fill="none" stroke="#C4C4C4" stroke-miterlimit="10" x1="163.5" y1="388.3" x2="163.5" y2="378.9"/>
			<line fill="none" stroke="#C4C4C4" stroke-miterlimit="10" x1="271.5" y1="388.3" x2="271.5" y2="378.9"/>
			<line fill="none" stroke="#C4C4C4" stroke-miterlimit="10" x1="487.5" y1="388.3" x2="487.5" y2="378.9"/>
			<line fill="none" stroke="#C4C4C4" stroke-miterlimit="10" x1="811.4" y1="388.3" x2="811.4" y2="378.9"/>
			<line fill="none" stroke="#C4C4C4" stroke-miterlimit="10" x1="1027.4" y1="388.3" x2="1027.4" y2="378.9"/>
			<line fill="none" stroke="#C4C4C4" stroke-miterlimit="10" x1="379.5" y1="388.3" x2="379.5" y2="378.9"/>
			<line fill="none" stroke="#C4C4C4" stroke-miterlimit="10" x1="595.5" y1="388.3" x2="595.5" y2="378.9"/>
			<line fill="none" stroke="#C4C4C4" stroke-miterlimit="10" x1="703.5" y1="388.3" x2="703.5" y2="378.9"/>
			<line fill="none" stroke="#C4C4C4" stroke-miterlimit="10" x1="919.4" y1="388.3" x2="919.4" y2="378.9"/>
			<line fill="none" stroke="#C4C4C4" stroke-miterlimit="10" x1="1135.4" y1="388.3" x2="1135.4" y2="378.9"/>
			<line fill="none" stroke="#C4C4C4" stroke-miterlimit="10" x1="1243.4" y1="388.3" x2="1243.4" y2="378.9"/>
		</g>
		<g>
			<polyline fill="none" stroke="#C4C4C4" stroke-miterlimit="10" points="55.5,2 55.5,379.1 1266.4,379.1 			"/>
			<g>
				<line fill="none" stroke="#C4C4C4" stroke-miterlimit="10" x1="45.9" y1="10" x2="55.9" y2="10"/>
				<line fill="none" stroke="#C4C4C4" stroke-miterlimit="10" x1="45.9" y1="305" x2="55.9" y2="305"/>
				<line fill="none" stroke="#C4C4C4" stroke-miterlimit="10" x1="45.9" y1="231" x2="55.9" y2="231"/>
				<line fill="none" stroke="#C4C4C4" stroke-miterlimit="10" x1="45.9" y1="158" x2="55.9" y2="158"/>
				<line fill="none" stroke="#C4C4C4" stroke-miterlimit="10" x1="45.9" y1="84" x2="55.9" y2="84"/>
			</g>
		</g>
	</g>
	<g>
		<g>
			<text transform="matrix(1 0 0 1 575.8987 414.3755)" fill="#D1CDC9" font-family="'RobotoCondensed-Regular'" font-size="19px">2014</text>
		</g>
		<g>
			<text transform="matrix(1 0 0 1 791.0382 414.3755)" fill="#D1CDC9" font-family="'RobotoCondensed-Regular'" font-size="19px">2016</text>
		</g>
		<g>
			<text transform="matrix(1 0 0 1 1007.0382 414.3755)" fill="#D1CDC9" font-family="'RobotoCondensed-Regular'" font-size="19px">2018</text>
		</g>
		<g>
			<text transform="matrix(1 0 0 1 359.8304 414.3755)" fill="#D1CDC9" font-family="'RobotoCondensed-Regular'" font-size="19px">2012</text>
		</g>
		<g>
			<text transform="matrix(1 0 0 1 143.8301 414.3755)" fill="#D1CDC9" font-family="'RobotoCondensed-Regular'" font-size="19px">2010</text>
		</g>
		<g>
			<text transform="matrix(1 0 0 1 1222.5585 414.3755)" fill="#D1CDC9" font-family="'RobotoCondensed-Regular'" font-size="19px">2020</text>
		</g>
	</g>
	<g>
		<text transform="matrix(1 0 0 1 7.9937 19.4602)" fill="#D1CDC9" font-family="'RobotoCondensed-Regular'" font-size="19px">100</text>
	</g>
	<text transform="matrix(1 0 0 1 17.3735 239.0376)" fill="#D1CDC9" font-family="'RobotoCondensed-Regular'" font-size="19px">40</text>
	<text transform="matrix(1 0 0 1 17.3735 167.0376)" fill="#D1CDC9" font-family="'RobotoCondensed-Regular'" font-size="19px">60</text>
	<text transform="matrix(1 0 0 1 17.3737 93.0376)" fill="#D1CDC9" font-family="'RobotoCondensed-Regular'" font-size="19px">80</text>
	<text transform="matrix(1 0 0 1 17.3735 311.4609)" fill="#D1CDC9" font-family="'RobotoCondensed-Regular'" font-size="19px">20</text>
</g>
<g id="Layer_2">
</g>
<g id="Layer_3">
</g>
</svg>
