<svg height="334.7" viewBox="0 0 650 334.7" width="650" xmlns="http://www.w3.org/2000/svg" xmlns:xlink="http://www.w3.org/1999/xlink"><symbol id="a" viewBox="0 0 60.6 34.5"><path d="m0 0h60.6v5.6h-60.6z" fill="#e2e2e2"/><path d="m0 13h60.6v6.5h-60.6z" fill="#e2e2e2"/><path d="m0 28h60.6v6.5h-60.6z" fill="#e2e2e2"/></symbol><path d="m41.4 21.7a7.8 7.8 0 1 0 -7.2-8.4 7.9 7.9 0 0 0 7.2 8.4m-6.6 3.2a8.2 8.2 0 0 1 5.4-1.6 8.4 8.4 0 0 1 6.2 3.8l7.8 15.5 10.7 7.5a4.1 4.1 0 0 1 1.4 3 3.4 3.4 0 0 1 -3.8 3.2 3.5 3.5 0 0 1 -1.7-.6l-11.5-7.8a4.4 4.4 0 0 1 -.8-1.1l-3-5.8-3.5 15.5 13.8 16.4a5.6 5.6 0 0 1 .7 1.6l3.7 19.8v1.1a5.3 5.3 0 0 1 -5.6 4.9 5.7 5.7 0 0 1 -4.8-4.2l-3.5-18.4-11.3-12.5-2.5 12a15.1 15.1 0 0 1 -1.1 2.2l-10.8 18.2a5.2 5.2 0 0 1 -4.9 2.6 5.3 5.3 0 0 1 -4.9-5.7 6.9 6.9 0 0 1 .8-2.3l10-16.8 8.4-37-5.5 4.4-2.9 13.1a3.9 3.9 0 0 1 -3.8 3 3.7 3.7 0 0 1 -3.3-3.8.6.6 0 0 1 .1-.4l3.4-15.4a2.6 2.6 0 0 1 1.1-1.6z" fill="#7a7a7a"/><path d="m76.8 73h436.6c30.1 0 54.5 25 54.5 55.8s-24.4 55.7-54.5 55.7h-416.1c-30.9 0-56.1 25.6-56.1 57.2s25.1 57.3 56.1 57.3h420.3" fill="none" stroke="#b7b7b7" stroke-miterlimit="10" stroke-width="48.13"/><path d="m95 73h418.4c30.1 0 54.5 25 54.5 55.8s-24.4 55.7-54.5 55.7h-416.1c-30.9 0-56.1 25.6-56.1 57.2s25.1 57.3 56.1 57.3h406.5" fill="none" stroke="#e2e2e2" stroke-dasharray="20 15 7.5 15" stroke-miterlimit="10" stroke-width="3.28"/><use height="34.5" transform="matrix(.74 0 0 .74 120.3 10.6)" width="60.6" xlink:href="#a"/><g fill="#fff" font-family="RobotoCondensed-Regular, Roboto Condensed" font-size="11.73"><text transform="translate(128 63.1)">2002</text><text transform="translate(295.9 63.1)">2003</text><text transform="translate(469.8 63.1)">2005</text><text transform="translate(129.3 290.4)">2011</text><text transform="translate(297.2 290.4)">2012</text><text transform="translate(471.1 290.4)">2015</text><text transform="translate(128 175.3)">2009</text><text transform="translate(471.1 175.3)">2006</text><text transform="translate(297.2 175.3)">2007</text></g><use height="34.5" transform="matrix(.74 0 0 .74 286.4 13)" width="60.6" xlink:href="#a"/><use height="34.5" transform="matrix(.74 0 0 .74 459.1 13)" width="60.6" xlink:href="#a"/><use height="34.5" transform="matrix(.74 0 0 .74 120.3 125.3)" width="60.6" xlink:href="#a"/><use height="34.5" transform="matrix(.74 0 0 .74 286.4 127.7)" width="60.6" xlink:href="#a"/><use height="34.5" transform="matrix(.74 0 0 .74 459.1 127.7)" width="60.6" xlink:href="#a"/><use height="34.5" transform="matrix(.74 0 0 .74 120.3 241.9)" width="60.6" xlink:href="#a"/><use height="34.5" transform="matrix(.74 0 0 .74 286.4 244.2)" width="60.6" xlink:href="#a"/><use height="34.5" transform="matrix(.74 0 0 .74 459.1 244.2)" width="60.6" xlink:href="#a"/><path d="m629 312.2h-5.2v-41.6h10.2v-14.5h-7.8l-43.1-14.6-43.1 14.6h-7.8v14.5h10.2v41.6h-5.2l-5.7 9.9h103.2zm-62.5 0h-14.5v-41.6h14.5zm23.6 0h-14v-41.6h14zm24.1 0h-14.5v-41.6h14.5z" fill="#7a7a7a"/></svg>