<svg height="256" viewBox="0 0 256 256" width="256" xmlns="http://www.w3.org/2000/svg"><path d="m253.3 183.4c-7.2-22.9-34.2-27.8-55.7-30.1l4 .5-9.1-1.1h.7c-49.6-3.8-99.8 2.4-150.3 2.2h.4c-12.7 0-12.9-16.8-8.7-26.7 4.7-4.9 12.8-4.5 20.4-5.7l-4.1.5c7.8-.4 15.8 0 24.6-.8h-1.3c13.4-.8 26.7.8 40.9 1.7l-4-.5c31.3 3.4 83.5 12.2 110.5-1.4 29.4-16 36.3-54.7 10.3-76.4-15.6-12.2-35.4-12.6-54.8-14.1l1.6.2c-20-.9-42.5-.3-62.3-.7-14.2-.9-26.6-4.1-40.6.8s-10.2 24.9 2.7 28.3c18.3-.6 37.5 1 56.6 1.4l-4-.6c26.6 2.8 54.7-3.5 80.8 7.4 10.9 7.9 5.4 23.8-7.4 28.4-14.5 3.7-29.1 2.5-44.5 1.9l4 .5c-29.8-2.4-59.8-8.2-90.7-6.8-3 .3-6.7-.1-10.6.4h.6c-36.4-1-62 10-61.3 49.6s35.2 46.2 65.7 42.7l-1.1.2c16.9-1.4 35.1-1.2 52.9-2.5l-4.1.5c1.9-.2 4.4 0 7.2-.3h-.1c22.1-1.9 45.8-.7 68.7 0l-1.1-.2 5.1.6-4-.5c10.4 2 22.7 1.8 32.4 8.3 6.6 15.8-15.5 26.2-28.9 27.5-72.3 6.6-88.8.4-141.8.7-35.5-2.4-31.6 26.2-16.2 30.7 10.4 1.5 20.4-1.9 31.7-.7h-.2c43.1 3.4 87.3 3.7 130.9-.8 34.1-3.7 64.1-31.9 54.2-65.1zm-231.8-172.3a2.9 2.9 0 0 1 .2-.9 3.7 3.7 0 0 1 .3-2.1 4.7 4.7 0 0 1 .7-1.2c9.8-14.8 17.7 19.6.9 9.7a5.8 5.8 0 0 1 -2-4c0-.5-.1-1-.1-1.5zm-14.7 47.9c-3.1-6.4 8-12.5 10.9-19.4 0-2-.5-5.9.1-9.4.9-7 9.7-11.6 16.9-7.7a36 36 0 0 1 6.9 13.3l.4.8.5.5a.1.1 0 0 1 .1.1l.6.3a10.1 10.1 0 0 0 2.2.5c3.8 1.1 11.6-1.9 15 3.6.6 2.6-1.6 7.2-5.9 3.9-3.9-.6-10.4.6-15.6-2.4a17.4 17.4 0 0 1 -3.3 6.7 3.5 3.5 0 0 1 .7 2.8c6 8.9 11.1 15.3 11.8 28.9-4.3 8-8.3.9-8.4-7.5.6-6.7-6.8-10.4-8.2-16.2-.4-.6-.9-1.1-1.3-1.6h-.2c-2.9 7.8-7.1 14.8-12.5 22.8.4 4.1-8.1 5.1-7.6-.7 3.6-8.1 10.5-14.7 13.5-24.9a13.5 13.5 0 0 1 -3.6-4.8c-3.4 2.1-6.4 14.1-13 10.4zm24.2-30.5-.4-.2h-.3l.3.3z"/></svg>