<svg height="230" viewBox="0 0 256 230" width="256" xmlns="http://www.w3.org/2000/svg"><path d="m103.6 62.2-20.2 69.5h-18.9l-12-42.3-12.4 42.3h-18.9l-20.2-69.5h18.1l12.6 44.3 13.2-44.3h16.2l12.6 44.8 13.1-44.8zm12.2 66.8c-9.8-5.6-14.9-17.7-12.8-29.8a26.3 26.3 0 0 1 22.1-21.9c10.8-1.6 22.8 2.4 28.6 13.2s4.2 24.5-3.3 33.1-23.8 11.5-34.6 5.3zm21.3-14.8c3.1-3.7 3.5-9.9 2.2-14.6s-5.6-7.9-10.2-7.6-8.1 3.8-9.1 8.8-.3 10.8 3.3 14.2a9.5 9.5 0 0 0 13.8-.8zm50.6-35.3a23.2 23.2 0 0 1 9.5-1.8v16.9l-3.8-.3q-5.4 0-8.5 3.3t-3.1 10v24.7h-16.9v-53.8h16.1v6.4a16 16 0 0 1 6.7-5.5zm67.3-20.8v73.6h-16.1v-5.4c-4.4 5.8-11.9 7-18.3 5.9a23.2 23.2 0 0 1 -16.7-13.3c-6.9-14.6-1.8-35.1 12.9-40.5 6.9-2.6 16-2.1 21.3 4.2v-24.5zm-19.5 56.1c3.1-3.7 3.5-9.9 2.2-14.6s-5.5-7.9-10.1-7.6-8.1 3.8-9.1 8.8-.3 10.8 3.3 14.2a9.4 9.4 0 0 0 13.7-.8zm-168 39.2-11.2 38.4h-10.4l-6.6-23.4-6.9 23.4h-10.5l-11.2-38.4h10.1l7 24.5 7.2-24.5h9l7 24.8 7.2-24.8zm6.8 37c-5.4-3.1-8.2-9.8-7.1-16.5a14.6 14.6 0 0 1 12.2-12.1c6-.9 12.6 1.3 15.8 7.3s2.3 13.6-1.8 18.3-13.2 6.4-19.1 2.9zm11.8-8.2c1.7-2.1 2-5.5 1.2-8.1a5.5 5.5 0 0 0 -5.6-4.2 5.7 5.7 0 0 0 -5 4.8c-.5 2.7-.1 6 1.8 7.9a5.3 5.3 0 0 0 7.7-.5zm28-19.5a12.8 12.8 0 0 1 5.3-1v9.4l-2.1-.2a6.1 6.1 0 0 0 -4.7 1.8q-1.7 1.8-1.7 5.5v13.7h-9.4v-29.9h8.9v3.6a8.9 8.9 0 0 1 3.7-3zm37.3-11.5v40.7h-8.9v-3c-2.4 3.2-6.6 3.9-10.1 3.3a12.8 12.8 0 0 1 -9.3-7.4c-3.8-8.1-1-19.4 7.1-22.4 3.8-1.4 8.9-1.1 11.8 2.3v-13.6h9.4zm-10.8 31c1.7-2.1 2-5.5 1.2-8.1a5.4 5.4 0 0 0 -5.6-4.2 5.7 5.7 0 0 0 -5 4.8c-.5 2.7-.1 6 1.8 7.9a5.2 5.2 0 0 0 7.6-.5zm56.8-21.7-6.9 23.8h-6.5l-4.1-14.5-4.3 14.5h-6.5l-6.9-23.8h6.2l4.3 15.2 4.5-15.2h5.5l4.3 15.3 4.5-15.3h5.8zm4.2 22.8a9.7 9.7 0 0 1 -4.4-10.2 9 9 0 0 1 7.6-7.5 9.3 9.3 0 0 1 9.8 4.5 10.4 10.4 0 0 1 -1.1 11.3 9.6 9.6 0 0 1 -11.8 1.8zm7.3-5.1a5.8 5.8 0 0 0 .8-5 3.4 3.4 0 0 0 -3.5-2.6 3.5 3.5 0 0 0 -3.1 3 5.4 5.4 0 0 0 1.1 4.9 3.2 3.2 0 0 0 4.7-.3zm17.3-12.1a7.9 7.9 0 0 1 3.2-.6v5.8h-1.3a3.8 3.8 0 0 0 -2.9 1.1 4.9 4.9 0 0 0 -1.1 3.4v8.4h-5.8v-18.4h5.5v2.2a5.5 5.5 0 0 1 2.4-1.9zm23-7.1v25.2h-5.5v-1.8a6.3 6.3 0 0 1 -6.2 2 7.9 7.9 0 0 1 -5.7-4.5c-2.4-5-.6-12 4.4-13.9 2.4-.9 5.5-.7 7.3 1.4v-8.4h5.8zm-6.7 19.2a5.8 5.8 0 0 0 .8-5 3.4 3.4 0 0 0 -3.5-2.6 3.5 3.5 0 0 0 -3.1 3 5.4 5.4 0 0 0 1.1 4.9 3.2 3.2 0 0 0 4.7-.3zm-121.6-175.2-12.5 42.9h-11.6l-7.4-26.1-7.7 26.1h-11.7l-12.5-42.9h11.2l7.8 27.4 8.2-27.4h10l7.8 27.6 8-27.6zm7.5 41.3c-6.1-3.5-9.2-10.9-7.9-18.4a16.3 16.3 0 0 1 13.7-13.5c6.7-1 14.1 1.5 17.7 8.2s2.6 15.1-2 20.4-14.7 7.1-21.4 3.3zm13.2-9.2c1.9-2.3 2.2-6.1 1.4-9a6.1 6.1 0 0 0 -6.3-4.7c-2.8.2-5 2.4-5.6 5.4s-.2 6.7 2 8.8a5.9 5.9 0 0 0 8.5-.5zm31.3-21.8a14.3 14.3 0 0 1 5.9-1.1v10.5l-2.4-.2a6.9 6.9 0 0 0 -5.3 2q-1.9 2-1.9 6.2v15.2h-10.4v-33.2h10v4a9.9 9.9 0 0 1 4.1-3.4zm41.6-12.8v45.4h-10v-3.3c-2.7 3.6-7.3 4.3-11.3 3.6a14.3 14.3 0 0 1 -10.3-8.2c-4.3-9-1.1-21.7 8-25 4.3-1.6 9.9-1.3 13.2 2.6v-15.1h10.5zm-12 34.6c1.9-2.3 2.2-6.1 1.4-9a6.1 6.1 0 0 0 -6.3-4.7c-2.8.2-5 2.4-5.6 5.4s-.2 6.7 2 8.8a5.8 5.8 0 0 0 8.5-.5zm-81.9 172.5-6.3 21.7h-5.9l-3.7-13.2-3.9 13.2h-5.9l-6.3-21.7h5.7l3.9 13.8 4.1-13.8h5.1l3.9 14 4.1-14h5.3zm3.8 20.8a8.9 8.9 0 0 1 -4-9.3 8.2 8.2 0 0 1 6.9-6.8 8.5 8.5 0 0 1 8.9 4.1 9.5 9.5 0 0 1 -1 10.3 8.8 8.8 0 0 1 -10.8 1.7zm6.6-4.6a5.2 5.2 0 0 0 .7-4.5 3.1 3.1 0 0 0 -3.2-2.4 3.2 3.2 0 0 0 -2.8 2.7 5 5 0 0 0 1 4.4 3 3 0 0 0 4.3-.3zm15.8-11a7.2 7.2 0 0 1 3-.6v5.3h-1.2a3.5 3.5 0 0 0 -2.7 1 4.4 4.4 0 0 0 -1 3.1v7.7h-5.3v-16.8h5v2a5 5 0 0 1 2.2-1.7zm21-6.5v23h-5v-1.7a5.7 5.7 0 0 1 -5.7 1.8 7.2 7.2 0 0 1 -5.2-4.1c-2.2-4.5-.6-11 4-12.6 2.2-.8 5-.6 6.7 1.3v-7.6h5.3zm-6.1 17.5a5.3 5.3 0 0 0 .7-4.5 3.1 3.1 0 0 0 -3.2-2.4 3.2 3.2 0 0 0 -2.8 2.7 5 5 0 0 0 1 4.4 2.9 2.9 0 0 0 4.3-.3z"/></svg>