<svg enable-background="new 0 0 256 256" height="256" viewBox="0 0 256 256" width="256" xmlns="http://www.w3.org/2000/svg"><path d="m128 96.5c17.397 0 31.5 14.103 31.5 31.5s-14.103 31.5-31.5 31.5-31.5-14.103-31.5-31.5 14.103-31.5 31.5-31.5zm0 88.594c-31.482 0-57.094-25.612-57.094-57.094s25.612-57.094 57.094-57.094 57.094 25.612 57.094 57.094-25.612 57.094-57.094 57.094zm0-104.344c-26.054 0-47.25 21.196-47.25 47.25s21.196 47.25 47.25 47.25 47.25-21.196 47.25-47.25-21.196-47.25-47.25-47.25zm0 135.844c-48.851 0-88.594-39.743-88.594-88.594s39.743-88.594 88.594-88.594 88.594 39.743 88.594 88.594-39.743 88.594-88.594 88.594zm0-167.344c-43.423 0-78.75 35.327-78.75 78.75s35.327 78.75 78.75 78.75 78.75-35.327 78.75-78.75-35.327-78.75-78.75-78.75zm0 204.75c-69.477 0-126-56.524-126-126 0-69.477 56.523-126 126-126 69.476 0 126 56.523 126 126 0 69.476-56.524 126-126 126zm0-242.156c-64.049 0-116.156 52.107-116.156 116.156s52.107 116.156 116.156 116.156 116.156-52.107 116.156-116.156-52.107-116.156-116.156-116.156z"/></svg>