<svg xmlns="http://www.w3.org/2000/svg" width="650" height="540" viewBox="0 0 650 540"><defs><style>.a{fill:#b6b6b6;}.a,.b,.c,.d,.e,.f,.g{fill-opacity:0.7;}.b{fill:#717172;}.c{fill:#aeaeaf;}.d{fill:#474747;}.e{fill:#909090;}.f{fill:#e0e0e2;}.g{fill:#d3d3d3;}</style></defs><title>packed-circles-proportional-area-cjart</title><circle class="a" cx="357.8" cy="251.1" r="26.3" transform="translate(-78.4 223.1) rotate(-31.4)"/><circle class="a" cx="326.5" cy="296.8" r="25.8" transform="translate(-106.8 213.5) rotate(-31.4)"/><circle class="a" cx="294.6" cy="242" r="34.3" transform="translate(-82.9 188.9) rotate(-31.4)"/><circle class="a" cx="366.6" cy="291" r="11.4" transform="translate(-97.9 233.6) rotate(-31.4)"/><circle class="a" cx="272.7" cy="300.5" r="24.9" transform="translate(-116.6 186) rotate(-31.4)"/><circle class="a" cx="342.3" cy="191.9" r="31.7" transform="translate(-49.8 206.4) rotate(-31.4)"/><circle class="a" cx="417.3" cy="280.8" r="37" transform="translate(-85.2 258.5) rotate(-31.4)"/><circle class="a" cx="372.3" cy="337.6" r="32.2" transform="translate(-121.3 243.3) rotate(-31.4)"/><circle class="a" cx="397.3" cy="214.3" r="24.4" transform="matrix(0.85, -0.52, 0.52, 0.85, -53.48, 238.3)"/><circle class="a" cx="460.1" cy="218.5" r="35.2" transform="translate(-46.5 271.6) rotate(-31.4)"/><circle class="b" cx="203.5" cy="255.3" r="54.6" transform="translate(-103.2 143.3) rotate(-31.4)"/><circle class="b" cx="302.3" cy="352.8" r="32" transform="translate(-139.5 209.1) rotate(-31.4)"/><circle class="b" cx="345.7" cy="384.7" r="18.6" transform="translate(-149.8 236.4) rotate(-31.4)"/><circle class="b" cx="288.8" cy="185.8" r="18.9" transform="translate(-54.5 177.6) rotate(-31.4)"/><circle class="b" cx="255.5" cy="203.5" r="15.5" transform="matrix(0.85, -0.52, 0.52, 0.85, -68.62, 162.85)"/><circle class="b" cx="227.9" cy="350.7" r="39.1" transform="translate(-149.3 170) rotate(-31.4)"/><circle class="b" cx="391.1" cy="167.4" r="19.6" transform="translate(-29.9 228.2) rotate(-31.4)"/><circle class="b" cx="423.2" cy="336.3" r="15.6" transform="matrix(0.85, -0.52, 0.52, 0.85, -113.24, 269.68)"/><circle class="b" cx="308.8" cy="152.3" r="16.9" transform="matrix(0.85, -0.52, 0.52, 0.85, -34.13, 183.14)"/><circle class="b" cx="174.5" cy="324.4" r="17.1" transform="translate(-143.4 138.4) rotate(-31.4)"/><circle class="b" cx="252.8" cy="165.9" r="18.9" transform="translate(-49.4 156) rotate(-31.4)"/><circle class="b" cx="360.8" cy="147.1" r="13.5" transform="translate(-23.8 209.5) rotate(-31.4)"/><circle class="b" cx="441.9" cy="152.4" r="30.1" transform="translate(-14.7 252.5) rotate(-31.4)"/><circle class="b" cx="335.8" cy="141.6" r="8.9" transform="translate(-24.6 195.6) rotate(-31.4)"/><circle class="b" cx="418" cy="386.2" r="31.3" transform="translate(-140 274.2) rotate(-31.4)"/><circle class="b" cx="199.5" cy="166.4" r="31.1" transform="translate(-57.5 128.3) rotate(-31.4)"/><circle class="b" cx="368.7" cy="442.3" r="40.1" transform="translate(-176.4 256.8) rotate(-31.4)"/><circle class="b" cx="501.2" cy="334.3" r="59.1" transform="translate(-100.7 310) rotate(-31.4)"/><circle class="b" cx="277.3" cy="139.3" r="14" transform="translate(-32 164.8) rotate(-31.4)"/><circle class="b" cx="296.2" cy="420.2" r="32.4" transform="translate(-175.5 215.8) rotate(-31.4)"/><circle class="c" cx="255.6" cy="396.6" r="11.2" transform="translate(-169.2 191.2) rotate(-31.4)"/><circle class="c" cx="519.7" cy="246.4" r="27.4" transform="translate(-52.3 306.8) rotate(-31.4)"/><circle class="c" cx="391.2" cy="97.5" r="41.4" transform="translate(6.5 218) rotate(-31.4)"/><circle class="c" cx="320.5" cy="119" r="15.2" transform="translate(-15.1 184.4) rotate(-31.4)"/><circle class="c" cx="328.8" cy="81.7" r="19.7" transform="translate(5.6 183.2) rotate(-31.4)"/><circle class="c" cx="466.1" cy="406.1" r="17.5" transform="matrix(0.85, -0.52, 0.52, 0.85, -143.3, 302.22)"/><circle class="c" cx="285.9" cy="103.6" r="19.5" transform="translate(-12.1 164.1) rotate(-31.4)"/><circle class="c" cx="250.5" cy="133.7" r="10.1" transform="translate(-33 150) rotate(-31.4)"/><circle class="c" cx="220.1" cy="111.6" r="24.1" transform="translate(-25.9 131) rotate(-31.4)"/><circle class="c" cx="481.7" cy="173.4" r="11.6" transform="translate(-19.8 276.3) rotate(-31.4)"/><circle class="c" cx="222.8" cy="417" r="24.1" transform="translate(-184.6 177.1) rotate(-31.4)"/><circle class="d" cx="250.9" cy="52.4" r="39.3" transform="translate(9.4 138.3) rotate(-31.4)"/><circle class="d" cx="252.5" cy="450.5" r="17.4" transform="translate(-197.7 197.5) rotate(-31.4)"/><circle class="d" cx="162.7" cy="368.4" r="25.2" transform="translate(-168.1 138.7) rotate(-31.4)"/><circle class="d" cx="115.9" cy="303.1" r="42" transform="translate(-140.9 104.7) rotate(-31.4)"/><circle class="e" cx="144.9" cy="194.1" r="26.8" transform="translate(-79.9 103.9) rotate(-31.4)"/><circle class="f" cx="307.2" cy="52" r="13.8" transform="translate(17.9 167.6) rotate(-31.4)"/><circle class="f" cx="450.8" cy="104.6" r="15.3" transform="translate(11.5 250.1) rotate(-31.4)"/><circle class="f" cx="319.8" cy="456.3" r="7.5" transform="translate(-190.9 233.4) rotate(-31.4)"/><circle class="f" cx="539.4" cy="175.5" r="42.9" transform="translate(-12.5 306.7) rotate(-31.4)"/><circle class="f" cx="173.2" cy="418" r="22.2" transform="translate(-192.4 151.4) rotate(-31.4)"/><circle class="f" cx="450.3" cy="466.7" r="41.8" transform="translate(-177.2 302.9) rotate(-31.4)"/><circle class="f" cx="490.6" cy="131.4" r="19.7" transform="translate(3.4 274.8) rotate(-31.4)"/><circle class="f" cx="130.3" cy="239" r="17.2" transform="translate(-105.4 102.8) rotate(-31.4)"/><circle class="c" cx="93.5" cy="245.2" r="16.8" transform="translate(-114 84.6) rotate(-31.4)"/><circle class="c" cx="121.4" cy="361.5" r="13.4" transform="translate(-170.5 116.2) rotate(-31.4)"/><circle class="c" cx="352" cy="38.5" r="26.1" transform="translate(31.5 189) rotate(-31.4)"/><circle class="c" cx="549.8" cy="277.3" r="12.5" transform="translate(-64 327) rotate(-31.4)"/><circle class="c" cx="294.9" cy="478.4" r="22.5" transform="translate(-206 223.6) rotate(-31.4)"/><circle class="c" cx="143.9" cy="134.1" r="29.9" transform="translate(-48.8 94.6) rotate(-31.4)"/><circle class="c" cx="247" cy="496.2" r="25.4" transform="translate(-222.3 201.3) rotate(-31.4)"/><circle class="c" cx="480.4" cy="98.3" r="11.7" transform="translate(19.1 264.6) rotate(-31.4)"/><circle class="c" cx="174.4" cy="82.3" r="26.9" transform="translate(-17.3 102.9) rotate(-31.4)"/><circle class="c" cx="332.8" cy="485.5" r="12.8" transform="translate(-204.2 244.4) rotate(-31.4)"/><circle class="c" cx="513.2" cy="425.8" r="30" transform="translate(-146.7 329.6) rotate(-31.4)"/><circle class="c" cx="450.7" cy="60.9" r="25.2" transform="translate(34.3 243.6) rotate(-31.4)"/><circle class="c" cx="204.9" cy="464.9" r="23.8" transform="translate(-212.2 174.8) rotate(-31.4)"/><circle class="c" cx="571.2" cy="235.7" r="21.9" transform="translate(-39.2 332) rotate(-31.4)"/><circle class="c" cx="97.5" cy="206.5" r="18.9" transform="translate(-93.3 81) rotate(-31.4)"/><circle class="c" cx="311.9" cy="20.7" r="14.6" transform="translate(34.9 165.5) rotate(-31.4)"/><circle class="c" cx="392.3" cy="507.1" r="25.6" transform="translate(-206.7 278.6) rotate(-31.4)"/><circle class="c" cx="166.9" cy="455.1" r="12.1" transform="translate(-212.6 153.5) rotate(-31.4)"/><circle class="c" cx="574.9" cy="270.8" r="10.2" transform="translate(-56.9 339.1) rotate(-31.4)"/><circle class="c" cx="388.4" cy="45.3" r="7.6" transform="translate(33.3 208.9) rotate(-31.4)"/><circle class="c" cx="355.3" cy="491" r="7.1" transform="translate(-203.7 256.9) rotate(-31.4)"/><circle class="c" cx="146.3" cy="399.8" r="7" transform="translate(-186.8 134.7) rotate(-31.4)"/><circle class="c" cx="560.3" cy="297.7" r="7.1" transform="matrix(0.85, -0.52, 0.52, 0.85, -73.05, 335.42)"/><circle class="c" cx="198.1" cy="49.6" r="10.2" transform="matrix(0.85, -0.52, 0.52, 0.85, 3.14, 110.47)"/><circle class="c" cx="522.4" cy="121.9" r="10.2" transform="translate(13 289.9) rotate(-31.4)"/><circle class="c" cx="485.3" cy="74.9" r="9" transform="translate(32 263.8) rotate(-31.4)"/><circle class="c" cx="115.2" cy="166.7" r="10.3" transform="translate(-70 84.4) rotate(-31.4)"/><circle class="c" cx="414.2" cy="47.4" r="10.5" transform="translate(36 222.7) rotate(-31.4)"/><circle class="c" cx="317.2" cy="508.2" r="11.4" transform="translate(-218.2 239.6) rotate(-31.4)"/><circle class="c" cx="504" cy="102.4" r="9" transform="translate(20.4 277.5) rotate(-31.4)"/><circle class="c" cx="353.5" cy="511.5" r="10.2" transform="translate(-214.7 259) rotate(-31.4)"/><circle class="c" cx="543" cy="393.9" r="10.4" transform="translate(-125.7 340.5) rotate(-31.4)"/><circle class="c" cx="287.1" cy="18.4" r="7" transform="translate(32.4 152.2) rotate(-31.4)"/><circle class="c" cx="130.6" cy="383.4" r="7" transform="translate(-180.6 124.1) rotate(-31.4)"/><circle class="c" cx="400.3" cy="27.9" r="10.2" transform="translate(44 212.6) rotate(-31.4)"/><circle class="c" cx="126.2" cy="403.5" r="10.3" transform="translate(-191.7 124.8) rotate(-31.4)"/><circle class="c" cx="334.7" cy="526" r="10.2" transform="translate(-225 251.3) rotate(-31.4)"/><circle class="c" cx="568.9" cy="314.3" r="8.2" transform="translate(-80.4 342.3) rotate(-31.4)"/><circle class="c" cx="96.8" cy="176.8" r="7.5" transform="translate(-77.9 76.3) rotate(-31.4)"/><circle class="c" cx="577" cy="291.5" r="7.3" transform="translate(-67.4 343.2) rotate(-31.4)"/><circle class="c" cx="137" cy="426.2" r="11.6" transform="translate(-202 133.7) rotate(-31.4)"/><circle class="c" cx="99.2" cy="352.9" r="7.2" transform="translate(-169.3 103.3) rotate(-31.4)"/><circle class="c" cx="524.1" cy="100.5" r="8" transform="translate(24.4 287.7) rotate(-31.4)"/><circle class="c" cx="571.2" cy="333.3" r="7.7" transform="matrix(0.85, -0.52, 0.52, 0.85, -89.99, 346.3)"/><circle class="c" cx="296.5" cy="515.3" r="7.2" transform="translate(-225 229.9) rotate(-31.4)"/><circle class="c" cx="76.6" cy="267.5" r="7.9" transform="translate(-128.1 79) rotate(-31.4)"/><circle class="c" cx="113.5" cy="383.6" r="6.8" transform="translate(-183.2 115.2) rotate(-31.4)"/><circle class="c" cx="590.4" cy="203.7" r="12.1" transform="translate(-19.7 337.4) rotate(-31.4)"/><circle class="c" cx="429.5" cy="21.2" r="16.5" transform="translate(51.8 226.8) rotate(-31.4)"/><circle class="c" cx="508.2" cy="471.8" r="13" transform="translate(-171.4 333.7) rotate(-31.4)"/><circle class="c" cx="568" cy="376.6" r="16.7" transform="translate(-113 350.9) rotate(-31.4)"/><circle class="c" cx="607.3" cy="313.5" r="26.9" transform="matrix(0.85, -0.52, 0.52, 0.85, -74.44, 362.19)"/><circle class="c" cx="133.2" cy="90.5" r="11.8" transform="translate(-27.6 82.6) rotate(-31.4)"/><circle class="c" cx="98.1" cy="145.1" r="14" transform="translate(-61.2 72.3) rotate(-31.4)"/><circle class="c" cx="603" cy="361.6" r="18.1" transform="translate(-100.1 367) rotate(-31.4)"/><circle class="c" cx="205.6" cy="505.9" r="13.9" transform="translate(-233.4 181.1) rotate(-31.4)"/><circle class="g" cx="93.4" cy="405" r="19.2" transform="translate(-197.2 107.9) rotate(-31.4)"/><circle class="g" cx="136.3" cy="456.3" r="15.2" transform="translate(-217.7 137.8) rotate(-31.4)"/><circle class="g" cx="53" cy="224" r="25.7" transform="translate(-108.9 60.4) rotate(-31.4)"/><circle class="g" cx="608.1" cy="262.8" r="20.6" transform="translate(-47.9 355.2) rotate(-31.4)"/><circle class="g" cx="503.3" cy="37.7" r="29.1" transform="translate(54 267.7) rotate(-31.4)"/><circle class="g" cx="76.2" cy="368.9" r="17.5" transform="translate(-181 93.7) rotate(-31.4)"/><circle class="g" cx="48.3" cy="329.6" r="27.3" transform="translate(-164.6 73.4) rotate(-31.4)"/><circle class="g" cx="563.7" cy="417.6" r="17.9" transform="matrix(0.85, -0.52, 0.52, 0.85, -135.04, 354.72)"/></svg>