<svg xmlns="http://www.w3.org/2000/svg" width="650" height="440" viewBox="0 0 650 440"><defs><style>.a{isolation:isolate;font-size:18px;fill:#bfbfbf;font-family:Roboto Mono;}.b{fill:#a7a7a7;}.c{fill:#7a7a7a;}.d{fill:#646464;}</style></defs><title>nested-proportional-area-chart</title><text class="a" transform="translate(554.4 433)">Hera</text><text class="a" transform="translate(315.5 433)">Zeus</text><text class="a" transform="translate(65.9 433)">Appolo</text><text class="a" transform="translate(554.4 186)">Hera</text><text class="a" transform="translate(315.5 186)">Zeus</text><text class="a" transform="translate(65.9 186)">Appolo</text><polyline class="b" points="167.6 25.1 29.1 25.1 29.1 53.8 138.7 53.8 138.7 163.6 29.1 163.6 167.6 163.6 167.6 25.1"/><polyline class="b" points="29.1 53.8 29 53.8 29 163.6 29.1 163.6 29.1 53.8"/><path class="c" d="M29.1,163.6V94.3H98.3v69.2H29.1M138.7,53.8H29.1V163.6H138.7V53.8"/><polyline class="d" points="98.3 94.3 29.1 94.3 29.1 163.6 98.3 163.6 98.3 94.3"/><polyline class="c" points="410.4 16.6 263.4 16.6 263.4 47.1 379.8 47.1 379.8 163.6 263.4 163.6 410.4 163.6 410.4 16.6"/><polyline class="b" points="263.4 47.1 263.3 47.1 263.3 163.6 263.4 163.6 263.4 47.1"/><path class="d" d="M263.4,163.6V90.1h73.5v73.5H263.4M379.8,47.1H263.4V163.6H379.8V47.1"/><polyline class="b" points="336.9 90.1 263.4 90.1 263.4 163.6 336.9 163.6 336.9 90.1"/><polyline class="b" points="640.3 34.1 510.8 34.1 510.8 61 613.3 61 613.3 163.6 510.8 163.6 640.3 163.6 640.3 34.1"/><polyline class="b" points="510.8 61 510.7 61 510.7 163.6 510.8 163.6 510.8 61"/><path class="c" d="M510.8,163.6V98.8h64.7v64.7H510.8M613.3,61H510.8V163.6H613.3V61"/><polyline class="d" points="592.5 81.2 510.8 81.2 510.8 163.6 592.5 163.6 592.5 81.2"/><circle class="b" cx="98.3" cy="335" r="72.7"/><circle class="c" cx="98.3" cy="357.8" r="49.9"/><circle class="d" cx="98.3" cy="387.3" r="20.4"/><circle class="c" cx="336.9" cy="328.2" r="79.5"/><circle class="b" cx="336.9" cy="353.1" r="54.5"/><circle class="d" cx="336.9" cy="385.4" r="22.3"/><circle class="b" cx="576" cy="343.4" r="64.3"/><circle class="c" cx="576" cy="360.5" r="47.1"/><circle class="d" cx="576" cy="371.2" r="36.5"/></svg>