<svg height="440" viewBox="0 0 650 440" width="650" xmlns="http://www.w3.org/2000/svg"><g fill="#bfbfbf" font-family="Roboto Mono" font-size="18"><text transform="translate(559.8 433)">Jun</text><text transform="translate(320.9 433)">May</text><text transform="translate(82.1 433)">Apr</text><text transform="translate(559.8 209)">Mar</text><text transform="translate(320.9 209)">Feb</text><text transform="translate(82.1 209)">Jan</text></g><path d="m98.3 412.1a74.3 74.3 0 1 1 0-148.5" fill="#e2e2e2"/><path d="m337.1 412.1a65.2 65.2 0 1 1 0-130.3" fill="#e2e2e2"/><path d="m576 412.1a86.2 86.2 0 1 1 0-172.4" fill="#e2e2e2"/><path d="m98.3 186.6a82.2 82.2 0 1 1 0-164.5" fill="#e2e2e2"/><path d="m337.1 186.6a74.3 74.3 0 0 1 0-148.5" fill="#e2e2e2"/><path d="m576 186.6a74.3 74.3 0 0 1 0-148.6" fill="#e2e2e2"/><path d="m98.3 336a38 38 0 1 1 0 76.1" fill="#aaa9a9"/><path d="m337.1 254.6a78.7 78.7 0 0 1 0 157.5" fill="#aaa9a9"/><path d="m576 318.4a46.8 46.8 0 1 1 0 93.7" fill="#aaa9a9"/><path d="m98.3 52.6a67 67 0 1 1 0 134" fill="#aaa9a9"/><path d="m337.1 8.1a89.2 89.2 0 0 1 0 178.4" fill="#aaa9a9"/><path d="m576 69.2a58.7 58.7 0 0 1 0 117.3" fill="#aaa9a9"/></svg>