<?xml version="1.0" encoding="utf-8"?>
<!-- Generator: Adobe Illustrator 24.0.1, SVG Export Plug-In . SVG Version: 6.00 Build 0)  -->
<svg version="1.1" id="Layer_1" xmlns="http://www.w3.org/2000/svg" xmlns:xlink="http://www.w3.org/1999/xlink" x="0px" y="0px"
	 viewBox="0 0 1268 418" style="enable-background:new 0 0 1268 418;" xml:space="preserve">
<style type="text/css">
	.st0{fill:#A39CB9;}
	.st1{fill:none;stroke:#7A7A7A;stroke-width:4.575721e-02;}
	.st2{fill:#B5AEC7;}
	.st3{fill:none;stroke:#A4A4A4;stroke-width:4.575721e-02;}
	.st4{fill:#C4C5D1;}
	.st5{fill:none;stroke:#CECECE;stroke-width:4.575721e-02;}
	.st6{fill:none;}
	.st7{fill:none;stroke:#CCCCCC;stroke-width:2.1963;stroke-linejoin:round;}
	.st8{fill:none;stroke:#6D658C;stroke-width:4.5757;stroke-miterlimit:10;}
	.st9{fill:none;stroke:#CCCCCC;stroke-width:1.7502;}
	.st10{fill:#CCCCCC;}
	.st11{font-family:'RobotoMono-Regular';}
	.st12{font-size:18px;}
</style>
<path class="st0" d="M922.5,141.7h-26.7l-27,1.7l-26.5,1.9l-27.1,3.2l-26.5-4.6l-27,0.3l-26.7-9.2l-27,26.8l-26.7,18.4l-27-3.9
	l-27,14.8l-26.7-12.8l26.7,42.1l27-1.9l27,15l26.7-10.4l27-23.7l26.7,10.5l27,0.9l26.5,5.9l27.1-0.3l26.5-1.7l27-0.8l26.7,0.6
	l27-1.1v-73.1L922.5,141.7z"/>
<path class="st1" d="M922.5,141.7h-26.7l-27,1.7l-26.5,1.9l-27.1,3.2l-26.5-4.6l-27,0.3l-26.7-9.2l-27,26.8l-26.7,18.4l-27-3.9
	l-27,14.8l-26.7-12.8l26.7,42.1l27-1.9l27,15l26.7-10.4l27-23.7l26.7,10.5l27,0.9l26.5,5.9l27.1-0.3l26.5-1.7l27-0.8l26.7,0.6
	l27-1.1v-73.1L922.5,141.7z"/>
<path class="st2" d="M654.3,243.6l27,21.3l26.7-5.7l27-21.6l26.7,11.3l27,1.7l26.7,6.9l27,1.1l26.7-1.4l27-0.6l26.7,1.1l27-1.1
	v-43.2l-27,1.1l-26.7-0.6l-27,0.8l-26.7,1.7l-27,0.2l-26.7-5.9l-27-0.9L735,199.3L708,223l-26.7,10.5l-27-15l-27,1.9l-26.7-42.1
	l26.7,59.5L654.3,243.6z M654.3,176.4l27,4l26.7-18.5l27-26.8l26.7,9.2l27-0.2l26.7,4.6l27-3.1l26.7-1.9l27-1.7h26.7l27-1.4V97.1
	l-27,1.4L895.9,99l-27,1.9l-26.7,2.3l-27,4.6l-26.7-3.7l-27,1.1L735,96.9l-27,28.6l-26.7,23.3l-27,2.5l-27,22.5l-26.7,4.6l26.7,12.8
	L654.3,176.4z"/>
<path class="st3" d="M654.3,243.6l27,21.3l26.7-5.7l27-21.6l26.7,11.3l27,1.7l26.7,6.9l27,1.1l26.7-1.4l27-0.6l26.7,1.1l27-1.1
	v-43.2l-27,1.1l-26.7-0.6l-27,0.8l-26.7,1.7l-27,0.2l-26.7-5.9l-27-0.9L735,199.3L708,223l-26.7,10.5l-27-15l-27,1.9l-26.7-42.1
	l26.7,59.5L654.3,243.6z M654.3,176.4l27,4l26.7-18.5l27-26.8l26.7,9.2l27-0.2l26.7,4.6l27-3.1l26.7-1.9l27-1.7h26.7l27-1.4V97.1
	l-27,1.4L895.9,99l-27,1.9l-26.7,2.3l-27,4.6l-26.7-3.7l-27,1.1L735,96.9l-27,28.6l-26.7,23.3l-27,2.5l-27,22.5l-26.7,4.6l26.7,12.8
	L654.3,176.4z"/>
<path class="st4" d="M654.3,287.6l27,32.7l26.7,2.5l27-18.2l26.7,12.5l27,3.4l26.7,8l27,4.2l26.7-1.1h27l26.7,2.1l27-1.1v-76
	l-27,1.1l-26.7-1.1l-27,0.6l-26.7,1.4l-27-1.1l-26.7-6.9l-27-1.7L735,237.5l-27,21.6l-26.7,5.7l-27-21.4l-27-5.7l-26.7-59.5l26.7,90
	L654.3,287.6z M949.5,21l-27,1.5L895.8,24l-27,2.5l-26.7,2.9l-27,7.4l-26.7-2.5l-27,2.5l-26.7-6.9l-27,31.8l-26.7,31.6l-27,14
	l-27,35.8l-26.7,35.3l26.7-4.6l27-22.5l27-2.5l26.7-23.3l27-28.5l26.7,8.2l27-1.1l26.7,3.7l27-4.6l26.7-2.3l27-1.8l26.7-0.6l27-1.4
	V78.6l-27,1.6l27-1.7V21z"/>
<g>
	<path class="st5" d="M654.3,287.6l27,32.7l26.7,2.5l27-18.2l26.7,12.5l27,3.4l26.7,8l27,4.2l26.7-1.1h27l26.7,2.1l27-1.1v-76
		l-27,1.1l-26.7-1.1l-27,0.6l-26.7,1.4l-27-1.1l-26.7-6.9l-27-1.7L735,237.5l-27,21.6l-26.7,5.7l-27-21.4l-27-5.7l-26.7-59.5
		l26.7,90L654.3,287.6z M949.5,21l-27,1.5L895.8,24l-27,2.5l-26.7,2.9l-27,7.4l-26.7-2.5l-27,2.5l-26.7-6.9l-27,31.8l-26.7,31.6
		l-27,14l-27,35.8l-26.7,35.3l26.7-4.6l27-22.5l27-2.5l26.7-23.3l27-28.5l26.7,8.2l27-1.1l26.7,3.7l27-4.6l26.7-2.3l27-1.8l26.7-0.6
		l27-1.4V78.6l-27,1.6l27-1.7V21z"/>
	<path class="st6" d="M967.5-3.3h24.9"/>
	<path class="st7" d="M963,70.3h24.9"/>
	<path class="st7" d="M963,132.5h24.9"/>
	<path class="st7" d="M963,194.9h24.9"/>
	<path class="st7" d="M963,257.4h24.9"/>
	<path class="st7" d="M963,319.8h24.9"/>
	<path class="st7" d="M949.5,360.4v24.9"/>
	<path class="st7" d="M842.3,360.4v24.9"/>
	<path class="st7" d="M735,360.4v24.9"/>
	<path class="st7" d="M627.3,360.4v24.9"/>
	<path class="st7" d="M520,360.4v24.9"/>
	<path class="st7" d="M412.9,360.4v24.9"/>
	<path class="st7" d="M305.6,360.4v24.9"/>
	<path class="st7" d="M922.5,372.9v12.5"/>
	<path class="st7" d="M895.8,372.9v12.5"/>
	<path class="st7" d="M868.8,372.9v12.5"/>
	<path class="st7" d="M815.2,372.9v12.5"/>
	<path class="st7" d="M788.6,372.9v12.5"/>
	<path class="st7" d="M761.6,372.9v12.5"/>
	<path class="st7" d="M708,372.9v12.5"/>
	<path class="st7" d="M681.3,372.9v12.5"/>
	<path class="st7" d="M654.3,372.9v12.5"/>
	<path class="st7" d="M600.7,372.9v12.5"/>
	<path class="st7" d="M573.7,372.9v12.5"/>
	<path class="st7" d="M547,372.9v12.5"/>
	<path class="st7" d="M493.4,372.9v12.5"/>
	<path class="st7" d="M466.4,372.9v12.5"/>
	<path class="st7" d="M439.7,372.9v12.5"/>
	<path class="st7" d="M386.2,372.9v12.5"/>
	<path class="st7" d="M359.2,372.9v12.5"/>
	<path class="st7" d="M332.6,372.9v12.5"/>
	<path class="st7" d="M306,194.9h643.5"/>
	<path class="st6" d="M600.7,178.4l26.7,27.3l27-8.2l27,9.4l26.7-14.5l27-25.1l26.7,9.7l27,0.6l26.5,5l27.1-1.7l26.5-1.7l27-1.4
		l26.7,0.2l27-1"/>
	<path class="st8" d="M305.6,216.7l27,35.1l26.7,22.8l27-30.2l26.7-58.3l26.9-37.5l26.7-4.6l27-12.7l26.7,19l27,18.8l26.7-6.3
		l27,15.7"/>
	<path class="st9" d="M305.6,4.7h681.3v379.6H305.6L305.6,4.7z"/>
</g>
<text transform="matrix(1 0 0 1 402.6736 409.2699)" class="st10 st11 st12">16</text>
<text transform="matrix(1 0 0 1 510.6605 409.2699)" class="st10 st11 st12">17</text>
<text transform="matrix(1 0 0 1 617.1605 409.2699)" class="st10 st11 st12">18</text>
<text transform="matrix(1 0 0 1 725.7195 409.2699)" class="st10 st11 st12">19</text>
<text transform="matrix(1 0 0 1 831.991 409.2699)" class="st10 st11 st12">20</text>
<text transform="matrix(1 0 0 1 939.2918 409.2699)" class="st10 st11 st12">21</text>
<text transform="matrix(1 0 0 1 1000.492 326.2943)" class="st10 st11 st12">1</text>
<text transform="matrix(1 0 0 1 1000.492 264.8656)" class="st10 st11 st12">2</text>
<text transform="matrix(1 0 0 1 1000.492 202.8642)" class="st10 st11 st12">3</text>
<text transform="matrix(1 0 0 1 1000.492 139.7191)" class="st10 st11 st12">4</text>
<text transform="matrix(1 0 0 1 1000.492 77.7182)" class="st10 st11 st12">5</text>
</svg>
