<svg height="256" viewBox="0 0 256 256" width="256" xmlns="http://www.w3.org/2000/svg"><path d="m215.3 234.8c4.6 3.6 34.9 17 41 18.2l-.6 3c-6.2-1.2-36.7-14.5-42.3-18.8l-7.2-5.9c-5.6-4.7-12-10-16.3-12.5s-10.2-15.6-18.4-35.2c-4.5-10.8-9.6-23-11.7-24.4a32.7 32.7 0 0 1 -5.5-5 24.7 24.7 0 0 0 -5.4-4.9c-2.9-1.8-13.9-2.3-22.7-2.6s-14-.6-16.9-1.5c-5.5-1.8-9.9-5.8-13.9-9.3s-8-7.2-10.7-12.2a7.5 7.5 0 0 1 -.7-1.2 11.7 11.7 0 0 0 -1.7-2.9l-11.7 5.2-12.2 7-8-7.2-5.2-4.6-14.9 13.5-13.9-30.4-15 32.9-2.8-1.2 17.9-38.9 14.9 32.7 13.8-12.6 7.2 6.3 6.4 5.8 10.5-6 10.4-4.6h-.2l1.6-1.3a9.2 9.2 0 0 1 2.9-1.7c4.8-3.9 11.3-8 18.1-12.3 11.6-7.4 23.5-15.1 29.2-22.6l.4-.6c3.6-4.8 7.4-9.8 13-12s8.4-1.5 12.6-1.3h2.1c10.6.3 19.2-8.6 28.3-18s18.7-19.4 30.8-18.7c3.7.1 14.2-10 21.7-17.4s12.1-11.7 15.2-13l1.2 2.8c-2.6 1.1-8.6 6.8-14.3 12.4-11.2 10.9-19 18.2-23.7 18.2h-.2c-10.8-.6-19.4 8.4-28.6 17.8s-18.5 19.2-30.5 18.9h-2.1c-4.1-.2-7.9-.3-11.4 1.1s-8.3 6.5-11.7 11l-.4.6c-6 7.9-18.2 15.8-30 23.3l-10 6.5h.3a52.2 52.2 0 0 0 8.4-2.9 58.9 58.9 0 0 0 6.4-3.7 59 59 0 0 1 6.9-4c5.9-2.6 36-11 41.6-13.9 8.2-4.4 35.5-23.1 38-24s31.5-13.4 33.9-14.9 25.8-23.8 26.8-24.4-.9 49.8 0 50-9.1 7.2-13.4 9.8c-1 .6-31.3 4.6-33 5.5-4.7 2.4-27.7 10-30.7 11.1s-19.6-1.7-24-1.5c-6.1.3-32 5.4-37.7 8-2.4 1.1-7.1 1.8-9.3 3.3s-10.8 1.7-13.6 2.5c-1 .2-1.9.6-2.9.9h.9l10.8-.8a33 33 0 0 1 8.3.1l13.2 1.3c7.9.8 16.1 1.5 18.2 2 3.8.8 7.8.4 11.9-.1a64.8 64.8 0 0 1 7.6-.6 61.4 61.4 0 0 1 10.6 1.2 69.3 69.3 0 0 0 7.8 1 77.5 77.5 0 0 0 14.4-.6c6.1-.7 12.4-1.3 18.6-.3l4.4 1a50.9 50.9 0 0 0 5.1 1 50.2 50.2 0 0 0 13.4-.5c2.7-.3 5.9-2.1 9-3.9s6.9-3.8 10.2-4.2l.4 3c-2.8.3-6 2.1-9.1 3.9s-6.8 3.8-10.2 4.2a55.2 55.2 0 0 1 -14.1.5l-5.4-1.1-4.2-.9c-5.8-1-11.6-.4-17.8.3a82.2 82.2 0 0 1 -14.9.6c-2.8-.2-5.5-.6-8.1-1a58 58 0 0 0 -10.1-1.2 59.9 59.9 0 0 0 -7.2.6c-4.3.5-8.6 1-13 0-1.9-.4-10.4-1.2-17.8-1.9s-11.7-1.1-13.4-1.4a32.2 32.2 0 0 0 -7.6 0l-10.8.8a24.3 24.3 0 0 0 -7 1.1c7 2.7 26.8 7.3 28.6 8.5s27.5 2.2 29.8 3.3c5.7 2.5 38.6 5.6 41.1 6.5s26 3.7 30.8 6.1c1.6.8 23.8 2 25.2 2.5s15-11.9 15-11.9 0 79.4 0 79.4-19.6-23.3-20.6-23.9-37-20.7-40.1-21.7-47-28.5-52.9-31.1c-2.4-1.1-25.3-2.6-27.5-4a50.2 50.2 0 0 0 -6.3-3.8c-2.4-1.1-17.5-6-23.7-8.9a23.8 23.8 0 0 1 1.8 3l.6 1.2c2.4 4.5 6.3 8 10.1 11.3s8 7.1 12.8 8.7c2.5.8 9.4 1.1 16.1 1.4 10.1.4 20.6.8 24.2 3a31.2 31.2 0 0 1 6 5.4 30.3 30.3 0 0 0 5 4.6c2.7 1.8 6.4 10.5 12.8 25.8s13.2 31.4 17.1 33.7 11 8.1 16.8 12.8c2.6 2.2 5.1 4.3 7.1 5.8z"/></svg>