<?xml version="1.0" encoding="utf-8"?>
<!-- Generator: Adobe Illustrator 22.1.0, SVG Export Plug-In . SVG Version: 6.00 Build 0)  -->
<svg version="1.1" id="Layer_1" xmlns="http://www.w3.org/2000/svg" xmlns:xlink="http://www.w3.org/1999/xlink" x="0px" y="0px"
	 viewBox="0 0 1200 1200" style="enable-background:new 0 0 1200 1200;" xml:space="preserve">
<style type="text/css">
	.st0{fill:#BABABA;}
	.st1{fill:#909090;}
	.st2{fill:#FFFFFF;}
	.st3{fill:#514361;}
	.st4{font-family:'RobotoMono-Regular';}
	.st5{font-size:40px;}
	.st6{fill:none;stroke:#CECECE;stroke-width:6;stroke-miterlimit:10;}
	.st7{fill:#CECECE;}
	.st8{fill:none;stroke:#7F7F7F;stroke-width:4;stroke-linecap:round;stroke-miterlimit:10;stroke-dasharray:0,9.9536;}
	.st9{enable-background:new    ;}
	.st10{fill:#AFAFAF;}
	.st11{fill:none;stroke:#ADADAD;stroke-width:4;stroke-linecap:round;stroke-miterlimit:10;stroke-dasharray:0,9.9536;}
</style>
<g>
	<path class="st0" d="M275.9,576.3l37.8,79.7c14.9,31.5,20.1,64.6,15.1,97.4l-9.1,60.2c-4.2,27.6-0.4,55.4,11.1,82.1l67.6,143.9
		c0.7,1.6,3,2.6,5.5,2.6l0,0c2.5,0,4.8-1.1,5.5-2.6L477,895.8c11.5-26.7,15.3-54.5,11.1-82.1l-9.1-60.2c-5-32.8,0.1-65.9,15.1-97.4
		l37.8-79.7c26.8-56.5,22.1-117.2-13.2-171.8L410,228.6c-1-1.5-3.2-150.4-5.8-150.4l0,0c-2.6,0-5.1,148.9-6.1,150.4l-108.7,176
		C253.8,459,249.1,519.8,275.9,576.3z"/>
	<rect x="380.6" y="384.9" class="st1" width="46.5" height="265.6"/>
	<rect x="399.2" y="298.5" class="st1" width="9.3" height="687.9"/>
	<circle class="st2" cx="403.9" cy="545.3" r="20.9"/>
	<g>
		<g>
			<text transform="matrix(1 0 0 1 50.3398 55.5801)" class="st3 st4 st5">scale</text>
		</g>
	</g>
	<g>
		<g>
			<text transform="matrix(1 0 0 1 709.2745 556.918)" class="st3 st4 st5">median</text>
		</g>
	</g>
	<g>
		<g>
			<text transform="matrix(1 0 0 1 709.274 467.1798)" class="st3 st4 st5">interquartile range</text>
		</g>
	</g>
	<g>
		<g>
			<text transform="matrix(1 0 0 1 394.1562 1196.3984)" class="st3 st4 st5">A</text>
		</g>
	</g>
	<g>
		<g>
			<text transform="matrix(1 0 0 1 44.5938 1195.2656)" class="st3 st4 st5">0</text>
		</g>
	</g>
	<g>
		<g>
			<text transform="matrix(1 0 0 1 42 824.6387)" class="st3 st4 st5">1</text>
		</g>
	</g>
	<g>
		<g>
			<text transform="matrix(1 0 0 1 42 527.0273)" class="st3 st4 st5">2</text>
		</g>
	</g>
	<g>
		<g>
			<text transform="matrix(1 0 0 1 42 228.4473)" class="st3 st4 st5">3</text>
		</g>
	</g>
	<line class="st6" x1="404" y1="1126" x2="404" y2="1100"/>
	<line class="st6" x1="110" y1="514" x2="94" y2="514"/>
	<line class="st6" x1="110" y1="811" x2="94" y2="811"/>
	<line class="st6" x1="110" y1="218" x2="94" y2="218"/>
	<g>
		<g>
			<g>
				<g>
					<polyline class="st6" points="111,143.7 111,1100 843.1,1100 					"/>
					<g>
						<polygon class="st7" points="96,148.1 111,122.2 126,148.1 						"/>
					</g>
					<g>
						<polygon class="st7" points="838.7,1115 864.6,1100 838.7,1085 						"/>
					</g>
				</g>
			</g>
		</g>
	</g>
	<line class="st8" x1="404" y1="545" x2="649.8" y2="545"/>
	<path class="st8" d="M685.4,777"/>
	<path class="st8" d="M404,970"/>
	<line class="st8" x1="403.9" y1="458" x2="649.8" y2="458"/>
	<line class="st8" x1="567.7" y1="323.1" x2="649.8" y2="323.1"/>
	<g>
		<g>
			<text transform="matrix(1 0 0 1 709.274 136.368)" class="st3 st4 st5">outliers</text>
		</g>
	</g>
	<g>
		<g>
			<text transform="matrix(1 0 0 1 709.274 331.3582)" class="st9"><tspan x="0" y="0" class="st3 st4 st5">95% confidence</tspan><tspan x="0" y="48" class="st3 st4 st5">interval</tspan></text>
		</g>
	</g>
	<line class="st8" x1="404" y1="122.2" x2="649.8" y2="122.2"/>
	<circle class="st10" cx="403.9" cy="545.3" r="11.6"/>
	<circle class="st10" cx="403.9" cy="409.8" r="11.6"/>
</g>
<polyline class="st11" points="403.9,228.4 567.7,228.4 567.7,1042.2 403.9,1042.2 "/>
</svg>
