<?xml version="1.0" encoding="utf-8"?>
<!-- Generator: Adobe Illustrator 22.1.0, SVG Export Plug-In . SVG Version: 6.00 Build 0)  -->
<svg version="1.1" xmlns="http://www.w3.org/2000/svg" xmlns:xlink="http://www.w3.org/1999/xlink" x="0px" y="0px"
	 viewBox="0 0 1268 418" enable-background="new 0 0 1268 418" xml:space="preserve">
<g id="Layer_1">
	<path fill="#D8D9DF" d="M403.1,106.1l-3.7-11.2c-6.6-20-11.8-41.3-15.5-63.3L379,2.8c-0.1-0.9-0.6-1.4-1.2-1.4l0,0
		c-0.5,0-1,0.6-1.2,1.4l-4.9,28.8c-3.7,22-8.9,43.2-15.5,63.3l-3.7,11.2c-5.3,16-8.1,34-8.1,52.3c0,12.8,1.4,25.6,4,37.6l8.5,38.4
		c6.3,28.6,11.2,58.1,14.6,88.1l5,35c0.1,0.9,0.6,1.5,1.1,1.5l0,0c0.5,0,1-0.6,1.1-1.5l5-35c3.3-30,8.2-59.5,14.6-88.1l8.5-38.4
		c2.7-12,4-24.8,4-37.6C411.1,140.1,408.4,122.1,403.1,106.1z"/>
	<polygon fill="#A4A6B8" points="382.8,116 378.8,116 378.8,99 376.8,99 376.8,116 372.8,116 372.8,187 376.8,187 376.8,250 
		378.8,250 378.8,187 382.8,187 	"/>
	<circle fill="#3D406A" cx="377.9" cy="140.5" r="3"/>
	<path fill="#AEA5BF" d="M936.6,92.4l-3.1-9.6c-5.5-17.3-9.8-35.7-12.9-54.7l-4-24.9c-0.1-0.7-0.5-1.3-1-1.3l0,0
		c-0.4,0-0.8,0.5-1,1.3l-4,24.9c-3.1,19-7.4,37.4-12.9,54.7l-3.1,9.6c-4.4,13.8-6.7,29.4-6.7,45.2c0,11.1,1.1,22.1,3.4,32.5
		l7.1,33.2c5.3,24.7,9.3,50.2,12.1,76.1l4.2,30.2c0.1,0.7,0.5,1.3,0.9,1.3l0,0c0.4,0,0.8-0.5,0.9-1.3l4.2-30.2
		c2.8-25.9,6.8-51.4,12.1-76.1l7.1-33.2c2.2-10.4,3.4-21.4,3.4-32.5C943.3,121.8,941,106.3,936.6,92.4z"/>
	<polygon fill="#7E729E" points="921,139 917,139 917,95 915,95 915,139 911,139 911,192 915,192 915,241 917,241 917,192 921,192 	
		"/>
	<circle fill="#3D406A" cx="915.6" cy="152" r="3"/>
	<path fill="#A4A6B8" d="M1217.4,244.9l3.1,9.6c5.5,17.3,9.8,35.7,12.9,54.7l4,24.9c0.1,0.7,0.5,1.3,1,1.3l0,0c0.4,0,0.8-0.5,1-1.3
		l4-24.9c3.1-19,7.4-37.4,12.9-54.7l3.1-9.6c4.4-13.8,6.7-29.4,6.7-45.2c0-11.1-1.1-22.1-3.4-32.5l-7.1-33.2
		c-5.3-24.7-9.3-50.2-12.1-76.1l-4.2-30.2c-0.1-0.7-0.5-1.3-0.9-1.3l0,0c-0.4,0-0.8,0.5-0.9,1.3l-4.2,30.2
		c-2.8,25.9-6.8,51.4-12.1,76.1l-7.1,33.2c-2.2,10.4-3.4,21.4-3.4,32.5C1210.7,215.5,1213,231.1,1217.4,244.9z"/>
	<polygon fill="#717291" points="1243,146 1239,146 1239,134 1237,134 1237,146 1233,146 1233,220 1237,220 1237,280 1239,280 
		1239,220 1243,220 	"/>
	<circle fill="#3D406A" cx="1238.3" cy="185.4" r="3"/>
	<path fill="#DDD9E0" d="M191.5,213l-8.5-36.1c-3.4-14.3-4.5-29.3-3.4-44.1l2.1-27.3c0.9-12.5,0.1-25.1-2.5-37.2L164,3.1
		c-0.2-0.7-0.7-1.2-1.2-1.2h0c-0.6,0-1.1,0.5-1.2,1.2l-15.2,65.2c-2.6,12.1-3.4,24.7-2.5,37.2l2.1,27.3c1.1,14.9,0,29.8-3.4,44.1
		L134,213c-6,25.6-5,53.1,3,77.8l24.5,72.1c0.2,0.7,0.8,1.1,1.3,1.1h0c0.6,0,1.1-0.4,1.3-1.1l24.5-72.1
		C196.5,266.1,197.6,238.6,191.5,213z"/>
	<polygon fill="#AEA5BF" points="167.6,204 163.6,204 163.6,109 161.6,109 161.6,204 157.6,204 157.6,282 161.6,282 161.6,313 
		163.6,313 163.6,282 167.6,282 	"/>
	<circle fill="#3D406A" cx="162.8" cy="243.5" r="3"/>
	<path fill="#D7C8C5" d="M672.6,153.9l8.2,35.3c3.3,13.9,4.4,28.6,3.3,43.1l-2,26.6c-0.9,12.2-0.1,24.5,2.4,36.3l14.7,63.7
		c0.2,0.7,0.6,1.2,1.2,1.2l0,0c0.6,0,1-0.5,1.2-1.2l14.7-63.7c2.5-11.8,3.3-24.1,2.4-36.3l-2-26.6c-1.1-14.5,0-29.1,3.3-43.1
		l8.2-35.3c5.8-25,4.8-51.9-2.9-76L701.8,7.5c-0.2-0.7-0.7-1.1-1.3-1.1l0,0c-0.6,0-1.1,0.4-1.3,1.1l-23.7,70.4
		C667.7,102.1,666.7,128.9,672.6,153.9z"/>
	<polygon fill="#A697A6" points="705.6,79 701.6,79 701.6,54 699.6,54 699.6,79 695.6,79 695.6,184 699.6,184 699.6,256 701.6,256 
		701.6,184 705.6,184 	"/>
	<circle fill="#3D406A" cx="700.6" cy="123.3" r="3"/>
	<path fill="#C6BFCF" d="M295,105.2l-0.2-0.5c-3.4-9.1-8.9-24-12.3-33.1l-11-33.7c-0.3-0.8-0.9-1.4-1.5-1.4l0,0
		c-0.7,0-1.2,0.5-1.5,1.4l-11,33.7c-3.7,11.3-7.8,22.4-12.3,33.1l-0.2,0.5c-8.2,19.5-10.8,42.8-7.3,65l19.7,125.8
		c1.5,9.7,5.9,18.6,10.8,25.7c0.4,0.7,1.1,1,1.7,1h0.1c0.6,0,1.3-0.4,1.7-1c4.9-7.2,9.3-16.1,10.8-25.7l19.7-125.8
		C305.8,147.9,303.2,124.7,295,105.2z"/>
	<polygon fill="#968BAF" points="275.3,114 271.3,114 271.3,94 269.3,94 269.3,114 265.3,114 265.3,219 269.3,219 269.3,272 
		271.3,272 271.3,219 275.3,219 	"/>
	<circle fill="#3D406A" cx="270.3" cy="157.1" r="3"/>
	<path fill="#E5C6A9" d="M998.2,295.3l0.2,0.5c3.4,9.1,8.9,24,12.3,33.1l11,33.7c0.3,0.8,0.9,1.4,1.5,1.4l0,0c0.7,0,1.2-0.5,1.5-1.4
		l11-33.7c3.7-11.3,7.8-22.4,12.3-33.1l0.2-0.5c8.2-19.5,10.8-42.8,7.3-65l-19.7-125.8c-1.5-9.7-5.9-18.6-10.8-25.7
		c-0.4-0.7-1.1-1-1.7-1h-0.1c-0.6,0-1.3,0.4-1.7,1c-4.9,7.2-9.3,16.1-10.8,25.7L991,230.4C987.5,252.6,990.1,275.8,998.2,295.3z"/>
	<polygon fill="#B2958C" points="1027.9,181 1023.9,181 1023.9,128 1021.9,128 1021.9,181 1017.9,181 1017.9,286 1021.9,286 
		1021.9,307 1023.9,307 1023.9,286 1027.9,286 	"/>
	<circle fill="#3D406A" cx="1023.3" cy="243.7" r="3"/>
	<path fill="#EFE0D5" d="M613.1,77.2l-0.2-0.4c-2.7-8.5-7.2-22.4-9.9-30.9l-8.8-31.4c-0.2-0.8-0.7-1.3-1.2-1.3l0,0
		c-0.5,0-1,0.5-1.2,1.3l-8.8,31.4c-3,10.6-6.3,20.9-9.9,30.9l-0.2,0.5c-6.6,18.2-8.7,39.9-5.9,60.5L582.8,255c1.2,9,4.8,17.3,8.7,24
		c0.4,0.6,0.9,0.9,1.4,0.9h0.1c0.5,0,1-0.3,1.4-0.9c3.9-6.7,7.5-15,8.7-24L619,137.7C621.8,117,619.7,95.4,613.1,77.2z"/>
	<polygon fill="#BEAFB6" points="598,77 594,77 594,62 592,62 592,77 588,77 588,160 592,160 592,241 594,241 594,160 598,160 	"/>
	<circle fill="#3D406A" cx="593" cy="114.6" r="3"/>
	<path fill="#EDD9CA" d="M1150.9,77.2l-0.2-0.4c-2.7-8.5-7.2-22.4-9.9-30.9l-8.8-31.4c-0.2-0.8-0.7-1.3-1.2-1.3l0,0
		c-0.5,0-1,0.5-1.2,1.3l-8.8,31.4c-3,10.6-6.3,20.9-9.9,30.9l-0.2,0.5c-6.6,18.2-8.7,39.9-5.9,60.5l15.9,117.3
		c1.2,9,4.8,17.3,8.7,24c0.4,0.6,0.9,0.9,1.4,0.9h0.1c0.5,0,1-0.3,1.4-0.9c3.9-6.7,7.5-15,8.7-24l15.9-117.3
		C1159.5,117,1157.4,95.4,1150.9,77.2z"/>
	<polygon fill="#BEAFB6" points="1135.8,77 1131.8,77 1131.8,62 1129.8,62 1129.8,77 1125.8,77 1125.8,160 1129.8,160 1129.8,241 
		1131.8,241 1131.8,160 1135.8,160 	"/>
	<circle fill="#3D406A" cx="1130.8" cy="114.6" r="3"/>
	<path fill="#BEBFCB" d="M485.4,20.2L485.4,20.2c1.6,4.9,2.5,10.1,2.7,15.3l1.9,65.9c0.6,22.7,8.7,44.1,22.2,59.3l0,0
		c6.5,7.3,9.1,18.6,6.7,29.1v0c-2.6,11.2-2.5,23.2,0.3,34.4l2.9,11.9c3.4,13.9,0.3,29-8.1,39v0c-10.9,13-18.4,29.8-21.5,48.2
		l-6.8,40.4c-0.1,0.4-0.6,0.4-0.7,0l-6.8-40.4c-3.1-18.4-10.6-35.2-21.5-48.2l0,0c-8.4-10-11.6-25.1-8.1-39l2.9-11.9
		c2.8-11.2,2.9-23.1,0.3-34.4v0c-2.4-10.5,0.2-21.8,6.7-29.1l0,0c13.6-15.2,21.6-36.6,22.2-59.3l1.9-65.9
		C482.9,30.2,483.8,25.1,485.4,20.2L485.4,20.2z"/>
	<polygon fill="#8B8CA4" points="490,204 486,204 486,148.7 484,148.7 484,204 480,204 480,275 484,275 484,289 486,289 486,275 
		490,275 	"/>
	<circle fill="#3D406A" cx="485.4" cy="239.6" r="3"/>
	<path fill="#E7D7D4" d="M808.1,364.3l-2.2-7.3l-1.7-48.4c-0.7-20.9-7.5-40.7-18.9-54.9l0,0c-14.5-18.3-18.2-47.5-8.8-71.2v0
		c3.1-7.8,4.8-16.4,5.1-25.2l0.5-15.9c0.5-14.2,3.6-28,9.2-40.1l0,0c5.3-11.5,8.8-24.3,10.3-37.7l5.6-50.7c0.2-1.4,1.6-1.4,1.7,0
		l5.6,50.7c1.5,13.4,5,26.2,10.3,37.7v0c5.6,12.1,8.7,25.9,9.2,40.1l0.5,15.9c0.3,8.8,2,17.5,5.1,25.2v0c9.3,23.7,5.7,52.9-8.8,71.2
		l0,0c-11.4,14.3-18.1,34-18.9,54.9l-1.7,48.4L808.1,364.3z"/>
	<polygon fill="#BEAFB6" points="812.8,173 808.8,173 808.8,115 806.8,115 806.8,173 802.8,173 802.8,238 806.8,238 806.8,278 
		808.8,278 808.8,238 812.8,238 	"/>
	<circle fill="#3D406A" cx="808.1" cy="203.6" r="3"/>
	<line fill="none" stroke="#C4C4C4" stroke-miterlimit="10" x1="162.7" y1="388.2" x2="162.7" y2="378.7"/>
	<line fill="none" stroke="#C4C4C4" stroke-miterlimit="10" x1="270.3" y1="388.2" x2="270.3" y2="378.7"/>
	<line fill="none" stroke="#C4C4C4" stroke-miterlimit="10" x1="485.4" y1="388.2" x2="485.4" y2="378.7"/>
	<line fill="none" stroke="#C4C4C4" stroke-miterlimit="10" x1="808.1" y1="388.2" x2="808.1" y2="378.7"/>
	<line fill="none" stroke="#C4C4C4" stroke-miterlimit="10" x1="1023.2" y1="388.2" x2="1023.2" y2="378.7"/>
	<line fill="none" stroke="#C4C4C4" stroke-miterlimit="10" x1="377.8" y1="388.2" x2="377.8" y2="378.7"/>
	<line fill="none" stroke="#C4C4C4" stroke-miterlimit="10" x1="593" y1="388.2" x2="593" y2="378.7"/>
	<line fill="none" stroke="#C4C4C4" stroke-miterlimit="10" x1="700.5" y1="388.2" x2="700.5" y2="378.7"/>
	<line fill="none" stroke="#C4C4C4" stroke-miterlimit="10" x1="915.6" y1="388.2" x2="915.6" y2="378.7"/>
	<line fill="none" stroke="#C4C4C4" stroke-miterlimit="10" x1="1130.8" y1="388.2" x2="1130.8" y2="378.7"/>
	<line fill="none" stroke="#C4C4C4" stroke-miterlimit="10" x1="1238.3" y1="388.2" x2="1238.3" y2="378.7"/>
	<polyline fill="none" stroke="#C4C4C4" stroke-miterlimit="10" points="55.2,1.5 55.2,379 1266,379 	"/>
	<g>
		<line fill="none" stroke="#C4C4C4" stroke-miterlimit="10" x1="45.6" y1="9.9" x2="55.6" y2="9.9"/>
		<line fill="none" stroke="#C4C4C4" stroke-miterlimit="10" x1="45.6" y1="304.9" x2="55.6" y2="304.9"/>
		<line fill="none" stroke="#C4C4C4" stroke-miterlimit="10" x1="45.6" y1="230.9" x2="55.6" y2="230.9"/>
		<line fill="none" stroke="#C4C4C4" stroke-miterlimit="10" x1="45.6" y1="157.9" x2="55.6" y2="157.9"/>
		<line fill="none" stroke="#C4C4C4" stroke-miterlimit="10" x1="45.6" y1="83.9" x2="55.6" y2="83.9"/>
	</g>
	<g>
		<g>
			<text transform="matrix(1 0 0 1 574.5291 415.4348)" fill="#D1CDC9" font-family="'RobotoCondensed-Regular'" font-size="19px">2014</text>
		</g>
		<g>
			<text transform="matrix(1 0 0 1 789.6685 415.4348)" fill="#D1CDC9" font-family="'RobotoCondensed-Regular'" font-size="19px">2016</text>
		</g>
		<g>
			<text transform="matrix(1 0 0 1 1005.6685 415.4348)" fill="#D1CDC9" font-family="'RobotoCondensed-Regular'" font-size="19px">2018</text>
		</g>
		<g>
			<text transform="matrix(1 0 0 1 358.4607 415.4348)" fill="#D1CDC9" font-family="'RobotoCondensed-Regular'" font-size="19px">2012</text>
		</g>
		<g>
			<text transform="matrix(1 0 0 1 142.4604 415.4348)" fill="#D1CDC9" font-family="'RobotoCondensed-Regular'" font-size="19px">2010</text>
		</g>
		<g>
			<text transform="matrix(1 0 0 1 1221.1887 415.4348)" fill="#D1CDC9" font-family="'RobotoCondensed-Regular'" font-size="19px">2020</text>
		</g>
	</g>
	<g>
		<text transform="matrix(1 0 0 1 6.624 20.5195)" fill="#D1CDC9" font-family="'RobotoCondensed-Regular'" font-size="19px">100</text>
	</g>
	<text transform="matrix(1 0 0 1 16.0038 240.0969)" fill="#D1CDC9" font-family="'RobotoCondensed-Regular'" font-size="19px">40</text>
	<text transform="matrix(1 0 0 1 16.0038 168.0968)" fill="#D1CDC9" font-family="'RobotoCondensed-Regular'" font-size="19px">60</text>
	<text transform="matrix(1 0 0 1 16.0039 94.0968)" fill="#D1CDC9" font-family="'RobotoCondensed-Regular'" font-size="19px">80</text>
	<text transform="matrix(1 0 0 1 16.0038 312.52)" fill="#D1CDC9" font-family="'RobotoCondensed-Regular'" font-size="19px">20</text>
</g>
<g id="Layer_2">
</g>
<g id="Layer_3">
</g>
</svg>
