<svg enable-background="new 0 0 256 133" height="133" viewBox="0 0 256 133" width="256" xmlns="http://www.w3.org/2000/svg"><path d="m237.8 48.5c-7.9 0-14.5 5.1-17 12.1-2.2-.8-3.4-2.2-5-4.1-3-3.5-7-8.3-17.6-8.3-.2 0-.3 0-.5 0-12.1.2-16.7 12.8-20.7 23.9-3.6 10.1-6.6 17.2-11.3 17.3 0 0-2.5-.8-5.8-11.7-2.4-7.9-4.4-18.5-6.4-28.7-5.2-27.1-9.3-48.5-22-48.5-.1 0-.1 0-.2 0-12.3.1-16.2 22.5-22.7 65.3-2.1 13.7-4.2 27.9-6.7 38.8-3.2 14.1-5.8 17.3-6.6 18-1.1-.3-2.9-2.2-4.8-7-2.3-5.8-4.1-14-5.8-21.9-4.2-19.1-8.1-36.9-20.7-36.9-.1 0-.1 0-.2 0-11.4.2-16 8-19.4 13.7s-5.4 8.7-10.9 8.8c-6.3.1-9-3-12.8-7.3-4.2-4.8-9.4-10.7-20.1-10.7-.1 0-.3 0-.4 0l.1 10c6.3-.1 9 3 12.8 7.3 4.2 4.8 9.5 10.9 20.5 10.7 11.4-.2 16-8 19.4-13.7s5.4-8.7 10.9-8.8c1.1 0 3 1.9 5.1 7.1 2.3 5.8 4.1 14 5.8 21.9 4.2 18.9 8.1 36.8 20.7 36.8h.2c12.3-.2 16.2-22.5 22.7-65.3 2.1-13.7 4.2-27.9 6.7-38.8 3.1-13.6 5.6-17.1 6.5-17.9.7.5 2.9 2.6 5.6 11.5 2.4 7.9 4.4 18.5 6.4 28.7 5.2 27.1 9.3 48.5 22 48.5h.2c12.1-.2 16.6-12.8 20.6-23.9 3.6-10.1 6.6-17.2 11.4-17.3 6.2-.1 7.8 1.7 10.4 4.7 2.4 2.8 5.5 6.5 12.2 7.8 1.9 7.9 9 13.7 17.5 13.7 9.9 0 18-8.1 18-18s-8.2-17.8-18.1-17.8z"/></svg>