<svg xmlns="http://www.w3.org/2000/svg" width="800" height="800" viewBox="0 0 800 800"><defs><style>.a{fill:#f4f4f4;}.b,.c,.d,.h,.j{fill:none;}.b{stroke:#f5f5f5;stroke-linejoin:bevel;stroke-width:4.84px;}.c,.h,.j{stroke:#a8a8a8;}.c,.d,.f,.h,.j{stroke-miterlimit:10;}.d{stroke:#c5c5c5;}.e{fill:#b5b5b5;}.e,.f{opacity:0.33;}.f{fill:#919191;stroke:#232322;}.g,.i,.j,.k{isolation:isolate;}.g{font-size:18px;fill:#a5a5b9;}.g,.i{font-family:Roboto Mono;}.h{stroke-width:1.06px;}.i{font-size:31.46px;}.i,.k{fill:#514361;}.j{stroke-linecap:round;stroke-width:2px;stroke-dasharray:0 3.32;opacity:0.8;}.k{font-size:16.8px;font-family:Roboto;font-style:italic;}</style></defs><title>anatomy</title><rect class="a" x="286" y="15.8" width="247.2" height="723.42"/><line class="b" x1="65.9" y1="659.7" x2="90.1" y2="659.7"/><line class="b" x1="65.9" y1="451.7" x2="90.1" y2="451.7"/><line class="b" x1="65.9" y1="248.5" x2="90.1" y2="248.5"/><line class="c" x1="55.6" y1="739.2" x2="803.8" y2="739.2"/><line class="d" x1="88.6" y1="471" x2="778" y2="471"/><line class="d" x1="94.6" y1="203.5" x2="784" y2="203.5"/><line class="d" x1="409.4" y1="752.7" x2="409.4" y2="50.1"/><circle class="e" cx="444.4" cy="451.6" r="23.2"/><circle class="e" cx="349.5" cy="549.8" r="23.2"/><circle class="e" cx="381.7" cy="418.9" r="23.2"/><circle class="e" cx="310.8" cy="582.5" r="23.2"/><circle class="e" cx="406.4" cy="582.5" r="23.2"/><circle class="e" cx="423.3" cy="288.1" r="23.2"/><circle class="e" cx="370.7" cy="418.9" r="23.2"/><circle class="e" cx="492.4" cy="615.2" r="23.2"/><circle class="e" cx="429.3" cy="222.7" r="23.2"/><circle class="e" cx="472.3" cy="418.9" r="23.2"/><circle class="e" cx="410.6" cy="222.7" r="23.2"/><circle class="e" cx="509.6" cy="353.5" r="23.2"/><circle class="e" cx="392.5" cy="288.1" r="23.2"/><circle class="e" cx="379" cy="288.1" r="23.2"/><circle class="e" cx="449" cy="288.1" r="23.2"/><circle class="e" cx="477.9" cy="222.7" r="23.2"/><circle class="e" cx="325.5" cy="451.6" r="23.2"/><circle class="e" cx="408.5" cy="255.4" r="23.2"/><circle class="e" cx="471" cy="288.1" r="23.2"/><circle class="e" cx="427.2" cy="713.3" r="23.2"/><circle class="e" cx="398.8" cy="680.6" r="23.2"/><circle class="e" cx="432" cy="582.5" r="23.2"/><circle class="e" cx="327.2" cy="517" r="23.2"/><circle class="e" cx="497.1" cy="451.6" r="23.2"/><circle class="e" cx="368.5" cy="353.5" r="23.2"/><circle class="e" cx="315.8" cy="582.5" r="23.2"/><circle class="e" cx="476.4" cy="549.8" r="23.2"/><circle class="e" cx="373.7" cy="546.5" r="23.2"/><circle class="e" cx="419.9" cy="432" r="23.2"/><circle class="e" cx="442.8" cy="389.5" r="23.2"/><circle class="e" cx="376.2" cy="405.8" r="23.2"/><circle class="e" cx="314.2" cy="363.3" r="23.2"/><circle class="e" cx="388.4" cy="337.2" r="23.2"/><circle class="e" cx="414.3" cy="386.2" r="23.2"/><circle class="e" cx="401.6" cy="487.6" r="23.2"/><circle class="e" cx="476.2" cy="340.4" r="23.2"/><circle class="e" cx="342.3" cy="330.6" r="23.2"/><circle class="e" cx="369.2" cy="350.2" r="23.2"/><circle class="e" cx="432.9" cy="232.5" r="23.2"/><circle class="e" cx="372.9" cy="255.4" r="23.2"/><circle class="e" cx="449.4" cy="409.1" r="23.2"/><circle class="e" cx="411.6" cy="317.5" r="23.2"/><circle class="e" cx="402.2" cy="190" r="23.2"/><circle class="e" cx="327.6" cy="186.7" r="23.2"/><circle class="e" cx="325.2" cy="484.3" r="23.2"/><circle class="e" cx="432.7" cy="621.7" r="23.2"/><circle class="e" cx="315.1" cy="595.5" r="23.2"/><circle class="e" cx="482.4" cy="575.9" r="23.2"/><circle class="e" cx="339" cy="405.8" r="23.2"/><circle class="e" cx="462.5" cy="693.7" r="23.2"/><circle class="e" cx="363.7" cy="320.8" r="23.2"/><circle class="e" cx="424" cy="490.9" r="23.2"/><circle class="e" cx="386.9" cy="360" r="23.2"/><circle class="e" cx="374.1" cy="127.8" r="23.2"/><circle class="e" cx="443.1" cy="39" r="23.2"/><circle class="e" cx="465.1" cy="484.3" r="23.2"/><circle class="e" cx="367.5" cy="46" r="23.2"/><circle class="e" cx="477.7" cy="131.1" r="23.2"/><circle class="e" cx="465.3" cy="553" r="23.2"/><circle class="e" cx="337.9" cy="412.4" r="23.2"/><circle class="e" cx="405.2" cy="255.4" r="23.2"/><circle class="e" cx="469.4" cy="441.8" r="23.2"/><circle class="e" cx="448.1" cy="490.9" r="23.2"/><circle class="e" cx="407.2" cy="343.7" r="23.2"/><circle class="e" cx="370.1" cy="670.8" r="23.2"/><circle class="e" cx="320.7" cy="602.1" r="23.2"/><circle class="e" cx="485.3" cy="549.8" r="23.2"/><circle class="e" cx="465.1" cy="248.8" r="23.2"/><circle class="e" cx="319.3" cy="415.7" r="23.2"/><circle class="e" cx="466.5" cy="219.4" r="23.2"/><circle class="e" cx="397.7" cy="108.2" r="23.2"/><circle class="e" cx="453.1" cy="369.9" r="23.2"/><circle class="e" cx="393.5" cy="536.7" r="23.2"/><circle class="e" cx="459.8" cy="245.6" r="23.2"/><circle class="e" cx="479.6" cy="425.5" r="23.2"/><circle class="e" cx="417.8" cy="337.2" r="23.2"/><circle class="e" cx="430.8" cy="347" r="23.2"/><circle class="e" cx="395.5" cy="575.9" r="23.2"/><circle class="e" cx="313.9" cy="569.4" r="23.2"/><circle class="e" cx="355.3" cy="297.9" r="23.2"/><circle class="e" cx="374.2" cy="350.2" r="23.2"/><circle class="e" cx="375.1" cy="422.2" r="23.2"/><circle class="e" cx="481.1" cy="500.7" r="23.2"/><circle class="e" cx="328.3" cy="435.3" r="23.2"/><circle class="e" cx="423.3" cy="683.9" r="23.2"/><circle class="e" cx="329.6" cy="687.1" r="23.2"/><circle class="e" cx="436.6" cy="706.8" r="23.2"/><circle class="e" cx="361.4" cy="454.9" r="23.2"/><circle class="e" cx="335" cy="575.9" r="23.2"/><circle class="e" cx="510.1" cy="566.1" r="23.2"/><circle class="e" cx="408.1" cy="484.3" r="23.2"/><circle class="e" cx="356.3" cy="644.6" r="23.2"/><circle class="e" cx="437.7" cy="284.8" r="23.2"/><circle class="e" cx="369.4" cy="176.9" r="23.2"/><circle class="e" cx="347.4" cy="392.8" r="23.2"/><circle class="e" cx="463.2" cy="284.8" r="23.2"/><circle class="e" cx="374.8" cy="468" r="23.2"/><circle class="e" cx="318.3" cy="484.3" r="23.2"/><circle class="e" cx="421.7" cy="369.9" r="23.2"/><circle class="e" cx="309.3" cy="468" r="23.2"/><circle class="e" cx="452.3" cy="631.5" r="23.2"/><circle class="e" cx="388.4" cy="615.2" r="23.2"/><circle class="e" cx="347.5" cy="664.2" r="23.2"/><circle class="e" cx="335.7" cy="517" r="23.2"/><circle class="e" cx="373.9" cy="369.9" r="23.2"/><circle class="e" cx="381.2" cy="631.5" r="23.2"/><circle class="e" cx="423.9" cy="288.1" r="23.2"/><circle class="e" cx="364.2" cy="484.3" r="23.2"/><circle class="e" cx="394.3" cy="435.3" r="23.2"/><circle class="e" cx="401.5" cy="598.8" r="23.2"/><circle class="e" cx="485.9" cy="549.8" r="23.2"/><circle class="e" cx="333.6" cy="418.9" r="23.2"/><circle class="e" cx="427.5" cy="500.7" r="23.2"/><circle class="e" cx="410" cy="386.2" r="23.2"/><circle class="e" cx="481.8" cy="517" r="23.2"/><circle class="e" cx="326" cy="664.2" r="23.2"/><circle class="e" cx="330" cy="517" r="23.2"/><circle class="e" cx="442" cy="582.5" r="23.2"/><circle class="e" cx="372.7" cy="615.2" r="23.2"/><circle class="e" cx="383.2" cy="647.9" r="23.2"/><circle class="e" cx="414.8" cy="647.9" r="23.2"/><circle class="e" cx="341.7" cy="549.8" r="23.2"/><circle class="e" cx="409.6" cy="386.2" r="23.2"/><circle class="e" cx="392" cy="647.9" r="23.2"/><circle class="e" cx="414.9" cy="713.3" r="23.2"/><circle class="e" cx="368.4" cy="713.3" r="23.2"/><circle class="e" cx="451.8" cy="517" r="23.2"/><circle class="e" cx="340.3" cy="680.6" r="23.2"/><circle class="e" cx="396.7" cy="647.9" r="23.2"/><circle class="e" cx="490.8" cy="680.6" r="23.2"/><circle class="e" cx="476" cy="713.3" r="23.2"/><circle class="e" cx="406.5" cy="713.3" r="23.2"/><circle class="e" cx="323.1" cy="517" r="23.2"/><circle class="e" cx="435.2" cy="451.6" r="23.2"/><circle class="e" cx="358.6" cy="615.2" r="23.2"/><circle class="e" cx="385" cy="680.6" r="23.2"/><circle class="e" cx="434.5" cy="615.2" r="23.2"/><circle class="e" cx="464.4" cy="680.6" r="23.2"/><circle class="e" cx="460.1" cy="549.8" r="23.2"/><circle class="e" cx="326" cy="418.9" r="23.2"/><circle class="e" cx="316.8" cy="451.6" r="23.2"/><circle class="e" cx="413.1" cy="615.2" r="23.2"/><circle class="e" cx="467.4" cy="615.2" r="23.2"/><circle class="e" cx="375.5" cy="517" r="23.2"/><circle class="e" cx="399.7" cy="647.9" r="23.2"/><circle class="e" cx="357" cy="418.9" r="23.2"/><circle class="e" cx="333.8" cy="615.2" r="23.2"/><circle class="e" cx="422" cy="451.6" r="23.2"/><circle class="e" cx="315.9" cy="680.6" r="23.2"/><circle class="e" cx="417.6" cy="680.6" r="23.2"/><circle class="e" cx="388.4" cy="517" r="23.2"/><circle class="e" cx="404.6" cy="615.2" r="23.2"/><circle class="e" cx="399.2" cy="615.2" r="23.2"/><circle class="e" cx="485.6" cy="582.5" r="23.2"/><circle class="e" cx="500.2" cy="549.8" r="23.2"/><circle class="e" cx="346.6" cy="713.3" r="23.2"/><circle class="e" cx="314.1" cy="549.8" r="23.2"/><circle class="e" cx="428.1" cy="615.2" r="23.2"/><circle class="e" cx="328.9" cy="713.3" r="23.2"/><circle class="e" cx="358.7" cy="647.9" r="23.2"/><circle class="e" cx="317.5" cy="680.6" r="23.2"/><circle class="e" cx="447" cy="615.2" r="23.2"/><circle class="e" cx="407.4" cy="582.5" r="23.2"/><circle class="e" cx="334.4" cy="320.8" r="23.2"/><circle class="e" cx="477.7" cy="451.6" r="23.2"/><circle class="e" cx="491.9" cy="484.3" r="23.2"/><circle class="e" cx="338" cy="484.3" r="23.2"/><circle class="e" cx="504.7" cy="549.8" r="23.2"/><circle class="e" cx="462.7" cy="713.3" r="23.2"/><circle class="e" cx="344" cy="647.9" r="23.2"/><circle class="e" cx="331.5" cy="647.9" r="23.2"/><circle class="f" cx="477.5" cy="549.8" r="23.2"/><circle class="e" cx="450.3" cy="582.5" r="23.2"/><circle class="e" cx="466.6" cy="615.2" r="23.2"/><circle class="e" cx="509.5" cy="647.9" r="23.2"/><circle class="e" cx="394.8" cy="680.6" r="23.2"/><circle class="e" cx="509.6" cy="647.9" r="23.2"/><circle class="e" cx="492.7" cy="615.2" r="23.2"/><circle class="e" cx="349.1" cy="582.5" r="23.2"/><circle class="e" cx="428.4" cy="680.6" r="23.2"/><text class="g" transform="translate(44.3 610.4)">20</text><text class="g" transform="translate(44.3 476.4)">40</text><text class="g" transform="translate(44.3 342.5)">60</text><text class="g" transform="translate(44.3 208.6)">80</text><text class="g" transform="translate(31.5 74.7)">100</text><line class="h" x1="75.8" y1="739.2" x2="75.8" y2="69.6"/><line class="h" x1="75.8" y1="605.2" x2="92.6" y2="605.2"/><line class="h" x1="75.8" y1="471.4" x2="92.6" y2="471.4"/><line class="h" x1="75.8" y1="337.4" x2="92.6" y2="337.4"/><line class="h" x1="75.8" y1="203.5" x2="92.6" y2="203.5"/><line class="h" x1="75.8" y1="69.6" x2="92.6" y2="69.6"/><text class="i" transform="translate(618.2 70.7)">jitter<tspan x="0" y="37.8">size</tspan></text><path class="j" d="M605,62.2l-77-6.5"/><text class="i" transform="translate(357.1 786.7)">ipsum</text><text class="k" transform="translate(624.2 555.8)">ipsum dolor</text><text class="i" transform="translate(618.2 536.5)">lorem</text><path class="j" d="M618.2,529.8L488.5,553"/></svg>