<svg xmlns="http://www.w3.org/2000/svg" width="1268" height="418" viewBox="0 0 1268 418"><defs><style>.a{fill:none;stroke:#c4c4c4;stroke-miterlimit:10;stroke-width:0.96px;}.b,.c{isolation:isolate;fill:#d1cdc9;font-family:Roboto Mono;}.b{font-size:18px;}.c{font-size:16px;}.d{fill:#a59db2;opacity:0.65;}</style></defs><title>cover</title><line class="a" x1="149.3" y1="391.4" x2="149.3" y2="382.4"/><line class="a" x1="774.4" y1="391.4" x2="774.4" y2="382.4"/><line class="a" x1="982.7" y1="391.4" x2="982.7" y2="382.4"/><line class="a" x1="357.7" y1="391.4" x2="357.7" y2="382.4"/><line class="a" x1="566.1" y1="391.4" x2="566.1" y2="382.4"/><line class="a" x1="1191.1" y1="391.4" x2="1191.1" y2="382.4"/><polyline class="a" points="45.1 18.8 45.1 382.6 1259.7 382.6"/><line class="a" x1="35.8" y1="26.5" x2="45.5" y2="26.5"/><line class="a" x1="35.8" y1="311.1" x2="45.5" y2="311.1"/><line class="a" x1="35.8" y1="239.7" x2="45.5" y2="239.7"/><line class="a" x1="35.8" y1="169.3" x2="45.5" y2="169.3"/><line class="a" x1="35.8" y1="97.9" x2="45.5" y2="97.9"/><text class="b" transform="translate(544.9 412.5)">2014</text><text class="b" transform="translate(752.5 412.5)">2016</text><text class="b" transform="translate(960.9 412.5)">2018</text><text class="b" transform="translate(336.4 412.5)">2012</text><text class="b" transform="translate(128.1 412.5)">2010</text><text class="b" transform="translate(1168.8 412.5)">2020</text><text class="c" transform="translate(3 32.5)">100</text><text class="c" transform="translate(12 244.4)">40</text><text class="c" transform="translate(12 174.9)">60</text><text class="c" transform="translate(12 103.5)">80</text><text class="c" transform="translate(12 314.3)">20</text><circle class="d" cx="997" cy="250.4" r="8.2"/><circle class="d" cx="980.5" cy="316.2" r="8.2"/><circle class="d" cx="1009.4" cy="145.1" r="8.2"/><circle class="d" cx="957" cy="250.4" r="8.2"/><circle class="d" cx="959.4" cy="224.1" r="8.2"/><circle class="d" cx="1003.9" cy="79.3" r="8.2"/><circle class="d" cx="981" cy="371.2" r="8.2"/><circle class="d" cx="966.8" cy="118.8" r="8.2"/><circle class="d" cx="1011.1" cy="197.8" r="8.2"/><circle class="d" cx="966.1" cy="131.9" r="8.2"/><circle class="d" cx="954.1" cy="224.1" r="8.2"/><circle class="d" cx="956.3" cy="237.2" r="8.2"/><circle class="d" cx="994.2" cy="184.6" r="8.2"/><circle class="d" cx="1004.3" cy="329.4" r="8.2"/><circle class="d" cx="958.9" cy="316.2" r="8.2"/><circle class="d" cx="1005.8" cy="237.2" r="8.2"/><circle class="d" cx="960.2" cy="224.1" r="8.2"/><circle class="d" cx="997.3" cy="66.1" r="8.2"/><circle class="d" cx="961.7" cy="66.1" r="8.2"/><circle class="d" cx="991.2" cy="289.9" r="8.2"/><circle class="d" cx="974.4" cy="171.4" r="8.2"/><circle class="d" cx="970.5" cy="342.5" r="8.2"/><circle class="d" cx="1002.6" cy="66.1" r="8.2"/><circle class="d" cx="968.8" cy="250.4" r="8.2"/><circle class="d" cx="976.1" cy="197.8" r="8.2"/><circle class="d" cx="973.7" cy="131.9" r="8.2"/><circle class="d" cx="971.8" cy="263.6" r="8.2"/><circle class="d" cx="969.8" cy="276.7" r="8.2"/><circle class="d" cx="996.4" cy="237.2" r="8.2"/><circle class="d" cx="988.4" cy="131.9" r="8.2"/><circle class="d" cx="985.9" cy="105.6" r="8.2"/><circle class="d" cx="978.8" cy="14.2" r="8.2"/><circle class="d" cx="985" cy="237.2" r="8.2"/><circle class="d" cx="994" cy="250.4" r="8.2"/><circle class="d" cx="953.7" cy="276.7" r="8.2"/><circle class="d" cx="949.5" cy="66.1" r="8.2"/><circle class="d" cx="964.7" cy="250.4" r="8.2"/><circle class="d" cx="984.6" cy="237.2" r="8.2"/><circle class="d" cx="959.1" cy="289.9" r="8.2"/><circle class="d" cx="952" cy="171.4" r="8.2"/><circle class="d" cx="948.6" cy="197.8" r="8.2"/><circle class="d" cx="952" cy="171.4" r="8.2"/><circle class="d" cx="985.5" cy="316.2" r="8.2"/><circle class="d" cx="998.9" cy="184.6" r="8.2"/><circle class="d" cx="997.4" cy="197.8" r="8.2"/><circle class="d" cx="997.5" cy="197.8" r="8.2"/><circle class="d" cx="968.9" cy="250.4" r="8.2"/><circle class="d" cx="973.8" cy="224.1" r="8.2"/><circle class="d" cx="981.5" cy="263.6" r="8.2"/><circle class="d" cx="956.7" cy="303.1" r="8.2"/><circle class="d" cx="957.9" cy="368.9" r="8.2"/><circle class="d" cx="1014" cy="363" r="8.2"/><circle class="d" cx="178" cy="254.7" r="8.2"/><circle class="d" cx="147.4" cy="281" r="8.2"/><circle class="d" cx="165.7" cy="307.3" r="8.2"/><circle class="d" cx="139.6" cy="320.5" r="8.2"/><circle class="d" cx="141" cy="267.8" r="8.2"/><circle class="d" cx="119.8" cy="215.2" r="8.2"/><circle class="d" cx="179.6" cy="320.5" r="8.2"/><circle class="d" cx="143.9" cy="267.8" r="8.2"/><circle class="d" cx="147.7" cy="346.8" r="8.2"/><circle class="d" cx="136.6" cy="281" r="8.2"/><circle class="d" cx="141" cy="215.2" r="8.2"/><circle class="d" cx="162" cy="294.1" r="8.2"/><circle class="d" cx="165.4" cy="294.1" r="8.2"/><circle class="d" cx="165" cy="360" r="8.2"/><circle class="d" cx="149.4" cy="162.5" r="8.2"/><circle class="d" cx="137.4" cy="175.7" r="8.2"/><circle class="d" cx="176.3" cy="215.2" r="8.2"/><circle class="d" cx="121.1" cy="254.7" r="8.2"/><circle class="d" cx="120.4" cy="175.7" r="8.2"/><circle class="d" cx="150.5" cy="254.7" r="8.2"/><circle class="d" cx="161.4" cy="215.2" r="8.2"/><circle class="d" cx="135.5" cy="254.7" r="8.2"/><circle class="d" cx="142" cy="320.5" r="8.2"/><circle class="d" cx="127.4" cy="254.7" r="8.2"/><circle class="d" cx="135.4" cy="294.1" r="8.2"/><circle class="d" cx="152.9" cy="267.8" r="8.2"/><circle class="d" cx="123.5" cy="267.8" r="8.2"/><circle class="d" cx="126" cy="241.5" r="8.2"/><circle class="d" cx="135.5" cy="241.5" r="8.2"/><circle class="d" cx="157.8" cy="307.3" r="8.2"/><circle class="d" cx="173" cy="294.1" r="8.2"/><circle class="d" cx="128" cy="215.2" r="8.2"/><circle class="d" cx="126.9" cy="241.5" r="8.2"/><circle class="d" cx="135.7" cy="202" r="8.2"/><circle class="d" cx="141" cy="281" r="8.2"/><circle class="d" cx="170.4" cy="267.8" r="8.2"/><circle class="d" cx="141.9" cy="202" r="8.2"/><circle class="d" cx="172.3" cy="281" r="8.2"/><circle class="d" cx="134.8" cy="346.8" r="8.2"/><circle class="d" cx="160.6" cy="254.7" r="8.2"/><circle class="d" cx="179.6" cy="267.8" r="8.2"/><circle class="d" cx="176.7" cy="333.6" r="8.2"/><circle class="d" cx="157.2" cy="346.8" r="8.2"/><circle class="d" cx="176.2" cy="267.8" r="8.2"/><circle class="d" cx="178.8" cy="254.7" r="8.2"/><circle class="d" cx="152.9" cy="294.1" r="8.2"/><circle class="d" cx="170.8" cy="254.7" r="8.2"/><circle class="d" cx="149.5" cy="320.5" r="8.2"/><circle class="d" cx="140.4" cy="228.3" r="8.2"/><circle class="d" cx="159.6" cy="267.8" r="8.2"/><circle class="d" cx="164" cy="112.3" r="8.2"/><circle class="d" cx="121.1" cy="360" r="8.2"/><circle class="d" cx="180.5" cy="370.3" r="8.2"/><circle class="d" cx="147.7" cy="370.3" r="8.2"/><circle class="d" cx="167.8" cy="233.3" r="8.2"/><circle class="d" cx="383.5" cy="67.9" r="8.2"/><circle class="d" cx="343.4" cy="146.8" r="8.2"/><circle class="d" cx="363.7" cy="81" r="8.2"/><circle class="d" cx="333.8" cy="265.3" r="8.2"/><circle class="d" cx="350.9" cy="133.7" r="8.2"/><circle class="d" cx="366.7" cy="239" r="8.2"/><circle class="d" cx="380.6" cy="160" r="8.2"/><circle class="d" cx="361.4" cy="344.3" r="8.2"/><circle class="d" cx="354.8" cy="120.5" r="8.2"/><circle class="d" cx="369.6" cy="304.8" r="8.2"/><circle class="d" cx="378" cy="331.1" r="8.2"/><circle class="d" cx="385.2" cy="212.7" r="8.2"/><circle class="d" cx="356.1" cy="199.5" r="8.2"/><circle class="d" cx="383.8" cy="186.3" r="8.2"/><circle class="d" cx="354.3" cy="252.1" r="8.2"/><circle class="d" cx="345.7" cy="107.4" r="8.2"/><circle class="d" cx="366.2" cy="252.1" r="8.2"/><circle class="d" cx="353.8" cy="225.8" r="8.2"/><circle class="d" cx="362.2" cy="173.2" r="8.2"/><circle class="d" cx="362.2" cy="252.1" r="8.2"/><circle class="d" cx="345.2" cy="212.7" r="8.2"/><circle class="d" cx="356.1" cy="186.3" r="8.2"/><circle class="d" cx="353.6" cy="160" r="8.2"/><circle class="d" cx="350.8" cy="186.3" r="8.2"/><circle class="d" cx="383.9" cy="146.8" r="8.2"/><circle class="d" cx="342.1" cy="120.5" r="8.2"/><circle class="d" cx="389.7" cy="94.2" r="8.2"/><circle class="d" cx="383.6" cy="107.4" r="8.2"/><circle class="d" cx="361" cy="199.5" r="8.2"/><circle class="d" cx="383.2" cy="239" r="8.2"/><circle class="d" cx="357.7" cy="265.3" r="8.2"/><circle class="d" cx="326.5" cy="265.3" r="8.2"/><circle class="d" cx="391.5" cy="225.8" r="8.2"/><circle class="d" cx="339" cy="199.5" r="8.2"/><circle class="d" cx="369.5" cy="278.5" r="8.2"/><circle class="d" cx="337.1" cy="199.5" r="8.2"/><circle class="d" cx="337.2" cy="107.4" r="8.2"/><circle class="d" cx="369.7" cy="160" r="8.2"/><circle class="d" cx="327.3" cy="252.1" r="8.2"/><circle class="d" cx="349.2" cy="265.3" r="8.2"/><circle class="d" cx="335.8" cy="265.3" r="8.2"/><circle class="d" cx="366.3" cy="186.3" r="8.2"/><circle class="d" cx="348.2" cy="225.8" r="8.2"/><circle class="d" cx="370.4" cy="331.1" r="8.2"/><circle class="d" cx="365.9" cy="252.1" r="8.2"/><circle class="d" cx="366.1" cy="239" r="8.2"/><circle class="d" cx="389.8" cy="239" r="8.2"/><circle class="d" cx="371.3" cy="173.2" r="8.2"/><circle class="d" cx="344.7" cy="317.9" r="8.2"/><circle class="d" cx="360.1" cy="239" r="8.2"/><circle class="d" cx="327.3" cy="357" r="8.2"/><circle class="d" cx="391.4" cy="367.4" r="8.2"/><circle class="d" cx="391.4" cy="293.3" r="8.2"/><circle class="d" cx="329" cy="296.1" r="8.2"/><circle class="d" cx="345.5" cy="288.3" r="8.2"/><circle class="d" cx="333.8" cy="59.6" r="8.2"/><circle class="d" cx="741.7" cy="344.3" r="8.2"/><circle class="d" cx="781.8" cy="265.3" r="8.2"/><circle class="d" cx="761.5" cy="331.1" r="8.2"/><circle class="d" cx="791.5" cy="146.9" r="8.2"/><circle class="d" cx="774.3" cy="278.5" r="8.2"/><circle class="d" cx="758.5" cy="173.2" r="8.2"/><circle class="d" cx="744.6" cy="252.2" r="8.2"/><circle class="d" cx="763.8" cy="67.9" r="8.2"/><circle class="d" cx="770.4" cy="291.7" r="8.2"/><circle class="d" cx="755.6" cy="107.4" r="8.2"/><circle class="d" cx="747.2" cy="81.1" r="8.2"/><circle class="d" cx="740" cy="199.5" r="8.2"/><circle class="d" cx="769.1" cy="212.7" r="8.2"/><circle class="d" cx="741.4" cy="225.8" r="8.2"/><circle class="d" cx="770.9" cy="160" r="8.2"/><circle class="d" cx="779.5" cy="304.8" r="8.2"/><circle class="d" cx="759" cy="160" r="8.2"/><circle class="d" cx="771.4" cy="186.4" r="8.2"/><circle class="d" cx="763" cy="239" r="8.2"/><circle class="d" cx="763" cy="160" r="8.2"/><circle class="d" cx="780" cy="199.5" r="8.2"/><circle class="d" cx="769.1" cy="225.8" r="8.2"/><circle class="d" cx="771.6" cy="252.2" r="8.2"/><circle class="d" cx="774.5" cy="225.8" r="8.2"/><circle class="d" cx="741.3" cy="265.3" r="8.2"/><circle class="d" cx="783.1" cy="291.7" r="8.2"/><circle class="d" cx="735.5" cy="318" r="8.2"/><circle class="d" cx="741.6" cy="304.8" r="8.2"/><circle class="d" cx="764.2" cy="212.7" r="8.2"/><circle class="d" cx="742" cy="173.2" r="8.2"/><circle class="d" cx="767.5" cy="146.9" r="8.2"/><circle class="d" cx="798.7" cy="146.9" r="8.2"/><circle class="d" cx="733.7" cy="186.4" r="8.2"/><circle class="d" cx="786.2" cy="212.7" r="8.2"/><circle class="d" cx="755.7" cy="133.7" r="8.2"/><circle class="d" cx="788.1" cy="212.7" r="8.2"/><circle class="d" cx="788" cy="304.8" r="8.2"/><circle class="d" cx="755.5" cy="252.2" r="8.2"/><circle class="d" cx="797.9" cy="160" r="8.2"/><circle class="d" cx="776.1" cy="146.9" r="8.2"/><circle class="d" cx="789.4" cy="146.9" r="8.2"/><circle class="d" cx="758.9" cy="225.8" r="8.2"/><circle class="d" cx="777" cy="186.4" r="8.2"/><circle class="d" cx="754.8" cy="81.1" r="8.2"/><circle class="d" cx="759.3" cy="160" r="8.2"/><circle class="d" cx="759.1" cy="173.2" r="8.2"/><circle class="d" cx="735.4" cy="173.2" r="8.2"/><circle class="d" cx="753.9" cy="239" r="8.2"/><circle class="d" cx="780.5" cy="94.2" r="8.2"/><circle class="d" cx="765.1" cy="173.2" r="8.2"/><circle class="d" cx="802.7" cy="55.9" r="8.2"/><circle class="d" cx="796.7" cy="239" r="8.2"/><circle class="d" cx="799.7" cy="190.8" r="8.2"/><circle class="d" cx="799.7" cy="278.5" r="8.2"/><circle class="d" cx="794.5" cy="370.6" r="8.2"/><circle class="d" cx="776.9" cy="286.7" r="8.2"/><circle class="d" cx="546.6" cy="163.4" r="8.2"/><circle class="d" cx="563.1" cy="97.6" r="8.2"/><circle class="d" cx="534.2" cy="268.7" r="8.2"/><circle class="d" cx="586.6" cy="163.4" r="8.2"/><circle class="d" cx="584.3" cy="189.7" r="8.2"/><circle class="d" cx="539.7" cy="334.5" r="8.2"/><circle class="d" cx="562.6" cy="18.2" r="8.2"/><circle class="d" cx="576.8" cy="295" r="8.2"/><circle class="d" cx="532.6" cy="216" r="8.2"/><circle class="d" cx="577.5" cy="281.9" r="8.2"/><circle class="d" cx="589.5" cy="189.7" r="8.2"/><circle class="d" cx="587.3" cy="176.6" r="8.2"/><circle class="d" cx="549.4" cy="229.2" r="8.2"/><circle class="d" cx="539.3" cy="84.4" r="8.2"/><circle class="d" cx="584.7" cy="97.6" r="8.2"/><circle class="d" cx="537.9" cy="176.6" r="8.2"/><circle class="d" cx="583.5" cy="189.7" r="8.2"/><circle class="d" cx="546.4" cy="347.7" r="8.2"/><circle class="d" cx="584" cy="347.7" r="8.2"/><circle class="d" cx="552.4" cy="123.9" r="8.2"/><circle class="d" cx="569.2" cy="242.4" r="8.2"/><circle class="d" cx="573.1" cy="71.3" r="8.2"/><circle class="d" cx="541" cy="347.7" r="8.2"/><circle class="d" cx="574.8" cy="163.4" r="8.2"/><circle class="d" cx="567.6" cy="216" r="8.2"/><circle class="d" cx="569.9" cy="281.9" r="8.2"/><circle class="d" cx="571.8" cy="150.2" r="8.2"/><circle class="d" cx="573.8" cy="137.1" r="8.2"/><circle class="d" cx="547.3" cy="176.6" r="8.2"/><circle class="d" cx="555.3" cy="281.9" r="8.2"/><circle class="d" cx="557.7" cy="308.2" r="8.2"/><circle class="d" cx="584.5" cy="373" r="8.2"/><circle class="d" cx="558.6" cy="176.6" r="8.2"/><circle class="d" cx="549.6" cy="163.4" r="8.2"/><circle class="d" cx="589.9" cy="137.1" r="8.2"/><circle class="d" cx="596.3" cy="347.7" r="8.2"/><circle class="d" cx="578.9" cy="163.4" r="8.2"/><circle class="d" cx="559" cy="176.6" r="8.2"/><circle class="d" cx="584.5" cy="123.9" r="8.2"/><circle class="d" cx="591.7" cy="242.4" r="8.2"/><circle class="d" cx="595.1" cy="216" r="8.2"/><circle class="d" cx="591.7" cy="242.4" r="8.2"/><circle class="d" cx="558.2" cy="97.6" r="8.2"/><circle class="d" cx="544.8" cy="229.2" r="8.2"/><circle class="d" cx="546.2" cy="216" r="8.2"/><circle class="d" cx="546.2" cy="216" r="8.2"/><circle class="d" cx="574.7" cy="163.4" r="8.2"/><circle class="d" cx="569.8" cy="189.7" r="8.2"/><circle class="d" cx="562.1" cy="150.2" r="8.2"/><circle class="d" cx="586.9" cy="110.7" r="8.2"/><circle class="d" cx="534.2" cy="303.2" r="8.2"/><circle class="d" cx="552.4" cy="255.5" r="8.2"/><circle class="d" cx="569.9" cy="253.9" r="8.2"/><circle class="d" cx="588" cy="319.7" r="8.2"/><circle class="d" cx="1217.6" cy="255.1" r="8.2"/><circle class="d" cx="1186.9" cy="281.4" r="8.2"/><circle class="d" cx="1205.2" cy="307.7" r="8.2"/><circle class="d" cx="1179.2" cy="320.9" r="8.2"/><circle class="d" cx="1180.5" cy="268.2" r="8.2"/><circle class="d" cx="1159.3" cy="215.6" r="8.2"/><circle class="d" cx="1219.2" cy="320.9" r="8.2"/><circle class="d" cx="1183.5" cy="268.2" r="8.2"/><circle class="d" cx="1187.3" cy="347.2" r="8.2"/><circle class="d" cx="1176.2" cy="281.4" r="8.2"/><circle class="d" cx="1180.5" cy="215.6" r="8.2"/><circle class="d" cx="1201.5" cy="294.5" r="8.2"/><circle class="d" cx="1204.9" cy="294.5" r="8.2"/><circle class="d" cx="1204.5" cy="360.4" r="8.2"/><circle class="d" cx="1188.9" cy="162.9" r="8.2"/><circle class="d" cx="1176.9" cy="176.1" r="8.2"/><circle class="d" cx="1215.8" cy="215.6" r="8.2"/><circle class="d" cx="1160.6" cy="255.1" r="8.2"/><circle class="d" cx="1159.9" cy="176.1" r="8.2"/><circle class="d" cx="1190.1" cy="255.1" r="8.2"/><circle class="d" cx="1183.2" cy="371.2" r="8.2"/><circle class="d" cx="1175.1" cy="255.1" r="8.2"/><circle class="d" cx="1181.5" cy="320.9" r="8.2"/><circle class="d" cx="1167" cy="255.1" r="8.2"/><circle class="d" cx="1175" cy="294.5" r="8.2"/><circle class="d" cx="1192.4" cy="268.2" r="8.2"/><circle class="d" cx="1163.1" cy="268.2" r="8.2"/><circle class="d" cx="1165.6" cy="241.9" r="8.2"/><circle class="d" cx="1175" cy="241.9" r="8.2"/><circle class="d" cx="1197.3" cy="307.7" r="8.2"/><circle class="d" cx="1212.6" cy="294.5" r="8.2"/><circle class="d" cx="1167.6" cy="215.6" r="8.2"/><circle class="d" cx="1166.5" cy="241.9" r="8.2"/><circle class="d" cx="1175.3" cy="202.4" r="8.2"/><circle class="d" cx="1180.6" cy="281.4" r="8.2"/><circle class="d" cx="1210" cy="268.2" r="8.2"/><circle class="d" cx="1181.4" cy="202.4" r="8.2"/><circle class="d" cx="1211.8" cy="281.4" r="8.2"/><circle class="d" cx="1174.3" cy="347.2" r="8.2"/><circle class="d" cx="1200.2" cy="255.1" r="8.2"/><circle class="d" cx="1219.2" cy="268.2" r="8.2"/><circle class="d" cx="1216.2" cy="334" r="8.2"/><circle class="d" cx="1196.8" cy="347.2" r="8.2"/><circle class="d" cx="1215.7" cy="268.2" r="8.2"/><circle class="d" cx="1218.4" cy="255.1" r="8.2"/><circle class="d" cx="1192.4" cy="294.5" r="8.2"/><circle class="d" cx="1210.3" cy="255.1" r="8.2"/><circle class="d" cx="1189" cy="320.9" r="8.2"/><circle class="d" cx="1179.9" cy="228.7" r="8.2"/><circle class="d" cx="1199.1" cy="268.2" r="8.2"/><circle class="d" cx="1200.6" cy="187.6" r="8.2"/><circle class="d" cx="1178.6" cy="125.6" r="8.2"/><circle class="d" cx="1212.7" cy="147" r="8.2"/><circle class="d" cx="1159.9" cy="307.7" r="8.2"/><circle class="d" cx="1204.3" cy="98.6" r="8.2"/><circle class="d" cx="1188.1" cy="47.7" r="8.2"/><circle class="d" cx="1212.5" cy="103.6" r="7.5"/><circle class="d" cx="580" cy="229.2" r="8.2"/><circle class="d" cx="532.6" cy="230.7" r="8.2"/><circle class="d" cx="534.2" cy="247.2" r="8.2"/><circle class="d" cx="559.3" cy="265.3" r="8.2"/><circle class="d" cx="554.6" cy="199.5" r="8.2"/><circle class="d" cx="565.6" cy="229.2" r="8.2"/><circle class="d" cx="547.3" cy="263.8" r="8.2"/></svg>