<svg enable-background="new 0 0 225 256" height="256" viewBox="0 0 225 256" width="225" xmlns="http://www.w3.org/2000/svg"><path d="m30.797 43.344h10.828v-9.844h-31.5v9.844h10.828v37.406h-18.703v126h18.703v37.406h-10.828v9.844h31.5v-9.844h-10.828v-37.406h18.703v-126h-18.703zm8.859 153.562h-27.562v-68.906h27.563v68.906zm0-106.312v26.25h-27.562v-26.25zm77.766 0h10.828v-9.844h-31.5v9.844h10.828v37.406h-18.703v78.75h18.703v37.406h-10.828v9.844h31.5v-9.844h-10.828v-37.406h18.703v-78.75h-18.703zm8.859 106.312h-27.562v-23.625h27.563v23.625zm0-59.062v23.625h-27.562v-23.625zm77.766-104.344v-21.656h10.828v-9.844h-31.5v9.844h10.828v21.656h-18.703v126h18.703v37.406h-10.828v9.844h31.5v-9.844h-10.828v-37.406h18.703v-126zm8.859 116.156h-27.563v-21.656h27.563zm-27.562-32.484v-73.828h27.563v73.828z"/></svg>