<?xml version="1.0" encoding="utf-8"?>
<!-- Generator: Adobe Illustrator 22.1.0, SVG Export Plug-In . SVG Version: 6.00 Build 0)  -->
<svg version="1.1" id="Layer_1" xmlns="http://www.w3.org/2000/svg" xmlns:xlink="http://www.w3.org/1999/xlink" x="0px" y="0px"
	 viewBox="0 0 1200 1230.2" style="enable-background:new 0 0 1200 1230.2;" xml:space="preserve">
<style type="text/css">
	.st0{fill:none;stroke:#E3E3E3;stroke-width:24;stroke-miterlimit:10;}
	.st1{fill:none;stroke:#BABABA;stroke-width:24;stroke-miterlimit:10;}
	.st2{fill:#514361;}
	.st3{font-family:'RobotoMono-Regular';}
	.st4{font-size:50px;}
	.st5{font-family:'Roboto-Italic';}
	.st6{font-size:35.3026px;}
	.st7{fill:none;stroke:#BABABA;stroke-width:8;stroke-miterlimit:10;}
	.st8{fill:#BABABA;}
	.st9{fill:#B2B2B2;}
	.st10{font-size:33px;}
	.st11{fill:none;stroke:#BABABA;stroke-width:4;stroke-miterlimit:10;}
	.st12{fill:none;stroke:#AFAFAF;stroke-width:4;stroke-linecap:round;stroke-miterlimit:10;}
	.st13{fill:none;stroke:#AFAFAF;stroke-width:4;stroke-linecap:round;stroke-miterlimit:10;stroke-dasharray:0,13.395;}
	.st14{fill:none;stroke:#AFAFAF;stroke-width:4;stroke-linecap:round;stroke-miterlimit:10;stroke-dasharray:0,12.1923;}
	.st15{fill:none;stroke:#AFAFAF;stroke-width:4;stroke-linecap:round;stroke-miterlimit:10;stroke-dasharray:0,12.6;}
</style>
<g>
	<polyline class="st0" points="906,643.2 906,513.2 999,513.2 999,960.2 1092,960.2 	"/>
	<polyline class="st1" points="813,383.2 813,774.2 906,774.2 906,643.2 	"/>
	<polyline class="st0" points="534,551.2 534,476.2 627,476.2 627,606.2 720,606.2 720,107.2 813,107.2 813,383.2 	"/>
	<polyline class="st1" points="441,551.2 441,681.2 534,681.2 534,551.2 	"/>
	<polyline class="st0" points="83,961.2 161,961.2 161,625.2 254,625.2 254,905.2 347,905.2 347,390.2 440,390.2 440,551.2 	"/>
	<g>
		<g>
			<text transform="matrix(1 0 0 1 775.9114 942.1174)" class="st2 st3 st4">waist</text>
		</g>
	</g>
	<g>
		<g>
			<text transform="matrix(1 0 0 1 469.0461 774.3908)" class="st2 st3 st4">yin line</text>
		</g>
	</g>
	<g>
		<g>
			<text transform="matrix(1 0 0 1 365.9094 145.0939)" class="st2 st3 st4">yang line</text>
		</g>
	</g>
	<g>
		<g>
			<text transform="matrix(1 0 0 1 110.9094 38.0939)" class="st2 st3 st4">Y axis</text>
		</g>
	</g>
	<g>
		<g>
			<text transform="matrix(1 0 0 1 110.9092 88.2487)" class="st2 st5 st6">showing price</text>
		</g>
	</g>
	<g>
		<g>
			<text transform="matrix(1 0 0 1 959.9094 1155.9805)" class="st2 st3 st4">X axis</text>
		</g>
	</g>
	<g>
		<g>
			<text transform="matrix(1 0 0 1 959.9092 1206.1354)" class="st2 st5 st6">showing time</text>
		</g>
	</g>
	<g>
		<g>
			<text transform="matrix(1 0 0 1 272.7278 299.1623)" class="st2 st3 st4">shoulder</text>
		</g>
	</g>
	<g>
		<g>
			<polyline class="st7" points="1166.3,1021.2 83,1021.2 83,125 			"/>
			<g>
				<polygon class="st8" points="1160.5,1001.3 1195,1021.2 1160.5,1041.2 				"/>
			</g>
			<g>
				<polygon class="st8" points="102.9,130.8 83,96.2 63.1,130.8 				"/>
			</g>
		</g>
	</g>
	<g>
		<text transform="matrix(1 0 0 1 21.3835 869.7248)" class="st9 st3 st10">10</text>
	</g>
	<g>
		<text transform="matrix(1 0 0 1 151.0608 1085.0216)" class="st9 st3 st10">1</text>
	</g>
	<g>
		<text transform="matrix(1 0 0 1 242.6897 1085.0216)" class="st9 st3 st10">2</text>
	</g>
	<g>
		<text transform="matrix(1 0 0 1 403.1829 1138.5997)" class="st9 st3 st10">aug</text>
	</g>
	<g>
		<text transform="matrix(1 0 0 1 766.2102 1139.9806)" class="st9 st3 st10">sept</text>
	</g>
	<g>
		<text transform="matrix(1 0 0 1 337.0374 1085.0216)" class="st9 st3 st10">3</text>
	</g>
	<g>
		<text transform="matrix(1 0 0 1 432.549 1085.0216)" class="st9 st3 st10">4</text>
	</g>
	<g>
		<text transform="matrix(1 0 0 1 523.4006 1085.0216)" class="st9 st3 st10">5</text>
	</g>
	<g>
		<text transform="matrix(1 0 0 1 618.9124 1085.0216)" class="st9 st3 st10">6</text>
	</g>
	<g>
		<text transform="matrix(1 0 0 1 709.7658 1085.0216)" class="st9 st3 st10">7</text>
	</g>
	<g>
		<text transform="matrix(1 0 0 1 805.2756 1085.0216)" class="st9 st3 st10">8</text>
	</g>
	<g>
		<text transform="matrix(1 0 0 1 896.1292 1085.0216)" class="st9 st3 st10">9</text>
	</g>
	<g>
		<text transform="matrix(1 0 0 1 981.739 1085.0216)" class="st9 st3 st10">10</text>
	</g>
	<line class="st11" x1="66" y1="659.2" x2="82" y2="659.2"/>
	<line class="st11" x1="66" y1="461.2" x2="82" y2="461.2"/>
	<line class="st11" x1="66" y1="262.2" x2="82" y2="262.2"/>
	<line class="st11" x1="66" y1="858.2" x2="82" y2="858.2"/>
	<line class="st11" x1="1000" y1="1036.2" x2="1000" y2="1023.2"/>
	<line class="st11" x1="906" y1="1036.2" x2="906" y2="1023.2"/>
	<line class="st11" x1="813" y1="1036.2" x2="813" y2="1023.2"/>
	<line class="st11" x1="720" y1="1036.2" x2="720" y2="1023.2"/>
	<line class="st11" x1="627" y1="1036.2" x2="627" y2="1023.2"/>
	<line class="st11" x1="534" y1="1036.2" x2="534" y2="1023.2"/>
	<line class="st11" x1="440" y1="1036.2" x2="440" y2="1023.2"/>
	<line class="st11" x1="347" y1="1036.2" x2="347" y2="1023.2"/>
	<line class="st11" x1="254" y1="1036.2" x2="254" y2="1023.2"/>
	<line class="st11" x1="161" y1="1036.2" x2="161" y2="1023.2"/>
	<g>
		<text transform="matrix(1 0 0 1 21.3835 670.8849)" class="st9 st3 st10">20</text>
	</g>
	<g>
		<text transform="matrix(1 0 0 1 21.3835 472.924)" class="st9 st3 st10">30</text>
	</g>
	<g>
		<text transform="matrix(1 0 0 1 21.3835 274.967)" class="st9 st3 st10">40</text>
	</g>
	<g>
		<g>
			<line class="st12" x1="393.1" y1="367.1" x2="393.1" y2="367.1"/>
			<line class="st13" x1="393.1" y1="353.7" x2="393.1" y2="320.2"/>
			<line class="st12" x1="393.1" y1="313.5" x2="393.1" y2="313.5"/>
		</g>
	</g>
	<g>
		<g>
			<line class="st12" x1="683" y1="175.2" x2="683" y2="175.2"/>
			<line class="st14" x1="670.8" y1="175.2" x2="372.1" y2="175.2"/>
			<line class="st12" x1="366" y1="175.2" x2="366" y2="175.2"/>
		</g>
	</g>
	<g>
		<g>
			<line class="st12" x1="855" y1="867.2" x2="855" y2="867.2"/>
			<line class="st15" x1="855" y1="854.6" x2="855" y2="810.5"/>
			<line class="st12" x1="855" y1="804.2" x2="855" y2="804.2"/>
		</g>
	</g>
	<g>
		<g>
			<line class="st12" x1="720" y1="756.2" x2="720" y2="756.2"/>
			<line class="st15" x1="732.6" y1="756.2" x2="776.7" y2="756.2"/>
			<line class="st12" x1="783" y1="756.2" x2="783" y2="756.2"/>
		</g>
	</g>
</g>
</svg>
