<?xml version="1.0" encoding="utf-8"?>
<!-- Generator: Adobe Illustrator 22.1.0, SVG Export Plug-In . SVG Version: 6.00 Build 0)  -->
<svg version="1.1" xmlns="http://www.w3.org/2000/svg" xmlns:xlink="http://www.w3.org/1999/xlink" x="0px" y="0px"
	 viewBox="0 0 1268 418" enable-background="new 0 0 1268 418" xml:space="preserve">
<g id="Layer_1">
	<polyline fill="none" stroke="#E6C097" stroke-width="4" stroke-miterlimit="10" points="1104.3,319.9 1104.3,334 1129.3,334 
		1129.3,172.4 1154.2,172.4 1154.2,268.4 1179.2,268.4 1179.2,216.4 1204,216.4 1204,308.7 1229.1,308.7 1229.1,233.4 	"/>
	<polyline fill="none" stroke="#E6C097" stroke-width="4" stroke-miterlimit="10" points="854.7,215.4 854.7,260.5 879.7,260.5 
		879.7,241.6 904.6,241.6 904.6,329.2 929.6,329.2 929.6,284.5 954.5,284.5 954.5,368.3 979.5,368.3 979.5,280.4 	"/>
	<polyline fill="none" stroke="#E6C097" stroke-width="4" stroke-miterlimit="10" points="754.9,184.4 754.9,274.2 779.8,274.2 
		779.8,238.9 	"/>
	<polyline fill="none" stroke="#E6C097" stroke-width="4" stroke-miterlimit="10" points="605.1,154.1 605.1,275.5 630.1,275.5 
		630.1,105.4 654.9,105.4 654.9,179.4 	"/>
	<polyline fill="none" stroke="#E6C097" stroke-width="4" stroke-miterlimit="10" points="455.4,129.2 455.4,171.4 480.3,171.4 
		480.3,145.9 505.3,145.9 505.3,207.2 	"/>
	<polyline fill="none" stroke="#E6C097" stroke-width="4" stroke-miterlimit="10" points="330.6,101.4 330.6,92.9 355.5,92.9 
		355.5,165.4 	"/>
	<polyline fill="none" stroke="#E6C097" stroke-width="4" stroke-miterlimit="10" points="255.7,178.4 255.7,238.9 280.7,238.9 
		280.7,26.9 305.5,26.9 305.5,199.2 330.6,199.2 330.6,101.4 	"/>
	<polyline fill="none" stroke="#E6C097" stroke-width="4" stroke-miterlimit="10" points="106,275.4 106,288.6 130.9,288.6 
		130.9,199.2 155.9,199.2 155.9,338.9 180.8,338.9 180.8,248.6 	"/>
	<g>
		<polyline fill="none" stroke="#9C96AD" stroke-width="4" stroke-miterlimit="10" points="1229.1,233.4 1229.1,192.4 1243.2,192.4 
					"/>
		<polyline fill="none" stroke="#9C96AD" stroke-width="4" stroke-miterlimit="10" points="1079.3,319.4 1079.3,304.9 1104.3,304.9 
			1104.3,319.9 		"/>
		<polyline fill="none" stroke="#9C96AD" stroke-width="4" stroke-miterlimit="10" points="979.5,280.4 979.5,179.4 1004.5,179.4 
			1004.5,328 1029.4,328 1029.4,248.7 1054.4,248.7 1054.4,348.3 1079.3,348.3 1079.3,319.4 		"/>
		<polyline fill="none" stroke="#9C96AD" stroke-width="4" stroke-miterlimit="10" points="779.8,238.9 779.8,213.9 804.8,213.9 
			804.8,331.6 829.8,331.6 829.8,158.4 854.7,158.4 854.7,215.4 		"/>
		<polyline fill="none" stroke="#9C96AD" stroke-width="4" stroke-miterlimit="10" points="654.9,179.4 654.9,215.9 679.5,215.9 
			679.5,119.4 705,119.4 705,171.1 729.9,171.1 729.9,34.9 754.9,34.9 754.9,184.4 		"/>
		<polyline fill="none" stroke="#9C96AD" stroke-width="4" stroke-miterlimit="10" points="580.2,165.5 580.2,144.7 605.1,144.7 
			605.1,154.1 		"/>
		<polyline fill="none" stroke="#9C96AD" stroke-width="4" stroke-miterlimit="10" points="505.3,207.2 505.3,244.8 530.3,244.8 
			530.3,42.9 555.2,42.9 555.2,195.4 580.2,195.4 580.2,165.5 		"/>
		<polyline fill="none" stroke="#9C96AD" stroke-width="4" stroke-miterlimit="10" points="405.5,38.4 405.5,112.3 429,112.3 
			429,66.4 455.4,66.4 455.4,129.2 		"/>
		<polyline fill="none" stroke="#9C96AD" stroke-width="4" stroke-miterlimit="10" points="355.5,165.4 355.5,262.4 380.5,262.4 
			380.5,9.4 405.5,9.4 405.5,38.4 		"/>
		<polyline fill="none" stroke="#9C96AD" stroke-width="4" stroke-miterlimit="10" points="180.8,248.6 180.8,155.4 205.8,155.4 
			205.8,184.6 230.8,184.6 230.8,102.9 255.7,102.9 255.7,178.4 		"/>
		<polyline fill="none" stroke="#9C96AD" stroke-width="4" stroke-miterlimit="10" points="56,338.9 81,338.9 81,260 106,260 
			106,275.4 		"/>
	</g>
	<polyline fill="none" stroke="#DDD9E0" stroke-width="4" stroke-miterlimit="10" points="1243.2,192.4 1254.3,192.4 1254.3,353.3 
		1266,353.3 	"/>
	<g>
		<g>
			<line fill="none" stroke="#C4C4C4" stroke-miterlimit="10" x1="164.3" y1="388.3" x2="164.3" y2="378.9"/>
			<line fill="none" stroke="#C4C4C4" stroke-miterlimit="10" x1="272.3" y1="388.3" x2="272.3" y2="378.9"/>
			<line fill="none" stroke="#C4C4C4" stroke-miterlimit="10" x1="488.2" y1="388.3" x2="488.2" y2="378.9"/>
			<line fill="none" stroke="#C4C4C4" stroke-miterlimit="10" x1="812.2" y1="388.3" x2="812.2" y2="378.9"/>
			<line fill="none" stroke="#C4C4C4" stroke-miterlimit="10" x1="1028.2" y1="388.3" x2="1028.2" y2="378.9"/>
			<line fill="none" stroke="#C4C4C4" stroke-miterlimit="10" x1="380.3" y1="388.3" x2="380.3" y2="378.9"/>
			<line fill="none" stroke="#C4C4C4" stroke-miterlimit="10" x1="596.2" y1="388.3" x2="596.2" y2="378.9"/>
			<line fill="none" stroke="#C4C4C4" stroke-miterlimit="10" x1="704.2" y1="388.3" x2="704.2" y2="378.9"/>
			<line fill="none" stroke="#C4C4C4" stroke-miterlimit="10" x1="920.2" y1="388.3" x2="920.2" y2="378.9"/>
			<line fill="none" stroke="#C4C4C4" stroke-miterlimit="10" x1="1136.2" y1="388.3" x2="1136.2" y2="378.9"/>
			<line fill="none" stroke="#C4C4C4" stroke-miterlimit="10" x1="1244.2" y1="388.3" x2="1244.2" y2="378.9"/>
		</g>
		<g>
			<polyline fill="none" stroke="#C4C4C4" stroke-miterlimit="10" points="56.3,2 56.3,379.1 1267.1,379.1 			"/>
			<g>
				<line fill="none" stroke="#C4C4C4" stroke-miterlimit="10" x1="46.7" y1="10" x2="56.7" y2="10"/>
				<line fill="none" stroke="#C4C4C4" stroke-miterlimit="10" x1="46.7" y1="305" x2="56.7" y2="305"/>
				<line fill="none" stroke="#C4C4C4" stroke-miterlimit="10" x1="46.7" y1="231" x2="56.7" y2="231"/>
				<line fill="none" stroke="#C4C4C4" stroke-miterlimit="10" x1="46.7" y1="158" x2="56.7" y2="158"/>
				<line fill="none" stroke="#C4C4C4" stroke-miterlimit="10" x1="46.7" y1="84" x2="56.7" y2="84"/>
			</g>
		</g>
	</g>
	<g>
		<g>
			<text transform="matrix(1 0 0 1 576.636 415.1143)" fill="#D1CDC9" font-family="'RobotoCondensed-Regular'" font-size="19px">2014</text>
		</g>
		<g>
			<text transform="matrix(1 0 0 1 791.7755 415.1143)" fill="#D1CDC9" font-family="'RobotoCondensed-Regular'" font-size="19px">2016</text>
		</g>
		<g>
			<text transform="matrix(1 0 0 1 1007.7755 415.1143)" fill="#D1CDC9" font-family="'RobotoCondensed-Regular'" font-size="19px">2018</text>
		</g>
		<g>
			<text transform="matrix(1 0 0 1 360.5677 415.1143)" fill="#D1CDC9" font-family="'RobotoCondensed-Regular'" font-size="19px">2012</text>
		</g>
		<g>
			<text transform="matrix(1 0 0 1 144.5674 415.1143)" fill="#D1CDC9" font-family="'RobotoCondensed-Regular'" font-size="19px">2010</text>
		</g>
		<g>
			<text transform="matrix(1 0 0 1 1223.2957 415.1143)" fill="#D1CDC9" font-family="'RobotoCondensed-Regular'" font-size="19px">2020</text>
		</g>
	</g>
	<g>
		<text transform="matrix(1 0 0 1 8.731 20.1992)" fill="#D1CDC9" font-family="'RobotoCondensed-Regular'" font-size="19px">100</text>
	</g>
	<text transform="matrix(1 0 0 1 18.1108 239.7769)" fill="#D1CDC9" font-family="'RobotoCondensed-Regular'" font-size="19px">40</text>
	<text transform="matrix(1 0 0 1 18.1108 167.7766)" fill="#D1CDC9" font-family="'RobotoCondensed-Regular'" font-size="19px">60</text>
	<text transform="matrix(1 0 0 1 18.1109 93.7766)" fill="#D1CDC9" font-family="'RobotoCondensed-Regular'" font-size="19px">80</text>
	<text transform="matrix(1 0 0 1 18.1108 312.1997)" fill="#D1CDC9" font-family="'RobotoCondensed-Regular'" font-size="19px">20</text>
</g>
<g id="Layer_2">
</g>
<g id="Layer_3">
</g>
</svg>
