<?xml version="1.0" encoding="utf-8"?>
<!-- Generator: Adobe Illustrator 22.1.0, SVG Export Plug-In . SVG Version: 6.00 Build 0)  -->
<svg version="1.1" xmlns="http://www.w3.org/2000/svg" xmlns:xlink="http://www.w3.org/1999/xlink" x="0px" y="0px"
	 viewBox="0 0 1268 418" enable-background="new 0 0 1268 418" xml:space="preserve">
<g id="Layer_1">
	<rect x="127.4" y="62.8" fill="#9C96AD" width="108" height="108"/>
	<rect x="630.7" y="62.8" fill="#A79FB4" width="108" height="108"/>
	<rect x="966.6" y="62.8" fill="#9C96AD" width="108" height="108"/>
	<rect x="798.5" y="247.7" fill="#9C96AD" width="108" height="108"/>
	<rect x="295.9" y="247.7" opacity="0.6" fill="#EABB98" width="108" height="108"/>
	<text transform="matrix(1 0 0 1 164.627 412)" fill="#D1CDC9" font-family="'RobotoCondensed-Regular'" font-size="18px">Mon</text>
	<text transform="matrix(1 0 0 1 339.9927 412)" fill="#D1CDC9" font-family="'RobotoCondensed-Regular'" font-size="18px">Tue</text>
	<text transform="matrix(1 0 0 1 501.3367 412)" fill="#D1CDC9" font-family="'RobotoCondensed-Regular'" font-size="18px">Wed</text>
	<text transform="matrix(1 0 0 1 674.1436 412)" fill="#D1CDC9" font-family="'RobotoCondensed-Regular'" font-size="18px">Thu</text>
	<text transform="matrix(1 0 0 1 852.2974 412)" fill="#D1CDC9" font-family="'RobotoCondensed-Regular'" font-size="18px">Fri</text>
	<text transform="matrix(1 0 0 1 1012.9672 412)" fill="#D1CDC9" font-family="'RobotoCondensed-Regular'" font-size="18px">Sat</text>
	<text transform="matrix(1 0 0 1 1177.5522 412)" fill="#D1CDC9" font-family="'RobotoCondensed-Regular'" font-size="18px">Sun</text>
	<line fill="none" stroke="#C4C4C4" stroke-miterlimit="10" x1="349.5" y1="388.8" x2="349.5" y2="379.4"/>
	<line fill="none" stroke="#C4C4C4" stroke-miterlimit="10" x1="852.5" y1="388.8" x2="852.5" y2="379.4"/>
	<line fill="none" stroke="#C4C4C4" stroke-miterlimit="10" x1="1020.4" y1="388.8" x2="1020.4" y2="379.4"/>
	<line fill="none" stroke="#C4C4C4" stroke-miterlimit="10" x1="517.7" y1="388.8" x2="517.7" y2="379.4"/>
	<line fill="none" stroke="#C4C4C4" stroke-miterlimit="10" x1="684.7" y1="388.8" x2="684.7" y2="379.4"/>
	<polyline fill="none" stroke="#C4C4C4" stroke-miterlimit="10" points="1187.9,388.8 1187.9,379.4 182,379.4 182,388.8 	"/>
	<circle fill="#9C96AD" cx="685.7" cy="301.7" r="55"/>
	<path fill="#FFFFFF" d="M327.2,306c0.2,12.1,10.1,21.8,22.2,21.8c12.1,0,22-9.7,22.2-21.8H327.2z"/>
	<circle fill="#9C96AD" cx="853.2" cy="116.8" r="55"/>
	<circle opacity="0.6" fill="#EABB98" cx="1188.3" cy="301.7" r="55"/>
	<circle fill="#9C96AD" cx="348.9" cy="116.8" r="55"/>
	<path fill="#FFFFFF" d="M336.6,108.2c0,5.5-4.5,10-10,10c-5.5,0-10-4.5-10-10H336.6z"/>
	<path fill="#FFFFFF" d="M380.7,108.2c0,5.5-4.5,10-10,10c-5.5,0-10-4.5-10-10H380.7z"/>
	<path fill="#FFFFFF" d="M672.6,98.2c0,5.5-4.5,10-10,10c-5.5,0-10-4.5-10-10H672.6z"/>
	<path fill="#FFFFFF" d="M716.8,98.2c0,5.5-4.5,10-10,10c-5.5,0-10-4.5-10-10H716.8z"/>
	<path fill="none" stroke="#FFFFFF" stroke-width="7" stroke-miterlimit="10" d="M1211.3,329.6c-3.8-8.8-12.6-15-22.8-15
		c-10.2,0-19,6.2-22.8,15"/>
	<path fill="none" stroke="#FFFFFF" stroke-width="7" stroke-miterlimit="10" d="M876.7,326c-4-9.3-13.2-15.8-24-15.8
		s-20,6.5-24,15.8"/>
	<polygon fill="#9C96AD" points="105,239.1 259,239.2 180.9,364.3 	"/>
	<circle fill="#9C96AD" cx="517.8" cy="301.7" r="55"/>
	<circle fill="#FFFFFF" cx="161.9" cy="101.3" r="8.7"/>
	<circle fill="#FFFFFF" cx="202.2" cy="101.3" r="8.7"/>
	<path fill="#FFFFFF" d="M159.5,292c0.2,12.1,10.1,21.8,22.2,21.8c12.1,0,22-9.7,22.2-21.8H159.5z"/>
	<polygon fill="#9C96AD" points="440.3,54.3 594.3,54.3 516.2,179.4 	"/>
	<polygon fill="#9C96AD" points="943.4,239.1 1097.4,239.2 1019.3,364.3 	"/>
	<polygon opacity="0.6" fill="#EABB98" points="1112,54.3 1266,54.3 1187.9,179.4 	"/>
	<path fill="#FFFFFF" d="M539.9,332.1c-0.2-12.1-10-21.9-22.2-21.9c-12.1,0-22,9.7-22.3,21.8L539.9,332.1z"/>
	<path fill="#FFFFFF" d="M539.9,125.1c-0.2-12.1-10-21.9-22.2-21.9c-12.1,0-22,9.7-22.3,21.8L539.9,125.1z"/>
	<path fill="#FFFFFF" d="M204,142.7c-0.2-12.1-10-21.9-22.2-21.9s-22,9.7-22.3,21.8L204,142.7z"/>
	<circle fill="#FFFFFF" cx="999.9" cy="101.3" r="8.7"/>
	<circle fill="#FFFFFF" cx="1040.2" cy="101.3" r="8.7"/>
	<circle fill="#FFFFFF" cx="329.4" cy="285.8" r="8.7"/>
	<circle fill="#FFFFFF" cx="369.7" cy="285.8" r="8.7"/>
	<circle fill="#FFFFFF" cx="832.4" cy="285.8" r="8.7"/>
	<circle fill="#FFFFFF" cx="872.7" cy="285.8" r="8.7"/>
	<line fill="none" stroke="#FFFFFF" stroke-width="7" stroke-miterlimit="10" x1="332.8" y1="137.1" x2="366" y2="137.1"/>
	<circle fill="#FFFFFF" cx="831.5" cy="108.9" r="8.7"/>
	<circle fill="#FFFFFF" cx="871.8" cy="108.9" r="8.7"/>
	<line fill="none" stroke="#FFFFFF" stroke-width="7" stroke-miterlimit="10" x1="1003.6" y1="131.9" x2="1037.8" y2="131.9"/>
	<line fill="none" stroke="#FFFFFF" stroke-width="7" stroke-miterlimit="10" x1="1002.6" y1="301.9" x2="1036.8" y2="301.9"/>
	<g>
		<text transform="matrix(1 0 0 1 45.6652 113.9365)" fill="#D1CDC9" font-family="'RobotoCondensed-Regular'" font-size="26px">Men</text>
	</g>
	<g>
		<text transform="matrix(1 0 0 1 12.8859 307.4233)" fill="#D1CDC9" font-family="'RobotoCondensed-Regular'" font-size="26px">Women</text>
	</g>
	<path fill="none" stroke="#FFFFFF" stroke-width="7" stroke-miterlimit="10" d="M827.9,129.6c4,9.3,13.2,15.8,24,15.8
		s20-6.5,24-15.8"/>
	<path fill="none" stroke="#FFFFFF" stroke-width="7" stroke-miterlimit="10" d="M660.4,123.4c4,9.3,13.2,15.8,24,15.8
		c10.7,0,20-6.5,24-15.8"/>
	<path fill="none" stroke="#FFFFFF" stroke-width="7" stroke-miterlimit="10" d="M1165.7,106.3c3.9,9,12.9,15.3,23.3,15.3
		c10.4,0,19.4-6.3,23.3-15.3"/>
	<path fill="#FFFFFF" d="M662.5,313.2c0.2,12.1,10,21.9,22.2,21.9c12.1,0,22-9.7,22.3-21.8L662.5,313.2z"/>
	<circle fill="#FFFFFF" cx="664.5" cy="293.9" r="8.7"/>
	<circle fill="#FFFFFF" cx="704.8" cy="293.9" r="8.7"/>
	<circle fill="#FFFFFF" cx="1167.5" cy="293.9" r="8.7"/>
	<circle fill="#FFFFFF" cx="1207.8" cy="293.9" r="8.7"/>
	<circle fill="#FFFFFF" cx="496.8" cy="83.4" r="8.7"/>
	<circle fill="#FFFFFF" cx="537.1" cy="83.4" r="8.7"/>
	<path fill="#FFFFFF" d="M1007.6,268.4c0,5.5-4.5,10-10,10c-5.5,0-10-4.5-10-10H1007.6z"/>
	<path fill="#FFFFFF" d="M1051.8,268.4c0,5.5-4.5,10-10,10c-5.5,0-10-4.5-10-10H1051.8z"/>
	<path fill="#FFFFFF" d="M528.9,295.1c0-5.5,4.5-10,10-10c5.5,0,10,4.5,10,10H528.9z"/>
	<path fill="#FFFFFF" d="M484.7,295.1c0-5.5,4.5-10,10-10c5.5,0,10,4.5,10,10H484.7z"/>
	<path fill="#FFFFFF" d="M194.1,271c0-5.5,4.5-10,10-10c5.5,0,10,4.5,10,10H194.1z"/>
	<path fill="#FFFFFF" d="M150,271c0-5.5,4.5-10,10-10c5.5,0,10,4.5,10,10H150z"/>
	<path fill="#FFFFFF" d="M1201.1,86.7c0-5.5,4.5-10,10-10c5.5,0,10,4.5,10,10H1201.1z"/>
	<path fill="#FFFFFF" d="M1157,86.7c0-5.5,4.5-10,10-10c5.5,0,10,4.5,10,10H1157z"/>
</g>
<g id="Layer_2">
</g>
<g id="Layer_3">
</g>
</svg>
