<?xml version="1.0" encoding="utf-8"?>
<!-- Generator: Adobe Illustrator 24.0.1, SVG Export Plug-In . SVG Version: 6.00 Build 0)  -->
<svg version="1.1"
	 id="ternary_plot_sample" xmlns:cc="http://creativecommons.org/ns#" xmlns:dc="http://purl.org/dc/elements/1.1/" xmlns:inkscape="http://www.inkscape.org/namespaces/inkscape" xmlns:rdf="http://www.w3.org/1999/02/22-rdf-syntax-ns#" xmlns:sodipodi="http://sodipodi.sourceforge.net/DTD/sodipodi-0.dtd" xmlns:svg="http://www.w3.org/2000/svg"
	 xmlns="http://www.w3.org/2000/svg" xmlns:xlink="http://www.w3.org/1999/xlink" x="0px" y="0px" viewBox="0 0 1268 418"
	 style="enable-background:new 0 0 1268 418;" xml:space="preserve">
<style type="text/css">
	.st0{fill:#D1D1D1;}
	.st1{fill:#D8D8D8;}
	.st2{fill:#AAAAAA;}
	.st3{font-family:'Roboto-Regular';}
	.st4{font-size:14px;}
	.st5{fill:none;}
	.st6{opacity:0.76;fill:#382460;}
	.st7{fill:none;stroke:#584F6D;stroke-miterlimit:10;}
</style>
<g id="horizontal">
	<path class="st0" d="M553.5,384.5H125.5c-0.2,0-0.4-0.2-0.4-0.4c0-0.2,0.2-0.4,0.4-0.4h427.9c0.2,0,0.4,0.2,0.4,0.4
		C553.8,384.3,553.7,384.5,553.5,384.5z"/>
	<path class="st0" d="M532.7,348.6H146.2c-0.2,0-0.4-0.2-0.4-0.4s0.2-0.4,0.4-0.4h386.4c0.2,0,0.4,0.2,0.4,0.4
		S532.9,348.6,532.7,348.6z"/>
	<path class="st0" d="M512,312.8H166.9c-0.2,0-0.4-0.2-0.4-0.4s0.2-0.4,0.4-0.4H512c0.2,0,0.4,0.2,0.4,0.4S512.3,312.8,512,312.8z"
		/>
	<path class="st0" d="M491.3,277H187.6c-0.2,0-0.4-0.2-0.4-0.4c0-0.2,0.2-0.4,0.4-0.4h303.7c0.2,0,0.4,0.2,0.4,0.4
		C491.7,276.8,491.5,277,491.3,277z"/>
	<path class="st0" d="M470.7,241.1H208.3c-0.2,0-0.4-0.2-0.4-0.4c0-0.2,0.2-0.4,0.4-0.4h262.4c0.2,0,0.4,0.2,0.4,0.4
		C471.1,241,470.9,241.1,470.7,241.1z"/>
	<path class="st0" d="M429.4,169.5H249.7c-0.2,0-0.4-0.2-0.4-0.4c0-0.2,0.2-0.4,0.4-0.4h179.7c0.2,0,0.4,0.2,0.4,0.4
		C429.8,169.3,429.6,169.5,429.4,169.5z"/>
	<path class="st0" d="M450.4,205.3H229c-0.2,0-0.4-0.2-0.4-0.4c0-0.2,0.2-0.4,0.4-0.4h221.4c0.2,0,0.4,0.2,0.4,0.4
		C450.8,205.1,450.6,205.3,450.4,205.3z"/>
	<path class="st0" d="M408.8,133.6H270.4c-0.2,0-0.4-0.2-0.4-0.4c0-0.2,0.2-0.4,0.4-0.4h138.4c0.2,0,0.4,0.2,0.4,0.4
		C409.2,133.5,409,133.6,408.8,133.6z"/>
	<path class="st0" d="M388,97.8h-97c-0.2,0-0.4-0.2-0.4-0.4s0.2-0.4,0.4-0.4h97c0.2,0,0.4,0.2,0.4,0.4S388.3,97.8,388,97.8z"/>
	<path class="st0" d="M367.8,61.9h-56c-0.2,0-0.4-0.2-0.4-0.4s0.2-0.4,0.4-0.4h56c0.2,0,0.4,0.2,0.4,0.4S368,61.9,367.8,61.9z"/>
	<path class="st0" d="M346.7,26.1h-14.2c-0.2,0-0.4-0.2-0.4-0.4s0.2-0.4,0.4-0.4h14.2c0.2,0,0.4,0.2,0.4,0.4S346.9,26.1,346.7,26.1z
		"/>
</g>
<g id="left_tilt">
	<path class="st0" d="M121.8,392.3c-0.1,0-0.1,0-0.2-0.1c-0.2-0.1-0.2-0.3-0.1-0.5L332.1,25.5c0.1-0.2,0.3-0.2,0.5-0.1
		c0.2,0.1,0.2,0.3,0.1,0.5L122.1,392.1C122.1,392.3,121.9,392.3,121.8,392.3z"/>
	<path class="st0" d="M163.2,392.2c-0.1,0-0.1,0-0.2-0.1c-0.2-0.1-0.2-0.3-0.1-0.5L352.8,61.4c0.1-0.2,0.3-0.2,0.5-0.1
		c0.2,0.1,0.2,0.3,0.1,0.5L163.6,392.1C163.5,392.2,163.4,392.2,163.2,392.2z"/>
	<path class="st0" d="M204.6,392.3c-0.1,0-0.1,0-0.2-0.1c-0.2-0.1-0.2-0.3-0.1-0.5L373.5,97.2c0.1-0.2,0.3-0.2,0.5-0.1
		c0.2,0.1,0.2,0.3,0.1,0.5L204.9,392.1C204.9,392.2,204.7,392.3,204.6,392.3z"/>
	<path class="st0" d="M246,392.3c-0.1,0-0.1,0-0.2-0.1c-0.2-0.1-0.2-0.3-0.1-0.5L394.2,133c0.1-0.2,0.3-0.2,0.5-0.1
		c0.2,0.1,0.2,0.3,0.1,0.5L246.3,392.1C246.3,392.2,246.1,392.3,246,392.3z"/>
	<path class="st0" d="M287.3,392.3c-0.1,0-0.1,0-0.2-0.1c-0.2-0.1-0.2-0.3-0.1-0.5l127.9-222.9c0.1-0.2,0.3-0.2,0.5-0.1
		c0.2,0.1,0.2,0.3,0.1,0.5L287.7,392.1C287.6,392.3,287.5,392.3,287.3,392.3z"/>
	<path class="st0" d="M370,392.4c-0.1,0-0.1,0-0.2-0.1c-0.2-0.1-0.2-0.3-0.1-0.5l86.6-151.3c0.1-0.2,0.3-0.2,0.5-0.1
		c0.2,0.1,0.2,0.3,0.1,0.5l-86.6,151.3C370.3,392.4,370.2,392.4,370,392.4z"/>
	<path class="st0" d="M328.5,392.6c-0.1,0-0.1,0-0.2-0.1c-0.2-0.1-0.2-0.3-0.1-0.5l107.4-187.3c0.1-0.2,0.3-0.2,0.5-0.1
		c0.2,0.1,0.2,0.3,0.1,0.5L328.9,392.4C328.8,392.6,328.7,392.6,328.5,392.6z"/>
	<path class="st0" d="M411.4,392.5c-0.1,0-0.1,0-0.2,0c-0.2-0.1-0.2-0.3-0.1-0.5L477,276.4c0.1-0.2,0.3-0.2,0.5-0.1
		c0.2,0.1,0.2,0.3,0.1,0.5l-65.9,115.5C411.6,392.4,411.5,392.5,411.4,392.5z"/>
	<path class="st0" d="M452.8,392.4c-0.1,0-0.1,0-0.2,0c-0.2-0.1-0.2-0.3-0.1-0.5l45.2-79.6c0.1-0.2,0.3-0.2,0.5-0.1
		c0.2,0.1,0.2,0.3,0.1,0.5l-45.2,79.6C453.1,392.4,452.9,392.4,452.8,392.4z"/>
	<path class="st0" d="M494,392.8c-0.1,0-0.1,0-0.2,0c-0.2-0.1-0.3-0.3-0.1-0.5l24.7-44.1c0.1-0.2,0.3-0.3,0.5-0.1
		c0.2,0.1,0.3,0.3,0.1,0.5l-24.7,44.1C494.3,392.7,494.1,392.8,494,392.8z"/>
	<path class="st0" d="M535.6,392.5c-0.1,0-0.1,0-0.2,0c-0.2-0.1-0.3-0.3-0.2-0.5l3.8-8c0.1-0.2,0.3-0.3,0.5-0.2
		c0.2,0.1,0.3,0.3,0.2,0.5l-3.8,8C535.8,392.4,535.7,392.5,535.6,392.5z"/>
</g>
<g id="right_tilt">
	<path class="st1" d="M539.4,384.5c-0.1,0-0.3-0.1-0.3-0.2l-214-370.6c-0.1-0.2,0-0.4,0.1-0.5c0.2-0.1,0.4,0,0.5,0.1l214,370.6
		c0.1,0.2,0,0.4-0.1,0.5C539.5,384.5,539.4,384.5,539.4,384.5z"/>
	<path class="st1" d="M498,384.5c-0.1,0-0.3-0.1-0.3-0.2L304.4,49.6c-0.1-0.2,0-0.4,0.1-0.5c0.2-0.1,0.4,0,0.5,0.1l193.2,334.7
		c0.1,0.2,0,0.4-0.1,0.5C498.1,384.5,498,384.5,498,384.5z"/>
	<path class="st1" d="M456.6,384.5c-0.1,0-0.3-0.1-0.3-0.2L283.7,85.4c-0.1-0.2,0-0.4,0.1-0.5c0.2-0.1,0.4,0,0.5,0.1l172.6,298.9
		c0.1,0.2,0,0.4-0.1,0.5C456.7,384.5,456.7,384.5,456.6,384.5z"/>
	<path class="st1" d="M415.2,384.5c-0.1,0-0.3-0.1-0.3-0.2L263,121.2c-0.1-0.2,0-0.4,0.1-0.5c0.2-0.1,0.4,0,0.5,0.1l151.8,263.1
		c0.1,0.2,0,0.4-0.1,0.5C415.3,384.5,415.3,384.5,415.2,384.5z"/>
	<path class="st1" d="M373.8,384.5c-0.1,0-0.3-0.1-0.3-0.2L242.3,157c-0.1-0.2,0-0.4,0.1-0.5c0.2-0.1,0.4,0,0.5,0.1l131.2,227.3
		c0.1,0.2,0,0.4-0.1,0.5C374,384.5,373.9,384.5,373.8,384.5z"/>
	<path class="st1" d="M291.1,384.5c-0.1,0-0.3-0.1-0.3-0.2l-89.9-155.7c-0.1-0.2,0-0.4,0.1-0.5c0.2-0.1,0.4,0,0.5,0.1l89.9,155.7
		c0.1,0.2,0,0.4-0.1,0.5C291.2,384.5,291.1,384.5,291.1,384.5z"/>
	<path class="st1" d="M332.5,384.5c-0.1,0-0.3-0.1-0.3-0.2L221.4,192.5c-0.1-0.2,0-0.4,0.1-0.5c0.2-0.1,0.4,0,0.5,0.1l110.7,191.8
		c0.1,0.2,0,0.4-0.1,0.5C332.6,384.5,332.5,384.5,332.5,384.5z"/>
	<path class="st1" d="M249.7,384.5c-0.1,0-0.3-0.1-0.3-0.2l-69.2-120c-0.1-0.2,0-0.4,0.1-0.5c0.2-0.1,0.4,0,0.5,0.1l69.2,120
		c0.1,0.2,0,0.4-0.1,0.5C249.8,384.5,249.8,384.5,249.7,384.5z"/>
	<path class="st1" d="M208.3,384.5c-0.1,0-0.3-0.1-0.3-0.2l-48.5-84c-0.1-0.2,0-0.4,0.1-0.5c0.2-0.1,0.4,0,0.5,0.1l48.5,84
		c0.1,0.2,0,0.4-0.1,0.5C208.4,384.5,208.4,384.5,208.3,384.5z"/>
	<path class="st1" d="M166.9,384.5c-0.1,0-0.3-0.1-0.3-0.2l-28-48.6c-0.1-0.2,0-0.4,0.1-0.5c0.2-0.1,0.4,0,0.5,0.1l28,48.6
		c0.1,0.2,0,0.4-0.1,0.5C167.1,384.5,167,384.5,166.9,384.5z"/>
	<path class="st1" d="M125.5,384.5c-0.1,0-0.3-0.1-0.3-0.2l-7.1-12.4c-0.1-0.2,0-0.4,0.1-0.5c0.2-0.1,0.4,0,0.5,0.1l7.1,12.4
		c0.1,0.2,0,0.4-0.1,0.5C125.7,384.5,125.6,384.5,125.5,384.5z"/>
</g>
<g id="scale_labels" transform="translate(-78.703833,-163.11694)" inkscape:groupmode="layer" inkscape:label="Labels">
	<text transform="matrix(1 0 0 1 418.4948 184.7011)" class="st2 st3 st4">100</text>
	<text transform="matrix(1 0 0 1 521.947 364.4071)" class="st2 st3 st4">50</text>
	<text transform="matrix(1 0 0 1 625.4016 543.0687)" class="st2 st3 st4">0</text>
	<text transform="matrix(0.5 0.866 -0.866 0.5 393.057 170.6693)" class="st2 st3 st4">0</text>
	<text transform="matrix(0.5 0.866 -0.866 0.5 284.6961 341.3607)" class="st2 st3 st4">50</text>
	<text transform="matrix(0.5 0.866 -0.866 0.5 176.3337 512.0427)" class="st2 st3 st4">100</text>
	<text transform="matrix(0.5 0.866 -0.866 0.5 160.0049 543.229)" class="st2 st3 st4">%</text>
	<text transform="matrix(0.5 -0.866 0.866 0.5 195.6693 576.9648)" class="st2 st3 st4">0</text>
	<text transform="matrix(0.5 -0.866 0.866 0.5 400.6653 579.4686)" class="st2 st3 st4">50</text>
	<text transform="matrix(0.5 -0.866 0.866 0.5 604.6924 581.4677)" class="st2 st3 st4">100</text>
	<path class="st5" d=""/>
	<path class="st5" d=""/>
	<path class="st5" d=""/>
</g>
<g id="horizontal_1_">
	<path class="st0" d="M1208.5,384.5H780.6c-0.2,0-0.4-0.2-0.4-0.4c0-0.2,0.2-0.4,0.4-0.4h427.9c0.2,0,0.4,0.2,0.4,0.4
		C1208.9,384.3,1208.7,384.5,1208.5,384.5z"/>
	<path class="st0" d="M1187.7,348.6H801.3c-0.2,0-0.4-0.2-0.4-0.4s0.2-0.4,0.4-0.4h386.4c0.2,0,0.4,0.2,0.4,0.4
		S1188,348.6,1187.7,348.6z"/>
	<path class="st0" d="M1167.1,312.8H822c-0.2,0-0.4-0.2-0.4-0.4s0.2-0.4,0.4-0.4h345.1c0.2,0,0.4,0.2,0.4,0.4
		S1167.3,312.8,1167.1,312.8z"/>
	<path class="st0" d="M1146.4,277H842.7c-0.2,0-0.4-0.2-0.4-0.4c0-0.2,0.2-0.4,0.4-0.4h303.7c0.2,0,0.4,0.2,0.4,0.4
		C1146.7,276.8,1146.6,277,1146.4,277z"/>
	<path class="st0" d="M1125.8,241.1H863.4c-0.2,0-0.4-0.2-0.4-0.4c0-0.2,0.2-0.4,0.4-0.4h262.4c0.2,0,0.4,0.2,0.4,0.4
		C1126.1,241,1126,241.1,1125.8,241.1z"/>
	<path class="st0" d="M1084.5,169.5H904.8c-0.2,0-0.4-0.2-0.4-0.4c0-0.2,0.2-0.4,0.4-0.4h179.7c0.2,0,0.4,0.2,0.4,0.4
		C1084.9,169.3,1084.7,169.5,1084.5,169.5z"/>
	<path class="st0" d="M1105.4,205.3H884.1c-0.2,0-0.4-0.2-0.4-0.4c0-0.2,0.2-0.4,0.4-0.4h221.4c0.2,0,0.4,0.2,0.4,0.4
		C1105.8,205.1,1105.6,205.3,1105.4,205.3z"/>
	<path class="st0" d="M1063.9,133.6H925.4c-0.2,0-0.4-0.2-0.4-0.4c0-0.2,0.2-0.4,0.4-0.4h138.4c0.2,0,0.4,0.2,0.4,0.4
		C1064.3,133.5,1064.1,133.6,1063.9,133.6z"/>
	<path class="st0" d="M1043.1,97.8h-97c-0.2,0-0.4-0.2-0.4-0.4s0.2-0.4,0.4-0.4h97c0.2,0,0.4,0.2,0.4,0.4S1043.3,97.8,1043.1,97.8z"
		/>
	<path class="st0" d="M1022.8,61.9h-56c-0.2,0-0.4-0.2-0.4-0.4s0.2-0.4,0.4-0.4h56c0.2,0,0.4,0.2,0.4,0.4S1023,61.9,1022.8,61.9z"/>
	<path class="st0" d="M1001.8,26.1h-14.2c-0.2,0-0.4-0.2-0.4-0.4s0.2-0.4,0.4-0.4h14.2c0.2,0,0.4,0.2,0.4,0.4S1002,26.1,1001.8,26.1
		z"/>
</g>
<g id="left_tilt_1_">
	<g id="path5874_4_">
		<path class="st0" d="M776.9,392.3c-0.1,0-0.1,0-0.2-0.1c-0.2-0.1-0.2-0.3-0.1-0.5L987.2,25.5c0.1-0.2,0.3-0.2,0.5-0.1
			c0.2,0.1,0.2,0.3,0.1,0.5L777.2,392.1C777.1,392.3,777,392.3,776.9,392.3z"/>
	</g>
	<g id="path5961_4_">
		<path class="st0" d="M818.3,392.2c-0.1,0-0.1,0-0.2-0.1c-0.2-0.1-0.2-0.3-0.1-0.5l189.9-330.3c0.1-0.2,0.3-0.2,0.5-0.1
			c0.2,0.1,0.2,0.3,0.1,0.5L818.6,392.1C818.6,392.2,818.4,392.2,818.3,392.2z"/>
	</g>
	<g id="path5963_4_">
		<path class="st0" d="M859.7,392.3c-0.1,0-0.1,0-0.2-0.1c-0.2-0.1-0.2-0.3-0.1-0.5l169.2-294.5c0.1-0.2,0.3-0.2,0.5-0.1
			c0.2,0.1,0.2,0.3,0.1,0.5L860,392.1C859.9,392.2,859.8,392.3,859.7,392.3z"/>
	</g>
	<g id="path5965_4_">
		<path class="st0" d="M901.1,392.3c-0.1,0-0.1,0-0.2-0.1c-0.2-0.1-0.2-0.3-0.1-0.5L1049.3,133c0.1-0.2,0.3-0.2,0.5-0.1
			c0.2,0.1,0.2,0.3,0.1,0.5L901.4,392.1C901.3,392.2,901.2,392.3,901.1,392.3z"/>
	</g>
	<g id="path5967_4_">
		<path class="st0" d="M942.4,392.3c-0.1,0-0.1,0-0.2-0.1c-0.2-0.1-0.2-0.3-0.1-0.5l127.9-222.9c0.1-0.2,0.3-0.2,0.5-0.1
			c0.2,0.1,0.2,0.3,0.1,0.5L942.7,392.1C942.7,392.3,942.5,392.3,942.4,392.3z"/>
	</g>
	<g id="path5969_4_">
		<path class="st0" d="M1025.1,392.4c-0.1,0-0.1,0-0.2-0.1c-0.2-0.1-0.2-0.3-0.1-0.5l86.6-151.3c0.1-0.2,0.3-0.2,0.5-0.1
			c0.2,0.1,0.2,0.3,0.1,0.5l-86.6,151.3C1025.4,392.4,1025.2,392.4,1025.1,392.4z"/>
	</g>
	<g id="path5971_4_">
		<path class="st0" d="M983.6,392.6c-0.1,0-0.1,0-0.2-0.1c-0.2-0.1-0.2-0.3-0.1-0.5l107.4-187.3c0.1-0.2,0.3-0.2,0.5-0.1
			c0.2,0.1,0.2,0.3,0.1,0.5L983.9,392.4C983.9,392.6,983.7,392.6,983.6,392.6z"/>
	</g>
	<g id="path5973_4_">
		<path class="st0" d="M1066.4,392.5c-0.1,0-0.1,0-0.2,0c-0.2-0.1-0.2-0.3-0.1-0.5l65.9-115.5c0.1-0.2,0.3-0.2,0.5-0.1
			c0.2,0.1,0.2,0.3,0.1,0.5l-65.9,115.5C1066.7,392.4,1066.6,392.5,1066.4,392.5z"/>
	</g>
	<g id="path5975_4_">
		<path class="st0" d="M1107.9,392.4c-0.1,0-0.1,0-0.2,0c-0.2-0.1-0.2-0.3-0.1-0.5l45.2-79.6c0.1-0.2,0.3-0.2,0.5-0.1
			c0.2,0.1,0.2,0.3,0.1,0.5l-45.2,79.6C1108.1,392.4,1108,392.4,1107.9,392.4z"/>
	</g>
	<g id="path5977_4_">
		<path class="st0" d="M1149,392.8c-0.1,0-0.1,0-0.2,0c-0.2-0.1-0.3-0.3-0.1-0.5l24.7-44.1c0.1-0.2,0.3-0.3,0.5-0.1
			c0.2,0.1,0.3,0.3,0.1,0.5l-24.7,44.1C1149.3,392.7,1149.2,392.8,1149,392.8z"/>
	</g>
	<g id="path5959_4_">
		<path class="st0" d="M1190.6,392.5c-0.1,0-0.1,0-0.2,0c-0.2-0.1-0.3-0.3-0.2-0.5l3.8-8c0.1-0.2,0.3-0.3,0.5-0.2
			c0.2,0.1,0.3,0.3,0.2,0.5l-3.8,8C1190.9,392.4,1190.8,392.5,1190.6,392.5z"/>
	</g>
</g>
<g id="right_tilt_1_">
	<path class="st1" d="M1194.4,384.5c-0.1,0-0.3-0.1-0.3-0.2l-214-370.6c-0.1-0.2,0-0.4,0.1-0.5c0.2-0.1,0.4,0,0.5,0.1l214,370.6
		c0.1,0.2,0,0.4-0.1,0.5C1194.6,384.5,1194.5,384.5,1194.4,384.5z"/>
	<path class="st1" d="M1153,384.5c-0.1,0-0.3-0.1-0.3-0.2L959.5,49.6c-0.1-0.2,0-0.4,0.1-0.5c0.2-0.1,0.4,0,0.5,0.1l193.2,334.7
		c0.1,0.2,0,0.4-0.1,0.5C1153.2,384.5,1153.1,384.5,1153,384.5z"/>
	<path class="st1" d="M1111.7,384.5c-0.1,0-0.3-0.1-0.3-0.2L938.8,85.4c-0.1-0.2,0-0.4,0.1-0.5c0.2-0.1,0.4,0,0.5,0.1L1112,383.9
		c0.1,0.2,0,0.4-0.1,0.5C1111.8,384.5,1111.7,384.5,1111.7,384.5z"/>
	<path class="st1" d="M1070.3,384.5c-0.1,0-0.3-0.1-0.3-0.2L918.1,121.2c-0.1-0.2,0-0.4,0.1-0.5c0.2-0.1,0.4,0,0.5,0.1l151.8,263.1
		c0.1,0.2,0,0.4-0.1,0.5C1070.4,384.5,1070.3,384.5,1070.3,384.5z"/>
	<path class="st1" d="M1028.9,384.5c-0.1,0-0.3-0.1-0.3-0.2L897.4,157c-0.1-0.2,0-0.4,0.1-0.5c0.2-0.1,0.4,0,0.5,0.1l131.2,227.3
		c0.1,0.2,0,0.4-0.1,0.5C1029,384.5,1029,384.5,1028.9,384.5z"/>
	<path class="st1" d="M946.1,384.5c-0.1,0-0.3-0.1-0.3-0.2l-89.9-155.7c-0.1-0.2,0-0.4,0.1-0.5c0.2-0.1,0.4,0,0.5,0.1l89.9,155.7
		c0.1,0.2,0,0.4-0.1,0.5C946.3,384.5,946.2,384.5,946.1,384.5z"/>
	<path class="st1" d="M987.5,384.5c-0.1,0-0.3-0.1-0.3-0.2L876.5,192.5c-0.1-0.2,0-0.4,0.1-0.5c0.2-0.1,0.4,0,0.5,0.1l110.7,191.8
		c0.1,0.2,0,0.4-0.1,0.5C987.6,384.5,987.6,384.5,987.5,384.5z"/>
	<path class="st1" d="M904.8,384.5c-0.1,0-0.3-0.1-0.3-0.2l-69.2-120c-0.1-0.2,0-0.4,0.1-0.5c0.2-0.1,0.4,0,0.5,0.1l69.2,120
		c0.1,0.2,0,0.4-0.1,0.5C904.9,384.5,904.8,384.5,904.8,384.5z"/>
	<path class="st1" d="M863.4,384.5c-0.1,0-0.3-0.1-0.3-0.2l-48.5-84c-0.1-0.2,0-0.4,0.1-0.5c0.2-0.1,0.4,0,0.5,0.1l48.5,84
		c0.1,0.2,0,0.4-0.1,0.5C863.5,384.5,863.4,384.5,863.4,384.5z"/>
	<path class="st1" d="M822,384.5c-0.1,0-0.3-0.1-0.3-0.2l-28-48.6c-0.1-0.2,0-0.4,0.1-0.5c0.2-0.1,0.4,0,0.5,0.1l28,48.6
		c0.1,0.2,0,0.4-0.1,0.5C822.1,384.5,822.1,384.5,822,384.5z"/>
	<path class="st1" d="M780.6,384.5c-0.1,0-0.3-0.1-0.3-0.2l-7.1-12.4c-0.1-0.2,0-0.4,0.1-0.5c0.2-0.1,0.4,0,0.5,0.1l7.1,12.4
		c0.1,0.2,0,0.4-0.1,0.5C780.7,384.5,780.7,384.5,780.6,384.5z"/>
</g>
<g id="scale_marks_left_tilt" transform="translate(0.63738379,-0.67622858)">
	<text transform="matrix(1 0 0 1 994.2151 22.2604)" class="st2 st3 st4">100</text>
	<text transform="matrix(1 0 0 1 1097.6674 201.9664)" class="st2 st3 st4">50</text>
	<text transform="matrix(1 0 0 1 1201.1224 380.628)" class="st2 st3 st4">0</text>
</g>
<g id="scale_marks_right_tilt" transform="rotate(60,130.36861,154.42683)">
	<text transform="matrix(1 0 0 1 422.6944 -645.6456)" class="st2 st3 st4">0</text>
	<text transform="matrix(1 0 0 1 516.337 -466.4566)" class="st2 st3 st4">50</text>
	<text transform="matrix(1 0 0 1 609.9708 -287.2709)" class="st2 st3 st4">100</text>
	<text transform="matrix(1 0 0 1 628.8145 -257.5366)" class="st2 st3 st4">%</text>
</g>
<g id="scale_marks-_horizontal" transform="rotate(-60,168.50724,246.26774)">
	<text transform="matrix(1 0 0 1 527.7886 1209.1755)" class="st2 st3 st4">100</text>
	<text transform="matrix(1 0 0 1 424.1024 1031.139)" class="st2 st3 st4">50</text>
	<text transform="matrix(1 0 0 1 325.2727 854.9534)" class="st2 st3 st4">0</text>
</g>
<g id="scatter_plot_marks_1_">
	<circle class="st6" cx="1087.7" cy="316.1" r="3.6"/>
	<circle class="st6" cx="1072" cy="258.9" r="7.7"/>
	<circle class="st6" cx="1107.8" cy="265.7" r="6.6"/>
	<circle class="st6" cx="1089.4" cy="265.7" r="8.9"/>
	<circle class="st6" cx="1107.8" cy="292.3" r="13.4"/>
	<circle class="st6" cx="1074.1" cy="276.9" r="2.6"/>
	<circle class="st6" cx="1081.2" cy="251.3" r="3.6"/>
	<circle class="st6" cx="972.4" cy="319.7" r="7.7"/>
	<circle class="st6" cx="1012.2" cy="312.4" r="11"/>
	<circle class="st6" cx="904.4" cy="348.3" r="3.6"/>
	<circle class="st6" cx="883.7" cy="373" r="2.6"/>
	<circle class="st6" cx="925.1" cy="363.5" r="2.6"/>
	<circle class="st6" cx="863.8" cy="344.6" r="3.6"/>
	<circle class="st6" cx="839.1" cy="373" r="3.6"/>
	<circle class="st6" cx="887.3" cy="325.2" r="10"/>
	<circle class="st6" cx="972.4" cy="255" r="13.4"/>
	<circle class="st6" cx="987.9" cy="120.7" r="3.6"/>
	<circle class="st6" cx="1002.1" cy="156.4" r="3.6"/>
	<circle class="st6" cx="1029.3" cy="145.5" r="7.3"/>
	<circle class="st6" cx="1023.2" cy="213.8" r="13.3"/>
	<circle class="st6" cx="1012.2" cy="175.8" r="20.7"/>
	<circle class="st6" cx="991.5" cy="269.3" r="6.7"/>
	<circle class="st6" cx="925.1" cy="306.2" r="9"/>
	<circle class="st6" cx="1032.9" cy="285" r="15"/>
</g>
<g id="scatter_plot_marks">
	<circle class="st6" cx="432.7" cy="316.1" r="3.6"/>
	<circle class="st6" cx="417" cy="258.9" r="3.6"/>
	<circle class="st6" cx="452.8" cy="265.7" r="3.6"/>
	<circle class="st6" cx="434.4" cy="265.7" r="3.6"/>
	<circle class="st6" cx="452.8" cy="292.3" r="3.6"/>
	<circle class="st6" cx="419" cy="276.9" r="3.6"/>
	<circle class="st6" cx="426.2" cy="251.3" r="3.6"/>
	<circle class="st6" cx="317.3" cy="319.7" r="3.6"/>
	<circle class="st6" cx="357.2" cy="312.4" r="3.6"/>
	<circle class="st6" cx="249.3" cy="348.3" r="3.6"/>
	<circle class="st6" cx="182.1" cy="361" r="3.6"/>
	<circle class="st6" cx="205.6" cy="341.6" r="3.6"/>
	<circle class="st6" cx="317.3" cy="255" r="3.6"/>
	<circle class="st6" cx="374.4" cy="120.7" r="3.6"/>
	<circle class="st6" cx="347.1" cy="156.4" r="3.6"/>
	<circle class="st6" cx="336.5" cy="269.3" r="3.6"/>
	<circle class="st6" cx="270" cy="306.2" r="3.6"/>
	<circle class="st6" cx="377.9" cy="285" r="3.6"/>
	<circle class="st6" cx="430.8" cy="276.6" r="3.6"/>
	<circle class="st6" cx="403.7" cy="224" r="3.6"/>
	<circle class="st6" cx="440.1" cy="223.2" r="3.6"/>
	<circle class="st6" cx="422.1" cy="227" r="3.6"/>
	<circle class="st6" cx="445.6" cy="249.2" r="3.6"/>
	<circle class="st6" cx="409.4" cy="241.2" r="3.6"/>
	<circle class="st6" cx="411.1" cy="214.7" r="3.6"/>
	<circle class="st6" cx="318.7" cy="304" r="3.6"/>
	<circle class="st6" cx="356.2" cy="288.7" r="3.6"/>
	<circle class="st6" cx="258.1" cy="346" r="3.6"/>
	<circle class="st6" cx="217.6" cy="350.8" r="3.6"/>
	<circle class="st6" cx="236.6" cy="327" r="3.6"/>
	<circle class="st6" cx="305.4" cy="240.7" r="3.6"/>
	<circle class="st6" cx="292.8" cy="124.3" r="3.6"/>
	<circle class="st6" cx="336.5" cy="211" r="3.6"/>
	<circle class="st6" cx="327.1" cy="250.8" r="3.6"/>
	<circle class="st6" cx="243" cy="317" r="3.6"/>
	<circle class="st6" cx="370.8" cy="257.6" r="3.6"/>
</g>
<polygon class="st7" points="332.8,26.1 125.9,384.4 539.7,384.4 "/>
<polygon class="st7" points="987.1,26.1 780.2,384.4 1194,384.4 "/>
</svg>
