<?xml version="1.0" encoding="utf-8"?>
<!-- Generator: Adobe Illustrator 19.2.0, SVG Export Plug-In . SVG Version: 6.00 Build 0)  -->
<svg version="1.1" id="Layer_1" xmlns="http://www.w3.org/2000/svg" xmlns:xlink="http://www.w3.org/1999/xlink" x="0px" y="0px"
	 width="1200px" height="911px" viewBox="0 0 1200 911" enable-background="new 0 0 1200 911" xml:space="preserve">
<g>
	<g>
		<g>
			
				<line fill="none" stroke="#464A90" stroke-width="28.0312" stroke-miterlimit="10" x1="749.5" y1="380.508" x2="763.516" y2="380.508"/>
			
				<line fill="none" stroke="#464A90" stroke-width="28.0312" stroke-miterlimit="10" stroke-dasharray="26.3824,30.7794" x1="794.295" y1="380.508" x2="1121.876" y2="380.508"/>
			
				<line fill="none" stroke="#464A90" stroke-width="28.0312" stroke-miterlimit="10" x1="1137.266" y1="380.508" x2="1151.281" y2="380.508"/>
		</g>
	</g>
	<line fill="none" stroke="#464A90" stroke-width="28.0312" stroke-miterlimit="10" x1="58" y1="380.192" x2="787" y2="380.192"/>
	<circle fill="#464A90" cx="425.583" cy="380.508" r="56.062"/>
	<circle fill="#464A90" cx="76.75" cy="380.508" r="56.062"/>
	<circle fill="#464A90" cx="1123.25" cy="380.508" r="56.062"/>
	<circle fill="#464A90" cx="774.417" cy="380.508" r="56.062"/>
	<rect x="2" y="492.192" fill="#AFAFAF" width="150" height="56"/>
	<rect x="351" y="492.192" fill="#AFAFAF" width="150" height="56"/>
	<rect x="700" y="492.192" fill="#AFAFAF" width="149" height="56"/>
	<rect x="1048" y="492.192" fill="#AFAFAF" width="150" height="56"/>
	<g>
		<text transform="matrix(1 0 0 1 69.3534 58.1485)" fill="#7F7F7F" font-family="'Roboto-Regular'" font-size="65px">timestamp</text>
	</g>
	<g>
		<text transform="matrix(1 0 0 1 711.7362 812.6563)"><tspan x="0" y="0" fill="#7F7F7F" font-family="'Roboto-Regular'" font-size="65px">change in rate</tspan><tspan x="0" y="78" fill="#7F7F7F" font-family="'Roboto-Regular'" font-size="65px">of time passage</tspan></text>
	</g>
	<g>
		<text transform="matrix(1 0 0 1 359.7894 891.2755)" fill="#7F7F7F" font-family="'Roboto-Regular'" font-size="65px">label</text>
	</g>
	<g>
		<text transform="matrix(1 0 0 1 522.6215 693.5235)" fill="#7F7F7F" font-family="'Roboto-Regular'" font-size="65px">scale</text>
	</g>
	<g>
		<text transform="matrix(1 0 0 1 22.6185 273.1458)" fill="#37246D" font-family="'Roboto-Medium'" font-size="46.7188px">1884</text>
	</g>
	<g>
		<text transform="matrix(1 0 0 1 371.663 273.1458)" fill="#37246D" font-family="'Roboto-Medium'" font-size="46.7188px">1984</text>
	</g>
	<g>
		<text transform="matrix(1 0 0 1 714.6385 273.1458)" fill="#37246D" font-family="'Roboto-Medium'" font-size="46.7188px">2084</text>
	</g>
	<g>
		<text transform="matrix(1 0 0 1 1063.5878 273.1458)" fill="#37246D" font-family="'Roboto-Medium'" font-size="46.7188px">3084</text>
	</g>
	<polyline fill="none" stroke="#AFAFAF" stroke-width="8" stroke-miterlimit="10" points="77,212 77,91 382,91 	"/>
	<line fill="none" stroke="#AFAFAF" stroke-width="8" stroke-miterlimit="10" x1="950" y1="733" x2="950" y2="438"/>
	<line fill="none" stroke="#AFAFAF" stroke-width="8" stroke-miterlimit="10" x1="600" y1="630" x2="600" y2="438"/>
	<line fill="none" stroke="#AFAFAF" stroke-width="8" stroke-miterlimit="10" x1="426" y1="815" x2="426" y2="628"/>
</g>
</svg>
