<svg enable-background="new 0 0 1268 418" viewBox="0 0 1268 418" xmlns="http://www.w3.org/2000/svg"><path d="m1257.7 158.1h-1249" fill="#aea5bf" stroke="#6c5b82" stroke-miterlimit="10" stroke-width="6"/><text fill="#b2aeb7" font-family="'RobotoCondensed-Regular'" font-size="20.6154" transform="translate(59.1601 195.8528)">1910</text><ellipse cx="79.5" cy="159.2" fill="#6c5b82" rx="12.9" ry="12.9" stroke="#fff" stroke-miterlimit="9.9995" stroke-width="4.4998"/><path d="m9.7 265.6h139.7v17.7h-139.7zm0-46.4h139.7v27h-139.7zm0 76h57.3v17.7h-57.3zm69.8 0h69.8v17.7h-69.8zm-69.8 29.7h104.8v17.7h-104.8zm0 29.6h139.7v17.7h-139.7zm118.1-29.6h21.5v17.7h-21.5z" fill="#eeedef"/><path d="m80.4 58.9c4.9 0 8.9 4 8.9 8.8s-4 8.8-8.9 8.8-8.9-4-8.9-8.8 4-8.8 8.9-8.8zm-6.7 61.4-8.3-8.6c-1.8-1.8-2.3-5.2-.4-7.1l6-5.9 7 7-5.2 5.2 5.3 5.3c3.1 2.8-1.1 7.3-4.4 4.1zm21.5-8.7-8.3 8.6c-3.2 3.2-7.5-1.2-4.4-4.3l5.3-5.3-5.2-5.2 7-7s5.9 5.9 6 5.9c1.9 2.1 1.4 5.4-.4 7.3zm1.8-16-7.3-7.3v6.7h-9.3-9.4v-6.7l-7.1 7.2c-3.2 3.2-7.6-.9-4.4-4.2l11.8-11.8c1-.9 2-1.6 3.7-1.6h5.4 5.3c1.7 0 2.8.6 3.8 1.6l11.9 11.9c3 3.1-1.5 7.2-4.4 4.2zm-16.6-19c4.9 0 8.9-4 8.9-8.8 0-4.9-4-8.8-8.9-8.8s-8.9 4-8.9 8.8 4 8.8 8.9 8.8zm0 0c4.9 0 8.9-4 8.9-8.8 0-4.9-4-8.8-8.9-8.8s-8.9 4-8.9 8.8 4 8.8 8.9 8.8zm9 2.9c-1-.9-2.1-1.6-3.8-1.6h-5.2-5.4c-1.7 0-2.7.6-3.7 1.6l-11.8 11.8c-3.2 3.2 1.1 7.3 4.4 4.2l7.1-7.2v6.7h9.3 9.3v-6.8l7.4 7.3c3 3.1 7.4-1 4.4-4.2zm0 0c-1-.9-2.1-1.6-3.8-1.6h-5.2-5.4c-1.7 0-2.7.6-3.7 1.6l-11.8 11.8c-3.2 3.2 1.1 7.3 4.4 4.2l7.1-7.2v6.7h9.3 9.3v-6.8l7.4 7.3c3 3.1 7.4-1 4.4-4.2zm.2 19-7 7 5.2 5.2-5.3 5.3c-3.1 3.1 1.2 7.5 4.4 4.3l8.3-8.6c1.8-1.8 2.3-5.2.4-7.1 0-.1-6-6.1-6-6.1zm0 0-7 7 5.2 5.2-5.3 5.3c-3.1 3.1 1.2 7.5 4.4 4.3l8.3-8.6c1.8-1.8 2.3-5.2.4-7.1 0-.1-6-6.1-6-6.1zm-16.7 12.1 5.2-5.2-7-7-6 6c-1.9 1.9-1.4 5.3.4 7.1l8.3 8.6c3.2 3.2 7.5-1.2 4.4-4.3zm0 0 5.2-5.2-7-7-6 6c-1.9 1.9-1.4 5.3.4 7.1l8.3 8.6c3.2 3.2 7.5-1.2 4.4-4.3z" fill="#6c5b82"/><text fill="#b2aeb7" font-family="'RobotoCondensed-Regular'" font-size="20.6154" transform="translate(503.0251 195.8528)">2008</text><ellipse cx="523.4" cy="159.2" fill="#6c5b82" rx="12.9" ry="12.9" stroke="#fff" stroke-miterlimit="10" stroke-width="4.5" transform="matrix(.1602 -.9871 .9871 .1602 282.4164 650.3406)"/><path d="m453.5 265.6h139.7v17.7h-139.7zm0 29.6h139.7v17.7h-139.7zm0 29.7h64.8v17.7h-64.8zm78.4 0h61.3v17.7h-61.3zm-78.4 29.6h139.7v17.7h-139.7zm0-135.3h139.7v27h-139.7z" fill="#eeedef"/><path d="m521.5 59h22.8c0 .4.1.8.1 1.3 0 6.3-5.1 11.5-11.5 11.5-6.3 0-11.5-5.1-11.5-11.5.1-.5.1-.9.1-1.3zm23-6 11.4-5.3-23.1-9.7-23.1 9.7 3.5 1.6v8.1c-.8.4-1.4 1.2-1.4 2.2v4.9h4.8v-4.9c0-1-.6-1.8-1.4-2.2v-7.2l6.3 3v2.8h23zm16 35.2v33.6h-9.6v-30.8c0-.9-.6-1.4-1.4-1.4-.9 0-1.4.6-1.4 1.4v30.8h-32.3v-32.2h-7.5c0 10.1-.1 18.3-.1 18.5 0 1.9-.8 3.6-2.1 4.9-1.3 1.2-3 1.9-4.8 1.9-.1 0-29.5 0-29.5 0-1.9 0-3.7-.8-5-2.2s-2-3.2-1.9-5.1c.2-3.7 3.3-6.7 7.1-6.7h3.4c-.1-13.5 0-39 0-39h11.6v-.8c0-2.7 2.2-4.8 4.8-4.8s4.8 2.2 4.8 4.8v.8h11.6s.1 8.5.1 12.4h14.1l8.1 12.7 1-9.5-1.3-3.2h6l-1.3 3.2 1 9.4 8.1-12.6h2.8c7.5.1 13.7 6.3 13.7 13.9zm-64.9 23.6c-.7-1-1.2-2.3-1.3-3.6-.1-1.6.4-3.1 1.2-4.3h-23.5c-2.2 0-4 1.7-4.1 3.8 0 1.1.3 2.1 1.1 2.9s1.8 1.2 2.9 1.2zm9.7-46.9h-26.9c-.1 12.9-.1 23 0 36h22.4v3c-.9.1-1.7.5-2.3 1.2-.8.8-1.1 1.8-1.1 2.9.1 2 1.8 3.7 3.8 3.8 1.1.1 2.2-.3 2.9-1.1.8-.7 1.2-1.7 1.2-2.8 0-1.5.1-27.4 0-43z" fill="#6c5b82"/><text fill="#b2aeb7" font-family="'RobotoCondensed-Regular'" font-size="20.6154" transform="translate(281.0925 195.8528)">2006</text><circle cx="301.4" cy="159.2" fill="#6c5b82" r="12.9" stroke="#fff" stroke-miterlimit="10" stroke-width="4.5"/><path d="m231.6 265.6h139.7v17.7h-139.7zm0 29.6h139.7v17.7h-139.7zm0 29.7h64.8v17.7h-64.8zm78.4 0h61.3v17.7h-61.3zm-78.4 29.6h139.7v17.7h-139.7zm0-135.3h139.7v27h-139.7z" fill="#eeedef"/><path d="m302.2 38c5.7 0 10.4 4.7 10.4 10.4s-4.7 10.4-10.4 10.4-10.4-4.7-10.4-10.4 4.7-10.4 10.4-10.4zm10.9 23.5h-21.8c-5.5.3-9.9 4.8-9.9 10.4v14.4c.1 2.1 1.8 3.8 3.9 3.8s3.9-1.7 3.9-3.8v-12c0-.7.6-1.3 1.3-1.3s1.3.6 1.3 1.3v42.5c0 2.5 2 4.5 4.5 4.5s4.5-2 4.5-4.5v-21.6c0-.7.6-1.3 1.3-1.3s1.3.6 1.3 1.3v21.5c0 2.5 2 4.5 4.5 4.5s4.5-2 4.5-4.5v-42.5c0-.7.5-1.3 1.3-1.3.7 0 1.3.6 1.3 1.3v12c.1 2.1 1.8 3.8 3.9 3.8s3.9-1.7 3.9-3.8v-14.4c.2-5.5-4.1-10.1-9.7-10.3z" fill="#6c5b82"/><text fill="#b2aeb7" font-family="'RobotoCondensed-Regular'" font-size="20.6154" transform="translate(946.8902 196.1472)">2020</text><circle cx="967.2" cy="159.2" fill="#6c5b82" r="12.9" stroke="#fff" stroke-miterlimit="10" stroke-width="4.5"/><path d="m897.9 295.2h139.7v17.7h-139.7zm-1-29.6h72.8v17.7h-72.7zm85.4 0h55.3v17.7h-55.3zm-84.4 88.9h139.7v17.7h-139.7zm-1-29h26.8v17.1h-26.7zm39.4 0h101.3v17.1h-101.3zm-38.4-30.3h139.7v17.7h-139.7zm-1-29.6h72.8v17.7h-72.7zm85.4 0h55.3v17.7h-55.3zm-84.4 88.9h139.7v17.7h-139.7zm-1-29h26.8v17.1h-26.7zm39.4 0h101.3v17.1h-101.3zm-39.4-106.3h140.7v27h-140.6zm0 0h140.7v27h-140.6z" fill="#eeedef"/><path d="m944.3 38.9c3.2 0 5.8 2.6 5.8 5.8s-2.6 5.8-5.8 5.8-5.8-2.6-5.8-5.8 2.6-5.8 5.8-5.8zm47.2 38.9c-.6-1-1.2-1.9-1.7-2.7-1.5-2.5-.4-5.4.5-7.8.2-.5.4-1 .5-1.5l5.1 15.2c.5 1.5 2.1 2.2 3.5 1.7s2.1-2 1.6-3.4l-6.8-20.1c-.9-2.6-3.4-4.4-6.1-4.4h-11.1c-2.8 0-5.2 1.8-6.1 4.4l-4.6 13.7-8.5-16.9c-1.2-2.2-3.5-3.5-6-3.5h-1.7l-4.5 11.4v-11.4h-2.8v11.5l-4.5-11.5h-2.3c-4.7 0-8.5 3.9-8.5 8.5v22.1c0 1.6 1.2 3.1 2.8 3.1 1.7 0 3.1-1.5 3.1-3.1v-20.1c0-.6.5-1.1 1.1-1.1s1.1.5 1.1 1.1v52.8c0 2 1.7 3.7 3.7 3.7s3.7-1.7 3.7-3.7v-29.5h2.3v29.5c0 2 1.6 3.7 3.7 3.7s3.7-1.7 3.7-3.7v-52.9c0-.6.5-1 1-1 .4 0 .7.2.9.5l9.3 18.9c.8 1.4 2.6 2 4.1 1.1.8-.4 1.2-1.3 1.4-1.8 1.3-3.7 5.1-14.9 5.1-14.9.2.5.4 1 .6 1.6.9 2.4 2 5.4.5 7.6-6.1 8.6-12.8 19.4-14.6 39.5 0 .3.1.6.3.8s.5.3.7.3h12.3v.4c0 1.9 1.6 3.5 3.5 3.5s3.5-1.6 3.5-3.5v-.4h2.7v.4c0 1.9 1.6 3.5 3.5 3.5s3.5-1.6 3.5-3.5v-.4h12.5c.3 0 .5-.1.7-.3s.3-.5.3-.8c-1.5-18.3-8.1-28.9-13-36.6zm-28.5 35.7c1.9-18.8 8.3-29.2 14.1-37.4 2.2-3 .8-6.7-.3-9.5-.4-1-.8-2-.8-2.5 0-.7.3-1.5.8-2s1.2-.8 2-.8c1.2 0 2.3 1 2.9 1.8.2.2.5.4.8.4s.6-.2.8-.4c.7-1 1.4-1.7 2.8-1.7h.1c1.6 0 2.9 1.3 2.8 2.8 0 .5-.4 1.5-.7 2.5-1 2.6-2.3 6.2-.3 9.5.5.9 1.1 1.8 1.7 2.8 4.6 7.4 10.9 17.5 12.5 34.7zm16.7-61.6c.9.6 5.5 2.4 10.6-2.4 2-2.1 3-5.3 3-5.3s-2.2 1-3.9.3c-1.2-.4-2.3-1.8-2.5-2.1-.5-.6-1.2-1.1-2-1.5-3-1.4-6.5 0-7.9 3-1.3 3.2-.1 6.6 2.7 8z" fill="#6c5b82"/><text fill="#b2aeb7" font-family="'RobotoCondensed-Regular'" font-size="20.6154" transform="translate(1168.8228 196.1472)">2012</text><circle cx="1189.2" cy="159.2" fill="#6c5b82" r="12.9" stroke="#fff" stroke-miterlimit="10" stroke-width="4.5"/><path d="m1258.6 342.6h-139.7v-17.7h139.7zm.9 29.6h-72.8v-17.7h72.7zm-85.4 0h-55.2v-17.7h55.2zm84.5-89h-139.7v-17.7h139.7zm.9 29.1h-26.8v-17.1h26.7zm-39.4 0h-101.2v-17.1h101.2zm38.5 30.3h-139.7v-17.7h139.7zm.9 29.6h-72.8v-17.7h72.7zm-85.4 0h-55.2v-17.7h55.2zm85.4-59.9h-26.8v-17.1h26.7zm-39.4 0h-101.2v-17.1h101.2zm38.5-66.1h-139.7v-27h139.7z" fill="#eeedef"/><path d="m1163.9 51.9c3.8 0 6.8-3.1 6.8-6.8s-3.1-6.8-6.8-6.8c-2.6 0-4.8 1.4-5.9 3.5-.2.2-.3.5-.5.7-1.4 1.4-3.5 1.4-4.8 0-.2-.2-.4-.5-.5-.7.8 5.7 5.7 10.1 11.7 10.1zm14.7 34.2c1.7-.2 2.8-1.7 2.6-3.3l-2.6-21.8c-.6-4.1-4.1-7.4-8.5-7.4h-13.1c-4.3 0-7.9 3.2-8.5 7.4l-2.6 21.8c-.2 1.7 1 3.2 2.6 3.3 1.7.2 3.2-1 3.3-2.6l2.5-20.2c.1-.4.5-.7.8-.7.5 0 .8.4.8.8v.2s-1.7 14.4-1.8 14.7c-.1.4-.1.8-.1 1.1v36.5c0 2.6 1.9 4.7 4.3 4.7 2.3 0 4.3-2.1 4.3-4.7v-29.8c0-.5.4-.8.8-.8.5 0 .8.4.8.8v29.6c0 2.6 1.9 4.7 4.3 4.7 2.3 0 4.3-2.1 4.3-4.7v-36.4c0-.4 0-.8-.1-1.1 0-.3-1.8-14.7-1.8-14.7s0-.1 0-.2c0-.5.4-.8.8-.8.5 0 .8.3.8.7l2.4 20.2c.5 1.8 2 3 3.7 2.7zm4.8 2.4c2.2 0 4 1.8 4 4s-1.8 4-4 4-4-1.8-4-4 1.8-4 4-4zm4.1 9h-8.3c-2.1.1-3.8 1.9-3.8 4v5.5c0 .8.7 1.4 1.5 1.4s1.5-.7 1.5-1.4v-4.6c0-.3.2-.5.5-.5s.5.2.5.5v16.3c0 1 .8 1.7 1.7 1.7 1 0 1.7-.8 1.7-1.7v-8.3c0-.3.2-.5.5-.5s.5.2.5.5v8.3c0 1 .8 1.7 1.7 1.7 1 0 1.7-.8 1.7-1.7v-16.3c0-.3.2-.5.5-.5s.5.2.5.5v4.6c0 .8.7 1.4 1.5 1.4s1.5-.7 1.5-1.4v-5.5c.2-2.1-1.5-3.9-3.7-4zm33.3-59.6c3.8 0 6.8 3.1 6.8 6.8s-3.1 6.8-6.8 6.8-6.8-3.1-6.8-6.8 3.1-6.8 6.8-6.8zm8.7 15.5h-17.1c-4.7 0-8.6 3.8-8.6 8.6v21c0 1.7 1.4 3 3 3 1.7 0 3-1.4 3-3v-19.3c0-.5.4-.8.8-.8s.8.4.8.8v52.1c0 2.6 1.9 4.7 4.3 4.7s4.3-2.1 4.3-4.7v-29.7c0-.5.4-.8.8-.8.5 0 .8.4.8.8v29.7c0 2.6 1.9 4.7 4.3 4.7s4.3-2.1 4.3-4.7v-52.1c0-.5.4-.8.8-.8.5 0 .8.4.8.8v19.3c0 1.7 1.4 3 3 3 1.7 0 3-1.4 3-3v-21c.2-4.8-3.7-8.6-8.3-8.6zm-28.2 35.1c2.2 0 4 1.8 4 4s-1.8 4-4 4-4-1.8-4-4 1.8-4 4-4zm4.2 9h-8.4c-2.1.1-3.8 1.9-3.8 4v5.5c0 .8.7 1.4 1.5 1.4s1.5-.7 1.5-1.4v-4.6c0-.3.2-.5.5-.5s.5.2.5.5v16.3c0 1 .8 1.7 1.7 1.7s1.7-.8 1.7-1.7v-8.3c0-.3.2-.5.5-.5s.5.2.5.5v8.3c0 1 .8 1.7 1.7 1.7 1 0 1.7-.8 1.7-1.7v-16.3c0-.3.2-.5.5-.5s.5.2.5.5v4.6c0 .8.7 1.4 1.5 1.4s1.5-.7 1.5-1.4v-5.5c.2-2.1-1.5-3.9-3.6-4z" fill="#6c5b82"/><text fill="#b2aeb7" font-family="'RobotoCondensed-Regular'" font-size="20.6154" transform="translate(724.9578 195.8528)">2009</text><circle cx="745.3" cy="159.2" fill="#6c5b82" r="12.9" stroke="#fff" stroke-miterlimit="10" stroke-width="4.5"/><path d="m675.5 265.6h95.2v17.7h-95.2zm109.2 0h30.5v17.7h-30.5zm-109.2 29.6h139.7v17.7h-139.7zm0 29.7h139.7v17.7h-139.7zm0 29.6h139.7v17.7h-139.7zm0-135.3h139.7v27h-139.7z" fill="#eeedef"/><path d="m738.6 45.9c0-4.4 3.6-8 8-8s8 3.6 8 8-3.6 8-8 8-8-3.5-8-8zm38.8 28.9 3.8-19.6-3.6-.7-3.5 18.1h-9.3c0-.2.1-.4.1-.7 0-2.2-1.8-4-4-4h-15.9l-4.3-11.6c-.8-3-2.8-5.1-6.3-5.1-3.7 0-6.2 3.4-7.5 6.9-2.6 6.9-4.4 18.6-3.6 26.2.4 3.5 1.4 6.5 3.8 7.8h-6.7v-24.5h-5.1v51.8h5.1v-22.3h24.1l-3.4 16.7c-.5 2.6 1.1 5.1 3.7 5.6.3.1.6.1.9.1 2.2 0 4.2-1.6 4.7-3.8l3-14.7 4.1 11c.7 1.9 2.5 3.1 4.5 3.1.6 0 1.1-.1 1.7-.3 2.5-.9 3.7-3.7 2.8-6.1l-8.3-22.4c-.7-1.9-2.5-3.1-4.5-3.1h-12.5v-2.9h38.4v39.1h5.1v-44.6z" fill="#6c5b82"/></svg>