<?xml version="1.0" encoding="utf-8"?>
<!-- Generator: Adobe Illustrator 22.1.0, SVG Export Plug-In . SVG Version: 6.00 Build 0)  -->
<svg version="1.1" id="Layer_1" xmlns="http://www.w3.org/2000/svg" xmlns:xlink="http://www.w3.org/1999/xlink" x="0px" y="0px"
	 viewBox="0 0 1268 418" style="enable-background:new 0 0 1268 418;" xml:space="preserve">
<style type="text/css">
	.st0{fill:#AEA5BF;stroke:#6C5B82;stroke-width:4;stroke-miterlimit:10;}
	.st1{fill:#B2AEB7;}
	.st2{font-family:'RobotoCondensed-Regular';}
	.st3{font-size:20.6154px;}
	.st4{fill:#D3D0DD;}
	.st5{fill:#6C5B82;}
</style>
<path class="st0" d="M1257.7,212.7H2.7"/>
<text transform="matrix(1 0 0 1 15.0967 187.2397)" class="st1 st2 st3">2004</text>
<text transform="matrix(1 0 0 1 317.7109 187.2397)" class="st1 st2 st3">2006</text>
<text transform="matrix(1 0 0 1 606.355 187.2397)" class="st1 st2 st3">2008</text>
<text transform="matrix(1 0 0 1 896.2725 187.5342)" class="st1 st2 st3">2010</text>
<text transform="matrix(1 0 0 1 1197.751 187.5342)" class="st1 st2 st3">2012</text>
<path class="st4" d="M2.4,238.7h65.8v14.9H2.4L2.4,238.7z"/>
<path class="st4" d="M265.9,238.7h139.7v14.9H265.9V238.7z"/>
<path class="st4" d="M836.2,238.7H913v14.9h-76.7V238.7z"/>
<path class="st4" d="M925.6,238.7H995v14.9h-69.4V238.7z"/>
<path class="st4" d="M1130.6,238.7h88.2v14.9h-88.2V238.7z"/>
<path class="st4" d="M1231.4,238.7h36.6v14.9h-36.6V238.7z"/>
<path class="st4" d="M565.5,238.7h83.6v14.9h-83.6V238.7z"/>
<path class="st4" d="M661.7,238.7h26.5v14.9h-26.5V238.7z"/>
<g>
	<circle class="st5" cx="34.4" cy="213.1" r="8.6"/>
	<circle class="st5" cx="335.7" cy="213.1" r="8.6"/>
	<circle class="st5" cx="625.7" cy="213.1" r="8.6"/>
	<circle class="st5" cx="915.6" cy="213.1" r="8.6"/>
	<circle class="st5" cx="1217" cy="213.1" r="8.6"/>
</g>
</svg>
