<?xml version="1.0" encoding="utf-8"?>
<!-- Generator: Adobe Illustrator 19.2.0, SVG Export Plug-In . SVG Version: 6.00 Build 0)  -->
<svg version="1.1" id="Layer_1" xmlns="http://www.w3.org/2000/svg" xmlns:xlink="http://www.w3.org/1999/xlink" x="0px" y="0px"
	 width="1268px" height="558px" viewBox="0 0 1268 558" enable-background="new 0 0 1268 558" xml:space="preserve">
<rect x="-0.469" y="2" fill="#FFFFFF" width="1264" height="554"/>
<rect x="-440.719" y="963.375" display="none" fill="#A8B0E3" width="1260" height="550"/>
<g id="Layer_2">
</g>
<line fill="#4F3D6E" stroke="#4F3D6E" stroke-width="4" stroke-miterlimit="10" x1="85.239" y1="278" x2="845.219" y2="278"/>
<g>
	<path fill="none" stroke="#4F3D6E" stroke-width="4" stroke-miterlimit="10" d="M844.661,276c20.82,0,20.82,16,41.641,16
		c20.818,0,20.818-16,41.636-16c20.82,0,20.82,16,41.641,16c20.821,0,20.821-16,41.642-16c20.822,0,20.822,16,41.643,16
		c20.821,0,20.821-16,41.642-16c20.824,0,20.824,16,41.648,16s20.824-16,41.648-16"/>
</g>
<g>
	<text transform="matrix(1 0 0 1 57.979 333.3333)" fill="#4F3D6E" font-family="'RobotoCondensed-Bold'" font-size="26px">1190</text>
</g>
<circle fill="#6C5F82" cx="85.239" cy="193.833" r="46"/>
<g>
	<text transform="matrix(1 0 0 1 312.5685 333.3333)" fill="#4F3D6E" font-family="'RobotoCondensed-Bold'" font-size="26px">1200</text>
</g>
<circle fill="#6C5F82" cx="338.38" cy="193.833" r="46"/>
<g>
	<text transform="matrix(1 0 0 1 565.0836 333.3333)" fill="#4F3D6E" font-family="'RobotoCondensed-Bold'" font-size="26px">1210</text>
</g>
<circle fill="#6C5F82" cx="591.521" cy="193.833" r="46"/>
<g>
	<text transform="matrix(1 0 0 1 817.972 333.3333)" fill="#4F3D6E" font-family="'RobotoCondensed-Bold'" font-size="26px">1220</text>
</g>
<circle fill="#6C5F82" cx="844.661" cy="193.833" r="46"/>
<g>
	<text transform="matrix(1 0 0 1 1153.0126 333.3333)" fill="#4F3D6E" font-family="'RobotoCondensed-Bold'" font-size="26px">1245</text>
</g>
<g>
	<circle fill="#4F3D6E" cx="85.239" cy="278.333" r="10"/>
	<circle fill="#4F3D6E" cx="338.38" cy="278.333" r="10"/>
	<circle fill="#4F3D6E" cx="591.521" cy="278.333" r="10"/>
	<circle fill="#4F3D6E" cx="844.661" cy="278.333" r="10"/>
	<circle fill="#4F3D6E" cx="1177.802" cy="278.333" r="10"/>
</g>
<circle fill="#6C5F82" cx="1177.802" cy="193.833" r="46"/>
<path fill="#EBE0D4" d="M77.27,174.324c0-4.267,3.487-7.755,7.801-7.755c4.313,0,7.801,3.441,7.801,7.755
	c0,4.267-3.487,7.755-7.801,7.755C80.757,182.079,77.27,178.592,77.27,174.324z M103.563,195.157
	c2.707,2.753-1.239,6.424-3.854,3.671l-6.516-6.47v5.965h-8.168h-8.214v-5.919l-6.286,6.332c-2.845,2.799-6.699-0.826-3.854-3.671
	l10.416-10.416c0.872-0.826,1.79-1.377,3.258-1.377h4.726h4.589c1.468,0,2.478,0.551,3.35,1.377L103.563,195.157z M98.469,206.674
	c1.698,1.698,1.285,4.68-0.321,6.286l-7.342,7.617c-2.799,2.845-6.608-1.055-3.854-3.809l4.634-4.634l-4.543-4.543l6.149-6.195
	L98.469,206.674z M83.098,216.769c2.707,2.707-1.055,6.653-3.9,3.809l-7.342-7.617c-1.56-1.606-2.019-4.589-0.321-6.286l5.323-5.277
	l6.149,6.149l-4.543,4.543L83.098,216.769z"/>
<path id="XMLID_3_" fill="#EBE0D4" d="M339.126,165.57c9.465,0,18.188,7.105,20.002,14.93c0.393,1.749,0.853,6.296,0.853,6.296
	l4.35,10.974c0.087,0.197,0.131,0.415,0.131,0.656c0,0.918-0.743,1.683-1.683,1.683h-2.798v5.837c0,4.547-3.673,8.241-8.219,8.241
	h-3.279v6.383H336.35v-2.842h-4.94v2.842h-5.159v-17.707c-4.853-3.826-7.979-9.75-7.979-16.417
	C318.25,174.904,327.584,165.57,339.126,165.57 M336.35,206.273h-4.94v2.667h4.94V206.273z M336.35,202.47h-4.94v2.667h4.94V202.47z
	 M336.35,210.099h-4.94v2.689h4.94V210.099z M336.35,213.902h-4.94v2.689h4.94V213.902z M336.35,198.666h-4.984
	c0,0.197,0.022,0.393,0.022,0.59v2.077h4.962V198.666z M322.644,183.255c0,1.421,0.568,2.711,1.465,3.673
	c0.153,2.033,1.443,3.738,3.235,4.525v0.022c2.186,1.268,3.498,3.454,3.891,6.077h2.055v-6.055c-0.022-1.88-0.612-3.104-1.858-3.847
	c-0.459-0.262-0.874-0.568-1.224-0.896c-0.918,0.328-1.749,0.984-2.273,1.902c-0.109,0.175-0.306,0.284-0.503,0.284
	c-0.087,0-0.197-0.022-0.284-0.066c-0.284-0.153-0.372-0.503-0.219-0.765l0,0c0.59-1.027,1.465-1.814,2.47-2.252
	c-0.525-0.787-0.809-1.749-0.787-2.886c0,0,0,0,0-0.022c0-0.503,0.066-1.006,0.219-1.486c-1.18-0.219-2.23-0.831-2.995-1.661
	c-0.219-0.24-0.197-0.59,0.044-0.809c0.24-0.219,0.59-0.197,0.787,0.044c0.678,0.721,1.574,1.224,2.601,1.355
	c0.831-1.53,2.361-2.601,4.153-2.82c-0.109-0.962-0.547-1.836-1.224-2.492c-0.219-0.219-0.219-0.568,0-0.787
	c0.219-0.219,0.59-0.219,0.809,0c0.831,0.831,1.399,1.967,1.552,3.213c2.12-0.262,3.738-2.055,3.738-4.241
	c0-0.306,0.262-0.568,0.568-0.568c0.328,0,0.568,0.262,0.568,0.568c0,0.372-0.044,0.721-0.109,1.071
	c0.809,0.7,1.793,1.049,2.798,1.049c0.503,0,0.984-0.087,1.443-0.262c0,0,0,0,0.022,0c0.568-0.197,1.093-0.546,1.552-0.984
	c0.219-0.219,0.568-0.219,0.809,0c0.219,0.219,0.219,0.568,0,0.809c-0.459,0.459-0.984,0.831-1.552,1.093
	c0.109,1.421,0.94,2.623,2.077,3.301c0.656-1.006,1.661-1.814,2.886-2.186c0.306-0.087,0.612,0.066,0.721,0.372
	c0.087,0.306-0.066,0.612-0.372,0.7c-0.918,0.284-1.639,0.853-2.164,1.552c0.35,0.087,0.721,0.153,1.093,0.153l0,0h0.066
	c1.465,0,2.798,0.568,3.76,1.53c0.24,0.219,0.24,0.568,0,0.809c-0.109,0.109-0.262,0.175-0.415,0.175
	c-0.131,0-0.262-0.044-0.372-0.153c-0.765-0.743-1.814-1.202-2.973-1.202h-0.066l0,0l0,0c-2.733,0-4.984-2.033-5.356-4.656
	c-0.393,0.087-0.765,0.131-1.159,0.131c-1.115,0-2.23-0.35-3.17-1.027c-0.35,0.787-0.896,1.465-1.552,2.011
	c0.678,0.831,1.071,1.814,1.18,2.82c0.284-0.044,0.59-0.066,0.874-0.066c0.853,0,1.727,0.197,2.536,0.634
	c0.284,0.153,0.372,0.481,0.24,0.765c-0.109,0.197-0.306,0.306-0.503,0.306c-0.087,0-0.175-0.022-0.262-0.066
	c-0.656-0.35-1.333-0.503-2.011-0.503c-0.306,0-0.59,0.022-0.874,0.087c-0.131,1.137-0.612,2.273-1.465,3.17
	c-0.109,0.109-0.262,0.175-0.415,0.175c-0.131,0-0.284-0.044-0.393-0.153c-0.24-0.219-0.24-0.568-0.022-0.809l0,0
	c0.765-0.809,1.159-1.814,1.18-2.842c0-0.022,0-0.022,0-0.044v-0.153c0-1.006-0.35-1.989-1.027-2.776
	c-0.721,0.35-1.53,0.568-2.405,0.568l0,0l0,0c-2.361,0-4.263,1.902-4.263,4.263c0.437-0.109,0.896-0.175,1.377-0.175
	c0.678,0,1.355,0.131,2.011,0.393c0.284,0.109,0.437,0.459,0.306,0.743c-0.109,0.284-0.437,0.437-0.743,0.306
	c-0.525-0.219-1.071-0.306-1.596-0.306c-0.437,0-0.853,0.066-1.246,0.197c0.131,0.634,0.415,1.137,0.831,1.596
	c0.022,0.022,0.066,0.066,0.087,0.087c0.328,0.328,0.721,0.612,1.18,0.896c1.64,0.962,2.426,2.689,2.405,4.831v6.055h1.967v-5.771
	c0-2.12,1.333-4.132,2.995-4.831c0.787-0.306,1.64-0.831,2.23-1.508c0.874,0.59,1.902,0.94,3.017,0.94s2.164-0.35,3.017-0.918
	c0.853,0.568,1.88,0.896,2.995,0.896c3.039,0,5.487-2.448,5.487-5.487c0-2.273-1.377-4.219-3.323-5.05
	c-0.525-2.405-2.667-4.219-5.246-4.219c-0.131,0-0.262,0.022-0.393,0.022c-0.962-1.421-2.601-2.339-4.459-2.339
	c-0.918,0-1.771,0.219-2.536,0.634c-0.853-0.568-1.88-0.896-2.973-0.896c-1.399,0-2.689,0.546-3.651,1.443
	c-0.393-0.087-0.809-0.153-1.246-0.153c-2.164,0-4.044,1.312-4.897,3.192c-2.208,0.678-3.804,2.711-3.804,5.137
	c0,0.481,0.066,0.962,0.175,1.399C323.059,180.894,322.644,182.009,322.644,183.255"/>
<path fill="#EBE0D4" d="M585.989,188.121c-3.71,0-6.721-3.011-6.721-6.721h13.442C592.71,185.11,589.699,188.121,585.989,188.121z
	 M574.16,173.818l11.829-6.452l11.829,6.452l-5.108,2.796v3.71h-13.442v-3.71l-1.075-0.591v12.098h-2.151V174.84L574.16,173.818z
	 M577.547,189.787h3.065l4.033,9.678v-8.334c0-0.591,0.484-1.075,1.075-1.075h0.538c0.591,0,1.075,0.484,1.075,1.075v8.388
	l4.033-9.678h14.84v-8.28l0,0l-5.807-5.807c-2.258-2.258-2.258-5.968,0-8.227s5.968-2.258,8.227,0l12.098,12.152
	c1.882,1.882,1.882,4.947,0,6.829c-0.968,0.968-2.204,1.398-3.441,1.398s-2.473-0.484-3.441-1.398l-1.828-1.828v19.948h-16.83
	v17.206h-18.55v-21.938c0-0.484-0.376-0.86-0.86-0.86c-0.484,0-0.86,0.376-0.86,0.86v21.938h-5.915v-23.604
	C569.106,193.605,572.869,189.787,577.547,189.787z M614.648,185.755c1.452,1.452,3.871,1.452,5.323,0
	c1.452-1.452,1.452-3.871,0-5.323l-10.001-10.001c0,0.161,0,0.323,0,0.484c0,1.29-0.484,2.527-1.398,3.441
	c-1.075,1.075-2.527,1.559-3.925,1.398L614.648,185.755z M601.743,174.356c-1.452-1.452-1.452-3.871,0-5.323
	c1.452-1.452,3.871-1.452,5.323,0c1.022,1.022,1.022,2.742,0,3.818c-0.538,0.538-1.237,0.807-1.882,0.807
	c-0.699,0-1.398-0.269-1.882-0.807c-0.215-0.215-0.215-0.538,0-0.753s0.538-0.215,0.753,0c0.645,0.645,1.667,0.645,2.258,0
	c0.591-0.645,0.645-1.667,0-2.258c-1.022-1.022-2.742-1.022-3.818,0c-1.022,1.022-1.022,2.742,0,3.818
	c1.452,1.452,3.871,1.452,5.323,0c0.699-0.699,1.129-1.667,1.129-2.635c0-1.022-0.376-1.936-1.129-2.635
	c-1.828-1.828-4.839-1.828-6.721,0c-1.828,1.828-1.828,4.839,0,6.721l5.054,5.054v-0.753c0-0.161,0-0.323,0.054-0.484
	L601.743,174.356z"/>
<path id="XMLID_4_" fill="#EBE0D4" d="M852.322,171.163c0-3.091-2.503-5.594-5.594-5.594c-3.069,0-5.594,2.503-5.594,5.594
	s2.503,5.594,5.594,5.594C849.819,176.735,852.322,174.254,852.322,171.163z M820.284,190.034h14.953
	c-0.609-0.435-1.045-1.154-1.045-2.002c0-1.436,1.175-2.568,2.612-2.568h0.283l3.352-5.245l1.349,0.892l-2.786,4.353h10.839
	c-0.196-9.12,2.873-10.491,2.873-10.491c11.448-2.351,11.1,19.98,9.054,24.703c0,0.131-0.065,0.152-0.087,0.37h3.439v-13.494h3.918
	v33.953h-3.896l0.022-15.235h-15.366l-0.022,15.235h-3.809v-16.541h-4.135v13.168c0,1.785-1.045,3.439-3.047,3.439
	c-1.806,0-2.829-1.48-2.829-3.286v-17.738c0-2.677,1.981-4.07,4.179-4.07h9.685c0-0.435,0-0.871,0-1.524h-22.353v26.553h-3.047
	v-26.553h-4.135V190.034z"/>
<path id="_x31__2_" fill="#EBE0D4" d="M1162.643,181.482c0,5.251,4.263,9.514,9.514,9.514c5.251,0,9.514-4.308,9.514-9.559
	c0-5.251-4.264-9.514-9.514-9.514C1166.907,171.923,1162.643,176.232,1162.643,181.482z M1203.348,216.263
	c0,2.289-1.84,4.174-4.174,4.174h-19.163c-1.526,0-2.827-0.853-3.545-2.064l-9.514-16.426c-0.314-0.539-1.032-0.763-1.616-0.449
	c-0.538,0.314-0.763,1.032-0.449,1.616l9.604,16.56c0.18,0.269,0.359,0.494,0.539,0.763c-4.802,0-23.741,0-23.965,0
	c0-13.194,6.328-25.94,14.316-28.543c0.269-0.09,0.673-0.224,0.943-0.269c0.269-0.09,0.853-0.18,1.122-0.18
	c1.975,0,3.545,0.763,4.353,2.244l8.258,14.182l5.565-9.604c1.122-1.975,3.68-2.648,5.655-1.526c1.975,1.122,2.648,3.68,1.526,5.7
	l-5.565,9.604h11.938C1201.464,212.045,1203.348,213.885,1203.348,216.263z M1201.912,179.553
	c-3.321,3.007-8.437,2.827-11.489-0.494s-2.827-8.482,0.494-11.489s8.437-2.827,11.489,0.494
	C1205.413,171.295,1205.233,176.456,1201.912,179.553z M1201.508,168.827c-2.558-2.827-7.001-3.052-9.784-0.449
	s-2.962,7.001-0.359,9.828c2.513,2.782,6.911,3.007,9.739,0.404C1203.932,176.007,1204.156,171.609,1201.508,168.827z
	 M1197.2,168.333v5.296c0,0.18-0.135,0.359-0.224,0.449c-0.09,0.135-0.269,0.224-0.449,0.224h-4.443
	c-0.359,0-0.628-0.269-0.628-0.628c0-0.359,0.269-0.628,0.628-0.628h3.815v-4.712c0-0.359,0.269-0.628,0.628-0.628
	C1196.841,167.705,1197.155,168.019,1197.2,168.333z"/>
<g>
	<rect x="-0.469" y="346" fill="#C7C7C7" width="93" height="13"/>
	<rect x="103.531" y="346" fill="#C7C7C7" width="66" height="13"/>
	<rect x="-0.469" y="370" fill="#C7C7C7" width="36" height="13"/>
	<rect x="46.531" y="370" fill="#C7C7C7" width="56" height="13"/>
</g>
<g>
	<rect x="254.531" y="346" fill="#C7C7C7" width="57" height="13"/>
	<rect x="321.531" y="346" fill="#C7C7C7" width="102" height="13"/>
	<rect x="253.531" y="370" fill="#C7C7C7" width="85" height="13"/>
</g>
<g>
	<rect x="759.531" y="346" fill="#C7C7C7" width="39" height="13"/>
	<rect x="809.531" y="346" fill="#C7C7C7" width="120" height="13"/>
</g>
<g>
	<rect x="1094.531" y="346" fill="#C7C7C7" width="56" height="13"/>
	<rect x="1161.531" y="346" fill="#C7C7C7" width="27" height="13"/>
	<rect x="1199.531" y="346" fill="#C7C7C7" width="65" height="13"/>
	<rect x="1094.531" y="370" fill="#C7C7C7" width="85" height="13"/>
	<rect x="1190.531" y="370" fill="#C7C7C7" width="46" height="13"/>
</g>
<g>
	<rect x="506.531" y="346" fill="#C7C7C7" width="47" height="13"/>
	<rect x="563.531" y="346" fill="#C7C7C7" width="23" height="13"/>
	<rect x="597.531" y="346" fill="#C7C7C7" width="79" height="13"/>
	<rect x="506.531" y="370" fill="#C7C7C7" width="88" height="13"/>
	<rect x="604.531" y="370" fill="#C7C7C7" width="39" height="13"/>
</g>
</svg>
