<svg enable-background="new 0 0 1268 418" viewBox="0 0 1268 418" xmlns="http://www.w3.org/2000/svg"><path d="m633.1 47.8h550.1c45.3 0 82 36.7 82 82 0 45.3-36.7 82-82 82h-1095.8c-46.5 0-84.3 37.7-84.3 84.3 0 46.5 37.7 84.3 84.3 84.3h544" fill="none" stroke="#c4c4c4" stroke-miterlimit="10" stroke-width="2"/><text fill="#d1cdc9" font-family="'RobotoCondensed-Regular'" font-size="18" transform="translate(98.2468 189.5386)">2004</text><text fill="#d1cdc9" font-family="'RobotoCondensed-Regular'" font-size="18" transform="translate(362.4688 189.5386)">2006</text><text fill="#d1cdc9" font-family="'RobotoCondensed-Regular'" font-size="18" transform="translate(614.4951 189.5388)">2008</text><text fill="#d1cdc9" font-family="'RobotoCondensed-Regular'" font-size="18" transform="translate(867.6318 189.7955)">2010</text><text fill="#d1cdc9" font-family="'RobotoCondensed-Regular'" font-size="18" transform="translate(1130.8638 189.7957)">2012</text><path d="m77.6 234.5h76v13h-76z" fill="#ebe5e1"/><path d="m317.2 234.5h122v13h-122z" fill="#ebe5e1"/><path d="m815.2 234.5h67v13h-67z" fill="#ebe5e1"/><path d="m893.2 234.5h60.6v13h-60.6z" fill="#ebe5e1"/><path d="m1072.2 234.5h77v13h-77z" fill="#ebe5e1"/><path d="m1160.2 234.5h64v13h-64z" fill="#ebe5e1"/><text fill="#d1cdc9" font-family="'RobotoCondensed-Regular'" font-size="18" transform="translate(867.9653 25.7957)">2000</text><text fill="#d1cdc9" font-family="'RobotoCondensed-Regular'" font-size="18" transform="translate(1130.6555 25.7955)">2002</text><path d="m819.4 70.5h39v13h-39z" fill="#ebe5e1"/><path d="m869.4 70.5h80v13h-80z" fill="#ebe5e1"/><path d="m1101.8 70.5h93.2v13h-93.2z" fill="#ebe5e1"/><path d="m560.2 234.5h73v13h-73z" fill="#ebe5e1"/><path d="m644.2 234.5h59v13h-59z" fill="#ebe5e1"/><text fill="#d1cdc9" font-family="'RobotoCondensed-Regular'" font-size="18" transform="translate(97.6636 357.9061)">2014</text><text fill="#d1cdc9" font-family="'RobotoCondensed-Regular'" font-size="18" transform="translate(360.4688 357.9061)">2016</text><text fill="#d1cdc9" font-family="'RobotoCondensed-Regular'" font-size="18" transform="translate(614.1619 357.9061)">2018</text><g fill="#aea5bf"><circle cx="115.1" cy="212.1" r="7.5"/><circle cx="378.2" cy="212.1" r="7.5"/><circle cx="631.4" cy="212.1" r="7.5"/><circle cx="884.5" cy="212.1" r="7.5"/><circle cx="1147.7" cy="212.1" r="7.5"/><circle cx="884.5" cy="48.1" r="7.5"/><circle cx="1147.7" cy="48.1" r="7.5"/><circle cx="115.1" cy="380.3" r="7.5"/><circle cx="378.2" cy="380.3" r="7.5"/><circle cx="631.4" cy="380.3" r="7.5"/></g><path d="m68.7 402.6h93v13h-93z" fill="#ebe5e1"/><path d="m308.7 402.6h47v13h-47z" fill="#ebe5e1"/><path d="m365.7 402.6h82v13h-82z" fill="#ebe5e1"/><path d="m575.5 402.6h23v13h-23z" fill="#ebe5e1"/><path d="m609.5 402.6h79v13h-79z" fill="#ebe5e1"/><circle cx="631.4" cy="47.8" fill="#ebe5e1" r="45.8"/><circle cx="632.2" cy="27.1" fill="#aea5bf" r="8.9"/><path d="m617.9 67v-15.4c0-.6.5-1.1 1.1-1.1s1.1.5 1.1 1.1v15.4h24.4v-15.4c0-.6.5-1.1 1.1-1.1s1.1.5 1.1 1.1v15.4h7.8v-17.6c-.2-6.2-5.2-11.1-11.3-11.1h-22.2c-6.2 0-11.1 4.9-11.1 11.1v17.6z" fill="#aea5bf"/></svg>