<svg enable-background="new 0 0 256 256" height="256" viewBox="0 0 256 256" width="256" xmlns="http://www.w3.org/2000/svg"><path d="m250.1 101.7c-.2 8.7-7.5 15.6-16.2 15.4-6.9-.2-12.9-4.8-14.8-11.5h-75.8c-2.2 8.4-10.7 13.4-19.1 11.3-5.5-1.4-9.8-5.7-11.3-11.3h-76c-2.2 8.4-10.8 13.5-19.2 11.3s-13.5-10.8-11.3-19.2 10.8-13.5 19.2-11.3c5.6 1.4 9.9 5.8 11.3 11.3h75.8c2.2-8.4 10.7-13.4 19.1-11.3 5.5 1.4 9.8 5.7 11.3 11.3h75.8c2.4-8.5 11.2-13.4 19.6-11 6.8 1.9 11.5 8 11.6 15zm-248.1 40h39.4v-12.9h-39.4zm106.3 0h39.4v-12.9h-39.4zm106.3 0h39.4v-12.9h-39.4zm-212.6 16.5h39.4v-7.9h-39.4zm106.3 0h39.4v-7.9h-39.4zm106.3 0h39.4v-7.9h-39.4zm-212.6 12h39.4v-7.9h-39.4zm106.3 0h39.4v-7.9h-39.4zm106.3 0h39.4v-7.9h-39.4z"/></svg>