<svg height="256" viewBox="0 0 256 256" width="256" xmlns="http://www.w3.org/2000/svg"><path d="m110 38.7v39.6a12.4 12.4 0 0 1 0 24.4v41.6a12.4 12.4 0 0 1 0 24.4v48.6a12.5 12.5 0 1 1 -5 0v-48.6a12.4 12.4 0 0 1 0-24.4v-41.6a12.4 12.4 0 0 1 0-24.4v-39.6a12.5 12.5 0 1 1 5 0zm31-22.7v8h90v-8zm0 21h90v-8h-90zm0 51h90v-8h-90zm0 13h90v-8h-90zm0 53h90v-8h-90zm0 13h90v-8h-90zm0 60h90v-8h-90zm0 13h90v-8h-90zm-84-214.2a9.4 9.4 0 0 0 3.5-7.3 9.5 9.5 0 0 0 -19 0 9.4 9.4 0 0 0 3.5 7.3c-7.8 2.3-13.5 8.6-13.5 16.2h39c0-7.6-5.7-13.9-13.5-16.2zm0 64a9.4 9.4 0 0 0 3.5-7.3 9.5 9.5 0 0 0 -19 0 9.4 9.4 0 0 0 3.5 7.3c-7.8 2.3-13.5 8.6-13.5 16.2h39c0-7.6-5.7-13.9-13.5-16.2zm0 67a9.4 9.4 0 0 0 3.5-7.3 9.5 9.5 0 0 0 -19 0 9.4 9.4 0 0 0 3.5 7.3c-7.8 2.3-13.5 8.6-13.5 16.2h39c0-7.6-5.7-13.9-13.5-16.2zm0 72a9.4 9.4 0 0 0 3.5-7.3 9.5 9.5 0 0 0 -19 0 9.4 9.4 0 0 0 3.5 7.3c-7.8 2.3-13.5 8.6-13.5 16.2h39c0-7.6-5.7-13.9-13.5-16.2z" fill-rule="evenodd"/></svg>