<svg enable-background="new 0 0 1200 698.3" viewBox="0 0 1200 698.3" xmlns="http://www.w3.org/2000/svg"><path d="m742.7 419.8h228.8v175.2h-228.8z" fill="#dbdbdb"/><text fill="#514361" font-family="'RobotoMono-Regular'" font-size="32" transform="translate(86.5996 658.7369)">rows of values or categories</text><text transform="translate(992.3126 248.4467)"><tspan fill="#514361" font-family="'RobotoMono-Regular'" font-size="32" x="0" y="0">columns of</tspan><tspan fill="#514361" font-family="'RobotoMono-Regular'" font-size="32" x="0" y="38.4">values or</tspan><tspan fill="#514361" font-family="'RobotoMono-Regular'" font-size="32" x="0" y="76.8">categories</tspan></text><path d="m1067.7 262.4h27.8" fill="#fff"/><g fill="none" stroke="#bcbcbc" stroke-miterlimit="10"><path d="m56.3 69.4v525.6" stroke-width="3.316"/><path d="m285.1 69.4v525.6" stroke-width="3.316"/><path d="m513.9 69.4v525.6" stroke-width="3.316"/><path d="m742.7 69.4v525.6" stroke-width="3.316"/><path d="m971.5 69.4v525.6" stroke-width="3.316"/><path d="m56.3 595h915.2" stroke-width="3.829"/><path d="m56.3 419.8h915.2" stroke-width="3.829"/><path d="m56.3 244.6h915.2" stroke-width="3.829"/><path d="m56.3 69.4h915.2" stroke-width="3.829"/></g><text fill="#939393" font-family="'RobotoMono-Regular'" font-size="38.9704" transform="translate(10.5111 155.5557)">1</text><text fill="#939393" font-family="'RobotoMono-Regular'" font-size="38.9704" transform="translate(154.4115 44.5508)">A</text><text fill="#939393" font-family="'RobotoMono-Regular'" font-size="38.9704" transform="translate(383.9623 44.5508)">B</text><text fill="#939393" font-family="'RobotoMono-Regular'" font-size="38.9704" transform="translate(613.5135 44.5508)">C</text><text fill="#939393" font-family="'RobotoMono-Regular'" font-size="38.9704" transform="translate(843.0663 44.5508)">D</text><text fill="#939393" font-family="'RobotoMono-Regular'" font-size="38.9704" transform="translate(10.5111 335.5107)">2</text><text fill="#939393" font-family="'RobotoMono-Regular'" font-size="38.9704" transform="translate(10.5111 515.4648)">3</text><path d="m981.1 496.6h114.4l-1 105.5" style="fill:none;stroke:#afafaf;stroke-width:3;stroke-linecap:round;stroke-miterlimit:10;stroke-dasharray:0 7"/><text transform="translate(1004.2896 630.6929)"><tspan fill="#514361" font-family="'RobotoMono-Regular'" font-size="32" x="0" y="0">cell with</tspan><tspan fill="#514361" font-family="'RobotoMono-Regular'" font-size="32" x="0" y="38.4">value 3D</tspan></text></svg>