<svg xmlns="http://www.w3.org/2000/svg" width="256" height="256" viewBox="0 0 256 256"><title>new-chart-icons-aim-160</title><path d="M7.2,3V252.4H247V3Zm230,47.9H130.6V12.8H237.2ZM49.9,194.7V156.6h70.9v38.1Zm70.9,9.8v38.1H49.9V204.5Zm0-143.8V98.8H49.9V60.7ZM49.9,50.9V12.8h70.9V50.9Zm70.9,57.7v38.2H49.9V108.6ZM40.1,98.8H17V60.7H40.1Zm0,9.8v38.2H17V108.6Zm0,48v38.1H17V156.6Zm90.5,0H237.2v38.1H130.6Zm0-9.8V108.6H237.2v38.2Zm0-48V60.7H237.2V98.8Zm-90.5-86V50.9H17V12.8ZM17,204.5H40.1v38.1H17Zm113.6,38.1V204.5H237.2v38.1Z"/></svg>